<svg width="100" height="100" viewBox="0 0 100 100" fill="none" xmlns="http://www.w3.org/2000/svg">
<path d="M10 58.207C10 68.8157 14.2143 78.9898 21.7157 86.4913C29.2172 93.9928 39.3913 98.207 50 98.207C60.6087 98.207 70.7828 93.9928 78.2843 86.4913C85.7857 78.9898 90 68.8157 90 58.207C90 47.5984 85.7857 37.4242 78.2843 29.9228C70.7828 22.4213 60.6087 18.207 50 18.207C39.3913 18.207 29.2172 22.4213 21.7157 29.9228C14.2143 37.4242 10 47.5984 10 58.207Z" fill="#DAEDF7" stroke="#DAEDF7"/>
<path d="M80.773 62.085C80.773 55.131 79.781 50.747 78.026 47.626C76.5 48.639 75.1623 49.9104 74.073 51.383C76.061 54.31 75.902 62.083 75.902 62.083L80.773 62.085Z" fill="#DAEDF7"/>
<path d="M64.268 36.842C63.862 36.58 63.449 36.308 63.026 36.021C59.113 33.361 58.186 27.928 58.7 24.621L53.623 24.246C53.623 24.246 52.707 29.53 54.193 33.859C55.0844 36.7669 56.9747 39.2664 59.53 40.916L61.492 42.08L64.268 36.842Z" fill="#DAEDF7"/>
<path opacity="0.15" d="M42.355 91.05C42.355 91.5104 43.5746 91.952 45.7455 92.2776C47.9165 92.6031 50.8608 92.786 53.931 92.786C57.0011 92.786 59.9455 92.6031 62.1165 92.2776C64.2874 91.952 65.507 91.5104 65.507 91.05C65.507 90.8221 65.2076 90.5963 64.6258 90.3857C64.0441 90.1751 63.1914 89.9837 62.1165 89.8225C61.0415 89.6613 59.7654 89.5334 58.3609 89.4462C56.9565 89.3589 55.4512 89.314 53.931 89.314C52.4108 89.314 50.9055 89.3589 49.5011 89.4462C48.0966 89.5334 46.8205 89.6613 45.7455 89.8225C44.6706 89.9837 43.8179 90.1751 43.2362 90.3857C42.6544 90.5963 42.355 90.8221 42.355 91.05Z" fill="#45413C"/>
<path d="M78.707 62.085C78.138 50.5 74.223 47.2 68.44 43.642C65.674 41.942 63.545 40.773 61.04 39.071C58.126 37.091 56.868 33.571 56.627 30.538C56.5497 29.7105 56.1752 28.939 55.5729 28.3664C54.9707 27.7937 54.1813 27.4586 53.351 27.423C53.371 26.3588 53.4619 25.2971 53.623 24.245L58.7 24.62C58.186 27.928 59.113 33.361 63.026 36.02C65.531 37.72 67.66 38.89 70.426 40.591C76.689 44.441 80.772 47.975 80.772 62.084L78.707 62.085Z" fill="white"/>
<path d="M64.268 36.842C63.862 36.58 63.449 36.308 63.026 36.021C59.113 33.361 58.186 27.928 58.7 24.621L53.623 24.246C53.623 24.246 52.707 29.53 54.193 33.859C55.0844 36.7669 56.9747 39.2664 59.53 40.916L61.492 42.08L64.268 36.842Z" stroke="#45413C" stroke-linecap="round" stroke-linejoin="round"/>
<path d="M80.773 62.085C80.773 55.131 79.781 50.747 78.026 47.626C76.5 48.639 75.1623 49.9104 74.073 51.383C76.061 54.31 75.902 62.083 75.902 62.083L80.773 62.085Z" stroke="#45413C" stroke-linecap="round" stroke-linejoin="round"/>
<path d="M53.883 24.264L54.023 22.555C54.0472 22.2466 54.1326 21.9461 54.2742 21.671C54.4158 21.3959 54.6107 21.1518 54.8477 20.9528C55.0846 20.7539 55.3588 20.6041 55.6542 20.5123C55.9497 20.4205 56.2604 20.3884 56.5684 20.4179C56.8764 20.4475 57.1754 20.5381 57.4479 20.6844C57.7205 20.8307 57.9612 21.0299 58.156 21.2703C58.3508 21.5106 58.4958 21.7874 58.5825 22.0843C58.6692 22.3813 58.6959 22.6926 58.661 23L58.508 24.609L53.883 24.264Z" fill="#FFDB94" stroke="#45413C" stroke-linecap="round" stroke-linejoin="round"/>
<path d="M76.115 63.6L76.082 62.087H80.7L80.77 63.493C80.7827 63.8023 80.7337 64.111 80.6258 64.4011C80.5179 64.6912 80.3533 64.957 80.1415 65.1827C79.9297 65.4085 79.6751 65.5899 79.3925 65.7161C79.1099 65.8424 78.8049 65.9111 78.4955 65.9182C78.186 65.9253 77.8782 65.8707 77.5901 65.7575C77.302 65.6444 77.0393 65.4749 76.8174 65.2591C76.5955 65.0433 76.4189 64.7854 76.2977 64.5005C76.1766 64.2157 76.1135 63.9095 76.112 63.6H76.115Z" fill="#FFDB94" stroke="#45413C" stroke-linecap="round" stroke-linejoin="round"/>
<path d="M57.227 45.351C59.827 41.151 60.527 38.309 60.627 36.579C60.6397 36.3801 60.7039 36.1879 60.8134 36.0213C60.9228 35.8546 61.0736 35.7193 61.2511 35.6285C61.4286 35.5378 61.6266 35.4947 61.8257 35.5036C62.0249 35.5124 62.2183 35.5729 62.387 35.679L78.287 45.5C78.4574 45.6033 78.598 45.749 78.6951 45.9229C78.7923 46.0969 78.8425 46.2931 78.841 46.4923C78.8395 46.6915 78.7863 46.8869 78.6865 47.0594C78.5868 47.2318 78.4439 47.3754 78.272 47.476C76.772 48.338 74.545 50.241 71.95 54.444L57.227 45.351Z" fill="#DAEDF7"/>
<path d="M77.18 48.219L60.454 37.889C60.5378 37.4598 60.5932 37.0255 60.62 36.589C60.6309 36.3889 60.6937 36.1951 60.8023 36.0267C60.9109 35.8584 61.0615 35.7212 61.2392 35.6287C61.417 35.5362 61.6158 35.4917 61.816 35.4995C62.0162 35.5072 62.2109 35.567 62.381 35.673L78.3 45.506C78.4709 45.6106 78.6116 45.758 78.7082 45.9336C78.8048 46.1092 78.8539 46.3069 78.8508 46.5073C78.8477 46.7077 78.7924 46.9038 78.6904 47.0763C78.5883 47.2488 78.4431 47.3917 78.269 47.491C77.8907 47.7099 77.5269 47.9531 77.18 48.219Z" fill="white"/>
<path d="M57.227 45.351C59.827 41.151 60.527 38.309 60.627 36.579C60.6397 36.3801 60.7039 36.1879 60.8134 36.0213C60.9228 35.8546 61.0736 35.7193 61.2511 35.6285C61.4286 35.5378 61.6266 35.4947 61.8257 35.5036C62.0249 35.5124 62.2183 35.5729 62.387 35.679L78.287 45.5C78.4574 45.6033 78.598 45.749 78.6951 45.9229C78.7923 46.0969 78.8425 46.2931 78.841 46.4923C78.8395 46.6915 78.7863 46.8869 78.6865 47.0594C78.5868 47.2318 78.4439 47.3754 78.272 47.476C76.772 48.338 74.545 50.241 71.95 54.444L57.227 45.351Z" stroke="#45413C" stroke-linecap="round" stroke-linejoin="round"/>
<path d="M75.139 38.033L70 35.453L68.457 38.205C68.3911 38.323 68.3019 38.4264 68.1949 38.5089C68.0879 38.5915 67.9652 38.6515 67.8344 38.6853C67.7035 38.7192 67.5672 38.7261 67.4336 38.7058C67.3 38.6854 67.1719 38.6382 67.057 38.567L66.867 38.45L66.167 40.118C65.9514 40.6271 65.9252 41.1966 66.093 41.7233C66.2609 42.2501 66.6117 42.6994 67.082 42.99L69.654 44.578C70.1243 44.8688 70.6832 44.9816 71.2295 44.8959C71.7757 44.8103 72.2733 44.5318 72.632 44.111L73.808 42.733L73.656 42.64C73.4365 42.5045 73.2778 42.2895 73.2132 42.0397C73.1485 41.79 73.1828 41.525 73.309 41.3L75.139 38.033Z" fill="#FFDB94" stroke="#45413C" stroke-linecap="round" stroke-linejoin="round"/>
<path d="M66.085 47.477C63.4646 45.7794 60.3426 45.0289 57.237 45.35L49.905 57.5L65.043 65.6L71.943 54.42C70.8349 51.5079 68.769 49.0594 66.085 47.477Z" fill="#FF6242" stroke="#45413C" stroke-linecap="round" stroke-linejoin="round"/>
<path d="M70.646 25.553C70.942 25.3165 71.3108 25.1898 71.6896 25.1946C72.0685 25.1993 72.434 25.3352 72.724 25.579L73.551 24.906C75.1982 23.6064 77.2907 23.007 79.3762 23.2375C81.4617 23.468 83.3728 24.5097 84.6965 26.1376C86.0202 27.7656 86.6503 29.8489 86.4505 31.9376C86.2508 34.0263 85.2373 35.9525 83.629 37.3L82.802 37.972C82.9913 38.3191 83.048 38.723 82.9615 39.1088C82.8751 39.4945 82.6515 39.8357 82.3323 40.0688C82.013 40.3019 81.62 40.4111 81.2262 40.376C80.8325 40.3409 80.465 40.1639 80.192 39.878C78.5615 40.7208 76.6905 40.9763 74.8938 40.6017C73.097 40.227 71.4841 39.2451 70.3262 37.821C69.1684 36.3968 68.5363 34.6174 68.5363 32.782C68.5362 30.9466 69.1682 29.1672 70.326 27.743C70.098 27.4034 70.0045 26.9911 70.0637 26.5863C70.1228 26.1815 70.3304 25.8132 70.646 25.553Z" fill="#FFDB94" stroke="#45413C" stroke-linecap="round" stroke-linejoin="round"/>
<path d="M77.481 36.771C77.481 37.0357 77.5861 37.2895 77.7733 37.4767C77.9605 37.6639 78.2143 37.769 78.479 37.769C78.7437 37.769 78.9975 37.6639 79.1847 37.4767C79.3719 37.2895 79.477 37.0357 79.477 36.771C79.477 36.5063 79.3719 36.2525 79.1847 36.0653C78.9975 35.8782 78.7437 35.773 78.479 35.773C78.2143 35.773 77.9605 35.8782 77.7733 36.0653C77.5861 36.2525 77.481 36.5063 77.481 36.771Z" fill="#FFBE3D"/>
<path d="M72.022 30.056C72.022 30.3207 72.1271 30.5745 72.3143 30.7617C72.5015 30.9488 72.7553 31.054 73.02 31.054C73.2847 31.054 73.5385 30.9488 73.7257 30.7617C73.9129 30.5745 74.018 30.3207 74.018 30.056C74.018 29.7913 73.9129 29.5375 73.7257 29.3503C73.5385 29.1631 73.2847 29.058 73.02 29.058C72.7553 29.058 72.5015 29.1631 72.3143 29.3503C72.1271 29.5375 72.022 29.7913 72.022 30.056Z" fill="#FFBE3D"/>
<path d="M79.935 32.954V35.269" stroke="#45413C" stroke-linecap="round" stroke-linejoin="round"/>
<path d="M78.777 34.111H81.092" stroke="#45413C" stroke-linecap="round" stroke-linejoin="round"/>
<path d="M75.762 27.854V30.169" stroke="#45413C" stroke-linecap="round" stroke-linejoin="round"/>
<path d="M74.604 29.012H76.92" stroke="#45413C" stroke-linecap="round" stroke-linejoin="round"/>
<path d="M71.953 35.269C71.953 35.744 72.1417 36.1996 72.4776 36.5355C72.8134 36.8713 73.269 37.06 73.744 37.06C74.219 37.06 74.6746 36.8713 75.0104 36.5355C75.3463 36.1996 75.535 35.744 75.535 35.269C75.535 34.794 75.3463 34.3385 75.0104 34.0026C74.6746 33.6667 74.219 33.478 73.744 33.478C73.269 33.478 72.8134 33.6667 72.4776 34.0026C72.1417 34.3385 71.953 34.794 71.953 35.269Z" fill="#FF6242" stroke="#45413C" stroke-linecap="round" stroke-linejoin="round"/>
<path d="M80.934 20.733C82.4243 21.0864 83.7563 21.922 84.723 23.11L87.577 26.621C88.5295 27.7928 89.0743 29.243 89.129 30.752L89.193 32.522C89.2187 33.2381 89.078 33.9504 88.7818 34.6028C88.4856 35.2553 88.042 35.8301 87.486 36.282L87.03 36.653L82.974 39.953C81.3586 41.2657 79.3483 41.9963 77.267 42.027L76.819 42.033C76.2944 42.041 75.7748 41.9299 75.2993 41.708C74.8238 41.4861 74.4049 41.1592 74.074 40.752C73.9991 40.6596 73.9518 40.548 73.9373 40.4299C73.9229 40.3119 73.9419 40.1922 73.9923 40.0844C74.0427 39.9767 74.1224 39.8853 74.2222 39.8207C74.3221 39.7561 74.4381 39.7208 74.557 39.719L77.791 39.672C78.3114 39.6648 78.8141 39.4823 79.218 39.154L83.569 35.617C83.6987 35.5125 83.8042 35.381 83.8782 35.2317C83.9522 35.0824 83.9929 34.9189 83.9976 34.7523C84.0022 34.5858 83.9707 34.4202 83.9052 34.267C83.8396 34.1138 83.7417 33.9767 83.618 33.865C82.2941 32.6771 81.0614 31.3915 79.93 30.019C78.8004 28.6074 77.7776 27.1136 76.87 25.55C76.786 25.4063 76.6718 25.2824 76.5353 25.1871C76.3988 25.0917 76.2432 25.0272 76.0793 24.9978C75.9154 24.9684 75.7471 24.9749 75.5859 25.0169C75.4248 25.0589 75.2747 25.1354 75.146 25.241L70.789 28.783C70.385 29.1114 70.1032 29.5661 69.989 30.074L69.283 33.231C69.2572 33.3473 69.1991 33.4539 69.1154 33.5386C69.0317 33.6233 68.9258 33.6828 68.8099 33.71C68.694 33.7373 68.5727 33.7313 68.4601 33.6927C68.3474 33.6542 68.2479 33.5846 68.173 33.492C67.8409 33.0854 67.6053 32.6088 67.4841 32.098C67.3628 31.5872 67.359 31.0555 67.473 30.543L67.573 30.106C68.0292 28.0743 69.1564 26.2555 70.773 24.943L74.829 21.643L75.306 21.256C75.8561 20.8083 76.5017 20.4931 77.1931 20.3348C77.8844 20.1765 78.6029 20.1793 79.293 20.343L80.934 20.733Z" fill="#FF6242"/>
<path d="M75.305 21.258C75.8553 20.8104 76.5012 20.4953 77.1927 20.337C77.8841 20.1787 78.6027 20.1814 79.293 20.345L80.934 20.733C82.4243 21.0864 83.7563 21.922 84.723 23.11L87.577 26.621C88.5295 27.7928 89.0743 29.2429 89.129 30.752L89.193 32.522C89.2187 33.2381 89.078 33.9503 88.7818 34.6028C88.4856 35.2552 88.042 35.8301 87.486 36.282L87.03 36.653L85.615 37.8C86.1709 37.348 86.6143 36.7732 86.9103 36.1207C87.2064 35.4683 87.3469 34.756 87.321 34.04L87.258 32.27C87.203 30.761 86.6582 29.3109 85.706 28.139L82.851 24.628C81.885 23.439 80.5528 22.6029 79.062 22.25L77.422 21.862C76.7317 21.6986 76.0132 21.6959 75.3217 21.8542C74.6303 22.0125 73.9844 22.3276 73.434 22.775L74.829 21.641L75.305 21.258Z" fill="#FF6242"/>
<path d="M80.934 20.733C82.4243 21.0864 83.7563 21.922 84.723 23.11L87.577 26.621C88.5295 27.7928 89.0743 29.243 89.129 30.752L89.193 32.522C89.2187 33.2381 89.078 33.9504 88.7818 34.6028C88.4856 35.2553 88.042 35.8301 87.486 36.282L87.03 36.653L82.974 39.953C81.3586 41.2657 79.3483 41.9963 77.267 42.027L76.819 42.033C76.2944 42.041 75.7748 41.9299 75.2993 41.708C74.8238 41.4861 74.4049 41.1592 74.074 40.752C73.9991 40.6596 73.9518 40.548 73.9373 40.4299C73.9229 40.3119 73.9419 40.1922 73.9923 40.0844C74.0427 39.9767 74.1224 39.8853 74.2222 39.8207C74.3221 39.7561 74.4381 39.7208 74.557 39.719L77.791 39.672C78.3114 39.6648 78.8141 39.4823 79.218 39.154L83.569 35.617C83.6987 35.5125 83.8042 35.381 83.8782 35.2317C83.9522 35.0824 83.9929 34.9189 83.9976 34.7523C84.0022 34.5858 83.9707 34.4202 83.9052 34.267C83.8396 34.1138 83.7417 33.9767 83.618 33.865C82.2941 32.6771 81.0614 31.3915 79.93 30.019C78.8004 28.6074 77.7776 27.1136 76.87 25.55C76.786 25.4063 76.6718 25.2824 76.5353 25.1871C76.3988 25.0917 76.2432 25.0272 76.0793 24.9978C75.9154 24.9684 75.7471 24.9749 75.5859 25.0169C75.4248 25.0589 75.2747 25.1354 75.146 25.241L70.789 28.783C70.385 29.1114 70.1032 29.5661 69.989 30.074L69.283 33.231C69.2572 33.3473 69.1991 33.4539 69.1154 33.5386C69.0317 33.6233 68.9258 33.6828 68.8099 33.71C68.694 33.7373 68.5727 33.7313 68.4601 33.6927C68.3474 33.6542 68.2479 33.5846 68.173 33.492C67.8409 33.0854 67.6053 32.6088 67.4841 32.098C67.3628 31.5872 67.359 31.0555 67.473 30.543L67.573 30.106C68.0292 28.0743 69.1564 26.2555 70.773 24.943L74.829 21.643L75.306 21.256C75.8561 20.8083 76.5017 20.4931 77.1931 20.3348C77.8844 20.1765 78.6029 20.1793 79.293 20.343L80.934 20.733Z" stroke="#45413C" stroke-linecap="round" stroke-linejoin="round"/>
<path d="M79.0371 25.2927L81.1329 23.5889L86.2236 29.8507L84.1278 31.5546L79.0371 25.2927Z" fill="white" stroke="#45413C" stroke-linecap="round" stroke-linejoin="round"/>
<path d="M59.5 89.807L60.121 89.92C60.3794 89.9671 60.6446 89.9628 60.9014 89.9073C61.1582 89.8519 61.4015 89.7464 61.6175 89.5969C61.8335 89.4474 62.0179 89.2568 62.1603 89.036C62.3026 88.8152 62.4 88.5685 62.447 88.31L63.125 84.583L58.57 83.754L57.891 87.481C57.7959 88.0028 57.9121 88.541 58.2138 88.9772C58.5155 89.4134 58.9782 89.7119 59.5 89.807Z" fill="#FFDB94" stroke="#45413C" stroke-linecap="round" stroke-linejoin="round"/>
<path d="M46.641 84.106L47.241 83.912C47.491 83.8313 47.7226 83.7022 47.9227 83.532C48.1228 83.3618 48.2874 83.1538 48.4071 82.92C48.5268 82.6862 48.5992 82.4311 48.6203 82.1692C48.6414 81.9074 48.6107 81.644 48.53 81.394L47.366 77.794L42.96 79.212L44.124 82.812C44.2042 83.0623 44.3329 83.2944 44.5028 83.4949C44.6727 83.6955 44.8805 83.8606 45.1143 83.9807C45.348 84.1009 45.6032 84.1738 45.8652 84.1953C46.1271 84.2168 46.3908 84.1865 46.641 84.106Z" fill="#FFDB94" stroke="#45413C" stroke-linecap="round" stroke-linejoin="round"/>
<path d="M49.905 57.5L45.126 61.749C43.3992 63.2833 42.0898 65.2306 41.3203 67.4087C40.5508 69.5868 40.3463 71.9244 40.726 74.203L41.578 79.317C41.6055 79.482 41.6685 79.639 41.7626 79.7774C41.8566 79.9157 41.9796 80.0319 42.1229 80.1181C42.2662 80.2044 42.4266 80.2585 42.5928 80.2767C42.7591 80.295 42.9274 80.277 43.086 80.224L47.7 78.684C47.9829 78.5896 48.2185 78.3897 48.3576 78.1259C48.4968 77.8621 48.5288 77.5548 48.447 77.268L47.492 73.925C47.1954 72.8866 47.2712 71.7771 47.7062 70.7886C48.1411 69.8002 48.908 68.9948 49.874 68.512L52.865 67.012C53.0257 66.9316 53.2028 66.8897 53.3825 66.8897C53.5622 66.8897 53.7394 66.9316 53.9 67.012L57.485 68.805C57.6484 68.8866 57.7903 69.0057 57.8989 69.1525C58.0075 69.2994 58.0799 69.4698 58.11 69.65L58.635 72.805C58.9882 74.9219 58.9018 77.0889 58.381 79.171L57.215 83.837C57.1723 84.0076 57.169 84.1858 57.2055 84.3579C57.242 84.53 57.3172 84.6915 57.4255 84.8301C57.5338 84.9688 57.6722 85.0809 57.8303 85.158C57.9885 85.2351 58.1621 85.2751 58.338 85.275H64.03C64.2933 85.2751 64.5489 85.1854 64.7543 85.0207C64.9598 84.856 65.1029 84.6261 65.16 84.369L65.887 81.097C66.7991 76.9935 66.7429 72.734 65.723 68.656L65.047 65.596L49.905 57.5Z" fill="#DAEDF7"/>
<path d="M43.849 75.863C43.4695 73.5844 43.674 71.2468 44.4435 69.0688C45.213 66.8908 46.5223 64.9435 48.249 63.409L52.949 59.124L49.905 57.5L45.126 61.749C43.3992 63.2833 42.0898 65.2306 41.3203 67.4087C40.5508 69.5868 40.3463 71.9244 40.726 74.203L41.578 79.317C41.6055 79.482 41.6685 79.639 41.7626 79.7774C41.8566 79.9157 41.9796 80.0319 42.1229 80.1181C42.2662 80.2044 42.4266 80.2585 42.5928 80.2767C42.7591 80.295 42.9274 80.277 43.086 80.224L44.496 79.754L43.849 75.863Z" fill="white"/>
<path d="M49.905 57.5L45.126 61.749C43.3992 63.2833 42.0898 65.2306 41.3203 67.4087C40.5508 69.5868 40.3463 71.9244 40.726 74.203L41.578 79.317C41.6055 79.482 41.6685 79.639 41.7626 79.7774C41.8566 79.9157 41.9796 80.0319 42.1229 80.1181C42.2662 80.2044 42.4266 80.2585 42.5928 80.2767C42.7591 80.295 42.9274 80.277 43.086 80.224L47.7 78.684C47.9829 78.5896 48.2185 78.3897 48.3576 78.1259C48.4968 77.8621 48.5288 77.5548 48.447 77.268L47.492 73.925C47.1954 72.8866 47.2712 71.7771 47.7062 70.7886C48.1411 69.8002 48.908 68.9948 49.874 68.512L52.865 67.012C53.0257 66.9316 53.2028 66.8897 53.3825 66.8897C53.5622 66.8897 53.7394 66.9316 53.9 67.012L57.485 68.805C57.6484 68.8866 57.7903 69.0057 57.8989 69.1525C58.0075 69.2994 58.0799 69.4698 58.11 69.65L58.635 72.805C58.9882 74.9219 58.9018 77.0889 58.381 79.171L57.215 83.837C57.1723 84.0076 57.169 84.1858 57.2055 84.3579C57.242 84.53 57.3172 84.6915 57.4255 84.8301C57.5338 84.9688 57.6722 85.0809 57.8303 85.158C57.9885 85.2351 58.1621 85.2751 58.338 85.275H64.03C64.2933 85.2751 64.5489 85.1854 64.7543 85.0207C64.9598 84.856 65.1029 84.6261 65.16 84.369L65.887 81.097C66.7991 76.9935 66.7429 72.734 65.723 68.656L65.047 65.596L49.905 57.5Z" stroke="#45413C" stroke-linecap="round" stroke-linejoin="round"/>
<path d="M61.047 42.514C61.337 42.405 61.6024 42.2392 61.8275 42.0264C62.0527 41.8135 62.2332 41.5579 62.3584 41.2745C62.4836 40.9911 62.551 40.6856 62.5567 40.3758C62.5623 40.066 62.5062 39.7582 62.3915 39.4704C62.2767 39.1826 62.1058 38.9205 61.8886 38.6996C61.6714 38.4786 61.4123 38.3032 61.1264 38.1836C60.8406 38.064 60.5338 38.0026 60.224 38.0031C59.9141 38.0035 59.6075 38.0657 59.322 38.186L55.939 39.62L57.108 44.12L61.047 42.514Z" fill="#BF8256" stroke="#45413C" stroke-linecap="round" stroke-linejoin="round"/>
<path d="M40.539 52.066C41.3068 51.6276 42.1182 51.2704 42.96 51L56.627 46.608C56.9083 46.5174 57.1444 46.3227 57.2868 46.0637C57.4292 45.8047 57.4672 45.5011 57.393 45.215L55.926 39.572C55.8873 39.4231 55.8193 39.2835 55.7261 39.1613C55.6328 39.039 55.5161 38.9366 55.3827 38.8599C55.2494 38.7833 55.1021 38.734 54.9495 38.715C54.7969 38.6959 54.6421 38.7075 54.494 38.749L35.643 44.03L26.628 47.281V68.118C26.628 68.4251 26.75 68.7196 26.9672 68.9368C27.1843 69.154 27.4789 69.276 27.786 69.276H33.634C33.9309 69.2756 34.2164 69.1613 34.4314 68.9566C34.6465 68.7519 34.7749 68.4725 34.79 68.176L35.39 56.843C35.4209 56.2625 35.5968 55.6991 35.9016 55.2042C36.2065 54.7093 36.6305 54.2987 37.135 54.01L40.539 52.066Z" fill="#DAEDF7"/>
<path d="M35.893 48.252L56.862 43.169L55.926 39.569C55.8873 39.4202 55.8193 39.2805 55.7261 39.1583C55.6328 39.036 55.5161 38.9336 55.3827 38.8569C55.2494 38.7803 55.1021 38.731 54.9495 38.712C54.7969 38.6929 54.6421 38.7045 54.494 38.746L35.643 44.03L26.628 47.281V51.141L35.893 48.252Z" fill="white"/>
<path d="M40.539 52.066C41.3068 51.6276 42.1182 51.2704 42.96 51L56.627 46.608C56.9083 46.5174 57.1444 46.3227 57.2868 46.0637C57.4292 45.8047 57.4672 45.5011 57.393 45.215L55.926 39.572C55.8873 39.4231 55.8193 39.2835 55.7261 39.1613C55.6328 39.039 55.5161 38.9366 55.3827 38.8599C55.2494 38.7833 55.1021 38.734 54.9495 38.715C54.7969 38.6959 54.6421 38.7075 54.494 38.749L35.643 44.03L26.628 47.281V68.118C26.628 68.4251 26.75 68.7196 26.9672 68.9368C27.1843 69.154 27.4789 69.276 27.786 69.276H33.634C33.9309 69.2756 34.2164 69.1613 34.4314 68.9566C34.6465 68.7519 34.7749 68.4725 34.79 68.176L35.39 56.843C35.4209 56.2625 35.5968 55.6991 35.9016 55.2042C36.2065 54.7093 36.6305 54.2987 37.135 54.01L40.539 52.066Z" stroke="#45413C" stroke-linecap="round" stroke-linejoin="round"/>
<path d="M30.417 75.064H29.786C29.2556 75.064 28.7469 74.8533 28.3718 74.4782C27.9967 74.1031 27.786 73.5944 27.786 73.064V69.276H32.417V73.064C32.417 73.5944 32.2063 74.1031 31.8312 74.4782C31.4561 74.8533 30.9474 75.064 30.417 75.064Z" fill="#BF8256" stroke="#45413C" stroke-linecap="round" stroke-linejoin="round"/>
<path d="M37.636 31.056C35.806 26.467 35.601 23.548 35.805 21.827C35.8265 21.629 35.7963 21.4288 35.7172 21.246C35.6381 21.0632 35.5129 20.9041 35.3538 20.7842C35.1947 20.6644 35.0072 20.5879 34.8097 20.5622C34.6122 20.5366 34.4114 20.5627 34.227 20.638L16.866 27.56C16.6805 27.6324 16.517 27.7518 16.3914 27.9063C16.2658 28.0609 16.1825 28.2453 16.1495 28.4417C16.1166 28.6381 16.1351 28.8397 16.2034 29.0268C16.2717 29.2138 16.3873 29.38 16.539 29.509C17.871 30.617 19.73 32.877 21.56 37.465L37.636 31.056Z" fill="#DAEDF7"/>
<path d="M35.743 23.149C35.7342 22.7075 35.755 22.2658 35.805 21.827C35.8265 21.629 35.7963 21.4288 35.7172 21.246C35.6381 21.0632 35.5129 20.9041 35.3538 20.7842C35.1947 20.6644 35.0072 20.5879 34.8097 20.5622C34.6122 20.5366 34.4114 20.5627 34.227 20.638L16.866 27.56C16.6805 27.6324 16.517 27.7518 16.3914 27.9063C16.2658 28.0609 16.1825 28.2453 16.1495 28.4417C16.1166 28.6381 16.1351 28.8397 16.2034 29.0268C16.2717 29.2138 16.3873 29.38 16.539 29.509C16.8771 29.792 17.1955 30.0977 17.492 30.424L35.743 23.149Z" fill="white"/>
<path d="M37.636 31.056C35.806 26.467 35.601 23.548 35.805 21.827C35.8265 21.629 35.7963 21.4288 35.7172 21.246C35.6381 21.0632 35.5129 20.9041 35.3538 20.7842C35.1947 20.6644 35.0072 20.5879 34.8097 20.5622C34.6122 20.5366 34.4114 20.5627 34.227 20.638L16.866 27.56C16.6805 27.6324 16.517 27.7518 16.3914 27.9063C16.2658 28.0609 16.1825 28.2453 16.1495 28.4417C16.1166 28.6381 16.1351 28.8397 16.2034 29.0268C16.2717 29.2138 16.3873 29.38 16.539 29.509C17.871 30.617 19.73 32.877 21.56 37.465L37.636 31.056Z" stroke="#45413C" stroke-linecap="round" stroke-linejoin="round"/>
<path d="M28.34 27.025C28.8539 26.8204 29.2775 26.4385 29.5343 25.9486C29.7911 25.4587 29.864 24.8931 29.74 24.354L29.333 22.589C29.2055 22.6397 29.0689 22.6635 28.9318 22.6591C28.7947 22.6547 28.6599 22.6222 28.5359 22.5634C28.4119 22.5047 28.3013 22.4211 28.211 22.3178C28.1207 22.2145 28.0526 22.0938 28.011 21.963L27.038 18.879L21.638 20.858L22.704 24.235C22.7797 24.4758 22.7616 24.7362 22.6533 24.9642C22.5449 25.1921 22.3545 25.3707 22.12 25.464L21.759 25.608L22.679 27.169C22.9598 27.6452 23.4016 28.0052 23.9246 28.1842C24.4476 28.3632 25.0173 28.3493 25.531 28.145L28.34 27.025Z" fill="#BF8256" stroke="#45413C" stroke-linecap="round" stroke-linejoin="round"/>
<path d="M37.636 31.056C34.6306 30.1959 31.4209 30.394 28.544 31.617C25.6148 32.7086 23.1493 34.7731 21.56 37.465L26.63 50.181L41.63 44.2C41.9142 44.0863 42.1418 43.8646 42.2631 43.5835C42.3843 43.3024 42.3893 42.9848 42.277 42.7L37.636 31.056Z" fill="#00B8F0" stroke="#45413C" stroke-linecap="round" stroke-linejoin="round"/>
<path d="M31.539 12.191C31.4346 11.8268 31.2074 11.5099 30.8958 11.2942C30.5843 11.0785 30.2077 10.9774 29.83 11.008L29.545 9.98102C28.9792 7.93885 27.6252 6.2051 25.7811 5.16118C23.937 4.11726 21.7537 3.84868 19.7115 4.41452C17.6693 4.98036 15.9356 6.33427 14.8917 8.17841C13.8477 10.0225 13.5792 12.2058 14.145 14.248L14.43 15.275C14.0751 15.4485 13.7952 15.745 13.6425 16.1094C13.4898 16.4738 13.4747 16.8812 13.5999 17.2559C13.7251 17.6306 13.9821 17.9471 14.3231 18.1465C14.6642 18.3459 15.066 18.4147 15.454 18.34C16.2935 19.9743 17.6706 21.2692 19.3534 22.0066C21.0362 22.744 22.9217 22.8787 24.6922 22.3882C26.4628 21.8976 28.0101 20.8117 29.0735 19.3135C30.1368 17.8153 30.6512 15.9963 30.53 14.163C30.9131 14.0184 31.2287 13.7364 31.4152 13.3718C31.6018 13.0073 31.6459 12.5863 31.539 12.191Z" fill="#BF8256" stroke="#45413C" stroke-linecap="round" stroke-linejoin="round"/>
<path d="M17.658 16.798C17.658 17.0627 17.7632 17.3165 17.9503 17.5037C18.1375 17.6908 18.3913 17.796 18.656 17.796C18.9207 17.796 19.1745 17.6908 19.3617 17.5037C19.5489 17.3165 19.654 17.0627 19.654 16.798C19.654 16.5333 19.5489 16.2795 19.3617 16.0923C19.1745 15.9051 18.9207 15.8 18.656 15.8C18.3913 15.8 18.1375 15.9051 17.9503 16.0923C17.7632 16.2795 17.658 16.5333 17.658 16.798Z" fill="#BF8256"/>
<path d="M25.997 14.486C25.997 14.617 26.0228 14.7468 26.073 14.8679C26.1231 14.989 26.1966 15.099 26.2893 15.1917C26.382 15.2843 26.492 15.3579 26.6131 15.408C26.7342 15.4582 26.8639 15.484 26.995 15.484C27.1261 15.484 27.2558 15.4582 27.3769 15.408C27.498 15.3579 27.608 15.2843 27.7007 15.1917C27.7934 15.099 27.8669 14.989 27.917 14.8679C27.9672 14.7468 27.993 14.617 27.993 14.486C27.993 14.3549 27.9672 14.2251 27.917 14.1041C27.8669 13.983 27.7934 13.873 27.7007 13.7803C27.608 13.6876 27.498 13.6141 27.3769 13.5639C27.2558 13.5138 27.1261 13.488 26.995 13.488C26.8639 13.488 26.7342 13.5138 26.6131 13.5639C26.492 13.6141 26.382 13.6876 26.2893 13.7803C26.1966 13.873 26.1231 13.983 26.073 14.1041C26.0228 14.2251 25.997 14.3549 25.997 14.486Z" fill="#BF8256"/>
<path d="M18.23 13.876C18.23 14.1407 18.3351 14.3945 18.5223 14.5817C18.7095 14.7688 18.9633 14.874 19.228 14.874C19.4927 14.874 19.7465 14.7688 19.9337 14.5817C20.1209 14.3945 20.226 14.1407 20.226 13.876C20.226 13.6113 20.1209 13.3575 19.9337 13.1703C19.7465 12.9831 19.4927 12.878 19.228 12.878C18.9633 12.878 18.7095 12.9831 18.5223 13.1703C18.3351 13.3575 18.23 13.6113 18.23 13.876Z" fill="#45413C"/>
<path d="M24.003 12.276C24.003 12.5407 24.1081 12.7945 24.2953 12.9817C24.4825 13.1689 24.7363 13.274 25.001 13.274C25.2657 13.274 25.5195 13.1689 25.7067 12.9817C25.8939 12.7945 25.999 12.5407 25.999 12.276C25.999 12.0113 25.8939 11.7575 25.7067 11.5703C25.5195 11.3832 25.2657 11.278 25.001 11.278C24.7363 11.278 24.4825 11.3832 24.2953 11.5703C24.1081 11.7575 24.003 12.0113 24.003 12.276Z" fill="#45413C"/>
<path d="M21.479 2.04598L17.118 3.25398C15.6627 3.65736 14.3785 4.52414 13.46 5.72298L12.383 7.12898C11.9473 7.69764 11.6494 8.35964 11.5128 9.06292C11.3763 9.7662 11.4047 10.4916 11.596 11.182L11.753 11.748L13.153 16.786C13.7079 18.7932 14.9234 20.5548 16.603 21.786L16.965 22.051C17.3881 22.3614 17.8761 22.5718 18.3923 22.6664C18.9084 22.7609 19.4393 22.7372 19.945 22.597C20.0593 22.5644 20.1621 22.5005 20.2418 22.4123C20.3214 22.3242 20.3747 22.2154 20.3956 22.0985C20.4164 21.9815 20.404 21.861 20.3597 21.7508C20.3154 21.6406 20.241 21.545 20.145 21.475L17.536 19.563C17.1163 19.2553 16.8123 18.8154 16.673 18.314L15.173 12.914C15.1277 12.7536 15.1178 12.5854 15.1439 12.4208C15.1699 12.2563 15.2314 12.0994 15.324 11.9608C15.4166 11.8223 15.5381 11.7056 15.6802 11.6186C15.8223 11.5316 15.9815 11.4765 16.147 11.457C17.9142 11.2548 19.6637 10.9205 21.381 10.457C23.1186 9.96057 24.8169 9.33585 26.462 8.58798C26.6138 8.51951 26.7786 8.48477 26.945 8.48617C27.1115 8.48757 27.2757 8.52507 27.4263 8.59609C27.5769 8.6671 27.7103 8.76994 27.8173 8.8975C27.9243 9.02507 28.0023 9.17433 28.046 9.33498L29.546 14.746C29.6842 15.2478 29.6489 15.7816 29.446 16.261L28.2 19.239C28.1541 19.3486 28.14 19.469 28.1592 19.5863C28.1785 19.7036 28.2303 19.8132 28.3088 19.9024C28.3874 19.9917 28.4894 20.0571 28.6033 20.0911C28.7172 20.1252 28.8384 20.1265 28.953 20.095C29.4585 19.955 29.9256 19.7023 30.3195 19.3559C30.7133 19.0095 31.0236 18.5784 31.227 18.095L31.401 17.681C32.207 15.7621 32.343 13.6276 31.787 11.622L30.387 6.58398L30.223 5.99198C30.0336 5.30853 29.6898 4.67772 29.218 4.14821C28.7463 3.6187 28.1592 3.20464 27.502 2.93798L25.945 2.29998C24.5251 1.72516 22.9549 1.63586 21.479 2.04598Z" fill="#00B8F0"/>
<path d="M27.507 2.936L25.945 2.3C24.5253 1.72453 22.9552 1.63452 21.479 2.044L17.118 3.254C15.6627 3.65739 14.3785 4.52417 13.46 5.723L12.383 7.129C11.9473 7.69767 11.6494 8.35967 11.5128 9.06295C11.3763 9.76622 11.4047 10.4916 11.596 11.182L11.753 11.748L12.241 13.506C12.0494 12.8157 12.0206 12.0903 12.157 11.387C12.2934 10.6837 12.5912 10.0216 13.027 9.453L14.105 8.047C15.0234 6.84806 16.3076 5.98126 17.763 5.578L22.123 4.37C23.5993 3.96084 25.1694 4.0512 26.589 4.627L28.151 5.26C28.8083 5.5266 29.3956 5.94063 29.8675 6.47014C30.3395 6.99965 30.6835 7.63049 30.873 8.314L30.392 6.582L30.228 5.99C30.0386 5.30656 29.6948 4.67575 29.223 4.14623C28.7513 3.61672 28.1642 3.20266 27.507 2.936Z" fill="#4ACFFF"/>
<path d="M28.1171 34.1143L31.8134 32.6387C32.6829 32.2874 33.1762 32.2133 33.6844 33.4711C34.1139 34.5342 33.8499 34.8696 32.9637 35.2277L30.3366 36.2891C30.3648 36.4178 30.4683 36.818 30.6473 37.4896C31.1765 37.1856 31.7692 37.0088 32.3785 36.9731C32.9878 36.9374 33.597 37.0437 34.1582 37.2838C34.6583 37.4672 35.1134 37.7554 35.4931 38.129C35.8727 38.5027 36.1682 38.9532 36.3595 39.4503C36.5667 39.9421 36.6732 40.4704 36.673 41.004C36.6728 41.5376 36.5658 42.0658 36.3582 42.5575C36.1609 43.0603 35.8602 43.5162 35.4757 43.8956C35.0912 44.275 34.6313 44.5695 34.1258 44.76C31.9684 45.6317 29.992 44.8501 29.7344 44.2125C29.6385 43.8067 29.6959 43.3798 29.8955 43.0137C29.9421 42.8337 30.0258 42.6654 30.1411 42.5196C30.2565 42.3738 30.4011 42.2536 30.5656 42.1669C30.9623 42.0583 31.3838 42.0843 31.7642 42.2409C32.1252 42.3304 32.505 42.3066 32.852 42.1728C33.1991 42.039 33.4965 41.8016 33.704 41.4929C33.7678 41.3463 33.8011 41.1882 33.8017 41.0283C33.8024 40.8684 33.7703 40.7101 33.7076 40.563C33.6449 40.4159 33.5528 40.2832 33.437 40.1729C33.3212 40.0627 33.1842 39.9772 33.0342 39.9218C32.7503 39.8217 32.44 39.8264 32.1593 39.9351C31.8785 40.0437 31.6459 40.2491 31.5033 40.5142C31.3662 40.8141 31.1251 41.0543 30.8246 41.1902C30.4845 41.3077 30.121 41.341 29.7652 41.2872C29.4644 41.269 29.1676 41.2096 28.8829 41.1108C28.8134 41.0839 28.7499 41.0435 28.6961 40.9919C28.6423 40.9404 28.5992 40.8787 28.5693 40.8104C28.5175 40.6823 27.2895 35.9013 27.2745 35.8366C27.1828 35.4961 27.2176 35.134 27.3725 34.8173C27.5274 34.5005 27.792 34.2508 28.1171 34.1143Z" fill="#FFF48C" stroke="#45413C" stroke-linecap="round" stroke-linejoin="round"/>
<path d="M21.479 2.04598L17.118 3.25398C15.6627 3.65736 14.3785 4.52414 13.46 5.72298L12.383 7.12898C11.9473 7.69764 11.6494 8.35964 11.5128 9.06292C11.3763 9.7662 11.4047 10.4916 11.596 11.182L11.753 11.748L13.153 16.786C13.7079 18.7932 14.9234 20.5548 16.603 21.786L16.965 22.051C17.3881 22.3614 17.8761 22.5718 18.3923 22.6664C18.9084 22.7609 19.4393 22.7372 19.945 22.597C20.0593 22.5644 20.1621 22.5005 20.2418 22.4123C20.3214 22.3242 20.3747 22.2154 20.3956 22.0985C20.4164 21.9815 20.404 21.861 20.3597 21.7508C20.3154 21.6406 20.241 21.545 20.145 21.475L17.536 19.563C17.1163 19.2553 16.8123 18.8154 16.673 18.314L15.173 12.914C15.1277 12.7536 15.1178 12.5854 15.1439 12.4208C15.1699 12.2563 15.2314 12.0994 15.324 11.9608C15.4166 11.8223 15.5381 11.7056 15.6802 11.6186C15.8223 11.5316 15.9815 11.4765 16.147 11.457C17.9142 11.2548 19.6637 10.9205 21.381 10.457C23.1186 9.96057 24.8169 9.33585 26.462 8.58798C26.6138 8.51951 26.7786 8.48477 26.945 8.48617C27.1115 8.48757 27.2757 8.52507 27.4263 8.59609C27.5769 8.6671 27.7103 8.76994 27.8173 8.8975C27.9243 9.02507 28.0023 9.17433 28.046 9.33498L29.546 14.746C29.6842 15.2478 29.6489 15.7816 29.446 16.261L28.2 19.239C28.1541 19.3486 28.14 19.469 28.1592 19.5863C28.1785 19.7036 28.2303 19.8132 28.3088 19.9024C28.3874 19.9917 28.4894 20.0571 28.6033 20.0911C28.7172 20.1252 28.8384 20.1265 28.953 20.095C29.4585 19.955 29.9256 19.7023 30.3195 19.3559C30.7133 19.0095 31.0236 18.5784 31.227 18.095L31.401 17.681C32.207 15.7621 32.343 13.6276 31.787 11.622L30.387 6.58398L30.223 5.99198C30.0336 5.30853 29.6898 4.67772 29.218 4.14821C28.7463 3.6187 28.1592 3.20464 27.502 2.93798L25.945 2.29998C24.5251 1.72516 22.9549 1.63586 21.479 2.04598Z" stroke="#45413C" stroke-linecap="round" stroke-linejoin="round"/>
<path d="M19.936 18.459C22.562 20.653 25.599 19.811 26.72 16.579L19.936 18.459Z" fill="#FF6242" stroke="#45413C" stroke-linecap="round" stroke-linejoin="round"/>
<path d="M16.011 6.31379L23.7878 4.15826L24.5092 6.76113L16.7324 8.91666L16.011 6.31379Z" fill="white" stroke="#45413C" stroke-linecap="round" stroke-linejoin="round"/>
<path d="M44.465 35.6L42.843 31.532C41.5493 28.2766 39.0213 25.6645 35.81 24.265C36.1013 26.6014 36.7158 28.8859 37.636 31.053L40.047 37.1C40.1674 37.4016 40.2272 37.7241 40.223 38.0488C40.2187 38.3736 40.1505 38.6943 40.0223 38.9927C39.894 39.2911 39.7082 39.5612 39.4755 39.7878C39.2428 40.0143 38.9677 40.1928 38.666 40.313L36.944 41C36.3791 41.2352 35.9295 41.6832 35.6921 42.2471C35.4547 42.8111 35.4487 43.4458 35.6754 44.0141C35.9021 44.5824 36.3432 45.0388 36.9035 45.2847C37.4638 45.5305 38.0983 45.5461 38.67 45.328L40.615 44.552C42.3126 43.8754 43.6719 42.5521 44.3939 40.8733C45.1159 39.1945 45.1415 37.2977 44.465 35.6Z" fill="#DAEDF7"/>
<path d="M42.843 31.535C41.5493 28.2796 39.0213 25.6675 35.81 24.268C35.9257 25.3421 36.1287 26.4049 36.417 27.446C38.1173 28.0655 39.6732 29.0257 40.9893 30.2677C42.3054 31.5097 43.3541 33.0074 44.071 34.669L44.09 34.662L42.843 31.535Z" fill="white"/>
<path d="M44.465 35.6L42.843 31.532C41.5493 28.2766 39.0213 25.6645 35.81 24.265C36.1013 26.6014 36.7158 28.8859 37.636 31.053L40.047 37.1C40.1674 37.4016 40.2272 37.7241 40.223 38.0488C40.2187 38.3736 40.1505 38.6943 40.0223 38.9927C39.894 39.2911 39.7082 39.5612 39.4755 39.7878C39.2428 40.0143 38.9677 40.1928 38.666 40.313L36.944 41C36.3791 41.2352 35.9295 41.6832 35.6921 42.2471C35.4547 42.8111 35.4487 43.4458 35.6754 44.0141C35.9021 44.5824 36.3432 45.0388 36.9035 45.2847C37.4638 45.5305 38.0983 45.5461 38.67 45.328L40.615 44.552C42.3126 43.8754 43.6719 42.5521 44.3939 40.8733C45.1159 39.1945 45.1415 37.2977 44.465 35.6Z" stroke="#45413C" stroke-linecap="round" stroke-linejoin="round"/>
<path d="M38.318 40.456L36.944 41C36.3791 41.2352 35.9295 41.6831 35.6921 42.2471C35.4547 42.811 35.4487 43.4457 35.6754 44.0141C35.9021 44.5824 36.3432 45.0388 36.9035 45.2846C37.4638 45.5305 38.0983 45.546 38.67 45.328L40.043 44.78L38.318 40.456Z" fill="#BF8256" stroke="#45413C" stroke-linecap="round" stroke-linejoin="round"/>
<path d="M19.729 45.464L18.108 41.4C16.807 38.1478 16.8455 34.513 18.215 31.289C19.6098 33.1852 20.7348 35.2657 21.558 37.471L23.968 43.521C24.2114 44.1296 24.6863 44.6167 25.2886 44.8752C25.8909 45.1338 26.5712 45.1427 27.18 44.9L28.902 44.213C29.4761 43.9843 30.1175 43.9929 30.6852 44.2371C31.2528 44.4813 31.7003 44.9409 31.929 45.515C32.1578 46.0891 32.1491 46.7305 31.9049 47.2982C31.6607 47.8658 31.2011 48.3133 30.627 48.542L28.681 49.317C27.8402 49.6519 26.9417 49.8178 26.0368 49.8054C25.1319 49.793 24.2382 49.6025 23.4069 49.2447C22.5757 48.8869 21.823 48.3689 21.1919 47.7202C20.5609 47.0715 20.0638 46.3048 19.729 45.464Z" fill="#DAEDF7"/>
<path d="M18.108 41.4C16.807 38.1478 16.8455 34.513 18.215 31.289C18.8693 32.1483 19.4529 33.0593 19.96 34.013C19.1517 35.6322 18.6826 37.3994 18.5815 39.2063C18.4804 41.0132 18.7494 42.8217 19.372 44.521L19.354 44.528L18.108 41.4Z" fill="white"/>
<path d="M19.729 45.464L18.108 41.4C16.807 38.1478 16.8455 34.513 18.215 31.289C19.6098 33.1852 20.7348 35.2657 21.558 37.471L23.968 43.521C24.2114 44.1296 24.6863 44.6167 25.2886 44.8752C25.8909 45.1338 26.5712 45.1427 27.18 44.9L28.902 44.213C29.4761 43.9843 30.1175 43.9929 30.6852 44.2371C31.2528 44.4813 31.7003 44.9409 31.929 45.515C32.1578 46.0891 32.1491 46.7305 31.9049 47.2982C31.6607 47.8658 31.2011 48.3133 30.627 48.542L28.681 49.317C27.8402 49.6519 26.9417 49.8178 26.0368 49.8054C25.1319 49.793 24.2382 49.6025 23.4069 49.2447C22.5757 48.8869 21.823 48.3689 21.1919 47.7202C20.5609 47.0715 20.0638 46.3048 19.729 45.464Z" stroke="#45413C" stroke-linecap="round" stroke-linejoin="round"/>
<path d="M27.529 44.759L28.903 44.212C29.4769 43.9834 30.1182 43.9921 30.6857 44.2363C31.2531 44.4805 31.7004 44.9401 31.929 45.514C32.1576 46.0879 32.1489 46.7292 31.9047 47.2966C31.6605 47.8641 31.2009 48.3114 30.627 48.54L29.254 49.087L27.529 44.759Z" fill="#BF8256" stroke="#45413C" stroke-linecap="round" stroke-linejoin="round"/>
<path d="M61.2119 48.8561C61.4253 48.9703 61.6227 49.112 61.7987 49.2772C62.1006 49.5864 62.1299 49.7474 62.0846 49.9928C62.0102 50.2403 61.903 50.4761 61.7657 50.6943L57.7384 57.6698C57.6576 57.8156 57.5681 57.9562 57.4702 58.0911C57.0616 58.6125 56.534 58.4437 55.9368 58.0989C55.3395 57.754 54.938 57.3848 55.1903 56.7748C55.2632 56.6142 55.3451 56.4579 55.4356 56.3066L58.0156 51.838L57.7575 51.8898C57.3763 51.9601 56.9775 51.9109 56.6171 51.7491C56.4697 51.6424 56.3455 51.5075 56.2527 51.3531C56.1599 51.1987 56.1005 51.0283 56.0783 50.8528C55.966 50.5158 55.9801 50.1552 56.118 49.837C56.2241 49.701 56.3588 49.5891 56.5135 49.5085C56.6683 49.4278 56.8398 49.3801 57.0171 49.3684L60.2345 48.7568C60.5564 48.6662 60.9064 48.7018 61.2119 48.8561Z" fill="#FFF48C" stroke="#45413C" stroke-linecap="round" stroke-linejoin="round"/>
<path d="M66.6502 51.9942C69.1538 53.4397 68.8445 56.1768 67.4463 58.5985C66.025 61.0604 63.8486 62.6667 61.3406 61.2188C58.8162 59.7613 59.1149 57.0637 60.5401 54.5952C61.9442 52.1633 64.1825 50.5695 66.6502 51.9942ZM62.5692 59.0428C63.4193 59.5336 64.3031 58.9843 65.2206 57.395L65.2632 57.3213C66.2041 55.6916 66.2534 54.6336 65.4111 54.1473C64.5688 53.661 63.6763 54.2348 62.7335 55.8687C61.7878 57.502 61.7331 58.5601 62.5692 59.0428Z" fill="#FFF48C" stroke="#45413C"/>
</svg>
