<svg width="130" height="130" fill="none" xmlns="http://www.w3.org/2000/svg">
  <path d="M1 65c0 16.9739 6.7428 33.2525 18.7452 45.255C31.7475 122.257 48.0261 129 65 129c16.9739 0 33.2525-6.743 45.255-18.745C122.257 98.2525 129 81.9739 129 65c0-16.9739-6.743-33.2525-18.745-45.2548C98.2525 7.7428 81.9739 1 65 1 48.0261 1 31.7475 7.7428 19.7452 19.7452 7.7428 31.7475 1 48.0261 1 65z" fill="#C7F0FF" stroke="#C7F0FF" stroke-width="1.6" stroke-miterlimit="10"/>
  <path d="M93.7968 127.436a5.3467 5.3467 0 01-2.2859 1.348 5.333 5.333 0 01-2.6525.081 5.3392 5.3392 0 01-2.3643-1.205 5.3398 5.3398 0 01-1.4924-2.194 49.9546 49.9546 0 01.8635-33.5019c3.9498-11.6096 3.969-28.218-7.8197-40.0067-11.7887-11.7887-28.3971-11.7695-40.0131-7.8196a49.9532 49.9532 0 01-33.5014.8635 5.3383 5.3383 0 01-3.2158-6.8299 5.338 5.338 0 016.8298-3.2158 39.623 39.623 0 0026.4526-.9243c14.6511-4.9828 35.7434-4.8741 50.9958 10.3783 15.2526 15.2524 15.3516 36.3447 10.3814 50.999a39.6168 39.6168 0 00-.9275 26.4494 5.337 5.337 0 01.1843 2.97 5.3398 5.3398 0 01-1.4348 2.608v0z" fill="#00B8F0" stroke="#45413C" stroke-width="1.6" stroke-linecap="round" stroke-linejoin="round"/>
  <path d="M26.5154 46.9523a64.317 64.317 0 0011.5136-2.8176 45.1723 45.1723 0 0110.0617-2.162c.3198-1.3657.7068-2.6866 1.1353-3.9467a67.3065 67.3065 0 001.967-6.9241 55.8364 55.8364 0 00-16.5989 2.92 57.8448 57.8448 0 01-5.776 1.6439 55.8586 55.8586 0 00-2.3059 11.2737" fill="#009FD9"/>
  <path d="M11.4805 35.9376L21.6732 25.748M108.432 105.985l11.545-11.5454" stroke="#45413C" stroke-width="1.6" stroke-linecap="round" stroke-linejoin="round"/>
  <path d="M19.4888 21.5582a5.1075 5.1075 0 1010.215.0002 5.1075 5.1075 0 00-10.215-.0002v0z" fill="#4ACFFF" stroke="#45413C" stroke-width="1.6" stroke-linecap="round" stroke-linejoin="round"/>
  <path d="M99.7129 109.596c0 1.355.5381 2.654 1.4961 3.612a5.1111 5.1111 0 003.611 1.496c1.355 0 2.654-.539 3.612-1.496a5.1075 5.1075 0 001.496-3.612c0-1.355-.538-2.654-1.496-3.612a5.1117 5.1117 0 00-3.612-1.496c-1.354 0-2.653.539-3.611 1.496a5.1076 5.1076 0 00-1.4961 3.612v0z" fill="#00F5BC" stroke="#45413C" stroke-width="1.6" stroke-linecap="round" stroke-linejoin="round"/>
  <path d="M93.7968 127.436a5.3467 5.3467 0 01-2.2859 1.348 5.333 5.333 0 01-2.6525.081 5.3392 5.3392 0 01-2.3643-1.205 5.3398 5.3398 0 01-1.4924-2.194 49.9546 49.9546 0 01.8635-33.5019c3.9498-11.6096 3.969-28.218-7.8197-40.0067-11.7887-11.7887-28.3971-11.7695-40.0131-7.8196a49.9532 49.9532 0 01-33.5014.8635 5.3383 5.3383 0 01-3.2158-6.8299 5.338 5.338 0 016.8298-3.2158 39.623 39.623 0 0026.4526-.9243c14.6511-4.9828 35.7434-4.8741 50.9958 10.3783 15.2526 15.2524 15.3516 36.3447 10.3814 50.999a39.6168 39.6168 0 00-.9275 26.4494 5.337 5.337 0 01.1843 2.97 5.3398 5.3398 0 01-1.4348 2.608v0z" stroke="#45413C" stroke-width="1.6" stroke-linecap="round" stroke-linejoin="round"/>
  <path d="M127.439 93.7968a5.3444 5.3444 0 01-5.581 1.2505 39.6577 39.6577 0 00-26.4523.9243c-14.6543 4.9824-35.7466 4.8744-51.0054-10.3783C29.1415 70.341 29.0488 49.2486 34.022 34.5943a39.6127 39.6127 0 00.9243-26.4493 5.3377 5.3377 0 01.1934-4.081 5.3394 5.3394 0 013.0225-2.7489 5.3376 5.3376 0 015.7559 1.4313A5.3374 5.3374 0 0144.992 4.531a49.9532 49.9532 0 01-.8635 33.5014c-3.9467 11.6128-3.969 28.2212 7.8196 40.0131 11.7887 11.7919 28.4003 11.7695 40.0131 7.8197a49.9644 49.9644 0 0133.4978-.8667 5.3349 5.3349 0 012.197 1.4917 5.3329 5.3329 0 011.207 2.3653 5.341 5.341 0 01-1.43 4.9413h.006z" fill="#00F5BC" stroke="#45413C" stroke-width="1.6" stroke-linecap="round" stroke-linejoin="round"/>
  <path d="M105.166 82.83a56.1943 56.1943 0 01-2.216 11.1363 55.3186 55.3186 0 00-7.5543 2.0116 55.7932 55.7932 0 01-17.8493 2.9328 68.3523 68.3523 0 011.9701-6.9369 44.1263 44.1263 0 001.1098-3.8379 45.1233 45.1233 0 0011.3313-2.2676 63.3047 63.3047 0 0112.8214-2.9903" fill="#00DBA8"/>
  <path d="M51.9541 78.0455C63.746 89.8342 80.3544 89.815 91.9672 85.8652a49.9643 49.9643 0 0133.4978-.8667 5.3368 5.3368 0 013.025 2.7471c.299.634.47 1.3208.504 2.021a5.3296 5.3296 0 01-.308 2.0601 5.3313 5.3313 0 01-1.073 1.7855 5.3348 5.3348 0 01-3.695 1.7429 5.338 5.338 0 01-2.06-.3078 39.659 39.659 0 00-26.4527.9243c-14.6543 4.9824-35.7466 4.8744-51.0054-10.3782" stroke="#45413C" stroke-width="1.6" stroke-linecap="round" stroke-linejoin="round"/>
  <path d="M98.4725 70.8719a55.2552 55.2552 0 01-2.4979 24.5336 39.6171 39.6171 0 00-.9274 26.4495 5.3388 5.3388 0 01-.1934 4.081 5.3402 5.3402 0 01-3.0225 2.749 5.3395 5.3395 0 01-6.8298-3.216 49.9537 49.9537 0 01.8635-33.5016 44.0063 44.0063 0 001.8166-21.1083" fill="#00B8F0"/>
  <path d="M98.4725 70.8719a55.2552 55.2552 0 01-2.4979 24.5336 39.6171 39.6171 0 00-.9274 26.4495 5.3388 5.3388 0 01-.1934 4.081 5.3402 5.3402 0 01-3.0225 2.749 5.3395 5.3395 0 01-6.8298-3.216 49.9537 49.9537 0 01.8635-33.5016 44.0063 44.0063 0 001.8166-21.1083" stroke="#45413C" stroke-width="1.6" stroke-linecap="round" stroke-linejoin="round"/>
</svg>
