<svg width="96" height="96" fill="none" xmlns="http://www.w3.org/2000/svg">
  <path d="M44 2.3093a8 8 0 018 0l33.5692 19.3812a8 8 0 014 6.9282v38.7624a7.9998 7.9998 0 01-4 6.9282L52 93.6905a7.9998 7.9998 0 01-8 0L10.4308 74.3093a7.9998 7.9998 0 01-4-6.9282V28.6187a8 8 0 014-6.9282L44 2.3093z" fill="#fff"/>
  <path fill-rule="evenodd" clip-rule="evenodd" d="M84.1907 22.9024L51.5701 4.069a7.233 7.233 0 00-7.2331 0L11.7165 22.9024a7.2332 7.2332 0 00-3.6166 6.2641v37.667a7.233 7.233 0 003.6166 6.264L44.337 91.931a7.233 7.233 0 007.2331 0l32.6206-18.8335a7.233 7.233 0 003.6165-6.264v-37.667a7.2333 7.2333 0 00-3.6165-6.2641zM53.1201 1.3844a10.333 10.333 0 00-10.333 0L10.1665 20.2178A10.3332 10.3332 0 005 29.1665v37.667a10.333 10.333 0 005.1665 8.9486l32.6206 18.8335a10.333 10.333 0 0010.333 0l32.6205-18.8335a10.3328 10.3328 0 005.1665-8.9486v-37.667a10.3331 10.3331 0 00-5.1665-8.9487L53.1201 1.3844z" fill="#3F6029"/>
  <rect x="24" y="24" width="48" height="48" rx="8" fill="#C7F0FF"/>
  <mask id="a" maskUnits="userSpaceOnUse" x="24" y="24" width="48" height="48">
    <rect x="24" y="24" width="48" height="48" rx="8" fill="#C7F0FF"/>
  </mask>
  <g mask="url(#a)">
    <path d="M46.3822 103.372V50.4253" stroke="#45413C" stroke-linecap="round" stroke-linejoin="round"/>
    <path d="M46.3822 34.3317v16.0937l17.4285-7.4559a3.5815 3.5815 0 000-6.5996l-12.4275-5.3266a3.5818 3.5818 0 00-4.5719 1.5884 3.5803 3.5803 0 00-.4291 1.7z" fill="#FF6242" stroke="#45413C" stroke-linecap="round" stroke-linejoin="round"/>
    <path d="M-11.25 73.4271s22.7249-13.6336 63.9809-13.6336c25.8771 0 29.0191 13.6349 29.0191 13.6349l-93-.0013z" fill="#6DD627" stroke="#45413C" stroke-width=".48" stroke-linecap="round" stroke-linejoin="round"/>
    <path d="M43.3672 53.4043a4.6548 4.6548 0 01-2.8736 4.3001 4.6537 4.6537 0 01-5.0724-1.0096 4.6539 4.6539 0 01.7071-7.1612 4.6546 4.6546 0 012.5862-.7836 4.653 4.653 0 014.6527 4.6543v0z" fill="#E8F4FA" stroke="#45413C" stroke-linecap="round" stroke-linejoin="round"/>
    <path opacity=".15" d="M28.2843 66.4574c0 .8358 1.1066 1.6374 3.0763 2.2284 1.9697.591 4.6413.923 7.4269.923 2.7856 0 5.4572-.332 7.4269-.923 1.9697-.591 3.0763-1.3926 3.0763-2.2284 0-.8359-1.1066-1.6374-3.0763-2.2285-1.9697-.591-4.6413-.923-7.4269-.923-2.7856 0-5.4572.332-7.4269.923-1.9697.5911-3.0763 1.3926-3.0763 2.2285z" fill="#45413C"/>
    <path d="M34.9631 58.057h7.4943a.5426.5426 0 01.5417.5297.541.541 0 01-.0646.2689l-2.2617 2.7024-1.4912 4.265a.5416.5416 0 01-.7536.2073.5416.5416 0 01-.1991-.2073l-1.4912-4.265-2.2617-2.7024a.542.542 0 01.4871-.7986v0z" fill="#FFE500" stroke="#45413C" stroke-linecap="round" stroke-linejoin="round"/>
  </g>
</svg>
