<svg xmlns="http://www.w3.org/2000/svg" width="96" height="96" fill="none"><path fill="#fff" d="M44 2.31a8 8 0 0 1 8 0l33.57 19.38a8 8 0 0 1 4 6.929V67.38a8 8 0 0 1-4 6.928L52 93.691a8 8 0 0 1-8 0L10.43 74.308a8 8 0 0 1-4-6.928V28.62a8 8 0 0 1 4-6.928L44 2.308Z"/><path fill="#8FC328" fill-rule="evenodd" d="M84.19 22.902 51.57 4.07a7.233 7.233 0 0 0-7.233 0l-32.62 18.833A7.233 7.233 0 0 0 8.1 29.166v37.668a7.233 7.233 0 0 0 3.617 6.263l32.62 18.834a7.233 7.233 0 0 0 7.233 0l32.62-18.834a7.233 7.233 0 0 0 3.617-6.263V29.166a7.233 7.233 0 0 0-3.616-6.264ZM53.12 1.384a10.333 10.333 0 0 0-10.333 0l-32.62 18.834A10.333 10.333 0 0 0 5 29.166v37.668c0 3.691 1.97 7.102 5.166 8.948l32.621 18.834a10.333 10.333 0 0 0 10.333 0l32.62-18.834a10.333 10.333 0 0 0 5.167-8.948V29.166c0-3.691-1.97-7.102-5.166-8.948L53.12 1.384Z" clip-rule="evenodd"/><g fill-rule="evenodd" clip-path="url(#a)" clip-rule="evenodd"><path fill="#FEFEFC" d="M42.276 26.243c-7.659 1.961-8.733 2.281-9.023 2.688-.181.254-2.337 3.865-4.791 8.025L24 44.518l2.277 9.037 2.277 9.037 7.855 4.7c4.32 2.584 7.984 4.703 8.142 4.708.348.012 17.724-4.376 17.964-4.537.093-.062 2.266-3.657 4.827-7.989L72 51.598l-2.248-9.015c-1.237-4.958-2.305-9.072-2.374-9.141-.414-.42-15.792-9.455-16.07-9.442-.186.009-4.25 1.018-9.032 2.243Z"/><path fill="#D6F736" d="M42.276 26.243c-7.659 1.961-8.733 2.281-9.023 2.688-.181.254-2.337 3.865-4.791 8.025L24 44.518l2.277 9.037 2.277 9.037 7.855 4.7c4.32 2.584 7.984 4.703 8.142 4.708.348.012 17.724-4.376 17.964-4.537.093-.062 2.266-3.657 4.827-7.989L72 51.598l-2.248-9.015c-1.237-4.958-2.305-9.072-2.374-9.141-.414-.42-15.792-9.455-16.07-9.442-.186.009-4.25 1.018-9.032 2.243Zm7.67 4.461c5.524 1.05 8.78 4.188 8.812 8.489.03 4.05-2.607 7.392-6.208 7.873-.5.066-.91.191-.91.277 0 .086.31.302.688.48.949.447 2.677 2.049 3.246 3.01 1.48 2.502 1.51 5.732.084 8.79-1.223 2.623-3.969 4.604-6.956 5.02-1.64.227-4.758-.01-6.737-.515-2.795-.712-5.82-2.721-6.936-4.608-2.074-3.505-1.33-8.953 1.585-11.615 1.113-1.016 3.01-1.9 4.382-2.04.585-.06 1.063-.16 1.06-.224-.001-.064-.434-.37-.962-.68-1.188-.7-1.7-1.224-2.536-2.605-1.727-2.849-1.25-6.746 1.136-9.272 1.025-1.085 2.15-1.803 3.598-2.292 1.234-.417 4.684-.463 6.655-.088Zm-3.913 3.345c-1.754.435-2.895 1.36-3.625 2.935-.578 1.25-.627 3.834-.09 4.813 1.133 2.068 3.319 3.15 6.352 3.145 1.393-.003 1.894-.085 2.606-.43 2.049-.99 2.927-2.475 2.938-4.965.009-1.922-.354-2.762-1.698-3.934-1.426-1.243-4.646-2.02-6.483-1.564Zm17.86 10.67c-.003.13-.12.82-.26 1.533-.25 1.284-.249 1.295.151 1.166 1.115-.358 1.611-.325 1.911.13.251.378.264.66.084 1.859-.158 1.059-.156 1.431.009 1.486.525.173.157.387-.498.289-.76-.114-1.322-.438-.76-.438.389 0 .568-.62.596-2.066l.02-1.066-.732.023c-.402.013-.811.102-.91.199-.334.332-.608 2.34-.358 2.639.262.313.044.349-.939.154-.573-.114-.58-.127-.221-.427.277-.232.47-.902.768-2.658.375-2.212.379-2.369.072-2.705-.313-.342-.298-.356.375-.356.436 0 .697.09.693.237Zm-3.09 1.043c-.058.654-.02.717.464.772.29.033.526.147.526.252 0 .114-.23.142-.567.069-.637-.139-.637-.138-.938 1.865-.173 1.159-.018 1.448.643 1.196.159-.06.288-.035.288.054 0 .238-.926.43-1.382.287-.415-.13-.416-.178-.04-2.768.11-.765.08-.896-.231-.975-.299-.076-.287-.095.072-.113.344-.018.431-.135.431-.578 0-.369.113-.584.336-.642.184-.047.363-.096.398-.109.034-.012.034.299 0 .69Zm-17.74 2.608c-2.235.62-3.525 1.778-4.252 3.816-1.49 4.172.49 7.7 4.897 8.727 3.487.813 6.386-.317 7.787-3.035.491-.954.61-1.438.678-2.769.046-.887-.01-1.956-.125-2.375-.328-1.204-1.274-2.51-2.274-3.138-1.892-1.19-4.877-1.734-6.711-1.226Z"/><path fill="#C3E177" d="M42.276 26.243c-7.659 1.961-8.733 2.281-9.023 2.688-.181.254-2.337 3.865-4.791 8.025L24 44.518l2.277 9.037 2.277 9.037 7.855 4.7c4.32 2.584 7.984 4.703 8.142 4.708.348.012 17.724-4.376 17.964-4.537.093-.062 2.266-3.657 4.827-7.989L72 51.598l-2.248-9.015c-1.237-4.958-2.305-9.072-2.374-9.141-.414-.42-15.792-9.455-16.07-9.442-.186.009-4.25 1.018-9.032 2.243Zm7.67 4.461c5.524 1.05 8.78 4.188 8.812 8.489.02 2.7-1.121 5.143-3.146 6.741-.48.38-1.744.963-2.38 1.099-.819.175-.692.455.922 2.035 1.295 1.267 1.97 2.292 2.18 3.314.506 2.448.525 2.86.204 4.453-.44 2.183-1.216 3.753-2.533 5.121a9.059 9.059 0 0 1-5.303 2.686c-1.64.228-4.758-.01-6.737-.514-2.795-.712-5.82-2.721-6.936-4.608-2.093-3.538-1.316-9.035 1.648-11.66 1.47-1.301 3.387-2.128 4.89-2.109.524.007.537-.01.192-.245a9.082 9.082 0 0 1-.6-.45c-.127-.107-.3-.2-.383-.205-.318-.02-1.599-1.458-2.223-2.495-1.72-2.86-1.242-6.748 1.14-9.272 1.026-1.085 2.151-1.803 3.599-2.292 1.234-.417 4.684-.463 6.655-.088Zm-3.913 3.345c-2.618.65-4.055 2.533-4.049 5.308.002.783.056 1.594.121 1.803.065.209.125.447.133.529.02.202 2.313 2.529 2.313 2.347 0-.079.144-.064.32.034.228.126.57.043 1.197-.29 1.227-.653 3.23-.577 4.363.165l.768.504.843-.473c.464-.26.87-.543.901-.63.032-.087.226-.35.431-.585.205-.234.373-.57.373-.745 0-.175.06-.378.133-.45.245-.243.324-.775.326-2.21.003-1.719-.405-2.622-1.69-3.743-1.426-1.243-4.646-2.02-6.483-1.564Zm17.86 10.67c-.003.13-.12.82-.26 1.533-.25 1.284-.249 1.295.151 1.166 1.115-.358 1.611-.325 1.911.13.251.378.264.66.084 1.859-.158 1.059-.156 1.431.009 1.486.525.173.157.387-.498.289-.76-.114-1.322-.438-.76-.438.389 0 .568-.62.596-2.066l.02-1.066-.732.023c-.402.013-.811.102-.91.199-.334.332-.608 2.34-.358 2.639.262.313.044.349-.939.154-.573-.114-.58-.127-.221-.427.277-.232.47-.902.768-2.658.375-2.212.379-2.369.072-2.705-.313-.342-.298-.356.375-.356.436 0 .697.09.693.237Zm-3.09 1.043c-.058.654-.02.717.464.772.29.033.526.147.526.252 0 .114-.23.142-.567.069-.637-.139-.637-.138-.938 1.865-.173 1.159-.018 1.448.643 1.196.159-.06.288-.035.288.054 0 .238-.926.43-1.382.287-.415-.13-.416-.178-.04-2.768.11-.765.08-.896-.231-.975-.299-.076-.287-.095.072-.113.344-.018.431-.135.431-.578 0-.369.113-.584.336-.642.184-.047.363-.096.398-.109.034-.012.034.299 0 .69ZM41.965 48.8c-.834.341-.998.454-1.778 1.227-.833.825-.92.962-1.379 2.151-.547 1.421-.6 3.384-.127 4.768.91 2.664 4.178 4.432 7.722 4.178 2.418-.174 4.046-1.212 5.089-3.245.51-.996.6-1.394.65-2.877.048-1.44-.01-1.867-.354-2.609-.412-.887-.413-.887-.81-.518-1.036.965-3.151 1.266-4.668.665-1.01-.401-2.267-1.79-2.547-2.819-.117-.428-.244-.886-.281-1.016-.09-.316-.586-.285-1.517.095Z"/><path fill="#B6E312" d="M42.276 26.243c-7.659 1.961-8.733 2.281-9.023 2.688-.181.254-2.337 3.865-4.791 8.025L24 44.518l2.277 9.037 2.277 9.037 7.855 4.7c4.32 2.584 7.984 4.703 8.142 4.708.348.012 17.724-4.376 17.964-4.537.093-.062 2.266-3.657 4.827-7.989L72 51.598l-2.248-9.015c-1.237-4.958-2.305-9.072-2.374-9.141-.414-.42-15.792-9.455-16.07-9.442-.186.009-4.25 1.018-9.032 2.243Zm7.228 4.294c5.395.866 8.972 3.902 9.352 7.938.37 3.926-2.19 7.822-5.625 8.558-.818.175-.688.46.911 2.003 1.393 1.344 1.944 2.252 2.384 3.925.389 1.478.36 2.941-.093 4.694-.497 1.928-1.202 3.194-2.504 4.502-1.898 1.906-3.867 2.627-7.175 2.627-2.906 0-5.265-.505-7.505-1.603-3.797-1.863-5.538-4.547-5.483-8.451.026-1.791.3-2.979 1.052-4.538 1.07-2.22 3.322-3.895 5.919-4.401l1.13-.22-.813-.514c-2.018-1.277-3.387-3.485-3.549-5.727-.239-3.31 1.18-6.133 3.896-7.75 2.138-1.272 4.658-1.597 8.103-1.043Zm-4.282 3.834c-1.821.62-2.962 2.268-3.273 4.729-.23 1.806.922 3.959 2.563 4.792.683.348.693.347 1.56-.115 1.222-.65 3.229-.573 4.357.167l.767.503.74-.412c1.591-.884 2.632-3.453 2.209-5.454-.433-2.049-1.518-3.266-3.565-3.998-1.555-.556-4.06-.655-5.358-.212ZM64.02 44.813c-.081.275-.502 2.48-.502 2.63 0 .025.26-.083.577-.24.407-.2.727-.235 1.088-.116.814.269.924.614.696 2.171-.175 1.192-.162 1.425.092 1.627.453.359.147.488-.816.345-.865-.129-1.114-.353-.606-.546.154-.059.36-.637.49-1.379.279-1.586.1-1.877-.947-1.533-.618.203-.684.3-.845 1.24-.123.72-.109 1.125.048 1.374.334.528.298.55-.687.425-1.065-.136-1.484-.408-.87-.567.462-.12.62-.658 1.044-3.566.195-1.333.197-1.71.013-1.771-.516-.17-.19-.426.544-.426.652 0 .763.054.681.332Zm-3.1.893c-.112.593-.076.668.375.78.67.166.634.462-.056.462-.61 0-.668.12-.896 1.85l-.132.997h.623c.532 0 .588.042.385.285-.336.4-1.474.369-1.698-.048-.115-.213-.088-.84.075-1.755.217-1.218.214-1.454-.02-1.634-.367-.284-.344-.391.11-.509.216-.056.383-.259.383-.465 0-.46.159-.619.616-.619.306 0 .341.097.235.656Zm-19.203 3.251c-2.96 1.462-4.188 5.594-2.591 8.724.663 1.3 1.626 2.119 3.264 2.774.937.375 1.447.443 3.31.443 2.58 0 3.488-.307 4.764-1.61 1.538-1.57 2.162-4.63 1.368-6.708l-.423-1.107-.414.386c-1.053.98-3.157 1.285-4.685.68-1.01-.401-2.267-1.79-2.547-2.819-.117-.428-.244-.886-.281-1.016-.105-.366-.677-.284-1.765.253Z"/><path fill="#8FC328" d="M42.276 26.243c-7.659 1.961-8.733 2.281-9.023 2.688-.181.254-2.337 3.865-4.791 8.025L24 44.518l2.277 9.037 2.277 9.037 7.855 4.7c4.32 2.584 7.984 4.703 8.142 4.708.348.012 17.724-4.376 17.964-4.537.093-.062 2.266-3.657 4.827-7.989L72 51.598l-2.248-9.015c-1.237-4.958-2.305-9.072-2.374-9.141-.414-.42-15.792-9.455-16.07-9.442-.186.009-4.25 1.018-9.032 2.243Zm8.682 4.567c3.169.81 6.083 2.787 7.15 4.85.215.415.625.969.91 1.23 1.318 1.206 2.819 3.737 3.622 6.106.407 1.201.538 1.398.962 1.45.27.033.49.076.49.095 0 .02-.12.66-.267 1.424-.236 1.224-.234 1.376.018 1.28.816-.31 1.242-.318 1.688-.028.529.343.604 1.012.289 2.578-.14.7-.116.896.138 1.09.48.363.168.48-.895.335-.992-.135-1.253-.359-.611-.525.275-.071.412-.394.585-1.38.27-1.538.1-1.848-.874-1.582-.574.156-.606.219-.733 1.392-.073.676-.072 1.326.002 1.445.074.12.06.271-.033.338-.093.066-.322.718-.508 1.45-1.142 4.463-4.503 8.475-8.685 10.364-.727.329-1.82.837-2.428 1.13-1.686.81-2.946.999-5.886.88-5.553-.224-9.658-2.363-11.316-5.899-.557-1.188-.98-3.214-.93-4.454.016-.381-.167-1.462-.406-2.401-.326-1.286-.433-2.249-.432-3.891.003-4.005 1.218-7.427 3.67-10.343.528-.627 1.307-1.834 1.733-2.682 1.17-2.336 3.437-4.093 5.957-4.62 1.333-.279 5.05-.078 6.79.368Z"/></g><defs><clipPath id="a"><path fill="#fff" d="M24 24h48v48H24z"/></clipPath></defs></svg>