<?xml version="1.0" encoding="UTF-8" standalone="no"?>
<svg
   width="96"
   height="96"
   viewBox="0 0 96 96"
   fill="none"
   version="1.1"
   id="svg71"
   sodipodi:docname="abap.svg"
   inkscape:version="1.1.1 (3bf5ae0d25, 2021-09-20)"
   xmlns:inkscape="http://www.inkscape.org/namespaces/inkscape"
   xmlns:sodipodi="http://sodipodi.sourceforge.net/DTD/sodipodi-0.dtd"
   xmlns="http://www.w3.org/2000/svg"
   xmlns:svg="http://www.w3.org/2000/svg">
  <sodipodi:namedview
     id="namedview73"
     pagecolor="#ffffff"
     bordercolor="#666666"
     borderopacity="1.0"
     inkscape:pageshadow="2"
     inkscape:pageopacity="0.0"
     inkscape:pagecheckerboard="0"
     showgrid="false"
     inkscape:zoom="8.4270833"
     inkscape:cx="42.422744"
     inkscape:cy="48"
     inkscape:window-width="1920"
     inkscape:window-height="1017"
     inkscape:window-x="-8"
     inkscape:window-y="-8"
     inkscape:window-maximized="1"
     inkscape:current-layer="svg71" />
  <path
     d="M44 2.30935C46.4752 0.880283 49.5248 0.880284 52 2.30935L85.5692 21.6905C88.0444 23.1196 89.5692 25.7606 89.5692 28.6187V67.3811C89.5692 70.2393 88.0444 72.8803 85.5692 74.3093L52 93.6905C49.5248 95.1196 46.4752 95.1196 44 93.6905L10.4308 74.3093C7.95558 72.8803 6.43079 70.2393 6.43079 67.3811V28.6187C6.43079 25.7606 7.95558 23.1196 10.4308 21.6905L44 2.30935Z"
     fill="white"
     id="path42" />
  <path
     fill-rule="evenodd"
     clip-rule="evenodd"
     d="M84.1907 22.9024L51.5701 4.06896C49.3322 2.77689 46.575 2.77689 44.337 4.06896L11.7165 22.9024C9.47853 24.1945 8.09991 26.5824 8.09991 29.1665V66.8335C8.09991 69.4176 9.47853 71.8055 11.7165 73.0975L44.337 91.931C46.575 93.2231 49.3322 93.2231 51.5701 91.931L84.1907 73.0975C86.4286 71.8055 87.8072 69.4176 87.8072 66.8335V29.1665C87.8072 26.5824 86.4286 24.1945 84.1907 22.9024ZM53.1201 1.38436C49.923 -0.461454 45.9841 -0.461455 42.7871 1.38436L10.1665 20.2178C6.96946 22.0637 5 25.4749 5 29.1665V66.8335C5 70.5251 6.96946 73.9363 10.1665 75.7821L42.7871 94.6156C45.9841 96.4614 49.923 96.4614 53.1201 94.6156L85.7406 75.7821C88.9377 73.9363 90.9071 70.5251 90.9071 66.8335V29.1665C90.9071 25.4749 88.9377 22.0637 85.7406 20.2178L53.1201 1.38436Z"
     fill="#2CB7F6"
     id="path44"
     style="fill:#2c22f6;fill-opacity:1" />
  <path
     opacity="0.2"
     d="M34.1046 62.5248C32.8422 61.2554 32.5248 60.0071 32.5248 57.789V32.5266L32.2074 32.2092V57.7855C32.211 60.0071 32.211 60.6206 34.1046 62.5248L35.0532 63.4734L34.1046 62.5248Z"
     fill="white"
     id="path56" />
  <path
     opacity="0.2"
     d="M61.8853 33.789C60.32 32.2233 59.0367 32.2092 57.1505 32.2092H32.211L32.5283 32.5266H57.154C58.0918 32.5266 60.4716 32.3679 61.8853 33.789Z"
     fill="white"
     id="path60" />
  <defs
     id="defs69">
    <radialGradient
       id="paint0_radial"
       cx="0"
       cy="0"
       r="1"
       gradientUnits="userSpaceOnUse"
       gradientTransform="translate(48 47.9987) scale(23.9965 24.0018)">
      <stop
         stop-color="white"
         stop-opacity="0.1"
         id="stop64" />
      <stop
         offset="1"
         stop-color="white"
         stop-opacity="0"
         id="stop66" />
    </radialGradient>
  </defs>
  <g
     aria-label="ABAP"
     id="text6588"
     style="font-size:27.5957px;line-height:1.25;fill:#2c22f6;stroke-width:0.689893">
    <path
       d="M 29.8259,57.6712 H 26.982789 L 25.015517,52.079298 H 16.337963 L 14.370692,57.6712 h -2.708367 l 7.303159,-20.063475 h 3.557258 z m -5.632325,-7.882561 -3.516835,-9.849832 -3.530309,9.849832 z"
       id="path10276" />
    <path
       d="m 48.002951,51.499896 q 0,1.495665 -0.565927,2.640995 -0.565928,1.145329 -1.522615,1.886424 -1.131854,0.889315 -2.492775,1.2666 Q 42.074188,57.6712 39.985646,57.6712 H 32.87113 V 37.607725 h 5.942238 q 2.196337,0 3.287768,0.161694 1.091432,0.161693 2.088542,0.673723 1.104906,0.579402 1.603461,1.495665 0.498555,0.902789 0.498555,2.169389 0,1.428293 -0.727621,2.438877 -0.727621,0.997111 -1.940322,1.603461 v 0.107796 q 2.034644,0.417708 3.206922,1.792104 1.172278,1.36092 1.172278,3.449462 z m -4.486996,-9.041364 q 0,-0.727621 -0.24254,-1.226177 -0.242541,-0.498555 -0.781519,-0.808467 -0.6333,-0.363811 -1.536089,-0.444658 -0.902789,-0.09432 -2.236761,-0.09432 h -3.179973 v 5.794019 h 3.449463 q 1.253125,0 1.99422,-0.12127 0.741096,-0.134745 1.374395,-0.538979 0.6333,-0.404233 0.889315,-1.037533 0.269489,-0.646774 0.269489,-1.522614 z m 1.711257,9.14916 q 0,-1.212702 -0.363811,-1.926848 -0.36381,-0.714147 -1.320497,-1.212702 -0.646774,-0.336862 -1.576512,-0.431183 -0.916264,-0.107796 -2.236761,-0.107796 h -4.190558 v 7.464853 h 3.530309 q 1.751681,0 2.870061,-0.175168 1.11838,-0.188643 1.832527,-0.673724 0.75457,-0.525504 1.104906,-1.199227 0.350336,-0.673723 0.350336,-1.738205 z"
       id="path10278" />
    <path
       d="M 67.608295,57.6712 H 64.765183 L 62.797912,52.079298 H 54.120358 L 52.153086,57.6712 h -2.708367 l 7.303159,-20.063475 h 3.557258 z m -5.632326,-7.882561 -3.516834,-9.849832 -3.530309,9.849832 z"
       id="path10280" />
    <path
       d="m 83.777652,43.671233 q 0,1.333972 -0.471606,2.479301 -0.458131,1.131855 -1.293548,1.967272 -1.037534,1.037533 -2.452352,1.563038 -1.414819,0.512029 -3.570733,0.512029 H 73.32147 V 57.6712 H 70.653526 V 37.607725 h 5.443683 q 1.805578,0 3.058703,0.309913 1.253125,0.296438 2.223286,0.943212 1.145329,0.768044 1.765155,1.913374 0.633299,1.145329 0.633299,2.897009 z m -2.775739,0.06737 q 0,-1.037534 -0.36381,-1.805578 -0.363811,-0.768045 -1.104906,-1.253125 -0.646774,-0.417709 -1.482191,-0.592877 -0.821942,-0.188642 -2.088542,-0.188642 H 73.32147 v 8.017305 h 2.250235 q 1.616935,0 2.62752,-0.282964 1.010585,-0.296438 1.643884,-0.929738 0.6333,-0.646774 0.889315,-1.36092 0.269489,-0.714147 0.269489,-1.603461 z"
       id="path10282" />
  </g>
</svg>
