<svg width="96" height="96" viewBox="0 0 96 96" fill="none" xmlns="http://www.w3.org/2000/svg">
<path d="M43.9999 2.30935C46.4751 0.880283 49.5247 0.880284 51.9999 2.30935L85.5691 21.6905C88.0443 23.1196 89.5691 25.7606 89.5691 28.6187V67.3811C89.5691 70.2393 88.0443 72.8803 85.5691 74.3093L51.9999 93.6905C49.5247 95.1196 46.4751 95.1196 43.9999 93.6905L10.4307 74.3093C7.95545 72.8803 6.43066 70.2393 6.43066 67.3811V28.6187C6.43066 25.7606 7.95546 23.1196 10.4307 21.6905L43.9999 2.30935Z" fill="white"/>
<path fill-rule="evenodd" clip-rule="evenodd" d="M84.1907 22.9024L51.5701 4.06896C49.3322 2.77689 46.575 2.77689 44.337 4.06896L11.7165 22.9024C9.47853 24.1945 8.09991 26.5824 8.09991 29.1665V66.8335C8.09991 69.4176 9.47853 71.8055 11.7165 73.0975L44.337 91.931C46.575 93.2231 49.3322 93.2231 51.5701 91.931L84.1907 73.0975C86.4286 71.8055 87.8072 69.4176 87.8072 66.8335V29.1665C87.8072 26.5824 86.4286 24.1945 84.1907 22.9024ZM53.1201 1.38436C49.923 -0.461454 45.9841 -0.461455 42.7871 1.38436L10.1665 20.2178C6.96946 22.0637 5 25.4749 5 29.1665V66.8335C5 70.5251 6.96946 73.9363 10.1665 75.7821L42.7871 94.6156C45.9841 96.4614 49.923 96.4614 53.1201 94.6156L85.7406 75.7821C88.9377 73.9363 90.9071 70.5251 90.9071 66.8335V29.1665C90.9071 25.4749 88.9377 22.0637 85.7406 20.2178L53.1201 1.38436Z" fill="#1C5DBD"/>
<path d="M32.5553 51.7155H27.7933L26.888 54.4314H24L28.9068 41.25H31.4236L36.3576 54.4314H33.4696L32.5553 51.7155ZM28.5266 49.5156H31.822L30.1652 44.5816L28.5266 49.5156Z" fill="#1C5DBD"/>
<path d="M37.5888 54.4314V41.25H42.206C43.8054 41.25 45.0185 41.5578 45.8453 42.1734C46.6722 42.783 47.0856 43.6793 47.0856 44.8622C47.0856 45.508 46.9197 46.0784 46.5877 46.5733C46.2558 47.0621 45.794 47.4213 45.2026 47.6506C45.8785 47.8196 46.4097 48.1606 46.7959 48.6736C47.1882 49.1866 47.3844 49.8143 47.3844 50.5567C47.3844 51.8241 46.98 52.7838 46.1713 53.4356C45.3625 54.0874 44.2097 54.4194 42.7129 54.4314H37.5888ZM40.3048 48.6917V52.2496H42.6315C43.2712 52.2496 43.7691 52.0987 44.1252 51.797C44.4874 51.4892 44.6684 51.0667 44.6684 50.5295C44.6684 49.3224 44.0438 48.7098 42.7944 48.6917H40.3048ZM40.3048 46.7724H42.3146C43.6846 46.7483 44.3697 46.2021 44.3697 45.1338C44.3697 44.5363 44.1946 44.1078 43.8446 43.8483C43.5006 43.5827 42.9544 43.4499 42.206 43.4499H40.3048V46.7724Z" fill="#1C5DBD"/>
<path d="M56.8721 51.7155H52.1101L51.2048 54.4314H48.3169L53.2237 41.25H55.7405L60.6745 54.4314H57.7865L56.8721 51.7155ZM52.8435 49.5156H56.1388L54.4821 44.5816L52.8435 49.5156Z" fill="#1C5DBD"/>
<path d="M64.6217 49.7872V54.4314H61.9057V41.25H67.0479C68.0377 41.25 68.9068 41.4311 69.6552 41.7932C70.4097 42.1553 70.9891 42.6714 71.3934 43.3413C71.7978 44.0052 72 44.7626 72 45.6136C72 46.9052 71.5564 47.9252 70.6692 48.6736C69.788 49.416 68.5658 49.7872 67.0026 49.7872H64.6217ZM64.6217 47.5872H67.0479C67.7661 47.5872 68.3123 47.4182 68.6865 47.0803C69.0668 46.7423 69.2569 46.2594 69.2569 45.6317C69.2569 44.9859 69.0668 44.4639 68.6865 44.0655C68.3063 43.6672 67.7812 43.462 67.1113 43.4499H64.6217V47.5872Z" fill="#1C5DBD"/>
</svg>
