<svg width="96" height="96" fill="none" xmlns="http://www.w3.org/2000/svg">
  <path d="M44 2.3093a8 8 0 018 0l33.5692 19.3812a8 8 0 014 6.9282v38.7624a7.9998 7.9998 0 01-4 6.9282L52 93.6905a7.9998 7.9998 0 01-8 0L10.4308 74.3093a7.9998 7.9998 0 01-4-6.9282V28.6187a8 8 0 014-6.9282L44 2.3093z" fill="#fff"/>
  <path fill-rule="evenodd" clip-rule="evenodd" d="M84.1907 22.9024L51.5701 4.069a7.233 7.233 0 00-7.2331 0L11.7165 22.9024a7.2332 7.2332 0 00-3.6166 6.2641v37.667a7.233 7.233 0 003.6166 6.264L44.337 91.931a7.233 7.233 0 007.2331 0l32.6206-18.8335a7.233 7.233 0 003.6165-6.264v-37.667a7.2333 7.2333 0 00-3.6165-6.2641zM53.1201 1.3844a10.333 10.333 0 00-10.333 0L10.1665 20.2178A10.3332 10.3332 0 005 29.1665v37.667a10.333 10.333 0 005.1665 8.9486l32.6206 18.8335a10.333 10.333 0 0010.333 0l32.6205-18.8335a10.3328 10.3328 0 005.1665-8.9486v-37.667a10.3331 10.3331 0 00-5.1665-8.9487L53.1201 1.3844z" fill="#A36F49"/>
  <g clip-path="url(#clip0)">
    <path d="M53.4902 24v.2588c0 3.04-2.4643 5.5036-5.5035 5.5036-3.04 0-5.5036-2.4644-5.5036-5.5036V24H24v48h48V24H53.4902z" fill="#A36F49"/>
  </g>
  <path d="M44.3044 44.6055h-3.5608l-.5709 1.6853H37.74l3.4521-9.5408h2.6909l3.4521 9.5408h-2.4599l-.5708-1.6853zm-.598-1.794l-1.1824-3.4928-1.1688 3.4928h2.3512zM52.5717 46.2908l-1.9842-3.6016h-.5573v3.6016h-2.324V36.75h3.9006c.752 0 1.3908.1314 1.9163.3941.5346.2628.9332.6252 1.196 1.0873.2627.453.3941.9604.3941 1.5222 0 .6342-.1812 1.2005-.5436 1.6988-.3534.4984-.8789.8517-1.5766 1.0601l2.2018 3.7783h-2.6231zm-2.5415-5.2461h1.4407c.4258 0 .7429-.1042.9513-.3126.2175-.2084.3262-.5028.3262-.8834 0-.3624-.1087-.6478-.3262-.8562-.2084-.2084-.5255-.3126-.9513-.3126h-1.4407v2.3648zM66.6973 36.75v9.5408h-2.324V40.569l-2.1338 5.7218H60.364l-2.1474-5.7354v5.7354h-2.324V36.75h2.7453l2.6774 6.6051 2.6502-6.6051h2.7318zM47.4548 54.3362c-.1305-.6035-.3588-1.052-.685-1.3455-.3262-.3099-.791-.4648-1.3944-.4648-.9297 0-1.5983.4077-2.0061 1.2231-.4077.7992-.6197 2.0713-.636 3.8163.3588-.5708.8725-1.0193 1.5412-1.3454.685-.3262 1.4352-.4893 2.2506-.4893 1.5983 0 2.8786.5056 3.8408 1.5167.9785 1.0112 1.4678 2.4219 1.4678 4.2322 0 1.1906-.2446 2.2343-.7339 3.1313-.4729.897-1.1742 1.5983-2.1038 2.1039-.9134.5056-1.9979.7584-3.2537.7584-2.5116 0-4.2566-.7829-5.2352-2.3485-.9785-1.582-1.4678-3.849-1.4678-6.8009 0-3.0987.5137-5.3983 1.5412-6.8987 1.0438-1.5167 2.7073-2.2751 4.9906-2.2751 1.2231 0 2.2506.2446 3.0824.7339.848.473 1.4841 1.1009 1.9081 1.8837.4404.7828.7013 1.6391.7828 2.5687h-3.8896zm-1.9327 4.697c-.7013 0-1.2884.212-1.7613.636-.4567.4077-.685.9949-.685 1.7614 0 .7828.212 1.3944.636 1.8347.4404.4404 1.0601.6606 1.8593.6606.7176 0 1.2802-.2121 1.6879-.6361.4241-.4403.6361-1.0356.6361-1.7858 0-.7665-.2039-1.37-.6116-1.8103-.4077-.4404-.9948-.6605-1.7614-.6605zM53.0745 64.195v-3.376l7.7304-11.0575h4.6726v10.8129h2.006v3.6206h-2.006v3.1802h-4.1833V64.195h-8.2197zm8.5133-9.8344l-4.1099 6.2138h4.1099v-6.2138z" fill="#fff"/>
  <defs>
    <clipPath id="clip0">
      <path fill="#fff" transform="translate(24 24)" d="M0 0h48v48H0z"/>
    </clipPath>
  </defs>
</svg>
