<svg width="3126" height="3130" viewBox="0 0 3126 3130" fill="none" xmlns="http://www.w3.org/2000/svg">
<path d="M1558.94 34.9603C1561.44 33.4809 1564.56 33.4809 1567.06 34.9603L2856.26 795.46C2858.7 796.898 2860.2 799.519 2860.2 802.35V2323.65C2860.2 2326.48 2858.7 2329.1 2856.26 2330.54L1567.06 3091.04C1564.56 3092.52 1561.44 3092.52 1558.94 3091.04L269.738 2330.54C267.299 2329.1 265.802 2326.48 265.802 2323.65V802.35C265.802 799.519 267.299 796.898 269.738 795.46L1558.94 34.9603Z" fill="white"/>
<path fill-rule="evenodd" clip-rule="evenodd" d="M2744.25 746.567L1680.89 132.639C1607.94 90.5202 1518.06 90.5202 1445.11 132.639L381.754 746.567C308.802 788.686 263.862 866.524 263.862 950.761V2178.62C263.862 2262.85 308.802 2340.69 381.754 2382.81L1445.11 2996.74C1518.06 3038.86 1607.94 3038.86 1680.89 2996.74L2744.25 2382.81C2817.2 2340.69 2862.14 2262.85 2862.14 2178.62V950.761C2862.14 866.524 2817.2 788.686 2744.25 746.567ZM1731.42 45.1271C1627.2 -15.0423 1498.8 -15.0424 1394.58 45.127L331.229 659.055C227.012 719.225 162.812 830.422 162.812 950.761V2178.62C162.812 2298.96 227.012 2410.15 331.229 2470.32L1394.58 3084.25C1498.8 3144.42 1627.2 3144.42 1731.42 3084.25L2794.77 2470.32C2898.99 2410.15 2963.19 2298.96 2963.19 2178.62V950.761C2963.19 830.422 2898.99 719.225 2794.77 659.055L1731.42 45.1271Z" fill="#580059"/>
<path d="M2208.35 663.37C2209.45 664.193 2210.55 665.017 2211.65 665.843C2213.16 666.393 2214.69 666.888 2216.23 667.338C2225.95 670.482 2233.45 676.014 2241.31 682.332C2242.07 682.934 2242.83 683.535 2243.61 684.155C2245.16 685.407 2246.53 686.667 2247.9 688.103C2248.4 688.584 2248.89 689.066 2249.4 689.562C2251.31 691.517 2253.03 693.556 2254.75 695.678C2255.4 696.471 2256.05 697.265 2256.71 698.083C2258.88 700.799 2260.99 703.556 2263.06 706.344C2264.35 707.965 2264.35 707.965 2266.15 709.178C2267.68 710.363 2267.68 710.363 2268.5 712.836C2269.13 713.459 2269.76 714.081 2270.4 714.723C2272.74 717.069 2274.35 719.397 2276.08 722.214C2276.63 723.104 2277.19 723.995 2277.76 724.913C2279.28 727.796 2280.09 730.299 2280.86 733.447C2281.41 733.447 2281.95 733.447 2282.51 733.447C2283.75 738.204 2284.64 742.543 2284.16 747.462C2283.07 749.116 2281.97 750.765 2280.86 752.409C2280.36 754.875 2280.15 757.315 2280.04 759.828C2280.91 760.109 2280.91 760.109 2281.79 760.395C2292.48 765.278 2297.48 777.996 2301.47 788.352C2301.67 788.92 2301.87 789.489 2302.08 790.075C2302.92 792.731 2302.92 792.731 2304.34 794.277C2305.98 796.678 2306.27 798.815 2306.77 801.668C2307.7 806.442 2307.7 806.442 2309.65 810.84C2312.2 815.392 2313.06 820.616 2314.23 825.655C2316.74 839.088 2316.74 839.088 2322.07 851.34C2322.25 853.695 2322.34 855.941 2322.32 858.296C2322.32 858.96 2322.32 859.624 2322.32 860.308C2322.18 867.559 2321.03 874.772 2317.12 881.019C2316.54 881.546 2315.97 882.074 2315.37 882.617C2313.22 884.987 2313.17 886.946 2313 890.088C2313.55 892.572 2313.55 892.572 2315.17 893.489C2317.21 894.352 2317.21 894.352 2319.9 894.365C2323.4 895.149 2324.53 895.989 2326.67 898.767C2329.22 903.237 2330.6 908.233 2331.95 913.172C2332.16 913.888 2332.36 914.605 2332.56 915.343C2334.34 921.999 2335.27 928.649 2336.07 935.483C2336.35 937.777 2336.63 940.069 2336.92 942.362C2337.02 943.195 2337.02 943.195 2337.13 944.046C2337.56 947.524 2338.1 950.961 2338.75 954.405C2342.18 973.016 2341.98 992.646 2342.09 1011.52C2342.1 1012.96 2342.11 1014.41 2342.12 1015.85C2342.14 1017.87 2342.15 1019.89 2342.14 1021.92C2342.15 1022.51 2342.16 1023.1 2342.16 1023.71C2342.13 1027.91 2341.18 1030.66 2339.37 1034.36C2338.91 1035.43 2338.91 1035.43 2338.43 1036.53C2335.86 1042.03 2332.63 1045.61 2328.11 1049.58C2326.5 1051.44 2326.32 1053.31 2326.4 1055.72C2327.49 1058.8 2330.42 1059.88 2333.09 1061.52C2336.9 1064.52 2338.31 1068.76 2340.19 1073.11C2340.74 1073.93 2341.28 1074.74 2341.84 1075.58C2342.92 1081.17 2342.82 1087.02 2342.86 1092.69C2342.88 1093.94 2342.88 1093.94 2342.89 1095.21C2342.91 1097.89 2342.92 1100.57 2342.92 1103.25C2342.93 1104.63 2342.93 1104.63 2342.93 1106.04C2342.95 1119.6 2342.16 1132.68 2340.2 1146.08C2339.12 1153.54 2338.7 1161.02 2338.36 1168.54C2338.08 1173.63 2337.55 1177.39 2335.25 1181.94C2334.94 1183.15 2334.65 1184.37 2334.38 1185.59C2332.21 1192.28 2325.09 1195.69 2319.39 1199.13C2316.74 1200.86 2314.43 1202.8 2313.16 1205.74C2313.11 1206.32 2313.05 1206.9 2313 1207.49C2312.9 1208.45 2312.8 1209.4 2312.69 1210.38C2312.72 1213.31 2312.72 1213.31 2314.65 1215.12C2319.64 1218.03 2324.52 1219.32 2330.22 1220.17C2331.95 1220.68 2331.95 1220.68 2333.6 1223.16C2336.65 1234.59 2333.99 1248.93 2330.9 1260.12C2330.17 1263.33 2329.85 1266.52 2329.53 1269.79C2329.04 1274.7 2328.09 1278.8 2326.19 1283.39C2324.92 1287.1 2324.4 1290.91 2323.78 1294.78C2323.17 1298.51 2322.31 1301.92 2320.98 1305.46C2320.28 1307.69 2319.98 1309.89 2319.65 1312.2C2319.06 1316.09 2318.04 1319.17 2316.29 1322.67C2315.35 1324.85 2314.92 1326.98 2314.44 1329.3C2313.58 1332.7 2312.82 1334.22 2309.81 1336.05C2308.68 1336.62 2307.54 1337.19 2306.41 1337.75C2305.7 1338.35 2304.98 1338.94 2304.25 1339.56C2302.29 1341.05 2302.29 1341.05 2299.66 1341.82C2297.19 1342.47 2297.19 1342.47 2296.26 1344.71C2296.08 1345.41 2295.89 1346.1 2295.7 1346.82C2295.43 1347.64 2295.15 1348.45 2294.87 1349.29C2298.57 1355.11 2303.81 1360.07 2308.82 1364.76C2313.35 1369.11 2314.94 1373.64 2316.3 1379.64C2317.11 1383.19 2318 1386.63 2319.21 1390.06C2320.68 1394.37 2321.26 1398.68 2321.84 1403.19C2322.42 1407.26 2323.36 1411 2324.6 1414.93C2326.89 1422.84 2326.65 1430.88 2326.57 1439.05C2326.55 1441.68 2326.55 1444.31 2326.56 1446.94C2326.56 1455.08 2326.31 1462.66 2324.3 1470.57C2323.3 1474.67 2323.11 1478.84 2322.89 1483.04C2322.55 1487.38 2321.47 1490.16 2318.94 1493.7C2317.88 1495.32 2317.3 1496.84 2316.71 1498.67C2315.59 1501.88 2314 1503.74 2311.35 1505.94C2310.79 1506.19 2310.23 1506.45 2309.65 1506.71C2307.11 1508.11 2306.1 1510.01 2304.76 1512.53C2305.1 1515.47 2306.04 1518.09 2307.13 1520.83C2307.4 1521.52 2307.67 1522.21 2307.95 1522.92C2308.89 1524.91 2310.04 1526.44 2311.35 1528.2C2313.5 1537.57 2312.16 1546.38 2308.7 1555.19C2307.93 1557.41 2307.41 1559.65 2306.87 1561.95C2305.97 1565.73 2304.75 1569.05 2303.08 1572.55C2302.25 1574.46 2301.7 1576.33 2301.16 1578.33C2298.69 1586.95 2293.89 1596.87 2287.46 1603.22C2286.6 1604.85 2285.78 1606.5 2284.99 1608.17C2282.59 1612.62 2279.84 1616.54 2276.74 1620.53C2276.05 1621.44 2276.05 1621.44 2275.35 1622.37C2270.58 1628.6 2265.59 1634.3 2259.85 1639.65C2259.19 1640.27 2259.19 1640.27 2258.52 1640.9C2254.07 1644.97 2249.72 1648.5 2243.94 1650.47C2242.78 1650.87 2242.78 1650.87 2241.6 1651.28C2239.66 1651.86 2239.66 1651.86 2238.02 1651.86C2236.66 1656.59 2236.13 1660.76 2236.21 1665.67C2236.21 1666.28 2236.21 1666.89 2236.21 1667.52C2236.24 1670.38 2236.28 1673.04 2237.19 1675.77C2241.47 1678.36 2246.68 1677.8 2251.37 1676.7C2252.28 1676.47 2252.28 1676.47 2253.21 1676.24C2267.6 1672.75 2282.56 1672.86 2297.04 1675.87C2298.17 1676.1 2298.17 1676.1 2299.33 1676.34C2305.51 1677.81 2311.33 1680.47 2315.08 1685.81C2315.58 1686.7 2316.09 1687.58 2316.61 1688.5C2317.12 1689.38 2317.64 1690.26 2318.17 1691.17C2319.59 1693.91 2319.59 1693.91 2320.85 1696.95C2321.96 1699.45 2322.76 1700.72 2324.74 1702.51C2327.45 1705.05 2329.89 1707.74 2332.3 1710.56C2333.57 1712.05 2333.57 1712.05 2334.93 1713.34C2336.07 1714.52 2336.07 1714.52 2337.26 1716.58C2338.4 1718.69 2338.4 1718.69 2340.19 1719.82C2342.46 1721.59 2343.1 1723.44 2344.31 1726.06C2346.85 1730.89 2349.48 1735.56 2352.56 1740.07C2353.15 1741.1 2353.73 1742.13 2354.31 1743.17C2355.68 1745.82 2355.68 1745.82 2357.5 1747.49C2358.07 1749.01 2358.65 1750.53 2359.17 1752.06C2359.88 1753.85 2360.69 1755.45 2361.6 1757.15C2363.69 1761.28 2364.43 1765.47 2365.26 1769.99C2366.59 1776.64 2368.55 1781.25 2373.98 1785.42C2377.37 1789.3 2379.92 1793.18 2382.22 1797.78C2382.75 1798.14 2383.27 1798.5 2383.82 1798.87C2386.11 1800.75 2386.76 1802.82 2387.88 1805.53C2389.9 1810.17 2392.45 1814.59 2395.07 1818.91C2396.23 1820.88 2397.11 1822.88 2397.98 1824.99C2398.81 1826.88 2399.72 1828.71 2400.66 1830.56C2401.01 1831.26 2401.36 1831.97 2401.73 1832.71C2402.44 1834.12 2403.16 1835.52 2403.92 1836.91C2406.7 1842.39 2407.75 1847.62 2408.38 1853.69C2408.78 1856.83 2409.04 1858.37 2411.21 1860.78C2413.8 1862.24 2416.15 1863.01 2419.04 1863.74C2426.14 1865.64 2432.44 1867.87 2438.59 1871.94C2439.92 1872.86 2439.92 1872.86 2441.55 1873.63C2441.55 1874.18 2441.55 1874.72 2441.55 1875.28C2440.14 1876.31 2440.14 1876.31 2438.31 1877.39C2436.09 1878.64 2436.09 1878.64 2434.13 1880.23C2430.55 1880.48 2426.96 1880.46 2423.37 1880.48C2421.87 1880.52 2421.87 1880.52 2420.33 1880.56C2415.2 1880.59 2411.28 1880.49 2406.84 1877.82C2405.11 1876.82 2403.41 1876.21 2401.51 1875.58C2393.71 1872.96 2387.37 1870.45 2381.4 1864.56C2380.77 1863.98 2380.14 1863.39 2379.49 1862.79C2375.01 1858.49 2371.19 1853.79 2367.39 1848.9C2366.56 1847.89 2366.56 1847.89 2365.71 1846.86C2362.23 1842.63 2359.2 1838.3 2356.38 1833.6C2355.09 1831.54 2355.09 1831.54 2353.32 1829.88C2351.73 1828.29 2350.95 1827.02 2350.03 1824.99C2349.16 1823.14 2348.41 1821.66 2347.15 1820.04C2344.36 1816.16 2343.44 1811.8 2342.72 1807.16C2341.61 1800.75 2338.73 1797.66 2333.58 1793.98C2333.04 1793.6 2332.51 1793.23 2331.95 1792.84C2330.55 1791.78 2329.16 1790.7 2327.83 1789.54C2327.83 1789 2327.83 1788.45 2327.83 1787.89C2327.32 1787.81 2326.81 1787.73 2326.29 1787.65C2324.54 1787.07 2324.54 1787.07 2322.95 1784.36C2322.4 1783.21 2321.87 1782.05 2321.35 1780.88C2319.55 1777.09 2317.81 1773.44 2315.37 1770.01C2310.54 1763.07 2307.67 1755.23 2305.44 1747.13C2304.39 1743.46 2302.98 1740.62 2300.64 1737.6C2298.64 1736.58 2298.64 1736.58 2296.52 1736.78C2294.98 1737.8 2294.98 1737.8 2293.23 1739.25C2291.38 1740.14 2289.52 1740.94 2287.63 1741.75C2285.69 1742.56 2285.69 1742.56 2283.49 1743.84C2280.25 1745.3 2277 1746.03 2273.53 1746.8C2270.9 1747.44 2270.9 1747.44 2268.24 1748.72C2264.78 1750.14 2261.57 1750.77 2257.9 1751.31C2257.22 1751.41 2256.54 1751.52 2255.84 1751.62C2250.66 1752.38 2245.51 1752.74 2240.28 1752.99C2236.02 1753.2 2232.19 1753.63 2228.13 1754.91C2226.24 1757.75 2226.33 1759.02 2226.48 1762.33C2229.49 1763.2 2232.51 1764.01 2235.54 1764.81C2236.33 1765.01 2237.12 1765.22 2237.93 1765.43C2245.59 1767.26 2253.3 1768.03 2261.13 1768.71C2266.77 1769.25 2271.73 1770.37 2277.06 1772.29C2279.57 1773.17 2282.06 1773.71 2284.68 1774.18C2291.37 1775.69 2296.84 1778.21 2300.95 1783.87C2302.73 1786.79 2303.65 1789.6 2304.56 1792.89C2306.06 1797.78 2308.24 1799.77 2312.35 1802.67C2314.96 1804.61 2317.17 1806.75 2319.44 1809.07C2320.16 1809.8 2320.88 1810.54 2321.62 1811.29C2322.31 1812 2323 1812.72 2323.71 1813.45C2324.43 1814.13 2325.15 1814.82 2325.89 1815.53C2327.77 1817.5 2328.97 1819.33 2330.31 1821.69C2331.37 1823.18 2332.46 1824.66 2333.55 1826.12C2335.45 1828.71 2337.26 1831.25 2338.8 1834.06C2339.99 1836.44 2339.99 1836.44 2341.39 1837.69C2342.88 1839.23 2343.73 1840.77 2344.73 1842.66C2346.07 1845.2 2347.51 1847.45 2349.26 1849.72C2350.09 1851.09 2350.92 1852.47 2351.73 1853.85C2353.65 1857.06 2355.52 1860.16 2358.01 1862.97C2359.78 1865.15 2360.67 1866.95 2361.67 1869.54C2362.63 1871.55 2363.86 1873.22 2365.17 1875.02C2367.97 1878.88 2370.04 1882.87 2372.04 1887.18C2373 1889.3 2373 1889.3 2374.51 1890.52C2376.2 1892.41 2375.97 1894.12 2376.04 1896.61C2376.15 1900.43 2376.67 1902.67 2378.92 1905.78C2382.01 1908.62 2382.01 1908.62 2385.62 1910.68C2387.52 1911.76 2388.34 1913.15 2389.47 1914.98C2390.66 1916.81 2391.99 1918.5 2393.34 1920.21C2399.52 1928.1 2399.52 1928.1 2399.52 1930.52C2400.04 1930.73 2400.55 1930.94 2401.07 1931.15C2403.09 1932.32 2403.51 1933.05 2404.42 1935.15C2405.85 1938.29 2407.55 1941.11 2409.45 1943.98C2410.24 1945.36 2410.24 1945.36 2410.24 1947.01C2410.75 1947.2 2411.26 1947.4 2411.78 1947.61C2413.95 1948.91 2414.3 1949.87 2415.18 1952.21C2416.46 1955.34 2417.94 1957.59 2420.13 1960.2C2420.98 1961.83 2421.8 1963.48 2422.6 1965.14C2423.42 1966.52 2424.24 1967.89 2425.07 1969.27C2432.49 1982.03 2432.49 1982.03 2432.49 1985.75C2433.3 1986.03 2434.12 1986.3 2434.96 1986.58C2436.01 1988.8 2436.01 1988.8 2437.02 1991.63C2438.08 1994.57 2439.13 1997.4 2440.47 2000.23C2441.51 2002.96 2441.89 2005.23 2442.27 2008.12C2442.76 2011.3 2443.06 2012.77 2444.95 2015.43C2450.5 2019.3 2455.4 2020.89 2462.1 2021.62C2467.27 2022.18 2471.5 2023.12 2476.2 2025.38C2478 2026.24 2479.81 2026.84 2481.72 2027.39C2484.85 2028.38 2486.82 2029.8 2489.34 2031.92C2491.26 2032.82 2493.15 2033.62 2495.11 2034.4C2496.88 2035.13 2498.65 2035.87 2500.42 2036.61C2501.94 2037.25 2503.47 2037.88 2505 2038.52C2505 2038.79 2505 2039.06 2505 2039.34C2504.32 2039.48 2503.64 2039.62 2502.95 2039.77C2498.51 2040.73 2494.38 2041.67 2490.27 2043.62C2484.44 2046.08 2477.5 2046.23 2471.44 2044.45C2470.12 2043.89 2468.8 2043.31 2467.5 2042.69C2465.17 2041.7 2462.94 2041.23 2460.45 2040.73C2455.83 2039.73 2451.58 2038.24 2447.22 2036.46C2446.61 2036.21 2446 2035.97 2445.38 2035.71C2442.48 2034.49 2440.42 2033.34 2438.25 2031.1C2434.4 2028.99 2430.78 2027.4 2426.36 2028.16C2425.39 2028.31 2424.42 2028.47 2423.42 2028.62C2422.03 2027.59 2422.03 2027.59 2420.95 2026.15C2420.08 2025.66 2420.08 2025.66 2419.2 2025.16C2416.07 2023.2 2413.53 2020.8 2410.86 2018.27C2410.31 2017.75 2409.77 2017.24 2409.21 2016.71C2397.77 2005.84 2397.77 2005.84 2396.24 2001.7C2395.61 1999.66 2395.61 1999.66 2393.86 1999.01C2391.81 1997.97 2390.93 1996.9 2389.56 1995.07C2389.1 1994.46 2388.64 1993.86 2388.17 1993.23C2387.7 1992.6 2387.23 1991.97 2386.75 1991.32C2386.28 1990.7 2385.82 1990.08 2385.33 1989.44C2383.31 1986.75 2381.34 1984.06 2379.52 1981.23C2378.3 1979.07 2378.3 1979.07 2376.4 1978.39C2374.25 1977.2 2373.93 1975.67 2373.08 1973.45C2371.31 1969.41 2368.7 1965.63 2365.59 1962.52C2363.65 1960.58 2362.83 1958.54 2361.62 1956.07C2360.68 1954.63 2359.74 1953.18 2358.79 1951.75C2354.62 1945.22 2352.23 1939.59 2352.04 1931.79C2351.65 1929.12 2350.99 1927.64 2349.26 1925.57C2346.91 1924.99 2346.91 1924.99 2344.31 1925.06C2339.71 1925 2339.71 1925 2337.95 1923.67C2334.56 1919.15 2332.02 1914.29 2329.66 1909.17C2328.69 1907.19 2328.69 1907.19 2326.19 1905.78C2325.35 1904.14 2324.53 1902.49 2323.71 1900.84C2322.62 1899.46 2321.52 1898.08 2320.42 1896.72C2318.51 1893.85 2316.75 1890.88 2314.99 1887.92C2314.56 1887.18 2314.12 1886.45 2313.67 1885.69C2313.27 1885 2312.87 1884.32 2312.45 1883.61C2311.39 1881.79 2311.39 1881.79 2309.71 1880.23C2309.13 1878.96 2308.61 1877.66 2308.11 1876.36C2307.18 1873.95 2306.23 1871.6 2305.17 1869.25C2303.85 1866 2303.06 1862.87 2302.34 1859.46C2301.1 1853.59 2299.31 1847.98 2297.35 1842.3C2293.67 1842.28 2289.99 1842.27 2286.32 1842.26C2285.07 1842.25 2283.82 1842.25 2282.58 1842.24C2268.36 1841.72 2268.36 1841.72 2254.76 1844.97C2250 1846.54 2244.73 1846.75 2239.77 1847.3C2237.45 1847.56 2235.14 1847.83 2232.82 1848.1C2232.27 1848.17 2231.71 1848.23 2231.14 1848.3C2227.33 1848.75 2223.63 1849.45 2219.88 1850.25C2217.8 1850.63 2215.95 1850.58 2213.86 1850.29C2213.22 1850.21 2212.58 1850.13 2211.91 1850.04C2210.63 1849.83 2209.34 1849.58 2208.07 1849.3C2205.94 1848.91 2204.03 1848.8 2201.87 1848.82C2201.14 1848.82 2200.41 1848.82 2199.66 1848.83C2198.91 1848.83 2198.16 1848.84 2197.38 1848.85C2196.61 1848.85 2195.85 1848.85 2195.06 1848.86C2193.17 1848.87 2191.28 1848.88 2189.4 1848.9C2189.1 1855.51 2188.87 1861.45 2193.07 1866.96C2194.45 1868.83 2195.37 1870.7 2196.35 1872.81C2198.23 1876.63 2199.9 1879.17 2203.66 1881.31C2206.79 1883.27 2209.14 1885.79 2211.65 1888.47C2212.1 1888.95 2212.56 1889.43 2213.03 1889.93C2215.93 1893.12 2217.48 1896.01 2219.06 1900.01C2219.47 1900.52 2219.88 1901.03 2220.3 1901.56C2221.58 1903.37 2222.07 1904.81 2222.72 1906.92C2223.77 1910.28 2225.28 1912.77 2227.3 1915.68C2227.87 1916.99 2228.43 1918.31 2228.97 1919.64C2232.56 1927.77 2232.56 1927.77 2238.02 1934.64C2238.81 1936.17 2239.6 1937.71 2240.35 1939.26C2241.46 1941.53 2242.64 1943.75 2243.84 1945.98C2244.24 1946.72 2244.64 1947.46 2245.05 1948.23C2246.2 1950.3 2246.2 1950.3 2247.56 1952.03C2248.72 1953.59 2249.36 1954.94 2250.07 1956.74C2251.34 1959.79 2252.93 1962.39 2254.78 1965.12C2260.09 1973.13 2261.91 1981.93 2261.91 1991.52C2262.97 1991.71 2264.02 1991.9 2265.11 1992.09C2270.23 1993.75 2272.68 1997.85 2275.62 2002.06C2277.47 2004.58 2279.47 2006.64 2281.69 2008.84C2282.5 2010.35 2283.3 2011.88 2284.03 2013.43C2286.09 2017.76 2288.47 2021.94 2290.75 2026.15C2291.2 2026.98 2291.65 2027.8 2292.11 2028.65C2293.88 2031.92 2295.66 2035.17 2297.55 2038.36C2298.92 2040.86 2299.84 2043.21 2300.64 2045.94C2301.19 2045.94 2301.73 2045.94 2302.29 2045.94C2302.69 2046.85 2302.69 2046.85 2303.1 2047.78C2303.64 2048.98 2303.64 2048.98 2304.2 2050.21C2304.55 2051.01 2304.9 2051.8 2305.27 2052.62C2306.36 2055.01 2306.36 2055.01 2307.71 2057.15C2308.8 2058.99 2309.43 2060.55 2310.01 2062.58C2311.15 2066.17 2312.71 2069.4 2314.43 2072.74C2316.01 2075.84 2317.39 2079.02 2318.77 2082.21C2319.08 2082.88 2319.38 2083.54 2319.7 2084.22C2320.63 2086.97 2321.11 2089.74 2321.6 2092.6C2322.07 2094.59 2322.66 2096.13 2323.71 2097.88C2324.26 2098.15 2324.8 2098.42 2325.36 2098.7C2325.87 2101.41 2326.15 2104.12 2326.47 2106.86C2327.04 2109.55 2327.24 2110.39 2329.48 2111.89C2333.5 2113.58 2337.61 2114.08 2341.89 2114.67C2354.13 2116.49 2367.89 2120.06 2377.95 2127.66C2381.11 2129.52 2383.84 2129.85 2387.43 2130.39C2389.53 2130.83 2390.87 2131.38 2392.67 2132.5C2395.83 2134.41 2398.41 2135.04 2402 2135.8C2399.07 2137.75 2396.64 2137.86 2393.24 2138.17C2388.52 2138.66 2384.73 2139.51 2380.45 2141.66C2373.27 2145.1 2362.43 2143.91 2355.03 2141.57C2354.4 2141.39 2353.77 2141.21 2353.12 2141.03C2347.89 2139.53 2342.81 2137.7 2337.72 2135.8C2337.11 2135.58 2336.49 2135.36 2335.86 2135.13C2332.5 2133.91 2329.36 2132.48 2326.19 2130.85C2324.9 2130.32 2323.61 2129.79 2322.32 2129.26C2319.43 2128 2318.05 2126.93 2316.3 2124.26C2314.19 2123.43 2312.8 2123.45 2310.52 2123.69C2305.9 2124.16 2302.7 2124.23 2298.71 2121.66C2295.93 2119.26 2293.48 2116.57 2291.01 2113.85C2290.13 2112.94 2289.25 2112.02 2288.37 2111.12C2284.63 2107.19 2281.61 2103.64 2279.22 2098.7C2278.67 2098.43 2278.13 2098.16 2277.57 2097.88C2275.08 2096.63 2274.61 2094.58 2273.45 2092.11C2272.37 2090.72 2271.27 2089.34 2270.15 2087.98C2267.68 2084.18 2267.68 2084.18 2267.68 2082.21C2266.86 2081.94 2266.05 2081.67 2265.21 2081.39C2264.27 2080.15 2264.27 2080.15 2263.35 2078.55C2261.29 2075.08 2259.02 2071.81 2256.68 2068.52C2255.31 2066.54 2254.08 2064.5 2252.85 2062.43C2252.34 2061.66 2251.83 2060.9 2251.3 2060.11C2248.05 2055.22 2245.02 2050.23 2242.14 2045.11C2241.64 2044.24 2241.15 2043.38 2240.64 2042.48C2236.92 2035.29 2235.47 2028.82 2234.92 2020.72C2234.55 2016.02 2234.55 2016.02 2231.58 2012.48C2228.77 2011.23 2226.4 2010.66 2223.39 2010.23C2220.76 2009.42 2219.36 2008.31 2217.42 2006.36C2216.42 2004.25 2215.59 2002.28 2214.84 2000.08C2213.38 1995.56 2213.38 1995.56 2210 1992.35C2209.38 1990.93 2208.77 1989.5 2208.2 1988.06C2207.22 1985.91 2205.72 1984.27 2204.23 1982.46C2203.39 1980.81 2202.57 1979.17 2201.76 1977.51C2201.21 1976.71 2200.67 1975.91 2200.11 1975.09C2198.36 1972.41 2197.2 1969.75 2195.99 1966.79C2195.6 1966.07 2195.21 1965.36 2194.81 1964.62C2193.22 1961.21 2192.32 1957.81 2191.41 1954.17C2191.24 1953.51 2191.06 1952.84 2190.89 1952.16C2190.38 1950.17 2189.88 1948.18 2189.4 1946.18C2189.24 1945.55 2189.09 1944.92 2188.93 1944.27C2187.85 1939.62 2187.25 1935.01 2186.82 1930.26C2186.45 1926.76 2185.83 1924.23 2183.63 1921.45C2180.73 1920.72 2178.16 1920.62 2175.18 1920.68C2172.57 1920.63 2170.51 1920.34 2167.97 1919.81C2163.06 1918.89 2158.33 1918.75 2153.35 1918.79C2152.43 1918.79 2151.51 1918.79 2150.57 1918.79C2147.58 1918.79 2144.59 1918.8 2141.6 1918.82C2139.53 1918.83 2137.45 1918.83 2135.37 1918.84C2114.92 1918.91 2094.48 1919.3 2074.03 1919.8C2074.01 1922.44 2073.99 1925.09 2073.97 1927.73C2073.97 1928.47 2073.96 1929.22 2073.95 1929.98C2073.92 1935.46 2074.42 1940.24 2076.51 1945.36C2076.81 1946.09 2077.11 1946.83 2077.41 1947.59C2079.91 1953.09 2082.54 1955.96 2087.79 1959.01C2089.83 1960.28 2090.76 1961.58 2092.16 1963.49C2092.98 1963.77 2093.79 1964.04 2094.64 1964.32C2095.21 1965.68 2095.76 1967.06 2096.28 1968.44C2097.32 1970 2098.41 1971.53 2099.53 1973.03C2100.38 1974.18 2100.38 1974.18 2101.25 1975.35C2102.22 1976.64 2103.22 1977.92 2104.24 1979.18C2105.91 1981.64 2106.4 1984.27 2107.12 1987.12C2107.88 1989.23 2108.73 1989.97 2110.29 1991.52C2111.14 1993.58 2111.14 1993.58 2111.89 1995.9C2113.14 1999.55 2114.62 2002.4 2116.88 2005.54C2117.71 2007.19 2118.53 2008.84 2119.36 2010.49C2119.75 2011 2120.14 2011.51 2120.54 2012.03C2122 2014.02 2123.03 2016.12 2124.1 2018.33C2126.63 2023.4 2129.27 2028.45 2132.23 2033.28C2133.24 2035.01 2133.92 2036.57 2134.55 2038.47C2135.66 2041.58 2137.27 2044.02 2139.13 2046.76C2139.97 2048.68 2140.8 2050.6 2141.6 2052.53C2142.01 2053.21 2142.42 2053.89 2142.84 2054.59C2144.08 2056.65 2144.08 2056.65 2145.31 2059.64C2146.32 2062.36 2146.32 2062.36 2147.89 2063.77C2150.99 2066.87 2150.11 2073.12 2150.27 2077.29C2150.52 2082.25 2150.99 2086.06 2154.62 2089.6C2155.54 2090.43 2156.48 2091.25 2157.42 2092.05C2158.39 2092.93 2159.37 2093.8 2160.34 2094.67C2160.81 2095.08 2161.28 2095.5 2161.76 2095.92C2168.97 2102.32 2173.9 2109.58 2178.4 2118.1C2179.72 2120.53 2181.26 2122.79 2182.81 2125.08C2183.63 2126.73 2184.45 2128.38 2185.28 2130.03C2185.69 2130.56 2186.09 2131.08 2186.51 2131.63C2187.87 2133.5 2188.68 2135.43 2189.55 2137.57C2190.23 2139.11 2191.01 2140.53 2191.87 2141.98C2193.01 2143.92 2193.87 2145.7 2194.75 2147.81C2195.88 2150.62 2195.88 2150.62 2197.48 2152.86C2200.83 2157.93 2203.58 2163.46 2205.62 2169.19C2206.51 2171.98 2206.51 2171.98 2207.91 2173.66C2209.26 2175.49 2209.98 2177.16 2210.77 2179.29C2211.76 2181.87 2212.79 2184.36 2214.07 2186.81C2220.83 2199.96 2227.15 2215.77 2227.27 2230.7C2227.3 2233.08 2227.35 2234.95 2228.13 2237.2C2232.46 2241 2237.6 2243.36 2243.09 2244.95C2245.01 2245.58 2246.29 2246.71 2247.9 2247.92C2249.08 2248.34 2250.27 2248.74 2251.46 2249.11C2254.96 2250.22 2257.98 2251.74 2261.09 2253.69C2261.79 2254.11 2262.48 2254.53 2263.2 2254.96C2270.71 2259.54 2277.09 2264.88 2282.51 2271.83C2282.51 2272.37 2282.51 2272.92 2282.51 2273.48C2283.35 2273.57 2284.19 2273.66 2285.05 2273.76C2293.84 2274.94 2298.87 2277.39 2305.59 2283.37C2306.19 2283.87 2306.79 2284.36 2307.42 2284.87C2309.67 2286.71 2311.38 2288.36 2313 2290.79C2313 2291.61 2313 2292.42 2313 2293.27C2309.92 2292.95 2307.47 2292.23 2304.71 2290.9C2300.02 2288.71 2295.04 2287.45 2289.93 2286.67C2289.39 2286.94 2288.84 2287.21 2288.28 2287.49C2281.03 2288.06 2275.1 2287.65 2268.27 2285.03C2266.19 2284.26 2264.24 2283.78 2262.07 2283.37C2258.47 2282.64 2255.98 2281.16 2252.85 2279.25C2251.95 2278.89 2251.05 2278.54 2250.12 2278.17C2246.74 2276.78 2243.95 2274.65 2241 2272.52C2238.87 2271.03 2236.7 2269.69 2234.46 2268.38C2231.6 2266.7 2229.02 2264.92 2226.48 2262.76C2225.66 2262.22 2224.85 2261.67 2224.01 2261.11C2224.01 2260.3 2224.01 2259.48 2224.01 2258.64C2223.09 2258.44 2223.09 2258.44 2222.15 2258.23C2219.63 2256.85 2219.38 2256.31 2218.24 2253.8C2216.76 2250.6 2215.7 2248.78 2212.47 2247.1C2209.96 2246.81 2207.46 2246.68 2204.94 2246.54C2201.71 2246.18 2200.09 2245.09 2197.64 2242.98C2196.85 2242.3 2196.85 2242.3 2196.05 2241.62C2194.91 2240.63 2193.77 2239.63 2192.64 2238.61C2191.34 2237.46 2189.96 2236.39 2188.57 2235.35C2185.49 2232.82 2183.37 2229.5 2181.1 2226.26C2180.02 2224.73 2178.89 2223.24 2177.71 2221.78C2176.21 2219.89 2176.21 2219.89 2175.39 2218.19C2174.63 2216.5 2174.63 2216.5 2173.12 2215.2C2170.4 2212.4 2168.45 2209.14 2166.33 2205.88C2163.54 2201.7 2163.54 2201.7 2159.73 2198.46C2159.5 2197.57 2159.26 2196.69 2159.01 2195.78C2157.95 2192.24 2156.37 2190.5 2153.97 2187.74C2153.11 2186.1 2152.29 2184.46 2151.49 2182.79C2150.69 2181.68 2149.86 2180.58 2149.02 2179.49C2148.19 2178.13 2147.36 2176.75 2146.55 2175.37C2144.68 2172.33 2142.79 2169.31 2140.78 2166.36C2138.68 2163.13 2136.85 2159.79 2135.01 2156.41C2134.55 2155.56 2134.09 2154.71 2133.61 2153.84C2130.68 2148.43 2127.76 2143.01 2125.12 2137.45C2124.86 2136.92 2124.6 2136.4 2124.33 2135.86C2122.05 2131.08 2120.97 2126.49 2120.13 2121.27C2119.29 2116.17 2118.48 2111.55 2116.06 2106.94C2113.69 2105.37 2112.67 2105.02 2109.98 2104.57C2105.71 2103.68 2103.29 2102.07 2100.71 2098.49C2099.53 2096.13 2098.64 2093.76 2097.8 2091.25C2097.15 2089.56 2097.15 2089.56 2095.9 2088.04C2094.09 2085.6 2093.25 2082.93 2092.21 2080.1C2091.32 2078.05 2090.23 2076.56 2088.87 2074.79C2088.29 2073.71 2087.74 2072.61 2087.22 2071.49C2086.04 2069.07 2084.74 2067.04 2083.1 2064.9C2082.27 2063.25 2081.45 2061.6 2080.63 2059.95C2079.84 2058.83 2079.84 2058.83 2079.03 2057.69C2077.23 2054.85 2076.06 2052.08 2074.88 2048.95C2074.24 2047.29 2073.54 2045.65 2072.8 2044.03C2071.49 2040.82 2070.64 2037.71 2069.86 2034.34C2069.14 2031.25 2068.41 2028.2 2067.36 2025.2C2065.07 2017.95 2066.99 2011.2 2069.17 2004.17C2070.18 2000.45 2070.65 1996.98 2069.91 1993.17C2068.36 1990.82 2067.23 1990.16 2064.71 1989C2061.72 1989.07 2060.43 1990.38 2058.12 1992.17C2054.7 1994.64 2050.07 1994.42 2046.02 1994C2043.48 1993.33 2041.06 1992.43 2038.6 1991.52C2031.64 1989.07 2024.54 1987.97 2017.27 1986.86C2015.81 1986.62 2014.36 1986.35 2012.92 1986.06C2006.66 1984.86 2000.45 1984.73 1994.1 1984.67C1993.2 1984.66 1992.29 1984.64 1991.36 1984.63C1990.07 1984.63 1990.07 1984.63 1988.75 1984.63C1987.97 1984.63 1987.2 1984.62 1986.4 1984.62C1983.79 1984.99 1982.26 1985.93 1980.1 1987.4C1979.46 1987.81 1978.82 1988.22 1978.16 1988.64C1977.54 1989.05 1976.92 1989.46 1976.28 1989.88C1975.66 1990.28 1975.04 1990.69 1974.4 1991.11C1972.68 1992.27 1972.68 1992.27 1971.4 1993.65C1970.08 1994.95 1968.91 1995.56 1967.22 1996.32C1964.64 1997.55 1962.35 1998.94 1960.01 2000.59C1956.2 2003.2 1952.28 2004.81 1947.96 2006.36C1946.84 2006.78 1945.73 2007.19 1944.61 2007.6C1944.08 2007.8 1943.55 2007.99 1943 2008.19C1941.22 2008.9 1939.5 2009.71 1937.76 2010.54C1933.86 2012.32 1929.93 2013.12 1925.71 2013.78C1925.71 2014.33 1925.71 2014.87 1925.71 2015.43C1924.38 2015.84 1924.38 2015.84 1923.03 2016.25C1921.85 2016.61 1920.66 2016.98 1919.48 2017.34C1918.61 2017.6 1918.61 2017.6 1917.72 2017.87C1914.93 2018.73 1912.34 2019.64 1909.68 2020.86C1906.2 2022.25 1902.94 2022.74 1899.24 2023.21C1893.63 2024.01 1888.46 2025.18 1883.08 2027C1879.35 2028.11 1875.56 2028.76 1871.71 2029.34C1868.33 2029.9 1865.81 2030.65 1863.08 2032.75C1861.92 2034.52 1861.1 2036.31 1860.2 2038.23C1857.71 2042.13 1855.24 2043.97 1850.85 2045.12C1849.69 2045.28 1848.54 2045.44 1847.38 2045.58C1842.06 2046.36 1837.17 2047.55 1832.06 2049.26C1828.23 2050.37 1824.35 2051 1820.4 2051.53C1817.2 2051.99 1817.2 2051.99 1814.92 2054.12C1814.22 2056.77 1814.43 2058.14 1815.29 2060.78C1818.29 2065.22 1821.99 2068.21 1826.5 2071.02C1829.42 2072.94 1832.08 2075.17 1834.77 2077.4C1836.71 2078.91 1838.72 2080.14 1840.84 2081.39C1846.68 2086.46 1850.65 2092.87 1853.27 2100.09C1853.98 2101.9 1854.81 2103.47 1855.82 2105.14C1861.01 2114.27 1859.12 2128.92 1859.12 2139.17C1859.12 2141.4 1859.13 2143.64 1859.15 2145.87C1859.17 2153.01 1858.99 2160.05 1858.23 2167.14C1858.13 2168.05 1858.13 2168.05 1858.03 2168.98C1857.57 2172.83 1856.66 2175.97 1854.85 2179.38C1853.45 2182.36 1852.88 2185.56 1852.14 2188.75C1851.55 2191.04 1851.55 2191.04 1850.31 2193.87C1848.78 2197.5 1848.06 2201.15 1847.22 2204.99C1846.6 2207.53 1846.6 2207.53 1845.32 2210.51C1844.21 2213.12 1843.92 2214.86 1843.62 2217.62C1842.69 2223.43 1839.21 2227.43 1835.07 2231.43C1834.25 2231.71 1833.44 2231.98 1832.6 2232.26C1832.49 2232.76 1832.38 2233.26 1832.28 2233.78C1831.34 2237.06 1828.11 2238.21 1825.33 2239.89C1821.99 2241.72 1818.58 2243.19 1815.04 2244.58C1812.7 2245.46 1812.7 2245.46 1810.04 2246.79C1807.15 2247.88 1804.46 2248.5 1801.44 2249.11C1797.14 2249.97 1793.38 2251.16 1789.37 2252.9C1786.96 2253.81 1784.59 2254.34 1782.07 2254.88C1772.33 2256.52 1772.33 2256.52 1764.74 2261.94C1764.13 2263.85 1763.76 2265.74 1763.38 2267.71C1762.86 2268.94 1762.31 2270.16 1761.73 2271.37C1760.53 2273.98 1759.62 2276.54 1758.84 2279.3C1758.09 2281.96 1757.22 2284.29 1755.91 2286.72C1754.09 2290.13 1753.33 2293.6 1752.66 2297.39C1752.12 2297.39 1751.58 2297.39 1751.02 2297.39C1750.81 2297.82 1750.61 2298.25 1750.4 2298.7C1745.32 2308.48 1738.7 2317.54 1729.93 2324.3C1728.66 2325.37 1728.66 2325.37 1728.1 2327.05C1726.67 2329.49 1724.7 2330.01 1722.18 2331.19C1720.62 2332.24 1719.1 2333.32 1717.59 2334.44C1716.84 2334.99 1716.09 2335.54 1715.32 2336.11C1710.99 2339.38 1710.99 2339.38 1707.09 2343.14C1704.37 2345.67 1701.61 2346.96 1698.28 2348.5C1697.76 2348.78 1697.24 2349.06 1696.71 2349.35C1692.19 2351.8 1687.58 2353.02 1682.62 2354.27C1681.21 2354.69 1679.81 2355.1 1678.4 2355.51C1673.92 2356.75 1669.4 2357.48 1664.83 2358.23C1661.13 2358.86 1657.7 2359.75 1654.14 2360.97C1649.99 2362.36 1646.27 2362.78 1641.94 2362.93C1637.01 2363.13 1633.67 2363.28 1629.88 2366.64C1628.71 2368.47 1627.71 2370.32 1626.73 2372.26C1624.36 2376.67 1621.05 2378.52 1616.7 2380.66C1616.19 2381.2 1615.68 2381.74 1615.16 2382.3C1613.05 2384.28 1611.16 2384.87 1608.47 2385.78C1606.6 2386.44 1606.6 2386.44 1604.34 2388.07C1601.85 2389.74 1599.62 2390.63 1596.79 2391.53C1595.2 2392.12 1595.2 2392.12 1594.04 2393.43C1592.62 2394.85 1591.56 2395.25 1589.66 2395.86C1586.49 2396.96 1584.06 2398.56 1581.27 2400.44C1579.39 2401.33 1577.49 2402.15 1575.58 2402.97C1573.52 2403.89 1571.66 2405.05 1569.73 2406.21C1568.33 2406.82 1566.92 2407.43 1565.51 2408.02C1562.73 2409.22 1560.06 2410.61 1557.37 2411.98C1555.37 2412.99 1553.37 2413.99 1551.36 2414.98C1549.79 2415.78 1548.21 2416.58 1546.64 2417.38C1542.65 2419.41 1538.73 2421.35 1534.51 2422.83C1531.94 2423.79 1529.45 2424.9 1526.93 2426C1523.13 2427.65 1519.36 2429.12 1515.4 2430.36C1513.55 2430.99 1511.82 2431.77 1510.04 2432.59C1506.81 2434.08 1503.57 2435.12 1500.15 2436.05C1497.9 2436.72 1497.9 2436.72 1495.29 2437.92C1492.26 2439.19 1489.33 2440.04 1486.14 2440.84C1482.87 2441.67 1479.67 2442.49 1476.56 2443.83C1473.72 2444.98 1470.96 2445.31 1467.91 2445.68C1462.54 2446.37 1457.82 2447.85 1452.73 2449.66C1447.36 2451.49 1441.77 2452.5 1436.22 2453.65C1434.76 2453.99 1433.34 2454.43 1431.92 2454.88C1427.48 2456.02 1423.02 2456.33 1418.47 2456.76C1411.57 2457.45 1405.02 2458.41 1398.33 2460.21C1365.38 2468.51 1327.36 2466.01 1293.73 2464.08C1292.7 2464.02 1291.67 2463.96 1290.61 2463.9C1285.8 2463.57 1281.23 2462.96 1276.54 2461.88C1269.31 2460.22 1262.05 2459.78 1254.68 2459.26C1247.93 2458.77 1241.5 2458.07 1234.96 2456.26C1230.7 2455.16 1226.33 2454.71 1221.96 2454.18C1216.65 2453.46 1216.65 2453.46 1214.2 2451.97C1210.92 2450.03 1207.4 2449.92 1203.66 2449.49C1198.55 2448.9 1193.88 2448.11 1189.04 2446.37C1186.86 2445.6 1184.64 2445.1 1182.39 2444.6C1178.77 2443.73 1175.75 2442.6 1172.5 2440.82C1170.18 2439.65 1167.76 2438.94 1165.28 2438.21C1163.49 2437.54 1163.49 2437.54 1161.48 2436.33C1159.32 2435.04 1157.27 2434.23 1154.89 2433.42C1151.56 2432.25 1148.48 2430.93 1145.36 2429.3C1144.03 2428.76 1144.03 2428.76 1142.68 2428.21C1137.88 2426.18 1132.63 2423.79 1129.7 2419.4C1128.9 2419.01 1128.1 2418.62 1127.28 2418.22C1124.7 2416.9 1123.9 2415.93 1122.29 2413.63C1121.47 2413.36 1120.65 2413.09 1119.81 2412.81C1119.81 2412.26 1119.81 2411.72 1119.81 2411.16C1120.93 2411.23 1122.05 2411.32 1123.16 2411.42C1124.09 2411.49 1124.09 2411.49 1125.04 2411.56C1127.23 2411.98 1127.23 2411.98 1129.97 2413.21C1133.18 2414.53 1136.01 2414.98 1139.44 2415.13C1140.04 2415.16 1140.64 2415.19 1141.26 2415.22C1150.63 2415.54 1159.68 2414.34 1168.69 2411.83C1175.18 2410.04 1180.94 2410.13 1187.51 2411.54C1192.39 2412.59 1197.15 2413.16 1202.13 2413.45C1202.87 2413.5 1203.62 2413.55 1204.39 2413.6C1206.76 2413.75 1209.12 2413.9 1211.49 2414.04C1235.36 2415.52 1235.36 2415.52 1244.24 2417.75C1250.04 2418.2 1255.54 2417.74 1261.22 2416.59C1268.91 2415.14 1276.59 2414.59 1284.39 2414.13C1286.78 2413.99 1289.17 2413.84 1291.57 2413.68C1296.71 2413.34 1301.86 2413.02 1307.01 2412.7C1320.31 2411.96 1320.31 2411.96 1333.17 2408.69C1336.25 2407.68 1339.32 2407.12 1342.51 2406.57C1345.94 2405.98 1349.24 2405.38 1352.5 2404.1C1360.39 2401.3 1369.43 2401.34 1377.71 2400.89C1378.29 2400.85 1378.87 2400.82 1379.46 2400.79C1382.39 2400.62 1385.31 2400.47 1388.23 2400.34C1394.18 2400.04 1399.4 2399.4 1404.93 2397.14C1406.07 2396.77 1407.22 2396.41 1408.38 2396.06C1412.7 2394.63 1416.83 2392.76 1421 2390.95C1426.77 2388.5 1432.66 2386.45 1438.65 2384.62C1442.37 2383.17 1445.66 2380.74 1449.01 2378.59C1451.22 2377.18 1453.43 2375.78 1455.68 2374.43C1463.97 2369.42 1472.04 2361.9 1474.7 2352.24C1474.94 2350.99 1475.17 2349.74 1475.39 2348.48C1476.27 2344.91 1478.62 2343.04 1481.56 2341.08C1482.77 2340.66 1483.99 2340.26 1485.22 2339.9C1487.39 2339.21 1488.85 2338.7 1490.68 2337.32C1492.42 2336.02 1493.62 2335.74 1495.72 2335.26C1497.28 2334.88 1497.28 2334.88 1498.86 2334.49C1499.9 2332.41 1499.77 2330.93 1499.74 2328.61C1499.73 2327.49 1499.73 2327.49 1499.72 2326.34C1499.71 2325.76 1499.7 2325.19 1499.69 2324.59C1491.04 2321.24 1482.28 2318.2 1473.22 2316.16C1471.29 2315.64 1469.55 2315.03 1467.7 2314.3C1464.29 2312.99 1460.95 2312.36 1457.35 2311.82C1453.5 2311.19 1449.79 2310.55 1446.08 2309.29C1441.49 2307.77 1436.77 2307.42 1431.98 2306.97C1429.19 2306.52 1427.21 2305.76 1424.68 2304.58C1421.25 2303.32 1417.55 2303.17 1413.94 2302.8C1408.61 2302.18 1403.55 2301.54 1398.44 2299.86C1392.18 2297.85 1385.8 2297.27 1379.28 2296.6C1378.43 2296.51 1377.58 2296.42 1376.71 2296.33C1375.58 2296.21 1375.58 2296.21 1374.42 2296.1C1371.96 2295.74 1371.96 2295.74 1368.97 2294.91C1364.6 2293.78 1360.23 2293.73 1355.73 2293.6C1354.36 2293.55 1354.36 2293.55 1352.96 2293.5C1350.04 2293.4 1347.12 2293.31 1344.21 2293.21C1341.3 2293.12 1338.4 2293.02 1335.5 2292.92C1333.7 2292.86 1331.9 2292.8 1330.1 2292.74C1324.81 2292.57 1319.55 2292.24 1314.28 2291.8C1306.2 2291.2 1298.83 2291.92 1290.9 2293.52C1289.97 2293.7 1289.03 2293.88 1288.07 2294.06C1283.5 2294.95 1279.66 2295.94 1275.55 2298.21C1265.46 2301.05 1254.97 2298.96 1245.25 2295.94C1241.29 2294.72 1237.31 2294.13 1233.2 2293.64C1231.06 2293.27 1229.69 2292.58 1227.76 2291.62C1223.38 2290.55 1219.1 2290.75 1214.63 2290.95C1213.8 2290.98 1212.98 2291.02 1212.13 2291.06C1204.24 2291.47 1196.48 2292.52 1188.66 2293.61C1179.84 2294.82 1171.02 2295.52 1162.15 2296.15C1153.34 2296.78 1144.77 2297.52 1136.13 2299.47C1131.8 2300.4 1127.51 2300.94 1123.09 2301.3C1122.21 2301.37 1122.21 2301.37 1121.32 2301.45C1118.39 2301.69 1115.47 2301.9 1112.55 2302.08C1105.8 2302.6 1100.89 2303.79 1095.09 2307.28C1093.88 2307.89 1092.66 2308.49 1091.44 2309.08C1088.52 2310.5 1088.52 2310.5 1086.03 2312.23C1083.4 2312.33 1083.4 2312.33 1081.08 2312.23C1081.42 2310.27 1081.66 2309.18 1083.09 2307.76C1084.8 2306.03 1085.67 2304 1086.72 2301.82C1094.83 2285.16 1094.83 2285.16 1103.58 2281.63C1105.27 2280.89 1105.27 2280.89 1106.63 2278.43C1108.03 2277.59 1109.43 2276.76 1110.86 2275.98C1113.11 2274.73 1115.21 2273.27 1117.34 2271.83C1118.04 2271.42 1118.73 2271.01 1119.45 2270.59C1121.53 2269.37 1121.53 2269.37 1123.52 2267.71C1126.32 2265.47 1129.29 2263.81 1132.43 2262.09C1135.32 2260.45 1137.91 2258.5 1140.55 2256.48C1142.35 2255.12 1144.22 2253.98 1146.18 2252.87C1147.51 2252.08 1147.51 2252.08 1148.86 2251.27C1153.05 2248.89 1157.46 2247.05 1161.92 2245.24C1162.8 2244.88 1163.67 2244.53 1164.57 2244.16C1165.38 2243.84 1166.19 2243.51 1167.03 2243.18C1169.14 2242.2 1170.71 2241.07 1172.55 2239.68C1174.23 2239.04 1174.23 2239.04 1176 2238.54C1179.49 2237.46 1182.42 2235.9 1185.57 2234.07C1187.81 2232.85 1190.08 2232.01 1192.47 2231.17C1194.15 2230.58 1194.15 2230.58 1196.34 2229.42C1201.42 2226.89 1206.76 2224.98 1212.07 2223.01C1216.8 2221.25 1221.47 2219.47 1226.05 2217.36C1230.46 2215.38 1234.94 2213.61 1239.55 2212.16C1242.78 2211.13 1245.77 2209.75 1248.82 2208.3C1251.71 2206.93 1254.4 2205.67 1257.53 2205C1261.14 2204.13 1264.19 2202.69 1267.54 2201.12C1270.1 2199.96 1272.68 2199.09 1275.35 2198.24C1279.97 2196.72 1284.46 2194.79 1288.89 2192.79C1295.26 2189.92 1301.8 2187.44 1308.3 2184.88C1313.81 2182.69 1319.29 2180.45 1324.74 2178.1C1325.29 2177.87 1325.84 2177.63 1326.41 2177.39C1329.25 2176.15 1331.62 2174.79 1334.06 2172.9C1335.65 2172.23 1335.65 2172.23 1337.25 2171.71C1340.39 2170.61 1342.84 2169.01 1345.6 2167.13C1347.51 2166.28 1349.43 2165.46 1351.36 2164.65C1355.11 2162.89 1358.75 2160.93 1362.39 2158.94C1367.35 2156.21 1372.4 2153.68 1377.49 2151.2C1378.58 2150.67 1378.58 2150.67 1379.69 2150.12C1380.34 2149.81 1380.99 2149.49 1381.67 2149.16C1383.53 2148.15 1385.11 2146.96 1386.8 2145.69C1388.19 2145.1 1389.58 2144.52 1390.98 2143.95C1393.25 2142.9 1395.28 2141.55 1397.36 2140.15C1399.26 2139.03 1401.24 2138.21 1403.28 2137.36C1407.18 2135.62 1410.9 2133.46 1414.65 2131.41C1418.51 2129.33 1422.24 2127.76 1426.42 2126.47C1428.35 2125.78 1429.71 2124.71 1431.29 2123.43C1433.19 2122.77 1433.19 2122.77 1435.21 2122.25C1438.52 2121.32 1441.35 2120.12 1444.37 2118.52C1447.17 2117.15 1450.08 2116.16 1453.02 2115.14C1454.79 2114.51 1456.5 2113.81 1458.23 2113.08C1462.05 2111.61 1466.09 2111.03 1470.11 2110.39C1472.84 2109.93 1475.1 2109.36 1477.61 2108.18C1482.61 2105.89 1488.42 2105.99 1493.81 2105.52C1498.69 2105.04 1503.14 2104.26 1507.82 2102.8C1514.04 2100.91 1520.05 2100.51 1526.52 2100.25C1528.69 2100.15 1530.85 2100.04 1533.01 2099.93C1533.95 2099.89 1534.89 2099.85 1535.86 2099.81C1538.42 2099.53 1540.28 2099.09 1542.54 2097.88C1542.81 2097.06 1543.08 2096.24 1543.36 2095.4C1541.62 2092.35 1539.31 2090.06 1536.15 2088.55C1534.63 2088.23 1533.1 2087.93 1531.56 2087.7C1523.87 2086.47 1519.74 2082.59 1514.44 2077.15C1509.77 2072.59 1504.68 2068.78 1498.87 2065.81C1497.22 2064.9 1497.22 2064.9 1495.55 2063.61C1493.8 2062.2 1493.8 2062.2 1490.78 2061.45C1487.13 2060.16 1485.36 2058.02 1482.99 2055.06C1481.2 2052.92 1479.18 2051.24 1477.01 2049.5C1475.79 2048.41 1475.79 2048.41 1474.14 2045.94C1473.33 2045.55 1473.33 2045.55 1472.5 2045.16C1470.44 2044.07 1470.22 2043.03 1469.2 2040.99C1468.69 2040.76 1468.18 2040.54 1467.65 2040.3C1465.4 2039.07 1464.7 2037.75 1463.43 2035.53C1463.01 2034.79 1462.59 2034.06 1462.15 2033.3C1461.11 2031.38 1460.15 2029.46 1459.21 2027.49C1457.95 2024.91 1456.64 2023.04 1454.37 2021.2C1450.61 2019.95 1446.6 2019.53 1442.85 2021.03C1441.78 2021.61 1440.73 2022.19 1439.68 2022.8C1437.57 2023.83 1435.53 2024.33 1433.25 2024.86C1429.07 2025.92 1426.98 2027.32 1423.88 2030.27C1422.52 2031.12 1421.14 2031.94 1419.76 2032.75C1419.03 2033.32 1419.03 2033.32 1418.28 2033.91C1410.29 2039.68 1400.32 2041.93 1390.92 2044.29C1389.95 2044.56 1388.98 2044.83 1387.98 2045.11C1383.73 2046.17 1379.46 2046.52 1375.1 2046.85C1374.21 2046.92 1373.32 2046.99 1372.4 2047.07C1362.57 2047.76 1352.75 2047.81 1342.9 2047.76C1339.82 2047.74 1336.73 2047.74 1333.65 2047.74C1331.69 2047.73 1329.72 2047.73 1327.75 2047.72C1326.84 2047.72 1325.92 2047.72 1324.97 2047.72C1324.13 2047.72 1323.29 2047.71 1322.42 2047.71C1321.31 2047.7 1321.31 2047.7 1320.18 2047.7C1318.4 2047.59 1318.4 2047.59 1316.76 2046.76C1316.24 2040.31 1317.79 2036.67 1320.88 2031.1C1321.28 2030.13 1321.69 2029.16 1322.11 2028.16C1326.02 2019.19 1326.02 2019.19 1329.32 2016.26C1331.32 2013.97 1331.57 2011.97 1331.78 2008.99C1331.72 2006.94 1331.72 2006.94 1329.84 2004.82C1324.01 2000.51 1319.88 1999.78 1312.64 2000.59C1309.89 2001.83 1309.89 2001.83 1307.69 2003.89C1302.42 2007.62 1296.91 2010.76 1291.21 2013.78C1289.29 2014.81 1287.36 2015.84 1285.44 2016.88C1284.56 2017.35 1283.67 2017.82 1282.76 2018.31C1280.42 2019.56 1280.42 2019.56 1278.03 2021.2C1275.47 2021.79 1272.86 2022.01 1270.25 2022.29C1269.54 2022.38 1268.83 2022.47 1268.1 2022.56C1262.97 2023.13 1262.97 2023.13 1260.29 2021.92C1255.23 2015.54 1256.88 2001.49 1257.73 1993.68C1257.83 1992.88 1257.94 1992.09 1258.04 1991.27C1258.44 1988.04 1258.44 1988.04 1256.76 1985.24C1254.07 1983.55 1252.64 1983.25 1249.49 1983.18C1244.32 1982.69 1241.96 1980.32 1238.47 1976.69C1237.82 1976.06 1237.17 1975.44 1236.5 1974.8C1233.32 1971.73 1230.85 1968.94 1228.58 1965.14C1227.85 1964.56 1227.12 1963.99 1226.37 1963.39C1225.74 1962.88 1225.11 1962.37 1224.46 1961.85C1224.46 1961.03 1224.46 1960.21 1224.46 1959.37C1223.42 1959.04 1223.42 1959.04 1222.35 1958.7C1219.52 1957.72 1219.52 1957.72 1216.95 1956.47C1213.31 1954.9 1209.76 1954.75 1205.84 1954.58C1205.08 1954.54 1204.32 1954.5 1203.54 1954.45C1200.33 1954.27 1197.12 1954.11 1193.91 1953.95C1183.26 1953.4 1173.15 1952.15 1162.74 1949.83C1160.17 1949.31 1157.6 1948.98 1154.99 1948.65C1150.7 1948.04 1148.19 1946.81 1144.53 1944.53C1142.47 1943.82 1140.38 1943.24 1138.28 1942.65C1135.59 1941.85 1133.09 1940.71 1130.53 1939.59C1128.59 1938.97 1126.64 1938.37 1124.69 1937.81C1123.11 1937.11 1123.11 1937.11 1121.46 1934.64C1120.15 1934.05 1118.84 1933.48 1117.51 1932.95C1115.28 1931.99 1113.15 1930.89 1111.01 1929.74C1109.88 1929.15 1109.88 1929.15 1108.73 1928.54C1106.59 1927.2 1105.1 1925.71 1103.33 1923.92C1101.98 1923.07 1100.6 1922.24 1099.21 1921.45C1097.81 1920.52 1096.42 1919.57 1095.04 1918.61C1094.01 1917.9 1094.01 1917.9 1092.95 1917.17C1091.01 1915.7 1089.37 1914.13 1087.68 1912.38C1085.52 1910.53 1083.9 1909.16 1081 1908.97C1077.84 1909.24 1075.32 1909.9 1072.34 1911.06C1068.23 1912.64 1064.01 1913.56 1059.71 1914.49C1058.94 1914.66 1058.17 1914.84 1057.37 1915.01C1055.83 1915.35 1054.29 1915.69 1052.74 1916.02C1051.45 1916.31 1050.17 1916.62 1048.89 1916.95C1041.65 1918.82 1034.02 1918.94 1026.59 1919.41C1019.21 1919.89 1012.49 1920.53 1005.5 1923.17C998.721 1925.06 991.357 1924.93 984.354 1925.17C983.394 1925.21 982.433 1925.24 981.443 1925.27C971.909 1925.58 962.372 1925.71 952.834 1925.83C950.037 1925.87 947.24 1925.91 944.443 1925.95C943.506 1925.96 942.57 1925.97 941.605 1925.99C939.694 1926.01 937.783 1926.04 935.872 1926.07C930.988 1926.14 926.104 1926.2 921.22 1926.25C916.427 1926.3 911.635 1926.36 906.842 1926.44C905.033 1926.47 903.223 1926.49 901.413 1926.5C898.898 1926.52 896.384 1926.56 893.87 1926.61C892.765 1926.61 892.765 1926.61 891.637 1926.61C886.469 1926.75 883.985 1928.03 880.022 1931.34C878.19 1932.35 878.19 1932.35 876.674 1933.04C873.757 1934.44 871.168 1936.13 868.485 1937.94C866.859 1938.8 865.208 1939.63 863.541 1940.41C862.8 1940.76 862.8 1940.76 862.044 1941.12C853.848 1944.9 845.249 1948.2 836.522 1950.52C834.561 1951.12 834.561 1951.12 832.321 1952.36C829.714 1953.62 827.495 1954.2 824.657 1954.73C819.832 1955.7 815.093 1956.86 810.34 1958.14C804.958 1959.58 799.573 1960.93 794.127 1962.11C791.843 1962.63 791.843 1962.63 789.687 1963.47C775.8 1967.7 759.652 1966.23 745.252 1966.18C742.136 1966.17 739.02 1966.18 735.903 1966.19C733.462 1966.19 731.021 1966.19 728.58 1966.19C727.431 1966.19 726.282 1966.19 725.134 1966.19C716.133 1966.22 707.594 1965.6 699.074 1962.55C694.889 1961.06 690.634 1959.8 686.376 1958.55C685.682 1958.34 684.988 1958.13 684.274 1957.91C679.765 1956.71 676.734 1956.77 672.367 1958.55C669.405 1961.84 668.018 1965.85 666.461 1969.95C665.775 1971.74 665.775 1971.74 664.951 1973.39C664.407 1973.39 663.863 1973.39 663.303 1973.39C663.269 1974 663.235 1974.61 663.2 1975.24C662.176 1978.46 660.406 1979.15 657.535 1980.81C656.889 1981.23 656.243 1981.66 655.578 1982.1C653.757 1983.09 652.114 1983.78 650.17 1984.47C647.909 1985.27 646.43 1986.02 644.402 1987.4C641.685 1989.18 639.204 1989.99 636.133 1990.94C634.134 1991.64 632.809 1992.67 631.166 1994C630.179 1994.51 629.182 1995.01 628.179 1995.49C618.033 2000.52 611.863 2005.32 608.093 2016.26C607.488 2016.86 607.488 2016.86 606.87 2017.48C605.428 2018.92 605.007 2020.05 604.385 2021.98C603.462 2024.62 602.369 2026.39 600.677 2028.62C600.108 2029.85 599.561 2031.09 599.029 2032.33C597.896 2034.97 596.738 2037.11 594.909 2039.34C594.535 2040 594.161 2040.67 593.776 2041.35C592.215 2043.81 590.403 2045.55 588.317 2047.59C587.898 2048.23 587.479 2048.87 587.048 2049.52C585.4 2051.87 584.128 2053.42 581.724 2055.01C577.341 2055.7 572.876 2054.9 568.54 2054.18C567.996 2055.81 567.452 2057.45 566.892 2059.13C566.076 2059.13 565.26 2059.13 564.42 2059.13C564.233 2059.81 564.046 2060.49 563.853 2061.19C562.975 2063.53 562.153 2065.16 560.815 2067.22C558.951 2070.09 557.553 2073 556.205 2076.14C553.934 2081.35 551.592 2086.07 547.939 2090.46C547.599 2091.26 547.259 2092.05 546.909 2092.88C544.987 2096.24 542.406 2098.69 538.875 2100.35C536.275 2100.24 535.111 2099.84 533.149 2098.12C532.676 2097.54 532.203 2096.97 531.716 2096.38C530.998 2095.53 530.998 2095.53 530.265 2094.67C526.456 2089.49 526.775 2084.36 527.339 2078.09C528.147 2075.17 529.322 2072.56 530.635 2069.85C531.043 2068.8 531.439 2067.76 531.819 2066.7C532.893 2063.81 534.002 2060.93 535.115 2058.05C536.429 2054.64 537.703 2051.23 538.926 2047.79C541.415 2040.93 544.582 2034.5 547.878 2028C550.232 2023.32 552.294 2018.55 554.264 2013.69C555.264 2011.51 556.393 2009.91 557.828 2008.01C558.52 2006.25 558.52 2006.25 559.012 2004.41C560.063 2001.05 561.516 1998.51 563.596 1995.65C564.43 1994.28 565.253 1992.9 566.068 1991.52C568.541 1987.34 571.035 1983.16 573.639 1979.06C574.024 1978.44 574.41 1977.83 574.807 1977.19C575.376 1976.53 575.376 1976.53 575.956 1975.86C576.772 1975.86 577.588 1975.86 578.428 1975.86C578.632 1975.25 578.836 1974.64 579.046 1974.01C580.076 1971.74 580.076 1971.74 581.653 1970.34C583.872 1967.89 584.64 1965.31 585.535 1962.21C585.703 1961.67 585.871 1961.13 586.044 1960.57C588.393 1952.76 589.324 1944.92 589.862 1936.8C590.416 1929.54 591.556 1923.35 594.085 1916.5C594.523 1915.01 594.953 1913.52 595.372 1912.02C596.292 1908.91 597.581 1906.21 599.029 1903.31C599.307 1902.2 599.564 1901.08 599.801 1899.96C600.525 1896.79 601.889 1895.11 603.973 1892.59C604.879 1890.71 605.685 1888.8 606.497 1886.88C607.355 1884.98 608.451 1883.5 609.741 1881.88C610.58 1880.23 611.402 1878.58 612.213 1876.93C612.87 1875.62 613.54 1874.31 614.222 1873.01C614.544 1872.39 614.866 1871.76 615.197 1871.12C616.503 1869.27 617.599 1868.78 619.629 1867.86C620.482 1866.5 621.3 1865.13 622.102 1863.74C624.584 1860.47 626.617 1858.1 630.342 1856.32C631.734 1854.96 633.104 1853.59 634.462 1852.2C637.841 1849.11 641.311 1846.42 645.174 1843.95C646.058 1843.34 646.942 1842.73 647.852 1842.1C650.118 1840.65 650.118 1840.65 651.766 1840.65C651.819 1840.16 651.871 1839.67 651.924 1839.16C652.875 1836.59 654.253 1836.13 656.659 1834.88C657.477 1834.46 658.295 1834.04 659.138 1833.6C662.072 1832.21 665.052 1831.03 668.086 1829.88C670.074 1829.11 670.074 1829.11 672.316 1827.46C675.323 1825.5 678.336 1824.45 681.718 1823.29C684.029 1822.51 684.029 1822.51 686.685 1821.28C690.295 1819.79 693.964 1818.67 697.706 1817.55C699.291 1817.07 700.872 1816.59 702.444 1816.07C707.232 1814.53 712.071 1813.59 717.018 1812.73C719.976 1812.2 722.723 1811.56 725.517 1810.46C736.71 1806.47 751.344 1808.32 763.019 1808.3C766.213 1808.3 769.408 1808.27 772.602 1808.24C774.656 1808.24 776.709 1808.23 778.763 1808.23C780.178 1808.22 780.178 1808.22 781.622 1808.2C786.726 1808.21 790.998 1808.75 795.834 1810.39C798.151 1811.15 800.397 1811.43 802.821 1811.64C803.724 1811.73 804.626 1811.82 805.557 1811.91C807.406 1812.08 809.256 1812.24 811.106 1812.4C816.32 1812.92 820.582 1813.87 825.373 1815.98C828.362 1817.18 831.371 1817.53 834.546 1817.93C843.656 1819.27 851.191 1821.94 858.597 1827.46C860.768 1828.43 862.929 1829.18 865.189 1829.94C865.189 1830.48 865.189 1831.02 865.189 1831.59C865.696 1831.66 866.202 1831.73 866.724 1831.8C872.248 1832.76 872.248 1832.76 874.047 1835.14C874.387 1835.87 874.727 1836.6 875.077 1837.36C875.706 1837.95 876.335 1838.55 876.983 1839.16C879.51 1841.81 881.16 1844.58 882.964 1847.74C884.983 1851.5 884.983 1851.5 888.455 1853.64C893.364 1854.13 896.688 1853.75 900.622 1850.55C901.041 1850.14 901.459 1849.72 901.89 1849.3C907.375 1843.93 914.206 1841.26 921.117 1838.15C924.138 1836.78 927.069 1835.35 929.888 1833.6C932.108 1832.31 934.231 1831.54 936.673 1830.76C937.544 1830.48 938.415 1830.2 939.313 1829.91C940.141 1829.65 940.97 1829.38 941.823 1829.11C943.06 1828.68 944.296 1828.25 945.532 1827.82C949.08 1826.64 952.676 1825.74 956.312 1824.87C958.131 1824.42 959.943 1823.93 961.744 1823.41C969.864 1821.08 977.997 1819.72 986.357 1818.55C988.596 1818.24 990.834 1817.92 993.071 1817.59C1016.84 1814.17 1049.41 1810.32 1071.68 1821.61C1073.84 1822.59 1076.03 1823.3 1078.29 1824.01C1084.44 1825.93 1089.39 1827.69 1093.5 1832.93C1095.47 1835.34 1097.1 1836.34 1100.04 1837.36C1104.45 1836.36 1108.17 1833.34 1111.32 1830.19C1113.22 1828.29 1113.22 1828.29 1115.69 1827.46C1115.69 1826.92 1115.69 1826.38 1115.69 1825.81C1118.83 1824.03 1121.7 1823.04 1125.22 1822.21C1129.14 1821.18 1131.38 1820.13 1133.82 1816.75C1135.4 1812.72 1136.09 1808.68 1136.76 1804.43C1136.86 1803.79 1136.96 1803.16 1137.07 1802.5C1137.27 1801.24 1137.47 1799.99 1137.66 1798.73C1137.92 1797.11 1138.21 1795.5 1138.5 1793.89C1138.78 1791.06 1138.47 1789.33 1137.58 1786.65C1135.67 1780.83 1136.19 1776.17 1137.79 1770.32C1139.4 1764.08 1140.17 1757.87 1140.83 1751.46C1141.54 1744.57 1142.44 1738.2 1144.64 1731.61C1146.04 1727.2 1146.28 1722.93 1146.44 1718.33C1146.9 1709.18 1148.58 1699.25 1153.6 1691.43C1153.94 1690.86 1154.29 1690.28 1154.64 1689.69C1157.29 1685.7 1159.77 1683.89 1164.24 1682.2C1166.08 1681.56 1166.08 1681.56 1168.02 1680.2C1170.51 1678.83 1172.85 1678.4 1175.63 1677.86C1177.73 1677.42 1177.73 1677.42 1180.48 1676.08C1187.61 1673.17 1194.66 1676.33 1201.39 1679.07C1203.51 1680.3 1205.24 1681.64 1207.16 1683.19C1208.12 1683.55 1208.12 1683.55 1209.1 1683.93C1217.19 1687.31 1224.74 1695.72 1229.36 1703.03C1231.07 1705.46 1232.76 1706.98 1235.02 1708.9C1238.76 1712.16 1241.24 1715.51 1243.75 1719.76C1244.97 1721.78 1246.28 1723.59 1247.74 1725.44C1249.92 1728.27 1251.15 1731 1252.48 1734.3C1253.09 1735.03 1253.09 1735.03 1253.71 1735.77C1255.34 1738.16 1255.64 1740.28 1256.14 1743.11C1256.81 1746.53 1257.46 1749.58 1259.02 1752.7C1261.02 1756.77 1261.86 1761.05 1262.84 1765.45C1263.51 1768.46 1264.21 1771.35 1265.31 1774.24C1266.84 1778.46 1267.34 1782.92 1267.92 1787.36C1268.49 1791.33 1269.59 1794.3 1271.49 1797.81C1272.73 1800.44 1273.09 1803.12 1273.49 1805.98C1274.22 1810.36 1275.17 1814.19 1277.17 1818.17C1278.65 1821.42 1279.54 1824.86 1280.55 1828.28C1281.15 1830.2 1281.78 1831.98 1282.61 1833.8C1283.6 1836.09 1284.31 1838.22 1284.98 1840.6C1285.93 1843.89 1287.16 1846.76 1288.76 1849.77C1289.59 1851.43 1290.23 1853.08 1290.85 1854.82C1291.53 1856.71 1292.18 1858.2 1293.22 1859.93C1294.4 1861.91 1295.18 1863.75 1296 1865.9C1298.57 1872.51 1302.09 1878.48 1306.04 1884.35C1306.37 1885.25 1306.69 1886.15 1307.02 1887.08C1308.26 1889.4 1308.26 1889.4 1310.2 1889.85C1313.72 1890.34 1316.17 1890.46 1319.23 1888.47C1323.41 1883.95 1323.8 1878.71 1323.67 1872.83C1323.4 1866.87 1322.68 1861.34 1320.53 1855.76C1319.03 1851.84 1318.1 1847.84 1317.17 1843.75C1316.81 1842.2 1316.45 1840.66 1316.09 1839.12C1315.84 1838.02 1315.84 1838.02 1315.58 1836.89C1315 1834.45 1314.39 1832.01 1313.77 1829.58C1312.65 1825.2 1311.74 1820.78 1310.86 1816.35C1310.32 1814.12 1309.7 1812.13 1308.93 1809.99C1307.4 1805.53 1306.94 1801.06 1306.45 1796.39C1305.72 1789.95 1304.78 1783.75 1303.3 1777.44C1300.33 1762.78 1300.8 1745.99 1303.4 1731.33C1304.5 1725.12 1304.97 1718.9 1305.29 1712.61C1305.62 1707.76 1306.56 1705.39 1309.34 1701.33C1309.93 1698.73 1310.1 1696.14 1310.27 1693.49C1310.39 1692.01 1310.52 1690.53 1310.64 1689.05C1310.7 1688.33 1310.76 1687.61 1310.82 1686.87C1311.95 1673.27 1314.17 1661.07 1325 1651.86C1329.7 1648.22 1335.14 1644.27 1341.26 1644.08C1345.35 1644.88 1348.75 1647.13 1352.19 1649.39C1352.97 1649.9 1353.75 1650.41 1354.56 1650.93C1362.04 1658.42 1362.16 1667.93 1362.8 1677.98C1363.31 1684.91 1364.25 1691.21 1366.13 1697.9C1367.51 1702.92 1368.29 1708.06 1369.17 1713.18C1369.36 1714.28 1369.36 1714.28 1369.55 1715.4C1369.66 1716.04 1369.77 1716.69 1369.88 1717.35C1370.3 1719.57 1370.3 1719.57 1371.16 1722.11C1372.12 1725.83 1372.31 1729.29 1372.43 1733.11C1372.46 1733.85 1372.49 1734.6 1372.52 1735.36C1372.62 1737.72 1372.7 1740.08 1372.79 1742.44C1372.9 1745.55 1373.02 1748.66 1373.15 1751.76C1373.18 1752.82 1373.18 1752.82 1373.22 1753.89C1373.46 1759.92 1374.27 1765.63 1376.95 1771.09C1379.21 1776.52 1379.28 1782.09 1379.54 1787.89C1379.6 1789.03 1379.66 1790.17 1379.72 1791.32C1379.9 1794.57 1380.05 1797.83 1380.21 1801.08C1380.02 1815.56 1380.02 1815.56 1386.22 1827.92C1389.48 1830.69 1392.3 1831.57 1396.53 1831.64C1402.8 1830.5 1408.09 1826.56 1412.07 1821.72C1414.03 1818.72 1414.68 1815.54 1415.38 1812.06C1415.55 1811.28 1415.71 1810.51 1415.89 1809.71C1417.41 1802.17 1418.18 1794.57 1418.92 1786.92C1419.47 1781.29 1420.22 1775.97 1421.56 1770.47C1422.75 1764.8 1423.48 1759.04 1424.26 1753.29C1425.05 1747.67 1426.13 1742.21 1427.46 1736.7C1428.12 1733.78 1428.47 1730.94 1428.77 1727.97C1429.32 1723.46 1430.31 1719.84 1432.17 1715.72C1433.06 1713.38 1433.42 1711.17 1433.77 1708.69C1434.33 1704.79 1435.33 1701.68 1437.06 1698.15C1437.91 1696.33 1438.53 1694.53 1439.12 1692.62C1440.11 1689.55 1441.37 1686.77 1442.86 1683.92C1443.57 1682.52 1444.19 1681.08 1444.79 1679.63C1445.23 1678.62 1445.68 1677.6 1446.13 1676.59C1446.51 1675.69 1446.51 1675.69 1446.89 1674.77C1450.8 1666.56 1457.35 1660.82 1463.79 1654.59C1465.52 1652.9 1467.25 1651.2 1468.98 1649.51C1470.05 1648.46 1471.12 1647.42 1472.19 1646.38C1475.8 1642.87 1479.11 1639.18 1482.38 1635.37C1492.16 1624.29 1492.16 1624.29 1497.37 1620.73C1498.98 1619.67 1498.98 1619.67 1500.75 1618.04C1503.36 1616.13 1505.57 1615.49 1508.7 1614.71C1511.66 1613.96 1514.2 1613.29 1516.89 1611.81C1522.38 1609.31 1529.26 1609.52 1535.12 1610.64C1539.09 1612.21 1542.08 1615.01 1545.01 1618.06C1545.51 1618.45 1546 1618.84 1546.51 1619.24C1551.26 1623.47 1551.52 1627.94 1551.9 1633.95C1552 1636.09 1552.09 1638.23 1552.17 1640.37C1552.29 1643.18 1552.43 1645.99 1552.59 1648.8C1552.63 1649.48 1552.67 1650.17 1552.71 1650.88C1553.07 1656.29 1554.25 1661.07 1555.79 1666.28C1557.04 1671.08 1557.28 1675.88 1557.53 1680.82C1557.62 1682.4 1557.62 1682.4 1557.71 1684.02C1558.18 1692.49 1558.44 1700.96 1558.7 1709.44C1559.07 1720.98 1560.26 1732.17 1562.55 1743.47C1562.96 1745.71 1563.3 1747.87 1563.55 1750.12C1563.61 1750.68 1563.67 1751.25 1563.74 1751.82C1563.9 1753.37 1564.05 1754.92 1564.19 1756.47C1564.89 1759.48 1565.58 1760.56 1568.08 1762.33C1578.06 1764.6 1593.02 1760.5 1601.87 1755.74C1603.14 1753.99 1603.14 1753.99 1603.72 1751.98C1604.94 1748.47 1604.94 1748.47 1607.64 1746.67C1608.6 1745.07 1608.6 1745.07 1609.38 1743.2C1609.7 1742.51 1610.01 1741.82 1610.33 1741.12C1610.97 1739.67 1611.61 1738.23 1612.25 1736.78C1613.91 1733.11 1615.34 1730.46 1618.35 1727.71C1619.16 1726 1619.16 1726 1619.64 1724.26C1620.15 1722.52 1620.15 1722.52 1620.82 1721.11C1621.64 1720.84 1622.45 1720.57 1623.29 1720.29C1623.86 1718.64 1624.4 1716.99 1624.94 1715.34C1626.12 1713.48 1627.3 1711.71 1628.6 1709.93C1630.8 1706.85 1632.92 1703.77 1634.83 1700.5C1637.3 1696.7 1639.91 1693 1642.52 1689.29C1643.61 1687.72 1644.66 1686.14 1645.7 1684.53C1647.19 1682.36 1647.19 1682.36 1648.67 1680.91C1650.85 1678.7 1652.73 1676.32 1654.61 1673.86C1654.96 1673.41 1655.31 1672.97 1655.67 1672.5C1657.46 1670.17 1659.07 1667.83 1660.5 1665.26C1662.09 1662.46 1663.79 1660.63 1666.14 1658.46C1667.03 1657.51 1667.03 1657.51 1667.94 1656.55C1669.44 1655.16 1669.44 1655.16 1671.09 1655.16C1671.27 1654.56 1671.46 1653.97 1671.65 1653.35C1673.79 1648.77 1677.98 1645.97 1681.8 1642.79C1683.9 1640.73 1685.95 1638.64 1687.99 1636.51C1698.16 1626.02 1709.07 1618.91 1723.38 1615.55C1726.36 1614.82 1726.36 1614.82 1729.28 1613.47C1731.83 1612.39 1733.67 1611.98 1736.39 1611.72C1742.27 1610.78 1747.49 1607.24 1751.33 1602.7C1753.42 1600.93 1755.7 1600.61 1758.33 1599.97C1759.45 1599.69 1760.57 1599.41 1761.7 1599.13C1762.26 1598.98 1762.82 1598.84 1763.4 1598.7C1765.75 1598.08 1768.06 1597.36 1770.38 1596.62C1775.31 1595.07 1780.28 1593.74 1785.29 1592.44C1788.05 1591.73 1788.05 1591.73 1790.47 1590.81C1799.91 1587.95 1810.86 1588.64 1820.63 1588.34C1822.8 1588.26 1824.98 1588.17 1827.15 1588.06C1830.3 1587.91 1833.45 1587.81 1836.61 1587.73C1837.57 1587.67 1838.53 1587.61 1839.52 1587.55C1843.72 1587.48 1846.38 1587.62 1849.85 1590.14C1854.71 1594.92 1858.56 1600.02 1861.08 1606.36C1862.33 1609.15 1863.17 1609.74 1865.56 1611.46C1866.41 1613.1 1867.23 1614.75 1868.03 1616.41C1870.01 1619.65 1871.98 1622.84 1874.67 1625.53C1879.04 1629.9 1881.49 1635.84 1884.07 1641.36C1885.83 1644.61 1885.83 1644.61 1888.63 1646.91C1891.74 1647.24 1894.78 1647.03 1897.9 1646.81C1898.73 1646.77 1899.57 1646.73 1900.43 1646.69C1909.13 1646.42 1909.13 1646.42 1916.42 1642.28C1917.11 1641.4 1917.79 1640.5 1918.45 1639.6C1921.66 1635.51 1925.01 1631.85 1928.85 1628.36C1929.5 1627.77 1929.5 1627.77 1930.17 1627.17C1934.5 1623.27 1938.57 1619.82 1943.84 1617.23C1945.34 1616.22 1946.79 1615.16 1948.25 1614.09C1951.65 1611.63 1955.23 1609.91 1959.07 1608.25C1961.25 1607.29 1963.41 1606.29 1965.57 1605.28C1969.33 1603.56 1973.14 1602.09 1977.04 1600.74C1978.73 1600.12 1980.39 1599.42 1982.03 1598.69C1985.09 1597.43 1988.11 1596.59 1991.32 1595.85C2000.25 1593.75 2000.25 1593.75 2008.94 1590.85C2010.26 1588.2 2010.16 1585.48 2009.76 1582.61C2009.05 1581.08 2009.05 1581.08 2008.11 1579.67C2006.17 1576.33 2005.87 1574.87 2006.46 1571.07C2007.64 1568.46 2009.08 1566.07 2010.58 1563.65C2012.48 1560.45 2014.19 1557.26 2015.6 1553.82C2016.59 1551.56 2017.71 1549.36 2018.82 1547.16C2020.13 1544.56 2021.39 1542 2022.53 1539.33C2023.68 1536.64 2024.91 1534.02 2026.19 1531.39C2026.59 1530.57 2026.99 1529.75 2027.4 1528.91C2028.73 1526.51 2030.26 1524.53 2032.01 1522.42C2032.84 1521.05 2033.66 1519.68 2034.48 1518.3C2035.03 1517.76 2035.57 1517.21 2036.13 1516.65C2036.46 1515.63 2036.46 1515.63 2036.8 1514.59C2038.07 1511.92 2039.23 1511.95 2041.9 1510.88C2042.14 1510.27 2042.39 1509.65 2042.64 1509.01C2043.68 1506.42 2044.99 1504.93 2046.89 1502.9C2047.56 1502.18 2048.23 1501.46 2048.91 1500.72C2049.93 1499.63 2049.93 1499.63 2050.96 1498.52C2052.15 1497.16 2053.33 1495.8 2054.52 1494.45C2060.82 1487.45 2067.62 1481.17 2075.68 1476.26C2076.5 1475.71 2077.31 1475.17 2078.15 1474.61C2079.24 1474.33 2080.35 1474.09 2081.45 1473.89C2083.65 1473.36 2084.64 1473.05 2086.39 1471.57C2087.58 1468.82 2087.58 1466.86 2087.22 1463.89C2086.68 1463.21 2086.13 1462.53 2085.57 1461.83C2083.92 1459.77 2083.92 1459.77 2083.56 1457.04C2084.45 1449.58 2088.03 1445.02 2092.56 1439.32C2097.23 1433.48 2097.23 1433.48 2100.4 1426.79C2101.78 1425.42 2103.15 1424.04 2104.52 1422.67C2105.09 1421.58 2105.64 1420.48 2106.17 1419.37C2107.27 1418.27 2108.37 1417.17 2109.47 1416.07C2110.58 1414.43 2111.68 1412.79 2112.76 1411.13C2113.31 1410.58 2113.85 1410.04 2114.41 1409.48C2114.63 1408.85 2114.85 1408.22 2115.08 1407.57C2116.31 1404.78 2117.95 1403.31 2120.18 1401.23C2123.74 1398 2123.74 1398 2125.95 1393.81C2126.54 1393.49 2127.14 1393.17 2127.75 1392.84C2129.98 1391.39 2130.84 1390.46 2132.33 1388.35C2135.27 1384.23 2138.8 1380.84 2142.43 1377.33C2143.09 1376.65 2143.75 1375.97 2144.44 1375.26C2146.47 1373.28 2148.58 1371.42 2150.72 1369.54C2153.76 1366.84 2155.86 1364.25 2158.09 1360.84C2159.7 1359.33 2161.37 1357.92 2163.06 1356.5C2164.55 1355.18 2165.73 1353.85 2166.94 1352.28C2168.93 1349.97 2169.36 1349.96 2172.09 1349.29C2172.33 1348.67 2172.57 1348.04 2172.81 1347.39C2174.08 1344.36 2175.92 1343.54 2178.69 1341.88C2179.43 1341.29 2179.43 1341.29 2180.18 1340.7C2186.5 1336.15 2194.25 1333.7 2201.76 1331.98C2202.23 1329.67 2202.61 1327.72 2202.58 1325.39C2201.21 1323.24 2201.21 1323.24 2199.29 1321.26C2198.37 1319.61 2197.56 1317.92 2196.76 1316.21C2195.93 1314.46 2195.93 1314.46 2194.34 1312.2C2193.47 1304.4 2194.67 1297.46 2196.75 1289.99C2197.69 1286.57 2198.32 1283.12 2198.93 1279.63C2199.6 1275.79 2200.44 1272.28 2201.97 1268.69C2202.86 1266.02 2203.29 1263.28 2203.77 1260.51C2204.82 1254.48 2206.44 1248.77 2208.35 1242.94C2208.78 1241.45 2209.21 1239.96 2209.64 1238.46C2210.56 1235.36 2211.85 1232.65 2213.29 1229.75C2213.57 1228.64 2213.83 1227.52 2214.07 1226.4C2214.8 1223.22 2216.12 1221.56 2218.24 1219.04C2219.02 1217.51 2219.8 1215.98 2220.56 1214.45C2222.29 1211.25 2223.69 1208.78 2227.14 1207.19C2230.44 1206.24 2233.8 1205.77 2237.2 1205.35C2239.19 1205.08 2241.03 1204.73 2242.96 1204.2C2243.9 1199.39 2243.9 1199.39 2242.96 1194.71C2242.42 1194.03 2241.87 1193.35 2241.31 1192.65C2240.89 1192.07 2240.47 1191.48 2240.03 1190.87C2237.8 1187.83 2235.99 1185.53 2232.81 1183.43C2230 1181.53 2229.66 1180.27 2228.95 1176.99C2228.1 1172.13 2228.01 1167.41 2228.02 1162.49C2228.02 1161.65 2228.02 1160.82 2228.02 1159.95C2228.01 1158.19 2228.02 1156.42 2228.02 1154.65C2228.02 1151.98 2228.02 1149.32 2228.01 1146.66C2228 1120.15 2228 1120.15 2231.45 1107.84C2232.39 1104.16 2232.74 1100.48 2233.07 1096.71C2233.52 1091.78 2234.29 1087.74 2236.44 1083.23C2237.29 1081.1 2237.45 1079.25 2237.66 1076.98C2238.64 1070.66 2243.33 1065.79 2247.9 1061.57C2250.31 1059.82 2252.33 1058.46 2255.11 1057.45C2257.04 1056.77 2257.04 1056.77 2258.05 1055.18C2258.76 1052.85 2258.73 1050.8 2258.62 1048.38C2258.16 1048.17 2257.7 1047.97 2257.23 1047.76C2252.81 1045.37 2247.87 1041.69 2246.26 1036.84C2245.71 1036.84 2245.17 1036.84 2244.61 1036.84C2244.33 1036.15 2244.05 1035.47 2243.76 1034.76C2243.4 1033.86 2243.03 1032.97 2242.65 1032.04C2242.29 1031.15 2241.92 1030.27 2241.55 1029.35C2240.53 1026.85 2240.53 1026.85 2238.84 1024.47C2238.45 1022.51 2238.45 1022.51 2238.2 1020.16C2238.05 1018.83 2238.05 1018.83 2237.9 1017.48C2237.75 1016.01 2237.75 1016.01 2237.6 1014.53C2237.45 1012.98 2237.45 1012.98 2237.29 1011.4C2235.33 991.248 2234.56 971.235 2234.51 950.993C2234.51 950.071 2234.5 949.15 2234.5 948.2C2234.41 922.751 2234.41 922.751 2238.12 911.729C2240.04 906.008 2240.78 900.025 2238.84 894.21C2238.33 893.972 2237.82 893.734 2237.29 893.489C2234.91 892.227 2234.36 890.807 2233.07 888.439C2232.41 887.353 2231.74 886.271 2231.06 885.193C2230.53 884.339 2230.53 884.339 2229.99 883.467C2229.11 882.088 2228.16 880.749 2227.2 879.422C2225.63 876.856 2224.78 874.563 2223.91 871.706C2223.12 869.293 2222.18 866.97 2221.23 864.618C2218.96 858.75 2217.45 852.833 2216.08 846.703C2215.83 845.616 2215.58 844.529 2215.33 843.442C2213.79 836.681 2212.47 829.912 2211.55 823.038C2211.23 820.678 2210.91 818.564 2209.99 816.356C2208.14 811.543 2208.31 806.311 2208.29 801.22C2208.28 800.225 2208.28 799.23 2208.27 798.205C2208.25 796.141 2208.26 794.078 2208.29 792.015C2208.34 786.706 2208.34 786.706 2206.31 781.972C2203.94 779.883 2201.52 778.627 2198.62 777.451C2195.99 776.317 2195.99 776.317 2194.34 773.019C2190.81 773.019 2187.27 773.019 2183.63 773.019C2183.36 774.38 2183.09 775.74 2182.81 777.141C2181.74 778.545 2180.64 779.914 2179.51 781.264C2177.7 784.001 2176.01 786.818 2174.33 789.633C2172.44 792.739 2170.6 795.214 2167.97 797.752C2166.45 799.911 2165.03 802.107 2163.67 804.367C2161.76 807.507 2159.91 810.025 2157.26 812.592C2156.48 813.767 2155.7 814.943 2154.93 816.123C2153.21 818.644 2151.32 821.021 2149.43 823.412C2149.04 823.913 2148.65 824.414 2148.25 824.929C2146.58 827.05 2144.95 829.034 2143.02 830.929C2141.41 832.368 2141.41 832.368 2140.78 834.851C2139.35 835.97 2137.91 837.078 2136.43 838.143C2133.52 840.293 2130.69 842.538 2127.85 844.796C2127.33 845.214 2126.8 845.631 2126.25 846.061C2122.43 849.113 2119 852.356 2115.75 856.029C2113.21 858.269 2111.05 858.715 2107.82 859.584C2107.55 860.4 2107.28 861.217 2107 862.058C2105.65 863.265 2105.65 863.265 2103.96 864.479C2103.37 864.905 2102.77 865.332 2102.16 865.771C2101.29 866.381 2101.29 866.381 2100.4 867.004C2099.92 867.352 2099.43 867.699 2098.93 868.057C2095.69 870.302 2095.69 870.302 2093.81 870.302C2093.62 870.8 2093.42 871.299 2093.22 871.812C2091.91 874.026 2090.72 874.623 2088.46 875.815C2085.35 877.589 2082.81 879.436 2080.21 881.895C2074.84 886.91 2068.84 891.018 2062.85 895.258C2058.87 898.091 2054.93 900.973 2050.97 903.845C2047.72 906.202 2044.43 908.494 2041.07 910.699C2040.53 910.427 2039.99 910.155 2039.43 909.874C2043.69 906.105 2048.13 902.716 2052.76 899.414C2054.06 898.484 2055.36 897.553 2056.66 896.622C2057.23 896.218 2057.8 895.813 2058.38 895.396C2059.53 894.565 2060.67 893.704 2061.78 892.823C2063.32 891.737 2063.32 891.737 2064.97 891.737C2064.92 891.124 2064.88 890.511 2064.83 889.879C2064.99 887.241 2065.58 886.417 2067.18 884.369C2077.07 869.973 2075.33 851.361 2072.39 834.851C2071.99 833.135 2071.6 831.42 2071.2 829.705C2069.68 822.723 2068.97 815.705 2068.32 808.596C2068.11 806.379 2067.89 804.165 2067.67 801.95C2066.26 787.414 2066.3 773.002 2067.29 758.437C2067.35 757.405 2067.4 756.372 2067.46 755.308C2067.99 747.306 2069.71 740.52 2072.8 733.137C2073.13 732.332 2073.46 731.526 2073.8 730.696C2074.8 728.62 2075.94 727.025 2077.33 725.202C2077.92 724 2078.47 722.779 2078.98 721.544C2085.12 706.813 2102.14 686.622 2116.79 679.978C2117.87 679.582 2118.95 679.208 2120.04 678.854C2122.11 678.11 2123.95 677.108 2125.9 676.097C2133.15 672.767 2141.26 672.684 2149.12 672.152C2158.07 671.49 2165.64 670.571 2172.79 664.565C2182.81 657.814 2197.66 659.548 2208.35 663.37ZM1832.9 1641.71C1829.04 1643.75 1825.2 1645.5 1821.11 1647.03C1819.21 1647.76 1819.21 1647.76 1816.94 1649.39C1813.11 1650.46 1809.14 1650.47 1805.2 1650.62C1804.4 1650.66 1803.61 1650.69 1802.79 1650.72C1797.03 1650.95 1791.27 1651.11 1785.51 1651.24C1784.4 1651.27 1784.4 1651.27 1783.27 1651.29C1779.57 1651.38 1775.86 1651.46 1772.15 1651.54C1758.38 1650.87 1758.38 1650.87 1745.92 1654.49C1744.38 1656.78 1744.38 1656.78 1743.19 1659.28C1741.8 1662.06 1740.05 1663.72 1737.83 1665.88C1737.56 1666.69 1737.29 1667.51 1737.01 1668.35C1736.46 1668.6 1735.92 1668.86 1735.36 1669.12C1734.82 1669.41 1734.27 1669.7 1733.71 1670C1733.59 1670.54 1733.47 1671.09 1733.35 1671.65C1733.2 1672.19 1733.05 1672.73 1732.89 1673.3C1731.52 1673.86 1730.15 1674.41 1728.77 1674.94C1728.19 1676.03 1727.64 1677.13 1727.12 1678.24C1726.5 1678.73 1725.88 1679.22 1725.24 1679.72C1722.88 1681.64 1721.14 1683.64 1719.24 1686.02C1718.63 1686.79 1718.01 1687.55 1717.38 1688.34C1716.79 1689.09 1716.2 1689.84 1715.58 1690.61C1714.98 1691.33 1714.38 1692.05 1713.76 1692.79C1712.13 1694.72 1712.13 1694.72 1711.41 1697.41C1711.16 1698.16 1710.9 1698.91 1710.64 1699.68C1709.42 1700.09 1709.42 1700.09 1708.17 1700.5C1706.29 1703.61 1706.29 1703.61 1705.7 1707.1C1704.47 1707.5 1704.47 1707.5 1703.22 1707.92C1702.84 1711.25 1702.98 1712.53 1704.97 1715.29C1707.17 1717.18 1707.17 1717.18 1709.66 1717.14C1713.22 1715.82 1716.14 1713.85 1718.88 1711.22C1719.29 1709.99 1719.29 1709.99 1719.7 1708.75C1721.35 1708.2 1723 1707.65 1724.65 1707.1C1725.16 1706.57 1725.67 1706.04 1726.19 1705.5C1728.29 1703.47 1730.14 1702.86 1732.89 1701.99C1734.6 1701.4 1734.6 1701.4 1735.94 1700.12C1738.4 1698.47 1740.47 1698.21 1743.39 1697.77C1743.92 1697.68 1744.45 1697.6 1745 1697.51C1746.7 1697.25 1748.39 1696.99 1750.09 1696.74C1751.78 1696.48 1753.47 1696.22 1755.16 1695.96C1756.7 1695.72 1758.24 1695.49 1759.77 1695.26C1762.46 1694.75 1764.91 1693.95 1767.5 1693.08C1769.82 1692.91 1772.03 1692.81 1774.35 1692.82C1775.29 1692.83 1775.29 1692.83 1776.25 1692.83C1779.48 1692.88 1782.19 1693.07 1785.21 1694.32C1788.82 1695.8 1792.29 1695.86 1796.13 1695.92C1796.74 1695.93 1797.34 1695.95 1797.97 1695.97C1802.1 1695.96 1804.09 1695.1 1807.05 1692.26C1807.65 1691.99 1808.24 1691.71 1808.85 1691.43C1810.47 1690.73 1810.47 1690.73 1811.03 1689.1C1812.25 1686.83 1813.71 1685.74 1815.75 1684.17C1816.49 1683.6 1817.22 1683.02 1817.98 1682.43C1818.73 1681.87 1819.47 1681.3 1820.23 1680.72C1825.2 1676.98 1825.2 1676.98 1829.76 1672.78C1831.89 1670.71 1834.02 1669.32 1836.55 1667.79C1838.54 1666.59 1840.49 1665.35 1842.43 1664.07C1843.36 1663.47 1843.36 1663.47 1844.31 1662.85C1845.89 1661.84 1845.89 1661.84 1846.6 1660.1C1847.09 1654.08 1846.95 1648.25 1844.13 1642.79C1840.36 1638.9 1837.44 1639.24 1832.9 1641.71ZM1498.86 1680.72C1496.01 1684.96 1494.82 1688.81 1493.87 1693.8C1492.23 1701.79 1492.23 1701.79 1490.98 1705.19C1489.45 1709.37 1488.79 1713.74 1488.02 1718.1C1487.3 1721.25 1486.15 1723.93 1484.86 1726.88C1484.41 1728.52 1483.99 1730.17 1483.62 1731.83C1482.96 1734.6 1482.31 1736.95 1481.15 1739.56C1479.57 1743.38 1478.89 1747.23 1478.14 1751.28C1477.42 1754.17 1476.3 1756.4 1474.97 1759.04C1474.35 1761.1 1473.79 1763.18 1473.27 1765.27C1471.82 1771.05 1471.82 1771.05 1470.79 1773.51C1469.85 1775.99 1469.62 1778.24 1469.41 1780.88C1469.33 1781.79 1469.24 1782.7 1469.16 1783.64C1469.2 1786.48 1469.58 1789.1 1471.67 1791.19C1479.77 1791.83 1486.89 1791.49 1494.53 1788.7C1499.15 1787.08 1503.64 1786.48 1508.5 1785.93C1519.56 1784.59 1527.75 1779.85 1535.95 1772.23C1536.92 1770.27 1536.91 1769.04 1536.92 1766.87C1536.94 1766.21 1536.95 1765.56 1536.96 1764.88C1536.74 1761.95 1536.16 1759.18 1535.56 1756.31C1534.71 1751.99 1534.18 1747.62 1533.59 1743.25C1533.01 1738.99 1532.27 1734.79 1531.4 1730.57C1530.87 1727.86 1530.51 1725.14 1530.15 1722.41C1529.14 1714.69 1529.14 1714.69 1526.78 1707.3C1525.03 1703.12 1524.88 1699.08 1524.7 1694.61C1524.45 1689.03 1523.79 1683.91 1520.29 1679.43C1514.73 1675.43 1503.95 1676.01 1498.86 1680.72ZM1179.14 1754.09C1176.39 1759.83 1176.41 1766.7 1175.95 1772.95C1175.38 1780.54 1173.88 1786.63 1170.9 1793.66C1170.62 1794.53 1170.34 1795.4 1170.05 1796.29C1169.25 1798.61 1169.25 1798.61 1167.61 1801.08C1167.23 1803.3 1166.98 1805.44 1166.78 1807.68C1166.69 1808.61 1166.6 1809.54 1166.51 1810.5C1166.27 1813.25 1166.07 1815.98 1165.92 1818.73C1165.84 1819.88 1165.75 1821.03 1165.64 1822.18C1164.9 1829.17 1164.9 1829.17 1167.6 1835.39C1169.72 1837.12 1171.81 1838.5 1174.2 1839.83C1175.02 1840.31 1175.02 1840.31 1175.86 1840.8C1177.22 1841.58 1178.6 1842.35 1179.97 1843.13C1181.66 1844.56 1183.27 1845.97 1184.86 1847.51C1187.56 1850.05 1190.26 1852.58 1193.1 1854.98C1196.18 1857.65 1199.07 1860.5 1201.96 1863.38C1202.41 1863.82 1202.86 1864.27 1203.32 1864.73C1205.41 1866.83 1207.41 1868.94 1209.29 1871.23C1211.21 1873.55 1213.27 1875.63 1215.4 1877.75C1219.12 1882.03 1222.6 1886.43 1225.75 1891.15C1228.86 1895.65 1232.24 1899.98 1237.65 1901.56C1241.53 1900.43 1244.27 1898.28 1246.71 1895.07C1247.04 1892.2 1247.04 1892.2 1245.89 1889.3C1245.63 1888.4 1245.63 1888.4 1245.37 1887.49C1244.31 1883.91 1242.92 1880.85 1240.97 1877.65C1239.61 1875.18 1238.66 1872.57 1237.64 1869.94C1236.03 1865.84 1234.19 1861.84 1232.31 1857.85C1230.13 1853.23 1228.15 1848.7 1226.64 1843.82C1226.13 1842.17 1226.13 1842.17 1224.88 1840.35C1223.28 1837.55 1222.67 1834.72 1221.94 1831.6C1221.29 1829.5 1220.56 1827.89 1219.55 1825.98C1217.75 1822.49 1216.91 1819.08 1216.17 1815.25C1215.35 1811.19 1214.46 1807.19 1213.34 1803.2C1212.13 1798.87 1211.29 1794.54 1210.56 1790.11C1210.42 1789.32 1210.29 1788.53 1210.15 1787.72C1209.41 1783.39 1208.71 1779.07 1208.06 1774.73C1207.71 1772.48 1207.36 1770.22 1207 1767.97C1206.83 1766.86 1206.67 1765.76 1206.51 1764.65C1206.28 1763.09 1206.04 1761.54 1205.79 1759.98C1205.66 1759.08 1205.53 1758.18 1205.39 1757.26C1204.56 1754.5 1203.65 1753.37 1201.39 1751.62C1197.99 1750.36 1194.32 1750.58 1190.73 1750.53C1190.07 1750.51 1189.41 1750.49 1188.74 1750.46C1184.51 1750.42 1182.1 1750.77 1179.14 1754.09Z" fill="#580059"/>
</svg>