<svg width="96" height="96" viewBox="0 0 96 96" fill="none" xmlns="http://www.w3.org/2000/svg">
<path d="M43.9999 2.30935C46.4751 0.880283 49.5247 0.880284 51.9999 2.30935L85.5691 21.6905C88.0443 23.1196 89.5691 25.7606 89.5691 28.6187V67.3811C89.5691 70.2393 88.0443 72.8803 85.5691 74.3093L51.9999 93.6905C49.5247 95.1196 46.4751 95.1196 43.9999 93.6905L10.4307 74.3093C7.95545 72.8803 6.43066 70.2393 6.43066 67.3811V28.6187C6.43066 25.7606 7.95546 23.1196 10.4307 21.6905L43.9999 2.30935Z" fill="white"/>
<path fill-rule="evenodd" clip-rule="evenodd" d="M84.1907 22.9024L51.5701 4.06896C49.3322 2.77689 46.575 2.77689 44.337 4.06896L11.7165 22.9024C9.47853 24.1945 8.09991 26.5824 8.09991 29.1665V66.8335C8.09991 69.4176 9.47853 71.8055 11.7165 73.0975L44.337 91.931C46.575 93.2231 49.3322 93.2231 51.5701 91.931L84.1907 73.0975C86.4286 71.8055 87.8072 69.4176 87.8072 66.8335V29.1665C87.8072 26.5824 86.4286 24.1945 84.1907 22.9024ZM53.1201 1.38436C49.923 -0.461454 45.9841 -0.461455 42.7871 1.38436L10.1665 20.2178C6.96946 22.0637 5 25.4749 5 29.1665V66.8335C5 70.5251 6.96946 73.9363 10.1665 75.7821L42.7871 94.6156C45.9841 96.4614 49.923 96.4614 53.1201 94.6156L85.7406 75.7821C88.9377 73.9363 90.9071 70.5251 90.9071 66.8335V29.1665C90.9071 25.4749 88.9377 22.0637 85.7406 20.2178L53.1201 1.38436Z" fill="#A0301C"/>
<path d="M71.2374 26.2011C70.4176 26.0128 68.3827 25.5543 66.1321 25.1078V25.1058L65.4459 24.9734L64.3706 24.7658V24.7718C61.5769 24.2608 59.5373 24 58.3064 24C54.9836 24 52.5142 26.2862 50.7106 27.9556C50.4081 28.2364 50.1268 28.4973 49.865 28.7235C49.1531 29.3376 48.2607 29.8267 47.2268 30.3909C45.9124 31.1102 44.4221 31.9253 42.9186 33.2234C41.9745 34.0385 40.6523 35.8902 39.2808 38.1551C31.0012 40.3542 26.0435 42.7901 24.522 45.4184L24 46.3213L25.1659 46.4896C25.2754 46.5049 26.5757 46.6866 28.2145 46.6866C29.979 46.6866 32.1359 46.4763 33.6207 45.6206C34.1575 45.3119 34.8265 45.1575 35.5868 45.067C34.3685 47.6553 33.4268 50.0713 33.126 51.6276C32.6055 54.3244 32.6907 57.0131 32.8533 58.7943C32.9369 59.7046 32.6454 60.5589 32.0351 61.1997C31.2411 62.0327 30.7714 63.0075 30.6136 63.3708L25.1566 68.9087C24.8627 69.1682 24.7869 69.5654 24.9823 69.8941C25.0315 69.9766 25.0933 70.0498 25.1652 70.1123C25.2418 70.2101 25.3441 70.2966 25.4707 70.3645C25.6583 70.465 25.9709 70.5149 26.3772 70.5149C28.5919 70.5142 33.5456 69.0497 35.6439 66.4475C35.9229 66.4149 36.7801 66.5992 37.8148 67.0856C38.4861 67.6065 39.1839 67.9519 39.9005 68.1222L39.0034 72H44.4284V70.5003H41.1454L41.6917 68.1448C42.5419 67.9466 43.9642 67.369 45.17 65.679C45.3489 66.0343 45.6396 66.3936 46.139 66.5925V70.5003H51.3748V69.0005H47.9012V66.3929C48.8741 65.6264 50.7442 63.2131 54.5593 55.6072C57.2171 50.3102 60.0569 43.7563 60.0569 41.2505C60.0569 38.4665 60.7579 35.3765 61.8856 33.1861C62.5264 31.9392 63.261 31.0536 64.0112 30.6218C64.4222 30.3843 64.9481 30.1254 65.5655 29.854C68.41 29.307 70.663 28.2338 71.5078 27.7926C71.8579 27.6103 72.047 27.269 71.9899 26.923C71.9298 26.5777 71.6367 26.2942 71.2374 26.2011ZM46.8626 65.2105C46.8001 65.1526 46.7407 65.0136 46.629 64.6729C46.5571 64.454 46.475 64.2052 46.343 63.9703L47.2166 60.9515L45.5068 60.5922L44.6487 63.5584C44.4588 63.6629 44.3041 63.8133 44.2095 63.9962C42.9639 66.4255 41.3181 66.7116 40.9993 66.7449C40.9688 66.7482 40.9469 66.7502 40.9414 66.7502C40.7117 66.7502 40.478 66.707 40.2428 66.6384C39.9052 66.54 39.5629 66.3789 39.2175 66.1407V55.5001C39.2175 55.3757 39.2222 55.2459 39.23 55.1108C39.2332 55.0516 39.2402 54.9884 39.2457 54.9272C39.2519 54.8493 39.2574 54.7728 39.266 54.6917C39.2746 54.6118 39.2863 54.5273 39.298 54.4441C39.3066 54.3776 39.3136 54.3137 39.3246 54.2459C39.3387 54.1494 39.3566 54.0496 39.3738 53.9504C39.384 53.8919 39.3926 53.8347 39.4035 53.7754C39.4238 53.665 39.4473 53.5505 39.4707 53.4361C39.4817 53.3842 39.491 53.3343 39.502 53.2824C39.5285 53.16 39.5567 53.0342 39.5864 52.9078C39.5973 52.8605 39.6075 52.814 39.6184 52.7667C39.6505 52.6323 39.6848 52.4953 39.72 52.3575C39.7309 52.3163 39.7403 52.2757 39.7513 52.2344C39.7888 52.09 39.8286 51.943 39.8693 51.7953C39.8794 51.7574 39.8896 51.7208 39.9005 51.6828C39.9427 51.5325 39.9865 51.3801 40.0318 51.2264C40.0428 51.1885 40.0537 51.1505 40.0654 51.1119C40.1115 50.9569 40.1592 50.8012 40.2076 50.6435C40.2194 50.6049 40.2311 50.5657 40.2436 50.5271C40.2928 50.3701 40.3436 50.211 40.3952 50.0513C40.4085 50.0101 40.4218 49.9688 40.4358 49.9276C40.4866 49.7706 40.539 49.6115 40.5929 49.4525C40.6085 49.4059 40.6242 49.3594 40.6398 49.3128C40.6914 49.1597 40.7445 49.006 40.7977 48.8517C40.8172 48.7945 40.8375 48.7372 40.8578 48.68C40.9086 48.5356 40.9594 48.3906 41.0118 48.2455C41.0368 48.175 41.0626 48.1045 41.0884 48.0339C41.1353 47.9042 41.1821 47.7744 41.2306 47.644C41.2658 47.5482 41.3009 47.4531 41.3369 47.3573C41.3759 47.2515 41.4158 47.1463 41.4549 47.0405C41.5025 46.9154 41.5494 46.7904 41.5971 46.6653C41.6268 46.5881 41.6557 46.5116 41.6854 46.4344C41.7518 46.2627 41.8183 46.091 41.8855 45.92C41.8956 45.8934 41.9058 45.8668 41.9167 45.8409C42.1199 45.3239 42.3262 44.8109 42.5325 44.3052C43.3062 44.0916 44.0908 43.8002 44.873 43.3943L45.6256 43.0044L44.7097 41.7229L44.5745 41.7927L43.9579 42.1128C43.7477 42.2212 43.5375 42.3184 43.3265 42.4089C43.3257 42.4095 43.3249 42.4095 43.3241 42.4095C42.9553 42.5686 42.5857 42.7016 42.2168 42.8128H42.216C41.8659 42.9179 41.5174 43.0031 41.1696 43.0736C41.1689 43.0736 41.1681 43.0742 41.1681 43.0742C40.1889 43.2725 39.2238 43.351 38.304 43.3996C38.0336 43.4136 37.7663 43.4262 37.5038 43.4375C37.4436 43.4402 37.3834 43.4435 37.3225 43.4462C36.995 43.4602 36.6715 43.4768 36.3527 43.4968C34.9882 43.5833 33.7129 43.7622 32.6344 44.383C31.2106 45.2028 28.6302 45.2553 26.8633 45.1489C28.2121 43.8434 31.2817 42.0163 38.1852 40.0415C38.5587 39.9344 38.9409 39.8272 39.3379 39.7194C39.7153 39.617 40.1053 39.5138 40.5038 39.4107C41.3033 39.2038 42.1457 38.9962 43.0342 38.7872C43.0358 38.7866 43.0366 38.7866 43.0373 38.7866C43.382 38.7061 43.7336 38.6242 44.0923 38.5431C44.4377 38.4652 44.7894 38.3867 45.1473 38.3088C45.1481 38.3082 45.1489 38.3082 45.1504 38.3082L45.1465 38.3328C45.1528 38.3235 45.159 38.3128 45.1661 38.3049C45.2778 38.2802 45.3872 38.2556 45.5005 38.231L45.6131 38.207C45.6732 38.2317 45.7334 38.2736 45.7819 38.3481L46.6618 39.7208C46.8681 40.1619 47.3299 40.464 47.8879 40.5152C48.0356 40.5285 48.181 40.5239 48.3208 40.5026C48.7397 40.438 49.107 40.2238 49.3336 39.8971C49.3516 39.8705 51.1881 37.2602 53.5926 35.8756C54.8844 35.131 55.4557 34.0771 55.9152 33.2301C56.5638 32.033 56.91 31.5041 58.308 31.5041C59.288 31.5041 59.5076 31.8141 59.9983 32.7117C60.0351 32.7783 60.0726 32.8455 60.1101 32.9127C58.9691 35.2794 58.2947 38.3654 58.2947 41.2544C58.2932 45.598 48.864 63.4373 46.8626 65.2105ZM34.2224 65.5592C32.6829 67.5174 29.3226 68.5567 27.4611 68.904L32.1734 64.1213L32.2257 63.9849C32.2296 63.9749 32.6352 62.9503 33.4026 62.1452C34.299 61.2043 34.728 59.9734 34.6092 58.6792C34.4529 56.9799 34.3716 54.4202 34.8632 51.8711C35.1867 50.1977 36.2284 47.6181 37.5319 44.9333C37.5522 44.932 37.5718 44.9313 37.5913 44.9306C38.4814 44.892 39.4645 44.8481 40.4976 44.7091C40.4976 44.7091 40.4976 44.7091 40.4976 44.7084C40.4812 44.7497 40.4655 44.7902 40.4491 44.8308C40.3827 44.9978 40.3163 45.1655 40.2506 45.3325C40.2303 45.3858 40.2092 45.439 40.1881 45.4922C38.9237 48.7332 37.8351 52.0248 37.5366 54.359C37.5319 54.3976 37.528 54.4342 37.5233 54.4714C37.5069 54.6145 37.4928 54.7522 37.4827 54.8873C37.4795 54.9319 37.4756 54.9771 37.4725 55.021C37.4623 55.186 37.4545 55.3464 37.4545 55.4981V65.2804C36.2706 64.8852 34.9023 64.6942 34.2224 65.5592ZM61.0783 31.2393C61.0752 31.2353 61.0713 31.2313 61.0682 31.2273C61.0127 31.1548 60.9541 31.0836 60.8915 31.0137C60.8775 30.9984 60.8626 30.9838 60.8486 30.9685C60.7962 30.9126 60.7415 30.858 60.6837 30.8048C60.6634 30.7861 60.643 30.7675 60.6219 30.7495C60.5461 30.6837 60.468 30.6198 60.3812 30.5606C60.3805 30.5606 60.3805 30.5606 60.3797 30.5599C60.2953 30.5014 60.2023 30.4475 60.1062 30.3962C60.0788 30.3823 60.0499 30.3683 60.0218 30.3543C59.9413 30.3151 59.8569 30.2778 59.7678 30.2439C59.742 30.2345 59.7178 30.2239 59.692 30.2139C59.5779 30.174 59.4575 30.1387 59.3286 30.1095C59.3005 30.1028 59.2692 30.0981 59.2395 30.0922C59.1332 30.0709 59.0223 30.0529 58.9058 30.0383C58.8644 30.0336 58.8238 30.0283 58.7816 30.0243C58.63 30.0103 58.4737 30.0003 58.3049 30.0003C55.7198 30.0003 54.9391 31.4402 54.3116 32.5973C54.253 32.7051 54.1951 32.8109 54.1365 32.916C53.7685 33.578 53.366 34.1889 52.6009 34.6293C51.3654 35.3406 50.287 36.3021 49.468 37.1544C48.8249 37.8231 48.3412 38.424 48.0677 38.7839L47.9762 38.6422L47.9325 38.5737L47.3253 37.6268C47.2127 37.4512 47.0689 37.2981 46.9048 37.1664L46.9861 37.0965L49.1312 35.2441L47.877 34.1909L46.1046 35.7219L45.4583 36.2795L44.9324 36.7332C44.9316 36.7339 44.9308 36.7339 44.9301 36.7339C44.7339 36.7758 44.5495 36.8404 44.3791 36.9249C44.1963 36.9655 44.0134 37.0054 43.8329 37.046C43.0819 37.215 42.3528 37.3846 41.644 37.557C42.6357 36.0213 43.5351 34.8276 44.1713 34.2787C45.5365 33.0996 46.879 32.3657 48.1771 31.6551C49.2524 31.0676 50.2683 30.512 51.1169 29.7788C51.3928 29.5419 51.6882 29.2678 52.0055 28.973C53.5872 27.5078 55.7542 25.5017 58.3041 25.5017C59.449 25.5017 61.5378 25.7805 64.3683 26.3082V28.6949C63.8502 28.9331 63.3985 29.1633 63.0203 29.3802C62.3201 29.7821 61.6683 30.4055 61.0783 31.2393ZM66.1321 26.6482C67.1831 26.8591 68.1709 27.0694 68.9883 27.2484C68.2116 27.5657 67.2363 27.9091 66.1321 28.1812V26.6482ZM58.301 27.0002H60.0632V28.4999C58.301 28.4999 60.0632 28.4999 58.301 28.4999V27.0002Z" fill="#A0301C"/>
</svg>
