<svg width="96" height="96" fill="none" xmlns="http://www.w3.org/2000/svg">
  <path d="M44 2.3093a8 8 0 018 0l33.5692 19.3812a8 8 0 014 6.9282v38.7624a7.9998 7.9998 0 01-4 6.9282L52 93.6905a7.9998 7.9998 0 01-8 0L10.4308 74.3093a7.9998 7.9998 0 01-4-6.9282V28.6187a8 8 0 014-6.9282L44 2.3093z" fill="#fff"/>
  <path fill-rule="evenodd" clip-rule="evenodd" d="M84.1907 22.9024L51.5701 4.069a7.233 7.233 0 00-7.2331 0L11.7165 22.9024a7.2332 7.2332 0 00-3.6166 6.2641v37.667a7.233 7.233 0 003.6166 6.264L44.337 91.931a7.233 7.233 0 007.2331 0l32.6206-18.8335a7.233 7.233 0 003.6165-6.264v-37.667a7.2333 7.2333 0 00-3.6165-6.2641zM53.1201 1.3844a10.333 10.333 0 00-10.333 0L10.1665 20.2178A10.3332 10.3332 0 005 29.1665v37.667a10.333 10.333 0 005.1665 8.9486l32.6206 18.8335a10.333 10.333 0 0010.333 0l32.6205-18.8335a10.3328 10.3328 0 005.1665-8.9486v-37.667a10.3331 10.3331 0 00-5.1665-8.9487L53.1201 1.3844z" fill="#DA181D"/>
  <path fill-rule="evenodd" clip-rule="evenodd" d="M58.0394 65.6378c4.4429-3.14 7.3426-8.3084 7.3426-14.1525C65.382 41.9115 58.7382 29.4508 48 24c-10.6416 5.7397-17.382 17.9115-17.382 27.4853 0 5.8441 2.8997 11.0125 7.3426 14.1525a5.807 5.807 0 00-.467.0812C34.118 66.4536 30 72 30 72h10.1974c1.8143 0 3.5394-.6795 4.9041-1.4419.6628.8745 1.7142 1.44 2.8985 1.44s2.2361-.5655 2.8985-1.44C52.2632 71.3205 53.9883 72 55.8026 72H66s-4.118-5.5464-7.4936-6.281a5.807 5.807 0 00-.467-.0812z" fill="url(#paint0_linear)"/>
  <path d="M47.9807 64.4863c6.6452 0 12.0322-5.3723 12.0322-11.9995 0-6.6271-5.387-11.9995-12.0322-11.9995s-12.0322 5.3724-12.0322 11.9995c0 6.6272 5.387 11.9995 12.0322 11.9995z" fill="#fff"/>
  <path d="M37.5322 47.3634c7.1266.5007 11.3369-1.2327 14.2532-5.5279 0 0-5.6201-1.8876-9.0386 0-3.4068 1.8812-5.2146 5.5279-5.2146 5.5279z" fill="#B4B4B4"/>
  <path d="M57.4635 46.3041c-2.8584-.3082-5.4077-1.2327-6.6244-4.7189 0 0 2.5273.5753 5.0794 2.8935 2.6505 2.4076 1.545 1.8254 1.545 1.8254z" fill="#B4B4B4"/>
  <path fill-rule="evenodd" clip-rule="evenodd" d="M47.9807 41.2577c-6.2186 0-11.2597 5.0274-11.2597 11.2291 0 6.2016 5.0411 11.229 11.2597 11.229 6.2185 0 11.2596-5.0274 11.2596-11.229 0-6.2017-5.0411-11.2291-11.2596-11.2291zM35.176 52.4868c0-7.0527 5.7328-12.77 12.8047-12.77 7.0718 0 12.8047 5.7173 12.8047 12.77 0 7.0526-5.7329 12.7699-12.8047 12.7699-7.0719 0-12.8047-5.7173-12.8047-12.7699z" fill="#0A0000"/>
  <path d="M50.3562 47.3442h-4.751l1.1588 1.1557v3.4669c.1738-1.1363 2.3369-1.1749 2.4528 0l.2897-3.4669.8497-1.1557z" fill="#000"/>
  <path d="M33.1334 48.8851c0-.851.6918-1.5409 1.5451-1.5409h11.0047c.934 0 1.6544.8202 1.5316 1.7437l-.9564 7.1843c-.102.7659-.7571 1.3381-1.5316 1.3381H34.6785c-.8533 0-1.5451-.6899-1.5451-1.5409v-7.1843z" fill="#000"/>
  <path d="M37.6906 55.9172v-.6356h-.2144c-.1391 0-.2318-.0983-.2781-.2427l-.8807-2.6465c-.0579-.1675-.1275-.2889-.2202-.3813-.1738-.1791-.3998-.2369-.6547-.2369h-.2781v.6645h.1854c.1564 0 .2781.0578.3303.2427l.1216.4275-1.0892 2.8083h.7937l.6548-1.8491.3476 1.1152c.1333.4334.3592.7339.8691.7339h.3129zM38.9537 55.2815v.6356h2.1631v-.6356h-2.1631z" fill="#fff"/>
  <path d="M48.773 49.088c-.1229-.9235.5975-1.7438 1.5315-1.7438h10.9831c.8532 0 1.545.6899 1.545 1.5409v7.1687c0 .851-.6918 1.5411-1.545 1.5411H51.2593c-.7744 0-1.4295-.5723-1.5315-1.3382l-.9548-7.1687z" fill="#000"/>
  <path d="M54.4236 55.9345v-.6356h-.2144c-.139 0-.2317-.0982-.2781-.2427l-.8807-2.6464c-.0579-.1676-.1274-.2889-.2201-.3814-.1739-.1791-.3998-.2369-.6548-.2369h-.2781v.6645h.1854c.1565 0 .2781.0578.3303.2427l.1217.4276-1.0893 2.8082h.7938l.6547-1.849.3476 1.1152c.1333.4333.3593.7338.8691.7338h.3129zM55.6867 55.2988v.6356h2.1631v-.6356h-2.1631z" fill="#fff"/>
  <defs>
    <linearGradient id="paint0_linear" x1="48.618" y1="24" x2="48.618" y2="72.0181" gradientUnits="userSpaceOnUse">
      <stop stop-color="#E41F26"/>
      <stop offset="1" stop-color="#B70000"/>
    </linearGradient>
  </defs>
</svg>
