<svg width="96" height="96" viewBox="0 0 96 96" fill="none" xmlns="http://www.w3.org/2000/svg">
<path d="M44 2.30935C46.4752 0.880283 49.5248 0.880284 52 2.30935L85.5692 21.6905C88.0444 23.1196 89.5692 25.7606 89.5692 28.6187V67.3811C89.5692 70.2393 88.0444 72.8803 85.5692 74.3093L52 93.6905C49.5248 95.1196 46.4752 95.1196 44 93.6905L10.4308 74.3093C7.95558 72.8803 6.43079 70.2393 6.43079 67.3811V28.6187C6.43079 25.7606 7.95558 23.1196 10.4308 21.6905L44 2.30935Z" fill="white"/>
<path fill-rule="evenodd" clip-rule="evenodd" d="M84.1907 22.9024L51.5701 4.06896C49.3322 2.77689 46.575 2.77689 44.337 4.06896L11.7165 22.9024C9.47853 24.1945 8.09991 26.5824 8.09991 29.1665V66.8335C8.09991 69.4176 9.47853 71.8055 11.7165 73.0975L44.337 91.931C46.575 93.2231 49.3322 93.2231 51.5701 91.931L84.1907 73.0975C86.4286 71.8055 87.8072 69.4176 87.8072 66.8335V29.1665C87.8072 26.5824 86.4286 24.1945 84.1907 22.9024ZM53.1201 1.38436C49.923 -0.461454 45.9841 -0.461455 42.7871 1.38436L10.1665 20.2178C6.96946 22.0637 5 25.4749 5 29.1665V66.8335C5 70.5251 6.96946 73.9363 10.1665 75.7821L42.7871 94.6156C45.9841 96.4614 49.923 96.4614 53.1201 94.6156L85.7406 75.7821C88.9377 73.9363 90.9072 70.5251 90.9072 66.8335V29.1665C90.9072 25.4749 88.9377 22.0637 85.7406 20.2178L53.1201 1.38436Z" fill="black"/>
<path d="M66.0508 33.8034L50.9186 24.8136C49.1288 23.756 46.8915 23.756 45.061 24.8136L29.9288 33.8034C28.139 34.8611 27 36.8543 27 39.0102V56.9899C27 59.1458 28.0983 61.0983 29.9288 62.1967L45.061 71.1865C45.9559 71.7153 46.9729 72 47.9898 72C49.0068 72 50.0237 71.7153 50.9186 71.1865L66.0508 62.1967C67.8407 61.139 68.9797 59.1458 68.9797 56.9899V38.9695C68.9797 36.8543 67.8814 34.8611 66.0508 33.8034Z" fill="white"/>
<path d="M66.0508 33.8034L50.9186 24.8136C50.0237 24.2847 49.0068 24 47.9898 24C46.9729 24 45.9559 24.2847 45.061 24.8136L29.9288 33.8034C28.139 34.861 27 36.8542 27 39.0102V56.9898C27 59.1458 28.0983 61.0983 29.9288 62.1966L45.061 71.1864C45.9559 71.7153 46.9729 72 47.9898 72C49.0068 72 50.0237 71.7153 50.9186 71.1864L66.0508 62.1966C67.8407 61.139 68.9797 59.1458 68.9797 56.9898V38.9695C68.9797 36.8542 67.8814 34.861 66.0508 33.8034ZM45.5898 70.2102L30.4576 61.2203C28.9932 60.3254 28.0576 58.6983 28.0576 56.9492V38.9695C28.0576 37.2203 28.9932 35.5525 30.4576 34.6983L45.5898 25.7085C46.322 25.261 47.1356 25.0576 47.9898 25.0576C48.8441 25.0576 49.6576 25.3017 50.3898 25.7085L65.522 34.6983C66.783 35.4305 67.5966 36.7322 67.8407 38.1559C67.3525 37.0983 66.2136 36.7729 64.8712 37.5458L50.5932 46.4136C48.8034 47.4712 47.5017 48.6102 47.5017 50.7661V68.4203C47.5017 69.722 48.0305 70.5356 48.8034 70.7797C48.5593 70.8203 48.2746 70.861 47.9898 70.861C47.1763 70.9017 46.322 70.6576 45.5898 70.2102Z" fill="#2A3238"/>
<path d="M62.105 58.6984L58.322 60.9356C58.2406 60.9763 58.1593 61.0577 58.1593 61.1797V62.156C58.1593 62.278 58.2406 62.3187 58.322 62.278L62.1457 59.9594C62.2271 59.9187 62.2677 59.7967 62.2677 59.6746V58.8204C62.2677 58.6984 62.1864 58.6577 62.105 58.6984Z" fill="#4DA925"/>
<path d="M54.0508 50.4C54.1729 50.3186 54.2542 50.4 54.2949 50.5627V51.8644C54.8237 51.661 55.3119 51.5796 55.7593 51.7017C55.8407 51.7423 55.8814 51.8644 55.8407 51.9864L55.5559 53.1254C55.5153 53.2067 55.4746 53.2881 55.4339 53.3694C55.3932 53.4101 55.3932 53.4101 55.3525 53.4101C55.3119 53.4101 55.2712 53.4508 55.2305 53.4101C55.0271 53.3694 54.5797 53.2474 53.8475 53.6542C53.0746 54.061 52.7898 54.7118 52.8305 55.2C52.8305 55.8101 53.1559 55.9728 54.1729 55.9728C55.5559 56.0135 56.1661 56.6237 56.2068 58.0067C56.2068 59.3898 55.4746 60.8949 54.3356 61.7898L54.3763 63.0915C54.3763 63.2542 54.2949 63.4169 54.1729 63.4983L53.4 63.9457C53.278 64.0271 53.1966 63.9457 53.1559 63.783V62.522C52.5051 62.8067 51.8542 62.8474 51.4068 62.6847C51.3254 62.644 51.2847 62.522 51.3254 62.4L51.6102 61.2203C51.6508 61.1389 51.6915 61.0169 51.7322 60.9762C51.7729 60.9355 51.7729 60.9355 51.8136 60.9355C51.8542 60.8949 51.8949 60.8949 51.9356 60.9355C52.383 61.0983 52.9932 61.0169 53.522 60.7322C54.2542 60.3661 54.7017 59.6339 54.7017 58.9016C54.7017 58.2508 54.3356 57.9661 53.4814 57.9661C52.383 57.9661 51.3661 57.7627 51.3254 56.1355C51.3254 54.7932 52.0169 53.4101 53.1153 52.5559V51.2542C53.1153 51.0915 53.1966 50.9288 53.3186 50.8474L54.0508 50.4Z" fill="white"/>
</svg>
