<svg width="3126" height="3130" viewBox="0 0 3126 3130" fill="none" xmlns="http://www.w3.org/2000/svg">
<path d="M1558.94 34.9603C1561.44 33.4809 1564.56 33.4809 1567.06 34.9603L2856.26 795.46C2858.7 796.898 2860.2 799.519 2860.2 802.35V2323.65C2860.2 2326.48 2858.7 2329.1 2856.26 2330.54L1567.06 3091.04C1564.56 3092.52 1561.44 3092.52 1558.94 3091.04L269.738 2330.54C267.299 2329.1 265.802 2326.48 265.802 2323.65V802.35C265.802 799.519 267.299 796.898 269.738 795.46L1558.94 34.9603Z" fill="white"/>
<path fill-rule="evenodd" clip-rule="evenodd" d="M2744.25 746.567L1680.89 132.639C1607.94 90.5202 1518.06 90.5202 1445.11 132.639L381.754 746.567C308.802 788.686 263.862 866.524 263.862 950.761V2178.62C263.862 2262.85 308.802 2340.69 381.754 2382.81L1445.11 2996.74C1518.06 3038.86 1607.94 3038.86 1680.89 2996.74L2744.25 2382.81C2817.2 2340.69 2862.14 2262.85 2862.14 2178.62V950.761C2862.14 866.524 2817.2 788.686 2744.25 746.567ZM1731.42 45.1271C1627.2 -15.0423 1498.8 -15.0424 1394.58 45.127L331.229 659.055C227.012 719.225 162.812 830.422 162.812 950.761V2178.62C162.812 2298.96 227.012 2410.15 331.229 2470.32L1394.58 3084.25C1498.8 3144.42 1627.2 3144.42 1731.42 3084.25L2794.77 2470.32C2898.99 2410.15 2963.19 2298.96 2963.19 2178.62V950.761C2963.19 830.422 2898.99 719.225 2794.77 659.055L1731.42 45.1271Z" fill="#096015"/>
<path d="M2463.04 858.624H662.963V2267.38H2463.04V858.624Z" fill="white"/>
<path d="M1749 1015H1827.26" stroke="#096015" stroke-width="83.33" stroke-miterlimit="10" stroke-linecap="round"/>
<path d="M1983.79 1015H2062.06" stroke="#096015" stroke-width="83.33" stroke-miterlimit="10" stroke-linecap="round"/>
<path d="M2218.58 1015H2296.85" stroke="#096015" stroke-width="83.33" stroke-miterlimit="10" stroke-linecap="round"/>
<path d="M2463.04 858.624H662.963V2267.38H2463.04V858.624Z" stroke="#096015" stroke-width="83.33" stroke-linecap="round" stroke-linejoin="round"/>
<path d="M662.963 1171.68H2463.04" stroke="#096015" stroke-width="83.33" stroke-linecap="round" stroke-linejoin="round"/>
<path d="M2015.17 1865.55H1974.05C1970.32 1847 1964.16 1829.02 1955.74 1812.07L1984.83 1783.01C1988.26 1779.58 1990.18 1774.92 1990.18 1770.07C1990.18 1765.22 1988.26 1760.56 1984.83 1757.13L1958.88 1731.25C1955.44 1727.82 1950.79 1725.89 1945.94 1725.89C1941.08 1725.89 1936.43 1727.82 1933 1731.25L1903.9 1760.33C1886.96 1751.91 1869 1745.76 1850.46 1742.03V1700.83C1850.46 1695.98 1848.53 1691.32 1845.1 1687.89C1841.66 1684.46 1837.01 1682.53 1832.15 1682.53H1813.85C1809 1682.53 1804.34 1684.46 1800.91 1687.89C1797.48 1691.32 1795.55 1695.98 1795.55 1700.83V1741.99C1777.01 1745.73 1759.04 1751.88 1742.09 1760.29L1712.99 1731.25C1709.56 1727.82 1704.91 1725.89 1700.05 1725.89C1695.2 1725.89 1690.55 1727.82 1687.11 1731.25L1661.22 1757.15C1657.79 1760.58 1655.86 1765.23 1655.86 1770.09C1655.86 1774.94 1657.79 1779.59 1661.22 1783.03L1690.32 1812.11C1681.91 1829.05 1675.75 1847.02 1672.02 1865.57H1630.84C1625.98 1865.57 1621.33 1867.49 1617.9 1870.93C1614.46 1874.36 1612.54 1879.01 1612.54 1883.87V1902.17C1612.54 1907.02 1614.46 1911.68 1617.9 1915.11C1621.33 1918.54 1625.98 1920.47 1630.84 1920.47H1671.94C1675.68 1939.01 1681.83 1956.98 1690.24 1973.93L1661.14 2003.03C1657.71 2006.46 1655.79 2011.12 1655.79 2015.97C1655.79 2020.82 1657.71 2025.48 1661.14 2028.91L1687.11 2054.79C1690.55 2058.22 1695.2 2060.14 1700.05 2060.14C1704.91 2060.14 1709.56 2058.22 1712.99 2054.79L1742.07 2025.69C1759.02 2034.1 1777 2040.26 1795.55 2043.99V2085.17C1795.55 2090.02 1797.48 2094.68 1800.91 2098.11C1804.34 2101.54 1809 2103.47 1813.85 2103.47H1832.15C1837.01 2103.47 1841.66 2101.54 1845.1 2098.11C1848.53 2094.68 1850.46 2090.02 1850.46 2085.17V2044.08C1868.99 2040.34 1886.96 2034.19 1903.9 2025.78L1933.01 2054.86C1936.45 2058.29 1941.1 2060.22 1945.95 2060.22C1950.81 2060.22 1955.46 2058.29 1958.89 2054.86L1984.77 2028.98C1988.2 2025.55 1990.13 2020.89 1990.13 2016.04C1990.13 2011.19 1988.2 2006.54 1984.77 2003.1L1955.69 1974C1964.11 1957.05 1970.26 1939.08 1973.99 1920.54H2015.17C2020.03 1920.54 2024.68 1918.62 2028.11 1915.18C2031.55 1911.75 2033.47 1907.1 2033.47 1902.24V1883.94C2033.49 1881.53 2033.02 1879.14 2032.11 1876.91C2031.2 1874.67 2029.85 1872.65 2028.15 1870.93C2026.45 1869.23 2024.43 1867.87 2022.2 1866.95C2019.97 1866.02 2017.58 1865.55 2015.17 1865.55ZM1823 1975.36C1801.16 1975.36 1780.21 1966.68 1764.77 1951.24C1749.32 1935.79 1740.65 1914.84 1740.65 1893C1740.65 1871.16 1749.32 1850.21 1764.77 1834.76C1780.21 1819.32 1801.16 1810.64 1823 1810.64C1844.85 1810.64 1865.79 1819.32 1881.24 1834.76C1896.68 1850.21 1905.36 1871.16 1905.36 1893C1905.36 1914.84 1896.68 1935.79 1881.24 1951.24C1865.79 1966.68 1844.85 1975.36 1823 1975.36Z" fill="#E3E3E3"/>
<path d="M1671.94 1920.45C1675.68 1938.99 1681.83 1956.97 1690.24 1973.91L1661.14 2003.01C1657.71 2006.44 1655.79 2011.1 1655.79 2015.95C1655.79 2020.8 1657.71 2025.46 1661.14 2028.89L1674.08 2041.83L1764.68 1951.24C1749.23 1935.79 1740.55 1914.84 1740.55 1892.99C1740.55 1871.15 1749.23 1850.19 1764.68 1834.75C1780.12 1819.3 1801.07 1810.62 1822.92 1810.62C1844.77 1810.62 1865.72 1819.3 1881.17 1834.75L1971.74 1744.17L1958.8 1731.23C1955.37 1727.8 1950.72 1725.87 1945.86 1725.87C1941.01 1725.87 1936.36 1727.8 1932.92 1731.23L1903.9 1760.33C1886.96 1751.91 1869 1745.76 1850.46 1742.03V1700.83C1850.46 1695.98 1848.53 1691.32 1845.1 1687.89C1841.66 1684.46 1837.01 1682.53 1832.15 1682.53H1813.85C1809 1682.53 1804.34 1684.46 1800.91 1687.89C1797.48 1691.32 1795.55 1695.98 1795.55 1700.83V1741.99C1777.01 1745.73 1759.04 1751.88 1742.09 1760.29L1712.99 1731.25C1709.56 1727.82 1704.91 1725.89 1700.05 1725.89C1695.2 1725.89 1690.55 1727.82 1687.11 1731.25L1661.22 1757.15C1657.79 1760.58 1655.86 1765.23 1655.86 1770.09C1655.86 1774.94 1657.79 1779.59 1661.22 1783.03L1690.32 1812.11C1681.91 1829.05 1675.75 1847.02 1672.02 1865.57H1630.84C1625.98 1865.57 1621.33 1867.49 1617.9 1870.93C1614.46 1874.36 1612.54 1879.01 1612.54 1883.87V1902.17C1612.54 1907.02 1614.46 1911.68 1617.9 1915.11C1621.33 1918.54 1625.98 1920.47 1630.84 1920.47L1671.94 1920.45Z" fill="white"/>
<path d="M2015.17 1865.55H1974.05C1970.32 1847 1964.16 1829.02 1955.74 1812.07L1984.83 1783.01C1988.26 1779.58 1990.18 1774.92 1990.18 1770.07C1990.18 1765.22 1988.26 1760.56 1984.83 1757.13L1958.88 1731.25C1955.44 1727.82 1950.79 1725.89 1945.94 1725.89C1941.08 1725.89 1936.43 1727.82 1933 1731.25L1903.9 1760.33C1886.96 1751.91 1869 1745.76 1850.46 1742.03V1700.83C1850.46 1695.98 1848.53 1691.32 1845.1 1687.89C1841.66 1684.46 1837.01 1682.53 1832.15 1682.53H1813.85C1809 1682.53 1804.34 1684.46 1800.91 1687.89C1797.48 1691.32 1795.55 1695.98 1795.55 1700.83V1741.99C1777.01 1745.73 1759.04 1751.88 1742.09 1760.29L1712.99 1731.25C1709.56 1727.82 1704.91 1725.89 1700.05 1725.89C1695.2 1725.89 1690.55 1727.82 1687.11 1731.25L1661.22 1757.15C1657.79 1760.58 1655.86 1765.23 1655.86 1770.09C1655.86 1774.94 1657.79 1779.59 1661.22 1783.03L1690.32 1812.11C1681.91 1829.05 1675.75 1847.02 1672.02 1865.57H1630.84C1625.98 1865.57 1621.33 1867.49 1617.9 1870.93C1614.46 1874.36 1612.54 1879.01 1612.54 1883.87V1902.17C1612.54 1907.02 1614.46 1911.68 1617.9 1915.11C1621.33 1918.54 1625.98 1920.47 1630.84 1920.47H1671.94C1675.68 1939.01 1681.83 1956.98 1690.24 1973.93L1661.14 2003.03C1657.71 2006.46 1655.79 2011.12 1655.79 2015.97C1655.79 2020.82 1657.71 2025.48 1661.14 2028.91L1687.11 2054.79C1690.55 2058.22 1695.2 2060.14 1700.05 2060.14C1704.91 2060.14 1709.56 2058.22 1712.99 2054.79L1742.07 2025.69C1759.02 2034.1 1777 2040.26 1795.55 2043.99V2085.17C1795.55 2090.02 1797.48 2094.68 1800.91 2098.11C1804.34 2101.54 1809 2103.47 1813.85 2103.47H1832.15C1837.01 2103.47 1841.66 2101.54 1845.1 2098.11C1848.53 2094.68 1850.46 2090.02 1850.46 2085.17V2044.08C1868.99 2040.34 1886.96 2034.19 1903.9 2025.78L1933.01 2054.86C1936.45 2058.29 1941.1 2060.22 1945.95 2060.22C1950.81 2060.22 1955.46 2058.29 1958.89 2054.86L1984.77 2028.98C1988.2 2025.55 1990.13 2020.89 1990.13 2016.04C1990.13 2011.19 1988.2 2006.54 1984.77 2003.1L1955.69 1974C1964.11 1957.05 1970.26 1939.08 1973.99 1920.54H2015.17C2020.03 1920.54 2024.68 1918.62 2028.11 1915.18C2031.55 1911.75 2033.47 1907.1 2033.47 1902.24V1883.94C2033.49 1881.53 2033.02 1879.14 2032.11 1876.91C2031.2 1874.67 2029.85 1872.65 2028.15 1870.93C2026.45 1869.23 2024.43 1867.87 2022.2 1866.95C2019.97 1866.02 2017.58 1865.55 2015.17 1865.55ZM1823 1975.36C1801.16 1975.36 1780.21 1966.68 1764.77 1951.24C1749.32 1935.79 1740.65 1914.84 1740.65 1893C1740.65 1871.16 1749.32 1850.21 1764.77 1834.76C1780.21 1819.32 1801.16 1810.64 1823 1810.64C1844.85 1810.64 1865.79 1819.32 1881.24 1834.76C1896.68 1850.21 1905.36 1871.16 1905.36 1893C1905.36 1914.84 1896.68 1935.79 1881.24 1951.24C1865.79 1966.68 1844.85 1975.36 1823 1975.36Z" stroke="#096015" stroke-width="20.83" stroke-linecap="round" stroke-linejoin="round"/>
<path d="M1638.43 1562.65H1583.99C1579.04 1538.09 1570.9 1514.29 1559.75 1491.85L1598.26 1453.37C1602.8 1448.83 1605.35 1442.66 1605.35 1436.24C1605.35 1429.81 1602.8 1423.65 1598.26 1419.11L1563.9 1384.84C1559.35 1380.3 1553.19 1377.75 1546.77 1377.75C1540.34 1377.75 1534.18 1380.3 1529.63 1384.84L1491.11 1423.35C1468.69 1412.2 1444.9 1404.05 1420.35 1399.12V1344.57C1420.35 1338.14 1417.8 1331.98 1413.25 1327.44C1408.71 1322.89 1402.55 1320.34 1396.12 1320.34H1371.89C1365.46 1320.34 1359.3 1322.89 1354.75 1327.44C1350.21 1331.98 1347.66 1338.14 1347.66 1344.57V1399.07C1323.11 1404.01 1299.32 1412.15 1276.88 1423.3L1238.35 1384.84C1233.81 1380.3 1227.64 1377.75 1221.22 1377.75C1214.79 1377.75 1208.63 1380.3 1204.09 1384.84L1169.8 1419.13C1165.26 1423.68 1162.7 1429.84 1162.7 1436.26C1162.7 1442.69 1165.26 1448.85 1169.8 1453.39L1208.33 1491.9C1197.19 1514.33 1189.04 1538.13 1184.1 1562.68H1129.57C1123.15 1562.68 1116.99 1565.23 1112.44 1569.77C1107.9 1574.32 1105.34 1580.48 1105.34 1586.91V1611.14C1105.34 1617.57 1107.9 1623.73 1112.44 1628.27C1116.99 1632.82 1123.15 1635.37 1129.57 1635.37H1184C1188.94 1659.92 1197.08 1683.71 1208.23 1706.15L1169.7 1744.68C1165.16 1749.22 1162.61 1755.39 1162.61 1761.81C1162.61 1768.24 1165.16 1774.4 1169.7 1778.94L1204.09 1813.2C1208.63 1817.75 1214.79 1820.3 1221.22 1820.3C1227.64 1820.3 1233.81 1817.75 1238.35 1813.2L1276.85 1774.68C1299.29 1785.82 1323.1 1793.97 1347.66 1798.91V1853.43C1347.66 1859.86 1350.21 1866.02 1354.75 1870.56C1359.3 1875.11 1365.46 1877.66 1371.89 1877.66H1396.12C1402.55 1877.66 1408.71 1875.11 1413.25 1870.56C1417.8 1866.02 1420.35 1859.86 1420.35 1853.43V1799.03C1444.9 1794.08 1468.68 1785.94 1491.11 1774.8L1529.66 1813.3C1534.2 1817.85 1540.37 1820.4 1546.79 1820.4C1553.22 1820.4 1559.38 1817.85 1563.92 1813.3L1598.19 1779.04C1602.73 1774.49 1605.28 1768.33 1605.28 1761.91C1605.28 1755.48 1602.73 1749.32 1598.19 1744.78L1559.68 1706.25C1570.83 1683.81 1578.97 1660.02 1583.91 1635.47H1638.43C1644.86 1635.47 1651.02 1632.92 1655.57 1628.37C1660.11 1623.83 1662.66 1617.66 1662.66 1611.24V1587.01C1662.69 1583.81 1662.07 1580.65 1660.86 1577.69C1659.65 1574.74 1657.87 1572.05 1655.62 1569.79C1653.36 1567.52 1650.69 1565.73 1647.74 1564.5C1644.79 1563.28 1641.63 1562.65 1638.43 1562.65ZM1384.01 1708.04C1355.08 1708.04 1327.35 1696.55 1306.9 1676.1C1286.45 1655.65 1274.96 1627.92 1274.96 1599C1274.96 1570.08 1286.45 1542.35 1306.9 1521.9C1327.35 1501.45 1355.08 1489.96 1384.01 1489.96C1412.92 1489.96 1440.66 1501.45 1461.11 1521.9C1481.56 1542.35 1493.05 1570.08 1493.05 1599C1493.05 1627.92 1481.56 1655.65 1461.11 1676.1C1440.66 1696.55 1412.92 1708.04 1384.01 1708.04Z" fill="#096015" fill-opacity="0.1"/>
<path d="M1184 1635.35C1188.94 1659.89 1197.08 1683.69 1208.23 1706.13L1169.7 1744.66C1165.16 1749.2 1162.61 1755.36 1162.61 1761.79C1162.61 1768.21 1165.16 1774.38 1169.7 1778.92L1186.83 1796.05L1306.78 1676.1C1286.33 1655.65 1274.84 1627.91 1274.84 1598.99C1274.84 1570.07 1286.33 1542.32 1306.78 1521.87C1327.23 1501.42 1354.97 1489.93 1383.89 1489.93C1412.82 1489.93 1440.56 1501.42 1461.01 1521.87L1580.93 1401.95L1563.8 1384.82C1559.26 1380.28 1553.09 1377.73 1546.67 1377.73C1540.24 1377.73 1534.08 1380.28 1529.54 1384.82L1491.11 1423.35C1468.69 1412.2 1444.9 1404.05 1420.35 1399.12V1344.57C1420.35 1338.14 1417.8 1331.98 1413.25 1327.44C1408.71 1322.89 1402.55 1320.34 1396.12 1320.34H1371.89C1365.46 1320.34 1359.3 1322.89 1354.75 1327.44C1350.21 1331.98 1347.66 1338.14 1347.66 1344.57V1399.07C1323.11 1404.01 1299.32 1412.15 1276.88 1423.3L1238.35 1384.84C1233.81 1380.3 1227.64 1377.75 1221.22 1377.75C1214.79 1377.75 1208.63 1380.3 1204.09 1384.84L1169.8 1419.13C1165.26 1423.68 1162.7 1429.84 1162.7 1436.26C1162.7 1442.69 1165.26 1448.85 1169.8 1453.39L1208.33 1491.9C1197.19 1514.33 1189.04 1538.13 1184.1 1562.68H1129.57C1123.15 1562.68 1116.99 1565.23 1112.44 1569.77C1107.9 1574.32 1105.34 1580.48 1105.34 1586.91V1611.14C1105.34 1617.57 1107.9 1623.73 1112.44 1628.27C1116.99 1632.82 1123.15 1635.37 1129.57 1635.37L1184 1635.35Z" fill="white"/>
<path d="M1638.43 1562.65H1583.99C1579.04 1538.09 1570.9 1514.29 1559.75 1491.85L1598.26 1453.37C1602.8 1448.83 1605.35 1442.66 1605.35 1436.24C1605.35 1429.81 1602.8 1423.65 1598.26 1419.11L1563.9 1384.84C1559.35 1380.3 1553.19 1377.75 1546.77 1377.75C1540.34 1377.75 1534.18 1380.3 1529.63 1384.84L1491.11 1423.35C1468.69 1412.2 1444.9 1404.05 1420.35 1399.12V1344.57C1420.35 1338.14 1417.8 1331.98 1413.25 1327.44C1408.71 1322.89 1402.55 1320.34 1396.12 1320.34H1371.89C1365.46 1320.34 1359.3 1322.89 1354.75 1327.44C1350.21 1331.98 1347.66 1338.14 1347.66 1344.57V1399.07C1323.11 1404.01 1299.32 1412.15 1276.88 1423.3L1238.35 1384.84C1233.81 1380.3 1227.64 1377.75 1221.22 1377.75C1214.79 1377.75 1208.63 1380.3 1204.09 1384.84L1169.8 1419.13C1165.26 1423.68 1162.7 1429.84 1162.7 1436.26C1162.7 1442.69 1165.26 1448.85 1169.8 1453.39L1208.33 1491.9C1197.19 1514.33 1189.04 1538.13 1184.1 1562.68H1129.57C1123.15 1562.68 1116.99 1565.23 1112.44 1569.77C1107.9 1574.32 1105.34 1580.48 1105.34 1586.91V1611.14C1105.34 1617.57 1107.9 1623.73 1112.44 1628.27C1116.99 1632.82 1123.15 1635.37 1129.57 1635.37H1184C1188.94 1659.92 1197.08 1683.71 1208.23 1706.15L1169.7 1744.68C1165.16 1749.22 1162.61 1755.39 1162.61 1761.81C1162.61 1768.24 1165.16 1774.4 1169.7 1778.94L1204.09 1813.2C1208.63 1817.75 1214.79 1820.3 1221.22 1820.3C1227.64 1820.3 1233.81 1817.75 1238.35 1813.2L1276.85 1774.68C1299.29 1785.82 1323.1 1793.97 1347.66 1798.91V1853.43C1347.66 1859.86 1350.21 1866.02 1354.75 1870.56C1359.3 1875.11 1365.46 1877.66 1371.89 1877.66H1396.12C1402.55 1877.66 1408.71 1875.11 1413.25 1870.56C1417.8 1866.02 1420.35 1859.86 1420.35 1853.43V1799.03C1444.9 1794.08 1468.68 1785.94 1491.11 1774.8L1529.66 1813.3C1534.2 1817.85 1540.37 1820.4 1546.79 1820.4C1553.22 1820.4 1559.38 1817.85 1563.92 1813.3L1598.19 1779.04C1602.73 1774.49 1605.28 1768.33 1605.28 1761.91C1605.28 1755.48 1602.73 1749.32 1598.19 1744.78L1559.68 1706.25C1570.83 1683.81 1578.97 1660.02 1583.91 1635.47H1638.43C1644.86 1635.47 1651.02 1632.92 1655.57 1628.37C1660.11 1623.83 1662.66 1617.66 1662.66 1611.24V1587.01C1662.69 1583.81 1662.07 1580.65 1660.86 1577.69C1659.65 1574.74 1657.87 1572.05 1655.62 1569.79C1653.36 1567.52 1650.69 1565.73 1647.74 1564.5C1644.79 1563.28 1641.63 1562.65 1638.43 1562.65ZM1384.01 1708.04C1355.08 1708.04 1327.35 1696.55 1306.9 1676.1C1286.45 1655.65 1274.96 1627.92 1274.96 1599C1274.96 1570.08 1286.45 1542.35 1306.9 1521.9C1327.35 1501.45 1355.08 1489.96 1384.01 1489.96C1412.92 1489.96 1440.66 1501.45 1461.11 1521.9C1481.56 1542.35 1493.05 1570.08 1493.05 1599C1493.05 1627.92 1481.56 1655.65 1461.11 1676.1C1440.66 1696.55 1412.92 1708.04 1384.01 1708.04Z" stroke="#096015" stroke-width="20.83" stroke-linecap="round" stroke-linejoin="round"/>
</svg>