<svg xmlns="http://www.w3.org/2000/svg" width="96" height="96" fill="none"><path fill="#fff" d="M44 2.31a8 8 0 0 1 8 0l33.57 19.38a8 8 0 0 1 4 6.929V67.38a8 8 0 0 1-4 6.928L52 93.691a8 8 0 0 1-8 0L10.43 74.308a8 8 0 0 1-4-6.928V28.62a8 8 0 0 1 4-6.928L44 2.308Z"/><path fill="#2B7067" fill-rule="evenodd" d="M84.19 22.902 51.57 4.07a7.233 7.233 0 0 0-7.233 0l-32.62 18.833A7.233 7.233 0 0 0 8.1 29.166v37.668a7.233 7.233 0 0 0 3.617 6.263l32.62 18.834a7.233 7.233 0 0 0 7.233 0l32.62-18.834a7.233 7.233 0 0 0 3.617-6.263V29.166a7.233 7.233 0 0 0-3.616-6.264ZM53.12 1.384a10.333 10.333 0 0 0-10.333 0l-32.62 18.834A10.333 10.333 0 0 0 5 29.166v37.668c0 3.691 1.97 7.102 5.166 8.948l32.621 18.834a10.333 10.333 0 0 0 10.333 0l32.62-18.834a10.333 10.333 0 0 0 5.167-8.948V29.166c0-3.691-1.97-7.102-5.166-8.948L53.12 1.384Z" clip-rule="evenodd"/><mask id="a" width="48" height="42" x="24" y="27" maskUnits="userSpaceOnUse" style="mask-type:luminance"><path fill="#341394" d="M24 27.428h48v41.144H24z"/><path fill="#fff" d="M72 27.428H24v41.143h48V27.43Z"/></mask><g mask="url(#a)"><path fill="#2B7067" fill-rule="evenodd" d="m26.957 24.836 12.878 12.878-1.06 1.06a13.047 13.047 0 0 0 14.219 21.28l1.148 2.772a16.048 16.048 0 0 1-18.5-25.062l-5.685-5.686v35.808h-3v-43.05ZM66.043 63.92V28.114h3v43.05L56.164 58.286l1.06-1.06a13.048 13.048 0 0 0-14.218-21.28l-1.148-2.772a16.048 16.048 0 0 1 18.5 25.062l5.685 5.685Zm-26.4-24.278h16.714v6.235L54.236 48l2.121 2.121v6.236H39.643V39.643Zm11.85 6.857 1.864-1.864v-1.993H42.643V46.5h8.85Zm-8.85 3v3.857h10.714v-1.993L51.493 49.5h-8.85Z" clip-rule="evenodd"/></g></svg>