<svg width="96" height="96" fill="none" xmlns="http://www.w3.org/2000/svg">
  <path d="M44 2.3093a8 8 0 0 1 8 0l33.5692 19.3812a8 8 0 0 1 4 6.9282v38.7624a7.9998 7.9998 0 0 1-4 6.9282L52 93.6905a7.9998 7.9998 0 0 1-8 0L10.4308 74.3093a7.9998 7.9998 0 0 1-4-6.9282V28.6187a8 8 0 0 1 4-6.9282L44 2.3093z" fill="#fff"/>
  <path fill-rule="evenodd" clip-rule="evenodd" d="M84.1907 22.9024 51.5701 4.069a7.233 7.233 0 0 0-7.2331 0L11.7165 22.9024a7.2332 7.2332 0 0 0-3.6166 6.2641v37.667a7.233 7.233 0 0 0 3.6166 6.264L44.337 91.931a7.233 7.233 0 0 0 7.2331 0l32.6206-18.8335a7.233 7.233 0 0 0 3.6165-6.264v-37.667a7.2333 7.2333 0 0 0-3.6165-6.2641zM53.1201 1.3844a10.333 10.333 0 0 0-10.333 0L10.1665 20.2178A10.3332 10.3332 0 0 0 5 29.1665v37.667a10.333 10.333 0 0 0 5.1665 8.9486l32.6206 18.8335a10.333 10.333 0 0 0 10.333 0l32.6205-18.8335a10.3328 10.3328 0 0 0 5.1665-8.9486v-37.667a10.3331 10.3331 0 0 0-5.1665-8.9487L53.1201 1.3844z" fill="#138C94"/>
  <path d="M49.4499 72c-13.2336 0-24-10.7664-24-24s10.7664-24 24-24c8.5393 0 16.5033 4.5953 20.7838 11.9925l-10.3866 6.0103C57.7047 38.3002 53.7205 36 49.4499 36c-6.6169 0-12 5.3831-12 12 0 6.6167 5.3831 12 12 12 4.2711 0 8.2553-2.3002 10.3979-6.0035l10.3866 6.0101C65.9539 67.4045 57.9897 72 49.4499 72z" fill="#138C94"/>
</svg>
