<svg width="3126" height="3130" viewBox="0 0 3126 3130" fill="none" xmlns="http://www.w3.org/2000/svg">
<path d="M1558.94 34.9603C1561.44 33.4809 1564.56 33.4809 1567.06 34.9603L2856.26 795.46C2858.7 796.898 2860.2 799.519 2860.2 802.35V2323.65C2860.2 2326.48 2858.7 2329.1 2856.26 2330.54L1567.06 3091.04C1564.56 3092.52 1561.44 3092.52 1558.94 3091.04L269.738 2330.54C267.299 2329.1 265.802 2326.48 265.802 2323.65V802.35C265.802 799.519 267.299 796.898 269.738 795.46L1558.94 34.9603Z" fill="white"/>
<path fill-rule="evenodd" clip-rule="evenodd" d="M2744.25 746.567L1680.89 132.639C1607.94 90.5202 1518.06 90.5202 1445.11 132.639L381.754 746.567C308.802 788.686 263.862 866.524 263.862 950.761V2178.62C263.862 2262.85 308.802 2340.69 381.754 2382.81L1445.11 2996.74C1518.06 3038.86 1607.94 3038.86 1680.89 2996.74L2744.25 2382.81C2817.2 2340.69 2862.14 2262.85 2862.14 2178.62V950.761C2862.14 866.524 2817.2 788.686 2744.25 746.567ZM1731.42 45.1271C1627.2 -15.0423 1498.8 -15.0424 1394.58 45.127L331.229 659.055C227.012 719.225 162.812 830.422 162.812 950.761V2178.62C162.812 2298.96 227.012 2410.15 331.229 2470.32L1394.58 3084.25C1498.8 3144.42 1627.2 3144.42 1731.42 3084.25L2794.77 2470.32C2898.99 2410.15 2963.19 2298.96 2963.19 2178.62V950.761C2963.19 830.422 2898.99 719.225 2794.77 659.055L1731.42 45.1271Z" fill="#FE4A3C"/>
<path d="M1563 538.774C996.442 538.774 536.563 998.696 536.563 1565.21C536.563 1805.14 621.004 2027.34 758.722 2202.86C869.822 2045.12 989.767 1896.26 1140.88 1774.06C1145.34 1769.6 1156.44 1762.96 1169.75 1754.08C1231.95 1707.43 1276.38 1638.56 1287.48 1560.79L1287.48 1558.58C1325.24 1307.51 1427.45 1220.85 1714.07 1220.85C1738.52 1220.85 1767.39 1220.85 1794.05 1223.07C1940.69 1229.74 2025.09 1271.96 2033.98 1294.16C2040.65 1305.25 2038.44 1318.6 2036.19 1331.91L2025.09 1329.7C1934.02 1318.6 1796.26 1345.26 1776.27 1445.22C1765.17 1500.75 1778.48 1562.96 1782.95 1618.53C1789.62 1676.31 1794.05 1736.26 1794.05 1794.05C1794.05 1798.51 1789.58 1820.7 1794.05 1822.92C1638.51 1674.06 1278.59 1860.67 1165.28 1942.9C1176.38 1938.44 1187.52 1934.02 1200.83 1929.55C1309.68 1891.8 1636.3 1794.05 1762.92 1902.89C1869.56 2033.98 1774.02 2276.16 1694.04 2396.11C1647.4 2467.2 1589.62 2531.61 1525.2 2587.18L1562.96 2587.18C2129.52 2587.18 2589.4 2127.26 2589.4 1560.75C2589.4 994.232 2131.77 538.774 1563 538.774ZM1680.73 1094.19C1569.63 1094.19 1478.56 1003.12 1478.56 892.018C1478.56 780.917 1569.63 689.843 1680.73 689.843C1791.83 689.843 1882.91 780.917 1882.91 892.018C1882.91 1003.12 1794.05 1094.19 1680.73 1094.19Z" fill="#FE4A3C"/>
</svg>
