<svg width="96" height="96" fill="none" xmlns="http://www.w3.org/2000/svg">
  <path d="M44 2.3093a8 8 0 018 0l33.5692 19.3812a8 8 0 014 6.9282v38.7624a7.9998 7.9998 0 01-4 6.9282L52 93.6905a7.9998 7.9998 0 01-8 0L10.4308 74.3093a7.9998 7.9998 0 01-4-6.9282V28.6187a8 8 0 014-6.9282L44 2.3093z" fill="#fff"/>
  <path fill-rule="evenodd" clip-rule="evenodd" d="M84.1907 22.9024L51.5701 4.069a7.233 7.233 0 00-7.2331 0L11.7165 22.9024a7.2332 7.2332 0 00-3.6166 6.2641v37.667a7.233 7.233 0 003.6166 6.264L44.337 91.931a7.233 7.233 0 007.2331 0l32.6206-18.8335a7.233 7.233 0 003.6165-6.264v-37.667a7.2333 7.2333 0 00-3.6165-6.2641zM53.1201 1.3844a10.333 10.333 0 00-10.333 0L10.1665 20.2178A10.3332 10.3332 0 005 29.1665v37.667a10.333 10.333 0 005.1665 8.9486l32.6206 18.8335a10.333 10.333 0 0010.333 0l32.6205-18.8335a10.333 10.333 0 005.1666-8.9486v-37.667a10.3332 10.3332 0 00-5.1666-8.9487L53.1201 1.3844z" fill="#34495E"/>
  <path d="M39.1575 57.9224a5.7696 5.7696 0 01-1.05-.375c-.7687 1.2075-2.55 4.2637-2.805 7.0312h4.6125a23.3307 23.3307 0 01-.7575-6.6562zM54.105 55.47a34.3848 34.3848 0 00-2.1412 6.4425c-.1988.8925.405 1.7813.2925 2.6663h5.8012c-1.53-4.2225-1.875-10.365-2.6662-12.8213-.0188-.0337-1.2638 3.7425-1.2863 3.7125z" fill="#34495E"/>
  <path d="M70.62 40.9462c-1.32-1.875-4.3312-3.45-5.0325-5.5913-.18-.5475-.21-1.6725.135-2.1975.345-.525-.2025-.375-.2025-.375-.75.2888-1.0725-.5362-1.0725-.5362-.1125-.2888.0413-1.17-.6037-.69-1.1625.8737-.78 3-.5625 3.855a8.91 8.91 0 002.2125 3.8775c.375.3487 2.7375 2.9475 2.415 4.2787a1.0692 1.0692 0 01-.8063.9825c-1.7212.345-2.28-1.7662-2.28-1.7662-1.29-5.5088-3.375-7.4363-3.375-7.4363a40.9018 40.9018 0 00-10.0725.885c-12.8887-.4837-22.5862 3.4763-22.5862 3.4763-2.835 4.0687-4.5 11.625-4.5 11.625s0 .0375.0262.0412a.1006.1006 0 00.0975-.0487 23.7725 23.7725 0 013.5888-3.6225c-.27 10.5 2.1075 16.875 2.1075 16.875h4.5c.3187-3.7838 3.2887-7.9538 3.2887-7.9538 1.6725 1.2675 5.4525.8925 5.4525.8925.6675 2.5275 2.025 7.0575 2.025 7.0575h5.4225a34.2851 34.2851 0 012.9513-9.99s1.3425-3.045 1.3762-3.96c.0863-1.5937 1.5938-2.0662 2.4113-2.0662.8175 0 4.5375 2.0775 7.3162 1.9387 4.8413-.2437 6.75-2.4825 6.8438-5.0362.075-1.755-.3375-3.4613-1.0763-4.515zm-15.5587 5.4112a.8382.8382 0 01-.1013.2025.5551.5551 0 01-.1912.1763.5214.5214 0 01-.2738.06.8076.8076 0 01-.2475-.0563 2.3575 2.3575 0 01-.705-.495c-.1012-.0937-.195-.1912-.285-.285l-.2625-.2737a1.6771 1.6771 0 00-.555-.3113c-.2212-.0787-.4612-.1425-.7125-.2025-.2512-.06-.5025-.1237-.7762-.2137a1.8571 1.8571 0 01-.2175-.0863l-.1088-.0412a.9113.9113 0 01-.1425-.1013.9335.9335 0 01-.21-.2625 1.1424 1.1424 0 01-.105-.2775 1.8486 1.8486 0 01-.0375-.495 3.2602 3.2602 0 01.0488-.435 6.3726 6.3726 0 01.2062-.7987c.0825-.25.1738-.5.2738-.75.0487-.1238.0975-.2438.1537-.375a3.9772 3.9772 0 01.195-.375 4.2186 4.2186 0 011.095-1.2113c.214-.161.4411-.304.6788-.4275a3.8698 3.8698 0 01.75-.3 6.8574 6.8574 0 00-1.155 1.0163 4.6145 4.6145 0 00-.8213 1.2112 3.2434 3.2434 0 00-.1275.3338l-.1162.375c-.075.2437-.15.4875-.21.7312a6.7568 6.7568 0 00-.1538.7163 2.9154 2.9154 0 00-.0337.3375c-.005.0943.0025.1889.0225.2812a.2427.2427 0 00.06.1275l.0525.03.1462.06c.2175.0825.4688.1463.72.225.2617.0781.5185.172.7688.2813.2859.1169.5422.2963.75.525.0937.1162.1612.2175.24.3225l.2287.3037a3.399 3.399 0 00.2363.2775c.0746.0825.159.1555.2512.2175a.3038.3038 0 00.2288.0638.4201.4201 0 00.2212-.1913 1.7797 1.7797 0 00.165-.3337c.0488-.12.0863-.2438.1275-.375.0249.2684.0007.539-.0712.7987zm4.7925-3.345a.8212.8212 0 11-.33-.945.72.72 0 01.33.945z" fill="#34495E"/>
</svg>
