<svg xmlns="http://www.w3.org/2000/svg" width="80" height="81" fill="none"><path fill="#fff" d="M35.935 3.231a8 8 0 0 1 8.13 0l25.197 14.864a8 8 0 0 1 3.936 6.89v30.03a8 8 0 0 1-3.936 6.89L44.065 76.769a8 8 0 0 1-8.13 0L10.738 61.905a8 8 0 0 1-3.936-6.89v-30.03a8 8 0 0 1 3.936-6.89L35.935 3.231Z"/><path fill="#87BE4C" fill-rule="evenodd" d="M70.23 19.106 43.017 3.394a6.034 6.034 0 0 0-6.034 0L9.77 19.106a6.034 6.034 0 0 0-3.017 5.226v31.423A6.034 6.034 0 0 0 9.77 60.98l27.213 15.712a6.034 6.034 0 0 0 6.034 0L70.23 60.981a6.034 6.034 0 0 0 3.017-5.226V24.332a6.034 6.034 0 0 0-3.017-5.226ZM44.31 1.155a8.62 8.62 0 0 0-8.62 0L8.477 16.866a8.62 8.62 0 0 0-4.31 7.466v31.423a8.62 8.62 0 0 0 4.31 7.465L35.69 78.932a8.62 8.62 0 0 0 8.62 0L71.523 63.22a8.62 8.62 0 0 0 4.31-7.465V24.332a8.62 8.62 0 0 0-4.31-7.466L44.31 1.155Z" clip-rule="evenodd"/><path fill="#88BE4D" d="M40.669 15.057h.136a134.048 134.048 0 0 1 .64 0 23.35 23.35 0 0 1 2.281.085l.082.008c2.349.226 4.647.784 8.806 2.526l.09.045c.453.222.893.46 1.328.715l.086.05a22.73 22.73 0 0 1 1.302.828 22.26 22.26 0 0 1 1.51 1.1l.063.048c.215.167.425.34.63.519.103.09.208.177.314.263.165.134.318.28.472.426.104.1.209.197.316.293.204.184.397.38.59.576l.196.196.125.127.058.059c.114.115.222.234.328.357.072.084.148.165.224.247.135.146.263.295.386.45.081.1.165.197.248.295.18.21.35.425.517.644l.051.067.16.209c.017.021.034.043.05.066.226.295.226.295.215.387-.029.076-.058.097-.125.142l-.066.045-.074.048-.16.107-.086.058-.33.225-.51.35-.076.05-.519.355-.176.12-.25.17-.075.051a15.164 15.164 0 0 1-.262.175c-.132.082-.132.082-.22.08-.097-.053-.156-.147-.222-.234l-.048-.062a26.793 26.793 0 0 1-.144-.189l-.041-.054-.038-.05-.074-.097-.037-.049c-.117-.153-.24-.3-.365-.446a9.632 9.632 0 0 1-.208-.256 8.197 8.197 0 0 0-.43-.482 7.135 7.135 0 0 1-.26-.29c-.144-.166-.3-.32-.455-.476l-.157-.158a8.358 8.358 0 0 0-.48-.457c-.078-.067-.152-.137-.227-.207a8.337 8.337 0 0 0-.433-.375 11.648 11.648 0 0 1-.228-.192 11.798 11.798 0 0 0-.7-.561 19.533 19.533 0 0 0-1.965-1.324l-.07-.042a29.086 29.086 0 0 0-1.12-.622 6.952 6.952 0 0 1-.53-.31c.019-.113.05-.21.096-.315l.043-.098.046-.107.072-.169.135-.314.219-.508.091-.213.057-.131.026-.061a.557.557 0 0 0 .06-.242c-2.203-.979-4.502-1.667-10.023-2.2h-.207a20.948 20.948 0 0 0-2.34.115c-2.297.23-4.578.807-6.929 1.78l-.094.04c-.853.361-1.7.771-2.502 1.238l-.095.055c-1.435.84-2.803 1.799-4.033 2.924-.06.055-.12.11-.183.163-.328.29-.64.595-.949.907l-.192.194-.125.125-.057.057a6.748 6.748 0 0 0-.326.357c-.063.073-.128.144-.194.215-.123.136-.239.275-.354.418-.066.081-.133.16-.202.24a11.05 11.05 0 0 0-.552.704 21.676 21.676 0 0 0-1.763 2.642l-.056.097-.163.286-.049.086a2.765 2.765 0 0 0-.215.474l.066.025c.085.036.162.077.243.123l.091.051.098.056.101.058c.291.165.581.331.87.498l.321.185.172.1c-.017.13-.047.232-.104.35l-.047.098-.05.106a21.943 21.943 0 0 0-.946 2.365l-.035.102c-.502 1.488-.808 3.043-.986 4.602l-.01.09a14.71 14.71 0 0 0-.062 1.509v.085a221.02 221.02 0 0 0-.002.807c-.004.74.012 1.467.099 2.202l.01.092c.021.178.045.356.071.533l.012.08a22.01 22.01 0 0 0 1.386 5.134l.045.11c.368.901.797 1.78 1.3 2.614.04.067.079.135.117.204.395.698.863 1.36 1.345 1.998l.037.05a19.903 19.903 0 0 0 1.238 1.487c.13.148.264.29.405.428.06.062.115.124.17.19.106.122.219.232.337.341l.127.12.066.06.192.183c.196.187.393.37.605.54.08.066.158.133.237.202.214.187.434.364.661.535l.062.047c.564.426 1.137.835 1.746 1.193.085.05.167.103.25.156.314.195.638.372.96.55l.077.043a18.95 18.95 0 0 0 1.905.9l.07.03c.064.033.105.07.152.123a59.24 59.24 0 0 1-.64 1.823c-.2.462-.2.462-.296.944 2.3.846 4.627 1.466 7.607 1.703l.1.007c2.53.156 5.088-.136 13.452-3.23l.084-.05a23.103 23.103 0 0 0 3.961-2.9l.142-.128a27.5 27.5 0 0 0 1.239-1.199l.124-.124c.018-.02.037-.038.056-.057a7.55 7.55 0 0 0 .37-.408c.03-.033.057-.066.086-.1a25.835 25.835 0 0 0 1.19-1.488c.522-.681.997-1.388 1.441-2.123a.755.755 0 0 1 .305.094l.064.037.065.039.068.039.163.096a1.125 1.125 0 0 1-.17.392l-.068.1-.072.106-.074.11c-.073.11-.146.217-.22.326l-.061.09c-.233.34-.474.675-.724 1.004l-.076.101c-.376.499-.774.98-1.192 1.444a20.231 20.231 0 0 1-1.112 1.192 107.358 107.358 0 0 0-.358.361 6.665 6.665 0 0 1-.347.322c-.078.068-.154.14-.23.21a8.3 8.3 0 0 1-.43.373c-.1.082-.197.166-.294.251-.208.18-.421.353-.64.521l-.067.052a26.908 26.908 0 0 1-2.83 1.894l-.083.049a22.063 22.063 0 0 1-2.845 1.411l-.065.026c-2.385.973-4.903 1.595-7.813 1.83l-.064.003c-.531.031-1.062.033-1.594.032h-.069a26.326 26.326 0 0 1-2.238-.072c-2.475-.206-4.938-.796-10.35-3.26a22.639 22.639 0 0 1-2.467-1.63l-.065-.05a44.246 44.246 0 0 1-.505-.39c-.218-.169-.43-.342-.637-.524a9.973 9.973 0 0 0-.314-.263 8.06 8.06 0 0 1-.471-.426c-.104-.1-.21-.197-.317-.293-.204-.184-.397-.38-.59-.576a90.041 90.041 0 0 0-.321-.323l-.058-.058a6.754 6.754 0 0 1-.328-.358c-.072-.084-.148-.165-.224-.246a8.056 8.056 0 0 1-.386-.451 9.486 9.486 0 0 0-.199-.236c-.203-.235-.391-.48-.577-.728a21.136 21.136 0 0 0-.146-.192c-.849-1.102-1.577-2.294-2.228-3.523l-.049-.093c-1.135-2.137-1.929-4.468-2.456-7.236a28.156 28.156 0 0 1-.266-1.887l-.01-.088-.026-.252-.008-.072c-.05-.503-.057-1.01-.057-1.516v-.173a214.682 214.682 0 0 1-.001-.72c-.003-.92.019-1.83.13-2.743l.01-.08c.317-2.615 1.004-5.166 3.225-9.746l.149-.256c.353-.61.727-1.208 1.14-1.779l.052-.07a26.577 26.577 0 0 1 1.392-1.766c.216-.257.442-.504.672-.748l.17-.183c.195-.212.393-.42.595-.626l.058-.059c.116-.116.235-.225.358-.333.061-.053.118-.11.174-.168.096-.098.195-.19.299-.279.07-.062.14-.125.209-.189.13-.118.265-.23.401-.342.076-.063.151-.127.226-.192.218-.189.445-.362.676-.534.06-.044.119-.09.178-.135 2.184-1.672 4.644-2.917 8.787-4.26l.063-.016a25.934 25.934 0 0 1 4.271-.72l.065-.007c.408-.035.814-.052 1.224-.051Z"/><path fill="#87BE4C" d="M41.101 20.533c2.313-.036 4.606.305 8.404 1.675a74.44 74.44 0 0 0 .371.157.53.53 0 0 0 .232.056l.151-.274c.19.014.343.103.51.188l.096.049c.35.18.688.38 1.024.584l.086.052c.352.214.695.438 1.03.678l.066.046a23.643 23.643 0 0 1 1.818 1.445c.35.307.681.631 1.009.962l.2.203.13.13.06.06c.309.313.309.313.312.411-.121.216-.36.385-.546.544a323.372 323.372 0 0 0-.26.225c-.113.097-.224.197-.334.298-.132.123-.27.238-.41.352a9.8 9.8 0 0 0-.384.342.665.665 0 0 1-.22-.156l-.05-.05a6.768 6.768 0 0 1-.158-.18 7.879 7.879 0 0 0-.385-.407l-.07-.07a6.773 6.773 0 0 0-.392-.368 2.57 2.57 0 0 1-.153-.15c-.11-.112-.23-.21-.353-.31a10.665 10.665 0 0 1-.228-.191 16.365 16.365 0 0 0-2.984-2.03 14.735 14.735 0 0 1-.213-.117c-2.196-1.216-4.808-1.868-8.649-1.962h-.105c-2.537.04-5.065.775-7.32 1.915l-.096.049a16.6 16.6 0 0 0-1.715 1.016l-.059.04a16.128 16.128 0 0 0-2.03 1.614c-.074.07-.15.139-.228.207-.14.126-.272.258-.405.391l-.061.061c-.117.118-.228.24-.337.366-.073.085-.15.168-.227.25-.16.173-.31.353-.456.538l-.09.108c-.369.451-.713.92-1.027 1.412l-.042.066a20.06 20.06 0 0 0-1.045 1.85c-.014.03-.03.059-.044.09-1.095 2.183-1.732 4.72-1.744 7.17v.07l-.002.52v.078c0 .747.007 1.486.12 2.226l.03.205c.089.597.2 1.189.342 1.776l.023.093a17.566 17.566 0 0 0 1.215 3.343l.043.09a18.775 18.775 0 0 0 1.034 1.848c.126.202.262.394.402.586l.078.111c.253.361.523.706.808 1.042.076.09.15.18.223.273.09.111.184.215.287.315.05.051.097.104.143.16.134.154.277.298.42.442l.138.139c.16.162.325.319.499.468l.145.133c.159.144.323.28.489.414l.102.085c2.15 1.762 4.765 3.003 10.998 3.905h.116c2.72-.004 5.375-.636 11.125-4.034.076-.064.152-.125.229-.187.14-.116.275-.239.407-.364a7.08 7.08 0 0 1 .251-.226c.17-.15.33-.313.49-.475l.163-.165c.16-.161.32-.323.467-.498.042-.05.083-.096.131-.139.153-.002.25.1.36.194l.122.1.062.052c.09.074.181.146.273.219l.105.082.159.126c.235.185.469.373.7.565l.187.154.145.12c-.062.39-.647.838-.919 1.107-.048.05-.092.101-.136.155-.08.095-.167.173-.26.254-.094.084-.182.173-.27.263a6.681 6.681 0 0 1-.529.49c-2.044 1.785-4.449 3.188-11.68 4.938l-.1.008c-.44.031-.88.03-1.32.03h-.064c-.716 0-1.426-.02-2.138-.098l-.074-.008a22.62 22.62 0 0 1-2.1-.327l-.062-.013c-2.564-.533-4.952-1.538-8.329-3.91l-.086-.07c-.305-.25-.605-.505-.895-.774a8.232 8.232 0 0 0-.196-.173c-.115-.1-.222-.21-.33-.32a3.962 3.962 0 0 0-.25-.235 2.315 2.315 0 0 1-.264-.274 5.407 5.407 0 0 0-.242-.252 6.503 6.503 0 0 1-.393-.426l-.08-.093c-1.763-2.05-3.102-4.434-4.832-10.863l-.01-.067c-.108-.796-.13-1.593-.128-2.395v-.302c-.005-.693.025-1.374.1-2.064l.01-.088c.016-.154.035-.308.056-.461l.01-.068a20.49 20.49 0 0 1 1.816-6.04l.046-.097.04-.085c.044-.064.044-.064.105-.09.085-.006.141.02.218.054l.082.035.062.028.025-.081a1.42 1.42 0 0 1 .12-.258l.052-.088.056-.094a58.473 58.473 0 0 0 .174-.297l.147-.252a18.932 18.932 0 0 1 2.428-3.288l.103-.116c.18-.204.367-.397.558-.589l.155-.156c.155-.156.31-.31.476-.453.084-.072.163-.148.243-.224.172-.161.35-.312.534-.46l.108-.09c1.823-1.517 3.964-2.675 6.2-3.438l.103-.035a19.583 19.583 0 0 1 5.952-1.031Z"/><path fill="#0AA0C8" d="m52.282 27.469.053.044c.224.187.441.381.654.581l.149.137c.237.22.47.44.68.686.066.076.135.15.204.224a9.747 9.747 0 0 1 .607.711c.236.292.456.593.67.901l.05.07c.323.464.63.94.896 1.44l.035.064c.046.09.076.148.076.25a80.42 80.42 0 0 1-1.563.749l-.1.047c-.087.026-.087.026-.154.007-.1-.078-.152-.188-.214-.297l-.043-.07-.04-.07-.037-.062c-.028-.075-.023-.108.008-.182.044-.042.044-.042.1-.08l.062-.043.068-.046.14-.096.072-.05c.13-.091.257-.187.384-.284.134-.1.134-.1.2-.1-.19-.32-.412-.615-.633-.912l-.053-.07a14.52 14.52 0 0 0-.875-1.07 4.675 4.675 0 0 1-.108-.124c-.175-.209-.37-.4-.561-.593a79.802 79.802 0 0 1-.184-.184 8.882 8.882 0 0 0-.574-.544l-.1-.09a15.132 15.132 0 0 0-.745-.61l-.063-.048c-2.15-1.642-4.664-2.749-8.106-3.307l-.06-.007a10.835 10.835 0 0 0-1.421-.08h-.516c-.599-.003-1.19.02-1.787.066l-.453.03-.03 1.309-.536.121c-1.098.254-2.153.587-3.176 1.065l-.164.074a13.38 13.38 0 0 0-3.389 2.264l-.18.161c-.357.314-.688.645-1.006.998l-.078.084c-.162.18-.316.365-.466.555l-.045.057a15.177 15.177 0 0 0-1.705 2.71l-.042.083c-1.202 2.396-1.681 5.198-.793 11.072.261.8.58 1.564.955 2.317l.042.084c.476.956 1.088 1.836 1.77 2.653l.038.047c.387.467.797.93 1.255 1.326.075.066.147.133.22.201.173.16.355.304.54.448l.185.147a14.155 14.155 0 0 0 2.154 1.401c1.404.765 2.87 1.199 4.421 1.54v1.185a30.713 30.713 0 0 0 2.1.124c.166.003.33.001.496-.002l.097-.002a16.361 16.361 0 0 0 6.363-1.427l.093-.042c.445-.197.873-.416 1.295-.658l.075-.042a15.259 15.259 0 0 0 2.503-1.772l.149-.127a17.867 17.867 0 0 0 1.141-1.07 7.615 7.615 0 0 0 .478-.53c.248-.29.49-.585.725-.885l.044-.056c.075-.096.075-.096.137-.201a16.24 16.24 0 0 1-.053-.024.907.907 0 0 1-.19-.145 7.911 7.911 0 0 0-.321-.278l-.084-.07a3.112 3.112 0 0 0-.139-.105c-.05-.038-.05-.038-.118-.108-.017-.177.112-.319.21-.456a.758.758 0 0 1 .343.12l.093.057.097.06.203.126.102.063c.09.056.182.11.274.166l.081.048.15.089c.421.253.421.253.469.396-.024.052-.024.052-.063.11l-.043.065-.049.07-.05.074a25.745 25.745 0 0 1-.206.299c-.352.502-.722.992-1.129 1.45l-.066.075a20.29 20.29 0 0 1-.729.76l-.212.215-.138.139-.063.063a7.801 7.801 0 0 1-.421.39l-.107.095a15.288 15.288 0 0 1-2.429 1.76l-.053.032c-2.208 1.294-4.66 2.064-7.901 2.286h-.066a132.865 132.865 0 0 1-.624.002 14.695 14.695 0 0 1-2.449-.168l-.06-.01c-2.446-.386-4.819-1.315-8.17-3.74a8.191 8.191 0 0 0-.244-.202c-.373-.307-.712-.655-1.053-.997l-.044-.045a8.863 8.863 0 0 1-.495-.533l-.095-.109c-.219-.251-.43-.507-.63-.773l-.048-.065a19.176 19.176 0 0 1-1.551-2.46l-.047-.089a17.063 17.063 0 0 1-1.196-3.005 15.62 15.62 0 0 1-.648-4.101 23.11 23.11 0 0 1-.01-1.076v-.09c.038-2.433.681-4.871 3.43-9.773l.123-.16c.139-.18.281-.358.428-.532l.04-.046c.311-.365.646-.707.984-1.046a90.695 90.695 0 0 0 .425-.428c1.95-1.956 4.659-3.314 9.752-4.408l.097-.011c2.91-.315 6.007.242 12.309 3.843Z"/><path fill="#87BE4C" d="M60.19 50.095c.169.015.311.05.468.116l.064.026a29.613 29.613 0 0 1 .356.149l.23.095c.163.069.327.136.49.201a92.747 92.747 0 0 1 .706.284l.067.026c.145.06.145.06.187.135a.442.442 0 0 1-.056.197l-.039.082-.043.088-.046.093a22.786 22.786 0 0 1-1.06 1.914 16.086 16.086 0 0 1-.69 1.064l-.039.055a22.187 22.187 0 0 1-1.878 2.358 7.213 7.213 0 0 0-.097.11c-.22.252-.456.487-.692.724a92.69 92.69 0 0 0-.22.222l-.143.144-.066.066a7.026 7.026 0 0 1-.375.351c-.072.063-.142.128-.212.194a8.946 8.946 0 0 1-.418.358l-.225.19c-.217.19-.444.363-.675.534l-.183.139a17.339 17.339 0 0 1-.953.682 22.953 22.953 0 0 1-5.053 2.57c-.031.013-.031.013-.063.024a23.233 23.233 0 0 1-5.395 1.264l-.118.013a17.84 17.84 0 0 1-.4.038l-.095.008a21.93 21.93 0 0 1-1.845.062h-.14a20.378 20.378 0 0 1-2.207-.1l-.081-.01c-3.69-.407-3.69-.407-5.02-1.116.017-.14.043-.264.09-.397l.038-.108.042-.116.043-.122c.165-.462.337-.922.509-1.38l.026-.07c.041-.11.084-.221.128-.33.259.039.508.107.759.18a20.96 20.96 0 0 0 3.95.732l.06.005c2.665.24 5.386-.107 10.808-2.09a15.8 15.8 0 0 0 1.477-.804l.076-.046a20.216 20.216 0 0 0 2.52-1.81l.053-.044c.223-.186.438-.38.65-.578l.114-.102c.216-.193.42-.397.624-.602l.175-.177c.182-.183.36-.367.527-.565l.147-.161a8.98 8.98 0 0 0 .352-.415l.163-.202a18.248 18.248 0 0 0 .775-1.023 19.38 19.38 0 0 0 .69-1.038 22.92 22.92 0 0 0 1.163-2.087Z"/><path fill="#88BE4C" d="m46.362 17.753.178.04c.575.132 1.133.315 1.693.5l.112.036a91.993 91.993 0 0 1 .417.138c.415.14.415.14.531.213.04.122-.002.19-.052.3l-.027.064-.09.208-.063.144a86.75 86.75 0 0 0-.304.704l-.053.123-.025.06c-.106.247-.212.493-.322.738a6.468 6.468 0 0 1-.777-.236c-1.456-.522-2.976-.835-4.512-.99l-.075-.007c-.614-.06-1.223-.08-1.84-.08h-.112a17.228 17.228 0 0 0-1.739.073c-2.424.232-4.75.907-6.942 1.97l-.084.04a18.035 18.035 0 0 0-3.667 2.38l-.226.184a8.91 8.91 0 0 0-.43.384 8.605 8.605 0 0 1-.208.187c-.414.364-.83.748-1.186 1.17-.06.07-.122.138-.184.206-.15.16-.294.324-.43.496-.057.07-.113.14-.17.208a21.389 21.389 0 0 0-1.427 1.973c-.064.097-.13.19-.198.284a.86.86 0 0 1-.317-.117l-.097-.055-.105-.06-.109-.061a75.598 75.598 0 0 1-.338-.194l-.055-.031-.368-.212-.095-.055a13.921 13.921 0 0 1-.599-.37.68.68 0 0 1 .115-.33l.054-.082.06-.088.06-.093.194-.29.06-.09c.289-.427.592-.84.906-1.248l.092-.12c.16-.207.325-.409.494-.607.07-.083.137-.168.204-.253.177-.22.373-.422.566-.626.06-.063.118-.127.176-.19.252-.276.516-.536.79-.79l.184-.175c.187-.178.375-.35.577-.513.105-.086.207-.176.309-.267a9.82 9.82 0 0 1 .571-.465l.162-.123a20.524 20.524 0 0 1 2.19-1.475 23.575 23.575 0 0 1 4.28-1.968l.06-.021a21.277 21.277 0 0 1 5.735-1.104l.089-.006c2.142-.121 4.277.09 6.367.569Z"/><path fill="#099FC8" d="M41.66 28.404h.09c2.126.01 4.209.532 6.053 1.615l.057.033c.097.06.158.105.196.215-.09.077-.182.153-.275.227l-.122.1a11.18 11.18 0 0 1-.209.167l-.067.056c-.158.121-.158.121-.276.114-.186-.051-.357-.148-.527-.239a10.682 10.682 0 0 0-1.21-.517l-.086-.032c-2.607-.96-5.514-.735-8.034.367l-.076.033a9.327 9.327 0 0 0-2.098 1.305l-.087.07c-.161.132-.318.268-.472.41l-.149.134a7.807 7.807 0 0 0-.77.785l-.08.09c-.542.62-.985 1.31-1.37 2.039l-.031.059c-.625 1.186-.984 2.505-1.146 3.833l-.008.059a4.79 4.79 0 0 0-.027.599v.11a179.259 179.259 0 0 0-.002.58 9.34 9.34 0 0 0 .151 1.814c.186.985.504 1.93.943 2.83l.046.094a9.863 9.863 0 0 0 1.204 1.905c.478.592 1.014 1.186 1.617 1.65l.12.097c1.744 1.407 4.021 2.303 6.266 2.311h.115l.24.002c.12 0 .239 0 .359.002a8.596 8.596 0 0 0 1.795-.167l.097-.02c.88-.18 1.73-.466 2.539-.857l.075-.036a9.176 9.176 0 0 0 1.242-.72c.03-.019.058-.039.087-.059l.168-.117.077-.054.068-.048c.064-.03.064-.03.13-.023a.35.35 0 0 1 .15.128c.082.098.165.194.251.289.123.137.237.28.348.427-.047.13-.144.195-.251.272l-.06.044c-1.67 1.192-3.614 1.893-5.636 2.148l-.066.008a5.903 5.903 0 0 1-.652.028h-.06a109.645 109.645 0 0 1-.568.003 11.327 11.327 0 0 1-2.297-.212l-.154-.03a77.016 77.016 0 0 1-.368-.071l-.013.067-.057.306-.02.105c-.043.228-.093.453-.152.678a3.024 3.024 0 0 1-.728-.137l-.111-.033c-1.499-.449-2.942-1.163-4.171-2.142l-.075-.058a15.104 15.104 0 0 1-1.404-1.273 5.98 5.98 0 0 1-.45-.505 5.312 5.312 0 0 0-.187-.22 5.826 5.826 0 0 1-.337-.42l-.059-.08c-.188-.257-.366-.52-.537-.789l-.034-.054c-.17-.27-.32-.55-.47-.83l-.057-.107a8.044 8.044 0 0 1-.344-.742.808.808 0 0 1 .33-.274c.02-.01.04-.02.06-.032l.19-.1.13-.067.316-.166a1.612 1.612 0 0 0-.098-.408l-.042-.11-.022-.06a12.863 12.863 0 0 1-.678-2.577l-.01-.061c-.08-.519-.091-1.028-.091-1.552l-.002-.336a9.77 9.77 0 0 1 .132-1.735l.02-.11c.383-2.106 1.26-4.06 2.632-5.702l.037-.045c.217-.262.443-.51.683-.749l.156-.158c.202-.203.41-.39.633-.569l.12-.099c1.65-1.374 3.654-2.235 5.76-2.584l.083-.014c.537-.085 1.075-.111 1.617-.108Z"/><path fill="#089FC7" d="M41.245 25.151h.082l.262-.001h.091a15.065 15.065 0 0 1 6.509 1.481c.4.186.784.4 1.165.625l.09.053c.384.23.757.47 1.117.737l.063.047a14.914 14.914 0 0 1 .846.67c.218.184.428.373.635.57l.187.174.137.128.064.06c.122.116.236.235.344.364.05.057.1.11.154.162.191.19.361.401.532.61l.054.066.153.19.048.06c.105.136.105.136.099.215-.032.075-.067.102-.133.15l-.069.05-.075.054a37.84 37.84 0 0 1-.322.232l-.08.057a29.12 29.12 0 0 1-.886.612c-.132-.047-.197-.15-.278-.259a6.335 6.335 0 0 0-.378-.457 4.225 4.225 0 0 1-.109-.123c-.168-.198-.351-.381-.535-.566a68.762 68.762 0 0 1-.17-.171 8.881 8.881 0 0 0-.553-.522l-.096-.086a10.892 10.892 0 0 0-1.293-.97 19.91 19.91 0 0 1-.123-.081c-1.559-1.03-3.31-1.661-5.141-1.975l-.066-.011c-.725-.126-1.45-.143-2.183-.15l-.938-.012v-1.946c.56-.036.56-.036.796-.037Z"/><path fill="#079EC7" d="M51.678 48.878c.135.045.236.122.345.211l.113.092.058.047.269.213.104.083.22.173c.177.14.352.279.52.428a.777.777 0 0 1-.201.314l-.076.081-.04.044a6.571 6.571 0 0 0-.142.161 7.121 7.121 0 0 1-.327.35l-.06.06-.124.126-.187.19c-.197.199-.394.391-.614.565a3.46 3.46 0 0 0-.21.185c-.19.175-.397.33-.604.487l-.21.16a12.104 12.104 0 0 1-1.07.722 15.41 15.41 0 0 1-6.203 2.16l-.061.008c-.518.062-1.03.08-1.55.08l-.322.001h-.303c-.167 0-.306-.011-.463-.068a35.35 35.35 0 0 1-.03-2.007c.1-.022.193-.034.296-.035h.085l.092-.002.197-.002.104-.001c2.865-.037 5.576-.82 8.703-3.153l.051-.043c.212-.178.414-.36.607-.559a2.61 2.61 0 0 1 .18-.164c.2-.173.373-.376.55-.572l.05-.054.253-.28Z"/><path fill="#A7D17F" d="m26.051 23.09.06.03c-.253.281-.514.554-.78.823l-.189.191-.122.123-.056.057a1.22 1.22 0 0 1-.301.235c.049-.125.138-.206.232-.296.104-.103.207-.206.302-.318.169-.199.355-.378.553-.548.105-.095.203-.196.301-.298Z"/><path fill="#B7E3EF" d="m47.03 52.467.06.03c-.462.255-.96.426-1.459.595l-.067.023a.757.757 0 0 1-.255.051v.061a.552.552 0 0 1-.217.032l-.115-.002c.1-.067.198-.1.312-.135l.136-.045.072-.023c.448-.147.885-.305 1.315-.497l.067-.03.08-.035.07-.025Z"/><path fill="#A9CF80" d="m24.391 21.66.06.03a298.433 298.433 0 0 1-.99 1.006l-.072.072-.063.064c-.052.045-.052.045-.112.045v.06h-.06c.047-.116.121-.19.21-.279l.044-.045a20.782 20.782 0 0 1 .235-.235c.148-.149.298-.294.457-.431a3.22 3.22 0 0 0 .186-.178l.06-.063.045-.046Z"/><path fill="#A7DCEB" d="M38.94 24.397h.513v.03l-.453.031-.03 1.308c-.543.121-.543.121-.694.121.082-.082.17-.09.281-.11l.06-.012a1.59 1.59 0 0 1 .323-.03v-1.338Z"/><path fill="#BAE4EF" d="M43.105 27.195c.406-.014.788.046 1.178.152l.18.045c.212.053.424.109.635.168a.404.404 0 0 1-.266 0l-.09-.023a13.507 13.507 0 0 0-1.143-.232l-.074-.012-.42-.067v-.031Z"/><path fill="#C2E7F1" d="m50.229 50.338.06.03a8.769 8.769 0 0 1-.949.785l-.22.164-.069.051c-.089.065-.167.12-.27.161l-.061.026-.03.09-.121-.03.085-.058a13.976 13.976 0 0 0 1.494-1.149l.08-.07Z"/><path fill="#A8DDEB" d="M44.283 29.78c.195.022.383.072.573.122v.06l.07.01c.345.054.617.162.926.325-.103.035-.117.028-.212-.012a93.546 93.546 0 0 0-.156-.064 7.555 7.555 0 0 0-.933-.303 53.616 53.616 0 0 0-.078-.02.614.614 0 0 1-.19-.118Z"/><path fill="#AAD082" d="m27.772 25.979.06.03c-.21.235-.426.465-.647.69l-.07.073-.067.068-.06.06a.618.618 0 0 1-.212.113 5.854 5.854 0 0 1 .43-.468l.17-.17.115-.115.28-.282Z"/><path fill="#8AD2E5" d="M30.066 37.809h.03c.01.209-.027.395-.072.598a7.47 7.47 0 0 0-.134.984c-.006.072-.019.142-.035.212h-.03c-.01-.278.014-.544.059-.818l.03-.187c.042-.265.093-.527.152-.79Z"/><path fill="#56BDD9" d="m30.307 27.864.06.03-.045.045-.062.062-.06.06c-.06.062-.116.125-.172.19a7.013 7.013 0 0 1-.368.389l-.067.066-.161.162-.09-.03.965-.974Z"/><path fill="#9CD8E8" d="M49.565 26.526c.159.016.28.098.415.178l.071.042.068.04.062.037c.048.037.048.037.078.129a1.649 1.649 0 0 1-.357-.184 31.6 31.6 0 0 0-.075-.046l-.076-.047c-.139-.085-.139-.085-.186-.119v-.03Z"/><path fill="#BAE3EF" d="M46.063 25.005c.171.02.331.06.497.109l.075.021.183.053v.06l.06.031a4.46 4.46 0 0 1-.56-.156l-.075-.025-.18-.062v-.03Z"/><path fill="#BEE5EF" d="m49.233 51.16.06.03-.253.182-.072.053-.07.05-.064.046c-.054.033-.054.033-.114.033l-.03.092-.121-.03.23-.16.065-.046c.122-.084.245-.168.369-.25Z"/><path fill="#A4DCEA" d="M45.098 27.59c.185-.01.343.01.513.092.053.048.053.048.09.09a4.719 4.719 0 0 1-.603-.151v-.03Z"/><path fill="#ADD685" d="M54.778 52.106c.07.026.07.026.1.087l-.067-.007c-.112.01-.15.052-.23.129l-.072.068-.054.053c0-.117.032-.138.111-.22l.063-.067c.067-.047.067-.047.149-.043Z"/><path fill="#C2E7F0" d="m48.569 29.11.15.031v.061l.069.023c.089.04.138.087.203.16-.108-.04-.2-.09-.296-.154l-.072-.049-.054-.04v-.031Z"/><path fill="#B4D68B" d="m35.107 60.921.21.03v.031l-.067.002c-.096.033-.105.051-.153.137l-.05.104c-.03-.06-.03-.06-.014-.12l.026-.066c.01-.022.018-.044.027-.067l.02-.05Z"/><path fill="#A5DCEB" d="m50.893 53.41.06.03a.347.347 0 0 1-.179.158l-.063.032c-.06.023-.06.023-.15.023l.332-.243Z"/><path fill="#ACDEEC" d="M48.961 26.191a.967.967 0 0 1 .332.122v.06a1.16 1.16 0 0 1-.332-.151v-.03Z"/><path fill="#81CBE3" d="M53.972 48.483c.088.011.088.011.18.03l.031.061a10.546 10.546 0 0 1-.066-.006c-.1.007-.153.04-.236.097l.09-.182Z"/><path fill="#8FD4E6" d="m54.304 32.639.06.03-.043.053a.42.42 0 0 0-.078.19c-.06-.09-.06-.09-.054-.154.024-.059.024-.059.115-.12Z"/><path fill="#9CDAEA" d="m47.663 49.578.06.03c-.113.092-.113.092-.18.092l-.03.09-.121-.03.271-.182Z"/><path fill="#7BCCE1" d="M31.817 33.733c.02.054.02.054.03.122-.04.069-.04.069-.09.122h-.061c.034-.09.067-.162.12-.244Z"/><path fill="#81CDE3" d="M27.38 31.331c.02.053.02.053.03.122-.04.068-.04.068-.09.121h-.061c.034-.09.067-.162.12-.243Z"/><path fill="#A9DDEC" d="m48.78 51.463.06.03-.058.026c-.072.032-.072.032-.092.127l-.121-.03c.07-.05.14-.1.211-.153Z"/></svg>
