<svg xmlns="http://www.w3.org/2000/svg" width="96" height="96" fill="none"><path fill="#fff" d="M44 2.31a8 8 0 0 1 8 0l33.57 19.38a8 8 0 0 1 4 6.929V67.38a8 8 0 0 1-4 6.928L52 93.691a8 8 0 0 1-8 0L10.43 74.308a8 8 0 0 1-4-6.928V28.62a8 8 0 0 1 4-6.928L44 2.308Z"/><path fill="#86BD4A" fill-rule="evenodd" d="M84.19 22.902 51.57 4.07a7.233 7.233 0 0 0-7.233 0l-32.62 18.833A7.233 7.233 0 0 0 8.1 29.166v37.668a7.233 7.233 0 0 0 3.617 6.263l32.62 18.834a7.233 7.233 0 0 0 7.233 0l32.62-18.834a7.233 7.233 0 0 0 3.617-6.263V29.166a7.233 7.233 0 0 0-3.616-6.264ZM53.12 1.384a10.333 10.333 0 0 0-10.333 0l-32.62 18.834A10.333 10.333 0 0 0 5 29.166v37.668c0 3.691 1.97 7.102 5.166 8.948l32.621 18.834a10.333 10.333 0 0 0 10.333 0l32.62-18.834a10.333 10.333 0 0 0 5.167-8.948V29.166c0-3.691-1.97-7.102-5.166-8.948L53.12 1.384Z" clip-rule="evenodd"/><path fill="#86BD4A" fill-rule="evenodd" d="M47.356 24.112c-9.945.85-18.494 8.034-21.06 17.694-.875 3.299-1.043 7.406-.433 10.566 3.408 17.632 23.678 25.472 38.106 14.74 1.827-1.36 4.89-4.685 5.698-6.184.2-.373.2-.39-.018-.55-.33-.242-.322-.248-1.02.801-5.673 8.524-16.525 12.242-26.338 9.025-1.508-.495-1.45-.369-.882-1.914.47-1.28.496-1.202-.537-1.647-4.984-2.151-9.346-7.035-11.042-12.362-.784-2.465-.928-3.428-.934-6.283-.007-3.381.357-5.264 1.569-8.127.569-1.343.6-1.21-.417-1.771-.478-.264-.869-.545-.869-.626 0-.08.265-.585.589-1.12 5.808-9.62 17.55-13.58 28.21-9.515 1.225.468 1.19.387.68 1.557-.37.846-.381 1.137-.045 1.137.053 0 .629.32 1.28.71 2.121 1.277 3.839 2.756 5.454 4.696l.79.949 1.376-.923c.757-.507 1.376-.955 1.376-.995 0-.172-1.793-2.256-2.68-3.115-4.184-4.052-9.364-6.371-15.09-6.759-1.942-.13-2.057-.13-3.763.016Zm-.58 2.024c-4.534.585-8.85 2.619-12.036 5.671-1.599 1.532-3.593 4.004-3.593 4.453 0 .087 1.403.953 1.771 1.094.11.043.428-.308.963-1.066 4.676-6.617 13.29-9.473 21.056-6.98.572.183 1.076.296 1.12.25.2-.206.918-2.029.831-2.108-.175-.16-1.947-.698-3.292-.999-1.296-.29-5.505-.485-6.82-.316Zm.161 3.228c-5.865.856-11.1 4.396-13.897 9.396-.318.57-.458.722-.616.672-.358-.113-1.423 2.726-1.933 5.151-.325 1.548-.291 5.543.06 7.178 3.109 14.446 20.025 20.4 31.276 11.01.876-.73 2.2-2.108 2.2-2.288 0-.053-.418-.427-.928-.83l-.927-.733-1.026.965c-8.395 7.899-21.586 5.685-26.67-4.477-1.944-3.886-2.268-8.556-.884-12.732 3.863-11.657 18.823-15.289 27.483-6.673l.926.921.347-.297c.191-.163.62-.542.954-.84l.607-.543-.408-.477c-1.347-1.572-5.243-4.245-5.733-3.932-.132.085-.458.005-1.221-.3-2.946-1.179-6.548-1.618-9.61-1.17Zm.014 2.896c-7.965 1.345-13.788 8.58-13.323 16.549.775 13.3 16.18 19.943 26.34 11.36.934-.79 2.496-2.545 2.936-3.3l.208-.357-.614-.39c-1.057-.672-1.108-.69-1.245-.432-.104.193-.053.282.339.597l.46.37-.373.475c-2.942 3.747-7.5 5.901-12.496 5.905-2.06.001-1.933.045-2.039-.697-.078-.547-.09-.56-.558-.64-4.439-.758-8.816-4.65-10.332-9.187-2.647-7.919 2.113-16.435 10.191-18.235l.653-.145.054-.566c.03-.312.093-.604.139-.65.182-.183 4.03-.085 5.029.127 3.918.833 7.475 3.071 9.666 6.082.648.89.645.84.073 1.218-.522.345-.546.413-.26.742.201.232.205.232 1.047-.17l.846-.402-.312-.541c-3.24-5.622-10.006-8.799-16.43-7.713Zm2.112 1.302-.55.035v1.84l1.245.002c3.576.004 7.07 1.635 9.462 4.418l.566.657.702-.503c.386-.277.719-.582.739-.679.052-.253-2.195-2.457-3.22-3.158-2.668-1.825-6.008-2.8-8.944-2.612Zm-1.205 3.196c-7.215 1.38-11.359 8.938-8.554 15.6.06.147-.048.27-.446.502l-.526.309.395.785c1.368 2.715 4.013 4.951 7.006 5.92 1.142.37 1.092.383 1.266-.307.105-.417.175-.518.321-.462.104.04.705.133 1.337.207 2.528.297 5.242-.377 7.462-1.85l.623-.414-.374-.386c-.464-.478-.378-.485-1.36.12-4.467 2.755-10.727 1.37-13.696-3.03C35.52 45.168 44.54 34.426 54.03 38.61c.895.395.901.396 1.204.18.67-.476.657-.5-.556-1.07-2.11-.99-4.734-1.361-6.82-.962Zm10.67 19.833c-2.097 2.307-5.686 3.842-9.002 3.85l-.897.003v1.968H49.7c3.778-.002 7.485-1.602 10.258-4.429l.85-.867-.733-.594c-.886-.717-.831-.719-1.547.069Zm8.447 1.057c-4.188 8.02-13.268 12.07-22.2 9.901-.687-.167-1.27-.283-1.295-.258-.025.025-.23.555-.455 1.177l-.409 1.13.29.11c2.295.873 6.834 1.284 9.66.875 7.175-1.04 13.232-5.21 16.595-11.424.296-.548.539-1.043.539-1.1 0-.095-.399-.28-1.857-.857l-.526-.209-.342.655Z" clip-rule="evenodd"/></svg>