<svg width="96" height="96" viewBox="0 0 96 96" fill="none" xmlns="http://www.w3.org/2000/svg">
<path d="M44 2.30935C46.4752 0.880283 49.5248 0.880284 52 2.30935L85.5692 21.6905C88.0444 23.1196 89.5692 25.7606 89.5692 28.6187V67.3811C89.5692 70.2393 88.0444 72.8803 85.5692 74.3093L52 93.6905C49.5248 95.1196 46.4752 95.1196 44 93.6905L10.4308 74.3093C7.95558 72.8803 6.43079 70.2393 6.43079 67.3811V28.6187C6.43079 25.7606 7.95558 23.1196 10.4308 21.6905L44 2.30935Z" fill="white"/>
<path fill-rule="evenodd" clip-rule="evenodd" d="M84.1907 22.9024L51.5701 4.06896C49.3322 2.77689 46.575 2.77689 44.337 4.06896L11.7165 22.9024C9.47853 24.1945 8.09991 26.5824 8.09991 29.1665V66.8335C8.09991 69.4176 9.47853 71.8055 11.7165 73.0975L44.337 91.931C46.575 93.2231 49.3322 93.2231 51.5701 91.931L84.1907 73.0975C86.4286 71.8055 87.8072 69.4176 87.8072 66.8335V29.1665C87.8072 26.5824 86.4286 24.1945 84.1907 22.9024ZM53.1201 1.38436C49.923 -0.461454 45.9841 -0.461455 42.7871 1.38436L10.1665 20.2178C6.96946 22.0637 5 25.4749 5 29.1665V66.8335C5 70.5251 6.96946 73.9363 10.1665 75.7821L42.7871 94.6156C45.9841 96.4614 49.923 96.4614 53.1201 94.6156L85.7406 75.7821C88.9377 73.9363 90.9071 70.5251 90.9071 66.8335V29.1665C90.9071 25.4749 88.9377 22.0637 85.7406 20.2178L53.1201 1.38436Z" fill="#63B132"/>
<path d="M37.6822 54.0394C36.2579 54.0394 35.1813 53.6225 34.4411 52.7887C33.7009 51.9549 33.3308 50.7606 33.3308 49.2056C33.3308 47.6169 33.7121 46.4 34.486 45.5437C35.2598 44.6873 36.3701 44.2592 37.8392 44.2592C38.8261 44.2592 39.7233 44.4394 40.5084 44.8113L39.9028 46.4225C39.0617 46.0958 38.3663 45.9268 37.8168 45.9268C36.1906 45.9268 35.3831 47.0084 35.3831 49.1718C35.3831 50.231 35.585 51.0197 35.9888 51.5606C36.3925 52.0901 36.9869 52.3606 37.7719 52.3606C38.6579 52.3606 39.499 52.1352 40.2953 51.6958V53.4423C39.9364 53.6563 39.5551 53.8028 39.1514 53.893C38.7476 53.9944 38.2542 54.0394 37.6822 54.0394Z" fill="#63B132"/>
<path d="M45.8018 53.8704H43.8055V40.5972H45.8018V53.8704Z" fill="#63B132"/>
<path d="M48.9981 58.0619C48.4037 58.0619 47.8991 57.9943 47.5065 57.8479V56.2591C47.8878 56.3605 48.2804 56.4169 48.6841 56.4169C49.5364 56.4169 49.9626 55.9324 49.9626 54.9634V44.4281H51.9589V55.0986C51.9589 56.0676 51.7009 56.8112 51.1962 57.307C50.6804 57.8141 49.9514 58.0619 48.9981 58.0619ZM49.8392 41.938C49.8392 41.5774 49.9402 41.307 50.1308 41.1155C50.3215 40.9239 50.6019 40.8225 50.9719 40.8225C51.3196 40.8225 51.6 40.9239 51.7906 41.1155C51.9813 41.307 52.0822 41.5887 52.0822 41.938C52.0822 42.276 51.9813 42.5465 51.7906 42.7493C51.6 42.9408 51.3196 43.0422 50.9719 43.0422C50.6131 43.0422 50.3327 42.9408 50.1308 42.7493C49.929 42.5465 49.8392 42.276 49.8392 41.938Z" fill="#63B132"/>
<path d="M62.4112 51.1887C62.4112 52.1126 62.0747 52.8112 61.413 53.307C60.7401 53.8028 59.7869 54.0394 58.542 54.0394C57.2859 54.0394 56.2878 53.8479 55.5252 53.4648V51.7295C56.6242 52.2366 57.656 52.4957 58.6093 52.4957C59.8317 52.4957 60.4485 52.1239 60.4485 51.3802C60.4485 51.1436 60.3813 50.9408 60.2467 50.7831C60.1121 50.6253 59.8878 50.4563 59.5738 50.2873C59.2598 50.1183 58.8336 49.9267 58.2728 49.7126C57.1962 49.2957 56.456 48.8676 56.0747 48.4507C55.6934 48.0338 55.5027 47.4817 55.5027 46.8169C55.5027 46.0056 55.828 45.3859 56.4784 44.9352C57.1289 44.4845 58.0037 44.2704 59.1252 44.2704C60.2242 44.2704 61.2672 44.4957 62.2542 44.9464L61.6037 46.4563C60.5943 46.0394 59.742 45.8253 59.0467 45.8253C57.9925 45.8253 57.4654 46.1295 57.4654 46.7267C57.4654 47.0197 57.5999 47.2676 57.8803 47.4817C58.1495 47.6845 58.7551 47.9662 59.6747 48.3267C60.4485 48.6309 61.0093 48.9014 61.3682 49.1493C61.7158 49.3971 61.9738 49.6901 62.1532 50.0169C62.3214 50.3324 62.4112 50.7267 62.4112 51.1887Z" fill="#63B132"/>
<path d="M46.0934 68.2479C35.8654 67.3352 27.8131 58.6704 27.8131 48.1578C27.8131 37.6451 35.8654 28.9916 46.0934 28.0789V25.8141C34.6205 26.738 25.5701 36.4056 25.5701 48.169C25.5701 59.9324 34.6205 69.6 46.0934 70.524V68.2479Z" fill="#96CA4B"/>
<path fill-rule="evenodd" clip-rule="evenodd" d="M46.4299 25.4479V28.3882L46.1232 28.4156C36.0669 29.3129 28.1495 37.822 28.1495 48.1577C28.1495 58.4937 36.0672 67.0138 46.1232 67.9112L46.4299 67.9385V70.8901L46.0666 70.8609C34.4204 69.923 25.2336 60.1102 25.2336 48.169C25.2336 36.2278 34.4204 26.415 46.0666 25.4771L46.4299 25.4479ZM45.757 26.1833C34.6302 27.2659 25.9065 36.7079 25.9065 48.169C25.9065 59.6301 34.6302 69.0722 45.757 70.1547V68.5549C35.5032 67.4828 27.4766 58.7419 27.4766 48.1577C27.4766 37.5734 35.5034 28.8437 45.757 27.7719V26.1833Z" fill="#96CA4B"/>
<path d="M49.6823 25.8141V28.0789C59.9103 28.9916 67.9626 37.6563 67.9626 48.169C67.9626 58.6817 59.9103 67.3465 49.6823 68.2592V70.524C61.1552 69.6 70.2056 59.9324 70.2056 48.169C70.2056 36.4056 61.1552 26.738 49.6823 25.8141Z" fill="#5F7FBF"/>
<path fill-rule="evenodd" clip-rule="evenodd" d="M49.3458 25.4479L49.7091 25.4771C61.3552 26.415 70.542 36.2278 70.542 48.169C70.542 60.1102 61.3552 69.923 49.7091 70.8609L49.3458 70.8901V67.9498L49.6524 67.9224C59.7085 67.0251 67.6261 58.505 67.6261 48.169C67.6261 37.8331 59.7085 29.3129 49.6524 28.4156L49.3458 28.3882V25.4479ZM50.0187 26.1833V27.7719C60.2725 28.8439 68.299 37.5849 68.299 48.169C68.299 58.7531 60.2725 67.4941 50.0187 68.5661V70.1547C61.1455 69.0722 69.8691 59.6301 69.8691 48.169C69.8691 36.7079 61.1455 27.2659 50.0187 26.1833Z" fill="#5F7FBF"/>
</svg>
