<svg width="96" height="96" viewBox="0 0 96 96" fill="none" xmlns="http://www.w3.org/2000/svg">
  <path d="M44 2.31a8 8 0 0 1 8 0l33.57 19.38a8 8 0 0 1 4 6.929V67.38a8 8 0 0 1-4 6.928L52 93.691a8 8 0 0 1-8 0L10.43 74.308a8 8 0 0 1-4-6.928V28.62a8 8 0 0 1 4-6.928L44 2.308Z" fill="#fff"/><path fill-rule="evenodd" clip-rule="evenodd" d="M84.19 22.902 51.57 4.07a7.233 7.233 0 0 0-7.233 0l-32.62 18.833A7.233 7.233 0 0 0 8.1 29.166v37.668a7.233 7.233 0 0 0 3.617 6.263l32.62 18.834a7.233 7.233 0 0 0 7.233 0l32.62-18.834a7.233 7.233 0 0 0 3.617-6.263V29.166a7.233 7.233 0 0 0-3.616-6.264ZM53.12 1.384a10.333 10.333 0 0 0-10.333 0l-32.62 18.834A10.333 10.333 0 0 0 5 29.166v37.668c0 3.691 1.97 7.102 5.166 8.948l32.621 18.834a10.333 10.333 0 0 0 10.333 0l32.62-18.834a10.333 10.333 0 0 0 5.167-8.948V29.166c0-3.691-1.97-7.102-5.166-8.948L53.12 1.384Z" fill="#4387D2"/><path d="M33.29 46.602h-2.729a1.851 1.851 0 0 0-.154-.615 1.386 1.386 0 0 0-.34-.474 1.412 1.412 0 0 0-.517-.31 2.008 2.008 0 0 0-.692-.111c-.451 0-.834.11-1.147.329-.31.22-.545.534-.706.944-.158.41-.237.901-.237 1.475 0 .607.08 1.115.242 1.525.164.406.401.713.711.92.31.202.682.304 1.118.304.248 0 .47-.03.668-.092.196-.065.367-.157.512-.276.146-.12.263-.263.354-.43.093-.171.156-.363.188-.576l2.73.019c-.033.42-.15.847-.354 1.282a4.17 4.17 0 0 1-.866 1.2c-.37.365-.83.658-1.379.881-.548.223-1.185.334-1.911.334-.91 0-1.726-.195-2.449-.586-.72-.39-1.288-.964-1.708-1.722-.416-.758-.624-1.686-.624-2.782 0-1.104.213-2.033.639-2.788.425-.758 1-1.33 1.722-1.717.723-.39 1.53-.586 2.42-.586.626 0 1.201.086 1.727.257.526.17.987.42 1.384.75.397.325.716.727.958 1.204.242.478.389 1.025.44 1.64ZM44.111 47.84c0 1.104-.214 2.034-.643 2.792a4.319 4.319 0 0 1-1.737 1.718c-.73.387-1.542.58-2.44.58-.902 0-1.718-.194-2.447-.585a4.36 4.36 0 0 1-1.733-1.722c-.426-.758-.639-1.686-.639-2.782 0-1.104.213-2.033.64-2.788.428-.758 1.006-1.33 1.731-1.717.73-.39 1.546-.586 2.449-.586.897 0 1.71.195 2.439.586.729.387 1.308.96 1.737 1.717.429.755.643 1.684.643 2.788Zm-2.767 0c0-.593-.08-1.093-.238-1.5-.154-.41-.385-.719-.692-.929-.303-.213-.677-.319-1.122-.319-.445 0-.821.106-1.128.32-.303.209-.533.519-.692.928-.154.407-.232.907-.232 1.5 0 .594.078 1.096.232 1.505.159.407.39.717.692.93.307.21.683.314 1.128.314.445 0 .82-.105 1.122-.315.307-.212.538-.522.692-.929.158-.41.238-.911.238-1.505ZM45.356 52.795v-9.91h4.297c.755 0 1.389.102 1.902.305.516.204.905.49 1.166.862.264.37.397.808.397 1.311 0 .364-.081.697-.242.997-.158.3-.38.551-.668.755-.287.2-.623.338-1.006.416v.096c.425.017.812.125 1.16.325.35.197.627.47.833.818.206.345.31.751.31 1.219 0 .542-.142 1.024-.426 1.447-.28.422-.68.755-1.2.996-.52.242-1.139.363-1.858.363h-4.665Zm2.69-2.148h1.259c.451 0 .79-.084 1.016-.252.226-.17.339-.422.339-.755 0-.232-.054-.428-.16-.59a.996.996 0 0 0-.455-.368 1.76 1.76 0 0 0-.702-.125h-1.296v2.09Zm0-3.755h1.104c.235 0 .443-.037.624-.111a.946.946 0 0 0 .421-.32.857.857 0 0 0 .155-.517c0-.307-.11-.54-.33-.702-.219-.164-.496-.247-.832-.247h-1.141v1.897ZM64.058 47.84c0 1.104-.214 2.034-.643 2.792a4.319 4.319 0 0 1-1.737 1.718c-.73.387-1.542.58-2.44.58-.902 0-1.719-.194-2.448-.585a4.362 4.362 0 0 1-1.732-1.722c-.426-.758-.639-1.686-.639-2.782 0-1.104.213-2.033.639-2.788.43-.758 1.007-1.33 1.732-1.717.73-.39 1.546-.586 2.449-.586.897 0 1.71.195 2.439.586.729.387 1.308.96 1.737 1.717.429.755.643 1.684.643 2.788Zm-2.768 0c0-.593-.079-1.093-.237-1.5-.154-.41-.385-.719-.692-.929-.303-.213-.677-.319-1.122-.319-.445 0-.821.106-1.128.32-.303.209-.533.519-.692.928-.154.407-.232.907-.232 1.5 0 .594.078 1.096.232 1.505.159.407.39.717.692.93.307.21.683.314 1.128.314.445 0 .82-.105 1.122-.315.307-.212.538-.522.692-.929.158-.41.238-.911.238-1.505ZM65.303 52.795v-9.91h2.69v7.743H72v2.167h-6.697Z" fill="#4387D2"/>
</svg>