<svg width="96" height="96" viewBox="0 0 96 96" fill="none" xmlns="http://www.w3.org/2000/svg">
<path d="M44 2.30932C45.2162 1.60717 46.5957 1.23752 48 1.23752C49.4043 1.23752 50.7838 1.60717 52 2.30932L85.5692 21.6905C86.7854 22.3927 87.7953 23.4026 88.4974 24.6187C89.1996 25.8349 89.5692 27.2144 89.5692 28.6187V67.3811C89.5692 68.7854 89.1996 70.165 88.4974 71.3811C87.7953 72.5973 86.7854 73.6072 85.5692 74.3093L52 93.6905C50.7839 94.3927 49.4043 94.7623 48 94.7623C46.5957 94.7623 45.2161 94.3927 44 93.6905L10.4308 74.3093C9.21463 73.6072 8.20472 72.5973 7.50257 71.3811C6.80042 70.165 6.43078 68.7854 6.4308 67.3811V28.6187C6.4308 27.2144 6.80045 25.8349 7.5026 24.6187C8.20474 23.4026 9.21465 22.3927 10.4308 21.6905L44 2.30932Z" fill="white"/>
<path fill-rule="evenodd" clip-rule="evenodd" d="M84.1907 22.9024L51.5701 4.06899C50.4705 3.43414 49.2232 3.09992 47.9535 3.09992C46.6839 3.09992 45.4366 3.43414 44.337 4.06899L11.7165 22.9024C10.6169 23.5372 9.70382 24.4503 9.06897 25.5499C8.43413 26.6495 8.09991 27.8968 8.0999 29.1665V66.8335C8.0999 68.1032 8.43412 69.3505 9.06897 70.45C9.70382 71.5496 10.6169 72.4627 11.7165 73.0975L44.337 91.931C45.4366 92.5658 46.6839 92.9001 47.9535 92.9001C49.2232 92.9001 50.4705 92.5658 51.5701 91.931L84.1907 73.0975C85.2903 72.4627 86.2033 71.5496 86.8382 70.45C87.473 69.3504 87.8072 68.1032 87.8072 66.8335V29.1665C87.8072 27.8968 87.473 26.6495 86.8382 25.5499C86.2033 24.4504 85.2903 23.5373 84.1907 22.9024V22.9024ZM53.1201 1.38439C51.5493 0.47748 49.7674 3.05176e-05 47.9536 3.05176e-05C46.1398 3.05176e-05 44.3579 0.47748 42.7871 1.38439L10.1665 20.2178C8.59569 21.1247 7.29128 22.4291 6.38437 24C5.47746 25.5708 5.00001 27.3527 5 29.1665V66.8335C5.00001 68.6473 5.47746 70.4292 6.38437 72C7.29128 73.5708 8.59569 74.8752 10.1665 75.7821L42.7871 94.6156C44.3579 95.5225 46.1398 96 47.9536 96C49.7674 96 51.5493 95.5225 53.1201 94.6156L85.7406 75.7821C87.3114 74.8752 88.6158 73.5708 89.5228 72C90.4297 70.4292 90.9071 68.6473 90.9071 66.8335V29.1665C90.9071 27.3527 90.4297 25.5708 89.5227 24C88.6158 22.4291 87.3114 21.1247 85.7406 20.2178L53.1201 1.38439Z" fill="#331177"/>
<path d="M22.5433 56.24C21.5966 56.24 20.7433 56.0933 19.9833 55.8C19.2233 55.4933 18.5766 55.0467 18.0433 54.46C17.5099 53.86 17.0966 53.12 16.8033 52.24C16.5099 51.3467 16.3633 50.3067 16.3633 49.12C16.3633 47.9467 16.5099 46.9067 16.8033 46C17.0966 45.08 17.5099 44.3133 18.0433 43.7C18.5766 43.0733 19.2233 42.6 19.9833 42.28C20.7433 41.96 21.5966 41.8 22.5433 41.8C23.8366 41.8 24.9033 42.0667 25.7433 42.6C26.5833 43.12 27.2566 43.9467 27.7633 45.08L25.1433 46.44C24.9566 45.8533 24.6633 45.3867 24.2633 45.04C23.8766 44.68 23.3033 44.5 22.5433 44.5C21.6499 44.5 20.9299 44.7933 20.3833 45.38C19.8499 45.9533 19.5833 46.7933 19.5833 47.9V50.14C19.5833 51.2467 19.8499 52.0933 20.3833 52.68C20.9299 53.2533 21.6499 53.54 22.5433 53.54C23.2899 53.54 23.8833 53.34 24.3233 52.94C24.7766 52.5267 25.1099 52.0333 25.3233 51.46L27.8033 52.9C27.2833 53.9667 26.5966 54.7933 25.7433 55.38C24.9033 55.9533 23.8366 56.24 22.5433 56.24Z" fill="#331177"/>
<path d="M35.2767 56.24C34.3567 56.24 33.5167 56.0867 32.7567 55.78C31.9967 55.4733 31.3501 55.02 30.8167 54.42C30.2834 53.8067 29.8701 53.0533 29.5767 52.16C29.2834 51.2533 29.1367 50.2067 29.1367 49.02C29.1367 47.8333 29.2834 46.7933 29.5767 45.9C29.8701 44.9933 30.2834 44.24 30.8167 43.64C31.3501 43.0267 31.9967 42.5667 32.7567 42.26C33.5167 41.9533 34.3567 41.8 35.2767 41.8C36.1967 41.8 37.0367 41.9533 37.7967 42.26C38.5567 42.5667 39.2034 43.0267 39.7367 43.64C40.2701 44.24 40.6834 44.9933 40.9767 45.9C41.2701 46.7933 41.4167 47.8333 41.4167 49.02C41.4167 50.2067 41.2701 51.2533 40.9767 52.16C40.6834 53.0533 40.2701 53.8067 39.7367 54.42C39.2034 55.02 38.5567 55.4733 37.7967 55.78C37.0367 56.0867 36.1967 56.24 35.2767 56.24ZM35.2767 53.54C36.1967 53.54 36.9101 53.24 37.4167 52.64C37.9367 52.04 38.1967 51.18 38.1967 50.06V47.98C38.1967 46.86 37.9367 46 37.4167 45.4C36.9101 44.8 36.1967 44.5 35.2767 44.5C34.3567 44.5 33.6367 44.8 33.1167 45.4C32.6101 46 32.3567 46.86 32.3567 47.98V50.06C32.3567 51.18 32.6101 52.04 33.1167 52.64C33.6367 53.24 34.3567 53.54 35.2767 53.54Z" fill="#331177"/>
<path d="M43.9541 42.04H50.7341C51.8941 42.04 52.7941 42.3667 53.4341 43.02C54.0874 43.6733 54.4141 44.54 54.4141 45.62C54.4141 46.1533 54.3407 46.6067 54.1941 46.98C54.0607 47.3533 53.8741 47.66 53.6341 47.9C53.4074 48.14 53.1341 48.32 52.8141 48.44C52.5074 48.5467 52.1741 48.6067 51.8141 48.62V48.74C52.1474 48.74 52.4941 48.8 52.8541 48.92C53.2274 49.04 53.5674 49.2333 53.8741 49.5C54.1807 49.7533 54.4341 50.0867 54.6341 50.5C54.8474 50.9133 54.9541 51.42 54.9541 52.02C54.9541 52.5667 54.8607 53.0867 54.6741 53.58C54.5007 54.06 54.2541 54.48 53.9341 54.84C53.6141 55.2 53.2341 55.4867 52.7941 55.7C52.3541 55.9 51.8741 56 51.3541 56H43.9541V42.04ZM46.9941 53.44H50.4941C50.8941 53.44 51.2074 53.3333 51.4341 53.12C51.6741 52.8933 51.7941 52.58 51.7941 52.18V51.5C51.7941 51.1 51.6741 50.7933 51.4341 50.58C51.2074 50.3533 50.8941 50.24 50.4941 50.24H46.9941V53.44ZM46.9941 47.76H50.0141C50.4141 47.76 50.7274 47.6467 50.9541 47.42C51.1807 47.1933 51.2941 46.88 51.2941 46.48V45.88C51.2941 45.48 51.1807 45.1667 50.9541 44.94C50.7274 44.7133 50.4141 44.6 50.0141 44.6H46.9941V47.76Z" fill="#331177"/>
<path d="M62.8939 56.24C61.9739 56.24 61.1339 56.0867 60.3739 55.78C59.6139 55.4733 58.9672 55.02 58.4339 54.42C57.9006 53.8067 57.4872 53.0533 57.1939 52.16C56.9006 51.2533 56.7539 50.2067 56.7539 49.02C56.7539 47.8333 56.9006 46.7933 57.1939 45.9C57.4872 44.9933 57.9006 44.24 58.4339 43.64C58.9672 43.0267 59.6139 42.5667 60.3739 42.26C61.1339 41.9533 61.9739 41.8 62.8939 41.8C63.8139 41.8 64.6539 41.9533 65.4139 42.26C66.1739 42.5667 66.8206 43.0267 67.3539 43.64C67.8872 44.24 68.3006 44.9933 68.5939 45.9C68.8872 46.7933 69.0339 47.8333 69.0339 49.02C69.0339 50.2067 68.8872 51.2533 68.5939 52.16C68.3006 53.0533 67.8872 53.8067 67.3539 54.42C66.8206 55.02 66.1739 55.4733 65.4139 55.78C64.6539 56.0867 63.8139 56.24 62.8939 56.24ZM62.8939 53.54C63.8139 53.54 64.5272 53.24 65.0339 52.64C65.5539 52.04 65.8139 51.18 65.8139 50.06V47.98C65.8139 46.86 65.5539 46 65.0339 45.4C64.5272 44.8 63.8139 44.5 62.8939 44.5C61.9739 44.5 61.2539 44.8 60.7339 45.4C60.2272 46 59.9739 46.86 59.9739 47.98V50.06C59.9739 51.18 60.2272 52.04 60.7339 52.64C61.2539 53.24 61.9739 53.54 62.8939 53.54Z" fill="#331177"/>
<path d="M71.5713 56V42.04H74.6113V53.3H79.9313V56H71.5713Z" fill="#331177"/>
</svg>
