<svg width="96" height="96" fill="none" xmlns="http://www.w3.org/2000/svg">
  <path d="M44 2.3093a8 8 0 018 0l33.5692 19.3812a8 8 0 014 6.9282v38.7624a7.9998 7.9998 0 01-4 6.9282L52 93.6905a7.9998 7.9998 0 01-8 0L10.4308 74.3093a7.9998 7.9998 0 01-4-6.9282V28.6187a8 8 0 014-6.9282L44 2.3093z" fill="#fff"/>
  <path fill-rule="evenodd" clip-rule="evenodd" d="M84.1907 22.9024L51.5701 4.069a7.233 7.233 0 00-7.2331 0L11.7165 22.9024a7.2332 7.2332 0 00-3.6166 6.2641v37.667a7.233 7.233 0 003.6166 6.264L44.337 91.931a7.233 7.233 0 007.2331 0l32.6206-18.8335a7.233 7.233 0 003.6165-6.264v-37.667a7.2333 7.2333 0 00-3.6165-6.2641zM53.1201 1.3844a10.333 10.333 0 00-10.333 0L10.1665 20.2178A10.3332 10.3332 0 005 29.1665v37.667a10.333 10.333 0 005.1665 8.9486l32.6206 18.8335a10.333 10.333 0 0010.333 0l32.6205-18.8335a10.3328 10.3328 0 005.1665-8.9486v-37.667a10.3331 10.3331 0 00-5.1665-8.9487L53.1201 1.3844z" fill="#F15A24"/>
  <g clip-path="url(#clip0)">
    <path d="M32.3538 69.2016c4.2025-3.6164 9.6703-5.8034 15.646-5.8034 5.9784 0 11.4459 2.1871 15.6481 5.8034 5.1139-4.4016 8.3527-10.9212 8.3527-18.1981C72.0006 37.7463 61.2552 27 47.9998 27c-13.2527 0-23.9991 10.7462-23.9991 24.0035-.0001 7.2769 3.239 13.7965 8.3531 18.1981z" fill="#FBB03B"/>
    <path d="M32.7645 32.457C27.4133 36.8592 24 43.5325 24 51.0036c0 7.2768 3.2391 13.7964 8.3532 18.1981 4.2025-3.6165 9.6703-5.8034 15.646-5.8034 5.9784 0 11.4459 2.1871 15.6481 5.8034C68.7612 64.8001 72 58.2805 72 51.0036c0-7.4709-3.4128-14.1439-8.7638-18.5464-4.7232-1.8428-9.8619-2.8556-15.2375-2.8556-5.3742.0001-10.5117 1.0127-15.2342 2.8554z" fill="#F7931E"/>
    <path d="M24.2683 47.4075A24.1852 24.1852 0 0024 51.0035c0 7.2767 3.2391 13.7963 8.3532 18.1981 4.2025-3.6165 9.6703-5.8034 15.646-5.8034 5.9784 0 11.4459 2.187 15.6481 5.8034C68.7612 64.8 72 58.2804 72 51.0035c0-1.2222-.0919-2.4228-.2683-3.596-6.7494-4.6409-14.9232-7.3592-23.733-7.3592-8.8083 0-16.9814 2.7185-23.7304 7.3592z" fill="#F15A24"/>
    <path d="M47.9988 51.2788c-8.5739 0-16.3999 3.2011-22.3526 8.4713 1.4411 3.6792 3.7622 6.9169 6.7072 9.4516 4.2025-3.6165 9.6702-5.8034 15.646-5.8034 5.9783 0 11.4458 2.1871 15.648 5.8034 2.9447-2.5346 5.2657-5.7722 6.7067-9.4516-5.9531-5.2702-13.7799-8.4713-22.3553-8.4713z" fill="#C1272D"/>
    <path d="M45.3772 52.8996c-1.9942-11.1517-10.596-7.2852-10.596-7.2852l2.6 3.1236c-1.3212.1646-2.2535.5836-2.2535.5836l2.498 3.0016c-1.0306.6033-1.7291 1.2189-1.7291 1.2189l10.2312 8.9949c.0389-2.3084-.0954-4.1777-.3581-5.6813-.0472-1.5442-.1831-2.8533-.3925-3.9561z" fill="#231F20"/>
    <path fill-rule="evenodd" clip-rule="evenodd" d="M54.7774 42.8283c.0409-.0674.0789-.1354.1423-.2039.1353-.146.1449-.4307.1582-.6553.0545-.8894-.336-1.6465-1.318-1.9136-.3508-.0957-.6278-.2361-.843-.406l1.394-2.4556-2.1009.8458c-.0038-.637.1914-1.1893.231-1.2751.3935-.8546.0484-1.9859-.8382-2.1705-1.0215-.2128-2.1016-.1636-3.1554-.223-.0063.0642.8255 1.0658.8255 1.0658h-4.4885c.6891.5568 1.2271.9754 1.7639 1.3986-.0204.0396-.0421.0918-.0632.1326h-4.6638c1.2904 2.6187 3.3298 3.5803 6.1112 3.1773l.1311.3111c-.0253-.0036-.0131-.0053-.0131-.0053v22.2877c13.5028-11.4696 10.9979-17.1685 6.7269-19.9106z" fill="#231F20"/>
    <path fill-rule="evenodd" clip-rule="evenodd" d="M51.2095 38.763a.5702.5702 0 01-.5707.5698.5702.5702 0 010-1.1404.5705.5705 0 01.5707.5706z" fill="#F15A24"/>
  </g>
  <defs>
    <clipPath id="clip0">
      <path fill="#fff" transform="translate(24 24)" d="M0 0h48v48H0z"/>
    </clipPath>
  </defs>
</svg>
