<svg width="96" height="96" fill="none" xmlns="http://www.w3.org/2000/svg">
  <path d="M44 2.3093a8 8 0 0 1 8 0l33.5692 19.3812a8 8 0 0 1 4 6.9282v38.7624a7.9998 7.9998 0 0 1-4 6.9282L52 93.6905a7.9998 7.9998 0 0 1-8 0L10.4308 74.3093a7.9998 7.9998 0 0 1-4-6.9282V28.6187a8 8 0 0 1 4-6.9282L44 2.3093z" fill="#fff"/>
  <path fill-rule="evenodd" clip-rule="evenodd" d="M84.1907 22.9024 51.5701 4.069a7.233 7.233 0 0 0-7.2331 0L11.7165 22.9024a7.2332 7.2332 0 0 0-3.6166 6.2641v37.667a7.233 7.233 0 0 0 3.6166 6.264L44.337 91.931a7.233 7.233 0 0 0 7.2331 0l32.6206-18.8335a7.233 7.233 0 0 0 3.6165-6.264v-37.667a7.2333 7.2333 0 0 0-3.6165-6.2641zM53.1201 1.3844a10.333 10.333 0 0 0-10.333 0L10.1665 20.2178A10.3332 10.3332 0 0 0 5 29.1665v37.667a10.333 10.333 0 0 0 5.1665 8.9486l32.6206 18.8335a10.333 10.333 0 0 0 10.333 0l32.6205-18.8335a10.3328 10.3328 0 0 0 5.1665-8.9486v-37.667a10.3331 10.3331 0 0 0-5.1665-8.9487L53.1201 1.3844z" fill="#821394"/>
  <path fill-rule="evenodd" clip-rule="evenodd" d="M43.8621 68.2241c-10.952 0-19.8621-8.91-19.8621-19.862C24 37.4101 32.9101 28.5 43.8621 28.5c7.067 0 13.6579 3.803 17.2003 9.9248l-8.5958 4.9741c-1.773-3.0642-5.0703-4.9679-8.6045-4.9679-5.4761 0-9.9311 4.455-9.9311 9.9311 0 5.4759 4.455 9.931 9.9311 9.931 3.5346 0 6.8319-1.9036 8.6051-4.9684l8.5958 4.9739c-3.5424 6.1223-10.1335 9.9255-17.2009 9.9255zm19.862-20.9655h-2.207v-2.2069h-2.2066v2.2069h-2.2071v2.2068h2.2071v2.207h2.2066v-2.207h2.207v-2.2068zm6.0689 0H72v2.2068h-2.207v2.207h-2.2067v-2.207h-2.207v-2.2068h2.207v-2.2069h2.2067v2.2069z" fill="#821394"/>
</svg>
