<svg width="96" height="96" fill="none" xmlns="http://www.w3.org/2000/svg">
  <path d="M44 2.3093a8 8 0 018 0l33.5692 19.3812a8 8 0 014 6.9282v38.7624a7.9998 7.9998 0 01-4 6.9282L52 93.6905a7.9998 7.9998 0 01-8 0L10.4308 74.3093a7.9998 7.9998 0 01-4-6.9282V28.6187a8 8 0 014-6.9282L44 2.3093z" fill="#fff"/>
  <path fill-rule="evenodd" clip-rule="evenodd" d="M84.1907 22.9024L51.5701 4.069a7.233 7.233 0 00-7.2331 0L11.7165 22.9024a7.2332 7.2332 0 00-3.6166 6.2641v37.667a7.233 7.233 0 003.6166 6.264L44.337 91.931a7.233 7.233 0 007.2331 0l32.6206-18.8335a7.233 7.233 0 003.6165-6.264v-37.667a7.2333 7.2333 0 00-3.6165-6.2641zM53.1201 1.3844a10.333 10.333 0 00-10.333 0L10.1665 20.2178A10.3332 10.3332 0 005 29.1665v37.667a10.333 10.333 0 005.1665 8.9486l32.6206 18.8335a10.333 10.333 0 0010.333 0l32.6205-18.8335a10.3328 10.3328 0 005.1665-8.9486v-37.667a10.3331 10.3331 0 00-5.1665-8.9487L53.1201 1.3844z" fill="#341394"/>
  <path d="M24.0005 47.9785C23.8573 24.526 55.7343 14.1704 69.481 35.9619l-10.5482 6.0148c-6.3677-10.3785-22.1783-6.6675-22.7458 6.0016.1704 11.6763 15.7102 17.1002 22.7464 6.001l10.5483 6.0147C57.367 80.7184 24.6115 73.2621 24.0005 47.9785z" fill="#341394"/>
  <path d="M64.2055 41.1686h2.0089l-1.3726 13.0653h-2.0467l1.4104-13.0653zM68.5087 41.1686h2.0089L69.145 54.2339h-2.0467l1.4104-13.0653z" fill="#341394"/>
  <path d="M72 44.2714H61.9556v1.9118H72v-1.9118zM71.4375 48.9286H61.3931v1.9118h10.0444v-1.9118z" fill="#341394"/>
</svg>
