<svg width="96" height="96" viewBox="0 0 96 96" fill="none" xmlns="http://www.w3.org/2000/svg">
<path d="M44 2.30935C46.4752 0.880283 49.5248 0.880284 52 2.30935L85.5692 21.6905C88.0444 23.1196 89.5692 25.7606 89.5692 28.6187V67.3811C89.5692 70.2393 88.0444 72.8803 85.5692 74.3093L52 93.6905C49.5248 95.1196 46.4752 95.1196 44 93.6905L10.4308 74.3093C7.95558 72.8803 6.43079 70.2393 6.43079 67.3811V28.6187C6.43079 25.7606 7.95558 23.1196 10.4308 21.6905L44 2.30935Z" fill="white"/>
<path fill-rule="evenodd" clip-rule="evenodd" d="M84.1907 22.9024L51.5701 4.06896C49.3322 2.77689 46.575 2.77689 44.337 4.06896L11.7165 22.9024C9.47853 24.1945 8.09991 26.5824 8.09991 29.1665V66.8335C8.09991 69.4176 9.47853 71.8055 11.7165 73.0975L44.337 91.931C46.575 93.2231 49.3322 93.2231 51.5701 91.931L84.1907 73.0975C86.4286 71.8055 87.8072 69.4176 87.8072 66.8335V29.1665C87.8072 26.5824 86.4286 24.1945 84.1907 22.9024ZM53.1201 1.38436C49.923 -0.461454 45.9841 -0.461455 42.7871 1.38436L10.1665 20.2178C6.96946 22.0637 5 25.4749 5 29.1665V66.8335C5 70.5251 6.96946 73.9363 10.1665 75.7821L42.7871 94.6156C45.9841 96.4614 49.923 96.4614 53.1201 94.6156L85.7406 75.7821C88.9377 73.9363 90.9071 70.5251 90.9071 66.8335V29.1665C90.9071 25.4749 88.9377 22.0637 85.7406 20.2178L53.1201 1.38436Z" fill="#2CB7F6"/>
<path d="M33.7869 62.2075L25.5794 53.9982C24.6064 52.9968 24 51.5863 24 50.2075C24 49.5692 24.3596 48.5713 24.6311 47.9965L32.2074 32.2092L33.7869 62.2075Z" fill="#01579B"/>
<path d="M61.8853 33.789L53.6779 25.5798C52.9622 24.8604 51.4674 24 50.2052 24C49.1194 24 48.0547 24.2186 47.3637 24.6312L32.211 32.2092L61.8853 33.789Z" fill="#40C4FF"/>
<path d="M43.5737 71.9964H63.4647V63.4698L48.6258 58.734L35.0525 63.4698L43.5737 71.9964Z" fill="#40C4FF"/>
<path d="M32.211 57.789C32.211 60.3209 32.5283 60.9451 33.7904 62.211L35.0525 63.4734H63.4647L49.5742 47.6862L32.211 32.2128V57.789Z" fill="#29B6F6"/>
<path d="M57.4643 32.2092H32.2074L63.4612 63.4699H71.9859V43.8919L61.8853 33.789C60.468 32.3644 59.2059 32.2092 57.4643 32.2092Z" fill="#01579B"/>
<path opacity="0.2" d="M34.1046 62.5248C32.8422 61.2554 32.5248 60.0071 32.5248 57.789V32.5266L32.2074 32.2092V57.7855C32.211 60.0071 32.211 60.6206 34.1046 62.5248L35.0532 63.4734L34.1046 62.5248Z" fill="white"/>
<path opacity="0.2" d="M71.6721 43.578V63.156H63.1474L63.4647 63.4699H71.9894V43.8954L71.6721 43.578Z" fill="#263238"/>
<path opacity="0.2" d="M61.8853 33.789C60.32 32.2233 59.0367 32.2092 57.1505 32.2092H32.211L32.5283 32.5266H57.154C58.0918 32.5266 60.4716 32.3679 61.8853 33.789Z" fill="white"/>
<path opacity="0.2" d="M71.6721 43.578L61.8853 33.789L53.6779 25.5798C52.9622 24.8604 51.4674 24 50.2052 24C49.1194 24 48.0547 24.2186 47.3637 24.6312L32.211 32.2092L24.6346 47.9965C24.3631 48.5713 24.0035 49.5692 24.0035 50.2075C24.0035 51.5862 24.6099 52.9968 25.583 53.9982L33.1487 61.5093C33.3285 61.7314 33.5401 61.9571 33.7939 62.2075L34.1112 62.5248L35.0596 63.4734L43.267 71.6826L43.5843 72H63.158H63.4753V63.4734H72V63.4522V43.8954L71.6721 43.578Z" fill="url(#paint0_radial)"/>
<defs>
<radialGradient id="paint0_radial" cx="0" cy="0" r="1" gradientUnits="userSpaceOnUse" gradientTransform="translate(48 47.9987) scale(23.9965 24.0018)">
<stop stop-color="white" stop-opacity="0.1"/>
<stop offset="1" stop-color="white" stop-opacity="0"/>
</radialGradient>
</defs>
</svg>
