<svg width="96" height="96" viewBox="0 0 96 96" fill="none" xmlns="http://www.w3.org/2000/svg">
<path d="M44 2.30935C46.4752 0.880283 49.5248 0.880284 52 2.30935L85.5692 21.6905C88.0444 23.1196 89.5692 25.7606 89.5692 28.6187V67.3811C89.5692 70.2393 88.0444 72.8803 85.5692 74.3093L52 93.6905C49.5248 95.1196 46.4752 95.1196 44 93.6905L10.4308 74.3093C7.95558 72.8803 6.43079 70.2393 6.43079 67.3811V28.6187C6.43079 25.7606 7.95558 23.1196 10.4308 21.6905L44 2.30935Z" fill="white"/>
<path fill-rule="evenodd" clip-rule="evenodd" d="M84.1907 22.9024L51.5701 4.06896C49.3322 2.77689 46.575 2.77689 44.337 4.06896L11.7165 22.9024C9.47853 24.1945 8.09991 26.5824 8.09991 29.1665V66.8335C8.09991 69.4176 9.47853 71.8055 11.7165 73.0975L44.337 91.931C46.575 93.2231 49.3322 93.2231 51.5701 91.931L84.1907 73.0975C86.4286 71.8055 87.8072 69.4176 87.8072 66.8335V29.1665C87.8072 26.5824 86.4286 24.1945 84.1907 22.9024ZM53.1201 1.38436C49.923 -0.461454 45.9841 -0.461455 42.7871 1.38436L10.1665 20.2178C6.96946 22.0637 5 25.4749 5 29.1665V66.8335C5 70.5251 6.96946 73.9363 10.1665 75.7821L42.7871 94.6156C45.9841 96.4614 49.923 96.4614 53.1201 94.6156L85.7406 75.7821C88.9377 73.9363 90.9071 70.5251 90.9071 66.8335V29.1665C90.9071 25.4749 88.9377 22.0637 85.7406 20.2178L53.1201 1.38436Z" fill="#F32735"/>
<path d="M48 71.9389C61.2211 71.9389 71.939 61.221 71.939 47.9999C71.939 34.7788 61.2211 24.0609 48 24.0609C34.7789 24.0609 24.061 34.7788 24.061 47.9999C24.061 61.221 34.7789 71.9389 48 71.9389Z" fill="#F32735"/>
<path d="M64.8599 31.0052L31.1418 64.9962C31.1425 64.9969 31.1432 64.9976 31.1439 64.9983C40.5312 74.3083 55.6884 74.2456 64.9984 64.8582C74.3079 55.4714 74.2457 40.3154 64.8599 31.0052Z" fill="#9E0F20"/>
<path d="M44.5113 51.9833C45.1325 51.5675 45.7452 51.1392 46.3622 50.7173C48.844 49.0207 51.3261 47.3246 53.8082 45.6284L56.5734 43.7307C56.4297 43.5987 56.3039 43.4764 56.1709 43.3627C55.3859 42.6918 54.5438 42.1048 53.6304 41.6199C52.2047 40.863 50.6963 40.3747 49.0824 40.268C48.2507 40.213 47.4158 40.2572 46.59 40.3988C45.3485 40.6117 44.1705 41.0089 43.0588 41.6036C41.4165 42.482 40.0578 43.6818 38.9811 45.1997C37.7404 46.949 37.052 48.9018 36.8755 51.0337C36.8048 51.8884 36.8445 52.7446 36.9773 53.5926C37.1473 54.6787 37.4545 55.7257 37.9175 56.7246C38.4318 57.8341 39.1068 58.8363 39.942 59.7291C40.145 59.946 40.3648 60.1472 40.5827 60.3612C40.9044 59.9139 41.3415 59.67 41.8254 59.498C42.6925 59.1897 43.5992 59.1348 44.506 59.1145C45.0107 59.1032 45.5179 59.1383 46.0219 59.1779C46.5937 59.2229 47.1635 59.294 47.7336 59.3587C48.0039 59.3894 48.2728 59.4317 48.5681 59.4723C47.7319 57.7165 46.9087 55.988 46.0857 54.2599C45.6591 54.3441 45.2555 54.4237 44.8424 54.5052C44.8269 54.4633 44.8134 54.4373 44.8076 54.4096C44.6627 53.7156 44.527 53.0196 44.3687 52.3287C44.3289 52.1553 44.3734 52.0756 44.5113 51.9833ZM43.3616 43.3728C41.5665 44.8649 40.1298 46.6181 39.3867 48.8711C39.1796 49.499 39.0612 50.1435 39.0032 50.8031C38.8442 52.6107 39.2552 54.3029 40.043 55.912C40.3328 56.504 40.6929 57.0616 41.021 57.6349C41.043 57.6734 41.0646 57.712 41.1003 57.7752C40.8558 57.8997 40.6236 58.0238 40.3858 58.1358C40.3046 58.1741 40.2223 58.1894 40.1561 58.0736C39.4677 56.8675 38.9016 55.6105 38.5582 54.2607C38.3194 53.3221 38.1843 52.3671 38.2209 51.3986C38.2823 49.7793 38.7362 48.2739 39.5924 46.8921C40.3401 45.6852 41.2935 44.6667 42.3982 43.7825C43.34 43.0286 44.3525 42.3892 45.4474 41.8816C45.4976 41.8584 45.549 41.838 45.5998 41.8162C44.8072 42.2757 44.0612 42.7914 43.3616 43.3728V43.3728Z" fill="white"/>
<path d="M46.8609 54.7617C47.2889 54.679 47.7074 54.5953 48.1277 54.5215C48.1701 54.514 48.2329 54.5566 48.2695 54.5929C48.877 55.1966 49.4638 55.8226 50.0929 56.4028C50.6203 56.8894 51.1958 57.324 51.7511 57.7803C52.5426 58.4307 53.2344 59.1757 53.8297 60.0073C54.8701 61.4609 55.6222 63.0515 56.0399 64.7923C56.0766 64.9454 56.0299 65.1337 55.9767 65.2903C55.796 65.8221 55.4126 66.2058 54.9887 66.5488C54.395 67.0293 53.7298 67.3883 53.0249 67.6792C52.8784 67.7397 52.8252 67.7107 52.7596 67.5672C52.0339 65.9797 51.299 64.3963 50.5675 62.8114C49.5757 60.6628 48.5849 58.5138 47.5934 56.3651C47.3626 55.8648 47.1309 55.3648 46.9 54.8645C46.886 54.8342 46.8761 54.8019 46.8609 54.7617V54.7617Z" fill="white"/>
<path d="M48.489 60.2315C48.4658 60.1815 48.3935 60.1287 48.339 60.1226C47.2677 60.0023 46.1972 59.8703 45.1232 59.7798C44.3716 59.7165 43.6164 59.7619 42.8687 59.8679C42.3394 59.9429 41.8213 60.0686 41.3466 60.3289C41.0678 60.4818 40.8601 60.6869 40.7338 60.9965C40.3671 61.8954 39.975 62.7841 39.5924 63.6766C39.3938 64.1399 39.1944 64.6029 38.9828 65.0954C39.0326 65.0805 39.0521 65.0752 39.0712 65.0688C40.1122 64.7195 41.191 64.6193 42.2784 64.6183C42.9269 64.6177 43.5766 64.6638 44.2235 64.7166C44.8576 64.7684 45.4915 64.8377 46.1207 64.9311C46.9395 65.0525 47.7537 65.2053 48.5879 65.3477C48.98 64.6412 49.3823 63.9186 49.7802 63.1937C49.8007 63.1563 49.8003 63.091 49.7822 63.0512C49.3546 62.1097 48.9245 61.1693 48.489 60.2315V60.2315ZM42.3604 60.9741C42.2756 61.0001 42.1864 61.0644 42.1343 61.1364C41.5585 61.9318 40.9895 62.7321 40.4197 63.5318C40.4041 63.5536 40.3997 63.5833 40.39 63.6093C40.3751 63.5964 40.3603 63.5837 40.3454 63.5708C40.4443 63.3602 40.5417 63.1488 40.6423 62.939C40.9748 62.2455 41.3065 61.5517 41.6449 60.8611C41.6757 60.7982 41.7446 60.7311 41.8096 60.7115C42.4963 60.5036 43.1974 60.377 43.9136 60.3154C44.4444 60.2697 44.9668 60.285 45.488 60.3874C45.5428 60.3981 45.596 60.4166 45.65 60.4316C44.504 60.3489 43.4293 60.6467 42.3604 60.9741V60.9741Z" fill="white"/>
<path d="M58.9628 49.5132C58.8336 48.7186 58.703 47.9242 58.5754 47.1293C58.462 46.4228 58.3532 45.7156 58.2394 45.0091C58.1527 44.4705 58.0621 43.9323 57.97 43.3772L44.9507 52.312C44.9062 52.3523 44.8628 52.4284 44.8737 52.471C44.9803 52.8895 45.1015 53.3043 45.2176 53.7178C45.247 53.7193 45.2648 53.7238 45.2811 53.7205C46.3123 53.5158 47.3428 53.3079 48.3744 53.1058C50.3486 52.7193 52.3237 52.3377 54.2978 51.9509C55.8796 51.6409 57.4601 51.324 59.0427 51.018C59.1818 50.9911 59.1949 50.9335 59.1758 50.8197C59.1026 50.3846 59.0336 49.9488 58.9628 49.5132V49.5132Z" fill="white"/>
<path d="M51.489 38.6299C51.1795 39.0783 50.8696 39.5266 50.5645 39.9684C52.2686 40.2606 53.6182 40.9617 54.35 41.3849C54.4628 41.4363 54.5322 41.4271 54.6232 41.349C55.1948 40.8584 55.7694 40.371 56.3462 39.8862C57.4865 38.928 58.6297 37.9733 59.77 37.0152C60.9689 36.0079 62.1661 34.9987 63.3635 33.9898C61.4052 32.5974 59.1923 31.5459 56.8103 30.922C56.2588 31.7245 55.7036 32.5245 55.1503 33.3257C53.9296 35.0936 52.7095 36.8619 51.489 38.6299V38.6299Z" fill="white"/>
<path d="M45.1452 38.8049C45.0162 39.2841 44.8771 39.8007 44.7433 40.3065C45.0226 40.2443 46.6823 39.6153 49.0566 39.7736C49.171 39.7805 49.2304 39.7395 49.2837 39.6397C49.7955 38.6817 50.2831 37.7686 50.7981 36.8123C51.5424 35.4307 52.2861 34.0486 53.0301 32.6668C53.4286 31.9266 53.8273 31.1865 54.237 30.426C53.4129 30.3226 52.5737 30.269 51.7222 30.269C50.2072 30.269 48.7306 30.4381 47.3097 30.7577C47.2686 30.9295 47.22 31.0996 47.1741 31.2702C46.4978 33.7818 45.821 36.2932 45.1452 38.8049V38.8049Z" fill="white"/>
<path d="M39.2752 35.0192C39.3149 35.488 39.3552 35.9568 39.3944 36.4257C39.4322 36.8775 39.4678 37.3295 39.5066 37.7812C39.546 38.2382 39.5899 38.6949 39.6287 39.152C39.6684 39.6212 39.7042 40.0909 39.7418 40.5602C39.7781 41.0126 39.8137 41.465 39.8515 41.9172C39.8857 42.3257 39.9201 42.7549 39.9578 43.1873C40.4221 42.7335 41.8598 41.4514 43.6327 40.7154C43.7152 40.6811 43.7969 40.6625 43.8177 40.5299C43.9285 39.8239 44.0368 39.2386 44.1599 38.5345C44.332 37.5498 44.5039 36.5651 44.6753 35.5802C44.8899 34.347 45.1044 33.1137 45.3176 31.8802C45.3512 31.6862 45.3806 31.4913 45.4128 31.2841C43.1585 32.0313 41.0777 33.1675 39.2489 34.6138C39.248 34.6174 39.247 34.621 39.247 34.6246C39.2439 34.7559 39.2639 34.8877 39.2752 35.0192V35.0192Z" fill="white"/>
<path d="M36.9101 45.6122C37.0838 45.9617 37.2858 46.3709 37.4648 46.7303C37.8421 45.894 38.6303 44.6449 39.3736 43.798C39.412 43.7541 39.4344 43.669 39.4223 43.6121C39.2974 43.0247 39.1634 42.4741 39.032 41.8882C38.6845 40.3396 38.3368 38.791 37.9891 37.2424C37.8978 36.836 37.8057 36.4299 37.7039 35.9789C37.5674 36.1243 37.4611 36.236 37.3565 36.3493C36.9195 36.8231 36.4471 37.2697 36.0547 37.7779C35.5262 38.4625 35.0417 39.1811 34.5432 39.889C34.4588 40.025 34.376 40.1621 34.2948 40.3001C34.2949 40.3397 34.3084 40.3796 34.331 40.4252C35.1925 42.1534 36.0509 43.8829 36.9101 45.6122V45.6122Z" fill="white"/>
<path d="M32.7803 46.6395C33.7808 47.523 34.7818 48.4059 35.7829 49.2887C36.0109 49.4898 36.2563 49.705 36.5045 49.9224C36.5994 49.1732 36.8537 48.2438 37.1402 47.5112C37.1952 47.3706 37.14 47.2872 37.0664 47.1885C36.0537 45.83 35.0308 44.4732 34.0188 43.1141C33.7908 42.808 33.5609 42.5033 33.3231 42.1864C33.2963 42.2369 33.2792 42.2655 33.2654 42.2956C33.2295 42.374 33.1943 42.4525 33.1596 42.5312C32.6904 43.6126 32.3118 44.7427 32.033 45.9114C32.0422 45.9515 32.0631 45.9927 32.0877 46.0159C32.3136 46.2291 32.5474 46.4339 32.7803 46.6395V46.6395Z" fill="white"/>
<path d="M35.6232 53.2324C35.8911 53.3251 36.1902 53.43 36.465 53.526C36.304 52.5315 36.3763 51.1206 36.3937 50.8167C36.4009 50.6929 36.3597 50.623 36.2506 50.5558C35.1162 49.8563 33.9625 49.1456 32.8309 48.4414C32.4559 48.208 32.0802 47.9756 31.6854 47.7308C31.5457 48.697 31.473 49.6847 31.473 50.6893C31.473 51.0635 31.4833 51.4353 31.5032 51.8047C31.5205 51.8144 31.5407 51.8232 31.5645 51.8313C32.9187 52.2949 34.2707 52.7642 35.6232 53.2324V53.2324Z" fill="white"/>
<path d="M37.5175 57.0452C37.4505 56.9275 37.3798 56.9088 37.2586 56.9379C36.1152 57.2128 34.9399 57.491 33.7957 57.7632C33.4708 57.8404 33.1458 57.9186 32.814 57.9982C33.1878 58.9784 33.6344 59.9224 34.1473 60.8234C35.5563 60.0709 36.9693 59.3185 38.3802 58.5648C37.8341 57.7206 37.782 57.5094 37.5175 57.0452V57.0452Z" fill="white"/>
<path d="M34.4829 56.241C35.1105 56.2357 35.7381 56.24 36.3657 56.24H37.1675C37.1514 56.178 36.7736 55.0983 36.6549 54.5391C36.6473 54.486 36.5595 54.416 36.4985 54.4029C35.1074 54.1062 33.7271 53.8217 32.3346 53.5315C32.1105 53.4848 31.885 53.4425 31.6508 53.3971C31.7805 54.3801 31.9794 55.3414 32.2432 56.2755C32.248 56.2755 32.2527 56.2755 32.2577 56.2754C32.9993 56.259 33.7411 56.2473 34.4829 56.241V56.241Z" fill="white"/>
</svg>
