<svg width="96" height="97" viewBox="0 0 96 97" fill="none" xmlns="http://www.w3.org/2000/svg">
<path d="M43.9353 3.39776C46.4432 1.91836 49.5568 1.91837 52.0647 3.39776L83.9019 22.1786C86.3406 23.6171 87.8372 26.2376 87.8372 29.069V66.931C87.8372 69.7624 86.3405 72.3829 83.9019 73.8214L52.0647 92.6022C49.5568 94.0816 46.4432 94.0816 43.9353 92.6022L12.0981 73.8214C9.65945 72.3829 8.16283 69.7624 8.16283 66.931V29.069C8.16283 26.2376 9.65945 23.6171 12.0981 22.1786L43.9353 3.39776Z" fill="white"/>
<path fill-rule="evenodd" clip-rule="evenodd" d="M84.2763 22.9272L51.6205 4.07336C49.3801 2.77989 46.6199 2.77989 44.3795 4.07336L11.7237 22.9272C9.48337 24.2207 8.10326 26.6111 8.10326 29.198V66.9057C8.10326 69.4927 9.48337 71.8831 11.7237 73.1766L44.3795 92.0304C46.6199 93.3239 49.3801 93.3239 51.6205 92.0304L84.2763 73.1766C86.5166 71.8831 87.8967 69.4927 87.8967 66.9057V29.198C87.8967 26.6111 86.5166 24.2207 84.2763 22.9272ZM53.1721 1.38586C49.9716 -0.461953 46.0284 -0.461954 42.8279 1.38586L10.1721 20.2397C6.97159 22.0875 5 25.5024 5 29.198V66.9057C5 70.6014 6.97159 74.0162 10.1721 75.8641L42.8279 94.7179C46.0284 96.5657 49.9716 96.5657 53.1721 94.7179L85.8279 75.8641C89.0284 74.0162 91 70.6014 91 66.9057V29.198C91 25.5024 89.0284 22.0875 85.8279 20.2397L53.1721 1.38586Z" fill="#F8DC3D"/>
<g clip-path="url(#clip0)">
<path d="M72.0001 24H24.0001V72H72.0001V24Z" fill="#F8DC3D"/>
<path d="M50.2794 66.75H37.9454V45.334H50.2794V49.0547H42.4864V53.7568H49.7374V57.4775H42.4864V63H50.2794V66.75Z" fill="black"/>
<path d="M67.4034 60.8027C67.4034 62.7363 66.7051 64.2598 65.3087 65.373C63.9219 66.4863 61.9883 67.043 59.5079 67.043C57.2227 67.043 55.2012 66.6133 53.4434 65.7539V61.5352C54.8887 62.1797 56.1094 62.6338 57.1055 62.8975C58.1114 63.1611 59.0294 63.293 59.8594 63.293C60.8555 63.293 61.6172 63.1025 62.1446 62.7217C62.6817 62.3408 62.9503 61.7744 62.9503 61.0225C62.9503 60.6025 62.8331 60.2314 62.5987 59.9092C62.3643 59.5771 62.0176 59.2598 61.5587 58.957C61.1094 58.6543 60.1866 58.1709 58.7901 57.5068C57.4815 56.8916 56.5001 56.3008 55.8458 55.7344C55.1915 55.168 54.669 54.5088 54.2784 53.7568C53.8878 53.0049 53.6924 52.126 53.6924 51.1201C53.6924 49.2256 54.3321 47.7363 55.6114 46.6523C56.9005 45.5684 58.6778 45.0264 60.9434 45.0264C62.0567 45.0264 63.1163 45.1582 64.1221 45.4219C65.1378 45.6855 66.1973 46.0566 67.3008 46.5352L65.836 50.0654C64.6934 49.5967 63.7462 49.2695 62.9942 49.084C62.252 48.8984 61.5196 48.8057 60.7969 48.8057C59.9376 48.8057 59.2784 49.0059 58.8194 49.4062C58.3604 49.8066 58.1309 50.3291 58.1309 50.9736C58.1309 51.374 58.2237 51.7256 58.4092 52.0283C58.5948 52.3213 58.8878 52.6094 59.2881 52.8926C59.6983 53.166 60.6602 53.6641 62.1739 54.3867C64.1758 55.3437 65.5479 56.3057 66.2901 57.2725C67.0323 58.2295 67.4034 59.4063 67.4034 60.8027Z" fill="black"/>
</g>
<defs>
<clipPath id="clip0">
<rect width="48" height="48" fill="white" transform="translate(24.0001 24)"/>
</clipPath>
</defs>
</svg>
