<svg width="96" height="96" viewBox="0 0 96 96" fill="none" xmlns="http://www.w3.org/2000/svg">
<path d="M44 2.30935C46.4752 0.880283 49.5248 0.880284 52 2.30935L85.5692 21.6905C88.0444 23.1196 89.5692 25.7606 89.5692 28.6187V67.3811C89.5692 70.2393 88.0444 72.8803 85.5692 74.3093L52 93.6905C49.5248 95.1196 46.4752 95.1196 44 93.6905L10.4308 74.3093C7.95557 72.8803 6.43078 70.2393 6.43078 67.3811V28.6187C6.43078 25.7606 7.95557 23.1196 10.4308 21.6905L44 2.30935Z" fill="white"/>
<path fill-rule="evenodd" clip-rule="evenodd" d="M84.1907 22.9024L51.5701 4.06896C49.3322 2.77689 46.575 2.77689 44.337 4.06896L11.7165 22.9024C9.47853 24.1945 8.09991 26.5824 8.09991 29.1665V66.8335C8.09991 69.4176 9.47853 71.8055 11.7165 73.0975L44.337 91.931C46.575 93.2231 49.3322 93.2231 51.5701 91.931L84.1907 73.0975C86.4286 71.8055 87.8072 69.4176 87.8072 66.8335V29.1665C87.8072 26.5824 86.4286 24.1945 84.1907 22.9024ZM53.1201 1.38436C49.923 -0.461454 45.9841 -0.461455 42.7871 1.38436L10.1665 20.2178C6.96946 22.0637 5 25.4749 5 29.1665V66.8335C5 70.5251 6.96946 73.9363 10.1665 75.7821L42.7871 94.6156C45.9841 96.4614 49.923 96.4614 53.1201 94.6156L85.7406 75.7821C88.9377 73.9363 90.9071 70.5251 90.9071 66.8335V29.1665C90.9071 25.4749 88.9377 22.0637 85.7406 20.2178L53.1201 1.38436Z" fill="#7D41A4"/>
<g clip-path="url(#clip0)">
<path fill-rule="evenodd" clip-rule="evenodd" d="M49.5253 24.1208C46.038 25.357 42.6716 28.9648 39.4261 34.9444C34.5579 43.9138 28.2704 56.6595 36.9284 66.7509C40.9338 71.4196 47.5473 74.175 56.2265 69.811C63.1989 66.3053 65.1381 56.2447 62.6349 51.517C57.4713 41.7648 52.2326 39.3594 50.8298 33.3115C49.8945 29.2796 49.4597 26.216 49.5253 24.1208V24.1208Z" fill="url(#paint0_linear)"/>
<path fill-rule="evenodd" clip-rule="evenodd" d="M49.5253 24C46.0203 25.2488 42.6539 28.8567 39.4261 34.8235C34.5844 43.7738 28.2704 56.5386 36.9284 66.6301C40.9338 71.2987 47.4622 72.8074 51.0847 70.0385C53.4462 68.2334 55.0523 66.5128 55.9777 62.8874C57.0081 58.8507 56.2175 53.416 55.6758 50.9194C54.9904 47.7602 54.766 44.2928 55.0027 40.5171C54.9193 40.4155 54.857 40.3394 54.8157 40.289C52.9298 37.981 51.4746 35.9706 50.8298 33.1907C49.8945 29.1587 49.4597 26.0952 49.5253 24V24Z" fill="url(#paint1_linear)"/>
<path fill-rule="evenodd" clip-rule="evenodd" d="M46.6231 25.5703C43.3585 28.1504 40.9312 32.4782 39.3412 38.5536C36.9561 47.6666 36.6977 56.0703 37.5389 60.9584C39.1695 70.4341 47.6232 74.0309 56.2944 69.6203C61.6308 66.906 63.8534 61.0797 63.7357 54.7555C63.6137 48.2072 50.9597 40.7859 48.7186 35.321C47.2246 31.6777 46.5261 28.4275 46.6231 25.5703V25.5703Z" fill="url(#paint2_linear)"/>
<path fill-rule="evenodd" clip-rule="evenodd" d="M54.8996 42.6555C58.8148 47.6767 59.6683 51.1721 57.4599 53.1416C54.1474 56.0959 46.0469 58.0235 41.0075 54.4497C37.6479 52.0673 36.3767 46.9563 37.194 39.1169C35.8072 42.0132 34.6346 44.9472 33.6763 47.9188C32.7179 50.8905 32.4381 54.0002 32.8367 57.2481C34.0377 59.6779 36.9578 61.3007 41.597 62.1165C48.5558 63.3402 55.1421 62.7355 59.5616 60.5077C62.5079 59.0224 63.9014 57.5439 63.7423 56.0722C63.8486 53.8988 63.1784 51.8298 61.7317 49.8654C60.2849 47.9009 58.0076 45.4976 54.8996 42.6555V42.6555Z" fill="url(#paint3_linear)"/>
<path fill-rule="evenodd" clip-rule="evenodd" d="M39.5994 37.6418C39.5667 41.2682 40.4991 44.7155 42.3967 47.9837C45.2431 52.886 48.5656 57.7301 53.5375 61.7454C56.8521 64.4223 59.5006 65.2871 61.4829 64.3399C59.8547 67.254 58.1234 68.6819 56.289 68.6236C53.5375 68.5363 50.1824 67.3338 44.8068 60.8739C41.2231 56.5672 38.7714 52.4934 37.4518 48.6525C37.6611 47.1288 37.883 45.611 38.1175 44.0994C38.352 42.5877 38.846 40.4352 39.5994 37.6418V37.6418Z" fill="url(#paint4_linear)"/>
<path fill-rule="evenodd" clip-rule="evenodd" d="M48.0085 42.6184C48.3126 45.5725 49.4621 50.2981 48.0085 53.4443C46.5548 56.5906 39.8404 62.2744 41.6939 67.2814C43.5473 72.2884 48.0641 71.1643 50.8974 68.8568C53.7307 66.5493 55.2473 62.7973 55.5834 60.1587C55.9196 57.52 54.7791 52.4429 54.4082 48.0267C54.1609 45.0826 54.3287 42.5583 54.9115 40.4539L54.0433 39.3614L48.9333 37.8484C48.114 39.059 47.8057 40.649 48.0085 42.6184V42.6184Z" fill="url(#paint5_linear)"/>
<path fill-rule="evenodd" clip-rule="evenodd" d="M49.8325 27.9861C48.1786 28.685 46.6116 30.0697 45.1315 32.1404C42.9114 35.2465 41.7806 37.1084 42.6176 43.2653C43.1756 47.37 43.575 51.1462 43.8158 54.5939L50.973 33.7987C50.7099 32.7391 50.4911 31.7821 50.3165 30.9278C50.1419 30.0735 49.9806 29.0929 49.8325 27.9861V27.9861Z" fill="url(#paint6_linear)"/>
<path fill-rule="evenodd" clip-rule="evenodd" d="M50.9593 33.7573C49.1424 34.8178 47.7345 36.9905 46.7357 40.2754C45.7369 43.5603 44.8231 48.1525 43.9943 54.052C45.0997 50.2997 45.8329 47.5819 46.194 45.8986C46.7357 43.3738 46.9207 39.8033 48.359 37.3793C49.3178 35.7633 50.1846 34.5559 50.9593 33.7573V33.7573Z" fill="#330A4C" fill-opacity="0.316321"/>
<path fill-rule="evenodd" clip-rule="evenodd" d="M42.5466 68.9536C45.5366 69.3808 47.1001 69.7605 47.237 70.0929C47.4425 70.5915 46.8585 71.0475 45.1988 70.741C44.0924 70.5367 43.2083 69.9409 42.5466 68.9536Z" fill="white"/>
<path fill-rule="evenodd" clip-rule="evenodd" d="M44.0487 27.9861C42.4041 29.9508 40.9791 32.0336 39.7735 34.2347C38.568 36.4358 37.7066 38.0779 37.1894 39.161C37.0291 39.9688 36.9508 41.1607 36.9546 42.7368C36.9584 44.3129 37.0948 46.0654 37.3636 47.9941C37.599 44.2172 38.3195 40.551 39.5251 36.9956C40.7308 33.4403 42.2387 30.4371 44.0487 27.9861V27.9861Z" fill="#EDEDED" fill-opacity="0.603261"/>
</g>
<defs>
<linearGradient id="paint0_linear" x1="48.8535" y1="27.6586" x2="47.1884" y2="71.9638" gradientUnits="userSpaceOnUse">
<stop stop-color="#D9D8DC"/>
<stop offset="1" stop-color="white" stop-opacity="0.385275"/>
</linearGradient>
<linearGradient id="paint1_linear" x1="49.6062" y1="27.6474" x2="32.2041" y2="65.7878" gradientUnits="userSpaceOnUse">
<stop stop-color="#8D67AF" stop-opacity="0.671932"/>
<stop offset="1" stop-color="#9F8DAF"/>
</linearGradient>
<linearGradient id="paint2_linear" x1="51.5488" y1="40.0048" x2="51.5488" y2="70.6758" gradientUnits="userSpaceOnUse">
<stop stop-color="#26053D" stop-opacity="0.761634"/>
<stop offset="1" stop-color="#B7B4B4" stop-opacity="0.277683"/>
</linearGradient>
<linearGradient id="paint3_linear" x1="35.8117" y1="42.0788" x2="43.6199" y2="62.7623" gradientUnits="userSpaceOnUse">
<stop stop-color="#91739F" stop-opacity="0.45955"/>
<stop offset="1" stop-color="#32054F" stop-opacity="0.539912"/>
</linearGradient>
<linearGradient id="paint4_linear" x1="56.6822" y1="67.5131" x2="35.2105" y2="49.7216" gradientUnits="userSpaceOnUse">
<stop stop-color="#463D49" stop-opacity="0.331182"/>
<stop offset="1" stop-color="#340A50" stop-opacity="0.821388"/>
</linearGradient>
<linearGradient id="paint5_linear" x1="52.2689" y1="40.294" x2="37.1252" y2="63.3317" gradientUnits="userSpaceOnUse">
<stop stop-color="#715383" stop-opacity="0.145239"/>
<stop offset="1" stop-color="#F4F4F4" stop-opacity="0.233639"/>
</linearGradient>
<linearGradient id="paint6_linear" x1="53.7172" y1="47.3207" x2="42.9927" y2="46.666" gradientUnits="userSpaceOnUse">
<stop stop-color="#A5A1A8" stop-opacity="0.356091"/>
<stop offset="1" stop-color="#370C50" stop-opacity="0.581975"/>
</linearGradient>
<clipPath id="clip0">
<rect width="48" height="48" fill="white" transform="translate(24 24)"/>
</clipPath>
</defs>
</svg>
