<svg width="96" height="96" viewBox="0 0 96 96" fill="none" xmlns="http://www.w3.org/2000/svg">
<path d="M44 2.30935C46.4752 0.880283 49.5248 0.880284 52 2.30935L85.5692 21.6905C88.0444 23.1196 89.5692 25.7606 89.5692 28.6187V67.3811C89.5692 70.2393 88.0444 72.8803 85.5692 74.3093L52 93.6905C49.5248 95.1196 46.4752 95.1196 44 93.6905L10.4308 74.3093C7.95558 72.8803 6.43079 70.2393 6.43079 67.3811V28.6187C6.43079 25.7606 7.95558 23.1196 10.4308 21.6905L44 2.30935Z" fill="white"/>
<path fill-rule="evenodd" clip-rule="evenodd" d="M84.1907 22.9024L51.5701 4.06896C49.3322 2.77689 46.575 2.77689 44.337 4.06896L11.7165 22.9024C9.47853 24.1945 8.09991 26.5824 8.09991 29.1665V66.8335C8.09991 69.4176 9.47853 71.8055 11.7165 73.0975L44.337 91.931C46.575 93.2231 49.3322 93.2231 51.5701 91.931L84.1907 73.0975C86.4286 71.8055 87.8072 69.4176 87.8072 66.8335V29.1665C87.8072 26.5824 86.4286 24.1945 84.1907 22.9024ZM53.1201 1.38436C49.923 -0.461454 45.9841 -0.461455 42.7871 1.38436L10.1665 20.2178C6.96946 22.0637 5 25.4749 5 29.1665V66.8335C5 70.5251 6.96946 73.9363 10.1665 75.7821L42.7871 94.6156C45.9841 96.4614 49.923 96.4614 53.1201 94.6156L85.7406 75.7821C88.9377 73.9363 90.9071 70.5251 90.9071 66.8335V29.1665C90.9071 25.4749 88.9377 22.0637 85.7406 20.2178L53.1201 1.38436Z" fill="#A90533"/>
<path d="M31.5069 63.289C27.7926 59.3532 25.6195 53.9159 25.625 47.4284C25.6199 41.6911 27.4225 36.7596 30.5216 33.0071L30.5166 33.009H24.0028V63.2896H31.5023L31.5069 63.289V63.289Z" fill="#A90533"/>
<path d="M65.8119 63.2915C67.4119 61.5779 68.8456 59.5597 70.1447 57.2516L62.935 53.6467C60.403 57.7631 56.7002 61.5521 51.5798 61.5774C44.1277 61.5521 41.1997 55.1798 41.2159 46.9778H69.0633C69.1005 46.0518 69.1005 45.6212 69.0633 45.1755C69.245 40.2958 67.9518 36.1942 65.5992 33L65.5871 33.0091H71.857V63.2898H65.7983L65.8119 63.2916V63.2915Z" fill="#A90533"/>
<path d="M41.6667 39.9483C41.975 36.2348 44.9028 33.7375 48.3357 33.73C51.792 33.7375 54.2892 36.2348 54.3738 39.9483H41.6667Z" fill="#A90533"/>
</svg>
