<svg xmlns="http://www.w3.org/2000/svg" fill="none" viewBox="0 0 3126 3130"><path fill="#fff" d="M1558.94 34.96a7.983 7.983 0 0 1 8.12 0l1289.2 760.5a8 8 0 0 1 3.94 6.89v1521.3c0 2.83-1.5 5.45-3.94 6.89l-1289.2 760.5a7.98 7.98 0 0 1-8.12 0l-1289.202-760.5a8.003 8.003 0 0 1-3.936-6.89V802.35a7.999 7.999 0 0 1 3.936-6.89L1558.94 34.96Z"/><path fill="#C38C48" fill-rule="evenodd" d="M2744.25 746.567 1680.89 132.639c-72.95-42.119-162.83-42.119-235.78 0L381.754 746.567c-72.952 42.119-117.892 119.957-117.892 204.194V2178.62c0 84.23 44.94 162.07 117.892 204.19l1063.356 613.93c72.95 42.12 162.83 42.12 235.78 0l1063.36-613.93c72.95-42.12 117.89-119.96 117.89-204.19V950.761c0-84.237-44.94-162.075-117.89-204.194ZM1731.42 45.127c-104.22-60.17-232.62-60.17-336.84 0L331.229 659.055c-104.217 60.17-168.417 171.367-168.417 291.706V2178.62c0 120.34 64.2 231.53 168.417 291.7l1063.351 613.93c104.22 60.17 232.62 60.17 336.84 0l1063.35-613.93c104.22-60.17 168.42-171.36 168.42-291.7V950.761c0-120.339-64.2-231.536-168.42-291.706L1731.42 45.127Z" clip-rule="evenodd"/><g clip-path="url(#a)"><path fill="#C38C48" d="M1908.73 490.486C1969 500 1969 500 2019.75 550.738c12.3 35.546 23.25 71.571 33.3 107.818 44.23 139.127 111.89 223.422 223.62 318.699 49.54 57.785 60.41 90.035 80.88 161.725 28.86 98.86 69.28 159.95 136.4 237.84 70.58 87.07 116.89 151.89 106.55 266.77-62.52 135.47-227.71 204.45-357.13 262.81-84.4 16.87-163.16 17.7-249 14.27-6.8 20.93-13.6 41.86-20.61 63.42-30.14 88.79-30.14 88.79-68.2 177.58-57.67 149.85-69.89 310.91-88.81 469.33-133.89 12.21-216.47-25.15-326.7-95.13-16.33-10.11-32.66-20.21-49.48-30.63-292.12-184.43-567.102-396.18-816.445-635.31l-44.704-34.79c-48.553-63.85-37.029-114.9-31.421-193.53 26.341-73.09 26.341-73.09 63.041-148.25l40.243-83.15c14.065-28.28 28.131-56.57 42.622-85.72 13.673-28.28 27.346-56.57 41.433-85.72 219.302-448.658 219.302-448.658 443.371-539.98 166.91-55.426 321.1-83.514 496.99-85.422 105.21-19.271 128.98-108.02 233.03-122.882Z"/><path fill="#291D0F" d="M1908.73 490.486C1969 500 1969 500 2019.75 550.738c12.3 35.546 23.25 71.571 33.3 107.818 44.23 139.127 111.89 223.422 223.62 318.699 49.54 57.785 60.41 90.035 80.88 161.725 28.86 98.86 69.28 159.95 136.4 237.84 70.58 87.07 116.89 151.89 106.55 266.77-62.52 135.47-227.71 204.45-357.13 262.81-84.4 16.87-163.16 17.7-249 14.27-6.8 20.93-13.6 41.86-20.61 63.42-30.14 88.79-30.14 88.79-68.2 177.58-57.67 149.85-69.89 310.91-88.81 469.33-133.89 12.21-216.47-25.15-326.7-95.13-16.33-10.11-32.66-20.21-49.48-30.63-292.12-184.43-567.102-396.18-816.445-635.31l-44.704-34.79c-48.553-63.85-37.029-114.9-31.421-193.53 26.341-73.09 26.341-73.09 63.041-148.25l40.243-83.15c14.065-28.28 28.131-56.57 42.622-85.72 13.673-28.28 27.346-56.57 41.433-85.72 219.302-448.658 219.302-448.658 443.371-539.98 166.91-55.426 321.1-83.514 496.99-85.422 105.21-19.271 128.98-108.02 233.03-122.882Zm-15.86 85.621-42.12 49.747c-76.73 66.849-122.2 65.028-222.73 67.585-110.3 3.322-192.95 13.325-293.4 60.251 8.38 16.744 16.75 33.487 25.38 50.738-50.75 0-50.75 0-122.12-6.342-102.7 8.053-136.43 34.586-207.76 107.818C948.366 1027.1 934.037 1143.88 954 1286.44c24.103 56.17 24.103 56.17 50.75 101.48-37.039-37.03-47.144-79.47-65.024-128.43-6.836-18.61-13.672-37.22-20.716-56.39-5.201-14.36-10.402-28.71-15.76-43.51-80.538 96.12-131.538 204.92-185.555 317.12-9.764 19.26-19.528 38.52-29.587 58.37-8.979 18.67-17.958 37.34-27.209 56.58l-25.109 51.19c-16.555 50.37-16.555 50.37 6.4 101.16 100.472 153.12 253.268 267.15 399.04 374.85 17.27 12.86 34.55 25.73 52.35 38.98 305.55 231.71 305.55 231.71 647.04 397.05l2.88-48.36c11.49-149.5 40.32-270.9 98.62-408.28 14.44-37.99 28.71-76.05 42.83-114.16 10.99-29.3 21.98-58.6 33.3-88.79-75.36-8.37-150.73-16.75-228.38-25.37 200.97-12.56 200.97-12.56 406-25.37-87.4-58.26-150.68-64.44-253.75-76.11 14.08.53 28.15 1.06 42.65 1.61 64.02 2.12 128.03 3.43 192.07 4.73 33.22 1.28 33.22 1.28 67.11 2.58 133.23 3.95 133.23 3.95 246.51-60.05l35.29-50.34c-58.62-8.38-117.23-16.75-177.63-25.37 8.38-41.86 16.75-83.72 25.38-126.85 50.24-16.74 100.48-33.49 152.25-50.74-10.4-14.12-20.8-28.25-31.52-42.81-125.31-177.43-125.31-177.43-146.11-293.33-31.9-119.61-80.73-148.355-177.62-221.976-83.7-106.921-121.11-200.076-152.25-329.797h-25.38Z"/><path fill="#BF8947" d="M1908.73 490.486C1969 500 1969 500 2019.75 550.738c12.3 35.546 23.25 71.571 33.3 107.818 44.23 139.127 111.89 223.422 223.62 318.699 49.54 57.785 60.41 90.035 80.88 161.725 28.86 98.86 69.28 159.95 136.4 237.84 70.58 87.07 116.89 151.89 106.55 266.77-62.52 135.47-227.71 204.45-357.13 262.81-84.4 16.87-163.16 17.7-249 14.27-6.8 20.93-13.6 41.86-20.61 63.42-30.14 88.79-30.14 88.79-68.2 177.58-57.67 149.85-69.89 310.91-88.81 469.33-133.89 12.21-216.47-25.15-326.7-95.13-16.33-10.11-32.66-20.21-49.48-30.63-292.12-184.43-567.102-396.18-816.445-635.31l-44.704-34.79c-48.553-63.85-37.029-114.9-31.421-193.53 26.341-73.09 26.341-73.09 63.041-148.25l40.243-83.15c14.065-28.28 28.131-56.57 42.622-85.72 13.673-28.28 27.346-56.57 41.433-85.72 219.302-448.658 219.302-448.658 443.371-539.98 166.91-55.426 321.1-83.514 496.99-85.422 105.21-19.271 128.98-108.02 233.03-122.882Zm-41.23 60.252c-13.93 16.057-27.87 32.113-42.23 48.657-78.86 70.276-151.67 72.353-252.75 79.774-36.53 3.752-73.04 7.649-109.53 11.693l-53.54 5.921c-213.02 26.575-347.07 91.463-480.825 259.86-56.15 95.847-102.107 195.187-147.492 296.497l-36.625 79.33c-22.329 48.38-44.496 96.84-66.443 145.4-18.131 39.52-37.045 78.7-56.982 117.34-31.078 64.56-34.437 102.36-22.333 173.24 40.577 48.68 79.376 85.54 126.875 126.85l49.759 48.06c435.046 416.48 435.046 416.48 959.296 640.47 18.71-1.18 37.42-2.36 56.69-3.57 2.2-26.36 4.39-52.71 6.65-79.87 18.98-197.2 42.86-359.39 145.01-533.54 30.12-44.73 30.12-44.73 25.97-96.92 27.21 3.14 54.43 6.28 82.47 9.51 169.86.91 343.27-93.67 471.81-200.67 35.68-38.03 35.68-38.03 34.1-103.76-32.05-91.07-64.16-126.4-130.04-195.02-94.01-98.64-120.7-164.32-139.96-296.6-24-87.574-95.68-125.363-166.13-177.486-83.7-106.921-121.11-200.076-152.25-329.797-45.2-21.908-45.2-21.908-101.5-25.369Z"/><path fill="#B07E42" d="m1352.07 813.942 53.97 4.361c43.88 3.581 87.74 7.505 131.58 11.495-28.17 121.396-50.47 194.602-149.07 272.722-17.21 13.99-34.41 27.99-52.14 42.41a4246.07 4246.07 0 0 1-107.25 79.08c-58.51 46.35-85.79 99.8-122.91 163.91-16.75 8.37-33.49 16.74-50.75 25.37-78.466-75.04-106.078-122.52-111.016-231.5 1.08-133.66 50.661-225.944 136.396-326.623 95.53-63.678 162.26-51.393 271.19-41.225Z"/><path fill="#160F08" d="M1867.5 550.739c54.81-.298 54.81-.298 101.5 25.369 22.1 47.071 22.1 47.071 36.48 106.232 44.25 150.899 118.15 231.439 236.3 336.14 57.1 65.01 57.1 65.01 66.02 148.94 24.26 138.11 105 205.43 198.24 305.52 46.58 67.19 46.58 67.19 47.58 134.08-32.83 74.64-65.22 98.22-134.21 140.82-29.25 18.59-29.25 18.59-59.08 37.56-125.89 69.22-216.4 90.62-361.2 87.7-29.47-.46-58.94-.92-89.31-1.39-33.51-.88-33.51-.88-67.7-1.78v-25.37c87.93-12.56 87.93-12.56 177.63-25.37-83.74-16.74-167.47-33.49-253.75-50.74v-25.37l50.04.81c74.77 1.05 149.55 1.71 224.33 2.36 25.99.43 51.97.86 78.75 1.29 24.94.17 49.88.33 75.58.5 22.99.26 45.98.53 69.66.8 66.73-1.66 66.73-1.66 136.02-56.49-58.62-16.75-117.24-33.49-177.63-50.74 3.17-58.67 3.17-58.67 25.37-126.85 77.72-45.98 77.72-45.98 152.26-76.1l-32.42-37.27c-74.2-90.76-127.6-157.24-135.69-276.68-3.14-30.34-6.28-60.69-9.52-91.96-33.34-17.86-67.28-34.629-101.5-50.738-107.43-111.181-198.89-220.312-203-380.535a369783.44 369783.44 0 0 0-52.63 50.341c-90.55 62.366-138.56 61.862-247.11 57.477l-89.31-2.775-67.7-3.567v-25.369l63.04-1.982 82.87-4.36 82.07-3.568c91.02-18.388 114.59-52.455 178.02-116.935Z"/><path fill="#C48D49" d="M1907.15 492.072C1969 500 1969 500 2019.75 550.738c12.3 35.547 23.25 71.571 33.3 107.819 44.23 139.126 111.89 223.421 223.62 318.698 49.54 57.785 60.41 90.035 80.88 161.725 28.86 98.86 69.28 159.95 136.4 237.84 70.58 87.07 116.89 151.9 106.55 266.77-62.52 135.47-227.71 204.45-357.13 262.81-84.4 16.87-163.16 17.7-248.99 14.27-6.81 20.93-13.61 41.86-20.62 63.42-30.14 88.79-30.14 88.79-68.2 177.58-57.67 149.85-69.89 310.91-88.81 469.33-33.5-8.37-66.99-16.74-101.5-25.37 25.12-12.56 25.12-12.56 50.75-25.37 5.79-43.6 11.24-87.29 14.71-131.14 16.53-208.03 45.24-417.04 188.29-579.19 70.29-27.36 130.53-34.67 205.58-40.53 124.03-17.22 235.01-78.32 327.3-162.42 31.12-59.38 31.12-59.38 25.37-126.85-45.47-68.43-45.47-68.43-109.43-133.19-96.98-110.68-137.07-181.75-156.71-325.33-22.99-86.488-96-124.486-165.23-175.705-83.7-106.922-121.11-200.077-152.26-329.798-72.75 14.548-97.98 21.854-152.24 76.107-60.47 4.955-60.47 4.955-130.05 3.172l-69.98-1.388-53.73-1.784c57.82-30.558 101.48-50.734 166.53-61.837 63.45-8.699 63.45-8.699 99.91-53.909 38.06-36.468 38.06-36.468 103.09-44.396Z"/><path fill="#13100C" d="M1867.5 1210.33c140 69.99 140 69.99 174.45 158.56 1.05 14.65 2.1 29.3 3.17 44.4-85.63 51.45-154.5 59.01-253.74 60.25-26.17.72-52.34 1.44-79.3 2.18-89.92-14.42-119.64-41.87-174.46-113.17 1.59-53.91 1.59-53.91 25.38-101.48 102.61-68.39 183.99-67.57 304.5-50.74Z"/><path fill="#080503" d="M1309.25 880.536c-8.13 182.954-44.19 297.874-177.63 431.274h-76.12c-35.92-71.83-31.52-123.06-25.38-202.95 34.37-92.22 60.53-140.518 139.57-199.784 63.43-28.54 63.43-28.54 139.56-28.54Z"/><path fill="#B28042" d="M1283.88 804.429c-25.38 50.738-25.38 50.738-87.23 74.521-72.6 23.035-72.6 23.035-115.77 103.062-11.64 67.758-11.64 67.758-15.86 141.118-1.9 24.62-3.8 49.25-5.75 74.62-2.26 37.97-3.77 76.02-3.77 114.06 33.5-8.37 66.99-16.74 101.5-25.37-44.41 98.31-44.41 98.31-101.5 126.85-78.466-75.04-106.078-122.52-111.016-231.5 1.08-133.66 50.661-225.944 136.396-326.623 81.9-54.593 108.7-55.834 203-50.738Z"/><path fill="#884720" d="M1711.38 1258.59c52.04.83 104.08 1.66 156.12 2.48 15.86 47.57 15.86 47.57 25.38 101.48-50.76 50.74-50.76 50.74-142.74 53.91-28.26-1.05-56.52-2.1-85.64-3.17-9.7-42.02-18.12-84.35-25.38-126.85 25.38-25.37 25.38-25.37 72.26-27.85Z"/><path fill="#221307" d="M1842.12 1235.7v25.37c-58.61 8.37-117.23 16.75-177.62 25.37v101.48c58.62 8.37 117.23 16.74 177.62 25.37-8.37 16.74-16.74 33.48-25.37 50.73-160.04 12.31-160.04 12.31-241.06-44.39-38.07-57.08-38.07-57.08-36.48-110.99 68.39-136.74 179.02-93.24 302.91-72.94Z"/><path fill="#B07F41" d="M1766 652.215v25.369l-79 8.423c-208.04 23.384-405.78 54.769-606.12 118.422 8.37-25.115 16.74-50.231 25.37-76.107 217.92-105.508 424.5-111.521 659.75-76.107Z"/><path fill="#322312" d="M1461.5 728.322 1360 779.06c50.24 16.744 100.49 33.487 152.25 50.738-82.41 27.462-131.51 25.091-217.27 17.441l-74.64-6.045c-63.34-11.396-63.34-11.396-114.09-62.134 40.07-13.532 80.27-26.669 120.53-39.639 22.37-7.358 44.75-14.716 67.8-22.297 67.41-14.602 102.73-11.444 166.92 11.198Z"/><path fill="#140E07" d="M1080.88 804.429c16.74 8.371 33.49 16.743 50.74 25.369-15.17 17.267-30.35 34.533-45.99 52.323-61.49 82.558-94.208 156.699-131.63 252.109h-76.125c31.364-156.787 83.762-223.549 203.005-329.801Z"/><path fill="#A0723C" d="M1283.88 804.429c50.74 50.738 50.74 50.738 53.92 130.016-1.05 24.069-2.1 48.138-3.18 72.935h-25.37V880.536c-24.07 12.558-48.15 25.115-72.95 38.053-79.3 38.054-79.3 38.054-130.05 38.054-8.37 16.744-16.75 33.487-25.37 50.737 0-76.106 0-76.106 30.13-115.745 54.29-43.047 107.77-64.342 172.87-87.206Z"/><path fill="#CA914B" d="M1842.12 500c55.51 7.928 55.51 7.928 101.5 25.369-116.19 122.286-116.19 122.286-218.85 135.269-62.81-.446-124.59-2.862-187.15-8.424 57.82-30.558 101.48-50.734 166.53-61.837 63.81-8.789 63.81-8.789 101.5-55.495 12.04-11.511 24.07-23.022 36.47-34.882Z"/><path fill="#BF8947" d="M1283.88 804.429c-25.38 50.738-25.38 50.738-82.47 72.936-78.36 32.046-132.69 75.195-196.66 130.015 49.56-152.787 114.7-216.65 279.13-202.951Z"/><path fill="#0D0A05" d="M1715.25 1210.33c98.79-9.4 147.32-2.6 236.3 44.4 70.99 59.42 78.31 73.09 93.57 158.56-13.18-10.7-26.36-21.39-39.94-32.41-130.1-105.46-130.1-105.46-289.93-145.18v-25.37Z"/><path fill="#392915" d="M903.25 1108.86c50.75 25.37 50.75 25.37 65.916 69.56 5.838 26.79 5.838 26.79 11.795 54.11 13.893 62.22 28.929 120.05 49.169 180.76h-50.755c-17.683-41.13-35.074-82.38-52.336-123.68-9.715-22.96-19.43-45.91-29.439-69.56-19.725-60.45-19.725-60.45 5.65-111.19Z"/><path fill="#BC8746" d="M1537.62 2504.15c75.37 25.12 150.73 50.24 228.38 76.11-50.24 25.12-50.24 25.12-101.5 50.74-69.78-31.71-69.78-31.71-126.88-76.11v-50.74Z"/></g><defs><clipPath id="a"><path fill="#fff" d="M548 500h2030v2131H548z"/></clipPath></defs></svg>
