<svg width="96" height="96" fill="none" xmlns="http://www.w3.org/2000/svg">
  <path d="M44 2.3093a8 8 0 018 0l33.5692 19.3812a8 8 0 014 6.9282v38.7624a7.9998 7.9998 0 01-4 6.9282L52 93.6905a7.9998 7.9998 0 01-8 0L10.4308 74.3093a7.9998 7.9998 0 01-4-6.9282V28.6187a8 8 0 014-6.9282L44 2.3093z" fill="#fff"/>
  <path fill-rule="evenodd" clip-rule="evenodd" d="M84.1907 22.9024L51.5701 4.069a7.233 7.233 0 00-7.2331 0L11.7165 22.9024a7.2332 7.2332 0 00-3.6166 6.2641v37.667a7.233 7.233 0 003.6166 6.264L44.337 91.931a7.233 7.233 0 007.2331 0l32.6206-18.8335a7.233 7.233 0 003.6165-6.264v-37.667a7.2333 7.2333 0 00-3.6165-6.2641zM53.1201 1.3844a10.333 10.333 0 00-10.333 0L10.1665 20.2178A10.3332 10.3332 0 005 29.1665v37.667a10.333 10.333 0 005.1665 8.9486l32.6206 18.8335a10.333 10.333 0 0010.333 0l32.6205-18.8335a10.333 10.333 0 005.1666-8.9486v-37.667a10.3332 10.3332 0 00-5.1666-8.9487L53.1201 1.3844z" fill="#AE7D14"/>
  <g clip-path="url(#clip0)">
    <path fill-rule="evenodd" clip-rule="evenodd" d="M56.3668 40.4246l.1124.0282 3.5379 1.4693 1.9936-1.4412 1.9936-7.6021.0844-.1694 2.134-2.5434c.1683-.1882.3559-.2164.5616-.0845l5.0264 3.4475c.1683.1132.2243.2826.1683.509-.0937.2069-.2435.2919-.4491.2539l-4.6612-.5934-1.6848 2.1764-1.1232 8.0822c0 .0751-.0378.1507-.1124.2258l-3.2571 3.2217-.1969-1.6387-.758 2.4865-4.0995 1.8651 3.0603.7065c.2435.0756.3466.2263.3093.4526l-.2249 2.5997c0 .1695-.0746.2826-.2248.3389l-.2243.1132h-.0565l-2.864.5089c-.1124.0375-.2155.0187-.3087-.0569-.0938-.0751-.1497-.1694-.1684-.2826-.0192-.1126 0-.2164.0559-.3107.0752-.0944.1684-.1507.2808-.1695l1.432-.2544-.8424-.3671c-.1124-.0381-.187-.1131-.2243-.2263-.0565-.1131-.0565-.2164 0-.3107.1119-.2826.2901-.3583.5331-.2263l1.8252.7346.1404-1.8082-3.7343-.8765c-.1497-.0188-.2528-.1126-.3088-.2826-.0378-.0938-.0192-.2257.056-.3952l2.2463-2.6003-3.3416 2.7698-1.6568.452 3.8473-3.787-3.3976-3.5325 2.134 3.4481c.1311.207.1031.3858-.0845.5365l-3.9591 3.5894.1124-.1413-3.3696 2.9673 4.9699 1.2148c.1684.0381.2622.1225.2808.2545l1.5165 3.8719c.0937.207.0466.3765-.1404.5084-.1871.1319-.3653.1131-.5337-.0563l-2.8919-2.8542-6.3744-1.3567c-.1684-.0375-.2622-.1225-.2808-.2544-.0559-.1507-.0466-.2826.0285-.3958l.5051-.7628-.0279.0282 2.1904-3.2781h-.0285l1.1511-1.7519-1.2071-.8197.4772.8197-.9828 1.5256-3.4255-1.3562-.1964-.1694-3.1173-3.9851-7.4691-2.1477-.1124-.0563-6.8236-4.4371c-.1865-.1314-.2337-.3108-.1404-.5365.113-.2076.2808-.2826.5056-.2263l12.0184 3.4193 8.6203-1.4411h.1124l11.0636.9609zM34.0993 54.1871l4.0436-1.1023 3.2012-3.5607 3.5944 1.4981-2.05 3.1367-7.1044 2.2045-4.6332 6.0472.4497 1.1304h10.7822c.2808 0 .4212.1413.4212.4239 0 .2826-.1404.4239-.4212.4239H25.1137c-.1119 0-.2056-.0375-.2808-.1126-.0932-.0943-.1404-.1981-.1404-.3113 0-.2826.1404-.4239.4212-.4239h3.8193l-.4777-1.1304c-.0751-.1506-.0652-.2826.028-.3952l5.3637-7.6589c.0559-.0751.1404-.1314.2523-.1694zm-6.8236 10.9651h9.2948c.2808 0 .4212.1413.4212.4239 0 .1132-.0373.2164-.1124.3107-.0938.0751-.1969.1132-.3088.1132h-9.2948c-.2808 0-.4212-.1413-.4212-.4239 0-.2826.1404-.4239.4212-.4239zm12.552 0c.2808 0 .4212.1413.4212.4239 0 .1132-.0373.2164-.1125.3107-.0932.0751-.1963.1132-.3087.1132h-1.2071c-.113 0-.2063-.0381-.2808-.1132-.0938-.0943-.1404-.1975-.1404-.3107 0-.2826.1404-.4239.4212-.4239h1.2071z" fill="#AE7D14"/>
  </g>
  <defs>
    <clipPath id="clip0">
      <path fill="#fff" transform="translate(24 24)" d="M0 0h48v48H0z"/>
    </clipPath>
  </defs>
</svg>
