<svg width="96" height="96" fill="none" xmlns="http://www.w3.org/2000/svg">
  <path d="M44 2.3093a8 8 0 018 0l33.5692 19.3812a8 8 0 014 6.9282v38.7624a7.9998 7.9998 0 01-4 6.9282L52 93.6905a7.9998 7.9998 0 01-8 0L10.4308 74.3093a7.9998 7.9998 0 01-4-6.9282V28.6187a8 8 0 014-6.9282L44 2.3093z" fill="#fff"/>
  <path fill-rule="evenodd" clip-rule="evenodd" d="M84.1907 22.9024L51.5701 4.069a7.233 7.233 0 00-7.2331 0L11.7165 22.9024a7.2332 7.2332 0 00-3.6166 6.2641v37.667a7.233 7.233 0 003.6166 6.264L44.337 91.931a7.233 7.233 0 007.2331 0l32.6206-18.8335a7.233 7.233 0 003.6165-6.264v-37.667a7.2333 7.2333 0 00-3.6165-6.2641zM53.1201 1.3844a10.333 10.333 0 00-10.333 0L10.1665 20.2178A10.3332 10.3332 0 005 29.1665v37.667a10.333 10.333 0 005.1665 8.9486l32.6206 18.8335a10.333 10.333 0 0010.333 0l32.6205-18.8335a10.3328 10.3328 0 005.1665-8.9486v-37.667a10.3331 10.3331 0 00-5.1665-8.9487L53.1201 1.3844z" fill="#734F96"/>
  <path d="M31.0415 72C28.204 72.0009 24 67.0469 24 64.913V30.9971c0-2.8719 4.9682-6.9973 7.1123-6.9971l33.9775.0024C68.0217 24.0026 72 28.7853 72 31.0646v33.9492c0 3.3445-4.4803 6.9739-7.0065 6.9748L31.0415 72z" fill="#734F96"/>
  <path d="M30.5898 62.6609l1.8444-.1129c3.7453-.2447 3.7077-.2259 3.8959-3.162.1694-2.7856-.044-24.595-.1694-25.0323-.2066-.7203-.9816-1.1346-3.2936-1.134l-2.2773-.0141v-4.0843h35.006v15.6405l-4.1217-.0611c-.0376-.0377-.1505-1.1434-.2258-2.1598-.4329-4.7806-1.5056-7.5312-3.5759-8.604-1.0916-.5646-2.796-.731-8.2556-.7327l-5.0881.0014v11.7256h.9034c1.5245-.0188 3.463-.3764 4.1029-.7716.8281-.5082 1.5244-1.9763 1.7691-3.7455.1844-1.2912.3268-2.2573.3268-2.2573l4.0019-.0012v18.6331h-4.1405v-.7341c0-1.2045-.5646-4.0089-.9598-4.8559-.6211-1.2986-1.6751-1.7504-4.6675-2.0327l-1.3739-.1317.0753 6.0416c.0564 5.7405.0941 6.0605.4517 6.5498.4517.6023.941.7152 3.9334.9411l2.0087.0955-.0137 4.1016H30.5898v-4.103z" fill="#fff"/>
</svg>
