<svg width="96" height="96" fill="none" xmlns="http://www.w3.org/2000/svg">
  <path d="M43.9999 2.3093a8 8 0 0 1 8 0l33.5692 19.3812a8 8 0 0 1 4 6.9282v38.7624a7.9998 7.9998 0 0 1-4 6.9282L51.9999 93.6905a7.9998 7.9998 0 0 1-8 0L10.4307 74.3093a7.9998 7.9998 0 0 1-4-6.9282V28.6187a8 8 0 0 1 4-6.9282L43.9999 2.3093Z" fill="#fff"/>
  <path fill-rule="evenodd" clip-rule="evenodd" d="M84.1907 22.9024 51.5701 4.069a7.233 7.233 0 0 0-7.2331 0L11.7165 22.9024a7.2332 7.2332 0 0 0-3.6166 6.2641v37.667a7.233 7.233 0 0 0 3.6166 6.264L44.337 91.931a7.233 7.233 0 0 0 7.2331 0l32.6206-18.8335a7.233 7.233 0 0 0 3.6165-6.264v-37.667a7.2333 7.2333 0 0 0-3.6165-6.2641ZM53.1201 1.3844a10.333 10.333 0 0 0-10.333 0L10.1665 20.2178A10.3332 10.3332 0 0 0 5 29.1665v37.667a10.333 10.333 0 0 0 5.1665 8.9486l32.6206 18.8335a10.333 10.333 0 0 0 10.333 0l32.6205-18.8335a10.3328 10.3328 0 0 0 5.1665-8.9486v-37.667a10.3331 10.3331 0 0 0-5.1665-8.9487L53.1201 1.3844Z" fill="#00F"/>
  <g clip-path="url(#a)">
    <path d="M67.8257 58.4895c1.2205 3.2522.3342 6.2126-3.0364 7.9739-3.2848 1.7165-6.8263 2.7588-10.4365 3.5719-2.2385.5042-4.5038.8227-6.7833 1.0354-2.1127.1972-4.1081-.1863-5.8031-1.5443-1.402-1.1232-2.2603-2.6274-2.5089-4.3919-.1528-1.0849.261-2.0584 1.2939-2.6377 1.3569-.7612 2.3176-1.8393 2.7676-3.3515.1221-.4099.1523-.792.0574-1.222-.2264-1.0265-.2612-2.0658.0871-3.0808.5377-1.5666 1.6727-2.6012 3.1292-3.2534.9134-.4091 4.3085-1.3184 5.0365-1.4615.6387-.1256 1.2915-.1794 1.9382-.2649 1.6211-.0195 3.0635.4353 4.3257 1.4493.7836.6296 1.3546 1.4286 1.7411 2.342.2332.5508.6023.9378 1.0677 1.2775 1.1656.851 2.4521 1.325 3.9065 1.3083 1.6085-.0184 2.6886.8409 3.2173 2.2497ZM46.442 33.604c.4471.6236.6512 1.2601.6127 1.9947-.0311.5924-.0698 1.1868-.1534 1.7734-.2881 2.0209.8366 3.9018 2.7581 4.3014 2.4586.5111 4.6788.0182 6.3684-2.0027.8974-1.0734 1.3334-2.2912 1.1176-3.7213-.1453-.9633-.4868-1.8404-.9979-2.6508-1.1073-1.7555-2.584-3.1008-4.4847-3.9122-1.1196-2.114-2.7275-3.8549-4.2075-4.5056-.2568.6781-.1632 1.2164.3035 1.6747.6703.6584.9281 1.4758 1.0027 2.3759-.6429.1751-1.2636.2848-1.8371.5132-1.0438.4155-1.5147 1.2862-1.2444 2.3694.1559.6249.3919 1.2737.762 1.7899Zm-13.0234 6.0307c.3001 2.5161 1.7898 4.3929 4.3374 5.0852 2.4038.6531 4.4705.0837 6.2655-1.5741.6462-.5969.9718-1.3815.8015-2.2585-.117-.6024-.3199-1.2179-.6255-1.7459-.3382-.5844-.825-1.0862-1.2688-1.6054-.734-.8587-1.3335-1.8549-1.1982-3.0596-.2544-2.2258-1.6403-3.2334-3.8194-2.6315-.3082.0852-.622.1497-.9452.2267-.5487-.7951-.8573-1.5999-.7446-2.5441.0796-.6658-.2741-1.0928-.8264-1.4039-.7619 1.1535-1.0052 3.726-.5412 5.6189-1.2235 1.8189-1.6898 3.7562-1.4351 5.8922Zm36.8343-.0371c-.1942-.2564-.4131-.4647-.4645-.831-.2333-1.6626-1.0289-3.0887-1.9756-4.4393-.1084-.1547-.2859-.261-.511-.4602-.3481.6084-.5336 1.1089-.2294 1.7307.3179.6497.5023 1.3368.1883 2.1162-1.8785-.2079-2.9919.3867-3.5855 2.1235-.6299 1.8429-1.9532 4.2258-2.7414 5.9898-.7395 1.6548-.1882 3.0188 1.351 3.9938 2.0367 1.2902 4.1674 1.437 6.3763.4514 1.5657-.6987 2.6465-1.8575 3.0598-3.5081.6509-2.5995.1641-5.013-1.468-7.1668ZM37.5686 52.6883c-.5359-.5017-1.172-.9128-1.8082-1.2878-1.5624-.9212-4.1966-2.6093-5.7392-3.5927-1.1912-.7594-2.5013-.5186-3.8054 1.0128-.4412-.3707-.7093-.8386-.7674-1.3776-.082-.7613-.581-1.1115-1.2878-1.4919-.0666.3163-.1728.5615-.1594.8001.0853 1.5195.2638 3.0198.9904 4.4001.1334.2535.216.5512.2492.837.1709 1.4733.6239 2.8477 1.4436 4.0834 1.6205 2.4431 3.7833 3.816 6.8371 3.4142 2.1393-.2814 3.7127-1.3466 4.653-3.3008.6375-1.3249.4632-2.4961-.6059-3.4968Z" fill="#00F"/>
  </g>
  <defs>
    <clipPath id="a">
      <path fill="#fff" transform="translate(24 24)" d="M0 0h48v48H0z"/>
    </clipPath>
  </defs>
</svg>
