<svg width="3126" height="3130" viewBox="0 0 3126 3130" fill="none" xmlns="http://www.w3.org/2000/svg">
<path d="M1558.94 34.9603C1561.44 33.4809 1564.56 33.4809 1567.06 34.9603L2856.26 795.46C2858.7 796.898 2860.2 799.519 2860.2 802.35V2323.65C2860.2 2326.48 2858.7 2329.1 2856.26 2330.54L1567.06 3091.04C1564.56 3092.52 1561.44 3092.52 1558.94 3091.04L269.738 2330.54C267.299 2329.1 265.802 2326.48 265.802 2323.65V802.35C265.802 799.519 267.299 796.898 269.738 795.46L1558.94 34.9603Z" fill="white"/>
<path fill-rule="evenodd" clip-rule="evenodd" d="M2744.25 746.567L1680.89 132.639C1607.94 90.5202 1518.06 90.5202 1445.11 132.639L381.754 746.567C308.802 788.686 263.862 866.524 263.862 950.761V2178.62C263.862 2262.85 308.802 2340.69 381.754 2382.81L1445.11 2996.74C1518.06 3038.86 1607.94 3038.86 1680.89 2996.74L2744.25 2382.81C2817.2 2340.69 2862.14 2262.85 2862.14 2178.62V950.761C2862.14 866.524 2817.2 788.686 2744.25 746.567ZM1731.42 45.1271C1627.2 -15.0423 1498.8 -15.0424 1394.58 45.127L331.229 659.055C227.012 719.225 162.812 830.422 162.812 950.761V2178.62C162.812 2298.96 227.012 2410.15 331.229 2470.32L1394.58 3084.25C1498.8 3144.42 1627.2 3144.42 1731.42 3084.25L2794.77 2470.32C2898.99 2410.15 2963.19 2298.96 2963.19 2178.62V950.761C2963.19 830.422 2898.99 719.225 2794.77 659.055L1731.42 45.1271Z" fill="#5F021F"/>
<g clip-path="url(#clip0_10015_92255)">
<path d="M912.008 1740.59C1154.93 1402.42 1452.15 1315.15 1624.88 1370.02C2044.56 1509.12 2259.22 1614.07 2264.2 1475.97C2360.23 1479.61 2457.28 1886.52 2662.56 1946.94C2791.05 1994.73 2680.89 2023.64 2524.85 2160.2C2175.49 2452.04 453.181 2420.57 912.008 1740.59ZM406 1690.26C406.555 1588.49 620.553 1581.8 783.97 1565.79C883.21 1399.82 516.439 1194.94 516.439 1194.94C536.617 1105.98 832.078 1164.32 1074.78 1290.29C1250.57 1191.02 1000.21 846.243 1000.21 846.243C1069.63 753.203 1403.38 1060.67 1462.1 1168.82C1605.13 1174.66 1607.07 917.192 1541.43 803.958C1612.11 717.144 1855.38 1089.37 1908.72 1241.69C2012.78 1244.52 2012.35 1178.61 1973.33 994.836C2030.43 926.131 2183.06 1296.37 2186.42 1386.63C2187.46 1501.38 1972.49 1371.43 1891.41 1354.27C1754.59 1295.58 1606.58 1241.48 1456.31 1273.09C1230.54 1302.58 1061.35 1405.8 889.14 1608.96C640.47 1967.31 958.521 1779.16 406 1690.26Z" fill="#5F021F"/>
</g>
<defs>
<clipPath id="clip0_10015_92255">
<rect width="2313" height="1544" fill="white" transform="translate(406 791)"/>
</clipPath>
</defs>
</svg>