<svg width="80" height="81" viewBox="0 0 80 81" fill="none" xmlns="http://www.w3.org/2000/svg">
<path d="M35.9353 3.23102C38.4432 1.75162 41.5568 1.75162 44.0647 3.23102L69.2623 18.0951C71.701 19.5337 73.1976 22.1542 73.1976 24.9856V55.0142C73.1976 57.8456 71.701 60.4661 69.2623 61.9047L44.0647 76.7688C41.5568 78.2482 38.4432 78.2482 35.9353 76.7688L10.7377 61.9047C8.29898 60.4661 6.80235 57.8456 6.80235 55.0142V24.9856C6.80235 22.1542 8.29897 19.5337 10.7377 18.0951L35.9353 3.23102Z" fill="white"/>
<path fill-rule="evenodd" clip-rule="evenodd" d="M70.2302 19.106L43.0171 3.39447C41.1501 2.31658 38.8499 2.31658 36.9829 3.39447L9.76976 19.106C7.9028 20.1839 6.75271 22.1759 6.75271 24.3317V55.7548C6.75271 57.9105 7.9028 59.9026 9.76976 60.9805L36.9829 76.692C38.8499 77.7699 41.1501 77.7699 43.017 76.692L70.2302 60.9805C72.0972 59.9026 73.2473 57.9105 73.2473 55.7548V24.3317C73.2473 22.1759 72.0972 20.1839 70.2302 19.106ZM44.3101 1.15488C41.643 -0.384961 38.357 -0.384961 35.6899 1.15488L8.47674 16.8664C5.80965 18.4063 4.16666 21.252 4.16666 24.3317V55.7548C4.16666 58.8345 5.80965 61.6802 8.47674 63.22L35.6899 78.9316C38.357 80.4714 41.643 80.4714 44.3101 78.9316L71.5232 63.22C74.1903 61.6802 75.8333 58.8345 75.8333 55.7548V24.3317C75.8333 21.252 74.1903 18.4063 71.5232 16.8664L44.3101 1.15488Z" fill="#478CBF"/>
<path d="M62.3733 49.1557C62.3733 49.1557 62.3006 48.7098 62.2581 48.7139L54.1687 49.4944C53.525 49.5565 53.0251 50.0699 52.9799 50.7149L52.7577 53.9002L46.4993 54.3467L46.0736 51.4598C45.9788 50.8177 45.418 50.3337 44.769 50.3337H36.231C35.5822 50.3337 35.0215 50.8177 34.9267 51.4598L34.5007 54.3467L28.2424 53.9002L28.0201 50.7149C27.975 50.0696 27.475 49.5563 26.8314 49.4942L18.7378 48.7139C18.696 48.7098 18.6654 49.1561 18.6236 49.1561L18.6126 50.9067L25.4671 52.0121L25.6916 55.2258C25.7369 55.8764 26.2619 56.4025 26.913 56.4492L35.5321 57.064C35.5648 57.0663 35.5969 57.0676 35.6291 57.0676C36.2768 57.0676 36.8367 56.5834 36.9315 55.9412L37.3695 52.9708H43.6308L44.0688 55.9412C44.1633 56.5831 44.7238 57.0674 45.3724 57.0674C45.4042 57.0674 45.4359 57.0663 45.467 57.064L54.0873 56.4492C54.7381 56.4025 55.2633 55.8764 55.3087 55.2258L55.5329 52.0121L62.3845 50.9018L62.3733 49.1557Z" fill="white"/>
<path d="M18.6235 35.9554V46.5785V47.9278V49.1557C18.6476 49.1559 18.6718 49.1568 18.6957 49.159L26.7883 49.9393C27.2122 49.9802 27.5445 50.3214 27.574 50.7462L27.8235 54.3185L34.8827 54.8223L35.369 51.5252C35.4321 51.0977 35.7987 50.7809 36.2311 50.7809H44.7691C45.2013 50.7809 45.5679 51.0977 45.631 51.5252L46.1173 54.8223L53.1767 54.3185L53.426 50.7462C53.4558 50.3214 53.7878 49.9805 54.2117 49.9393L62.3012 49.159C62.3251 49.1568 62.349 49.1559 62.3732 49.1557V48.1024L62.3765 48.1013V35.9554C63.5161 34.5209 64.5951 32.9384 65.4219 31.6071C64.1584 29.4563 62.6104 27.5342 60.9557 25.7534C59.421 26.5258 57.9305 27.4009 56.5226 28.3321C55.8181 27.6319 55.0246 27.0591 54.2452 26.4603C53.4795 25.8452 52.6165 25.3943 51.7979 24.8689C52.0416 23.0541 52.1622 21.2675 52.2107 19.4029C50.0988 18.34 47.8467 17.6353 45.5686 17.1291C44.6591 18.6577 43.8274 20.313 43.103 21.9313C42.244 21.7878 41.381 21.7346 40.5169 21.7243V21.7229C40.5108 21.7229 40.5053 21.7243 40.5001 21.7243C40.4947 21.7243 40.4892 21.7229 40.4838 21.7229V21.7243C39.6181 21.7346 38.7558 21.7878 37.8966 21.9313C37.1726 20.313 36.3413 18.6577 35.4305 17.1291C33.1536 17.6353 30.9012 18.34 28.7896 19.4029C28.8379 21.2675 28.9584 23.0541 29.2027 24.8689C28.3826 25.3943 27.5208 25.8452 26.7548 26.4603C25.9765 27.0591 25.1817 27.6319 24.477 28.3321C23.0691 27.4009 21.579 26.5258 20.0439 25.7534C18.3892 27.5342 16.842 29.4563 15.5781 31.6071C16.5714 33.1662 17.6368 34.7333 18.6235 35.9554Z" fill="#478CBF"/>
<path d="M55.1132 51.6033L54.8626 55.1946C54.8324 55.6275 54.4881 55.972 54.0552 56.0031L45.4352 56.6181C45.4142 56.6197 45.3932 56.6204 45.3724 56.6204C44.944 56.6204 44.5744 56.306 44.5111 55.8759L44.0168 52.5235H36.9833L36.4889 55.8759C36.4225 56.327 36.0192 56.6515 35.5649 56.6181L26.9449 56.0031C26.512 55.972 26.1677 55.6275 26.1375 55.1946L25.8869 51.6033L18.6101 50.9017C18.6135 51.6838 18.6235 52.5405 18.6235 52.7111C18.6235 60.3964 28.3726 64.0903 40.4852 64.1328H40.4999H40.5149C52.6275 64.0903 62.3732 60.3964 62.3732 52.7111C62.3732 52.5374 62.3837 51.6842 62.3873 50.9017L55.1132 51.6033Z" fill="#478CBF"/>
<path d="M33.9051 41.3138C33.9051 44.0084 31.7219 46.1912 29.0282 46.1912C26.3359 46.1912 24.152 44.0084 24.152 41.3138C24.152 38.621 26.3359 36.4394 29.0282 36.4394C31.7219 36.4394 33.9051 38.621 33.9051 41.3138Z" fill="white"/>
<path d="M32.7316 41.603C32.7316 43.3903 31.2831 44.8389 29.4944 44.8389C27.7067 44.8389 26.2573 43.3903 26.2573 41.603C26.2573 39.8157 27.7067 38.3658 29.4944 38.3658C31.2831 38.3658 32.7316 39.8157 32.7316 41.603Z" fill="#414042"/>
<path d="M40.4996 46.6348C39.6326 46.6348 38.9299 45.9958 38.9299 45.2081V40.7185C38.9299 39.9315 39.6326 39.2918 40.4996 39.2918C41.3667 39.2918 42.0709 39.9315 42.0709 40.7185V45.2081C42.0709 45.9958 41.3667 46.6348 40.4996 46.6348Z" fill="white"/>
<path d="M47.095 41.3138C47.095 44.0084 49.2782 46.1912 51.9723 46.1912C54.6644 46.1912 56.8481 44.0084 56.8481 41.3138C56.8481 38.621 54.6644 36.4394 51.9723 36.4394C49.2782 36.4394 47.095 38.621 47.095 41.3138Z" fill="white"/>
<path d="M48.2688 41.603C48.2688 43.3903 49.7169 44.8389 51.5042 44.8389C53.2932 44.8389 54.7413 43.3903 54.7413 41.603C54.7413 39.8157 53.2932 38.3658 51.5042 38.3658C49.7169 38.3658 48.2688 39.8157 48.2688 41.603Z" fill="#414042"/>
</svg>