<svg width="3126" height="3130" viewBox="0 0 3126 3130" fill="none" xmlns="http://www.w3.org/2000/svg">
<path d="M1558.94 34.9603C1561.44 33.4809 1564.56 33.4809 1567.06 34.9603L2856.26 795.46C2858.7 796.898 2860.2 799.519 2860.2 802.35V2323.65C2860.2 2326.48 2858.7 2329.1 2856.26 2330.54L1567.06 3091.04C1564.56 3092.52 1561.44 3092.52 1558.94 3091.04L269.738 2330.54C267.299 2329.1 265.802 2326.48 265.802 2323.65V802.35C265.802 799.519 267.299 796.898 269.738 795.46L1558.94 34.9603Z" fill="white"/>
<path fill-rule="evenodd" clip-rule="evenodd" d="M2744.25 746.567L1680.89 132.639C1607.94 90.5202 1518.06 90.5202 1445.11 132.639L381.754 746.567C308.802 788.686 263.862 866.524 263.862 950.761V2178.62C263.862 2262.85 308.802 2340.69 381.754 2382.81L1445.11 2996.74C1518.06 3038.86 1607.94 3038.86 1680.89 2996.74L2744.25 2382.81C2817.2 2340.69 2862.14 2262.85 2862.14 2178.62V950.761C2862.14 866.524 2817.2 788.686 2744.25 746.567ZM1731.42 45.1271C1627.2 -15.0423 1498.8 -15.0424 1394.58 45.127L331.229 659.055C227.012 719.225 162.812 830.422 162.812 950.761V2178.62C162.812 2298.96 227.012 2410.15 331.229 2470.32L1394.58 3084.25C1498.8 3144.42 1627.2 3144.42 1731.42 3084.25L2794.77 2470.32C2898.99 2410.15 2963.19 2298.96 2963.19 2178.62V950.761C2963.19 830.422 2898.99 719.225 2794.77 659.055L1731.42 45.1271Z" fill="#FFAFF3"/>
<g clip-path="url(#clip0_9853_175260)">
<path d="M1320.19 649.641C1348.28 570.047 1452.69 551.637 1506.32 616.822L1787.33 958.484C1822.1 1000.76 1873.56 1025.81 1928.3 1027.14L2370.94 1037.91C2455.45 1039.97 2505.08 1133.42 2459.61 1204.45L2221.03 1577.12C2206.44 1599.9 2196.93 1625.56 2193.16 1652.34C2189.39 1679.13 2191.43 1706.42 2199.16 1732.34L2325.5 2156.17C2349.58 2236.92 2276.04 2313.18 2194.19 2291.91L1765.71 2180.58C1739.52 2173.77 1712.17 2172.68 1685.52 2177.37C1658.87 2182.07 1633.55 2192.45 1611.27 2207.81L1246.71 2458.98C1177.07 2506.95 1081.88 2460.45 1076.88 2376.33L1050.66 1934.85C1047.41 1880.21 1020.53 1829.7 977.022 1796.47L625.359 1527.88C558.333 1476.68 573.015 1371.9 651.723 1341.06L1063.99 1179.55C1114.97 1159.57 1154.76 1118.43 1172.97 1066.81L1320.19 649.641Z" fill="#FFAFF3" stroke="#151515" stroke-width="80"/>
<path d="M1268.72 1664.58C1311.45 1657.04 1339.99 1616.29 1332.45 1573.56C1324.92 1530.82 1284.16 1502.29 1241.43 1509.82C1198.7 1517.36 1170.16 1558.11 1177.7 1600.85C1185.23 1643.58 1225.98 1672.11 1268.72 1664.58Z" fill="#151515"/>
<path d="M1901.81 1552.95C1944.54 1545.41 1973.08 1504.66 1965.54 1461.93C1958.01 1419.19 1917.26 1390.66 1874.52 1398.19C1831.79 1405.73 1803.25 1446.48 1810.79 1489.21C1818.32 1531.95 1859.08 1560.48 1901.81 1552.95Z" fill="#151515"/>
<path d="M1658.8 1662.72C1658.6 1671.16 1656.74 1679.48 1653.32 1687.2C1649.9 1694.92 1645 1701.89 1638.89 1707.71C1632.78 1713.54 1625.57 1718.1 1617.7 1721.14C1609.82 1724.18 1601.43 1725.64 1592.99 1725.44C1584.55 1725.24 1576.23 1723.37 1568.51 1719.95C1560.79 1716.54 1553.82 1711.64 1548 1705.52C1542.17 1699.41 1537.61 1692.21 1534.57 1684.33" stroke="#151515" stroke-width="80" stroke-linecap="round"/>
</g>
<defs>
<clipPath id="clip0_9853_175260">
<rect width="2000" height="1915" fill="white" transform="translate(411.924 713.195) rotate(-10)"/>
</clipPath>
</defs>
</svg>

