<svg width="96" height="96" fill="none" xmlns="http://www.w3.org/2000/svg">
  <path d="M44.0001 2.3093a8 8 0 0 1 8 0l33.5692 19.3812a8 8 0 0 1 4 6.9282v38.7624a8 8 0 0 1-4 6.9282L52.0001 93.6905a7.9994 7.9994 0 0 1-8 0L10.4309 74.3093a7.9998 7.9998 0 0 1-4-6.9282V28.6187a8.0004 8.0004 0 0 1 4-6.9282L44.0001 2.3093Z" fill="#fff"/>
  <path fill-rule="evenodd" clip-rule="evenodd" d="M84.1907 22.9024 51.5701 4.069a7.2332 7.2332 0 0 0-7.2331 0L11.7165 22.9024a7.2326 7.2326 0 0 0-3.6166 6.2641v37.667a7.233 7.233 0 0 0 3.6166 6.264L44.337 91.931a7.2335 7.2335 0 0 0 7.2331 0l32.6206-18.8335a7.2335 7.2335 0 0 0 3.6165-6.264v-37.667a7.2336 7.2336 0 0 0-3.6165-6.2641ZM53.1201 1.3844a10.333 10.333 0 0 0-10.333 0L10.1665 20.2178A10.333 10.333 0 0 0 5 29.1665v37.667a10.3328 10.3328 0 0 0 5.1665 8.9486l32.6206 18.8335a10.333 10.333 0 0 0 10.333 0l32.6205-18.8335a10.3333 10.3333 0 0 0 5.1665-8.9486v-37.667a10.3325 10.3325 0 0 0-5.1665-8.9487L53.1201 1.3844Z" fill="#D96FD2"/>
  <path d="M54.1915 49.6429c-.3911.1495-.6039.2674-.834.3106-.6471.1236-1.2999.207-1.947.3307-.2243.0431-.4314.1984-.6557.2186-.2301.0201-.4688-.0604-.7995-.1122-.1467-.1179-.371-.2991-.627-.5033.0921-.3854.279-.7679.118-1.1417.2214-.4285.4227-.8225.6442-1.2511.3681-.0604.7333-.1092 1.0899-.1783.279-.0546.5493-.0978.8053-.2703.3135-.2128.6816-.2531.9864-.1007.2704-.0891.5321-.2732.7104-.2128.3739.1266.7247.0834 1.0871.0403.4429-.0518.88-.2042 1.3229.023.0949.0489.2416-.0058.3653-.0201.4084-.0489.8311-.1927 1.2194-.1266.371.0633.7218.0489 1.0871.0489.1955 0 .3911.0661.6039.1064.233-.1035.4861-.2128.7564-.3336.2272.1294.44.2473.6528.3681.2272-.2962.6097-.3997.8801-.2962.3825.1467.7218.0489 1.0813.0518.1582 0 .3164.0517.5263.0862.046-.0316.1438-.0949.2847-.1898.3509.1093.7478.1352 1.1533.0489.3623-.0776.7305-.115 1.1015-.1495.4026-.0374.8052-.1697 1.205.0431.1093.0575.3163-.0604.6499-.2761.4803.2876.9664-.0287 1.5128.0345.2732.4055.719-.0345 1.1158.1295.3624.1524.7823.1668 1.1792.2415.1466.1956.2933.3854.4688.6155-.0346.1208-.0748.2761-.1237.4458.0518.0661.1179.1553.1869.2473-.0316.0287-.0632.0805-.092.0776-.2358-.023-.4688-.0661-.7046-.0862-.0777-.0087-.1726.0028-.2416.0402-.3192.1668-.6327.3423-.9663.5263-.3537-.0891-.7334-.1869-1.1389-.2876-.2243.2157-.4256.4113-.6356.6097-.1955.0288-.3997.0604-.6154.0921-.2962-.0978-.604-.1985-.9491-.3135-.0719.0431-.1696.1121-.2761.1553-.184.0748-.3709.1639-.5636.1955-.7708.1266-1.5444.2359-2.3209.3509-.1582-.0546-.3106-.1093-.4487-.1582-1.0612.0921-2.0965.3969-3.2584.3135 0 0-.0978.0748-.2214.1726-.141-.0432-.2934-.0892-.5321-.164-.2387.0345-.5608.0863-.8858.1323-.3681.0518-.7391.0748-1.0986.1553-.2962.0662-.6126-.2214-.8858.0662-.3566-.2186-.7218-.0288-1.0813-.0173-.3192.0058-.6529.1668-.8916-.0891ZM30.3242 68.0747c-.1582-.0747-.2646-.1265-.3681-.1754-.1381.1668-.2675.325-.3969.4832a45.9157 45.9157 0 0 1-.371-.1697c-.2761.1869-.5723.3882-.8685.5896-.1122-.1553-.2272-.3164-.3653-.5062.0777-.2272.1697-.486.2243-.65.0892-.115.1093-.1553.141-.1783.6528-.4745 1.3171-.9232 1.8463-1.5616.3279-.3969.8053-.6672 1.2223-.9865.3537-.2703.7391-.5004 1.0008-.88.0892-.1294.2214-.2329.348-.3278.6758-.5148 1.3143-1.067 1.9585-1.6192.6126-.5234 1.2366-1.0382 1.8521-1.5616.7966-.6816 1.6422-1.3115 2.4273-2.0074 1.1187-.9922 2.3324-1.8723 3.4051-2.922.4314-.4227.8455-.8685 1.3028-1.2683.4573-.3997.8513-.8742 1.2453-1.343.2962-.3509.6183-.6356 1.0842-.7449.4458.3652.8196.7708 1.136 1.2683-.0374.3537-.0777.7477-.1381 1.3229-.2502.3912-.5953.9433-1.1561 1.3172-.138.348-.6499.3825-.6873.8139-.2876.2214-.5838.4314-.8571.6672-.2761.2387-.5263.5004-.788.7535-.0891.0863-.1581.1956-.2617.2531-.8886.4975-1.576 1.2596-2.4014 1.8377-.4285.302-.8311.6298-1.182 1.0267-.3307.3768-.7736.5752-1.2654.6183-.1122.2272-.1841.4659-.3307.6414-.1525.1812-.3825.2962-.5838.44-.0662-.0288-.141-.0633-.2215-.0978-.161.1064-.325.2128-.5205.3451.0028.5695-.4832.7852-.8916 1.0181-.2703.1524-.6356.0949-.8858.3681-.2157.2358-.486.4228-.7391.6414-.4141.0805-.8369.1754-1.1043.5723.0517.0661.1035.1294.161.2042-.2531.2502-.6039.1495-.8858.2703-.8254.3566-1.343 1.136-2.085 1.5472Zm-1.8953-30.1398c-.069-.1639-.115-.279-.1668-.4026-.0977-.0604-.1984-.1726-.3077-.1841-.7995-.092-1.2194-.5809-1.4293-1.3086-.0087-.0345-.0518-.0604-.0806-.0891-.417-.1927-.417-.1927-.9174-.1582-.3739-.2761-.5033-.719-.7506-1.0727-.2445-.3537-.4688-.7334-.7765-1.0353.0633-.0892.0978-.187.1582-.2071.348-.1208.7017-.2243 1.0152-.3192.2042.1236.3652.2358.5407.3192.1438.069.3681.0518.4428.1553.2071.2847.5522.3048.7996.4946.0862.0662.1121.2129.1668.3279.9289.2272 1.6824.7823 2.4388 1.3977.046.1122.1092.2617.1725.4084.6787.0604 1.1993.4659 1.7457.8053.2387.1495.4371.3738.6902.4917 1.0382.4947 1.8694 1.2913 2.8271 1.9039.4141.5234 1.0871.7104 1.53 1.1878.4285.4601 1.0008.6988 1.5185 1.0209.069.0432.1495.0748.2099.1294.857.7507 1.786 1.4035 2.7235 2.0477.3279.2243.5781.5666.8887.8772.0029.2847.0057.6039.0115 1.0267-.1467.5579-.5522 1.0497-1.1475 1.4868-.2301-.0144-.5091-.0345-.8513-.0575-.0575-.1093-.0978-.2905-.2099-.3796-.512-.394-.906-.9232-1.4524-1.2769-.2042-.1323-.4343-.2502-.5896-.4314-.3796-.4372-.8167-.7851-1.2884-.9606-.1179-.2214-.1927-.3652-.2157-.4141-.4314-.3394-.7851-.6126-1.1302-.8916-.6902-.5579-1.5099-.9548-2.0707-1.6737-.6097-.2531-.9922-.8427-1.6163-1.0728-.788-.6959-1.7658-1.1446-2.5135-1.901-.1151-.1121-.2704-.1811-.3653-.2444Z" fill="#D96FD2"/>
  <path d="M48.5575 69.0381c-.1064.2502-.1984.4717-.2876.6788-.3192.1495-.5694.0632-.8628-.2733-.0546-.2473-.1294-.601-.2128-.9835-.2473-.1266-.4889-.2531-.7477-.3854.046-.1869.092-.3767.138-.5637-.0604-.279-.348-.3336-.5378-.5752a319.72 319.72 0 0 1-.2128-1.4437c.0403-.1294.1007-.3135.1582-.4946-.2761-.1093-.4947-.1927-.7391-.2905-.0949-.4055-.1899-.7995-.302-1.2769-.1553-.233-.3566-.5321-.5867-.8743-.0489-.394-.233-.7938-.394-1.2108-.5896-1.5386-1.0929-3.1117-1.9125-4.5526-.0978-.8944-.8513-1.4523-1.1763-2.2375-.1265-.3106-.5119-.5148-.7563-.7477-.1151-.3221-.2215-.6241-.3509-.9865.325-.8455 1.1619-1.1906 1.9671-1.5702.1927.0604.3854.1237.6299.2013.325.4515.6816.9433 1.0324 1.438.3538.4975.6069 1.0698.7248 1.6393.1035.4946.463.8656.5004 1.3603.5234.6356.555 1.507 1.0324 2.1684.0662.0921.0834.2359.0863.3566.0144.8341.6068 1.5157.6241 2.3497.4659.3767.2272 1.0267.5666 1.4494.3163.394.1064.9951.5435 1.3345.092.5263.1783 1.0554.2761 1.5789.0661.3566.0403.7391.3307 1.0324.0719.0748.0719.2301.0892.348.1294.8168.2473 1.6307.3796 2.5308ZM50.3319 26.25c.2876.1093.4746.1812.6615.2531.1841.2617.115.5292.0173.7995.0517.0633.1064.1265.1581.1898-.0862.2675-.1725.5378-.2617.8139.0403.0489.1496.1265.1381.1725-.1697.6558.0144 1.3632-.2905 1.9902-.1237.256.0058.4803.0058.7161 0 .2416-.1985.4458-.1208.7132.0431.1496.0287.325-.0029.4803-.0575.2675-.1524.5263-.2301.7909.2934.256-.0546.509-.0201.7851.0287.2387-.1956.5119-.3221.8024.2128.3796-.0719.7564-.1036 1.1561-.046.6011-.1409 1.2022-.3796 1.763-.2444.5665-.1438 1.1877-.3019 1.7716-.233.8484-.3624 1.7226-.5637 2.5797-.2847 1.2107-.8772 2.2691-1.7544 3.1923-.4687.069-.9519.1409-1.5299.2272-.1927-.1381-.4228-.302-.6241-.4458.138-.65.2243-1.1791.4946-1.7026.3653-.7017.6931-1.4351.7622-2.272.046-.5493.3163-1.0842.5119-1.6162.1553-.4199.2818-.8312.2646-1.2971-.0115-.2703.1006-.5522.1869-.8167.1582-.5005.3365-.9951.5263-1.5588.0661-.0546.1898-.1524.3537-.2847-.0546-.1266-.1121-.2675-.1955-.463a.7776.7776 0 0 1 .0259-.1467c.0603-.1898.1581-.3739.1898-.5666.0546-.3336.2732-.5838.3911-.88.0978-.2445.0776-.5378.138-1.0353-.0086-.0892-.5291-.2244-.1668-.7679-.0172.0144.1036-.0863.2272-.1898-.0517-.0633-.1035-.1294-.161-.2013.1064-.2848.1668-.581.3221-.8715.3192-.5981.6471-1.228.4458-1.9757.1207-.1956.2502-.4026.3825-.6212-.0317-.3192-.0662-.6414-.0978-.9548l.2588-.3883c.1754-.0345.4113-.0863.6643-.1409Z" fill="#D96FD2"/>
</svg>
