<svg width="3126" height="3130" viewBox="0 0 3126 3130" fill="none" xmlns="http://www.w3.org/2000/svg">
<path d="M1558.94 34.9603C1561.44 33.4809 1564.56 33.4809 1567.06 34.9603L2856.26 795.46C2858.7 796.898 2860.2 799.519 2860.2 802.35V2323.65C2860.2 2326.48 2858.7 2329.1 2856.26 2330.54L1567.06 3091.04C1564.56 3092.52 1561.44 3092.52 1558.94 3091.04L269.738 2330.54C267.299 2329.1 265.802 2326.48 265.802 2323.65V802.35C265.802 799.519 267.299 796.898 269.738 795.46L1558.94 34.9603Z" fill="white"/>
<path fill-rule="evenodd" clip-rule="evenodd" d="M2744.25 746.567L1680.89 132.639C1607.94 90.5202 1518.06 90.5202 1445.11 132.639L381.754 746.567C308.802 788.686 263.862 866.524 263.862 950.761V2178.62C263.862 2262.85 308.802 2340.69 381.754 2382.81L1445.11 2996.74C1518.06 3038.86 1607.94 3038.86 1680.89 2996.74L2744.25 2382.81C2817.2 2340.69 2862.14 2262.85 2862.14 2178.62V950.761C2862.14 866.524 2817.2 788.686 2744.25 746.567ZM1731.42 45.1271C1627.2 -15.0423 1498.8 -15.0424 1394.58 45.127L331.229 659.055C227.012 719.225 162.812 830.422 162.812 950.761V2178.62C162.812 2298.96 227.012 2410.15 331.229 2470.32L1394.58 3084.25C1498.8 3144.42 1627.2 3144.42 1731.42 3084.25L2794.77 2470.32C2898.99 2410.15 2963.19 2298.96 2963.19 2178.62V950.761C2963.19 830.422 2898.99 719.225 2794.77 659.055L1731.42 45.1271Z" fill="#FFAFF3"/>
<g clip-path="url(#clip0_9853_175260)">
<path d="M1468.5 620.13C1509.99 546.623 1616.01 546.623 1657.5 620.13L1874.92 1005.4C1901.82 1053.07 1948.15 1086.68 2001.82 1097.5L2435.87 1184.97C2518.74 1201.67 2551.39 1302.31 2494.27 1364.37L2194.6 1689.95C2176.28 1709.85 2162.46 1733.47 2154.09 1759.19C2145.73 1784.91 2143 1812.14 2146.11 1839.01L2196.94 2278.34C2206.63 2362.05 2120.96 2424.38 2044.05 2389.22L1641.41 2205.17C1616.8 2193.92 1590.06 2188.09 1563 2188.09C1535.94 2188.09 1509.2 2193.92 1484.59 2205.17L1081.95 2389.22C1005.04 2424.37 919.369 2362.05 929.055 2278.34L979.892 1839.01C986.184 1784.64 968.479 1730.23 931.404 1689.95L631.725 1364.37C574.607 1302.31 607.262 1201.67 690.128 1184.97L1124.18 1097.5C1177.85 1086.68 1224.18 1053.07 1251.08 1005.4L1468.5 620.13Z" fill="#FFAFF3" stroke="#151515" stroke-width="80"/>
<path d="M1241.57 1610.71C1284.96 1610.71 1320.14 1575.53 1320.14 1532.14C1320.14 1488.75 1284.96 1453.57 1241.57 1453.57C1198.18 1453.57 1163 1488.75 1163 1532.14C1163 1575.53 1198.18 1610.71 1241.57 1610.71Z" fill="#151515"/>
<path d="M1884.43 1610.71C1927.82 1610.71 1963 1575.53 1963 1532.14C1963 1488.75 1927.82 1453.57 1884.43 1453.57C1841.04 1453.57 1805.86 1488.75 1805.86 1532.14C1805.86 1575.53 1841.04 1610.71 1884.43 1610.71Z" fill="#151515"/>
<path d="M1626.05 1676.62C1624.39 1684.9 1621.11 1692.77 1616.4 1699.77C1611.69 1706.78 1605.66 1712.8 1598.63 1717.47C1591.6 1722.14 1583.71 1725.39 1575.43 1727.01C1567.15 1728.64 1558.62 1728.62 1550.35 1726.96C1542.07 1725.29 1534.2 1722.01 1527.19 1717.3C1520.18 1712.6 1514.17 1706.56 1509.5 1699.53C1504.82 1692.5 1501.58 1684.62 1499.95 1676.33" stroke="#151515" stroke-width="80" stroke-linecap="round"/>
</g>
<defs>
<clipPath id="clip0_9853_175260">
<rect width="2000" height="1915" fill="white" transform="translate(563 525)"/>
</clipPath>
</defs>
</svg>

