<svg width="96" height="96" fill="none" xmlns="http://www.w3.org/2000/svg">
  <path d="M44 2.3093a8 8 0 018 0l33.5692 19.3812a8 8 0 014 6.9282v38.7624a7.9998 7.9998 0 01-4 6.9282L52 93.6905a7.9998 7.9998 0 01-8 0L10.4308 74.3093a7.9998 7.9998 0 01-4-6.9282V28.6187a8 8 0 014-6.9282L44 2.3093z" fill="#fff"/>
  <path fill-rule="evenodd" clip-rule="evenodd" d="M84.1907 22.9024L51.5701 4.069a7.233 7.233 0 00-7.2331 0L11.7165 22.9024a7.2332 7.2332 0 00-3.6166 6.2641v37.667a7.233 7.233 0 003.6166 6.264L44.337 91.931a7.233 7.233 0 007.2331 0l32.6206-18.8335a7.233 7.233 0 003.6165-6.264v-37.667a7.2333 7.2333 0 00-3.6165-6.2641zM53.1201 1.3844a10.333 10.333 0 00-10.333 0L10.1665 20.2178A10.3332 10.3332 0 005 29.1665v37.667a10.333 10.333 0 005.1665 8.9486l32.6206 18.8335a10.333 10.333 0 0010.333 0l32.6205-18.8335a10.333 10.333 0 005.1666-8.9486v-37.667a10.3332 10.3332 0 00-5.1666-8.9487L53.1201 1.3844z" fill="#000"/>
  <rect x="25.5" y="25.5" width="45" height="45" rx="6.5" fill="#000" stroke="#000" stroke-width="3"/>
  <path d="M39.9511 38.5085c-.1779-.3306-.4354-.5809-.7724-.7509-.3276-.1794-.7161-.2692-1.1655-.2692-.777 0-1.3996.2598-1.8677.7792-.4681.5101-.7021 1.1948-.7021 2.0543 0 .9162.2434 1.634.7302 2.1534.4962.5101 1.1749.7651 2.0362.7651.5898 0 1.0859-.1512 1.4885-.4534.4119-.3022.7115-.7367.8987-1.3034h-3.0472v-1.7851h5.2238v2.2526c-.1778.6045-.4821 1.1665-.9127 1.6859-.4213.5195-.9596.9398-1.6149 1.2609-.6554.3212-1.3949.4817-2.2188.4817-.9736 0-1.8442-.2125-2.6119-.6375-.7583-.4345-1.3527-1.0342-1.7834-1.7992-.4213-.7651-.6319-1.6387-.6319-2.621s.2106-1.8559.6319-2.621c.4307-.7744 1.0251-1.3742 1.7834-1.7992.7583-.4345 1.6243-.6517 2.5979-.6517 1.1796 0 2.1719.2881 2.977.8642.8145.5761 1.3528 1.3742 1.6149 2.3943h-2.654zM52.9224 45.3088h-2.4012l-4.0162-6.1345v6.1345h-2.4013v-9.9455h2.4013l4.0162 6.1628v-6.1628h2.4012v9.9455zM57.0222 35.3633v5.9503c0 .595.1451 1.0531.4353 1.3742.2902.3212.7162.4817 1.2779.4817.5617 0 .9924-.1605 1.2919-.4817.2996-.3211.4494-.7792.4494-1.3742v-5.9503h2.4013v5.9361c0 .8879-.1873 1.6387-.5617 2.2526-.3745.614-.88 1.0768-1.5166 1.3884-.6273.3117-1.3294.4676-2.1064.4676-.777 0-1.4745-.1512-2.0924-.4534-.6085-.3117-1.0906-.7745-1.4463-1.3884-.3558-.6233-.5337-1.3789-.5337-2.2668v-5.9361h2.4013zM41.1649 59.4295h-4.3361L36.1336 61.5h-2.9624l4.2037-11.7214h3.2769L44.8556 61.5H41.86l-.6951-2.0705zm-.7282-2.204l-1.4399-4.2912-1.4233 4.2912h2.8632zM54.9893 53.5521c0 .679-.1544 1.3024-.4634 1.8701-.3089.5566-.7834 1.0074-1.4233 1.3525-.6399.3451-1.4343.5176-2.3832.5176h-1.7543V61.5H46.135V49.7786h4.5844c.9268 0 1.7102.1614 2.3501.4842.6399.3228 1.1199.7681 1.4399 1.3358.3199.5677.4799 1.2189.4799 1.9535zm-4.4851 1.4694c.5407 0 .9434-.128 1.2082-.3841.2648-.256.3972-.6177.3972-1.0853 0-.4675-.1324-.8293-.3972-1.0853-.2648-.256-.6675-.384-1.2082-.384h-1.5391v2.9387h1.5391zM59.2928 59.296H63V61.5h-6.5373V49.7786h2.8301v9.5174z" fill="#fff"/>
</svg>
