<svg width="96" height="96" fill="none" xmlns="http://www.w3.org/2000/svg">
  <path d="M43.9999 2.3093a8 8 0 0 1 8 0l33.5692 19.3812a8 8 0 0 1 4 6.9282v38.7624a7.9998 7.9998 0 0 1-4 6.9282L51.9999 93.6905a7.9998 7.9998 0 0 1-8 0L10.4307 74.3093a7.9998 7.9998 0 0 1-4-6.9282V28.6187a8 8 0 0 1 4-6.9282L43.9999 2.3093Z" fill="#fff"/>
  <path fill-rule="evenodd" clip-rule="evenodd" d="M84.1907 22.9024 51.5701 4.069a7.233 7.233 0 0 0-7.2331 0L11.7165 22.9024a7.2332 7.2332 0 0 0-3.6166 6.2641v37.667a7.233 7.233 0 0 0 3.6166 6.264L44.337 91.931a7.233 7.233 0 0 0 7.2331 0l32.6206-18.8335a7.233 7.233 0 0 0 3.6165-6.264v-37.667a7.2333 7.2333 0 0 0-3.6165-6.2641ZM53.1201 1.3844a10.333 10.333 0 0 0-10.333 0L10.1665 20.2178A10.3332 10.3332 0 0 0 5 29.1665v37.667a10.333 10.333 0 0 0 5.1665 8.9486l32.6206 18.8335a10.333 10.333 0 0 0 10.333 0l32.6205-18.8335a10.3328 10.3328 0 0 0 5.1665-8.9486v-37.667a10.3331 10.3331 0 0 0-5.1665-8.9487L53.1201 1.3844Z" fill="#242121"/>
  <rect x="25.5" y="25.5" width="45" height="45" rx="6.5" fill="#242121" stroke="#242121" stroke-width="3"/>
  <path d="M40.0121 39.2585c-.1779-.3306-.4353-.5809-.7723-.7509-.3277-.1794-.7162-.2692-1.1656-.2692-.777 0-1.3995.2598-1.8676.7792-.4681.5101-.7022 1.1948-.7022 2.0543 0 .9162.2434 1.634.7303 2.1534.4961.5101 1.1748.7651 2.0361.7651.5898 0 1.086-.1512 1.4885-.4534.412-.3022.7115-.7367.8988-1.3034h-3.0473v-1.7851h5.2239v2.2526c-.1779.6045-.4822 1.1665-.9128 1.6859-.4213.5195-.9596.9398-1.6149 1.2609-.6553.3212-1.3949.4817-2.2187.4817-.9736 0-1.8443-.2125-2.6119-.6375-.7583-.4345-1.3528-1.0342-1.7834-1.7992-.4213-.7651-.632-1.6387-.632-2.621s.2107-1.8559.632-2.621c.4306-.7744 1.0251-1.3742 1.7834-1.7992.7583-.4345 1.6242-.6517 2.5978-.6517 1.1796 0 2.1719.2881 2.9771.8642.8144.5761 1.3527 1.3742 1.6148 2.3943h-2.654ZM52.9835 46.0588h-2.4013l-4.0162-6.1345v6.1345h-2.4012v-9.9455h2.4012l4.0162 6.1628v-6.1628h2.4013v9.9455ZM57.0833 36.1133v5.9503c0 .595.1451 1.0531.4353 1.3742.2902.3212.7161.4817 1.2778.4817.5618 0 .9924-.1605 1.292-.4817.2995-.3211.4493-.7792.4493-1.3742v-5.9503h2.4013v5.9361c0 .8879-.1872 1.6387-.5617 2.2526-.3745.614-.88 1.0768-1.5166 1.3884-.6272.3117-1.3294.4676-2.1064.4676-.777 0-1.4744-.1512-2.0923-.4534-.6085-.3117-1.0907-.7745-1.4464-1.3884-.3558-.6233-.5336-1.3789-.5336-2.2668v-5.9361h2.4013ZM27.4971 54.978c0-.832.18-1.572.54-2.22.36-.656.86-1.164 1.5-1.524.648-.368 1.38-.552 2.196-.552 1 0 1.856.264 2.568.792s1.188 1.248 1.428 2.16h-2.256c-.168-.352-.408-.62-.72-.804-.304-.184-.652-.276-1.044-.276-.632 0-1.144.22-1.536.66-.392.44-.588 1.028-.588 1.764s.196 1.324.588 1.764c.392.44.904.66 1.536.66.392 0 .74-.092 1.044-.276.312-.184.552-.452.72-.804h2.256c-.24.912-.716 1.632-1.428 2.16-.712.52-1.568.78-2.568.78-.816 0-1.548-.18-2.196-.54-.64-.368-1.14-.876-1.5-1.524-.36-.648-.54-1.388-.54-2.22ZM40.9697 59.286c-.792 0-1.52-.184-2.184-.552-.656-.368-1.18-.88-1.572-1.536-.384-.664-.576-1.408-.576-2.232 0-.824.192-1.564.576-2.22.392-.656.916-1.168 1.572-1.536.664-.368 1.392-.552 2.184-.552.792 0 1.516.184 2.172.552.664.368 1.184.88 1.56 1.536.384.656.576 1.396.576 2.22 0 .824-.192 1.568-.576 2.232-.384.656-.904 1.168-1.56 1.536-.656.368-1.38.552-2.172.552Zm0-1.872c.672 0 1.208-.224 1.608-.672.408-.448.612-1.04.612-1.776 0-.744-.204-1.336-.612-1.776-.4-.448-.936-.672-1.608-.672-.68 0-1.224.22-1.632.66-.4.44-.6 1.036-.6 1.788 0 .744.2 1.34.6 1.788.408.44.952.66 1.632.66ZM51.5193 54.882c.488.104.88.348 1.176.732.296.376.444.808.444 1.296 0 .704-.248 1.264-.744 1.68-.488.408-1.172.612-2.052.612h-3.924v-8.424h3.792c.856 0 1.524.196 2.004.588.488.392.732.924.732 1.596 0 .496-.132.908-.396 1.236-.256.328-.6.556-1.032.684Zm-3.048-.696h1.344c.336 0 .592-.072.768-.216.184-.152.276-.372.276-.66 0-.288-.092-.508-.276-.66-.176-.152-.432-.228-.768-.228h-1.344v1.764Zm1.512 3.36c.344 0 .608-.076.792-.228.192-.16.288-.388.288-.684 0-.296-.1-.528-.3-.696-.192-.168-.46-.252-.804-.252h-1.488v1.86h1.512ZM58.3134 59.286c-.792 0-1.52-.184-2.184-.552-.656-.368-1.18-.88-1.572-1.536-.384-.664-.576-1.408-.576-2.232 0-.824.192-1.564.576-2.22.392-.656.916-1.168 1.572-1.536.664-.368 1.392-.552 2.184-.552.792 0 1.516.184 2.172.552.664.368 1.184.88 1.56 1.536.384.656.576 1.396.576 2.22 0 .824-.192 1.568-.576 2.232-.384.656-.904 1.168-1.56 1.536-.656.368-1.38.552-2.172.552Zm0-1.872c.672 0 1.208-.224 1.608-.672.408-.448.612-1.04.612-1.776 0-.744-.204-1.336-.612-1.776-.4-.448-.936-.672-1.608-.672-.68 0-1.224.22-1.632.66-.4.44-.6 1.036-.6 1.788 0 .744.2 1.34.6 1.788.408.44.952.66 1.632.66ZM65.815 57.618h2.688v1.584h-4.74v-8.424h2.052v6.84Z" fill="#fff"/>
</svg>
