<svg width="96" height="96" fill="none" xmlns="http://www.w3.org/2000/svg">
  <path d="M44 2.3093a8 8 0 018 0l33.5692 19.3812a8 8 0 014 6.9282v38.7624a7.9998 7.9998 0 01-4 6.9282L52 93.6905a7.9998 7.9998 0 01-8 0L10.4308 74.3093a7.9998 7.9998 0 01-4-6.9282V28.6187a8 8 0 014-6.9282L44 2.3093z" fill="#fff"/>
  <path fill-rule="evenodd" clip-rule="evenodd" d="M84.1907 22.9024L51.5701 4.069a7.233 7.233 0 00-7.2331 0L11.7165 22.9024a7.2332 7.2332 0 00-3.6166 6.2641v37.667a7.233 7.233 0 003.6166 6.264L44.337 91.931a7.233 7.233 0 007.2331 0l32.6206-18.8335a7.233 7.233 0 003.6165-6.264v-37.667a7.2333 7.2333 0 00-3.6165-6.2641zM53.1201 1.3844a10.333 10.333 0 00-10.333 0L10.1665 20.2178A10.3332 10.3332 0 005 29.1665v37.667a10.333 10.333 0 005.1665 8.9486l32.6206 18.8335a10.333 10.333 0 0010.333 0l32.6205-18.8335a10.333 10.333 0 005.1666-8.9486v-37.667a10.3332 10.3332 0 00-5.1666-8.9487L53.1201 1.3844z" fill="#F68712"/>
  <g clip-path="url(#clip0)">
    <path d="M48 30.0007l-13.6695-1.5139L24 24.0006h11.9996L48 30.0015M48.0001 30.0007l13.9826-1.2009 10.0174-4.7992H59.9997l-11.9996 6.0009M48.0001 66l13.0435.4695L72.0001 72H59.9997l-11.9996-6.0011M48 65.9998H34.8522l-10.8522 6h11.9996L48 65.9987" fill="#FBC707"/>
    <path d="M29.9998 48.0003v12.6255L24 71.9998V60.0002L29.9998 48" fill="#FFF200"/>
    <path d="M29.9998 48.0005l-.9911-12.5224L24 24.0006v11.9996l5.9998 12" fill="#FFF200"/>
    <path d="M65.9993 48.0005l1.3051-13.1485 4.6957-10.8514v11.9996l-6.0008 12" fill="#F1471D"/>
    <path d="M65.9993 48.0006l1.0964 14.0863L72.0001 72V60.0004l-6.0008-12.0001" fill="#F1471D"/>
    <path d="M24 24.0006l24 6.0001-3.8608 15.2861-14.1394 2.7137L24 24.0019" fill="#FAB20B"/>
    <path d="M72.0001 24.0006l-6.0009 23.9999-16.1209-2.9231L48 29.9999l24.0001-5.998" fill="#F47216"/>
    <path d="M72.0001 72l-24-6 2.713-15.9119 15.2862-2.0863 6.0008 23.9967" fill="#F25C19"/>
    <path d="M24 71.9998l5.9998-23.9995 14.4524 3.2342L48 65.9997l-24 5.9986" fill="#F89C0E"/>
    <path d="M48.0001 30.0007L29.9998 48.0006 48.0001 66l17.9992-17.9994-17.9992-17.9991" fill="#F68712"/>
  </g>
  <defs>
    <clipPath id="clip0">
      <path fill="#fff" transform="translate(24 24)" d="M0 0h48v48H0z"/>
    </clipPath>
  </defs>
</svg>
