<svg width="96" height="96" fill="none" xmlns="http://www.w3.org/2000/svg">
  <path d="M44 2.3093a8 8 0 018 0l33.5692 19.3812a8 8 0 014 6.9282v38.7624a7.9998 7.9998 0 01-4 6.9282L52 93.6905a7.9998 7.9998 0 01-8 0L10.4308 74.3093a7.9998 7.9998 0 01-4-6.9282V28.6187a8 8 0 014-6.9282L44 2.3093z" fill="#fff"/>
  <path fill-rule="evenodd" clip-rule="evenodd" d="M84.1907 22.9024L51.5701 4.069a7.233 7.233 0 00-7.2331 0L11.7165 22.9024a7.2332 7.2332 0 00-3.6166 6.2641v37.667a7.233 7.233 0 003.6166 6.264L44.337 91.931a7.233 7.233 0 007.2331 0l32.6206-18.8335a7.233 7.233 0 003.6165-6.264v-37.667a7.2333 7.2333 0 00-3.6165-6.2641zM53.1201 1.3844a10.333 10.333 0 00-10.333 0L10.1665 20.2178A10.3332 10.3332 0 005 29.1665v37.667a10.333 10.333 0 005.1665 8.9486l32.6206 18.8335a10.333 10.333 0 0010.333 0l32.6205-18.8335a10.333 10.333 0 005.1666-8.9486v-37.667a10.3332 10.3332 0 00-5.1666-8.9487L53.1201 1.3844z" fill="#8A0819"/>
  <path d="M43.7723 31.1399c6.1491 1.8609 7.7221 3.394 9.884 8.9502-.4193-6.7748-3.1307-9.5991-9.884-8.9502 0 0 1.5841-5.7124 0 0zM35.25 41.7956c3.9919 1.2293 8.6272 2.2116 10.34 9.8382.7071-9.5145-3.7976-9.9993-10.34-9.8382 0 0 7.6274-25.426 0 0z" fill="#8A0819"/>
  <path d="M37.9473 35.7287c5.9983 1.2396 9.822 2.8683 12.0568 10.609.5127-9.986-4.9682-10.9887-12.0568-10.609 0 0 6.5958-11.0384 0 0z" fill="#8A0819"/>
  <path d="M45.813 24c32.733 21.3436-7.2709 21.7207 1.4304 46.5l5.1508 1.5c-14.19-19.2368 31.5828-29.1254-6.5812-48z" fill="#8A0819"/>
</svg>
