<svg width="96" height="96" fill="none" xmlns="http://www.w3.org/2000/svg">
  <path d="M44 2.3093a8 8 0 018 0l33.5692 19.3812a8 8 0 014 6.9282v38.7624a7.9998 7.9998 0 01-4 6.9282L52 93.6905a7.9998 7.9998 0 01-8 0L10.4308 74.3093a7.9998 7.9998 0 01-4-6.9282V28.6187a8 8 0 014-6.9282L44 2.3093z" fill="#fff"/>
  <path fill-rule="evenodd" clip-rule="evenodd" d="M84.1907 22.9024L51.5701 4.069a7.233 7.233 0 00-7.2331 0L11.7165 22.9024a7.2332 7.2332 0 00-3.6166 6.2641v37.667a7.233 7.233 0 003.6166 6.264L44.337 91.931a7.233 7.233 0 007.2331 0l32.6206-18.8335a7.233 7.233 0 003.6165-6.264v-37.667a7.2333 7.2333 0 00-3.6165-6.2641zM53.1201 1.3844a10.333 10.333 0 00-10.333 0L10.1665 20.2178A10.3332 10.3332 0 005 29.1665v37.667a10.333 10.333 0 005.1665 8.9486l32.6206 18.8335a10.333 10.333 0 0010.333 0l32.6205-18.8335a10.3328 10.3328 0 005.1665-8.9486v-37.667a10.3331 10.3331 0 00-5.1665-8.9487L53.1201 1.3844z" fill="#3E3742"/>
  <path d="M32.093 62.078h1.2729c1.2526 0 2.0034-.2966 2.2526-.8896.2492-.5931.3738-3.4331.3738-8.5202v-6.7015c0-5.2716-.1078-8.1775-.3233-8.7179-.2155-.5403-.862-.8105-1.9395-.8105H32.093v-1.2454a160.666 160.666 0 006.6267.1384c1.8183 0 3.4682-.0462 4.9498-.1384v1.2454h-1.5556c-.9563 0-1.5557.112-1.7981.336-.2425.2241-.3839.7908-.4243 1.7001-.0673 1.4102-.101 3.9208-.101 7.5318v6.8201c0 5.1266.1145 7.9502.3434 8.4708.229.5206.9631.7809 2.2022.7809h1.3334v1.2454c-1.6567-.0923-3.4615-.1384-5.4145-.1384-2.2762 0-4.3302.0461-6.162.1384V62.078zM44.8097 51.5922c.2261-1.9029.8327-3.5629 1.8198-4.9803.987-1.4172 2.258-2.4518 3.8128-3.1037 1.5549-.6518 3.2561-.8398 5.1037-.5638 2.677.3999 4.7167 1.5888 6.119 3.5665 1.4023 1.9777 1.9314 4.4144 1.5873 7.31-.4063 3.4197-1.7785 5.9793-4.1166 7.679-2.0874 1.5266-4.4381 2.0946-7.0523 1.7041-2.5137-.3755-4.449-1.6084-5.806-3.6986-1.3569-2.0902-1.8462-4.7279-1.4677-7.9132zm3.7188-.9391c-.3375 2.8406-.0953 5.3502.7267 7.5289.822 2.1787 2.2322 3.4173 4.2305 3.7159 1.5208.2271 2.8247-.2236 3.9118-1.3523s1.7838-2.9824 2.0902-5.5609c.2474-2.0821.1851-3.9263-.1868-5.5326-.372-1.6063-.9691-2.8252-1.7912-3.6567-.8222-.8315-1.7926-1.3308-2.9112-1.4979-.9929-.1483-1.9212-.0063-2.7848.426-.8636.4323-1.5388 1.0823-2.0257 1.9498-.6644 1.1778-1.0842 2.5044-1.2595 3.9798z" fill="#3E3742"/>
  <path d="M34.0413 63.75h-.566v.9749h-.3195V62.315h.7978c.2715 0 .48.0617.6257.1853.1467.1236.2201.3035.2201.5396 0 .1501-.0408.2808-.1225.3923-.0805.1114-.1931.1947-.3376.2499l.566 1.0229v.0199h-.3409l-.5231-.9749zm-.566-.2599h.4883c.1577 0 .283-.0408.3757-.1225.0938-.0816.1407-.1909.1407-.3277 0-.149-.0447-.2632-.1341-.3426-.0883-.0795-.2163-.1197-.384-.1208h-.4866v.9136zm2.3602.336h-.8077v-.2499h.8077v.2499zm.4089-.3095l.1224-1.2016h1.2348v.283h-.9749l-.0728.6571c.118-.0695.2521-.1043.4022-.1043.2196 0 .3939.0728.523.2185.1291.1445.1936.3404.1936.5876 0 .2482-.0673.4441-.2019.5875-.1335.1424-.3205.2136-.5611.2136-.2129 0-.3867-.0591-.5213-.1771-.1347-.1181-.2114-.2814-.2301-.49h.2896c.0188.138.0679.2422.1473.3129.0795.0695.1843.1042.3145.1042.1424 0 .2538-.0485.3344-.1456.0816-.0971.1224-.2312.1224-.4022 0-.1611-.0441-.2902-.1324-.3873-.0871-.0982-.2036-.1473-.3492-.1473-.1335 0-.2383.0292-.3145.0877l-.0811.0662-.2449-.0629zm2.9362.149a.7472.7472 0 01-.2301.1837c-.0883.0463-.1854.0695-.2913.0695-.139 0-.2604-.0342-.3641-.1026-.1026-.0684-.1821-.1644-.2384-.288-.0562-.1247-.0844-.2621-.0844-.4122 0-.1611.0304-.3062.0911-.4353.0618-.1291.1489-.2278.2615-.2962.1125-.0684.2438-.1026.3939-.1026.2383 0 .4259.0893.5628.2681.1379.1776.2068.4204.2068.7283v.0893c0 .469-.0926.8116-.278 1.0279-.1854.2151-.4651.3255-.8392.331h-.0596v-.2582h.0646c.2527-.0044.4469-.0701.5826-.197.1357-.128.2097-.3299.2218-.6057zm-.4717 0c.1026 0 .1969-.0315.283-.0944.0872-.0629.1506-.1407.1903-.2334v-.1224c0-.2009-.0435-.3642-.1307-.49-.0872-.1258-.1975-.1887-.331-.1887-.1347 0-.2428.0519-.3245.1556-.0816.1026-.1224.2384-.1224.4072 0 .1644.0391.3001.1175.4072.0794.1059.1854.1589.3178.1589z" fill="#3E3742"/>
</svg>
