<svg width="96" height="96" fill="none" xmlns="http://www.w3.org/2000/svg">
  <path d="M44 2.3093a8 8 0 018 0l33.5692 19.3812a8 8 0 014 6.9282v38.7624a7.9998 7.9998 0 01-4 6.9282L52 93.6905a7.9998 7.9998 0 01-8 0L10.4308 74.3093a7.9998 7.9998 0 01-4-6.9282V28.6187a8 8 0 014-6.9282L44 2.3093z" fill="#fff"/>
  <path fill-rule="evenodd" clip-rule="evenodd" d="M84.1907 22.9024L51.5701 4.069a7.233 7.233 0 00-7.2331 0L11.7165 22.9024a7.2332 7.2332 0 00-3.6166 6.2641v37.667a7.233 7.233 0 003.6166 6.264L44.337 91.931a7.233 7.233 0 007.2331 0l32.6206-18.8335a7.233 7.233 0 003.6165-6.264v-37.667a7.2333 7.2333 0 00-3.6165-6.2641zM53.1201 1.3844a10.333 10.333 0 00-10.333 0L10.1665 20.2178A10.3332 10.3332 0 005 29.1665v37.667a10.333 10.333 0 005.1665 8.9486l32.6206 18.8335a10.333 10.333 0 0010.333 0l32.6205-18.8335a10.3328 10.3328 0 005.1665-8.9486v-37.667a10.3331 10.3331 0 00-5.1665-8.9487L53.1201 1.3844z" fill="#00B0DC"/>
  <path d="M66.4305 24h-19.432c-1.8621 0-3.3716 1.5095-3.3716 3.3716v1.7039c0 .9211.7466 1.6677 1.6677 1.6677 2.7631 0 5.003 2.2399 5.003 5.003v25.1781c0 3.3939-2.7513 6.1452-6.1452 6.1452h-.6176a8.2248 8.2248 0 01-4.6047-1.4098.8225.8225 0 01-.2762-1.0474l1.5571-3.1351a7.719 7.719 0 00.8056-3.4335c0-2.9841-2.4191-5.4032-5.4032-5.4032h-3.144c-3.8491 0-6.9694 3.1203-6.9694 6.9694C25.5 66.4528 31.0472 72 37.8901 72h5.8906c10.7271 0 19.4232-8.6961 19.4232-19.4232v-16.885c0-2.733 2.2156-4.9486 4.9487-4.9486.911 0 1.6495-.7385 1.6495-1.6495v-1.7221c0-1.8621-1.5095-3.3716-3.3716-3.3716z" fill="#00B0DC"/>
</svg>
