<svg width="96" height="97" viewBox="0 0 96 97" fill="none" xmlns="http://www.w3.org/2000/svg">
<path d="M43.9353 3.39776C46.4432 1.91836 49.5568 1.91837 52.0647 3.39776L83.9019 22.1786C86.3406 23.6171 87.8372 26.2376 87.8372 29.069V66.931C87.8372 69.7624 86.3405 72.3829 83.9019 73.8214L52.0647 92.6022C49.5568 94.0816 46.4432 94.0816 43.9353 92.6022L12.0981 73.8214C9.65945 72.3829 8.16283 69.7624 8.16283 66.931V29.069C8.16283 26.2376 9.65945 23.6171 12.0981 22.1786L43.9353 3.39776Z" fill="white"/>
<path fill-rule="evenodd" clip-rule="evenodd" d="M84.2763 22.9272L51.6205 4.07336C49.3801 2.77989 46.6199 2.77989 44.3795 4.07336L11.7237 22.9272C9.48337 24.2207 8.10326 26.6111 8.10326 29.198V66.9057C8.10326 69.4927 9.48337 71.8831 11.7237 73.1766L44.3795 92.0304C46.6199 93.3239 49.3801 93.3239 51.6205 92.0304L84.2763 73.1766C86.5166 71.8831 87.8967 69.4927 87.8967 66.9057V29.198C87.8967 26.6111 86.5166 24.2207 84.2763 22.9272ZM53.1721 1.38586C49.9716 -0.461953 46.0284 -0.461954 42.8279 1.38586L10.1721 20.2397C6.97159 22.0875 5 25.5024 5 29.198V66.9057C5 70.6014 6.97159 74.0162 10.1721 75.8641L42.8279 94.7179C46.0284 96.5657 49.9716 96.5657 53.1721 94.7179L85.8279 75.8641C89.0284 74.0162 91 70.6014 91 66.9057V29.198C91 25.5024 89.0284 22.0875 85.8279 20.2397L53.1721 1.38586Z" fill="#F0DB4F"/>
<rect x="24.0001" y="24" width="48" height="48" fill="#F8DC3D"/>
<path d="M43.7745 67.0336C47.6805 67.0336 50.358 64.9546 50.358 60.3871V45.3301H45.948V60.3241C45.948 62.5291 45.0345 63.0961 43.5855 63.0961C42.0735 63.0961 41.4435 62.0566 40.7505 60.8281L37.1595 63.0016C38.199 65.2066 40.2465 67.0336 43.7745 67.0336Z" fill="black"/>
<path d="M60.7875 67.0336C64.977 67.0336 68.0955 64.8601 68.0955 60.8911C68.0955 57.2056 65.985 55.5676 62.2365 53.9611L61.134 53.4886C59.244 52.6696 58.425 52.1341 58.425 50.8111C58.425 49.7401 59.244 48.9211 60.5355 48.9211C61.7955 48.9211 62.6145 49.4566 63.3705 50.8111L66.804 48.6061C65.355 46.0546 63.339 45.0781 60.5355 45.0781C56.598 45.0781 54.078 47.5981 54.078 50.9056C54.078 54.4966 56.1885 56.1976 59.37 57.5521L60.4725 58.0246C62.4885 58.9066 63.6855 59.4421 63.6855 60.9541C63.6855 62.2141 62.52 63.1276 60.693 63.1276C58.5195 63.1276 57.291 61.9936 56.346 60.4501L52.755 62.5291C54.0465 65.0806 56.6925 67.0336 60.7875 67.0336Z" fill="black"/>
</svg>
