<svg xmlns="http://www.w3.org/2000/svg" width="96" height="96" fill="none"><path fill="#fff" d="M44 2.31a8 8 0 0 1 8 0l33.57 19.38a8 8 0 0 1 4 6.929V67.38a8 8 0 0 1-4 6.928L52 93.691a8 8 0 0 1-8 0L10.43 74.308a8 8 0 0 1-4-6.928V28.62a8 8 0 0 1 4-6.928L44 2.308Z"/><path fill="#434343" fill-rule="evenodd" d="M84.19 22.902 51.57 4.07a7.233 7.233 0 0 0-7.233 0l-32.62 18.833A7.233 7.233 0 0 0 8.1 29.166v37.668a7.233 7.233 0 0 0 3.617 6.263l32.62 18.834a7.233 7.233 0 0 0 7.233 0l32.62-18.834a7.233 7.233 0 0 0 3.617-6.263V29.166a7.233 7.233 0 0 0-3.616-6.264ZM53.12 1.384a10.333 10.333 0 0 0-10.333 0l-32.62 18.834A10.333 10.333 0 0 0 5 29.166v37.668c0 3.691 1.97 7.102 5.166 8.948l32.621 18.834a10.333 10.333 0 0 0 10.333 0l32.62-18.834a10.333 10.333 0 0 0 5.167-8.948V29.166c0-3.691-1.97-7.102-5.166-8.948L53.12 1.384Z" clip-rule="evenodd"/><g fill="#434343" clip-path="url(#a)"><path d="M65.155 21.962c-.674.582-22.462 47.1-22.462 47.928 0 .704 1.134 1.624 3.28 2.696 2.175 1.073 3.155 1.195 3.83.399.429-.43 21.236-44.772 22.033-46.886.46-1.226.03-1.808-2.268-3.095-2.88-1.563-3.616-1.747-4.413-1.042ZM27.524 56.008c-1.992.919-3.524 3.217-3.524 5.27 0 2.176 1.716 4.566 3.83 5.394 5.087 1.93 9.868-3.157 7.508-8.029-1.317-2.727-4.995-3.953-7.814-2.635Z"/></g><defs><clipPath id="a"><path fill="#fff" d="M24 24h48v48H24z"/></clipPath></defs></svg>