<svg width="96" height="96" viewBox="0 0 96 96" fill="none" xmlns="http://www.w3.org/2000/svg">
<path d="M44 2.30935C46.4752 0.880283 49.5248 0.880284 52 2.30935L85.5692 21.6905C88.0444 23.1196 89.5692 25.7606 89.5692 28.6187V67.3811C89.5692 70.2393 88.0444 72.8803 85.5692 74.3093L52 93.6905C49.5248 95.1196 46.4752 95.1196 44 93.6905L10.4308 74.3093C7.95558 72.8803 6.43079 70.2393 6.43079 67.3811V28.6187C6.43079 25.7606 7.95558 23.1196 10.4308 21.6905L44 2.30935Z" fill="white"/>
<path fill-rule="evenodd" clip-rule="evenodd" d="M84.1907 22.9024L51.5701 4.06896C49.3322 2.77689 46.575 2.77689 44.337 4.06896L11.7165 22.9024C9.47853 24.1945 8.09991 26.5824 8.09991 29.1665V66.8335C8.09991 69.4176 9.47853 71.8055 11.7165 73.0975L44.337 91.931C46.575 93.2231 49.3322 93.2231 51.5701 91.931L84.1907 73.0975C86.4286 71.8055 87.8072 69.4176 87.8072 66.8335V29.1665C87.8072 26.5824 86.4286 24.1945 84.1907 22.9024ZM53.1201 1.38436C49.923 -0.461454 45.9841 -0.461455 42.7871 1.38436L10.1665 20.2178C6.96946 22.0637 5 25.4749 5 29.1665V66.8335C5 70.5251 6.96946 73.9363 10.1665 75.7821L42.7871 94.6156C45.9841 96.4614 49.923 96.4614 53.1201 94.6156L85.7406 75.7821C88.9377 73.9363 90.9071 70.5251 90.9071 66.8335V29.1665C90.9071 25.4749 88.9377 22.0637 85.7406 20.2178L53.1201 1.38436Z" fill="#00007D"/>
<path d="M66.3468 48.0045C66.3468 37.875 58.1258 29.6541 47.9964 29.6541C37.867 29.6541 29.6459 37.875 29.6459 48.0045C29.6459 58.1339 37.867 66.3549 47.9964 66.3549C58.1258 66.3549 66.3468 58.1339 66.3468 48.0045Z" fill="#00007D"/>
<path d="M60.9741 40.4016C60.9741 37.4348 58.5662 35.0269 55.5994 35.0269C52.6325 35.0269 50.2246 37.4348 50.2246 40.4016C50.2246 43.3684 52.6325 45.7763 55.5994 45.7763C58.5662 45.7763 60.9741 43.3684 60.9741 40.4016Z" fill="white"/>
<path d="M71.7216 29.654C71.7216 26.6872 69.3137 24.2793 66.3469 24.2793C63.38 24.2793 60.9721 26.6872 60.9721 29.654C60.9721 32.6209 63.38 35.0288 66.3469 35.0288C69.3137 35.0288 71.7216 32.6209 71.7216 29.654Z" fill="#00007D"/>
<path d="M35.4843 45.3293H37.0891V55.7644H43.0324V57.1756H35.4843V45.3293Z" fill="white"/>
<path d="M45.9274 48.5388V54.2724C45.9274 54.7133 45.9955 55.0736 46.1317 55.353C46.3829 55.8691 46.8515 56.1272 47.5375 56.1272C48.5217 56.1272 49.1919 55.6756 49.548 54.7724C49.7417 54.2885 49.8385 53.6246 49.8385 52.7805V48.5388H51.2901V57.1755H49.9192L49.9353 55.9014C49.7505 56.2293 49.5209 56.5062 49.2466 56.732C48.7032 57.1836 48.0439 57.4094 47.2685 57.4094C46.0603 57.4094 45.2375 56.9981 44.7997 56.1755C44.5623 55.7348 44.4436 55.1461 44.4436 54.4095V48.5388H45.9274Z" fill="white"/>
<path d="M58.2899 51.9486C58.6232 51.9058 58.8464 51.7662 58.9592 51.5301C59.0236 51.4005 59.0559 51.2144 59.0559 50.9715C59.0559 50.4751 58.8801 50.1148 58.5287 49.8908C58.1772 49.6669 57.6742 49.5548 57.0198 49.5548C56.2633 49.5548 55.7267 49.7602 55.4101 50.1707C55.2331 50.3978 55.1178 50.7355 55.0641 51.1838H53.7094C53.7362 50.1163 54.0812 49.3737 54.7444 48.9558C55.4075 48.538 56.1767 48.3291 57.052 48.3291C58.0668 48.3291 58.8911 48.5227 59.5247 48.9097C60.153 49.2968 60.4671 49.899 60.4671 50.7162V55.6921C60.4671 55.8426 60.498 55.9636 60.5599 56.0548C60.6216 56.1461 60.752 56.1916 60.951 56.1916C61.0155 56.1916 61.0881 56.1876 61.1687 56.1796C61.2494 56.1715 61.3353 56.1595 61.4268 56.1434V57.2158C61.2009 57.2803 61.0289 57.3207 60.9107 57.3367C60.7924 57.3528 60.631 57.361 60.4268 57.361C59.9268 57.361 59.5639 57.1836 59.3381 56.8288C59.2198 56.6408 59.1365 56.3746 59.0881 56.0306C58.7924 56.4177 58.3677 56.7536 57.814 57.0385C57.2602 57.3232 56.65 57.4658 55.9834 57.4658C55.1823 57.4658 54.5279 57.2227 54.0199 56.7369C53.5118 56.251 53.2578 55.6429 53.2578 54.9126C53.2578 54.1126 53.5078 53.4924 54.0077 53.0522C54.5077 52.6119 55.1635 52.3406 55.9754 52.2385L58.2899 51.9486ZM55.2335 55.87C55.5399 56.1114 55.9028 56.232 56.3222 56.232C56.8328 56.232 57.3274 56.1139 57.806 55.8778C58.6123 55.4859 59.0156 54.8445 59.0156 53.9535V52.7861C58.8384 52.8993 58.6105 52.9937 58.3315 53.0692C58.0525 53.1448 57.7789 53.1986 57.5106 53.2307L56.6333 53.3435C56.1076 53.4133 55.7122 53.5233 55.4472 53.6735C54.9982 53.9256 54.7739 54.3279 54.7739 54.8803C54.7739 55.2987 54.927 55.6285 55.2335 55.87Z" fill="white"/>
<path d="M48.8498 71.986L48.8306 71.4358C49.511 71.412 50.1969 71.3584 50.8693 71.2763L50.936 71.8227C50.248 71.9067 49.546 71.9617 48.8498 71.986ZM46.757 71.969C46.0619 71.9335 45.3609 71.8671 44.6735 71.7716L44.7492 71.2263C45.4208 71.3195 46.1058 71.3844 46.7851 71.4192L46.757 71.969ZM53.0006 71.4783L52.8863 70.9398C53.551 70.7988 54.217 70.6266 54.866 70.4279L55.0272 70.9543C54.3628 71.1577 53.681 71.3339 53.0006 71.4783ZM42.615 71.3932C41.9377 71.2378 41.2588 71.0502 40.5973 70.8357L40.7671 70.3121C41.4133 70.5216 42.0765 70.7048 42.7381 70.8567L42.615 71.3932ZM56.9999 70.2543L56.7931 69.7441C57.4219 69.4895 58.0474 69.2035 58.6525 68.8942L58.903 69.3844C58.2837 69.701 57.6434 69.9937 56.9999 70.2543ZM38.6354 70.1027C37.9956 69.831 37.3598 69.5275 36.7455 69.2006L37.0042 68.7146C37.6043 69.034 38.2256 69.3306 38.8505 69.5959L38.6354 70.1027ZM60.7232 68.3513L60.4308 67.8848C61.006 67.5242 61.5726 67.1338 62.1148 66.7243L62.4466 67.1637C61.8917 67.5827 61.3119 67.9822 60.7232 68.3513ZM34.9419 68.1369C34.3596 67.7583 33.7862 67.3491 33.2379 66.9206L33.5769 66.4868C34.1127 66.9056 34.6729 67.3055 35.242 67.6754L34.9419 68.1369ZM64.0606 65.8309L63.692 65.4221C64.1968 64.967 64.6876 64.4845 65.1507 63.9879L65.5533 64.3634C65.0793 64.8715 64.5771 65.3653 64.0606 65.8309ZM31.646 65.5612C31.1374 65.0873 30.6433 64.5853 30.1777 64.0692L30.5864 63.7004C31.0415 64.2048 31.5242 64.6953 32.0212 65.1584L31.646 65.5612ZM66.9134 62.772L66.4799 62.4329C66.8987 61.8974 67.2989 61.3374 67.6692 60.7684L68.1306 61.0686C67.7517 61.6509 67.3421 62.2241 66.9134 62.772ZM28.8442 62.4558C28.4246 61.9009 28.0248 61.3212 27.6557 60.7329L28.122 60.4404C28.4827 61.0152 28.8734 61.5816 29.2833 62.1238L28.8442 62.4558ZM69.1952 59.2656L68.7093 59.0067C69.0291 58.4067 69.3259 57.7857 69.5915 57.1608L70.0982 57.3762C69.8262 58.0158 69.5224 58.6515 69.1952 59.2656ZM26.6218 58.9134C26.305 58.2945 26.012 57.6543 25.7508 57.0107L26.261 56.8037C26.5161 57.4325 26.8024 58.0579 27.1119 58.6626L26.6218 58.9134ZM70.8322 55.4146L70.3086 55.2446C70.5183 54.599 70.7019 53.9359 70.8543 53.2738L71.3907 53.3972C71.2348 54.075 71.0468 54.7538 70.8322 55.4146ZM25.0499 55.0382C24.8461 54.3737 24.6695 53.6919 24.5249 53.0119L25.0633 52.8973C25.2046 53.5617 25.3772 54.2276 25.5762 54.8768L25.0499 55.0382ZM71.7702 51.3388L71.2249 51.2629C71.3184 50.5915 71.3837 49.9066 71.4187 49.2272L71.9685 49.2556C71.9326 49.9508 71.8659 50.6517 71.7702 51.3388ZM24.1795 50.9476C24.0951 50.2592 24.0398 49.5573 24.0152 48.8613L24.5654 48.8419C24.5894 49.522 24.6434 50.2079 24.7259 50.8806L24.1795 50.9476ZM71.436 47.1818C71.4124 46.503 71.3584 45.8168 71.2756 45.1425L71.8219 45.0753C71.9067 45.7656 71.962 46.4679 71.9862 47.1626L71.436 47.1818ZM24.5809 46.7965L24.0311 46.7686C24.0664 46.0734 24.1324 45.3724 24.2275 44.6851L24.7728 44.7605C24.6799 45.4321 24.6154 46.1171 24.5809 46.7965ZM70.9379 43.1248C70.7966 42.4602 70.6242 41.7939 70.4256 41.1443L70.9521 40.9833C71.1554 41.6481 71.3317 42.3301 71.4763 43.0103L70.9379 43.1248ZM25.1415 42.7492L24.6049 42.6263C24.7601 41.9486 24.9474 41.2697 25.1615 40.6084L25.6852 40.778C25.4761 41.424 25.2931 42.0872 25.1415 42.7492ZM69.7429 39.2159C69.4882 38.5858 69.2027 37.9594 68.8944 37.3544L69.385 37.1044C69.7005 37.7237 69.9926 38.3647 70.2533 39.0096L69.7429 39.2159ZM26.4004 38.861L25.8935 38.6461C26.1648 38.0062 26.468 37.3702 26.7947 36.7558L27.2808 37.0142C26.9617 37.6145 26.6654 38.2358 26.4004 38.861ZM28.3191 35.2515L27.8574 34.9517C28.2359 34.3689 28.6449 33.7954 29.073 33.2471L29.5069 33.5859C29.0886 34.1217 28.689 34.6821 28.3191 35.2515ZM30.8346 32.0295L30.4316 31.6545C30.9052 31.1457 31.407 30.6514 31.9229 30.1855L32.2919 30.594C31.7877 31.0494 31.2974 31.5323 30.8346 32.0295ZM33.8678 29.2902L33.5356 28.8512C34.0902 28.4315 34.6697 28.0314 35.2578 27.662L35.5507 28.1281C34.9759 28.4891 34.4097 28.8801 33.8678 29.2902ZM60.7729 28.3341L60.7427 28.3146L61.0422 27.8526L61.0713 27.8715L60.7729 28.3341ZM58.9788 27.279C58.3785 26.961 57.7568 26.6656 57.1313 26.4011L57.3456 25.8941C57.9859 26.1647 58.6221 26.467 59.2365 26.7926L58.9788 27.279ZM37.328 27.117L37.077 26.627C37.6959 26.3098 38.336 26.0165 38.9792 25.7552L39.1864 26.2652C38.558 26.5205 37.9327 26.8071 37.328 27.117ZM55.2141 25.6876C54.5677 25.4786 53.9042 25.2956 53.2421 25.1438L53.3652 24.6072C54.0428 24.7626 54.7218 24.9499 55.3835 25.1638L55.2141 25.6876ZM41.113 25.5795L40.9514 25.0532C41.6156 24.8492 42.2972 24.6723 42.9774 24.5272L43.0922 25.0656C42.4278 25.2073 41.7618 25.3802 41.113 25.5795ZM51.2301 24.7739C50.5571 24.6804 49.8719 24.6154 49.1934 24.5808L49.2215 24.031C49.9158 24.0664 50.6171 24.1329 51.3059 24.2287L51.2301 24.7739ZM45.1089 24.7273L45.0416 24.1809C45.7297 24.0962 46.4316 24.0406 47.1277 24.0156L47.1474 24.5658C46.4671 24.5902 45.7813 24.6445 45.1089 24.7273Z" fill="#929292"/>
</svg>
