<svg width="96" height="96" viewBox="0 0 96 96" fill="none" xmlns="http://www.w3.org/2000/svg">
<path d="M44 2.30935C46.4752 0.880283 49.5248 0.880284 52 2.30935L85.5692 21.6905C88.0444 23.1196 89.5692 25.7606 89.5692 28.6187V67.3811C89.5692 70.2393 88.0444 72.8803 85.5692 74.3093L52 93.6905C49.5248 95.1196 46.4752 95.1196 44 93.6905L10.4308 74.3093C7.95558 72.8803 6.43079 70.2393 6.43079 67.3811V28.6187C6.43079 25.7606 7.95558 23.1196 10.4308 21.6905L44 2.30935Z" fill="white"/>
<path fill-rule="evenodd" clip-rule="evenodd" d="M84.1907 22.9024L51.5701 4.06896C49.3322 2.77689 46.575 2.77689 44.337 4.06896L11.7165 22.9024C9.47853 24.1945 8.09991 26.5824 8.09991 29.1665V66.8335C8.09991 69.4176 9.47853 71.8055 11.7165 73.0975L44.337 91.931C46.575 93.2231 49.3322 93.2231 51.5701 91.931L84.1907 73.0975C86.4286 71.8055 87.8072 69.4176 87.8072 66.8335V29.1665C87.8072 26.5824 86.4286 24.1945 84.1907 22.9024ZM53.1201 1.38436C49.923 -0.461454 45.9841 -0.461455 42.7871 1.38436L10.1665 20.2178C6.96946 22.0637 5 25.4749 5 29.1665V66.8335C5 70.5251 6.96946 73.9363 10.1665 75.7821L42.7871 94.6156C45.9841 96.4614 49.923 96.4614 53.1201 94.6156L85.7406 75.7821C88.9377 73.9363 90.9071 70.5251 90.9071 66.8335V29.1665C90.9071 25.4749 88.9377 22.0637 85.7406 20.2178L53.1201 1.38436Z" fill="#41C074"/>
<g clip-path="url(#clip0)">
<path d="M53.4902 24C53.4902 24.0847 53.4902 24.1694 53.4902 24.2588C53.4902 27.2988 51.0259 29.7624 47.9867 29.7624C44.9467 29.7624 42.4831 27.298 42.4831 24.2588C42.4831 24.1694 42.4831 24.0847 42.4831 24H24V72H72V24H53.4902Z" fill="#41C074"/>
</g>
<path d="M43.211 55.6669V67.3832H40.3694V60.3567L37.7604 67.3832H35.4672L32.8416 60.3401V67.3832H30V55.6669H33.3567L36.6304 63.7782L39.8708 55.6669H43.211Z" fill="white"/>
<path d="M48.096 55.6669V67.3832H45.2544V55.6669H48.096Z" fill="white"/>
<path d="M59.0457 59.4388C59.0457 60.1175 58.8906 60.7406 58.5804 61.3081C58.2702 61.8644 57.7938 62.315 57.1513 62.6599C56.5087 63.0049 55.7111 63.1773 54.7584 63.1773H52.9969V67.3832H50.1553V55.6669H54.7584C55.6889 55.6669 56.4755 55.8282 57.1181 56.1509C57.7606 56.4736 58.2425 56.9186 58.5638 57.4861C58.8851 58.0535 59.0457 58.7045 59.0457 59.4388ZM54.5423 60.9075C55.0852 60.9075 55.4895 60.7796 55.7554 60.5236C56.0213 60.2677 56.1542 59.9061 56.1542 59.4388C56.1542 58.9715 56.0213 58.6099 55.7554 58.354C55.4895 58.0981 55.0852 57.9701 54.5423 57.9701H52.9969V60.9075H54.5423Z" fill="white"/>
<path d="M64.7459 67.5C63.8929 67.5 63.1285 67.3609 62.4527 67.0828C61.7769 66.8046 61.2341 66.3929 60.8242 65.8477C60.4253 65.3025 60.2148 64.646 60.1927 63.8783H63.2171C63.2614 64.3122 63.411 64.646 63.6658 64.8797C63.9206 65.1022 64.2529 65.2135 64.6628 65.2135C65.0838 65.2135 65.4161 65.1189 65.6599 64.9298C65.9036 64.7295 66.0255 64.4569 66.0255 64.112C66.0255 63.8227 65.9258 63.5835 65.7263 63.3943C65.538 63.2051 65.2998 63.0494 65.0118 62.927C64.7348 62.8046 64.336 62.6655 63.8153 62.5097C63.062 62.2761 62.4471 62.0424 61.9708 61.8088C61.4944 61.5751 61.0845 61.2302 60.7411 60.774C60.3976 60.3178 60.2259 59.7225 60.2259 58.9882C60.2259 57.8978 60.6192 57.0466 61.4058 56.4346C62.1923 55.8115 63.2171 55.5 64.48 55.5C65.7651 55.5 66.8009 55.8115 67.5875 56.4346C68.3741 57.0466 68.7951 57.9033 68.8504 59.0049H65.7762C65.754 58.6266 65.6156 58.3317 65.3608 58.1203C65.106 57.8978 64.7791 57.7865 64.3803 57.7865C64.0369 57.7865 63.7599 57.8811 63.5494 58.0702C63.3389 58.2483 63.2337 58.5097 63.2337 58.8547C63.2337 59.233 63.411 59.5278 63.7655 59.7392C64.12 59.9506 64.6739 60.1787 65.4272 60.4235C66.1806 60.6794 66.7899 60.9242 67.2552 61.1579C67.7315 61.3915 68.1414 61.7309 68.4849 62.1759C68.8283 62.621 69 63.194 69 63.895C69 64.5626 68.8283 65.169 68.4849 65.7142C68.1525 66.2594 67.6651 66.6933 67.0225 67.016C66.38 67.3387 65.6211 67.5 64.7459 67.5Z" fill="white"/>
<defs>
<clipPath id="clip0">
<rect width="48" height="48" fill="white" transform="translate(24 24)"/>
</clipPath>
</defs>
</svg>
