<svg width="96" height="96" fill="none" xmlns="http://www.w3.org/2000/svg">
  <path d="M44 2.3093a8 8 0 018 0l33.5692 19.3812a8 8 0 014 6.9282v38.7624a7.9998 7.9998 0 01-4 6.9282L52 93.6905a7.9998 7.9998 0 01-8 0L10.4308 74.3093a7.9998 7.9998 0 01-4-6.9282V28.6187a8 8 0 014-6.9282L44 2.3093z" fill="#fff"/>
  <path fill-rule="evenodd" clip-rule="evenodd" d="M84.1907 22.9024L51.5701 4.069a7.233 7.233 0 00-7.2331 0L11.7165 22.9024a7.2332 7.2332 0 00-3.6166 6.2641v37.667a7.233 7.233 0 003.6166 6.264L44.337 91.931a7.233 7.233 0 007.2331 0l32.6206-18.8335a7.233 7.233 0 003.6165-6.264v-37.667a7.2333 7.2333 0 00-3.6165-6.2641zM53.1201 1.3844a10.333 10.333 0 00-10.333 0L10.1665 20.2178A10.3332 10.3332 0 005 29.1665v37.667a10.333 10.333 0 005.1665 8.9486l32.6206 18.8335a10.333 10.333 0 0010.333 0l32.6205-18.8335a10.3328 10.3328 0 005.1665-8.9486v-37.667a10.3331 10.3331 0 00-5.1665-8.9487L53.1201 1.3844z" fill="#5277C3"/>
  <g clip-path="url(#clip0)" fill-rule="evenodd" clip-rule="evenodd">
    <path d="M38.6443 48.3293l11.6911 20.2519-5.3728.0504-3.1212-5.4409-3.1435 5.4118-2.6696-.0011-1.3672-2.3621 4.4785-7.7009-3.1792-5.5324 2.6839-4.6767z" fill="#5277C3"/>
    <path d="M42.8641 39.9875l-11.693 20.2507-2.7301-4.6277 3.1514-5.4236-6.2586-.0164L24 47.8581l1.362-2.3652 8.9084.0281 3.2016-5.5194 5.3921-.0141zM43.7612 56.1755l23.3841.0012-2.6428 4.6781-6.2725-.0174 3.115 5.4283-1.3357 2.3114-2.7293.003-4.4299-7.7289-6.3808-.013-2.7081-4.6627zM57.3715 47.3022L45.6804 27.0504 51.0532 27l3.1212 5.4409 3.1435-5.4118 2.6696.001 1.3672 2.3622-4.4785 7.7008 3.1792 5.5324-2.6839 4.6767z" fill="#7EBAE4"/>
    <path d="M38.6443 48.3293l11.6911 20.2519-5.3728.0504-3.1212-5.4409-3.1435 5.4118-2.6696-.0011-1.3672-2.3621 4.4785-7.7009-3.1792-5.5324 2.6839-4.6767zM52.2236 39.4048l-23.3841-.0012 2.6427-4.6781 6.2726.0174-3.115-5.4283 1.3357-2.3113 2.7293-.0031 4.4298 7.729 6.3808.0129 2.7082 4.6627zM53.1359 55.6398L64.829 35.3892l2.73 4.6277-3.1513 5.4235 6.2585.0165L72 47.7693l-1.362 2.3652-8.9084-.0282-3.2016 5.5195-5.3921.014z" fill="#5277C3"/>
    <path d="M38.6582 48.3164l11.6911 20.2518-5.3728.0504-3.1212-5.4409-3.1435 5.4118-2.6695-.001-1.3673-2.3622 4.4785-7.7008-3.1792-5.5324 2.6839-4.6767z" fill="url(#paint0_linear)"/>
    <path d="M38.6582 48.3164l11.6911 20.2518-5.3728.0504-3.1212-5.4409-3.1435 5.4118-2.6695-.001-1.3673-2.3622 4.4785-7.7008-3.1792-5.5324 2.6839-4.6767z" fill="url(#paint1_linear)"/>
  </g>
  <defs>
    <linearGradient id="paint0_linear" x1="34.9937" y1="48.9525" x2="43.5556" y2="63.7606" gradientUnits="userSpaceOnUse">
      <stop stop-color="#699AD7"/>
      <stop offset=".2435" stop-color="#7EB1DD"/>
      <stop offset="1" stop-color="#7EBAE4"/>
    </linearGradient>
    <linearGradient id="paint1_linear" x1="35.8787" y1="48.4488" x2="44.2886" y2="63.3144" gradientUnits="userSpaceOnUse">
      <stop stop-color="#415E9A"/>
      <stop offset=".2317" stop-color="#4A6BAF"/>
      <stop offset="1" stop-color="#5277C3"/>
    </linearGradient>
    <clipPath id="clip0">
      <path fill="#fff" transform="translate(24 27)" d="M0 0h48v41.6316H0z"/>
    </clipPath>
  </defs>
</svg>
