<svg width="96" height="96" viewBox="0 0 96 96" fill="none" xmlns="http://www.w3.org/2000/svg">
<path d="M44 2.30935C46.4752 0.880283 49.5248 0.880284 52 2.30935L85.5692 21.6905C88.0444 23.1196 89.5692 25.7606 89.5692 28.6187V67.3811C89.5692 70.2393 88.0444 72.8803 85.5692 74.3093L52 93.6905C49.5248 95.1196 46.4752 95.1196 44 93.6905L10.4308 74.3093C7.95558 72.8803 6.43079 70.2393 6.43079 67.3811V28.6187C6.43079 25.7606 7.95558 23.1196 10.4308 21.6905L44 2.30935Z" fill="white"/>
<path fill-rule="evenodd" clip-rule="evenodd" d="M84.1907 22.9024L51.5701 4.06896C49.3322 2.77689 46.575 2.77689 44.337 4.06896L11.7165 22.9024C9.47853 24.1945 8.09991 26.5824 8.09991 29.1665V66.8335C8.09991 69.4176 9.47853 71.8055 11.7165 73.0975L44.337 91.931C46.575 93.2231 49.3322 93.2231 51.5701 91.931L84.1907 73.0975C86.4286 71.8055 87.8072 69.4176 87.8072 66.8335V29.1665C87.8072 26.5824 86.4286 24.1945 84.1907 22.9024ZM53.1201 1.38436C49.923 -0.461454 45.9841 -0.461455 42.7871 1.38436L10.1665 20.2178C6.96946 22.0637 5 25.4749 5 29.1665V66.8335C5 70.5251 6.96946 73.9363 10.1665 75.7821L42.7871 94.6156C45.9841 96.4614 49.923 96.4614 53.1201 94.6156L85.7406 75.7821C88.9377 73.9363 90.9071 70.5251 90.9071 66.8335V29.1665C90.9071 25.4749 88.9377 22.0637 85.7406 20.2178L53.1201 1.38436Z" fill="#0B5A9D"/>
<path d="M47.9538 71.0222C35.7022 71.0222 25.3149 60.6744 25.2187 48.3463C25.1768 42.3388 27.5394 36.5657 31.7835 32.3117C36.0524 27.9392 41.8995 25.4583 48.013 25.4263C54.0155 25.4213 59.7714 27.811 64.0057 32.0675C68.3091 36.2624 70.7604 42.0035 70.8146 48.0134C70.8714 60.6152 60.7406 70.8964 48.1388 71.0246H47.9538V71.0222ZM48.0253 26.6199C42.2324 26.6544 36.6936 29.0071 32.6467 33.1551C28.622 37.1773 26.3778 42.6446 26.4099 48.3364C26.4987 60.0208 36.3458 69.8187 47.9464 69.8187H48.1018C60.0501 69.7102 69.6654 59.9691 69.621 48.0208C69.5668 42.3265 67.2437 36.8912 63.1648 32.9183C59.1623 28.8788 53.7097 26.61 48.0253 26.6199Z" fill="#0B5A9D"/>
<path d="M30.3334 54.8939V41.5745H33.5739V42.7681H31.855V53.725H33.5739V54.9186L30.3334 54.8939Z" fill="#0B5A9D"/>
<path d="M41.3298 48.1022C41.3298 50.5313 39.8551 51.9148 37.8576 51.9148C35.86 51.9148 34.5283 50.3562 34.5283 48.228C34.5283 46.0011 35.9241 44.4326 37.9661 44.4326C40.008 44.4326 41.3298 46.0676 41.3298 48.1022ZM35.9241 48.2107C35.9241 49.6854 36.664 50.8544 37.934 50.8544C39.2041 50.8544 39.934 49.6608 39.934 48.1564C39.934 46.7902 39.2608 45.5004 37.934 45.5004C36.6073 45.5004 35.9118 46.7483 35.9118 48.2403L35.9241 48.2107Z" fill="#0B5A9D"/>
<path d="M42.4519 44.6841C43.0857 44.5756 43.7293 44.5213 44.373 44.5238C45.0956 44.4523 45.8231 44.6151 46.4495 44.9825C46.9279 45.2636 47.2164 45.7815 47.2016 46.3364C47.1844 47.0614 46.7035 47.6952 46.008 47.9048C46.8588 48.0775 47.4704 48.8272 47.4704 49.6952C47.4803 50.2723 47.2214 50.8247 46.7725 51.1872C46.2596 51.641 45.4063 51.8605 44.0869 51.8605C43.5444 51.8629 43.0018 51.8309 42.4642 51.7643L42.4519 44.6841ZM43.7639 47.5423H44.4371C45.3496 47.5423 45.8625 47.1132 45.8625 46.4992C45.8625 45.8851 45.3496 45.5078 44.5086 45.5078C44.2571 45.5004 44.0056 45.5176 43.7565 45.562L43.7639 47.5423ZM43.7639 50.8716C43.9957 50.8962 44.23 50.9061 44.4618 50.9012C45.3101 50.9012 46.0598 50.5781 46.0598 49.7076C46.0598 48.837 45.3323 48.514 44.4199 48.514H43.7639V50.8716V50.8716Z" fill="#0B5A9D"/>
<path d="M50.0771 44.5879H51.3965V49.2957C51.3965 51.2957 50.4298 51.964 49.0093 51.964C48.6295 51.9616 48.2522 51.8974 47.8946 51.7741L48.0549 50.7112C48.3188 50.7951 48.595 50.837 48.8736 50.8419C49.6258 50.8419 50.0672 50.4967 50.0672 49.2439L50.0771 44.5879Z" fill="#0B5A9D"/>
<path d="M55.1499 48.509V49.4215H52.4052V48.509H55.1499Z" fill="#0B5A9D"/>
<path d="M61.5593 51.6115C60.965 51.8482 60.3287 51.9568 59.6925 51.9346C57.3941 51.9346 55.9983 50.4968 55.9983 48.2946C55.8922 46.2872 57.4335 44.5732 59.4409 44.4672C59.5815 44.4598 59.7246 44.4598 59.8651 44.4697C60.4792 44.445 61.0883 44.5535 61.6555 44.7927L61.362 45.8433C60.9132 45.6534 60.4299 45.5572 59.9416 45.5621C58.4668 45.5621 57.4064 46.4869 57.4064 48.2305C57.4064 49.8186 58.3435 50.8445 59.9317 50.8445C60.4249 50.8519 60.9132 50.7607 61.3694 50.5757L61.5593 51.6115Z" fill="#0B5A9D"/>
<path d="M65.6999 41.5374V54.8913H62.4595V53.6977H64.1784V42.7309H62.4595V41.5374H65.6999Z" fill="#0B5A9D"/>
</svg>
