<svg width="96" height="96" viewBox="0 0 96 96" fill="none" xmlns="http://www.w3.org/2000/svg">
<path d="M44 2.30935C46.4752 0.880283 49.5248 0.880284 52 2.30935L85.5692 21.6905C88.0444 23.1196 89.5692 25.7606 89.5692 28.6187V67.3811C89.5692 70.2393 88.0444 72.8803 85.5692 74.3093L52 93.6905C49.5248 95.1196 46.4752 95.1196 44 93.6905L10.4308 74.3093C7.95558 72.8803 6.43079 70.2393 6.43079 67.3811V28.6187C6.43079 25.7606 7.95558 23.1196 10.4308 21.6905L44 2.30935Z" fill="white"/>
<path fill-rule="evenodd" clip-rule="evenodd" d="M84.1907 22.9024L51.5701 4.06896C49.3322 2.77689 46.575 2.77689 44.337 4.06896L11.7165 22.9024C9.47853 24.1945 8.09991 26.5824 8.09991 29.1665V66.8335C8.09991 69.4176 9.47853 71.8055 11.7165 73.0975L44.337 91.931C46.575 93.2231 49.3322 93.2231 51.5701 91.931L84.1907 73.0975C86.4286 71.8055 87.8072 69.4176 87.8072 66.8335V29.1665C87.8072 26.5824 86.4286 24.1945 84.1907 22.9024ZM53.1201 1.38436C49.923 -0.461454 45.9841 -0.461455 42.7871 1.38436L10.1665 20.2178C6.96946 22.0637 5 25.4749 5 29.1665V66.8335C5 70.5251 6.96946 73.9363 10.1665 75.7821L42.7871 94.6156C45.9841 96.4614 49.923 96.4614 53.1201 94.6156L85.7406 75.7821C88.9377 73.9363 90.9071 70.5251 90.9071 66.8335V29.1665C90.9071 25.4749 88.9377 22.0637 85.7406 20.2178L53.1201 1.38436Z" fill="#ED6E0D"/>
<path d="M48.9594 63.8223C48.8988 63.4094 49.0165 62.9986 48.8921 62.6112C48.7857 62.2731 48.5416 62.2421 48.3813 61.9672C47.9588 61.2462 47.5222 60.312 47.4819 59.4291C47.4451 58.6361 47.1534 57.9197 47.1137 57.1337C47.0945 56.7544 47.1392 56.3633 47.1255 55.9878C47.1183 55.8052 47.1079 55.6469 47.0716 55.4485C47.0626 55.3995 47.0302 55.1978 47.0151 55.1169L47.1137 54.871C47.0702 54.7866 47.9551 54.8147 48.2189 54.8165C48.6669 54.822 49.0881 54.8452 49.5349 54.8666C50.4477 54.9119 51.2792 54.9006 52.1682 54.7634C54.149 54.4575 55.0597 53.6486 55.5257 53.3123C57.3444 52.0009 58.1774 49.8568 58.1774 49.8568C58.4775 49.187 58.4764 47.9922 59.1197 47.4572C59.8779 46.8255 61.1511 46.871 62.0215 46.4833C62.5306 46.2581 62.8979 46.134 63.4184 46.2418C63.8046 46.3224 64.4999 46.7698 64.6596 46.1418C64.5306 46.0586 64.4801 45.9064 64.4111 45.822C65.1287 45.751 64.4248 44.0864 64.1409 43.7539C63.7025 43.2407 62.971 43.0055 62.1928 42.7991C61.2685 42.5541 60.43 42.2714 59.5596 42.4422C58.0397 42.7396 58.1534 41.8698 57.2578 41.8698C56.183 41.8698 54.2705 41.9226 53.94 42.9675C53.786 43.4555 53.6274 43.4758 53.3607 43.8501C53.1325 44.1708 53.4004 44.4538 53.2859 44.8197C53.1676 45.1957 52.9939 46.5202 52.8127 46.9823C52.5062 47.7643 52.1409 48.7408 51.4665 48.7408C50.521 48.8539 49.7779 48.8901 49.011 48.6118C48.5494 48.4442 47.7759 48.1818 47.3932 48.0206C45.628 47.2775 45.3381 46.4645 45.3381 46.4645C45.1487 46.1514 44.6498 45.6466 44.463 44.9878C44.2578 44.2624 43.9113 43.6573 43.7709 43.2798C43.6257 42.8887 43.2783 42.2621 43.0055 41.5848C42.6561 40.7176 42.1647 40.0705 41.8049 39.7492C41.2551 39.2592 40.7478 38.5007 39.6318 38.7211C39.4323 38.7605 38.7075 38.7933 38.1519 39.2592C37.7753 39.5753 37.6564 40.2273 37.3076 40.7773C37.1061 41.0951 36.7518 42.0067 36.4268 42.7672C36.2015 43.2943 36.0965 43.6895 35.853 43.8835C35.6625 44.0354 35.4265 44.2317 35.1409 44.1247C34.9638 44.0583 34.7744 43.9458 34.5834 43.7965C34.3253 43.595 33.7388 42.5967 33.3784 41.8594C33.0661 41.2201 32.3995 40.2641 32.0139 39.7466C31.459 39.002 31.1337 38.8133 30.3137 38.8133C28.5547 38.8133 28.4216 39.7982 27.6477 41.2305C27.3079 41.8597 27.1841 42.8582 26.5019 43.6408C26.1119 44.0884 24.8675 45.9293 24.0023 46.2421V46.2331L24 46.2421V59.3639L24.0023 59.3822V59.2998C24.0583 59.1287 24.1177 58.9646 24.1853 58.8179C24.5199 58.105 25.2963 57.4433 25.7277 56.7112C25.9623 56.3123 26.2299 55.9214 26.3853 55.5028C26.519 55.1421 26.5848 54.6042 26.7779 54.2914C27.0145 53.9078 27.385 53.7773 27.7654 53.7153C28.3613 53.617 28.8675 54.5718 29.6297 54.9232C29.9548 55.0725 31.4509 55.6022 31.9 55.7109C32.6396 55.8878 33.4601 56.0354 34.2111 56.187C34.6132 56.2682 34.9977 56.3155 35.4117 56.3575C35.7831 56.3946 37.1745 56.4407 37.2607 56.5413C36.5535 56.902 36.1389 57.9145 35.8733 58.6309C35.5964 59.3775 35.4033 60.2085 35.0687 60.9388C34.6979 61.7457 33.9203 62.0815 34.013 63.0218C34.0487 63.3969 34.1171 63.7904 34.0545 64.2033C33.9878 64.6379 33.8121 64.9771 33.6843 65.4027C33.5202 65.958 33.3247 67.7512 33.0716 68.2784L34.619 68.0844L34.6216 68.0835C34.7907 67.6817 34.9464 65.9852 35.0012 65.8237C35.2905 64.973 35.6744 64.2731 36.265 63.6153C36.8408 62.9742 36.811 62.1479 37.1473 61.401C37.5115 60.5892 38.0012 59.94 38.4633 59.1769C39.2986 57.7971 39.8495 56.0551 41.6254 55.7008C41.815 55.6617 42.9023 56.4456 43.3847 56.9119C43.9374 57.443 44.541 58.0583 44.904 58.7907C45.6068 60.2102 46.203 62.2665 46.4285 63.4004C46.5581 64.0516 46.6614 64.0905 47.1018 64.6063C47.3044 64.8426 47.7089 65.581 47.842 65.8646C47.9817 66.1673 48.1943 66.8562 48.3636 67.2079C48.4633 67.4172 48.7219 68.0603 48.9101 68.6158L50.356 68.5706C50.3613 68.5828 50.3876 68.5671 50.3937 68.5784C50.3943 68.5784 50.3952 68.5782 50.3958 68.5779C50.3897 68.5668 50.3842 68.5541 50.3789 68.5422C49.6585 67.0963 49.1974 65.4233 48.9594 63.8223Z" fill="white"/>
<path d="M48.3638 67.207C48.1945 66.8553 47.9823 66.1664 47.8422 65.8637C47.7091 65.5802 47.3047 64.842 47.102 64.6054C46.6613 64.0896 46.5584 64.0507 46.4288 63.3995C46.2035 62.2656 45.6071 60.209 44.9043 58.7898C44.5413 58.0574 43.9376 57.4421 43.385 56.911C42.9025 56.445 41.8153 55.6608 41.6256 55.6999C39.8498 56.0545 39.2989 57.7962 38.4636 59.176C38.0014 59.9391 37.5117 60.5883 37.1475 61.4001C36.8112 62.1467 36.8411 62.9733 36.2652 63.6144C35.6746 64.2725 35.2908 64.9724 35.0014 65.8228C34.9466 65.9843 34.7909 67.6808 34.6219 68.0826C34.6219 68.0829 34.6216 68.0832 34.6216 68.0835L37.2612 67.8976C39.7205 68.0652 39.0104 69.0078 42.8492 68.8025L48.9106 68.6149C48.7222 68.0594 48.4636 67.4163 48.3638 67.207Z" fill="url(#paint0_linear)"/>
<path d="M65.9528 27H30.0496C26.7101 27 24.0029 29.7077 24.0029 33.0473V46.2325V46.2415C24.8681 45.9287 26.1125 44.0879 26.5025 43.6402C27.1847 42.8573 27.3085 41.8588 27.6483 41.2299C28.4222 39.7976 28.5553 38.8127 30.3143 38.8127C31.1343 38.8127 31.4599 39.0017 32.0145 39.746C32.4004 40.2636 33.067 41.2198 33.379 41.8588C33.7391 42.5964 34.3259 43.5944 34.584 43.7959C34.775 43.9455 34.9644 44.0577 35.1415 44.1241C35.4268 44.2311 35.6628 44.0348 35.8536 43.8829C36.0972 43.6889 36.2021 43.2937 36.4274 42.7666C36.7527 42.0061 37.1067 41.0948 37.3082 40.7767C37.657 40.227 37.7759 39.5747 38.1525 39.2586C38.7081 38.7927 39.4329 38.7599 39.6324 38.7205C40.7484 38.5001 41.2558 39.2586 41.8055 39.7486C42.1653 40.0699 42.657 40.717 43.0061 41.5842C43.279 42.2615 43.6263 42.8881 43.7716 43.2792C43.9119 43.6567 44.2584 44.2618 44.4636 44.9872C44.6501 45.646 45.1491 46.1508 45.3387 46.4639C45.3387 46.4639 45.6289 47.2769 47.3938 48.02C47.7765 48.1812 48.55 48.4433 49.0116 48.6112C49.7785 48.8898 50.5213 48.8536 51.4671 48.7402C52.1415 48.7402 52.5068 47.7637 52.8133 46.9817C52.9945 46.5196 53.1682 45.1951 53.2865 44.8191C53.401 44.4532 53.1331 44.1702 53.3613 43.8495C53.628 43.4752 53.7866 43.4549 53.9406 42.9669C54.2714 41.922 56.1836 41.8692 57.2584 41.8692C58.1543 41.8692 58.0403 42.7391 59.5602 42.4416C60.4306 42.2708 61.2694 42.5538 62.1934 42.7985C62.9716 43.0049 63.7031 43.2401 64.1415 43.7533C64.4254 44.0855 65.1291 45.7504 64.4117 45.8214C64.4807 45.9058 64.5312 46.058 64.6602 46.1412C64.5005 46.7692 63.8052 46.3218 63.419 46.2412C62.8986 46.1334 62.5312 46.2575 62.0221 46.4827C61.1517 46.8704 59.8785 46.8252 59.1204 47.4567C58.477 47.9919 58.4781 49.1867 58.1781 49.8562C58.1781 49.8562 57.3451 52 55.5263 53.3117C55.0603 53.648 54.1496 54.4569 52.1688 54.7628C51.2798 54.9003 50.4483 54.9116 49.5355 54.866C49.0888 54.8446 48.6675 54.8217 48.2195 54.8159C47.9557 54.8139 47.0705 54.7857 47.1143 54.8704L47.0157 55.1163C47.0311 55.1972 47.0632 55.3992 47.0722 55.448C47.1085 55.6466 47.1186 55.8049 47.1262 55.9872C47.1398 56.3627 47.0951 56.7541 47.1143 57.1331C47.154 57.9191 47.4457 58.6355 47.4825 59.4285C47.5228 60.3114 47.9594 61.2456 48.3819 61.9667C48.5422 62.2412 48.7863 62.2725 48.8928 62.6106C49.0174 62.998 48.8994 63.4088 48.96 63.8217C49.1978 65.4224 49.6588 67.0957 50.3796 68.5404C50.3845 68.5523 50.3903 68.5654 50.3964 68.5761C50.3964 68.5761 50.3964 68.5764 50.3967 68.5767C51.2868 68.4271 52.1786 68.107 53.3352 67.9359C55.4558 67.6213 58.4051 67.7834 60.2995 67.606C65.0931 67.1554 67.6947 69.572 72 68.5816V33.0476C71.9995 29.7077 69.2932 27 65.9528 27ZM48.0415 55.3853C48.0348 55.3128 48.038 55.323 48.0482 55.3676L48.0415 55.3853Z" fill="url(#paint1_linear)"/>
<path d="M35.0684 60.9381C35.403 60.2081 35.5961 59.3768 35.873 58.6302C36.1386 57.9138 36.5532 56.9013 37.2603 56.5406C37.1742 56.44 35.7828 56.3939 35.4114 56.3568C34.9974 56.3148 34.6129 56.2675 34.2108 56.1863C33.4598 56.0347 32.6393 55.8874 31.8997 55.7102C31.4505 55.6015 29.9545 55.0718 29.6294 54.9225C28.8672 54.5711 28.361 53.6163 27.7651 53.7146C27.3847 53.7766 27.0142 53.9071 26.7776 54.2907C26.5845 54.6035 26.5187 55.1411 26.385 55.5021C26.2299 55.9207 25.962 56.3116 25.7274 56.7105C25.296 57.4423 24.5196 58.1043 24.185 58.8172C24.1177 58.9639 24.058 59.128 24.002 59.2991V59.3814V62.0344V66.7665V67.4502C24.3923 67.5168 24.8005 67.5989 25.2575 67.721C28.6297 68.6209 29.4526 68.6969 32.7602 68.3188L33.0704 68.2776V68.2773C33.3236 67.7502 33.519 65.957 33.6831 65.4017C33.8109 64.9761 33.9866 64.6369 34.0533 64.2023C34.1162 63.7894 34.0475 63.3959 34.0119 63.0208C33.92 62.0808 34.6976 61.745 35.0684 60.9381Z" fill="url(#paint2_linear)"/>
<defs>
<linearGradient id="paint0_linear" x1="41.7661" y1="55.6984" x2="41.7661" y2="68.8316" gradientUnits="userSpaceOnUse">
<stop stop-color="#F29100"/>
<stop offset="1" stop-color="#EC670F"/>
</linearGradient>
<linearGradient id="paint1_linear" x1="48.0015" y1="26.9999" x2="48.0015" y2="68.8221" gradientUnits="userSpaceOnUse">
<stop stop-color="#F29100"/>
<stop offset="1" stop-color="#EC670F"/>
</linearGradient>
<linearGradient id="paint2_linear" x1="30.6312" y1="53.7074" x2="30.6312" y2="68.5333" gradientUnits="userSpaceOnUse">
<stop stop-color="#F29100"/>
<stop offset="1" stop-color="#EC670F"/>
</linearGradient>
</defs>
</svg>
