<svg xmlns="http://www.w3.org/2000/svg" width="125.777" height="140.554" fill="none" viewBox="0 0 125.777 140.554"><path fill="#fff" d="M56.897 2.297a12.05 12.05 0 0 1 11.982 0l50.278 28.836a11.89 11.89 0 0 1 5.99 10.308v57.671c0 4.253-2.283 8.182-5.99 10.308l-50.278 28.836a12.05 12.05 0 0 1-11.982 0L6.62 109.42A11.89 11.89 0 0 1 .629 99.112V41.441c0-4.252 2.284-8.182 5.99-10.308z" style="fill:#1698f9;fill-opacity:1;stroke-width:1.49277"/><path fill="#dd4b39" fill-rule="evenodd" d="M115.943 33.531 68.183 5.957a10.59 10.59 0 0 0-10.59 0L9.833 33.531a10.59 10.59 0 0 0-5.294 9.172V97.85a10.59 10.59 0 0 0 5.295 9.171l47.76 27.574a10.59 10.59 0 0 0 10.59 0l47.76-27.574a10.59 10.59 0 0 0 5.294-9.171V42.703a10.59 10.59 0 0 0-5.295-9.172M70.453 2.027a15.13 15.13 0 0 0-15.129 0L7.564 29.6A15.13 15.13 0 0 0 0 42.703V97.85c0 5.405 2.883 10.4 7.564 13.102l47.76 27.574a15.13 15.13 0 0 0 15.129 0l47.76-27.574a15.13 15.13 0 0 0 7.564-13.102V42.703c0-5.405-2.884-10.4-7.565-13.102z" clip-rule="evenodd" style="fill:#f36;fill-opacity:1;stroke-width:1.4641"/><g style="clip-rule:evenodd;fill:#fff;fill-opacity:1;fill-rule:evenodd;stroke-linejoin:round;stroke-miterlimit:2"><path d="M430.516 1595.76c-16.576-11.38-29.677-22.4-29.677-22.4l426.286-738.348s17.547 6.508 32.041 13.457c18.27 8.757 33.403 17.294 33.403 17.294 206.631 119.3 277.541 383.917 158.241 590.547-119.303 206.64-383.92 277.54-590.554 158.24 0 0-14.473-8.32-29.74-18.79m426.027-667.598L496.282 1552.15c172.195 99.42 392.709 40.33 492.126-131.86 99.412-172.2 40.332-392.71-131.865-492.128M321.659 1487.36c-14.487-20.98-19.644-31.04-19.644-31.04-74.475-129.36-79.937-293.86.003-432.32s225.128-215.977 374.397-216.161c0 0 20.153-.052 36.933 1.555 25.28 2.422 42.087 5.684 42.087 5.684L347.771 1521.17s-9.671-10.01-26.112-33.81m311.632-604.828c-108.638 13.203-209.994 75.512-268.874 177.498-58.88 101.98-62.162 220.91-19.278 321.6z" style="fill:#fff;fill-opacity:1" transform="translate(5.62 -34.722)scale(.08467)"/></g></svg>