<svg xmlns="http://www.w3.org/2000/svg" width="96" height="96" fill="none">
    <path fill="#fff" d="M44 2.31a8 8 0 0 1 8 0l33.57 19.38a8 8 0 0 1 4 6.929V67.38a8 8 0 0 1-4 6.928L52 93.691a8 8 0 0 1-8 0L10.43 74.309a8 8 0 0 1-4-6.928V28.62a8 8 0 0 1 4-6.928z"/>
    <path fill="#3A3C5B" fill-rule="evenodd" d="M84.19 22.902 51.57 4.07a7.23 7.23 0 0 0-7.233 0l-32.62 18.833A7.23 7.23 0 0 0 8.1 29.166v37.668a7.23 7.23 0 0 0 3.617 6.263l32.62 18.834a7.23 7.23 0 0 0 7.233 0l32.62-18.833a7.23 7.23 0 0 0 3.617-6.264V29.166a7.23 7.23 0 0 0-3.616-6.264M53.12 1.384a10.33 10.33 0 0 0-10.333 0l-32.62 18.834A10.33 10.33 0 0 0 5 29.167v37.667c0 3.691 1.97 7.102 5.166 8.948l32.621 18.834a10.33 10.33 0 0 0 10.333 0l32.62-18.834a10.33 10.33 0 0 0 5.167-8.948V29.166c0-3.691-1.97-7.102-5.166-8.948z" clip-rule="evenodd" style="fill:#3a3c5b;fill-opacity:1"/>
    <path fill="#fff" d="M72.014 47.949c0 13.254-10.744 23.999-23.997 23.999s-23.997-10.745-23.997-24c0-13.254 10.743-23.998 23.997-23.998s23.997 10.744 23.997 23.999m0 0" style="stroke-width:.159986"/>
    <path fill="#0073a1" d="M48.462 23.953a24.029 24.03 0 0 0-10.017 1.998C26.282 31.253 20.719 45.412 26.02 57.577c4.486 10.222 15.42 16.008 26.395 13.965.468-1.491.851-3.127.851-4.91q0-.379-.02-.767s.858-1.465 1.534-3.372c.837-2.359.394-4.956-1.056-7.012-.085-.112-.169-.239-.26-.366-8.538 0-12.762-7.743-13.832-12.452-.443-1.935-.803-2.128-2.011-2.128-2.237 0-3.85-.927-3.85-.927-2.054.94-2.972.557-2.697-.425-.894-.098-.875-1.113-.33-2.046.68-1.17 2.075-1.964 3.744-1.964h.893c1.844 0 2.224-.964 4.125-.76q.443.044.823.14c.528-.604 1.126-.858 1.852-.809a.183.183 0 0 1 .162.218l-.177.817a.88.88 0 0 0 .24.824c1.534 1.436 2.414 3.885 3.4 6.096 1.597 3.259 5.454 7.785 11.642 1.978 4.35-4.084 6.978-7.489 11.298-7.823a24.02 24.02 0 0 0-20.285-11.9M38.26 35.773c-.633 0-1.265.509-1.05.6.048.02.13.034.222.045a.85.85 0 0 0 .832.718c.424 0 .76-.313.825-.718a1 1 0 0 0 .222-.045c.215-.091-.417-.6-1.05-.6m22.442 23.1a1.2 1.2 0 0 0-1.129.839v.006c-.767 2.464-2.259 5.646-2.259 5.646s-1.485 2.63-2.325 5.575a24.157 24.159 0 0 0 2.654-.938 24.093 24.095 0 0 0 4.774-2.782 15.518 15.52 0 0 0-.8-1.411s-.492-2.19-1.435-4.576q.214-.594.401-1.197l.007-.028c.028-.057.092-.077.162-.077h.007c.493.077 1.013.155 1.619.225q.276.02.563.049c.232.021.457.042.69.056.055 2.215 1.016 4.332 1.26 4.837a24.029 24.03 0 0 0 4.418-5.957c-1.71.195-3.804.261-6.266.015a15.518 15.52 0 0 0-.59-.056 35.515 35.518 0 0 1-1.528-.211 1.3 1.3 0 0 0-.223-.014" style="stroke-width:.159986;fill:#3a3c5b;fill-opacity:1"/>
</svg>
