<svg width="96" height="96" viewBox="0 0 96 96" fill="none" xmlns="http://www.w3.org/2000/svg">
<path d="M44 2.30935C46.4752 0.880283 49.5248 0.880284 52 2.30935L85.5692 21.6905C88.0444 23.1196 89.5692 25.7606 89.5692 28.6187V67.3811C89.5692 70.2393 88.0444 72.8803 85.5692 74.3093L52 93.6905C49.5248 95.1196 46.4752 95.1196 44 93.6905L10.4308 74.3093C7.95558 72.8803 6.43079 70.2393 6.43079 67.3811V28.6187C6.43079 25.7606 7.95558 23.1196 10.4308 21.6905L44 2.30935Z" fill="white"/>
<path fill-rule="evenodd" clip-rule="evenodd" d="M84.1907 22.9024L51.5701 4.06896C49.3322 2.77689 46.575 2.77689 44.337 4.06896L11.7165 22.9024C9.47853 24.1945 8.09991 26.5824 8.09991 29.1665V66.8335C8.09991 69.4176 9.47853 71.8055 11.7165 73.0975L44.337 91.931C46.575 93.2231 49.3322 93.2231 51.5701 91.931L84.1907 73.0975C86.4286 71.8055 87.8072 69.4176 87.8072 66.8335V29.1665C87.8072 26.5824 86.4286 24.1945 84.1907 22.9024ZM53.1201 1.38436C49.923 -0.461454 45.9841 -0.461455 42.7871 1.38436L10.1665 20.2178C6.96946 22.0637 5 25.4749 5 29.1665V66.8335C5 70.5251 6.96946 73.9363 10.1665 75.7821L42.7871 94.6156C45.9841 96.4614 49.923 96.4614 53.1201 94.6156L85.7406 75.7821C88.9377 73.9363 90.9071 70.5251 90.9071 66.8335V29.1665C90.9071 25.4749 88.9377 22.0637 85.7406 20.2178L53.1201 1.38436Z" fill="#2B98D8"/>
<path fill-rule="evenodd" clip-rule="evenodd" d="M54.2624 66.2899C54.2396 66.2651 54.2727 66.2589 54.2603 66.2361C54.312 66.2031 54.3472 66.2279 54.3741 66.2734C54.3348 66.3106 54.2996 66.3168 54.2624 66.2899" fill="#2B98D8"/>
<path fill-rule="evenodd" clip-rule="evenodd" d="M54.0432 66.3353C54.0018 66.3208 53.9418 66.2215 53.9625 66.176C53.979 66.178 53.9976 66.1739 54.0204 66.1594C54.0742 66.1905 54.1383 66.3042 54.0432 66.3353" fill="#2B98D8"/>
<path fill-rule="evenodd" clip-rule="evenodd" d="M54.5438 65.9722C54.4963 65.995 54.4591 65.9784 54.457 65.9349C54.4818 65.9204 54.5087 65.908 54.5273 65.9142C54.5438 65.937 54.5459 65.9556 54.5438 65.9722" fill="#2B98D8"/>
<path fill-rule="evenodd" clip-rule="evenodd" d="M50.6649 67.7649C50.6132 67.8106 50.5822 67.8065 50.5428 67.7587C50.4994 67.7857 50.487 67.8252 50.4415 67.8522C50.4042 67.7525 50.4539 67.6839 50.5408 67.6258C50.5553 67.6632 50.5842 67.6777 50.6256 67.6902C50.667 67.5573 50.7725 67.5905 50.8925 67.5552C50.8945 67.6237 50.9587 67.713 50.9525 67.7795C50.8676 67.8605 50.7228 67.9124 50.6628 67.7649" fill="#2B98D8"/>
<path fill-rule="evenodd" clip-rule="evenodd" d="M54.4405 65.823C54.3826 65.8563 54.3102 65.8251 54.2833 65.7815C54.215 65.6569 54.424 65.5115 54.5026 65.6029C54.5626 65.6735 54.4902 65.794 54.4405 65.823Z" fill="#2B98D8"/>
<path fill-rule="evenodd" clip-rule="evenodd" d="M49.3204 68.315C49.2997 68.2819 49.3059 68.257 49.3369 68.2405C49.3493 68.2446 49.3597 68.2591 49.3679 68.2777C49.3597 68.2922 49.3473 68.3067 49.3204 68.315Z" fill="#2B98D8"/>
<path fill-rule="evenodd" clip-rule="evenodd" d="M49.4752 68.1964C49.4587 68.1984 49.4483 68.186 49.4318 68.1902C49.4421 68.1467 49.4566 68.1033 49.5063 68.0723C49.5373 68.126 49.4938 68.1571 49.4752 68.1964Z" fill="#2B98D8"/>
<path fill-rule="evenodd" clip-rule="evenodd" d="M50.7332 67.5282C50.76 67.4326 50.7931 67.3392 50.8965 67.2686C50.9502 67.3745 50.8097 67.4139 50.8117 67.5012C50.7828 67.5157 50.7538 67.5365 50.7332 67.5282Z" fill="#2B98D8"/>
<path fill-rule="evenodd" clip-rule="evenodd" d="M65.6115 59.7703C65.5598 59.7124 65.4336 59.733 65.4294 59.6213C65.4998 59.6462 65.5639 59.6772 65.6115 59.7703Z" fill="#2B98D8"/>
<path fill-rule="evenodd" clip-rule="evenodd" d="M51.0559 67.1871C51.0352 67.2037 51.0249 67.1954 51.0083 67.1975C51.0021 67.154 51.0125 67.1478 50.9752 67.1085C51.0104 67.1023 50.9959 67.0796 51.0228 67.0713C51.06 67.1189 51.0145 67.1396 51.0559 67.1871Z" fill="#2B98D8"/>
<path fill-rule="evenodd" clip-rule="evenodd" d="M49.8519 67.7746C49.8167 67.7498 49.8188 67.7187 49.8043 67.6773C49.8395 67.638 49.9098 67.5801 49.9636 67.5967C49.976 67.6215 49.9884 67.6463 50.0008 67.6711C49.9884 67.7208 49.916 67.7911 49.8519 67.7746" fill="#2B98D8"/>
<path fill-rule="evenodd" clip-rule="evenodd" d="M51.5604 66.8634C51.5438 66.8696 51.5232 66.8882 51.5128 66.8737C51.4818 66.8427 51.5645 66.8116 51.5604 66.8634Z" fill="#2B98D8"/>
<path fill-rule="evenodd" clip-rule="evenodd" d="M51.3538 66.9548C51.2586 66.9112 51.1738 66.959 51.0766 66.9631C51.0435 66.9839 51.0456 67.0192 51.0393 67.0483C50.9856 67.015 51.0869 66.9569 51.0125 66.8863C51.0538 66.7388 51.2648 66.6994 51.3435 66.826C51.3641 66.8738 51.3393 66.9091 51.3538 66.9548Z" fill="#2B98D8"/>
<path fill-rule="evenodd" clip-rule="evenodd" d="M50.638 67.264C50.6235 67.2268 50.6318 67.1958 50.6753 67.1792C50.6919 67.2227 50.6898 67.2661 50.638 67.264Z" fill="#2B98D8"/>
<path fill-rule="evenodd" clip-rule="evenodd" d="M65.6695 59.5377C65.5743 59.5439 65.5433 59.5025 65.4543 59.5129C65.4398 59.4735 65.4129 59.428 65.4543 59.4053C65.4936 59.5501 65.6074 59.4611 65.6695 59.5377" fill="#2B98D8"/>
<path fill-rule="evenodd" clip-rule="evenodd" d="M51.5337 66.7286C51.5689 66.6497 51.5441 66.5521 51.5006 66.4503C51.5772 66.3734 51.7013 66.3527 51.782 66.3464C51.813 66.3901 51.8647 66.4399 51.8689 66.4918C51.7551 66.5458 51.6827 66.6351 51.5854 66.5957C51.5648 66.6351 51.633 66.7452 51.5337 66.7307" fill="#2B98D8"/>
<path fill-rule="evenodd" clip-rule="evenodd" d="M52.6633 66.0722C52.655 66.0514 52.6384 66.0556 52.6302 66.0348C52.5929 66.0784 52.5578 66.1241 52.5081 66.1636C52.3881 66.0992 52.506 65.9787 52.5702 65.9164C52.5929 65.9455 52.6239 65.9476 52.6405 66.0016C52.5971 65.8832 52.7894 65.7773 52.8329 65.958C52.8184 66.0431 52.715 66.012 52.6633 66.0722" fill="#2B98D8"/>
<path fill-rule="evenodd" clip-rule="evenodd" d="M49.8456 67.497C49.7918 67.3288 50.1022 66.9944 50.1684 67.2914C50.1166 67.3163 50.0566 67.3662 50.0297 67.308C49.9428 67.362 49.9201 67.4389 49.8435 67.497" fill="#2B98D8"/>
<path fill-rule="evenodd" clip-rule="evenodd" d="M54.1425 65.2077C54.1259 65.1601 54.1797 65.1208 54.2149 65.1167C54.219 65.1312 54.2273 65.1353 54.2376 65.1333C54.279 65.2036 54.1901 65.2843 54.1425 65.2098" fill="#2B98D8"/>
<path fill-rule="evenodd" clip-rule="evenodd" d="M49.3696 67.5636C49.3717 67.4618 49.4193 67.1981 49.5765 67.3102C49.5703 67.4161 49.4482 67.4826 49.3696 67.5636Z" fill="#2B98D8"/>
<path fill-rule="evenodd" clip-rule="evenodd" d="M52.5867 65.8953C52.5722 65.9077 52.5639 65.8953 52.5494 65.9015C52.5225 65.8643 52.5184 65.8312 52.5266 65.8064C52.5763 65.8022 52.5846 65.854 52.5867 65.8953Z" fill="#2B98D8"/>
<path fill-rule="evenodd" clip-rule="evenodd" d="M51.3019 66.4565C51.2957 66.3671 51.3701 66.2051 51.5045 66.2467C51.5749 66.3505 51.3805 66.4855 51.3019 66.4565Z" fill="#2B98D8"/>
<path fill-rule="evenodd" clip-rule="evenodd" d="M59.5417 62.13C59.5624 62.099 59.5935 62.07 59.6473 62.0493C59.8314 62.0969 59.6038 62.3245 59.5417 62.13Z" fill="#2B98D8"/>
<path fill-rule="evenodd" clip-rule="evenodd" d="M53.4431 65.3096C53.4286 65.2641 53.4659 65.2331 53.5114 65.2083C53.6107 65.2683 53.5052 65.3986 53.4431 65.3096Z" fill="#2B98D8"/>
<path fill-rule="evenodd" clip-rule="evenodd" d="M48.7556 67.7544C48.7329 67.7709 48.7142 67.773 48.6977 67.7709C48.6873 67.7275 48.7329 67.7089 48.7556 67.7544Z" fill="#2B98D8"/>
<path fill-rule="evenodd" clip-rule="evenodd" d="M53.0543 65.5212C53.0129 65.4633 53.0274 65.424 53.0854 65.3992C53.1516 65.4364 53.1351 65.5337 53.0543 65.5212Z" fill="#2B98D8"/>
<path fill-rule="evenodd" clip-rule="evenodd" d="M65.357 59.2119C65.3156 59.2325 65.2949 59.185 65.2721 59.1477C65.3135 59.1208 65.3653 59.1684 65.357 59.2119Z" fill="#2B98D8"/>
<path fill-rule="evenodd" clip-rule="evenodd" d="M54.9555 64.4564C54.8851 64.338 54.9348 64.2134 55.061 64.1885C55.1789 64.2965 55.1168 64.5187 54.9555 64.4564Z" fill="#2B98D8"/>
<path fill-rule="evenodd" clip-rule="evenodd" d="M50.735 66.6365C50.7143 66.5558 50.7702 66.4627 50.8674 66.4482C50.9067 66.5496 50.8385 66.5993 50.735 66.6365Z" fill="#2B98D8"/>
<path fill-rule="evenodd" clip-rule="evenodd" d="M51.4325 66.0534C51.5111 66.1589 51.3808 66.25 51.327 66.1879C51.2835 66.1382 51.3332 66.0307 51.4325 66.0534Z" fill="#2B98D8"/>
<path fill-rule="evenodd" clip-rule="evenodd" d="M50.6442 66.5892C50.6297 66.6016 50.6214 66.5892 50.609 66.5954C50.5987 66.5685 50.5904 66.5437 50.6297 66.5312C50.6586 66.5395 50.64 66.5644 50.6442 66.5892" fill="#2B98D8"/>
<path fill-rule="evenodd" clip-rule="evenodd" d="M49.8785 66.9528C49.7399 66.8593 49.8723 66.6496 50.0213 66.5977C50.0316 66.7347 50.0088 66.8614 49.8785 66.9528Z" fill="#2B98D8"/>
<path fill-rule="evenodd" clip-rule="evenodd" d="M53.015 65.3121C52.9674 65.3328 52.9054 65.256 52.986 65.2311C53.0046 65.1916 52.9488 65.1293 53.0005 65.1023C53.0232 65.1231 53.0481 65.1355 53.0667 65.175C52.9943 65.2207 53.0212 65.2477 53.015 65.31" fill="#2B98D8"/>
<path fill-rule="evenodd" clip-rule="evenodd" d="M51.517 66.0093C51.5087 65.9927 51.4984 65.9741 51.4901 65.9555C51.5087 65.9162 51.5708 65.91 51.608 65.8955C51.6617 65.9617 51.5728 66.0031 51.517 66.0093" fill="#2B98D8"/>
<path fill-rule="evenodd" clip-rule="evenodd" d="M54.1156 64.6016C54.1425 64.5726 54.1425 64.583 54.1756 64.585C54.19 64.6181 54.1259 64.645 54.1156 64.6016Z" fill="#2B98D8"/>
<path fill-rule="evenodd" clip-rule="evenodd" d="M52.6984 65.2456C52.7253 65.2311 52.7563 65.2083 52.7791 65.2187C52.8473 65.318 52.6922 65.3593 52.6984 65.2456Z" fill="#2B98D8"/>
<path fill-rule="evenodd" clip-rule="evenodd" d="M51.3411 65.9783C51.3514 65.9369 51.3721 65.8997 51.4362 65.877C51.5541 65.9183 51.4072 66.061 51.3411 65.9783Z" fill="#2B98D8"/>
<path fill-rule="evenodd" clip-rule="evenodd" d="M51.0062 66.19C50.9855 66.1279 51.0083 66.0783 51.0786 66.0452C51.1345 66.1196 51.0559 66.1507 51.0062 66.19Z" fill="#2B98D8"/>
<path fill-rule="evenodd" clip-rule="evenodd" d="M52.6031 65.3199C52.5783 65.3219 52.5576 65.3137 52.5389 65.2992C52.5182 65.2599 52.5451 65.2371 52.5907 65.2185C52.5969 65.233 52.6031 65.2371 52.6114 65.233C52.6424 65.2744 52.6052 65.2909 52.601 65.3178" fill="#2B98D8"/>
<path fill-rule="evenodd" clip-rule="evenodd" d="M52.955 65.1145C52.9426 65.1207 52.9261 65.129 52.9137 65.1352C52.893 65.1041 52.8992 65.0814 52.9344 65.071C52.9406 65.0855 52.9488 65.0979 52.9571 65.1145" fill="#2B98D8"/>
<path fill-rule="evenodd" clip-rule="evenodd" d="M49.6987 66.6018C49.767 66.7057 49.6697 66.7597 49.5601 66.8053C49.5332 66.714 49.6511 66.6683 49.6987 66.6018Z" fill="#2B98D8"/>
<path fill-rule="evenodd" clip-rule="evenodd" d="M51.1695 65.9304C51.1261 65.887 51.153 65.8146 51.2275 65.7815C51.3062 65.8311 51.2586 65.9077 51.1695 65.9304Z" fill="#2B98D8"/>
<path fill-rule="evenodd" clip-rule="evenodd" d="M51.5316 65.6672C51.484 65.6506 51.4798 65.5945 51.4302 65.5447C51.4529 65.5115 51.4985 65.4471 51.5564 65.4533C51.5999 65.5405 51.5254 65.5904 51.5316 65.6672Z" fill="#2B98D8"/>
<path fill-rule="evenodd" clip-rule="evenodd" d="M49.6411 66.5101C49.5935 66.5329 49.579 66.4605 49.6204 66.4419C49.6556 66.4522 49.6473 66.4874 49.6411 66.5101Z" fill="#2B98D8"/>
<path fill-rule="evenodd" clip-rule="evenodd" d="M51.0456 65.7667C51.0187 65.7833 50.998 65.7854 50.9856 65.7564C50.9918 65.744 51.0042 65.7315 51.0228 65.7253C51.029 65.7378 51.0373 65.7543 51.0435 65.7667" fill="#2B98D8"/>
<path fill-rule="evenodd" clip-rule="evenodd" d="M50.1022 66.2339C50.096 66.2091 50.0981 66.1843 50.1395 66.176C50.1436 66.1864 50.1499 66.1988 50.1561 66.2071C50.1499 66.2277 50.1229 66.2422 50.1022 66.2339Z" fill="#2B98D8"/>
<path fill-rule="evenodd" clip-rule="evenodd" d="M48.6437 66.9502C48.6292 66.9254 48.6168 66.9006 48.6209 66.8799C48.5754 66.9151 48.5444 66.9006 48.5155 66.882C48.4989 66.8509 48.5175 66.8282 48.5155 66.8013C48.563 66.7971 48.6044 66.8013 48.6334 66.8489C48.6706 66.8302 48.7037 66.8344 48.7388 66.822C48.805 66.8964 48.7037 66.944 48.6437 66.9502Z" fill="#2B98D8"/>
<path fill-rule="evenodd" clip-rule="evenodd" d="M50.4786 65.8641C50.4579 65.8186 50.5055 65.7958 50.5532 65.7751C50.5967 65.8248 50.5242 65.8703 50.4786 65.8641Z" fill="#2B98D8"/>
<path fill-rule="evenodd" clip-rule="evenodd" d="M49.3386 66.3687C49.3262 66.319 49.3055 66.2694 49.3221 66.228C49.3841 66.1908 49.4296 66.197 49.4606 66.1846C49.471 66.2342 49.4834 66.2259 49.5082 66.2818C49.4834 66.348 49.4048 66.3749 49.3386 66.3687" fill="#2B98D8"/>
<path fill-rule="evenodd" clip-rule="evenodd" d="M51.4013 65.3012C51.3433 65.2288 51.4157 65.1584 51.4695 65.1998C51.5026 65.2557 51.4592 65.3012 51.4013 65.3012Z" fill="#2B98D8"/>
<path fill-rule="evenodd" clip-rule="evenodd" d="M52.5515 64.6345C52.5308 64.589 52.5391 64.5538 52.5453 64.5166C52.5867 64.4917 52.5929 64.5704 52.626 64.5704C52.6405 64.6055 52.5826 64.6159 52.5515 64.6345Z" fill="#2B98D8"/>
<path fill-rule="evenodd" clip-rule="evenodd" d="M50.7124 65.5321C50.6917 65.5466 50.6793 65.5383 50.6648 65.5425C50.6586 65.5218 50.671 65.5094 50.6979 65.499C50.7021 65.5094 50.7083 65.5218 50.7145 65.5321" fill="#2B98D8"/>
<path fill-rule="evenodd" clip-rule="evenodd" d="M48.8277 66.4396C48.8174 66.4458 48.805 66.45 48.7946 66.4562C48.7884 66.4438 48.7801 66.4272 48.7739 66.4148C48.8008 66.3962 48.8174 66.4107 48.8277 66.4396" fill="#2B98D8"/>
<path fill-rule="evenodd" clip-rule="evenodd" d="M49.076 65.9496C49.1071 65.9268 49.1236 65.9496 49.1567 65.9226C49.2539 65.9745 49.4256 66.1428 49.2498 66.2113C49.1298 66.2591 49.0284 66.0784 49.0781 65.9496" fill="#2B98D8"/>
<path fill-rule="evenodd" clip-rule="evenodd" d="M48.5405 66.533C48.5115 66.4834 48.5798 66.4917 48.6088 66.4834C48.6254 66.5082 48.5591 66.5496 48.5405 66.533Z" fill="#2B98D8"/>
<path fill-rule="evenodd" clip-rule="evenodd" d="M48.2297 66.6906C48.2111 66.6989 48.1946 66.7092 48.178 66.7175C48.1366 66.701 48.0746 66.6472 48.0746 66.5955C48.1284 66.5913 48.1718 66.6058 48.2194 66.6161C48.2421 66.6472 48.2256 66.6658 48.2297 66.6906Z" fill="#2B98D8"/>
<path fill-rule="evenodd" clip-rule="evenodd" d="M53.1928 64.1026C53.1804 64.0985 53.1721 64.0778 53.1556 64.082C53.1308 64.024 53.1473 63.9806 53.1928 63.9434C53.2569 63.962 53.2921 64.084 53.1928 64.1047" fill="#2B98D8"/>
<path fill-rule="evenodd" clip-rule="evenodd" d="M52.144 64.5971C52.1171 64.5619 52.0446 64.5578 52.0488 64.5122C52.1005 64.4771 52.1357 64.4998 52.1812 64.4854C52.2247 64.5412 52.2123 64.5784 52.144 64.5971Z" fill="#2B98D8"/>
<path fill-rule="evenodd" clip-rule="evenodd" d="M53.0916 64.0885C53.0812 64.0947 53.0709 64.1009 53.0605 64.105C53.0439 64.0781 53.0419 64.0575 53.0709 64.0471C53.0771 64.0616 53.0854 64.0761 53.0916 64.0885Z" fill="#2B98D8"/>
<path fill-rule="evenodd" clip-rule="evenodd" d="M46.1137 67.6235C46.0826 67.638 46.0474 67.6649 46.0226 67.6566C45.9936 67.6152 46.0578 67.6028 46.093 67.5801C46.1013 67.5966 46.1075 67.609 46.1137 67.6235Z" fill="#2B98D8"/>
<path fill-rule="evenodd" clip-rule="evenodd" d="M50.6668 65.0443C50.7164 65.1149 50.6978 65.1627 50.7164 65.2209C50.5468 65.4494 50.4144 64.9779 50.6668 65.0443Z" fill="#2B98D8"/>
<path fill-rule="evenodd" clip-rule="evenodd" d="M50.0669 65.5255C50.0503 65.5028 50.0462 65.4841 50.0503 65.4676C50.0648 65.4593 50.0793 65.4531 50.0938 65.4448C50.1228 65.4862 50.1041 65.509 50.0669 65.5255" fill="#2B98D8"/>
<path fill-rule="evenodd" clip-rule="evenodd" d="M50.7225 64.4897C50.7722 64.5147 50.7722 64.5853 50.7453 64.6144C50.8673 64.766 50.8673 65.0796 50.6253 64.9591C50.5322 64.795 50.6563 64.6331 50.7246 64.4918" fill="#2B98D8"/>
<path fill-rule="evenodd" clip-rule="evenodd" d="M50.518 65.0669C50.5118 65.071 50.5036 65.0731 50.4974 65.0772C50.4932 65.0669 50.487 65.069 50.4808 65.071C50.4767 65.0627 50.4725 65.0565 50.4705 65.0503C50.4787 65.0483 50.4787 65.0421 50.4767 65.0338C50.4849 65.0296 50.4912 65.0255 50.4974 65.0234C50.5015 65.0338 50.5077 65.0317 50.5139 65.0276C50.5181 65.0358 50.5222 65.0421 50.5243 65.0483C50.5139 65.0503 50.516 65.0565 50.518 65.0648" fill="#2B98D8"/>
<path fill-rule="evenodd" clip-rule="evenodd" d="M51.2731 64.6532C51.24 64.6035 51.2483 64.5684 51.2834 64.5415C51.3952 64.5353 51.3517 64.6739 51.2731 64.6532Z" fill="#2B98D8"/>
<path fill-rule="evenodd" clip-rule="evenodd" d="M46.2191 67.2475C46.1943 67.262 46.1695 67.2744 46.1488 67.2682C46.1426 67.2393 46.1777 67.2248 46.1963 67.2041C46.2025 67.2186 46.2108 67.231 46.217 67.2455" fill="#2B98D8"/>
<path fill-rule="evenodd" clip-rule="evenodd" d="M52.7067 63.9081C52.595 63.8603 52.5495 63.6568 52.624 63.5862C52.7336 63.6215 52.8826 63.8313 52.7067 63.9081Z" fill="#2B98D8"/>
<path fill-rule="evenodd" clip-rule="evenodd" d="M48.6416 65.8891C48.6292 65.8581 48.6126 65.8747 48.6209 65.8457C48.6581 65.8167 48.6892 65.8767 48.6416 65.8891Z" fill="#2B98D8"/>
<path fill-rule="evenodd" clip-rule="evenodd" d="M55.1872 62.4808C55.15 62.427 55.2016 62.4022 55.2575 62.3794C55.3298 62.4518 55.243 62.5263 55.1872 62.4808Z" fill="#2B98D8"/>
<path fill-rule="evenodd" clip-rule="evenodd" d="M51.2503 64.5288C51.2131 64.5557 51.182 64.5599 51.1593 64.535C51.1407 64.4978 51.1676 64.473 51.2131 64.4543C51.2358 64.4606 51.2586 64.5061 51.2503 64.5288" fill="#2B98D8"/>
<path fill-rule="evenodd" clip-rule="evenodd" d="M47.3673 66.311C47.3735 66.2862 47.417 66.2738 47.4314 66.3048C47.4252 66.3296 47.3777 66.3503 47.3673 66.311Z" fill="#2B98D8"/>
<path fill-rule="evenodd" clip-rule="evenodd" d="M50.6731 64.3666C50.6814 64.3397 50.7042 64.319 50.7476 64.3025C50.8387 64.3583 50.7166 64.4432 50.6731 64.3666Z" fill="#2B98D8"/>
<path fill-rule="evenodd" clip-rule="evenodd" d="M45.1767 67.173C45.1332 67.1978 45.0919 67.2143 45.0691 67.175C45.1105 67.1543 45.1601 67.1109 45.1767 67.173Z" fill="#2B98D8"/>
<path fill-rule="evenodd" clip-rule="evenodd" d="M50.3629 64.4724C50.3318 64.4124 50.3318 64.3607 50.367 64.3234C50.4125 64.3193 50.4518 64.3338 50.4787 64.3875C50.4725 64.431 50.4146 64.4972 50.3608 64.4744" fill="#2B98D8"/>
<path fill-rule="evenodd" clip-rule="evenodd" d="M50.1188 64.5705C50.0981 64.5374 50.1458 64.5084 50.1727 64.5187C50.1789 64.5291 50.183 64.5394 50.1872 64.5498C50.181 64.5705 50.1333 64.5994 50.1188 64.5705Z" fill="#2B98D8"/>
<path fill-rule="evenodd" clip-rule="evenodd" d="M50.5655 64.3418C50.551 64.317 50.549 64.2942 50.5614 64.2777C50.5861 64.259 50.6027 64.2756 50.6151 64.3045C50.6068 64.319 50.5944 64.3314 50.5676 64.3418" fill="#2B98D8"/>
<path fill-rule="evenodd" clip-rule="evenodd" d="M43.5773 67.7481C43.5628 67.7564 43.5484 67.7626 43.5339 67.7688C43.5297 67.7564 43.5215 67.7523 43.5132 67.7523C43.4987 67.715 43.569 67.6985 43.5773 67.7461" fill="#2B98D8"/>
<path fill-rule="evenodd" clip-rule="evenodd" d="M48.4386 65.1707C48.4304 65.1562 48.4242 65.1417 48.418 65.1293C48.4469 65.1107 48.4759 65.0983 48.4883 65.1334C48.48 65.1479 48.4676 65.1603 48.4407 65.1707" fill="#2B98D8"/>
<path fill-rule="evenodd" clip-rule="evenodd" d="M53.2859 62.643C53.2694 62.6182 53.288 62.6016 53.2797 62.5789C53.3025 62.5789 53.3273 62.5789 53.3377 62.6161C53.3315 62.6368 53.3046 62.6492 53.2839 62.643" fill="#2B98D8"/>
<path fill-rule="evenodd" clip-rule="evenodd" d="M49.9408 64.2708C49.9222 64.2046 49.8932 64.1364 49.9615 64.0991C50.0629 64.1322 50.096 64.2646 49.9408 64.2708Z" fill="#2B98D8"/>
<path fill-rule="evenodd" clip-rule="evenodd" d="M49.8167 64.1862C49.7815 64.2151 49.7504 64.1572 49.796 64.1448C49.825 64.1572 49.8022 64.1593 49.8167 64.1862Z" fill="#2B98D8"/>
<path fill-rule="evenodd" clip-rule="evenodd" d="M47.8141 65.127C47.8059 65.1125 47.7997 65.098 47.7935 65.0836C47.8203 65.067 47.841 65.065 47.8514 65.0939C47.8452 65.1063 47.8328 65.1187 47.8141 65.127Z" fill="#2B98D8"/>
<path fill-rule="evenodd" clip-rule="evenodd" d="M50.2512 63.7748C50.2016 63.7997 50.1643 63.7872 50.1375 63.7376C50.1499 63.7045 50.1912 63.7169 50.2181 63.7107C50.2285 63.7314 50.2388 63.7521 50.2512 63.7748Z" fill="#2B98D8"/>
<path fill-rule="evenodd" clip-rule="evenodd" d="M50.3193 63.403C50.309 63.3678 50.3152 63.3367 50.3565 63.3181C50.4268 63.3595 50.3793 63.4568 50.3193 63.403Z" fill="#2B98D8"/>
<path fill-rule="evenodd" clip-rule="evenodd" d="M47.0796 65.0565C47.0486 65.0772 47.0279 65.071 47.0134 65.0358C47.03 65.0296 47.0424 65.0213 47.0569 65.0151C47.0652 65.0296 47.0714 65.0441 47.0776 65.0586" fill="#2B98D8"/>
<path fill-rule="evenodd" clip-rule="evenodd" d="M47.1809 64.8301C47.2016 64.797 47.2699 64.797 47.2926 64.8404C47.274 64.8694 47.1995 64.8818 47.1809 64.8301Z" fill="#2B98D8"/>
<path fill-rule="evenodd" clip-rule="evenodd" d="M49.2105 63.808C49.1939 63.7811 49.1898 63.7605 49.2209 63.748C49.2312 63.7543 49.2416 63.7605 49.2478 63.7749C49.2416 63.7894 49.2292 63.7998 49.2105 63.808Z" fill="#2B98D8"/>
<path fill-rule="evenodd" clip-rule="evenodd" d="M48.5608 64.1405C48.5029 64.1736 48.4181 64.1674 48.416 64.1198C48.4595 64.0929 48.4967 64.0908 48.5339 64.0867C48.5422 64.1032 48.5525 64.1218 48.5608 64.1405Z" fill="#2B98D8"/>
<path fill-rule="evenodd" clip-rule="evenodd" d="M48.925 63.5902C48.9354 63.5362 48.9416 63.4843 48.9664 63.4365C49.1236 63.4968 49.0574 63.7564 48.925 63.5902Z" fill="#2B98D8"/>
<path fill-rule="evenodd" clip-rule="evenodd" d="M46.9968 64.6822C46.8892 64.707 46.8354 64.5747 46.7548 64.5229C46.8416 64.5498 46.9699 64.5643 46.9968 64.6822Z" fill="#2B98D8"/>
<path fill-rule="evenodd" clip-rule="evenodd" d="M47.4439 64.2671C47.388 64.3002 47.3114 64.2816 47.3093 64.2402C47.3549 64.2133 47.3921 64.2009 47.4273 64.2071C47.4438 64.2299 47.4459 64.2485 47.4439 64.2671" fill="#2B98D8"/>
<path fill-rule="evenodd" clip-rule="evenodd" d="M42.1643 66.8673C42.214 66.8384 42.2781 66.8073 42.3505 66.8135C42.3319 66.8777 42.2036 66.9108 42.1643 66.8673Z" fill="#2B98D8"/>
<path fill-rule="evenodd" clip-rule="evenodd" d="M48.3935 63.3094C48.3831 63.3156 48.3728 63.3197 48.3624 63.3259C48.3314 63.2866 48.35 63.2618 48.3231 63.2246C48.3686 63.2018 48.3893 63.2742 48.3935 63.3094Z" fill="#2B98D8"/>
<path fill-rule="evenodd" clip-rule="evenodd" d="M47.4334 63.6131C47.4852 63.6111 47.541 63.6173 47.5617 63.6545C47.6321 63.7807 47.4024 63.7476 47.4334 63.6131Z" fill="#2B98D8"/>
<path fill-rule="evenodd" clip-rule="evenodd" d="M49.5954 62.2922C49.6243 62.3317 49.6078 62.3566 49.6036 62.3836C49.7071 62.4272 49.6719 62.6079 49.5561 62.583C49.4713 62.4916 49.4981 62.3213 49.5974 62.2922" fill="#2B98D8"/>
<path fill-rule="evenodd" clip-rule="evenodd" d="M44.5849 64.9173C44.5684 64.8987 44.5787 64.8863 44.5725 64.8697C44.6015 64.8573 44.6221 64.8656 44.6387 64.8904C44.6284 64.9215 44.6118 64.9049 44.5849 64.9173" fill="#2B98D8"/>
<path fill-rule="evenodd" clip-rule="evenodd" d="M57.6468 58.2089C57.6199 58.2358 57.6158 58.1944 57.6055 58.1757C57.6158 58.1695 57.6262 58.1654 57.6365 58.1592C57.651 58.1799 57.6427 58.1902 57.6468 58.2068" fill="#2B98D8"/>
<path fill-rule="evenodd" clip-rule="evenodd" d="M43.4863 65.3449C43.4181 65.3822 43.3684 65.3615 43.3291 65.3035C43.3808 65.2725 43.3725 65.2746 43.4077 65.2498C43.447 65.2767 43.476 65.287 43.4843 65.3449" fill="#2B98D8"/>
<path fill-rule="evenodd" clip-rule="evenodd" d="M49.1671 62.2694C49.0947 62.2029 49.0926 62.0908 49.0967 62.0222C49.1753 62.0575 49.2912 62.2486 49.1671 62.2694Z" fill="#2B98D8"/>
<path fill-rule="evenodd" clip-rule="evenodd" d="M52.1812 60.7034C52.0818 60.6016 52.1356 60.4749 52.1211 60.3711C52.1853 60.4355 52.295 60.6639 52.1812 60.7034Z" fill="#2B98D8"/>
<path fill-rule="evenodd" clip-rule="evenodd" d="M44.3532 64.2006C44.2601 64.2192 44.1732 64.2089 44.1008 64.1551C44.1753 64.1634 44.2643 64.1282 44.3367 64.1427C44.3512 64.1655 44.3553 64.1841 44.3511 64.2006" fill="#2B98D8"/>
<path fill-rule="evenodd" clip-rule="evenodd" d="M46.0969 63.245C46.0658 63.2222 46.0369 63.1974 46.0369 63.154C46.0886 63.125 46.1134 63.1685 46.1445 63.2057C46.1362 63.2202 46.1238 63.2347 46.0969 63.2429" fill="#2B98D8"/>
<path fill-rule="evenodd" clip-rule="evenodd" d="M46.7921 62.6346C46.759 62.647 46.7114 62.6139 46.7218 62.5767C46.7466 62.5622 46.7631 62.5788 46.7859 62.5726C46.8107 62.6015 46.7859 62.6139 46.7921 62.6367" fill="#2B98D8"/>
<path fill-rule="evenodd" clip-rule="evenodd" d="M46.8066 62.3169C46.7673 62.35 46.7342 62.2982 46.7425 62.2693C46.7735 62.261 46.8191 62.2734 46.8066 62.3169Z" fill="#2B98D8"/>
<path fill-rule="evenodd" clip-rule="evenodd" d="M48.4576 61.4215C48.441 61.4339 48.4327 61.4215 48.4203 61.4277C48.383 61.405 48.3458 61.3181 48.4099 61.3015C48.4513 61.3408 48.4493 61.3719 48.4596 61.4236" fill="#2B98D8"/>
<path fill-rule="evenodd" clip-rule="evenodd" d="M47.1273 61.0771C47.0818 61.1913 47.3341 61.2827 47.2783 61.4302C47.1045 61.4219 47.1355 61.156 47.0052 61.0709C47.0176 61.0626 47.0032 61.046 46.999 61.0335C47.0466 60.9982 47.0714 61.0273 47.1004 61.0501C47.1211 61.0293 47.0797 60.9899 47.1314 60.9795C47.1686 61.0771 47.3072 61.0833 47.2824 61.1996C47.2017 61.2287 47.1438 61.1664 47.1252 61.0771" fill="#2B98D8"/>
<path fill-rule="evenodd" clip-rule="evenodd" d="M38.124 65.1889C38.0599 65.2179 38.0102 65.2096 37.9626 65.191C37.9027 65.0338 38.1467 65.0214 38.124 65.1889Z" fill="#2B98D8"/>
<path fill-rule="evenodd" clip-rule="evenodd" d="M44.8578 61.3594C44.8185 61.3884 44.773 61.3574 44.7834 61.3181C44.8123 61.316 44.8392 61.3305 44.8578 61.3594Z" fill="#2B98D8"/>
<path fill-rule="evenodd" clip-rule="evenodd" d="M48.1225 59.384C48.1059 59.3882 48.0976 59.3737 48.0811 59.3778C48.0521 59.3261 48.0479 59.2475 48.0955 59.2496C48.1225 59.2992 48.11 59.3385 48.1225 59.384Z" fill="#2B98D8"/>
<path fill-rule="evenodd" clip-rule="evenodd" d="M43.7718 60.9856C43.7449 61.0042 43.7284 60.9898 43.718 60.9608C43.7449 60.9422 43.7656 60.9422 43.7759 60.9691C43.7677 60.9712 43.7677 60.9794 43.7718 60.9836" fill="#2B98D8"/>
<path fill-rule="evenodd" clip-rule="evenodd" d="M47.8205 58.8654C47.686 58.8488 47.686 58.6141 47.6736 58.5227C47.7501 58.5435 47.8556 58.7906 47.8205 58.8654Z" fill="#2B98D8"/>
<path fill-rule="evenodd" clip-rule="evenodd" d="M43.8112 59C43.7987 58.9751 43.7781 58.9772 43.7698 58.942C43.8029 58.9192 43.8236 58.9379 43.8505 58.942C43.8712 58.973 43.8463 58.9875 43.8132 59" fill="#2B98D8"/>
<path fill-rule="evenodd" clip-rule="evenodd" d="M50.3567 54.1382C50.3423 54.1445 50.3298 54.1528 50.3154 54.159C50.2099 54.0427 50.2223 53.8932 50.2161 53.781C50.3174 53.835 50.3381 54.0344 50.3567 54.1382" fill="#2B98D8"/>
<path fill-rule="evenodd" clip-rule="evenodd" d="M51.333 51.1636C51.3019 51.1554 51.2647 51.0705 51.3226 51.0623C51.3682 51.0829 51.333 51.1326 51.333 51.1636Z" fill="#2B98D8"/>
<path fill-rule="evenodd" clip-rule="evenodd" d="M56.031 47.5C56.0021 47.4586 56.0186 47.4317 56.0186 47.3986C56.0559 47.3759 56.0828 47.38 56.1138 47.3779C56.1407 47.4028 56.1696 47.4255 56.1882 47.4731C56.1386 47.5289 56.0931 47.4731 56.029 47.5" fill="#2B98D8"/>
<path fill-rule="evenodd" clip-rule="evenodd" d="M40.5672 54.8693C40.4782 54.8714 40.4534 54.7883 40.4058 54.7094C40.3727 54.6886 40.3023 54.6762 40.3127 54.6076C40.3478 54.5931 40.3706 54.6139 40.3975 54.618C40.381 54.7385 40.5568 54.7406 40.5651 54.8693" fill="#2B98D8"/>
<path fill-rule="evenodd" clip-rule="evenodd" d="M39.4998 55.1454C39.5287 55.1267 39.5577 55.1143 39.5701 55.1516C39.5597 55.1826 39.5101 55.195 39.4998 55.1454Z" fill="#2B98D8"/>
<path fill-rule="evenodd" clip-rule="evenodd" d="M35.6787 54.485C35.6642 54.4933 35.6497 54.4995 35.6373 54.5057C35.6063 54.4747 35.6704 54.425 35.6787 54.485Z" fill="#2B98D8"/>
<path fill-rule="evenodd" clip-rule="evenodd" d="M38.9079 52.2039C38.852 52.1936 38.7175 52.0922 38.7899 52.0239C38.8479 52.0715 38.9079 52.1129 38.9079 52.2039Z" fill="#2B98D8"/>
<path fill-rule="evenodd" clip-rule="evenodd" d="M38.3579 52.3624C38.3475 52.3686 38.3372 52.3728 38.3268 52.379C38.3186 52.3645 38.3124 52.35 38.3062 52.3376C38.331 52.321 38.3475 52.3355 38.3579 52.3624" fill="#2B98D8"/>
<path fill-rule="evenodd" clip-rule="evenodd" d="M46.9453 47.2942C46.9142 47.3087 46.8935 47.29 46.8708 47.2776C46.8791 47.228 46.8459 47.2176 46.8439 47.1721C46.9101 47.1431 46.9577 47.2383 46.9453 47.2942Z" fill="#2B98D8"/>
<path fill-rule="evenodd" clip-rule="evenodd" d="M37.4188 51.9138C37.4622 51.9034 37.4664 51.8662 37.4933 51.8766C37.5532 51.9489 37.4416 52.0048 37.4188 51.9138Z" fill="#2B98D8"/>
<path fill-rule="evenodd" clip-rule="evenodd" d="M28.5272 48.7672C28.792 48.5658 29.094 48.7818 29.0195 49.0539C28.9099 49.1473 28.7796 49.2616 28.641 49.2346C28.581 49.1536 28.4941 49.1432 28.459 49.058C28.4114 48.9479 28.5107 48.869 28.5272 48.7672Z" fill="#2B98D8"/>
<path fill-rule="evenodd" clip-rule="evenodd" d="M32.1556 41.8137C32.2053 41.7516 32.2901 41.795 32.3377 41.8281C32.3894 41.9874 32.1184 41.9833 32.1556 41.8137Z" fill="#2B98D8"/>
<path fill-rule="evenodd" clip-rule="evenodd" d="M32.4827 41.7157C32.4765 41.6971 32.4641 41.7033 32.4558 41.6888C32.4413 41.6247 32.5158 41.5833 32.5634 41.6081C32.5924 41.664 32.549 41.7157 32.4848 41.7157" fill="#2B98D8"/>
<path fill-rule="evenodd" clip-rule="evenodd" d="M29.0591 46.9063C29.0115 46.9353 28.9764 46.9249 28.9515 46.8794C28.964 46.8443 29.0136 46.8505 29.0426 46.8484C29.0591 46.8711 29.0612 46.8898 29.0591 46.9063Z" fill="#2B98D8"/>
<path fill-rule="evenodd" clip-rule="evenodd" d="M30.7923 42.522C30.8233 42.5344 30.8398 42.5964 30.8626 42.6337C30.784 42.8116 30.5979 42.5923 30.7923 42.522Z" fill="#2B98D8"/>
<path fill-rule="evenodd" clip-rule="evenodd" d="M31.0862 40.9042C30.9641 40.8274 31.0821 40.6882 31.0407 40.5782C31.08 40.5761 31.1297 40.5366 31.1628 40.5553C31.2187 40.6986 31.1855 40.8128 31.0842 40.9042" fill="#2B98D8"/>
<path fill-rule="evenodd" clip-rule="evenodd" d="M28.8086 36.6855C28.7755 36.6421 28.7983 36.6172 28.8293 36.5945C28.8852 36.6152 28.8665 36.7041 28.8086 36.6855Z" fill="#2B98D8"/>
<path d="M47.8285 26.2078C41.1961 26.2389 35.1926 28.8226 30.8565 32.9827C27.9644 35.7554 25.8088 39.2363 24.7041 43.1284C24.7165 43.1201 24.7247 43.1118 24.733 43.1035C24.8137 42.9955 24.8054 42.8169 24.9461 42.7629C25.0164 42.6341 25.033 42.4887 25.1075 42.3683C25.1364 42.3226 25.2088 42.2956 25.2316 42.2478C25.2792 42.1523 25.2295 42.0318 25.304 41.9467C25.4447 41.9383 25.515 41.8033 25.6619 41.8054C25.6412 41.9903 25.5254 42.1813 25.4178 42.3205C25.395 42.4596 25.3992 42.6217 25.3309 42.74C25.2812 42.8314 25.1778 42.8979 25.1282 43.008C25.0888 43.0993 25.0992 43.1907 25.064 43.2863C25.0351 43.3652 24.9502 43.4254 24.9296 43.5147C24.9233 43.548 24.942 43.5936 24.9337 43.629C24.8965 43.8055 24.824 44.0215 24.7351 44.1731C24.5675 44.4639 24.3048 44.7173 24.3669 45.0579C24.3317 45.1243 24.2407 45.168 24.22 45.2448C24.2076 45.2843 24.2407 45.3196 24.2365 45.3611C24.2324 45.4359 24.191 45.5044 24.1558 45.573C24.0979 45.9219 24.0503 46.2708 24.011 46.6218C24.0193 46.6363 24.0255 46.6509 24.0359 46.6654C23.9697 46.7838 24.0007 46.8669 24.0834 46.9437C23.9841 47.3446 24.0214 47.7703 24.191 48.0902C24.1227 48.3726 24.0028 48.7527 24.1496 48.9749C23.9924 49.1743 24.1683 49.3841 24.0669 49.5959C24.0586 49.6437 24.1041 49.6686 24.1124 49.7102C24.0524 49.814 24.0876 49.9386 24.1476 50.0217C24.0379 50.2356 24.0048 50.5742 24.069 50.7964C24.0338 51.0207 24.0359 51.3094 24.1248 51.515C24.071 51.6625 24.16 51.7767 24.1538 51.9366C24.1517 51.9927 24.2014 52.1609 24.1931 52.2378C24.1703 52.4476 24.251 52.6615 24.2158 52.8816C24.2531 52.9689 24.2634 53.0685 24.2469 53.1765C24.4413 54.1984 24.7041 55.1974 25.0351 56.1694C25.0413 56.1756 25.0433 56.1818 25.0516 56.1881C25.0495 56.1943 25.0495 56.2005 25.0475 56.2047C25.0661 56.2587 25.0847 56.3127 25.1033 56.3667C25.1095 56.3708 25.1178 56.375 25.1302 56.3771C25.1199 56.4872 25.2254 56.5702 25.2709 56.6741C25.2999 56.7426 25.2978 56.8195 25.3412 56.8859C25.3909 56.9648 25.5088 57.0625 25.546 57.1559C25.575 57.2265 25.5647 57.293 25.5874 57.3698C25.6619 57.4508 25.6867 57.5526 25.7012 57.6585C25.8481 57.7645 25.817 57.9431 25.9163 58.0698C25.8646 58.3273 26.1377 58.4498 26.146 58.6845C26.3156 58.8382 26.2908 59.0501 26.3735 59.2245C26.4025 59.2806 26.5018 59.291 26.5763 59.3408C26.6776 59.4156 26.6714 59.5465 26.7335 59.6316C26.6052 59.8995 26.9549 60.0449 27.2259 60.047C27.3417 60.1591 27.3665 60.3087 27.4162 60.4499C27.4741 60.4977 27.5527 60.5392 27.5424 60.6161C27.7368 60.7012 27.6686 60.8965 27.8568 60.9837C27.8734 61.1332 27.9727 61.2495 28.0658 61.3679C28.0472 61.6005 28.3802 61.6836 28.3761 61.91C28.4009 61.9619 28.4381 62.0076 28.5188 62.0346C28.525 62.2942 28.6161 62.5206 28.6864 62.7532C28.7257 62.7719 28.7485 62.7657 28.7774 62.7719C28.8829 62.9838 29.0215 63.1831 29.1332 63.3929C29.216 63.422 29.2408 63.476 29.3194 63.5071C29.396 63.692 29.5698 63.8789 29.8325 63.9537C29.8573 63.989 29.8656 64.0305 29.8614 64.0762C30.0042 64.2361 30.1428 64.3961 30.3124 64.5435C30.4552 64.5996 30.5586 64.6723 30.6207 64.7595C30.6724 64.7761 30.7034 64.7637 30.7717 64.7741C30.7448 64.8322 30.8689 64.8301 30.8793 64.8717C30.8958 65.0877 31.0861 65.2268 31.293 65.3618C31.3013 65.4034 31.3468 65.4283 31.322 65.4844C31.3861 65.5342 31.4089 65.6007 31.4937 65.6443C31.5557 65.8021 31.6654 65.9413 31.773 66.0804C32.0336 66.3047 32.2984 66.5228 32.5694 66.7367C32.5881 66.7367 32.6067 66.7409 32.6212 66.7367C32.6625 66.8074 32.7494 66.9154 32.8653 66.8946C33.0577 67.0441 33.2376 67.2435 33.5004 67.3598C33.6638 67.4304 33.8562 67.4595 33.9555 67.6028C33.9638 67.5945 33.9803 67.6007 33.9969 67.6049C34.0155 67.6111 34.032 67.6174 34.0403 67.6049C34.2058 67.8001 34.5306 67.8209 34.8161 67.906C34.8533 67.9144 34.8223 67.9538 34.8492 67.9684C34.9795 67.9995 35.0643 68.1054 35.1409 68.1532C35.1678 68.1698 35.2071 68.1657 35.2298 68.1823C35.2443 68.1947 35.2505 68.2321 35.265 68.2446C35.3912 68.3464 35.5774 68.4024 35.6726 68.5457C35.9105 68.633 36.0759 68.8012 36.2849 68.8656C36.3635 69.0151 36.6635 69.0317 36.8 69.1792C37.0917 69.2976 37.4062 69.4326 37.6585 69.607C37.6875 69.6278 37.702 69.6652 37.733 69.6839C37.9233 69.7919 38.1675 69.823 38.2895 69.9975C38.3309 69.9975 38.3847 70.0183 38.424 70.0183C38.4323 70.1014 38.5543 70.1678 38.6681 70.1761C38.7343 70.2301 38.8088 70.28 38.8853 70.3298C41.7133 71.4202 44.8061 72.0163 48.0457 71.9997C54.676 71.9685 60.6816 69.3848 65.0177 65.2247C65.8617 64.4168 66.6396 63.5487 67.3512 62.6265C67.2271 62.7761 67.0968 62.9235 66.9582 63.0689C66.9334 63.2143 66.7058 63.2932 66.6851 63.4407C66.6479 63.4698 66.6479 63.4698 66.6044 63.4822C66.4141 63.6982 66.1989 63.9558 65.9341 64.1593C65.839 64.2341 65.7583 64.3753 65.6735 64.4501C65.6404 64.4771 65.5949 64.4874 65.5638 64.5165C65.539 64.5414 65.5411 64.5768 65.5183 64.6038C65.3735 64.7844 65.1129 64.8634 65.0115 65.069C64.9432 65.0981 64.8915 65.1334 64.875 65.1791C64.8481 65.1832 64.817 65.1957 64.7922 65.1957C64.5646 65.4574 64.2212 65.6422 64.0247 65.8811C64.0061 65.8977 63.9957 65.8935 63.9854 65.8894C63.9771 65.8852 63.9668 65.8831 63.9544 65.8914C63.7268 66.1324 63.3854 66.2736 63.2013 66.5062C63.16 66.5249 63.1227 66.5353 63.0896 66.5394C63.0524 66.554 63.0689 66.5872 63.0338 66.6059C62.7731 66.7077 62.6552 66.9195 62.438 67.0254C62.3056 67.0919 62.1215 67.1002 62.0573 67.2311C61.8773 67.3619 61.6436 67.4055 61.476 67.5281C61.4098 67.5779 61.3622 67.6589 61.294 67.6984C61.2526 67.7233 61.1926 67.7233 61.1512 67.7461C61.116 67.7669 61.1016 67.8209 61.0602 67.8437C60.9774 67.8915 60.7747 67.8458 60.7395 67.9954C60.6795 67.9995 60.6237 67.9974 60.5678 67.9954C60.4685 67.9933 60.3713 67.9912 60.2761 68.012C60.1417 68.0867 60.0465 68.2384 59.8955 68.2965C59.8334 68.3194 59.7631 68.3027 59.6948 68.3318C59.6328 68.3609 59.5645 68.3879 59.4817 68.4149C59.4114 68.4377 59.37 68.4876 59.3142 68.5125C59.2997 68.5208 59.2811 68.5208 59.2624 68.5187C59.2459 68.5187 59.2294 68.5187 59.2169 68.5229C59.0907 68.5707 58.9583 68.6849 58.8073 68.7306C58.708 68.7597 58.6004 68.7784 58.497 68.7991C58.4639 68.8178 58.4536 68.8448 58.4101 68.8573C58.3025 68.8573 58.1184 68.8926 58.0502 69.0027C57.9467 69.0234 57.744 69.0754 57.6426 69.1854C57.5723 69.1771 57.5144 69.2394 57.4337 69.254C57.4254 69.254 57.4151 69.254 57.4047 69.2519C57.3923 69.2498 57.3758 69.2477 57.3675 69.2498C57.2413 69.2789 57.1358 69.3724 57.022 69.3994C56.993 69.4077 56.9599 69.4014 56.9289 69.3952C56.8979 69.389 56.8668 69.3827 56.8379 69.389C56.6848 69.4243 56.5503 69.524 56.3848 69.5302C56.36 69.551 56.3393 69.5717 56.3145 69.5946C56.12 69.6278 55.88 69.7026 55.6773 69.7005C55.5904 69.7981 55.4891 69.796 55.398 69.7794C55.367 69.7088 55.456 69.607 55.5387 69.6278C55.6132 69.5385 55.7021 69.5074 55.7994 69.5074C55.8345 69.4824 55.8552 69.4513 55.8842 69.4264C56.0145 69.4367 56.151 69.362 56.2855 69.337C56.3021 69.335 56.3186 69.337 56.3352 69.337C56.3538 69.3391 56.3724 69.3412 56.389 69.337C56.4614 69.3142 56.5276 69.254 56.6165 69.2062C56.8317 69.0961 57.1254 69.0587 57.293 68.9507C57.5537 68.7846 58.0067 68.689 58.2798 68.446C58.5218 68.417 58.7039 68.2591 58.9563 68.1387C59.0039 68.1304 58.9645 68.0971 58.9914 68.0805C59.1631 68.1034 59.3266 67.9414 59.521 67.8375C59.55 67.8209 59.5997 67.8126 59.6286 67.796C59.7176 67.7378 59.7817 67.6444 59.8624 67.6007C59.9348 67.5592 60.0155 67.5613 60.0755 67.5156C60.1044 67.4948 60.1148 67.4491 60.1458 67.4284C60.2099 67.3827 60.2823 67.3827 60.3506 67.3494C60.3941 67.3266 60.4189 67.2809 60.4582 67.256C60.5285 67.2103 60.5989 67.2041 60.6609 67.1521C60.7106 67.1085 60.7416 67.0441 60.8037 67.0005C61.0271 66.8427 61.3064 66.7534 61.4739 66.5311C61.507 66.5166 61.5443 66.4854 61.5712 66.4937C61.5981 66.4688 61.6229 66.4439 61.6312 66.4107C61.7594 66.3961 61.7863 66.2445 61.9125 66.23C62.3656 65.8748 62.7421 65.4553 63.2634 65.1043C63.2965 65.0752 63.2924 65.0358 63.3296 65.0067C63.5841 64.8904 63.6378 64.6349 63.9026 64.4937C63.944 64.4667 63.9254 64.4231 63.9544 64.3898C64.0826 64.3421 64.1343 64.2237 64.2026 64.1468C64.2874 64.0471 64.4095 63.9786 64.4819 63.8872C64.5067 63.8581 64.5191 63.8104 64.5419 63.7792C64.5957 63.7148 64.6743 63.6754 64.7239 63.611C64.786 63.5279 64.8046 63.4074 64.9225 63.368C64.9246 63.2517 65.0942 63.1914 65.0322 63.0544C65.1149 62.9588 65.1997 62.8716 65.3115 62.7698C65.2908 62.6224 65.5535 62.5642 65.5432 62.4188C65.568 62.4105 65.5907 62.4105 65.6156 62.4084C65.6425 62.3295 65.7128 62.2651 65.7769 62.1966C65.808 62.0948 65.9093 62.0554 65.9797 61.991C66.1886 61.7978 66.2941 61.5278 66.4906 61.3305C66.5175 61.3077 66.4762 61.2641 66.4948 61.2391C66.5258 61.2288 66.561 61.2142 66.5961 61.1997C66.592 61.1623 66.5879 61.1228 66.5817 61.0792C66.4886 61.1083 66.5734 61.1955 66.4969 61.2308C66.4451 61.1187 66.5051 60.9712 66.6023 60.8798C66.5941 60.8404 66.6024 60.803 66.5817 60.7573C66.6189 60.7095 66.6582 60.6638 66.6644 60.6078C66.6355 60.5911 66.6086 60.6015 66.5796 60.614C66.5548 60.6244 66.5279 60.6348 66.4989 60.6244C66.4575 60.6451 66.4782 60.6888 66.4513 60.7158C66.2527 60.8051 66.1783 60.965 66.1059 61.1208C65.8597 61.2911 65.6755 61.5569 65.5163 61.7854C65.3011 61.9121 65.146 62.1094 65.0239 62.2921C64.9515 62.3295 64.8791 62.3399 64.8274 62.4064C64.8129 62.4271 64.8191 62.4687 64.8005 62.4874C64.7446 62.5414 64.6639 62.5351 64.6246 62.6161C64.5439 62.6224 64.5026 62.6681 64.4157 62.6826C64.2564 62.8363 64.0164 62.9568 63.8261 63.1063C63.793 63.1894 63.6999 63.2184 63.6461 63.2766C63.5696 63.3618 63.551 63.4594 63.4661 63.53C63.4454 63.5466 63.4103 63.5508 63.3917 63.5674C63.3317 63.6276 63.3048 63.6941 63.2489 63.7356C63.191 63.7771 63.1082 63.7668 63.0358 63.8166C62.9779 63.8561 62.9572 63.9267 62.9138 63.9724C62.8352 63.9744 62.8 64.016 62.7814 64.0824C62.68 64.0492 62.5952 64.1925 62.4566 64.2611C62.4338 64.2714 62.3759 64.2839 62.3656 64.2943C62.2787 64.3691 62.3076 64.5165 62.2435 64.583C62.016 64.5851 61.9828 64.9381 61.7491 64.8509C61.7491 64.9506 61.6208 64.9132 61.5588 64.9485C61.5153 64.9734 61.507 65.0212 61.4574 65.0399C61.4284 65.0503 61.3995 65.0482 61.3705 65.0441C61.3353 65.042 61.2981 65.0378 61.265 65.0565C61.1905 65.096 61.1988 65.1521 61.1326 65.2185C60.9588 65.1957 60.6423 65.2871 60.632 65.501C60.5782 65.5114 60.5037 65.5051 60.4623 65.5591C60.3899 65.5093 60.2948 65.5301 60.1996 65.5487C60.1396 65.5612 60.0775 65.5757 60.0237 65.5674C59.972 65.6381 59.8644 65.7149 59.8045 65.6111C59.639 65.6173 59.4404 65.7294 59.3038 65.6526C58.7701 65.8042 58.286 66.149 57.7461 66.284C57.7171 66.1365 57.6592 65.9537 57.7047 65.8084C57.7233 65.7502 57.7771 65.69 57.7978 65.6235C57.8288 65.5363 57.8288 65.4221 57.866 65.3618C57.9157 65.2829 58.0295 65.2497 58.0729 65.1624C58.0481 65.0482 58.1536 65.042 58.1308 64.9589C58.0729 64.7595 57.4957 65.0358 57.6468 65.2704C57.6902 65.3369 57.7523 65.3037 57.8081 65.3784C57.7564 65.5654 57.6695 65.7377 57.5661 65.906C57.413 65.9766 57.4295 66.1137 57.3158 66.1822C57.2516 66.2196 57.0985 66.1884 57.0861 66.2861C57.0592 66.4771 57.4275 66.5311 57.3364 66.7243C57.3095 66.7367 57.2868 66.7367 57.2661 66.7347C57.2454 66.7326 57.2227 66.7305 57.1978 66.743C57.173 66.7097 57.1792 66.689 57.1709 66.662C56.9972 66.5353 56.8089 66.4584 56.5917 66.473C56.5689 66.4314 56.5503 66.4169 56.511 66.3671C56.4634 66.3878 56.5089 66.4377 56.4965 66.4688C56.4324 66.5145 56.3724 66.5602 56.3414 66.6142C56.2938 66.6246 56.2483 66.6246 56.1924 66.6641C55.9235 66.5685 55.6049 66.6308 55.3298 66.5519C55.2408 66.4522 55.1891 66.1884 55.0505 66.2632C54.9739 66.3047 54.9988 66.4294 55.0463 66.5477C54.7753 66.5 54.2995 66.7222 54.1464 66.9943C54.1464 66.9341 54.1278 66.9216 54.0823 66.8925C54.0471 66.9071 54.0368 66.9299 54.0182 66.9507C54.0368 67.0213 54.0844 67.0005 54.1154 67.0358C54.1009 67.0607 54.0699 67.0815 54.0885 67.1168C54.0285 67.1168 54.0078 67.1334 53.9292 67.1729C53.8982 67.1895 53.9416 67.2311 53.9292 67.2518C53.8775 67.2871 53.7927 67.2747 53.743 67.3349C53.7223 67.3847 53.7492 67.4076 53.7823 67.4637C53.7679 67.5218 53.7451 67.5758 53.6872 67.6215C53.6582 67.7087 53.6727 67.8126 53.6582 67.906C53.5403 67.9954 53.4927 68.1075 53.4575 68.2238C53.3231 68.3401 53.2817 68.365 53.0976 68.4357C53.0872 68.4149 53.0748 68.392 53.0645 68.3713C53.0417 68.3692 53.0252 68.3796 53.0086 68.39C52.99 68.4024 52.9714 68.417 52.9466 68.4045C52.9197 68.338 52.9776 68.3007 52.9238 68.228C52.8307 68.2342 52.8535 68.336 52.8038 68.3837C52.7459 68.3464 52.6797 68.3713 52.6135 68.3962C52.5307 68.4253 52.4501 68.4544 52.3921 68.3671C52.3466 68.3775 52.3756 68.4107 52.3384 68.419C52.3094 68.3775 52.2535 68.4149 52.2204 68.3734C52.1894 68.4045 52.1253 68.3941 52.1253 68.4232C51.9515 68.3921 51.7612 68.4107 51.5522 68.4855C51.5233 68.4564 51.484 68.4564 51.455 68.4274C51.3454 68.4647 51.2523 68.4502 51.1592 68.4357C51.093 68.4274 51.0288 68.4149 50.9585 68.4232C50.9357 68.3941 50.9771 68.3837 50.9461 68.3484C50.8592 68.3775 50.7971 68.4564 50.7061 68.4045C50.7082 68.365 50.7682 68.3422 50.7744 68.3027C50.6958 68.2363 50.6544 68.3796 50.6296 68.417C50.3772 68.5354 50.1951 68.4419 49.9469 68.5499C49.8559 68.4897 49.7586 68.4523 49.6366 68.4917C49.5538 68.4357 49.4525 68.4419 49.3407 68.4668C49.1939 68.4232 49.0304 68.4253 48.8753 68.3962C48.8629 68.3671 48.8505 68.3422 48.8318 68.338C48.5836 68.2342 48.3333 68.2508 48.0354 68.2737C48.0126 68.2342 47.9692 68.255 47.9505 68.2093C47.9278 68.2259 47.9195 68.2467 47.8802 68.257C47.6816 68.1345 47.4313 68.1594 47.1893 68.1657C47.1789 68.1387 47.1644 68.1137 47.1458 68.1075C46.7858 68.041 46.4259 67.9725 46.0928 67.8251C46.0556 67.8521 46.037 67.8292 46.0018 67.8562C45.9604 67.8167 45.9066 67.823 45.8611 67.7939C45.6584 67.8458 45.4598 67.8188 45.2364 67.8562C45.2095 67.8354 45.1784 67.8354 45.1557 67.8043C45.1122 67.8167 45.1122 67.8437 45.075 67.8583C45.0564 67.8209 45.0378 67.8292 45.0129 67.8375C45.0005 67.8417 44.986 67.8458 44.9716 67.8437C44.8909 67.8188 44.833 67.7274 44.7626 67.6942C44.6612 67.6464 44.5226 67.7067 44.3923 67.6257C44.3282 67.5883 44.2537 67.4927 44.1565 67.5862C44.0779 67.5301 44.0179 67.4117 43.9144 67.4263C43.8482 67.3287 43.7924 67.202 43.6951 67.202C43.6807 67.1771 43.6682 67.1521 43.6724 67.1334C43.6165 67.1459 43.602 67.1044 43.5503 67.0753C43.42 67.0067 43.2317 67.0753 43.1118 66.9507C43.0766 66.9652 43.0435 66.9777 43.0145 66.9714C42.9235 66.9611 42.8366 66.9361 42.7621 66.8717C42.5697 66.9071 42.4042 66.8551 42.2698 66.7201C42.1498 66.6911 42.0463 66.6101 41.9367 66.5394C41.9367 66.5207 41.8974 66.4917 41.9202 66.4813C41.7857 66.4605 41.6967 66.2944 41.5499 66.3068C41.4712 66.1884 41.3637 66.149 41.2809 66.041C41.1278 66.0742 41.012 65.9932 40.8961 65.9122C40.7865 65.8354 40.6748 65.7585 40.532 65.7793C40.501 65.7357 40.4555 65.7377 40.4141 65.7315C40.3996 65.6526 40.3562 65.6173 40.3272 65.5342C40.2507 65.4864 40.1576 65.4927 40.081 65.4449C40.019 65.2974 39.8287 65.3265 39.7376 65.2164C39.7169 65.1915 39.7169 65.1541 39.6942 65.1313C39.6259 65.0544 39.5349 65.0025 39.4521 64.9444C39.4273 64.9111 39.4397 64.8862 39.4356 64.8571C39.1956 64.8467 39.0632 64.5144 38.8605 64.3836C38.8646 64.3317 38.8088 64.259 38.8274 64.2112C38.7591 64.1759 38.7674 64.1032 38.7302 64.0451C38.6702 63.9454 38.5605 63.8727 38.515 63.7792C38.486 63.7148 38.4943 63.6276 38.4674 63.5757C38.3826 63.422 38.1799 63.3431 38.1095 63.2184C38.064 63.1395 38.0868 63.0564 38.0495 62.9941C38.0206 62.9464 37.9523 62.9298 37.9109 62.8778C37.8737 62.8301 37.8758 62.747 37.8034 62.7158C37.7992 62.6431 37.733 62.4853 37.6668 62.396C37.6068 62.315 37.4786 62.2132 37.3937 62.1198C37.2779 61.9931 37.22 61.8477 37.1289 61.7023C37.0359 61.559 36.8538 61.4614 36.7421 61.3077C36.709 61.2641 36.6945 61.1914 36.6614 61.1478C36.6366 61.1187 36.5911 61.1104 36.5766 61.0834C36.5435 61.0335 36.5518 60.9671 36.5207 60.9235C36.4876 60.8736 36.409 60.8321 36.3594 60.7635C36.2725 60.6431 36.198 60.4167 36.0615 60.3897C36.0098 60.2838 35.9518 60.2235 35.8877 60.1301C35.8422 60.0574 35.7532 60.0262 35.7305 59.9556C35.7181 59.912 35.7491 59.8559 35.7408 59.8144C35.7036 59.6482 35.5526 59.426 35.4595 59.2598C35.4222 58.9275 35.083 58.6015 34.9733 58.2982C35.0064 58.0947 34.8202 57.8185 34.632 57.7582C34.5223 57.5256 34.3341 57.3532 34.2906 57.1123C34.1148 56.834 34.2017 56.6201 33.9927 56.3625C33.9824 56.3252 34.001 56.294 33.9927 56.2545C33.67 55.6107 33.6845 55.0769 33.4776 54.4725C33.459 54.4372 33.4735 54.4123 33.4735 54.3812C33.3907 54.3313 33.3638 54.1984 33.4321 54.1465C33.3618 54.0302 33.4011 53.9139 33.3556 53.8349C33.4093 53.7269 33.4507 53.6169 33.4011 53.4735C33.4321 53.3967 33.3804 53.2472 33.2914 53.2077C33.2666 53.1724 33.3162 53.162 33.2914 53.1267C33.1073 52.9335 33.1963 52.6739 33.1632 52.4496C33.0535 52.3022 33.0804 52.1298 33.0473 51.9844C33.037 51.9408 33.0059 51.9076 32.9997 51.8619C32.9914 51.8079 33.0121 51.7456 33.0039 51.6853C32.9852 51.5649 32.9418 51.4901 33.0018 51.3904C32.977 51.3468 32.9852 51.3136 32.9542 51.2658C33.0308 50.9979 32.8797 50.6531 32.9811 50.3914C32.8818 50.1546 33.0308 49.9989 33.1052 49.8161C32.9977 49.5544 33.2356 49.4069 33.1259 49.1452C33.1259 49.0954 33.159 49.0539 33.1797 49.0102C33.1735 48.9812 33.1714 48.9521 33.1466 48.9189C33.3576 48.5388 33.0535 47.9905 33.2604 47.6083C33.2314 47.5689 33.2418 47.5398 33.2232 47.5066C33.2811 47.4443 33.2418 47.3508 33.2852 47.2843C33.2107 47.0787 33.3266 46.9333 33.308 46.7485C33.3369 46.7402 33.3225 46.7173 33.3556 46.7111C33.3618 46.3975 33.4052 46.0963 33.4714 45.8035C33.4342 45.7412 33.4631 45.71 33.4176 45.6685C33.5107 45.5709 33.4673 45.4296 33.5376 45.3237C33.5293 45.305 33.519 45.2884 33.5107 45.2697C33.6017 45.1347 33.6183 44.9769 33.6162 44.8107C33.6845 44.7027 33.701 44.6259 33.8065 44.5262C33.8707 44.3663 33.9058 44.196 34.0051 44.0464C34.0134 43.9903 34.0258 43.9343 34.0424 43.8803C34.0258 43.847 34.0093 43.8159 33.9927 43.7826C34.032 43.7536 34.0403 43.7141 34.0775 43.6871C34.0403 43.496 34.1975 43.3673 34.1706 43.1803C34.272 43.091 34.2244 42.956 34.2389 42.8376C34.2472 42.821 34.2596 42.8086 34.2865 42.8003C34.3817 42.47 34.543 42.1647 34.6444 41.8387C34.7085 41.8117 34.7106 41.7327 34.7561 41.685C34.7706 41.6725 34.8078 41.6704 34.8202 41.6538C34.8533 41.6081 34.8575 41.5479 34.8844 41.4877C34.9795 41.282 35.1657 41.1367 35.1678 40.9123C35.2009 40.8874 35.205 40.8521 35.234 40.8251C35.2691 40.7773 35.2278 40.7047 35.3022 40.6693V40.5613C35.3871 40.4741 35.4595 40.3869 35.4346 40.2643C35.5567 40.1044 35.6374 39.932 35.6498 39.7368C35.687 39.7077 35.7056 39.6766 35.7387 39.6496C35.8029 39.5437 35.898 39.4751 35.9518 39.3547C35.9704 39.309 35.9601 39.2487 35.9829 39.203C36.0201 39.1324 36.0863 39.0971 36.1215 39.0244C36.1753 38.9123 36.2249 38.823 36.2146 38.7067C36.4173 38.5405 36.4235 38.312 36.678 38.1625C36.7069 38.1293 36.7193 38.0919 36.7462 38.0587C36.7669 38.04 36.7814 38.0462 36.7938 38.0524C36.8062 38.0587 36.8186 38.0628 36.8373 38.0524C36.8766 38.04 36.8435 38.0026 36.8848 37.988C36.8683 37.9424 36.8393 37.9444 36.8248 37.8967C36.9241 37.824 36.9531 37.6848 37.0772 37.6495C37.2531 37.3878 37.4579 37.1324 37.6316 36.8686C37.6544 36.8374 37.6482 36.7959 37.6585 36.7627C37.7434 36.7087 37.8323 36.6588 37.8509 36.584C37.944 36.4947 38.155 36.3847 38.1737 36.2434C38.1964 36.2227 38.215 36.204 38.2543 36.1894C38.3392 36.0399 38.3764 35.8904 38.5295 35.7803C38.5564 35.7554 38.5667 35.7221 38.5605 35.6827C38.8067 35.529 38.8232 35.2984 39.0798 35.1468C39.1708 35.0077 39.3921 34.9537 39.4025 34.7792C39.4811 34.7501 39.5452 34.6504 39.5845 34.5798C39.7273 34.4988 39.9383 34.3701 39.9983 34.233C40.0686 34.2164 40.1348 34.2122 40.2072 34.1956C40.2693 34.071 40.4265 33.9692 40.5362 33.8384C40.5817 33.7844 40.5693 33.7719 40.6582 33.7096C40.7492 33.6431 40.7968 33.5621 40.9023 33.504C40.9872 33.4583 41.1071 33.3191 41.2271 33.2423C41.343 33.1696 41.6285 33.0803 41.6947 32.9515C41.9222 32.8518 42.0608 32.6753 42.2098 32.5403C42.2781 32.5257 42.3091 32.5216 42.3318 32.4655C42.3649 32.4468 42.3898 32.4531 42.4187 32.4489C42.5304 32.2848 42.8407 32.2287 42.9069 32.0377C43.089 31.9878 43.2214 31.83 43.3724 31.7344C43.4076 31.7116 43.4531 31.7116 43.4841 31.6908C43.5296 31.6597 43.5648 31.5808 43.6476 31.5392C43.8048 31.4582 43.991 31.3959 44.1689 31.3004C44.1875 31.2692 44.2206 31.2464 44.233 31.2131C44.3965 31.1591 44.502 31.0491 44.6426 30.9909C44.8454 30.9037 45.0626 30.8663 45.2715 30.7791C45.4246 30.7105 45.5549 30.588 45.708 30.5278C45.7515 30.5111 45.8053 30.5215 45.857 30.5049C45.9066 30.4904 45.9563 30.4447 46.008 30.4301C46.0742 30.4094 46.159 30.4177 46.2314 30.3969C46.2935 30.3782 46.3535 30.3346 46.4073 30.3221C46.4217 30.3201 46.4383 30.3221 46.4549 30.3242C46.4714 30.3263 46.4879 30.3304 46.5024 30.3263C46.579 30.3097 46.641 30.2494 46.7114 30.2328C46.8272 30.2058 47.03 30.1373 47.181 30.0999C47.2017 30.0958 47.2182 30.0978 47.2368 30.0999C47.2534 30.102 47.2679 30.1041 47.2865 30.0999C47.4313 30.0729 47.5802 29.9711 47.725 30.0646C47.754 30.0501 47.783 30.0355 47.8099 30.021C47.9257 30.0272 48.0395 29.9815 48.1616 29.9774C48.1781 29.9774 48.1947 29.9836 48.2133 29.9878C48.234 29.994 48.2567 30.0002 48.2795 29.9961C48.3229 29.9898 48.3643 29.9566 48.4036 29.9483C48.4243 29.9441 48.4491 29.9462 48.4719 29.9483C48.4946 29.9504 48.5174 29.9524 48.5381 29.9483C48.596 29.9358 48.6456 29.8922 48.7036 29.8777C48.8339 29.8465 48.9829 29.8881 49.0925 29.7988C49.2208 29.8008 49.3552 29.7842 49.4918 29.7655C49.6821 29.7385 49.8724 29.7136 50.0441 29.7448C50.2655 29.7115 50.5013 29.6554 50.7371 29.5786C50.824 29.5495 50.8902 29.4997 50.9709 29.4851C51.0475 29.4706 51.1985 29.4664 51.3019 29.4228C51.4653 29.3543 51.606 29.238 51.7653 29.2006C51.7839 29.1964 51.8025 29.2006 51.8232 29.2048C51.8419 29.2089 51.8584 29.2131 51.877 29.211C51.9287 29.2006 51.9784 29.1549 52.0425 29.1404C52.1149 29.1217 52.206 29.1404 52.2597 29.1217C52.3632 29.0884 52.4273 29.0261 52.5225 29.0303C52.5969 29.0324 52.6714 29.0469 52.7583 29.0448C52.8286 29.0428 52.8969 29.0448 52.9652 29.0469C53.0893 29.0511 53.2093 29.0552 53.3417 29.0303C53.4451 29.0718 53.5672 29.0614 53.6892 29.049C53.8216 29.0365 53.954 29.0241 54.0637 29.0781C54.0926 29.0573 54.1133 29.0594 54.134 29.0614C54.1547 29.0614 54.1775 29.0635 54.2064 29.0428C54.3885 29.1466 54.6243 29.0905 54.8105 29.1778C54.8664 29.1591 54.9139 29.1653 54.9615 29.1736C55.0195 29.1819 55.0753 29.1923 55.1477 29.1549C55.2615 29.1944 55.3856 29.1902 55.518 29.1694C55.5842 29.2172 55.669 29.211 55.7373 29.2588C56.1221 29.238 56.4303 29.4581 56.78 29.5474C56.9951 29.6949 57.2496 29.724 57.4771 29.8361C57.6343 29.8278 57.7585 29.9213 57.9116 29.9254C58.0047 30.0189 58.1205 30.0459 58.2281 30.0999C58.3729 30.2619 58.5632 30.2951 58.7122 30.4447C58.977 30.561 59.1859 30.8414 59.4631 30.9203C59.55 31.0262 59.6638 31.0553 59.7755 31.0864C59.9493 31.2152 60.1417 31.29 60.3341 31.3689C60.4416 31.4458 60.5347 31.5766 60.6568 31.6078C60.7064 31.6804 60.7561 31.7531 60.8285 31.7614C61.0498 32.019 61.4326 31.9297 61.5919 32.2869C61.7656 32.4074 61.9084 32.6296 62.1028 32.6857C62.1711 32.7854 62.2518 32.8477 62.3449 32.8726C62.4421 33.0263 62.558 33.126 62.68 33.2132C62.6945 33.2423 62.709 33.2714 62.7235 33.2984C62.98 33.5559 63.2365 33.8176 63.5137 34.0128C63.6358 34.3742 63.9854 34.4012 64.1137 34.7439C64.1468 34.7688 64.1819 34.7917 64.215 34.8124C64.2357 34.908 64.3102 34.9204 64.3598 34.9682C64.5026 35.1074 64.6101 35.288 64.7425 35.4584C64.8439 35.5892 64.9867 35.6847 65.0922 35.8052C65.3487 36.1001 65.5618 36.4324 65.8245 36.6962C65.99 37.0389 66.2672 37.3276 66.4244 37.6682C66.4431 37.7077 66.4451 37.745 66.4679 37.7804C66.4865 37.8115 66.5258 37.826 66.5486 37.8614C66.5899 37.9237 66.5941 38.0213 66.6355 38.0857C66.6665 38.1355 66.7472 38.1874 66.7865 38.2788C66.8299 38.3764 66.8092 38.474 66.8692 38.5717C66.9851 38.7669 67.1237 39.0203 67.2168 39.255C67.2437 39.3256 67.2478 39.3983 67.2933 39.4585C67.3368 39.5167 67.3905 39.5686 67.434 39.6558C67.5126 39.822 67.5995 39.959 67.7091 40.121C67.8126 40.2706 67.9305 40.4637 67.9905 40.6237C68.0029 40.6548 67.9946 40.6922 68.0132 40.7213C68.0732 40.8272 68.2077 40.9186 68.2553 41.0951C68.276 41.1699 68.2367 41.2717 68.2946 41.3859C68.3215 41.4378 68.3794 41.4648 68.4042 41.5188C68.4187 41.5541 68.4063 41.5936 68.4208 41.631C68.4477 41.7099 68.5449 41.7805 68.518 41.876C68.5532 41.9259 68.5966 41.9487 68.6359 41.9778C68.6049 42.09 68.7042 42.2437 68.6318 42.3413C68.7394 42.3641 68.7745 42.5988 68.8759 42.6341C68.8925 42.7442 68.8842 42.8916 68.9276 43.0246C68.938 43.0599 68.9731 43.0952 68.9814 43.1305C68.9938 43.1783 68.9731 43.2302 68.9876 43.2759C69.0083 43.3382 69.0559 43.386 69.0745 43.4483C69.1262 43.6061 69.1324 43.7681 69.1262 43.8927C69.269 44.2063 69.5131 44.5262 69.4572 44.8128C69.4717 44.8481 69.4965 44.8585 69.5172 44.8793C69.4986 44.9665 69.54 45.0766 69.5131 45.1617C69.6662 45.4213 69.6558 45.7121 69.7737 45.9426C69.7903 45.9759 69.8193 46.0029 69.8317 46.034C69.8792 46.1503 69.8751 46.2999 69.9206 46.4183C69.931 46.4473 69.9661 46.4702 69.9744 46.4993C70.0158 46.6405 69.993 46.8793 69.9785 47.0351C69.9723 47.087 69.9579 47.1431 69.962 47.1909C69.9723 47.2553 70.0158 47.3155 70.0178 47.3778C70.0178 47.4567 69.9848 47.5232 69.9972 47.6021C70.0096 47.6644 70.0427 47.7226 70.0634 47.7849C70.0634 48.0923 69.9848 48.4204 70.1172 48.7403C70.0737 48.8379 70.113 48.9646 70.1296 49.0829C70.0675 49.5046 70.1047 49.9594 70.1668 50.4246C70.1027 50.5596 70.0799 50.7029 70.0572 50.8712C70.0406 50.9937 70.0447 51.0934 70.0323 51.2201C70.0261 51.2762 70.0013 51.3177 70.0013 51.3696C70.0054 51.5275 70.0282 51.6957 70.0199 51.8577C70.0199 51.8785 69.9868 51.8992 69.9848 51.9179C69.9827 51.9366 70.0054 51.9657 70.0075 51.9886C70.0075 52.028 69.9806 52.0716 69.9806 52.0966C69.9806 52.1256 70.0075 52.1526 70.0075 52.1755C70.0096 52.2627 69.9434 52.3146 69.9227 52.406C69.8958 52.5431 69.9227 52.6968 69.813 52.8006C69.8565 53.0727 69.6806 53.2721 69.7055 53.54C69.6889 53.5795 69.662 53.6148 69.6413 53.6522C69.6972 53.9471 69.5462 54.1755 69.4717 54.4269C69.4862 54.4539 69.5007 54.4829 69.5151 54.512C69.5069 54.5577 69.4572 54.5889 69.5048 54.6512C69.4386 54.8007 69.2793 54.9232 69.3041 55.1039C69.2876 55.1185 69.2897 55.1413 69.2628 55.1517C69.2503 55.2514 69.269 55.3615 69.211 55.4466C69.2503 55.5069 69.2276 55.5484 69.2338 55.5962C68.9607 55.8142 69.0931 56.1632 68.8262 56.3833C68.7849 56.5972 68.6545 56.8028 68.607 57.0334C68.5821 57.1538 68.4684 57.2681 68.4415 57.3989C68.4559 57.428 68.4704 57.4571 68.4849 57.4841C68.4146 57.5235 68.3608 57.5692 68.3897 57.6398C68.338 57.6606 68.3091 57.6918 68.2822 57.7208C68.2863 57.9431 68.007 58.1175 68.1146 58.3439C68.0422 58.4436 67.9098 58.4976 68.0153 58.6243C68.0629 58.6825 68.1891 58.6679 68.2491 58.7302C68.3049 58.6264 68.396 58.5329 68.4022 58.4125C68.4808 58.3439 68.518 58.2629 68.5552 58.184C68.5346 58.1861 68.5159 58.184 68.4973 58.1757C68.4973 58.1321 68.5118 58.0968 68.518 58.0573C68.489 58.0178 68.4415 58.0365 68.3939 58.0573C68.3608 58.0698 68.3256 58.0843 68.2987 58.076C68.3049 57.9472 68.5304 57.8579 68.6173 57.806C68.5863 57.8745 68.6463 57.9472 68.6608 58.022C68.667 58.0158 68.669 58.0075 68.6773 58.0012C68.6711 57.9514 68.6711 57.9015 68.6504 57.8475C68.6649 57.8102 68.6918 57.7769 68.6959 57.7354C68.8345 57.6606 68.8842 57.5588 68.878 57.4363C69.0414 57.1435 69.0869 56.8112 69.2752 56.5266C69.3 56.429 69.2752 56.3168 69.3745 56.2442C69.4324 56.0032 69.5317 55.7769 69.6103 55.5442C69.6207 55.5214 69.5855 55.4861 69.5958 55.4632C69.6517 55.3781 69.6765 55.2659 69.7013 55.1642C69.7055 55.1455 69.7386 55.1309 69.7406 55.1185C69.7489 55.0852 69.7303 55.0458 69.7406 55.0146C69.7551 54.9731 69.7924 54.9378 69.8068 54.89C69.8193 54.8464 69.811 54.7965 69.8275 54.7509C69.8544 54.674 69.9165 54.6075 69.933 54.5307C69.9392 54.5016 69.9206 54.4601 69.9268 54.4185C69.9351 54.3749 69.9744 54.3272 69.9765 54.2919C69.9785 54.2545 69.9496 54.2129 69.9558 54.1735C69.9661 54.0925 70.0489 54.0156 70.0116 53.9263C70.1771 53.7435 70.0882 53.4798 70.1813 53.2742C70.1771 53.243 70.1751 53.2119 70.1544 53.1724C70.2227 53.081 70.2164 52.9481 70.2495 52.8297C70.264 52.7715 70.3116 52.7176 70.3137 52.6552C70.3137 52.6199 70.2847 52.5971 70.2827 52.5701C70.2764 52.5119 70.2909 52.4039 70.3116 52.3479C70.3199 52.3229 70.353 52.3022 70.3613 52.271C70.382 52.1942 70.353 52.0986 70.4151 52.0239C70.3944 51.9823 70.4006 51.9512 70.3675 51.9075C70.3799 51.8141 70.4564 51.7435 70.4088 51.6292C70.444 51.5815 70.4481 51.5233 70.4999 51.4818C70.5785 51.1578 70.684 50.8421 70.7709 50.5202C70.7626 50.4849 70.7419 50.489 70.7295 50.4641C70.6985 50.2606 70.7791 50.0176 70.7047 49.8099C70.6736 49.7185 70.6012 49.6312 70.5909 49.5336C70.5826 49.4672 70.6199 49.3322 70.6281 49.2304C70.6426 49.0746 70.7419 48.9417 70.6095 48.7652C70.6157 48.6966 70.6819 48.5845 70.5806 48.5346C70.6074 48.4246 70.5123 48.2729 70.5619 48.1712C70.5599 48.1338 70.5433 48.1421 70.5247 48.1006C70.5454 47.843 70.4647 47.5523 70.413 47.2698C70.5123 47.1992 70.3882 47.1016 70.3592 46.9894C70.3344 46.8897 70.3964 46.8378 70.384 46.7568C70.353 46.6945 70.322 46.6363 70.2806 46.6031C70.3095 46.4868 70.3178 46.3601 70.324 46.2334C70.1978 46.0901 70.3302 45.9281 70.1833 45.7786C70.2144 45.6706 70.1771 45.5667 70.1296 45.4463C70.1151 45.4089 70.1296 45.3383 70.113 45.2884C70.1047 45.2573 70.0758 45.2261 70.0716 45.2053C70.053 45.1264 70.1006 45.033 70.0034 44.9436C69.991 44.9083 70.0468 44.8896 70.0323 44.8502C69.9703 44.684 69.9144 44.522 69.8606 44.3081C69.8275 44.1773 69.8337 44.0319 69.7924 43.9197C69.7737 43.8657 69.7344 43.8263 69.7199 43.7764C69.6744 43.6269 69.691 43.4815 69.6351 43.305C69.6165 43.2717 69.5979 43.2447 69.5731 43.2343C69.6186 43.0993 69.4717 42.9 69.482 42.7525C69.3021 42.4243 69.2441 42.0671 69.271 41.7805C69.1945 41.6081 69.0911 41.5043 69.0911 41.3734C69.0621 41.2696 68.8945 41.1803 68.8697 41.0868C68.849 41.0079 68.9276 40.9414 68.9607 40.8604C69.1055 41.037 69.1966 41.2966 69.3103 41.4523C69.2938 41.5147 69.4014 41.6185 69.3434 41.6663C69.3558 41.6829 69.3724 41.6829 69.391 41.6808C69.4034 41.6808 69.4179 41.6808 69.4283 41.685C69.54 41.9072 69.7986 42.1523 69.7551 42.3807C69.8979 42.5593 69.931 42.7442 69.9889 42.9436C70.0096 43.0121 70.0551 43.0703 70.0716 43.1326C70.1171 43.2925 70.1296 43.4358 70.1958 43.5833C70.2102 43.6123 70.2392 43.6393 70.2537 43.6705C70.2847 43.7473 70.2827 43.8346 70.3116 43.9114C70.3489 44.009 70.3964 44.1066 70.4378 44.2084C70.4854 44.3289 70.5702 44.4369 70.6136 44.5553C70.6385 44.6238 70.6199 44.7131 70.6405 44.7858C70.6612 44.8543 70.7047 44.9104 70.7233 44.9748C70.7812 45.1617 70.8412 45.3507 70.8702 45.5418C70.9736 45.8014 71.0626 46.0569 71.1205 46.3144C71.1598 46.4909 71.2177 46.628 71.2612 46.7963C71.3129 46.9956 71.3729 47.2179 71.3832 47.4422C71.3832 47.4733 71.3605 47.4983 71.3625 47.5294C71.3729 47.6499 71.4267 47.7703 71.4205 47.8721C71.4184 47.9157 71.3874 47.9635 71.3874 48.005C71.3853 48.0486 71.4163 48.0902 71.4142 48.1317C71.4122 48.167 71.3811 48.1961 71.3729 48.2293C71.3687 48.2584 71.3874 48.2916 71.3853 48.3269C71.3708 48.4433 71.3005 48.5242 71.3708 48.6302C71.3563 48.8088 71.4308 48.9708 71.4308 49.1536C71.4308 49.2574 71.3811 49.3654 71.3874 49.4713C71.3894 49.5149 71.4246 49.5586 71.4287 49.6042C71.4308 49.6333 71.406 49.6624 71.4101 49.6915C71.4163 49.7476 71.4598 49.7995 71.466 49.8556C71.4784 49.9573 71.4349 50.0466 71.4639 50.1526C71.4701 50.1733 71.4949 50.1982 71.5011 50.2232C71.528 50.3499 71.4949 50.4807 71.5301 50.6074C71.5156 50.6365 71.5198 50.6739 71.4846 50.6946C71.4887 50.7237 71.5011 50.7528 71.4991 50.7777C71.4432 50.9563 71.5115 51.1744 71.4743 51.3572C71.4515 51.3738 71.437 51.3904 71.4225 51.4091C71.4867 51.5005 71.4018 51.5441 71.4432 51.6313C71.4349 51.6479 71.4122 51.6604 71.4018 51.6791C71.3874 51.9761 71.3646 52.2689 71.3212 52.5556C71.2239 52.6262 71.255 52.73 71.2363 52.8442C71.2136 52.9855 71.1205 53.1163 71.1308 53.243C71.135 53.2887 71.1681 53.3302 71.1722 53.3759C71.1784 53.4486 71.1288 53.5338 71.1846 53.6002C71.137 53.6979 71.1763 53.8017 71.1557 53.8993C71.1226 54.0572 71.0129 54.2005 71.0501 54.377C70.9571 54.4871 70.9509 54.6283 70.8805 54.7467C70.9384 54.8775 70.8764 54.9689 70.8971 55.0852C70.7585 55.2867 70.7957 55.5463 70.6571 55.7478C70.6861 55.8246 70.655 55.9077 70.6323 55.9783C70.6054 56.0697 70.535 56.1881 70.5164 56.2815C70.4999 56.3646 70.5454 56.483 70.4461 56.5495C70.4502 56.6014 70.4419 56.6492 70.4461 56.7032C70.415 56.7738 70.3675 56.834 70.3364 56.915C70.3199 56.9565 70.3364 57.0105 70.3157 57.0542C70.2889 57.1102 70.2309 57.1518 70.204 57.212C70.1523 57.3304 70.113 57.4695 70.084 57.6087C70.0572 57.7271 70.0344 57.8122 70.0592 57.941C69.9392 58.13 69.8565 58.3315 69.7075 58.508C69.6579 58.8008 69.54 59.0708 69.2897 59.2993C69.2441 59.4717 69.2193 59.6503 69.1697 59.8227C69.0435 59.9016 69.0476 60.0241 69.0166 60.1342C70.9343 56.8278 72.0204 53.0229 71.9997 48.9791C71.9707 42.6466 69.2359 36.9226 64.8584 32.8082C60.514 28.7271 54.5333 26.2078 47.9526 26.2078C47.9112 26.2078 47.8699 26.2078 47.8285 26.2078ZM35.7636 31.0324C35.8608 30.9868 35.8939 30.8601 36.0035 30.8393C36.1194 30.9182 36.258 30.8559 36.3718 30.9494C36.2415 31.0823 36.0325 31.1612 35.8629 31.2048C35.7594 31.3024 35.6643 31.4312 35.5381 31.4831C35.4408 31.5247 35.3209 31.5122 35.2133 31.5683C35.1264 31.614 35.0788 31.6929 34.9919 31.7469C34.9216 31.7905 34.8182 31.7864 34.7457 31.8445C34.7209 31.8653 34.7085 31.9131 34.6795 31.938C34.5409 32.0543 34.3527 32.1789 34.1893 32.2454C33.8789 32.37 33.5169 32.4053 33.3556 32.7147C33.2873 32.7438 33.1859 32.7231 33.1239 32.7708C33.0908 32.7937 33.0928 32.8414 33.0639 32.8726C32.9604 32.9889 32.7432 32.9889 32.6853 33.1551C32.6667 33.1758 32.6522 33.1696 32.6377 33.1634C32.6232 33.1571 32.6108 33.153 32.5943 33.1654C32.5653 33.1945 32.5591 33.2298 32.5467 33.2631C32.526 33.2714 32.5053 33.2693 32.4867 33.2693C32.4784 33.2693 32.4722 33.2693 32.4639 33.2693C32.3791 33.4458 32.0998 33.5725 32.106 33.7761C31.9819 33.828 31.9529 33.9131 31.9736 34.0253C31.6509 34.2807 31.4192 34.638 31.3551 34.9952C31.1296 35.1759 30.8007 35.4002 30.78 35.666C30.5338 35.7263 30.5441 36.0004 30.3352 36.1043C30.3 36.1375 30.3186 36.1832 30.3 36.2227C30.1883 36.2684 30.1407 36.3867 30.1366 36.4885C29.9194 36.5903 29.6835 36.8354 29.6008 37.0514C29.4353 37.2071 29.2594 37.4356 29.2036 37.6516C29.0712 37.7347 29.0712 37.88 28.9677 38.0026C28.9305 38.0441 28.8684 38.2082 28.8147 38.2622C28.6678 38.4138 28.5995 38.6298 28.4381 38.7835C28.4113 38.8873 28.3533 38.9829 28.2561 39.066C28.2416 39.1387 28.1196 39.2383 28.0865 39.3214C28.0037 39.5208 27.952 39.7472 27.8093 39.8905C27.7513 39.9487 27.7575 40.013 27.7182 40.0961C27.6769 40.1792 27.5879 40.2415 27.6169 40.3703C27.5527 40.4658 27.5134 40.5676 27.5114 40.6818C27.4493 40.7233 27.4845 40.767 27.4079 40.7815C27.3914 40.821 27.4348 40.875 27.3562 40.8957C27.3438 40.9373 27.3686 40.9933 27.3624 41.0349C27.1969 41.1927 27.2341 41.4046 27.0914 41.5687C27.1307 41.6933 27.0335 41.7805 27.0686 41.903C27.0066 41.9321 27.0355 41.9861 26.9921 42.0193C27.0004 42.0463 26.988 42.065 27.0148 42.0983C26.9404 42.1793 26.9714 42.3101 26.9424 42.4202C26.9238 42.4908 26.8742 42.549 26.868 42.63C26.8597 42.7234 26.8907 42.873 26.8638 42.9685C26.8452 43.0412 26.7935 43.0869 26.7666 43.1637C26.7749 43.2738 26.7335 43.3693 26.6797 43.4628C26.7314 43.6373 26.597 43.7598 26.599 43.9197C26.3984 44.0921 26.5411 44.3559 26.4025 44.5449C26.4418 44.7713 26.2929 44.9229 26.2515 45.1098C26.2391 45.17 26.3115 45.2406 26.3384 45.3279C26.3715 45.4483 26.2866 45.548 26.2846 45.654C26.0198 45.7869 26.206 46.115 26.417 46.2874C26.4397 46.4473 26.3673 46.5803 26.3198 46.7236C26.3384 46.7963 26.3715 46.8773 26.3177 46.9333C26.419 47.1203 26.2453 47.2324 26.3384 47.4173C26.2598 47.546 26.266 47.6976 26.268 47.8493C26.1108 48.0216 26.3218 48.2937 26.1811 48.4703C26.1687 48.5263 26.1708 48.5845 26.2184 48.6551C26.0632 48.8628 25.997 49.0975 25.9101 49.3259C25.9288 49.3675 25.9494 49.3737 25.9701 49.3966C25.9226 49.6271 25.9122 49.8722 25.8708 50.1069C25.9184 50.1796 25.9039 50.2398 25.9494 50.3104C25.8957 50.5056 25.9184 50.7569 26.0798 50.9812C26.0777 51.0228 26.0591 51.0622 26.0281 51.0955C26.0446 51.3073 26.055 51.5212 26.0984 51.7414C26.177 51.8722 26.2142 51.9948 26.208 52.1028C26.237 52.1464 26.2701 52.1568 26.3177 52.2066C26.2598 52.2357 26.3591 52.3105 26.3425 52.3499C26.2225 52.5306 26.2867 52.7591 26.3673 52.9938C26.3466 53.0312 26.3694 53.0789 26.3156 53.108C26.3363 53.1869 26.3135 53.2534 26.3549 53.3406C26.2763 53.6106 26.328 53.9159 26.297 54.1984C26.4335 54.3085 26.3508 54.4559 26.3756 54.5785C26.4004 54.6865 26.4832 54.8568 26.5721 54.8983C26.5618 54.9772 26.5659 55.1185 26.6673 55.1725C26.7273 55.4092 26.7459 55.6772 26.8825 55.9305C26.9673 56.0863 27.0997 56.2296 27.0935 56.402C27.1059 56.3999 27.1142 56.4145 27.1224 56.4311C27.1328 56.4477 27.1431 56.4622 27.1555 56.4581C27.1679 56.7135 27.4079 56.9316 27.5817 57.1746C27.6065 57.2037 27.5569 57.2162 27.5713 57.2452C27.6541 57.3512 27.6582 57.4862 27.6872 57.5713C27.6975 57.6004 27.7306 57.6212 27.7389 57.6502C27.743 57.6689 27.7244 57.7022 27.7286 57.7208C27.7658 57.8787 27.8796 58.0386 27.8651 58.2089C27.9975 58.4228 28.0265 58.6575 28.1527 58.8403C28.1237 59.0085 28.3492 59.2038 28.3657 59.4052C28.523 59.6794 28.6885 59.9805 28.7795 60.2734C28.7898 60.3087 28.7795 60.344 28.7898 60.3793C28.8726 60.5828 29.0484 60.7573 29.036 60.9712C29.067 60.9961 29.0981 61.046 29.1291 61.0709C29.0857 61.1415 29.1395 61.2682 29.2243 61.3451C29.3215 61.7708 29.607 62.261 29.7001 62.7179C29.6525 62.7304 29.6028 62.7408 29.5553 62.7345C29.3587 62.4978 29.3091 62.3399 29.127 62.1011C29.1022 62.0678 29.0712 62.0741 29.0443 62.0595C28.9346 61.883 28.8188 61.6504 28.6678 61.5029C28.643 61.4198 28.5312 61.1831 28.4526 61.0668C28.3988 60.9858 28.3285 60.9691 28.3099 60.8881C28.2995 60.8445 28.3223 60.8009 28.2706 60.722C28.2416 60.6784 28.1899 60.6576 28.1609 60.6181C28.0803 60.5122 27.9913 60.3232 27.9334 60.2069C27.8941 60.1321 27.892 60.0491 27.8568 59.9826C27.8465 59.9618 27.8134 59.9431 27.803 59.9224C27.6996 59.6918 27.5548 59.3969 27.3976 59.129C27.4079 59.075 27.3852 59.0688 27.3562 58.9795C27.3479 58.9587 27.3645 58.9296 27.3645 58.9275C27.3583 58.9171 27.3479 58.9234 27.3417 58.9296C27.3355 58.9338 27.3293 58.9379 27.3272 58.9358C27.3148 58.9213 27.321 58.8715 27.3065 58.8382C27.2859 58.7905 27.2259 58.7448 27.2176 58.7219C27.1948 58.6679 27.2155 58.6201 27.1928 58.5786C27.1741 58.5433 27.1328 58.5205 27.1162 58.4831C27.0893 58.4249 27.1204 58.3605 27.0997 58.2858C27.0666 58.1715 26.959 58.0885 27.0066 57.9929C26.9052 57.8704 26.7852 57.7437 26.7914 57.6212C26.6301 57.3283 26.4873 57.0002 26.4066 56.6865C26.3653 56.6408 26.3239 56.5952 26.2804 56.5598C26.3198 56.5432 26.328 56.5183 26.3342 56.4913C26.1108 56.2213 26.1936 55.8869 25.997 55.6522C26.0177 55.6273 26.0322 55.6024 26.026 55.5692C25.9557 55.4757 25.9681 55.4051 25.9019 55.3137C25.935 55.2825 25.9122 55.2368 25.9267 55.1995C25.7364 54.8713 25.8067 54.6158 25.6247 54.2877C25.666 54.2171 25.6681 54.1049 25.5833 54.0281C25.5709 53.8412 25.4985 53.6376 25.5026 53.4549C25.484 53.4258 25.4633 53.3946 25.4447 53.3635C25.424 53.3074 25.4633 53.2659 25.4571 53.2119C25.3226 52.9626 25.3495 52.6802 25.3081 52.4268C25.2833 52.3894 25.2606 52.3499 25.2357 52.3146C25.2357 52.271 25.2419 52.2316 25.2523 52.19C25.2337 52.1443 25.2088 52.1568 25.1923 52.1173C25.2833 51.9076 25.1364 51.6313 25.0909 51.3821C25.093 51.3343 25.1426 51.2969 25.1468 51.2492C25.0868 51.0955 25.0102 50.9356 25.0909 50.8192C24.9771 50.4329 25.0888 50.1069 24.9606 49.7143C25.0309 49.625 24.9751 49.4983 24.9192 49.3716C24.9833 49.2179 24.9999 49.0518 24.9027 48.8524C24.9916 48.6073 24.8985 48.3103 24.9792 48.0632C24.9296 47.9614 24.9958 47.8908 24.9213 47.7807C24.9233 47.6852 24.8923 47.5834 24.884 47.4837C24.9109 47.4546 24.9337 47.4256 24.9668 47.3965C24.9109 47.1784 25.033 47.0102 24.9461 46.7838C25.0309 46.6779 25.0164 46.5449 24.9647 46.4016C25.0806 46.2459 25.0433 46.0506 25.0682 45.8699C25.0454 45.8388 25.0599 45.8429 25.0744 45.8492C25.0826 45.8513 25.093 45.8533 25.0971 45.8492C25.1137 45.656 25.0868 45.4546 25.2295 45.2967C25.1695 45.17 25.2088 45.0683 25.2316 44.9561C25.244 44.8938 25.2233 44.819 25.2419 44.7567C25.2481 44.736 25.273 44.7214 25.2771 44.7027C25.2937 44.63 25.2895 44.6113 25.3268 44.5407C25.3557 44.4846 25.3164 44.412 25.3185 44.3372C25.3205 44.2749 25.3578 44.2084 25.3743 44.1399C25.3785 44.1233 25.3599 44.0963 25.364 44.0817C25.4012 43.9426 25.5005 43.8117 25.5212 43.6726C25.5295 43.6269 25.5047 43.5833 25.5502 43.5417C25.5254 43.442 25.5916 43.3673 25.5522 43.2676C25.6164 43.1741 25.635 43.0703 25.6143 42.954C25.7488 42.846 25.8067 42.7193 25.7322 42.5531C25.8295 42.3828 25.7757 42.173 25.9163 42.0152C25.9474 41.8823 25.935 41.7016 26.0694 41.6247C26.0922 41.471 26.1542 41.3236 26.2329 41.1823C26.2122 41.1491 26.177 41.1117 26.1832 41.0847C26.2225 41.0619 26.2577 41.037 26.2742 41.0079C26.3032 40.8043 26.4646 40.6361 26.4728 40.4284C26.4935 40.416 26.5121 40.4035 26.5328 40.391C26.5949 40.0629 26.8245 39.7846 26.8949 39.4606C26.9321 39.4398 26.959 39.417 26.9755 39.39C27.0935 38.9206 27.5093 38.5301 27.6272 38.0607C27.6686 38.0358 27.6748 38.0005 27.7286 37.9777C27.8444 37.8468 27.9106 37.7014 27.9396 37.5477C28.0285 37.4896 28.0347 37.4107 28.1237 37.3774C28.2499 37.1843 28.3202 36.9787 28.4899 36.798C28.5561 36.6505 28.6574 36.5134 28.8002 36.3847C28.8105 36.3327 28.8457 36.2891 28.8581 36.2351C29.096 36.0233 29.3277 35.7761 29.4249 35.5082C29.4374 35.4999 29.4518 35.4999 29.4642 35.4999C29.4808 35.4999 29.4973 35.4999 29.518 35.4791C29.5884 35.3358 29.7228 35.2714 29.7828 35.1115C29.9752 35.0596 30.089 34.8415 30.2214 34.7252C30.24 34.5611 30.3766 34.5071 30.5152 34.4199C30.6331 34.3472 30.7076 34.2039 30.8338 34.1769C30.8524 34.0128 30.9992 33.9734 31.1254 33.8903C31.1668 33.8633 31.1813 33.8114 31.2206 33.7781C31.4316 33.5974 31.7316 33.4791 31.8661 33.2547C31.8971 33.2257 31.9219 33.2361 31.9509 33.2319C32.1019 33.0346 32.3812 32.9598 32.4039 32.7231C32.4308 32.7106 32.4536 32.7168 32.4763 32.7251C32.495 32.7334 32.5156 32.7397 32.5384 32.7314C32.7225 32.5756 32.9149 32.4801 33.1032 32.3907C33.2004 32.2516 33.3369 32.1083 33.5045 32.0128C33.5335 31.9858 33.5355 31.9484 33.5541 31.9151C33.5748 31.9048 33.5914 31.9172 33.61 31.9297C33.6245 31.938 33.639 31.9484 33.6576 31.9463C33.8045 31.7822 34.0362 31.7511 34.2161 31.6576C34.2803 31.6223 34.3134 31.6078 34.3796 31.5828C34.4975 31.5371 34.6009 31.4312 34.7189 31.3918C34.7395 31.3834 34.7664 31.3876 34.7933 31.3918C34.8161 31.3959 34.8409 31.4001 34.8616 31.3938C34.9919 31.3585 35.0954 31.2131 35.2381 31.2588C35.3726 31.2007 35.476 31.0968 35.6064 31.047C35.6291 31.0387 35.6601 31.0387 35.6891 31.0408C35.6974 31.0408 35.7077 31.0408 35.716 31.0408C35.7387 31.0408 35.7615 31.0387 35.7801 31.0304L35.7636 31.0324ZM68.2573 58.4104C68.3111 58.3792 68.3318 58.4789 68.3008 58.4976C68.2656 58.4976 68.2636 58.4332 68.2573 58.4104ZM48.2216 68.9092C48.2464 68.8967 48.2588 68.9237 48.2712 68.9507C48.2629 68.9528 48.2567 68.9549 48.2526 68.9549C48.2319 68.9549 48.2278 68.932 48.2216 68.9092ZM67.8808 58.913C67.8933 58.9338 67.9098 58.9192 67.9305 58.9026C67.947 58.8901 67.9677 58.8756 67.9884 58.8839C67.9739 58.9649 68.0319 59.0085 68.067 59.0729C68.0794 59.0438 68.0898 59.0127 68.0981 58.9836C68.0753 58.9379 68.0546 58.8943 68.0608 58.8465C68.0422 58.8278 68.0298 58.8382 68.0153 58.8465C68.0029 58.8548 67.9884 58.8652 67.9698 58.8507C67.9346 58.7925 67.9677 58.7302 67.916 58.6908C67.8229 58.7572 67.9036 58.8299 67.8788 58.9109L67.8808 58.913ZM68.2056 58.8631C68.2056 58.8631 68.2056 58.8632 68.2077 58.8611C68.2118 58.8278 68.2222 58.7967 68.2367 58.7655C68.2118 58.7842 68.1953 58.8278 68.2056 58.8631ZM67.976 59.0771C67.9615 59.1165 67.9781 59.1518 68.007 59.1788C68.0153 59.1622 68.0257 59.1456 68.0339 59.1269C68.0153 59.1061 68.0008 59.0771 67.976 59.0771C67.976 59.0771 67.976 59.0771 67.9739 59.0771H67.976ZM67.3719 59.5485C67.3471 59.5693 67.3181 59.5901 67.2768 59.5818C67.2519 59.6129 67.2478 59.6545 67.2561 59.7001C67.2106 59.7209 67.1651 59.7168 67.1568 59.7645C67.2106 59.8123 67.2809 59.8061 67.3223 59.8808C67.3243 59.9992 67.1154 60.0511 67.0906 60.1633C67.1258 60.2007 67.1878 60.155 67.2333 60.155C67.2499 60.2069 67.3471 60.2651 67.2664 60.3004C67.2747 60.3045 67.283 60.3066 67.2933 60.3087C67.314 60.2775 67.3347 60.2464 67.3574 60.2152C67.2747 60.1841 67.2602 60.0636 67.3037 60.0013C67.3533 59.9909 67.3967 60.0055 67.4216 60.0761C67.3967 60.0885 67.3719 60.101 67.3471 60.1135C67.3595 60.1425 67.3761 60.1508 67.3968 60.1571C67.4402 60.0927 67.4836 60.0283 67.5271 59.9639C67.4981 59.9245 67.4692 59.8808 67.4319 59.8268C67.4195 59.777 67.494 59.7541 67.4567 59.6918C67.4423 59.6628 67.4278 59.6794 67.4112 59.6939C67.3968 59.7105 67.3802 59.7251 67.3657 59.6981C67.3305 59.5963 67.4981 59.642 67.434 59.5153C67.4319 59.5132 67.4278 59.5132 67.4236 59.5132C67.4092 59.5132 67.3926 59.5319 67.3719 59.5485ZM68.8924 60.3606C68.9276 60.3025 68.9607 60.2422 68.9959 60.1841C68.9504 60.2401 68.9193 60.3004 68.8924 60.3606ZM68.7021 60.6535C68.6856 60.6638 68.6876 60.6805 68.6897 60.695C68.7063 60.6701 68.7207 60.6451 68.7373 60.6181C68.7269 60.6285 68.7166 60.641 68.7042 60.6514L68.7021 60.6535ZM67.3657 62.6868C67.3823 62.6805 67.3947 62.6909 67.4133 62.6743C67.4092 62.666 67.403 62.6535 67.3968 62.6411C67.3699 62.6494 67.3574 62.6639 67.3657 62.6868Z" fill="#3297D4"/>
</svg>
