<?xml version="1.0" encoding="UTF-8" standalone="no"?>
<svg
   width="96"
   height="96"
   viewBox="0 0 96 96"
   fill="none"
   version="1.1"
   id="svg591"
   sodipodi:docname="pharo-smalltalk.svg"
   inkscape:version="1.1 (c4e8f9e, 2021-05-24)"
   xmlns:inkscape="http://www.inkscape.org/namespaces/inkscape"
   xmlns:sodipodi="http://sodipodi.sourceforge.net/DTD/sodipodi-0.dtd"
   xmlns="http://www.w3.org/2000/svg"
   xmlns:svg="http://www.w3.org/2000/svg">
  <defs
     id="defs595">
    <linearGradient
       x1="0.40000001"
       y1="0"
       x2="1"
       y2="0"
       id="lG_column"
       gradientUnits="userSpaceOnUse"
       gradientTransform="matrix(10.76,-145.87,145.87,10.76,631.57,223.43)"
       spreadMethod="pad">
      <stop
         id="stop4289"
         style="stop-color:#2b98d8;stop-opacity:1"
         offset="0" />
      <stop
         id="stop4291"
         style="stop-color:#a10b0b;stop-opacity:1"
         offset="1" />
    </linearGradient>
    <linearGradient
       x1="0.40000001"
       y1="0"
       x2="1"
       y2="0"
       id="lG_column-4"
       gradientUnits="userSpaceOnUse"
       gradientTransform="matrix(10.76,-145.87,145.87,10.76,631.57,223.43)"
       spreadMethod="pad">
      <stop
         id="stop4289-0"
         style="stop-color:#2b98d8;stop-opacity:1"
         offset="0" />
      <stop
         id="stop4291-8"
         style="stop-color:#a10b0b;stop-opacity:1"
         offset="1" />
    </linearGradient>
  </defs>
  <sodipodi:namedview
     id="namedview593"
     pagecolor="#ffffff"
     bordercolor="#666666"
     borderopacity="1.0"
     inkscape:pageshadow="2"
     inkscape:pageopacity="0.0"
     inkscape:pagecheckerboard="0"
     showgrid="false"
     inkscape:snap-object-midpoints="false"
     inkscape:snap-global="false"
     inkscape:zoom="1.6438326"
     inkscape:cx="309.94641"
     inkscape:cy="95.812679"
     inkscape:window-width="1920"
     inkscape:window-height="1037"
     inkscape:window-x="-4"
     inkscape:window-y="25"
     inkscape:window-maximized="0"
     inkscape:current-layer="svg591" />
  <path
     fill-rule="evenodd"
     clip-rule="evenodd"
     d="M84.1907 22.9024L51.5701 4.06896C49.3322 2.77689 46.575 2.77689 44.337 4.06896L11.7165 22.9024C9.47853 24.1945 8.09991 26.5824 8.09991 29.1665V66.8335C8.09991 69.4176 9.47853 71.8055 11.7165 73.0975L44.337 91.931C46.575 93.2231 49.3322 93.2231 51.5701 91.931L84.1907 73.0975C86.4286 71.8055 87.8072 69.4176 87.8072 66.8335V29.1665C87.8072 26.5824 86.4286 24.1945 84.1907 22.9024ZM53.1201 1.38436C49.923 -0.461454 45.9841 -0.461455 42.7871 1.38436L10.1665 20.2178C6.96946 22.0637 5 25.4749 5 29.1665V66.8335C5 70.5251 6.96946 73.9363 10.1665 75.7821L42.7871 94.6156C45.9841 96.4614 49.923 96.4614 53.1201 94.6156L85.7406 75.7821C88.9377 73.9363 90.9071 70.5251 90.9071 66.8335V29.1665C90.9071 25.4749 88.9377 22.0637 85.7406 20.2178L53.1201 1.38436Z"
     fill="#2B98D8"
     id="path329" />
  <g
     id="g192233"
     transform="matrix(0.21418919,0,0,0.21621061,94.650523,29.023407)">
    <path
       d="m -191.06596,38.736217 v 19.22 h 22.72 v -20.14 l -11.16,-2.74 z"
       id="fire"
       style="fill:#f7931e;fill-opacity:1;stroke:none" />
    <path
       d="m -192.25596,41.566217 c 0.23,-0.63 1.25,-1.52 2.83,-2.36 2.32,-1.24 5.84,-2.38 9.79,-2.43 6.63,-0.1 12.1,2.87 12.7,4.41 h 0.06 v -0.01 c -0.06,-3.58 -5.2,-10.05 -11.7,-10.26 l -3.15,0.11 c -6.05,0.62 -10.64,7.12 -10.59,10.53 v 0.01 z"
       id="cap"
       style="fill:#164c6c;fill-opacity:1;fill-rule:nonzero;stroke:none" />
    <g
       id="column"
       style="fill:url(#lG_column);stroke:none"
       transform="translate(-819.64596,-25.903783)">
      <path
         d="m 635.55,75.19 c -6.21,0.44 -11.87,2.99 -11.87,2.99 v 0 5.38 c 0,0 -0.03,1.36 2.63,2.25 v 0 l 0.13,5.46 c -7.22,0.95 -12.04,2.56 -12.01,4.31 v 0 c 0,0.44 2.25,3.62 2.25,3.62 v 0 c 0,0 0.78,0.96 1.72,1.1 v 0 c 0.94,0.14 2.58,0.95 3.64,1.82 v 0 c 1.07,0.87 1.95,2.52 1.97,3.69 v 0 c 0.02,1.16 1.2,2.1 2.62,2.07 v 0 l 3.39,-0.05 c -4.06,2.31 -5.35,4.76 -6.55,6.46 v 0 c -1.24,1.74 -2.28,16.8 -2.28,16.8 v 0 c 0,0 0.57,-1.52 2.88,-5.11 v 0 c 2.31,-3.58 11.46,-8.51 18.35,-12.25 v 0 c 5.78,-3.14 11.02,-6.26 11.02,-6.26 v 0 c 1.34,-0.78 2.55,-1.43 2.55,-2.58 v 0 c 0,-1.4 0.59,-3.08 1.35,-3.73 v 0 c 0.76,-0.67 2.15,-1.33 3.09,-1.5 v 0 c 0.93,-0.16 1.68,-1.15 1.68,-1.15 v 0 c 0,0 2.14,-3.25 2.13,-3.69 v 0 c -0.02,-1.67 -4.44,-3.07 -11.12,-3.83 v 0 l -0.13,-5.41 c 1.94,-0.59 3.09,-1.28 3.07,-2.02 v 0 -5.38 c 0,0 -5.07,-2.81 -11.83,-3.11 v 0 c -2.42,0 -6.33,0 -8.67,0.12"
         id="top"
         style="fill:#9f0b0b;fill-opacity:1" />
      <path
         d="m 642.45,128.1 c -15.04,7.24 -22.43,10.89 -23.5,18.67 v 0 c -1.07,7.78 -2.22,15.42 -2.22,15.42 v 0 c 0.93,-5.6 11.84,-12.19 22.76,-17.5 v 0 c 10.92,-5.3 18.74,-8.75 18.23,-14.51 v 0 c -0.45,-5.14 -1.54,-12.22 -1.77,-13.67 v 0 c 0.08,1.08 -0.57,5.38 -13.49,11.6"
         id="middle"
         style="fill:#54668f;fill-opacity:1" />
      <path
         d="m 640.26,162.25 c -20.34,9.48 -25.38,12.09 -25.97,17.91 v 0 c -0.51,5.01 -1.68,15.57 -2,18.42 v 0 c 0.39,-1.55 2.49,-5.54 13.28,-11.4 v 0 c 14.1,-7.67 36.69,-14.04 36.14,-22.06 v 0 c -0.54,-8.02 -2.06,-18.59 -2.06,-18.59 v 0 c 0,0 0.94,6.24 -19.4,15.73"
         id="bottom"
         style="fill:#3297d4;fill-opacity:1" />
    </g>
    <path
       d="m -120.70596,-8.073783 c -78.62,68.64 -72.74,53.81 -18,45.42 -54.74,8.39 -63.63,-4.87 27.19,40.57 -90.82,-45.44 -74.9,-44.42 -48.75,-3.09 -26.15,-41.33 -16.29,-53.88 -30.19,38.410003 13.9,-92.290003 17.86,-76.830003 -12.12,-47.320003 29.99,-29.51 44.96,-24.01 -45.85,-16.84 90.82,-7.17 77.34,1.37 41.26,-26.16 36.08,27.52 35.48,43.47 1.84,-48.82 33.63,92.3 21.35,82.11 37.62,31.17 -16.27,50.94 -31.63,55.3 47,-13.34"
       id="flare"
       style="opacity:0.7;fill:#ffffff;fill-opacity:1;fill-rule:nonzero;stroke:none" />
  </g>
  <path
     id="path40521-3"
     style="fill:#2b98d8;fill-opacity:1;fill-rule:evenodd;stroke-width:0.918895"
     d="M 47.8285,26.2078 A 23.969112,22.980696 0 0 0 23.857792,49.188273 23.969112,22.980696 0 0 0 47.8285,72.168733 23.969112,22.980696 0 0 0 71.79725,49.188273 23.969112,22.980696 0 0 0 47.8285,26.2078 Z m 3.232422,3.068359 a 18.726376,20.087482 0 0 1 18.726562,20.087894 18.726376,20.087482 0 0 1 -18.726562,20.08593 18.726376,20.087482 0 0 1 -18.72656,-20.08593 18.726376,20.087482 0 0 1 18.72656,-20.087894 z" />
</svg>
