<svg width="3126" height="3130" viewBox="0 0 3126 3130" fill="none" xmlns="http://www.w3.org/2000/svg">
<path d="M1558.94 34.9603C1561.44 33.4809 1564.56 33.4809 1567.06 34.9603L2856.26 795.46C2858.7 796.898 2860.2 799.519 2860.2 802.35V2323.65C2860.2 2326.48 2858.7 2329.1 2856.26 2330.54L1567.06 3091.04C1564.56 3092.52 1561.44 3092.52 1558.94 3091.04L269.738 2330.54C267.299 2329.1 265.802 2326.48 265.802 2323.65V802.35C265.802 799.519 267.299 796.898 269.738 795.46L1558.94 34.9603Z" fill="white"/>
<path fill-rule="evenodd" clip-rule="evenodd" d="M2744.25 746.567L1680.89 132.639C1607.94 90.5202 1518.06 90.5202 1445.11 132.639L381.754 746.567C308.802 788.686 263.862 866.524 263.862 950.761V2178.62C263.862 2262.85 308.802 2340.69 381.754 2382.81L1445.11 2996.74C1518.06 3038.86 1607.94 3038.86 1680.89 2996.74L2744.25 2382.81C2817.2 2340.69 2862.14 2262.85 2862.14 2178.62V950.761C2862.14 866.524 2817.2 788.686 2744.25 746.567ZM1731.42 45.1271C1627.2 -15.0423 1498.8 -15.0424 1394.58 45.127L331.229 659.055C227.012 719.225 162.812 830.422 162.812 950.761V2178.62C162.812 2298.96 227.012 2410.15 331.229 2470.32L1394.58 3084.25C1498.8 3144.42 1627.2 3144.42 1731.42 3084.25L2794.77 2470.32C2898.99 2410.15 2963.19 2298.96 2963.19 2178.62V950.761C2963.19 830.422 2898.99 719.225 2794.77 659.055L1731.42 45.1271Z" fill="#0D8208"/>
<path fill-rule="evenodd" clip-rule="evenodd" d="M1982.85 993.726C2017.8 1022.88 2050.05 1055.13 2079.21 1090.09C2178.16 1238.88 2159.8 1374.24 2024.15 1496.17C1937.47 1558.76 1841.11 1600.06 1735.07 1620.06C1771.73 1644.84 1796.97 1679.25 1810.78 1723.3C1857.84 1763.4 1896.84 1809.28 1927.79 1860.96C1910.48 1901.25 1882.95 1933.37 1845.2 1957.32L1748.84 1874.73C1724.72 1839.83 1697.04 1807.54 1666.24 1778.37C1657.45 1760.39 1642.92 1745.86 1624.95 1737.07C1606.91 1714.39 1588.56 1691.45 1569.88 1668.24C1626.21 1596.61 1685.93 1527.7 1748.84 1461.76C1840.07 1441.66 1915.79 1395.77 1975.97 1324.1C2004.33 1281.81 2002.03 1245.11 1969.09 1213.98C1982.85 1196.24 1980.56 1177.88 1962.2 1158.91C1938.13 1139.02 1912.84 1120.63 1886.49 1103.85C1768.2 1035.14 1639.72 991.551 1501.05 973.078C1360.44 946.705 1217.15 937.46 1074.32 945.547C1246.5 1110.77 1411.82 1282.98 1569.88 1461.76C1544.43 1503.81 1511.82 1541.08 1473.52 1571.88C1239.35 1328.54 1009.88 1080.71 785.242 828.539C1070.01 802.446 1356.97 814.017 1638.71 862.953C1759.96 891.861 1874.67 935.452 1982.85 993.726Z" fill="#0D8208"/>
<path fill-rule="evenodd" clip-rule="evenodd" d="M2079.21 1090.09C2050.05 1055.13 2017.8 1022.88 1982.85 993.727C2035.67 938.475 2086.19 881.07 2134.27 821.656C2189.34 812.479 2244.4 812.479 2299.46 821.656L2313.23 835.422C2237.58 922.448 2159.55 1007.37 2079.21 1090.09Z" fill="#109A0C"/>
<path fill-rule="evenodd" clip-rule="evenodd" d="M1886.49 1103.85C1780.91 1223.11 1675.37 1342.41 1569.88 1461.76C1411.82 1282.99 1246.5 1110.77 1074.32 945.547C1217.15 937.461 1360.44 946.705 1501.05 973.078C1639.72 991.552 1768.2 1035.14 1886.49 1103.85Z" fill="#FDFEFD"/>
<path fill-rule="evenodd" clip-rule="evenodd" d="M1886.49 1103.85C1912.84 1120.63 1938.13 1139.02 1962.2 1158.91C1980.56 1177.88 1982.85 1196.24 1969.09 1213.98C1900.61 1300.84 1827.07 1383.57 1748.84 1461.76C1685.93 1527.7 1626.21 1596.61 1569.88 1668.24C1588.56 1691.45 1606.91 1714.39 1624.95 1737.07C1567.47 1743.23 1511.54 1759.55 1459.76 1785.25L1019.26 2294.58C959.96 2303.76 899.603 2303.76 840.305 2294.58C1053.87 2055.88 1264.96 1814.97 1473.52 1571.88C1511.82 1541.08 1544.43 1503.81 1569.88 1461.76C1675.02 1342.8 1780.56 1223.5 1886.49 1103.85Z" fill="#0D9909"/>
<path fill-rule="evenodd" clip-rule="evenodd" d="M1969.09 1213.98C2002.03 1245.11 2004.33 1281.81 1975.97 1324.1C1915.79 1395.77 1840.07 1441.66 1748.84 1461.76C1827.07 1383.57 1900.61 1300.84 1969.09 1213.98Z" fill="#F2F9F1"/>
<path fill-rule="evenodd" clip-rule="evenodd" d="M2024.15 1957.32C1991.53 1989.92 1963.72 2027 1941.55 2067.44C1870.3 2118.19 1835.89 2187.01 1838.31 2273.93C1851.02 2281.44 1862.61 2290.71 1872.73 2301.46C1800.91 2327.97 1738.96 2314.21 1686.89 2260.16C1680.23 2226.94 1684.82 2194.82 1700.66 2163.8C1748.97 2094.57 1797.15 2025.74 1845.2 1957.32C1882.95 1933.37 1910.48 1901.25 1927.79 1860.96C1992.45 1807.71 2038.34 1741.17 2065.45 1661.36C2060.97 1643.03 2051.43 1626.34 2037.91 1613.18C2205.87 1576.65 2249.46 1631.72 2168.69 1778.37C2117.91 1835.87 2069.68 1895.58 2024.15 1957.32Z" fill="#179411"/>
<path fill-rule="evenodd" clip-rule="evenodd" d="M1666.24 1778.37C1697.04 1807.54 1724.72 1839.83 1748.84 1874.73C1652.58 2023.96 1542.45 2163.91 1418.46 2294.58C1368.4 2303.76 1317.1 2303.76 1267.04 2294.58C1370.56 2186.53 1469.31 2074 1563 1957.32C1604.38 1901.97 1639.03 1841.9 1666.24 1778.37Z" fill="#109A0C"/>
<path fill-rule="evenodd" clip-rule="evenodd" d="M2024.15 1957.32C2118.02 2067.35 2214.41 2175.21 2313.23 2280.81C2253.93 2289.99 2193.57 2289.99 2134.27 2280.81C2072.45 2207.55 2008.17 2136.38 1941.55 2067.45C1963.72 2027 1991.53 1989.92 2024.15 1957.32Z" fill="#0C8208"/>
</svg>
