<svg width="96" height="96" fill="none" xmlns="http://www.w3.org/2000/svg">
  <path d="M44 2.3093a8 8 0 018 0l33.5692 19.3812a8 8 0 014 6.9282v38.7624a7.9998 7.9998 0 01-4 6.9282L52 93.6905a7.9998 7.9998 0 01-8 0L10.4308 74.3093a7.9998 7.9998 0 01-4-6.9282V28.6187a8 8 0 014-6.9282L44 2.3093z" fill="#fff"/>
  <path fill-rule="evenodd" clip-rule="evenodd" d="M84.1907 22.9024L51.5701 4.069a7.233 7.233 0 00-7.2331 0L11.7165 22.9024a7.2332 7.2332 0 00-3.6166 6.2641v37.667a7.233 7.233 0 003.6166 6.264L44.337 91.931a7.233 7.233 0 007.2331 0l32.6206-18.8335a7.233 7.233 0 003.6165-6.264v-37.667a7.2333 7.2333 0 00-3.6165-6.2641zM53.1201 1.3844a10.333 10.333 0 00-10.333 0L10.1665 20.2178A10.3332 10.3332 0 005 29.1665v37.667a10.333 10.333 0 005.1665 8.9486l32.6206 18.8335a10.333 10.333 0 0010.333 0l32.6205-18.8335a10.3328 10.3328 0 005.1665-8.9486v-37.667a10.3331 10.3331 0 00-5.1665-8.9487L53.1201 1.3844z" fill="#74574A"/>
  <path d="M25.5 54.453V41.25h4.6778c.7155 0 1.3837.0742 2.0047.2227.6345.135 1.1812.3713 1.6402.7088.4725.324.8438.7627 1.1138 1.3162.27.54.405 1.2083.405 2.0048 0 .7695-.1418 1.4377-.4253 2.0047-.27.567-.6412 1.0328-1.1137 1.3973-.4725.3645-1.0193.6345-1.6403.81-.621.1755-1.2824.2633-1.9844.2633h-1.701v4.4752H25.5zm2.9768-6.8445h1.5187c1.62 0 2.43-.702 2.43-2.106 0-.6885-.2093-1.1745-.6278-1.458-.405-.2835-1.0057-.4253-1.8022-.4253h-1.5187v3.9893zM41.5908 54.696a5.5063 5.5063 0 01-1.9237-.3442c-.6075-.243-1.1543-.5873-1.6403-1.0328-.4725-.4455-.8505-.9922-1.134-1.6402-.2835-.6615-.4252-1.4108-.4252-2.2478 0-.837.1417-1.5795.4252-2.2275.2835-.6615.6615-1.215 1.134-1.6605.486-.4455 1.0328-.783 1.6403-1.0125.621-.243 1.2622-.3645 1.9237-.3645s1.296.1215 1.9035.3645c.621.2295 1.1678.567 1.6403 1.0125.486.4455.8707.999 1.1542 1.6605.2835.648.4253 1.3905.4253 2.2275s-.1418 1.5863-.4253 2.2478c-.2835.648-.6682 1.1947-1.1542 1.6402-.4725.4455-1.0193.7898-1.6403 1.0328-.6075.2295-1.242.3442-1.9035.3442zm0-2.4097c.6885 0 1.2015-.2565 1.539-.7695.351-.513.5265-1.2083.5265-2.0858s-.1755-1.5728-.5265-2.0858c-.3375-.513-.8505-.7694-1.539-.7694-.6885 0-1.2082.2564-1.5592.7694-.3375.513-.5063 1.2083-.5063 2.0858s.1688 1.5728.5063 2.0858c.351.513.8707.7695 1.5592.7695zM48.5084 54.453V44.409h2.43l.2228 1.3365h.081c.432-.432.9247-.8032 1.4782-1.1137.567-.3105 1.2285-.4658 1.9845-.4658 1.134 0 1.9643.3645 2.4908 1.0935.5265.729.7897 1.728.7897 2.997v6.1965h-2.9767v-5.8117c0-.675-.108-1.1678-.324-1.4783-.216-.3105-.6008-.4657-1.1543-.4657-.405 0-.7627.0877-1.0732.2632-.297.1755-.621.4388-.972.7898v6.7027h-2.9768zM61.4808 58.3815c-.297 0-.5738-.0202-.8303-.0607-.2565-.027-.4927-.0743-.7087-.1418l.5265-2.268a2.607 2.607 0 00.7897.1215c.5805 0 1.0328-.1215 1.3568-.3645.3375-.243.5872-.5602.7492-.9517l.2025-.5265-4.3537-9.7808h2.9565l1.6807 4.3133c.189.4725.3645.9652.5265 1.4782.162.4995.324 1.0125.486 1.539h.081c.135-.4995.2835-.999.4455-1.4985.162-.513.3173-1.0192.4658-1.5187l1.4782-4.3133h2.8148l-3.969 10.1453c-.243.6345-.5063 1.188-.7898 1.6605-.2835.486-.6075.8842-.972 1.1947-.3645.324-.7897.567-1.2757.729-.4725.162-1.026.243-1.6605.243z" fill="#74574A"/>
</svg>
