<svg width="96" height="96" fill="none" xmlns="http://www.w3.org/2000/svg">
  <path d="M44 2.3093a8 8 0 018 0l33.5692 19.3812a8 8 0 014 6.9282v38.7624a7.9998 7.9998 0 01-4 6.9282L52 93.6905a7.9998 7.9998 0 01-8 0L10.4308 74.3093a7.9998 7.9998 0 01-4-6.9282V28.6187a8 8 0 014-6.9282L44 2.3093z" fill="#fff"/>
  <path fill-rule="evenodd" clip-rule="evenodd" d="M84.1907 22.9024L51.5701 4.069a7.233 7.233 0 00-7.2331 0L11.7165 22.9024a7.2332 7.2332 0 00-3.6166 6.2641v37.667a7.233 7.233 0 003.6166 6.264L44.337 91.931a7.233 7.233 0 007.2331 0l32.6206-18.8335a7.233 7.233 0 003.6165-6.264v-37.667a7.2333 7.2333 0 00-3.6165-6.2641zM53.1201 1.3844a10.333 10.333 0 00-10.333 0L10.1665 20.2178A10.3332 10.3332 0 005 29.1665v37.667a10.333 10.333 0 005.1665 8.9486l32.6206 18.8335a10.333 10.333 0 0010.333 0l32.6205-18.8335a10.333 10.333 0 005.1666-8.9486v-37.667a10.3332 10.3332 0 00-5.1666-8.9487L53.1201 1.3844z" fill="#36287B"/>
  <path d="M69.4599 30H33.6448c-1.1847 0-2.212.8019-2.4754 1.9324l-7.1048 30.4881c-.3589 1.5399.8221 3.0124 2.4358 3.0371l35.4489.5421c1.1926.0182 2.2374-.7785 2.511-1.9147l7.4709-31.0302c.3756-1.56-.8337-3.0548-2.4713-3.0548z" fill="#152130"/>
  <path d="M69.4599 30H33.6448c-1.1847 0-2.212.8019-2.4754 1.9324l-7.1048 30.4881c-.3589 1.5399.8221 3.0124 2.4358 3.0371l35.4489.5421c1.1926.0182 2.2374-.7785 2.511-1.9147l7.4709-31.0302c.3756-1.56-.8337-3.0548-2.4713-3.0548z" fill="url(#paint0_linear)"/>
  <path d="M54.7309 47.7495L43.7634 36.3341c-.2591-.2697-.5587-.5049-.9083-.6464-.8434-.3414-1.4868-.3265-2.392.0315-.315.1246-.5739.3585-.7257.6559-.2834.5553-.3943.9944-.3409 1.5055.0518.4957.3482.9265.6972 1.2894l8.9771 9.3349c.3459.3598.2953.934-.1085 1.2304L34.628 60.2569c-.6109.4484-.9625 1.1938-.756 1.9133.2765.9633.7375 1.5 1.5953 1.8482.5668.2301 1.2073.0742 1.7031-.2796l17.2067-12.2793c1.2342-.8807 1.4002-2.6209.3538-3.71z" fill="#487FD0"/>
  <path d="M53.1346 45.7571L42.1671 34.3417c-.2591-.2697-.5588-.505-.9083-.6464-.8434-.3414-1.4868-.3265-2.392.0315-.315.1246-.5739.3585-.7257.6559-.2834.5553-.3943.9943-.3409 1.5054.0518.4958.3482.9266.6972 1.2895l8.9771 9.3349c.3459.3597.2952.9339-.1085 1.2303L33.0317 58.2645c-.6109.4484-.9625 1.1938-.756 1.9133.2765.9633.7375 1.5 1.5953 1.8482.5668.23 1.2073.0742 1.7031-.2796l17.2067-12.2793c1.2342-.8807 1.4002-2.6209.3538-3.71z" fill="#fff"/>
  <path d="M47.392 61.1899c0-1.1437.9473-2.0708 2.1159-2.0708h9.3096c1.1685 0 2.1158.9271 2.1158 2.0708 0 1.1436-.9473 2.0707-2.1158 2.0707h-9.3096c-1.1686 0-2.1159-.9271-2.1159-2.0707z" fill="#487FD0"/>
  <path d="M45.3725 59.1975c0-1.1437.9473-2.0708 2.1158-2.0708h9.3097c1.1685 0 2.1158.9271 2.1158 2.0708 0 1.1436-.9473 2.0707-2.1158 2.0707h-9.3097c-1.1685 0-2.1158-.9271-2.1158-2.0707z" fill="#fff"/>
  <defs>
    <linearGradient id="paint0_linear" x1="48.0173" y1="30" x2="48.0173" y2="66.0309" gradientUnits="userSpaceOnUse">
      <stop stop-color="#382680"/>
      <stop offset="1" stop-color="#1C2F47"/>
    </linearGradient>
  </defs>
</svg>
