<svg width="96" height="96" viewBox="0 0 96 96" fill="none" xmlns="http://www.w3.org/2000/svg">
<path d="M44 2.30935C46.4752 0.880283 49.5248 0.880284 52 2.30935L85.5692 21.6905C88.0444 23.1196 89.5692 25.7606 89.5692 28.6187V67.3811C89.5692 70.2393 88.0444 72.8803 85.5692 74.3093L52 93.6905C49.5248 95.1196 46.4752 95.1196 44 93.6905L10.4308 74.3093C7.95558 72.8803 6.43079 70.2393 6.43079 67.3811V28.6187C6.43079 25.7606 7.95558 23.1196 10.4308 21.6905L44 2.30935Z" fill="white"/>
<path fill-rule="evenodd" clip-rule="evenodd" d="M84.1907 22.9024L51.5701 4.06896C49.3322 2.77689 46.575 2.77689 44.337 4.06896L11.7165 22.9024C9.47853 24.1945 8.09991 26.5824 8.09991 29.1665V66.8335C8.09991 69.4176 9.47853 71.8055 11.7165 73.0975L44.337 91.931C46.575 93.2231 49.3322 93.2231 51.5701 91.931L84.1907 73.0975C86.4286 71.8055 87.8072 69.4176 87.8072 66.8335V29.1665C87.8072 26.5824 86.4286 24.1945 84.1907 22.9024ZM53.1201 1.38436C49.923 -0.461454 45.9841 -0.461455 42.7871 1.38436L10.1665 20.2178C6.96946 22.0637 5 25.4749 5 29.1665V66.8335C5 70.5251 6.96946 73.9363 10.1665 75.7821L42.7871 94.6156C45.9841 96.4614 49.923 96.4614 53.1201 94.6156L85.7406 75.7821C88.9377 73.9363 90.9071 70.5251 90.9071 66.8335V29.1665C90.9071 25.4749 88.9377 22.0637 85.7406 20.2178L53.1201 1.38436Z" fill="#14161A"/>
<path d="M58.1006 58.6602L54.353 55.1138H37.8959L41.644 58.6602H58.1006Z" fill="#14161A"/>
<path d="M41.644 46.228L37.8965 49.7745H54.353L58.1006 46.228H41.644Z" fill="#14161A"/>
<path d="M58.0995 40.8875L54.3531 37.3398H37.8977L41.6441 40.8875H58.0995Z" fill="#14161A"/>
<path d="M36.1651 44.3974L33.6892 41.8882L24.5103 51.1895C24.1809 51.5233 23.9988 51.9699 24 52.4441C24 52.9183 24.1809 53.3632 24.5103 53.6976L33.6892 63L36.1651 60.4919L28.2242 52.4441L36.1651 44.3974Z" fill="#14161A"/>
<path d="M71.4868 42.3036L62.3114 33L59.8366 35.5087L67.7735 43.5571L59.8366 51.6049L62.3114 54.113L71.4868 44.8129C71.8173 44.4768 72 44.0302 72 43.5559C71.9982 43.0817 71.8168 42.6374 71.4868 42.3036Z" fill="#14161A"/>
</svg>
