<svg width="96" height="96" fill="none" xmlns="http://www.w3.org/2000/svg">
  <path d="M43.9999 2.3093a8 8 0 0 1 8 0l33.5692 19.3812a8 8 0 0 1 4 6.9282v38.7624a7.9998 7.9998 0 0 1-4 6.9282L51.9999 93.6905a7.9998 7.9998 0 0 1-8 0L10.4307 74.3093a7.9998 7.9998 0 0 1-4-6.9282V28.6187a8 8 0 0 1 4-6.9282L43.9999 2.3093Z" fill="#fff"/>
  <path fill-rule="evenodd" clip-rule="evenodd" d="M84.1907 22.9024 51.5701 4.069a7.233 7.233 0 0 0-7.2331 0L11.7165 22.9024a7.2332 7.2332 0 0 0-3.6166 6.2641v37.667a7.233 7.233 0 0 0 3.6166 6.264L44.337 91.931a7.233 7.233 0 0 0 7.2331 0l32.6206-18.8335a7.233 7.233 0 0 0 3.6165-6.264v-37.667a7.2333 7.2333 0 0 0-3.6165-6.2641ZM53.1201 1.3844a10.333 10.333 0 0 0-10.333 0L10.1665 20.2178A10.3332 10.3332 0 0 0 5 29.1665v37.667a10.333 10.333 0 0 0 5.1665 8.9486l32.6206 18.8335a10.333 10.333 0 0 0 10.333 0l32.6205-18.8335a10.3328 10.3328 0 0 0 5.1665-8.9486v-37.667a10.3331 10.3331 0 0 0-5.1665-8.9487L53.1201 1.3844Z" fill="#139456"/>
  <path d="m51.6904 72-4.7111-6.9808c-1.3958.3077-2.7568.4616-4.0829.4616-3.4547 0-6.6303-.8846-9.5267-2.6539-2.8615-1.7692-5.1472-4.2307-6.8572-7.3846C24.8375 52.25 24 48.6731 24 44.7115c0-3.9615.8375-7.5192 2.5125-10.673 1.71-3.1539 3.9957-5.6154 6.8572-7.3847C36.2661 24.8846 39.4417 24 42.8964 24c3.4548 0 6.6129.8846 9.4744 2.6538 2.8964 1.7693 5.1647 4.2308 6.8048 7.3847 1.6751 3.1538 2.5126 6.7115 2.5126 10.673 0 3.4616-.6456 6.6347-1.9368 9.5193-1.2562 2.8461-3.0185 5.2115-5.2868 7.0961L62.5257 72H51.6904ZM33.1603 44.7115c0 3.577.8724 6.4423 2.6173 8.5962 1.7797 2.1154 4.1526 3.1731 7.1188 3.1731 2.9313 0 5.2694-1.077 7.0142-3.2308 1.7797-2.1538 2.6696-5 2.6696-8.5385 0-3.5769-.8899-6.423-2.6696-8.5384-1.7448-2.1539-4.0829-3.2308-7.0142-3.2308-2.9662 0-5.3391 1.0577-7.1188 3.1731-1.7449 2.1154-2.6173 4.9808-2.6173 8.5961Z" fill="#139456"/>
  <path fill-rule="evenodd" clip-rule="evenodd" d="M58.2595 36.9807H72v18.0289H58.2595V36.9807Zm5.0708 2.8846h1.7526l-.2844 2.9834h1.9938l.2922-2.9834h1.7525l-.2843 2.9834h1.5776v1.8383h-1.7529l-.2516 2.6399h1.5138v1.8382h-1.689l-.3111 3.263H65.854l.3196-3.263h-1.9772l-.311 3.263h-1.7855l.3196-3.263h-1.5428v-1.8382h1.7228l.2586-2.6399h-1.4906v-1.8383h1.6706l.2922-2.9834Zm1.0414 7.4616h1.982l.2585-2.6399h-1.9889l-.2516 2.6399Z" fill="#139456"/>
</svg>
