<svg width="96" height="96" fill="none" xmlns="http://www.w3.org/2000/svg">
  <path d="M43.9999 2.3093a8 8 0 0 1 8 0l33.5692 19.3812a8 8 0 0 1 4 6.9282v38.7624a7.9998 7.9998 0 0 1-4 6.9282L51.9999 93.6905a7.9998 7.9998 0 0 1-8 0L10.4307 74.3093a7.9998 7.9998 0 0 1-4-6.9282V28.6187a8 8 0 0 1 4-6.9282L43.9999 2.3093Z" fill="#fff"/>
  <path fill-rule="evenodd" clip-rule="evenodd" d="M84.1907 22.9024 51.5701 4.069a7.233 7.233 0 0 0-7.2331 0L11.7165 22.9024a7.2332 7.2332 0 0 0-3.6166 6.2641v37.667a7.233 7.233 0 0 0 3.6166 6.264L44.337 91.931a7.233 7.233 0 0 0 7.2331 0l32.6206-18.8335a7.233 7.233 0 0 0 3.6165-6.264v-37.667a7.2333 7.2333 0 0 0-3.6165-6.2641ZM53.1201 1.3844a10.333 10.333 0 0 0-10.333 0L10.1665 20.2178A10.3332 10.3332 0 0 0 5 29.1665v37.667a10.333 10.333 0 0 0 5.1665 8.9486l32.6206 18.8335a10.333 10.333 0 0 0 10.333 0l32.6205-18.8335a10.3328 10.3328 0 0 0 5.1665-8.9486v-37.667a10.3331 10.3331 0 0 0-5.1665-8.9487L53.1201 1.3844Z" fill="#426228"/>
  <path d="M41.4546 40.3635v1.0909c.6545.6546 1.0909 1.6364 1.0909 2.6182v7.0909c0 2.1818-.6546 4.3637-1.9637 6.2182l-7.4181 10.6909c-.3273.4364-.4364.8727-.4364 1.4182 0 1.4182 1.0909 2.5091 2.5091 2.5091h25.5273c1.4181 0 2.5091-1.0909 2.5091-2.5091 0-.5455-.1091-.9818-.4364-1.4182l-7.4182-10.6909c-1.3091-1.8545-1.9636-4.0364-1.9636-6.2182v-7.0909c0-.9818.4363-1.9636 1.0909-2.6182v-1.0909H41.4546ZM51.2726 28.3636c1.205 0 2.1819-.9768 2.1819-2.1818S52.4776 24 51.2726 24c-1.2049 0-2.1818.9768-2.1818 2.1818s.9769 2.1818 2.1818 2.1818ZM43.6364 36.0001c1.205 0 2.1818-.9768 2.1818-2.1818s-.9768-2.1818-2.1818-2.1818-2.1818.9768-2.1818 2.1818.9768 2.1818 2.1818 2.1818ZM50.1818 39.2728c1.205 0 2.1818-.9768 2.1818-2.1818s-.9768-2.1818-2.1818-2.1818S48 35.886 48 37.091s.9768 2.1818 2.1818 2.1818Z" fill="#63913F"/>
  <path d="M50.1818 39.2728c1.205 0 2.1818-.9768 2.1818-2.1818s-.9768-2.1818-2.1818-2.1818S48 35.886 48 37.091s.9768 2.1818 2.1818 2.1818Z" fill="#90C962"/>
  <path d="M51.0546 35.1272c.1091.3273.2182.5455.2182.8727 0 1.2-.9818 2.1818-2.1818 2.1818-.3273 0-.6546-.109-.8727-.2181.3272.7636 1.0909 1.3091 1.9636 1.3091 1.2 0 2.1818-.9819 2.1818-2.1819 0-.8727-.5454-1.6363-1.3091-1.9636ZM44.5092 31.8545c.1091.2182.2182.5454.2182.8727 0 1.2-.9818 2.1818-2.1818 2.1818-.3273 0-.6546-.1091-.8727-.2181.3272.7636 1.0909 1.309 1.9636 1.309 1.2 0 2.1818-.9818 2.1818-2.1818 0-.8727-.5454-1.6363-1.3091-1.9636ZM52.1454 24.2183c.1091.2181.2182.5454.2182.8727 0 1.2-.9818 2.1818-2.1818 2.1818-.3273 0-.6545-.1091-.8727-.2182.3273.7637 1.0909 1.3091 1.9636 1.3091 1.2 0 2.1818-.9818 2.1818-2.1818 0-.8727-.5454-1.6364-1.3091-1.9636Z" fill="#71B956"/>
  <path d="M53.4547 33.8183c.6025 0 1.0909-.4884 1.0909-1.0909s-.4884-1.0909-1.0909-1.0909-1.0909.4884-1.0909 1.0909.4884 1.0909 1.0909 1.0909ZM48.0001 31.6364c.6025 0 1.0909-.4884 1.0909-1.0909s-.4884-1.0909-1.0909-1.0909-1.0909.4884-1.0909 1.0909.4884 1.0909 1.0909 1.0909Z" fill="#90C962"/>
  <path d="m62.8364 68.0726-7.4182-10.6909c-1.3091-1.8545-1.9636-4.0364-1.9636-6.2182v-7.0909c0-.9818.4364-1.9636 1.0909-2.6182v-1.0909h-4.3636v1.0909h-8.7273c.3273.3273.5454.6546.7636 1.0909h4.8c1.2 0 2.0728.9819 2.0728 2.1819v6.4363c0 2.1818.6545 4.3637 1.9636 6.2182l5.5636 10.6909c.3273.4364.4364.8727.4364 1.4182 0 1.4182-1.0909 2.5091-2.5091 2.5091h6.1091c.8727 0 1.6364-.4364 2.1818-1.0909.6546-.8727.5455-2.0727 0-2.8364Z" fill="#B0C4D9"/>
  <path d="M43.0909 40.3635h3.2727c.3273 0 .5454.2182.5454.5455s-.2181.5454-.5454.5454h-3.2727c-.3273 0-.5455-.2181-.5455-.5454 0-.3273.2182-.5455.5455-.5455ZM44.7274 45.2727v6.5455c0 .3273-.2182.5455-.5455.5455-.3272 0-.5454-.2182-.5454-.5455v-6.5455c0-.3272.2182-.5454.5454-.5454.3273 0 .5455.2182.5455.5454ZM43.6365 54c0-.3272.2182-.5454.5454-.5454.3273 0 .5455.2182.5455.5454 0 .3273-.2182.5455-.5455.5455-.3272 0-.5454-.2182-.5454-.5455Z" fill="#ECF0F9"/>
  <path d="M32.7273 69.4909c0 1.4182 1.0909 2.5091 2.5091 2.5091h25.5273c.6545 0 1.309-.3272 1.7454-.7636.4364-.4364.7637-1.0909.7637-1.7455 0-.5454-.1091-.9818-.4364-1.4181l-5.7818-8.4C54 58.5818 49.7455 58.6909 47.0182 60c-2.4 1.0909-5.7818 1.4182-8.6182.7637l-5.1273 7.3091c-.4363.4363-.5454.8727-.5454 1.4181Z" fill="#90C962"/>
  <path d="M48.0001 64.3637c.6025 0 1.0909-.4884 1.0909-1.0909s-.4884-1.0909-1.0909-1.0909-1.0909.4884-1.0909 1.0909.4884 1.0909 1.0909 1.0909ZM42 64.3636a.5454.5454 0 1 0 .0001-1.0909A.5454.5454 0 0 0 42 64.3636ZM38.1817 66.5453c.6025 0 1.0909-.4884 1.0909-1.0909s-.4884-1.0909-1.0909-1.0909-1.0909.4884-1.0909 1.0909.4884 1.0909 1.0909 1.0909ZM43.6363 69.8183c.6025 0 1.0909-.4884 1.0909-1.0909s-.4884-1.0909-1.0909-1.0909-1.0909.4884-1.0909 1.0909.4884 1.0909 1.0909 1.0909ZM47.4546 67.6363a.5454.5454 0 1 0 .0001-1.0909.5454.5454 0 0 0-.0001 1.0909ZM51.8182 65.4544a.5454.5454 0 1 0 0-1.0908.5454.5454 0 0 0 0 1.0908ZM39.8182 68.7274a.5454.5454 0 1 0 0-1.0909.5454.5454 0 0 0 0 1.0909ZM53.4547 69.8183c.6025 0 1.0909-.4884 1.0909-1.0909s-.4884-1.0909-1.0909-1.0909-1.0909.4884-1.0909 1.0909.4884 1.0909 1.0909 1.0909ZM38.4001 60.5455c.6546-.9818 1.8546-1.6363 3.0546-1.6363 1.9636 0 3.9272.3273 5.4545 1.0909-1.5273.7636-3.4909 1.0909-5.4545 1.0909-1.091 0-2.1819-.1091-3.1637-.3273l.1091-.2182Z" fill="#71B956"/>
  <path d="m62.8363 68.0728-5.7818-8.4c-1.5273-.5454-3.3818-.7636-5.1273-.7636l4.8 9.1636c0 .1091.1091.2182.1091.3273.3273 1.3091-.7636 2.5091-2.0727 2.5091h-21.6c.4363.6545 1.2 1.0909 2.0727 1.0909h25.5273c.6545 0 1.3091-.3273 1.7454-.7636.4364-.4364.7637-1.091.7637-1.7455 0-.5455-.1091-.9818-.4364-1.4182Z" fill="#71B956"/>
</svg>
