<svg width="3126" height="3130" viewBox="0 0 3126 3130" fill="none" xmlns="http://www.w3.org/2000/svg">
<path d="M1558.94 34.9603C1561.44 33.4809 1564.56 33.4809 1567.06 34.9603L2856.26 795.46C2858.7 796.898 2860.2 799.519 2860.2 802.35V2323.65C2860.2 2326.48 2858.7 2329.1 2856.26 2330.54L1567.06 3091.04C1564.56 3092.52 1561.44 3092.52 1558.94 3091.04L269.738 2330.54C267.299 2329.1 265.802 2326.48 265.802 2323.65V802.35C265.802 799.519 267.299 796.898 269.738 795.46L1558.94 34.9603Z" fill="white"/>
<path fill-rule="evenodd" clip-rule="evenodd" d="M2744.25 746.567L1680.89 132.639C1607.94 90.5202 1518.06 90.5202 1445.11 132.639L381.754 746.567C308.802 788.686 263.862 866.524 263.862 950.761V2178.62C263.862 2262.85 308.802 2340.69 381.754 2382.81L1445.11 2996.74C1518.06 3038.86 1607.94 3038.86 1680.89 2996.74L2744.25 2382.81C2817.2 2340.69 2862.14 2262.85 2862.14 2178.62V950.761C2862.14 866.524 2817.2 788.686 2744.25 746.567ZM1731.42 45.1271C1627.2 -15.0423 1498.8 -15.0424 1394.58 45.127L331.229 659.055C227.012 719.225 162.812 830.422 162.812 950.761V2178.62C162.812 2298.96 227.012 2410.15 331.229 2470.32L1394.58 3084.25C1498.8 3144.42 1627.2 3144.42 1731.42 3084.25L2794.77 2470.32C2898.99 2410.15 2963.19 2298.96 2963.19 2178.62V950.761C2963.19 830.422 2898.99 719.225 2794.77 659.055L1731.42 45.1271Z" fill="#612BDE"/>
<g clip-path="url(#clip0_9943_92261)">
<path d="M1502.55 1440.96L1304.8 2436L1626.64 2180.21L1594.27 1987.36L1502.55 1440.96Z" fill="#612BDE"/>
<path d="M1948.27 1319.46L2171.24 1561.19L2203.06 1417.68L2234.8 1241.36L1948.27 1319.46Z" fill="#8257E5"/>
<path d="M1509.4 800.463L724.849 695L1502.55 1440.96L1509.4 800.463Z" fill="#8257E5"/>
<path d="M2171.24 1561.19L1502.55 1440.96L1594.27 1987.36L2171.24 1561.19Z" fill="#8257E5"/>
<path d="M2383.73 1417.68L2234.81 1241.36L2203.06 1417.68H2383.73Z" fill="#612BDE"/>
<path d="M1502.55 1440.96L2171.24 1561.19L1948.27 1319.46L1509.4 800.463L1502.55 1440.96Z" fill="#612BDE"/>
</g>
<defs>
<clipPath id="clip0_9943_92261">
<rect width="1741" height="1741" fill="white" transform="translate(692 695)"/>
</clipPath>
</defs>
</svg>