<svg width="96" height="97" viewBox="0 0 96 97" fill="none" xmlns="http://www.w3.org/2000/svg">
<path d="M43.9353 3.39776C46.4432 1.91836 49.5568 1.91837 52.0647 3.39776L83.9019 22.1786C86.3406 23.6171 87.8372 26.2376 87.8372 29.069V66.931C87.8372 69.7624 86.3405 72.3829 83.9019 73.8214L52.0647 92.6022C49.5568 94.0816 46.4432 94.0816 43.9353 92.6022L12.0981 73.8214C9.65945 72.3829 8.16283 69.7624 8.16283 66.931V29.069C8.16283 26.2376 9.65945 23.6171 12.0981 22.1786L43.9353 3.39776Z" fill="white"/>
<path fill-rule="evenodd" clip-rule="evenodd" d="M84.2763 22.9272L51.6205 4.07336C49.3801 2.77989 46.6199 2.77989 44.3795 4.07336L11.7237 22.9272C9.48337 24.2207 8.10326 26.6111 8.10326 29.198V66.9057C8.10326 69.4927 9.48337 71.8831 11.7237 73.1766L44.3795 92.0304C46.6199 93.3239 49.3801 93.3239 51.6205 92.0304L84.2763 73.1766C86.5166 71.8831 87.8967 69.4927 87.8967 66.9057V29.198C87.8967 26.6111 86.5166 24.2207 84.2763 22.9272ZM53.1721 1.38586C49.9716 -0.461953 46.0284 -0.461954 42.8279 1.38586L10.1721 20.2397C6.97159 22.0875 5 25.5024 5 29.198V66.9057C5 70.6014 6.97159 74.0162 10.1721 75.8641L42.8279 94.7179C46.0284 96.5657 49.9716 96.5657 53.1721 94.7179L85.8279 75.8641C89.0284 74.0162 91 70.6014 91 66.9057V29.198C91 25.5024 89.0284 22.0875 85.8279 20.2397L53.1721 1.38586Z" fill="#EB5757"/>
<path fill-rule="evenodd" clip-rule="evenodd" d="M33.7827 71.9999L69.2673 69.5851L72 33.7053L61.1878 55.6816L33.7827 71.9999Z" fill="url(#paint0_linear)"/>
<path fill-rule="evenodd" clip-rule="evenodd" d="M57.968 59.4522L69.3254 69.5609L66.2753 48.4519L57.968 59.4522Z" fill="url(#paint1_linear)"/>
<path fill-rule="evenodd" clip-rule="evenodd" d="M33.9014 71.9538L69.3666 69.5609L47.0224 67.802L33.9014 71.9538Z" fill="url(#paint2_linear)"/>
<path fill-rule="evenodd" clip-rule="evenodd" d="M27.2318 56.255L33.9329 71.9587L39.5147 53.6216L27.2318 56.255Z" fill="url(#paint3_linear)"/>
<path fill-rule="evenodd" clip-rule="evenodd" d="M38.1313 53.1551L57.9656 59.5128L52.8296 39.3391L38.1313 53.1551Z" fill="url(#paint4_linear)"/>
<path fill-rule="evenodd" clip-rule="evenodd" d="M53.0718 40.7871L70.8347 39.6234L56.9408 28.2441L53.0718 40.7871Z" fill="url(#paint5_linear)"/>
<path fill-rule="evenodd" clip-rule="evenodd" d="M51.0101 24.126L64.3371 24.1867L56.1655 28.7151L51.0101 24.126Z" fill="url(#paint6_linear)"/>
<path fill-rule="evenodd" clip-rule="evenodd" d="M24.6541 48.6875L24 62.4063L27.4232 56.1457L24.6541 48.6875Z" fill="url(#paint7_linear)"/>
<path fill-rule="evenodd" clip-rule="evenodd" d="M24.47 48.4519L27.256 56.3766L39.3693 53.6532L53.1905 40.7774L57.091 28.3535L50.9423 24L40.5007 27.9186C37.2107 30.9869 30.827 37.058 30.5969 37.1722C30.3667 37.2864 26.3814 44.8466 24.47 48.4519Z" fill="white"/>
<path fill-rule="evenodd" clip-rule="evenodd" d="M34.2527 34.2157C41.3825 27.1267 50.5741 22.9385 54.1015 26.5073C57.6288 30.076 53.8883 38.749 46.7584 45.8355C39.6285 52.9221 30.5412 57.3411 27.0259 53.7724C23.5106 50.2036 27.1228 41.3023 34.2527 34.2157Z" fill="url(#paint8_linear)"/>
<path fill-rule="evenodd" clip-rule="evenodd" d="M33.9329 71.9513L39.471 53.5559L57.8638 59.4812C51.2136 65.7345 43.8173 71.0208 33.9329 71.9513Z" fill="url(#paint9_linear)"/>
<path fill-rule="evenodd" clip-rule="evenodd" d="M53.2075 40.7361L57.9293 59.491C63.4893 53.6386 68.4702 47.3367 70.9123 39.5481L53.2075 40.7361Z" fill="url(#paint10_linear)"/>
<path fill-rule="evenodd" clip-rule="evenodd" d="M70.8637 39.6424C72.7534 33.9236 73.1798 25.7195 64.279 24.1963L56.9674 28.2461L70.8637 39.6424Z" fill="url(#paint11_linear)"/>
<path fill-rule="evenodd" clip-rule="evenodd" d="M24 62.3237C24.2616 71.7619 31.0523 71.9028 33.945 71.9854L27.2633 56.3376L24 62.3237Z" fill="#AA3E35"/>
<path fill-rule="evenodd" clip-rule="evenodd" d="M53.2341 40.7628C57.5028 43.3938 66.1057 48.6777 66.2801 48.7798C66.5514 48.9328 69.9892 42.9662 70.7693 39.5942L53.2341 40.7628Z" fill="url(#paint12_radial)"/>
<path fill-rule="evenodd" clip-rule="evenodd" d="M39.4639 53.5559L46.8675 67.8893C51.2452 65.5085 54.6733 62.6078 57.813 59.5006L39.4639 53.5559Z" fill="url(#paint13_radial)"/>
<path fill-rule="evenodd" clip-rule="evenodd" d="M27.2343 56.3571L26.1804 68.8831C28.1597 71.5943 30.8828 71.83 33.7391 71.6186C31.6774 66.461 27.5492 56.1482 27.2343 56.3571Z" fill="url(#paint14_linear)"/>
<path fill-rule="evenodd" clip-rule="evenodd" d="M56.9238 28.2776L71.6317 30.3475C70.8468 27.0119 68.4363 24.8595 64.3275 24.1865L56.9238 28.2776Z" fill="url(#paint15_linear)"/>
<defs>
<linearGradient id="paint0_linear" x1="66.1711" y1="76.3631" x2="56.0018" y2="58.4584" gradientUnits="userSpaceOnUse">
<stop stop-color="#F68F71"/>
<stop offset="0.41" stop-color="#DC5242"/>
<stop offset="0.99" stop-color="#A72C32"/>
<stop offset="1" stop-color="#A72C32"/>
</linearGradient>
<linearGradient id="paint1_linear" x1="71.2151" y1="61.3058" x2="58.1442" y2="52.5572" gradientUnits="userSpaceOnUse">
<stop stop-color="#9B3F34"/>
<stop offset="0.99" stop-color="#A23E36"/>
<stop offset="1" stop-color="#A23E36"/>
</linearGradient>
<linearGradient id="paint2_linear" x1="5417.16" y1="971.989" x2="5335.36" y2="502.999" gradientUnits="userSpaceOnUse">
<stop stop-color="#9B3F34"/>
<stop offset="0.99" stop-color="#A23E36"/>
<stop offset="1" stop-color="#A23E36"/>
</linearGradient>
<linearGradient id="paint3_linear" x1="33.3757" y1="54.948" x2="35.4096" y2="68.1307" gradientUnits="userSpaceOnUse">
<stop stop-color="white"/>
<stop offset="0.23" stop-color="#E28B6F"/>
<stop offset="0.46" stop-color="#DA6144"/>
<stop offset="0.99" stop-color="#A60003"/>
<stop offset="1" stop-color="#A60003"/>
</linearGradient>
<linearGradient id="paint4_linear" x1="47.289" y1="42.6358" x2="48.0393" y2="56.092" gradientUnits="userSpaceOnUse">
<stop stop-color="white"/>
<stop offset="0.23" stop-color="#E08A6D"/>
<stop offset="0.56" stop-color="#C14435"/>
<stop offset="0.99" stop-color="#B13430"/>
<stop offset="1" stop-color="#B13430"/>
</linearGradient>
<linearGradient id="paint5_linear" x1="59.6372" y1="30.1998" x2="61.8827" y2="39.8418" gradientUnits="userSpaceOnUse">
<stop stop-color="white"/>
<stop offset="0.18" stop-color="#DF8063"/>
<stop offset="0.4" stop-color="#C94D37"/>
<stop offset="0.99" stop-color="#B13430"/>
<stop offset="1" stop-color="#B13430"/>
</linearGradient>
<linearGradient id="paint6_linear" x1="52.8247" y1="26.8032" x2="62.4509" y2="22.0022" gradientUnits="userSpaceOnUse">
<stop stop-color="white"/>
<stop offset="0.54" stop-color="#C94838"/>
<stop offset="0.99" stop-color="#C12D2F"/>
<stop offset="1" stop-color="#C12D2F"/>
</linearGradient>
<linearGradient id="paint7_linear" x1="24.9448" y1="51.5882" x2="25.7414" y2="59.5343" gradientUnits="userSpaceOnUse">
<stop stop-color="white"/>
<stop offset="0.31" stop-color="#DA6548"/>
<stop offset="0.99" stop-color="#C14433"/>
<stop offset="1" stop-color="#C14433"/>
</linearGradient>
<linearGradient id="paint8_linear" x1="19.5036" y1="61.6825" x2="56.8146" y2="23.4211" gradientUnits="userSpaceOnUse">
<stop stop-color="#BD0012"/>
<stop offset="0.07" stop-color="white"/>
<stop offset="0.17" stop-color="white"/>
<stop offset="0.27" stop-color="#C95841"/>
<stop offset="0.33" stop-color="#983734"/>
<stop offset="0.46" stop-color="#AE4231"/>
<stop offset="0.72" stop-color="#B93E2F"/>
<stop offset="0.99" stop-color="#DE4E2B"/>
<stop offset="1" stop-color="#DE4E2B"/>
</linearGradient>
<linearGradient id="paint9_linear" x1="48.0036" y1="65.5498" x2="36.7929" y2="62.7924" gradientUnits="userSpaceOnUse">
<stop stop-color="#9F3633"/>
<stop offset="0.54" stop-color="#A73532"/>
<stop offset="0.99" stop-color="#B13439"/>
<stop offset="1" stop-color="#B13439"/>
</linearGradient>
<linearGradient id="paint10_linear" x1="67.2516" y1="52.0619" x2="57.2699" y2="43.142" gradientUnits="userSpaceOnUse">
<stop stop-color="#923C36"/>
<stop offset="0.99" stop-color="#AA3531"/>
<stop offset="1" stop-color="#AA3531"/>
</linearGradient>
<linearGradient id="paint11_linear" x1="70.9073" y1="35.646" x2="65.9335" y2="30.3419" gradientUnits="userSpaceOnUse">
<stop stop-color="#8D3E36"/>
<stop offset="0.99" stop-color="#AA3E37"/>
<stop offset="1" stop-color="#AA3E37"/>
</linearGradient>
<radialGradient id="paint12_radial" cx="0" cy="0" r="1" gradientUnits="userSpaceOnUse" gradientTransform="translate(58.845 43.2869) scale(12.2005 12.2344)">
<stop stop-color="#B13430"/>
<stop offset="0.99" stop-color="#923834"/>
<stop offset="1" stop-color="#923834"/>
</radialGradient>
<radialGradient id="paint13_radial" cx="0" cy="0" r="1" gradientUnits="userSpaceOnUse" gradientTransform="translate(41.9495 59.4083) scale(16.2197 16.2648)">
<stop stop-color="#AE3531"/>
<stop offset="0.99" stop-color="#953A36"/>
<stop offset="1" stop-color="#953A36"/>
</radialGradient>
<linearGradient id="paint14_linear" x1="30.4612" y1="71.9417" x2="26.3995" y2="58.1974" gradientUnits="userSpaceOnUse">
<stop stop-color="#994939"/>
<stop offset="0.43" stop-color="#AA3A36"/>
<stop offset="0.99" stop-color="#B83936"/>
<stop offset="1" stop-color="#B83936"/>
</linearGradient>
<linearGradient id="paint15_linear" x1="61.4639" y1="26.3803" x2="70.5328" y2="30.3726" gradientUnits="userSpaceOnUse">
<stop stop-color="#B9392F"/>
<stop offset="0.44" stop-color="#A23A36"/>
<stop offset="0.99" stop-color="#8D463A"/>
<stop offset="1" stop-color="#8D463A"/>
</linearGradient>
</defs>
</svg>
