<svg width="3126" height="3130" viewBox="0 0 3126 3130" fill="none" xmlns="http://www.w3.org/2000/svg">
<path d="M1558.94 34.9603C1561.44 33.4809 1564.56 33.4809 1567.06 34.9603L2856.26 795.46C2858.7 796.898 2860.2 799.519 2860.2 802.35V2323.65C2860.2 2326.48 2858.7 2329.1 2856.26 2330.54L1567.06 3091.04C1564.56 3092.52 1561.44 3092.52 1558.94 3091.04L269.738 2330.54C267.299 2329.1 265.802 2326.48 265.802 2323.65V802.35C265.802 799.519 267.299 796.898 269.738 795.46L1558.94 34.9603Z" fill="white"/>
<path fill-rule="evenodd" clip-rule="evenodd" d="M2744.25 746.567L1680.89 132.639C1607.94 90.5202 1518.06 90.5202 1445.11 132.639L381.754 746.567C308.802 788.686 263.862 866.524 263.862 950.761V2178.62C263.862 2262.85 308.802 2340.69 381.754 2382.81L1445.11 2996.74C1518.06 3038.86 1607.94 3038.86 1680.89 2996.74L2744.25 2382.81C2817.2 2340.69 2862.14 2262.85 2862.14 2178.62V950.761C2862.14 866.524 2817.2 788.686 2744.25 746.567ZM1731.42 45.1271C1627.2 -15.0423 1498.8 -15.0424 1394.58 45.127L331.229 659.055C227.012 719.225 162.812 830.422 162.812 950.761V2178.62C162.812 2298.96 227.012 2410.15 331.229 2470.32L1394.58 3084.25C1498.8 3144.42 1627.2 3144.42 1731.42 3084.25L2794.77 2470.32C2898.99 2410.15 2963.19 2298.96 2963.19 2178.62V950.761C2963.19 830.422 2898.99 719.225 2794.77 659.055L1731.42 45.1271Z" fill="#341539"/>
<path d="M966.086 1865C920.086 1865 876.086 1857.67 834.086 1843C792.086 1827.67 755.753 1809.67 725.086 1789L775.086 1716C804.419 1735.33 836.086 1750.67 870.086 1762C904.086 1772.67 941.086 1778 981.086 1778C1015.09 1778 1040.09 1772.33 1056.09 1761C1072.75 1749 1081.09 1735 1081.09 1719C1081.09 1711 1079.09 1703.67 1075.09 1697C1071.75 1690.33 1065.42 1684.33 1056.09 1679C1046.75 1673 1033.09 1667.33 1015.09 1662C997.086 1656.67 973.753 1651 945.086 1645C879.753 1631 831.753 1612 801.086 1588C770.419 1564 755.086 1533.67 755.086 1497C755.086 1453.67 773.753 1418.33 811.086 1391C849.086 1363.67 902.419 1350 971.086 1350C1011.75 1350 1049.75 1356.67 1085.09 1370C1121.09 1383.33 1151.42 1398.33 1176.09 1415L1123.09 1486C1099.75 1470 1074.09 1458 1046.09 1450C1018.09 1441.33 989.753 1437 961.086 1437C939.086 1437 921.419 1439.33 908.086 1444C895.419 1448.67 885.753 1455.33 879.086 1464C873.086 1472 870.086 1481 870.086 1491C870.086 1508.33 880.086 1521.33 900.086 1530C920.086 1538.67 952.753 1548 998.086 1558C1050.75 1569.33 1091.42 1582.33 1120.09 1597C1148.75 1611 1168.42 1627.33 1179.09 1646C1190.42 1664 1196.09 1686.33 1196.09 1713C1196.09 1741 1187.09 1766.67 1169.09 1790C1151.75 1812.67 1126.09 1831 1092.09 1845C1058.09 1858.33 1016.09 1865 966.086 1865ZM1592.7 1865C1542.7 1865 1497.36 1855 1456.7 1835C1416.03 1814.33 1383.7 1785 1359.7 1747C1335.7 1708.33 1323.7 1661.67 1323.7 1607C1323.7 1553.67 1335.7 1508 1359.7 1470C1383.7 1431.33 1415.03 1401.67 1453.7 1381C1492.36 1360.33 1533.7 1350 1577.7 1350C1626.36 1350 1667.36 1360 1700.7 1380C1734.7 1400 1760.36 1427.67 1777.7 1463C1795.7 1497.67 1804.7 1537.67 1804.7 1583C1804.7 1594.33 1804.03 1605.33 1802.7 1616C1802.03 1626 1801.03 1634.33 1799.7 1641H1406.7V1559H1725.7L1703.7 1585C1703.7 1536.33 1692.7 1500 1670.7 1476C1649.36 1451.33 1619.36 1439 1580.7 1439C1553.36 1439 1528.7 1445.33 1506.7 1458C1485.36 1470.67 1468.36 1489.67 1455.7 1515C1443.03 1539.67 1436.7 1570.33 1436.7 1607C1436.7 1645 1443.7 1676.33 1457.7 1701C1472.36 1725.67 1492.36 1744.33 1517.7 1757C1543.7 1769.67 1573.7 1776 1607.7 1776C1633.7 1776 1657.7 1772.33 1679.7 1765C1701.7 1757.67 1723.7 1747.67 1745.7 1735L1784.7 1807C1758.7 1823.67 1729.36 1837.67 1696.7 1849C1664.03 1859.67 1629.36 1865 1592.7 1865ZM2125.3 1865C2062.64 1865 2011.97 1842.33 1973.3 1797C1934.64 1751.67 1915.3 1688.67 1915.3 1608C1915.3 1554.67 1925.64 1508.67 1946.3 1470C1966.97 1431.33 1993.97 1401.67 2027.3 1381C2060.64 1360.33 2095.64 1350 2132.3 1350C2160.3 1350 2184.97 1355 2206.3 1365C2228.3 1375 2248.64 1389.33 2267.3 1408H2270.3L2264.3 1325V1147H2380.3V1853H2285.3L2276.3 1796H2273.3C2254.64 1814.67 2232.3 1831 2206.3 1845C2180.3 1858.33 2153.3 1865 2125.3 1865ZM2153.3 1770C2173.3 1770 2192.64 1765.33 2211.3 1756C2229.97 1746 2247.64 1731 2264.3 1711V1490C2246.97 1473.33 2229.64 1461.67 2212.3 1455C2194.97 1448.33 2177.3 1445 2159.3 1445C2136.64 1445 2115.64 1451.33 2096.3 1464C2077.64 1476.67 2062.64 1495 2051.3 1519C2039.97 1543 2034.3 1572.33 2034.3 1607C2034.3 1659.67 2044.64 1700 2065.3 1728C2086.64 1756 2115.97 1770 2153.3 1770Z" fill="#341539"/>
</svg>
