<svg width="96" height="96" fill="none" xmlns="http://www.w3.org/2000/svg">
  <path d="M44 2.3093a8 8 0 018 0l33.5692 19.3812a8 8 0 014 6.9282v38.7624a7.9998 7.9998 0 01-4 6.9282L52 93.6905a7.9998 7.9998 0 01-8 0L10.4308 74.3093a7.9998 7.9998 0 01-4-6.9282V28.6187a8 8 0 014-6.9282L44 2.3093z" fill="#fff"/>
  <path fill-rule="evenodd" clip-rule="evenodd" d="M84.1907 22.9024L51.5701 4.069a7.233 7.233 0 00-7.2331 0L11.7165 22.9024a7.2332 7.2332 0 00-3.6166 6.2641v37.667a7.233 7.233 0 003.6166 6.264L44.337 91.931a7.233 7.233 0 007.2331 0l32.6206-18.8335a7.233 7.233 0 003.6165-6.264v-37.667a7.2333 7.2333 0 00-3.6165-6.2641zM53.1201 1.3844a10.333 10.333 0 00-10.333 0L10.1665 20.2178A10.3332 10.3332 0 005 29.1665v37.667a10.333 10.333 0 005.1665 8.9486l32.6206 18.8335a10.333 10.333 0 0010.333 0l32.6205-18.8335a10.3328 10.3328 0 005.1665-8.9486v-37.667a10.3331 10.3331 0 00-5.1665-8.9487L53.1201 1.3844z" fill="#444"/>
  <path d="M30.7283 25.5007c-.1913-.0039-.3677.0091-.5252.0427.1154.2626.1962.5794.4589.7377 1.1019.7773 2.7028.9882 3.5454 2.3585.6533 1.02.9576 2.4402 1.1536 3.7357.1485 1.1941.0625 2.4041.0589 3.6043-2.5153.6414-2.9601 5.3603-2.9724 8.1793-.6395 1.6852-2.0466 4.3347-2.7341 6.6097-.3255.7986-1.2574 3.3762.1424 5.0904.7327-.0233 1.4666-.1644 2.1292-.4798 1.9972-1.281 3.6105-2.8102 6.1054-3.6643-.1792.8541-.4223 1.6984-.507 2.5685l15.0923 6.0733-16.2213-4.365c-2.871-.6572-7.1269.2551-8.3682 3.5918-1.1679 3.507.856 5.9524 3.7723 7.3372.4054-.8684.772-1.7984 1.0331-2.5488-.2754.0737-1.1493.4724-1.4181.5647l-.0551-.0864c.8617-.4549 1.627-.7744 2.3958-1.3862-.2515-.1153-1.2973-.3443-1.5684-.4008l.0052-.1054c.7207.0865 1.4349.2322 2.1652.2354-.2898.3011-.6196.5575-.9576.8025.1826.3652.3626.6729.4635 1.0717l-.1348.0581c-.1202-.1452-.3551-.7415-.4504-.8912-.4623.9491-.8511 1.8913-1.1678 2.8285.614.2702 1.2623.4952 1.9252.6751.4106-.6804.6574-1.2091.9678-1.7733-.3812-.0882-.6025-.1527-1.0832-.2358.3523-.8313.5528-1.5874.7754-2.4635.0881.1538.1927.2155.3131.3109.2528.1047.4989.2722.7695.3378.0859-.2322.1646-.4806.2405-.7213a10.2665 10.2665 0 01-.2506-.8108c.1955.1935.437.4267.4914.6821l.0044.0004-.0025.0103c.0495.2794-.2104.5831-.2448.8861.4516.0871.7711.197 1.2243.2098-.3876.7992-.6858 1.4517-1.0462 2.2653-.2995-.2291-.5273-.2743-.9589-.3844-.2491.4312-.548 1.0635-.7858 1.793 2.0508.4949 4.1976.5646 5.8568.2081 3.7879 3.2849 10.5774 3.4082 14.551-.0627 4.8071 1.0781 14.2118-1.4541 12.3468-8.1118-1.0445-3.6622-4.9615-4.5694-8.5707-3.8976-1.0996-1.156-1.1106-2.8201-1.5365-4.267 2.2048.5985 3.9078 2.1719 5.9263 3.5087.7289.4565 1.5939.6768 2.4505.5902 1.2042-2.3357.5044-3.4874-.2122-5.6647-.9082-1.9535-1.8711-3.9065-2.5808-6.1226-.1733-2.817.3976-6.3303-2.8496-8.1032-.0983-.8917.0393-1.9048-.0037-2.9196.0528-1.1548.2528-2.3145.6664-3.3993.7491-1.9367 2.2339-2.3151 3.9786-3.2705.2688-.1939.4406-.481.54-.7927-2.1748-.1148-4.2695 1.2617-6.6269 1.3388-1.2491-.2159-2.5451-1.0941-3.943-1.2247.2455.5755.7129 1.0026 1.0504 1.518.54.7094.8713 1.5488 1.1904 2.3747.4222 1.1965.2284 2.5084-.1459 3.6902-.4123.8149-.416 1.7513-.7179 2.6042-.4185.4356-1.01.6259-1.4997.9633-.6854.2425-1.4261.1876-2.1317.2478.85-2.5326.995-6.6574-1.8703-7.4467-.4825-.2021-.795-.8855-1.3916-1.0642-.8339-.2598-1.711-.2458-2.6459-.0132-.7155.2565-1.1351 1.0162-1.8911 1.1867-2.8436.67-2.2406 5.0321-1.3376 7.3496-.5803.0231-1.3439-.107-1.9906-.125-.4896-.2945-.9707-.6064-1.4947-.8383-.5768-.4443-.6094-1.8383-.915-2.431-.3988-.848-.2877-1.2187-.4153-2.144-.1412-1.7303.7119-3.3403 1.6605-4.7234.2406-.4037.6958-.6775.8038-1.1512-1.1434.0453-2.5432 1.0065-3.8424 1.1928-1.0949.3023-4.3394-1.3062-6.1888-1.3436v.0001zm3.0347 36.1039c.3042.3011.7223.6981.3683 1.1258a10.0538 10.0538 0 01-.3683-1.1258zm1.1393 2.2166c-.0906.2124-.1752.4749-.2247.6683.2995.0784.5236.1868.8263.2621.1105-.2402.1468-.3216.2013-.6126-.2634-.0699-.4938-.2106-.8029-.3178zm1.074.3998l-.2071.6155c.2083.075.3749.0843.6382.1862 0 0-.0054.139-.145.2317-.1857-.0206-.4817-.137-.6034-.1402-.0785.2354-.2353.4238-.2497.6736.2915.0785.4838.1491.7753.2292.2402-.5109.5473-1.0058.7186-1.5456-.2785-.1362-.6082-.1255-.9269-.2504zm-1.3769.568c-.0657.2658-.161.4057-.2209.6891.3374.1363.4785.149.7842.2089.0817-.2066.1681-.4377.261-.6363-.3037-.1198-.5152-.1384-.8243-.2617z" fill="#444"/>
</svg>
