<svg width="96" height="96" viewBox="0 0 96 96" fill="none" xmlns="http://www.w3.org/2000/svg">
<path d="M44 2.30935C46.4752 0.880283 49.5248 0.880284 52 2.30935L85.5692 21.6905C88.0444 23.1196 89.5692 25.7606 89.5692 28.6187V67.3811C89.5692 70.2393 88.0444 72.8803 85.5692 74.3093L52 93.6905C49.5248 95.1196 46.4752 95.1196 44 93.6905L10.4308 74.3093C7.95558 72.8803 6.43079 70.2393 6.43079 67.3811V28.6187C6.43079 25.7606 7.95558 23.1196 10.4308 21.6905L44 2.30935Z" fill="white"/>
<path fill-rule="evenodd" clip-rule="evenodd" d="M84.1907 22.9024L51.5701 4.06896C49.3322 2.77689 46.575 2.77689 44.337 4.06896L11.7165 22.9024C9.47853 24.1945 8.09991 26.5824 8.09991 29.1665V66.8335C8.09991 69.4176 9.47853 71.8055 11.7165 73.0975L44.337 91.931C46.575 93.2231 49.3322 93.2231 51.5701 91.931L84.1907 73.0975C86.4286 71.8055 87.8072 69.4176 87.8072 66.8335V29.1665C87.8072 26.5824 86.4286 24.1945 84.1907 22.9024ZM53.1201 1.38436C49.923 -0.461454 45.9841 -0.461455 42.7871 1.38436L10.1665 20.2178C6.96946 22.0637 5 25.4749 5 29.1665V66.8335C5 70.5251 6.96946 73.9363 10.1665 75.7821L42.7871 94.6156C45.9841 96.4614 49.923 96.4614 53.1201 94.6156L85.7406 75.7821C88.9377 73.9363 90.9071 70.5251 90.9071 66.8335V29.1665C90.9071 25.4749 88.9377 22.0637 85.7406 20.2178L53.1201 1.38436Z" fill="#7649D6"/>
<path d="M30.7508 57C29.4861 57 28.3527 56.7914 27.3508 56.3741C26.3488 55.9569 25.544 55.3394 24.9362 54.5216C24.3449 53.7038 24.0329 52.7191 24 51.5675H28.4841C28.5498 52.2184 28.7716 52.7191 29.1494 53.0695C29.5271 53.4033 30.0199 53.5702 30.6276 53.5702C31.2518 53.5702 31.7446 53.4284 32.1059 53.1446C32.4673 52.8442 32.648 52.4353 32.648 51.9179C32.648 51.484 32.5001 51.1252 32.2045 50.8414C31.9253 50.5577 31.5721 50.3241 31.145 50.1405C30.7344 49.9569 30.1431 49.7483 29.3711 49.5146C28.2542 49.1641 27.3426 48.8136 26.6363 48.4631C25.93 48.1127 25.3222 47.5953 24.8131 46.911C24.3039 46.2267 24.0493 45.3338 24.0493 44.2323C24.0493 42.5967 24.6324 41.3199 25.7986 40.4019C26.9648 39.4673 28.4841 39 30.3566 39C32.262 39 33.7977 39.4673 34.9639 40.4019C36.1302 41.3199 36.7543 42.605 36.8364 44.2573H32.2784C32.2455 43.6898 32.0402 43.2476 31.6624 42.9305C31.2847 42.5967 30.8001 42.4298 30.2088 42.4298C29.6996 42.4298 29.289 42.5716 28.9769 42.8554C28.6648 43.1224 28.5088 43.5146 28.5088 44.032C28.5088 44.5994 28.7716 45.0417 29.2972 45.3588C29.8228 45.6759 30.6441 46.0181 31.761 46.3853C32.8779 46.7691 33.7813 47.1363 34.4712 47.4868C35.1775 47.8373 35.7852 48.3463 36.2944 49.0139C36.8036 49.6815 37.0582 50.541 37.0582 51.5925C37.0582 52.5939 36.8036 53.5035 36.2944 54.3213C35.8016 55.1391 35.0789 55.79 34.1263 56.274C33.1736 56.758 32.0484 57 30.7508 57Z" fill="#7649D6"/>
<path d="M59.2382 39.2503V56.8248H55.0251V46.2851L51.1569 56.8248H47.7569L43.8641 46.2601V56.8248H39.651V39.2503H44.6279L49.4816 51.4172L54.286 39.2503H59.2382Z" fill="#7649D6"/>
<path d="M66.4811 53.5202H72V56.8248H62.268V39.2503H66.4811V53.5202Z" fill="#7649D6"/>
</svg>
