<svg width="96" height="96" fill="none" xmlns="http://www.w3.org/2000/svg">
  <path d="M44 2.3093a8 8 0 018 0l33.5692 19.3812a8 8 0 014 6.9282v38.7624a7.9998 7.9998 0 01-4 6.9282L52 93.6905a7.9998 7.9998 0 01-8 0L10.4308 74.3093a7.9998 7.9998 0 01-4-6.9282V28.6187a8 8 0 014-6.9282L44 2.3093z" fill="#fff"/>
  <path fill-rule="evenodd" clip-rule="evenodd" d="M84.1907 22.9024L51.5701 4.069a7.233 7.233 0 00-7.2331 0L11.7165 22.9024a7.2332 7.2332 0 00-3.6166 6.2641v37.667a7.233 7.233 0 003.6166 6.264L44.337 91.931a7.233 7.233 0 007.2331 0l32.6206-18.8335a7.233 7.233 0 003.6165-6.264v-37.667a7.2333 7.2333 0 00-3.6165-6.2641zM53.1201 1.3844a10.333 10.333 0 00-10.333 0L10.1665 20.2178A10.3332 10.3332 0 005 29.1665v37.667a10.333 10.333 0 005.1665 8.9486l32.6206 18.8335a10.333 10.333 0 0010.333 0l32.6205-18.8335a10.3328 10.3328 0 005.1665-8.9486v-37.667a10.3331 10.3331 0 00-5.1665-8.9487L53.1201 1.3844z" fill="#333"/>
  <g clip-path="url(#clip0)" fill="#000">
    <path opacity=".45" d="M55.3897 24.001l-7.7166 13.7148H32.25l7.7107-13.7148h15.429z"/>
    <path opacity=".6" d="M47.6741 37.7158h15.4292L55.3922 24.001H39.9607l7.7134 13.7148z"/>
    <path opacity=".8" d="M39.9607 51.4249l7.7124-13.709-7.7124-13.7149L32.25 37.7159l7.7107 13.709z"/>
    <path opacity=".45" d="M40.0363 71.999l7.7155-13.7151h15.4265L55.4627 71.999H40.0363z"/>
    <path opacity=".6" d="M47.7518 58.2839H32.3256l7.7101 13.7151h15.4275l-7.7114-13.7151z"/>
    <path opacity=".8" d="M55.4647 44.5735l-7.7119 13.7103 7.7119 13.7151 7.7165-13.7151-7.7165-13.7103z"/>
  </g>
  <defs>
    <clipPath id="clip0">
      <path fill="#fff" transform="translate(32.25 24)" d="M0 0h30.9312v48H0z"/>
    </clipPath>
  </defs>
</svg>
