<svg width="80" height="81" viewBox="0 0 80 81" fill="none" xmlns="http://www.w3.org/2000/svg">
<path d="M35.9353 3.23102C38.4432 1.75162 41.5568 1.75162 44.0647 3.23102L69.2623 18.0951C71.701 19.5337 73.1977 22.1542 73.1977 24.9856V55.0142C73.1977 57.8456 71.701 60.4661 69.2623 61.9047L44.0647 76.7688C41.5568 78.2482 38.4432 78.2482 35.9353 76.7688L10.7377 61.9047C8.29901 60.4661 6.80238 57.8456 6.80238 55.0142V24.9856C6.80238 22.1542 8.299 19.5337 10.7377 18.0951L35.9353 3.23102Z" fill="white"/>
<path fill-rule="evenodd" clip-rule="evenodd" d="M70.2303 19.106L43.0171 3.39447C41.1501 2.31658 38.8499 2.31658 36.983 3.39447L9.76979 19.106C7.90283 20.1839 6.75274 22.1759 6.75274 24.3317V55.7548C6.75274 57.9105 7.90283 59.9026 9.76979 60.9805L36.983 76.692C38.8499 77.7699 41.1501 77.7699 43.0171 76.692L70.2303 60.9805C72.0972 59.9026 73.2473 57.9105 73.2473 55.7548V24.3317C73.2473 22.1759 72.0972 20.1839 70.2303 19.106ZM44.3101 1.15488C41.643 -0.384961 38.357 -0.384961 35.6899 1.15488L8.47677 16.8664C5.80968 18.4063 4.16669 21.252 4.16669 24.3317V55.7548C4.16669 58.8345 5.80968 61.6802 8.47677 63.22L35.6899 78.9316C38.357 80.4714 41.643 80.4714 44.3101 78.9316L71.5233 63.22C74.1904 61.6802 75.8334 58.8345 75.8334 55.7548V24.3317C75.8334 21.252 74.1904 18.4063 71.5233 16.8664L44.3101 1.15488Z" fill="#003B57"/>
<path d="M42.3959 55.191C42.3743 54.9179 42.3614 54.7404 42.3614 54.7404C42.3614 54.7404 41.5332 49.1567 40.5473 47.4905C40.3913 47.2264 40.5643 46.1416 40.9995 44.5348C41.254 44.9748 42.3281 46.8568 42.5438 47.4632C42.7867 48.1488 42.8378 48.3452 42.8378 48.3452C42.8378 48.3452 42.2487 45.3141 41.282 43.5454C41.4939 42.8303 41.747 42.0399 42.0334 41.195C42.3996 41.8375 43.2763 43.3929 43.4692 43.9324C43.5082 44.0433 43.5411 44.1375 43.5706 44.2238C43.5801 44.1719 43.5896 44.1201 43.599 44.0683C43.3777 43.1292 42.943 41.4951 42.3478 40.2878C43.6683 33.415 48.1718 24.2286 52.7888 20.1299H22.6702C20.6516 20.1299 19 21.7818 19 23.8003V57.0155C19 59.0339 20.6516 60.6855 22.6702 60.6855H42.5071C42.3641 58.9541 42.3164 57.0386 42.3959 55.191Z" fill="#0F80CC"/>
<path d="M40.9996 44.5344C41.254 44.9744 42.3281 46.8564 42.5438 47.4628C42.7867 48.1484 42.8378 48.3449 42.8378 48.3449C42.8378 48.3449 42.2487 45.3137 41.282 43.545C41.4939 42.8299 41.747 42.0396 42.0334 41.1947C42.3683 41.7823 43.1291 43.1319 43.4042 43.7713C43.4144 43.6506 43.4246 43.5299 43.4352 43.4103C43.1915 42.4739 42.8215 41.248 42.3478 40.2874C43.5638 33.9595 47.4779 25.6736 51.6946 21.2003H22.6702C21.2369 21.2003 20.0705 22.3664 20.0705 23.8V54.5918C26.6439 52.0689 34.5701 49.7628 41.3917 49.8616C41.1385 48.885 40.8501 48.002 40.5473 47.4902C40.3914 47.226 40.5643 46.1412 40.9996 44.5344Z" fill="url(#paint0_linear_9851_175053)"/>
<path d="M59.814 19.0427C57.7513 17.2032 55.2538 17.9421 52.7888 20.1297C52.4229 20.4547 52.0578 20.8153 51.6946 21.2005C47.4779 25.6737 43.5638 33.9596 42.3478 40.2876C42.8215 41.2482 43.1915 42.4741 43.4352 43.4105C43.4976 43.6507 43.554 43.8762 43.599 44.0681C43.7061 44.5221 43.7636 44.8164 43.7636 44.8164C43.7636 44.8164 43.7257 44.6734 43.5706 44.2236C43.5411 44.1373 43.5082 44.0431 43.4692 43.9322C43.4526 43.8865 43.4295 43.8308 43.4042 43.7714C43.1291 43.132 42.3682 41.7824 42.0334 41.1949C41.747 42.0397 41.4939 42.8301 41.282 43.5452C42.2487 45.3139 42.8378 48.345 42.8378 48.345C42.8378 48.345 42.7867 48.1486 42.5438 47.463C42.3281 46.8566 41.254 44.9746 40.9995 44.5346C40.5643 46.1414 40.3913 47.2262 40.5473 47.4903C40.8501 48.0021 41.1385 48.8852 41.3917 49.8618C41.9638 52.0619 42.3614 54.7402 42.3614 54.7402C42.3614 54.7402 42.3743 54.9177 42.3958 55.1908C42.3164 57.0384 42.3641 58.954 42.5071 60.6854C42.6966 62.9773 43.0534 64.9463 43.5082 66L43.8169 65.8317C43.1491 63.7556 42.8779 61.0349 42.9967 57.8972C43.1764 53.1012 44.28 47.3174 46.3194 41.2891C49.7646 32.189 54.5447 24.8875 58.9196 21.4006C54.9322 25.0018 49.5353 36.6584 47.9198 40.975C46.1109 45.8089 44.829 50.345 44.0564 54.691C45.3894 50.6166 49.6992 48.8653 49.6992 48.8653C49.6992 48.8653 51.813 46.2583 54.2833 42.5338C52.8036 42.8713 50.3738 43.4491 49.5599 43.7911C48.3594 44.2947 48.0359 44.4665 48.0359 44.4665C48.0359 44.4665 51.9246 42.0984 55.2609 41.0261C59.8492 33.7996 64.848 23.5334 59.814 19.0427Z" fill="#003B57"/>
<defs>
<linearGradient id="paint0_linear_9851_175053" x1="38.3055" y1="21.8836" x2="38.3055" y2="52.7348" gradientUnits="userSpaceOnUse">
<stop stop-color="#97D9F6"/>
<stop offset="0.920245" stop-color="#0F80CC"/>
<stop offset="1" stop-color="#0F80CC"/>
</linearGradient>
</defs>
</svg>