<svg width="96" height="96" viewBox="0 0 96 96" fill="none" xmlns="http://www.w3.org/2000/svg">
<path d="M44 2.30935C46.4752 0.880283 49.5248 0.880284 52 2.30935L85.5692 21.6905C88.0444 23.1196 89.5692 25.7606 89.5692 28.6187V67.3811C89.5692 70.2393 88.0444 72.8803 85.5692 74.3093L52 93.6905C49.5248 95.1196 46.4752 95.1196 44 93.6905L10.4308 74.3093C7.95558 72.8803 6.43079 70.2393 6.43079 67.3811V28.6187C6.43079 25.7606 7.95558 23.1196 10.4308 21.6905L44 2.30935Z" fill="white"/>
<path fill-rule="evenodd" clip-rule="evenodd" d="M84.1907 22.9024L51.5701 4.06896C49.3322 2.77689 46.575 2.77689 44.337 4.06896L11.7165 22.9024C9.47853 24.1945 8.09991 26.5824 8.09991 29.1665V66.8335C8.09991 69.4176 9.47853 71.8055 11.7165 73.0975L44.337 91.931C46.575 93.2231 49.3322 93.2231 51.5701 91.931L84.1907 73.0975C86.4286 71.8055 87.8072 69.4176 87.8072 66.8335V29.1665C87.8072 26.5824 86.4286 24.1945 84.1907 22.9024ZM53.1201 1.38436C49.923 -0.461454 45.9841 -0.461455 42.7871 1.38436L10.1665 20.2178C6.96946 22.0637 5 25.4749 5 29.1665V66.8335C5 70.5251 6.96946 73.9363 10.1665 75.7821L42.7871 94.6156C45.9841 96.4614 49.923 96.4614 53.1201 94.6156L85.7406 75.7821C88.9377 73.9363 90.9071 70.5251 90.9071 66.8335V29.1665C90.9071 25.4749 88.9377 22.0637 85.7406 20.2178L53.1201 1.38436Z" fill="#F05138"/>
<path d="M71.9966 37.295C71.9938 36.8123 71.9884 36.3298 71.9751 35.8465C71.947 34.7952 71.8848 33.7343 71.698 32.6943C71.5084 31.638 71.1984 30.6559 70.7099 29.6964C70.2304 28.7541 69.6036 27.8918 68.8558 27.1441C68.1082 26.3963 67.246 25.7696 66.3033 25.2898C65.3446 24.8019 64.3623 24.492 63.307 24.3024C62.2664 24.115 61.2055 24.0533 60.1534 24.0248C59.6703 24.0117 59.1878 24.0062 58.7049 24.0032C58.1317 24 57.5581 24 56.9851 24H44.2788H39.0149C38.4413 24 37.8684 24 37.2953 24.0033C36.8123 24.0063 36.3291 24.0118 35.8468 24.0249C35.5838 24.032 35.3203 24.0412 35.0565 24.0539C34.2655 24.0921 33.4732 24.162 32.6931 24.3025C31.9016 24.4448 31.1511 24.6546 30.421 24.9564C30.1776 25.057 29.9365 25.1679 29.6968 25.2898C28.9897 25.6496 28.3278 26.0921 27.7258 26.6063C27.5251 26.7777 27.3311 26.9571 27.1442 27.144C26.3963 27.8917 25.7695 28.754 25.2899 29.6963C24.8015 30.6558 24.4919 31.6379 24.3022 32.6942C24.1155 33.7343 24.0534 34.7951 24.0251 35.8464C24.0119 36.3297 24.0063 36.8122 24.0031 37.295C23.9995 37.8683 24 38.4417 24 39.0149V46.8399V56.9848C24 57.5586 23.9994 58.1314 24.0031 58.7052C24.0063 59.1879 24.0119 59.6704 24.0251 60.1529C24.0534 61.2048 24.1154 62.2659 24.3022 63.3055C24.4919 64.3614 24.8015 65.3444 25.2899 66.3037C25.7695 67.2462 26.3963 68.1082 27.1442 68.8557C27.8916 69.6037 28.7541 70.2304 29.6968 70.7105C30.6556 71.1985 31.6378 71.5079 32.6933 71.6975C33.7333 71.8847 34.795 71.947 35.8469 71.9751C36.3292 71.9879 36.8124 71.9937 37.2954 71.9964C37.8684 72.0005 38.4414 72 39.015 72H56.9851C57.5581 72 58.1317 72.0005 58.7048 71.9964C59.1877 71.9937 59.6703 71.9879 60.1533 71.9751C61.2054 71.947 62.2663 71.8846 63.3069 71.6975C64.3622 71.5079 65.3445 71.1984 66.3032 70.7105C67.2459 70.2305 68.1082 69.6037 68.8557 68.8557C69.6035 68.1081 70.2304 67.2462 70.7098 66.3037C71.1983 65.3444 71.5083 64.3615 71.6979 63.3055C71.8847 62.2659 71.9469 61.2048 71.975 60.1529C71.9883 59.6704 71.9936 59.188 71.9965 58.7052C72.0002 58.1314 71.9999 57.5586 71.9999 56.9848V39.0149C72 38.4417 72.0002 37.8683 71.9966 37.295Z" fill="#F05138"/>
<path d="M62.0346 53.6294C62.0335 53.6279 62.0324 53.6268 62.0312 53.6255C62.0843 53.4448 62.1391 53.2652 62.1856 53.0799C64.1778 45.1426 59.3156 35.7586 51.0876 30.8176C54.6933 35.7056 56.2875 41.626 54.8711 46.8035C54.7448 47.2653 54.5929 47.7085 54.425 48.1393C54.2429 48.0196 54.0133 47.8837 53.7051 47.7138C53.7051 47.7138 45.5205 42.6603 36.6497 33.722C36.4169 33.4874 41.38 40.8156 47.0124 46.7663C44.3588 45.277 36.9634 39.8963 32.2816 35.6112C32.8568 36.5705 33.5409 37.4942 34.293 38.3835C38.2027 43.3417 43.3014 49.4594 49.4099 54.1571C45.118 56.7836 39.0535 56.9878 33.0153 54.1599C31.5218 53.46 30.1178 52.6155 28.8181 51.656C31.3741 55.7443 35.3106 59.2716 40.1017 61.3308C45.8153 63.7862 51.4971 63.6197 55.7288 61.3711L55.7255 61.3759C55.7448 61.3637 55.7694 61.3504 55.7894 61.338C55.9632 61.2446 56.1357 61.1494 56.3044 61.049C58.3376 59.9936 62.3535 58.9229 64.5091 63.117C65.037 64.1434 66.1588 58.7039 62.0346 53.6294Z" fill="white"/>
</svg>
