<svg width="96" height="96" fill="none" xmlns="http://www.w3.org/2000/svg">
  <path d="M44 2.3093a8 8 0 018 0l33.5692 19.3812a8 8 0 014 6.9282v38.7624a7.9998 7.9998 0 01-4 6.9282L52 93.6905a7.9998 7.9998 0 01-8 0L10.4308 74.3093a7.9998 7.9998 0 01-4-6.9282V28.6187a8 8 0 014-6.9282L44 2.3093z" fill="#fff"/>
  <path fill-rule="evenodd" clip-rule="evenodd" d="M84.1907 22.9024L51.5701 4.069a7.233 7.233 0 00-7.2331 0L11.7165 22.9024a7.2332 7.2332 0 00-3.6166 6.2641v37.667a7.233 7.233 0 003.6166 6.264L44.337 91.931a7.233 7.233 0 007.2331 0l32.6206-18.8335a7.233 7.233 0 003.6165-6.264v-37.667a7.2333 7.2333 0 00-3.6165-6.2641zM53.1201 1.3844a10.333 10.333 0 00-10.333 0L10.1665 20.2178A10.3332 10.3332 0 005 29.1665v37.667a10.333 10.333 0 005.1665 8.9486l32.6206 18.8335a10.333 10.333 0 0010.333 0l32.6205-18.8335a10.3328 10.3328 0 005.1665-8.9486v-37.667a10.3331 10.3331 0 00-5.1665-8.9487L53.1201 1.3844z" fill="#2C087E"/>
  <g clip-path="url(#clip0)" fill="#2C087E" stroke="#2C087E" stroke-width=".25" stroke-miterlimit="10" stroke-linejoin="round">
    <path d="M34.4879 44.6494c.8548-1.7025 8.4119-4.935 17.9012-4.8991 7.672.0287 16.716 1.0201 19.6109 6.4795h-4.6046c-1.8749-4.6046-23.3463-7.8803-32.9003-1.5588l-.0072-.0216zM61.5121 51.0428c-.8548 1.7025-8.4118 4.935-17.9012 4.8991-7.672-.0287-16.716-1.0201-19.6109-6.4795h4.6046c1.8749 4.6046 23.3463 7.8803 32.9003 1.5588l.0072.0216z"/>
  </g>
  <defs>
    <clipPath id="clip0">
      <path fill="#fff" transform="translate(24 24)" d="M0 0h48v48H0z"/>
    </clipPath>
  </defs>
</svg>
