<svg width="96" height="96" viewBox="0 0 96 96" fill="none" xmlns="http://www.w3.org/2000/svg">
<path d="M44 2.30935C46.4752 0.880283 49.5248 0.880284 52 2.30935L85.5692 21.6905C88.0444 23.1196 89.5692 25.7606 89.5692 28.6187V67.3811C89.5692 70.2393 88.0444 72.8803 85.5692 74.3093L52 93.6905C49.5248 95.1196 46.4752 95.1196 44 93.6905L10.4308 74.3093C7.95558 72.8803 6.43079 70.2393 6.43079 67.3811V28.6187C6.43079 25.7606 7.95558 23.1196 10.4308 21.6905L44 2.30935Z" fill="white"/>
<path fill-rule="evenodd" clip-rule="evenodd" d="M84.1907 22.9024L51.5701 4.06896C49.3322 2.77689 46.575 2.77689 44.337 4.06896L11.7165 22.9024C9.47853 24.1945 8.09991 26.5824 8.09991 29.1665V66.8335C8.09991 69.4176 9.47853 71.8055 11.7165 73.0975L44.337 91.931C46.575 93.2231 49.3322 93.2231 51.5701 91.931L84.1907 73.0975C86.4286 71.8055 87.8072 69.4176 87.8072 66.8335V29.1665C87.8072 26.5824 86.4286 24.1945 84.1907 22.9024ZM53.1201 1.38436C49.923 -0.461454 45.9841 -0.461455 42.7871 1.38436L10.1665 20.2178C6.96946 22.0637 5 25.4749 5 29.1665V66.8335C5 70.5251 6.96946 73.9363 10.1665 75.7821L42.7871 94.6156C45.9841 96.4614 49.923 96.4614 53.1201 94.6156L85.7406 75.7821C88.9377 73.9363 90.9071 70.5251 90.9071 66.8335V29.1665C90.9071 25.4749 88.9377 22.0637 85.7406 20.2178L53.1201 1.38436Z" fill="#1E5CB3"/>
<g clip-path="url(#clip0)">
<path d="M42.8189 69.8794L59.3875 72L60.3253 51.3861L63.6908 32.7753L55.9932 32.4267L52.5603 30.6547L36.8341 29.9912L35.8305 48.5675L33 69.7853L42.8189 69.8794" fill="#1E5CB3"/>
<path d="M45.2036 63.9782L61.8993 64.5L60.856 43.8911L62.4211 25.0433L54.7256 25.4346L51.1386 23.9999L35.4211 24.8476L36.2037 43.4347L35.4211 64.8259L45.2036 63.9782" fill="#F14729"/>
<path d="M50.9373 51.8652L49.1934 52.3408L50.1446 50.042L51.0959 43.6209L49.9067 43.3832L51.3336 41.4016L53.1113 34.721L49.986 35.3768C49.986 35.3768 51.6339 32.3598 53.3826 30.3947L51.0959 28.6389C51.0959 28.6389 43.7283 31.8839 45.7101 42.4271L44.1873 42.1606L45.6477 53.2128L44.4131 53.5298C44.4131 53.5298 45.6779 56.1111 47.4492 57.3348C47.6101 57.4459 45.2297 48.6944 47.7665 39.9747L48.0042 40.5294C48.0042 40.5294 45.9828 49.8239 48.0042 57.3348C48.0042 57.3348 48.0972 57.5133 49.1081 57.3945C49.1081 57.3945 50.9373 53.946 50.9373 51.8652" fill="#1E5CB3"/>
<path d="M37.9467 59.7798H38.3046V59.0336C38.4626 59.0336 38.6141 59.0336 38.7659 59.0093V59.7798H39.3V59.9194H38.7659V61.7765C38.7659 61.8855 38.7659 62.0494 38.9965 62.0494C39.1542 62.0494 39.2392 61.9401 39.3364 61.8249L39.4335 61.8917C39.3181 62.1223 39.0207 62.2617 38.778 62.2617C38.3412 62.2617 38.2925 62.0252 38.2925 61.734V59.9194H37.9467V59.7798Z" fill="white"/>
<path d="M42.9944 61.4305C42.8548 61.8613 42.612 62.2375 41.981 62.2617C41.0402 62.2617 40.755 61.4789 40.755 61.0602C40.755 59.9802 41.6228 59.7192 41.9689 59.7192C42.3631 59.7192 42.9215 59.9012 42.9215 60.3686C42.9215 60.5324 42.8184 60.6901 42.6484 60.6901C42.4847 60.6901 42.3631 60.5809 42.3631 60.4049C42.3631 60.1683 42.5574 60.1379 42.5574 60.0712C42.5574 59.9073 42.175 59.8406 42.0416 59.8406C41.4592 59.8406 41.3072 60.2653 41.3072 61.0602C41.3072 61.4243 41.3984 61.7036 41.4347 61.7886C41.5257 61.9888 41.7138 62.1161 42.0294 62.1344C42.3814 62.1527 42.7213 61.8675 42.8669 61.4305H42.9944" fill="white"/>
<path d="M44.4009 62.1829V62.0434H44.8683V58.1415H44.4009V58.0018H44.662C44.8866 58.0018 45.1232 57.9897 45.3417 57.9472V62.0434H45.8089V62.1829H44.4009Z" fill="white"/>
<path d="M48.5445 39.1893C48.5445 39.1893 47.4748 43.959 47.7827 51.6923C47.875 54.012 48.1287 56.1442 48.4384 57.9932L48.4402 57.9934C48.6416 59.6169 48.7764 60.2048 49.3019 62.161L49.2713 63.4229C49.2713 63.4229 45.0644 49.9907 48.5445 39.1893" fill="white"/>
<path d="M51.127 35.0535C51.127 35.0535 52.0732 34.5822 53.4294 34.4108C53.4294 34.4108 54.9119 37.1281 51.2634 41.7678C51.2634 41.7678 53.44 36.9089 52.9266 35.3867C52.9266 35.3867 52.3525 35.0299 51.127 35.0535" fill="white"/>
<path d="M50.6785 43.2103C50.6785 43.2103 51.5283 43.4071 51.936 43.0766C51.936 43.0766 51.1324 46.2129 51.3432 47.9383C51.5539 49.6634 50.0338 50.7678 50.0338 50.7678C50.0338 50.7678 51.3285 49.1295 50.9217 47.795C50.6394 46.87 50.9551 44.5028 51.3112 43.7511C51.3112 43.7511 50.9786 43.7045 50.6785 43.2103Z" fill="white"/>
<path d="M49.8386 51.4736C49.8386 51.4736 51.2426 51.3056 51.39 50.5964C51.39 50.5964 51.5619 54.8384 49.6111 56.5867C49.6111 56.5867 51.0997 54.265 50.8662 51.8633L49.8386 51.4736Z" fill="white"/>
<path d="M45.8891 53.2395C45.8891 53.2395 45.4363 53.7464 44.0775 52.6279C44.0775 52.6279 44.5104 55.4791 47.1994 56.7842C47.1994 56.7842 45.3488 55.39 44.8503 53.884C44.8503 53.884 45.5042 53.6913 45.8891 53.2395" fill="white"/>
<path d="M45.4555 52.158C45.4555 52.158 43.6184 47.4949 44.0119 41.194C44.0119 41.194 44.4412 42.3352 45.8201 42.7352C45.8201 42.7352 45.1703 42.8682 44.7906 42.8106C44.7906 42.8106 43.8296 45.4706 45.4555 52.158" fill="white"/>
<path d="M53.1728 30.4903C53.1728 30.4903 52.4841 25.4307 48.1769 30.5475C44.7472 34.6218 45.1561 38.0808 45.3664 40.0107C45.4201 40.5044 44.7282 34.8565 48.486 31.1399C52.2435 27.4231 53.0923 30.2746 53.1728 30.4903" fill="white"/>
<path d="M46.828 26.175C46.828 26.175 43.4483 25.2098 42.3725 36.4119C42.3725 36.4119 41.5426 32.9542 43.6892 28.064C45.8358 23.1738 46.828 26.175 46.828 26.175" fill="#FFF200"/>
<path d="M42.6351 25.3558C42.6351 25.3558 40.9113 27.9485 41.3024 30.7102C41.3024 30.7102 39.995 25.5116 42.6351 25.3558Z" fill="#FFF200"/>
<path d="M55.3215 32.6262C55.3215 32.6262 57.3598 31.8742 54.4411 39.4614C54.4411 39.4614 55.9519 37.2442 56.9027 33.7609C57.5132 31.5254 55.3215 32.6262 55.3215 32.6262" fill="#FFF200"/>
<path d="M58.6182 32.035C58.6182 32.035 60.0593 33.3396 59.0381 35.0652C59.0381 35.0652 61.6016 32.3716 58.6182 32.035Z" fill="#FFF200"/>
<path d="M36.6914 68.5854H36.3438V66.8025H36.8167C37.1904 66.8025 37.434 66.9515 37.434 67.3558C37.434 67.7341 37.2281 67.9185 36.864 67.9185H36.6914V68.5854ZM36.6914 67.6301H36.7623C36.968 67.6301 37.0793 67.5851 37.0793 67.3535C37.0793 67.1241 36.9467 67.0909 36.7529 67.0909H36.6914V67.6301" fill="white"/>
<path d="M39.1752 67.6916C39.1752 67.1927 39.5368 66.7552 40.0572 66.7552C40.5772 66.7552 40.939 67.1927 40.939 67.6916C40.939 68.2024 40.5772 68.6328 40.0572 68.6328C39.5368 68.6328 39.1752 68.2024 39.1752 67.6916ZM39.5345 67.6774C39.5345 67.9469 39.7614 68.29 40.0572 68.29C40.3525 68.29 40.5794 67.9469 40.5794 67.6774C40.5794 67.389 40.3621 67.098 40.0572 67.098C39.7521 67.098 39.5345 67.389 39.5345 67.6774Z" fill="white"/>
<path d="M43.3405 68.0182H43.3452L43.7 66.7791H43.9057L44.2746 68.0182H44.2794L44.6291 66.8027H44.9934L44.3904 68.6211H44.1349L43.7802 67.4554H43.7756L43.4399 68.6211H43.1846L42.6171 66.8027H42.9812L43.3405 68.0182Z" fill="white"/>
<path d="M47.1036 67.1051V67.4977H47.657V67.8004H47.1036V68.2826H47.6782V68.5854H46.7562V66.8025H47.6782V67.1051H47.1036" fill="white"/>
<path d="M50.7837 68.5854H50.3629L49.93 67.8666H49.9255V68.5854H49.5778V66.8025H50.0484C50.4006 66.8025 50.6443 66.9586 50.6443 67.3394C50.6443 67.5663 50.519 67.7933 50.2802 67.8335L50.7837 68.5854ZM49.9255 67.623H49.9705C50.1618 67.623 50.2966 67.5663 50.2966 67.3487C50.2966 67.1289 50.1572 67.0863 49.9728 67.0863H49.9255V67.623" fill="white"/>
<path d="M52.9127 67.1051V67.4977H53.4661V67.8004H52.9127V68.2826H53.4873V68.5854H52.5653V66.8025H53.4873V67.1051H52.9127" fill="white"/>
<path d="M55.3868 66.8025H55.8835C56.3989 66.8025 56.744 67.188 56.744 67.6964C56.744 68.1976 56.3893 68.5854 55.881 68.5854H55.3868V66.8025ZM55.7345 68.2826H55.7912C56.2193 68.2826 56.3847 68.0463 56.3847 67.6938C56.3847 67.3062 56.1861 67.1051 55.7912 67.1051H55.7345V68.2826" fill="white"/>
</g>
<defs>
<clipPath id="clip0">
<rect width="30.6908" height="48" fill="white" transform="translate(33 24)"/>
</clipPath>
</defs>
</svg>
