<svg width="3126" height="3130" viewBox="0 0 3126 3130" fill="none" xmlns="http://www.w3.org/2000/svg">
<path d="M1558.94 34.9603C1561.44 33.4809 1564.56 33.4809 1567.06 34.9603L2856.26 795.46C2858.7 796.898 2860.2 799.519 2860.2 802.35V2323.65C2860.2 2326.48 2858.7 2329.1 2856.26 2330.54L1567.06 3091.04C1564.56 3092.52 1561.44 3092.52 1558.94 3091.04L269.738 2330.54C267.299 2329.1 265.802 2326.48 265.802 2323.65V802.35C265.802 799.519 267.299 796.898 269.738 795.46L1558.94 34.9603Z" fill="white"/>
<path fill-rule="evenodd" clip-rule="evenodd" d="M2744.25 746.567L1680.89 132.639C1607.94 90.5202 1518.06 90.5202 1445.11 132.639L381.754 746.567C308.802 788.686 263.862 866.524 263.862 950.761V2178.62C263.862 2262.85 308.802 2340.69 381.754 2382.81L1445.11 2996.74C1518.06 3038.86 1607.94 3038.86 1680.89 2996.74L2744.25 2382.81C2817.2 2340.69 2862.14 2262.85 2862.14 2178.62V950.761C2862.14 866.524 2817.2 788.686 2744.25 746.567ZM1731.42 45.1271C1627.2 -15.0423 1498.8 -15.0424 1394.58 45.127L331.229 659.055C227.012 719.225 162.812 830.422 162.812 950.761V2178.62C162.812 2298.96 227.012 2410.15 331.229 2470.32L1394.58 3084.25C1498.8 3144.42 1627.2 3144.42 1731.42 3084.25L2794.77 2470.32C2898.99 2410.15 2963.19 2298.96 2963.19 2178.62V950.761C2963.19 830.422 2898.99 719.225 2794.77 659.055L1731.42 45.1271Z" fill="url(#paint0_linear_9963_138910)"/>
<path d="M2247.11 1065.66C2129.61 1480.01 1882.23 2166.48 1566.83 2160.29C1288.53 2160.29 1059.71 1659.36 886.547 1065.66C484.563 1560.41 867.994 2413.85 1566.83 2407.67C2327.51 2395.3 2605.8 1554.22 2247.11 1065.66ZM1566.83 719.333C1239.06 719.333 1072.08 880.127 985.497 948.155C1053.53 1139.87 1276.16 1727.39 1566.83 1733.57C1857.49 1727.39 2080.13 1139.87 2148.16 948.155C2061.58 880.127 1894.6 719.333 1566.83 719.333Z" fill="#191E99"/>
<path style="mix-blend-mode:screen" d="M2247.11 1065.66C2129.61 1480.01 1882.23 2166.48 1566.83 2160.29C1288.53 2160.29 1059.71 1659.36 886.547 1065.66C484.563 1560.41 867.994 2413.85 1566.83 2407.67C2327.51 2395.3 2605.8 1554.22 2247.11 1065.66ZM1566.83 719.333C1239.06 719.333 1072.08 880.127 985.497 948.155C1053.53 1139.87 1276.16 1727.39 1566.83 1733.57C1857.49 1727.39 2080.13 1139.87 2148.16 948.155C2061.58 880.127 1894.6 719.333 1566.83 719.333Z" fill="url(#paint1_linear_9963_138910)"/>
<path style="mix-blend-mode:screen" d="M2247.11 1065.66C2129.61 1480.01 1876.05 2160.29 1566.83 2160.29C1288.53 2160.29 1059.71 1659.36 886.547 1065.66C484.563 1560.41 867.994 2413.85 1566.83 2407.67C2327.51 2395.3 2605.8 1554.22 2247.11 1065.66ZM1566.83 719.333C1239.06 719.333 1072.08 880.127 985.497 948.155C1053.53 1139.87 1276.16 1727.39 1566.83 1733.57C1857.49 1727.39 2080.13 1139.87 2148.16 948.155C2061.58 880.127 1894.6 719.333 1566.83 719.333Z" fill="url(#paint2_linear_9963_138910)"/>
<path d="M994.156 972.892C1133.92 833.744 1341.72 744.07 1562.5 744.07C1786.37 744.07 1990.46 835.599 2137.65 979.077L2154.34 931.457C2005.92 788.598 1791.32 697.688 1562.5 697.688C1333.68 697.688 1130.21 784.887 976.84 925.891L994.156 972.892ZM2237.83 1098.43C2329.36 1230.78 2382.55 1390.34 2382.55 1563.5C2382.55 2016.2 2015.81 2382.93 1563.12 2382.93C1110.42 2382.93 743.689 2016.2 743.689 1563.5C743.689 1386.01 798.73 1223.98 894.587 1089.78L877.89 1033.5C760.387 1185.63 696.688 1368.07 696.688 1563.5C696.688 2041.55 1084.45 2429.31 1562.5 2429.31C2040.55 2429.31 2428.31 2041.55 2428.31 1563.5C2428.31 1367.46 2363.38 1186.87 2253.29 1041.54L2237.83 1098.43Z" fill="#181818"/>
<defs>
<linearGradient id="paint0_linear_9963_138910" x1="1563" y1="0" x2="1563" y2="3129.38" gradientUnits="userSpaceOnUse">
<stop stop-color="#191E99"/>
<stop offset="0.5" stop-color="#EF1F99"/>
<stop offset="1" stop-color="#1AEB99"/>
</linearGradient>
<linearGradient id="paint1_linear_9963_138910" x1="639.172" y1="2386.95" x2="639.172" y2="1565.11" gradientUnits="userSpaceOnUse">
<stop stop-color="#00FF00"/>
<stop offset="0.13" stop-color="#00FF00" stop-opacity="0.75"/>
<stop offset="0.29" stop-color="#00FF00" stop-opacity="0.5"/>
<stop offset="0.53" stop-color="#00FF00" stop-opacity="0.25"/>
<stop offset="0.82" stop-color="#00FF00" stop-opacity="0"/>
</linearGradient>
<linearGradient id="paint2_linear_9963_138910" x1="748.264" y1="2429.31" x2="1566.46" y2="2429.31" gradientUnits="userSpaceOnUse">
<stop stop-color="#FF0000"/>
<stop offset="0.14" stop-color="#FF0000" stop-opacity="0.75"/>
<stop offset="0.3" stop-color="#FF0000" stop-opacity="0.5"/>
<stop offset="0.51" stop-color="#FF0000" stop-opacity="0.25"/>
<stop offset="0.81" stop-color="#FF0000" stop-opacity="0"/>
</linearGradient>
</defs>
</svg>