<svg width="96" height="96" viewBox="0 0 96 96" fill="none" xmlns="http://www.w3.org/2000/svg">
<path d="M43.9999 2.30935C46.4751 0.880283 49.5247 0.880284 51.9999 2.30935L85.5691 21.6905C88.0443 23.1196 89.5691 25.7606 89.5691 28.6187V67.3811C89.5691 70.2393 88.0443 72.8803 85.5691 74.3093L51.9999 93.6905C49.5247 95.1196 46.4751 95.1196 43.9999 93.6905L10.4307 74.3093C7.95545 72.8803 6.43066 70.2393 6.43066 67.3811V28.6187C6.43066 25.7606 7.95546 23.1196 10.4307 21.6905L43.9999 2.30935Z" fill="white"/>
<path fill-rule="evenodd" clip-rule="evenodd" d="M84.1907 22.9024L51.5701 4.06896C49.3322 2.77689 46.575 2.77689 44.337 4.06896L11.7165 22.9024C9.47853 24.1945 8.09991 26.5824 8.09991 29.1665V66.8335C8.09991 69.4176 9.47853 71.8055 11.7165 73.0975L44.337 91.931C46.575 93.2231 49.3322 93.2231 51.5701 91.931L84.1907 73.0975C86.4286 71.8055 87.8072 69.4176 87.8072 66.8335V29.1665C87.8072 26.5824 86.4286 24.1945 84.1907 22.9024ZM53.1201 1.38436C49.923 -0.461454 45.9841 -0.461455 42.7871 1.38436L10.1665 20.2178C6.96946 22.0637 5 25.4749 5 29.1665V66.8335C5 70.5251 6.96946 73.9363 10.1665 75.7821L42.7871 94.6156C45.9841 96.4614 49.923 96.4614 53.1201 94.6156L85.7406 75.7821C88.9377 73.9363 90.9071 70.5251 90.9071 66.8335V29.1665C90.9071 25.4749 88.9377 22.0637 85.7406 20.2178L53.1201 1.38436Z" fill="#2D2F34"/>
<g clip-path="url(#clip0_501_5032)">
<path fill-rule="evenodd" clip-rule="evenodd" d="M66.6018 37.3164C67.1069 37.82 67.1069 38.6484 66.6018 39.152C66.0965 39.6552 65.2654 39.6552 64.76 39.152C64.5193 38.9091 64.3839 38.581 64.3839 38.2395C64.3839 37.5273 64.9722 36.9412 65.6868 36.9412C66.0293 36.9412 66.3584 37.0757 66.6022 37.3155L66.6018 37.3164ZM58.6321 33.1667C59.6072 33.3613 60.5607 33.6512 61.4789 34.0321C62.1204 34.2979 62.4296 35.0453 62.1646 35.6879C61.9695 36.1607 61.507 36.4706 60.9961 36.4706C60.8302 36.4706 60.6656 36.4378 60.512 36.374H60.5096C59.755 36.0606 58.9716 35.8212 58.1706 35.6591C58.1493 35.6553 58.1283 35.6511 58.107 35.6465C57.3259 35.4928 56.5322 35.4135 55.7362 35.4094H55.6711C53.866 35.4093 52.1924 34.4414 51.2895 32.8751C51.2839 32.8654 51.2779 32.8551 51.2728 32.8449C50.4445 31.4158 49.3454 30.1625 48.0374 29.1559C42.4955 24.8948 34.5568 25.9421 30.3025 31.4955C30.0632 31.8083 29.6915 31.9921 29.2982 31.9921C28.604 31.9921 28.0328 31.4197 28.0328 30.7242C28.0328 30.4454 28.1246 30.1741 28.2938 29.9529C28.3069 29.9361 28.3203 29.9198 28.3338 29.9035C29.5413 28.3406 31.0414 27.0283 32.7499 26.0403C40.0076 21.8407 49.2888 24.3321 53.4822 31.6045V31.6068L53.4929 31.625C53.9363 32.3814 54.7414 32.8551 55.6168 32.8747H55.673C56.6672 32.8746 57.659 32.9724 58.6342 33.1667H58.6321ZM27.2187 49.3751C27.2294 49.3546 27.2415 49.3342 27.2536 49.3141C27.6841 48.5451 27.6829 47.6045 27.2503 46.8366C27.2378 46.8156 27.2261 46.7947 27.2145 46.7738C25.2199 43.2951 24.6822 39.1642 25.7199 35.2908C25.8677 34.7393 26.3713 34.3529 26.9422 34.3529C27.6364 34.3529 28.2077 34.9241 28.2077 35.6184C28.2077 35.729 28.1932 35.8391 28.1646 35.946C27.2997 39.1751 27.7489 42.619 29.4131 45.5183C29.4271 45.5415 29.4406 45.5652 29.4536 45.5894C30.3249 47.134 30.3233 49.0279 29.4494 50.5711C29.4332 50.6004 29.4164 50.6297 29.3978 50.658C28.5839 52.0843 28.0553 53.6554 27.8414 55.2835C26.9294 62.2121 31.8062 68.5656 38.7352 69.4779V69.4807C39.3616 69.5633 39.8351 70.103 39.8351 70.7349C39.8351 70.7901 39.8315 70.8453 39.8243 70.9001C39.7337 71.5872 39.0943 72.0789 38.4068 71.9894H38.4092C36.4321 71.7288 34.5256 71.0811 32.7991 70.0831C25.5427 65.8978 23.0511 56.632 27.2187 49.3751ZM29.4024 50.8701C29.435 50.8419 29.465 50.8121 29.4922 50.7811L29.4957 50.7769C29.4674 50.8094 29.4363 50.8406 29.4024 50.8701ZM44.3114 71.7209C43.6195 71.905 42.8975 71.4915 42.7118 70.8051C42.5262 70.1181 42.9431 69.4008 43.6354 69.2167C43.7409 69.1899 43.8492 69.1766 43.958 69.1766C44.6745 69.1766 45.2642 69.7618 45.2642 70.4729C45.2642 71.052 44.8734 71.5639 44.3118 71.7209H44.3114ZM55.7756 63.1937C54.8828 63.1937 54.0534 63.6645 53.5963 64.4301C53.5908 64.4407 53.5847 64.4513 53.5786 64.4616C53.0802 65.3235 52.4981 66.1341 51.8408 66.8822C52.0515 66.6418 52.052 66.6432 51.8408 66.8822C51.8278 66.8969 51.8147 66.9113 51.8012 66.9254C51.1541 67.656 50.4381 68.3229 49.663 68.9167C49.1113 69.3398 48.3085 69.2349 47.8847 68.6839C47.4611 68.1329 47.5663 67.3317 48.1178 66.9082C48.7769 66.4032 49.3847 65.8344 49.9324 65.2107C49.7292 65.4435 49.7287 65.4405 49.9324 65.2107C49.9483 65.1929 49.9641 65.1758 49.9791 65.1593C50.4984 64.5614 50.9603 63.9158 51.3589 63.2314C51.3663 63.2174 51.3742 63.204 51.3821 63.1899C52.2879 61.6272 53.9648 60.6617 55.7732 60.6617C57.4389 60.6617 59.0885 60.3339 60.6272 59.6973C67.0856 57.026 70.1604 49.6432 67.508 43.1887C67.5022 43.1766 67.4967 43.164 67.4916 43.1514C67.4309 43.001 67.3997 42.8404 67.3997 42.6783C67.3997 41.9835 67.9722 41.4118 68.6682 41.4118C69.175 41.4118 69.6351 41.7151 69.8346 42.1805C70.5996 44.0251 70.9932 46.0022 70.9932 47.9988C70.9932 56.3925 64.1789 63.1971 55.7728 63.1971L55.7756 63.1937ZM54.5461 38.0696C54.8812 38.0331 55.2175 38.013 55.555 38.0093C55.5896 38.0089 55.6241 38.0088 55.6587 38.0088C61.2221 38.0088 65.8002 42.5708 65.8002 48.1148C65.8002 53.6588 61.2221 58.2209 55.6587 58.2209C55.2878 58.2209 54.9171 58.2006 54.5485 58.1601C52.4665 58.0007 50.4893 59.1377 49.5862 61.0138C47.9716 64.68 44.3168 67.0587 40.2992 67.0587C34.7355 67.0587 30.1572 62.4967 30.1572 56.9523C30.1572 54.7798 30.8602 52.6641 32.1613 50.9208C33.3089 49.2045 33.2935 46.9533 32.1226 45.2528C32.0015 45.0878 31.8855 44.9196 31.7746 44.7482C30.7226 43.1181 30.1631 41.2202 30.1631 39.2821C30.1631 33.7383 34.7409 29.1765 40.3042 29.1765C44.3198 29.1765 47.9731 31.5533 49.5885 35.2168C50.4915 37.0911 52.4667 38.2274 54.5471 38.0696H54.5461ZM33.9919 60.8822C35.3404 63.2455 37.8408 64.7061 40.538 64.7061C44.6846 64.7061 48.0967 61.2538 48.0967 57.0588C48.0967 52.8638 44.6846 49.4118 40.538 49.4118C39.2112 49.4118 37.9074 49.7652 36.7584 50.4364C33.1679 52.5344 31.9192 57.2493 33.9919 60.8822ZM49.0987 51.9409C50.4472 54.3041 52.9477 55.7647 55.6449 55.7647C59.7917 55.7647 63.2038 52.3127 63.2038 48.1176C63.2038 43.9226 59.7917 40.4706 55.6449 40.4706C54.3183 40.4706 53.0147 40.824 51.8657 41.495C48.2751 43.5928 47.0261 48.3078 49.0987 51.9409ZM40.5455 46.8235C44.6884 46.8222 48.0967 43.3706 48.0967 39.1765C48.0967 34.9814 44.687 31.5294 40.5433 31.5294C36.3995 31.5294 32.9897 34.9814 32.9897 39.1765C32.9897 39.1769 32.9897 39.1774 32.9897 39.1779C32.9908 43.3725 36.4004 46.8235 40.5437 46.8235C40.5443 46.8235 40.5449 46.8235 40.5455 46.8235Z" fill="#2D2F34"/>
</g>
<defs>
<clipPath id="clip0_501_5032">
<rect width="48" height="48" fill="white" transform="translate(24 24)"/>
</clipPath>
</defs>
</svg>
