<svg xmlns="http://www.w3.org/2000/svg" width="96" height="96" fill="none"><path fill="#fff" d="M44 2.31a8 8 0 0 1 8 0l33.57 19.38a8 8 0 0 1 4 6.929V67.38a8 8 0 0 1-4 6.928L52 93.691a8 8 0 0 1-8 0L10.43 74.308a8 8 0 0 1-4-6.928V28.62a8 8 0 0 1 4-6.928L44 2.308Z"/><path fill="#5D87BF" fill-rule="evenodd" d="M84.19 22.902 51.57 4.07a7.233 7.233 0 0 0-7.233 0l-32.62 18.833A7.233 7.233 0 0 0 8.1 29.166v37.668a7.233 7.233 0 0 0 3.617 6.263l32.62 18.834a7.233 7.233 0 0 0 7.233 0l32.62-18.834a7.233 7.233 0 0 0 3.617-6.263V29.166a7.233 7.233 0 0 0-3.616-6.264ZM53.12 1.384a10.333 10.333 0 0 0-10.333 0l-32.62 18.834A10.333 10.333 0 0 0 5 29.166v37.668c0 3.691 1.97 7.102 5.166 8.948l32.621 18.834a10.333 10.333 0 0 0 10.333 0l32.62-18.834a10.333 10.333 0 0 0 5.167-8.948V29.166c0-3.691-1.97-7.102-5.166-8.948L53.12 1.384Z" clip-rule="evenodd"/><g clip-path="url(#a)"><mask id="b" width="48" height="48" x="24" y="24" maskUnits="userSpaceOnUse" style="mask-type:luminance"><path fill="#fff" d="M72 24H24v48h48V24Z"/></mask><g mask="url(#b)"><path fill="#5D87BF" d="m54.569 67.54 13.947-38.784c.236-.658-.137-1.137-.832-1.07l-10.968 1.056c-.696.067-1.448.658-1.678 1.318L42.13 67.125c-.23.66.15 1.196.85 1.196h10.676c.35 0 .729-.267.847-.596l.067-.185Z"/><g filter="url(#c)"><path fill="#5D87BF" d="M52.978 67.725 47.17 50.95l.83-.519 5.91 17.11-.933.184Z"/></g><path fill="#5D87BF" d="m28.317 27.686 10.968 1.056c.695.067 1.448.657 1.679 1.317l13.182 37.664c.116.33-.074.598-.424.598H42.98c-.7 0-1.459-.534-1.695-1.192l-13.8-38.373c-.236-.658.137-1.137.832-1.07Z"/></g></g><defs><clipPath id="a"><path fill="#fff" d="M24 24h48v48H24z"/></clipPath><filter id="c" width="32.502" height="43.055" x="34.29" y="37.55" color-interpolation-filters="sRGB" filterUnits="userSpaceOnUse"><feFlood flood-opacity="0" result="BackgroundImageFix"/><feBlend in="SourceGraphic" in2="BackgroundImageFix" result="shape"/><feGaussianBlur result="effect1_foregroundBlur_907_5159" stdDeviation="6.44"/></filter></defs></svg>