<svg width="96" height="96" fill="none" xmlns="http://www.w3.org/2000/svg">
  <path d="M44 2.3093a8 8 0 018 0l33.5692 19.3812a8 8 0 014 6.9282v38.7624a7.9998 7.9998 0 01-4 6.9282L52 93.6905a7.9998 7.9998 0 01-8 0L10.4308 74.3093a7.9998 7.9998 0 01-4-6.9282V28.6187a8 8 0 014-6.9282L44 2.3093z" fill="#fff"/>
  <path fill-rule="evenodd" clip-rule="evenodd" d="M84.1907 22.9024L51.5701 4.069a7.233 7.233 0 00-7.2331 0L11.7165 22.9024a7.2332 7.2332 0 00-3.6166 6.2641v37.667a7.233 7.233 0 003.6166 6.264L44.337 91.931a7.233 7.233 0 007.2331 0l32.6206-18.8335a7.233 7.233 0 003.6165-6.264v-37.667a7.2333 7.2333 0 00-3.6165-6.2641zM53.1201 1.3844a10.333 10.333 0 00-10.333 0L10.1665 20.2178A10.3332 10.3332 0 005 29.1665v37.667a10.333 10.333 0 005.1665 8.9486l32.6206 18.8335a10.333 10.333 0 0010.333 0l32.6205-18.8335a10.333 10.333 0 005.1666-8.9486v-37.667a10.3332 10.3332 0 00-5.1666-8.9487L53.1201 1.3844z" fill="#004E8C"/>
  <g clip-path="url(#clip0)">
    <path d="M48 72c13.2548 0 24-10.7452 24-24S61.2548 24 48 24 24 34.7452 24 48s10.7452 24 24 24z" fill="#004E8C"/>
    <path opacity=".1" d="M31.365 30.75a23.9995 23.9995 0 00-8.0231 17.2279A24.0002 24.0002 0 0057.464 70.4245a23.9998 23.9998 0 007.786-5.7895L31.365 30.75z" fill="#fff"/>
    <path d="M48.9675 38.55L42 57.4499h-2.4675L32.6775 38.55h2.4675l5.25 15a8.9066 8.9066 0 01.3825 1.6725h.0525a8.2507 8.2507 0 01.42-1.7101l5.34-14.9999 2.3775.0375zM51.69 57.4499v-18.9h5.3775a5.88 5.88 0 013.885 1.2 3.8776 3.8776 0 011.44 3.1275 4.5975 4.5975 0 01-.8925 2.79 4.6954 4.6954 0 01-2.4 1.6875v.0525a4.8076 4.8076 0 013.06 1.44 4.44 4.44 0 011.1475 3.1725 4.9413 4.9413 0 01-.4205 2.164 4.9413 4.9413 0 01-1.3195 1.766 6.4795 6.4795 0 01-4.3875 1.5h-5.49zm2.25-16.905v6.105h2.25a4.3047 4.3047 0 002.8425-.9 3.0518 3.0518 0 001.0425-2.475c0-1.835-1.2075-2.7525-3.6225-2.7525l-2.5125.0225zm0 8.0925v6.8025h3a4.5 4.5 0 003-.9225 3.1576 3.1576 0 001.0725-2.5275c0-2.23-1.52-3.345-4.56-3.345l-2.5125-.0075z" fill="#fff"/>
  </g>
  <defs>
    <clipPath id="clip0">
      <path fill="#fff" transform="translate(24 24)" d="M0 0h48v48H0z"/>
    </clipPath>
  </defs>
</svg>
