<svg width="96" height="96" fill="none" xmlns="http://www.w3.org/2000/svg">
  <path d="M43.9999 2.3093a8 8 0 0 1 8 0l33.5692 19.3812a8 8 0 0 1 4 6.9282v38.7624a7.9998 7.9998 0 0 1-4 6.9282L51.9999 93.6905a7.9998 7.9998 0 0 1-8 0L10.4307 74.3093a7.9998 7.9998 0 0 1-4-6.9282V28.6187a8 8 0 0 1 4-6.9282L43.9999 2.3093Z" fill="#fff"/>
  <path fill-rule="evenodd" clip-rule="evenodd" d="M84.1907 22.9024 51.5701 4.069a7.233 7.233 0 0 0-7.2331 0L11.7165 22.9024a7.2332 7.2332 0 0 0-3.6166 6.2641v37.667a7.233 7.233 0 0 0 3.6166 6.264L44.337 91.931a7.233 7.233 0 0 0 7.2331 0l32.6206-18.8335a7.233 7.233 0 0 0 3.6165-6.264v-37.667a7.2333 7.2333 0 0 0-3.6165-6.2641ZM53.1201 1.3844a10.333 10.333 0 0 0-10.333 0L10.1665 20.2178A10.3332 10.3332 0 0 0 5 29.1665v37.667a10.333 10.333 0 0 0 5.1665 8.9486l32.6206 18.8335a10.333 10.333 0 0 0 10.333 0l32.6205-18.8335a10.3328 10.3328 0 0 0 5.1665-8.9486v-37.667a10.3331 10.3331 0 0 0-5.1665-8.9487L53.1201 1.3844Z" fill="#536B8A"/>
  <g clip-path="url(#a)">
    <path d="M54.5687 67.5402 68.5158 28.756c.2365-.6578-.1363-1.1374-.8321-1.0703l-10.9681 1.0566c-.6957.0671-1.4473.6574-1.6771 1.3174L42.1291 67.1248c-.23.66.1508 1.1959.8498 1.1959h10.6757c.3495 0 .7293-.2669.8475-.5959l.0666-.1846Z" fill="#536B8A"/>
    <g filter="url(#b)">
      <path d="m52.9776 67.7248-5.8069-16.7752.8295-.5184 5.9107 17.109-.9333.1846Z" fill="#536B8A"/>
    </g>
    <path d="m28.3165 27.6857 10.9681 1.0566c.6957.0671 1.4481.6571 1.6791 1.3168l13.1825 37.664c.1154.3299-.0746.5976-.4241.5976H42.9788c-.699 0-1.4585-.534-1.6951-1.1918L27.4844 28.756c-.2364-.6578.1363-1.1374.8321-1.0703Z" fill="#536B8A"/>
  </g>
  <defs>
    <clipPath id="a">
      <path fill="#fff" transform="translate(24 24)" d="M0 0h48v48H0z"/>
    </clipPath>
    <filter id="b" x="34.2898" y="37.5503" width="32.5019" height="43.0554" filterUnits="userSpaceOnUse" color-interpolation-filters="sRGB">
      <feFlood flood-opacity="0" result="BackgroundImageFix"/>
      <feBlend in="SourceGraphic" in2="BackgroundImageFix" result="shape"/>
      <feGaussianBlur stdDeviation="6.4404" result="effect1_foregroundBlur_303_5097"/>
    </filter>
  </defs>
</svg>
