<svg width="96" height="96" fill="none" xmlns="http://www.w3.org/2000/svg">
  <path d="M43.9999 2.3093a8 8 0 0 1 8 0l33.5692 19.3812a8 8 0 0 1 4 6.9282v38.7624a7.9998 7.9998 0 0 1-4 6.9282L51.9999 93.6905a7.9998 7.9998 0 0 1-8 0L10.4307 74.3093a7.9998 7.9998 0 0 1-4-6.9282V28.6187a8 8 0 0 1 4-6.9282L43.9999 2.3093Z" fill="#fff"/>
  <path fill-rule="evenodd" clip-rule="evenodd" d="M84.1907 22.9024 51.5701 4.069a7.233 7.233 0 0 0-7.2331 0L11.7165 22.9024a7.2332 7.2332 0 0 0-3.6166 6.2641v37.667a7.233 7.233 0 0 0 3.6166 6.264L44.337 91.931a7.233 7.233 0 0 0 7.2331 0l32.6206-18.8335a7.233 7.233 0 0 0 3.6165-6.264v-37.667a7.2333 7.2333 0 0 0-3.6165-6.2641ZM53.1201 1.3844a10.333 10.333 0 0 0-10.333 0L10.1665 20.2178A10.3332 10.3332 0 0 0 5 29.1665v37.667a10.333 10.333 0 0 0 5.1665 8.9486l32.6206 18.8335a10.333 10.333 0 0 0 10.333 0l32.6205-18.8335a10.3328 10.3328 0 0 0 5.1665-8.9486v-37.667a10.3331 10.3331 0 0 0-5.1665-8.9487L53.1201 1.3844Z" fill="#4521AE"/>
  <g clip-path="url(#a)">
    <path d="M53.4902 24v.2588c0 3.04-2.4643 5.5036-5.5035 5.5036-3.04 0-5.5036-2.4644-5.5036-5.5036V24H24v48h48V24H53.4902Z" fill="#4521AE"/>
    <path d="m53.9221 50.6521-4.392 16.848h-4.968l-2.688-11.088-2.784 11.088h-4.968l-4.272-16.848h4.392l2.424 12.264 3-12.264h4.512l2.88 12.264 2.448-12.264h4.416ZM64.0683 64.5241h-6.288l-1.008 2.976h-4.296l6.096-16.848h4.752l6.096 16.848h-4.344l-1.008-2.976Zm-1.056-3.168-2.088-6.168-2.064 6.168h4.152Z" fill="#fff"/>
  </g>
  <defs>
    <clipPath id="a">
      <path fill="#fff" transform="translate(24 24)" d="M0 0h48v48H0z"/>
    </clipPath>
  </defs>
</svg>
