<svg width="96" height="96" fill="none" xmlns="http://www.w3.org/2000/svg">
  <path d="M44 2.3093a8 8 0 018 0l33.5692 19.3812a8 8 0 014 6.9282v38.7624a7.9998 7.9998 0 01-4 6.9282L52 93.6905a7.9998 7.9998 0 01-8 0L10.4308 74.3093a7.9998 7.9998 0 01-4-6.9282V28.6187a8 8 0 014-6.9282L44 2.3093z" fill="#fff"/>
  <path fill-rule="evenodd" clip-rule="evenodd" d="M84.1907 22.9024L51.5701 4.069a7.233 7.233 0 00-7.2331 0L11.7165 22.9024a7.2332 7.2332 0 00-3.6166 6.2641v37.667a7.233 7.233 0 003.6166 6.264L44.337 91.931a7.233 7.233 0 007.2331 0l32.6206-18.8335a7.233 7.233 0 003.6165-6.264v-37.667a7.2333 7.2333 0 00-3.6165-6.2641zM53.1201 1.3844a10.333 10.333 0 00-10.333 0L10.1665 20.2178A10.3332 10.3332 0 005 29.1665v37.667a10.333 10.333 0 005.1665 8.9486l32.6206 18.8335a10.333 10.333 0 0010.333 0l32.6205-18.8335a10.3328 10.3328 0 005.1665-8.9486v-37.667a10.3331 10.3331 0 00-5.1665-8.9487L53.1201 1.3844z" fill="#614A11"/>
  <path fill-rule="evenodd" clip-rule="evenodd" d="M33.9753 49.4567h-.0239l-1.2143-5.0268h.553c.0962 0 .1443-.0596.1443-.179v-.6415c0-.1192-.0481-.1788-.1443-.179h-1.9522c-.1466-.9787-.2143-1.8995-.2221-2.7238-.0364-3.8036-1.4882-6.9343-1.9119-7.7396C28.7803 32.1615 24 30.9597 24 30.9597c.7158-.9632 4.9794-.0278 4.9794-.0278s1.364-1.1577 3.6335-2.0816c2.2695-.9239 5.2343.1905 6.7856.9206 1.8111.8521 4.9669 3.9366 5.6437 4.8805.6767.9438 1.3606 1.527 2.0215 1.7869 2.4747.973 6.6532 3.1715 7.2499 3.5996.5969.4282 2.6192 1.653 5.17 1.0048 3.5892-.9118 11.4595-8.1276 11.4595-8.1276s-3.2376 3.1192-2.4539 2.9082c.7836-.2108 3.4524-1.9176 3.4524-1.9176s-1.4353 1.4454-1.9989 1.9894c-.0916.0669-.1614.1256-.2002.172-.0688.082.0223.0001.2002-.172C70.5271 35.4693 72 34.7135 72 34.7135l-4.4811 3.7093 2.5136-.8197c.059-.0228.114-.0408.1648-.0539l-.1648.0539c-1.8149.6997-7.3232 5.8588-7.3232 5.8588s2.1541.4087 1.5666.3045c-.5874-.1041-2.4048 2.5197-2.4048 2.5197s.944.1348 1.5656.2043c-1.0438.3768-2.7661 2.9477-2.7661 2.9477l-.5833 2.0771c2.0643 1.9176 2.0648 3.9858 2.0648 3.9858-2.0001-1.6918-4.4451-1.6606-4.4451-1.6606-3.2011 3.7672-6.5684 4.9458-9.2014 5.1742l.7833 6.1616s.2163 1.0861.6289 1.5498c.1724.1938 1.0907.4979 1.0907.4979l.1058.3741-1.4179-.2246-.6537-.3129-.684.164-.6834.6179-.6321-.1648.481-.4976-1.1669.0081.0967-.261.8126-.4222 1.1238-.721.2925-1.0059-1.2367-5.7189c-1.894-.0044-3.2566-.4542-3.6505-.5544-.162-.0414-.3542-.0788-.5802-.1298l-1.2796 5.6706s.5969 1.4379 1.4616 1.992c.3615.2315 1.9274 1.0387 1.9274 1.0387l.265.4892-2.5037-.6052-1.5889-.2748-1.9001.4132-3.0456 1.1514-.6086-.1673 2.3401-1.1871-1.5877.4385.1398-.3735.5694-.6378.4902-.2073 2.4332-1.074 1.0232-1.2158.6338-5.8184c-1.1621-.4459-2.8001-1.3641-5.0701-3.4841-1.2292-1.1483-2.2193-2.4258-3.0088-3.7539h.3819c.1684 0 .2685-.1045.3006-.3132l1.022-4.9969h.0239l1.022 4.9969c.0241.2087.1202.3132.2886.3132h.7093c.1284 0 .2244-.1045.2885-.3132l1.5871-6.0262h.6613c.0962 0 .1443-.0596.1443-.179v-.6415c0-.1192-.0481-.1788-.1443-.179H37.955c-.1043.0002-.1563.0598-.1563.179v.6415c0 .1194.052.179.1563.179h.5411l-1.2024 5.0268h-.0239l-1.0582-5.0268h.469c.0962 0 .1443-.0596.1443-.179v-.6415c0-.1192-.0481-.1788-.1443-.179h-2.1161c-.0962.0002-.1443.0598-.1443.179v.6415c0 .1194.0481.179.1443.179h.469l-1.0582 5.0268zm17.1931-2.2075c.1121-.0002.1682-.0648.1682-.194v-.1194c0-1.1037-.2325-1.9814-.6973-2.6326-.465-.6514-1.1042-.977-1.9176-.977-.8136 0-1.501.3356-2.0621 1.0067-.561.6713-.8415 1.5862-.8415 2.7447 0 1.1585.2825 2.0807.8476 2.767.565.6861 1.2683 1.0291 2.1101 1.0291.3687 0 .7153-.0645 1.0399-.1939.3247-.1292.5891-.2884.7935-.4772.2044-.189.3627-.358.475-.5073.1121-.1491.1863-.2585.2224-.3281.036-.0695.0541-.1269.0541-.1715 0-.0448-.0241-.097-.0721-.1566l-.3247-.4028c-.0802-.0696-.1524-.0546-.2165.0448-.1201.2486-.3546.5021-.7033.7607-.3486.2585-.7674.3879-1.2563.3879-.489 0-.9279-.2239-1.3166-.6714-.3888-.4475-.5992-1.0837-.6311-1.9091h4.3283zM41.105 49.7699c-.1041.0002-.1562.0598-.1562.179v.6414c0 .1194.0521.179.1562.179h2.2964c.1042 0 .1563-.0596.1563-.179v-.6414c0-.1192-.0521-.1788-.1563-.179h-.6372v-2.5058c0-.6962.2043-1.3177.6132-1.8647.4088-.5468.9578-.8202 1.6472-.8202h.2524c.1042-.0002.1563-.0648.1563-.194v-.7905c0-.1294-.0521-.194-.1563-.194-.4088 0-.7755.0746-1.1.2237-.3247.1493-.5731.3158-.7455.4998s-.3306.4151-.4749.6936c-.1442.2784-.2284.4971-.2525.6563h-.036v-1.8647c0-.1192-.0522-.1788-.1563-.179H41.105c-.1041.0002-.1562.0598-.1562.179v.6415c0 .1194.0521.179.1562.179h.6613v5.34h-.6613zm11.3378 0c-.1043.0002-.1564.0598-.1564.179v.6414c0 .1194.0521.179.1564.179h2.2963c.1043 0 .1564-.0596.1564-.179v-.6414c0-.1192-.0521-.1788-.1564-.179h-.6372v-4.102c.0642-.1591.1162-.2685.1564-.3281.3446-.6265.8255-.9396 1.4427-.9396.4329 0 .7614.159.9859.4772.2244.3183.3366.7658.3366 1.3424v3.923c0 .4178.1724.6265.517.6265h1.1422c.1042 0 .1563-.0596.1563-.179v-.6414c0-.1192-.0521-.1788-.1563-.179h-.6734v-3.8483c-.0079-.7957-.1923-1.427-.553-1.8944-.3607-.4674-.8616-.701-1.5028-.701-.8737 0-1.519.4325-1.9357 1.2976h-.0362l.0241-1.0144c0-.1192-.052-.1788-.1563-.179h-1.4066c-.1043.0002-.1564.0598-.1564.179v.6415c0 .1194.0521.179.1564.179h.6613v5.34h-.6613zm10.9939-3.2795c.1239-.0446.2382-.0584.3391-.0333.4033.1006.12.0849-.3391.0333zm-13.098-.1512c-.0241-.6165-.1803-1.1088-.4688-1.4768-.2886-.3678-.6734-.5517-1.1542-.5517-.4811 0-.8938.169-1.2384.5071-.3447.338-.5492.8451-.6133 1.5214h3.4747z" fill="#614A11"/>
  <path d="M59.25 51.375l-19.875 5.25-1.1346-.8825a18.841 18.841 0 01-3.868-4.0677l-.1059-.1512a16.8418 16.8418 0 01-2.9948-8.3663L31.125 41.25 59.25 42v9.375z" fill="#614A11"/>
</svg>
