<svg width="96" height="96" viewBox="0 0 96 96" fill="none" xmlns="http://www.w3.org/2000/svg">
<path d="M44 2.30935C46.4752 0.880283 49.5248 0.880284 52 2.30935L85.5692 21.6905C88.0444 23.1196 89.5692 25.7606 89.5692 28.6187V67.3811C89.5692 70.2393 88.0444 72.8803 85.5692 74.3093L52 93.6905C49.5248 95.1196 46.4752 95.1196 44 93.6905L10.4308 74.3093C7.95558 72.8803 6.43079 70.2393 6.43079 67.3811V28.6187C6.43079 25.7606 7.95558 23.1196 10.4308 21.6905L44 2.30935Z" fill="white"/>
<path fill-rule="evenodd" clip-rule="evenodd" d="M84.1907 22.9024L51.5701 4.06896C49.3322 2.77689 46.575 2.77689 44.337 4.06896L11.7165 22.9024C9.47853 24.1945 8.09991 26.5824 8.09991 29.1665V66.8335C8.09991 69.4176 9.47853 71.8055 11.7165 73.0975L44.337 91.931C46.575 93.2231 49.3322 93.2231 51.5701 91.931L84.1907 73.0975C86.4286 71.8055 87.8072 69.4176 87.8072 66.8335V29.1665C87.8072 26.5824 86.4286 24.1945 84.1907 22.9024ZM53.1201 1.38436C49.923 -0.461454 45.9841 -0.461455 42.7871 1.38436L10.1665 20.2178C6.96946 22.0637 5 25.4749 5 29.1665V66.8335C5 70.5251 6.96946 73.9363 10.1665 75.7821L42.7871 94.6156C45.9841 96.4614 49.923 96.4614 53.1201 94.6156L85.7406 75.7821C88.9377 73.9363 90.9072 70.5251 90.9072 66.8335V29.1665C90.9072 25.4749 88.9377 22.0637 85.7406 20.2178L53.1201 1.38436Z" fill="#614A11"/>
<g clip-path="url(#clip0)">
<path fill-rule="evenodd" clip-rule="evenodd" d="M33.9753 48.8572H33.9514L32.7371 44.8737H33.2901C33.3863 44.8737 33.4344 44.8264 33.4344 44.7318V44.2235C33.4344 44.1291 33.3863 44.0818 33.2901 44.0817H31.3379C31.1913 43.3061 31.1236 42.5763 31.1158 41.9231C31.0794 38.909 29.6276 36.428 29.2039 35.7899C28.7803 35.1516 24 34.1992 24 34.1992C24.7158 33.4359 28.9794 34.1772 28.9794 34.1772C28.9794 34.1772 30.3434 33.2597 32.6129 32.5276C34.8824 31.7954 37.8472 32.6785 39.3985 33.2572C41.2096 33.9324 44.3654 36.3767 45.0422 37.1247C45.7189 37.8726 46.4028 38.3348 47.0637 38.5407C49.5384 39.3117 53.7169 41.054 54.3136 41.3933C54.9105 41.7325 56.9328 42.7031 59.4836 42.1895C63.0728 41.4669 70.9431 35.7487 70.9431 35.7487C70.9431 35.7487 67.7055 38.2206 68.4892 38.0534C69.2728 37.8863 71.9416 36.5337 71.9416 36.5337C71.9416 36.5337 70.5063 37.6791 69.9427 38.1103C69.8511 38.1633 69.7813 38.2098 69.7425 38.2465C69.6737 38.3115 69.7648 38.2467 69.9427 38.1103C70.5271 37.7729 72 37.1739 72 37.1739L67.5189 40.1133L70.0325 39.4638C70.0915 39.4457 70.1465 39.4314 70.1973 39.4211L70.0325 39.4638C68.2176 40.0182 62.7093 44.1066 62.7093 44.1066C62.7093 44.1066 64.8634 44.4305 64.2759 44.3479C63.6885 44.2654 61.8711 46.3447 61.8711 46.3447C61.8711 46.3447 62.8151 46.4514 63.4367 46.5066C62.3929 46.8051 60.6706 48.8425 60.6706 48.8425L60.0873 50.4884C62.1516 52.008 62.1521 53.647 62.1521 53.647C60.152 52.3063 57.707 52.3311 57.707 52.3311C54.5059 55.3164 51.1386 56.2504 48.5056 56.4314L49.2889 61.3142C49.2889 61.3142 49.5052 62.1748 49.9178 62.5423C50.0902 62.6959 51.0085 62.9369 51.0085 62.9369L51.1143 63.2333L49.6964 63.0553L49.0427 62.8073L48.3587 62.9373L47.6753 63.427L47.0432 63.2964L47.5242 62.9021L46.3573 62.9085L46.454 62.7016L47.2666 62.3671L48.3904 61.7957L48.6829 60.9986L47.4462 56.4666C45.5522 56.4631 44.1896 56.1067 43.7957 56.0273C43.6337 55.9945 43.4415 55.9649 43.2155 55.9245L41.9359 60.4181C41.9359 60.4181 42.5328 61.5576 43.3975 61.9967C43.759 62.1801 45.3249 62.8198 45.3249 62.8198L45.5899 63.2075L43.0862 62.7279L41.4973 62.5101L39.5972 62.8376L36.5516 63.75L35.943 63.6174L38.2831 62.6767L36.6954 63.0242L36.8352 62.7282L37.4046 62.2228L37.8948 62.0585L40.328 61.2074L41.3512 60.2439L41.985 55.6332C40.8229 55.2798 39.1849 54.5522 36.9149 52.8722C35.6857 51.9622 34.6956 50.9498 33.9061 49.8974H34.288C34.4564 49.8974 34.5565 49.8146 34.5886 49.6492L35.6106 45.6894H35.6345L36.6565 49.6492C36.6806 49.8146 36.7767 49.8974 36.9451 49.8974H37.6544C37.7828 49.8974 37.8788 49.8146 37.9429 49.6492L39.53 44.8737H40.1913C40.2875 44.8737 40.3356 44.8264 40.3356 44.7318V44.2235C40.3356 44.1291 40.2875 44.0818 40.1913 44.0817H37.955C37.8507 44.0818 37.7987 44.1291 37.7987 44.2235V44.7318C37.7987 44.8264 37.8507 44.8737 37.955 44.8737H38.4961L37.2937 48.8572H37.2698L36.2116 44.8737H36.6806C36.7768 44.8737 36.8249 44.8264 36.8249 44.7318V44.2235C36.8249 44.1291 36.7768 44.0818 36.6806 44.0817H34.5645C34.4683 44.0818 34.4202 44.1291 34.4202 44.2235V44.7318C34.4202 44.8264 34.4683 44.8737 34.5645 44.8737H35.0335L33.9753 48.8572ZM51.1684 47.1078C51.2805 47.1077 51.3366 47.0565 51.3366 46.9541C51.3366 46.9225 51.3366 46.8911 51.3366 46.8595C51.3366 45.9849 51.1041 45.2893 50.6393 44.7733C50.1743 44.2571 49.5351 43.9991 48.7217 43.9991C47.9081 43.9991 47.2207 44.265 46.6596 44.7968C46.0986 45.3288 45.8181 46.0538 45.8181 46.9719C45.8181 47.89 46.1006 48.6207 46.6657 49.1646C47.2307 49.7083 47.934 49.9801 48.7758 49.9801C49.1445 49.9801 49.4911 49.929 49.8157 49.8264C50.1404 49.7241 50.4048 49.5979 50.6092 49.4483C50.8136 49.2985 50.9719 49.1646 51.0842 49.0463C51.1963 48.9281 51.2705 48.8414 51.3066 48.7863C51.3426 48.7312 51.3607 48.6857 51.3607 48.6504C51.3607 48.6148 51.3366 48.5735 51.2886 48.5263L50.9639 48.2071C50.8837 48.1519 50.8115 48.1638 50.7474 48.2426C50.6273 48.4396 50.3928 48.6405 50.0441 48.8454C49.6955 49.0502 49.2767 49.1527 48.7878 49.1527C48.2987 49.1527 47.8599 48.9754 47.4712 48.6207C47.0824 48.2661 46.872 47.7619 46.8401 47.1078H51.1684ZM41.105 49.1054C41.0009 49.1055 40.9488 49.1527 40.9488 49.2472V49.7555C40.9488 49.8501 41.0009 49.8974 41.105 49.8974H43.4014C43.5056 49.8974 43.5577 49.8501 43.5577 49.7555V49.2472C43.5577 49.1527 43.5056 49.1055 43.4014 49.1054H42.7642V47.1197C42.7642 46.5679 42.9685 46.0754 43.3774 45.642C43.7862 45.2087 44.3352 44.992 45.0246 44.992H45.277C45.3812 44.9918 45.4333 44.9406 45.4333 44.8383V44.2118C45.4333 44.1093 45.3812 44.0581 45.277 44.0581C44.8682 44.0581 44.5015 44.1172 44.177 44.2354C43.8523 44.3537 43.6039 44.4856 43.4315 44.6314C43.2591 44.7772 43.1009 44.9604 42.9566 45.1811C42.8124 45.4017 42.7282 45.575 42.7041 45.7012H42.6681V44.2235C42.6681 44.1291 42.6159 44.0818 42.5118 44.0817H41.105C41.0009 44.0818 40.9488 44.1291 40.9488 44.2235V44.7318C40.9488 44.8264 41.0009 44.8737 41.105 44.8737H41.7663V49.1054H41.105ZM52.4428 49.1054C52.3385 49.1055 52.2864 49.1527 52.2864 49.2472V49.7555C52.2864 49.8501 52.3385 49.8974 52.4428 49.8974H54.7391C54.8434 49.8974 54.8955 49.8501 54.8955 49.7555V49.2472C54.8955 49.1527 54.8434 49.1055 54.7391 49.1054H54.102V45.8547C54.1661 45.7287 54.2181 45.642 54.2583 45.5947C54.6029 45.0983 55.0838 44.8501 55.701 44.8501C56.1339 44.8501 56.4624 44.9762 56.6869 45.2283C56.9113 45.4805 57.0235 45.8352 57.0235 46.2921V49.4009C57.0235 49.732 57.1959 49.8974 57.5405 49.8974H58.6827C58.7869 49.8974 58.839 49.8501 58.839 49.7555V49.2472C58.839 49.1527 58.7869 49.1055 58.6827 49.1054H58.0093V46.0558C58.0014 45.4253 57.817 44.925 57.4563 44.5546C57.0956 44.1842 56.5947 43.9991 55.9535 43.9991C55.0798 43.9991 54.4345 44.3418 54.0178 45.0274H53.9816L54.0057 44.2235C54.0057 44.1291 53.9537 44.0818 53.8494 44.0817H52.4428C52.3385 44.0818 52.2864 44.1291 52.2864 44.2235V44.7318C52.2864 44.8264 52.3385 44.8737 52.4428 44.8737H53.1041V49.1054H52.4428ZM63.4367 46.5066C63.5606 46.4712 63.6749 46.4602 63.7758 46.4801C64.1791 46.5599 63.8958 46.5474 63.4367 46.5066ZM50.3387 46.3867C50.3146 45.8982 50.1584 45.508 49.8699 45.2164C49.5813 44.925 49.1965 44.7792 48.7157 44.7792C48.2346 44.7792 47.8219 44.9132 47.4773 45.1811C47.1326 45.449 46.9281 45.8508 46.864 46.3867H50.3387Z" fill="#614A11"/>
</g>
<defs>
<clipPath id="clip0">
<rect width="48" height="48" fill="white" transform="translate(24 24)"/>
</clipPath>
</defs>
</svg>
