<svg width="96" height="96" viewBox="0 0 96 96" fill="none" xmlns="http://www.w3.org/2000/svg">
<path d="M44 2.30935C46.4752 0.880283 49.5248 0.880284 52 2.30935L85.5692 21.6905C88.0444 23.1196 89.5692 25.7606 89.5692 28.6187V67.3811C89.5692 70.2393 88.0444 72.8803 85.5692 74.3093L52 93.6905C49.5248 95.1196 46.4752 95.1196 44 93.6905L10.4308 74.3093C7.95558 72.8803 6.43079 70.2393 6.43079 67.3811V28.6187C6.43079 25.7606 7.95558 23.1196 10.4308 21.6905L44 2.30935Z" fill="white"/>
<path fill-rule="evenodd" clip-rule="evenodd" d="M84.1907 22.9024L51.5701 4.06896C49.3322 2.77689 46.575 2.77689 44.337 4.06896L11.7165 22.9024C9.47853 24.1945 8.09991 26.5824 8.09991 29.1665V66.8335C8.09991 69.4176 9.47853 71.8055 11.7165 73.0975L44.337 91.931C46.575 93.2231 49.3322 93.2231 51.5701 91.931L84.1907 73.0975C86.4286 71.8055 87.8072 69.4176 87.8072 66.8335V29.1665C87.8072 26.5824 86.4286 24.1945 84.1907 22.9024ZM53.1201 1.38436C49.923 -0.461454 45.9841 -0.461455 42.7871 1.38436L10.1665 20.2178C6.96946 22.0637 5 25.4749 5 29.1665V66.8335C5 70.5251 6.96946 73.9363 10.1665 75.7821L42.7871 94.6156C45.9841 96.4614 49.923 96.4614 53.1201 94.6156L85.7406 75.7821C88.9377 73.9363 90.9071 70.5251 90.9071 66.8335V29.1665C90.9071 25.4749 88.9377 22.0637 85.7406 20.2178L53.1201 1.38436Z" fill="#6241C0"/>
<g clip-path="url(#clip0)">
<path d="M53.4902 24C53.4902 24.0847 53.4902 24.1694 53.4902 24.2588C53.4902 27.2988 51.0259 29.7624 47.9867 29.7624C44.9467 29.7624 42.4831 27.298 42.4831 24.2588C42.4831 24.1694 42.4831 24.0847 42.4831 24H24V72H72V24H53.4902Z" fill="#6241C0"/>
</g>
<path d="M37.99 67.2095L35.7809 63.9931L33.9227 67.2095H30.1032L33.9021 61.2955L30 55.6304H33.964L36.1732 58.8261L38.0313 55.6304H41.8508L37.99 61.4615L41.9541 67.2095H37.99Z" fill="white"/>
<path d="M45.441 59.0751C44.1472 58.3834 43.5003 57.2974 43.5003 55.8172C43.5003 55.0702 43.693 54.3923 44.0783 53.7836C44.4637 53.1611 45.0487 52.67 45.8333 52.3103C46.6178 51.9368 47.5813 51.75 48.7237 51.75C49.8661 51.75 50.8227 51.9368 51.5935 52.3103C52.3781 52.67 52.963 53.1611 53.3484 53.7836C53.7338 54.3923 53.9265 55.0702 53.9265 55.8172C53.9265 56.5642 53.7476 57.2144 53.3897 57.7678C53.0456 58.3211 52.5776 58.7569 51.9858 59.0751C52.729 59.4348 53.3002 59.9328 53.6994 60.5692C54.0986 61.1917 54.2981 61.9249 54.2981 62.7688C54.2981 63.751 54.0504 64.6018 53.5549 65.3211C53.0594 66.0267 52.3849 66.5662 51.5316 66.9397C50.692 67.3132 49.756 67.5 48.7237 67.5C47.6914 67.5 46.7486 67.3132 45.8952 66.9397C45.0556 66.5662 44.388 66.0267 43.8925 65.3211C43.397 64.6018 43.1493 63.751 43.1493 62.7688C43.1493 61.9111 43.3489 61.1709 43.748 60.5484C44.1472 59.9121 44.7115 59.4209 45.441 59.0751ZM50.4993 56.3567C50.4993 55.7895 50.3341 55.3538 50.0038 55.0494C49.6872 54.7312 49.2605 54.5721 48.7237 54.5721C48.1869 54.5721 47.7533 54.7312 47.423 55.0494C47.1064 55.3676 46.9481 55.8103 46.9481 56.3775C46.9481 56.917 47.1133 57.3458 47.4437 57.664C47.774 57.9684 48.2007 58.1206 48.7237 58.1206C49.2467 58.1206 49.6734 57.9615 50.0038 57.6433C50.3341 57.3251 50.4993 56.8962 50.4993 56.3567ZM48.7237 60.6107C48.0768 60.6107 47.5538 60.7905 47.1546 61.1502C46.7555 61.496 46.5559 61.9802 46.5559 62.6028C46.5559 63.1838 46.7486 63.6611 47.134 64.0346C47.5331 64.4081 48.063 64.5949 48.7237 64.5949C49.3844 64.5949 49.9005 64.4081 50.2722 64.0346C50.6576 63.6611 50.8503 63.1838 50.8503 62.6028C50.8503 61.9941 50.6507 61.5099 50.2515 61.1502C49.8661 60.7905 49.3569 60.6107 48.7237 60.6107Z" fill="white"/>
<path d="M63.8044 56.1492C63.6942 55.6374 63.5015 55.2569 63.2263 55.0079C62.951 54.7451 62.5587 54.6136 62.0494 54.6136C61.2649 54.6136 60.7006 54.9595 60.3565 55.6512C60.0124 56.3291 59.8334 57.4081 59.8197 58.8883C60.1225 58.4042 60.556 58.0237 61.1204 57.747C61.6985 57.4704 62.3316 57.332 63.0198 57.332C64.3687 57.332 65.4492 57.7609 66.2612 58.6186C67.0871 59.4763 67.5 60.6729 67.5 62.2085C67.5 63.2184 67.2935 64.1038 66.8806 64.8646C66.4815 65.6255 65.8896 66.2204 65.1051 66.6492C64.3343 67.0781 63.419 67.2925 62.3591 67.2925C60.2395 67.2925 58.7667 66.6285 57.9409 65.3004C57.115 63.9585 56.7021 62.0356 56.7021 59.5316C56.7021 56.9032 57.1357 54.9526 58.0028 53.6798C58.8837 52.3933 60.2876 51.75 62.2146 51.75C63.2469 51.75 64.114 51.9575 64.816 52.3725C65.5317 52.7737 66.0685 53.3063 66.4264 53.9704C66.798 54.6344 67.0183 55.3607 67.0871 56.1492H63.8044ZM62.1733 60.1334C61.5815 60.1334 61.086 60.3132 60.6868 60.6729C60.3014 61.0188 60.1087 61.5168 60.1087 62.167C60.1087 62.831 60.2876 63.3498 60.6455 63.7233C61.0171 64.0968 61.5402 64.2836 62.2146 64.2836C62.8202 64.2836 63.2951 64.1038 63.6392 63.7441C63.9971 63.3706 64.176 62.8656 64.176 62.2292C64.176 61.5791 64.0039 61.0672 63.6598 60.6937C63.3157 60.3202 62.8202 60.1334 62.1733 60.1334Z" fill="white"/>
<defs>
<clipPath id="clip0">
<rect width="48" height="48" fill="white" transform="translate(24 24)"/>
</clipPath>
</defs>
</svg>
