<svg width="3126" height="3130" viewBox="0 0 3126 3130" fill="none" xmlns="http://www.w3.org/2000/svg">
<path d="M1558.94 34.9603C1561.44 33.4809 1564.56 33.4809 1567.06 34.9603L2856.26 795.46C2858.7 796.898 2860.2 799.519 2860.2 802.35V2323.65C2860.2 2326.48 2858.7 2329.1 2856.26 2330.54L1567.06 3091.04C1564.56 3092.52 1561.44 3092.52 1558.94 3091.04L269.738 2330.54C267.299 2329.1 265.802 2326.48 265.802 2323.65V802.35C265.802 799.519 267.299 796.898 269.738 795.46L1558.94 34.9603Z" fill="white"/>
<path fill-rule="evenodd" clip-rule="evenodd" d="M2744.25 746.567L1680.89 132.639C1607.94 90.5202 1518.06 90.5202 1445.11 132.639L381.754 746.567C308.802 788.686 263.862 866.524 263.862 950.761V2178.62C263.862 2262.85 308.802 2340.69 381.754 2382.81L1445.11 2996.74C1518.06 3038.86 1607.94 3038.86 1680.89 2996.74L2744.25 2382.81C2817.2 2340.69 2862.14 2262.85 2862.14 2178.62V950.761C2862.14 866.524 2817.2 788.686 2744.25 746.567ZM1731.42 45.1271C1627.2 -15.0423 1498.8 -15.0424 1394.58 45.127L331.229 659.055C227.012 719.225 162.812 830.422 162.812 950.761V2178.62C162.812 2298.96 227.012 2410.15 331.229 2470.32L1394.58 3084.25C1498.8 3144.42 1627.2 3144.42 1731.42 3084.25L2794.77 2470.32C2898.99 2410.15 2963.19 2298.96 2963.19 2178.62V950.761C2963.19 830.422 2898.99 719.225 2794.77 659.055L1731.42 45.1271Z" fill="black"/>
<mask id="mask0_9943_92294" style="mask-type:luminance" maskUnits="userSpaceOnUse" x="772" y="737" width="830" height="791">
<path d="M772 737H1601.9V1527.07H772V737Z" fill="white"/>
</mask>
<g mask="url(#mask0_9943_92294)">
<path d="M1601.68 737L1279.03 1220.04V1526.24H1081.26V1220.04L773.045 737H995.3L1191.29 1048.01L1388.87 737H1601.68Z" fill="black"/>
</g>
<mask id="mask1_9943_92294" style="mask-type:luminance" maskUnits="userSpaceOnUse" x="1342" y="737" width="825" height="800">
<path d="M1342.56 737H2166.89V1536.33H1342.56V737Z" fill="white"/>
</mask>
<g mask="url(#mask1_9943_92294)">
<path d="M1933.79 1352.57H1575.82L1503.02 1528.08H1344.48L1679.69 738.846H1841.81L2163.42 1528.08H1994.03L1933.79 1352.57ZM1874.3 1195.01L1764.57 905.384L1642.17 1195.01H1874.3Z" fill="#CB171E"/>
</g>
<mask id="mask2_9943_92294" style="mask-type:luminance" maskUnits="userSpaceOnUse" x="1073" y="1610" width="826" height="779">
<path d="M1073.96 1610.43H1898.29V2388.23H1073.96V1610.43Z" fill="white"/>
</mask>
<g mask="url(#mask2_9943_92294)">
<path d="M1081.23 1614.73V2388.23H1247.48V1854.68L1421.47 2213.34H1552.3L1732.23 1842.09V2388.09H1891.71V1614.73H1673.94L1480.74 1964.56L1296.76 1614.73H1081.23Z" fill="black"/>
</g>
<mask id="mask3_9943_92294" style="mask-type:luminance" maskUnits="userSpaceOnUse" x="1990" y="1610" width="584" height="779">
<path d="M1990.91 1610.43H2573.38V2388.23H1990.91V1610.43Z" fill="white"/>
</mask>
<g mask="url(#mask3_9943_92294)">
<path d="M2572.33 2220.14H2163.42V1614.55H1994.02V2384.76H2572.33V2220.14Z" fill="black"/>
</g>
</svg>