<svg width="96" height="96" fill="none" xmlns="http://www.w3.org/2000/svg">
  <path d="M44 2.3093a8 8 0 018 0l33.5692 19.3812a8 8 0 014 6.9282v38.7624a7.9998 7.9998 0 01-4 6.9282L52 93.6905a7.9998 7.9998 0 01-8 0L10.4308 74.3093a7.9998 7.9998 0 01-4-6.9282V28.6187a8 8 0 014-6.9282L44 2.3093z" fill="#fff"/>
  <path fill-rule="evenodd" clip-rule="evenodd" d="M84.1907 22.9024L51.5701 4.069a7.233 7.233 0 00-7.2331 0L11.7165 22.9024a7.2332 7.2332 0 00-3.6166 6.2641v37.667a7.233 7.233 0 003.6166 6.264L44.337 91.931a7.233 7.233 0 007.2331 0l32.6206-18.8335a7.233 7.233 0 003.6165-6.264v-37.667a7.2333 7.2333 0 00-3.6165-6.2641zM53.1201 1.3844a10.333 10.333 0 00-10.333 0L10.1665 20.2178A10.3332 10.3332 0 005 29.1665v37.667a10.333 10.333 0 005.1665 8.9486l32.6206 18.8335a10.333 10.333 0 0010.333 0l32.6205-18.8335a10.3328 10.3328 0 005.1665-8.9486v-37.667a10.3331 10.3331 0 00-5.1665-8.9487L53.1201 1.3844z" fill="#414BA4"/>
  <path d="M27 60.4671v-3.4763l11.9133-17.1864H28.1327V35h17.8895v3.4763L34.1089 55.6237h12.0696v4.8434H27zM59.1311 60.9358c-2.1353 0-3.9711-.3124-5.5074-.9374-1.5364-.651-2.7863-1.5103-3.7498-2.578l2.6561-3.6325c.8333.7291 1.7577 1.328 2.7732 1.7967 1.0416.4687 2.1353.7031 3.2811.7031 1.3541 0 2.4608-.2474 3.3201-.7421.8853-.5208 1.328-1.25 1.328-2.1874 0-.5468-.1172-1.0416-.3515-1.4843-.2344-.4427-.638-.8072-1.2109-1.0937-.5729-.3124-1.341-.5468-2.3045-.703-.9635-.1823-2.1744-.2735-3.6326-.2735v-4.0622c2.4478 0 4.1664-.2995 5.1559-.8984 1.0156-.6249 1.5234-1.4322 1.5234-2.4217 0-.8593-.3255-1.5233-.9765-1.9921-.651-.4947-1.5494-.7421-2.6952-.7421-.9895 0-1.9009.1953-2.7342.5859-.8333.3906-1.6796.9244-2.5389 1.6015l-2.8904-3.5154c1.2239-.9896 2.5259-1.7577 3.906-2.3046 1.4061-.5729 2.9165-.8593 4.5309-.8593 1.3541 0 2.591.1562 3.7107.4687 1.1198.2865 2.0832.7291 2.8905 1.3281.8072.5728 1.4322 1.2759 1.8749 2.1092.4426.8333.664 1.7968.664 2.8904 0 1.302-.4167 2.4087-1.2499 3.3201-.8333.8854-1.9921 1.6145-3.4764 2.1874v.1562c1.5624.4167 2.8774 1.1328 3.9451 2.1483 1.0676.9896 1.6014 2.2916 1.6014 3.906 0 1.1458-.2734 2.1744-.8202 3.0858-.5208.8853-1.2369 1.6405-2.1483 2.2655-.8854.5989-1.927 1.0676-3.1248 1.4061-1.1979.3125-2.4478.4687-3.7498.4687z" fill="#414BA4"/>
</svg>
