<svg width="96" height="96" fill="none" xmlns="http://www.w3.org/2000/svg">
  <path d="M44 2.3093a8 8 0 018 0l33.5692 19.3812a8 8 0 014 6.9282v38.7624a7.9998 7.9998 0 01-4 6.9282L52 93.6905a7.9998 7.9998 0 01-8 0L10.4308 74.3093a7.9998 7.9998 0 01-4-6.9282V28.6187a8 8 0 014-6.9282L44 2.3093z" fill="#fff"/>
  <path fill-rule="evenodd" clip-rule="evenodd" d="M84.1907 22.9024L51.5701 4.069a7.233 7.233 0 00-7.2331 0L11.7165 22.9024a7.2332 7.2332 0 00-3.6166 6.2641v37.667a7.233 7.233 0 003.6166 6.264L44.337 91.931a7.233 7.233 0 007.2331 0l32.6206-18.8335a7.233 7.233 0 003.6165-6.264v-37.667a7.2333 7.2333 0 00-3.6165-6.2641zM53.1201 1.3844a10.333 10.333 0 00-10.333 0L10.1665 20.2178A10.3332 10.3332 0 005 29.1665v37.667a10.333 10.333 0 005.1665 8.9486l32.6206 18.8335a10.333 10.333 0 0010.333 0l32.6205-18.8335a10.3328 10.3328 0 005.1665-8.9486v-37.667a10.3331 10.3331 0 00-5.1665-8.9487L53.1201 1.3844z" fill="#F7A41D"/>
  <path d="M38.4314 33.1519l-5.6471 6.9019-2.8235-4.3921 8.4706-2.5098z" fill="#F7A41D"/>
  <path d="M38.4314 33.1519l-4.0785 3.4509-1.5686 3.451H30.902v16h2.8235l-3.451 1.5686-2.5098 5.3334H24V33.1519h14.4314z" fill="#F7A41D"/>
  <path d="M33.7255 56.0537l-5.9608 6.902-2.5098-3.451 8.4706-3.451zM41.5686 33.1519l1.8824 4.3921-7.8432 2.5098 5.9608-6.9019z" fill="#F7A41D"/>
  <path d="M41.5686 33.1519h17.2549v6.9019H35.6078l5.9608-3.7647v-3.1372zM60.3922 56.054l-5.9608 6.9019-2.1961-4.0784 8.1569-2.8235z" fill="#F7A41D"/>
  <path d="M60.3922 56.054l-5.0197 2.8235-.9411 4.0784H37.1765V56.054h23.2157z" fill="#F7A41D"/>
  <path d="M71.0588 26.25L40.3137 62.9559l-15.3725 7.2157L55.6863 33.152l15.3725-6.902zM68.2353 33.1519l-.3137 5.647-5.6471 1.5686 5.9608-7.2156z" fill="#F7A41D"/>
  <path d="M72 33.1519v29.8039H57.2549l4.3922-3.7647 1.5686-3.1373h1.8823V40.3675h-2.8235l3.1373-2.8235 2.8235-4.3921H72z" fill="#F7A41D"/>
  <path d="M63.2157 56.0537l1.5686 4.7059-7.5294 2.1961 5.9608-6.902z" fill="#F7A41D"/>
</svg>
