<svg width="80" height="81" viewBox="0 0 80 81" fill="none" xmlns="http://www.w3.org/2000/svg">
<path d="M0 40.75C0 51.3587 4.21427 61.5328 11.7157 69.0343C19.2172 76.5357 29.3913 80.75 40 80.75C50.6087 80.75 60.7828 76.5357 68.2843 69.0343C75.7857 61.5328 80 51.3587 80 40.75C80 30.1413 75.7857 19.9672 68.2843 12.4657C60.7828 4.96427 50.6087 0.75 40 0.75C29.3913 0.75 19.2172 4.96427 11.7157 12.4657C4.21427 19.9672 0 30.1413 0 40.75Z" fill="#B8ECFF"/>
<path d="M25.1847 41.492C25.1847 43.3661 25.5538 45.2218 26.271 46.9533C26.9882 48.6847 28.0394 50.2579 29.3646 51.5831C30.6898 52.9083 32.263 53.9595 33.9944 54.6767C35.7259 55.3939 37.5816 55.763 39.4557 55.763C41.3298 55.763 43.1855 55.3939 44.917 54.6767C46.6484 53.9595 48.2216 52.9083 49.5468 51.5831C50.872 50.2579 51.9232 48.6847 52.6404 46.9533C53.3576 45.2218 53.7267 43.3661 53.7267 41.492C53.7267 39.6179 53.3576 37.7622 52.6404 36.0307C51.9232 34.2993 50.872 32.7261 49.5468 31.4009C48.2216 30.0757 46.6484 29.0245 44.917 28.3073C43.1855 27.5901 41.3298 27.221 39.4557 27.221C37.5816 27.221 35.7259 27.5901 33.9944 28.3073C32.263 29.0245 30.6898 30.0757 29.3646 31.4009C28.0394 32.7261 26.9882 34.2993 26.271 36.0307C25.5538 37.7622 25.1847 39.6179 25.1847 41.492Z" fill="#FFE500"/>
<path d="M53.4937 44.076C53.8701 42.0185 53.7897 39.9034 53.258 37.8805C52.7264 35.8576 51.7566 33.9762 50.4173 32.3696C49.078 30.763 47.4019 29.4705 45.5076 28.5835C43.6134 27.6965 41.5473 27.2367 39.4557 27.2367C37.3641 27.2367 35.298 27.6965 33.4038 28.5835C31.5095 29.4705 29.8334 30.763 28.4941 32.3696C27.1548 33.9762 26.185 35.8576 25.6533 37.8805C25.1217 39.9034 25.0413 42.0185 25.4177 44.076C26.0049 40.7799 27.7332 37.7955 30.2998 35.6456C32.8664 33.4958 36.1077 32.3177 39.4557 32.3177C42.8037 32.3177 46.045 33.4958 48.6116 35.6456C51.1782 37.7955 52.9065 40.7799 53.4937 44.076Z" fill="#FFF48C"/>
<path d="M25.1847 41.492C25.1847 43.3661 25.5538 45.2218 26.271 46.9533C26.9882 48.6847 28.0394 50.2579 29.3646 51.5831C30.6898 52.9083 32.263 53.9595 33.9944 54.6767C35.7259 55.3939 37.5816 55.763 39.4557 55.763C41.3298 55.763 43.1855 55.3939 44.917 54.6767C46.6484 53.9595 48.2216 52.9083 49.5468 51.5831C50.872 50.2579 51.9232 48.6847 52.6404 46.9533C53.3576 45.2218 53.7267 43.3661 53.7267 41.492C53.7267 39.6179 53.3576 37.7622 52.6404 36.0307C51.9232 34.2993 50.872 32.7261 49.5468 31.4009C48.2216 30.0757 46.6484 29.0245 44.917 28.3073C43.1855 27.5901 41.3298 27.221 39.4557 27.221C37.5816 27.221 35.7259 27.5901 33.9944 28.3073C32.263 29.0245 30.6898 30.0757 29.3646 31.4009C28.0394 32.7261 26.9882 34.2993 26.271 36.0307C25.5538 37.7622 25.1847 39.6179 25.1847 41.492Z" stroke="#45413C" stroke-linecap="round" stroke-linejoin="round"/>
<path d="M39.4556 21.212C39.2821 21.2121 39.1102 21.1781 38.9498 21.1117C38.7894 21.0454 38.6437 20.9481 38.5209 20.8254C38.3981 20.7028 38.3007 20.5571 38.2343 20.3968C38.1678 20.2364 38.1336 20.0646 38.1336 19.891V16.322C38.1336 15.9714 38.2729 15.6351 38.5208 15.3872C38.7688 15.1393 39.105 15 39.4556 15C39.8063 15 40.1425 15.1393 40.3904 15.3872C40.6384 15.6351 40.7776 15.9714 40.7776 16.322V19.891C40.7776 20.0646 40.7434 20.2364 40.677 20.3968C40.6105 20.5571 40.5131 20.7028 40.3904 20.8254C40.2676 20.9481 40.1219 21.0454 39.9615 21.1117C39.8011 21.1781 39.6292 21.2121 39.4556 21.212ZM24.1816 27.539C24.008 27.5393 23.836 27.5053 23.6755 27.4389C23.515 27.3725 23.3693 27.275 23.2466 27.152L20.7236 24.628C20.4759 24.3802 20.3368 24.0441 20.3369 23.6936C20.337 23.3432 20.4763 23.0072 20.7241 22.7595C20.972 22.5118 21.3081 22.3727 21.6585 22.3728C22.0089 22.3729 22.3449 22.5122 22.5926 22.76L25.1156 25.283C25.3002 25.4679 25.4259 25.7033 25.4767 25.9595C25.5276 26.2158 25.5014 26.4813 25.4015 26.7227C25.3016 26.9641 25.1324 27.1704 24.9153 27.3157C24.6982 27.461 24.4429 27.5387 24.1816 27.539ZM17.8546 42.813H14.2856C13.9415 42.8035 13.6145 42.6601 13.3744 42.4134C13.1343 42.1666 13 41.8358 13 41.4915C13 41.1472 13.1343 40.8164 13.3744 40.5696C13.6145 40.3229 13.9415 40.1795 14.2856 40.17H17.8546C18.1988 40.1795 18.5257 40.3229 18.7659 40.5696C19.006 40.8164 19.1403 41.1472 19.1403 41.4915C19.1403 41.8358 19.006 42.1666 18.7659 42.4134C18.5257 42.6601 18.1988 42.8035 17.8546 42.813ZM54.7296 27.539C54.4684 27.5387 54.2131 27.461 53.996 27.3157C53.7789 27.1704 53.6097 26.9641 53.5098 26.7227C53.4098 26.4813 53.3837 26.2158 53.4345 25.9595C53.4854 25.7033 53.6111 25.4679 53.7956 25.283L56.3186 22.76C56.4413 22.6373 56.5869 22.5399 56.7472 22.4735C56.9075 22.407 57.0793 22.3728 57.2528 22.3728C57.4263 22.3727 57.5981 22.4069 57.7584 22.4732C57.9187 22.5396 58.0644 22.6368 58.1871 22.7595C58.3099 22.8822 58.4072 23.0278 58.4737 23.1881C58.5401 23.3483 58.5743 23.5201 58.5744 23.6936C58.5744 23.8672 58.5403 24.039 58.4739 24.1993C58.4076 24.3596 58.3103 24.5053 58.1876 24.628L55.6646 27.152C55.5419 27.2749 55.3962 27.3723 55.2357 27.4387C55.0753 27.5051 54.9033 27.5392 54.7296 27.539ZM65.9466 41.492C65.9466 41.8424 65.8075 42.1784 65.5597 42.4261C65.312 42.6738 64.976 42.813 64.6256 42.813H61.0566C60.88 42.8179 60.7043 42.7873 60.5397 42.723C60.3751 42.6588 60.2251 42.5623 60.0984 42.4391C59.9718 42.3159 59.8712 42.1685 59.8024 42.0058C59.7337 41.843 59.6983 41.6682 59.6983 41.4915C59.6983 41.3148 59.7337 41.14 59.8024 40.9772C59.8712 40.8145 59.9718 40.6671 60.0984 40.5439C60.2251 40.4207 60.3751 40.3242 60.5397 40.26C60.7043 40.1957 60.88 40.1651 61.0566 40.17H64.6256C64.9761 40.1703 65.3121 40.3097 65.5598 40.5576C65.8075 40.8055 65.9466 41.1416 65.9466 41.492Z" fill="#FFE500" stroke="#45413C" stroke-linecap="round" stroke-linejoin="round"/>
<path d="M39.6613 61.716C39.4878 61.7159 39.3159 61.7499 39.1555 61.8163C38.9951 61.8826 38.8494 61.9799 38.7266 62.1026C38.6038 62.2252 38.5064 62.3709 38.44 62.5312C38.3735 62.6916 38.3393 62.8634 38.3393 63.037V66.606C38.3393 66.9566 38.4786 67.2929 38.7265 67.5408C38.9745 67.7887 39.3107 67.928 39.6613 67.928C40.0119 67.928 40.3482 67.7887 40.5961 67.5408C40.844 67.2929 40.9833 66.9566 40.9833 66.606V63.037C40.9833 62.8634 40.9491 62.6916 40.8827 62.5312C40.8162 62.3709 40.7188 62.2252 40.5961 62.1026C40.4733 61.9799 40.3276 61.8826 40.1672 61.8163C40.0068 61.7499 39.8349 61.7159 39.6613 61.716ZM24.3873 55.389C24.2137 55.3887 24.0416 55.4227 23.8812 55.4891C23.7207 55.5555 23.575 55.653 23.4523 55.776L20.9293 58.3C20.6816 58.5478 20.5425 58.8839 20.5426 59.2343C20.5427 59.5848 20.682 59.9208 20.9298 60.1685C21.1777 60.4162 21.5138 60.5553 21.8642 60.5552C22.2146 60.5551 22.5506 60.4158 22.7983 60.168L25.3213 57.645C25.5059 57.4601 25.6315 57.2247 25.6824 56.9685C25.7333 56.7122 25.7071 56.4467 25.6072 56.2053C25.5073 55.9639 25.3381 55.7576 25.121 55.6123C24.9039 55.467 24.6486 55.3893 24.3873 55.389ZM18.0603 40.115H14.4913C14.1471 40.1245 13.8202 40.2678 13.5801 40.5146C13.34 40.7614 13.2057 41.0922 13.2057 41.4365C13.2057 41.7808 13.34 42.1115 13.5801 42.3583C13.8202 42.6051 14.1471 42.7485 14.4913 42.758H18.0603C18.4045 42.7485 18.7314 42.6051 18.9715 42.3583C19.2116 42.1115 19.346 41.7808 19.346 41.4365C19.346 41.0922 19.2116 40.7614 18.9715 40.5146C18.7314 40.2678 18.4045 40.1245 18.0603 40.115ZM54.9353 55.389C54.6741 55.3893 54.4188 55.467 54.2017 55.6123C53.9846 55.7576 53.8154 55.9639 53.7155 56.2053C53.6155 56.4467 53.5894 56.7122 53.6402 56.9685C53.6911 57.2247 53.8168 57.4601 54.0013 57.645L56.5243 60.168C56.647 60.2907 56.7926 60.3881 56.9529 60.4545C57.1132 60.521 57.285 60.5552 57.4585 60.5552C57.632 60.5553 57.8038 60.5211 57.9641 60.4548C58.1244 60.3884 58.2701 60.2911 58.3928 60.1685C58.5156 60.0458 58.6129 59.9002 58.6794 59.7399C58.7458 59.5797 58.78 59.4079 58.7801 59.2343C58.7801 59.0608 58.746 58.889 58.6796 58.7287C58.6133 58.5684 58.516 58.4227 58.3933 58.3L55.8703 55.776C55.7476 55.6531 55.6019 55.5557 55.4414 55.4893C55.281 55.4229 55.109 55.3888 54.9353 55.389ZM66.1523 41.436C66.1523 41.0856 66.0132 40.7496 65.7654 40.5019C65.5177 40.2542 65.1817 40.115 64.8313 40.115H61.2623C61.0857 40.1101 60.9099 40.1407 60.7454 40.2049C60.5808 40.2692 60.4308 40.3657 60.3041 40.4889C60.1775 40.6121 60.0768 40.7594 60.0081 40.9222C59.9394 41.0849 59.904 41.2598 59.904 41.4365C59.904 41.6132 59.9394 41.788 60.0081 41.9508C60.0768 42.1135 60.1775 42.2609 60.3041 42.3841C60.4308 42.5072 60.5808 42.6038 60.7454 42.668C60.9099 42.7323 61.0857 42.7629 61.2623 42.758H64.8313C65.1818 42.7577 65.5178 42.6183 65.7655 42.3704C66.0132 42.1225 66.1523 41.7864 66.1523 41.436Z" fill="#FFE500" stroke="#45413C" stroke-linecap="round" stroke-linejoin="round"/>
<path d="M51.446 1.52818C48.255 -0.37182 45.787 3.46518 45.787 3.46518C45.787 3.46518 43.318 -0.370821 40.128 1.52818C36.938 3.42718 34 7.49718 34 7.49718C39.765 5.61018 40.812 1.75718 44.022 5.50518C44.1932 5.70506 44.4057 5.86555 44.6447 5.97568C44.8838 6.0858 45.1438 6.14294 45.407 6.14318H46.167C46.4292 6.14194 46.688 6.08433 46.9259 5.97424C47.1639 5.86416 47.3753 5.70419 47.546 5.50518C50.756 1.75718 51.802 5.61018 57.567 7.49718C57.568 7.49718 54.631 3.42718 51.446 1.52818ZM71.821 13.0392C68.021 10.7752 65.074 15.3482 65.074 15.3482C65.074 15.3482 62.13 10.7752 58.327 13.0392C54.524 15.3032 51.021 20.1562 51.021 20.1562C57.894 17.9062 59.142 13.3132 62.969 17.7812C63.1734 18.0193 63.4269 18.2105 63.712 18.3417C63.9971 18.4728 64.3072 18.5409 64.621 18.5412H65.527C65.8407 18.5411 66.1507 18.4732 66.4357 18.342C66.7207 18.2108 66.9739 18.0195 67.178 17.7812C71.006 13.3132 72.253 17.9062 79.126 20.1562C79.126 20.1562 75.624 15.3032 71.821 13.0392Z" fill="white" stroke="#45413C" stroke-linecap="round" stroke-linejoin="round"/>
</svg>

