<svg xmlns="http://www.w3.org/2000/svg" viewBox="0 0 100 100" id="Winter-Snowman-1--Streamline-Ux" height="100" width="100"><desc>Winter Snowman 1 Streamline Illustration: https://streamlinehq.com</desc><path d="M90 49a40 40 0 1 0 -76.436 16.5h72.872A39.841 39.841 0 0 0 90 49z" fill="#b8ecff" stroke-width="1"></path><path d="M13.564 65.5a40 40 0 0 0 72.872 0z" fill="#daedf7" stroke-width="1"></path><path stroke-linecap="round" stroke="#f8f8f8" stroke-miterlimit="10" fill="none" d="M54 70.5h9m-33 0h9m26.5 11H70m1.5 -11H76M56 76h4.5M45 76h4.5m19 0h9m-57 -5.5H25" stroke-width="1"></path><path d="M11 65.5h78m-82.5 0H9m82 0h2.5" stroke="#45413c" stroke-linejoin="round" stroke-linecap="round" fill="none" stroke-width="1"></path><path d="M48.755 51.419a1 1 0 0 0 -1.214 -0.726l-1.979 0.5 -0.662 -1.658 1.511 -2.135a1 1 0 0 0 -1.632 -1.155l-1.827 2.581a1 1 0 0 0 -0.112 0.95L43.733 52l-4.619 3.173a1 1 0 0 0 1.133 1.649l5.131 -3.522 2.652 -0.667a1 1 0 0 0 0.725 -1.214zM19.434 48.5a1 1 0 0 0 -0.959 1.04l0.082 2.039 -1.756 0.31 -1.783 -1.917a1 1 0 0 0 -1.465 1.36l2.153 2.317a1 1 0 0 0 0.906 0.3l2.366 -0.418 2.159 5.17a1 1 0 0 0 1.847 -0.771l-2.4 -5.744 -0.11 -2.732a1 1 0 0 0 -1.04 -0.954z" fill="#b89558" stroke="#45413c" stroke-linejoin="round" stroke-width="1"></path><path d="M41.52 65.5a10.547 10.547 0 0 0 1.266 -5 11.259 11.259 0 0 0 -11.5 -11 11.259 11.259 0 0 0 -11.5 11 10.558 10.558 0 0 0 1.265 5z" fill="#f8f8f8" stroke="#45413c" stroke-linejoin="round" stroke-linecap="round" stroke-width="1"></path><path d="m39.151 40.408 -11.636 -2.933c1.428 -1.659 1.835 -5.03 1.788 -7.528a1 1 0 0 1 1.245 -0.989l10.02 2.526a1 1 0 0 1 0.639 1.441c-1.294 2.424 -2.649 5.727 -2.056 7.483z" fill="#87898c" stroke-width="1"></path><path d="M40.624 34.083c0.192 -0.4 0.387 -0.791 0.583 -1.158a1 1 0 0 0 -0.639 -1.441l-10.02 -2.526a1 1 0 0 0 -1.245 0.989c0.008 0.405 0 0.837 -0.021 1.277z" fill="#87898c" stroke-width="1"></path><path d="m39.151 40.408 -11.636 -2.933c1.428 -1.659 1.835 -5.03 1.788 -7.528a1 1 0 0 1 1.245 -0.989l10.02 2.526a1 1 0 0 1 0.639 1.441c-1.294 2.424 -2.649 5.727 -2.056 7.483z" stroke="#45413c" stroke-linejoin="round" stroke-linecap="round" fill="none" stroke-width="1"></path><path d="M31.286 53a11.352 11.352 0 0 1 11.338 9.233 10.428 10.428 0 0 0 0.162 -1.733 11.259 11.259 0 0 0 -11.5 -11 11.259 11.259 0 0 0 -11.5 11 10.322 10.322 0 0 0 0.162 1.733A11.352 11.352 0 0 1 31.286 53z" fill="#ffffff" stroke-width="1"></path><path d="M41.52 65.5a10.547 10.547 0 0 0 1.266 -5 11.259 11.259 0 0 0 -11.5 -11 11.259 11.259 0 0 0 -11.5 11 10.558 10.558 0 0 0 1.265 5z" stroke="#45413c" stroke-linejoin="round" stroke-linecap="round" fill="none" stroke-width="1"></path><path fill="#ffffff" stroke="#45413c" stroke-linejoin="round" stroke-linecap="round" d="M23.072 45.858a8.214 7.857 0 1 0 16.428 0 8.214 7.857 0 1 0 -16.428 0" stroke-width="1"></path><path d="M38.536 50.976c-1.971 5.055 -13.48 5.009 -14.654 -0.112a0.5 0.5 0 0 1 0.686 -0.558c4.946 1.929 8.429 1.947 13.3 0.055a0.5 0.5 0 0 1 0.668 0.615z" fill="#a6fbff" stroke="#45413c" stroke-linejoin="round" stroke-linecap="round" stroke-width="1"></path><path fill="#45413c" d="M27.286 43.75a0.75 0.75 0 1 0 1.5 0 0.75 0.75 0 1 0 -1.5 0" stroke-width="1"></path><path fill="#45413c" d="M33.786 43.75a0.75 0.75 0 1 0 1.5 0 0.75 0.75 0 1 0 -1.5 0" stroke-width="1"></path><path fill="#45413c" d="M30.786 63a0.5 0.5 0 1 0 1 0 0.5 0.5 0 1 0 -1 0" stroke-width="1"></path><path fill="#45413c" d="M30.786 59a0.5 0.5 0 1 0 1 0 0.5 0.5 0 1 0 -1 0" stroke-width="1"></path><path d="M40.361 41.745a1 1 0 0 1 -1.214 0.725l-12.606 -3.178a1 1 0 0 1 0.489 -1.939l12.606 3.178a1 1 0 0 1 0.725 1.214z" fill="#87898c" stroke="#45413c" stroke-linejoin="round" stroke-linecap="round" stroke-width="1"></path><path d="M39.34 37.362 28.8 34.7a6.918 6.918 0 0 1 -1.281 2.771l11.636 2.933a5.52 5.52 0 0 1 0.185 -3.042z" fill="#ff6242" stroke="#45413c" stroke-linejoin="round" stroke-linecap="round" stroke-width="1"></path><path fill="#ffffff" d="M33.786 22a1.5 1.5 0 1 0 3 0 1.5 1.5 0 1 0 -3 0" stroke-width="1"></path><path fill="#ffffff" d="M45.286 32a1.5 1.5 0 1 0 3 0 1.5 1.5 0 1 0 -3 0" stroke-width="1"></path><path fill="#ffffff" d="M79.786 46.5a1.5 1.5 0 1 0 3 0 1.5 1.5 0 1 0 -3 0" stroke-width="1"></path><path fill="#ffffff" d="M77.286 32a1.5 1.5 0 1 0 3 0 1.5 1.5 0 1 0 -3 0" stroke-width="1"></path><path fill="#ffffff" d="M16.786 39.5a1.5 1.5 0 1 0 3 0 1.5 1.5 0 1 0 -3 0" stroke-width="1"></path><path fill="#ffffff" d="M46.786 16a1.5 1.5 0 1 0 3 0 1.5 1.5 0 1 0 -3 0" stroke-width="1"></path><path d="M27.286 50.5a1 1 0 0 0 -1 1v3.719a10.988 10.988 0 0 1 -0.564 3.472 2.135 2.135 0 0 0 4.05 1.35 19.76 19.76 0 0 0 1.014 -6.241v-2.3a1 1 0 0 0 -1 -1z" fill="#a6fbff" stroke-width="1"></path><path d="M26.782 52.5h2.983a1.226 1.226 0 0 1 1.021 0.513V51.5a1 1 0 0 0 -1 -1h-2.5a1 1 0 0 0 -1 1v1.1a1.365 1.365 0 0 1 0.496 -0.1z" fill="#d9fdff" stroke-width="1"></path><path d="M27.286 50.5a1 1 0 0 0 -1 1v3.719a10.988 10.988 0 0 1 -0.564 3.472 2.135 2.135 0 0 0 4.05 1.35 19.76 19.76 0 0 0 1.014 -6.241v-2.3a1 1 0 0 0 -1 -1z" stroke="#45413c" stroke-linejoin="round" stroke-linecap="round" fill="none" stroke-width="1"></path><path d="M63 48a15.5 15.5 0 0 0 -15.5 15.5V81h31V63.5A15.5 15.5 0 0 0 63 48z" fill="#4acfff" stroke-width="1"></path><path d="M30.06 47.215a1 1 0 0 0 0.749 0.666c1.493 0.306 5.739 1.1 5.967 0.311s-3.8 -2.542 -5.189 -3.116a1 1 0 0 0 -0.989 0.129 1.645 1.645 0 0 0 -0.538 2.01z" fill="#ff8a14" stroke="#45413c" stroke-linejoin="round" stroke-linecap="round" stroke-width="1"></path><path d="M64.585 48.079a15.96 15.96 0 0 0 -3.17 0.001A15.5 15.5 0 0 0 47.5 63.5v2h0.22a15.48 15.48 0 0 1 30.56 0h0.22v-2a15.5 15.5 0 0 0 -13.915 -15.421z" fill="#4acfff" stroke-width="1"></path><path d="M63 48a15.5 15.5 0 0 0 -15.5 15.5V81h31V63.5A15.5 15.5 0 0 0 63 48z" stroke="#45413c" stroke-linejoin="round" stroke-linecap="round" fill="none" stroke-width="1"></path><path d="M72.5 82V63.263a6 6 0 0 1 0.51 -2.42l2.724 -6.183M53.5 82V63.263a6 6 0 0 0 -0.51 -2.42l-2.724 -6.183" stroke="#45413c" stroke-linejoin="round" stroke-linecap="round" fill="none" stroke-width="1"></path><path d="M63 47a9.957 9.957 0 0 1 -7.672 -3.6A4.611 4.611 0 0 0 54 46.5c0 3.314 4.029 6 9 6s9 -2.686 9 -6a4.611 4.611 0 0 0 -1.328 -3.1A9.957 9.957 0 0 1 63 47z" fill="#ff8a14" stroke-width="1"></path><path d="M71.623 44.82a5.4 5.4 0 0 0 -0.807 -1.255l-0.055 -0.064 -0.013 -0.016 -0.076 -0.084a9.978 9.978 0 0 1 -15.344 0l-0.076 0.084 -0.013 0.016 -0.055 0.064a5.4 5.4 0 0 0 -0.807 1.255c1.107 2.48 4.546 4.286 8.623 4.286s7.516 -1.806 8.623 -4.286z" fill="#eb6d00" stroke-width="1"></path><path d="M63 47a9.957 9.957 0 0 1 -7.672 -3.6A4.611 4.611 0 0 0 54 46.5c0 3.314 4.029 6 9 6s9 -2.686 9 -6a4.611 4.611 0 0 0 -1.328 -3.1A9.957 9.957 0 0 1 63 47zm0 5.499v34m-12.963 -31.5h25.927m-23.125 5.5h20.322m-19.661 5.5h19m-19 5.5h19m-19 5.5h19" stroke="#45413c" stroke-linejoin="round" stroke-linecap="round" fill="none" stroke-width="1"></path><path d="M60.3 46.63a9.934 9.934 0 0 1 -2.862 -1.323A1.987 1.987 0 0 0 56.5 47l-2 11a2 2 0 0 0 2 2c-0.166 3 0.5 5 2.5 5a2 2 0 0 0 2 -2l-0.5 -15.5a2 2 0 0 0 -0.2 -0.87z" fill="#ff8a14" stroke-width="1"></path><path d="M60.5 47.5a2 2 0 0 0 -0.2 -0.869 9.934 9.934 0 0 1 -2.862 -1.323A1.987 1.987 0 0 0 56.5 47l-0.04 0.223a10.471 10.471 0 0 0 4.084 1.655z" fill="#eb6d00" stroke-width="1"></path><path d="M60.3 46.63a9.934 9.934 0 0 1 -2.862 -1.323A1.987 1.987 0 0 0 56.5 47l-2 11a2 2 0 0 0 2 2c-0.166 3 0.5 5 2.5 5a2 2 0 0 0 2 -2l-0.5 -15.5a2 2 0 0 0 -0.2 -0.87zm12.325 15.369h5.803m-5.928 5.5h6m-25.167 -5.5h-5.761m5.928 5.5h-6m6 5.5h-6m6 5.5h-6m31 -5.5h-6m6 5.5h-6m-16 -18.5 0.75 -6.583" stroke="#45413c" stroke-linejoin="round" stroke-linecap="round" fill="none" stroke-width="1"></path><path d="M47.5 81a3.23 3.23 0 0 1 -0.458 1.659A9.644 9.644 0 0 0 46 87.7a3.3 3.3 0 0 0 3.3 3.3 1.7 1.7 0 0 0 1.7 -1.7v-0.014a2.5 2.5 0 0 0 2.5 -2.5V81h-6z" fill="#ff8a14" stroke="#45413c" stroke-linejoin="round" stroke-linecap="round" stroke-width="1"></path><path stroke="#45413c" stroke-linejoin="round" stroke-linecap="round" fill="none" d="M51 85.999v3.5" stroke-width="1"></path><path d="M78.5 81a3.229 3.229 0 0 0 0.458 1.658A9.644 9.644 0 0 1 80 87.7a3.3 3.3 0 0 1 -3.3 3.3 1.7 1.7 0 0 1 -1.7 -1.7v-0.014a2.5 2.5 0 0 1 -2.5 -2.5V81h6z" fill="#ff8a14" stroke="#45413c" stroke-linejoin="round" stroke-linecap="round" stroke-width="1"></path><path stroke="#45413c" stroke-linejoin="round" stroke-linecap="round" fill="none" d="M75 85.999v3.5" stroke-width="1"></path><path d="M73.008 34.492v-2.5a10 10 0 1 0 -20 0v2.5a2 2 0 0 0 0 4c0.042 0 0.082 -0.01 0.123 -0.012a9.987 9.987 0 0 0 19.755 0c0.041 0 0.08 0.012 0.122 0.012a2 2 0 0 0 0 -4z" fill="#ffcebf" stroke="#45413c" stroke-linejoin="round" stroke-linecap="round" stroke-width="1"></path><path d="M59.992 41.289a4.362 4.362 0 0 0 6.016 0m2.5 -5.797a1.629 1.629 0 0 0 -3.008 0m-4.983 0a1.63 1.63 0 0 0 -3.009 0" stroke="#45413c" stroke-linejoin="round" stroke-linecap="round" fill="none" stroke-width="1"></path><path fill="#ffb59e" d="M56.008 38.742a1.25 1.25 0 1 0 2.5 0 1.25 1.25 0 1 0 -2.5 0" stroke-width="1"></path><path fill="#ffb59e" d="M67.508 38.742a1.25 1.25 0 1 0 2.5 0 1.25 1.25 0 1 0 -2.5 0" stroke-width="1"></path><path d="M64.031 22.044a10.079 10.079 0 0 0 -2.045 0 10 10 0 0 0 -8.978 9.948v2.5a1.726 1.726 0 0 1 1.6 1.719 9.08 9.08 0 0 0 0.213 -4.065c1.054 0.351 2.787 -1.151 2.787 -1.151v-2.4a23.919 23.919 0 0 0 5.4 1.2 23.9 23.9 0 0 0 5.4 -1.2v2.4s1.734 1.5 2.788 1.151a9.072 9.072 0 0 0 0.212 4.065 1.727 1.727 0 0 1 1.6 -1.719v-2.5a10 10 0 0 0 -8.977 -9.948z" fill="#947063" stroke="#45413c" stroke-linejoin="round" stroke-linecap="round" stroke-width="1"></path><path fill="#f8f8f8" d="M59.508 15.492a3.5 3.5 0 1 0 7 0 3.5 3.5 0 1 0 -7 0" stroke-width="1"></path><path d="M70.008 31.992c0 5.5 2.5 17.5 2.5 17.5s3 -10.5 3 -18.5c0 -6.351 -4 -12 -12.5 -12s-12.5 5.649 -12.5 12c0 8 3 18.5 3 18.5s2.5 -12 2.5 -17.5z" fill="#ff8a14" stroke-width="1"></path><path d="M63.008 22.492c7.9 0 11.9 4.875 12.434 10.659 0.042 -0.733 0.066 -1.456 0.066 -2.159 0 -6.351 -4 -12 -12.5 -12s-12.5 5.649 -12.5 12c0 0.7 0.025 1.426 0.067 2.159 0.531 -5.784 4.538 -10.659 12.433 -10.659z" fill="#ffaa54" stroke-width="1"></path><path d="M70.008 31.992c0 5.5 2.5 17.5 2.5 17.5s3 -10.5 3 -18.5c0 -6.351 -4 -12 -12.5 -12s-12.5 5.649 -12.5 12c0 8 3 18.5 3 18.5s2.5 -12 2.5 -17.5z" stroke="#45413c" stroke-linejoin="round" stroke-linecap="round" fill="none" stroke-width="1"></path><path d="M71.508 29.492c-0.023 0 -0.043 0.012 -0.066 0.013a2.014 2.014 0 0 0 -0.156 -0.411 0.972 0.972 0 0 0 0.222 -0.6 1 1 0 0 0 -1 -1 0.986 0.986 0 0 0 -0.856 0.514c-0.048 0 -0.094 -0.014 -0.144 -0.014a1.5 1.5 0 0 0 -3 0 1 1 0 0 0 -2 0 1.5 1.5 0 1 0 -3 0 1 1 0 1 0 -2 0 1.5 1.5 0 1 0 -3 0c-0.049 0 -0.1 0.011 -0.143 0.014a0.986 0.986 0 0 0 -0.857 -0.514 1 1 0 0 0 -1 1 0.972 0.972 0 0 0 0.223 0.6 1.957 1.957 0 0 0 -0.156 0.411c-0.023 0 -0.043 -0.013 -0.067 -0.013a1 1 0 0 0 0 2c0.024 0 0.044 -0.012 0.067 -0.013a1.957 1.957 0 0 0 0.156 0.411 0.975 0.975 0 0 0 -0.223 0.6 1 1 0 0 0 1 1 0.988 0.988 0 0 0 0.857 -0.514c0.048 0 0.094 0.014 0.143 0.014a1.5 1.5 0 0 0 3 0 1 1 0 0 0 2 0 1.5 1.5 0 1 0 3 0 1 1 0 1 0 2 0 1.5 1.5 0 1 0 3 0c0.05 0 0.1 -0.011 0.144 -0.014a0.988 0.988 0 0 0 0.856 0.514 1 1 0 0 0 1 -1 0.974 0.974 0 0 0 -0.222 -0.6 2.014 2.014 0 0 0 0.156 -0.411c0.023 0 0.043 0.013 0.066 0.013a1 1 0 0 0 0 -2z" fill="#f8f8f8" stroke="#45413c" stroke-linejoin="round" stroke-linecap="round" stroke-width="1"></path><path d="M63.008 13.992a3.49 3.49 0 0 1 3.338 2.5 3.449 3.449 0 0 0 0.162 -1 3.5 3.5 0 1 0 -7 0 3.449 3.449 0 0 0 0.163 1 3.488 3.488 0 0 1 3.337 -2.5z" fill="#ffffff" stroke-width="1"></path><path stroke="#45413c" stroke-linejoin="round" stroke-linecap="round" fill="none" d="M59.508 15.492a3.5 3.5 0 1 0 7 0 3.5 3.5 0 1 0 -7 0" stroke-width="1"></path><path fill="#f8f8f8" stroke="#45413c" stroke-linejoin="round" stroke-linecap="round" d="M50.008 52.992a3.5 3.5 0 1 0 7 0 3.5 3.5 0 1 0 -7 0" stroke-width="1"></path><path fill="#f8f8f8" stroke="#45413c" stroke-linejoin="round" stroke-linecap="round" d="M69.008 52.992a3.5 3.5 0 1 0 7 0 3.5 3.5 0 1 0 -7 0" stroke-width="1"></path><path fill="#87898c" stroke="#45413c" stroke-linejoin="round" stroke-linecap="round" d="M53.5 89.999v-9.538h19v9.538" stroke-width="1"></path><path stroke="#45413c" stroke-linejoin="round" stroke-linecap="round" fill="none" d="M63 85.999v4" stroke-width="1"></path></svg>