<svg xmlns="http://www.w3.org/2000/svg" viewBox="0 0 100 100" id="Winter-House-3--Streamline-Ux" height="100" width="100"><desc>Winter House 3 Streamline Illustration: https://streamlinehq.com</desc><path d="M90 50.75a40 40 0 1 0 -76.436 16.5h72.872A39.829 39.829 0 0 0 90 50.75z" fill="#b8ecff" stroke-width="1"></path><path d="M13.564 67.25a40 40 0 0 0 72.872 0z" fill="#daedf7" stroke-width="1"></path><path stroke-linecap="round" stroke="#f8f8f8" stroke-miterlimit="10" fill="none" d="M54 72.25h9m-33 0h9m26.5 11H70m1.5 -11H76m-20 5.5h4.5m-15.5 0h4.5m19 0h9m-57 -5.5H25" stroke-width="1"></path><path d="M11 67.25h78m-82.5 0H9m82 0h2.5" stroke="#45413c" stroke-linejoin="round" stroke-linecap="round" fill="none" stroke-width="1"></path><path fill="#ff8a14" stroke="#45413c" stroke-linejoin="round" d="M55.5 39.25H61v8h-5.5z" stroke-width="1"></path><path fill="#8ca4b8" stroke="#45413c" stroke-linejoin="round" d="M55.5 37.25H61s0.5 0 0.5 0.5v1s0 0.5 -0.5 0.5h-5.5s-0.5 0 -0.5 -0.5v-1s0 -0.5 0.5 -0.5" stroke-width="1"></path><path fill="#bf8256" d="M66 40.477 53.5 47.62v19.63h25V47.62L66 40.477z" stroke-width="1"></path><path fill="#915e3a" d="M53.5 53.75h25v2h-25z" stroke-width="1"></path><path stroke="#45413c" stroke-linejoin="round" stroke-linecap="round" fill="none" d="M66 40.477 53.5 47.62v19.63h25V47.62L66 40.477z" stroke-width="1"></path><path fill="#f0c2a1" stroke="#45413c" stroke-linejoin="round" stroke-linecap="round" d="M52.5 51.75h27s0.5 0 0.5 0.5v1s0 0.5 -0.5 0.5h-27s-0.5 0 -0.5 -0.5v-1s0 -0.5 0.5 -0.5" stroke-width="1"></path><path d="m80.744 45.447 -14 -8a1.5 1.5 0 0 0 -1.488 0l-14 8a1.5 1.5 0 0 0 -0.75 1.3H50.5v3.5a1.5 1.5 0 0 0 3 0v-1a2 2 0 0 0 2 -2v-0.773a3.057 3.057 0 0 0 3.585 -2.048 0.946 0.946 0 0 1 1.415 0.821 1 1 0 0 0 2 0v-2.77a5.708 5.708 0 0 0 3.5 -2c0.43 1.242 1.5 1.731 3 1.714v0.559a2 2 0 0 0 2 2V46a1.25 1.25 0 0 0 2.5 0v-1.237A12.333 12.333 0 0 0 80 48.25v1.25a0.75 0.75 0 0 0 1.5 0v-2.072c0 -0.877 0.029 -1.528 -0.756 -1.981z" fill="#ffffff" stroke="#45413c" stroke-linejoin="round" stroke-width="1"></path><path fill="#ffe500" stroke="#45413c" stroke-linejoin="round" stroke-linecap="round" d="M63 46.75a3 3 0 1 0 6 0 3 3 0 1 0 -6 0" stroke-width="1"></path><path d="M74.5 67.25h-7v-8.5a1 1 0 0 1 1 -1h5a1 1 0 0 1 1 1z" fill="#ff6242" stroke="#45413c" stroke-linejoin="round" stroke-linecap="round" stroke-width="1"></path><path d="M63.5 63.25h-6a1 1 0 0 1 -1 -1v-3.5h8v3.5a1 1 0 0 1 -1 1z" fill="#ffe500" stroke="#45413c" stroke-linejoin="round" stroke-linecap="round" stroke-width="1"></path><path d="M64.5 56.75a1 1 0 0 1 0 2h-6.75a0.77 0.77 0 0 0 -0.561 1.284 1.368 1.368 0 0 1 -0.622 2.177A1.253 1.253 0 0 1 55 61v-2.75a1.5 1.5 0 0 1 1.5 -1.5z" fill="#ffffff" stroke="#45413c" stroke-linejoin="round" stroke-linecap="round" stroke-width="1"></path><path fill="#45413c" d="M72.5 62.75a0.5 0.5 0 1 0 1 0 0.5 0.5 0 1 0 -1 0" stroke-width="1"></path><path d="M63.25 25.75a2.75 2.75 0 0 0 -2.75 2.75 2.715 2.715 0 0 0 0.323 1.268 2.023 2.023 0 1 0 2.1 1.449 2.79 2.79 0 0 0 0.331 0.033 2.75 2.75 0 0 0 0 -5.5z" fill="#ffffff" stroke="#45413c" stroke-linejoin="round" stroke-width="1"></path><path fill="#ffffff" stroke="#45413c" stroke-linejoin="round" d="M65 22.25a1.5 1.5 0 1 0 3 0 1.5 1.5 0 1 0 -3 0" stroke-width="1"></path><path fill="#ffffff" d="M73 32.75a1.5 1.5 0 1 0 3 0 1.5 1.5 0 1 0 -3 0" stroke-width="1"></path><path fill="#ffffff" d="M81.5 40.75a1.5 1.5 0 1 0 3 0 1.5 1.5 0 1 0 -3 0" stroke-width="1"></path><path fill="#ffffff" d="M47.5 31.75a1.5 1.5 0 1 0 3 0 1.5 1.5 0 1 0 -3 0" stroke-width="1"></path><path fill="#ffffff" d="M54 20.25a1.5 1.5 0 1 0 3 0 1.5 1.5 0 1 0 -3 0" stroke-width="1"></path><path stroke="#45413c" stroke-linejoin="round" stroke-linecap="round" fill="none" d="M66 43.75v6m3 -3h-6" stroke-width="1"></path><path d="M42.777 65.862v-1.4c6.161 -4.873 5.591 -11.4 5.591 -13.978a14.677 14.677 0 1 0 -29.354 0c0 2.574 -0.57 9.105 5.591 13.978v1.4z" fill="#87898c" stroke-width="1"></path><path d="M33.691 39.3a14.677 14.677 0 0 1 14.66 13.98c0.058 -1.143 0.017 -2.111 0.017 -2.8a14.677 14.677 0 1 0 -29.354 0c0 0.686 -0.041 1.654 0.017 2.8a14.677 14.677 0 0 1 14.66 -13.98z" fill="#bdbec0" stroke-width="1"></path><path d="M42.777 65.862v-1.4c6.161 -4.873 5.591 -11.4 5.591 -13.978h0a14.677 14.677 0 1 0 -29.354 0h0c0 2.574 -0.57 9.105 5.591 13.978v1.4z" stroke="#45413c" stroke-linejoin="round" stroke-linecap="round" fill="none" stroke-width="1"></path><path d="m24.605 64.464 3.968 -3.989a9.033 9.033 0 0 1 -3.968 -7.5v-6.683" stroke="#45413c" stroke-linejoin="round" stroke-linecap="round" fill="none" stroke-width="1"></path><path d="m31.228 77.045 0.22 -6.913a2.245 2.245 0 0 1 4.487 0l0.219 6.913h6.623V65.862H24.605v11.183z" fill="#b89558" stroke-width="1"></path><path d="M31.619 69.357a2.234 2.234 0 0 1 4.144 0h7.014v-3.5H24.605v3.5z" fill="#947746" stroke-width="1"></path><path opacity=".15" fill="#45413c" d="M19.014 88.927a14.677 2.097 0 1 0 29.354 0 14.677 2.097 0 1 0 -29.354 0" stroke-width="1"></path><path d="M31.594 86.131a1.4 1.4 0 0 1 -1.4 1.4H25.3a1.4 1.4 0 0 1 -1.4 -1.4v-8.387a0.7 0.7 0 0 1 0.7 -0.7h6.3a0.7 0.7 0 0 1 0.7 0.7zm11.882 0a1.4 1.4 0 0 1 -1.4 1.4h-4.89a1.4 1.4 0 0 1 -1.4 -1.4v-8.387a0.7 0.7 0 0 1 0.7 -0.7h6.29a0.7 0.7 0 0 1 0.7 0.7z" fill="#915e3a" stroke="#45413c" stroke-linejoin="round" stroke-linecap="round" stroke-width="1"></path><path d="M33.691 33.013a8.334 8.334 0 0 1 -5.52 -2.1H28.1v6.29a11.879 11.879 0 0 0 11.182 0v-6.29h-0.071a8.334 8.334 0 0 1 -5.52 2.1z" fill="#00dba8" stroke="#45413c" stroke-linejoin="round" stroke-linecap="round" stroke-width="1"></path><path stroke="#45413c" stroke-linejoin="round" stroke-linecap="round" fill="none" d="M33.691 38.604v27.258" stroke-width="1"></path><path fill="#00dba8" stroke="#45413c" stroke-linejoin="round" stroke-linecap="round" d="M27.003 31.615h1.495s1 0 1 1v3.591s0 1 -1 1h-1.495s-1 0 -1 -1v-3.591s0 -1 1 -1" stroke-width="1"></path><path stroke="#45413c" stroke-linejoin="round" stroke-linecap="round" fill="none" d="m24.605 49.758 -5.466 -1.193m5.537 5.556 -5.497 0.789m6.565 2.476 -4.835 2.819m21.868 4.259 -3.968 -3.989a9.033 9.033 0 0 0 3.968 -7.5v-6.683m2.961 -4.193H21.645m21.132 6.29H24.605m18.013 6.29H24.764m14.537 6.291H28.082m14.695 -11.212 5.466 -1.193m-5.537 5.556 5.498 0.789m-6.566 2.476 4.835 2.819" stroke-width="1"></path><path d="M28.879 36.938a1.363 1.363 0 0 1 -0.779 0.268h-0.082l-0.58 9.854a0.693 0.693 0 0 0 0.6 0.733c1.568 0.2 5.576 0.327 6.895 -3.131a0.687 0.687 0 0 0 -0.221 -0.766 43.05 43.05 0 0 1 -5.833 -6.958z" fill="#00dba8" stroke="#45413c" stroke-linejoin="round" stroke-linecap="round" stroke-width="1"></path><path d="M28.84 36.964a1.357 1.357 0 0 1 -0.74 0.242h-0.7a1.4 1.4 0 0 1 -1.4 -1.4l-2.8 13.279c1.313 2.6 3.134 3.026 6.27 2.845a0.7 0.7 0 0 0 0.655 -0.762z" fill="#00dba8" stroke="#45413c" stroke-linejoin="round" stroke-linecap="round" stroke-width="1"></path><path d="M43.1 87.529a1.4 1.4 0 0 0 1.211 -2.1 4.193 4.193 0 0 0 -3.633 -2.1h-0.7a4.192 4.192 0 0 0 -3.632 2.1 1.4 1.4 0 0 0 1.211 2.1zm-13.277 0a1.4 1.4 0 0 0 1.21 -2.1 4.192 4.192 0 0 0 -3.632 -2.1h-0.7a4.194 4.194 0 0 0 -3.633 2.1 1.4 1.4 0 0 0 1.211 2.1z" fill="#915e3a" stroke="#45413c" stroke-linejoin="round" stroke-linecap="round" stroke-width="1"></path><path fill="#ffffff" d="M11.204 47.873a1.823 1.823 0 1 0 3.646 0 1.823 1.823 0 1 0 -3.646 0" stroke-width="1"></path><path fill="#ffffff" d="M17.89 30.248a1.823 1.823 0 1 0 3.646 0 1.823 1.823 0 1 0 -3.646 0" stroke-width="1"></path><path fill="#ffffff" d="M42.808 10.8a1.823 1.823 0 1 0 3.646 0 1.823 1.823 0 1 0 -3.646 0" stroke-width="1"></path><path d="m31.228 77.045 0.22 -6.913a2.245 2.245 0 0 1 4.487 0l0.219 6.913h6.623V65.862H24.605v11.183z" stroke="#45413c" stroke-linejoin="round" stroke-linecap="round" fill="none" stroke-width="1"></path><path d="M42.078 24.781v-1.119a8.387 8.387 0 1 0 -16.774 0v1.119a1.712 1.712 0 0 0 0.176 3.389 8.388 8.388 0 0 0 16.422 0 1.712 1.712 0 0 0 0.176 -3.389z" fill="#bf8256" stroke="#45413c" stroke-linejoin="round" stroke-linecap="round" stroke-width="1"></path><path fill="#45413c" d="M29.498 25.41a1.048 1.048 0 1 0 2.096 0 1.048 1.048 0 1 0 -2.096 0" stroke-width="1"></path><path fill="#45413c" d="M35.788 25.41a1.048 1.048 0 1 0 2.096 0 1.048 1.048 0 1 0 -2.096 0" stroke-width="1"></path><path fill="#bf8256" d="M28.1 27.506a1.048 1.048 0 1 0 2.096 0 1.048 1.048 0 1 0 -2.096 0" stroke-width="1"></path><path fill="#bf8256" d="M37.186 27.506a1.048 1.048 0 1 0 2.096 0 1.048 1.048 0 1 0 -2.096 0" stroke-width="1"></path><path d="M39.35 30.569a4.119 4.119 0 0 1 -3.015 -0.553 5.156 5.156 0 0 0 -2.641 -0.762h-0.006a5.159 5.159 0 0 0 -2.641 0.762 4.119 4.119 0 0 1 -3.015 0.553 2.791 2.791 0 0 1 -2.553 -2.4l0.49 3.023a6.43 6.43 0 0 0 4.344 4.871 18.758 18.758 0 0 0 3.375 0.878h0.006a18.758 18.758 0 0 0 3.375 -0.878 6.43 6.43 0 0 0 4.344 -4.871l0.49 -3.023a2.79 2.79 0 0 1 -2.553 2.4z" fill="#614b44" stroke="#45413c" stroke-linejoin="round" stroke-linecap="round" stroke-width="1"></path><g stroke="#45413c" stroke-linejoin="round" stroke-linecap="round"><path d="M42.072 20.867H25.31a1.4 1.4 0 1 0 0 2.795h16.762a1.4 1.4 0 1 0 0 -2.795z" fill="#ff6242" stroke-width="1"></path><path fill="none" d="M27.401 20.867v2.795m4.193 -2.795v2.795m4.194 -2.795v2.795m4.193 -2.795v2.795" stroke-width="1"></path></g><path d="M33.7 13.179h-0.012a9.087 9.087 0 0 0 -9 7.829 1.4 1.4 0 0 1 0.612 -0.141h16.784a1.4 1.4 0 0 1 0.613 0.141 9.089 9.089 0 0 0 -8.997 -7.829z" fill="#ff6242" stroke-width="1"></path><path d="M33.685 15.275h0.015a9.088 9.088 0 0 1 8.389 5.592 1.4 1.4 0 0 1 0.611 0.141 9.089 9.089 0 0 0 -9 -7.829h-0.012a9.087 9.087 0 0 0 -9 7.829 1.388 1.388 0 0 1 0.61 -0.141 9.088 9.088 0 0 1 8.387 -5.592z" fill="#ff6242" stroke-width="1"></path><path d="M33.7 13.179h-0.012a9.087 9.087 0 0 0 -9 7.829 1.4 1.4 0 0 1 0.612 -0.141h16.784a1.4 1.4 0 0 1 0.613 0.141 9.089 9.089 0 0 0 -8.997 -7.829z" stroke="#45413c" stroke-linejoin="round" stroke-linecap="round" fill="none" stroke-width="1"></path></svg>