<svg width="88" height="87" viewBox="0 0 88 87" fill="none" xmlns="http://www.w3.org/2000/svg">
<path d="M84 43.5C84.0008 37.5301 82.6653 31.6358 80.0914 26.2493C77.5176 20.8628 73.7707 16.1207 69.1256 12.3708C64.4804 8.62094 59.0548 5.95835 53.2467 4.57831C47.4386 3.19828 41.3952 3.13581 35.5597 4.39549C29.7243 5.65516 24.2448 8.20504 19.5232 11.8581C14.8015 15.5112 10.9574 20.1748 8.27278 25.5069C5.58816 30.8391 4.13109 36.7045 4.00844 42.6731C3.8858 48.6417 5.10068 54.562 7.564 60H80.436C82.7893 54.8178 84.0046 49.1914 84 43.5Z" fill="#B8ECFF"/>
<path d="M7.56396 60C10.7367 67.0039 15.8608 72.945 22.3228 77.1119C28.7849 81.2788 36.3109 83.4949 44 83.4949C51.689 83.4949 59.2151 81.2788 65.6771 77.1119C72.1391 72.945 77.2633 67.0039 80.436 60H7.56396Z" fill="#B8ECFF"/>
<path d="M5 60H83M0.5 60H3M85 60H87.5" stroke="#45413C" stroke-linecap="round" stroke-linejoin="round"/>
<path opacity="0.15" d="M9.52795 77.605C9.52795 77.839 9.83526 78.0707 10.4323 78.2869C11.0294 78.5031 11.9046 78.6996 13.0078 78.8651C14.1111 79.0305 15.4208 79.1618 16.8623 79.2514C18.3038 79.3409 19.8487 79.387 21.409 79.387C22.9692 79.387 24.5141 79.3409 25.9556 79.2514C27.3971 79.1618 28.7068 79.0305 29.8101 78.8651C30.9133 78.6996 31.7885 78.5031 32.3856 78.2869C32.9826 78.0707 33.29 77.839 33.29 77.605C33.29 77.371 32.9826 77.1393 32.3856 76.9231C31.7885 76.7069 30.9133 76.5104 29.8101 76.3449C28.7068 76.1795 27.3971 76.0482 25.9556 75.9586C24.5141 75.8691 22.9692 75.823 21.409 75.823C19.8487 75.823 18.3038 75.8691 16.8623 75.9586C15.4208 76.0482 14.1111 76.1795 13.0078 76.3449C11.9046 76.5104 11.0294 76.7069 10.4323 76.9231C9.83526 77.1393 9.52795 77.371 9.52795 77.605Z" fill="#45413C"/>
<path d="M23.5601 37.0129H76.4951V59.9979H23.5601V37.0129Z" fill="#00B8F0"/>
<path d="M26.7831 59.9979L49.7681 37.0129H23.5601V59.9979H26.7831Z" fill="#4ACFFF"/>
<path d="M23.5601 12.635H76.4951V37.013H23.5601V12.635Z" fill="#FFE500"/>
<path d="M23.5601 12.635V37.013H25.3901L49.7681 12.635H23.5601Z" fill="#FFF48C"/>
<path d="M23.5601 12.635H76.4951V37.013H23.5601V12.635Z" stroke="#45413C" stroke-linejoin="round"/>
<path d="M23.5601 37.0129H76.4951V59.9979H23.5601V37.0129Z" stroke="#45413C" stroke-linejoin="round"/>
<path d="M20.774 11.242C20.774 10.8723 20.9209 10.5177 21.1823 10.2563C21.4438 9.99489 21.7983 9.84802 22.168 9.84802H77.889C78.2522 9.85775 78.5971 10.0088 78.8505 10.2691C79.1039 10.5294 79.2457 10.8783 79.2457 11.2415C79.2457 11.6048 79.1039 11.9537 78.8505 12.2139C78.5971 12.4742 78.2522 12.6253 77.889 12.635H22.168C21.7985 12.635 21.4441 12.4883 21.1827 12.2271C20.9213 11.9659 20.7743 11.6116 20.774 11.242Z" fill="#E0E0E0" stroke="#45413C" stroke-linejoin="round"/>
<path d="M38.187 21.689H29.829M36.098 25.172H29.829M36.098 28.655H29.829" stroke="#45413C" stroke-miterlimit="10" stroke-linecap="round"/>
<path d="M67.789 21.689C67.3976 21.6919 67.0129 21.7901 66.668 21.975C66.4922 21.1088 66.0224 20.3301 65.3382 19.7707C64.6539 19.2113 63.7973 18.9058 62.9135 18.9058C62.0297 18.9058 61.1731 19.2113 60.4888 19.7707C59.8045 20.3301 59.3347 21.1088 59.159 21.975C58.8141 21.7901 58.4293 21.6919 58.038 21.689C57.7178 21.689 57.4008 21.7521 57.105 21.8746C56.8092 21.9971 56.5404 22.1767 56.3141 22.4031C56.0877 22.6295 55.9081 22.8982 55.7856 23.194C55.663 23.4898 55.6 23.8068 55.6 24.127C55.6 24.4472 55.663 24.7642 55.7856 25.06C55.9081 25.3558 56.0877 25.6245 56.3141 25.8509C56.5404 26.0773 56.8092 26.2569 57.105 26.3794C57.4008 26.5019 57.7178 26.565 58.038 26.565H67.789C68.4356 26.565 69.0557 26.3081 69.5129 25.8509C69.9701 25.3937 70.227 24.7736 70.227 24.127C70.227 23.4804 69.9701 22.8603 69.5129 22.4031C69.0557 21.9459 68.4356 21.689 67.789 21.689Z" fill="white" stroke="#45413C" stroke-linejoin="round"/>
<path d="M61.172 26.5649L60.078 28.7549C60.0409 28.8291 60.0202 28.9103 60.0172 28.9931C60.0142 29.076 60.0291 29.1585 60.0608 29.2351C60.0924 29.3117 60.1402 29.3806 60.2008 29.4372C60.2614 29.4937 60.3334 29.5366 60.412 29.5629L61.473 29.9159C61.5889 29.9538 61.69 30.0272 61.7618 30.1258C61.8336 30.2243 61.8725 30.343 61.873 30.4649V32.1329C61.8732 32.2473 61.9072 32.3591 61.9708 32.4542C62.0345 32.5492 62.1248 32.6233 62.2305 32.6671C62.3362 32.7108 62.4525 32.7223 62.5647 32.7C62.6769 32.6778 62.78 32.6228 62.861 32.5419L64.946 30.4579C64.9998 30.4042 65.0424 30.3403 65.0716 30.2701C65.1007 30.1998 65.1157 30.1245 65.1157 30.0484C65.1157 29.9724 65.1007 29.8971 65.0716 29.8268C65.0424 29.7565 64.9998 29.6927 64.946 29.6389L64.215 28.9079C64.139 28.832 64.0857 28.7364 64.061 28.6318C64.0363 28.5273 64.0411 28.4179 64.075 28.3159L64.659 26.5649H61.172Z" fill="#FFE500" stroke="#45413C" stroke-linejoin="round"/>
<path d="M67.789 43.978C67.3978 43.981 67.0132 44.0788 66.668 44.263C66.4923 43.3968 66.0225 42.618 65.3382 42.0587C64.654 41.4993 63.7973 41.1937 62.9135 41.1937C62.0297 41.1937 61.1731 41.4993 60.4888 42.0587C59.8046 42.618 59.3348 43.3968 59.159 44.263C58.8319 44.0926 58.4703 43.9989 58.1016 43.9889C57.7329 43.9788 57.3668 44.0527 57.0308 44.205C56.6949 44.3573 56.398 44.584 56.1626 44.8679C55.9271 45.1518 55.7593 45.4855 55.6719 45.8438C55.5844 46.2021 55.5795 46.5757 55.6576 46.9361C55.7357 47.2966 55.8947 47.6346 56.1226 47.9245C56.3506 48.2145 56.6415 48.4489 56.9733 48.6099C57.3051 48.7709 57.6692 48.8544 58.038 48.854H67.789C68.4356 48.854 69.0557 48.5971 69.513 48.1399C69.9702 47.6827 70.227 47.0626 70.227 46.416C70.227 45.7694 69.9702 45.1492 69.513 44.692C69.0557 44.2348 68.4356 43.978 67.789 43.978Z" fill="white" stroke="#45413C" stroke-linejoin="round"/>
<path d="M61.869 53.73C61.869 54.0994 61.7222 54.4538 61.461 54.715C61.1998 54.9762 60.8455 55.123 60.476 55.123C60.1066 55.123 59.7522 54.9762 59.491 54.715C59.2298 54.4538 59.083 54.0994 59.083 53.73C59.083 52.96 60.476 50.943 60.476 50.943C60.476 50.943 61.869 52.96 61.869 53.73ZM67.441 53.73C67.441 54.0994 67.2942 54.4538 67.033 54.715C66.7718 54.9762 66.4175 55.123 66.048 55.123C65.6786 55.123 65.3242 54.9762 65.063 54.715C64.8018 54.4538 64.655 54.0994 64.655 53.73C64.655 52.96 66.048 50.943 66.048 50.943C66.048 50.943 67.441 52.96 67.441 53.73Z" fill="#B8ECFF" stroke="#45413C" stroke-linejoin="round"/>
<path d="M46.439 27.462C46.839 27.462 47.145 27.643 47.145 28.062C47.1478 28.146 47.1325 28.2297 47.1001 28.3072C47.0677 28.3848 47.0189 28.4544 46.9571 28.5114C46.8953 28.5683 46.8219 28.6113 46.742 28.6373C46.6621 28.6633 46.5775 28.6717 46.494 28.662H43.477C43.077 28.662 42.777 28.481 42.777 28.062C42.7918 27.8895 42.8652 27.7271 42.985 27.602C43.734 26.708 44.548 25.894 45.234 24.902C45.4231 24.6611 45.5334 24.3678 45.55 24.062C45.5533 23.9734 45.5392 23.8849 45.5083 23.8018C45.4774 23.7186 45.4305 23.6423 45.3701 23.5773C45.3097 23.5123 45.2371 23.4598 45.1565 23.4229C45.0758 23.3859 44.9886 23.3653 44.9 23.362C43.861 23.362 44.359 24.826 43.491 24.826C43.4031 24.8309 43.3152 24.8173 43.2329 24.7859C43.1507 24.7545 43.076 24.7062 43.0137 24.644C42.9515 24.5818 42.903 24.5072 42.8715 24.425C42.84 24.3428 42.8262 24.2549 42.831 24.167C42.8499 23.6166 43.0819 23.0951 43.478 22.7125C43.874 22.3298 44.4033 22.116 44.954 22.116C45.2113 22.098 45.4696 22.1333 45.7127 22.2197C45.9558 22.306 46.1785 22.4416 46.3668 22.618C46.5551 22.7944 46.705 23.0077 46.807 23.2447C46.9091 23.4816 46.9612 23.737 46.96 23.995C46.96 25.251 45.56 26.495 44.792 27.463L46.439 27.462ZM47.75 25.439C47.75 23.966 48.318 22.115 50.144 22.115C51.97 22.115 52.537 23.966 52.537 25.439C52.537 26.912 51.969 28.763 50.144 28.763C48.319 28.763 47.75 26.912 47.75 25.439ZM51.128 25.439C51.128 24.752 51.064 23.339 50.144 23.339C49.224 23.339 49.159 24.748 49.159 25.439C49.159 26.081 49.223 27.539 50.144 27.539C51.065 27.539 51.128 26.081 51.128 25.439Z" fill="#45413C"/>
<path d="M53.51 18.9C53.51 19.1755 53.4283 19.4448 53.2752 19.6739C53.1222 19.9029 52.9046 20.0815 52.6501 20.1869C52.3955 20.2924 52.1155 20.3199 51.8452 20.2662C51.575 20.2124 51.3268 20.0798 51.132 19.885C50.9372 19.6901 50.8045 19.4419 50.7508 19.1717C50.697 18.9015 50.7246 18.6214 50.83 18.3669C50.9355 18.1123 51.114 17.8948 51.3431 17.7417C51.5722 17.5887 51.8415 17.507 52.117 17.507C52.4864 17.507 52.8408 17.6537 53.102 17.915C53.3632 18.1762 53.51 18.5305 53.51 18.9Z" stroke="#45413C" stroke-miterlimit="10"/>
<path d="M46.439 51.143C46.839 51.143 47.145 51.324 47.145 51.743C47.1473 51.8267 47.1315 51.9098 47.0989 51.9868C47.0662 52.0639 47.0173 52.1329 46.9555 52.1894C46.8938 52.2458 46.8206 52.2883 46.7409 52.314C46.6613 52.3396 46.5771 52.3478 46.494 52.338H43.477C43.077 52.338 42.777 52.158 42.777 51.743C42.7911 51.57 42.8646 51.4071 42.985 51.282C43.734 50.382 44.548 49.575 45.234 48.582C45.4231 48.3411 45.5334 48.0479 45.55 47.742C45.5533 47.6534 45.5392 47.5649 45.5083 47.4818C45.4774 47.3986 45.4305 47.3223 45.3701 47.2573C45.3097 47.1923 45.2371 47.1398 45.1565 47.1029C45.0758 47.0659 44.9886 47.0453 44.9 47.042C43.861 47.042 44.359 48.505 43.491 48.505C43.4031 48.5101 43.3151 48.4965 43.2328 48.4652C43.1505 48.4339 43.0757 48.3856 43.0134 48.3234C42.9511 48.2611 42.9026 48.1865 42.8712 48.1042C42.8397 48.0219 42.826 47.934 42.831 47.846C42.8514 47.2975 43.0833 46.7781 43.4781 46.3967C43.8729 46.0153 44.4 45.8015 44.949 45.8C45.2063 45.7822 45.4645 45.8175 45.7076 45.904C45.9506 45.9904 46.1732 46.126 46.3615 46.3024C46.5497 46.4787 46.6996 46.692 46.8017 46.9288C46.9038 47.1657 46.956 47.4211 46.955 47.679C46.955 48.935 45.555 50.179 44.787 51.148L46.439 51.143ZM48.924 47.15H48.391C48.3084 47.1546 48.2257 47.1416 48.1485 47.1118C48.0713 47.082 48.0014 47.0361 47.9433 46.9772C47.8852 46.9182 47.8404 46.8476 47.8117 46.77C47.783 46.6924 47.7712 46.6096 47.777 46.527C47.7738 46.4451 47.7875 46.3635 47.8171 46.287C47.8467 46.2106 47.8917 46.1411 47.9492 46.0827C48.0067 46.0243 48.0756 45.9784 48.1516 45.9476C48.2276 45.9169 48.309 45.9021 48.391 45.904H49.674C49.7573 45.9011 49.8403 45.916 49.9175 45.9477C49.9946 45.9794 50.0641 46.0271 50.1214 46.0878C50.1786 46.1484 50.2223 46.2206 50.2495 46.2994C50.2766 46.3783 50.2867 46.462 50.279 46.545V51.685C50.2825 51.7762 50.2676 51.8671 50.2351 51.9524C50.2026 52.0376 50.1533 52.1155 50.09 52.1812C50.0268 52.2469 49.9509 52.2992 49.8669 52.3349C49.783 52.3707 49.6927 52.3891 49.6015 52.3891C49.5103 52.3891 49.42 52.3707 49.336 52.3349C49.2521 52.2992 49.1762 52.2469 49.1129 52.1812C49.0497 52.1155 49.0003 52.0376 48.9679 51.9524C48.9354 51.8671 48.9205 51.7762 48.924 51.685V47.15Z" fill="#45413C"/>
<path d="M53.51 42.585C53.51 42.8605 53.4283 43.1298 53.2752 43.3589C53.1222 43.588 52.9046 43.7665 52.6501 43.872C52.3955 43.9774 52.1155 44.005 51.8452 43.9512C51.575 43.8975 51.3268 43.7648 51.132 43.57C50.9372 43.3752 50.8045 43.127 50.7508 42.8568C50.697 42.5866 50.7246 42.3065 50.83 42.0519C50.9355 41.7974 51.114 41.5798 51.3431 41.4268C51.5722 41.2737 51.8415 41.192 52.117 41.192C52.4864 41.192 52.8408 41.3388 53.102 41.6C53.3632 41.8613 53.51 42.2156 53.51 42.585Z" stroke="#45413C" stroke-miterlimit="10"/>
<path d="M39.194 44.987L45.171 36.021" stroke="#45413C" stroke-linecap="round" stroke-linejoin="round"/>
<path d="M26.755 72.852C26.9541 72.8523 27.1527 72.8691 27.349 72.902V54.437H11.9V72.852H16.652C16.8936 72.8518 17.1345 72.8763 17.371 72.925L17.771 61.564C17.771 61.0734 17.9659 60.6028 18.3129 60.2559C18.6598 59.9089 19.1304 59.714 19.621 59.714C20.1117 59.714 20.5822 59.9089 20.9292 60.2559C21.2761 60.6028 21.471 61.0734 21.471 61.564L22 72.852H26.755Z" fill="#87898C"/>
<path d="M26.755 72.852C26.9541 72.8523 27.1527 72.8691 27.349 72.902V54.437H11.9V72.852H16.652C16.8936 72.8518 17.1345 72.8763 17.371 72.925L17.771 61.564C17.771 61.0734 17.9659 60.6028 18.3129 60.2559C18.6598 59.9089 19.1304 59.714 19.621 59.714C20.1117 59.714 20.5822 59.9089 20.9292 60.2559C21.2761 60.6028 21.471 61.0734 21.471 61.564L22 72.852H26.755Z" stroke="#45413C" stroke-linecap="round" stroke-linejoin="round"/>
<path d="M30.32 76.4171C30.32 75.4716 29.9444 74.5648 29.2759 73.8962C28.6073 73.2277 27.7005 72.8521 26.755 72.8521H22V75.229C22 75.5441 22.1252 75.8463 22.348 76.0691C22.5708 76.2919 22.8729 76.4171 23.188 76.4171H30.32ZM20.221 76.4171C20.221 75.4716 19.8454 74.5648 19.1769 73.8962C18.5083 73.2277 17.6015 72.8521 16.656 72.8521H11.9V75.229C11.9 75.5441 12.0252 75.8463 12.248 76.0691C12.4708 76.2919 12.7729 76.4171 13.088 76.4171H20.221Z" fill="#947746" stroke="#45413C" stroke-linecap="round" stroke-linejoin="round"/>
<path d="M27.349 54.437V50.725C27.9905 51.6849 28.8589 52.4717 29.8773 53.0156C30.8957 53.5594 32.0326 53.8435 33.1871 53.8428C34.3416 53.842 35.4781 53.5563 36.4958 53.011C37.5134 52.4658 38.3808 51.6778 39.021 50.717L39.203 50.444C39.2453 50.3798 39.2741 50.3075 39.2875 50.2317C39.301 50.1559 39.2987 50.0782 39.281 50.0033C39.2633 49.9283 39.2305 49.8578 39.1846 49.7961C39.1387 49.7343 39.0806 49.6826 39.014 49.644L35.406 47.577L35.067 48.085C34.797 48.4898 34.404 48.797 33.946 48.9611C33.488 49.1253 32.9894 49.1378 32.5238 48.9968C32.0581 48.8557 31.6502 48.5686 31.3603 48.1779C31.0705 47.7872 30.914 47.3136 30.914 46.827V44.338C30.914 41.187 29.6622 38.165 27.4341 35.9369C25.206 33.7088 22.184 32.457 19.033 32.457C15.8819 32.457 12.86 33.7088 10.6318 35.9369C8.40372 38.165 7.15198 41.187 7.15198 44.338V55.031C7.15198 55.1886 7.21456 55.3397 7.32596 55.4511C7.43735 55.5625 7.58844 55.625 7.74598 55.625H11.9V54.437H27.349Z" fill="#F8F8F8"/>
<path d="M7.28501 46.714C7.70937 43.9015 9.1285 41.3345 11.2846 39.4794C13.4407 37.6242 16.1907 36.6039 19.035 36.6039C21.8794 36.6039 24.6294 37.6242 26.7854 39.4794C28.9415 41.3345 30.3606 43.9015 30.785 46.714H30.918V44.338C30.918 41.187 29.6663 38.165 27.4381 35.9369C25.21 33.7088 22.188 32.457 19.037 32.457C15.886 32.457 12.864 33.7088 10.6359 35.9369C8.40775 38.165 7.15601 41.187 7.15601 44.338V46.714H7.28501Z" fill="white"/>
<path d="M27.349 54.437V50.725C27.9905 51.6849 28.8589 52.4717 29.8773 53.0156C30.8957 53.5594 32.0326 53.8435 33.1871 53.8428C34.3416 53.842 35.4781 53.5563 36.4958 53.011C37.5134 52.4658 38.3808 51.6778 39.021 50.717L39.203 50.444C39.2453 50.3798 39.2741 50.3075 39.2875 50.2317C39.301 50.1559 39.2987 50.0782 39.281 50.0033C39.2633 49.9283 39.2305 49.8578 39.1846 49.7961C39.1387 49.7343 39.0806 49.6826 39.014 49.644L35.406 47.577L35.067 48.085C34.797 48.4898 34.404 48.797 33.946 48.9611C33.488 49.1253 32.9894 49.1378 32.5238 48.9968C32.0581 48.8557 31.6502 48.5686 31.3603 48.1779C31.0705 47.7872 30.914 47.3136 30.914 46.827V44.338C30.914 41.187 29.6622 38.165 27.4341 35.9369C25.206 33.7088 22.184 32.457 19.033 32.457C15.8819 32.457 12.86 33.7088 10.6318 35.9369C8.40372 38.165 7.15198 41.187 7.15198 44.338V55.031C7.15198 55.1886 7.21456 55.3397 7.32596 55.4511C7.43735 55.5625 7.58844 55.625 7.74598 55.625H11.9V54.437H27.349Z" stroke="#45413C" stroke-linecap="round" stroke-linejoin="round"/>
<path d="M40.048 47.837C40.3222 47.3585 40.3951 46.7907 40.2507 46.2585C40.1063 45.7263 39.7564 45.2732 39.278 44.999C38.7995 44.7247 38.2317 44.6518 37.6995 44.7962C37.1673 44.9406 36.7142 45.2905 36.44 45.769L35.406 47.569L39.014 49.636L40.048 47.837ZM7.74597 57.7C7.74597 58.2513 7.96501 58.7801 8.3549 59.17C8.74478 59.5599 9.27359 59.779 9.82497 59.779C10.3764 59.779 10.9052 59.5599 11.295 59.17C11.6849 58.7801 11.904 58.2513 11.904 57.7V55.625H7.74597V57.7Z" fill="#BF8256" stroke="#45413C" stroke-linecap="round" stroke-linejoin="round"/>
<path d="M19.6271 36.988V54.437M11.9041 41.962V55.625M27.3491 41.962V50.725" stroke="#45413C" stroke-linecap="round" stroke-linejoin="round"/>
<path d="M19.6271 36.988L17.5341 48.103L19.6271 50.928L21.9111 48.103L19.6271 36.988Z" fill="#FF6242" stroke="#45413C" stroke-linecap="round" stroke-linejoin="round"/>
<path d="M19.6269 36.9881L17.9269 32.5081C16.4717 32.6427 15.0543 33.0469 13.7469 33.7001L16.5189 38.5291L19.6269 36.9881ZM22.7349 38.5251L25.2209 34.1941C24.0044 33.45 22.663 32.9327 21.2619 32.6671L19.6269 36.9881L22.7349 38.5251Z" fill="#F8F8F8"/>
<path d="M19.6269 36.9881L17.9269 32.5081C16.4717 32.6427 15.0543 33.0469 13.7469 33.7001L16.5189 38.5291L19.6269 36.9881ZM19.6269 36.9881L21.2619 32.6671C22.663 32.9327 24.0044 33.45 25.2209 34.1941L22.7349 38.5251L19.6269 36.9881Z" stroke="#45413C" stroke-linecap="round" stroke-linejoin="round"/>
<path d="M22.5619 32.99C22.3771 32.9333 22.2154 32.8185 22.1008 32.6627C21.9863 32.5069 21.925 32.3184 21.9259 32.125V27.401H17.1049V32.001C17.1051 32.1696 17.0473 32.3332 16.9414 32.4644C16.8355 32.5956 16.6878 32.6865 16.5229 32.722L19.6309 36.986L22.5619 32.99Z" fill="#BF8256" stroke="#45413C" stroke-linecap="round" stroke-linejoin="round"/>
<path d="M20.238 15.087C18.374 15.087 16.5864 15.8275 15.2684 17.1455C13.9504 18.4635 13.21 20.2511 13.21 22.115V23.521C11.203 23.521 11.341 27.035 13.561 27.035H13.567C14.0666 28.6367 15.1241 30.006 16.5475 30.8942C17.9709 31.7824 19.6657 32.1305 21.3239 31.8754C22.9822 31.6202 24.4939 30.7787 25.5844 29.5037C26.675 28.2287 27.272 26.6048 27.267 24.927V22.115C27.267 21.192 27.0852 20.278 26.7319 19.4253C26.3786 18.5726 25.8609 17.7978 25.2082 17.1451C24.5554 16.4925 23.7806 15.9749 22.9278 15.6217C22.075 15.2686 21.161 15.0869 20.238 15.087Z" fill="#BF8256" stroke="#45413C" stroke-linecap="round" stroke-linejoin="round"/>
<path d="M18.129 23.696C18.129 23.9291 18.2216 24.1527 18.3865 24.3176C18.5513 24.4824 18.7749 24.575 19.008 24.575C19.2412 24.575 19.4647 24.4824 19.6296 24.3176C19.7944 24.1527 19.887 23.9291 19.887 23.696C19.887 23.4629 19.7944 23.2393 19.6296 23.0745C19.4647 22.9096 19.2412 22.817 19.008 22.817C18.7749 22.817 18.5513 22.9096 18.3865 23.0745C18.2216 23.2393 18.129 23.4629 18.129 23.696Z" fill="#45413C"/>
<path d="M25.158 23.7C25.1582 23.874 25.1068 24.044 25.0103 24.1887C24.9138 24.3334 24.7765 24.4463 24.6159 24.5129C24.4552 24.5796 24.2784 24.5971 24.1078 24.5632C23.9372 24.5293 23.7805 24.4456 23.6575 24.3226C23.5345 24.1996 23.4508 24.0429 23.4169 23.8723C23.383 23.7017 23.4005 23.5248 23.4671 23.3642C23.5338 23.2035 23.6466 23.0663 23.7913 22.9697C23.936 22.8732 24.1061 22.8218 24.28 22.822C24.5129 22.822 24.7362 22.9145 24.9009 23.0792C25.0655 23.2438 25.158 23.4672 25.158 23.7Z" fill="#45413C"/>
<path d="M18.13 26.508C18.13 26.6464 18.0889 26.7818 18.012 26.8969C17.9351 27.012 17.8258 27.1017 17.6979 27.1547C17.57 27.2077 17.4292 27.2215 17.2934 27.1945C17.1576 27.1675 17.0329 27.1009 16.935 27.003C16.8371 26.9051 16.7704 26.7803 16.7434 26.6445C16.7164 26.5088 16.7303 26.368 16.7833 26.2401C16.8362 26.1122 16.926 26.0029 17.0411 25.926C17.1562 25.849 17.2915 25.808 17.43 25.808C17.6156 25.808 17.7937 25.8817 17.925 26.013C18.0562 26.1443 18.13 26.3223 18.13 26.508Z" fill="#BF8256"/>
<path d="M19.887 27.671C20.3058 28.0424 20.8321 28.2708 21.3894 28.3231C21.9468 28.3754 22.5063 28.249 22.987 27.962C23.1325 27.8767 23.2706 27.7793 23.4 27.671" stroke="#45413C" stroke-linecap="round" stroke-linejoin="round"/>
<path d="M26.835 19.393C24.5818 20.2112 22.1968 20.6065 19.8 20.559C18.6039 20.5879 17.4087 20.4707 16.241 20.21C16.0529 20.1741 15.8595 20.1763 15.6723 20.2164C15.485 20.2565 15.3077 20.3338 15.1508 20.4436C14.9939 20.5534 14.8606 20.6936 14.7588 20.8558C14.657 21.018 14.5887 21.1989 14.558 21.388C14.39 22.482 14.029 23.48 12.587 23.696V20.936C12.6522 19.9494 12.9602 18.9943 13.4836 18.1555C14.007 17.3166 14.7296 16.6202 15.587 16.128C17.871 14.745 19.181 14.328 18.604 13.134C18.773 13.194 20.653 13.784 20.088 14.926C20.088 14.926 21.598 13.726 19.795 11.319C19.795 11.319 23.683 12.519 22.505 14.919C22.7906 14.7171 23.0221 14.448 23.1791 14.1355C23.3361 13.823 23.4137 13.4766 23.405 13.127C24.5682 13.6717 25.5277 14.5726 26.1444 15.6992C26.7611 16.8259 27.003 18.1196 26.835 19.393Z" fill="#614B44" stroke="#45413C" stroke-linecap="round" stroke-linejoin="round"/>
</svg>
