<svg viewBox="0 0 100 100" xmlns="http://www.w3.org/2000/svg" id="Digital-Desk-Clock--Streamline-Ux" height="100" width="100"><desc>Digital Desk Clock Streamline Illustration: https://streamlinehq.com</desc><path d="M10 50a40 40 0 1 0 80 0 40 40 0 1 0 -80 0Z" fill="#daedf7" stroke="#daedf7" stroke-linecap="round" stroke-linejoin="round" stroke-width="1"></path><path d="M21.059 68.864a28.941 3.473 0 1 0 57.882 0 28.941 3.473 0 1 0 -57.882 0Z" fill="#45413c" opacity=".15" stroke-width="1"></path><path d="M33.214 34.287h53.251v30.952H33.214z" fill="#ffffff" stroke-width="1"></path><path d="M33.214 34.287h53.251v2.742H33.214z" fill="#e0e0e0" stroke-width="1"></path><path d="M33.214 62.497h53.251v2.742H33.214z" fill="#ffffff" stroke-width="1"></path><path d="M33.214 34.287h53.251v30.952H33.214z" fill="none" stroke="#45413c" stroke-linecap="round" stroke-linejoin="round" stroke-width="1"></path><path d="m39.003 39.924 32.414 0 0 19.68 -32.414 0Z" fill="#45413c" stroke="#45413c" stroke-linecap="round" stroke-linejoin="round" stroke-width="1"></path><path d="m42.475 52.079 0 -5.21 3.473 0 0 5.21" fill="none" stroke="#ffffff" stroke-linecap="round" stroke-linejoin="round" stroke-width="1"></path><path d="m48.264 52.079 0 -5.21 2.315 0 0 5.21" fill="none" stroke="#ffffff" stroke-linecap="round" stroke-linejoin="round" stroke-width="1"></path><path d="m50.579 52.079 0 -5.21 2.315 0 0 5.21" fill="none" stroke="#ffffff" stroke-linecap="round" stroke-linejoin="round" stroke-width="1"></path><path d="m63.313 52.079 0 -5.21 2.315 0 0 5.21" fill="none" stroke="#ffffff" stroke-linecap="round" stroke-linejoin="round" stroke-width="1"></path><path d="m65.628 52.079 0 -5.21 2.315 0 0 5.21" fill="none" stroke="#ffffff" stroke-linecap="round" stroke-linejoin="round" stroke-width="1"></path><path d="m42.475 49.764 3.473 0" fill="none" stroke="#ffffff" stroke-linecap="round" stroke-linejoin="round" stroke-width="1"></path><path d="M57.525 46.869h3.473v2.894h-3.473z" fill="none" stroke="#ffffff" stroke-linecap="round" stroke-linejoin="round" stroke-width="1"></path><path d="m57.525 49.764 0 2.315" fill="none" stroke="#ffffff" stroke-linecap="round" stroke-linejoin="round" stroke-width="1"></path><path d="m55.209 46.869 0 1.158" fill="none" stroke="#ffffff" stroke-linecap="round" stroke-linejoin="round" stroke-width="1"></path><path d="m55.209 50.921 0 1.158" fill="none" stroke="#ffffff" stroke-linecap="round" stroke-linejoin="round" stroke-width="1"></path><path d="M86.465 34.287v4.037a18.174 18.174 0 0 1 0 22.879v4.037a20 20 0 0 0 6.946 -15.476 20 20 0 0 0 -6.946 -15.477Z" fill="#f8f8f8" stroke-width="1"></path><path d="M93.363 51.211q0.048 -0.717 0.048 -1.447a20 20 0 0 0 -6.946 -15.477v2.894a19.818 19.818 0 0 1 6.898 14.03Z" fill="#ffffff" stroke-width="1"></path><path d="M86.465 34.287v4.037a18.174 18.174 0 0 1 0 22.879v4.037a20 20 0 0 0 6.946 -15.476 20 20 0 0 0 -6.946 -15.477Z" fill="none" stroke="#45413c" stroke-linecap="round" stroke-linejoin="round" stroke-width="1"></path><path d="M86.465 34.287a15.392 15.392 0 0 0 -9.84 -3.624h-53.25v3.624Z" fill="#ffffff" stroke="#45413c" stroke-linecap="round" stroke-linejoin="round" stroke-width="1"></path><path d="M86.465 65.24a15.392 15.392 0 0 1 -9.84 3.624h-53.25V65.24Z" fill="#87898c" stroke="#45413c" stroke-linecap="round" stroke-linejoin="round" stroke-width="1"></path><path d="m74.31 59.603 8.682 0" fill="none" stroke="#45413c" stroke-linecap="round" stroke-linejoin="round" stroke-width="1"></path><path d="M33.214 34.287v4.037a18.174 18.174 0 0 1 0 22.879v4.037a20 20 0 0 0 6.946 -15.476 20 20 0 0 0 -6.946 -15.477Z" fill="#bdbec0" stroke-width="1"></path><path d="M40.113 51.211q0.046 -0.717 0.047 -1.447a20 20 0 0 0 -6.946 -15.477v2.894a19.823 19.823 0 0 1 6.899 14.03Z" fill="#e0e0e0" stroke-width="1"></path><path d="M33.214 34.287v4.037a18.174 18.174 0 0 1 0 22.879v4.037a20 20 0 0 0 6.946 -15.476 20 20 0 0 0 -6.946 -15.477Z" fill="none" stroke="#45413c" stroke-linecap="round" stroke-linejoin="round" stroke-width="1"></path><path d="M33.214 34.287a15.391 15.391 0 0 0 -9.839 -3.624c-9.271 0 -16.786 8.551 -16.786 19.1s7.515 19.1 16.786 19.1a15.391 15.391 0 0 0 9.839 -3.624Z" fill="#e0e0e0" stroke-width="1"></path><path d="M23.375 30.663c-9.271 0 -16.786 8.551 -16.786 19.1q0 0.729 0.048 1.447c0.65 -9.874 7.9 -17.654 16.738 -17.654a15.4 15.4 0 0 1 9.839 3.624v-2.893a15.391 15.391 0 0 0 -9.839 -3.624Z" fill="#f8f8f8" stroke-width="1"></path><path d="M33.214 34.287a15.391 15.391 0 0 0 -9.839 -3.624c-9.271 0 -16.786 8.551 -16.786 19.1s7.515 19.1 16.786 19.1a15.391 15.391 0 0 0 9.839 -3.624Z" fill="none" stroke="#45413c" stroke-linecap="round" stroke-linejoin="round" stroke-width="1"></path></svg>