<svg viewBox="0 0 100 100" xmlns="http://www.w3.org/2000/svg" id="Railway-Station-1--Streamline-Ux" height="100" width="100"><desc>Railway Station 1 Streamline Illustration: https://streamlinehq.com</desc><path d="M49.708 92.45a39.949 39.949 0 0 0 34.608 -20H15.1a39.948 39.948 0 0 0 34.608 20Z" fill="#ccf7ad" stroke-width="1"></path><path d="M13.272 68.95c0.547 1.2 1.171 2.363 1.829 3.5h69.215c0.658 -1.137 1.282 -2.3 1.828 -3.5Z" fill="#ccf7ad" stroke-width="1"></path><path d="M89.708 52.45a40 40 0 1 0 -76.436 16.5h72.872a39.829 39.829 0 0 0 3.564 -16.5Z" fill="#b8ecff" stroke-width="1"></path><path d="m10.708 68.95 78 0" fill="none" stroke="#45413c" stroke-linecap="round" stroke-linejoin="round" stroke-width="1"></path><path d="m6.208 68.95 2.5 0" fill="none" stroke="#45413c" stroke-linecap="round" stroke-linejoin="round" stroke-width="1"></path><path d="m90.708 68.95 2.5 0" fill="none" stroke="#45413c" stroke-linecap="round" stroke-linejoin="round" stroke-width="1"></path><path d="m56.14 32.929 -38.477 0 -4.094 10.779 46.664 0 -4.093 -10.779z" fill="#adc4d9" stroke-width="1"></path><path d="m57.694 37.022 -1.554 -4.093 -38.477 0 -1.555 4.093 41.586 0z" fill="#daedf7" stroke-width="1"></path><path d="m56.14 32.929 -38.477 0 -4.094 10.779 46.664 0 -4.093 -10.779z" fill="none" stroke="#45413c" stroke-linecap="round" stroke-linejoin="round" stroke-width="1"></path><path d="M13.569 43.708h46.664v18.693H13.569z" fill="#ffaa54" stroke-width="1"></path><path d="M14.388 48.483h45.845V62.4H14.388z" fill="#ffaa54" stroke-width="1"></path><path d="M13.569 43.708h46.664v8.869H13.569z" fill="#ff8a14" stroke-width="1"></path><path d="M13.569 43.708h46.664v18.693H13.569z" fill="none" stroke="#45413c" stroke-linecap="round" stroke-linejoin="round" stroke-width="1"></path><path d="M94.161 48.483H5.02a0.681 0.681 0 0 1 -0.567 -1.06l2.162 -3.108a1.365 1.365 0 0 1 1.135 -0.607h83.681a1.365 1.365 0 0 1 1.135 0.607l2.163 3.108a0.682 0.682 0 0 1 -0.568 1.06Z" fill="#adc4d9" stroke="#45413c" stroke-linecap="round" stroke-linejoin="round" stroke-width="1"></path><path d="M20.756 28.017h-2.093a1 1 0 0 0 -1 1v3.912h4.093v-3.912a1 1 0 0 0 -1 -1Z" fill="#ffcc99" stroke="#45413c" stroke-linecap="round" stroke-linejoin="round" stroke-width="1"></path><path d="M55.14 28.017h-2.093a1 1 0 0 0 -1 1v3.912h4.093v-3.912a1 1 0 0 0 -1 -1Z" fill="#ffcc99" stroke="#45413c" stroke-linecap="round" stroke-linejoin="round" stroke-width="1"></path><path d="m82.337 48.483 4.094 4.912 3.274 0 4.094 -4.912 -11.462 0z" fill="#e09f7e" stroke="#45413c" stroke-linecap="round" stroke-linejoin="round" stroke-width="1"></path><path d="m56.14 48.483 4.093 4.912 3.275 0 4.093 -4.912 -11.461 0z" fill="#e09f7e" stroke="#45413c" stroke-linecap="round" stroke-linejoin="round" stroke-width="1"></path><path d="m7.02 48.483 4.093 4.912 3.275 0 4.093 -4.912 -11.461 0z" fill="#e09f7e" stroke="#45413c" stroke-linecap="round" stroke-linejoin="round" stroke-width="1"></path><path d="M25.035 54.9v7.5h-4.912v-7.5a0.675 0.675 0 0 1 0.682 -0.682h3.548a0.684 0.684 0 0 1 0.682 0.682Z" fill="#00b8f0" stroke-width="1"></path><path d="M25.035 54.9v0.287L20.682 62.4h-0.559v-7.5a0.675 0.675 0 0 1 0.682 -0.682h3.548a0.684 0.684 0 0 1 0.682 0.682Z" fill="#4acfff" stroke-width="1"></path><path d="M56.963 54.9v7.5h-4.912v-7.5a0.675 0.675 0 0 1 0.682 -0.682h3.547a0.684 0.684 0 0 1 0.683 0.682Z" fill="#00b8f0" stroke-width="1"></path><path d="M56.963 54.9v0.287L52.61 62.4h-0.559v-7.5a0.675 0.675 0 0 1 0.682 -0.682h3.547a0.684 0.684 0 0 1 0.683 0.682Z" fill="#4acfff" stroke-width="1"></path><path d="M86.431 48.483h3.275V62.4h-3.275z" fill="#ffcc99" stroke-width="1"></path><path d="M86.431 48.483h3.275v4.093h-3.275z" fill="#ffaa54" stroke-width="1"></path><path d="M86.431 48.483h3.275V62.4h-3.275z" fill="none" stroke="#45413c" stroke-linecap="round" stroke-linejoin="round" stroke-width="1"></path><path d="M60.233 48.483h3.275V62.4h-3.275z" fill="#ffcc99" stroke-width="1"></path><path d="M60.233 48.483h3.275v4.093h-3.275z" fill="#ffaa54" stroke-width="1"></path><path d="M60.233 48.483h3.275V62.4h-3.275z" fill="none" stroke="#45413c" stroke-linecap="round" stroke-linejoin="round" stroke-width="1"></path><path d="M11.113 48.483h3.275V62.4h-3.275z" fill="#ffcc99" stroke-width="1"></path><path d="M11.113 48.483h3.275v4.093h-3.275z" fill="#ffaa54" stroke-width="1"></path><path d="M11.113 48.483h3.275V62.4h-3.275z" fill="none" stroke="#45413c" stroke-linecap="round" stroke-linejoin="round" stroke-width="1"></path><path d="M30.761 25.561h18.011v36.84H30.761z" fill="#ffaa54" stroke-width="1"></path><path d="M30.761 25.561h18.011v5.185H30.761z" fill="#ff8a14" stroke-width="1"></path><path d="M30.761 25.561h18.011v36.84H30.761z" fill="none" stroke="#45413c" stroke-linecap="round" stroke-linejoin="round" stroke-width="1"></path><path d="M42.223 18.193h-4.912l-6.9 6.9a0.273 0.273 0 0 0 0.193 0.466h18.33a0.273 0.273 0 0 0 0.193 -0.466Z" fill="#adc4d9" stroke-width="1"></path><path d="M34.036 21.467 30.409 25.1a0.273 0.273 0 0 0 0.193 0.466h18.33a0.273 0.273 0 0 0 0.193 -0.466L45.5 21.467Z" fill="#adc4d9" stroke-width="1"></path><path d="M42.223 18.193h-4.912l-6.9 6.9a0.273 0.273 0 0 0 0.193 0.466h18.33a0.273 0.273 0 0 0 0.193 -0.466Z" fill="none" stroke="#45413c" stroke-linecap="round" stroke-linejoin="round" stroke-width="1"></path><path d="M40.248 13.281h-0.963a1.365 1.365 0 0 0 -1.346 1.14l-0.628 3.772h4.912l-0.629 -3.772a1.365 1.365 0 0 0 -1.346 -1.14Z" fill="#ffe500" stroke="#45413c" stroke-linecap="round" stroke-linejoin="round" stroke-width="1"></path><path d="m39.767 13.281 0 -5.731" fill="none" stroke="#45413c" stroke-linecap="round" stroke-linejoin="round" stroke-width="1"></path><path d="M42.227 31.972V38.8a0.684 0.684 0 0 1 -0.683 0.682H38a0.258 0.258 0 0 1 -0.109 -0.014 0.664 0.664 0 0 1 -0.573 -0.668v-6.828A0.675 0.675 0 0 1 38 31.29h3.547a0.684 0.684 0 0 1 0.68 0.682Z" fill="#00b8f0" stroke-width="1"></path><path d="M42.227 31.972v0.287l-4.339 7.2a0.664 0.664 0 0 1 -0.573 -0.668v-6.819A0.675 0.675 0 0 1 38 31.29h3.547a0.684 0.684 0 0 1 0.68 0.682Z" fill="#4acfff" stroke-width="1"></path><path d="M42.227 49.983v6.822a0.684 0.684 0 0 1 -0.683 0.682H38a0.277 0.277 0 0 1 -0.109 -0.013 0.665 0.665 0 0 1 -0.573 -0.669v-6.822A0.675 0.675 0 0 1 38 49.3h3.547a0.684 0.684 0 0 1 0.68 0.683Z" fill="#00b8f0" stroke-width="1"></path><path d="M42.227 49.983v0.287l-4.339 7.2a0.665 0.665 0 0 1 -0.573 -0.669v-6.818A0.675 0.675 0 0 1 38 49.3h3.547a0.684 0.684 0 0 1 0.68 0.683Z" fill="#4acfff" stroke-width="1"></path><path d="M25.035 54.9v7.5h-4.912v-7.5a0.675 0.675 0 0 1 0.682 -0.682h3.548a0.684 0.684 0 0 1 0.682 0.682Z" fill="none" stroke="#45413c" stroke-linecap="round" stroke-linejoin="round" stroke-width="1"></path><path d="M56.963 54.9v7.5h-4.912v-7.5a0.675 0.675 0 0 1 0.682 -0.682h3.547a0.684 0.684 0 0 1 0.683 0.682Z" fill="none" stroke="#45413c" stroke-linecap="round" stroke-linejoin="round" stroke-width="1"></path><path d="M42.227 31.972V38.8a0.684 0.684 0 0 1 -0.683 0.682H38a0.258 0.258 0 0 1 -0.109 -0.014 0.664 0.664 0 0 1 -0.573 -0.668v-6.828A0.675 0.675 0 0 1 38 31.29h3.547a0.684 0.684 0 0 1 0.68 0.682Z" fill="none" stroke="#45413c" stroke-linecap="round" stroke-linejoin="round" stroke-width="1"></path><path d="M42.227 49.983v6.822a0.684 0.684 0 0 1 -0.683 0.682H38a0.277 0.277 0 0 1 -0.109 -0.013 0.665 0.665 0 0 1 -0.573 -0.669v-6.822A0.675 0.675 0 0 1 38 49.3h3.547a0.684 0.684 0 0 1 0.68 0.683Z" fill="none" stroke="#45413c" stroke-linecap="round" stroke-linejoin="round" stroke-width="1"></path><path d="m30.761 29.654 2.456 0" fill="none" stroke="#45413c" stroke-linecap="round" stroke-linejoin="round" stroke-width="1"></path><path d="m30.761 35.385 2.456 0" fill="none" stroke="#45413c" stroke-linecap="round" stroke-linejoin="round" stroke-width="1"></path><path d="m30.761 41.115 2.456 0" fill="none" stroke="#45413c" stroke-linecap="round" stroke-linejoin="round" stroke-width="1"></path><path d="m30.761 46.846 2.456 0" fill="none" stroke="#45413c" stroke-linecap="round" stroke-linejoin="round" stroke-width="1"></path><path d="m30.761 52.577 2.456 0" fill="none" stroke="#45413c" stroke-linecap="round" stroke-linejoin="round" stroke-width="1"></path><path d="m30.761 58.307 2.456 0" fill="none" stroke="#45413c" stroke-linecap="round" stroke-linejoin="round" stroke-width="1"></path><path d="m46.316 29.654 2.456 0" fill="none" stroke="#45413c" stroke-linecap="round" stroke-linejoin="round" stroke-width="1"></path><path d="m46.316 35.385 2.456 0" fill="none" stroke="#45413c" stroke-linecap="round" stroke-linejoin="round" stroke-width="1"></path><path d="m46.316 41.115 2.456 0" fill="none" stroke="#45413c" stroke-linecap="round" stroke-linejoin="round" stroke-width="1"></path><path d="m46.316 46.846 2.456 0" fill="none" stroke="#45413c" stroke-linecap="round" stroke-linejoin="round" stroke-width="1"></path><path d="m46.316 52.577 2.456 0" fill="none" stroke="#45413c" stroke-linecap="round" stroke-linejoin="round" stroke-width="1"></path><path d="m46.316 58.307 2.456 0" fill="none" stroke="#45413c" stroke-linecap="round" stroke-linejoin="round" stroke-width="1"></path><path d="m2.927 62.401 94.146 0 0 6.549 -94.146 0Z" fill="#bdbec0" stroke="#45413c" stroke-linecap="round" stroke-linejoin="round" stroke-width="1"></path><path d="M11.932 68.95H7.839v-2.775a0.5 0.5 0 0 1 0.5 -0.5h3.093a0.5 0.5 0 0 1 0.5 0.5Z" fill="#f8f8f8" stroke="#45413c" stroke-linecap="round" stroke-linejoin="round" stroke-width="1"></path><path d="M20.937 68.95h-4.093v-2.775a0.5 0.5 0 0 1 0.5 -0.5h3.093a0.5 0.5 0 0 1 0.5 0.5Z" fill="#f8f8f8" stroke="#45413c" stroke-linecap="round" stroke-linejoin="round" stroke-width="1"></path><path d="M29.943 68.95h-4.094v-2.775a0.5 0.5 0 0 1 0.5 -0.5h3.094a0.5 0.5 0 0 1 0.5 0.5Z" fill="#f8f8f8" stroke="#45413c" stroke-linecap="round" stroke-linejoin="round" stroke-width="1"></path><path d="M38.948 68.95h-4.093v-2.775a0.5 0.5 0 0 1 0.5 -0.5h3.093a0.5 0.5 0 0 1 0.5 0.5Z" fill="#f8f8f8" stroke="#45413c" stroke-linecap="round" stroke-linejoin="round" stroke-width="1"></path><path d="M47.953 68.95H43.86v-2.775a0.5 0.5 0 0 1 0.5 -0.5h3.093a0.5 0.5 0 0 1 0.5 0.5Z" fill="#f8f8f8" stroke="#45413c" stroke-linecap="round" stroke-linejoin="round" stroke-width="1"></path><path d="M56.959 68.95h-4.094v-2.775a0.5 0.5 0 0 1 0.5 -0.5h3.094a0.5 0.5 0 0 1 0.5 0.5Z" fill="#f8f8f8" stroke="#45413c" stroke-linecap="round" stroke-linejoin="round" stroke-width="1"></path><path d="M65.964 68.95h-4.093v-2.775a0.5 0.5 0 0 1 0.5 -0.5h3.093a0.5 0.5 0 0 1 0.5 0.5Z" fill="#f8f8f8" stroke="#45413c" stroke-linecap="round" stroke-linejoin="round" stroke-width="1"></path><path d="M74.969 68.95h-4.093v-2.775a0.5 0.5 0 0 1 0.5 -0.5h3.093a0.5 0.5 0 0 1 0.5 0.5Z" fill="#f8f8f8" stroke="#45413c" stroke-linecap="round" stroke-linejoin="round" stroke-width="1"></path><path d="M83.975 68.95h-4.094v-2.775a0.5 0.5 0 0 1 0.5 -0.5h3.094a0.5 0.5 0 0 1 0.5 0.5Z" fill="#f8f8f8" stroke="#45413c" stroke-linecap="round" stroke-linejoin="round" stroke-width="1"></path><path d="M92.98 68.95h-4.093v-2.775a0.5 0.5 0 0 1 0.5 -0.5h3.093a0.5 0.5 0 0 1 0.5 0.5Z" fill="#f8f8f8" stroke="#45413c" stroke-linecap="round" stroke-linejoin="round" stroke-width="1"></path></svg>