<svg viewBox="0 0 100 100" xmlns="http://www.w3.org/2000/svg" id="Scissors-2--Streamline-Ux" height="100" width="100"><desc>Scissors 2 Streamline Illustration: https://streamlinehq.com</desc><path d="M11.59 50a40 40 0 1 0 80 0 40 40 0 1 0 -80 0Z" fill="#daedf7" stroke="#daedf7" stroke-width="1"></path><path d="M41.469 49.66a1.467 1.467 0 0 1 0.2 2.067L31.39 64.184a1.463 1.463 0 0 1 -2.055 0.191L8.949 47.57a1.468 1.468 0 0 1 -0.205 -2.07l11.213 -13.575Z" fill="#ffffff" stroke-width="1"></path><path d="m36.463 48.85 -10.188 0.013a0.629 0.629 0 0 0 -0.625 0.522 0.641 0.641 0 0 0 0.41 0.707l5.78 2.079a74.552 74.552 0 0 0 7.587 2.272l1.706 -2.068Z" fill="#f8f8f8" stroke-width="1"></path><path d="M41.469 49.66a1.467 1.467 0 0 1 0.2 2.067L31.39 64.184a1.463 1.463 0 0 1 -2.055 0.191L8.949 47.57a1.468 1.468 0 0 1 -0.205 -2.07l11.213 -13.575Z" fill="none" stroke="#45413c" stroke-linecap="round" stroke-linejoin="round" stroke-width="1"></path><path d="M37.116 77.618a14.332 1.654 0 1 0 28.664 0 14.332 1.654 0 1 0 -28.664 0Z" fill="#45413c" opacity=".15" stroke-width="1"></path><path d="m55.466 42.332 -5.89 5.354 -16.332 -21.263a0.663 0.663 0 0 1 0.883 -0.963l5.413 3.458a79.33 79.33 0 0 1 15.923 13.416" fill="#adc4d9" stroke-width="1"></path><path d="M37.366 27.529 51.5 45.936l-1.925 1.75 -16.331 -21.263a0.663 0.663 0 0 1 0.883 -0.963Z" fill="#daedf7" stroke-width="1"></path><path d="m55.466 42.332 -5.89 5.354 -16.332 -21.263a0.663 0.663 0 0 1 0.883 -0.963l5.413 3.458a79.33 79.33 0 0 1 15.923 13.416" fill="none" stroke="#45413c" stroke-linecap="round" stroke-linejoin="round" stroke-width="1"></path><path d="M81.9 55.446c-1.966 -0.058 -2.578 0.235 -4.313 -0.592a7.891 7.891 0 0 1 -3.287 -2.735l-0.046 -0.048a7.935 7.935 0 0 0 -2.733 -1.645 37.523 37.523 0 0 1 -6.08 -2.555l-9.97 -5.539 -6.284 5.713S62.879 63.219 63.5 63.8l0.069 0.078c4.919 5.029 8.9 6.637 15.9 7.284A7.952 7.952 0 1 0 81.9 55.446Zm-2.133 11.736c-3.38 -0.62 -4.615 -0.555 -7.085 -1.742a24.012 24.012 0 0 1 -6.25 -4.367 3.95 3.95 0 0 1 -0.682 -5.573 3.836 3.836 0 0 1 1.2 -1.044 3.972 3.972 0 0 1 3.643 -0.1 4.069 4.069 0 0 1 0.734 0.453c2.12 1.95 2.649 2.526 4.621 3.471s2.8 0.728 5.644 1.168a3.977 3.977 0 1 1 -1.826 7.741Z" fill="#ff6242" stroke="#45413c" stroke-width="1"></path><path d="m50.836 46.541 -1.654 1.5C63.6 64.018 63.379 63.666 63.567 63.88c4.919 5.029 8.9 6.637 15.9 7.284a7.95 7.95 0 0 0 8.572 -4.818 7.972 7.972 0 0 1 -7.372 2.8c-7.007 -0.649 -10.988 -2.245 -15.9 -7.279 -0.723 -0.716 -5.611 -6.113 -13.936 -15.323" fill="#e04122" stroke-width="1"></path><path d="M81.9 55.446c-1.966 -0.058 -2.578 0.235 -4.313 -0.592a7.891 7.891 0 0 1 -3.287 -2.735l-0.046 -0.048a7.935 7.935 0 0 0 -2.733 -1.645 37.523 37.523 0 0 1 -6.08 -2.555l-9.97 -5.539 -6.284 5.713C63.6 64.018 63.379 63.666 63.567 63.88c4.919 5.029 8.9 6.637 15.9 7.284A7.952 7.952 0 1 0 81.9 55.446Zm-2.133 11.736c-3.38 -0.62 -4.615 -0.555 -7.085 -1.742a24.012 24.012 0 0 1 -6.25 -4.367 3.95 3.95 0 0 1 -0.682 -5.573 3.836 3.836 0 0 1 1.2 -1.044 3.972 3.972 0 0 1 3.643 -0.1 4.069 4.069 0 0 1 0.734 0.453c2.12 1.95 2.649 2.526 4.621 3.471s2.8 0.728 5.644 1.168a3.977 3.977 0 1 1 -1.826 7.741Z" fill="#ffaa54" stroke="#45413c" stroke-linecap="round" stroke-linejoin="round" stroke-width="1"></path><path d="M80.555 33.342a11.9 11.9 0 0 0 -9.287 3.093c-0.22 0.248 -0.452 0.482 -0.671 0.717a0.125 0.125 0 0 1 -0.058 0.062 98.205 98.205 0 0 1 -7.907 7.729 5.315 5.315 0 0 1 -3.895 1.268l-7.126 -0.579 -0.644 7.933 2.922 0.237a21.108 21.108 0 0 0 8.774 -1.031c2.412 -0.869 7.185 -1.626 16.39 -0.919 0.132 0.01 0.264 0.021 0.4 0.019 5.963 0.311 11.052 -3.362 11.458 -8.373 0.413 -5.098 -4.221 -9.658 -10.356 -10.156ZM79.3 48.771c-4.085 -0.331 -7.18 -3.364 -6.9 -6.775s3.82 -5.905 7.905 -5.573 7.18 3.364 6.9 6.775 -3.817 5.902 -7.905 5.573Z" fill="#ffaa54" stroke="#45413c" stroke-width="1"></path><path d="m51.2 50.7 -0.232 2.863 2.932 0.237a21.106 21.106 0 0 0 8.774 -1.031c2.413 -0.869 7.185 -1.626 16.39 -0.919 0.133 0.01 0.265 0.021 0.4 0.019 5.371 0.28 10.019 -2.681 11.19 -6.93a11.4 11.4 0 0 1 -9.854 4.235 2.1 2.1 0 0 1 -0.392 -0.016c-9.209 -0.708 -13.981 0.054 -16.392 0.919a21.19 21.19 0 0 1 -8.781 1.029Z" fill="#ff8a14" stroke-width="1"></path><path d="M80.555 33.342a11.9 11.9 0 0 0 -9.287 3.093c-0.22 0.248 -0.452 0.482 -0.671 0.717a0.125 0.125 0 0 1 -0.058 0.062 98.205 98.205 0 0 1 -7.907 7.729 5.315 5.315 0 0 1 -3.895 1.268l-7.126 -0.579 -0.644 7.933 2.922 0.237a21.108 21.108 0 0 0 8.774 -1.031c2.412 -0.869 7.185 -1.626 16.39 -0.919 0.132 0.01 0.264 0.021 0.4 0.019 5.963 0.311 11.052 -3.362 11.458 -8.373 0.413 -5.098 -4.221 -9.658 -10.356 -10.156ZM79.3 48.771c-4.085 -0.331 -7.18 -3.364 -6.9 -6.775s3.82 -5.905 7.905 -5.573 7.18 3.364 6.9 6.775 -3.817 5.902 -7.905 5.573Z" fill="none" stroke="#45413c" stroke-linecap="round" stroke-linejoin="round" stroke-width="1"></path><path d="m50.967 53.565 0.644 -7.933 -26.843 0.155a0.664 0.664 0 0 0 -0.218 1.289l6.05 2.151a80.977 80.977 0 0 0 20.365 4.338" fill="#daedf7" stroke-width="1"></path><path d="m29.9 48.977 0.7 0.25a80.977 80.977 0 0 0 20.365 4.338l0.382 -4.714 -21.45 0.134" fill="#adc4d9" stroke-width="1"></path><path d="m50.967 53.565 0.644 -7.933 -26.843 0.155a0.664 0.664 0 0 0 -0.218 1.289l6.05 2.151a80.977 80.977 0 0 0 20.365 4.338" fill="none" stroke="#45413c" stroke-linecap="round" stroke-linejoin="round" stroke-width="1"></path><path d="M55.881 49.886a1.903 1.903 0 1 0 3.806 0 1.903 1.903 0 1 0 -3.806 0Z" fill="#fff5e3" stroke="#45413c" stroke-width="1"></path><path d="M59.681 49.736a1.782 1.782 0 0 1 0 0.283 1.9 1.9 0 1 1 -2.971 -1.7 1.921 1.921 0 0 0 1.765 1.76 1.83 1.83 0 0 0 1.208 -0.338" fill="#f0d3a8" stroke-width="1"></path><path d="M55.881 49.886a1.903 1.903 0 1 0 3.806 0 1.903 1.903 0 1 0 -3.806 0Z" fill="none" stroke="#45413c" stroke-width="1"></path><path d="M46.962 25.453h-0.015c-0.854 0.156 -1.87 0.3 -3.075 0.436a1.465 1.465 0 0 0 -1.306 1.546 5.826 5.826 0 0 1 -0.477 2.626 11.607 11.607 0 0 1 -6.032 5.709 20.086 20.086 0 0 1 -4.036 0.44 18.985 18.985 0 0 1 -12.064 -4.285l6.34 -8.16a1.46 1.46 0 0 1 1.908 -0.353A7.349 7.349 0 0 0 39.08 19.1a2.942 2.942 0 0 1 2.833 -2.143c2.847 0 7.265 0.69 9.187 4.579 0.382 1.583 0.925 2.977 -4.138 3.917Z" fill="#ffffff" stroke-width="1"></path><path d="M33.836 36.115a21.906 21.906 0 0 0 2.221 -0.345 11.607 11.607 0 0 0 6.032 -5.709 5.714 5.714 0 0 0 0.426 -3.107 33.3 33.3 0 0 1 -4.53 1.326 1.165 1.165 0 0 0 -0.949 1.279c0.28 2.414 -1.134 4.778 -3.2 6.551" fill="#f8f8f8" stroke-width="1"></path><path d="M46.962 25.453h-0.015c-0.854 0.156 -1.87 0.3 -3.075 0.436a1.465 1.465 0 0 0 -1.306 1.546 5.826 5.826 0 0 1 -0.477 2.626 11.607 11.607 0 0 1 -6.032 5.709h0a20.086 20.086 0 0 1 -4.036 0.44 18.985 18.985 0 0 1 -12.064 -4.285l6.34 -8.16a1.46 1.46 0 0 1 1.908 -0.353A7.349 7.349 0 0 0 39.08 19.1a2.942 2.942 0 0 1 2.833 -2.143c2.847 0 7.265 0.69 9.187 4.579 0.382 1.583 0.925 2.977 -4.138 3.917Z" fill="none" stroke="#45413c" stroke-linecap="round" stroke-linejoin="round" stroke-width="1"></path><path d="M36.057 35.77a11.607 11.607 0 0 0 6.032 -5.709 5.826 5.826 0 0 0 0.477 -2.626 1.467 1.467 0 0 1 1.306 -1.546c1.2 -0.131 2.221 -0.28 3.075 -0.436h0.015c5.063 -0.94 4.52 -2.334 4.138 -3.919 2.554 5.181 -6.12 12.431 -15.043 14.236Z" fill="#e0e0e0" stroke="#45413c" stroke-linecap="round" stroke-linejoin="round" stroke-width="1"></path></svg>