<svg width="130" height="130" viewBox="0 0 130 130" fill="none" xmlns="http://www.w3.org/2000/svg">
<rect width="130" height="130" fill="#132F44"/>
<rect x="4" y="54" width="121.793" height="23" rx="8" fill="white"/>
<path fill-rule="evenodd" clip-rule="evenodd" d="M19.4975 71.3964C11.9687 71.3964 13.9117 63.6191 15.3079 60.2118L17.5043 62.1616C18.4147 61.7172 20.8724 61.6223 21.7281 61.9505L23.0927 59.6036C23.0927 59.6036 24.8648 61.8782 25.4327 64.4574C25.4231 64.4551 25.4134 64.4531 25.4035 64.4514C24.3904 64.2803 23.4959 64.3456 22.4913 64.4669C22.2979 64.4902 22.1397 64.6355 22.1136 64.8285C22.0307 65.441 22.0725 66.0135 22.2422 66.5999C22.3244 66.8843 22.5655 67.0923 22.8572 67.1428C23.5831 67.2684 24.2821 67.2684 25.0081 67.1428C25.2997 67.0923 25.5409 66.8843 25.623 66.5999C25.6416 66.5358 25.6586 66.4719 25.6741 66.4081L25.7816 67.3206C26.0487 70.9391 21.4938 71.3964 19.4975 71.3964ZM16.517 64.8285C16.5432 64.6355 16.7013 64.4902 16.8947 64.4669C17.8993 64.3456 18.7939 64.2803 19.807 64.4514C19.9859 64.4817 20.1261 64.6223 20.1514 64.802C20.2392 65.4245 20.1986 66.005 20.0265 66.5999C19.9443 66.8843 19.7032 67.0923 19.4115 67.1428C18.6856 67.2684 17.9865 67.2684 17.2606 67.1428C16.969 67.0923 16.7279 66.8843 16.6456 66.5999C16.476 66.0135 16.4341 65.441 16.517 64.8285Z" stroke="#C71DFF" stroke-width="1.3" stroke-linejoin="round"/>
<path d="M14 65.6085C14.8497 65.3714 15.626 65.3714 16.4757 65.6085" stroke="#000CFE" stroke-width="1.3" stroke-linecap="round" stroke-linejoin="round"/>
<path d="M20.196 65.3993C20.8521 65.1392 21.4343 65.1392 22.0904 65.3993" stroke="#000CFE" stroke-width="1.3" stroke-linejoin="round"/>
<path d="M17.2211 68.6904C17.6289 69.0185 18.5472 69.5021 19.8949 69.2969" stroke="#C71DFF" stroke-width="1.3" stroke-linecap="round" stroke-linejoin="round"/>
<path d="M16.517 64.8285C16.5432 64.6355 16.7014 64.4902 16.8947 64.4669C17.8993 64.3456 18.7939 64.2803 19.807 64.4514C19.9859 64.4817 20.1261 64.6223 20.1514 64.802C20.2392 65.4245 20.1986 66.005 20.0265 66.5999C19.9443 66.8843 19.7032 67.0923 19.4115 67.1428C18.6856 67.2684 17.9866 67.2684 17.2606 67.1428C16.969 67.0923 16.7279 66.8842 16.6456 66.5999C16.476 66.0135 16.4341 65.441 16.517 64.8285Z" stroke="#000CFE" stroke-width="1.3" stroke-linejoin="round"/>
<path d="M22.1136 64.8285C22.1397 64.6355 22.2979 64.4902 22.4913 64.4669C23.4959 64.3456 24.3904 64.2803 25.4035 64.4514C25.5824 64.4817 25.7227 64.6223 25.748 64.802C25.8358 65.4245 25.7951 66.005 25.6231 66.5999C25.5409 66.8843 25.2997 67.0923 25.0081 67.1428C24.2821 67.2684 23.5832 67.2684 22.8572 67.1428C22.5655 67.0923 22.3244 66.8842 22.2422 66.5999C22.0726 66.0135 22.0307 65.441 22.1136 64.8285Z" stroke="#000CFE" stroke-width="1.3" stroke-linejoin="round"/>
<path d="M33.6778 71V60.8182H40.4193V62.593H35.8305V65.0192H39.9718V66.794H35.8305V71H33.6778ZM46.246 67.7486V63.3636H48.3639V71H46.3305V69.6129H46.2509C46.0786 70.0604 45.7919 70.42 45.3909 70.6918C44.9931 70.9635 44.5076 71.0994 43.9342 71.0994C43.4238 71.0994 42.9747 70.9834 42.5869 70.7514C42.1991 70.5194 41.8958 70.1896 41.6771 69.7621C41.4616 69.3345 41.3523 68.8224 41.349 68.2259V63.3636H43.4669V67.848C43.4702 68.2988 43.5911 68.6551 43.8298 68.9169C44.0684 69.1787 44.3883 69.3097 44.7893 69.3097C45.0445 69.3097 45.2831 69.2517 45.5052 69.1357C45.7273 69.0163 45.9062 68.8407 46.0421 68.6087C46.1813 68.3767 46.2493 68.09 46.246 67.7486ZM52.1758 66.5852V71H50.0579V63.3636H52.0764V64.7109H52.1659C52.3349 64.2668 52.6183 63.9155 53.016 63.657C53.4138 63.3951 53.896 63.2642 54.4628 63.2642C54.9931 63.2642 55.4554 63.3802 55.8498 63.6122C56.2443 63.8442 56.5508 64.1757 56.7696 64.6065C56.9883 65.0341 57.0977 65.5445 57.0977 66.1378V71H54.9798V66.5156C54.9831 66.0483 54.8638 65.6837 54.6219 65.4219C54.3799 65.1567 54.0468 65.0241 53.6226 65.0241C53.3375 65.0241 53.0856 65.0855 52.8669 65.2081C52.6515 65.3307 52.4824 65.5097 52.3598 65.745C52.2405 65.977 52.1792 66.2571 52.1758 66.5852ZM63.0922 71V60.8182H66.5325C67.3313 60.8182 67.9843 60.9624 68.4914 61.2507C69.0018 61.5357 69.3796 61.9219 69.6249 62.4091C69.8701 62.8963 69.9928 63.4399 69.9928 64.0398C69.9928 64.6397 69.8701 65.1849 69.6249 65.6754C69.3829 66.166 69.0084 66.5571 68.5013 66.8487C67.9942 67.1371 67.3446 67.2812 66.5524 67.2812H64.0865V66.1875H66.5127C67.0595 66.1875 67.4987 66.093 67.8301 65.9041C68.1616 65.7152 68.4019 65.46 68.551 65.1385C68.7035 64.8137 68.7797 64.4474 68.7797 64.0398C68.7797 63.6321 68.7035 63.2675 68.551 62.946C68.4019 62.6245 68.1599 62.3726 67.8252 62.1903C67.4904 62.0047 67.0463 61.9119 66.4928 61.9119H64.3252V71H63.0922ZM71.8198 71V63.3636H72.9534V64.517H73.0329C73.1721 64.1392 73.424 63.8326 73.7886 63.5973C74.1532 63.362 74.5642 63.2443 75.0215 63.2443C75.1077 63.2443 75.2154 63.246 75.3447 63.2493C75.474 63.2526 75.5717 63.2576 75.638 63.2642V64.4574C75.5982 64.4474 75.5071 64.4325 75.3646 64.4126C75.2254 64.3894 75.0779 64.3778 74.9221 64.3778C74.5509 64.3778 74.2195 64.4557 73.9278 64.6115C73.6394 64.764 73.4107 64.9761 73.2417 65.2479C73.076 65.5163 72.9931 65.8229 72.9931 66.1676V71H71.8198ZM79.8987 71.1591C79.2093 71.1591 78.6044 70.995 78.084 70.6669C77.567 70.3388 77.1626 69.8797 76.871 69.2898C76.5826 68.6998 76.4384 68.0104 76.4384 67.2216C76.4384 66.4261 76.5826 65.7318 76.871 65.1385C77.1626 64.5452 77.567 64.0845 78.084 63.7564C78.6044 63.4283 79.2093 63.2642 79.8987 63.2642C80.5881 63.2642 81.1913 63.4283 81.7083 63.7564C82.2287 64.0845 82.633 64.5452 82.9214 65.1385C83.2131 65.7318 83.3589 66.4261 83.3589 67.2216C83.3589 68.0104 83.2131 68.6998 82.9214 69.2898C82.633 69.8797 82.2287 70.3388 81.7083 70.6669C81.1913 70.995 80.5881 71.1591 79.8987 71.1591ZM79.8987 70.1051C80.4223 70.1051 80.8532 69.9709 81.1913 69.7024C81.5294 69.4339 81.7796 69.081 81.942 68.6435C82.1044 68.206 82.1856 67.732 82.1856 67.2216C82.1856 66.7112 82.1044 66.2356 81.942 65.7947C81.7796 65.3539 81.5294 64.9976 81.1913 64.7259C80.8532 64.4541 80.4223 64.3182 79.8987 64.3182C79.375 64.3182 78.9441 64.4541 78.6061 64.7259C78.268 64.9976 78.0178 65.3539 77.8553 65.7947C77.6929 66.2356 77.6117 66.7112 77.6117 67.2216C77.6117 67.732 77.6929 68.206 77.8553 68.6435C78.0178 69.081 78.268 69.4339 78.6061 69.7024C78.9441 69.9709 79.375 70.1051 79.8987 70.1051ZM85.1499 63.3636H86.3232V71.5568C86.3232 72.0275 86.242 72.4351 86.0796 72.7798C85.9205 73.1245 85.6786 73.3913 85.3537 73.5803C85.0323 73.7692 84.6262 73.8636 84.1357 73.8636C84.0959 73.8636 84.0562 73.8636 84.0164 73.8636C83.9766 73.8636 83.9368 73.8636 83.8971 73.8636V72.7699C83.9368 72.7699 83.9733 72.7699 84.0064 72.7699C84.0396 72.7699 84.076 72.7699 84.1158 72.7699C84.4738 72.7699 84.7356 72.6638 84.9013 72.4517C85.0671 72.2429 85.1499 71.9446 85.1499 71.5568V63.3636ZM85.7266 62.0909C85.4979 62.0909 85.3007 62.013 85.135 61.8572C84.9726 61.7015 84.8914 61.5142 84.8914 61.2955C84.8914 61.0767 84.9726 60.8894 85.135 60.7337C85.3007 60.5779 85.4979 60.5 85.7266 60.5C85.9553 60.5 86.1509 60.5779 86.3133 60.7337C86.479 60.8894 86.5618 61.0767 86.5618 61.2955C86.5618 61.5142 86.479 61.7015 86.3133 61.8572C86.1509 62.013 85.9553 62.0909 85.7266 62.0909ZM91.6739 71.1591C90.9381 71.1591 90.3034 70.9967 89.7698 70.6719C89.2395 70.3438 88.8301 69.8864 88.5418 69.2997C88.2567 68.7098 88.1142 68.0237 88.1142 67.2415C88.1142 66.4593 88.2567 65.7699 88.5418 65.1733C88.8301 64.5734 89.2312 64.1061 89.7449 63.7713C90.262 63.4332 90.8652 63.2642 91.5546 63.2642C91.9523 63.2642 92.345 63.3305 92.7328 63.4631C93.1206 63.5956 93.4736 63.8111 93.7918 64.1094C94.11 64.4044 94.3635 64.7955 94.5524 65.2827C94.7414 65.7699 94.8358 66.3698 94.8358 67.0824V67.5795H88.9495V66.5653H93.6426C93.6426 66.1345 93.5565 65.75 93.3841 65.4119C93.2151 65.0739 92.9731 64.8071 92.6583 64.6115C92.3467 64.416 91.9788 64.3182 91.5546 64.3182C91.0872 64.3182 90.6829 64.4342 90.3415 64.6662C90.0034 64.8949 89.7432 65.1932 89.561 65.5611C89.3787 65.929 89.2875 66.3234 89.2875 66.7443V67.4205C89.2875 67.9972 89.387 68.486 89.5858 68.8871C89.788 69.2848 90.0681 69.5881 90.426 69.7969C90.784 70.0024 91.1999 70.1051 91.6739 70.1051C91.9821 70.1051 92.2605 70.062 92.5091 69.9759C92.761 69.8864 92.9781 69.7538 93.1604 69.5781C93.3427 69.3991 93.4835 69.1771 93.583 68.9119L94.7165 69.2301C94.5972 69.6146 94.3967 69.9527 94.1149 70.2443C93.8332 70.5327 93.4852 70.758 93.0709 70.9205C92.6566 71.0795 92.1909 71.1591 91.6739 71.1591ZM99.7229 71.1591C99.007 71.1591 98.3905 70.9901 97.8735 70.652C97.3564 70.3139 96.9587 69.8482 96.6803 69.255C96.4019 68.6617 96.2627 67.9839 96.2627 67.2216C96.2627 66.446 96.4052 65.7616 96.6902 65.1683C96.9786 64.5717 97.3796 64.1061 97.8933 63.7713C98.4104 63.4332 99.0136 63.2642 99.703 63.2642C100.24 63.2642 100.724 63.3636 101.155 63.5625C101.586 63.7614 101.939 64.0398 102.214 64.3977C102.489 64.7557 102.659 65.1733 102.726 65.6506H101.552C101.463 65.3026 101.264 64.9943 100.956 64.7259C100.651 64.4541 100.24 64.3182 99.7229 64.3182C99.2655 64.3182 98.8645 64.4375 98.5198 64.6761C98.1784 64.9115 97.9116 65.2446 97.7193 65.6754C97.5304 66.103 97.436 66.6051 97.436 67.1818C97.436 67.7718 97.5288 68.2855 97.7144 68.723C97.9033 69.1605 98.1684 69.5002 98.5098 69.7422C98.8545 69.9841 99.2589 70.1051 99.7229 70.1051C100.028 70.1051 100.305 70.0521 100.553 69.946C100.802 69.84 101.012 69.6875 101.185 69.4886C101.357 69.2898 101.48 69.0511 101.552 68.7727H102.726C102.659 69.2235 102.495 69.6295 102.234 69.9908C101.975 70.3487 101.632 70.6338 101.204 70.8459C100.78 71.0547 100.286 71.1591 99.7229 71.1591ZM107.762 63.3636V64.358H103.805V63.3636H107.762ZM104.958 61.5341H106.131V68.8125C106.131 69.1439 106.179 69.3925 106.275 69.5582C106.375 69.7206 106.501 69.83 106.653 69.8864C106.809 69.9394 106.973 69.9659 107.145 69.9659C107.275 69.9659 107.381 69.9593 107.464 69.946C107.547 69.9295 107.613 69.9162 107.663 69.9062L107.901 70.9602C107.822 70.9901 107.711 71.0199 107.568 71.0497C107.426 71.0829 107.245 71.0994 107.026 71.0994C106.695 71.0994 106.37 71.0282 106.052 70.8857C105.737 70.7431 105.475 70.526 105.266 70.2344C105.061 69.9427 104.958 69.5748 104.958 69.1307V61.5341ZM114.799 65.0739L113.745 65.3722C113.679 65.1965 113.581 65.0258 113.452 64.8601C113.326 64.6911 113.154 64.5518 112.935 64.4425C112.716 64.3331 112.436 64.2784 112.095 64.2784C111.627 64.2784 111.238 64.3861 110.926 64.6016C110.618 64.8137 110.464 65.0838 110.464 65.4119C110.464 65.7036 110.57 65.9339 110.782 66.103C110.994 66.272 111.326 66.4129 111.777 66.5256L112.91 66.804C113.593 66.9697 114.102 67.2232 114.436 67.5646C114.771 67.9027 114.938 68.3385 114.938 68.8722C114.938 69.3097 114.812 69.7008 114.561 70.0455C114.312 70.3902 113.964 70.6619 113.517 70.8608C113.069 71.0597 112.549 71.1591 111.955 71.1591C111.177 71.1591 110.532 70.9901 110.022 70.652C109.511 70.3139 109.188 69.8201 109.052 69.1705L110.166 68.892C110.272 69.303 110.472 69.6113 110.767 69.8168C111.066 70.0223 111.455 70.125 111.936 70.125C112.482 70.125 112.917 70.009 113.238 69.777C113.563 69.5417 113.725 69.2599 113.725 68.9318C113.725 68.6667 113.633 68.4446 113.447 68.2656C113.261 68.0833 112.976 67.9474 112.592 67.858L111.319 67.5597C110.62 67.3939 110.106 67.1371 109.778 66.7891C109.453 66.4377 109.291 65.9986 109.291 65.4716C109.291 65.0407 109.412 64.6596 109.654 64.3281C109.899 63.9967 110.232 63.7365 110.653 63.5476C111.077 63.3587 111.558 63.2642 112.095 63.2642C112.85 63.2642 113.444 63.4299 113.875 63.7614C114.309 64.0928 114.617 64.5303 114.799 65.0739Z" fill="black"/>
</svg>
