<svg width="100" height="100" viewBox="0 0 100 100" fill="none" xmlns="http://www.w3.org/2000/svg">
<path d="M10 54.134C10 64.7427 14.2143 74.9168 21.7157 82.4183C29.2172 89.9198 39.3913 94.134 50 94.134C60.6087 94.134 70.7828 89.9198 78.2843 82.4183C85.7857 74.9168 90 64.7427 90 54.134C90 43.5254 85.7857 33.3512 78.2843 25.8498C70.7828 18.3483 60.6087 14.134 50 14.134C39.3913 14.134 29.2172 18.3483 21.7157 25.8498C14.2143 33.3512 10 43.5254 10 54.134Z" fill="#DAEDF7" stroke="#DAEDF7" stroke-linecap="round" stroke-linejoin="round"/>
<path opacity="0.15" d="M32.36 87.3439C32.36 87.7826 34.2185 88.2033 37.5266 88.5135C40.8348 88.8237 45.3216 88.9979 50 88.9979C54.6784 88.9979 59.1652 88.8237 62.4733 88.5135C65.7815 88.2033 67.64 87.7826 67.64 87.3439C67.64 86.9053 65.7815 86.4846 62.4733 86.1744C59.1652 85.8642 54.6784 85.6899 50 85.6899C45.3216 85.6899 40.8348 85.8642 37.5266 86.1744C34.2185 86.4846 32.36 86.9053 32.36 87.3439Z" fill="#45413C"/>
<path d="M47.8 52.064L37.446 45.855C37.2412 45.7316 37.0017 45.6784 36.7639 45.7033C36.5261 45.7282 36.3028 45.8299 36.128 45.993C33.576 48.366 24.502 58.945 28.888 86.345C28.9251 86.5622 28.8775 86.7854 28.755 86.9685C28.6325 87.1517 28.4444 87.2809 28.2295 87.3296C28.0146 87.3783 27.7893 87.3428 27.5998 87.2303C27.4103 87.1178 27.2712 86.937 27.211 86.725C25.902 82.258 18.629 54.761 33.356 40.777C33.9506 40.2122 34.7339 39.8884 35.5539 39.8686C36.3738 39.8489 37.1718 40.1345 37.793 40.67L47.793 49.308L47.8 52.064Z" fill="#ADC4D9"/>
<path d="M42.027 48.6L47.795 52.06V49.308L39.5 42.146C40.241 44.022 41.078 46.159 42.027 48.6Z" fill="#ADC4D9"/>
<path d="M47.8 52.064L37.446 45.855C37.2412 45.7316 37.0017 45.6784 36.7639 45.7033C36.5261 45.7282 36.3028 45.8299 36.128 45.993C33.576 48.366 24.502 58.945 28.888 86.345C28.9251 86.5622 28.8775 86.7854 28.755 86.9685C28.6325 87.1517 28.4444 87.2809 28.2295 87.3296C28.0146 87.3783 27.7893 87.3428 27.5998 87.2303C27.4103 87.1178 27.2712 86.937 27.211 86.725C25.902 82.258 18.629 54.761 33.356 40.777C33.9506 40.2122 34.7339 39.8884 35.5539 39.8686C36.3738 39.8489 37.1718 40.1345 37.793 40.67L47.793 49.308L47.8 52.064Z" stroke="#45413C" stroke-linecap="round" stroke-linejoin="round"/>
<path d="M52.205 52.064L62.554 45.855C62.7588 45.7316 62.9982 45.6784 63.2361 45.7033C63.4739 45.7282 63.6971 45.8299 63.872 45.993C66.424 48.366 75.498 58.945 71.112 86.345C71.0749 86.5622 71.1225 86.7854 71.245 86.9685C71.3675 87.1517 71.5555 87.2809 71.7704 87.3296C71.9853 87.3783 72.2107 87.3428 72.4002 87.2303C72.5896 87.1178 72.7288 86.937 72.789 86.725C74.098 82.258 81.371 54.761 66.644 40.777C66.0493 40.2122 65.266 39.8884 64.4461 39.8686C63.6261 39.8489 62.8281 40.1345 62.207 40.67L52.207 49.308L52.205 52.064Z" fill="#ADC4D9"/>
<path d="M57.973 48.6L52.205 52.06V49.308L60.5 42.146C59.759 44.022 58.922 46.159 57.973 48.6Z" fill="#ADC4D9"/>
<path d="M52.205 52.064L62.554 45.855C62.7588 45.7316 62.9982 45.6784 63.2361 45.7033C63.4739 45.7282 63.6971 45.8299 63.872 45.993C66.424 48.366 75.498 58.945 71.112 86.345C71.0749 86.5622 71.1225 86.7854 71.245 86.9685C71.3675 87.1517 71.5555 87.2809 71.7704 87.3296C71.9853 87.3783 72.2107 87.3428 72.4002 87.2303C72.5896 87.1178 72.7288 86.937 72.789 86.725C74.098 82.258 81.371 54.761 66.644 40.777C66.0493 40.2122 65.266 39.8884 64.4461 39.8686C63.6261 39.8489 62.8281 40.1345 62.207 40.67L52.207 49.308L52.205 52.064Z" stroke="#45413C" stroke-linecap="round" stroke-linejoin="round"/>
<path d="M55.616 86.357C55.588 86.6287 55.4598 86.8803 55.2565 87.0627C55.0531 87.2452 54.7892 87.3454 54.516 87.344H45.48C45.2068 87.3454 44.9429 87.2452 44.7396 87.0627C44.5362 86.8803 44.4081 86.6287 44.38 86.357L42.411 67.615C42.3944 67.4609 42.4105 67.3051 42.4583 67.1577C42.5061 67.0103 42.5845 66.8747 42.6883 66.7597C42.7922 66.6447 42.9191 66.553 43.0609 66.4905C43.2027 66.4279 43.3561 66.3961 43.511 66.397H56.493C56.648 66.3961 56.8013 66.4279 56.9431 66.4905C57.0849 66.553 57.2119 66.6447 57.3157 66.7597C57.4196 66.8747 57.498 67.0103 57.5457 67.1577C57.5935 67.3051 57.6096 67.4609 57.593 67.615L55.616 86.357Z" stroke="#45413C" stroke-linecap="round" stroke-linejoin="round"/>
<path d="M50 12.374C46.4919 12.374 43.1274 13.7673 40.6464 16.2476C38.1654 18.7278 36.7711 22.0919 36.77 25.6C36.77 29.717 37.555 29.492 48.745 58.912C48.8415 59.1668 49.0133 59.3862 49.2374 59.541C49.4616 59.6958 49.7276 59.7787 50 59.7787C50.2725 59.7787 50.5384 59.6958 50.7626 59.541C50.9868 59.3862 51.1585 59.1668 51.255 58.912C62.445 29.5 63.23 29.721 63.23 25.6C63.229 22.0919 61.8346 18.7278 59.3536 16.2476C56.8726 13.7673 53.5081 12.374 50 12.374Z" fill="#ADC4D9"/>
<path d="M50 44.347V30.106" stroke="#8CA4B8" stroke-linecap="round" stroke-linejoin="round"/>
<path d="M53.307 44.531L55.696 30.566" stroke="#8CA4B8" stroke-linecap="round" stroke-linejoin="round"/>
<path d="M46.692 44.531L44.304 30.566" stroke="#8CA4B8" stroke-linecap="round" stroke-linejoin="round"/>
<path d="M50 12.374C47.7853 12.373 45.6058 12.9284 43.6616 13.9891C41.7174 15.0499 40.0708 16.5821 38.873 18.445C41.4415 22.2204 45.0559 25.1641 49.273 26.915C53.4848 28.9056 58.1918 29.604 62.8 28.922C63.1176 27.8443 63.2627 26.7231 63.23 25.6C63.229 22.0919 61.8346 18.7278 59.3537 16.2476C56.8727 13.7673 53.5082 12.374 50 12.374Z" fill="#ADC4D9"/>
<path d="M50 12.374C46.4919 12.374 43.1274 13.7673 40.6464 16.2476C38.1654 18.7278 36.7711 22.0919 36.77 25.6C36.77 29.717 37.555 29.492 48.745 58.912C48.8415 59.1668 49.0133 59.3862 49.2374 59.541C49.4616 59.6958 49.7276 59.7787 50 59.7787C50.2725 59.7787 50.5384 59.6958 50.7626 59.541C50.9868 59.3862 51.1585 59.1668 51.255 58.912C62.445 29.5 63.23 29.721 63.23 25.6C63.229 22.0919 61.8346 18.7278 59.3536 16.2476C56.8726 13.7673 53.5081 12.374 50 12.374Z" stroke="#45413C" stroke-linecap="round" stroke-linejoin="round"/>
<path d="M60.3919 10.852C60.1044 10.6115 59.8828 10.3016 59.7483 9.95168C59.6137 9.60174 59.5706 9.22329 59.6229 8.85204C59.8029 7.56104 59.5369 6.31404 58.7449 5.96204C57.9529 5.61004 56.8449 6.24504 56.0099 7.24304C55.769 7.52989 55.4589 7.75064 55.109 7.88448C54.7591 8.01832 54.3808 8.06085 54.0099 8.00804C51.2829 7.62499 48.5053 8.13986 46.0967 9.47485C43.6881 10.8099 41.7794 12.8925 40.6589 15.408L40.2409 16.347C40.1606 16.5263 40.1298 16.7238 40.1516 16.919C40.1734 17.1141 40.2471 17.2999 40.3649 17.457C42.9651 20.7844 46.3535 23.4112 50.2239 25.1C54.0682 26.8473 58.2874 27.6086 62.4999 27.315C62.6953 27.2967 62.8822 27.2269 63.0417 27.1127C63.2012 26.9985 63.3276 26.844 63.4079 26.665L63.8259 25.726C64.9455 23.21 65.216 20.398 64.5965 17.7147C63.977 15.0314 62.5012 12.6226 60.3919 10.852Z" fill="#FFE500"/>
<path d="M60.3919 10.852C60.1044 10.6115 59.8828 10.3016 59.7483 9.95168C59.6137 9.60174 59.5706 9.22329 59.6229 8.85204C59.8029 7.56104 59.5369 6.31404 58.7449 5.96204C57.9529 5.61004 56.8449 6.24504 56.0099 7.24304C55.769 7.52989 55.4589 7.75064 55.109 7.88448C54.7591 8.01832 54.3808 8.06085 54.0099 8.00804C51.2829 7.62499 48.5053 8.13986 46.0967 9.47485C43.6881 10.8099 41.7794 12.8925 40.6589 15.408L40.2409 16.347C40.1606 16.5263 40.1298 16.7238 40.1516 16.919C40.1734 17.1141 40.2471 17.2999 40.3649 17.457C42.9651 20.7844 46.3535 23.4112 50.2239 25.1C54.0682 26.8473 58.2874 27.6086 62.4999 27.315C62.6953 27.2967 62.8822 27.2269 63.0417 27.1127C63.2012 26.9985 63.3276 26.844 63.4079 26.665L63.8259 25.726C64.9455 23.21 65.216 20.398 64.5965 17.7147C63.977 15.0314 62.5012 12.6226 60.3919 10.852Z" fill="#FFE500"/>
<path d="M41.629 18.755L42.047 17.816C43.1675 15.3004 45.0762 13.2178 47.4848 11.8828C49.8934 10.5478 52.671 10.033 55.398 10.416C55.769 10.4694 56.1474 10.4272 56.4974 10.2933C56.8474 10.1594 57.1574 9.93832 57.398 9.65102C57.6627 9.2773 58.0014 8.96203 58.3932 8.72479C58.7849 8.48756 59.2212 8.33344 59.675 8.27202C59.711 7.20502 59.418 6.26402 58.746 5.96402C57.954 5.61202 56.846 6.24802 56.011 7.24602C55.7701 7.53287 55.46 7.75362 55.1101 7.88746C54.7602 8.0213 54.3819 8.06383 54.011 8.01102C51.284 7.62797 48.5063 8.14284 46.0978 9.47784C43.6892 10.8128 41.7805 12.8954 40.66 15.411L40.242 16.35C40.1617 16.5293 40.1309 16.7267 40.1527 16.9219C40.1745 17.1171 40.2482 17.3029 40.366 17.46C40.629 17.811 41.03 18.315 41.574 18.912C41.5885 18.8584 41.6069 18.8059 41.629 18.755Z" fill="#FFF48C"/>
<path d="M60.3919 10.852C60.1044 10.6115 59.8828 10.3016 59.7483 9.95168C59.6137 9.60174 59.5706 9.22329 59.6229 8.85204C59.8029 7.56104 59.5369 6.31404 58.7449 5.96204C57.9529 5.61004 56.8449 6.24504 56.0099 7.24304C55.769 7.52989 55.4589 7.75064 55.109 7.88448C54.7591 8.01832 54.3808 8.06085 54.0099 8.00804C51.2829 7.62499 48.5053 8.13986 46.0967 9.47485C43.6881 10.8099 41.7794 12.8925 40.6589 15.408L40.2409 16.347C40.1606 16.5263 40.1298 16.7238 40.1516 16.919C40.1734 17.1141 40.2471 17.2999 40.3649 17.457C42.9651 20.7844 46.3535 23.4112 50.2239 25.1C54.0682 26.8473 58.2874 27.6086 62.4999 27.315C62.6953 27.2967 62.8822 27.2269 63.0417 27.1127C63.2012 26.9985 63.3276 26.844 63.4079 26.665L63.8259 25.726C64.9455 23.21 65.216 20.398 64.5965 17.7147C63.977 15.0314 62.5012 12.6226 60.3919 10.852Z" stroke="#45413C" stroke-linecap="round" stroke-linejoin="round"/>
<path d="M44.384 86.3571C44.4121 86.6288 44.5402 86.8804 44.7436 87.0628C44.9469 87.2452 45.2108 87.3455 45.484 87.3441H54.524C54.7972 87.3455 55.0611 87.2452 55.2645 87.0628C55.4678 86.8804 55.5959 86.6288 55.624 86.3571L57.203 71.3571C56.9214 71.2635 56.6212 71.2395 56.3283 71.2872C56.0354 71.3349 55.7584 71.4529 55.521 71.6311C55.2034 71.8685 54.8175 71.9968 54.421 71.9968C54.0245 71.9968 53.6386 71.8685 53.321 71.6311C53.0034 71.3936 52.6175 71.2653 52.221 71.2653C51.8245 71.2653 51.4386 71.3936 51.121 71.6311C50.8034 71.8685 50.4175 71.9968 50.021 71.9968C49.6245 71.9968 49.2386 71.8685 48.921 71.6311C48.603 71.3924 48.2161 71.2634 47.8185 71.2634C47.4209 71.2634 47.034 71.3924 46.716 71.6311C46.3984 71.8685 46.0125 71.9968 45.616 71.9968C45.2195 71.9968 44.8336 71.8685 44.516 71.6311C44.2784 71.4529 44.0013 71.3349 43.7082 71.2872C43.4151 71.2395 43.1148 71.2635 42.833 71.3571L44.384 86.3571Z" fill="#FFF48C"/>
<path d="M44.488 74.482C44.8055 74.7194 45.1914 74.8477 45.588 74.8477C45.9845 74.8477 46.3704 74.7194 46.688 74.482C47.006 74.2434 47.3929 74.1144 47.7905 74.1144C48.1881 74.1144 48.5749 74.2434 48.893 74.482C49.2105 74.7194 49.5964 74.8477 49.993 74.8477C50.3895 74.8477 50.7754 74.7194 51.093 74.482C51.4105 74.2445 51.7964 74.1162 52.193 74.1162C52.5895 74.1162 52.9754 74.2445 53.293 74.482C53.6105 74.7194 53.9964 74.8477 54.393 74.8477C54.7895 74.8477 55.1754 74.7194 55.493 74.482C55.6897 74.3343 55.9142 74.2277 56.153 74.1686C56.3918 74.1095 56.64 74.0991 56.883 74.138L57.2 71.36C56.9183 71.2664 56.6182 71.2424 56.3253 71.2901C56.0323 71.3379 55.7553 71.4558 55.518 71.634C55.2004 71.8714 54.8145 71.9997 54.418 71.9997C54.0214 71.9997 53.6355 71.8714 53.318 71.634C53.0004 71.3965 52.6145 71.2682 52.218 71.2682C51.8214 71.2682 51.4355 71.3965 51.118 71.634C50.8004 71.8714 50.4145 71.9997 50.018 71.9997C49.6214 71.9997 49.2355 71.8714 48.918 71.634C48.5999 71.3954 48.2131 71.2664 47.8155 71.2664C47.4179 71.2664 47.031 71.3954 46.713 71.634C46.3954 71.8714 46.0095 71.9997 45.613 71.9997C45.2164 71.9997 44.8305 71.8714 44.513 71.634C44.2754 71.4558 43.9982 71.3378 43.7051 71.2901C43.412 71.2424 43.1118 71.2664 42.83 71.36L43.122 74.138C43.3611 74.1026 43.6048 74.1147 43.8393 74.1738C44.0737 74.2328 44.2941 74.3375 44.488 74.482Z" fill="#FFFACF"/>
<path d="M44.384 86.3571C44.4121 86.6288 44.5402 86.8804 44.7436 87.0628C44.9469 87.2452 45.2108 87.3455 45.484 87.3441H54.524C54.7972 87.3455 55.0611 87.2452 55.2645 87.0628C55.4678 86.8804 55.5959 86.6288 55.624 86.3571L57.203 71.3571C56.9214 71.2635 56.6212 71.2395 56.3283 71.2872C56.0354 71.3349 55.7584 71.4529 55.521 71.6311C55.2034 71.8685 54.8175 71.9968 54.421 71.9968C54.0245 71.9968 53.6386 71.8685 53.321 71.6311C53.0034 71.3936 52.6175 71.2653 52.221 71.2653C51.8245 71.2653 51.4386 71.3936 51.121 71.6311C50.8034 71.8685 50.4175 71.9968 50.021 71.9968C49.6245 71.9968 49.2386 71.8685 48.921 71.6311C48.603 71.3924 48.2161 71.2634 47.8185 71.2634C47.4209 71.2634 47.034 71.3924 46.716 71.6311C46.3984 71.8685 46.0125 71.9968 45.616 71.9968C45.2195 71.9968 44.8336 71.8685 44.516 71.6311C44.2784 71.4529 44.0013 71.3349 43.7082 71.2872C43.4151 71.2395 43.1148 71.2635 42.833 71.3571L44.384 86.3571Z" stroke="#45413C" stroke-linecap="round" stroke-linejoin="round"/>
</svg>
