<svg width="100" height="100" viewBox="0 0 100 100" fill="none" xmlns="http://www.w3.org/2000/svg">
<path d="M10 50C10 60.6087 14.2143 70.7828 21.7157 78.2843C29.2172 85.7857 39.3913 90 50 90C60.6087 90 70.7828 85.7857 78.2843 78.2843C85.7857 70.7828 90 60.6087 90 50C90 39.3913 85.7857 29.2172 78.2843 21.7157C70.7828 14.2143 60.6087 10 50 10C39.3913 10 29.2172 14.2143 21.7157 21.7157C14.2143 29.2172 10 39.3913 10 50Z" fill="#DAEDF7" stroke="#DAEDF7"/>
<path d="M35.537 31.2C35.537 33.1493 37.7495 35.0188 41.6877 36.3972C45.626 37.7756 50.9674 38.55 56.537 38.55C62.1065 38.55 67.448 37.7756 71.3862 36.3972C75.3245 35.0188 77.537 33.1493 77.537 31.2C77.537 30.2348 76.9938 29.279 75.9385 28.3873C74.8831 27.4955 73.3363 26.6853 71.3862 26.0027C69.4362 25.3202 67.1212 24.7788 64.5733 24.4095C62.0255 24.0401 59.2947 23.85 56.537 23.85C53.7792 23.85 51.0485 24.0401 48.5006 24.4095C45.9528 24.7788 43.6378 25.3202 41.6877 26.0027C39.7377 26.6853 38.1909 27.4955 37.1355 28.3873C36.0802 29.279 35.537 30.2348 35.537 31.2Z" fill="#B8ECFF"/>
<path d="M67.087 24.8429C63.6117 24.1644 60.0778 23.8318 56.537 23.8499C44.937 23.8499 35.537 27.1409 35.537 31.1999C35.537 34.8999 43.328 37.9529 53.474 38.4719L67.087 24.8429Z" fill="#E5F8FF"/>
<path d="M38.687 37.5C38.687 38.8924 40.5676 40.2277 43.9152 41.2123C47.2627 42.1969 51.8029 42.75 56.537 42.75C61.2711 42.75 65.8113 42.1969 69.1589 41.2123C72.5064 40.2277 74.387 38.8924 74.387 37.5C74.387 36.1076 72.5064 34.7723 69.1589 33.7877C65.8113 32.8031 61.2711 32.25 56.537 32.25C51.8029 32.25 47.2627 32.8031 43.9152 33.7877C40.5676 34.7723 38.687 36.1076 38.687 37.5Z" fill="white"/>
<path d="M38.687 37.5C38.687 38.8924 40.5676 40.2277 43.9152 41.2123C47.2627 42.1969 51.8029 42.75 56.537 42.75C61.2711 42.75 65.8113 42.1969 69.1589 41.2123C72.5064 40.2277 74.387 38.8924 74.387 37.5C74.387 36.1076 72.5064 34.7723 69.1589 33.7877C65.8113 32.8031 61.2711 32.25 56.537 32.25C51.8029 32.25 47.2627 32.8031 43.9152 33.7877C40.5676 34.7723 38.687 36.1076 38.687 37.5Z" stroke="#45413C" stroke-linecap="round" stroke-linejoin="round"/>
<path d="M56.537 38.5499C44.937 38.5499 35.537 35.259 35.537 31.2V63.75C35.537 72.15 44.937 76.3499 56.537 76.3499C68.137 76.3499 77.537 72.15 77.537 63.75V31.2C77.537 35.259 68.135 38.5499 56.537 38.5499Z" fill="#B8ECFF"/>
<path d="M35.537 31.2C35.537 33.1493 37.7495 35.0188 41.6877 36.3972C45.626 37.7756 50.9674 38.55 56.537 38.55C62.1065 38.55 67.448 37.7756 71.3862 36.3972C75.3245 35.0188 77.537 33.1493 77.537 31.2C77.537 30.2348 76.9938 29.279 75.9385 28.3873C74.8831 27.4955 73.3363 26.6853 71.3862 26.0027C69.4362 25.3202 67.1212 24.7788 64.5733 24.4095C62.0255 24.0401 59.2947 23.85 56.537 23.85C53.7792 23.85 51.0485 24.0401 48.5006 24.4095C45.9528 24.7788 43.6378 25.3202 41.6877 26.0027C39.7377 26.6853 38.1909 27.4955 37.1355 28.3873C36.0802 29.279 35.537 30.2348 35.537 31.2Z" stroke="#45413C" stroke-linecap="round" stroke-linejoin="round"/>
<path d="M55.505 38.541C44.387 38.353 35.537 35.141 35.537 31.2V58.5L55.505 38.541Z" fill="#E5F8FF"/>
<path d="M56.537 38.5499C44.937 38.5499 35.537 35.259 35.537 31.2V63.75C35.537 72.15 44.937 76.3499 56.537 76.3499C68.137 76.3499 77.537 72.15 77.537 63.75V31.2C77.537 35.259 68.135 38.5499 56.537 38.5499Z" stroke="#45413C" stroke-linecap="round" stroke-linejoin="round"/>
<path d="M56.537 44.055C48.652 44.055 41.961 42.178 39.599 39.573C39.5286 39.4939 39.4358 39.438 39.3329 39.4129C39.23 39.3877 39.1219 39.3945 39.0229 39.4323C38.924 39.47 38.8388 39.537 38.7788 39.6243C38.7188 39.7116 38.6868 39.8151 38.687 39.921V60.912C38.687 68.404 46.679 72.15 56.537 72.15C66.395 72.15 74.387 68.404 74.387 60.912V39.921C74.3875 39.8151 74.3557 39.7115 74.2959 39.6241C74.236 39.5367 74.1509 39.4696 74.0519 39.4318C73.953 39.394 73.8448 39.3872 73.7419 39.4125C73.639 39.4377 73.5463 39.4937 73.476 39.573C71.114 42.178 64.423 44.055 56.537 44.055Z" fill="#4ACFFF" stroke="#4ACFFF" stroke-linecap="round" stroke-linejoin="round"/>
<path d="M50.393 43.651C45.315 42.967 41.313 41.464 39.593 39.573C39.5228 39.4937 39.43 39.4377 39.3271 39.4125C39.2242 39.3872 39.1161 39.394 39.0171 39.4318C38.9181 39.4696 38.833 39.5367 38.7732 39.6241C38.7133 39.7115 38.6815 39.8151 38.682 39.921V55.352L50.393 43.651Z" fill="#B8ECFF"/>
<path d="M56.537 44.055C48.652 44.055 41.961 42.178 39.599 39.573C39.5286 39.4939 39.4358 39.438 39.3329 39.4129C39.23 39.3877 39.1219 39.3945 39.0229 39.4323C38.924 39.47 38.8388 39.537 38.7788 39.6243C38.7188 39.7116 38.6868 39.8151 38.687 39.921V60.912C38.687 68.404 46.679 72.15 56.537 72.15C66.395 72.15 74.387 68.404 74.387 60.912V39.921C74.3875 39.8151 74.3557 39.7115 74.2959 39.6241C74.236 39.5367 74.1509 39.4696 74.0519 39.4318C73.953 39.394 73.8448 39.3872 73.7419 39.4125C73.639 39.4377 73.5463 39.4937 73.476 39.573C71.114 42.178 64.423 44.055 56.537 44.055Z" stroke="#4ACFFF" stroke-linecap="round" stroke-linejoin="round"/>
<path d="M57.587 34.35C57.587 34.35 53.387 33.3 53.387 28.05C53.387 22.8 58.637 19.65 57.587 13.35C63.887 21.75 60.446 24.259 58.637 28.05C57.131 31.207 57.324 33.749 57.587 34.35Z" fill="#FFE500"/>
<path d="M59.387 16.018C60.437 22.318 55.009 25.95 55.009 31.2C55.0078 31.7618 55.0631 32.3222 55.174 32.873C54.5671 32.2306 54.096 31.4723 53.7889 30.6436C53.4819 29.8149 53.3452 28.9328 53.387 28.05C53.387 22.8 58.637 19.65 57.587 13.35C58.2358 14.2054 58.8367 15.0961 59.387 16.018Z" fill="#FFF48C"/>
<path d="M57.587 34.35C57.587 34.35 53.387 33.3 53.387 28.05C53.387 22.8 58.637 19.65 57.587 13.35C63.887 21.75 60.446 24.259 58.637 28.05C57.131 31.207 57.324 33.749 57.587 34.35Z" stroke="#45413C" stroke-linecap="round" stroke-linejoin="round"/>
<path opacity="0.15" d="M46.226 81.075C46.226 80.206 41.526 79.5 35.726 79.5C29.926 79.5 25.226 80.206 25.226 81.075C25.226 81.944 29.926 82.65 35.726 82.65C41.526 82.65 46.226 81.945 46.226 81.075Z" fill="#45413C"/>
<path d="M31.649 66.9471C31.649 66.9471 26.912 62.1411 19.977 66.9101C13.585 71.3101 12.967 69.8981 12.967 69.8981C12.967 69.8981 18.172 78.708 26.148 75.642C34.124 72.576 31.649 66.9471 31.649 66.9471Z" fill="#6DD627"/>
<path d="M31.54 71.234C29.933 69.675 26.673 67.86 20.9 69.7C18.6547 70.5298 16.3067 71.0496 13.921 71.245C13.5769 70.8161 13.2593 70.3666 12.97 69.899C12.97 69.899 13.588 71.307 19.98 66.911C26.915 62.142 31.652 66.948 31.652 66.948C32.1705 68.3374 32.1303 69.8736 31.54 71.234Z" fill="#9CEB60"/>
<path d="M31.649 66.9471C31.649 66.9471 26.912 62.1411 19.977 66.9101C13.585 71.3101 12.967 69.8981 12.967 69.8981C12.967 69.8981 18.172 78.708 26.148 75.642C34.124 72.576 31.649 66.9471 31.649 66.9471Z" stroke="#45413C" stroke-linecap="round" stroke-linejoin="round"/>
<path d="M38.215 65.853C38.215 65.853 39.935 57.831 28.296 53.953C19.37 50.976 17.386 48 17.386 48C17.386 48 12.427 61.886 23.337 67.837C34.247 73.788 38.215 65.853 38.215 65.853Z" fill="#6DD627"/>
<path d="M28.3 53.951C19.37 50.976 17.386 48 17.386 48C17.1036 48.8558 16.8781 49.7294 16.711 50.615C17.43 51.594 19.837 54.249 26.551 57.435C34.558 61.235 35.381 66.335 35.222 68.876C36.4674 68.148 37.4995 67.1055 38.215 65.853C38.215 65.853 39.935 57.831 28.3 53.951Z" fill="#9CEB60"/>
<path d="M38.215 65.853C38.215 65.853 39.935 57.831 28.296 53.953C19.37 50.976 17.386 48 17.386 48C17.386 48 12.427 61.886 23.337 67.837C34.247 73.788 38.215 65.853 38.215 65.853Z" stroke="#45413C" stroke-linecap="round" stroke-linejoin="round"/>
<path d="M28.249 66.4491C29.0259 66.8614 29.8532 67.1706 30.71 67.3691C28.9317 68.3798 27.5014 69.9058 26.6079 71.7459C25.7144 73.5859 25.3996 75.6535 25.705 77.6761C25.7297 77.8342 25.8027 77.9808 25.9141 78.0958C26.0255 78.2107 26.1697 78.2884 26.327 78.3181C28.3435 78.6861 30.4242 78.4339 32.2944 77.5948C34.1645 76.7556 35.7363 75.369 36.802 73.6181C37.2108 75.6268 38.2196 77.4643 39.6949 78.8875C41.1703 80.3107 43.0428 81.2528 45.065 81.5891C45.2227 81.6141 45.3843 81.5896 45.5275 81.5191C45.6708 81.4485 45.7887 81.3353 45.865 81.1951C46.8378 79.3927 47.2413 77.3377 47.0225 75.3013C46.8036 73.2649 45.9726 71.3426 44.639 69.7881C46.6624 70.001 48.7031 69.5998 50.4952 68.6366C52.2874 67.6735 53.748 66.1931 54.687 64.3881C54.76 64.2455 54.7871 64.0837 54.7646 63.9251C54.742 63.7664 54.6709 63.6187 54.561 63.5021C53.1429 62.0158 51.3069 60.9953 49.296 60.5756C47.2851 60.156 45.1941 60.357 43.3 61.1521C44.1723 59.2806 44.452 57.1872 44.1017 55.1524C43.7514 53.1175 42.7878 51.2382 41.34 49.7661C41.2271 49.6525 41.0817 49.5768 40.9239 49.5492C40.7662 49.5216 40.6038 49.5436 40.459 49.6121C38.598 50.5065 37.0545 51.9478 36.035 53.7432C35.0155 55.5387 34.5686 57.6027 34.754 59.6591C33.2417 58.2694 31.343 57.3717 29.3094 57.0848C27.2757 56.7978 25.2028 57.1351 23.365 58.0521C23.2218 58.1243 23.1046 58.2392 23.0295 58.3809C22.9545 58.5226 22.9253 58.6841 22.946 58.8431C23.1608 60.4414 23.754 61.9654 24.6764 63.2883C25.5987 64.6112 26.8235 65.6948 28.249 66.4491Z" fill="#FFCCDD"/>
<path d="M28.249 66.4491C29.0259 66.8614 29.8532 67.1706 30.71 67.3691C28.9317 68.3798 27.5014 69.9058 26.6079 71.7459C25.7144 73.5859 25.3996 75.6535 25.705 77.6761C25.7297 77.8342 25.8027 77.9808 25.9141 78.0958C26.0255 78.2107 26.1697 78.2884 26.327 78.3181C28.3435 78.6861 30.4242 78.4339 32.2944 77.5948C34.1645 76.7556 35.7363 75.369 36.802 73.6181C37.2108 75.6268 38.2196 77.4643 39.6949 78.8875C41.1703 80.3107 43.0428 81.2528 45.065 81.5891C45.2227 81.6141 45.3843 81.5896 45.5275 81.5191C45.6708 81.4485 45.7887 81.3353 45.865 81.1951C46.8378 79.3927 47.2413 77.3377 47.0225 75.3013C46.8036 73.2649 45.9726 71.3426 44.639 69.7881C46.6624 70.001 48.7031 69.5998 50.4952 68.6366C52.2874 67.6735 53.748 66.1931 54.687 64.3881C54.76 64.2455 54.7871 64.0837 54.7646 63.9251C54.742 63.7664 54.6709 63.6187 54.561 63.5021C53.1429 62.0158 51.3069 60.9953 49.296 60.5756C47.2851 60.156 45.1941 60.357 43.3 61.1521C44.1723 59.2806 44.452 57.1872 44.1017 55.1524C43.7514 53.1175 42.7878 51.2382 41.34 49.7661C41.2271 49.6525 41.0817 49.5768 40.9239 49.5492C40.7662 49.5216 40.6038 49.5436 40.459 49.6121C38.598 50.5065 37.0545 51.9478 36.035 53.7432C35.0155 55.5387 34.5686 57.6027 34.754 59.6591C33.2417 58.2694 31.343 57.3717 29.3094 57.0848C27.2757 56.7978 25.2028 57.1351 23.365 58.0521C23.2218 58.1243 23.1046 58.2392 23.0295 58.3809C22.9545 58.5226 22.9253 58.6841 22.946 58.8431C23.1608 60.4414 23.754 61.9654 24.6764 63.2883C25.5987 64.6112 26.8235 65.6948 28.249 66.4491ZM30.141 66.4861C28.9292 65.844 27.8988 64.907 27.1448 63.7615C26.3908 62.616 25.9376 61.299 25.827 59.9321C27.3292 59.08 29.063 58.7264 30.779 58.9223C32.4949 59.1182 34.1044 59.8534 35.376 61.0221C35.2204 59.2932 35.6202 57.5597 36.5172 56.0736C37.4142 54.5874 38.7618 53.426 40.364 52.7581C41.6452 53.9293 42.5196 55.4785 42.86 57.1807C43.2005 58.8828 42.9892 60.6492 42.257 62.2231C43.8493 61.5546 45.6126 61.4084 47.2932 61.8055C48.9739 62.2027 50.4853 63.1226 51.61 64.4331C50.9028 65.9922 49.7227 67.2892 48.2371 68.1399C46.7514 68.9907 45.0356 69.3522 43.333 69.1731C44.4551 70.4803 45.1343 72.1094 45.273 73.8266C45.4117 75.5437 45.0028 77.2607 44.105 78.7311C42.3916 78.5391 40.7833 77.8088 39.5111 76.6452C38.239 75.4816 37.3686 73.9446 37.025 72.2551C36.1289 73.728 34.7891 74.879 33.1979 75.5427C31.6067 76.2064 29.8461 76.3487 28.169 75.9491C27.8231 74.264 28.0193 72.5127 28.7293 70.9458C29.4393 69.379 30.6269 68.0769 32.122 67.2261C31.4324 67.0663 30.7665 66.8176 30.141 66.4861Z" fill="#FFE5EE"/>
<path d="M28.249 66.4491C29.0259 66.8614 29.8532 67.1706 30.71 67.3691C28.9317 68.3798 27.5014 69.9058 26.6079 71.7459C25.7144 73.5859 25.3996 75.6535 25.705 77.6761C25.7297 77.8342 25.8027 77.9808 25.9141 78.0958C26.0255 78.2107 26.1697 78.2884 26.327 78.3181C28.3435 78.6861 30.4242 78.4339 32.2944 77.5948C34.1645 76.7556 35.7363 75.369 36.802 73.6181C37.2108 75.6268 38.2196 77.4643 39.6949 78.8875C41.1703 80.3107 43.0428 81.2528 45.065 81.5891C45.2227 81.6141 45.3843 81.5896 45.5275 81.5191C45.6708 81.4485 45.7887 81.3353 45.865 81.1951C46.8378 79.3927 47.2413 77.3377 47.0225 75.3013C46.8036 73.2649 45.9726 71.3426 44.639 69.7881C46.6624 70.001 48.7031 69.5998 50.4952 68.6366C52.2874 67.6735 53.748 66.1931 54.687 64.3881C54.76 64.2455 54.7871 64.0837 54.7646 63.9251C54.742 63.7664 54.6709 63.6187 54.561 63.5021C53.1429 62.0158 51.3069 60.9953 49.296 60.5756C47.2851 60.156 45.1941 60.357 43.3 61.1521C44.1723 59.2806 44.452 57.1872 44.1017 55.1524C43.7514 53.1175 42.7878 51.2382 41.34 49.7661C41.2271 49.6525 41.0817 49.5768 40.9239 49.5492C40.7662 49.5216 40.6038 49.5436 40.459 49.6121C38.598 50.5065 37.0545 51.9478 36.035 53.7432C35.0155 55.5387 34.5686 57.6027 34.754 59.6591C33.2417 58.2694 31.343 57.3717 29.3094 57.0848C27.2757 56.7978 25.2028 57.1351 23.365 58.0521C23.2218 58.1243 23.1046 58.2392 23.0295 58.3809C22.9545 58.5226 22.9253 58.6841 22.946 58.8431C23.1608 60.4414 23.754 61.9654 24.6764 63.2883C25.5987 64.6112 26.8235 65.6948 28.249 66.4491Z" stroke="#45413C" stroke-linecap="round" stroke-linejoin="round"/>
<path d="M30.71 67.3689C33.1798 67.5973 35.669 67.2573 37.987 66.3749C37.987 66.3749 36.055 64.9469 34.754 59.6589" stroke="#45413C" stroke-linecap="round" stroke-linejoin="round"/>
<path d="M44.642 69.789C42.7647 68.0823 40.4683 66.9042 37.987 66.375C38.2893 68.8534 37.8775 71.3667 36.8 73.619" stroke="#45413C" stroke-linecap="round" stroke-linejoin="round"/>
<path d="M43.3 61.1521C41.0035 62.2638 39.1356 64.0988 37.983 66.3751" stroke="#45413C" stroke-linecap="round" stroke-linejoin="round"/>
</svg>
