<svg width="88" height="86" viewBox="0 0 88 86" fill="none" xmlns="http://www.w3.org/2000/svg">
<path d="M1.25 41.75C1.25 52.3587 5.46427 62.5328 12.9657 70.0343C20.4672 77.5357 30.6413 81.75 41.25 81.75C51.8587 81.75 62.0328 77.5357 69.5343 70.0343C77.0357 62.5328 81.25 52.3587 81.25 41.75C81.25 31.1413 77.0357 20.9672 69.5343 13.4657C62.0328 5.96427 51.8587 1.75 41.25 1.75C30.6413 1.75 20.4672 5.96427 12.9657 13.4657C5.46427 20.9672 1.25 31.1413 1.25 41.75Z" fill="#DAEDF7" stroke="#DAEDF7"/>
<path d="M54.25 9.75H86.75V47.25H54.25V9.75Z" fill="#FFE500" stroke="#45413C" stroke-linecap="round" stroke-linejoin="round"/>
<path d="M57.25 12.75H83.75V44.25H57.25V12.75Z" fill="#00B8F0" stroke="#45413C" stroke-linecap="round" stroke-linejoin="round"/>
<path d="M61.25 22.25C61.25 23.5761 61.7768 24.8479 62.7145 25.7855C63.6521 26.7232 64.9239 27.25 66.25 27.25C67.5761 27.25 68.8479 26.7232 69.7855 25.7855C70.7232 24.8479 71.25 23.5761 71.25 22.25C71.25 20.9239 70.7232 19.6521 69.7855 18.7145C68.8479 17.7768 67.5761 17.25 66.25 17.25C64.9239 17.25 63.6521 17.7768 62.7145 18.7145C61.7768 19.6521 61.25 20.9239 61.25 22.25Z" fill="#FFAA54" stroke="#45413C"/>
<path d="M65.75 23.75H78.25V36.25H65.75V23.75Z" fill="#00C9D4" stroke="#45413C" stroke-linecap="round" stroke-linejoin="round"/>
<path d="M65.75 27.225C65.9161 27.2419 66.083 27.2503 66.25 27.25C67.3142 27.2503 68.3507 26.911 69.2088 26.2815C70.0669 25.652 70.7017 24.7652 71.021 23.75H67.75C67.2196 23.75 66.7109 23.9607 66.3358 24.3358C65.9607 24.7109 65.75 25.2196 65.75 25.75V27.225Z" fill="#9CEB60" stroke="#45413C"/>
<path d="M69.017 32.762L72.185 38.25C72.2728 38.4021 72.319 38.5745 72.319 38.75C72.319 38.9256 72.2728 39.098 72.185 39.25C72.0973 39.402 71.971 39.5283 71.819 39.6161C71.667 39.7038 71.4946 39.75 71.319 39.75H64.982C64.8065 39.75 64.6341 39.7038 64.482 39.6161C64.33 39.5283 64.2038 39.402 64.116 39.25C64.0283 39.098 63.9821 38.9256 63.9821 38.75C63.9821 38.5745 64.0283 38.4021 64.116 38.25L67.285 32.762C67.3728 32.61 67.499 32.4838 67.6511 32.396C67.8031 32.3083 67.9755 32.2621 68.151 32.2621C68.3266 32.2621 68.499 32.3083 68.651 32.396C68.803 32.4838 68.9293 32.61 69.017 32.762Z" fill="#FF6242" stroke="#45413C" stroke-linecap="round" stroke-linejoin="round"/>
<path d="M69.017 32.762C68.9292 32.61 68.803 32.4838 68.651 32.396C68.499 32.3083 68.3265 32.2621 68.151 32.2621C67.9755 32.2621 67.8031 32.3083 67.651 32.396C67.499 32.4838 67.3728 32.61 67.285 32.762L65.937 35.1C66.0986 35.4442 66.355 35.7353 66.6761 35.9389C66.9972 36.1426 67.3698 36.2505 67.75 36.25H71.031L69.017 32.762Z" fill="#FF87AF" stroke="#45413C" stroke-linecap="round" stroke-linejoin="round"/>
<path d="M50.75 81.956H45.75V56.869C45.75 56.5443 45.879 56.233 46.1085 56.0035C46.338 55.7739 46.6494 55.645 46.974 55.645H49.421C49.7568 55.6413 50.0812 55.7659 50.3282 55.9934C50.5752 56.2209 50.7261 56.5341 50.75 56.869V81.956Z" fill="#FFE500"/>
<path d="M49.421 55.645H46.974C46.6494 55.645 46.338 55.7739 46.1085 56.0035C45.879 56.233 45.75 56.5443 45.75 56.869V59.474C45.75 59.1493 45.879 58.838 46.1085 58.6085C46.338 58.3789 46.6494 58.25 46.974 58.25H49.421C49.7568 58.2463 50.0812 58.3709 50.3282 58.5984C50.5752 58.8259 50.7261 59.1391 50.75 59.474V56.869C50.7261 56.5341 50.5752 56.2209 50.3282 55.9934C50.0812 55.7659 49.7568 55.6413 49.421 55.645Z" fill="#FFF48C"/>
<path d="M45.75 81.956V56.869C45.75 56.5443 45.879 56.233 46.1085 56.0035C46.338 55.7739 46.6494 55.645 46.974 55.645H49.421C49.7568 55.6413 50.0812 55.7659 50.3282 55.9934C50.5752 56.2209 50.7261 56.5341 50.75 56.869V81.956" stroke="#45413C" stroke-linecap="round" stroke-linejoin="round"/>
<path d="M69.75 81.956H64.75V56.869C64.75 56.5443 64.879 56.233 65.1085 56.0035C65.338 55.7739 65.6494 55.645 65.974 55.645H68.421C68.7568 55.6413 69.0812 55.7659 69.3282 55.9934C69.5752 56.2209 69.7261 56.5341 69.75 56.869V81.956Z" fill="#FFE500"/>
<path d="M68.421 55.645H65.974C65.6494 55.645 65.338 55.7739 65.1085 56.0035C64.879 56.233 64.75 56.5443 64.75 56.869V59.474C64.75 59.1493 64.879 58.838 65.1085 58.6085C65.338 58.3789 65.6494 58.25 65.974 58.25H68.421C68.7568 58.2463 69.0812 58.3709 69.3282 58.5984C69.5752 58.8259 69.7261 59.1391 69.75 59.474V56.869C69.7261 56.5341 69.5752 56.2209 69.3282 55.9934C69.0812 55.7659 68.7568 55.6413 68.421 55.645Z" fill="#FFF48C"/>
<path d="M64.75 81.956V56.869C64.75 56.5443 64.879 56.233 65.1085 56.0035C65.338 55.7739 65.6494 55.645 65.974 55.645H68.421C68.7568 55.6413 69.0812 55.7659 69.3282 55.9934C69.5752 56.2209 69.7261 56.5341 69.75 56.869V81.956" stroke="#45413C" stroke-linecap="round" stroke-linejoin="round"/>
<path d="M45.75 53.198C45.75 53.847 46.0078 54.4694 46.4667 54.9283C46.9256 55.3872 47.548 55.645 48.197 55.645C48.846 55.645 49.4684 55.3872 49.9273 54.9283C50.3862 54.4694 50.644 53.847 50.644 53.198C50.644 52.549 50.3862 51.9266 49.9273 51.4677C49.4684 51.0088 48.846 50.751 48.197 50.751C47.548 50.751 46.9256 51.0088 46.4667 51.4677C46.0078 51.9266 45.75 52.549 45.75 53.198Z" fill="#FFE500"/>
<path d="M48.2 52.355C48.7068 52.3563 49.2005 52.5154 49.6127 52.8102C50.0249 53.105 50.335 53.5209 50.5 54C50.6348 53.6302 50.6784 53.2333 50.6272 52.843C50.5759 52.4527 50.4313 52.0806 50.2056 51.7581C49.9799 51.4356 49.6797 51.1723 49.3306 50.9905C48.9815 50.8087 48.5936 50.7137 48.2 50.7137C47.8064 50.7137 47.4186 50.8087 47.0694 50.9905C46.7203 51.1723 46.4201 51.4356 46.1944 51.7581C45.9687 52.0806 45.8241 52.4527 45.7729 52.843C45.7216 53.2333 45.7652 53.6302 45.9 54C46.065 53.5209 46.3751 53.105 46.7873 52.8102C47.1995 52.5154 47.6933 52.3563 48.2 52.355Z" fill="#FFF48C"/>
<path d="M45.75 53.198C45.75 53.847 46.0078 54.4694 46.4667 54.9283C46.9256 55.3872 47.548 55.645 48.197 55.645C48.846 55.645 49.4684 55.3872 49.9273 54.9283C50.3862 54.4694 50.644 53.847 50.644 53.198C50.644 52.549 50.3862 51.9266 49.9273 51.4677C49.4684 51.0088 48.846 50.751 48.197 50.751C47.548 50.751 46.9256 51.0088 46.4667 51.4677C46.0078 51.9266 45.75 52.549 45.75 53.198Z" stroke="#45413C" stroke-linecap="round" stroke-linejoin="round"/>
<path d="M69.75 53.2C69.7496 53.684 69.6057 54.157 69.3366 54.5593C69.0675 54.9615 68.6851 55.275 68.2379 55.46C67.7907 55.6451 67.2986 55.6934 66.8239 55.5989C66.3493 55.5043 65.9132 55.2712 65.571 54.929C65.2288 54.5868 64.9957 54.1508 64.9011 53.6761C64.8066 53.2014 64.8549 52.7093 65.04 52.2621C65.225 51.8149 65.5385 51.4325 65.9407 51.1634C66.343 50.8943 66.816 50.7504 67.3 50.75C67.6218 50.7497 67.9405 50.8129 68.2379 50.936C68.5353 51.059 68.8054 51.2394 69.033 51.467C69.2606 51.6946 69.441 51.9647 69.564 52.2621C69.6871 52.5595 69.7503 52.8782 69.75 53.2Z" fill="#FFE500"/>
<path d="M67.3 52.355C67.8067 52.3563 68.3005 52.5154 68.7127 52.8102C69.1249 53.105 69.435 53.5209 69.6 54C69.7348 53.6302 69.7784 53.2333 69.7272 52.843C69.6759 52.4527 69.5313 52.0806 69.3056 51.7581C69.0799 51.4356 68.7797 51.1723 68.4306 50.9905C68.0814 50.8087 67.6936 50.7137 67.3 50.7137C66.9064 50.7137 66.5185 50.8087 66.1694 50.9905C65.8203 51.1723 65.5201 51.4356 65.2944 51.7581C65.0687 52.0806 64.9241 52.4527 64.8728 52.843C64.8216 53.2333 64.8652 53.6302 65 54C65.1651 53.5209 65.4752 53.1052 65.8874 52.8104C66.2996 52.5156 66.7933 52.3564 67.3 52.355Z" fill="#FFF48C"/>
<path d="M69.75 53.2C69.7496 53.684 69.6057 54.157 69.3366 54.5593C69.0675 54.9615 68.6851 55.275 68.2379 55.46C67.7907 55.6451 67.2986 55.6934 66.8239 55.5989C66.3493 55.5043 65.9132 55.2712 65.571 54.929C65.2288 54.5868 64.9957 54.1508 64.9011 53.6761C64.8066 53.2014 64.8549 52.7093 65.04 52.2621C65.225 51.8149 65.5385 51.4325 65.9407 51.1634C66.343 50.8943 66.816 50.7504 67.3 50.75C67.6218 50.7497 67.9405 50.8129 68.2379 50.936C68.5353 51.059 68.8054 51.2394 69.033 51.467C69.2606 51.6946 69.441 51.9647 69.564 52.2621C69.6871 52.5595 69.7503 52.8782 69.75 53.2Z" stroke="#45413C" stroke-linecap="round" stroke-linejoin="round"/>
<path d="M36.25 43.7791H14.75L15.25 23.2791H35.75L36.25 43.7791Z" fill="#614B44" stroke="#45413C" stroke-linecap="round" stroke-linejoin="round"/>
<path d="M35.25 24.25V21.75C35.25 19.0978 34.1964 16.5543 32.3211 14.6789C30.4457 12.8036 27.9022 11.75 25.25 11.75C22.5978 11.75 20.0543 12.8036 18.1789 14.6789C16.3036 16.5543 15.25 19.0978 15.25 21.75V24.25C14.7196 24.25 14.2109 24.4607 13.8358 24.8358C13.4607 25.2109 13.25 25.7196 13.25 26.25C13.25 26.7804 13.4607 27.2891 13.8358 27.6642C14.2109 28.0393 14.7196 28.25 15.25 28.25C15.292 28.25 15.331 28.24 15.373 28.238C15.7257 30.6054 16.9169 32.7673 18.7298 34.3301C20.5426 35.8929 22.8565 36.7526 25.25 36.7526C27.6435 36.7526 29.9574 35.8929 31.7702 34.3301C33.5831 32.7673 34.7743 30.6054 35.127 28.238C35.169 28.238 35.208 28.25 35.25 28.25C35.7804 28.25 36.2891 28.0393 36.6642 27.6642C37.0393 27.2891 37.25 26.7804 37.25 26.25C37.25 25.7196 37.0393 25.2109 36.6642 24.8358C36.2891 24.4607 35.7804 24.25 35.25 24.25Z" fill="#BF8256" stroke="#45413C" stroke-linecap="round" stroke-linejoin="round"/>
<path d="M22.233 31.047C23.0442 31.8194 24.1214 32.2501 25.2415 32.2501C26.3616 32.2501 27.4388 31.8194 28.25 31.047" stroke="#45413C" stroke-linecap="round" stroke-linejoin="round"/>
<path d="M30.75 25.25C30.6264 24.953 30.4176 24.6992 30.1499 24.5206C29.8823 24.3421 29.5677 24.2468 29.246 24.2468C28.9243 24.2468 28.6097 24.3421 28.3421 24.5206C28.0744 24.6992 27.8656 24.953 27.742 25.25" stroke="#45413C" stroke-linecap="round" stroke-linejoin="round"/>
<path d="M22.758 25.25C22.6344 24.953 22.4256 24.6992 22.1579 24.5206C21.8903 24.3421 21.5757 24.2468 21.254 24.2468C20.9323 24.2468 20.6177 24.3421 20.3501 24.5206C20.0824 24.6992 19.8736 24.953 19.75 25.25" stroke="#45413C" stroke-linecap="round" stroke-linejoin="round"/>
<path d="M18.25 28.5C18.25 28.8315 18.3817 29.1495 18.6161 29.3839C18.8505 29.6183 19.1685 29.75 19.5 29.75C19.8315 29.75 20.1495 29.6183 20.3839 29.3839C20.6183 29.1495 20.75 28.8315 20.75 28.5C20.75 28.1685 20.6183 27.8505 20.3839 27.6161C20.1495 27.3817 19.8315 27.25 19.5 27.25C19.1685 27.25 18.8505 27.3817 18.6161 27.6161C18.3817 27.8505 18.25 28.1685 18.25 28.5Z" fill="#BF8256"/>
<path d="M29.75 28.5C29.75 28.8315 29.8817 29.1495 30.1161 29.3839C30.3505 29.6183 30.6685 29.75 31 29.75C31.3315 29.75 31.6495 29.6183 31.8839 29.3839C32.1183 29.1495 32.25 28.8315 32.25 28.5C32.25 28.1685 32.1183 27.8505 31.8839 27.6161C31.6495 27.3817 31.3315 27.25 31 27.25C30.6685 27.25 30.3505 27.3817 30.1161 27.6161C29.8817 27.8505 29.75 28.1685 29.75 28.5Z" fill="#BF8256"/>
<path d="M26.273 11.8C25.5931 11.7307 24.9079 11.7307 24.228 11.8C21.7653 12.0531 19.4841 13.2106 17.8256 15.0486C16.1671 16.8866 15.2494 19.2744 15.25 21.75V24.25C15.6844 24.2818 16.0907 24.4767 16.3874 24.7955C16.6842 25.1143 16.8494 25.5335 16.85 25.969C17.2277 24.6476 17.3006 23.2577 17.063 21.904C18.117 22.255 19.85 20.753 19.85 20.753V18.353C21.5975 18.9605 23.4096 19.3632 25.25 19.553C27.0904 19.3634 28.9025 18.9607 30.65 18.353V20.753C30.65 20.753 32.383 22.253 33.438 21.904C33.1998 23.2576 33.2723 24.6476 33.65 25.969C33.6506 25.5335 33.8158 25.1143 34.1126 24.7955C34.4093 24.4767 34.8156 24.2818 35.25 24.25V21.75C35.2506 19.2746 34.333 16.8869 32.6748 15.0489C31.0165 13.2109 28.7355 12.0533 26.273 11.8Z" fill="#A86C4D" stroke="#45413C" stroke-linecap="round" stroke-linejoin="round"/>
<path d="M28.25 16.1779V13.0719C28.2503 12.4562 28.495 11.8657 28.9304 11.4303C29.3658 10.9949 29.9562 10.7502 30.572 10.7499C31.275 10.7202 31.9768 10.8314 32.6362 11.0768C33.2956 11.3223 33.8993 11.6971 34.4117 12.1793C34.9242 12.6614 35.335 13.2412 35.6201 13.8844C35.9053 14.5277 36.0589 15.2215 36.072 15.9249C36.3612 18.7227 36.2447 21.5475 35.726 24.3119C35.5714 24.2725 35.4126 24.2517 35.253 24.2499H35.221C34.7942 24.2883 34.397 24.4845 34.1072 24.8002C33.8174 25.1159 33.6558 25.5284 33.654 25.957C33.654 25.957 32.56 24.684 31.406 23.339C29.691 21.347 28.25 18.8059 28.25 16.1779Z" fill="#614B44"/>
<path d="M30.572 13.2499C31.275 13.2202 31.9768 13.3314 32.6362 13.5768C33.2956 13.8223 33.8993 14.1971 34.4117 14.6793C34.9242 15.1614 35.335 15.7412 35.6201 16.3844C35.9053 17.0277 36.0589 17.7215 36.072 18.4249C36.116 19.2349 36.153 19.9839 36.172 20.6949C36.228 19.2489 36.166 17.7359 36.072 15.9249C36.0589 15.2215 35.9053 14.5277 35.6201 13.8844C35.335 13.2412 34.9242 12.6614 34.4117 12.1793C33.8993 11.6971 33.2956 11.3223 32.6362 11.0768C31.9768 10.8314 31.275 10.7202 30.572 10.7499C29.9562 10.7502 29.3658 10.9949 28.9304 11.4303C28.495 11.8657 28.2503 12.4562 28.25 13.0719V15.5719C28.2503 14.9562 28.495 14.3657 28.9304 13.9303C29.3658 13.4949 29.9562 13.2502 30.572 13.2499Z" fill="#A86C4D"/>
<path d="M28.25 16.1779V13.0719C28.2503 12.4562 28.495 11.8657 28.9304 11.4303C29.3658 10.9949 29.9562 10.7502 30.572 10.7499C31.275 10.7202 31.9768 10.8314 32.6362 11.0768C33.2956 11.3223 33.8993 11.6971 34.4117 12.1793C34.9242 12.6614 35.335 13.2412 35.6201 13.8844C35.9053 14.5277 36.0589 15.2215 36.072 15.9249C36.3612 18.7227 36.2447 21.5475 35.726 24.3119C35.5714 24.2725 35.4126 24.2517 35.253 24.2499H35.221C34.7942 24.2883 34.397 24.4845 34.1072 24.8002C33.8174 25.1159 33.6558 25.5284 33.654 25.957C33.654 25.957 32.56 24.684 31.406 23.339C29.691 21.347 28.25 18.8059 28.25 16.1779Z" stroke="#45413C" stroke-linecap="round" stroke-linejoin="round"/>
<path d="M30.229 18.349C26.735 22.11 20.829 24.249 15.7 24.249H14.249C13.586 24.249 12.9501 23.9856 12.4813 23.5168C12.0124 23.0479 11.749 22.4121 11.749 21.749C11.749 21.086 12.0124 20.4501 12.4813 19.9813C12.9501 19.5124 13.586 19.249 14.249 19.249H14.749C14.749 14.002 20.002 9.74902 25.249 9.74902C26.8403 9.74902 28.3664 10.3812 29.4917 11.5064C30.6169 12.6316 31.249 14.1577 31.249 15.749C31.2495 16.7134 30.8851 17.6422 30.229 18.349Z" fill="#614B44"/>
<path d="M25.25 9.75C20.003 9.75 14.75 14.004 14.75 19.25C14.75 19.25 18.75 12.75 25.25 12.75C26.5477 12.7506 27.8102 13.172 28.8482 13.9509C29.8862 14.7298 30.6436 15.8242 31.007 17.07C31.1655 16.6468 31.2477 16.1989 31.25 15.747C31.2492 14.1562 30.6167 12.6309 29.4916 11.5063C28.3664 10.3817 26.8408 9.75 25.25 9.75Z" fill="#A86C4D"/>
<path d="M30.229 18.349C26.735 22.11 20.829 24.249 15.7 24.249H14.249C13.586 24.249 12.9501 23.9856 12.4813 23.5168C12.0124 23.0479 11.749 22.4121 11.749 21.749C11.749 21.086 12.0124 20.4501 12.4813 19.9813C12.9501 19.5124 13.586 19.249 14.249 19.249H14.749C14.749 14.002 20.002 9.74902 25.249 9.74902C26.8403 9.74902 28.3664 10.3812 29.4917 11.5064C30.6169 12.6316 31.249 14.1577 31.249 15.749C31.2495 16.7134 30.8851 17.6422 30.229 18.349Z" stroke="#45413C" stroke-linecap="round" stroke-linejoin="round"/>
<path d="M14.75 19.25C15.413 19.25 16.0489 19.5134 16.5178 19.9822C16.9866 20.4511 17.25 21.087 17.25 21.75" stroke="#45413C" stroke-linecap="round" stroke-linejoin="round"/>
<path d="M46.75 63.75H43.25C42.4229 63.7497 41.6226 63.4564 40.991 62.9223C40.3595 62.3881 39.9375 61.6476 39.8 60.832L39.791 60.25H35.25C35.0776 60.2501 34.9081 60.2057 34.758 60.121V60.705C34.8773 62.8771 35.8238 64.9212 37.4031 66.4173C38.9824 67.9134 41.0746 68.7481 43.25 68.75H46.75C47.413 68.75 48.0489 68.4866 48.5178 68.0177C48.9866 67.5489 49.25 66.913 49.25 66.25C49.25 65.5869 48.9866 64.951 48.5178 64.4822C48.0489 64.0134 47.413 63.75 46.75 63.75Z" fill="#BF8256" stroke="#45413C" stroke-linecap="round" stroke-linejoin="round"/>
<path d="M15.25 60.25H11.25V74.25C11.25 74.913 11.5134 75.5489 11.9822 76.0178C12.4511 76.4866 13.087 76.75 13.75 76.75C14.413 76.75 15.0489 76.4866 15.5178 76.0178C15.9866 75.5489 16.25 74.913 16.25 74.25V59.25C16.25 59.5152 16.1446 59.7696 15.9571 59.9571C15.7696 60.1446 15.5152 60.25 15.25 60.25Z" fill="#BF8256" stroke="#45413C" stroke-linecap="round" stroke-linejoin="round"/>
<path d="M11.25 70.25H16.25V72.786H11.25V70.25Z" fill="#FFF5E3" stroke="#45413C" stroke-linecap="round" stroke-linejoin="round"/>
<path d="M25.25 38.75C21.1391 38.75 17.1967 40.383 14.2898 43.2898C11.383 46.1967 9.75 50.1391 9.75 54.25V57.384C9.90202 57.2962 10.0745 57.25 10.25 57.25H15.25C15.5152 57.25 15.7696 57.3554 15.9571 57.5429C16.1446 57.7304 16.25 57.9848 16.25 58.25V62.75H34.25V58.25C34.25 57.9848 34.3554 57.7304 34.5429 57.5429C34.7304 57.3554 34.9848 57.25 35.25 57.25H40.25C40.4255 57.25 40.598 57.2962 40.75 57.384V54.25C40.75 50.1391 39.117 46.1967 36.2102 43.2898C33.3033 40.383 29.3609 38.75 25.25 38.75Z" fill="#00DBA8"/>
<path d="M9.75 54.25C9.75 50.1391 11.383 46.1967 14.2898 43.2898C17.1967 40.383 21.1391 38.75 25.25 38.75C29.3609 38.75 33.3033 40.383 36.2102 43.2898C39.117 46.1967 40.75 50.1391 40.75 54.25C40.75 54.25 40.75 52.25 37.75 48.25C34.972 44.55 30.907 41.699 26.35 47.65C26.2206 47.8188 26.0541 47.9556 25.8633 48.0497C25.6726 48.1438 25.4627 48.1928 25.25 48.1928C25.0373 48.1928 24.8274 48.1438 24.6367 48.0497C24.4459 47.9556 24.2794 47.8188 24.15 47.65C19.592 41.696 15.527 44.542 12.75 48.25C9.75 52.25 9.75 54.25 9.75 54.25Z" fill="#00DBA8"/>
<path d="M25.25 38.75C21.1391 38.75 17.1967 40.383 14.2898 43.2898C11.383 46.1967 9.75 50.1391 9.75 54.25V57.384C9.90202 57.2962 10.0745 57.25 10.25 57.25H15.25C15.5152 57.25 15.7696 57.3554 15.9571 57.5429C16.1446 57.7304 16.25 57.9848 16.25 58.25V62.75H34.25V58.25C34.25 57.9848 34.3554 57.7304 34.5429 57.5429C34.7304 57.3554 34.9848 57.25 35.25 57.25H40.25C40.4255 57.25 40.598 57.2962 40.75 57.384V54.25C40.75 50.1391 39.117 46.1967 36.2102 43.2898C33.3033 40.383 29.3609 38.75 25.25 38.75Z" stroke="#45413C" stroke-linecap="round" stroke-linejoin="round"/>
<path d="M28.75 36.119C26.4925 36.9604 24.0075 36.9604 21.75 36.119V39.147C20.6394 39.4031 19.5607 39.7821 18.534 40.277L22.566 42.642C22.6873 42.713 22.7922 42.8088 22.874 42.923L24.757 45.56C24.8129 45.6387 24.8869 45.7028 24.9726 45.747C25.0584 45.7913 25.1535 45.8143 25.25 45.8143C25.3465 45.8143 25.4416 45.7913 25.5274 45.747C25.6131 45.7028 25.6871 45.6387 25.743 45.56L27.626 42.923C27.708 42.8089 27.8129 42.7132 27.934 42.642L31.966 40.277C30.9393 39.7821 29.8606 39.4031 28.75 39.147V36.119Z" fill="#BF8256"/>
<path d="M25.25 36.75C24.0549 36.7515 22.8693 36.5378 21.75 36.119V38.25C24.0357 38.9167 26.4643 38.9167 28.75 38.25V36.119C27.6307 36.5378 26.4451 36.7515 25.25 36.75Z" fill="#BF8256"/>
<path d="M28.75 36.119C26.4925 36.9604 24.0075 36.9604 21.75 36.119V39.147C20.6394 39.4031 19.5607 39.7821 18.534 40.277L22.566 42.642C22.6873 42.713 22.7922 42.8088 22.874 42.923L24.757 45.56C24.8129 45.6387 24.8869 45.7028 24.9726 45.747C25.0584 45.7913 25.1535 45.8143 25.25 45.8143C25.3465 45.8143 25.4416 45.7913 25.5274 45.747C25.6131 45.7028 25.6871 45.6387 25.743 45.56L27.626 42.923C27.708 42.8089 27.8129 42.7132 27.934 42.642L31.966 40.277C30.9393 39.7821 29.8606 39.4031 28.75 39.147V36.119Z" stroke="#45413C" stroke-linecap="round" stroke-linejoin="round"/>
<path d="M34.25 57.25H41.25V60.25H34.25V57.25Z" fill="#00DBA8" stroke="#45413C" stroke-linecap="round" stroke-linejoin="round"/>
<path d="M9.25 57.25H16.25V60.25H9.25V57.25Z" fill="#00DBA8" stroke="#45413C" stroke-linecap="round" stroke-linejoin="round"/>
<path d="M16.75 84.25H33.75L34.311 76.85C34.6031 72.988 34.5827 69.1087 34.25 65.25H16.25C15.9182 69.1088 15.8981 72.988 16.19 76.85L16.75 84.25Z" fill="#FFF5E3"/>
<path d="M34.482 69.25C34.442 67.9167 34.3646 66.5833 34.25 65.25H16.25C16.136 66.5833 16.059 67.9167 16.019 69.25H34.482Z" fill="#F7E5C6"/>
<path d="M33.75 84.25L34.311 76.85C34.6031 72.988 34.5827 69.1087 34.25 65.25H16.25C15.9182 69.1088 15.8981 72.988 16.19 76.85L16.75 84.25" stroke="#45413C" stroke-linecap="round" stroke-linejoin="round"/>
<path d="M16.25 62.75H34.25V65.25H16.25V62.75Z" fill="#B89558" stroke="#45413C" stroke-linecap="round" stroke-linejoin="round"/>
<path d="M34.25 58.25V54.913C34.25 53.492 34.593 52.092 35.25 50.832" stroke="#45413C" stroke-linecap="round" stroke-linejoin="round"/>
<path d="M16.25 58.25V54.913C16.25 53.492 15.907 52.092 15.25 50.832" stroke="#45413C" stroke-linecap="round" stroke-linejoin="round"/>
<path d="M19.975 46.362C20.1806 46.4648 20.4185 46.4818 20.6366 46.4093C20.8547 46.3367 21.035 46.1805 21.138 45.975L22.738 42.775C22.6848 42.7259 22.6265 42.6826 22.564 42.646L18.532 40.281C17.3454 40.8538 16.2365 41.5752 15.232 42.428C16.4908 44.0853 18.1135 45.4313 19.975 46.362Z" fill="#00DBA8" stroke="#45413C" stroke-linecap="round" stroke-linejoin="round"/>
<path d="M30.525 46.362C30.3195 46.4648 30.0815 46.4818 29.8634 46.4093C29.6453 46.3367 29.465 46.1805 29.362 45.975L27.762 42.775C27.8147 42.7257 27.8727 42.6824 27.935 42.646L31.967 40.281C33.1538 40.8535 34.2628 41.575 35.267 42.428C34.0085 44.0852 32.3861 45.4312 30.525 46.362Z" fill="#00DBA8" stroke="#45413C" stroke-linecap="round" stroke-linejoin="round"/>
<path d="M64.75 58.75H64.45C64.2393 58.7475 64.0334 58.8132 63.8629 58.9371C63.6925 59.0611 63.5666 59.2367 63.504 59.438C63.1399 60.6834 62.3819 61.7773 61.3436 62.5556C60.3052 63.3339 59.0426 63.7545 57.745 63.7545C56.4474 63.7545 55.1847 63.3339 54.1464 62.5556C53.1081 61.7773 52.3501 60.6834 51.986 59.438C51.9235 59.2366 51.7976 59.0609 51.6272 58.9369C51.4567 58.813 51.2508 58.7474 51.04 58.75H50.74V61.625C51.4318 62.8754 52.446 63.9176 53.677 64.6434C54.908 65.3692 56.311 65.752 57.74 65.752C59.169 65.752 60.572 65.3692 61.803 64.6434C63.034 63.9176 64.0482 62.8754 64.74 61.625L64.75 58.75Z" fill="#FF6242" stroke="#45413C" stroke-linecap="round" stroke-linejoin="round"/>
<path d="M76.75 63.75C75.453 63.7502 74.1908 63.3302 73.1525 62.5529C72.1143 61.7755 71.3559 60.6826 70.991 59.438C70.9285 59.2366 70.8027 59.0609 70.6322 58.9369C70.4617 58.813 70.2558 58.7474 70.045 58.75H69.745V61.625C70.4371 62.875 71.4513 63.9169 72.6823 64.6423C73.9133 65.3677 75.3162 65.7502 76.745 65.75" fill="#FF6242"/>
<path d="M76.75 63.75C75.453 63.7502 74.1908 63.3302 73.1525 62.5529C72.1143 61.7755 71.3559 60.6826 70.991 59.438C70.9285 59.2366 70.8027 59.0609 70.6322 58.9369C70.4617 58.813 70.2558 58.7474 70.045 58.75H69.745V61.625C70.4371 62.875 71.4513 63.9169 72.6823 64.6423C73.9133 65.3677 75.3162 65.7502 76.745 65.75" stroke="#45413C" stroke-linecap="round" stroke-linejoin="round"/>
</svg>
