<svg width="82" height="82" viewBox="0 0 82 82" fill="none" xmlns="http://www.w3.org/2000/svg">
<path d="M1 41C1 51.6087 5.21427 61.7828 12.7157 69.2843C20.2172 76.7857 30.3913 81 41 81C51.6087 81 61.7828 76.7857 69.2843 69.2843C76.7857 61.7828 81 51.6087 81 41C81 30.3913 76.7857 20.2172 69.2843 12.7157C61.7828 5.21427 51.6087 1 41 1C30.3913 1 20.2172 5.21427 12.7157 12.7157C5.21427 20.2172 1 30.3913 1 41Z" fill="#DAEDF7" stroke="#DAEDF7"/>
<path d="M15.88 3.50806H66.121V65.3981H15.88V3.50806Z" fill="#87898C"/>
<path d="M66.12 5.50806C66.12 4.97762 65.9093 4.46892 65.5342 4.09384C65.1591 3.71877 64.6504 3.50806 64.12 3.50806H17.88C17.3496 3.50806 16.8409 3.71877 16.4658 4.09384C16.0907 4.46892 15.88 4.97762 15.88 5.50806V9.44506C15.88 8.91462 16.0907 8.40592 16.4658 8.03084C16.8409 7.65577 17.3496 7.44506 17.88 7.44506H64.12C64.6504 7.44506 65.1591 7.65577 65.5342 8.03084C65.9093 8.40592 66.12 8.91462 66.12 9.44506V5.50806Z" fill="#87898C"/>
<path d="M15.88 3.50806H66.121V65.3981H15.88V3.50806Z" stroke="#45413C" stroke-linecap="round" stroke-linejoin="round"/>
<path opacity="0.15" d="M19.464 73.577C19.464 73.8524 20.023 74.125 21.1091 74.3795C22.1952 74.6339 23.7871 74.8651 25.794 75.0598C27.8009 75.2545 30.1833 75.409 32.8054 75.5144C35.4275 75.6197 38.2379 75.674 41.076 75.674C43.9141 75.674 46.7245 75.6197 49.3465 75.5144C51.9686 75.409 54.3511 75.2545 56.358 75.0598C58.3648 74.8651 59.9568 74.6339 61.0429 74.3795C62.129 74.125 62.688 73.8524 62.688 73.577C62.688 73.3016 62.129 73.0289 61.0429 72.7745C59.9568 72.5201 58.3648 72.2889 56.358 72.0942C54.3511 71.8995 51.9686 71.745 49.3465 71.6396C46.7245 71.5342 43.9141 71.48 41.076 71.48C38.2379 71.48 35.4275 71.5342 32.8054 71.6396C30.1833 71.745 27.8009 71.8995 25.794 72.0942C23.7871 72.2889 22.1952 72.5201 21.1091 72.7745C20.023 73.0289 19.464 73.3016 19.464 73.577Z" fill="#45413C"/>
<path d="M24.661 12.6689H57.339V56.2349H24.661V12.6689Z" fill="white"/>
<path d="M24.661 12.6689H57.339V16.7299H24.661V12.6689Z" fill="#E0E0E0"/>
<path d="M35.925 58.819H46.075V62.643H35.925V58.819Z" fill="#FFE500"/>
<path d="M36.925 58.819C36.6598 58.819 36.4054 58.9243 36.2179 59.1119C36.0303 59.2994 35.925 59.5538 35.925 59.819V61.643C35.925 61.9082 36.0303 62.1625 36.2179 62.3501C36.4054 62.5376 36.6598 62.643 36.925 62.643H39.21L43.034 58.819H36.925Z" fill="#FFF48C"/>
<path d="M24.661 12.6689H57.339V56.2349H24.661V12.6689Z" stroke="#45413C" stroke-linecap="round" stroke-linejoin="round"/>
<path d="M35.925 58.819H46.075V62.643H35.925V58.819Z" stroke="#45413C" stroke-linecap="round" stroke-linejoin="round"/>
<path d="M57.339 12.669L65.48 4.04102" stroke="#45413C" stroke-linecap="round" stroke-linejoin="round"/>
<path d="M24.661 12.669L16.52 4.04102" stroke="#45413C" stroke-linecap="round" stroke-linejoin="round"/>
<path d="M24.661 56.235L16.52 64.864" stroke="#45413C" stroke-linecap="round" stroke-linejoin="round"/>
<path d="M57.339 56.235L65.48 64.864" stroke="#45413C" stroke-linecap="round" stroke-linejoin="round"/>
<path d="M48.4379 32L52.214 31.5426C52.4543 31.5133 52.6711 31.4034 52.8168 31.2371C52.9625 31.0709 53.0251 30.8619 52.9908 30.6561L52.9499 30.411C52.9148 30.1976 52.8309 29.9923 52.7031 29.8067C52.5752 29.621 52.4059 29.4588 52.2047 29.3293C52.0036 29.1998 51.7746 29.1055 51.5309 29.0517C51.2871 28.998 51.0334 28.986 50.7843 29.0163L48 29.3551L48.4379 32Z" fill="#FF6242" stroke="#45413C" stroke-linecap="round" stroke-linejoin="round"/>
<path d="M30.8968 32.4582C32.3094 32.425 33.7179 32.2927 35.1118 32.0622C35.712 31.9622 36.2864 31.7444 36.8017 31.4214C37.317 31.0983 37.7631 30.6765 38.114 30.1803C38.4417 29.6056 38.7158 29.0021 38.9328 28.3774C39.3228 27.5267 39.9128 26.7826 40.6526 26.2084C41.3925 25.6343 42.2603 25.247 43.1823 25.0796C44.1257 24.9054 45.0997 25.0186 45.9778 25.4047C46.8558 25.7908 47.597 26.4317 48.1052 27.2442C48.9034 28.7693 49.178 30.5138 48.8869 32.2099C48.7811 33.0756 48.5892 33.9286 48.3143 34.7564C47.7919 36.2815 46.925 37.6661 45.7808 38.8032C44.6365 39.9402 43.2456 40.7992 41.7156 41.3137C41.2301 41.486 40.7353 41.6314 40.2337 41.7492C39.0476 42.0304 37.8176 42.0757 36.614 41.8823C35.4103 41.689 34.2566 41.2609 33.2187 40.6224C32.1808 39.984 31.2791 39.1477 30.5649 38.1613C29.8507 37.1749 29.3382 36.0577 29.0565 34.8735C28.9869 34.591 28.9815 34.2965 29.0408 34.0116C29.1 33.7267 29.2223 33.4586 29.3988 33.227C29.5752 32.9954 29.8013 32.8062 30.0605 32.6732C30.3197 32.5401 30.6055 32.4667 30.8968 32.4582Z" fill="#FFE500"/>
<path d="M45 29C45 29.1313 45.0259 29.2614 45.0761 29.3827C45.1264 29.504 45.2 29.6142 45.2929 29.7071C45.3858 29.8 45.496 29.8736 45.6173 29.9239C45.7386 29.9741 45.8687 30 46 30C46.1313 30 46.2614 29.9741 46.3827 29.9239C46.504 29.8736 46.6142 29.8 46.7071 29.7071C46.8 29.6142 46.8736 29.504 46.9239 29.3827C46.9741 29.2614 47 29.1313 47 29C47 28.8687 46.9741 28.7386 46.9239 28.6173C46.8736 28.496 46.8 28.3858 46.7071 28.2929C46.6142 28.2 46.504 28.1264 46.3827 28.0761C46.2614 28.0259 46.1313 28 46 28C45.8687 28 45.7386 28.0259 45.6173 28.0761C45.496 28.1264 45.3858 28.2 45.2929 28.2929C45.2 28.3858 45.1264 28.496 45.0761 28.6173C45.0259 28.7386 45 28.8687 45 29Z" fill="#45413C"/>
<path d="M44 34C43.8359 35.0032 43.3564 35.9276 42.6313 36.6387C41.9062 37.3497 40.9734 37.8101 39.9688 37.9528C38.9643 38.0954 37.9406 37.913 37.0468 37.4319C36.153 36.9509 35.4359 36.1964 35 35.2784" fill="#FFE500"/>
<path d="M44 34C43.8359 35.0032 43.3564 35.9276 42.6313 36.6387C41.9062 37.3497 40.9734 37.8101 39.9688 37.9528C38.9643 38.0954 37.9406 37.913 37.0468 37.4319C36.153 36.9509 35.4359 36.1964 35 35.2784" stroke="#45413C" stroke-linecap="round" stroke-linejoin="round"/>
<path d="M48.5511 28C48.5396 28.3587 48.5154 28.7149 48.4733 29.0634C48.3676 29.9376 48.1756 30.7991 47.9002 31.635C47.3771 33.1758 46.5093 34.5748 45.3638 35.7237C44.2183 36.8726 42.8259 37.7407 41.2942 38.2608C40.8079 38.4335 40.3129 38.5803 39.8112 38.7006C37.7127 39.2018 35.5065 38.9517 33.5709 37.9934C31.6353 37.035 30.091 35.428 29.2028 33.448C28.9985 33.8687 28.9466 34.3481 29.0561 34.8033C29.338 35.9991 29.8509 37.1273 30.5656 38.1234C31.2803 39.1195 32.1827 39.9641 33.2213 40.6089C34.26 41.2536 35.4145 41.6859 36.619 41.8812C37.8235 42.0764 39.0544 42.0307 40.2413 41.7467C40.7433 41.6278 41.2384 41.4809 41.7243 41.3069C43.2554 40.7874 44.6473 39.9199 45.7924 38.7717C46.9375 37.6234 47.805 36.2251 48.3278 34.685C48.6029 33.849 48.7949 32.9876 48.9008 32.1133C49.1087 30.7336 48.9888 29.324 48.5511 28Z" fill="#EBCB00"/>
<path d="M30.8968 32.4582C32.3094 32.425 33.7179 32.2927 35.1118 32.0622C35.712 31.9622 36.2864 31.7444 36.8017 31.4214C37.317 31.0983 37.7631 30.6765 38.114 30.1803C38.4417 29.6056 38.7158 29.0021 38.9328 28.3774C39.3228 27.5267 39.9128 26.7826 40.6526 26.2084C41.3925 25.6343 42.2603 25.247 43.1823 25.0796C44.1257 24.9054 45.0997 25.0186 45.9778 25.4047C46.8558 25.7908 47.597 26.4317 48.1052 27.2442C48.9034 28.7693 49.178 30.5138 48.8869 32.2099C48.7811 33.0756 48.5892 33.9286 48.3143 34.7564C47.7919 36.2815 46.925 37.6661 45.7808 38.8032C44.6365 39.9402 43.2456 40.7992 41.7156 41.3137C41.2301 41.486 40.7353 41.6314 40.2337 41.7492C39.0476 42.0304 37.8176 42.0757 36.614 41.8823C35.4103 41.689 34.2566 41.2609 33.2187 40.6224C32.1808 39.984 31.2791 39.1477 30.5649 38.1613C29.8507 37.1749 29.3382 36.0577 29.0565 34.8735C28.9869 34.591 28.9815 34.2965 29.0408 34.0116C29.1 33.7267 29.2223 33.4586 29.3988 33.227C29.5752 32.9954 29.8013 32.8062 30.0605 32.6732C30.3197 32.5401 30.6055 32.4667 30.8968 32.4582Z" stroke="#45413C" stroke-linecap="round" stroke-linejoin="round"/>
</svg>
