<svg width="82" height="82" viewBox="0 0 82 82" fill="none" xmlns="http://www.w3.org/2000/svg">
<path d="M1 41C1 51.6087 5.21427 61.7828 12.7157 69.2843C20.2172 76.7857 30.3913 81 41 81C51.6087 81 61.7828 76.7857 69.2843 69.2843C76.7857 61.7828 81 51.6087 81 41C81 30.3913 76.7857 20.2172 69.2843 12.7157C61.7828 5.21427 51.6087 1 41 1C30.3913 1 20.2172 5.21427 12.7157 12.7157C5.21427 20.2172 1 30.3913 1 41Z" fill="#DAEDF7" stroke="#DAEDF7"/>
<path d="M41 1C34.5951 1.00149 28.2842 2.54056 22.5978 5.48783C16.9113 8.4351 12.0155 12.7044 8.32185 17.937C4.62822 23.1695 2.24472 29.2123 1.37172 35.5574C0.498711 41.9024 1.16171 48.3644 3.30499 54.4H78.694C80.838 48.3645 81.5015 41.9024 80.6289 35.5571C79.7562 29.2118 77.3729 23.1688 73.6792 17.9361C69.9856 12.7034 65.0896 8.43401 59.4029 5.48686C53.7162 2.53971 47.405 1.00097 41 1Z" fill="#B8ECFF"/>
<path d="M3.30603 54.4C6.0734 62.1837 11.1825 68.9199 17.9318 73.6834C24.6811 78.447 32.7395 81.0044 41.0005 81.0044C49.2615 81.0044 57.32 78.447 64.0693 73.6834C70.8185 68.9199 75.9277 62.1837 78.695 54.4H3.30603Z" fill="#FFFACF"/>
<path d="M42.895 1.04395V54.3939H19.26V7.92995" stroke="#45413C" stroke-linecap="round" stroke-linejoin="round"/>
<path d="M66.531 10.21V54.394" stroke="#45413C" stroke-linecap="round" stroke-linejoin="round"/>
<path d="M35.965 1.32698V54.4H39.949V1.02698C38.603 1.06231 37.275 1.16231 35.965 1.32698Z" fill="#E5F8FF"/>
<path d="M33.2 1.76697C31.8555 2.03067 30.5257 2.36446 29.216 2.76697V54.4H33.2V1.76697Z" fill="#E5F8FF"/>
<path d="M26.446 3.74304C25.0861 4.27415 23.7564 4.87973 22.463 5.55704V54.4H26.446V3.74304Z" fill="#E5F8FF"/>
<path d="M16.313 9.54004C14.9071 10.6437 13.5765 11.84 12.33 13.121V54.4H16.313V9.54004Z" fill="#E5F8FF"/>
<path d="M2.81099 29.0699C0.397639 36.8402 0.397639 45.1597 2.81099 52.9299V29.0699Z" fill="#E5F8FF"/>
<path d="M9.56198 16.285C8.04956 18.2043 6.71632 20.2583 5.57898 22.421V54.4H9.56198V16.285Z" fill="#E5F8FF"/>
<path d="M80.469 34.511C79.7866 30.335 78.4417 26.2948 76.485 22.543V54.4H78.7C79.4966 52.1556 80.0903 49.8444 80.474 47.494L80.469 34.511Z" fill="#E5F8FF"/>
<path d="M73.717 18C72.5164 16.2946 71.1847 14.6854 69.734 13.187V54.4H73.717V18Z" fill="#E5F8FF"/>
<path d="M50.082 2.04799C48.767 1.74268 47.4373 1.50438 46.098 1.33398V54.4H50.082V2.04799Z" fill="#E5F8FF"/>
<path d="M59.6 5.58899V54.4H63.583V7.98699C62.3028 7.11133 60.9729 6.31066 59.6 5.58899Z" fill="#E5F8FF"/>
<path d="M56.833 4.26203C55.5323 3.69891 54.2024 3.20587 52.849 2.78503V54.4H56.833V4.26203Z" fill="#E5F8FF"/>
<path d="M4.06 56.56H77.781C78.3898 55.1092 78.912 53.6236 79.345 52.111H2.5C2.93124 53.6236 3.45216 55.1092 4.06 56.56Z" fill="#BDBEC0"/>
<path d="M4.29303 56.5601H77.781" stroke="#45413C" stroke-linecap="round" stroke-linejoin="round"/>
<path d="M79.345 52.111H2.81097" stroke="#45413C" stroke-linecap="round" stroke-linejoin="round"/>
<path opacity="0.15" d="M14.73 24.9099C14.73 25.1752 14.8353 25.4295 15.0229 25.6171C15.2104 25.8046 15.4648 25.9099 15.73 25.9099H33.03C33.2952 25.9099 33.5496 25.8046 33.7371 25.6171C33.9246 25.4295 34.03 25.1752 34.03 24.9099V3.79395C34.03 3.52873 33.9246 3.27438 33.7371 3.08684C33.5496 2.8993 33.2952 2.79395 33.03 2.79395H29.2C23.8611 4.45863 18.9314 7.22603 14.73 10.9169V24.9099Z" fill="#45413C"/>
<path d="M13.156 23.533C13.156 23.7982 13.2614 24.0526 13.4489 24.2401C13.6364 24.4276 13.8908 24.533 14.156 24.533H31.456C31.7212 24.533 31.9756 24.4276 32.1631 24.2401C32.3506 24.0526 32.456 23.7982 32.456 23.533V2.418C32.4525 2.25453 32.4078 2.09458 32.326 1.953C25.1001 3.5574 18.4627 7.13989 13.156 12.3V23.533Z" fill="white" stroke="#45413C" stroke-linecap="round" stroke-linejoin="round"/>
<path d="M26.579 14.443L23.305 15.884L22.916 19.44L25.801 21.555L29.075 20.114L29.464 16.558L26.579 14.443Z" fill="#9CEB60" stroke="#45413C" stroke-linecap="round" stroke-linejoin="round"/>
<path d="M69.3 38.708C69.3 38.4319 69.1904 38.1671 68.9951 37.9719C68.7999 37.7767 68.5351 37.667 68.259 37.667H16.344C16.0681 37.6673 15.8036 37.7771 15.6086 37.9722C15.4136 38.1674 15.304 38.4321 15.304 38.708L13.921 70.508C17.8087 74.0663 22.3613 76.821 27.3171 78.6139C32.273 80.4068 37.5344 81.2025 42.7988 80.9552C48.0632 80.7079 53.2268 79.4226 57.9927 77.173C62.7587 74.9234 67.033 71.754 70.57 67.847L69.3 38.708Z" fill="#BF8256"/>
<path d="M70.57 67.847L69.3 38.708C69.3 38.4319 69.1904 38.1671 68.9951 37.9719C68.7999 37.7767 68.5351 37.667 68.259 37.667H16.344C16.0681 37.6673 15.8036 37.7771 15.6086 37.9722C15.4136 38.1674 15.304 38.4321 15.304 38.708L13.921 70.508" stroke="#45413C" stroke-linecap="round" stroke-linejoin="round"/>
<path d="M26.213 56.247H22.188V45.681C22.188 45.4158 22.2933 45.1615 22.4809 44.9739C22.6684 44.7864 22.9228 44.681 23.188 44.681H26.213V56.247Z" fill="#DABFF5"/>
<path d="M22.187 51.123H26.212V52.116H22.187V51.123Z" fill="white"/>
<path d="M22.187 49.4709H26.212V50.4639H22.187V49.4709Z" fill="white"/>
<path d="M26.213 56.247H22.188V45.681C22.188 45.4158 22.2933 45.1615 22.4809 44.9739C22.6684 44.7864 22.9228 44.681 23.188 44.681H26.213V56.247Z" stroke="#45413C" stroke-linecap="round" stroke-linejoin="round"/>
<path d="M49.281 56.247V53.072H59.846C60.1112 53.072 60.3656 53.1774 60.5531 53.3649C60.7407 53.5525 60.846 53.8068 60.846 54.072V56.247H49.281Z" fill="#DABFF5"/>
<path d="M57.657 56.247L57.633 53.072H59.286L59.31 56.247H57.657Z" fill="white"/>
<path d="M49.281 56.247V53.072H59.846C60.1112 53.072 60.3656 53.1774 60.5531 53.3649C60.7407 53.5525 60.846 53.8068 60.846 54.072V56.247H49.281Z" stroke="#45413C" stroke-linecap="round" stroke-linejoin="round"/>
<path d="M46.645 52.5719V50.3719C46.645 50.2393 46.6977 50.1122 46.7915 50.0184C46.8852 49.9246 47.0124 49.8719 47.145 49.8719H58.21V53.0719H47.145C47.0124 53.0719 46.8852 53.0193 46.7915 52.9255C46.6977 52.8317 46.645 52.7046 46.645 52.5719Z" fill="#FFE500"/>
<path d="M48.024 49.873H49.677V53.071H48.024V49.873Z" fill="white"/>
<path d="M46.645 52.5719V50.3719C46.645 50.2393 46.6977 50.1122 46.7915 50.0184C46.8852 49.9246 47.0124 49.8719 47.145 49.8719H58.21V53.0719H47.145C47.0124 53.0719 46.8852 53.0193 46.7915 52.9255C46.6977 52.8317 46.645 52.7046 46.645 52.5719Z" stroke="#45413C" stroke-linecap="round" stroke-linejoin="round"/>
<path d="M50.1 49.873V46.848C50.1 46.5828 50.2053 46.3285 50.3929 46.1409C50.5804 45.9534 50.8348 45.848 51.1 45.848H60.665C60.9302 45.848 61.1845 45.9534 61.3721 46.1409C61.5596 46.3285 61.665 46.5828 61.665 46.848V49.873H50.1Z" fill="#FF6242"/>
<path d="M51.77 45.848H53.423V49.873H51.77V45.848Z" fill="white"/>
<path d="M50.1 49.873V46.848C50.1 46.5828 50.2053 46.3285 50.3929 46.1409C50.5804 45.9534 50.8348 45.848 51.1 45.848H60.665C60.9302 45.848 61.1845 45.9534 61.3721 46.1409C61.5596 46.3285 61.665 46.5828 61.665 46.848V49.873H50.1Z" stroke="#45413C" stroke-linecap="round" stroke-linejoin="round"/>
<path d="M30.238 56.247H26.213V44.681H29.238C29.5032 44.681 29.7576 44.7864 29.9451 44.9739C30.1327 45.1615 30.238 45.4158 30.238 45.681V56.247Z" fill="#FF87AF"/>
<path d="M30.238 56.247H26.213V44.681H29.238C29.5032 44.681 29.7576 44.7864 29.9451 44.9739C30.1327 45.1615 30.238 45.4158 30.238 45.681V56.247Z" fill="#FF87AF"/>
<path d="M26.213 51.15H30.238V52.143H26.213V51.15Z" fill="white"/>
<path d="M30.238 56.247H26.213V44.681H29.238C29.5032 44.681 29.7576 44.7864 29.9451 44.9739C30.1327 45.1615 30.238 45.4158 30.238 45.681V56.247Z" stroke="#45413C" stroke-linecap="round" stroke-linejoin="round"/>
<path d="M38.288 56.247H34.263L30.62 45.779C30.5762 45.6543 30.5629 45.5209 30.5813 45.39C30.5997 45.2591 30.6492 45.1345 30.7257 45.0268C30.8023 44.919 30.9035 44.8312 31.021 44.7706C31.1385 44.7101 31.2688 44.6787 31.401 44.679H33.676C33.8476 44.679 34.0148 44.7325 34.1546 44.8319C34.2944 44.9314 34.3997 45.0719 34.456 45.234L38.288 56.247Z" fill="#4AEFF7"/>
<path d="M30.837 46.475H34.862L35.233 47.468H31.208L30.837 46.475Z" fill="white"/>
<path d="M38.288 56.247H34.263L30.62 45.779C30.5762 45.6543 30.5629 45.5209 30.5813 45.39C30.5997 45.2591 30.6492 45.1345 30.7257 45.0268C30.8023 44.919 30.9035 44.8312 31.021 44.7706C31.1385 44.7101 31.2688 44.6787 31.401 44.679H33.676C33.8476 44.679 34.0148 44.7325 34.1546 44.8319C34.2944 44.9314 34.3997 45.0719 34.456 45.234L38.288 56.247Z" stroke="#45413C" stroke-linecap="round" stroke-linejoin="round"/>
<path d="M26.833 67.457H30.858V77.423H26.833V67.457Z" fill="#FFE500"/>
<path d="M26.833 73.493H30.858V75.146H26.833V73.493Z" fill="white"/>
<path d="M26.833 67.457H30.858V77.423H26.833V67.457Z" stroke="#45413C" stroke-linecap="round" stroke-linejoin="round"/>
<path d="M34.883 77.423H30.858V66.4C30.858 66.2674 30.9107 66.1402 31.0045 66.0465C31.0982 65.9527 31.2254 65.9 31.358 65.9H34.383C34.5156 65.9 34.6428 65.9527 34.7366 66.0465C34.8304 66.1402 34.883 66.2674 34.883 66.4V77.423Z" fill="#FF87AF"/>
<path d="M30.858 71.579H34.883V73.232H30.858V71.579Z" fill="white"/>
<path d="M34.883 77.423H30.858V66.4C30.858 66.2674 30.9107 66.1402 31.0045 66.0465C31.0982 65.9527 31.2254 65.9 31.358 65.9H34.383C34.5156 65.9 34.6428 65.9527 34.7366 66.0465C34.8304 66.1402 34.883 66.2674 34.883 66.4V77.423Z" stroke="#45413C" stroke-linecap="round" stroke-linejoin="round"/>
<path d="M34.883 67.457H38.908V77.423H34.883V67.457Z" fill="#FF6242"/>
<path d="M34.883 69.178H38.908V70.831H34.883V69.178Z" fill="white"/>
<path d="M34.883 67.457H38.908V77.423H34.883V67.457Z" stroke="#45413C" stroke-linecap="round" stroke-linejoin="round"/>
<path d="M42.933 77.423H38.908V67.457H41.933C42.1982 67.457 42.4526 67.5624 42.6401 67.7499C42.8277 67.9375 42.933 68.1918 42.933 68.457V77.423Z" fill="#DABFF5"/>
<path d="M38.908 74.2161H42.933V75.8691H38.908V74.2161Z" fill="white"/>
<path d="M42.933 77.423H38.908V67.457H41.933C42.1982 67.457 42.4526 67.5624 42.6401 67.7499C42.8277 67.9375 42.933 68.1918 42.933 68.457V77.423Z" stroke="#45413C" stroke-linecap="round" stroke-linejoin="round"/>
<path d="M51.611 77.423H47.586V70.037C47.586 69.9044 47.6387 69.7772 47.7324 69.6834C47.8262 69.5897 47.9534 69.537 48.086 69.537H51.611V77.423Z" fill="#4AEFF7"/>
<path d="M47.586 73.493H51.611V75.146H47.586V73.493Z" fill="white"/>
<path d="M51.611 77.423H47.586V70.037C47.586 69.9044 47.6387 69.7772 47.7324 69.6834C47.8262 69.5897 47.9534 69.537 48.086 69.537H51.611V77.423Z" stroke="#45413C" stroke-linecap="round" stroke-linejoin="round"/>
<path d="M55.636 77.423H51.611V66.917C51.611 66.7844 51.6637 66.6572 51.7575 66.5634C51.8512 66.4697 51.9784 66.417 52.111 66.417H55.136C55.2686 66.417 55.3958 66.4697 55.4896 66.5634C55.5833 66.6572 55.636 66.7844 55.636 66.917V77.423Z" fill="#FFE500"/>
<path d="M51.611 73.493H55.636V75.146H51.611V73.493Z" fill="white"/>
<path d="M55.636 77.423H51.611V66.917C51.611 66.7844 51.6637 66.6572 51.7575 66.5634C51.8512 66.4697 51.9784 66.417 52.111 66.417H55.136C55.2686 66.417 55.3958 66.4697 55.4896 66.5634C55.5833 66.6572 55.636 66.7844 55.636 66.917V77.423Z" stroke="#45413C" stroke-linecap="round" stroke-linejoin="round"/>
<path d="M69.3 38.708C69.3 38.4321 69.1905 38.1674 68.9954 37.9722C68.8004 37.7771 68.5359 37.6673 68.26 37.667H16.344C16.0681 37.6673 15.8036 37.7771 15.6085 37.9722C15.4135 38.1674 15.304 38.4321 15.304 38.708L13.922 70.508C15.2198 71.6942 16.5941 72.7939 18.036 73.8L18.556 63.7C18.5663 63.4313 18.6803 63.1771 18.874 62.9907C19.0677 62.8042 19.3261 62.7 19.595 62.7H65.011C65.28 62.6998 65.5387 62.8039 65.7326 62.9903C65.9265 63.1768 66.0407 63.4312 66.051 63.7L66.202 71.99C67.7589 70.719 69.2186 69.3335 70.569 67.845L69.3 38.708ZM18.078 56.247L19.118 43.347C19.118 43.0712 19.2276 42.8066 19.4226 42.6116C19.6176 42.4166 19.8822 42.307 20.158 42.307H64.449C64.7248 42.307 64.9894 42.4166 65.1844 42.6116C65.3794 42.8066 65.489 43.0712 65.489 43.347L66.529 56.247H18.078Z" fill="#E09F7E"/>
<path d="M70.569 67.849L69.3 38.708C69.3 38.4321 69.1905 38.1674 68.9954 37.9722C68.8004 37.7771 68.5359 37.6673 68.26 37.667H16.344C16.0681 37.6673 15.8036 37.7771 15.6085 37.9722C15.4135 38.1674 15.304 38.4321 15.304 38.708L13.922 70.508M18.036 73.8L18.556 63.7C18.5663 63.4313 18.6803 63.1771 18.874 62.9907C19.0677 62.8042 19.3261 62.7 19.595 62.7H65.011C65.28 62.6998 65.5387 62.8039 65.7326 62.9903C65.9265 63.1768 66.0407 63.4312 66.051 63.7L66.202 71.99M18.078 56.247L19.118 43.347C19.118 43.0712 19.2276 42.8066 19.4226 42.6116C19.6176 42.4166 19.8822 42.307 20.158 42.307H64.449C64.7248 42.307 64.9894 42.4166 65.1844 42.6116C65.3794 42.8066 65.489 43.0712 65.489 43.347L66.529 56.247H18.078Z" stroke="#45413C" stroke-linecap="round" stroke-linejoin="round"/>
<path d="M62.686 34.172C62.915 29.003 63.155 23.072 65.42 20.015" stroke="#45413C" stroke-linecap="round" stroke-linejoin="round"/>
<path d="M64.285 17.249C64.319 17.236 64.353 17.231 64.385 17.22C64.372 17.186 64.354 17.157 64.341 17.12C64.1194 16.7005 64.0675 16.2119 64.1959 15.7552C64.3243 15.2985 64.6233 14.9085 65.031 14.666C65.807 14.38 66.756 15.013 67.151 16.082C67.163 16.116 67.169 16.15 67.18 16.182C67.213 16.168 67.243 16.15 67.28 16.138C67.6994 15.9165 68.1878 15.8645 68.6443 15.993C69.1009 16.1214 69.4906 16.4203 69.733 16.828C70.02 17.604 69.386 18.552 68.318 18.947C68.284 18.96 68.25 18.965 68.218 18.977C68.232 19.01 68.249 19.039 68.262 19.077C68.4833 19.4965 68.5352 19.985 68.4068 20.4417C68.2784 20.8983 67.9796 21.2883 67.572 21.531C66.796 21.817 65.847 21.184 65.452 20.116C65.44 20.082 65.434 20.047 65.423 20.016C65.39 20.029 65.36 20.047 65.323 20.059C64.9038 20.2806 64.4154 20.3327 63.9589 20.2044C63.5023 20.0762 63.1125 19.7775 62.87 19.37C62.583 18.593 63.217 17.644 64.285 17.249Z" fill="#FFF48C" stroke="#45413C" stroke-linecap="round" stroke-linejoin="round"/>
<path d="M62.1 31.409C61.871 26.241 61.632 20.309 59.366 17.252" stroke="#45413C" stroke-linecap="round" stroke-linejoin="round"/>
<path d="M63.957 27.416L65.202 24.926H60.478L61.621 27.432C60.5467 27.6486 59.5501 28.1493 58.7352 28.8821C57.9203 29.6149 57.3169 30.5529 56.9879 31.5983C56.6589 32.6437 56.6164 33.7582 56.8648 34.8256C57.1131 35.893 57.6433 36.8743 58.4 37.667H67.273C68.0361 36.8686 68.569 35.8786 68.8152 34.802C69.0614 33.7253 69.0118 32.6021 68.6716 31.5514C68.3314 30.5007 67.7133 29.5615 66.8828 28.8335C66.0523 28.1055 65.0403 27.6157 63.954 27.416H63.957Z" fill="white"/>
<path d="M56.853 32.11C57.0508 32.9527 57.5312 33.7024 58.2141 34.2343C58.897 34.7663 59.7415 35.0485 60.607 35.034H65.073C65.9383 35.0483 66.7826 34.7662 67.4654 34.2345C68.1483 33.7028 68.6288 32.9535 68.827 32.111C69.0446 33.0932 69.0169 34.114 68.7464 35.083C68.4759 36.052 67.9709 36.9395 67.276 37.667H58.4C57.7054 36.9391 57.2007 36.0514 56.9304 35.0822C56.6601 34.1131 56.6325 33.0923 56.85 32.11H56.853Z" fill="#F8F8F8"/>
<path d="M63.957 27.416L65.202 24.926H60.478L61.621 27.432C60.5467 27.6486 59.5501 28.1493 58.7352 28.8821C57.9203 29.6149 57.3169 30.5529 56.9879 31.5983C56.6589 32.6437 56.6164 33.7582 56.8648 34.8256C57.1131 35.893 57.6433 36.8743 58.4 37.667H67.273C68.0361 36.8686 68.569 35.8786 68.8152 34.802C69.0614 33.7253 69.0118 32.6021 68.6716 31.5514C68.3314 30.5007 67.7133 29.5615 66.8828 28.8335C66.0523 28.1055 65.0403 27.6157 63.954 27.416H63.957Z" stroke="#45413C" stroke-linecap="round" stroke-linejoin="round"/>
<path d="M22.808 68.457V76.657C23.33 76.9237 23.858 77.1777 24.392 77.419H26.833V67.457H23.808C23.5428 67.457 23.2884 67.5624 23.1009 67.7499C22.9133 67.9375 22.808 68.1918 22.808 68.457Z" fill="#4AEFF7"/>
<path d="M58.661 67.457H55.636V77.423H57.449C58.198 77.083 58.937 76.723 59.661 76.339V68.457C59.661 68.1918 59.5556 67.9375 59.3681 67.7499C59.1806 67.5624 58.9262 67.457 58.661 67.457Z" fill="#FF87AF"/>
<path d="M63.186 69.537H59.661V76.337C61.0501 75.5986 62.3941 74.7785 63.686 73.881V70.037C63.686 69.9044 63.6333 69.7772 63.5396 69.6834C63.4458 69.5897 63.3186 69.537 63.186 69.537Z" fill="#4AEFF7"/>
<path d="M63.686 73.883V70.037C63.686 69.9044 63.6333 69.7772 63.5396 69.6834C63.4458 69.5897 63.3186 69.537 63.186 69.537H59.661V76.337" stroke="#45413C" stroke-linecap="round" stroke-linejoin="round"/>
<path d="M55.636 74.2161H59.661V75.8691H55.636V74.2161Z" fill="white"/>
<path d="M59.661 76.339V68.457C59.661 68.1918 59.5556 67.9375 59.3681 67.7499C59.1806 67.5624 58.9262 67.457 58.661 67.457H55.636V77.423H57.449" stroke="#45413C" stroke-linecap="round" stroke-linejoin="round"/>
<path d="M22.808 74.3199H26.833V75.9729H22.808V74.3199Z" fill="white"/>
<path d="M24.392 77.423H26.833V67.457H23.808C23.5428 67.457 23.2884 67.5624 23.1009 67.7499C22.9133 67.9375 22.808 68.1918 22.808 68.457V76.657" stroke="#45413C" stroke-linecap="round" stroke-linejoin="round"/>
<path d="M24.392 77.423C29.5833 79.7803 35.2189 80.9999 40.9205 80.9999C46.622 80.9999 52.2576 79.7803 57.449 77.423H24.392Z" fill="#E09F7E"/>
<path d="M57.449 77.423H24.392" stroke="#45413C" stroke-linecap="round" stroke-linejoin="round"/>
<path d="M1 41C1 51.6087 5.21427 61.7828 12.7157 69.2843C20.2172 76.7857 30.3913 81 41 81C51.6087 81 61.7828 76.7857 69.2843 69.2843C76.7857 61.7828 81 51.6087 81 41C81 30.3913 76.7857 20.2172 69.2843 12.7157C61.7828 5.21427 51.6087 1 41 1C30.3913 1 20.2172 5.21427 12.7157 12.7157C5.21427 20.2172 1 30.3913 1 41Z" stroke="#DAEDF7"/>
</svg>
