<svg width="48" height="48" viewBox="0 0 48 48" fill="none" xmlns="http://www.w3.org/2000/svg">
<path fill-rule="evenodd" clip-rule="evenodd" d="M29.168 37.5C28.1083 39.3547 26.1361 40.4994 24 40.4994C21.8639 40.4994 19.8917 39.3547 18.832 37.5H1.5V40.5C1.5 43.8137 4.18629 46.5 7.5 46.5H40.5C43.8137 46.5 46.5 43.8137 46.5 40.5V37.5H29.168Z" stroke="url(#paint0_linear)" stroke-width="2.5" stroke-linecap="round" stroke-linejoin="round"/>
<path d="M43.5 37.5V28.24" stroke="url(#paint1_linear)" stroke-width="2.5" stroke-linecap="round" stroke-linejoin="round"/>
<path d="M4.5 37.5V19.5C4.5 16.1863 7.18629 13.5 10.5 13.5H28.5" stroke="url(#paint2_linear)" stroke-width="2.5" stroke-linecap="round" stroke-linejoin="round"/>
<path fill-rule="evenodd" clip-rule="evenodd" d="M28.5 3.75C28.5 2.50736 29.5074 1.5 30.75 1.5H44.25C45.4926 1.5 46.5 2.50736 46.5 3.75V26.25C46.5 27.4926 45.4926 28.5 44.25 28.5H30.75C29.5074 28.5 28.5 27.4926 28.5 26.25V3.75Z" stroke="url(#paint3_linear)" stroke-width="2.5" stroke-linecap="round" stroke-linejoin="round"/>
<path d="M46.5 22.5H28.5" stroke="url(#paint4_linear)" stroke-width="2.5" stroke-linecap="round" stroke-linejoin="round"/>
<path d="M46.5 7.5H28.5" stroke="url(#paint5_linear)" stroke-width="2.5" stroke-linecap="round" stroke-linejoin="round"/>
<defs>
<linearGradient id="paint0_linear" x1="24" y1="37.5" x2="24" y2="46.5" gradientUnits="userSpaceOnUse">
<stop stop-color="#2200FF"/>
<stop offset="1" stop-color="#9E00FF"/>
</linearGradient>
<linearGradient id="paint1_linear" x1="44.5" y1="28.24" x2="44.5" y2="37.5" gradientUnits="userSpaceOnUse">
<stop stop-color="#2200FF"/>
<stop offset="1" stop-color="#9E00FF"/>
</linearGradient>
<linearGradient id="paint2_linear" x1="16.5" y1="13.5" x2="16.5" y2="37.5" gradientUnits="userSpaceOnUse">
<stop stop-color="#2200FF"/>
<stop offset="1" stop-color="#9E00FF"/>
</linearGradient>
<linearGradient id="paint3_linear" x1="37.5" y1="1.5" x2="37.5" y2="28.5" gradientUnits="userSpaceOnUse">
<stop stop-color="#2200FF"/>
<stop offset="1" stop-color="#9E00FF"/>
</linearGradient>
<linearGradient id="paint4_linear" x1="37.5" y1="22.5" x2="37.5" y2="24.5" gradientUnits="userSpaceOnUse">
<stop stop-color="#2200FF"/>
<stop offset="1" stop-color="#9E00FF"/>
</linearGradient>
<linearGradient id="paint5_linear" x1="37.5" y1="7.5" x2="37.5" y2="9.5" gradientUnits="userSpaceOnUse">
<stop stop-color="#2200FF"/>
<stop offset="1" stop-color="#9E00FF"/>
</linearGradient>
</defs>
</svg>
