<svg width="100" height="100" viewBox="0 0 100 100" fill="none" xmlns="http://www.w3.org/2000/svg">
<g clip-path="url(#clip0_52_97)">
<path d="M5 50C5 60.6087 9.21427 70.7828 16.7157 78.2843C24.2172 85.7857 34.3913 90 45 90C55.6087 90 65.7828 85.7857 73.2843 78.2843C80.7857 70.7828 85 60.6087 85 50C85 39.3913 80.7857 29.2172 73.2843 21.7157C65.7828 14.2143 55.6087 10 45 10C34.3913 10 24.2172 14.2143 16.7157 21.7157C9.21427 29.2172 5 39.3913 5 50Z" fill="#DAEDF7" stroke="#DAEDF7"/>
<path d="M36.92 23.76C36.923 25.3637 37.5613 26.9008 38.6953 28.0348C39.8292 29.1687 41.3664 29.8071 42.97 29.81H47.37C47.6618 29.81 47.9416 29.9259 48.1479 30.1322C48.3542 30.3385 48.47 30.6183 48.47 30.91V35.31H51.77V30.91C51.77 30.6183 51.8859 30.3385 52.0922 30.1322C52.2985 29.9259 52.5783 29.81 52.87 29.81H57.27C58.8746 29.81 60.4134 29.1726 61.548 28.038C62.6826 26.9034 63.32 25.3646 63.32 23.76C63.32 22.1554 62.6826 20.6166 61.548 19.482C60.4134 18.3474 58.8746 17.71 57.27 17.71C56.1401 17.7103 55.0371 18.0551 54.1081 18.6983C53.179 19.3414 52.4681 20.2525 52.07 21.31L51.153 23.76C51.0744 23.9697 50.9337 24.1504 50.7496 24.2779C50.5656 24.4055 50.347 24.4739 50.123 24.4739C49.8991 24.4739 49.6805 24.4055 49.4964 24.2779C49.3124 24.1504 49.1717 23.9697 49.093 23.76L48.176 21.31C47.7792 20.2517 47.0686 19.3398 46.1393 18.6965C45.21 18.0531 44.1063 17.7089 42.976 17.71C41.3708 17.7095 39.831 18.3465 38.6953 19.481C37.5597 20.6156 36.9211 22.1547 36.92 23.76ZM55.07 24C55.0689 23.5463 55.2022 23.1024 55.4533 22.7245C55.7044 22.3466 56.0619 22.0516 56.4806 21.8769C56.8993 21.7022 57.3605 21.6556 57.8057 21.7429C58.2509 21.8303 58.6602 22.0477 58.9819 22.3677C59.3036 22.6876 59.5231 23.0958 59.6128 23.5406C59.7025 23.9853 59.6582 24.4467 59.4857 24.8663C59.3132 25.286 59.0201 25.645 58.6435 25.8981C58.2669 26.1511 57.8238 26.2868 57.37 26.288C56.7625 26.2867 56.1801 26.0456 55.7494 25.6171C55.3187 25.1887 55.0745 24.6075 55.07 24ZM40.594 24C40.594 23.5475 40.7282 23.1051 40.9796 22.7288C41.2311 22.3526 41.5884 22.0593 42.0065 21.8862C42.4245 21.713 42.8846 21.6677 43.3284 21.756C43.7722 21.8442 44.1799 22.0622 44.4999 22.3821C44.8199 22.7021 45.0378 23.1098 45.1261 23.5536C45.2144 23.9975 45.1691 24.4575 44.9959 24.8756C44.8227 25.2937 44.5295 25.651 44.1532 25.9024C43.7769 26.1538 43.3346 26.288 42.882 26.288C42.2762 26.2848 41.6961 26.0428 41.2677 25.6144C40.8393 25.186 40.5972 24.6058 40.594 24Z" fill="#ADC4D9"/>
<path d="M42.97 19.707C44.1003 19.7059 45.2039 20.0501 46.1332 20.6935C47.0625 21.3368 47.7732 22.2487 48.17 23.307C48.3185 23.7035 48.5845 24.0452 48.9324 24.2865C49.2803 24.5277 49.6936 24.657 50.117 24.657C50.5404 24.657 50.9537 24.5277 51.3017 24.2865C51.6496 24.0452 51.9156 23.7035 52.064 23.307C52.4621 22.2495 53.173 21.3384 54.1021 20.6953C55.0311 20.0521 56.1341 19.7073 57.264 19.707C58.6946 19.707 60.0788 20.2145 61.1703 21.1392C62.2619 22.0639 62.9899 23.3459 63.225 24.757C63.3758 23.8903 63.3347 23.0012 63.1045 22.1521C62.8744 21.3031 62.4609 20.5148 61.8931 19.8429C61.3253 19.171 60.6171 18.6318 59.8183 18.2633C59.0196 17.8948 58.1497 17.7059 57.27 17.71C56.1401 17.7103 55.0371 18.0551 54.1081 18.6983C53.179 19.3414 52.4681 20.2525 52.07 21.31L51.153 23.759C51.0744 23.9687 50.9337 24.1494 50.7496 24.2769C50.5656 24.4045 50.347 24.4729 50.123 24.4729C49.8991 24.4729 49.6805 24.4045 49.4964 24.2769C49.3124 24.1494 49.1716 23.9687 49.093 23.759L48.176 21.31C47.7792 20.2517 47.0685 19.3398 46.1392 18.6965C45.2099 18.0531 44.1063 17.7089 42.976 17.71C41.3718 17.7111 39.8336 18.3488 38.6992 19.4832C37.5648 20.6175 36.9271 22.1558 36.926 23.76C36.9279 24.0953 36.958 24.4298 37.016 24.76C37.2516 23.3501 37.9787 22.0692 39.0686 21.1442C40.1584 20.2193 41.5406 19.7101 42.97 19.707Z" fill="#DAEDF7"/>
<path d="M36.92 23.76C36.923 25.3637 37.5613 26.9008 38.6953 28.0348C39.8292 29.1687 41.3664 29.8071 42.97 29.81H47.37C47.6618 29.81 47.9416 29.9259 48.1479 30.1322C48.3542 30.3385 48.47 30.6183 48.47 30.91V35.31H51.77V30.91C51.77 30.6183 51.8859 30.3385 52.0922 30.1322C52.2985 29.9259 52.5783 29.81 52.87 29.81H57.27C58.8746 29.81 60.4134 29.1726 61.548 28.038C62.6826 26.9034 63.32 25.3646 63.32 23.76C63.32 22.1554 62.6826 20.6166 61.548 19.482C60.4134 18.3474 58.8746 17.71 57.27 17.71C56.1401 17.7103 55.0371 18.0551 54.1081 18.6983C53.179 19.3414 52.4681 20.2525 52.07 21.31L51.153 23.76C51.0744 23.9697 50.9337 24.1504 50.7496 24.2779C50.5656 24.4055 50.347 24.4739 50.123 24.4739C49.8991 24.4739 49.6805 24.4055 49.4964 24.2779C49.3124 24.1504 49.1717 23.9697 49.093 23.76L48.176 21.31C47.7792 20.2517 47.0686 19.3398 46.1393 18.6965C45.21 18.0531 44.1063 17.7089 42.976 17.71C41.3708 17.7095 39.831 18.3465 38.6953 19.481C37.5597 20.6156 36.9211 22.1547 36.92 23.76ZM55.07 24C55.0689 23.5463 55.2022 23.1024 55.4533 22.7245C55.7044 22.3466 56.0619 22.0516 56.4806 21.8769C56.8993 21.7022 57.3605 21.6556 57.8057 21.7429C58.2509 21.8303 58.6602 22.0477 58.9819 22.3677C59.3036 22.6876 59.5231 23.0958 59.6128 23.5406C59.7025 23.9853 59.6582 24.4467 59.4857 24.8663C59.3132 25.286 59.0201 25.645 58.6435 25.8981C58.2669 26.1511 57.8238 26.2868 57.37 26.288C56.7625 26.2867 56.1801 26.0456 55.7494 25.6171C55.3187 25.1887 55.0745 24.6075 55.07 24ZM40.594 24C40.594 23.5475 40.7282 23.1051 40.9796 22.7288C41.2311 22.3526 41.5884 22.0593 42.0065 21.8862C42.4245 21.713 42.8846 21.6677 43.3284 21.756C43.7722 21.8442 44.1799 22.0622 44.4999 22.3821C44.8199 22.7021 45.0378 23.1098 45.1261 23.5536C45.2144 23.9975 45.1691 24.4575 44.9959 24.8756C44.8227 25.2937 44.5295 25.651 44.1532 25.9024C43.7769 26.1538 43.3346 26.288 42.882 26.288C42.2762 26.2848 41.6961 26.0428 41.2677 25.6144C40.8393 25.186 40.5972 24.6058 40.594 24Z" stroke="#45413C" stroke-linecap="round" stroke-linejoin="round"/>
<path d="M51.585 66.756C51.1574 66.4512 50.6263 66.3285 50.1084 66.4147C49.5904 66.501 49.1278 66.7891 48.822 67.216L43.752 74.316C43.5996 74.5291 43.3762 74.6809 43.122 74.7439C42.8677 74.807 42.5993 74.7772 42.365 74.66L39.439 73.2C38.9692 72.9652 38.4253 72.9266 37.927 73.0927C37.4287 73.2589 37.0168 73.6162 36.782 74.086C36.5471 74.5558 36.5085 75.0997 36.6747 75.598C36.8409 76.0963 37.1982 76.5082 37.668 76.743L45.588 80.703C45.8206 80.8193 46.0739 80.8886 46.3333 80.907C46.5927 80.9254 46.8533 80.8926 47.1 80.8103C47.3467 80.728 47.5748 80.598 47.7713 80.4275C47.9677 80.2571 48.1287 80.0497 48.245 79.817C48.3613 79.5844 48.4306 79.3311 48.449 79.0717C48.4674 78.8123 48.4345 78.5517 48.3523 78.305C48.27 78.0583 48.1399 77.8302 47.9695 77.6337C47.7991 77.4373 47.5916 77.2763 47.359 77.16C47.2888 77.1251 47.227 77.0754 47.1779 77.0143C47.1288 76.9532 47.0935 76.8822 47.0745 76.8061C47.0555 76.7301 47.0532 76.6508 47.0678 76.5738C47.0823 76.4968 47.1135 76.4238 47.159 76.36L52.043 69.522C52.1946 69.3104 52.303 69.0709 52.362 68.8173C52.4211 68.5637 52.4296 68.301 52.387 68.0441C52.3445 67.7873 52.2518 67.5413 52.1142 67.3203C51.9765 67.0993 51.7967 66.9075 51.585 66.756Z" fill="#FFCC99" stroke="#45413C" stroke-linecap="round" stroke-linejoin="round"/>
<path d="M44.475 73.307C45.503 74.1427 46.6205 74.8618 47.807 75.451L52.045 69.519C52.3282 69.0909 52.4341 68.5697 52.3405 68.065C52.247 67.5604 51.9612 67.1118 51.5435 66.8136C51.1257 66.5155 50.6085 66.3911 50.1009 66.4668C49.5932 66.5424 49.1348 66.812 48.822 67.219L44.473 73.308" fill="#FFAA54"/>
<path d="M51.585 66.756C51.1574 66.4512 50.6263 66.3285 50.1084 66.4147C49.5904 66.501 49.1278 66.7891 48.822 67.216L43.752 74.316C43.5996 74.5291 43.3762 74.6809 43.122 74.7439C42.8677 74.807 42.5993 74.7772 42.365 74.66L39.439 73.2C38.9692 72.9652 38.4253 72.9266 37.927 73.0927C37.4287 73.2589 37.0168 73.6162 36.782 74.086C36.5471 74.5558 36.5085 75.0997 36.6747 75.598C36.8409 76.0963 37.1982 76.5082 37.668 76.743L45.588 80.703C45.8206 80.8193 46.0739 80.8886 46.3333 80.907C46.5927 80.9254 46.8533 80.8926 47.1 80.8103C47.3467 80.728 47.5748 80.598 47.7713 80.4275C47.9677 80.2571 48.1287 80.0497 48.245 79.817C48.3613 79.5844 48.4306 79.3311 48.449 79.0717C48.4674 78.8123 48.4345 78.5517 48.3523 78.305C48.27 78.0583 48.1399 77.8302 47.9695 77.6337C47.7991 77.4373 47.5916 77.2763 47.359 77.16C47.2888 77.1251 47.227 77.0754 47.1779 77.0143C47.1288 76.9532 47.0935 76.8822 47.0745 76.8061C47.0555 76.7301 47.0532 76.6508 47.0678 76.5738C47.0823 76.4968 47.1135 76.4238 47.159 76.36L52.043 69.522C52.1946 69.3104 52.303 69.0709 52.362 68.8173C52.4211 68.5637 52.4296 68.301 52.387 68.0441C52.3445 67.7873 52.2518 67.5413 52.1142 67.3203C51.9765 67.0993 51.7967 66.9075 51.585 66.756Z" stroke="#45413C" stroke-linecap="round" stroke-linejoin="round"/>
<path opacity="0.15" d="M38.225 81.834C38.225 82.2366 40.0367 82.6227 43.2616 82.9074C46.4864 83.1921 50.8603 83.352 55.421 83.352C59.9816 83.352 64.3555 83.1921 67.5804 82.9074C70.8053 82.6227 72.617 82.2366 72.617 81.834C72.617 81.4314 70.8053 81.0453 67.5804 80.7606C64.3555 80.4759 59.9816 80.316 55.421 80.316C50.8603 80.316 46.4864 80.4759 43.2616 80.7606C40.0367 81.0453 38.225 81.4314 38.225 81.834Z" fill="#45413C"/>
<path d="M74.78 56.237C74.9658 56.2373 75.1494 56.2767 75.3189 56.3527C75.4884 56.4287 75.64 56.5395 75.7638 56.6781C75.8876 56.8166 75.9808 56.9796 76.0374 57.1566C76.0939 57.3335 76.1126 57.5204 76.092 57.705C75.077 66.773 64.828 73.9 55.555 73.9C50.8711 73.8987 46.3794 72.0373 43.0676 68.7251C39.7557 65.4128 37.8948 60.9209 37.894 56.237V46.588C37.894 43.4372 39.1457 40.4155 41.3736 38.1876C43.6015 35.9596 46.6233 34.708 49.774 34.708C52.9248 34.708 55.9465 35.9596 58.1745 38.1876C60.4024 40.4155 61.654 43.4372 61.654 46.588V53.6C61.654 54.3002 61.9322 54.9717 62.4273 55.4668C62.9224 55.9619 63.5939 56.24 64.294 56.24L74.78 56.237Z" fill="#FFE500"/>
<path d="M37.894 51.4V56.242C37.8962 60.9251 39.7576 65.4157 43.0694 68.7268C46.3811 72.0379 50.872 73.8987 55.555 73.9C64.828 73.9 75.077 66.775 76.092 57.707C76.1247 57.4129 76.0578 57.1163 75.9021 56.8647C75.7464 56.6131 75.5108 56.421 75.233 56.319C72.408 63.681 63.617 69.063 55.552 69.063C50.87 69.0582 46.3812 67.1954 43.0716 63.8837C39.7619 60.5719 37.9019 56.082 37.9 51.4" fill="#EBCB00"/>
<path d="M74.78 56.237C74.9658 56.2373 75.1494 56.2767 75.3189 56.3527C75.4884 56.4287 75.64 56.5395 75.7638 56.6781C75.8876 56.8166 75.9808 56.9796 76.0374 57.1566C76.0939 57.3335 76.1126 57.5204 76.092 57.705C75.077 66.773 64.828 73.9 55.555 73.9C50.8711 73.8987 46.3794 72.0373 43.0676 68.7251C39.7557 65.4128 37.8948 60.9209 37.894 56.237V46.588C37.894 43.4372 39.1457 40.4155 41.3736 38.1876C43.6015 35.9596 46.6233 34.708 49.774 34.708C52.9248 34.708 55.9465 35.9596 58.1745 38.1876C60.4024 40.4155 61.654 43.4372 61.654 46.588V53.6C61.654 54.3002 61.9322 54.9717 62.4273 55.4668C62.9224 55.9619 63.5939 56.24 64.294 56.24L74.78 56.237Z" stroke="#45413C" stroke-linecap="round" stroke-linejoin="round"/>
<path d="M42.22 45.928C42.22 47.5034 42.8458 49.0143 43.9598 50.1282C45.0737 51.2422 46.5846 51.868 48.16 51.868C49.7354 51.868 51.2462 51.2422 52.3602 50.1282C53.4741 49.0143 54.1 47.5034 54.1 45.928C54.1 44.3526 53.4741 42.8418 52.3602 41.7278C51.2462 40.6138 49.7354 39.988 48.16 39.988C46.5846 39.988 45.0737 40.6138 43.9598 41.7278C42.8458 42.8418 42.22 44.3526 42.22 45.928Z" fill="white" stroke="#45413C" stroke-linecap="round" stroke-linejoin="round"/>
<path d="M43.09 43.828C43.09 44.6157 43.4029 45.3711 43.9599 45.9281C44.5168 46.4851 45.2723 46.798 46.06 46.798C46.8477 46.798 47.6031 46.4851 48.1601 45.9281C48.7171 45.3711 49.03 44.6157 49.03 43.828C49.03 43.0403 48.7171 42.2849 48.1601 41.7279C47.6031 41.1709 46.8477 40.858 46.06 40.858C45.2723 40.858 44.5168 41.1709 43.9599 41.7279C43.4029 42.2849 43.09 43.0403 43.09 43.828Z" fill="#4ACFFF" stroke="#45413C" stroke-linecap="round" stroke-linejoin="round"/>
<path d="M38.872 45.9C38.7335 45.7152 38.5404 45.5786 38.32 45.5097C38.0996 45.4408 37.8631 45.443 37.644 45.516L32.092 47.367C31.924 47.4231 31.7449 47.4379 31.57 47.41C31.3082 47.3678 31.0399 47.3987 30.7946 47.4992C30.5492 47.5998 30.3364 47.766 30.1795 47.9797C30.0225 48.1934 29.9276 48.4462 29.9051 48.7104C29.8826 48.9746 29.9334 49.2398 30.052 49.477L30.519 50.41C30.62 50.615 30.6549 50.8463 30.619 51.072C30.5697 51.3836 30.5984 51.7025 30.7026 52.0002C30.8067 52.298 30.983 52.5653 31.2157 52.7783C31.4483 52.9913 31.7302 53.1433 32.036 53.2207C32.3418 53.2981 32.662 53.2986 32.968 53.222L33.727 53.032C33.902 52.989 34.0849 52.989 34.26 53.032L37.685 53.889C37.8951 53.9414 38.116 53.9307 38.3201 53.8581C38.5241 53.7856 38.7022 53.6544 38.832 53.481L41.2 50.328C41.3428 50.1376 41.42 49.906 41.42 49.668C41.42 49.43 41.3428 49.1984 41.2 49.008L38.872 45.9Z" fill="#FFAA54" stroke="#45413C" stroke-linecap="round" stroke-linejoin="round"/>
<path d="M67.3 56.237C67.3041 57.3952 67.0795 58.5429 66.6391 59.6141C66.1986 60.6854 65.5511 61.6591 64.7335 62.4796C63.916 63.3 62.9445 63.951 61.8748 64.3952C60.8051 64.8394 59.6582 65.068 58.5 65.068" stroke="#45413C" stroke-linecap="round" stroke-linejoin="round"/>
<path d="M50.349 69.468C52.2422 70.2185 54.2636 70.5921 56.3 70.568C59.081 70.568 62.457 69.862 64.605 68.06" stroke="#45413C" stroke-linecap="round" stroke-linejoin="round"/>
<path d="M68.52 73.829C68.1638 73.4443 67.6709 73.2147 67.1472 73.1899C66.6235 73.165 66.111 73.3467 65.72 73.696C65.6619 73.7493 65.5929 73.7895 65.5178 73.8136C65.4427 73.8377 65.3633 73.8453 65.285 73.8358C65.2066 73.8263 65.1313 73.7999 65.0642 73.7585C64.997 73.7171 64.9396 73.6617 64.896 73.596L62.182 69.485C60.8708 70.0049 59.4929 70.3379 58.089 70.474L61.77 76.05C61.9143 76.2686 61.9758 76.5315 61.9436 76.7915C61.9113 77.0514 61.7874 77.2913 61.594 77.468L60.418 78.543C60.0318 78.8978 59.8024 79.3914 59.7801 79.9154C59.7577 80.4393 59.9444 80.9506 60.299 81.337C60.652 81.7238 61.1442 81.9547 61.6673 81.9789C62.1904 82.0031 62.7018 81.8186 63.089 81.466L68.389 76.621C68.7736 76.2664 69.0031 75.7745 69.0276 75.2519C69.0521 74.7293 68.8697 74.2181 68.52 73.829Z" fill="#FFCC99"/>
<path d="M62.182 69.483C60.8708 70.0029 59.4929 70.3359 58.089 70.472L60.578 74.242C61.931 73.9657 63.2559 73.5661 64.536 73.048L62.182 69.483Z" fill="#FFAA54"/>
<path d="M68.52 73.829C68.1638 73.4443 67.6709 73.2147 67.1472 73.1899C66.6235 73.165 66.111 73.3467 65.72 73.696C65.6619 73.7493 65.5929 73.7895 65.5178 73.8136C65.4427 73.8377 65.3633 73.8453 65.285 73.8358C65.2066 73.8263 65.1313 73.7999 65.0642 73.7585C64.997 73.7171 64.9396 73.6617 64.896 73.596L62.182 69.485C60.8708 70.0049 59.4929 70.3379 58.089 70.474L61.77 76.05C61.9143 76.2686 61.9758 76.5315 61.9436 76.7915C61.9113 77.0514 61.7874 77.2913 61.594 77.468L60.418 78.543C60.0318 78.8978 59.8024 79.3914 59.7801 79.9154C59.7577 80.4393 59.9444 80.9506 60.299 81.337C60.652 81.7238 61.1442 81.9547 61.6673 81.9789C62.1904 82.0031 62.7018 81.8186 63.089 81.466L68.389 76.621C68.7736 76.2664 69.0031 75.7745 69.0276 75.2519C69.0521 74.7293 68.8697 74.2181 68.52 73.829Z" stroke="#45413C" stroke-linecap="round" stroke-linejoin="round"/>
<path d="M15 73H21V79H15V73Z" fill="#FFAA54" stroke="#45413C" stroke-linecap="round" stroke-linejoin="round"/>
<path d="M15 61H21V67H15V61Z" fill="#FFAA54" stroke="#45413C" stroke-linecap="round" stroke-linejoin="round"/>
<path d="M8 79H21V84H8V79Z" fill="#FF8A14" stroke="#45413C" stroke-linecap="round" stroke-linejoin="round"/>
<path d="M-5 79H8V84H-5V79Z" fill="#FFAA54" stroke="#45413C" stroke-linecap="round" stroke-linejoin="round"/>
<path d="M2 84H15V90H2V84Z" fill="#FFAA54" stroke="#45413C" stroke-linecap="round" stroke-linejoin="round"/>
<path d="M-11 84H2V90H-11V84Z" fill="#FFAA54" stroke="#45413C" stroke-linecap="round" stroke-linejoin="round"/>
<path d="M-5 67H8V73H-5V67Z" fill="#FFAA54" stroke="#45413C" stroke-linecap="round" stroke-linejoin="round"/>
<path d="M2 73H15V79H2V73Z" fill="#EB6D00" stroke="#45413C" stroke-linecap="round" stroke-linejoin="round"/>
<path d="M-11 73H2V79H-11V73Z" fill="#FFAA54" stroke="#45413C" stroke-linecap="round" stroke-linejoin="round"/>
<path d="M8 67H21V73H8V67Z" fill="#FF8A14" stroke="#45413C" stroke-linecap="round" stroke-linejoin="round"/>
<path d="M8 56H21V61H8V56Z" fill="#FFAA54" stroke="#45413C" stroke-linecap="round" stroke-linejoin="round"/>
<path d="M-5 56H8V61H-5V56Z" fill="#FFAA54" stroke="#45413C" stroke-linecap="round" stroke-linejoin="round"/>
<path d="M2 61H15V67H2V61Z" fill="#FFAA54" stroke="#45413C" stroke-linecap="round" stroke-linejoin="round"/>
<path d="M-11 61H2V67H-11V61Z" fill="#EB6D00" stroke="#45413C" stroke-linecap="round" stroke-linejoin="round"/>
<path d="M8 44H21V50H8V44Z" fill="#FFAA54" stroke="#45413C" stroke-linecap="round" stroke-linejoin="round"/>
<path d="M-5 44H8V50H-5V44Z" fill="#FFAA54" stroke="#45413C" stroke-linecap="round" stroke-linejoin="round"/>
<path d="M15 39H21V44H15V39Z" fill="#FF8A14" stroke="#45413C" stroke-linecap="round" stroke-linejoin="round"/>
<path d="M2 50H15V56H2V50Z" fill="#FF8A14" stroke="#45413C" stroke-linecap="round" stroke-linejoin="round"/>
<path d="M-11 50H2V56H-11V50Z" fill="#FFAA54" stroke="#45413C" stroke-linecap="round" stroke-linejoin="round"/>
<path d="M-5 33H8V39H-5V33Z" fill="#FFAA54" stroke="#45413C" stroke-linecap="round" stroke-linejoin="round"/>
<path d="M2 39H15V44H2V39Z" fill="#FFAA54" stroke="#45413C" stroke-linecap="round" stroke-linejoin="round"/>
<path d="M-11 39H2V44H-11V39Z" fill="#FFAA54" stroke="#45413C" stroke-linecap="round" stroke-linejoin="round"/>
<path d="M8 33H21V39H8V33Z" fill="#EB6D00" stroke="#45413C" stroke-linecap="round" stroke-linejoin="round"/>
<path d="M8 21H21V27H8V21Z" fill="#FFAA54" stroke="#45413C" stroke-linecap="round" stroke-linejoin="round"/>
<path d="M-5 21H8V27H-5V21Z" fill="#FF8A14" stroke="#45413C" stroke-linecap="round" stroke-linejoin="round"/>
<path d="M2 27H15V33H2V27Z" fill="#FF8A14" stroke="#45413C" stroke-linecap="round" stroke-linejoin="round"/>
<path d="M-11 27H2V33H-11V27Z" fill="#FFAA54" stroke="#45413C" stroke-linecap="round" stroke-linejoin="round"/>
<path d="M8 10H21V16H8V10Z" fill="#FF8A14" stroke="#45413C" stroke-linecap="round" stroke-linejoin="round"/>
<path d="M-5 10H8V16H-5V10Z" fill="#FFAA54" stroke="#45413C" stroke-linecap="round" stroke-linejoin="round"/>
<path d="M2 16H15V21H2V16Z" fill="#FFAA54" stroke="#45413C" stroke-linecap="round" stroke-linejoin="round"/>
<path d="M-11 16H2V21H-11V16Z" fill="#FFAA54" stroke="#45413C" stroke-linecap="round" stroke-linejoin="round"/>
<path d="M2 5C-5.29458 5.47499 -12.4208 7.17172 -19 10H2V5Z" fill="#EB6D00"/>
<path d="M15 5.56C12.1313 5.18643 9.23432 4.99924 6.33333 5C4.87541 5 3.43096 5.04625 2 5.13875V10H15V5.56Z" fill="#FFAA54"/>
<path d="M15 6V10H21V7.06419C19.0261 6.61161 17.0227 6.25628 15 6Z" fill="#FFAA54"/>
<path d="M-19 10H2V5" stroke="#45413C" stroke-linecap="round" stroke-linejoin="round"/>
<path d="M2 5V10H15V5.43327" stroke="#45413C" stroke-linecap="round" stroke-linejoin="round"/>
<path d="M15 6V10H21V7.06419" stroke="#45413C" stroke-linecap="round" stroke-linejoin="round"/>
<path d="M15 27H21V33H15V27Z" fill="#FFAA54" stroke="#45413C" stroke-linecap="round" stroke-linejoin="round"/>
<path d="M15 16H21V21H15V16Z" fill="#EB6D00" stroke="#45413C" stroke-linecap="round" stroke-linejoin="round"/>
<path d="M15 50H21V56H15V50Z" fill="#EB6D00" stroke="#45413C" stroke-linecap="round" stroke-linejoin="round"/>
<path d="M21 84H15V90H19.6667C20.0203 90 20.3594 89.8595 20.6095 89.6095C20.8595 89.3594 21 89.0203 21 88.6667V84Z" fill="#EB6D00" stroke="#45413C" stroke-linecap="round" stroke-linejoin="round"/>
</g>
<defs>
<clipPath id="clip0_52_97">
<rect width="100" height="100" fill="white"/>
</clipPath>
</defs>
</svg>
