<svg width="82" height="82" viewBox="0 0 82 82" fill="none" xmlns="http://www.w3.org/2000/svg">
<path d="M1 41C1 51.6087 5.21427 61.7828 12.7157 69.2843C20.2172 76.7857 30.3913 81 41 81C51.6087 81 61.7828 76.7857 69.2843 69.2843C76.7857 61.7828 81 51.6087 81 41C81 30.3913 76.7857 20.2172 69.2843 12.7157C61.7828 5.21427 51.6087 1 41 1C30.3913 1 20.2172 5.21427 12.7157 12.7157C5.21427 20.2172 1 30.3913 1 41Z" fill="#DAEDF7" stroke="#DAEDF7"/>
<path d="M35.1809 37.1624L29.5569 31.5384L37.9928 24.976L41.7421 28.7253L35.1809 37.1624Z" fill="#ADC4D9" stroke="#45413C"/>
<path d="M22.7097 27.0191C23.6882 26.4539 24.8217 26.2162 25.9448 26.3407C27.068 26.4651 28.1219 26.9452 28.953 27.7108L37.1256 35.2379C37.7372 35.8014 38.2078 36.5008 38.4992 37.2797C38.7907 38.0586 38.8948 38.8952 38.8032 39.7218C38.7116 40.5483 38.4269 41.3418 37.972 42.038C37.5171 42.7343 36.9049 43.3137 36.1847 43.7296L24.0623 50.7299C22.8449 51.4312 21.3989 51.6207 20.0419 51.2568C18.6849 50.8928 17.5278 50.0052 16.8247 48.7888L11.5163 39.6077C11.1682 39.0047 10.9422 38.3389 10.8513 37.6485C10.7604 36.9581 10.8064 36.2566 10.9866 35.5839C11.1669 34.9113 11.4778 34.2808 11.9018 33.7283C12.3257 33.1759 12.8544 32.7124 13.4574 32.3642L22.7097 27.0191Z" fill="#4ACFFF" stroke="#45413C"/>
<path d="M22.7097 27.0191C23.6882 26.4539 24.8217 26.2162 25.9448 26.3407C27.068 26.4651 28.1219 26.9452 28.953 27.7108L37.1256 35.2379C37.7372 35.8014 38.2078 36.5008 38.4992 37.2797C38.7907 38.0586 38.8948 38.8952 38.8032 39.7218C38.7116 40.5483 38.4269 41.3418 37.972 42.038C37.5171 42.7343 36.9049 43.3137 36.1847 43.7296L24.0623 50.7299C22.8449 51.4312 21.3989 51.6207 20.0419 51.2568C18.6849 50.8928 17.5278 50.0052 16.8247 48.7888L11.5163 39.6077C11.1682 39.0047 10.9422 38.3389 10.8513 37.6485C10.7604 36.9581 10.8064 36.2566 10.9866 35.5839C11.1669 34.9113 11.4778 34.2808 11.9018 33.7283C12.3257 33.1759 12.8544 32.7124 13.4574 32.3642L22.7097 27.0191Z" fill="#FF6242"/>
<path d="M11.1842 34.9805C10.8861 35.7253 10.7612 36.528 10.8187 37.3282C10.8763 38.1284 11.1148 38.905 11.5164 39.5995L16.8188 48.7829C17.1669 49.386 17.6305 49.9146 18.1829 50.3386C18.7354 50.7625 19.3659 51.0735 20.0385 51.2537C20.7112 51.434 21.4127 51.48 22.1031 51.3891C22.7935 51.2982 23.4593 51.0722 24.0623 50.724L36.1847 43.7237C37.2899 43.0854 38.1279 42.0699 38.5448 40.8636C38.9617 39.6573 38.9297 38.3411 38.4545 37.1565C38.0262 38.2711 37.2238 39.2022 36.1847 39.7905L24.0683 46.7908C22.8498 47.4954 21.4013 47.6873 20.0414 47.3242C18.6815 46.961 17.5215 46.0727 16.8164 44.8544L11.514 35.6686C11.3853 35.4487 11.275 35.2185 11.1842 34.9805Z" fill="#E04122"/>
<path d="M22.7097 27.0191C23.6882 26.4539 24.8217 26.2162 25.9448 26.3407C27.068 26.4651 28.1219 26.9452 28.953 27.7108L37.1256 35.2379C37.7372 35.8014 38.2078 36.5008 38.4992 37.2797C38.7907 38.0586 38.8948 38.8952 38.8032 39.7218C38.7116 40.5483 38.4269 41.3418 37.972 42.038C37.5171 42.7343 36.9049 43.3137 36.1847 43.7296L24.0623 50.7299C22.8449 51.4312 21.3989 51.6207 20.0419 51.2568C18.6849 50.8928 17.5278 50.0052 16.8247 48.7888L11.5163 39.6077C11.1682 39.0047 10.9422 38.3389 10.8513 37.6485C10.7604 36.9581 10.8064 36.2566 10.9866 35.5839C11.1669 34.9113 11.4778 34.2808 11.9018 33.7283C12.3257 33.1759 12.8544 32.7124 13.4574 32.3642L22.7097 27.0191Z" stroke="#45413C"/>
<path d="M4 42.2097C4 45.725 5.39643 49.0963 7.88209 51.5819C10.3678 54.0676 13.739 55.464 17.2543 55.464C20.7695 55.464 24.1408 54.0676 26.6265 51.5819C29.1121 49.0963 30.5086 45.725 30.5086 42.2097C30.5086 38.6945 29.1121 35.3232 26.6265 32.8375C24.1408 30.3519 20.7695 28.9554 17.2543 28.9554C13.739 28.9554 10.3678 30.3519 7.88209 32.8375C5.39643 35.3232 4 38.6945 4 42.2097Z" fill="white" stroke="#45413C"/>
<path d="M7.97473 42.2097C7.97473 44.6708 8.95239 47.0311 10.6926 48.7713C12.4329 50.5116 14.7932 51.4893 17.2543 51.4893C19.7154 51.4893 22.0756 50.5116 23.8159 48.7713C25.5562 47.0311 26.5338 44.6708 26.5338 42.2097C26.5338 39.7486 25.5562 37.3883 23.8159 35.6481C22.0756 33.9078 19.7154 32.9302 17.2543 32.9302C14.7932 32.9302 12.4329 33.9078 10.6926 35.6481C8.95239 37.3883 7.97473 39.7486 7.97473 42.2097Z" fill="#00B8F0"/>
<path d="M9.21452 46.8453C8.00269 44.7151 7.68279 42.1919 8.32464 39.8267C8.9665 37.4614 10.518 35.4461 12.6404 34.2207C14.7629 32.9952 17.2839 32.6592 19.6532 33.2859C22.0226 33.9126 24.0477 35.4512 25.2867 37.5658L9.21452 46.8453Z" fill="#4ACFFF"/>
<path d="M7.97473 42.2097C7.97473 44.6708 8.95239 47.0311 10.6926 48.7713C12.4329 50.5116 14.7932 51.4893 17.2543 51.4893C19.7154 51.4893 22.0756 50.5116 23.8159 48.7713C25.5562 47.0311 26.5338 44.6708 26.5338 42.2097C26.5338 39.7486 25.5562 37.3883 23.8159 35.6481C22.0756 33.9078 19.7154 32.9302 17.2543 32.9302C14.7932 32.9302 12.4329 33.9078 10.6926 35.6481C8.95239 37.3883 7.97473 39.7486 7.97473 42.2097Z" stroke="#45413C"/>
<path d="M47.7933 37.1624L53.4173 31.5384L44.9814 24.976L41.2321 28.7253L47.7933 37.1624Z" fill="#ADC4D9" stroke="#45413C"/>
<path d="M36.1847 26.3024C36.1847 27.7087 36.7433 29.0574 37.7377 30.0518C38.7321 31.0462 40.0808 31.6049 41.4871 31.6049C42.8934 31.6049 44.2421 31.0462 45.2365 30.0518C46.2309 29.0574 46.7895 27.7087 46.7895 26.3024C46.7895 24.8961 46.2309 23.5474 45.2365 22.553C44.2421 21.5586 42.8934 21 41.4871 21C40.0808 21 38.7321 21.5586 37.7377 22.553C36.7433 23.5474 36.1847 24.8961 36.1847 26.3024Z" fill="white"/>
<path d="M60.2645 27.0191C59.286 26.4539 58.1525 26.2162 57.0294 26.3407C55.9063 26.4651 54.8523 26.9452 54.0212 27.7108L45.8487 35.2379C45.237 35.8014 44.7665 36.5008 44.475 37.2797C44.1836 38.0586 44.0795 38.8952 44.171 39.7218C44.2626 40.5483 44.5474 41.3418 45.0022 42.038C45.4571 42.7343 46.0694 43.3137 46.7896 43.7296L58.9119 50.7299C60.1294 51.4312 61.5753 51.6207 62.9324 51.2568C64.2894 50.8928 65.4465 50.0052 66.1495 48.7888L71.4579 39.6077C71.8061 39.0047 72.0321 38.3389 72.123 37.6485C72.2139 36.9581 72.1679 36.2566 71.9876 35.5839C71.8074 34.9113 71.4964 34.2808 71.0725 33.7283C70.6485 33.1759 70.1199 32.7124 69.5168 32.3642L60.2645 27.0191Z" fill="#4ACFFF" stroke="#45413C"/>
<path d="M60.2645 27.0191C59.286 26.4539 58.1525 26.2162 57.0294 26.3407C55.9063 26.4651 54.8523 26.9452 54.0212 27.7108L45.8487 35.2379C45.237 35.8014 44.7665 36.5008 44.475 37.2797C44.1836 38.0586 44.0795 38.8952 44.171 39.7218C44.2626 40.5483 44.5474 41.3418 45.0022 42.038C45.4571 42.7343 46.0694 43.3137 46.7896 43.7296L58.9119 50.7299C60.1294 51.4312 61.5753 51.6207 62.9324 51.2568C64.2894 50.8928 65.4465 50.0052 66.1495 48.7888L71.4579 39.6077C71.8061 39.0047 72.0321 38.3389 72.123 37.6485C72.2139 36.9581 72.1679 36.2566 71.9876 35.5839C71.8074 34.9113 71.4964 34.2808 71.0725 33.7283C70.6485 33.1759 70.1199 32.7124 69.5168 32.3642L60.2645 27.0191Z" fill="#FF6242"/>
<path d="M71.7901 34.9805C72.0881 35.7253 72.2131 36.528 72.1555 37.3282C72.098 38.1284 71.8594 38.905 71.4578 39.5995L66.1554 48.7829C65.4523 49.9993 64.2952 50.8869 62.9382 51.2509C61.5812 51.6148 60.1352 51.4253 58.9178 50.724L46.7955 43.7237C45.6902 43.0854 44.8523 42.0699 44.4354 40.8636C44.0184 39.6573 44.0505 38.3411 44.5257 37.1565C44.954 38.2711 45.7564 39.2022 46.7955 39.7905L58.9119 46.7908C60.1304 47.4954 61.5788 47.6873 62.9387 47.3242C64.2987 46.961 65.4587 46.0727 66.1637 44.8544L71.4662 35.6686C71.5928 35.4485 71.7011 35.2183 71.7901 34.9805Z" fill="#E04122"/>
<path d="M60.2645 27.0191C59.286 26.4539 58.1525 26.2162 57.0294 26.3407C55.9063 26.4651 54.8523 26.9452 54.0212 27.7108L45.8487 35.2379C45.237 35.8014 44.7665 36.5008 44.475 37.2797C44.1836 38.0586 44.0795 38.8952 44.171 39.7218C44.2626 40.5483 44.5474 41.3418 45.0022 42.038C45.4571 42.7343 46.0694 43.3137 46.7896 43.7296L58.9119 50.7299C60.1294 51.4312 61.5753 51.6207 62.9324 51.2568C64.2894 50.8928 65.4465 50.0052 66.1495 48.7888L71.4579 39.6077C71.8061 39.0047 72.0321 38.3389 72.123 37.6485C72.2139 36.9581 72.1679 36.2566 71.9876 35.5839C71.8074 34.9113 71.4964 34.2808 71.0725 33.7283C70.6485 33.1759 70.1199 32.7124 69.5168 32.3642L60.2645 27.0191Z" stroke="#45413C"/>
<path d="M36.4944 24.5108C36.2082 25.3111 36.1185 26.1684 36.233 27.0106C36.3475 27.8527 36.6627 28.655 37.1522 29.3499C37.6416 30.0447 38.2909 30.6117 39.0453 31.0031C39.7998 31.3945 40.6372 31.5988 41.4871 31.5988C42.337 31.5988 43.1745 31.3945 43.9289 31.0031C44.6833 30.6117 45.3326 30.0447 45.8221 29.3499C46.3115 28.655 46.6267 27.8527 46.7412 27.0106C46.8557 26.1684 46.7661 25.3111 46.4799 24.5108C46.1211 25.5494 45.4473 26.4503 44.5524 27.088C43.6575 27.7256 42.586 28.0683 41.4871 28.0683C40.3883 28.0683 39.3168 27.7256 38.4218 27.088C37.5269 26.4503 36.8532 25.5494 36.4944 24.5108Z" fill="#DAEDF7"/>
<path d="M36.1847 26.3024C36.1847 27.7087 36.7433 29.0574 37.7377 30.0518C38.7321 31.0462 40.0808 31.6049 41.4871 31.6049C42.8934 31.6049 44.2421 31.0462 45.2365 30.0518C46.2309 29.0574 46.7895 27.7087 46.7895 26.3024C46.7895 24.8961 46.2309 23.5474 45.2365 22.553C44.2421 21.5586 42.8934 21 41.4871 21C40.0808 21 38.7321 21.5586 37.7377 22.553C36.7433 23.5474 36.1847 24.8961 36.1847 26.3024Z" stroke="#45413C"/>
<path d="M52.4658 42.2097C52.4658 45.725 53.8623 49.0963 56.3479 51.5819C58.8336 54.0676 62.2049 55.464 65.7201 55.464C69.2354 55.464 72.6066 54.0676 75.0923 51.5819C77.578 49.0963 78.9744 45.725 78.9744 42.2097C78.9744 38.6945 77.578 35.3232 75.0923 32.8375C72.6066 30.3519 69.2354 28.9554 65.7201 28.9554C62.2049 28.9554 58.8336 30.3519 56.3479 32.8375C53.8623 35.3232 52.4658 38.6945 52.4658 42.2097Z" fill="white" stroke="#45413C"/>
<path d="M56.4406 42.2097C56.4406 44.6708 57.4182 47.0311 59.1585 48.7713C60.8987 50.5116 63.259 51.4893 65.7201 51.4893C68.1812 51.4893 70.5415 50.5116 72.2817 48.7713C74.022 47.0311 74.9996 44.6708 74.9996 42.2097C74.9996 39.7486 74.022 37.3883 72.2817 35.6481C70.5415 33.9078 68.1812 32.9302 65.7201 32.9302C63.259 32.9302 60.8987 33.9078 59.1585 35.6481C57.4182 37.3883 56.4406 39.7486 56.4406 42.2097Z" fill="#00B8F0"/>
<path d="M57.6839 46.8453C56.4538 44.7135 56.121 42.1804 56.7586 39.8033C57.3962 37.4261 58.952 35.3995 61.0838 34.1695C63.2156 32.9394 65.7487 32.6065 68.1259 33.2441C70.5031 33.8817 72.5296 35.4376 73.7597 37.5693L57.6839 46.8453Z" fill="#4ACFFF"/>
<path d="M56.4406 42.2097C56.4406 44.6708 57.4182 47.0311 59.1585 48.7713C60.8987 50.5116 63.259 51.4893 65.7201 51.4893C68.1812 51.4893 70.5415 50.5116 72.2817 48.7713C74.022 47.0311 74.9996 44.6708 74.9996 42.2097C74.9996 39.7486 74.022 37.3883 72.2817 35.6481C70.5415 33.9078 68.1812 32.9302 65.7201 32.9302C63.259 32.9302 60.8987 33.9078 59.1585 35.6481C57.4182 37.3883 56.4406 39.7486 56.4406 42.2097Z" stroke="#45413C"/>
</svg>
