<svg xmlns="http://www.w3.org/2000/svg" fill="none" viewBox="0 0 100 100" id="Maze-Strategy--Streamline-Ux" height="100" width="100"><desc>Maze Strategy Streamline Illustration: https://streamlinehq.com</desc><path fill="#e5f8ff" d="M50 93.3892c22.0914 0 40 -17.9086 40 -40s-17.9086 -40 -40 -40 -40 17.9086 -40 40 17.9086 40 40 40Z" stroke-width="1"></path><path stroke="#4acfff" stroke-linecap="round" stroke-linejoin="round" d="M41.6139 45.2512h-15.703" stroke-width="1"></path><path stroke="#4acfff" stroke-linecap="round" stroke-linejoin="round" d="M33.986 17.2761v18.762c0 0.2652 0.1053 0.5196 0.2929 0.7071 0.1875 0.1876 0.4418 0.2929 0.7071 0.2929h6.628" stroke-width="1"></path><path stroke="#4acfff" stroke-linecap="round" stroke-linejoin="round" d="M25.911 31.2632v21.474c0 0.2652 -0.1054 0.5196 -0.2929 0.7071 -0.1876 0.1875 -0.4419 0.2929 -0.7071 0.2929h-8.967c-0.2652 0 -0.5196 0.1053 -0.7071 0.2929 -0.1876 0.1875 -0.2929 0.4419 -0.2929 0.7071v16.857" stroke-width="1"></path><path stroke="#4acfff" stroke-linecap="round" stroke-linejoin="round" d="M57.938 14.6873v21.351c0 0.2652 0.1053 0.5195 0.2929 0.7071 0.1875 0.1875 0.4419 0.2929 0.7071 0.2929H66.7" stroke-width="1"></path><path stroke="#4acfff" stroke-linecap="round" stroke-linejoin="round" d="M66.1509 28.6892h7.075c0.2652 0 0.5195 0.1054 0.7071 0.2929 0.1875 0.1875 0.2929 0.4419 0.2929 0.7071v23.466" stroke-width="1"></path><path stroke="#4acfff" stroke-linecap="round" stroke-linejoin="round" d="M57.9379 28.6892h-16.324" stroke-width="1"></path><path stroke="#4acfff" stroke-linecap="round" stroke-linejoin="round" d="M50.0059 28.6892v23.466c0 0.2652 -0.1053 0.5196 -0.2929 0.7071 -0.1875 0.1876 -0.4418 0.2929 -0.7071 0.2929h-14.243c-0.2652 0 -0.5195 0.1054 -0.7071 0.2929 -0.1875 0.1875 -0.2929 0.4419 -0.2929 0.7071v7.245" stroke-width="1"></path><path stroke="#4acfff" stroke-linecap="round" stroke-linejoin="round" d="M25.9109 69.8871v-7.487c0 -0.2652 0.1053 -0.5195 0.2929 -0.7071 0.1875 -0.1875 0.4419 -0.2929 0.7071 -0.2929h31.027" stroke-width="1"></path><path stroke="#4acfff" stroke-linecap="round" stroke-linejoin="round" d="M74.226 45.0452H58.938c-0.2652 0 -0.5196 0.1053 -0.7071 0.2929 -0.1876 0.1875 -0.2929 0.4418 -0.2929 0.7071v23.3" stroke-width="1"></path><path stroke="#4acfff" stroke-linecap="round" stroke-linejoin="round" d="M18.8629 77.6891h13.9c0.2652 0 0.5196 -0.1054 0.7071 -0.2929 0.1876 -0.1875 0.2929 -0.4419 0.2929 -0.7071v-6.349c0 -0.2652 0.1054 -0.5196 0.2929 -0.7071s0.4419 -0.2929 0.7071 -0.2929h14.243c0.2652 0 0.5196 0.1054 0.7071 0.2929 0.1876 0.1875 0.2929 0.4419 0.2929 0.7071v7.349" stroke-width="1"></path><path stroke="#4acfff" stroke-linecap="round" stroke-linejoin="round" d="M66.0819 53.1553v23.534c0 0.2652 -0.1054 0.5195 -0.2929 0.7071 -0.1875 0.1875 -0.4419 0.2929 -0.7071 0.2929h-23.468" stroke-width="1"></path><path stroke="#4acfff" stroke-linecap="round" stroke-linejoin="round" d="M66.0819 61.4011h8.144" stroke-width="1"></path><path stroke="#4acfff" stroke-linecap="round" stroke-linejoin="round" d="M74.226 69.3401h11.896" stroke-width="1"></path><path stroke="#4acfff" stroke-linecap="round" stroke-linejoin="round" d="M50 85.1531v7.736" stroke-width="1"></path><path stroke="#4acfff" stroke-linecap="round" stroke-linejoin="round" d="M41.9249 85.1531h-15.405" stroke-width="1"></path><path stroke="#4acfff" stroke-linecap="round" stroke-linejoin="round" d="M82.917 69.3401v-17.749c0 -0.2653 0.1053 -0.5196 0.2929 -0.7071 0.1875 -0.1876 0.4419 -0.2929 0.7071 -0.2929H89.4" stroke-width="1"></path><path stroke="#4acfff" stroke-linecap="round" stroke-linejoin="round" d="M74.226 37.9182h11.931" stroke-width="1"></path><path stroke="#4acfff" stroke-linecap="round" stroke-linejoin="round" d="M46.928 14.0061v6.795" stroke-width="1"></path><path stroke="#4acfff" stroke-linecap="round" stroke-linejoin="round" d="M49.9999 92.8892c-10.2158 0.0088 -20.0378 -3.9406 -27.4037 -11.0192 -7.366 -7.0785 -11.703 -16.7356 -12.1006 -26.9437 -0.3975 -10.2081 3.1754 -20.1732 9.9685 -27.8032 6.7932 -7.6299 16.2783 -12.3313 26.4638 -13.1169 1.014 -0.078 2.038 -0.117 3.072 -0.117" stroke-width="1"></path><path stroke="#4acfff" stroke-linecap="round" stroke-linejoin="round" d="M57.938 14.6873c8.5949 1.7659 16.3574 6.3425 22.0636 13.0081 5.7062 6.6656 9.0313 15.041 9.451 23.8054 0.4197 8.7644 -2.0899 17.4191 -7.133 24.5995 -5.0431 7.1803 -12.3328 12.4778 -20.7196 15.057" stroke-width="1"></path><path stroke="#4acfff" stroke-linecap="round" stroke-linejoin="round" d="M25.9109 37.0381h-7.048" stroke-width="1"></path><path stroke="#4acfff" stroke-linecap="round" stroke-linejoin="round" d="M74.226 77.6892h6.908" stroke-width="1"></path><path stroke="#ff4064" stroke-linecap="round" stroke-linejoin="round" d="M53.916 10.3572v11.9c0 0.5304 -0.2107 1.0391 -0.5858 1.4142s-0.8838 0.5858 -1.4142 0.5858h-11.91c-0.5304 0 -1.0392 0.2107 -1.4142 0.5858 -0.3751 0.375 -0.5858 0.8837 -0.5858 1.4142v4.785c0 0.2626 0.0517 0.5227 0.1522 0.7653 0.1005 0.2427 0.2479 0.4632 0.4336 0.6489 0.1857 0.1857 0.4062 0.333 0.6488 0.4335 0.2427 0.1005 0.5027 0.1523 0.7654 0.1523h3.5c0.5304 0 1.0391 0.2107 1.4142 0.5858 0.3751 0.375 0.5858 0.8837 0.5858 1.4142v12.905c0 0.5304 -0.2107 1.0391 -0.5858 1.4142s-0.8838 0.5858 -1.4142 0.5858H31.66c-0.5304 0 -1.0392 0.2107 -1.4142 0.5858 -0.3751 0.375 -0.5858 0.8837 -0.5858 1.4142v4.23c0 0.5304 -0.2107 1.0391 -0.5858 1.4142s-0.8838 0.5858 -1.4142 0.5858h-4.8c-0.5304 0 -1.0392 0.2107 -1.4142 0.5858 -0.3751 0.375 -0.5858 0.8837 -0.5858 1.4142v12.7c0 0.5304 0.2107 1.0391 0.5858 1.4142 0.375 0.3751 0.8838 0.5858 1.4142 0.5858h4.44c0.5304 0 1.0391 -0.2107 1.4142 -0.5858s0.5858 -0.8838 0.5858 -1.4142v-4.277c0 -0.5305 0.2107 -1.0392 0.5858 -1.4142 0.375 -0.3751 0.8838 -0.5858 1.4142 -0.5858h20.616c0.5304 0 1.0391 0.2107 1.4142 0.5858 0.3751 0.375 0.5858 0.8837 0.5858 1.4142v4.281c0 0.5304 0.2107 1.0391 0.5858 1.4142 0.375 0.3751 0.8838 0.5858 1.4142 0.5858h4.653c0.5304 0 1.0391 -0.2107 1.4142 -0.5858s0.5858 -0.8838 0.5858 -1.4142v-20.754c0 -0.5305 0.2107 -1.0392 0.5858 -1.4142 0.375 -0.3751 0.8838 -0.5858 1.4142 -0.5858h4.364c0.5304 0 1.0391 0.2107 1.4142 0.5858 0.3751 0.375 0.5858 0.8837 0.5858 1.4142v2.637c0 0.5304 0.2107 1.0391 0.5858 1.4142 0.375 0.3751 0.8838 0.5858 1.4142 0.5858h4c0.5304 0 1.0391 0.2107 1.4142 0.5858 0.3751 0.375 0.5858 0.8837 0.5858 1.4142v4.875c0 0.2626 -0.0517 0.5227 -0.1523 0.7653 -0.1005 0.2427 -0.2478 0.4632 -0.4335 0.6489 -0.1857 0.1857 -0.4062 0.333 -0.6489 0.4335 -0.2426 0.1005 -0.5027 0.1523 -0.7653 0.1523h-4c-0.5304 0 -1.0392 0.2107 -1.4142 0.5858 -0.3751 0.375 -0.5858 0.8837 -0.5858 1.4142v13.907c0 0.5304 -0.2107 1.0391 -0.5858 1.4142s-0.8838 0.5858 -1.4142 0.5858H56.546c-0.5304 0 -1.0392 0.2107 -1.4142 0.5858 -0.3751 0.375 -0.5858 0.8837 -0.5858 1.4142v12.843" stroke-width="1"></path><path fill="#ff4064" stroke="#ff4064" stroke-linecap="round" stroke-linejoin="round" d="m60.941 10.3571 -7.025 -8.74602 -7.026 8.74602h14.051Z" stroke-width="1"></path></svg>