<svg width="100" height="100" viewBox="0 0 100 100" fill="none" xmlns="http://www.w3.org/2000/svg">
<path d="M50 97C72.0914 97 90 79.0914 90 57C90 34.9086 72.0914 17 50 17C27.9086 17 10 34.9086 10 57C10 79.0914 27.9086 97 50 97Z" fill="#DAEDF7" stroke="#DAEDF7" stroke-miterlimit="10"/>
<path d="M64.861 5.653C64.861 5.30452 64.7923 4.95945 64.659 4.63751C64.5256 4.31557 64.3301 4.02306 64.0836 3.77669C63.8371 3.53033 63.5446 3.33493 63.2226 3.20166C62.9006 3.06839 62.5555 2.99987 62.207 3H39.653C38.9494 3 38.2746 3.27951 37.777 3.77705C37.2795 4.27458 37 4.94938 37 5.653V26.218C37 26.9216 37.2795 27.5964 37.777 28.094C38.2746 28.5915 38.9494 28.871 39.653 28.871H44.521C44.6655 28.871 44.8085 28.8995 44.942 28.9547C45.0754 29.01 45.1967 29.091 45.2988 29.1932C45.401 29.2953 45.482 29.4166 45.5373 29.55C45.5925 29.6835 45.621 29.8265 45.621 29.971V32.841C45.6199 33.0595 45.684 33.2734 45.8049 33.4554C45.9259 33.6374 46.0984 33.7792 46.3003 33.8628C46.5022 33.9463 46.7244 33.9679 46.9386 33.9247C47.1528 33.8814 47.3493 33.7754 47.503 33.62L51.931 29.192C52.0333 29.0894 52.1549 29.0081 52.2888 28.9527C52.4226 28.8973 52.5661 28.8688 52.711 28.869H62.204C62.9079 28.869 63.5829 28.5894 64.0807 28.0917C64.5784 27.5939 64.858 26.9189 64.858 26.215L64.861 5.653Z" fill="white" stroke="#45413C" stroke-linejoin="round"/>
<path d="M25.194 91.259L25.493 84.82H21.015V91.259H25.194Z" fill="#FFCEBF"/>
<path d="M25.344 88.037L25.493 84.82H21.015V88.037H25.344Z" fill="#FFB59E"/>
<path d="M25.194 91.259L25.493 84.82H21.015V91.259H25.194Z" stroke="#45413C" stroke-linecap="round" stroke-linejoin="round"/>
<path d="M30.766 91.259L30.467 84.82H34.945V91.259H30.766Z" fill="#FFCEBF"/>
<path d="M30.616 88.037L30.467 84.82H34.945V88.037H30.616Z" fill="#FFB59E"/>
<path d="M30.766 91.259L30.467 84.82H34.945V91.259H30.766Z" stroke="#45413C" stroke-linecap="round" stroke-linejoin="round"/>
<path d="M38.428 62.266C38.428 59.3104 37.2539 56.4759 35.164 54.386C33.0741 52.2961 30.2396 51.122 27.284 51.122C24.3284 51.122 21.4939 52.2961 19.404 54.386C17.3141 56.4759 16.14 59.3104 16.14 62.266V63.658H20.318V72.713H35.642V63.658H38.428V62.266Z" fill="#E09F7E"/>
<path d="M27.284 51.121C25.8205 51.121 24.3713 51.4093 23.0192 51.9694C21.667 52.5295 20.4385 53.3504 19.4037 54.3854C18.3688 55.4203 17.548 56.6489 16.988 58.0011C16.428 59.3532 16.1399 60.8025 16.14 62.266V63.658H16.34C16.8179 61.104 18.1738 58.7975 20.173 57.1377C22.1721 55.4779 24.6887 54.5694 27.287 54.5694C29.8854 54.5694 32.4019 55.4779 34.4011 57.1377C36.4002 58.7975 37.7561 61.104 38.234 63.658H38.434V62.266C38.434 60.802 38.1456 59.3523 37.5852 57.9998C37.0248 56.6473 36.2034 55.4185 35.168 54.3835C34.1325 53.3486 32.9033 52.5277 31.5506 51.9679C30.1978 51.4081 28.748 51.1203 27.284 51.121Z" fill="#F0C2A1"/>
<path d="M38.428 62.266C38.428 59.3104 37.2539 56.4759 35.164 54.386C33.0741 52.2961 30.2396 51.122 27.284 51.122C24.3284 51.122 21.4939 52.2961 19.404 54.386C17.3141 56.4759 16.14 59.3104 16.14 62.266V63.658H20.318V72.713H35.642V63.658H38.428V62.266Z" stroke="#45413C" stroke-linecap="round" stroke-linejoin="round"/>
<path opacity="0.15" d="M28.873 96.62C35.2662 96.62 40.449 95.8428 40.449 94.884C40.449 93.9252 35.2662 93.148 28.873 93.148C22.4797 93.148 17.297 93.9252 17.297 94.884C17.297 95.8428 22.4797 96.62 28.873 96.62Z" fill="#45413C"/>
<path d="M25.093 85.251C25.39 85.2509 25.6756 85.1366 25.8907 84.9319C26.1059 84.7272 26.2341 84.4476 26.249 84.151L26.527 78.977C26.544 78.6029 26.7046 78.2498 26.9753 77.9911C27.246 77.7324 27.606 77.5881 27.9805 77.5881C28.3549 77.5881 28.715 77.7324 28.9857 77.9911C29.2564 78.2498 29.417 78.6029 29.434 78.977L29.712 84.151C29.7269 84.4476 29.8551 84.7272 30.0703 84.9319C30.2854 85.1366 30.571 85.2509 30.868 85.251H34.484C34.791 85.2507 35.0854 85.1286 35.3025 84.9115C35.5196 84.6944 35.6417 84.4 35.642 84.093V71.321H20.318V84.093C20.3183 84.4 20.4403 84.6944 20.6575 84.9115C20.8746 85.1286 21.169 85.2507 21.476 85.251H25.093Z" fill="#E09F7E"/>
<path d="M35.641 72.713H20.318V75.499H35.641V72.713Z" fill="#BF8256"/>
<path d="M26.527 78.981C26.544 78.6069 26.7046 78.2538 26.9753 77.9951C27.246 77.7364 27.606 77.592 27.9805 77.592C28.3549 77.592 28.715 77.7364 28.9857 77.9951C29.2564 78.2538 29.417 78.6069 29.434 78.981L29.712 84.155C29.7269 84.4516 29.8551 84.7312 30.0703 84.9359C30.2854 85.1406 30.571 85.2549 30.868 85.255H34.484C34.791 85.2547 35.0854 85.1326 35.3025 84.9155C35.5196 84.6984 35.6417 84.404 35.642 84.097V71.321H20.318V84.093C20.3183 84.4 20.4403 84.6944 20.6575 84.9115C20.8746 85.1286 21.169 85.2507 21.476 85.251H25.093C25.39 85.2509 25.6756 85.1366 25.8907 84.9319C26.1059 84.7272 26.2341 84.4476 26.249 84.151L26.527 78.981Z" stroke="#45413C" stroke-linecap="round" stroke-linejoin="round"/>
<path d="M37.731 94.305C37.731 91.811 35.294 90.823 33.137 90.823H31.228C31.0759 90.823 30.9254 90.853 30.7849 90.9111C30.6444 90.9693 30.5167 91.0546 30.4092 91.1622C30.3016 91.2697 30.2164 91.3974 30.1582 91.5378C30.1 91.6783 30.07 91.8289 30.07 91.981V93.148C30.07 93.3 30.1 93.4506 30.1582 93.591C30.2164 93.7314 30.3017 93.859 30.4092 93.9665C30.5168 94.0739 30.6444 94.1591 30.7849 94.2172C30.9254 94.2753 31.076 94.3051 31.228 94.305H37.731Z" fill="#87898C" stroke="#45413C" stroke-linecap="round" stroke-linejoin="round"/>
<path d="M27.98 94.305C27.98 91.811 25.542 90.823 23.386 90.823H21.476C21.169 90.8233 20.8746 90.9454 20.6575 91.1625C20.4403 91.3796 20.3183 91.674 20.318 91.981V93.148C20.3183 93.455 20.4404 93.7492 20.6575 93.9662C20.8747 94.1831 21.169 94.305 21.476 94.305H27.98Z" fill="#87898C" stroke="#45413C" stroke-linecap="round" stroke-linejoin="round"/>
<path d="M20.318 76.2C20.318 76.4743 20.264 76.746 20.159 76.9994C20.054 77.2529 19.9001 77.4832 19.7062 77.6772C19.5122 77.8711 19.2819 78.025 19.0284 78.13C18.775 78.235 18.5033 78.289 18.229 78.289C17.9547 78.289 17.683 78.235 17.4296 78.13C17.1761 78.025 16.9459 77.8711 16.7519 77.6772C16.5579 77.4832 16.404 77.2529 16.299 76.9994C16.194 76.746 16.14 76.4743 16.14 76.2V63.658H20.318V76.2Z" fill="#FFCEBF" stroke="#45413C" stroke-linecap="round" stroke-linejoin="round"/>
<path d="M35.642 63.658V59.48" stroke="#45413C" stroke-linecap="round" stroke-linejoin="round"/>
<path d="M20.318 63.658V59.48" stroke="#45413C" stroke-linecap="round" stroke-linejoin="round"/>
<path d="M30.328 51.548C30.1181 51.4889 29.9333 51.3628 29.8017 51.189C29.6701 51.0151 29.5989 50.803 29.599 50.585V46.198H24.999V50.579C24.9988 50.797 24.9274 51.009 24.7956 51.1826C24.6638 51.3563 24.4789 51.4821 24.269 51.541L24.169 51.569L27.969 58.087L31.537 51.97C31.1426 51.8059 30.7389 51.665 30.328 51.548Z" fill="#FFCEBF" stroke="#45413C" stroke-linecap="round" stroke-linejoin="round"/>
<path d="M33.484 53.005C32.8743 52.5975 32.2258 52.2512 31.548 51.971L27.98 58.087C29.5748 56.711 31.5081 55.7858 33.58 55.407C33.6627 55.3933 33.7413 55.3619 33.8107 55.3149C33.8801 55.268 33.9385 55.2066 33.982 55.135C34.0254 55.0635 34.053 54.9833 34.0626 54.9002C34.0723 54.817 34.0639 54.7327 34.038 54.653L33.484 53.005Z" fill="#F0C2A1" stroke="#45413C" stroke-linecap="round" stroke-linejoin="round"/>
<path d="M27.98 58.087L24.18 51.57C23.7055 51.7049 23.2408 51.872 22.789 52.07L21.929 54.649C21.9031 54.7287 21.8948 54.8131 21.9045 54.8964C21.9143 54.9796 21.9419 55.0598 21.9854 55.1314C22.029 55.203 22.0876 55.2643 22.157 55.3112C22.2265 55.3581 22.3053 55.3894 22.388 55.403C24.4576 55.7842 26.388 56.7107 27.98 58.087Z" fill="#F0C2A1" stroke="#45413C" stroke-linecap="round" stroke-linejoin="round"/>
<path d="M27.98 58.087V61.569" stroke="#45413C" stroke-linecap="round" stroke-linejoin="round"/>
<path d="M35.641 70.624H20.318V73.411H35.641V70.624Z" fill="#A86C4D" stroke="#45413C" stroke-linecap="round" stroke-linejoin="round"/>
<path d="M30.07 70.624H25.891V73.411H30.07V70.624Z" fill="#FFE500" stroke="#45413C" stroke-linecap="round" stroke-linejoin="round"/>
<path d="M43 59.48H31.07C30.5177 59.48 30.07 59.9277 30.07 60.48V72.411C30.07 72.9633 30.5177 73.411 31.07 73.411H43C43.5523 73.411 44 72.9633 44 72.411V60.48C44 59.9277 43.5523 59.48 43 59.48Z" fill="#DEBB7E" stroke="#45413C" stroke-linecap="round" stroke-linejoin="round"/>
<path d="M43.079 70.377C42.957 70.1288 42.787 69.9073 42.5787 69.7254C42.3705 69.5434 42.1283 69.4046 41.866 69.3169C41.6037 69.2292 41.3267 69.1945 41.0509 69.2146C40.7751 69.2348 40.506 69.3095 40.2593 69.4344C40.0126 69.5594 39.7932 69.732 39.6136 69.9423C39.4341 70.1527 39.2981 70.3965 39.2136 70.6598C39.129 70.9231 39.0975 71.2005 39.1209 71.4761C39.1443 71.7516 39.2222 72.0198 39.35 72.265L40.086 73.718C40.2247 73.9919 40.4666 74.1996 40.7584 74.2952C41.0502 74.3908 41.368 74.3667 41.642 74.228L43.305 73.385C43.5788 73.2461 43.7862 73.0041 43.8816 72.7124C43.9771 72.4206 43.9527 72.1029 43.814 71.829L43.079 70.377Z" fill="#FFCEBF" stroke="#45413C" stroke-linecap="round" stroke-linejoin="round"/>
<path d="M38.625 65.748H35.445C35.3124 65.748 35.1852 65.6953 35.0915 65.6016C34.9977 65.5078 34.945 65.3806 34.945 65.248V59.48H39.125V65.248C39.125 65.3806 39.0723 65.5078 38.9786 65.6016C38.8848 65.6953 38.7576 65.748 38.625 65.748Z" fill="#F7E5C6" stroke="#45413C" stroke-linecap="round" stroke-linejoin="round"/>
<path d="M28.677 33.405C27.7623 33.405 26.8565 33.5852 26.0114 33.9353C25.1663 34.2854 24.3984 34.7985 23.7516 35.4454C23.1049 36.0922 22.5919 36.8602 22.2419 37.7053C21.8919 38.5505 21.7119 39.4563 21.712 40.371V41.763C19.723 41.763 19.859 45.246 22.06 45.246H22.066C22.5616 46.8325 23.6097 48.1887 25.0199 49.0683C26.4302 49.948 28.1091 50.2928 29.7519 50.0401C31.3947 49.7874 32.8924 48.9541 33.9732 47.6913C35.0539 46.4285 35.646 44.8201 35.642 43.158V40.371C35.6421 39.4563 35.4621 38.5505 35.1121 37.7053C34.7621 36.8602 34.2491 36.0922 33.6024 35.4454C32.9556 34.7985 32.1877 34.2854 31.3426 33.9353C30.4975 33.5852 29.5917 33.405 28.677 33.405Z" fill="#FFCEBF" stroke="#45413C" stroke-linecap="round" stroke-linejoin="round"/>
<path d="M27.458 41.763C27.2857 41.763 27.1173 41.8141 26.9741 41.9098C26.8308 42.0055 26.7192 42.1415 26.6533 42.3007C26.5874 42.4598 26.5701 42.635 26.6037 42.8039C26.6373 42.9729 26.7203 43.1281 26.8421 43.2499C26.9639 43.3717 27.1191 43.4547 27.2881 43.4883C27.457 43.5219 27.6321 43.5046 27.7913 43.4387C27.9504 43.3728 28.0865 43.2611 28.1822 43.1179C28.2779 42.9747 28.329 42.8063 28.329 42.634C28.329 42.403 28.2372 42.1815 28.0739 42.0181C27.9105 41.8548 27.689 41.763 27.458 41.763Z" fill="#45413C"/>
<path d="M32.682 41.763C32.5097 41.763 32.3413 41.8141 32.1981 41.9098C32.0548 42.0055 31.9432 42.1415 31.8773 42.3007C31.8114 42.4598 31.7941 42.635 31.8277 42.8039C31.8613 42.9729 31.9443 43.1281 32.0661 43.2499C32.1879 43.3717 32.3431 43.4547 32.5121 43.4883C32.681 43.5219 32.8561 43.5046 33.0153 43.4387C33.1744 43.3728 33.3105 43.2611 33.4062 43.1179C33.5019 42.9747 33.553 42.8063 33.553 42.634C33.553 42.403 33.4612 42.1815 33.2979 42.0181C33.1345 41.8548 32.913 41.763 32.682 41.763Z" fill="#45413C"/>
<path d="M26.587 44.723C26.587 44.8614 26.546 44.9968 26.469 45.1119C26.3921 45.227 26.2828 45.3167 26.1549 45.3697C26.027 45.4227 25.8862 45.4366 25.7504 45.4095C25.6147 45.3825 25.4899 45.3159 25.392 45.218C25.2941 45.1201 25.2275 44.9953 25.2005 44.8596C25.1735 44.7238 25.1873 44.583 25.2403 44.4551C25.2933 44.3272 25.383 44.2179 25.4981 44.141C25.6132 44.0641 25.7486 44.023 25.887 44.023C26.0727 44.023 26.2507 44.0967 26.382 44.228C26.5133 44.3593 26.587 44.5373 26.587 44.723Z" fill="#FFB59E"/>
<path d="M28.677 46.7C29.009 46.995 29.4265 47.1765 29.8687 47.2181C30.3109 47.2596 30.7548 47.159 31.136 46.931C31.2512 46.8632 31.3606 46.786 31.463 46.7" stroke="#45413C" stroke-linecap="round" stroke-linejoin="round"/>
<path d="M20.318 43.33V35.495H23.8V39.847C23.8001 40.3043 23.7102 40.7572 23.5352 41.1798C23.3603 41.6024 23.1038 41.9863 22.7805 42.3098C22.4571 42.6332 22.0732 42.8898 21.6507 43.0648C21.2282 43.2399 20.7753 43.33 20.318 43.33Z" fill="#FFC44D" stroke="#45413C" stroke-linecap="round" stroke-linejoin="round"/>
<path d="M32.642 31.315H23.318C22.5223 31.315 21.7593 31.6311 21.1967 32.1937C20.6341 32.7563 20.318 33.5194 20.318 34.315V37.584H35.642V34.315C35.642 33.5194 35.3259 32.7563 34.7633 32.1937C34.2007 31.6311 33.4376 31.315 32.642 31.315Z" fill="#915E3A" stroke="#45413C" stroke-linecap="round" stroke-linejoin="round"/>
<path d="M27.98 31.315C27.98 31.315 23.8 33.405 23.8 36.887L27.98 31.315Z" fill="#915E3A"/>
<path d="M27.98 31.315C27.98 31.315 23.8 33.405 23.8 36.887" stroke="#45413C" stroke-linejoin="round"/>
<path d="M27.98 31.315C27.98 31.315 32.159 33.405 32.159 36.887L27.98 31.315Z" fill="#915E3A"/>
<path d="M27.98 31.315C27.98 31.315 32.159 33.405 32.159 36.887" stroke="#45413C" stroke-linejoin="round"/>
<path d="M20.318 37.584L21.9 39.693C22.0428 39.8835 22.2409 40.0254 22.4672 40.0993C22.6936 40.1733 22.9373 40.1756 23.165 40.106C27.0075 39.154 31.0249 39.1591 34.865 40.121C35.087 40.1754 35.3201 40.1629 35.5349 40.0851C35.7498 40.0073 35.9369 39.8677 36.0726 39.6838C36.2082 39.4999 36.2865 39.28 36.2974 39.0517C36.3083 38.8234 36.2515 38.597 36.134 38.401L35.644 37.584C32.856 36.191 25.891 36.191 20.318 37.584Z" fill="#E09F7E" stroke="#45413C" stroke-linecap="round" stroke-linejoin="round"/>
<path d="M59.726 76.5C59.738 77.0463 59.9634 77.5661 60.3539 77.9482C60.7445 78.3303 61.2691 78.5443 61.8155 78.5443C62.3619 78.5443 62.8866 78.3303 63.2771 77.9482C63.6677 77.5661 63.8931 77.0463 63.905 76.5V63.962H59.726V76.5Z" fill="#BF8256" stroke="#45413C" stroke-linecap="round" stroke-linejoin="round"/>
<path opacity="0.15" d="M68.987 96.924C75.3803 96.924 80.563 96.1468 80.563 95.188C80.563 94.2292 75.3803 93.452 68.987 93.452C62.5938 93.452 57.411 94.2292 57.411 95.188C57.411 96.1468 62.5938 96.924 68.987 96.924Z" fill="#45413C"/>
<path d="M72.349 92.716L71.628 79.284C71.614 78.9077 71.4547 78.5515 71.1836 78.2902C70.9124 78.0289 70.5506 77.8829 70.174 77.8829C69.7975 77.8829 69.4356 78.0289 69.1644 78.2902C68.8933 78.5515 68.734 78.9077 68.72 79.284L68 92.721L62.513 92.708V71.624H77.836V92.724L72.349 92.716Z" fill="#87898C"/>
<path d="M77.835 73.017H62.512V75.803H77.835V73.017Z" fill="#87898C"/>
<path d="M72.349 92.716L71.628 79.284C71.614 78.9077 71.4547 78.5515 71.1836 78.2902C70.9124 78.0289 70.5506 77.8829 70.174 77.8829C69.7975 77.8829 69.4356 78.0289 69.1644 78.2902C68.8933 78.5515 68.734 78.9077 68.72 79.284L68 92.721L62.513 92.708V71.624H77.836V92.724L72.349 92.716Z" stroke="#45413C" stroke-linecap="round" stroke-linejoin="round"/>
<path d="M60.423 94.609C60.423 92.115 62.86 91.127 65.017 91.127H68.085V93.451C68.085 93.7581 67.963 94.0527 67.7459 94.2698C67.5287 94.487 67.2342 94.609 66.927 94.609H60.423Z" fill="#DEBB7E" stroke="#45413C" stroke-linecap="round" stroke-linejoin="round"/>
<path d="M70.174 94.609C70.174 92.115 72.612 91.127 74.769 91.127H77.836V93.451C77.836 93.7581 77.714 94.0527 77.4968 94.2698C77.2797 94.487 76.9851 94.609 76.678 94.609H70.174Z" fill="#DEBB7E" stroke="#45413C" stroke-linecap="round" stroke-linejoin="round"/>
<path d="M59.726 62.57C59.726 59.6144 60.9001 56.7799 62.99 54.69C65.0799 52.6001 67.9144 51.426 70.87 51.426C73.8256 51.426 76.6601 52.6001 78.75 54.69C80.8399 56.7799 82.014 59.6144 82.014 62.57V63.962H77.836V73.017H62.512V63.962H59.726V62.57Z" fill="#FFE500"/>
<path d="M70.871 51.425C67.9152 51.425 65.0804 52.5992 62.9903 54.6893C60.9002 56.7794 59.726 59.6142 59.726 62.57V63.962H59.926C60.4045 61.4083 61.7606 59.1022 63.7598 57.4428C65.759 55.7834 68.2754 54.8752 70.8735 54.8752C73.4716 54.8752 75.988 55.7834 77.9872 57.4428C79.9864 59.1022 81.3425 61.4083 81.821 63.962H82.021V62.57C82.0211 61.106 81.7328 59.6562 81.1724 58.3037C80.6121 56.9511 79.7907 55.7222 78.7552 54.6872C77.7198 53.6522 76.4905 52.8314 75.1377 52.2717C73.7849 51.7119 72.3351 51.4242 70.871 51.425Z" fill="#FFF48C"/>
<path d="M59.726 62.57C59.726 59.6144 60.9001 56.7799 62.99 54.69C65.0799 52.6001 67.9144 51.426 70.87 51.426C73.8256 51.426 76.6601 52.6001 78.75 54.69C80.8399 56.7799 82.014 59.6144 82.014 62.57V63.962H77.836V73.017H62.512V63.962H59.726V62.57Z" stroke="#45413C" stroke-linecap="round" stroke-linejoin="round"/>
<path d="M62.512 63.962V59.783" stroke="#45413C" stroke-linecap="round" stroke-linejoin="round"/>
<path d="M77.836 63.962V59.783" stroke="#45413C" stroke-linecap="round" stroke-linejoin="round"/>
<path d="M73.605 51.777C73.4815 51.7458 73.3719 51.6743 73.2936 51.5737C73.2154 51.4732 73.1729 51.3494 73.173 51.222V47.63H68.573V50.891C68.5728 51.109 68.5014 51.321 68.3696 51.4946C68.2378 51.6683 68.0529 51.7941 67.843 51.853C67.4641 51.9583 67.0912 52.0842 66.726 52.23C66.737 52.6951 66.842 53.1532 67.0347 53.5768C67.2273 54.0003 67.5037 54.3804 67.8471 54.6944C68.1904 55.0084 68.5938 55.2496 69.0328 55.4037C69.4718 55.5577 69.9375 55.6214 70.4017 55.5908C70.866 55.5602 71.3193 55.436 71.7343 55.2257C72.1494 55.0155 72.5176 54.7234 72.8168 54.3671C73.1161 54.0108 73.3402 53.5977 73.4756 53.1526C73.6111 52.7075 73.6551 52.2396 73.605 51.777Z" fill="#BF8256" stroke="#45413C" stroke-linecap="round" stroke-linejoin="round"/>
<path d="M77.836 63.962V64.662C77.836 68.488 74.536 70.931 72.263 70.931H70.871C70.5928 70.9249 70.3161 70.9745 70.0573 71.0767C69.7984 71.179 69.5626 71.3319 69.3637 71.5266C69.1648 71.7212 69.0067 71.9536 68.8988 72.2101C68.7909 72.4667 68.7353 72.7422 68.7353 73.0205C68.7353 73.2988 68.7909 73.5743 68.8988 73.8309C69.0067 74.0874 69.1648 74.3198 69.3637 74.5144C69.5626 74.7091 69.7984 74.862 70.0573 74.9643C70.3161 75.0665 70.5928 75.1161 70.871 75.11H72.263C76.863 75.11 82.014 70.643 82.014 64.662V63.962H77.836Z" fill="#BF8256" stroke="#45413C" stroke-miterlimit="10"/>
<path d="M70.174 33.674C72.0251 33.6743 73.8002 34.4098 75.109 35.7187C76.4178 37.0277 77.153 38.803 77.153 40.654V42.049C79.146 42.049 79.009 45.539 76.804 45.539H76.8C76.3014 47.1261 75.2507 48.4822 73.8384 49.3614C72.4261 50.2406 70.7456 50.5849 69.1013 50.3319C67.4571 50.0788 65.9578 49.2452 64.8753 47.982C63.7927 46.7188 63.1984 45.1096 63.2 43.446V40.654C63.2 38.8038 63.9346 37.0293 65.2423 35.7205C66.55 34.4117 68.3238 33.6756 70.174 33.674Z" fill="#BF8256" stroke="#45413C" stroke-linecap="round" stroke-linejoin="round"/>
<path d="M71.4 42.05C71.2276 42.05 71.059 42.1011 70.9156 42.1969C70.7722 42.2928 70.6604 42.429 70.5944 42.5883C70.5284 42.7476 70.5111 42.923 70.5448 43.0921C70.5784 43.2613 70.6615 43.4166 70.7834 43.5386C70.9054 43.6605 71.0607 43.7436 71.2299 43.7772C71.399 43.8109 71.5744 43.7936 71.7337 43.7276C71.8931 43.6616 72.0292 43.5498 72.1251 43.4064C72.2209 43.263 72.272 43.0945 72.272 42.922C72.272 42.6907 72.1801 42.4689 72.0166 42.3054C71.8531 42.1419 71.6313 42.05 71.4 42.05Z" fill="#45413C"/>
<path d="M66.16 42.05C65.9876 42.0502 65.8191 42.1015 65.6758 42.1974C65.5325 42.2934 65.4209 42.4296 65.3551 42.589C65.2892 42.7483 65.2721 42.9236 65.3059 43.0927C65.3396 43.2618 65.4228 43.4171 65.5448 43.5389C65.6667 43.6608 65.8221 43.7437 65.9913 43.7773C66.1604 43.8109 66.3357 43.7935 66.4949 43.7275C66.6542 43.6615 66.7903 43.5497 66.8861 43.4063C66.9819 43.263 67.033 43.0944 67.033 42.922C67.0331 42.8074 67.0106 42.6938 66.9668 42.5879C66.923 42.482 66.8586 42.3858 66.7775 42.3047C66.6964 42.2237 66.6001 42.1595 66.4942 42.1158C66.3882 42.0721 66.2746 42.0497 66.16 42.05Z" fill="#45413C"/>
<path d="M72.267 45.016C72.267 45.1544 72.3081 45.2898 72.385 45.4049C72.4619 45.52 72.5712 45.6097 72.6992 45.6627C72.8271 45.7157 72.9678 45.7296 73.1036 45.7025C73.2394 45.6755 73.3641 45.6089 73.462 45.511C73.5599 45.4131 73.6266 45.2883 73.6536 45.1526C73.6806 45.0168 73.6667 44.876 73.6137 44.7481C73.5608 44.6202 73.471 44.5109 73.3559 44.434C73.2408 44.357 73.1055 44.316 72.967 44.316C72.8751 44.316 72.7841 44.3341 72.6992 44.3693C72.6142 44.4045 72.5371 44.456 72.4721 44.521C72.4071 44.586 72.3555 44.6632 72.3203 44.7481C72.2851 44.833 72.267 44.9241 72.267 45.016Z" fill="#BF8256"/>
<path d="M70.174 47C69.8411 47.2953 69.4228 47.4769 68.9798 47.5185C68.5367 47.56 68.092 47.4593 67.71 47.231C67.5945 47.1631 67.4848 47.0859 67.382 47" stroke="#45413C" stroke-linecap="round" stroke-linejoin="round"/>
<path d="M77.851 38.109V42.049C76.9256 42.049 76.038 41.6814 75.3836 41.0271C74.7291 40.3729 74.3613 39.4854 74.361 38.56V37.83C74.3613 37.6018 74.4174 37.3772 74.5243 37.1756C74.6313 36.974 74.7859 36.8017 74.9747 36.6735C75.1635 36.5453 75.3807 36.4653 75.6076 36.4403C75.8344 36.4152 76.0638 36.446 76.276 36.53L76.976 36.809C77.2349 36.9137 77.4565 37.0934 77.6124 37.3251C77.7684 37.5568 77.8515 37.8297 77.851 38.109Z" fill="#614B44" stroke="#45413C" stroke-linecap="round" stroke-linejoin="round"/>
<path d="M66.684 38.56H70.872" stroke="#45413C" stroke-linecap="round" stroke-linejoin="round"/>
<path d="M68.778 36.466H70.174" stroke="#45413C" stroke-linecap="round" stroke-linejoin="round"/>
<path d="M59.2731 16.0754L57.7254 17.0294C56.6152 17.7097 55.2803 17.921 54.0143 17.617C52.7482 17.313 51.6548 16.5185 50.9746 15.4083C50.2943 14.2981 50.083 12.9632 50.387 11.6972C50.691 10.4312 51.4855 9.33776 52.5957 8.65752L54.1437 7.7031C55.2536 7.03513 56.5824 6.83285 57.8408 7.14034C59.0991 7.44783 60.1849 8.24017 60.8616 9.34471C61.5384 10.4493 61.7511 11.7765 61.4536 13.0372C61.156 14.2979 60.3723 15.39 59.2731 16.0754ZM53.7357 10.5167C53.1189 10.8946 52.6775 11.502 52.5085 12.2054C52.3396 12.9087 52.4569 13.6504 52.8348 14.2672C53.2127 14.884 53.8201 15.3255 54.5235 15.4945C55.2269 15.6634 55.9685 15.546 56.5853 15.1682L58.133 14.2137C58.4427 14.0288 58.7126 13.7842 58.927 13.4942C59.1415 13.2042 59.2963 12.8745 59.3825 12.5242C59.4687 12.174 59.4845 11.8101 59.4291 11.4537C59.3736 11.0973 59.248 10.7554 59.0596 10.4479C58.8711 10.1403 58.6235 9.87323 58.331 9.66206C58.0386 9.45088 57.7072 9.29982 57.356 9.21762C57.0048 9.13541 56.6408 9.12371 56.285 9.18317C55.9292 9.24263 55.5888 9.37209 55.2834 9.56404L53.7357 10.5167Z" fill="white"/>
<path d="M55.3925 8.69669L53.8448 9.65111C53.4332 9.90346 53.096 10.2606 52.8676 10.6859C52.6393 11.1113 52.5279 11.5896 52.545 12.0721C52.7355 11.4242 53.1599 10.8702 53.7357 10.5174L55.2834 9.56335C55.6884 9.31507 56.1512 9.17687 56.626 9.16247C57.1008 9.14806 57.5711 9.25793 57.9904 9.48121C58.4097 9.70449 58.7634 10.0334 59.0165 10.4354C59.2695 10.8374 59.4132 11.2986 59.4332 11.7732C59.5401 11.4104 59.5694 11.0292 59.5194 10.6543C59.4693 10.2795 59.341 9.9193 59.1427 9.59727C58.9556 9.29187 58.7102 9.02631 58.4204 8.81577C58.1307 8.60522 57.8024 8.45381 57.4541 8.37018C57.1059 8.28655 56.7446 8.27235 56.3908 8.32837C56.0371 8.38439 55.6978 8.50955 55.3925 8.69669Z" fill="#DAEDF7"/>
<path d="M50.3684 11.7878C50.1606 12.7283 50.2341 13.709 50.5798 14.6079C50.9255 15.5068 51.5281 16.2841 52.3125 16.843C53.0969 17.4018 54.0284 17.7175 54.9909 17.7506C55.9534 17.7838 56.9044 17.533 57.7254 17.0294L59.2731 16.0754C59.9671 15.6498 60.5444 15.0582 60.953 14.354C61.3616 13.6498 61.5886 12.8551 61.6137 12.0413C61.4783 12.6939 61.2104 13.3118 60.8265 13.8566C60.4426 14.4015 59.9508 14.8617 59.3818 15.2087L57.8341 16.1631C56.7234 16.8413 55.3891 17.0515 54.1236 16.7475C52.8582 16.4436 51.7649 15.6503 51.0833 14.5417C50.5752 13.7158 50.3262 12.7566 50.3684 11.7878Z" fill="#DAEDF7"/>
<path d="M59.2731 16.0754L57.7254 17.0294C56.6152 17.7097 55.2803 17.921 54.0143 17.617C52.7482 17.313 51.6548 16.5185 50.9746 15.4083C50.2943 14.2981 50.083 12.9632 50.387 11.6972C50.691 10.4312 51.4855 9.33776 52.5957 8.65752L54.1437 7.7031C55.2536 7.03513 56.5824 6.83285 57.8408 7.14034C59.0991 7.44783 60.1849 8.24017 60.8616 9.34471C61.5384 10.4493 61.7511 11.7765 61.4536 13.0372C61.156 14.2979 60.3723 15.39 59.2731 16.0754ZM53.7357 10.5167C53.1189 10.8946 52.6775 11.502 52.5085 12.2054C52.3396 12.9087 52.4569 13.6504 52.8348 14.2672C53.2127 14.884 53.8201 15.3255 54.5235 15.4945C55.2269 15.6634 55.9685 15.546 56.5853 15.1682L58.133 14.2137C58.4427 14.0288 58.7126 13.7842 58.927 13.4942C59.1415 13.2042 59.2963 12.8745 59.3825 12.5242C59.4687 12.174 59.4845 11.8101 59.4291 11.4537C59.3736 11.0973 59.248 10.7554 59.0596 10.4479C58.8711 10.1403 58.6235 9.87323 58.331 9.66206C58.0386 9.45088 57.7072 9.29982 57.356 9.21762C57.0048 9.13541 56.6408 9.12371 56.285 9.18317C55.9292 9.24263 55.5888 9.37209 55.2834 9.56404L53.7357 10.5167Z" stroke="#45413C"/>
<path d="M49.1874 22.2962L47.6398 23.2506C47.09 23.5951 46.4773 23.8273 45.8372 23.9336C45.1972 24.0399 44.5424 24.0183 43.9107 23.87C43.279 23.7217 42.683 23.4496 42.1571 23.0696C41.6313 22.6895 41.186 22.2089 40.847 21.6557C40.508 21.1024 40.282 20.4875 40.1822 19.8464C40.0823 19.2052 40.1105 18.5507 40.2652 17.9205C40.4199 17.2904 40.698 16.6972 41.0833 16.1752C41.4687 15.6532 41.9537 15.2127 42.5104 14.8794L44.0581 13.9249C44.6079 13.5804 45.2205 13.3482 45.8606 13.2419C46.5007 13.1356 47.1555 13.1572 47.7871 13.3055C48.4188 13.4538 49.0148 13.7259 49.5407 14.106C50.0666 14.486 50.5119 14.9666 50.8509 15.5198C51.1898 16.0731 51.4158 16.688 51.5157 17.3292C51.6155 17.9703 51.5873 18.6248 51.4326 19.255C51.2779 19.8851 50.9999 20.4783 50.6145 21.0003C50.2291 21.5223 49.7441 21.9628 49.1874 22.2962ZM43.6501 16.7375C43.0423 17.1195 42.6097 17.7258 42.4461 18.4248C42.2825 19.1237 42.4011 19.859 42.7762 20.4711C43.1513 21.0832 43.7527 21.5226 44.4497 21.6941C45.1468 21.8656 45.8834 21.7553 46.4997 21.3872L48.0474 20.4331C48.357 20.2481 48.6269 20.0036 48.8414 19.7136C49.0559 19.4235 49.2107 19.0939 49.2968 18.7436C49.383 18.3934 49.3988 18.0295 49.3434 17.6731C49.288 17.3167 49.1624 16.9748 48.9739 16.6672C48.7854 16.3597 48.5378 16.0926 48.2454 15.8814C47.953 15.6703 47.6216 15.5192 47.2704 15.437C46.9192 15.3548 46.5551 15.3431 46.1994 15.4026C45.8436 15.462 45.5032 15.5915 45.1978 15.7834L43.6501 16.7375Z" fill="white"/>
<path d="M45.3068 14.9196L43.7591 15.874C43.3475 16.1262 43.0102 16.4833 42.7819 16.9087C42.5535 17.3341 42.4423 17.8125 42.4597 18.295C42.6499 17.6471 43.0742 17.093 43.6501 16.7403L45.1978 15.7859C45.6028 15.5375 46.0656 15.3993 46.5405 15.3848C47.0154 15.3704 47.4858 15.4803 47.9052 15.7036C48.3245 15.9269 48.6782 16.2559 48.9313 16.658C49.1843 17.0602 49.328 17.5214 49.3479 17.9961C49.4548 17.6333 49.4841 17.2521 49.434 16.8772C49.3839 16.5023 49.2555 16.1421 49.057 15.8202C48.8699 15.5148 48.6245 15.2492 48.3348 15.0387C48.0451 14.8281 47.7167 14.6767 47.3685 14.5931C47.0202 14.5095 46.6589 14.4952 46.3052 14.5513C45.9514 14.6073 45.6122 14.7324 45.3068 14.9196Z" fill="#DAEDF7"/>
<path d="M40.283 18.0098C40.0751 18.9502 40.1486 19.9309 40.4942 20.8299C40.8399 21.7288 41.4425 22.5062 42.2268 23.065C43.0112 23.6239 43.9427 23.9396 44.9052 23.9727C45.8678 24.0058 46.8188 23.755 47.6397 23.2513L49.1874 22.2969C49.8817 21.8716 50.4594 21.2802 50.8683 20.576C51.2771 19.8719 51.5045 19.0771 51.5297 18.2632C51.3942 18.9158 51.1262 19.5337 50.7422 20.0785C50.3583 20.6233 49.8666 21.0835 49.2975 21.4306L47.7498 22.385C46.6391 23.0632 45.3049 23.2733 44.0395 22.9694C42.7741 22.6655 41.6809 21.8722 40.9994 20.7636C40.4905 19.938 40.241 18.9787 40.283 18.0098Z" fill="#DAEDF7"/>
<path d="M49.1874 22.2962L47.6398 23.2506C47.09 23.5951 46.4773 23.8273 45.8372 23.9336C45.1972 24.0399 44.5424 24.0183 43.9107 23.87C43.279 23.7217 42.683 23.4496 42.1571 23.0696C41.6313 22.6895 41.186 22.2089 40.847 21.6557C40.508 21.1024 40.282 20.4875 40.1822 19.8464C40.0823 19.2052 40.1105 18.5507 40.2652 17.9205C40.4199 17.2904 40.698 16.6972 41.0833 16.1752C41.4687 15.6532 41.9537 15.2127 42.5104 14.8794L44.0581 13.9249C44.6079 13.5804 45.2205 13.3482 45.8606 13.2419C46.5007 13.1356 47.1555 13.1572 47.7871 13.3055C48.4188 13.4538 49.0148 13.7259 49.5407 14.106C50.0666 14.486 50.5119 14.9666 50.8509 15.5198C51.1898 16.0731 51.4158 16.688 51.5157 17.3292C51.6155 17.9703 51.5873 18.6248 51.4326 19.255C51.2779 19.8851 50.9999 20.4783 50.6145 21.0003C50.2291 21.5223 49.7441 21.9628 49.1874 22.2962ZM43.6501 16.7375C43.0423 17.1195 42.6097 17.7258 42.4461 18.4248C42.2825 19.1237 42.4011 19.859 42.7762 20.4711C43.1513 21.0832 43.7527 21.5226 44.4497 21.6941C45.1468 21.8656 45.8834 21.7553 46.4997 21.3872L48.0474 20.4331C48.357 20.2481 48.6269 20.0036 48.8414 19.7136C49.0559 19.4235 49.2107 19.0939 49.2968 18.7436C49.383 18.3934 49.3988 18.0295 49.3434 17.6731C49.288 17.3167 49.1624 16.9748 48.9739 16.6672C48.7854 16.3597 48.5378 16.0926 48.2454 15.8814C47.953 15.6703 47.6216 15.5192 47.2704 15.437C46.9192 15.3548 46.5551 15.3431 46.1994 15.4026C45.8436 15.462 45.5032 15.5915 45.1978 15.7834L43.6501 16.7375Z" stroke="#45413C"/>
<path d="M55.6411 13.862L47.2688 18.9914C47.1467 19.0662 47.011 19.1163 46.8695 19.1387C46.728 19.1611 46.5835 19.1555 46.4442 19.122C46.3048 19.0886 46.1735 19.028 46.0576 18.9438C45.9417 18.8596 45.8435 18.7534 45.7687 18.6313C45.6938 18.5091 45.6437 18.3735 45.6213 18.232C45.5989 18.0905 45.6046 17.9459 45.638 17.8066C45.6714 17.6673 45.732 17.536 45.8162 17.4201C45.9004 17.3042 46.0066 17.206 46.1287 17.1312L54.501 12.0014C54.7476 11.8541 55.0424 11.8099 55.3214 11.8785C55.6004 11.9471 55.841 12.123 55.9911 12.368C56.1412 12.6129 56.1886 12.9072 56.1231 13.1869C56.0576 13.4666 55.8844 13.7092 55.6411 13.862Z" fill="white"/>
<path d="M48.6641 18.136L47.2688 18.9907C47.1467 19.0656 47.011 19.1157 46.8695 19.1381C46.728 19.1605 46.5835 19.1548 46.4442 19.1214C46.3048 19.088 46.1735 19.0274 46.0576 18.9432C45.9417 18.859 45.8435 18.7528 45.7687 18.6307C45.6938 18.5085 45.6437 18.3728 45.6213 18.2313C45.5989 18.0898 45.6046 17.9453 45.638 17.806C45.6714 17.6667 45.732 17.5354 45.8162 17.4195C45.9004 17.3036 46.0066 17.2054 46.1287 17.1305L47.5244 16.2754C47.2829 16.429 47.1115 16.6713 47.047 16.9501C46.9825 17.2289 47.0301 17.5219 47.1796 17.7659C47.3291 18.0099 47.5684 18.1855 47.8461 18.2547C48.1238 18.3239 48.4175 18.2813 48.6641 18.136Z" fill="#DAEDF7"/>
<path d="M55.6411 13.862L47.2688 18.9914C47.1467 19.0662 47.011 19.1163 46.8695 19.1387C46.728 19.1611 46.5835 19.1555 46.4442 19.122C46.3048 19.0886 46.1735 19.028 46.0576 18.9438C45.9417 18.8596 45.8435 18.7534 45.7687 18.6313C45.6938 18.5091 45.6437 18.3735 45.6213 18.232C45.5989 18.0905 45.6046 17.9459 45.638 17.8066C45.6714 17.6673 45.732 17.536 45.8162 17.4201C45.9004 17.3042 46.0066 17.206 46.1287 17.1312L54.501 12.0014C54.7476 11.8541 55.0424 11.8099 55.3214 11.8785C55.6004 11.9471 55.841 12.123 55.9911 12.368C56.1412 12.6129 56.1886 12.9072 56.1231 13.1869C56.0576 13.4666 55.8844 13.7092 55.6411 13.862Z" stroke="#45413C"/>
</svg>
