<svg width="88" height="88" viewBox="0 0 88 88" fill="none" xmlns="http://www.w3.org/2000/svg">
<path d="M84 44.0051C84.0008 38.0352 82.6653 32.1409 80.0914 26.7544C77.5176 21.3679 73.7707 16.6258 69.1256 12.8759C64.4804 9.12603 59.0548 6.46343 53.2467 5.08343C47.4386 3.70341 41.3952 3.64094 35.5597 4.90063C29.7243 6.16033 24.2448 8.71013 19.5232 12.3632C14.8015 16.0163 10.9574 20.6799 8.27281 26.012C5.58821 31.3442 4.13111 37.2096 4.00841 43.1782C3.88581 49.1468 5.10071 55.0671 7.56401 60.5051H80.436C82.7888 55.3227 84.0041 49.6965 84 44.0051Z" fill="#B8ECFF"/>
<path d="M7.564 60.5051C10.7367 67.509 15.8608 73.4501 22.3229 77.617C28.7849 81.7839 36.311 84 44 84C51.689 84 59.2151 81.7839 65.6771 77.617C72.1392 73.4501 77.2633 67.509 80.436 60.5051H7.564Z" fill="#DAEDF7"/>
<path d="M5 60.5051H83" stroke="#45413C" stroke-linecap="round" stroke-linejoin="round"/>
<path d="M0.5 60.5051H3" stroke="#45413C" stroke-linecap="round" stroke-linejoin="round"/>
<path d="M85 60.5051H87.5" stroke="#45413C" stroke-linecap="round" stroke-linejoin="round"/>
<path d="M78.219 20.1931H37.5C36.9477 20.1931 36.5 20.6408 36.5 21.1931V45.0651C36.5 45.6174 36.9477 46.0651 37.5 46.0651H78.219C78.7713 46.0651 79.219 45.6174 79.219 45.0651V21.1931C79.219 20.6408 78.7713 20.1931 78.219 20.1931Z" fill="#BF8256" stroke="#45413C" stroke-linecap="round" stroke-linejoin="round"/>
<path d="M75.813 22.599H39.907C39.3547 22.599 38.907 23.0467 38.907 23.599V42.658C38.907 43.2103 39.3547 43.658 39.907 43.658H75.813C76.3653 43.658 76.813 43.2103 76.813 42.658V23.599C76.813 23.0467 76.3653 22.599 75.813 22.599Z" fill="#46B000" stroke="#45413C" stroke-linecap="round" stroke-linejoin="round"/>
<path d="M47.0275 30.1676C47.1805 30.1676 47.326 30.2006 47.464 30.2666C47.605 30.3326 47.7205 30.4601 47.8105 30.6491C47.9005 30.8381 47.9455 31.1141 47.9455 31.4771V35.0051H47.2435V31.5986C47.2435 31.3016 47.2255 31.0871 47.1895 30.9551C47.1535 30.8231 47.05 30.7571 46.879 30.7571C46.738 30.7571 46.597 30.8021 46.456 30.8921C46.318 30.9791 46.183 31.1231 46.051 31.3241V35.0051H45.3445V31.5986C45.3445 31.3016 45.3265 31.0871 45.2905 30.9551C45.2545 30.8231 45.151 30.7571 44.98 30.7571C44.833 30.7571 44.6905 30.8021 44.5525 30.8921C44.4175 30.9791 44.284 31.1231 44.152 31.3241V35.0051H43.4545V30.2666H44.0485L44.0935 30.8156C44.2225 30.6326 44.3665 30.4796 44.5255 30.3566C44.6875 30.2306 44.887 30.1676 45.124 30.1676C45.304 30.1676 45.4735 30.2111 45.6325 30.2981C45.7915 30.3821 45.9085 30.5471 45.9835 30.7931C46.1125 30.6071 46.258 30.4571 46.42 30.3431C46.582 30.2261 46.7845 30.1676 47.0275 30.1676ZM51.1055 30.1676C51.5525 30.1676 51.926 30.2696 52.226 30.4736C52.529 30.6746 52.7555 30.9596 52.9055 31.3286C53.0585 31.6976 53.135 32.1326 53.135 32.6336C53.135 33.1166 53.057 33.5441 52.901 33.9161C52.745 34.2881 52.5155 34.5806 52.2125 34.7936C51.9125 35.0036 51.5405 35.1086 51.0965 35.1086C50.6525 35.1086 50.279 35.0066 49.976 34.8026C49.673 34.5986 49.4435 34.3121 49.2875 33.9431C49.1345 33.5711 49.058 33.1376 49.058 32.6426C49.058 32.1536 49.136 31.7231 49.292 31.3511C49.448 30.9791 49.6775 30.6896 49.9805 30.4826C50.2865 30.2726 50.6615 30.1676 51.1055 30.1676ZM51.1055 30.7841C50.6975 30.7841 50.3885 30.9356 50.1785 31.2386C49.9715 31.5386 49.868 32.0066 49.868 32.6426C49.868 33.2666 49.97 33.7301 50.174 34.0331C50.381 34.3361 50.6885 34.4876 51.0965 34.4876C51.5045 34.4876 51.8105 34.3361 52.0145 34.0331C52.2215 33.7301 52.325 33.2636 52.325 32.6336C52.325 32.0036 52.223 31.5386 52.019 31.2386C51.815 30.9356 51.5105 30.7841 51.1055 30.7841ZM58.6485 30.2666L56.925 35.0051H56.0475L54.3375 30.2666H55.1385L56.511 34.3166L57.8655 30.2666H58.6485ZM60.688 32.9036C60.703 33.2696 60.7735 33.5696 60.8995 33.8036C61.0255 34.0346 61.192 34.2056 61.399 34.3166C61.606 34.4246 61.831 34.4786 62.074 34.4786C62.317 34.4786 62.536 34.4426 62.731 34.3706C62.929 34.2986 63.1315 34.1921 63.3385 34.0511L63.694 34.5506C63.472 34.7246 63.2185 34.8611 62.9335 34.9601C62.6515 35.0591 62.362 35.1086 62.065 35.1086C61.606 35.1086 61.2145 35.0051 60.8905 34.7981C60.5665 34.5911 60.319 34.3031 60.148 33.9341C59.98 33.5621 59.896 33.1316 59.896 32.6426C59.896 32.1626 59.9815 31.7366 60.1525 31.3646C60.3235 30.9926 60.5635 30.7001 60.8725 30.4871C61.1815 30.2741 61.546 30.1676 61.966 30.1676C62.365 30.1676 62.7085 30.2621 62.9965 30.4511C63.2845 30.6371 63.505 30.9041 63.658 31.2521C63.814 31.5971 63.892 32.0096 63.892 32.4896C63.892 32.5706 63.8905 32.6471 63.8875 32.7191C63.8845 32.7881 63.88 32.8496 63.874 32.9036H60.688ZM61.975 30.7886C61.624 30.7886 61.33 30.9131 61.093 31.1621C60.859 31.4111 60.7255 31.7966 60.6925 32.3186H63.163C63.154 31.8116 63.043 31.4306 62.83 31.1756C62.617 30.9176 62.332 30.7886 61.975 30.7886ZM66.4984 31.8551C66.4984 32.3231 66.5389 32.7431 66.6199 33.1151C66.7009 33.4841 66.8209 33.8231 66.9799 34.1321C67.1389 34.4381 67.3384 34.7291 67.5784 35.0051C67.8214 35.2841 68.1034 35.5661 68.4244 35.8511L68.0284 36.2651C67.5424 35.8661 67.1254 35.4581 66.7774 35.0411C66.4324 34.6241 66.1669 34.1591 65.9809 33.6461C65.7979 33.1331 65.7064 32.5361 65.7064 31.8551C65.7064 31.1711 65.7979 30.5726 65.9809 30.0596C66.1669 29.5466 66.4324 29.0816 66.7774 28.6646C67.1254 28.2476 67.5424 27.8411 68.0284 27.4451L68.4244 27.8591C68.1004 28.1471 67.8169 28.4306 67.5739 28.7096C67.3339 28.9856 67.1344 29.2766 66.9754 29.5826C66.8164 29.8856 66.6964 30.2231 66.6154 30.5951C66.5374 30.9641 66.4984 31.3841 66.4984 31.8551ZM73.4699 31.8551C73.4699 31.3841 73.4294 30.9641 73.3484 30.5951C73.2704 30.2231 73.1519 29.8856 72.9929 29.5826C72.8339 29.2766 72.6329 28.9856 72.3899 28.7096C72.1499 28.4306 71.8679 28.1471 71.5439 27.8591L71.9399 27.4451C72.4289 27.8411 72.8459 28.2476 73.1909 28.6646C73.5359 29.0816 73.7999 29.5466 73.9829 30.0596C74.1689 30.5726 74.2619 31.1711 74.2619 31.8551C74.2619 32.5361 74.1689 33.1331 73.9829 33.6461C73.7999 34.1591 73.5359 34.6241 73.1909 35.0411C72.8459 35.4581 72.4289 35.8661 71.9399 36.2651L71.5439 35.8511C71.8649 35.5661 72.1454 35.2841 72.3854 35.0051C72.6284 34.7291 72.8294 34.4381 72.9884 34.1321C73.1474 33.8231 73.2674 33.4841 73.3484 33.1151C73.4294 32.7431 73.4699 32.3231 73.4699 31.8551Z" fill="white"/>
<path d="M68.462 60.505H61.1C60.7938 60.5056 60.499 60.3891 60.276 60.1794C60.0529 59.9697 59.9184 59.6827 59.9 59.377L59.369 50.877H70.199L69.668 59.377C69.6496 59.6837 69.5143 59.9716 69.2899 60.1815C69.0655 60.3913 68.7692 60.5071 68.462 60.505Z" fill="#DAEDF7" stroke="#45413C" stroke-linecap="round" stroke-linejoin="round"/>
<path d="M67.787 48.471H61.77C61.1318 48.4713 60.5198 48.725 60.0687 49.1764C59.6175 49.6278 59.364 50.2398 59.364 50.878H70.194C70.194 50.2397 69.9404 49.6274 69.489 49.176C69.0376 48.7246 68.4254 48.471 67.787 48.471Z" fill="#DAEDF7" stroke="#45413C" stroke-linecap="round" stroke-linejoin="round"/>
<path d="M64.779 53.285V58.098" stroke="#45413C" stroke-linecap="round" stroke-linejoin="round"/>
<path d="M67.787 53.285L67.185 58.098" stroke="#45413C" stroke-linecap="round" stroke-linejoin="round"/>
<path d="M61.77 53.285L62.372 58.098" stroke="#45413C" stroke-linecap="round" stroke-linejoin="round"/>
<path d="M62.974 48.471V47.271C62.974 46.9528 63.1004 46.6475 63.3255 46.4225C63.5505 46.1974 63.8557 46.071 64.174 46.071H65.374C65.6923 46.071 65.9975 46.1974 66.2225 46.4225C66.4476 46.6475 66.574 46.9528 66.574 47.271V48.471" stroke="#45413C" stroke-linecap="round" stroke-linejoin="round"/>
<path opacity="0.15" d="M27.382 82.7811C34.734 82.7811 40.694 81.887 40.694 80.7841C40.694 79.6812 34.734 78.7871 27.382 78.7871C20.03 78.7871 14.07 79.6812 14.07 80.7841C14.07 81.887 20.03 82.7811 27.382 82.7811Z" fill="#45413C"/>
<path d="M43.481 54.487C43.4794 55.123 43.2261 55.7326 42.7763 56.1823C42.3266 56.6321 41.717 56.8854 41.081 56.887C35.787 56.887 29.868 51.749 29.868 44.872V44.063C29.868 43.4257 30.1212 42.8145 30.5718 42.3638C31.0225 41.9132 31.6337 41.66 32.271 41.66C32.9083 41.66 33.5195 41.9132 33.9702 42.3638C34.4208 42.8145 34.674 43.4257 34.674 44.063V44.872C34.674 49.272 38.474 52.081 41.081 52.081C41.7181 52.0826 42.3285 52.3368 42.7784 52.7878C43.2284 53.2389 43.481 53.8499 43.481 54.487Z" fill="#FFCEBF" stroke="#45413C" stroke-linecap="round" stroke-linejoin="round"/>
<path d="M25.059 76.113H20.253L19.452 66.502H25.059V76.113Z" fill="#FFCEBF"/>
<path d="M25.059 69.705H19.719L19.452 66.502H25.059V69.705Z" fill="#FFB59E"/>
<path d="M25.059 76.113H20.253L19.452 66.502H25.059V76.113Z" stroke="#45413C" stroke-linecap="round" stroke-linejoin="round"/>
<path d="M25.059 76.113H29.865L30.666 66.502H25.059V76.113Z" fill="#FFCEBF"/>
<path d="M25.059 69.705H30.399L30.666 66.502H25.059V69.705Z" fill="#FFB59E"/>
<path d="M25.059 76.113H29.865L30.666 66.502H25.059V76.113Z" stroke="#45413C" stroke-linecap="round" stroke-linejoin="round"/>
<path d="M25.059 66.502V79.317" stroke="#45413C" stroke-linecap="round" stroke-linejoin="round"/>
<path d="M25.059 76.113H29.059C32.984 76.113 33.885 80.113 33.885 80.113H25.059V76.113Z" fill="#87898C" stroke="#45413C" stroke-linejoin="round"/>
<path d="M20.253 76.113H24.253C28.178 76.113 29.079 80.113 29.079 80.113H21.579C21.226 80.113 20.8875 79.9728 20.6379 79.7232C20.3882 79.4736 20.248 79.135 20.248 78.782L20.253 76.113Z" fill="#87898C" stroke="#45413C" stroke-linejoin="round"/>
<path d="M17.85 52.885L18.577 65.248C18.5962 65.5876 18.7445 65.907 18.9916 66.1407C19.2387 66.3744 19.5659 66.5048 19.906 66.505H30.211C30.5507 66.505 30.8776 66.3752 31.1247 66.1421C31.3718 65.9089 31.5204 65.5901 31.54 65.251L32.268 52.888L17.85 52.885Z" fill="#87898C" stroke="#45413C" stroke-linecap="round" stroke-linejoin="round"/>
<path d="M13.044 46.4771V58.4921C13.044 59.1294 13.2972 59.7406 13.7478 60.1912C14.1985 60.6419 14.8097 60.8951 15.447 60.8951C16.0843 60.8951 16.6955 60.6419 17.1462 60.1912C17.5968 59.7406 17.85 59.1294 17.85 58.4921V46.4771H13.044Z" fill="#FFCEBF" stroke="#45413C" stroke-linecap="round" stroke-linejoin="round"/>
<path d="M41.314 52.097L46.685 33.661" stroke="#45413C" stroke-linecap="round" stroke-linejoin="round"/>
<path d="M35.472 40.8701C35.472 37.896 34.2905 35.0436 32.1875 32.9406C30.0845 30.8376 27.2321 29.6561 24.258 29.6561C21.2839 29.6561 18.4315 30.8376 16.3285 32.9406C14.2255 35.0436 13.044 37.896 13.044 40.8701V46.4771H17.855V52.8851H32.268V46.4771H34.14C34.3149 46.4772 34.4881 46.4429 34.6497 46.3761C34.8113 46.3092 34.9581 46.2112 35.0818 46.0876C35.2055 45.964 35.3036 45.8172 35.3706 45.6557C35.4375 45.4941 35.472 45.321 35.472 45.1461V40.8701Z" fill="#FF6242"/>
<path d="M24.258 29.6561C21.2839 29.6561 18.4315 30.8376 16.3285 32.9406C14.2255 35.0436 13.044 37.896 13.044 40.8701V44.6601C13.044 41.686 14.2255 38.8336 16.3285 36.7306C18.4315 34.6276 21.2839 33.4461 24.258 33.4461C27.2321 33.4461 30.0845 34.6276 32.1875 36.7306C34.2905 38.8336 35.472 41.686 35.472 44.6601V40.8701C35.472 37.896 34.2905 35.0436 32.1875 32.9406C30.0845 30.8376 27.2321 29.6561 24.258 29.6561Z" fill="#FF6242"/>
<path d="M35.472 40.8701C35.472 37.896 34.2905 35.0436 32.1875 32.9406C30.0845 30.8376 27.2321 29.6561 24.258 29.6561C21.2839 29.6561 18.4315 30.8376 16.3285 32.9406C14.2255 35.0436 13.044 37.896 13.044 40.8701V46.4771H17.855V52.8851H32.268V46.4771H34.14C34.3149 46.4772 34.4881 46.4429 34.6497 46.3761C34.8113 46.3092 34.9581 46.2112 35.0818 46.0876C35.2055 45.964 35.3036 45.8172 35.3706 45.6557C35.4375 45.4941 35.472 45.321 35.472 45.1461V40.8701Z" stroke="#45413C" stroke-linecap="round" stroke-linejoin="round"/>
<path d="M27.9 30.263C27.7028 30.1953 27.5317 30.0676 27.4107 29.8978C27.2897 29.728 27.2247 29.5246 27.225 29.316V26.221H22.612V28.946C22.6117 29.1734 22.534 29.3938 22.3917 29.571C22.2494 29.7483 22.0509 29.8717 21.829 29.921C21.692 29.951 21.556 29.984 21.42 30.021L25.062 40.07L28.53 30.499C28.3233 30.4144 28.1133 30.3357 27.9 30.263Z" fill="#FFCEBF" stroke="#45413C" stroke-linecap="round" stroke-linejoin="round"/>
<path d="M17.85 48.88V41.671" stroke="#45413C" stroke-linecap="round" stroke-linejoin="round"/>
<path d="M25.059 40.0692V52.8852" stroke="#45413C" stroke-linecap="round" stroke-linejoin="round"/>
<path d="M21.418 30.02L19.391 35.035C19.3093 35.237 19.2784 35.4561 19.3012 35.6728C19.3239 35.8896 19.3995 36.0974 19.5214 36.2781C19.6432 36.4588 19.8076 36.6068 20 36.7092C20.1924 36.8115 20.4071 36.865 20.625 36.865H23.9L21.418 30.02Z" fill="white" stroke="#45413C" stroke-linecap="round" stroke-linejoin="round"/>
<path d="M28.973 30.693C28.8257 30.6263 28.677 30.5597 28.527 30.493L26.22 36.865H29.493C29.7109 36.865 29.9256 36.8115 30.118 36.7092C30.3104 36.6069 30.4748 36.4589 30.5966 36.2782C30.7185 36.0975 30.7941 35.8896 30.8168 35.6728C30.8396 35.4561 30.8087 35.2371 30.727 35.035L28.973 30.693Z" fill="white" stroke="#45413C" stroke-linecap="round" stroke-linejoin="round"/>
<path d="M32.268 46.4771C32.2682 45.4841 32.5764 44.5156 33.15 43.7051C33.6381 42.9175 33.8882 42.0055 33.87 41.0791" stroke="#45413C" stroke-linecap="round" stroke-linejoin="round"/>
<path d="M24.819 9.27002C22.6948 9.27032 20.6577 10.1143 19.1557 11.6164C17.6538 13.1186 16.81 15.1558 16.81 17.28V18.88C14.522 18.88 14.679 22.885 17.21 22.885H17.217C17.786 24.7102 18.991 26.2708 20.6128 27.2832C22.2347 28.2956 24.1659 28.6926 26.0556 28.4021C27.9453 28.1116 29.6681 27.1528 30.911 25.7001C32.1539 24.2473 32.8345 22.3969 32.829 20.485V17.285C32.8297 16.2327 32.623 15.1906 32.2207 14.2182C31.8185 13.2458 31.2286 12.3622 30.4847 11.6178C29.7408 10.8735 28.8576 10.283 27.8854 9.88022C26.9133 9.47732 25.8713 9.27002 24.819 9.27002Z" fill="#FFCEBF" stroke="#45413C" stroke-linecap="round" stroke-linejoin="round"/>
<path d="M23.418 20.0831C23.9708 20.0831 24.419 19.635 24.419 19.0821C24.419 18.5293 23.9708 18.0811 23.418 18.0811C22.8652 18.0811 22.417 18.5293 22.417 19.0821C22.417 19.635 22.8652 20.0831 23.418 20.0831Z" fill="#45413C"/>
<path d="M29.425 20.0831C29.9778 20.0831 30.426 19.635 30.426 19.0821C30.426 18.5293 29.9778 18.0811 29.425 18.0811C28.8722 18.0811 28.424 18.5293 28.424 19.0821C28.424 19.635 28.8722 20.0831 29.425 20.0831Z" fill="#45413C"/>
<path d="M22.416 22.2859C22.416 22.4442 22.3691 22.5988 22.2812 22.7304C22.1933 22.8619 22.0683 22.9645 21.9222 23.025C21.776 23.0856 21.6151 23.1014 21.4599 23.0706C21.3048 23.0397 21.1622 22.9635 21.0503 22.8516C20.9384 22.7397 20.8622 22.5972 20.8314 22.442C20.8005 22.2868 20.8164 22.126 20.8769 21.9798C20.9375 21.8336 21.04 21.7087 21.1716 21.6208C21.3031 21.5329 21.4578 21.4859 21.616 21.4859C21.8282 21.4859 22.0317 21.5702 22.1817 21.7202C22.3317 21.8703 22.416 22.0738 22.416 22.2859Z" fill="#FFB59E"/>
<path d="M24.419 23.612C24.8961 24.0362 25.4961 24.2971 26.1316 24.3568C26.7672 24.4165 27.4053 24.2719 27.953 23.944C28.1187 23.8463 28.2762 23.7352 28.424 23.612" stroke="#45413C" stroke-linecap="round" stroke-linejoin="round"/>
<path d="M19.2 19.683C19.2 18.8343 19.5371 18.0204 20.1373 17.4203C20.7374 16.8202 21.5513 16.483 22.4 16.483H33.649C33.7444 16.483 33.8386 16.4625 33.9254 16.4228C34.0121 16.3832 34.0894 16.3254 34.1518 16.2533C34.2143 16.1813 34.2606 16.0966 34.2875 16.0052C34.3145 15.9137 34.3215 15.8175 34.308 15.723C34.0301 13.5223 33.0386 11.4733 31.4854 9.88963C29.9323 8.30593 27.9029 7.27473 25.708 6.95403C24.296 6.77023 22.861 6.88963 21.4987 7.30423C20.1365 7.71883 18.8783 8.41923 17.8082 9.35863C16.7381 10.2979 15.8805 11.4547 15.2928 12.7517C14.7051 14.0487 14.4007 15.4561 14.4 16.88V28.622C14.4013 28.8258 14.4488 29.0266 14.5389 29.2094C14.629 29.3922 14.7594 29.5521 14.9202 29.6773C15.0811 29.8024 15.2682 29.8894 15.4675 29.9318C15.6668 29.9742 15.8732 29.9709 16.071 29.922C18.071 29.444 18.961 28.035 19.206 26.095L19.2 19.683Z" fill="#FFC44D"/>
<path d="M24.008 10.071C25.9278 10.0767 27.8239 10.4949 29.568 11.2971C31.3121 12.0994 32.8634 13.267 34.117 14.721C33.6559 12.5862 32.5062 10.662 30.8448 9.24431C29.1835 7.82651 27.1024 6.99381 24.9216 6.87421C22.7408 6.75461 20.5811 7.35461 18.7747 8.58211C16.9682 9.80951 15.6149 11.5965 14.923 13.668C17.3872 11.3628 20.6337 10.0775 24.008 10.071Z" fill="#FFDB94"/>
<path d="M19.2 19.683C19.2 18.8343 19.5371 18.0204 20.1373 17.4203C20.7374 16.8202 21.5513 16.483 22.4 16.483H33.649C33.7444 16.483 33.8386 16.4625 33.9254 16.4228C34.0121 16.3832 34.0894 16.3254 34.1518 16.2533C34.2143 16.1813 34.2606 16.0966 34.2875 16.0052C34.3145 15.9137 34.3215 15.8175 34.308 15.723C34.0301 13.5223 33.0386 11.4733 31.4854 9.88963C29.9323 8.30593 27.9029 7.27473 25.708 6.95403C24.296 6.77023 22.861 6.88963 21.4987 7.30423C20.1365 7.71883 18.8783 8.41923 17.8082 9.35863C16.7381 10.2979 15.8805 11.4547 15.2928 12.7517C14.7051 14.0487 14.4007 15.4561 14.4 16.88V28.622C14.4013 28.8258 14.4488 29.0266 14.5389 29.2094C14.629 29.3922 14.7594 29.5521 14.9202 29.6773C15.0811 29.8024 15.2682 29.8894 15.4675 29.9318C15.6668 29.9742 15.8732 29.9709 16.071 29.922C18.071 29.444 18.961 28.035 19.206 26.095L19.2 19.683Z" stroke="#45413C" stroke-linejoin="round"/>
<path d="M24.809 16.479V13.275" stroke="#45413C" stroke-linecap="round" stroke-linejoin="round"/>
<path d="M21.605 16.58V13.275" stroke="#45413C" stroke-linecap="round" stroke-linejoin="round"/>
<path d="M28.013 16.479V13.275" stroke="#45413C" stroke-linecap="round" stroke-linejoin="round"/>
</svg>
