<svg width="82" height="82" viewBox="0 0 82 82" fill="none" xmlns="http://www.w3.org/2000/svg">
<path d="M1 41C1 51.6087 5.21427 61.7828 12.7157 69.2843C20.2172 76.7857 30.3913 81 41 81C51.6087 81 61.7828 76.7857 69.2843 69.2843C76.7857 61.7828 81 51.6087 81 41C81 30.3913 76.7857 20.2172 69.2843 12.7157C61.7828 5.21427 51.6087 1 41 1C30.3913 1 20.2172 5.21427 12.7157 12.7157C5.21427 20.2172 1 30.3913 1 41Z" fill="#DAEDF7" stroke="#DAEDF7"/>
<path opacity="0.15" d="M24 71.35C24 71.7876 25.7802 72.2072 28.949 72.5167C32.1178 72.8261 36.4156 73 40.897 73C45.3784 73 49.6762 72.8261 52.845 72.5167C56.0138 72.2072 57.794 71.7876 57.794 71.35C57.794 70.9123 56.0138 70.4927 52.845 70.1832C49.6762 69.8738 45.3784 69.7 40.897 69.7C36.4156 69.7 32.1178 69.8738 28.949 70.1832C25.7802 70.4927 24 70.9123 24 71.35Z" fill="#45413C"/>
<path d="M64.753 48.548C64.8806 48.7378 64.9487 48.9613 64.9487 49.1899C64.9487 49.4186 64.8806 49.6421 64.753 49.832C62.868 52.637 54.584 63.68 41.017 63.68C27.45 63.68 19.165 52.637 17.28 49.832C17.1524 49.6421 17.0843 49.4186 17.0843 49.1899C17.0843 48.9613 17.1524 48.7378 17.28 48.548C19.165 45.744 27.45 34.7 41.017 34.7C54.584 34.7 62.868 45.744 64.753 48.548Z" fill="white"/>
<path d="M30.667 49.19C30.667 50.5491 30.9347 51.895 31.4548 53.1507C31.975 54.4065 32.7374 55.5474 33.6984 56.5085C34.6595 57.4696 35.8005 58.232 37.0562 58.7521C38.3119 59.2723 39.6578 59.54 41.017 59.54C42.3762 59.54 43.722 59.2723 44.9778 58.7521C46.2335 58.232 47.3745 57.4696 48.3355 56.5085C49.2966 55.5474 50.059 54.4065 50.5791 53.1507C51.0993 51.895 51.367 50.5491 51.367 49.19C51.367 47.8308 51.0993 46.4849 50.5791 45.2292C50.059 43.9735 49.2966 42.8325 48.3355 41.8714C47.3745 40.9103 46.2335 40.1479 44.9778 39.6278C43.722 39.1077 42.3762 38.84 41.017 38.84C39.6578 38.84 38.3119 39.1077 37.0562 39.6278C35.8005 40.1479 34.6595 40.9103 33.6984 41.8714C32.7374 42.8325 31.975 43.9735 31.4548 45.2292C30.9347 46.4849 30.667 47.8308 30.667 49.19Z" fill="#4ACFFF"/>
<path d="M33.7 56.5081C31.8065 54.5576 30.7563 51.9405 30.7763 49.2222C30.7964 46.5039 31.8851 43.9026 33.8073 41.9803C35.7294 40.058 38.3306 38.9692 41.0489 38.9489C43.7673 38.9286 46.3844 39.9786 48.335 41.8721L33.7 56.5081Z" fill="#4ACFFF"/>
<path d="M30.667 49.19C30.667 50.5491 30.9347 51.895 31.4548 53.1507C31.975 54.4065 32.7374 55.5474 33.6984 56.5085C34.6595 57.4696 35.8005 58.232 37.0562 58.7521C38.3119 59.2723 39.6578 59.54 41.017 59.54C42.3762 59.54 43.722 59.2723 44.9778 58.7521C46.2335 58.232 47.3745 57.4696 48.3355 56.5085C49.2966 55.5474 50.059 54.4065 50.5791 53.1507C51.0993 51.895 51.367 50.5491 51.367 49.19C51.367 47.8308 51.0993 46.4849 50.5791 45.2292C50.059 43.9735 49.2966 42.8325 48.3355 41.8714C47.3745 40.9103 46.2335 40.1479 44.9778 39.6278C43.722 39.1077 42.3762 38.84 41.017 38.84C39.6578 38.84 38.3119 39.1077 37.0562 39.6278C35.8005 40.1479 34.6595 40.9103 33.6984 41.8714C32.7374 42.8325 31.975 43.9735 31.4548 45.2292C30.9347 46.4849 30.667 47.8308 30.667 49.19Z" stroke="#45413C" stroke-linecap="round" stroke-linejoin="round"/>
<path d="M36.992 49.19C36.992 50.2575 37.4161 51.2813 38.1709 52.0361C38.9257 52.791 39.9495 53.215 41.017 53.215C42.0845 53.215 43.1083 52.791 43.8631 52.0361C44.6179 51.2813 45.042 50.2575 45.042 49.19C45.042 48.1225 44.6179 47.0988 43.8631 46.3439C43.1083 45.5891 42.0845 45.165 41.017 45.165C39.9495 45.165 38.9257 45.5891 38.1709 46.3439C37.4161 47.0988 36.992 48.1225 36.992 49.19Z" fill="#45413C"/>
<path d="M38.171 52.036C37.792 51.6635 37.4905 51.2195 37.284 50.7298C37.0774 50.2401 36.9699 49.7144 36.9676 49.1829C36.9653 48.6514 37.0683 48.1248 37.2707 47.6333C37.473 47.1419 37.7707 46.6953 38.1465 46.3195C38.5223 45.9437 38.9688 45.646 39.4603 45.4437C39.9517 45.2414 40.4784 45.1384 41.0099 45.1407C41.5413 45.1429 42.0671 45.2505 42.5568 45.457C43.0465 45.6635 43.4904 45.965 43.863 46.3441L38.171 52.036Z" fill="#87898C"/>
<path d="M36.992 49.19C36.992 50.2575 37.4161 51.2813 38.1709 52.0361C38.9257 52.791 39.9495 53.215 41.017 53.215C42.0845 53.215 43.1083 52.791 43.8631 52.0361C44.6179 51.2813 45.042 50.2575 45.042 49.19C45.042 48.1225 44.6179 47.0988 43.8631 46.3439C43.1083 45.5891 42.0845 45.165 41.017 45.165C39.9495 45.165 38.9257 45.5891 38.1709 46.3439C37.4161 47.0988 36.992 48.1225 36.992 49.19Z" stroke="#45413C" stroke-linecap="round" stroke-linejoin="round"/>
<path d="M64.843 48.707C60.3 53.626 52.208 60.092 41.017 60.092C29.826 60.092 21.73 53.625 17.191 48.707L17.28 48.548C17.1524 48.7378 17.0843 48.9613 17.0843 49.19C17.0843 49.4187 17.1524 49.6422 17.28 49.832C19.165 52.637 27.45 63.68 41.017 63.68C54.584 63.68 62.868 52.637 64.753 49.832C64.8806 49.6422 64.9487 49.4187 64.9487 49.19C64.9487 48.9613 64.8806 48.7378 64.753 48.548" fill="#DAEDF7"/>
<path d="M64.753 48.548C64.8806 48.7378 64.9487 48.9613 64.9487 49.1899C64.9487 49.4186 64.8806 49.6421 64.753 49.832C62.868 52.637 54.584 63.68 41.017 63.68C27.45 63.68 19.165 52.637 17.28 49.832C17.1524 49.6421 17.0843 49.4186 17.0843 49.1899C17.0843 48.9613 17.1524 48.7378 17.28 48.548C19.165 45.744 27.45 34.7 41.017 34.7C54.584 34.7 62.868 45.744 64.753 48.548Z" stroke="#45413C" stroke-linecap="round" stroke-linejoin="round"/>
<path d="M27.872 32.432C27.7791 32.8266 27.5408 33.1716 27.2048 33.3983C26.8688 33.625 26.4596 33.7167 26.059 33.655L18.524 32.5C17.6864 32.3543 16.8875 32.0385 16.1765 31.5723C15.4655 31.106 14.8575 30.4992 14.39 29.789C13.9579 29.1751 13.6746 28.4691 13.5625 27.7267C13.4504 26.9844 13.5125 26.2262 13.744 25.512C14.0587 24.5808 14.72 23.8065 15.5905 23.3499C16.461 22.8934 17.474 22.7895 18.419 23.06L20.609 23.629L20.9 21.385C21.0023 20.4074 21.4772 19.5066 22.2262 18.8699C22.9751 18.2332 23.9406 17.9095 24.922 17.966C25.6711 18.0184 26.3977 18.2444 27.0442 18.6263C27.6908 19.0081 28.2395 19.5353 28.647 20.166C29.1308 20.8652 29.4664 21.656 29.6331 22.4898C29.7997 23.3236 29.7939 24.1826 29.616 25.014L27.872 32.432Z" fill="#FF6242" stroke="#E04122" stroke-linecap="round" stroke-linejoin="round"/>
<path d="M61.709 35.7119C61.4281 35.7042 61.1606 35.5907 60.9598 35.3942C60.759 35.1977 60.6398 34.9326 60.626 34.6519L60.365 29.3729C60.3476 28.7838 60.4511 28.1974 60.669 27.6498C60.8869 27.1022 61.2146 26.605 61.632 26.1889C61.9889 25.8104 62.4289 25.5201 62.9173 25.341C63.4057 25.1619 63.9291 25.0989 64.446 25.1569C65.1223 25.2411 65.7401 25.5825 66.1712 26.1102C66.6023 26.638 66.8135 27.3115 66.761 27.9909L66.679 29.5569L68.243 29.4429C68.9213 29.3767 69.599 29.5743 70.1355 29.9945C70.6719 30.4148 71.026 31.0255 71.124 31.6999C71.1926 32.2158 71.1401 32.7406 70.9707 33.2326C70.8013 33.7247 70.5196 34.1706 70.148 34.5349C69.7405 34.9605 69.2502 35.2982 68.7072 35.5271C68.1643 35.756 67.5802 35.8713 66.991 35.8659L61.709 35.7119Z" fill="#FF6242" stroke="#E04122" stroke-linecap="round" stroke-linejoin="round"/>
<path d="M47.054 28.2681C46.5856 28.585 46.015 28.7136 45.456 28.6284C44.8969 28.5431 44.3906 28.2502 44.038 27.808L37.405 19.493C36.6837 18.5509 36.163 17.471 35.8749 16.3199C35.5868 15.1688 35.5375 13.9709 35.73 12.8C35.8674 11.7612 36.2448 10.7686 36.8321 9.90081C37.4194 9.033 38.2007 8.31377 39.114 7.80005C40.3177 7.14242 41.7284 6.97375 43.0532 7.32906C44.378 7.68437 45.5149 8.53636 46.228 9.70805L47.935 12.363L50.356 10.338C51.3858 9.43213 52.7251 8.95782 54.0956 9.01369C55.4661 9.06956 56.7623 9.65131 57.715 10.638C58.4338 11.3999 58.9654 12.3186 59.2676 13.3215C59.5698 14.3244 59.6343 15.3839 59.456 16.416C59.2907 17.5906 58.8867 18.7189 58.2687 19.7314C57.6508 20.7439 56.8321 21.6191 55.863 22.303L47.054 28.2681Z" fill="#FF6242" stroke="#E04122" stroke-linecap="round" stroke-linejoin="round"/>
</svg>

