<svg width="82" height="82" viewBox="0 0 82 82" fill="none" xmlns="http://www.w3.org/2000/svg">
<path d="M1 41C1 51.6087 5.21427 61.7828 12.7157 69.2843C20.2172 76.7857 30.3913 81 41 81C51.6087 81 61.7828 76.7857 69.2843 69.2843C76.7857 61.7828 81 51.6087 81 41C81 30.3913 76.7857 20.2172 69.2843 12.7157C61.7828 5.21427 51.6087 1 41 1C30.3913 1 20.2172 5.21427 12.7157 12.7157C5.21427 20.2172 1 30.3913 1 41Z" fill="#DAEDF7" stroke="#DAEDF7"/>
<path d="M18.448 23.019H63.537V68.108H18.448V23.019Z" fill="#FFE500"/>
<path d="M57.275 23.019H24.71C23.8876 23.019 23.0732 23.181 22.3134 23.4958C21.5536 23.8106 20.8632 24.2719 20.2817 24.8535C19.7002 25.4351 19.239 26.1255 18.9244 26.8854C18.6097 27.6452 18.4479 28.4596 18.448 29.282V33.039C18.448 31.3783 19.1077 29.7855 20.2821 28.6111C21.4564 27.4368 23.0492 26.777 24.71 26.777H57.275C58.9357 26.7773 60.5283 27.4371 61.7026 28.6114C62.8769 29.7857 63.5367 31.3783 63.537 33.039V29.282C63.537 27.6212 62.8773 26.0283 61.703 24.8538C60.5286 23.6793 58.9359 23.0193 57.275 23.019Z" fill="#FFF48C"/>
<path d="M18.448 23.019H63.537V68.108H18.448V23.019Z" stroke="#45413C" stroke-linecap="round" stroke-linejoin="round"/>
<path d="M42.466 32.709L45.438 38.732C45.5555 38.9715 45.7297 39.1787 45.9454 39.3355C46.1612 39.4924 46.412 39.5941 46.676 39.632L53.323 40.598C53.626 40.6424 53.9104 40.7705 54.1444 40.9679C54.3784 41.1653 54.5526 41.4242 54.6473 41.7153C54.7421 42.0065 54.7536 42.3183 54.6805 42.6156C54.6075 42.9129 54.4529 43.1839 54.234 43.398L49.423 48.087C49.2325 48.2733 49.0901 48.503 49.0079 48.7564C48.9257 49.0098 48.9062 49.2794 48.951 49.542L50.086 56.163C50.1393 56.4658 50.1065 56.7775 49.9913 57.0626C49.8762 57.3477 49.6834 57.5948 49.4348 57.7758C49.1863 57.9567 48.8919 58.0643 48.5852 58.0863C48.2785 58.1082 47.9719 58.0437 47.7 57.9L41.757 54.77C41.5212 54.6463 41.2588 54.5817 40.9925 54.5817C40.7262 54.5817 40.4639 54.6463 40.228 54.77L34.282 57.9C34.0104 58.0425 33.7043 58.1061 33.3984 58.0836C33.0925 58.0611 32.799 57.9535 32.5511 57.7728C32.3032 57.5922 32.1109 57.3457 31.9958 57.0614C31.8807 56.7771 31.8476 56.4662 31.9 56.164L33.035 49.543C33.0803 49.2804 33.061 49.0107 32.9788 48.7572C32.8966 48.5037 32.7539 48.274 32.563 48.088L27.75 43.4C27.5312 43.1859 27.3766 42.9149 27.3035 42.6176C27.2305 42.3203 27.242 42.0085 27.3367 41.7173C27.4314 41.4262 27.6056 41.1673 27.8396 40.9699C28.0736 40.7725 28.3581 40.6444 28.661 40.6L35.309 39.634C35.5729 39.596 35.8235 39.4941 36.039 39.3373C36.2546 39.1805 36.4286 38.9734 36.546 38.734L39.519 32.711C39.6545 32.4359 39.8642 32.2042 40.1245 32.0421C40.3848 31.88 40.6853 31.794 40.9919 31.7938C41.2985 31.7936 41.5991 31.8792 41.8596 32.041C42.1201 32.2027 42.3302 32.4341 42.466 32.709Z" fill="#FFF48C"/>
<path d="M32.1 54.981L33.032 49.543C33.0773 49.2804 33.058 49.0107 32.9758 48.7572C32.8936 48.5037 32.7509 48.274 32.56 48.088L27.75 43.4C27.5312 43.1859 27.3766 42.9149 27.3035 42.6176C27.2305 42.3203 27.242 42.0084 27.3367 41.7173C27.4314 41.4262 27.6056 41.1673 27.8396 40.9699C28.0736 40.7725 28.3581 40.6444 28.661 40.6L35.309 39.634C35.5729 39.596 35.8235 39.4941 36.039 39.3373C36.2546 39.1804 36.4286 38.9733 36.546 38.734L39.519 32.711C39.6547 32.436 39.8646 32.2044 40.125 32.0425C40.3854 31.8806 40.6859 31.7948 40.9925 31.7948C41.2992 31.7948 41.5997 31.8806 41.8601 32.0425C42.1205 32.2044 42.3304 32.436 42.466 32.711L45.438 38.734C45.5555 38.9735 45.7297 39.1806 45.9454 39.3375C46.1612 39.4943 46.412 39.5961 46.676 39.634L32.1 54.981Z" fill="#FFFACF"/>
<path d="M42.466 32.709L45.438 38.732C45.5555 38.9715 45.7297 39.1787 45.9454 39.3355C46.1612 39.4924 46.412 39.5941 46.676 39.632L53.323 40.598C53.626 40.6424 53.9104 40.7705 54.1444 40.9679C54.3784 41.1653 54.5526 41.4242 54.6473 41.7153C54.7421 42.0065 54.7536 42.3183 54.6805 42.6156C54.6075 42.9129 54.4529 43.1839 54.234 43.398L49.423 48.087C49.2325 48.2733 49.0901 48.503 49.0079 48.7564C48.9257 49.0098 48.9062 49.2794 48.951 49.542L50.086 56.163C50.1393 56.4658 50.1065 56.7775 49.9913 57.0626C49.8762 57.3477 49.6834 57.5948 49.4348 57.7758C49.1863 57.9567 48.8919 58.0643 48.5852 58.0863C48.2785 58.1082 47.9719 58.0437 47.7 57.9L41.757 54.77C41.5212 54.6463 41.2588 54.5817 40.9925 54.5817C40.7262 54.5817 40.4639 54.6463 40.228 54.77L34.282 57.9C34.0104 58.0425 33.7043 58.1061 33.3984 58.0836C33.0925 58.0611 32.799 57.9535 32.5511 57.7728C32.3032 57.5922 32.1109 57.3457 31.9958 57.0614C31.8807 56.7771 31.8476 56.4662 31.9 56.164L33.035 49.543C33.0803 49.2804 33.061 49.0107 32.9788 48.7572C32.8966 48.5037 32.7539 48.274 32.563 48.088L27.75 43.4C27.5312 43.1859 27.3766 42.9149 27.3035 42.6176C27.2305 42.3203 27.242 42.0085 27.3367 41.7173C27.4314 41.4262 27.6056 41.1673 27.8396 40.9699C28.0736 40.7725 28.3581 40.6444 28.661 40.6L35.309 39.634C35.5729 39.596 35.8235 39.4941 36.039 39.3373C36.2546 39.1805 36.4286 38.9734 36.546 38.734L39.519 32.711C39.6545 32.4359 39.8642 32.2042 40.1245 32.0421C40.3848 31.88 40.6853 31.794 40.9919 31.7938C41.2985 31.7936 41.5991 31.8792 41.8596 32.041C42.1201 32.2027 42.3302 32.4341 42.466 32.709Z" stroke="#45413C" stroke-linecap="round" stroke-linejoin="round"/>
<path d="M69.763 21.154C69.8949 20.5853 70.1839 20.065 70.5971 19.6525C71.0102 19.24 71.531 18.9519 72.1 18.821L76.783 17.741C76.8687 17.7212 76.9451 17.673 76.9998 17.6041C77.0546 17.5353 77.0844 17.45 77.0844 17.362C77.0844 17.2741 77.0546 17.1888 76.9998 17.1199C76.9451 17.0511 76.8687 17.0028 76.783 16.983L72.1 15.9C71.5317 15.7689 71.0117 15.4808 70.5992 15.0684C70.1868 14.6561 69.8984 14.1363 69.767 13.568L68.687 8.88803C68.6672 8.80236 68.6189 8.72592 68.5501 8.67119C68.4813 8.61646 68.3959 8.58667 68.308 8.58667C68.2201 8.58667 68.1347 8.61646 68.0659 8.67119C67.9971 8.72592 67.9488 8.80236 67.929 8.88803L66.849 13.568C66.7172 14.1367 66.4282 14.6569 66.015 15.0692C65.6018 15.4816 65.081 15.7695 64.512 15.9L59.832 16.98C59.7463 16.9998 59.6699 17.0481 59.6152 17.1169C59.5604 17.1858 59.5306 17.2711 59.5306 17.359C59.5306 17.447 59.5604 17.5323 59.6152 17.6011C59.6699 17.67 59.7463 17.7182 59.832 17.738L64.511 18.818C65.0794 18.9493 65.5995 19.2375 66.012 19.65C66.4245 20.0625 66.7128 20.5826 66.844 21.151L67.925 25.834C67.9448 25.9197 67.9931 25.9961 68.0619 26.0509C68.1307 26.1056 68.2161 26.1354 68.304 26.1354C68.3919 26.1354 68.4773 26.1056 68.5461 26.0509C68.6149 25.9961 68.6632 25.9197 68.683 25.834L69.763 21.154Z" fill="#FFFACF" stroke="#B58B00" stroke-linecap="round" stroke-linejoin="round"/>
<path d="M13.338 22.648C13.4414 22.1991 13.669 21.7882 13.9947 21.4624C14.3204 21.1365 14.7311 20.9087 15.18 20.805L18.88 19.952C18.9485 19.9371 19.0098 19.8993 19.0538 19.8447C19.0978 19.7901 19.1218 19.7221 19.1218 19.652C19.1218 19.5819 19.0978 19.5139 19.0538 19.4594C19.0098 19.4048 18.9485 19.3669 18.88 19.352L15.18 18.499C14.731 18.3956 14.3202 18.168 13.9943 17.8423C13.6685 17.5166 13.4407 17.1059 13.337 16.657L12.484 12.962C12.4691 12.8935 12.4312 12.8322 12.3766 12.7882C12.3221 12.7442 12.2541 12.7202 12.184 12.7202C12.1139 12.7202 12.0459 12.7442 11.9913 12.7882C11.9367 12.8322 11.8989 12.8935 11.884 12.962L11.032 16.662C10.9274 17.1099 10.6994 17.5195 10.3738 17.8444C10.0482 18.1693 9.6381 18.3964 9.18999 18.5L5.48998 19.352C5.42148 19.3669 5.36014 19.4048 5.31615 19.4594C5.27216 19.5139 5.24817 19.5819 5.24817 19.652C5.24817 19.7221 5.27216 19.7901 5.31615 19.8447C5.36014 19.8993 5.42148 19.9371 5.48998 19.952L9.18999 20.805C9.63888 20.9087 10.0496 21.1365 10.3753 21.4624C10.701 21.7882 10.9285 22.1991 11.032 22.648L11.885 26.348C11.8999 26.4165 11.9377 26.4779 11.9923 26.5219C12.0469 26.5659 12.1149 26.5898 12.185 26.5898C12.2551 26.5898 12.3231 26.5659 12.3776 26.5219C12.4322 26.4779 12.4701 26.4165 12.485 26.348L13.338 22.648Z" fill="#FFFACF" stroke="#B58B00" stroke-linecap="round" stroke-linejoin="round"/>
<path d="M35.8239 9.00898C35.9072 8.65001 36.0898 8.3217 36.3508 8.06158C36.6118 7.80146 36.9407 7.62001 37.2999 7.53798L40.2509 6.85698C40.3052 6.84475 40.3537 6.81442 40.3884 6.77098C40.4231 6.72755 40.4421 6.67359 40.4421 6.61798C40.4421 6.56236 40.4231 6.50841 40.3884 6.46497C40.3537 6.42154 40.3052 6.39121 40.2509 6.37898L37.2999 5.69998C36.9416 5.61752 36.6136 5.43596 36.3535 5.17603C36.0934 4.9161 35.9116 4.58828 35.8289 4.22998L35.1479 1.27998C35.1357 1.22573 35.1054 1.17725 35.062 1.14252C35.0185 1.10779 34.9646 1.08887 34.9089 1.08887C34.8533 1.08887 34.7994 1.10779 34.7559 1.14252C34.7125 1.17725 34.6822 1.22573 34.6699 1.27998L33.9889 4.22998C33.9065 4.58833 33.7249 4.91628 33.465 5.17639C33.2051 5.43649 32.8772 5.61827 32.5189 5.70098L29.5679 6.38098C29.5137 6.39321 29.4652 6.42354 29.4305 6.46697C29.3958 6.51041 29.3768 6.56436 29.3768 6.61998C29.3768 6.67559 29.3958 6.72955 29.4305 6.77299C29.4652 6.81642 29.5137 6.84675 29.5679 6.85898L32.5179 7.53998C32.8763 7.62274 33.2042 7.80451 33.4643 8.0646C33.7244 8.32468 33.9062 8.6526 33.9889 9.01098L34.6699 11.963C34.6822 12.0172 34.7125 12.0657 34.7559 12.1004C34.7994 12.1352 34.8533 12.1541 34.9089 12.1541C34.9646 12.1541 35.0185 12.1352 35.062 12.1004C35.1054 12.0657 35.1357 12.0172 35.1479 11.963L35.8239 9.00898Z" fill="#FFFACF" stroke="#B58B00" stroke-linecap="round" stroke-linejoin="round"/>
</svg>
