<svg width="80" height="80" viewBox="0 0 80 80" fill="none" xmlns="http://www.w3.org/2000/svg">
<path d="M0 40C0 50.6087 4.21427 60.7828 11.7157 68.2843C19.2172 75.7857 29.3913 80 40 80C50.6087 80 60.7828 75.7857 68.2843 68.2843C75.7857 60.7828 80 50.6087 80 40C80 29.3913 75.7857 19.2172 68.2843 11.7157C60.7828 4.21427 50.6087 0 40 0C29.3913 0 19.2172 4.21427 11.7157 11.7157C4.21427 19.2172 0 29.3913 0 40Z" fill="#009FD9"/>
<path d="M40.065 45.017C30.277 45.017 22.342 42.947 22.342 40.394V58.887C22.342 61.44 30.277 63.511 40.065 63.511C49.853 63.511 57.788 61.44 57.788 58.887V40.394C57.788 42.947 49.853 45.017 40.065 45.017Z" fill="#08EB66"/>
<path d="M32.359 53.493V63.048C33.104 63.142 33.873 63.224 34.671 63.291V51.182C34.058 51.182 33.4701 51.4255 33.0365 51.8588C32.603 52.2922 32.3593 52.88 32.359 53.493Z" fill="#00C551"/>
<path d="M47.77 53.493V63.048C47.026 63.142 46.2557 63.223 45.459 63.291V51.182C46.0719 51.182 46.6597 51.4255 47.0931 51.8589C47.5265 52.2923 47.77 52.8801 47.77 53.493Z" fill="#00C551"/>
<path d="M40.065 45.017C30.277 45.017 22.342 42.947 22.342 40.394V42.706C22.342 45.259 30.277 47.329 40.065 47.329C40.588 47.329 41.102 47.32 41.614 47.309C41.6317 47.9337 41.8924 48.5268 42.3406 48.9623C42.7888 49.3978 43.3891 49.6413 44.014 49.641H46.908C47.5461 49.6407 48.1579 49.3872 48.609 48.936C49.0602 48.4849 49.3138 47.873 49.314 47.235V46.644C54.391 45.831 57.79 44.374 57.79 42.706V40.394C57.788 42.947 49.853 45.017 40.065 45.017Z" fill="#00C551"/>
<path d="M16.178 52.723C16.1778 51.2337 16.7244 49.796 17.714 48.683L22.342 43.476V58.887H18.487C17.8746 58.887 17.2873 58.6437 16.8543 58.2107C16.4212 57.7777 16.178 57.1904 16.178 56.578V52.723Z" fill="#00B149" stroke="#45413C" stroke-linecap="round" stroke-linejoin="round"/>
<path d="M63.9479 52.723C63.9481 51.2337 63.4016 49.796 62.4119 48.683L57.7839 43.476V58.887H61.6389C62.2513 58.887 62.8386 58.6437 63.2717 58.2107C63.7047 57.7777 63.9479 57.1904 63.9479 56.578V52.723Z" fill="#00B149" stroke="#45413C" stroke-linecap="round" stroke-linejoin="round"/>
<path d="M40.065 45.017C30.277 45.017 22.342 42.947 22.342 40.394V58.887C22.342 61.44 30.277 63.511 40.065 63.511C49.853 63.511 57.788 61.44 57.788 58.887V40.394C57.788 42.947 49.853 45.017 40.065 45.017Z" stroke="#45413C"/>
<path d="M40.065 10.342C29.277 10.342 22.342 25.753 22.342 30.377V35.771C22.342 38.324 30.277 40.394 40.065 40.394C49.853 40.394 57.788 38.324 57.788 35.771V30.377C57.788 25.753 50.853 10.342 40.065 10.342Z" fill="#08EB66"/>
<path d="M40.065 10.342C29.277 10.342 22.342 25.753 22.342 30.377V33.459C22.342 28.836 29.277 13.425 40.065 13.425C50.853 13.425 57.788 28.836 57.788 33.459V30.377C57.788 25.753 50.853 10.342 40.065 10.342Z" fill="#00C551"/>
<path d="M40.065 10.342C29.277 10.342 22.342 25.753 22.342 30.377V35.771C22.342 38.324 30.277 40.394 40.065 40.394C49.853 40.394 57.788 38.324 57.788 35.771V30.377C57.788 25.753 50.853 10.342 40.065 10.342Z" stroke="#45413C" stroke-linecap="round" stroke-linejoin="round"/>
<path d="M70.14 34.414C70.14 35.485 70.5654 36.512 71.3227 37.2693C72.08 38.0266 73.1071 38.452 74.178 38.452C75.249 38.452 76.276 38.0266 77.0333 37.2693C77.7906 36.512 78.216 35.485 78.216 34.414C78.216 33.3431 77.7906 32.316 77.0333 31.5587C76.276 30.8014 75.249 30.376 74.178 30.376C73.1071 30.376 72.08 30.8014 71.3227 31.5587C70.5654 32.316 70.14 33.3431 70.14 34.414Z" fill="#FFF48C" stroke="#B58B00" stroke-linecap="round" stroke-linejoin="round"/>
<path d="M11.373 21.322C11.373 22.3929 11.7985 23.42 12.5557 24.1773C13.313 24.9346 14.3401 25.36 15.411 25.36C16.482 25.36 17.5091 24.9346 18.2663 24.1773C19.0236 23.42 19.449 22.3929 19.449 21.322C19.449 20.2511 19.0236 19.224 18.2663 18.4667C17.5091 17.7094 16.482 17.284 15.411 17.284C14.3401 17.284 13.313 17.7094 12.5557 18.4667C11.7985 19.224 11.373 20.2511 11.373 21.322Z" fill="#FFF48C" stroke="#B58B00" stroke-linecap="round" stroke-linejoin="round"/>
<path d="M53.746 6.09198C53.746 7.16293 54.1714 8.19001 54.9287 8.94728C55.6859 9.70456 56.713 10.13 57.784 10.13C58.8549 10.13 59.882 9.70456 60.6393 8.94728C61.3965 8.19001 61.822 7.16293 61.822 6.09198C61.822 5.02104 61.3965 3.99396 60.6393 3.23669C59.882 2.47942 58.8549 2.05399 57.784 2.05399C56.713 2.05399 55.6859 2.47942 54.9287 3.23669C54.1714 3.99396 53.746 5.02104 53.746 6.09198Z" fill="#FFF48C" stroke="#B58B00" stroke-linecap="round" stroke-linejoin="round"/>
<path d="M1.54395 42.12C1.54395 42.6503 1.64839 43.1754 1.85132 43.6653C2.05425 44.1552 2.35169 44.6003 2.72665 44.9753C3.10161 45.3503 3.54676 45.6477 4.03667 45.8506C4.52658 46.0536 5.05167 46.158 5.58195 46.158C6.11222 46.158 6.63731 46.0536 7.12722 45.8506C7.61713 45.6477 8.06228 45.3503 8.43724 44.9753C8.81221 44.6003 9.10964 44.1552 9.31257 43.6653C9.5155 43.1754 9.61995 42.6503 9.61995 42.12C9.61995 41.5897 9.5155 41.0646 9.31257 40.5747C9.10964 40.0848 8.81221 39.6397 8.43724 39.2647C8.06228 38.8897 7.61713 38.5923 7.12722 38.3894C6.63731 38.1864 6.11222 38.082 5.58195 38.082C5.05167 38.082 4.52658 38.1864 4.03667 38.3894C3.54676 38.5923 3.10161 38.8897 2.72665 39.2647C2.35169 39.6397 2.05425 40.0848 1.85132 40.5747C1.64839 41.0646 1.54395 41.5897 1.54395 42.12Z" fill="#FFF48C" stroke="#B58B00" stroke-linecap="round" stroke-linejoin="round"/>
<path d="M38.524 23.827C38.524 24.5423 38.6864 25.2283 38.9754 25.7341C39.2644 26.2399 39.6563 26.524 40.065 26.524C40.4737 26.524 40.8657 26.2399 41.1547 25.7341C41.4437 25.2283 41.606 24.5423 41.606 23.827C41.606 23.1117 41.4437 22.4257 41.1547 21.9199C40.8657 21.4142 40.4737 21.13 40.065 21.13C39.6563 21.13 39.2644 21.4142 38.9754 21.9199C38.6864 22.4257 38.524 23.1117 38.524 23.827Z" fill="#87898C"/>
<path d="M38.524 23.827C38.524 24.5423 38.6864 25.2283 38.9754 25.7341C39.2644 26.2399 39.6563 26.524 40.065 26.524C40.4737 26.524 40.8657 26.2399 41.1547 25.7341C41.4437 25.2283 41.606 24.5423 41.606 23.827C41.606 23.1117 41.4437 22.4257 41.1547 21.9199C40.8657 21.4142 40.4737 21.13 40.065 21.13C39.6563 21.13 39.2644 21.4142 38.9754 21.9199C38.6864 22.4257 38.524 23.1117 38.524 23.827Z" stroke="#45413C" stroke-linecap="round" stroke-linejoin="round"/>
<path d="M33.163 24.2C32.863 25.658 31.938 26.7 31.104 26.526C30.27 26.352 29.842 25.026 30.145 23.572C30.448 22.118 31.37 21.072 32.203 21.245C33.036 21.418 33.466 22.739 33.163 24.2Z" fill="#87898C"/>
<path d="M33.163 24.2C32.863 25.658 31.938 26.7 31.104 26.526C30.27 26.352 29.842 25.026 30.145 23.572C30.448 22.118 31.37 21.072 32.203 21.245C33.036 21.418 33.466 22.739 33.163 24.2Z" stroke="#45413C" stroke-linecap="round" stroke-linejoin="round"/>
<path d="M46.9669 24.2C47.2669 25.658 48.1919 26.7 49.0259 26.526C49.8599 26.352 50.2879 25.026 49.9849 23.572C49.6819 22.118 48.7599 21.072 47.9259 21.245C47.0919 21.418 46.6639 22.739 46.9669 24.2Z" fill="#87898C" stroke="#45413C" stroke-linecap="round" stroke-linejoin="round"/>
<path d="M22.342 35.771C22.342 38.324 30.277 40.394 40.065 40.394C49.853 40.394 57.788 38.324 57.788 35.771V40.394C57.788 42.947 49.853 45.017 40.065 45.017C30.277 45.017 22.342 42.947 22.342 40.394V35.771Z" fill="#87898C"/>
<path d="M40.065 40.394C30.277 40.394 22.342 38.324 22.342 35.771V37.312C22.342 39.865 30.277 41.935 40.065 41.935C49.853 41.935 57.788 39.865 57.788 37.312V35.771C57.788 38.324 49.853 40.394 40.065 40.394Z" fill="#87898C"/>
<path d="M22.342 35.771C22.342 38.324 30.277 40.394 40.065 40.394C49.853 40.394 57.788 38.324 57.788 35.771V40.394C57.788 42.947 49.853 45.017 40.065 45.017C30.277 45.017 22.342 42.947 22.342 40.394V35.771Z" stroke="#45413C" stroke-linecap="round" stroke-linejoin="round"/>
<path d="M47.77 45.786C47.7764 46.0936 47.7213 46.3994 47.608 46.6854C47.4947 46.9715 47.3255 47.232 47.1102 47.4518C46.8949 47.6716 46.638 47.8462 46.3543 47.9654C46.0707 48.0847 45.7661 48.1461 45.4585 48.1461C45.1508 48.1461 44.8463 48.0847 44.5626 47.9654C44.279 47.8462 44.022 47.6716 43.8067 47.4518C43.5915 47.232 43.4222 46.9715 43.3089 46.6854C43.1956 46.3994 43.1406 46.0936 43.147 45.786V38.851C43.1406 38.5434 43.1956 38.2376 43.3089 37.9516C43.4222 37.6655 43.5915 37.405 43.8067 37.1852C44.022 36.9654 44.279 36.7907 44.5626 36.6715C44.8463 36.5523 45.1508 36.4909 45.4585 36.4909C45.7661 36.4909 46.0707 36.5523 46.3543 36.6715C46.638 36.7907 46.8949 36.9654 47.1102 37.1852C47.3255 37.405 47.4947 37.6655 47.608 37.9516C47.7213 38.2376 47.7764 38.5434 47.77 38.851V45.786Z" fill="#C9FFDE" stroke="#45413C"/>
<path d="M45.459 51.952V61.2C45.459 62.6306 44.8907 64.0026 43.8792 65.0141C42.8676 66.0257 41.4956 66.594 40.065 66.594C38.6344 66.594 37.2625 66.0257 36.2509 65.0141C35.2393 64.0026 34.671 62.6306 34.671 61.2V51.952" fill="#C9FFDE"/>
<path d="M45.459 51.952V61.2C45.459 62.6306 44.8907 64.0026 43.8792 65.0141C42.8676 66.0257 41.4956 66.594 40.065 66.594C38.6344 66.594 37.2625 66.0257 36.2509 65.0141C35.2393 64.0026 34.671 62.6306 34.671 61.2V51.952" stroke="#45413C" stroke-linecap="round" stroke-linejoin="round"/>
<path d="M26.963 38.876C25.278 29.584 25.563 28.854 23.883 28.854C23.679 28.8497 23.4763 28.8869 23.2871 28.9631C23.0979 29.0394 22.9261 29.1532 22.7821 29.2977C22.6381 29.4422 22.5248 29.6143 22.4492 29.8038C22.3735 29.9932 22.3371 30.1961 22.342 30.4V35.775C22.342 36.968 24.1 38.055 26.963 38.876Z" fill="#87898C"/>
<path d="M23.883 31.147C24.5425 31.1211 25.1899 31.329 25.711 31.734C25.223 29.155 24.947 28.854 23.883 28.854C23.679 28.8497 23.4763 28.8869 23.2871 28.9631C23.0979 29.0394 22.9261 29.1532 22.7821 29.2977C22.6381 29.4422 22.5248 29.6143 22.4492 29.8038C22.3736 29.9932 22.3371 30.1961 22.342 30.4V32.692C22.3371 32.4881 22.3736 32.2853 22.4492 32.0959C22.5249 31.9065 22.6381 31.7344 22.7821 31.59C22.9262 31.4456 23.098 31.3319 23.2872 31.2558C23.4764 31.1796 23.6791 31.1426 23.883 31.147Z" fill="#87898C"/>
<path d="M26.963 38.876C25.278 29.584 25.563 28.854 23.883 28.854C23.679 28.8497 23.4763 28.8869 23.2871 28.9631C23.0979 29.0394 22.9261 29.1532 22.7821 29.2977C22.6381 29.4422 22.5248 29.6143 22.4492 29.8038C22.3735 29.9932 22.3371 30.1961 22.342 30.4V35.775C22.342 36.968 24.1 38.055 26.963 38.876Z" stroke="#45413C" stroke-linecap="round" stroke-linejoin="round"/>
<path d="M53.167 38.876C54.852 29.584 54.567 28.854 56.247 28.854C56.4509 28.8497 56.6537 28.8869 56.8429 28.9631C57.0321 29.0394 57.2039 29.1532 57.3479 29.2977C57.4919 29.4422 57.6052 29.6143 57.6808 29.8038C57.7564 29.9932 57.7929 30.1961 57.788 30.4V35.775C57.788 36.968 56.029 38.055 53.167 38.876Z" fill="#87898C"/>
<path d="M56.2469 31.147C55.5875 31.1211 54.9401 31.329 54.4189 31.734C54.9069 29.155 55.1829 28.854 56.2469 28.854C56.4509 28.8497 56.6536 28.8869 56.8428 28.9631C57.032 29.0394 57.2038 29.1532 57.3478 29.2977C57.4919 29.4422 57.6051 29.6143 57.6807 29.8038C57.7564 29.9932 57.7929 30.1961 57.7879 30.4V32.692C57.7929 32.4881 57.7564 32.2853 57.6807 32.0959C57.6051 31.9065 57.4918 31.7344 57.3478 31.59C57.2038 31.4456 57.032 31.3319 56.8427 31.2558C56.6535 31.1796 56.4509 31.1426 56.2469 31.147Z" fill="#87898C"/>
<path d="M53.167 38.876C54.852 29.584 54.567 28.854 56.247 28.854C56.4509 28.8497 56.6537 28.8869 56.8429 28.9631C57.0321 29.0394 57.2039 29.1532 57.3479 29.2977C57.4919 29.4422 57.6052 29.6143 57.6808 29.8038C57.7564 29.9932 57.7929 30.1961 57.788 30.4V35.775C57.788 36.968 56.029 38.055 53.167 38.876Z" stroke="#45413C" stroke-linecap="round" stroke-linejoin="round"/>
</svg>
