<svg xmlns="http://www.w3.org/2000/svg" fill="none" viewBox="0 0 100 100" id="Chatbot-1--Streamline-Ux" height="100" width="100"><desc>Chatbot 1 Streamline Illustration: https://streamlinehq.com</desc><path fill="#daedf7" stroke="#daedf7" stroke-miterlimit="10" d="M51.086 92.87c22.0914 0 40 -17.9086 40 -40s-17.9086 -40 -40 -40 -40 17.9086 -40 40 17.9086 40 40 40Z" stroke-width="1"></path><path fill="#87898c" d="M76.742 61.385c0.0712 -0.0076 0.1432 -0.0001 0.2113 0.022 0.0681 0.0221 0.1308 0.0583 0.184 0.1062 0.0532 0.0479 0.0957 0.1065 0.1248 0.1719 0.0291 0.0655 0.044 0.1363 0.0439 0.2079 -0.0005 1.0114 -0.2873 2.0019 -0.8271 2.8571 -0.5399 0.8552 -1.3109 1.5401 -2.2237 1.9755 -0.9129 0.4354 -1.9303 0.6034 -2.9347 0.4848 -1.0044 -0.1187 -1.9546 -0.5192 -2.7409 -1.1553 -0.7863 -0.6362 -1.3764 -1.4819 -1.7021 -2.4393 -0.3258 -0.9575 -0.3738 -1.9876 -0.1386 -2.9712 0.2352 -0.9837 0.744 -1.8806 1.4677 -2.5872 0.7236 -0.7065 1.6324 -1.1938 2.6214 -1.4054 0.07 -0.0147 0.1422 -0.0145 0.2121 0.0005 0.07 0.0149 0.136 0.0444 0.1938 0.0864 0.0578 0.042 0.1062 0.0956 0.1421 0.1575 0.0358 0.0618 0.0583 0.1305 0.066 0.2016l0.162 1.534c0.0131 0.1211 -0.0176 0.2428 -0.0866 0.3432 -0.069 0.1004 -0.1716 0.1727 -0.2894 0.2038 -0.5006 0.1332 -0.9546 0.4024 -1.3117 0.7777 -0.3571 0.3754 -0.6032 0.8423 -0.7112 1.349 -0.108 0.5067 -0.0737 1.0334 0.0993 1.5217 0.1729 0.4883 0.4777 0.9193 0.8805 1.2451 0.4028 0.3257 0.888 0.5336 1.4017 0.6006 0.5137 0.067 1.0359 -0.0095 1.5088 -0.2211 0.4729 -0.2116 0.878 -0.55 1.1704 -0.9776 0.2924 -0.4277 0.4607 -0.928 0.4862 -1.4454 0.0056 -0.1217 0.0547 -0.2373 0.1384 -0.3257 0.0837 -0.0885 0.1964 -0.144 0.3176 -0.1563l1.534 -0.162Z" stroke-width="1"></path><path stroke="#45413c" stroke-linecap="round" stroke-linejoin="round" d="M76.742 61.385c0.0712 -0.0076 0.1432 -0.0001 0.2113 0.022 0.0681 0.0221 0.1308 0.0583 0.184 0.1062 0.0532 0.0479 0.0957 0.1065 0.1248 0.1719 0.0291 0.0655 0.044 0.1363 0.0439 0.2079 -0.0005 1.0114 -0.2873 2.0019 -0.8271 2.8571 -0.5399 0.8552 -1.3109 1.5401 -2.2237 1.9755 -0.9129 0.4354 -1.9303 0.6034 -2.9347 0.4848 -1.0044 -0.1187 -1.9546 -0.5192 -2.7409 -1.1553 -0.7863 -0.6362 -1.3764 -1.4819 -1.7021 -2.4393 -0.3258 -0.9575 -0.3738 -1.9876 -0.1386 -2.9712 0.2352 -0.9837 0.744 -1.8806 1.4677 -2.5872 0.7236 -0.7065 1.6324 -1.1938 2.6214 -1.4054 0.07 -0.0147 0.1422 -0.0145 0.2121 0.0005 0.07 0.0149 0.136 0.0444 0.1938 0.0864 0.0578 0.042 0.1062 0.0956 0.1421 0.1575 0.0358 0.0618 0.0583 0.1305 0.066 0.2016l0.162 1.534c0.0131 0.1211 -0.0176 0.2428 -0.0866 0.3432 -0.069 0.1004 -0.1716 0.1727 -0.2894 0.2038 -0.5006 0.1332 -0.9546 0.4024 -1.3117 0.7777 -0.3571 0.3754 -0.6032 0.8423 -0.7112 1.349 -0.108 0.5067 -0.0737 1.0334 0.0993 1.5217 0.1729 0.4883 0.4777 0.9193 0.8805 1.2451 0.4028 0.3257 0.888 0.5336 1.4017 0.6006 0.5137 0.067 1.0359 -0.0095 1.5088 -0.2211 0.4729 -0.2116 0.878 -0.55 1.1704 -0.9776 0.2924 -0.4277 0.4607 -0.928 0.4862 -1.4454 0.0056 -0.1217 0.0547 -0.2373 0.1384 -0.3257 0.0837 -0.0885 0.1964 -0.144 0.3176 -0.1563l1.534 -0.162Z" stroke-width="1"></path><path fill="#ffffff" d="m48.9523 62.0775 -2.8466 2.9243 10.9669 10.6756 2.8466 -2.9242 -10.9669 -10.6757Z" stroke-width="1"></path><path fill="#e0e0e0" d="m47.784 63.278 1.168 -1.2L54 66.994l-0.161 0.395c-0.2631 0.6494 -0.7411 1.1888 -1.3541 1.5283 -0.6129 0.3394 -1.3238 0.4583 -2.0139 0.3367l-3.665 -3.568 0.978 -2.408Z" stroke-width="1"></path><path stroke="#45413c" stroke-linecap="round" stroke-linejoin="round" d="m48.9523 62.0775 -2.8466 2.9243 10.9669 10.6756 2.8466 -2.9242 -10.9669 -10.6757Z" stroke-width="1"></path><path fill="#ffffff" d="m66.779 65.4619 -8.4627 7.4277 2.6921 3.0672 8.4626 -7.4278 -2.692 -3.0671Z" stroke-width="1"></path><path fill="#e0e0e0" d="m64.191 67.734 2.589 -2.272 2.692 3.067 -2.535 2.225c-0.7492 -0.077 -1.4437 -0.4277 -1.9504 -0.985 -0.5066 -0.5572 -0.7899 -1.2818 -0.7956 -2.035Z" stroke-width="1"></path><path stroke="#45413c" stroke-linecap="round" stroke-linejoin="round" d="m66.779 65.4619 -8.4627 7.4277 2.6921 3.0672 8.4626 -7.4278 -2.692 -3.0671Z" stroke-width="1"></path><path fill="#ffffff" stroke="#45413c" stroke-linecap="round" stroke-linejoin="round" d="M69.217 69.102c1.6906 0 3.061 -1.3704 3.061 -3.061 0 -1.6905 -1.3704 -3.061 -3.061 -3.061 -1.6905 0 -3.061 1.3705 -3.061 3.061 0 1.6906 1.3705 3.061 3.061 3.061Z" stroke-width="1"></path><path fill="#ffffff" stroke="#45413c" stroke-linecap="round" stroke-linejoin="round" d="M59.205 77.89c1.6906 0 3.061 -1.3704 3.061 -3.061 0 -1.6905 -1.3704 -3.061 -3.061 -3.061 -1.6905 0 -3.061 1.3705 -3.061 3.061 0 1.6906 1.3705 3.061 3.061 3.061Z" stroke-width="1"></path><path fill="#daedf7" d="M39.277 86.718h-6.122v5.84h6.122v-5.84Z" stroke-width="1"></path><path fill="#adc4d9" d="M39.282 86.718H33.16v3.061h6.122v-3.061Z" stroke-width="1"></path><path stroke="#45413c" stroke-linecap="round" stroke-linejoin="round" d="M33.155 92.558v-5.84h6.122v5.84" stroke-width="1"></path><path fill="#daedf7" d="M38.256 54.776h-4.081v4.081h4.081v-4.081Z" stroke-width="1"></path><path fill="#adc4d9" d="M38.256 54.776h-4.081v2.041h4.081v-2.041Z" stroke-width="1"></path><path stroke="#45413c" stroke-linecap="round" stroke-linejoin="round" d="M38.256 54.776h-4.081v4.081h4.081v-4.081Z" stroke-width="1"></path><path fill="#ffffff" stroke="#45413c" stroke-linecap="round" stroke-linejoin="round" d="M41.318 58.858H31.114c-1.6905 0 -3.061 1.3705 -3.061 3.061v9.183c0 1.6906 1.3705 3.061 3.061 3.061h10.204c1.6906 0 3.061 -1.3704 3.061 -3.061v-9.183c0 -1.6905 -1.3704 -3.061 -3.061 -3.061Z" stroke-width="1"></path><path fill="#daedf7" d="M39.277 74.163h-6.122v5.197h6.122v-5.197Z" stroke-width="1"></path><path fill="#adc4d9" d="M39.282 74.163H33.16v2.136h6.122v-2.136Z" stroke-width="1"></path><path stroke="#45413c" stroke-linecap="round" stroke-linejoin="round" d="M39.277 74.163h-6.122v5.197h6.122v-5.197Z" stroke-width="1"></path><path fill="#00b8f0" d="M40.3 66c0 0.5413 -0.215 1.0605 -0.5978 1.4432 -0.3827 0.3828 -0.9019 0.5978 -1.4432 0.5978h-4.084c-0.268 0 -0.5333 -0.0528 -0.7809 -0.1553 -0.2476 -0.1026 -0.4725 -0.253 -0.6619 -0.4425 -0.1895 -0.1896 -0.3397 -0.4146 -0.4422 -0.6622 -0.1025 -0.2476 -0.1551 -0.513 -0.155 -0.781v-7.142H40.3V66Z" stroke-width="1"></path><path fill="#4acfff" d="m38.936 58.858 -6.801 6.795v-6.795h6.801Z" stroke-width="1"></path><path stroke="#45413c" stroke-linecap="round" stroke-linejoin="round" d="M40.3 66c0 0.5413 -0.215 1.0605 -0.5978 1.4432 -0.3827 0.3828 -0.9019 0.5978 -1.4432 0.5978h-4.084c-0.268 0 -0.5333 -0.0528 -0.7809 -0.1553 -0.2476 -0.1026 -0.4725 -0.253 -0.6619 -0.4425 -0.1895 -0.1896 -0.3397 -0.4146 -0.4422 -0.6622 -0.1025 -0.2476 -0.1551 -0.513 -0.155 -0.781v-7.142H40.3V66Z" stroke-width="1"></path><path fill="#ffffff" stroke="#45413c" stroke-linecap="round" stroke-linejoin="round" d="M42.058 79.36c0.3265 0.0003 0.6482 0.0788 0.9381 0.229 0.2899 0.1502 0.5395 0.3678 0.728 0.6344 0.1884 0.2666 0.3102 0.5745 0.3551 0.8979 0.0449 0.3234 0.0115 0.6529 -0.0972 0.9607 -0.5629 1.5924 -1.6057 2.971 -2.9847 3.9462 -1.379 0.9751 -3.0263 1.4987 -4.7153 1.4987 -1.6889 0 -3.3363 -0.5236 -4.7153 -1.4987 -1.379 -0.9752 -2.4217 -2.3538 -2.9847 -3.9462 -0.1091 -0.3082 -0.1425 -0.638 -0.0975 -0.9618 0.045 -0.3238 0.1671 -0.6321 0.356 -0.8989 0.189 -0.2668 0.4393 -0.4842 0.7298 -0.6341 0.2905 -0.1499 0.6128 -0.2278 0.9397 -0.2272h11.548Z" stroke-width="1"></path><path fill="#f8f8f8" d="M24.2938 60.9446 10.808 68.1817l1.9297 3.5959 13.4858 -7.2371 -1.9297 -3.5959Z" stroke-width="1"></path><path fill="#e0e0e0" d="m25.433 63.064 0.792 1.476 -6.21 3.333 -0.328 -0.273c-0.5398 -0.4468 -0.9101 -1.0652 -1.0489 -1.752 -0.1389 -0.6869 -0.0379 -1.4006 0.2859 -2.022l4.507 -2.419 2.002 1.657Z" stroke-width="1"></path><path fill="#ffffff" stroke="#45413c" stroke-linecap="round" stroke-linejoin="round" d="M24.2938 60.9446 10.808 68.1817l1.9297 3.5959 13.4858 -7.2371 -1.9297 -3.5959Z" stroke-width="1"></path><path fill="#ffffff" stroke="#45413c" stroke-linecap="round" stroke-linejoin="round" d="M28.053 66h-4.1c-0.8105 -0.0018 -1.5872 -0.3252 -2.1596 -0.899 -0.5724 -0.5739 -0.8937 -1.3514 -0.8934 -2.162v-1.02c-0.0001 -0.402 0.0789 -0.8001 0.2327 -1.1715 0.1538 -0.3715 0.3793 -0.7089 0.6635 -0.9932 0.2843 -0.2843 0.6218 -0.5097 0.9932 -0.6635 0.3715 -0.1538 0.7696 -0.2329 1.1716 -0.2328H26c0.5419 0.0021 1.0612 0.2172 1.4459 0.5989 0.3847 0.3816 0.6038 0.8993 0.6101 1.4411L28.053 66Z" stroke-width="1"></path><path fill="#f8f8f8" d="m13.0927 70.2086 -3.7361 1.6419 4.5302 10.3085 3.7362 -1.6419 -4.5303 -10.3085Z" stroke-width="1"></path><path fill="#e0e0e0" d="m16.237 77.364 1.386 3.154 -3.737 1.641 -1.357 -3.087c0.2997 -0.691 0.8436 -1.2473 1.5277 -1.5624 0.6841 -0.3151 1.4604 -0.367 2.1803 -0.1456Z" stroke-width="1"></path><path stroke="#45413c" stroke-linecap="round" stroke-linejoin="round" d="m13.0927 70.2086 -3.7361 1.6419 4.5302 10.3085 3.7362 -1.6419 -4.5303 -10.3085Z" stroke-width="1"></path><path fill="#87898c" d="M18.506 91.246c-0.0146 0.0701 -0.0436 0.1364 -0.0853 0.1946s-0.095 0.107 -0.1567 0.1434c-0.0616 0.0362 -0.1301 0.059 -0.2011 0.0669 -0.071 0.008 -0.1429 0.0008 -0.2109 -0.0209 -0.9642 -0.3051 -1.8223 -0.8769 -2.4751 -1.6492 -0.6529 -0.7723 -1.0738 -1.7137 -1.214 -2.7152 -0.1403 -1.0015 0.0058 -2.0223 0.4213 -2.9443 0.4156 -0.9219 1.0836 -1.7075 1.9269 -2.2657 0.8433 -0.5582 1.8273 -0.8663 2.8384 -0.8887 1.011 -0.0224 2.0078 0.2419 2.8749 0.7622 0.8672 0.5203 1.5693 1.2755 2.0253 2.1782 0.456 0.9027 0.6471 1.916 0.5513 2.9227 -0.0068 0.0712 -0.0286 0.1402 -0.0638 0.2025 -0.0352 0.0623 -0.0831 0.1164 -0.1407 0.159 -0.0575 0.0425 -0.1233 0.0725 -0.1932 0.0879 -0.0699 0.0154 -0.1422 0.016 -0.2123 0.0016l-1.512 -0.308c-0.1191 -0.0242 -0.2256 -0.0903 -0.3003 -0.1862 -0.0746 -0.0959 -0.1125 -0.2154 -0.1067 -0.3368 0.0241 -0.5175 -0.0956 -1.0316 -0.3458 -1.4853 -0.2501 -0.4537 -0.621 -0.8293 -1.0715 -1.0851 -0.4505 -0.2558 -0.9631 -0.382 -1.4808 -0.3644 -0.5178 0.0176 -1.0206 0.1782 -1.4528 0.464 -0.4321 0.2858 -0.7767 0.6856 -0.9955 1.1552 -0.2188 0.4696 -0.3034 0.9907 -0.2442 1.5054 0.0591 0.5147 0.2595 1.0029 0.5791 1.4107 0.3196 0.4078 0.7458 0.7191 1.2315 0.8995 0.1142 0.0422 0.2094 0.1239 0.2685 0.2303 0.059 0.1065 0.078 0.2305 0.0535 0.3497l-0.308 1.516Z" stroke-width="1"></path><path stroke="#45413c" stroke-linecap="round" stroke-linejoin="round" d="M18.506 91.246c-0.0146 0.0701 -0.0436 0.1364 -0.0853 0.1946s-0.095 0.107 -0.1567 0.1434c-0.0616 0.0362 -0.1301 0.059 -0.2011 0.0669 -0.071 0.008 -0.1429 0.0008 -0.2109 -0.0209 -0.9642 -0.3051 -1.8223 -0.8769 -2.4751 -1.6492 -0.6529 -0.7723 -1.0738 -1.7137 -1.214 -2.7152 -0.1403 -1.0015 0.0058 -2.0223 0.4213 -2.9443 0.4156 -0.9219 1.0836 -1.7075 1.9269 -2.2657 0.8433 -0.5582 1.8273 -0.8663 2.8384 -0.8887 1.011 -0.0224 2.0078 0.2419 2.8749 0.7622 0.8672 0.5203 1.5693 1.2755 2.0253 2.1782 0.456 0.9027 0.6471 1.916 0.5513 2.9227 -0.0068 0.0712 -0.0286 0.1402 -0.0638 0.2025 -0.0352 0.0623 -0.0831 0.1164 -0.1407 0.159 -0.0575 0.0425 -0.1233 0.0725 -0.1932 0.0879 -0.0699 0.0154 -0.1422 0.016 -0.2123 0.0016l-1.512 -0.308c-0.1191 -0.0242 -0.2256 -0.0903 -0.3003 -0.1862 -0.0746 -0.0959 -0.1125 -0.2154 -0.1067 -0.3368 0.0241 -0.5175 -0.0956 -1.0316 -0.3458 -1.4853 -0.2501 -0.4537 -0.621 -0.8293 -1.0715 -1.0851 -0.4505 -0.2558 -0.9631 -0.382 -1.4808 -0.3644 -0.5178 0.0176 -1.0206 0.1782 -1.4528 0.464 -0.4321 0.2858 -0.7767 0.6856 -0.9955 1.1552 -0.2188 0.4696 -0.3034 0.9907 -0.2442 1.5054 0.0591 0.5147 0.2595 1.0029 0.5791 1.4107 0.3196 0.4078 0.7458 0.7191 1.2315 0.8995 0.1142 0.0422 0.2094 0.1239 0.2685 0.2303 0.059 0.1065 0.078 0.2305 0.0535 0.3497l-0.308 1.516Z" stroke-width="1"></path><path fill="#f8f8f8" stroke="#45413c" stroke-linecap="round" stroke-linejoin="round" d="M16.336 85.728c1.6905 0 3.061 -1.3704 3.061 -3.061 0 -1.6905 -1.3705 -3.061 -3.061 -3.061s-3.061 1.3705 -3.061 3.061c0 1.6906 1.3705 3.061 3.061 3.061Z" stroke-width="1"></path><path fill="#f8f8f8" stroke="#45413c" stroke-linecap="round" stroke-linejoin="round" d="M10.976 73.532c1.6906 0 3.061 -1.3704 3.061 -3.061 0 -1.6905 -1.3704 -3.061 -3.061 -3.061 -1.69054 0 -3.06099 1.3705 -3.06099 3.061 0 1.6906 1.37045 3.061 3.06099 3.061Z" stroke-width="1"></path><path fill="#ffffff" stroke="#45413c" stroke-linecap="round" stroke-linejoin="round" d="M44.379 66h4.1c0.402 0.0002 0.8001 -0.0789 1.1715 -0.2327 0.3715 -0.1538 0.709 -0.3793 0.9932 -0.6635 0.2843 -0.2843 0.5098 -0.6218 0.6636 -0.9932 0.1537 -0.3715 0.2328 -0.7696 0.2327 -1.1716v-1.02c0.0001 -0.402 -0.079 -0.8001 -0.2327 -1.1715 -0.1538 -0.3715 -0.3793 -0.7089 -0.6636 -0.9932 -0.2842 -0.2843 -0.6217 -0.5097 -0.9932 -0.6635 -0.3714 -0.1538 -0.7695 -0.2329 -1.1715 -0.2328h-2.04c-0.542 0.0021 -1.0614 0.2171 -1.4463 0.5988 -0.3848 0.3816 -0.6041 0.8993 -0.6107 1.4412L44.379 66Z" stroke-width="1"></path><path fill="#00b8f0" d="M47.389 33.158H25.043c-1.6828 0 -3.047 1.3642 -3.047 3.047v16.251c0 1.6828 1.3642 3.047 3.047 3.047h22.346c1.6828 0 3.047 -1.3642 3.047 -3.047V36.205c0 -1.6828 -1.3642 -3.047 -3.047 -3.047Z" stroke-width="1"></path><path fill="#4acfff" d="M25.419 55.5h-0.376c-0.807 -0.0013 -1.5805 -0.3226 -2.151 -0.8934 -0.5704 -0.5708 -0.8912 -1.3446 -0.892 -2.1516V36.2c0 -0.8081 0.321 -1.5831 0.8924 -2.1545 0.5715 -0.5715 1.3465 -0.8925 2.1546 -0.8925h22.342L25.419 55.5Z" stroke-width="1"></path><path fill="#ffffff" stroke="#009fd9" stroke-linecap="round" stroke-linejoin="round" d="M27.869 47.365c0.3978 0 0.7794 -0.158 1.0607 -0.4393s0.4393 -0.6628 0.4393 -1.0607c-0.0342 -0.2845 -0.001 -0.573 0.097 -0.8423 0.098 -0.2692 0.258 -0.5117 0.467 -0.7077 0.3612 0.4324 0.5405 0.9881 0.5 1.55 0 0.3979 0.158 0.7794 0.4393 1.0607s0.6629 0.4393 1.0607 0.4393c0.3978 0 0.7793 -0.158 1.0607 -0.4393 0.2813 -0.2813 0.4393 -0.6628 0.4393 -1.0607 0 -2.549 -1.552 -4.546 -3.532 -4.546s-3.531 2 -3.531 4.546c0 0.3977 0.1579 0.7791 0.439 1.0603 0.2811 0.2813 0.6623 0.4395 1.06 0.4397Z" stroke-width="1"></path><path fill="#ffffff" stroke="#009fd9" stroke-linecap="round" stroke-linejoin="round" d="M44.564 47.365c-0.3978 0 -0.7794 -0.158 -1.0607 -0.4393s-0.4393 -0.6628 -0.4393 -1.0607c0.034 -0.2844 0.0006 -0.5729 -0.0974 -0.8422 -0.0979 -0.2692 -0.2578 -0.5116 -0.4666 -0.7078 -0.3617 0.4321 -0.541 0.988 -0.5 1.55 0 0.3979 -0.158 0.7794 -0.4393 1.0607s-0.6629 0.4393 -1.0607 0.4393c-0.3978 0 -0.7794 -0.158 -1.0607 -0.4393S39 46.2629 39 45.865c0 -2.549 1.551 -4.546 3.531 -4.546 1.98 0 3.532 2 3.532 4.546 0 0.3977 -0.1579 0.7791 -0.439 1.0603 -0.2811 0.2813 -0.6623 0.4395 -1.06 0.4397v0Z" stroke-width="1"></path><path stroke="#45413c" stroke-linecap="round" stroke-linejoin="round" d="M47.389 33.158H25.043c-1.6828 0 -3.047 1.3642 -3.047 3.047v16.251c0 1.6828 1.3642 3.047 3.047 3.047h22.346c1.6828 0 3.047 -1.3642 3.047 -3.047V36.205c0 -1.6828 -1.3642 -3.047 -3.047 -3.047Z" stroke-width="1"></path><path fill="#ffffff" d="M81.187 53.974H65.019c-0.4591 0 -0.8994 -0.1824 -1.224 -0.507s-0.507 -0.7649 -0.507 -1.224v-5.286l-3.016 -4.222c-0.1257 -0.1759 -0.1911 -0.3878 -0.1862 -0.6039 0.0048 -0.2162 0.0796 -0.4249 0.213 -0.595 0.1335 -0.1701 0.3185 -0.2923 0.5273 -0.3484 0.2088 -0.0561 0.4302 -0.043 0.6309 0.0373l1.831 0.732V41.6c0 -0.4591 0.1824 -0.8994 0.507 -1.224s0.7649 -0.507 1.224 -0.507h16.168c0.2273 0 0.4524 0.0448 0.6624 0.1318 0.2101 0.087 0.4009 0.2145 0.5616 0.3752 0.1608 0.1608 0.2883 0.3516 0.3752 0.5616 0.087 0.21 0.1318 0.4351 0.1318 0.6624v10.643c0 0.2273 -0.0448 0.4524 -0.1318 0.6624 -0.0869 0.2101 -0.2144 0.4009 -0.3752 0.5616 -0.1607 0.1608 -0.3515 0.2883 -0.5616 0.3753 -0.21 0.0869 -0.4351 0.1317 -0.6624 0.1317Z" stroke-width="1"></path><path fill="#ffffff" d="M55.355 7.13H36.317c-0.4591 0 -0.8994 0.18238 -1.224 0.507 -0.3246 0.32463 -0.507 0.76492 -0.507 1.224v13.413c0 0.2273 0.0448 0.4524 0.1318 0.6624 0.087 0.21 0.2145 0.4009 0.3752 0.5616 0.1607 0.1607 0.3516 0.2883 0.5616 0.3752 0.21 0.087 0.4351 0.1318 0.6624 0.1318h1.769v2.865c0.0001 0.19 0.0543 0.3761 0.1563 0.5364s0.2475 0.2883 0.4196 0.3688c0.1721 0.0806 0.3636 0.1105 0.552 0.0862 0.1885 -0.0243 0.3661 -0.1018 0.5121 -0.2234l4.36 -3.633h11.269c0.2273 0 0.4524 -0.0448 0.6624 -0.1318 0.21 -0.0869 0.4009 -0.2145 0.5616 -0.3752 0.1607 -0.1607 0.2882 -0.3516 0.3752 -0.5616 0.087 -0.21 0.1318 -0.4351 0.1318 -0.6624V8.861c0 -0.22731 -0.0448 -0.45241 -0.1318 -0.66242 -0.087 -0.21001 -0.2145 -0.40084 -0.3752 -0.56158 -0.1607 -0.16074 -0.3516 -0.28824 -0.5616 -0.37523 -0.21 -0.08699 -0.4351 -0.13177 -0.6624 -0.13177Z" stroke-width="1"></path><path stroke="#45413c" stroke-linecap="round" stroke-linejoin="round" d="M55.355 7.13H36.317c-0.4591 0 -0.8994 0.18238 -1.224 0.507 -0.3246 0.32463 -0.507 0.76492 -0.507 1.224v13.413c0 0.2273 0.0448 0.4524 0.1318 0.6624 0.087 0.21 0.2145 0.4009 0.3752 0.5616 0.1607 0.1607 0.3516 0.2883 0.5616 0.3752 0.21 0.087 0.4351 0.1318 0.6624 0.1318h1.769v2.865c0.0001 0.19 0.0543 0.3761 0.1563 0.5364s0.2475 0.2883 0.4196 0.3688c0.1721 0.0806 0.3636 0.1105 0.552 0.0862 0.1885 -0.0243 0.3661 -0.1018 0.5121 -0.2234l4.36 -3.633h11.269c0.2273 0 0.4524 -0.0448 0.6624 -0.1318 0.21 -0.0869 0.4009 -0.2145 0.5616 -0.3752 0.1607 -0.1607 0.2882 -0.3516 0.3752 -0.5616 0.087 -0.21 0.1318 -0.4351 0.1318 -0.6624V8.861c0 -0.22731 -0.0448 -0.45241 -0.1318 -0.66242 -0.087 -0.21001 -0.2145 -0.40084 -0.3752 -0.56158 -0.1607 -0.16074 -0.3516 -0.28824 -0.5616 -0.37523 -0.21 -0.08699 -0.4351 -0.13177 -0.6624 -0.13177v0Z" stroke-width="1"></path><path fill="#ffffff" d="M89.922 11.87h-23.8c-0.2841 0 -0.5655 0.056 -0.828 0.1647 -0.2625 0.1088 -0.5009 0.2682 -0.7018 0.4692 -0.2009 0.2009 -0.3602 0.4395 -0.4688 0.702 -0.1087 0.2626 -0.1645 0.544 -0.1644 0.8281v10.071l-3.769 5.278c-0.1571 0.2199 -0.2387 0.4848 -0.2326 0.755 0.0061 0.2702 0.0997 0.5312 0.2666 0.7437 0.167 0.2126 0.3983 0.3653 0.6594 0.4353 0.261 0.07 0.5377 0.0535 0.7886 -0.047l2.289 -0.915v0.445c-0.0001 0.2841 0.0557 0.5655 0.1644 0.828 0.1086 0.2626 0.2679 0.5012 0.4688 0.7021 0.2009 0.201 0.4394 0.3604 0.7018 0.4692 0.2625 0.1087 0.5439 0.1647 0.828 0.1647h23.8c0.5736 -0.0005 1.1235 -0.2288 1.5289 -0.6345 0.4054 -0.4058 0.6331 -0.9559 0.6331 -1.5295V14.034c0 -0.5739 -0.228 -1.1244 -0.6338 -1.5302 -0.4058 -0.4058 -0.9563 -0.6338 -1.5302 -0.6338Z" stroke-width="1"></path><path stroke="#45413c" stroke-linecap="round" stroke-linejoin="round" d="M89.922 11.87h-23.8c-0.2841 0 -0.5655 0.056 -0.828 0.1647 -0.2625 0.1088 -0.5009 0.2682 -0.7018 0.4692 -0.2009 0.2009 -0.3602 0.4395 -0.4688 0.702 -0.1087 0.2626 -0.1645 0.544 -0.1644 0.8281v10.071l-3.769 5.278c-0.1571 0.2199 -0.2387 0.4848 -0.2326 0.755 0.0061 0.2702 0.0997 0.5312 0.2666 0.7437 0.167 0.2126 0.3983 0.3653 0.6594 0.4353 0.261 0.07 0.5377 0.0535 0.7886 -0.047l2.289 -0.915v0.445c-0.0001 0.2841 0.0557 0.5655 0.1644 0.828 0.1086 0.2626 0.2679 0.5012 0.4688 0.7021 0.2009 0.201 0.4394 0.3604 0.7018 0.4692 0.2625 0.1087 0.5439 0.1647 0.828 0.1647h23.8c0.5736 -0.0005 1.1235 -0.2288 1.5289 -0.6345 0.4054 -0.4058 0.6331 -0.9559 0.6331 -1.5295V14.034c0 -0.5739 -0.228 -1.1244 -0.6338 -1.5302 -0.4058 -0.4058 -0.9563 -0.6338 -1.5302 -0.6338v0Z" stroke-width="1"></path><path stroke="#45413c" stroke-linecap="round" stroke-linejoin="round" d="M81.187 53.974H65.019c-0.4591 0 -0.8994 -0.1824 -1.224 -0.507s-0.507 -0.7649 -0.507 -1.224v-5.286l-3.016 -4.222c-0.1257 -0.1759 -0.1911 -0.3878 -0.1862 -0.6039 0.0048 -0.2162 0.0796 -0.4249 0.213 -0.595 0.1335 -0.1701 0.3185 -0.2923 0.5273 -0.3484 0.2088 -0.0561 0.4302 -0.043 0.6309 0.0373l1.831 0.732V41.6c0 -0.4591 0.1824 -0.8994 0.507 -1.224s0.7649 -0.507 1.224 -0.507h16.168c0.2273 0 0.4524 0.0448 0.6624 0.1318 0.2101 0.087 0.4009 0.2145 0.5616 0.3752 0.1608 0.1608 0.2883 0.3516 0.3752 0.5616 0.087 0.21 0.1318 0.4351 0.1318 0.6624v10.643c0 0.2273 -0.0448 0.4524 -0.1318 0.6624 -0.0869 0.2101 -0.2144 0.4009 -0.3752 0.5616 -0.1607 0.1608 -0.3515 0.2883 -0.5616 0.3753 -0.21 0.0869 -0.4351 0.1317 -0.6624 0.1317v0Z" stroke-width="1"></path><path stroke="#45413c" stroke-linecap="round" stroke-linejoin="round" d="M77.549 45.266h-6.63" stroke-width="1"></path><path stroke="#45413c" stroke-linecap="round" stroke-linejoin="round" d="M77.549 48.266h-10.13" stroke-width="1"></path><path fill="#ff6242" d="M45.836 21.887c3.4021 0 6.16 -2.7579 6.16 -6.16 0 -3.4021 -2.7579 -6.15998 -6.16 -6.15998 -3.4021 0 -6.16 2.75788 -6.16 6.15998s2.7579 6.16 6.16 6.16Z" stroke-width="1"></path><path fill="#ff6242" d="M41.759 16.952c0.5523 0 1 -0.4477 1 -1s-0.4477 -1 -1 -1 -1 0.4477 -1 1 0.4477 1 1 1Z" stroke-width="1"></path><path fill="#ff6242" d="M49.912 16.952c0.5523 0 1 -0.4477 1 -1s-0.4477 -1 -1 -1 -1 0.4477 -1 1 0.4477 1 1 1Z" stroke-width="1"></path><path stroke="#45413c" stroke-linecap="round" stroke-linejoin="round" d="M45.836 21.887c3.4021 0 6.16 -2.7579 6.16 -6.16 0 -3.4021 -2.7579 -6.15998 -6.16 -6.15998 -3.4021 0 -6.16 2.75788 -6.16 6.15998s2.7579 6.16 6.16 6.16Z" stroke-width="1"></path><path fill="#45413c" stroke="#45413c" stroke-linejoin="round" d="M48.264 13.133c0.1642 0.1642 0.2564 0.3868 0.2564 0.619 0 0.2322 -0.0922 0.4548 -0.2564 0.619s-0.3868 0.2564 -0.619 0.2564c-0.2322 0 -0.4548 -0.0922 -0.619 -0.2564l1.238 -1.238Z" stroke-width="1"></path><path stroke="#45413c" stroke-linecap="round" stroke-linejoin="round" d="M47.236 17.967c-0.4146 -0.2763 -0.9018 -0.4237 -1.4 -0.4237 -0.4982 0 -0.9853 0.1474 -1.4 0.4237" stroke-width="1"></path><path fill="#45413c" stroke="#45413c" stroke-linejoin="round" d="M43.945 13.133c-0.1642 0.164 -0.2565 0.3866 -0.2566 0.6186 0 0.2321 0.0921 0.4547 0.2561 0.6189 0.164 0.1642 0.3866 0.2564 0.6186 0.2565 0.2321 0.0001 0.4547 -0.092 0.6189 -0.256l-1.237 -1.238Z" stroke-width="1"></path><path fill="#ffe500" stroke="#45413c" stroke-linecap="round" stroke-linejoin="round" d="M78.023 30.247c4.3493 0 7.875 -3.5257 7.875 -7.875 0 -4.3492 -3.5257 -7.875 -7.875 -7.875 -4.3492 0 -7.875 3.5258 -7.875 7.875 0 4.3493 3.5258 7.875 7.875 7.875Z" stroke-width="1"></path><path fill="#45413c" d="M75.338 21.511c0.5523 0 1 -0.4477 1 -1s-0.4477 -1 -1 -1 -1 0.4477 -1 1 0.4477 1 1 1Z" stroke-width="1"></path><path fill="#ffaa54" d="M73.228 23.659c0.5523 0 1 -0.4477 1 -1s-0.4477 -1 -1 -1 -1 0.4477 -1 1 0.4477 1 1 1Z" stroke-width="1"></path><path fill="#45413c" d="M80.708 21.511c0.5523 0 1 -0.4477 1 -1s-0.4477 -1 -1 -1 -1 0.4477 -1 1 0.4477 1 1 1Z" stroke-width="1"></path><path fill="#ffaa54" d="M82.819 23.659c0.5523 0 1 -0.4477 1 -1s-0.4477 -1 -1 -1 -1 0.4477 -1 1 0.4477 1 1 1Z" stroke-width="1"></path><path stroke="#45413c" stroke-linecap="round" stroke-linejoin="round" d="M79.813 24.693c-0.53 0.3535 -1.1529 0.5422 -1.79 0.5422s-1.26 -0.1887 -1.79 -0.5422" stroke-width="1"></path></svg>