<svg xmlns="http://www.w3.org/2000/svg" fill="none" viewBox="0 0 100 100" id="Raining-2--Streamline-Ux" height="100" width="100"><desc>Raining 2 Streamline Illustration: https://streamlinehq.com</desc><path fill="#4acfff" d="M90 51.25c0.0008 -5.9698 -1.3347 -11.8641 -3.9086 -17.2506 -2.5738 -5.3865 -6.3207 -10.1286 -10.9658 -13.8785 -4.6452 -3.7499 -10.0708 -6.4125 -15.8789 -7.7925 -5.8081 -1.3801 -11.8515 -1.4425 -17.687 -0.1829 -5.8354 1.2597 -11.3149 3.8096 -16.0365 7.4627 -4.7217 3.653 -8.5658 8.3166 -11.2504 13.6488 -2.6846 5.3321 -4.1417 11.1976 -4.2644 17.1661 -0.1226 5.9686 1.0923 11.889 3.5556 17.3269h72.872c2.3528 -5.1823 3.5681 -10.8086 3.564 -16.5Z" stroke-width="1"></path><path fill="#b8ecff" d="M13.564 67.75c3.1727 7.0039 8.2968 12.945 14.7589 17.1119 6.462 4.1669 13.9881 6.383 21.6771 6.383s15.2151 -2.2161 21.6771 -6.383C78.1392 80.695 83.2633 74.7539 86.436 67.75H13.564Z" stroke-width="1"></path><path stroke="#45413c" stroke-linecap="round" stroke-linejoin="round" d="M11 67.75h78" stroke-width="1"></path><path stroke="#45413c" stroke-linecap="round" stroke-linejoin="round" d="M6.5 67.75H9" stroke-width="1"></path><path stroke="#45413c" stroke-linecap="round" stroke-linejoin="round" d="M91 67.75h2.5" stroke-width="1"></path><path stroke="#e5f8ff" stroke-linecap="round" stroke-miterlimit="10" d="M35.5 81.715c-2.282 -0.162 -4 -0.868 -4 -1.715 0 -0.648 1.005 -1.213 2.5 -1.515" stroke-width="1"></path><path stroke="#e5f8ff" stroke-linecap="round" stroke-miterlimit="10" d="M36.5 78.25c2.761 0 5 0.783 5 1.75 0 0.783 -1.471 1.447 -3.5 1.67" stroke-width="1"></path><path stroke="#e5f8ff" stroke-linecap="round" stroke-miterlimit="10" d="M26.5 70.785c2.282 0.162 4 0.868 4 1.715 0 0.648 -1 1.213 -2.5 1.515" stroke-width="1"></path><path stroke="#e5f8ff" stroke-linecap="round" stroke-miterlimit="10" d="M25.5 74.25c-2.762 0 -5 -0.783 -5 -1.75 0 -0.783 1.471 -1.447 3.5 -1.67" stroke-width="1"></path><path stroke="#e5f8ff" stroke-linecap="round" stroke-miterlimit="10" d="M43.5 70.785c2.282 0.162 4 0.868 4 1.715 0 0.648 -1.005 1.213 -2.5 1.515" stroke-width="1"></path><path stroke="#e5f8ff" stroke-linecap="round" stroke-miterlimit="10" d="M42.5 74.25c-2.762 0 -5 -0.783 -5 -1.75 0 -0.783 1.471 -1.447 3.5 -1.67" stroke-width="1"></path><path stroke="#e5f8ff" stroke-linecap="round" stroke-miterlimit="10" d="M71 70.285c2.282 0.162 4 0.868 4 1.715 0 0.648 -1 1.213 -2.5 1.515" stroke-width="1"></path><path stroke="#e5f8ff" stroke-linecap="round" stroke-miterlimit="10" d="M70 73.75c-2.762 0 -5 -0.783 -5 -1.75 0 -0.783 1.471 -1.447 3.5 -1.67" stroke-width="1"></path><path stroke="#e5f8ff" stroke-linecap="round" stroke-miterlimit="10" d="M70 81.715c-2.282 -0.162 -4 -0.868 -4 -1.715 0 -0.648 1 -1.213 2.5 -1.515" stroke-width="1"></path><path stroke="#e5f8ff" stroke-linecap="round" stroke-miterlimit="10" d="M71 78.25c2.761 0 5 0.783 5 1.75 0 0.783 -1.471 1.447 -3.5 1.67" stroke-width="1"></path><path stroke="#f8f8f8" stroke-linecap="round" stroke-miterlimit="10" d="M19.959 44.026 15 57.652" stroke-width="1"></path><path stroke="#f8f8f8" stroke-linecap="round" stroke-miterlimit="10" d="m24.064 32.75 -2.224 6.108" stroke-width="1"></path><path stroke="#f8f8f8" stroke-linecap="round" stroke-miterlimit="10" d="M39.459 46.125 34.5 59.75" stroke-width="1"></path><path stroke="#f8f8f8" stroke-linecap="round" stroke-miterlimit="10" d="m43.564 34.848 -2.224 6.108" stroke-width="1"></path><path stroke="#f8f8f8" stroke-linecap="round" stroke-miterlimit="10" d="M78.959 49.625 74 63.25" stroke-width="1"></path><path stroke="#f8f8f8" stroke-linecap="round" stroke-miterlimit="10" d="m83.064 38.348 -2.224 6.108" stroke-width="1"></path><path stroke="#f8f8f8" stroke-linecap="round" stroke-miterlimit="10" d="m32.5 40.288 -4.959 13.625" stroke-width="1"></path><path stroke="#f8f8f8" stroke-linecap="round" stroke-miterlimit="10" d="m26.002 58.142 -2.224 6.108" stroke-width="1"></path><path stroke="#f8f8f8" stroke-linecap="round" stroke-miterlimit="10" d="m76.721 25.75 -4.959 13.626" stroke-width="1"></path><path stroke="#f8f8f8" stroke-linecap="round" stroke-miterlimit="10" d="M70.223 43.604 68 49.712" stroke-width="1"></path><path fill="#ffcebf" d="m57.298 84.779 1.932 -17.23H45.191l1.931 17.23h10.176Z" stroke-width="1"></path><path fill="#ffb59e" d="m58.085 77.759 0.358 -3.191H45.978l0.357 3.191h11.75Z" stroke-width="1"></path><path stroke="#45413c" stroke-linecap="round" stroke-linejoin="round" d="m57.298 84.779 1.932 -17.23H45.191l1.931 17.23h10.176Z" stroke-width="1"></path><path stroke="#45413c" stroke-linecap="round" stroke-linejoin="round" d="m57.298 84.779 1.932 -17.23H45.191l1.931 17.23h10.176Z" stroke-width="1"></path><path stroke="#45413c" stroke-linecap="round" stroke-linejoin="round" d="M52.21 72.654v12.125" stroke-width="1"></path><path fill="#45413c" d="M52.21 94.35c5.9912 0 10.848 -0.8569 10.848 -1.914s-4.8568 -1.914 -10.848 -1.914c-5.9912 0 -10.848 0.8569 -10.848 1.914s4.8568 1.914 10.848 1.914Z" opacity=".15" stroke-width="1"></path><path fill="#ff6242" stroke="#45413c" stroke-linecap="round" stroke-linejoin="round" d="M47.105 91.16h5.105v-8.934h-4.372c-0.1753 0 -0.3487 0.036 -0.5094 0.106 -0.1607 0.0699 -0.3052 0.1722 -0.4247 0.3004 -0.1194 0.1283 -0.2111 0.2797 -0.2695 0.445 -0.0583 0.1653 -0.0819 0.3408 -0.0694 0.5156l0.54 7.567Z" stroke-width="1"></path><path fill="#ff6242" stroke="#45413c" stroke-linecap="round" stroke-linejoin="round" d="M57.315 91.16h-5.1v-8.934h4.373c0.1753 0 0.3486 0.036 0.5093 0.106 0.1607 0.0699 0.3053 0.1722 0.4247 0.3004 0.1195 0.1283 0.2112 0.2797 0.2695 0.445 0.0583 0.1653 0.082 0.3408 0.0695 0.5156l-0.546 7.567Z" stroke-width="1"></path><path fill="#ff6242" stroke="#45413c" stroke-linecap="round" stroke-linejoin="round" d="M52.21 91.16c0 -1.0155 -0.4034 -1.9894 -1.1215 -2.7075s-1.692 -1.1215 -2.7075 -1.1215h-0.638c-0.6845 -0.0001 -1.3566 0.1833 -1.9461 0.5312 -0.5896 0.3479 -1.0751 0.8475 -1.4059 1.4468 -0.0996 0.1948 -0.1473 0.4121 -0.1384 0.6308 0.0089 0.2186 0.0741 0.4313 0.1892 0.6174 0.1151 0.1861 0.2763 0.3394 0.468 0.445 0.1917 0.1056 0.4074 0.1599 0.6262 0.1578h6.674Z" stroke-width="1"></path><path fill="#ff6242" stroke="#45413c" stroke-linecap="round" stroke-linejoin="round" d="M58.885 91.16c0.2188 0.0021 0.4345 -0.0522 0.6262 -0.1578 0.1917 -0.1056 0.3529 -0.2589 0.468 -0.445 0.1151 -0.1861 0.1803 -0.3988 0.1892 -0.6174 0.0089 -0.2187 -0.0388 -0.436 -0.1384 -0.6308 -0.3311 -0.5993 -0.8168 -1.0989 -1.4065 -1.4468 -0.5897 -0.3479 -1.2618 -0.5313 -1.9465 -0.5312h-0.638c-1.0155 0 -1.9894 0.4034 -2.7075 1.1215S52.21 90.1445 52.21 91.16h6.675Z" stroke-width="1"></path><path fill="#fffacf" d="M63.7 55.424c0 -1.5087 -0.2972 -3.0026 -0.8747 -4.3964 -0.5775 -1.3938 -1.4239 -2.6602 -2.4909 -3.7268 -1.067 -1.0667 -2.3337 -1.9126 -3.7277 -2.4896 -1.394 -0.577 -2.888 -0.8737 -4.3967 -0.8732 -3.0965 0.0584 -6.0438 1.3413 -8.1965 3.5679 -2.1528 2.2265 -3.3356 5.2154 -3.2895 8.3121v2.8h4.467V73.93c-0.0001 0.0838 0.0163 0.1668 0.0483 0.2443 0.032 0.0775 0.079 0.1479 0.1383 0.2071 0.0592 0.0593 0.1296 0.1063 0.2071 0.1383 0.0774 0.032 0.1605 0.0484 0.2443 0.0483h12.763c0.0838 0 0.1667 -0.0165 0.2441 -0.0486 0.0774 -0.032 0.1478 -0.079 0.207 -0.1383 0.0593 -0.0592 0.1063 -0.1295 0.1383 -0.2069 0.0321 -0.0775 0.0486 -0.1604 0.0486 -0.2442v-5.105h4.47V55.424Z" stroke-width="1"></path><path fill="#fffef2" d="M63.7 55.424c0 -1.5087 -0.2972 -3.0026 -0.8747 -4.3964 -0.5775 -1.3938 -1.4239 -2.6602 -2.4909 -3.7268 -1.067 -1.0667 -2.3337 -1.9126 -3.7277 -2.4896 -1.394 -0.577 -2.888 -0.8737 -4.3967 -0.8732 -3.0965 0.0584 -6.0438 1.3413 -8.1965 3.5679 -2.1528 2.2265 -3.3356 5.2154 -3.2895 8.3121v2.552c-0.0461 -3.0967 1.1367 -6.0856 3.2895 -8.3121 2.1527 -2.2266 5.1 -3.5095 8.1965 -3.5679 1.5087 -0.0004 3.0028 0.2964 4.3968 0.8735 1.394 0.5771 2.6607 1.4232 3.7277 2.4899 1.0669 1.0667 1.9133 2.3332 2.4908 3.727 0.5775 1.3939 0.8747 2.8879 0.8747 4.3966v-2.553Z" stroke-width="1"></path><path stroke="#45413c" stroke-linecap="round" stroke-linejoin="round" d="M63.7 55.424c0 -1.5087 -0.2972 -3.0026 -0.8747 -4.3964 -0.5775 -1.3938 -1.4239 -2.6602 -2.4909 -3.7268 -1.067 -1.0667 -2.3337 -1.9126 -3.7277 -2.4896 -1.394 -0.577 -2.888 -0.8737 -4.3967 -0.8732 -3.0965 0.0584 -6.0438 1.3413 -8.1965 3.5679 -2.1528 2.2265 -3.3356 5.2154 -3.2895 8.3121v2.8h4.467V73.93c-0.0001 0.0838 0.0163 0.1668 0.0483 0.2443 0.032 0.0775 0.079 0.1479 0.1383 0.2071 0.0592 0.0593 0.1296 0.1063 0.2071 0.1383 0.0774 0.032 0.1605 0.0484 0.2443 0.0483h12.763c0.0838 0 0.1667 -0.0165 0.2441 -0.0486 0.0774 -0.032 0.1478 -0.079 0.207 -0.1383 0.0593 -0.0592 0.1063 -0.1295 0.1383 -0.2069 0.0321 -0.0775 0.0486 -0.1604 0.0486 -0.2442v-5.105h4.47V55.424Z" stroke-width="1"></path><path fill="#ffcebf" stroke="#45413c" stroke-linecap="round" stroke-linejoin="round" d="M59.23 68.825v2.234c0.0123 0.5842 0.2531 1.1403 0.6706 1.549 0.4175 0.4088 0.9786 0.6377 1.5629 0.6377 0.5843 0 1.1453 -0.2289 1.5629 -0.6377 0.4175 -0.4087 0.6582 -0.9648 0.6706 -1.549v-2.234H59.23Z" stroke-width="1"></path><path stroke="#45413c" stroke-linecap="round" stroke-linejoin="round" d="M45.829 50.319c-1.6 3.2 -2.566 4.193 -1.341 5.921 0.4883 0.6931 0.7343 1.5279 0.7 2.375" stroke-width="1"></path><path stroke="#45413c" stroke-linecap="round" stroke-linejoin="round" d="M58.592 50.319c1.6 3.2 2.566 4.193 1.341 5.921 -0.4887 0.6929 -0.7348 1.5278 -0.7 2.375v10.21" stroke-width="1"></path><path stroke="#45413c" stroke-linecap="round" stroke-linejoin="round" d="M52.21 43.938c-2.4015 -0.0071 -4.7405 0.7649 -6.666 2.2 0.4642 1.4082 1.3622 2.6334 2.5654 3.4999 1.2032 0.8665 2.6498 1.3299 4.1326 1.3238 1.4827 -0.0061 2.9255 -0.4814 4.1215 -1.3578 1.196 -0.8764 2.084 -2.1089 2.5365 -3.5209 -1.9497 -1.3992 -4.2902 -2.1497 -6.69 -2.145Z" stroke-width="1"></path><path fill="#ffcebf" stroke="#45413c" stroke-linecap="round" stroke-linejoin="round" d="M55.552 44.432c-0.2055 -0.0623 -0.3855 -0.1891 -0.5134 -0.3616 -0.1279 -0.1725 -0.1968 -0.3816 -0.1966 -0.5964V39.5h-5.257v3.987c0.0002 0.213 -0.0675 0.4205 -0.1934 0.5922 -0.126 0.1718 -0.3034 0.2989 -0.5066 0.3628 -0.3555 0.1099 -0.705 0.2384 -1.047 0.385 0.2059 1.0115 0.7558 1.9205 1.556 2.5725 0.8003 0.6521 1.8017 1.0069 2.8339 1.0042 1.0323 -0.0028 2.0318 -0.3628 2.8286 -1.019 0.7969 -0.6562 1.3419 -1.5681 1.5425 -2.5807 -0.345 -0.14 -0.693 -0.264 -1.047 -0.372Z" stroke-width="1"></path><path stroke="#45413c" stroke-linecap="round" stroke-linejoin="round" d="m45.191 69.484 1.5 -1.427c0.232 -0.2204 0.5383 -0.3455 0.8582 -0.3505 0.32 -0.005 0.6301 0.1105 0.8688 0.3235l0.447 0.4c0.2378 0.2119 0.5461 0.3272 0.8646 0.3234 0.3184 -0.0039 0.6239 -0.1268 0.8564 -0.3444l0.633 -0.592c0.127 -0.1189 0.2771 -0.2105 0.4408 -0.2693 0.1638 -0.0588 0.3378 -0.0835 0.5115 -0.0725 0.1736 0.0109 0.3432 0.0573 0.4983 0.1362 0.155 0.0789 0.2923 0.1887 0.4034 0.3226l0.364 0.438c0.1158 0.1392 0.2599 0.2522 0.4227 0.3315 0.1629 0.0793 0.3407 0.123 0.5217 0.1283 0.181 0.0053 0.3611 -0.028 0.5282 -0.0976 0.1672 -0.0696 0.3177 -0.174 0.4414 -0.3062l0.437 -0.467c0.1157 -0.1239 0.2549 -0.2235 0.4095 -0.293 0.1547 -0.0695 0.3216 -0.1074 0.4911 -0.1116 0.1694 -0.0042 0.338 0.0254 0.4959 0.0872 0.1579 0.0617 0.3019 0.1544 0.4235 0.2724l1.62 1.568" stroke-width="1"></path><path stroke="#45413c" stroke-linecap="round" stroke-linejoin="round" d="m45.191 72.654 1.5 -1.427c0.2321 -0.2209 0.5388 -0.3464 0.8592 -0.3514 0.3204 -0.005 0.6309 0.1108 0.8698 0.3244l0.447 0.4c0.2378 0.2119 0.5461 0.3272 0.8646 0.3233 0.3184 -0.0038 0.6239 -0.1267 0.8564 -0.3443l0.633 -0.592c0.127 -0.1189 0.2771 -0.2106 0.4408 -0.2693 0.1638 -0.0588 0.3378 -0.0835 0.5115 -0.0725 0.1736 0.0109 0.3432 0.0573 0.4983 0.1362 0.155 0.0789 0.2923 0.1887 0.4034 0.3226l0.364 0.438c0.1158 0.1392 0.2599 0.2522 0.4227 0.3315 0.1628 0.0792 0.3407 0.123 0.5217 0.1283 0.181 0.0053 0.3611 -0.028 0.5282 -0.0976 0.1672 -0.0696 0.3177 -0.174 0.4414 -0.3062l0.437 -0.468c0.1158 -0.1237 0.2551 -0.2231 0.4097 -0.2924 0.1546 -0.0693 0.3215 -0.1072 0.4909 -0.1114 0.1694 -0.0042 0.3379 0.0254 0.4958 0.087 0.1578 0.0616 0.3018 0.154 0.4236 0.2718l1.62 1.569" stroke-width="1"></path><path fill="#ffcebf" stroke="#45413c" stroke-linecap="round" stroke-linejoin="round" d="M61.144 35.227c-0.003 -0.3632 -0.1318 -0.7142 -0.3645 -0.9931 -0.2326 -0.279 -0.5547 -0.4687 -0.9115 -0.5369v-1.022c0.0116 -1.013 -0.1779 -2.0181 -0.5576 -2.9573 -0.3796 -0.9393 -0.9418 -1.7938 -1.654 -2.5142 -0.7122 -0.7204 -1.5603 -1.2923 -2.4951 -1.6827 -0.9348 -0.3903 -1.9378 -0.5913 -2.9508 -0.5913 -1.013 0 -2.016 0.201 -2.9508 0.5913 -0.9348 0.3904 -1.7829 0.9623 -2.4951 1.6827 -0.7122 0.7204 -1.2744 1.5749 -1.654 2.5142 -0.3797 0.9392 -0.5692 1.9443 -0.5576 2.9573V33.7c-0.372 0.0697 -0.706 0.2721 -0.9401 0.5694 -0.2341 0.2974 -0.3524 0.6696 -0.3329 1.0476 0.0196 0.3779 0.1756 0.736 0.4391 1.0076 0.2636 0.2716 0.6167 0.4384 0.9939 0.4694 0.3599 1.722 1.3017 3.2676 2.6669 4.377 1.3653 1.1095 3.0709 1.7151 4.8301 1.7151 1.7592 0 3.4648 -0.6056 4.8301 -1.7151 1.3653 -1.1094 2.307 -2.655 2.6669 -4.377 0.3916 -0.0356 0.7558 -0.2159 1.0215 -0.5056 0.2657 -0.2898 0.4139 -0.6682 0.4155 -1.0614v0Z" stroke-width="1"></path><path fill="#ffb59e" d="M48.062 37.142c0.5285 0 0.957 -0.4285 0.957 -0.957s-0.4285 -0.957 -0.957 -0.957c-0.5286 0 -0.957 0.4285 -0.957 0.957s0.4284 0.957 0.957 0.957Z" stroke-width="1"></path><path fill="#ffb59e" d="M56.358 37.142c0.5285 0 0.957 -0.4285 0.957 -0.957s-0.4285 -0.957 -0.957 -0.957 -0.957 0.4285 -0.957 0.957 0.4285 0.957 0.957 0.957Z" stroke-width="1"></path><path stroke="#45413c" stroke-linecap="round" stroke-linejoin="round" d="M50.3 38.477c0.5671 0.3775 1.2332 0.5789 1.9145 0.5789s1.3474 -0.2014 1.9145 -0.5789" stroke-width="1"></path><path fill="#45413c" d="M49.339 34.589c0.5285 0 0.957 -0.4285 0.957 -0.957s-0.4285 -0.957 -0.957 -0.957 -0.957 0.4285 -0.957 0.957 0.4285 0.957 0.957 0.957Z" stroke-width="1"></path><path fill="#45413c" d="M55.082 34.589c0.5285 0 0.957 -0.4285 0.957 -0.957s-0.4285 -0.957 -0.957 -0.957 -0.957 0.4285 -0.957 0.957 0.4285 0.957 0.957 0.957Z" stroke-width="1"></path><path fill="#ffe500" stroke="#45413c" stroke-linecap="round" stroke-linejoin="round" d="M49.448 30.923c-5.2 0.644 -6.112 3 -6.123 3.028 -0.731 5.487 1.491 9.493 0.215 15.506 -0.0156 0.0786 -0.006 0.1602 0.0275 0.233 0.0334 0.0729 0.089 0.1333 0.1588 0.1728 0.0698 0.0394 0.1502 0.0558 0.2299 0.0469 0.0796 -0.0089 0.1545 -0.0428 0.2138 -0.0967 1.3 -1.156 3.573 -3.561 3.573 -6.29 0 -3.775 -3.1 -8.79 1.705 -12.6Z" stroke-width="1"></path><path fill="#ffe500" stroke="#45413c" stroke-linecap="round" stroke-linejoin="round" d="M54.973 30.923c5.2 0.644 6.111 3 6.123 3.028 0.73 5.487 -1.492 9.493 -0.215 15.506 0.0152 0.0786 0.0053 0.1601 -0.0284 0.2328 -0.0336 0.0727 -0.0892 0.133 -0.159 0.1723 -0.0697 0.0394 -0.1501 0.0558 -0.2297 0.047 -0.0796 -0.0088 -0.1544 -0.0424 -0.2139 -0.0961 -1.3 -1.156 -3.573 -3.561 -3.573 -6.29 0 -3.775 3.101 -8.79 -1.704 -12.6Z" stroke-width="1"></path><path fill="#dabff5" d="M52.21 21.826c-7.009 0.028 -11.48 5.122 -8.885 12.125 0.014 -0.035 1.232 -3.176 8.885 -3.19 7.683 0.014 8.881 3.179 8.886 3.19 2.585 -6.961 -1.835 -12.097 -8.886 -12.125Z" stroke-width="1"></path><path fill="#eddbff" d="M52.21 24.618c5.1 0.02 8.854 2.722 9.524 6.889 0.841 -5.714 -3.359 -9.656 -9.524 -9.681 -6.164 0.025 -10.365 3.967 -9.523 9.681 0.669 -4.167 4.424 -6.868 9.523 -6.889Z" stroke-width="1"></path><path stroke="#45413c" stroke-linecap="round" stroke-linejoin="round" d="M52.21 21.826c-7.009 0.028 -11.48 5.122 -8.885 12.125 0.014 -0.035 1.232 -3.176 8.885 -3.19 7.683 0.014 8.881 3.179 8.886 3.19 2.585 -6.961 -1.835 -12.097 -8.886 -12.125Z" stroke-width="1"></path><path fill="#bf8df2" stroke="#45413c" stroke-linecap="round" stroke-linejoin="round" d="M61.1 33.951c0.3829 -1.0071 0.6239 -2.0625 0.716 -3.136 -2.8838 -1.7715 -6.2162 -2.6765 -9.6 -2.607 -3.3836 -0.0691 -6.7158 0.8355 -9.6 2.606 0.0928 1.0738 0.3341 2.1295 0.717 3.137 0.014 -0.036 1.232 -3.176 8.885 -3.19 7.675 0.014 8.873 3.179 8.882 3.19Z" stroke-width="1"></path><path fill="#bdbec0" stroke="#45413c" stroke-miterlimit="10" d="M44.553 67.549c1.015 -0.0013 1.9881 -0.4052 2.7057 -1.123 0.7176 -0.7178 1.1212 -1.691 1.1223 -2.706v-1.276c0 -0.3384 -0.1344 -0.663 -0.3737 -0.9023 -0.2393 -0.2393 -0.5639 -0.3737 -0.9023 -0.3737 -0.3384 0 -0.663 0.1344 -0.9023 0.3737 -0.2393 0.2393 -0.3737 0.5639 -0.3737 0.9023v1.276c-0.0093 0.3324 -0.1479 0.648 -0.3862 0.8798 -0.2384 0.2318 -0.5578 0.3615 -0.8903 0.3615s-0.6519 -0.1297 -0.8903 -0.3615c-0.2383 -0.2318 -0.3769 -0.5474 -0.3862 -0.8798V19.688c0 -0.3384 -0.1344 -0.663 -0.3737 -0.9023 -0.2393 -0.2393 -0.5639 -0.3737 -0.9023 -0.3737 -0.3384 0 -0.663 0.1344 -0.9023 0.3737 -0.2393 0.2393 -0.3737 0.5639 -0.3737 0.9023V63.72c0.0011 1.0152 0.4048 1.9885 1.1227 2.7063 0.7178 0.7179 1.6911 1.1216 2.7063 1.1227Z" stroke-width="1"></path><path fill="#ff6242" d="M42 5.649S16.474 10.116 16.474 26.07c2.3896 -1.1948 5.0173 -1.8368 7.6885 -1.8785 2.6713 -0.0417 5.3178 0.5179 7.7435 1.6375l0.522 0.241 0.715 -0.286c5.7049 -2.172 12.0091 -2.172 17.714 0l0.715 0.286 0.522 -0.241c2.4257 -1.1196 5.0722 -1.6792 7.7435 -1.6375 2.6712 0.0417 5.2989 0.6837 7.6885 1.8785C67.526 10.116 42 5.649 42 5.649Z" stroke-width="1"></path><path fill="#ff6242" d="M42 5.649c-3.0037 2.48643 -5.4198 5.607 -7.0747 9.1377 -1.655 3.5307 -2.5078 7.384 -2.4973 11.2833l0.715 -0.286c5.7049 -2.172 12.0091 -2.172 17.714 0l0.715 0.286c0.0105 -3.8993 -0.8423 -7.7526 -2.4972 -11.2833C47.4198 11.256 45.0038 8.13543 42 5.649Z" stroke-width="1"></path><path fill="#ff6242" d="M42 12.031c11.806 0 21.828 5.088 25.4 12.154C65.5 9.762 42 5.649 42 5.649S18.5 9.762 16.6 24.185c3.572 -7.066 13.594 -12.154 25.4 -12.154Z" stroke-width="1"></path><path stroke="#45413c" stroke-linecap="round" stroke-linejoin="round" d="M42 5.649S16.474 10.116 16.474 26.07c2.3896 -1.1948 5.0173 -1.8368 7.6885 -1.8785 2.6713 -0.0417 5.3178 0.5179 7.7435 1.6375l0.522 0.241 0.715 -0.286c5.7049 -2.172 12.0091 -2.172 17.714 0l0.715 0.286 0.522 -0.241c2.4257 -1.1196 5.0722 -1.6792 7.7435 -1.6375 2.6712 0.0417 5.2989 0.6837 7.6885 1.8785C67.526 10.116 42 5.649 42 5.649Z" stroke-width="1"></path><path fill="#ffa694" d="M36.166 12.455c3.8688 -0.5653 7.7992 -0.5653 11.668 0C46.3189 9.85079 44.3419 7.54446 42 5.649c-2.342 1.89546 -4.3189 4.20179 -5.834 6.806Z" stroke-width="1"></path><path stroke="#45413c" stroke-linecap="round" stroke-linejoin="round" d="M42 5.649c-3.0037 2.48643 -5.4198 5.607 -7.0747 9.1377 -1.655 3.5307 -2.5078 7.384 -2.4973 11.2833l0.715 -0.286c5.7049 -2.172 12.0091 -2.172 17.714 0l0.715 0.286c0.0105 -3.8993 -0.8423 -7.7526 -2.4972 -11.2833C47.4198 11.256 45.0038 8.13543 42 5.649v0Z" stroke-width="1"></path><path fill="#ffcebf" stroke="#45413c" stroke-linecap="round" stroke-linejoin="round" d="M44.553 59.253c-0.0003 0.5077 -0.2021 0.9946 -0.5612 1.3535 -0.3591 0.3589 -0.8461 0.5605 -1.3538 0.5605h-1.276c-0.1676 0 -0.3335 -0.033 -0.4883 -0.0971 -0.1548 -0.0642 -0.2955 -0.1581 -0.414 -0.2766 -0.1185 -0.1185 -0.2124 -0.2592 -0.2766 -0.414 -0.0641 -0.1548 -0.0971 -0.3207 -0.0971 -0.4883v-1.914c-0.0001 -0.1676 0.0328 -0.3337 0.0968 -0.4886 0.0641 -0.1549 0.1581 -0.2957 0.2766 -0.4143 0.1185 -0.1186 0.2592 -0.2127 0.4141 -0.2769 0.1548 -0.0642 0.3208 -0.0972 0.4885 -0.0972h1.276c0.5078 0.0003 0.9947 0.2021 1.3538 0.5612 0.3591 0.3591 0.5609 0.846 0.5612 1.3538v0.638Z" stroke-width="1"></path></svg>