<svg xmlns="http://www.w3.org/2000/svg" fill="none" viewBox="0 0 100 100" id="Tree-House--Streamline-Ux" height="100" width="100"><desc>Tree House Streamline Illustration: https://streamlinehq.com</desc><path fill="#b8ecff" d="M50 93.345c22.0914 0 40 -17.9086 40 -40s-17.9086 -40 -40 -40 -40 17.9086 -40 40 17.9086 40 40 40Z" stroke-width="1"></path><path stroke="#daedf7" stroke-miterlimit="10" d="M50 93.345c22.0914 0 40 -17.9086 40 -40s-17.9086 -40 -40 -40 -40 17.9086 -40 40 17.9086 40 40 40Z" stroke-width="1"></path><path fill="#46b000" d="M51.373 29.561c-1.664 -0.8 -9.452 0.73 -10.828 1.773 -0.215 -2.221 -3.324 -0.413 -5.483 -1.446 -1.755 -0.839 -3.274 -2.274 -4.94 -1.583 0.273 -2 -1.146 -2.576 -3.061 -3.491 -0.9715 -0.4666 -2.0727 -0.5892 -3.123 -0.3475 -1.0503 0.2416 -1.9872 0.8331 -2.6571 1.6774 -0.6699 0.8443 -1.0328 1.8912 -1.0294 2.9689 0.0035 1.0777 0.3732 2.1223 1.0485 2.9622 -0.5564 0.4683 -0.9633 1.0896 -1.1703 1.7868 -0.2069 0.6972 -0.205 1.4398 0.0058 2.1359 0.2107 0.6961 0.6209 1.3151 1.1798 1.7805 0.5589 0.4654 1.242 0.7566 1.9647 0.8378 -0.3539 0.7634 -0.399 1.634 -0.126 2.4299 0.2731 0.7958 0.8432 1.4554 1.5913 1.8407 0.748 0.3853 1.616 0.4665 2.4225 0.2268 0.8065 -0.2398 1.4892 -0.782 1.9052 -1.5134 0.1 0.056 0.2 0.117 0.31 0.168 1.2725 0.6083 2.7067 0.7918 4.0913 0.5236 1.3846 -0.2683 2.6465 -0.9741 3.5997 -2.0136 0.18 0.65 0.4969 1.2539 0.9294 1.7714 0.4326 0.5174 0.9708 0.9363 1.5786 1.2286 2.373 1.135 8.648 -0.654 9.783 -3.027 1.135 -2.373 4.381 -9.551 2.008 -10.69Z" stroke-width="1"></path><path fill="#f7e5c6" stroke="#45413c" stroke-linecap="round" stroke-linejoin="round" d="m40.44 69.678 -6.514 -9.234h-3.8l9.952 14.263c0.1673 -1.5867 0.288 -3.263 0.362 -5.029Z" stroke-width="1"></path><path fill="#f7e5c6" d="m62.144 89.061 9.133 -15.724h-3.26l-6.489 11.231c0.172 1.632 0.382 3.132 0.616 4.493Z" stroke-width="1"></path><path fill="#f0d3a8" d="m69.302 76.738 1.975 -3.401h-3.26l-1.965 3.401h3.25Z" stroke-width="1"></path><path stroke="#45413c" stroke-linecap="round" stroke-linejoin="round" d="m62.144 89.061 9.133 -15.724h-3.26l-6.489 11.231c0.172 1.632 0.382 3.132 0.616 4.493Z" stroke-width="1"></path><path fill="#bf8256" d="M40.512 60.444v5.628c0 11.357 -2.057 19.242 -4.662 24.689 8.5836 3.2441 18.0215 3.4393 26.732 0.553 -1.0708 -5.3272 -1.5823 -10.7516 -1.526 -16.185V60.444H40.512Z" stroke-width="1"></path><path fill="#915e3a" d="M61.055 60.444H40.512v3.401h20.543v-3.401Z" stroke-width="1"></path><path fill="#46b000" d="M78.35 37.607c-0.1982 0.0047 -0.3958 0.0248 -0.591 0.06 -0.3609 -1.219 -1.1828 -2.2493 -2.2912 -2.8721 -1.1084 -0.6227 -2.4159 -0.7888 -3.6448 -0.4629 -0.8472 -1.7495 -2.2126 -3.1958 -3.9105 -4.1421 -1.698 -0.9463 -3.6462 -1.3468 -5.5798 -1.1471 -1.9335 0.1998 -3.7587 0.9901 -5.2274 2.2635 -1.4687 1.2734 -2.5096 2.9682 -2.9813 4.854 -0.4716 1.8858 -0.3512 3.871 0.345 5.6859 0.6962 1.815 1.9343 3.3715 3.5462 4.458 1.6118 1.0866 3.5191 1.6504 5.4627 1.615 1.9435 -0.0355 3.829 -0.6686 5.4001 -1.8132 0.3082 0.8413 0.8966 1.5509 1.6665 2.0094 0.7698 0.4585 1.674 0.638 2.5605 0.5082 0.8866 -0.1298 1.7014 -0.5609 2.3075 -1.2208 0.6061 -0.66 0.9665 -1.5084 1.0205 -2.4028 0.5839 0.3342 1.2443 0.5119 1.917 0.516 0.5293 0.0168 1.0566 -0.0729 1.5506 -0.2638 0.4939 -0.1909 0.9445 -0.4792 1.3248 -0.8476 0.3804 -0.3685 0.6828 -0.8096 0.8894 -1.2973 0.2065 -0.4876 0.3129 -1.0118 0.3129 -1.5413 0 -0.5296 -0.1064 -1.0538 -0.3129 -1.5414 -0.2066 -0.4876 -0.509 -0.9288 -0.8894 -1.2972 -0.3803 -0.3685 -0.8309 -0.6567 -1.3248 -0.8476 -0.494 -0.191 -1.0213 -0.2807 -1.5506 -0.2638v-0.009Z" stroke-width="1"></path><path stroke="#45413c" stroke-linecap="round" stroke-linejoin="round" d="M78.35 37.607c-0.1982 0.0047 -0.3958 0.0248 -0.591 0.06 -0.3609 -1.219 -1.1828 -2.2493 -2.2912 -2.8721 -1.1084 -0.6227 -2.4159 -0.7888 -3.6448 -0.4629 -0.8472 -1.7495 -2.2126 -3.1958 -3.9105 -4.1421 -1.698 -0.9463 -3.6462 -1.3468 -5.5798 -1.1471 -1.9335 0.1998 -3.7587 0.9901 -5.2274 2.2635 -1.4687 1.2734 -2.5096 2.9682 -2.9813 4.854 -0.4716 1.8858 -0.3512 3.871 0.345 5.6859 0.6962 1.815 1.9343 3.3715 3.5462 4.458 1.6118 1.0866 3.5191 1.6504 5.4627 1.615 1.9435 -0.0355 3.829 -0.6686 5.4001 -1.8132 0.3082 0.8413 0.8966 1.5509 1.6665 2.0094 0.7698 0.4585 1.674 0.638 2.5605 0.5082 0.8866 -0.1298 1.7014 -0.5609 2.3075 -1.2208 0.6061 -0.66 0.9665 -1.5084 1.0205 -2.4028 0.5839 0.3342 1.2443 0.5119 1.917 0.516 0.5293 0.0168 1.0566 -0.0729 1.5506 -0.2638 0.4939 -0.1909 0.9445 -0.4792 1.3248 -0.8476 0.3804 -0.3685 0.6828 -0.8096 0.8894 -1.2973 0.2065 -0.4876 0.3129 -1.0118 0.3129 -1.5413 0 -0.5296 -0.1064 -1.0538 -0.3129 -1.5414 -0.2066 -0.4876 -0.509 -0.9288 -0.8894 -1.2972 -0.3803 -0.3685 -0.8309 -0.6567 -1.3248 -0.8476 -0.494 -0.191 -1.0213 -0.2807 -1.5506 -0.2638v-0.009Z" stroke-width="1"></path><path fill="#f7e5c6" stroke="#45413c" stroke-linecap="round" stroke-linejoin="round" d="M77.005 70.647H61.056v2.69h15.949c0.3567 0 0.6989 -0.1417 0.9511 -0.394 0.2522 -0.2522 0.3939 -0.5943 0.3939 -0.951 0 -0.3567 -0.1417 -0.6989 -0.3939 -0.9511s-0.5944 -0.3939 -0.9511 -0.3939v0Z" stroke-width="1"></path><path fill="#f0d3a8" d="m36.325 63.845 -2.399 -3.401h-3.804l2.373 3.401h3.83Z" stroke-width="1"></path><path stroke="#45413c" stroke-linecap="round" stroke-linejoin="round" d="m40.44 69.678 -6.514 -9.234h-3.8l9.952 14.263c0.1673 -1.5867 0.288 -3.263 0.362 -5.029Z" stroke-width="1"></path><path stroke="#45413c" stroke-linecap="round" stroke-linejoin="round" d="M62.582 91.314c-1.0708 -5.3272 -1.5823 -10.7516 -1.526 -16.185V60.444H40.512v5.628c0 11.357 -2.057 19.242 -4.662 24.689" stroke-width="1"></path><path fill="#f7e5c6" stroke="#45413c" stroke-linecap="round" stroke-linejoin="round" d="M68.239 59.1c-0.0003 0.3555 -0.1413 0.6964 -0.3922 0.9483 -0.2509 0.2518 -0.5913 0.3941 -0.9468 0.3957H18.561c-0.3567 0 -0.6988 -0.1417 -0.9511 -0.394 -0.2522 -0.2522 -0.3939 -0.5943 -0.3939 -0.951 0 -0.3568 0.1417 -0.6989 0.3939 -0.9511 0.2523 -0.2522 0.5944 -0.3939 0.9511 -0.3939H66.9c0.3559 0.0016 0.6966 0.1441 0.9475 0.3964 0.251 0.2523 0.3918 0.5937 0.3915 0.9496v0Z" stroke-width="1"></path><path fill="#f7e5c6" stroke="#45413c" stroke-linecap="round" stroke-linejoin="round" d="M18.8 51.624c0 0.3485 0.1384 0.6827 0.3849 0.9291 0.2464 0.2465 0.5806 0.3849 0.9291 0.3849h20.494V50.31H20.115c-0.1727 -0.0001 -0.3436 0.0338 -0.5032 0.0997 -0.1595 0.066 -0.3045 0.1628 -0.4266 0.2848 -0.1221 0.122 -0.219 0.2669 -0.2851 0.4264 -0.0661 0.1595 -0.1001 0.3305 -0.1001 0.5031v0Z" stroke-width="1"></path><path fill="#f7e5c6" d="M23.048 52.938H20.42v4.815h2.628v-4.815Z" stroke-width="1"></path><path fill="#f0d3a8" d="M23.048 52.938H20.42v2.193h2.628v-2.193Z" stroke-width="1"></path><path stroke="#45413c" stroke-linecap="round" stroke-linejoin="round" d="M23.048 52.938H20.42v4.815h2.628v-4.815Z" stroke-width="1"></path><path fill="#f7e5c6" d="M33.377 52.938h-2.628v4.815h2.628v-4.815Z" stroke-width="1"></path><path fill="#f0d3a8" d="M33.377 52.938h-2.628v2.193h2.628v-2.193Z" stroke-width="1"></path><path stroke="#45413c" stroke-linecap="round" stroke-linejoin="round" d="M33.377 52.938h-2.628v4.815h2.628v-4.815Z" stroke-width="1"></path><path fill="#f7e5c6" d="M45.748 68.031c0.0237 0.1571 0.0781 0.308 0.1601 0.4441 0.0821 0.1361 0.1901 0.2547 0.318 0.3491 0.1278 0.0943 0.273 0.1625 0.4273 0.2008 0.1542 0.0382 0.3145 0.0457 0.4716 0.022 0.1571 -0.0237 0.308 -0.0782 0.4441 -0.1602s0.2547 -0.19 0.3491 -0.3179c0.0943 -0.1279 0.1625 -0.2731 0.2008 -0.4273 0.0382 -0.1543 0.0457 -0.3145 0.022 -0.4716l-1.089 -7.226H44.6l1.148 7.587Z" stroke-width="1"></path><path fill="#f7e5c6" stroke="#45413c" stroke-linecap="round" stroke-linejoin="round" d="M56.14 68.031c-0.0197 0.1606 -0.0714 0.3157 -0.152 0.4561 -0.0806 0.1403 -0.1886 0.2631 -0.3175 0.361 -0.1289 0.0979 -0.2761 0.1689 -0.4329 0.209 -0.1569 0.04 -0.3201 0.0482 -0.4802 0.0241 -0.16 -0.0241 -0.3136 -0.0801 -0.4517 -0.1646 -0.138 -0.0845 -0.2577 -0.1959 -0.352 -0.3274 -0.0943 -0.1316 -0.1613 -0.2807 -0.1969 -0.4386 -0.0357 -0.1579 -0.0394 -0.3213 -0.0108 -0.4806l1.089 -7.226h2.449l-1.144 7.587Z" stroke-width="1"></path><path stroke="#45413c" stroke-linecap="round" stroke-linejoin="round" d="M51.373 29.561c-1.664 -0.8 -9.452 0.73 -10.828 1.773 -0.215 -2.221 -3.324 -0.413 -5.483 -1.446 -1.755 -0.839 -3.274 -2.274 -4.94 -1.583 0.273 -2 -1.146 -2.576 -3.061 -3.491 -0.9715 -0.4666 -2.0727 -0.5892 -3.123 -0.3475 -1.0503 0.2416 -1.9872 0.8331 -2.6571 1.6774 -0.6699 0.8443 -1.0328 1.8912 -1.0294 2.9689 0.0035 1.0777 0.3732 2.1223 1.0485 2.9622 -0.5564 0.4683 -0.9633 1.0896 -1.1703 1.7868 -0.2069 0.6972 -0.205 1.4398 0.0058 2.1359 0.2107 0.6961 0.6209 1.3151 1.1798 1.7805 0.5589 0.4654 1.242 0.7566 1.9647 0.8378 -0.3539 0.7634 -0.399 1.634 -0.126 2.4299 0.2731 0.7958 0.8432 1.4554 1.5913 1.8407 0.748 0.3853 1.616 0.4665 2.4225 0.2268 0.8065 -0.2398 1.4892 -0.782 1.9052 -1.5134 0.1 0.056 0.2 0.117 0.31 0.168 1.2725 0.6083 2.7067 0.7918 4.0913 0.5236 1.3846 -0.2683 2.6465 -0.9741 3.5997 -2.0136 0.18 0.65 0.4969 1.2539 0.9294 1.7714 0.4326 0.5174 0.9708 0.9363 1.5786 1.2286 2.373 1.135 8.648 -0.654 9.783 -3.027 1.135 -2.373 4.381 -9.551 2.008 -10.69Z" stroke-width="1"></path><path fill="#f0d3a8" d="M63.581 45.197 51.966 36.04l-11.354 8.952v12.761h22.969V45.197Z" stroke-width="1"></path><path fill="#debb7e" d="m51.966 36.04 -11.354 8.952v2.578L51 39.377c0.2766 -0.2116 0.6152 -0.3262 0.9635 -0.3262 0.3483 0 0.6869 0.1146 0.9635 0.3262l10.651 8.4V45.2l-11.612 -9.16Z" stroke-width="1"></path><path stroke="#45413c" stroke-linecap="round" stroke-linejoin="round" d="M63.581 45.197 51.966 36.04l-11.354 8.952v12.761h22.969V45.197Z" stroke-width="1"></path><path fill="#ff6242" d="M53.493 33.07c-0.4387 -0.3343 -0.975 -0.5153 -1.5265 -0.5153s-1.0878 0.181 -1.5265 0.5153l-12.392 9.719c-0.171 0.1258 -0.3132 0.2867 -0.4171 0.4719 -0.1038 0.1853 -0.1669 0.3905 -0.1851 0.6021 -0.0182 0.2115 0.009 0.4245 0.0798 0.6248 0.0707 0.2002 0.1834 0.383 0.3304 0.5362 0.3179 0.3318 0.7493 0.5315 1.208 0.559 0.4623 0.0351 0.9212 -0.1025 1.288 -0.386l11.614 -9.157L63.58 45.2c0.3668 0.2835 0.8257 0.4211 1.288 0.386 0.4587 -0.0276 0.8901 -0.2272 1.208 -0.559 0.1471 -0.1532 0.2599 -0.3359 0.3307 -0.5361 0.0708 -0.2001 0.0981 -0.4131 0.08 -0.6247 -0.018 -0.2116 -0.0811 -0.4168 -0.1848 -0.6021 -0.1038 -0.1852 -0.2459 -0.3462 -0.4169 -0.4721L53.493 33.07Z" stroke-width="1"></path><path stroke="#45413c" stroke-linecap="round" stroke-linejoin="round" d="M53.493 33.07c-0.4387 -0.3343 -0.975 -0.5153 -1.5265 -0.5153s-1.0878 0.181 -1.5265 0.5153l-12.392 9.719c-0.171 0.1258 -0.3132 0.2867 -0.4171 0.4719 -0.1038 0.1853 -0.1669 0.3905 -0.1851 0.6021 -0.0182 0.2115 0.009 0.4245 0.0798 0.6248 0.0707 0.2002 0.1834 0.383 0.3304 0.5362 0.3179 0.3318 0.7493 0.5315 1.208 0.559 0.4623 0.0351 0.9212 -0.1025 1.288 -0.386l11.614 -9.157L63.58 45.2c0.3668 0.2835 0.8257 0.4211 1.288 0.386 0.4587 -0.0276 0.8901 -0.2272 1.208 -0.559 0.1471 -0.1532 0.2599 -0.3359 0.3307 -0.5361 0.0708 -0.2001 0.0981 -0.4131 0.08 -0.6247 -0.018 -0.2116 -0.0811 -0.4168 -0.1848 -0.6021 -0.1038 -0.1852 -0.2459 -0.3462 -0.4169 -0.4721L53.493 33.07Z" stroke-width="1"></path><path fill="#b89558" stroke="#45413c" stroke-linecap="round" stroke-linejoin="round" d="M49.7261 57.759h-6.345V52.32c-0.0075 -0.4214 0.069 -0.84 0.2251 -1.2315 0.1561 -0.3914 0.3885 -0.7479 0.6839 -1.0485 0.2953 -0.3006 0.6476 -0.5394 1.0362 -0.7024 0.3886 -0.163 0.8058 -0.247 1.2273 -0.247 0.4214 0 0.8386 0.084 1.2272 0.247 0.3886 0.163 0.7409 0.4018 1.0362 0.7024 0.2954 0.3006 0.5279 0.6571 0.6839 1.0485 0.1561 0.3915 0.2326 0.8101 0.2252 1.2315v5.439Z" stroke-width="1"></path><path stroke="#45413c" stroke-linecap="round" stroke-linejoin="round" d="M47.428 53.395v-1.058" stroke-width="1"></path><path fill="#00b8f0" stroke="#45413c" stroke-linecap="round" stroke-linejoin="round" d="M52.096 46.291c1.5901 0 2.879 -1.289 2.879 -2.879 0 -1.5901 -1.2889 -2.879 -2.879 -2.879 -1.59 0 -2.879 1.2889 -2.879 2.879 0 1.59 1.289 2.879 2.879 2.879Z" stroke-width="1"></path><path fill="#00b8f0" d="M60.882 49.147h-7.636v4.755h7.636v-4.755Z" stroke-width="1"></path><path fill="#4acfff" d="M53.246 49.147v4.755h0.598l4.754 -4.755h-5.352Z" stroke-width="1"></path><path stroke="#45413c" stroke-linecap="round" stroke-linejoin="round" d="M49.217 43.412h5.758" stroke-width="1"></path><path stroke="#45413c" stroke-linecap="round" stroke-linejoin="round" d="M52.096 40.533v5.758" stroke-width="1"></path><path stroke="#45413c" stroke-linecap="round" stroke-linejoin="round" d="M60.882 49.147h-7.636v4.755h7.636v-4.755Z" stroke-width="1"></path><path fill="#f0d3a8" d="m47.565 63.845 -0.513 -3.401h-2.448l0.513 3.401h2.448Z" stroke-width="1"></path><path stroke="#45413c" stroke-linecap="round" stroke-linejoin="round" d="M45.748 68.031c0.0237 0.1571 0.0781 0.308 0.1601 0.4441 0.0821 0.1361 0.1901 0.2547 0.318 0.3491 0.1278 0.0943 0.273 0.1625 0.4273 0.2008 0.1542 0.0382 0.3145 0.0457 0.4716 0.022 0.1571 -0.0237 0.308 -0.0782 0.4441 -0.1602s0.2547 -0.19 0.3491 -0.3179c0.0943 -0.1279 0.1625 -0.2731 0.2008 -0.4273 0.0382 -0.1543 0.0457 -0.3145 0.022 -0.4716l-1.089 -7.226H44.6l1.148 7.587Z" stroke-width="1"></path><path fill="#f0d3a8" d="m54.323 63.845 0.512 -3.401h2.449l-0.513 3.401h-2.448Z" stroke-width="1"></path><path stroke="#45413c" stroke-linecap="round" stroke-linejoin="round" d="M56.14 68.031c-0.0197 0.1606 -0.0714 0.3157 -0.152 0.4561 -0.0806 0.1403 -0.1886 0.2631 -0.3175 0.361 -0.1289 0.0979 -0.2761 0.1689 -0.4329 0.209 -0.1569 0.04 -0.3201 0.0482 -0.4802 0.0241 -0.16 -0.0241 -0.3136 -0.0801 -0.4517 -0.1646 -0.138 -0.0845 -0.2577 -0.1959 -0.352 -0.3274 -0.0943 -0.1316 -0.1613 -0.2807 -0.1969 -0.4386 -0.0357 -0.1579 -0.0394 -0.3213 -0.0108 -0.4806l1.089 -7.226h2.449l-1.144 7.587Z" stroke-width="1"></path><path fill="#6dd627" d="M31.172 21.167c0.7549 0.0041 1.4954 0.2069 2.147 0.588 0.3728 -1.7338 1.3287 -3.2874 2.7082 -4.4018 1.3795 -1.1144 3.0994 -1.7223 4.8728 -1.7222 0.3224 0.002 0.6444 0.0244 0.964 0.067 -0.0742 -0.4261 -0.113 -0.8576 -0.116 -1.29 -0.0011 -1.7456 0.5873 -3.4405 1.6698 -4.80988 1.0826 -1.36941 2.5958 -2.33313 4.2946 -2.73499 1.6987 -0.40185 3.4834 -0.21829 5.0647 0.52095 1.5814 0.73923 2.8668 1.99081 3.6479 3.55192 0.537 -0.5628 1.2156 -0.9706 1.9647 -1.18047 0.749 -0.20987 1.5407 -0.21409 2.2919 -0.01221 0.7512 0.20187 1.4342 0.60238 1.9771 1.15948 0.543 0.557 0.9258 1.25 1.1083 2.0062 0.8441 -0.4319 1.785 -0.6395 2.7325 -0.6031 0.9475 0.0364 1.8697 0.3157 2.6781 0.811 0.8085 0.4954 1.4761 1.1902 1.9388 2.0177 0.4627 0.8276 0.705 1.7602 0.7036 2.7084 -0.0017 0.3437 -0.0351 0.6865 -0.1 1.024 1.9426 0.0144 3.8088 0.7585 5.2284 2.0847 1.4196 1.3261 2.2888 3.1374 2.4352 5.0746 0.1464 1.9371 -0.4408 3.8585 -1.6449 5.3829 -1.2041 1.5245 -2.9373 2.5406 -4.8557 2.8468 -0.2285 0.7839 -0.7021 1.474 -1.3515 1.9691 -0.6494 0.495 -1.4403 0.7689 -2.2568 0.7816 -0.8164 0.0126 -1.6155 -0.2367 -2.2799 -0.7114 -0.6644 -0.4747 -1.1592 -1.1498 -1.4118 -1.9263h-28.8c-1.2919 -0.0006 -2.5431 -0.4526 -3.537 -1.278s-1.6681 -1.9722 -1.906 -3.242c-0.059 0 -0.114 0.017 -0.173 0.017 -1.1537 0 -2.2601 -0.4583 -3.0759 -1.2741 -0.8158 -0.8158 -1.2741 -1.9222 -1.2741 -3.0759s0.4583 -2.2601 1.2741 -3.0759c0.8158 -0.8158 1.9222 -1.2741 3.0759 -1.2741l0.005 0.001Z" stroke-width="1"></path><path fill="#9ceb60" d="M76.324 32.792c1.2929 -0.9742 2.2479 -2.3292 2.7306 -3.8743 0.4828 -1.5452 0.4691 -3.2028 -0.0392 -4.7397 -0.5082 -1.537 -1.4855 -2.8759 -2.7943 -3.8286 -1.3088 -0.9527 -2.8833 -1.4711 -4.5021 -1.4824 0.153 -0.8005 0.1271 -1.625 -0.0757 -2.4143 -0.2029 -0.7894 -0.5778 -1.5241 -1.0978 -2.1516 -0.52 -0.6276 -1.1723 -1.1324 -1.9103 -1.4783 -0.7379 -0.346 -1.5432 -0.5245 -2.3582 -0.5228 -0.8739 0.0003 -1.7353 0.2083 -2.513 0.607 -0.1825 -0.7562 -0.5654 -1.4492 -1.1083 -2.0063 -0.5429 -0.557 -1.2259 -0.95753 -1.9771 -1.1594 -0.7512 -0.20187 -1.5429 -0.19765 -2.292 0.01222 -0.749 0.20987 -1.4276 0.61768 -1.9646 1.18048 -0.7811 -1.56113 -2.0665 -2.81271 -3.6479 -3.55194s-3.366 -0.92279 -5.0647 -0.52094c-1.6988 0.40185 -3.212 1.36557 -4.2946 2.73498 -1.0825 1.3694 -1.6709 3.0643 -1.6698 4.8099 0.003 0.4324 0.0418 0.8639 0.116 1.29 -0.3196 -0.0426 -0.6416 -0.065 -0.964 -0.067 -1.7729 0.0006 -3.4921 0.6088 -4.871 1.7231 -1.3789 1.1143 -2.3343 2.6676 -2.707 4.4009 -0.6516 -0.3811 -1.3921 -0.5839 -2.147 -0.588 -1.1537 -0.0154 -2.2662 0.4281 -3.0929 1.233 -0.8267 0.805 -1.2997 1.9053 -1.3151 3.059 -0.0154 1.1537 0.4282 2.2662 1.2331 3.0929 0.8049 0.8266 1.9052 1.2997 3.0589 1.3151 -0.1316 -0.7091 -0.0568 -1.4411 0.2153 -2.109 0.2721 -0.6679 0.7302 -1.2437 1.3198 -1.659 0.5897 -0.4153 1.2861 -0.6526 2.0067 -0.6838 0.7205 -0.0312 1.4349 0.145 2.0582 0.5078 0.325 -1.5124 1.1586 -2.8678 2.3618 -3.84 1.2032 -0.9723 2.7033 -1.5028 4.2502 -1.503 0.2816 0.0021 0.5628 0.0214 0.842 0.058 -0.2676 -1.5949 0.0456 -3.2329 0.8828 -4.6165 0.8372 -1.3836 2.1429 -2.421 3.6799 -2.9239 1.5371 -0.5028 3.2035 -0.4378 4.6966 0.1834s2.7139 1.7573 3.4407 3.202c0.4682 -0.4929 1.0607 -0.8503 1.7151 -1.0347 0.6543 -0.1843 1.3463 -0.1887 2.003 -0.0127 0.6566 0.1759 1.2536 0.5258 1.7281 1.0127 0.4745 0.4869 0.8088 1.0927 0.9678 1.7537 0.8044 -0.413 1.7086 -0.5916 2.6096 -0.5155 0.901 0.0762 1.7624 0.404 2.4861 0.9462 0.7236 0.5421 1.2803 1.2767 1.6066 2.12 0.3263 0.8433 0.409 1.7613 0.2387 2.6493 1.784 0.014 3.4902 0.7324 4.7469 1.9988 1.2566 1.2664 1.9619 2.9781 1.9621 4.7622 -0.0035 0.9051 -0.1906 1.8002 -0.55 2.631Z" stroke-width="1"></path><path stroke="#45413c" stroke-linecap="round" stroke-linejoin="round" d="M31.172 21.167c0.7549 0.0041 1.4954 0.2069 2.147 0.588 0.3728 -1.7338 1.3287 -3.2874 2.7082 -4.4018 1.3795 -1.1144 3.0994 -1.7223 4.8728 -1.7222 0.3224 0.002 0.6444 0.0244 0.964 0.067 -0.0742 -0.4261 -0.113 -0.8576 -0.116 -1.29 -0.0011 -1.7456 0.5873 -3.4405 1.6698 -4.80988 1.0826 -1.36941 2.5958 -2.33313 4.2946 -2.73499 1.6987 -0.40185 3.4834 -0.21829 5.0647 0.52095 1.5814 0.73923 2.8668 1.99081 3.6479 3.55192 0.537 -0.5628 1.2156 -0.9706 1.9647 -1.18047 0.749 -0.20987 1.5407 -0.21409 2.2919 -0.01221 0.7512 0.20187 1.4342 0.60238 1.9771 1.15948 0.543 0.557 0.9258 1.25 1.1083 2.0062 0.8441 -0.4319 1.785 -0.6395 2.7325 -0.6031 0.9475 0.0364 1.8697 0.3157 2.6781 0.811 0.8085 0.4954 1.4761 1.1902 1.9388 2.0177 0.4627 0.8276 0.705 1.7602 0.7036 2.7084 -0.0017 0.3437 -0.0351 0.6865 -0.1 1.024 1.9426 0.0144 3.8088 0.7585 5.2284 2.0847 1.4196 1.3261 2.2888 3.1374 2.4352 5.0746 0.1464 1.9371 -0.4408 3.8585 -1.6449 5.3829 -1.2041 1.5245 -2.9373 2.5406 -4.8557 2.8468 -0.2285 0.7839 -0.7021 1.474 -1.3515 1.9691 -0.6494 0.495 -1.4403 0.7689 -2.2568 0.7816 -0.8164 0.0126 -1.6155 -0.2367 -2.2799 -0.7114 -0.6644 -0.4747 -1.1592 -1.1498 -1.4118 -1.9263h-28.8c-1.2919 -0.0006 -2.5431 -0.4526 -3.537 -1.278s-1.6681 -1.9722 -1.906 -3.242c-0.059 0 -0.114 0.017 -0.173 0.017 -1.1537 0 -2.2601 -0.4583 -3.0759 -1.2741 -0.8158 -0.8158 -1.2741 -1.9222 -1.2741 -3.0759s0.4583 -2.2601 1.2741 -3.0759c0.8158 -0.8158 1.9222 -1.2741 3.0759 -1.2741l0.005 0.001Z" stroke-width="1"></path><path stroke="#daedf7" stroke-miterlimit="10" d="M90 53.345c0 10.6086 -4.2143 20.7828 -11.7157 28.2842C70.7828 89.1307 60.6087 93.345 50 93.345c-10.6087 0 -20.7828 -4.2143 -28.2843 -11.7158C14.2143 74.1278 10 63.9536 10 53.345" stroke-width="1"></path><path stroke="#45413c" stroke-linecap="round" stroke-linejoin="round" d="M24.643 60.444v9.402" stroke-width="1"></path><path fill="#87898c" d="M24.643 69.846c-2.0586 0 -4.0709 0.6104 -5.7825 1.7541 -1.7116 1.1437 -3.0456 2.7693 -3.8333 4.6711 -0.7878 1.9019 -0.9938 3.9947 -0.5922 6.0136 0.4017 2.019 1.3931 3.8736 2.8488 5.3291 1.4557 1.4555 3.3103 2.4467 5.3293 2.8482 2.019 0.4015 4.1118 0.1952 6.0136 -0.5927 1.9017 -0.7879 3.5272 -2.1221 4.6707 -3.8338s1.7538 -3.7241 1.7536 -5.7826c-0.0003 -2.7602 -1.0969 -5.4073 -3.0488 -7.3589 -1.9518 -1.9517 -4.599 -3.0481 -7.3592 -3.0481Zm0 14.487c-0.807 0.0002 -1.5959 -0.2389 -2.267 -0.6871 -0.6711 -0.4482 -1.1942 -1.0854 -1.5032 -1.8309 -0.3089 -0.7455 -0.3899 -1.5659 -0.2325 -2.3574 0.1573 -0.7915 0.5458 -1.5186 1.1163 -2.0893 0.5706 -0.5707 1.2976 -0.9593 2.0891 -1.1169 0.7914 -0.1575 1.6118 -0.0767 2.3574 0.2321 0.7456 0.3087 1.3829 0.8317 1.8312 1.5026 0.4484 0.671 0.6877 1.4599 0.6877 2.2669 0.0001 0.5357 -0.1053 1.0662 -0.3102 1.5612 -0.2049 0.495 -0.5054 0.9448 -0.8842 1.3237 -0.3788 0.3789 -0.8285 0.6794 -1.3234 0.8845 -0.495 0.205 -1.0255 0.3106 -1.5612 0.3106Z" stroke-width="1"></path><path stroke="#45413c" stroke-linecap="round" stroke-linejoin="round" d="M24.642 84.333c-0.8069 0 -1.5958 -0.2393 -2.2667 -0.6876 -0.671 -0.4483 -1.1939 -1.0856 -1.5027 -1.8311 -0.3088 -0.7455 -0.3896 -1.5659 -0.2322 -2.3573 0.1574 -0.7914 0.546 -1.5184 1.1166 -2.089s1.2976 -0.9592 2.089 -1.1166c0.7915 -0.1575 1.6118 -0.0767 2.3574 0.2321 0.7455 0.3089 1.3827 0.8318 1.831 1.5027 0.4483 0.671 0.6876 1.4598 0.6876 2.2668 0.0001 0.5358 -0.1053 1.0664 -0.3103 1.5615 -0.205 0.495 -0.5055 0.9449 -0.8844 1.3238 -0.3789 0.3789 -0.8287 0.6794 -1.3238 0.8844 -0.495 0.205 -1.0257 0.3104 -1.5615 0.3103v0Z" stroke-width="1"></path><path fill="#87898c" d="M34.855 82.273c0.2967 -1.5088 0.2553 -3.0646 -0.121 -4.5555 -0.3764 -1.4909 -1.0784 -2.8799 -2.0557 -4.0671 -0.9772 -1.1872 -2.2054 -2.1431 -3.5961 -2.799 -1.3908 -0.6559 -2.9096 -0.9955 -4.4473 -0.9943 -1.5377 0.0011 -3.056 0.3429 -4.4458 1.0009 -1.3898 0.6579 -2.6165 1.6156 -3.592 2.8042 -0.9755 1.1887 -1.6755 2.5787 -2.0497 4.0701 -0.3742 1.4915 -0.4132 3.0473 -0.1144 4.5557 0.4678 -2.3618 1.7401 -4.4884 3.6 -6.0174 1.8599 -1.5289 4.1924 -2.3657 6.6001 -2.3677 2.4077 -0.002 4.7415 0.8309 6.604 2.3568 1.8625 1.5258 3.1382 3.6502 3.6099 6.0113" stroke-width="1"></path><path stroke="#45413c" stroke-linecap="round" stroke-linejoin="round" d="M24.642 69.846c-2.0585 0 -4.0709 0.6104 -5.7825 1.7541 -1.7116 1.1437 -3.0456 2.7693 -3.8333 4.6711 -0.7877 1.9019 -0.9938 3.9947 -0.5921 6.0136 0.4016 2.019 1.393 3.8736 2.8487 5.3291 1.4557 1.4555 3.3103 2.4467 5.3293 2.8482 2.019 0.4015 4.1118 0.1952 6.0136 -0.5927 1.9018 -0.7879 3.5272 -2.1221 4.6707 -3.8338 1.1436 -1.7117 1.7538 -3.7241 1.7536 -5.7826 0 -1.3668 -0.2692 -2.7201 -0.7923 -3.9828 -0.523 -1.2627 -1.2897 -2.41 -2.2562 -3.3764 -0.9665 -0.9664 -2.1138 -1.733 -3.3766 -2.2559 -1.2627 -0.523 -2.6161 -0.7921 -3.9829 -0.7919Z" stroke-width="1"></path></svg>