<svg viewBox="0 0 100 100" xmlns="http://www.w3.org/2000/svg" id="Vr-Robot-2--Streamline-Ux" height="100" width="100"><desc>Vr Robot 2 Streamline Illustration: https://streamlinehq.com</desc><path d="M2.986 50.252a40 40 0 1 0 80 0 40 40 0 1 0 -80 0Z" fill="#daedf7" stroke="#daedf7" stroke-width="1"></path><path d="M43.265 74.337a2.1 2.1 0 0 1 -0.955 -2.649 65.557 65.557 0 0 1 11.2 -18.433 2.1 2.1 0 0 1 3.19 2.728A62.159 62.159 0 0 0 46.2 73.28a2.1 2.1 0 0 1 -2.931 1.057Z" fill="#e0e0e0" stroke="#45413c" stroke-linecap="round" stroke-linejoin="round" stroke-width="1"></path><path d="M36.808 70.4c-0.728 2 1.37 2.552 3.874 3.462s4.465 1.839 5.194 -0.164 -0.71 -4.365 -3.214 -5.276 -5.125 -0.022 -5.854 1.978Z" fill="#87898c" stroke="#45413c" stroke-linecap="round" stroke-linejoin="round" stroke-width="1"></path><path d="M52.847 60.968a8.872 8.872 0 0 1 -1.878 -1.125 9.026 9.026 0 0 1 -1.476 -1.429" fill="none" stroke="#45413c" stroke-linecap="round" stroke-linejoin="round" stroke-width="1"></path><path d="M50.377 64.855a9.249 9.249 0 0 1 -3.588 -2.2" fill="none" stroke="#45413c" stroke-linecap="round" stroke-linejoin="round" stroke-width="1"></path><path d="M48.39 68.465a8.481 8.481 0 0 1 -2.51 -1.082 9.388 9.388 0 0 1 -1.194 -0.886" fill="none" stroke="#45413c" stroke-linecap="round" stroke-linejoin="round" stroke-width="1"></path><path d="M43.5 58.536a0.495 0.495 0 0 0 0.685 0.27 5.2 5.2 0 1 0 -7.359 -3.351 0.5 0.5 0 0 0 0.653 0.34l1.4 -0.525a0.5 0.5 0 0 0 0.312 -0.564 2.724 2.724 0 1 1 4 1.823 0.494 0.494 0 0 0 -0.221 0.6Z" fill="#87898c" stroke-width="1"></path><path d="M43.5 58.536a0.495 0.495 0 0 0 0.685 0.27 5.2 5.2 0 1 0 -7.359 -3.351 0.5 0.5 0 0 0 0.653 0.34l1.4 -0.525a0.5 0.5 0 0 0 0.312 -0.564 2.724 2.724 0 1 1 4 1.823 0.494 0.494 0 0 0 -0.221 0.6Z" fill="none" stroke="#45413c" stroke-linecap="round" stroke-linejoin="round" stroke-width="1"></path><path d="M89.251 26.794a0.495 0.495 0 0 0 -0.728 -0.111 5.2 5.2 0 1 0 7.918 1.646 0.5 0.5 0 0 0 -0.712 -0.188l-1.253 0.821a0.5 0.5 0 0 0 -0.179 0.619 2.724 2.724 0 1 1 -4.306 -0.9 0.494 0.494 0 0 0 0.082 -0.638Z" fill="#87898c" stroke-width="1"></path><path d="M89.251 26.794a0.495 0.495 0 0 0 -0.728 -0.111 5.2 5.2 0 1 0 7.918 1.646 0.5 0.5 0 0 0 -0.712 -0.188l-1.253 0.821a0.5 0.5 0 0 0 -0.179 0.619 2.724 2.724 0 1 1 -4.306 -0.9 0.494 0.494 0 0 0 0.082 -0.638Z" fill="none" stroke="#45413c" stroke-linecap="round" stroke-linejoin="round" stroke-width="1"></path><path d="M41.579 49.662a2.1 2.1 0 1 0 3.865 1.662A13.935 13.935 0 0 1 57.1 42.466a17.888 17.888 0 0 1 5.659 0.239 2.119 2.119 0 0 0 2.541 -1.544 2.014 2.014 0 0 0 -0.1 -1.271l-4.77 -1.748c-0.553 -0.031 -1.145 -0.032 -1.747 -0.017a18.46 18.46 0 0 0 -17.104 11.537Z" fill="#adc4d9" stroke="#45413c" stroke-linecap="round" stroke-linejoin="round" stroke-width="1"></path><path d="M69.626 46.291c0.055 0.02 0.111 0.038 0.169 0.054 5.415 1.473 17.077 1.181 22.451 -10.475a2.1 2.1 0 0 0 -3.814 -1.759c-5.213 11.307 -17.04 8.312 -17.54 8.18a2.1 2.1 0 0 0 -1.266 4Z" fill="#adc4d9" stroke="#45413c" stroke-linecap="round" stroke-linejoin="round" stroke-width="1"></path><path d="M59.405 80.208a2.1 2.1 0 0 0 2.435 -1.416 65.553 65.553 0 0 0 3.26 -21.319 2.1 2.1 0 0 0 -4.2 0.038 62.187 62.187 0 0 1 -3.064 20 2.1 2.1 0 0 0 1.364 2.643 2 2 0 0 0 0.205 0.054Z" fill="#adc4d9" stroke-width="1"></path><path d="M60.9 57.511a44.351 44.351 0 0 1 -0.128 4.867 6.7 6.7 0 0 0 4.293 -1.319c0.1 -2.127 0.036 -3.419 0.035 -3.586a2.1 2.1 0 0 0 -0.026 -0.309l-3.44 -1.264a2.1 2.1 0 0 0 -0.734 1.611Z" fill="#adc4d9" stroke-width="1"></path><path d="M59.405 80.208a2.1 2.1 0 0 0 2.435 -1.416 65.553 65.553 0 0 0 3.26 -21.319 2.1 2.1 0 0 0 -4.2 0.038 62.187 62.187 0 0 1 -3.064 20 2.1 2.1 0 0 0 1.364 2.643 2 2 0 0 0 0.205 0.054Z" fill="none" stroke="#45413c" stroke-linecap="round" stroke-linejoin="round" stroke-width="1"></path><path d="m64.0141744017 39.4579800467 0.8268677583 -2.2530622961 2.2530622961 0.8268677583 -0.8268677583 2.2530622961z" fill="#87898c" stroke="#45413c" stroke-linecap="round" stroke-linejoin="round" stroke-width="1"></path><path d="m66.282 56.174 -12.557 -4.608 4.793 -13.06a1 1 0 0 1 1.283 -0.595l10.68 3.92a1 1 0 0 1 0.594 1.283Z" fill="#ffffff" stroke="#45413c" stroke-linecap="round" stroke-linejoin="round" stroke-width="1"></path><path d="M66.282 56.174a6.688 6.688 0 0 1 -12.557 -4.608Z" fill="#daedf7" stroke="#45413c" stroke-linecap="round" stroke-linejoin="round" stroke-width="1"></path><path d="M66.389 46.175a1.2 1.2 0 0 1 -1.54 0.713l-4.025 -1.477a1.2 1.2 0 0 1 -0.713 -1.54L62 38.719l6.278 2.3Z" fill="#4acfff" stroke-width="1"></path><path d="m62 38.719 -1.891 5.152a1.193 1.193 0 0 0 -0.021 0.764l8.19 -3.612Z" fill="#4acfff" stroke-width="1"></path><path d="M66.389 46.175a1.2 1.2 0 0 1 -1.54 0.713l-4.025 -1.477a1.2 1.2 0 0 1 -0.713 -1.54L62 38.719l6.278 2.3Z" fill="none" stroke="#45413c" stroke-linecap="round" stroke-linejoin="round" stroke-width="1"></path><path d="M67.408 79.622c-0.026 2.131 -2.184 1.9 -4.848 1.871s-4.827 0.143 -4.8 -1.989 2.207 -3.833 4.871 -3.8 4.803 1.786 4.777 3.918Z" fill="#87898c" stroke="#45413c" stroke-linecap="round" stroke-linejoin="round" stroke-width="1"></path><path d="M60.653 63.808a9.269 9.269 0 0 0 4.211 0.2" fill="none" stroke="#45413c" stroke-linecap="round" stroke-linejoin="round" stroke-width="1"></path><path d="M60.048 68.373a9.282 9.282 0 0 0 4.164 0.619" fill="none" stroke="#45413c" stroke-linecap="round" stroke-linejoin="round" stroke-width="1"></path><path d="M59.251 72.416a8.478 8.478 0 0 0 2.619 0.783 9.271 9.271 0 0 0 1.484 0.088" fill="none" stroke="#45413c" stroke-linecap="round" stroke-linejoin="round" stroke-width="1"></path><path d="M89.938 39.757A3.966 3.966 0 0 0 86.61 37.2" fill="none" stroke="#45413c" stroke-linecap="round" stroke-linejoin="round" stroke-width="1"></path><path d="M85.023 44.229a3.973 3.973 0 0 0 -1.843 -3.578" fill="none" stroke="#45413c" stroke-linecap="round" stroke-linejoin="round" stroke-width="1"></path><path d="M79.37 46.477a3.97 3.97 0 0 0 -1.641 -3.977" fill="none" stroke="#45413c" stroke-linecap="round" stroke-linejoin="round" stroke-width="1"></path><path d="M73 46.893a3.965 3.965 0 0 0 1 -4.169" fill="none" stroke="#45413c" stroke-linecap="round" stroke-linejoin="round" stroke-width="1"></path><path d="M43.676 45.881a3.965 3.965 0 0 0 3.624 2.148" fill="none" stroke="#45413c" stroke-linecap="round" stroke-linejoin="round" stroke-width="1"></path><path d="M48.955 40.9a3.966 3.966 0 0 0 1.529 4" fill="none" stroke="#45413c" stroke-linecap="round" stroke-linejoin="round" stroke-width="1"></path><path d="m58.1502181911 34.768563654 4.0655105722 -11.1275798262 15.5787996114 5.6917834345 -4.0655105721 11.1275798262Z" fill="#00b8f0" stroke-width="1"></path><path d="M59.194 34.634a2.365 2.365 0 0 1 -0.231 -2.092l2.437 -6.676a2.37 2.37 0 0 1 3.039 -1.413l9.336 3.411Z" fill="#4acfff" stroke-width="1"></path><path d="m58.1502181911 34.768563654 4.0655105722 -11.1275798262 15.5787996114 5.6917834345 -4.0655105721 11.1275798262Z" fill="none" stroke="#45413c" stroke-linecap="round" stroke-linejoin="round" stroke-width="1"></path><path d="M65.746 32.487a1.252 1.252 0 0 1 -1.249 -1.3 1.2 1.2 0 0 1 -0.976 0.487 1.252 1.252 0 0 1 -1.134 -0.723 1.239 1.239 0 0 1 -0.04 -0.956 2.435 2.435 0 0 1 4.574 1.671 1.256 1.256 0 0 1 -1.175 0.821Z" fill="#ffffff" stroke="#009fd9" stroke-linecap="round" stroke-linejoin="round" stroke-width="1"></path><path d="M72.423 34.927a1.252 1.252 0 0 1 -1.133 -0.727 1.255 1.255 0 0 1 -0.117 -0.575 1.2 1.2 0 0 1 -0.975 0.486 1.226 1.226 0 0 1 -0.431 -0.078 1.248 1.248 0 0 1 -0.743 -1.6 2.437 2.437 0 0 1 3.122 -1.452A2.439 2.439 0 0 1 73.6 34.1a1.254 1.254 0 0 1 -1.177 0.827Z" fill="#ffffff" stroke="#009fd9" stroke-linecap="round" stroke-linejoin="round" stroke-width="1"></path><path d="M9.761 80.527a21 1.725 0 1 0 42 0 21 1.725 0 1 0 -42 0Z" fill="#45413c" opacity=".15" stroke-width="1"></path><path d="M40.986 82.527a13 1.725 0 1 0 26 0 13 1.725 0 1 0 -26 0Z" fill="#45413c" opacity=".15" stroke-width="1"></path><path d="m7.986 18.252 46 0 0 62 -46 0Z" fill="#b8ecff" stroke-width="1"></path><path d="M53.986 22.252v5a4 4 0 0 0 -4 -4h-38a4 4 0 0 0 -4 4v-5a4 4 0 0 1 4 -4h38a4 4 0 0 1 4 4Z" fill="#e5f8ff" stroke-width="1"></path><path d="m7.986 18.252 46 0 0 62 -46 0Z" fill="none" stroke="#45413c" stroke-width="1"></path><path d="M48.271 51.18a17.067 17.067 0 0 0 -11.61 -14.941 6.087 6.087 0 0 0 -2.1 -0.373h-1.667a0.5 0.5 0 0 1 -0.5 -0.5l0 -1.224a0.5 0.5 0 0 1 0.5 -0.5c3.619 0.012 3.911 0.2 4.787 -0.47l0.005 0.005c1.133 -0.869 0.877 -1.465 0.866 -8.444a2.223 2.223 0 0 0 -2.227 -2.221H25.3a2.223 2.223 0 0 0 -2.228 2.221c-0.01 6.979 -0.267 7.575 0.867 8.444l0 -0.005c0.876 0.67 1.169 0.482 4.788 0.47a0.505 0.505 0 0 1 0.355 0.146 0.5 0.5 0 0 1 0.146 0.355v1.224a0.5 0.5 0 0 1 -0.5 0.5H27.06a6.077 6.077 0 0 0 -2.1 0.373 17.066 17.066 0 0 0 -11.609 14.94c-5.012 1.777 -2.917 8.407 -1.683 7.35l1.054 -0.9a0.457 0.457 0 0 0 0.092 -0.589 2.508 2.508 0 0 1 1.105 -3.615 1.89 1.89 0 0 0 2.4 0.173 2.508 2.508 0 0 1 0.56 3.755 0.458 0.458 0 0 0 0 0.6l0.9 1.054a0.46 0.46 0 0 0 0.682 0.017 4.807 4.807 0 0 0 -1.231 -7.546 12.807 12.807 0 0 1 6.655 -10.453 0.5 0.5 0 0 1 0.745 0.435v8.379c0.011 0.339 0.027 0.565 0.051 0.749a2.975 2.975 0 0 1 -0.153 1.4 61.745 61.745 0 0 0 -3.423 15.969c-2.81 -0.462 -5.384 1.263 -5.38 3.509 0 1.976 2 1.787 4.474 1.783 2.333 0 4.227 0.137 4.43 -1.511a1.955 1.955 0 0 0 0.184 -0.754 61.174 61.174 0 0 1 2.437 -14.869 1 1 0 0 1 1.324 -0.647 6.1 6.1 0 0 0 4.468 0 1 1 0 0 1 1.324 0.647 61.223 61.223 0 0 1 2.437 14.869 1.936 1.936 0 0 0 0.183 0.754c0.2 1.648 2.1 1.507 4.43 1.511 2.47 0 4.472 0.193 4.475 -1.783 0 -2.246 -2.571 -3.971 -5.38 -3.509a61.788 61.788 0 0 0 -3.421 -15.973 2.962 2.962 0 0 1 -0.152 -1.4c0.024 -0.184 0.04 -0.41 0.05 -0.749v-8.382a0.5 0.5 0 0 1 0.745 -0.435 12.807 12.807 0 0 1 6.655 10.453 4.808 4.808 0 0 0 -1.231 7.546 0.46 0.46 0 0 0 0.682 -0.018l0.9 -1.054a0.459 0.459 0 0 0 0 -0.6A2.508 2.508 0 0 1 45.3 53.6a1.892 1.892 0 0 0 2.4 -0.173 2.508 2.508 0 0 1 1.1 3.615 0.457 0.457 0 0 0 0.092 0.589l1.054 0.9c1.241 1.056 3.337 -5.574 -1.675 -7.351Z" fill="#4acfff" stroke="#009fd9" stroke-linecap="round" stroke-linejoin="round" stroke-width="1"></path><path d="M53.986 66.252v10a4 4 0 0 1 -4 4h-38a4 4 0 0 1 -4 -4v-10Z" fill="#ffffff" stroke-width="1"></path><path d="M53.986 73.252v3a4 4 0 0 1 -4 4h-38a4 4 0 0 1 -4 -4v-3a4 4 0 0 0 4 4h38a4 4 0 0 0 4 -4Z" fill="#e5f8ff" stroke-width="1"></path><path d="M53.986 66.252v10a4 4 0 0 1 -4 4h-38a4 4 0 0 1 -4 -4v-10Z" fill="none" stroke="#45413c" stroke-width="1"></path><path d="M35.986 10.252h-10a4 4 0 0 0 -4 4v4h18v-4a4 4 0 0 0 -4 -4Zm-1 6h-8a1 1 0 0 1 0 -2h1.172a1 1 0 0 0 0.942 -0.665 2 2 0 0 1 3.771 0 1 1 0 0 0 0.943 0.665h1.172a1 1 0 0 1 0 2Z" fill="#f8f8f8" stroke="#45413c" stroke-linecap="round" stroke-linejoin="round" stroke-width="1"></path><path d="M18.174 69.855a0.659 0.659 0 0 1 -0.647 0.664 0.675 0.675 0 0 1 -0.648 -0.664 0.648 0.648 0 0 1 1.295 0Zm-1.223 1.735a0.579 0.579 0 1 1 1.151 0v3.07a0.579 0.579 0 1 1 -1.151 0Z" fill="#009fd9" stroke-width="1"></path><path d="M21.462 72.43a0.468 0.468 0 0 1 0.455 0.512 0.463 0.463 0 0 1 -0.455 0.5h-1.7a0.464 0.464 0 0 1 -0.456 -0.5 0.469 0.469 0 0 1 0.456 -0.512Z" fill="#009fd9" stroke-width="1"></path><path d="M23.167 70.183a0.566 0.566 0 0 1 0.616 -0.624h1.407c1.231 0 1.99 0.552 1.99 1.807a1.551 1.551 0 0 1 -1.48 1.511l1.36 1.455a0.519 0.519 0 0 1 0.159 0.353 0.606 0.606 0 0 1 -1.063 0.407l-1.775 -2.15h-0.016v1.734a0.6 0.6 0 1 1 -1.2 0Zm1.2 1.895h0.824a0.68 0.68 0 0 0 0.743 -0.712 0.67 0.67 0 0 0 -0.743 -0.7h-0.824Z" fill="#009fd9" stroke-width="1"></path><path d="M32.18 73.133a2.068 2.068 0 1 1 -4.125 0 2.069 2.069 0 1 1 4.125 0Zm-2.974 0c0 0.552 0.288 1.16 0.911 1.16s0.912 -0.608 0.912 -1.16 -0.28 -1.175 -0.912 -1.175 -0.911 0.623 -0.911 1.175Z" fill="#009fd9" stroke-width="1"></path><path d="M33.31 69.736a0.579 0.579 0 1 1 1.152 0V71.3a1.666 1.666 0 0 1 1.095 -0.4 2.255 2.255 0 0 1 -0.04 4.445 1.254 1.254 0 0 1 -1.055 -0.527 0.551 0.551 0 0 1 -0.576 0.479 0.582 0.582 0 0 1 -0.576 -0.64Zm2.056 4.557c0.6 0 0.9 -0.624 0.9 -1.16s-0.3 -1.175 -0.9 -1.175c-0.616 0 -0.9 0.575 -0.9 1.135s0.268 1.2 0.9 1.2Z" fill="#009fd9" stroke-width="1"></path><path d="M42.5 73.133a2.068 2.068 0 1 1 -4.126 0 2.069 2.069 0 1 1 4.126 0Zm-2.974 0c0 0.552 0.288 1.16 0.911 1.16s0.912 -0.608 0.912 -1.16 -0.28 -1.175 -0.912 -1.175 -0.911 0.623 -0.911 1.175Z" fill="#009fd9" stroke-width="1"></path><path d="M43.91 72.006h-0.255a0.467 0.467 0 0 1 -0.5 -0.5 0.492 0.492 0 0 1 0.5 -0.5h0.255v-0.687a0.579 0.579 0 1 1 1.152 0V71h0.327a0.506 0.506 0 1 1 0 1.008h-0.327v2.652a0.579 0.579 0 1 1 -1.152 0Z" fill="#009fd9" stroke-width="1"></path><path d="M41.115 19.527a9.779 9.779 0 1 0 19.558 0 9.779 9.779 0 1 0 -19.558 0Z" fill="#45413c" stroke-width="1"></path><path d="M43.9 26.365a9.78 9.78 0 0 1 13.985 -13.676Z" fill="#87898c" stroke-width="1"></path><path d="M49.684 14.954a1.387 1.387 0 0 0 -1.267 0.9l-1.349 3.622 -1.368 -3.663a1.376 1.376 0 0 0 -2.651 0.486 1.6 1.6 0 0 0 0.115 0.613l2.573 6.542a1.389 1.389 0 0 0 2.664 0l2.57 -6.537a1.6 1.6 0 0 0 0.116 -0.613 1.377 1.377 0 0 0 -1.403 -1.35Z" fill="#ffffff" stroke="#45413c" stroke-linecap="round" stroke-linejoin="round" stroke-width="1"></path><path d="m57.74 22.185 -1.429 -1.528a2.593 2.593 0 0 0 1.739 -2.481c0 -2.032 -1.215 -3.151 -3.42 -3.151h-2.064a1.321 1.321 0 0 0 -1.4 1.415v6.591a1.38 1.38 0 1 0 2.759 0v-1.182l1.745 2.114a1.39 1.39 0 0 0 2.443 -0.919 1.25 1.25 0 0 0 -0.373 -0.859Zm-2.769 -4.009c0 0.361 -0.2 0.544 -0.591 0.544h-0.459v-1.077h0.459c0.591 0 0.591 0.387 0.591 0.533Z" fill="#ffffff" stroke="#45413c" stroke-linecap="round" stroke-linejoin="round" stroke-width="1"></path><path d="M41.115 19.527a9.779 9.779 0 1 0 19.558 0 9.779 9.779 0 1 0 -19.558 0Z" fill="none" stroke="#45413c" stroke-linecap="round" stroke-linejoin="round" stroke-width="1"></path></svg>