<svg viewBox="0 0 100 100" xmlns="http://www.w3.org/2000/svg" id="Party-Mexicam--Streamline-Ux" height="100" width="100"><desc>Party Mexicam Streamline Illustration: https://streamlinehq.com</desc><path d="M10.134 49.295a40 40 0 1 0 80 0 40 40 0 1 0 -80 0Z" fill="#daedf7" stroke="#daedf7" stroke-width="1"></path><path d="M10.134 49.295a40 40 0 1 0 80 0 40 40 0 1 0 -80 0Z" fill="none" stroke="#daedf7" stroke-linecap="round" stroke-linejoin="round" stroke-width="1"></path><path d="M48.541 90.705a87.088 87.088 0 0 0 2.856 -9.8 10.275 10.275 0 0 0 1.043 0.445 10.57 10.57 0 0 0 11.927 -3.475l1.864 -2.4a4 4 0 0 0 -6.317 -4.909l-1.864 2.4a2.592 2.592 0 0 1 -4.639 -1.6l0.012 -3.594c0.132 -1.586 0.239 -3.174 0.293 -4.764 0.376 -11.143 -2.146 -27.173 -15.316 -29.95a12.809 12.809 0 0 0 -13.008 4.914c-4.548 5.95 -5.041 13.962 -3.72 21.229 -6.763 8.505 -6.657 15.692 0.343 21.93a10.573 10.573 0 0 0 4.589 2.39 27.453 27.453 0 0 1 -1.249 6.837" fill="#9ceb60" stroke-width="1"></path><path d="M48.541 90.705a87.088 87.088 0 0 0 2.856 -9.8 10.275 10.275 0 0 0 1.043 0.445 10.57 10.57 0 0 0 11.927 -3.475l1.864 -2.4a4 4 0 0 0 -6.317 -4.909l-1.864 2.4a2.592 2.592 0 0 1 -4.639 -1.6l0.012 -3.594c0.132 -1.586 0.239 -3.174 0.293 -4.764 0.376 -11.143 -2.146 -27.173 -15.316 -29.95a12.809 12.809 0 0 0 -13.008 4.914c-4.548 5.95 -5.041 13.962 -3.72 21.229 -6.763 8.505 -6.657 15.692 0.343 21.93a10.573 10.573 0 0 0 4.589 2.39 27.453 27.453 0 0 1 -1.249 6.837" fill="none" stroke="#6dd627" stroke-linecap="round" stroke-linejoin="round" stroke-width="1"></path><path d="M27.12 36.093a92.7 92.7 0 0 0 0.154 29.254A229 229 0 0 0 32.8 90.455" fill="none" stroke="#6dd627" stroke-linecap="round" stroke-linejoin="round" stroke-width="1"></path><path d="m42.417 34.455 0.068 0.119c0.344 0.608 0.688 1.217 1.016 1.834a50.972 50.972 0 0 1 5.287 18.444 129.792 129.792 0 0 1 0.289 19.282 120.752 120.752 0 0 1 -1.5 16.472" fill="none" stroke="#6dd627" stroke-linecap="round" stroke-linejoin="round" stroke-width="1"></path><path d="M33.57 32.944a115.845 115.845 0 0 0 -0.27 24.492c0.6 6.279 1.706 12.5 2.813 18.705l2.373 13.3 0.2 1.116" fill="none" stroke="#6dd627" stroke-linecap="round" stroke-linejoin="round" stroke-width="1"></path><path d="M38.151 33.008c5.52 17.861 6.049 36.792 6.534 55.455l0.018 0.692 0.039 1.5" fill="none" stroke="#6dd627" stroke-linecap="round" stroke-linejoin="round" stroke-width="1"></path><path d="M48.541 90.705a87.088 87.088 0 0 0 2.856 -9.8 10.275 10.275 0 0 0 1.043 0.445 10.57 10.57 0 0 0 11.927 -3.475l1.864 -2.4a4 4 0 0 0 -6.317 -4.909l-1.864 2.4a2.592 2.592 0 0 1 -4.639 -1.6l0.012 -3.594c0.132 -1.586 0.239 -3.174 0.293 -4.764 0.376 -11.143 -2.146 -27.173 -15.316 -29.95a12.809 12.809 0 0 0 -13.008 4.914c-4.548 5.95 -5.041 13.962 -3.72 21.229 -6.763 8.505 -6.657 15.692 0.343 21.93a10.573 10.573 0 0 0 4.589 2.39 27.453 27.453 0 0 1 -1.249 6.837" fill="none" stroke="#45413c" stroke-linecap="round" stroke-linejoin="round" stroke-width="1"></path><path d="M26.649 53.124a1.967 1.967 0 1 0 3.934 0 1.967 1.967 0 1 0 -3.934 0Z" fill="#e4ffd1" stroke-width="1"></path><path d="M44.387 49.563a1.967 1.967 0 1 0 3.934 0 1.967 1.967 0 1 0 -3.934 0Z" fill="#e4ffd1" stroke-width="1"></path><path d="M44.962 44.627a2.564 2.564 0 0 0 -4.64 0.931" fill="none" stroke="#45413c" stroke-linecap="round" stroke-linejoin="round" stroke-width="1"></path><path d="M32.61 47.107a2.564 2.564 0 0 0 -4.641 0.931" fill="none" stroke="#45413c" stroke-linecap="round" stroke-linejoin="round" stroke-width="1"></path><path d="M52.56 72.921a4.485 4.485 0 0 0 0.85 4.684 4.025 4.025 0 0 0 1.6 0.816 6.821 6.821 0 0 0 2.42 0.245 9.594 9.594 0 0 0 3.067 -0.856 13.259 13.259 0 0 0 6.303 -5.455" fill="none" stroke="#6dd627" stroke-linecap="round" stroke-linejoin="round" stroke-width="1"></path><path d="M22.428 61.35A14.6 14.6 0 0 0 19.337 71a11.847 11.847 0 0 0 4.736 8.83c4.321 3.087 10.773 2.43 14.72 -1.133" fill="none" stroke="#6dd627" stroke-linecap="round" stroke-linejoin="round" stroke-width="1"></path><path d="M37.437 74.233a11.846 11.846 0 0 1 -9.528 3.28c-5.2 -0.823 -6.74 -6.828 -4.753 -11.126a23.612 23.612 0 0 1 4.173 -5.787" fill="none" stroke="#6dd627" stroke-linecap="round" stroke-linejoin="round" stroke-width="1"></path><path d="M53.034 51.574a1.787 1.787 0 1 0 0.636 3.517c0.025 0 0.05 -0.01 0.075 -0.015a0.088 0.088 0 0 1 0.072 0.155l-0.006 0a5.264 5.264 0 0 1 -5.963 0.237c-1.956 -1.235 -4.653 -3.164 -6.855 -2.455 -1.52 0.489 -2.668 2.579 -2.668 2.579s-1.808 -1.555 -3.4 -1.481c-2.311 0.107 -4.161 2.859 -5.561 4.7a5.265 5.265 0 0 1 -5.668 1.867l-0.007 0a0.711 0.711 0 0 1 -0.263 -0.155 1.743 1.743 0 0 0 0.351 -0.028 1.787 1.787 0 1 0 -0.636 -3.517c-2.549 0.461 -2.2 3.783 0.594 5.8 3.224 2.319 9.5 2.933 15.057 -3.986l0.093 -0.116 0.127 0.076c7.627 4.535 13.293 1.76 15.5 -1.541 1.91 -2.865 1.071 -6.098 -1.478 -5.637Z" fill="#915e3a" stroke-width="1"></path><path d="M23.6 62.677a6 6 0 0 0 6.121 -1.9c1.4 -1.842 3.25 -4.594 5.56 -4.7 1.595 -0.074 3.4 1.481 3.4 1.481s1.149 -2.09 2.668 -2.579c2.2 -0.709 4.9 1.22 6.855 2.455a5.27 5.27 0 0 0 6.718 -0.922c1.356 -2.663 0.457 -5.36 -1.885 -4.936a1.787 1.787 0 1 0 0.636 3.517c0.025 0 0.05 -0.01 0.075 -0.015a0.088 0.088 0 0 1 0.072 0.155l-0.006 0a5.264 5.264 0 0 1 -5.963 0.237c-1.956 -1.235 -4.653 -3.164 -6.855 -2.455 -1.52 0.489 -2.668 2.579 -2.668 2.579s-1.808 -1.555 -3.4 -1.481c-2.311 0.107 -4.161 2.859 -5.561 4.7a5.265 5.265 0 0 1 -5.668 1.867l-0.007 0a0.711 0.711 0 0 1 -0.263 -0.155 1.743 1.743 0 0 0 0.351 -0.028 1.787 1.787 0 1 0 -0.636 -3.517c-2.549 0.461 -2.2 3.783 0.594 5.8" fill="#bf8256" stroke-width="1"></path><path d="M53.034 51.574a1.787 1.787 0 1 0 0.636 3.517c0.025 0 0.05 -0.01 0.075 -0.015a0.088 0.088 0 0 1 0.072 0.155l-0.006 0h0a5.264 5.264 0 0 1 -5.963 0.237c-1.956 -1.235 -4.653 -3.164 -6.855 -2.455 -1.52 0.489 -2.668 2.579 -2.668 2.579s-1.808 -1.555 -3.4 -1.481c-2.311 0.107 -4.161 2.859 -5.561 4.7a5.265 5.265 0 0 1 -5.668 1.867h0l-0.007 0a0.711 0.711 0 0 1 -0.263 -0.155 1.743 1.743 0 0 0 0.351 -0.028 1.787 1.787 0 1 0 -0.636 -3.517c-2.549 0.461 -2.2 3.783 0.594 5.8 3.224 2.319 9.5 2.933 15.057 -3.986l0.093 -0.116 0.127 0.076c7.627 4.535 13.293 1.76 15.5 -1.541 1.91 -2.865 1.071 -6.098 -1.478 -5.637Z" fill="none" stroke="#45413c" stroke-linecap="round" stroke-linejoin="round" stroke-width="1"></path><path d="M66.322 37.481a2.24 2.24 0 1 1 -2.24 -2.241 2.24 2.24 0 0 1 2.24 2.241Z" fill="none" stroke="#6dd627" stroke-linecap="round" stroke-linejoin="round" stroke-width="1"></path><path d="M77.522 35.24a2.24 2.24 0 1 1 -2.24 -2.24 2.24 2.24 0 0 1 2.24 2.24Z" fill="none" stroke="#6dd627" stroke-linecap="round" stroke-linejoin="round" stroke-width="1"></path><path d="M66.322 37.481v-9.268a1.2 1.2 0 0 1 0.754 -1.114l8.8 -3.52a1.2 1.2 0 0 1 1.646 1.114V35.24" fill="none" stroke="#6dd627" stroke-linecap="round" stroke-linejoin="round" stroke-width="1"></path><path d="M82.342 19.658a1.875 1.875 0 1 0 3.75 0 1.875 1.875 0 1 0 -3.75 0Z" fill="none" stroke="#ff6242" stroke-linecap="round" stroke-linejoin="round" stroke-width="1"></path><path d="m86.092 19.658 0 -8.438 2.812 1.875" fill="none" stroke="#ff6242" stroke-linecap="round" stroke-linejoin="round" stroke-width="1"></path><path d="M69.542 52.02a1.2 1.2 0 1 1 -1.2 -1.2 1.2 1.2 0 0 1 1.2 1.2Z" fill="none" stroke="#ffaa54" stroke-linecap="round" stroke-linejoin="round" stroke-width="1"></path><path d="m69.542 52.02 0 -5.4 1.8 1.2" fill="none" stroke="#ffaa54" stroke-linecap="round" stroke-linejoin="round" stroke-width="1"></path><path d="m83.442 43.921 0 -0.9" fill="none" stroke="#00b8f0" stroke-linecap="round" stroke-linejoin="round" stroke-width="1"></path><path d="m85.351 44.712 0.637 -0.637" fill="none" stroke="#00b8f0" stroke-linecap="round" stroke-linejoin="round" stroke-width="1"></path><path d="m86.142 46.621 0.9 0" fill="none" stroke="#00b8f0" stroke-linecap="round" stroke-linejoin="round" stroke-width="1"></path><path d="m85.351 48.53 0.637 0.636" fill="none" stroke="#00b8f0" stroke-linecap="round" stroke-linejoin="round" stroke-width="1"></path><path d="m83.442 49.32 0 0.9" fill="none" stroke="#00b8f0" stroke-linecap="round" stroke-linejoin="round" stroke-width="1"></path><path d="m81.532 48.53 -0.636 0.636" fill="none" stroke="#00b8f0" stroke-linecap="round" stroke-linejoin="round" stroke-width="1"></path><path d="m80.741 46.621 -0.899 0" fill="none" stroke="#00b8f0" stroke-linecap="round" stroke-linejoin="round" stroke-width="1"></path><path d="m81.532 44.712 -0.636 -0.637" fill="none" stroke="#00b8f0" stroke-linecap="round" stroke-linejoin="round" stroke-width="1"></path><path d="m74.242 20.921 0 -2.4" fill="none" stroke="#00aed9" stroke-linecap="round" stroke-linejoin="round" stroke-width="1"></path><path d="m73.042 19.72 2.4 0" fill="none" stroke="#00aed9" stroke-linecap="round" stroke-linejoin="round" stroke-width="1"></path><path d="m61.942 49.02 0 -4.8" fill="none" stroke="#00aed9" stroke-linecap="round" stroke-linejoin="round" stroke-width="1"></path><path d="m59.542 46.62 4.8 0" fill="none" stroke="#00aed9" stroke-linecap="round" stroke-linejoin="round" stroke-width="1"></path><path d="m84.642 33.22 0 -2.4" fill="none" stroke="#00aed9" stroke-linecap="round" stroke-linejoin="round" stroke-width="1"></path><path d="m83.443 32.021 2.399 0" fill="none" stroke="#00aed9" stroke-linecap="round" stroke-linejoin="round" stroke-width="1"></path><path d="m73.217 68.242 0.868 2.452" fill="none" stroke="#45413c" stroke-linecap="round" stroke-linejoin="round" stroke-width="1"></path><path d="M40.136 86.358a1.718 1.718 0 0 1 1.777 -0.694 6.162 6.162 0 0 0 3.386 -0.186c4.061 -1.438 5.8 -6.993 3.883 -12.408s-6.762 -8.64 -10.823 -7.2a6.156 6.156 0 0 0 -2.749 1.985 1.72 1.72 0 0 1 -1.818 0.578 8.231 8.231 0 0 0 -5.527 0.09c-5.867 2.076 -7.3 7.936 -5.229 13.8s6.881 9.518 12.747 7.442a8.232 8.232 0 0 0 4.353 -3.407Z" fill="#bf8256" stroke-width="1"></path><path d="M49.752 75.206c-2.27 -4.2 -6.4 -6.507 -9.947 -5.253a6.159 6.159 0 0 0 -2.75 1.985 1.715 1.715 0 0 1 -1.818 0.578 8.238 8.238 0 0 0 -5.527 0.09c-5.171 1.83 -6.9 6.6 -5.814 11.724a16.328 16.328 0 0 1 -0.86 -2.007c-2.076 -5.866 -0.638 -11.726 5.229 -13.8a8.231 8.231 0 0 1 5.527 -0.09 1.72 1.72 0 0 0 1.818 -0.578 6.156 6.156 0 0 1 2.749 -1.985c4.061 -1.438 8.907 1.787 10.823 7.2a13.684 13.684 0 0 1 0.57 2.136Z" fill="#e09f7e" stroke-width="1"></path><path d="M40.136 86.358a1.718 1.718 0 0 1 1.777 -0.694 6.162 6.162 0 0 0 3.386 -0.186c4.061 -1.438 5.8 -6.993 3.883 -12.408s-6.762 -8.64 -10.823 -7.2a6.156 6.156 0 0 0 -2.749 1.985 1.72 1.72 0 0 1 -1.818 0.578 8.231 8.231 0 0 0 -5.527 0.09c-5.867 2.076 -7.3 7.936 -5.229 13.8s6.881 9.518 12.747 7.442a8.232 8.232 0 0 0 4.353 -3.407Z" fill="none" stroke="#45413c" stroke-linecap="round" stroke-linejoin="round" stroke-width="1"></path><path d="m28.416 76.742 2.313 6.537" fill="none" stroke="#45413c" stroke-linecap="round" stroke-linejoin="round" stroke-width="1"></path><path d="m37.1651745206 75.4840568043 27.7805901487 -9.8316210255 1.1566809221 3.2683601766 -27.7805901487 9.8316210256z" fill="#915e3a" stroke="#45413c" stroke-linecap="round" stroke-linejoin="round" stroke-width="1"></path><path d="m64.3672748609 64.018116522 8.1703786207 -2.8916780929 2.3134759313 6.5366799765 -8.1703786208 2.891678093Z" fill="#915e3a" stroke="#45413c" stroke-linecap="round" stroke-linejoin="round" stroke-width="1"></path><path d="m70.037 59.254 0.867 2.452" fill="none" stroke="#45413c" stroke-linecap="round" stroke-linejoin="round" stroke-width="1"></path><path d="m67.585 60.122 0.868 2.451" fill="none" stroke="#45413c" stroke-linecap="round" stroke-linejoin="round" stroke-width="1"></path><path d="m65.134 60.989 0.867 2.451" fill="none" stroke="#45413c" stroke-linecap="round" stroke-linejoin="round" stroke-width="1"></path><path d="m70.766 69.11 0.867 2.451" fill="none" stroke="#45413c" stroke-linecap="round" stroke-linejoin="round" stroke-width="1"></path><path d="m68.315 69.977 0.867 2.451" fill="none" stroke="#45413c" stroke-linecap="round" stroke-linejoin="round" stroke-width="1"></path><path d="M40.983 79.47a3.467 3.467 0 1 1 2.117 -4.425 3.467 3.467 0 0 1 -2.117 4.425Z" fill="#45413c" stroke="#45413c" stroke-linecap="round" stroke-linejoin="round" stroke-width="1"></path><path d="M17.867 65.388C15.4 71.27 16.78 76.466 22.015 81.131a10.573 10.573 0 0 0 4.589 2.39v0.01a10.571 10.571 0 0 0 7.771 -1.145L37 80.863a4 4 0 1 0 -4.013 -6.921l-2.628 1.524a2.586 2.586 0 0 1 -3.024 -0.307c-1.908 -1.7 -3.866 -3.445 -1.711 -7.588" fill="#9ceb60" stroke-width="1"></path><path d="M20.024 65.88a13.653 13.653 0 0 0 -0.687 5.12 11.847 11.847 0 0 0 4.736 8.83c4.32 3.086 10.77 2.431 14.717 -1.13" fill="none" stroke="#6dd627" stroke-linecap="round" stroke-linejoin="round" stroke-width="1"></path><path d="M37.437 74.233a11.847 11.847 0 0 1 -9.528 3.28c-5.2 -0.823 -6.74 -6.828 -4.753 -11.126" fill="none" stroke="#6dd627" stroke-linecap="round" stroke-linejoin="round" stroke-width="1"></path><path d="M18.576 63.88c-3.381 6.506 -2.24 12.191 3.439 17.251a10.573 10.573 0 0 0 4.589 2.39v0.01a10.571 10.571 0 0 0 7.771 -1.145L37 80.863a4 4 0 1 0 -4.013 -6.921l-2.628 1.524a2.586 2.586 0 0 1 -3.024 -0.307c-1.908 -1.7 -3.866 -3.445 -1.711 -7.588" fill="none" stroke="#45413c" stroke-linecap="round" stroke-linejoin="round" stroke-width="1"></path><path d="M54.67 73.6a2.531 2.531 0 0 0 0.461 0.218 2.586 2.586 0 0 0 2.919 -0.85l1.864 -2.4a4 4 0 0 1 6.317 4.909l-1.864 2.4a10.572 10.572 0 0 1 -6.1 3.852c-0.186 0.041 -0.373 0.076 -0.561 0.107" fill="#9ceb60" stroke-width="1"></path><path d="M52.285 75.205a3.787 3.787 0 0 0 1.125 2.4 4.025 4.025 0 0 0 1.6 0.816 6.821 6.821 0 0 0 2.42 0.245 9.594 9.594 0 0 0 3.067 -0.856 13.259 13.259 0 0 0 6.303 -5.455" fill="none" stroke="#6dd627" stroke-linecap="round" stroke-linejoin="round" stroke-width="1"></path><path d="M55.044 73.907a3.359 3.359 0 0 0 2.589 0.831 7.74 7.74 0 0 0 3.374 -1.408 9.466 9.466 0 0 0 3.817 -3.905" fill="none" stroke="#6dd627" stroke-linecap="round" stroke-linejoin="round" stroke-width="1"></path><path d="M54.67 73.6a2.531 2.531 0 0 0 0.461 0.218 2.586 2.586 0 0 0 2.919 -0.85l1.864 -2.4a4 4 0 0 1 6.317 4.909l-1.864 2.4a10.572 10.572 0 0 1 -6.1 3.852c-0.186 0.041 -0.373 0.076 -0.561 0.107" fill="none" stroke="#45413c" stroke-linecap="round" stroke-linejoin="round" stroke-width="1"></path><path d="M22.9 26.526a23.36 23.36 0 0 0 0.488 7.643c0.116 0.511 0.252 1.007 0.4 1.5a160.929 160.929 0 0 1 18.581 -4.125c-0.084 -0.529 -0.177 -1.061 -0.3 -1.6a23.352 23.352 0 0 0 -2.85 -7.109Z" fill="#ebcb00" stroke-width="1"></path><path d="M42.363 31.541c-0.084 -0.529 -0.177 -1.061 -0.3 -1.6 -1.893 -8.365 -7.609 -14.2 -12.767 -13.034s-7.8 8.9 -5.912 17.26c0.116 0.511 0.252 1.007 0.4 1.5a160.929 160.929 0 0 1 18.579 -4.126Z" fill="#ffe500" stroke-width="1"></path><path d="M42.363 31.541c-0.084 -0.529 -0.177 -1.061 -0.3 -1.6 -1.893 -8.365 -7.609 -14.2 -12.767 -13.034s-7.8 8.9 -5.912 17.26c0.116 0.511 0.252 1.007 0.4 1.5a160.929 160.929 0 0 1 18.579 -4.126Z" fill="none" stroke="#45413c" stroke-linecap="round" stroke-linejoin="round" stroke-width="1"></path><path d="M22.944 31.614a20.589 20.589 0 0 1 0.537 -8.088L37.4 20.378a20.56 20.56 0 0 1 3.967 7.069Z" fill="#ffaa54" stroke-width="1"></path><path d="M22.9 26.525a17.759 17.759 0 0 1 0.583 -3L37.4 20.378a17.586 17.586 0 0 1 1.818 2.456Z" fill="#ffcc99" stroke-width="1"></path><path d="M22.944 31.614a20.589 20.589 0 0 1 0.537 -8.088L37.4 20.378a20.56 20.56 0 0 1 3.967 7.069Z" fill="none" stroke="#45413c" stroke-linecap="round" stroke-linejoin="round" stroke-width="1"></path><path d="m22.787 28.069 1.027 0.23a4.68 4.68 0 0 0 4.613 -1.557l0.06 -0.071a4.689 4.689 0 0 1 5.534 -1.252h0a4.7 4.7 0 0 0 5.784 -1.567" fill="none" stroke="#45413c" stroke-linecap="round" stroke-linejoin="round" stroke-width="1"></path><path d="M54.581 38.314a155.654 155.654 0 0 0 -38.888 8.8A2.976 2.976 0 0 1 12.1 45.7l-1.775 -3.088a3.221 3.221 0 0 1 1.491 -4.669 199.97 199.97 0 0 1 42.26 -9.509A3.221 3.221 0 0 1 57.48 32l-0.267 3.492a2.975 2.975 0 0 1 -2.632 2.822Z" fill="#fff48c" stroke-width="1"></path><path d="M57.256 34.925A265.879 265.879 0 0 0 11.759 45.1l-1.431 -2.489a3.5 3.5 0 0 1 -0.384 -1 269.11 269.11 0 0 1 47.466 -10.62A3.459 3.459 0 0 1 57.48 32Z" fill="#ff6242" stroke-width="1"></path><path d="M15.352 43.971a50.958 50.958 0 0 1 3.036 -4.927l4.767 2.69" fill="#6dd627" stroke="#45413c" stroke-linecap="round" stroke-linejoin="round" stroke-width="1"></path><path d="m25.986 40.992 4.229 -5.011 5.955 2.624" fill="#6dd627" stroke="#45413c" stroke-linecap="round" stroke-linejoin="round" stroke-width="1"></path><path d="m48.441 36.27 2.986 -4.397 4.002 3.309" fill="#6dd627" stroke="#45413c" stroke-linecap="round" stroke-linejoin="round" stroke-width="1"></path><path d="m38.337 38.152 3.637 -4.653 4.606 3.09" fill="#6dd627" stroke="#45413c" stroke-linecap="round" stroke-linejoin="round" stroke-width="1"></path><path d="M57.256 34.925A265.879 265.879 0 0 0 11.759 45.1l-1.431 -2.489a3.5 3.5 0 0 1 -0.384 -1 269.11 269.11 0 0 1 47.466 -10.62A3.459 3.459 0 0 1 57.48 32Z" fill="none" stroke="#45413c" stroke-linecap="round" stroke-linejoin="round" stroke-width="1"></path><path d="M54.581 38.314a155.654 155.654 0 0 0 -38.888 8.8A2.976 2.976 0 0 1 12.1 45.7l-1.775 -3.088a3.221 3.221 0 0 1 1.491 -4.669 199.97 199.97 0 0 1 42.26 -9.509A3.221 3.221 0 0 1 57.48 32l-0.267 3.492a2.975 2.975 0 0 1 -2.632 2.822Z" fill="none" stroke="#45413c" stroke-linecap="round" stroke-linejoin="round" stroke-width="1"></path></svg>