<svg width="683" height="683" viewBox="0 0 683 683" fill="none" xmlns="http://www.w3.org/2000/svg">
<g clip-path="url(#clip0_133_2)">
<path d="M310.667 1.33327C192 12.7999 87.8667 84.2666 36 190C14.5334 233.6 4.53338 270.8 1.06671 319.733C-2.13329 364.4 5.06671 415.6 20.6667 458.133C27.8667 477.867 45.2 512 56.8 529.333C89.0667 577.6 132.933 617.333 182.8 643.2C214.8 659.867 244.8 670.267 279.333 676.667C390.133 697.067 501.333 663.067 581.2 584.133C634 531.867 668.267 464.267 679.333 390.667C683.867 360.533 683.2 317.067 677.867 285.067C674.8 267.467 667.6 239.867 662 224.533C654.933 205.333 637.6 170.8 626.8 154.667C599.733 114 562.933 77.8666 523.2 52.6666C508.133 43.0666 475.2 26.9333 458.133 20.6666C440.133 13.9999 412.133 6.93327 391.333 3.86661C371.2 0.79994 329.733 -0.40006 310.667 1.33327ZM267.733 175.6L296.667 146.667L312.667 162.667L328.667 178.667L299.6 207.733L270.667 236.667L300 266L329.333 295.333L313.333 311.333L297.333 327.333L268 298L238.667 268.667L209.333 298L180 327.333L164.4 311.6L148.667 296L178 266.667L207.333 237.333L178 208L148.667 178.667L164.667 162.667L180.667 146.667L209.6 175.6L238.667 204.667L267.733 175.6ZM465.867 150.667C481.6 154.667 493.733 161.6 506.133 174C528.267 195.867 537.2 224.133 531.467 253.333C522.267 299.867 479.067 331.6 433.467 325.333C402.8 321.2 377.867 303.6 364.667 277.067C351.6 250.533 351.467 224.133 364.267 197.467C371.867 181.467 388 165.333 404 157.467C423.6 147.867 445.6 145.467 465.867 150.667ZM261.733 359.467C289.6 366.667 314.533 390.267 323.467 417.733C342.667 477.333 296.8 537.6 234.8 534.267C175.867 531.2 136.4 474.667 154.133 418.667C168.4 373.6 215.733 347.6 261.733 359.467ZM414.933 384.933L444 414L473.333 384.667L502.667 355.333L518 370.667C526.4 379.067 533.333 386.533 533.333 387.333C533.333 388.133 520.4 401.6 504.667 417.333L476 446L504.933 474.933L534 504L518 520L502 536L472.667 506.667L443.333 477.333L414.4 506.267L385.333 535.333L369.733 519.6L354 504L383.067 474.933L412 446L383.333 417.333C367.6 401.6 354.667 388.133 354.667 387.333C354.667 386 384 356 385.333 356C385.733 356 399.067 369.067 414.933 384.933Z" fill="url(#paint0_linear_133_2)"/>
<path d="M436.933 193.467C421.6 195.733 408 206.667 402.533 221.2C400.267 227.2 399.867 230.667 400.267 239.333C401.067 252.4 404.8 260.8 414 269.2C423.333 277.733 430.533 280.667 443.333 280.667C452.8 280.667 455.067 280.133 462.933 276.267C472.667 271.467 479.333 264.8 484.267 254.8C488.8 245.6 488.667 228.8 483.867 218.667C475.467 200.667 456.533 190.667 436.933 193.467Z" fill="#3301FA"/>
<path d="M225.733 403.2C198.933 412 186.8 442.267 200.267 466.8C218.533 500.4 268.133 496 280.533 459.6C287.467 439.2 277.333 415.2 257.733 406C248.667 401.6 234.133 400.4 225.733 403.2Z" fill="#4A01F3"/>
</g>
<defs>
<linearGradient id="paint0_linear_133_2" x1="341.332" y1="682.468" x2="341.332" y2="0.535095" gradientUnits="userSpaceOnUse">
<stop stop-color="#5F00ED"/>
<stop offset="1" stop-color="#2301FF"/>
</linearGradient>
<clipPath id="clip0_133_2">
<rect width="682.667" height="682.667" fill="white"/>
</clipPath>
</defs>
</svg>
