<svg width="100" height="100" viewBox="0 0 100 100" fill="none" xmlns="http://www.w3.org/2000/svg">
<path d="M10 56.097C10 66.7056 14.2143 76.8798 21.7157 84.3813C29.2172 91.8827 39.3913 96.097 50 96.097C60.6087 96.097 70.7828 91.8827 78.2843 84.3813C85.7857 76.8798 90 66.7056 90 56.097C90 45.4883 85.7857 35.3142 78.2843 27.8127C70.7828 20.3113 60.6087 16.097 50 16.097C39.3913 16.097 29.2172 20.3113 21.7157 27.8127C14.2143 35.3142 10 45.4883 10 56.097Z" fill="#DAEDF7" stroke="#DAEDF7"/>
<path d="M59.113 77.367L71.153 56.416" stroke="#45413C" stroke-linecap="round" stroke-linejoin="round"/>
<path d="M53.548 77.367C53.548 78.8429 54.1343 80.2584 55.1779 81.302C56.2216 82.3457 57.637 82.932 59.113 82.932C60.5889 82.932 62.0044 82.3457 63.048 81.302C64.0917 80.2584 64.678 78.8429 64.678 77.367C64.678 75.8911 64.0917 74.4756 63.048 73.432C62.0044 72.3883 60.5889 71.802 59.113 71.802C57.637 71.802 56.2216 72.3883 55.1779 73.432C54.1343 74.4756 53.548 75.8911 53.548 77.367Z" fill="#FF6242" stroke="#45413C" stroke-linecap="round" stroke-linejoin="round"/>
<path d="M71.153 56.416L50 37.393" stroke="#45413C" stroke-linecap="round" stroke-linejoin="round"/>
<path d="M83.194 77.367L71.153 56.416" stroke="#45413C" stroke-linecap="round" stroke-linejoin="round"/>
<path d="M65.588 56.416C65.588 57.1468 65.732 57.8705 66.0116 58.5457C66.2913 59.2208 66.7012 59.8343 67.218 60.3511C67.7347 60.8678 68.3482 61.2777 69.0234 61.5574C69.6986 61.8371 70.4222 61.981 71.153 61.981C71.8838 61.981 72.6075 61.8371 73.2826 61.5574C73.9578 61.2777 74.5713 60.8678 75.0881 60.3511C75.6048 59.8343 76.0147 59.2208 76.2944 58.5457C76.5741 57.8705 76.718 57.1468 76.718 56.416C76.718 55.6852 76.5741 54.9616 76.2944 54.2864C76.0147 53.6112 75.6048 52.9977 75.0881 52.481C74.5713 51.9642 73.9578 51.5543 73.2826 51.2746C72.6075 50.995 71.8838 50.851 71.153 50.851C70.4222 50.851 69.6986 50.995 69.0234 51.2746C68.3482 51.5543 67.7347 51.9642 67.218 52.481C66.7012 52.9977 66.2913 53.6112 66.0116 54.2864C65.732 54.9616 65.588 55.6852 65.588 56.416Z" fill="#FFAA54" stroke="#45413C" stroke-linecap="round" stroke-linejoin="round"/>
<path d="M77.629 77.367C77.629 78.0978 77.773 78.8215 78.0526 79.4966C78.3323 80.1718 78.7422 80.7853 79.259 81.302C79.7757 81.8188 80.3892 82.2287 81.0644 82.5084C81.7396 82.7881 82.4632 82.932 83.194 82.932C83.9248 82.932 84.6485 82.7881 85.3237 82.5084C85.9988 82.2287 86.6123 81.8188 87.1291 81.302C87.6458 80.7853 88.0558 80.1718 88.3354 79.4966C88.6151 78.8215 88.759 78.0978 88.759 77.367C88.759 76.6362 88.6151 75.9125 88.3354 75.2374C88.0558 74.5622 87.6458 73.9487 87.1291 73.432C86.6123 72.9152 85.9988 72.5053 85.3237 72.2256C84.6485 71.9459 83.9248 71.802 83.194 71.802C82.4632 71.802 81.7396 71.9459 81.0644 72.2256C80.3892 72.5053 79.7757 72.9152 79.259 73.432C78.7422 73.9487 78.3323 74.5622 78.0526 75.2374C77.773 75.9125 77.629 76.6362 77.629 77.367Z" fill="#FF6242" stroke="#45413C" stroke-linecap="round" stroke-linejoin="round"/>
<path d="M40.887 77.367L28.847 56.416" stroke="#45413C" stroke-linecap="round" stroke-linejoin="round"/>
<path d="M35.322 77.367C35.322 78.8429 35.9083 80.2584 36.952 81.302C37.9956 82.3457 39.4111 82.932 40.887 82.932C42.363 82.932 43.7784 82.3457 44.8221 81.302C45.8657 80.2584 46.452 78.8429 46.452 77.367C46.452 75.8911 45.8657 74.4756 44.8221 73.432C43.7784 72.3883 42.363 71.802 40.887 71.802C39.4111 71.802 37.9956 72.3883 36.952 73.432C35.9083 74.4756 35.322 75.8911 35.322 77.367Z" fill="#FF6242" stroke="#45413C" stroke-linecap="round" stroke-linejoin="round"/>
<path d="M28.847 56.416L50 37.393" stroke="#45413C" stroke-linecap="round" stroke-linejoin="round"/>
<path d="M16.806 77.367L28.847 56.416" stroke="#45413C" stroke-linecap="round" stroke-linejoin="round"/>
<path d="M23.282 56.416C23.282 57.8919 23.8683 59.3074 24.9119 60.3511C25.9556 61.3947 27.3711 61.981 28.847 61.981C30.3229 61.981 31.7384 61.3947 32.782 60.3511C33.8257 59.3074 34.412 57.8919 34.412 56.416C34.412 54.9401 33.8257 53.5246 32.782 52.481C31.7384 51.4373 30.3229 50.851 28.847 50.851C27.3711 50.851 25.9556 51.4373 24.9119 52.481C23.8683 53.5246 23.282 54.9401 23.282 56.416Z" fill="#FFAA54" stroke="#45413C" stroke-linecap="round" stroke-linejoin="round"/>
<path d="M11.241 77.367C11.241 78.8429 11.8273 80.2584 12.8709 81.302C13.9146 82.3457 15.33 82.932 16.806 82.932C18.2819 82.932 19.6974 82.3457 20.741 81.302C21.7847 80.2584 22.371 78.8429 22.371 77.367C22.371 75.8911 21.7847 74.4756 20.741 73.432C19.6974 72.3883 18.2819 71.802 16.806 71.802C15.33 71.802 13.9146 72.3883 12.8709 73.432C11.8273 74.4756 11.241 75.8911 11.241 77.367Z" fill="#FF6242" stroke="#45413C" stroke-linecap="round" stroke-linejoin="round"/>
<path d="M59.83 42.564H64.894C66.0754 42.5327 67.2161 42.1256 68.1503 41.4018C69.0845 40.678 69.7636 39.6752 70.089 38.539C70.4142 37.499 70.5794 36.4157 70.579 35.326C70.579 30.644 67.593 26.834 63.879 26.679C63.279 24.338 61.549 22.63 59.479 22.63C58.6708 22.642 57.8864 22.9048 57.234 23.382C56.3319 21.9572 55.0948 20.7748 53.6306 19.9381C52.1663 19.1014 50.5196 18.6358 48.834 18.582C45.107 18.582 41.822 20.882 39.816 24.399C39.5858 24.3748 39.3545 24.3627 39.123 24.363C35.755 24.363 32.984 27.588 32.686 31.72C31.6453 32.3074 30.7882 33.1723 30.2103 34.2183C29.6323 35.2643 29.3563 36.4503 29.413 37.644C29.3623 38.8945 29.8088 40.1142 30.6549 41.0364C31.501 41.9585 32.6778 42.5082 33.928 42.565L59.83 42.564Z" fill="#FFE500"/>
<path d="M52.36 42.564C51.191 40.18 50.862 37.8 47 36.486" stroke="#45413C" stroke-linecap="round" stroke-linejoin="round"/>
<path d="M59.83 42.564C59.2396 41.9951 58.7744 41.3092 58.4645 40.5501C58.1545 39.791 58.0065 38.9756 58.03 38.156" stroke="#45413C" stroke-linecap="round" stroke-linejoin="round"/>
<path d="M60.406 37.064C59.5219 37.8607 58.3588 38.2758 57.17 38.219C55.243 38.219 53.933 36.149 53.008 33.598C52.5107 32.1576 51.5306 30.9335 50.234 30.133" stroke="#45413C" stroke-linecap="round" stroke-linejoin="round"/>
<path d="M39.824 24.4C41.2666 24.591 42.6459 25.1116 43.8549 25.9215C45.0639 26.7313 46.0703 27.8087 46.796 29.07" stroke="#45413C" stroke-linecap="round" stroke-linejoin="round"/>
<path d="M43.8759 42.564C44.3712 41.4742 44.5367 40.2632 44.3518 39.0804C44.167 37.8976 43.6401 36.7948 42.8359 35.908" stroke="#45413C" stroke-linecap="round" stroke-linejoin="round"/>
<path d="M32.694 31.719C33.7056 31.1399 34.8754 30.8979 36.0338 31.028C37.1922 31.1582 38.2791 31.6538 39.137 32.443" stroke="#45413C" stroke-linecap="round" stroke-linejoin="round"/>
<path d="M43.3 31.288C43.6278 32.0326 43.7575 32.8493 43.6765 33.6588C43.5956 34.4683 43.3067 35.2431 42.838 35.908C42.4001 36.7003 41.6936 37.3103 40.8459 37.628C39.9982 37.9457 39.0649 37.9503 38.214 37.641C35.478 36.63 34.514 37.641 34.514 37.641" stroke="#45413C" stroke-linecap="round" stroke-linejoin="round"/>
<path d="M63.879 26.679C62.8402 26.4717 61.7616 26.6746 60.869 27.245" stroke="#45413C" stroke-linecap="round" stroke-linejoin="round"/>
<path d="M57.238 23.382C54.632 24.862 54.511 29.266 56.707 31.288C59.934 34.258 62.607 30.277 65.03 34.176" stroke="#45413C" stroke-linecap="round" stroke-linejoin="round"/>
<path d="M47.0001 33.021C46.4923 31.5225 46.4923 29.8985 47.0001 28.4C47.2768 27.4318 47.9028 26.6006 48.7569 26.0671C49.611 25.5337 50.6326 25.3359 51.6241 25.512" stroke="#45413C" stroke-linecap="round" stroke-linejoin="round"/>
<path d="M59.83 42.564H64.894C66.0754 42.5327 67.2161 42.1256 68.1503 41.4018C69.0845 40.678 69.7636 39.6752 70.089 38.539C70.4142 37.499 70.5794 36.4157 70.579 35.326C70.579 30.644 67.593 26.834 63.879 26.679C63.279 24.338 61.549 22.63 59.479 22.63C58.6708 22.642 57.8864 22.9048 57.234 23.382C56.3319 21.9572 55.0948 20.7748 53.6306 19.9381C52.1663 19.1014 50.5196 18.6358 48.834 18.582C45.107 18.582 41.822 20.882 39.816 24.399C39.5858 24.3748 39.3545 24.3627 39.123 24.363C35.755 24.363 32.984 27.588 32.686 31.72C31.6453 32.3074 30.7882 33.1723 30.2103 34.2183C29.6323 35.2643 29.3563 36.4503 29.413 37.644C29.3623 38.8945 29.8088 40.1142 30.6549 41.0364C31.501 41.9585 32.6778 42.5082 33.928 42.565L59.83 42.564Z" stroke="#45413C" stroke-linecap="round" stroke-linejoin="round"/>
<path d="M50.2271 11.005C49.2891 11.005 48.0551 7.905 48.0551 6.075C48.0672 5.50688 48.3015 4.96615 48.7076 4.56867C49.1137 4.1712 49.6593 3.94861 50.2276 3.94861C50.7958 3.94861 51.3414 4.1712 51.7475 4.56867C52.1536 4.96615 52.3879 5.50688 52.4001 6.075C52.4001 7.9 51.1651 11.005 50.2271 11.005Z" fill="#FFF48C" stroke="#B58B00" stroke-linecap="round" stroke-linejoin="round"/>
<path d="M34.967 11.068C34.8084 10.8288 34.6988 10.5605 34.6445 10.2786C34.5902 9.9968 34.5922 9.70699 34.6505 9.42596C34.7089 9.14492 34.8223 8.87822 34.9842 8.64126C35.1462 8.4043 35.3535 8.20178 35.5942 8.04538C35.8348 7.88899 36.1041 7.78182 36.3864 7.73007C36.6688 7.67832 36.9585 7.68301 37.239 7.74388C37.5195 7.80474 37.7852 7.92057 38.0207 8.08468C38.2561 8.24879 38.4568 8.45792 38.611 8.7C39.611 10.234 40.26 13.507 39.474 14.018C38.636 14.558 35.9 12.507 34.967 11.068Z" fill="#FFF48C" stroke="#B58B00" stroke-linecap="round" stroke-linejoin="round"/>
<path d="M26.7101 22.383C26.1925 22.143 25.7901 21.7091 25.5897 21.175C25.3894 20.6408 25.4071 20.0493 25.6391 19.5281C25.871 19.0069 26.2987 18.5978 26.8296 18.3892C27.3606 18.1806 27.9523 18.1891 28.4771 18.413C29.9671 19.076 32.5061 21.483 32.0961 22.403C31.6761 23.348 28.1561 23.027 26.7101 22.383Z" fill="#FFF48C" stroke="#B58B00" stroke-linecap="round" stroke-linejoin="round"/>
<path d="M67.585 22C67.159 21.165 69.361 18.657 70.991 17.826C71.5047 17.5643 72.1014 17.5175 72.6496 17.6958C73.1979 17.874 73.6529 18.2628 73.9145 18.7765C74.1761 19.2902 74.223 19.8868 74.0447 20.4351C73.8665 20.9833 73.4777 21.4383 72.964 21.7C71.28 22.553 68 22.8 67.585 22Z" fill="#FFF48C" stroke="#B58B00" stroke-linecap="round" stroke-linejoin="round"/>
<path d="M60.018 13.783C59.185 13.303 59.718 9.954 60.601 8.428C60.896 7.94299 61.3691 7.59269 61.9191 7.45201C62.469 7.31133 63.0522 7.39144 63.5439 7.67523C64.0355 7.95901 64.3966 8.42391 64.5499 8.9705C64.7031 9.51709 64.6364 10.102 64.364 10.6C63.552 12.007 60.884 14.284 60.018 13.783Z" fill="#FFF48C" stroke="#B58B00" stroke-linecap="round" stroke-linejoin="round"/>
</svg>
