<svg width="100" height="100" viewBox="0 0 100 100" fill="none" xmlns="http://www.w3.org/2000/svg">
<path d="M2 7C2 5.34315 3.34315 4 5 4H16.6C18.2569 4 19.6 5.34315 19.6 7V17.8C19.6 19.4569 18.2569 20.8 16.6 20.8H5C3.34315 20.8 2 19.4569 2 17.8V7Z" fill="#65696B"/>
<path d="M19.6 7.42857C19.6 6.51926 19.4761 5.64719 19.2555 5.00421C19.0349 4.36122 18.7357 4 18.4237 4H3.17627C2.86431 4 2.56512 4.36122 2.34452 5.00421C2.12393 5.64719 2 6.51926 2 7.42857V11.2C2 10.2452 2.13012 9.32955 2.36175 8.65442C2.59337 7.97929 2.90752 7.6 3.23509 7.6H18.3649C18.6925 7.6 19.0066 7.97929 19.2383 8.65442C19.4699 9.32955 19.6 10.2452 19.6 11.2V7.42857Z" fill="#65696B"/>
<path d="M2 7C2 5.34315 3.34315 4 5 4H16.6C18.2569 4 19.6 5.34315 19.6 7V17.8C19.6 19.4569 18.2569 20.8 16.6 20.8H5C3.34315 20.8 2 19.4569 2 17.8V7Z" fill="#65696B" stroke="#45413C" stroke-linecap="round" stroke-linejoin="round"/>
<path d="M41.2 7C41.2 5.34315 42.5432 4 44.2 4H55.7999C57.4568 4 58.7999 5.34315 58.7999 7V17.8C58.7999 19.4569 57.4568 20.8 55.7999 20.8H44.2C42.5432 20.8 41.2 19.4569 41.2 17.8V7Z" fill="#5A9C51"/>
<path d="M58.7999 7.42857C58.7999 6.51926 58.6761 5.64719 58.4555 5.00421C58.2349 4.36122 57.9356 4 57.6236 4H42.3763C42.0643 4 41.765 4.36122 41.5444 5.00421C41.3238 5.64719 41.2 6.51926 41.2 7.42857V11.2C41.2 10.2452 41.33 9.32955 41.5617 8.65442C41.7933 7.97929 42.1075 7.6 42.4351 7.6H57.5648C57.8924 7.6 58.2066 7.97929 58.4383 8.65442C58.6699 9.32955 58.7999 10.2452 58.7999 11.2V7.42857Z" fill="#5A9C51"/>
<path d="M41.2 7C41.2 5.34315 42.5432 4 44.2 4H55.7999C57.4568 4 58.7999 5.34315 58.7999 7V17.8C58.7999 19.4569 57.4568 20.8 55.7999 20.8H44.2C42.5432 20.8 41.2 19.4569 41.2 17.8V7Z" fill="#5A9C51" stroke="#45413C" stroke-linecap="round" stroke-linejoin="round"/>
<path d="M21.6 7C21.6 5.34315 22.9431 4 24.6 4H36.2C37.8568 4 39.2 5.34315 39.2 7V17.8C39.2 19.4569 37.8568 20.8 36.2 20.8H24.6C22.9431 20.8 21.6 19.4569 21.6 17.8V7Z" fill="#BDA747"/>
<path d="M39.2 7.42857C39.2 6.51926 39.076 5.64719 38.8555 5.00421C38.6349 4.36122 38.3357 4 38.0237 4H22.7762C22.4643 4 22.1651 4.36122 21.9445 5.00421C21.7239 5.64719 21.6 6.51926 21.6 7.42857V11.2C21.6 10.2452 21.7301 9.32955 21.9617 8.65442C22.1933 7.97929 22.5075 7.6 22.8351 7.6H37.9649C38.2925 7.6 38.6066 7.97929 38.8382 8.65442C39.0699 9.32955 39.2 10.2452 39.2 11.2V7.42857Z" fill="#BDA747"/>
<path d="M21.6 7C21.6 5.34315 22.9431 4 24.6 4H36.2C37.8568 4 39.2 5.34315 39.2 7V17.8C39.2 19.4569 37.8568 20.8 36.2 20.8H24.6C22.9431 20.8 21.6 19.4569 21.6 17.8V7Z" fill="#BDA747" stroke="#45413C" stroke-linecap="round" stroke-linejoin="round"/>
<path d="M80.4 7C80.4 5.34315 81.7432 4 83.4 4H95C96.6569 4 98 5.34315 98 7V17.8C98 19.4569 96.6569 20.8 95 20.8H83.4C81.7432 20.8 80.4 19.4569 80.4 17.8V7Z" fill="#5A9C51"/>
<path d="M98 7.42857C98 6.51926 97.8761 5.64719 97.6555 5.00421C97.4349 4.36122 97.1357 4 96.8238 4H81.5763C81.2643 4 80.9651 4.36122 80.7445 5.00421C80.524 5.64719 80.4 6.51926 80.4 7.42857V11.2C80.4 10.2452 80.5301 9.32955 80.7618 8.65442C80.9934 7.97929 81.3075 7.6 81.6351 7.6H96.7649C97.0925 7.6 97.4067 7.97929 97.6383 8.65442C97.8699 9.32955 98 10.2452 98 11.2V7.42857Z" fill="#5A9C51"/>
<path d="M80.4 7C80.4 5.34315 81.7432 4 83.4 4H95C96.6569 4 98 5.34315 98 7V17.8C98 19.4569 96.6569 20.8 95 20.8H83.4C81.7432 20.8 80.4 19.4569 80.4 17.8V7Z" fill="#5A9C51" stroke="#45413C" stroke-linecap="round" stroke-linejoin="round"/>
<path d="M60.8 7C60.8 5.34315 62.1431 4 63.8 4H75.4001C77.0569 4 78.4001 5.34315 78.4001 7V17.8C78.4001 19.4569 77.0569 20.8 75.4001 20.8H63.8C62.1431 20.8 60.8 19.4569 60.8 17.8V7Z" fill="#65696B"/>
<path d="M78.4001 7.42857C78.4001 6.51926 78.2761 5.64719 78.0555 5.00421C77.8349 4.36122 77.5358 4 77.2238 4H61.9763C61.6643 4 61.3652 4.36122 61.1446 5.00421C60.924 5.64719 60.8 6.51926 60.8 7.42857V11.2C60.8 10.2452 60.9302 9.32955 61.1618 8.65442C61.3935 7.97929 61.7075 7.6 62.0351 7.6H77.165C77.4926 7.6 77.8066 7.97929 78.0382 8.65442C78.2699 9.32955 78.4001 10.2452 78.4001 11.2V7.42857Z" fill="#65696B"/>
<path d="M60.8 7C60.8 5.34315 62.1431 4 63.8 4H75.4001C77.0569 4 78.4001 5.34315 78.4001 7V17.8C78.4001 19.4569 77.0569 20.8 75.4001 20.8H63.8C62.1431 20.8 60.8 19.4569 60.8 17.8V7Z" fill="#65696B" stroke="#45413C" stroke-linecap="round" stroke-linejoin="round"/>
<path d="M2 26C2 24.3431 3.34315 23 5 23H16.6C18.2569 23 19.6 24.3431 19.6 26V36.8C19.6 38.4569 18.2569 39.8 16.6 39.8H5C3.34315 39.8 2 38.4569 2 36.8V26Z" fill="#5A9C51"/>
<path d="M19.6 26.4286C19.6 25.5193 19.4761 24.6472 19.2555 24.0042C19.0349 23.3612 18.7357 23 18.4237 23H3.17627C2.86431 23 2.56512 23.3612 2.34452 24.0042C2.12393 24.6472 2 25.5193 2 26.4286V30.2C2 29.2452 2.13012 28.3295 2.36175 27.6544C2.59337 26.9793 2.90752 26.6 3.23509 26.6H18.3649C18.6925 26.6 19.0066 26.9793 19.2383 27.6544C19.4699 28.3295 19.6 29.2452 19.6 30.2V26.4286Z" fill="#5A9C51"/>
<path d="M2 26C2 24.3431 3.34315 23 5 23H16.6C18.2569 23 19.6 24.3431 19.6 26V36.8C19.6 38.4569 18.2569 39.8 16.6 39.8H5C3.34315 39.8 2 38.4569 2 36.8V26Z" fill="#5A9C51" stroke="#45413C" stroke-linecap="round" stroke-linejoin="round"/>
<path d="M41.2 26C41.2 24.3431 42.5432 23 44.2 23H55.7999C57.4568 23 58.7999 24.3431 58.7999 26V36.8C58.7999 38.4569 57.4568 39.8 55.7999 39.8H44.2C42.5432 39.8 41.2 38.4569 41.2 36.8V26Z" fill="#65696B"/>
<path d="M58.7999 26.4286C58.7999 25.5193 58.6761 24.6472 58.4555 24.0042C58.2349 23.3612 57.9356 23 57.6236 23H42.3763C42.0643 23 41.765 23.3612 41.5444 24.0042C41.3238 24.6472 41.2 25.5193 41.2 26.4286V30.2C41.2 29.2452 41.33 28.3295 41.5617 27.6544C41.7933 26.9793 42.1075 26.6 42.4351 26.6H57.5648C57.8924 26.6 58.2066 26.9793 58.4383 27.6544C58.6699 28.3295 58.7999 29.2452 58.7999 30.2V26.4286Z" fill="#65696B"/>
<path d="M41.2 26C41.2 24.3431 42.5432 23 44.2 23H55.7999C57.4568 23 58.7999 24.3431 58.7999 26V36.8C58.7999 38.4569 57.4568 39.8 55.7999 39.8H44.2C42.5432 39.8 41.2 38.4569 41.2 36.8V26Z" fill="#65696B" stroke="#45413C" stroke-linecap="round" stroke-linejoin="round"/>
<path d="M21.6 26C21.6 24.3431 22.9431 23 24.6 23H36.2C37.8568 23 39.2 24.3431 39.2 26V36.8C39.2 38.4569 37.8568 39.8 36.2 39.8H24.6C22.9431 39.8 21.6 38.4569 21.6 36.8V26Z" fill="#BDA747"/>
<path d="M39.2 26.4286C39.2 25.5193 39.076 24.6472 38.8555 24.0042C38.6349 23.3612 38.3357 23 38.0237 23H22.7762C22.4643 23 22.1651 23.3612 21.9445 24.0042C21.7239 24.6472 21.6 25.5193 21.6 26.4286V30.2C21.6 29.2452 21.7301 28.3295 21.9617 27.6544C22.1933 26.9793 22.5075 26.6 22.8351 26.6H37.9649C38.2925 26.6 38.6066 26.9793 38.8382 27.6544C39.0699 28.3295 39.2 29.2452 39.2 30.2V26.4286Z" fill="#BDA747"/>
<path d="M21.6 26C21.6 24.3431 22.9431 23 24.6 23H36.2C37.8568 23 39.2 24.3431 39.2 26V36.8C39.2 38.4569 37.8568 39.8 36.2 39.8H24.6C22.9431 39.8 21.6 38.4569 21.6 36.8V26Z" fill="#BDA747" stroke="#45413C" stroke-linecap="round" stroke-linejoin="round"/>
<path d="M80.4 26C80.4 24.3431 81.7432 23 83.4 23H95C96.6569 23 98 24.3431 98 26V36.8C98 38.4569 96.6569 39.8 95 39.8H83.4C81.7432 39.8 80.4 38.4569 80.4 36.8V26Z" fill="#65696B"/>
<path d="M98 26.4286C98 25.5193 97.8761 24.6472 97.6555 24.0042C97.4349 23.3612 97.1357 23 96.8238 23H81.5763C81.2643 23 80.9651 23.3612 80.7445 24.0042C80.524 24.6472 80.4 25.5193 80.4 26.4286V30.2C80.4 29.2452 80.5301 28.3295 80.7618 27.6544C80.9934 26.9793 81.3075 26.6 81.6351 26.6H96.7649C97.0925 26.6 97.4067 26.9793 97.6383 27.6544C97.8699 28.3295 98 29.2452 98 30.2V26.4286Z" fill="#65696B"/>
<path d="M80.4 26C80.4 24.3431 81.7432 23 83.4 23H95C96.6569 23 98 24.3431 98 26V36.8C98 38.4569 96.6569 39.8 95 39.8H83.4C81.7432 39.8 80.4 38.4569 80.4 36.8V26Z" fill="#BDA747" stroke="#45413C" stroke-linecap="round" stroke-linejoin="round"/>
<path d="M60.8 26C60.8 24.3431 62.1431 23 63.8 23H75.4001C77.0569 23 78.4001 24.3431 78.4001 26V36.8C78.4001 38.4569 77.0569 39.8 75.4001 39.8H63.8C62.1431 39.8 60.8 38.4569 60.8 36.8V26Z" fill="#BDA747"/>
<path d="M78.4001 26.4286C78.4001 25.5193 78.2761 24.6472 78.0555 24.0042C77.8349 23.3612 77.5358 23 77.2238 23H61.9763C61.6643 23 61.3652 23.3612 61.1446 24.0042C60.924 24.6472 60.8 25.5193 60.8 26.4286V30.2C60.8 29.2452 60.9302 28.3295 61.1618 27.6544C61.3935 26.9793 61.7075 26.6 62.0351 26.6H77.165C77.4926 26.6 77.8066 26.9793 78.0382 27.6544C78.2699 28.3295 78.4001 29.2452 78.4001 30.2V26.4286Z" fill="#BDA747"/>
<path d="M60.8 26C60.8 24.3431 62.1431 23 63.8 23H75.4001C77.0569 23 78.4001 24.3431 78.4001 26V36.8C78.4001 38.4569 77.0569 39.8 75.4001 39.8H63.8C62.1431 39.8 60.8 38.4569 60.8 36.8V26Z" fill="#BDA747" stroke="#45413C" stroke-linecap="round" stroke-linejoin="round"/>
<path d="M2 45C2 43.3431 3.34315 42 5 42H16.6C18.2569 42 19.6 43.3431 19.6 45V55.8C19.6 57.4569 18.2569 58.8 16.6 58.8H5C3.34315 58.8 2 57.4569 2 55.8V45Z" fill="#BDA747"/>
<path d="M19.6 45.4286C19.6 44.5193 19.4761 43.6472 19.2555 43.0042C19.0349 42.3612 18.7357 42 18.4237 42H3.17627C2.86431 42 2.56512 42.3612 2.34452 43.0042C2.12393 43.6472 2 44.5193 2 45.4286V49.2C2 48.2452 2.13012 47.3295 2.36175 46.6544C2.59337 45.9793 2.90752 45.6 3.23509 45.6H18.3649C18.6925 45.6 19.0066 45.9793 19.2383 46.6544C19.4699 47.3295 19.6 48.2452 19.6 49.2V45.4286Z" fill="#BDA747"/>
<path d="M2 45C2 43.3431 3.34315 42 5 42H16.6C18.2569 42 19.6 43.3431 19.6 45V55.8C19.6 57.4569 18.2569 58.8 16.6 58.8H5C3.34315 58.8 2 57.4569 2 55.8V45Z" fill="#BDA747" stroke="#45413C" stroke-linecap="round" stroke-linejoin="round"/>
<path d="M41.2 45C41.2 43.3431 42.5432 42 44.2 42H55.7999C57.4568 42 58.7999 43.3431 58.7999 45V55.8C58.7999 57.4569 57.4568 58.8 55.7999 58.8H44.2C42.5432 58.8 41.2 57.4569 41.2 55.8V45Z" fill="#BDA747"/>
<path d="M58.7999 45.4286C58.7999 44.5193 58.6761 43.6472 58.4555 43.0042C58.2349 42.3612 57.9356 42 57.6236 42H42.3763C42.0643 42 41.765 42.3612 41.5444 43.0042C41.3238 43.6472 41.2 44.5193 41.2 45.4286V49.2C41.2 48.2452 41.33 47.3295 41.5617 46.6544C41.7933 45.9793 42.1075 45.6 42.4351 45.6H57.5648C57.8924 45.6 58.2066 45.9793 58.4383 46.6544C58.6699 47.3295 58.7999 48.2452 58.7999 49.2V45.4286Z" fill="#BDA747"/>
<path d="M41.2 45C41.2 43.3431 42.5432 42 44.2 42H55.7999C57.4568 42 58.7999 43.3431 58.7999 45V55.8C58.7999 57.4569 57.4568 58.8 55.7999 58.8H44.2C42.5432 58.8 41.2 57.4569 41.2 55.8V45Z" fill="#BDA747" stroke="#45413C" stroke-linecap="round" stroke-linejoin="round"/>
<path d="M21.6 45C21.6 43.3431 22.9431 42 24.6 42H36.2C37.8568 42 39.2 43.3431 39.2 45V55.8C39.2 57.4569 37.8568 58.8 36.2 58.8H24.6C22.9431 58.8 21.6 57.4569 21.6 55.8V45Z" fill="#BDA747"/>
<path d="M39.2 45.4286C39.2 44.5193 39.076 43.6472 38.8555 43.0042C38.6349 42.3612 38.3357 42 38.0237 42H22.7762C22.4643 42 22.1651 42.3612 21.9445 43.0042C21.7239 43.6472 21.6 44.5193 21.6 45.4286V49.2C21.6 48.2452 21.7301 47.3295 21.9617 46.6544C22.1933 45.9793 22.5075 45.6 22.8351 45.6H37.9649C38.2925 45.6 38.6066 45.9793 38.8382 46.6544C39.0699 47.3295 39.2 48.2452 39.2 49.2V45.4286Z" fill="#BDA747"/>
<path d="M21.6 45C21.6 43.3431 22.9431 42 24.6 42H36.2C37.8568 42 39.2 43.3431 39.2 45V55.8C39.2 57.4569 37.8568 58.8 36.2 58.8H24.6C22.9431 58.8 21.6 57.4569 21.6 55.8V45Z" fill="#BDA747" stroke="#45413C" stroke-linecap="round" stroke-linejoin="round"/>
<path d="M80.4 45C80.4 43.3431 81.7432 42 83.4 42H95C96.6569 42 98 43.3431 98 45V55.8C98 57.4569 96.6569 58.8 95 58.8H83.4C81.7432 58.8 80.4 57.4569 80.4 55.8V45Z" fill="#65696B"/>
<path d="M98 45.4286C98 44.5193 97.8761 43.6472 97.6555 43.0042C97.4349 42.3612 97.1357 42 96.8238 42H81.5763C81.2643 42 80.9651 42.3612 80.7445 43.0042C80.524 43.6472 80.4 44.5193 80.4 45.4286V49.2C80.4 48.2452 80.5301 47.3295 80.7618 46.6544C80.9934 45.9793 81.3075 45.6 81.6351 45.6H96.7649C97.0925 45.6 97.4067 45.9793 97.6383 46.6544C97.8699 47.3295 98 48.2452 98 49.2V45.4286Z" fill="#65696B"/>
<path d="M80.4 45C80.4 43.3431 81.7432 42 83.4 42H95C96.6569 42 98 43.3431 98 45V55.8C98 57.4569 96.6569 58.8 95 58.8H83.4C81.7432 58.8 80.4 57.4569 80.4 55.8V45Z" fill="#65696B" stroke="#45413C" stroke-linecap="round" stroke-linejoin="round"/>
<path d="M60.8 45C60.8 43.3431 62.1431 42 63.8 42H75.4001C77.0569 42 78.4001 43.3431 78.4001 45V55.8C78.4001 57.4569 77.0569 58.8 75.4001 58.8H63.8C62.1431 58.8 60.8 57.4569 60.8 55.8V45Z" fill="#BDA747"/>
<path d="M78.4001 45.4286C78.4001 44.5193 78.2761 43.6472 78.0555 43.0042C77.8349 42.3612 77.5358 42 77.2238 42H61.9763C61.6643 42 61.3652 42.3612 61.1446 43.0042C60.924 43.6472 60.8 44.5193 60.8 45.4286V49.2C60.8 48.2452 60.9302 47.3295 61.1618 46.6544C61.3935 45.9793 61.7075 45.6 62.0351 45.6H77.165C77.4926 45.6 77.8066 45.9793 78.0382 46.6544C78.2699 47.3295 78.4001 48.2452 78.4001 49.2V45.4286Z" fill="#BDA747"/>
<path d="M60.8 45C60.8 43.3431 62.1431 42 63.8 42H75.4001C77.0569 42 78.4001 43.3431 78.4001 45V55.8C78.4001 57.4569 77.0569 58.8 75.4001 58.8H63.8C62.1431 58.8 60.8 57.4569 60.8 55.8V45Z" fill="#BDA747" stroke="#45413C" stroke-linecap="round" stroke-linejoin="round"/>
<path d="M2 64C2 62.3431 3.34315 61 5 61H16.6C18.2569 61 19.6 62.3431 19.6 64V74.8C19.6 76.4569 18.2569 77.8 16.6 77.8H5C3.34315 77.8 2 76.4569 2 74.8V64Z" fill="#5A9C51"/>
<path d="M19.6 64.4286C19.6 63.5193 19.4761 62.6472 19.2555 62.0042C19.0349 61.3612 18.7357 61 18.4237 61H3.17627C2.86431 61 2.56512 61.3612 2.34452 62.0042C2.12393 62.6472 2 63.5193 2 64.4286V68.2C2 67.2452 2.13012 66.3295 2.36175 65.6544C2.59337 64.9793 2.90752 64.6 3.23509 64.6H18.3649C18.6925 64.6 19.0066 64.9793 19.2383 65.6544C19.4699 66.3295 19.6 67.2452 19.6 68.2V64.4286Z" fill="#5A9C51"/>
<path d="M2 64C2 62.3431 3.34315 61 5 61H16.6C18.2569 61 19.6 62.3431 19.6 64V74.8C19.6 76.4569 18.2569 77.8 16.6 77.8H5C3.34315 77.8 2 76.4569 2 74.8V64Z" fill="#5A9C51" stroke="#45413C" stroke-linecap="round" stroke-linejoin="round"/>
<path d="M41.2 64C41.2 62.3431 42.5432 61 44.2 61H55.7999C57.4568 61 58.7999 62.3431 58.7999 64V74.8C58.7999 76.4569 57.4568 77.8 55.7999 77.8H44.2C42.5432 77.8 41.2 76.4569 41.2 74.8V64Z" fill="#BDA747"/>
<path d="M58.7999 64.4286C58.7999 63.5193 58.6761 62.6472 58.4555 62.0042C58.2349 61.3612 57.9356 61 57.6236 61H42.3763C42.0643 61 41.765 61.3612 41.5444 62.0042C41.3238 62.6472 41.2 63.5193 41.2 64.4286V68.2C41.2 67.2452 41.33 66.3295 41.5617 65.6544C41.7933 64.9793 42.1075 64.6 42.4351 64.6H57.5648C57.8924 64.6 58.2066 64.9793 58.4383 65.6544C58.6699 66.3295 58.7999 67.2452 58.7999 68.2V64.4286Z" fill="#BDA747"/>
<path d="M41.2 64C41.2 62.3431 42.5432 61 44.2 61H55.7999C57.4568 61 58.7999 62.3431 58.7999 64V74.8C58.7999 76.4569 57.4568 77.8 55.7999 77.8H44.2C42.5432 77.8 41.2 76.4569 41.2 74.8V64Z" fill="#BDA747" stroke="#45413C" stroke-linecap="round" stroke-linejoin="round"/>
<path d="M21.6 64C21.6 62.3431 22.9431 61 24.6 61H36.2C37.8568 61 39.2 62.3431 39.2 64V74.8C39.2 76.4569 37.8568 77.8 36.2 77.8H24.6C22.9431 77.8 21.6 76.4569 21.6 74.8V64Z" fill="#5A9C51"/>
<path d="M39.2 64.4286C39.2 63.5193 39.076 62.6472 38.8555 62.0042C38.6349 61.3612 38.3357 61 38.0237 61H22.7762C22.4643 61 22.1651 61.3612 21.9445 62.0042C21.7239 62.6472 21.6 63.5193 21.6 64.4286V68.2C21.6 67.2452 21.7301 66.3295 21.9617 65.6544C22.1933 64.9793 22.5075 64.6 22.8351 64.6H37.9649C38.2925 64.6 38.6066 64.9793 38.8382 65.6544C39.0699 66.3295 39.2 67.2452 39.2 68.2V64.4286Z" fill="#5A9C51"/>
<path d="M21.6 64C21.6 62.3431 22.9431 61 24.6 61H36.2C37.8568 61 39.2 62.3431 39.2 64V74.8C39.2 76.4569 37.8568 77.8 36.2 77.8H24.6C22.9431 77.8 21.6 76.4569 21.6 74.8V64Z" fill="#5A9C51" stroke="#45413C" stroke-linecap="round" stroke-linejoin="round"/>
<path d="M80.4 64C80.4 62.3431 81.7432 61 83.4 61H95C96.6569 61 98 62.3431 98 64V74.8C98 76.4569 96.6569 77.8 95 77.8H83.4C81.7432 77.8 80.4 76.4569 80.4 74.8V64Z" fill="#65696B"/>
<path d="M98 64.4286C98 63.5193 97.8761 62.6472 97.6555 62.0042C97.4349 61.3612 97.1357 61 96.8238 61H81.5763C81.2643 61 80.9651 61.3612 80.7445 62.0042C80.524 62.6472 80.4 63.5193 80.4 64.4286V68.2C80.4 67.2452 80.5301 66.3295 80.7618 65.6544C80.9934 64.9793 81.3075 64.6 81.6351 64.6H96.7649C97.0925 64.6 97.4067 64.9793 97.6383 65.6544C97.8699 66.3295 98 67.2452 98 68.2V64.4286Z" fill="#65696B"/>
<path d="M80.4 64C80.4 62.3431 81.7432 61 83.4 61H95C96.6569 61 98 62.3431 98 64V74.8C98 76.4569 96.6569 77.8 95 77.8H83.4C81.7432 77.8 80.4 76.4569 80.4 74.8V64Z" fill="#65696B" stroke="#45413C" stroke-linecap="round" stroke-linejoin="round"/>
<path d="M60.8 64C60.8 62.3431 62.1431 61 63.8 61H75.4001C77.0569 61 78.4001 62.3431 78.4001 64V74.8C78.4001 76.4569 77.0569 77.8 75.4001 77.8H63.8C62.1431 77.8 60.8 76.4569 60.8 74.8V64Z" fill="#BDA747"/>
<path d="M78.4001 64.4286C78.4001 63.5193 78.2761 62.6472 78.0555 62.0042C77.8349 61.3612 77.5358 61 77.2238 61H61.9763C61.6643 61 61.3652 61.3612 61.1446 62.0042C60.924 62.6472 60.8 63.5193 60.8 64.4286V68.2C60.8 67.2452 60.9302 66.3295 61.1618 65.6544C61.3935 64.9793 61.7075 64.6 62.0351 64.6H77.165C77.4926 64.6 77.8066 64.9793 78.0382 65.6544C78.2699 66.3295 78.4001 67.2452 78.4001 68.2V64.4286Z" fill="#BDA747"/>
<path d="M60.8 64C60.8 62.3431 62.1431 61 63.8 61H75.4001C77.0569 61 78.4001 62.3431 78.4001 64V74.8C78.4001 76.4569 77.0569 77.8 75.4001 77.8H63.8C62.1431 77.8 60.8 76.4569 60.8 74.8V64Z" fill="#BDA747" stroke="#45413C" stroke-linecap="round" stroke-linejoin="round"/>
<path d="M2 83C2 81.3431 3.34315 80 5 80H16.6C18.2569 80 19.6 81.3431 19.6 83V93.8C19.6 95.4569 18.2569 96.8 16.6 96.8H5C3.34315 96.8 2 95.4569 2 93.8V83Z" fill="#5A9C51"/>
<path d="M19.6 83.4286C19.6 82.5193 19.4761 81.6472 19.2555 81.0042C19.0349 80.3612 18.7357 80 18.4237 80H3.17627C2.86431 80 2.56512 80.3612 2.34452 81.0042C2.12393 81.6472 2 82.5193 2 83.4286V87.2C2 86.2452 2.13012 85.3295 2.36175 84.6544C2.59337 83.9793 2.90752 83.6 3.23509 83.6H18.3649C18.6925 83.6 19.0066 83.9793 19.2383 84.6544C19.4699 85.3295 19.6 86.2452 19.6 87.2V83.4286Z" fill="#5A9C51"/>
<path d="M2 83C2 81.3431 3.34315 80 5 80H16.6C18.2569 80 19.6 81.3431 19.6 83V93.8C19.6 95.4569 18.2569 96.8 16.6 96.8H5C3.34315 96.8 2 95.4569 2 93.8V83Z" fill="#5A9C51" stroke="#45413C" stroke-linecap="round" stroke-linejoin="round"/>
<path d="M41.2 83C41.2 81.3431 42.5432 80 44.2 80H55.7999C57.4568 80 58.7999 81.3431 58.7999 83V93.8C58.7999 95.4569 57.4568 96.8 55.7999 96.8H44.2C42.5432 96.8 41.2 95.4569 41.2 93.8V83Z" fill="#5A9C51"/>
<path d="M58.7999 83.4286C58.7999 82.5193 58.6761 81.6472 58.4555 81.0042C58.2349 80.3612 57.9356 80 57.6236 80H42.3763C42.0643 80 41.765 80.3612 41.5444 81.0042C41.3238 81.6472 41.2 82.5193 41.2 83.4286V87.2C41.2 86.2452 41.33 85.3295 41.5617 84.6544C41.7933 83.9793 42.1075 83.6 42.4351 83.6H57.5648C57.8924 83.6 58.2066 83.9793 58.4383 84.6544C58.6699 85.3295 58.7999 86.2452 58.7999 87.2V83.4286Z" fill="#5A9C51"/>
<path d="M41.2 83C41.2 81.3431 42.5432 80 44.2 80H55.7999C57.4568 80 58.7999 81.3431 58.7999 83V93.8C58.7999 95.4569 57.4568 96.8 55.7999 96.8H44.2C42.5432 96.8 41.2 95.4569 41.2 93.8V83Z" stroke="#45413C" stroke-linecap="round" stroke-linejoin="round"/>
<path d="M21.6 83C21.6 81.3431 22.9431 80 24.6 80H36.2C37.8568 80 39.2 81.3431 39.2 83V93.8C39.2 95.4569 37.8568 96.8 36.2 96.8H24.6C22.9431 96.8 21.6 95.4569 21.6 93.8V83Z" fill="#5A9C51"/>
<path d="M39.2 83.4286C39.2 82.5193 39.076 81.6472 38.8555 81.0042C38.6349 80.3612 38.3357 80 38.0237 80H22.7762C22.4643 80 22.1651 80.3612 21.9445 81.0042C21.7239 81.6472 21.6 82.5193 21.6 83.4286V87.2C21.6 86.2452 21.7301 85.3295 21.9617 84.6544C22.1933 83.9793 22.5075 83.6 22.8351 83.6H37.9649C38.2925 83.6 38.6066 83.9793 38.8382 84.6544C39.0699 85.3295 39.2 86.2452 39.2 87.2V83.4286Z" fill="#5A9C51"/>
<path d="M21.6 83C21.6 81.3431 22.9431 80 24.6 80H36.2C37.8568 80 39.2 81.3431 39.2 83V93.8C39.2 95.4569 37.8568 96.8 36.2 96.8H24.6C22.9431 96.8 21.6 95.4569 21.6 93.8V83Z" fill="#5A9C51" stroke="#45413C" stroke-linecap="round" stroke-linejoin="round"/>
<path d="M80.4 83C80.4 81.3431 81.7432 80 83.4 80H95C96.6569 80 98 81.3431 98 83V93.8C98 95.4569 96.6569 96.8 95 96.8H83.4C81.7432 96.8 80.4 95.4569 80.4 93.8V83Z" fill="#5A9C51"/>
<path d="M98 83.4286C98 82.5193 97.8761 81.6472 97.6555 81.0042C97.4349 80.3612 97.1357 80 96.8238 80H81.5763C81.2643 80 80.9651 80.3612 80.7445 81.0042C80.524 81.6472 80.4 82.5193 80.4 83.4286V87.2C80.4 86.2452 80.5301 85.3295 80.7618 84.6544C80.9934 83.9793 81.3075 83.6 81.6351 83.6H96.7649C97.0925 83.6 97.4067 83.9793 97.6383 84.6544C97.8699 85.3295 98 86.2452 98 87.2V83.4286Z" fill="#5A9C51"/>
<path d="M80.4 83C80.4 81.3431 81.7432 80 83.4 80H95C96.6569 80 98 81.3431 98 83V93.8C98 95.4569 96.6569 96.8 95 96.8H83.4C81.7432 96.8 80.4 95.4569 80.4 93.8V83Z" stroke="#45413C" stroke-linecap="round" stroke-linejoin="round"/>
<path d="M60.8 83C60.8 81.3431 62.1431 80 63.8 80H75.4001C77.0569 80 78.4001 81.3431 78.4001 83V93.8C78.4001 95.4569 77.0569 96.8 75.4001 96.8H63.8C62.1431 96.8 60.8 95.4569 60.8 93.8V83Z" fill="#5A9C51"/>
<path d="M78.4001 83.4286C78.4001 82.5193 78.2761 81.6472 78.0555 81.0042C77.8349 80.3612 77.5358 80 77.2238 80H61.9763C61.6643 80 61.3652 80.3612 61.1446 81.0042C60.924 81.6472 60.8 82.5193 60.8 83.4286V87.2C60.8 86.2452 60.9302 85.3295 61.1618 84.6544C61.3935 83.9793 61.7075 83.6 62.0351 83.6H77.165C77.4926 83.6 77.8066 83.9793 78.0382 84.6544C78.2699 85.3295 78.4001 86.2452 78.4001 87.2V83.4286Z" fill="#5A9C51"/>
<path d="M60.8 83C60.8 81.3431 62.1431 80 63.8 80H75.4001C77.0569 80 78.4001 81.3431 78.4001 83V93.8C78.4001 95.4569 77.0569 96.8 75.4001 96.8H63.8C62.1431 96.8 60.8 95.4569 60.8 93.8V83Z" stroke="#45413C" stroke-linecap="round" stroke-linejoin="round"/>
<path d="M8.24451 93V84.2727H10.3539V91.2869H13.9846V93H8.24451Z" fill="white"/>
<path d="M92.7111 84.2727V93H90.9213L87.4483 87.9631H87.3929V93H85.2836V84.2727H87.0989L90.5336 89.3011H90.606V84.2727H92.7111Z" fill="white"/>
<path d="M66.6879 93V84.2727H70.293C70.9464 84.2727 71.5103 84.3906 71.9847 84.6264C72.462 84.8594 72.8299 85.1946 73.0884 85.6321C73.3469 86.0668 73.4762 86.5824 73.4762 87.179C73.4762 87.7841 73.3441 88.2983 73.0799 88.7216C72.8157 89.142 72.4407 89.4631 71.9549 89.6847C71.4691 89.9034 70.8938 90.0128 70.229 90.0128H67.9492V88.3509H69.837C70.1552 88.3509 70.4208 88.3097 70.6339 88.2273C70.8498 88.142 71.0131 88.0142 71.1239 87.8438C71.2347 87.6705 71.2901 87.4489 71.2901 87.179C71.2901 86.9091 71.2347 86.6861 71.1239 86.5099C71.0131 86.331 70.8498 86.1974 70.6339 86.1094C70.418 86.0185 70.1523 85.973 69.837 85.973H68.7972V93H66.6879ZM71.6012 89.0114L73.7745 93H71.4734L69.3427 89.0114H71.6012Z" fill="white"/>
<path d="M47.9194 93H45.6523L48.5969 84.2727H51.4052L54.3498 93H52.0827L50.033 86.4716H49.9648L47.9194 93ZM47.6168 89.5653H52.3555V91.1676H47.6168V89.5653Z" fill="white"/>
<path d="M26.9574 93V84.2727H33.0426V85.9858H29.0668V87.7756H32.7315V89.4929H29.0668V91.2869H33.0426V93H26.9574Z" fill="white"/>
<path d="M8.24451 74V65.2727H10.3539V72.2869H13.9846V74H8.24451Z" fill="white"/>
<path d="M85.3145 66.9858V65.2727H92.6909V66.9858H90.0446V74H87.965V66.9858H85.3145Z" fill="white"/>
<path d="M73.7111 65.2727V74H71.9213L68.4483 68.9631H68.3929V74H66.2836V65.2727H68.0989L71.5336 70.3011H71.606V65.2727H73.7111Z" fill="white"/>
<path d="M46.6879 74V65.2727H50.293C50.9464 65.2727 51.5103 65.3906 51.9847 65.6264C52.462 65.8594 52.8299 66.1946 53.0884 66.6321C53.3469 67.0668 53.4762 67.5824 53.4762 68.179C53.4762 68.7841 53.3441 69.2983 53.0799 69.7216C52.8157 70.142 52.4407 70.4631 51.9549 70.6847C51.4691 70.9034 50.8938 71.0128 50.229 71.0128H47.9492V69.3509H49.837C50.1552 69.3509 50.4208 69.3097 50.6339 69.2273C50.8498 69.142 51.0131 69.0142 51.1239 68.8438C51.2347 68.6705 51.2901 68.4489 51.2901 68.179C51.2901 67.9091 51.2347 67.6861 51.1239 67.5099C51.0131 67.331 50.8498 67.1974 50.6339 67.1094C50.418 67.0185 50.1523 66.973 49.837 66.973H48.7972V74H46.6879ZM51.6012 70.0114L53.7745 74H51.4734L49.3427 70.0114H51.6012Z" fill="white"/>
<path d="M26.9574 74V65.2727H33.0426V66.9858H29.0668V68.7756H32.7315V70.4929H29.0668V72.2869H33.0426V74H26.9574Z" fill="white"/>
<path d="M7.9574 55V46.2727H14.0426V47.9858H10.0668V49.7756H13.7315V51.4929H10.0668V53.2869H14.0426V55H7.9574Z" fill="white"/>
<path d="M84.761 46.2727H87.1175L88.9627 49.9247H89.0394L90.8846 46.2727H93.2411L90.0494 52.0852V55H87.9528V52.0852L84.761 46.2727Z" fill="white"/>
<path d="M67.2445 55V46.2727H69.3539V53.2869H72.9846V55H67.2445Z" fill="white"/>
<path d="M46.6879 55V46.2727H50.293C50.9464 46.2727 51.5103 46.3906 51.9847 46.6264C52.462 46.8594 52.8299 47.1946 53.0884 47.6321C53.3469 48.0668 53.4762 48.5824 53.4762 49.179C53.4762 49.7841 53.3441 50.2983 53.0799 50.7216C52.8157 51.142 52.4407 51.4631 51.9549 51.6847C51.4691 51.9034 50.8938 52.0128 50.229 52.0128H47.9492V50.3509H49.837C50.1552 50.3509 50.4208 50.3097 50.6339 50.2273C50.8498 50.142 51.0131 50.0142 51.1239 49.8438C51.2347 49.6705 51.2901 49.4489 51.2901 49.179C51.2901 48.9091 51.2347 48.6861 51.1239 48.5099C51.0131 48.331 50.8498 48.1974 50.6339 48.1094C50.418 48.0185 50.1523 47.973 49.837 47.973H48.7972V55H46.6879ZM51.6012 51.0114L53.7745 55H51.4734L49.3427 51.0114H51.6012Z" fill="white"/>
<path d="M27.9194 55H25.6523L28.5969 46.2727H31.4052L34.3498 55H32.0827L30.033 48.4716H29.9648L27.9194 55ZM27.6168 51.5653H32.3555V53.1676H27.6168V51.5653Z" fill="white"/>
<path d="M8.24451 36V27.2727H10.3539V34.2869H13.9846V36H8.24451Z" fill="white"/>
<path d="M85.6879 36V27.2727H89.293C89.9464 27.2727 90.5103 27.3906 90.9847 27.6264C91.462 27.8594 91.8299 28.1946 92.0884 28.6321C92.3469 29.0668 92.4762 29.5824 92.4762 30.179C92.4762 30.7841 92.3441 31.2983 92.0799 31.7216C91.8157 32.142 91.4407 32.4631 90.9549 32.6847C90.4691 32.9034 89.8938 33.0128 89.229 33.0128H86.9492V31.3509H88.837C89.1552 31.3509 89.4208 31.3097 89.6339 31.2273C89.8498 31.142 90.0131 31.0142 90.1239 30.8438C90.2347 30.6705 90.2901 30.4489 90.2901 30.179C90.2901 29.9091 90.2347 29.6861 90.1239 29.5099C90.0131 29.331 89.8498 29.1974 89.6339 29.1094C89.418 29.0185 89.1523 28.973 88.837 28.973H87.7972V36H85.6879ZM90.6012 32.0114L92.7745 36H90.4734L88.3427 32.0114H90.6012Z" fill="white"/>
<path d="M66.9574 36V27.2727H73.0426V28.9858H69.0668V30.7756H72.7315V32.4929H69.0668V34.2869H73.0426V36H66.9574Z" fill="white"/>
<path d="M46.3145 28.9858V27.2727H53.6909V28.9858H51.0446V36H48.965V28.9858H46.3145Z" fill="white"/>
<path d="M27.9194 36H25.6523L28.5969 27.2727H31.4052L34.3498 36H32.0827L30.033 29.4716H29.9648L27.9194 36ZM27.6168 32.5653H32.3555V34.1676H27.6168V32.5653Z" fill="white"/>
<path d="M7.31445 9.98577V8.27271H14.6909V9.98577H12.0446V17H9.96502V9.98577H7.31445Z" fill="white"/>
<path d="M92.7111 8.27271V17H90.9213L87.4483 11.9631H87.3929V17H85.2836V8.27271H87.0989L90.5336 13.3011H90.606V8.27271H92.7111Z" fill="white"/>
<path d="M71.0531 8.27271V17H68.9437V8.27271H71.0531Z" fill="white"/>
<path d="M47.9194 17H45.6523L48.5969 8.27271H51.4052L54.3498 17H52.0827L50.033 10.4716H49.9648L47.9194 17ZM47.6168 13.5653H52.3555V15.1676H47.6168V13.5653Z" fill="white"/>
<path d="M26.6879 17V8.27271H30.293C30.9464 8.27271 31.5103 8.3906 31.9847 8.6264C32.462 8.85935 32.8299 9.19458 33.0884 9.63208C33.3469 10.0668 33.4762 10.5824 33.4762 11.179C33.4762 11.7841 33.3441 12.2983 33.0799 12.7216C32.8157 13.142 32.4407 13.4631 31.9549 13.6847C31.4691 13.9034 30.8938 14.0128 30.229 14.0128H27.9492V12.3509H29.837C30.1552 12.3509 30.4208 12.3097 30.6339 12.2273C30.8498 12.142 31.0131 12.0142 31.1239 11.8438C31.2347 11.6705 31.2901 11.4489 31.2901 11.179C31.2901 10.9091 31.2347 10.6861 31.1239 10.5099C31.0131 10.331 30.8498 10.1974 30.6339 10.1094C30.418 10.0185 30.1523 9.97299 29.837 9.97299H28.7972V17H26.6879ZM31.6012 13.0114L33.7745 17H31.4734L29.3427 13.0114H31.6012Z" fill="white"/>
<g clip-path="url(#clip0_160_2)">
<path d="M93 51H52V92H93V51Z" fill="#F7DF1E"/>
<path d="M79.5416 83.0314C80.3675 84.3798 81.442 85.371 83.3423 85.371C84.9387 85.371 85.9585 84.5731 85.9585 83.4707C85.9585 82.1496 84.9107 81.6817 83.1535 80.9131L82.1904 80.4998C79.4102 79.3154 77.5632 77.8316 77.5632 74.6947C77.5632 71.8052 79.7649 69.6055 83.2056 69.6055C85.6552 69.6055 87.4162 70.4581 88.6853 72.6903L85.6851 74.6166C85.0246 73.4322 84.312 72.9656 83.2056 72.9656C82.0771 72.9656 81.3619 73.6815 81.3619 74.6166C81.3619 75.7725 82.0778 76.2404 83.7308 76.9562L84.694 77.3688C87.9675 78.7726 89.8157 80.2037 89.8157 83.4212C89.8157 86.89 87.0908 88.7903 83.4314 88.7903C79.8534 88.7903 77.5417 87.0852 76.4107 84.8504L79.5416 83.0314ZM65.9316 83.3653C66.5368 84.4391 67.0874 85.3469 68.4111 85.3469C69.6769 85.3469 70.4754 84.8517 70.4754 82.926V69.8255H74.3281V82.978C74.3281 86.9674 71.9892 88.7831 68.5751 88.7831C65.4903 88.7831 63.7039 87.1867 62.7954 85.264L65.9316 83.3653Z" fill="black"/>
</g>
<defs>
<clipPath id="clip0_160_2">
<rect width="41" height="41" fill="white" transform="translate(52 51)"/>
</clipPath>
</defs>
</svg>
