<svg width="88" height="87" viewBox="0 0 88 87" fill="none" xmlns="http://www.w3.org/2000/svg">
<path d="M84 42.3695C84.0008 36.3997 82.6653 30.5054 80.0914 25.1189C77.5176 19.7324 73.7707 14.9903 69.1256 11.2404C64.4804 7.49051 59.0548 4.82791 53.2467 3.44788C47.4386 2.06785 41.3952 2.00538 35.5597 3.26505C29.7243 4.52473 24.2448 7.0746 19.5232 10.7277C14.8015 14.3807 10.9574 19.0444 8.27278 24.3765C5.58816 29.7086 4.13109 35.5741 4.00844 41.5427C3.8858 47.5113 5.10068 53.4316 7.564 58.8695H80.436C82.7893 53.6873 84.0046 48.061 84 42.3695Z" fill="#B8ECFF"/>
<path d="M7.564 58.8694C10.7367 65.8733 15.8608 71.8144 22.3229 75.9813C28.7849 80.1482 36.311 82.3643 44 82.3643C51.689 82.3643 59.2151 80.1482 65.6771 75.9813C72.1392 71.8144 77.2633 65.8733 80.436 58.8694H7.564Z" fill="#DAF7C6"/>
<path d="M5 58.8694H83" stroke="#45413C" stroke-linecap="round" stroke-linejoin="round"/>
<path d="M0.5 58.8694H3" stroke="#45413C" stroke-linecap="round" stroke-linejoin="round"/>
<path d="M85 58.8694H87.5" stroke="#45413C" stroke-linecap="round" stroke-linejoin="round"/>
<path d="M15.9 59.0485H12.427V22.5835C12.4269 22.2794 12.4867 21.9784 12.603 21.6974C12.7192 21.4165 12.8898 21.1612 13.1048 20.9462C13.3197 20.7313 13.575 20.5607 13.8559 20.4444C14.1369 20.3282 14.438 20.2684 14.742 20.2685H15.9V59.0485Z" fill="#F0D3A8" stroke="#45413C" stroke-linecap="round" stroke-linejoin="round"/>
<path d="M12.427 31.8445C17.1 43.5105 15.608 55.2025 12.3 56.6215L11.1 57.1355C10.892 57.2283 10.722 57.3894 10.618 57.592C10.514 57.7947 10.4823 58.0267 10.5282 58.2498C10.574 58.4729 10.6946 58.6737 10.8701 58.8189C11.0455 58.9641 11.2653 59.0451 11.493 59.0485H15.493C15.9096 59.0485 16.3216 58.9609 16.7021 58.7914C17.0827 58.6219 17.4234 58.3742 17.702 58.0645C19.173 56.4285 19.576 39.1915 15.902 31.8445H12.427Z" fill="white" stroke="#45413C" stroke-linecap="round" stroke-linejoin="round"/>
<path d="M45.344 39.6365C42.459 37.7425 43.844 33.7825 46.01 35.9475C48.175 33.7825 49.564 37.7415 46.676 39.6365C46.4779 39.7657 46.2465 39.8345 46.01 39.8345C45.7735 39.8345 45.5421 39.7657 45.344 39.6365Z" fill="#FF6242" stroke="#45413C" stroke-linecap="round" stroke-linejoin="round"/>
<path d="M46.01 23.7415V35.9475" stroke="#45413C" stroke-linecap="round" stroke-linejoin="round"/>
<path d="M57.574 59.0485H54.1V20.2685H55.573C56.1034 20.2685 56.6121 20.4792 56.9872 20.8543C57.3623 21.2294 57.573 21.7381 57.573 22.2685L57.574 59.0485Z" fill="#F0D3A8" stroke="#45413C" stroke-linecap="round" stroke-linejoin="round"/>
<path d="M59.452 57.7365C59.4072 57.6033 59.3348 57.4809 59.2395 57.3776C59.1442 57.2742 59.0282 57.192 58.899 57.1365L57.699 56.6225C54.515 55.2585 53.016 44.3675 57.078 33.1475C55.8754 33.2906 54.665 33.3574 53.454 33.3475C50.483 41.3025 50.923 56.5315 52.3 58.0645C52.5784 58.3742 52.9189 58.6219 53.2993 58.7914C53.6797 58.9609 54.0915 59.0485 54.508 59.0485H58.508C58.6657 59.0479 58.8211 59.0099 58.9613 58.9378C59.1016 58.8656 59.2228 58.7613 59.3151 58.6334C59.4073 58.5054 59.468 58.3575 59.4921 58.2016C59.5163 58.0458 59.5032 57.8864 59.454 57.7365H59.452Z" fill="white" stroke="#45413C" stroke-linecap="round" stroke-linejoin="round"/>
<path d="M12.768 30.5095C16.34 29.7785 29.286 26.7315 33.268 20.2685H36.741C36.741 20.2685 31.154 35.3415 12.861 33.1395C12.5809 33.1028 12.3236 32.9656 12.1372 32.7532C11.9508 32.5409 11.848 32.268 11.848 31.9855V31.6425C11.8471 31.3765 11.9382 31.1184 12.1059 30.9119C12.2736 30.7054 12.5075 30.5632 12.768 30.5095Z" fill="white" stroke="#45413C" stroke-linecap="round" stroke-linejoin="round"/>
<path d="M15.899 20.2685H54.101V23.7415H15.899V20.2685Z" fill="#F0D3A8"/>
<path d="M15.899 20.2685H54.101V22.0045H15.899V20.2685Z" fill="#FFF5E3"/>
<path d="M15.899 20.2685H54.101V23.7415H15.899V20.2685Z" stroke="#45413C" stroke-linecap="round" stroke-linejoin="round"/>
<path d="M57.259 30.4845C53.82 29.6665 41.411 26.3525 37.074 20.2025C36.9685 20.0466 36.8268 19.9186 36.661 19.8294C36.4952 19.7402 36.3102 19.6926 36.122 19.6905H35.062C34.863 19.6899 34.6672 19.7408 34.4935 19.8381C34.3199 19.9354 34.1743 20.0759 34.071 20.246C33.9676 20.4161 33.9098 20.61 33.9034 20.8089C33.8969 21.0078 33.9419 21.2051 34.034 21.3815C36.096 25.3645 42.607 34.8735 57.134 33.1405C57.4146 33.1041 57.6723 32.9668 57.8591 32.7542C58.0459 32.5417 58.1489 32.2684 58.149 31.9855V31.6125C58.1491 31.3518 58.0614 31.0986 57.8999 30.8939C57.7384 30.6893 57.5126 30.545 57.259 30.4845Z" fill="white" stroke="#45413C" stroke-linecap="round" stroke-linejoin="round"/>
<path d="M34.334 43.6365C31.449 41.7435 32.834 37.7835 35 39.9475C37.165 37.7835 38.554 41.7475 35.666 43.6365C35.4681 43.7662 35.2366 43.8353 35 43.8353C34.7634 43.8353 34.5319 43.7662 34.334 43.6365Z" fill="#FF6242" stroke="#45413C" stroke-linecap="round" stroke-linejoin="round"/>
<path d="M35 23.7415V39.9475" stroke="#45413C" stroke-linecap="round" stroke-linejoin="round"/>
<path d="M25.085 39.0575C22.2 37.1635 23.585 33.2035 25.752 35.3685C27.916 33.2035 29.306 37.1685 26.418 39.0575C26.2197 39.1867 25.9882 39.2554 25.7515 39.2554C25.5148 39.2554 25.2833 39.1867 25.085 39.0575Z" fill="#FF6242" stroke="#45413C" stroke-linecap="round" stroke-linejoin="round"/>
<path d="M25.752 23.7415V35.3685" stroke="#45413C" stroke-linecap="round" stroke-linejoin="round"/>
<path d="M47.077 69.4956H68.025V84.6356H47.077V69.4956Z" fill="#87898C"/>
<path d="M47.077 69.4956H68.025V74.4566H47.077V69.4956Z" fill="#45413C"/>
<path d="M68.025 84.6356V69.4956H47.077V84.6356" stroke="#45413C" stroke-linecap="round" stroke-linejoin="round"/>
<path d="M57.55 38.6255C55.7886 38.6241 54.0382 38.9022 52.364 39.4495L52.409 69.4955H62.694L62.738 39.4505C61.0632 38.903 59.3121 38.6245 57.55 38.6255Z" fill="white" stroke="#45413C" stroke-linecap="round" stroke-linejoin="round"/>
<path d="M47.077 62.8806H68.025V69.4956H47.077V62.8806Z" fill="#FF6242" stroke="#45413C" stroke-linecap="round" stroke-linejoin="round"/>
<path d="M47.078 65.0854H68.025" stroke="#45413C" stroke-linecap="round" stroke-linejoin="round"/>
<path d="M47.078 67.2905H68.059" stroke="#45413C" stroke-linecap="round" stroke-linejoin="round"/>
<path d="M57.551 44.1804V62.8804" stroke="#45413C" stroke-linecap="round" stroke-linejoin="round"/>
<path d="M61.41 39.0775V34.2155H53.692V39.0765C53.3587 39.1545 53.031 39.2425 52.709 39.3405L57.55 44.1805L62.39 39.3405C62.0667 39.2432 61.74 39.1555 61.41 39.0775Z" fill="#BF8256"/>
<path d="M61.41 34.2155H53.692V39.1345L55.015 39.5275C56.6704 40.0185 58.4326 40.0185 60.088 39.5275L61.41 39.1345V34.2155Z" fill="#BF8256"/>
<path d="M61.41 39.0775V34.2155H53.692V39.0765C53.3587 39.1545 53.031 39.2425 52.709 39.3405L57.55 44.1805L62.39 39.3405C62.0667 39.2432 61.74 39.1555 61.41 39.0775Z" stroke="#45413C" stroke-linecap="round" stroke-linejoin="round"/>
<path d="M74.089 55.2906C74.1142 51.7912 73.0303 48.3738 70.9929 45.5286C68.9554 42.6834 66.0691 40.5567 62.748 39.4536L60.725 52.9096C60.7732 58.1478 61.4702 63.3598 62.8 68.4266C62.916 68.8714 63.1626 69.2713 63.508 69.5746L66.875 72.5206C67.1615 72.7749 67.5308 72.9161 67.9138 72.9178C68.2968 72.9194 68.6674 72.7814 68.956 72.5296C70.5893 71.0557 71.8915 69.2521 72.7765 67.2378C73.6614 65.2236 74.1091 63.0446 74.09 60.8446V55.2896L74.089 55.2906Z" fill="#87898C"/>
<path d="M74.089 58.4646V55.2896C74.114 51.7904 73.03 48.3732 70.9926 45.5282C68.9551 42.6832 66.0689 40.5566 62.748 39.4536L62.292 42.4856C65.7216 43.5156 68.7249 45.6295 70.8518 48.5103C72.9787 51.3912 74.1145 54.8838 74.089 58.4646Z" fill="#87898C"/>
<path d="M74.089 55.2906C74.1142 51.7912 73.0303 48.3738 70.9929 45.5286C68.9554 42.6834 66.0691 40.5567 62.748 39.4536L60.725 52.9096C60.7732 58.1478 61.4702 63.3598 62.8 68.4266C62.916 68.8714 63.1626 69.2713 63.508 69.5746L66.875 72.5206C67.1615 72.7749 67.5308 72.9161 67.9138 72.9178C68.2968 72.9194 68.6674 72.7814 68.956 72.5296C70.5893 71.0557 71.8915 69.2521 72.7765 67.2378C73.6614 65.2236 74.1091 63.0446 74.09 60.8446V55.2896L74.089 55.2906Z" stroke="#45413C" stroke-linecap="round" stroke-linejoin="round"/>
<path d="M60.725 52.9096C60.7481 56.6536 61.1146 60.3876 61.82 64.0646L66.28 51.3226L63.9 45.7676L67.075 44.9746L66.445 41.1976C65.2881 40.4663 64.0454 39.8806 62.745 39.4536L60.725 52.9096Z" fill="#BDBEC0"/>
<path d="M60.725 52.9096C60.7481 56.6536 61.1146 60.3876 61.82 64.0646L66.28 51.3226L63.9 45.7676L67.075 44.9746L66.445 41.1976C65.2881 40.4663 64.0454 39.8806 62.745 39.4536L60.725 52.9096Z" stroke="#45413C" stroke-linejoin="round"/>
<path d="M68.025 51.3225V61.0395C68.025 63.8395 65.64 68.3525 63.506 69.5735" stroke="#45413C" stroke-linecap="round" stroke-linejoin="round"/>
<path d="M41.014 55.2906C40.9886 51.7912 42.0725 48.3737 44.1099 45.5285C46.1474 42.6832 49.0338 40.5566 52.355 39.4536L54.377 52.9096C54.3305 58.1476 53.6352 63.3596 52.307 68.4266C52.191 68.8714 51.9444 69.2713 51.599 69.5746L48.233 72.5206C47.9464 72.775 47.5769 72.9162 47.1937 72.9179C46.8105 72.9195 46.4398 72.7815 46.151 72.5296C44.5168 71.0561 43.2137 69.2527 42.3278 67.2385C41.442 65.2242 40.9935 63.045 41.012 60.8446V55.2896L41.014 55.2906Z" fill="#87898C"/>
<path d="M41.014 58.4646V55.2896C40.9888 51.7904 42.0728 48.3731 44.1102 45.528C46.1477 42.683 49.034 40.5565 52.355 39.4536L52.81 42.4856C49.3805 43.5157 46.3773 45.6296 44.2506 48.5104C42.1239 51.3913 40.9883 54.8839 41.014 58.4646Z" fill="#87898C"/>
<path d="M41.014 55.2906C40.9886 51.7912 42.0725 48.3737 44.1099 45.5285C46.1474 42.6832 49.0338 40.5566 52.355 39.4536L54.377 52.9096C54.3305 58.1476 53.6352 63.3596 52.307 68.4266C52.191 68.8714 51.9444 69.2713 51.599 69.5746L48.233 72.5206C47.9464 72.775 47.5769 72.9162 47.1937 72.9179C46.8105 72.9195 46.4398 72.7815 46.151 72.5296C44.5168 71.0561 43.2137 69.2527 42.3278 67.2385C41.442 65.2242 40.9935 63.045 41.012 60.8446V55.2896L41.014 55.2906Z" stroke="#45413C" stroke-linecap="round" stroke-linejoin="round"/>
<path d="M54.377 52.9096C54.3522 56.6538 53.984 60.3877 53.277 64.0646L48.822 51.3226L51.2 45.7676L48.026 44.9746L48.655 41.1976C49.8119 40.4662 51.0546 39.8804 52.355 39.4536L54.377 52.9096Z" fill="#BDBEC0"/>
<path d="M54.377 52.9096C54.3522 56.6538 53.984 60.3877 53.277 64.0646L48.822 51.3226L51.2 45.7676L48.026 44.9746L48.655 41.1976C49.8119 40.4662 51.0546 39.8804 52.355 39.4536L54.377 52.9096Z" stroke="#45413C" stroke-linejoin="round"/>
<path d="M47.077 51.3225V61.0395C47.077 63.8395 49.462 68.3525 51.596 69.5735" stroke="#45413C" stroke-linecap="round" stroke-linejoin="round"/>
<path d="M57.551 45.7675L58.477 44.9745C59.2275 44.255 60.1617 43.7561 61.177 43.5325C61.4091 43.4839 61.649 43.4875 61.8796 43.543C62.1101 43.5985 62.3254 43.7045 62.5099 43.8534C62.6944 44.0024 62.8435 44.1904 62.9464 44.404C63.0494 44.6176 63.1035 44.8514 63.105 45.0885V46.4475C63.1033 46.6844 63.0491 46.918 62.9462 47.1314C62.8432 47.3448 62.6942 47.5327 62.5098 47.6815C62.3254 47.8302 62.1103 47.9362 61.88 47.9917C61.6497 48.0473 61.4099 48.0509 61.178 48.0025C60.1626 47.7797 59.2283 47.2811 58.478 46.5615L57.551 45.7675Z" fill="#FF6242" stroke="#45413C" stroke-linejoin="round"/>
<path d="M57.551 45.7674L56.625 44.9744C55.8746 44.2547 54.9404 43.7558 53.925 43.5324C53.6931 43.4843 53.4535 43.4882 53.2234 43.544C52.9932 43.5997 52.7783 43.7058 52.5942 43.8547C52.41 44.0035 52.2612 44.1914 52.1584 44.4048C52.0557 44.6181 52.0016 44.8516 52 45.0884V46.4474C52.0018 46.684 52.056 46.9173 52.1587 47.1304C52.2615 47.3435 52.4102 47.5312 52.5942 47.6799C52.7782 47.8287 52.993 47.9347 53.2229 47.9905C53.4528 48.0462 53.6923 48.0503 53.924 48.0024C54.9394 47.7794 55.8736 47.2808 56.624 46.5614L57.551 45.7674Z" fill="#FF6242" stroke="#45413C" stroke-linejoin="round"/>
<path d="M55.964 45.7674C55.964 46.1883 56.1312 46.592 56.4288 46.8896C56.7264 47.1872 57.1301 47.3544 57.551 47.3544C57.9719 47.3544 58.3756 47.1872 58.6732 46.8896C58.9708 46.592 59.138 46.1883 59.138 45.7674C59.138 45.3465 58.9708 44.9429 58.6732 44.6452C58.3756 44.3476 57.9719 44.1804 57.551 44.1804C57.1301 44.1804 56.7264 44.3476 56.4288 44.6452C56.1312 44.9429 55.964 45.3465 55.964 45.7674Z" fill="#FF6242" stroke="#45413C" stroke-linejoin="round"/>
<path d="M68.576 23.1905V20.4345C68.576 17.5105 67.4144 14.7062 65.3469 12.6386C63.2793 10.571 60.475 9.40948 57.551 9.40948C54.627 9.40948 51.8227 10.571 49.7551 12.6386C47.6876 14.7062 46.526 17.5105 46.526 20.4345V23.1905C45.9412 23.1905 45.3803 23.4228 44.9668 23.8363C44.5533 24.2498 44.321 24.8107 44.321 25.3955C44.321 25.9803 44.5533 26.5411 44.9668 26.9547C45.3803 27.3682 45.9412 27.6005 46.526 27.6005C46.572 27.6005 46.616 27.5905 46.661 27.5875C47.051 30.1967 48.365 32.5792 50.3636 34.3013C52.3623 36.0234 54.9128 36.9706 57.551 36.9706C60.1892 36.9706 62.7398 36.0234 64.7384 34.3013C66.7371 32.5792 68.051 30.1967 68.441 27.5875C68.487 27.5875 68.53 27.6005 68.576 27.6005C69.1608 27.6005 69.7217 27.3682 70.1352 26.9547C70.5487 26.5411 70.781 25.9803 70.781 25.3955C70.781 24.8107 70.5487 24.2498 70.1352 23.8363C69.7217 23.4228 69.1608 23.1905 68.576 23.1905Z" fill="#BF8256" stroke="#45413C" stroke-linecap="round" stroke-linejoin="round"/>
<path d="M63.615 24.2935C63.4774 23.9673 63.2467 23.6889 62.9517 23.4932C62.6567 23.2975 62.3105 23.1931 61.9565 23.1931C61.6025 23.1931 61.2563 23.2975 60.9613 23.4932C60.6663 23.6889 60.4356 23.9673 60.298 24.2935" stroke="#45413C" stroke-linecap="round" stroke-linejoin="round"/>
<path d="M54.8 24.2935C54.6624 23.9673 54.4317 23.6889 54.1367 23.4932C53.8417 23.2975 53.4955 23.1931 53.1415 23.1931C52.7875 23.1931 52.4413 23.2975 52.1463 23.4932C51.8513 23.6889 51.6206 23.9673 51.483 24.2935" stroke="#45413C" stroke-linecap="round" stroke-linejoin="round"/>
<path d="M49.834 27.8765C49.834 28.2419 49.9792 28.5924 50.2376 28.8509C50.496 29.1093 50.8465 29.2545 51.212 29.2545C51.5775 29.2545 51.928 29.1093 52.1864 28.8509C52.4448 28.5924 52.59 28.2419 52.59 27.8765C52.59 27.511 52.4448 27.1605 52.1864 26.9021C51.928 26.6437 51.5775 26.4985 51.212 26.4985C50.8465 26.4985 50.496 26.6437 50.2376 26.9021C49.9792 27.1605 49.834 27.511 49.834 27.8765Z" fill="#BF8256"/>
<path d="M62.513 27.8765C62.513 28.2419 62.6582 28.5924 62.9166 28.8509C63.175 29.1093 63.5255 29.2545 63.891 29.2545C64.2565 29.2545 64.607 29.1093 64.8654 28.8509C65.1238 28.5924 65.269 28.2419 65.269 27.8765C65.269 27.511 65.1238 27.1605 64.8654 26.9021C64.607 26.6437 64.2565 26.4985 63.891 26.4985C63.5255 26.4985 63.175 26.6437 62.9166 26.9021C62.6582 27.1605 62.513 27.511 62.513 27.8765Z" fill="#BF8256"/>
<path d="M57.551 40.8305C59.2101 40.8534 60.8602 40.5826 62.425 40.0305C63.8717 39.4715 65.141 38.5332 66.0997 37.3141C67.0584 36.095 67.6709 34.6401 67.873 33.1025L68.429 27.6025H67.946C67.946 27.6025 66.371 31.4615 64.166 31.4615C61.893 31.4615 60.307 29.2615 57.551 29.2615C54.795 29.2615 53.209 31.4615 50.936 31.4615C48.736 31.4615 47.157 27.6025 47.157 27.6025H46.673L47.229 33.1025C47.4309 34.6405 48.0435 36.0956 49.0024 37.315C49.9612 38.5343 51.231 39.4727 52.678 40.0315C54.2425 40.5832 55.8922 40.8538 57.551 40.8305Z" fill="#614B44" stroke="#45413C" stroke-linecap="round" stroke-linejoin="round"/>
<path d="M57.551 35.3795C55.897 35.3795 54.795 36.4795 54.244 35.3795C53.355 33.6015 55.344 31.5205 57.551 31.5205C59.758 31.5205 61.751 33.6015 60.859 35.3795C60.307 36.4825 59.205 35.3795 57.551 35.3795Z" fill="#BF8256" stroke="#45413C" stroke-linecap="round" stroke-linejoin="round"/>
<path d="M58.678 9.46649C58.308 9.42949 57.932 9.40948 57.551 9.40948C57.17 9.40948 56.795 9.42949 56.424 9.46649C53.7091 9.74542 51.1941 11.0212 49.3654 13.0472C47.5367 15.0732 46.5243 17.7053 46.524 20.4345V23.1875C47.0035 23.2214 47.4523 23.4358 47.78 23.7874C48.1077 24.139 48.2899 24.6018 48.29 25.0825C48.7068 23.6255 48.7868 22.0929 48.524 20.6005C49.687 20.9885 51.598 19.3325 51.598 19.3325V16.6865C53.5245 17.3563 55.5222 17.8002 57.551 18.0095C59.5802 17.8003 61.5782 17.3563 63.505 16.6865V19.3325C63.505 19.3325 65.416 20.9885 66.578 20.6005C66.3158 22.0929 66.3958 23.6254 66.812 25.0825C66.812 24.6021 66.994 24.1396 67.3213 23.788C67.6486 23.4364 68.0969 23.2219 68.576 23.1875V20.4345C68.5757 17.7056 67.5636 15.0737 65.7354 13.0478C63.9071 11.0219 61.3926 9.74588 58.678 9.46649Z" fill="#A86C4D" stroke="#45413C" stroke-linecap="round" stroke-linejoin="round"/>
<path d="M54.14 18.8915C54.5999 19.1041 55.0973 19.224 55.6036 19.2444C56.1099 19.2647 56.6152 19.1852 57.0907 19.0102C57.5663 18.8353 58.0027 18.5684 58.3751 18.2247C58.7475 17.8811 59.0485 17.4675 59.261 17.0075C59.6862 16.0874 59.926 15.0927 59.9667 14.08C60.0073 13.0673 59.8481 12.0565 59.4981 11.1053C59.1482 10.1541 58.6142 9.28121 57.9268 8.53641C57.2395 7.7916 56.4121 7.1895 55.492 6.76448C54.6377 6.36976 53.714 6.14719 52.7737 6.10946C51.8333 6.07173 50.8948 6.2196 50.0116 6.5446C49.1284 6.86961 48.3179 7.3654 47.6263 8.00366C46.9347 8.64192 46.3757 9.41014 45.981 10.2645L44.594 13.2645C43.9 14.7645 41.587 14.3045 40.166 13.6485C39.9732 14.0637 39.8871 14.5206 39.9155 14.9775C39.9439 15.4345 40.0859 15.8771 40.3286 16.2654C40.5713 16.6536 40.9071 16.9751 41.3054 17.2007C41.7038 17.4263 42.1522 17.549 42.61 17.5575L42.282 18.2695C41.6315 19.6766 41.4549 21.2568 41.7786 22.7728C42.1023 24.2889 42.909 25.659 44.0774 26.6778C45.2459 27.6965 46.7133 28.3089 48.2593 28.4229C49.8053 28.537 51.3466 28.1467 52.652 27.3105L52.673 27.3215C51.7449 26.8919 51.0252 26.1115 50.672 25.1517C50.3187 24.192 50.3608 23.1312 50.789 22.2025L51.945 19.7025C52.0358 19.505 52.1646 19.3274 52.3241 19.1798C52.4836 19.0322 52.6706 18.9174 52.8744 18.8421C53.0783 18.7668 53.295 18.7324 53.5121 18.7409C53.7293 18.7493 53.9426 18.8005 54.14 18.8915Z" fill="#614B44"/>
<path d="M40.588 16.5355C42.009 17.1925 44.322 17.6535 45.016 16.1525L46.403 13.1525C46.7977 12.2982 47.3567 11.5299 48.0483 10.8917C48.7399 10.2534 49.5504 9.75763 50.4336 9.43262C51.3168 9.10761 52.2553 8.95975 53.1957 8.99747C54.136 9.0352 55.0597 9.25777 55.914 9.65249C56.8558 10.0867 57.6999 10.707 58.3956 11.4761C59.0913 12.2451 59.6241 13.147 59.962 14.1275C60.033 12.5952 59.6457 11.0765 58.8495 9.76536C58.0533 8.45422 56.8844 7.41016 55.492 6.76649C54.6377 6.37178 53.714 6.1492 52.7737 6.11147C51.8333 6.07375 50.8948 6.22161 50.0116 6.54662C49.1284 6.87162 48.3179 7.36741 47.6263 8.00567C46.9347 8.64393 46.3757 9.41216 45.981 10.2665L44.594 13.2665C43.9 14.7665 41.587 14.3065 40.166 13.6505C39.9466 14.1271 39.8681 14.6565 39.9399 15.1762C40.0117 15.6959 40.2306 16.1842 40.571 16.5835C40.578 16.5685 40.581 16.5515 40.588 16.5355Z" fill="#A86C4D"/>
<path d="M54.14 18.8915C54.5999 19.1041 55.0973 19.224 55.6036 19.2444C56.1099 19.2647 56.6152 19.1852 57.0907 19.0102C57.5663 18.8353 58.0027 18.5684 58.3751 18.2247C58.7475 17.8811 59.0485 17.4675 59.261 17.0075C59.6862 16.0874 59.926 15.0927 59.9667 14.08C60.0073 13.0673 59.8481 12.0565 59.4981 11.1053C59.1482 10.1541 58.6142 9.28121 57.9268 8.53641C57.2395 7.7916 56.4121 7.1895 55.492 6.76448C54.6377 6.36976 53.714 6.14719 52.7737 6.10946C51.8333 6.07173 50.8948 6.2196 50.0116 6.5446C49.1284 6.86961 48.3179 7.3654 47.6263 8.00366C46.9347 8.64192 46.3757 9.41014 45.981 10.2645L44.594 13.2645C43.9 14.7645 41.587 14.3045 40.166 13.6485C39.9732 14.0637 39.8871 14.5206 39.9155 14.9775C39.9439 15.4345 40.0859 15.8771 40.3286 16.2654C40.5713 16.6536 40.9071 16.9751 41.3054 17.2007C41.7038 17.4263 42.1522 17.549 42.61 17.5575L42.282 18.2695C41.6315 19.6766 41.4549 21.2568 41.7786 22.7728C42.1023 24.2889 42.909 25.659 44.0774 26.6778C45.2459 27.6965 46.7133 28.3089 48.2593 28.4229C49.8053 28.537 51.3466 28.1467 52.652 27.3105L52.673 27.3215C51.7449 26.8919 51.0252 26.1115 50.672 25.1517C50.3187 24.192 50.3608 23.1312 50.789 22.2025L51.945 19.7025C52.0358 19.505 52.1646 19.3274 52.3241 19.1798C52.4836 19.0322 52.6706 18.9174 52.8744 18.8421C53.0783 18.7668 53.295 18.7324 53.5121 18.7409C53.7293 18.7493 53.9426 18.8005 54.14 18.8915Z" stroke="#45413C" stroke-linecap="round" stroke-linejoin="round"/>
</svg>
