<svg viewBox="0 0 100 100" xmlns="http://www.w3.org/2000/svg" id="Hairstyle-Barber-15--Streamline-Ux" height="100" width="100"><desc>Hairstyle Barber 15 Streamline Illustration: https://streamlinehq.com</desc><path d="M90 59.646a40 40 0 1 0 -76.436 16.5h72.872A39.844 39.844 0 0 0 90 59.646Z" fill="#b8ecff" stroke-width="1"></path><path d="M13.564 76.146a40 40 0 0 0 72.872 0Z" fill="#f2dfc2" stroke-width="1"></path><path d="M23.6 65.854v10.292h7.144l0.231 -1.292a2.129 2.129 0 0 1 4.25 0l0.236 1.292 7.139 -0.016V65.854Z" fill="#8ca4b8" stroke-width="1"></path><path d="M23.6 65.854h19v3.5h-19z" fill="#627b8c" stroke-width="1"></path><path d="M48.6 50.354a15.5 15.5 0 0 0 -16.249 -15.482c-8.337 0.392 -14.751 7.574 -14.751 15.92v1.062a1 1 0 0 0 1 1h5v13h19v-13h5a1 1 0 0 0 1 -1Z" fill="#00dba8" stroke-width="1"></path><path d="M32.35 34.872c-8.336 0.392 -14.75 7.574 -14.75 15.92v1.062a0.977 0.977 0 0 0 0.193 0.559A15.691 15.691 0 0 1 32.35 38.872a15.492 15.492 0 0 1 16.1 13.469 0.968 0.968 0 0 0 0.145 -0.487v-1.5A15.5 15.5 0 0 0 32.35 34.872Z" fill="#00dba8" stroke-width="1"></path><path d="M48.6 50.354a15.5 15.5 0 0 0 -16.249 -15.482c-8.337 0.392 -14.751 7.574 -14.751 15.92v1.062a1 1 0 0 0 1 1h5v13h19v-13h5a1 1 0 0 0 1 -1Z" fill="none" stroke="#45413c" stroke-linecap="round" stroke-linejoin="round" stroke-width="1"></path><path d="m23.6 48.854 0 4" fill="none" stroke="#45413c" stroke-linecap="round" stroke-linejoin="round" stroke-width="1"></path><path d="M29.6 35.354a3.5 3.5 0 0 0 7 0v-3.5h-7Z" fill="#ffdb94" stroke-width="1"></path><path d="M29.6 35.34a12.173 12.173 0 0 0 7 0v-3.486h-7Z" fill="#ffbe3d" stroke-width="1"></path><path d="M29.6 35.354v-3.5h7v3.5a3.5 3.5 0 0 1 -7 0Z" fill="none" stroke="#45413c" stroke-linecap="round" stroke-linejoin="round" stroke-width="1"></path><path d="M47.6 52.854a2 2 0 0 0 2 2h10.5a2.5 2.5 0 1 1 0 5H49.6a7 7 0 0 1 -7 -7Z" fill="#ffdb94" stroke="#45413c" stroke-linecap="round" stroke-linejoin="round" stroke-width="1"></path><path d="m36.6 54.515 0 21.636" fill="none" stroke="#45413c" stroke-linecap="round" stroke-linejoin="round" stroke-width="1"></path><path d="m38.314 52.832 -1.4 1.425a2 2 0 0 1 -2.829 0.022l-4.988 -4.911 4.21 -4.275L38.292 50a2 2 0 0 1 0.022 2.832Z" fill="#adc4d9" stroke="#45413c" stroke-linecap="round" stroke-linejoin="round" stroke-width="1"></path><path d="m36.911 54.257 1.4 -1.425A2 2 0 0 0 38.292 50l-1.644 -1.619a6.837 6.837 0 0 0 -4.209 4.276l1.643 1.618a2 2 0 0 0 2.829 -0.018Z" fill="#87898c" stroke="#45413c" stroke-linecap="round" stroke-linejoin="round" stroke-width="1"></path><path d="M29.094 49.368 26.6 46.913" fill="none" stroke="#45413c" stroke-linecap="round" stroke-linejoin="round" stroke-width="1"></path><path d="m33.304 45.093 -2.495 -2.456" fill="none" stroke="#45413c" stroke-linecap="round" stroke-linejoin="round" stroke-width="1"></path><path d="m27.6691494077 47.9650532191 4.2094870537 -4.2755372463 1.4251790821 1.4031623512 -4.2094870537 4.2755372464z" fill="#daedf7" stroke="#45413c" stroke-linecap="round" stroke-linejoin="round" stroke-width="1"></path><path d="m28.003 45.487 1.069 1.053" fill="none" stroke="#45413c" stroke-linecap="round" stroke-linejoin="round" stroke-width="1"></path><path d="m29.406 44.062 1.069 1.053" fill="none" stroke="#45413c" stroke-linecap="round" stroke-linejoin="round" stroke-width="1"></path><path d="M34.6 52.854v-0.5a2.5 2.5 0 0 0 -5 0v0.5a3 3 0 0 1 -6 0h-5a8 8 0 0 0 16 0Z" fill="#ffdb94" stroke="#45413c" stroke-linecap="round" stroke-linejoin="round" stroke-width="1"></path><path d="m23.6 48.854 0 4" fill="none" stroke="#45413c" stroke-linecap="round" stroke-linejoin="round" stroke-width="1"></path><path d="m42.6 48.854 0 4" fill="none" stroke="#45413c" stroke-linecap="round" stroke-linejoin="round" stroke-width="1"></path><path d="M43.1 21.354v-2.5a10 10 0 0 0 -20 0v2.5a2 2 0 0 0 0 4c0.042 0 0.081 -0.01 0.123 -0.012a9.987 9.987 0 0 0 19.755 0c0.041 0 0.08 0.012 0.122 0.012a2 2 0 1 0 0 -4Z" fill="#ffdb94" stroke="#45413c" stroke-linecap="round" stroke-linejoin="round" stroke-width="1"></path><path d="M38.6 22.354a1.629 1.629 0 0 0 -3.008 0" fill="none" stroke="#45413c" stroke-linecap="round" stroke-linejoin="round" stroke-width="1"></path><path d="M30.609 22.354a1.63 1.63 0 0 0 -3.009 0" fill="none" stroke="#45413c" stroke-linecap="round" stroke-linejoin="round" stroke-width="1"></path><path d="M26.1 26.021a1.25 1.111 0 1 0 2.5 0 1.25 1.111 0 1 0 -2.5 0Z" fill="#ffbe3d" stroke-width="1"></path><path d="M37.6 26.021a1.25 1.111 0 1 0 2.5 0 1.25 1.111 0 1 0 -2.5 0Z" fill="#ffbe3d" stroke-width="1"></path><path d="M30.1 28.354a4.35 4.35 0 0 0 6 0" fill="none" stroke="#45413c" stroke-linecap="round" stroke-linejoin="round" stroke-width="1"></path><path d="M41.93 11.092a1.917 1.917 0 0 0 0.17 -0.738c0 -3.866 -2.891 -7 -8 -7 -1 0 -5.963 0.853 -5 -3 -6 2.5 -5.5 10 -5.5 10a2.148 2.148 0 0 0 0.323 1.034c-1.233 1.136 -3.485 4.141 -0.823 9.466a11.043 11.043 0 0 0 3 -7l-0.285 -0.569a12.788 12.788 0 0 0 7.035 2.069 12.884 12.884 0 0 0 6.756 -1.889c0.064 3.953 3.494 7.389 3.494 7.389 2.947 -5.894 -0.123 -8.943 -1.17 -9.762Z" fill="#614b44" stroke-width="1"></path><path d="M22.623 19.79c-0.006 -0.145 -0.023 -0.289 -0.023 -0.436a10.259 10.259 0 0 1 10.5 -10 10.259 10.259 0 0 1 10.5 10c0 0.15 -0.017 0.3 -0.023 0.445 2.1 -5.2 -0.665 -7.938 -1.647 -8.707a1.917 1.917 0 0 0 0.17 -0.738c0 -3.866 -2.891 -7 -8 -7 -1 0 -5.963 0.853 -5 -3 -6 2.5 -5.5 10 -5.5 10a2.148 2.148 0 0 0 0.323 1.034c-1.148 1.058 -3.176 3.739 -1.3 8.402Z" fill="#947063" stroke-width="1"></path><path d="M41.93 11.092a1.917 1.917 0 0 0 0.17 -0.738c0 -3.866 -2.891 -7 -8 -7 -1 0 -5.963 0.853 -5 -3 -6 2.5 -5.5 10 -5.5 10a2.148 2.148 0 0 0 0.323 1.034c-1.233 1.136 -3.485 4.141 -0.823 9.466a11.043 11.043 0 0 0 3 -7l-0.285 -0.569a12.788 12.788 0 0 0 7.035 2.069 12.884 12.884 0 0 0 6.756 -1.889c0.064 3.953 3.494 7.389 3.494 7.389 2.947 -5.894 -0.123 -8.943 -1.17 -9.762Z" fill="none" stroke="#45413c" stroke-linecap="round" stroke-linejoin="round" stroke-width="1"></path><path d="M23.6 65.854v10.292h7.144l0.231 -1.292a2.129 2.129 0 0 1 4.25 0l0.236 1.292 7.139 -0.016V65.854Z" fill="none" stroke="#45413c" stroke-linecap="round" stroke-linejoin="round" stroke-width="1"></path><path d="M39.445 76.138c2.777 -9.941 8.78 -16.5 20.555 -16.5s17.778 6.559 20.555 16.5Z" fill="#ff6242" stroke-width="1"></path><path d="M39.445 76.138c2.776 -9.941 8.78 -16.5 20.555 -16.5s17.779 6.559 20.555 16.5h-1.278c-3.189 -8.8 -9.059 -12.5 -19.277 -12.5s-16.088 3.7 -19.277 12.5Z" fill="#ff6242" stroke-width="1"></path><path d="M39.445 76.138c2.777 -9.941 8.78 -16.5 20.555 -16.5s17.778 6.559 20.555 16.5" fill="none" stroke="#45413c" stroke-linecap="round" stroke-linejoin="round" stroke-width="1"></path><path d="M56.5 60.138a3.5 3.5 0 1 0 7 0v-3.5h-7Z" fill="#bf8256" stroke-width="1"></path><path d="M56.5 60.124a12.173 12.173 0 0 0 7 0v-3.486h-7Z" fill="#bf8256" stroke-width="1"></path><path d="M56.5 60.138v-3.5h7v3.5a3.5 3.5 0 1 1 -7 0Z" fill="none" stroke="#45413c" stroke-linecap="round" stroke-linejoin="round" stroke-width="1"></path><path d="M70 46.138v-2.5a10 10 0 0 0 -20 0v2.5a2 2 0 0 0 0 4c0.042 0 0.081 -0.01 0.123 -0.012a9.986 9.986 0 0 0 19.754 0c0.042 0 0.081 0.012 0.123 0.012a2 2 0 0 0 0 -4Z" fill="#bf8256" stroke="#45413c" stroke-linecap="round" stroke-linejoin="round" stroke-width="1"></path><path d="M65.5 47.138a1.629 1.629 0 0 0 -3.008 0" fill="none" stroke="#45413c" stroke-linecap="round" stroke-linejoin="round" stroke-width="1"></path><path d="M57.508 47.138a1.629 1.629 0 0 0 -3.008 0" fill="none" stroke="#45413c" stroke-linecap="round" stroke-linejoin="round" stroke-width="1"></path><path d="M53 50.388a1.25 1.25 0 1 0 2.5 0 1.25 1.25 0 1 0 -2.5 0Z" fill="#bf8256" stroke-width="1"></path><path d="M64.5 50.388a1.25 1.25 0 1 0 2.5 0 1.25 1.25 0 1 0 -2.5 0Z" fill="#bf8256" stroke-width="1"></path><path d="M61.023 33.69a10.089 10.089 0 0 0 -2.046 0A10 10 0 0 0 50 43.638v2.5a1.725 1.725 0 0 1 1.6 1.719 9.072 9.072 0 0 0 0.212 -4.065c1.055 0.351 2.788 -1.151 2.788 -1.151v-2.4a23.919 23.919 0 0 0 5.4 1.2 23.919 23.919 0 0 0 5.4 -1.2v2.4s1.733 1.5 2.787 1.151a9.08 9.08 0 0 0 0.213 4.065 1.725 1.725 0 0 1 1.6 -1.722v-2.5a10 10 0 0 0 -8.977 -9.945Z" fill="#947063" stroke="#45413c" stroke-linecap="round" stroke-linejoin="round" stroke-width="1"></path><path d="M73.89 32.2a1.477 1.477 0 0 0 -0.288 -1.568 1.5 1.5 0 0 0 -0.1 -2.99 1.478 1.478 0 0 0 -0.735 0.2 1.5 1.5 0 0 0 -1.265 -0.7 1.5 1.5 0 0 0 -2.765 -0.8 1.478 1.478 0 0 0 -0.735 -0.2c-0.032 0 -0.063 0.008 -0.095 0.01a1.494 1.494 0 1 0 -2.816 -1c-0.03 0 -0.059 -0.009 -0.089 -0.009a1.478 1.478 0 0 0 -0.735 0.2 1.5 1.5 0 0 0 -1.265 -0.7 1.494 1.494 0 0 0 -2.648 -0.954 1.37 1.37 0 0 0 -0.7 0 1.494 1.494 0 0 0 -2.654 0.949 1.5 1.5 0 0 0 -1.265 0.7 1.478 1.478 0 0 0 -0.735 -0.2c-0.03 0 -0.059 0.007 -0.089 0.009a1.495 1.495 0 1 0 -2.816 1c-0.032 0 -0.063 -0.01 -0.095 -0.01a1.478 1.478 0 0 0 -0.735 0.2 1.5 1.5 0 0 0 -2.765 0.8 1.5 1.5 0 0 0 -1.265 0.7 1.478 1.478 0 0 0 -0.735 -0.2 1.5 1.5 0 0 0 -0.1 2.99 1.477 1.477 0 0 0 -0.29 1.573 1.5 1.5 0 1 0 1.223 2.689 9.568 9.568 0 0 1 3.189 5.588c0.02 0.106 4.078 -0.235 4.078 -0.235s0.533 0.18 1.29 0.4a17.733 17.733 0 0 0 4.11 0.8 17.733 17.733 0 0 0 4.11 -0.8c0.757 -0.22 1.29 -0.4 1.29 -0.4s4.058 0.341 4.078 0.235a9.568 9.568 0 0 1 3.189 -5.588A1.5 1.5 0 1 0 73.89 32.2Z" fill="#614b44" stroke-width="1"></path><path d="M73.89 32.2a1.477 1.477 0 0 0 -0.288 -1.568 1.5 1.5 0 0 0 -0.1 -2.99 1.478 1.478 0 0 0 -0.735 0.2 1.5 1.5 0 0 0 -1.265 -0.7 1.5 1.5 0 0 0 -2.765 -0.8 1.478 1.478 0 0 0 -0.735 -0.2c-0.032 0 -0.063 0.008 -0.095 0.01a1.494 1.494 0 1 0 -2.816 -1c-0.03 0 -0.059 -0.009 -0.089 -0.009a1.478 1.478 0 0 0 -0.735 0.2 1.5 1.5 0 0 0 -1.265 -0.7 1.494 1.494 0 0 0 -2.648 -0.954 1.37 1.37 0 0 0 -0.7 0 1.494 1.494 0 0 0 -2.654 0.949 1.5 1.5 0 0 0 -1.265 0.7 1.478 1.478 0 0 0 -0.735 -0.2c-0.03 0 -0.059 0.007 -0.089 0.009a1.495 1.495 0 1 0 -2.816 1c-0.032 0 -0.063 -0.01 -0.095 -0.01a1.478 1.478 0 0 0 -0.735 0.2 1.5 1.5 0 0 0 -2.765 0.8 1.5 1.5 0 0 0 -1.265 0.7 1.478 1.478 0 0 0 -0.735 -0.2 1.5 1.5 0 0 0 -0.1 2.99 1.477 1.477 0 0 0 -0.29 1.573 1.5 1.5 0 1 0 1.223 2.689c0.041 0.032 0.073 0.07 0.114 0.1a1.225 1.225 0 0 1 0.181 -0.082 1.315 1.315 0 0 1 0.257 -1.4 1.333 1.333 0 1 1 0.745 -2.485 1.333 1.333 0 0 1 1.127 -0.623 1.334 1.334 0 0 1 2.462 -0.713 1.328 1.328 0 0 1 0.656 -0.178c0.028 0 0.056 0.007 0.083 0.009a1.331 1.331 0 1 1 2.509 -0.892c0.027 0 0.053 -0.008 0.079 -0.008a1.321 1.321 0 0 1 0.655 0.178 1.334 1.334 0 0 1 1.127 -0.623 1.331 1.331 0 0 1 2.359 -0.85 1.215 1.215 0 0 1 0.626 0 1.331 1.331 0 0 1 2.359 0.85 1.334 1.334 0 0 1 1.128 0.628 1.321 1.321 0 0 1 0.655 -0.178c0.026 0 0.052 0.007 0.079 0.008a1.332 1.332 0 1 1 2.509 0.892c0.027 0 0.055 -0.009 0.083 -0.009a1.328 1.328 0 0 1 0.656 0.178 1.334 1.334 0 0 1 2.462 0.713 1.333 1.333 0 0 1 1.127 0.623 1.32 1.32 0 0 1 0.654 -0.178 1.333 1.333 0 0 1 0.091 2.663 1.315 1.315 0 0 1 0.257 1.4 1.18 1.18 0 0 1 0.181 0.082c0.041 -0.033 0.073 -0.071 0.114 -0.1A1.5 1.5 0 1 0 73.89 32.2Z" fill="#947063" stroke-width="1"></path><path d="M73.89 32.2a1.477 1.477 0 0 0 -0.288 -1.568 1.5 1.5 0 0 0 -0.1 -2.99 1.478 1.478 0 0 0 -0.735 0.2 1.5 1.5 0 0 0 -1.265 -0.7 1.5 1.5 0 0 0 -2.765 -0.8 1.478 1.478 0 0 0 -0.735 -0.2c-0.032 0 -0.063 0.008 -0.095 0.01a1.494 1.494 0 1 0 -2.816 -1c-0.03 0 -0.059 -0.009 -0.089 -0.009a1.478 1.478 0 0 0 -0.735 0.2 1.5 1.5 0 0 0 -1.265 -0.7 1.494 1.494 0 0 0 -2.648 -0.954 1.37 1.37 0 0 0 -0.7 0 1.494 1.494 0 0 0 -2.654 0.949 1.5 1.5 0 0 0 -1.265 0.7 1.478 1.478 0 0 0 -0.735 -0.2c-0.03 0 -0.059 0.007 -0.089 0.009a1.495 1.495 0 1 0 -2.816 1c-0.032 0 -0.063 -0.01 -0.095 -0.01a1.478 1.478 0 0 0 -0.735 0.2 1.5 1.5 0 0 0 -2.765 0.8 1.5 1.5 0 0 0 -1.265 0.7 1.478 1.478 0 0 0 -0.735 -0.2 1.5 1.5 0 0 0 -0.1 2.99 1.477 1.477 0 0 0 -0.29 1.573 1.5 1.5 0 1 0 1.223 2.689 9.568 9.568 0 0 1 3.189 5.588c0.02 0.106 4.078 -0.235 4.078 -0.235s0.533 0.18 1.29 0.4a17.733 17.733 0 0 0 4.11 0.8 17.733 17.733 0 0 0 4.11 -0.8c0.757 -0.22 1.29 -0.4 1.29 -0.4s4.058 0.341 4.078 0.235a9.568 9.568 0 0 1 3.189 -5.588A1.5 1.5 0 1 0 73.89 32.2Z" fill="none" stroke="#45413c" stroke-linecap="round" stroke-linejoin="round" stroke-width="1"></path><path d="M70.963 57.813 69.947 53.3c0.458 -1.793 0.365 -3.163 -0.08 -3.163h-0.439a2.015 2.015 0 0 0 -1.914 1.428c-0.361 1.152 -0.86 1.963 -1.514 2.072 -2.034 0.339 -3.5 -2 -6 -2s-3.966 2.339 -6 2c-0.654 -0.109 -1.153 -0.92 -1.514 -2.072a2.015 2.015 0 0 0 -1.914 -1.428h-0.439c-0.445 0 -0.538 1.37 -0.08 3.163l-1.016 4.512a1.5 1.5 0 0 0 1.134 1.792 1.478 1.478 0 0 0 0.919 -0.088l-0.26 1.269a1.494 1.494 0 0 0 2.377 1.488 1.491 1.491 0 0 0 2.88 0.457l-0.079 1.1a1.5 1.5 0 0 0 2.484 1.237v0.324a1.5 1.5 0 0 0 3 0v-0.342a1.5 1.5 0 0 0 2.5 -1.219l-0.079 -1.1a1.491 1.491 0 0 0 2.88 -0.457 1.494 1.494 0 0 0 2.377 -1.488l-0.26 -1.269a1.478 1.478 0 0 0 0.919 0.088 1.5 1.5 0 0 0 1.134 -1.791Z" fill="#614b44" stroke="#45413c" stroke-linecap="round" stroke-linejoin="round" stroke-width="1"></path><path d="M60 57.194c-1.5 0 -2.5 1 -3 0 -0.806 -1.613 1 -3.5 3 -3.5s3.806 1.887 3 3.5c-0.5 1 -1.5 0 -3 0Z" fill="#bf8256" stroke="#45413c" stroke-linecap="round" stroke-linejoin="round" stroke-width="1"></path><path d="M60 55.138c3.325 0 6.65 5.866 11.689 0.452a0.3 0.3 0 0 0 -0.324 -0.493C66.035 56.915 66.1 51.638 60 51.638s-6.035 5.277 -11.365 3.462a0.3 0.3 0 0 0 -0.324 0.493C53.35 61 56.675 55.138 60 55.138Z" fill="#614b44" stroke="#45413c" stroke-linecap="round" stroke-linejoin="round" stroke-width="1"></path><path d="m11 76.146 78 0" fill="none" stroke="#45413c" stroke-linecap="round" stroke-linejoin="round" stroke-width="1"></path><path d="m6.5 76.146 2.5 0" fill="none" stroke="#45413c" stroke-linecap="round" stroke-linejoin="round" stroke-width="1"></path><path d="m91 76.146 2.5 0" fill="none" stroke="#45413c" stroke-linecap="round" stroke-linejoin="round" stroke-width="1"></path></svg>