<svg width="100" height="100" viewBox="0 0 100 100" fill="none" xmlns="http://www.w3.org/2000/svg">
<path d="M9.924 50C9.924 60.6087 14.1383 70.7828 21.6397 78.2843C29.1412 85.7857 39.3153 90 49.924 90C60.5327 90 70.7068 85.7857 78.2083 78.2843C85.7097 70.7828 89.924 60.6087 89.924 50C89.924 39.3913 85.7097 29.2172 78.2083 21.7157C70.7068 14.2143 60.5327 10 49.924 10C39.3153 10 29.1412 14.2143 21.6397 21.7157C14.1383 29.2172 9.924 39.3913 9.924 50Z" fill="#DAEDF7" stroke="#DAEDF7"/>
<path opacity="0.15" d="M25.762 74.587C25.762 75.1132 27.8823 75.6179 31.6565 75.9899C35.4306 76.362 40.5495 76.571 45.887 76.571C51.2245 76.571 56.3433 76.362 60.1175 75.9899C63.8917 75.6179 66.012 75.1132 66.012 74.587C66.012 74.0608 63.8917 73.5562 60.1175 73.1841C56.3433 72.8121 51.2245 72.603 45.887 72.603C40.5495 72.603 35.4306 72.8121 31.6565 73.1841C27.8823 73.5562 25.762 74.0608 25.762 74.587Z" fill="#45413C"/>
<path opacity="0.15" d="M66.587 79.389C66.587 79.9152 67.5563 80.4199 69.2816 80.7919C71.007 81.164 73.347 81.373 75.787 81.373C78.227 81.373 80.5671 81.164 82.2924 80.7919C84.0177 80.4199 84.987 79.9152 84.987 79.389C84.987 78.8628 84.0177 78.3582 82.2924 77.9861C80.5671 77.6141 78.227 77.405 75.787 77.405C73.347 77.405 71.007 77.6141 69.2816 77.9861C67.5563 78.3582 66.587 78.8628 66.587 79.389Z" fill="#45413C"/>
<path d="M81.035 31.8C79.7055 31.4925 78.497 30.7976 77.5624 29.8033C76.6278 28.8091 76.0089 27.56 75.7842 26.214C75.5594 24.868 75.7388 23.4857 76.2996 22.2416C76.8604 20.9976 77.7776 19.9478 78.935 19.225C79.1272 19.1006 79.3421 19.0158 79.5674 18.9754C79.7927 18.9349 80.0237 18.9397 80.2471 18.9895C80.4705 19.0393 80.6818 19.133 80.8686 19.2652C81.0554 19.3974 81.2141 19.5655 81.3353 19.7596C81.4565 19.9538 81.5379 20.1701 81.5747 20.396C81.6114 20.6219 81.6029 20.8528 81.5496 21.0754C81.4962 21.298 81.3991 21.5077 81.2639 21.6923C81.1287 21.877 80.9581 22.0329 80.762 22.151C79.9859 22.6354 79.434 23.4083 79.2277 24.2997C79.0215 25.191 79.1777 26.1278 79.662 26.904C80.1616 27.6624 80.9341 28.1994 81.8191 28.4035C82.7041 28.6075 83.6337 28.463 84.415 28C84.7994 27.7602 85.1328 27.447 85.3961 27.0783C85.6594 26.7097 85.8475 26.2927 85.9497 25.8514C86.0518 25.41 86.066 24.9528 85.9914 24.5059C85.9168 24.0591 85.755 23.6313 85.515 23.247C85.3907 23.0548 85.3058 22.8398 85.2654 22.6146C85.225 22.3893 85.2298 22.1582 85.2795 21.9348C85.3293 21.7114 85.423 21.5002 85.5552 21.3134C85.6874 21.1265 85.8555 20.9679 86.0497 20.8467C86.2438 20.7255 86.4601 20.6441 86.686 20.6073C86.9119 20.5705 87.1428 20.5791 87.3654 20.6324C87.588 20.6858 87.7977 20.7829 87.9824 20.9181C88.167 21.0533 88.3229 21.2239 88.441 21.42C89.1646 22.5775 89.5286 23.9236 89.4869 25.288C89.4453 26.6525 88.9999 27.9739 88.207 29.0851C87.4142 30.1963 86.3096 31.0474 85.0329 31.5306C83.7563 32.0139 82.3649 32.1076 81.035 31.8Z" fill="#87898C" stroke="#45413C" stroke-linecap="round" stroke-linejoin="round"/>
<path d="M67.325 45.153C66.6537 44.9977 66.0605 44.6067 65.6533 44.051C65.246 43.4952 65.0518 42.8118 65.1059 42.125C65.1601 41.4381 65.459 40.7935 65.9483 40.3085C66.4376 39.8234 67.0847 39.5301 67.772 39.482C68.21 39.448 77.486 38.567 79.095 27.461C79.2043 26.7063 79.6089 26.026 80.2198 25.5696C80.8307 25.1132 81.5978 24.9182 82.3525 25.0275C83.1072 25.1368 83.7875 25.5413 84.2439 26.1522C84.7003 26.7631 84.8953 27.5303 84.786 28.285C82.951 40.95 73.107 44.9 68.158 45.22C67.8786 45.2384 67.5979 45.2158 67.325 45.153Z" fill="#ADC4D9" stroke="#45413C" stroke-linecap="round" stroke-linejoin="round"/>
<path d="M72.817 37.733C73.62 38.2674 74.241 39.0339 74.5973 39.9302C74.9535 40.8266 75.0281 41.8102 74.811 42.75C74.7673 42.9392 74.7122 43.1255 74.646 43.308" stroke="#45413C" stroke-linecap="round" stroke-linejoin="round"/>
<path d="M76.7 34.039C77.7469 34.1602 78.7236 34.6267 79.4758 35.3648C80.2281 36.1029 80.713 37.0706 80.854 38.115" stroke="#45413C" stroke-linecap="round" stroke-linejoin="round"/>
<path d="M78.577 29.91C79.5738 29.5725 80.6545 29.5759 81.6491 29.9199C82.6437 30.2639 83.4957 30.9288 84.071 31.81" stroke="#45413C" stroke-linecap="round" stroke-linejoin="round"/>
<path d="M12.362 31.8C13.6915 31.4925 14.9 30.7976 15.8346 29.8033C16.7692 28.8091 17.3881 27.56 17.6128 26.214C17.8376 24.868 17.6582 23.4857 17.0974 22.2416C16.5366 20.9976 15.6194 19.9478 14.462 19.225C14.2698 19.1006 14.0549 19.0158 13.8296 18.9754C13.6043 18.9349 13.3733 18.9397 13.1499 18.9895C12.9265 19.0393 12.7152 19.133 12.5284 19.2652C12.3416 19.3974 12.1829 19.5655 12.0617 19.7596C11.9405 19.9538 11.8591 20.1701 11.8223 20.396C11.7855 20.6219 11.7941 20.8528 11.8474 21.0754C11.9008 21.298 11.9979 21.5077 12.1331 21.6923C12.2683 21.877 12.4389 22.0329 12.635 22.151C13.4111 22.6354 13.963 23.4083 14.1693 24.2997C14.3755 25.191 14.2193 26.1278 13.735 26.904C13.2353 27.6627 12.4627 28.1998 11.5775 28.4039C10.6922 28.608 9.7624 28.4633 8.981 28C8.59661 27.7602 8.26324 27.447 7.99992 27.0783C7.73659 26.7097 7.54848 26.2927 7.44633 25.8514C7.34418 25.41 7.32999 24.9528 7.40457 24.5059C7.47915 24.0591 7.64105 23.6313 7.881 23.247C8.12327 22.8591 8.20154 22.3909 8.09858 21.9453C7.99563 21.4997 7.71988 21.1133 7.332 20.871C6.94412 20.6287 6.47588 20.5504 6.0303 20.6534C5.58471 20.7563 5.19827 21.0321 4.956 21.42C4.23241 22.5775 3.86841 23.9236 3.91006 25.288C3.95171 26.6525 4.39713 27.9739 5.18997 29.0851C5.9828 30.1963 7.08743 31.0474 8.36409 31.5306C9.64075 32.0139 11.0321 32.1076 12.362 31.8Z" fill="#87898C" stroke="#45413C" stroke-linecap="round" stroke-linejoin="round"/>
<path d="M26.071 45.153C26.7423 44.9977 27.3355 44.6067 27.7427 44.051C28.15 43.4952 28.3442 42.8118 28.2901 42.125C28.2359 41.4381 27.937 40.7935 27.4477 40.3085C26.9584 39.8234 26.3113 39.5301 25.624 39.482C25.186 39.448 15.911 38.567 14.301 27.461C14.1917 26.7063 13.7872 26.026 13.1763 25.5696C12.5654 25.1132 11.7982 24.9182 11.0435 25.0275C10.2888 25.1368 9.60848 25.5413 9.15211 26.1522C8.69574 26.7631 8.50074 27.5303 8.61001 28.285C10.445 40.95 20.289 44.9 25.238 45.22C25.5175 45.2384 25.7981 45.2158 26.071 45.153Z" fill="#ADC4D9" stroke="#45413C" stroke-linecap="round" stroke-linejoin="round"/>
<path d="M20.579 37.733C19.776 38.2674 19.155 39.0339 18.7987 39.9302C18.4425 40.8266 18.3679 41.8102 18.585 42.75C18.629 42.9392 18.6844 43.1256 18.751 43.308" stroke="#45413C" stroke-linecap="round" stroke-linejoin="round"/>
<path d="M16.7 34.039C15.6533 34.1607 14.6769 34.6274 13.9247 35.3654C13.1726 36.1034 12.6875 37.0708 12.546 38.115" stroke="#45413C" stroke-linecap="round" stroke-linejoin="round"/>
<path d="M14.819 29.91C13.8222 29.5725 12.7415 29.5759 11.7469 29.9199C10.7523 30.2639 9.9003 30.9288 9.325 31.81" stroke="#45413C" stroke-linecap="round" stroke-linejoin="round"/>
<path d="M25.187 25.453H66.587V73.753H25.187V25.453Z" fill="white" stroke="white"/>
<path d="M30.937 55.353C30.937 57.3163 31.3237 59.2603 32.075 61.0741C32.8263 62.8879 33.9275 64.536 35.3158 65.9243C36.704 67.3125 38.3521 68.4137 40.1659 69.165C41.9797 69.9163 43.9237 70.303 45.887 70.303C47.8503 70.303 49.7943 69.9163 51.6081 69.165C53.4219 68.4137 55.07 67.3125 56.4582 65.9243C57.8465 64.536 58.9477 62.8879 59.699 61.0741C60.4503 59.2603 60.837 57.3163 60.837 55.353C60.837 53.3898 60.4503 51.4457 59.699 49.6319C58.9477 47.8181 57.8465 46.17 56.4582 44.7818C55.07 43.3935 53.4219 42.2923 51.6081 41.541C49.7943 40.7897 47.8503 40.403 45.887 40.403C43.9237 40.403 41.9797 40.7897 40.1659 41.541C38.3521 42.2923 36.704 43.3935 35.3158 44.7818C33.9275 46.17 32.8263 47.8181 32.075 49.6319C31.3237 51.4457 30.937 53.3898 30.937 55.353Z" fill="#DAEDF7"/>
<path d="M34.387 55.353C34.387 56.268 34.0235 57.1455 33.3765 57.7925C32.7295 58.4395 31.852 58.803 30.937 58.803H25.187V42.7H30.937C31.852 42.7 32.7295 43.0635 33.3765 43.7105C34.0235 44.3575 34.387 45.235 34.387 46.15V55.353Z" fill="#ADC4D9"/>
<path d="M66.369 28.65H51.292C50.3777 28.6528 49.5015 29.0165 48.854 29.662L46.048 32.468C45.7289 32.7898 45.3491 33.045 44.9306 33.2187C44.512 33.3924 44.0632 33.4813 43.61 33.48H25.187V30.053C25.187 28.833 25.6716 27.663 26.5343 26.8003C27.397 25.9376 28.567 25.453 29.787 25.453H61.987C62.9615 25.4548 63.9103 25.765 64.6975 26.3394C65.4848 26.9137 66.0699 27.7226 66.369 28.65Z" fill="#FFFACF"/>
<path d="M29.787 28.65H66.369C66.0704 27.722 65.4855 26.9125 64.6982 26.3376C63.911 25.7627 62.9618 25.452 61.987 25.45H29.787C28.567 25.45 27.397 25.9347 26.5343 26.7973C25.6716 27.66 25.187 28.83 25.187 30.05V33.25C25.187 32.03 25.6716 30.86 26.5343 29.9973C27.397 29.1347 28.567 28.65 29.787 28.65Z" fill="#FFFEF2"/>
<path d="M94.187 43.853C94.4671 43.8542 94.744 43.7935 94.9979 43.6751C95.2518 43.5568 95.4763 43.3837 95.6555 43.1684C95.8347 42.9531 95.964 42.7009 96.0343 42.4297C96.1046 42.1586 96.1141 41.8753 96.062 41.6C91.619 19.519 92.141 16.254 87.287 16.254C86.067 16.254 84.897 16.7387 84.0343 17.6013C83.1717 18.464 82.687 19.634 82.687 20.854V41.554C82.6889 42.1635 82.9318 42.7474 83.3627 43.1783C83.7936 43.6093 84.3776 43.8522 84.987 43.854H85.562C85.5639 44.4635 85.8068 45.0474 86.2377 45.4783C86.6686 45.9093 87.2526 46.1522 87.862 46.154H91.312C91.9214 46.1522 92.5054 45.9093 92.9363 45.4783C93.3673 45.0474 93.6102 44.4635 93.612 43.854L94.187 43.853Z" fill="#F8F8F8"/>
<path d="M85.562 43.853V31.203Z" fill="white"/>
<path d="M85.562 43.853V31.203" stroke="#45413C" stroke-linecap="round" stroke-linejoin="round"/>
<path d="M93.612 43.853L91.312 32.353Z" fill="white"/>
<path d="M93.612 43.853L91.312 32.353" stroke="#45413C" stroke-linecap="round" stroke-linejoin="round"/>
<path d="M92.991 25.729C91.485 21.739 89.991 20.853 86.448 20.853C85.144 20.8416 83.8556 21.1372 82.687 21.716V20.853C82.687 19.633 83.1717 18.463 84.0343 17.6003C84.897 16.7376 86.067 16.253 87.287 16.253C90.595 16.253 91.406 17.77 92.994 25.729" fill="white"/>
<path d="M94.187 43.853C94.4671 43.8542 94.744 43.7935 94.9979 43.6751C95.2518 43.5568 95.4763 43.3837 95.6555 43.1684C95.8347 42.9531 95.964 42.7009 96.0343 42.4297C96.1046 42.1586 96.1141 41.8753 96.062 41.6C91.619 19.519 92.141 16.254 87.287 16.254C86.067 16.254 84.897 16.7387 84.0343 17.6013C83.1717 18.464 82.687 19.634 82.687 20.854V41.554C82.6889 42.1635 82.9318 42.7474 83.3627 43.1783C83.7936 43.6093 84.3776 43.8522 84.987 43.854H85.562C85.5639 44.4635 85.8068 45.0474 86.2377 45.4783C86.6686 45.9093 87.2526 46.1522 87.862 46.154H91.312C91.9214 46.1522 92.5054 45.9093 92.9363 45.4783C93.3673 45.0474 93.6102 44.4635 93.612 43.854L94.187 43.853Z" stroke="#45413C" stroke-linecap="round" stroke-linejoin="round"/>
<path d="M66.369 28.65H51.292C50.3777 28.6528 49.5015 29.0165 48.854 29.662L46.048 32.468C45.7289 32.7898 45.3491 33.045 44.9306 33.2187C44.512 33.3924 44.0632 33.4813 43.61 33.48H25.187V30.053C25.187 28.833 25.6716 27.663 26.5343 26.8003C27.397 25.9376 28.567 25.453 29.787 25.453H61.987C62.9615 25.4548 63.9103 25.765 64.6975 26.3394C65.4848 26.9137 66.0699 27.7226 66.369 28.65Z" stroke="#45413C" stroke-linecap="round" stroke-linejoin="round"/>
<path d="M28.637 30.053C28.637 30.358 28.7582 30.6505 28.9738 30.8662C29.1895 31.0819 29.482 31.203 29.787 31.203C30.092 31.203 30.3845 31.0819 30.6002 30.8662C30.8158 30.6505 30.937 30.358 30.937 30.053C30.937 29.748 30.8158 29.4555 30.6002 29.2398C30.3845 29.0242 30.092 28.903 29.787 28.903C29.482 28.903 29.1895 29.0242 28.9738 29.2398C28.7582 29.4555 28.637 29.748 28.637 30.053Z" fill="#45413C"/>
<path d="M33.237 30.053C33.237 30.204 33.2667 30.3536 33.3245 30.4931C33.3823 30.6326 33.467 30.7594 33.5738 30.8662C33.6806 30.973 33.8074 31.0577 33.9469 31.1155C34.0864 31.1733 34.236 31.203 34.387 31.203C34.538 31.203 34.6876 31.1733 34.8271 31.1155C34.9666 31.0577 35.0934 30.973 35.2002 30.8662C35.307 30.7594 35.3917 30.6326 35.4495 30.4931C35.5073 30.3536 35.537 30.204 35.537 30.053C35.537 29.902 35.5073 29.7525 35.4495 29.6129C35.3917 29.4734 35.307 29.3466 35.2002 29.2398C35.0934 29.1331 34.9666 29.0483 34.8271 28.9906C34.6876 28.9328 34.538 28.903 34.387 28.903C34.236 28.903 34.0864 28.9328 33.9469 28.9906C33.8074 29.0483 33.6806 29.1331 33.5738 29.2398C33.467 29.3466 33.3823 29.4734 33.3245 29.6129C33.2667 29.7525 33.237 29.902 33.237 30.053Z" fill="#45413C"/>
<path d="M37.837 30.053C37.837 30.204 37.8667 30.3536 37.9245 30.4931C37.9823 30.6326 38.067 30.7594 38.1738 30.8662C38.2806 30.973 38.4074 31.0577 38.5469 31.1155C38.6864 31.1733 38.836 31.203 38.987 31.203C39.138 31.203 39.2876 31.1733 39.4271 31.1155C39.5666 31.0577 39.6934 30.973 39.8002 30.8662C39.907 30.7594 39.9917 30.6326 40.0495 30.4931C40.1073 30.3536 40.137 30.204 40.137 30.053C40.137 29.902 40.1073 29.7525 40.0495 29.6129C39.9917 29.4734 39.907 29.3466 39.8002 29.2398C39.6934 29.1331 39.5666 29.0483 39.4271 28.9906C39.2876 28.9328 39.138 28.903 38.987 28.903C38.836 28.903 38.6864 28.9328 38.5469 28.9906C38.4074 29.0483 38.2806 29.1331 38.1738 29.2398C38.067 29.3466 37.9823 29.4734 37.9245 29.6129C37.8667 29.7525 37.837 29.902 37.837 30.053Z" fill="#45413C"/>
<path d="M25.187 25.453H66.587V73.753H25.187V25.453Z" stroke="#45413C" stroke-linecap="round" stroke-linejoin="round"/>
<path d="M69.713 56.49C69.713 57.5471 69.9212 58.5939 70.3258 59.5706C70.7303 60.5473 71.3233 61.4347 72.0708 62.1822C72.8183 62.9297 73.7057 63.5227 74.6824 63.9272C75.6591 64.3318 76.7059 64.54 77.763 64.54C78.8201 64.54 79.8669 64.3318 80.8436 63.9272C81.8203 63.5227 82.7077 62.9297 83.4552 62.1822C84.2027 61.4347 84.7957 60.5473 85.2002 59.5706C85.6048 58.5939 85.813 57.5471 85.813 56.49C85.813 55.4329 85.6048 54.3861 85.2002 53.4094C84.7957 52.4327 84.2027 51.5453 83.4552 50.7978C82.7077 50.0503 81.8203 49.4573 80.8436 49.0528C79.8669 48.6482 78.8201 48.44 77.763 48.44C76.7059 48.44 75.6591 48.6482 74.6824 49.0528C73.7057 49.4573 72.8183 50.0503 72.0708 50.7978C71.3233 51.5453 70.7303 52.4327 70.3258 53.4094C69.9212 54.3861 69.713 55.4329 69.713 56.49Z" fill="#DABFF5"/>
<path d="M70.049 58.8C70.5455 57.1397 71.5643 55.6839 72.9541 54.6489C74.3439 53.6138 76.0306 53.0547 77.7635 53.0547C79.4964 53.0547 81.1831 53.6138 82.5729 54.6489C83.9627 55.6839 84.9815 57.1397 85.478 58.8C85.8362 57.5985 85.9088 56.3299 85.69 55.0954C85.4712 53.8609 84.9671 52.6945 84.2178 51.6893C83.4685 50.6841 82.4948 49.8678 81.3742 49.3054C80.2537 48.743 79.0173 48.4502 77.7635 48.4502C76.5097 48.4502 75.2733 48.743 74.1528 49.3054C73.0322 49.8678 72.0585 50.6841 71.3092 51.6893C70.5599 52.6945 70.0558 53.8609 69.837 55.0954C69.6182 56.3299 69.6908 57.5985 70.049 58.8Z" fill="#EDDBFF"/>
<path d="M69.713 56.49C69.713 57.5471 69.9212 58.5939 70.3258 59.5706C70.7303 60.5473 71.3233 61.4347 72.0708 62.1822C72.8183 62.9297 73.7057 63.5227 74.6824 63.9272C75.6591 64.3318 76.7059 64.54 77.763 64.54C78.8201 64.54 79.8669 64.3318 80.8436 63.9272C81.8203 63.5227 82.7077 62.9297 83.4552 62.1822C84.2027 61.4347 84.7957 60.5473 85.2002 59.5706C85.6048 58.5939 85.813 57.5471 85.813 56.49C85.813 55.4329 85.6048 54.3861 85.2002 53.4094C84.7957 52.4327 84.2027 51.5453 83.4552 50.7978C82.7077 50.0503 81.8203 49.4573 80.8436 49.0528C79.8669 48.6482 78.8201 48.44 77.763 48.44C76.7059 48.44 75.6591 48.6482 74.6824 49.0528C73.7057 49.4573 72.8183 50.0503 72.0708 50.7978C71.3233 51.5453 70.7303 52.4327 70.3258 53.4094C69.9212 54.3861 69.713 55.4329 69.713 56.49Z" stroke="#45413C" stroke-linecap="round" stroke-linejoin="round"/>
<path d="M86.963 56.49L84.49 72.99L83.95 76.555C83.9075 76.8568 83.8224 77.1511 83.697 77.429C83.4267 78.0398 82.9853 78.5591 82.4261 78.9244C81.8669 79.2896 81.2139 79.485 80.546 79.487H71.53C70.7066 79.4846 69.9112 79.1877 69.2876 78.6499C68.6641 78.1122 68.2534 77.3691 68.13 76.555L66.566 66.155L65.113 56.49H86.963Z" fill="#8CFFE4"/>
<path d="M84.031 76L83.951 76.563C83.9087 76.8649 83.8235 77.1592 83.698 77.437C83.4278 78.0479 82.9864 78.5674 82.4272 78.9328C81.868 79.2982 81.215 79.4938 80.547 79.496H71.531C70.7075 79.4934 69.9121 79.1962 69.2885 78.6583C68.665 78.1204 68.2544 77.3772 68.131 76.563L68.046 76C68.3508 76.0422 68.6583 76.0613 68.966 76.057H83.1C83.4112 76.0557 83.722 76.0366 84.031 76Z" fill="#00DBA8"/>
<path d="M86.963 56.49L84.49 72.99L83.95 76.555C83.9075 76.8568 83.8223 77.1511 83.697 77.429C78.224 72.98 71.217 61.539 75.854 55.912C77.533 53.96 80.833 52.408 86.963 56.49Z" fill="#FFE500"/>
<path d="M86.458 59.884C80.65 56.216 77.488 57.745 75.858 59.643C75.0856 60.5498 74.6386 61.6889 74.588 62.879C74.068 60.233 74.336 57.761 75.857 55.915C77.536 53.96 80.836 52.408 86.966 56.49L86.458 59.884Z" fill="#FFF48C"/>
<path d="M86.963 56.49L84.49 72.99L83.95 76.555C83.9075 76.8568 83.8223 77.1511 83.697 77.429C78.224 72.98 71.217 61.539 75.854 55.912C77.533 53.96 80.833 52.408 86.963 56.49Z" stroke="#45413C" stroke-linecap="round" stroke-linejoin="round"/>
<path d="M76.613 57.64C76.163 58.837 75.4394 59.9123 74.5 60.78C72.1904 63.0246 69.5046 64.8462 66.565 66.162L65.113 56.49C65.113 56.49 66.263 53.04 70.863 53.04C71.8768 53.0248 72.8759 53.284 73.7545 53.7901C74.6331 54.2962 75.3585 55.0304 75.854 55.915C75.969 56.115 76.072 56.306 76.164 56.49C76.3489 56.8586 76.4992 57.2436 76.613 57.64Z" fill="#F8F8F8"/>
<path d="M65.516 59.148C66.0985 58.278 66.8987 57.5757 67.837 57.1111C68.7753 56.6466 69.8189 56.4359 70.864 56.5C71.8502 56.4831 72.8233 56.728 73.6841 57.2096C74.5449 57.6913 75.2625 58.3926 75.764 59.242C76.1301 58.7574 76.4161 58.2172 76.611 57.642C76.4972 57.2456 76.3469 56.8607 76.162 56.492C76.07 56.308 75.962 56.113 75.852 55.917C75.3565 55.0324 74.6311 54.2982 73.7525 53.7921C72.8739 53.286 71.8748 53.0268 70.861 53.042C66.261 53.042 65.111 56.492 65.111 56.492L65.511 59.151" fill="white"/>
<path d="M86.963 56.49L84.49 72.99L83.95 76.555C83.9075 76.8568 83.8224 77.1511 83.697 77.429C83.4267 78.0398 82.9853 78.5591 82.4261 78.9244C81.8669 79.2896 81.2139 79.485 80.546 79.487H71.53C70.7066 79.4846 69.9112 79.1877 69.2876 78.6499C68.6641 78.1122 68.2534 77.3691 68.13 76.555L66.566 66.155L65.113 56.49H86.963Z" stroke="#45413C" stroke-linecap="round" stroke-linejoin="round"/>
<path d="M76.613 57.64C76.163 58.837 75.4394 59.9123 74.5 60.78C72.1904 63.0246 69.5046 64.8462 66.565 66.162L65.113 56.49C65.113 56.49 66.263 53.04 70.863 53.04C71.8768 53.0248 72.8759 53.284 73.7545 53.7901C74.6331 54.2962 75.3585 55.0304 75.854 55.915C75.969 56.115 76.072 56.306 76.164 56.49C76.3489 56.8586 76.4992 57.2436 76.613 57.64Z" stroke="#45413C" stroke-linecap="round" stroke-linejoin="round"/>
<path d="M83.954 76.552C83.8312 77.3691 83.4193 78.1149 82.7932 78.6541C82.167 79.1932 81.3683 79.4898 80.542 79.49H71.534C70.7076 79.4902 69.9086 79.1938 69.2824 78.6546C68.6562 78.1154 68.2444 77.3692 68.122 76.552L65.113 56.49H86.963L83.954 76.552Z" stroke="#45413C" stroke-linecap="round" stroke-linejoin="round"/>
<path d="M62.813 56.49H89.263" stroke="#45413C" stroke-linecap="round" stroke-linejoin="round"/>
<path d="M66.737 67.314L78.913 79.49" stroke="#45413C" stroke-linecap="round" stroke-linejoin="round"/>
<path d="M66.263 56.49L84.263 74.49" stroke="#45413C" stroke-linecap="round" stroke-linejoin="round"/>
<path d="M76.613 56.49L85.613 65.49" stroke="#45413C" stroke-linecap="round" stroke-linejoin="round"/>
<path d="M85.542 65.9609L72.013 79.4899" stroke="#45413C" stroke-linecap="round" stroke-linejoin="round"/>
<path d="M84.663 56.49L67.663 73.49" stroke="#45413C" stroke-linecap="round" stroke-linejoin="round"/>
<path d="M74.313 56.49L66.313 64.49" stroke="#45413C" stroke-linecap="round" stroke-linejoin="round"/>
<path d="M25.187 45.5H30.937C31.3902 45.4994 31.8392 45.5881 32.258 45.7613C32.6769 45.9344 33.0575 46.1885 33.378 46.509C33.6985 46.8295 33.9526 47.2101 34.1257 47.629C34.2989 48.0478 34.3877 48.4968 34.387 48.95V46.15C34.387 45.235 34.0235 44.3575 33.3765 43.7105C32.7295 43.0635 31.852 42.7 30.937 42.7H25.187V45.5Z" fill="#DAEDF7"/>
<path d="M34.387 55.353C34.387 56.268 34.0235 57.1455 33.3765 57.7925C32.7295 58.4395 31.852 58.803 30.937 58.803H25.187V42.7H30.937C31.852 42.7 32.7295 43.0635 33.3765 43.7105C34.0235 44.3575 34.387 45.235 34.387 46.15V55.353Z" stroke="#45413C"/>
<path d="M30.937 50.753C30.937 52.7162 31.3237 54.6603 32.075 56.4741C32.8263 58.2879 33.9275 59.936 35.3158 61.3242C36.704 62.7125 38.3521 63.8137 40.1659 64.565C41.9797 65.3163 43.9237 65.703 45.887 65.703C47.8503 65.703 49.7943 65.3163 51.6081 64.565C53.4219 63.8137 55.07 62.7125 56.4582 61.3242C57.8465 59.936 58.9477 58.2879 59.699 56.4741C60.4503 54.6603 60.837 52.7162 60.837 50.753C60.837 48.7897 60.4503 46.8457 59.699 45.0319C58.9477 43.218 57.8465 41.57 56.4582 40.1817C55.07 38.7935 53.4219 37.6923 51.6081 36.941C49.7943 36.1897 47.8503 35.803 45.887 35.803C43.9237 35.803 41.9797 36.1897 40.1659 36.941C38.3521 37.6923 36.704 38.7935 35.3158 40.1817C33.9275 41.57 32.8263 43.218 32.075 45.0319C31.3237 46.8457 30.937 48.7897 30.937 50.753Z" fill="#ADC4D9"/>
<path d="M31.038 52.5C31.4554 48.854 33.1995 45.489 35.9381 43.0461C38.6766 40.6032 42.2182 39.2531 45.888 39.2531C49.5578 39.2531 53.0994 40.6032 55.8379 43.0461C58.5765 45.489 60.3206 48.854 60.738 52.5C60.8047 51.9207 60.8381 51.3381 60.838 50.755C60.838 46.79 59.2629 42.9874 56.4593 40.1837C53.6556 37.3801 49.853 35.805 45.888 35.805C41.923 35.805 38.1204 37.3801 35.3168 40.1837C32.5131 42.9874 30.938 46.79 30.938 50.755C30.9379 51.3381 30.9713 51.9207 31.038 52.5Z" fill="#ADC4D9"/>
<path d="M30.937 50.753C30.937 52.7162 31.3237 54.6603 32.075 56.4741C32.8263 58.2879 33.9275 59.936 35.3158 61.3242C36.704 62.7125 38.3521 63.8137 40.1659 64.565C41.9797 65.3163 43.9237 65.703 45.887 65.703C47.8503 65.703 49.7943 65.3163 51.6081 64.565C53.4219 63.8137 55.07 62.7125 56.4582 61.3242C57.8465 59.936 58.9477 58.2879 59.699 56.4741C60.4503 54.6603 60.837 52.7162 60.837 50.753C60.837 48.7897 60.4503 46.8457 59.699 45.0319C58.9477 43.218 57.8465 41.57 56.4582 40.1817C55.07 38.7935 53.4219 37.6923 51.6081 36.941C49.7943 36.1897 47.8503 35.803 45.887 35.803C43.9237 35.803 41.9797 36.1897 40.1659 36.941C38.3521 37.6923 36.704 38.7935 35.3158 40.1817C33.9275 41.57 32.8263 43.218 32.075 45.0319C31.3237 46.8457 30.937 48.7897 30.937 50.753Z" stroke="#45413C"/>
<path d="M34.387 50.753C34.387 53.803 35.5986 56.7281 37.7553 58.8847C39.9119 61.0414 42.837 62.253 45.887 62.253C48.937 62.253 51.8621 61.0414 54.0187 58.8847C56.1754 56.7281 57.387 53.803 57.387 50.753C57.387 47.703 56.1754 44.7779 54.0187 42.6213C51.8621 40.4646 48.937 39.253 45.887 39.253C42.837 39.253 39.9119 40.4646 37.7553 42.6213C35.5986 44.7779 34.387 47.703 34.387 50.753Z" fill="#00B8F0"/>
<path d="M37.7 58.827C35.5992 56.6472 34.4426 53.727 34.4812 50.6999C34.5198 47.6727 35.7505 44.7829 37.9062 42.6575C40.062 40.532 42.9689 39.3423 45.9962 39.3465C49.0236 39.3507 51.9272 40.5485 54.077 42.68L37.7 58.827Z" fill="#4ACFFF"/>
<path d="M38.987 50.753C38.987 51.668 39.1687 52.5455 39.4922 53.1925C39.8157 53.8395 40.2545 54.203 40.712 54.203C41.1695 54.203 41.6083 53.8395 41.9318 53.1925C42.2553 52.5455 42.437 51.668 42.437 50.753C42.437 49.838 42.2553 48.9605 41.9318 48.3135C41.6083 47.6665 41.1695 47.303 40.712 47.303C40.2545 47.303 39.8157 47.6665 39.4922 48.3135C39.1687 48.9605 38.987 49.838 38.987 50.753Z" fill="white" stroke="#009FD9" stroke-linecap="round" stroke-linejoin="round"/>
<path d="M49.337 50.753C49.337 51.668 49.5187 52.5455 49.8422 53.1925C50.1657 53.8395 50.6045 54.203 51.062 54.203C51.5195 54.203 51.9583 53.8395 52.2818 53.1925C52.6053 52.5455 52.787 51.668 52.787 50.753C52.787 49.838 52.6053 48.9605 52.2818 48.3135C51.9583 47.6665 51.5195 47.303 51.062 47.303C50.6045 47.303 50.1657 47.6665 49.8422 48.3135C49.5187 48.9605 49.337 49.838 49.337 50.753Z" fill="white" stroke="#009FD9" stroke-linecap="round" stroke-linejoin="round"/>
<path d="M34.387 50.753C34.387 53.803 35.5986 56.7281 37.7553 58.8847C39.9119 61.0414 42.837 62.253 45.887 62.253C48.937 62.253 51.8621 61.0414 54.0187 58.8847C56.1754 56.7281 57.387 53.803 57.387 50.753C57.387 47.703 56.1754 44.7779 54.0187 42.6213C51.8621 40.4646 48.937 39.253 45.887 39.253C42.837 39.253 39.9119 40.4646 37.7553 42.6213C35.5986 44.7779 34.387 47.703 34.387 50.753Z" stroke="#45413C"/>
<path d="M56.237 46.153H61.987V55.353H56.237V46.153Z" fill="#ADC4D9"/>
<path d="M56.237 49.925C56.2381 49.6203 56.3596 49.3285 56.575 49.113C56.7904 48.8976 57.0823 48.7761 57.387 48.775H60.837C61.1418 48.7758 61.4338 48.8972 61.6493 49.1127C61.8648 49.3282 61.9862 49.6203 61.987 49.925V47.3C61.987 46.995 61.8658 46.7025 61.6502 46.4869C61.4345 46.2712 61.142 46.15 60.837 46.15H57.387C57.082 46.15 56.7895 46.2712 56.5738 46.4869C56.3582 46.7025 56.237 46.995 56.237 47.3V49.925Z" fill="#DAEDF7"/>
<path d="M56.237 46.153H61.987V55.353H56.237V46.153Z" stroke="#45413C"/>
</svg>
