<svg viewBox="0 0 100 100" xmlns="http://www.w3.org/2000/svg" id="Spaghetti-Meatball-Fork--Streamline-Ux" height="100" width="100"><desc>Spaghetti Meatball Fork Streamline Illustration: https://streamlinehq.com</desc><path d="M10 53.916a40 40 0 1 0 80 0 40 40 0 1 0 -80 0Z" fill="#daedf7" stroke="#daedf7" stroke-linecap="round" stroke-linejoin="round" stroke-width="1"></path><path d="M35.81 85.591a1.177 1.177 0 0 1 -2.354 0L32.9 52.02c0 -6.264 3.685 -13.435 9.006 -16.55a6.96 6.96 0 0 0 3.437 -6.233c-0.148 -4.38 -0.411 -7.646 -0.867 -23.153h8.1l-0.893 23.148a6.961 6.961 0 0 0 3.444 6.227c5.331 3.109 9.026 10.289 9.026 16.561l-0.56 33.571a1.177 1.177 0 0 1 -2.354 0l-0.511 -30.678a2.943 2.943 0 0 0 -5.885 0l-0.511 30.678a1.177 1.177 0 0 1 -2.354 0l-0.511 -30.678a2.943 2.943 0 0 0 -5.885 0l-0.511 30.678a1.177 1.177 0 0 1 -2.354 0l-0.511 -30.678a2.943 2.943 0 0 0 -5.885 0Z" fill="#adc4d9" stroke-width="1"></path><path d="m53.155 80.96 -1.25 0.25 -0.438 -26.3a2.91 2.91 0 0 0 -0.067 -0.579h3.51a3.065 3.065 0 0 0 -0.067 0.579l-0.438 26.3Z" fill="#adc4d9" stroke-width="1"></path><path d="m42.67 82.79 -0.464 -27.877a2.91 2.91 0 0 0 -0.067 -0.579h3.51a3.065 3.065 0 0 0 -0.067 0.579l-0.456 27.4Z" fill="#adc4d9" stroke-width="1"></path><path d="m33.433 84.17 -0.5 -29.836h3.453a3.065 3.065 0 0 0 -0.067 0.579l-0.478 28.675Z" fill="#adc4d9" stroke-width="1"></path><path d="m60.759 56.799 3.31 0.221 -0.437 26.255 -2.445 -0.834 -0.428 -25.642z" fill="#adc4d9" stroke-width="1"></path><path d="m52.576 6.084 -0.893 23.148a6.961 6.961 0 0 0 3.444 6.227c5.331 3.109 9.026 10.289 9.026 16.561l-0.56 33.571a1.177 1.177 0 0 1 -2.354 0l-0.511 -30.678a2.943 2.943 0 0 0 -5.885 0l-0.511 30.678a1.177 1.177 0 0 1 -2.354 0l-0.511 -30.678a2.943 2.943 0 0 0 -5.885 0l-0.511 30.678a1.177 1.177 0 0 1 -2.354 0l-0.511 -30.678a2.943 2.943 0 0 0 -5.885 0l-0.511 30.678a1.177 1.177 0 0 1 -2.354 0L32.9 52.02c0 -6.264 3.685 -13.435 9.006 -16.55a6.96 6.96 0 0 0 3.437 -6.233c-0.148 -4.38 -0.411 -7.646 -0.867 -23.153" fill="none" stroke="#45413c" stroke-linecap="round" stroke-linejoin="round" stroke-width="1"></path><path d="M37.232 53.992c4.664 5.264 12.442 4.443 12.442 4.443s1.753 -7.623 -2.91 -12.887a14.086 14.086 0 0 0 -8.843 -4.33A3.474 3.474 0 0 0 34 44.7a14.08 14.08 0 0 0 3.232 9.292Z" fill="#9ceb60" stroke-width="1"></path><path d="M46.48 53.714a1.593 1.593 0 0 0 2.146 -0.77 17.906 17.906 0 0 1 0.946 -1.8 18 18 0 0 1 0.1 7.287s-7.778 0.821 -12.442 -4.443a12.845 12.845 0 0 1 -2.938 -6.219Z" fill="#6dd627" stroke-width="1"></path><path d="M49.674 58.435 38.927 46.304" fill="none" stroke="#f0ffe5" stroke-linecap="round" stroke-linejoin="round" stroke-width="1"></path><path d="M37.232 53.992c4.664 5.264 12.442 4.443 12.442 4.443s1.753 -7.623 -2.91 -12.887a14.086 14.086 0 0 0 -8.843 -4.33A3.474 3.474 0 0 0 34 44.7a14.08 14.08 0 0 0 3.232 9.292Z" fill="none" stroke="#45413c" stroke-linecap="round" stroke-linejoin="round" stroke-width="1"></path><path d="m41.861 45.252 -0.247 4.085" fill="none" stroke="#f0ffe5" stroke-linecap="round" stroke-linejoin="round" stroke-width="1"></path><path d="m44.932 48.718 -0.247 4.085" fill="none" stroke="#f0ffe5" stroke-linecap="round" stroke-linejoin="round" stroke-width="1"></path><path d="m37.529 49.09 4.085 0.247" fill="none" stroke="#f0ffe5" stroke-linecap="round" stroke-linejoin="round" stroke-width="1"></path><path d="m40.599 52.556 4.086 0.247" fill="none" stroke="#f0ffe5" stroke-linecap="round" stroke-linejoin="round" stroke-width="1"></path><path d="M60.6 54.052c-4.723 5.211 -12.492 4.3 -12.492 4.3s-1.662 -7.641 3.061 -12.852a14.081 14.081 0 0 1 8.891 -4.23 3.473 3.473 0 0 1 3.882 3.53 14.078 14.078 0 0 1 -3.342 9.252Z" fill="#9ceb60" stroke-width="1"></path><path d="M53.069 55.306a2.316 2.316 0 0 1 -2.41 -2.183 15.676 15.676 0 0 1 2.052 -9.043 11.75 11.75 0 0 0 -1.542 1.42c-4.723 5.21 -3.057 12.853 -3.057 12.853s7.769 0.909 12.492 -4.3a11.74 11.74 0 0 0 1.263 -1.674 15.674 15.674 0 0 1 -8.798 2.927Z" fill="#6dd627" stroke-width="1"></path><path d="m48.112 58.354 10.884 -12.008" fill="none" stroke="#f0ffe5" stroke-linecap="round" stroke-linejoin="round" stroke-width="1"></path><path d="M60.6 54.052c-4.723 5.211 -12.492 4.3 -12.492 4.3s-1.662 -7.641 3.061 -12.852a14.081 14.081 0 0 1 8.891 -4.23 3.473 3.473 0 0 1 3.882 3.53 14.078 14.078 0 0 1 -3.342 9.252Z" fill="none" stroke="#45413c" stroke-linecap="round" stroke-linejoin="round" stroke-width="1"></path><path d="m56.074 45.26 0.201 4.088" fill="none" stroke="#f0ffe5" stroke-linecap="round" stroke-linejoin="round" stroke-width="1"></path><path d="m52.965 48.691 0.2 4.087" fill="none" stroke="#f0ffe5" stroke-linecap="round" stroke-linejoin="round" stroke-width="1"></path><path d="m60.363 49.147 -4.088 0.201" fill="none" stroke="#f0ffe5" stroke-linecap="round" stroke-linejoin="round" stroke-width="1"></path><path d="m57.253 52.578 -4.088 0.2" fill="none" stroke="#f0ffe5" stroke-linecap="round" stroke-linejoin="round" stroke-width="1"></path><path d="M88.463 57.025a1.737 1.737 0 0 0 -1.737 -1.736h-3.175a12.336 12.336 0 0 0 -9.437 4.377 8.873 8.873 0 0 1 -6.786 3.147h-3.754a1.737 1.737 0 1 0 0 3.473h3.754a12.336 12.336 0 0 0 9.437 -4.377 8.873 8.873 0 0 1 6.786 -3.147h3.175a1.737 1.737 0 0 0 1.737 -1.737Z" fill="#ffe500" stroke-width="1"></path><path d="M63.574 66.286a1.737 1.737 0 1 1 0 -3.473h3.754a8.893 8.893 0 0 0 2.571 -0.379 1.736 1.736 0 0 1 -1.7 2.116 1.736 1.736 0 0 1 1.715 1.462 12.413 12.413 0 0 1 -2.591 0.274Z" fill="#ebcb00" stroke-width="1"></path><path d="M88.463 57.025a1.737 1.737 0 0 0 -1.737 -1.736h-3.175a12.336 12.336 0 0 0 -9.437 4.377 8.873 8.873 0 0 1 -6.786 3.147h-3.754a1.737 1.737 0 1 0 0 3.473h3.754a12.336 12.336 0 0 0 9.437 -4.377 8.873 8.873 0 0 1 6.786 -3.147h3.175a1.737 1.737 0 0 0 1.737 -1.737Z" fill="none" stroke="#45413c" stroke-linecap="round" stroke-linejoin="round" stroke-width="1"></path><path d="M64.754 73.377a1.736 1.736 0 0 1 0.6 3.42L32.3 82.626a1.736 1.736 0 1 1 -0.6 -3.42Z" fill="#ffe500" stroke-width="1"></path><path d="m65.055 75.087 -33.061 5.829a1.732 1.732 0 0 1 -1.631 -0.594 1.735 1.735 0 0 0 1.933 2.3L65.357 76.8a1.737 1.737 0 0 0 1.028 -2.827 1.734 1.734 0 0 1 -1.33 1.114Z" fill="#ebcb00" stroke-width="1"></path><path d="M64.754 73.377a1.736 1.736 0 0 1 0.6 3.42L32.3 82.626a1.736 1.736 0 1 1 -0.6 -3.42Z" fill="none" stroke="#45413c" stroke-linecap="round" stroke-linejoin="round" stroke-width="1"></path><path d="M64.754 63.011a1.736 1.736 0 0 0 0.6 -3.42L32.3 53.761a1.736 1.736 0 1 0 -0.6 3.42Z" fill="#ffe500" stroke-width="1"></path><path d="m65.055 61.3 -33.061 -5.83a1.735 1.735 0 0 0 -1.631 0.594 1.718 1.718 0 0 1 -0.079 -0.895 1.737 1.737 0 0 1 2.016 -1.408l33.061 5.83a1.736 1.736 0 0 1 1.028 2.826 1.735 1.735 0 0 0 -1.334 -1.117Z" fill="#fff48c" stroke-width="1"></path><path d="M64.754 63.011a1.736 1.736 0 0 0 0.6 -3.42L32.3 53.761a1.736 1.736 0 1 0 -0.6 3.42Z" fill="none" stroke="#45413c" stroke-linecap="round" stroke-linejoin="round" stroke-width="1"></path><path d="M64.754 66.537a1.736 1.736 0 0 0 0.6 -3.42L32.3 57.288a1.736 1.736 0 1 0 -0.6 3.42Z" fill="#ffe500" stroke-width="1"></path><path d="M65.055 64.827 31.994 59a1.732 1.732 0 0 0 -1.631 0.594 1.735 1.735 0 0 1 1.933 -2.3l33.061 5.829a1.736 1.736 0 0 1 1.028 2.826 1.735 1.735 0 0 0 -1.33 -1.122Z" fill="#fff48c" stroke-width="1"></path><path d="M64.754 66.537a1.736 1.736 0 0 0 0.6 -3.42L32.3 57.288a1.736 1.736 0 1 0 -0.6 3.42Z" fill="none" stroke="#45413c" stroke-linecap="round" stroke-linejoin="round" stroke-width="1"></path><path d="M64.754 70.064a1.736 1.736 0 0 0 0.6 -3.42L32.3 60.814a1.736 1.736 0 1 0 -0.6 3.42Z" fill="#ffe500" stroke-width="1"></path><path d="m65.055 68.354 -33.061 -5.83a1.735 1.735 0 0 0 -1.631 0.594 1.718 1.718 0 0 1 -0.079 -0.9 1.737 1.737 0 0 1 2.016 -1.404l33.061 5.83a1.736 1.736 0 0 1 1.028 2.826 1.733 1.733 0 0 0 -1.334 -1.116Z" fill="#fff48c" stroke-width="1"></path><path d="M64.754 70.064a1.736 1.736 0 0 0 0.6 -3.42L32.3 60.814a1.736 1.736 0 1 0 -0.6 3.42Z" fill="none" stroke="#45413c" stroke-linecap="round" stroke-linejoin="round" stroke-width="1"></path><path d="M64.754 73.59a1.736 1.736 0 0 0 0.6 -3.42L32.3 64.341a1.736 1.736 0 1 0 -0.6 3.42Z" fill="#ffe500" stroke-width="1"></path><path d="m65.055 71.88 -33.061 -5.829a1.732 1.732 0 0 0 -1.631 0.594 1.735 1.735 0 0 1 1.933 -2.3l33.061 5.825A1.736 1.736 0 0 1 66.385 73a1.735 1.735 0 0 0 -1.33 -1.12Z" fill="#fff48c" stroke-width="1"></path><path d="M64.754 73.59a1.736 1.736 0 0 0 0.6 -3.42L32.3 64.341a1.736 1.736 0 1 0 -0.6 3.42Z" fill="none" stroke="#45413c" stroke-linecap="round" stroke-linejoin="round" stroke-width="1"></path><path d="M64.754 77.117a1.736 1.736 0 0 0 0.6 -3.42L32.3 67.867a1.736 1.736 0 1 0 -0.6 3.42Z" fill="#ffe500" stroke-width="1"></path><path d="m65.055 75.407 -33.061 -5.83a1.735 1.735 0 0 0 -1.631 0.594 1.718 1.718 0 0 1 -0.079 -0.9 1.737 1.737 0 0 1 2.016 -1.404L65.357 73.7a1.736 1.736 0 0 1 1.028 2.826 1.733 1.733 0 0 0 -1.33 -1.119Z" fill="#fff48c" stroke-width="1"></path><path d="M64.754 77.117a1.736 1.736 0 0 0 0.6 -3.42L32.3 67.867a1.736 1.736 0 1 0 -0.6 3.42Z" fill="none" stroke="#45413c" stroke-linecap="round" stroke-linejoin="round" stroke-width="1"></path><path d="M64.754 80.643a1.736 1.736 0 0 0 0.6 -3.42L32.3 71.394a1.736 1.736 0 1 0 -0.6 3.42Z" fill="#ffe500" stroke-width="1"></path><path d="M65.055 78.933 31.994 73.1a1.732 1.732 0 0 0 -1.631 0.594 1.735 1.735 0 0 1 1.933 -2.3l33.061 5.829a1.736 1.736 0 0 1 1.028 2.826 1.735 1.735 0 0 0 -1.33 -1.116Z" fill="#fff48c" stroke-width="1"></path><path d="M64.754 80.643a1.736 1.736 0 0 0 0.6 -3.42L32.3 71.394a1.736 1.736 0 1 0 -0.6 3.42Z" fill="none" stroke="#45413c" stroke-linecap="round" stroke-linejoin="round" stroke-width="1"></path><path d="M58.185 68.213a3.454 3.454 0 0 0 -0.812 -2.231 4.626 4.626 0 0 1 -1.066 -2.573 3.473 3.473 0 0 0 -3.156 -3.158 4.629 4.629 0 0 1 -2.573 -1.065 3.473 3.473 0 0 0 -4.466 0 4.615 4.615 0 0 1 -2.573 1.065 3.473 3.473 0 0 0 -3.156 3.158 4.61 4.61 0 0 1 -1.067 2.573 3.474 3.474 0 0 0 0 4.462 4.622 4.622 0 0 1 1.067 2.573 3.471 3.471 0 0 0 3.156 3.157 4.623 4.623 0 0 1 2.573 1.066 3.473 3.473 0 0 0 4.466 0 4.606 4.606 0 0 1 2.573 -1.066 3.471 3.471 0 0 0 3.156 -3.157 4.606 4.606 0 0 1 1.066 -2.573 3.458 3.458 0 0 0 0.812 -2.231Z" fill="#ff6242" stroke-width="1"></path><path d="M56.121 64.149a4.074 4.074 0 0 0 -2.4 -1 5.5 5.5 0 0 1 -2.881 -1.069 4.236 4.236 0 0 0 -4.991 0 5.508 5.508 0 0 1 -2.876 1.065 4.079 4.079 0 0 0 -2.405 1 3.633 3.633 0 0 0 -0.478 0.52 4.588 4.588 0 0 0 0.293 -1.26 3.473 3.473 0 0 1 3.156 -3.158 4.629 4.629 0 0 0 2.573 -1.065 3.473 3.473 0 0 1 4.466 0 4.612 4.612 0 0 0 2.573 1.065 3.473 3.473 0 0 1 3.156 3.158 4.6 4.6 0 0 0 0.29 1.258 3.5 3.5 0 0 0 -0.476 -0.514Z" fill="#ff6242" stroke-width="1"></path><path d="M58.185 68.213a3.454 3.454 0 0 0 -0.812 -2.231 4.626 4.626 0 0 1 -1.066 -2.573 3.473 3.473 0 0 0 -3.156 -3.158 4.629 4.629 0 0 1 -2.573 -1.065 3.473 3.473 0 0 0 -4.466 0 4.615 4.615 0 0 1 -2.573 1.065 3.473 3.473 0 0 0 -3.156 3.158 4.61 4.61 0 0 1 -1.067 2.573 3.474 3.474 0 0 0 0 4.462 4.622 4.622 0 0 1 1.067 2.573 3.471 3.471 0 0 0 3.156 3.157 4.623 4.623 0 0 1 2.573 1.066 3.473 3.473 0 0 0 4.466 0 4.606 4.606 0 0 1 2.573 -1.066 3.471 3.471 0 0 0 3.156 -3.157 4.606 4.606 0 0 1 1.066 -2.573 3.458 3.458 0 0 0 0.812 -2.231Z" fill="none" stroke="#45413c" stroke-width="1"></path><path d="m48.345 64.161 2.894 1.158" fill="none" stroke="#fffef2" stroke-linecap="round" stroke-linejoin="round" stroke-width="1"></path><path d="m46.608 67.634 -1.157 1.736" fill="none" stroke="#fffef2" stroke-linecap="round" stroke-linejoin="round" stroke-width="1"></path><path d="m48.924 68.213 1.157 1.157" fill="none" stroke="#fffef2" stroke-linecap="round" stroke-linejoin="round" stroke-width="1"></path><path d="m50.081 72.264 -2.315 0" fill="none" stroke="#fffef2" stroke-linecap="round" stroke-linejoin="round" stroke-width="1"></path><path d="m43.714 65.319 0.579 -1.158" fill="none" stroke="#fffef2" stroke-linecap="round" stroke-linejoin="round" stroke-width="1"></path><path d="m54.712 67.055 0.579 1.158" fill="none" stroke="#fffef2" stroke-linecap="round" stroke-linejoin="round" stroke-width="1"></path><path d="m45.451 73.422 -2.315 -1.158" fill="none" stroke="#fffef2" stroke-linecap="round" stroke-linejoin="round" stroke-width="1"></path></svg>