<svg viewBox="0 0 100 100" xmlns="http://www.w3.org/2000/svg" id="Coffee-Break-1-1--Streamline-Ux" height="100" width="100"><desc>Coffee Break 1 1 Streamline Illustration: https://streamlinehq.com</desc><path d="M90 50a40 40 0 1 0 -76.436 16.5h72.872A39.844 39.844 0 0 0 90 50Z" fill="#b8ecff" stroke-width="1"></path><path d="M13.564 66.5a40 40 0 0 0 72.872 0Z" fill="#f2dfc2" stroke-width="1"></path><path d="m11 66.5 78 0" fill="none" stroke="#45413c" stroke-linecap="round" stroke-linejoin="round" stroke-width="1"></path><path d="m6.5 66.5 2.5 0" fill="none" stroke="#45413c" stroke-linecap="round" stroke-linejoin="round" stroke-width="1"></path><path d="m91 66.5 2.5 0" fill="none" stroke="#45413c" stroke-linecap="round" stroke-linejoin="round" stroke-width="1"></path><path d="M36.5 40.5a2 2 0 0 0 -2 -2h-15a2 2 0 0 0 -2 2v11h19Z" fill="#adc4d9" stroke="#45413c" stroke-linecap="round" stroke-linejoin="round" stroke-width="1"></path><path d="M36.5 44.5h-19v-4a2 2 0 0 1 2 -2h15a2 2 0 0 1 2 2Z" fill="#adc4d9" stroke-width="1"></path><path d="M17.5 49.5h19v2h-19z" fill="#adc4d9" stroke="#45413c" stroke-linecap="round" stroke-linejoin="round" stroke-width="1"></path><path d="M34.5 38.5h-15a2 2 0 0 0 -2 2v2a2 2 0 0 1 2 -2h15a2 2 0 0 1 2 2v-2a2 2 0 0 0 -2 -2Z" fill="#daedf7" stroke-width="1"></path><path d="M36.5 44.5h-19v-4a2 2 0 0 1 2 -2h15a2 2 0 0 1 2 2Z" fill="none" stroke="#45413c" stroke-linecap="round" stroke-linejoin="round" stroke-width="1"></path><path d="M20 41a0.5 0.5 0 1 0 0.5 0.5 0.5 0.5 0 0 0 -0.5 -0.5Z" fill="#45413c" stroke-width="1"></path><path d="M34 41a0.5 0.5 0 1 0 0.5 0.5 0.5 0.5 0 0 0 -0.5 -0.5Z" fill="#45413c" stroke-width="1"></path><path d="m22 41.5 10 0" fill="none" stroke="#45413c" stroke-linecap="round" stroke-linejoin="round" stroke-width="1"></path><path d="M24 46.5h-3a1 1 0 0 1 -1 -1v-1h5v1a1 1 0 0 1 -1 1Z" fill="#8ca4b8" stroke="#45413c" stroke-linecap="round" stroke-linejoin="round" stroke-width="1"></path><path d="m22.5 46.5 0 1" fill="none" stroke="#45413c" stroke-linecap="round" stroke-linejoin="round" stroke-width="1"></path><path d="M33 46.5h-3a1 1 0 0 1 -1 -1v-1h5v1a1 1 0 0 1 -1 1Z" fill="#8ca4b8" stroke="#45413c" stroke-linecap="round" stroke-linejoin="round" stroke-width="1"></path><path d="m31.5 46.5 0 1" fill="none" stroke="#45413c" stroke-linecap="round" stroke-linejoin="round" stroke-width="1"></path><path d="M16.5 53.5H19v13h-2.5z" fill="#bf8256" stroke-width="1"></path><path d="M16.5 53.5H19V55h-2.5z" fill="#915e3a" stroke-width="1"></path><path d="M16.5 53.5H19v13h-2.5z" fill="none" stroke="#45413c" stroke-linecap="round" stroke-linejoin="round" stroke-width="1"></path><path d="M19 53.5h27.5v3H19z" fill="#bf8256" stroke-width="1"></path><path d="M19 53.5h27.5V55H19z" fill="#915e3a" stroke-width="1"></path><path d="M19 53.5h27.5v3H19z" fill="none" stroke="#45413c" stroke-linecap="round" stroke-linejoin="round" stroke-width="1"></path><path d="M51.5 52.5a1 1 0 0 1 -1 1H15a1 1 0 0 1 0 -2h35.5a1 1 0 0 1 1 1Z" fill="#45413c" stroke="#45413c" stroke-linecap="round" stroke-linejoin="round" stroke-width="1"></path><path d="M16.5 64H19v2.5h-2.5z" fill="#45413c" stroke="#45413c" stroke-linecap="round" stroke-linejoin="round" stroke-width="1"></path><path d="M46.5 53.5H49v13h-2.5z" fill="#bf8256" stroke-width="1"></path><path d="M46.5 53.5H49V55h-2.5z" fill="#915e3a" stroke-width="1"></path><path d="M46.5 53.5H49v13h-2.5z" fill="none" stroke="#45413c" stroke-linecap="round" stroke-linejoin="round" stroke-width="1"></path><path d="M46.5 64H49v2.5h-2.5z" fill="#45413c" stroke="#45413c" stroke-linecap="round" stroke-linejoin="round" stroke-width="1"></path><path d="M60.453 83.808a9.218 1.902 0 1 0 18.436 0 9.218 1.902 0 1 0 -18.436 0Z" fill="#45413c" opacity=".15" stroke-width="1"></path><path d="M54.338 58.762a2.292 2.292 0 0 0 2.289 2.289c5.042 0 10.679 -4.893 10.679 -11.443v-0.77a2.289 2.289 0 1 0 -4.577 0v0.77c0 4.191 -3.614 6.866 -6.1 6.866a2.291 2.291 0 0 0 -2.291 2.288Z" fill="#bf8256" stroke="#45413c" stroke-linecap="round" stroke-linejoin="round" stroke-width="1"></path><path d="m71.915 79.37 4.438 0 0.634 -8.875 -5.072 0 0 8.875z" fill="#bf8256" stroke-width="1"></path><path d="m71.915 72.397 4.936 0 0.136 -1.902 -5.072 0 0 1.902z" fill="#bf8256" stroke-width="1"></path><path d="m71.915 79.37 4.438 0 0.634 -8.875 -5.072 0 0 8.875z" fill="none" stroke="#45413c" stroke-linecap="round" stroke-linejoin="round" stroke-width="1"></path><path d="m71.915 79.37 -4.437 0 -0.634 -8.875 5.071 0 0 8.875z" fill="#bf8256" stroke-width="1"></path><path d="m71.915 72.397 -4.935 0 -0.136 -1.902 5.071 0 0 1.902z" fill="#bf8256" stroke-width="1"></path><path d="m71.915 79.37 -4.437 0 -0.634 -8.875 5.071 0 0 8.875z" fill="none" stroke="#45413c" stroke-linecap="round" stroke-linejoin="round" stroke-width="1"></path><path d="M71.915 79.37h-3.846a4.338 4.338 0 0 0 -3.516 1.661 1.316 1.316 0 0 0 1.023 2.143h6.339Z" fill="#f7e5c6" stroke="#45413c" stroke-linejoin="round" stroke-width="1"></path><path d="M76.353 79.37h-3.846a4.341 4.341 0 0 0 -3.517 1.661 1.316 1.316 0 0 0 1.024 2.143h5.071a1.268 1.268 0 0 0 1.268 -1.268Z" fill="#f7e5c6" stroke="#45413c" stroke-linejoin="round" stroke-width="1"></path><path d="m78.889 57.182 -0.574 12.047a1.329 1.329 0 0 1 -1.328 1.271H66.844a1.33 1.33 0 0 1 -1.328 -1.267l-0.574 -12.046Z" fill="#f7e5c6" stroke-width="1"></path><path d="m78.738 60.352 0.151 -3.17 -13.947 0 0.151 3.17 13.645 0z" fill="#f0d3a8" stroke-width="1"></path><path d="m78.889 57.182 -0.574 12.047a1.329 1.329 0 0 1 -1.328 1.271H66.844a1.33 1.33 0 0 1 -1.328 -1.267l-0.574 -12.046Z" fill="none" stroke="#45413c" stroke-linecap="round" stroke-linejoin="round" stroke-width="1"></path><path d="M61.772 45.794a10.848 10.848 0 0 1 10.874 -10.68 10.68 10.68 0 0 1 10.68 10.68v5.049h-4.437v6.339H64.942v-6.339h-1.708a1.724 1.724 0 0 1 -1.462 -1.559Z" fill="#ff6242" stroke-width="1"></path><path d="M72.646 35.114a10.848 10.848 0 0 0 -10.874 10.68v2.536a10.847 10.847 0 0 1 10.874 -10.68 10.679 10.679 0 0 1 10.68 10.68v-2.536a10.68 10.68 0 0 0 -10.68 -10.68Z" fill="#ff6242" stroke-width="1"></path><path d="M61.772 45.794a10.848 10.848 0 0 1 10.874 -10.68 10.68 10.68 0 0 1 10.68 10.68v5.049h-4.437v6.339H64.942v-6.339h-1.708a1.724 1.724 0 0 1 -1.462 -1.559Z" fill="none" stroke="#45413c" stroke-linecap="round" stroke-linejoin="round" stroke-width="1"></path><path d="m75.035 35.4 0.005 -4.116h-4.976l0 3.4a1 1 0 0 1 -0.7 0.954c-0.264 0.082 -0.523 0.174 -0.776 0.278l3.334 9.221 3.437 -9.677c-0.111 -0.027 -0.22 -0.038 -0.324 -0.06Z" fill="#bf8256" stroke="#45413c" stroke-linecap="round" stroke-linejoin="round" stroke-width="1"></path><path d="m78.889 53.422 0 -7.651" fill="none" stroke="#45413c" stroke-linecap="round" stroke-linejoin="round" stroke-width="1"></path><path d="m71.915 45.137 0 12.1" fill="none" stroke="#45413c" stroke-linecap="round" stroke-linejoin="round" stroke-width="1"></path><path d="M66.489 40.218a1.262 1.262 0 0 0 1.166 1.75h3.114l-2.192 -6.062c-0.139 0.056 -0.277 0.115 -0.413 0.176Z" fill="#ffffff" stroke="#45413c" stroke-linecap="round" stroke-linejoin="round" stroke-width="1"></path><path d="m77.342 40.218 -1.919 -4.739 -0.072 -0.018 -2.31 6.507h3.134a1.262 1.262 0 0 0 1.167 -1.75Z" fill="#ffffff" stroke="#45413c" stroke-linecap="round" stroke-linejoin="round" stroke-width="1"></path><path d="M64.942 50.843a4.075 4.075 0 0 0 -0.634 -2.536 4.7 4.7 0 0 1 -0.634 -2.536" fill="none" stroke="#45413c" stroke-linecap="round" stroke-linejoin="round" stroke-width="1"></path><path d="M77.889 59.084h-5.608a1 1 0 0 1 -1 -1v-9.411a1 1 0 0 1 1 -1h6.608v10.411a1 1 0 0 1 -1 1Z" fill="#00dba8" stroke="#45413c" stroke-linecap="round" stroke-linejoin="round" stroke-width="1"></path><path d="M78.889 50.843a1.9 1.9 0 0 1 -1.9 1.9h-4.738a2.219 2.219 0 0 0 0 4.437h4.736a6.339 6.339 0 0 0 6.339 -6.339Z" fill="#bf8256" stroke="#45413c" stroke-linecap="round" stroke-linejoin="round" stroke-width="1"></path><path d="M72.571 15.812a7.629 7.629 0 0 1 7.629 7.629v1.526c2.178 0 2.029 3.814 -0.382 3.814h-0.006a7.607 7.607 0 0 1 -14.869 -2.288v-3.052a7.629 7.629 0 0 1 7.628 -7.629Z" fill="#bf8256" stroke="#45413c" stroke-linecap="round" stroke-linejoin="round" stroke-width="1"></path><path d="M72.953 25.468a0.954 0.954 0 1 0 0.953 -0.953 0.953 0.953 0 0 0 -0.953 0.953Z" fill="#45413c" stroke-width="1"></path><path d="M67.231 25.468a0.954 0.954 0 1 0 0.954 -0.953 0.954 0.954 0 0 0 -0.954 0.953Z" fill="#45413c" stroke-width="1"></path><path d="M74.86 28.52a0.763 0.763 0 1 0 0.763 -0.763 0.763 0.763 0 0 0 -0.763 0.763Z" fill="#bf8256" stroke-width="1"></path><path d="M72.953 29.782a2.88 2.88 0 0 1 -3.815 0" fill="none" stroke="#45413c" stroke-linecap="round" stroke-linejoin="round" stroke-width="1"></path><path d="M78.255 25.761a3.331 3.331 0 0 0 -3.361 -3.051h-9.941c-0.8 0 -1.424 -0.456 -1.249 -1.236a9.593 9.593 0 0 1 18.988 1.9v11.18a1.43 1.43 0 0 1 -1.76 1.234c-1.909 -0.455 -2.444 -1.8 -2.677 -3.645Z" fill="#614b44" stroke-width="1"></path><path d="M63.75 21.277a12.758 12.758 0 0 1 9.594 -4.391 14.883 14.883 0 0 1 8.856 3.487 9.758 9.758 0 0 0 -10.448 -6.46 9.6 9.6 0 0 0 -8.002 7.364Z" fill="#a86c4d" stroke-width="1"></path><path d="M78.255 25.761a3.331 3.331 0 0 0 -3.361 -3.051h-9.941c-0.8 0 -1.424 -0.456 -1.249 -1.236a9.593 9.593 0 0 1 18.988 1.9v11.18a1.43 1.43 0 0 1 -1.76 1.234c-1.909 -0.455 -2.444 -1.8 -2.677 -3.645Z" fill="none" stroke="#45413c" stroke-linecap="round" stroke-linejoin="round" stroke-width="1"></path><path d="m73.183 22.71 0 -2.772" fill="none" stroke="#45413c" stroke-linecap="round" stroke-linejoin="round" stroke-width="1"></path><path d="m76.353 23.046 0 -3.108" fill="none" stroke="#45413c" stroke-linecap="round" stroke-linejoin="round" stroke-width="1"></path><path d="m70.014 22.71 0 -2.772" fill="none" stroke="#45413c" stroke-linecap="round" stroke-linejoin="round" stroke-width="1"></path><path d="m66.844 22.71 0 -2.772" fill="none" stroke="#45413c" stroke-linecap="round" stroke-linejoin="round" stroke-width="1"></path><path d="M47.826 63.205a2.219 2.219 0 0 0 4.437 0v-13h-4.437Z" fill="#ffcebf" stroke="#45413c" stroke-linecap="round" stroke-linejoin="round" stroke-width="1"></path><path d="M48.327 79.37a3.882 3.882 0 0 1 0.767 0.077V59.718H32.611V79.37h5.072a3.8 3.8 0 0 1 0.752 0.076l0.383 -12.046a2.035 2.035 0 0 1 4.069 0l0.381 11.975Z" fill="#00b8f0" stroke-width="1"></path><path d="M32.611 59.718h16.482v3.17H32.611z" fill="#009fd9" stroke-width="1"></path><path d="M48.327 79.37a3.882 3.882 0 0 1 0.767 0.077V59.718H32.611V79.37h5.072a3.8 3.8 0 0 1 0.752 0.076l0.383 -12.046a2.035 2.035 0 0 1 4.069 0l0.381 11.975Z" fill="none" stroke="#45413c" stroke-linecap="round" stroke-linejoin="round" stroke-width="1"></path><path d="M28.174 48.307a12.045 12.045 0 1 1 24.089 0v1.9h-3.169v9.509H32.611v-9.507h-4.437Z" fill="#f8f8f8" stroke-width="1"></path><path d="M40.219 36.262a12.044 12.044 0 0 0 -12.045 12.045v1.9h0.15a12.046 12.046 0 0 1 23.789 0h0.15v-1.9a12.044 12.044 0 0 0 -12.044 -12.045Z" fill="#ffffff" stroke-width="1"></path><path d="M28.174 48.307a12.045 12.045 0 1 1 24.089 0v1.9h-3.169v9.509H32.611v-9.507h-4.437Z" fill="none" stroke="#45413c" stroke-linecap="round" stroke-linejoin="round" stroke-width="1"></path><path d="M29.473 84.442a12.647 2.536 0 1 0 25.294 0 12.647 2.536 0 1 0 -25.294 0Z" fill="#45413c" opacity=".15" stroke-width="1"></path><path d="M28.174 63.205a2.219 2.219 0 0 0 4.437 0v-13h-4.437Z" fill="#ffcebf" stroke="#45413c" stroke-linecap="round" stroke-linejoin="round" stroke-width="1"></path><path d="m32.611 50.209 0 -3.804" fill="none" stroke="#45413c" stroke-linecap="round" stroke-linejoin="round" stroke-width="1"></path><path d="m49.094 50.209 0 -3.804" fill="none" stroke="#45413c" stroke-linecap="round" stroke-linejoin="round" stroke-width="1"></path><path d="M52.13 83.174a3.8 3.8 0 0 0 -3.8 -3.8h-5.075v2.536a1.268 1.268 0 0 0 1.268 1.268Z" fill="#87898c" stroke="#45413c" stroke-linecap="round" stroke-linejoin="round" stroke-width="1"></path><path d="M41.486 83.174a3.8 3.8 0 0 0 -3.8 -3.8h-5.075v2.536a1.268 1.268 0 0 0 1.268 1.268Z" fill="#87898c" stroke="#45413c" stroke-linecap="round" stroke-linejoin="round" stroke-width="1"></path><path d="M43.99 36.874a1 1 0 0 1 -0.7 -0.954l0 -3.071h-4.968l0 2.742a1 1 0 0 1 -0.777 0.973 11.262 11.262 0 0 0 -1.127 0.32l4.434 3.816 4.438 -3.322a10.923 10.923 0 0 0 -1.3 -0.504Z" fill="#ffcebf" stroke="#45413c" stroke-linecap="round" stroke-linejoin="round" stroke-width="1"></path><path d="m40.852 40.7 -4.437 -3.822 0.02 3.761a1.269 1.269 0 0 0 1.765 1.179Z" fill="#bdbec0" stroke="#45413c" stroke-linecap="round" stroke-linejoin="round" stroke-width="1"></path><path d="m40.852 40.7 4.438 -3.321v3.278a1.268 1.268 0 0 1 -1.767 1.179Z" fill="#bdbec0" stroke="#45413c" stroke-linecap="round" stroke-linejoin="round" stroke-width="1"></path><path d="m40.852 40.7 0 19.018" fill="none" stroke="#45413c" stroke-linecap="round" stroke-linejoin="round" stroke-width="1"></path><path d="M40.852 17.512a7.607 7.607 0 0 0 -7.607 7.607v1.015a1.553 1.553 0 0 0 0.16 3.074 7.608 7.608 0 0 0 15.055 -1.553v-2.536a7.608 7.608 0 0 0 -7.608 -7.607Z" fill="#ffcebf" stroke="#45413c" stroke-linecap="round" stroke-linejoin="round" stroke-width="1"></path><path d="M40.852 26.07a0.951 0.951 0 1 1 -0.95 -0.951 0.95 0.95 0 0 1 0.95 0.951Z" fill="#45413c" stroke-width="1"></path><path d="M44.022 26.07a0.951 0.951 0 1 0 0.951 -0.951 0.951 0.951 0 0 0 -0.951 0.951Z" fill="#45413c" stroke-width="1"></path><path d="M38.317 28.606a0.951 0.951 0 1 1 -0.951 -0.951 0.951 0.951 0 0 1 0.951 0.951Z" fill="#ffb59e" stroke-width="1"></path><path d="M40.219 30.883a3.427 3.427 0 0 0 3.8 0" fill="none" stroke="#45413c" stroke-linecap="round" stroke-linejoin="round" stroke-width="1"></path><path d="M31.977 21.316a5.072 5.072 0 0 1 5.072 -5.072h5.7a1.267 1.267 0 0 0 1.151 -0.736 0.911 0.911 0 0 1 0.751 -0.532h1.078a3.933 3.933 0 0 1 3.977 3.443 3.805 3.805 0 0 1 -3.371 4.142 3.479 3.479 0 0 1 -2.952 2.558H42.12a0.23 0.23 0 0 1 -0.12 -0.427 2.579 2.579 0 0 0 1.17 -1.546 0.436 0.436 0 0 0 -0.417 -0.562h-5.179a1.269 1.269 0 0 0 -0.9 0.371l-3.432 3.432h-0.634a0.634 0.634 0 0 1 -0.634 -0.634Z" fill="#ffe500" stroke-width="1"></path><path d="M37.049 16.244h5.7a1.27 1.27 0 0 0 1.152 -0.736 0.908 0.908 0 0 1 0.75 -0.532h1.078a3.933 3.933 0 0 1 3.977 3.443 3.837 3.837 0 0 1 -0.118 1.365 34.284 34.284 0 0 0 -7.473 -0.793 31.869 31.869 0 0 0 -10.079 1.521 5.072 5.072 0 0 1 5.013 -4.268Z" fill="#fff48c" stroke-width="1"></path><path d="M31.977 21.316a5.072 5.072 0 0 1 5.072 -5.072h5.7a1.267 1.267 0 0 0 1.151 -0.736 0.911 0.911 0 0 1 0.751 -0.532h1.078a3.933 3.933 0 0 1 3.977 3.443 3.805 3.805 0 0 1 -3.371 4.142 3.479 3.479 0 0 1 -2.952 2.558H42.12a0.23 0.23 0 0 1 -0.12 -0.427 2.579 2.579 0 0 0 1.17 -1.546 0.436 0.436 0 0 0 -0.417 -0.562h-5.179a1.269 1.269 0 0 0 -0.9 0.371l-3.432 3.432h-0.634a0.634 0.634 0 0 1 -0.634 -0.634Z" fill="none" stroke="#45413c" stroke-linecap="round" stroke-linejoin="round" stroke-width="1"></path><path d="M33.212 38.5 29 38.5l0.602 -5.5 3.008 0 0.602 5.5z" fill="#fffef2" stroke="#45413c" stroke-linejoin="round" stroke-width="1"></path><path d="M33.212 36.5H29l0.553 -5.054a0.5 0.5 0 0 1 0.5 -0.446h2.112a0.5 0.5 0 0 1 0.5 0.446Z" fill="#fffef2" stroke="#45413c" stroke-linejoin="round" stroke-width="1"></path><path d="M26.25 38.5h-4.212l0.553 -5.054a0.5 0.5 0 0 1 0.5 -0.446H25.2a0.5 0.5 0 0 1 0.5 0.446Z" fill="#ff6242" stroke="#45413c" stroke-linejoin="round" stroke-width="1"></path><path d="M22.2 37h-0.7a1.25 1.25 0 0 1 0 -2.5h0.984" fill="none" stroke="#45413c" stroke-linejoin="round" stroke-width="1"></path></svg>