<svg viewBox="0 0 100 100" xmlns="http://www.w3.org/2000/svg" id="Coffee-Lover-3--Streamline-Ux" height="100" width="100"><desc>Coffee Lover 3 Streamline Illustration: https://streamlinehq.com</desc><path d="M92.18 50a40 40 0 1 0 -76.436 16.5h72.872A39.829 39.829 0 0 0 92.18 50Z" fill="#b8ecff" stroke-width="1"></path><path d="M15.744 66.5a40 40 0 0 0 72.872 0Z" fill="#f0d3a8" stroke-width="1"></path><path d="m12.68 66.5 78 0" fill="none" stroke="#45413c" stroke-linecap="round" stroke-linejoin="round" stroke-width="1"></path><path d="m8.18 66.5 2.5 0" fill="none" stroke="#45413c" stroke-linecap="round" stroke-linejoin="round" stroke-width="1"></path><path d="m92.68 66.5 2.5 0" fill="none" stroke="#45413c" stroke-linecap="round" stroke-linejoin="round" stroke-width="1"></path><path d="M29.769 37.169A13.978 13.978 0 0 0 15.79 51.147v1.4h4.893v10.482h18.172v-7.688h4.892v-4.194a13.978 13.978 0 0 0 -13.978 -13.978Z" fill="#ff8a14" stroke-width="1"></path><path d="M29.769 37.169A13.978 13.978 0 0 0 15.79 51.147v1.4h0.64a13.981 13.981 0 0 1 27.248 2.8h0.069v-4.2a13.978 13.978 0 0 0 -13.978 -13.978Z" fill="#ffaa54" stroke-width="1"></path><path d="M29.769 37.169A13.978 13.978 0 0 0 15.79 51.147v1.4h4.893v10.482h18.172v-7.688h4.892v-4.194a13.978 13.978 0 0 0 -13.978 -13.978Z" fill="none" stroke="#45413c" stroke-linecap="round" stroke-linejoin="round" stroke-width="1"></path><path d="m38.855 49.75 0 2.795" fill="none" stroke="#45413c" stroke-linecap="round" stroke-linejoin="round" stroke-width="1"></path><path d="M43.946 55.341h-5.091v-2.8h5.091a0.5 0.5 0 0 1 0.5 0.5v1.8a0.5 0.5 0 0 1 -0.5 0.5Z" fill="#ffffff" stroke="#45413c" stroke-linecap="round" stroke-linejoin="round" stroke-width="1"></path><path d="M29.769 37.169a13.919 13.919 0 0 0 -7.231 2.013l6.482 9.474a0.907 0.907 0 0 0 1.5 0L37 39.182a13.918 13.918 0 0 0 -7.231 -2.013Z" fill="#ffffff" stroke="#45413c" stroke-linecap="round" stroke-linejoin="round" stroke-width="1"></path><path d="m32.925 37.527 -3.156 5.932 -3.157 -5.932 0 -4.644 6.313 0 0 4.644z" fill="#ffdb94" stroke="#45413c" stroke-linecap="round" stroke-linejoin="round" stroke-width="1"></path><path d="M20.683 63.029v2.8a4.194 4.194 0 0 0 4.194 4.193h9.783a4.2 4.2 0 0 0 4.2 -4.193v-2.8Z" fill="#87898c" stroke="#45413c" stroke-linecap="round" stroke-linejoin="round" stroke-width="1"></path><path d="M15.765 52.545A2.446 2.446 0 0 1 10.9 52.2a2.447 2.447 0 0 0 -4.893 0 7.339 7.339 0 0 0 14.669 0.349Z" fill="#ffdb94" stroke="#45413c" stroke-linecap="round" stroke-linejoin="round" stroke-width="1"></path><path d="M20.683 49.75H12.3a1.4 1.4 0 0 0 -1.4 1.4v1.4c0 3.09 2.5 4.854 5.591 4.77 3.09 0.084 5.592 -1.68 5.592 -4.77v-1.4a1.4 1.4 0 0 0 -1.4 -1.4Z" fill="#ffffff" stroke="#45413c" stroke-linecap="round" stroke-linejoin="round" stroke-width="1"></path><path d="M7.455 55.777a3.213 3.213 0 0 0 4.028 -2.672 3.362 3.362 0 0 0 -2.551 -3.586l-0.8 -0.217a2.143 2.143 0 0 0 -2.616 1.461l-0.6 2.055A2.142 2.142 0 0 0 6.4 55.491Z" fill="#ffdb94" stroke="#45413c" stroke-linecap="round" stroke-linejoin="round" stroke-width="1"></path><path d="M13.527 34.487c-1 4.012 4.188 3.307 2.475 8.144a57.026 57.026 0 0 0 3.189 -6.725 2.92 2.92 0 0 0 -5.664 -1.419Z" fill="#ffffff" stroke="#45413c" stroke-linecap="round" stroke-linejoin="round" stroke-width="1"></path><path d="m18.586 65.825 23.763 0 0 4.194 -23.763 0Z" fill="#bf8256" stroke="#45413c" stroke-linecap="round" stroke-linejoin="round" stroke-width="1"></path><path d="M21.457 82.6h-0.075a1.4 1.4 0 0 1 -1.4 -1.4V70.018h3.494l-0.625 11.261a1.4 1.4 0 0 1 -1.394 1.321Z" fill="#bf8256" stroke="#45413c" stroke-linecap="round" stroke-linejoin="round" stroke-width="1"></path><path d="M38.855 82.6h-0.076a1.4 1.4 0 0 1 -1.4 -1.32l-0.625 -11.261h3.494V81.2a1.4 1.4 0 0 1 -1.393 1.4Z" fill="#bf8256" stroke="#45413c" stroke-linecap="round" stroke-linejoin="round" stroke-width="1"></path><path d="M16.529 83.997a29.355 2.097 0 1 0 58.71 0 29.355 2.097 0 1 0 -58.71 0Z" fill="#45413c" opacity=".15" stroke-width="1"></path><path d="M38.156 66.524a3.5 3.5 0 0 0 -3.856 -3.477 3.632 3.632 0 0 0 -3.135 3.676V82.6h6.99Z" fill="#00b8f0" stroke="#45413c" stroke-linecap="round" stroke-linejoin="round" stroke-width="1"></path><path d="M37.436 83.3a1.394 1.394 0 0 0 1.254 -2.03 4.194 4.194 0 0 0 -3.672 -2.17h-0.7a4.192 4.192 0 0 0 -3.671 2.166A1.394 1.394 0 0 0 31.9 83.3Z" fill="#947746" stroke="#45413c" stroke-linecap="round" stroke-linejoin="round" stroke-width="1"></path><path d="M38.855 57.837a1.4 1.4 0 0 1 -1.4 1.4h-4.541a2.447 2.447 0 0 0 0 4.893h4.543a6.29 6.29 0 0 0 6.29 -6.29v-2.5h-4.892Z" fill="#ffdb94" stroke="#45413c" stroke-linecap="round" stroke-linejoin="round" stroke-width="1"></path><path d="M25.789 61.065A3.5 3.5 0 0 0 21.652 64a3.629 3.629 0 0 0 2.978 3.96l15.576 3.075 1.083 -5.486a1.4 1.4 0 0 0 -1.1 -1.642Z" fill="#00b8f0" stroke="#45413c" stroke-linecap="round" stroke-linejoin="round" stroke-width="1"></path><path d="M41.3 65.482a1.393 1.393 0 0 0 -1.747 -1.623 4.193 4.193 0 0 0 -2.836 3.182l-0.135 0.686A4.192 4.192 0 0 0 38 71.749a1.394 1.394 0 0 0 2.232 -0.838Z" fill="#947746" stroke="#45413c" stroke-linecap="round" stroke-linejoin="round" stroke-width="1"></path><path d="M39.553 27.782a1.723 1.723 0 0 0 -1.4 -1.677v-1.119a8.387 8.387 0 0 0 -16.774 0v1.119a1.712 1.712 0 0 0 0.176 3.39 8.388 8.388 0 0 0 16.422 0 1.73 1.73 0 0 0 1.576 -1.713Z" fill="#ffdb94" stroke="#45413c" stroke-linecap="round" stroke-linejoin="round" stroke-width="1"></path><path d="M24.178 28.831a1.048 1.048 0 1 0 2.096 0 1.048 1.048 0 1 0 -2.096 0Z" fill="#ffbe3d" stroke-width="1"></path><path d="M33.264 28.831a1.048 1.048 0 1 0 2.096 0 1.048 1.048 0 1 0 -2.096 0Z" fill="#ffbe3d" stroke-width="1"></path><path d="M30.585 32.788a0.419 0.419 0 0 0 -0.287 -0.114h-1.059a0.419 0.419 0 0 0 -0.287 0.114 4.836 4.836 0 0 1 -5.091 0.946 8.384 8.384 0 0 0 11.815 0 4.836 4.836 0 0 1 -5.091 -0.946Z" fill="#614b44" stroke="#45413c" stroke-linecap="round" stroke-linejoin="round" stroke-width="1"></path><path d="M28.372 31.646h0a3.126 3.126 0 0 0 2.8 0h0" fill="none" stroke="#45413c" stroke-linecap="round" stroke-linejoin="round" stroke-width="1"></path><path d="M29.769 13.8a9.088 9.088 0 0 0 -9.088 9.086v2a1.4 1.4 0 0 0 1.059 1.356c0.142 0.035 0.906 0.238 1.039 0.238a0.7 0.7 0 0 0 0.7 -0.7v-2.806c0 -1.312 0.808 -3.29 2.12 -3.29a1.523 1.523 0 0 1 0.8 0.231 6.92 6.92 0 0 0 6.747 0 1.527 1.527 0 0 1 0.8 -0.231c1.311 0 2.119 1.978 2.119 3.29v2.816a0.7 0.7 0 0 0 0.7 0.7c0.134 0 0.9 -0.2 1.039 -0.238a1.4 1.4 0 0 0 1.052 -1.352v-2a9.087 9.087 0 0 0 -9.087 -9.1Z" fill="#614b44" stroke-width="1"></path><path d="M29.769 13.8a9.088 9.088 0 0 0 -9.088 9.086v1.7a1.31 1.31 0 0 0 0.026 0.26 9.1 9.1 0 0 1 18.124 0 1.389 1.389 0 0 0 0.025 -0.26v-1.7a9.087 9.087 0 0 0 -9.087 -9.086Z" fill="#947063" stroke-width="1"></path><path d="M29.769 13.8a9.088 9.088 0 0 0 -9.088 9.086v2a1.4 1.4 0 0 0 1.059 1.356c0.142 0.035 0.906 0.238 1.039 0.238a0.7 0.7 0 0 0 0.7 -0.7v-2.806c0 -1.312 0.808 -3.29 2.12 -3.29a1.523 1.523 0 0 1 0.8 0.231 6.92 6.92 0 0 0 6.747 0 1.527 1.527 0 0 1 0.8 -0.231c1.311 0 2.119 1.978 2.119 3.29v2.816a0.7 0.7 0 0 0 0.7 0.7c0.134 0 0.9 -0.2 1.039 -0.238a1.4 1.4 0 0 0 1.052 -1.352v-2a9.087 9.087 0 0 0 -9.087 -9.1Z" fill="none" stroke="#45413c" stroke-linecap="round" stroke-linejoin="round" stroke-width="1"></path><path d="M33.548 26.384a1.191 1.191 0 0 0 -1.683 0" fill="none" stroke="#45413c" stroke-linecap="round" stroke-linejoin="round" stroke-width="1"></path><path d="M27.672 26.384a1.19 1.19 0 0 0 -1.682 0" fill="none" stroke="#45413c" stroke-linecap="round" stroke-linejoin="round" stroke-width="1"></path><path d="M84.332 66.5h-5a1 1 0 0 1 -1 -1v-3h7v3a1 1 0 0 1 -1 1Z" fill="#bf8256" stroke-width="1"></path><path d="M78.332 62.5h7v1h-7z" fill="#915e3a" stroke-width="1"></path><path d="M78.874 40.033c0.955 0.7 2.511 3.109 1.893 3.949s-3.176 -0.2 -4.131 -0.905a1.9 1.9 0 1 1 2.238 -3.044Z" fill="#9ceb60" stroke-width="1"></path><path d="M78.874 40.033c0.955 0.7 2.511 3.109 1.893 3.949s-3.176 -0.2 -4.131 -0.905a1.9 1.9 0 1 1 2.238 -3.044Z" fill="none" stroke="#45413c" stroke-linecap="round" stroke-linejoin="round" stroke-width="1"></path><path d="M82.942 40.033c-0.956 0.7 -2.511 3.109 -1.893 3.949s3.175 -0.2 4.13 -0.905a1.9 1.9 0 1 0 -2.237 -3.044Z" fill="#9ceb60" stroke-width="1"></path><path d="M82.942 40.033c-0.956 0.7 -2.511 3.109 -1.893 3.949s3.175 -0.2 4.13 -0.905a1.9 1.9 0 1 0 -2.237 -3.044Z" fill="none" stroke="#45413c" stroke-linecap="round" stroke-linejoin="round" stroke-width="1"></path><path d="M86.817 46.537c-1.162 0.237 -3.583 1.769 -3.375 2.791s2.968 1.148 4.129 0.911a1.9 1.9 0 1 0 -0.754 -3.7Z" fill="#6dd627" stroke-width="1"></path><path d="M86.817 46.537c-1.162 0.237 -3.583 1.769 -3.375 2.791s2.968 1.148 4.129 0.911a1.9 1.9 0 1 0 -0.754 -3.7Z" fill="none" stroke="#45413c" stroke-linecap="round" stroke-linejoin="round" stroke-width="1"></path><path d="M80.869 53.208s1.118 -3.284 2.605 -3.779" fill="none" stroke="#45413c" stroke-linecap="round" stroke-linejoin="round" stroke-width="1"></path><path d="M80.814 52.278s-0.469 -6.905 0.151 -8.455" fill="#46b000" stroke="#45413c" stroke-linecap="round" stroke-linejoin="round" stroke-width="1"></path><path d="M81.195 61.644s-0.231 -8.746 -0.541 -11.255c-0.171 -1.387 -1.876 -1.934 -1.876 -1.934" fill="none" stroke="#45413c" stroke-linecap="round" stroke-linejoin="round" stroke-width="1"></path><path d="M75.442 45.618c1.158 0.252 3.558 1.818 3.336 2.837s-2.983 1.107 -4.142 0.854a1.9 1.9 0 1 1 0.806 -3.691Z" fill="#6dd627" stroke="#45413c" stroke-linecap="round" stroke-linejoin="round" stroke-width="1"></path><path d="M84.332 66.5h-5a1 1 0 0 1 -1 -1v-3h7v3a1 1 0 0 1 -1 1Z" fill="none" stroke="#45413c" stroke-linecap="round" stroke-linejoin="round" stroke-width="1"></path><path d="M85.332 62.5a1 1 0 0 0 0 -2h-7a1 1 0 0 0 0 2Z" fill="#bf8256" stroke-width="1"></path><path d="M86.332 61.5a1 1 0 0 0 -1 -1h-7a1 1 0 0 0 -1 1Z" fill="#e09f7e" stroke-width="1"></path><path d="M85.332 62.5a1 1 0 0 0 0 -2h-7a1 1 0 0 0 0 2Z" fill="none" stroke="#45413c" stroke-linecap="round" stroke-linejoin="round" stroke-width="1"></path><path d="M53.68 23.5a6 6 0 1 0 12 0 6 6 0 1 0 -12 0Z" fill="#ffffff" stroke-width="1"></path><path d="M59.68 20a6 6 0 0 1 5.868 4.75 6 6 0 1 0 -11.735 0A6 6 0 0 1 59.68 20Z" fill="#daedf7" stroke-width="1"></path><path d="M53.68 23.5a6 6 0 1 0 12 0 6 6 0 1 0 -12 0Z" fill="none" stroke="#45413c" stroke-linecap="round" stroke-linejoin="round" stroke-width="1"></path><path d="m53.68 23.5 2 0" fill="none" stroke="#45413c" stroke-linecap="round" stroke-linejoin="round" stroke-width="1"></path><path d="m63.68 23.5 2 0" fill="none" stroke="#45413c" stroke-linecap="round" stroke-linejoin="round" stroke-width="1"></path><path d="m59.68 17.5 0 2" fill="none" stroke="#45413c" stroke-linecap="round" stroke-linejoin="round" stroke-width="1"></path><path d="m59.68 27.5 0 2" fill="none" stroke="#45413c" stroke-linecap="round" stroke-linejoin="round" stroke-width="1"></path><path d="m58.18 22.5 1.5 1.5 2.5 -2.5" fill="none" stroke="#45413c" stroke-linecap="round" stroke-linejoin="round" stroke-width="1"></path><path d="m48.561 60.029 24.09 0 0 3.804 -24.09 0Z" fill="#bf8256" stroke="#45413c" stroke-linecap="round" stroke-linejoin="round" stroke-width="1"></path><path d="M69.382 71.44H51.828a2 2 0 0 1 -2 -2v-5.607h21.554v5.607a2 2 0 0 1 -2 2Z" fill="#bf8256" stroke-width="1"></path><path d="M49.828 63.833h21.554v2.536H49.828z" fill="#915e3a" stroke-width="1"></path><path d="M69.382 71.44H51.828a2 2 0 0 1 -2 -2v-5.607h21.554v5.607a2 2 0 0 1 -2 2Z" fill="none" stroke="#45413c" stroke-linecap="round" stroke-linejoin="round" stroke-width="1"></path><path d="M54.365 81.96a1 1 0 0 1 -1 0.891h0a1 1 0 0 1 -1 -1V71.44h3.17Z" fill="#bf8256" stroke="#45413c" stroke-linecap="round" stroke-linejoin="round" stroke-width="1"></path><path d="M67.841 82.851h0a1 1 0 0 0 1 -1V71.44h-3.17l1.169 10.52a1 1 0 0 0 1.001 0.891Z" fill="#bf8256" stroke="#45413c" stroke-linecap="round" stroke-linejoin="round" stroke-width="1"></path><path d="M66.311 44.815H56.56a0.633 0.633 0 0 0 -0.567 0.917l1.443 2.886v6.974a1.9 1.9 0 0 0 1.9 1.9h5.071a1.9 1.9 0 0 0 1.9 -1.9Z" fill="#00b8f0" stroke-width="1"></path><path d="M66.311 44.815H56.56a0.633 0.633 0 0 0 -0.567 0.917l1.443 2.886v5.072Z" fill="#4acfff" stroke-width="1"></path><path d="M66.311 50.52h-8.875v5.072a1.9 1.9 0 0 0 1.9 1.9h5.071a1.9 1.9 0 0 0 1.9 -1.9Z" fill="#614b44" stroke-width="1"></path><path d="m57.436 50.52 0 3.17 3.169 -3.17 -3.169 0z" fill="#947063" stroke-width="1"></path><path d="M66.311 44.815H56.56a0.633 0.633 0 0 0 -0.567 0.917l1.443 2.886v6.974a1.9 1.9 0 0 0 1.9 1.9h5.071a1.9 1.9 0 0 0 1.9 -1.9Z" fill="none" stroke="#45413c" stroke-linecap="round" stroke-linejoin="round" stroke-width="1"></path><path d="M66.311 44.815a5.072 5.072 0 0 1 0 10.143" fill="none" stroke="#45413c" stroke-linecap="round" stroke-linejoin="round" stroke-width="1"></path><path d="m59.972 44.815 0 15.214" fill="none" stroke="#45413c" stroke-linecap="round" stroke-linejoin="round" stroke-width="1"></path><path d="m63.775 44.815 0 15.214" fill="none" stroke="#45413c" stroke-linecap="round" stroke-linejoin="round" stroke-width="1"></path><path d="M57.436 44.815a4.438 4.438 0 1 1 8.875 0Z" fill="#daedf7" stroke="#45413c" stroke-linecap="round" stroke-linejoin="round" stroke-width="1"></path><path d="m61.873 40.377 0 -2.536" fill="none" stroke="#45413c" stroke-linecap="round" stroke-linejoin="round" stroke-width="1"></path><path d="M60.605 37.841a1.268 1.268 0 1 0 2.536 0 1.268 1.268 0 1 0 -2.536 0Z" fill="#45413c" stroke-width="1"></path></svg>