<svg viewBox="0 0 100 100" xmlns="http://www.w3.org/2000/svg" id="Coffee-Lover-4--Streamline-Ux" height="100" width="100"><desc>Coffee Lover 4 Streamline Illustration: https://streamlinehq.com</desc><path d="M90.5 50a40 40 0 1 0 -76.436 16.5h72.872A39.844 39.844 0 0 0 90.5 50Z" fill="#b8ecff" stroke-width="1"></path><path d="M14.064 66.5a40 40 0 0 0 72.872 0Z" fill="#f0d3a8" stroke-width="1"></path><path d="m11 66.5 78 0" fill="none" stroke="#45413c" stroke-linecap="round" stroke-linejoin="round" stroke-width="1"></path><path d="m6.5 66.5 2.5 0" fill="none" stroke="#45413c" stroke-linecap="round" stroke-linejoin="round" stroke-width="1"></path><path d="m91 66.5 2.5 0" fill="none" stroke="#45413c" stroke-linecap="round" stroke-linejoin="round" stroke-width="1"></path><path d="M22.296 33.783h16.761v9.696H22.296z" fill="#614b44" stroke="#45413c" stroke-linecap="round" stroke-linejoin="round" stroke-width="1"></path><path d="M18.001 85.729a27.956 1.997 0 1 0 55.912 0 27.956 1.997 0 1 0 -55.912 0Z" fill="#45413c" opacity=".15" stroke-width="1"></path><path d="M42.628 53.113v0.666h-4.659v11.315H23.325V53.779h-4.659v-0.666a11.981 11.981 0 0 1 23.962 0Z" fill="#f8f8f8" stroke-width="1"></path><path d="m37.969 65.094 -14.644 0 -1.331 3.328 17.306 0 -1.331 -3.328z" fill="#87898c" stroke="#45413c" stroke-linecap="round" stroke-linejoin="round" stroke-width="1"></path><path d="M30.647 41.132a11.981 11.981 0 0 0 -11.981 11.981v0.666a12.361 12.361 0 0 1 23.962 0v-0.666a11.981 11.981 0 0 0 -11.981 -11.981Z" fill="#ffffff" stroke-width="1"></path><path d="m19.998 68.422 21.3 0 0 3.994 -21.3 0Z" fill="#947746" stroke="#45413c" stroke-linecap="round" stroke-linejoin="round" stroke-width="1"></path><path d="M22.732 84.4h-0.072a1.331 1.331 0 0 1 -1.331 -1.332V72.416h3.328l-0.6 10.724a1.331 1.331 0 0 1 -1.325 1.26Z" fill="#947746" stroke="#45413c" stroke-linecap="round" stroke-linejoin="round" stroke-width="1"></path><path d="M39.967 83.066a1.332 1.332 0 0 1 -1.332 1.334h-0.072a1.331 1.331 0 0 1 -1.329 -1.258l-0.6 -10.724h3.329Z" fill="#947746" stroke="#45413c" stroke-linecap="round" stroke-linejoin="round" stroke-width="1"></path><path d="M36.863 68.545a3.117 3.117 0 1 0 -6.147 0.985L33.9 84.4h4.66Z" fill="#87898c" stroke="#45413c" stroke-linecap="round" stroke-linejoin="round" stroke-width="1"></path><path d="M24.431 68.545a3.117 3.117 0 1 1 6.147 0.985L27.392 84.4h-4.66Z" fill="#87898c" stroke="#45413c" stroke-linecap="round" stroke-linejoin="round" stroke-width="1"></path><path d="M36.863 68.545a3.117 3.117 0 1 0 -6.147 0.985l0.191 0.889h6.157Z" fill="#bf8256" stroke="#45413c" stroke-linecap="round" stroke-linejoin="round" stroke-width="1"></path><path d="M27.53 65.76a3.117 3.117 0 0 0 -3.1 2.785l-0.2 1.874h6.157l0.191 -0.889a3.117 3.117 0 0 0 -3.048 -3.77Z" fill="#bf8256" stroke="#45413c" stroke-linecap="round" stroke-linejoin="round" stroke-width="1"></path><path d="M38.8 85.063a1.327 1.327 0 0 0 1.2 -1.931 3.994 3.994 0 0 0 -3.5 -2.063h-0.666a3.994 3.994 0 0 0 -3.5 2.063 1.327 1.327 0 0 0 1.195 1.931Z" fill="#915e3a" stroke="#45413c" stroke-linecap="round" stroke-linejoin="round" stroke-width="1"></path><path d="M22.492 85.063a1.327 1.327 0 0 1 -1.2 -1.931 3.994 3.994 0 0 1 3.5 -2.063h0.666a3.994 3.994 0 0 1 3.5 2.063 1.327 1.327 0 0 1 -1.2 1.931Z" fill="#915e3a" stroke="#45413c" stroke-linecap="round" stroke-linejoin="round" stroke-width="1"></path><path d="M42.628 53.113v0.666h-4.659v11.315H23.325V53.779h-4.659v-0.666a11.981 11.981 0 0 1 23.962 0Z" fill="none" stroke="#45413c" stroke-linecap="round" stroke-linejoin="round" stroke-width="1"></path><path d="M34.192 41.665a1 1 0 0 1 -0.7 -0.956v-1.9h-5.686v1.9a1 1 0 0 1 -0.7 0.956 11.733 11.733 0 0 0 -1.647 0.647 5.325 5.325 0 0 0 10.385 0 11.745 11.745 0 0 0 -1.652 -0.647Z" fill="#bf8256" stroke="#45413c" stroke-linecap="round" stroke-linejoin="round" stroke-width="1"></path><path d="M34.641 54.444h-7.988a1.331 1.331 0 0 0 -1.331 1.331v1.332a5.325 5.325 0 0 0 10.65 0v-1.332a1.331 1.331 0 0 0 -1.331 -1.331Z" fill="#ffffff" stroke="#45413c" stroke-linecap="round" stroke-linejoin="round" stroke-width="1"></path><path d="M23.325 53.779h-4.659v4.326a5 5 0 0 0 4.992 4.995h2a2.33 2.33 0 1 0 0 -4.659h-1.667a0.665 0.665 0 0 1 -0.664 -0.665c0.003 -1.201 0.007 -3.629 -0.002 -3.997Z" fill="#bf8256" stroke="#45413c" stroke-linecap="round" stroke-linejoin="round" stroke-width="1"></path><path d="M37.969 53.779h4.659v4.326a5 5 0 0 1 -4.992 4.995h-2a2.33 2.33 0 0 1 0 -4.659H37.3a0.665 0.665 0 0 0 0.664 -0.665c0.001 -1.201 -0.004 -3.629 0.005 -3.997Z" fill="#bf8256" stroke="#45413c" stroke-linecap="round" stroke-linejoin="round" stroke-width="1"></path><path d="M23.991 58.438a0.666 0.666 0 0 1 -0.666 -0.666 4.04 4.04 0 0 0 -0.753 -2.477A2.689 2.689 0 0 1 22 53.779c-0.021 -0.895 0.5 -1.841 1.3 -3.354a2.818 2.818 0 0 0 0.028 -2.636h1.331v10.65Z" fill="#f8f8f8" stroke-width="1"></path><path d="M37.3 58.438a0.666 0.666 0 0 0 0.666 -0.666 4.04 4.04 0 0 1 0.753 -2.477 2.689 2.689 0 0 0 0.577 -1.516c0.021 -0.895 -0.5 -1.841 -1.3 -3.354a2.818 2.818 0 0 1 -0.028 -2.636h-1.33v10.65Z" fill="#f8f8f8" stroke-width="1"></path><path d="M23.325 47.788a2.818 2.818 0 0 1 -0.028 2.636c-0.8 1.513 -1.324 2.459 -1.3 3.354h0a2.689 2.689 0 0 0 0.577 1.516 4.04 4.04 0 0 1 0.753 2.477 0.666 0.666 0 0 0 0.666 0.666h1.664" fill="none" stroke="#45413c" stroke-linecap="round" stroke-linejoin="round" stroke-width="1"></path><path d="M37.969 47.788A2.818 2.818 0 0 0 38 50.424c0.8 1.513 1.324 2.459 1.3 3.354h0a2.689 2.689 0 0 1 -0.577 1.516 4.04 4.04 0 0 0 -0.753 2.477 0.666 0.666 0 0 1 -0.666 0.666h-1.665" fill="none" stroke="#45413c" stroke-linecap="round" stroke-linejoin="round" stroke-width="1"></path><path d="M39.966 32.144a1.641 1.641 0 0 0 -1.331 -1.6v-1.063a7.988 7.988 0 0 0 -15.976 0v1.066a1.631 1.631 0 0 0 0.168 3.228 7.988 7.988 0 0 0 15.64 0 1.648 1.648 0 0 0 1.499 -1.631Z" fill="#bf8256" stroke="#45413c" stroke-linecap="round" stroke-linejoin="round" stroke-width="1"></path><path d="M25.322 33.142a0.998 0.998 0 1 0 1.996 0 0.998 0.998 0 1 0 -1.996 0Z" fill="#bf8256" stroke-width="1"></path><path d="M33.976 33.142a0.998 0.998 0 1 0 1.996 0 0.998 0.998 0 1 0 -1.996 0Z" fill="#bf8256" stroke-width="1"></path><path d="M32.644 35.472a3.327 3.327 0 0 1 -3.994 0" fill="none" stroke="#45413c" stroke-linecap="round" stroke-linejoin="round" stroke-width="1"></path><path d="M26.654 30.48a0.998 0.998 0 1 0 1.996 0 0.998 0.998 0 1 0 -1.996 0Z" fill="#45413c" stroke-width="1"></path><path d="M32.644 30.48a0.998 0.998 0 1 0 1.996 0 0.998 0.998 0 1 0 -1.996 0Z" fill="#45413c" stroke-width="1"></path><path d="M23.61 21.674a6.175 6.175 0 0 0 -2.117 2.126c-0.6 1.043 -1.15 2.632 -1.15 6.782 0 5.991 -2 5.991 -2 9.985 0 3.618 3.034 4.5 6.762 4.639a0.632 0.632 0 0 0 0.592 -0.924c-0.945 -1.765 -2.695 -6.176 -2.695 -14.631 3.113 0.785 11.331 -3.662 11.982 -5.725 4.18 5.508 3.534 13.8 1.42 20.466a0.63 0.63 0 0 0 0.625 0.823c3.742 -0.1 7.043 -0.887 7.043 -4.648 0 -2.7 -1.266 -3.781 -2.088 -6.048a8.167 8.167 0 0 1 -0.461 -3.011c0.1 -3.692 0.206 -8.662 -2.546 -9.579h0c-4.534 -3.789 -9.833 -3.692 -15.367 -0.255Z" fill="#614b44" stroke="#45413c" stroke-linecap="round" stroke-linejoin="round" stroke-width="1"></path><path d="M28.707 22.869c4.1 -1.747 8.852 -2.118 10.273 -0.942a9.323 9.323 0 0 0 -0.147 -3.206c-1.047 -2.461 -6.443 -2.522 -12.051 -0.136s-8.436 5.339 -9.1 8 1.159 3.105 2.663 3.328c0.035 -1.843 4.183 -5.266 8.362 -7.044Z" fill="#00dba8" stroke="#45413c" stroke-linecap="round" stroke-linejoin="round" stroke-width="1"></path><path d="M83.928 66.5h-5a1 1 0 0 1 -1 -1v-3h7v3a1 1 0 0 1 -1 1Z" fill="#bf8256" stroke-width="1"></path><path d="M77.928 62.5h7v1h-7z" fill="#915e3a" stroke-width="1"></path><path d="M78.471 40.033c0.955 0.7 2.511 3.109 1.893 3.949s-3.176 -0.2 -4.131 -0.905a1.9 1.9 0 1 1 2.238 -3.044Z" fill="#9ceb60" stroke-width="1"></path><path d="M78.471 40.033c0.955 0.7 2.511 3.109 1.893 3.949s-3.176 -0.2 -4.131 -0.905a1.9 1.9 0 1 1 2.238 -3.044Z" fill="none" stroke="#45413c" stroke-linecap="round" stroke-linejoin="round" stroke-width="1"></path><path d="M82.538 40.033c-0.955 0.7 -2.51 3.109 -1.892 3.949s3.175 -0.2 4.13 -0.905a1.9 1.9 0 1 0 -2.238 -3.044Z" fill="#9ceb60" stroke-width="1"></path><path d="M82.538 40.033c-0.955 0.7 -2.51 3.109 -1.892 3.949s3.175 -0.2 4.13 -0.905a1.9 1.9 0 1 0 -2.238 -3.044Z" fill="none" stroke="#45413c" stroke-linecap="round" stroke-linejoin="round" stroke-width="1"></path><path d="M86.414 46.537c-1.162 0.237 -3.583 1.769 -3.375 2.791s2.968 1.148 4.129 0.911a1.9 1.9 0 1 0 -0.754 -3.7Z" fill="#6dd627" stroke-width="1"></path><path d="M86.414 46.537c-1.162 0.237 -3.583 1.769 -3.375 2.791s2.968 1.148 4.129 0.911a1.9 1.9 0 1 0 -0.754 -3.7Z" fill="none" stroke="#45413c" stroke-linecap="round" stroke-linejoin="round" stroke-width="1"></path><path d="M80.466 53.208s1.118 -3.284 2.605 -3.779" fill="none" stroke="#45413c" stroke-linecap="round" stroke-linejoin="round" stroke-width="1"></path><path d="M80.411 52.278s-0.469 -6.905 0.151 -8.455" fill="#46b000" stroke="#45413c" stroke-linecap="round" stroke-linejoin="round" stroke-width="1"></path><path d="M80.792 61.644s-0.231 -8.746 -0.541 -11.255c-0.171 -1.387 -1.876 -1.934 -1.876 -1.934" fill="none" stroke="#45413c" stroke-linecap="round" stroke-linejoin="round" stroke-width="1"></path><path d="M75.039 45.618c1.158 0.252 3.558 1.818 3.336 2.837s-2.983 1.107 -4.142 0.854a1.9 1.9 0 1 1 0.806 -3.691Z" fill="#6dd627" stroke="#45413c" stroke-linecap="round" stroke-linejoin="round" stroke-width="1"></path><path d="M83.928 66.5h-5a1 1 0 0 1 -1 -1v-3h7v3a1 1 0 0 1 -1 1Z" fill="none" stroke="#45413c" stroke-linecap="round" stroke-linejoin="round" stroke-width="1"></path><path d="M84.928 62.5a1 1 0 0 0 0 -2h-7a1 1 0 0 0 0 2Z" fill="#bf8256" stroke-width="1"></path><path d="M85.928 61.5a1 1 0 0 0 -1 -1h-7a1 1 0 0 0 -1 1Z" fill="#e09f7e" stroke-width="1"></path><path d="M84.928 62.5a1 1 0 0 0 0 -2h-7a1 1 0 0 0 0 2Z" fill="none" stroke="#45413c" stroke-linecap="round" stroke-linejoin="round" stroke-width="1"></path><path d="M52.5 23.5a6 6 0 1 0 12 0 6 6 0 1 0 -12 0Z" fill="#ffffff" stroke-width="1"></path><path d="M58.5 20a6 6 0 0 1 5.868 4.75 6 6 0 1 0 -11.736 0A6 6 0 0 1 58.5 20Z" fill="#daedf7" stroke-width="1"></path><path d="M52.5 23.5a6 6 0 1 0 12 0 6 6 0 1 0 -12 0Z" fill="none" stroke="#45413c" stroke-linecap="round" stroke-linejoin="round" stroke-width="1"></path><path d="m52.5 23.5 2 0" fill="none" stroke="#45413c" stroke-linecap="round" stroke-linejoin="round" stroke-width="1"></path><path d="m62.5 23.5 2 0" fill="none" stroke="#45413c" stroke-linecap="round" stroke-linejoin="round" stroke-width="1"></path><path d="m58.5 17.5 0 2" fill="none" stroke="#45413c" stroke-linecap="round" stroke-linejoin="round" stroke-width="1"></path><path d="m58.5 27.5 0 2" fill="none" stroke="#45413c" stroke-linecap="round" stroke-linejoin="round" stroke-width="1"></path><path d="m57 22.5 1.5 1.5 2.5 -2.5" fill="none" stroke="#45413c" stroke-linecap="round" stroke-linejoin="round" stroke-width="1"></path><path d="m46.454 61.1 25.294 0 0 3.994 -25.294 0Z" fill="#b89558" stroke="#45413c" stroke-linecap="round" stroke-linejoin="round" stroke-width="1"></path><path d="M68.416 73.082H49.785a2 2 0 0 1 -2 -2v-5.988h22.631v5.988a2 2 0 0 1 -2 2Z" fill="#b89558" stroke-width="1"></path><path d="M47.785 65.094h22.632v2.663H47.785z" fill="#947746" stroke-width="1"></path><path d="M68.416 73.082H49.785a2 2 0 0 1 -2 -2v-5.988h22.631v5.988a2 2 0 0 1 -2 2Z" fill="none" stroke="#45413c" stroke-linecap="round" stroke-linejoin="round" stroke-width="1"></path><path d="M51.5 85.063h0a1.052 1.052 0 0 1 -1.052 -1.051v-10.93h3.329l-1.229 11.046a1.051 1.051 0 0 1 -1.048 0.935Z" fill="#b89558" stroke="#45413c" stroke-linecap="round" stroke-linejoin="round" stroke-width="1"></path><path d="M66.7 85.063h0a1.052 1.052 0 0 0 1.052 -1.051v-10.93h-3.326l1.227 11.046a1.051 1.051 0 0 0 1.047 0.935Z" fill="#b89558" stroke="#45413c" stroke-linecap="round" stroke-linejoin="round" stroke-width="1"></path><path d="M65.091 45.125H54.853a0.666 0.666 0 0 0 -0.6 0.964l1.515 3.03v7.322a2 2 0 0 0 2 2h5.325a2 2 0 0 0 2 -2Z" fill="#00b8f0" stroke-width="1"></path><path d="M65.091 45.125H54.853a0.666 0.666 0 0 0 -0.6 0.964l1.515 3.03v5.325Z" fill="#4acfff" stroke-width="1"></path><path d="M65.091 51.116h-9.319v5.325a2 2 0 0 0 2 2h5.325a2 2 0 0 0 2 -2Z" fill="#614b44" stroke-width="1"></path><path d="m55.772 51.116 0 3.328 3.329 -3.328 -3.329 0z" fill="#947063" stroke-width="1"></path><path d="M65.091 45.125H54.853a0.666 0.666 0 0 0 -0.6 0.964l1.515 3.03v7.322a2 2 0 0 0 2 2h5.325a2 2 0 0 0 2 -2Z" fill="none" stroke="#45413c" stroke-linecap="round" stroke-linejoin="round" stroke-width="1"></path><path d="M65.091 45.125a5.325 5.325 0 0 1 0 10.65" fill="none" stroke="#45413c" stroke-linecap="round" stroke-linejoin="round" stroke-width="1"></path><path d="m58.435 45.125 0 15.975" fill="none" stroke="#45413c" stroke-linecap="round" stroke-linejoin="round" stroke-width="1"></path><path d="m62.429 45.125 0 15.975" fill="none" stroke="#45413c" stroke-linecap="round" stroke-linejoin="round" stroke-width="1"></path><path d="M55.772 45.125a4.66 4.66 0 0 1 9.319 0Z" fill="#daedf7" stroke="#45413c" stroke-linecap="round" stroke-linejoin="round" stroke-width="1"></path><path d="m60.432 40.466 0 -2.663" fill="none" stroke="#45413c" stroke-linecap="round" stroke-linejoin="round" stroke-width="1"></path><path d="M59.101 37.803a1.331 1.331 0 1 0 2.662 0 1.331 1.331 0 1 0 -2.662 0Z" fill="#45413c" stroke-width="1"></path></svg>