<svg viewBox="0 0 100 100" xmlns="http://www.w3.org/2000/svg" id="Coffee-Making-2-3--Streamline-Ux" height="100" width="100"><desc>Coffee Making 2 3 Streamline Illustration: https://streamlinehq.com</desc><path d="M90 50.269a40 40 0 1 0 -76.436 16.5h72.872A39.844 39.844 0 0 0 90 50.269Z" fill="#b8ecff" stroke-width="1"></path><path d="M13.564 66.769a40 40 0 0 0 72.872 0Z" fill="#f7e5c6" stroke-width="1"></path><path d="m11 66.769 78 0" fill="none" stroke="#45413c" stroke-linecap="round" stroke-linejoin="round" stroke-width="1"></path><path d="m6.5 66.769 2.5 0" fill="none" stroke="#45413c" stroke-linecap="round" stroke-linejoin="round" stroke-width="1"></path><path d="m91 66.769 2.5 0" fill="none" stroke="#45413c" stroke-linecap="round" stroke-linejoin="round" stroke-width="1"></path><path d="M52.385 16.465a1.75 1.75 0 0 0 -1.9 -1.122 30.589 30.589 0 0 0 -11.663 4.277l-0.634 0.393a1.749 1.749 0 1 0 1.843 2.974l0.634 -0.393A27.074 27.074 0 0 1 51 18.8a1.751 1.751 0 0 0 1.472 -1.989 1.78 1.78 0 0 0 -0.087 -0.346Z" fill="#bf8256" stroke="#45413c" stroke-width="1"></path><path d="M55.1 34.348A1.751 1.751 0 0 1 55.878 32a3.608 3.608 0 1 0 -2.878 0.159 1.749 1.749 0 1 1 -1.217 3.28 7.1 7.1 0 0 1 -2.249 -11.966l-0.056 -0.11a27.35 27.35 0 0 0 -8.555 8.42l-0.4 0.628a1.749 1.749 0 0 1 -2.945 -1.889l0.4 -0.628c0.386 -0.6 0.8 -1.184 1.229 -1.757a1.746 1.746 0 0 1 -2.774 -2.121c10.353 -14.269 20.46 -10.452 26.05 -12.516l2.871 -1.061 3.487 9.434 -1.5 0.557c-4.47 1.673 -5.807 2.8 -5.97 6.512a7.2 7.2 0 0 1 -3.923 6.191 1.751 1.751 0 0 1 -2.348 -0.785Z" fill="#bf8256" stroke-width="1"></path><path d="m66.036 14.283 -2.461 0.909c-5.59 2.066 -15.7 -1.75 -26.046 12.519a1.735 1.735 0 0 0 -0.331 0.949 1.728 1.728 0 0 1 -0.762 -2.644C46.786 11.748 56.893 15.564 62.483 13.5l2.871 -1.061Z" fill="#e09f7e" stroke-width="1"></path><path d="M48.038 20.134a30.916 30.916 0 0 0 -8.832 7.993" fill="none" stroke="#45413c" stroke-linecap="round" stroke-width="1"></path><path d="M55.1 34.348A1.751 1.751 0 0 1 55.878 32a3.608 3.608 0 1 0 -2.878 0.159 1.749 1.749 0 1 1 -1.217 3.28 7.1 7.1 0 0 1 -2.249 -11.966l-0.056 -0.11a27.35 27.35 0 0 0 -8.555 8.42l-0.4 0.628a1.749 1.749 0 0 1 -2.945 -1.889l0.4 -0.628c0.386 -0.6 0.8 -1.184 1.229 -1.757a1.746 1.746 0 0 1 -2.774 -2.121c10.353 -14.269 20.46 -10.452 26.05 -12.516l2.871 -1.061 3.487 9.434 -1.5 0.557c-4.47 1.673 -5.807 2.8 -5.97 6.512a7.2 7.2 0 0 1 -3.923 6.191 1.751 1.751 0 0 1 -2.348 -0.785Z" fill="none" stroke="#45413c" stroke-linecap="round" stroke-linejoin="round" stroke-width="1"></path><path d="m75.212 6.566 -9.654 3.9a0.875 0.875 0 0 0 -0.517 1.124l4.093 11.075a0.875 0.875 0 0 0 1.124 0.517l9.179 -3.723" fill="#009fd9" stroke-width="1"></path><path d="M75.84 8.665 65.5 12.819l-0.454 -1.23a0.875 0.875 0 0 1 0.517 -1.124l9.654 -3.9" fill="#00b8f0" stroke-width="1"></path><path d="m75.212 6.566 -9.654 3.9a0.875 0.875 0 0 0 -0.517 1.124l4.093 11.075a0.875 0.875 0 0 0 1.124 0.517l9.179 -3.723" fill="none" stroke="#45413c" stroke-linecap="round" stroke-linejoin="round" stroke-width="1"></path><path d="m69.134 22.664 -1.752 0.648a0.756 0.756 0 0 1 -0.971 -0.447l-3.57 -9.658a0.756 0.756 0 0 1 0.447 -0.97l1.753 -0.648Z" fill="#ffffff" stroke="#45413c" stroke-linecap="round" stroke-linejoin="round" stroke-width="1"></path><path d="M33.929 57.547s-2.386 -2.067 -2.421 -4.3 1.35 -2.888 1.193 -4.414 -2.851 -2.159 -4.057 0.006c-1.81 -0.461 -0.943 -5.1 3 -5.1 2.525 0 4.711 2.383 3.143 6.2 -0.627 1.517 -1.925 2.888 -0.858 7.608Z" fill="#ffffff" stroke="#45413c" stroke-linecap="round" stroke-linejoin="round" stroke-width="1"></path><path d="M51.658 30.96a2.894 2.894 0 1 0 5.788 0 2.894 2.894 0 1 0 -5.788 0Z" fill="#87898c" stroke-width="1"></path><path d="M64.971 76.685A2.316 2.316 0 0 1 62.655 79H46.449a2.316 2.316 0 0 1 -2.316 -2.316v-28.36l-3.187 -2.732a0.421 0.421 0 0 1 0.274 -0.741h23.751Z" fill="#b8ecff" stroke-width="1"></path><path d="M44.133 76.685A2.316 2.316 0 0 0 46.449 79h16.206a2.316 2.316 0 0 0 2.316 -2.316V58.742H44.133Z" fill="#bf8256" stroke-width="1"></path><path d="M58.025 37.905h-6.946a6.946 6.946 0 0 0 -6.946 6.946h20.838a6.946 6.946 0 0 0 -6.946 -6.946Z" fill="#daedf7" stroke-width="1"></path><path d="M64.971 76.685A2.316 2.316 0 0 1 62.655 79H46.449a2.316 2.316 0 0 1 -2.316 -2.316v-28.36L40.961 45.6a0.428 0.428 0 0 1 0.278 -0.753h23.732Z" fill="none" stroke="#45413c" stroke-linecap="round" stroke-linejoin="round" stroke-width="1"></path><path d="M62.655 75.528H46.449a2.316 2.316 0 0 1 -2.316 -2.315v3.472A2.316 2.316 0 0 0 46.449 79h16.206a2.316 2.316 0 0 0 2.316 -2.316v-3.471a2.316 2.316 0 0 1 -2.316 2.315Z" fill="#915e3a" stroke-width="1"></path><path d="M44.133 76.685A2.316 2.316 0 0 0 46.449 79h16.206a2.316 2.316 0 0 0 2.316 -2.316V58.742H44.133Z" fill="none" stroke="#45413c" stroke-linecap="round" stroke-linejoin="round" stroke-width="1"></path><path d="M44.133 48.902H64.97v3.473H44.133z" fill="#adc4d9" stroke="#45413c" stroke-linecap="round" stroke-linejoin="round" stroke-width="1"></path><path d="M51.079 79h-4.052l0.4 -1.614a5.894 5.894 0 0 0 0.175 -1.424V52.375H50.5v23.588a5.846 5.846 0 0 0 0.176 1.424Z" fill="#adc4d9" stroke="#45413c" stroke-linecap="round" stroke-linejoin="round" stroke-width="1"></path><path d="m61.498 52.375 -2.894 0 0 24.31 -0.579 2.316 4.052 0 -0.579 -2.315 0 -24.311z" fill="#adc4d9" stroke="#45413c" stroke-linecap="round" stroke-linejoin="round" stroke-width="1"></path><path d="M51.079 40.22h6.946a6.943 6.943 0 0 1 6.542 4.631h0.4a6.946 6.946 0 0 0 -6.946 -6.946h-6.942a6.946 6.946 0 0 0 -6.946 6.946h0.4a6.943 6.943 0 0 1 6.546 -4.631Z" fill="#ffffff" stroke-width="1"></path><path d="M58.025 37.905h-6.946a6.946 6.946 0 0 0 -6.946 6.946h20.838a6.946 6.946 0 0 0 -6.946 -6.946Z" fill="none" stroke="#45413c" stroke-linecap="round" stroke-linejoin="round" stroke-width="1"></path><path d="M54.552 30.381a2.893 2.893 0 0 1 2.65 1.736 2.894 2.894 0 1 0 -5.3 0 2.893 2.893 0 0 1 2.65 -1.736Z" fill="#87898c" stroke-width="1"></path><path d="M51.658 30.96a2.894 2.894 0 1 0 5.788 0 2.894 2.894 0 1 0 -5.788 0Z" fill="none" stroke="#45413c" stroke-linecap="round" stroke-linejoin="round" stroke-width="1"></path><path d="m54.552 37.905 0 -4.051" fill="none" stroke="#45413c" stroke-linecap="round" stroke-linejoin="round" stroke-width="1"></path><path d="M64.971 42.535H44.133a1.158 1.158 0 0 0 -1.157 1.158h0a1.158 1.158 0 0 0 1.157 1.158h20.838a1.158 1.158 0 0 0 1.157 -1.158h0a1.158 1.158 0 0 0 -1.157 -1.158Z" fill="#adc4d9" stroke="#45413c" stroke-linecap="round" stroke-linejoin="round" stroke-width="1"></path><path d="M44.133 44.851H64.97v4.052H44.133z" fill="#87898c" stroke-width="1"></path><path d="M44.133 44.851H64.97v2.315H44.133z" fill="#45413c" stroke-width="1"></path><path d="M44.133 44.851H64.97v4.052H44.133z" fill="none" stroke="#45413c" stroke-linecap="round" stroke-linejoin="round" stroke-width="1"></path><path d="M64.971 48.9v3.473A7.533 7.533 0 0 1 72.5 59.9v1.157a7.533 7.533 0 0 1 -7.524 7.525v3.473a11.01 11.01 0 0 0 11 -11V59.9a11.01 11.01 0 0 0 -11.005 -11Z" fill="#87898c" stroke="#45413c" stroke-linecap="round" stroke-linejoin="round" stroke-width="1"></path><path d="M26.711 79.695a21 1.736 0 1 0 42 0 21 1.736 0 1 0 -42 0Z" fill="#45413c" opacity=".15" stroke-width="1"></path><path d="M69.188 76.354a1.158 1.158 0 0 1 -0.933 -1.843l4.921 -6.71a1.682 1.682 0 0 0 -0.167 -2.2 1.73 1.73 0 0 0 -1.316 -0.492 1.68 1.68 0 0 0 -1.235 0.674l-1.5 2a1.157 1.157 0 1 1 -1.853 -1.383l1.5 -2a4.007 4.007 0 0 1 6.437 4.774l-4.922 6.71a1.156 1.156 0 0 1 -0.932 0.47Z" fill="#ffffff" stroke="#45413c" stroke-linecap="round" stroke-linejoin="round" stroke-width="1"></path><path d="M58.272 68.514c-1.172 3.548 -1.537 3.948 -1.537 5.624a7.154 7.154 0 0 0 2.513 5.45 2.37 2.37 0 0 0 1.535 0.571h6.26a2.37 2.37 0 0 0 1.535 -0.571 7.154 7.154 0 0 0 2.513 -5.45c0 -3.964 -2.866 -5.634 -2.481 -9.607a16.787 16.787 0 0 1 -3.541 -0.367 5.888 5.888 0 0 0 -6.762 4.24c-0.007 0.036 -0.022 0.073 -0.035 0.11Z" fill="#daedf7" stroke-width="1"></path><path d="M56.765 73.42a8.1 8.1 0 0 0 14.3 0.24c-0.219 -3.624 -2.829 -5.321 -2.46 -9.129 -5.306 0 -7.778 -2.281 -10.457 -2.344a1.158 1.158 0 0 0 -0.91 1.912 4.382 4.382 0 0 1 1.029 4.415c-0.98 2.986 -1.394 3.743 -1.502 4.906Z" fill="#ffffff" stroke-width="1"></path><path d="M58.272 68.514c-1.172 3.548 -1.537 3.948 -1.537 5.624a7.154 7.154 0 0 0 2.513 5.45 2.37 2.37 0 0 0 1.535 0.571h6.26a2.37 2.37 0 0 0 1.535 -0.571 7.154 7.154 0 0 0 2.513 -5.45c0 -3.964 -2.866 -5.634 -2.481 -9.607 -5.306 0 -7.778 -2.281 -10.457 -2.344a1.158 1.158 0 0 0 -0.91 1.912 4.382 4.382 0 0 1 1.029 4.415Z" fill="none" stroke="#45413c" stroke-linecap="round" stroke-linejoin="round" stroke-width="1"></path><path d="M42.385 62.8c-0.32 15.432 -6.934 14.453 -6.934 14.453h-4.63s-6.614 0.979 -6.934 -14.453a1.159 1.159 0 0 1 1.159 -1.175h16.18a1.159 1.159 0 0 1 1.159 1.175Z" fill="#f8f8f8" stroke-width="1"></path><path d="M25.046 61.624h16.18a1.159 1.159 0 0 1 1.159 1.176c-0.028 1.347 -0.106 2.562 -0.222 3.67a10.121 10.121 0 0 1 -17.881 1.415 40.9 40.9 0 0 1 -0.395 -5.085 1.159 1.159 0 0 1 1.159 -1.176Z" fill="#ffffff" stroke-width="1"></path><path d="M42.385 62.8c-0.32 15.432 -6.934 14.453 -6.934 14.453h-4.63s-6.614 0.979 -6.934 -14.453a1.159 1.159 0 0 1 1.159 -1.175h16.18a1.159 1.159 0 0 1 1.159 1.175Z" fill="none" stroke="#45413c" stroke-linecap="round" stroke-linejoin="round" stroke-width="1"></path><path d="M24.212 67.412q-0.138 -1.086 -0.221 -2.315H42.28q-0.082 1.227 -0.22 2.315Z" fill="#ebcb00" stroke="#45413c" stroke-linecap="round" stroke-linejoin="round" stroke-width="1"></path><path d="M23.262 74.949a1.162 1.162 0 0 0 -0.868 1.933A5.377 5.377 0 0 0 26.092 79h14.087a5.377 5.377 0 0 0 3.7 -2.119 1.162 1.162 0 0 0 -0.868 -1.933Z" fill="#ffffff" stroke-width="1"></path><path d="M24.08 77.265h18.112A5.363 5.363 0 0 0 43.773 77a5.258 5.258 0 0 1 -3.594 2H26.092a5.262 5.262 0 0 1 -3.592 -2 5.375 5.375 0 0 0 1.58 0.265Z" fill="#f8f8f8" stroke-width="1"></path><path d="M23.262 74.949a1.162 1.162 0 0 0 -0.868 1.933A5.377 5.377 0 0 0 26.092 79h14.087a5.377 5.377 0 0 0 3.7 -2.119 1.162 1.162 0 0 0 -0.868 -1.933Z" fill="none" stroke="#45413c" stroke-linecap="round" stroke-linejoin="round" stroke-width="1"></path></svg>