<svg viewBox="0 0 100 100" xmlns="http://www.w3.org/2000/svg" id="Coffee-Grinder-1--Streamline-Ux" height="100" width="100"><desc>Coffee Grinder 1 Streamline Illustration: https://streamlinehq.com</desc><path d="M10.88 55.544a40 40 0 1 0 80 0 40 40 0 1 0 -80 0Z" fill="#daedf7" stroke="#daedf7" stroke-width="1"></path><path d="M25.933 90.176a14.332 2.205 0 1 0 28.664 0 14.332 2.205 0 1 0 -28.664 0Z" fill="#45413c" opacity=".15" stroke-width="1"></path><path d="M60.415 85.593a10.215 1.857 0 1 0 20.43 0 10.215 1.857 0 1 0 -20.43 0Z" fill="#45413c" opacity=".15" stroke-width="1"></path><path d="m14.632 5.559 -0.3 -0.61a0.892 0.892 0 0 0 -1.6 0l-0.3 0.61Z" fill="#45413c" stroke="#45413c" stroke-linecap="round" stroke-linejoin="round" stroke-width="1"></path><path d="m14.632 17.135 -0.3 0.61a0.892 0.892 0 0 1 -1.6 0l-0.3 -0.61Z" fill="#45413c" stroke="#45413c" stroke-linecap="round" stroke-linejoin="round" stroke-width="1"></path><path d="M54.739 86.549c-0.739 -7.811 -4.275 -26.556 -4.275 -32.48 0 -6.09 3.27 -9.844 3.789 -14.273a1.039 1.039 0 0 0 -1.033 -1.162H27.862a1.039 1.039 0 0 0 -1.033 1.166c0.519 4.429 3.79 8.183 3.79 14.273 0 5.924 -3.537 24.669 -4.276 32.48a2.8 2.8 0 0 0 2.166 2.992 64.863 64.863 0 0 0 12.032 0.91 64.863 64.863 0 0 0 12.032 -0.91 2.8 2.8 0 0 0 2.166 -2.996Z" fill="#e09f7e" stroke-width="1"></path><path d="M27.194 41.633a1.039 1.039 0 0 1 0.668 -0.243H53.22a1.039 1.039 0 0 1 0.668 0.243 12.491 12.491 0 0 0 0.365 -1.837 1.039 1.039 0 0 0 -1.033 -1.162H27.862a1.039 1.039 0 0 0 -1.033 1.166 12.491 12.491 0 0 0 0.365 1.833Z" fill="#f0c2a1" stroke-width="1"></path><path d="M54.739 86.549c-0.739 -7.811 -4.275 -26.556 -4.275 -32.48 0 -6.09 3.27 -9.844 3.789 -14.273a1.039 1.039 0 0 0 -1.033 -1.162H27.862a1.039 1.039 0 0 0 -1.033 1.166c0.519 4.429 3.79 8.183 3.79 14.273 0 5.924 -3.537 24.669 -4.276 32.48a2.8 2.8 0 0 0 2.166 2.992 64.863 64.863 0 0 0 12.032 0.91 64.863 64.863 0 0 0 12.032 -0.91 2.8 2.8 0 0 0 2.166 -2.996Z" fill="none" stroke="#45413c" stroke-linecap="round" stroke-linejoin="round" stroke-width="1"></path><path d="M52.364 36.922a0.892 0.892 0 0 0 -0.8 -0.493H29.516a0.892 0.892 0 0 0 -0.8 0.493l-0.856 1.712h25.36Z" fill="#87898c" stroke="#45413c" stroke-linecap="round" stroke-linejoin="round" stroke-width="1"></path><path d="M49.056 34.717a0.892 0.892 0 0 0 -0.8 -0.493H32.824a0.892 0.892 0 0 0 -0.8 0.493l-0.856 1.712h18.744Z" fill="#45413c" stroke="#45413c" stroke-linecap="round" stroke-linejoin="round" stroke-width="1"></path><path d="m53.771 22.648 -0.155 2.319a12.092 12.092 0 0 1 -5.357 9.257H32.824a12.091 12.091 0 0 1 -5.358 -9.257l-0.155 -2.319Z" fill="#87898c" stroke-width="1"></path><path d="m53.624 24.853 0.147 -2.205 -26.46 0 0.147 2.205 26.166 0z" fill="#45413c" stroke-width="1"></path><path d="m53.771 22.648 -0.155 2.319a12.092 12.092 0 0 1 -5.357 9.257H32.824a12.091 12.091 0 0 1 -5.358 -9.257l-0.155 -2.319Z" fill="none" stroke="#45413c" stroke-linecap="round" stroke-linejoin="round" stroke-width="1"></path><path d="M55.976 22.1a1.653 1.653 0 0 0 -1.654 -1.653H26.76a1.653 1.653 0 0 0 -1.654 1.653 0.552 0.552 0 0 0 0.551 0.552h29.768a0.552 0.552 0 0 0 0.551 -0.552Z" fill="#87898c" stroke="#45413c" stroke-linecap="round" stroke-linejoin="round" stroke-width="1"></path><path d="M44.4 19.34a1.1 1.1 0 0 1 -1.1 1.1h-5.515a4.737 4.737 0 0 1 -2.632 -0.8l-3.126 -2.084a2.534 2.534 0 0 0 -1.408 -0.427h-20.4a1.1 1.1 0 0 1 0 -2.205h20.4a4.736 4.736 0 0 1 2.631 0.8l3.126 2.084a2.534 2.534 0 0 0 1.409 0.427H43.3a1.1 1.1 0 0 1 1.1 1.105Z" fill="#87898c" stroke-width="1"></path><path d="M44.4 19.34a1.1 1.1 0 0 0 -1.1 -1.1h-5.515a16.7 16.7 0 0 1 -3.277 -0.325l-2.914 -0.583a2.543 2.543 0 0 1 0.433 0.232l3.126 2.084a4.737 4.737 0 0 0 2.632 0.8H43.3a1.1 1.1 0 0 0 1.1 -1.108Z" fill="#45413c" stroke-width="1"></path><path d="M44.4 19.34a1.1 1.1 0 0 1 -1.1 1.1h-5.515a4.737 4.737 0 0 1 -2.632 -0.8l-3.126 -2.084a2.534 2.534 0 0 0 -1.408 -0.427h-20.4a1.1 1.1 0 0 1 0 -2.205h20.4a4.736 4.736 0 0 1 2.631 0.8l3.126 2.084a2.534 2.534 0 0 0 1.409 0.427H43.3a1.1 1.1 0 0 1 1.1 1.105Z" fill="none" stroke="#45413c" stroke-linecap="round" stroke-linejoin="round" stroke-width="1"></path><path d="M42.441 16.526a0.892 0.892 0 0 0 -0.8 -0.493h-2.2a0.892 0.892 0 0 0 -0.8 0.493l-0.856 1.712H43.3Z" fill="#87898c" stroke="#45413c" stroke-linecap="round" stroke-linejoin="round" stroke-width="1"></path><path d="M39.439 13.276h2.205v2.756h-2.205z" fill="#45413c" stroke="#45413c" stroke-linecap="round" stroke-linejoin="round" stroke-width="1"></path><path d="M43.355 12.29a0.68 0.68 0 0 1 -0.609 0.986h-4.41a0.68 0.68 0 0 1 -0.609 -0.986l0.116 -0.232a1.784 1.784 0 0 1 1.6 -0.987h2.2a1.783 1.783 0 0 1 1.595 0.987Z" fill="#87898c" stroke="#45413c" stroke-linecap="round" stroke-linejoin="round" stroke-width="1"></path><path d="m50.782 58.479 -20.482 0" fill="none" stroke="#45413c" stroke-linecap="round" stroke-linejoin="round" stroke-width="1"></path><path d="M14.632 9.969h-2.2l-0.919 1.831a7.013 7.013 0 0 0 -0.739 3.133h5.512a7 7 0 0 0 -0.74 -3.133Z" fill="#87898c" stroke-width="1"></path><path d="m15.546 11.8 -0.914 -1.828h-2.2l-0.919 1.828a6.991 6.991 0 0 0 -0.285 0.654 2.735 2.735 0 0 0 1.2 0.274h2.205a2.742 2.742 0 0 0 1.2 -0.274 7 7 0 0 0 -0.287 -0.654Z" fill="#87898c" stroke-width="1"></path><path d="M14.632 9.969h-2.2l-0.919 1.831a7.013 7.013 0 0 0 -0.739 3.133h5.512a7 7 0 0 0 -0.74 -3.133Z" fill="none" stroke="#45413c" stroke-linecap="round" stroke-linejoin="round" stroke-width="1"></path><path d="M17.389 8.315a2.756 2.756 0 0 1 -2.757 2.756h-2.2a2.756 2.756 0 0 1 0 -5.512h2.205a2.756 2.756 0 0 1 2.752 2.756Z" fill="#87898c" stroke-width="1"></path><path d="M12.427 7.764h2.205a2.757 2.757 0 0 1 2.527 1.654 2.757 2.757 0 0 0 -2.527 -3.859h-2.2A2.757 2.757 0 0 0 9.9 9.418a2.755 2.755 0 0 1 2.527 -1.654Z" fill="#bdbec0" stroke-width="1"></path><path d="M17.389 8.315a2.756 2.756 0 0 1 -2.757 2.756h-2.2a2.756 2.756 0 0 1 0 -5.512h2.205a2.756 2.756 0 0 1 2.752 2.756Z" fill="none" stroke="#45413c" stroke-linecap="round" stroke-linejoin="round" stroke-width="1"></path><path d="M81.658 60.866a1.858 1.858 0 0 0 -1.858 -1.857H61.692a1.857 1.857 0 0 0 -1.857 1.857v21.359a0.929 0.929 0 0 0 0.928 0.929h19.966a0.929 0.929 0 0 0 0.929 -0.929Z" fill="#ffffff" stroke-width="1"></path><path d="M79.729 85.323H61.763a1 1 0 0 1 -1 -1v-1.2h19.966v1.2a1 1 0 0 1 -1 1Z" fill="#adc4d9" stroke="#45413c" stroke-linecap="round" stroke-linejoin="round" stroke-width="1"></path><path d="M81.658 60.866a1.858 1.858 0 0 0 -1.858 -1.857H61.692a1.857 1.857 0 0 0 -1.857 1.857v21.359a0.929 0.929 0 0 0 0.928 0.929h19.966a0.929 0.929 0 0 0 0.929 -0.929Z" fill="none" stroke="#45413c" stroke-linecap="round" stroke-linejoin="round" stroke-width="1"></path><path d="M85.837 63.188h-2.786a1.393 1.393 0 0 1 -1.393 -1.388v5.572a1.857 1.857 0 0 1 1.857 -1.858h1.857a1.858 1.858 0 0 1 1.858 1.858v6.5a1.858 1.858 0 0 1 -1.858 1.858h-1.857a1.857 1.857 0 0 1 -1.857 -1.858v5.572a1.393 1.393 0 0 1 1.393 -1.393h2.786a4.179 4.179 0 0 0 4.179 -4.179v-6.5a4.179 4.179 0 0 0 -4.179 -4.184Z" fill="#daedf7" stroke-width="1"></path><path d="M83.515 65.509h0.465v-2.321h-0.929a1.393 1.393 0 0 1 -1.393 -1.388v5.572a1.857 1.857 0 0 1 1.857 -1.863Z" fill="#adc4d9" stroke-width="1"></path><path d="M83.051 78.046h0.929v-2.321h-0.465a1.857 1.857 0 0 1 -1.857 -1.858v5.572a1.393 1.393 0 0 1 1.393 -1.393Z" fill="#adc4d9" stroke-width="1"></path><path d="M85.837 63.188h-2.786a1.393 1.393 0 0 1 -1.393 -1.388v5.572a1.857 1.857 0 0 1 1.857 -1.858h1.857a1.858 1.858 0 0 1 1.858 1.858v6.5a1.858 1.858 0 0 1 -1.858 1.858h-1.857a1.857 1.857 0 0 1 -1.857 -1.858v5.572a1.393 1.393 0 0 1 1.393 -1.393h2.786a4.179 4.179 0 0 0 4.179 -4.179v-6.5a4.179 4.179 0 0 0 -4.179 -4.184Z" fill="none" stroke="#45413c" stroke-linecap="round" stroke-linejoin="round" stroke-width="1"></path></svg>