<svg xmlns="http://www.w3.org/2000/svg" version="1.1" xmlns:xlink="http://www.w3.org/1999/xlink" xmlns:svgjs="http://svgjs.com/svgjs" viewBox="0 0 160 160" width="160" height="160"><g transform="matrix(1.6,0,0,1.6,0,0)"><path d="M10.000 51.135 A40.000 40.000 0 1 0 90.000 51.135 A40.000 40.000 0 1 0 10.000 51.135 Z" fill="#c7f0ff" stroke="#c7f0ff" stroke-miterlimit="10"></path><path d="M27.029,54.887c3.411,4.524,3.333,8.355,2.222,12.035a2.184,2.184,0,0,1-2.06,1.553c-3.843.054-7.547-.925-10.957-5.449Z" fill="#debb7e"></path><path d="M25.529,56.018l-9.295,7.008a12.711,12.711,0,0,0,6.727,4.949c2.181-2.517,3.239-7.015,2.717-12.069" fill="#f0d5a8"></path><path d="M27.029,54.887c3.411,4.524,3.333,8.355,2.222,12.035a2.184,2.184,0,0,1-2.06,1.553c-3.843.054-7.547-.925-10.957-5.449Z" fill="none" stroke="#45413c" stroke-linecap="round" stroke-linejoin="round"></path><path d="M19.339,57.08l1.323-1c-.469-1.933-2.815-3.589-3.961-4.3a.546.546,0,0,0-.818.336c-.11.455-.272,1.172-.495,2.268a.546.546,0,0,0,.605.65C17.54,54.839,18.663,56.032,19.339,57.08Z" fill="#bf8256" stroke="#45413c" stroke-linecap="round" stroke-linejoin="round"></path><path d="M26.857,53.806a.967.967,0,0,1-.19,1.354L16.6,62.753a.967.967,0,0,1-1.355-.19,1.912,1.912,0,0,1,.376-2.677L24.18,53.43A1.912,1.912,0,0,1,26.857,53.806Z" fill="#915e3a" stroke="#45413c" stroke-linecap="round" stroke-linejoin="round"></path><path d="M33.423 78.869 A16.537 2.756 0 1 0 66.497 78.869 A16.537 2.756 0 1 0 33.423 78.869 Z" fill="#45413c" opacity=".15"></path><path d="M80.585,35.123a2.206,2.206,0,0,1-2.972-2.217c.46-6.629-6.915-7.512-8.242-2.767-1.994,7.131,8.4,17.073,8.4,29.938,0,8.917-10.117,17.61-21.87,17.61,0,0,19.306-15.424,10.905-24.8C44.005,27.441,56.361,8.865,71.969,8.865,86.4,8.865,93.822,30.184,80.585,35.123Z" fill="#ff8a14"></path><path d="M58.155,77.58c10.764-1.016,19.617-9.161,19.617-17.5,0-12.865-10.4-22.807-8.4-29.938,1.327-4.745,8.7-3.862,8.242,2.767a2.207,2.207,0,0,0,.541,1.6c13.483-17.828-25.226-22.965-13.319,4.6C67.94,46.311,83.207,72.958,58.155,77.58Z" fill="#ffe8d1"></path><path d="M53.537,77.582a15.258,15.258,0,0,1-1.741.105c-7.423,0-13.952-7.225-14.707-16.411a23,23,0,0,0,5.217-2.009C42.974,66.337,46.52,76.77,53.537,77.582Z" fill="#ffe8d1" stroke="#45413c" stroke-linecap="round" stroke-linejoin="round"></path><path d="M80.585,35.123a2.206,2.206,0,0,1-2.972-2.217c.46-6.629-6.915-7.512-8.242-2.767-1.994,7.131,8.4,17.073,8.4,29.938,0,8.917-10.117,17.61-21.87,17.61,0,0,19.306-15.424,10.905-24.8C44.005,27.441,56.361,8.865,71.969,8.865,86.4,8.865,93.822,30.184,80.585,35.123Z" fill="none" stroke="#45413c" stroke-linecap="round" stroke-linejoin="round"></path><path d="M70.333,62.632A15.058,15.058,0,0,1,55.278,77.687a15.455,15.455,0,0,1-1.741-.105c-6.465-.748-10.629-7.719-11.767-14.34a1.1,1.1,0,0,0-1.636-.768c-5.867,3.375-8.155-.953-12.541-.541a1.931,1.931,0,0,1-1.977-1.216A1.514,1.514,0,0,1,26.8,58.666q.2-.028.42-.054c14.178-1.686,8.85-12.2,8.805-12.33a.562.562,0,0,1-.6-.944l4.886-3.809,0,0,.946-.735a1.1,1.1,0,0,1,1.679.413c1,2.175,3.768,6.371,12.337,6.371A15.057,15.057,0,0,1,70.333,62.632Z" fill="#ff8a14"></path><path d="M64.91,74.2a15.055,15.055,0,0,0-9.632-26.626c-11.625,0-12.58-7.724-12.908-7.645l-2.055,1.6L39.306,43c.327-.078,1.283,7.646,12.908,7.646C63.254,50.641,71.523,62.532,64.91,74.2Z" fill="#ffaa54"></path><path d="M70.333,62.632A15.058,15.058,0,0,1,55.278,77.687a15.455,15.455,0,0,1-1.741-.105c-6.465-.748-10.629-7.719-11.767-14.34a1.1,1.1,0,0,0-1.636-.768c-5.867,3.375-8.155-.953-12.541-.541a1.931,1.931,0,0,1-1.977-1.216A1.514,1.514,0,0,1,26.8,58.666q.2-.028.42-.054c14.178-1.686,8.85-12.2,8.805-12.33a.562.562,0,0,1-.6-.944l4.886-3.809,0,0,.946-.735a1.1,1.1,0,0,1,1.679.413c1,2.175,3.768,6.371,12.337,6.371A15.057,15.057,0,0,1,70.333,62.632Z" fill="none" stroke="#45413c" stroke-linecap="round" stroke-linejoin="round"></path><path d="M24.274,32.782c.931,2.482,5.573,5.627,5.573,5.627s1.431-5.422.5-7.9a5.27,5.27,0,0,0-2.726-2.617,2.206,2.206,0,0,0-3.014,1.132A5.263,5.263,0,0,0,24.274,32.782Z" fill="#ff8a14" stroke="#45413c" stroke-linecap="round" stroke-linejoin="round"></path><path d="M48.822,32.782c-.93,2.482-5.573,5.627-5.573,5.627s-1.431-5.422-.5-7.9a5.266,5.266,0,0,1,2.726-2.617,2.207,2.207,0,0,1,3.014,1.132A5.263,5.263,0,0,1,48.822,32.782Z" fill="#ff8a14" stroke="#45413c" stroke-linecap="round" stroke-linejoin="round"></path><path d="M46.435,39.675c-.826-6.875-4.937-10.841-9.9-10.841-4.986,0-9.113,4.01-9.908,10.954a6.038,6.038,0,0,0-3.038,5.36c0,6.487,8.911,7.108,13.047,7.108s13.046-1.408,13.046-7.108A6.007,6.007,0,0,0,46.435,39.675Z" fill="#ffe8d1"></path><path d="M36.548,44.986a2.592,2.592,0,0,1-2.591,2.592" fill="none" stroke="#45413c" stroke-linecap="round" stroke-linejoin="round"></path><path d="M36.548,44.986a2.592,2.592,0,0,0,2.592,2.592" fill="none" stroke="#45413c" stroke-linecap="round" stroke-linejoin="round"></path><path d="M38.505,43.142a1.4,1.4,0,0,1-.17.379l-.065.092-.459.733a1.4,1.4,0,0,1-1.152.642,1.379,1.379,0,0,1-1.165-.629l-.458-.707-.078-.117a1.282,1.282,0,0,1-.21-.6,1.416,1.416,0,0,1,.157-.8,1.22,1.22,0,0,1,.524-.537l.079-.039a1.311,1.311,0,0,1,.6-.144h1.06a1.335,1.335,0,0,1,.38.052.9.9,0,0,1,.34.157,1.263,1.263,0,0,1,.485.5A1.391,1.391,0,0,1,38.505,43.142Z" fill="#915e3a" stroke="#45413c" stroke-linecap="round" stroke-linejoin="round"></path><path d="M40.452,39.533a1.855,1.855,0,1,1,3.709,0" fill="none" stroke="#45413c" stroke-linecap="round" stroke-linejoin="round"></path><path d="M32.645,39.533a1.855,1.855,0,1,0-3.709,0" fill="none" stroke="#45413c" stroke-linecap="round" stroke-linejoin="round"></path><path d="M55.493,57.951A10.127,10.127,0,0,0,43.549,72.767H40.172A4.921,4.921,0,0,0,35.3,77.012a.595.595,0,0,0,.588.675H55.278" fill="#ff8a14" stroke="#45413c" stroke-linecap="round" stroke-linejoin="round"></path><path d="M49.682,45.348c-.205,5.533-8.953,6.908-13.042,6.908-4.064,0-12.738-.6-13.039-6.774a21.434,21.434,0,0,0,26.065-.135" fill="#f0d5a8"></path><path d="M46.435,39.675c-.826-6.875-4.937-10.841-9.9-10.841-4.986,0-9.113,4.01-9.908,10.954a6.038,6.038,0,0,0-3.038,5.36c0,6.487,8.911,7.108,13.047,7.108s13.046-1.408,13.046-7.108A6.007,6.007,0,0,0,46.435,39.675Z" fill="none" stroke="#45413c" stroke-linecap="round" stroke-linejoin="round"></path><path d="M28.005,34.719c1.771-3.787,4.928-5.885,8.534-5.885s6.752,2.09,8.525,5.864a5.128,5.128,0,0,0-2.553-.681c-5.406,0-5.085,5.715-5.871,7.4-1.046-1.619-.649-7.4-6.055-7.4A5.055,5.055,0,0,0,28.005,34.719Z" fill="#ff8a14" stroke="#45413c" stroke-linecap="round" stroke-linejoin="round"></path></g></svg>