<svg width="160" height="160" fill="none" xmlns="http://www.w3.org/2000/svg">
  <path d="M16 81.96l.0028 1.5826c.0084 4.0182.3126 4.9007.876 7.2971l.0421-.0056c4.8216 28.2809 28.1714 50.2309 57.1039 52.8879l.2425.023c.3813.031.7653.063 1.1494.091l.5088.032c.3265.023.6531.039.9825.056.2116.01.4247.013.6377.025.2944.009.5845.022.8789.031.3392.006.6784.009 1.019.012.1653.004.3335.007.4989.007l.0743-.002c.4808 0 .9601-.008 1.4353-.017l.2299-.005c.4527-.014.9012-.031 1.3497-.054l.3827-.016c.3995-.024.8003-.05 1.197-.078l.5634-.043c.2621-.023.5186-.045.7765-.07 28.6807-2.677 51.8617-24.309 56.9077-52.2626.614-2.3991.621-3.1484.929-6.9505h.003l.07-.0028h.002c.008-.2428.014-.4785.018-.717v-.275h.001V83.3855c.403-4.7717-.22-12.6131-1.837-18.6784l-.084-.3255C134.995 36.5865 109.87 16 79.9411 16c-30.6537 0-56.2644 21.5966-62.4904 50.4188h-.0014c-1.0274 3.4668-1.3302 7.8807-1.4129 11.6829-.0196.6328-.0322 1.2669-.0322 1.9025v.1207c-.0028.6482-.0028 1.2627-.0028 1.8421L16 81.96z" fill="#C7F0FF"/>
  <path d="M143.87 83.1189c-5.031.4574-8.962-.1459-14.464-.7576-4.177-.4644-8.407 1.5756-12.582 1.0958-3.475-.3999-6.804-2.2505-10.274-1.8211-2.74.3395-5.184 2.075-7.9377 2.2686-3.378.2371-6.5303-1.8758-9.9152-1.9516-4.1755-.094-7.8744 2.8917-12.04 3.1975-3.4242.2511-6.791-1.3399-10.2137-1.0621-2.7388.2217-5.245 1.6177-7.9417 2.1438-4.5203.8853-9.1302-.7225-13.7332-.8572-4.083-.1193-10.0385 2.3767-14.1187 2.59-5.3977.2834-9.81-1.9558-14.5209-.703.1444 1.2936.3855 2.1775.7148 3.5777l.0421-.0056c4.8216 28.2809 28.1714 50.2309 57.104 52.8879l.2424.023c.3813.031.7653.063 1.1494.091l.5088.032c.3265.023.6531.039.9825.056.2117.01.4247.013.6378.026.2943.008.5844.021.8788.03.3392.006.6784.009 1.019.012.1654.004.3336.007.499.007l.0742-.002c.4808 0 .9602-.008 1.4353-.017l.2299-.005c.4527-.014.9012-.031 1.3498-.054l.3826-.016a92.746 92.746 0 001.197-.078l.5634-.043c.2622-.022.5187-.045.7766-.07 28.6797-2.677 51.8617-24.309 56.9077-52.2625.614-2.3992.621-3.1484.929-6.9506h.003l.07-.0028h.002a44.03 44.03 0 00.018-.7169V83.5062h.001V83.3855l.021-.2609.002-.0057z" fill="#FBD734"/>
  <path d="M138.134 105.619c-10.583-1.991-21.195-6.0611-31.892-5.246-7.6813.587-14.9909 3.675-22.6606 4.418-16.1861 1.57-32.3133-7.3909-48.3073-4.449-4.8805.898-9.8703 2.89-14.797 4.22 8.9031 21.419 29.0895 36.953 53.1345 39.161l.2425.023c.3812.031.7653.063 1.1493.091l.5088.032c.3266.023.6532.04.9825.056.2117.01.4247.013.6378.026.2943.008.5845.021.8788.031.3392.005.6784.008 1.019.011.1654.004.3336.007.499.007l.0743-.002c.4807 0 .9601-.008 1.4352-.016l.2299-.006a74.555 74.555 0 001.3498-.053l.3826-.017c.3995-.024.8004-.049 1.197-.077l.5635-.044c.2621-.022.5186-.045.7765-.07 23.6079-2.203 43.4889-17.251 52.5959-38.096z" fill="#FBC443"/>
  <path d="M118.307 124.555s-17.891.195-42.6968-7.682c-11.3589-3.608-22.9532-6.995-34.8601-6.424-5.4411.261-10.8514 1.086-16.2057 2.22 10.1969 17.156 28.1757 29.135 49.067 31.054l.2425.023c.3813.031.7653.063 1.1493.091l.5088.032c.3266.023.6532.04.9826.056.2116.01.4247.013.6377.026.2944.008.5845.021.8789.031.3391.005.6783.008 1.0189.011.1654.004.3336.007.499.007l.0743-.002c.4808 0 .9601-.008 1.4353-.016l.2299-.006c.4527-.014.9012-.031 1.3497-.053l.3827-.017c.3994-.024.8003-.049 1.197-.077l.5634-.044c.2621-.022.5186-.045.7765-.07 12.2573-1.143 23.5071-5.752 32.7691-12.833v-6.327z" fill="#FBD734"/>
  <path d="M120.866 128.821c-12.91-1.612-25.8738-3.744-38.4717-5.339-8.8093-1.115-17.7671-1.885-26.5441-.537-6.3088.969-12.3821 3.011-18.3727 5.254 9.8479 8.616 22.3589 14.259 36.1356 15.525l.2424.022c.3813.031.7653.063 1.1494.091l.5088.032c.3266.023.6531.04.9825.057.2117.009.4247.012.6378.025.2943.008.5844.021.8788.031.3392.005.6784.008 1.019.011.1654.004.3336.007.499.007l.0742-.001c.4808 0 .9602-.009 1.4353-.017l.2299-.006c.4527-.014.9012-.031 1.3498-.053l.3826-.017c.3995-.024.8003-.049 1.197-.077l.5635-.044c.2621-.022.5186-.045.7765-.07 13.4094-1.251 25.6144-6.647 35.3284-14.893l-.002-.001zM72.0864 93.2445l33.1946-44.3578 29.217 44.1501-62.4116.2077z" fill="#F9BF2C"/>
  <path d="M72.0864 93.2445l33.1946-44.3578v44.2469l-33.1946.1109z" fill="#FBD734"/>
  <path d="M26.6426 93.4171l41.2431-36.5065 36.3023 36.3368-77.5454.1697z" fill="#F9BF2C"/>
  <path d="M26.6426 93.4171l41.2431-36.5065v36.4167l-41.2431.0898z" fill="#FBD734"/>
  <path d="M66.3774 84.7267c-.0364-.1656.0995-.3129.0995-.3129.3042-.1571.3645-.0926.5803-.4181.2145-.3269.7891-.442 1.3512-.3592.5606.0828.7232.101 1.4731-.2287.7485-.3283 1.3203-.1403 1.3203-.1403.108-.1711.4668-.1375.4668-.1375.0448.0842-.0463.7352-.0463.7352s.4093.1529.7513.4378c.3434.2848.3322.6959.4513.9863.1206.2904-.0995.7422-.1976.8067-.1009.0645-.0112.4111.1037.9877.115.5753.3743.8348.3743.8348s.2579.2708.4723.2708c.656 0 1.0723-.376 1.2601-.6313.384-.5248.6125-2.1523 1.8684-2.3277.733-.101 1.3119-1.1308 2.2398-2.2742.9096-1.1196 2.9028-.8054 3.5307.3563.4401.8082 1.5039 2.3024 2.6939 3.1077 1.1886.8053.9966 1.6612 1.0667 2.2224.0701.5598.7877 2.3093.8045 2.538.0168.2273-.5424.2961-.5424.2961.1401.1768-.192 1.5054.2088 2.3458.4023.839.0729 1.7847.0729 1.7847s-.0378 1.9081-.0042 2.2925c.0364.3858-.2957.7183-.4709.8572-.1753.1403-.2453.6819-.2453.6819h-1.5558s.4723-.5767.8564-.8573c.384-.2806.5592-1.0677.5942-2.047.0351-.9807.0351-1.9263-.4022-2.4847-.4387-.5612-.9615-1.7846-.9615-1.7846s-.0533 1.3469.1569 1.7664c.2089.4195.122.7688-.0883 1.2248-.2088.456-1.1016 2.2041-1.0666 2.5381.035.3325-.1388.5948-.314.8221-.1752.2273-.3153.7001-.3153.7001h-1.4325s.2621-.4896.7162-.7885c.4542-.296.6294-1.1196.9447-1.7846.3126-.6636.698-1.5223.6294-2.0989-.0715-.5781-.2972-.7366-.7009-1.6991-.4008-.961-.6111-2.1704-.6111-2.1704-.4036-.0519-1.4002.4391-2.2552.665-.8564.2273-1.539.0519-1.6455.1712-.1037.1206-.2439 1.4928-.0154 1.8239.227.3325.4191 1.7678.4709 2.329.0519.5584.2271 1.3469.349 1.6626.122.3156.0533.7351 0 .839-.0518.1052-.0701.7183-.0701.7183h-1.4521c.1921-.5598.8046-.4391.8564-1.1912.0533-.752-.1219-1.4535-.4022-2.1003-.2804-.6468-.4892-1.1364-.6476-1.7495-.1584-.6131-.6307-.9106-.6307-.1572 0 .7535-.349 2.0302-.4191 2.3108-.0701.2806-.314 1.2599-.2088 1.4872.1037.2287.192.7366 0 .7885-.1935.0519-.3869.4896-.3869.4896-.0364.1909-.2257.5767-.2257.5767h-1.3119s.0533-.4195.4892-.5598c.4387-.1403.5242-.2287.8045-1.295s.157-1.3637.1065-1.7678c-.0532-.4027.0855-.5949.1206-.9092.035-.3142 0-1.5222 0-1.5222-.0533-.5248 0-1.8127 0-1.8127-.4976-.2876-1.0232-.7338-1.0232-.7338-4.8258.4448-4.7459-2.531-5.0361-2.8874-.5508-.6777-.4317-1.4984-.3966-2.0049-.1276.1655-.9784.3339-1.2839.0014-.3224-.3508-1.0877-.6763-1.2755-.7633-.1878-.0869-.6209.1011-.6125-.0336.0112-.1347.1892-.1712.2088-.2287.0224-.0547-.2172-.0295-.2509-.1964l.0112.0014zM109.108 100.32c-.363-.7549-.063-1.9502-.19-2.1074 0 0-.053-.8179-.067-1.0214-.015-.2048-.106-1.0228-.169-1.5278-.063-.5023.016-1.6921-1.057-2.416-1.072-.724-1.643-1.7272-2.04-2.4553-.569-1.0425-2.527-1.2838-3.35-.2792-.838 1.0284-1.356 2.2097-2.019 2.3009-1.1342.1572-1.4524 1.5784-1.7986 2.0512-.1682.2287-.5802.3901-1.1731.3901-.1949 0-.4275-.2413-.4275-.2413s-.2341-.2329-.3378-.7493c-.1037-.5177-.185-.8305-.0953-.8881.0911-.0589.2887-.4644.1808-.7253-.1079-.2624-.0995-.6314-.4079-.8881-.3098-.2568-.6784-.3929-.6784-.3929s.0813-.5864.0421-.6622c0 0-.3252-.0295-.4219.1249 0 0-.5172-.1684-1.1942.1262-.677.2961-.8228.2806-1.3302.2049-.5088-.073-1.0288.0294-1.2236.3227-.1934.2918-.2481.2343-.5242.376 0 0-.1205.1333-.0897.282.0322.1487.2453.1263.2257.1754-.0183.0519-.1781.0841-.1879.2062-.0098.1207.3827-.0505.5523.0281.1696.0785.8774.2736 1.1675.5892.2762.2989 1.298.1782 1.4129.0281-.0323.456.049 1.288.3322 2.0217.2761.7212.0546 2.1074 4.3086 2.4427 0 0 .192.0196.4485.0589.1318.3353.2341 1.9236.2481 2.2813.0252.5668.1205 1.0378.2481 1.6598.1275.622-.0785 1.473-.2635 2.124-.1864.651-.848.69-1.005 1.198l1.3091-.042s.129-.534.1963-.617c.0644-.081.2046-.439.1542-.738-.0491-.3.1724-1.228.2294-1.73.058-.502.153-1.799.014-2.1354-.07-.1683-.008-.5528.085-.9035.047.3409.109.7071.182.9091 0 0 .293 1.0448.331 1.3268.037.282-.044.482.089.821.135.34.306.571.293 1.563-.014.992-.015 1.182-.412 1.305-.394.125-.444.502-.444.502l1.184.003s.173-.345.206-.519c0 0 .07-.504.182-.644.223-.276-.022-.609-.164-.784-.14-.176-.14-1.082-.14-1.343.002-.26.031-1.448-.131-2.1059-.047-.1824-.041-.2988-.006-.3662.006-1.2038-.262-1.7734.792-1.1687.27.0028 1.24.1151 1.7.0603.942-.1108 1.083-.8179 1.446-.7716 0 0 .191 1.0859.554 1.9516.363.8645.569 1.0055.631 1.5255.063.519.032.909-.252 1.506-.285.597-.474 1.171-.883 1.437-.411.268-.649.707-.649.707h1.296s.126-.425.285-.63c.157-.203.315-.439.284-.738-.031-.299.488-1.323.679-1.732.189-.409.267-.723.079-1.1-.19-.378-.143-1.5886-.143-1.5886s.473 1.1016.868 1.6036c.394.504.43.941.4 1.821-.033.88-.19 1.59-.539 1.841-.347.251-.773.77-.773.77h1.407s.062-.487.22-.613c.157-.126.324-.819.291-1.167-.03-.347.101-1.252.101-1.252s.299-.85-.064-1.603l-.004.001zM116.782 92.028c-.027-.1332.074-.2553.074-.2553.229-.1263.272-.0744.433-.3395.16-.2624.592-.3578 1.011-.2891.419.066.539.08 1.1-.1866.561-.2665.712-.0154.712-.0154.363-.2904.799-.3634.799-.3634.245-.2974-.207.7506-.207.7506s.304.1235.562.3522c.256.2329.136.2946.225.5317.09.2329-.108.7086-.182.7605-.074.0533.042.4279.146.9442.104.5163.326.7268.326.7268s.352.3998.546.3998c.59 0 1.146-.2988 1.316-.5275.346-.4686.673-2.3304 1.801-2.4862.661-.0912 1.134-1.0901 1.969-2.1129.819-1.0003 3.05-.449 3.615.5893.397.7253.927 1.894 1.996 2.6138 1.068.7197.988 2.5857 1.051 3.0852.063.5009.203 1.2487.217 1.4521.017.2035-.162.3662-.162.3662.126.1558-.173 1.3469.189 2.0975.362.751.065 1.597.065 1.597s0 2.08.029 2.424c.034.344-.265.64-.423.766-.157.125-.222.61-.222.61h-1.397s.423-.516.769-.767c.346-.25.503-.954.536-1.831.031-.877-.003-2.095-.396-2.596-.393-.5018-.864-1.5976-.864-1.5976s-.048 1.2052.14 1.5816c.189.377.175.62.036 1.048-.136.426-.737 2.08-.67 2.371.068.292-.05.572-.214.771-.163.2-.302.618-.302.618l-1.288-.037s.248-.432.665-.686c.416-.254.455-.927.663-1.553.207-.627.455-1.431.328-1.936-.126-.504-.321-.707-.681-1.5687-.362-.8614-.55-1.9417-.55-1.9417-.363-.0463-1.259.3914-2.03.5949-.769.2034-1.382.0477-1.475.1529-.097.1066-.222 1.3328-.017 1.6303.204.2973.378 1.5813.424 2.0823.048.501.205 1.206.316 1.487.109.282.046.657 0 .751-.048.095-.063.642-.063.642h-1.305c.172-.499.723-.391.771-1.065.045-.672-.111-1.299-.363-1.878-.254-.578-.44-1.018-.583-1.565-.141-.5469-.558-1.7184-.631-1.0506-.073.6706-.74 2.6676-.831 2.9096-.09.242-.403 1.089-.331 1.302.07.214.101.672-.076.7-.178.028-.352.333-.352.333-.016.175-.151.533-.151.533l-1.175.118s.01-.378.389-.543c.38-.163.448-.282.801-1.202.354-.924.272-1.2.265-1.563-.009-.364.135-.52.197-.797.061-.278.145-1.3543.145-1.3543.005-.4714.253-1.5082.253-1.5082-.449-.2596-.92-.658-.92-.658-3.33-.2666-3.686-2.2715-3.947-2.59-.495-.6061-.702-1.4367-.675-1.8464-.096.1347-.732.2708-.959.0015-.241-.2849-.813-.5472-.955-.6188-.138-.0701-.464.0828-.455-.0266.008-.1095.14-.1403.155-.1852.017-.0449-.161-.0239-.187-.1586l.004.0056zM61.4998 87.9203c-.1668 0-.3826.0435-.5144-.0828-.1205-.1151-.0813-.3157-.2032-.4546-.0799-.0912-.3014-.1277-.321-.2399-.0294-.1726.2116-.3409.2649-.5051.1472-.456-.1149-.7632.4009-1.0186.4583-.2259.9447-.1235 1.3652.1361.4261.2652.6363.6005.7162 1.0901.0743.449-.1051.8699-.0617 1.3217.0449.4532.0757.7268.157 1.1336.1107.5584.1738 1.1365.2649 1.6991.307 1.9151.2453 3.8765.5523 5.7944.1499.9415.4275 1.8941.7681 2.7808.1962.5109.3546 1.0339.569 1.5389.0701.166.2551.414.1991.604-.0197.068-.2481.249-.3505.338-.2859.251-.6251.456-1.0021.513-.2593.039-.7205.059-.4121-.257.0589-.059.3812.033.2537-.204-.0393-.075-.3883-.101-.4668-.113-.3209-.047-.4947.04-.8073.072-.2593.028-.4836-.065-.7415-.087-.2901-.025-.8143-.063-1.0792.087-.1934.109-.1037.078-.2018.282-.0884.184-.115.365-.3364.431-.1893.056-.3561-.092-.5397-.107-.1766-.015-.3826.02-.562.014-.2649-.006-.7121.115-.5985-.3.1009-.375.5508-.277.6349-.745.0911-.519.0323-1.092.1037-1.621.1374-1.0057.157-2.0495.1598-3.0639.0028-1.0944.5144-1.9656.827-2.9828.1023-.3382.2102-.7057.2271-1.0621.0266-.5191-.2299-.2554-.3757.0365-.2481.4882-.705 1.0817-1.1353 1.5868-.0659.0757.0056.2834-.0659.3493-.1135.101-.2327.1866-.3574.2456-.3518.1669-.6546-.0295-.6111-.4336.0196-.195.143-.362.2593-.5247.042-.0589.1808-.087.2481-.1094.0434-.0155-.0701.0014.0434-.2498.2089-.4602.7555-1.3258.9545-1.7944.2117-.4911.5733-1.1575.7934-1.6458.2284-.5065.2088-.9133.4667-1.4072.1065-.2048.2958-.3409.3953-.5247.1093-.2007.0939-.3213.22-.5416-.0392.1628-.0392.2189-.0644.369l-.0337-.3493-.0028.0014z" fill="#8F1D00"/>
  <path d="M58.4207 94.5184c.0182.1515.0322.3086.0421.4658a7.3087 7.3087 0 01.0322-.6328l.3294.0309c-.0701.7211-.0239 1.4647.1584 2.1648.1668.6384.4499 1.2417.862 1.758.4387.5472 1.04.9751 1.7001 1.2122.6224.2203 1.2952.2722 1.9273.0926.3728-.1052.7176-.2848 1.0372-.5065.3238-.2259.6195-.4966.8872-.7871.7429-.8025 1.2979-1.7523 1.6946-2.7751.4401-1.1421.684-2.3753.7681-3.6002.0785-1.1673.0252-2.3346-.0939-3.5005-.1191-1.1729-.3056-2.3416-.4906-3.5033l.3266-.0519c.1864 1.1673.3742 2.3444.4934 3.5201v.0014c.1205 1.1828.1752 2.3697.0953 3.5567-.0855 1.2543-.335 2.5212-.7891 3.6969-.4107 1.0593-.9868 2.0442-1.7605 2.8804-.2831.3073-.5971.5949-.9405.8348-.3476.2427-.726.4363-1.1353.5528-.7036.2006-1.4465.1456-2.1305-.101-.7148-.254-1.3694-.7184-1.8445-1.3146-.4444-.5542-.7457-1.1996-.9237-1.8829a6.325 6.325 0 01-.1794-1.0649c.0084.5332-.014 1.0845-.0351 1.6345-.0336.905-.07 1.8113.0281 2.6307l-.3308.0393c-.0981-.839-.0631-1.7608-.0266-2.6826.0336-.9049.0686-1.8113-.0281-2.6293l.3308-.0392h-.0042zm42.1723-.3887l-.008.0099c-.045.0519-.04.1304-.007.2118.044.1137.136.2343.232.3269.01.0084.02.0197.033.0323 1.351 1.2234 2.863 2.3907 4.489 3.2115 1.615.8137 3.344 1.2851 5.136 1.1224.937-.087 1.85-.3494 2.712-.738.939-.4265 1.816-1.006 2.601-1.6766.757-.6454 1.434-1.3735 2.059-2.1522.625-.7773 1.197-1.6051 1.735-2.4497l.278.1796c-.544.8516-1.12 1.6892-1.756 2.4791-.637.7927-1.329 1.5363-2.101 2.1957-.808.6903-1.712 1.2866-2.68 1.7272-.893.404-1.841.6762-2.819.7646-1.861.1698-3.648-.3157-5.315-1.1547-1.655-.8362-3.19-2.0217-4.561-3.2634l-.001.0014c-.012-.0112-.026-.0252-.042-.0393-.125-.122-.247-.2806-.312-.4433-.075-.195-.074-.3929.075-.5584l.003-.0028.008-.0085.241.2259v-.0014zm-20.2003-4.9456c-.0154-.0014-.028 0-.0336.0028v.0014a.0733.0733 0 00-.0253.0309v.0014a.302.302 0 00-.0294.1038v.0028c-.014.1235.014.2708.0687.3788.4247.8306 1.0204 1.5447 1.7002 2.1901.6812.6454 1.4549 1.2263 2.2244 1.7833.4092.2974.8227.5934 1.2516.8586.4233.2652.862.5023 1.326.6805 1.368.5317 2.9126.4756 4.2876-.0351 1.3764-.5121 2.579-1.4802 3.2686-2.778l.2929.1558c-.7288 1.3721-1.9987 2.3949-3.4452 2.9323-1.4479.5387-3.0766.5948-4.5245.0336-.4849-.1894-.9433-.4321-1.382-.7071-.4373-.2722-.8564-.571-1.2699-.8727-.7737-.5598-1.5558-1.1476-2.2566-1.8127-.7064-.6692-1.3259-1.4114-1.7689-2.2785-.0813-.1627-.1219-.383-.1009-.5682.0084-.0785.0281-.1557.0617-.2203h.0014c.0392-.0771.0953-.1374.171-.1753h.0014c.0645-.0337.1374-.0477.2215-.0379l-.0393.3283-.0014.0014z" fill="#8F1D00"/>
  <path d="M86.156 50.5548c5.7075 0 10.3343-4.6313 10.3343-10.3444S91.8635 29.866 86.156 29.866c-5.7074 0-10.3342 4.6313-10.3342 10.3444s4.6268 10.3444 10.3342 10.3444z" fill="#FF0"/>
  <path d="M26.4683 61.1816h65.7238v38.1045H26.4683V61.1816z" fill="#fff"/>
  <path d="M26.4683 61.1816h65.7238v38.1045H26.4683V61.1816z" stroke="#45413C" stroke-width="1.6" stroke-linecap="round" stroke-linejoin="round"/>
  <path d="M35.4561 67.7935v24.8791M42.3813 67.7935v14.8828M48.3091 67.7935v6.9367M55.8994 67.7935v14.8828M62.7607 67.7935v8.936M69.353 67.7935v9.2692M76.6123 67.7935v14.8828M83.5371 67.7935v24.8791M42.3813 89.4521v3.2206M48.3091 80.395v12.2778M55.8994 89.4521v3.2206M62.7607 82.061v10.6118M69.353 84.3936v8.2792M76.6123 89.4521v3.2206" stroke="#45413C" stroke-width="3.2" stroke-linecap="round" stroke-linejoin="round"/>
</svg>
