<svg xmlns="http://www.w3.org/2000/svg" version="1.1" xmlns:xlink="http://www.w3.org/1999/xlink" xmlns:svgjs="http://svgjs.com/svgjs" viewBox="0 0 160 160" width="160" height="160"><g transform="matrix(1.6,0,0,1.6,0,0)"><path d="M10.000 49.271 A40.000 40.000 0 1 0 90.000 49.271 A40.000 40.000 0 1 0 10.000 49.271 Z" fill="#c7f0ff" stroke="#c7f0ff" stroke-miterlimit="10"></path><path d="M10.000 49.271 A40.000 40.000 0 1 0 90.000 49.271 A40.000 40.000 0 1 0 10.000 49.271 Z" fill="none" stroke="#c7f0ff" stroke-linecap="round" stroke-linejoin="round"></path><path d="M39.535,90.615,39.48,72.493H31.207a6.835,6.835,0,0,1-6.835-6.835V57.385s-2.62.078-4.543,0c-6.385-.265,4.777-17.343,4.777-19.862,0-15.013,14.177-22.945,27.046-22.945,18.455,0,28.118,14.225,28.118,30.216,0,9.081-2.18,15.274-10.073,20.583l.048,25.352Z" fill="#ffda8f"></path><path d="M30.353,23.04a38.086,38.086,0,0,1,14.459-2.873c21.925,0,33.259,17.135,32.939,36.19l.006,0A27.884,27.884,0,0,0,79.77,44.794c0-15.991-9.663-30.216-28.118-30.216-7.756,0-15.987,2.881-21.3,8.458" fill="#ffe9bd"></path><path d="M32.423 44.795 A2.012 2.012 0 1 0 36.447 44.795 A2.012 2.012 0 1 0 32.423 44.795 Z" fill="#45413c"></path><path d="M39.535,90.615,39.48,72.493H31.207a6.835,6.835,0,0,1-6.835-6.835V57.385s-2.62.078-4.543,0c-6.385-.265,4.777-17.343,4.777-19.862,0-15.013,14.177-22.945,27.046-22.945,18.455,0,28.118,14.225,28.118,30.216,0,9.081-2.18,15.274-10.073,20.583l.048,25.352" fill="none" stroke="#45413c" stroke-linecap="round" stroke-linejoin="round"></path><path d="M57,74.614a2.177,2.177,0,1,1,2.177-2.177A2.179,2.179,0,0,1,57,74.614Z" fill="#ff6242"></path><path d="M57,70.761a1.677,1.677,0,1,1-1.677,1.677A1.677,1.677,0,0,1,57,70.761m0-1a2.677,2.677,0,1,0,2.677,2.677A2.68,2.68,0,0,0,57,69.761Z" fill="#fff2d9"></path><path d="M45.8,76.048a2.177,2.177,0,1,1,2.176-2.176A2.178,2.178,0,0,1,45.8,76.048Z" fill="#ff6242"></path><path d="M45.8,72.195a1.677,1.677,0,1,1-1.677,1.677A1.676,1.676,0,0,1,45.8,72.195m0-1a2.677,2.677,0,1,0,2.676,2.677A2.68,2.68,0,0,0,45.8,71.195Z" fill="#fff2d9"></path><path d="M58.726 80.604 A2.177 2.177 0 1 0 63.080 80.604 A2.177 2.177 0 1 0 58.726 80.604 Z" fill="#ff6242"></path><path d="M60.9,78.928A1.677,1.677,0,1,1,59.226,80.6,1.676,1.676,0,0,1,60.9,78.928m0-1A2.677,2.677,0,1,0,63.58,80.6,2.679,2.679,0,0,0,60.9,77.928Z" fill="#fff2d9"></path><path d="M50,49.771a2.177,2.177,0,1,1,2.177-2.177A2.179,2.179,0,0,1,50,49.771Z" fill="#ff6242"></path><path d="M50,45.917a1.677,1.677,0,1,1-1.677,1.677A1.677,1.677,0,0,1,50,45.917m0-1a2.677,2.677,0,1,0,2.677,2.677A2.68,2.68,0,0,0,50,44.917Z" fill="#fff2d9"></path><path d="M46.445,65.2a2.177,2.177,0,1,1,2.176-2.177A2.179,2.179,0,0,1,46.445,65.2Z" fill="#ff6242"></path><path d="M46.445,61.344a1.677,1.677,0,1,1-1.677,1.677,1.676,1.676,0,0,1,1.677-1.677m0-1a2.677,2.677,0,1,0,2.676,2.677,2.68,2.68,0,0,0-2.676-2.677Z" fill="#fff2d9"></path><path d="M34.444 57.271 A2.177 2.177 0 1 0 38.798 57.271 A2.177 2.177 0 1 0 34.444 57.271 Z" fill="#ff6242"></path><path d="M36.621,55.594a1.677,1.677,0,1,1-1.676,1.677,1.677,1.677,0,0,1,1.676-1.677m0-1A2.677,2.677,0,1,0,39.3,57.271a2.679,2.679,0,0,0-2.677-2.677Z" fill="#fff2d9"></path><path d="M49.500 84.427 A2.177 2.177 0 1 0 53.854 84.427 A2.177 2.177 0 1 0 49.500 84.427 Z" fill="#ff6242"></path><path d="M51.677,82.751A1.677,1.677,0,1,1,50,84.428a1.676,1.676,0,0,1,1.677-1.677m0-1a2.677,2.677,0,1,0,2.676,2.677,2.68,2.68,0,0,0-2.676-2.677Z" fill="#fff2d9"></path><path d="M54.125 58.979 A2.177 2.177 0 1 0 58.479 58.979 A2.177 2.177 0 1 0 54.125 58.979 Z" fill="#ff6242"></path><path d="M56.3,57.3a1.677,1.677,0,1,1-1.677,1.676A1.676,1.676,0,0,1,56.3,57.3m0-1a2.677,2.677,0,1,0,2.676,2.676A2.679,2.679,0,0,0,56.3,56.3Z" fill="#fff2d9"></path><path d="M65.195,54.2a2.177,2.177,0,1,1,2.176-2.177A2.179,2.179,0,0,1,65.195,54.2Z" fill="#ff6242"></path><path d="M65.195,50.344a1.677,1.677,0,1,1-1.677,1.677,1.676,1.676,0,0,1,1.677-1.677m0-1a2.677,2.677,0,1,0,2.676,2.677,2.68,2.68,0,0,0-2.676-2.677Z" fill="#fff2d9"></path></g></svg>