<svg width="160" height="160" fill="none" xmlns="http://www.w3.org/2000/svg">
  <path d="M16 80c0 16.9739 6.7428 33.253 18.7452 45.255C46.7475 137.257 63.0261 144 80 144c16.9739 0 33.253-6.743 45.255-18.745C137.257 113.253 144 96.9739 144 80c0-16.9739-6.743-33.2525-18.745-45.2548C113.253 22.7428 96.9739 16 80 16c-16.9739 0-33.2525 6.7428-45.2548 18.7452C22.7428 46.7475 16 63.0261 16 80z" fill="#CDF2FF"/>
  <path d="M81.7285 54.8705c-.8732 0-1.7084-.1582-2.5057-.4746-.7973-.3164-1.506-.7656-2.1261-1.3478l1.2908-1.4996c.4683.4176.9998.7593 1.5946 1.0251.5948.2531 1.2212.3796 1.8793.3796.7214 0 1.2719-.1392 1.6516-.4176.3796-.2784.5694-.6391.5694-1.082 0-.2785-.0506-.5063-.1518-.6834-.1013-.1899-.2468-.3544-.4366-.4936-.1772-.1392-.3987-.2658-.6644-.3797a32.8087 32.8087 0 00-.8353-.3606l-1.6895-.7404a6.2216 6.2216 0 01-.9681-.4745 4.0592 4.0592 0 01-.8543-.6834c-.2531-.2658-.4556-.5759-.6074-.9302-.1519-.3544-.2278-.7593-.2278-1.2149 0-.4936.1076-.9492.3227-1.3668.2151-.4303.5125-.8036.8922-1.12.3797-.3164.8289-.5632 1.3478-.7403.5315-.1772 1.1137-.2658 1.7464-.2658.7594 0 1.4807.1455 2.1641.4366.6961.2784 1.3035.6581 1.8224 1.139l-1.139 1.4047c-.4176-.329-.8606-.5884-1.3288-.7783-.4556-.1898-.9998-.2847-1.6326-.2847-.5948 0-1.0757.1265-1.4427.3796-.3543.2532-.5315.6138-.5315 1.0821 0 .2404.057.4492.1709.6264.1139.1645.2657.3164.4555.4556.2025.1266.4303.2405.6834.3417.2658.1013.5379.2088.8163.3227l1.6325.7024c.3924.1519.753.329 1.0821.5315.329.2025.6138.4366.8542.7024.2405.2658.424.5758.5505.9302.1392.3417.2088.7403.2088 1.1959 0 .5062-.1075.9808-.3227 1.4237-.2025.443-.4999.8353-.8922 1.177-.3923.329-.8732.5948-1.4427.7973-.5695.1898-1.2149.2847-1.9363.2847zM98.8249 54.6427V42.2278h7.9541v1.8603h-5.752v3.1702h4.879v1.8603h-4.879v3.6638h5.942v1.8603h-8.1441zM119.148 54.6427V42.2278h2.316l3.284 6.9668 1.12 2.6576h.057c-.05-.6454-.114-1.3351-.19-2.0691-.076-.7467-.113-1.4681-.113-2.1641v-5.3912h2.107v12.4149h-2.316l-3.284-6.9858-1.12-2.6386h-.057c.05.6707.114 1.3668.19 2.0881.075.7087.113 1.4111.113 2.1072v5.4291h-2.107zM140.098 54.6427V42.2278h3.265c1.835 0 3.265.5125 4.29 1.5376 1.038 1.0251 1.557 2.5627 1.557 4.6129 0 1.0251-.133 1.9299-.399 2.7146-.265.7846-.645 1.4427-1.139 1.9742-.493.5189-1.094.9112-1.803 1.177-.709.2657-1.506.3986-2.392.3986h-3.379zm2.202-1.7844h.93c1.19 0 2.107-.3607 2.753-1.082.645-.734.968-1.8667.968-3.398 0-1.5186-.323-2.626-.968-3.322-.646-.6961-1.563-1.0441-2.753-1.0441h-.93v8.8461zM77.23 81.5353V69.1204h2.4298l1.4807 4.8407.5125 1.8603h.076l.4935-1.8603 1.4997-4.8407h2.4298v12.4149h-1.9363v-5.0115c0-.3291.0127-.7214.038-1.177s.0506-.9238.0759-1.4047c.038-.4809.076-.9429.1139-1.3858.038-.4429.0696-.8163.095-1.12h-.057l-.8352 2.8854-1.3668 3.9295h-1.2529l-1.3478-3.9295-.8163-2.8854h-.0569c.0379.3037.0759.6771.1139 1.12.0379.4429.0696.9049.0949 1.3858.038.4809.0633.9491.0759 1.4047.0253.4556.038.8479.038 1.177v5.0115H77.23zM102.565 81.7631c-.721 0-1.386-.1392-1.993-.4176-.5951-.2911-1.1076-.7087-1.5379-1.2529-.4176-.5569-.7467-1.2402-.9871-2.0502-.2405-.8099-.3607-1.7338-.3607-2.7715 0-1.0251.1202-1.93.3607-2.7146.2404-.7973.5695-1.4617.9871-1.9932.4303-.5442.9428-.9555 1.5379-1.2339.607-.2911 1.272-.4366 1.993-.4366.721 0 1.379.1455 1.974.4366.608.2784 1.12.6897 1.538 1.2339.43.5315.765 1.1959 1.006 1.9932.24.7846.361 1.6895.361 2.7146 0 1.0377-.121 1.9616-.361 2.7715-.241.81-.576 1.4933-1.006 2.0502-.418.5442-.93.9618-1.538 1.2529-.595.2784-1.253.4176-1.974.4176zm0-1.9173c.797 0 1.43-.3923 1.898-1.177.481-.7972.722-1.9299.722-3.3979 0-1.4301-.241-2.5311-.722-3.3031-.468-.7719-1.101-1.1579-1.898-1.1579-.797 0-1.436.386-1.917 1.1579-.469.772-.7027 1.873-.7027 3.3031 0 1.468.2337 2.6007.7027 3.3979.481.7847 1.12 1.177 1.917 1.177zM119.339 81.5353V69.1204h4.138c.645 0 1.246.0633 1.803.1898.557.1266 1.038.3354 1.443.6264.418.2785.74.6518.968 1.12.241.4683.361 1.0504.361 1.7465 0 .9491-.228 1.7148-.684 2.2969-.443.5822-1.037.9998-1.784 1.2529l2.961 5.1824h-2.486l-2.658-4.8597h-1.86v4.8597h-2.202zm2.202-6.6061h1.708c.861 0 1.512-.1772 1.955-.5315.456-.3544.684-.8859.684-1.5946 0-.7214-.228-1.2213-.684-1.4997-.443-.2784-1.094-.4176-1.955-.4176h-1.708v4.0434zM140.573 81.5353V69.1204h7.954v1.8603h-5.752v3.1702h4.879v1.8603h-4.879v3.6638h5.942v1.8603h-8.144zM14.8599 79.656v-3.5878H11.481v-1.5945h3.3789v-3.5878h1.6705v3.5878h3.379v1.5945h-3.379v3.5878h-1.6705zM11.481 110.326v-1.594h8.4284v1.594H11.481zm0 4.234v-1.595h8.4284v1.595H11.481zM56.3555 117.92v-12.415h2.4298l1.4807 4.84.5125 1.861h.076l.4935-1.861 1.4997-4.84h2.4298v12.415h-1.9363v-5.012c0-.329.0127-.721.038-1.177.0253-.455.0506-.924.0759-1.405.038-.481.076-.942.1139-1.385.038-.443.0696-.817.0949-1.12h-.0569l-.8353 2.885-1.3667 3.929h-1.2529l-1.3478-3.929-.8163-2.885h-.0569c.0379.303.0759.677.1139 1.12.0379.443.0696.904.0949 1.385.0379.481.0633.95.0759 1.405.0253.456.038.848.038 1.177v5.012h-1.8983zM81.6904 118.147c-.7213 0-1.3857-.139-1.9932-.417-.5948-.291-1.1073-.709-1.5376-1.253-.4176-.557-.7467-1.24-.9871-2.05-.2405-.81-.3607-1.734-.3607-2.772 0-1.025.1202-1.93.3607-2.714.2404-.798.5695-1.462.9871-1.994.4303-.544.9428-.955 1.5376-1.234.6075-.291 1.2719-.436 1.9932-.436.7214 0 1.3795.145 1.9743.436.6074.279 1.12.69 1.5376 1.234.4303.532.7656 1.196 1.0061 1.994.2404.784.3607 1.689.3607 2.714 0 1.038-.1203 1.962-.3607 2.772-.2405.81-.5758 1.493-1.0061 2.05-.4176.544-.9302.962-1.5376 1.253-.5948.278-1.2529.417-1.9743.417zm0-1.917c.7973 0 1.4301-.392 1.8983-1.177.4809-.797.7214-1.93.7214-3.398 0-1.43-.2405-2.531-.7214-3.303-.4682-.772-1.101-1.158-1.8983-1.158-.7973 0-1.4364.386-1.9173 1.158-.4682.772-.7023 1.873-.7023 3.303 0 1.468.2341 2.601.7023 3.398.4809.785 1.12 1.177 1.9173 1.177zM98.2742 117.92v-12.415h2.3158l3.284 6.966 1.12 2.658h.057c-.05-.645-.114-1.335-.19-2.069-.076-.747-.114-1.468-.114-2.164v-5.391h2.108v12.415h-2.316l-3.284-6.986-1.12-2.639h-.057c.05.671.113 1.367.189 2.088.076.709.114 1.411.114 2.107v5.43h-2.1068zM119.699 117.92v-12.415h7.954v1.86h-5.752v3.17h4.878v1.86h-4.878v3.664h5.941v1.861h-8.143zM143.211 117.92v-4.31l-4.081-8.105h2.335l1.556 3.341c.216.481.424.955.627 1.423.215.456.43.937.645 1.443h.076c.228-.506.449-.993.665-1.462.215-.468.43-.942.645-1.423l1.538-3.322h2.278l-4.082 8.105v4.31h-2.202z" fill="#000"/>
  <path fill-rule="evenodd" clip-rule="evenodd" d="M10 92.6089h140v1.5819H10v-1.5819z" fill="#000"/>
</svg>
