<svg viewBox="0 0 160 160" height="160" width="160" xmlns="http://www.w3.org/2000/svg"><g transform="matrix(1.6,0,0,1.6,0,0)"><path d="M50,96.833a39.948,39.948,0,0,0,34.608-20H15.392A39.948,39.948,0,0,0,50,96.833Z" fill="#ccf7ad"></path><path d="M13.564,73.333c.546,1.2,1.17,2.364,1.828,3.5H84.608c.658-1.136,1.282-2.3,1.828-3.5Z" fill="#ccf7ad"></path><path d="M90,56.833a40,40,0,1,0-76.436,16.5H86.436A39.841,39.841,0,0,0,90,56.833Z" fill="#c7f0ff"></path><path d="M11 73.333L89 73.333" fill="none" stroke="#45413c" stroke-linecap="round" stroke-linejoin="round"></path><path d="M6.5 73.333L9 73.333" fill="none" stroke="#45413c" stroke-linecap="round" stroke-linejoin="round"></path><path d="M91 73.333L93.5 73.333" fill="none" stroke="#45413c" stroke-linecap="round" stroke-linejoin="round"></path><path d="M26.209,73.333H17.814V56.705a1,1,0,0,1,1-1h6.4a1,1,0,0,1,1,1Z" fill="#fffacf"></path><path d="M17.814 59.062H26.208V73.332H17.814z" fill="#fff48c"></path><path d="M26.209,73.333H17.814V56.823a1.118,1.118,0,0,1,1.118-1.118h6.159a1.118,1.118,0,0,1,1.118,1.118Z" fill="none" stroke="#45413c" stroke-linecap="round" stroke-linejoin="round"></path><path d="M64.624,73.333H41.517V56.705a1,1,0,0,1,1-1H63.624a1,1,0,0,1,1,1Z" fill="#fffacf"></path><path d="M41.517 59.062H64.624V73.332H41.517z" fill="#fff48c"></path><path d="M64.624,73.333H41.517v-16.6a1.029,1.029,0,0,1,1.029-1.029H63.6a1.029,1.029,0,0,1,1.029,1.029Z" fill="none" stroke="#45413c" stroke-linecap="round" stroke-linejoin="round"></path><path d="M19.493 33.879H24.529999999999998V55.70399999999999H19.493z" fill="#4aeff7"></path><path d="M19.493 43.113H24.529999999999998V55.704H19.493z" fill="#a6fbff"></path><path d="M19.493 33.879H24.529999999999998V55.70399999999999H19.493z" fill="none" stroke="#45413c" stroke-linecap="round" stroke-linejoin="round"></path><path d="M42.997 33.879H63.143V55.70399999999999H42.997z" fill="#4aeff7"></path><path d="M42.997 43.113H63.143V55.704H42.997z" fill="#a6fbff"></path><path d="M42.997 33.879H63.143V55.70399999999999H42.997z" fill="none" stroke="#45413c" stroke-linecap="round" stroke-linejoin="round"></path><path d="M48.873,17.091H33.764a21.291,21.291,0,0,1-12.007,14.29l-5.621,2.5H66.5l-5.621-2.5A21.291,21.291,0,0,1,48.873,17.091Z" fill="#80ddff"></path><path d="M60.88,31.381A21.25,21.25,0,0,1,52.5,24.646H30.14a21.25,21.25,0,0,1-8.383,6.735l-5.621,2.5H66.5Z" fill="#4acfff"></path><path d="M48.873,17.091H33.764a21.291,21.291,0,0,1-12.007,14.29l-5.621,2.5H66.5l-5.621-2.5A21.291,21.291,0,0,1,48.873,17.091Z" fill="none" stroke="#45413c" stroke-linecap="round" stroke-linejoin="round"></path><path d="M58.107,37.237H48.034v14.61a.5.5,0,0,0,.5.5h9.073a.5.5,0,0,0,.5-.5Z" fill="#87898c" stroke="#45413c" stroke-linecap="round" stroke-linejoin="round"></path><path d="M48.034,37.237V48.989h2.518a2.519,2.519,0,0,1,5.037,0h2.518V37.237Z" fill="#00b8f0"></path><path d="M52.141,46.653l5.65-9.416H48.034V48.989h2.518A2.514,2.514,0,0,1,52.141,46.653Z" fill="#4acfff"></path><path d="M48.034,37.237V48.989h2.518a2.519,2.519,0,0,1,5.037,0h2.518V37.237Z" fill="none" stroke="#45413c" stroke-linecap="round" stroke-linejoin="round"></path><path d="M21.172,73.333H17.814V63.42a1,1,0,0,1,1-1h1.358a1,1,0,0,1,1,1Z" fill="#daedf7" stroke="#45413c" stroke-linecap="round" stroke-linejoin="round"></path><path d="M17.814 60.741 A1.679 1.679 0 1 0 21.172 60.741 A1.679 1.679 0 1 0 17.814 60.741 Z" fill="#daedf7" stroke="#45413c" stroke-linecap="round" stroke-linejoin="round"></path><path d="M35.442,73.333H32.085V63.42a1,1,0,0,1,1-1h1.357a1,1,0,0,1,1,1Z" fill="#daedf7" stroke="#45413c" stroke-linecap="round" stroke-linejoin="round"></path><path d="M32.085 60.741 A1.679 1.679 0 1 0 35.443 60.741 A1.679 1.679 0 1 0 32.085 60.741 Z" fill="#daedf7" stroke="#45413c" stroke-linecap="round" stroke-linejoin="round"></path><path d="M63.983,73.333H60.625V63.42a1,1,0,0,1,1-1h1.358a1,1,0,0,1,1,1Z" fill="#daedf7" stroke="#45413c" stroke-linecap="round" stroke-linejoin="round"></path><path d="M60.625 60.741 A1.679 1.679 0 1 0 63.983 60.741 A1.679 1.679 0 1 0 60.625 60.741 Z" fill="#daedf7" stroke="#45413c" stroke-linecap="round" stroke-linejoin="round"></path><path d="M78.253,73.333H74.9V63.42a1,1,0,0,1,1-1h1.357a1,1,0,0,1,1,1Z" fill="#daedf7" stroke="#45413c" stroke-linecap="round" stroke-linejoin="round"></path><path d="M74.896 60.741 A1.679 1.679 0 1 0 78.254 60.741 A1.679 1.679 0 1 0 74.896 60.741 Z" fill="#daedf7" stroke="#45413c" stroke-linecap="round" stroke-linejoin="round"></path><path d="M81.611 43.113H84.96900000000001V73.333H81.611z" fill="#daedf7" stroke="#45413c" stroke-linecap="round" stroke-linejoin="round"></path><path d="M49.713,73.333H46.355V63.42a1,1,0,0,1,1-1h1.358a1,1,0,0,1,1,1Z" fill="#daedf7" stroke="#45413c" stroke-linecap="round" stroke-linejoin="round"></path><path d="M46.355 60.741 A1.679 1.679 0 1 0 49.713 60.741 A1.679 1.679 0 1 0 46.355 60.741 Z" fill="#daedf7" stroke="#45413c" stroke-linecap="round" stroke-linejoin="round"></path><path d="M21.172,64.1l1.874,1.874a5.067,5.067,0,0,0,3.582,1.484h0a5.067,5.067,0,0,0,3.583-1.484L32.085,64.1" fill="none" stroke="#45413c" stroke-linecap="round" stroke-linejoin="round"></path><path d="M35.442,64.1l1.874,1.874A5.067,5.067,0,0,0,40.9,67.457h0a5.067,5.067,0,0,0,3.582-1.484L46.355,64.1" fill="none" stroke="#45413c" stroke-linecap="round" stroke-linejoin="round"></path><path d="M49.713,64.1l1.874,1.874a5.065,5.065,0,0,0,3.582,1.484h0a5.069,5.069,0,0,0,3.583-1.484L60.625,64.1" fill="none" stroke="#45413c" stroke-linecap="round" stroke-linejoin="round"></path><path d="M63.983,64.1l1.874,1.874a5.067,5.067,0,0,0,3.582,1.484h0a5.067,5.067,0,0,0,3.583-1.484L74.9,64.1" fill="none" stroke="#45413c" stroke-linecap="round" stroke-linejoin="round"></path><path d="M88.751,38.077h-10.5V35.558l-5.281,4.527a.673.673,0,0,0,0,1.02l5.281,4.526V43.113h10.5a.672.672,0,0,0,.559-1.044L88.327,40.6l.983-1.474A.672.672,0,0,0,88.751,38.077Z" fill="#ffe500" stroke="#45413c" stroke-linecap="round" stroke-linejoin="round"></path><path d="M86.487,66.617H81.611v-23.5h5.876v22.5A1,1,0,0,1,86.487,66.617Z" fill="#d9fdff" stroke="#45413c" stroke-linecap="round" stroke-linejoin="round"></path><path d="M33.764 13.733H48.874V17.091H33.764z" fill="#e0e0e0" stroke="#45413c" stroke-linecap="round" stroke-linejoin="round"></path><path d="M33.764 17.091L33.764 7.857" fill="none" stroke="#45413c" stroke-linecap="round" stroke-linejoin="round"></path><path d="M48.873 17.091L48.873 7.857" fill="none" stroke="#45413c" stroke-linecap="round" stroke-linejoin="round"></path><path d="M33.764,3.839V7.857l4.435-1.9a.671.671,0,0,0,0-1.234l-3.5-1.5A.671.671,0,0,0,33.764,3.839Z" fill="#ffe500" stroke="#45413c" stroke-linecap="round" stroke-linejoin="round"></path><path d="M48.873,3.839V7.857l4.436-1.9a.671.671,0,0,0,0-1.234l-3.5-1.5A.672.672,0,0,0,48.873,3.839Z" fill="#ffe500" stroke="#45413c" stroke-linecap="round" stroke-linejoin="round"></path><path d="M62.3,33.879H16.136v3.778a2.1,2.1,0,0,0,4.2,0,2.1,2.1,0,0,0,4.2,0,2.1,2.1,0,0,0,4.2,0,2.1,2.1,0,0,0,4.2,0,2.1,2.1,0,0,0,4.2,0,2.1,2.1,0,0,0,4.2,0,2.1,2.1,0,0,0,4.2,0,2.1,2.1,0,0,0,4.2,0,2.1,2.1,0,0,0,4.2,0,2.1,2.1,0,0,0,4.2,0,2.1,2.1,0,0,0,4.2,0,2.1,2.1,0,0,0,4.2,0V33.879Z" fill="#fff48c" stroke="#45413c" stroke-linecap="round" stroke-linejoin="round"></path><path d="M31.245,28l.846-.564a16.641,16.641,0,0,1,9.228-2.793h0a16.64,16.64,0,0,1,9.227,2.793l.846.564v5.876l-.846-.564a16.64,16.64,0,0,0-9.227-2.793h0a16.641,16.641,0,0,0-9.228,2.793l-.846.564Z" fill="#ffb0ca" stroke="#45413c" stroke-linecap="round" stroke-linejoin="round"></path><path d="M51.392 29.682L56.428 29.682 54.749 32.201 56.428 35.558 51.392 35.558 51.392 29.682z" fill="#ffb0ca" stroke="#45413c" stroke-linecap="round" stroke-linejoin="round"></path><path d="M31.245 29.682L26.209 29.682 27.888 32.201 26.209 35.558 31.245 35.558 31.245 29.682z" fill="#ffb0ca" stroke="#45413c" stroke-linecap="round" stroke-linejoin="round"></path><path d="M84.969 46.471L87.487 46.471" fill="none" stroke="#45413c" stroke-linecap="round" stroke-linejoin="round"></path><path d="M84.969 49.829L87.487 49.829" fill="none" stroke="#45413c" stroke-linecap="round" stroke-linejoin="round"></path><path d="M84.969 53.186L87.487 53.186" fill="none" stroke="#45413c" stroke-linecap="round" stroke-linejoin="round"></path><path d="M84.969 56.544L87.487 56.544" fill="none" stroke="#45413c" stroke-linecap="round" stroke-linejoin="round"></path><path d="M84.969 59.902L87.487 59.902" fill="none" stroke="#45413c" stroke-linecap="round" stroke-linejoin="round"></path><path d="M84.969 63.26L87.487 63.26" fill="none" stroke="#45413c" stroke-linecap="round" stroke-linejoin="round"></path></g></svg>