<svg viewBox="0 0 160 160" height="160" width="160" xmlns="http://www.w3.org/2000/svg"><g transform="matrix(1.6,0,0,1.6,0,0)"><path d="M88.694,55.362a40,40,0,1,0-76.436,16.5H85.131A39.844,39.844,0,0,0,88.694,55.362Z" fill="#c7f0ff"></path><path d="M12.258,71.862a40,40,0,0,0,72.873,0Z" fill="#ccf7ad"></path><path d="M9.694 71.862L87.694 71.862" fill="none" stroke="#45413c" stroke-linecap="round" stroke-linejoin="round"></path><path d="M5.194 71.862L7.694 71.862" fill="none" stroke="#45413c" stroke-linecap="round" stroke-linejoin="round"></path><path d="M89.694 71.862L92.194 71.862" fill="none" stroke="#45413c" stroke-linecap="round" stroke-linejoin="round"></path><path d="M48.369 86.062 A21.913 1.725 0 1 0 92.195 86.062 A21.913 1.725 0 1 0 48.369 86.062 Z" fill="#45413c" opacity=".15"></path><path d="M89.694 71.862L92.194 71.862" fill="none" stroke="#45413c" stroke-linecap="round" stroke-linejoin="round"></path><path d="M72.2,6.741a20.5,20.5,0,1,0,20.5,20.5A20.5,20.5,0,0,0,72.2,6.741Zm0,38.894a18.4,18.4,0,1,1,18.4-18.4A18.4,18.4,0,0,1,72.2,45.635Z" fill="#ffaa54" stroke="#45413c" stroke-linecap="round" stroke-linejoin="round"></path><path d="M49.603 27.239 A22.601 22.601 0 1 0 94.805 27.239 A22.601 22.601 0 1 0 49.603 27.239 Z" fill="none" stroke="#45413c" stroke-linecap="round" stroke-linejoin="round"></path><path d="M48.552,27.239h0A1.052,1.052,0,0,1,49.6,26.188h4.2a1.051,1.051,0,0,1,1.051,1.051h0a1.05,1.05,0,0,1-1.051,1.051H49.6A1.051,1.051,0,0,1,48.552,27.239Z" fill="#ffaa54" stroke="#45413c" stroke-linecap="round" stroke-linejoin="round"></path><path d="M51.71,39.5h0A1.051,1.051,0,0,1,52,38.043l3.5-2.333A1.052,1.052,0,0,1,56.958,36h0a1.052,1.052,0,0,1-.292,1.458l-3.5,2.332A1.051,1.051,0,0,1,51.71,39.5Z" fill="#ffaa54" stroke="#45413c" stroke-linecap="round" stroke-linejoin="round"></path><path d="M51.882,15.093h0a1.052,1.052,0,0,0,.292,1.458l3.5,2.332a1.05,1.05,0,0,0,1.457-.291h0a1.051,1.051,0,0,0-.291-1.458L53.34,14.8A1.052,1.052,0,0,0,51.882,15.093Z" fill="#ffaa54" stroke="#45413c" stroke-linecap="round" stroke-linejoin="round"></path><path d="M7.074 50.42L92.595 50.42 92.595 48.102 7.074 48.102" fill="#ffaa54" stroke="#45413c" stroke-linecap="round" stroke-linejoin="round"></path><path d="M7.074 52.738L92.595 52.738" fill="none" stroke="#45413c" stroke-linecap="round" stroke-linejoin="round"></path><path d="M11.463,53.9h0A1.159,1.159,0,0,1,10.3,52.738V48.1a1.159,1.159,0,0,1,1.159-1.159h0A1.159,1.159,0,0,1,12.622,48.1v4.636A1.159,1.159,0,0,1,11.463,53.9Z" fill="#ffaa54" stroke="#45413c" stroke-linecap="round" stroke-linejoin="round"></path><path d="M21.315,53.9h0a1.159,1.159,0,0,1-1.159-1.159V48.1a1.159,1.159,0,0,1,1.159-1.159h0A1.159,1.159,0,0,1,22.474,48.1v4.636A1.159,1.159,0,0,1,21.315,53.9Z" fill="#ffaa54" stroke="#45413c" stroke-linecap="round" stroke-linejoin="round"></path><path d="M31.167,53.9h0a1.159,1.159,0,0,1-1.159-1.159V48.1a1.159,1.159,0,0,1,1.159-1.159h0A1.159,1.159,0,0,1,32.326,48.1v4.636A1.159,1.159,0,0,1,31.167,53.9Z" fill="#ffaa54" stroke="#45413c" stroke-linecap="round" stroke-linejoin="round"></path><path d="M41.019,53.9h0a1.158,1.158,0,0,1-1.159-1.159V48.1a1.158,1.158,0,0,1,1.159-1.159h0A1.159,1.159,0,0,1,42.178,48.1v4.636A1.159,1.159,0,0,1,41.019,53.9Z" fill="#ffaa54" stroke="#45413c" stroke-linecap="round" stroke-linejoin="round"></path><path d="M50.87,53.9h0a1.159,1.159,0,0,1-1.159-1.159V48.1a1.159,1.159,0,0,1,1.159-1.159h0A1.159,1.159,0,0,1,52.029,48.1v4.636A1.159,1.159,0,0,1,50.87,53.9Z" fill="#ffaa54" stroke="#45413c" stroke-linecap="round" stroke-linejoin="round"></path><path d="M60.722,53.9h0a1.159,1.159,0,0,1-1.159-1.159V48.1a1.159,1.159,0,0,1,1.159-1.159h0A1.159,1.159,0,0,1,61.881,48.1v4.636A1.159,1.159,0,0,1,60.722,53.9Z" fill="#ffaa54" stroke="#45413c" stroke-linecap="round" stroke-linejoin="round"></path><path d="M70.574,53.9h0a1.159,1.159,0,0,1-1.159-1.159V48.1a1.159,1.159,0,0,1,1.159-1.159h0A1.159,1.159,0,0,1,71.733,48.1v4.636A1.159,1.159,0,0,1,70.574,53.9Z" fill="#ffaa54" stroke="#45413c" stroke-linecap="round" stroke-linejoin="round"></path><path d="M80.425,53.9h0a1.159,1.159,0,0,1-1.159-1.159V48.1a1.159,1.159,0,0,1,1.159-1.159h0A1.158,1.158,0,0,1,81.584,48.1v4.636A1.158,1.158,0,0,1,80.425,53.9Z" fill="#ffaa54" stroke="#45413c" stroke-linecap="round" stroke-linejoin="round"></path><path d="M63.04,71.862H58.4V60.851a1.159,1.159,0,0,1,1.159-1.159h2.318a1.159,1.159,0,0,1,1.159,1.159Z" fill="#fff48c"></path><path d="M61.881,59.692H59.563A1.159,1.159,0,0,0,58.4,60.851v2.9H63.04v-2.9A1.159,1.159,0,0,0,61.881,59.692Z" fill="#fffacf"></path><path d="M63.04,71.862H58.4V60.851a1.159,1.159,0,0,1,1.159-1.159h2.318a1.159,1.159,0,0,1,1.159,1.159Z" fill="none" stroke="#45413c" stroke-linecap="round" stroke-linejoin="round"></path><path d="M89.7,71.862H74.63V60.851a1.159,1.159,0,0,1,1.159-1.159h12.75A1.159,1.159,0,0,1,89.7,60.851Z" fill="#fff48c"></path><path d="M88.539,59.692H75.789a1.159,1.159,0,0,0-1.159,1.159v2.9H89.7v-2.9A1.159,1.159,0,0,0,88.539,59.692Z" fill="#fffacf"></path><path d="M89.7,71.862H74.63V60.851a1.159,1.159,0,0,1,1.159-1.159h12.75A1.159,1.159,0,0,1,89.7,60.851Z" fill="none" stroke="#45413c" stroke-linecap="round" stroke-linejoin="round"></path><path d="M58.983 44.625H62.459999999999994V59.692H58.983z" fill="#ffa694"></path><path d="M58.983 44.625H62.459999999999994V50.42H58.983z" fill="#ff866e"></path><path d="M58.983 44.625H62.459999999999994V59.692H58.983z" fill="none" stroke="#45413c" stroke-linecap="round" stroke-linejoin="round"></path><path d="M75.21 44.625H89.118V59.692H75.21z" fill="#ffa694"></path><path d="M75.21 44.625H89.118V50.42H75.21z" fill="#ff866e"></path><path d="M75.21 44.625H89.118V59.692H75.21z" fill="none" stroke="#45413c" stroke-linecap="round" stroke-linejoin="round"></path><path d="M79.266,33.034H68.835c-1.964,7.857-8.287,9.865-12.17,11.591H91.436C87.566,42.9,81.232,40.9,79.266,33.034Z" fill="#4acfff"></path><path d="M81.768,38.25a14.667,14.667,0,0,1-2.5-5.216H68.835a14.665,14.665,0,0,1-2.5,5.216Z" fill="#80ddff"></path><path d="M87.555,42.9a14.7,14.7,0,0,1-8.289-9.866H68.835c-1.964,7.857-8.287,9.865-12.17,11.591H91.436Z" fill="none" stroke="#45413c" stroke-linecap="round" stroke-linejoin="round"></path><path d="M78.687 46.943 L85.641 46.943 L85.641 57.374 L78.687 57.374 Z" fill="#adc4d9" stroke="#45413c" stroke-linecap="round" stroke-linejoin="round"></path><path d="M78.687,48.1v6.954h.826a1.12,1.12,0,0,0,1.044-.664,1.739,1.739,0,0,1,3.214,0,1.12,1.12,0,0,0,1.044.664h.826V48.1a1.159,1.159,0,0,0-1.159-1.159H79.846A1.159,1.159,0,0,0,78.687,48.1Z" fill="#00b8f0" stroke="#45413c" stroke-linecap="round" stroke-linejoin="round"></path><path d="M68.835 30.716H79.26599999999999V33.034H68.835z" fill="#e0e0e0" stroke="#45413c" stroke-linecap="round" stroke-linejoin="round"></path><path d="M68.835 33.034L68.835 26.66" fill="none" stroke="#45413c" stroke-linecap="round" stroke-linejoin="round"></path><path d="M79.266 33.034L79.266 26.66" fill="none" stroke="#45413c" stroke-linecap="round" stroke-linejoin="round"></path><path d="M68.835,23.183V26.66l3.808-1.632a.116.116,0,0,0,0-.213Z" fill="#ffe500" stroke="#45413c" stroke-linecap="round" stroke-linejoin="round"></path><path d="M79.266,23.183V26.66l3.808-1.632a.116.116,0,0,0,0-.213Z" fill="#ffe500" stroke="#45413c" stroke-linecap="round" stroke-linejoin="round"></path><path d="M91.436,44.625H56.665" fill="#fff48c" stroke="#45413c" stroke-linecap="round" stroke-linejoin="round"></path><path d="M82.711,46.905a2.165,2.165,0,1,1-4.33,0,2.165,2.165,0,0,1-4.33,0,2.165,2.165,0,0,1-4.33,0,2.166,2.166,0,0,1-4.331,0,2.165,2.165,0,0,1-4.33,0,2.165,2.165,0,1,1-4.33,0v-2.28H91.372v2.28a2.165,2.165,0,1,1-4.33,0,2.165,2.165,0,1,1-4.33,0" fill="#fff48c" stroke="#45413c" stroke-linecap="round" stroke-linejoin="round"></path><path d="M67.613,40.224l.068-.045a11.48,11.48,0,0,1,6.37-1.929h0a11.48,11.48,0,0,1,6.37,1.929l.068.045a1.16,1.16,0,0,1,.516.964v3.437l-.584-.39a11.487,11.487,0,0,0-6.37-1.928h0a11.487,11.487,0,0,0-6.37,1.928l-.584.39V41.188A1.158,1.158,0,0,1,67.613,40.224Z" fill="#ffb0ca" stroke="#45413c" stroke-linecap="round" stroke-linejoin="round"></path><path d="M67.1,41.727H64.269a.348.348,0,0,0-.289.541l.426.638a1.16,1.16,0,0,1,.072,1.161l-.607,1.213a.349.349,0,0,0,.311.5H67.1Z" fill="#ffb0ca" stroke="#45413c" stroke-linecap="round" stroke-linejoin="round"></path><path d="M81.005,41.727h2.827a.348.348,0,0,1,.29.541l-.426.638a1.158,1.158,0,0,0-.072,1.161l.606,1.213a.348.348,0,0,1-.311.5H81.005Z" fill="#ffb0ca" stroke="#45413c" stroke-linecap="round" stroke-linejoin="round"></path><path d="M49.519 60.187 L52.969 60.187 L52.969 85.487 L49.519 85.487 Z" fill="#e8f4fa" stroke="#45413c" stroke-linecap="round" stroke-linejoin="round"></path><path d="M67.919 60.187 L71.369 60.187 L71.369 85.487 L67.919 85.487 Z" fill="#e8f4fa" stroke="#45413c" stroke-linecap="round" stroke-linejoin="round"></path><path d="M86.319 60.187 L89.769 60.187 L89.769 85.487 L86.319 85.487 Z" fill="#e8f4fa" stroke="#45413c" stroke-linecap="round" stroke-linejoin="round"></path><path d="M67.919 58.462 A1.725 1.725 0 1 0 71.369 58.462 A1.725 1.725 0 1 0 67.919 58.462 Z" fill="#e8f4fa" stroke="#45413c" stroke-linecap="round" stroke-linejoin="round"></path><path d="M86.319 58.462 A1.725 1.725 0 1 0 89.769 58.462 A1.725 1.725 0 1 0 86.319 58.462 Z" fill="#e8f4fa" stroke="#45413c" stroke-linecap="round" stroke-linejoin="round"></path><path d="M49.519 58.462 A1.725 1.725 0 1 0 52.969 58.462 A1.725 1.725 0 1 0 49.519 58.462 Z" fill="#e8f4fa" stroke="#45413c" stroke-linecap="round" stroke-linejoin="round"></path><path d="M67.919,62.487h-.8a1.149,1.149,0,0,0-1.1.846c-.617,2.167-3.23,3.754-5.595,3.754s-4.935-1.587-5.552-3.754a1.149,1.149,0,0,0-1.1-.846h-.8V64.7a8.3,8.3,0,0,0,14.95-.01Z" fill="#ff8a14" stroke="#45413c" stroke-linecap="round" stroke-linejoin="round"></path><path d="M86.319,62.487h-.8a1.149,1.149,0,0,0-1.1.846c-.617,2.167-3.23,3.754-5.6,3.754s-4.935-1.587-5.552-3.754a1.149,1.149,0,0,0-1.1-.846h-.8V64.7a8.3,8.3,0,0,0,14.95-.01Z" fill="#ff8a14" stroke="#45413c" stroke-linecap="round" stroke-linejoin="round"></path><path d="M22.147 86.025 A12.362 1.725 0 1 0 46.871 86.025 A12.362 1.725 0 1 0 22.147 86.025 Z" fill="#45413c" opacity=".15"></path><path d="M17.8,75.714a1.144,1.144,0,0,0,.407-.94,1.71,1.71,0,0,1,2.109-1.745,1.147,1.147,0,0,0,1-.223l2.229-1.844a1.15,1.15,0,0,0,.154-1.619L22.23,67.571a1.15,1.15,0,0,0-1.619-.154l-2.229,1.844a1.146,1.146,0,0,0-.408.941,1.71,1.71,0,0,1-2.109,1.744,1.148,1.148,0,0,0-1,.223l-.457.378a1.15,1.15,0,0,0-.153,1.619l1.466,1.773a1.15,1.15,0,0,0,1.619.153Z" fill="#fff5e3" stroke="#45413c" stroke-linecap="round" stroke-linejoin="round"></path><path d="M21.323,68.284h0a2.152,2.152,0,0,1-1.171-2.81l.175-.424,3.98,1.639-.175.424A2.151,2.151,0,0,1,21.323,68.284Z" fill="#ffda8f" stroke="#45413c" stroke-linecap="round" stroke-linejoin="round"></path><path d="M43.134,69.925h0a2.012,2.012,0,0,1-2.013-2.012V67.05h4.025v.863A2.012,2.012,0,0,1,43.134,69.925Z" fill="#ffda8f" stroke="#45413c" stroke-linecap="round" stroke-linejoin="round"></path><path d="M33.646,42.9a11.5,11.5,0,0,0-11.5,11.5,26.508,26.508,0,0,1-1.819,10.65l3.978,1.638a31.13,31.13,0,0,0,1.866-9.413v9.2h14.95v.575h4.025V54.4A11.5,11.5,0,0,0,33.646,42.9Z" fill="#00b8f0"></path><path d="M33.646,46.35c8.987,0,11.5,8.625,11.5,8.625V54.4a11.5,11.5,0,1,0-23,0c0,.169,0,.361,0,.575C22.147,54.975,24.656,46.35,33.646,46.35Z" fill="#4acfff"></path><path d="M33.646,42.9a11.5,11.5,0,0,0-11.5,11.5,26.508,26.508,0,0,1-1.819,10.65l3.978,1.638a31.13,31.13,0,0,0,1.866-9.413v9.2h14.95v.575h4.025V54.4A11.5,11.5,0,0,0,33.646,42.9Z" fill="none" stroke="#45413c" stroke-linecap="round" stroke-linejoin="round"></path><path d="M33.646,45.2a7.475,7.475,0,0,0-7.475,7.475v13.8h14.95v-13.8A7.475,7.475,0,0,0,33.646,45.2Z" fill="#fff" stroke="#45413c" stroke-linecap="round" stroke-linejoin="round"></path><path d="M36.749,43.324a1,1,0,0,1-.73-.964l0-2.456H31.275l0,2.458a1,1,0,0,1-.73.962q-.311.087-.614.191a3.856,3.856,0,0,0,7.436,0Q37.06,43.412,36.749,43.324Z" fill="#ffda8f" stroke="#45413c" stroke-linecap="round" stroke-linejoin="round"></path><path d="M29.621 56.125 A4.025 4.025 0 1 0 37.671 56.125 A4.025 4.025 0 1 0 29.621 56.125 Z" fill="#ff6242" stroke="#45413c" stroke-linecap="round" stroke-linejoin="round"></path><path d="M33.646 52.1L33.646 60.15" fill="none" stroke="#45413c" stroke-linecap="round" stroke-linejoin="round"></path><path d="M31.346 52.821L31.346 59.429" fill="none" stroke="#45413c" stroke-linecap="round" stroke-linejoin="round"></path><path d="M35.946 52.821L35.946 59.429" fill="none" stroke="#45413c" stroke-linecap="round" stroke-linejoin="round"></path><path d="M26.171,66.475V82.462A3.43,3.43,0,0,1,27.9,82h.575A3.449,3.449,0,0,1,31.4,83.633l.4-12.495a1.847,1.847,0,0,1,3.692,0l.4,12.495A3.446,3.446,0,0,1,38.821,82H39.4a3.43,3.43,0,0,1,1.725.462V66.475Z" fill="#87898c"></path><path d="M26.171,66.475V71.65h5.613l.016-.512a1.847,1.847,0,0,1,3.692,0l.016.512h5.613V66.475Z" fill="#656769"></path><path d="M26.171,66.475V82.462A3.43,3.43,0,0,1,27.9,82h.575A3.449,3.449,0,0,1,31.4,83.633l.4-12.495a1.847,1.847,0,0,1,3.692,0l.4,12.495A3.446,3.446,0,0,1,38.821,82H39.4a3.43,3.43,0,0,1,1.725.462V66.475Z" fill="none" stroke="#45413c" stroke-linecap="round" stroke-linejoin="round"></path><path d="M27.9,82h.575V66.475h-2.3V82.462A3.432,3.432,0,0,1,27.9,82Z" fill="#f0f0f0" stroke="#45413c" stroke-linecap="round" stroke-linejoin="round"></path><path d="M30.46,85.45a1.146,1.146,0,0,0,1.032-1.668A3.449,3.449,0,0,0,28.471,82H27.9a3.449,3.449,0,0,0-3.021,1.782,1.146,1.146,0,0,0,1.032,1.668Z" fill="#fff" stroke="#45413c" stroke-linecap="round" stroke-linejoin="round"></path><path d="M39.4,82h-.575V66.475h2.3V82.462A3.432,3.432,0,0,0,39.4,82Z" fill="#f0f0f0" stroke="#45413c" stroke-linecap="round" stroke-linejoin="round"></path><path d="M36.832,85.45A1.146,1.146,0,0,1,35.8,83.782,3.449,3.449,0,0,1,38.821,82H39.4a3.449,3.449,0,0,1,3.021,1.782,1.146,1.146,0,0,1-1.032,1.668Z" fill="#fff" stroke="#45413c" stroke-linecap="round" stroke-linejoin="round"></path><path d="M41.7,34.95a1.417,1.417,0,0,0-1.15-1.379V32.65a6.9,6.9,0,0,0-13.8,0v.921a1.408,1.408,0,0,0,.145,2.788,6.9,6.9,0,0,0,13.51,0A1.424,1.424,0,0,0,41.7,34.95Z" fill="#ffda8f" stroke="#45413c" stroke-linecap="round" stroke-linejoin="round"></path><path d="M29.046 35.813 A0.862 0.862 0 1 0 30.770 35.813 A0.862 0.862 0 1 0 29.046 35.813 Z" fill="#ffbe3d"></path><path d="M36.521 35.813 A0.862 0.862 0 1 0 38.245 35.813 A0.862 0.862 0 1 0 36.521 35.813 Z" fill="#ffbe3d"></path><path d="M36.755,33.8a.979.979,0,0,0-1.384,0" fill="none" stroke="#45413c" stroke-linecap="round" stroke-linejoin="round"></path><path d="M30.537,33.8a.979.979,0,0,1,1.384,0" fill="none" stroke="#45413c" stroke-linecap="round" stroke-linejoin="round"></path><path d="M35.371,37.825a2.875,2.875,0,0,1-3.45,0" fill="none" stroke="#45413c" stroke-linecap="round" stroke-linejoin="round"></path><path d="M26.746,33.571s2.3-.162,2.3-3.8a13.784,13.784,0,0,0,4.6.575,13.784,13.784,0,0,0,4.6-.575c0,3.634,2.3,3.8,2.3,3.8a1.463,1.463,0,0,1,.9.58,4.289,4.289,0,0,0,.829-2.651c0-1.667-.79-3.052-1.838-3.372a.323.323,0,0,1-.181-.46,2.922,2.922,0,0,0,.294-1.265c0-4.471-6.067-3.379-3.361-6.059a.123.123,0,0,0-.081-.211c-6.117.075-10.358,2.423-10.358,6.27a2.935,2.935,0,0,0,.293,1.265.322.322,0,0,1-.18.46c-1.048.32-1.838,1.7-1.838,3.372a4.289,4.289,0,0,0,.829,2.651A1.466,1.466,0,0,1,26.746,33.571Z" fill="#614b44"></path><path d="M40.46,27.058l.007,0a2.79,2.79,0,0,0,.079-.659c0-4.471-6.067-3.379-3.361-6.059a.123.123,0,0,0-.081-.211c-6.116.075-10.358,2.423-10.358,6.27a2.834,2.834,0,0,0,.078.658l.007,0A9.965,9.965,0,0,1,33.646,24.6,9.963,9.963,0,0,1,40.46,27.058Z" fill="#947063"></path><path d="M26.746,33.571s2.3-.162,2.3-3.8a13.784,13.784,0,0,0,4.6.575,13.784,13.784,0,0,0,4.6-.575c0,3.634,2.3,3.8,2.3,3.8a1.463,1.463,0,0,1,.9.58,4.289,4.289,0,0,0,.829-2.651c0-1.667-.79-3.052-1.838-3.372a.323.323,0,0,1-.181-.46,2.922,2.922,0,0,0,.294-1.265c0-4.471-6.067-3.379-3.361-6.059a.123.123,0,0,0-.081-.211c-6.117.075-10.358,2.423-10.358,6.27a2.935,2.935,0,0,0,.293,1.265.322.322,0,0,1-.18.46c-1.048.32-1.838,1.7-1.838,3.372a4.289,4.289,0,0,0,.829,2.651A1.466,1.466,0,0,1,26.746,33.571Z" fill="none" stroke="#45413c" stroke-linecap="round" stroke-linejoin="round"></path></g></svg>