<svg viewBox="0 0 160 160" height="160" width="160" xmlns="http://www.w3.org/2000/svg"><g transform="matrix(1.6,0,0,1.6,0,0)"><path d="M10.000 50.000 A40.000 40.000 0 1 0 90.000 50.000 A40.000 40.000 0 1 0 10.000 50.000 Z" fill="#CDF2FF" stroke="#CDF2FF"></path><path d="M30.475 80.521 A14.175 1.575 0 1 0 58.825 80.521 A14.175 1.575 0 1 0 30.475 80.521 Z" fill="#45413c" opacity=".15"></path><path d="M75.783,66.588A1.575,1.575,0,0,1,74.669,63.9a22.089,22.089,0,0,0,0-31.237A1.575,1.575,0,1,1,76.9,30.436a25.239,25.239,0,0,1,0,35.691A1.569,1.569,0,0,1,75.783,66.588Z" fill="#4acfff" stroke="#009fd9"></path><path d="M69.964,60.767a1.574,1.574,0,0,1-1.114-2.688,13.858,13.858,0,0,0,0-19.6A1.575,1.575,0,0,1,69.965,35.8a1.559,1.559,0,0,1,1.114.463,17.008,17.008,0,0,1,0,24.048A1.57,1.57,0,0,1,69.964,60.767Z" fill="#4acfff" stroke="#009fd9"></path><path d="M64.144,54.949a1.575,1.575,0,0,1-1.113-2.69,5.624,5.624,0,0,0,0-7.953,1.575,1.575,0,1,1,2.226-2.229,8.776,8.776,0,0,1,0,12.412A1.568,1.568,0,0,1,64.144,54.949Z" fill="#4acfff" stroke="#009fd9"></path><path d="M19.808,59.4a12.844,12.844,0,0,0,4.365,11.608,12.312,12.312,0,0,0,4.478,2.359A12.893,12.893,0,0,0,45.028,61.362a12.184,12.184,0,0,1,6.136-10.126A20.074,20.074,0,0,0,61.178,33.889c.076-10.244-7.826-19.149-17.8-20.088a19.464,19.464,0,0,0-9.352,1.7A16.032,16.032,0,0,0,25.21,35.008h0a16.137,16.137,0,0,1-.7,11.4l-3.409,7.58a13.212,13.212,0,0,0-1.086,3.785Z" fill="#e09f7e"></path><path d="M32.126,73.873a13.077,13.077,0,0,0,8.423-11.7,12.184,12.184,0,0,1,6.136-10.127A20.07,20.07,0,0,0,56.7,34.7c.076-10.244-7.826-19.149-17.8-20.088a15.588,15.588,0,0,0-2.34-.039,18.01,18.01,0,0,1,6.819-.773c9.979.939,17.881,9.844,17.805,20.088A20.074,20.074,0,0,1,51.164,51.236a12.184,12.184,0,0,0-6.136,10.126A12.96,12.96,0,0,1,32.126,73.873Z" fill="#d18660"></path><path d="M19.808,59.4a12.844,12.844,0,0,0,4.365,11.608,12.312,12.312,0,0,0,4.478,2.359A12.893,12.893,0,0,0,45.028,61.362a12.184,12.184,0,0,1,6.136-10.126A20.074,20.074,0,0,0,61.178,33.889c.076-10.244-7.826-19.149-17.8-20.088a19.464,19.464,0,0,0-9.352,1.7A16.032,16.032,0,0,0,25.21,35.008h0a16.137,16.137,0,0,1-.7,11.4l-3.409,7.58a13.212,13.212,0,0,0-1.086,3.785Z" fill="none" stroke="#45413c" stroke-linecap="round" stroke-linejoin="round"></path><path d="M40.805,23.136a10.416,10.416,0,0,0-11.35,9.389c-.006.064-.011.127-.016.191A3.832,3.832,0,0,0,33.1,36.7l.032,0c2.957.266,4.36,3.075,4.013,5.8-.492,3.863-4.086,5.291-6.761,7.531a8.5,8.5,0,0,0-3.285,5.3,2.875,2.875,0,0,0,.082,1.024c1.115,4.4,4.207,5.343,6.737,4.551a5.173,5.173,0,0,0,3.607-4.945c-.011-2.53,2.1-3.472,3.965-4.609a18.754,18.754,0,0,0,7.83-10.094c1.316-3.929,1.817-9.247-.378-12.95A10.667,10.667,0,0,0,40.805,23.136Z" fill="#bd704a"></path><path d="M34.893,60.489c-1.541-.525-2.918-1.913-3.586-4.548a2.9,2.9,0,0,1-.082-1.025,8.5,8.5,0,0,1,3.285-5.3c2.675-2.239,6.269-3.667,6.761-7.531.239-1.874-.454-5.5-4.045-5.8a3.842,3.842,0,0,1-3.648-4.174,10.369,10.369,0,0,1,7.3-8.963l-.069-.007a10.416,10.416,0,0,0-11.35,9.389c-.006.064-.011.127-.016.191A3.832,3.832,0,0,0,33.1,36.7l.032,0c2.957.266,4.36,3.075,4.013,5.8-.492,3.863-4.086,5.291-6.761,7.531a8.5,8.5,0,0,0-3.285,5.3,2.875,2.875,0,0,0,.082,1.024c1.115,4.4,4.207,5.343,6.737,4.551A5.042,5.042,0,0,0,34.893,60.489Z" fill="#915e3a"></path><path d="M40.805,23.136a10.416,10.416,0,0,0-11.35,9.389c-.006.064-.011.127-.016.191A3.832,3.832,0,0,0,33.1,36.7l.032,0c2.957.266,4.36,3.075,4.013,5.8-.492,3.863-4.086,5.291-6.761,7.531a8.5,8.5,0,0,0-3.285,5.3,2.875,2.875,0,0,0,.082,1.024c1.115,4.4,4.207,5.343,6.737,4.551a5.173,5.173,0,0,0,3.607-4.945c-.011-2.53,2.1-3.472,3.965-4.609a18.754,18.754,0,0,0,7.83-10.094c1.316-3.929,1.817-9.247-.378-12.95A10.667,10.667,0,0,0,40.805,23.136Z" fill="none" stroke="#45413c" stroke-linecap="round" stroke-linejoin="round"></path></g></svg>