<svg width="117" height="114" fill="none" xmlns="http://www.w3.org/2000/svg">
  <path d="M102.604 78.4735c3.508-8.2456 5.018-17.2963 4.392-26.3239-.626-9.0276-3.368-17.7439-7.9757-25.3516-4.6077-7.6077-10.9335-13.8638-18.3989-18.196C73.156 4.27 64.7895 2 56.2872 2S39.4184 4.27 31.953 8.602c-7.4654 4.3322-13.7913 10.5883-18.3989 18.196-4.6076 7.6077-7.3499 16.324-7.9759 25.3516-.626 9.0276.8842 18.0783 4.3925 26.3239h92.6333z" fill="#627B8C"/>
  <path d="M9.9709 78.4735c4.033 9.4791 10.5467 17.5197 18.7611 23.1595 8.2144 5.639 17.7813 8.638 27.5554 8.638 9.7741 0 19.3411-2.999 27.5555-8.638 8.2143-5.6398 14.728-13.6804 18.7611-23.1595H9.9709z" fill="#8CA4B8"/>
  <path fill-rule="evenodd" clip-rule="evenodd" d="M6.0072 78.4734c0-.4106.315-.7434.7038-.7434h99.152c.388 0 .703.3328.703.7434 0 .4106-.315.7435-.703.7435H6.711c-.3887 0-.7038-.3329-.7038-.7435zM.287 78.4734c0-.4106.3151-.7434.7038-.7434h3.178c.3886 0 .7037.3328.7037.7434 0 .4106-.315.7435-.7037.7435H.9908c-.3887 0-.7038-.3329-.7038-.7435zM107.701 78.4734c0-.4106.316-.7434.704-.7434h3.178c.389 0 .704.3328.704.7434 0 .4106-.315.7435-.704.7435h-3.178c-.388 0-.704-.3329-.704-.7435z" fill="#45413C"/>
  <path d="M30.7446 45.6754l-10.0423-2.2899c-.6792-.1549-1.2881-.5531-1.7249-1.1282-.4367-.5752-.675-1.2924-.675-2.032v-4.9588l12.4384 2.8421.0038 7.5668z" fill="#00AD85"/>
  <path fill-rule="evenodd" clip-rule="evenodd" d="M17.8602 34.6878c.1656-.1411.3828-.1956.5907-.148l12.4385 2.8421c.3237.0739.5548.3763.555.7262l.0038 7.5668c.0001.2248-.0961.4376-.2616.5788-.1655.1412-.3827.1958-.5907.1483l-10.0422-2.2899c-.838-.191-1.588-.6821-2.1254-1.3897-.5373-.7075-.8299-1.589-.8299-2.4972v-4.9588c0-.2248.0962-.4375.2618-.5786zm1.1457 1.5001v4.0373c0 .571.1841 1.124.5203 1.5668.3361.4426.8038.748 1.3244.8667l9.1896 2.0955-.0031-6.0458-11.0312-2.5205z" fill="#45413C"/>
  <path d="M30.7437 38.1085l-12.4385 7.5668v9.4589l12.4385-7.5668v-9.4589z" fill="#00DBA8"/>
  <path fill-rule="evenodd" clip-rule="evenodd" d="M31.0958 37.4649c.2175.1329.3515.3782.3515.6437v9.4588c0 .2659-.1344.5116-.3526.6443l-12.4384 7.5668a.6714.6714 0 01-.7034-.0006c-.2176-.1329-.3516-.3782-.3516-.6437v-9.4588c0-.2659.1345-.5116.3526-.6443l12.4384-7.5668a.6716.6716 0 01.7035.0006zm-12.0869 8.6403v7.743l11.0309-6.7106v-7.743l-11.0309 6.7106z" fill="#45413C"/>
  <path d="M30.7446 30.5404l-10.0423-2.29c-.6792-.1548-1.2881-.5531-1.7249-1.1282-.4367-.5751-.675-1.2923-.675-2.0319v-4.9548l12.4384 2.8421.0038 7.5628z" fill="#00AD85"/>
  <path fill-rule="evenodd" clip-rule="evenodd" d="M17.8602 19.5569c.1656-.1411.3828-.1955.5907-.148l12.4385 2.8421c.3237.074.5548.3764.555.7263l.0038 7.5627c.0001.2248-.0961.4376-.2616.5788-.1655.1412-.3827.1958-.5907.1483l-10.0422-2.2899c-.838-.1911-1.588-.6821-2.1254-1.3897-.5373-.7075-.8299-1.589-.8299-2.4972v-4.9548c0-.2247.0962-.4374.2618-.5786zm1.1457 1.5001v4.0333c0 .571.1841 1.124.5203 1.5667.3361.4427.8038.7481 1.3244.8668l9.1896 2.0955-.0031-6.0417-11.0312-2.5206z" fill="#45413C"/>
  <path d="M30.7437 22.9736l-12.4385 7.5668v9.4602l12.4385-7.5681v-9.4589z" fill="#00DBA8"/>
  <path fill-rule="evenodd" clip-rule="evenodd" d="M31.0958 22.33c.2175.1329.3515.3782.3515.6437v9.4588c0 .2659-.1344.5115-.3525.6442l-12.4385 7.5682a.6712.6712 0 01-.7034-.0006c-.2176-.1328-.3516-.3781-.3516-.6436v-9.4602c0-.2659.1345-.5116.3526-.6443l12.4384-7.5668a.6716.6716 0 01.7035.0006zm-12.0869 8.6403v7.7442l11.0309-6.7117v-7.7431l-11.0309 6.7106z" fill="#45413C"/>
  <path d="M30.7437 17.2988l-12.4385 7.5668V12.5687c.0234-1.7397.6889-3.3997 1.8527-4.6212 1.1638-1.2215 2.7324-1.9062 4.3666-1.9062 1.6342 0 3.2027.6847 4.3665 1.9062 1.1638 1.2215 1.8293 2.8815 1.8527 4.6212v4.7301z" fill="#00DBA8"/>
  <path fill-rule="evenodd" clip-rule="evenodd" d="M24.5243 6.7847c-1.4475 0-2.838.6065-3.8705 1.6902-1.0316 1.0827-1.6229 2.5549-1.6449 4.0993v11.0054l11.0309-6.7105v-4.2949c-.022-1.5444-.6134-3.0166-1.645-4.0993-1.0325-1.0837-2.423-1.6902-3.8705-1.6902zm-4.8626.6354c1.2951-1.3592 3.0417-2.1222 4.8626-2.1222 1.8209 0 3.5675.763 4.8626 2.1222 1.2949 1.3591 2.0344 3.2049 2.0603 5.1381l.0002.0106-.0001 4.7301c0 .2659-.1344.5115-.3526.6442l-12.4384 7.5668a.6712.6712 0 01-.7034-.0006c-.2176-.1328-.3516-.3782-.3516-.6436V12.5582c.026-1.9332.7655-3.779 2.0604-5.138z" fill="#45413C"/>
  <path d="M44.9601 45.6754l10.0423-2.2899c.6792-.1549 1.2881-.5531 1.7249-1.1282.4367-.5752.675-1.2924.675-2.032v-4.9588l-12.4384 2.8421-.0038 7.5668z" fill="#00AD85"/>
  <path fill-rule="evenodd" clip-rule="evenodd" d="M57.8441 34.6878c.1656.1411.2619.3538.2619.5786v4.9588c-.0001.9082-.2926 1.7897-.83 2.4972-.5374.7076-1.2873 1.1987-2.1253 1.3897L45.1084 46.402c-.208.0475-.4251-.0071-.5906-.1483-.1656-.1412-.2617-.354-.2616-.5788l.0038-7.5668c.0002-.3499.2312-.6523.555-.7262l12.4384-2.8421c.208-.0476.4251.0069.5907.148zm-12.1769 4.0206l-.003 6.0458 9.1895-2.0955c.5206-.1187.9883-.4241 1.3245-.8667.3362-.4428.5202-.9958.5202-1.5668v-4.0373l-11.0312 2.5205z" fill="#45413C"/>
  <path d="M44.9601 38.1085l12.4384 7.5668v9.4589l-12.4384-7.5668v-9.4589z" fill="#00DBA8"/>
  <path fill-rule="evenodd" clip-rule="evenodd" d="M44.6077 37.4649a.6714.6714 0 01.7034-.0006l12.4385 7.5668c.2181.1327.3525.3784.3525.6443v9.4588c0 .2655-.1339.5108-.3515.6437a.6714.6714 0 01-.7034.0006l-12.4385-7.5668c-.2181-.1327-.3525-.3784-.3525-.6443v-9.4588c0-.2655.134-.5108.3515-.6437zm1.056 1.9297v7.743l11.0309 6.7106v-7.743l-11.0309-6.7106z" fill="#45413C"/>
  <path d="M44.9601 30.5404l10.0423-2.29c.6792-.1548 1.2881-.5531 1.7249-1.1282.4367-.5751.675-1.2923.675-2.0319v-4.9548l-12.4384 2.8421-.0038 7.5628z" fill="#00AD85"/>
  <path fill-rule="evenodd" clip-rule="evenodd" d="M57.8441 19.5569c.1656.1412.2619.3539.2619.5786v4.9548c-.0001.9082-.2926 1.7897-.83 2.4972-.5374.7076-1.2873 1.1986-2.1253 1.3897l-10.0423 2.2899c-.208.0475-.4251-.0071-.5906-.1483-.1656-.1412-.2617-.354-.2616-.5788l.0038-7.5627c.0002-.3499.2312-.6523.555-.7263l12.4384-2.8421c.208-.0475.4251.0069.5907.148zm-12.1769 4.0207l-.003 6.0417 9.1895-2.0955c.5206-.1187.9883-.4241 1.3245-.8668.3362-.4427.5202-.9957.5202-1.5667V21.057l-11.0312 2.5206z" fill="#45413C"/>
  <path d="M44.9601 22.9736l12.4384 7.5668v9.4602l-12.4384-7.5681v-9.4589z" fill="#00DBA8"/>
  <path fill-rule="evenodd" clip-rule="evenodd" d="M44.6077 22.33a.6714.6714 0 01.7034-.0006l12.4385 7.5668c.2181.1327.3525.3784.3525.6443v9.4602c0 .2655-.134.5108-.3515.6436a.6714.6714 0 01-.7035.0006l-12.4384-7.5682c-.2181-.1327-.3525-.3783-.3525-.6442v-9.4588c0-.2655.134-.5108.3515-.6437zm1.056 1.9297v7.7431l11.0309 6.7117v-7.7442l-11.0309-6.7106z" fill="#45413C"/>
  <path d="M44.9601 17.2988l12.4384 7.5668V12.5687c-.0233-1.7397-.6889-3.3997-1.8526-4.6212-1.1638-1.2215-2.7324-1.9062-4.3666-1.9062-1.6342 0-3.2028.6847-4.3665 1.9062-1.1638 1.2215-1.8294 2.8815-1.8527 4.6212v4.7301z" fill="#00DBA8"/>
  <path fill-rule="evenodd" clip-rule="evenodd" d="M46.3166 7.4201c1.295-1.3592 3.0417-2.1222 4.8626-2.1222 1.8208 0 3.5675.763 4.8625 2.1222 1.2949 1.3591 2.0344 3.2049 2.0604 5.1381l.0001.0106-.0001 12.2969c0 .2654-.1339.5108-.3515.6436a.6712.6712 0 01-.7034.0006l-12.4385-7.5668c-.2181-.1327-.3525-.3783-.3525-.6442v-4.7407c.0259-1.9332.7655-3.779 2.0604-5.138zm4.8626-.6353c-1.4476 0-2.8381.6064-3.8706 1.6901-1.0315 1.0827-1.6229 2.5549-1.6449 4.0993v4.2949l11.0309 6.7105V12.5742c-.022-1.5444-.6134-3.0166-1.6449-4.0993-1.0325-1.0837-2.423-1.6902-3.8705-1.6902z" fill="#45413C"/>
  <path d="M25.4144 22.0276c0 3.5122 1.3105 6.8806 3.6432 9.3642 2.3326 2.4835 5.4964 3.8787 8.7953 3.8787 3.2989 0 6.4626-1.3952 8.7953-3.8787 2.3326-2.4836 3.6431-5.852 3.6431-9.3642s-1.3105-6.8806-3.6431-9.3642c-2.3327-2.4835-5.4964-3.8787-8.7953-3.8787-3.2989 0-6.4627 1.3952-8.7953 3.8787-2.3327 2.4836-3.6432 5.852-3.6432 9.3642z" fill="#00DBA8"/>
  <path fill-rule="evenodd" clip-rule="evenodd" d="M28.5578 12.1398c2.4642-2.6236 5.8076-4.0985 9.2949-4.0985 3.4873 0 6.8307 1.475 9.2949 4.0985 2.464 2.6234 3.8473 6.1803 3.8473 9.8878 0 3.7076-1.3833 7.2644-3.8473 9.8878-2.4642 2.6236-5.8076 4.0986-9.2949 4.0986-3.4873 0-6.8307-1.475-9.2949-4.0986-2.464-2.6234-3.8473-6.1802-3.8473-9.8878 0-3.7075 1.3833-7.2644 3.8473-9.8878zm9.2949-2.6116c-3.1104 0-6.0946 1.3154-8.2957 3.6589-2.2013 2.3437-3.439 5.5236-3.439 8.8405 0 3.317 1.2377 6.4969 3.439 8.8406 2.2011 2.3434 5.1853 3.6589 8.2957 3.6589 3.1105 0 6.0946-1.3155 8.2958-3.6589 2.2012-2.3437 3.4389-5.5236 3.4389-8.8406 0-3.3169-1.2377-6.4968-3.4389-8.8405-2.2012-2.3435-5.1853-3.659-8.2958-3.659z" fill="#45413C"/>
  <path d="M23.6373 13.205l5.0255-5.3506L31.62 11.003l-5.0255 5.3506-2.9572-3.1485z" fill="#BF8DF2"/>
  <path fill-rule="evenodd" clip-rule="evenodd" d="M23.1412 13.7327c-.2738-.2915-.2738-.764 0-1.0555l5.0255-5.3505c.2738-.2915.7176-.2915.9914 0l2.9572 3.1485c.2738.2914.2738.764 0 1.0555l-5.0255 5.3505c-.2737.2915-.7176.2915-.9914 0l-2.9572-3.1485zm1.4871-.5277l1.9658 2.093 4.0342-4.2951-1.9659-2.093-4.0341 4.2951z" fill="#45413C"/>
  <path d="M44.084 11.0022l2.9572-3.1485 5.0255 5.3505-2.9572 3.1485-5.0255-5.3505z" fill="#BF8DF2"/>
  <path fill-rule="evenodd" clip-rule="evenodd" d="M43.5879 11.5299c-.2737-.2914-.2737-.764 0-1.0555l2.9573-3.1485c.2737-.2914.7176-.2914.9913 0l5.0255 5.3506c.2738.2915.2738.764 0 1.0555l-2.9572 3.1485c-.2738.2915-.7176.2915-.9914 0l-5.0255-5.3506zm1.4871-.5277l4.0341 4.295 1.9659-2.093-4.0342-4.295-1.9658 2.093z" fill="#45413C"/>
  <path opacity=".15" d="M20.0863 111.162c0 .753 1.872 1.474 5.2043 2.007 3.3322.532 7.8517.831 12.5642.831 4.7125 0 9.232-.299 12.5642-.831 3.3322-.533 5.2043-1.254 5.2043-2.007 0-.753-1.8721-1.475-5.2043-2.007s-7.8517-.831-12.5642-.831c-4.7125 0-9.232.299-12.5642.831-3.3323.532-5.2043 1.254-5.2043 2.007z" fill="#45413C"/>
  <path d="M28.0822 75.2172l3.5542 34.9988h12.4371l3.5542-34.9988H28.0822z" fill="#FFE9BD"/>
  <path fill-rule="evenodd" clip-rule="evenodd" d="M27.559 74.7203c.1335-.1569.3238-.2465.5235-.2465h19.5456c.1997 0 .39.0896.5235.2465.1335.157.1975.3664.1762.5762l-3.5542 34.9985c-.0383.378-.3401.664-.6997.664H31.6367c-.3596 0-.6614-.286-.6998-.664l-3.5542-34.9985c-.0213-.2098.0428-.4192.1763-.5762zm1.3068 1.2404l3.4032 33.5113h11.1726l3.4032-33.5113h-17.979z" fill="#45413C"/>
  <path fill-rule="evenodd" clip-rule="evenodd" d="M37.855 82.0405c.3887 0 .7038.3329.7038.7435v27.432c0 .41-.3151.743-.7038.743s-.7038-.333-.7038-.743V82.784c0-.4106.3151-.7435.7038-.7435z" fill="#45413C"/>
  <path fill-rule="evenodd" clip-rule="evenodd" d="M27.559 74.7203c.1335-.1569.3238-.2465.5235-.2465h19.5456c.1997 0 .39.0896.5235.2465.1335.157.1975.3664.1762.5762l-3.5542 34.9985c-.0383.378-.3401.664-.6997.664H31.6367c-.3596 0-.6614-.286-.6998-.664l-3.5542-34.9985c-.0213-.2098.0428-.4192.1763-.5762zm1.3068 1.2404l3.4032 33.5113h11.1726l3.4032-33.5113h-17.979z" fill="#45413C"/>
  <path d="M47.1526 110.216c.3122 0 .6189-.088.8892-.255.2703-.166.4947-.405.6507-.693.1559-.288.238-.615.2379-.947a1.9894 1.9894 0 00-.2384-.947c-.4674-.864-1.1404-1.582-1.9511-2.081-.8108-.499-1.7307-.761-2.6671-.761h-.8898a5.044 5.044 0 00-2.0412.433c-.647.286-1.2348.705-1.7297 1.233-.4949.528-.8872 1.154-1.1545 1.844a5.9948 5.9948 0 00-.4034 2.174h9.2974z" fill="#525252"/>
  <path fill-rule="evenodd" clip-rule="evenodd" d="M43.1838 103.788h.8898c1.0611 0 2.1033.298 3.0213.863.9179.565 1.6792 1.377 2.2077 2.353.2171.401.3313.855.3314 1.316.0001.462-.1139.916-.3309 1.317-.2171.401-.5297.734-.9071.967-.3774.232-.8061.355-1.2429.355H37.855c-.3883 0-.7032-.332-.7037-.742a6.7732 6.7732 0 01.4559-2.457c.3021-.779.7457-1.488 1.3057-2.085.5599-.597 1.2253-1.072 1.9581-1.396a5.7489 5.7489 0 012.3128-.491zm0 1.487c-.0001 0 .0001 0 0 0-.6072 0-1.2085.128-1.7696.376-.5612.248-1.0714.612-1.5012 1.07-.4298.459-.7709 1.003-1.0033 1.603a5.1826 5.1826 0 00-.2992 1.148h8.5412c.0001 0-.0002 0 0 0 .1875 0 .3724-.053.5355-.153.1631-.1.2993-.245.3942-.421.0949-.175.1451-.374.145-.577 0-.203-.0503-.402-.1453-.578-.4063-.751-.9912-1.374-1.6947-1.807-.7034-.433-1.5011-.661-2.3128-.661m0 0h-.8898.8898z" fill="#45413C"/>
  <path d="M37.8549 110.216c0-1.505-.5615-2.949-1.561-4.013-.9996-1.065-2.3553-1.663-3.769-1.663h-.8899c-.9364 0-1.8563.263-2.667.762-.8107.498-1.4837 1.216-1.9511 2.08a1.9895 1.9895 0 00-.2385.947c0 .332.082.659.238.947.156.288.3804.527.6507.693.2703.167.5769.255.8892.255l9.2986-.008z" fill="#525252"/>
  <path fill-rule="evenodd" clip-rule="evenodd" d="M28.6136 104.659c.918-.565 1.9601-.863 3.0213-.863h.8898c1.6022.001 3.1376.679 4.2686 1.883 1.1309 1.205 1.7652 2.837 1.7652 4.537 0 .41-.3147.743-.7032.743l-9.2986.009h-.0013c-.4368-.001-.8655-.124-1.2429-.356-.3774-.233-.69-.566-.9071-.967a2.768 2.768 0 01-.3309-1.316c.0001-.462.1143-.916.3313-1.316.5286-.977 1.2898-1.789 2.2078-2.354zm3.0213.624c-.8117 0-1.6094.228-2.3128.661-.7034.433-1.288 1.056-1.6944 1.807-.095.175-.1456.375-.1456.578-.0001.203.0501.402.145.578.0949.175.2311.32.3942.42.163.101.3475.153.535.154.0002 0-.0001 0 0 0l8.5419-.008c-.1478-1.034-.6018-1.999-1.3041-2.747-.868-.924-2.0441-1.442-3.2694-1.443m-.8898 0zm.8898 0h-.8898.8898zM28.0825 52.718c.3887 0 .7038.3329.7038.7435v21.7557c0 .4106-.3151.7435-.7038.7435s-.7038-.3329-.7038-.7435V53.4615c0-.4106.3151-.7435.7038-.7435zM47.6276 52.718c.3887 0 .7038.3329.7038.7435v21.7557c0 .4106-.3151.7435-.7038.7435s-.7038-.3329-.7038-.7435V53.4615c0-.4106.3151-.7435.7038-.7435z" fill="#45413C"/>
  <path d="M53.0013 100.057c.243-.029.4779-.1107.6898-.2407a1.822 1.822 0 00.5419-.5144 1.954 1.954 0 00.3039-.7021 2.0137 2.0137 0 00.0152-.7728c-.3057-1.6226-.8428-3.1858-1.5928-4.6353H22.7511c-.7501 1.4504-1.2873 3.0145-1.5927 4.638a2.0137 2.0137 0 00.0152.7728c.0549.2538.1583.4928.3039.7021.1455.2093.33.3844.5419.5144.2119.13.4467.212.6898.241a131.668 131.668 0 0015.146.697c5.0569.058 10.113-.176 15.1461-.7z" fill="#525252"/>
  <path fill-rule="evenodd" clip-rule="evenodd" d="M22.1334 92.8351c.1234-.2386.3602-.387.6176-.387h30.2082c.2573 0 .4941.1484.6175.3869.7843 1.5159 1.3459 3.1504 1.6655 4.8468l.0018.0098a2.7995 2.7995 0 01-.0212 1.0738 2.7178 2.7178 0 01-.4227.9765c-.2027.2911-.4599.5361-.7558.7171a2.3825 2.3825 0 01-.964.337l-.0101.001a132.419 132.419 0 01-15.2151.704 132.642 132.642 0 01-15.215-.701l-.0102-.001a2.3984 2.3984 0 01-.9641-.337 2.5487 2.5487 0 01-.7557-.7174 2.7178 2.7178 0 01-.4227-.9765 2.7995 2.7995 0 01-.0212-1.0738l.0017-.0096c.3194-1.6974.881-3.3329 1.6655-4.8496zm1.0417 1.0999c-.6146 1.2723-1.0609 2.6299-1.3256 4.0342a1.2302 1.2302 0 00.01.4676c.0335.1549.0966.3004.185.4276.0884.1271.2002.2331.3281.3116.1267.0776.2665.1268.4111.1447a131.1182 131.1182 0 0015.0636.6933h.0154c5.0293.057 10.0579-.175 15.0637-.696a1.0281 1.0281 0 00.4111-.1447 1.1038 1.1038 0 00.3282-.3116 1.192 1.192 0 00.185-.4276 1.2307 1.2307 0 00.01-.4673c-.2649-1.4035-.7112-2.7603-1.3256-4.0318h-29.36z" fill="#45413C"/>
  <path d="M54.6989 93.3487c-.5416-12.9926-7.0716-18.1355-7.0716-18.1355V43.7685c-2.7991-2.3015-6.236-3.55-9.7728-3.55-3.5367 0-6.9736 1.2485-9.7728 3.55v31.4488s-6.53 5.1348-7.0715 18.1354c-.019.4785.1329.9469.4251 1.3109.2922.3641.703.5969 1.1499.6515 5.0736.5368 10.171.7767 15.2693.7187a130.9518 130.9518 0 0015.2694-.716c.448-.0547.8598-.2884 1.1521-.6539.2924-.3656.4435-.8356.4229-1.3152z" fill="#656769"/>
  <path fill-rule="evenodd" clip-rule="evenodd" d="M27.6498 43.1818c2.9223-2.4029 6.5113-3.7068 10.2051-3.7068 3.6938 0 7.2827 1.3039 10.205 3.7068.1713.1408.2715.3573.2715.5867V74.862l.0413.038c.1943.1795.4666.4463.7922.8057.6512.7188 1.5157 1.8086 2.3943 3.3125 1.7599 3.0119 3.5668 7.6681 3.8431 14.2977.0284.6656-.1814 1.3188-.5883 1.8277-.4074.5093-.9822.8361-1.609.9127l-.0108.0013v-.0001a131.6243 131.6243 0 01-15.3394.7197 131.6256 131.6256 0 01-15.3394-.7224l-.0108-.0011v-.0001c-.6252-.0765-1.1987-.402-1.6058-.9093-.407-.5071-.6178-1.1584-.5914-1.8228V93.32c.2764-6.6336 2.0832-11.2899 3.8432-14.3009.8787-1.5034 1.7432-2.5925 2.3945-3.3107.3256-.3591.5979-.6256.7923-.805l.0409-.0376V43.7685c0-.2294.1002-.4459.2715-.5867zm.8525 32.6318l-.0083.0067a2.8895 2.8895 0 00-.0441.0369 6.2819 6.2819 0 00-.1864.1659c-.1649.1522-.4069.3884-.702.7138-.59.6508-1.3918 1.658-2.2133 3.0634-1.6404 2.8064-3.3692 7.2176-3.6345 13.5842-.0115.2922.0814.5774.2587.7983.1763.2196.4226.3592.6893.3931a130.2865 130.2865 0 0015.1856.7144h.0153a130.2852 130.2852 0 0015.1856-.7117c.2674-.0339.5143-.1742.6906-.3946.1775-.222.27-.5085.2574-.8016l-.0001-.0011c-.2652-6.363-1.9941-10.7745-3.6346-13.5822-.8215-1.4059-1.6234-2.4139-2.2135-3.0654-.2951-.3257-.5372-.5622-.7021-.7147a6.0872 6.0872 0 00-.1864-.1661 4.8769 4.8769 0 00-.0441-.037l-.0084-.0067-.0004-.0004-.0002-.0001c-.1778-.1403-.2825-.3611-.2825-.5956V44.137c-2.6251-2.0609-5.8028-3.1751-9.069-3.1751-3.2662 0-6.4439 1.1142-9.0691 3.1751v31.0802c0 .2344-.1046.455-.2822.5953l-.0005.0005-.0002.0001-.0001.0001-.0005.0004zm9.3525 20.9636l-.0076-.0001.0077-.7434.0076.7434-.0077.0001z" fill="#45413C"/>
  <path d="M42.3906 40.9156c-.2634-.0824-.4946-.2534-.6591-.4873-.1645-.234-.2535-.5184-.2536-.8106v-3.3469h-7.2038v3.3469c-.0001.2922-.089.5766-.2536.8106-.1645.2339-.3957.4049-.6591.4873-1.3599.4272-2.66 1.0462-3.8656 1.8406 2.0339 3.7205 5.658 7.8497 8.3808 7.8497 2.7229 0 6.3407-4.1279 8.3796-7.8497-1.2055-.7946-2.5056-1.4136-3.8656-1.8406z" fill="#FFE9BD"/>
  <path fill-rule="evenodd" clip-rule="evenodd" d="M33.5708 36.2707c0-.4106.3151-.7435.7038-.7435h7.2037c.3887 0 .7038.3329.7038.7435v3.3466c0 .1331.0406.2621.1148.3675.0741.1054.1774.1814.294.2179 1.4207.446 2.7792 1.0928 4.0383 1.9227.322.2122.4267.6561.2366 1.0031-1.0489 1.9146-2.5038 3.9357-4.0591 5.4885-.778.7767-1.5959 1.451-2.415 1.9346-.8141.4807-1.6711.7976-2.5146.7976-.8435 0-1.7009-.317-2.5155-.7977-.8196-.4837-1.638-1.158-2.4166-1.9349-1.5563-1.5529-3.0116-3.5742-4.0582-5.4887-.1897-.347-.0849-.7905.237-1.0026 1.2591-.8296 2.617-1.4762 4.0375-1.9224a.5705.5705 0 00.2947-.2181.64.64 0 00.1148-.3675v-3.3466zm8.6197 5.3574c-.4099-.1284-.7687-.3942-1.0235-.7566-.2549-.3624-.3923-.8022-.3925-1.2536v-2.6038h-5.7962v2.6035c-.0001.4514-.1375.8915-.3924 1.2539-.2549.3624-.6138.6283-1.0238.7567m8.6284-.0001a14.682 14.682 0 013.0984 1.3861c-.9503 1.6112-2.1721 3.2473-3.449 4.5221-.7216.7204-1.4462 1.3108-2.1349 1.7174-.6937.4096-1.31.6086-1.8279.6086-.518 0-1.1346-.1991-1.829-.6089-.6893-.4068-1.4145-.9973-2.1366-1.7177-1.2776-1.2749-2.4996-2.9108-3.4479-4.5211a14.6992 14.6992 0 013.0985-1.3864" fill="#45413C"/>
  <path d="M34.2965 65.7584h1.7797c.8246 0 1.6155.3488 2.1986.9696s.9107 1.4628.9107 2.3408c0 .878-.3276 1.72-.9107 2.3408-.5831.6208-1.374.9696-2.1986.9696h-1.7797v-6.6208z" fill="#FFE9BD"/>
  <path fill-rule="evenodd" clip-rule="evenodd" d="M33.5926 65.7583c0-.4106.3151-.7434.7038-.7434h1.7796c1.0131 0 1.9835.4285 2.6982 1.1894.7145.7607 1.1149 1.7912 1.1149 2.8644 0 1.0733-.4004 2.1038-1.1149 2.8645-.7147.7609-1.6851 1.1894-2.6982 1.1894h-1.7796c-.3887 0-.7038-.3329-.7038-.7435v-6.6208zm1.4075.7435v5.1339h1.0759c.6362 0 1.2475-.269 1.699-.7498.4518-.481.7065-1.1345.7065-1.8172 0-.6826-.2547-1.3362-.7065-1.8171-.4515-.4808-1.0628-.7498-1.699-.7498h-1.0759z" fill="#45413C"/>
  <path d="M41.4144 65.7584h-1.7797c-.8246 0-1.6154.3488-2.1986.9696-.5831.6208-.9106 1.4628-.9106 2.3408 0 .878.3275 1.72.9106 2.3408.5832.6208 1.374.9696 2.1986.9696h1.7797v-6.6208z" fill="#FFE9BD"/>
  <path fill-rule="evenodd" clip-rule="evenodd" d="M36.9369 66.2043c.7147-.7609 1.6851-1.1894 2.6982-1.1894h1.7796c.3887 0 .7038.3328.7038.7434v6.6208c0 .4106-.3151.7435-.7038.7435h-1.7796c-1.0131 0-1.9835-.4285-2.6982-1.1894-.7145-.7607-1.1149-1.7912-1.1149-2.8645 0-1.0732.4004-2.1037 1.1149-2.8644zm2.6982.2975c-.6362 0-1.2475.269-1.699.7498-.4518.4809-.7065 1.1345-.7065 1.8171 0 .6827.2547 1.3362.7065 1.8172.4515.4808 1.0628.7498 1.699.7498h1.0759v-5.1339h-1.0759z" fill="#45413C"/>
  <path d="M43.8815 75.5975a6.5689 6.5689 0 001.2902-.7769c1.3063-1.0107 2.1895-2.5252 2.461-4.2199 1.8902-1.1626 3.4595-2.8346 4.5502-4.8478 1.0908-2.0132 1.6644-4.2967 1.6633-6.6208v-1.8948c.0016-2.9041-.6949-5.7603-2.0232-8.2968-1.3284-2.5365-3.2444-4.6688-5.5657-6.1939-2.5894 5.8196-4.8482 12.1074-4.8482 16.376a30.8723 30.8723 0 00.7474 6.5734 5.6818 5.6818 0 01-.7474.0488v8.1027a1.9915 1.9915 0 00.2101.8978c.1386.2761.3393.5114.5843.6848.2449.1733.5264.2793.8192.3086a1.6837 1.6837 0 00.8588-.1412z" fill="#525252"/>
  <path fill-rule="evenodd" clip-rule="evenodd" d="M46.0576 42.0337a.6717.6717 0 01.5713.0816c2.4236 1.5924 4.4234 3.8183 5.8097 6.4654 1.3863 2.6469 2.1129 5.6272 2.1113 8.6571v1.894c.001 2.4534-.6045 4.8645-1.7563 6.9904-1.0982 2.027-2.6562 3.7271-4.5301 4.9459a7.8002 7.8002 0 00.063-.3433l-.6939-.124.3541.6424c.093-.0572.1853-.1156.2768-.1751-.3608 1.7451-1.3102 3.2955-2.6761 4.3523l-.0013.001a7.259 7.259 0 01-1.4267.859l-.278-.6829-.2758-.684-.001.0004a5.8735 5.8735 0 001.1517-.6935c1.1574-.8958 1.9413-2.239 2.1824-3.7437.0348-.2175.1593-.4074.3398-.5184 1.7829-1.0967 3.2639-2.6743 4.2935-4.5747 1.0296-1.9004 1.5713-4.0564 1.5703-6.2511v-1.8951c.0016-2.7783-.6648-5.511-1.9353-7.9369-1.1411-2.179-2.7353-4.0455-4.6559-5.4594.1135-.2601.2279-.5196.343-.7782l-.6369-.3163-.3717.6313c.2259.1485.4479.303.6656.4632-1.1567 2.6504-2.2229 5.3638-3.021 7.9089-.8798 2.8056-1.417 5.3548-1.4174 7.3703v-.0024l-.7037.0047h.7037v-.0023a30.0912 30.0912 0 00.7284 6.4043.7771.7771 0 01-.1067.5955c-.114.1735-.2926.2876-.491.3137a6.3805 6.3805 0 01-.1307.0158v-.7048h-.1509l.1946-.0487-.0871-.7378a5.006 5.006 0 01-.6598.043.6679.6679 0 00-.1176.0104 31.6721 31.6721 0 01-.5867-5.8843l-.0001-.0048c0-2.2527.5922-4.9808 1.4889-7.8401.9003-2.8711 2.1248-5.927 3.4263-8.8521.0854-.1922.2446-.3365.4373-.3967zm-5.3525 31.813c-.0008.4346.0994.863.2921 1.2469.1929.3842.4725.7122.8144.9541.3419.242.7352.3903 1.1448.4311a2.3522 2.3522 0 001.2007-.1973l-.2757-.684-.2781-.683.0013-.0006a1.0122 1.0122 0 01-.5159.0846 1.031 1.031 0 01-.4937-.186 1.1273 1.1273 0 01-.3542-.4155 1.2154 1.2154 0 01-.1281-.5476v-7.3998a6.3512 6.3512 0 01-.7043.0386l.0005-.7434h.0354a31.5526 31.5526 0 01-.1524-.7331m-.5868 8.835v-8.1019c0-.1973.0743-.3865.2064-.5259a.6918.6918 0 01.3804-.2072m-.5868 8.835c0-.0003 0 .0003 0 0z" fill="#45413C"/>
  <path fill-rule="evenodd" clip-rule="evenodd" d="M47.6328 53.6641c.3887 0 .7038.3328.7038.7434v4.7286c0 .0001 0 0 0 0 .0001.9664-.1785 1.9236-.5258 2.8167-.3474.8933-.8567 1.7053-1.4993 2.3895-.6426.6843-1.4057 1.2274-2.2461 1.598-.8403.3707-1.7412.5615-2.6512.5615-.3887 0-.7038-.3328-.7038-.7434 0-.4106.3151-.7434.7038-.7434a5.2201 5.2201 0 002.1089-.4468c.6688-.2949 1.2768-.7274 1.7891-1.273.5124-.5457.9191-1.1937 1.1966-1.9074a6.2113 6.2113 0 00.4202-2.2514v-4.7289c0-.4106.3151-.7434.7038-.7434z" fill="#45413C"/>
  <path d="M45.1703 74.8261c1.3716 3.2617 2.7356 5.9982 3.3457 7.9579.7627 2.4618 3.2199 3.9032 5.3568 4.7193l-.1056-.923c-1.9398-8.0324-6.1397-11.3685-6.1397-11.3685V70.6049c-.2702 1.6946-1.152 3.2095-2.4572 4.2212z" fill="#525252"/>
  <path fill-rule="evenodd" clip-rule="evenodd" d="M47.6866 69.8639c.3646.0323.6451.3543.6451.7409v4.2575c.1239.114.2848.2683.4749.4648.4481.463 1.0585 1.1603 1.7287 2.1134 1.3414 1.9076 2.9195 4.8367 3.9143 8.956a.7553.7553 0 01.0168.0946l.1055.923c.0293.2563-.0693.5102-.2605.6709-.1912.1607-.4477.2052-.6775.1174-2.1588-.8245-4.9127-2.3684-5.7861-5.1866-.2905-.9329-.7672-2.0702-1.3567-3.409-.1664-.3778-.3416-.7711-.5229-1.1784-.4545-1.0209-.9481-2.1293-1.4406-3.3005l.6432-.3019-.4164-.5994c1.1567-.8966 1.9396-2.2404 2.1795-3.7453.0608-.3812.388-.6496.7527-.6174zm-1.6512 5.1828c.4107.9616.8164 1.8726 1.1999 2.7339.1829.411.3609.8106.532 1.199.5877 1.3346 1.098 2.5454 1.4177 3.5721l.0003.001c.5346 1.7256 2.0826 2.9362 3.7882 3.7614-.948-3.6753-2.3727-6.2869-3.5681-7.9869-.6222-.8849-1.183-1.5238-1.5831-1.9373a9.5937 9.5937 0 00-.4669-.4535 5.0189 5.0189 0 00-.1195-.1047l-.0271-.0226-.0038-.0031c-.1765-.1405-.2808-.3608-.2808-.5943v-1.1506a7.1547 7.1547 0 01-.8888.9856z" fill="#45413C"/>
  <path d="M31.8282 75.5975a6.5689 6.5689 0 01-1.2902-.7769c-1.3063-1.0107-2.1895-2.5252-2.461-4.2199-1.8902-1.1626-3.4595-2.8346-4.5502-4.8478-1.0908-2.0132-1.6644-4.2967-1.6633-6.6208v-1.8948c-.0016-2.9041.6949-5.7603 2.0233-8.2968 1.3283-2.5365 3.2443-4.6688 5.5656-6.1939 2.5894 5.8196 4.8482 12.1074 4.8482 16.376a30.8723 30.8723 0 01-.7474 6.5734c.248.0327.4976.049.7474.0488v8.1027a1.9927 1.9927 0 01-.21.8978c-.1387.2761-.3394.5114-.5844.6848a1.7129 1.7129 0 01-.8192.3086 1.6837 1.6837 0 01-.8588-.1412z" fill="#525252"/>
  <path fill-rule="evenodd" clip-rule="evenodd" d="M29.6523 42.0337c.1927.0602.3519.2045.4373.3967 1.3015 2.9251 2.526 5.981 3.4263 8.8521.8967 2.8593 1.4888 5.5874 1.4888 7.8402v.0047a31.6721 31.6721 0 01-.5867 5.8843.6918.6918 0 01.3804.2072c.1321.1394.2063.3286.2063.5259v8.1018M21.16 57.2376v-.0002c-.0016-3.0298.7251-6.0099 2.1113-8.6567 1.3862-2.6471 3.3861-4.873 5.8097-6.4654a.6717.6717 0 01.5713-.0816" fill="#45413C"/>
  <path fill-rule="evenodd" clip-rule="evenodd" d="M28.0772 53.6641c.3887 0 .7037.3328.7037.7434v4.7288a6.214 6.214 0 00.4203 2.2515c.2775.7137.6842 1.3617 1.1965 1.9074.5124.5456 1.1204.9781 1.7892 1.273a5.2201 5.2201 0 002.1089.4468c.3886 0 .7037.3328.7037.7434 0 .4106-.3151.7434-.7037.7434-.91 0-1.8109-.1908-2.6512-.5615-.8404-.3706-1.6036-.9137-2.2461-1.598-.6426-.6842-1.1519-1.4962-1.4993-2.3895a7.774 7.774 0 01-.5258-2.8165c0-.0001 0 0 0 0v-4.7288c0-.4106.3151-.7434.7038-.7434z" fill="#45413C"/>
  <path d="M30.5394 74.8261c-1.3716 3.2617-2.7356 5.9982-3.3458 7.9579-.7627 2.4618-3.2198 3.9032-5.3567 4.7193l.1055-.923c1.9398-8.0324 6.1398-11.3685 6.1398-11.3685V70.6049c.2701 1.6946 1.152 3.2095 2.4572 4.2212z" fill="#525252"/>
  <path fill-rule="evenodd" clip-rule="evenodd" d="M28.0234 69.8639c.3647-.0322.6919.2362.7527.6174.2399 1.5049 1.0228 2.8487 2.1795 3.7453l-.4164.5994.6432.3019c-.4925 1.1712-.9861 2.2796-1.4406 3.3005-.1814.4073-.3565.8006-.5229 1.1784-.5895 1.3387-1.0662 2.4759-1.3567 3.4088-.8733 2.8183-3.6272 4.3623-5.7861 5.1868-.2298.0878-.4863.0433-.6775-.1174-.1912-.1607-.2898-.4146-.2605-.6709l.1055-.923a.7553.7553 0 01.0168-.0946c.9948-4.1193 2.5729-7.0484 3.9142-8.956.6703-.9531 1.2807-1.6504 1.7287-2.1134.1901-.1965.3511-.3508.475-.4648v-4.2575c0-.3866.2804-.7086.6451-.7409zm.4824 5.9414l-.0046.0038c-.0052.0043-.0144.0118-.0272.0226a5.0639 5.0639 0 00-.1194.1047 9.5937 9.5937 0 00-.4669.4535c-.4001.4135-.9609 1.0524-1.5831 1.9373-1.1954 1.7-2.6201 4.3116-3.5681 7.9869 1.7056-.8252 3.2535-2.0358 3.7881-3.7614l.0004-.001c.3196-1.0267.83-2.2375 1.4177-3.5721.1711-.3884.349-.788.532-1.199.3835-.8613.7891-1.7723 1.1999-2.7339a7.1547 7.1547 0 01-.8888-.9856v1.1506c0 .2332-.1039.4531-.28.5936z" fill="#45413C"/>
  <path d="M50.294 27.5143c-.0048-.539-.1847-1.0595-.5091-1.4733-.3244-.4137-.7734-.6951-1.2706-.7964v-.5684c0-3.0104-1.1232-5.8976-3.1226-8.0263-1.9994-2.1287-4.7111-3.3246-7.5387-3.3246-2.8276 0-5.5393 1.1959-7.5387 3.3246-1.9994 2.1287-3.1226 5.0159-3.1226 8.0263v.5684c-.5181.1034-.9832.4034-1.3092.8444-.3259.4409-.4905.9928-.4632 1.5531.0273.5604.2447 1.0912.6118 1.4938.3671.4026.859.6497 1.3843.6954.5005 2.5529 1.8115 4.8445 3.7123 6.4895 1.9009 1.6449 4.2757 2.5429 6.7253 2.5429s4.8244-.898 6.7253-2.5429c1.9008-1.645 3.2118-3.9366 3.7123-6.4895.5448-.0519 1.0518-.3179 1.4223-.7463.3704-.4285.5776-.9884.5811-1.5707z" fill="#FFE9BD"/>
  <path fill-rule="evenodd" clip-rule="evenodd" d="M29.8146 16.1262c2.1309-2.2688 5.0222-3.5444 8.0382-3.5444s5.9074 1.2756 8.0383 3.5444c2.1308 2.2686 3.3269 5.3442 3.3269 8.5499v.021c.4277.1898.8088.4871 1.1087.8696.4279.5457.6646 1.2314.6709 1.9405l-.7038.007.7038.0047c-.0046.7655-.277 1.5026-.7653 2.0674-.3683.426-.8398.7309-1.3585.8845-.598 2.522-1.9458 4.7774-3.8497 6.425-2.0262 1.7535-4.5585 2.7113-7.1713 2.7113-2.6127 0-5.145-.9578-7.1712-2.7113-1.9031-1.6469-3.2506-3.9011-3.8489-6.4219-.4949-.1438-.9476-.4265-1.3086-.8224-.4852-.5321-.7717-1.2327-.8078-1.9712-.036-.7385.1808-1.4666.6114-2.049.3066-.4148.707-.7358 1.16-.9358v-.0194c0-3.2057 1.1961-6.2813 3.3269-8.5499zM49.59 27.5153c-.0045-.3667-.1275-.7198-.3472-1.0001-.2209-.2816-.5256-.4722-.8618-.5406-.3313-.0675-.5706-.3737-.5706-.7301v-.5684c0-2.8151-1.0504-5.5138-2.9184-7.5026-1.8679-1.9887-4.4-3.1048-7.0392-3.1048-2.6391 0-5.1712 1.1161-7.0391 3.1048-1.868 1.9888-2.9184 4.6875-2.9184 7.5026v.5684c0 .3574-.2407.6642-.5731.7306-.3492.0697-.6639.2721-.8852.5714-.2213.2994-.3336.6751-.315 1.0573.0186.3822.1669.7432.4159 1.0162.2488.2729.5812.4395.9351.4703.311.027.5681.2673.6314.5901.468 2.3871 1.6935 4.5286 3.4691 6.0652 1.7755 1.5365 3.9929 2.3746 6.2793 2.3746s4.5038-.8381 6.2793-2.3746c1.7757-1.5366 3.0012-3.6781 3.4692-6.0652.0629-.3208.3172-.5603.626-.5897.3689-.035.7134-.2153.9658-.5072.2513-.2907.3932-.6712.3969-1.0682z" fill="#45413C"/>
  <path d="M48.3678 22.7855c-.4195-2.6454-1.7055-5.0472-3.6299-6.7792-1.9244-1.732-4.3629-2.6823-6.8828-2.6823-2.5198 0-4.9583.9503-6.8827 2.6823-1.9244 1.732-3.2104 4.1338-3.6299 6.7792h21.0253z" fill="#00DBA8"/>
  <path fill-rule="evenodd" clip-rule="evenodd" d="M30.5163 15.4404c2.0513-1.8462 4.6514-2.8598 7.3392-2.8598s5.2879 1.0136 7.3392 2.8598c2.0511 1.8461 3.4208 4.4051 3.8675 7.2223.0342.2157-.0232.4363-.1569.6032-.1337.1668-.3302.2631-.5372.2631H27.3429c-.207 0-.4035-.0963-.5372-.2631-.1337-.1669-.1911-.3875-.1569-.6032.4467-2.8172 1.8164-5.3762 3.8675-7.2223zm7.3392-1.3729c-2.352 0-4.6288.8869-6.4264 2.5047-1.5853 1.4269-2.7076 3.3411-3.2196 5.4699h19.292c-.512-2.1288-1.6343-4.043-3.2197-5.4699-1.7975-1.6178-4.0743-2.5047-6.4263-2.5047z" fill="#45413C"/>
  <path d="M30.7474 28.9326c0 .3762.1404.737.3902 1.003.2499.266.5887.4154.942.4154.3533 0 .6922-.1494.942-.4154.2499-.266.3902-.6268.3902-1.003 0-.3761-.1403-.7369-.3902-1.0029-.2498-.266-.5887-.4154-.942-.4154-.3533 0-.6921.1494-.942.4154-.2498.266-.3902.6268-.3902 1.0029zM42.2982 28.9326c0 .3762.1403.737.3901 1.003.2499.266.5887.4154.942.4154.3534 0 .6922-.1494.9421-.4154.2498-.266.3901-.6268.3901-1.003 0-.3761-.1403-.7369-.3901-1.0029-.2499-.266-.5887-.4154-.9421-.4154-.3533 0-.6921.1494-.942.4154-.2498.266-.3901.6268-.3901 1.0029z" fill="#FFDA8F"/>
  <path fill-rule="evenodd" clip-rule="evenodd" d="M34.6011 31.9166c.2167-.3409.6539-.4318.9766-.203.6739.4779 1.4648.7325 2.2734.7325s1.5996-.2546 2.2734-.7325c.3228-.2288.76-.1379.9766.203.2166.3409.1306.8028-.1921 1.0316-.9052.6419-1.9692.9848-3.0579.9848s-2.1526-.3429-3.0579-.9848c-.3227-.2288-.4087-.6907-.1921-1.0316zM40.2688 17.3559c.3622-.1491.7702.0401.9113.4227.5874 1.5919.9048 3.282.9377 4.9917.0079.4105-.3007.7501-.6893.7584-.3886.0084-.71-.3176-.7179-.7281-.0296-1.5354-.3147-3.0529-.8419-4.482-.1412-.3826.038-.8136.4001-.9627zM35.4418 17.3559c.3621.1491.5413.5801.4001.9627-.5273 1.4291-.8124 2.9466-.8419 4.482-.0079.4105-.3293.7365-.7179.7281-.3886-.0083-.6973-.3479-.6894-.7584.0329-1.7097.3504-3.3998.9378-4.9917.1411-.3826.5491-.5718.9113-.4227zM40.0181 25.0486c.4154-.4411.9795-.6897 1.5685-.6897.5891 0 1.1532.2486 1.5686.6897.2742.2911.273.7618-.0025 1.0514-.2755.2896-.7211.2884-.9953-.0027-.1522-.1616-.3576-.2515-.5708-.2515-.2131 0-.4185.0899-.5708.2515-.2741.2911-.7197.2923-.9953.0027-.2755-.2896-.2766-.7603-.0024-1.0514zM32.5481 25.0486c.4152-.4411.9791-.6897 1.568-.6897.589 0 1.1529.2486 1.5681.6897.2741.2911.2729.7619-.0027 1.0514-.2756.2895-.7212.2882-.9953-.0029-.152-.1615-.3572-.2513-.5701-.2513-.2128 0-.418.0898-.57.2513-.2741.2911-.7197.2924-.9953.0029-.2756-.2895-.2768-.7603-.0027-1.0514z" fill="#45413C"/>
  <path d="M56.923 31.7815c0 4.6662 1.7411 9.1413 4.8402 12.4409 3.0991 3.2995 7.3023 5.1531 11.6851 5.1531 4.3828 0 8.5861-1.8536 11.6851-5.1531 3.0991-3.2996 4.8402-7.7747 4.8402-12.4409 0-4.6663-1.7411-9.1414-4.8402-12.4409-3.099-3.2996-7.3023-5.1532-11.6851-5.1532-4.3828 0-8.586 1.8536-11.6851 5.1532-3.0991 3.2995-4.8402 7.7746-4.8402 12.4409z" fill="#FFFCE5"/>
  <path d="M86.9924 21.719c.8703 3.9804.411 8.1593-1.2991 11.8182-1.7101 3.6589-4.564 6.5692-8.0711 8.2305-3.5071 1.6613-7.4483 1.9698-11.146.8725-3.6976-1.0973-6.9206-3.5319-9.1149-6.8852.5484 2.5265 1.6149 4.8926 3.123 6.9289 1.508 2.0362 3.4204 3.6921 5.6001 4.8492 2.1797 1.1571 4.5727 1.7866 7.0077 1.8435 2.435.0569 4.8517-.4602 7.077-1.5143 2.2252-1.0541 4.204-2.6191 5.7946-4.5828 1.5906-1.9638 2.7535-4.2778 3.4056-6.7763.6521-2.4984.7772-5.1195.3662-7.6754-.4109-2.556-1.3477-4.9835-2.7431-7.1088z" fill="#FFFACF"/>
  <path fill-rule="evenodd" clip-rule="evenodd" d="M61.2634 18.817c3.2307-3.4396 7.6135-5.373 12.1848-5.373 4.5712 0 8.954 1.9334 12.1847 5.373 3.2304 3.4394 5.0443 8.103 5.0443 12.9645 0 4.8615-1.8139 9.5251-5.0443 12.9645-3.2307 3.4396-7.6135 5.373-12.1847 5.373-4.5713 0-8.9541-1.9334-12.1848-5.373-3.2304-3.4394-5.0443-8.103-5.0443-12.9645 0-4.8615 1.8139-9.5251 5.0443-12.9645zm12.1848-3.8861c-4.1944 0-8.2181 1.7739-11.1856 4.9333-2.9677 3.1597-4.6359 7.4464-4.6359 11.9173 0 4.4709 1.6682 8.7576 4.6359 11.9173 2.9675 3.1594 6.9912 4.9333 11.1856 4.9333 4.1943 0 8.218-1.7739 11.1855-4.9333 2.9677-3.1597 4.636-7.4464 4.636-11.9173 0-4.4709-1.6683-8.7576-4.636-11.9173-2.9675-3.1594-6.9912-4.9333-11.1855-4.9333z" fill="#45413C"/>
  <path d="M72.1766 68.5491L70.2 69.9525a1.3273 1.3273 0 00-.4155.4876 1.4235 1.4235 0 00-.1502.6385v7.3949h2.5423v-9.9244z" fill="#525252"/>
  <path d="M72.1766 68.5491L70.2 69.9525a1.3273 1.3273 0 00-.4155.4876 1.4235 1.4235 0 00-.1502.6385v2.4889a1.4242 1.4242 0 01.1502-.6386 1.3278 1.3278 0 01.4155-.4875l1.9766-1.3967v-2.4956z" fill="#656769"/>
  <path d="M75.9901 66.293l-1.9068-4.0602-1.9067 4.0602v12.1805h3.8135V66.293z" fill="#525252"/>
  <path d="M74.0833 62.2328l-1.9067 4.0602v2.03l.75-1.5956c.1072-.2289.2723-.4214.4766-.556a1.2352 1.2352 0 01.6801-.2059c.2403 0 .4758.0713.6801.2059.2044.1346.3694.3271.4767.556l.75 1.5956v-2.03l-1.9068-4.0602z" fill="#656769"/>
  <path fill-rule="evenodd" clip-rule="evenodd" d="M74.0837 61.4894c.2673 0 .5116.16.6304.413l1.9068 4.0602a.7785.7785 0 01.0733.3304v12.1805c0 .4106-.3151.7435-.7038.7435h-3.8135c-.3887 0-.7038-.3329-.7038-.7435V66.293a.7771.7771 0 01.0734-.3304l1.9067-4.0602c.1188-.253.3631-.413.6305-.413zm-1.203 4.9779v11.2628h2.406V66.4673l-1.203-2.5616-1.203 2.5616z" fill="#45413C"/>
  <path d="M95.0579 66.293l-1.9068-4.0602-1.9067 4.0602v12.1805h3.8135V66.293z" fill="#525252"/>
  <path d="M93.1511 62.2328l-1.9067 4.0602v2.03l.75-1.5956c.1072-.2289.2723-.4214.4766-.556a1.2352 1.2352 0 01.6801-.2059c.2403 0 .4758.0713.6801.2059.2044.1346.3694.3271.4767.556l.75 1.5956v-2.03l-1.9068-4.0602z" fill="#656769"/>
  <path fill-rule="evenodd" clip-rule="evenodd" d="M93.1515 61.4894c.2673 0 .5116.16.6304.413l1.9068 4.0602a.7785.7785 0 01.0733.3304v12.1805c0 .4106-.3151.7435-.7038.7435h-3.8135c-.3887 0-.7037-.3329-.7037-.7435V66.293a.777.777 0 01.0733-.3304l1.9067-4.0602c.1189-.253.3631-.413.6305-.413zm-1.203 4.9779v11.2628h2.406V66.4673l-1.203-2.5616-1.203 2.5616z" fill="#45413C"/>
  <path d="M75.9904 66.293h15.2541v12.1805H75.9904V66.293z" fill="#525252"/>
  <path d="M75.9904 66.293h15.2541v2.0301H75.9904V66.293z" fill="#656769"/>
  <path fill-rule="evenodd" clip-rule="evenodd" d="M75.2869 66.293c0-.4106.3151-.7434.7038-.7434h15.2541c.3887 0 .7038.3328.7038.7434v12.1805c0 .4106-.3151.7435-.7038.7435H75.9907c-.3887 0-.7038-.3329-.7038-.7435V66.293zm1.4076.7435v10.6936H90.541V67.0365H76.6945z" fill="#45413C"/>
  <path d="M85.524 58.1726l-1.9067-5.4136-1.9068 5.4136v8.1203h3.8135v-8.1203z" fill="#525252"/>
  <path d="M83.6173 52.759l-1.9068 5.4136v1.3534l.5263-1.4887c.1054-.2991.2941-.5569.5408-.7388.2467-.1819.5396-.2794.8397-.2794.3001 0 .593.0975.8397.2794.2466.1819.4353.4397.5408.7388l.5262 1.4887v-1.3534l-1.9067-5.4136z" fill="#656769"/>
  <path fill-rule="evenodd" clip-rule="evenodd" d="M83.6176 52.0156c.294 0 .5571.1931.6596.4842l1.9068 5.4136a.7808.7808 0 01.0441.2592v8.1204c0 .4106-.315.7434-.7037.7434h-3.8136c-.3886 0-.7037-.3328-.7037-.7434v-8.1204a.7783.7783 0 01.0442-.2592l1.9067-5.4136c.1026-.2911.3656-.4842.6596-.4842zm-1.203 6.2909v7.243h2.406v-7.243l-1.203-3.4155-1.203 3.4155z" fill="#45413C"/>
  <path d="M85.524 75.7667c0-.5385-.2009-1.0548-.5584-1.4355-.3576-.3807-.8426-.5946-1.3483-.5946s-.9907.2139-1.3483.5946c-.3576.3807-.5585.897-.5585 1.4355v2.7067h3.8135v-2.7067z" fill="#FFE500"/>
  <path fill-rule="evenodd" clip-rule="evenodd" d="M81.7697 73.8076c.4892-.5208 1.1538-.8144 1.8479-.8144.6942 0 1.3587.2936 1.8479.8144.4889.5206.7626 1.2254.7626 1.9591v2.7068c0 .4106-.315.7434-.7037.7434h-3.8136c-.3886 0-.7037-.3328-.7037-.7434v-2.7068c0-.7337.2737-1.4385.7626-1.9591zm1.8479.6725c-.3173 0-.6227.1341-.8487.3747-.2262.2409-.3543.5688-.3543.9119V77.73h2.406v-1.9633c0-.3431-.1281-.671-.3543-.9119-.226-.2406-.5314-.3747-.8487-.3747zM78.5325 68.2563c.3887 0 .7038.3329.7038.7435v1.3534c0 .4106-.3151.7434-.7038.7434s-.7038-.3328-.7038-.7434v-1.3534c0-.4106.3151-.7435.7038-.7435zM81.0754 68.2563c.3886 0 .7037.3329.7037.7435v1.3534c0 .4106-.3151.7434-.7037.7434-.3887 0-.7038-.3328-.7038-.7434v-1.3534c0-.4106.3151-.7435.7038-.7435zM83.6172 68.2563c.3887 0 .7038.3329.7038.7435v1.3534c0 .4106-.3151.7434-.7038.7434s-.7037-.3328-.7037-.7434v-1.3534c0-.4106.315-.7435.7037-.7435zM86.1591 68.2563c.3887 0 .7038.3329.7038.7435v1.3534c0 .4106-.3151.7434-.7038.7434s-.7038-.3328-.7038-.7434v-1.3534c0-.4106.3151-.7435.7038-.7435zM88.7024 68.2563c.3887 0 .7038.3329.7038.7435v1.3534c0 .4106-.3151.7434-.7038.7434s-.7037-.3328-.7037-.7434v-1.3534c0-.4106.315-.7435.7037-.7435z" fill="#45413C"/>
  <path d="M82.3462 62.2328l-1.9067-4.0602-1.9068 4.0602v4.0601h3.8135v-4.0601z" fill="#525252"/>
  <path d="M80.4395 58.1726l-1.9068 4.0602v2.0301l.75-1.5957c.1073-.2289.2723-.4214.4767-.556a1.2354 1.2354 0 01.6801-.2058c.2402 0 .4758.0713.6801.2058.2043.1346.3694.3271.4767.556l.7499 1.5957v-2.0301l-1.9067-4.0602z" fill="#656769"/>
  <path fill-rule="evenodd" clip-rule="evenodd" d="M80.4393 57.4292c.2673 0 .5116.16.6304.413l1.9068 4.0602a.7785.7785 0 01.0733.3304v4.0602c0 .4106-.3151.7434-.7038.7434h-3.8135c-.3887 0-.7038-.3328-.7038-.7434v-4.0602a.7771.7771 0 01.0734-.3304l1.9067-4.0602c.1188-.253.3631-.413.6305-.413zm-1.203 4.9779v3.1424h2.406v-3.1424l-1.203-2.5616-1.203 2.5616z" fill="#45413C"/>
  <path d="M88.7018 62.2328l-1.9067-4.0602-1.9068 4.0602v4.0601h3.8135v-4.0601z" fill="#525252"/>
  <path d="M86.7951 58.1726l-1.9068 4.0602v2.0301l.75-1.5957c.1073-.2289.2723-.4214.4767-.556a1.2354 1.2354 0 01.6801-.2058c.2402 0 .4757.0713.6801.2058.2043.1346.3694.3271.4766.556l.75 1.5957v-2.0301l-1.9067-4.0602z" fill="#656769"/>
  <path fill-rule="evenodd" clip-rule="evenodd" d="M86.7949 57.4292c.2674 0 .5117.16.6305.413l1.9067 4.0602a.7771.7771 0 01.0734.3304v4.0602c0 .4106-.3151.7434-.7038.7434h-3.8135c-.3887 0-.7038-.3328-.7038-.7434v-4.0602a.7785.7785 0 01.0733-.3304l1.9068-4.0602c.1188-.253.3631-.413.6304-.413zm-1.203 4.9779v3.1424h2.406v-3.1424l-1.203-2.5616-1.203 2.5616zM72.5078 67.893c.2295.1291.3729.3814.3729.6561v9.9244c0 .4106-.3151.7435-.7038.7435h-2.5423c-.3887 0-.7038-.3329-.7038-.7435v-7.3948c0-.344.0797-.6832.2324-.9871.1527-.304.3739-.5638.6443-.756l1.9768-1.4035c.2158-.1532.494-.1683.7235-.0391zm-1.915 2.6766s.0001 0 0 0a.5954.5954 0 00-.1863.219.6462.6462 0 00-.0682.2899v6.6516h1.1348v-7.7855l-.8803.625z" fill="#45413C"/>
  <path d="M95.0577 68.5491l1.9767 1.4034a1.328 1.328 0 01.4154.4876c.0987.1964.1503.4157.1502.6385v7.3949h-2.5423v-9.9244z" fill="#525252"/>
  <path d="M95.0577 68.5491l1.9767 1.4034a1.328 1.328 0 01.4154.4876c.0987.1964.1503.4157.1502.6385v2.4889a1.4229 1.4229 0 00-.1502-.6386 1.3284 1.3284 0 00-.4154-.4875l-1.9767-1.3967v-2.4956z" fill="#656769"/>
  <path fill-rule="evenodd" clip-rule="evenodd" d="M94.7271 67.893c.2295-.1292.5077-.1141.7235.0391l1.9767 1.4034c.2704.1922.4917.4521.6445.7561a2.2 2.2 0 01.2323.987v7.3949c0 .4106-.3151.7435-.7037.7435H95.058c-.3887 0-.7038-.3329-.7038-.7435v-9.9244c0-.2747.1434-.527.3729-.6561zm1.0347 2.0516v7.7855h1.1348v-6.6515a.6478.6478 0 00-.0681-.29.5966.5966 0 00-.1864-.219l-.8803-.625z" fill="#45413C"/>
  <g filter="url(#filter0_d)">
    <rect x="65" y="2" width="48" height="48" rx="24" fill="#fff"/>
    <path d="M80.75 33.953c.748-.594 1.089-.869 1.023-.825 2.156-1.782 3.85-3.245 5.082-4.389 1.254-1.144 2.31-2.343 3.168-3.597.858-1.254 1.287-2.475 1.287-3.663 0-.902-.209-1.606-.627-2.112-.418-.506-1.045-.759-1.881-.759-.836 0-1.496.319-1.98.957-.462.616-.693 1.496-.693 2.64h-5.445c.044-1.87.44-3.432 1.188-4.686.77-1.254 1.771-2.178 3.003-2.772 1.254-.594 2.64-.891 4.158-.891 2.618 0 4.587.671 5.907 2.013 1.342 1.342 2.013 3.091 2.013 5.247 0 2.354-.803 4.543-2.409 6.567-1.606 2.002-3.652 3.96-6.138 5.874h8.91v4.587H80.75v-4.191z" fill="#604FCD"/>
  </g>
  <defs>
    <filter id="filter0_d" x="61" y="0" width="56" height="56" filterUnits="userSpaceOnUse" color-interpolation-filters="sRGB">
      <feFlood flood-opacity="0" result="BackgroundImageFix"/>
      <feColorMatrix in="SourceAlpha" values="0 0 0 0 0 0 0 0 0 0 0 0 0 0 0 0 0 0 127 0" result="hardAlpha"/>
      <feOffset dy="2"/>
      <feGaussianBlur stdDeviation="2"/>
      <feColorMatrix values="0 0 0 0 0.309804 0 0 0 0 0.448157 0 0 0 0 0.803922 0 0 0 0.15 0"/>
      <feBlend in2="BackgroundImageFix" result="effect1_dropShadow"/>
      <feBlend in="SourceGraphic" in2="effect1_dropShadow" result="shape"/>
    </filter>
  </defs>
</svg>
