<svg viewBox="0 0 160 160" height="160" width="160" xmlns="http://www.w3.org/2000/svg"><g transform="matrix(1.6,0,0,1.6,0,0)"><path d="M86.436,67.026a40,40,0,1,0-72.872,0Z" fill="#009fd9"></path><path d="M13.564,67.026a40,40,0,0,0,72.872,0Z" fill="#adc4d9"></path><path d="M11 67.026L89 67.026" fill="none" stroke="#45413c" stroke-linecap="round" stroke-linejoin="round"></path><path d="M6.5 67.026L9 67.026" fill="none" stroke="#45413c" stroke-linecap="round" stroke-linejoin="round"></path><path d="M91 67.026L93.5 67.026" fill="none" stroke="#45413c" stroke-linecap="round" stroke-linejoin="round"></path><path d="M64 77.526L71.157 77.526" fill="none" stroke="#8ca4b8" stroke-linecap="round"></path><path d="M59.825 77.526L61.614 77.526" fill="none" stroke="#8ca4b8" stroke-linecap="round"></path><path d="M56.843 77.526L57.44 77.526" fill="none" stroke="#8ca4b8" stroke-linecap="round"></path><path d="M34.157 74.026L41.313 74.026" fill="none" stroke="#8ca4b8" stroke-linecap="round"></path><path d="M29.982 74.026L31.771 74.026" fill="none" stroke="#8ca4b8" stroke-linecap="round"></path><path d="M27 74.026L27.596 74.026" fill="none" stroke="#8ca4b8" stroke-linecap="round"></path><path d="M45.343 85.026L52.5 85.026" fill="none" stroke="#8ca4b8" stroke-linecap="round"></path><path d="M41.169 85.026L42.958 85.026" fill="none" stroke="#8ca4b8" stroke-linecap="round"></path><path d="M38.187 85.026L38.783 85.026" fill="none" stroke="#8ca4b8" stroke-linecap="round"></path><path d="M64.5 67.026L64.5 56.026" fill="none" stroke="#45413c" stroke-linecap="round" stroke-linejoin="round"></path><path d="M78.5,55.026a1,1,0,0,1-1,1h-13v-9a1,1,0,0,1,1-1h12a1,1,0,0,1,1,1Z" fill="#ff6242"></path><path d="M64.5 48.026L78.5 48.026" fill="none" stroke="#fff" stroke-linecap="round" stroke-linejoin="round"></path><path d="M64.5 50.026L78.5 50.026" fill="none" stroke="#fff" stroke-linecap="round" stroke-linejoin="round"></path><path d="M64.5 52.026L78.5 52.026" fill="none" stroke="#fff" stroke-linecap="round" stroke-linejoin="round"></path><path d="M64.5 54.026L78.5 54.026" fill="none" stroke="#fff" stroke-linecap="round" stroke-linejoin="round"></path><path d="M78.5,55.026a1,1,0,0,1-1,1h-13v-9a1,1,0,0,1,1-1h12a1,1,0,0,1,1,1Z" fill="none" stroke="#45413c" stroke-linecap="round" stroke-linejoin="round"></path><path d="M71.5,50.026a1,1,0,0,1-1,1h-6v-4a1,1,0,0,1,1-1h6Z" fill="#00b8f0" stroke="#45413c" stroke-linecap="round" stroke-linejoin="round"></path><path d="M68.500 36.526 A4.500 4.500 0 1 0 77.500 36.526 A4.500 4.500 0 1 0 68.500 36.526 Z" fill="#80ddff"></path><path d="M68.500 36.526 A4.500 4.500 0 1 0 77.500 36.526 A4.500 4.500 0 1 0 68.500 36.526 Z" fill="none" stroke="#45413c" stroke-linecap="round" stroke-linejoin="round"></path><path d="M72.5,35.026h0a1,1,0,0,0-1-1H69.26a4.5,4.5,0,0,0,1.24,6.24v-3.24a1,1,0,0,1,1-1h0A1,1,0,0,0,72.5,35.026Z" fill="#6dd627"></path><path d="M72.5,35.026h0a1,1,0,0,0-1-1H69.26a4.5,4.5,0,0,0,1.24,6.24v-3.24a1,1,0,0,1,1-1h0A1,1,0,0,0,72.5,35.026Z" fill="none" stroke="#45413c" stroke-linecap="round" stroke-linejoin="round"></path><path d="M77.5,36.526a4.492,4.492,0,0,0-2-3.74v1.528a.712.712,0,0,1-.712.712h0a.712.712,0,0,0-.712.712v2.576a.712.712,0,0,0,.712.712H75.5v1.24A4.492,4.492,0,0,0,77.5,36.526Z" fill="#6dd627"></path><path d="M77.5,36.526a4.492,4.492,0,0,0-2-3.74v1.528a.712.712,0,0,1-.712.712h0a.712.712,0,0,0-.712.712v2.576a.712.712,0,0,0,.712.712H75.5v1.24A4.492,4.492,0,0,0,77.5,36.526Z" fill="none" stroke="#45413c" stroke-linecap="round" stroke-linejoin="round"></path><path d="M55.213,84.291c0,1-5.96,1.816-13.313,1.816s-13.312-.813-13.312-1.816,5.96-1.815,13.312-1.815S55.213,83.289,55.213,84.291Z" fill="#45413c" opacity=".15"></path><path d="M28.321 25.449 L55.479 25.449 L55.479 57.399 L28.321 57.399 Z" fill="#ffe8d1" stroke="#45413c" stroke-linecap="round" stroke-linejoin="round"></path><path d="M41.9,33.437A16.774,16.774,0,0,0,25.126,50.211V59h6.39V78.382a5.562,5.562,0,0,1,8.071,1.863l.593-13.624a1.29,1.29,0,0,1,2.578,0l.649,13.641a5.576,5.576,0,0,1,8.877-1.2V59h6.39V50.211A16.774,16.774,0,0,0,41.9,33.437Z" fill="#fff5eb" stroke="#45413c" stroke-linecap="round" stroke-linejoin="round"></path><path d="M45.095 40.626L52.284 34.235" fill="none" stroke="#45413c" stroke-linecap="round" stroke-linejoin="round"></path><path d="M31.516 58.997L31.516 46.217" fill="none" stroke="#45413c" stroke-linecap="round" stroke-linejoin="round"></path><path d="M52.284 58.997L52.284 46.217" fill="none" stroke="#45413c" stroke-linecap="round" stroke-linejoin="round"></path><path d="M30.664,82.96A1.331,1.331,0,0,1,29.4,81.213a5.593,5.593,0,0,1,10.625,0A1.331,1.331,0,0,1,38.76,82.96Z" fill="#525252" stroke="#45413c" stroke-linecap="round" stroke-linejoin="round"></path><path d="M44.242,82.96a1.331,1.331,0,0,1-1.264-1.747,5.593,5.593,0,0,1,10.625,0,1.331,1.331,0,0,1-1.265,1.747Z" fill="#525252" stroke="#45413c" stroke-linecap="round" stroke-linejoin="round"></path><path d="M37.107 52.607 A1.598 1.598 0 1 0 40.303 52.607 A1.598 1.598 0 1 0 37.107 52.607 Z" fill="#00aed9" stroke="#45413c" stroke-linecap="round" stroke-linejoin="round"></path><path d="M43.497 52.607 A1.598 1.598 0 1 0 46.693 52.607 A1.598 1.598 0 1 0 43.497 52.607 Z" fill="#00aed9" stroke="#45413c" stroke-linecap="round" stroke-linejoin="round"></path><path d="M37.107 58.997 A1.598 1.598 0 1 0 40.303 58.997 A1.598 1.598 0 1 0 37.107 58.997 Z" fill="#e04122" stroke="#45413c" stroke-linecap="round" stroke-linejoin="round"></path><path d="M43.497 58.997 A1.598 1.598 0 1 0 46.693 58.997 A1.598 1.598 0 1 0 43.497 58.997 Z" fill="#e04122" stroke="#45413c" stroke-linecap="round" stroke-linejoin="round"></path><path d="M38.705 40.626L31.516 34.235" fill="none" stroke="#45413c" stroke-linecap="round" stroke-linejoin="round"></path><path d="M37.907 47.016L31.516 53.406" fill="none" stroke="#45413c" stroke-linecap="round" stroke-linejoin="round"></path><path d="M45.894 47.016L52.284 53.406" fill="none" stroke="#45413c" stroke-linecap="round" stroke-linejoin="round"></path><path d="M36.309 38.229 L47.492 38.229 L47.492 47.814 L36.309 47.814 Z" fill="#ffe8d1" stroke="#45413c" stroke-linecap="round" stroke-linejoin="round"></path><path d="M52.284,62.192a3.2,3.2,0,1,0,6.39,0V59h-6.39Z" fill="#525252" stroke="#45413c" stroke-linecap="round" stroke-linejoin="round"></path><path d="M25.126,62.192a3.195,3.195,0,1,0,6.39,0V59h-6.39Z" fill="#525252" stroke="#45413c" stroke-linecap="round" stroke-linejoin="round"></path><path d="M29.919,23.053a11.982,11.982,0,0,0,23.963,0v-1.6a11.982,11.982,0,0,0-23.963,0Z" fill="#fff5eb"></path><path d="M29.919,23.053a11.982,11.982,0,0,0,23.963,0v-1.6a11.982,11.982,0,0,0-23.963,0Z" fill="none" stroke="#45413c" stroke-linecap="round" stroke-linejoin="round"></path><path d="M40,12.851a9.579,9.579,0,0,0-6.654,13.727,2.629,2.629,0,0,0,1.8,1.386,33.279,33.279,0,0,0,6.756.68,33.236,33.236,0,0,0,6.759-.681,2.609,2.609,0,0,0,1.785-1.369A9.586,9.586,0,0,0,40,12.851Z" fill="#009fd9"></path><path d="M40,12.851a9.579,9.579,0,0,0-6.654,13.727,2.626,2.626,0,0,0,1.8,1.386l.206.041L48.267,15.089A9.6,9.6,0,0,0,40,12.851Z" fill="#00b8f0"></path><path d="M40,12.851a9.579,9.579,0,0,0-6.654,13.727,2.629,2.629,0,0,0,1.8,1.386,33.279,33.279,0,0,0,6.756.68,33.236,33.236,0,0,0,6.759-.681,2.609,2.609,0,0,0,1.785-1.369A9.586,9.586,0,0,0,40,12.851Z" fill="none" stroke="#45413c" stroke-linecap="round" stroke-linejoin="round"></path></g></svg>