<svg viewBox="0 0 160 160" height="160" width="160" xmlns="http://www.w3.org/2000/svg"><g transform="matrix(1.6,0,0,1.6,0,0)"><path d="M50,90.744a39.947,39.947,0,0,0,34.608-20H15.392A39.948,39.948,0,0,0,50,90.744Z" fill="#f2dfc2"></path><path d="M13.564,67.244c.546,1.2,1.17,2.363,1.828,3.5H84.608c.658-1.137,1.282-2.3,1.828-3.5Z" fill="#f2dfc2"></path><path d="M90,50.744a40,40,0,1,0-76.436,16.5H86.436A39.825,39.825,0,0,0,90,50.744Z" fill="#c7f0ff"></path><path d="M11 67.244L89 67.244" fill="none" stroke="#45413c" stroke-linecap="round" stroke-linejoin="round"></path><path d="M6.5 67.244L9 67.244" fill="none" stroke="#45413c" stroke-linecap="round" stroke-linejoin="round"></path><path d="M91 67.244L93.5 67.244" fill="none" stroke="#45413c" stroke-linecap="round" stroke-linejoin="round"></path><path d="M81.874,26.87l-8.731,3.742a1.413,1.413,0,0,1-.555.114H63.316a1.409,1.409,0,0,1-.554-.114L54.031,26.87a1.407,1.407,0,0,1-.853-1.294v-4.7h0c4.682-14.269,24.867-14.269,29.549,0h0v4.7A1.409,1.409,0,0,1,81.874,26.87Z" fill="#e04122" stroke="#45413c" stroke-linecap="round" stroke-linejoin="round"></path><path d="M79.264,25.424l-7.095,2.8a1.221,1.221,0,0,1-.448.085H64.185a1.23,1.23,0,0,1-.452-.086l-7.092-2.794a1.053,1.053,0,0,1-.693-.966V20.947h0c3.974-11.135,20.034-11.135,24.009,0h0v3.511A1.054,1.054,0,0,1,79.264,25.424Z" fill="#fff" stroke="#45413c" stroke-linecap="round" stroke-linejoin="round"></path><path d="M66.545 30.726H69.35900000000001V40.576H66.545z" fill="#8ca4b8" stroke="#45413c" stroke-linecap="round" stroke-linejoin="round"></path><path d="M60.213 59.571H75.691V67.31H60.213z" fill="#009fd9" stroke="#45413c" stroke-linecap="round" stroke-linejoin="round"></path><path d="M70.766,52.536H65.138V41.183a.608.608,0,0,1,.608-.608h4.413a.608.608,0,0,1,.607.608Z" fill="#00b8f0" stroke="#45413c" stroke-linecap="round" stroke-linejoin="round"></path><path d="M65.138 52.536L60.213 59.571 75.691 59.571 70.766 52.536 65.138 52.536z" fill="#00b8f0" stroke="#45413c" stroke-linecap="round" stroke-linejoin="round"></path><path d="M72.877,27.208h-9.85A1.407,1.407,0,0,1,61.62,25.8h0a1.407,1.407,0,0,1,1.407-1.407h9.85A1.407,1.407,0,0,1,74.284,25.8h0A1.407,1.407,0,0,1,72.877,27.208Z" fill="#ff6242" stroke="#45413c" stroke-linecap="round" stroke-linejoin="round"></path><path d="M63.027,27.208h0a19.666,19.666,0,0,1,1.408,7.306v.98a.7.7,0,0,0,.7.7h5.628a.7.7,0,0,0,.7-.7v-.98a19.685,19.685,0,0,1,1.407-7.306h-9.85Z" fill="#fff" stroke="#45413c" stroke-linecap="round" stroke-linejoin="round"></path><path d="M71.731,18.765H64.173a1.146,1.146,0,0,0-1.146,1.146v4.483h9.85V19.911A1.146,1.146,0,0,0,71.731,18.765Z" fill="#fff" stroke="#45413c" stroke-linecap="round" stroke-linejoin="round"></path><path d="M63.902 30.022L71.984 30.022" fill="none" stroke="#45413c" stroke-linecap="round" stroke-linejoin="round"></path><path d="M64.363 32.836L71.542 32.836" fill="none" stroke="#45413c" stroke-linecap="round" stroke-linejoin="round"></path><path d="M67.952 27.208L67.952 36.198" fill="none" stroke="#45413c" stroke-linecap="round" stroke-linejoin="round"></path><path d="M23.2,58.951,17.256,84.619l.587.192h3.643l9.354-17.38a2.854,2.854,0,0,1,3.09-.683c2.129,1.1,5.564,2.6,5.564,5.673l.54,11.037a1.4,1.4,0,0,0,1.4,1.353h4.936L46.252,72.35a6,6,0,0,0-.423-2.158L41.367,58.951Z" fill="#d18660" stroke="#45413c" stroke-linecap="round" stroke-linejoin="round"></path><path d="M28.807,71.208l2.283-3.777a2.329,2.329,0,0,1,2.84-.683c1.531.791,4.113,1.912,5.156,3.946L45.5,69.371l-4.136-10.42H23.2l-2.384,10.3Z" fill="#ffe500" stroke="#45413c" stroke-linecap="round" stroke-linejoin="round"></path><path d="M25.723 58.951L23.195 58.951 20.811 69.253 23.572 69.928 25.723 58.951z" fill="#ff6242" stroke="#45413c" stroke-linecap="round" stroke-linejoin="round"></path><path d="M43.128 69.861L45.503 69.371 41.367 58.951 38.799 58.951 43.128 69.861z" fill="#ff6242" stroke="#45413c" stroke-linecap="round" stroke-linejoin="round"></path><path d="M14.530 85.357 A18.172 2.097 0 1 0 50.874 85.357 A18.172 2.097 0 1 0 14.530 85.357 Z" fill="#45413c" opacity=".15"></path><path d="M48.007,55.457a3.145,3.145,0,0,1-3.145-3.145V46.371a13.287,13.287,0,0,0-8.919-12.547,1,1,0,0,1-.672-.945l0-2.97H29.393l0,2.613a1,1,0,0,1-.747.966c-7.552,1.974-15.207,10.952-16.9,18.383a2.6,2.6,0,0,0,.474,2.192A2.493,2.493,0,0,0,16.6,53.2c1.437-4.3,4.976-9.683,6.591-9.947v15.7H41.364V56.836a8.029,8.029,0,0,0,6.643,3.513,2.446,2.446,0,1,0,0-4.892Z" fill="#d18660" stroke="#45413c" stroke-linecap="round" stroke-linejoin="round" stroke-width="1.009"></path><path d="M41.367,49.306a5.557,5.557,0,0,1-2.1-4.333V40.081a5.537,5.537,0,0,1,1.265-3.5l-.024-.037a13.262,13.262,0,0,0-4-2.5l-.041-.005v1.853a4.194,4.194,0,1,1-8.387,0V33.646a18.409,18.409,0,0,0-4.687,2.27,5.575,5.575,0,0,1,1.891,4.165v4.892a5.557,5.557,0,0,1-2.1,4.333v9.645H41.364V56.836l0,0Z" fill="#ff6242" stroke="#45413c" stroke-linecap="round" stroke-linejoin="round"></path><path d="M39.27,44.973V40.331a9.752,9.752,0,0,0-3.2-2.649,4.194,4.194,0,0,1-7.785-.515,9.662,9.662,0,0,0-3.115,1.823,5.507,5.507,0,0,1,.12,1.091v4.892a5.557,5.557,0,0,1-2.1,4.333v9.645H41.364V56.836l0,0V49.306A5.557,5.557,0,0,1,39.27,44.973Z" fill="#ffe500" stroke="#45413c" stroke-linecap="round" stroke-linejoin="round"></path><path d="M41.363 49.306L41.363 44.272" fill="none" stroke="#45413c" stroke-linecap="round" stroke-linejoin="round"></path><path d="M49.729,84.811a4.194,4.194,0,0,0-4.194-4.193H39.944v2.8a1.4,1.4,0,0,0,1.4,1.4Z" fill="#ff6242" stroke="#45413c" stroke-linecap="round" stroke-linejoin="round"></path><path d="M44.862 66.640 A6.290 6.290 0 1 0 57.442 66.640 A6.290 6.290 0 1 0 44.862 66.640 Z" fill="#ff8a14" stroke="#45413c" stroke-linecap="round" stroke-linejoin="round"></path><path d="M13.508 46.77H17.003V52.409000000000006H13.508z" fill="#fff" stroke="#45413c" stroke-linecap="round" stroke-linejoin="round" transform="translate(-36.505 46.04) rotate(-68.978)"></path><path d="M57.442,66.64l-.877-.5a10.914,10.914,0,0,0-10.826,0l-.877.5h0a8.9,8.9,0,0,0,12.58,0Z" fill="none" stroke="#45413c" stroke-linecap="round" stroke-linejoin="round"></path><path d="M34.482,51.813c.478,0,.847.217.847.717a.7.7,0,0,1-.782.716H30.922c-.478,0-.847-.217-.847-.716a.91.91,0,0,1,.249-.554c.9-1.075,1.879-2.052,2.7-3.246a1.8,1.8,0,0,0,.38-1.009.812.812,0,0,0-.782-.836c-1.248,0-.651,1.758-1.693,1.758a.751.751,0,0,1-.793-.792,2.552,2.552,0,0,1,2.551-2.464,2.254,2.254,0,0,1,2.41,2.258c0,1.508-1.682,3.006-2.6,4.168Z" fill="#45413c"></path><path d="M22.855,84.811a1.393,1.393,0,0,0,1.254-2.027,4.192,4.192,0,0,0-3.672-2.166h-.7a4.19,4.19,0,0,0-3.671,2.166,1.393,1.393,0,0,0,1.254,2.027Z" fill="#ff6242" stroke="#45413c" stroke-linecap="round" stroke-linejoin="round"></path><path d="M32.29,12.073a8.453,8.453,0,0,0-8.452,8.453v1.128a1.725,1.725,0,0,0,.177,3.415,8.453,8.453,0,0,0,16.728-1.726V20.526A8.453,8.453,0,0,0,32.29,12.073Z" fill="#d18660" stroke="#45413c" stroke-linecap="round" stroke-linejoin="round"></path><path d="M30.177 21.582 A1.057 1.057 0 1 0 32.291 21.582 A1.057 1.057 0 1 0 30.177 21.582 Z" fill="#45413c"></path><path d="M35.812 21.582 A1.057 1.057 0 1 0 37.926 21.582 A1.057 1.057 0 1 0 35.812 21.582 Z" fill="#45413c"></path><path d="M27.359 24.400 A1.057 1.057 0 1 0 29.473 24.400 A1.057 1.057 0 1 0 27.359 24.400 Z" fill="#bd704a"></path><path d="M41.343,17.027A9.16,9.16,0,0,0,32.009,9.26,9.412,9.412,0,0,0,23.133,18.8v1.449a.715.715,0,0,0,.993.651A7.275,7.275,0,0,0,28.064,17c3.547,2.388,8.114,2.19,12.071,1.615A1.414,1.414,0,0,0,41.343,17.027Z" fill="#614b44"></path><path d="M32.009,12.077a9.161,9.161,0,0,1,8.922,6.117,1.36,1.36,0,0,0,.412-1.167A9.159,9.159,0,0,0,32.009,9.26,9.411,9.411,0,0,0,23.134,18.8v1.449a.671.671,0,0,0,.069.266A9.354,9.354,0,0,1,32.009,12.077Z" fill="#947063"></path><path d="M41.343,17.027A9.16,9.16,0,0,0,32.009,9.26,9.412,9.412,0,0,0,23.133,18.8v1.449a.715.715,0,0,0,.993.651A7.275,7.275,0,0,0,28.064,17c3.547,2.388,8.114,2.19,12.071,1.615A1.414,1.414,0,0,0,41.343,17.027Z" fill="none" stroke="#45413c" stroke-linecap="round" stroke-linejoin="round"></path><path d="M26.655,15.6A4.518,4.518,0,0,0,28.064,17" fill="none" stroke="#45413c" stroke-linecap="round" stroke-linejoin="round"></path><path d="M40.226,26.231a7.254,7.254,0,0,1-2.389,2.231v-.794a2.711,2.711,0,0,0-2.711-2.711H33.505a2.712,2.712,0,0,0-2.712,2.711v1.819a10.619,10.619,0,0,1-6.778-4.418,8.455,8.455,0,0,0,16.219,1.17Z" fill="#614b44" stroke="#45413c" stroke-linecap="round" stroke-linejoin="round"></path><path d="M32.891 28.036 A1.612 1.873 0 1 0 36.115 28.036 A1.612 1.873 0 1 0 32.891 28.036 Z" fill="#ffa694" stroke="#45413c" stroke-linecap="round" stroke-linejoin="round"></path></g></svg>