<svg viewBox="0 0 160 160" height="160" width="160" xmlns="http://www.w3.org/2000/svg"><g transform="matrix(1.6,0,0,1.6,0,0)"><path d="M10.000 50.000 A40.000 40.000 0 1 0 90.000 50.000 A40.000 40.000 0 1 0 10.000 50.000 Z" fill="#C7F0FF" stroke="#C7F0FF"></path><path d="M29.368 81.536 A20.528 1.811 0 1 0 70.424 81.536 A20.528 1.811 0 1 0 29.368 81.536 Z" fill="#45413c" opacity=".15"></path><path d="M20.312 46.000 L48.085 46.000 L48.085 73.773 L20.312 73.773 Z" fill="#6dd627" stroke="#45413c" stroke-linecap="round" stroke-linejoin="round"></path><path d="M23.935 49.623 L44.463 49.623 L44.463 70.150 L23.935 70.150 Z" fill="#fff" stroke="#45413c" stroke-linecap="round" stroke-linejoin="round"></path><path d="M37.551,58.991a3.01,3.01,0,0,0,.864-2.37,3.145,3.145,0,0,0-3.193-2.772H31.18a1.207,1.207,0,0,0-1.208,1.207v9.66a1.208,1.208,0,0,0,1.208,1.208H36.1a3.535,3.535,0,0,0,3.535-3.535v-.175A3.536,3.536,0,0,0,37.551,58.991Z" fill="#6dd627" stroke="#45413c" stroke-linecap="round" stroke-linejoin="round"></path><path d="M34.2,58.679H32.991V56.264H34.2a1.206,1.206,0,0,1,1.207,1.207h0A1.207,1.207,0,0,1,34.2,58.679Z" fill="#fff" stroke="#45413c" stroke-linecap="round" stroke-linejoin="round"></path><path d="M34.8,63.509H32.991V61.094H34.8A1.207,1.207,0,0,1,36.01,62.3h0A1.208,1.208,0,0,1,34.8,63.509Z" fill="#fff" stroke="#45413c" stroke-linecap="round" stroke-linejoin="round"></path><path d="M56.538,46H77.065a3.622,3.622,0,0,1,3.622,3.622V70.15a3.623,3.623,0,0,1-3.623,3.623H56.537a3.623,3.623,0,0,1-3.623-3.623V49.623A3.623,3.623,0,0,1,56.538,46Z" fill="#ff6242" stroke="#45413c" stroke-linecap="round" stroke-linejoin="round"></path><path d="M56.537 49.623 L77.065 49.623 L77.065 70.150 L56.537 70.150 Z" fill="#fff" stroke="#45413c" stroke-linecap="round" stroke-linejoin="round"></path><path d="M71.342,62.177a1.124,1.124,0,0,0-1.311.163,3.233,3.233,0,1,1,0-4.908,1.124,1.124,0,0,0,1.311.164,1.962,1.962,0,0,0,.965-1.638c0-1.445-2.877-2.713-5.118-2.713-3.822,0-5.822,3.436-5.822,6.641s2,6.642,5.822,6.642c2.241,0,5.118-1.268,5.118-2.714A1.958,1.958,0,0,0,71.342,62.177Z" fill="#ff6242" stroke="#45413c" stroke-linecap="round" stroke-linejoin="round"></path><path d="M36.614 18.228 L64.387 18.228 L64.387 46.000 L36.614 46.000 Z" fill="#ffe500" stroke="#45413c" stroke-linecap="round" stroke-linejoin="round"></path><path d="M40.236 21.850 L60.764 21.850 L60.764 42.378 L40.236 42.378 Z" fill="#fff" stroke="#45413c" stroke-linecap="round" stroke-linejoin="round"></path><path d="M54.2,38.671a2.421,2.421,0,0,1-2.323-1.655l-.244-.676H49.371l-.241.67a2.417,2.417,0,0,1-2.324,1.661,2.36,2.36,0,0,1-2.424-2.346,3.436,3.436,0,0,1,.251-1.163l3.255-7.734a2.724,2.724,0,0,1,5.235.03l3.208,7.591a3.739,3.739,0,0,1,.291,1.276A2.36,2.36,0,0,1,54.2,38.671Z" fill="#ffe500" stroke="#45413c" stroke-linecap="round" stroke-linejoin="round"></path><path d="M50.5 31.51L50.5 30.906" fill="none" stroke="#45413c" stroke-linecap="round" stroke-linejoin="round" stroke-width="2"></path></g></svg>