<svg width="160" height="160" fill="none" xmlns="http://www.w3.org/2000/svg">
  <path d="M16 80c0 16.9739 6.7428 33.253 18.7452 45.255C46.7475 137.257 63.0261 144 80 144c16.9739 0 33.253-6.743 45.255-18.745C137.257 113.253 144 96.9739 144 80c0-16.9739-6.743-33.2525-18.745-45.2548C113.253 22.7428 96.9739 16 80 16c-16.9739 0-33.2525 6.7428-45.2548 18.7452C22.7428 46.7475 16 63.0261 16 80z" fill="#C7F0FF"/>
  <path d="M135.377 115.41c0 1.353-.537 2.651-1.494 3.608a5.1064 5.1064 0 01-3.608 1.494H29.9198a5.1057 5.1057 0 01-3.608-1.494 5.1035 5.1035 0 01-1.4944-3.608V45.6736H135.377V115.41z" fill="#E5F8FF"/>
  <path d="M135.378 83.176V72.552l-7.536-7.536a3.2047 3.2047 0 00-1.638-.8754 3.2034 3.2034 0 00-1.849.1817 3.2045 3.2045 0 00-1.436 1.1777 3.21 3.21 0 00-.54 1.7768l-.009 18.08c0 .6411.192 1.2673.552 1.7977.361.5303.872.9402 1.468 1.1766a3.1977 3.1977 0 001.874.1491 3.1976 3.1976 0 001.635-.9298l4.219-4.48 3.26.1056z" fill="#B8ECFF"/>
  <path d="M87.5023 51.3728a3.1998 3.1998 0 00-2.0912 3.0016V58.56c-.0003.6543.2 1.293.574 1.83.3739.537.9034.9465 1.5172 1.1732v5.3632a3.1998 3.1998 0 00-2.0912 2.9936v4.1824a3.2 3.2 0 003.2 3.2h4.1888a3.1995 3.1995 0 002.8512-1.7472h14.9939a3.1995 3.1995 0 002.851 1.7472h4.182a3.2034 3.2034 0 002.852-1.7472h14.854V45.6736H87.5023v5.6992z" fill="#B8ECFF"/>
  <path d="M135.377 35.4671a5.1015 5.1015 0 00-5.102-5.1024H29.9198a5.1024 5.1024 0 00-5.1024 5.1024v10.2064H135.377V35.4671z" fill="#fff"/>
  <path d="M135.378 45.6735v-8.3344l-.013.032h-14.69a3.1974 3.1974 0 00-1.173-1.5182 3.2 3.2 0 00-1.83-.5746h-4.182a3.2007 3.2007 0 00-3.004 2.0928H95.7967a3.2 3.2 0 00-2.9968-2.0928h-4.1888a3.2 3.2 0 00-3.2 3.2v4.1824a3.1995 3.1995 0 002.0912 3.0032v.0096h47.8757z" fill="#E0E0E0"/>
  <path d="M29.9214 38.0193c0 .3351.066.667.1942.9766a2.553 2.553 0 002.3578 1.5754 2.5511 2.5511 0 001.8045-.7475 2.5512 2.5512 0 00.7475-1.8045 2.5511 2.5511 0 00-.7475-1.8046 2.5529 2.5529 0 00-2.7811-.5532 2.5533 2.5533 0 00-1.3812 1.3812 2.5529 2.5529 0 00-.1942.9766v0z" fill="#FF6242" stroke="#FF6242" stroke-width="1.6" stroke-linecap="round" stroke-linejoin="round"/>
  <path d="M38.4258 38.0193a2.5519 2.5519 0 105.104 0 2.5522 2.5522 0 00-4.3566-1.8046 2.5521 2.5521 0 00-.7474 1.8046z" fill="#FFE500" stroke="#FFE500" stroke-width="1.6" stroke-linecap="round" stroke-linejoin="round"/>
  <path d="M46.9297 38.0193a2.552 2.552 0 105.104-.0001 2.552 2.552 0 00-5.104.0001v0z" fill="#6DD627" stroke="#6DD627" stroke-width="1.6" stroke-linecap="round" stroke-linejoin="round"/>
  <path d="M135.377 115.41c0 1.353-.537 2.651-1.494 3.608a5.1064 5.1064 0 01-3.608 1.494H29.9198a5.1057 5.1057 0 01-3.608-1.494 5.1035 5.1035 0 01-1.4944-3.608V45.6736H135.377V115.41zM135.377 35.4671a5.1015 5.1015 0 00-5.102-5.1024H29.9198a5.1024 5.1024 0 00-5.1024 5.1024v10.2064H135.377V35.4671z" stroke="#45413C" stroke-width="1.6" stroke-linecap="round" stroke-linejoin="round"/>
  <path d="M90.7026 40.5713h49.7564v31.7888H90.7026V40.5713z" fill="#fff"/>
  <path d="M135.186 72.36l-7.344-7.344a3.1992 3.1992 0 00-3.486-.6937A3.194 3.194 0 00122.92 65.5a3.203 3.203 0 00-.541 1.7768V72.36h12.807z" fill="#E0E0E0"/>
  <path d="M90.7026 40.5713h49.7564v31.7888H90.7026V40.5713z" stroke="#45413C" stroke-width="1.6" stroke-linecap="round" stroke-linejoin="round"/>
  <path d="M113.49 38.48h4.182v4.1824h-4.182V38.48zM138.368 38.48h4.183v4.1824h-4.183V38.48zM113.49 69.9248h4.182v4.1824h-4.182v-4.1824zM88.6113 38.48h4.1824v4.1824h-4.1824V38.48zM88.6113 69.9248h4.1824v4.1824h-4.1824v-4.1824zM138.368 69.9248h4.183v4.1824h-4.183v-4.1824zM138.368 54.3745h4.183v4.1824h-4.183v-4.1824zM88.6113 54.3745h4.1824v4.1824h-4.1824v-4.1824z" fill="#fff" stroke="#45413C" stroke-width="1.6" stroke-linecap="round" stroke-linejoin="round"/>
  <path d="M77.3486 90.7375h49.7564v21.0385H77.3486V90.7375z" fill="#4ACFFF" stroke="#45413C" stroke-width="1.6" stroke-linecap="round" stroke-linejoin="round"/>
  <path d="M32.4736 54.8799h38.168v56.8941h-38.168V54.8799z" fill="#fff" stroke="#45413C" stroke-width="1.6" stroke-linecap="round" stroke-linejoin="round"/>
  <path d="M69.0288 54.8799a1.6003 1.6003 0 011.6 1.6v27.776H32.48v-27.776a1.6003 1.6003 0 011.6-1.6h34.9488z" fill="#4ACFFF" stroke="#45413C" stroke-width="1.6" stroke-linecap="round" stroke-linejoin="round"/>
  <path d="M45.9038 84.2559l6.192-8.6688a3.6796 3.6796 0 015.976 0l6.192 8.6688h-18.36z" fill="#46B000" stroke="#45413C" stroke-width="1.6" stroke-linecap="round" stroke-linejoin="round"/>
  <path d="M33.5713 84.2559l8.0784-10.7712a3.6796 3.6796 0 012.9376-1.4635 3.6797 3.6797 0 012.9376 1.4635l8.0784 10.7712h-22.032z" fill="#6DD627" stroke="#45413C" stroke-width="1.6" stroke-linecap="round" stroke-linejoin="round"/>
  <path d="M56.1152 63.7823a3.7089 3.7089 0 107.1353-1.4193 3.71 3.71 0 00-2.0072-2.0072 3.708 3.708 0 00-2.8386 0 3.7098 3.7098 0 00-2.0071 2.0072 3.7085 3.7085 0 00-.2824 1.4193v0z" fill="#FFE500" stroke="#45413C" stroke-width="1.6" stroke-linecap="round" stroke-linejoin="round"/>
  <path d="M39.5518 90.1423h24.0128M39.5518 97.552h24.0128M39.5518 104.962h24.0128M98.7905 56.4656h33.5805M105.59 49.0913h26.781M98.7905 63.8401h33.5805" stroke="#627B8C" stroke-width="1.6" stroke-linecap="round" stroke-linejoin="round"/>
  <path d="M136.939 78.64c.113.1134.19.2582.22.4156a.7967.7967 0 01-.052.4672.7975.7975 0 01-.305.3576.7987.7987 0 01-.453.1244l-5.213-.16a.8004.8004 0 00-.608.2512l-3.574 3.8a.8006.8006 0 01-1.245-.0992.8009.8009 0 01-.138-.4496V69.2096a.805.805 0 01.136-.4435.7979.7979 0 01.82-.3394.7996.7996 0 01.409.2181l10.003 9.9952z" fill="#fff" stroke="#45413C" stroke-width="1.6" stroke-linecap="round" stroke-linejoin="round"/>
  <path opacity=".15" d="M66.085 134.944c0 .636 2.1914 1.247 6.0921 1.697 3.9008.45 9.1914.703 14.7079.703 5.5165 0 10.807-.253 14.708-.703 3.901-.45 6.092-1.061 6.092-1.697 0-.637-2.191-1.247-6.092-1.697-3.901-.45-9.1915-.703-14.708-.703-5.5165 0-10.8071.253-14.7079.703-3.9007.45-6.0921 1.06-6.0921 1.697z" fill="#45413C"/>
  <path d="M148.631 39.1933a21.0992 21.0992 0 01-20.763 10.8898 21.1004 21.1004 0 01-11.281-4.777 21.0958 21.0958 0 01-6.726-10.2393 21.1002 21.1002 0 01.097-12.2503 21.0925 21.0925 0 016.886-10.132 21.1017 21.1017 0 0123.351-2.1136 21.1007 21.1007 0 0110.145 12.5642 21.0992 21.0992 0 01-1.709 16.0582z" fill="#FF8A14"/>
  <path d="M140.195 10.571a21.1102 21.1102 0 00-27.289 6.3068 21.118 21.118 0 00-3.718 9.4004 21.1029 21.1029 0 0136.33-.8651 21.0976 21.0976 0 013.003 13.9851l.111-.1968a21.1125 21.1125 0 002.455-7.8611 21.0909 21.0909 0 00-.742-8.2022 21.086 21.086 0 00-3.825-7.2935 21.0944 21.0944 0 00-6.325-5.2736z" fill="#FFAA54"/>
  <path d="M148.631 39.1933a21.0992 21.0992 0 01-20.763 10.8898 21.1004 21.1004 0 01-11.281-4.777 21.0958 21.0958 0 01-6.726-10.2393 21.1002 21.1002 0 01.097-12.2503 21.0925 21.0925 0 016.886-10.132 21.1017 21.1017 0 0123.351-2.1136 21.1007 21.1007 0 0110.145 12.5642 21.0992 21.0992 0 01-1.709 16.0582v0z" stroke="#45413C" stroke-width="1.6" stroke-linecap="round" stroke-linejoin="round"/>
  <path d="M125.28 8.5676a21.1223 21.1223 0 011.157 8.7311 21.0978 21.0978 0 01-2.508 8.443 21.0923 21.0923 0 01-5.735 6.6842 21.1026 21.1026 0 01-7.964 3.7609M149.968 22.0156a21.1027 21.1027 0 00-7.963 3.7636 21.105 21.105 0 00-5.732 6.6856 21.0961 21.0961 0 00-2.505 8.4431 21.0858 21.0858 0 001.16 8.7301M111.572 19.0078l37.059 20.1856" stroke="#45413C" stroke-width="1.6" stroke-linecap="round" stroke-linejoin="round"/>
</svg>
