<svg width="160" height="160" fill="none" xmlns="http://www.w3.org/2000/svg">
  <path d="M12.0049 80c0 16.9739 6.7428 33.253 18.7451 45.255C42.7524 137.257 59.031 144 76.0049 144c16.9738 0 33.2521-6.743 45.2551-18.745 12.002-12.002 18.745-28.2811 18.745-45.255 0-16.9739-6.743-33.2525-18.745-45.2548C109.257 22.7428 92.9787 16 76.0049 16 59.031 16 42.7524 22.7428 30.75 34.7452 18.7477 46.7475 12.0049 63.0261 12.0049 80z" fill="#C7F0FF"/>
  <path opacity=".15" d="M38.7969 127.88c0 .668 2.301 1.309 6.3968 1.782 4.0958.473 9.6508.738 15.4432.738 5.7923 0 11.3474-.265 15.4432-.738 4.0958-.473 6.3968-1.114 6.3968-1.782 0-.668-2.301-1.309-6.3968-1.782-4.0958-.472-9.6509-.738-15.4432-.738-5.7924 0-11.3474.266-15.4432.738-4.0958.473-6.3968 1.114-6.3968 1.782z" fill="#525252"/>
  <path d="M112.717 106.208a4.0475 4.0475 0 01-1.184 2.848 4.0475 4.0475 0 01-2.848 1.184h-90.72a4.0397 4.0397 0 01-2.8468-1.185 4.0421 4.0421 0 01-1.1836-2.847V41.696h98.7844l-.002 64.512z" fill="#B8ECFF"/>
  <path d="M112.717 106.208a4.0475 4.0475 0 01-1.184 2.848 4.0475 4.0475 0 01-2.848 1.184h-90.72a4.0397 4.0397 0 01-2.8468-1.185 4.0421 4.0421 0 01-1.1836-2.847V41.696h98.7844l-.002 64.512z" stroke="#45413C" stroke-width="1.6" stroke-linecap="round" stroke-linejoin="round"/>
  <path d="M61.0991 81.8271h43.3569V100.16H61.0991V81.8271z" fill="#fff" stroke="#45413C" stroke-width="1.6" stroke-linecap="round" stroke-linejoin="round"/>
  <path d="M69.3936 94.2224h26.7696M75.2383 87.7649h20.9248" stroke="#45413C" stroke-width="1.6" stroke-linecap="round" stroke-linejoin="round"/>
  <path d="M61.0991 50.5825h43.3569v27.7008H61.0991V50.5825zM21.9971 50.5825h33.2592V100.16H21.9971V50.5825z" fill="#fff" stroke="#45413C" stroke-width="1.6" stroke-linecap="round" stroke-linejoin="round"/>
  <path d="M21.9971 50.5825h33.2496v25.5968H21.9971V50.5825z" fill="#4ACFFF" stroke="#45413C" stroke-width="1.6" stroke-linecap="round" stroke-linejoin="round"/>
  <path d="M33.6992 76.1791l5.3952-7.5536a3.2006 3.2006 0 012.604-1.3401 3.1997 3.1997 0 012.604 1.3401l5.3952 7.5536H33.6992z" fill="#46B000" stroke="#45413C" stroke-width="1.6" stroke-linecap="round" stroke-linejoin="round"/>
  <path d="M22.9536 76.1793l7.04-9.3856a3.2002 3.2002 0 013.9911-.9422 3.2002 3.2002 0 011.1289.9422l7.04 9.3856h-19.2z" fill="#6DD627" stroke="#45413C" stroke-width="1.6" stroke-linecap="round" stroke-linejoin="round"/>
  <path d="M42.5967 58.3392a3.2323 3.2323 0 003.232 3.232 3.2323 3.2323 0 003.232-3.232 3.2328 3.2328 0 00-.9466-2.2854 3.2333 3.2333 0 00-2.2854-.9466 3.2328 3.2328 0 00-2.2854.9466 3.2318 3.2318 0 00-.9466 2.2854z" fill="#FFE500" stroke="#45413C" stroke-width="1.6" stroke-linecap="round" stroke-linejoin="round"/>
  <path d="M28.1631 81.3088h20.9248M28.1631 87.7649h20.9248M28.1631 94.2224h20.9248" stroke="#45413C" stroke-width="1.6" stroke-linecap="round" stroke-linejoin="round"/>
  <path d="M82.1696 69.1809a8.5287 8.5287 0 00.4433-8.7654 8.5283 8.5283 0 00-7.5265-4.5146v8.5312l7.0832 4.7488z" fill="#48CF3E" stroke="#45413C" stroke-width="1.6" stroke-linecap="round" stroke-linejoin="round"/>
  <path d="M75.0865 55.9055a8.5265 8.5265 0 00-7.04 13.328l7.04-4.8v-8.528z" fill="#00AED9" stroke="#45413C" stroke-width="1.6" stroke-linecap="round" stroke-linejoin="round"/>
  <path d="M75.0864 64.4319l-7.04 4.8a8.5284 8.5284 0 007.0788 3.7251 8.5281 8.5281 0 007.0508-3.7779l-7.0896-4.7472z" fill="#FFB700" stroke="#45413C" stroke-width="1.6" stroke-linecap="round" stroke-linejoin="round"/>
  <path d="M91.7539 64.4319h6.9536M91.7539 58.0063h6.9536M91.7539 70.8577h6.9536" stroke="#45413C" stroke-width="1.6" stroke-linecap="round" stroke-linejoin="round"/>
  <path d="M112.717 41.6961H13.9331v-8.064a4.0434 4.0434 0 014.0304-4.032h90.7205a4.0415 4.0415 0 012.847 1.1842 4.0422 4.0422 0 011.185 2.8478l.001 8.064z" fill="#fff" stroke="#45413C" stroke-width="1.6" stroke-linecap="round" stroke-linejoin="round"/>
  <path d="M18.8032 35.6481a2.0165 2.0165 0 001.2445 1.8625 2.0165 2.0165 0 001.543 0 2.0155 2.0155 0 001.2445-1.8625 2.016 2.016 0 00-2.7875-1.8626 2.0158 2.0158 0 00-1.091 1.0911 2.0162 2.0162 0 00-.1535.7715v0z" fill="#FF6242" stroke="#FF6242" stroke-width="1.6"/>
  <path d="M27.2881 35.6481a2.0159 2.0159 0 003.4415 1.4255 2.0159 2.0159 0 10-2.851-2.851 2.0157 2.0157 0 00-.5905 1.4255v0z" fill="#FFE500" stroke="#FFE500" stroke-width="1.6"/>
  <path d="M35.7715 35.6481a2.0164 2.0164 0 00.5905 1.4255 2.0155 2.0155 0 002.197.437 2.0155 2.0155 0 001.2445-1.8625 2.0162 2.0162 0 00-3.4415-1.4255 2.016 2.016 0 00-.5905 1.4255v0z" fill="#6DD627" stroke="#6DD627" stroke-width="1.6"/>
  <path d="M125.716 109.117a17.4414 17.4414 0 00-16.113 10.767 17.4336 17.4336 0 00-.993 10.077 17.4421 17.4421 0 0013.704 13.704c3.383.673 6.89.327 10.077-.993a17.4324 17.4324 0 007.827-6.424c1.917-2.868 2.94-6.24 2.94-9.689 0-4.626-1.838-9.062-5.109-12.333a17.4414 17.4414 0 00-12.333-5.109zm0 30.126c-2.509 0-4.961-.744-7.047-2.138a12.6773 12.6773 0 01-4.672-5.692 12.69 12.69 0 01-.722-7.329c.49-2.461 1.698-4.721 3.472-6.495a12.6796 12.6796 0 016.495-3.471c2.46-.49 5.011-.239 7.328.721 2.318.961 4.299 2.586 5.693 4.672a12.6854 12.6854 0 012.138 7.048c0 1.665-.328 3.315-.966 4.854a12.6895 12.6895 0 01-2.749 4.115 12.6965 12.6965 0 01-4.116 2.75 12.691 12.691 0 01-4.854.965z" fill="#656769"/>
  <path d="M143.082 128.194c.049-.539.075-1.084.076-1.635 0-4.626-1.838-9.062-5.109-12.333a17.4414 17.4414 0 00-12.333-5.109c-4.625 0-9.062 1.838-12.333 5.109a17.4404 17.4404 0 00-5.108 12.333c0 .551.025 1.096.075 1.635l.031-.302a17.4307 17.4307 0 0117.487-15.603c4.333.037 8.497 1.687 11.679 4.628a17.4315 17.4315 0 015.535 11.277" fill="#87898C"/>
  <path d="M125.716 113.874v25.369M113.031 126.559H138.4M116.746 117.589l17.94 17.938M116.746 135.527l17.94-17.938M125.716 109.117a17.4414 17.4414 0 00-16.113 10.767 17.4336 17.4336 0 00-.993 10.077 17.4421 17.4421 0 0013.704 13.704c3.383.673 6.89.327 10.077-.993a17.4324 17.4324 0 007.827-6.424c1.917-2.868 2.94-6.24 2.94-9.689 0-4.626-1.838-9.062-5.109-12.333a17.4414 17.4414 0 00-12.333-5.109zm0 30.126c-2.509 0-4.961-.744-7.047-2.138a12.6773 12.6773 0 01-4.672-5.692 12.69 12.69 0 01-.722-7.329c.49-2.461 1.698-4.721 3.472-6.495a12.6796 12.6796 0 016.495-3.471c2.46-.49 5.011-.239 7.328.721 2.318.961 4.299 2.586 5.693 4.672a12.6854 12.6854 0 012.138 7.048c0 1.665-.328 3.315-.966 4.854a12.6895 12.6895 0 01-2.749 4.115 12.6965 12.6965 0 01-4.116 2.75 12.691 12.691 0 01-4.854.965v0z" stroke="#45413C" stroke-width="1.6" stroke-linecap="round" stroke-linejoin="round"/>
  <path d="M65.4413 109.117a17.4376 17.4376 0 00-9.6898 2.94 17.4373 17.4373 0 00-6.4239 7.827 17.4405 17.4405 0 003.7809 19.007 17.4366 17.4366 0 008.9302 4.774c3.3833.673 6.8902.327 10.0772-.993a17.4366 17.4366 0 007.8274-6.424 17.4392 17.4392 0 002.9394-9.689c0-4.626-1.8376-9.062-5.1085-12.333a17.4413 17.4413 0 00-12.3329-5.109zm0 30.126a12.683 12.683 0 01-7.0471-2.138 12.6777 12.6777 0 01-4.6719-5.692 12.685 12.685 0 012.7497-13.824 12.68 12.68 0 016.4947-3.471c2.4606-.49 5.011-.239 7.3288.721a12.6908 12.6908 0 015.6927 4.672 12.6867 12.6867 0 012.1377 7.048 12.6844 12.6844 0 01-12.6846 12.684z" fill="#656769"/>
  <path d="M82.8072 128.194c.0503-.539.0755-1.084.0755-1.635 0-4.626-1.8376-9.062-5.1085-12.333a17.4413 17.4413 0 00-12.3329-5.109c-4.6257 0-9.062 1.838-12.3329 5.109A17.4416 17.4416 0 0048 126.559c0 .551.0252 1.096.0755 1.635l.0302-.302a17.4328 17.4328 0 015.7305-11.179 17.429 17.429 0 0111.7573-4.424 17.4265 17.4265 0 0111.6787 4.628 17.4315 17.4315 0 015.535 11.277" fill="#87898C"/>
  <path d="M65.4414 113.874v25.369M52.7563 126.559h25.3693M56.4712 117.589l17.9396 17.938M56.4712 135.527l17.9396-17.938M65.4413 109.117a17.4376 17.4376 0 00-9.6898 2.94 17.4373 17.4373 0 00-6.4239 7.827 17.4405 17.4405 0 003.7809 19.007 17.4366 17.4366 0 008.9302 4.774c3.3833.673 6.8902.327 10.0772-.993a17.4366 17.4366 0 007.8274-6.424 17.4392 17.4392 0 002.9394-9.689c0-4.626-1.8376-9.062-5.1085-12.333a17.4413 17.4413 0 00-12.3329-5.109zm0 30.126a12.683 12.683 0 01-7.0471-2.138 12.6777 12.6777 0 01-4.6719-5.692 12.685 12.685 0 012.7497-13.824 12.68 12.68 0 016.4947-3.471c2.4606-.49 5.011-.239 7.3288.721a12.6908 12.6908 0 015.6927 4.672 12.6867 12.6867 0 012.1377 7.048 12.6844 12.6844 0 01-12.6846 12.684v0z" stroke="#45413C" stroke-width="1.6" stroke-linecap="round" stroke-linejoin="round"/>
  <path d="M92.3964 128.937c.3571 0 .7096-.08 1.0313-.235.3218-.155.6047-.38.8276-.659l22.3677-27.96 6.763 27.053c.153.612.543 1.138 1.084 1.462.541.324 1.189.421 1.801.267a2.3804 2.3804 0 001.463-1.084c.324-.541.42-1.189.267-1.801l-7.852-31.4272v-7.6334a2.379 2.379 0 00-4.061-1.6818 2.378 2.378 0 00-.696 1.6818v5.9119l-34.3302 5.7232-3.979-7.949a2.3794 2.3794 0 00-1.3755-1.1929 2.378 2.378 0 00-2.5493.6981 2.3786 2.3786 0 00-.3306 2.6225l4.1919 8.3858-13.651 24.268a2.3786 2.3786 0 00.8899 3.229c.3602.206.7682.315 1.1834.315l26.9548.006zM79.588 106.26l8.9592 17.92h-19.039l10.0798-17.92zm13.2735 15.906l-9.5829-19.161 28.7474-4.7903-19.1645 23.9513z" fill="#FF6242" stroke="#45413C" stroke-width="1.6" stroke-linecap="round" stroke-linejoin="round"/>
  <path d="M123.581 80.0153l-7.899.687a3.1705 3.1705 0 00-2.133 1.1287 3.1702 3.1702 0 00-.721 2.3026c.072.8326.47 1.6029 1.108 2.1435a3.1696 3.1696 0 002.295.7434l7.898-.6871a3.1753 3.1753 0 002.179-1.1081c.271-.3196.477-.6899.605-1.0896.127-.3997.174-.8207.138-1.2386a3.1583 3.1583 0 00-.35-1.1963 3.171 3.171 0 00-.783-.9692 3.1758 3.1758 0 00-1.097-.5923 3.1706 3.1706 0 00-1.24-.124v0z" fill="#656769" stroke="#45413C" stroke-width="1.6" stroke-linecap="round" stroke-linejoin="round"/>
  <path d="M84.4685 85.3335H70.375a4.872 4.872 0 00-4.8428 3.8145 4.7605 4.7605 0 00.9841 3.954 4.7612 4.7612 0 003.682 1.745 4.6809 4.6809 0 002.2757-.5859 23.6218 23.6218 0 0111.4766-2.5853h.3518a3.29 3.29 0 003.298-2.638 3.1705 3.1705 0 00-.7044-2.5806 3.1716 3.1716 0 00-2.4275-1.1237z" fill="#656769"/>
  <path d="M65.7286 91.6473a4.9287 4.9287 0 014.6465-3.1424h14.0935a3.16 3.16 0 012.7362 1.584 2.9344 2.9344 0 00.3896-1.057 3.1716 3.1716 0 00-.7029-2.5788 3.1725 3.1725 0 00-2.4244-1.1254h-14.092a4.871 4.871 0 00-4.8428 3.8144 4.8234 4.8234 0 00.1721 2.5067" fill="#87898C"/>
  <path d="M84.4685 85.3335H70.375a4.872 4.872 0 00-4.8428 3.8145 4.7605 4.7605 0 00.9841 3.954 4.7612 4.7612 0 003.682 1.745 4.6809 4.6809 0 002.2757-.5859 23.6218 23.6218 0 0111.4766-2.5853h.3518a3.29 3.29 0 003.298-2.638 3.1705 3.1705 0 00-.7044-2.5806 3.1716 3.1716 0 00-2.4275-1.1237z" stroke="#45413C" stroke-width="1.6" stroke-linecap="round" stroke-linejoin="round"/>
</svg>
