<svg width="160" height="160" fill="none" xmlns="http://www.w3.org/2000/svg">
  <path d="M16 80c0 16.9739 6.7428 33.253 18.7452 45.255C46.7475 137.257 63.0261 144 80 144c16.9739 0 33.253-6.743 45.255-18.745C137.257 113.253 144 96.9739 144 80c0-16.9739-6.743-33.2525-18.745-45.2548C113.253 22.7428 96.9739 16 80 16c-16.9739 0-33.2525 6.7428-45.2548 18.7452C22.7428 46.7475 16 63.0261 16 80z" fill="#CDF2FF"/>
  <path d="M31.9999 134c-12.25 0-12-12-12-12V38c0-11.75 12-12 12-12H128.25c12.25 0 12 12 12 12v84c0 11.75-12 12-12 12H31.9999z" fill="#BDE0F8"/>
  <g opacity=".5" fill="#3F456B">
    <path opacity=".5" d="M106.75 41.25h-.25c-.332 0-.649-.1317-.884-.3661A1.2517 1.2517 0 01105.25 40c0-.3315.132-.6495.366-.8839.235-.2344.552-.3661.884-.3661h.25c.332 0 .649.1317.884.3661.234.2344.366.5524.366.8839s-.132.6495-.366.8839a1.2505 1.2505 0 01-.884.3661zm-5.25 0h-.25c-.332 0-.649-.1317-.884-.3661A1.2517 1.2517 0 01100 40c0-.3315.132-.6495.366-.8839.235-.2344.552-.3661.884-.3661h.25c.332 0 .649.1317.884.3661.234.2344.366.5524.366.8839s-.132.6495-.366.8839a1.2505 1.2505 0 01-.884.3661zm-5.25 0H96a1.2501 1.2501 0 010-2.5h.25a1.2501 1.2501 0 010 2.5zm-5.25 0h-.25a1.2501 1.2501 0 010-2.5H91a1.2501 1.2501 0 010 2.5zm-5.25 0h-.25a1.2501 1.2501 0 010-2.5h.25a1.2501 1.2501 0 010 2.5zm-5.25 0h-.25a1.2501 1.2501 0 010-2.5h.25a1.2501 1.2501 0 010 2.5zM106.75 61.25h-.25c-.332 0-.649-.1317-.884-.3661A1.2517 1.2517 0 01105.25 60c0-.3315.132-.6495.366-.8839.235-.2344.552-.3661.884-.3661h.25c.332 0 .649.1317.884.3661.234.2344.366.5524.366.8839s-.132.6495-.366.8839a1.2505 1.2505 0 01-.884.3661zm-5.25 0h-.25c-.332 0-.649-.1317-.884-.3661A1.2517 1.2517 0 01100 60c0-.3315.132-.6495.366-.8839.235-.2344.552-.3661.884-.3661h.25c.332 0 .649.1317.884.3661.234.2344.366.5524.366.8839s-.132.6495-.366.8839a1.2505 1.2505 0 01-.884.3661zm-5.25 0H96a1.2501 1.2501 0 010-2.5h.25a1.2501 1.2501 0 010 2.5zm-5.25 0h-.25a1.2501 1.2501 0 010-2.5H91a1.2501 1.2501 0 010 2.5zm-5.25 0h-.25a1.2501 1.2501 0 010-2.5h.25a1.2501 1.2501 0 010 2.5zm-5.25 0h-.25a1.2501 1.2501 0 010-2.5h.25a1.2501 1.2501 0 010 2.5zM106.75 81.25h-.25c-.332 0-.649-.1317-.884-.3661A1.2517 1.2517 0 01105.25 80c0-.3315.132-.6495.366-.8839.235-.2344.552-.3661.884-.3661h.25c.332 0 .649.1317.884.3661.234.2344.366.5524.366.8839s-.132.6495-.366.8839a1.2505 1.2505 0 01-.884.3661zm-5.25 0h-.25c-.332 0-.649-.1317-.884-.3661A1.2517 1.2517 0 01100 80c0-.3315.132-.6495.366-.8839.235-.2344.552-.3661.884-.3661h.25c.332 0 .649.1317.884.3661.234.2344.366.5524.366.8839s-.132.6495-.366.8839a1.2505 1.2505 0 01-.884.3661zm-5.25 0H96a1.2501 1.2501 0 010-2.5h.25a1.2501 1.2501 0 010 2.5zm-5.25 0h-.25a1.2501 1.2501 0 010-2.5H91a1.2501 1.2501 0 010 2.5zm-5.25 0h-.25a1.2501 1.2501 0 010-2.5h.25a1.2501 1.2501 0 010 2.5zm-5.25 0h-.25a1.2501 1.2501 0 010-2.5h.25a1.2501 1.2501 0 010 2.5zM106.75 121.25h-.25c-.332 0-.649-.132-.884-.366a1.2521 1.2521 0 01-.366-.884c0-.332.132-.649.366-.884.235-.234.552-.366.884-.366h.25c.332 0 .649.132.884.366.234.235.366.552.366.884 0 .332-.132.649-.366.884-.235.234-.552.366-.884.366zm-5.25 0h-.25c-.332 0-.649-.132-.884-.366A1.2521 1.2521 0 01100 120c0-.332.132-.649.366-.884.235-.234.552-.366.884-.366h.25c.332 0 .649.132.884.366.234.235.366.552.366.884 0 .332-.132.649-.366.884-.235.234-.552.366-.884.366zm-5.25 0H96c-.3315 0-.6495-.132-.8839-.366a1.2505 1.2505 0 010-1.768c.2344-.234.5524-.366.8839-.366h.25c.3315 0 .6495.132.8839.366a1.2505 1.2505 0 010 1.768 1.2517 1.2517 0 01-.8839.366zm-5.25 0h-.25c-.3315 0-.6495-.132-.8839-.366a1.2505 1.2505 0 010-1.768c.2344-.234.5524-.366.8839-.366H91c.3315 0 .6495.132.8839.366a1.2505 1.2505 0 010 1.768 1.2517 1.2517 0 01-.8839.366zm-5.25 0h-.25c-.3315 0-.6495-.132-.8839-.366a1.2505 1.2505 0 010-1.768c.2344-.234.5524-.366.8839-.366h.25c.3315 0 .6495.132.8839.366a1.2505 1.2505 0 010 1.768 1.2517 1.2517 0 01-.8839.366zm-5.25 0h-.25c-.3315 0-.6495-.132-.8839-.366a1.2505 1.2505 0 010-1.768c.2344-.234.5524-.366.8839-.366h.25c.3315 0 .6495.132.8839.366a1.2505 1.2505 0 010 1.768 1.2517 1.2517 0 01-.8839.366zM124 101.5c-.332 0-.649-.132-.884-.366a1.2521 1.2521 0 01-.366-.884V100c0-.3315.132-.6495.366-.8839a1.2505 1.2505 0 011.768 0c.234.2344.366.5524.366.8839v.25c0 .332-.132.649-.366.884-.235.234-.552.366-.884.366zm0-5.25c-.332 0-.649-.1317-.884-.3661A1.2517 1.2517 0 01122.75 95v-.25c0-.3315.132-.6495.366-.8839a1.2505 1.2505 0 011.768 0c.234.2344.366.5524.366.8839V95c0 .3315-.132.6495-.366.8839a1.2505 1.2505 0 01-.884.3661zM68.25 101.5c-.3315 0-.6495-.132-.8839-.366A1.2505 1.2505 0 0167 100.25V100a1.2501 1.2501 0 012.5 0v.25c0 .332-.1317.649-.3661.884a1.2517 1.2517 0 01-.8839.366zm0-5.25A1.2501 1.2501 0 0167 95v-.25a1.2501 1.2501 0 012.5 0V95a1.2501 1.2501 0 01-1.25 1.25zM52 101.5c-.3315 0-.6495-.132-.8839-.366a1.2505 1.2505 0 01-.3661-.884V100a1.2501 1.2501 0 012.5 0v.25c0 .332-.1317.649-.3661.884A1.2517 1.2517 0 0152 101.5zm0-5.25A1.2501 1.2501 0 0150.75 95v-.25a1.2501 1.2501 0 012.5 0V95A1.2501 1.2501 0 0152 96.25zM36.25 101.5c-.3315 0-.6495-.132-.8839-.366A1.2505 1.2505 0 0135 100.25V100a1.2501 1.2501 0 012.5 0v.25c0 .332-.1317.649-.3661.884a1.2517 1.2517 0 01-.8839.366zm0-5.25A1.2501 1.2501 0 0135 95v-.25a1.2501 1.2501 0 012.5 0V95a1.2501 1.2501 0 01-1.25 1.25z"/>
  </g>
  <path d="M32 135.25c-4 0-7.2075-1.197-9.52-3.56-3.7475-3.825-3.73-9.305-3.73-9.69V38c0-12.825 13.0925-13.25 13.225-13.25a1.252 1.252 0 01.4804.0851 1.2503 1.2503 0 01-.4279 2.4149C31.555 27.2625 21.25 27.655 21.25 38v84.025c0 .045-.0425 4.81 3.03 7.93 1.825 1.855 4.4225 2.795 7.72 2.795.3315 0 .6495.132.8839.366a1.2505 1.2505 0 010 1.768 1.2517 1.2517 0 01-.8839.366zM128.25 135.25c-.331.004-.651-.125-.888-.356a1.2533 1.2533 0 01-.376-.88 1.2515 1.2515 0 011.237-1.264c.472-.013 10.777-.405 10.777-10.75V37.975c0-.045.043-4.81-3.03-7.93-1.825-1.855-4.422-2.795-7.72-2.795-.331 0-.649-.1317-.884-.3661A1.2517 1.2517 0 01127 26c0-.3315.132-.6495.366-.8839.235-.2344.553-.3661.884-.3661 4 0 7.208 1.1975 9.52 3.56 3.748 3.825 3.73 9.305 3.73 9.69v84c0 12.825-13.092 13.25-13.225 13.25h-.025zM52.25 47.5A1.2501 1.2501 0 0151 46.25v-12a1.2501 1.2501 0 012.5 0v12a1.2501 1.2501 0 01-1.25 1.25zM36 67.5a1.2501 1.2501 0 01-1.25-1.25v-12a1.2501 1.2501 0 012.5 0v12A1.2501 1.2501 0 0136 67.5zM68.25 67.5A1.2501 1.2501 0 0167 66.25v-12a1.2501 1.2501 0 012.5 0v12a1.2501 1.2501 0 01-1.25 1.25zM68.25 87.75A1.2501 1.2501 0 0167 86.5v-12a1.2501 1.2501 0 012.5 0v12a1.2501 1.2501 0 01-1.25 1.25zM52 127.25c-.3315 0-.6495-.132-.8839-.366A1.2505 1.2505 0 0150.75 126v-12c0-.332.1317-.649.3661-.884.2344-.234.5524-.366.8839-.366s.6495.132.8839.366c.2344.235.3661.552.3661.884v12c0 .332-.1317.649-.3661.884a1.2517 1.2517 0 01-.8839.366z" fill="#3F456B"/>
  <path d="M36.25 48c-4.035 0-5.5-3.29-5.5-5.5v-4.25c0-2.21 1.465-5.5 5.5-5.5s5.5 3.29 5.5 5.5v4.25c0 2.21-1.465 5.5-5.5 5.5zm0-12.75c-1.25 0-2.0825.45-2.57 1.3725a4.0616 4.0616 0 00-.43 1.6275v4.25a4.0673 4.0673 0 00.43 1.6275C34.1675 45.05 35 45.5 36.25 45.5c1.25 0 2.0825-.45 2.57-1.3725a4.0616 4.0616 0 00.43-1.6275v-4.25a4.0673 4.0673 0 00-.43-1.6275C38.3325 35.7 37.5 35.25 36.25 35.25zM68.25 48c-4.035 0-5.5-3.29-5.5-5.5v-4.25c0-2.21 1.465-5.5 5.5-5.5s5.5 3.29 5.5 5.5v4.25c0 2.21-1.465 5.5-5.5 5.5zm0-12.75c-1.25 0-2.0825.45-2.57 1.3725a4.0616 4.0616 0 00-.43 1.6275v4.25a4.0673 4.0673 0 00.43 1.6275C66.1675 45.05 67 45.5 68.25 45.5c1.25 0 2.0825-.45 2.57-1.3725a4.0616 4.0616 0 00.43-1.6275v-4.25a4.0673 4.0673 0 00-.43-1.6275C70.3325 35.7 69.5 35.25 68.25 35.25zM124 67.5c-.332 0-.649-.1317-.884-.3661a1.2517 1.2517 0 01-.366-.8839v-12c0-.3315.132-.6495.366-.8839a1.2505 1.2505 0 011.768 0c.234.2344.366.5524.366.8839v12c0 .3315-.132.6495-.366.8839A1.2505 1.2505 0 01124 67.5zM124 127.25c-.332 0-.649-.132-.884-.366a1.2521 1.2521 0 01-.366-.884v-12c0-.332.132-.649.366-.884.235-.234.552-.366.884-.366.332 0 .649.132.884.366.234.235.366.552.366.884v12c0 .332-.132.649-.366.884-.235.234-.552.366-.884.366zM124 48c-4.035 0-5.5-3.29-5.5-5.5v-4.25c0-2.21 1.465-5.5 5.5-5.5s5.5 3.29 5.5 5.5v4.25c0 2.21-1.465 5.5-5.5 5.5zm0-12.75c-1.25 0-2.082.45-2.57 1.3725A4.0665 4.0665 0 00121 38.25v4.25c.028.5665.175 1.1209.43 1.6275.488.9225 1.32 1.3725 2.57 1.3725 1.25 0 2.082-.45 2.57-1.3725A4.0665 4.0665 0 00127 42.5v-4.25a4.0673 4.0673 0 00-.43-1.6275c-.488-.9225-1.32-1.3725-2.57-1.3725zM124 87.5c-4.035 0-5.5-3.29-5.5-5.5v-4.25c0-2.21 1.465-5.5 5.5-5.5s5.5 3.29 5.5 5.5V82c0 2.21-1.465 5.5-5.5 5.5zm0-12.75c-1.25 0-2.082.45-2.57 1.3725A4.0665 4.0665 0 00121 77.75V82c.028.5666.175 1.1209.43 1.6275C121.918 84.55 122.75 85 124 85c1.25 0 2.082-.45 2.57-1.3725A4.0665 4.0665 0 00127 82v-4.25a4.0673 4.0673 0 00-.43-1.6275c-.488-.9225-1.32-1.3725-2.57-1.3725zM52 67.5c-4.035 0-5.5-3.29-5.5-5.5v-4.25c0-2.21 1.465-5.5 5.5-5.5s5.5 3.29 5.5 5.5V62c0 2.21-1.465 5.5-5.5 5.5zm0-12.75c-1.25 0-2.0825.45-2.57 1.3725A4.0616 4.0616 0 0049 57.75V62a4.0673 4.0673 0 00.43 1.6275C49.9175 64.55 50.75 65 52 65c1.25 0 2.0825-.45 2.57-1.3725A4.0616 4.0616 0 0055 62v-4.25a4.069 4.069 0 00-.43-1.6275C54.0825 55.2 53.25 54.75 52 54.75zM52 87.75c-4.035 0-5.5-3.29-5.5-5.5V78c0-2.21 1.465-5.5 5.5-5.5s5.5 3.29 5.5 5.5v4.25c0 2.21-1.465 5.5-5.5 5.5zM52 75c-1.25 0-2.0825.45-2.57 1.3725A4.0616 4.0616 0 0049 78v4.25a4.0669 4.0669 0 00.43 1.6275C49.9175 84.8 50.75 85.25 52 85.25c1.25 0 2.0825-.45 2.57-1.3725A4.0616 4.0616 0 0055 82.25V78a4.069 4.069 0 00-.43-1.6275C54.0825 75.45 53.25 75 52 75zM36.25 87.75c-4.035 0-5.5-3.29-5.5-5.5V78c0-2.21 1.465-5.5 5.5-5.5s5.5 3.29 5.5 5.5v4.25c0 2.21-1.465 5.5-5.5 5.5zm0-12.75c-1.25 0-2.0825.45-2.57 1.3725A4.0616 4.0616 0 0033.25 78v4.25a4.0669 4.0669 0 00.43 1.6275C34.1675 84.8 35 85.25 36.25 85.25c1.25 0 2.0825-.45 2.57-1.3725a4.0616 4.0616 0 00.43-1.6275V78a4.0673 4.0673 0 00-.43-1.6275C38.3325 75.45 37.5 75 36.25 75zM68.25 127.5c-4.035 0-5.5-3.29-5.5-5.5v-4.25c0-2.21 1.465-5.5 5.5-5.5s5.5 3.29 5.5 5.5V122c0 2.21-1.465 5.5-5.5 5.5zm0-12.75c-1.25 0-2.0825.45-2.57 1.372a4.0643 4.0643 0 00-.43 1.628V122c.0283.567.1747 1.121.43 1.628.4875.922 1.32 1.372 2.57 1.372 1.25 0 2.0825-.45 2.57-1.372a4.0643 4.0643 0 00.43-1.628v-4.25a4.0692 4.0692 0 00-.43-1.628c-.4875-.922-1.32-1.372-2.57-1.372zM36 127.5c-4.035 0-5.5-3.29-5.5-5.5v-4.25c0-2.21 1.465-5.5 5.5-5.5s5.5 3.29 5.5 5.5V122c0 2.21-1.465 5.5-5.5 5.5zm0-12.75c-1.25 0-2.0825.45-2.57 1.372a4.0643 4.0643 0 00-.43 1.628V122c.0283.567.1747 1.121.43 1.628.4875.922 1.32 1.372 2.57 1.372 1.25 0 2.0825-.45 2.57-1.372A4.0643 4.0643 0 0039 122v-4.25a4.0692 4.0692 0 00-.43-1.628c-.4875-.922-1.32-1.372-2.57-1.372z" fill="#3F456B"/>
</svg>
