<svg xmlns="http://www.w3.org/2000/svg" version="1.1" xmlns:xlink="http://www.w3.org/1999/xlink" xmlns:svgjs="http://svgjs.com/svgjs" viewBox="0 0 160 160" width="160" height="160"><g transform="matrix(1.6,0,0,1.6,0,0)"><path d="M5.562 50.000 A40.000 40.000 0 1 0 85.562 50.000 A40.000 40.000 0 1 0 5.562 50.000 Z" fill="#c7f0ff" stroke="#c7f0ff" stroke-miterlimit="10"></path><path d="M68.2,68.359a2,2,0,0,1-2,2H13.373a2,2,0,0,1-2-2V36.932H68.2Z" fill="#00b8f0"></path><path d="M11.373,68.359a2,2,0,0,0,2,2H19.4L50.806,36.932H11.373Z" fill="#4acfff"></path><path d="M68.2,68.359a2,2,0,0,1-2,2H13.373a2,2,0,0,1-2-2V36.932H68.2Z" fill="none" stroke="#45413c" stroke-linecap="round" stroke-linejoin="round"></path><path d="M68.2,36.932H11.373V30.91a2,2,0,0,1,2-2H66.2a2,2,0,0,1,2,2Z" fill="#c7f0ff"></path><path d="M68.2,30.91a2,2,0,0,0-2-2H13.373a2,2,0,0,0-2,2v4.135a2.793,2.793,0,0,1,2.793-2.793H65.405A2.794,2.794,0,0,1,68.2,35.045Z" fill="#ffffff"></path><path d="M68.2,36.932H11.373V30.91a2,2,0,0,1,2-2H66.2a2,2,0,0,1,2,2Z" fill="none" stroke="#45413c" stroke-linecap="round" stroke-linejoin="round"></path><path d="M14.047 32.921 A1.337 1.337 0 1 0 16.721 32.921 A1.337 1.337 0 1 0 14.047 32.921 Z" fill="#ff6242" stroke="#45413c" stroke-linecap="round" stroke-linejoin="round"></path><path d="M19.395 32.921 A1.337 1.337 0 1 0 22.069 32.921 A1.337 1.337 0 1 0 19.395 32.921 Z" fill="#ffe500" stroke="#45413c" stroke-linecap="round" stroke-linejoin="round"></path><path d="M24.743 32.921 A1.337 1.337 0 1 0 27.417 32.921 A1.337 1.337 0 1 0 24.743 32.921 Z" fill="#6dd627" stroke="#45413c" stroke-linecap="round" stroke-linejoin="round"></path><path d="M68.2,30.91a2,2,0,0,0-2-2H31.816A25.54,25.54,0,0,0,68.2,56.542V30.91Z" fill="#45413c" opacity=".15"></path><path d="M71.341 44.984H76.886V54.689H71.341z" fill="#f0f0f0" stroke="#45413c" stroke-linecap="round" stroke-linejoin="round" transform="translate(-13.532 67.001) rotate(-44.999)"></path><path d="M36.162 33.661 A20.796 20.796 0 1 0 77.754 33.661 A20.796 20.796 0 1 0 36.162 33.661 Z" fill="#f0f0f0" stroke="#45413c" stroke-linecap="round" stroke-linejoin="round" transform="translate(-9.063 37.959) rotate(-34.307)"></path><path d="M40.322 33.661 A16.636 16.636 0 1 0 73.594 33.661 A16.636 16.636 0 1 0 40.322 33.661 Z" fill="#00b8f0" transform="translate(14.608 84.491) rotate(-80.783)"></path><path d="M68.735,21.912A16.635,16.635,0,1,0,45.209,45.438Z" fill="#4acfff"></path><path d="M68.722,21.9a16.636,16.636,0,1,1-23.528,0A16.636,16.636,0,0,1,68.722,21.9Z" fill="none" stroke="#45413c" stroke-miterlimit="10"></path><path d="M87.677,69.282a3,3,0,0,0,4.244,0l1.638-1.64a3,3,0,0,0,0-4.242L80.212,50.053a1,1,0,0,0-1.414,0L74.33,54.52a1,1,0,0,0,0,1.415Z" fill="#dea47a"></path><path d="M92.835,68.366l.724-.724a3,3,0,0,0,0-4.243L80.212,50.053a1,1,0,0,0-1.414,0l-2.234,2.234L92.75,68.451Z" fill="#f0c2a1"></path><path d="M93.559,63.4a3,3,0,0,1,0,4.243l-1.639,1.639a3,3,0,0,1-4.242,0L74.33,55.935a1,1,0,0,1,0-1.415L78.8,50.053a1,1,0,0,1,1.414,0Z" fill="none" stroke="#45413c" stroke-miterlimit="10"></path><path d="M49.435,40.622a1.863,1.863,0,0,1-1.323-.548l-4.2-4.2a3.246,3.246,0,0,1,0-4.585l4.2-4.2a1.871,1.871,0,0,1,2.646,2.646L47.2,33.289a.416.416,0,0,0,0,.586l3.555,3.553a1.871,1.871,0,0,1-1.323,3.194Z" fill="#ffffff"></path><path d="M49.435,27.041a1.371,1.371,0,0,1,.969,2.34L46.85,32.935a.914.914,0,0,0,0,1.293L50.4,37.782a1.371,1.371,0,0,1-1.938,1.939l-4.2-4.2a2.741,2.741,0,0,1,0-3.877l4.2-4.2a1.367,1.367,0,0,1,.969-.4m0-1a2.356,2.356,0,0,0-1.676.694l-4.2,4.2a3.745,3.745,0,0,0,0,5.291l4.2,4.2a2.371,2.371,0,0,0,3.353-3.353l-3.494-3.493,3.493-3.494a2.371,2.371,0,0,0-1.676-4.047Z" fill="#009fd9"></path><path d="M64.317,40.985a1.871,1.871,0,0,1-1.323-3.194l3.555-3.554a.415.415,0,0,0,0-.585L62.994,30.1a1.871,1.871,0,0,1,2.646-2.645l4.2,4.2a3.241,3.241,0,0,1,0,4.585l-4.2,4.2A1.863,1.863,0,0,1,64.317,40.985Z" fill="#ffffff"></path><path d="M64.317,27.4a1.367,1.367,0,0,1,.969.4l4.2,4.2a2.744,2.744,0,0,1,0,3.878l-4.2,4.2a1.37,1.37,0,0,1-1.938-1.938L66.9,34.59a.913.913,0,0,0,0-1.292l-3.554-3.554a1.371,1.371,0,0,1,.969-2.34m0-1a2.37,2.37,0,0,0-1.676,4.047l3.493,3.493-3.493,3.494a2.371,2.371,0,0,0,3.352,3.353l4.2-4.2a3.746,3.746,0,0,0,0-5.292l-4.2-4.2a2.354,2.354,0,0,0-1.676-.694Z" fill="#009fd9"></path><path d="M55.1,42.112a1.947,1.947,0,0,1-1.849-2.553l4.671-14.208a1.945,1.945,0,1,1,3.7,1.216L56.942,40.774A1.939,1.939,0,0,1,55.1,42.112Z" fill="#ffffff"></path><path d="M59.766,24.513a1.444,1.444,0,0,1,1.373,1.9L56.468,40.618a1.445,1.445,0,0,1-2.746-.9l4.671-14.208a1.447,1.447,0,0,1,1.373-.994m0-1h0A2.441,2.441,0,0,0,57.443,25.2L52.772,39.4a2.445,2.445,0,1,0,4.646,1.528l4.671-14.207a2.447,2.447,0,0,0-2.323-3.21Z" fill="#009fd9"></path><path d="M24.303 78.455 A15.75 1.474 0 1 0 55.803 78.455 A15.75 1.474 0 1 0 24.303 78.455 Z" fill="#45413c" opacity=".15"></path></g></svg>