<svg viewBox="0 0 160 160" height="160" width="160" xmlns="http://www.w3.org/2000/svg"><g transform="matrix(1.6,0,0,1.6,0,0)"><path d="M6.063 49.388 A40.000 40.000 0 1 0 86.063 49.388 A40.000 40.000 0 1 0 6.063 49.388 Z" fill="#C7F0FF" stroke="#C7F0FF"></path><path d="M35.375 67.648L63.385 86.544 63.385 82.33 41.324 67.648 35.375 67.648z" fill="#debb7e"></path><path d="M47.147 71.523L41.324 67.648 35.375 67.648 41.119 71.523 47.147 71.523z" fill="#b89558"></path><path d="M89.289,67.65H18.168a1,1,0,0,1-1-1V65.178a1,1,0,0,1,1-1H89.289Z" fill="#debb7e"></path><path d="M89.289,67.65H18.168a1,1,0,0,1-1-1V65.178a1,1,0,0,1,1-1H89.289" fill="none" stroke="#45413c" stroke-linecap="round" stroke-linejoin="round"></path><path d="M63.385 67.65H69.582V90.61200000000001H63.385z" fill="#debb7e"></path><path d="M63.385 67.65H69.582V71.525H63.385z" fill="#b89558"></path><path d="M63.385 90.612L63.385 67.65 69.582 67.65 69.582 90.612" fill="none" stroke="#45413c" stroke-linecap="round" stroke-linejoin="round"></path><path d="M35.375 67.648L63.385 86.544 63.385 82.33 41.324 67.648 35.375 67.648z" fill="none" stroke="#45413c" stroke-linecap="round" stroke-linejoin="round"></path><path d="M28.224,45.577c0-1.218-1.744-5.838-4.279-9.2-4.836-6.411-9.544-3.064-9.544-.438V51.29a8.653,8.653,0,0,0,8.653,8.652H26.22c6.707,0,13.773-8.055,16.9-12.1a1.4,1.4,0,0,0-1.11-2.264Z" fill="#b8ecff" stroke="#45413c" stroke-linecap="round" stroke-linejoin="round"></path><path d="M40.83,59.024a.7.7,0,0,1-.669.918H28.686a8.97,8.97,0,0,1-8.97-8.97A7.076,7.076,0,0,1,26.791,43.9C35.342,43.9,39.734,55.618,40.83,59.024Z" fill="#80ddff"></path><path d="M21.923,54.447A7.076,7.076,0,0,1,29,47.372c3.9,0,6.936,2.439,9.188,5.415-2.3-4.278-6.031-8.89-11.395-8.89a7.076,7.076,0,0,0-7.075,7.075,8.942,8.942,0,0,0,2.7,6.414A8.96,8.96,0,0,1,21.923,54.447Z" fill="#b8ecff"></path><path d="M25.066,44.109a7.057,7.057,0,0,1,1.725-.212c8.551,0,12.943,11.721,14.039,15.127a.7.7,0,0,1-.669.918H28.686a8.974,8.974,0,0,1-8.738-6.932" fill="none" stroke="#45413c" stroke-linecap="round" stroke-linejoin="round"></path><path d="M14.4,35.305A9.771,9.771,0,0,0,9.53,39.884a.7.7,0,0,0,.623,1.033c1.572-.007,4.248-.015,4.248,0Z" fill="#ffe500" stroke="#45413c" stroke-linecap="round" stroke-linejoin="round"></path><path d="M17.109 37.353 A1.666 1.666 0 1 0 20.441 37.353 A1.666 1.666 0 1 0 17.109 37.353 Z" fill="#45413c"></path><path d="M24.244 59.942L24.244 64.178" fill="none" stroke="#45413c" stroke-linecap="round" stroke-linejoin="round"></path><path d="M27.688 59.887L27.688 64.178" fill="none" stroke="#45413c" stroke-linecap="round" stroke-linejoin="round"></path><path d="M91.2,40.673a2.724,2.724,0,0,1-1.688-.583L67.144,22.553,44.779,40.09A2.738,2.738,0,1,1,41.4,35.78L65.455,16.919a2.738,2.738,0,0,1,3.379,0L92.889,35.78A2.738,2.738,0,0,1,91.2,40.673Z" fill="#ff6242"></path><path d="M81.233 64.178L53.056 64.178 50.318 35.748 67.144 22.555 83.971 35.748 81.233 64.178z" fill="#fff"></path><path d="M67.144 26.895L83.582 39.784 83.971 35.748 67.144 22.555 50.318 35.748 50.707 39.784 67.144 26.895z" fill="#C7F0FF"></path><path d="M81.233 64.178L53.056 64.178 50.318 35.748 67.144 22.555 83.971 35.748 81.233 64.178z" fill="none" stroke="#45413c" stroke-linecap="round" stroke-linejoin="round"></path><path d="M41.133,39.849a2.959,2.959,0,0,1,.268-.256L65.455,20.731a2.738,2.738,0,0,1,3.379,0L92.889,39.593a3.262,3.262,0,0,1,.269.256,2.64,2.64,0,0,0,.2-.224,2.739,2.739,0,0,0-.465-3.845L68.834,16.919a2.738,2.738,0,0,0-3.379,0L41.4,35.78a2.738,2.738,0,0,0-.466,3.845A2.661,2.661,0,0,0,41.133,39.849Z" fill="#ff866e"></path><path d="M91.2,40.673a2.724,2.724,0,0,1-1.688-.583L67.144,22.553,44.779,40.09A2.738,2.738,0,1,1,41.4,35.78L65.455,16.919a2.738,2.738,0,0,1,3.379,0L92.889,35.78A2.738,2.738,0,0,1,91.2,40.673Z" fill="none" stroke="#45413c" stroke-linecap="round" stroke-linejoin="round"></path><path d="M60.540 42.079 A6.605 6.605 0 1 0 73.750 42.079 A6.605 6.605 0 1 0 60.540 42.079 Z" fill="#656769" stroke="#45413c" stroke-linecap="round" stroke-linejoin="round"></path><path d="M65.093 56.370 A2.052 2.052 0 1 0 69.197 56.370 A2.052 2.052 0 1 0 65.093 56.370 Z" fill="#656769" stroke="#45413c" stroke-linecap="round" stroke-linejoin="round"></path></g></svg>