<svg xmlns="http://www.w3.org/2000/svg" version="1.1" xmlns:xlink="http://www.w3.org/1999/xlink" xmlns:svgjs="http://svgjs.com/svgjs" viewBox="0 0 160 160" width="160" height="160"><g transform="matrix(1.6,0,0,1.6,0,0)"><path d="M10.000 42.773 A40.000 40.000 0 1 0 90.000 42.773 A40.000 40.000 0 1 0 10.000 42.773 Z" fill="#c7f0ff"></path><path d="M45.836,2.989a40,40,0,0,0,0,79.569Z" fill="#bf8256"></path><path d="M45.836 82.558L45.836 2.989" fill="none" stroke="#45413c" stroke-linecap="round" stroke-linejoin="round"></path><path d="M34.873 32.583 A3.959 7.159 0 1 0 42.791 32.583 A3.959 7.159 0 1 0 34.873 32.583 Z" fill="#915e3a"></path><path d="M35.974 46.683L35.974 69.814" fill="none" stroke="#915e3a" stroke-linecap="round" stroke-linejoin="round"></path><path d="M20.974 35.117L20.974 58.249" fill="none" stroke="#915e3a" stroke-linecap="round" stroke-linejoin="round"></path><path d="M20.974 15.658L20.974 27.27" fill="none" stroke="#915e3a" stroke-linecap="round" stroke-linejoin="round"></path><path d="M29.126 27.628L29.126 42.773" fill="none" stroke="#915e3a" stroke-linecap="round" stroke-linejoin="round"></path><path d="M35.724 13.367L35.724 18.78" fill="none" stroke="#915e3a" stroke-linecap="round" stroke-linejoin="round"></path><path d="M29.126 60.641L29.126 66.054" fill="none" stroke="#915e3a" stroke-linecap="round" stroke-linejoin="round"></path><path d="M45.836,2.989c2.142,1.661,4.858,5.782,4.838,8.894" fill="none" stroke="#45413c" stroke-linecap="round" stroke-linejoin="round"></path><path d="M50.651,11.916a3.5,3.5,0,0,1,3.542,2.758c.67,2.66-1.22,6.452-.773,8.225S46.046,17.64,50.651,11.916Z" fill="#6dd627" stroke="#45413c" stroke-linecap="round" stroke-linejoin="round"></path><path d="M49.587,7.863a3.5,3.5,0,0,1,3.178-3.169c2.723-.334,6.25,2.015,8.065,1.793S54.691,13.147,49.587,7.863Z" fill="#6dd627" stroke="#45413c" stroke-linecap="round" stroke-linejoin="round"></path><path d="M42.675,34.313a12.741,12.741,0,0,0,.117-1.73c0-3.953-1.773-7.158-3.96-7.158s-3.959,3.2-3.959,7.158a12.741,12.741,0,0,0,.117,1.73h0c.429-3.116,1.982-5.429,3.838-5.429s3.41,2.313,3.838,5.429" fill="#724f3d"></path><path d="M34.873 32.583 A3.959 7.159 0 1 0 42.791 32.583 A3.959 7.159 0 1 0 34.873 32.583 Z" fill="none" stroke="#45413c" stroke-linecap="round" stroke-linejoin="round"></path><path d="M61.556,23.316s-1.742-6.943,5.8-9.647c5.37-1.924,9.94,4.028,15.82,4.512a.73.73,0,0,1,.2,1.409C74.954,22.8,61.556,23.316,61.556,23.316Z" fill="#ff6242"></path><path d="M61.556,23.316s-1.742-6.943,5.8-9.647c5.37-1.924,9.94,4.028,15.819,4.512a.73.73,0,0,1,.2,1.409c-.586.223-1.195.433-1.822.63-.268.085-.54.167-.814.248v0c-4.759-1.519-8.778-5.652-13.383-4-4.2,1.506-5.521,4.324-5.867,6.527" fill="#ff866e"></path><path d="M61.556,23.316s-1.742-6.943,5.8-9.647c5.37-1.924,9.94,4.028,15.82,4.512a.73.73,0,0,1,.2,1.409C74.954,22.8,61.556,23.316,61.556,23.316Z" fill="none" stroke="#45413c" stroke-linecap="round" stroke-linejoin="round"></path><path d="M69.056,66.456S64.169,88.3,66.563,96.288a.728.728,0,0,1-.966.887c-11.209-4.425-8.069-20.247.341-33.31Z" fill="#656769"></path><path d="M59.816,76.691A22.951,22.951,0,0,0,66.88,78.6c.926-6.551,2.175-12.141,2.175-12.141l-3.117-2.591A53.353,53.353,0,0,0,59.816,76.691Z" fill="#525252"></path><path d="M69.056,66.456S64.169,88.3,66.563,96.288a.728.728,0,0,1-.966.887c-11.209-4.425-8.069-20.247.341-33.31Z" fill="none" stroke="#45413c" stroke-linecap="round" stroke-linejoin="round"></path><path d="M71.358,66.237s-.807,22.044,3,29.423a.729.729,0,0,1-.788,1.051C61.757,94.405,61.957,78.275,67.82,63.9Z" fill="#656769"></path><path d="M67.82,63.9a52.191,52.191,0,0,0-3.76,14.59,21.494,21.494,0,0,0,5.023.568,22.735,22.735,0,0,0,2.376-.128c-.313-6.763-.1-12.693-.1-12.693Z" fill="#525252"></path><path d="M71.358,66.237s-.807,22.044,3,29.423a.729.729,0,0,1-.788,1.051C61.757,94.405,61.957,78.275,67.82,63.9Z" fill="none" stroke="#45413c" stroke-linecap="round" stroke-linejoin="round"></path><path d="M62.878,24.826,50.571,25.973a1.285,1.285,0,0,0-.013,2.558l12.32,1.275Z" fill="#ffe500" stroke="#45413c" stroke-linecap="round" stroke-linejoin="round"></path><path d="M77.725,26.992A8.633,8.633,0,1,0,63.232,33.32a1.24,1.24,0,0,1,.163,1.638c-1.276,1.761-2.75,3.2-4.87,5.564-3.876,4.333-7.033,10.336-7.033,15.284A19.187,19.187,0,0,0,70.679,74.992V48.132A36.792,36.792,0,0,1,74.521,33.7,8.612,8.612,0,0,0,77.725,26.992Z" fill="#fff5e3"></path><path d="M69.54,66.819c-7.478,0-14.1-4.861-17.985-12.251-.041.416-.063.835-.063,1.238A19.187,19.187,0,0,0,70.679,74.992V66.745C70.3,66.77,69.924,66.819,69.54,66.819Z" fill="#f7e5c6"></path><path d="M77.725,26.992A8.633,8.633,0,1,0,63.232,33.32a1.24,1.24,0,0,1,.163,1.638c-1.276,1.761-2.75,3.2-4.87,5.564-3.876,4.333-7.033,10.336-7.033,15.284A19.187,19.187,0,0,0,70.679,74.992V48.132A36.792,36.792,0,0,1,74.521,33.7,8.612,8.612,0,0,0,77.725,26.992Z" fill="none" stroke="#45413c" stroke-linecap="round" stroke-linejoin="round"></path><path d="M61.308,30.722a8.631,8.631,0,0,1,.446-8.28,13.507,13.507,0,0,1,9.487,1.442c4.77.277,5.514,2.542,6.478,3.415A8.584,8.584,0,0,1,75.81,32.41l0,0c-.666-1.665-1.3-4.076-4.869-3.653a6.2,6.2,0,0,1-9.63,1.967Z" fill="#656769" stroke="#45413c" stroke-linecap="round" stroke-linejoin="round"></path><path d="M76.485,55.546c-2.861,7.58-1.751,18.917-1.124,23.541a.73.73,0,0,1-1.228.625C45.851,52.623,63.961,40.973,69.1,40.973,74.328,40.973,79.694,47.047,76.485,55.546Z" fill="#656769"></path><path d="M51.18 54.737L45.836 54.737" fill="none" stroke="#45413c" stroke-linecap="round" stroke-linejoin="round"></path><path d="M63.891 26.109 A1.459 1.459 0 1 0 66.809 26.109 A1.459 1.459 0 1 0 63.891 26.109 Z" fill="#45413c"></path><path d="M77.345,52.188c.876-6.7-3.736-11.215-8.246-11.215-3.021,0-10.53,4.03-10.45,12.859,2.9-4.445,7.607-6.538,9.985-6.538A11.218,11.218,0,0,1,77.345,52.188Z" fill="#87898c"></path><path d="M76.485,55.546c-2.861,7.58-1.751,18.917-1.124,23.541a.73.73,0,0,1-1.228.625C45.851,52.623,63.961,40.973,69.1,40.973,74.328,40.973,79.694,47.047,76.485,55.546Z" fill="none" stroke="#45413c" stroke-linecap="round" stroke-linejoin="round"></path></g></svg>