<svg width="160" height="160" fill="none" xmlns="http://www.w3.org/2000/svg">
  <g clip-path="url(#clip0)">
    <path d="M54.4087 138.66c15.5577 6.788 33.1745 7.117 48.9753.915 15.8-6.201 28.49-18.426 35.277-33.984 6.787-15.5573 7.116-33.1741.915-48.9745-6.202-15.8003-18.426-28.4899-33.984-35.2773-15.5578-6.7873-33.1747-7.1163-48.975-.9147-15.8004 6.2017-28.49 18.426-35.2773 33.9837-6.7873 15.5578-7.1164 33.1746-.9147 48.9748 6.2016 15.801 18.4259 28.49 33.9837 35.277v0z" fill="#C7F0FF" stroke="#C7F0FF" stroke-width="1.6"/>
    <path d="M63.1154 38.8928l-29.7408 9.6864a4.8843 4.8843 0 00-2.8432 2.4298 4.8852 4.8852 0 00-.2912 3.7286L48.373 110.418l2.9216 3.651a4.8858 4.8858 0 006.8656.761l36.248-29.006a4.8852 4.8852 0 001.8034-3.2758 4.8861 4.8861 0 00-1.0418-3.5914l-32.0544-40.064z" fill="#C7F0FF"/>
    <path d="M107.947 92.9808a4.8842 4.8842 0 01-.291 3.7279 4.8834 4.8834 0 01-2.841 2.4305L60.6673 113.515a4.887 4.887 0 01-3.7272-.291 4.8871 4.8871 0 01-2.4296-2.842L34.0817 47.648a4.887 4.887 0 01.2912-3.7279 4.887 4.887 0 012.8416-2.4305l44.144-14.3744a4.888 4.888 0 016.16 3.1328l20.4285 62.7328z" fill="#fff"/>
    <path d="M60.6672 113.515l10.4672-3.409V41.4399H58.0976a3.6656 3.6656 0 00-3.664 3.6656v65.0385l.0768.238a4.8868 4.8868 0 002.4296 2.842 4.887 4.887 0 003.7272.291z" fill="#C7F0FF"/>
    <path d="M107.947 92.9808a4.8842 4.8842 0 01-.291 3.7279 4.8834 4.8834 0 01-2.841 2.4305L60.6673 113.515a4.887 4.887 0 01-3.7272-.291 4.8871 4.8871 0 01-2.4296-2.842L34.0817 47.648a4.887 4.887 0 01.2912-3.7279 4.887 4.887 0 012.8416-2.4305l44.144-14.3744a4.888 4.888 0 016.16 3.1328l20.4285 62.7328z" stroke="#45413C" stroke-width="1.6" stroke-linecap="round" stroke-linejoin="round"/>
    <path d="M40.707 46.5985l5.2288-1.7008a3.0544 3.0544 0 011.8896 5.808l-2.3216.7536a3.0602 3.0602 0 00-1.964 3.8568 3.0604 3.0604 0 003.8568 1.964l5.2256-1.712" stroke="#45413C" stroke-width="1.6" stroke-linecap="round" stroke-linejoin="round"/>
    <path d="M64.2062 37.7695h46.4258a4.885 4.885 0 013.455 1.4312 4.888 4.888 0 011.431 3.4552v65.9731c0 .641-.126 1.277-.372 1.87a4.8727 4.8727 0 01-1.059 1.585c-.454.454-.992.814-1.585 1.059a4.878 4.878 0 01-1.87.372H64.2078a4.8808 4.8808 0 01-1.8705-.372 4.8926 4.8926 0 01-1.5858-1.06 4.8749 4.8749 0 01-1.0596-1.585 4.8906 4.8906 0 01-.3721-1.871V42.6559a4.8861 4.8861 0 014.8864-4.8864z" fill="#fff"/>
    <path d="M64.2062 37.7695h46.4258a4.885 4.885 0 013.455 1.4312 4.888 4.888 0 011.431 3.4552v65.9731c0 .641-.126 1.277-.372 1.87a4.8727 4.8727 0 01-1.059 1.585c-.454.454-.992.814-1.585 1.059a4.878 4.878 0 01-1.87.372H64.2078a4.8808 4.8808 0 01-1.8705-.372 4.8926 4.8926 0 01-1.5858-1.06 4.8749 4.8749 0 01-1.0596-1.585 4.8906 4.8906 0 01-.3721-1.871V42.6559a4.8861 4.8861 0 014.8864-4.8864v0z" stroke="#45413C" stroke-width="1.6" stroke-linecap="round" stroke-linejoin="round"/>
    <path d="M73.9809 54.88l-3.7872-11.36a1.16 1.16 0 00-2.2 0l-3.7872 11.36M65.021 52.4304h8.1488M100.858 96.4111l3.787 11.3599c.077.231.225.431.422.573.198.142.435.219.678.219.243 0 .48-.077.678-.219.197-.142.345-.342.422-.573l3.787-11.3599M109.818 98.8545h-8.149" stroke="#45413C" stroke-width="1.6" stroke-linecap="round" stroke-linejoin="round"/>
    <path d="M99.2035 62.8432a6.737 6.737 0 00-5.2016-1.2032 6.9443 6.9443 0 00-3.968 2.1952l-2.6144 2.88-2.616-2.88a6.945 6.945 0 00-3.968-2.1952 6.7383 6.7383 0 00-5.2016 1.2032 8.1478 8.1478 0 00-3.248 6.6448 10.4561 10.4561 0 003.3392 7.7552l11.6944 10.5232 11.6944-10.5232a10.4554 10.4554 0 003.3371-7.7552 8.131 8.131 0 00-.826-3.7124 8.1356 8.1356 0 00-2.4215-2.9324z" fill="#FF6242"/>
    <path d="M99.2035 62.8432a6.737 6.737 0 00-5.2016-1.2032 6.9443 6.9443 0 00-3.968 2.1952l-2.6144 2.88-2.616-2.88a6.945 6.945 0 00-3.968-2.1952 6.7383 6.7383 0 00-5.2016 1.2032 8.1478 8.1478 0 00-3.248 6.6448 10.4561 10.4561 0 003.3392 7.7552l5.312 4.7792 18.6912-18.688a6.9203 6.9203 0 00-.5248-.4912z" fill="#FF866E"/>
    <path d="M99.2035 62.8432a6.737 6.737 0 00-5.2016-1.2032 6.9443 6.9443 0 00-3.968 2.1952l-2.6144 2.88-2.616-2.88a6.945 6.945 0 00-3.968-2.1952 6.7383 6.7383 0 00-5.2016 1.2032 8.1478 8.1478 0 00-3.248 6.6448 10.4561 10.4561 0 003.3392 7.7552l11.6944 10.5232 11.6944-10.5232a10.4554 10.4554 0 003.3371-7.7552 8.131 8.131 0 00-.826-3.7124 8.1356 8.1356 0 00-2.4215-2.9324z" stroke="#45413C" stroke-width="1.6" stroke-linecap="round" stroke-linejoin="round"/>
    <path opacity=".15" d="M56.9185 130.202c0 .972 2.5305 1.904 7.035 2.592 4.5045.687 10.6139 1.073 16.9842 1.073 6.3702 0 12.4796-.386 16.9841-1.073 4.5042-.688 7.0352-1.62 7.0352-2.592s-2.531-1.905-7.0352-2.592c-4.5045-.688-10.6139-1.074-16.9841-1.074-6.3703 0-12.4797.386-16.9842 1.074-4.5045.687-7.035 1.62-7.035 2.592z" fill="#45413C"/>
  </g>
  <defs>
    <clipPath id="clip0">
      <path fill="#fff" d="M0 0h160v160H0z"/>
    </clipPath>
  </defs>
</svg>
