<svg width="112" height="112" fill="none" xmlns="http://www.w3.org/2000/svg">
  <path d="M0 56a56.0003 56.0003 0 0056 56 56.0003 56.0003 0 0056-56A56.0003 56.0003 0 0056 0 56.0003 56.0003 0 000 56z" fill="#C7F0FF"/>
  <path d="M34.9482 95.0462v-19.508c0-3.6549 2.9731-6.6298 6.6299-6.6298h8.5867v-8.3336h10.8589v8.3336h8.5867c3.6549 0 6.6298 2.973 6.6298 6.6298v19.5099h-41.292v-.0019z" fill="#EAB68F"/>
  <path d="M60.0755 61.5211v8.3336h9.5329c3.1374 0 5.6817 2.5442 5.6817 5.6816v18.5616H35.8945V75.5363c0-3.1374 2.5443-5.6816 5.6816-5.6816h9.533v-8.3336h8.9664zm1.8945-1.8926H49.2165v8.3335h-7.6404C37.398 67.962 34 71.3601 34 75.5382v20.4561h43.1865V75.5382c0-4.1781-3.3981-7.5762-7.5762-7.5762H61.97v-8.3335z" fill="#302E2E"/>
  <path d="M41.4307 53.418c2.6382 0 4.7769-2.1387 4.7769-4.7769 0-2.6382-2.1387-4.7769-4.7769-4.7769-2.6382 0-4.7769 2.1387-4.7769 4.7769 0 2.6382 2.1387 4.7769 4.7769 4.7769z" fill="#EAB68F"/>
  <path d="M41.4306 44.8124c2.1155 0 3.8306 1.7151 3.8306 3.8306s-1.7151 3.8306-3.8306 3.8306-3.8305-1.7151-3.8305-3.8306c0-2.1174 1.715-3.8306 3.8305-3.8306zm0-1.8945c-3.1562 0-5.725 2.5688-5.725 5.7251 0 3.1562 2.5688 5.7251 5.725 5.7251 3.1563 0 5.7251-2.5689 5.7251-5.7251 0-3.1563-2.5688-5.7251-5.7251-5.7251z" fill="#302E2E"/>
  <path d="M69.7574 53.418c2.6381 0 4.7768-2.1387 4.7768-4.7769 0-2.6382-2.1387-4.7769-4.7768-4.7769-2.6382 0-4.7769 2.1387-4.7769 4.7769 0 2.6382 2.1387 4.7769 4.7769 4.7769z" fill="#EAB68F"/>
  <path d="M69.7578 44.8124c2.1155 0 3.8306 1.7151 3.8306 3.8306s-1.7151 3.8306-3.8306 3.8306-3.8306-1.7151-3.8306-3.8306c0-2.1174 1.7151-3.8306 3.8306-3.8306zm0-1.8945c-3.1563 0-5.7251 2.5688-5.7251 5.7251 0 3.1562 2.5688 5.7251 5.7251 5.7251 3.1562 0 5.7251-2.5689 5.7251-5.7251 0-3.1563-2.5689-5.7251-5.7251-5.7251z" fill="#302E2E"/>
  <path d="M49.3432 62.4693c-3.6549 0-6.6298-2.973-6.6298-6.6298V37.2778c0-3.6549 2.973-6.6298 6.6298-6.6298h12.5004c3.6549 0 6.6298 2.973 6.6298 6.6298v18.5617c0 3.6549-2.973 6.6298-6.6298 6.6298H49.3432z" fill="#EAB68F"/>
  <path d="M61.8436 31.5943c3.1374 0 5.6816 2.5443 5.6816 5.6816v18.5617c0 3.1374-2.5442 5.6816-5.6816 5.6816H49.3432c-3.1373 0-5.6816-2.5442-5.6816-5.6816V37.2759c0-3.1373 2.5443-5.6816 5.6816-5.6816h12.5004zm0-1.8926H49.3432c-4.1781 0-7.5761 3.398-7.5761 7.5761v18.5617c0 4.1781 3.398 7.5761 7.5761 7.5761h12.5004c4.1781 0 7.5761-3.398 7.5761-7.5761V37.2778c0-4.1781-3.398-7.5761-7.5761-7.5761z" fill="#302E2E"/>
  <path d="M50.6689 44.0965c1.0463 0 1.8945-.8482 1.8945-1.8945s-.8482-1.8945-1.8945-1.8945-1.8945.8482-1.8945 1.8945.8482 1.8945 1.8945 1.8945zM60.5176 44.0965c1.0463 0 1.8945-.8482 1.8945-1.8945s-.8482-1.8945-1.8945-1.8945c-1.0464 0-1.8946.8482-1.8946 1.8945s.8482 1.8945 1.8946 1.8945z" fill="#302E2E"/>
  <path d="M40.9473 71.4205c0-1.3845 1.1257-2.5103 2.5121-2.5103h6.4788l2.0909 10.0997V95.014l-11.0818.0378V71.4205z" fill="#595959"/>
  <path d="M49.1652 69.8565l1.9153 9.2497v14.9634l-9.1873.0321V71.4205c0-.8632.7007-1.564 1.5639-1.564h5.7081zm1.5432-1.8945h-7.2475c-1.9077 0-3.4585 1.5508-3.4585 3.4585V96l1.9002-.0057 9.1873-.0321 1.887-.0056V78.9117l-.0397-.1908-1.9153-9.2497-.3135-1.5092z" fill="#302E2E"/>
  <path d="M58.7515 95.0122V78.9891l2.5008-10.0807h6.0688c1.3846 0 2.5103 1.1257 2.5103 2.5103V95.05l-11.0799-.0378z" fill="#595959"/>
  <path d="M67.3211 69.8565c.8632 0 1.564.7008 1.564 1.564v22.6793l-9.1874-.0321V79.1043l2.295-9.2496h5.3284v.0018zm0-1.8945h-6.8093l-.357 1.4374-2.2949 9.2497-.0567.2248v17.0827l1.887.0056 9.1873.0321L70.7777 96V71.4205c.0019-1.9077-1.5489-3.4585-3.4566-3.4585z" fill="#302E2E"/>
  <path d="M43.1719 82.0396c-1.2183 0-2.208-.9917-2.208-2.2081s.9916-2.208 2.208-2.208c1.2164 0 2.2081.9916 2.2081 2.208 0 1.2164-.9898 2.2081-2.2081 2.2081z" fill="#fff"/>
  <path d="M43.1724 78.5679c.697 0 1.2617.5648 1.2617 1.2618 0 .6969-.5647 1.2617-1.2617 1.2617-.697 0-1.2618-.5648-1.2618-1.2617 0-.697.5648-1.2618 1.2618-1.2618zm0-1.8926c-1.7397 0-3.1563 1.4166-3.1563 3.1562 0 1.7397 1.4166 3.1563 3.1563 3.1563 1.7396 0 3.1562-1.4166 3.1562-3.1563 0-1.7396-1.4147-3.1562-3.1562-3.1562z" fill="#302E2E"/>
  <path d="M43.1719 89.6157c-1.2183 0-2.208-.9916-2.208-2.208 0-1.2164.9916-2.2081 2.208-2.2081 1.2164 0 2.2081.9917 2.2081 2.2081s-.9898 2.208-2.2081 2.208z" fill="#fff"/>
  <path d="M43.1724 86.144c.697 0 1.2617.5648 1.2617 1.2618 0 .697-.5647 1.2617-1.2617 1.2617-.697 0-1.2618-.5647-1.2618-1.2617 0-.697.5648-1.2618 1.2618-1.2618zm0-1.8926c-1.7397 0-3.1563 1.4166-3.1563 3.1563 0 1.7396 1.4166 3.1562 3.1563 3.1562 1.7396 0 3.1562-1.4166 3.1562-3.1562 0-1.7415-1.4147-3.1563-3.1562-3.1563z" fill="#302E2E"/>
  <path d="M67.625 82.0396c-1.2183 0-2.208-.9917-2.208-2.2081s.9916-2.208 2.208-2.208c1.2165 0 2.2081.9916 2.2081 2.208 0 1.2164-.9916 2.2081-2.2081 2.2081z" fill="#fff"/>
  <path d="M67.625 78.5679c.697 0 1.2617.5648 1.2617 1.2618 0 .6969-.5647 1.2617-1.2617 1.2617-.697 0-1.2617-.5648-1.2617-1.2617 0-.697.5647-1.2618 1.2617-1.2618zm0-1.8926c-1.7396 0-3.1562 1.4166-3.1562 3.1562 0 1.7397 1.4166 3.1563 3.1562 3.1563s3.1563-1.4166 3.1563-3.1563c0-1.7396-1.4167-3.1562-3.1563-3.1562z" fill="#302E2E"/>
  <path d="M67.625 89.6157c-1.2183 0-2.208-.9916-2.208-2.208 0-1.2164.9916-2.2081 2.208-2.2081 1.2165 0 2.2081.9917 2.2081 2.2081s-.9916 2.208-2.2081 2.208z" fill="#fff"/>
  <path d="M67.625 86.144c.697 0 1.2617.5648 1.2617 1.2618 0 .697-.5647 1.2617-1.2617 1.2617-.697 0-1.2617-.5647-1.2617-1.2617 0-.697.5647-1.2618 1.2617-1.2618zm0-1.8926c-1.7396 0-3.1562 1.4166-3.1562 3.1563 0 1.7396 1.4166 3.1562 3.1562 3.1562s3.1563-1.4166 3.1563-3.1562c-.0019-1.7415-1.4167-3.1563-3.1563-3.1563z" fill="#302E2E"/>
  <path d="M55.5686 37.9087c-1.7774 0-3.2224-1.445-3.2224-3.2224V20.1687c0-1.7774 1.445-3.2224 3.2224-3.2224 1.7774 0 3.2223 1.445 3.2223 3.2224v14.5176c0 1.7774-1.4449 3.2224-3.2223 3.2224z" fill="#EA756A"/>
  <path d="M55.5686 17.8945c1.2561 0 2.2741 1.0181 2.2741 2.2742v14.5176c0 1.2561-1.018 2.2742-2.2741 2.2742-1.2561 0-2.2742-1.0181-2.2742-2.2742V20.1687c0-1.2561 1.0181-2.2742 2.2742-2.2742zm0-1.8945c-2.2987 0-4.1687 1.87-4.1687 4.1687v14.5176c0 2.2987 1.87 4.1687 4.1687 4.1687s4.1687-1.87 4.1687-4.1687V20.1687c0-2.2987-1.87-4.1687-4.1687-4.1687z" fill="#302E2E"/>
  <path d="M50.8353 70.8029c-1.428 0-2.5877-1.1617-2.5877-2.5896 0-1.428 1.1616-2.5878 2.5877-2.5878h9.5178c1.428 0 2.5878 1.1617 2.5878 2.5878 0 1.426-1.1617 2.5896-2.5878 2.5896h-9.5178z" fill="#595959"/>
  <path d="M60.3536 66.5719c.9029 0 1.6414.7385 1.6414 1.6414 0 .9028-.7385 1.6414-1.6414 1.6414h-9.5179c-.9029 0-1.6414-.7386-1.6414-1.6414 0-.9029.7385-1.6414 1.6414-1.6414h9.5179zm0-1.8927h-9.5179c-1.9493 0-3.5359 1.5867-3.5359 3.5359 0 1.9493 1.5866 3.536 3.5359 3.536h9.5179c1.9493 0 3.5359-1.5867 3.5359-3.536 0-1.9492-1.5866-3.5359-3.5359-3.5359z" fill="#302E2E"/>
  <path d="M72.7063 56.1757c-.85 0-1.5432-.6914-1.5432-1.5432v-4.3859c0-.85.6913-1.5432 1.5432-1.5432h.476c.8499 0 1.5431.6913 1.5431 1.5432v4.3859c0 .85-.6913 1.5432-1.5431 1.5432h-.476z" fill="#fff"/>
  <path d="M73.1823 49.6516c.3267 0 .595.2682.595.595v4.3859c0 .3268-.2683.595-.595.595h-.476c-.3268 0-.595-.2682-.595-.595v-4.3859c0-.3268.2682-.595.595-.595h.476zm0-1.8945h-.476c-1.3732 0-2.4895 1.1163-2.4895 2.4895v4.3859c0 1.3732 1.1163 2.4895 2.4895 2.4895h.476c1.3732 0 2.4895-1.1163 2.4895-2.4895v-4.3859c0-1.3713-1.1163-2.4895-2.4895-2.4895z" fill="#302E2E"/>
  <path d="M50.6221 54.3435a.7554.7554 0 01.7555-.7555h8.4998a.7554.7554 0 01.7555.7555.7554.7554 0 01-.7555.7555h-8.4998a.7554.7554 0 01-.7555-.7555z" fill="#A9734B"/>
</svg>
