<svg viewBox="0 0 160 160" height="160" width="160" xmlns="http://www.w3.org/2000/svg"><g transform="matrix(1.6,0,0,1.6,0,0)"><path d="M12.324 50.000 A40.000 40.000 0 1 0 92.324 50.000 A40.000 40.000 0 1 0 12.324 50.000 Z" fill="#C7F0FF" stroke="#C7F0FF"></path><path d="M54.594 74.464 A19.016 1.902 0 1 0 92.626 74.464 A19.016 1.902 0 1 0 54.594 74.464 Z" fill="#45413c" opacity=".15"></path><path d="M62.283 50.95H85.43299999999999V53.155H62.283z" fill="#f0f0f0" transform="translate(-3.086 99.426) rotate(-66.795)"></path><path d="M75.572,45.256a3.283,3.283,0,0,0,2.061.789l1.8-4.2-2.026-.868Z" fill="#e0e0e0"></path><path d="M62.283 50.95H85.43299999999999V53.155H62.283z" fill="#fff" stroke="#45413c" stroke-linecap="round" stroke-linejoin="round" transform="translate(-3.086 99.426) rotate(-66.795)"></path><path d="M54.005 35.244H77.155V37.449H54.005z" fill="#f0f0f0" transform="translate(-7.151 54.567) rotate(-43.061)"></path><path d="M73.285,27.638l-3.462,3.235a3.312,3.312,0,0,0,1.468,1.646l3.5-3.27Z" fill="#e0e0e0"></path><path d="M54.005 35.244H77.155V37.449H54.005z" fill="#fff" stroke="#45413c" stroke-linecap="round" stroke-linejoin="round" transform="translate(-7.151 54.567) rotate(-43.061)"></path><path d="M71.536 27.691 A3.307 3.307 0 1 0 78.150 27.691 A3.307 3.307 0 1 0 71.536 27.691 Z" fill="#fff"></path><path d="M72.484,30.01a3.308,3.308,0,1,1,5.374-3.678Z" fill="#C7F0FF"></path><path d="M89.139,62.215l-2.05-.814,4.068-10.246a1.1,1.1,0,0,1,2.049.813Z" fill="#C7F0FF"></path><path d="M93.206,51.968l-1.22,3.074a1.1,1.1,0,0,0-2.05-.813l1.221-3.074a1.1,1.1,0,0,1,2.049.813Z" fill="#fff"></path><path d="M89.139,62.215l-2.05-.814,4.068-10.246a1.1,1.1,0,0,1,2.049.813Z" fill="none" stroke="#45413c" stroke-linecap="round" stroke-linejoin="round"></path><path d="M93.7,67a6.615,6.615,0,0,0-6.615-6.614H62.837a6.614,6.614,0,1,0,0,13.228H87.089A6.615,6.615,0,0,0,93.7,67Z" fill="#87898c"></path><path d="M56.437,68.672a6.618,6.618,0,0,1,6.4-8.291H87.089a6.615,6.615,0,0,1,6.405,8.268,6.634,6.634,0,0,0-6.405-4.961H62.837A6.611,6.611,0,0,0,56.437,68.672Z" fill="#656769"></path><path d="M62.837,60.381A6.614,6.614,0,0,1,69.451,67v2.972a1.15,1.15,0,0,0,1.15,1.15H81.53a1.15,1.15,0,0,0,1.15-1.15V60.381Z" fill="#e0e0e0"></path><path d="M57.828 41.171H80.97800000000001V43.376H57.828z" fill="#fff" stroke="#45413c" transform="translate(-5.824 11.538) rotate(-9.122)"></path><path d="M47.826,45.076a.552.552,0,0,1-.391-.721,5.788,5.788,0,1,1,4.706,7.674.551.551,0,0,1-.465-.675l.388-1.621a.551.551,0,0,1,.581-.421,3.032,3.032,0,1,0-2.56-4.174.548.548,0,0,1-.638.326Z" fill="#656769"></path><path d="M58.515,47.637a4.641,4.641,0,0,1-.286.86,5.716,5.716,0,0,0-2.36-2.723,3.027,3.027,0,0,0-5.787-.64.547.547,0,0,1-.639.331l-1.621-.386a.627.627,0,0,1-.353-.275.542.542,0,0,1-.033-.452,5.786,5.786,0,0,1,11.079,3.285Z" fill="#87898c"></path><path d="M47.826,45.076a.552.552,0,0,1-.391-.721,5.788,5.788,0,1,1,4.706,7.674.551.551,0,0,1-.465-.675l.388-1.621a.551.551,0,0,1,.581-.421,3.032,3.032,0,1,0-2.56-4.174.548.548,0,0,1-.638.326Z" fill="none" stroke="#45413c" stroke-linecap="round" stroke-linejoin="round"></path><path d="M75.547 40.401 A3.307 3.307 0 1 0 82.161 40.401 A3.307 3.307 0 1 0 75.547 40.401 Z" fill="#C7F0FF"></path><path d="M75.731,41.441a3.285,3.285,0,0,1,6.246,0,3.27,3.27,0,0,0,.12-1.689,3.307,3.307,0,1,0-6.487,1.288A3.029,3.029,0,0,0,75.731,41.441Z" fill="#fff"></path><path d="M75.547 40.401 A3.307 3.307 0 1 0 82.161 40.401 A3.307 3.307 0 1 0 75.547 40.401 Z" fill="none" stroke="#45413c" stroke-linecap="round" stroke-linejoin="round"></path><path d="M53.631 44.191 A3.307 3.307 0 1 0 60.245 44.191 A3.307 3.307 0 1 0 53.631 44.191 Z" fill="#C7F0FF"></path><path d="M53.815,45.231a3.285,3.285,0,0,1,6.246,0,3.269,3.269,0,0,0,.121-1.689A3.307,3.307,0,1,0,53.7,44.836,3.225,3.225,0,0,0,53.815,45.231Z" fill="#fff"></path><path d="M53.631 44.191 A3.307 3.307 0 1 0 60.245 44.191 A3.307 3.307 0 1 0 53.631 44.191 Z" fill="none" stroke="#45413c" stroke-linecap="round" stroke-linejoin="round"></path><path d="M71.536 27.691 A3.307 3.307 0 1 0 78.150 27.691 A3.307 3.307 0 1 0 71.536 27.691 Z" fill="none" stroke="#45413c"></path><path d="M66.144,60.381a4.41,4.41,0,1,1,8.819,0Z" fill="#fff" stroke="#45413c"></path><path d="M93.7,67a6.615,6.615,0,0,0-6.615-6.614H62.837a6.614,6.614,0,1,0,0,13.228H87.089A6.615,6.615,0,0,0,93.7,67Z" fill="none" stroke="#45413c" stroke-linecap="round" stroke-linejoin="round"></path><path d="M62.837,60.381a6.632,6.632,0,0,0-.851.06L47.4,61.483a2.2,2.2,0,0,0-1.094,4.108v0l13.35,7.2h0a6.614,6.614,0,1,0,3.178-12.415Z" fill="#8ca4b8"></path><path d="M68.566,63.688H82.68V60.381H62.837A6.613,6.613,0,0,1,68.566,63.688Z" fill="#fff"></path><path d="M62.837,60.381A6.614,6.614,0,0,1,69.451,67v2.972a1.15,1.15,0,0,0,1.15,1.15H81.53a1.15,1.15,0,0,0,1.15-1.15V60.381Z" fill="none" stroke="#45413c" stroke-linecap="round" stroke-linejoin="round"></path><path d="M84.885,60.381h-2.2V49.357a1.1,1.1,0,1,1,2.2,0Z" fill="#C7F0FF"></path><path d="M84.885,49.357v3.307a1.1,1.1,0,1,0-2.2,0V49.357a1.1,1.1,0,1,1,2.2,0Z" fill="#fff"></path><path d="M84.885,60.381h-2.2V49.357a1.1,1.1,0,1,1,2.2,0Z" fill="none" stroke="#45413c" stroke-linecap="round" stroke-linejoin="round"></path><path d="M64.708 17.409 L77.783 17.409 L77.783 26.975 L64.708 26.975 Z" fill="#c0dceb" transform="translate(-2.382 34.333) rotate(-26.665)"></path><path d="M75.977,17.067,64.3,22.932l-.54-1.069a1.138,1.138,0,0,1,.507-1.522l9.657-4.85A1.134,1.134,0,0,1,75.448,16Z" fill="#C7F0FF"></path><path d="M62.412,29.338a.568.568,0,0,0,.761.252l.709-.356c.742-.373.741-.631,2.252-2.653l-1.775-3.536c-2.39,0-2.713-.159-3.473.223l-.709.356a.565.565,0,0,0-.252.76Z" fill="#656769" stroke="#45413c" stroke-linecap="round" stroke-linejoin="round"></path><path d="M64.708 17.409 L77.783 17.409 L77.783 26.975 L64.708 26.975 Z" fill="none" stroke="#45413c" stroke-linecap="round" stroke-linejoin="round" transform="translate(-2.382 34.333) rotate(-26.665)"></path><path d="M82.679 66.995 A4.410 4.410 0 1 0 91.499 66.995 A4.410 4.410 0 1 0 82.679 66.995 Z" fill="#656769"></path><path d="M91.173,68.661a4.41,4.41,0,1,0-8.167,0,4.4,4.4,0,0,1,8.167,0Z" fill="#525252"></path><path d="M82.679 66.995 A4.410 4.410 0 1 0 91.499 66.995 A4.410 4.410 0 1 0 82.679 66.995 Z" fill="none" stroke="#45413c" stroke-linecap="round" stroke-linejoin="round"></path><path d="M84.884 66.995 A2.205 2.205 0 1 0 89.294 66.995 A2.205 2.205 0 1 0 84.884 66.995 Z" fill="none" stroke="#87898c"></path><path d="M45.958,65.342a2.18,2.18,0,0,1-.76-1.654,2.205,2.205,0,0,1,2.2-2.205l14.583-1.042a6.614,6.614,0,0,1,7.256,8.208,6.635,6.635,0,0,0-6.405-4.961,5.4,5.4,0,0,0-.849.066L47.4,64.79A2.127,2.127,0,0,0,45.958,65.342Z" fill="#627b8c"></path><path d="M45.198 63.688 A2.205 2.205 0 1 0 49.608 63.688 A2.205 2.205 0 1 0 45.198 63.688 Z" fill="#627b8c" stroke="#45413c" stroke-linecap="round" stroke-linejoin="round"></path><path d="M58.427 66.995 A4.410 4.410 0 1 0 67.247 66.995 A4.410 4.410 0 1 0 58.427 66.995 Z" fill="#656769"></path><path d="M66.921,68.661a4.41,4.41,0,1,0-8.168,0,4.4,4.4,0,0,1,8.168,0Z" fill="#525252"></path><path d="M58.427 66.995 A4.410 4.410 0 1 0 67.247 66.995 A4.410 4.410 0 1 0 58.427 66.995 Z" fill="none" stroke="#45413c" stroke-linecap="round" stroke-linejoin="round"></path><path d="M60.632 66.995 A2.205 2.205 0 1 0 65.042 66.995 A2.205 2.205 0 1 0 60.632 66.995 Z" fill="none" stroke="#87898c"></path><path d="M62.837,60.381a6.632,6.632,0,0,0-.851.06L47.4,61.483a2.2,2.2,0,0,0-1.094,4.108v0l13.35,7.2h0a6.614,6.614,0,1,0,3.178-12.415Z" fill="none" stroke="#45413c" stroke-linecap="round" stroke-linejoin="round"></path><path d="M12.207 75.590 A11.235 2.501 0 1 0 34.677 75.590 A11.235 2.501 0 1 0 12.207 75.590 Z" fill="#45413c" opacity=".15"></path><path d="M24.018,42.554a1.448,1.448,0,0,1-1.22-.665c-1.426-2.212-2.62-8.878-.506-12.185a4.59,4.59,0,0,1,3.075-2.085,5.376,5.376,0,0,1,4.842,1.487c1.436,1.171,2.675,2.184,8.272-.579a1.45,1.45,0,0,1,1.283,2.6c-6.72,3.317-9.133,2.065-11.388.226-.9-.732-1.344-1.1-2.469-.886a1.688,1.688,0,0,0-1.172.8c-1.324,2.069-.493,7.512.5,9.051a1.45,1.45,0,0,1-1.216,2.236Z" fill="#fff" stroke="#45413c" stroke-linecap="round" stroke-linejoin="round"></path><path d="M29.853,42.721V41.459a.725.725,0,0,0-.725-.725H17.289a.726.726,0,0,0-.725.725v1.262a16.913,16.913,0,1,0,13.289,0Z" fill="#656769"></path><path d="M23.209,70.666A17.832,17.832,0,0,1,6.3,58.486a16.913,16.913,0,0,0,33.823,0A17.831,17.831,0,0,1,23.209,70.666Z" fill="#525252"></path><path d="M29.853,42.721V41.459a.725.725,0,0,0-.725-.725H17.289a.726.726,0,0,0-.725.725v1.262a16.913,16.913,0,1,0,13.289,0Z" fill="none" stroke="#45413c" stroke-linecap="round" stroke-linejoin="round"></path><path d="M49.315,32.08a.7.7,0,0,1-.592,1.185L45.736,32.8a.7.7,0,0,0-.791.565l-.55,3.09a.694.694,0,0,1-1.31.179L41.727,33.8a.7.7,0,0,0-.914-.332L38.06,34.722a.694.694,0,0,1-.888-.981L38.879,30.8a.7.7,0,0,0-.116-.847L36.33,27.586a.7.7,0,0,1,.592-1.184l2.989.467A.7.7,0,0,0,40.7,26.3l.549-3.09a.694.694,0,0,1,1.31-.179l1.358,2.829a.7.7,0,0,0,.914.332l2.753-1.251a.694.694,0,0,1,.888.981l-1.707,2.937a.7.7,0,0,0,.115.847Z" fill="#ffe500" stroke="#ff6242" stroke-linecap="round" stroke-linejoin="round"></path><path d="M19.616,37.026a1.45,1.45,0,0,0-1.45,1.45v2.258H28.251V38.476a1.45,1.45,0,0,0-1.449-1.45Z" fill="#87898c" stroke="#45413c" stroke-linecap="round" stroke-linejoin="round"></path></g></svg>