<svg xmlns="http://www.w3.org/2000/svg" version="1.1" xmlns:xlink="http://www.w3.org/1999/xlink" xmlns:svgjs="http://svgjs.com/svgjs" viewBox="0 0 160 160" width="160" height="160"><g transform="matrix(1.6,0,0,1.6,0,0)"><path d="M10.000 54.566 A40.000 40.000 0 1 0 90.000 54.566 A40.000 40.000 0 1 0 10.000 54.566 Z" fill="#c7f0ff" stroke="#c7f0ff" stroke-miterlimit="10"></path><path d="M10.000 54.566 A40.000 40.000 0 1 0 90.000 54.566 A40.000 40.000 0 1 0 10.000 54.566 Z" fill="none" stroke="#c7f0ff" stroke-miterlimit="10"></path><path d="M75.719,92.223A33.093,33.093,0,0,0,57.672,80.97V73.751H42.858V80.97A33.087,33.087,0,0,0,24.892,92.125Z" fill="#ffcebf"></path><path d="M42.858,81.128a25.757,25.757,0,0,0,14.814,0V73.751H42.858Z" fill="#ffb59e"></path><path d="M75.72,92.224A33.1,33.1,0,0,0,57.672,80.97V73.751H42.858V80.97A33.1,33.1,0,0,0,24.891,92.126" fill="none" stroke="#45413c" stroke-linecap="round" stroke-linejoin="round"></path><path d="M75.654,55.259a4.246,4.246,0,0,1-4.233,4.233c-.084,0-.169-.022-.254-.022a21.142,21.142,0,0,1-41.817,0c-.084,0-.169.022-.254.022a4.233,4.233,0,0,1,0-8.466v-5.29a21.163,21.163,0,1,1,42.325,0v5.29A4.246,4.246,0,0,1,75.654,55.259Z" fill="#ffcebf" stroke="#45413c" stroke-linecap="round" stroke-linejoin="round"></path><path d="M30.312 22.049 A20.098 16.616 0 1 0 70.508 22.049 A20.098 16.616 0 1 0 30.312 22.049 Z" fill="#8cffe4"></path><path d="M70.019,25.728C69.164,17.2,60.537,10.5,50,10.5c-9.607,0-17.627,5.578-19.613,13.027a13.916,13.916,0,0,1-.079-1.478c0-9.176,9-16.615,20.1-16.615s20.1,7.439,20.1,16.615a13.926,13.926,0,0,1-.494,3.677" fill="#ccfff3"></path><path d="M30.312 22.049 A20.098 16.616 0 1 0 70.508 22.049 A20.098 16.616 0 1 0 30.312 22.049 Z" fill="none" stroke="#45413c" stroke-linecap="round" stroke-linejoin="round"></path><path d="M31.091 53.230 A19.174 21 0 1 0 69.439 53.230 A19.174 21 0 1 0 31.091 53.230 Z" fill="#f0f0f0"></path><path d="M50.265,36.449c9.939,0,18.11,8.283,19.076,18.89.064-.694.1-1.4.1-2.109,0-11.6-8.585-21-19.174-21s-19.173,9.4-19.173,21c0,.712.034,1.415.1,2.109C32.155,44.732,40.326,36.449,50.265,36.449Z" fill="#ffffff"></path><path d="M31.091 53.230 A19.174 21 0 1 0 69.439 53.230 A19.174 21 0 1 0 31.091 53.230 Z" fill="none" stroke="#45413c" stroke-linecap="round" stroke-linejoin="round"></path><path d="M44.781 62.360 A5.478 2.739 0 1 0 55.737 62.360 A5.478 2.739 0 1 0 44.781 62.360 Z" fill="#ffcebf" stroke="#45413c" stroke-linecap="round" stroke-linejoin="round"></path><path d="M39.303 46.839 A3.652 1.826 0 1 0 46.607 46.839 A3.652 1.826 0 1 0 39.303 46.839 Z" fill="#ffcebf" stroke="#45413c" stroke-linecap="round" stroke-linejoin="round"></path><path d="M53.911 46.839 A3.652 1.826 0 1 0 61.215 46.839 A3.652 1.826 0 1 0 53.911 46.839 Z" fill="#ffcebf" stroke="#45413c" stroke-linecap="round" stroke-linejoin="round"></path><path d="M37.417 37.642L40.222 40.447" fill="none" stroke="#45413c" stroke-linecap="round" stroke-linejoin="round"></path><path d="M31.109 54.143L35.657 54.143" fill="none" stroke="#45413c" stroke-linecap="round" stroke-linejoin="round"></path><path d="M38.367 69.693L41.135 66.925" fill="none" stroke="#45413c" stroke-linecap="round" stroke-linejoin="round"></path><path d="M63.114 37.642L60.308 40.447" fill="none" stroke="#45413c" stroke-linecap="round" stroke-linejoin="round"></path><path d="M69.421 54.143L64.874 54.143" fill="none" stroke="#45413c" stroke-linecap="round" stroke-linejoin="round"></path><path d="M62.163 69.693L59.395 66.925" fill="none" stroke="#45413c" stroke-linecap="round" stroke-linejoin="round"></path><path d="M50.259,28.406a64.183,64.183,0,0,0-8.106-4.21q-2.264-.978-4.533-1.943a12.749,12.749,0,0,1-2.127-.907,2.593,2.593,0,0,1-.266-.272,30.152,30.152,0,0,0-5.249,4.236,32.456,32.456,0,0,0-3.355,3.878,25.738,25.738,0,0,0-4.915,16.966,34.832,34.832,0,0,0,.661,5.444c.871,4.363,5.158,9.479,6.828,11.34a.519.519,0,0,0,.9-.359,44.659,44.659,0,0,1,1.068-11.32A20.99,20.99,0,0,1,42.386,34.077c1.1-.912,2.217-1.779,3.334-2.607Q47.922,29.84,50.259,28.406Z" fill="#8cffe4"></path><path d="M21.768,47.142A29.4,29.4,0,0,1,44.806,25.424c-.876-.427-1.758-.841-2.653-1.228q-2.264-.978-4.533-1.943a12.749,12.749,0,0,1-2.127-.907,2.593,2.593,0,0,1-.266-.272,30.152,30.152,0,0,0-5.249,4.236,32.456,32.456,0,0,0-3.355,3.878,25.738,25.738,0,0,0-4.915,16.966C21.72,46.487,21.745,46.814,21.768,47.142Z" fill="#ccfff3"></path><path d="M73.9,29.188A32.553,32.553,0,0,0,40.873,16.651c-1.3.309-8.078,2.288-5.38,4.7a12.749,12.749,0,0,0,2.127.907q2.268.966,4.533,1.943A63.739,63.739,0,0,1,54.8,31.47c1.117.828,2.239,1.7,3.334,2.607A20.991,20.991,0,0,1,69.349,51.259a44.658,44.658,0,0,1,1.067,11.32.519.519,0,0,0,.9.359c1.67-1.861,5.957-6.977,6.828-11.34a34.829,34.829,0,0,0,.662-5.444A25.75,25.75,0,0,0,73.9,29.188Z" fill="#8cffe4"></path><path d="M35.493,21.346a12.749,12.749,0,0,0,2.127.907q2.268.966,4.533,1.943c.891.385,1.766.806,2.639,1.23A29.355,29.355,0,0,1,78.75,47.143c.023-.328.048-.656.06-.989A25.75,25.75,0,0,0,73.9,29.188,32.553,32.553,0,0,0,40.873,16.651C39.577,16.96,32.8,18.939,35.493,21.346Z" fill="#ccfff3"></path><path d="M50.259,28.406a64.183,64.183,0,0,0-8.106-4.21q-2.264-.978-4.533-1.943a12.749,12.749,0,0,1-2.127-.907,2.593,2.593,0,0,1-.266-.272,30.152,30.152,0,0,0-5.249,4.236,32.456,32.456,0,0,0-3.355,3.878,25.738,25.738,0,0,0-4.915,16.966,34.832,34.832,0,0,0,.661,5.444c.871,4.363,5.158,9.479,6.828,11.34a.519.519,0,0,0,.9-.359,44.659,44.659,0,0,1,1.068-11.32A20.99,20.99,0,0,1,42.386,34.077c1.1-.912,2.217-1.779,3.334-2.607Q47.922,29.84,50.259,28.406Z" fill="none" stroke="#45413c" stroke-linecap="round" stroke-linejoin="round"></path><path d="M73.9,29.188A32.553,32.553,0,0,0,40.873,16.651c-1.3.309-8.078,2.288-5.38,4.7a12.749,12.749,0,0,0,2.127.907q2.268.966,4.533,1.943A63.739,63.739,0,0,1,54.8,31.47c1.117.828,2.239,1.7,3.334,2.607A20.991,20.991,0,0,1,69.349,51.259a44.658,44.658,0,0,1,1.067,11.32.519.519,0,0,0,.9.359c1.67-1.861,5.957-6.977,6.828-11.34a34.829,34.829,0,0,0,.662-5.444A25.75,25.75,0,0,0,73.9,29.188Z" fill="none" stroke="#45413c" stroke-linecap="round" stroke-linejoin="round"></path></g></svg>