<svg xmlns="http://www.w3.org/2000/svg" version="1.1" xmlns:xlink="http://www.w3.org/1999/xlink" xmlns:svgjs="http://svgjs.com/svgjs" viewBox="0 0 160 160" width="160" height="160"><g transform="matrix(0.8,0,0,0.8,0,0)"><path d="M27.372,134.922a72.46,72.46,0,1,1,132.859-.006Z" fill="#c7f0ff"></path><path d="M27.387,134.915a72.464,72.464,0,0,0,132.827,0Z" fill="#ccf7ad"></path><path d="M23.152 134.915L164.449 134.915" fill="none" stroke="#45413c" stroke-linecap="round" stroke-linejoin="round"></path><path d="M15 134.915L19.529 134.915" fill="none" stroke="#45413c" stroke-linecap="round" stroke-linejoin="round"></path><path d="M168.072 134.915L172.601 134.915" fill="none" stroke="#45413c" stroke-linecap="round" stroke-linejoin="round"></path><path d="M40.492 102.555H134.343V147.05100000000002H40.492z" fill="#bf8256"></path><path d="M40.492 102.555H134.343V104.90100000000001H40.492z" fill="#915e3a"></path><path d="M40.492 102.555H134.343V147.05100000000002H40.492z" fill="none" stroke="#45413c" stroke-linecap="round" stroke-linejoin="round"></path><path d="M40.492 41.552H134.343V79.092H40.492z" fill="#bf8256"></path><path d="M40.492 41.552H134.343V45.071H40.492z" fill="#915e3a"></path><path d="M40.492 41.552H134.343V79.092H40.492z" fill="none" stroke="#45413c" stroke-linecap="round" stroke-linejoin="round"></path><path d="M40.492 27.474H134.343V38.032H40.492z" fill="#bf8256"></path><path d="M40.492 27.474H134.343V30.993000000000002H40.492z" fill="#915e3a"></path><path d="M40.492 27.474H134.343V38.032H40.492z" fill="none" stroke="#45413c" stroke-linecap="round" stroke-linejoin="round"></path><path d="M135.757,102.555H39.077a.932.932,0,0,1-.932-.932V82.611h98.543v19.012A.931.931,0,0,1,135.757,102.555Z" fill="#bf8256"></path><path d="M38.145 82.611H136.68800000000002V86.13000000000001H38.145z" fill="#915e3a"></path><path d="M135.757,102.555H39.077a.932.932,0,0,1-.932-.932V82.611h98.543v19.012A.931.931,0,0,1,135.757,102.555Z" fill="none" stroke="#45413c" stroke-linecap="round" stroke-linejoin="round"></path><path d="M111.334,99.035H63.5a5.41,5.41,0,0,1-5.411-5.411v-2.66a4.833,4.833,0,0,1,4.833-4.833h48.99a4.833,4.833,0,0,1,4.833,4.833v2.66A5.41,5.41,0,0,1,111.334,99.035Z" fill="#ffffff" stroke="#45413c" stroke-linecap="round" stroke-linejoin="round"></path><path d="M42.325 86.791 L53.909 86.791 L53.909 98.375 L42.325 98.375 Z" fill="#b89558" stroke="#45413c" stroke-linecap="round" stroke-linejoin="round"></path><path d="M44.431 88.897 L51.802 88.897 L51.802 96.268 L44.431 96.268 Z" fill="#debb7e" stroke="#45413c" stroke-linecap="round" stroke-linejoin="round"></path><path d="M120.925 86.791 L132.509 86.791 L132.509 98.375 L120.925 98.375 Z" fill="#b89558" stroke="#45413c" stroke-linecap="round" stroke-linejoin="round"></path><path d="M123.031 88.897 L130.402 88.897 L130.402 96.268 L123.031 96.268 Z" fill="#debb7e" stroke="#45413c" stroke-linecap="round" stroke-linejoin="round"></path><path d="M35.799 79.092 L139.035 79.092 L139.035 82.611 L35.799 82.611 Z" fill="#debb7e" stroke="#45413c" stroke-linecap="round" stroke-linejoin="round"></path><path d="M35.799 38.032 L139.035 38.032 L139.035 41.551 L35.799 41.551 Z" fill="#debb7e" stroke="#45413c" stroke-linecap="round" stroke-linejoin="round"></path><path d="M38.145 23.955 L136.688 23.955 L136.688 27.474 L38.145 27.474 Z" fill="#debb7e" stroke="#45413c" stroke-linecap="round" stroke-linejoin="round"></path><path d="M35.799 21.609 L139.035 21.609 L139.035 25.128 L35.799 25.128 Z" fill="#debb7e" stroke="#45413c" stroke-linecap="round" stroke-linejoin="round"></path><path d="M64.1,106.074H47.384a1.027,1.027,0,0,0-1.027,1.027l.079,39.954h18.77L65.127,107.1A1.026,1.026,0,0,0,64.1,106.074Z" fill="#ff6242" stroke="#45413c" stroke-linecap="round" stroke-linejoin="round"></path><path d="M49.877 109.593H61.608000000000004V115.459H49.877z" fill="#4acfff"></path><path d="M49.877 109.593L49.877 115.459 53.823 115.459 59.689 109.593 49.877 109.593z" fill="#80ddff"></path><path d="M49.877 109.593H61.608000000000004V115.459H49.877z" fill="none" stroke="#45413c" stroke-linecap="round" stroke-linejoin="round"></path><path d="M49.877 118.979H54.57V126.018H49.877z" fill="#4acfff"></path><path d="M49.877 123.838L54.569 119.145 54.569 118.979 49.877 118.979 49.877 123.838z" fill="#80ddff"></path><path d="M49.877 118.979H54.57V126.018H49.877z" fill="none" stroke="#45413c" stroke-linecap="round" stroke-linejoin="round"></path><path d="M49.877 128.364H54.57V135.403H49.877z" fill="#4acfff"></path><path d="M49.877 133.223L54.569 128.53 54.569 128.364 49.877 128.364 49.877 133.223z" fill="#80ddff"></path><path d="M49.877 128.364H54.57V135.403H49.877z" fill="none" stroke="#45413c" stroke-linecap="round" stroke-linejoin="round"></path><path d="M49.877 137.749H54.57V144.78799999999998H49.877z" fill="#4acfff"></path><path d="M49.877 142.608L54.569 137.915 54.569 137.749 49.877 137.749 49.877 142.608z" fill="#80ddff"></path><path d="M49.877 137.749H54.57V144.78799999999998H49.877z" fill="none" stroke="#45413c" stroke-linecap="round" stroke-linejoin="round"></path><path d="M56.915 118.979H61.608V126.018H56.915z" fill="#4acfff"></path><path d="M56.915 123.838L61.608 119.145 61.608 118.979 56.915 118.979 56.915 123.838z" fill="#80ddff"></path><path d="M56.915 118.979H61.608V126.018H56.915z" fill="none" stroke="#45413c" stroke-linecap="round" stroke-linejoin="round"></path><path d="M56.915 128.364H61.608V135.403H56.915z" fill="#4acfff"></path><path d="M56.915 133.223L61.608 128.53 61.608 128.364 56.915 128.364 56.915 133.223z" fill="#80ddff"></path><path d="M56.915 128.364H61.608V135.403H56.915z" fill="none" stroke="#45413c" stroke-linecap="round" stroke-linejoin="round"></path><path d="M56.915 137.749H61.608V144.78799999999998H56.915z" fill="#4acfff"></path><path d="M56.915 142.608L61.608 137.915 61.608 137.749 56.915 137.749 56.915 142.608z" fill="#80ddff"></path><path d="M56.915 137.749H61.608V144.78799999999998H56.915z" fill="none" stroke="#45413c" stroke-linecap="round" stroke-linejoin="round"></path><path d="M73.339 111.94H126.13V143.615H73.339z" fill="#4acfff"></path><path d="M73.339 111.94L73.339 143.614 83.218 143.614 114.892 111.94 73.339 111.94z" fill="#80ddff"></path><path d="M73.339 111.94H126.13V143.615H73.339z" fill="none" stroke="#45413c" stroke-linecap="round" stroke-linejoin="round"></path><path d="M89.763 111.94L89.763 143.614" fill="none" stroke="#45413c" stroke-linecap="round" stroke-linejoin="round"></path><path d="M109.706 111.94L109.706 143.614" fill="none" stroke="#45413c" stroke-linecap="round" stroke-linejoin="round"></path><path d="M73.339 130.71L126.13 130.71" fill="none" stroke="#45413c" stroke-linecap="round" stroke-linejoin="round"></path><path d="M129.65,113.113H69.82l2.051-5.128a1.173,1.173,0,0,1,1.089-.738h53.549a1.172,1.172,0,0,1,1.089.738Z" fill="#ffe500"></path><path d="M128.242,109.593l-.644-1.608a1.172,1.172,0,0,0-1.089-.738H72.96a1.173,1.173,0,0,0-1.089.738l-.643,1.608Z" fill="#fff48c"></path><path d="M129.65,113.113H69.82l2.051-5.128a1.173,1.173,0,0,1,1.089-.738h53.549a1.172,1.172,0,0,1,1.089.738Z" fill="none" stroke="#45413c" stroke-linecap="round" stroke-linejoin="round"></path><path d="M74.33,118.979H72.788a2.968,2.968,0,0,1-2.968-2.969v-2.9H77.3v2.9A2.969,2.969,0,0,1,74.33,118.979Z" fill="#ebcb00" stroke="#45413c" stroke-linecap="round" stroke-linejoin="round"></path><path d="M81.809,118.979H80.267A2.968,2.968,0,0,1,77.3,116.01v-2.9h7.478v2.9A2.968,2.968,0,0,1,81.809,118.979Z" fill="#ebcb00" stroke="#45413c" stroke-linecap="round" stroke-linejoin="round"></path><path d="M89.288,118.979H87.746a2.969,2.969,0,0,1-2.969-2.969v-2.9h7.479v2.9A2.968,2.968,0,0,1,89.288,118.979Z" fill="#ebcb00" stroke="#45413c" stroke-linecap="round" stroke-linejoin="round"></path><path d="M96.766,118.979H95.224a2.968,2.968,0,0,1-2.968-2.969v-2.9h7.479v2.9A2.969,2.969,0,0,1,96.766,118.979Z" fill="#ebcb00" stroke="#45413c" stroke-linecap="round" stroke-linejoin="round"></path><path d="M104.245,118.979H102.7a2.968,2.968,0,0,1-2.968-2.969v-2.9h7.478v2.9A2.968,2.968,0,0,1,104.245,118.979Z" fill="#ebcb00" stroke="#45413c" stroke-linecap="round" stroke-linejoin="round"></path><path d="M111.724,118.979h-1.542a2.969,2.969,0,0,1-2.969-2.969v-2.9h7.479v2.9A2.968,2.968,0,0,1,111.724,118.979Z" fill="#ebcb00" stroke="#45413c" stroke-linecap="round" stroke-linejoin="round"></path><path d="M119.2,118.979h-1.541a2.969,2.969,0,0,1-2.969-2.969v-2.9h7.479v2.9A2.969,2.969,0,0,1,119.2,118.979Z" fill="#ebcb00" stroke="#45413c" stroke-linecap="round" stroke-linejoin="round"></path><path d="M126.681,118.979h-1.542a2.968,2.968,0,0,1-2.968-2.969v-2.9h7.479v2.9A2.969,2.969,0,0,1,126.681,118.979Z" fill="#ebcb00" stroke="#45413c" stroke-linecap="round" stroke-linejoin="round"></path><path d="M75.9,134.109H73.637a.276.276,0,0,0-.3.247v9.008a.275.275,0,0,0,.3.247H75.9a.276.276,0,0,0,.3-.247v-9.008A.277.277,0,0,0,75.9,134.109Z" fill="#00dfeb" stroke="#45413c" stroke-linecap="round" stroke-linejoin="round"></path><path d="M78.755,135.3H76.493a.276.276,0,0,0-.3.247v7.82a.275.275,0,0,0,.3.247h2.262a.275.275,0,0,0,.3-.247v-7.82A.276.276,0,0,0,78.755,135.3Z" fill="#9ceb60" stroke="#45413c" stroke-linecap="round" stroke-linejoin="round"></path><path d="M81.908,134.356a.276.276,0,0,0-.3-.247H79.35a.276.276,0,0,0-.3.247v9.008a.275.275,0,0,0,.3.247h2.261a.275.275,0,0,0,.3-.247Z" fill="#fff48c" stroke="#45413c" stroke-linecap="round" stroke-linejoin="round"></path><path d="M84.691,134.112a.306.306,0,0,0-.36-.182l-2.2.448a.249.249,0,0,0-.218.3l2.579,8.749a.305.305,0,0,0,.36.181l2.2-.448a.248.248,0,0,0,.218-.3Z" fill="#f0f0f0" stroke="#45413c" stroke-linecap="round" stroke-linejoin="round"></path><path d="M103.7,134.109h-2.261a.276.276,0,0,0-.3.247v9.008a.275.275,0,0,0,.3.247H103.7a.276.276,0,0,0,.3-.247v-9.008A.277.277,0,0,0,103.7,134.109Z" fill="#ff87af" stroke="#45413c" stroke-linecap="round" stroke-linejoin="round"></path><path d="M106.552,135.3h-2.261a.276.276,0,0,0-.3.247v7.82a.275.275,0,0,0,.3.247h2.261a.275.275,0,0,0,.3-.247v-7.82A.276.276,0,0,0,106.552,135.3Z" fill="#9ceb60" stroke="#45413c" stroke-linecap="round" stroke-linejoin="round"></path><path d="M109.706,134.356a.276.276,0,0,0-.3-.247h-2.261a.276.276,0,0,0-.3.247v9.008a.275.275,0,0,0,.3.247h2.261a.275.275,0,0,0,.3-.247Z" fill="#fff48c" stroke="#45413c" stroke-linecap="round" stroke-linejoin="round"></path><path d="M92.322,121.207H90.061a.276.276,0,0,0-.3.248v9.007a.276.276,0,0,0,.3.248h2.261a.277.277,0,0,0,.3-.248v-9.007A.277.277,0,0,0,92.322,121.207Z" fill="#e0e0e0" stroke="#45413c" stroke-linecap="round" stroke-linejoin="round"></path><path d="M95.178,122.4H92.917a.276.276,0,0,0-.3.248v7.819a.276.276,0,0,0,.3.248h2.261a.276.276,0,0,0,.3-.248v-7.819A.276.276,0,0,0,95.178,122.4Z" fill="#9ceb60" stroke="#45413c" stroke-linecap="round" stroke-linejoin="round"></path><path d="M98.332,121.455a.276.276,0,0,0-.3-.248H95.773a.276.276,0,0,0-.3.248v9.007a.276.276,0,0,0,.3.248h2.262a.276.276,0,0,0,.3-.248Z" fill="#ff87af" stroke="#45413c" stroke-linecap="round" stroke-linejoin="round"></path><path d="M113.081,134.112H110.82a.276.276,0,0,0-.3.247v9.008a.275.275,0,0,0,.3.247h2.261a.276.276,0,0,0,.3-.247v-9.008A.277.277,0,0,0,113.081,134.112Z" fill="#00dfeb" stroke="#45413c" stroke-linecap="round" stroke-linejoin="round"></path><path d="M115.937,135.3h-2.261a.275.275,0,0,0-.3.247v7.82a.275.275,0,0,0,.3.247h2.261a.275.275,0,0,0,.3-.247v-7.82A.275.275,0,0,0,115.937,135.3Z" fill="#f0f0f0" stroke="#45413c" stroke-linecap="round" stroke-linejoin="round"></path><path d="M119.091,134.359a.276.276,0,0,0-.3-.247h-2.261a.276.276,0,0,0-.3.247v9.008a.275.275,0,0,0,.3.247h2.261a.275.275,0,0,0,.3-.247Z" fill="#fff48c" stroke="#45413c" stroke-linecap="round" stroke-linejoin="round"></path><path d="M115.785,121.207h-2.262a.276.276,0,0,0-.3.248v9.007a.276.276,0,0,0,.3.248h2.262a.276.276,0,0,0,.3-.248v-9.007A.276.276,0,0,0,115.785,121.207Z" fill="#00dfeb" stroke="#45413c" stroke-linecap="round" stroke-linejoin="round"></path><path d="M118.641,122.4H116.38a.276.276,0,0,0-.3.248v7.819a.276.276,0,0,0,.3.248h2.261a.277.277,0,0,0,.3-.248v-7.819A.277.277,0,0,0,118.641,122.4Z" fill="#ff87af" stroke="#45413c" stroke-linecap="round" stroke-linejoin="round"></path><path d="M121.8,121.455a.276.276,0,0,0-.3-.248h-2.261a.276.276,0,0,0-.3.248v9.007a.276.276,0,0,0,.3.248H121.5a.276.276,0,0,0,.3-.248Z" fill="#fff48c" stroke="#45413c" stroke-linecap="round" stroke-linejoin="round"></path><path d="M62.5,89.774a.649.649,0,0,1,.713-.676h1.73a1.593,1.593,0,0,1,1.7,1.586A1.334,1.334,0,0,1,65.8,92.01v.017a1.572,1.572,0,0,1,1.37,1.533,1.87,1.87,0,0,1-2.091,1.956H63.224a.668.668,0,0,1-.722-.685Zm1.353,1.866h.7a.668.668,0,0,0,.73-.712.65.65,0,0,0-.73-.64h-.7Zm0,2.686h1.063a.765.765,0,0,0,.848-.784c0-.424-.325-.712-.956-.712h-.955Z" fill="#45413c"></path><path d="M67.428,92.307a3.111,3.111,0,0,1,3.1-3.317,3.153,3.153,0,0,1,3.1,3.317,3.108,3.108,0,1,1-6.2,0Zm4.8,0c0-1.091-.568-2.073-1.694-2.073s-1.695.982-1.695,2.073.55,2.073,1.695,2.073S72.223,93.407,72.223,92.307Z" fill="#45413c"></path><path d="M73.94,92.307a3.111,3.111,0,0,1,3.1-3.317,3.153,3.153,0,0,1,3.1,3.317,3.108,3.108,0,1,1-6.2,0Zm4.8,0c0-1.091-.568-2.073-1.7-2.073s-1.695.982-1.695,2.073.55,2.073,1.695,2.073S78.736,93.407,78.736,92.307Z" fill="#45413c"></path><path d="M80.705,89.711a.651.651,0,0,1,.676-.667.636.636,0,0,1,.676.667v1.947L84.275,89.3a.706.706,0,0,1,.523-.252.655.655,0,0,1,.666.649c0,.234-.144.423-.441.721l-1.7,1.677L85.4,94.263a.984.984,0,0,1,.379.685.627.627,0,0,1-.7.622c-.262,0-.433-.153-.685-.423l-2.335-2.524v2.3a.647.647,0,0,1-.676.649.631.631,0,0,1-.676-.649Z" fill="#45413c"></path><path d="M92.429,89.891a.625.625,0,0,1-.6.667c-.37,0-.658-.27-1.2-.27-.388,0-.739.207-.739.586,0,.928,3.01.333,3.01,2.659a2.14,2.14,0,0,1-2.307,2.091c-.694,0-2.191-.162-2.191-1.009a.6.6,0,0,1,.6-.64c.424,0,.929.351,1.515.351s.919-.333.919-.775c0-1.064-3.011-.424-3.011-2.515a2.086,2.086,0,0,1,2.236-2.046C91.167,88.99,92.429,89.179,92.429,89.891Z" fill="#45413c"></path><path d="M94.559,90.342h-.982a.582.582,0,0,1-.613-.622.6.6,0,0,1,.613-.622h3.317a.6.6,0,0,1,.613.622.582.582,0,0,1-.613.622h-.983v4.525a.677.677,0,1,1-1.352,0Z" fill="#45413c"></path><path d="M97.555,92.307a3.111,3.111,0,0,1,3.1-3.317,3.153,3.153,0,0,1,3.1,3.317,3.108,3.108,0,1,1-6.2,0Zm4.795,0c0-1.091-.568-2.073-1.694-2.073s-1.7.982-1.7,2.073.55,2.073,1.7,2.073S102.35,93.407,102.35,92.307Z" fill="#45413c"></path><path d="M104.32,89.8a.638.638,0,0,1,.694-.7H106.6c1.389,0,2.245.622,2.245,2.037a1.75,1.75,0,0,1-1.668,1.7l1.533,1.64a.587.587,0,0,1,.18.4.69.69,0,0,1-.676.694.7.7,0,0,1-.523-.234l-2-2.425h-.018v1.956a.677.677,0,1,1-1.352,0Zm1.352,2.136h.928a.767.767,0,0,0,.839-.8.756.756,0,0,0-.839-.793h-.928Z" fill="#45413c"></path><path d="M109.335,89.882c0-.451.225-.784.7-.784h2.236a.6.6,0,0,1,.64.622.611.611,0,0,1-.64.622h-1.587v1.316h1.478a.61.61,0,0,1,.658.622.62.62,0,0,1-.658.622h-1.478v1.37h1.668a.6.6,0,0,1,.64.622.61.61,0,0,1-.64.622h-2.326a.657.657,0,0,1-.694-.676Z" fill="#45413c"></path><path d="M48.703 30.994 L52.222 30.994 L52.222 34.513 L48.703 34.513 Z" fill="#debb7e" stroke="#45413c" stroke-linecap="round" stroke-linejoin="round"></path><path d="M59.262 30.994 L62.781 30.994 L62.781 34.513 L59.262 34.513 Z" fill="#debb7e" stroke="#45413c" stroke-linecap="round" stroke-linejoin="round"></path><path d="M69.820 30.994 L73.339 30.994 L73.339 34.513 L69.820 34.513 Z" fill="#debb7e" stroke="#45413c" stroke-linecap="round" stroke-linejoin="round"></path><path d="M80.378 30.994 L83.897 30.994 L83.897 34.513 L80.378 34.513 Z" fill="#debb7e" stroke="#45413c" stroke-linecap="round" stroke-linejoin="round"></path><path d="M90.936 30.994 L94.455 30.994 L94.455 34.513 L90.936 34.513 Z" fill="#debb7e" stroke="#45413c" stroke-linecap="round" stroke-linejoin="round"></path><path d="M101.494 30.994 L105.013 30.994 L105.013 34.513 L101.494 34.513 Z" fill="#debb7e" stroke="#45413c" stroke-linecap="round" stroke-linejoin="round"></path><path d="M112.053 30.994 L115.572 30.994 L115.572 34.513 L112.053 34.513 Z" fill="#debb7e" stroke="#45413c" stroke-linecap="round" stroke-linejoin="round"></path><path d="M122.611 30.994 L126.130 30.994 L126.130 34.513 L122.611 34.513 Z" fill="#debb7e" stroke="#45413c" stroke-linecap="round" stroke-linejoin="round"></path><path d="M44.011 70.309 L69.820 70.309 L69.820 73.226 L44.011 73.226 Z" fill="#ffe500"></path><path d="M68.647,70.309H45.184a1.173,1.173,0,0,0-1.173,1.173v.571a1.151,1.151,0,0,0,.09.444,1.17,1.17,0,0,1,1.083-.729H68.647a1.171,1.171,0,0,1,1.083.729,1.151,1.151,0,0,0,.09-.444v-.571A1.173,1.173,0,0,0,68.647,70.309Z" fill="#fff48c"></path><path d="M44.011 70.309 L69.820 70.309 L69.820 73.226 L44.011 73.226 Z" fill="none" stroke="#45413c" stroke-linecap="round" stroke-linejoin="round"></path><path d="M66.542,47.417H47.288a.931.931,0,0,0-.931.932v21.96H67.474V48.349A.932.932,0,0,0,66.542,47.417Z" fill="#ffe500"></path><path d="M46.357 68.439H67.473V70.309H46.357z" fill="#ebcb00"></path><path d="M66.542,47.417H47.288a.931.931,0,0,0-.931.932v21.96H67.474V48.349A.932.932,0,0,0,66.542,47.417Z" fill="none" stroke="#45413c" stroke-linecap="round" stroke-linejoin="round"></path><path d="M48.703 49.764H55.742000000000004V56.803000000000004H48.703z" fill="#4acfff"></path><path d="M55.742 49.764L48.703 49.764 48.703 56.803 48.887 56.803 55.742 49.948 55.742 49.764z" fill="#80ddff"></path><path d="M48.703 49.764H55.742000000000004V56.803000000000004H48.703z" fill="none" stroke="#45413c" stroke-linecap="round" stroke-linejoin="round"></path><path d="M48.703 60.322H55.742000000000004V67.361H48.703z" fill="#4acfff"></path><path d="M55.742 60.322L48.703 60.322 48.703 67.361 48.887 67.361 55.742 60.506 55.742 60.322z" fill="#80ddff"></path><path d="M48.703 60.322H55.742000000000004V67.361H48.703z" fill="none" stroke="#45413c" stroke-linecap="round" stroke-linejoin="round"></path><path d="M58.089 49.764H65.128V56.803000000000004H58.089z" fill="#4acfff"></path><path d="M65.127 49.764L58.089 49.764 58.089 56.803 58.272 56.803 65.127 49.948 65.127 49.764z" fill="#80ddff"></path><path d="M58.089 49.764H65.128V56.803000000000004H58.089z" fill="none" stroke="#45413c" stroke-linecap="round" stroke-linejoin="round"></path><path d="M58.089 60.322H65.128V67.361H58.089z" fill="#4acfff"></path><path d="M65.127 60.322L58.089 60.322 58.089 67.361 58.272 67.361 65.127 60.506 65.127 60.322z" fill="#80ddff"></path><path d="M58.089 60.322H65.128V67.361H58.089z" fill="none" stroke="#45413c" stroke-linecap="round" stroke-linejoin="round"></path><path d="M74.512 70.309 L100.321 70.309 L100.321 73.226 L74.512 73.226 Z" fill="#ffe500"></path><path d="M99.148,70.309H75.686a1.174,1.174,0,0,0-1.174,1.173v.571a1.169,1.169,0,0,0,.09.444,1.171,1.171,0,0,1,1.084-.729H99.148a1.171,1.171,0,0,1,1.084.729,1.169,1.169,0,0,0,.089-.444v-.571A1.173,1.173,0,0,0,99.148,70.309Z" fill="#fff48c"></path><path d="M74.512 70.309 L100.321 70.309 L100.321 73.226 L74.512 73.226 Z" fill="none" stroke="#45413c" stroke-linecap="round" stroke-linejoin="round"></path><path d="M97.044,47.417H77.79a.931.931,0,0,0-.931.932v21.96H97.975V48.349A.931.931,0,0,0,97.044,47.417Z" fill="#ffe500"></path><path d="M76.859 68.439H97.975V70.309H76.859z" fill="#ebcb00"></path><path d="M97.044,47.417H77.79a.931.931,0,0,0-.931.932v21.96H97.975V48.349A.931.931,0,0,0,97.044,47.417Z" fill="none" stroke="#45413c" stroke-linecap="round" stroke-linejoin="round"></path><path d="M79.205 49.764H86.244V56.803000000000004H79.205z" fill="#4acfff"></path><path d="M86.244 49.764L79.205 49.764 79.205 56.803 79.389 56.803 86.244 49.948 86.244 49.764z" fill="#80ddff"></path><path d="M79.205 49.764H86.244V56.803000000000004H79.205z" fill="none" stroke="#45413c" stroke-linecap="round" stroke-linejoin="round"></path><path d="M79.205 60.322H86.244V67.361H79.205z" fill="#4acfff"></path><path d="M86.244 60.322L79.205 60.322 79.205 67.361 79.389 67.361 86.244 60.506 86.244 60.322z" fill="#80ddff"></path><path d="M79.205 60.322H86.244V67.361H79.205z" fill="none" stroke="#45413c" stroke-linecap="round" stroke-linejoin="round"></path><path d="M88.59 49.764H95.629V56.803000000000004H88.59z" fill="#4acfff"></path><path d="M95.629 49.764L88.59 49.764 88.59 56.803 88.774 56.803 95.629 49.948 95.629 49.764z" fill="#80ddff"></path><path d="M88.59 49.764H95.629V56.803000000000004H88.59z" fill="none" stroke="#45413c" stroke-linecap="round" stroke-linejoin="round"></path><path d="M88.59 60.322H95.629V67.361H88.59z" fill="#4acfff"></path><path d="M95.629 60.322L88.59 60.322 88.59 67.361 88.774 67.361 95.629 60.506 95.629 60.322z" fill="#80ddff"></path><path d="M88.59 60.322H95.629V67.361H88.59z" fill="none" stroke="#45413c" stroke-linecap="round" stroke-linejoin="round"></path><path d="M103.841 70.309 L129.650 70.309 L129.650 73.226 L103.841 73.226 Z" fill="#ffe500"></path><path d="M128.476,70.309H105.014a1.173,1.173,0,0,0-1.173,1.173v.571a1.169,1.169,0,0,0,.089.444,1.171,1.171,0,0,1,1.084-.729h23.462a1.171,1.171,0,0,1,1.084.729,1.169,1.169,0,0,0,.09-.444v-.571A1.174,1.174,0,0,0,128.476,70.309Z" fill="#fff48c"></path><path d="M103.841 70.309 L129.650 70.309 L129.650 73.226 L103.841 73.226 Z" fill="none" stroke="#45413c" stroke-linecap="round" stroke-linejoin="round"></path><path d="M126.372,47.417H107.118a.931.931,0,0,0-.931.932v21.96H127.3V48.349A.931.931,0,0,0,126.372,47.417Z" fill="#ffe500"></path><path d="M106.187 68.439H127.303V70.309H106.187z" fill="#ebcb00"></path><path d="M126.372,47.417H107.118a.931.931,0,0,0-.931.932v21.96H127.3V48.349A.931.931,0,0,0,126.372,47.417Z" fill="none" stroke="#45413c" stroke-linecap="round" stroke-linejoin="round"></path><path d="M108.533 49.764H115.572V56.803000000000004H108.533z" fill="#4acfff"></path><path d="M115.572 49.764L108.533 49.764 108.533 56.803 108.717 56.803 115.572 49.948 115.572 49.764z" fill="#80ddff"></path><path d="M108.533 49.764H115.572V56.803000000000004H108.533z" fill="none" stroke="#45413c" stroke-linecap="round" stroke-linejoin="round"></path><path d="M108.533 60.322H115.572V67.361H108.533z" fill="#4acfff"></path><path d="M115.572 60.322L108.533 60.322 108.533 67.361 108.717 67.361 115.572 60.506 115.572 60.322z" fill="#80ddff"></path><path d="M108.533 60.322H115.572V67.361H108.533z" fill="none" stroke="#45413c" stroke-linecap="round" stroke-linejoin="round"></path><path d="M117.918 49.764H124.95700000000001V56.803000000000004H117.918z" fill="#4acfff"></path><path d="M124.957 49.764L117.918 49.764 117.918 56.803 118.102 56.803 124.957 49.948 124.957 49.764z" fill="#80ddff"></path><path d="M117.918 49.764H124.95700000000001V56.803000000000004H117.918z" fill="none" stroke="#45413c" stroke-linecap="round" stroke-linejoin="round"></path><path d="M117.918 60.322H124.95700000000001V67.361H117.918z" fill="#4acfff"></path><path d="M124.957 60.322L117.918 60.322 117.918 67.361 118.102 67.361 124.957 60.506 124.957 60.322z" fill="#80ddff"></path><path d="M117.918 60.322H124.95700000000001V67.361H117.918z" fill="none" stroke="#45413c" stroke-linecap="round" stroke-linejoin="round"></path><path d="M149.549,147.055h0v-19.1c0-9.907,7.346-21.8,16.528-21.8" fill="none" stroke="#45413c" stroke-linecap="round" stroke-linejoin="round"></path><path d="M129.311,106.159c20.9,0,20.327,29.437,20.212,40.9" fill="none" stroke="#45413c" stroke-linecap="round" stroke-linejoin="round"></path><path d="M166.044,125.974a15.012,15.012,0,0,1-8.334,8.813l-8.161,3.3" fill="none" stroke="#45413c" stroke-linecap="round" stroke-linejoin="round"></path><path d="M179.936,92.33a1.294,1.294,0,0,1-1.124-.867c-1.429-4.138-4.79-7.1-9.422-7.1a9.349,9.349,0,0,0-5.087,1.523,1.292,1.292,0,0,1-1.948-.75c-1.671-6.166-6.909-10.681-13.165-10.681-6.369,0-11.675,4.683-13.239,11.023a1.295,1.295,0,0,1-1.992.754,10.289,10.289,0,0,0-5.888-1.869,11.136,11.136,0,0,0-10.512,8.509c-4.25-2.168-7.853,1.729-7.853,5.361a5.74,5.74,0,0,0,5.51,5.945,5.086,5.086,0,0,0,2.664-.762,1.291,1.291,0,0,1,1.66.269,6.818,6.818,0,0,0,5.2,2.474H169.39a9.571,9.571,0,0,0,6.288-2.394,1.3,1.3,0,0,1,1.442-.17,5.132,5.132,0,0,0,2.371.583,5.967,5.967,0,0,0,.445-11.848Z" fill="#ffccdd"></path><path d="M183.6,102.2a5.194,5.194,0,0,0-3.658-1.972,1.3,1.3,0,0,1-1.125-.868,10.128,10.128,0,0,0-9.422-7.1,9.349,9.349,0,0,0-5.087,1.523,1.293,1.293,0,0,1-1.948-.749c-1.671-6.167-6.909-10.682-13.165-10.682-6.369,0-11.675,4.683-13.239,11.023a1.294,1.294,0,0,1-1.991.754,10.3,10.3,0,0,0-5.889-1.869,10.993,10.993,0,0,0-10.11,7.3,1.293,1.293,0,0,1-1.525.785,5.222,5.222,0,0,0-5.325,1.858,6.2,6.2,0,0,1-1.405-3.965c0-4.178,4.047-7.3,7.853-5.361a11.136,11.136,0,0,1,10.512-8.509,10.289,10.289,0,0,1,5.888,1.869,1.294,1.294,0,0,0,1.992-.754c1.564-6.34,6.87-11.023,13.239-11.023,6.256,0,11.494,4.515,13.165,10.681a1.294,1.294,0,0,0,1.948.75,9.349,9.349,0,0,1,5.087-1.523,10.128,10.128,0,0,1,9.422,7.1,1.3,1.3,0,0,0,1.124.868,5.739,5.739,0,0,1,5.064,5.9A6.192,6.192,0,0,1,183.6,102.2Z" fill="#ffe5ee"></path><path d="M179.936,92.33a1.294,1.294,0,0,1-1.124-.867c-1.429-4.138-4.79-7.1-9.422-7.1a9.349,9.349,0,0,0-5.087,1.523,1.292,1.292,0,0,1-1.948-.75c-1.671-6.166-6.909-10.681-13.165-10.681-6.369,0-11.675,4.683-13.239,11.023a1.295,1.295,0,0,1-1.992.754,10.289,10.289,0,0,0-5.888-1.869,11.136,11.136,0,0,0-10.512,8.509c-4.25-2.168-7.853,1.729-7.853,5.361a5.74,5.74,0,0,0,5.51,5.945,5.086,5.086,0,0,0,2.664-.762,1.291,1.291,0,0,1,1.66.269,6.818,6.818,0,0,0,5.2,2.474H169.39a9.571,9.571,0,0,0,6.288-2.394,1.3,1.3,0,0,1,1.442-.17,5.132,5.132,0,0,0,2.371.583,5.967,5.967,0,0,0,.445-11.848Z" fill="none" stroke="#45413c" stroke-linecap="round" stroke-linejoin="round"></path><path d="M160.256,125.974a4.748,4.748,0,0,1-.966-2.807,4.464,4.464,0,0,1,4.285-4.624,3.881,3.881,0,0,1,1.825.46,1.291,1.291,0,0,0,1.687-.436,5.687,5.687,0,0,1,4.752-2.666,6.059,6.059,0,0,1,5.815,6.275,6.537,6.537,0,0,1-1.215,3.8Z" fill="#ffccdd"></path><path d="M177.573,123.18a5.749,5.749,0,0,0-5.095-3.31,5.687,5.687,0,0,0-4.752,2.665,1.292,1.292,0,0,1-1.687.437,3.882,3.882,0,0,0-1.825-.461,4.328,4.328,0,0,0-4.081,3.287,4.684,4.684,0,0,1-.843-2.631,4.464,4.464,0,0,1,4.285-4.624,3.881,3.881,0,0,1,1.825.46,1.291,1.291,0,0,0,1.687-.436,5.687,5.687,0,0,1,4.752-2.666,6.059,6.059,0,0,1,5.815,6.275,6.513,6.513,0,0,1-.077,1" fill="#ffe5ee"></path><path d="M160.256,125.974a4.748,4.748,0,0,1-.966-2.807,4.464,4.464,0,0,1,4.285-4.624,3.881,3.881,0,0,1,1.825.46,1.291,1.291,0,0,0,1.687-.436,5.687,5.687,0,0,1,4.752-2.666,6.059,6.059,0,0,1,5.815,6.275,6.537,6.537,0,0,1-1.215,3.8Z" fill="none" stroke="#45413c" stroke-linecap="round" stroke-linejoin="round"></path></g></svg>