<svg xmlns="http://www.w3.org/2000/svg" width="140.2" height="128.002" viewBox="0 0 140.2 128.002"><g data-paper-data="{&quot;isPaintingLayer&quot;:true}" stroke-miterlimit="10" style="mix-blend-mode:normal"><path d="M128.398 90.41H11.802C1.016 66.6 5.795 38.622 23.873 19.74 41.951.86 69.695-5.13 93.953 4.614c24.256 9.742 40.15 33.257 40.147 59.397a63.75 63.75 0 0 1-5.702 26.4z" fill="#c7f0ff"/><path d="M128.398 90.41a64 64 0 0 1-116.596 0z" fill="#f0d3a8"/><path d="M7.7 90.41h124.8M4.5 90.41h-4M139.7 90.41h-4" fill="none" stroke="#45413c" stroke-linecap="round" stroke-linejoin="round"/><path d="M38.005 62.552a8.12 8.12 0 0 1 2.186 5.465l.187 20.034a2.026 2.026 0 0 1-2.01 2.047l-9.523.09a2.026 2.026 0 0 1-2.048-2.01l-.186-20.033a8.119 8.119 0 0 1 2.083-5.506 8.116 8.116 0 0 0 2.082-5.506l-.084-8.793a.851.851 0 0 1 .843-.858l3.343-.032a.85.85 0 0 1 .858.842l.084 8.793a8.121 8.121 0 0 0 2.185 5.467z" fill="#9ceb60"/><path d="M35.82 57.085a8.121 8.121 0 0 0 2.185 5.467 8.12 8.12 0 0 1 2.186 5.465l.186 20.034a2.026 2.026 0 0 1-2.01 2.047l-6.455.059a2.022 2.022 0 0 1-1.753-1.983l-.185-20.033a8.12 8.12 0 0 1 2.084-5.507 8.116 8.116 0 0 0 2.082-5.506l-.084-8.792a.85.85 0 0 1 .842-.859l.13-.001a.838.838 0 0 1 .71.814z" fill="#6dd627"/><path d="M38.005 62.552h0a8.12 8.12 0 0 1 2.186 5.465l.187 20.034a2.026 2.026 0 0 1-2.01 2.047l-9.523.09a2.026 2.026 0 0 1-2.048-2.01l-.186-20.033a8.119 8.119 0 0 1 2.083-5.506h0a8.116 8.116 0 0 0 2.082-5.506l-.084-8.793a.851.851 0 0 1 .843-.858l3.343-.032a.85.85 0 0 1 .858.842l.084 8.793a8.121 8.121 0 0 0 2.185 5.467z" fill="none" stroke="#45413c" stroke-linecap="round" stroke-linejoin="round"/><path d="m30.715 50.98-.025-2.641a.851.851 0 0 1 .844-.859l3.342-.031a.85.85 0 0 1 .858.842l.025 2.642z" fill="#b9762a" stroke="#45413c" stroke-linecap="round" stroke-linejoin="round"/><path d="M63.94 61.951a8.12 8.12 0 0 1 2.185 5.466l.186 20.034a2.026 2.026 0 0 1-2.01 2.047l-9.522.089a2.026 2.026 0 0 1-2.048-2.01l-.186-20.032a8.119 8.119 0 0 1 2.082-5.506 8.116 8.116 0 0 0 2.083-5.507l-.084-8.792a.851.851 0 0 1 .843-.859l3.342-.031a.85.85 0 0 1 .859.842l.084 8.793a8.121 8.121 0 0 0 2.185 5.466z" fill="#9ceb60"/><path d="M61.754 56.485a8.121 8.121 0 0 0 2.185 5.466 8.12 8.12 0 0 1 2.186 5.466l.186 20.033a2.026 2.026 0 0 1-2.01 2.048l-6.455.058a2.022 2.022 0 0 1-1.753-1.982l-.185-20.034a8.12 8.12 0 0 1 2.083-5.506 8.116 8.116 0 0 0 2.083-5.506l-.084-8.793a.85.85 0 0 1 .842-.858l.129-.002a.838.838 0 0 1 .71.814z" fill="#6dd627"/><path d="M63.94 61.951h0a8.12 8.12 0 0 1 2.185 5.466l.186 20.034a2.026 2.026 0 0 1-2.01 2.047l-9.522.089a2.026 2.026 0 0 1-2.048-2.01l-.186-20.032a8.119 8.119 0 0 1 2.082-5.506h0a8.116 8.116 0 0 0 2.083-5.507l-.084-8.792a.851.851 0 0 1 .843-.859l3.342-.031a.85.85 0 0 1 .859.842l.084 8.793a8.121 8.121 0 0 0 2.185 5.466z" fill="none" stroke="#45413c" stroke-linecap="round" stroke-linejoin="round"/><path d="m56.649 50.38-.025-2.642a.851.851 0 0 1 .843-.858l3.343-.032a.85.85 0 0 1 .858.843l.025 2.642z" fill="#b9762a" stroke="#45413c" stroke-linecap="round" stroke-linejoin="round"/><path d="M106.006 88.033a8.12 8.12 0 0 1-5.507 2.079l-20.034-.2a2.026 2.026 0 0 1-2.008-2.05l.095-9.522a2.026 2.026 0 0 1 2.049-2.009l20.032.202a8.119 8.119 0 0 1 5.465 2.188 8.116 8.116 0 0 0 5.465 2.189l8.793.086c.47.005.847.39.842.86l-.033 3.342a.85.85 0 0 1-.859.842l-8.793-.086a8.121 8.121 0 0 0-5.507 2.079z" fill="#9ceb60"/><path d="M111.513 85.954a8.121 8.121 0 0 0-5.507 2.079 8.12 8.12 0 0 1-5.507 2.079l-20.034-.201a2.026 2.026 0 0 1-2.008-2.049l.067-6.456a2.022 2.022 0 0 1 2.016-1.714l20.033.203a8.12 8.12 0 0 1 5.465 2.19 8.116 8.116 0 0 0 5.465 2.188l8.792.086a.85.85 0 0 1 .842.859v.129a.838.838 0 0 1-.828.695z" fill="#6dd627"/><path d="M106.006 88.033h0a8.12 8.12 0 0 1-5.507 2.079l-20.034-.2a2.026 2.026 0 0 1-2.008-2.05l.095-9.522a2.026 2.026 0 0 1 2.049-2.009l20.032.202a8.119 8.119 0 0 1 5.465 2.188h0a8.116 8.116 0 0 0 5.465 2.189l8.793.086c.47.005.847.39.842.86l-.033 3.342a.85.85 0 0 1-.859.842l-8.793-.086a8.121 8.121 0 0 0-5.507 2.079z" fill="none" stroke="#45413c" stroke-linecap="round" stroke-linejoin="round"/><path d="m117.716 80.968 2.641.026c.47.005.847.39.842.86l-.033 3.342a.85.85 0 0 1-.859.842l-2.642-.026z" fill="#b9762a" stroke="#45413c" stroke-linecap="round" stroke-linejoin="round"/></g></svg>
