<svg viewBox="0 0 160 160" height="160" width="160" xmlns="http://www.w3.org/2000/svg"><g transform="matrix(0.8,0,0,0.8,0,0)"><path d="M33.042,141.18a73.036,73.036,0,1,1,133.916,0Z" fill="#b8ecff"></path><path d="M33.059,141.179a73.04,73.04,0,0,0,133.882,0Z" fill="#ccf7ad"></path><path d="M28.79 141.179L171.21 141.179" fill="none" stroke="#45413c" stroke-linecap="round" stroke-linejoin="round"></path><path d="M20.574 141.179L25.138 141.179" fill="none" stroke="#45413c" stroke-linecap="round" stroke-linejoin="round"></path><path d="M174.862 141.179L179.426 141.179" fill="none" stroke="#45413c" stroke-linecap="round" stroke-linejoin="round"></path><path d="M52.455,132.981c0-5.044-1.346-14.574-4.977-19.027a1.216,1.216,0,0,0-1.868,0c-3.631,4.452-4.976,13.978-4.976,19.019,0,7.563,3.029,14.438,5.91,14.438S52.455,140.541,52.455,132.981Z" fill="#6dd627" stroke="#45413c" stroke-linecap="round" stroke-linejoin="round"></path><path d="M52.29,136.063c-.4-3.827-1.653-11.12-4.18-15.237a1.827,1.827,0,0,0-3.133,0c-2.526,4.115-3.776,11.405-4.178,15.228a29.106,29.106,0,0,1-.165-3.081c0-5.041,1.345-14.567,4.976-19.019a1.216,1.216,0,0,1,1.868,0c3.631,4.453,4.977,13.983,4.977,19.027A29.111,29.111,0,0,1,52.29,136.063Z" fill="#9ceb60"></path><path d="M46.545 153.754L46.545 130.418" fill="none" stroke="#45413c" stroke-linecap="round" stroke-linejoin="round"></path><path d="M46.545 139.284L49.5 136.329" fill="none" stroke="#45413c" stroke-linecap="round" stroke-linejoin="round"></path><path d="M46.545 135.59L44.697 133.743" fill="none" stroke="#45413c" stroke-linecap="round" stroke-linejoin="round"></path><path d="M52.455,132.981c0-5.044-1.346-14.574-4.977-19.027a1.216,1.216,0,0,0-1.868,0c-3.631,4.452-4.976,13.978-4.976,19.019,0,7.563,3.029,14.438,5.91,14.438S52.455,140.541,52.455,132.981Z" fill="none" stroke="#45413c" stroke-linecap="round" stroke-linejoin="round"></path><path d="M58.167 34.647H142.893V38.330999999999996H58.167z" fill="#fff48c"></path><path d="M58.167 34.647H142.893V38.330999999999996H58.167z" fill="none" stroke="#45413c" stroke-linecap="round" stroke-linejoin="round"></path><path d="M55.711 30.963 L145.349 30.963 L145.349 34.647 L55.711 34.647 Z" fill="#c0dceb" stroke="#45413c" stroke-linecap="round" stroke-linejoin="round"></path><path d="M61.851 15.000 L139.210 15.000 L139.210 18.684 L61.851 18.684 Z" fill="#c0dceb" stroke="#45413c" stroke-linecap="round" stroke-linejoin="round"></path><path d="M58.167 86.219H113.423V153.754H58.167z" fill="#656769"></path><path d="M58.167 86.219H113.423V90.035H58.167z" fill="#525252"></path><path d="M58.167 86.219H113.423V153.754H58.167z" fill="none" stroke="#45413c" stroke-linecap="round" stroke-linejoin="round"></path><path d="M117.107 86.219H142.893V143.93099999999998H117.107z" fill="#525252"></path><path d="M117.107 86.219H142.893V143.93099999999998H117.107z" fill="none" stroke="#45413c" stroke-linecap="round" stroke-linejoin="round"></path><path d="M117.107 86.219L113.423 86.219 113.423 148.843 117.107 143.931 117.107 86.219z" fill="#bf8df2"></path><path d="M117.107 86.219L113.423 86.219 113.423 89.903 117.107 88.675 117.107 86.219z" fill="#a05ae5"></path><path d="M117.107 143.931L113.423 148.843 113.423 153.754 117.107 148.843 117.107 143.931z" fill="#00dba8" stroke="#45413c" stroke-linecap="round" stroke-linejoin="round"></path><path d="M113.423 148.843H146.577V153.755H113.423z" fill="#87898c" stroke="#45413c" stroke-linecap="round" stroke-linejoin="round"></path><path d="M146.577 148.843L113.423 148.843 117.107 143.931 142.893 143.931 146.577 148.843z" fill="#e0e0e0" stroke="#45413c" stroke-linecap="round" stroke-linejoin="round"></path><path d="M109.888,156.21a1.162,1.162,0,0,0-.148.546v1.326a.583.583,0,0,0,.583.584H149.13a1.131,1.131,0,0,0,1.131-1.131v-.764a1.171,1.171,0,0,0-.157-.561Z" fill="#87898c" stroke="#45413c" stroke-linecap="round" stroke-linejoin="round"></path><path d="M109.888,156.21H150.1a2.47,2.47,0,0,0-.359-.664l-3.3-4.247H113.423l-3.192,4.257A2.42,2.42,0,0,0,109.888,156.21Z" fill="#e0e0e0" stroke="#45413c" stroke-linecap="round" stroke-linejoin="round"></path><path d="M58.167 38.33H142.893V86.219H58.167z" fill="#656769"></path><path d="M58.167 38.33H142.893V42.628H58.167z" fill="#525252"></path><path d="M58.167 38.33H142.893V86.219H58.167z" fill="none" stroke="#45413c" stroke-linecap="round" stroke-linejoin="round"></path><path d="M55.542,145.159h57.881v-3.684H55.542a1.059,1.059,0,0,0-1.059,1.059V144.1A1.059,1.059,0,0,0,55.542,145.159Z" fill="#fff48c" stroke="#45413c" stroke-linecap="round" stroke-linejoin="round"></path><path d="M58,148.843h55.425v-3.684H56.939v2.625A1.059,1.059,0,0,0,58,148.843Z" fill="#fff48c" stroke="#45413c" stroke-linecap="round" stroke-linejoin="round"></path><path d="M54.483 82.535 L146.577 82.535 L146.577 86.219 L54.483 86.219 Z" fill="#fff48c" stroke="#45413c" stroke-linecap="round" stroke-linejoin="round"></path><path d="M137.15,18.684H63.91a1.227,1.227,0,0,0-1.14.772l-4.6,11.507h84.726l-4.6-11.507A1.226,1.226,0,0,0,137.15,18.684Z" fill="#8ca4b8"></path><path d="M139.824,23.288l-1.534-3.833a1.228,1.228,0,0,0-1.14-.771H63.91a1.228,1.228,0,0,0-1.14.771l-1.533,3.833Z" fill="#adc4d9"></path><path d="M137.15,18.684H63.91a1.227,1.227,0,0,0-1.14.772l-4.6,11.507h84.726l-4.6-11.507A1.226,1.226,0,0,0,137.15,18.684Z" fill="none" stroke="#45413c" stroke-linecap="round" stroke-linejoin="round"></path><path d="M142.893,89.9h6.2a1.168,1.168,0,0,1,1.168,1.167v2.46" fill="none" stroke="#45413c" stroke-linecap="round" stroke-linejoin="round"></path><path d="M130,95.7a9.211,9.211,0,0,1,9.21,9.21v39.02H120.791v-39.02A9.21,9.21,0,0,1,130,95.7Z" fill="#fff48c"></path><path d="M130,98.157a6.754,6.754,0,0,1,6.754,6.754H123.247A6.753,6.753,0,0,1,130,98.157Z" fill="#4acfff"></path><path d="M130,95.7a9.211,9.211,0,0,1,9.21,9.21v39.02H120.791v-39.02A9.21,9.21,0,0,1,130,95.7Z" fill="none" stroke="#45413c" stroke-linecap="round" stroke-linejoin="round"></path><path d="M133.042,98.887a6.743,6.743,0,0,0-9.8,6.024h3.771Z" fill="#80ddff"></path><path d="M130,98.157a6.754,6.754,0,0,1,6.754,6.754H123.247A6.753,6.753,0,0,1,130,98.157Z" fill="none" stroke="#45413c" stroke-linecap="round" stroke-linejoin="round"></path><path d="M123.247 108.415H136.754V140.839H123.247z" fill="#4acfff"></path><path d="M123.247 125.079L136.754 111.572 136.754 108.415 123.247 108.415 123.247 125.079z" fill="#80ddff"></path><path d="M123.247 108.415H136.754V140.839H123.247z" fill="none" stroke="#45413c" stroke-linecap="round" stroke-linejoin="round"></path><path d="M130 108.415L130 140.839" fill="none" stroke="#45413c" stroke-linecap="round" stroke-linejoin="round"></path><path d="M123.247 115.154L136.754 115.154" fill="none" stroke="#45413c" stroke-linecap="round" stroke-linejoin="round"></path><path d="M123.242 121.608L136.749 121.608" fill="none" stroke="#45413c" stroke-linecap="round" stroke-linejoin="round"></path><path d="M123.247 127.916L136.754 127.916" fill="none" stroke="#45413c" stroke-linecap="round" stroke-linejoin="round"></path><path d="M123.247 134.074L136.754 134.074" fill="none" stroke="#45413c" stroke-linecap="round" stroke-linejoin="round"></path><path d="M117.107 86.219L113.423 86.219 113.423 148.843 117.107 143.931 117.107 86.219z" fill="#87898c" stroke="#45413c" stroke-linecap="round" stroke-linejoin="round"></path><path d="M61.992 91.412 L109.739 91.412 L109.739 136.283 L61.992 136.283 Z" fill="#e8f4fa" stroke="#45413c" stroke-linecap="round" stroke-linejoin="round"></path><path d="M64.307 93.587 L107.426 93.587 L107.426 134.108 L64.307 134.108 Z" fill="#4acfff"></path><path d="M65.535,134.108a1.228,1.228,0,0,1-1.228-1.228V94.815a1.227,1.227,0,0,1,1.228-1.228H106.2Z" fill="#80ddff"></path><path d="M64.307 93.587 L107.426 93.587 L107.426 134.108 L64.307 134.108 Z" fill="none" stroke="#45413c" stroke-linecap="round" stroke-linejoin="round"></path><path d="M76.596 125.087L74.503 125.048 74.503 118.171 76.596 118.186 76.596 125.087z" fill="#f7e5c6" stroke="#45413c" stroke-linecap="round" stroke-linejoin="round"></path><path d="M78.731,126.105H72.389a2.115,2.115,0,0,1,2.114-2.114h2.114a2.213,2.213,0,0,1,2.114,2.114Z" fill="#f7e5c6" stroke="#45413c" stroke-linecap="round" stroke-linejoin="round"></path><path d="M78.62,104.7l-3.062,3.439L72.5,104.7a6.338,6.338,0,0,0-3.282,5.553v2.643a1.057,1.057,0,0,0,1.057,1.056h1.586v3.171a1.057,1.057,0,0,0,1.057,1.057H78.2a1.057,1.057,0,0,0,1.057-1.057V113.95h1.586a1.057,1.057,0,0,0,1.057-1.056v-2.643A6.338,6.338,0,0,0,78.62,104.7Z" fill="#bf8256"></path><path d="M74.4,106.836a5.616,5.616,0,0,0-5.183,4.877v-1.462A6.338,6.338,0,0,1,72.5,104.7Z" fill="#dea47a"></path><path d="M78.6,104.689a3.172,3.172,0,0,1-1.946-2.4.583.583,0,0,0-.575-.492H75.033a.583.583,0,0,0-.574.48,3.3,3.3,0,0,1-1.8,2.354l-.157.068,3.058,3.439L78.62,104.7Z" fill="#f7e5c6" stroke="#45413c" stroke-linecap="round" stroke-linejoin="round"></path><path d="M71.862 113.953L71.862 110.772" fill="none" stroke="#45413c" stroke-linecap="round" stroke-linejoin="round"></path><path d="M79.246 113.953L79.246 110.772" fill="none" stroke="#45413c" stroke-linecap="round" stroke-linejoin="round"></path><path d="M75.534 108.121L75.534 118.195" fill="none" stroke="#45413c" stroke-linecap="round" stroke-linejoin="round"></path><path d="M76.727,106.835a5.61,5.61,0,0,1,5.175,4.932v-1.516A6.338,6.338,0,0,0,78.62,104.7l-1.9,2.132" fill="#dea47a"></path><path d="M78.62,104.7l-3.062,3.439L72.5,104.7a6.338,6.338,0,0,0-3.282,5.553v2.643a1.057,1.057,0,0,0,1.057,1.056h1.586v3.171a1.057,1.057,0,0,0,1.057,1.057H78.2a1.057,1.057,0,0,0,1.057-1.057V113.95h1.586a1.057,1.057,0,0,0,1.057-1.056v-2.643A6.338,6.338,0,0,0,78.62,104.7Z" fill="none" stroke="#45413c" stroke-linecap="round" stroke-linejoin="round"></path><path d="M95.733 125.032L93.64 125.07 93.64 119.768 95.733 119.747 95.733 125.032z" fill="#f7e5c6" stroke="#45413c" stroke-linecap="round" stroke-linejoin="round"></path><path d="M95.905,100.7a.584.584,0,0,0-.573-.476H94.284a.583.583,0,0,0-.576.495,3.032,3.032,0,0,1-1.809,2.339l-.157.068,1.878,5.309a1.168,1.168,0,0,0,2.191.029l2.052-5.338-.02-.009A3.456,3.456,0,0,1,95.905,100.7Z" fill="#f7e5c6" stroke="#45413c" stroke-linecap="round" stroke-linejoin="round"></path><path d="M97.847,126.089H91.505a2.213,2.213,0,0,1,2.114-2.114h2.114a2.114,2.114,0,0,1,2.114,2.114Z" fill="#f7e5c6" stroke="#45413c" stroke-linecap="round" stroke-linejoin="round"></path><path d="M97.863,103.1a3.157,3.157,0,0,1-6.121,0,6.339,6.339,0,0,0-3.281,5.553v6.87a1.057,1.057,0,0,0,1.057,1.057H91.1v3.171A1.057,1.057,0,0,0,92.16,120.8h5.285a1.057,1.057,0,0,0,1.057-1.057v-3.171h1.585a1.057,1.057,0,0,0,1.057-1.057v-6.87A6.339,6.339,0,0,0,97.863,103.1Z" fill="#ffb0ca"></path><path d="M91.117 116.587L91.117 109.165" fill="none" stroke="#45413c" stroke-linecap="round" stroke-linejoin="round"></path><path d="M98.537 116.587L98.537 109.165" fill="none" stroke="#45413c" stroke-linecap="round" stroke-linejoin="round"></path><path d="M101.144,110.165a5.636,5.636,0,0,0-5.136-4.926,3.182,3.182,0,0,0,1.855-2.143,6.339,6.339,0,0,1,3.281,5.553Z" fill="#fcd"></path><path d="M93.6,105.239a5.636,5.636,0,0,0-5.136,4.926v-1.516a6.339,6.339,0,0,1,3.281-5.553A3.185,3.185,0,0,0,93.6,105.239Z" fill="#fcd"></path><path d="M97.863,103.1a3.157,3.157,0,0,1-6.121,0,6.339,6.339,0,0,0-3.281,5.553v6.87a1.057,1.057,0,0,0,1.057,1.057H91.1v3.171A1.057,1.057,0,0,0,92.16,120.8h5.285a1.057,1.057,0,0,0,1.057-1.057v-3.171h1.585a1.057,1.057,0,0,0,1.057-1.057v-6.87A6.339,6.339,0,0,0,97.863,103.1Z" fill="none" stroke="#45413c" stroke-linecap="round" stroke-linejoin="round"></path><path d="M100.347,134.108H70.955a.681.681,0,0,1-.68-.68v-5.963a1.36,1.36,0,0,1,1.36-1.36H99.667a1.36,1.36,0,0,1,1.36,1.36v5.963A.68.68,0,0,1,100.347,134.108Z" fill="#fff" stroke="#45413c" stroke-linecap="round" stroke-linejoin="round"></path><path d="M99.056,134.108H72.247v-5.351a.679.679,0,0,1,.68-.68H98.376a.679.679,0,0,1,.68.68Z" fill="#e0e0e0"></path><path d="M73.035,128.077a.788.788,0,0,0-.788.788v1.183H99.056v-1.183a.788.788,0,0,0-.789-.788Z" fill="#bdbec0"></path><path d="M99.056,134.108H72.247v-5.351a.679.679,0,0,1,.68-.68H98.376a.679.679,0,0,1,.68.68Z" fill="none" stroke="#45413c" stroke-linecap="round" stroke-linejoin="round"></path><path d="M93.142,126.105H82.891v-8.388a.681.681,0,0,1,.681-.68h8.89a.68.68,0,0,1,.68.68Z" fill="#f0f0f0"></path><path d="M93.142,117.826a.788.788,0,0,0-.788-.789H83.68a.789.789,0,0,0-.789.789V119.4a.789.789,0,0,1,.789-.789h8.674a.788.788,0,0,1,.788.789Z" fill="#fff"></path><path d="M93.142,126.105H82.891v-8.388a.681.681,0,0,1,.681-.68h8.89a.68.68,0,0,1,.68.68Z" fill="none" stroke="#45413c" stroke-linecap="round" stroke-linejoin="round"></path><path d="M84.469,113.883a.788.788,0,0,1,.788-.788h4.731a.788.788,0,0,0-.788.788v3.154H84.469Z" fill="#ff6242"></path><path d="M84.469,115.46a.788.788,0,0,1,.788-.788H89.2v-.789a.788.788,0,0,1,.788-.788H85.257a.788.788,0,0,0-.788.788Z" fill="#ff866e"></path><path d="M84.469,113.883a.788.788,0,0,1,.788-.788h4.731a.788.788,0,0,0-.788.788v3.154H84.469Z" fill="none" stroke="#45413c" stroke-linecap="round" stroke-linejoin="round"></path><path d="M89.2,117.037h2.759v-3.262a.679.679,0,0,0-.68-.68h-1.4a.679.679,0,0,0-.68.68Z" fill="#e04122"></path><path d="M91.171,113.1H89.988a.788.788,0,0,0-.788.788v1.577a.788.788,0,0,1,.788-.788h1.183a.788.788,0,0,1,.788.788v-1.577A.788.788,0,0,0,91.171,113.1Z" fill="#ff6242"></path><path d="M89.2,117.037h2.759v-3.262a.679.679,0,0,0-.68-.68h-1.4a.679.679,0,0,0-.68.68Z" fill="none" stroke="#45413c" stroke-linecap="round" stroke-linejoin="round"></path><path d="M89.594,113.1V112.7a1.577,1.577,0,0,0-3.154,0v.394" fill="none" stroke="#45413c" stroke-linecap="round" stroke-linejoin="round"></path><path d="M97.672,124.751a1.577,1.577,0,0,1-1.561,1.354H90.962a1.578,1.578,0,0,1-1.562-1.354l-.466-3.265a.788.788,0,0,1,.78-.9h7.644a.789.789,0,0,1,.781.9Z" fill="#ffaa54"></path><path d="M89.077,122.488a.785.785,0,0,1,.637-.325h7.644a.786.786,0,0,1,.638.325l.143-1a.789.789,0,0,0-.781-.9H89.714a.788.788,0,0,0-.78.9Z" fill="#fc9"></path><path d="M97.672,124.751a1.577,1.577,0,0,1-1.561,1.354H90.962a1.578,1.578,0,0,1-1.562-1.354l-.466-3.265a.788.788,0,0,1,.78-.9h7.644a.789.789,0,0,1,.781.9Z" fill="none" stroke="#45413c" stroke-linecap="round" stroke-linejoin="round"></path><path d="M91.171,121.768l1.209-3.023a1.245,1.245,0,0,1,2.312,0l1.21,3.023" fill="none" stroke="#45413c" stroke-linecap="round" stroke-linejoin="round"></path><path d="M76.011,121.588a.4.4,0,0,0-.119.434,5.515,5.515,0,0,1,.27,2.361,1.576,1.576,0,0,0,1.572,1.722h5.584a1.579,1.579,0,0,0,1.572-1.722A5.485,5.485,0,0,1,85.168,122a.393.393,0,0,0-.092-.412L83.4,119.913a.394.394,0,0,0-.279-.116H78.3a.4.4,0,0,0-.252.092Z" fill="#00dba8"></path><path d="M77.941,121.557a.789.789,0,0,1,.5-.183h4.513a.789.789,0,0,1,.558.231l1.4,1.4A5.239,5.239,0,0,1,85.168,122a.393.393,0,0,0-.092-.412L83.4,119.913a.394.394,0,0,0-.279-.116H78.3a.4.4,0,0,0-.252.092l-2.04,1.7a.4.4,0,0,0-.119.434,5.208,5.208,0,0,1,.248,1.036Z" fill="#00f5bc"></path><path d="M76.011,121.588a.4.4,0,0,0-.119.434,5.515,5.515,0,0,1,.27,2.361,1.576,1.576,0,0,0,1.572,1.722h5.584a1.579,1.579,0,0,0,1.572-1.722A5.485,5.485,0,0,1,85.168,122a.393.393,0,0,0-.092-.412L83.4,119.913a.394.394,0,0,0-.279-.116H78.3a.4.4,0,0,0-.252.092Z" fill="none" stroke="#45413c" stroke-linecap="round" stroke-linejoin="round"></path><path d="M78.949,120.98v-1.971a1.577,1.577,0,0,1,3.154,0v1.971" fill="none" stroke="#45413c" stroke-linecap="round" stroke-linejoin="round"></path><path d="M150.175,93.528a2.546,2.546,0,0,0-2.542,2.542c0,.739.367,1.039.839,1.039h3.406c.472,0,.839-.3.839-1.039A2.545,2.545,0,0,0,150.175,93.528Z" fill="#c0dceb" stroke="#45413c" stroke-linecap="round" stroke-linejoin="round"></path><path d="M152.409,96.931a.768.768,0,0,1,.017.244l-.336,2.5a.841.841,0,0,1-.832.728h-2.166a.84.84,0,0,1-.832-.728l-.336-2.5a.74.74,0,0,1,.018-.244.8.8,0,0,0,.53.178h3.406A.8.8,0,0,0,152.409,96.931Z" fill="#ffe500" stroke="#45413c" stroke-linecap="round" stroke-linejoin="round"></path><path d="M75.358,41.882A11.051,11.051,0,0,1,86.409,52.933V77.738A1.113,1.113,0,0,1,85.3,78.851H65.421a1.113,1.113,0,0,1-1.114-1.113v-24.8A11.051,11.051,0,0,1,75.358,41.882Z" fill="#e8f4fa" stroke="#45413c" stroke-linecap="round" stroke-linejoin="round"></path><path d="M75.358,44.337a8.6,8.6,0,0,1,8.595,8.6V75.282A1.113,1.113,0,0,1,82.839,76.4H67.876a1.113,1.113,0,0,1-1.113-1.113V52.933A8.6,8.6,0,0,1,75.358,44.337Z" fill="#4acfff"></path><path d="M83.953,53.916v-.984a8.595,8.595,0,0,0-17.19,0V71.106Z" fill="#80ddff"></path><path d="M75.358,44.337a8.6,8.6,0,0,1,8.595,8.6V75.282A1.113,1.113,0,0,1,82.839,76.4H67.876a1.113,1.113,0,0,1-1.113-1.113V52.933A8.6,8.6,0,0,1,75.358,44.337Z" fill="none" stroke="#45413c" stroke-linecap="round" stroke-linejoin="round"></path><path d="M75.358 44.337L75.358 76.395" fill="none" stroke="#45413c" stroke-linecap="round" stroke-linejoin="round"></path><path d="M66.763 54.293L83.953 54.293" fill="none" stroke="#45413c" stroke-linecap="round" stroke-linejoin="round"></path><path d="M66.763 61.661L83.953 61.661" fill="none" stroke="#45413c" stroke-linecap="round" stroke-linejoin="round"></path><path d="M66.763 69.028L83.953 69.028" fill="none" stroke="#45413c" stroke-linecap="round" stroke-linejoin="round"></path><path d="M126.93,41.882a11.05,11.05,0,0,1,11.051,11.051V77.738a1.113,1.113,0,0,1-1.113,1.113H116.993a1.113,1.113,0,0,1-1.114-1.113v-24.8A11.051,11.051,0,0,1,126.93,41.882Z" fill="#e8f4fa" stroke="#45413c" stroke-linecap="round" stroke-linejoin="round"></path><path d="M126.93,44.337a8.6,8.6,0,0,1,8.6,8.6V75.282a1.113,1.113,0,0,1-1.114,1.113H119.449a1.113,1.113,0,0,1-1.114-1.113V52.933A8.6,8.6,0,0,1,126.93,44.337Z" fill="#4acfff"></path><path d="M135.526,53.916v-.984a8.6,8.6,0,0,0-17.191,0V71.106Z" fill="#80ddff"></path><path d="M126.93,44.337a8.6,8.6,0,0,1,8.6,8.6V75.282a1.113,1.113,0,0,1-1.114,1.113H119.449a1.113,1.113,0,0,1-1.114-1.113V52.933A8.6,8.6,0,0,1,126.93,44.337Z" fill="none" stroke="#45413c" stroke-linecap="round" stroke-linejoin="round"></path><path d="M126.93 44.337L126.93 76.395" fill="none" stroke="#45413c" stroke-linecap="round" stroke-linejoin="round"></path><path d="M118.335 54.293L135.526 54.293" fill="none" stroke="#45413c" stroke-linecap="round" stroke-linejoin="round"></path><path d="M118.335 61.661L135.526 61.661" fill="none" stroke="#45413c" stroke-linecap="round" stroke-linejoin="round"></path><path d="M118.335 69.028L135.526 69.028" fill="none" stroke="#45413c" stroke-linecap="round" stroke-linejoin="round"></path><path d="M101.144,41.882A11.051,11.051,0,0,1,112.2,52.933V77.738a1.113,1.113,0,0,1-1.114,1.113H91.207a1.113,1.113,0,0,1-1.114-1.113v-24.8A11.051,11.051,0,0,1,101.144,41.882Z" fill="#e8f4fa" stroke="#45413c" stroke-linecap="round" stroke-linejoin="round"></path><path d="M101.144,44.337a8.6,8.6,0,0,1,8.595,8.6V75.282a1.113,1.113,0,0,1-1.113,1.113H93.663a1.113,1.113,0,0,1-1.114-1.113V52.933A8.6,8.6,0,0,1,101.144,44.337Z" fill="#4acfff"></path><path d="M109.739,53.916v-.984a8.595,8.595,0,0,0-17.19,0V71.106Z" fill="#80ddff"></path><path d="M101.144,44.337a8.6,8.6,0,0,1,8.595,8.6V75.282a1.113,1.113,0,0,1-1.113,1.113H93.663a1.113,1.113,0,0,1-1.114-1.113V52.933A8.6,8.6,0,0,1,101.144,44.337Z" fill="none" stroke="#45413c" stroke-linecap="round" stroke-linejoin="round"></path><path d="M101.144 44.337L101.144 76.395" fill="none" stroke="#45413c" stroke-linecap="round" stroke-linejoin="round"></path><path d="M92.549 54.293L109.739 54.293" fill="none" stroke="#45413c" stroke-linecap="round" stroke-linejoin="round"></path><path d="M92.549 61.661L109.739 61.661" fill="none" stroke="#45413c" stroke-linecap="round" stroke-linejoin="round"></path><path d="M92.549 69.028L109.739 69.028" fill="none" stroke="#45413c" stroke-linecap="round" stroke-linejoin="round"></path></g></svg>