<svg width="160" height="160" fill="none" xmlns="http://www.w3.org/2000/svg">
  <path d="M26.4332 112.944a58.4293 58.4293 0 0125.7897-74.7401 58.4275 58.4275 0 0155.5531 0 58.4275 58.4275 0 0121.098 19.3851 58.425 58.425 0 019.346 27.0842 58.4355 58.4355 0 01-4.654 28.2708H26.4332z" fill="#B8ECFF"/>
  <path d="M26.4468 112.943a58.4249 58.4249 0 0021.5493 25.513A58.4317 58.4317 0 0079.9996 148a58.431 58.431 0 0032.0034-9.544 58.4249 58.4249 0 0021.549-25.513H26.4468z" fill="#CCF7AD"/>
  <path d="M23.0317 112.943H136.968M16.459 112.943h3.6512M139.889 112.943h3.651" stroke="#45413C" stroke-width=".8" stroke-linecap="round" stroke-linejoin="round"/>
  <path d="M41.9636 106.385c0-4.035-1.0768-11.6595-3.9816-15.2219a.9734.9734 0 00-.7472-.3499.9738.9738 0 00-.7472.3499c-2.9048 3.5616-3.9808 11.1829-3.9808 15.2149 0 6.051 2.4232 11.551 4.728 11.551 2.3048 0 4.7288-5.496 4.7288-11.544z" fill="#6DD627" stroke="#45413C" stroke-width=".8" stroke-linecap="round" stroke-linejoin="round"/>
  <path d="M41.8316 108.85c-.32-3.061-1.3224-8.8957-3.344-12.1893a1.4615 1.4615 0 00-2.5064 0c-2.0208 3.292-3.0208 9.1243-3.3424 12.1823a23.2987 23.2987 0 01-.132-2.465c0-4.032 1.076-11.6533 3.9808-15.2149a.9738.9738 0 01.7472-.3499.9734.9734 0 01.7472.3499c2.9048 3.5624 3.9816 11.1869 3.9816 15.2219a23.2598 23.2598 0 01-.132 2.465z" fill="#9CEB60"/>
  <path d="M37.2358 123.003v-18.669M37.2358 111.427l2.364-2.364M37.2357 108.472l-1.4784-1.478M41.9636 106.385c0-4.035-1.0768-11.6595-3.9816-15.2219a.9734.9734 0 00-.7472-.3499.9738.9738 0 00-.7472.3499c-2.9048 3.5616-3.9808 11.1829-3.9808 15.2149 0 6.051 2.4232 11.551 4.728 11.551 2.3048 0 4.7288-5.496 4.7288-11.544z" stroke="#45413C" stroke-width=".8" stroke-linecap="round" stroke-linejoin="round"/>
  <path d="M46.5332 27.7175h67.7808v2.9472H46.5332v-2.9472z" fill="#FFF48C"/>
  <path d="M46.5332 27.7175h67.7808v2.9472H46.5332v-2.9472z" stroke="#45413C" stroke-width=".8" stroke-linecap="round" stroke-linejoin="round"/>
  <path d="M44.5684 24.7705h71.7106v2.9472H44.5684v-2.9472zM49.4805 12h61.8875v2.9472H49.4805V12z" fill="#C0DCEB" stroke="#45413C" stroke-width=".8" stroke-linecap="round" stroke-linejoin="round"/>
  <path d="M46.5332 68.9751H90.738v54.0279H46.5332V68.9751z" fill="#656769"/>
  <path d="M46.5332 68.9751H90.738v3.0528H46.5332v-3.0528z" fill="#525252"/>
  <path d="M46.5332 68.9751H90.738v54.0279H46.5332V68.9751z" stroke="#45413C" stroke-width=".8" stroke-linecap="round" stroke-linejoin="round"/>
  <path d="M93.6855 68.9751h20.6285v46.1699H93.6855V68.9751z" fill="#525252"/>
  <path d="M93.6855 68.9751h20.6285v46.1699H93.6855V68.9751z" stroke="#45413C" stroke-width=".8" stroke-linecap="round" stroke-linejoin="round"/>
  <path d="M93.6855 68.9751h-2.9472v50.0989l2.9472-3.929V68.9751z" fill="#BF8DF2"/>
  <path d="M93.6855 68.9751h-2.9472v2.9472l2.9472-.9824v-1.9648z" fill="#A05AE5"/>
  <path d="M93.6855 115.145l-2.9472 3.929v3.929l2.9472-3.929v-3.929z" fill="#00DBA8" stroke="#45413C" stroke-width=".8" stroke-linecap="round" stroke-linejoin="round"/>
  <path d="M90.7383 119.074h26.5227v3.93H90.7383v-3.93z" fill="#87898C" stroke="#45413C" stroke-width=".8" stroke-linecap="round" stroke-linejoin="round"/>
  <path d="M117.261 119.074H90.7383l2.9472-3.929h20.6285l2.947 3.929z" fill="#E0E0E0" stroke="#45413C" stroke-width=".8" stroke-linecap="round" stroke-linejoin="round"/>
  <path d="M87.9104 124.968a.9316.9316 0 00-.1184.437v1.061a.4614.4614 0 00.0353.178.4642.4642 0 00.2524.253.4579.4579 0 00.1787.036h31.0456c.24 0 .47-.096.64-.265.169-.17.265-.4.265-.64v-.611a.9454.9454 0 00-.126-.449H87.9104z" fill="#87898C" stroke="#45413C" stroke-width=".8" stroke-linecap="round" stroke-linejoin="round"/>
  <path d="M87.9102 124.968H120.08c-.068-.191-.165-.37-.287-.531l-2.64-3.398H90.7382l-2.5536 3.406a1.9341 1.9341 0 00-.2744.523v0z" fill="#E0E0E0" stroke="#45413C" stroke-width=".8" stroke-linecap="round" stroke-linejoin="round"/>
  <path d="M46.5332 30.6641h67.7808v38.3112H46.5332V30.6641z" fill="#656769"/>
  <path d="M46.5332 30.6641h67.7808v3.4384H46.5332v-3.4384z" fill="#525252"/>
  <path d="M46.5332 30.6641h67.7808v38.3112H46.5332V30.6641z" stroke="#45413C" stroke-width=".8" stroke-linecap="round" stroke-linejoin="round"/>
  <path d="M44.4336 116.127h46.3048v-2.947H44.4336a.8467.8467 0 00-.8472.847v1.253a.8467.8467 0 00.8472.847z" fill="#FFF48C" stroke="#45413C" stroke-width=".8" stroke-linecap="round" stroke-linejoin="round"/>
  <path d="M46.3996 119.074h44.34v-2.947H45.5508v2.1a.847.847 0 00.2487.6.8326.8326 0 00.2754.183c.103.043.2133.065.3247.064zM43.5864 66.0281h73.6756v2.9472H43.5864v-2.9472z" fill="#FFF48C" stroke="#45413C" stroke-width=".8" stroke-linecap="round" stroke-linejoin="round"/>
  <path d="M109.72 14.9473H51.1276a.981.981 0 00-.912.6176l-3.68 9.2056h67.7804l-3.68-9.2056a.9777.9777 0 00-.363-.4503.9771.9771 0 00-.553-.1673z" fill="#8CA4B8"/>
  <path d="M111.859 18.6305l-1.227-3.0664a.98.98 0 00-.362-.4482.9797.9797 0 00-.55-.1686H51.1277a.9823.9823 0 00-.912.6168l-1.2264 3.0664h62.8697z" fill="#ADC4D9"/>
  <path d="M109.72 14.9473H51.1276a.981.981 0 00-.912.6176l-3.68 9.2056h67.7804l-3.68-9.2056a.9777.9777 0 00-.363-.4503.9771.9771 0 00-.553-.1673zM114.314 71.9199h4.96c.248 0 .485.0984.66.2734a.9303.9303 0 01.274.6602v1.968" stroke="#45413C" stroke-width=".8" stroke-linecap="round" stroke-linejoin="round"/>
  <path d="M104 76.5601a7.37 7.37 0 015.21 2.1582 7.3709 7.3709 0 012.158 5.2098v31.2159H96.6328V83.9281A7.368 7.368 0 01104 76.5601z" fill="#FFF48C"/>
  <path d="M104 78.5256a5.4032 5.4032 0 014.991 3.3355c.272.6556.412 1.3582.412 2.0677H98.5972a5.4039 5.4039 0 011.5818-3.8206A5.4032 5.4032 0 01104 78.5256z" fill="#4ACFFF"/>
  <path d="M104 76.5601a7.37 7.37 0 015.21 2.1582 7.3709 7.3709 0 012.158 5.2098v31.2159H96.6328V83.9281A7.368 7.368 0 01104 76.5601v0z" stroke="#45413C" stroke-width=".8" stroke-linecap="round" stroke-linejoin="round"/>
  <path d="M106.433 79.1097a5.3929 5.3929 0 00-5.27.2125 5.394 5.394 0 00-2.5697 4.6067h3.0167l4.823-4.8192z" fill="#80DDFF"/>
  <path d="M104 78.5256a5.4032 5.4032 0 014.991 3.3355c.272.6556.412 1.3582.412 2.0677H98.5972a5.4039 5.4039 0 011.5818-3.8206A5.4032 5.4032 0 01104 78.5256v0z" stroke="#45413C" stroke-width=".8" stroke-linecap="round" stroke-linejoin="round"/>
  <path d="M98.5972 86.7319h10.8058v25.9391H98.5972V86.7319z" fill="#4ACFFF"/>
  <path d="M98.5972 100.063l10.8058-10.8055v-2.5256H98.5972v13.3311z" fill="#80DDFF"/>
  <path d="M98.5972 86.7319h10.8058v25.9391H98.5972V86.7319zM104 86.7319v25.9391M98.5972 92.1233h10.8058M98.5933 97.2864h10.8057M98.5972 102.333h10.8058M98.5972 107.259h10.8058" stroke="#45413C" stroke-width=".8" stroke-linecap="round" stroke-linejoin="round"/>
  <path d="M93.6855 68.9751h-2.9472v50.0989l2.9472-3.929V68.9751z" fill="#87898C" stroke="#45413C" stroke-width=".8" stroke-linecap="round" stroke-linejoin="round"/>
  <path d="M49.5933 73.1296h38.1976v35.8964H49.5933V73.1296z" fill="#E8F4FA" stroke="#45413C" stroke-width=".8" stroke-linecap="round" stroke-linejoin="round"/>
  <path d="M51.4453 74.8696h34.4952v32.4164H51.4453V74.8696z" fill="#4ACFFF"/>
  <path d="M52.4277 107.286a.9826.9826 0 01-.6946-.287.9835.9835 0 01-.2878-.695V75.852a.982.982 0 01.6063-.9078.9829.9829 0 01.3761-.0746h32.532l-32.532 32.4164z" fill="#80DDFF"/>
  <path d="M51.4453 74.8696h34.4952v32.4164H51.4453V74.8696z" stroke="#45413C" stroke-width=".8" stroke-linecap="round" stroke-linejoin="round"/>
  <path d="M61.2765 100.07l-1.6744-.032v-5.5011l1.6744.012v5.5211z" fill="#F7E5C6" stroke="#45413C" stroke-width=".8" stroke-linecap="round" stroke-linejoin="round"/>
  <path d="M62.9847 100.884h-5.0736a1.692 1.692 0 011.6912-1.6911h1.6912a1.771 1.771 0 011.1744.5168c.313.3133.4975.7323.5168 1.1743v0z" fill="#F7E5C6" stroke="#45413C" stroke-width=".8" stroke-linecap="round" stroke-linejoin="round"/>
  <path d="M62.8956 83.76l-2.4496 2.7512-2.4464-2.7512a5.0713 5.0713 0 00-2.6256 4.4424v2.1144a.8454.8454 0 00.8456.8448h1.2688v2.5368a.8453.8453 0 00.8456.8456h4.2256a.8457.8457 0 00.8456-.8456V91.16h1.2688a.8457.8457 0 00.8456-.8448v-2.1144a5.07 5.07 0 00-2.624-4.4408z" fill="#BF8256"/>
  <path d="M59.5199 85.4688a4.4925 4.4925 0 00-4.1464 3.9016v-1.1696a5.07 5.07 0 012.6264-4.4408l1.52 1.7088z" fill="#DEA47A"/>
  <path d="M62.8799 83.7511a2.5379 2.5379 0 01-1.5568-1.92.4668.4668 0 00-.46-.3936h-.8368a.4667.4667 0 00-.4592.384 2.6394 2.6394 0 01-1.44 1.8832l-.1256.0544 2.4464 2.7512 2.448-2.7504-.016-.0088z" fill="#F7E5C6" stroke="#45413C" stroke-width=".8" stroke-linecap="round" stroke-linejoin="round"/>
  <path d="M57.4893 91.1625v-2.5448M63.3965 91.1625v-2.5448M60.4268 86.4968v8.0592" stroke="#45413C" stroke-width=".8" stroke-linecap="round" stroke-linejoin="round"/>
  <path d="M61.3816 85.468a4.4882 4.4882 0 014.14 3.9456v-1.2128A5.0705 5.0705 0 0062.896 83.76l-1.52 1.7056" fill="#DEA47A"/>
  <path d="M62.8956 83.76l-2.4496 2.7512-2.4464-2.7512a5.0713 5.0713 0 00-2.6256 4.4424v2.1144a.8454.8454 0 00.8456.8448h1.2688v2.5368a.8453.8453 0 00.8456.8456h4.2256a.8457.8457 0 00.8456-.8456V91.16h1.2688a.8457.8457 0 00.8456-.8448v-2.1144a5.07 5.07 0 00-2.624-4.4408v0z" stroke="#45413C" stroke-width=".8" stroke-linecap="round" stroke-linejoin="round"/>
  <path d="M76.586 100.026l-1.6744.03v-4.2416l1.6744-.0168v4.2284zM76.724 80.56a.4677.4677 0 00-.4584-.3808h-.8384a.4666.4666 0 00-.4608.396 2.4257 2.4257 0 01-1.4472 1.8712l-.1256.0544 1.5024 4.2472a.9342.9342 0 001.7528.0232l1.6416-4.2704-.016-.0072A2.7644 2.7644 0 0176.724 80.56v0z" fill="#F7E5C6" stroke="#45413C" stroke-width=".8" stroke-linecap="round" stroke-linejoin="round"/>
  <path d="M78.2772 100.871h-5.0736a1.7709 1.7709 0 011.6912-1.6911h1.6912a1.6911 1.6911 0 011.6912 1.6911v0z" fill="#F7E5C6" stroke="#45413C" stroke-width=".8" stroke-linecap="round" stroke-linejoin="round"/>
  <path d="M78.2902 82.48a2.526 2.526 0 01-2.4484 1.9059 2.5255 2.5255 0 01-2.4484-1.9059 5.0705 5.0705 0 00-2.6248 4.4424v5.496a.8454.8454 0 00.8456.8456h1.2656v2.5368a.8458.8458 0 00.848.8392h4.228a.8456.8456 0 00.8456-.8456v-2.5368h1.268a.8456.8456 0 00.8456-.8456v-5.496a5.072 5.072 0 00-2.6248-4.436z" fill="#FFB0CA"/>
  <path d="M72.8936 93.2696V87.332M78.8296 93.2696V87.332" stroke="#45413C" stroke-width=".8" stroke-linecap="round" stroke-linejoin="round"/>
  <path d="M80.9149 88.132a4.5087 4.5087 0 00-4.1087-3.9408 2.5457 2.5457 0 001.4839-1.7144 5.0705 5.0705 0 012.6248 4.4424v1.2128zM74.8798 84.1912a4.509 4.509 0 00-4.1088 3.9408v-1.2128a5.0708 5.0708 0 012.6248-4.4424 2.548 2.548 0 001.484 1.7144z" fill="#FCD"/>
  <path d="M78.2902 82.48a2.526 2.526 0 01-2.4484 1.9059 2.5255 2.5255 0 01-2.4484-1.9059 5.0705 5.0705 0 00-2.6248 4.4424v5.496a.8454.8454 0 00.8456.8456h1.2656v2.5368a.8458.8458 0 00.848.8392h4.228a.8456.8456 0 00.8456-.8456v-2.5368h1.268a.8456.8456 0 00.8456-.8456v-5.496a5.072 5.072 0 00-2.6248-4.436v0z" stroke="#45413C" stroke-width=".8" stroke-linecap="round" stroke-linejoin="round"/>
  <path d="M80.2773 107.286H56.7637a.5432.5432 0 01-.3844-.159.5447.5447 0 01-.1596-.385v-4.77a1.0884 1.0884 0 011.088-1.088h22.4256a1.0887 1.0887 0 011.088 1.088v4.77c0 .072-.014.143-.0414.209a.5361.5361 0 01-.1179.176.5313.5313 0 01-.1765.118.5499.5499 0 01-.2082.041v0z" fill="#fff" stroke="#45413C" stroke-width=".8" stroke-linecap="round" stroke-linejoin="round"/>
  <path d="M79.2446 107.286H57.7974v-4.28a.5446.5446 0 01.0412-.209.5346.5346 0 01.1179-.176.5307.5307 0 01.1766-.118.5504.5504 0 01.2083-.041h20.3592c.0714 0 .1422.014.2083.041.066.027.126.067.1766.118.0505.05.0906.11.1179.176a.5446.5446 0 01.0412.209v4.28z" fill="#E0E0E0"/>
  <path d="M58.4278 102.462a.6308.6308 0 00-.4458.184.6327.6327 0 00-.1846.446v.946h21.4472v-.946a.6263.6263 0 00-.0481-.241.6303.6303 0 00-.1369-.205.6304.6304 0 00-.2047-.137.6442.6442 0 00-.2415-.047H58.4278z" fill="#BDBEC0"/>
  <path d="M79.2446 107.286H57.7974v-4.28a.5446.5446 0 01.0412-.209.5346.5346 0 01.1179-.176.5307.5307 0 01.1766-.118.5504.5504 0 01.2083-.041h20.3592c.0714 0 .1422.014.2083.041.066.027.126.067.1766.118.0505.05.0906.11.1179.176a.5446.5446 0 01.0412.209v4.28z" stroke="#45413C" stroke-width=".8" stroke-linecap="round" stroke-linejoin="round"/>
  <path d="M74.5133 100.884h-8.2008v-6.7104a.5446.5446 0 01.5448-.544h7.112a.5443.5443 0 01.544.544v6.7104z" fill="#F0F0F0"/>
  <path d="M74.5133 94.2608a.6296.6296 0 00-.1844-.4462.6306.6306 0 00-.446-.185h-6.9392a.631.631 0 00-.6312.6312V95.52a.6311.6311 0 01.6312-.6312h6.9392a.6306.6306 0 01.6304.6312v-1.2592z" fill="#fff"/>
  <path d="M74.5133 100.884h-8.2008v-6.7104a.5446.5446 0 01.5448-.544h7.112a.5443.5443 0 01.544.544v6.7104z" stroke="#45413C" stroke-width=".8" stroke-linecap="round" stroke-linejoin="round"/>
  <path d="M67.5752 91.1065a.6305.6305 0 01.6304-.6304h3.7848a.6307.6307 0 00-.6304.6304v2.5232h-3.7848v-2.5232z" fill="#FF6242"/>
  <path d="M67.5752 92.3681a.6305.6305 0 01.6304-.6304H71.36v-.6312a.6305.6305 0 01.6304-.6304h-3.7848a.6307.6307 0 00-.6304.6304v1.2616z" fill="#FF866E"/>
  <path d="M67.5752 91.1065a.6305.6305 0 01.6304-.6304h3.7848a.6307.6307 0 00-.6304.6304v2.5232h-3.7848v-2.5232z" stroke="#45413C" stroke-width=".8" stroke-linecap="round" stroke-linejoin="round"/>
  <path d="M71.3597 93.6297h2.2072v-2.6096a.543.543 0 00-.544-.544h-1.12a.543.543 0 00-.544.544l.0008 2.6096z" fill="#E04122"/>
  <path d="M72.9367 90.48h-.9464a.6305.6305 0 00-.6304.6304v1.2616a.6305.6305 0 01.6304-.6304h.9464a.6303.6303 0 01.6304.6304v-1.2616a.6302.6302 0 00-.6304-.6304z" fill="#FF6242"/>
  <path d="M71.3597 93.6297h2.2072v-2.6096a.543.543 0 00-.544-.544h-1.12a.543.543 0 00-.544.544l.0008 2.6096zM71.6751 90.48v-.32a1.2616 1.2616 0 00-2.5232 0v.3152" stroke="#45413C" stroke-width=".8" stroke-linecap="round" stroke-linejoin="round"/>
  <path d="M78.1374 99.8008a1.2614 1.2614 0 01-.4222.7742 1.2619 1.2619 0 01-.8266.309h-4.1192c-.3037 0-.5973-.11-.8268-.309a1.2622 1.2622 0 01-.4228-.7742l-.3728-2.612a.6306.6306 0 01.624-.72h6.1152a.6302.6302 0 01.4766.2175.6311.6311 0 01.1482.5025l-.3736 2.612z" fill="#FFAA54"/>
  <path d="M71.2614 97.9905a.6281.6281 0 01.5096-.26h6.1152a.629.629 0 01.5104.26l.1144-.8a.6311.6311 0 00-.6248-.72H71.771a.6308.6308 0 00-.4764.2175.632.632 0 00-.1476.5025l.1144.8z" fill="#FC9"/>
  <path d="M78.1374 99.8008a1.2614 1.2614 0 01-.4222.7742 1.2619 1.2619 0 01-.8266.309h-4.1192c-.3037 0-.5973-.11-.8268-.309a1.2622 1.2622 0 01-.4228-.7742l-.3728-2.612a.6306.6306 0 01.624-.72h6.1152a.6302.6302 0 01.4766.2175.6311.6311 0 01.1482.5025l-.3736 2.612z" stroke="#45413C" stroke-width=".8" stroke-linecap="round" stroke-linejoin="round"/>
  <path d="M72.9365 97.4145l.9672-2.4184a.996.996 0 011.8496 0l.968 2.4184" stroke="#45413C" stroke-width=".8" stroke-linecap="round" stroke-linejoin="round"/>
  <path d="M60.8087 97.2704a.321.321 0 00-.0952.3473 4.4105 4.4105 0 01.216 1.8888 1.2616 1.2616 0 00.06.5175c.0559.167.1459.32.2643.449.1184.13.2625.234.4233.304.1607.071.3344.107.51.107h4.4672c.1755 0 .3491-.037.5096-.107.1606-.071.3046-.175.423-.304a1.271 1.271 0 00.2643-.449 1.266 1.266 0 00.0607-.5175 4.3894 4.3894 0 01.2224-1.9065.314.314 0 00-.0736-.3296l-1.3408-1.3399a.314.314 0 00-.2232-.0929h-3.8568a.3204.3204 0 00-.2016.0736l-1.6296 1.3592z" fill="#00DBA8"/>
  <path d="M62.3527 97.2456a.6316.6316 0 01.4-.1464h3.6104a.6318.6318 0 01.4464.1849l1.12 1.1199a4.1908 4.1908 0 01.2048-.804.3142.3142 0 00-.0736-.3296l-1.3408-1.3399a.3154.3154 0 00-.2232-.0929h-3.8568a.32.32 0 00-.2016.0736l-1.632 1.36a.3205.3205 0 00-.0952.3473c.0943.2687.1608.5464.1984.8287l1.4432-1.2016z" fill="#00F5BC"/>
  <path d="M60.8087 97.2704a.321.321 0 00-.0952.3473 4.4105 4.4105 0 01.216 1.8888 1.2616 1.2616 0 00.06.5175c.0559.167.1459.32.2643.449.1184.13.2625.234.4233.304.1607.071.3344.107.51.107h4.4672c.1755 0 .3491-.037.5096-.107.1606-.071.3046-.175.423-.304a1.271 1.271 0 00.2643-.449 1.266 1.266 0 00.0607-.5175 4.3894 4.3894 0 01.2224-1.9065.314.314 0 00-.0736-.3296l-1.3408-1.3399a.314.314 0 00-.2232-.0929h-3.8568a.3204.3204 0 00-.2016.0736l-1.6296 1.3592z" stroke="#45413C" stroke-width=".8" stroke-linecap="round" stroke-linejoin="round"/>
  <path d="M63.1592 96.784v-1.5768a1.2616 1.2616 0 112.5232 0v1.5768" stroke="#45413C" stroke-width=".8" stroke-linecap="round" stroke-linejoin="round"/>
  <path d="M120.14 74.8225a2.035 2.035 0 00-1.437.5966 2.0344 2.0344 0 00-.597 1.437c0 .5912.294.8312.671.8312h2.725c.378 0 .671-.24.671-.8312 0-.5391-.215-1.056-.596-1.4373a2.0352 2.0352 0 00-1.437-.5963v0z" fill="#C0DCEB" stroke="#45413C" stroke-width=".8" stroke-linecap="round" stroke-linejoin="round"/>
  <path d="M121.927 77.5449a.6403.6403 0 01.014.1952l-.269 2a.676.676 0 01-.224.416.6714.6714 0 01-.442.1664h-1.733a.674.674 0 01-.442-.1662.6701.6701 0 01-.223-.4162l-.269-2a.6101.6101 0 01.014-.1952c.12.0969.27.1475.424.1424h2.725a.6409.6409 0 00.425-.1424z" fill="#FFE500" stroke="#45413C" stroke-width=".8" stroke-linecap="round" stroke-linejoin="round"/>
  <path d="M60.2861 33.5056a8.8408 8.8408 0 018.8408 8.8408v19.844a.8903.8903 0 01-.8872.8904H52.3365a.8904.8904 0 01-.8912-.8904v-19.84a8.8419 8.8419 0 012.588-6.254 8.841 8.841 0 016.2528-2.5908v0z" fill="#E8F4FA" stroke="#45413C" stroke-width=".8" stroke-linecap="round" stroke-linejoin="round"/>
  <path d="M60.2862 35.4695a6.8799 6.8799 0 016.876 6.88v17.876a.8917.8917 0 01-.2597.6325.891.891 0 01-.6315.2619H54.3006a.8905.8905 0 01-.8904-.8904V42.3463a6.8795 6.8795 0 012.0148-4.8614 6.8795 6.8795 0 014.8612-2.0154z" fill="#4ACFFF"/>
  <path d="M67.1622 43.1327v-.7872a6.8762 6.8762 0 00-11.7381-4.8621 6.8761 6.8761 0 00-2.0139 4.8621v14.5392l13.752-13.752z" fill="#80DDFF"/>
  <path d="M60.2862 35.4695a6.8799 6.8799 0 016.876 6.88v17.876a.8917.8917 0 01-.2597.6325.891.891 0 01-.6315.2619H54.3006a.8905.8905 0 01-.8904-.8904V42.3463a6.8795 6.8795 0 012.0148-4.8614 6.8795 6.8795 0 014.8612-2.0154v0zM60.2861 35.4695v25.6464M53.4102 43.4343h13.752M53.4102 49.3289h13.752M53.4102 55.2224h13.752" stroke="#45413C" stroke-width=".8" stroke-linecap="round" stroke-linejoin="round"/>
  <path d="M101.544 33.5056a8.8351 8.8351 0 013.383.6728 8.8343 8.8343 0 014.785 4.7847 8.8466 8.8466 0 01.673 3.3833v19.844a.8904.8904 0 01-.891.8904H93.5943a.8908.8908 0 01-.6301-.2605.8899.8899 0 01-.2611-.6299v-19.84a8.8419 8.8419 0 012.588-6.254 8.841 8.841 0 016.2529-2.5908v0z" fill="#E8F4FA" stroke="#45413C" stroke-width=".8" stroke-linecap="round" stroke-linejoin="round"/>
  <path d="M101.544 35.4695a6.879 6.879 0 014.865 2.0151 6.8809 6.8809 0 012.015 4.8649v17.876c0 .117-.023.2328-.068.3409a.8893.8893 0 01-.823.5495H95.5592a.8905.8905 0 01-.8912-.8904V42.3463a6.8795 6.8795 0 012.0148-4.8614 6.8795 6.8795 0 014.8612-2.0154z" fill="#4ACFFF"/>
  <path d="M108.421 43.1329v-.7872a6.8823 6.8823 0 00-2.091-4.7204 6.8799 6.8799 0 00-11.662 4.7204v14.5392l13.753-13.752z" fill="#80DDFF"/>
  <path d="M101.544 35.4695a6.879 6.879 0 014.865 2.0151 6.8809 6.8809 0 012.015 4.8649v17.876c0 .117-.023.2328-.068.3409a.8893.8893 0 01-.823.5495H95.5592a.8905.8905 0 01-.8912-.8904V42.3463a6.8795 6.8795 0 012.0148-4.8614 6.8795 6.8795 0 014.8612-2.0154v0zM101.544 35.4695v25.6464M94.668 43.4343h13.753M94.668 49.3289h13.753M94.668 55.2224h13.753" stroke="#45413C" stroke-width=".8" stroke-linecap="round" stroke-linejoin="round"/>
  <path d="M80.915 33.5056a8.8415 8.8415 0 018.1715 5.4567 8.8411 8.8411 0 01.6733 3.3841v19.844a.8898.8898 0 01-.5502.8229.8904.8904 0 01-.341.0675H72.9654a.8908.8908 0 01-.6301-.2605.8899.8899 0 01-.2611-.6299v-19.84a8.8419 8.8419 0 012.588-6.254 8.841 8.841 0 016.2528-2.5908v0z" fill="#E8F4FA" stroke="#45413C" stroke-width=".8" stroke-linecap="round" stroke-linejoin="round"/>
  <path d="M80.9151 35.4695a6.8799 6.8799 0 016.876 6.88v17.876a.8909.8909 0 01-.8904.8904H74.9303a.8905.8905 0 01-.8912-.8904V42.3463a6.8795 6.8795 0 012.0148-4.8614 6.8795 6.8795 0 014.8612-2.0154z" fill="#4ACFFF"/>
  <path d="M87.7911 43.1327v-.7872a6.8762 6.8762 0 00-11.7381-4.8621 6.8761 6.8761 0 00-2.0139 4.8621v14.5392l13.752-13.752z" fill="#80DDFF"/>
  <path d="M80.9151 35.4695a6.8799 6.8799 0 016.876 6.88v17.876a.8909.8909 0 01-.8904.8904H74.9303a.8905.8905 0 01-.8912-.8904V42.3463a6.8795 6.8795 0 012.0148-4.8614 6.8795 6.8795 0 014.8612-2.0154v0zM80.915 35.4695v25.6464M74.0391 43.4343h13.752M74.0391 49.3289h13.752M74.0391 55.2224h13.752" stroke="#45413C" stroke-width=".8" stroke-linecap="round" stroke-linejoin="round"/>
  <path d="M61.6977 72a4.6975 4.6975 0 01-3.321-8.0198L77.902 44.4548a4.6964 4.6964 0 016.6434 0l12.0184 12.017L135.64 17.3969h-3.312a4.7022 4.7022 0 01-1.824-.3339 4.7017 4.7017 0 01-1.552-1.0129 4.6922 4.6922 0 01-1.039-1.5343 4.686 4.686 0 01-.366-1.817c0-.6239.124-1.2416.366-1.817a4.6926 4.6926 0 011.039-1.5343 4.7033 4.7033 0 011.552-1.0129c.58-.2312 1.2-.3447 1.824-.3339h14.649a4.7023 4.7023 0 013.32 1.377 4.6997 4.6997 0 011.377 3.3204v14.649a4.7005 4.7005 0 01-.334 1.8231 4.7005 4.7005 0 01-2.547 2.5919 4.6983 4.6983 0 01-6.181-2.5919 4.6822 4.6822 0 01-.334-1.8231v-3.3068L99.8791 66.4376a4.6962 4.6962 0 01-6.6434 0L81.2188 54.4192l-16.193 16.193A4.6693 4.6693 0 0161.6977 72v0z" fill="#9CEB60" stroke="#46B000" stroke-width="1.6" stroke-linecap="round" stroke-linejoin="round"/>
</svg>
