<svg xmlns="http://www.w3.org/2000/svg" version="1.1" xmlns:xlink="http://www.w3.org/1999/xlink" xmlns:svgjs="http://svgjs.com/svgjs" viewBox="0 0 160 160" width="160" height="160"><g transform="matrix(1.6,0,0,1.6,0,0)"><path d="M10.000 50.000 A40.000 40.000 0 1 0 90.000 50.000 A40.000 40.000 0 1 0 10.000 50.000 Z" fill="#c7f0ff" stroke="#c7f0ff" stroke-miterlimit="10"></path><path d="M48.235,71.627c0-1.049-6.17-1.9-13.781-1.9s-13.782.852-13.782,1.9,6.17,1.9,13.782,1.9S48.235,72.678,48.235,71.627Z" fill="#45413c" opacity=".15"></path><path d="M23.88,71.462a1.007,1.007,0,0,1-.862-.483c-1.3-2.127-6.357-11.015-6.357-21.167,0-9.992,6.662-12.489,6.662-17.485S21.657,25.665,21.657,21.5c0-4.139,2.237-6.661,5-6.661s5,2.522,5,6.661c0,4.163-1.665,5.829-1.665,10.825s6.661,7.493,6.661,17.485c0,10.152-5.051,19.04-6.356,21.167a1.009,1.009,0,0,1-.862.483Z" fill="#f0f0f0"></path><path d="M16.756,47.826c2.059-5.3,5.72-8.838,9.9-8.838s7.842,3.536,9.9,8.846c-.8-8.373-6.569-10.859-6.569-15.507,0-5,1.665-6.662,1.665-10.825,0-4.139-2.236-6.661-5-6.661s-5,2.522-5,6.661c0,4.163,1.666,5.829,1.666,10.825,0,4.647-5.764,7.133-6.569,15.5" fill="#ffffff"></path><path d="M23.88,71.462a1.007,1.007,0,0,1-.862-.483c-1.3-2.127-6.357-11.015-6.357-21.167,0-9.992,6.662-12.489,6.662-17.485S21.657,25.665,21.657,21.5c0-4.139,2.237-6.661,5-6.661s5,2.522,5,6.661c0,4.163-1.665,5.829-1.665,10.825s6.661,7.493,6.661,17.485c0,10.152-5.051,19.04-6.356,21.167a1.009,1.009,0,0,1-.862.483Z" fill="none" stroke="#45413c" stroke-linecap="round" stroke-linejoin="round"></path><path d="M30.266,29H23.041c-.161-.915-.37-1.719-.579-2.5h8.383C30.636,27.277,30.427,28.081,30.266,29Z" fill="#ff6242" stroke="#45413c" stroke-linecap="round" stroke-linejoin="round"></path><path d="M29.984,32.327H23.323a6.075,6.075,0,0,1-.563,2.5h7.787A6.067,6.067,0,0,1,29.984,32.327Z" fill="#ff6242" stroke="#45413c" stroke-linecap="round" stroke-linejoin="round"></path><path d="M42.565,72.067a1.1,1.1,0,0,0,.94-.526c1.424-2.321,6.934-12.017,6.934-23.091,0-10.9-7.266-13.625-7.266-19.076s1.816-7.267,1.816-11.808c0-4.515-2.44-7.267-5.45-7.267s-5.45,2.752-5.45,7.267c0,4.541,1.817,6.358,1.817,11.808S28.639,37.55,28.639,48.45c0,11.074,5.51,20.77,6.934,23.091a1.1,1.1,0,0,0,.94.526Z" fill="#f0f0f0"></path><path d="M50.336,46.283c-2.246-5.788-6.24-9.642-10.8-9.642s-8.555,3.858-10.8,9.651c.875-9.134,7.167-11.846,7.167-16.918,0-5.45-1.817-7.267-1.817-11.808,0-4.515,2.44-7.267,5.45-7.267s5.45,2.752,5.45,7.267c0,4.541-1.816,6.358-1.816,11.808,0,5.07,6.287,7.782,7.165,16.909" fill="#ffffff"></path><path d="M42.565,72.067a1.1,1.1,0,0,0,.94-.526c1.424-2.321,6.934-12.017,6.934-23.091,0-10.9-7.266-13.625-7.266-19.076s1.816-7.267,1.816-11.808c0-4.515-2.44-7.267-5.45-7.267s-5.45,2.752-5.45,7.267c0,4.541,1.817,6.358,1.817,11.808S28.639,37.55,28.639,48.45c0,11.074,5.51,20.77,6.934,23.091a1.1,1.1,0,0,0,.94.526Z" fill="none" stroke="#45413c" stroke-linecap="round" stroke-linejoin="round"></path><path d="M35.6,25.741H43.48c.176-1,.4-1.875.631-2.725H34.967C35.194,23.866,35.422,24.743,35.6,25.741Z" fill="#ff6242" stroke="#45413c" stroke-linecap="round" stroke-linejoin="round"></path><path d="M35.906,29.374h7.266a6.634,6.634,0,0,0,.615,2.725H35.292A6.633,6.633,0,0,0,35.906,29.374Z" fill="#ff6242" stroke="#45413c" stroke-linecap="round" stroke-linejoin="round"></path><path d="M77.468,80.447c0-1.049-6.17-1.9-13.781-1.9s-13.782.852-13.782,1.9,6.171,1.9,13.782,1.9S77.468,81.5,77.468,80.447Z" fill="#45413c" opacity=".15"></path><path d="M41.085 58.094 A22.050 22.050 0 1 0 85.185 58.094 A22.050 22.050 0 1 0 41.085 58.094 Z" fill="#ffe500"></path><path d="M65.340 45.967 A2.205 2.205 0 1 0 69.750 45.967 A2.205 2.205 0 1 0 65.340 45.967 Z" fill="#525252" stroke="#45413c" stroke-linecap="round" stroke-linejoin="round"></path><path d="M71.955 55.889 A2.205 2.205 0 1 0 76.365 55.889 A2.205 2.205 0 1 0 71.955 55.889 Z" fill="#525252" stroke="#45413c" stroke-linecap="round" stroke-linejoin="round"></path><path d="M53.212 60.299 A3.308 3.308 0 1 0 59.828 60.299 A3.308 3.308 0 1 0 53.212 60.299 Z" fill="#525252" stroke="#45413c" stroke-linecap="round" stroke-linejoin="round"></path><path d="M85.005,60.934a22.03,22.03,0,0,0-43.739,0,22.322,22.322,0,0,1-.181-2.837,22.05,22.05,0,0,1,44.1,0A22.37,22.37,0,0,1,85.005,60.934Z" fill="#fff48c"></path><path d="M41.085 58.094 A22.050 22.050 0 1 0 85.185 58.094 A22.050 22.050 0 1 0 41.085 58.094 Z" fill="none" stroke="#45413c" stroke-linecap="round" stroke-linejoin="round"></path></g></svg>