<svg width="160" height="160" viewBox="0 0 160 160" fill="none" xmlns="http://www.w3.org/2000/svg">
<path d="M16 80C16 96.9739 22.7428 113.253 34.7452 125.255C46.7475 137.257 63.0261 144 80 144C96.9739 144 113.253 137.257 125.255 125.255C137.257 113.253 144 96.9739 144 80C144 63.0261 137.257 46.7475 125.255 34.7452C113.253 22.7428 96.9739 16 80 16C63.0261 16 46.7475 22.7428 34.7452 34.7452C22.7428 46.7475 16 63.0261 16 80V80Z" fill="#C7F0FF"/>
<path d="M43.6406 113.381H65.6232C66.3529 113.381 67.0746 113.229 67.7427 112.936C68.4108 112.643 69.0108 112.214 69.5048 111.677C69.9988 111.14 70.376 110.507 70.6127 109.816C70.8494 109.126 70.9403 108.394 70.8797 107.667L69.3409 89.2018C69.2822 88.5047 69.4327 87.8058 69.7732 87.1946C70.1137 86.5834 70.6288 86.0877 71.2525 85.7708C73.5471 84.61 75.3832 82.7094 76.4641 80.3762C77.5451 78.043 77.8079 75.4135 77.2099 72.9126C76.6119 70.4116 75.1881 68.1854 73.1686 66.5935C71.1491 65.0017 68.6519 64.1372 66.0805 64.1399H44.0979" fill="#DEBB7E"/>
<path d="M43.9028 85.2432L43.8447 91.3983H69.5204L69.3445 89.1948C69.2869 88.4991 69.4376 87.8021 69.7774 87.1923C70.1172 86.5826 70.6307 86.0877 71.2526 85.7707C71.5692 85.609 71.8752 85.4349 72.1741 85.2432H43.9028Z" fill="#B89558"/>
<path d="M66.0803 64.1399H44.0977L43.9922 75.5708H77.5113C77.5113 72.5392 76.3069 69.6317 74.1632 67.4879C72.0195 65.3442 69.112 64.1399 66.0803 64.1399V64.1399Z" fill="#F0D5A8"/>
<path d="M43.6406 113.381H65.6232C66.3529 113.381 67.0746 113.229 67.7427 112.936C68.4108 112.643 69.0108 112.214 69.5048 111.677C69.9988 111.14 70.376 110.507 70.6127 109.816C70.8494 109.126 70.9403 108.394 70.8797 107.667L69.3409 89.2018C69.2822 88.5047 69.4327 87.8058 69.7732 87.1946C70.1137 86.5834 70.6288 86.0877 71.2525 85.7708C73.5471 84.61 75.3832 82.7094 76.4641 80.3762C77.5451 78.043 77.8079 75.4135 77.2099 72.9126C76.6119 70.4116 75.1881 68.1854 73.1686 66.5935C71.1491 65.0017 68.6519 64.1372 66.0805 64.1399H44.0979" stroke="#45413C" stroke-width="1.6" stroke-linecap="round" stroke-linejoin="round"/>
<path d="M43.6405 113.381C44.3702 113.381 45.0918 113.229 45.7599 112.936C46.4281 112.643 47.0281 112.214 47.5221 111.677C48.0161 111.14 48.3933 110.507 48.63 109.816C48.8666 109.126 48.9575 108.394 48.897 107.667L47.3582 89.2018C47.2995 88.5047 47.45 87.8058 47.7905 87.1946C48.131 86.5834 48.6461 86.0877 49.2698 85.7708C51.5643 84.61 53.4004 82.7094 54.4814 80.3762C55.5624 78.043 55.8251 75.4135 55.2271 72.9126C54.6292 70.4116 53.2054 68.1854 51.1859 66.5935C49.1664 65.0017 46.6692 64.1372 44.0978 64.1399H12.4428C9.87136 64.1372 7.37413 65.0017 5.35465 66.5935C3.33516 68.1854 1.91139 70.4116 1.3134 72.9126C0.715408 75.4135 0.978132 78.043 2.05912 80.3762C3.14011 82.7094 4.97621 84.61 7.27073 85.7708C7.89388 86.0875 8.40855 86.5827 8.74903 87.1931C9.08951 87.8036 9.24036 88.5017 9.18234 89.1983L7.64355 107.664C7.58248 108.391 7.67302 109.123 7.90945 109.814C8.14587 110.505 8.52304 111.139 9.0171 111.676C9.51115 112.213 10.1113 112.642 10.7797 112.936C11.4481 113.229 12.1701 113.381 12.9 113.381H43.6405Z" fill="#FFF5E3"/>
<path d="M43.6405 113.381C44.3702 113.381 45.0918 113.229 45.7599 112.936C46.4281 112.643 47.0281 112.214 47.5221 111.677C48.0161 111.14 48.3933 110.507 48.63 109.816C48.8666 109.126 48.9575 108.394 48.897 107.667L47.3582 89.2018C47.2995 88.5047 47.45 87.8058 47.7905 87.1946C48.131 86.5834 48.6461 86.0877 49.2698 85.7708C51.5643 84.61 53.4004 82.7094 54.4814 80.3762C55.5624 78.043 55.8251 75.4135 55.2271 72.9126C54.6292 70.4116 53.2054 68.1854 51.1859 66.5935C49.1664 65.0017 46.6692 64.1372 44.0978 64.1399H12.4428C9.87136 64.1372 7.37413 65.0017 5.35465 66.5935C3.33516 68.1854 1.91139 70.4116 1.3134 72.9126C0.715408 75.4135 0.978132 78.043 2.05912 80.3762C3.14011 82.7094 4.97621 84.61 7.27073 85.7708C7.89388 86.0875 8.40855 86.5827 8.74903 87.1931C9.08951 87.8036 9.24036 88.5017 9.18234 89.1983L7.64355 107.664C7.58248 108.391 7.67302 109.123 7.90945 109.814C8.14587 110.505 8.52304 111.139 9.0171 111.676C9.51115 112.213 10.1113 112.642 10.7797 112.936C11.4481 113.229 12.1701 113.381 12.9 113.381H43.6405Z" stroke="#45413C" stroke-width="1.6" stroke-linecap="round" stroke-linejoin="round"/>
<path d="M114.43 85.0672C113.111 86.4741 111.616 87.7051 109.858 88.0569C108.102 88.34 106.305 87.9302 104.846 86.9138C104.645 86.7727 104.478 86.5893 104.357 86.3766C104.235 86.1638 104.162 85.927 104.142 85.6827C104.142 83.4845 107.659 83.0448 107.747 83.0448H108.89C111.264 82.869 112.671 83.7483 114.43 85.0672Z" fill="#EE3F26"/>
<path d="M127.092 37.8485C127.024 37.7799 126.941 37.7282 126.849 37.6976C126.758 37.6671 126.66 37.6585 126.565 37.6727L122.344 38.0244C122.146 38.7001 121.751 39.301 121.208 39.7493C120.665 40.1976 120 40.4727 119.299 40.539C118.599 40.6053 117.894 40.4597 117.277 40.1212C116.659 39.7826 116.158 39.2666 115.837 38.6399H115.134C115.043 38.649 114.956 38.678 114.878 38.7248C114.8 38.7717 114.733 38.8352 114.683 38.9109C114.633 38.9866 114.599 39.0725 114.586 39.1625C114.573 39.2524 114.58 39.3442 114.606 39.4313L115.573 46.6416H126.125L127.268 38.1123C127.234 38.0105 127.173 37.9196 127.092 37.8485V37.8485Z" fill="#FAB677"/>
<path d="M137.292 82.7811H137.204C136.667 81.7298 135.882 80.8246 134.918 80.1432C129.378 76.0984 122.959 78.9121 119.178 82.5173C118.467 83.215 117.792 83.9488 117.156 84.7155L116.364 85.5949C114.694 87.4414 112.847 89.3759 110.209 89.8155H108.802C107.115 89.8265 105.463 89.3369 104.054 88.4086V88.6724L106.252 105.115C106.42 106.234 106.982 107.257 107.836 107.998C108.69 108.74 109.781 109.152 110.913 109.16H131.313C132.444 109.152 133.535 108.74 134.389 107.998C135.244 107.257 135.805 106.234 135.973 105.115L138.171 88.6724C138.476 86.6649 138.17 84.612 137.292 82.7811Z" fill="#EE3F26"/>
<path d="M158.395 113.469H153.119C152.943 113.527 152.79 113.638 152.682 113.788C152.573 113.938 152.515 114.119 152.515 114.304C152.515 114.489 152.573 114.67 152.682 114.82C152.79 114.97 152.943 115.082 153.119 115.139H158.395C158.571 115.082 158.724 114.97 158.833 114.82C158.941 114.67 159 114.489 159 114.304C159 114.119 158.941 113.938 158.833 113.788C158.724 113.638 158.571 113.527 158.395 113.469Z" fill="black"/>
<path d="M149.603 113.469H147.932C147.756 113.527 147.603 113.638 147.494 113.788C147.386 113.938 147.327 114.119 147.327 114.304C147.327 114.489 147.386 114.67 147.494 114.82C147.603 114.97 147.756 115.082 147.932 115.139H149.603C149.778 115.082 149.932 114.97 150.04 114.82C150.149 114.67 150.207 114.489 150.207 114.304C150.207 114.119 150.149 113.938 150.04 113.788C149.932 113.638 149.778 113.527 149.603 113.469Z" fill="black"/>
<path d="M144.239 113.469H138.523C139.24 112.688 139.701 111.706 139.842 110.655L142.656 89.4639C143.711 81.4623 137.996 73.6365 129.554 71.702C129.219 71.6115 128.921 71.419 128.7 71.1511C128.48 70.8832 128.348 70.5533 128.323 70.2072L129.115 54.8193H129.203C130.229 54.8193 131.213 54.4117 131.939 53.6862C132.664 52.9606 133.072 51.9765 133.072 50.9504C133.072 49.9243 132.664 48.9402 131.939 48.2147C131.213 47.4891 130.229 47.0815 129.203 47.0815H126.565L127.708 38.6401C127.746 38.2994 127.711 37.9544 127.603 37.6288C127.495 37.3033 127.318 37.0049 127.084 36.7542C126.85 36.5035 126.565 36.3065 126.248 36.1767C125.93 36.0469 125.588 35.9874 125.246 36.0022L120.41 36.4419C120.219 36.4573 120.039 36.5342 119.896 36.6611C119.753 36.7881 119.656 36.958 119.618 37.1453C119.576 37.6125 119.366 38.0484 119.026 38.3719C118.686 38.6955 118.24 38.8845 117.772 38.9039C117.372 38.8702 116.992 38.7184 116.679 38.4679C116.365 38.2174 116.134 37.8795 116.013 37.497C115.955 37.3118 115.837 37.1509 115.678 37.0396C115.519 36.9282 115.328 36.8727 115.134 36.8815H113.727C113.396 36.9221 113.077 37.032 112.791 37.2041C112.505 37.3763 112.258 37.6068 112.068 37.8806C111.877 38.1544 111.746 38.4654 111.683 38.7932C111.621 39.1211 111.628 39.4584 111.705 39.7832L112.672 46.9056H110.122C109.096 46.9056 108.112 47.3132 107.386 48.0388C106.661 48.7644 106.253 49.7484 106.253 50.7745V50.7745C106.253 51.8006 106.661 52.7847 107.386 53.5103C108.112 54.2359 109.096 54.6435 110.122 54.6435H110.21L111.001 70.0313C110.977 70.3775 110.845 70.7074 110.624 70.9753C110.404 71.2431 110.105 71.4357 109.77 71.5261C101.329 73.5485 95.6133 81.3743 96.6685 89.2881L99.4823 110.479C99.6241 111.53 100.084 112.512 100.801 113.293H88.491C88.3151 113.351 88.1619 113.463 88.0533 113.613C87.9447 113.763 87.8862 113.943 87.8862 114.128C87.8862 114.314 87.9447 114.494 88.0533 114.644C88.1619 114.794 88.3151 114.906 88.491 114.964H144.239C144.372 115.046 144.525 115.092 144.681 115.095C144.838 115.099 144.993 115.061 145.13 114.985C145.267 114.908 145.381 114.797 145.46 114.662C145.54 114.527 145.581 114.373 145.581 114.216C145.581 114.06 145.54 113.906 145.46 113.771C145.381 113.636 145.267 113.524 145.13 113.448C144.993 113.372 144.838 113.334 144.681 113.337C144.525 113.341 144.372 113.386 144.239 113.469ZM113.463 38.9919C113.513 38.9189 113.578 38.8575 113.654 38.812C113.73 38.7665 113.815 38.7379 113.903 38.7281H114.606C114.927 39.3548 115.428 39.8708 116.046 40.2093C116.663 40.5479 117.368 40.6935 118.068 40.6272C118.769 40.5609 119.434 40.2858 119.977 39.8375C120.52 39.3892 120.916 38.7883 121.113 38.1126L125.334 37.7608C125.429 37.7467 125.527 37.7552 125.619 37.7858C125.71 37.8163 125.793 37.868 125.861 37.9367C125.918 37.9947 125.963 38.0635 125.993 38.1389C126.023 38.2144 126.038 38.2951 126.037 38.3764L124.894 46.9056H114.343L113.375 39.6953C113.316 39.5833 113.292 39.4556 113.308 39.3297C113.324 39.2037 113.378 39.0857 113.463 38.9919V38.9919ZM110.122 53.0607C109.539 53.0607 108.98 52.8291 108.567 52.4169C108.155 52.0046 107.924 51.4455 107.924 50.8625C107.924 50.2795 108.155 49.7203 108.567 49.3081C108.98 48.8958 109.539 48.6642 110.122 48.6642H129.291C129.874 48.6642 130.433 48.8958 130.845 49.3081C131.257 49.7203 131.489 50.2795 131.489 50.8625C131.489 51.4455 131.257 52.0046 130.845 52.4169C130.433 52.8291 129.874 53.0607 129.291 53.0607H110.122ZM134.742 113.381H104.67C103.809 113.388 102.975 113.078 102.326 112.511C101.678 111.944 101.261 111.158 101.153 110.303L98.4271 89.2001C97.4599 82.1657 102.824 75.0433 110.21 73.2847C110.907 73.0946 111.525 72.6832 111.968 72.1124C112.412 71.5416 112.659 70.8422 112.672 70.1192L111.88 54.8193H127.532L126.741 70.1192C126.753 70.8422 127 71.5416 127.444 72.1124C127.888 72.6832 128.505 73.0946 129.203 73.2847C136.677 75.0433 141.953 82.1657 140.985 89.2001L138.172 110.391C138.066 111.231 137.661 112.005 137.031 112.57C136.401 113.135 135.589 113.454 134.742 113.469V113.381Z" fill="black"/>
<path d="M84.0944 113.469H81.0169C80.8409 113.527 80.6878 113.638 80.5792 113.788C80.4706 113.938 80.4121 114.119 80.4121 114.304C80.4121 114.489 80.4706 114.67 80.5792 114.82C80.6878 114.97 80.8409 115.082 81.0169 115.139H84.0944C84.2703 115.082 84.4235 114.97 84.5321 114.82C84.6407 114.67 84.6992 114.489 84.6992 114.304C84.6992 114.119 84.6407 113.938 84.5321 113.788C84.4235 113.638 84.2703 113.527 84.0944 113.469Z" fill="black"/>
<path d="M137.292 82.0775C136.632 80.7809 135.666 79.6643 134.478 78.8241C128.499 74.5155 121.201 76.9776 116.541 81.2862C115.771 81.9812 115.037 82.7149 114.342 83.4844L114.078 83.8362C111.88 82.2534 109.858 80.8465 106.077 81.2862C104.318 81.462 101.416 82.5172 101.065 84.9793C100.931 85.7337 100.873 86.4995 100.889 87.2654C100.882 87.8237 100.911 88.3818 100.977 88.9361L103.175 105.379C103.387 106.91 104.144 108.313 105.307 109.331C106.47 110.348 107.961 110.912 109.506 110.919H129.906C131.451 110.912 132.942 110.348 134.105 109.331C135.268 108.313 136.025 106.91 136.237 105.379L138.435 88.9361C138.753 86.587 138.354 84.1967 137.292 82.0775V82.0775ZM106.253 82.9569H107.396C109.682 82.9569 111.177 83.9241 112.935 85.1551C111.616 86.562 110.122 87.793 108.363 88.1448C106.607 88.4279 104.81 88.0181 103.351 87.0017C103.151 86.8606 102.984 86.6772 102.862 86.4645C102.741 86.2517 102.667 86.0148 102.648 85.7706C102.735 83.3965 106.253 82.9569 106.341 82.9569H106.253ZM136.677 88.6723L134.566 105.027C134.399 106.146 133.837 107.168 132.983 107.91C132.128 108.652 131.037 109.064 129.906 109.072H109.506C108.375 109.064 107.284 108.652 106.429 107.91C105.575 107.168 105.013 106.146 104.846 105.027L102.648 88.6723V88.4085C104.056 89.3368 105.709 89.8264 107.396 89.8154H108.715C111.353 89.3758 113.199 87.5292 114.87 85.5948L115.661 84.7155C116.297 83.9487 116.972 83.215 117.684 82.5172C121.465 78.7362 127.884 76.0103 133.423 79.9672C134.387 80.6486 135.172 81.5538 135.709 82.6051H135.797C136.741 84.4783 137.079 86.5986 136.765 88.6723H136.677Z" fill="black"/>
<path d="M121.904 70.383C122.293 70.383 122.608 70.068 122.608 69.6795C122.608 69.291 122.293 68.9761 121.904 68.9761C121.516 68.9761 121.201 69.291 121.201 69.6795C121.201 70.068 121.516 70.383 121.904 70.383Z" fill="#EE3F26"/>
<path d="M116.54 64.3158C116.929 64.3158 117.244 64.0009 117.244 63.6124C117.244 63.2239 116.929 62.9089 116.54 62.9089C116.152 62.9089 115.837 63.2239 115.837 63.6124C115.837 64.0009 116.152 64.3158 116.54 64.3158Z" fill="#EE3F26"/>
<path d="M121.904 67.1295C122.13 67.1295 122.351 67.0624 122.539 66.9368C122.727 66.8112 122.874 66.6327 122.96 66.4238C123.047 66.2149 123.07 65.9851 123.025 65.7634C122.981 65.5416 122.872 65.3379 122.713 65.1781C122.553 65.0182 122.349 64.9093 122.127 64.8652C121.906 64.8211 121.676 64.8438 121.467 64.9303C121.258 65.0168 121.079 65.1633 120.954 65.3513C120.828 65.5393 120.761 65.7603 120.761 65.9864C120.761 66.2895 120.882 66.5803 121.096 66.7946C121.31 67.009 121.601 67.1295 121.904 67.1295V67.1295ZM121.904 65.7226C121.956 65.7226 122.007 65.738 122.051 65.767C122.094 65.796 122.128 65.8372 122.148 65.8854C122.168 65.9336 122.173 65.9867 122.163 66.0378C122.153 66.089 122.128 66.136 122.091 66.1729C122.054 66.2098 122.007 66.2349 121.956 66.2451C121.905 66.2553 121.852 66.25 121.803 66.2301C121.755 66.2101 121.714 66.1763 121.685 66.1329C121.656 66.0895 121.641 66.0385 121.641 65.9864C121.66 65.9324 121.695 65.8861 121.743 65.8544C121.791 65.8227 121.847 65.8073 121.904 65.8105V65.7226Z" fill="#EE3F26"/>
<path d="M118.212 62.0295C118.525 62.0295 118.831 61.9367 119.091 61.7628C119.351 61.5889 119.554 61.3417 119.674 61.0525C119.794 60.7632 119.825 60.445 119.764 60.138C119.703 59.831 119.552 59.5489 119.331 59.3276C119.109 59.1062 118.827 58.9555 118.52 58.8944C118.213 58.8334 117.895 58.8647 117.606 58.9845C117.317 59.1043 117.07 59.3072 116.896 59.5674C116.722 59.8277 116.629 60.1337 116.629 60.4468C116.629 60.8665 116.796 61.2691 117.092 61.5659C117.389 61.8628 117.792 62.0295 118.212 62.0295V62.0295ZM118.212 59.6554C118.351 59.6554 118.487 59.6966 118.602 59.7739C118.718 59.8512 118.808 59.9611 118.862 60.0896C118.915 60.2182 118.929 60.3596 118.902 60.4961C118.874 60.6325 118.807 60.7579 118.709 60.8562C118.611 60.9546 118.485 61.0216 118.349 61.0488C118.212 61.0759 118.071 61.062 117.942 61.0087C117.814 60.9555 117.704 60.8653 117.627 60.7496C117.549 60.634 117.508 60.498 117.508 60.3588C117.53 60.1879 117.613 60.0308 117.743 59.9173C117.873 59.8039 118.039 59.742 118.212 59.7433V59.6554Z" fill="#EE3F26"/>
<path d="M123.751 68.3606C123.896 68.3606 124.014 68.2425 124.014 68.0968C124.014 67.9511 123.896 67.833 123.751 67.833C123.605 67.833 123.487 67.9511 123.487 68.0968C123.487 68.2425 123.605 68.3606 123.751 68.3606Z" fill="#EE3F26"/>
<path d="M113.112 99.8397C113.597 99.8397 113.991 99.446 113.991 98.9604C113.991 98.4747 113.597 98.0811 113.112 98.0811C112.626 98.0811 112.232 98.4747 112.232 98.9604C112.232 99.446 112.626 99.8397 113.112 99.8397Z" fill="#93271C"/>
<path d="M110.473 102.302C110.862 102.302 111.177 101.987 111.177 101.598C111.177 101.21 110.862 100.895 110.473 100.895C110.085 100.895 109.77 101.21 109.77 101.598C109.77 101.987 110.085 102.302 110.473 102.302Z" fill="#93271C"/>
<path d="M119.706 89.2881C119.48 89.2881 119.259 89.3551 119.071 89.4807C118.883 89.6063 118.737 89.7849 118.65 89.9937C118.563 90.2026 118.541 90.4325 118.585 90.6542C118.629 90.8759 118.738 91.0796 118.898 91.2395C119.058 91.3993 119.261 91.5082 119.483 91.5523C119.705 91.5964 119.935 91.5738 120.144 91.4873C120.352 91.4007 120.531 91.2542 120.657 91.0663C120.782 90.8783 120.849 90.6573 120.849 90.4312C120.849 90.128 120.729 89.8373 120.514 89.6229C120.3 89.4085 120.009 89.2881 119.706 89.2881V89.2881ZM119.706 90.695C119.654 90.695 119.603 90.6795 119.56 90.6505C119.516 90.6215 119.482 90.5803 119.462 90.5321C119.442 90.4839 119.437 90.4309 119.447 90.3797C119.458 90.3286 119.483 90.2815 119.52 90.2447C119.556 90.2078 119.603 90.1826 119.655 90.1725C119.706 90.1623 119.759 90.1675 119.807 90.1875C119.855 90.2074 119.896 90.2412 119.925 90.2846C119.954 90.328 119.97 90.379 119.97 90.4312C119.951 90.4851 119.915 90.5314 119.867 90.5632C119.82 90.5949 119.763 90.6103 119.706 90.607V90.695Z" fill="#93271C"/>
<path d="M127.356 103.445C127.127 103.427 126.898 103.479 126.699 103.593C126.5 103.708 126.34 103.879 126.239 104.086C126.139 104.293 126.104 104.525 126.137 104.752C126.171 104.979 126.272 105.191 126.428 105.36C126.584 105.529 126.787 105.647 127.011 105.698C127.235 105.75 127.469 105.733 127.683 105.65C127.897 105.566 128.081 105.421 128.211 105.231C128.341 105.042 128.411 104.818 128.411 104.588C128.412 104.299 128.304 104.021 128.108 103.809C127.912 103.597 127.644 103.467 127.356 103.445V103.445ZM127.356 104.852C127.304 104.852 127.253 104.836 127.209 104.807C127.166 104.778 127.132 104.737 127.112 104.689C127.092 104.641 127.087 104.588 127.097 104.536C127.107 104.485 127.133 104.438 127.169 104.401C127.206 104.364 127.253 104.339 127.305 104.329C127.356 104.319 127.409 104.324 127.457 104.344C127.505 104.364 127.546 104.398 127.575 104.441C127.604 104.485 127.62 104.536 127.62 104.588C127.62 104.658 127.592 104.725 127.543 104.774C127.493 104.824 127.426 104.852 127.356 104.852V104.852Z" fill="#93271C"/>
<path d="M129.203 81.4624C128.89 81.4624 128.584 81.5552 128.324 81.7291C128.063 81.9031 127.86 82.1502 127.741 82.4395C127.621 82.7287 127.589 83.0469 127.651 83.3539C127.712 83.661 127.862 83.943 128.084 84.1643C128.305 84.3857 128.587 84.5364 128.894 84.5975C129.201 84.6586 129.519 84.6272 129.809 84.5074C130.098 84.3876 130.345 84.1848 130.519 83.9245C130.693 83.6642 130.786 83.3582 130.786 83.0452C130.786 82.6254 130.619 82.2228 130.322 81.926C130.025 81.6292 129.623 81.4624 129.203 81.4624V81.4624ZM129.203 83.8365C129.064 83.8365 128.928 83.7953 128.812 83.718C128.696 83.6407 128.606 83.5308 128.553 83.4023C128.5 83.2737 128.486 83.1323 128.513 82.9958C128.54 82.8594 128.607 82.734 128.705 82.6357C128.804 82.5373 128.929 82.4703 129.066 82.4432C129.202 82.416 129.344 82.4299 129.472 82.4832C129.601 82.5364 129.71 82.6266 129.788 82.7423C129.865 82.858 129.906 82.994 129.906 83.1331C129.906 83.3196 129.832 83.4986 129.7 83.6305C129.568 83.7624 129.389 83.8365 129.203 83.8365V83.8365Z" fill="#93271C"/>
<path d="M126.652 100.719C126.798 100.719 126.916 100.601 126.916 100.455C126.916 100.309 126.798 100.191 126.652 100.191C126.507 100.191 126.389 100.309 126.389 100.455C126.389 100.601 126.507 100.719 126.652 100.719Z" fill="#93271C"/>
<path d="M130.609 93.157C130.755 93.157 130.873 93.0389 130.873 92.8932C130.873 92.7475 130.755 92.6294 130.609 92.6294C130.464 92.6294 130.346 92.7475 130.346 92.8932C130.346 93.0389 130.464 93.157 130.609 93.157Z" fill="#93271C"/>
<path d="M118.827 42.9486C119.215 42.9486 119.53 42.6337 119.53 42.2452C119.53 41.8567 119.215 41.5417 118.827 41.5417C118.438 41.5417 118.124 41.8567 118.124 42.2452C118.124 42.6337 118.438 42.9486 118.827 42.9486Z" fill="#7F5C41"/>
<path d="M123.048 39.0798C122.735 39.0798 122.429 39.1727 122.168 39.3466C121.908 39.5205 121.705 39.7677 121.585 40.0569C121.466 40.3461 121.434 40.6643 121.495 40.9714C121.556 41.2784 121.707 41.5604 121.928 41.7818C122.15 42.0031 122.432 42.1538 122.739 42.2149C123.046 42.276 123.364 42.2446 123.653 42.1248C123.942 42.0051 124.19 41.8022 124.364 41.5419C124.538 41.2816 124.63 40.9756 124.63 40.6626C124.63 40.2428 124.464 39.8402 124.167 39.5434C123.87 39.2466 123.467 39.0798 123.048 39.0798V39.0798ZM123.048 41.454C122.908 41.454 122.772 41.4127 122.657 41.3354C122.541 41.2581 122.451 41.1482 122.398 41.0197C122.344 40.8912 122.331 40.7497 122.358 40.6133C122.385 40.4768 122.452 40.3515 122.55 40.2531C122.649 40.1547 122.774 40.0877 122.91 40.0606C123.047 40.0334 123.188 40.0474 123.317 40.1006C123.445 40.1539 123.555 40.244 123.632 40.3597C123.71 40.4754 123.751 40.6114 123.751 40.7505C123.751 40.8429 123.733 40.9344 123.697 41.0197C123.662 41.1051 123.61 41.1826 123.545 41.2479C123.48 41.3132 123.402 41.3651 123.317 41.4004C123.231 41.4358 123.14 41.454 123.048 41.454V41.454Z" fill="#7F5C41"/>
<path d="M123.751 43.3003C123.896 43.3003 124.014 43.1822 124.014 43.0365C124.014 42.8908 123.896 42.7727 123.751 42.7727C123.605 42.7727 123.487 42.8908 123.487 43.0365C123.487 43.1822 123.605 43.3003 123.751 43.3003Z" fill="#7F5C41"/>
<path d="M120.937 45.4109C121.083 45.4109 121.201 45.2928 121.201 45.1471C121.201 45.0014 121.083 44.8833 120.937 44.8833C120.791 44.8833 120.673 45.0014 120.673 45.1471C120.673 45.2928 120.791 45.4109 120.937 45.4109Z" fill="#7F5C41"/>
<path d="M117.332 42.1575C117.478 42.1575 117.596 42.0394 117.596 41.8937C117.596 41.748 117.478 41.6299 117.332 41.6299C117.186 41.6299 117.068 41.748 117.068 41.8937C117.068 42.0394 117.186 42.1575 117.332 42.1575Z" fill="#7F5C41"/>
<path d="M116.277 45.6745C116.568 45.6745 116.804 45.4383 116.804 45.147C116.804 44.8556 116.568 44.6194 116.277 44.6194C115.985 44.6194 115.749 44.8556 115.749 45.147C115.749 45.4383 115.985 45.6745 116.277 45.6745Z" fill="#7F5C41"/>
<path d="M114.694 43.828C114.791 43.828 114.87 43.7493 114.87 43.6522C114.87 43.5551 114.791 43.4763 114.694 43.4763C114.597 43.4763 114.518 43.5551 114.518 43.6522C114.518 43.7493 114.597 43.828 114.694 43.828Z" fill="#7F5C41"/>
<path d="M119.97 44.9711C120.067 44.9711 120.146 44.8924 120.146 44.7952C120.146 44.6981 120.067 44.6194 119.97 44.6194C119.873 44.6194 119.794 44.6981 119.794 44.7952C119.794 44.8924 119.873 44.9711 119.97 44.9711Z" fill="#7F5C41"/>
</svg>
