<svg xmlns="http://www.w3.org/2000/svg" version="1.1" xmlns:xlink="http://www.w3.org/1999/xlink" xmlns:svgjs="http://svgjs.com/svgjs" viewBox="0 0 160 160" width="160" height="160"><g transform="matrix(1.6,0,0,1.6,0,0)"><path d="M10.000 50.000 A40.000 40.000 0 1 0 90.000 50.000 A40.000 40.000 0 1 0 10.000 50.000 Z" fill="#c7f0ff" stroke="#c7f0ff" stroke-miterlimit="10"></path><path d="M30.180 79.756 A19.57 2.097 0 1 0 69.320 79.756 A19.57 2.097 0 1 0 30.180 79.756 Z" fill="#45413c" opacity=".15"></path><path d="M29.622,19.154H69.879a3.354,3.354,0,0,1,3.354,3.354v52a3.355,3.355,0,0,1-3.355,3.355H29.622a3.355,3.355,0,0,1-3.355-3.355v-52A3.355,3.355,0,0,1,29.622,19.154Z" fill="#656769"></path><path d="M69.878,19.154H29.621a3.364,3.364,0,0,0-3.354,3.355v2.516a3.364,3.364,0,0,1,3.354-3.355H69.878a3.365,3.365,0,0,1,3.355,3.355V22.509A3.365,3.365,0,0,0,69.878,19.154Z" fill="#87898c"></path><path d="M29.622,19.154H69.879a3.354,3.354,0,0,1,3.354,3.354v52a3.355,3.355,0,0,1-3.355,3.355H29.622a3.355,3.355,0,0,1-3.355-3.355v-52A3.355,3.355,0,0,1,29.622,19.154Z" fill="none" stroke="#45413c" stroke-linecap="round" stroke-linejoin="round"></path><path d="M70.833,77.863H28.667a2.4,2.4,0,0,1-2.4-2.4V37.606H73.233V75.463A2.4,2.4,0,0,1,70.833,77.863Z" fill="#c7f0ff" stroke="#45413c" stroke-linecap="round" stroke-linejoin="round"></path><path d="M38.008,45.153a2.516,2.516,0,0,1-2.516,2.517H33.814a2.517,2.517,0,0,1,0-5.033h1.678A2.517,2.517,0,0,1,38.008,45.153Z" fill="#c7f0ff"></path><path d="M33.814,44.785h1.678a2.509,2.509,0,0,1,2.267,1.443,2.5,2.5,0,0,0-2.267-3.591H33.814a2.5,2.5,0,0,0-2.267,3.591A2.509,2.509,0,0,1,33.814,44.785Z" fill="#ffffff"></path><path d="M38.008,45.153a2.516,2.516,0,0,1-2.516,2.517H33.814a2.517,2.517,0,0,1,0-5.033h1.678A2.517,2.517,0,0,1,38.008,45.153Z" fill="none" stroke="#45413c" stroke-linecap="round" stroke-linejoin="round"></path><path d="M48.072,45.153a2.515,2.515,0,0,1-2.515,2.517H43.879a2.517,2.517,0,0,1,0-5.033h1.678A2.516,2.516,0,0,1,48.072,45.153Z" fill="#c7f0ff"></path><path d="M43.879,44.785h1.678a2.51,2.51,0,0,1,2.267,1.443,2.5,2.5,0,0,0-2.267-3.591H43.879a2.5,2.5,0,0,0-2.267,3.591A2.509,2.509,0,0,1,43.879,44.785Z" fill="#ffffff"></path><path d="M48.072,45.153a2.515,2.515,0,0,1-2.515,2.517H43.879a2.517,2.517,0,0,1,0-5.033h1.678A2.516,2.516,0,0,1,48.072,45.153Z" fill="none" stroke="#45413c" stroke-linecap="round" stroke-linejoin="round"></path><path d="M58.137,45.153a2.516,2.516,0,0,1-2.516,2.517H53.944a2.517,2.517,0,0,1,0-5.033h1.677A2.516,2.516,0,0,1,58.137,45.153Z" fill="#c7f0ff"></path><path d="M53.944,44.785h1.677a2.508,2.508,0,0,1,2.267,1.443,2.5,2.5,0,0,0-2.267-3.591H53.944a2.516,2.516,0,0,0-2.516,2.516,2.483,2.483,0,0,0,.249,1.075A2.508,2.508,0,0,1,53.944,44.785Z" fill="#ffffff"></path><path d="M58.137,45.153a2.516,2.516,0,0,1-2.516,2.517H53.944a2.517,2.517,0,0,1,0-5.033h1.677A2.516,2.516,0,0,1,58.137,45.153Z" fill="none" stroke="#45413c" stroke-linecap="round" stroke-linejoin="round"></path><path d="M68.2,45.153a2.516,2.516,0,0,1-2.516,2.517H64.007a2.517,2.517,0,0,1,0-5.033h1.678A2.516,2.516,0,0,1,68.2,45.153Z" fill="#ff6242"></path><path d="M64.007,44.785h1.678a2.509,2.509,0,0,1,2.267,1.443,2.5,2.5,0,0,0-2.267-3.591H64.007a2.516,2.516,0,0,0-2.515,2.516,2.483,2.483,0,0,0,.249,1.075A2.508,2.508,0,0,1,64.007,44.785Z" fill="#ff866e"></path><path d="M68.2,45.153a2.516,2.516,0,0,1-2.516,2.517H64.007a2.517,2.517,0,0,1,0-5.033h1.678A2.516,2.516,0,0,1,68.2,45.153Z" fill="none" stroke="#45413c" stroke-linecap="round" stroke-linejoin="round"></path><path d="M68.2,53.54a2.516,2.516,0,0,1-2.516,2.517H64.007a2.517,2.517,0,0,1,0-5.033h1.678A2.516,2.516,0,0,1,68.2,53.54Z" fill="#ffe500"></path><path d="M64.007,53.172h1.678a2.509,2.509,0,0,1,2.267,1.443,2.5,2.5,0,0,0-2.267-3.591H64.007a2.516,2.516,0,0,0-2.515,2.516,2.483,2.483,0,0,0,.249,1.075A2.508,2.508,0,0,1,64.007,53.172Z" fill="#fff48c"></path><path d="M68.2,53.54a2.516,2.516,0,0,1-2.516,2.517H64.007a2.517,2.517,0,0,1,0-5.033h1.678A2.516,2.516,0,0,1,68.2,53.54Z" fill="none" stroke="#45413c" stroke-linecap="round" stroke-linejoin="round"></path><path d="M38.008,53.54a2.516,2.516,0,0,1-2.516,2.517H33.814a2.517,2.517,0,0,1,0-5.033h1.678A2.517,2.517,0,0,1,38.008,53.54Z" fill="#c7f0ff"></path><path d="M33.814,53.172h1.678a2.509,2.509,0,0,1,2.267,1.443,2.5,2.5,0,0,0-2.267-3.591H33.814a2.5,2.5,0,0,0-2.267,3.591A2.509,2.509,0,0,1,33.814,53.172Z" fill="#ffffff"></path><path d="M38.008,53.54a2.516,2.516,0,0,1-2.516,2.517H33.814a2.517,2.517,0,0,1,0-5.033h1.678A2.517,2.517,0,0,1,38.008,53.54Z" fill="none" stroke="#45413c" stroke-linecap="round" stroke-linejoin="round"></path><path d="M48.072,53.54a2.515,2.515,0,0,1-2.515,2.517H43.879a2.517,2.517,0,0,1,0-5.033h1.678A2.516,2.516,0,0,1,48.072,53.54Z" fill="#c7f0ff"></path><path d="M43.879,53.172h1.678a2.51,2.51,0,0,1,2.267,1.443,2.5,2.5,0,0,0-2.267-3.591H43.879a2.5,2.5,0,0,0-2.267,3.591A2.509,2.509,0,0,1,43.879,53.172Z" fill="#ffffff"></path><path d="M48.072,53.54a2.515,2.515,0,0,1-2.515,2.517H43.879a2.517,2.517,0,0,1,0-5.033h1.678A2.516,2.516,0,0,1,48.072,53.54Z" fill="none" stroke="#45413c" stroke-linecap="round" stroke-linejoin="round"></path><path d="M58.137,53.54a2.516,2.516,0,0,1-2.516,2.517H53.944a2.517,2.517,0,0,1,0-5.033h1.677A2.516,2.516,0,0,1,58.137,53.54Z" fill="#c7f0ff"></path><path d="M53.944,53.172h1.677a2.508,2.508,0,0,1,2.267,1.443,2.5,2.5,0,0,0-2.267-3.591H53.944a2.516,2.516,0,0,0-2.516,2.516,2.483,2.483,0,0,0,.249,1.075A2.508,2.508,0,0,1,53.944,53.172Z" fill="#ffffff"></path><path d="M58.137,53.54a2.516,2.516,0,0,1-2.516,2.517H53.944a2.517,2.517,0,0,1,0-5.033h1.677A2.516,2.516,0,0,1,58.137,53.54Z" fill="none" stroke="#45413c" stroke-linecap="round" stroke-linejoin="round"></path><path d="M38.008,61.927a2.516,2.516,0,0,1-2.516,2.517H33.814a2.517,2.517,0,0,1,0-5.033h1.678A2.517,2.517,0,0,1,38.008,61.927Z" fill="#c7f0ff"></path><path d="M33.814,61.559h1.678A2.509,2.509,0,0,1,37.759,63a2.5,2.5,0,0,0-2.267-3.591H33.814A2.5,2.5,0,0,0,31.547,63,2.509,2.509,0,0,1,33.814,61.559Z" fill="#ffffff"></path><path d="M38.008,61.927a2.516,2.516,0,0,1-2.516,2.517H33.814a2.517,2.517,0,0,1,0-5.033h1.678A2.517,2.517,0,0,1,38.008,61.927Z" fill="none" stroke="#45413c" stroke-linecap="round" stroke-linejoin="round"></path><path d="M48.072,61.927a2.515,2.515,0,0,1-2.515,2.517H43.879a2.517,2.517,0,0,1,0-5.033h1.678A2.516,2.516,0,0,1,48.072,61.927Z" fill="#c7f0ff"></path><path d="M43.879,61.559h1.678A2.51,2.51,0,0,1,47.824,63a2.5,2.5,0,0,0-2.267-3.591H43.879A2.5,2.5,0,0,0,41.612,63,2.509,2.509,0,0,1,43.879,61.559Z" fill="#ffffff"></path><path d="M48.072,61.927a2.515,2.515,0,0,1-2.515,2.517H43.879a2.517,2.517,0,0,1,0-5.033h1.678A2.516,2.516,0,0,1,48.072,61.927Z" fill="none" stroke="#45413c" stroke-linecap="round" stroke-linejoin="round"></path><path d="M58.137,61.927a2.516,2.516,0,0,1-2.516,2.517H53.944a2.517,2.517,0,0,1,0-5.033h1.677A2.516,2.516,0,0,1,58.137,61.927Z" fill="#c7f0ff"></path><path d="M53.944,61.559h1.677A2.508,2.508,0,0,1,57.888,63a2.5,2.5,0,0,0-2.267-3.591H53.944a2.516,2.516,0,0,0-2.516,2.516A2.483,2.483,0,0,0,51.677,63,2.508,2.508,0,0,1,53.944,61.559Z" fill="#ffffff"></path><path d="M58.137,61.927a2.516,2.516,0,0,1-2.516,2.517H53.944a2.517,2.517,0,0,1,0-5.033h1.677A2.516,2.516,0,0,1,58.137,61.927Z" fill="none" stroke="#45413c" stroke-linecap="round" stroke-linejoin="round"></path><path d="M38.008,70.314a2.516,2.516,0,0,1-2.516,2.517H33.814a2.517,2.517,0,0,1,0-5.033h1.678A2.517,2.517,0,0,1,38.008,70.314Z" fill="#c7f0ff"></path><path d="M33.814,69.946h1.678a2.509,2.509,0,0,1,2.267,1.443A2.5,2.5,0,0,0,35.492,67.8H33.814a2.5,2.5,0,0,0-2.267,3.591A2.509,2.509,0,0,1,33.814,69.946Z" fill="#ffffff"></path><path d="M38.008,70.314a2.516,2.516,0,0,1-2.516,2.517H33.814a2.517,2.517,0,0,1,0-5.033h1.678A2.517,2.517,0,0,1,38.008,70.314Z" fill="none" stroke="#45413c" stroke-linecap="round" stroke-linejoin="round"></path><path d="M48.072,70.314a2.515,2.515,0,0,1-2.515,2.517H43.879a2.517,2.517,0,0,1,0-5.033h1.678A2.516,2.516,0,0,1,48.072,70.314Z" fill="#c7f0ff"></path><path d="M43.879,69.946h1.678a2.51,2.51,0,0,1,2.267,1.443A2.5,2.5,0,0,0,45.557,67.8H43.879a2.5,2.5,0,0,0-2.267,3.591A2.509,2.509,0,0,1,43.879,69.946Z" fill="#ffffff"></path><path d="M48.072,70.314a2.515,2.515,0,0,1-2.515,2.517H43.879a2.517,2.517,0,0,1,0-5.033h1.678A2.516,2.516,0,0,1,48.072,70.314Z" fill="none" stroke="#45413c" stroke-linecap="round" stroke-linejoin="round"></path><path d="M58.137,70.314a2.516,2.516,0,0,1-2.516,2.517H53.944a2.517,2.517,0,0,1,0-5.033h1.677A2.516,2.516,0,0,1,58.137,70.314Z" fill="#c7f0ff"></path><path d="M53.944,69.946h1.677a2.508,2.508,0,0,1,2.267,1.443A2.5,2.5,0,0,0,55.621,67.8H53.944a2.516,2.516,0,0,0-2.516,2.516,2.483,2.483,0,0,0,.249,1.075A2.508,2.508,0,0,1,53.944,69.946Z" fill="#ffffff"></path><path d="M58.137,70.314a2.516,2.516,0,0,1-2.516,2.517H53.944a2.517,2.517,0,0,1,0-5.033h1.677A2.516,2.516,0,0,1,58.137,70.314Z" fill="none" stroke="#45413c" stroke-linecap="round" stroke-linejoin="round"></path><path d="M68.2,69.476a3.356,3.356,0,0,1-6.711,0V62.767a3.356,3.356,0,1,1,6.711,0Z" fill="#6dd627"></path><path d="M64.846,59.411a3.356,3.356,0,0,0-3.355,3.356v2.516a3.356,3.356,0,0,1,6.711,0V62.767A3.357,3.357,0,0,0,64.846,59.411Z" fill="#9ceb60"></path><path d="M68.2,69.476a3.356,3.356,0,0,1-6.711,0V62.767a3.356,3.356,0,1,1,6.711,0Z" fill="none" stroke="#45413c" stroke-linecap="round" stroke-linejoin="round"></path><path d="M31.298 24.186 L68.201 24.186 L68.201 32.573 L31.298 32.573 Z" fill="#00b8f0"></path><path d="M37.17,32.573l8.387-8.387H32.7a1.4,1.4,0,0,0-1.4,1.4v5.591a1.4,1.4,0,0,0,1.4,1.4Z" fill="#4acfff" opacity=".5"></path><path d="M31.298 24.186 L68.201 24.186 L68.201 32.573 L31.298 32.573 Z" fill="none" stroke="#45413c" stroke-linecap="round" stroke-linejoin="round"></path></g></svg>