<svg width="160" height="160" viewBox="0 0 160 160" fill="none" xmlns="http://www.w3.org/2000/svg">
<path d="M24.6045 79.9995C24.6045 96.9734 31.3473 113.252 43.3497 125.254C55.352 137.257 71.6306 144 88.6045 144C105.578 144 121.857 137.257 133.859 125.254C145.862 113.252 152.604 96.9734 152.604 79.9995C152.604 63.0257 145.862 46.747 133.859 34.7447C121.857 22.7423 105.578 15.9995 88.6045 15.9995C71.6306 15.9995 55.352 22.7423 43.3497 34.7447C31.3473 46.747 24.6045 63.0257 24.6045 79.9995Z" fill="#C7F0FF"/>
<path opacity="0.15" d="M8.19482 132.922C8.19482 133.688 12.9538 134.422 21.4247 134.963C29.8956 135.504 41.3847 135.808 53.3644 135.808C65.3441 135.808 76.8332 135.504 85.3041 134.963C93.7751 134.422 98.534 133.688 98.534 132.922C98.534 132.157 93.7751 131.422 85.3041 130.881C76.8332 130.34 65.3441 130.036 53.3644 130.036C41.3847 130.036 29.8956 130.34 21.4247 130.881C12.9538 131.422 8.19482 132.157 8.19482 132.922V132.922Z" fill="#45413C"/>
<path d="M27.8197 98.8796L33.7125 84.7388C34.488 82.878 35.7968 81.2884 37.4742 80.1703C39.1515 79.0522 41.1223 78.4555 43.1381 78.4556H66.0181C68.8629 78.4554 71.6514 79.2475 74.0713 80.743C76.4912 82.2385 78.4468 84.3783 79.7189 86.9228L85.6885 98.8796L95.5413 103.806C96.6724 104.371 97.6237 105.24 98.2884 106.316C98.9531 107.392 99.305 108.631 99.3045 109.896V124.409H9.09814V110.678C9.0982 109.698 9.38052 108.738 9.91138 107.914C10.4422 107.089 11.1992 106.436 12.0917 106.03L27.8197 98.8796Z" fill="#FF6242"/>
<path d="M9.09793 110.678C9.09798 109.697 9.38031 108.738 9.91116 107.914C10.442 107.089 11.199 106.435 12.0915 106.03L27.8195 98.881L33.7123 84.7402C34.4878 82.8795 35.7966 81.2899 37.474 80.1718C39.1513 79.0536 41.1221 78.457 43.1379 78.457H66.0179C68.8627 78.4569 71.6512 79.2489 74.0711 80.7444C76.491 82.2399 78.4466 84.3798 79.7187 86.9242L85.6883 98.8794L95.5411 103.806C96.6721 104.371 97.6233 105.24 98.288 106.316C98.9527 107.392 99.3046 108.631 99.3043 109.895V115.001C99.3046 113.737 98.9527 112.497 98.288 111.422C97.6233 110.346 96.6721 109.477 95.5411 108.911L87.4547 104.868C86.3068 104.296 85.3754 103.367 84.8003 102.22L79.7059 92.0298C78.4335 89.4856 76.4778 87.346 74.058 85.8505C71.6382 84.355 68.8498 83.5628 66.0051 83.5626H43.1251C41.1091 83.5627 39.1382 84.1596 37.4608 85.278C35.7835 86.3965 34.4747 87.9864 33.6995 89.8474L28.9603 101.252C28.2281 103.011 26.8557 104.426 25.1203 105.212L12.0883 111.132C11.1954 111.537 10.4381 112.191 9.9072 113.015C9.37627 113.84 9.09419 114.8 9.09473 115.78L9.09793 110.678Z" fill="#FF866E"/>
<path d="M27.8197 98.8796L33.7125 84.7388C34.488 82.878 35.7968 81.2884 37.4742 80.1703C39.1515 79.0522 41.1223 78.4555 43.1381 78.4556H66.0181C68.8629 78.4554 71.6514 79.2475 74.0713 80.743C76.4912 82.2385 78.4468 84.3783 79.7189 86.9228L85.6885 98.8796L95.5413 103.806C96.6724 104.371 97.6237 105.24 98.2884 106.316C98.9531 107.392 99.305 108.631 99.3045 109.896V124.409H9.09814V110.678C9.0982 109.698 9.38052 108.738 9.91138 107.914C10.4422 107.089 11.1992 106.436 12.0917 106.03L27.8197 98.8796Z" stroke="#45413C" stroke-width="1.5" stroke-linecap="round" stroke-linejoin="round"/>
<path d="M9.02431 126.113H24.4163V119.305H9.02431C8.81049 119.305 8.59873 119.347 8.40112 119.429C8.20352 119.51 8.02395 119.63 7.87268 119.781C7.72141 119.932 7.60141 120.112 7.51953 120.309C7.43766 120.507 7.39551 120.719 7.39551 120.932V124.48C7.39488 124.694 7.43655 124.906 7.51812 125.104C7.59969 125.303 7.71957 125.483 7.87088 125.634C8.02219 125.786 8.20196 125.907 8.39989 125.989C8.59782 126.071 8.81001 126.113 9.02431 126.113V126.113Z" fill="#E8F4FA"/>
<path d="M9.09791 119.305H24.4163V122.708H9.09791C8.6464 122.708 8.21339 122.888 7.89413 123.207C7.57487 123.526 7.39551 123.959 7.39551 124.411V121.008C7.39551 120.556 7.57487 120.123 7.89413 119.804C8.21339 119.485 8.6464 119.305 9.09791 119.305Z" fill="white"/>
<path d="M83.9873 126.113H99.3793C99.5935 126.113 99.8056 126.071 100.003 125.989C100.201 125.907 100.381 125.786 100.532 125.634C100.683 125.483 100.803 125.302 100.884 125.104C100.966 124.906 101.007 124.694 101.007 124.48V120.932C101.007 120.501 100.835 120.087 100.53 119.782C100.225 119.477 99.8109 119.305 99.3793 119.305H83.9873V126.113Z" fill="#E8F4FA"/>
<path d="M99.3041 119.305C99.7556 119.305 100.189 119.485 100.508 119.804C100.827 120.123 101.007 120.556 101.007 121.008V124.411C101.007 123.959 100.827 123.526 100.508 123.207C100.189 122.888 99.7556 122.708 99.3041 122.708H83.9873V119.305H99.3041Z" fill="white"/>
<path d="M9.02431 126.113H24.4163V119.305H9.02431C8.81049 119.305 8.59873 119.347 8.40112 119.429C8.20352 119.51 8.02395 119.63 7.87268 119.781C7.72141 119.932 7.60141 120.112 7.51953 120.309C7.43766 120.507 7.39551 120.719 7.39551 120.932V124.48C7.39488 124.694 7.43655 124.906 7.51812 125.104C7.59969 125.303 7.71957 125.483 7.87088 125.634C8.02219 125.786 8.20196 125.907 8.39989 125.989C8.59782 126.071 8.81001 126.113 9.02431 126.113V126.113Z" stroke="#45413C" stroke-width="1.5" stroke-linecap="round" stroke-linejoin="round"/>
<path d="M83.9873 126.113H99.3793C99.5935 126.113 99.8056 126.071 100.003 125.989C100.201 125.907 100.381 125.786 100.532 125.634C100.683 125.483 100.803 125.302 100.884 125.104C100.966 124.906 101.007 124.694 101.007 124.48V120.932C101.007 120.501 100.835 120.087 100.53 119.782C100.225 119.477 99.8109 119.305 99.3793 119.305H83.9873V126.113Z" stroke="#45413C" stroke-width="1.5" stroke-linecap="round" stroke-linejoin="round"/>
<path d="M94.1978 119.306H99.3034V112.498H97.4538C96.5902 112.498 95.762 112.841 95.1514 113.452C94.5408 114.062 94.1978 114.891 94.1978 115.754V119.306Z" fill="#FFE500" stroke="#45413C" stroke-width="1.5" stroke-linecap="round" stroke-linejoin="round"/>
<path d="M14.2037 119.306H9.09814V112.498H10.9493C11.8126 112.498 12.6404 112.842 13.2506 113.452C13.8609 114.063 14.2037 114.891 14.2037 115.754V119.306Z" fill="#FFE500" stroke="#45413C" stroke-width="1.5" stroke-linecap="round" stroke-linejoin="round"/>
<path d="M39.7344 119.221H48.2448C49.599 119.221 50.8976 118.682 51.8551 117.725C52.8125 116.767 53.3504 115.468 53.3504 114.114V98.8804" stroke="#45413C" stroke-width="1.5" stroke-linecap="round" stroke-linejoin="round"/>
<path d="M48.2452 105.6C48.2448 106.052 48.0652 106.484 47.746 106.803C47.4268 107.122 46.994 107.301 46.5428 107.301H43.138C42.6957 107.288 42.2761 107.102 41.9681 106.785C41.6601 106.467 41.4878 106.042 41.4878 105.6C41.4878 105.157 41.6601 104.732 41.9681 104.414C42.2761 104.097 42.6957 103.912 43.138 103.898H46.5428C46.9943 103.898 47.4273 104.077 47.7466 104.397C48.0659 104.716 48.2452 105.149 48.2452 105.6Z" fill="#DAEDF7" stroke="#45413C" stroke-width="1.5" stroke-linecap="round" stroke-linejoin="round"/>
<path d="M19.3086 122.709C19.3086 125.418 20.3846 128.016 22.2999 129.931C24.2151 131.846 26.8128 132.922 29.5214 132.922C32.23 132.922 34.8277 131.846 36.7429 129.931C38.6582 128.016 39.7342 125.418 39.7342 122.709C39.7342 120.001 38.6582 117.403 36.7429 115.488C34.8277 113.573 32.23 112.497 29.5214 112.497C26.8128 112.497 24.2151 113.573 22.2999 115.488C20.3846 117.403 19.3086 120.001 19.3086 122.709Z" fill="#656769"/>
<path d="M39.587 124.446C39.1946 122.06 37.9671 119.891 36.1236 118.326C34.2801 116.761 31.9405 115.902 29.5222 115.902C27.1039 115.902 24.7643 116.761 22.9208 118.326C21.0773 119.891 19.8498 122.06 19.4574 124.446C19.2168 123.052 19.2684 121.624 19.6089 120.251C19.9495 118.878 20.5715 117.591 21.4356 116.471C22.2997 115.351 23.3871 114.423 24.6287 113.745C25.8704 113.067 27.2392 112.655 28.6486 112.534C30.058 112.413 31.4771 112.586 32.816 113.043C34.1549 113.499 35.3845 114.228 36.4267 115.185C37.4689 116.141 38.301 117.304 38.8704 118.599C39.4397 119.894 39.7339 121.293 39.7342 122.707C39.7342 123.29 39.685 123.872 39.587 124.446V124.446Z" fill="#87898C"/>
<path d="M19.3086 122.709C19.3086 125.418 20.3846 128.016 22.2999 129.931C24.2151 131.846 26.8128 132.922 29.5214 132.922C32.23 132.922 34.8277 131.846 36.7429 129.931C38.6582 128.016 39.7342 125.418 39.7342 122.709C39.7342 120.001 38.6582 117.403 36.7429 115.488C34.8277 113.573 32.23 112.497 29.5214 112.497C26.8128 112.497 24.2151 113.573 22.2999 115.488C20.3846 117.403 19.3086 120.001 19.3086 122.709Z" stroke="#45413C" stroke-width="1.5" stroke-linecap="round" stroke-linejoin="round"/>
<path d="M26.1167 122.709C26.1167 123.612 26.4754 124.478 27.1139 125.116C27.7525 125.755 28.6185 126.113 29.5215 126.113C30.4245 126.113 31.2905 125.755 31.9291 125.116C32.5676 124.478 32.9263 123.612 32.9263 122.709C32.9263 121.805 32.5676 120.939 31.9291 120.301C31.2905 119.662 30.4245 119.304 29.5215 119.304C28.6185 119.304 27.7525 119.662 27.1139 120.301C26.4754 120.939 26.1167 121.805 26.1167 122.709V122.709Z" fill="white"/>
<path d="M32.4548 124.412C32.1589 123.893 31.731 123.463 31.2145 123.164C30.698 122.865 30.1114 122.708 29.5146 122.709C28.9178 122.711 28.3321 122.87 27.8171 123.172C27.302 123.474 26.8762 123.906 26.5828 124.426C26.2813 123.909 26.1215 123.321 26.1196 122.722C26.1178 122.123 26.2739 121.534 26.5723 121.015C26.8706 120.496 27.3007 120.065 27.819 119.765C28.3373 119.465 28.9256 119.307 29.5244 119.307C30.1233 119.307 30.7115 119.465 31.2299 119.765C31.7482 120.065 32.1782 120.496 32.4766 121.015C32.7749 121.534 32.9311 122.123 32.9292 122.722C32.9274 123.321 32.7676 123.909 32.466 124.426" fill="#DAEDF7"/>
<path d="M26.1167 122.709C26.1167 123.612 26.4754 124.478 27.1139 125.116C27.7525 125.755 28.6185 126.113 29.5215 126.113C30.4245 126.113 31.2905 125.755 31.9291 125.116C32.5676 124.478 32.9263 123.612 32.9263 122.709C32.9263 121.805 32.5676 120.939 31.9291 120.301C31.2905 119.662 30.4245 119.304 29.5215 119.304C28.6185 119.304 27.7525 119.662 27.1139 120.301C26.4754 120.939 26.1167 121.805 26.1167 122.709V122.709Z" stroke="#45413C" stroke-width="1.5" stroke-linecap="round" stroke-linejoin="round"/>
<path d="M72.0718 122.709C72.0718 124.051 72.3359 125.379 72.8492 126.618C73.3624 127.857 74.1147 128.983 75.063 129.931C76.0114 130.879 77.1372 131.632 78.3763 132.145C79.6154 132.658 80.9434 132.922 82.2846 132.922C83.6257 132.922 84.9538 132.658 86.1928 132.145C87.4319 131.632 88.5578 130.879 89.5061 129.931C90.4545 128.983 91.2067 127.857 91.72 126.618C92.2332 125.379 92.4974 124.051 92.4974 122.709C92.4974 121.368 92.2332 120.04 91.72 118.801C91.2067 117.562 90.4545 116.436 89.5061 115.488C88.5578 114.539 87.4319 113.787 86.1928 113.274C84.9538 112.761 83.6257 112.497 82.2846 112.497C80.9434 112.497 79.6154 112.761 78.3763 113.274C77.1372 113.787 76.0114 114.539 75.063 115.488C74.1147 116.436 73.3624 117.562 72.8492 118.801C72.3359 120.04 72.0718 121.368 72.0718 122.709V122.709Z" fill="#656769"/>
<path d="M92.3486 124.447C91.9562 122.06 90.7287 119.891 88.8852 118.326C87.0417 116.761 84.7021 115.902 82.2838 115.902C79.8655 115.902 77.5259 116.761 75.6824 118.326C73.8389 119.891 72.6114 122.06 72.219 124.447C72.1211 123.872 72.0719 123.29 72.0718 122.707C72.0719 121.293 72.3658 119.894 72.935 118.599C73.5042 117.303 74.3363 116.141 75.3784 115.184C76.4206 114.228 77.6501 113.498 78.989 113.041C80.3279 112.585 81.7471 112.412 83.1566 112.532C84.566 112.653 85.935 113.065 87.1767 113.743C88.4185 114.421 89.5059 115.349 90.3701 116.469C91.2343 117.589 91.8564 118.876 92.197 120.249C92.5376 121.622 92.5892 123.051 92.3486 124.445V124.447Z" fill="#87898C"/>
<path d="M72.0718 122.709C72.0718 124.051 72.3359 125.379 72.8492 126.618C73.3624 127.857 74.1147 128.983 75.063 129.931C76.0114 130.879 77.1372 131.632 78.3763 132.145C79.6154 132.658 80.9434 132.922 82.2846 132.922C83.6257 132.922 84.9538 132.658 86.1928 132.145C87.4319 131.632 88.5578 130.879 89.5061 129.931C90.4545 128.983 91.2067 127.857 91.72 126.618C92.2332 125.379 92.4974 124.051 92.4974 122.709C92.4974 121.368 92.2332 120.04 91.72 118.801C91.2067 117.562 90.4545 116.436 89.5061 115.488C88.5578 114.539 87.4319 113.787 86.1928 113.274C84.9538 112.761 83.6257 112.497 82.2846 112.497C80.9434 112.497 79.6154 112.761 78.3763 113.274C77.1372 113.787 76.0114 114.539 75.063 115.488C74.1147 116.436 73.3624 117.562 72.8492 118.801C72.3359 120.04 72.0718 121.368 72.0718 122.709V122.709Z" stroke="#45413C" stroke-width="1.5" stroke-linecap="round" stroke-linejoin="round"/>
<path d="M78.8804 122.709C78.8804 123.612 79.2391 124.478 79.8776 125.116C80.5161 125.755 81.3822 126.113 82.2852 126.113C83.1882 126.113 84.0542 125.755 84.6927 125.116C85.3313 124.478 85.69 123.612 85.69 122.709C85.69 121.805 85.3313 120.939 84.6927 120.301C84.0542 119.662 83.1882 119.304 82.2852 119.304C81.3822 119.304 80.5161 119.662 79.8776 120.301C79.2391 120.939 78.8804 121.805 78.8804 122.709V122.709Z" fill="white"/>
<path d="M85.2161 124.412C84.9202 123.893 84.4922 123.463 83.9757 123.164C83.4592 122.865 82.8727 122.708 82.2759 122.709C81.6791 122.711 81.0933 122.871 80.5783 123.172C80.0633 123.474 79.6374 123.906 79.3441 124.426C79.0435 123.909 78.8846 123.322 78.8833 122.723C78.882 122.125 79.0385 121.537 79.3368 121.019C79.6352 120.5 80.065 120.07 80.5828 119.77C81.1007 119.471 81.6883 119.313 82.2865 119.313C82.8847 119.313 83.4723 119.471 83.9902 119.77C84.508 120.07 84.9378 120.5 85.2362 121.019C85.5345 121.537 85.691 122.125 85.6897 122.723C85.6884 123.322 85.5295 123.909 85.2289 124.426" fill="#DAEDF7"/>
<path d="M78.8804 122.709C78.8804 123.612 79.2391 124.478 79.8776 125.116C80.5161 125.755 81.3822 126.113 82.2852 126.113C83.1882 126.113 84.0542 125.755 84.6927 125.116C85.3313 124.478 85.69 123.612 85.69 122.709C85.69 121.805 85.3313 120.939 84.6927 120.301C84.0542 119.662 83.1882 119.304 82.2852 119.304C81.3822 119.304 80.5161 119.662 79.8776 120.301C79.2391 120.939 78.8804 121.805 78.8804 122.709V122.709Z" stroke="#45413C" stroke-width="1.5" stroke-linecap="round" stroke-linejoin="round"/>
<path d="M58.4556 98.8796H76.3756C76.6468 98.8795 76.9137 98.8116 77.1521 98.6822C77.3905 98.5528 77.5927 98.3658 77.7405 98.1384C77.8884 97.911 77.977 97.6502 77.9985 97.3798C78.02 97.1094 77.9736 96.838 77.8636 96.59L73.4204 86.5932C73.02 85.6892 72.3659 84.9208 71.5375 84.3812C70.7091 83.8416 69.7418 83.554 68.7532 83.5532H58.4556V98.8796Z" fill="#00B8F0"/>
<path d="M72.2716 84.9678C71.322 84.0651 70.0617 83.5621 68.7516 83.563H58.4556V98.8798L72.2716 84.9678Z" fill="#4ACFFF"/>
<path d="M58.4556 98.8796H76.3756C76.6468 98.8795 76.9137 98.8116 77.1521 98.6822C77.3905 98.5528 77.5927 98.3658 77.7405 98.1384C77.8884 97.911 77.977 97.6502 77.9985 97.3798C78.02 97.1094 77.9736 96.838 77.8636 96.59L73.4204 86.5932C73.02 85.6892 72.3659 84.9208 71.5375 84.3812C70.7091 83.8416 69.7418 83.554 68.7532 83.5532H58.4556V98.8796Z" stroke="#45413C" stroke-width="1.5" stroke-linejoin="round"/>
<path d="M53.351 98.8796H35.431C35.1598 98.8797 34.8928 98.8119 34.6544 98.6824C34.416 98.553 34.2138 98.366 34.0661 98.1385C33.9184 97.9109 33.8299 97.6501 33.8087 97.3797C33.7875 97.1092 33.8342 96.8378 33.9446 96.59L38.3862 86.5932C38.7868 85.6894 39.4409 84.9211 40.2693 84.3815C41.0977 83.8419 42.0648 83.5542 43.0534 83.5532H53.351V98.8796Z" fill="#00B8F0"/>
<path d="M43.0527 83.563C42.0641 83.564 41.0969 83.8517 40.2685 84.3913C39.4401 84.9308 38.786 85.6991 38.3855 86.603L33.9423 96.5918C33.8323 96.8397 33.7859 97.1112 33.8074 97.3816C33.8288 97.652 33.9175 97.9127 34.0653 98.1402C34.2131 98.3676 34.4154 98.5545 34.6538 98.684C34.8921 98.8134 35.1591 98.8813 35.4303 98.8814H38.0319L53.3503 83.563H43.0527Z" fill="#4ACFFF"/>
<path d="M53.351 98.8796H35.431C35.1598 98.8797 34.8928 98.8119 34.6544 98.6824C34.416 98.553 34.2138 98.366 34.0661 98.1385C33.9184 97.9109 33.8299 97.6501 33.8087 97.3797C33.7875 97.1092 33.8342 96.8378 33.9446 96.59L38.3862 86.5932C38.7868 85.6894 39.4409 84.9211 40.2693 84.3815C41.0977 83.8419 42.0648 83.5542 43.0534 83.5532H53.351V98.8796Z" stroke="#45413C" stroke-width="1.5" stroke-linejoin="round"/>
<path d="M143.38 30L141.532 31.3456C140.759 31.9094 139.821 32.1996 138.865 32.1703L126.433 30.5607C125.875 30.4827 125.308 30.6276 124.855 30.9639C124.402 31.3002 124.099 31.8011 124.012 32.3585C123.925 32.9159 124.061 33.4851 124.39 33.9435C124.718 34.4018 125.214 34.7125 125.77 34.8086L130.618 35.5651C130.709 35.5793 130.795 35.6167 130.867 35.6736C130.94 35.7305 130.997 35.805 131.032 35.8901C131.104 36.064 131.01 36.2305 130.966 36.4142C130.547 37.7533 129.637 38.8849 128.42 39.5831L126.682 40.8522L127.316 41.7217L136.822 54.7466L138.993 53.163C142.138 50.8666 144.742 47.9093 146.622 44.4989L147.363 43.1542C147.823 42.3182 148.461 41.5933 149.231 41.0302L150.666 39.9853" fill="#D18660"/>
<path d="M143.38 30L141.532 31.3456C140.759 31.9094 139.821 32.1996 138.865 32.1703L126.433 30.5607C125.875 30.4827 125.308 30.6276 124.855 30.9639C124.402 31.3002 124.099 31.8011 124.012 32.3585C123.925 32.9159 124.061 33.4851 124.39 33.9435C124.718 34.4018 125.214 34.7125 125.77 34.8086L130.618 35.5651C130.709 35.5793 130.795 35.6167 130.867 35.6736C130.94 35.7305 130.997 35.805 131.032 35.8901C131.104 36.064 131.01 36.2305 130.966 36.4142C130.547 37.7533 129.637 38.8849 128.42 39.5831L126.682 40.8522L127.316 41.7217L136.822 54.7466L138.993 53.163C142.138 50.8666 144.742 47.9093 146.622 44.4989L147.363 43.1542C147.823 42.3182 148.461 41.5933 149.231 41.0302L150.666 39.9853" stroke="#45413C" stroke-width="1.5" stroke-linecap="round" stroke-linejoin="round"/>
<path d="M143.293 37.6573C144.783 39.7062 145.926 41.987 146.674 44.4079L147.363 43.1558C147.824 42.3199 148.462 41.5949 149.232 41.0318L150.666 39.9853L143.38 30L141.533 31.3456C140.76 31.9094 139.822 32.1996 138.866 32.1703L137.277 31.9647C139.61 33.4827 141.648 35.4115 143.293 37.6573V37.6573Z" fill="#BD704A"/>
<path d="M143.38 30L141.532 31.3456C140.759 31.9094 139.821 32.1996 138.865 32.1703L126.433 30.5607C125.875 30.4827 125.308 30.6276 124.855 30.9639C124.402 31.3002 124.099 31.8011 124.012 32.3585C123.925 32.9159 124.061 33.4851 124.39 33.9435C124.718 34.4018 125.214 34.7125 125.77 34.8086L130.618 35.5651C130.709 35.5793 130.795 35.6167 130.867 35.6736C130.94 35.7305 130.997 35.805 131.032 35.8901C131.104 36.064 131.01 36.2305 130.966 36.4142C130.547 37.7533 129.637 38.8849 128.42 39.5831L126.682 40.8522L127.316 41.7217L136.822 54.7466L138.993 53.163C142.138 50.8666 144.742 47.9093 146.622 44.4989L147.363 43.1542C147.823 42.3182 148.461 41.5933 149.231 41.0302L150.666 39.9853" stroke="#45413C" stroke-width="1.5" stroke-linecap="round" stroke-linejoin="round"/>
<path d="M138.56 53.4834L130.745 59.1866C130.517 59.3569 130.258 59.4804 129.982 59.5498C129.706 59.6193 129.419 59.6333 129.138 59.5911C128.857 59.5488 128.587 59.4512 128.343 59.3038C128.1 59.1565 127.888 58.9623 127.721 58.7326C127.553 58.5028 127.432 58.2421 127.366 57.9655C127.3 57.6888 127.289 57.4018 127.335 57.121C127.38 56.8402 127.481 56.5713 127.631 56.3297C127.781 56.0882 127.978 55.8788 128.21 55.7138L136.025 50.0098" fill="#D18660"/>
<path d="M138.56 53.4834L130.745 59.1866C130.517 59.3569 130.258 59.4804 129.982 59.5498C129.706 59.6193 129.419 59.6333 129.138 59.5911C128.857 59.5488 128.587 59.4512 128.343 59.3038C128.1 59.1565 127.888 58.9623 127.721 58.7326C127.553 58.5028 127.432 58.2421 127.366 57.9655C127.3 57.6888 127.289 57.4018 127.335 57.121C127.38 56.8402 127.481 56.5713 127.631 56.3297C127.781 56.0882 127.978 55.8788 128.21 55.7138L136.025 50.0098" stroke="#45413C" stroke-width="1.5" stroke-linecap="round"/>
<path d="M130.858 43.1327L120.969 50.3504C120.741 50.5169 120.482 50.6368 120.208 50.7033C119.933 50.7698 119.649 50.7816 119.37 50.738C119.091 50.6945 118.823 50.5964 118.582 50.4494C118.341 50.3023 118.131 50.1093 117.965 49.8812C117.798 49.6531 117.678 49.3945 117.612 49.1201C117.545 48.8456 117.533 48.5608 117.577 48.2818C117.621 48.0029 117.719 47.7352 117.866 47.4941C118.013 47.253 118.206 47.0433 118.434 46.8768L128.419 39.5884" fill="#D18660"/>
<path d="M130.858 43.1327L120.969 50.3504C120.741 50.5169 120.482 50.6368 120.208 50.7033C119.933 50.7698 119.649 50.7816 119.37 50.738C119.091 50.6945 118.823 50.5964 118.582 50.4494C118.341 50.3023 118.131 50.1093 117.965 49.8812C117.798 49.6531 117.678 49.3945 117.612 49.1201C117.545 48.8456 117.533 48.5608 117.577 48.2818C117.621 48.0029 117.719 47.7352 117.866 47.4941C118.013 47.253 118.206 47.0433 118.434 46.8768L128.419 39.5884" stroke="#45413C" stroke-width="1.5" stroke-linecap="round"/>
<path d="M136.225 49.8628L124.737 58.2474C124.509 58.4162 124.25 58.5383 123.975 58.6066C123.699 58.6749 123.413 58.688 123.133 58.6452C122.852 58.6024 122.583 58.5045 122.341 58.3572C122.098 58.2099 121.887 58.0161 121.72 57.787C121.553 57.5578 121.433 57.2979 121.367 57.0221C121.3 56.7463 121.289 56.4601 121.334 56.18C121.379 55.8999 121.479 55.6315 121.628 55.3901C121.777 55.1488 121.972 54.9393 122.203 54.7738L133.056 46.8516" fill="#D18660"/>
<path d="M136.225 49.8628L124.737 58.2474C124.509 58.4162 124.25 58.5383 123.975 58.6066C123.699 58.6749 123.413 58.688 123.133 58.6452C122.852 58.6024 122.583 58.5045 122.341 58.3572C122.098 58.2099 121.887 58.0161 121.72 57.787C121.553 57.5578 121.433 57.2979 121.367 57.0221C121.3 56.7463 121.289 56.4601 121.334 56.18C121.379 55.8999 121.479 55.6315 121.628 55.3901C121.777 55.1488 121.972 54.9393 122.203 54.7738L133.056 46.8516" stroke="#45413C" stroke-width="1.5" stroke-linecap="round"/>
<path d="M133.054 46.8505L120.899 55.721C120.438 56.0572 119.863 56.1966 119.299 56.1086C118.736 56.0206 118.231 55.7124 117.894 55.2518C117.558 54.7911 117.419 54.2158 117.507 53.6524C117.595 53.089 117.903 52.5836 118.364 52.2474L130.826 43.1543" fill="#D18660"/>
<path d="M133.054 46.8505L120.899 55.721C120.438 56.0572 119.863 56.1966 119.299 56.1086C118.736 56.0206 118.231 55.7124 117.894 55.2518C117.558 54.7911 117.419 54.2158 117.507 53.6524C117.595 53.089 117.903 52.5836 118.364 52.2474L130.826 43.1543" stroke="#45413C" stroke-width="1.5" stroke-linecap="round"/>
<path d="M137.198 50.4841C135.425 49.4815 133.902 48.093 132.739 46.4214C131.634 44.9575 130.822 43.2946 130.346 41.5234" fill="#D18660"/>
<path d="M137.198 50.4841C135.425 49.4815 133.902 48.093 132.739 46.4214C131.634 44.9575 130.822 43.2946 130.346 41.5234" stroke="#45413C" stroke-width="1.5" stroke-linecap="round" stroke-linejoin="round"/>
<path d="M111.466 69.6249C112.458 68.9748 111.638 66.0326 110.986 65.0397L104.169 60.3709C103.519 59.3779 103.174 60.5967 102.181 61.2484C101.189 61.9001 98.1627 64.9316 98.8135 65.9246L103.445 72.7702C104.093 73.7631 110.473 70.2765 111.466 69.6249Z" fill="#BD704A" stroke="#45413C" stroke-width="1.5"/>
<path d="M106.063 78.8788C106.342 78.9266 106.627 78.9191 106.902 78.8568C107.177 78.7944 107.438 78.6783 107.668 78.5153C107.899 78.3522 108.095 78.1453 108.245 77.9064C108.396 77.6675 108.498 77.4013 108.546 77.1229L109.726 70.2359C109.822 69.6738 109.692 69.0966 109.362 68.6311C109.033 68.1655 108.532 67.8499 107.97 67.7536C107.408 67.6572 106.831 67.7881 106.365 68.1174C105.9 68.4467 105.584 68.9474 105.488 69.5095L104.307 76.3925C104.259 76.671 104.266 76.9564 104.329 77.2322C104.391 77.5079 104.507 77.7687 104.67 77.9997C104.833 78.2306 105.04 78.4271 105.279 78.578C105.518 78.7288 105.785 78.8311 106.063 78.8788V78.8788Z" fill="#BD704A" stroke="#45413C" stroke-width="1.5"/>
<path d="M109.934 77.6139C110.216 77.6038 110.494 77.5382 110.751 77.4207C111.008 77.3033 111.239 77.1363 111.431 76.9293C111.624 76.7224 111.773 76.4796 111.872 76.2147C111.97 75.9499 112.016 75.6682 112.005 75.3859L111.756 68.4029C111.746 68.1208 111.681 67.8433 111.563 67.5865C111.446 67.3296 111.279 67.0984 111.073 66.906C110.655 66.5175 110.101 66.3106 109.531 66.331C108.961 66.3513 108.423 66.5972 108.034 67.0146C107.645 67.432 107.439 67.9866 107.459 68.5565L107.708 75.5395C107.718 75.8218 107.783 76.0996 107.901 76.3567C108.018 76.6138 108.184 76.8453 108.391 77.038C108.598 77.2306 108.84 77.3807 109.105 77.4795C109.37 77.5783 109.651 77.624 109.934 77.6139Z" fill="#BD704A" stroke="#45413C" stroke-width="1.5"/>
<path d="M115.57 75.5841C116.046 75.2712 116.379 74.7818 116.495 74.2235C116.611 73.6653 116.501 73.0838 116.188 72.607L111.557 65.7621C111.406 65.5172 111.208 65.3049 110.974 65.1379C110.74 64.9709 110.474 64.8526 110.194 64.7899C109.913 64.7273 109.623 64.7216 109.34 64.7731C109.057 64.8247 108.787 64.9325 108.546 65.0902C108.306 65.2478 108.1 65.4521 107.939 65.691C107.779 65.9299 107.669 66.1984 107.614 66.4808C107.56 66.7632 107.562 67.0536 107.622 67.3349C107.682 67.6162 107.797 67.8827 107.962 68.1185L112.593 74.9641C112.906 75.441 113.395 75.7742 113.953 75.8904C114.511 76.0067 115.093 75.8965 115.57 75.5841Z" fill="#BD704A" stroke="#45413C" stroke-width="1.5"/>
<path d="M105.533 65.9414L104.065 64.8965Z" fill="#FFCEBF"/>
<path d="M105.533 65.9414L104.065 64.8965" stroke="#45413C" stroke-width="1.5" stroke-linecap="round" stroke-linejoin="round"/>
<path d="M101.177 62.9152L117.088 42.6071C117.51 42.0683 118.129 41.7193 118.808 41.6368C119.488 41.5543 120.172 41.7451 120.711 42.1672L129.85 49.3277C130.389 49.7497 130.738 50.3683 130.82 51.0475C130.903 51.7268 130.712 52.4109 130.29 52.9495L114.379 73.2577C113.957 73.7962 113.338 74.1451 112.659 74.2276C111.98 74.3101 111.296 74.1193 110.757 73.6974L101.617 66.5364C101.35 66.3275 101.127 66.0682 100.961 65.7732C100.795 65.4782 100.688 65.1532 100.647 64.817C100.606 64.4807 100.632 64.1397 100.723 63.8134C100.814 63.4871 100.968 63.1819 101.177 62.9152V62.9152Z" fill="#6DD627"/>
<path d="M101.184 62.9162L117.092 42.6077C117.514 42.0692 118.132 41.7204 118.811 41.6379C119.49 41.5555 120.174 41.7462 120.713 42.1681L122.237 43.3617C121.97 43.1527 121.665 42.9983 121.338 42.9072C121.012 42.8162 120.671 42.7903 120.334 42.8312C119.998 42.872 119.673 42.9787 119.378 43.1451C119.083 43.3116 118.823 43.5345 118.614 43.8013L102.703 64.1098C102.494 64.3765 102.34 64.6818 102.249 65.0082C102.158 65.3346 102.132 65.6757 102.173 66.0121C102.213 66.3484 102.32 66.6735 102.487 66.9686C102.653 67.2637 102.876 67.5232 103.143 67.7321L101.619 66.5385C101.081 66.1159 100.733 65.4969 100.651 64.8176C100.57 64.1383 100.761 63.4543 101.184 62.9162V62.9162Z" fill="#9CEB60"/>
<path d="M101.177 62.9152L117.088 42.6071C117.51 42.0683 118.129 41.7193 118.808 41.6368C119.488 41.5543 120.172 41.7451 120.711 42.1672L129.85 49.3277C130.389 49.7497 130.738 50.3683 130.82 51.0475C130.903 51.7268 130.712 52.4109 130.29 52.9495L114.379 73.2577C113.957 73.7962 113.338 74.1451 112.659 74.2276C111.98 74.3101 111.296 74.1193 110.757 73.6974L101.617 66.5364C101.35 66.3275 101.127 66.0682 100.961 65.7732C100.795 65.4782 100.688 65.1532 100.647 64.817C100.606 64.4807 100.632 64.1397 100.723 63.8134C100.814 63.4871 100.968 63.1819 101.177 62.9152V62.9152Z" stroke="#45413C" stroke-width="1.5" stroke-linecap="round" stroke-linejoin="round"/>
<path d="M110.208 69.1709L106.145 65.989C106.567 65.4502 106.758 64.7659 106.675 64.0865C106.593 63.4071 106.244 62.7882 105.706 62.3659L117.64 47.1349C117.907 47.3439 118.212 47.4984 118.538 47.5894C118.865 47.6804 119.206 47.7063 119.542 47.6654C119.879 47.6246 120.204 47.5179 120.499 47.3515C120.794 47.185 121.053 46.9621 121.262 46.6953L125.325 49.878C124.903 50.4167 124.713 51.1008 124.795 51.78C124.878 52.4591 125.227 53.0776 125.765 53.4995L113.83 68.7313C113.563 68.5223 113.258 68.3679 112.932 68.2768C112.605 68.1858 112.264 68.16 111.928 68.2008C111.592 68.2416 111.267 68.3483 110.971 68.5147C110.676 68.6812 110.417 68.9042 110.208 69.1709V69.1709Z" fill="#E4FFD1" stroke="#45413C" stroke-width="1.5" stroke-linecap="round" stroke-linejoin="round"/>
<path d="M114.144 59.9642C114.545 60.2788 115.031 60.4673 115.54 60.5058C116.049 60.5443 116.558 60.431 117.002 60.1804C117.446 59.9297 117.806 59.553 118.037 59.0977C118.267 58.6424 118.357 58.129 118.296 57.6225C118.234 57.116 118.024 56.6391 117.691 56.2521C117.359 55.8652 116.919 55.5854 116.428 55.4484C115.936 55.3113 115.415 55.323 114.93 55.4821C114.446 55.6411 114.019 55.9403 113.704 56.3419C113.495 56.6086 113.341 56.9139 113.25 57.2402C113.159 57.5666 113.133 57.9077 113.174 58.2441C113.214 58.5805 113.321 58.9055 113.488 59.2007C113.654 59.4958 113.877 59.7553 114.144 59.9642V59.9642Z" fill="#9CEB60" stroke="#45413C" stroke-width="1.5" stroke-linecap="round" stroke-linejoin="round"/>
<path d="M96.8338 87.1578L86.6665 80.2748L86.6746 80.2561C89.4015 66.486 92.5956 55.897 112.652 52.928L113.795 52.7549C114.355 52.6799 114.921 52.8277 115.372 53.1664C115.824 53.5051 116.124 54.0077 116.208 54.5656C116.292 55.1236 116.154 55.6923 115.823 56.1492C115.491 56.606 114.994 56.9144 114.437 57.0078L113.294 57.18C108.236 57.9446 104.388 59.4949 101.861 63.9176C97.9819 70.5625 102.755 69.4071 104.581 67.2295L108.67 62.7175C109.048 62.2902 109.58 62.0305 110.149 61.9955C110.718 61.9604 111.278 62.1529 111.705 62.5306C112.132 62.9082 112.392 63.4401 112.427 64.0093C112.462 64.5784 112.269 65.1382 111.892 65.5654C105.806 75.2346 105.814 77.5008 102.039 80.1261C99.2218 82.0859 98.9529 82.4191 96.8338 87.1578Z" fill="#D18660"/>
<path d="M115.213 54.8281L116.248 54.6656C116.248 54.6298 116.248 54.5949 116.244 54.5592C116.158 53.9955 115.852 53.4889 115.393 53.1505C114.934 52.812 114.36 52.6693 113.796 52.7537L112.653 52.9268C92.5962 55.8974 89.4022 66.4864 86.6753 80.2605L86.6704 80.2735L89.3688 81.4883C92.09 67.9173 95.4799 57.7459 115.213 54.8281Z" fill="#E09F7E"/>
<path d="M86.6665 80.2748L86.6746 80.2561C89.4015 66.486 92.5956 55.897 112.652 52.928L113.795 52.7549C114.355 52.6799 114.921 52.8277 115.372 53.1664C115.824 53.5051 116.124 54.0077 116.208 54.5656C116.292 55.1236 116.154 55.6923 115.823 56.1492C115.491 56.606 114.994 56.9144 114.437 57.0078L113.294 57.18C108.236 57.9446 104.388 59.4949 101.861 63.9176C97.9819 70.5625 102.755 69.4071 104.581 67.2295L108.67 62.7175C109.048 62.2902 109.58 62.0305 110.149 61.9955C110.718 61.9604 111.278 62.1529 111.705 62.5306C112.132 62.9082 112.392 63.4401 112.427 64.0093C112.462 64.5784 112.269 65.1382 111.892 65.5654C105.806 75.2346 105.814 77.5008 102.039 80.1261C99.2218 82.0859 98.9513 82.4191 96.8338 87.1578" stroke="#45413C" stroke-width="1.5" stroke-linecap="round" stroke-linejoin="round"/>
</svg>
