<svg width="120" height="121" fill="none" xmlns="http://www.w3.org/2000/svg">
  <path d="M.64 51.84a51.2002 51.2002 0 0051.2 51.2 51.2003 51.2003 0 0036.2039-14.9961 51.2003 51.2003 0 000-72.4078 51.2002 51.2002 0 00-72.4078 0A51.2002 51.2002 0 00.6401 51.84v0z" fill="#C7F0FF" stroke="#C7F0FF"/>
  <path opacity=".15" d="M46.9595 117.498c0 .678 1.7953 1.328 4.9911 1.807 3.1957.479 7.5301.749 12.0495.749 4.5195 0 8.8538-.27 12.0496-.749 3.1957-.479 4.9911-1.129 4.9911-1.807 0-.678-1.7954-1.329-4.9911-1.808-3.1958-.479-7.5301-.749-12.0496-.749-4.5194 0-8.8538.27-12.0495.749-3.1958.479-4.9911 1.13-4.9911 1.808z" fill="#45413C"/>
  <path d="M37.7881 19.5136a1.7048 1.7048 0 01-.9229 2.2272l-2.5191 1.0432a1.7043 1.7043 0 01-1.3041-.0003 1.7043 1.7043 0 01-.9218-.9226l-1.8265-4.407a1.7053 1.7053 0 01.9228-2.2272l2.5191-1.0432a1.7043 1.7043 0 011.3073-.0036 1.7044 1.7044 0 01.925.9239l1.8202 4.4096zM25.8854 27.0951a1.7046 1.7046 0 01.4994 1.2051 1.704 1.704 0 01-.4994 1.2051l-1.9277 1.9277a1.704 1.704 0 01-2.4102 0l-3.3716-3.3741a1.7046 1.7046 0 01-.4994-1.2051 1.704 1.704 0 01.4994-1.2051l1.9277-1.9277a1.7016 1.7016 0 011.8564-.3695c.2067.0856.3945.2112.5526.3695l3.3728 3.3741zM17.1199 38.1825a1.7026 1.7026 0 011.0518 1.5749 1.7022 1.7022 0 01-.1302.6523l-1.0432 2.519a1.7034 1.7034 0 01-2.2259.9216l-4.4045-1.8253a1.7028 1.7028 0 01-.9223-.9226 1.7038 1.7038 0 01.0008-1.3046l1.0431-2.5177a1.7038 1.7038 0 012.2221-.928l4.4083 1.8304zM90.2129 19.5135a1.704 1.704 0 00.9216 2.2272l2.5191 1.0432a1.701 1.701 0 001.3043.0002 1.7022 1.7022 0 00.9216-.923l1.8266-4.4071a1.7048 1.7048 0 00-.9229-2.2272l-2.5191-1.0432a1.7023 1.7023 0 00-1.3041.0004 1.704 1.704 0 00-.9218.9225l-1.8253 4.407zM102.115 27.0949a1.6998 1.6998 0 00-.37.5529c-.086.2068-.13.4284-.13.6523 0 .2238.044.4454.13.6522.086.2068.211.3947.37.5529l1.927 1.9277c.159.1583.346.2839.553.3696a1.7063 1.7063 0 001.305 0c.207-.0857.394-.2113.553-.3696l3.371-3.3741c.158-.1582.284-.3461.37-.5529a1.717 1.717 0 00.13-.6522 1.717 1.717 0 00-.13-.6523 1.7157 1.7157 0 00-.37-.5529l-1.92-1.9276a1.7025 1.7025 0 00-2.41 0l-3.379 3.374zM110.88 38.1824a1.7072 1.7072 0 00-.922.9228 1.704 1.704 0 000 1.3044l1.044 2.519c.173.4174.504.7489.922.9218.417.1728.886.1727 1.304-.0002l4.404-1.8253a1.7042 1.7042 0 00.923-2.2272l-1.043-2.519a1.7067 1.7067 0 00-.923-.9219 1.7065 1.7065 0 00-1.305.0003l-4.404 1.8253z" fill="#fff" stroke="#45413C" stroke-linecap="round" stroke-linejoin="round"/>
  <path d="M77.9356 38.4718c-1.257-.562-1.8855-2.6535-2.0045-4.1178V22.5281H52.0744v11.8323c-.1203 1.4643-.7488 3.5558-2.0057 4.1178a.8497.8497 0 00-.512 1.024 2.3797 2.3797 0 002.3974 1.7664h24.096a2.3786 2.3786 0 002.3974-1.7664.8497.8497 0 00-.5119-1.0304v0z" fill="#FFDF3D" stroke="#45413C" stroke-linecap="round" stroke-linejoin="round"/>
  <path d="M69.9659 38.7443H58.0376l-25.5603 47.031c22.0838-5.0969 13.3466 9.111 31.5226 9.2006 18.176-.0896 9.4412-14.2975 31.5238-9.2006l-25.5578-47.031z" fill="#FF6242"/>
  <path d="M69.9664 38.7443H58.0381L43.1875 66.0697a12.2038 12.2038 0 008.7155-1.367l1.6346 27.4176c2.1555 1.5987 5.1622 2.8288 10.4627 2.8556 5.3018-.0268 8.3085-1.2569 10.464-2.8556l1.6346-27.4176a12.2038 12.2038 0 008.7155 1.367l-14.848-27.3254z" fill="#E04122"/>
  <path d="M69.9659 38.7443H58.0376l-25.5603 47.031c22.0838-5.0969 13.3466 9.111 31.5226 9.2006 18.176-.0896 9.4412-14.2975 31.5238-9.2006l-25.5578-47.031z" stroke="#45413C" stroke-linecap="round" stroke-linejoin="round"/>
  <path d="M54.9707 66.3488l3.0669 36.4662h11.9283l3.0669-36.4662H54.9707z" fill="#FFCEBF"/>
  <path d="M71.4417 85.2633l1.5911-18.9145H54.9707l1.591 18.9145h14.88z" fill="#FFB59E"/>
  <path d="M54.9707 66.3488l3.0669 36.4662h11.9283l3.0669-36.4662H54.9707z" stroke="#45413C" stroke-linecap="round" stroke-linejoin="round"/>
  <path d="M55.0054 69.9277l.5158 9.3722h16.9613l.5158-9.3722H55.0054z" fill="#656769" stroke="#45413C" stroke-linecap="round" stroke-linejoin="round"/>
  <path d="M64.0027 75.04v25.56" stroke="#45413C" stroke-linecap="round" stroke-linejoin="round"/>
  <path d="M53.7781 57.9994l.8525 11.9283h18.743l.8525-11.9283h-20.448z" fill="#BDBEC0" stroke="#45413C" stroke-linecap="round" stroke-linejoin="round"/>
  <path d="M58.7507 66.5189h10.5024M61.1877 63.1117h5.6282" stroke="#45413C" stroke-linecap="round" stroke-linejoin="round"/>
  <path d="M35.5443 47.6045h1.024a6.1353 6.1353 0 016.1351 6.135h-7.1591a3.0717 3.0717 0 01-2.9061-3.0675 3.072 3.072 0 012.9061-3.0675v0zM92.4593 47.6045h-1.024a6.135 6.135 0 00-6.135 6.135h7.1578a3.072 3.072 0 000-6.135h.0012z" fill="#FFCEBF" stroke="#45413C" stroke-linecap="round" stroke-linejoin="round"/>
  <path d="M85.3019 53.7396a3.38 3.38 0 01-3.072 3.4073 2.9278 2.9278 0 01-2.1023-.9193 2.9288 2.9288 0 01-.7943-2.1527v-2.048a15.337 15.337 0 00-30.6726 0v2.048a2.9291 2.9291 0 01-1.7518 2.8268 2.927 2.927 0 01-1.1449.2452 3.3806 3.3806 0 01-3.072-3.4073h-6.1248a9.509 9.509 0 009.2019 9.5424 9.216 9.216 0 008.009-4.8794l-1.5334 12.8935c4.1574-.0218 9.8483-9.0125 11.758-13.2442 1.9085 4.2317 7.5994 13.2224 11.7568 13.2442l-1.536-12.8884a9.216 9.216 0 008.009 4.8794 9.5092 9.5092 0 009.2019-9.5424l-6.1325-.0051z" fill="#FF6242"/>
  <path d="M48.9471 53.7395A15.3303 15.3303 0 0164.0018 41.304a15.3302 15.3302 0 0115.0548 12.4355h.2816v-1.705a15.3373 15.3373 0 00-15.3364-15.1969 15.337 15.337 0 00-15.3363 15.1969v1.705h.2816z" fill="#FF866E"/>
  <path d="M85.3019 53.7396a3.38 3.38 0 01-3.072 3.4073 2.9278 2.9278 0 01-2.1023-.9193 2.9288 2.9288 0 01-.7943-2.1527v-2.048a15.337 15.337 0 00-30.6726 0v2.048a2.9291 2.9291 0 01-1.7518 2.8268 2.927 2.927 0 01-1.1449.2452 3.3806 3.3806 0 01-3.072-3.4073h-6.1248a9.509 9.509 0 009.2019 9.5424 9.216 9.216 0 008.009-4.8794l-1.5334 12.8935c4.1574-.0218 9.8483-9.0125 11.758-13.2442 1.9085 4.2317 7.5994 13.2224 11.7568 13.2442l-1.536-12.8884a9.216 9.216 0 008.009 4.8794 9.5092 9.5092 0 009.2019-9.5424l-6.1325-.0051z" stroke="#45413C" stroke-linecap="round" stroke-linejoin="round"/>
  <path d="M60.5936 101.964c-1.4246 0-2.6419-1.446-3.1513-3.4949a8.8978 8.8978 0 00-.256 2.1309c0 3.106 1.527 5.623 3.4086 5.623s3.4048-2.517 3.4048-5.623a8.827 8.827 0 00-.256-2.1309c-.512 2.0489-1.7254 3.4949-3.1501 3.4949z" fill="#525252" stroke="#45413C" stroke-linecap="round" stroke-linejoin="round"/>
  <path d="M67.4099 101.964c1.4247 0 2.6419-1.446 3.1514-3.4949a8.832 8.832 0 01.256 2.1309c0 3.106-1.5271 5.623-3.4087 5.623-1.8816 0-3.4086-2.517-3.4086-5.623a8.903 8.903 0 01.256-2.1309c.512 2.0489 1.7293 3.4949 3.1539 3.4949z" fill="#525252" stroke="#45413C" stroke-linecap="round" stroke-linejoin="round"/>
  <path d="M53.7781 58.4025v-6.368M74.2258 58.4025v-6.368" stroke="#45413C" stroke-linecap="round" stroke-linejoin="round"/>
  <path d="M73.5718 40.137L67.977 57.7088a1.7038 1.7038 0 01-2.2887 1.0522L64 58.0467l6.4141-19.8784a15.657 15.657 0 013.1577 1.9687v0z" fill="#87898C" stroke="#45413C" stroke-linecap="round" stroke-linejoin="round"/>
  <path d="M64 36.7015a15.471 15.471 0 00-6.4141 1.4669L64 58.0468l6.4141-19.8784A15.4807 15.4807 0 0064 36.7015v0z" fill="#fff" stroke="#45413C" stroke-linecap="round" stroke-linejoin="round"/>
  <path d="M54.4321 40.137l5.6 17.5718a1.7038 1.7038 0 002.2887 1.0522l1.6793-.7143-6.4141-19.8784a15.6327 15.6327 0 00-3.1539 1.9687z" fill="#87898C" stroke="#45413C" stroke-linecap="round" stroke-linejoin="round"/>
  <path d="M64.0027 40.1075v17.9392" stroke="#45413C" stroke-linecap="round" stroke-linejoin="round"/>
  <path d="M67.3192 37.1226l-3.3165 3.4445-3.3255-3.4445.0077-5.1072h6.6419l-.0076 5.1072z" fill="#FFCEBF" stroke="#45413C" stroke-linecap="round" stroke-linejoin="round"/>
  <path d="M64 39.3844a9.9846 9.9846 0 014.759-2.871 1.7081 1.7081 0 011.4229.3444 1.7084 1.7084 0 01.6341 1.3196v2.4051a1.704 1.704 0 01-.6326 1.3213 1.7041 1.7041 0 01-1.4244.3427A9.9655 9.9655 0 0164 39.3844v0z" fill="#BF8DF2" stroke="#45413C" stroke-linejoin="round"/>
  <path d="M64.0001 39.3844a9.983 9.983 0 00-4.7603-2.871 1.7081 1.7081 0 00-1.4229.3444 1.709 1.709 0 00-.634 1.3196v2.4051a1.7053 1.7053 0 00.6326 1.3213 1.7048 1.7048 0 001.4243.3427 9.9752 9.9752 0 004.7603-2.8621v0z" fill="#BF8DF2" stroke="#45413C" stroke-linejoin="round"/>
  <path d="M62.2988 39.0425a1.7036 1.7036 0 103.4073 0 1.7036 1.7036 0 00-3.4073 0v0z" fill="#BF8DF2" stroke="#45413C" stroke-linejoin="round"/>
  <path d="M75.9309 24.987a2.1009 2.1009 0 00-1.705-2.048v-1.3606a10.2246 10.2246 0 00-20.448 0v1.3645a2.0877 2.0877 0 00.2151 4.1318 10.2248 10.2248 0 0016.46 5.8473 10.2258 10.2258 0 003.5592-5.8473 2.111 2.111 0 001.9187-2.0877z" fill="#FFCEBF" stroke="#45413C" stroke-linecap="round" stroke-linejoin="round"/>
  <path d="M57.1868 26.2644c0 .3388.1346.6637.3741.9033a1.2778 1.2778 0 001.8066 0 1.2773 1.2773 0 000-1.8066 1.2774 1.2774 0 00-2.1807.9033zM68.2625 26.2644a1.2773 1.2773 0 102.5548 0 1.2778 1.2778 0 00-1.2774-1.2775 1.2774 1.2774 0 00-1.2774 1.2775z" fill="#FFB59E"/>
  <path d="M66.5601 29.2468a4.2584 4.2584 0 01-5.1123 0" stroke="#45413C" stroke-linecap="round" stroke-linejoin="round"/>
  <path d="M58.8901 22.8569a1.2776 1.2776 0 102.4577-.4888 1.2777 1.2777 0 00-1.1802-.7886 1.2775 1.2775 0 00-1.2775 1.2774zM66.5586 22.8569a1.2775 1.2775 0 102.555.0003 1.2775 1.2775 0 00-2.555-.0003z" fill="#45413C"/>
  <path d="M64.0001 7.9463A12.452 12.452 0 0052.0718 20.37v22.51a.8468.8468 0 00.2964.6499.8477.8477 0 00.6879.1924 3.4558 3.4558 0 003.2755-3.305V27.264a7.4239 7.4239 0 012.8468-5.8956c2.7942-2.1504 3.7504-3.7568 4.8217-7.3677a12.5438 12.5438 0 0011.9283 8.6157V20.37A12.4528 12.4528 0 0064.0001 7.9463z" fill="#FFDF3D"/>
  <path d="M64.0001 7.9463a12.452 12.452 0 00-11.9283 12.4249v3.4983a12.453 12.453 0 0111.9283-12.425 12.4376 12.4376 0 0111.8618 11.1706h.0665v-2.2439a12.4534 12.4534 0 00-11.9283-12.425z" fill="#FFEF9E"/>
  <path d="M64.0001 7.9463A12.452 12.452 0 0052.0718 20.37v22.51a.8468.8468 0 00.2964.6499.8477.8477 0 00.6879.1924 3.4558 3.4558 0 003.2755-3.305V27.264a7.4239 7.4239 0 012.8468-5.8956c2.7942-2.1504 3.7504-3.7568 4.8217-7.3677a12.5438 12.5438 0 0011.9283 8.6157V20.37A12.4528 12.4528 0 0064.0001 7.9463v0z" stroke="#45413C" stroke-linecap="round" stroke-linejoin="round"/>
  <path d="M38.0211 82.2147a2.1565 2.1565 0 01.4597 1.5847 2.1559 2.1559 0 01-.7958 1.4455L21.6894 98.0438a2.156 2.156 0 01-3.0295-.336L.4721 74.9797a2.1554 2.1554 0 01.336-3.0287l15.9951-12.8018a2.1552 2.1552 0 011.5857-.4604c.2817.0312.5544.1176.8025.2543.2482.1366.4671.3209.644.5422l18.1857 22.7294z" fill="#fff"/>
  <path d="M23.8772 64.5366l-13.123 4.2741a2.1561 2.1561 0 00-1.2546 1.0721 2.156 2.156 0 00-.1285 1.6453l8.001 24.5685 1.2892 1.6111a2.156 2.156 0 003.0294.3361l15.9943-12.799a2.1548 2.1548 0 00.7957-1.4454 2.1552 2.1552 0 00-.4597-1.5847L23.8772 64.5366z" fill="#C7F0FF"/>
  <path d="M38.0211 82.2147a2.1565 2.1565 0 01.4597 1.5847 2.1559 2.1559 0 01-.7958 1.4455L21.6894 98.0438a2.156 2.156 0 01-3.0295-.336L.4721 74.9797a2.1554 2.1554 0 01.336-3.0287l15.9951-12.8018a2.1552 2.1552 0 011.5857-.4604c.2817.0312.5544.1176.8025.2543.2482.1366.4671.3209.644.5422l18.1857 22.7294z" stroke="#45413C" stroke-width=".75" stroke-linecap="round" stroke-linejoin="round"/>
  <path d="M3.6713 73.7978l2.5246-2.0206 1.2637 5.8937" stroke="#45413C" stroke-width=".75" stroke-linecap="round" stroke-linejoin="round"/>
  <path d="M43.6592 88.4027a2.156 2.156 0 01-1.3823 2.7174l-19.4798 6.3433a2.1552 2.1552 0 01-2.7167-1.3823l-9.0141-27.6813a2.1564 2.1564 0 011.3824-2.7174l19.4783-6.3426a2.1567 2.1567 0 012.7181 1.3823l9.0141 27.6806z" fill="#fff"/>
  <path d="M22.7969 97.4635l4.6186-1.5044V65.6606h-5.7524a1.6174 1.6174 0 00-1.6167 1.6175V95.976l.0339.1052a2.1552 2.1552 0 002.7166 1.3823z" fill="#C7F0FF"/>
  <path d="M43.6592 88.4027a2.156 2.156 0 01-1.3823 2.7174l-19.4798 6.3433a2.1552 2.1552 0 01-2.7167-1.3823l-9.0141-27.6813a2.1564 2.1564 0 011.3824-2.7174l19.4783-6.3426a2.1567 2.1567 0 012.7181 1.3823l9.0141 27.6806z" stroke="#45413C" stroke-width=".75" stroke-linecap="round" stroke-linejoin="round"/>
  <path d="M13.99 67.9368l2.3072-.7505a1.348 1.348 0 011.599 1.8892 1.348 1.348 0 01-.7652.6736l-1.0244.3325a1.3507 1.3507 0 00-.8666 1.7018 1.35 1.35 0 001.7017.8666l2.3058-.7554" stroke="#45413C" stroke-width=".75" stroke-linecap="round" stroke-linejoin="round"/>
  <path d="M24.3587 64.0411h20.4851a2.1561 2.1561 0 012.1561 2.1561v29.1103a2.1554 2.1554 0 01-1.331 1.9919 2.1547 2.1547 0 01-.8251.1642H24.3594a2.1561 2.1561 0 01-1.525-.6318 2.1556 2.1556 0 01-.6318-1.525V66.1972a2.1555 2.1555 0 01.6315-1.5246 2.156 2.156 0 011.5246-.6315z" fill="#fff"/>
  <path d="M24.3587 64.0411h20.4851a2.1561 2.1561 0 012.1561 2.1561v29.1103a2.1554 2.1554 0 01-1.331 1.9919 2.1547 2.1547 0 01-.8251.1642H24.3594a2.1561 2.1561 0 01-1.525-.6318 2.1556 2.1556 0 01-.6318-1.525V66.1972a2.1555 2.1555 0 01.6315-1.5246 2.156 2.156 0 011.5246-.6315v0z" stroke="#45413C" stroke-width=".75" stroke-linecap="round" stroke-linejoin="round"/>
  <path d="M28.6718 71.5909l-1.6711-5.0125a.512.512 0 00-.7844-.253.5114.5114 0 00-.1863.253l-1.6711 5.0125M24.7183 70.5101h3.5956M40.5308 89.9164l1.671 5.0125a.5122.5122 0 00.4854.3494.5118.5118 0 00.4854-.3494l1.6711-5.0125M44.4845 90.9945h-3.5956" stroke="#45413C" stroke-width=".75" stroke-linecap="round" stroke-linejoin="round"/>
  <path d="M39.8007 75.1047a2.9716 2.9716 0 00-2.2952-.531 3.0646 3.0646 0 00-1.7509.9687l-1.1536 1.2708-1.1543-1.2708a3.064 3.064 0 00-1.7508-.9687 2.9736 2.9736 0 00-2.2952.531 3.595 3.595 0 00-1.4332 2.9319 4.614 4.614 0 001.4734 3.422l5.1601 4.6433 5.1601-4.6433a4.6163 4.6163 0 001.4727-3.422 3.5919 3.5919 0 00-1.4331-2.9319z" fill="#FF6242"/>
  <path d="M39.8007 75.1047a2.9716 2.9716 0 00-2.2952-.531 3.0646 3.0646 0 00-1.7509.9687l-1.1536 1.2708-1.1543-1.2708a3.064 3.064 0 00-1.7508-.9687 2.9736 2.9736 0 00-2.2952.531 3.595 3.595 0 00-1.4332 2.9319 4.614 4.614 0 001.4734 3.422l2.3439 2.1088 8.2475-8.246a3.0397 3.0397 0 00-.2316-.2167z" fill="#FF866E"/>
  <path d="M39.8007 75.1047a2.9716 2.9716 0 00-2.2952-.531 3.0646 3.0646 0 00-1.7509.9687l-1.1536 1.2708-1.1543-1.2708a3.064 3.064 0 00-1.7508-.9687 2.9736 2.9736 0 00-2.2952.531 3.595 3.595 0 00-1.4332 2.9319 4.614 4.614 0 001.4734 3.422l5.1601 4.6433 5.1601-4.6433a4.6163 4.6163 0 001.4727-3.422 3.5919 3.5919 0 00-1.4331-2.9319z" stroke="#45413C" stroke-width=".75" stroke-linecap="round" stroke-linejoin="round"/>
</svg>
