<svg width="128" height="128" fill="none" xmlns="http://www.w3.org/2000/svg">
  <path d="M11.2844 64a51.2003 51.2003 0 0 0 14.9962 36.204A51.199 51.199 0 0 0 62.4844 115.2 51.1994 51.1994 0 0 0 113.684 64c0-13.579-5.394-26.602-14.9957-36.2038A51.2 51.2 0 0 0 11.2844 64Z" fill="#C7F0FF"/>
  <path d="M18.9965 37.5387a1.4783 1.4783 0 0 1 .9932-1.8394l53.8266-16.087a1.4786 1.4786 0 0 1 1.8394.9933L91.424 73.3659 34.7635 90.299l-15.767-52.7603Z" fill="#E0E0E0" stroke="#45413C"/>
  <path d="m28.4934 26.9001 58.9475-4.7179 5.3984 67.4489-58.9475 4.718-5.3984-67.449Z" fill="#fff"/>
  <path d="m37.9253 33.5623 41.2632-3.3026.5898 7.3684-41.2633 3.3026-.5897-7.3684ZM38.8688 45.3508l14.7368-1.1795.3539 4.4211-14.7369 1.1795-.3538-4.4211ZM40.5211 65.9827l14.7369-1.1795.3538 4.421-14.7368 1.1795-.3539-4.421Z" fill="#B8ECFF" stroke="#45413C"/>
  <path d="m92.3673 83.7375.3546 4.4212a1.482 1.482 0 0 1-1.3555 1.591l-56 4.48a1.4834 1.4834 0 0 1-1.5923-1.3568l-.3533-4.4211a1.4823 1.4823 0 0 0 1.591 1.3568l56-4.48a1.4808 1.4808 0 0 0 1.3555-1.5911Z" fill="#FFF5EB"/>
  <path d="m28.4934 26.9001 58.9475-4.7179 5.3984 67.4489-58.9475 4.718-5.3984-67.449Z" stroke="#45413C" stroke-linecap="round" stroke-linejoin="round"/>
  <path d="m39.5771 54.1936 44.2107-3.5385.5897 7.3685-44.2106 3.5384-.5898-7.3684ZM47.4175 59.4983l.1177 1.4733M54.7853 58.9082l.1177 1.4746M62.1542 58.3193l.1177 1.4733M69.5219 57.7292l.119 1.4733M76.8909 57.1392l.1177 1.4732M41.1706 76.5706l43.8129-6.9603 1.1599 7.3011-43.8128 6.9603-1.16-7.3011ZM49.0687 80.1294l.1178 1.4746M56.4364 79.5405l.119 1.4733M63.8054 78.9504l.1178 1.4733M71.1743 78.3604l.1178 1.4745M78.542 77.7715l.1178 1.4733" stroke="#45413C" stroke-linecap="round" stroke-linejoin="round"/>
  <path d="m79.1321 62.0506-7.9347-7.9348 6.6125-9.2569 10.5792 10.5792-9.257 6.6125Z" fill="#525252"/>
  <path d="m77.8099 44.8589-6.6125 9.2569 4.5389 4.5376 7.9334-7.9347-5.8598-5.8598Z" fill="#656769"/>
  <path d="M88.389 55.4381 77.8098 44.8589l29.9082-26.3821a5.4134 5.4134 0 0 1 3.778-1.3522 5.4109 5.4109 0 0 1 5.216 5.3238 5.4113 5.4113 0 0 1-1.429 3.7494L88.389 55.4381Z" fill="#525252"/>
  <path d="M115.131 18.7046a5.4136 5.4136 0 0 0-3.661-1.5831 5.4132 5.4132 0 0 0-3.752 1.3552L77.8098 44.8588l5.8675 5.8675 31.7107-31.7094c-.09-.1024-.16-.215-.257-.3123Z" fill="#656769"/>
  <path d="M69.4732 72.5032a5.1105 5.1105 0 0 1-4.0115 2.048c-2.487.0346-6.3296.384-8.8102 2.048 1.664-2.4986 2.0147-6.3309 2.048-8.8115a5.1075 5.1075 0 0 1 2.048-4.0103l8.4697-6.3526 6.6125 6.6125-6.3565 8.4659Z" fill="#FFE500"/>
  <path d="m69.2133 57.4221-8.4697 6.3527a5.1123 5.1123 0 0 0-2.048 4.0102c-.0346 2.4806-.384 6.313-2.048 8.8115l15.872-15.872-3.3063-3.3024Z" fill="#FFF48C"/>
  <path d="m75.8259 64.0347-6.6125-6.6125 1.984-3.3062 7.9347 7.9347-3.3062 1.984Z" fill="#FFE500" stroke="#45413C" stroke-linejoin="round"/>
  <path d="M69.4732 72.5032a5.1105 5.1105 0 0 1-4.0115 2.048c-2.487.0346-6.3296.384-8.8102 2.048 1.664-2.4986 2.0147-6.3309 2.048-8.8115a5.1075 5.1075 0 0 1 2.048-4.0103l8.4697-6.3526 6.6125 6.6125-6.3565 8.4659ZM79.1321 62.0506l-7.9347-7.9348 6.6125-9.2569 10.5792 10.5792-9.257 6.6125Z" stroke="#45413C" stroke-linejoin="round"/>
  <path d="M66.5688 69.3236a1.87 1.87 0 1 1 0-2.6458 1.8712 1.8712 0 0 1 0 2.6458Z" fill="#EBCB00" stroke="#45413C" stroke-linejoin="round"/>
  <path d="m63.9244 69.3235-6.6125 6.6112" stroke="#45413C" stroke-linejoin="round"/>
  <path d="m113.098 28.5735 1.196 1.1955a3.7429 3.7429 0 0 1 1.094 2.5597 3.739 3.739 0 0 1-.978 2.6064l-11.475 12.5683" stroke="#45413C" stroke-linecap="round" stroke-linejoin="round"/>
  <path d="m80.6194 42.3796-2.8096 2.4794L88.389 55.4382l2.5344-2.7558-10.304-10.3028Z" fill="#FFE500" stroke="#45413C" stroke-linejoin="round"/>
  <path d="M88.389 55.4381 77.8098 44.8589l29.9082-26.3821a5.4134 5.4134 0 0 1 3.778-1.3522 5.4109 5.4109 0 0 1 5.216 5.3238 5.4113 5.4113 0 0 1-1.429 3.7494L88.389 55.4381Z" stroke="#45413C" stroke-linejoin="round"/>
  <path opacity=".15" d="M39.0592 103.145c0 .291.5354.58 1.5755.849 1.0402.269 2.5647.514 4.4867.72 1.9219.206 4.2036.369 6.7148.48 2.5111.112 5.2026.169 7.9206.169 2.7181 0 5.4095-.057 7.9206-.169 2.5112-.111 4.7929-.274 6.7148-.48 1.922-.206 3.4465-.451 4.4867-.72 1.0401-.269 1.5755-.558 1.5755-.849 0-.291-.5354-.58-1.5755-.849-1.0402-.269-2.5647-.514-4.4867-.72-1.9219-.206-4.2036-.369-6.7148-.48-2.5111-.112-5.2025-.169-7.9206-.169-2.718 0-5.4095.057-7.9206.169-2.5112.111-4.7929.274-6.7148.48-1.922.206-3.4465.451-4.4867.72-1.0401.269-1.5755.558-1.5755.849Z" fill="#45413C"/>
</svg>
