<svg width="160" height="160" viewBox="0 0 160 160" fill="none" xmlns="http://www.w3.org/2000/svg">
<path d="M15.8403 85.3696C15.8403 102.343 22.5832 118.622 34.5855 130.624C46.5878 142.627 62.8665 149.37 79.8403 149.37C96.8142 149.37 113.093 142.627 125.095 130.624C137.097 118.622 143.84 102.343 143.84 85.3696C143.84 68.3958 137.097 52.1171 125.095 40.1148C113.093 28.1125 96.8142 21.3696 79.8403 21.3696C62.8665 21.3696 46.5878 28.1125 34.5855 40.1148C22.5832 52.1171 15.8403 68.3958 15.8403 85.3696V85.3696Z" fill="#C7F0FF"/>
<path opacity="0.15" d="M15.229 134.541C15.229 134.872 16.8493 135.199 19.9973 135.505C23.1453 135.811 27.7595 136.089 33.5763 136.323C39.3931 136.557 46.2987 136.742 53.8987 136.869C61.4987 136.996 69.6444 137.061 77.8706 137.061C86.0968 137.061 94.2425 136.996 101.843 136.869C109.443 136.742 116.348 136.557 122.165 136.323C127.982 136.089 132.596 135.811 135.744 135.505C138.892 135.199 140.512 134.872 140.512 134.541C140.512 134.21 138.892 133.882 135.744 133.576C132.596 133.271 127.982 132.993 122.165 132.759C116.348 132.525 109.443 132.339 101.843 132.213C94.2425 132.086 86.0968 132.021 77.8706 132.021C69.6444 132.021 61.4987 132.086 53.8987 132.213C46.2987 132.339 39.3931 132.525 33.5763 132.759C27.7595 132.993 23.1453 133.271 19.9973 133.576C16.8493 133.882 15.229 134.21 15.229 134.541V134.541Z" fill="#45413C"/>
<path d="M91.6387 122.88C87.2259 122.88 81.8163 138.24 66.2835 131.826C58.9139 128.786 44.6547 137.963 39.2115 129.106C38.8915 128.584 38.5107 127.914 38.5107 127.914C50.3251 129.034 47.2803 119.434 61.1203 122.403C61.8519 122.546 62.6062 122.521 63.3267 122.33C64.0472 122.14 64.7151 121.788 65.2803 121.302C65.8504 120.827 66.3097 120.233 66.6261 119.562C66.9425 118.89 67.1085 118.158 67.1123 117.416C67.1153 116.698 66.9765 115.986 66.7038 115.322C66.4312 114.657 66.0301 114.053 65.5235 113.544C65.0169 113.035 64.4148 112.631 63.7518 112.355C63.0887 112.079 62.3777 111.937 61.6595 111.936H58.9875C54.2415 111.931 49.6912 110.044 46.3349 106.688C42.9787 103.333 41.0906 98.7828 41.0851 94.0368C41.0895 91.6825 41.569 89.3534 42.495 87.1889C43.4209 85.0243 44.7743 83.069 46.4739 81.44C47.1549 80.7905 47.6474 79.9687 47.8989 79.0619C48.1505 78.1551 48.1518 77.1971 47.9027 76.2896C47.3219 74.1712 47.4323 63.2432 53.7011 63.2432L55.9267 71.6288C57.6179 77.8096 59.5267 85.8384 54.8947 90.2608C54.3852 90.7484 53.9794 91.334 53.7017 91.9823C53.424 92.6306 53.2802 93.3283 53.2787 94.0336C53.2804 95.5455 53.8818 96.9949 54.9508 98.0639C56.0198 99.133 57.4693 99.7343 58.9811 99.736C60.0515 99.736 61.1113 99.5252 62.1002 99.1156C63.089 98.706 63.9875 98.1056 64.7443 97.3488C65.5012 96.592 66.1015 95.6935 66.5111 94.7046C66.9207 93.7158 67.1315 92.6559 67.1315 91.5856V56.984C67.1838 50.518 69.7891 44.3345 74.3798 39.7807C78.9706 35.2269 85.1749 32.6716 91.6411 32.6716C98.1074 32.6716 104.312 35.2269 108.902 39.7807C113.493 44.3345 116.099 50.518 116.151 56.984V91.5888C116.153 93.7499 117.013 95.8218 118.541 97.3498C120.07 98.8778 122.142 99.7371 124.303 99.7392C125.814 99.7371 127.263 99.1356 128.332 98.0666C129.401 96.9976 130.002 95.5484 130.004 94.0368C130.002 93.3317 129.858 92.6341 129.581 91.9858C129.304 91.3376 128.898 90.7519 128.389 90.264C123.749 85.8416 125.669 77.8128 127.357 71.632L129.581 63.2464C135.85 63.2464 135.96 74.1744 135.381 76.2928C135.132 77.2003 135.133 78.1584 135.384 79.0653C135.636 79.9722 136.129 80.7939 136.81 81.4432C138.509 83.0718 139.862 85.0267 140.788 87.1906C141.714 89.3545 142.194 91.6831 142.199 94.0368C142.192 98.7812 140.305 103.329 136.95 106.684C133.595 110.039 129.047 111.926 124.303 111.933H121.631C120.912 111.933 120.201 112.075 119.538 112.351C118.875 112.627 118.273 113.031 117.766 113.54C117.259 114.049 116.858 114.653 116.586 115.318C116.313 115.983 116.175 116.695 116.178 117.413C116.181 118.155 116.347 118.887 116.664 119.559C116.98 120.23 117.44 120.824 118.01 121.299C118.574 121.784 119.241 122.135 119.96 122.326C120.679 122.516 121.432 122.542 122.162 122.4C136 119.434 132.96 129.026 144.772 127.91C144.772 127.91 144.391 128.581 144.071 129.102C138.631 137.963 124.368 128.782 116.999 131.822C101.466 138.24 96.0563 122.88 91.6451 122.88H91.6387Z" fill="#00B8F0"/>
<path d="M91.6416 38.5905C94.8602 38.5905 98.0474 39.2245 101.021 40.4562C103.995 41.688 106.697 43.4935 108.972 45.7695C111.248 48.0455 113.054 50.7475 114.285 53.7213C115.517 56.695 116.151 59.8822 116.15 63.1009V56.9841C116.177 53.7488 115.562 50.5403 114.342 47.5437C113.122 44.5471 111.321 41.8217 109.042 39.5247C106.764 37.2277 104.053 35.4045 101.066 34.1604C98.0796 32.9162 94.8762 32.2756 91.6408 32.2756C88.4054 32.2756 85.202 32.9162 82.2153 34.1604C79.2287 35.4045 76.518 37.2277 74.2394 39.5247C71.9609 41.8217 70.1597 44.5471 68.9397 47.5437C67.7197 50.5403 67.105 53.7488 67.1312 56.9841V63.1009C67.1312 59.8821 67.7651 56.6949 68.9969 53.7211C70.2287 50.7474 72.0341 48.0454 74.3101 45.7694C76.5861 43.4934 79.2881 41.688 82.2618 40.4562C85.2356 39.2244 88.4228 38.5905 91.6416 38.5905V38.5905Z" fill="#4ACFFF"/>
<path d="M91.6387 122.88C87.2259 122.88 81.8163 138.24 66.2835 131.826C58.9139 128.786 44.6547 137.963 39.2115 129.106C38.8915 128.584 38.5107 127.914 38.5107 127.914C46.7603 133.637 52.6003 124.221 66.6227 126.973C86.5347 130.882 78.8787 119.293 91.6515 122.883" fill="#B8ECFF"/>
<path d="M91.6387 122.88C87.2259 122.88 81.8163 138.24 66.2835 131.826C58.9139 128.786 44.6547 137.963 39.2115 129.106C38.8915 128.584 38.5107 127.914 38.5107 127.914C46.7603 133.637 52.6003 124.221 66.6227 126.973C86.5347 130.882 78.8787 119.293 91.6515 122.883" stroke="#45413C" stroke-width="1.6" stroke-linecap="round" stroke-linejoin="round"/>
<path d="M116.667 126.97C96.7555 130.878 104.411 119.29 91.6387 122.88C96.0499 122.88 101.459 138.24 116.992 131.826C124.362 128.786 138.623 137.965 144.064 129.106C144.384 128.584 144.765 127.914 144.765 127.914C136.49 133.723 130.72 124.211 116.667 126.97Z" fill="#B8ECFF" stroke="#45413C" stroke-width="1.6" stroke-linecap="round" stroke-linejoin="round"/>
<path d="M91.6387 122.88C87.2259 122.88 81.8163 138.24 66.2835 131.826C58.9139 128.786 44.6547 137.963 39.2115 129.106C38.8915 128.584 38.5107 127.914 38.5107 127.914C50.3251 129.034 47.2803 119.434 61.1203 122.403C61.8519 122.546 62.6062 122.521 63.3267 122.33C64.0472 122.14 64.7151 121.788 65.2803 121.302C65.8504 120.827 66.3097 120.233 66.6261 119.562C66.9425 118.89 67.1085 118.158 67.1123 117.416C67.1153 116.698 66.9765 115.986 66.7038 115.322C66.4312 114.657 66.0301 114.053 65.5235 113.544C65.0169 113.035 64.4148 112.631 63.7518 112.355C63.0887 112.079 62.3777 111.937 61.6595 111.936H58.9875C54.2415 111.931 49.6912 110.044 46.3349 106.688C42.9787 103.333 41.0906 98.7828 41.0851 94.0368C41.0895 91.6825 41.569 89.3534 42.495 87.1889C43.4209 85.0243 44.7743 83.069 46.4739 81.44C47.1549 80.7905 47.6474 79.9687 47.8989 79.0619C48.1505 78.1551 48.1518 77.1971 47.9027 76.2896C47.3219 74.1712 47.4323 63.2432 53.7011 63.2432L55.9267 71.6288C57.6179 77.8096 59.5267 85.8384 54.8947 90.2608C54.3852 90.7484 53.9794 91.334 53.7017 91.9823C53.424 92.6306 53.2802 93.3283 53.2787 94.0336C53.2804 95.5455 53.8818 96.9949 54.9508 98.0639C56.0198 99.133 57.4693 99.7343 58.9811 99.736C60.0515 99.736 61.1113 99.5252 62.1002 99.1156C63.089 98.706 63.9875 98.1056 64.7443 97.3488C65.5012 96.592 66.1015 95.6935 66.5111 94.7046C66.9207 93.7158 67.1315 92.6559 67.1315 91.5856V56.984C67.1838 50.518 69.7891 44.3345 74.3798 39.7807C78.9706 35.2269 85.1749 32.6716 91.6411 32.6716C98.1074 32.6716 104.312 35.2269 108.902 39.7807C113.493 44.3345 116.099 50.518 116.151 56.984V91.5888C116.153 93.7499 117.013 95.8218 118.541 97.3498C120.07 98.8778 122.142 99.7371 124.303 99.7392C125.814 99.7371 127.263 99.1356 128.332 98.0666C129.401 96.9976 130.002 95.5484 130.004 94.0368C130.002 93.3317 129.858 92.6341 129.581 91.9858C129.304 91.3376 128.898 90.7519 128.389 90.264C123.749 85.8416 125.669 77.8128 127.357 71.632L129.581 63.2464C135.85 63.2464 135.96 74.1744 135.381 76.2928C135.132 77.2003 135.133 78.1584 135.384 79.0653C135.636 79.9722 136.129 80.7939 136.81 81.4432C138.509 83.0718 139.862 85.0267 140.788 87.1906C141.714 89.3545 142.194 91.6831 142.199 94.0368C142.192 98.7812 140.305 103.329 136.95 106.684C133.595 110.039 129.047 111.926 124.303 111.933H121.631C120.912 111.933 120.201 112.075 119.538 112.351C118.875 112.627 118.273 113.031 117.766 113.54C117.259 114.049 116.858 114.653 116.586 115.318C116.313 115.983 116.175 116.695 116.178 117.413C116.181 118.155 116.347 118.887 116.664 119.559C116.98 120.23 117.44 120.824 118.01 121.299C118.574 121.784 119.241 122.135 119.96 122.326C120.679 122.516 121.432 122.542 122.162 122.4C136 119.434 132.96 129.026 144.772 127.91C144.772 127.91 144.391 128.581 144.071 129.102C138.631 137.963 124.368 128.782 116.999 131.822C101.466 138.24 96.0563 122.88 91.6451 122.88H91.6387Z" stroke="#45413C" stroke-width="1.6" stroke-linecap="round" stroke-linejoin="round"/>
<path d="M79.6802 52.6449C79.6802 55.8174 80.9404 58.8598 83.1836 61.1031C85.4269 63.3463 88.4694 64.6066 91.6418 64.6066C94.8142 64.6066 97.8567 63.3463 100.1 61.1031C102.343 58.8598 103.603 55.8174 103.603 52.6449C103.603 49.4725 102.343 46.4301 100.1 44.1868C97.8567 41.9436 94.8142 40.6833 91.6418 40.6833C88.4694 40.6833 85.4269 41.9436 83.1836 44.1868C80.9404 46.4301 79.6802 49.4725 79.6802 52.6449V52.6449Z" fill="#F0F0F0"/>
<path d="M86.6802 52.6449C86.6802 53.9608 87.2029 55.2228 88.1334 56.1533C89.0639 57.0838 90.3259 57.6066 91.6418 57.6066C92.9577 57.6066 94.2197 57.0838 95.1502 56.1533C96.0806 55.2228 96.6034 53.9608 96.6034 52.6449C96.6034 51.3291 96.0806 50.067 95.1502 49.1366C94.2197 48.2061 92.9577 47.6833 91.6418 47.6833C90.3259 47.6833 89.0639 48.2061 88.1334 49.1366C87.2029 50.067 86.6802 51.3291 86.6802 52.6449V52.6449Z" fill="#FF6242" stroke="#45413C" stroke-width="1.6" stroke-linecap="round" stroke-linejoin="round"/>
<path d="M91.642 80.1601C93.9906 80.2103 96.2781 79.4093 98.0823 77.9048C99.8864 76.4003 101.085 74.294 101.458 71.9745C101.476 71.835 101.46 71.6931 101.411 71.5612C101.362 71.4293 101.281 71.3114 101.176 71.2177C101.068 71.1198 100.939 71.0477 100.799 71.0067C100.659 70.9657 100.511 70.9569 100.367 70.9809C94.5865 71.9057 88.6959 71.9057 82.9156 70.9809C82.7718 70.9564 82.6243 70.965 82.4843 71.006C82.3443 71.0471 82.2155 71.1195 82.1076 71.2177C82.0024 71.3113 81.9216 71.4292 81.8723 71.5611C81.8229 71.6929 81.8065 71.8349 81.8244 71.9745C82.197 74.2942 83.3963 76.4008 85.2008 77.9053C87.0053 79.4098 89.2931 80.2107 91.642 80.1601V80.1601Z" fill="#FFB0CA" stroke="#45413C" stroke-width="1.6" stroke-linecap="round" stroke-linejoin="round"/>
<path d="M128.96 79.5039C128.96 80.1702 129.148 80.8091 129.484 81.2802C129.819 81.7513 130.274 82.0159 130.749 82.0159C131.223 82.0159 131.678 81.7513 132.014 81.2802C132.349 80.8091 132.538 80.1702 132.538 79.5039C132.538 78.8377 132.349 78.1988 132.014 77.7277C131.678 77.2566 131.223 76.9919 130.749 76.9919C130.274 76.9919 129.819 77.2566 129.484 77.7277C129.148 78.1988 128.96 78.8377 128.96 79.5039V79.5039Z" fill="#80DDFF" stroke="#45413C" stroke-width="1.6" stroke-linecap="round" stroke-linejoin="round"/>
<path d="M133.721 91.3474C133.906 91.9875 134.264 92.5491 134.717 92.9086C135.17 93.2681 135.681 93.3961 136.136 93.2645C136.592 93.1328 136.956 92.7523 137.148 92.2067C137.339 91.661 137.343 90.9949 137.158 90.3548C136.973 89.7147 136.615 89.1532 136.162 88.7937C135.709 88.4341 135.198 88.3061 134.742 88.4377C134.287 88.5694 133.923 88.9499 133.731 89.4956C133.54 90.0412 133.536 90.7074 133.721 91.3474V91.3474Z" fill="#80DDFF" stroke="#45413C" stroke-width="1.6" stroke-linecap="round" stroke-linejoin="round"/>
<path d="M129.796 104.766C130.122 105.111 130.627 105.259 131.2 105.179C131.773 105.099 132.366 104.797 132.85 104.339C133.334 103.881 133.669 103.305 133.781 102.738C133.892 102.17 133.772 101.658 133.446 101.313C133.12 100.969 132.615 100.82 132.042 100.9C131.469 100.98 130.876 101.282 130.392 101.74C129.908 102.198 129.573 102.774 129.461 103.342C129.35 103.909 129.47 104.421 129.796 104.766V104.766Z" fill="#80DDFF" stroke="#45413C" stroke-width="1.6" stroke-linecap="round" stroke-linejoin="round"/>
<path d="M103.454 54.5313C103.726 52.8232 103.623 51.0766 103.154 49.412C102.685 47.7473 101.861 46.2041 100.738 44.8888C99.615 43.5735 98.2202 42.5173 96.6497 41.7931C95.0792 41.0689 93.3703 40.6938 91.6408 40.6938C89.9113 40.6938 88.2024 41.0689 86.6319 41.7931C85.0614 42.5173 83.6666 43.5735 82.5436 44.8888C81.4207 46.2041 80.5963 47.7473 80.1273 49.412C79.6584 51.0766 79.556 52.8232 79.8272 54.5313C80.2514 51.7016 81.6772 49.1182 83.8452 47.2509C86.0132 45.3836 88.7795 44.3566 91.6408 44.3566C94.5021 44.3566 97.2684 45.3836 99.4364 47.2509C101.604 49.1182 103.03 51.7016 103.454 54.5313V54.5313Z" fill="white"/>
<path d="M79.6802 52.6449C79.6802 55.8174 80.9404 58.8598 83.1836 61.1031C85.4269 63.3463 88.4694 64.6066 91.6418 64.6066C94.8142 64.6066 97.8567 63.3463 100.1 61.1031C102.343 58.8598 103.603 55.8174 103.603 52.6449C103.603 49.4725 102.343 46.4301 100.1 44.1868C97.8567 41.9436 94.8142 40.6833 91.6418 40.6833C88.4694 40.6833 85.4269 41.9436 83.1836 44.1868C80.9404 46.4301 79.6802 49.4725 79.6802 52.6449V52.6449Z" stroke="#45413C" stroke-width="1.6" stroke-linecap="round" stroke-linejoin="round"/>
<path d="M30.5703 35.0547H17.3516L14.5859 43H8.42188L21.3125 8.875H26.6328L39.5469 43H33.3594L30.5703 35.0547ZM19.0156 30.2734H28.9062L23.9609 16.1172L19.0156 30.2734Z" fill="#130B43"/>
<path d="M58.0703 43C57.8203 42.5156 57.6016 41.7266 57.4141 40.6328C55.6016 42.5234 53.3828 43.4688 50.7578 43.4688C48.2109 43.4688 46.1328 42.7422 44.5234 41.2891C42.9141 39.8359 42.1094 38.0391 42.1094 35.8984C42.1094 33.1953 43.1094 31.125 45.1094 29.6875C47.125 28.2344 50 27.5078 53.7344 27.5078H57.2266V25.8438C57.2266 24.5312 56.8594 23.4844 56.125 22.7031C55.3906 21.9062 54.2734 21.5078 52.7734 21.5078C51.4766 21.5078 50.4141 21.8359 49.5859 22.4922C48.7578 23.1328 48.3438 23.9531 48.3438 24.9531H42.6484C42.6484 23.5625 43.1094 22.2656 44.0312 21.0625C44.9531 19.8438 46.2031 18.8906 47.7812 18.2031C49.375 17.5156 51.1484 17.1719 53.1016 17.1719C56.0703 17.1719 58.4375 17.9219 60.2031 19.4219C61.9688 20.9062 62.875 23 62.9219 25.7031V37.1406C62.9219 39.4219 63.2422 41.2422 63.8828 42.6016V43H58.0703ZM51.8125 38.8984C52.9375 38.8984 53.9922 38.625 54.9766 38.0781C55.9766 37.5312 56.7266 36.7969 57.2266 35.875V31.0938H54.1562C52.0469 31.0938 50.4609 31.4609 49.3984 32.1953C48.3359 32.9297 47.8047 33.9688 47.8047 35.3125C47.8047 36.4062 48.1641 37.2812 48.8828 37.9375C49.6172 38.5781 50.5938 38.8984 51.8125 38.8984Z" fill="#130B43"/>
</svg>
