<svg width="160" height="160" viewBox="0 0 160 160" fill="none" xmlns="http://www.w3.org/2000/svg">
<path d="M138.298 106.55C142.713 96.8024 144.614 86.1026 143.826 75.43C143.038 64.7574 139.587 54.4528 133.787 45.4589C127.988 36.465 120.025 29.069 110.629 23.9474C101.232 18.8259 90.7016 16.1423 80 16.1423C69.2984 16.1423 58.7676 18.8259 49.3711 23.9474C39.9746 29.069 32.0124 36.465 26.2128 45.4589C20.4133 54.4528 16.9617 64.7574 16.1737 75.43C15.3858 86.1026 17.2866 96.8024 21.7024 106.55H138.298Z" fill="#C7F0FF"/>
<path d="M21.7021 106.551C26.7785 117.757 34.9771 127.263 45.3163 133.93C55.6556 140.597 67.6973 144.142 79.9998 144.142C92.3022 144.142 104.344 140.597 114.683 133.93C125.022 127.263 133.221 117.757 138.297 106.551H21.7021Z" fill="#F2DFC2"/>
<path d="M10.3999 106.551H14.3999" stroke="#45413C" stroke-width="1.6" stroke-linecap="round" stroke-linejoin="round"/>
<path d="M17.6001 106.551H142.4" stroke="#45413C" stroke-width="1.6" stroke-linecap="round" stroke-linejoin="round"/>
<path d="M145.6 106.551H149.6" stroke="#45413C" stroke-width="1.6" stroke-linecap="round" stroke-linejoin="round"/>
<path d="M128.523 55.8486C128.28 55.299 127.884 54.8317 127.381 54.5035C126.878 54.1753 126.29 54.0003 125.69 54H32.2265C31.6131 54.0004 31.0136 54.1829 30.504 54.5244C29.9944 54.8659 29.5976 55.351 29.364 55.9182L10.2359 102.374C10.0409 102.845 9.96496 103.356 10.0149 103.863C10.0649 104.37 10.2392 104.857 10.5223 105.28C10.8055 105.703 11.1887 106.05 11.6381 106.29C12.0875 106.53 12.5891 106.655 13.0984 106.655H146.182C146.697 106.655 147.205 106.527 147.658 106.281C148.111 106.036 148.496 105.681 148.778 105.249C149.059 104.817 149.228 104.322 149.27 103.808C149.311 103.295 149.224 102.779 149.015 102.307L128.523 55.8486Z" fill="#F0D5A8" stroke="#45413C" stroke-width="1.6" stroke-linecap="round" stroke-linejoin="round"/>
<path d="M59.5727 54H45.6372L42.0845 63.2912H57.1141L59.5727 54Z" fill="#BF8256" stroke="#45413C" stroke-width="1.6" stroke-linecap="round" stroke-linejoin="round"/>
<path d="M25.5063 106.649H45.6377L48.9176 94.2625H30.2442L25.5063 106.649Z" fill="#BF8256" stroke="#45413C" stroke-width="1.6" stroke-linecap="round" stroke-linejoin="round"/>
<path d="M54.2467 74.1313H37.9409L34.3882 83.4225H51.7854L54.2467 74.1313Z" fill="#BF8256" stroke="#45413C" stroke-width="1.6" stroke-linecap="round" stroke-linejoin="round"/>
<path d="M84.3482 54H73.5107L72.4165 63.2912H85.4424L84.3482 54Z" fill="#BF8256" stroke="#45413C" stroke-width="1.6" stroke-linecap="round" stroke-linejoin="round"/>
<path d="M71.1403 74.1313L70.0488 83.4225H87.8099L86.7157 74.1313H71.1403Z" fill="#BF8256" stroke="#45413C" stroke-width="1.6" stroke-linecap="round" stroke-linejoin="round"/>
<path d="M67.3154 106.649H90.5447L89.0867 94.2625H68.7735L67.3154 106.649Z" fill="#BF8256" stroke="#45413C" stroke-width="1.6" stroke-linecap="round" stroke-linejoin="round"/>
<path d="M26.3278 63.291L21.8628 74.1312H37.9411L42.0851 63.291H26.3278Z" fill="#BF8256" stroke="#45413C" stroke-width="1.6" stroke-linecap="round" stroke-linejoin="round"/>
<path d="M71.1404 74.1312L72.4165 63.291H57.114L54.2461 74.1312H71.1404Z" fill="#BF8256" stroke="#45413C" stroke-width="1.6" stroke-linecap="round" stroke-linejoin="round"/>
<path d="M103.613 74.1312L100.745 63.291H85.4424L86.7158 74.1312H103.613Z" fill="#BF8256" stroke="#45413C" stroke-width="1.6" stroke-linecap="round" stroke-linejoin="round"/>
<path d="M136.588 74.1312L131.805 63.291H115.502L119.328 74.1312H136.588Z" fill="#BF8256" stroke="#45413C" stroke-width="1.6" stroke-linecap="round" stroke-linejoin="round"/>
<path d="M145.467 94.2625L140.687 83.4224H122.604L126.43 94.2625H145.467Z" fill="#BF8256" stroke="#45413C" stroke-width="1.6" stroke-linecap="round" stroke-linejoin="round"/>
<path d="M18.0392 83.4224L13.5742 94.2625H30.2438L34.3878 83.4224H18.0392Z" fill="#BF8256" stroke="#45413C" stroke-width="1.6" stroke-linecap="round" stroke-linejoin="round"/>
<path d="M51.7854 83.4224L48.9175 94.2625H68.7733L70.0494 83.4224H51.7854Z" fill="#BF8256" stroke="#45413C" stroke-width="1.6" stroke-linecap="round" stroke-linejoin="round"/>
<path d="M87.8101 83.4224L89.0862 94.2625H108.942L106.074 83.4224H87.8101Z" fill="#BF8256" stroke="#45413C" stroke-width="1.6" stroke-linecap="round" stroke-linejoin="round"/>
<path d="M106.074 83.4225H122.604L119.327 74.1313H103.613L106.074 83.4225Z" fill="#BF8256" stroke="#45413C" stroke-width="1.6" stroke-linecap="round" stroke-linejoin="round"/>
<path d="M112.222 54H98.2866L100.745 63.2912H115.502L112.222 54Z" fill="#BF8256" stroke="#45413C" stroke-width="1.6" stroke-linecap="round" stroke-linejoin="round"/>
<path d="M108.942 94.2625L112.222 106.649H130.805L126.431 94.2625H108.942Z" fill="#BF8256" stroke="#45413C" stroke-width="1.6" stroke-linecap="round" stroke-linejoin="round"/>
</svg>
