<svg width="162" height="162" fill="none" xmlns="http://www.w3.org/2000/svg">
  <path d="M1 81c0 21.217 8.4285 41.566 23.4315 56.569C39.4344 152.571 59.7827 161 81 161c21.217 0 41.566-8.429 56.569-23.431C152.571 122.566 161 102.217 161 81c0-21.2173-8.429-41.5656-23.431-56.5685C122.566 9.4285 102.217 1 81 1 59.7827 1 39.4344 9.4285 24.4315 24.4315 9.4285 39.4344 1 59.7827 1 81v0z" fill="#C7F0FF" stroke="#C7F0FF" stroke-width="1.6" stroke-miterlimit="10"/>
  <path d="M80.9997 81h-68.32a68.096 68.096 0 0120.014-48.306L80.9997 81z" fill="#6DD627" stroke="#45413C" stroke-width="1.6" stroke-linecap="round" stroke-linejoin="round"/>
  <path d="M80.9998 12.68V81l-48.306-48.306a68.0922 68.0922 0 0148.306-20.014v0z" fill="#FFE500" stroke="#45413C" stroke-width="1.6" stroke-linecap="round" stroke-linejoin="round"/>
  <path d="M129.306 32.694L81 81V12.68a68.0203 68.0203 0 0126.153 5.1798 68.0088 68.0088 0 0122.153 14.8342v0z" fill="#FF8A14" stroke="#45413C" stroke-width="1.6" stroke-linecap="round" stroke-linejoin="round"/>
  <path d="M149.32 81H81l48.306-48.306a68.0893 68.0893 0 0114.828 22.1555A68.0963 68.0963 0 01149.32 81v0z" fill="#FF6242" stroke="#45413C" stroke-width="1.6" stroke-linecap="round" stroke-linejoin="round"/>
  <path d="M149.32 81a68.0642 68.0642 0 01-5.183 26.152 68.064 68.064 0 01-14.831 22.154L81 81h68.32z" fill="#FF6196" stroke="#45413C" stroke-width="1.6" stroke-linecap="round" stroke-linejoin="round"/>
  <path d="M129.306 129.306a68.005 68.005 0 01-22.153 14.834A68.0093 68.0093 0 0181 149.32V81l48.306 48.306z" fill="#9F5AE5" stroke="#45413C" stroke-width="1.6" stroke-linecap="round" stroke-linejoin="round"/>
  <path d="M80.9998 81v68.32a68.0954 68.0954 0 01-26.1506-5.185 68.1043 68.1043 0 01-22.1554-14.829L80.9998 81z" fill="#00B8F0" stroke="#45413C" stroke-width="1.6" stroke-linecap="round" stroke-linejoin="round"/>
  <path d="M80.9998 81l-48.306 48.306a68.0615 68.0615 0 01-14.8312-22.154A68.0603 68.0603 0 0112.6798 81h68.32z" fill="#00DBA8" stroke="#45413C" stroke-width="1.6" stroke-linecap="round" stroke-linejoin="round"/>
  <path d="M29.9141 81.0001a51.0874 51.0874 0 003.8886 19.5499 51.0772 51.0772 0 0011.0741 16.573 51.078 51.078 0 0016.5735 11.074 51.0734 51.0734 0 0019.5498 3.889 51.0747 51.0747 0 0019.5499-3.889 51.0674 51.0674 0 0016.573-11.074 51.0674 51.0674 0 0011.074-16.573 51.0747 51.0747 0 003.889-19.5499 51.0734 51.0734 0 00-3.889-19.5498 51.078 51.078 0 00-11.074-16.5735 51.0857 51.0857 0 00-55.6727-11.074 51.086 51.086 0 00-31.5362 47.1973v0z" fill="#C7F0FF" stroke="#45413C" stroke-width="1.6" stroke-linecap="round" stroke-linejoin="round"/>
</svg>
