<svg viewBox="0 0 160 160" height="160" width="160" xmlns="http://www.w3.org/2000/svg"><g transform="matrix(1.6,0,0,1.6,0,0)"><path d="M90,55.063a40,40,0,1,0-76.436,16.5H86.436A39.829,39.829,0,0,0,90,55.063Z" fill="#c7f0ff"></path><path d="M13.564,71.563a40,40,0,0,0,72.872,0Z" fill="#daf7c6"></path><path d="M11 71.563L89 71.563" fill="none" stroke="#45413c" stroke-linecap="round" stroke-linejoin="round"></path><path d="M6.5 71.563L9 71.563" fill="none" stroke="#45413c" stroke-linecap="round" stroke-linejoin="round"></path><path d="M91 71.563L93.5 71.563" fill="none" stroke="#45413c" stroke-linecap="round" stroke-linejoin="round"></path><path d="M17.606 82.945 A33.484 2.628 0 1 0 84.574 82.945 A33.484 2.628 0 1 0 17.606 82.945 Z" fill="#45413c" opacity=".15"></path><path d="M22.871,80.355a1.161,1.161,0,0,0,1.158,1.157h31.26V12.14a1.161,1.161,0,0,0-1.158-1.158h-30.1a1.161,1.161,0,0,0-1.158,1.158Z" fill="#00b8f0"></path><path d="M55.289,14.336v-2.2a1.161,1.161,0,0,0-1.158-1.158h-30.1a1.161,1.161,0,0,0-1.158,1.158V46.754Z" fill="#4acfff"></path><path d="M22.871,80.355a1.161,1.161,0,0,0,1.158,1.157h31.26V12.14a1.161,1.161,0,0,0-1.158-1.158h-30.1a1.161,1.161,0,0,0-1.158,1.158Z" fill="none" stroke="#45413c" stroke-linecap="round" stroke-linejoin="round"></path><path d="M55.289,81.512h21.8a1.161,1.161,0,0,0,1.158-1.157V31.276a1.161,1.161,0,0,0-1.158-1.158h-21.8Z" fill="#e0e0e0"></path><path d="M77.086,30.118a1.161,1.161,0,0,1,1.158,1.158v4.888H55.289V30.118Z" fill="#fff"></path><path d="M55.289 70.429H78.244V73.17H55.289z" fill="#bdbec0"></path><path d="M55.289,81.512h21.8a1.161,1.161,0,0,0,1.158-1.157V31.276a1.161,1.161,0,0,0-1.158-1.158h-21.8Z" fill="none" stroke="#45413c" stroke-linecap="round" stroke-linejoin="round"></path><path d="M59.739,21.812a.762.762,0,0,1,.761-.762h2.507a.762.762,0,0,1,.762.762v8.306h-4.03Z" fill="#bdbec0" stroke="#45413c" stroke-linecap="round" stroke-linejoin="round"></path><path d="M26.656,4.937h2.506a.762.762,0,0,1,.762.762v5.283h-4.03V5.7A.762.762,0,0,1,26.656,4.937Z" fill="#bdbec0" stroke="#45413c" stroke-linecap="round" stroke-linejoin="round"></path><path d="M64.138 40.202H72.19900000000001V70.429H64.138z" fill="#00b8f0" stroke="#45413c" stroke-linecap="round" stroke-linejoin="round"></path><path d="M55.289,40.2H80.505a.762.762,0,0,0,.761-.762V36.933a.761.761,0,0,0-.761-.761H55.289Z" fill="#f0f0f0" stroke="#45413c" stroke-linecap="round" stroke-linejoin="round"></path><path d="M55.289,50.278H80.505a.762.762,0,0,0,.761-.762V47.009a.762.762,0,0,0-.761-.762H55.289Z" fill="#f0f0f0" stroke="#45413c" stroke-linecap="round" stroke-linejoin="round"></path><path d="M55.289,60.353H80.505a.762.762,0,0,0,.761-.762V57.085a.762.762,0,0,0-.761-.762H55.289Z" fill="#f0f0f0" stroke="#45413c" stroke-linecap="round" stroke-linejoin="round"></path><path d="M55.289,70.429H80.505a.762.762,0,0,0,.761-.762V67.161a.762.762,0,0,0-.761-.762H55.289Z" fill="#f0f0f0" stroke="#45413c" stroke-linecap="round" stroke-linejoin="round"></path><path d="M55.289,81.512H74.213V76.3a1.161,1.161,0,0,0-1.157-1.158H55.289Z" fill="#00b8f0" stroke="#45413c" stroke-linecap="round" stroke-linejoin="round"></path><path d="M30.975 10.982L30.975 81.512" fill="none" stroke="#45413c" stroke-linecap="round" stroke-linejoin="round"></path><path d="M39.08 10.982L39.08 81.512" fill="none" stroke="#45413c" stroke-linecap="round" stroke-linejoin="round"></path><path d="M47.184 10.982L47.184 81.512" fill="none" stroke="#45413c" stroke-linecap="round" stroke-linejoin="round"></path><path d="M22.871 20.927L55.289 20.927" fill="none" stroke="#45413c" stroke-linecap="round" stroke-linejoin="round"></path><path d="M22.871 30.871L55.289 30.871" fill="none" stroke="#45413c" stroke-linecap="round" stroke-linejoin="round"></path><path d="M22.871 40.815L55.289 40.815" fill="none" stroke="#45413c" stroke-linecap="round" stroke-linejoin="round"></path><path d="M22.871 50.76L55.289 50.76" fill="none" stroke="#45413c" stroke-linecap="round" stroke-linejoin="round"></path><path d="M22.871 60.704L55.289 60.704" fill="none" stroke="#45413c" stroke-linecap="round" stroke-linejoin="round"></path><path d="M22.871 70.648L55.289 70.648" fill="none" stroke="#45413c" stroke-linecap="round" stroke-linejoin="round"></path><path d="M90.689,72.252a3.176,3.176,0,0,0-.346-5.338,2.118,2.118,0,1,0-3.071,0,3.176,3.176,0,0,0-.346,5.338,4.235,4.235,0,1,0,3.763,0Z" fill="#9ceb60" stroke="#45413c" stroke-linecap="round" stroke-linejoin="round"></path><path d="M88.808 80.317L88.808 85.573" fill="none" stroke="#45413c" stroke-linecap="round" stroke-linejoin="round"></path><path d="M16.905,64.665a3.175,3.175,0,0,0-.345-5.338,2.117,2.117,0,1,0-3.072,0,3.175,3.175,0,0,0-.345,5.338,4.234,4.234,0,1,0,3.762,0Z" fill="#9ceb60" stroke="#45413c" stroke-linecap="round" stroke-linejoin="round"></path><path d="M15.024 72.73L15.024 77.986" fill="none" stroke="#45413c" stroke-linecap="round" stroke-linejoin="round"></path><path d="M42.533,73.577a4.22,4.22,0,0,0-.459-7.095,2.815,2.815,0,1,0-4.083,0,4.221,4.221,0,0,0-.459,7.095,5.629,5.629,0,1,0,5,0Z" fill="#9ceb60" stroke="#45413c" stroke-linecap="round" stroke-linejoin="round"></path><path d="M40.033 84.297L40.033 91.282" fill="none" stroke="#45413c" stroke-linecap="round" stroke-linejoin="round"></path></g></svg>