<svg width="160" height="160" fill="none" xmlns="http://www.w3.org/2000/svg">
  <path d="M16 80c0 16.9739 6.7428 33.253 18.7452 45.255C46.7475 137.257 63.0261 144 80 144c16.9739 0 33.253-6.743 45.255-18.745C137.257 113.253 144 96.9739 144 80c0-16.9739-6.743-33.2525-18.745-45.2548C113.253 22.7428 96.9739 16 80 16c-16.9739 0-33.2525 6.7428-45.2548 18.7452C22.7428 46.7475 16 63.0261 16 80v0z" fill="#C7F0FF" stroke="#C7F0FF" stroke-width="1.6" stroke-miterlimit="10"/>
  <path d="M20.856 103.768c-3.4987 0-6.5067-.512-9.024-1.536-2.5173-1.067-4.5653-2.4747-6.144-4.224l4.352-5.952c1.3653 1.1947 2.88 2.176 4.544 2.944 1.7067.768 3.4987 1.152 5.376 1.152 2.2187 0 4.032-.4053 5.44-1.216 1.4507-.8533 2.176-2.048 2.176-3.584 0-.896-.192-1.7067-.576-2.432-.384-.7253-1.0453-1.3227-1.984-1.792-.9387-.512-2.1973-.896-3.776-1.152-1.5787-.2987-3.5627-.448-5.952-.448v-6.656c4.0107 0 6.8267-.4907 8.448-1.472 1.664-1.024 2.496-2.3467 2.496-3.968 0-1.408-.5333-2.496-1.6-3.264-1.0667-.8107-2.5387-1.216-4.416-1.216-1.6213 0-3.1147.32-4.48.96-1.3653.64-2.752 1.5147-4.16 2.624l-4.736-5.76c2.0053-1.6213 4.1387-2.88 6.4-3.776 2.304-.9387 4.7787-1.408 7.424-1.408 2.2187 0 4.2453.256 6.08.768 1.8347.4693 3.4133 1.1947 4.736 2.176 1.3227.9387 2.3467 2.0907 3.072 3.456.7253 1.3653 1.088 2.944 1.088 4.736 0 2.1333-.6827 3.9467-2.048 5.44-1.3653 1.4507-3.264 2.6453-5.696 3.584v.256c2.56.6827 4.7147 1.856 6.464 3.52 1.7493 1.6213 2.624 3.7547 2.624 6.4 0 1.8773-.448 3.5627-1.344 5.056-.8533 1.4507-2.0267 2.688-3.52 3.712-1.4507.981-3.1573 1.749-5.12 2.304-1.9627.512-4.0107.768-6.144.768zM43.743 103l11.008-16.512-10.304-15.232h10.112l3.264 5.12c.4693.896 1.0027 1.8133 1.6 2.752a94.9907 94.9907 0 011.728 2.688h.256c.4267-.896.8533-1.8133 1.28-2.752l1.344-2.688 2.816-5.12h9.856l-10.368 16.32L77.343 103H67.231l-3.648-5.248A318.593 318.593 0 0061.727 95a154.281 154.281 0 00-1.792-2.752h-.256c-.4693.896-.96 1.8133-1.472 2.752a56.1902 56.1902 0 00-1.472 2.752L53.599 103h-9.856zm51.751-6.016V85.208H84.23v-6.656h11.264V66.776h6.912v11.776h11.264v6.656h-11.264v11.776h-6.912zM123.181 103v-7.616h10.944V71.896h-9.024v-5.824c1.365-.2133 2.581-.4267 3.648-.64 1.109-.256 2.112-.5333 3.008-.832.896-.2987 1.728-.6187 2.496-.96.811-.384 1.6-.8107 2.368-1.28h6.912v33.024h9.216V103h-29.568z" fill="url(#paint0_linear)"/>
  <defs>
    <linearGradient id="paint0_linear" x1="80" y1="40" x2="80" y2="120" gradientUnits="userSpaceOnUse">
      <stop stop-color="#20F"/>
      <stop offset="1" stop-color="#9E00FF"/>
    </linearGradient>
  </defs>
</svg>
