<svg viewBox="0 0 160 160" height="160" width="160" xmlns="http://www.w3.org/2000/svg"><g transform="matrix(1.6,0,0,1.6,0,0)"><path d="M4.989 49.750 A40.000 40.000 0 1 0 84.989 49.750 A40.000 40.000 0 1 0 4.989 49.750 Z" fill="#c7f0ff"></path><path d="M4.989 49.750 A40.000 40.000 0 1 0 84.989 49.750 A40.000 40.000 0 1 0 4.989 49.750 Z" fill="none" stroke="#daedf7"></path><path d="M4.171 59.314H57.164V63.305H4.171z" fill="#e0e0e0"></path><path d="M4.171 59.314L57.164 59.314 57.164 63.305 4.171 63.305" fill="none" stroke="#45413c" stroke-linecap="round" stroke-linejoin="round"></path><path d="M4.171 66.299H57.164V70.29H4.171z" fill="#e0e0e0"></path><path d="M4.171 66.299L57.164 66.299 57.164 70.29 4.171 70.29" fill="none" stroke="#45413c" stroke-linecap="round" stroke-linejoin="round"></path><path d="M25.164 56.315L22.164 53.315 19.164 56.315 19.164 74.315 25.164 74.315 25.164 56.315z" fill="#fff"></path><path d="M19.164 71.315H25.164V74.315H19.164z" fill="#f0f0f0"></path><path d="M25.164 56.315L22.164 53.315 19.164 56.315 19.164 74.315 25.164 74.315 25.164 56.315z" fill="none" stroke="#45413c" stroke-linecap="round" stroke-linejoin="round"></path><path d="M13.914 56.315L10.914 53.315 7.914 56.315 7.914 74.315 13.914 74.315 13.914 56.315z" fill="#fff"></path><path d="M7.914 71.315H13.914V74.315H7.914z" fill="#f0f0f0"></path><path d="M13.914 56.315L10.914 53.315 7.914 56.315 7.914 74.315 13.914 74.315 13.914 56.315z" fill="none" stroke="#45413c" stroke-linecap="round" stroke-linejoin="round"></path><path d="M36.164 56.315L33.164 53.315 30.164 56.315 30.164 74.315 36.164 74.315 36.164 56.315z" fill="#fff"></path><path d="M30.164 71.219H36.164V74.315H30.164z" fill="#f0f0f0"></path><path d="M36.164 56.315L33.164 53.315 30.164 56.315 30.164 74.315 36.164 74.315 36.164 56.315z" fill="none" stroke="#45413c" stroke-linecap="round" stroke-linejoin="round"></path><path d="M47.164 56.315L44.164 53.315 41.164 56.315 41.164 74.315 47.164 74.315 47.164 56.315z" fill="#fff"></path><path d="M41.164 71.219H47.164V74.315H41.164z" fill="#f0f0f0"></path><path d="M47.164 56.315L44.164 53.315 41.164 56.315 41.164 74.315 47.164 74.315 47.164 56.315z" fill="none" stroke="#45413c" stroke-linecap="round" stroke-linejoin="round"></path><path d="M12.8,74.316a40.484,40.484,0,0,0,64.382,0Z" fill="#9ceb60"></path><path d="M76.827 74.316L4.989 74.316" fill="none" stroke="#45413c" stroke-linecap="round" stroke-linejoin="round"></path><path d="M17.745 78.816L23.049 78.816" fill="none" stroke="#46b000" stroke-linecap="round" stroke-linejoin="round"></path><path d="M38.76 78.816L44.064 78.816" fill="none" stroke="#46b000" stroke-linecap="round" stroke-linejoin="round"></path><path d="M28.122 83.816L33.426 83.816" fill="none" stroke="#46b000" stroke-linecap="round" stroke-linejoin="round"></path><path d="M48.759 83.816L54.063 83.816" fill="none" stroke="#46b000" stroke-linecap="round" stroke-linejoin="round"></path><path d="M60.949 78.816L66.253 78.816" fill="none" stroke="#46b000" stroke-linecap="round" stroke-linejoin="round"></path><path d="M7.914 81.408 A21.438 2.308 0 1 0 50.790 81.408 A21.438 2.308 0 1 0 7.914 81.408 Z" fill="#45413c" opacity=".15"></path><path d="M20.194 29.839 A7.028 7.028 0 1 0 34.250 29.839 A7.028 7.028 0 1 0 20.194 29.839 Z" fill="#ffe500"></path><path d="M34.051,31.5a7.02,7.02,0,0,0-13.659,0,7.029,7.029,0,1,1,13.659,0Z" fill="#fff48c"></path><path d="M20.194 29.839 A7.028 7.028 0 1 0 34.250 29.839 A7.028 7.028 0 1 0 20.194 29.839 Z" fill="none" stroke="#45413c" stroke-linecap="round" stroke-linejoin="round"></path><path d="M27.222 20.001L27.222 17.892" fill="none" stroke="#45413c" stroke-linecap="round" stroke-linejoin="round"></path><path d="M34.179 22.883L35.67 21.392" fill="none" stroke="#45413c" stroke-linecap="round" stroke-linejoin="round"></path><path d="M37.061 29.839L39.169 29.839" fill="none" stroke="#45413c" stroke-linecap="round" stroke-linejoin="round"></path><path d="M34.179 36.796L35.67 38.287" fill="none" stroke="#45413c" stroke-linecap="round" stroke-linejoin="round"></path><path d="M27.222 39.678L27.222 41.786" fill="none" stroke="#45413c" stroke-linecap="round" stroke-linejoin="round"></path><path d="M20.265 36.796L18.774 38.287" fill="none" stroke="#45413c" stroke-linecap="round" stroke-linejoin="round"></path><path d="M17.383 29.839L15.275 29.839" fill="none" stroke="#45413c" stroke-linecap="round" stroke-linejoin="round"></path><path d="M20.265 22.883L18.774 21.392" fill="none" stroke="#45413c" stroke-linecap="round" stroke-linejoin="round"></path><path d="M50.789 82.072 A6.375 1.531 0 1 0 63.539 82.072 A6.375 1.531 0 1 0 50.789 82.072 Z" fill="#45413c" opacity=".15"></path><path d="M38.920 85.816 A6.375 1.531 0 1 0 51.670 85.816 A6.375 1.531 0 1 0 38.920 85.816 Z" fill="#45413c" opacity=".15"></path><path d="M75.705,21.587a4.25,4.25,0,0,0-1.537.3,7.09,7.09,0,0,0-14.008,0,4.267,4.267,0,1,0-1.537,8.245H75.705a4.271,4.271,0,1,0,0-8.541Z" fill="#fff" stroke="#45413c" stroke-linecap="round" stroke-linejoin="round"></path><path d="M36.143,67.932a6.867,6.867,0,0,0-13.734,0A6.867,6.867,0,0,0,15.541,74.8c0,1.916-5.709,4.861-4.444,6.106.929.914,8.611.353,9.938.623l15.108.138c1.74,0,9.422.532,10.632-.535C48.2,79.874,43.01,76.853,43.01,74.8A6.867,6.867,0,0,0,36.143,67.932Z" fill="#b89558"></path><path d="M45.227,81.619c-1.068-1.11-2.216-2.289-2.216-3.255A6.868,6.868,0,0,0,36.143,71.5a6.868,6.868,0,0,0-13.735,0,6.866,6.866,0,0,0-6.866,6.868c0,.876-1.194,1.967-2.37,3.013a4.157,4.157,0,0,1-2.075-.471c-1.265-1.245,4.444-4.19,4.444-6.106a6.867,6.867,0,0,1,6.868-6.868,6.867,6.867,0,0,1,13.734,0A6.867,6.867,0,0,1,43.01,74.8c0,2.053,5.193,5.074,3.765,6.332A3.279,3.279,0,0,1,45.227,81.619Z" fill="#debb7e"></path><path d="M36.143,67.932a6.867,6.867,0,0,0-13.734,0A6.867,6.867,0,0,0,15.541,74.8c0,1.916-5.709,4.861-4.444,6.106.929.914,8.611.353,9.938.623l15.108.138c1.74,0,9.422.532,10.632-.535C48.2,79.874,43.01,76.853,43.01,74.8A6.867,6.867,0,0,0,36.143,67.932Z" fill="none" stroke="#45413c" stroke-linecap="round" stroke-linejoin="round"></path><path d="M23.263,62.918l-1.455.731-1.133-2.256-2.342,1.176,1.134,2.256-1.422.715c1.176,3.542,3.344,5.91,6.713,6.858C25.948,69.651,25.417,66.457,23.263,62.918Z" fill="#daedf7"></path><path d="M18.045,65.54A9.293,9.293,0,0,0,23,68.821a8.579,8.579,0,0,0,.262-5.9c2.154,3.539,2.685,6.733,1.495,9.48C21.389,71.45,19.221,69.082,18.045,65.54Z" fill="#c0dceb"></path><path d="M23.263,62.918l-1.455.731-1.133-2.256-2.342,1.176,1.134,2.256-1.422.715c1.176,3.542,3.344,5.91,6.713,6.858C25.948,69.651,25.417,66.457,23.263,62.918Z" fill="none" stroke="#45413c" stroke-linecap="round" stroke-linejoin="round"></path><path d="M16.593,55.632l-.411.206a1.546,1.546,0,0,0-.688,2.075l2.44,4.857,3.174-1.6-2.44-4.856A1.545,1.545,0,0,0,16.593,55.632Z" fill="#ff6242"></path><path d="M19.69,58.353a1.776,1.776,0,0,0-3.174,1.594l-1.022-2.034a1.546,1.546,0,0,1,.688-2.075l.411-.206a1.545,1.545,0,0,1,2.075.687Z" fill="#ff866e"></path><path d="M16.593,55.632l-.411.206a1.546,1.546,0,0,0-.688,2.075l2.44,4.857,3.174-1.6-2.44-4.856A1.545,1.545,0,0,0,16.593,55.632Z" fill="none" stroke="#45413c" stroke-linecap="round" stroke-linejoin="round"></path><path d="M32.3,72.387a2.6,2.6,0,0,0-3.321-1.561A2.595,2.595,0,1,0,24.1,72.585a2.594,2.594,0,0,0-1.562,3.321" fill="#b89558" stroke="#45413c" stroke-linecap="round" stroke-linejoin="round"></path><path d="M57.4,51.211a4.057,4.057,0,0,0-8.113,0,4.057,4.057,0,0,0-.811,8.032l8.924.081a4.057,4.057,0,1,0,0-8.113Z" fill="#6dd627"></path><path d="M61.269,56.5A4.056,4.056,0,0,0,57.4,53.678a4.057,4.057,0,1,0-8.113,0A4.055,4.055,0,0,0,45.426,56.5a4.059,4.059,0,0,1,3.865-5.293,4.057,4.057,0,0,1,8.113,0A4.058,4.058,0,0,1,61.269,56.5Z" fill="#9ceb60"></path><path d="M57.4,51.211a4.057,4.057,0,0,0-8.113,0,4.057,4.057,0,0,0-.811,8.032l8.924.081a4.057,4.057,0,1,0,0-8.113Z" fill="none" stroke="#45413c" stroke-linecap="round" stroke-linejoin="round"></path><path d="M75.918,48.383a6.6,6.6,0,1,0-13.192,0,6.6,6.6,0,0,0-1.319,13.06l14.511.133a6.6,6.6,0,1,0,0-13.193Z" fill="#6dd627"></path><path d="M82.2,56.988a6.6,6.6,0,0,0-6.285-4.595,6.6,6.6,0,0,0-13.192,0,6.6,6.6,0,0,0-6.285,4.6,6.6,6.6,0,0,1,6.285-8.607,6.6,6.6,0,1,1,13.192,0,6.6,6.6,0,0,1,6.285,8.6Z" fill="#9ceb60"></path><path d="M75.918,48.383a6.6,6.6,0,1,0-13.192,0,6.6,6.6,0,0,0-1.319,13.06l14.511.133a6.6,6.6,0,1,0,0-13.193Z" fill="none" stroke="#45413c" stroke-linecap="round" stroke-linejoin="round"></path><path d="M67.491,47.155a1.12,1.12,0,0,0-1.119-1.12h-.188l.133-.132a1.12,1.12,0,1,0-1.584-1.584l-.132.132v-.187a1.12,1.12,0,1,0-2.24,0v.187l-.132-.132A1.12,1.12,0,0,0,60.645,45.9l.132.132H60.59a1.12,1.12,0,0,0,0,2.24h.187l-.132.132a1.12,1.12,0,1,0,1.584,1.584l.132-.133v.188a1.12,1.12,0,0,0,2.24,0v-.188l.132.133a1.12,1.12,0,1,0,1.584-1.584l-.133-.132h.188A1.12,1.12,0,0,0,67.491,47.155Z" fill="#bf8df2" stroke="#45413c" stroke-linecap="round" stroke-linejoin="round"></path><path d="M62.091 47.155 A1.390 1.390 0 1 0 64.871 47.155 A1.390 1.390 0 1 0 62.091 47.155 Z" fill="#ffe500"></path><path d="M62.091 47.155 A1.390 1.390 0 1 0 64.871 47.155 A1.390 1.390 0 1 0 62.091 47.155 Z" fill="#ffe500"></path><path d="M62.091 47.155 A1.390 1.390 0 1 0 64.871 47.155 A1.390 1.390 0 1 0 62.091 47.155 Z" fill="none" stroke="#45413c" stroke-linecap="round" stroke-linejoin="round"></path><path d="M82.515,50.892a1.121,1.121,0,0,0-1.12-1.12h-.187l.132-.132a1.12,1.12,0,0,0-1.584-1.584l-.132.133V48a1.12,1.12,0,0,0-2.24,0v.187l-.132-.133a1.12,1.12,0,0,0-1.584,1.584l.133.132h-.187a1.12,1.12,0,0,0,0,2.24H75.8l-.133.132a1.12,1.12,0,0,0,1.584,1.584l.132-.132v.187a1.12,1.12,0,1,0,2.24,0V53.6l.132.132a1.12,1.12,0,0,0,1.584-1.584l-.132-.132H81.4A1.12,1.12,0,0,0,82.515,50.892Z" fill="#bf8df2" stroke="#45413c" stroke-linecap="round" stroke-linejoin="round"></path><path d="M77.114 50.892 A1.390 1.390 0 1 0 79.894 50.892 A1.390 1.390 0 1 0 77.114 50.892 Z" fill="#ffe500"></path><path d="M77.114 50.892 A1.390 1.390 0 1 0 79.894 50.892 A1.390 1.390 0 1 0 77.114 50.892 Z" fill="#ffe500"></path><path d="M77.114 50.892 A1.390 1.390 0 1 0 79.894 50.892 A1.390 1.390 0 1 0 77.114 50.892 Z" fill="none" stroke="#45413c" stroke-linecap="round" stroke-linejoin="round"></path><path d="M77.65,69.92l-2.842,6.393a2.634,2.634,0,0,1-4.121.93l-5.172-4.434" fill="none" stroke="#45413c" stroke-linecap="round" stroke-linejoin="round"></path><path d="M77.65 69.92L55.193 75.267 46.733 60.296 81.856 60.296 77.65 69.92z" fill="#ff6242"></path><path d="M80.836 62.631L81.856 60.296 46.733 60.296 48.049 62.631 80.836 62.631z" fill="#e04122"></path><path d="M77.65 69.92L55.193 75.267 46.733 60.296 81.856 60.296 77.65 69.92z" fill="none" stroke="#45413c" stroke-linecap="round" stroke-linejoin="round"></path><path d="M44.499 57.088 L84.065 57.088 L84.065 60.296 L44.499 60.296 Z" fill="#ff6242"></path><path d="M44.5,58.5v.395a1.486,1.486,0,0,0,.194.645,1.6,1.6,0,0,1,1.406-.847H82.462a1.6,1.6,0,0,1,1.406.847,1.479,1.479,0,0,0,.2-.733v-.227a1.5,1.5,0,0,0-1.5-1.491H46A1.5,1.5,0,0,0,44.5,58.5Z" fill="#ff866e"></path><path d="M44.499 57.088 L84.065 57.088 L84.065 60.296 L44.499 60.296 Z" fill="none" stroke="#45413c" stroke-linecap="round" stroke-linejoin="round"></path><path d="M48.388 75.267 A6.805 6.805 0 1 0 61.998 75.267 A6.805 6.805 0 1 0 48.388 75.267 Z" fill="#656769"></path><path d="M50.916 75.267 A4.277 4.277 0 1 0 59.470 75.267 A4.277 4.277 0 1 0 50.916 75.267 Z" fill="#87898c"></path><path d="M50.916 75.267 A4.277 4.277 0 1 0 59.470 75.267 A4.277 4.277 0 1 0 50.916 75.267 Z" fill="none" stroke="#45413c" stroke-linecap="round" stroke-linejoin="round"></path><path d="M61.94,76.161a6.8,6.8,0,0,0-13.494,0,6.944,6.944,0,0,1-.058-.894,6.805,6.805,0,0,1,13.61,0A6.944,6.944,0,0,1,61.94,76.161Z" fill="#87898c"></path><path d="M48.388 75.267 A6.805 6.805 0 1 0 61.998 75.267 A6.805 6.805 0 1 0 48.388 75.267 Z" fill="none" stroke="#45413c" stroke-linecap="round" stroke-linejoin="round"></path><path d="M55.193 75.267L81.927 68.851 87.274 58.157 87.373 58.157" fill="none" stroke="#45413c" stroke-linecap="round" stroke-linejoin="round"></path><path d="M87.274 56.018 L95.829 56.018 L95.829 59.226 L87.274 59.226 Z" fill="#656769"></path><path d="M87.274,57.518v.208a1.5,1.5,0,0,0,.2.744,1.6,1.6,0,0,1,1.407-.848h5.347a1.6,1.6,0,0,1,1.406.848,1.487,1.487,0,0,0,.2-.744v-.208a1.5,1.5,0,0,0-1.5-1.5H88.774A1.5,1.5,0,0,0,87.274,57.518Z" fill="#87898c"></path><path d="M87.274 56.018 L95.829 56.018 L95.829 59.226 L87.274 59.226 Z" fill="none" stroke="#45413c" stroke-linecap="round" stroke-linejoin="round"></path><path d="M50.388 53.986 A1.300 1.300 0 1 0 52.988 53.986 A1.300 1.300 0 1 0 50.388 53.986 Z" fill="#ffe500"></path><path d="M50.388 53.986 A1.300 1.300 0 1 0 52.988 53.986 A1.300 1.300 0 1 0 50.388 53.986 Z" fill="none" stroke="#45413c" stroke-linecap="round" stroke-linejoin="round"></path><path d="M55.438,53.986a1.047,1.047,0,0,0-1.047-1.047h-.175l.124-.124a1.047,1.047,0,1,0-1.481-1.481l-.124.124v-.175a1.047,1.047,0,1,0-2.094,0v.175l-.124-.124a1.047,1.047,0,1,0-1.481,1.481l.124.124h-.175a1.047,1.047,0,1,0,0,2.094h.175l-.124.124a1.047,1.047,0,0,0,1.481,1.481l.124-.124v.175a1.047,1.047,0,1,0,2.094,0v-.175l.124.124a1.047,1.047,0,0,0,1.481-1.481l-.124-.124h.175A1.047,1.047,0,0,0,55.438,53.986Zm-2.482.28c-.006.03-.018.057-.026.086a1.419,1.419,0,0,1-.062.173c-.014.031-.032.061-.049.091a1.274,1.274,0,0,1-.089.14,1.07,1.07,0,0,1-.068.083c-.019.022-.04.041-.061.062s-.039.041-.06.059a1.07,1.07,0,0,1-.083.068,1.274,1.274,0,0,1-.14.089c-.03.017-.06.035-.091.049a1.266,1.266,0,0,1-.173.061c-.029.009-.056.02-.086.027a1.241,1.241,0,0,1-.56,0c-.03-.007-.057-.018-.086-.027a1.266,1.266,0,0,1-.173-.061c-.031-.014-.061-.032-.091-.049a1.274,1.274,0,0,1-.14-.089,1.07,1.07,0,0,1-.083-.068c-.021-.019-.04-.039-.059-.059s-.043-.04-.062-.062a1.07,1.07,0,0,1-.068-.083,1.274,1.274,0,0,1-.089-.14c-.017-.03-.035-.06-.049-.091a1.266,1.266,0,0,1-.061-.173.857.857,0,0,1-.027-.086,1.241,1.241,0,0,1,0-.56.857.857,0,0,1,.027-.086,1.144,1.144,0,0,1,.061-.173c.014-.031.032-.061.049-.091a1.274,1.274,0,0,1,.089-.14,1.07,1.07,0,0,1,.068-.083c.019-.022.041-.042.062-.063s.038-.04.059-.058.054-.047.083-.069a1.434,1.434,0,0,1,.14-.088c.03-.016.06-.035.091-.049a1.269,1.269,0,0,1,.173-.062c.029-.008.056-.02.086-.026a1.241,1.241,0,0,1,.56,0c.03.006.057.018.086.026a1.269,1.269,0,0,1,.173.062c.031.014.061.032.091.049a1.434,1.434,0,0,1,.14.088c.029.022.056.045.083.069s.041.04.061.061.041.039.06.06a1.07,1.07,0,0,1,.068.083,1.274,1.274,0,0,1,.089.14c.017.03.035.06.049.091a1.266,1.266,0,0,1,.061.173.857.857,0,0,1,.027.086,1.241,1.241,0,0,1,0,.56Z" fill="#bf8df2" stroke="#45413c" stroke-linecap="round" stroke-linejoin="round"></path><path d="M49.341,74.633l-9.417-.718h0a3,3,0,0,1,3-3h0a.911.911,0,0,1,.8.35,7.063,7.063,0,0,0,3.676,2.824Z" fill="#4acfff" stroke="#45413c" stroke-linecap="round" stroke-linejoin="round"></path><path d="M50.07,79.915h-.146v-4h.146a2,2,0,1,1,0,4Z" fill="none" stroke="#45413c" stroke-linecap="round" stroke-linejoin="round"></path><path d="M53.978,77.043a4.06,4.06,0,0,0-4.012-3.128H39.924l.388,4.262L37.591,76.1l-.7-2.344c-1.361.23-3.019,1.4-2.552,3.114l2.42.355h0l3.848,4.181.318,3.507a13.19,13.19,0,0,0,9,0v-3h.146A4,4,0,0,0,53.978,77.043ZM50.07,79.915h-.146v-4h.146a2,2,0,1,1,0,4Z" fill="#4acfff"></path><path d="M40.606,81.408l.318,3.507a13.19,13.19,0,0,0,9,0v-2.48a13.179,13.179,0,0,1-9,0Z" fill="#00b8f0"></path><path d="M53.978,77.043a4.06,4.06,0,0,0-4.012-3.128H39.924l.388,4.262L37.591,76.1l-.7-2.344c-1.361.23-3.019,1.4-2.552,3.114l2.42.355h0l3.848,4.181.318,3.507a13.19,13.19,0,0,0,9,0v-3h.146A4,4,0,0,0,53.978,77.043ZM50.07,79.915h-.146v-4h.146a2,2,0,1,1,0,4Z" fill="none" stroke="#45413c" stroke-linecap="round" stroke-linejoin="round"></path></g></svg>