<svg width="160" height="160" viewBox="0 0 160 160" fill="none" xmlns="http://www.w3.org/2000/svg">
<path d="M16 80C16 96.9739 22.7428 113.253 34.7452 125.255C46.7475 137.257 63.0261 144 80 144C96.9739 144 113.253 137.257 125.255 125.255C137.257 113.253 144 96.9739 144 80C144 63.0261 137.257 46.7475 125.255 34.7452C113.253 22.7428 96.9739 16 80 16C63.0261 16 46.7475 22.7428 34.7452 34.7452C22.7428 46.7475 16 63.0261 16 80V80Z" fill="#CDF2FF"/>
<path d="M13.752 97.576C12.536 97.576 11.448 97.384 10.488 97C9.528 96.648 8.712 96.152 8.04 95.512C7.368 94.84 6.84 94.072 6.456 93.208C6.104 92.344 5.928 91.4 5.928 90.376C5.928 89.032 6.216 87.864 6.792 86.872C7.368 85.848 8.28 84.984 9.528 84.28C10.808 83.576 12.44 83.016 14.424 82.6C16.408 82.152 18.808 81.848 21.624 81.688C21.496 80.6 21.016 79.752 20.184 79.144C19.384 78.536 18.168 78.232 16.536 78.232C15.384 78.232 14.216 78.44 13.032 78.856C11.88 79.24 10.632 79.768 9.288 80.44L6.792 75.832C8.424 74.904 10.168 74.136 12.024 73.528C13.912 72.92 15.88 72.616 17.928 72.616C21.256 72.616 23.88 73.496 25.8 75.256C27.72 77.016 28.68 79.72 28.68 83.368V97H22.92L22.392 94.312H22.2C20.984 95.24 19.656 96.024 18.216 96.664C16.776 97.272 15.288 97.576 13.752 97.576ZM16.008 92.104C17.064 92.104 18.056 91.896 18.984 91.48C19.912 91.032 20.792 90.488 21.624 89.848V85.912C19.864 86.008 18.408 86.168 17.256 86.392C16.104 86.616 15.192 86.904 14.52 87.256C13.848 87.576 13.368 87.96 13.08 88.408C12.824 88.856 12.696 89.336 12.696 89.848C12.696 90.616 12.984 91.192 13.56 91.576C14.168 91.928 14.984 92.104 16.008 92.104ZM45.9892 92.488V83.656H37.5412V78.664H45.9892V69.832H51.1732V78.664H59.6213V83.656H51.1732V92.488H45.9892ZM81.5865 97.576C80.4665 97.576 79.3465 97.304 78.2265 96.76C77.1385 96.216 76.0985 95.432 75.1065 94.408H74.9145L74.3385 97H68.8185V63.352H75.8745V71.608L75.6345 75.352H75.7785C76.6745 74.488 77.6985 73.816 78.8505 73.336C80.0025 72.856 81.1545 72.616 82.3065 72.616C83.7785 72.616 85.1065 72.904 86.2905 73.48C87.5065 74.056 88.5145 74.872 89.3145 75.928C90.1465 76.952 90.7865 78.216 91.2345 79.72C91.6825 81.192 91.9065 82.84 91.9065 84.664C91.9065 86.712 91.6185 88.536 91.0425 90.136C90.4665 91.736 89.6985 93.096 88.7385 94.216C87.7785 95.304 86.6745 96.136 85.4265 96.712C84.2105 97.288 82.9305 97.576 81.5865 97.576ZM80.0025 91.816C81.3145 91.816 82.4185 91.272 83.3145 90.184C84.2105 89.064 84.6585 87.272 84.6585 84.808C84.6585 80.52 83.2025 78.376 80.2905 78.376C78.7865 78.376 77.3145 79.112 75.8745 80.584V90.232C76.5465 90.808 77.2345 91.224 77.9385 91.48C78.6745 91.704 79.3625 91.816 80.0025 91.816ZM105.376 92.632L102.304 90.52L106.96 82.984L99.6157 79.72L100.72 76.312L108.496 78.376L109.072 69.832H112.816L113.392 78.376L121.168 76.312L122.272 79.72L114.928 82.984L119.584 90.52L116.512 92.632L110.944 85.816L105.376 92.632ZM141.069 97V78.712H131.517V73.192H148.125V97H141.069ZM144.285 69.448C142.909 69.448 141.773 69.064 140.877 68.296C140.013 67.528 139.581 66.488 139.581 65.176C139.581 63.864 140.013 62.808 140.877 62.008C141.773 61.176 142.909 60.76 144.285 60.76C145.661 60.76 146.781 61.176 147.645 62.008C148.541 62.808 148.989 63.864 148.989 65.176C148.989 66.488 148.541 67.528 147.645 68.296C146.781 69.064 145.661 69.448 144.285 69.448Z" fill="url(#paint0_linear)"/>
<defs>
<linearGradient id="paint0_linear" x1="80" y1="39" x2="80" y2="121" gradientUnits="userSpaceOnUse">
<stop stop-color="#2200FF"/>
<stop offset="1" stop-color="#9E00FF"/>
</linearGradient>
</defs>
</svg>
