<svg xmlns="http://www.w3.org/2000/svg" version="1.1" xmlns:xlink="http://www.w3.org/1999/xlink" xmlns:svgjs="http://svgjs.com/svgjs" viewBox="0 0 160 160" width="160" height="160"><g transform="matrix(1.6,0,0,1.6,0,0)"><path d="M10.000 49.206 A40.000 40.000 0 1 0 90.000 49.206 A40.000 40.000 0 1 0 10.000 49.206 Z" fill="#c7f0ff" stroke="#c7f0ff" stroke-miterlimit="10"></path><path d="M68.275 25.598L16.406 25.598" fill="none" stroke="#4acfff" stroke-linecap="round" stroke-linejoin="round"></path><path d="M86.599 40.061L13.499 40.061" fill="none" stroke="#4acfff" stroke-linecap="round" stroke-linejoin="round"></path><path d="M78.044 54.525L39.314 54.525" fill="none" stroke="#4acfff" stroke-linecap="round" stroke-linejoin="round"></path><path d="M75.424 68.988L45.523 68.988" fill="none" stroke="#4acfff" stroke-linecap="round" stroke-linejoin="round"></path><path d="M67.962 83.452L42.282 83.452" fill="none" stroke="#4acfff" stroke-linecap="round" stroke-linejoin="round"></path><path d="M68.275 83.147L68.275 25.598" fill="none" stroke="#4acfff" stroke-linecap="round" stroke-linejoin="round"></path><path d="M53.812 90.794L53.812 13.347" fill="none" stroke="#4acfff" stroke-linecap="round" stroke-linejoin="round"></path><path d="M39.314 51.84L39.348 17.967" fill="none" stroke="#4acfff" stroke-linecap="round" stroke-linejoin="round"></path><path d="M24.885 51.84L24.885 17.967" fill="none" stroke="#4acfff" stroke-linecap="round" stroke-linejoin="round"></path><path d="M77.41 34.904L82.602 40.095" fill="none" stroke="#4acfff" stroke-linecap="round" stroke-linejoin="round"></path><path d="M46.173 17.967L79.875 51.669" fill="none" stroke="#4acfff" stroke-linecap="round" stroke-linejoin="round"></path><path d="M20.137 20.361L75.375 75.599" fill="none" stroke="#4acfff" stroke-linecap="round" stroke-linejoin="round"></path><path d="M39.314 54.212L68.249 83.147" fill="none" stroke="#4acfff" stroke-linecap="round" stroke-linejoin="round"></path><path d="M44.591 74.685L60.819 90.586" fill="none" stroke="#4acfff" stroke-linecap="round" stroke-linejoin="round"></path><path d="M14.095 28.994L36.942 51.841" fill="none" stroke="#4acfff" stroke-linecap="round" stroke-linejoin="round"></path><path d="M27.569 51.84L60.958 18.451" fill="none" stroke="#4acfff" stroke-linecap="round" stroke-linejoin="round"></path><path d="M18.191 46.755L46.979 17.967" fill="none" stroke="#4acfff" stroke-linecap="round" stroke-linejoin="round"></path><path d="M12.262 38.203L32.498 17.967" fill="none" stroke="#4acfff" stroke-linecap="round" stroke-linejoin="round"></path><path d="M43.45 64.856L75.4 32.905" fill="none" stroke="#4acfff" stroke-linecap="round" stroke-linejoin="round"></path><path d="M68.172 54.525L82.602 40.095" fill="none" stroke="#4acfff" stroke-linecap="round" stroke-linejoin="round"></path><path d="M48.981 88.282L75.396 61.867" fill="none" stroke="#4acfff" stroke-linecap="round" stroke-linejoin="round"></path><path d="M56.4,13.891a2.419,2.419,0,0,0-3.426,0L49.62,17.251a2.422,2.422,0,0,1-1.719.716H23.014A2.423,2.423,0,0,0,21.031,19L10.858,33.513a2.42,2.42,0,0,0,0,2.779L21.031,50.809a2.425,2.425,0,0,0,1.983,1.031h16.3V59a2.426,2.426,0,0,0,.567,1.558l2.634,3.134L45,66.844a2.418,2.418,0,0,1,.521,1.5v3.818l-3.319,9.5a2.422,2.422,0,0,0,.963,2.827L52.228,90.4a2.417,2.417,0,0,0,1.323.393h6.433a2.422,2.422,0,0,0,1.761-.759L75.424,75.55V58.613l10.129-15.8c.208-.323,1.03-2.649,1.734-4.694A2.421,2.421,0,0,0,85,34.9H77.41L68.275,25.6l-7.317-7.147Z" fill="none" stroke="#4acfff" stroke-linecap="round" stroke-linejoin="round"></path><path d="M39.314 54.525L67.809 25.598" fill="none" stroke="#45413c" stroke-linecap="round" stroke-linejoin="round"></path><path d="M31.427 19.038L39.314 54.525" fill="none" stroke="#45413c" stroke-linecap="round" stroke-linejoin="round"></path><path d="M39.314 54.525L45.221 77.475" fill="none" stroke="#45413c" stroke-linecap="round" stroke-linejoin="round"></path><path d="M68.27 25.189L68.27 49.778" fill="none" stroke="#45413c" stroke-linecap="round" stroke-linejoin="round"></path><path d="M31.496 17.967L68.275 25.189" fill="none" stroke="#45413c" stroke-linecap="round" stroke-linejoin="round"></path><path d="M45.221 77.475L68.61 54.087" fill="none" stroke="#45413c" stroke-linecap="round" stroke-linejoin="round"></path><path d="M68.172 54.525L31.496 17.967" fill="none" stroke="#45413c" stroke-linecap="round" stroke-linejoin="round"></path><path d="M60.492 54.605 A7.914 7.914 0 1 0 76.320 54.605 A7.914 7.914 0 1 0 60.492 54.605 Z" fill="#ff6242"></path><path d="M76.14,56.291a7.914,7.914,0,1,0-15.468,0c.766-3.569,4.579-5.692,7.734-5.692C70.952,50.6,75.373,52.722,76.14,56.291Z" fill="#ff866e"></path><path d="M60.492 54.605 A7.914 7.914 0 1 0 76.320 54.605 A7.914 7.914 0 1 0 60.492 54.605 Z" fill="none" stroke="#45413c" stroke-linecap="round" stroke-linejoin="round"></path><path d="M35.916 54.586 A3.517 3.517 0 1 0 42.950 54.586 A3.517 3.517 0 1 0 35.916 54.586 Z" fill="#4acfff"></path><path d="M42.871,55.335a3.518,3.518,0,1,0-6.875,0c.341-1.586,2.72-2.133,3.437-2.133C40.192,53.2,42.53,53.749,42.871,55.335Z" fill="#80ddff"></path><path d="M35.916 54.586 A3.517 3.517 0 1 0 42.950 54.586 A3.517 3.517 0 1 0 35.916 54.586 Z" fill="none" stroke="#45413c" stroke-linecap="round" stroke-linejoin="round"></path><path d="M64.753 25.189 A3.517 3.517 0 1 0 71.787 25.189 A3.517 3.517 0 1 0 64.753 25.189 Z" fill="#4acfff"></path><path d="M71.707,25.938a3.518,3.518,0,1,0-6.875,0c.341-1.586,2.765-1.975,3.438-1.975C69,23.963,71.366,24.352,71.707,25.938Z" fill="#80ddff"></path><path d="M64.753 25.189 A3.517 3.517 0 1 0 71.787 25.189 A3.517 3.517 0 1 0 64.753 25.189 Z" fill="none" stroke="#45413c" stroke-linecap="round" stroke-linejoin="round"></path><path d="M41.319 77.071 A3.517 3.517 0 1 0 48.353 77.071 A3.517 3.517 0 1 0 41.319 77.071 Z" fill="#ffe500"></path><path d="M48.273,77.82a3.517,3.517,0,1,0-6.874,0c.34-1.586,2.538-2.3,3.437-2.3C45.905,75.52,47.933,76.234,48.273,77.82Z" fill="#fff48c"></path><path d="M41.319 77.071 A3.517 3.517 0 1 0 48.353 77.071 A3.517 3.517 0 1 0 41.319 77.071 Z" fill="none" stroke="#45413c" stroke-linecap="round" stroke-linejoin="round"></path><path d="M25.931 17.783 A5.496 5.496 0 1 0 36.923 17.783 A5.496 5.496 0 1 0 25.931 17.783 Z" fill="#ffe500"></path><path d="M36.8,18.954a5.5,5.5,0,1,0-10.741,0,6.634,6.634,0,0,1,5.37-3.441A6.209,6.209,0,0,1,36.8,18.954Z" fill="#fff48c"></path><path d="M25.931 17.783 A5.496 5.496 0 1 0 36.923 17.783 A5.496 5.496 0 1 0 25.931 17.783 Z" fill="none" stroke="#45413c" stroke-linecap="round" stroke-linejoin="round"></path></g></svg>