<svg viewBox="0 0 160 160" height="160" width="160" xmlns="http://www.w3.org/2000/svg"><g transform="matrix(1.6,0,0,1.6,0,0)"><path d="M10.000 50.000 A40.000 40.000 0 1 0 90.000 50.000 A40.000 40.000 0 1 0 10.000 50.000 Z" fill="#C7F0FF" stroke="#C7F0FF"></path><path d="M31.717 82.273 A14.922 1.599 0 1 0 61.561 82.273 A14.922 1.599 0 1 0 31.717 82.273 Z" fill="#45413c" opacity=".15"></path><path d="M59.962,80.674A4.263,4.263,0,0,0,55.7,76.41H37.579a4.264,4.264,0,0,0-4.263,4.264,1.066,1.066,0,0,0,1.066,1.066H58.9A1.065,1.065,0,0,0,59.962,80.674Z" fill="#C7F0FF" stroke="#45413c" stroke-linecap="round" stroke-linejoin="round"></path><path d="M39.711 73.213H53.567V76.41099999999999H39.711z" fill="#c0dceb" stroke="#45413c" stroke-linecap="round" stroke-linejoin="round"></path><path d="M75.95,66.818H17.328v1.066a5.329,5.329,0,0,0,5.329,5.329H70.621a5.329,5.329,0,0,0,5.329-5.329Z" fill="#fff" stroke="#45413c" stroke-linecap="round" stroke-linejoin="round"></path><path d="M75.95,32.71a5.329,5.329,0,0,0-5.329-5.329H22.657a5.329,5.329,0,0,0-5.329,5.329V66.818H75.95Z" fill="#00b8f0"></path><path d="M62.094,27.381H22.657a5.329,5.329,0,0,0-5.329,5.329V66.818Z" fill="#4acfff"></path><path d="M70.621,27.381A5.33,5.33,0,0,1,75.95,32.71V63.62H30.118a4.262,4.262,0,0,1-4.263-4.263V59.3L62.094,27.381Z" fill="#009fd9"></path><path d="M62.094 27.381L25.855 59.303 25.855 27.381 62.094 27.381z" fill="#4acfff"></path><path d="M25.855,27.381V59.3l-8.527,7.515V32.71a5.331,5.331,0,0,1,5.329-5.329Z" fill="#80ddff"></path><path d="M75.95,32.71a5.329,5.329,0,0,0-5.329-5.329H22.657a5.329,5.329,0,0,0-5.329,5.329V66.818H75.95Z" fill="none" stroke="#45413c" stroke-linecap="round" stroke-linejoin="round"></path><path d="M45.536 70.015 A1.103 1.103 0 1 0 47.742 70.015 A1.103 1.103 0 1 0 45.536 70.015 Z" fill="#45413c"></path><path d="M85.564,57.864a2.566,2.566,0,0,1-2.558,2.559H32.676a2.566,2.566,0,0,1-2.558-2.559V25.548H85.564Z" fill="#b8ecff" stroke="#45413c" stroke-linecap="round" stroke-linejoin="round"></path><path d="M85.564,25.548H30.118V19.28a2.565,2.565,0,0,1,2.558-2.558h50.33a2.565,2.565,0,0,1,2.558,2.558Z" fill="#fff" stroke="#45413c" stroke-linecap="round" stroke-linejoin="round"></path><path d="M33.060 21.135 A1.654 1.654 0 1 0 36.368 21.135 A1.654 1.654 0 1 0 33.060 21.135 Z" fill="#ff6242" stroke="#ff6242" stroke-linecap="round" stroke-linejoin="round"></path><path d="M39.675 21.135 A1.654 1.654 0 1 0 42.983 21.135 A1.654 1.654 0 1 0 39.675 21.135 Z" fill="#ffe500" stroke="#ffe500" stroke-linecap="round" stroke-linejoin="round"></path><path d="M46.290 21.135 A1.654 1.654 0 1 0 49.598 21.135 A1.654 1.654 0 1 0 46.290 21.135 Z" fill="#6dd627" stroke="#6dd627" stroke-linecap="round" stroke-linejoin="round"></path><path d="M61.028 51.896L78.082 51.896" fill="none" stroke="#45413c" stroke-linecap="round" stroke-linejoin="round"></path><path d="M56.765 55.093L68.489 55.093" fill="none" stroke="#45413c" stroke-linecap="round" stroke-linejoin="round"></path><path d="M51.436,48.7a7.461,7.461,0,1,1-7.461-7.461,5.823,5.823,0,0,1,1.065.085v5.244A2.138,2.138,0,0,0,47.172,48.7Z" fill="#ff866e" stroke="#45413c" stroke-linecap="round" stroke-linejoin="round"></path><path d="M51.436,48.7H47.172a2.138,2.138,0,0,1-2.132-2.132V41.322A7.44,7.44,0,0,1,51.436,48.7Z" fill="#ffaa54" stroke="#45413c" stroke-linecap="round" stroke-linejoin="round"></path><path d="M57.831,38.039v8.527A2.138,2.138,0,0,1,55.7,48.7H51.436a7.44,7.44,0,0,0-6.4-7.376V38.039a2.138,2.138,0,0,1,2.132-2.131H55.7A2.138,2.138,0,0,1,57.831,38.039Z" fill="#fff48c" stroke="#45413c" stroke-linecap="round" stroke-linejoin="round"></path><path d="M57.831 42.303L63.16 43.369" fill="none" stroke="#45413c" stroke-linecap="round" stroke-linejoin="round"></path><path d="M63.160 38.039 L68.489 38.039 L68.489 47.632 L63.160 47.632 Z" fill="#fffacf" stroke="#45413c" stroke-linecap="round" stroke-linejoin="round"></path><path d="M71.687 38.039L78.082 38.039" fill="none" stroke="#45413c" stroke-linecap="round" stroke-linejoin="round"></path><path d="M71.687 41.237L78.082 41.237" fill="none" stroke="#45413c" stroke-linecap="round" stroke-linejoin="round"></path><path d="M69.555,30.578a2.131,2.131,0,0,1-2.132,2.132H46.106a2.132,2.132,0,0,1,0-4.263H67.423A2.131,2.131,0,0,1,69.555,30.578Z" fill="#ff866e" stroke="#45413c" stroke-linecap="round" stroke-linejoin="round"></path></g></svg>