<svg viewBox="0 0 160 160" height="160" width="160" xmlns="http://www.w3.org/2000/svg"><g transform="matrix(1.6,0,0,1.6,0,0)"><path d="M10.000 50.000 A40.000 40.000 0 1 0 90.000 50.000 A40.000 40.000 0 1 0 10.000 50.000 Z" fill="#C7F0FF" stroke="#C7F0FF"></path><path d="M32.908 77.119 A17.092 2.092 0 1 0 67.092 77.119 A17.092 2.092 0 1 0 32.908 77.119 Z" fill="#45413c" opacity=".15"></path><path d="M29.865,74.7a1.3,1.3,0,0,0,1.3,1.3H68.836a1.3,1.3,0,0,0,1.3-1.3V32.486L59.093,21.444H31.164a1.3,1.3,0,0,0-1.3,1.3Z" fill="#fff" stroke="#45413c" stroke-linecap="round" stroke-linejoin="round"></path><path d="M70.135,32.486H60.306a1.217,1.217,0,0,1-1.213-1.213V21.444Z" fill="#fff" stroke="#45413c" stroke-linecap="round" stroke-linejoin="round"></path><path d="M43.573,39.289h-6.81A1.213,1.213,0,0,0,35.55,40.5V65.785A1.213,1.213,0,0,0,36.763,67h6.81Z" fill="#9ceb60"></path><path d="M35.550 39.289 L64.449 39.289 L64.449 66.998 L35.550 66.998 Z" fill="none" stroke="#45413c" stroke-linecap="round" stroke-linejoin="round"></path><path d="M43.573 39.289L43.573 66.998" fill="none" stroke="#45413c" stroke-linecap="round" stroke-linejoin="round"></path><path d="M35.55 46.216L64.45 46.216" fill="none" stroke="#45413c" stroke-linecap="round" stroke-linejoin="round"></path><path d="M35.55 53.143L64.45 53.143" fill="none" stroke="#45413c" stroke-linecap="round" stroke-linejoin="round"></path><path d="M35.55 60.071L64.45 60.071" fill="none" stroke="#45413c" stroke-linecap="round" stroke-linejoin="round"></path></g></svg>