<svg viewBox="0 0 48 48" height="48" width="48" xmlns="http://www.w3.org/2000/svg"><g transform="matrix(0.48,0,0,0.48,0,0)"><path d="M10.000 50.000 A40.000 40.000 0 1 0 90.000 50.000 A40.000 40.000 0 1 0 10.000 50.000 Z" fill="#C7F0FF" stroke="#C7F0FF"></path><path d="M33.722 81.687 A16.278 1.992 0 1 0 66.278 81.687 A16.278 1.992 0 1 0 33.722 81.687 Z" fill="#45413c" opacity=".15"></path><path d="M67.892,38.345l-15.945-21.5a2.31,2.31,0,0,0-3.894,0l-15.945,21.5" fill="none" stroke="#45413c" stroke-linecap="round" stroke-linejoin="round"></path><path d="M22.087 35.939 L77.912 35.939 L77.912 72.514 L22.087 72.514 Z" fill="#debb7e"></path><path d="M73.293,35.939H26.707a4.6,4.6,0,0,0-3.292,1.38l1.625,1.625a4.594,4.594,0,0,1,1.667-.311H73.293a4.594,4.594,0,0,1,1.667.311l1.625-1.625A4.6,4.6,0,0,0,73.293,35.939Z" fill="#f0d5a8"></path><path d="M22.087 35.939 L77.912 35.939 L77.912 72.514 L22.087 72.514 Z" fill="none" stroke="#45413c" stroke-linecap="round" stroke-linejoin="round"></path><path d="M27.862 41.714 L72.137 41.714 L72.137 66.739 L27.862 66.739 Z" fill="#656769"></path><path d="M70.983,41.714H29.017a1.155,1.155,0,0,0-1.155,1.155V46.19a1.155,1.155,0,0,1,1.155-1.155H70.983a1.155,1.155,0,0,1,1.155,1.155V42.869A1.155,1.155,0,0,0,70.983,41.714Z" fill="#525252"></path><path d="M27.862 41.714 L72.137 41.714 L72.137 66.739 L27.862 66.739 Z" fill="none" stroke="#45413c" stroke-linecap="round" stroke-linejoin="round"></path><path d="M71.823 42.081L76.583 37.321" fill="none" stroke="#45413c" stroke-linecap="round" stroke-linejoin="round"></path><path d="M28.177 42.081L23.417 37.321" fill="none" stroke="#45413c" stroke-linecap="round" stroke-linejoin="round"></path><path d="M71.823 66.372L76.583 71.132" fill="none" stroke="#45413c" stroke-linecap="round" stroke-linejoin="round"></path><path d="M28.177 66.372L23.417 71.132" fill="none" stroke="#45413c" stroke-linecap="round" stroke-linejoin="round"></path><path d="M47.353 16.593 A2.647 2.647 0 1 0 52.647 16.593 A2.647 2.647 0 1 0 47.353 16.593 Z" fill="#ffffff" stroke="#45413c" stroke-linecap="round" stroke-linejoin="round"></path></g></svg>