<svg width="128" height="128" fill="none" xmlns="http://www.w3.org/2000/svg">
  <circle cx="64" cy="64" r="64" fill="#C7F0FF"/>
  <path d="M43.1429 74.2858L38 64.0001l5.1429-10.2857h12l5.1428 10.2857-5.1428 10.2857h-12z" stroke="url(#paint0_linear)" stroke-width="3" stroke-miterlimit="10" stroke-linecap="round"/>
  <path d="M67.1429 87.9999L62 77.7142l5.1429-10.2857h12l5.1428 10.2857-5.1428 10.2857h-12z" stroke="url(#paint1_linear)" stroke-width="3" stroke-miterlimit="10" stroke-linecap="round"/>
  <path d="M67.1429 60.5714L62 50.2857 67.1429 40h12l5.1428 10.2857-5.1428 10.2857h-12z" stroke="url(#paint2_linear)" stroke-width="3" stroke-miterlimit="10" stroke-linecap="round"/>
  <path d="M87.7143 65.7142c.9468 0 1.7143-.7675 1.7143-1.7143 0-.9467-.7675-1.7143-1.7143-1.7143S86 63.0532 86 63.9999c0 .9468.7675 1.7143 1.7143 1.7143z" stroke="url(#paint3_linear)" stroke-width="3" stroke-miterlimit="10" stroke-linecap="round"/>
  <path d="M53.4285 84.5711c.9468 0 1.7143-.7675 1.7143-1.7142 0-.9468-.7675-1.7143-1.7143-1.7143s-1.7143.7675-1.7143 1.7143c0 .9467.7675 1.7142 1.7143 1.7142z" stroke="url(#paint4_linear)" stroke-width="3" stroke-miterlimit="10" stroke-linecap="round"/>
  <path d="M53.4285 46.857c.9468 0 1.7143-.7675 1.7143-1.7142 0-.9468-.7675-1.7143-1.7143-1.7143s-1.7143.7675-1.7143 1.7143c0 .9467.7675 1.7142 1.7143 1.7142z" stroke="url(#paint5_linear)" stroke-width="3" stroke-miterlimit="10" stroke-linecap="round"/>
  <path d="M23.2 84.08c-1.28 0-2.3867-.0933-3.32-.28-.9333-.16-1.7067-.4533-2.32-.88-.6133-.4267-1.0667-1-1.36-1.72-.2933-.6933-.44-1.5733-.44-2.64 0-.72.0133-1.3733.04-1.96.0533-.6133.1067-1.2.16-1.76s.0933-1.12.12-1.68c.0533-.5867.08-1.2133.08-1.88 0-.3467-.08-.6933-.24-1.04-.16-.3733-.4533-.6933-.88-.96-.4267-.2933-1.0133-.5333-1.76-.72-.72-.1867-1.64-.28-2.76-.28v-2.8c1.12 0 2.04-.0933 2.76-.28.7467-.1867 1.3333-.4133 1.76-.68.4267-.2933.72-.6133.88-.96.16-.3467.24-.7067.24-1.08 0-1.2533-.0667-2.4267-.2-3.52-.1333-1.12-.2-2.3733-.2-3.76 0-1.0667.1467-1.9467.44-2.64.2933-.72.7467-1.2933 1.36-1.72.6133-.4267 1.3867-.72 2.32-.88.9333-.1867 2.04-.28 3.32-.28h2.76v2.52h-1.84c-.9333 0-1.6933.0533-2.28.16-.5867.1067-1.0533.2933-1.4.56-.32.24-.5467.5733-.68 1-.1067.4-.16.8933-.16 1.48 0 1.12.0267 2.24.08 3.36.08 1.12.12 2.2933.12 3.52 0 1.4133-.28 2.4667-.84 3.16-.56.6667-1.5467 1.12-2.96 1.36v.16c1.4133.24 2.4.7067 2.96 1.4.56.6667.84 1.7067.84 3.12 0 1.28-.04 2.4533-.12 3.52-.0533 1.0667-.08 2.1867-.08 3.36 0 .6133.0533 1.12.16 1.52.1333.4.36.72.68.96.3467.2667.8133.4533 1.4.56.5867.1067 1.3467.16 2.28.16h1.84v2.52H23.2z" fill="url(#paint6_linear)"/>
  <path d="M104.8 84.08c1.28 0 2.387-.0933 3.32-.28.933-.16 1.707-.4533 2.32-.88.613-.4267 1.067-1 1.36-1.72.293-.6933.44-1.5733.44-2.64 0-.72-.013-1.3733-.04-1.96-.053-.6133-.107-1.2-.16-1.76-.053-.56-.093-1.12-.12-1.68-.053-.5867-.08-1.2133-.08-1.88 0-.3467.08-.6933.24-1.04.16-.3733.453-.6933.88-.96.427-.2933 1.013-.5333 1.76-.72.72-.1867 1.64-.28 2.76-.28v-2.8c-1.12 0-2.04-.0933-2.76-.28-.747-.1867-1.333-.4133-1.76-.68-.427-.2933-.72-.6133-.88-.96-.16-.3467-.24-.7067-.24-1.08 0-1.2533.067-2.4267.2-3.52.133-1.12.2-2.3733.2-3.76 0-1.0667-.147-1.9467-.44-2.64-.293-.72-.747-1.2933-1.36-1.72-.613-.4267-1.387-.72-2.32-.88-.933-.1867-2.04-.28-3.32-.28h-2.76v2.52h1.84c.933 0 1.693.0533 2.28.16.587.1067 1.053.2933 1.4.56.32.24.547.5733.68 1 .107.4.16.8933.16 1.48 0 1.12-.027 2.24-.08 3.36-.08 1.12-.12 2.2933-.12 3.52 0 1.4133.28 2.4667.84 3.16.56.6667 1.547 1.12 2.96 1.36v.16c-1.413.24-2.4.7067-2.96 1.4-.56.6667-.84 1.7067-.84 3.12 0 1.28.04 2.4533.12 3.52.053 1.0667.08 2.1867.08 3.36 0 .6133-.053 1.12-.16 1.52-.133.4-.36.72-.68.96-.347.2667-.813.4533-1.4.56-.587.1067-1.347.16-2.28.16h-1.84v2.52h2.76z" fill="url(#paint7_linear)"/>
  <defs>
    <linearGradient id="paint0_linear" x1="49.1429" y1="53.7144" x2="49.1429" y2="74.2858" gradientUnits="userSpaceOnUse">
      <stop stop-color="#20F"/>
      <stop offset="1" stop-color="#9E00FF"/>
    </linearGradient>
    <linearGradient id="paint1_linear" x1="73.1429" y1="67.4285" x2="73.1429" y2="87.9999" gradientUnits="userSpaceOnUse">
      <stop stop-color="#20F"/>
      <stop offset="1" stop-color="#9E00FF"/>
    </linearGradient>
    <linearGradient id="paint2_linear" x1="73.1429" y1="40" x2="73.1429" y2="60.5714" gradientUnits="userSpaceOnUse">
      <stop stop-color="#20F"/>
      <stop offset="1" stop-color="#9E00FF"/>
    </linearGradient>
    <linearGradient id="paint3_linear" x1="87.7143" y1="62.2856" x2="87.7143" y2="65.7142" gradientUnits="userSpaceOnUse">
      <stop stop-color="#20F"/>
      <stop offset="1" stop-color="#9E00FF"/>
    </linearGradient>
    <linearGradient id="paint4_linear" x1="53.4285" y1="81.1426" x2="53.4285" y2="84.5711" gradientUnits="userSpaceOnUse">
      <stop stop-color="#20F"/>
      <stop offset="1" stop-color="#9E00FF"/>
    </linearGradient>
    <linearGradient id="paint5_linear" x1="53.4285" y1="43.4285" x2="53.4285" y2="46.857" gradientUnits="userSpaceOnUse">
      <stop stop-color="#20F"/>
      <stop offset="1" stop-color="#9E00FF"/>
    </linearGradient>
    <linearGradient id="paint6_linear" x1="18" y1="30" x2="18" y2="98" gradientUnits="userSpaceOnUse">
      <stop stop-color="#20F"/>
      <stop offset="1" stop-color="#9E00FF"/>
    </linearGradient>
    <linearGradient id="paint7_linear" x1="110" y1="30" x2="110" y2="98" gradientUnits="userSpaceOnUse">
      <stop stop-color="#20F"/>
      <stop offset="1" stop-color="#9E00FF"/>
    </linearGradient>
  </defs>
</svg>
