<svg width="128" height="128" viewBox="0 0 128 128" fill="none" xmlns="http://www.w3.org/2000/svg">
<path d="M12.8 64C12.8 77.5791 18.1943 90.6021 27.7962 100.204C37.398 109.806 50.421 115.2 64 115.2C77.5791 115.2 90.6021 109.806 100.204 100.204C109.806 90.6021 115.2 77.5791 115.2 64C115.2 50.421 109.806 37.398 100.204 27.7962C90.6021 18.1943 77.5791 12.8 64 12.8C50.421 12.8 37.398 18.1943 27.7962 27.7962C18.1943 37.398 12.8 50.421 12.8 64V64Z" fill="#C7F0FF"/>
<path opacity="0.15" d="M42.4729 102.972C42.4729 103.263 43.0291 103.552 44.1098 103.821C45.1905 104.09 46.7744 104.335 48.7713 104.541C50.7681 104.747 53.1387 104.91 55.7477 105.022C58.3567 105.133 61.153 105.19 63.9769 105.19C66.8008 105.19 69.5971 105.133 72.2061 105.022C74.8151 104.91 77.1857 104.747 79.1825 104.541C81.1794 104.335 82.7633 104.09 83.844 103.821C84.9247 103.552 85.4809 103.263 85.4809 102.972C85.4809 102.681 84.9247 102.392 83.844 102.123C82.7633 101.854 81.1794 101.61 79.1825 101.404C77.1857 101.198 74.8151 101.034 72.2061 100.923C69.5971 100.811 66.8008 100.754 63.9769 100.754C61.153 100.754 58.3567 100.811 55.7477 100.923C53.1387 101.034 50.7681 101.198 48.7713 101.404C46.7744 101.61 45.1905 101.854 44.1098 102.123C43.0291 102.392 42.4729 102.681 42.4729 102.972V102.972Z" fill="#525252"/>
<path d="M108.146 92.0549C108.146 93.1243 107.721 94.1498 106.965 94.906C106.209 95.6621 105.183 96.0869 104.114 96.0869H24.8179C23.7485 96.0869 22.723 95.6621 21.9668 94.906C21.2107 94.1498 20.7859 93.1243 20.7859 92.0549V36.9509H108.146V92.0549Z" fill="#00B8F0"/>
<path d="M31.5367 96.0869L90.6727 36.9509H20.7847V92.0549C20.7847 93.1243 21.2095 94.1498 21.9656 94.906C22.7218 95.6621 23.7473 96.0869 24.8167 96.0869H31.5367Z" fill="#4ACFFF"/>
<path d="M104.114 24.855H24.8179C23.7486 24.8553 22.7233 25.2802 21.9672 26.0363C21.2111 26.7924 20.7862 27.8177 20.7859 28.887V36.951H108.146V28.887C108.146 27.8176 107.721 26.7921 106.965 26.0359C106.209 25.2798 105.183 24.855 104.114 24.855V24.855Z" fill="white" stroke="#45413C" stroke-width="1.5" stroke-linecap="round" stroke-linejoin="round"/>
<path d="M24.8179 30.903C24.8179 31.4376 25.0303 31.9504 25.4083 32.3285C25.7864 32.7066 26.2992 32.919 26.8339 32.919C27.3685 32.919 27.8813 32.7066 28.2594 32.3285C28.6375 31.9504 28.8499 31.4376 28.8499 30.903C28.8499 30.3683 28.6375 29.8555 28.2594 29.4774C27.8813 29.0994 27.3685 28.887 26.8339 28.887C26.2992 28.887 25.7864 29.0994 25.4083 29.4774C25.0303 29.8555 24.8179 30.3683 24.8179 30.903V30.903Z" fill="#FF6242"/>
<path d="M31.538 30.903C31.538 31.4376 31.7504 31.9504 32.1284 32.3285C32.5065 32.7066 33.0193 32.919 33.554 32.919C34.0886 32.919 34.6014 32.7066 34.9795 32.3285C35.3576 31.9504 35.57 31.4376 35.57 30.903C35.57 30.3683 35.3576 29.8555 34.9795 29.4774C34.6014 29.0994 34.0886 28.887 33.554 28.887C33.0193 28.887 32.5065 29.0994 32.1284 29.4774C31.7504 29.8555 31.538 30.3683 31.538 30.903V30.903Z" fill="#FFE500"/>
<path d="M38.2579 30.903C38.2579 31.4376 38.4703 31.9504 38.8484 32.3285C39.2265 32.7066 39.7393 32.919 40.2739 32.919C40.8086 32.919 41.3214 32.7066 41.6995 32.3285C42.0775 31.9504 42.2899 31.4376 42.2899 30.903C42.2899 30.3683 42.0775 29.8555 41.6995 29.4774C41.3214 29.0994 40.8086 28.887 40.2739 28.887C39.7393 28.887 39.2265 29.0994 38.8484 29.4774C38.4703 29.8555 38.2579 30.3683 38.2579 30.903V30.903Z" fill="#6DD627"/>
<path d="M108.146 92.0549C108.146 93.1243 107.721 94.1498 106.965 94.906C106.209 95.6621 105.183 96.0869 104.114 96.0869H24.8179C23.7485 96.0869 22.723 95.6621 21.9668 94.906C21.2107 94.1498 20.7859 93.1243 20.7859 92.0549V36.9509H108.146V92.0549Z" stroke="#45413C" stroke-width="1.5" stroke-linecap="round" stroke-linejoin="round"/>
<path d="M24.8179 44.3442H32.8819V84.6642H24.8179V44.3442Z" fill="#F0F0F0" stroke="#45413C" stroke-width="1.5" stroke-linecap="round" stroke-linejoin="round"/>
<path d="M91.008 96.0882H37.248V51.0642C37.248 50.7078 37.3896 50.3659 37.6417 50.1139C37.8937 49.8618 38.2356 49.7202 38.592 49.7202H89.6641C90.0205 49.7202 90.3624 49.8618 90.6144 50.1139C90.8665 50.3659 91.008 50.7078 91.008 51.0642V96.0882Z" fill="#E8F4FA" stroke="#45413C" stroke-width="1.5" stroke-linecap="round" stroke-linejoin="round"/>
<path d="M77.906 49.7202L37.248 90.3756V51.0642C37.2487 50.708 37.3905 50.3665 37.6424 50.1146C37.8943 49.8627 38.2358 49.7209 38.592 49.7202H77.906Z" fill="white"/>
<path d="M91.008 96.0882H37.248V51.0642C37.248 50.7078 37.3896 50.3659 37.6417 50.1139C37.8937 49.8618 38.2356 49.7202 38.592 49.7202H89.6641C90.0205 49.7202 90.3624 49.8618 90.6144 50.1139C90.8665 50.3659 91.008 50.7078 91.008 51.0642V96.0882Z" stroke="#45413C" stroke-width="1.5" stroke-linecap="round" stroke-linejoin="round"/>
<path d="M24.8179 51.0642H32.8819Z" fill="white"/>
<path d="M24.8179 51.0642H32.8819" stroke="#45413C" stroke-width="1.5" stroke-linecap="round" stroke-linejoin="round"/>
<path d="M24.8179 57.7844H32.8819Z" fill="white"/>
<path d="M24.8179 57.7844H32.8819" stroke="#45413C" stroke-width="1.5" stroke-linecap="round" stroke-linejoin="round"/>
<path d="M24.8179 64.5044H32.8819Z" fill="white"/>
<path d="M24.8179 64.5044H32.8819" stroke="#45413C" stroke-width="1.5" stroke-linecap="round" stroke-linejoin="round"/>
<path d="M24.8179 71.2244H32.8819Z" fill="white"/>
<path d="M24.8179 71.2244H32.8819" stroke="#45413C" stroke-width="1.5" stroke-linecap="round" stroke-linejoin="round"/>
<path d="M24.8179 77.9443H32.8819Z" fill="white"/>
<path d="M24.8179 77.9443H32.8819" stroke="#45413C" stroke-width="1.5" stroke-linecap="round" stroke-linejoin="round"/>
<path d="M103.107 50.3924H95.0426V43.6724C95.0426 43.3159 95.1842 42.9741 95.4363 42.722C95.6883 42.47 96.0302 42.3284 96.3866 42.3284H101.763C102.119 42.3284 102.461 42.47 102.713 42.722C102.965 42.9741 103.107 43.3159 103.107 43.6724V50.3924Z" fill="#FF6242" stroke="#45413C" stroke-width="1.5" stroke-linecap="round" stroke-linejoin="round"/>
<path d="M95.0426 50.3923H103.107V58.4563H95.0426V50.3923Z" fill="#FFAA54" stroke="#45413C" stroke-width="1.5" stroke-linecap="round" stroke-linejoin="round"/>
<path d="M95.0426 58.4563H103.107V66.5203H95.0426V58.4563Z" fill="#FFF48C" stroke="#45413C" stroke-width="1.5" stroke-linecap="round" stroke-linejoin="round"/>
<path d="M95.0426 66.5203H103.107V74.5843H95.0426V66.5203Z" fill="#9CEB60" stroke="#45413C" stroke-width="1.5" stroke-linecap="round" stroke-linejoin="round"/>
<path d="M95.0426 74.5842H103.107V82.6482H95.0426V74.5842Z" fill="#BF8DF2" stroke="#45413C" stroke-width="1.5" stroke-linecap="round" stroke-linejoin="round"/>
<path d="M103.107 89.3684C103.106 89.7248 102.965 90.0664 102.713 90.3184C102.461 90.5704 102.119 90.7121 101.763 90.7124H96.384C96.0277 90.7121 95.686 90.5704 95.4341 90.3184C95.1821 90.0664 95.0404 89.7248 95.04 89.3684V82.6484H103.104L103.107 89.3684Z" fill="#656769" stroke="#45413C" stroke-width="1.5" stroke-linecap="round" stroke-linejoin="round"/>
<path d="M54.8191 58.8799H53.4601C52.7682 58.8799 52.2073 59.4408 52.2073 60.1327V69.6418C52.2073 70.3338 52.7682 70.8947 53.4601 70.8947H54.8191C55.511 70.8947 56.072 70.3338 56.072 69.6418V60.1327C56.072 59.4408 55.511 58.8799 54.8191 58.8799Z" fill="white" stroke="#45413C" stroke-width="1.5" stroke-linecap="round" stroke-linejoin="round"/>
<path d="M75.1944 58.8799H73.8353C73.1434 58.8799 72.5825 59.4408 72.5825 60.1327V69.6418C72.5825 70.3338 73.1434 70.8947 73.8353 70.8947H75.1944C75.8863 70.8947 76.4472 70.3338 76.4472 69.6418V60.1327C76.4472 59.4408 75.8863 58.8799 75.1944 58.8799Z" fill="white" stroke="#45413C" stroke-width="1.5" stroke-linecap="round" stroke-linejoin="round"/>
<path d="M52.2073 77.896C52.2073 77.5922 52.0866 77.3008 51.8717 77.0859C51.6569 76.8711 51.3655 76.7504 51.0617 76.7504H48.3426V79.4675C48.3426 79.7713 48.4633 80.0627 48.6781 80.2775C48.8929 80.4923 49.1843 80.613 49.4881 80.613H52.2052L52.2073 77.896ZM48.3426 74.0313C48.3426 73.7275 48.2219 73.4361 48.0071 73.2213C47.7922 73.0064 47.5008 72.8857 47.197 72.8857H45.6255C45.3217 72.8857 45.0303 73.0064 44.8155 73.2213C44.6007 73.4361 44.48 73.7275 44.48 74.0313V75.5997C44.48 75.9035 44.6007 76.1949 44.8155 76.4097C45.0303 76.6245 45.3217 76.7452 45.6255 76.7452H48.3426V74.0313ZM76.4472 77.896C76.4472 77.5922 76.5679 77.3008 76.7827 77.0859C76.9975 76.8711 77.2889 76.7504 77.5927 76.7504H80.3087V79.4675C80.3087 79.7713 80.188 80.0627 79.9732 80.2775C79.7584 80.4923 79.467 80.613 79.1632 80.613H76.4472V77.896ZM80.3119 74.0313C80.3119 73.7275 80.4325 73.4361 80.6474 73.2213C80.8622 73.0064 81.1536 72.8857 81.4574 72.8857H83.0258C83.3296 72.8857 83.621 73.0064 83.8358 73.2213C84.0506 73.4361 84.1713 73.7275 84.1713 74.0313V75.5997C84.1713 75.9035 84.0506 76.1949 83.8358 76.4097C83.621 76.6245 83.3296 76.7452 83.0258 76.7452H80.3119V74.0313ZM76.4472 80.6172H52.2073V83.3342C52.2073 83.6381 52.328 83.9294 52.5428 84.1443C52.7576 84.3591 53.049 84.4798 53.3528 84.4798H75.2995C75.6034 84.4798 75.8947 84.3591 76.1096 84.1443C76.3244 83.9294 76.4451 83.6381 76.4451 83.3342L76.4472 80.6172Z" fill="white" stroke="#45413C" stroke-width="1.5" stroke-linecap="round" stroke-linejoin="round"/>
</svg>
