<svg viewBox="0 0 160 160" height="160" width="160" xmlns="http://www.w3.org/2000/svg"><g transform="matrix(1.6,0,0,1.6,0,0)"><path d="M10.000 50.000 A40.000 40.000 0 1 0 90.000 50.000 A40.000 40.000 0 1 0 10.000 50.000 Z" fill="#C7F0FF" stroke="#C7F0FF"></path><path d="M29.053 75.360 A20.947 1.548 0 1 0 70.947 75.360 A20.947 1.548 0 1 0 29.053 75.360 Z" fill="#45413c" opacity=".15"></path><path d="M23.326 29.146 L76.675 29.146 L76.675 74.111 L23.326 74.111 Z" fill="#fff" stroke="#45413c" stroke-linejoin="round"></path><path d="M76.674,42.865H23.326v-11.2a2.52,2.52,0,0,1,2.52-2.52H74.154a2.52,2.52,0,0,1,2.52,2.52Z" fill="#ff6242"></path><path d="M73.626,29.146H26.374A3.049,3.049,0,0,0,23.326,32.2v3.81a3.048,3.048,0,0,1,3.048-3.048H73.626a3.048,3.048,0,0,1,3.048,3.048V32.2A3.049,3.049,0,0,0,73.626,29.146Z" fill="#ff866e"></path><path d="M76.674,52.01V71.063a3.049,3.049,0,0,1-3.048,3.049H52.286S64.48,70.3,76.674,52.01Z" fill="#fff"></path><path d="M52.286,74.111h6.859c4.4-2.251,9.713-5.838,17.529-16.766V52.01C64.48,70.3,52.286,74.111,52.286,74.111Z" fill="#C7F0FF"></path><path d="M76.674,52.01V71.063a3.049,3.049,0,0,1-3.048,3.049H52.286S64.48,70.3,76.674,52.01Z" fill="none" stroke="#45413c" stroke-linejoin="round"></path><path d="M76.674,42.865H23.326v-11.2a2.52,2.52,0,0,1,2.52-2.52H74.154a2.52,2.52,0,0,1,2.52,2.52Z" fill="none" stroke="#45413c" stroke-linejoin="round"></path><path d="M34.757,33.719a4.573,4.573,0,1,1,4.573-4.573" fill="none" stroke="#45413c" stroke-linecap="round" stroke-linejoin="round"></path><path d="M50.762,33.719a4.573,4.573,0,1,1,4.573-4.573" fill="none" stroke="#45413c" stroke-linecap="round" stroke-linejoin="round"></path><path d="M66.767,33.719a4.573,4.573,0,1,1,4.572-4.573" fill="none" stroke="#45413c" stroke-linecap="round" stroke-linejoin="round"></path><path d="M23.326 50.486L76.674 50.486" fill="none" stroke="#45413c" stroke-linecap="round" stroke-linejoin="round"></path><path d="M23.326 58.107L55.211 58.107" fill="none" stroke="#45413c" stroke-linecap="round" stroke-linejoin="round"></path><path d="M23.326 65.728L55.211 65.728" fill="none" stroke="#45413c" stroke-linecap="round" stroke-linejoin="round"></path><path d="M33.995 42.865L33.995 74.112" fill="none" stroke="#45413c" stroke-linecap="round" stroke-linejoin="round"></path><path d="M44.665 42.865L44.665 74.112" fill="none" stroke="#45413c" stroke-linecap="round" stroke-linejoin="round"></path><path d="M55.335 42.865L55.335 53.207" fill="none" stroke="#45413c" stroke-linecap="round" stroke-linejoin="round"></path><path d="M66.005 42.865L66.005 54.599" fill="none" stroke="#45413c" stroke-linecap="round" stroke-linejoin="round"></path><path d="M23.326 50.486H33.996V58.107H23.326z" fill="#00dba8" stroke="#45413c" stroke-linejoin="round"></path><path d="M33.995 65.728H44.665V74.11099999999999H33.995z" fill="#ffe500" stroke="#45413c" stroke-linejoin="round"></path><path d="M44.665 42.865H55.335V50.486000000000004H44.665z" fill="#00dfeb" stroke="#45413c" stroke-linejoin="round"></path><path d="M76.674,52.01C64.48,70.3,52.286,74.112,52.286,74.112a24.631,24.631,0,0,0,1.93-20.179.631.631,0,0,1,.754-.823C58.489,54.07,69.108,56.424,76.674,52.01Z" fill="#fff" stroke="#45413c" stroke-linecap="round" stroke-linejoin="round"></path></g></svg>