<svg xmlns="http://www.w3.org/2000/svg" version="1.1" xmlns:xlink="http://www.w3.org/1999/xlink" xmlns:svgjs="http://svgjs.com/svgjs" viewBox="0 0 160 160" width="160" height="160"><g transform="matrix(1.6,0,0,1.6,0,0)"><path d="M9.579 51.955 A40.000 40.000 0 1 0 89.579 51.955 A40.000 40.000 0 1 0 9.579 51.955 Z" fill="#c7f0ff" stroke="#c7f0ff" stroke-miterlimit="10"></path><path d="M35.486 81.730 A14.093 1.725 0 1 0 63.672 81.730 A14.093 1.725 0 1 0 35.486 81.730 Z" fill="#45413c" opacity=".15"></path><path d="M39.235,54.073l-7.126,3.158,1.144,15.952h0a1.244,1.244,0,0,0,.483-.622l5.538-17.626A1.263,1.263,0,0,0,39.235,54.073Z" fill="#ff6196" stroke="#45413c" stroke-linecap="round" stroke-linejoin="round"></path><path d="M32.109,57.231l7.126-3.158v0l0-.008a1.257,1.257,0,0,0-.59-.63l-5.971-3.019a2.516,2.516,0,0,0-1.068-.27l.508,7.087Z" fill="#ff87af" stroke="#45413c" stroke-linecap="round" stroke-linejoin="round"></path><path d="M31.6,50.144a2.522,2.522,0,0,0-1.09.215l-6.4,2.834,7.994,4.038h0Z" fill="#ffb0ca" stroke="#45413c" stroke-linecap="round" stroke-linejoin="round"></path><path d="M24.115 53.193L21.737 61.827 32.109 57.231 24.115 53.193z" fill="#ffccdd" stroke="#45413c" stroke-linecap="round" stroke-linejoin="round"></path><path d="M21.737,61.827,32.786,73.39a1.21,1.21,0,0,0,.253-.052l0,0h0a1.245,1.245,0,0,0,.209-.153L32.109,57.231Z" fill="#ffb0ca" stroke="#45413c" stroke-linecap="round" stroke-linejoin="round"></path><path d="M14.611,64.985l7.126-3.158L32.786,73.39h0A1.236,1.236,0,0,1,32,73.33L15.224,65.593A1.263,1.263,0,0,1,14.611,64.985Z" fill="#ff6196" stroke="#45413c" stroke-linecap="round" stroke-linejoin="round"></path><path d="M21.737,61.827l-7.126,3.158v0l0-.009a1.254,1.254,0,0,1-.071-.86l1.774-6.451a2.534,2.534,0,0,1,.518-.973l4.909,5.137Z" fill="#ff87af" stroke="#45413c" stroke-linecap="round" stroke-linejoin="round"></path><path d="M16.828,56.69a2.536,2.536,0,0,1,.892-.663l6.4-2.834-2.378,8.634h0Z" fill="#ffb0ca" stroke="#45413c" stroke-linecap="round" stroke-linejoin="round"></path><path d="M58.037,57.6l7.125,3.157L64.019,76.709h0a1.238,1.238,0,0,1-.482-.622L58,58.461A1.249,1.249,0,0,1,58.037,57.6Z" fill="#ffe500" stroke="#45413c" stroke-linecap="round" stroke-linejoin="round"></path><path d="M65.162,60.756,58.037,57.6v0l0-.008a1.258,1.258,0,0,1,.59-.63l5.971-3.02a2.554,2.554,0,0,1,1.069-.27l-.509,7.087Z" fill="#fff48c" stroke="#45413c" stroke-linecap="round" stroke-linejoin="round"></path><path d="M65.67,53.67a2.526,2.526,0,0,1,1.091.215l6.4,2.834-7.994,4.037h0Z" fill="#fffacf" stroke="#45413c" stroke-linecap="round" stroke-linejoin="round"></path><path d="M73.156 56.719L75.535 65.353 65.162 60.756 73.156 56.719z" fill="#fffce5" stroke="#45413c" stroke-linecap="round" stroke-linejoin="round"></path><path d="M75.535,65.353,64.485,76.916a1.253,1.253,0,0,1-.252-.052l0,0h0a1.193,1.193,0,0,1-.208-.152l1.143-15.953Z" fill="#fffacf" stroke="#45413c" stroke-linecap="round" stroke-linejoin="round"></path><path d="M82.66,68.51l-7.125-3.157L64.485,76.916h0a1.235,1.235,0,0,0,.785-.06l16.778-7.738A1.252,1.252,0,0,0,82.66,68.51Z" fill="#ffe500" stroke="#45413c" stroke-linecap="round" stroke-linejoin="round"></path><path d="M75.535,65.353,82.66,68.51v0l0-.008a1.26,1.26,0,0,0,.07-.86l-1.774-6.452a2.517,2.517,0,0,0-.518-.972l-4.908,5.137Z" fill="#fff48c" stroke="#45413c" stroke-linecap="round" stroke-linejoin="round"></path><path d="M80.443,60.216a2.52,2.52,0,0,0-.891-.663l-6.4-2.834,2.379,8.634h0Z" fill="#fffacf" stroke="#45413c" stroke-linecap="round" stroke-linejoin="round"></path><path d="M25.879,25.487l3.355-1.119a.315.315,0,0,0,0-.6l-2.757-.919a1.263,1.263,0,0,1-.8-.8L24.76,19.3a.314.314,0,0,0-.6,0l-.919,2.757a1.262,1.262,0,0,1-.8.8l-2.759.92a.314.314,0,0,0,0,.6l2.759.92a1.262,1.262,0,0,1,.8.8l.92,2.76a.315.315,0,0,0,.6,0Z" fill="#ffffff" stroke="#45413c" stroke-linecap="round" stroke-linejoin="round"></path><path d="M86.851,36.907l3.355-1.119a.315.315,0,0,0,0-.6l-2.757-.919a1.263,1.263,0,0,1-.8-.8l-.919-2.757a.315.315,0,0,0-.6,0l-.919,2.757a1.264,1.264,0,0,1-.8.8l-2.76.919a.315.315,0,0,0,0,.6l2.76.919a1.26,1.26,0,0,1,.8.8l.92,2.759a.315.315,0,0,0,.6,0Z" fill="#ffffff" stroke="#45413c" stroke-linecap="round" stroke-linejoin="round"></path><path d="M66.343,18.218a2.52,2.52,0,0,1,1.888-1.889l3.791-.874a.316.316,0,0,0,0-.615l-3.791-.874a2.516,2.516,0,0,1-1.888-1.889l-.875-3.788a.315.315,0,0,0-.614,0l-.874,3.788a2.521,2.521,0,0,1-1.889,1.89L58.3,14.84a.316.316,0,0,0,0,.615l3.788.874a2.521,2.521,0,0,1,1.889,1.889l.874,3.791a.315.315,0,0,0,.614,0Z" fill="#ffffff" stroke="#45413c" stroke-linecap="round" stroke-linejoin="round"></path><path d="M76.143,44.035l-13.79-1.029L50.781,68.916h0a2.2,2.2,0,0,0,1.276-.569l23.425-22.93A2.237,2.237,0,0,0,76.143,44.035Z" fill="#00b8f0" stroke="#45413c" stroke-linecap="round" stroke-linejoin="round"></path><path d="M62.353,43.006l13.79,1.029v-.019a2.226,2.226,0,0,0-.4-1.48l-6.81-9.723A4.486,4.486,0,0,0,67.494,31.5l-5.141,11.51Z" fill="#4acfff" stroke="#45413c" stroke-linecap="round" stroke-linejoin="round"></path><path d="M67.494,31.5a4.464,4.464,0,0,0-1.886-.577L53.232,30l9.121,13.01h0Z" fill="#80ddff" stroke="#45413c" stroke-linecap="round" stroke-linejoin="round"></path><path d="M53.232 29.996L42.281 41.508 62.353 43.006 53.232 29.996z" fill="#b8ecff" stroke="#45413c" stroke-linecap="round" stroke-linejoin="round"></path><path d="M42.281,41.508l7.6,27.34a2.19,2.19,0,0,0,.439.13h.006l.005,0a2.247,2.247,0,0,0,.453-.063l11.572-25.91Z" fill="#80ddff" stroke="#45413c" stroke-linecap="round" stroke-linejoin="round"></path><path d="M28.491,40.479l13.79,1.029,7.6,27.34h0A2.189,2.189,0,0,1,48.7,68.1L28.94,41.943A2.227,2.227,0,0,1,28.491,40.479Z" fill="#00b8f0" stroke="#45413c" stroke-linecap="round" stroke-linejoin="round"></path><path d="M42.281,41.508l-13.79-1.029v-.02a2.234,2.234,0,0,1,.61-1.4l8.179-8.6a4.5,4.5,0,0,1,1.624-1.088l3.376,12.146Z" fill="#4acfff" stroke="#45413c" stroke-linecap="round" stroke-linejoin="round"></path><path d="M38.905,29.363a4.481,4.481,0,0,1,1.95-.291L53.232,30,42.281,41.508h0Z" fill="#80ddff" stroke="#45413c" stroke-linecap="round" stroke-linejoin="round"></path></g></svg>