<svg width="160" height="160" fill="none" xmlns="http://www.w3.org/2000/svg">
  <path d="M16 80c0 16.9739 6.7428 33.253 18.7452 45.255C46.7475 137.257 63.0261 144 80 144c16.9739 0 33.253-6.743 45.255-18.745C137.257 113.253 144 96.9739 144 80c0-16.9739-6.743-33.2525-18.745-45.2548C113.253 22.7428 96.9739 16 80 16c-16.9739 0-33.2525 6.7428-45.2548 18.7452C22.7428 46.7475 16 63.0261 16 80z" fill="#C7F0FF"/>
  <path d="M68.414 107.688L37.3148 76.9468l30.7417-31.0992 31.0992 30.7416L68.414 107.688z" fill="#FF6242" stroke="#45413C" stroke-width="1.6" stroke-linecap="round" stroke-linejoin="round"/>
  <path d="M75.5598 79.7188a7.9515 7.9515 0 01-7.3317 4.9296 7.9519 7.9519 0 01-7.3601-4.887 7.9514 7.9514 0 0110.3584-10.4189 7.9511 7.9511 0 014.3334 10.3763z" fill="#fff"/>
  <path d="M72.0576 84.8906L106.7 58.2002l26.69 34.6419-34.642 26.6909-26.6904-34.6424z" fill="#FF6242" stroke="#45413C" stroke-width="1.6" stroke-linecap="round" stroke-linejoin="round"/>
  <path d="M93.5089 83.4203a5.963 5.963 0 01.453 6.615 5.9634 5.9634 0 11-.453-6.615zM109.256 71.2865a5.9624 5.9624 0 011.232 3.2382 5.9584 5.9584 0 01-.776 3.3767 5.9625 5.9625 0 01-9.097 1.5237 5.9612 5.9612 0 01-1.8343-2.9397 5.9635 5.9635 0 0110.4753-5.1989zM105.643 99.1792a5.9613 5.9613 0 011.23 3.2388 5.966 5.966 0 01-.777 3.376 5.9608 5.9608 0 01-2.524 2.374 5.9643 5.9643 0 01-3.417.571 5.9565 5.9565 0 01-3.1577-1.426 5.961 5.961 0 01-1.8325-2.94 5.9636 5.9636 0 0110.4782-5.1938zM121.389 87.0339a5.964 5.964 0 011.231 3.2387 5.9656 5.9656 0 01-.778 3.3762 5.9622 5.9622 0 01-5.94 2.9448 5.9613 5.9613 0 01-3.158-1.4255 5.9707 5.9707 0 01-1.833-2.9403 5.9666 5.9666 0 01.112-3.4628 5.9607 5.9607 0 012.018-2.8165 5.962 5.962 0 014.398-1.1822 5.9636 5.9636 0 013.95 2.2676z" fill="#fff"/>
</svg>
