<svg width="160" height="160" fill="none" xmlns="http://www.w3.org/2000/svg">
  <path d="M144 80a64.0053 64.0053 0 00-6.254-27.6011 63.9996 63.9996 0 00-42.9513-34.6736 64.0003 64.0003 0 00-71.9582 33.4858A64.0009 64.0009 0 0021.7024 106.4H138.298A63.7512 63.7512 0 00144 80z" fill="#C7F0FF"/>
  <path d="M21.7021 106.4a64.0006 64.0006 0 0058.2977 37.592A64.0006 64.0006 0 00138.297 106.4H21.7021z" fill="#F2DFC2"/>
  <path d="M17.6001 106.4H142.4M10.3999 106.4h4M145.6 106.4h4" stroke="#45413C" stroke-width="1.6" stroke-linecap="round" stroke-linejoin="round"/>
  <path d="M141.421 77.6959H69.1855V41.0735a3.2 3.2 0 013.2-3.2h65.8355c.848 0 1.662.3372 2.262.9373.601.6001.938 1.414.938 2.2627v36.6224z" fill="#fff" stroke="#45413C" stroke-width="1.6" stroke-linecap="round" stroke-linejoin="round"/>
  <path d="M145.72 80.0127a2.2731 2.2731 0 01-2.229 2.3136H67.7102a2.3168 2.3168 0 010-4.6304h75.7808a2.2733 2.2733 0 011.594.6969c.418.4345.646 1.0172.635 1.6199v0z" fill="#ADC4D9" stroke="#45413C" stroke-width="1.6" stroke-linecap="round" stroke-linejoin="round"/>
  <path d="M83.0767 86.9568h50.0093v5.5728H83.0767v-5.5728z" fill="#DEA47A" stroke="#45413C" stroke-width="1.6" stroke-linecap="round" stroke-linejoin="round"/>
  <path d="M84.9297 92.5295h46.3053v13.8755H84.9297V92.5295z" fill="#DEA47A"/>
  <path d="M84.9297 92.5295h46.3053v4.4576H84.9297v-4.4576z" fill="#BF8256"/>
  <path d="M84.9297 92.5295h46.3053v13.8755H84.9297V92.5295z" stroke="#45413C" stroke-width="1.6" stroke-linecap="round" stroke-linejoin="round"/>
  <path d="M126.603 72.1392h4.63v14.8176h-4.63V72.1392zM121.973 72.1392h4.63v14.8176h-4.63V72.1392z" fill="#FF6242" stroke="#45413C" stroke-width="1.6" stroke-linecap="round" stroke-linejoin="round"/>
  <path d="M112.071 85.1659l5.818-13.2685 4.083 1.7901-5.818 13.2685-4.083-1.7901z" fill="#009FD9" stroke="#45413C" stroke-width="1.6" stroke-linecap="round" stroke-linejoin="round"/>
  <path d="M77.9887 88.976l-1.3328 1.6a4.2157 4.2157 0 01-6.7135-.2822 4.216 4.216 0 01-.7521-2.4378V80.64a16.6706 16.6706 0 00-28.3995-11.682 16.67 16.67 0 00-4.9397 11.682v22.227h6.4816v-5.5566h20.3696v-9.4576a10.7345 10.7345 0 003.0561 7.7008 10.7357 10.7357 0 007.6287 3.232 10.9134 10.9134 0 008.3984-3.9328l1.4528-1.7408-5.2496-4.136z" fill="#FF87AF"/>
  <path d="M52.515 69.528a16.6693 16.6693 0 0115.4014 10.2896 16.6682 16.6682 0 011.269 6.3792V80.64a16.6705 16.6705 0 00-33.3392 0v5.5568A16.6689 16.6689 0 0152.515 69.528z" fill="#FFB0CA"/>
  <path d="M77.9887 88.976l-1.3328 1.6a4.2157 4.2157 0 01-6.7135-.2822 4.216 4.216 0 01-.7521-2.4378V80.64a16.6706 16.6706 0 00-28.3995-11.682 16.67 16.67 0 00-4.9397 11.682v22.227h6.4816v-5.5566h20.3696v-9.4576a10.7345 10.7345 0 003.0561 7.7008 10.7357 10.7357 0 007.6287 3.232 10.9134 10.9134 0 008.3984-3.9328l1.4528-1.7408-5.2496-4.136z" stroke="#45413C" stroke-width="1.6" stroke-linecap="round" stroke-linejoin="round"/>
  <path opacity=".15" d="M33.9937 135.28c0 .737 1.9513 1.443 5.4248 1.964 3.4735.521 8.1845.814 13.0967.814 4.9123 0 9.6233-.293 13.0968-.814 3.4735-.521 5.4249-1.227 5.4249-1.964 0-.737-1.9514-1.443-5.4249-1.964-3.4735-.521-8.1845-.814-13.0968-.814-4.9122 0-9.6232.293-13.0967.814-3.4735.521-5.4248 1.227-5.4248 1.964z" fill="#45413C"/>
  <path d="M52.5149 133.051c.0002.293-.0573.583-.1692.853a2.226 2.226 0 01-1.2064 1.207 2.23 2.23 0 01-.8532.169h-4.9456a2.2422 2.2422 0 01-1.7521-.861 2.2463 2.2463 0 01-.4244-.907 2.242 2.242 0 01.0133-1.002l1.9296-6.491h7.408v7.032z" fill="#FF6196" stroke="#45413C" stroke-width="1.6" stroke-linejoin="round"/>
  <path d="M42.3281 106.109c.0096.431-.0671.861-.2257 1.262a3.247 3.247 0 01-1.758 1.798 3.2484 3.2484 0 01-2.5142 0 3.247 3.247 0 01-1.758-1.798 3.2386 3.2386 0 01-.2257-1.262v-3.242h6.4816v3.242zM48.8109 130.338c-2.1168 0-3.704-1.236-3.704-4.32h7.408c0 3.073-1.576 4.32-3.704 4.32z" fill="#FFDA8F" stroke="#45413C" stroke-width="1.6" stroke-linecap="round" stroke-linejoin="round"/>
  <path d="M52.5151 133.051a2.2294 2.2294 0 002.2288 2.229h4.9472c.3386 0 .6727-.078.9768-.227.3042-.148.5706-.364.7789-.631a2.232 2.232 0 00.4059-1.912l-1.92-6.491h-7.4176v7.032z" fill="#FF6196" stroke="#45413C" stroke-width="1.6" stroke-linejoin="round"/>
  <path d="M56.2191 130.338c2.1184 0 3.7056-1.236 3.7056-4.32h-7.4096c0 3.073 1.576 4.32 3.704 4.32z" fill="#FFDA8F" stroke="#45413C" stroke-width="1.6" stroke-linecap="round" stroke-linejoin="round"/>
  <path d="M52.5151 70.6576v26.6528M42.3278 101.014V87.9999c0-3.4304-2.2848-4.48-2.2848-8.2896M62.7021 96.3839v-8.384c0-3.4304 2.2849-4.48 2.2849-8.2896" stroke="#45413C" stroke-width="1.6" stroke-linecap="round" stroke-linejoin="round"/>
  <path d="M85.1472 90.72l-1.896 2.4-5.2624-4.144 1.8976-2.408a3.3483 3.3483 0 013.5395-1.1503 3.348 3.348 0 011.1645.5935v0a3.3482 3.3482 0 011.2553 2.2389 3.3482 3.3482 0 01-.6985 2.4699v0z" fill="#FFDA8F" stroke="#45413C" stroke-width="1.6" stroke-linecap="round" stroke-linejoin="round"/>
  <path d="M82.8735 89.2159l17.7765-19.28" stroke="#45413C" stroke-width="1.6" stroke-linecap="round" stroke-linejoin="round"/>
  <path d="M42.3281 97.3103l2.7792 28.7087h14.8176l2.7776-28.7087H42.3281z" fill="#FF6196" stroke="#45413C" stroke-width="1.6" stroke-linejoin="round"/>
  <path d="M62.2545 101.941l.448-4.6307H42.3281l.4496 4.6307h19.4768z" fill="#E0366F"/>
  <path d="M42.3281 97.3103l2.7792 28.7087h14.8176l2.7776-28.7087H42.3281z" stroke="#45413C" stroke-width="1.6" stroke-linejoin="round"/>
  <path d="M52.5151 126.019v-21.201z" fill="#00B8F0"/>
  <path d="M52.5151 126.019v-21.201" stroke="#45413C" stroke-width="1.6" stroke-linecap="round" stroke-linejoin="round"/>
  <path d="M65.4814 51.1535a2.2834 2.2834 0 00-1.8528-2.2224v-1.4816a11.1136 11.1136 0 00-22.2272 0v1.4816a2.2689 2.2689 0 00.2336 4.4912 11.1135 11.1135 0 0021.76 0 2.2945 2.2945 0 002.0864-2.2688v0z" fill="#FFDA8F" stroke="#45413C" stroke-width="1.6" stroke-linecap="round" stroke-linejoin="round"/>
  <path d="M45.1069 52.5424a1.3891 1.3891 0 001.3888 1.3888 1.389 1.389 0 00.9821-2.3709 1.389 1.389 0 00-1.9641 0 1.3892 1.3892 0 00-.4068.9821zM57.147 52.5424a1.389 1.389 0 001.3888 1.3888 1.389 1.389 0 00.982-2.3709 1.3888 1.3888 0 00-2.3708.9821z" fill="#FFBE3D"/>
  <path d="M57.5232 49.3008a1.5773 1.5773 0 00-2.2288 0M47.5088 49.3008a1.5775 1.5775 0 012.2288 0M55.2941 55.7839a4.6302 4.6302 0 01-5.5568 0" stroke="#45413C" stroke-width="1.6" stroke-linecap="round" stroke-linejoin="round"/>
  <path d="M67.6974 50.4176c-2.3312-7.0208-6.712-16.7328-15.1824-16.9792-8.4704.2464-12.8496 9.9584-15.1824 16.9792-2.7312 8.2256 3.5104 11.632 11.0896 13.96a15.2522 15.2522 0 00-5.6 2.744c1.24 3.7024 1.976 8.7456 9.7008 8.8848 7.7248-.1392 8.4624-5.1824 9.7008-8.8848a15.257 15.257 0 00-5.6-2.744c7.5504-2.3232 13.8112-5.712 11.0736-13.96zM52.515 62.4c-6.1152-.16-8.808-4.8976-10.2912-7.7968-1.8032-3.52 4.1024-13.032 10.2912-13.3632 6.1904.3312 12.0944 9.8432 10.2928 13.3632-1.4832 2.9024-4.176 7.6368-10.2928 7.7968z" fill="#BF8DF2"/>
  <path d="M37.3327 54.8528c2.3328-7.0208 6.72-16.7312 15.1824-16.9792 8.4704.248 12.8512 9.9584 15.1824 16.9792.16.464.2784.9104.376 1.344a9.801 9.801 0 00-.376-5.7792c-2.3312-7.0208-6.712-16.7328-15.1824-16.9792-8.4704.2464-12.8496 9.9584-15.1824 16.9792a9.8037 9.8037 0 00-.3744 5.7728 15.078 15.078 0 01.3744-1.3376z" fill="#DABFF5"/>
  <path d="M52.5151 62.4c-6.1152-.16-8.808-4.8976-10.2912-7.7968-1.8032-3.52 4.1024-13.032 10.2912-13.3632 6.1904.3312 12.0944 9.8432 10.2928 13.3632-1.4832 2.9024-4.176 7.6368-10.2928 7.7968zM48.2305 69.3231a8.8103 8.8103 0 008.5696 0" stroke="#45413C" stroke-width="1.6" stroke-linecap="round" stroke-linejoin="round"/>
  <path d="M67.6974 50.4176c-2.3312-7.0208-6.712-16.7328-15.1824-16.9792-8.4704.2464-12.8496 9.9584-15.1824 16.9792-2.7312 8.2256 3.5104 11.632 11.0896 13.96a15.2522 15.2522 0 00-5.6 2.744c1.24 3.7024 1.976 8.7456 9.7008 8.8848 7.7248-.1392 8.4624-5.1824 9.7008-8.8848a15.257 15.257 0 00-5.6-2.744c7.5504-2.3232 13.8112-5.712 11.0736-13.96z" stroke="#45413C" stroke-width="1.6" stroke-linecap="round" stroke-linejoin="round"/>
  <path fill-rule="evenodd" clip-rule="evenodd" d="M85.1919 46.875h14.808l.3701 1.6836c.119.5394-.222 1.0728-.7615 1.1915-.5394.1186-1.0729-.2224-1.1915-.7618l-.025-.1133h-8.3717l7.625 7.625-7.625 7.625h8.3479l.0574-.2213c.1386-.5346.6844-.8556 1.219-.717.5344.1386.8554.6843.7174 1.219l-.4462 1.7193H85.1919l9.625-9.625-9.625-9.625z" fill="#000"/>
  <path d="M107.112 64.0001v-11.736h1.944l.192 1.896h.096c.592-.608 1.232-1.12 1.92-1.536.688-.432 1.488-.648 2.4-.648 1.376 0 2.384.408 3.024 1.224.64.816.96 1.992.96 3.528v7.272h-2.376v-6.96c0-1.024-.184-1.776-.552-2.256-.368-.496-1-.744-1.896-.744-.624 0-1.184.16-1.68.48-.496.304-1.048.768-1.656 1.392v8.088h-2.376zM119.845 54v-.871c.65-.5546 1.23-1.0616 1.742-1.521.511-.468.944-.9013 1.3-1.3.364-.3986.641-.7713.832-1.118.19-.3466.286-.6803.286-1.001 0-.442-.135-.7886-.403-1.04-.269-.26-.663-.39-1.183-.39-.364 0-.698.091-1.001.273-.295.182-.568.3987-.819.65l-.819-.832c.398-.4073.819-.7193 1.261-.936.442-.2253.966-.338 1.573-.338.424 0 .81.0607 1.157.182.346.1214.641.2947.884.52.251.2167.442.481.572.793.138.312.208.6587.208 1.04 0 .364-.091.7367-.273 1.118-.174.3727-.412.754-.715 1.144-.304.3814-.668.7757-1.092 1.183-.416.4074-.863.8277-1.339 1.261.242-.0173.498-.0346.767-.052.268-.026.515-.039.741-.039h2.34V54h-6.019z" fill="#000"/>
</svg>
