<svg width="160" height="160" fill="none" xmlns="http://www.w3.org/2000/svg">
  <g clip-path="url(#clip0)">
    <path d="M6 74c0 19.626 7.7834 38.448 21.6379 52.326C41.4925 140.204 60.2833 148 79.8766 148c19.5932 0 38.3844-7.796 52.2384-21.674 13.855-13.878 21.638-32.7 21.638-52.326 0-19.626-7.783-38.4482-21.638-52.3259C118.261 7.7964 99.4698 0 79.8766 0 60.2833 0 41.4925 7.7964 27.6379 21.6741 13.7834 35.5518 6 54.374 6 74v0z" fill="#C7F0FF" stroke="#C7F0FF" stroke-width="1.6" stroke-miterlimit="10"/>
    <path opacity=".3" d="M26.647 135.858c11.4031 0 20.647-1.156 20.647-2.581 0-1.426-9.2439-2.581-20.647-2.581-11.403 0-20.647 1.155-20.647 2.581 0 1.425 9.244 2.581 20.647 2.581z" fill="#5C5589"/>
    <path d="M43.9785 104.377l1.9286-22.5193L48.5872 80l2.2831 2.8078-4.6371 22.2492" fill="#8192A4"/>
    <path d="M18.7075 100.151L22.1109 132l2.7368-.553 1.2054-7.983h1.645l2.1696 8.38 1.574.213 2.8787-31.906H18.7075z" fill="#425059"/>
    <path d="M17.1749 115.452s-.8367 4.821 3.1622 4.821c3.999 0-1.3329-6.665-1.3329-6.665" fill="#F4D9BE"/>
    <path d="M16.2967 102.746s-1.177 11.741 1.021 13.939l3.4459-1.233s-3.5452-8.821-2.0704-13.103" fill="#425059"/>
    <path d="M42.4746 105.242c3.1481-.256 4.1408 2.212 3.4034 4.58-.7374 2.368-3.4034.326-3.4034.326" fill="#F4D9BE"/>
    <path d="M26.7759 84.2967s-6.0835-.9643-6.8493 2.6376c-.5672 2.7085 2.6943 16.6057 2.6943 16.6057l2.354-9.6714M43.778 104.376l-.78 7.53 2.6518.539 1.1912-7.218-3.063-.851z" fill="#425059"/>
    <path d="M43.3403 106.206s1.4322.298 1.4322 1.333-1.9994 2.07-3.1055-.667" fill="#F4D9BE"/>
    <path d="M34.4199 102.051s5.4312 2.836 8.0546 3.191v4.92s-2.5525-.113-9.0756-6.622" fill="#425059"/>
    <path d="M27.2715 100.151s8.8487-3.0208 8.8487 2.495l-6.9485.894M24.2955 100.151s-8.8487-3.0208-8.8487 2.495l7.1896.894" fill="#8192A4"/>
    <path d="M30.7334 87.9836h-8.0972V103.54h8.0972V87.9836z" fill="#F4D9BE"/>
    <path d="M24.9756 93.7835c.7516 0 1.3613-.6098 1.3613-1.3614h-2.7226c0 .7516.6097 1.3614 1.3613 1.3614zM28.8179 93.7835c.7516 0 1.3613-.6098 1.3613-1.3614h-2.7227c0 .7516.6098 1.3614 1.3614 1.3614z" fill="#4A311A"/>
    <path d="M46.8267 106.206c-.2694-.369-1.6733-1.39-1.6733.737s-.5389 4.737.4963 4.737c1.0352 0 2.666-3.503 1.177-5.474z" fill="#F4D9BE"/>
    <path d="M32.6032 89.6853h-11.926l5.9701-6.353c-.0142 0 6.5089-.0851 5.9559 6.353zM37.9361 103.412l-2.0845 2.978 1.0351 1.021 2.1697-3.517-1.1203-.482zM42.4747 110.602v-5.658l-.8083-.213-.2553 5.431M21.2163 109.524h5.5588l.4963-4.297.8367 4.297 4.5236.638-4.9065.142-.2978-.964-.4963 1.262-5.7148-1.078zM20.3383 117.763l12.3655.369.6949 2.666-14.6912-.525 1.6308-2.51z" fill="#8192A4"/>
    <path d="M31.4405 132.057l1.9569.837h-3.4601l-.553-2.907M22.1116 132.001l-2.2405.893h4.7363l.2411-1.446" fill="#425059"/>
    <path d="M20.3379 127.222c5.2238 0 9.4585-4.235 9.4585-9.459 0-5.224-4.2347-9.458-9.4585-9.458-5.2238 0-9.4585 4.234-9.4585 9.458s4.2347 9.459 9.4585 9.459z" fill="#8192A4"/>
    <path d="M20.3369 126.186c4.652 0 8.4233-3.771 8.4233-8.423s-3.7713-8.423-8.4233-8.423c-4.6521 0-8.4233 3.771-8.4233 8.423s3.7712 8.423 8.4233 8.423z" fill="#425059"/>
    <path opacity=".3" d="M11.291 114.97l8.1681 11.528-5.729-14.818 8.9054 14.521-7.927-16.039 11.9402 13.968 2.0845-2.807-8.8629-12.664-3.4884.865-4.0699 3.219" fill="#8192A4"/>
    <path opacity=".4" d="M11.5879 115.395l7.4023 11.486.7232.071-7.4165-13.344 1.0494-2.212 9.1181 14.535-8.2956-14.961 1.0352-.808 10.8482 14.365 1.5882-1.73-10.1675-13.542-3.9139 1.9" fill="#8192A4"/>
    <path d="M20.3376 122.287c2.4983 0 4.5236-2.026 4.5236-4.524s-2.0253-4.523-4.5236-4.523-4.5236 2.025-4.5236 4.523c0 2.498 2.0253 4.524 4.5236 4.524z" fill="#425059"/>
    <path d="M20.3377 121.322c1.9657 0 3.5593-1.593 3.5593-3.559 0-1.966-1.5936-3.559-3.5593-3.559-1.9658 0-3.5594 1.593-3.5594 3.559 0 1.966 1.5936 3.559 3.5594 3.559z" fill="#8192A4"/>
    <path d="M20.3381 119.933c1.1983 0 2.1696-.972 2.1696-2.17s-.9713-2.169-2.1696-2.169-2.1696.971-2.1696 2.169.9713 2.17 2.1696 2.17zM42.106 104.306l6.3671 1.772.0992-1.191-6.2536-1.588-.2127 1.007z" fill="#425059"/>
    <path d="M46.487 82.198l1.2905.5956-2.4391 20.7464 3.2332-20.4061 1.8151-.156-3.8997-.7799z" fill="#9BB3C9"/>
    <path d="M28.1802 85.0483l3.3183 3.8713-2.4391-4.6654M26.0103 86.0695l3.3182 2.8503-2.439-3.4459M24.6357 87.3598l2.1413 1.5599-1.5882-1.886" fill="#425059"/>
    <path d="M27.2715 94.6912l2.907 1.0635-2.907 2.1271v-3.1906z" fill="#FFC2C4"/>
    <path d="M138.793 68.2813c8.785 18.1538 11.391 45.9677 2.991 70.7807-.396-6.253-6.023-16.351-11.463-17.716a13.9661 13.9661 0 00-13.548 4.169c.282-6.91-1.334-9.515-4.168-11.464-2.189-1.511-4.054-2.813-7.18-1.771 3.532-2.918 13.954-10.995 16.038-25.1467 1.219-8.337 3.012-5.2106 7.701-8.3891 4.992-3.4494 7.462-14.9544 9.629-10.4629z" fill="#FFC960"/>
    <path d="M144.389 68.7186s11.985-15.1108 15.111-14.0687c-3.126 4.1685-5.211 9.3791-4.168 18.7582 1.729 15.538 3.907 22.0826.677 32.9829a30.809 30.809 0 01-9.379 14.288c2.313-21.2491 1.104-38.1315-2.241-51.9604zM80.8197 52.0448c.469-.1563-2.574-3.8558 0-6.2527 3.1264-2.8971 12.5055-8.337 17.7161-7.2949 8.5242 1.7091 3.3242 10.2441 5.2102 12.5055 5.211 6.2527 11.349 20.0087 12.443 27.0952 2.626 16.997-4.741 27.4391-12.047 34.7551 1.689-.365 6.055-2.241 9.181 1.928 1.105 1.469 3.846 5.033 3.554 9.973 10.859-7.702 16.674-1.907 18.665.792-2.971 5.325-13.413 7.597-17.581 7.597.198 1.782.594 4.637-.49 5.627-4.168 0-30.5757 1.334-30.8988-.094-.4377-1.886.5002-6.419 3.5536-7.607 3.0535-1.188 8.5142.907 9.7752 0-2.8346-4.242-8.2537-12.62-8.2015-17.966 0-2.533 2.5948-3.95 4.1684-5.732-.594-7.6908 3.2619-21.6135 3.2619-21.6135a32.5147 32.5147 0 00-5.5962 1.4485c-.9275 2.0842-4.0122 4.8667-5.9922.0625-.3231-.8024 1.8758-1.5006 2.7616-2.7616 1.3652-1.9488 2.3552-4.5853 4.5437-5.9297a10.6923 10.6923 0 017.1803-1.115c.781-1.8446 2.428-3.8871 1.25-10.0669a30.513 30.513 0 00-6.8255-14.3084c-2.0842 2.0843-3.5536 8.4412-2.9596 8.6913a9.8054 9.8054 0 01-4.8667-2.8033c-1.6049-2.5636 0-6.5862 1.1776-8.2536-1.0317-.1459-9.4104 1.4694-8.9831 1.3235z" fill="#79C651"/>
    <path d="M121.983 70.2819c3.127 7.2948 7.295 1.0421 9.379-7.0865 2.189-8.3369-5.366-24.1251-5.366-24.1251s12.984 13.3913 14.86 18.0079c7.389 18.2475 10.421 57.3898.928 81.9838-.396-6.253-6.024-16.351-11.464-17.716a13.9593 13.9593 0 00-7.342.237 13.9661 13.9661 0 00-6.205 3.931c.281-6.909-1.334-9.514-4.169-11.463a9.3806 9.3806 0 00-4.045-1.507 9.3726 9.3726 0 00-4.292.465c3.127-4.513 12.506-14.5899 12.506-26.0532 0-6.0547-1.042-8.337-1.042-8.337M109.176 21c-5.961 3.3035-11.5469 6.3569-15.4132 12.9119-1.1046 1.8654-4.4915 6.805-6.9509 8.139-1.8446 1.0421-3.5016 2.0842-5.0231 2.7407-3.5849 1.4903-1.5527 7.8576-1.5527 7.8576l9.1185-2.5115M93.3985 43.249l1.4589-1.0005M100.078 35.9023s8.733-9.3791 21.062-9.3165M157.416 139.062H67.7936M106.352 48.3973c1.438-1.5945 5.148-1.7821 5.148-1.7821-.719-2.2509-4.637-6.3777-4.668-7.2323-.073-1.6778 5.533-3.7099 8.941-3.5432M88.1876 58.3914c1.7716 2.3552 3.6891 3.6787 5.8984 2.9388 0 0-1.5319-7.2949 2.8867-8.7643" stroke="#252D32" stroke-width="2.5" stroke-linecap="round" stroke-linejoin="round"/>
    <path d="M49.7854 78.9419c8.8997-9.0977 16.674-9.8272 22.166-14.1729 4.1684-3.366 8.3369-5.9922 10.9005-9.0039.865-1.0421 2.9284-1.9175 2.0113 1.7299a60.3089 60.3089 0 00-1.0421 10.4212c-.2709 4.6271 1.2297 12.5889-3.6266 21.77A22.7186 22.7186 0 0169.346 99.43a3.7831 3.7831 0 00-.6461-3.5328c-1.0421-1.1672-2.4177-.7086-3.2826-.5627-2.2093.3751-3.7517 2.699-4.9501 4.3769-1.5111 2.0846-2.8554 4.3976-4.3353 6.5656-5.1063 7.461-11.5779 9.243-11.9114 8.837-.3335-.407 1.4277-2.261.6044-6.711-1.2505-6.534-7.2948-16.9348 4.9605-29.4611z" fill="#FFC960"/>
    <path d="M61.9468 61.9137s-15.3192-.5523-20.3943 10.911c0 0 5.2106-.7191 4.8979 2.6574-.4481 4.5853-6.4403 5.0647-10.6817 11.2549-4.2415 6.1902.1355 12.8702.1355 12.8702M38.6974 105.975a5.0002 5.0002 0 01.9734 3.17 5.0044 5.0044 0 01-1.2235 3.083" stroke="#FFC960" stroke-width="2.5" stroke-linecap="round" stroke-linejoin="round"/>
    <path d="M99.0571 86.9558c-1.9904 5.9193-4.1685 13.4542-3.1263 20.8422M96.973 52.5659s7.295 10.2545 6.253 19.8003a49.1278 49.1278 0 01-1.042 5.2106M106.352 48.3975c4.168 3.1263 9.379 8.3369 15.631 21.8845" stroke="#252D32" stroke-width="2.5" stroke-linecap="round" stroke-linejoin="round"/>
    <path d="M100.099 107.798s-7.4408-1.042-8.337 5.211c-1.0421 7.295 9.379 18.758 9.379 18.758s-9.379-2.084-11.4632-1.042c-2.0843 1.042-3.1264 7.295-3.1264 7.295M102.183 77.5767s-1.042-1.0421-5.2105 0-5.2106 5.2106-6.2527 6.2527c-1.0422 1.0421-3.1264 1.0421-3.1264 3.1264 0 2.0842 2.0842 4.1685 2.0842 4.1685M103.226 86.9559s-4.1689-3.1264-5.211-2.0843a41.5558 41.5558 0 01-4.1685 3.1264M117.815 136.978c0-3.126-3.126-6.253-6.252-5.211-1.042.334-3.127-8.337-2.085-11.463M135.531 127.369a38.7163 38.7163 0 01-18.758 5.44M148.037 64.0293s8.337-10.4213 11.463-9.3791c-3.126 4.1684-5.211 9.3791-4.168 18.7581 1.729 15.5381 3.907 22.0826.677 32.9827a30.809 30.809 0 01-9.379 14.288M123.193 113.196s10.077-13.8181 13.235-38.6936M136.824 75.2947s5.721 20.5298 1.771 41.6853" stroke="#252D32" stroke-width="2.5" stroke-linecap="round" stroke-linejoin="round"/>
  </g>
  <defs>
    <clipPath id="clip0">
      <path fill="#fff" d="M0 0h160v160H0z"/>
    </clipPath>
  </defs>
</svg>
