<svg width="128" height="128" fill="none" xmlns="http://www.w3.org/2000/svg">
  <path d="M0 64c0 16.9739 6.7428 33.2525 18.7452 45.255C30.7475 121.257 47.0261 128 64 128c16.9739 0 33.2525-6.743 45.255-18.745C121.257 97.2525 128 80.9739 128 64c0-16.9739-6.743-33.2525-18.745-45.2548C97.2525 6.7428 80.9739 0 64 0 47.0261 0 30.7475 6.7428 18.7452 18.7452 6.7428 30.7475 0 47.0261 0 64z" fill="#C7F0FF"/>
  <path opacity=".15" d="M23.6143 106.714c0 .732 4.4126 1.434 12.2673 1.951 7.8546.518 18.5077.809 29.6159.809 11.1081 0 21.7612-.291 29.6158-.809 7.8547-.517 12.2677-1.219 12.2677-1.951s-4.413-1.434-12.2677-1.952c-7.8546-.518-18.5077-.808-29.6158-.808-11.1082 0-21.7613.29-29.6159.808-7.8547.518-12.2673 1.22-12.2673 1.952z" fill="#45413C"/>
  <path d="M25.0303 42.6543h80.9027v43.9184H25.0303V42.6543z" fill="#656769"/>
  <path d="M25.0303 42.6543h80.9027v8.4752H25.0303v-8.4752z" fill="#525252"/>
  <path d="M104.334 105.066H26.6303a1.6006 1.6006 0 01-1.6-1.6V86.5728h80.9037v16.8932a1.5993 1.5993 0 01-1.6 1.6z" fill="#E8F4FA"/>
  <path d="M25.0303 86.5728h80.9027v12.7135H25.0303V86.5728z" fill="#DAEDF7"/>
  <path d="M31.9648 91.2a4.6245 4.6245 0 001.3549 3.2686 4.6243 4.6243 0 003.2691 1.3537H94.376A4.624 4.624 0 0099 91.2H31.9648z" fill="#C0DCEB"/>
  <path d="M29.6543 47.2769h71.6577v34.672H29.6543v-34.672z" fill="#FFAA54"/>
  <path d="M98.1103 47.2769h-65.256a3.1999 3.1999 0 00-3.2 3.2v3.8528a3.1998 3.1998 0 013.2-3.2h65.256a3.1999 3.1999 0 013.1997 3.2v-3.8528a3.1999 3.1999 0 00-3.1997-3.2z" fill="#FF8A14"/>
  <path d="M105.934 42.6543H25.0303V27.3599a3.1999 3.1999 0 013.2-3.2h74.5037a3.2 3.2 0 013.2 3.2v15.2944z" fill="#E8F4FA"/>
  <path d="M102.734 24.1599H28.2303a3.2002 3.2002 0 00-3.2 3.2v3.8528a3.1999 3.1999 0 013.2-3.2h74.5037a3.2 3.2 0 013.2 3.2v-3.8528a3.2 3.2 0 00-3.2-3.2z" fill="#fff"/>
  <path d="M48.1455 28.7856h18.4928v9.2464H48.1455v-9.2464z" fill="#00B8F0"/>
  <path d="M51.6129 38.032h-2.504a.959.959 0 01-.8869-.5926.961.961 0 01-.0731-.3674v-7.3232a.9613.9613 0 01.2812-.6788.9605.9605 0 01.6788-.2812h11.7504l-9.2464 9.2432z" fill="#4ACFFF"/>
  <path d="M31.9663 33.408a4.6224 4.6224 0 109.2448 0 4.6224 4.6224 0 00-9.2448 0z" fill="#E8F4FA"/>
  <path d="M36.589 31.9457a4.61 4.61 0 014.32 3.04 4.6238 4.6238 0 00-8.1298-4.2598 4.6241 4.6241 0 00-.5262 4.2598 4.6083 4.6083 0 014.336-3.04z" fill="#fff"/>
  <path fill-rule="evenodd" clip-rule="evenodd" d="M24.2305 86.5727a.8.8 0 01.8-.8h80.9035a.8.8 0 01.8.8v16.8933c0 .636-.252 1.246-.702 1.697-.451.45-1.061.703-1.698.703H26.6305c-.6366 0-1.247-.253-1.6971-.703a2.4023 2.4023 0 01-.7029-1.697V86.5727zm1.6.8v16.0933c0 .212.0843.415.2343.565.15.15.3535.235.5657.235h77.7035a.8.8 0 00.566-.235c.15-.15.234-.353.234-.565V87.3727H25.8305z" fill="#45413C"/>
  <path fill-rule="evenodd" clip-rule="evenodd" d="M31.3988 90.6343a.7998.7998 0 01.5658-.2344h67.0351a.7998.7998 0 01.8.8003 5.4237 5.4237 0 01-5.424 5.4221H36.5885a5.4237 5.4237 0 01-5.4239-5.4221.7997.7997 0 01.2342-.5659zm1.4507 1.3656a3.824 3.824 0 003.739 3.0224h57.7872a3.8242 3.8242 0 003.7391-3.0224H32.8495zM28.2305 24.9601a2.4 2.4 0 00-2.4 2.4v14.4944h79.3035V27.3601c0-.6365-.252-1.247-.702-1.697a2.403 2.403 0 00-1.698-.703H28.2305zm-2.8285-.4284a4 4 0 012.8285-1.1716h74.5035c1.061 0 2.079.4214 2.829 1.1716a3.9999 3.9999 0 011.171 2.8284v15.2944a.8.8 0 01-.8.8H25.0305a.8.8 0 01-.8-.8V27.3601a4 4 0 011.1715-2.8284z" fill="#45413C"/>
  <path fill-rule="evenodd" clip-rule="evenodd" d="M47.3457 28.7856a.8.8 0 01.8-.8h18.4928a.8.8 0 01.8.8v9.2464a.8.8 0 01-.8.8H48.1457a.8.8 0 01-.8-.8v-9.2464zm1.6.8v7.6464h16.8928v-7.6464H48.9457zM32.7547 29.5738a5.4224 5.4224 0 117.6685 7.6684 5.4224 5.4224 0 01-7.6685-7.6684zm3.8342.0118a3.8223 3.8223 0 00-2.7028 6.5252 3.822 3.822 0 005.4057 0 3.8223 3.8223 0 00-2.7029-6.5252z" fill="#45413C"/>
  <path d="M73.5728 33.408c0 1.226.487 2.4017 1.3538 3.2686a4.6227 4.6227 0 006.5371 0 4.6228 4.6228 0 00-3.2685-7.891 4.6224 4.6224 0 00-4.6224 4.6224z" fill="#E8F4FA"/>
  <path d="M78.1953 31.9457a4.6076 4.6076 0 014.32 3.04 4.623 4.623 0 00-2.1836-5.7182 4.6223 4.6223 0 00-6.4724 5.7182 4.6094 4.6094 0 014.336-3.04z" fill="#fff"/>
  <path fill-rule="evenodd" clip-rule="evenodd" d="M74.3611 29.5738a5.4224 5.4224 0 117.6685 7.6685 5.4224 5.4224 0 01-7.6685-7.6685zm3.8343.0118a3.8225 3.8225 0 10-.0001 7.645 3.8225 3.8225 0 00.0001-7.645z" fill="#45413C"/>
  <path d="M89.7534 33.408a4.6228 4.6228 0 002.8535 4.2706 4.6222 4.6222 0 003.5378 0 4.623 4.623 0 002.5017-2.5016 4.6227 4.6227 0 00-4.2706-6.3914 4.6223 4.6223 0 00-4.6224 4.6224z" fill="#E8F4FA"/>
  <path d="M94.376 31.9457a4.6095 4.6095 0 014.32 3.04 4.623 4.623 0 00-2.1836-5.7182 4.6226 4.6226 0 00-5.9437 1.4621 4.6218 4.6218 0 00-.5287 4.2561 4.6097 4.6097 0 014.336-3.04z" fill="#fff"/>
  <path fill-rule="evenodd" clip-rule="evenodd" d="M92.3009 28.3984a5.4227 5.4227 0 017.0848 2.9345 5.4226 5.4226 0 01-8.8439 5.9093 5.423 5.423 0 01-1.5882-3.8342 5.4227 5.4227 0 013.3473-5.0096zm2.0751 1.1872a3.8225 3.8225 0 000 7.6448 3.8225 3.8225 0 000-7.6448z" fill="#45413C"/>
  <path d="M25.0449 86.5728h80.9021v4.6224H25.0449v-4.6224z" fill="#E8F4FA"/>
  <path fill-rule="evenodd" clip-rule="evenodd" d="M24.2446 86.5727a.8.8 0 01.8-.8h80.9024a.8.8 0 01.8.8v4.6224a.8.8 0 01-.8.8H25.0446a.8.8 0 01-.8-.8v-4.6224zm1.6.8v3.0224h79.3024v-3.0224H25.8446zM28.8687 77.3264a.8.8 0 01.8-.8h71.6563c.441 0 .8.3581.8.8 0 .4418-.359.8-.8.8H29.6687a.8.8 0 01-.8-.8z" fill="#45413C"/>
  <path fill-rule="evenodd" clip-rule="evenodd" d="M24.2305 42.6545a.8.8 0 01.8-.8h80.9025a.8.8 0 01.8.8v43.9184a.8.8 0 01-.8.8H25.0305a.8.8 0 01-.8-.8V42.6545zm1.6.8v42.3184h79.3025V43.4545H25.8305z" fill="#45413C"/>
  <path fill-rule="evenodd" clip-rule="evenodd" d="M28.8545 47.2768a.8.8 0 01.8-.8h71.6575a.8.8 0 01.8.8v34.672a.8.8 0 01-.8.8H29.6545a.8.8 0 01-.8-.8v-34.672zm1.6.8v33.072h70.0575v-33.072H30.4545z" fill="#45413C"/>
  <path d="M84 54.8574A1.1424 1.1424 0 0085.1426 56h33.1434c.303 0 .594-.1204.808-.3347a1.143 1.143 0 00.334-.8079V17.7141L109.714 8H85.1426A1.1415 1.1415 0 0084 9.1426v45.7148z" fill="#fff"/>
  <path d="M84 54.8574A1.1424 1.1424 0 0085.1426 56h33.1434c.303 0 .594-.1204.808-.3347a1.143 1.143 0 00.334-.8079V17.7141L109.714 8H85.1426A1.1415 1.1415 0 0084 9.1426v45.7148z" stroke="#45413C" stroke-width="1.6" stroke-linecap="round" stroke-linejoin="round"/>
  <path d="M119.429 17.7141h-8.647a1.068 1.068 0 01-.755-.3125 1.067 1.067 0 01-.312-.7545V8l9.714 9.7141z" fill="#E8F4FA" stroke="#45413C" stroke-width="1.6" stroke-linecap="round" stroke-linejoin="round"/>
  <path d="M99.6035 21.5203h13.8705M90.001 27.9219h23.473M90.001 34.3235h23.473M90.001 40.7253h10.669M90.001 47.127h10.669" stroke="#627B8C" stroke-width="1.6" stroke-linecap="round" stroke-linejoin="round"/>
</svg>
