<svg width="160" height="160" fill="none" xmlns="http://www.w3.org/2000/svg">
  <g clip-path="url(#clip0)">
    <path d="M16 80c0 16.9739 6.7428 33.253 18.7452 45.255C46.7475 137.257 63.0261 144 80 144c16.9739 0 33.253-6.743 45.255-18.745C137.257 113.253 144 96.9739 144 80c0-16.9739-6.743-33.2525-18.745-45.2548C113.253 22.7428 96.9739 16 80 16c-16.9739 0-33.2525 6.7428-45.2548 18.7452C22.7428 46.7475 16 63.0261 16 80z" fill="#CDF2FF"/>
    <path d="M9.6 74V21.84H24c3.7867 0 7.2267.5067 10.32 1.52s5.7333 2.5867 7.92 4.72c2.1867 2.08 3.8667 4.7467 5.04 8 1.2267 3.2533 1.84 7.12 1.84 11.6 0 4.48-.5867 8.3733-1.76 11.68-1.1733 3.3067-2.8533 6.0533-5.04 8.24-2.1333 2.1333-4.6933 3.7333-7.68 4.8S28.3467 74 24.72 74H9.6zm11.84-9.52h1.92c2.0267 0 3.8667-.2933 5.52-.88 1.7067-.5867 3.1467-1.52 4.32-2.8 1.2267-1.3333 2.16-3.0667 2.8-5.2.6933-2.1333 1.04-4.7733 1.04-7.92 0-3.0933-.3467-5.68-1.04-7.76-.64-2.1333-1.5733-3.8133-2.8-5.04-1.1733-1.28-2.6133-2.1867-4.32-2.72-1.6533-.5333-3.4933-.8-5.52-.8h-1.92v33.12zm58.5288 10.48c-3.0934 0-5.9467-.5867-8.56-1.76-2.56-1.1733-4.7734-2.9067-6.64-5.2-1.8134-2.2933-3.2267-5.12-4.24-8.48-1.0134-3.4133-1.52-7.36-1.52-11.84 0-4.3733.5066-8.2133 1.52-11.52 1.0133-3.36 2.4266-6.16 4.24-8.4 1.8666-2.2933 4.08-4 6.64-5.12 2.6133-1.1733 5.4666-1.76 8.56-1.76 3.0933 0 5.92.5867 8.48 1.76 2.6133 1.12 4.8266 2.8267 6.64 5.12 1.8666 2.24 3.3066 5.04 4.32 8.4 1.0132 3.3067 1.5202 7.1467 1.5202 11.52 0 4.48-.507 8.4267-1.5202 11.84-1.0134 3.36-2.4534 6.1867-4.32 8.48-1.8134 2.2933-4.0267 4.0267-6.64 5.2-2.56 1.1733-5.3867 1.76-8.48 1.76zm0-10.16c2.72 0 4.88-1.44 6.48-4.32 1.6-2.88 2.4-7.1467 2.4-12.8 0-5.44-.8-9.5733-2.4-12.4-1.6-2.8267-3.76-4.24-6.48-4.24-2.72 0-4.88 1.4133-6.48 4.24-1.6 2.8267-2.4 6.96-2.4 12.4 0 5.6533.8 9.92 2.4 12.8 1.6 2.88 3.76 4.32 6.48 4.32zM126.018 74V31.76h-15.6v-9.92h43.04v9.92h-15.6V74h-11.84z" fill="url(#paint0_linear)"/>
    <path d="M10.6 143V90.84H25c3.7867 0 7.2267.5067 10.32 1.52s5.7333 2.5867 7.92 4.72c2.1867 2.08 3.8667 4.747 5.04 8 1.2267 3.253 1.84 7.12 1.84 11.6 0 4.48-.5867 8.373-1.76 11.68-1.1733 3.307-2.8533 6.053-5.04 8.24-2.1333 2.133-4.6933 3.733-7.68 4.8-2.9867 1.067-6.2933 1.6-9.92 1.6H10.6zm11.84-9.52h1.92c2.0267 0 3.8667-.293 5.52-.88 1.7067-.587 3.1467-1.52 4.32-2.8 1.2267-1.333 2.16-3.067 2.8-5.2.6933-2.133 1.04-4.773 1.04-7.92 0-3.093-.3467-5.68-1.04-7.76-.64-2.133-1.5733-3.813-2.8-5.04-1.1733-1.28-2.6133-2.187-4.32-2.72-1.6533-.533-3.4933-.8-5.52-.8h-1.92v33.12zm58.3688 10.48c-3.52 0-7.0134-.613-10.48-1.84-3.4134-1.28-6.5334-3.173-9.36-5.68l6.8-8.08c1.9733 1.6 4.1333 2.907 6.48 3.92 2.3466 1.013 4.8 1.52 7.36 1.52 2.56 0 4.4266-.427 5.6-1.28 1.1733-.853 1.76-1.947 1.76-3.28 0-.907-.1867-1.653-.56-2.24-.3734-.64-.9067-1.2-1.6-1.68-.6934-.48-1.5467-.933-2.56-1.36a330.5006 330.5006 0 01-3.36-1.44l-6.72-2.88c-1.44-.533-2.8534-1.227-4.24-2.08-1.3334-.853-2.5067-1.84-3.52-2.96-1.0134-1.173-1.84-2.507-2.48-4-.5867-1.547-.88-3.28-.88-5.2 0-2.133.4533-4.133 1.36-6 .96-1.92 2.2666-3.5733 3.92-4.96 1.7066-1.44 3.7333-2.56 6.08-3.36 2.3466-.8 4.9333-1.2 7.76-1.2 3.2 0 6.2933.5867 9.28 1.76 2.9866 1.1733 5.68 2.88 8.08 5.12l-6 7.44c-1.8134-1.333-3.6267-2.347-5.44-3.04-1.8134-.747-4-1.12-6.56-1.12-1.9734 0-3.5734.4-4.8 1.2-1.1734.8-1.76 1.973-1.76 3.52s.7733 2.747 2.32 3.6c1.6.8 3.68 1.653 6.24 2.56l6.32 2.72c3.4666 1.28 6.1866 3.04 8.16 5.28 2.0262 2.24 3.0402 5.2 3.0402 8.88 0 2.187-.454 4.267-1.3602 6.24-.9067 1.92-2.2134 3.627-3.92 5.12-1.7067 1.44-3.8134 2.613-6.32 3.52-2.5067.853-5.3867 1.28-8.64 1.28zm36.6892-.96V90.84h11.76v42.24h23.2V143h-34.96z" fill="url(#paint1_linear)"/>
  </g>
  <defs>
    <linearGradient id="paint0_linear" x1="80" y1="-22" x2="80" y2="114" gradientUnits="userSpaceOnUse">
      <stop stop-color="#20F"/>
      <stop offset="1" stop-color="#9E00FF"/>
    </linearGradient>
    <linearGradient id="paint1_linear" x1="81" y1="47" x2="81" y2="183" gradientUnits="userSpaceOnUse">
      <stop stop-color="#20F"/>
      <stop offset="1" stop-color="#9E00FF"/>
    </linearGradient>
    <clipPath id="clip0">
      <path fill="#fff" d="M0 0h160v160H0z"/>
    </clipPath>
  </defs>
</svg>
