<svg width="160" height="160" fill="none" xmlns="http://www.w3.org/2000/svg">
  <path d="M16 80c0 16.9739 6.7428 33.253 18.7452 45.255C46.7475 137.257 63.0261 144 80 144c16.9739 0 33.253-6.743 45.255-18.745C137.257 113.253 144 96.9739 144 80c0-16.9739-6.743-33.2525-18.745-45.2548C113.253 22.7428 96.9739 16 80 16c-16.9739 0-33.2525 6.7428-45.2548 18.7452C22.7428 46.7475 16 63.0261 16 80z" fill="#CDF2FF"/>
  <path d="M39.3701 68.5799c-8.43 17.42-10.93 44.1101-2.87 67.9201.38-6 5.78-15.69 11-17a13.4053 13.4053 0 017.0453.228 13.3989 13.3989 0 015.9547 3.772c-.27-6.63 1.28-9.13 4-11 2.1-1.45 3.89-2.7 6.89-1.7-3.39-2.8-13.39-10.55-15.39-24.1301-1.17-8-2.89-5-7.39-8.05-4.79-3.31-7.16-14.35-9.24-10.04z" fill="#FFC960"/>
  <path d="M34 69S22.5 54.5 19.5 55.5c3 4 5 9 4 18-1.66 14.91-3.75 21.19-.65 31.65a29.5631 29.5631 0 009 13.71C29.63 98.47 30.79 82.27 34 69zM95.0002 53c-.45-.15 2.47-3.7 0-6-3-2.78-12-8-17-7-8.18 1.64-3.19 9.83-5 12-5 6-10.89 19.2-11.94 26-2.52 16.31 4.55 26.33 11.56 33.35-1.62-.35-5.81-2.15-8.81 1.85-1.06 1.41-3.69 4.83-3.41 9.57-10.42-7.39-16-1.83-17.91.76 2.85 5.11 12.87 7.29 16.87 7.29-.19 1.71-.57 4.45.47 5.4 4 0 29.34 1.28 29.65-.09.42-1.81-.48-6.16-3.41-7.3-2.93-1.14-8.17.87-9.38 0 2.72-4.07 7.92-12.11 7.87-17.24 0-2.43-2.49-3.79-4-5.5.57-7.38-3.13-20.74-3.13-20.74a31.2074 31.2074 0 015.37 1.39c.89 2 3.85 4.67 5.75.06.31-.77-1.8-1.44-2.65-2.65-1.31-1.87-2.26-4.4-4.36-5.69a10.2602 10.2602 0 00-6.89-1.07c-.75-1.77-2.33-3.73-1.2-9.66a29.2814 29.2814 0 016.55-13.73c2 2 3.41 8.1 2.84 8.34a9.4098 9.4098 0 004.67-2.69c1.54-2.46 0-6.32-1.13-7.92.99-.14 9.03 1.41 8.62 1.27z" fill="#79C651"/>
  <path d="M55.5001 70.4999c-3 7-7 1-9-6.8-2.1-8 5.15-23.15 5.15-23.15s-12.46 12.85-14.26 17.28c-7.09 17.51-10 55.0701-.89 78.6701.38-6 5.78-15.69 11-17a13.4053 13.4053 0 017.0453.228c2.286.703 4.342 2.006 5.9547 3.772-.27-6.63 1.28-9.13 4-11a9.0086 9.0086 0 013.8818-1.446 8.992 8.992 0 014.1182.446c-3-4.33-12-14.0001-12-25.0001 0-5.81 1-8 1-8M67.79 23.21c5.72 3.17 11.08 6.1 14.79 12.39 1.06 1.79 4.31 6.53 6.67 7.81 1.77 1 3.36 2 4.82 2.63 3.44 1.43 1.49 7.54 1.49 7.54l-8.75-2.41M82.9298 44.56l-1.4-.96M76.5201 37.51s-8.38-9-20.21-8.94M21.5 136.5h86M70.5 49.4999c-1.38-1.53-4.94-1.71-4.94-1.71.69-2.16 4.45-6.12 4.48-6.94.07-1.61-5.31-3.56-8.58-3.4M87.93 59.09c-1.7 2.26-3.54 3.53-5.66 2.82 0 0 1.47-7-2.77-8.41" stroke="#252D32" stroke-width="3" stroke-linecap="round" stroke-linejoin="round"/>
  <path d="M124.78 78.8099c-8.54-8.73-16-9.43-21.27-13.6-3.9999-3.23-7.9999-5.75-10.4599-8.64-.83-1-2.81-1.84-1.93 1.66a57.8682 57.8682 0 011 10c.26 4.44-1.18 12.08 3.48 20.89a21.8005 21.8005 0 0010.4099 9.35 3.64 3.64 0 01-.118-1.7732 3.6294 3.6294 0 01.738-1.6168c1-1.12 2.32-.68 3.15-.54 2.12.36 3.6 2.59 4.75 4.2 1.45 2.0001 2.74 4.2201 4.16 6.3001 4.9 7.16 11.11 8.87 11.43 8.48.32-.39-1.37-2.17-.58-6.44 1.2-6.27 7-16.2501-4.76-28.2701z" fill="#FFC960"/>
  <path d="M113.11 62.4699s14.7-.53 19.57 10.47c0 0-5-.69-4.7 2.55.43 4.4 6.18 4.86 10.25 10.8s-.13 12.35-.13 12.35M135.42 104.75a4.7976 4.7976 0 00-.934 3.042 4.7986 4.7986 0 001.174 2.958" stroke="#FFC960" stroke-width="3" stroke-linecap="round" stroke-linejoin="round"/>
  <path d="M77.5 86.5c1.91 5.68 4 12.91 3 20M79.5001 53.5s-7 9.84-6 19a47.142 47.142 0 001 5M70.5 49.5c-4 3-9 8-15 21" stroke="#252D32" stroke-width="3" stroke-linecap="round" stroke-linejoin="round"/>
  <path d="M76.5 106.5s7.14-1 8 5c1 7-9 18-9 18s9-2 11-1 3 7 3 7M74.5 77.5s1-1 5 0 5 5 6 6 3 1 3 3-2 4-2 4M73.5 86.5s4-3 5-2a39.8697 39.8697 0 004 3M59.5 134.5c0-3 3-6 6-5 1 .32 3-8 2-11M42.5 125.28a37.1689 37.1689 0 0018 5.22M30.5 64.5s-8-10-11-9c3 4 5 9 4 18-1.66 14.91-3.75 21.19-.65 31.65a29.5631 29.5631 0 009 13.71M54.3401 111.68s-9.67-13.2601-12.7-37.1301M41.2601 75.3099s-5.49 19.7-1.7 40.0001" stroke="#252D32" stroke-width="3" stroke-linecap="round" stroke-linejoin="round"/>
</svg>
