<svg width="160" height="160" viewBox="0 0 160 160" fill="none" xmlns="http://www.w3.org/2000/svg">
<path d="M80 160C124.183 160 160 124.183 160 80C160 35.8172 124.183 0 80 0C35.8172 0 0 35.8172 0 80C0 124.183 35.8172 160 80 160Z" fill="#C7F0FF"/>
<path fill-rule="evenodd" clip-rule="evenodd" d="M24.2989 76.9195C34.0454 76.9195 42.1136 76.9195 51.8602 76.9195C54.77 72.8354 53.7699 68.332 50.7986 64.3662C49.9869 62.0747 46.5461 57.1578 44.7907 51.5751C42.122 43.0888 41.9938 30.3354 46.3894 22.5251C46.8207 21.7591 48.0082 20.2033 48.4726 19.8018C49.2134 19.1612 50.5053 18.5248 50.648 17.1597C50.7879 15.8221 49.6964 14.6448 48.5681 14.4495C47.1634 14.2061 46.4444 15.3661 44.918 15.4897C43.1687 15.63 42.439 14.7171 41.355 14.2807C40.4035 14.7334 39.6216 15.6113 38.0961 15.6174C36.5351 15.6239 35.6773 14.6947 34.6884 14.2798C34.0944 14.8351 32.4882 15.5759 31.2788 15.4943C29.7258 15.3894 29.0745 14.2206 27.6138 14.4607C26.4929 14.6448 25.3591 15.8016 25.5134 17.1681C25.6728 18.5729 26.9219 19.1435 27.6781 19.848C34.2925 26.0088 33.8049 42.9974 31.3222 51.5033C30.3258 54.9143 25.3992 64.1126 25.3614 64.3662C22.3901 68.332 21.39 72.8354 24.2993 76.9195H24.2989ZM50.7986 64.3662C38.8285 64.3662 37.331 64.3662 25.3609 64.3662H50.7986Z" fill="#36464E"/>
<path fill-rule="evenodd" clip-rule="evenodd" d="M24.2989 76.9195H38.3851V64.3662H25.3609H38.3851V15.6053C38.2914 15.6132 38.1949 15.6174 38.0961 15.6174C36.5351 15.6239 35.6773 14.6947 34.6884 14.2798C34.0944 14.8351 32.4882 15.5759 31.2788 15.4943C29.7258 15.3894 29.0745 14.2206 27.6138 14.4607C26.4929 14.6448 25.3591 15.8016 25.5134 17.1681C25.6728 18.5729 26.9219 19.1435 27.6781 19.848C34.2926 26.0088 33.8049 42.9974 31.3222 51.5033C30.3258 54.9143 25.3992 64.1126 25.3614 64.3662C22.3901 68.332 21.39 72.8354 24.2993 76.9195H24.2989Z" fill="#445A64"/>
<path fill-rule="evenodd" clip-rule="evenodd" d="M23.5489 79.3585L52.7789 79.3734C53.088 75.5177 49.9722 76.4688 47.0811 76.4688L25.0688 76.4767C24.0282 76.6343 23.4612 78.0157 23.5489 79.359V79.3585ZM25.832 60.9246C25.0129 61.3204 24.6557 62.596 25.6218 63.0525C26.2381 63.3439 49.8248 63.1998 50.1232 63.0888C51.0599 62.7406 50.9303 61.4295 50.1796 60.9759C49.5274 60.5819 47.6629 60.7437 46.7715 60.7437C43.4953 60.7437 26.6479 60.5297 25.8325 60.9246H25.832Z" fill="#546E7A"/>
<path fill-rule="evenodd" clip-rule="evenodd" d="M37.174 4.23751C30.6789 5.17604 32.5038 15.0341 38.8403 13.7142C45.0109 12.4292 43.2626 3.35727 37.174 4.23751Z" fill="#36464E"/>
<path fill-rule="evenodd" clip-rule="evenodd" d="M31.5843 32.3496H44.5754C45.0994 32.3496 45.5284 32.779 45.5284 33.3035V33.9441C45.5284 34.4686 45.099 34.898 44.5754 34.898H31.5843C31.0598 34.898 30.6304 34.4686 30.6304 33.9441V33.3035C30.6304 32.779 31.0598 32.3496 31.5843 32.3496Z" fill="#546E7A"/>
<path fill-rule="evenodd" clip-rule="evenodd" d="M52.273 76.9195C62.0196 76.9195 70.0877 76.9195 79.8343 76.9195C82.7441 72.8354 81.744 68.332 78.7727 64.3662C77.961 62.0747 74.5202 57.1578 72.7648 51.5751C70.0961 43.0888 69.9679 30.3354 74.3635 22.5251C74.7948 21.7591 75.9823 20.2033 76.4467 19.8018C77.1875 19.1612 78.4794 18.5248 78.6221 17.1597C78.762 15.8221 77.6705 14.6448 76.5422 14.4495C75.1375 14.2061 74.4186 15.3661 72.8921 15.4897C71.1428 15.63 70.4132 14.7171 69.3292 14.2807C68.3776 14.7334 67.5957 15.6113 66.0702 15.6174C64.5093 15.6239 63.6514 14.6947 62.6625 14.2798C62.0685 14.8351 60.4624 15.5759 59.2529 15.4943C57.6999 15.3894 57.0486 14.2206 55.5879 14.4607C54.4671 14.6448 53.3332 15.8016 53.4875 17.1681C53.647 18.5729 54.896 19.1435 55.6522 19.848C62.2667 26.0088 61.779 42.9974 59.2963 51.5033C58.3 54.9143 53.3733 64.1126 53.3355 64.3662C50.3642 68.332 49.3641 72.8354 52.2734 76.9195H52.273ZM78.7727 64.3662C66.8026 64.3662 65.3051 64.3662 53.3351 64.3662H78.7727Z" fill="#36464E"/>
<path fill-rule="evenodd" clip-rule="evenodd" d="M52.273 76.9195H66.3593V64.3662H53.3351H66.3593V15.6053C66.2656 15.6132 66.169 15.6174 66.0702 15.6174C64.5093 15.6239 63.6514 14.6947 62.6625 14.2798C62.0685 14.8351 60.4624 15.5759 59.2529 15.4943C57.6999 15.3894 57.0486 14.2206 55.5879 14.4607C54.4671 14.6448 53.3332 15.8016 53.4875 17.1681C53.647 18.5729 54.896 19.1435 55.6522 19.848C62.2667 26.0088 61.779 42.9974 59.2963 51.5033C58.3 54.9143 53.3733 64.1126 53.3355 64.3662C50.3642 68.332 49.3641 72.8354 52.2734 76.9195H52.273Z" fill="#445A64"/>
<path fill-rule="evenodd" clip-rule="evenodd" d="M51.523 79.3585L80.753 79.3734C81.0621 75.5177 77.9463 76.4688 75.0552 76.4688L53.0429 76.4767C52.0023 76.6343 51.4354 78.0157 51.523 79.359V79.3585ZM53.8062 60.9246C52.987 61.3204 52.6299 62.596 53.5959 63.0525C54.2122 63.3439 77.799 63.1998 78.0974 63.0888C79.034 62.7406 78.9044 61.4295 78.1538 60.9759C77.5015 60.5819 75.637 60.7437 74.7456 60.7437C71.4694 60.7437 54.6221 60.5297 53.8066 60.9246H53.8062Z" fill="#546E7A"/>
<path fill-rule="evenodd" clip-rule="evenodd" d="M65.1481 4.23751C58.6531 5.17604 60.4779 15.0341 66.8145 13.7142C72.985 12.4292 71.2367 3.35727 65.1481 4.23751Z" fill="#36464E"/>
<path fill-rule="evenodd" clip-rule="evenodd" d="M59.5584 32.3496H72.5495C73.0736 32.3496 73.5025 32.779 73.5025 33.3035V33.9441C73.5025 34.4686 73.0731 34.898 72.5495 34.898H59.5584C59.0339 34.898 58.6045 34.4686 58.6045 33.9441V33.3035C58.6045 32.779 59.0339 32.3496 59.5584 32.3496Z" fill="#546E7A"/>
<path fill-rule="evenodd" clip-rule="evenodd" d="M80.2471 76.9195C89.9937 76.9195 98.0619 76.9195 107.808 76.9195C110.718 72.8354 109.718 68.332 106.747 64.3662C105.935 62.0747 102.494 57.1578 100.739 51.5751C98.0702 43.0888 97.942 30.3354 102.338 22.5251C102.769 21.7591 103.956 20.2033 104.421 19.8018C105.162 19.1612 106.454 18.5248 106.596 17.1597C106.736 15.8221 105.645 14.6448 104.516 14.4495C103.112 14.2061 102.393 15.3661 100.866 15.4897C99.1169 15.63 98.3873 14.7171 97.3033 14.2807C96.3517 14.7334 95.5698 15.6113 94.0443 15.6174C92.4834 15.6239 91.6255 14.6947 90.6366 14.2798C90.0426 14.8351 88.4365 15.5759 87.2271 15.4943C85.674 15.3894 85.0227 14.2206 83.562 14.4607C82.4412 14.6448 81.3073 15.8016 81.4616 17.1681C81.6211 18.5729 82.8701 19.1435 83.6264 19.848C90.2408 26.0088 89.7531 42.9974 87.2704 51.5033C86.2741 54.9143 81.3474 64.1126 81.3096 64.3662C78.3383 68.332 77.3383 72.8354 80.2476 76.9195H80.2471ZM106.747 64.3662C94.7768 64.3662 93.2792 64.3662 81.3092 64.3662H106.747Z" fill="#36464E"/>
<path fill-rule="evenodd" clip-rule="evenodd" d="M80.2471 76.9195H94.3334V64.3662H81.3092H94.3334V15.6053C94.2397 15.6132 94.1432 15.6174 94.0443 15.6174C92.4834 15.6239 91.6255 14.6947 90.6366 14.2798C90.0426 14.8351 88.4365 15.5759 87.2271 15.4943C85.674 15.3894 85.0227 14.2206 83.562 14.4607C82.4412 14.6448 81.3073 15.8016 81.4616 17.1681C81.6211 18.5729 82.8701 19.1435 83.6263 19.848C90.2408 26.0088 89.7531 42.9974 87.2704 51.5033C86.2741 54.9143 81.3474 64.1126 81.3096 64.3662C78.3383 68.332 77.3383 72.8354 80.2476 76.9195H80.2471Z" fill="#445A64"/>
<path fill-rule="evenodd" clip-rule="evenodd" d="M79.4971 79.3585L108.727 79.3734C109.036 75.5177 105.92 76.4688 103.029 76.4688L81.0171 76.4767C79.9764 76.6343 79.4095 78.0157 79.4971 79.359V79.3585ZM81.7803 60.9246C80.9611 61.3204 80.604 62.596 81.57 63.0525C82.1864 63.3439 105.773 63.1998 106.071 63.0888C107.008 62.7406 106.879 61.4295 106.128 60.9759C105.476 60.5819 103.611 60.7437 102.72 60.7437C99.4435 60.7437 82.5962 60.5297 81.7807 60.9246H81.7803Z" fill="#546E7A"/>
<path fill-rule="evenodd" clip-rule="evenodd" d="M93.1223 4.23751C86.6272 5.17604 88.452 15.0341 94.7886 13.7142C100.959 12.4292 99.2108 3.35727 93.1223 4.23751Z" fill="#36464E"/>
<path fill-rule="evenodd" clip-rule="evenodd" d="M87.5325 32.3496H100.524C101.048 32.3496 101.477 32.779 101.477 33.3035V33.9441C101.477 34.4686 101.047 34.898 100.524 34.898H87.5325C87.008 34.898 86.5786 34.4686 86.5786 33.9441V33.3035C86.5786 32.779 87.008 32.3496 87.5325 32.3496Z" fill="#546E7A"/>
<path fill-rule="evenodd" clip-rule="evenodd" d="M108.221 76.9195C117.968 76.9195 126.036 76.9195 135.783 76.9195C138.692 72.8354 137.692 68.332 134.721 64.3662C133.909 62.0747 130.468 57.1578 128.713 51.5751C126.044 43.0888 125.916 30.3354 130.312 22.5251C130.743 21.7591 131.931 20.2033 132.395 19.8018C133.136 19.1612 134.428 18.5248 134.57 17.1597C134.71 15.8221 133.619 14.6448 132.49 14.4495C131.086 14.2061 130.367 15.3661 128.84 15.4897C127.091 15.63 126.361 14.7171 125.277 14.2807C124.326 14.7334 123.544 15.6113 122.018 15.6174C120.457 15.6239 119.6 14.6947 118.611 14.2798C118.017 14.8351 116.411 15.5759 115.201 15.4943C113.648 15.3894 112.997 14.2206 111.536 14.4607C110.415 14.6448 109.281 15.8016 109.436 17.1681C109.595 18.5729 110.844 19.1435 111.6 19.848C118.215 26.0088 117.727 42.9974 115.245 51.5033C114.248 54.9143 109.322 64.1126 109.284 64.3662C106.312 68.332 105.312 72.8354 108.222 76.9195H108.221ZM134.721 64.3662C122.751 64.3662 121.253 64.3662 109.283 64.3662H134.721Z" fill="#36464E"/>
<path fill-rule="evenodd" clip-rule="evenodd" d="M108.221 76.9195H122.307V64.3662H109.283H122.307V15.6053C122.214 15.6132 122.117 15.6174 122.018 15.6174C120.457 15.6239 119.6 14.6947 118.611 14.2798C118.017 14.8351 116.411 15.5759 115.201 15.4943C113.648 15.3894 112.997 14.2206 111.536 14.4607C110.415 14.6448 109.281 15.8016 109.436 17.1681C109.595 18.5729 110.844 19.1435 111.6 19.848C118.215 26.0088 117.727 42.9974 115.245 51.5033C114.248 54.9143 109.322 64.1126 109.284 64.3662C106.312 68.332 105.312 72.8354 108.222 76.9195H108.221Z" fill="#445A64"/>
<path fill-rule="evenodd" clip-rule="evenodd" d="M107.471 79.3585L136.701 79.3734C137.01 75.5177 133.894 76.4688 131.003 76.4688L108.991 76.4767C107.95 76.6343 107.383 78.0157 107.471 79.359V79.3585ZM109.754 60.9246C108.935 61.3204 108.578 62.596 109.544 63.0525C110.16 63.3439 133.747 63.1998 134.045 63.0888C134.982 62.7406 134.852 61.4295 134.102 60.9759C133.449 60.5819 131.585 60.7437 130.693 60.7437C127.417 60.7437 110.57 60.5297 109.754 60.9246H109.754Z" fill="#546E7A"/>
<path fill-rule="evenodd" clip-rule="evenodd" d="M121.096 4.23751C114.601 5.17604 116.426 15.0341 122.763 13.7142C128.933 12.4292 127.185 3.35727 121.096 4.23751Z" fill="#36464E"/>
<path fill-rule="evenodd" clip-rule="evenodd" d="M115.507 32.3496H128.498C129.022 32.3496 129.451 32.779 129.451 33.3035V33.9441C129.451 34.4686 129.021 34.898 128.498 34.898H115.507C114.982 34.898 114.553 34.4686 114.553 33.9441V33.3035C114.553 32.779 114.982 32.3496 115.507 32.3496Z" fill="#546E7A"/>
<path fill-rule="evenodd" clip-rule="evenodd" d="M24.2989 153.631C34.0454 153.631 42.1136 153.631 51.8602 153.631C54.77 149.547 53.7699 145.043 50.7986 141.078C49.9869 138.786 46.5461 133.869 44.7907 128.287C42.122 119.8 41.9938 107.047 46.3894 99.2365C46.8207 98.4705 48.0082 96.9147 48.4726 96.5133C49.2134 95.8727 50.5053 95.2363 50.648 93.8711C50.7879 92.5335 49.6964 91.3563 48.5681 91.1609C47.1634 90.9175 46.4444 92.0775 44.918 92.2011C43.1687 92.3414 42.439 91.4285 41.355 90.9921C40.4035 91.4449 39.6216 92.3228 38.0961 92.3288C36.5351 92.3354 35.6773 91.4062 34.6884 90.9912C34.0944 91.5465 32.4882 92.2873 31.2788 92.2057C29.7258 92.1008 29.0745 90.932 27.6138 91.1721C26.4929 91.3563 25.3591 92.513 25.5134 93.8795C25.6728 95.2843 26.9219 95.855 27.6781 96.5594C34.2925 102.72 33.8049 119.709 31.3222 128.215C30.3258 131.626 25.3992 140.824 25.3614 141.078C22.3901 145.043 21.39 149.547 24.2993 153.631H24.2989ZM50.7986 141.078C38.8285 141.078 37.331 141.078 25.3609 141.078H50.7986Z" fill="#36464E"/>
<path fill-rule="evenodd" clip-rule="evenodd" d="M24.2989 153.631H38.3851V141.078H25.3609H38.3851V92.3167C38.2914 92.3246 38.1949 92.3288 38.0961 92.3288C36.5351 92.3354 35.6773 91.4062 34.6884 90.9912C34.0944 91.5465 32.4882 92.2873 31.2788 92.2057C29.7258 92.1008 29.0745 90.932 27.6138 91.1721C26.4929 91.3563 25.3591 92.513 25.5134 93.8795C25.6728 95.2843 26.9219 95.855 27.6781 96.5594C34.2926 102.72 33.8049 119.709 31.3222 128.215C30.3258 131.626 25.3992 140.824 25.3614 141.078C22.3901 145.043 21.39 149.547 24.2993 153.631H24.2989Z" fill="#445A64"/>
<path fill-rule="evenodd" clip-rule="evenodd" d="M23.5489 156.07L52.7789 156.085C53.088 152.229 49.9722 153.18 47.0811 153.18L25.0688 153.188C24.0282 153.346 23.4612 154.727 23.5489 156.07V156.07ZM25.832 137.636C25.0129 138.032 24.6557 139.307 25.6218 139.764C26.2381 140.055 49.8248 139.911 50.1232 139.8C51.0599 139.452 50.9303 138.141 50.1796 137.687C49.5274 137.293 47.6629 137.455 46.7715 137.455C43.4953 137.455 26.6479 137.241 25.8325 137.636H25.832Z" fill="#546E7A"/>
<path fill-rule="evenodd" clip-rule="evenodd" d="M37.174 80.9489C30.6789 81.8875 32.5038 91.7455 38.8403 90.4256C45.0109 89.1407 43.2626 80.0687 37.174 80.9489Z" fill="#36464E"/>
<path fill-rule="evenodd" clip-rule="evenodd" d="M31.5843 109.061H44.5754C45.0994 109.061 45.5284 109.49 45.5284 110.015V110.656C45.5284 111.18 45.099 111.609 44.5754 111.609H31.5843C31.0598 111.609 30.6304 111.18 30.6304 110.656V110.015C30.6304 109.49 31.0598 109.061 31.5843 109.061Z" fill="#546E7A"/>
<path fill-rule="evenodd" clip-rule="evenodd" d="M52.273 153.631C62.0196 153.631 70.0877 153.631 79.8343 153.631C82.7441 149.547 81.744 145.043 78.7727 141.078C77.961 138.786 74.5202 133.869 72.7648 128.287C70.0961 119.8 69.9679 107.047 74.3635 99.2365C74.7948 98.4705 75.9823 96.9147 76.4467 96.5133C77.1875 95.8727 78.4794 95.2363 78.6221 93.8711C78.762 92.5335 77.6705 91.3563 76.5422 91.1609C75.1375 90.9175 74.4186 92.0775 72.8921 92.2011C71.1428 92.3414 70.4132 91.4285 69.3292 90.9921C68.3776 91.4449 67.5957 92.3228 66.0702 92.3288C64.5093 92.3354 63.6514 91.4062 62.6625 90.9912C62.0685 91.5465 60.4624 92.2873 59.2529 92.2057C57.6999 92.1008 57.0486 90.932 55.5879 91.1721C54.4671 91.3563 53.3332 92.513 53.4875 93.8795C53.647 95.2843 54.896 95.855 55.6522 96.5594C62.2667 102.72 61.779 119.709 59.2963 128.215C58.3 131.626 53.3733 140.824 53.3355 141.078C50.3642 145.043 49.3641 149.547 52.2734 153.631H52.273ZM78.7727 141.078C66.8026 141.078 65.3051 141.078 53.3351 141.078H78.7727Z" fill="#36464E"/>
<path fill-rule="evenodd" clip-rule="evenodd" d="M52.273 153.631H66.3593V141.078H53.3351H66.3593V92.3167C66.2656 92.3246 66.169 92.3288 66.0702 92.3288C64.5093 92.3354 63.6514 91.4062 62.6625 90.9912C62.0685 91.5465 60.4624 92.2873 59.2529 92.2057C57.6999 92.1008 57.0486 90.932 55.5879 91.1721C54.4671 91.3563 53.3332 92.513 53.4875 93.8795C53.647 95.2843 54.896 95.855 55.6522 96.5594C62.2667 102.72 61.779 119.709 59.2963 128.215C58.3 131.626 53.3733 140.824 53.3355 141.078C50.3642 145.043 49.3641 149.547 52.2734 153.631H52.273Z" fill="#445A64"/>
<path fill-rule="evenodd" clip-rule="evenodd" d="M51.523 156.07L80.753 156.085C81.0621 152.229 77.9463 153.18 75.0552 153.18L53.0429 153.188C52.0023 153.346 51.4354 154.727 51.523 156.07V156.07ZM53.8062 137.636C52.987 138.032 52.6299 139.307 53.5959 139.764C54.2122 140.055 77.799 139.911 78.0974 139.8C79.034 139.452 78.9044 138.141 78.1538 137.687C77.5015 137.293 75.637 137.455 74.7456 137.455C71.4694 137.455 54.6221 137.241 53.8066 137.636H53.8062Z" fill="#546E7A"/>
<path fill-rule="evenodd" clip-rule="evenodd" d="M65.1481 80.9489C58.6531 81.8875 60.4779 91.7455 66.8145 90.4256C72.985 89.1407 71.2367 80.0687 65.1481 80.9489Z" fill="#36464E"/>
<path fill-rule="evenodd" clip-rule="evenodd" d="M59.5584 109.061H72.5495C73.0736 109.061 73.5025 109.49 73.5025 110.015V110.656C73.5025 111.18 73.0731 111.609 72.5495 111.609H59.5584C59.0339 111.609 58.6045 111.18 58.6045 110.656V110.015C58.6045 109.49 59.0339 109.061 59.5584 109.061Z" fill="#546E7A"/>
<path fill-rule="evenodd" clip-rule="evenodd" d="M80.2471 153.631C89.9937 153.631 98.0619 153.631 107.808 153.631C110.718 149.547 109.718 145.043 106.747 141.078C105.935 138.786 102.494 133.869 100.739 128.287C98.0702 119.8 97.942 107.047 102.338 99.2365C102.769 98.4705 103.956 96.9147 104.421 96.5133C105.162 95.8727 106.454 95.2363 106.596 93.8711C106.736 92.5335 105.645 91.3563 104.516 91.1609C103.112 90.9175 102.393 92.0775 100.866 92.2011C99.1169 92.3414 98.3873 91.4285 97.3033 90.9921C96.3517 91.4449 95.5698 92.3228 94.0443 92.3288C92.4834 92.3354 91.6255 91.4062 90.6366 90.9912C90.0426 91.5465 88.4365 92.2873 87.2271 92.2057C85.674 92.1008 85.0227 90.932 83.562 91.1721C82.4412 91.3563 81.3073 92.513 81.4616 93.8795C81.6211 95.2843 82.8701 95.855 83.6264 96.5594C90.2408 102.72 89.7531 119.709 87.2704 128.215C86.2741 131.626 81.3474 140.824 81.3096 141.078C78.3383 145.043 77.3383 149.547 80.2476 153.631H80.2471ZM106.747 141.078C94.7768 141.078 93.2792 141.078 81.3092 141.078H106.747Z" fill="#36464E"/>
<path fill-rule="evenodd" clip-rule="evenodd" d="M80.2471 153.631H94.3334V141.078H81.3092H94.3334V92.3167C94.2397 92.3246 94.1432 92.3288 94.0443 92.3288C92.4834 92.3354 91.6255 91.4062 90.6366 90.9912C90.0426 91.5465 88.4365 92.2873 87.2271 92.2057C85.674 92.1008 85.0227 90.932 83.562 91.1721C82.4412 91.3563 81.3073 92.513 81.4616 93.8795C81.6211 95.2843 82.8701 95.855 83.6263 96.5594C90.2408 102.72 89.7531 119.709 87.2704 128.215C86.2741 131.626 81.3474 140.824 81.3096 141.078C78.3383 145.043 77.3383 149.547 80.2476 153.631H80.2471Z" fill="#445A64"/>
<path fill-rule="evenodd" clip-rule="evenodd" d="M79.4971 156.07L108.727 156.085C109.036 152.229 105.92 153.18 103.029 153.18L81.0171 153.188C79.9764 153.346 79.4095 154.727 79.4971 156.07V156.07ZM81.7803 137.636C80.9611 138.032 80.604 139.307 81.57 139.764C82.1864 140.055 105.773 139.911 106.071 139.8C107.008 139.452 106.879 138.141 106.128 137.687C105.476 137.293 103.611 137.455 102.72 137.455C99.4435 137.455 82.5962 137.241 81.7807 137.636H81.7803Z" fill="#546E7A"/>
<path fill-rule="evenodd" clip-rule="evenodd" d="M93.1223 80.9489C86.6272 81.8875 88.452 91.7455 94.7886 90.4256C100.959 89.1407 99.2108 80.0687 93.1223 80.9489Z" fill="#36464E"/>
<path fill-rule="evenodd" clip-rule="evenodd" d="M87.5325 109.061H100.524C101.048 109.061 101.477 109.49 101.477 110.015V110.656C101.477 111.18 101.047 111.609 100.524 111.609H87.5325C87.008 111.609 86.5786 111.18 86.5786 110.656V110.015C86.5786 109.49 87.008 109.061 87.5325 109.061Z" fill="#546E7A"/>
<path fill-rule="evenodd" clip-rule="evenodd" d="M108.221 153.631C117.968 153.631 126.036 153.631 135.783 153.631C138.692 149.547 137.692 145.043 134.721 141.078C133.909 138.786 130.468 133.869 128.713 128.287C126.044 119.8 125.916 107.047 130.312 99.2365C130.743 98.4705 131.931 96.9147 132.395 96.5133C133.136 95.8727 134.428 95.2363 134.57 93.8711C134.71 92.5335 133.619 91.3563 132.49 91.1609C131.086 90.9175 130.367 92.0775 128.84 92.2011C127.091 92.3414 126.361 91.4285 125.277 90.9921C124.326 91.4449 123.544 92.3228 122.018 92.3288C120.457 92.3354 119.6 91.4062 118.611 90.9912C118.017 91.5465 116.411 92.2873 115.201 92.2057C113.648 92.1008 112.997 90.932 111.536 91.1721C110.415 91.3563 109.281 92.513 109.436 93.8795C109.595 95.2843 110.844 95.855 111.6 96.5594C118.215 102.72 117.727 119.709 115.245 128.215C114.248 131.626 109.322 140.824 109.284 141.078C106.312 145.043 105.312 149.547 108.222 153.631H108.221ZM134.721 141.078C122.751 141.078 121.253 141.078 109.283 141.078H134.721Z" fill="#36464E"/>
<path fill-rule="evenodd" clip-rule="evenodd" d="M108.221 153.631H122.308V141.078H109.283H122.308V92.3167C122.214 92.3246 122.117 92.3288 122.018 92.3288C120.458 92.3354 119.6 91.4062 118.611 90.9912C118.017 91.5465 116.411 92.2873 115.201 92.2057C113.648 92.1008 112.997 90.932 111.536 91.1721C110.415 91.3563 109.281 92.513 109.436 93.8795C109.595 95.2843 110.844 95.855 111.6 96.5594C118.215 102.72 117.727 119.709 115.245 128.215C114.248 131.626 109.322 140.824 109.284 141.078C106.312 145.043 105.312 149.547 108.222 153.631H108.221Z" fill="#445A64"/>
<path fill-rule="evenodd" clip-rule="evenodd" d="M107.471 156.07L136.701 156.085C137.01 152.229 133.894 153.18 131.003 153.18L108.991 153.188C107.95 153.346 107.383 154.727 107.471 156.07V156.07ZM109.754 137.636C108.935 138.032 108.578 139.307 109.544 139.764C110.16 140.055 133.747 139.911 134.045 139.8C134.982 139.452 134.852 138.141 134.102 137.687C133.449 137.293 131.585 137.455 130.693 137.455C127.417 137.455 110.57 137.241 109.754 137.636H109.754Z" fill="#546E7A"/>
<path fill-rule="evenodd" clip-rule="evenodd" d="M121.096 80.9489C114.601 81.8875 116.426 91.7455 122.762 90.4256C128.933 89.1407 127.184 80.0687 121.096 80.9489Z" fill="#36464E"/>
<path fill-rule="evenodd" clip-rule="evenodd" d="M115.507 109.061H128.498C129.022 109.061 129.451 109.49 129.451 110.015V110.656C129.451 111.18 129.021 111.609 128.498 111.609H115.507C114.982 111.609 114.553 111.18 114.553 110.656V110.015C114.553 109.49 114.982 109.061 115.507 109.061Z" fill="#546E7A"/>
</svg>
