<svg viewBox="0 0 48 48" xmlns="http://www.w3.org/2000/svg"><g transform="matrix(0.48,0,0,0.48,0,0)"><path d="M10.158 56.833 A40.000 40.000 0 1 0 90.158 56.833 A40.000 40.000 0 1 0 10.158 56.833 Z" fill="#c7f0ff"></path><path d="M13.454,72.833a39.246,39.246,0,0,0,10.823,14.5H76.039a39.177,39.177,0,0,0,10.791-14.5Z" fill="#ccf7ad"></path><path d="M50.158,96.833a40.246,40.246,0,0,0,25.881-9.5H24.277A39.957,39.957,0,0,0,50.158,96.833Z" fill="#adc4d9"></path><path d="M11.158 72.833L89.158 72.833" fill="none" stroke="#45413c" stroke-linecap="round" stroke-linejoin="round"></path><path d="M6.658 72.833L9.158 72.833" fill="none" stroke="#45413c" stroke-linecap="round" stroke-linejoin="round"></path><path d="M91.158 72.833L93.658 72.833" fill="none" stroke="#45413c" stroke-linecap="round" stroke-linejoin="round"></path><path d="M47.314 91.333L54.471 91.333" fill="none" stroke="#c0dceb" stroke-linecap="round"></path><path d="M43.14 91.333L44.929 91.333" fill="none" stroke="#c0dceb" stroke-linecap="round"></path><path d="M40.158 91.333L40.754 91.333" fill="none" stroke="#c0dceb" stroke-linecap="round"></path><path d="M23.558 87.333L77.058 87.333" fill="none" stroke="#45413c" stroke-linecap="round"></path><path d="M78.3,22.179a1.513,1.513,0,0,0-1.37-.872H24.433a1.513,1.513,0,0,0-1.37.872L18.18,32.644h65Z" fill="#adc4d9"></path><path d="M80.713 27.353L20.649 27.353 18.18 32.644 83.182 32.644 80.713 27.353z" fill="#8ca4b8"></path><path d="M78.3,22.179a1.513,1.513,0,0,0-1.37-.872H24.433a1.513,1.513,0,0,0-1.37.872L18.18,32.644h65Z" fill="none" stroke="#45413c" stroke-linecap="round" stroke-linejoin="round"></path><path d="M18.18 32.644H83.18199999999999V72.703H18.18z" fill="#bf8256"></path><path d="M18.18 38.691H83.18199999999999V72.70400000000001H18.18z" fill="#dea47a"></path><path d="M18.18 32.644H83.18199999999999V72.703H18.18z" fill="none" stroke="#45413c" stroke-linecap="round" stroke-linejoin="round"></path><path d="M28.761 32.644H72.599V72.703H28.761z" fill="#bf8256"></path><path d="M28.761 38.691H72.599V72.70400000000001H28.761z" fill="#dea47a"></path><path d="M28.761 32.644H72.599V72.703H28.761z" fill="none" stroke="#45413c" stroke-linecap="round" stroke-linejoin="round"></path><path d="M35.564 32.644H65.797V72.703H35.564z" fill="#bf8256"></path><path d="M35.564 47.005H65.797V72.703H35.564z" fill="#dea47a"></path><path d="M35.564 32.644H65.797V72.703H35.564z" fill="none" stroke="#45413c" stroke-linecap="round" stroke-linejoin="round"></path><path d="M67.309 29.621L34.052 29.621 34.808 32.644 66.553 32.644 67.309 29.621z" fill="#bf8256" stroke="#45413c" stroke-linecap="round" stroke-linejoin="round"></path><path d="M28.761,35.668H18.18a1.512,1.512,0,0,1,0-3.024H28.761Z" fill="#f7e5c6" stroke="#45413c" stroke-linecap="round" stroke-linejoin="round"></path><path d="M28.006 32.644H35.564V35.667H28.006z" fill="#f7e5c6" stroke="#45413c" stroke-linecap="round" stroke-linejoin="round"></path><path d="M72.6,35.668H83.182a1.512,1.512,0,0,0,0-3.024H72.6Z" fill="#f7e5c6" stroke="#45413c" stroke-linecap="round" stroke-linejoin="round"></path><path d="M65.797 32.644H73.35499999999999V35.667H65.797z" fill="#f7e5c6" stroke="#45413c" stroke-linecap="round" stroke-linejoin="round"></path><path d="M35.564 35.668H65.797V41.714999999999996H35.564z" fill="#fff5e3"></path><path d="M35.564 35.668H65.797V38.691H35.564z" fill="#f7e5c6"></path><path d="M35.564 35.668H65.797V41.714999999999996H35.564z" fill="none" stroke="#45413c" stroke-linecap="round" stroke-linejoin="round"></path><path d="M28.761,72.7H16.668v-7.87a1.2,1.2,0,0,1,1.2-1.2H28.761Z" fill="#f0d5a8" stroke="#45413c" stroke-linecap="round" stroke-linejoin="round"></path><path d="M27.25 63.634H35.564V72.70400000000001H27.25z" fill="#f0d5a8" stroke="#45413c" stroke-linecap="round" stroke-linejoin="round"></path><path d="M72.6,72.7H84.693v-7.87a1.2,1.2,0,0,0-1.2-1.2H72.6Z" fill="#f0d5a8" stroke="#45413c" stroke-linecap="round" stroke-linejoin="round"></path><path d="M65.797 63.634H74.11099999999999V72.70400000000001H65.797z" fill="#f0d5a8" stroke="#45413c" stroke-linecap="round" stroke-linejoin="round"></path><path d="M34.052 63.634H67.309V72.70400000000001H34.052z" fill="#f0d5a8" stroke="#45413c" stroke-linecap="round" stroke-linejoin="round"></path><path d="M34.808 32.644H66.553V35.667H34.808z" fill="#f7e5c6" stroke="#45413c" stroke-linecap="round" stroke-linejoin="round"></path><path d="M35.564 41.714H38.587V63.632999999999996H35.564z" fill="#f7e5c6"></path><path d="M35.564 41.714H38.587V63.632999999999996H35.564z" fill="#f7e5c6"></path><path d="M35.564 41.714H38.587V47.004999999999995H35.564z" fill="#f0d5a8"></path><path d="M35.564 41.714H38.587V63.632999999999996H35.564z" fill="none" stroke="#45413c" stroke-linecap="round" stroke-linejoin="round"></path><path d="M44.634 41.714H47.657000000000004V63.632999999999996H44.634z" fill="#f7e5c6"></path><path d="M44.634 41.714H47.657000000000004V63.632999999999996H44.634z" fill="#f7e5c6"></path><path d="M44.634 41.714H47.657000000000004V47.004999999999995H44.634z" fill="#f0d5a8"></path><path d="M44.634 41.714H47.657000000000004V63.632999999999996H44.634z" fill="none" stroke="#45413c" stroke-linecap="round" stroke-linejoin="round"></path><path d="M53.704 41.714H56.727000000000004V63.632999999999996H53.704z" fill="#f7e5c6"></path><path d="M53.704 41.714H56.727000000000004V63.632999999999996H53.704z" fill="#f7e5c6"></path><path d="M53.704 41.714H56.727000000000004V47.004999999999995H53.704z" fill="#f0d5a8"></path><path d="M53.704 41.714H56.727000000000004V63.632999999999996H53.704z" fill="none" stroke="#45413c" stroke-linecap="round" stroke-linejoin="round"></path><path d="M62.774 41.714H65.797V63.632999999999996H62.774z" fill="#f7e5c6"></path><path d="M62.774 41.714H65.797V63.632999999999996H62.774z" fill="#f7e5c6"></path><path d="M62.774 41.714H65.797V47.004999999999995H62.774z" fill="#f0d5a8"></path><path d="M62.774 41.714H65.797V63.632999999999996H62.774z" fill="none" stroke="#45413c" stroke-linecap="round" stroke-linejoin="round"></path><path d="M65.8,44.738H62.774a1.512,1.512,0,0,1-1.512-1.512h0a1.512,1.512,0,0,1,1.512-1.512H65.8a1.512,1.512,0,0,1,1.512,1.512h0A1.512,1.512,0,0,1,65.8,44.738Z" fill="#fff5e3" stroke="#45413c" stroke-linecap="round" stroke-linejoin="round"></path><path d="M38.587,44.738H35.564a1.512,1.512,0,0,1-1.512-1.512h0a1.512,1.512,0,0,1,1.512-1.512h3.023A1.512,1.512,0,0,1,40.1,43.226h0A1.512,1.512,0,0,1,38.587,44.738Z" fill="#fff5e3" stroke="#45413c" stroke-linecap="round" stroke-linejoin="round"></path><path d="M34.052 63.634L35.564 60.61 38.587 60.61 40.099 63.634 34.052 63.634z" fill="#f0d5a8" stroke="#45413c" stroke-linecap="round" stroke-linejoin="round"></path><path d="M61.262 63.634L62.774 60.61 65.797 60.61 67.309 63.634 61.262 63.634z" fill="#f0d5a8" stroke="#45413c" stroke-linecap="round" stroke-linejoin="round"></path><path d="M56.727,44.738H53.7a1.512,1.512,0,0,1-1.512-1.512h0A1.512,1.512,0,0,1,53.7,41.714h3.023a1.512,1.512,0,0,1,1.512,1.512h0A1.512,1.512,0,0,1,56.727,44.738Z" fill="#fff5e3" stroke="#45413c" stroke-linecap="round" stroke-linejoin="round"></path><path d="M47.657,44.738H44.634a1.512,1.512,0,0,1-1.512-1.512h0a1.512,1.512,0,0,1,1.512-1.512h3.023a1.512,1.512,0,0,1,1.512,1.512h0A1.512,1.512,0,0,1,47.657,44.738Z" fill="#fff5e3" stroke="#45413c" stroke-linecap="round" stroke-linejoin="round"></path><path d="M47.657 53.052H53.70399999999999V63.634H47.657z" fill="#ff6242"></path><path d="M47.657 53.052H53.70399999999999V55.04H47.657z" fill="#e04122"></path><path d="M47.657 53.052H53.70399999999999V63.634H47.657z" fill="none" stroke="#45413c" stroke-linecap="round" stroke-linejoin="round"></path><path d="M52.192 63.634L53.704 60.61 56.727 60.61 58.239 63.634 52.192 63.634z" fill="#f0d5a8" stroke="#45413c" stroke-linecap="round" stroke-linejoin="round"></path><path d="M43.122 63.634L44.634 60.61 47.657 60.61 49.169 63.634 43.122 63.634z" fill="#f0d5a8" stroke="#45413c" stroke-linecap="round" stroke-linejoin="round"></path><path d="M21.8,55.319h3.335a.6.6,0,0,0,.6-.6V44.738H21.2v9.981A.6.6,0,0,0,21.8,55.319Z" fill="#00b8f0"></path><path d="M25.738,44.738H21.2v9.826a.739.739,0,0,0,.069.308l4.466-8.455Z" fill="#4acfff"></path><path d="M21.8,55.319h3.335a.6.6,0,0,0,.6-.6V44.738H21.2v9.981A.6.6,0,0,0,21.8,55.319Z" fill="none" stroke="#45413c" stroke-linecap="round" stroke-linejoin="round"></path><path d="M25.738,44.738H21.2V42.314a.6.6,0,0,1,.6-.6h3.335a.6.6,0,0,1,.6.6Z" fill="#f7e5c6" stroke="#45413c" stroke-linecap="round" stroke-linejoin="round"></path><path d="M76.223,55.319h3.335a.6.6,0,0,0,.6-.6V44.738H75.623v9.981A.6.6,0,0,0,76.223,55.319Z" fill="#00b8f0"></path><path d="M80.158,44.738H75.623v9.826a.755.755,0,0,0,.069.308l4.466-8.455Z" fill="#4acfff"></path><path d="M76.223,55.319h3.335a.6.6,0,0,0,.6-.6V44.738H75.623v9.981A.6.6,0,0,0,76.223,55.319Z" fill="none" stroke="#45413c" stroke-linecap="round" stroke-linejoin="round"></path><path d="M80.158,44.738H75.623V42.314a.6.6,0,0,1,.6-.6h3.335a.6.6,0,0,1,.6.6Z" fill="#f7e5c6" stroke="#45413c" stroke-linecap="round" stroke-linejoin="round"></path><path d="M34.384,29.621a.869.869,0,0,1-.49-1.587l16.3-11.111a.867.867,0,0,1,.979,0l16.3,11.111a.869.869,0,0,1-.489,1.587Z" fill="#dea47a" stroke="#45413c" stroke-linecap="round" stroke-linejoin="round"></path><path d="M29.517,17.528H25.738v5.046a1,1,0,0,0,1,1h1.779a1,1,0,0,0,1-1Z" fill="#dea47a" stroke="#45413c" stroke-linecap="round" stroke-linejoin="round"></path><path d="M75.623,17.528H71.844v5.046a1,1,0,0,0,1,1h1.779a1,1,0,0,0,1-1Z" fill="#dea47a" stroke="#45413c" stroke-linecap="round" stroke-linejoin="round"></path><path d="M57.483,66.657h-13.6V64.234a.6.6,0,0,1,.6-.6H56.883a.6.6,0,0,1,.6.6Z" fill="#f0f0f0" stroke="#45413c" stroke-linecap="round" stroke-linejoin="round"></path><path d="M60.507,69.68H40.855V67.257a.6.6,0,0,1,.6-.6H59.907a.6.6,0,0,1,.6.6Z" fill="#f0f0f0" stroke="#45413c" stroke-linecap="round" stroke-linejoin="round"></path><path d="M63.53,72.7h-25.7V70.28a.6.6,0,0,1,.6-.6h24.5a.6.6,0,0,1,.6.6Z" fill="#f0f0f0" stroke="#45413c" stroke-linecap="round" stroke-linejoin="round"></path><path d="M19.691 66.657L24.226 66.657" fill="none" stroke="#45413c" stroke-linecap="round" stroke-linejoin="round"></path><path d="M19.691 69.68L24.226 69.68" fill="none" stroke="#45413c" stroke-linecap="round" stroke-linejoin="round"></path><path d="M77.135 66.657L81.67 66.657" fill="none" stroke="#45413c" stroke-linecap="round" stroke-linejoin="round"></path><path d="M77.135 69.68L81.67 69.68" fill="none" stroke="#45413c" stroke-linecap="round" stroke-linejoin="round"></path><path d="M50.681 16.772L50.681 9.969" fill="none" stroke="#45413c" stroke-linecap="round" stroke-linejoin="round"></path><path d="M60.262,9.969H50.681V6.19H61.262V8.969A1,1,0,0,1,60.262,9.969Z" fill="#ff6242" stroke="#45413c" stroke-linecap="round" stroke-linejoin="round"></path><path d="M55.216,6.19H50.681V4.167a1,1,0,0,1,1-1h3.535Z" fill="#00b8f0" stroke="#45413c" stroke-linecap="round" stroke-linejoin="round"></path><path d="M55.216,6.19h6.046V4.167a1,1,0,0,0-1-1H55.216Z" fill="#ffffff" stroke="#45413c" stroke-linecap="round" stroke-linejoin="round"></path><path d="M12.389,58.832c0,4-1.433,7.447-3.024,7.447s-3.023-3.45-3.023-7.447S9.365,44.36,9.365,44.36,12.389,54.835,12.389,58.832Z" fill="#6dd627" stroke="#45413c" stroke-linejoin="round"></path><path d="M9.365 66.279L9.365 72.704" fill="none" stroke="#45413c" stroke-linecap="round" stroke-linejoin="round"></path><path d="M24.258 14.368 L30.998 14.368 L30.998 17.517 L24.258 17.517 Z" fill="#f0c2a1" stroke="#45413c" stroke-linecap="round" stroke-linejoin="round"></path><path d="M70.364 14.368 L77.104 14.368 L77.104 17.517 L70.364 17.517 Z" fill="#f0c2a1" stroke="#45413c" stroke-linecap="round" stroke-linejoin="round"></path><path d="M65.897 61.865 L86.053 61.865 L86.053 78.356 L65.897 78.356 Z" fill="#ffe500" stroke="#45413c" stroke-linecap="round" stroke-linejoin="round"></path><path d="M70.642,67.109l.128-.064a5.676,5.676,0,0,1,5.077,0l.128.064.128-.064a5.676,5.676,0,0,1,5.077,0l.128.064v6.666l-.128-.064a5.676,5.676,0,0,0-5.077,0l-.128.064-.128-.064a5.676,5.676,0,0,0-5.077,0l-.128.064Z" fill="#ffffff" stroke="#45413c" stroke-linecap="round" stroke-linejoin="round"></path><path d="M75.975 67.109L75.975 73.775" fill="none" stroke="#45413c" stroke-linecap="round" stroke-linejoin="round"></path><path d="M70.478 78.356L70.478 82.936" fill="#ff6242" stroke="#45413c" stroke-linecap="round" stroke-linejoin="round"></path><path d="M81.472 78.356L81.472 82.936" fill="#ff6242" stroke="#45413c" stroke-linecap="round" stroke-linejoin="round"></path><path d="M84.793,61.865H67.157a1.26,1.26,0,0,0-1.26,1.259v1.969H86.053V63.124A1.26,1.26,0,0,0,84.793,61.865Z" fill="#fff48c"></path><path d="M65.897 61.865 L86.053 61.865 L86.053 78.356 L65.897 78.356 Z" fill="none" stroke="#45413c" stroke-linecap="round" stroke-linejoin="round"></path><path d="M65.897 83.569 A10.078 1.89 0 1 0 86.053 83.569 A10.078 1.89 0 1 0 65.897 83.569 Z" fill="#45413c" opacity=".15"></path></g></svg>