<svg width="82" height="82" viewBox="0 0 82 82" fill="none" xmlns="http://www.w3.org/2000/svg">
<path d="M1.3999 40.9999C1.3999 51.5025 5.57203 61.5749 12.9985 69.0013C20.4249 76.4278 30.4973 80.5999 40.9999 80.5999C51.5025 80.5999 61.5749 76.4278 69.0013 69.0013C76.4278 61.5749 80.5999 51.5025 80.5999 40.9999C80.5999 35.7996 79.5756 30.6501 77.5855 25.8456C75.5954 21.0411 72.6785 16.6757 69.0013 12.9985C65.3241 9.32127 60.9587 6.40436 56.1542 4.41427C51.3497 2.42419 46.2002 1.3999 40.9999 1.3999C35.7996 1.3999 30.6501 2.42419 25.8456 4.41427C21.0411 6.40436 16.6757 9.32127 12.9985 12.9985C9.32127 16.6757 6.40436 21.0411 4.41427 25.8456C2.42419 30.6501 1.3999 35.7996 1.3999 40.9999Z" fill="#DAEDF7" stroke="#DAEDF7"/>
<path d="M67.7043 39.9663C67.7043 41.4593 65.5352 42.8304 61.9148 43.9145C56.805 45.2635 51.5559 46.0153 46.2728 46.1548C38.7547 46.4944 28.5518 46.0816 21.3129 44.058C17.3856 42.9532 15.0225 41.5206 15.0225 39.9663C15.0225 38.5952 16.853 37.327 19.9527 36.2934C24.1265 34.9025 30.612 33.9412 38.0588 33.7194C39.1597 33.6866 40.261 33.6695 41.3624 33.668C42.3752 33.668 43.3681 33.6779 44.3502 33.7086C52.2059 33.9234 59.019 34.9569 63.2226 36.4499C66.057 37.4597 67.7043 38.6665 67.7043 39.9663Z" fill="#915E3A" stroke="#45413C" stroke-linecap="round" stroke-linejoin="round"/>
<path d="M63.2237 36.4459C63.2346 36.6102 63.2346 36.7835 63.2346 36.9478C63.2709 39.3351 62.822 41.7049 61.915 43.9134C56.8051 45.2624 51.556 46.0142 46.273 46.1538C44.689 46.2251 43.0406 46.2667 41.3626 46.2667C41.0557 46.2667 40.7389 46.2667 40.432 46.2568C38.6431 43.4896 37.7372 40.2443 37.8342 36.9508C37.8399 33.7528 38.4865 30.5885 39.736 27.6448C41.9773 22.3354 45.973 18.3467 50.5389 18.3467C57.4243 18.3417 63.0297 27.4369 63.2237 36.4459Z" fill="#FFE3CF"/>
<path d="M47.6094 22.7721C55.2324 22.7721 61.5387 32.1503 62.5584 42.0959C63.0214 40.4195 63.2493 38.6869 63.2356 36.9479C63.2356 36.7835 63.2356 36.6103 63.2257 36.4459C63.0277 27.4369 57.4263 18.3408 50.5418 18.3408C46.6729 18.3408 43.2089 21.2118 40.8784 25.3203C42.7662 23.7287 45.1409 22.8297 47.6094 22.7721Z" fill="#FFF2D9"/>
<path d="M63.2237 36.4459C63.2346 36.6102 63.2346 36.7835 63.2346 36.9478C63.2709 39.3351 62.822 41.7049 61.915 43.9134C56.8051 45.2624 51.556 46.0142 46.273 46.1538C44.689 46.2251 43.0406 46.2667 41.3626 46.2667C41.0557 46.2667 40.7389 46.2667 40.432 46.2568C38.6431 43.4896 37.7372 40.2443 37.8342 36.9508C37.8399 33.7528 38.4865 30.5885 39.736 27.6448C41.9773 22.3354 45.973 18.3467 50.5389 18.3467C57.4243 18.3417 63.0297 27.4369 63.2237 36.4459Z" stroke="#45413C" stroke-linecap="round" stroke-linejoin="round"/>
<path d="M46.2736 46.1548C44.6896 46.2261 43.0413 46.2676 41.3632 46.2676C41.0563 46.2676 40.7395 46.2676 40.4326 46.2577C33.9932 46.3179 27.5712 45.579 21.3137 44.058C20.4378 41.5618 19.9782 38.9386 19.9535 36.2934C19.8921 30.5138 21.979 25.2361 26.1835 23.4234C30.3574 21.6335 35.5885 23.6788 39.7366 27.6378C41.5853 29.4035 43.1427 31.4507 44.351 33.7035C44.6678 34.2867 44.9539 34.8797 45.2202 35.4855C46.7979 38.8122 47.1703 42.5838 46.2736 46.1548Z" fill="#FFE3CF"/>
<path d="M26.9419 28.1013C31.4048 26.1876 36.9934 28.3745 41.4335 32.6078C43.4099 34.4954 45.0746 36.6844 46.3657 39.0932L46.4073 39.1695C46.1319 37.9059 45.734 36.6721 45.2193 35.4857C44.9538 34.88 44.6635 34.2855 44.3491 33.7037C43.1414 31.4507 41.5843 29.4034 39.7357 27.638C35.5836 23.678 30.3554 21.6336 26.1826 23.4235C21.978 25.2342 19.8911 30.5119 19.9525 36.2935C19.9642 37.6213 20.0861 38.9459 20.3168 40.2535C20.6247 34.7214 22.8413 29.8684 26.9419 28.1013Z" fill="#FFF2D9"/>
<path d="M46.2736 46.1548C44.6896 46.2261 43.0413 46.2676 41.3632 46.2676C41.0563 46.2676 40.7395 46.2676 40.4326 46.2577C33.9932 46.3179 27.5712 45.579 21.3137 44.058C20.4378 41.5618 19.9782 38.9386 19.9535 36.2934C19.8921 30.5138 21.979 25.2361 26.1835 23.4234C30.3574 21.6335 35.5885 23.6788 39.7366 27.6378C41.5853 29.4035 43.1427 31.4507 44.351 33.7035C44.6678 34.2867 44.9539 34.8797 45.2202 35.4855C46.7979 38.8122 47.1703 42.5838 46.2736 46.1548Z" stroke="#45413C" stroke-linecap="round" stroke-linejoin="round"/>
<path d="M78.7257 43.267C78.765 43.2858 78.8089 43.2925 78.8521 43.2864C78.8952 43.2803 78.9355 43.2615 78.968 43.2325C79.0005 43.2035 79.0237 43.1656 79.0346 43.1235C79.0456 43.0813 79.0439 43.0369 79.0296 42.9957C77.5209 38.6209 74.8083 37.0924 73.0283 36.4815C70.873 34.8619 67.308 33.4521 62.7798 32.375C63.0496 33.7176 63.199 35.0817 63.2263 36.4508C66.0606 37.4646 67.713 38.6704 67.713 39.9614C67.713 41.4563 65.5419 42.8324 61.9234 43.9214C61.8393 43.9451 61.7551 43.9689 61.6581 43.9936C61.6815 42.9545 61.3494 41.9384 60.7166 41.1137C60.6614 41.0377 60.5875 40.9772 60.5021 40.9382C60.4167 40.8991 60.3226 40.8828 60.229 40.8907C60.1354 40.8987 60.0454 40.9307 59.9678 40.9837C59.8902 41.0366 59.8276 41.1087 59.786 41.1929C58.9474 42.6355 57.9089 43.9521 56.7012 45.1034C56.424 45.151 56.1468 45.1876 55.8567 45.2361C56.0843 44.3749 56.0585 43.4664 55.7825 42.6195C55.7554 42.5297 55.7056 42.4483 55.638 42.3833C55.5703 42.3183 55.487 42.2719 55.3961 42.2485C55.3052 42.2251 55.2098 42.2255 55.1192 42.2498C55.0285 42.274 54.9457 42.3212 54.8786 42.3869C52.9399 43.9526 50.7564 45.1882 48.4159 46.0439C44.7786 46.2944 41.2037 46.2726 41.1305 46.2726C38.0941 46.2726 33.653 46.0321 32.2412 45.8766H32.169C32.1658 45.8766 32.1628 45.8754 32.1606 45.8731C32.1583 45.8709 32.1571 45.8679 32.1571 45.8647C30.6521 44.6482 29.4066 43.142 28.4941 41.4355C28.4456 41.3378 28.3689 41.2569 28.2739 41.2033C28.1789 41.1497 28.0701 41.1257 27.9614 41.1346C27.8527 41.1434 27.7491 41.1846 27.6641 41.2529C27.579 41.3212 27.5164 41.4134 27.4843 41.5177C27.0911 42.7467 27.0567 44.0625 27.3853 45.3103C27.1081 45.2737 26.8309 45.2252 26.5537 45.1896C26.5505 45.1896 26.5475 45.1883 26.5453 45.1861C26.5431 45.1839 26.5418 45.1808 26.5418 45.1777C24.5878 44.0073 22.8574 42.4988 21.4314 40.7227C21.3755 40.6431 21.2993 40.5799 21.2107 40.5395C21.1222 40.4992 21.0244 40.4833 20.9277 40.4934C20.8309 40.5035 20.7385 40.5392 20.6602 40.5969C20.5819 40.6547 20.5204 40.7322 20.482 40.8217L20.4503 40.8979C20.0852 41.7869 19.9822 42.7618 20.1533 43.7075C16.9329 42.6581 15.039 41.3682 15.039 39.9693C15.039 38.6061 16.8725 37.3399 19.9722 36.3063C19.9527 34.9768 20.0578 33.6483 20.286 32.3384C12.4818 34.1471 7.48927 36.9577 7.48927 40.093C7.47232 42.7955 7.88878 45.4831 8.72281 48.0536C7.99057 49.7927 7.74454 51.698 8.011 53.566C8.02406 53.6696 8.06661 53.7674 8.1336 53.8475C8.20059 53.9277 8.2892 53.987 8.38888 54.0183C8.48857 54.0495 8.59515 54.0515 8.69594 54.024C8.79673 53.9965 8.88749 53.9406 8.95744 53.863C9.16534 53.6343 9.38314 53.4115 9.58906 53.2105C9.6662 53.1352 9.76394 53.0844 9.86994 53.0646C9.97594 53.0447 10.0854 53.0568 10.1846 53.0991C10.2838 53.1415 10.3681 53.2123 10.4271 53.3027C10.486 53.393 10.5168 53.4987 10.5157 53.6065C10.5058 55.5865 11.0107 59.2664 14.6232 60.8959C14.6249 60.6948 14.6937 60.5 14.8187 60.3425C14.9437 60.1849 15.1178 60.0736 15.3132 60.0262C15.5087 59.9788 15.7143 59.998 15.8976 60.0808C16.0809 60.1635 16.2313 60.3051 16.325 60.4831C17.3126 62.2692 18.684 63.8141 20.3405 65.0064C20.4721 65.1063 20.6286 65.168 20.793 65.185C20.9574 65.2019 21.1232 65.1734 21.2725 65.1025C21.4217 65.0316 21.5486 64.9211 21.6393 64.783C21.7301 64.6448 21.7811 64.4845 21.7868 64.3193C21.7933 64.1403 21.8439 63.9655 21.9341 63.8107C22.0243 63.6558 22.1513 63.5256 22.3039 63.4316C22.4564 63.3376 22.6298 63.2827 22.8087 63.2718C22.9876 63.2608 23.1664 63.2942 23.3293 63.3689C39.0029 70.5643 61.9551 67.3804 71.2344 53.8531C71.3372 53.7034 71.4758 53.5818 71.6376 53.4994C71.7995 53.417 71.9793 53.3763 72.1608 53.3812C72.3424 53.386 72.5198 53.4361 72.677 53.527C72.8342 53.6179 72.9662 53.7467 73.0609 53.9016C73.1091 53.9803 73.1793 54.0431 73.2628 54.0822C73.3463 54.1214 73.4395 54.1352 73.5307 54.1219C73.622 54.1087 73.7074 54.0689 73.7763 54.0075C73.8452 53.9462 73.8945 53.866 73.9183 53.7768C74.4424 51.9887 74.4811 50.0933 74.0301 48.2853L74.044 48.2427C74.0542 48.2124 74.0719 48.185 74.0955 48.1632C74.119 48.1414 74.1476 48.1259 74.1786 48.118C74.2099 48.1103 74.2425 48.1103 74.2737 48.1181C74.305 48.1259 74.3338 48.1411 74.3578 48.1625C74.951 48.7085 75.4625 49.337 75.8765 50.0287C75.9244 50.1074 75.9944 50.1703 76.0777 50.2097C76.161 50.2491 76.254 50.2632 76.3453 50.2502C76.4365 50.2372 76.5219 50.1978 76.591 50.1368C76.6601 50.0758 76.7097 49.9959 76.7338 49.9069C77.4818 47.5833 77.3176 45.0621 76.2745 42.8551C76.2569 42.8183 76.2498 42.7773 76.254 42.7367C76.2582 42.6961 76.2735 42.6574 76.2983 42.625C76.3231 42.5925 76.3563 42.5675 76.3944 42.5528C76.4325 42.538 76.4739 42.534 76.514 42.5413C77.2795 42.6869 78.0228 42.9308 78.7257 43.267Z" fill="#B89558"/>
<path opacity="0.15" d="M20.5464 68.3727C20.5464 68.8721 22.7932 69.3511 26.7925 69.7042C30.7918 70.0573 36.2161 70.2557 41.872 70.2557C47.5279 70.2557 52.9521 70.0573 56.9514 69.7042C60.9508 69.3511 63.1976 68.8721 63.1976 68.3727C63.1976 67.8733 60.9508 67.3944 56.9514 67.0413C52.9521 66.6881 47.5279 66.4897 41.872 66.4897C36.2161 66.4897 30.7918 66.6881 26.7925 67.0413C22.7932 67.3944 20.5464 67.8733 20.5464 68.3727Z" fill="#45413C"/>
<path d="M78.7259 43.2673C78.7652 43.2861 78.8091 43.2928 78.8522 43.2867C78.8953 43.2806 78.9357 43.2618 78.9682 43.2329C79.0006 43.2039 79.0238 43.1659 79.0348 43.1238C79.0458 43.0816 79.044 43.0372 79.0298 42.996C78.5212 41.3776 77.6457 39.8984 76.4717 38.6737C73.1898 47.4025 60.595 58.3747 43.3363 59.0766C40.7623 59.1825 12.4701 60.3408 8.05473 38.251C7.68842 38.7921 7.48753 39.4281 7.47657 40.0815C7.45962 42.7839 7.87609 45.4715 8.71011 48.0421C7.97787 49.7811 7.73184 51.6864 7.9983 53.5544C8.01079 53.6583 8.05286 53.7565 8.11952 53.8372C8.18617 53.9179 8.2746 53.9777 8.37428 54.0097C8.47397 54.0416 8.58073 54.0442 8.68186 54.0172C8.78298 53.9902 8.87423 53.9347 8.94474 53.8573C9.15264 53.6277 9.37044 53.4059 9.57636 53.2039C9.6535 53.1286 9.75124 53.0778 9.85724 53.058C9.96324 53.0381 10.0727 53.0502 10.1719 53.0925C10.2711 53.1349 10.3554 53.2057 10.4144 53.296C10.4733 53.3864 10.5041 53.4921 10.503 53.5999C10.4931 55.5799 10.998 59.2598 14.6105 60.8893V60.8844C14.6124 60.6833 14.6814 60.4887 14.8065 60.3313C14.9316 60.1739 15.1056 60.0628 15.301 60.0155C15.4964 59.9682 15.702 59.9875 15.8852 60.0703C16.0684 60.1531 16.2187 60.2946 16.3123 60.4725C17.2995 62.2589 18.671 63.8038 20.3278 64.9958C20.4593 65.0956 20.6158 65.1574 20.7801 65.1744C20.9444 65.1914 21.1101 65.1629 21.2594 65.0922C21.4086 65.0214 21.5355 64.911 21.6263 64.773C21.7171 64.635 21.7682 64.4748 21.7742 64.3098C21.7805 64.1306 21.8309 63.9557 21.9211 63.8008C22.0112 63.6458 22.1382 63.5154 22.2908 63.4213C22.4434 63.3272 22.6168 63.2722 22.7958 63.2612C22.9747 63.2502 23.1536 63.2836 23.3166 63.3584C38.9903 70.5537 61.9424 67.3698 71.2217 53.8435C71.3245 53.6938 71.4631 53.5722 71.625 53.4898C71.7868 53.4074 71.9666 53.3668 72.1481 53.3716C72.3297 53.3764 72.5071 53.4265 72.6643 53.5174C72.8215 53.6083 72.9535 53.7371 73.0482 53.892C73.0964 53.9707 73.1666 54.0335 73.2501 54.0727C73.3336 54.1118 73.4268 54.1256 73.518 54.1124C73.6093 54.0991 73.6947 54.0593 73.7636 53.9979C73.8325 53.9366 73.8818 53.8564 73.9056 53.7672C74.4299 51.9788 74.4685 50.083 74.0174 48.2747C74.0289 48.2396 74.049 48.2079 74.0759 48.1825C74.1028 48.1571 74.1357 48.1389 74.1714 48.1296C74.2072 48.1202 74.2448 48.12 74.2807 48.1289C74.3165 48.1378 74.3496 48.1556 74.3768 48.1807C74.9558 48.7203 75.4557 49.3389 75.8618 50.0181C75.9097 50.0968 75.9797 50.1598 76.063 50.1991C76.1463 50.2385 76.2394 50.2526 76.3306 50.2396C76.4218 50.2267 76.5073 50.1872 76.5763 50.1262C76.6454 50.0652 76.695 49.9853 76.7192 49.8963C77.467 47.5727 77.3028 45.0516 76.2598 42.8446C76.2422 42.8077 76.2351 42.7667 76.2393 42.7261C76.2435 42.6855 76.2588 42.6469 76.2836 42.6144C76.3084 42.5819 76.3416 42.557 76.3797 42.5422C76.4178 42.5274 76.4592 42.5235 76.4994 42.5307C77.2703 42.6787 78.0188 42.9263 78.7259 43.2673Z" fill="#947746"/>
<path d="M78.7257 43.267C78.765 43.2858 78.8089 43.2925 78.8521 43.2864C78.8952 43.2803 78.9355 43.2615 78.968 43.2325C79.0005 43.2035 79.0237 43.1656 79.0346 43.1235C79.0456 43.0813 79.0439 43.0369 79.0296 42.9957C77.5209 38.6209 74.8083 37.0924 73.0283 36.4815C70.873 34.8619 67.308 33.4521 62.7798 32.375C63.0496 33.7176 63.199 35.0817 63.2263 36.4508C66.0606 37.4646 67.713 38.6704 67.713 39.9614C67.713 41.4563 65.5419 42.8324 61.9234 43.9214C61.8393 43.9451 61.7551 43.9689 61.6581 43.9936C61.6815 42.9545 61.3494 41.9384 60.7166 41.1137C60.6614 41.0377 60.5875 40.9772 60.5021 40.9382C60.4167 40.8991 60.3226 40.8828 60.229 40.8907C60.1354 40.8987 60.0454 40.9307 59.9678 40.9837C59.8902 41.0366 59.8276 41.1087 59.786 41.1929C58.9474 42.6355 57.9089 43.9521 56.7012 45.1034C56.424 45.151 56.1468 45.1876 55.8567 45.2361C56.0843 44.3749 56.0585 43.4664 55.7825 42.6195C55.7554 42.5297 55.7056 42.4483 55.638 42.3833C55.5703 42.3183 55.487 42.2719 55.3961 42.2485C55.3052 42.2251 55.2098 42.2255 55.1192 42.2498C55.0285 42.274 54.9457 42.3212 54.8786 42.3869C52.9399 43.9526 50.7564 45.1882 48.4159 46.0439C44.7786 46.2944 41.2037 46.2726 41.1305 46.2726C38.0941 46.2726 33.653 46.0321 32.2412 45.8766H32.169C32.1658 45.8766 32.1628 45.8754 32.1606 45.8731C32.1583 45.8709 32.1571 45.8679 32.1571 45.8647C30.6521 44.6482 29.4066 43.142 28.4941 41.4355C28.4456 41.3378 28.3689 41.2569 28.2739 41.2033C28.1789 41.1497 28.0701 41.1257 27.9614 41.1346C27.8527 41.1434 27.7491 41.1846 27.6641 41.2529C27.579 41.3212 27.5164 41.4134 27.4843 41.5177C27.0911 42.7467 27.0567 44.0625 27.3853 45.3103C27.1081 45.2737 26.8309 45.2252 26.5537 45.1896C26.5505 45.1896 26.5475 45.1883 26.5453 45.1861C26.5431 45.1839 26.5418 45.1808 26.5418 45.1777C24.5878 44.0073 22.8574 42.4988 21.4314 40.7227C21.3755 40.6431 21.2993 40.5799 21.2107 40.5395C21.1222 40.4992 21.0244 40.4833 20.9277 40.4934C20.8309 40.5035 20.7385 40.5392 20.6602 40.5969C20.5819 40.6547 20.5204 40.7322 20.482 40.8217L20.4503 40.8979C20.0852 41.7869 19.9822 42.7618 20.1533 43.7075C16.9329 42.6581 15.039 41.3682 15.039 39.9693C15.039 38.6061 16.8725 37.3399 19.9722 36.3063C19.9527 34.9768 20.0578 33.6483 20.286 32.3384C12.4818 34.1471 7.48927 36.9577 7.48927 40.093C7.47232 42.7955 7.88878 45.4831 8.72281 48.0536C7.99057 49.7927 7.74454 51.698 8.011 53.566C8.02406 53.6696 8.06661 53.7674 8.1336 53.8475C8.20059 53.9277 8.2892 53.987 8.38888 54.0183C8.48857 54.0495 8.59515 54.0515 8.69594 54.024C8.79673 53.9965 8.88749 53.9406 8.95744 53.863C9.16534 53.6343 9.38314 53.4115 9.58906 53.2105C9.6662 53.1352 9.76394 53.0844 9.86994 53.0646C9.97594 53.0447 10.0854 53.0568 10.1846 53.0991C10.2838 53.1415 10.3681 53.2123 10.4271 53.3027C10.486 53.393 10.5168 53.4987 10.5157 53.6065C10.5058 55.5865 11.0107 59.2664 14.6232 60.8959C14.6249 60.6948 14.6937 60.5 14.8187 60.3425C14.9437 60.1849 15.1178 60.0736 15.3132 60.0262C15.5087 59.9788 15.7143 59.998 15.8976 60.0808C16.0809 60.1635 16.2313 60.3051 16.325 60.4831C17.3126 62.2692 18.684 63.8141 20.3405 65.0064C20.4721 65.1063 20.6286 65.168 20.793 65.185C20.9574 65.2019 21.1232 65.1734 21.2725 65.1025C21.4217 65.0316 21.5486 64.9211 21.6393 64.783C21.7301 64.6448 21.7811 64.4845 21.7868 64.3193C21.7933 64.1403 21.8439 63.9655 21.9341 63.8107C22.0243 63.6558 22.1513 63.5256 22.3039 63.4316C22.4564 63.3376 22.6298 63.2827 22.8087 63.2718C22.9876 63.2608 23.1664 63.2942 23.3293 63.3689C39.0029 70.5643 61.9551 67.3804 71.2344 53.8531C71.3372 53.7034 71.4758 53.5818 71.6376 53.4994C71.7995 53.417 71.9793 53.3763 72.1608 53.3812C72.3424 53.386 72.5198 53.4361 72.677 53.527C72.8342 53.6179 72.9662 53.7467 73.0609 53.9016C73.1091 53.9803 73.1793 54.0431 73.2628 54.0822C73.3463 54.1214 73.4395 54.1352 73.5307 54.1219C73.622 54.1087 73.7074 54.0689 73.7763 54.0075C73.8452 53.9462 73.8945 53.866 73.9183 53.7768C74.4424 51.9887 74.4811 50.0933 74.0301 48.2853L74.044 48.2427C74.0542 48.2124 74.0719 48.185 74.0955 48.1632C74.119 48.1414 74.1476 48.1259 74.1786 48.118C74.2099 48.1103 74.2425 48.1103 74.2737 48.1181C74.305 48.1259 74.3338 48.1411 74.3578 48.1625C74.951 48.7085 75.4625 49.337 75.8765 50.0287C75.9244 50.1074 75.9944 50.1703 76.0777 50.2097C76.161 50.2491 76.254 50.2632 76.3453 50.2502C76.4365 50.2372 76.5219 50.1978 76.591 50.1368C76.6601 50.0758 76.7097 49.9959 76.7338 49.9069C77.4818 47.5833 77.3176 45.0621 76.2745 42.8551C76.2569 42.8183 76.2498 42.7773 76.254 42.7367C76.2582 42.6961 76.2735 42.6574 76.2983 42.625C76.3231 42.5925 76.3563 42.5675 76.3944 42.5528C76.4325 42.538 76.4739 42.534 76.514 42.5413C77.2795 42.6869 78.0228 42.9308 78.7257 43.267Z" stroke="#45413C" stroke-linecap="round" stroke-linejoin="round"/>
</svg>
