<svg width="160" height="160" viewBox="0 0 160 160" fill="none" xmlns="http://www.w3.org/2000/svg">
<path d="M6 69C6 85.9739 12.7428 102.253 24.7452 114.255C36.7475 126.257 53.0261 133 70 133C86.9739 133 103.253 126.257 115.255 114.255C127.257 102.253 134 85.9739 134 69C134 52.0261 127.257 35.7475 115.255 23.7452C103.253 11.7428 86.9739 5 70 5C53.0261 5 36.7475 11.7428 24.7452 23.7452C12.7428 35.7475 6 52.0261 6 69V69Z" fill="#C7F0FF" stroke="#C7F0FF" stroke-width="1.5"/>
<path opacity="0.15" d="M63.8989 151.072C63.8989 151.919 66.1431 152.732 70.1378 153.331C74.1325 153.93 79.5504 154.267 85.1997 154.267C90.8491 154.267 96.267 153.93 100.262 153.331C104.256 152.732 106.501 151.919 106.501 151.072C106.501 150.224 104.256 149.412 100.262 148.813C96.267 148.213 90.8491 147.877 85.1997 147.877C79.5504 147.877 74.1325 148.213 70.1378 148.813C66.1431 149.412 63.8989 150.224 63.8989 151.072V151.072Z" fill="#45413C"/>
<path d="M52.4358 28.592C52.6519 29.1142 52.6518 29.7008 52.4354 30.2229C52.2191 30.745 51.8043 31.1598 51.2822 31.376L48.1334 32.68C47.8749 32.787 47.5979 32.8421 47.3182 32.842C47.0385 32.8419 46.7616 32.7867 46.5032 32.6796C46.2448 32.5725 46.0101 32.4155 45.8124 32.2176C45.6147 32.0198 45.4579 31.7849 45.351 31.5264L43.0678 26.0176C42.8516 25.4955 42.8518 24.9089 43.0681 24.3868C43.2844 23.8647 43.6993 23.4499 44.2214 23.2336L47.3702 21.9296C47.6288 21.8213 47.9064 21.7652 48.1868 21.7644C48.4673 21.7636 48.7451 21.8183 49.0044 21.9252C49.2636 22.0321 49.4992 22.1891 49.6976 22.3873C49.8961 22.5855 50.0534 22.8209 50.1606 23.08L52.4358 28.592Z" fill="white" stroke="#45413C" stroke-width="1.5" stroke-linecap="round" stroke-linejoin="round"/>
<path d="M37.5565 38.0686C37.7544 38.2663 37.9114 38.5012 38.0185 38.7596C38.1257 39.0181 38.1808 39.2952 38.1808 39.575C38.1808 39.8548 38.1257 40.1318 38.0185 40.3903C37.9114 40.6488 37.7544 40.8836 37.5565 41.0814L35.1469 43.491C34.9491 43.6889 34.7143 43.8459 34.4558 43.953C34.1973 44.0601 33.9203 44.1153 33.6405 44.1153C33.3607 44.1153 33.0837 44.0601 32.8252 43.953C32.5667 43.8459 32.3319 43.6889 32.1341 43.491L27.9197 39.2734C27.7218 39.0756 27.5648 38.8408 27.4577 38.5823C27.3505 38.3238 27.2954 38.0468 27.2954 37.767C27.2954 37.4872 27.3505 37.2101 27.4577 36.9516C27.5648 36.6932 27.7218 36.4583 27.9197 36.2606L30.3293 33.851C30.5269 33.6531 30.7616 33.4961 31.02 33.389C31.2783 33.2819 31.5552 33.2268 31.8349 33.2268C32.1146 33.2268 32.3915 33.2819 32.6498 33.389C32.9082 33.4961 33.1429 33.6531 33.3405 33.851L37.5565 38.0686Z" fill="white" stroke="#45413C" stroke-width="1.5" stroke-linecap="round" stroke-linejoin="round"/>
<path d="M26.5995 51.928C26.858 52.0351 27.0929 52.1921 27.2907 52.3899C27.4885 52.5878 27.6454 52.8228 27.7524 53.0813C27.8594 53.3398 27.9143 53.6169 27.9142 53.8968C27.914 54.1766 27.8587 54.4536 27.7515 54.712L26.4475 57.8608C26.2312 58.3825 25.8166 58.797 25.2948 59.013C24.773 59.229 24.1868 59.229 23.6651 59.0128L18.1595 56.7312C17.9009 56.6242 17.6661 56.4672 17.4682 56.2693C17.2704 56.0714 17.1135 55.8365 17.0065 55.5779C16.8996 55.3194 16.8446 55.0423 16.8447 54.7625C16.8449 54.4827 16.9002 54.2056 17.0075 53.9472L18.3115 50.8C18.5262 50.2781 18.9394 49.8627 19.4602 49.6452C19.981 49.4277 20.5669 49.4258 21.0891 49.64L26.5995 51.928Z" fill="white" stroke="#45413C" stroke-width="1.5" stroke-linecap="round" stroke-linejoin="round"/>
<path d="M117.966 28.5919C117.859 28.8503 117.804 29.1274 117.804 29.4072C117.804 29.687 117.859 29.9641 117.966 30.2226C118.073 30.4812 118.229 30.7161 118.427 30.914C118.625 31.1119 118.86 31.2688 119.118 31.3759L122.267 32.6799C122.526 32.7871 122.803 32.8423 123.082 32.8423C123.362 32.8424 123.639 32.7872 123.898 32.6801C124.156 32.5729 124.391 32.4159 124.589 32.2179C124.786 32.0199 124.943 31.7849 125.05 31.5263L127.333 26.0175C127.549 25.4953 127.549 24.9087 127.333 24.3866C127.116 23.8646 126.701 23.4498 126.179 23.2335L123.03 21.9295C122.772 21.8225 122.495 21.7675 122.215 21.7676C121.936 21.7677 121.659 21.8228 121.4 21.93C121.142 22.0371 120.907 22.1941 120.709 22.3919C120.512 22.5898 120.355 22.8246 120.248 23.0831L117.966 28.5919Z" fill="white" stroke="#45413C" stroke-width="1.5" stroke-linecap="round" stroke-linejoin="round"/>
<path d="M132.844 38.0687C132.646 38.2665 132.489 38.5013 132.381 38.7598C132.274 39.0183 132.219 39.2953 132.219 39.5751C132.219 39.8549 132.274 40.1319 132.381 40.3904C132.489 40.6489 132.646 40.8837 132.844 41.0815L135.253 43.4911C135.451 43.689 135.686 43.846 135.944 43.9531C136.203 44.0603 136.48 44.1154 136.76 44.1154C137.039 44.1154 137.316 44.0603 137.575 43.9531C137.833 43.846 138.068 43.689 138.266 43.4911L142.48 39.2735C142.678 39.0757 142.835 38.8409 142.942 38.5824C143.049 38.3239 143.105 38.0469 143.105 37.7671C143.105 37.4873 143.049 37.2103 142.942 36.9518C142.835 36.6933 142.678 36.4585 142.48 36.2607L140.08 33.8511C139.883 33.6532 139.648 33.4962 139.389 33.3891C139.131 33.2819 138.854 33.2268 138.574 33.2268C138.294 33.2268 138.017 33.2819 137.759 33.3891C137.5 33.4962 137.265 33.6532 137.068 33.8511L132.844 38.0687Z" fill="white" stroke="#45413C" stroke-width="1.5" stroke-linecap="round" stroke-linejoin="round"/>
<path d="M143.8 51.928C143.278 52.1445 142.864 52.5595 142.648 53.0815C142.432 53.6035 142.432 54.19 142.648 54.712L143.952 57.8608C144.168 58.3825 144.583 58.7969 145.105 59.013C145.627 59.229 146.213 59.2289 146.734 59.0128L152.24 56.7312C152.762 56.5149 153.177 56.1001 153.393 55.578C153.61 55.056 153.61 54.4693 153.394 53.9472L152.09 50.7984C151.873 50.2766 151.458 49.8621 150.936 49.6461C150.414 49.43 149.828 49.4302 149.306 49.6464L143.8 51.928Z" fill="white" stroke="#45413C" stroke-width="1.5" stroke-linecap="round" stroke-linejoin="round"/>
<path d="M102.619 52.2897C101.048 51.5873 100.262 48.9729 100.113 47.1425V32.3601H70.2927V47.1505C70.1423 48.9809 69.3567 51.5953 67.7855 52.2977C67.5385 52.393 67.336 52.577 67.2176 52.8138C67.0993 53.0505 67.0735 53.323 67.1455 53.5777C67.3193 54.2318 67.7109 54.807 68.2558 55.2084C68.8006 55.6099 69.4661 55.8135 70.1423 55.7857H100.262C100.939 55.8138 101.604 55.6103 102.149 55.2088C102.694 54.8073 103.086 54.2319 103.259 53.5777C103.333 53.3219 103.309 53.0475 103.19 52.8089C103.072 52.5704 102.868 52.3851 102.619 52.2897V52.2897Z" fill="#FFDF3D" stroke="#45413C" stroke-width="1.5" stroke-linecap="round" stroke-linejoin="round"/>
<path d="M92.6572 52.6304H77.7468L45.7964 111.419C73.4012 105.048 62.4796 122.808 85.1996 122.92C107.92 122.808 97.0012 105.048 124.604 111.419L92.6572 52.6304Z" fill="#FF6242"/>
<path d="M92.6572 52.6304H77.7468L59.1836 86.7872C62.9011 87.596 66.7867 86.9866 70.078 85.0784L72.1212 119.35C74.8156 121.349 78.574 122.886 85.1996 122.92C91.8268 122.886 95.5852 121.349 98.2796 119.35L100.323 85.0784C103.614 86.9866 107.5 87.596 111.217 86.7872L92.6572 52.6304Z" fill="#E04122"/>
<path d="M92.6572 52.6304H77.7468L45.7964 111.419C73.4012 105.048 62.4796 122.808 85.1996 122.92C107.92 122.808 97.0012 105.048 124.604 111.419L92.6572 52.6304Z" stroke="#45413C" stroke-width="1.5" stroke-linecap="round" stroke-linejoin="round"/>
<path d="M73.9136 87.1362L77.7472 132.719H92.6576L96.4912 87.1362H73.9136Z" fill="#FFCEBF"/>
<path d="M94.5024 110.779L96.4912 87.1362H73.9136L75.9024 110.779H94.5024Z" fill="#FFB59E"/>
<path d="M73.9136 87.1362L77.7472 132.719H92.6576L96.4912 87.1362H73.9136Z" stroke="#45413C" stroke-width="1.5" stroke-linecap="round" stroke-linejoin="round"/>
<path d="M73.957 91.6096L74.6018 103.325H95.8034L96.4482 91.6096H73.957Z" fill="#656769" stroke="#45413C" stroke-width="1.5" stroke-linecap="round" stroke-linejoin="round"/>
<path d="M85.2026 97.9998V129.95" stroke="#45413C" stroke-width="1.5" stroke-linecap="round" stroke-linejoin="round"/>
<path d="M72.4224 76.6992L73.488 91.6096H96.9168L97.9824 76.6992H72.4224Z" fill="#BDBEC0" stroke="#45413C" stroke-width="1.5" stroke-linecap="round" stroke-linejoin="round"/>
<path d="M78.6382 87.3486H91.7662" stroke="#45413C" stroke-width="1.5" stroke-linecap="round" stroke-linejoin="round"/>
<path d="M81.6851 83.0898H88.7203" stroke="#45413C" stroke-width="1.5" stroke-linecap="round" stroke-linejoin="round"/>
<path d="M49.6307 63.7053H50.9107C52.9446 63.7053 54.8952 64.5133 56.3334 65.9515C57.7716 67.3896 58.5795 69.3402 58.5795 71.3741H49.6307C48.6496 71.3211 47.7262 70.894 47.0504 70.1807C46.3747 69.4674 45.998 68.5223 45.998 67.5397C45.998 66.5572 46.3747 65.612 47.0504 64.8987C47.7262 64.1855 48.6496 63.7584 49.6307 63.7053V63.7053Z" fill="#FFCEBF" stroke="#45413C" stroke-width="1.5" stroke-linecap="round" stroke-linejoin="round"/>
<path d="M120.774 63.7053H119.494C117.46 63.7053 115.51 64.5133 114.071 65.9515C112.633 67.3896 111.825 69.3402 111.825 71.3741H120.772C121.754 71.3211 122.677 70.894 123.353 70.1807C124.028 69.4674 124.405 68.5223 124.405 67.5397C124.405 66.5572 124.028 65.612 123.353 64.8987C122.677 64.1855 121.754 63.7584 120.772 63.7053H120.774Z" fill="#FFCEBF" stroke="#45413C" stroke-width="1.5" stroke-linecap="round" stroke-linejoin="round"/>
<path d="M111.827 71.3744C111.84 72.4372 111.452 73.4658 110.74 74.2551C110.029 75.0445 109.046 75.5367 107.987 75.6336C107.494 75.6288 107.008 75.5246 106.556 75.3271C106.104 75.1296 105.697 74.843 105.359 74.4844C105.021 74.1258 104.759 73.7027 104.588 73.2403C104.418 72.7779 104.342 72.2859 104.366 71.7936V69.2336C104.32 64.1796 102.28 59.3484 98.69 55.7909C95.0999 52.2334 90.2502 50.2375 85.196 50.2375C80.1418 50.2375 75.2921 52.2334 71.702 55.7909C68.1118 59.3484 66.0718 64.1796 66.0256 69.2336V71.7936C66.0497 72.2859 65.9742 72.7779 65.8036 73.2403C65.633 73.7027 65.3708 74.1258 65.0327 74.4844C64.6946 74.843 64.2875 75.1296 63.836 75.3271C63.3844 75.5246 62.8976 75.6288 62.4048 75.6336C61.3464 75.5367 60.3634 75.0445 59.6517 74.2551C58.94 73.4658 58.5519 72.4372 58.5648 71.3744H50.9088C50.8963 74.4687 52.091 77.4458 54.2389 79.6731C56.3868 81.9005 59.3185 83.2025 62.4112 83.3024C64.473 83.2748 66.4897 82.6943 68.2506 81.6214C70.0116 80.5486 71.4523 79.0228 72.4224 77.2032L70.5056 93.32C75.7024 93.2928 82.816 82.0544 85.2032 76.7648C87.5888 82.0544 94.7024 93.2928 99.8992 93.32L97.9792 77.2096C98.9493 79.0292 100.39 80.555 102.151 81.6278C103.912 82.7007 105.929 83.2812 107.99 83.3088C111.083 83.2089 114.015 81.9069 116.163 79.6795C118.311 77.4522 119.505 74.4751 119.493 71.3808L111.827 71.3744Z" fill="#FF6242"/>
<path d="M66.3842 71.3746C67.2254 67.0003 69.5642 63.0557 72.9985 60.2188C76.4329 57.382 80.7482 55.8302 85.2026 55.8302C89.6571 55.8302 93.9724 57.382 97.4067 60.2188C100.841 63.0557 103.18 67.0003 104.021 71.3746H104.373V69.2434C104.327 64.1894 102.287 59.3581 98.6966 55.8006C95.1065 52.2432 90.2568 50.2473 85.2026 50.2473C80.1484 50.2473 75.2987 52.2432 71.7086 55.8006C68.1185 59.3581 66.0784 64.1894 66.0322 69.2434V71.3746H66.3842Z" fill="#FF866E"/>
<path d="M111.827 71.3744C111.84 72.4372 111.452 73.4658 110.74 74.2551C110.029 75.0445 109.046 75.5367 107.987 75.6336C107.494 75.6288 107.008 75.5246 106.556 75.3271C106.104 75.1296 105.697 74.843 105.359 74.4844C105.021 74.1258 104.759 73.7027 104.588 73.2403C104.418 72.7779 104.342 72.2859 104.366 71.7936V69.2336C104.32 64.1796 102.28 59.3484 98.69 55.7909C95.0999 52.2334 90.2502 50.2375 85.196 50.2375C80.1418 50.2375 75.2921 52.2334 71.702 55.7909C68.1118 59.3484 66.0718 64.1796 66.0256 69.2336V71.7936C66.0497 72.2859 65.9742 72.7779 65.8036 73.2403C65.633 73.7027 65.3708 74.1258 65.0327 74.4844C64.6946 74.843 64.2875 75.1296 63.836 75.3271C63.3844 75.5246 62.8976 75.6288 62.4048 75.6336C61.3464 75.5367 60.3634 75.0445 59.6517 74.2551C58.94 73.4658 58.5519 72.4372 58.5648 71.3744H50.9088C50.8963 74.4687 52.091 77.4458 54.2389 79.6731C56.3868 81.9005 59.3185 83.2025 62.4112 83.3024C64.473 83.2748 66.4897 82.6943 68.2506 81.6214C70.0116 80.5486 71.4523 79.0228 72.4224 77.2032L70.5056 93.32C75.7024 93.2928 82.816 82.0544 85.2032 76.7648C87.5888 82.0544 94.7024 93.2928 99.8992 93.32L97.9792 77.2096C98.9493 79.0292 100.39 80.555 102.151 81.6278C103.912 82.7007 105.929 83.2812 107.99 83.3088C111.083 83.2089 114.015 81.9069 116.163 79.6795C118.311 77.4522 119.505 74.4751 119.493 71.3808L111.827 71.3744Z" stroke="#45413C" stroke-width="1.5" stroke-linecap="round" stroke-linejoin="round"/>
<path d="M80.9428 131.655C79.162 131.655 77.6404 129.848 77.0036 127.287C76.7899 128.158 76.6824 129.053 76.6836 129.951C76.6836 133.832 78.5924 136.979 80.9444 136.979C83.2964 136.979 85.2004 133.832 85.2004 129.951C85.2025 129.053 85.095 128.158 84.8804 127.287C84.2404 129.848 82.7236 131.655 80.9428 131.655Z" fill="#525252" stroke="#45413C" stroke-width="1.5" stroke-linecap="round" stroke-linejoin="round"/>
<path d="M89.4616 131.655C91.2424 131.655 92.764 129.848 93.4008 127.287C93.6154 128.158 93.7229 129.053 93.7208 129.951C93.7208 133.832 91.812 136.979 89.46 136.979C87.108 136.979 85.1992 133.832 85.1992 129.951C85.1981 129.053 85.3055 128.158 85.5192 127.287C86.1592 129.848 87.6808 131.655 89.4616 131.655Z" fill="#525252" stroke="#45413C" stroke-width="1.5" stroke-linecap="round" stroke-linejoin="round"/>
<path d="M72.4224 77.2032V69.2432" stroke="#45413C" stroke-width="1.5" stroke-linecap="round" stroke-linejoin="round"/>
<path d="M97.9824 77.2032V69.2432" stroke="#45413C" stroke-width="1.5" stroke-linecap="round" stroke-linejoin="round"/>
<path d="M97.164 54.371L90.1704 76.3357C90.0806 76.6182 89.9328 76.8787 89.7365 77.1008C89.5403 77.3228 89.2998 77.5015 89.0305 77.6252C88.7613 77.749 88.4691 77.8153 88.1728 77.8197C87.8765 77.8241 87.5825 77.7666 87.3096 77.651L85.1992 76.7581L93.2168 51.9102C94.6257 52.5706 95.9508 53.3967 97.164 54.371V54.371Z" fill="#87898C" stroke="#45413C" stroke-width="1.5" stroke-linecap="round" stroke-linejoin="round"/>
<path d="M85.1992 50.0767C82.4261 50.1059 79.6918 50.7312 77.1816 51.9103L85.1992 76.7583L93.2168 51.9103C90.7066 50.7316 87.9723 50.1062 85.1992 50.0767V50.0767Z" fill="white" stroke="#45413C" stroke-width="1.5" stroke-linecap="round" stroke-linejoin="round"/>
<path d="M73.2397 54.371L80.2397 76.3357C80.3296 76.6182 80.4773 76.8787 80.6736 77.1008C80.8699 77.3228 81.1104 77.5015 81.3796 77.6252C81.6489 77.749 81.9411 77.8153 82.2374 77.8197C82.5337 77.8241 82.8277 77.7666 83.1005 77.651L85.1997 76.7581L77.1821 51.9102C75.7748 52.5706 74.4513 53.3968 73.2397 54.371Z" fill="#87898C" stroke="#45413C" stroke-width="1.5" stroke-linecap="round" stroke-linejoin="round"/>
<path d="M85.2026 54.3342V76.7582" stroke="#45413C" stroke-width="1.5" stroke-linecap="round" stroke-linejoin="round"/>
<path d="M89.3493 50.6035L85.2037 54.9091L81.0469 50.6035L81.0565 44.2195H89.3589L89.3493 50.6035Z" fill="#FFCEBF" stroke="#45413C" stroke-width="1.5" stroke-linecap="round" stroke-linejoin="round"/>
<path d="M85.1992 53.4302C86.8025 51.695 88.8654 50.4505 91.148 49.8414C91.4579 49.777 91.7782 49.7821 92.0858 49.8566C92.3934 49.931 92.6806 50.0729 92.9267 50.272C93.1727 50.471 93.3715 50.7223 93.5085 51.0075C93.6456 51.2928 93.7176 51.605 93.7192 51.9214V54.9278C93.7184 55.2446 93.647 55.5572 93.5103 55.8429C93.3735 56.1286 93.1747 56.3802 92.9284 56.5795C92.6821 56.7787 92.3945 56.9205 92.0866 56.9946C91.7786 57.0687 91.458 57.0732 91.148 57.0078C88.8662 56.403 86.8031 55.1623 85.1992 53.4302V53.4302Z" fill="#BF8DF2" stroke="#45413C" stroke-width="1.5" stroke-linejoin="round"/>
<path d="M85.2003 53.4302C83.5966 51.6948 81.5331 50.4503 79.2499 49.8414C78.9401 49.777 78.6198 49.7821 78.3122 49.8566C78.0045 49.931 77.7173 50.0729 77.4713 50.272C77.2252 50.471 77.0265 50.7223 76.8894 51.0075C76.7523 51.2928 76.6804 51.605 76.6787 51.9214V54.9278C76.6795 55.2446 76.7509 55.5572 76.8877 55.8429C77.0245 56.1286 77.2232 56.3802 77.4695 56.5795C77.7158 56.7787 78.0034 56.9205 78.3114 56.9946C78.6193 57.0687 78.94 57.0732 79.2499 57.0078C81.5321 56.4026 83.5955 55.162 85.2003 53.4302V53.4302Z" fill="#BF8DF2" stroke="#45413C" stroke-width="1.5" stroke-linejoin="round"/>
<path d="M83.0737 53.0029C83.0737 53.5677 83.2981 54.1094 83.6975 54.5087C84.0969 54.9081 84.6385 55.1325 85.2033 55.1325C85.7681 55.1325 86.3098 54.9081 86.7092 54.5087C87.1086 54.1094 87.3329 53.5677 87.3329 53.0029C87.3329 52.4381 87.1086 51.8964 86.7092 51.497C86.3098 51.0977 85.7681 50.8733 85.2033 50.8733C84.6385 50.8733 84.0969 51.0977 83.6975 51.497C83.2981 51.8964 83.0737 52.4381 83.0737 53.0029V53.0029Z" fill="#BF8DF2" stroke="#45413C" stroke-width="1.5" stroke-linejoin="round"/>
<path d="M100.113 35.4338C100.109 34.8264 99.8938 34.2393 99.5052 33.7725C99.1165 33.3057 98.5781 32.9881 97.9816 32.8738V31.173C97.944 27.8083 96.5809 24.5941 94.1883 22.2281C91.7957 19.8621 88.5665 18.5352 85.2016 18.5352C81.8367 18.5352 78.6075 19.8621 76.2149 22.2281C73.8223 24.5941 72.4593 27.8083 72.4216 31.173V32.8786C71.8013 32.9959 71.2445 33.3341 70.8545 33.8305C70.4644 34.3269 70.2676 34.9479 70.3004 35.5783C70.3332 36.2088 70.5935 36.806 71.0329 37.2593C71.4724 37.7125 72.0613 37.9911 72.6904 38.0434C73.2896 40.9185 74.8607 43.4996 77.1394 45.3524C79.4182 47.2052 82.2655 48.2167 85.2024 48.2167C88.1393 48.2167 90.9867 47.2052 93.2654 45.3524C95.5441 43.4996 97.1152 40.9185 97.7144 38.0434C98.3668 37.9838 98.9737 37.6836 99.4171 37.2013C99.8604 36.7189 100.108 36.0889 100.113 35.4338Z" fill="#FFCEBF" stroke="#45413C" stroke-width="1.5" stroke-linecap="round" stroke-linejoin="round"/>
<path d="M76.6836 37.0304C76.6836 37.4539 76.8518 37.86 77.1513 38.1595C77.4507 38.459 77.8569 38.6272 78.2804 38.6272C78.7039 38.6272 79.11 38.459 79.4095 38.1595C79.709 37.86 79.8772 37.4539 79.8772 37.0304C79.8772 36.6069 79.709 36.2007 79.4095 35.9013C79.11 35.6018 78.7039 35.4336 78.2804 35.4336C77.8569 35.4336 77.4507 35.6018 77.1513 35.9013C76.8518 36.2007 76.6836 36.6069 76.6836 37.0304V37.0304Z" fill="#FFB59E"/>
<path d="M90.5278 37.0304C90.5278 37.4539 90.6961 37.86 90.9955 38.1595C91.295 38.459 91.7011 38.6272 92.1246 38.6272C92.5481 38.6272 92.9543 38.459 93.2537 38.1595C93.5532 37.86 93.7214 37.4539 93.7214 37.0304C93.7214 36.6069 93.5532 36.2007 93.2537 35.9013C92.9543 35.6018 92.5481 35.4336 92.1246 35.4336C91.7011 35.4336 91.295 35.6018 90.9955 35.9013C90.6961 36.2007 90.5278 36.6069 90.5278 37.0304Z" fill="#FFB59E"/>
<path d="M88.3997 40.7585C87.478 41.4502 86.3568 41.8241 85.2045 41.8241C84.0521 41.8241 82.9309 41.4502 82.0093 40.7585" stroke="#45413C" stroke-width="1.5" stroke-linecap="round" stroke-linejoin="round"/>
<path d="M78.8125 32.7711C78.8125 32.9808 78.8538 33.1885 78.9341 33.3822C79.0143 33.5759 79.1319 33.7519 79.2802 33.9002C79.4285 34.0485 79.6045 34.1661 79.7982 34.2464C79.992 34.3266 80.1996 34.3679 80.4093 34.3679C80.619 34.3679 80.8266 34.3266 81.0204 34.2464C81.2141 34.1661 81.3901 34.0485 81.5384 33.9002C81.6867 33.7519 81.8043 33.5759 81.8846 33.3822C81.9648 33.1885 82.0061 32.9808 82.0061 32.7711C82.0061 32.5614 81.9648 32.3538 81.8846 32.16C81.8043 31.9663 81.6867 31.7903 81.5384 31.642C81.3901 31.4937 81.2141 31.3761 81.0204 31.2959C80.8266 31.2156 80.619 31.1743 80.4093 31.1743C80.1996 31.1743 79.992 31.2156 79.7982 31.2959C79.6045 31.3761 79.4285 31.4937 79.2802 31.642C79.1319 31.7903 79.0143 31.9663 78.9341 32.16C78.8538 32.3538 78.8125 32.5614 78.8125 32.7711V32.7711Z" fill="#45413C"/>
<path d="M88.3989 32.7711C88.3989 32.9808 88.4402 33.1885 88.5205 33.3822C88.6007 33.5759 88.7183 33.7519 88.8666 33.9002C89.0149 34.0485 89.1909 34.1661 89.3847 34.2464C89.5784 34.3266 89.786 34.3679 89.9957 34.3679C90.2054 34.3679 90.4131 34.3266 90.6068 34.2464C90.8005 34.1661 90.9766 34.0485 91.1248 33.9002C91.2731 33.7519 91.3907 33.5759 91.471 33.3822C91.5512 33.1885 91.5925 32.9808 91.5925 32.7711C91.5925 32.5614 91.5512 32.3538 91.471 32.16C91.3907 31.9663 91.2731 31.7903 91.1248 31.642C90.9766 31.4937 90.8005 31.3761 90.6068 31.2959C90.4131 31.2156 90.2054 31.1743 89.9957 31.1743C89.786 31.1743 89.5784 31.2156 89.3847 31.2959C89.1909 31.3761 89.0149 31.4937 88.8666 31.642C88.7183 31.7903 88.6007 31.9663 88.5205 32.16C88.4402 32.3538 88.3989 32.5614 88.3989 32.7711V32.7711Z" fill="#45413C"/>
<path d="M85.2005 14.1326C81.193 14.3012 77.4053 16.0104 74.6273 18.9037C71.8494 21.7971 70.2956 25.6511 70.2901 29.6622V57.7998C70.289 57.954 70.3216 58.1066 70.3856 58.2469C70.4496 58.3872 70.5434 58.5118 70.6606 58.6121C70.7778 58.7124 70.9154 58.7858 71.064 58.8274C71.2125 58.8689 71.3683 58.8775 71.5205 58.8526C72.5948 58.7974 73.6098 58.3433 74.3671 57.5793C75.1243 56.8152 75.5693 55.7961 75.6149 54.7214V38.2798C75.6052 36.8611 75.921 35.4591 76.5378 34.1815C77.1547 32.904 78.0563 31.7848 79.1733 30.9102C82.6661 28.2222 83.8613 26.2142 85.2005 21.7006C86.2348 24.8373 88.2332 27.5673 90.9107 29.5012C93.5882 31.4351 96.808 32.4742 100.111 32.4702V29.6622C100.105 25.6512 98.5511 21.7974 95.7732 18.9042C92.9953 16.0109 89.2078 14.3016 85.2005 14.1326V14.1326Z" fill="#FFDF3D"/>
<path d="M85.2004 14.1326C81.1927 14.3012 77.4047 16.0106 74.6267 18.9043C71.8487 21.798 70.2952 25.6525 70.29 29.6638V34.0366C70.2955 30.0254 71.8493 26.1711 74.6272 23.2775C77.4051 20.384 81.1928 18.6744 85.2004 18.5054C88.9383 18.6595 92.4953 20.1562 95.2188 22.721C97.9423 25.2858 99.6497 28.7466 100.028 32.4686H100.111V29.6638C100.105 25.6526 98.5516 21.7983 95.7737 18.9047C92.9958 16.0112 89.2081 14.3016 85.2004 14.1326V14.1326Z" fill="#FFEF9E"/>
<path d="M85.2005 14.1326C81.193 14.3012 77.4053 16.0104 74.6273 18.9037C71.8494 21.7971 70.2956 25.6511 70.2901 29.6622V57.7998C70.289 57.954 70.3216 58.1066 70.3856 58.2469C70.4496 58.3872 70.5434 58.5118 70.6606 58.6121C70.7778 58.7124 70.9154 58.7858 71.064 58.8274C71.2125 58.8689 71.3683 58.8775 71.5205 58.8526C72.5948 58.7974 73.6098 58.3433 74.3671 57.5793C75.1243 56.8152 75.5693 55.7961 75.6149 54.7214V38.2798C75.6052 36.8611 75.921 35.4591 76.5378 34.1815C77.1547 32.904 78.0563 31.7848 79.1733 30.9102C82.6661 28.2222 83.8613 26.2142 85.2005 21.7006C86.2348 24.8373 88.2332 27.5673 90.9107 29.5012C93.5882 31.4351 96.808 32.4742 100.111 32.4702V29.6622C100.105 25.6512 98.5511 21.7974 95.7732 18.9042C92.9953 16.0109 89.2078 14.3016 85.2005 14.1326V14.1326Z" stroke="#45413C" stroke-width="1.5" stroke-linecap="round" stroke-linejoin="round"/>
</svg>
