<svg width="160" height="160" viewBox="0 0 160 160" fill="none" xmlns="http://www.w3.org/2000/svg">
<path d="M15.9995 80C15.9995 96.9739 22.7423 113.253 34.7447 125.255C46.747 137.257 63.0257 144 79.9995 144C96.9734 144 113.252 137.257 125.254 125.255C137.257 113.253 144 96.9739 144 80C144 63.0261 137.257 46.7475 125.254 34.7452C113.252 22.7428 96.9734 16 79.9995 16C63.0257 16 46.747 22.7428 34.7447 34.7452C22.7423 46.7475 15.9995 63.0261 15.9995 80V80Z" fill="#C7F0FF" stroke="#C7F0FF" stroke-width="1.5"/>
<path opacity="0.15" d="M55.1597 130.762C55.1597 131.124 55.8022 131.483 57.0505 131.818C58.2988 132.153 60.1285 132.457 62.4351 132.714C64.7417 132.97 67.4801 133.173 70.4938 133.312C73.5075 133.451 76.7376 133.522 79.9997 133.522C83.2617 133.522 86.4918 133.451 89.5055 133.312C92.5193 133.173 95.2576 132.97 97.5642 132.714C99.8708 132.457 101.701 132.153 102.949 131.818C104.197 131.483 104.84 131.124 104.84 130.762C104.84 130.399 104.197 130.041 102.949 129.706C101.701 129.371 99.8708 129.067 97.5642 128.81C95.2576 128.554 92.5193 128.351 89.5055 128.212C86.4918 128.073 83.2617 128.002 79.9997 128.002C76.7376 128.002 73.5075 128.073 70.4938 128.212C67.4801 128.351 64.7417 128.554 62.4351 128.81C60.1285 129.067 58.2988 129.371 57.0505 129.706C55.8022 130.041 55.1597 130.399 55.1597 130.762V130.762Z" fill="#45413C"/>
<path d="M82.2487 110.4C82.0147 110.79 81.6837 111.113 81.2879 111.337C80.8922 111.561 80.4451 111.679 79.9903 111.679C79.5355 111.679 79.0884 111.561 78.6926 111.337C78.2968 111.113 77.9658 110.79 77.7319 110.4L42.8791 52.3201C42.6357 51.92 42.5034 51.4622 42.4959 50.994C42.4885 50.5257 42.6061 50.0639 42.8367 49.6563C43.0672 49.2487 43.4024 48.9099 43.8075 48.6751C44.2127 48.4402 44.6732 48.3176 45.1415 48.3201H114.839C115.307 48.3182 115.767 48.4412 116.172 48.6763C116.577 48.9114 116.911 49.2502 117.141 49.6577C117.372 50.0652 117.489 50.5268 117.481 50.9948C117.474 51.4628 117.342 51.9203 117.098 52.3201L82.2487 110.4Z" fill="#FFE500"/>
<path d="M117.132 49.6627C116.903 49.2572 116.57 48.9199 116.167 48.6852C115.765 48.4505 115.307 48.3268 114.841 48.3267H45.142C44.6746 48.3249 44.2152 48.4476 43.811 48.6822C43.4068 48.9167 43.0723 49.2547 42.8419 49.6613C42.6116 50.068 42.4937 50.5286 42.5003 50.9959C42.5069 51.4632 42.6378 51.9203 42.8796 52.3203L45.0108 55.8707C45.1781 55.3886 45.4921 54.9709 45.9087 54.6763C46.3253 54.3816 46.8237 54.2247 47.334 54.2275H112.64C113.076 54.2277 113.505 54.3436 113.882 54.5634C114.259 54.7832 114.571 55.099 114.787 55.4787C114.857 55.6042 114.916 55.7353 114.964 55.8707L117.099 52.3203C117.34 51.9201 117.47 51.4631 117.476 50.996C117.482 50.529 117.363 50.0688 117.132 49.6627V49.6627Z" fill="#FFF48C"/>
<path d="M82.2487 110.4C82.0147 110.79 81.6837 111.113 81.2879 111.337C80.8922 111.561 80.4451 111.679 79.9903 111.679C79.5355 111.679 79.0884 111.561 78.6926 111.337C78.2968 111.113 77.9658 110.79 77.7319 110.4L42.8791 52.3201C42.6357 51.92 42.5034 51.4622 42.4959 50.994C42.4885 50.5257 42.6061 50.0639 42.8367 49.6563C43.0672 49.2487 43.4024 48.9099 43.8075 48.6751C44.2127 48.4402 44.6732 48.3176 45.1415 48.3201H114.839C115.307 48.3182 115.767 48.4412 116.172 48.6763C116.577 48.9114 116.911 49.2502 117.141 49.6577C117.372 50.0652 117.489 50.5268 117.481 50.9948C117.474 51.4628 117.342 51.9203 117.098 52.3201L82.2487 110.4Z" stroke="#45413C" stroke-width="1.5" stroke-linecap="round" stroke-linejoin="round"/>
</svg>
