<svg width="160" height="160" viewBox="0 0 160 160" fill="none" xmlns="http://www.w3.org/2000/svg">
<path d="M17.5376 91.1997C17.5376 108.174 24.2804 124.452 36.2828 136.455C48.2851 148.457 64.5637 155.2 81.5376 155.2C98.5115 155.2 114.79 148.457 126.792 136.455C138.795 124.452 145.538 108.174 145.538 91.1997C145.538 74.2259 138.795 57.9472 126.792 45.9449C114.79 33.9425 98.5115 27.1997 81.5376 27.1997C64.5637 27.1997 48.2851 33.9425 36.2828 45.9449C24.2804 57.9472 17.5376 74.2259 17.5376 91.1997V91.1997Z" fill="#C7F0FF"/>
<path d="M16 43H144.349V139H16V43Z" fill="#FF6242"/>
<path d="M121.011 43H23.4783C21.4975 43 19.5979 43.7869 18.1973 45.1875C16.7966 46.5881 16.0098 48.4878 16.0098 50.4686V124.152L121.011 43Z" fill="#FF866E"/>
<path d="M16 43H144.349V139H16V43Z" stroke="#45413C" stroke-width="1.5" stroke-linecap="round" stroke-linejoin="round"/>
<path d="M136.88 43H23.4783C21.4975 43 19.5979 43.7869 18.1973 45.1875C16.7966 46.5881 16.0098 48.4878 16.0098 50.4686V60.7655H144.349V50.4686C144.349 48.4878 143.562 46.5881 142.161 45.1875C140.761 43.7869 138.861 43 136.88 43V43Z" fill="white"/>
<path d="M136.88 43H23.4783C21.4975 43 19.5979 43.7869 18.1973 45.1875C16.7966 46.5881 16.0098 48.4878 16.0098 50.4686V60.768H144.349V50.4686C144.349 48.4878 143.562 46.5881 142.161 45.1875C140.761 43.7869 138.861 43 136.88 43V43Z" stroke="#45413C" stroke-width="1.5" stroke-linecap="round" stroke-linejoin="round"/>
<path d="M23.4678 51.8376C23.4678 52.3279 23.5644 52.8135 23.752 53.2666C23.9397 53.7197 24.2148 54.1313 24.5615 54.4781C24.9083 54.8249 25.3199 55.0999 25.773 55.2876C26.2261 55.4753 26.7117 55.5718 27.2021 55.5718C27.6924 55.5718 28.178 55.4753 28.6311 55.2876C29.0842 55.0999 29.4958 54.8249 29.8426 54.4781C30.1894 54.1313 30.4644 53.7197 30.6521 53.2666C30.8398 52.8135 30.9363 52.3279 30.9363 51.8376C30.9363 51.3472 30.8398 50.8616 30.6521 50.4085C30.4644 49.9554 30.1894 49.5438 29.8426 49.197C29.4958 48.8503 29.0842 48.5752 28.6311 48.3875C28.178 48.1999 27.6924 48.1033 27.2021 48.1033C26.7117 48.1033 26.2261 48.1999 25.773 48.3875C25.3199 48.5752 24.9083 48.8503 24.5615 49.197C24.2148 49.5438 23.9397 49.9554 23.752 50.4085C23.5644 50.8616 23.4678 51.3472 23.4678 51.8376V51.8376Z" fill="#FF6242"/>
<path d="M36.3682 51.8376C36.3682 52.8279 36.7616 53.7778 37.4619 54.4781C38.1622 55.1784 39.1121 55.5718 40.1024 55.5718C41.0928 55.5718 42.0427 55.1784 42.743 54.4781C43.4433 53.7778 43.8367 52.8279 43.8367 51.8376C43.8367 50.8472 43.4433 49.8973 42.743 49.197C42.0427 48.4967 41.0928 48.1033 40.1024 48.1033C39.1121 48.1033 38.1622 48.4967 37.4619 49.197C36.7616 49.8973 36.3682 50.8472 36.3682 51.8376V51.8376Z" fill="#FFE500"/>
<path d="M49.2642 51.8376C49.2642 52.3279 49.3608 52.8135 49.5484 53.2666C49.7361 53.7197 50.0111 54.1313 50.3579 54.4781C50.7047 54.8249 51.1163 55.0999 51.5694 55.2876C52.0225 55.4753 52.5081 55.5718 52.9984 55.5718C53.4888 55.5718 53.9744 55.4753 54.4275 55.2876C54.8806 55.0999 55.2922 54.8249 55.639 54.4781C55.9857 54.1313 56.2608 53.7197 56.4485 53.2666C56.6361 52.8135 56.7327 52.3279 56.7327 51.8376C56.7327 51.3472 56.6361 50.8616 56.4485 50.4085C56.2608 49.9554 55.9857 49.5438 55.639 49.197C55.2922 48.8503 54.8806 48.5752 54.4275 48.3875C53.9744 48.1999 53.4888 48.1033 52.9984 48.1033C52.5081 48.1033 52.0225 48.1999 51.5694 48.3875C51.1163 48.5752 50.7047 48.8503 50.3579 49.197C50.0111 49.5438 49.7361 49.9554 49.5484 50.4085C49.3608 50.8616 49.2642 51.3472 49.2642 51.8376V51.8376Z" fill="#6DD627"/>
<path d="M94.0342 118.228C93.1721 118.229 92.3183 118.059 91.5222 117.729C90.7262 117.398 90.0036 116.912 89.3964 116.3L80.1739 107.085L70.9394 116.305C70.3302 116.914 69.6071 117.397 68.8112 117.726C68.0154 118.056 67.1625 118.225 66.3012 118.225C64.5617 118.225 62.8936 117.533 61.664 116.303C60.4343 115.072 59.7437 113.404 59.7441 111.665C59.7446 109.925 60.436 108.257 61.6664 107.027L70.8888 97.8073L61.6664 88.5848C60.436 87.3551 59.7446 85.687 59.7441 83.9475C59.7437 82.208 60.4343 80.5396 61.664 79.3093C62.8936 78.079 64.5617 77.3875 66.3012 77.3871C68.0407 77.3866 69.7091 78.0772 70.9394 79.3069L80.1739 88.5342L89.3964 79.3093C90.0024 78.6857 90.7262 78.1888 91.5259 77.8474C92.3256 77.5061 93.1852 77.3271 94.0547 77.321C94.9242 77.3148 95.7862 77.4815 96.5907 77.8115C97.3951 78.1414 98.126 78.628 98.7407 79.2429C99.3555 79.8578 99.8419 80.5888 100.172 81.3933C100.501 82.1979 100.668 83.06 100.661 83.9294C100.655 84.7989 100.476 85.6584 100.134 86.458C99.7927 87.2577 99.2956 87.9814 98.6719 88.5872L89.4494 97.8097L98.6719 107.03C99.5886 107.948 100.213 109.116 100.465 110.389C100.718 111.661 100.588 112.98 100.092 114.178C99.5958 115.377 98.7555 116.401 97.6773 117.122C96.5991 117.844 95.3313 118.229 94.0342 118.23V118.228Z" fill="white" stroke="#E04122" stroke-width="1.5" stroke-linecap="round" stroke-linejoin="round"/>
</svg>
