<svg viewBox="0 0 160 160" height="160" width="160" xmlns="http://www.w3.org/2000/svg"><g transform="matrix(1.6,0,0,1.6,0,0)"><path d="M10.050 45.641 A40.000 40.000 0 1 0 90.050 45.641 A40.000 40.000 0 1 0 10.050 45.641 Z" fill="#C7F0FF" stroke="#C7F0FF"></path><path d="M71.451 57.858H75.963V62.37H71.451z" fill="#C7F0FF" stroke="#45413c" stroke-linecap="round" stroke-linejoin="round"></path><path d="M64.684 62.369 L82.731 62.369 L82.731 79.288 L64.684 79.288 Z" fill="#fff" stroke="#45413c" stroke-linecap="round" stroke-linejoin="round"></path><path d="M70.323 79.289H77.091V86.057H70.323z" fill="#C7F0FF"></path><path d="M70.323 79.289H77.091V82.269H70.323z" fill="#c0dceb"></path><path d="M70.323 79.289H77.091V86.057H70.323z" fill="none" stroke="#45413c" stroke-linecap="round" stroke-linejoin="round"></path><path d="M78.219,70.265a2.256,2.256,0,0,1-2.256,2.256H71.451a2.256,2.256,0,0,1-2.256-2.256v-7.9h9.024Z" fill="#00b8f0"></path><path d="M76.713 62.369L69.195 69.881 69.195 62.369 76.713 62.369z" fill="#4acfff"></path><path d="M78.219,70.265a2.256,2.256,0,0,1-2.256,2.256H71.451a2.256,2.256,0,0,1-2.256-2.256v-7.9h9.024Z" fill="none" stroke="#45413c" stroke-linecap="round" stroke-linejoin="round"></path><path d="M80.09,86.056a2.257,2.257,0,0,1,2.127,3.009,9.027,9.027,0,0,1-17.02,0,2.256,2.256,0,0,1,2.128-3.008Z" fill="#fff" stroke="#45413c" stroke-linecap="round" stroke-linejoin="round"></path><path d="M58.027 69.498L58.058 78.722 62.569 78.646 62.541 70.265 58.027 69.498z" fill="#fff"></path><path d="M62.552,73.446l-.011-3.181L58.027,69.5l.01,3.19a3.378,3.378,0,0,0,2.135.758Z" fill="#e0e0e0"></path><path d="M58.027 69.498L58.058 78.722 62.569 78.646 62.541 70.265 58.027 69.498z" fill="none" stroke="#45413c" stroke-linecap="round" stroke-linejoin="round"></path><path d="M64.684,70.265H60.172a3.384,3.384,0,0,1-3.384-3.384V65.753a3.384,3.384,0,0,1,3.384-3.384h2.256a2.256,2.256,0,0,1,2.256,2.256Z" fill="#fff" stroke="#45413c" stroke-linecap="round" stroke-linejoin="round"></path><path d="M89.388 69.498L89.357 78.722 84.845 78.646 84.873 70.265 89.388 69.498z" fill="#fff"></path><path d="M84.863,73.446l.011-3.181,4.514-.767-.011,3.19a3.374,3.374,0,0,1-2.135.758Z" fill="#e0e0e0"></path><path d="M89.388 69.498L89.357 78.722 84.845 78.646 84.873 70.265 89.388 69.498z" fill="none" stroke="#45413c" stroke-linecap="round" stroke-linejoin="round"></path><path d="M82.731,70.265h4.511a3.384,3.384,0,0,0,3.384-3.384V65.753a3.384,3.384,0,0,0-3.384-3.384H84.987a2.256,2.256,0,0,0-2.256,2.256Z" fill="#fff" stroke="#45413c" stroke-linecap="round" stroke-linejoin="round"></path><path d="M24.142 57.858H28.654V62.37H24.142z" fill="#C7F0FF" stroke="#45413c" stroke-linecap="round" stroke-linejoin="round"></path><path d="M17.374 62.369 L35.421 62.369 L35.421 79.288 L17.374 79.288 Z" fill="#fff" stroke="#45413c" stroke-linecap="round" stroke-linejoin="round"></path><path d="M23.014 79.289H29.782V86.057H23.014z" fill="#C7F0FF"></path><path d="M23.014 79.289H29.782V82.269H23.014z" fill="#c0dceb"></path><path d="M23.014 79.289H29.782V86.057H23.014z" fill="none" stroke="#45413c" stroke-linecap="round" stroke-linejoin="round"></path><path d="M30.91,70.265a2.256,2.256,0,0,1-2.256,2.256H24.142a2.256,2.256,0,0,1-2.256-2.256v-7.9H30.91Z" fill="#00b8f0"></path><path d="M29.404 62.369L21.886 69.881 21.886 62.369 29.404 62.369z" fill="#4acfff"></path><path d="M30.91,70.265a2.256,2.256,0,0,1-2.256,2.256H24.142a2.256,2.256,0,0,1-2.256-2.256v-7.9H30.91Z" fill="none" stroke="#45413c" stroke-linecap="round" stroke-linejoin="round"></path><path d="M32.781,86.056a2.257,2.257,0,0,1,2.127,3.009,9.027,9.027,0,0,1-17.02,0,2.256,2.256,0,0,1,2.127-3.008Z" fill="#fff" stroke="#45413c" stroke-linecap="round" stroke-linejoin="round"></path><path d="M10.717 69.498L10.749 78.722 15.26 78.646 15.232 70.265 10.717 69.498z" fill="#fff"></path><path d="M15.243,73.446l-.011-3.181L10.717,69.5l.011,3.19a3.374,3.374,0,0,0,2.135.758Z" fill="#e0e0e0"></path><path d="M10.717 69.498L10.749 78.722 15.26 78.646 15.232 70.265 10.717 69.498z" fill="none" stroke="#45413c" stroke-linecap="round" stroke-linejoin="round"></path><path d="M17.374,70.265H12.863a3.384,3.384,0,0,1-3.384-3.384V65.753a3.384,3.384,0,0,1,3.384-3.384h2.256a2.256,2.256,0,0,1,2.255,2.256Z" fill="#fff" stroke="#45413c" stroke-linecap="round" stroke-linejoin="round"></path><path d="M41.246,98.752a.563.563,0,0,1-.816.192,5.922,5.922,0,1,1,8.841-2.58.566.566,0,0,1-.792.277l-1.495-.82a.565.565,0,0,1-.26-.686,3.1,3.1,0,1,0-4.808,1.4.564.564,0,0,1,.15.718Z" fill="#656769" stroke="#45413c" stroke-linecap="round" stroke-linejoin="round"></path><path d="M37.238 79.969L39.016 86.66 43.228 85.207 41.621 79.156 37.238 79.969z" fill="#fff" stroke="#45413c" stroke-linecap="round" stroke-linejoin="round"></path><path d="M42.079 69.498L42.047 78.722 37.536 78.646 37.564 70.265 42.079 69.498z" fill="#fff"></path><path d="M37.553,73.446l.011-3.181,4.515-.767-.011,3.19a3.376,3.376,0,0,1-2.135.758Z" fill="#e0e0e0"></path><path d="M42.079 69.498L42.047 78.722 37.536 78.646 37.564 70.265 42.079 69.498z" fill="none" stroke="#45413c" stroke-linecap="round" stroke-linejoin="round"></path><path d="M35.421,70.265h4.512a3.384,3.384,0,0,0,3.384-3.384V65.753a3.384,3.384,0,0,0-3.384-3.384H37.677a2.256,2.256,0,0,0-2.256,2.256Z" fill="#fff" stroke="#45413c" stroke-linecap="round" stroke-linejoin="round"></path><path d="M36.486 79.156 A3.384 3.384 0 1 0 43.254 79.156 A3.384 3.384 0 1 0 36.486 79.156 Z" fill="#fff" stroke="#45413c" stroke-linecap="round" stroke-linejoin="round"></path><path d="M38.568 88.342 A3.384 3.384 0 1 0 45.336 88.342 A3.384 3.384 0 1 0 38.568 88.342 Z" fill="#fff" stroke="#45413c" stroke-linecap="round" stroke-linejoin="round"></path><path d="M11.34,98.752a.563.563,0,0,0,.816.192,5.922,5.922,0,1,0-8.842-2.58.567.567,0,0,0,.792.277l1.5-.82a.564.564,0,0,0,.259-.686,3.1,3.1,0,1,1,4.809,1.4.563.563,0,0,0-.15.718Z" fill="#656769" stroke="#45413c" stroke-linecap="round" stroke-linejoin="round"></path><path d="M15.347 79.969L13.57 86.66 9.358 85.207 10.965 79.156 15.347 79.969z" fill="#fff" stroke="#45413c" stroke-linecap="round" stroke-linejoin="round"></path><path d="M9.331 79.156 A3.384 3.384 0 1 0 16.099 79.156 A3.384 3.384 0 1 0 9.331 79.156 Z" fill="#fff" stroke="#45413c" stroke-linecap="round" stroke-linejoin="round"></path><path d="M7.249 88.342 A3.384 3.384 0 1 0 14.017 88.342 A3.384 3.384 0 1 0 7.249 88.342 Z" fill="#fff" stroke="#45413c" stroke-linecap="round" stroke-linejoin="round"></path><path d="M88.66,98.752a.563.563,0,0,1-.816.192,5.922,5.922,0,1,1,8.842-2.58.567.567,0,0,1-.792.277l-1.5-.82a.564.564,0,0,1-.259-.686,3.1,3.1,0,1,0-4.809,1.4.563.563,0,0,1,.15.718Z" fill="#656769" stroke="#45413c" stroke-linecap="round" stroke-linejoin="round"></path><path d="M84.653 79.969L86.43 86.66 90.642 85.207 89.035 79.156 84.653 79.969z" fill="#fff" stroke="#45413c" stroke-linecap="round" stroke-linejoin="round"></path><path d="M83.901 79.156 A3.384 3.384 0 1 0 90.669 79.156 A3.384 3.384 0 1 0 83.901 79.156 Z" fill="#fff" stroke="#45413c" stroke-linecap="round" stroke-linejoin="round"></path><path d="M85.983 88.342 A3.384 3.384 0 1 0 92.751 88.342 A3.384 3.384 0 1 0 85.983 88.342 Z" fill="#fff" stroke="#45413c" stroke-linecap="round" stroke-linejoin="round"></path><path d="M58.754,98.752a.563.563,0,0,0,.816.192,5.922,5.922,0,1,0-8.841-2.58.566.566,0,0,0,.792.277l1.495-.82a.565.565,0,0,0,.26-.686,3.1,3.1,0,1,1,4.808,1.4.564.564,0,0,0-.15.718Z" fill="#656769" stroke="#45413c" stroke-linecap="round" stroke-linejoin="round"></path><path d="M62.762 79.969L60.984 86.66 56.772 85.207 58.379 79.156 62.762 79.969z" fill="#fff" stroke="#45413c" stroke-linecap="round" stroke-linejoin="round"></path><path d="M56.746 79.156 A3.384 3.384 0 1 0 63.514 79.156 A3.384 3.384 0 1 0 56.746 79.156 Z" fill="#fff" stroke="#45413c" stroke-linecap="round" stroke-linejoin="round"></path><path d="M54.664 88.342 A3.384 3.384 0 1 0 61.432 88.342 A3.384 3.384 0 1 0 54.664 88.342 Z" fill="#fff" stroke="#45413c" stroke-linecap="round" stroke-linejoin="round"></path><path d="M44.767,45.594a3.742,3.742,0,0,1,2.058,1.274,4.18,4.18,0,0,0,6.455,0,3.742,3.742,0,0,1,2.058-1.274l-.005-1.9a5.6,5.6,0,0,0-3.5,1.982,2.3,2.3,0,0,1-3.553,0,5.594,5.594,0,0,0-3.5-1.982Z" fill="#9ceb60" stroke="#46b000" stroke-linecap="round" stroke-linejoin="round"></path><path d="M43.772,46.44h-1.82V42.68h1.82a1,1,0,0,1,1,1v1.76A1,1,0,0,1,43.772,46.44Z" fill="#f0f0f0" stroke="#45413c" stroke-linecap="round" stroke-linejoin="round"></path><path d="M56.333,46.44h1.82V42.68h-1.82a1,1,0,0,0-1,1v1.76A1,1,0,0,0,56.333,46.44Z" fill="#f0f0f0" stroke="#45413c" stroke-linecap="round" stroke-linejoin="round"></path><path d="M38.839,19.359a1.894,1.894,0,0,1-1.472-.833L33.53,12.812a1.884,1.884,0,0,1,1.576-2.934l1.647.084A14.73,14.73,0,0,1,46.869,1.336,14.087,14.087,0,0,1,60.683,5.718a2.4,2.4,0,1,1-3.6,3.185,9.287,9.287,0,0,0-9.108-2.891,9.9,9.9,0,0,0-5.959,4.223l1.427.075A1.885,1.885,0,0,1,44.792,13.4L40.38,18.686a1.884,1.884,0,0,1-1.448.675Z" fill="#c8ffa1" stroke="#388c00" stroke-linecap="round" stroke-linejoin="round"></path><path d="M61.266,11.737a1.894,1.894,0,0,1,1.472.833l3.837,5.714A1.884,1.884,0,0,1,65,21.218l-1.647-.084A14.73,14.73,0,0,1,53.236,29.76a14.087,14.087,0,0,1-13.814-4.382,2.4,2.4,0,1,1,3.6-3.185,9.287,9.287,0,0,0,9.108,2.891,9.9,9.9,0,0,0,5.959-4.223l-1.427-.075A1.886,1.886,0,0,1,55.313,17.7l4.412-5.285a1.887,1.887,0,0,1,1.448-.675Z" fill="#c8ffa1" stroke="#388c00" stroke-linecap="round" stroke-linejoin="round"></path><path d="M10.844 33.415 L41.952 33.415 L41.952 57.857 L10.844 57.857 Z" fill="#00b8f0"></path><path d="M14.588,57.857h-.411a3.333,3.333,0,0,1-3.333-3.333V36.748a3.333,3.333,0,0,1,3.333-3.333H38.619Z" fill="#4acfff"></path><path d="M10.844 33.415 L41.952 33.415 L41.952 57.857 L10.844 57.857 Z" fill="none" stroke="#45413c" stroke-linecap="round" stroke-linejoin="round"></path><path d="M17.262 46.026 A1.909 1.909 0 1 0 21.080 46.026 A1.909 1.909 0 1 0 17.262 46.026 Z" fill="#fff" stroke="#009fd9" stroke-linecap="round" stroke-linejoin="round"></path><path d="M24.489 46.026 A1.909 1.909 0 1 0 28.307 46.026 A1.909 1.909 0 1 0 24.489 46.026 Z" fill="#fff" stroke="#009fd9" stroke-linecap="round" stroke-linejoin="round"></path><path d="M31.715 46.026 A1.909 1.909 0 1 0 35.533 46.026 A1.909 1.909 0 1 0 31.715 46.026 Z" fill="#fff" stroke="#009fd9" stroke-linecap="round" stroke-linejoin="round"></path><path d="M58.153 33.415 L89.261 33.415 L89.261 57.857 L58.153 57.857 Z" fill="#00b8f0"></path><path d="M61.9,57.857h-.411a3.333,3.333,0,0,1-3.333-3.333V36.748a3.334,3.334,0,0,1,3.334-3.333H85.929Z" fill="#4acfff"></path><path d="M58.153 33.415 L89.261 33.415 L89.261 57.857 L58.153 57.857 Z" fill="none" stroke="#45413c" stroke-linecap="round" stroke-linejoin="round"></path><path d="M64.572 46.026 A1.909 1.909 0 1 0 68.390 46.026 A1.909 1.909 0 1 0 64.572 46.026 Z" fill="#fff" stroke="#009fd9" stroke-linecap="round" stroke-linejoin="round"></path><path d="M71.798 46.026 A1.909 1.909 0 1 0 75.616 46.026 A1.909 1.909 0 1 0 71.798 46.026 Z" fill="#fff" stroke="#009fd9" stroke-linecap="round" stroke-linejoin="round"></path><path d="M79.025 46.026 A1.909 1.909 0 1 0 82.843 46.026 A1.909 1.909 0 1 0 79.025 46.026 Z" fill="#fff" stroke="#009fd9" stroke-linecap="round" stroke-linejoin="round"></path></g></svg>