<svg width="160" height="160" viewBox="0 0 160 160" fill="none" xmlns="http://www.w3.org/2000/svg">
<g clip-path="url(#clip0)">
<path d="M21.7922 106.611C28.85 122.048 41.751 134.049 57.6572 139.974C73.5634 145.899 91.1718 145.262 106.609 138.204C122.046 131.147 134.047 118.246 139.972 102.339C145.897 86.4331 145.26 68.8248 138.202 53.3878C131.144 37.9509 118.243 25.9499 102.337 20.025C86.431 14.1 68.8227 14.7365 53.3857 21.7943C37.9488 28.8521 25.9478 41.7531 20.0229 57.6593C14.0979 73.5655 14.7344 91.1739 21.7922 106.611V106.611Z" fill="#525252"/>
<path d="M80.9749 22.0469L81.5029 23.3573C81.5503 23.4695 81.5768 23.5893 81.5813 23.7109C81.576 23.7873 81.5552 23.8619 81.5202 23.93C81.4851 23.9981 81.4365 24.0583 81.3773 24.107C81.3181 24.1557 81.2497 24.1918 81.1761 24.2131C81.1025 24.2344 81.0253 24.2405 80.9493 24.2309C80.8165 24.2189 80.6905 24.1664 80.5884 24.0806C80.4863 23.9947 80.4129 23.8797 80.3781 23.7509L78.3557 18.7205C78.3122 18.623 78.292 18.5168 78.2965 18.4101C78.3107 18.2683 78.3766 18.1367 78.4817 18.0405C78.5868 17.9443 78.7236 17.8902 78.8661 17.8885C78.9999 17.8841 79.1315 17.9236 79.2407 18.0011C79.3499 18.0785 79.4308 18.1896 79.4709 18.3173L80.3621 20.5941L81.1941 18.3173C81.234 18.1897 81.3145 18.0787 81.4235 18.0012C81.5324 17.9238 81.6637 17.8842 81.7973 17.8885C81.94 17.8901 82.0771 17.9442 82.1824 18.0404C82.2877 18.1366 82.354 18.2682 82.3685 18.4101C82.3683 18.5164 82.3483 18.6217 82.3093 18.7205L80.9749 22.0469Z" fill="#6DD627"/>
<path d="M81.9749 31.8535C81.9777 31.9411 81.962 32.0282 81.9287 32.1093C81.8955 32.1903 81.8455 32.2634 81.7821 32.3238C81.7187 32.3843 81.6432 32.4306 81.5606 32.4598C81.4781 32.4891 81.3903 32.5006 81.3029 32.4935H79.5717C79.3195 32.524 79.0637 32.4989 78.8222 32.42C78.5807 32.3411 78.3595 32.2103 78.1739 32.0368C77.9883 31.8633 77.843 31.6513 77.7481 31.4156C77.6532 31.18 77.611 30.9264 77.6245 30.6727C77.6296 30.3202 77.7619 29.9814 77.9971 29.7188C78.2324 29.4562 78.5547 29.2875 78.9045 29.2439V29.2263C78.6606 29.1297 78.4536 28.9583 78.3133 28.7366C78.173 28.515 78.1067 28.2545 78.1237 27.9927C78.1242 27.7899 78.1662 27.5894 78.2471 27.4034C78.328 27.2175 78.4462 27.0501 78.5943 26.9116C78.7425 26.7731 78.9174 26.6663 79.1083 26.598C79.2993 26.5297 79.5022 26.5012 79.7045 26.5143H81.3173C81.4036 26.5057 81.4907 26.5158 81.5727 26.5439C81.6547 26.572 81.7297 26.6174 81.7925 26.6771C81.8554 26.7368 81.9046 26.8093 81.9369 26.8897C81.9693 26.9701 81.9839 27.0566 81.9797 27.1431L81.9749 31.8535ZM80.7157 29.9879H79.8245C79.2373 29.9879 78.9349 30.2567 78.9349 30.6519C78.9318 30.7539 78.9506 30.8553 78.99 30.9494C79.0295 31.0434 79.0887 31.1279 79.1637 31.1971C79.2386 31.2663 79.3275 31.3185 79.4245 31.3504C79.5214 31.3822 79.624 31.3928 79.7253 31.3815H80.7157V29.9879ZM80.7157 27.6183H80.0597C79.9749 27.608 79.8888 27.6156 79.8071 27.6408C79.7254 27.666 79.6499 27.7081 79.5856 27.7644C79.5213 27.8207 79.4695 27.89 79.4338 27.9677C79.398 28.0453 79.3791 28.1296 79.3781 28.2151C79.3716 28.3055 79.385 28.3962 79.4172 28.4809C79.4494 28.5656 79.4997 28.6423 79.5646 28.7055C79.6295 28.7688 79.7075 28.8171 79.793 28.8471C79.8785 28.877 79.9696 28.888 80.0597 28.8791H80.7157V27.6183Z" fill="#6DD627"/>
<path d="M82.1474 41.844C82.2127 41.9386 82.2508 42.0492 82.2578 42.164C82.2578 42.4408 82.0322 42.5752 81.7634 42.5752H78.9474C78.8755 42.5791 78.8035 42.5684 78.7359 42.5436C78.6683 42.5188 78.6065 42.4805 78.5542 42.431C78.5019 42.3815 78.4603 42.3219 78.4318 42.2557C78.4034 42.1896 78.3887 42.1184 78.3887 42.0464C78.3887 41.9744 78.4034 41.9031 78.4318 41.837C78.4603 41.7709 78.5019 41.7112 78.5542 41.6617C78.6065 41.6122 78.6683 41.5739 78.7359 41.5491C78.8035 41.5244 78.8755 41.5136 78.9474 41.5176H80.5474L78.6418 38.8472C78.5543 38.7471 78.5095 38.6167 78.517 38.484C78.5155 38.4326 78.5248 38.3815 78.5443 38.334C78.5638 38.2864 78.593 38.2435 78.6301 38.2079C78.6671 38.1723 78.7113 38.1449 78.7596 38.1274C78.8079 38.11 78.8593 38.1028 78.9106 38.1064H81.6578C81.7982 38.1064 81.9329 38.1622 82.0322 38.2615C82.1316 38.3608 82.1874 38.4955 82.1874 38.636C82.1874 38.7764 82.1316 38.9111 82.0322 39.0105C81.9329 39.1098 81.7982 39.1656 81.6578 39.1656H80.2546L82.1474 41.844Z" fill="#6DD627"/>
<path d="M79.604 51.3612V52.0764C79.604 52.5212 79.4296 52.7308 78.9992 52.7308C78.5688 52.7308 78.3976 52.5164 78.3976 52.0716V51.3612H78.2536C78.1773 51.367 78.1007 51.357 78.0285 51.3318C77.9563 51.3067 77.8901 51.2668 77.8341 51.2149C77.778 51.1629 77.7332 51.0999 77.7026 51.0298C77.672 50.9597 77.6562 50.8841 77.6562 50.8076C77.6562 50.7312 77.672 50.6556 77.7026 50.5855C77.7332 50.5154 77.778 50.4524 77.8341 50.4004C77.8901 50.3485 77.9563 50.3086 78.0285 50.2834C78.1007 50.2583 78.1773 50.2482 78.2536 50.254H78.3976V47.6716C78.3796 47.536 78.3911 47.398 78.4313 47.2672C78.4716 47.1364 78.5396 47.0158 78.6308 46.9137C78.7219 46.8116 78.8341 46.7304 78.9595 46.6756C79.0849 46.6209 79.2207 46.5939 79.3576 46.5964C79.5324 46.5781 79.7086 46.6144 79.8619 46.7004C80.0152 46.7863 80.1381 46.9177 80.2136 47.0765L82.0952 50.4876C82.172 50.5956 82.2133 50.7248 82.2136 50.8572C82.2095 50.929 82.1908 50.9991 82.1586 51.0634C82.1264 51.1277 82.0815 51.1847 82.0265 51.231C81.9715 51.2773 81.9077 51.3118 81.8389 51.3326C81.7701 51.3533 81.6978 51.3598 81.6264 51.3516L79.604 51.3612ZM79.604 50.254H80.7544L79.62 47.91H79.604V50.254Z" fill="#6DD627"/>
<path d="M80.9583 62.1592C80.9626 62.2445 80.9495 62.3299 80.9198 62.41C80.8901 62.4901 80.8445 62.5634 80.7856 62.6253C80.7267 62.6873 80.6558 62.7366 80.5773 62.7703C80.4988 62.804 80.4142 62.8213 80.3287 62.8213C80.2433 62.8213 80.1587 62.804 80.0802 62.7703C80.0016 62.7366 79.9308 62.6873 79.8719 62.6253C79.813 62.5634 79.7673 62.4901 79.7376 62.41C79.7079 62.3299 79.6948 62.2445 79.6991 62.1592V57.9432H78.7839C78.7072 57.9475 78.6304 57.9354 78.5587 57.9076C78.487 57.8799 78.422 57.8372 78.3681 57.7824C78.3142 57.7276 78.2726 57.6619 78.2461 57.5898C78.2196 57.5176 78.2087 57.4407 78.2143 57.364C78.2119 57.2881 78.225 57.2125 78.2526 57.1418C78.2803 57.0711 78.322 57.0067 78.3752 56.9525C78.4285 56.8984 78.4921 56.8556 78.5624 56.8268C78.6326 56.798 78.708 56.7837 78.7839 56.7848H81.8735C81.9497 56.7832 82.0254 56.7972 82.0961 56.8258C82.1667 56.8545 82.2307 56.8972 82.2843 56.9514C82.3379 57.0056 82.3799 57.0701 82.4078 57.141C82.4356 57.212 82.4487 57.2878 82.4463 57.364C82.4517 57.4409 82.4406 57.518 82.4138 57.5903C82.387 57.6626 82.3451 57.7283 82.2909 57.7831C82.2367 57.8379 82.1714 57.8805 82.0995 57.9081C82.0275 57.9357 81.9505 57.9477 81.8735 57.9432H80.9583V62.1592Z" fill="#6DD627"/>
<path d="M66.4117 21.7598C66.4145 21.8474 66.3987 21.9345 66.3655 22.0155C66.3323 22.0966 66.2823 22.1697 66.2189 22.2301C66.1554 22.2905 66.08 22.3369 65.9974 22.3661C65.9148 22.3953 65.827 22.4068 65.7397 22.3998H64.0117C63.7593 22.43 63.5034 22.4047 63.2619 22.3256C63.0203 22.2465 62.799 22.1156 62.6134 21.942C62.4277 21.7684 62.2823 21.5563 62.1872 21.3206C62.0921 21.0849 62.0497 20.8312 62.0629 20.5774C62.0683 20.225 62.2007 19.8863 62.4359 19.6238C62.6711 19.3613 62.9932 19.1925 63.3429 19.1486V19.1326C63.0992 19.0353 62.8924 18.8635 62.7522 18.6416C62.612 18.4198 62.5454 18.1593 62.5621 17.8974C62.5626 17.6949 62.6045 17.4946 62.6852 17.3089C62.766 17.1232 62.8838 16.956 63.0316 16.8175C63.1794 16.679 63.3539 16.5722 63.5445 16.5037C63.735 16.4352 63.9376 16.4063 64.1397 16.419H65.7525C65.8389 16.4104 65.9261 16.4205 66.0082 16.4487C66.0904 16.4768 66.1654 16.5224 66.2283 16.5823C66.2912 16.6421 66.3404 16.7148 66.3726 16.7955C66.4048 16.8761 66.4193 16.9627 66.4149 17.0494L66.4117 21.7598ZM65.1525 19.8958H64.2629C63.6741 19.8958 63.3717 20.1646 63.3717 20.5598C63.3686 20.6618 63.3874 20.7633 63.4268 20.8574C63.4663 20.9515 63.5255 21.0361 63.6004 21.1054C63.6753 21.1747 63.7642 21.2271 63.8611 21.2592C63.958 21.2912 64.0607 21.302 64.1621 21.291H65.1525V19.8958ZM65.1525 17.5294H64.4997C64.4149 17.5185 64.3287 17.5258 64.2469 17.5507C64.1651 17.5756 64.0895 17.6175 64.0251 17.6737C63.9607 17.73 63.9089 17.7993 63.8732 17.877C63.8376 17.9547 63.8188 18.0391 63.8181 18.1246C63.8119 18.2149 63.8254 18.3055 63.8577 18.3901C63.89 18.4747 63.9404 18.5512 64.0052 18.6144C64.0701 18.6775 64.1479 18.7259 64.2333 18.7559C64.3187 18.786 64.4096 18.7972 64.4997 18.7886H65.1525V17.5294Z" fill="#6DD627"/>
<path d="M66.4109 31.8868C66.4152 31.9722 66.4021 32.0575 66.3724 32.1376C66.3427 32.2178 66.297 32.291 66.2381 32.353C66.1792 32.4149 66.1084 32.4642 66.0299 32.4979C65.9513 32.5316 65.8667 32.549 65.7813 32.549C65.6958 32.549 65.6113 32.5316 65.5327 32.4979C65.4542 32.4642 65.3833 32.4149 65.3244 32.353C65.2656 32.291 65.2199 32.2178 65.1902 32.1376C65.1605 32.0575 65.1474 31.9722 65.1517 31.8868V30.0564H62.5149V31.8868C62.5192 31.9722 62.5061 32.0575 62.4764 32.1376C62.4467 32.2178 62.401 32.291 62.3421 32.353C62.2832 32.4149 62.2124 32.4642 62.1338 32.4979C62.0553 32.5316 61.9707 32.549 61.8853 32.549C61.7998 32.549 61.7153 32.5316 61.6367 32.4979C61.5582 32.4642 61.4873 32.4149 61.4284 32.353C61.3695 32.291 61.3239 32.2178 61.2942 32.1376C61.2645 32.0575 61.2514 31.9722 61.2557 31.8868V27.1172C61.2514 27.0319 61.2645 26.9465 61.2942 26.8664C61.3239 26.7863 61.3695 26.713 61.4284 26.6511C61.4873 26.5892 61.5582 26.5398 61.6367 26.5061C61.7153 26.4725 61.7998 26.4551 61.8853 26.4551C61.9707 26.4551 62.0553 26.4725 62.1338 26.5061C62.2124 26.5398 62.2832 26.5892 62.3421 26.6511C62.401 26.713 62.4467 26.7863 62.4764 26.8664C62.5061 26.9465 62.5192 27.0319 62.5149 27.1172V28.898H65.1517V27.1172C65.1474 27.0319 65.1605 26.9465 65.1902 26.8664C65.2199 26.7863 65.2656 26.713 65.3244 26.6511C65.3833 26.5892 65.4542 26.5398 65.5327 26.5061C65.6113 26.4725 65.6958 26.4551 65.7813 26.4551C65.8667 26.4551 65.9513 26.4725 66.0299 26.5061C66.1084 26.5398 66.1792 26.5892 66.2381 26.6511C66.297 26.713 66.3427 26.7863 66.3724 26.8664C66.4021 26.9465 66.4152 27.0319 66.4109 27.1172V31.8868Z" fill="#6DD627"/>
<path d="M66.412 41.9519C66.4145 42.0381 66.3989 42.1239 66.366 42.2036C66.3332 42.2834 66.2839 42.3554 66.2214 42.4148C66.1589 42.4743 66.0846 42.5199 66.0033 42.5488C65.9221 42.5776 65.8356 42.589 65.7496 42.5823H64.2872C63.9005 42.606 63.5131 42.5469 63.1511 42.4088C62.7891 42.2707 62.4607 42.0569 62.1881 41.7816C61.9154 41.5064 61.7046 41.176 61.57 40.8127C61.4353 40.4494 61.3798 40.0616 61.4072 39.6751C61.3642 39.271 61.4102 38.8625 61.542 38.4781C61.6737 38.0937 61.888 37.7428 62.1698 37.4501C62.4515 37.1573 62.794 36.9298 63.173 36.7835C63.5521 36.6371 63.9586 36.5756 64.364 36.6031H65.7592C65.8441 36.5999 65.9287 36.6143 66.0078 36.6454C66.0869 36.6764 66.1587 36.7235 66.2187 36.7835C66.2788 36.8436 66.3258 36.9154 66.3569 36.9945C66.3879 37.0735 66.4023 37.1582 66.3992 37.2431L66.412 41.9519ZM65.1528 37.7599H64.3912C63.2312 37.7599 62.7288 38.5407 62.7288 39.6159C62.7288 40.6239 63.2216 41.4207 64.3064 41.4207H65.1528V37.7599Z" fill="#6DD627"/>
<path d="M63.4031 48.9792C63.4031 48.3824 64.3199 48.1056 64.9167 48.1056C65.1185 48.082 65.323 48.1006 65.5172 48.1602C65.7115 48.2198 65.8912 48.319 66.0451 48.4517C66.1989 48.5844 66.3236 48.7475 66.4111 48.9309C66.4986 49.1142 66.5471 49.3138 66.5535 49.5168C66.5535 50.9024 64.4543 50.8176 64.4543 51.3728C64.4543 51.6 64.5631 51.7168 64.9343 51.7168C65.5055 51.7168 65.7151 51.3056 66.1871 51.3056C66.3238 51.3178 66.4515 51.3788 66.5467 51.4776C66.6419 51.5764 66.6983 51.7062 66.7055 51.8432C66.7055 52.3888 65.6991 52.776 65.0175 52.776C64.8099 52.8032 64.599 52.7874 64.3977 52.7295C64.1965 52.6717 64.0094 52.5731 63.8479 52.4398C63.6864 52.3065 63.5541 52.1415 63.4591 51.9549C63.3642 51.7683 63.3086 51.5642 63.2959 51.3552C63.2959 49.9792 65.3967 50.0624 65.3967 49.4992C65.3967 49.2656 65.2031 49.1632 64.9839 49.1632C64.5903 49.1632 64.1279 49.5168 63.9023 49.5168C63.7652 49.5106 63.6361 49.4507 63.5427 49.3502C63.4493 49.2496 63.3992 49.1164 63.4031 48.9792V48.9792Z" fill="#6DD627"/>
<path d="M66.412 62.1365C66.4143 62.2225 66.3984 62.3082 66.3655 62.3877C66.3326 62.4673 66.2833 62.5391 66.2208 62.5983C66.1584 62.6576 66.0841 62.7031 66.0029 62.7319C65.9218 62.7606 65.8355 62.772 65.7496 62.7653H64.2872C63.9006 62.789 63.5134 62.7299 63.1515 62.5919C62.7896 62.4539 62.4613 62.2403 62.1887 61.9652C61.916 61.6901 61.7052 61.3599 61.5705 60.9968C61.4357 60.6337 61.38 60.246 61.4072 59.8597C61.3643 59.4555 61.4103 59.0469 61.542 58.6625C61.6737 58.278 61.888 57.9271 62.1697 57.6342C62.4515 57.3413 62.7939 57.1136 63.1729 56.9671C63.552 56.8206 63.9585 56.7588 64.364 56.7861H65.7592C65.8441 56.7829 65.9287 56.7973 66.0078 56.8284C66.0868 56.8594 66.1587 56.9065 66.2187 56.9665C66.2788 57.0266 66.3258 57.0984 66.3569 57.1775C66.3879 57.2565 66.4023 57.3412 66.3992 57.4261L66.412 62.1365ZM65.1528 57.9445H64.3912C63.2312 57.9445 62.7288 58.7269 62.7288 59.8021C62.7288 60.8085 63.2216 61.6053 64.3064 61.6053H65.1528V57.9445Z" fill="#6DD627"/>
<path d="M32.7513 45.4752C31.0585 45.4752 30.5273 43.7536 30.5273 42.3856C30.5273 41.0176 31.0585 39.2944 32.7513 39.2944C34.4441 39.2944 34.9801 41.0144 34.9801 42.3856C34.9801 43.7568 34.4489 45.4752 32.7513 45.4752ZM32.7513 44.3328C33.6105 44.3328 33.6665 42.9808 33.6665 42.3856C33.6665 41.7456 33.6105 40.4352 32.7513 40.4352C31.8921 40.4352 31.8393 41.7456 31.8393 42.3856C31.8345 42.9808 31.8953 44.3328 32.7513 44.3328V44.3328Z" fill="#6DD627"/>
<path d="M33.8883 54.8643C33.8926 54.9497 33.8795 55.035 33.8498 55.1151C33.8201 55.1953 33.7744 55.2685 33.7155 55.3305C33.6566 55.3924 33.5858 55.4417 33.5072 55.4754C33.4287 55.5091 33.3441 55.5265 33.2587 55.5265C33.1732 55.5265 33.0887 55.5091 33.0101 55.4754C32.9316 55.4417 32.8607 55.3924 32.8018 55.3305C32.7429 55.2685 32.6973 55.1953 32.6676 55.1151C32.6379 55.035 32.6248 54.9497 32.6291 54.8643V50.0819C32.6223 50.0047 32.6319 49.9269 32.6573 49.8536C32.6827 49.7804 32.7234 49.7134 32.7766 49.657C32.8298 49.6006 32.8944 49.5561 32.966 49.5265C33.0377 49.4969 33.1148 49.4828 33.1923 49.4851H34.3859C34.462 49.4842 34.5374 49.4987 34.6078 49.5277C34.6781 49.5567 34.7418 49.5996 34.7952 49.6538C34.8485 49.7081 34.8904 49.7725 34.9182 49.8434C34.946 49.9142 34.9592 49.9899 34.9571 50.0659C34.9624 50.1427 34.9514 50.2197 34.9247 50.2918C34.898 50.364 34.8562 50.4296 34.8022 50.4844C34.7482 50.5392 34.6831 50.5818 34.6113 50.6096C34.5395 50.6373 34.4627 50.6494 34.3859 50.6451H33.8883V54.8643Z" fill="#6DD627"/>
<path d="M32.7513 65.6575C31.0585 65.6575 30.5273 63.9375 30.5273 62.5663C30.5273 61.1951 31.0585 59.4751 32.7513 59.4751C34.4441 59.4751 34.9801 61.1983 34.9801 62.5663C34.9801 63.9343 34.4489 65.6575 32.7513 65.6575ZM32.7513 64.5167C33.6105 64.5167 33.6665 63.1631 33.6665 62.5663C33.6665 61.9263 33.6105 60.6191 32.7513 60.6191C31.8921 60.6191 31.8393 61.9295 31.8393 62.5663C31.8345 63.1631 31.8953 64.5167 32.7513 64.5167Z" fill="#6DD627"/>
<path d="M32.7513 75.7511C31.0585 75.7511 30.5273 74.0295 30.5273 72.6615C30.5273 71.2935 31.0585 69.5703 32.7513 69.5703C34.4441 69.5703 34.9801 71.2903 34.9801 72.6615C34.9801 74.0327 34.4489 75.7511 32.7513 75.7511ZM32.7513 74.6071C33.6105 74.6071 33.6665 73.2567 33.6665 72.6615C33.6665 72.0215 33.6105 70.7111 32.7513 70.7111C31.8921 70.7111 31.8393 72.0215 31.8393 72.6615C31.8345 73.2567 31.8953 74.6071 32.7513 74.6071Z" fill="#6DD627"/>
<path d="M33.8883 85.137C33.8926 85.2223 33.8795 85.3077 33.8498 85.3878C33.8201 85.4679 33.7744 85.5412 33.7155 85.6031C33.6566 85.6651 33.5858 85.7144 33.5072 85.7481C33.4287 85.7818 33.3441 85.7991 33.2587 85.7991C33.1732 85.7991 33.0887 85.7818 33.0101 85.7481C32.9316 85.7144 32.8607 85.6651 32.8018 85.6031C32.7429 85.5412 32.6973 85.4679 32.6676 85.3878C32.6379 85.3077 32.6248 85.2223 32.6291 85.137V80.3578C32.6223 80.2806 32.6319 80.2028 32.6573 80.1295C32.6827 80.0563 32.7234 79.9893 32.7766 79.9329C32.8298 79.8765 32.8944 79.832 32.966 79.8024C33.0377 79.7728 33.1148 79.7587 33.1923 79.761H34.3859C34.4618 79.7601 34.5371 79.7745 34.6074 79.8034C34.6776 79.8323 34.7413 79.8751 34.7946 79.9292C34.8479 79.9832 34.8898 80.0475 34.9177 80.1181C34.9456 80.1887 34.959 80.2643 34.9571 80.3402C34.9627 80.4171 34.9518 80.4943 34.9252 80.5666C34.8986 80.639 34.8569 80.7048 34.8028 80.7598C34.7488 80.8147 34.6836 80.8575 34.6117 80.8853C34.5398 80.9131 34.4628 80.9253 34.3859 80.921H33.8883V85.137Z" fill="#6DD627"/>
<path d="M32.7513 95.9334C31.0585 95.9334 30.5273 94.2118 30.5273 92.8422C30.5273 91.4726 31.0585 89.751 32.7513 89.751C34.4441 89.751 34.9801 91.4726 34.9801 92.8422C34.9801 94.2118 34.4489 95.9334 32.7513 95.9334ZM32.7513 94.7926C33.6105 94.7926 33.6665 93.439 33.6665 92.8422C33.6665 92.2022 33.6105 90.895 32.7513 90.895C31.8921 90.895 31.8393 92.2038 31.8393 92.8422C31.8345 93.4406 31.8953 94.7926 32.7513 94.7926Z" fill="#6DD627"/>
<path d="M33.8883 105.318C33.8926 105.403 33.8795 105.488 33.8498 105.568C33.8201 105.649 33.7744 105.722 33.7155 105.784C33.6566 105.846 33.5858 105.895 33.5072 105.929C33.4287 105.962 33.3441 105.98 33.2587 105.98C33.1732 105.98 33.0887 105.962 33.0101 105.929C32.9316 105.895 32.8607 105.846 32.8018 105.784C32.7429 105.722 32.6973 105.649 32.6676 105.568C32.6379 105.488 32.6248 105.403 32.6291 105.318V100.538C32.6223 100.461 32.6319 100.383 32.6573 100.31C32.6827 100.237 32.7234 100.17 32.7766 100.114C32.8298 100.057 32.8944 100.013 32.966 99.9831C33.0377 99.9534 33.1148 99.9393 33.1923 99.9417H34.3859C34.462 99.9408 34.5374 99.9552 34.6078 99.9842C34.6781 100.013 34.7418 100.056 34.7952 100.11C34.8485 100.165 34.8904 100.229 34.9182 100.3C34.946 100.371 34.9592 100.446 34.9571 100.522C34.9624 100.599 34.9514 100.676 34.9247 100.748C34.898 100.821 34.8562 100.886 34.8022 100.941C34.7482 100.996 34.6831 101.038 34.6113 101.066C34.5395 101.094 34.4627 101.106 34.3859 101.102H33.8883V105.318Z" fill="#6DD627"/>
<path d="M33.8883 115.409C33.8926 115.494 33.8795 115.58 33.8498 115.66C33.8201 115.74 33.7744 115.813 33.7155 115.875C33.6566 115.937 33.5858 115.986 33.5072 116.02C33.4287 116.054 33.3441 116.071 33.2587 116.071C33.1732 116.071 33.0887 116.054 33.0101 116.02C32.9316 115.986 32.8607 115.937 32.8018 115.875C32.7429 115.813 32.6973 115.74 32.6676 115.66C32.6379 115.58 32.6248 115.494 32.6291 115.409V110.631C32.6223 110.554 32.6319 110.476 32.6573 110.403C32.6827 110.33 32.7234 110.263 32.7766 110.206C32.8298 110.15 32.8944 110.105 32.966 110.076C33.0377 110.046 33.1148 110.032 33.1923 110.034H34.3859C34.4618 110.034 34.5371 110.048 34.6074 110.077C34.6776 110.106 34.7413 110.149 34.7946 110.203C34.8479 110.257 34.8898 110.321 34.9177 110.392C34.9456 110.462 34.959 110.538 34.9571 110.614C34.9627 110.691 34.9518 110.768 34.9252 110.84C34.8986 110.912 34.8569 110.978 34.8028 111.033C34.7488 111.088 34.6836 111.131 34.6117 111.159C34.5398 111.187 34.4628 111.199 34.3859 111.194H33.8883V115.409Z" fill="#6DD627"/>
<path d="M50.3534 32.1478C50.3561 32.2321 50.3414 32.3161 50.3101 32.3945C50.2788 32.4729 50.2316 32.5439 50.1714 32.6031C50.1113 32.6623 50.0396 32.7085 49.9607 32.7386C49.8819 32.7687 49.7977 32.7822 49.7134 32.7782H47.5406C47.4627 32.7819 47.3849 32.7696 47.312 32.7421C47.2391 32.7145 47.1726 32.6723 47.1166 32.618C47.0607 32.5637 47.0165 32.4985 46.9867 32.4264C46.957 32.3543 46.9424 32.2769 46.9438 32.199C46.9407 32.1205 46.9542 32.0423 46.9833 31.9693C47.0124 31.8964 47.0565 31.8304 47.1128 31.7756C47.1691 31.7209 47.2363 31.6785 47.31 31.6514C47.3837 31.6243 47.4622 31.613 47.5406 31.6182H49.0942V30.3382H47.7166C47.6377 30.343 47.5587 30.3316 47.4844 30.3046C47.4101 30.2777 47.3421 30.2357 47.2846 30.1814C47.2272 30.1271 47.1815 30.0616 47.1504 29.989C47.1193 29.9163 47.1034 29.838 47.1038 29.759C47.1022 29.6796 47.1173 29.6008 47.148 29.5275C47.1787 29.4543 47.2243 29.3883 47.282 29.3338C47.3397 29.2792 47.4082 29.2374 47.483 29.2109C47.5579 29.1843 47.6374 29.1738 47.7166 29.1798H49.0942V27.9542H47.6158C47.5379 27.9582 47.46 27.946 47.3869 27.9186C47.3139 27.8911 47.2473 27.8489 47.1913 27.7945C47.1353 27.7402 47.0911 27.6749 47.0615 27.6027C47.0318 27.5305 47.0174 27.453 47.019 27.375C47.0159 27.2966 47.0293 27.2184 47.0585 27.1455C47.0876 27.0727 47.1317 27.0068 47.1881 26.9521C47.2444 26.8975 47.3116 26.8553 47.3853 26.8284C47.459 26.8014 47.5375 26.7903 47.6158 26.7958H49.6958C50.139 26.7958 50.3486 27.1062 50.3486 27.527L50.3534 32.1478Z" fill="#6DD627"/>
<path d="M46.2556 39.0229C46.2469 38.9383 46.256 38.8529 46.2823 38.772C46.3086 38.6911 46.3515 38.6166 46.4083 38.5533C46.4651 38.49 46.5346 38.4393 46.6122 38.4045C46.6897 38.3696 46.7737 38.3514 46.8588 38.3509C47.0051 38.3429 47.149 38.3906 47.2615 38.4844C47.374 38.5782 47.4468 38.7112 47.4652 38.8565C47.5897 38.6795 47.7562 38.5362 47.9497 38.4393C48.1432 38.3424 48.3577 38.295 48.574 38.3013C48.8598 38.3233 49.1384 38.4018 49.3936 38.5322C49.6488 38.6627 49.8756 38.8426 50.0608 39.0614C50.2459 39.2802 50.3858 39.5335 50.4722 39.8068C50.5587 40.0801 50.59 40.3679 50.5644 40.6533C50.5644 41.8549 49.9676 42.9701 48.6988 42.9701C48.4639 42.9865 48.2288 42.9427 48.0155 42.8431C47.8022 42.7434 47.6178 42.5911 47.4796 42.4005H47.4652V42.6853C47.4604 42.8182 47.4841 42.9506 47.5348 43.0736C47.5855 43.1965 47.6619 43.3072 47.7589 43.3982C47.8559 43.4891 47.9713 43.5583 48.0973 43.6009C48.2232 43.6435 48.3569 43.6587 48.4892 43.6453C49.1868 43.6453 49.6092 43.2693 49.9996 43.2693C50.1266 43.2922 50.2425 43.3563 50.3293 43.4518C50.4161 43.5473 50.4689 43.6687 50.4796 43.7973C50.4796 44.4613 49.07 44.7045 48.574 44.7045C48.2717 44.7426 47.9648 44.7134 47.675 44.6192C47.3853 44.5249 47.12 44.3679 46.8979 44.1593C46.6759 43.9507 46.5026 43.6957 46.3905 43.4124C46.2783 43.1291 46.2301 42.8246 46.2492 42.5205L46.2556 39.0229ZM47.4652 40.6709C47.4652 41.2581 47.7676 41.8629 48.414 41.8629C49.0604 41.8629 49.3548 41.2741 49.3548 40.6277C49.3548 40.0661 49.0348 39.4101 48.414 39.4101C47.7484 39.4101 47.4652 40.0821 47.4652 40.6709Z" fill="#6DD627"/>
<path d="M50.1358 51.9996C50.2269 52.0267 50.3063 52.0834 50.3614 52.1608C50.4165 52.2383 50.4441 52.3319 50.4398 52.4268C50.4398 52.7804 50.2462 52.9564 50.0366 52.9564C49.8897 52.9501 49.7463 52.9101 49.6174 52.8396L46.299 51.31C46.2059 51.2689 46.1269 51.2016 46.0714 51.1164C46.0159 51.0312 45.9863 50.9317 45.9863 50.83C45.9863 50.7283 46.0159 50.6288 46.0714 50.5436C46.1269 50.4584 46.2059 50.3911 46.299 50.35L49.6174 48.83C49.7448 48.7546 49.8887 48.7113 50.0366 48.7036C50.2462 48.7036 50.4398 48.8796 50.4398 49.2332C50.4439 49.3283 50.4162 49.422 50.3612 49.4997C50.3061 49.5773 50.2268 49.6344 50.1358 49.662L47.3422 50.8284L50.1358 51.9996Z" fill="#6DD627"/>
<path d="M48.7657 57.5753C48.7609 57.4937 48.7736 57.412 48.8031 57.3358C48.8325 57.2595 48.8779 57.1905 48.9363 57.1333C48.9947 57.0761 49.0647 57.0321 49.1415 57.0043C49.2184 56.9765 49.3003 56.9655 49.3817 56.9721H50.2185C50.3459 56.9721 50.4679 57.0226 50.558 57.1126C50.648 57.2027 50.6985 57.3247 50.6985 57.4521C50.6985 57.5794 50.648 57.7014 50.558 57.7915C50.4679 57.8815 50.3459 57.9321 50.2185 57.9321H49.8249V63.3912H50.2185C50.3459 63.3912 50.4679 63.4418 50.558 63.5318C50.648 63.6218 50.6985 63.7439 50.6985 63.8712C50.6985 63.9985 50.648 64.1206 50.558 64.2107C50.4679 64.3007 50.3459 64.3512 50.2185 64.3512H49.3817C49.3001 64.3578 49.2181 64.3468 49.1411 64.3189C49.0642 64.291 48.9941 64.2468 48.9357 64.1895C48.8773 64.1321 48.8318 64.0629 48.8025 63.9864C48.7732 63.91 48.7607 63.8281 48.7657 63.7464V57.5753Z" fill="#6DD627"/>
<path d="M50.0939 72.5226C50.1026 72.6073 50.0934 72.6928 50.067 72.7737C50.0406 72.8546 49.9975 72.929 49.9405 72.9922C49.8835 73.0554 49.8138 73.1059 49.7361 73.1405C49.6583 73.175 49.5742 73.1929 49.4891 73.1929C49.404 73.1929 49.3198 73.175 49.2421 73.1405C49.1643 73.1059 49.0947 73.0554 49.0377 72.9922C48.9806 72.929 48.9375 72.8546 48.9111 72.7737C48.8847 72.6928 48.8755 72.6073 48.8843 72.5226V69.7354H48.5403C48.4659 69.7453 48.3903 69.7388 48.3187 69.7163C48.2471 69.6938 48.1813 69.6559 48.126 69.6053C48.0706 69.5547 48.027 69.4925 47.9982 69.4232C47.9695 69.3539 47.9562 69.2792 47.9595 69.2042C47.9595 68.8186 48.2283 68.6762 48.5403 68.6762H48.8843V67.953C48.8755 67.8684 48.8847 67.7828 48.9111 67.7019C48.9375 67.621 48.9806 67.5466 49.0377 67.4834C49.0947 67.4202 49.1643 67.3697 49.2421 67.3352C49.3198 67.3006 49.404 67.2827 49.4891 67.2827C49.5742 67.2827 49.6583 67.3006 49.7361 67.3352C49.8138 67.3697 49.8835 67.4202 49.9405 67.4834C49.9975 67.5466 50.0406 67.621 50.067 67.7019C50.0934 67.7828 50.1026 67.8684 50.0939 67.953V68.6762H50.3627C50.4325 68.6745 50.5019 68.6869 50.5668 68.7128C50.6316 68.7387 50.6905 68.7776 50.7399 68.8269C50.7893 68.8763 50.8281 68.9352 50.8541 69.0001C50.88 69.065 50.8924 69.1344 50.8907 69.2042C50.897 69.2753 50.8877 69.3469 50.8634 69.414C50.8391 69.481 50.8005 69.542 50.7502 69.5926C50.6999 69.6432 50.6392 69.6822 50.5722 69.7069C50.5053 69.7316 50.4338 69.7413 50.3627 69.7354H50.0939V72.5226Z" fill="#6DD627"/>
<path d="M50.0939 99.8411C50.1026 99.9258 50.0934 100.011 50.067 100.092C50.0406 100.173 49.9975 100.248 49.9405 100.311C49.8835 100.374 49.8138 100.424 49.7361 100.459C49.6583 100.494 49.5742 100.511 49.4891 100.511C49.404 100.511 49.3198 100.494 49.2421 100.459C49.1643 100.424 49.0947 100.374 49.0377 100.311C48.9807 100.248 48.9375 100.173 48.9111 100.092C48.8847 100.011 48.8756 99.9258 48.8843 99.8411V97.0523H48.5403C48.466 97.0625 48.3904 97.0562 48.3188 97.0339C48.2472 97.0116 48.1814 96.9739 48.126 96.9233C48.0706 96.8728 48.027 96.8108 47.9982 96.7415C47.9694 96.6723 47.9562 96.5976 47.9595 96.5227C47.9595 96.1355 48.2283 95.9931 48.5403 95.9931H48.8843V95.2699C48.8756 95.1853 48.8847 95.0997 48.9111 95.0188C48.9375 94.9379 48.9807 94.8635 49.0377 94.8003C49.0947 94.7371 49.1643 94.6866 49.2421 94.652C49.3198 94.6175 49.404 94.5996 49.4891 94.5996C49.5742 94.5996 49.6583 94.6175 49.7361 94.652C49.8138 94.6866 49.8835 94.7371 49.9405 94.8003C49.9975 94.8635 50.0406 94.9379 50.067 95.0188C50.0934 95.0997 50.1026 95.1853 50.0939 95.2699V96.0011H50.3627C50.4326 95.9993 50.5022 96.0118 50.5672 96.0379C50.6321 96.0639 50.6911 96.1028 50.7405 96.1524C50.7899 96.2019 50.8287 96.261 50.8545 96.3261C50.8804 96.3911 50.8926 96.4608 50.8907 96.5307C50.8967 96.6016 50.8872 96.673 50.8629 96.7399C50.8385 96.8068 50.7998 96.8676 50.7496 96.918C50.6993 96.9684 50.6386 97.0073 50.5718 97.0319C50.505 97.0564 50.4336 97.0661 50.3627 97.0603H50.0939V99.8411Z" fill="#6DD627"/>
<path d="M110.034 101.44C110.042 101.525 110.033 101.61 110.007 101.691C109.98 101.772 109.937 101.847 109.88 101.91C109.823 101.973 109.754 102.024 109.676 102.058C109.598 102.093 109.514 102.111 109.429 102.111C109.344 102.111 109.26 102.093 109.182 102.058C109.104 102.024 109.034 101.973 108.977 101.91C108.92 101.847 108.877 101.772 108.851 101.691C108.824 101.61 108.815 101.525 108.824 101.44V98.6514H108.477C108.403 98.6616 108.327 98.6553 108.255 98.633C108.184 98.6107 108.118 98.573 108.063 98.5225C108.007 98.472 107.964 98.4099 107.935 98.3407C107.906 98.2714 107.893 98.1967 107.896 98.1218C107.896 97.7346 108.165 97.5922 108.477 97.5922H108.821V96.869C108.812 96.7844 108.821 96.6988 108.848 96.6179C108.874 96.5371 108.917 96.4626 108.974 96.3994C109.031 96.3362 109.101 96.2857 109.179 96.2512C109.256 96.2166 109.34 96.1987 109.426 96.1987C109.511 96.1987 109.595 96.2166 109.673 96.2512C109.75 96.2857 109.82 96.3362 109.877 96.3994C109.934 96.4626 109.977 96.5371 110.004 96.6179C110.03 96.6988 110.039 96.7844 110.03 96.869V97.6002H110.299C110.369 97.5987 110.439 97.6114 110.503 97.6374C110.568 97.6635 110.627 97.7025 110.677 97.752C110.726 97.8015 110.765 97.8605 110.791 97.9255C110.816 97.9904 110.829 98.0599 110.827 98.1298C110.833 98.2008 110.824 98.2722 110.799 98.3391C110.775 98.406 110.736 98.4667 110.686 98.5172C110.636 98.5676 110.575 98.6064 110.508 98.631C110.442 98.6556 110.37 98.6653 110.299 98.6594H110.03L110.034 101.44Z" fill="#6DD627"/>
<path d="M48.4798 82.1255C47.7678 81.2263 46.4654 80.0695 46.4654 78.8999C46.4644 78.66 46.5129 78.4225 46.6079 78.2022C46.7028 77.9818 46.8422 77.7835 47.0173 77.6195C47.1924 77.4555 47.3994 77.3294 47.6255 77.2491C47.8515 77.1688 48.0917 77.136 48.3311 77.1527C48.8429 77.1536 49.3343 77.3531 49.702 77.7091C50.0697 78.0652 50.2848 78.55 50.3023 79.0615C50.3067 79.143 50.2938 79.2246 50.2646 79.3009C50.2353 79.3771 50.1903 79.4464 50.1324 79.504C50.0746 79.5617 50.0053 79.6065 49.9289 79.6356C49.8526 79.6647 49.771 79.6773 49.6895 79.6727C48.8895 79.6727 49.3455 78.3127 48.3807 78.3127C48.216 78.3189 48.0603 78.3894 47.947 78.509C47.8336 78.6287 47.7716 78.7879 47.7742 78.9527C47.7901 79.2367 47.8922 79.5091 48.067 79.7335C48.7071 80.6583 49.4623 81.4135 50.1615 82.2455C50.2713 82.3623 50.3384 82.5129 50.3519 82.6727C50.3519 83.0599 50.0671 83.2279 49.6991 83.2279H46.8974C46.8201 83.2369 46.7418 83.2291 46.6678 83.2051C46.5937 83.1811 46.5258 83.1413 46.4685 83.0886C46.4112 83.0359 46.366 82.9715 46.3359 82.8997C46.3059 82.8279 46.2916 82.7505 46.2942 82.6727C46.2942 82.2871 46.579 82.1191 46.947 82.1191L48.4798 82.1255Z" fill="#6DD627"/>
<path d="M112.502 36.6758C112.505 36.7601 112.49 36.8441 112.459 36.9225C112.427 37.0008 112.38 37.0719 112.32 37.1311C112.26 37.1903 112.188 37.2364 112.109 37.2666C112.03 37.2967 111.946 37.3102 111.862 37.3061H109.689C109.611 37.3099 109.533 37.2976 109.46 37.27C109.387 37.2425 109.321 37.2002 109.265 37.146C109.209 37.0917 109.165 37.0265 109.135 36.9544C109.105 36.8823 109.091 36.8049 109.092 36.7269C109.089 36.6485 109.103 36.5702 109.132 36.4973C109.161 36.4244 109.205 36.3584 109.261 36.3036C109.318 36.2488 109.385 36.2065 109.458 36.1794C109.532 36.1522 109.611 36.1409 109.689 36.1461H111.243V34.8662H109.865C109.786 34.871 109.707 34.8595 109.632 34.8324C109.558 34.8054 109.49 34.7633 109.432 34.7088C109.375 34.6544 109.329 34.5887 109.298 34.5158C109.267 34.443 109.252 34.3645 109.252 34.2853C109.251 34.206 109.266 34.1271 109.296 34.0539C109.327 33.9807 109.373 33.9147 109.43 33.8601C109.488 33.8056 109.557 33.7637 109.631 33.7372C109.706 33.7107 109.786 33.7001 109.865 33.7062H111.243V32.4806H109.764C109.686 32.4845 109.608 32.4724 109.535 32.4449C109.462 32.4175 109.396 32.3752 109.34 32.3209C109.284 32.2665 109.24 32.2012 109.21 32.1291C109.18 32.0569 109.166 31.9794 109.167 31.9014C109.164 31.8229 109.178 31.7448 109.207 31.6719C109.236 31.599 109.28 31.5331 109.337 31.4785C109.393 31.4238 109.46 31.3817 109.534 31.3547C109.607 31.3278 109.686 31.3167 109.764 31.3222H111.844C112.287 31.3222 112.497 31.6326 112.497 32.0534L112.502 36.6758Z" fill="#6DD627"/>
<path d="M108.407 43.5517C108.398 43.4671 108.408 43.3816 108.434 43.3008C108.46 43.2199 108.503 43.1454 108.56 43.0821C108.617 43.0188 108.686 42.9681 108.764 42.9333C108.841 42.8984 108.925 42.8802 109.01 42.8797C109.157 42.8717 109.301 42.9194 109.413 43.0132C109.526 43.107 109.598 43.24 109.617 43.3853C109.742 43.2084 109.908 43.0651 110.102 42.9683C110.296 42.8714 110.511 42.8239 110.727 42.8301C111.013 42.8523 111.291 42.9309 111.546 43.0614C111.802 43.192 112.028 43.3718 112.213 43.5906C112.399 43.8093 112.538 44.0626 112.625 44.3358C112.711 44.609 112.743 44.8967 112.718 45.1821C112.718 46.3837 112.121 47.4989 110.852 47.4989C110.617 47.5152 110.382 47.4715 110.169 47.3719C109.955 47.2722 109.771 47.1199 109.633 46.9293H109.617V47.2141C109.612 47.3472 109.636 47.4797 109.686 47.6028C109.737 47.7259 109.814 47.8366 109.911 47.9276C110.008 48.0186 110.124 48.0877 110.25 48.1302C110.376 48.1727 110.51 48.1877 110.642 48.1741C111.338 48.1741 111.762 47.7981 112.151 47.7981C112.278 47.8209 112.394 47.8851 112.481 47.9806C112.568 48.076 112.621 48.1975 112.631 48.3261C112.631 48.9901 111.222 49.2333 110.726 49.2333C110.423 49.2688 110.117 49.2375 109.828 49.1417C109.54 49.0459 109.275 48.8879 109.054 48.6789C108.833 48.4699 108.661 48.2149 108.549 47.932C108.437 47.649 108.389 47.345 108.407 47.0413V43.5517ZM109.617 45.1997C109.617 45.7869 109.921 46.3917 110.567 46.3917C111.214 46.3917 111.508 45.8045 111.508 45.1565C111.508 44.5949 111.188 43.9389 110.567 43.9389C109.902 43.9389 109.617 44.6109 109.617 45.1997V45.1997Z" fill="#6DD627"/>
<path d="M112.287 56.5325C112.378 56.5595 112.457 56.6163 112.512 56.6937C112.567 56.7711 112.595 56.8647 112.591 56.9597C112.591 57.3133 112.397 57.4893 112.187 57.4893C112.041 57.4829 111.897 57.443 111.768 57.3725L108.45 55.8413C108.356 55.8007 108.277 55.7336 108.221 55.6483C108.165 55.5631 108.135 55.4633 108.135 55.3613C108.135 55.2593 108.165 55.1595 108.221 55.0742C108.277 54.9889 108.356 54.9219 108.45 54.8813L111.768 53.3613C111.896 53.2857 112.039 53.2423 112.187 53.2349C112.397 53.2349 112.591 53.4109 112.591 53.7645C112.595 53.8595 112.567 53.9533 112.512 54.0309C112.457 54.1085 112.378 54.1657 112.287 54.1933L109.493 55.3597L112.287 56.5325Z" fill="#6DD627"/>
<path d="M110.919 62.1041C110.914 62.0225 110.927 61.9408 110.956 61.8646C110.986 61.7883 111.031 61.7193 111.09 61.6621C111.148 61.6049 111.218 61.5609 111.295 61.5331C111.372 61.5053 111.454 61.4943 111.535 61.5009H112.372C112.499 61.5009 112.621 61.5514 112.711 61.6415C112.801 61.7315 112.852 61.8536 112.852 61.9809C112.852 62.1082 112.801 62.2303 112.711 62.3203C112.621 62.4103 112.499 62.4609 112.372 62.4609H111.978V67.9201H112.372C112.499 67.9201 112.621 67.9706 112.711 68.0607C112.801 68.1507 112.852 68.2728 112.852 68.4001C112.852 68.5274 112.801 68.6495 112.711 68.7395C112.621 68.8295 112.499 68.8801 112.372 68.8801H111.535C111.454 68.8866 111.372 68.8756 111.295 68.8478C111.218 68.82 111.148 68.776 111.09 68.7188C111.031 68.6616 110.986 68.5926 110.956 68.5164C110.927 68.4401 110.914 68.3584 110.919 68.2769V62.1041Z" fill="#6DD627"/>
<path d="M112.247 77.0514C112.256 77.1361 112.247 77.2216 112.22 77.3025C112.194 77.3834 112.151 77.4578 112.094 77.521C112.037 77.5842 111.967 77.6347 111.889 77.6693C111.812 77.7039 111.728 77.7217 111.642 77.7217C111.557 77.7217 111.473 77.7039 111.395 77.6693C111.318 77.6347 111.248 77.5842 111.191 77.521C111.134 77.4578 111.091 77.3834 111.064 77.3025C111.038 77.2216 111.029 77.1361 111.038 77.0514V74.2642H110.694C110.619 74.2744 110.544 74.2681 110.472 74.2458C110.401 74.2235 110.335 74.1858 110.279 74.1353C110.224 74.0847 110.18 74.0227 110.152 73.9534C110.123 73.8842 110.11 73.8095 110.113 73.7346C110.113 73.3474 110.382 73.205 110.694 73.205H111.039V72.4818C111.03 72.3972 111.04 72.3116 111.066 72.2307C111.092 72.1498 111.136 72.0754 111.193 72.0122C111.25 71.949 111.319 71.8985 111.397 71.864C111.475 71.8294 111.559 71.8115 111.644 71.8115C111.729 71.8115 111.813 71.8294 111.891 71.864C111.969 71.8985 112.038 71.949 112.095 72.0122C112.152 72.0754 112.196 72.1498 112.222 72.2307C112.248 72.3116 112.258 72.3972 112.249 72.4818V73.205H112.518C112.588 73.2035 112.657 73.2161 112.722 73.2422C112.787 73.2683 112.846 73.3073 112.895 73.3568C112.944 73.4063 112.983 73.4653 113.009 73.5303C113.035 73.5952 113.047 73.6647 113.046 73.7346C113.052 73.8056 113.042 73.877 113.018 73.9439C112.993 74.0107 112.955 74.0715 112.905 74.1219C112.854 74.1724 112.794 74.2112 112.727 74.2358C112.66 74.2604 112.589 74.2701 112.518 74.2642H112.249L112.247 77.0514Z" fill="#6DD627"/>
<path d="M110.633 86.6542C109.921 85.755 108.617 84.5982 108.617 83.4286C108.616 83.1888 108.665 82.9513 108.76 82.7311C108.855 82.5109 108.994 82.3127 109.169 82.1488C109.344 81.9848 109.551 81.8587 109.777 81.7783C110.003 81.6979 110.243 81.6649 110.483 81.6814C110.995 81.6819 111.487 81.8812 111.855 82.2373C112.223 82.5934 112.438 83.0784 112.455 83.5902C112.46 83.6719 112.447 83.7536 112.418 83.8301C112.389 83.9065 112.344 83.9759 112.286 84.0338C112.228 84.0917 112.159 84.1366 112.083 84.1658C112.006 84.1949 111.924 84.2076 111.843 84.203C111.043 84.203 111.499 82.8414 110.534 82.8414C110.369 82.8476 110.214 82.9181 110.1 83.0377C109.987 83.1574 109.925 83.3166 109.927 83.4814C109.943 83.766 110.045 84.039 110.22 84.2638C110.86 85.187 111.614 85.9422 112.315 86.7742C112.425 86.891 112.492 87.0416 112.505 87.2014C112.505 87.5886 112.22 87.7566 111.852 87.7566H109.046C108.969 87.7656 108.89 87.7578 108.816 87.7338C108.742 87.7098 108.674 87.67 108.617 87.6173C108.56 87.5646 108.514 87.5002 108.484 87.4284C108.454 87.3566 108.44 87.2792 108.443 87.2014C108.443 86.8158 108.727 86.6478 109.095 86.6478L110.633 86.6542Z" fill="#6DD627"/>
<path d="M127.154 43.0071C126.878 43.0109 126.604 42.9599 126.349 42.8571C126.093 42.7543 125.86 42.6016 125.664 42.4081C125.468 42.2146 125.312 41.984 125.206 41.7298C125.099 41.4755 125.045 41.2027 125.045 40.9271C125.03 40.4447 125.207 39.9762 125.537 39.6237C125.867 39.2713 126.322 39.0634 126.805 39.0455C126.986 39.0432 127.165 39.0775 127.333 39.1463L127.35 39.1303C127.074 38.7367 126.526 38.1991 126.192 37.7863C126.095 37.6948 126.032 37.5737 126.013 37.4423C126.033 37.2894 126.102 37.1472 126.209 37.0368C126.317 36.9264 126.457 36.8537 126.61 36.8295C126.698 36.8233 126.787 36.8433 126.864 36.8871C126.959 36.9468 127.049 37.0143 127.133 37.0887C128.25 38.097 129 39.4476 129.267 40.9287C129.273 41.2061 129.222 41.4819 129.117 41.7389C129.012 41.9959 128.856 42.2289 128.658 42.4235C128.46 42.6181 128.225 42.7702 127.966 42.8706C127.707 42.9709 127.431 43.0174 127.154 43.0071V43.0071ZM127.154 40.0519C127.042 40.0514 126.932 40.0742 126.83 40.1189C126.728 40.1635 126.636 40.2289 126.561 40.311C126.485 40.3931 126.428 40.49 126.392 40.5956C126.357 40.7011 126.344 40.8129 126.354 40.9239C126.367 41.0783 126.426 41.2253 126.522 41.347C126.618 41.4688 126.747 41.56 126.894 41.6097C127.041 41.6594 127.199 41.6653 127.349 41.6268C127.499 41.5882 127.635 41.5069 127.74 41.3927C127.845 41.2785 127.914 41.1362 127.939 40.9833C127.965 40.8304 127.945 40.6734 127.883 40.5314C127.821 40.3893 127.719 40.2684 127.59 40.1833C127.46 40.0981 127.309 40.0525 127.154 40.0519Z" fill="#6DD627"/>
<path d="M125.086 49.1509C125.078 49.0663 125.087 48.9808 125.113 48.9C125.139 48.8191 125.182 48.7446 125.239 48.6813C125.296 48.618 125.365 48.5673 125.443 48.5325C125.52 48.4976 125.604 48.4794 125.689 48.4789C125.836 48.4709 125.98 48.5186 126.092 48.6124C126.205 48.7062 126.277 48.8392 126.296 48.9845C126.426 48.8033 126.599 48.6575 126.8 48.5605C127.001 48.4635 127.223 48.4184 127.446 48.4293C127.997 48.528 128.494 48.8182 128.851 49.2487C129.208 49.6792 129.401 50.2221 129.396 50.7813C129.391 51.3405 129.189 51.8799 128.824 52.3039C128.46 52.7279 127.957 53.0093 127.405 53.0981C126.997 53.0938 126.604 52.9453 126.296 52.6789V54.1573C126.305 54.242 126.295 54.3275 126.269 54.4084C126.243 54.4893 126.199 54.5637 126.142 54.6269C126.085 54.6901 126.016 54.7406 125.938 54.7752C125.86 54.8098 125.776 54.8276 125.691 54.8276C125.606 54.8276 125.522 54.8098 125.444 54.7752C125.366 54.7406 125.297 54.6901 125.24 54.6269C125.183 54.5637 125.139 54.4893 125.113 54.4084C125.087 54.3275 125.077 54.242 125.086 54.1573V49.1509ZM126.296 50.7317C126.296 51.3189 126.581 51.9909 127.246 51.9909C127.873 51.9909 128.187 51.3365 128.187 50.7733C128.187 50.2101 127.867 49.5381 127.246 49.5381C126.625 49.5381 126.296 50.1413 126.296 50.7317Z" fill="#6DD627"/>
<path d="M129.219 62.4671C129.228 62.5517 129.219 62.6373 129.193 62.7182C129.166 62.7991 129.123 62.8735 129.066 62.9367C129.009 62.9999 128.939 63.0504 128.862 63.085C128.784 63.1195 128.7 63.1374 128.615 63.1374C128.53 63.1374 128.445 63.1195 128.368 63.085C128.29 63.0504 128.22 62.9999 128.163 62.9367C128.106 62.8735 128.063 62.7991 128.037 62.7182C128.01 62.6373 128.001 62.5517 128.01 62.4671V60.3583C128.01 59.8783 127.792 59.5279 127.298 59.5279C126.861 59.5279 126.592 59.8703 126.592 60.3583V62.4671C126.601 62.5517 126.592 62.6373 126.565 62.7182C126.539 62.7991 126.496 62.8735 126.439 62.9367C126.382 62.9999 126.312 63.0504 126.234 63.085C126.157 63.1195 126.073 63.1374 125.987 63.1374C125.902 63.1374 125.818 63.1195 125.74 63.085C125.663 63.0504 125.593 62.9999 125.536 62.9367C125.479 62.8735 125.436 62.7991 125.409 62.7182C125.383 62.6373 125.374 62.5517 125.383 62.4671V60.3583C125.397 60.2556 125.389 60.1511 125.359 60.0518C125.33 59.9524 125.28 59.8604 125.212 59.7819C125.145 59.7033 125.061 59.6401 124.967 59.5963C124.873 59.5525 124.771 59.5292 124.667 59.5279C124.232 59.5279 123.963 59.8703 123.963 60.3583V62.4671C123.972 62.5517 123.963 62.6373 123.937 62.7182C123.91 62.7991 123.867 62.8735 123.81 62.9367C123.753 62.9999 123.683 63.0504 123.606 63.085C123.528 63.1195 123.444 63.1374 123.359 63.1374C123.274 63.1374 123.189 63.1195 123.112 63.085C123.034 63.0504 122.964 62.9999 122.907 62.9367C122.85 62.8735 122.807 62.7991 122.781 62.7182C122.754 62.6373 122.745 62.5517 122.754 62.4671V60.1487C122.736 59.9283 122.767 59.7066 122.844 59.4994C122.922 59.2922 123.043 59.1044 123.201 58.9492C123.358 58.7939 123.548 58.6751 123.756 58.6009C123.964 58.5268 124.186 58.4991 124.407 58.5199C124.65 58.5312 124.889 58.5913 125.109 58.6966C125.329 58.8018 125.525 58.9501 125.687 59.1327C125.833 58.9396 126.022 58.7836 126.239 58.6771C126.457 58.5707 126.696 58.5168 126.938 58.5199C127.149 58.52 127.359 58.5648 127.552 58.6513C127.745 58.7379 127.917 58.8643 128.058 59.0223C128.072 58.889 128.139 58.7668 128.243 58.6821C128.347 58.5974 128.48 58.5569 128.613 58.5695C128.698 58.5702 128.782 58.5886 128.859 58.6235C128.937 58.6585 129.006 58.7092 129.063 58.7724C129.12 58.8356 129.163 58.91 129.189 58.9908C129.215 59.0715 129.225 59.1569 129.216 59.2415L129.219 62.4671Z" fill="#6DD627"/>
<path d="M129.419 70.1924C129.444 70.5876 129.388 70.9837 129.254 71.3564C129.12 71.7291 128.911 72.0705 128.641 72.3596C128.37 72.6488 128.043 72.8796 127.68 73.0379C127.317 73.1963 126.926 73.2788 126.53 73.2804C125.907 73.2804 124.639 73.0948 124.639 72.2884C124.644 72.1412 124.704 72.0013 124.807 71.896C124.91 71.7906 125.048 71.7275 125.195 71.7188C125.538 71.7188 125.823 72.0708 126.53 72.0708C126.759 72.0629 126.984 72.0072 127.19 71.9074C127.397 71.8076 127.58 71.6658 127.728 71.4911C127.877 71.3164 127.987 71.1127 128.053 70.8929C128.118 70.6732 128.137 70.4422 128.107 70.2148C128.107 69.1908 127.57 68.3092 126.53 68.3092C125.823 68.3092 125.589 68.602 125.25 68.602C125.178 68.6006 125.108 68.5848 125.043 68.5556C124.977 68.5264 124.919 68.4843 124.87 68.4319C124.821 68.3795 124.784 68.3178 124.759 68.2506C124.735 68.1833 124.724 68.1118 124.728 68.0404C124.728 67.2996 125.922 67.0996 126.535 67.0996C126.931 67.1007 127.323 67.183 127.686 67.3416C128.05 67.5001 128.376 67.7314 128.647 68.0213C128.917 68.3111 129.125 68.6534 129.258 69.0268C129.391 69.4002 129.446 69.7969 129.419 70.1924V70.1924Z" fill="#6DD627"/>
<path d="M128.763 82.4324C128.816 82.5215 128.845 82.623 128.848 82.7268C128.832 82.8973 128.75 83.0549 128.62 83.1661C128.489 83.2772 128.321 83.3332 128.15 83.322C127.772 83.322 127.67 83.154 127.444 82.682L125.365 78.45C125.261 78.2807 125.195 78.0915 125.171 77.8948C125.172 77.7351 125.236 77.5822 125.349 77.4691C125.462 77.356 125.614 77.2917 125.774 77.29H128.814C128.895 77.2792 128.977 77.2864 129.054 77.3111C129.132 77.3357 129.203 77.3773 129.262 77.4326C129.322 77.488 129.368 77.5559 129.398 77.6314C129.428 77.7069 129.441 77.7881 129.436 77.8692C129.44 77.9501 129.426 78.0309 129.396 78.1059C129.365 78.1809 129.319 78.2484 129.26 78.3036C129.2 78.3589 129.13 78.4006 129.053 78.4259C128.976 78.4511 128.895 78.4594 128.814 78.45H126.664L128.763 82.4324Z" fill="#6DD627"/>
<path d="M127.806 92.2535L125.116 88.5255C125 88.37 124.934 88.1822 124.929 87.9879C124.931 87.9003 124.952 87.8142 124.99 87.735C125.027 87.6559 125.081 87.5856 125.147 87.5285C125.214 87.4715 125.292 87.4291 125.376 87.4041C125.46 87.379 125.548 87.3719 125.635 87.3831H128.71C128.863 87.381 129.011 87.4397 129.121 87.5465C129.231 87.6533 129.295 87.7994 129.297 87.9527C129.299 88.028 129.284 88.1028 129.255 88.1721C129.225 88.2414 129.181 88.3036 129.125 88.3545C129.07 88.4053 129.004 88.4438 128.932 88.4672C128.861 88.4906 128.785 88.4985 128.71 88.4903H126.504L129.206 92.2695C129.311 92.4079 129.37 92.5757 129.376 92.7495C129.376 93.1031 129.116 93.3543 128.668 93.3543H125.369C125.216 93.3579 125.068 93.302 124.956 93.1985C124.843 93.0949 124.775 92.9517 124.766 92.7991C124.763 92.7213 124.777 92.6438 124.807 92.5719C124.837 92.5001 124.882 92.4356 124.94 92.383C124.997 92.3303 125.065 92.2907 125.139 92.267C125.213 92.2433 125.292 92.2359 125.369 92.2455L127.806 92.2535Z" fill="#6DD627"/>
<path d="M126.177 99.7603C126.177 99.1635 127.092 98.8867 127.689 98.8867C127.89 98.8633 128.095 98.8821 128.289 98.9418C128.483 99.0014 128.663 99.1007 128.817 99.2332C128.971 99.3658 129.096 99.5289 129.183 99.7121C129.271 99.8954 129.32 100.095 129.327 100.298C129.327 101.683 127.226 101.6 127.226 102.154C127.226 102.381 127.335 102.498 127.706 102.498C128.277 102.498 128.487 102.087 128.959 102.087C129.096 102.099 129.223 102.16 129.319 102.259C129.414 102.357 129.47 102.487 129.477 102.624C129.477 103.17 128.471 103.555 127.791 103.555C126.749 103.555 126.069 102.943 126.069 102.138C126.069 100.76 128.169 100.843 128.169 100.28C128.169 100.047 127.975 99.9443 127.756 99.9443C127.362 99.9443 126.9 100.298 126.674 100.298C126.537 100.291 126.409 100.231 126.316 100.131C126.223 100.03 126.173 99.8972 126.177 99.7603Z" fill="#6DD627"/>
<path d="M129.182 112.916C129.184 113.001 129.169 113.085 129.137 113.164C129.105 113.243 129.057 113.314 128.996 113.373C128.935 113.432 128.863 113.478 128.783 113.508C128.703 113.537 128.618 113.55 128.534 113.545H126.369C126.291 113.549 126.213 113.537 126.14 113.509C126.067 113.482 126 113.439 125.944 113.385C125.888 113.331 125.844 113.265 125.814 113.193C125.785 113.121 125.77 113.043 125.772 112.965C125.769 112.887 125.782 112.809 125.811 112.736C125.841 112.663 125.885 112.597 125.941 112.543C125.997 112.488 126.064 112.446 126.138 112.419C126.212 112.392 126.29 112.381 126.369 112.386H127.922V111.106H126.543C126.464 111.111 126.385 111.1 126.311 111.073C126.237 111.046 126.169 111.004 126.112 110.949C126.054 110.895 126.009 110.83 125.978 110.757C125.947 110.684 125.931 110.606 125.932 110.527C125.93 110.448 125.945 110.369 125.975 110.296C126.006 110.222 126.051 110.156 126.109 110.101C126.167 110.047 126.235 110.005 126.31 109.978C126.384 109.951 126.464 109.94 126.543 109.946H127.922V108.722H126.444C126.366 108.726 126.288 108.714 126.215 108.686C126.142 108.658 126.075 108.616 126.019 108.562C125.963 108.507 125.919 108.442 125.89 108.369C125.86 108.297 125.845 108.22 125.847 108.141C125.844 108.063 125.858 107.985 125.887 107.912C125.916 107.84 125.96 107.774 126.017 107.719C126.073 107.665 126.14 107.622 126.214 107.595C126.287 107.568 126.366 107.557 126.444 107.562H128.524C128.967 107.562 129.177 107.873 129.177 108.293L129.182 112.916Z" fill="#6DD627"/>
<path d="M127.806 122.531L125.116 118.801C125 118.646 124.934 118.458 124.929 118.264C124.931 118.176 124.952 118.09 124.99 118.011C125.027 117.932 125.081 117.861 125.147 117.804C125.214 117.747 125.292 117.705 125.376 117.68C125.46 117.655 125.548 117.648 125.635 117.659H128.71C128.864 117.657 129.011 117.716 129.121 117.823C129.232 117.93 129.295 118.077 129.297 118.23C129.299 118.305 129.284 118.38 129.254 118.449C129.224 118.518 129.18 118.581 129.125 118.631C129.069 118.682 129.004 118.721 128.932 118.744C128.861 118.768 128.785 118.776 128.71 118.768H126.504L129.206 122.545C129.311 122.684 129.371 122.852 129.376 123.025C129.376 123.379 129.116 123.63 128.668 123.63H125.369C125.216 123.633 125.068 123.577 124.956 123.474C124.844 123.37 124.775 123.227 124.766 123.075C124.763 122.997 124.777 122.92 124.807 122.848C124.837 122.776 124.882 122.712 124.94 122.659C124.997 122.607 125.065 122.567 125.139 122.544C125.214 122.52 125.292 122.513 125.369 122.523L127.806 122.531Z" fill="#6DD627"/>
<path d="M96.0419 21.7948C96.0462 21.8801 96.0331 21.9655 96.0034 22.0456C95.9737 22.1257 95.928 22.199 95.8692 22.2609C95.8103 22.3228 95.7394 22.3722 95.6609 22.4058C95.5823 22.4395 95.4978 22.4569 95.4123 22.4569C95.3269 22.4569 95.2423 22.4395 95.1637 22.4058C95.0852 22.3722 95.0144 22.3228 94.9555 22.2609C94.8966 22.199 94.8509 22.1257 94.8212 22.0456C94.7915 21.9655 94.7784 21.8801 94.7827 21.7948V17.0156C94.7754 16.9384 94.7846 16.8605 94.8098 16.7871C94.8349 16.7138 94.8754 16.6466 94.9285 16.5902C94.9817 16.5337 95.0462 16.4892 95.1179 16.4596C95.1896 16.4301 95.2668 16.4161 95.3443 16.4188H96.5347C96.611 16.4174 96.6867 16.4316 96.7574 16.4604C96.828 16.4892 96.892 16.5321 96.9456 16.5864C96.9992 16.6407 97.0411 16.7053 97.069 16.7764C97.0968 16.8474 97.1099 16.9233 97.1075 16.9996C97.1126 17.0764 97.1014 17.1534 97.0745 17.2256C97.0476 17.2977 97.0057 17.3634 96.9515 17.4181C96.8974 17.4729 96.8322 17.5155 96.7604 17.5432C96.6885 17.5709 96.6116 17.583 96.5347 17.5788H96.0419V21.7948Z" fill="#6DD627"/>
<path d="M94.9063 32.5911C93.2087 32.5911 92.6807 30.8695 92.6807 29.4999C92.6807 28.1303 93.2087 26.4087 94.9063 26.4087C96.6039 26.4087 97.1319 28.1319 97.1319 29.4999C97.1319 30.8679 96.6023 32.5911 94.9063 32.5911ZM94.9063 31.4503C95.7623 31.4503 95.8215 30.0967 95.8215 29.4999C95.8215 28.8599 95.7623 27.5527 94.9063 27.5527C94.0503 27.5527 93.9911 28.8631 93.9911 29.4999C93.9911 30.0967 94.0503 31.4503 94.9063 31.4503Z" fill="#6DD627"/>
<path d="M94.9063 42.6823C93.2087 42.6823 92.6807 40.9623 92.6807 39.5927C92.6807 38.2231 93.2087 36.5015 94.9063 36.5015C96.6039 36.5015 97.1319 38.2231 97.1319 39.5927C97.1319 40.9623 96.6023 42.6823 94.9063 42.6823ZM94.9063 41.5415C95.7623 41.5415 95.8215 40.1895 95.8215 39.5927C95.8215 38.9527 95.7623 37.6455 94.9063 37.6455C94.0503 37.6455 93.9911 38.9543 93.9911 39.5927C93.9911 40.1895 94.0503 41.5415 94.9063 41.5415V41.5415Z" fill="#6DD627"/>
<path d="M96.0419 52.0707C96.0462 52.156 96.0331 52.2413 96.0034 52.3215C95.9737 52.4016 95.928 52.4749 95.8692 52.5368C95.8103 52.5987 95.7394 52.648 95.6609 52.6817C95.5823 52.7154 95.4978 52.7328 95.4123 52.7328C95.3269 52.7328 95.2423 52.7154 95.1637 52.6817C95.0852 52.648 95.0144 52.5987 94.9555 52.5368C94.8966 52.4749 94.8509 52.4016 94.8212 52.3215C94.7915 52.2413 94.7784 52.156 94.7827 52.0707V47.2914C94.7754 47.2142 94.7846 47.1364 94.8098 47.063C94.8349 46.9897 94.8754 46.9225 94.9285 46.866C94.9817 46.8096 95.0462 46.7651 95.1179 46.7355C95.1896 46.706 95.2668 46.692 95.3443 46.6946H96.5347C96.6108 46.6933 96.6865 46.7074 96.757 46.7362C96.8275 46.7649 96.8915 46.8076 96.945 46.8617C96.9985 46.9159 97.0406 46.9803 97.0685 47.0511C97.0964 47.122 97.1097 47.1977 97.1075 47.2738C97.1129 47.3508 97.1018 47.428 97.075 47.5004C97.0482 47.5727 97.0063 47.6385 96.9522 47.6935C96.898 47.7484 96.8327 47.7912 96.7608 47.819C96.6888 47.8468 96.6117 47.8589 96.5347 47.8546H96.0419V52.0707Z" fill="#6DD627"/>
<path d="M96.0419 62.1618C96.0462 62.2472 96.0331 62.3325 96.0034 62.4126C95.9737 62.4928 95.9281 62.566 95.8692 62.628C95.8103 62.6899 95.7394 62.7392 95.6609 62.7729C95.5823 62.8066 95.4978 62.824 95.4123 62.824C95.3269 62.824 95.2423 62.8066 95.1637 62.7729C95.0852 62.7392 95.0144 62.6899 94.9555 62.628C94.8966 62.566 94.8509 62.4928 94.8212 62.4126C94.7915 62.3325 94.7784 62.2472 94.7827 62.1618V57.3842C94.7754 57.307 94.7846 57.2291 94.8098 57.1558C94.8349 57.0824 94.8754 57.0153 94.9285 56.9588C94.9817 56.9023 95.0462 56.8578 95.1179 56.8283C95.1896 56.7987 95.2668 56.7848 95.3443 56.7874H96.5347C96.6109 56.7859 96.6866 56.7998 96.7572 56.8285C96.8279 56.8571 96.8919 56.8998 96.9455 56.954C96.9991 57.0082 97.0411 57.0727 97.069 57.1437C97.0968 57.2146 97.1099 57.2904 97.1075 57.3666C97.1129 57.4435 97.1018 57.5207 97.075 57.5929C97.0482 57.6652 97.0063 57.7309 96.9521 57.7857C96.8979 57.8405 96.8326 57.8832 96.7607 57.9108C96.6887 57.9384 96.6117 57.9503 96.5347 57.9458H96.0419V62.1618Z" fill="#6DD627"/>
<g clip-path="url(#clip1)">
<path d="M84.7229 98.9593C84.7229 101.67 82.3764 103.363 80.298 103.363C78.2197 103.363 75.7262 102.521 75.7262 98.9593V97.2268H72.9883V98.9593C72.9883 102.904 76.2687 106.113 80.298 106.113C84.3274 106.113 87.6078 102.904 87.6078 98.9593V97.2268H84.7229V98.9593Z" fill="white"/>
<path d="M61.7279 90.5934C61.7279 88.0051 63.9727 85.9002 66.7308 85.9002C69.487 85.9002 71.7318 88.0068 71.7318 90.5934H74.8831C74.8831 86.3731 71.2278 82.9412 66.7308 82.9412C62.2337 82.9412 58.5767 86.3731 58.5767 90.5934H61.7279Z" fill="white"/>
<path d="M87.6957 90.5934C87.6957 88.0051 89.9405 85.9002 92.6967 85.9002C95.4547 85.9002 97.6996 88.0068 97.6996 90.5934H100.851C100.851 86.3731 97.1938 82.9412 92.6967 82.9412C88.1997 82.9412 84.5444 86.3731 84.5444 90.5934H87.6957Z" fill="white"/>
<path fill-rule="evenodd" clip-rule="evenodd" d="M105.935 80.5546V70.383C105.935 66.9552 105.519 64.5769 104.685 63.248C103.852 61.9191 102.116 60.8945 99.4793 60.1741C98.6832 59.9506 98.2852 59.5904 98.2852 59.0936C98.2852 58.423 99.1808 58.0876 100.972 58.0876H103.696C106.657 58.0876 108.902 59.0067 110.432 60.8448C111.962 62.6829 112.727 65.3655 112.727 68.8926V79.6231C112.727 82.107 112.994 84.0196 113.529 85.3609C114.064 86.7022 115.053 87.9566 116.496 89.124C116.919 89.4718 117.13 89.7574 117.13 89.981C117.13 90.2045 116.919 90.4902 116.496 90.8379C115.028 92.0302 114.033 93.2908 113.511 94.6197C112.988 95.9486 112.727 97.8549 112.727 100.339V111.032C112.727 114.584 111.956 117.279 110.413 119.117C108.871 120.955 106.632 121.874 103.696 121.874H100.972C99.8027 121.874 99.0626 121.818 98.7516 121.707C98.4406 121.595 98.2852 121.315 98.2852 120.868C98.2852 120.247 98.6956 119.838 99.5166 119.639L101.009 119.303C104.293 118.558 105.935 115.317 105.935 109.579V99.4074C105.935 95.5573 106.868 92.8375 108.734 91.2478L109.443 90.6516C109.791 90.3536 109.965 90.13 109.965 89.981C109.965 89.8071 109.791 89.5836 109.443 89.3103L108.734 88.7142C106.868 87.1245 105.935 84.4046 105.935 80.5546Z" fill="white"/>
<path fill-rule="evenodd" clip-rule="evenodd" d="M54.1952 80.4669V70.2953C54.1952 66.8675 54.6119 64.4892 55.4453 63.1603C56.2787 61.8314 58.014 60.8068 60.6511 60.0865C61.4472 59.8629 61.8452 59.5028 61.8452 59.006C61.8452 58.3353 60.9496 58 59.1584 58H56.4342C53.4737 58 51.2284 58.919 49.6984 60.7571C48.1684 62.5952 47.4034 65.2778 47.4034 68.805V79.5355C47.4034 82.0194 47.136 83.932 46.6011 85.2733C46.0662 86.6146 45.0773 87.8689 43.6343 89.0364C43.2114 89.3841 42.9999 89.6698 42.9999 89.8933C42.9999 90.1169 43.2114 90.4025 43.6343 90.7503C45.1022 91.9426 46.0973 93.2031 46.6197 94.532C47.1422 95.8609 47.4034 97.7673 47.4034 100.251V110.944C47.4034 114.496 48.1746 117.191 49.7171 119.03C51.2595 120.868 53.4985 121.787 56.4342 121.787H59.1584C60.3276 121.787 61.0678 121.731 61.3787 121.619C61.6897 121.507 61.8452 121.228 61.8452 120.781C61.8452 120.16 61.4347 119.75 60.6137 119.551L59.121 119.216C55.8371 118.471 54.1952 115.229 54.1952 109.491V99.3197C54.1952 95.4697 53.2622 92.7498 51.3964 91.1601L50.6873 90.564C50.339 90.2659 50.1649 90.0424 50.1649 89.8933C50.1649 89.7195 50.339 89.4959 50.6873 89.2227L51.3964 88.6265C53.2622 87.0368 54.1952 84.317 54.1952 80.4669Z" fill="white"/>
</g>
</g>
<defs>
<clipPath id="clip0">
<rect width="160" height="160" fill="white"/>
</clipPath>
<clipPath id="clip1">
<rect width="74.1682" height="64" fill="white" transform="translate(43 58)"/>
</clipPath>
</defs>
</svg>
