<svg xmlns="http://www.w3.org/2000/svg" version="1.1" xmlns:xlink="http://www.w3.org/1999/xlink" xmlns:svgjs="http://svgjs.com/svgjs" viewBox="0 0 160 160" width="160" height="160"><g transform="matrix(1.6,0,0,1.6,0,0)"><path d="M8.953 50.000 A40.000 40.000 0 1 0 88.953 50.000 A40.000 40.000 0 1 0 8.953 50.000 Z" fill="#c7f0ff" stroke="#c7f0ff" stroke-miterlimit="10"></path><path d="M34.939 81.870 A12.783 1.743 0 1 0 60.505 81.870 A12.783 1.743 0 1 0 34.939 81.870 Z" fill="#45413c" opacity=".15"></path><path d="M58.181,22.022a1.162,1.162,0,0,0-1.162,1.162v2.324a1.162,1.162,0,0,0,1.162,1.162h9.3v9.3a1.162,1.162,0,0,0,1.162,1.162h2.324a1.162,1.162,0,0,0,1.162-1.162V24.346A2.324,2.324,0,0,0,69.8,22.022Z" fill="#c8ffa1" stroke="#46b000" stroke-linecap="round" stroke-linejoin="round"></path><path d="M36.1,75.478a1.162,1.162,0,0,0,1.162-1.162V71.992A1.162,1.162,0,0,0,36.1,70.83H26.8v-9.3a1.162,1.162,0,0,0-1.162-1.162H23.318a1.163,1.163,0,0,0-1.163,1.162V73.154a2.324,2.324,0,0,0,2.325,2.324Z" fill="#c8ffa1" stroke="#46b000" stroke-linecap="round" stroke-linejoin="round"></path><path d="M58.181,75.478a1.162,1.162,0,0,1-1.162-1.162V71.992a1.162,1.162,0,0,1,1.162-1.162h9.3v-9.3a1.162,1.162,0,0,1,1.162-1.162h2.324a1.162,1.162,0,0,1,1.162,1.162V73.154A2.324,2.324,0,0,1,69.8,75.478Z" fill="#c8ffa1" stroke="#46b000" stroke-linecap="round" stroke-linejoin="round"></path><path d="M36.1,22.022a1.162,1.162,0,0,1,1.162,1.162v2.324A1.162,1.162,0,0,1,36.1,26.67H26.8v9.3a1.162,1.162,0,0,1-1.162,1.162H23.318a1.163,1.163,0,0,1-1.163-1.162V24.346a2.324,2.324,0,0,1,2.325-2.324Z" fill="#c8ffa1" stroke="#46b000" stroke-linecap="round" stroke-linejoin="round"></path><path d="M59.269,66.92a1,1,0,0,0,.8-1.595,16.513,16.513,0,0,0-12.932-6.609,16.511,16.511,0,0,0-12.932,6.609,1,1,0,0,0,.8,1.595Z" fill="#ffffff" stroke="#45413c" stroke-linecap="round" stroke-linejoin="round"></path><path d="M51.372,59.36a1,1,0,0,1-.731-.963V53.705h-7V58.4a1,1,0,0,1-.73.964q-.394.109-.775.237a5.023,5.023,0,0,0,10.01,0Q51.765,59.47,51.372,59.36Z" fill="#ffcebf" stroke="#45413c" stroke-linecap="round" stroke-linejoin="round"></path><path d="M59.183,47.2a2.058,2.058,0,0,0-1.67-2V43.858A10.328,10.328,0,0,0,47.141,33.835a9.732,9.732,0,0,0-9.675,10.023V45.2a2.046,2.046,0,0,0,.211,4.05,9.643,9.643,0,0,0,9.464,7.97A10.41,10.41,0,0,0,57.3,49.246,2.069,2.069,0,0,0,59.183,47.2Z" fill="#ffcebf" stroke="#45413c" stroke-linecap="round" stroke-linejoin="round"></path><path d="M40.807 48.452 A1.253 1.253 0 1 0 43.313 48.452 A1.253 1.253 0 1 0 40.807 48.452 Z" fill="#ffb59e"></path><path d="M51.666 48.452 A1.253 1.253 0 1 0 54.172 48.452 A1.253 1.253 0 1 0 51.666 48.452 Z" fill="#ffb59e"></path><path d="M44.635,51.452a4.515,4.515,0,0,0,5.011,0" fill="none" stroke="#45413c" stroke-linecap="round" stroke-linejoin="round"></path><path d="M42.478 45.181 A1.253 1.253 0 1 0 44.984 45.181 A1.253 1.253 0 1 0 42.478 45.181 Z" fill="#45413c"></path><path d="M49.995 45.181 A1.253 1.253 0 1 0 52.501 45.181 A1.253 1.253 0 1 0 49.995 45.181 Z" fill="#45413c"></path><path d="M47.166,30.162c-6.034.183-10.683,5.446-10.683,11.482V43.5a.834.834,0,0,0,1.151.774c1.616-.656,4.36-2.2,4.36-5.119,3.99,3.87,10.6,3.647,15.2,2.418a1.685,1.685,0,0,0,1.238-1.848A11.026,11.026,0,0,0,47.166,30.162Z" fill="#ffdf3d"></path><path d="M47.166,34.312A11.019,11.019,0,0,1,57.76,41.3a1.683,1.683,0,0,0,.677-1.578,11.026,11.026,0,0,0-11.271-9.559c-6.034.183-10.683,5.446-10.683,11.482V43.5a.822.822,0,0,0,.143.471A11.252,11.252,0,0,1,47.166,34.312Z" fill="#ffef9e"></path><path d="M47.166,30.162c-6.034.183-10.683,5.446-10.683,11.482V43.5a.834.834,0,0,0,1.151.774c1.616-.656,4.36-2.2,4.36-5.119,3.99,3.87,10.6,3.647,15.2,2.418a1.685,1.685,0,0,0,1.238-1.848A11.026,11.026,0,0,0,47.166,30.162Z" fill="none" stroke="#45413c" stroke-linecap="round" stroke-linejoin="round"></path><path d="M60.177 67.344 A15.435 15.435 0 1 0 91.047 67.344 A15.435 15.435 0 1 0 60.177 67.344 Z" fill="#c7f0ff"></path><path d="M90.771,70.264a15.435,15.435,0,1,0-30.318,0,15.426,15.426,0,0,1,30.318,0Z" fill="#ffffff"></path><path d="M60.177 67.344 A15.435 15.435 0 1 0 91.047 67.344 A15.435 15.435 0 1 0 60.177 67.344 Z" fill="none" stroke="#45413c" stroke-linecap="round" stroke-linejoin="round"></path><path d="M72.4,75.387a2.229,2.229,0,0,1-1.584-.656l-4.481-4.48a2.24,2.24,0,0,1,3.168-3.168l2.9,2.9,9.12-9.121a2.24,2.24,0,1,1,3.168,3.168l-10.7,10.7A2.228,2.228,0,0,1,72.4,75.387Z" fill="#6dd627" stroke="#46b000" stroke-linecap="round" stroke-linejoin="round"></path></g></svg>