<svg viewBox="0 0 48 48" height="48" width="48" xmlns="http://www.w3.org/2000/svg"><g transform="matrix(0.48,0,0,0.48,0,0)"><path d="M10.000 50.000 A40.000 40.000 0 1 0 90.000 50.000 A40.000 40.000 0 1 0 10.000 50.000 Z" fill="#C7F0FF" stroke="#C7F0FF"></path><path d="M31.111 83.583 A18.889 2.361 0 1 0 68.889 83.583 A18.889 2.361 0 1 0 31.111 83.583 Z" fill="#45413c" opacity=".15"></path><path d="M16.000 50.056 A34.000 34.000 0 1 0 84.000 50.056 A34.000 34.000 0 1 0 16.000 50.056 Z" fill="#e0e0e0"></path><path d="M50,19.833A34,34,0,0,1,83.948,51.944Q84,51.007,84,50.056a34,34,0,0,0-68,0q0,.95.052,1.888A34,34,0,0,1,50,19.833Z" fill="#ffffff"></path><path d="M16.000 50.056 A34.000 34.000 0 1 0 84.000 50.056 A34.000 34.000 0 1 0 16.000 50.056 Z" fill="none" stroke="#45413c" stroke-linecap="round" stroke-linejoin="round"></path><path d="M19.778 50.056 A30.222 30.222 0 1 0 80.222 50.056 A30.222 30.222 0 1 0 19.778 50.056 Z" fill="#525252"></path><path d="M50,23.139A30.223,30.223,0,0,1,80.177,51.708q.045-.82.045-1.652a30.222,30.222,0,1,0-60.444,0q0,.831.045,1.652A30.223,30.223,0,0,1,50,23.139Z" fill="#656769"></path><path d="M19.778 50.056 A30.222 30.222 0 1 0 80.222 50.056 A30.222 30.222 0 1 0 19.778 50.056 Z" fill="none" stroke="#45413c" stroke-linecap="round" stroke-linejoin="round"></path><path d="M29.222 50.056 A20.778 20.778 0 1 0 70.778 50.056 A20.778 20.778 0 1 0 29.222 50.056 Z" fill="#ff8a14"></path><path d="M50,29.278a20.778,20.778,0,0,0-14.692,35.47L64.692,35.363A20.711,20.711,0,0,0,50,29.278Z" fill="#ffaa54"></path><path d="M29.222 50.056 A20.778 20.778 0 1 0 70.778 50.056 A20.778 20.778 0 1 0 29.222 50.056 Z" fill="none" stroke="#45413c" stroke-linecap="round" stroke-linejoin="round"></path><path d="M50,29.278A20.78,20.78,0,0,0,39.609,68.052l1.9-3.3a.945.945,0,0,0-.3-1.262,16.056,16.056,0,1,1,17.576,0,.945.945,0,0,0-.3,1.262l1.9,3.3A20.78,20.78,0,0,0,50,29.278Z" fill="#ffe8d1"></path><path d="M50,31.586A20.78,20.78,0,0,1,70.746,51.208c.021-.381.032-.766.032-1.152a20.778,20.778,0,0,0-41.556,0c0,.386.011.771.032,1.152A20.78,20.78,0,0,1,50,31.586Z" fill="#fff5eb"></path><path d="M50,29.278V34a16.1,16.1,0,0,0-7.15,1.676l-2.1-4.229A20.831,20.831,0,0,1,50,29.278Z" fill="#ffffff"></path><path d="M50,29.278A20.78,20.78,0,0,0,39.609,68.052l1.9-3.3a.945.945,0,0,0-.3-1.262,16.056,16.056,0,1,1,17.576,0,.945.945,0,0,0-.3,1.262l1.9,3.3A20.78,20.78,0,0,0,50,29.278Z" fill="none" stroke="#45413c" stroke-linecap="round" stroke-linejoin="round"></path><path d="M50 29.278L50 36.833" fill="none" stroke="#45413c" stroke-linecap="round" stroke-linejoin="round"></path><path d="M50 29.278L50 36.857" fill="none" stroke="#45413c" stroke-linecap="round" stroke-linejoin="round"></path><path d="M40.746 31.447L42.85 35.676" fill="none" stroke="#45413c" stroke-linecap="round" stroke-linejoin="round"></path><path d="M49.136,55.26a.472.472,0,1,1,0,.934H44.418c-.4,0-.538-.2-.538-.4a1.046,1.046,0,0,1,.269-.624l3.272-4.518a3.726,3.726,0,0,0,.864-1.97c0-1.246-.623-1.728-1.615-1.728-1.2,0-1.9.807-1.9,2.323a.465.465,0,0,1-.5.51c-.325,0-.524-.17-.524-.679a2.93,2.93,0,0,1,2.961-3.089A2.452,2.452,0,0,1,49.39,48.6a3.871,3.871,0,0,1-.963,2.323L45.254,55.26Z" fill="#45413c" stroke="#45413c" stroke-linecap="round" stroke-linejoin="round"></path><path d="M51.715,47.043a.472.472,0,1,1,0-.935h1.769a.492.492,0,0,1,.539.468v9.052c0,.425-.184.651-.51.651s-.51-.226-.51-.651V47.043Z" fill="#45413c" stroke="#45413c" stroke-linecap="round" stroke-linejoin="round"></path><path d="M55.194,41.083a.472.472,0,0,1-.472.473H45.278a.473.473,0,0,1,0-.945h9.444A.472.472,0,0,1,55.194,41.083Z" fill="#ffffff" stroke="#ffffff" stroke-linecap="round" stroke-linejoin="round"></path><path d="M46.222 22.667 L53.778 22.667 L53.778 25.973 L46.222 25.973 Z" fill="#ffffff" stroke="#45413c" stroke-linecap="round" stroke-linejoin="round"></path><path d="M51.456,67.025a2.361,2.361,0,0,1-2.912-3.717c1.026-.8,4.8-.763,4.8-.763S52.483,66.221,51.456,67.025Z" fill="#9ceb60" stroke="#45413c" stroke-linecap="round" stroke-linejoin="round"></path><path d="M50.149 65.268L48.142 66.623" fill="none" stroke="#45413c" stroke-linecap="round" stroke-linejoin="round"></path></g></svg>