<svg width="160" height="160" viewBox="0 0 160 160" fill="none" xmlns="http://www.w3.org/2000/svg">
<path d="M80 160C124.183 160 160 124.183 160 80C160 35.8172 124.183 0 80 0C35.8172 0 0 35.8172 0 80C0 124.183 35.8172 160 80 160Z" fill="#C7F0FF"/>
<g clip-path="url(#clip0)">
<path d="M136 46H24V134H136V46Z" fill="#FFCE56" stroke="#4C241D" stroke-width="1.5" stroke-linecap="round" stroke-linejoin="round"/>
<path d="M34 104H130" stroke="#4C241D" stroke-width="1.5" stroke-linecap="round" stroke-linejoin="round"/>
<path d="M66 134V46" stroke="#4C241D" stroke-width="1.5" stroke-linecap="round" stroke-linejoin="round"/>
<path d="M110 134V46" stroke="#4C241D" stroke-width="1.5" stroke-linecap="round" stroke-linejoin="round"/>
<path d="M99.556 83.6701C98.5881 85.4589 97.1089 86.9184 95.3073 87.8621C93.5057 88.8058 91.4636 89.1909 89.442 88.9681C88.3 88.9787 87.1671 88.7642 86.108 88.3369C85.049 87.9096 84.0844 87.2779 83.2695 86.4778C82.4545 85.6777 81.8052 84.7249 81.3585 83.6739C80.9118 82.6228 80.6765 81.4941 80.666 80.3521C80.6977 76.9856 82.0652 73.7695 84.4678 71.4111C86.8705 69.0527 90.1115 67.7452 93.478 67.7761H94.546C98.2932 67.742 101.901 69.1978 104.574 71.8233C107.248 74.4488 108.77 78.0289 108.804 81.7761V86.7001C108.786 88.7938 108.356 90.8635 107.537 92.7908C106.719 94.7181 105.529 96.4653 104.036 97.9326C102.542 99.3999 100.774 100.558 98.8323 101.342C96.8907 102.126 94.8137 102.519 92.72 102.5V102.5C89.2838 102.532 85.8756 101.879 82.6947 100.579C79.5139 99.2788 76.6242 97.3574 74.1946 94.9273C71.765 92.4971 69.8443 89.607 68.5447 86.4258C67.2452 83.2446 66.5929 79.8363 66.626 76.4001L66.662 74.4641C66.8707 66.9552 70.0176 59.8279 75.426 54.6148C80.8344 49.4016 88.0724 46.5188 95.584 46.5861V46.5861C105.846 46.4918 115.724 50.4774 123.048 57.6663C130.371 64.8552 134.538 74.6585 134.634 84.9201V87.2001C134.515 99.7283 129.426 111.696 120.484 120.473C111.543 129.249 99.4822 134.115 86.954 134V134C52.186 134 24 106.332 24 72.2001V49.2341" stroke="#4C241D" stroke-width="1.5" stroke-linecap="round" stroke-linejoin="round"/>
<path d="M124 18V24" stroke="#4C241D" stroke-width="1.5" stroke-linecap="round" stroke-linejoin="round"/>
<path d="M124 32V38" stroke="#4C241D" stroke-width="1.5" stroke-linecap="round" stroke-linejoin="round"/>
<path d="M120 28H114" stroke="#4C241D" stroke-width="1.5" stroke-linecap="round" stroke-linejoin="round"/>
<path d="M134 28H128" stroke="#4C241D" stroke-width="1.5" stroke-linecap="round" stroke-linejoin="round"/>
<path d="M31 32C33.7614 32 36 29.7614 36 27C36 24.2386 33.7614 22 31 22C28.2386 22 26 24.2386 26 27C26 29.7614 28.2386 32 31 32Z" stroke="#4C241D" stroke-width="1.5" stroke-linecap="round" stroke-linejoin="round"/>
<path d="M94 22C95.1046 22 96 21.1046 96 20C96 18.8954 95.1046 18 94 18C92.8954 18 92 18.8954 92 20C92 21.1046 92.8954 22 94 22Z" fill="#4C241D"/>
<path d="M54 36C55.1046 36 56 35.1046 56 34C56 32.8954 55.1046 32 54 32C52.8954 32 52 32.8954 52 34C52 35.1046 52.8954 36 54 36Z" fill="#4C241D"/>
</g>
<defs>
<clipPath id="clip0">
<rect width="128" height="128" fill="white" transform="translate(8 12)"/>
</clipPath>
</defs>
</svg>
