<svg width="160" height="160" viewBox="0 0 160 160" fill="none" xmlns="http://www.w3.org/2000/svg">
<circle cx="80" cy="80" r="80" fill="#C7F0FF"/>
<path d="M62.7705 140.962C62.7705 141.768 63.0902 142.54 63.6593 143.109C64.2284 143.679 65.0004 143.999 65.8055 144H153.842C154.647 144 155.42 143.68 155.99 143.11C156.559 142.541 156.879 141.768 156.879 140.962V42.3035L131.074 16.498H65.8055C65.0004 16.4987 64.2284 16.8191 63.6593 17.3887C63.0902 17.9582 62.7705 18.7305 62.7705 19.5357V140.962Z" fill="white" stroke="#45413C" stroke-width="1.5" stroke-linecap="round" stroke-linejoin="round"/>
<path d="M156.88 42.3035H133.909C133.157 42.3035 132.436 42.0049 131.905 41.4734C131.373 40.9419 131.075 40.2211 131.075 39.4694V16.498L156.88 42.3035Z" fill="white" stroke="#45413C" stroke-width="1.5" stroke-linecap="round" stroke-linejoin="round"/>
<path d="M117.703 61.9402H139.188" stroke="#45413C" stroke-width="1.5" stroke-linecap="round" stroke-linejoin="round"/>
<path d="M112.981 81.2637H139.189" stroke="#45413C" stroke-width="1.5" stroke-linecap="round" stroke-linejoin="round"/>
<path d="M78.1812 100.587H139.188" stroke="#45413C" stroke-width="1.5" stroke-linecap="round" stroke-linejoin="round"/>
<path d="M78.1812 119.91H139.188" stroke="#45413C" stroke-width="1.5" stroke-linecap="round" stroke-linejoin="round"/>
<path d="M83.1108 81.0452H100.445" stroke="#009FD9" stroke-width="1.5" stroke-linecap="round" stroke-linejoin="round"/>
<path d="M91.7783 81.0447V46.3789" stroke="#009FD9" stroke-width="1.5" stroke-linecap="round" stroke-linejoin="round"/>
<path d="M105.934 52.8092V49.2022C105.934 48.8301 105.861 48.4615 105.718 48.1177C105.576 47.7738 105.367 47.4614 105.104 47.1982C104.841 46.9351 104.528 46.7263 104.184 46.5839C103.841 46.4415 103.472 46.3682 103.1 46.3682H80.4532C80.081 46.3682 79.7125 46.4415 79.3686 46.5839C79.0248 46.7263 78.7124 46.9351 78.4492 47.1982C78.186 47.4614 77.9773 47.7738 77.8348 48.1177C77.6924 48.4615 77.6191 48.8301 77.6191 49.2022L76.604 54.4736" stroke="#009FD9" stroke-width="1.5" stroke-linecap="round" stroke-linejoin="round"/>
<path d="M4 138.023H41.3541V103.159H61.2763L38.8638 63.5392V63.3151V35.9221H4" fill="#EFCB9A"/>
<path d="M4 16H66.5058C69.1143 16.0341 71.6025 17.1025 73.4236 18.9703C75.2448 20.8381 76.2498 23.3526 76.2179 25.9611C76.2498 28.5696 75.2448 31.084 73.4236 32.9519C71.6025 34.8197 69.1143 35.888 66.5058 35.9222H4" fill="#FECD0D"/>
<path d="M21.3974 63.3153C18.6291 63.3848 15.916 62.5338 13.6834 60.8956C11.4508 59.2574 9.82487 56.9247 9.06055 54.2631L13.8817 53.018C14.3859 54.6014 15.3927 55.9772 16.7495 56.9367C18.1062 57.8962 19.7389 58.387 21.3998 58.3347C23.0978 58.3978 24.7674 57.8871 26.1395 56.885C27.5116 55.8829 28.5062 54.4478 28.9628 52.8113L33.8238 53.897C33.116 56.637 31.5038 59.0578 29.2484 60.7671C26.9931 62.4765 24.2267 63.3744 21.3974 63.3153Z" fill="#565151"/>
<path d="M41.3543 113.121H21.4321V118.101H41.3543V113.121Z" fill="#565151"/>
</svg>
