<svg width="160" height="160" viewBox="0 0 160 160" fill="none" xmlns="http://www.w3.org/2000/svg">
<path d="M16 80C16 96.9739 22.7428 113.253 34.7452 125.255C46.7475 137.257 63.0261 144 80 144C96.9739 144 113.253 137.257 125.255 125.255C137.257 113.253 144 96.9739 144 80C144 63.0261 137.257 46.7475 125.255 34.7452C113.253 22.7428 96.9739 16 80 16C63.0261 16 46.7475 22.7428 34.7452 34.7452C22.7428 46.7475 16 63.0261 16 80V80Z" fill="#CDF2FF"/>
<path d="M16.8622 74V38.792H40.2442V45.488H24.8002V53.642H37.9762V60.338H24.8002V74H16.8622ZM61.2831 74V53.426H50.5371V47.216H69.2211V74H61.2831ZM64.9011 43.004C63.3531 43.004 62.0751 42.572 61.0671 41.708C60.0951 40.844 59.6091 39.674 59.6091 38.198C59.6091 36.722 60.0951 35.534 61.0671 34.634C62.0751 33.698 63.3531 33.23 64.9011 33.23C66.4491 33.23 67.7091 33.698 68.6811 34.634C69.6891 35.534 70.1931 36.722 70.1931 38.198C70.1931 39.674 69.6891 40.844 68.6811 41.708C67.7091 42.572 66.4491 43.004 64.9011 43.004ZM85.13 74V69.734L99.116 53.426H86.804V47.216H110.132V51.428L96.092 67.79H110.51V74H85.13ZM120.209 74V69.734L134.195 53.426H121.883V47.216H145.211V51.428L131.171 67.79H145.589V74H120.209Z" fill="url(#paint0_linear)"/>
<path d="M15.1882 124V88.792H27.0142C28.8502 88.792 30.5422 88.936 32.0902 89.224C33.6742 89.476 35.0422 89.944 36.1942 90.628C37.3462 91.312 38.2462 92.212 38.8942 93.328C39.5782 94.444 39.9202 95.848 39.9202 97.54C39.9202 98.332 39.7942 99.124 39.5422 99.916C39.3262 100.708 38.9662 101.446 38.4622 102.13C37.9582 102.814 37.3282 103.426 36.5722 103.966C35.8162 104.506 34.9162 104.902 33.8722 105.154V105.37C36.3922 105.838 38.3002 106.738 39.5962 108.07C40.8922 109.402 41.5402 111.256 41.5402 113.632C41.5402 115.432 41.1982 116.98 40.5142 118.276C39.8302 119.572 38.8762 120.652 37.6522 121.516C36.4282 122.344 34.9882 122.974 33.3322 123.406C31.7122 123.802 29.9482 124 28.0402 124H15.1882ZM23.1262 102.94H26.6362C28.5802 102.94 29.9842 102.562 30.8482 101.806C31.7122 101.05 32.1442 99.988 32.1442 98.62C32.1442 97.324 31.6942 96.406 30.7942 95.866C29.9302 95.29 28.5622 95.002 26.6902 95.002H23.1262V102.94ZM23.1262 117.79H27.3922C31.6402 117.79 33.7642 116.206 33.7642 113.038C33.7642 111.49 33.2422 110.374 32.1982 109.69C31.1902 109.006 29.5882 108.664 27.3922 108.664H23.1262V117.79ZM58.3131 124.648C55.2531 124.648 53.0391 123.676 51.6711 121.732C50.3031 119.788 49.6191 117.124 49.6191 113.74V97.216H57.5571V112.714C57.5571 114.514 57.8271 115.828 58.3671 116.656C58.9071 117.484 59.9331 117.898 61.4451 117.898C62.4531 117.898 63.3351 117.682 64.0911 117.25C64.8831 116.818 65.7471 116.008 66.6831 114.82V97.216H74.6211V124H68.1411L67.5471 120.166H67.3311C66.1431 121.534 64.8291 122.632 63.3891 123.46C61.9491 124.252 60.2571 124.648 58.3131 124.648ZM85.13 124V119.734L99.116 103.426H86.804V97.216H110.132V101.428L96.092 117.79H110.51V124H85.13ZM120.209 124V119.734L134.195 103.426H121.883V97.216H145.211V101.428L131.171 117.79H145.589V124H120.209Z" fill="url(#paint1_linear)"/>
<defs>
<linearGradient id="paint0_linear" x1="80" y1="9" x2="80" y2="101" gradientUnits="userSpaceOnUse">
<stop stop-color="#2200FF"/>
<stop offset="1" stop-color="#9E00FF"/>
</linearGradient>
<linearGradient id="paint1_linear" x1="80" y1="59" x2="80" y2="151" gradientUnits="userSpaceOnUse">
<stop stop-color="#2200FF"/>
<stop offset="1" stop-color="#9E00FF"/>
</linearGradient>
</defs>
</svg>
