<svg width="160" height="160" fill="none" xmlns="http://www.w3.org/2000/svg">
  <path d="M16 80c0 16.9739 6.7428 33.253 18.7452 45.255C46.7475 137.257 63.0261 144 80 144c16.9739 0 33.253-6.743 45.255-18.745C137.257 113.253 144 96.9739 144 80c0-16.9739-6.743-33.2525-18.745-45.2548C113.253 22.7428 96.9739 16 80 16c-16.9739 0-33.2525 6.7428-45.2548 18.7452C22.7428 46.7475 16 63.0261 16 80v0z" fill="#C7F0FF" stroke="#C7F0FF" stroke-width="1.6" stroke-miterlimit="10"/>
  <path fill-rule="evenodd" clip-rule="evenodd" d="M136.485 70.303v19.394c0 .8659-.574 1.6269-1.407 1.8647L80.7752 107.077a1.9487 1.9487 0 01-1.0656 0l-54.303-15.5153A1.9392 1.9392 0 0124 89.697V70.303c0-.7984.4689-1.5968 1.4066-1.8647l54.303-15.5152a1.9393 1.9393 0 011.0656 0l54.3028 15.5152c.938.2679 1.407 1.0663 1.407 1.8647zm-103.4861 0l47.2435 13.4982L127.486 70.303 80.2424 56.8049 32.9989 70.303zM78.303 87.2811l-50.4242-14.407v15.36L78.303 102.641V87.2811zm3.8788 0v15.3599l50.4242-14.4069v-15.36l-50.4242 14.407zm0 36.1889v18.591c0 2.585-3.8788 2.585-3.8788 0V123.47l-6.5467 6.547c-.7574.757-1.9853.757-2.7427 0-.7574-.758-.7574-1.986 0-2.743l9.8575-9.857c.7574-.758 1.9853-.758 2.7427 0l9.6969 9.696c.7574.758.7574 1.986 0 2.743-.7574.758-1.9853.758-2.7426 0l-6.3863-6.386zM78.303 36.53V17.9394c0-1.0711.8683-1.9394 1.9394-1.9394s1.9394.8683 1.9394 1.9394V36.53l6.3863-6.3862c.7573-.7574 1.9852-.7574 2.7426 0 .7574.7574.7574 1.9853 0 2.7427l-9.6969 9.697c-.7574.7574-1.9853.7574-2.7427 0l-9.8575-9.8575c-.7574-.7574-.7574-1.9853 0-2.7427.7574-.7574 1.9853-.7574 2.7427 0L78.303 36.53z" fill="url(#paint0_linear)"/>
  <defs>
    <linearGradient id="paint0_linear" x1="80.2424" y1="16" x2="80.2424" y2="144" gradientUnits="userSpaceOnUse">
      <stop stop-color="#20F"/>
      <stop offset="1" stop-color="#9E00FF"/>
    </linearGradient>
  </defs>
</svg>
