<svg xmlns="http://www.w3.org/2000/svg" width="160" height="160" viewBox="0 0 160 160"><path fill="#c7f0ff" d="M144 86.438a64 64 0 1 0-122.298 26.4h116.596a63.7 63.7 0 0 0 5.702-26.4" style="stroke-width:1.6;fill:#94e2ff;fill-opacity:1"/><path fill="#ccf7ad" d="M21.702 112.838a64 64 0 0 0 116.596 0z" style="stroke-width:1.6;fill:#4c8e1e;fill-opacity:1"/><path d="M77.836 83.562c-6 .59-11.45.5-16.17-.87a21.4 21.4 0 0 1-13.29-10.81l-.06-.13-5.49-11.34a2.36 2.36 0 0 1 1.16-3.17 2.3 2.3 0 0 1 1.12-.24l18.38 1.14h.36c3.43.43 7.19.91 10.59 3.9a21.8 21.8 0 0 1 5.74 8.24 28.6 28.6 0 0 1 2 10.64 2.4 2.4 0 0 1-.12.75c.93-1.39 1.87-2.71 2.82-3.94a50.3 50.3 0 0 1 6.65-7.23c9.24-8.12 23.11-8.77 35.78-9.36 2.93-.13 5.78-.26 8.66-.51a2 2 0 0 1 1 .18 1.94 1.94 0 0 1 .9 2.6c-7 14.38-11.88 24.23-20 30.11-7.82 5.78-18.35 7.48-36.13 5.55v15.61c7.43-10.35 14.7-10.53 26.55-10.81 2.54-.06 5.31-.13 8.47-.32a1.94 1.94 0 0 1 1.86 2.79c-4.84 10-8 16.22-13.33 19.74-5.13 3.36-11.88 4-23.55 2.71v10.75h-3.9v-10.18c-16 1.74-25.72.27-33.06-4.84-7.54-5.25-12.26-14.12-18.6-27.19a2 2 0 0 1 .91-2.6 1.93 1.93 0 0 1 1-.19c2.6.2 5.25.31 8 .41 11.72.47 24.92 1 33.26 8.32 3.9 3.43 6.64 6.28 8.52 9.43v-29.14Z" class="cls-1" style="fill:#2d4a17;fill-rule:evenodd;fill-opacity:1"/><path d="M80.906 119.792a28 28 0 0 1 5.55-3.85 50.2 50.2 0 0 1 14.81-4.84 2.24 2.24 0 0 1 2.58 1.84 2.27 2.27 0 0 1-1.81 2.62 46 46 0 0 0-13.49 4.37 20.84 20.84 0 0 0-7.56 6.47c11.34 1.15 17.9.53 22.56-2.57s7.71-8.73 12-17.65c-2.12.08-4.15.13-6.06.18-13 .31-20.62.5-28.66 13.43zM74.986 126.842a39.2 39.2 0 0 0-9.09-8.79 47.6 47.6 0 0 0-13-6 2.1 2.1 0 1 1 1.26-4 52 52 0 0 1 14.1 6.55 43.8 43.8 0 0 1 10.58 10.4 22.4 22.4 0 0 0-2.26-9.1c-1.73-3.34-4.58-6.37-8.91-10.17-7.84-6.9-21.22-7.43-33.1-7.9-1.75-.07-3.47-.13-5.11-.22 5.74 11.69 10.34 19.72 17.02 24.39 6.36 4.42 14.89 6 28.51 4.86zM78.926 80.512a11.5 11.5 0 0 0-2.66-2.6 19.6 19.6 0 0 0-7.11-2.73 2.324 2.324 0 0 1 1-4.54 24 24 0 0 1 8.74 3.43c-.18-.56-.39-1.12-.61-1.67a20.3 20.3 0 0 0-5.3-7.68c-2.77-2.43-6.32-2.88-9.57-3.29h-.07l-17-1 4.41 9.1a20 20 0 0 0 12.3 10.03c4.51 1.31 9.84 1.45 15.87 1zM80.336 89.532v1.31a30.9 30.9 0 0 1 8.12-8.19c5-3.42 11-5.38 18.06-6.63a2.091 2.091 0 0 1 .72 4.12c-6.53 1.15-12 2.92-16.43 6a27.84 27.84 0 0 0-9 10.34c17 1.7 27.08 0 34.39-5.28s12.14-14.4 18.54-27.52c-1.87.11-3.84.2-5.83.3-12.89.59-27 1.25-35.82 9a49.5 49.5 0 0 0-6.6 7.15 81 81 0 0 0-6.18 9.42z" class="cls-2" style="fill:#7cb142;fill-rule:evenodd"/><path fill="#ed4949" d="m48.943 18.686.028-.029.2-.13c2.219-1.445 5.286-.834 8.45 1.324 2.657 1.809 5.513 4.782 7.958 8.497.02-4.437.793-8.487 2.034-11.461 1.477-3.54 3.716-5.729 6.366-5.729s4.89 2.19 6.366 5.729c1.21 2.9 1.977 6.822 2.033 11.127 2.376-3.594 5.137-6.482 7.721-8.267 3.15-2.179 6.216-2.81 8.446-1.38 2.232 1.433 2.936 4.481 2.267 8.25-.545 3.091-2.026 6.812-4.312 10.476 3.946-1.747 7.837-2.687 10.98-2.794 3.822-.129 6.74.994 7.843 3.403l.185.407v.065c.778 2.316-.303 5.064-2.731 7.693-2.132 2.304-5.382 4.636-9.29 6.486 4.27.661 8.049 1.97 10.745 3.572 3.212 1.91 5.053 4.358 4.796 6.912 0 .06-.016.137-.023.197-.376 2.624-2.856 4.532-6.561 5.495-3.043.79-7.038.996-11.313.445 3.228 2.857 5.7 6.002 7.107 8.814 1.714 3.425 1.907 6.547.176 8.556-1.729 2.006-4.846 2.272-8.482 1.082-2.981-.975-6.456-2.962-9.764-5.741 1.175 4.153 1.559 8.135 1.225 11.257-.409 3.808-1.935 6.542-4.48 7.297l-.286.086h-.044c-2.445.537-5.076-.922-7.394-3.765-1.984-2.434-3.833-5.978-5.115-10.1-1.256 4.132-3.083 7.69-5.05 10.135-2.398 2.984-5.158 4.462-7.704 3.725-2.545-.74-4.089-3.464-4.522-7.273-.354-3.113.005-7.096 1.158-11.264-3.29 2.802-6.75 4.81-9.73 5.807-3.57 1.193-6.645.975-8.405-.93l-.003.002-.085-.1c-1.744-1.996-1.57-5.12.122-8.557 1.383-2.813 3.836-5.97 7.05-8.853-4.275.579-8.268.4-11.31-.372-3.717-.94-6.212-2.835-6.603-5.46l-.023-.157v-.029c-.278-2.552 1.545-5.014 4.748-6.948 2.686-1.62 6.454-2.955 10.715-3.643-3.9-1.818-7.161-4.13-9.312-6.426-2.619-2.8-3.696-5.738-2.61-8.15l.153-.339.037-.036c1.211-2.158 4.015-3.176 7.639-3.075 3.145.086 7.041 1 10.994 2.719-2.309-3.647-3.808-7.353-4.377-10.442-.667-3.634-.054-6.605 1.987-8.108" style="fill-rule:nonzero;stroke-width:.176;fill:#f3f3f3;fill-opacity:1"/><path fill="#fe8893" d="m36.116 39.59-.005.008c-.36.82.385 2.223 1.885 3.826 1.82 1.945 4.666 3.937 8.135 5.548h.024l.365.18.001.003.002-.004c3.638 1.639 7.169 2.506 9.934 2.582 2.203.062 3.749-.31 4.118-1.13.37-.818-.378-2.224-1.883-3.833-1.887-2.015-4.877-4.085-8.524-5.725l-.005-.004c-3.636-1.637-7.167-2.504-9.932-2.58-2.202-.062-3.747.31-4.115 1.13m19.278-16.476c-1.817-1.24-3.318-1.762-4.07-1.278l-.003.002c-.75.487-.88 2.075-.48 4.243.5 2.723 1.893 6.072 4.06 9.407l.005-.003.032.058c2.166 3.321 4.662 5.943 6.95 7.503 1.82 1.24 3.323 1.765 4.074 1.276l.007-.005c.743-.493.87-2.076.472-4.239-.5-2.728-1.897-6.086-4.073-9.426l-.01-.012c-2.168-3.332-4.673-5.965-6.964-7.526m21.3-4.71c-.846-2.03-1.819-3.286-2.715-3.286s-1.869 1.257-2.715 3.286c-1.067 2.556-1.727 6.132-1.727 10.124 0 3.991.66 7.568 1.727 10.123.846 2.03 1.82 3.284 2.715 3.284.896 0 1.87-1.255 2.716-3.284 1.066-2.555 1.726-6.132 1.726-10.123 0-3.992-.66-7.568-1.726-10.124m20.22 7.533c.385-2.176.248-3.761-.504-4.244-.755-.484-2.256.048-4.069 1.303-2.277 1.573-4.764 4.227-6.918 7.584l-.016.031-.004-.001c-2.14 3.34-3.507 6.693-3.99 9.417-.383 2.172-.246 3.761.507 4.242.754.486 2.253-.05 4.066-1.302 2.28-1.576 4.766-4.228 6.92-7.584 2.151-3.35 3.526-6.715 4.008-9.446m12.953 17.253c1.5-1.62 2.24-3.032 1.868-3.847l-.002-.006c-.379-.81-1.93-1.168-4.131-1.093-2.768.095-6.294.983-9.918 2.642l-.102.048c-3.572 1.65-6.508 3.72-8.374 5.74-1.5 1.622-2.24 3.033-1.867 3.848.373.813 1.925 1.174 4.132 1.098 2.769-.095 6.296-.983 9.92-2.643 3.617-1.658 6.59-3.749 8.474-5.787zm1.586 21.518c2.095-.544 3.466-1.313 3.633-2.177l.007-.053c.125-.885-.982-2.026-2.873-3.149-2.38-1.417-5.816-2.573-9.745-3.133l-.033-.005c-3.953-.561-7.59-.41-10.27.287-2.13.553-3.51 1.338-3.64 2.221-.124.892.981 2.033 2.875 3.158 2.386 1.42 5.834 2.578 9.773 3.138 3.955.561 7.59.41 10.273-.287m-10.298 18.959c2.098.686 3.69.772 4.275.093.585-.678.266-2.239-.718-4.21-1.239-2.471-3.51-5.305-6.53-7.91-.008-.005-.042-.024-.034-.031-3.008-2.587-6.138-4.414-8.767-5.275-2.096-.686-3.689-.77-4.273-.091-.585.679-.268 2.238.718 4.21 1.239 2.474 3.518 5.311 6.54 7.92 3.013 2.597 6.151 4.431 8.79 5.294M82.253 94.07c1.39 1.707 2.684 2.636 3.546 2.38h.006c.852-.26 1.424-1.74 1.66-3.927.293-2.758-.09-6.377-1.226-10.2l-.022-.079c-1.134-3.787-2.774-6.999-4.515-9.132-1.39-1.707-2.684-2.635-3.546-2.378h-.004c-.852.259-1.425 1.74-1.66 3.927-.293 2.758.09 6.378 1.224 10.2 1.135 3.82 2.786 7.06 4.537 9.209m-21.525-1.456c.248 2.188.833 3.666 1.692 3.915.86.25 2.145-.69 3.527-2.408 1.72-2.138 3.331-5.338 4.44-9.105l.04-.139c1.108-3.822 1.467-7.444 1.152-10.208-.249-2.182-.83-3.659-1.687-3.912h-.005c-.859-.25-2.145.688-3.527 2.408-1.735 2.156-3.361 5.394-4.47 9.204l-.009.036c-1.109 3.822-1.468 7.444-1.153 10.21m-17.33-12.862c-.972 1.973-1.28 3.53-.698 4.207l.004.005c.591.676 2.18.58 4.272-.118 2.629-.88 5.756-2.735 8.757-5.357l.088-.078c2.957-2.6 5.185-5.42 6.398-7.888.973-1.978 1.281-3.538.693-4.21-.591-.678-2.18-.583-4.271.116-2.626.88-5.75 2.732-8.746 5.347.006.007-.007.01-.017.014-2.998 2.62-5.256 5.472-6.48 7.962M32.905 62.745c.134.886 1.517 1.66 3.647 2.2 2.69.682 6.329.808 10.273.222l.005.002c3.937-.588 7.376-1.767 9.75-3.198 1.886-1.139 2.987-2.286 2.855-3.173-.133-.884-1.519-1.66-3.648-2.198-2.691-.682-6.33-.81-10.275-.224l-.007.002c-3.937.586-7.373 1.763-9.747 3.196-1.885 1.137-2.985 2.286-2.853 3.172m48.398-13.43a10.33 10.33 0 0 0-7.325-3.033c-2.862 0-5.45 1.16-7.325 3.033a10.33 10.33 0 0 0-3.034 7.327c0 2.86 1.16 5.45 3.034 7.325a10.33 10.33 0 0 0 7.325 3.032c2.86 0 5.45-1.158 7.325-3.032a10.33 10.33 0 0 0 3.035-7.325 10.33 10.33 0 0 0-3.035-7.327" style="fill-rule:nonzero;stroke-width:.176;fill:#f1ab08;fill-opacity:1"/></svg>