<svg xmlns="http://www.w3.org/2000/svg" width="160" height="160" viewBox="0 0 160 160"><path fill="#c7f0ff" d="M144 86.438a64 64 0 1 0-122.298 26.4h116.596a63.7 63.7 0 0 0 5.702-26.4" style="stroke-width:1.6"/><path fill="#ccf7ad" d="M21.702 112.838a64 64 0 0 0 116.596 0z" style="stroke-width:1.6"/><path fill="#b3cf5e" d="M49.38 118.63c-6.663-6.549-9.986-15.257-10.03-25.535a3 3 0 0 1 0-.229 2.69 2.69 0 0 1 2.791-2.581c11.386.48 21 3.843 27.783 10.509 3.638 3.576 6.432 8.07 8.214 13.542l.33-1.274c2.663-10.236 5.834-22.428 1.331-32.156-.81-1.746-.192-3.89 1.379-4.79s3.5-.213 4.31 1.532c3.972 8.58 3.409 17.87 1.688 26.613 2.585-4.18 5.803-7.415 9.537-9.776 7.38-4.664 16.642-5.818 26.921-4.044a2.693 2.693 0 0 1 2.202 3.108l-.022.116c-2.018 9.258-6.704 16.465-13.995 21.074-6.887 4.354-16.025 6.305-27.347 5.372a2.7 2.7 0 0 1-1.071-.32c-.523 2.166-.95 4.19-1.185 6.013a27.6 27.6 0 0 0-.064 6.574 28.5 28.5 0 0 0 1.53 6.55c.658 1.822-.139 3.891-1.779 4.622s-3.503-.155-4.16-1.977a36.3 36.3 0 0 1-1.956-8.331 35 35 0 0 1-.196-2.83c-11.454-1.773-20.178-5.853-26.21-11.781" style="stroke-width:.25"/><path fill="#90a44a" d="M123.182 93.096c-3.655 16.753-16.621 26.13-38.488 24.33 5.151-20.707 19.934-27.532 38.488-24.33m-81.146-.125c.031 18.27 11.092 31.117 33.583 34.724a37 37 0 0 1 .257-2.893c.201-1.57.52-3.23.909-4.969-3.49-17.766-16.678-26.1-34.75-26.862" style="stroke-width:.25"/><path fill="#ed4949" d="M73.054 15.883c3.016 0 5.755 1.233 7.74 3.216a10.92 10.92 0 0 1 3.215 7.74v2.525l1.786-1.785a10.93 10.93 0 0 1 7.746-3.2 10.924 10.924 0 0 1 10.946 10.946c0 2.805-1.067 5.614-3.2 7.746l-1.785 1.786h2.525c3.016 0 5.755 1.232 7.74 3.216a10.93 10.93 0 0 1 3.216 7.74c0 3.015-1.232 5.755-3.216 7.739a10.93 10.93 0 0 1-7.74 3.216h-2.525l1.785 1.785a10.92 10.92 0 0 1 3.2 7.747A10.924 10.924 0 0 1 93.54 87.245a10.92 10.92 0 0 1-7.746-3.199l-1.786-1.785v2.525c0 3.015-1.232 5.756-3.216 7.74a10.93 10.93 0 0 1-7.74 3.215 10.92 10.92 0 0 1-7.738-3.216 10.92 10.92 0 0 1-3.216-7.739V82.26l-1.786 1.786a10.92 10.92 0 0 1-7.746 3.2A10.923 10.923 0 0 1 41.62 76.3c0-2.805 1.066-5.614 3.199-7.746l1.786-1.786H44.08a10.93 10.93 0 0 1-7.74-3.216 10.93 10.93 0 0 1-3.215-7.74c0-3.015 1.232-5.755 3.216-7.739a10.93 10.93 0 0 1 7.74-3.216h2.525l-1.786-1.786a10.93 10.93 0 0 1-3.2-7.746c0-9.722 11.828-14.61 18.692-7.747l1.787 1.787v-2.526c0-3.016 1.232-5.756 3.216-7.74a10.92 10.92 0 0 1 7.739-3.216" style="stroke-width:.25"/><path fill="#fe7678" d="M73.054 18.764c4.44 0 8.074 3.634 8.074 8.075v9.48l6.704-6.704c3.14-3.14 8.279-3.14 11.419 0s3.14 8.28 0 11.42l-6.703 6.703h9.48c4.44 0 8.074 3.633 8.074 8.074s-3.634 8.075-8.075 8.075h-9.48l6.704 6.703c3.14 3.14 3.14 8.28 0 11.42s-8.28 3.14-11.42 0l-6.703-6.704v9.48c0 4.441-3.633 8.074-8.074 8.074s-8.075-3.633-8.075-8.074v-9.48l-6.703 6.703c-3.14 3.14-8.279 3.14-11.42 0s-3.14-8.279 0-11.419l6.704-6.703h-9.48c-4.44 0-8.074-3.634-8.074-8.075s3.633-8.074 8.074-8.074h9.48l-6.703-6.703c-3.14-3.14-3.14-8.28 0-11.42s8.279-3.14 11.419 0l6.703 6.704v-9.48c0-4.441 3.634-8.075 8.075-8.075" style="stroke-width:.25"/><path fill="#fe918f" d="M73.054 44.684c3.073 0 5.855 1.246 7.869 3.26a11.1 11.1 0 0 1 3.26 7.868c0 3.073-1.246 5.856-3.26 7.87a11.1 11.1 0 0 1-7.87 3.259 11.1 11.1 0 0 1-7.868-3.26 11.1 11.1 0 0 1-3.26-7.869c0-3.073 1.246-5.855 3.26-7.869a11.1 11.1 0 0 1 7.869-3.259" style="stroke-width:.25"/><path fill="#fef7e5" d="M73.054 47.426a8.386 8.386 0 1 1 0 16.772 8.386 8.386 0 0 1 0-16.772" style="stroke-width:.25"/></svg>