<svg width="160" height="160" fill="none" xmlns="http://www.w3.org/2000/svg">
  <path d="M16 80c0 16.9739 6.7428 33.253 18.7452 45.255C46.7475 137.257 63.0261 144 80 144c16.9739 0 33.253-6.743 45.255-18.745C137.257 113.253 144 96.9739 144 80c0-16.9739-6.743-33.2525-18.745-45.2548C113.253 22.7428 96.9739 16 80 16c-16.9739 0-33.2525 6.7428-45.2548 18.7452C22.7428 46.7475 16 63.0261 16 80v0z" fill="#C7F0FF" stroke="#C7F0FF" stroke-width="1.6" stroke-miterlimit="10"/>
  <path d="M113.064 58.4336l-4.666 4.6672" stroke="#45413C" stroke-width="3.2" stroke-linecap="round" stroke-linejoin="round"/>
  <path d="M106.296 51.2032c0 2.1841.482 4.2788 1.34 5.8232.858 1.5444 2.022 2.412 3.236 2.412 1.214 0 2.377-.8676 3.236-2.412.858-1.5444 1.34-3.6391 1.34-5.8232s-.482-4.2787-1.34-5.8231c-.859-1.5444-2.022-2.4121-3.236-2.4121-1.214 0-2.378.8677-3.236 2.4121-.858 1.5444-1.34 3.639-1.34 5.8231v0z" fill="#fff" stroke="#45413C" stroke-width="1.6" stroke-linecap="round" stroke-linejoin="round"/>
  <path d="M112.059 60.6271c0 1.2137.868 2.3776 2.412 3.2358 1.545.8581 3.639 1.3402 5.823 1.3402 2.184 0 4.279-.4821 5.823-1.3402 1.545-.8582 2.412-2.0221 2.412-3.2358 0-1.2136-.867-2.3775-2.412-3.2357-1.544-.8581-3.639-1.3403-5.823-1.3403-2.184 0-4.278.4822-5.823 1.3403-1.544.8582-2.412 2.0221-2.412 3.2357v0z" fill="#fff" stroke="#45413C" stroke-width="1.6" stroke-linecap="round" stroke-linejoin="round"/>
  <path d="M75.2437 103.018a2.6789 2.6789 0 01-1.3863-.97 2.6846 2.6846 0 01-.5315-1.606v-8.2617H58.7921v8.2617a2.6866 2.6866 0 01-.5326 1.607 2.6869 2.6869 0 01-1.3879.969 32.0335 32.0335 0 00-7.9424 3.602 21.5408 21.5408 0 007.5752 6.236 21.556 21.556 0 009.5546 2.233 21.556 21.556 0 009.5546-2.233 21.5417 21.5417 0 007.5752-6.236 32.063 32.063 0 00-7.9451-3.602v0z" fill="#FFDA8F" stroke="#45413C" stroke-width="1.6" stroke-linecap="round" stroke-linejoin="round"/>
  <path d="M66.0576 115.809l-11.8639-11.864a32.2553 32.2553 0 00-11.2059 7.488c.5182 1 1.1079 1.962 1.7647 2.877a14.0487 14.0487 0 004.5339 3.957 14.0351 14.0351 0 005.7735 1.698 14.0365 14.0365 0 005.9544-.873 14.0423 14.0423 0 005.0433-3.283v0zM77.9242 103.945l-11.8666 11.864a14.0432 14.0432 0 005.0433 3.283 14.0367 14.0367 0 005.9544.873 14.0356 14.0356 0 005.7736-1.698 14.0494 14.0494 0 004.5338-3.957 23.3723 23.3723 0 001.7647-2.877 32.264 32.264 0 00-11.2032-7.488z" fill="#BF8DF2" stroke="#45413C" stroke-width="1.6" stroke-linecap="round" stroke-linejoin="round"/>
  <path d="M73.2075 90.2197a10.728 10.728 0 003.1421 7.5857 10.7276 10.7276 0 007.5857 3.1416 10.7276 10.7276 0 007.5857-3.1416 10.728 10.728 0 000-15.1714 10.728 10.728 0 00-15.1714 0 10.728 10.728 0 00-3.1421 7.5857v0z" fill="#F0F0F0" stroke="#45413C" stroke-width="1.6" stroke-linecap="round" stroke-linejoin="round"/>
  <path d="M91.0879 77.5498a4.408 4.408 0 00-3.575-4.2976v-2.8579a21.4571 21.4571 0 00-6.1982-15.3263 21.4562 21.4562 0 00-23.5221-4.713 21.454 21.454 0 00-11.6245 11.7552 21.4552 21.4552 0 00-1.5636 8.2841v2.8579a4.3785 4.3785 0 00-3.5693 4.5302 4.378 4.378 0 004.0178 4.1375 21.4558 21.4558 0 0021.0043 17.0783 21.4555 21.4555 0 0021.0043-17.0783 4.4238 4.4238 0 004.0263-4.3701v0z" fill="#FFDA8F" stroke="#45413C" stroke-width="1.6" stroke-linecap="round" stroke-linejoin="round"/>
  <path d="M51.7544 80.2277a2.6807 2.6807 0 105.3613.0002 2.6807 2.6807 0 00-5.3613-.0002zM74.9985 80.2277a2.6807 2.6807 0 105.3613-.0001 2.6807 2.6807 0 00-5.3613.0001z" fill="#FFBE3D"/>
  <path d="M75.7233 73.9694a3.043 3.043 0 00-4.2975 0M56.3906 73.9694a3.0434 3.0434 0 014.2976 0M71.4206 88.2721a8.9467 8.9467 0 00-10.7277 0" stroke="#45413C" stroke-width="1.6" stroke-linecap="round" stroke-linejoin="round"/>
  <path d="M91.0585 74.8451S71.5046 56.4462 57.9834 56.0003C54.6313 68.1302 41 74.8451 41 74.8451V63.9884C41 50.9534 52.9956 40 66.0306 40s25.0279 10.9534 25.0279 23.9884v10.8567z" fill="#F0F0F0"/>
  <path d="M66.0306 40C52.9956 40 41 50.9534 41 63.9884v7.1501c0-13.0324 11.9956-23.9858 25.0306-23.9858s25.0279 10.9534 25.0279 23.9858v-7.1501C91.0585 50.9588 79.0629 40 66.0306 40z" fill="#fff"/>
  <path d="M91.0585 74.8451S71.5046 56.4462 57.9834 56.0003C54.6313 68.1302 41 74.8451 41 74.8451V63.9884C41 50.9534 52.9956 40 66.0306 40s25.0279 10.9534 25.0279 23.9884v10.8567z" stroke="#45413C" stroke-width="1.6" stroke-linecap="round" stroke-linejoin="round"/>
</svg>
