<svg xmlns="http://www.w3.org/2000/svg" version="1.1" xmlns:xlink="http://www.w3.org/1999/xlink" xmlns:svgjs="http://svgjs.com/svgjs" viewBox="0 0 160 160" width="160" height="160"><g transform="matrix(1.6,0,0,1.6,0,0)"><path d="M90,50.967a40,40,0,1,0-76.436,16.5H86.436A39.841,39.841,0,0,0,90,50.967Z" fill="#c7f0ff"></path><path d="M13.564,67.467a40,40,0,0,0,72.872,0Z" fill="#c7f0ff"></path><path d="M11 67.467L89 67.467" fill="none" stroke="#45413c" stroke-linecap="round" stroke-linejoin="round"></path><path d="M6.5 67.467L9 67.467" fill="none" stroke="#45413c" stroke-linecap="round" stroke-linejoin="round"></path><path d="M91 67.467L93.5 67.467" fill="none" stroke="#45413c" stroke-linecap="round" stroke-linejoin="round"></path><path d="M49.572 21.225H84.066V54.392H49.572z" fill="#6dd627"></path><path d="M49.572 21.225H84.066V23.539H49.572z" fill="#46b000"></path><path d="M49.572 21.225H84.066V54.392H49.572z" fill="none" stroke="#45413c" stroke-linejoin="round"></path><path d="M55.542 37.809L78.095 37.809" fill="none" stroke="#ffffff" stroke-linecap="round" stroke-linejoin="round"></path><path d="M70.8,37.809a3.981,3.981,0,1,1-3.98-3.98A3.98,3.98,0,0,1,70.8,37.809Z" fill="none" stroke="#ffffff" stroke-linecap="round" stroke-linejoin="round"></path><path d="M73.452,21.225v4.2a1.1,1.1,0,0,1-1.1,1.1H61.288a1.1,1.1,0,0,1-1.1-1.1v-4.2" fill="none" stroke="#ffffff" stroke-linecap="round" stroke-linejoin="round"></path><path d="M60.185,54.393v-4.2a1.1,1.1,0,0,1,1.1-1.1H72.349a1.1,1.1,0,0,1,1.1,1.1v4.2" fill="none" stroke="#ffffff" stroke-linejoin="round"></path><path d="M75.442,31.839a.664.664,0,1,1-.663-.663A.663.663,0,0,1,75.442,31.839Z" fill="#45413c"></path><path d="M71.462,45.769a.664.664,0,1,1-.663-.663A.663.663,0,0,1,71.462,45.769Z" fill="#45413c"></path><path d="M64.165,45.769a.664.664,0,1,1-.663-.663A.663.663,0,0,1,64.165,45.769Z" fill="#45413c"></path><path d="M75.442,40.462a.664.664,0,1,1-.663-.663A.663.663,0,0,1,75.442,40.462Z" fill="#45413c"></path><path d="M72.789,33.829a.664.664,0,1,1-.664-.663A.663.663,0,0,1,72.789,33.829Z" fill="#45413c"></path><path d="M62.175,33.829a.664.664,0,1,1-.663-.663A.663.663,0,0,1,62.175,33.829Z" fill="#45413c"></path><path d="M59.522,40.462a.664.664,0,1,1-.664-.663A.664.664,0,0,1,59.522,40.462Z" fill="#45413c"></path><path d="M59.522,31.839a.664.664,0,1,1-.664-.663A.663.663,0,0,1,59.522,31.839Z" fill="#45413c"></path><path d="M67.482,28.522a.664.664,0,1,1-.663-.663A.663.663,0,0,1,67.482,28.522Z" fill="#45413c"></path><path d="M84.729,18.572H48.908A1.327,1.327,0,0,0,47.581,19.9h0a1.327,1.327,0,0,0,1.327,1.326H84.729A1.327,1.327,0,0,0,86.056,19.9h0A1.327,1.327,0,0,0,84.729,18.572Z" fill="#c0dceb"></path><path d="M48.908,19.9H84.729a1.305,1.305,0,0,1,1.123.663,1.285,1.285,0,0,0,.2-.663,1.327,1.327,0,0,0-1.327-1.327H48.908A1.327,1.327,0,0,0,47.581,19.9a1.285,1.285,0,0,0,.2.663A1.305,1.305,0,0,1,48.908,19.9Z" fill="#c7f0ff"></path><path d="M84.729,18.572H48.908A1.327,1.327,0,0,0,47.581,19.9h0a1.327,1.327,0,0,0,1.327,1.326H84.729A1.327,1.327,0,0,0,86.056,19.9h0A1.327,1.327,0,0,0,84.729,18.572Z" fill="none" stroke="#45413c" stroke-linecap="round" stroke-linejoin="round"></path><path d="M84.729,54.393H48.908a1.327,1.327,0,0,0-1.327,1.326h0a1.327,1.327,0,0,0,1.327,1.327H84.729a1.327,1.327,0,0,0,1.327-1.327h0A1.327,1.327,0,0,0,84.729,54.393Z" fill="#c0dceb"></path><path d="M48.908,55.719H84.729a1.306,1.306,0,0,1,1.123.664,1.288,1.288,0,0,0,.2-.664,1.327,1.327,0,0,0-1.327-1.326H48.908a1.327,1.327,0,0,0-1.327,1.326,1.288,1.288,0,0,0,.2.664A1.306,1.306,0,0,1,48.908,55.719Z" fill="#c7f0ff"></path><path d="M84.729,54.393H48.908a1.327,1.327,0,0,0-1.327,1.326h0a1.327,1.327,0,0,0,1.327,1.327H84.729a1.327,1.327,0,0,0,1.327-1.327h0A1.327,1.327,0,0,0,84.729,54.393Z" fill="none" stroke="#45413c" stroke-linecap="round" stroke-linejoin="round"></path><path d="M59.522 18.572L66.819 12.602 74.115 18.572" fill="none" stroke="#45413c" stroke-linecap="round" stroke-linejoin="round"></path><path d="M68.809,12.6a1.991,1.991,0,1,1-1.99-1.99A1.99,1.99,0,0,1,68.809,12.6Z" fill="#ffe500"></path><path d="M66.819,12.174a1.99,1.99,0,0,1,1.83,1.209,1.991,1.991,0,1,0-3.661,0A1.991,1.991,0,0,1,66.819,12.174Z" fill="#fff48c"></path><path d="M68.809,12.6a1.991,1.991,0,1,1-1.99-1.99A1.99,1.99,0,0,1,68.809,12.6Z" fill="none" stroke="#45413c" stroke-linecap="round" stroke-linejoin="round"></path><path d="M14.400 86.904 A13.978 2.097 0 1 0 42.356 86.904 A13.978 2.097 0 1 0 14.400 86.904 Z" fill="#45413c" opacity=".15"></path><path d="M35.569,72.64a1.38,1.38,0,0,1-.557.119H30.465a1.369,1.369,0,0,1-.8-.28l.86,12.9h5.046Z" fill="#d18660" stroke="#45413c" stroke-linecap="round" stroke-linejoin="round"></path><path d="M29.906 76.123L30.523 85.375 35.569 85.375 35.569 76.123 29.906 76.123z" fill="#ffffff" stroke="#45413c" stroke-linecap="round" stroke-linejoin="round"></path><path d="M23.853,72.759H19.305a1.38,1.38,0,0,1-.557-.119V85.375h5.046l.86-12.9A1.368,1.368,0,0,1,23.853,72.759Z" fill="#d18660" stroke="#45413c" stroke-linecap="round" stroke-linejoin="round"></path><path d="M18.748 76.123L18.748 85.375 23.794 85.375 24.411 76.123 18.748 76.123z" fill="#ffffff" stroke="#45413c" stroke-linecap="round" stroke-linejoin="round"></path><path d="M23.853,72.759a1.4,1.4,0,0,0,1.4-1.323l.154-2.884a1.757,1.757,0,0,1,3.511,0l.155,2.884a1.4,1.4,0,0,0,1.4,1.323h4.547a1.4,1.4,0,0,0,1.4-1.4V60.984h-18.5V71.361a1.4,1.4,0,0,0,1.4,1.4Z" fill="#656769"></path><path d="M17.907 60.984H36.41V64.348H17.907z" fill="#525252"></path><path d="M23.853,72.759a1.4,1.4,0,0,0,1.4-1.323l.154-2.884a1.757,1.757,0,0,1,3.511,0l.155,2.884a1.4,1.4,0,0,0,1.4,1.323h4.547a1.4,1.4,0,0,0,1.4-1.4V60.984h-18.5V71.361a1.4,1.4,0,0,0,1.4,1.4Z" fill="none" stroke="#45413c" stroke-linecap="round" stroke-linejoin="round"></path><path d="M34.728,50.05v1.443A7.566,7.566,0,0,0,42.3,59.06c3.763,0,5.416-2.28,8.091-4.955a2.523,2.523,0,1,0-3.568-3.568c-2.166,2.165-2.9,3.445-4.523,3.445a2.466,2.466,0,0,1-2.524-2.489c0-.519,0-1.443,0-1.443Z" fill="#d18660" stroke="#45413c" stroke-miterlimit="10"></path><path d="M47.87 52.321L63.324 39.958" fill="none" stroke="#45413c" stroke-linecap="round" stroke-linejoin="round"></path><path d="M39.774,48.368a13.457,13.457,0,0,0-26.913,0V50.05h5.046V60.984h18.5V50.05h3.364Z" fill="#ffffff" stroke="#45413c" stroke-linecap="round" stroke-linejoin="round"></path><path d="M17.907,65.189a2.523,2.523,0,1,1-5.046,0V50.05h5.046Z" fill="#d18660" stroke="#45413c" stroke-linecap="round" stroke-linejoin="round"></path><path d="M17.907 50.05L17.907 45.004" fill="#00b8f0" stroke="#45413c" stroke-linecap="round" stroke-linejoin="round"></path><path d="M36.41,50.05h3.364V48.368a13.389,13.389,0,0,0-3.364-8.88Z" fill="#a6fbff" stroke="#45413c" stroke-linecap="round" stroke-linejoin="round"></path><path d="M38.933,86.216c0-3.012-2.943-4.206-5.548-4.206h-2.3a1.4,1.4,0,0,0-1.4,1.4v1.41a1.4,1.4,0,0,0,1.4,1.4Z" fill="#f0f0f0" stroke="#45413c" stroke-linecap="round" stroke-linejoin="round"></path><path d="M27.159,86.216c0-3.012-2.944-4.206-5.548-4.206H19.305a1.4,1.4,0,0,0-1.4,1.4v1.41a1.4,1.4,0,0,0,1.4,1.4Z" fill="#f0f0f0" stroke="#45413c" stroke-linecap="round" stroke-linejoin="round"></path><path d="M18.748 86.1L18.748 87.057" fill="none" stroke="#45413c" stroke-linecap="round" stroke-linejoin="round"></path><path d="M21.271 86.216L21.271 87.057" fill="none" stroke="#45413c" stroke-linecap="round" stroke-linejoin="round"></path><path d="M23.794 86.216L23.794 87.057" fill="none" stroke="#45413c" stroke-linecap="round" stroke-linejoin="round"></path><path d="M26.318 86.216L26.318 87.057" fill="none" stroke="#45413c" stroke-linecap="round" stroke-linejoin="round"></path><path d="M30.523 86.1L30.523 87.057" fill="none" stroke="#45413c" stroke-linecap="round" stroke-linejoin="round"></path><path d="M33.046 86.216L33.046 87.057" fill="none" stroke="#45413c" stroke-linecap="round" stroke-linejoin="round"></path><path d="M35.569 86.216L35.569 87.057" fill="none" stroke="#45413c" stroke-linecap="round" stroke-linejoin="round"></path><path d="M38.092 86.216L38.092 87.057" fill="none" stroke="#45413c" stroke-linecap="round" stroke-linejoin="round"></path><path d="M24.636,35.016a13.319,13.319,0,0,0-3.365.874V60.984h3.365Z" fill="#a6fbff" stroke="#45413c" stroke-linecap="round" stroke-linejoin="round"></path><path d="M33.046,36.712a13.368,13.368,0,0,0-3.364-1.377V60.984h3.364Z" fill="#a6fbff" stroke="#45413c" stroke-linecap="round" stroke-linejoin="round"></path><path d="M30.312,35.517a1,1,0,0,1-.712-.959l0-2.361H24.052l0,2.088a1,1,0,0,1-.776.974c-.086.019-.172.04-.258.061-.167,1.768,1.963,4.178,3.233,5.445a1.3,1.3,0,0,0,1.824.015c1.21-1.177,3.2-3.345,3.25-4.913C30.992,35.735,30.655,35.62,30.312,35.517Z" fill="#d18660" stroke="#45413c" stroke-linecap="round" stroke-linejoin="round" stroke-width="1.009"></path><path d="M17.907,37.873a13.425,13.425,0,0,0-5.046,10.493V50.05h5.046Z" fill="#a6fbff" stroke="#45413c" stroke-linecap="round" stroke-linejoin="round"></path><path d="M27.156,13.522A8.375,8.375,0,0,0,18.781,21.9v1.674c-2.391,0-2.227,4.188.419,4.188l.007,0a8.352,8.352,0,0,0,16.324-2.511V21.9A8.375,8.375,0,0,0,27.156,13.522Z" fill="#d18660" stroke="#45413c" stroke-linecap="round" stroke-linejoin="round"></path><path d="M24.643 23.781 A1.047 1.047 0 1 0 26.737 23.781 A1.047 1.047 0 1 0 24.643 23.781 Z" fill="#45413c"></path><path d="M33.018,23.781a1.047,1.047,0,1,1-1.047-1.047A1.047,1.047,0,0,1,33.018,23.781Z" fill="#45413c"></path><path d="M24.644,27.131a.838.838,0,1,1-.838-.838A.838.838,0,0,1,24.644,27.131Z" fill="#bd704a"></path><path d="M30.934,11.181a2.533,2.533,0,0,1-1.068,2.135c1.4-2.851-3.229-4.283-3.229-4.283,2.148,2.865.35,4.3.35,4.3.673-1.361-1.568-2.063-1.768-2.134.687,1.418-.874,1.919-3.6,3.566a7.145,7.145,0,0,0-3.581,5.73v3.289c1.719-.258,2.149-1.447,2.349-2.75a1.708,1.708,0,0,1,2.006-1.4,17.461,17.461,0,0,0,4.24.415,28.731,28.731,0,0,0,6.566-.77,4.472,4.472,0,0,1,2.328,2.864C35.788,21.034,35.944,13.382,30.934,11.181Z" fill="#614b44" stroke="#45413c" stroke-linecap="round" stroke-linejoin="round"></path><path d="M35.481,26.985s-.993,1.685-1.77,1.328a6.179,6.179,0,0,0-3.195-1.182c-3.749,0-5.493,4.536-11.309.626,0,0-1.829,7.874,7.008,7.874h7.872A2.385,2.385,0,0,0,36.4,33.814h0a2.07,2.07,0,0,0-.442-1.845h0a2.068,2.068,0,0,1-.5-1.373Z" fill="#614b44" stroke="#45413c" stroke-linecap="round" stroke-linejoin="round"></path></g></svg>