<svg width="160" height="160" fill="none" xmlns="http://www.w3.org/2000/svg">
  <path d="M144 89.8576a64.0052 64.0052 0 00-6.254-27.601A63.9968 63.9968 0 0094.7947 27.583a63.9988 63.9988 0 00-53.9576 11.6477 63.9995 63.9995 0 00-24.8236 49.304 64.003 64.003 0 005.6889 27.7233H138.298A63.7534 63.7534 0 00144 89.8576z" fill="#C7F0FF"/>
  <path d="M21.7021 116.258a64.0006 64.0006 0 0058.2977 37.592 64.0006 64.0006 0 0058.2972-37.592H21.7021z" fill="#E8F4FA"/>
  <path d="M17.6001 116.258H142.4M10.3999 116.258h4M145.6 116.258h4" stroke="#45413C" stroke-width="1.6" stroke-linecap="round" stroke-linejoin="round"/>
  <path opacity=".15" d="M50.875 129.763c0 .511 1.242 1.016 3.6551 1.488s5.9501.9 10.4089 1.261c4.4589.362 9.7523.648 15.5781.843 5.8257.196 12.0697.296 18.3755.296 6.3054 0 12.5494-.1 18.3754-.296 5.826-.195 11.119-.481 15.578-.843 4.459-.361 7.996-.789 10.409-1.261 2.413-.472 3.655-.977 3.655-1.488 0-.51-1.242-1.016-3.655-1.488-2.413-.471-5.95-.9-10.409-1.261-4.459-.361-9.752-.647-15.578-.843-5.826-.195-12.07-.296-18.3754-.296-6.3058 0-12.5498.101-18.3755.296-5.8258.196-11.1192.482-15.5781.843-4.4588.361-7.9958.79-10.4089 1.261-2.4131.472-3.6551.978-3.6551 1.488z" fill="#45413C"/>
  <path d="M52.0576 116.31h23.4736a17.2095 17.2095 0 004.5104-6.87 4.3075 4.3075 0 00-2.0804-5.262 4.3058 4.3058 0 00-1.9804-.482H51.608c-.6893 0-1.3687.165-1.9809.481a4.307 4.307 0 00-2.2867 3.235 4.3054 4.3054 0 00.2068 2.028 17.2064 17.2064 0 004.5104 6.87v0zM74.9346 95.4277l9.0537-31.0076 8.2691 2.4144-9.0537 31.0077-8.2691-2.4145z" fill="#fff" stroke="#45413C" stroke-width="1.6" stroke-linecap="round" stroke-linejoin="round"/>
  <path d="M80.8799 75.504h8.6144a6.4611 6.4611 0 006.4608-6.4608v-2.1536a6.4607 6.4607 0 00-6.4608-6.4608h-4.3072a4.3072 4.3072 0 00-4.3072 4.3072v10.768zM79.5278 94.9021l23.2532-4.9045 1.778 8.429-23.2534 4.9044-1.7778-8.4289z" fill="#fff" stroke="#45413C" stroke-width="1.6" stroke-linecap="round" stroke-linejoin="round"/>
  <path d="M108.425 112.837c-.053.141-.136.269-.242.377a1.065 1.065 0 01-.375.245 1.06 1.06 0 01-.442.072 1.0703 1.0703 0 01-.433-.113 11.3066 11.3066 0 01-6.217-10.336 11.31 11.31 0 011.871-5.9927 11.3018 11.3018 0 014.778-4.0711 11.3058 11.3058 0 0111.946 1.6628 11.312 11.312 0 013.485 5.2214c.645 2.0346.702 4.2106.162 6.2756-.038.146-.107.282-.201.4-.095.117-.213.214-.347.283-.134.07-.281.11-.431.119-.151.009-.302-.013-.443-.066l-3.04-1.151c-.241-.09-.441-.264-.564-.49a1.0728 1.0728 0 01-.11-.739 5.9131 5.9131 0 00-.227-3.206 5.9146 5.9146 0 00-1.87-2.6155 5.917 5.917 0 00-2.961-1.2523 5.9171 5.9171 0 00-3.178.4798 5.9165 5.9165 0 00-2.46 2.07c-.613.904-.964 1.96-1.014 3.051a5.9172 5.9172 0 00.729 3.131 5.924 5.924 0 002.258 2.288c.224.126.396.328.484.57.088.241.086.506-.004.747l-1.154 3.04z" fill="#656769"/>
  <path d="M108.425 112.837c-.053.141-.136.269-.242.377a1.065 1.065 0 01-.375.245 1.06 1.06 0 01-.442.072 1.0703 1.0703 0 01-.433-.113 11.3066 11.3066 0 01-6.217-10.336 11.31 11.31 0 011.871-5.9927 11.3018 11.3018 0 014.778-4.0711 11.3058 11.3058 0 0111.946 1.6628 11.312 11.312 0 013.485 5.2214c.645 2.0346.702 4.2106.162 6.2756-.038.146-.107.282-.201.4-.095.117-.213.214-.347.283-.134.07-.281.11-.431.119-.151.009-.302-.013-.443-.066l-3.04-1.151c-.241-.09-.441-.264-.564-.49a1.0728 1.0728 0 01-.11-.739 5.9131 5.9131 0 00-.227-3.206 5.9146 5.9146 0 00-1.87-2.6155 5.917 5.917 0 00-2.961-1.2523 5.9171 5.9171 0 00-3.178.4798 5.9165 5.9165 0 00-2.46 2.07c-.613.904-.964 1.96-1.014 3.051a5.9172 5.9172 0 00.729 3.131 5.924 5.924 0 002.258 2.288c.224.126.396.328.484.57.088.241.086.506-.004.747l-1.154 3.04z" fill="#C0DCEB" stroke="#45413C" stroke-width="1.6" stroke-linecap="round" stroke-linejoin="round"/>
  <path d="M100.328 94.232a6.463 6.463 0 001.892 4.5685 6.4602 6.4602 0 009.137 0 6.4598 6.4598 0 001.893-4.5685 6.4597 6.4597 0 00-1.893-4.5684 6.4593 6.4593 0 00-4.568-1.8924c-1.714 0-3.357.6807-4.569 1.8924a6.463 6.463 0 00-1.892 4.5684v0zM73.4849 98.7136a6.4616 6.4616 0 001.8923 4.5684 6.4588 6.4588 0 004.5685 1.892c1.7135 0 3.3568-.68 4.5684-1.892a6.4608 6.4608 0 10-11.0292-4.5684v0z" fill="#fff" stroke="#45413C" stroke-width="1.6" stroke-linecap="round" stroke-linejoin="round"/>
  <path d="M59.3457 53.3057h8.6144v7.1232h-8.6144v-7.1232z" fill="#DAEDF7"/>
  <path d="M59.3457 53.3057h8.6144v2.816h-8.6144v-2.816z" fill="#C0DCEB"/>
  <path d="M59.3457 53.3057h8.6144v7.1232h-8.6144v-7.1232z" stroke="#45413C" stroke-width="1.6" stroke-linecap="round" stroke-linejoin="round"/>
  <path d="M46.4238 60.4288h34.456v32.3024h-34.456V60.4288z" fill="#fff" stroke="#45413C" stroke-width="1.6" stroke-linecap="round" stroke-linejoin="round"/>
  <path d="M57.1919 92.7329h12.9216v10.9681H57.1919V92.7329z" fill="#DAEDF7"/>
  <path d="M57.1919 92.7329h12.9216v4.5072H57.1919v-4.5072z" fill="#C0DCEB"/>
  <path d="M57.1919 92.7329h12.9216v10.9681H57.1919V92.7329z" stroke="#45413C" stroke-width="1.6" stroke-linecap="round" stroke-linejoin="round"/>
  <path d="M72.2656 75.504a4.305 4.305 0 01-2.6575 3.9793 4.3053 4.3053 0 01-1.6481.3279h-8.6144A4.3072 4.3072 0 0155.04 75.504V60.4288h17.2256V75.504z" fill="#E8F4FA"/>
  <path d="M72.2656 75.504a4.305 4.305 0 01-2.6575 3.9793 4.3053 4.3053 0 01-1.6481.3279h-8.6144A4.3072 4.3072 0 0155.04 75.504V60.4288h17.2256V75.504z" stroke="#45413C" stroke-width="1.6" stroke-linecap="round" stroke-linejoin="round"/>
  <path d="M29.9634 94.5345l5.723-31.7913 8.4781 1.5262-5.723 31.7914-8.4781-1.5263z" fill="#fff" stroke="#45413C" stroke-width="1.6" stroke-linecap="round" stroke-linejoin="round"/>
  <path d="M46.4238 75.504h-8.6144a6.4607 6.4607 0 01-6.4608-6.4608v-2.1536a6.4604 6.4604 0 011.8924-4.5684 6.4604 6.4604 0 014.5684-1.8924h4.3072a4.3072 4.3072 0 014.3072 4.3072v10.768zM35.4604 93.4421l23.7288-1.3083.4743 8.6012-23.7288 1.308-.4743-8.6009z" fill="#fff" stroke="#45413C" stroke-width="1.6" stroke-linecap="round" stroke-linejoin="round"/>
  <path d="M66.5966 112.251a1.0804 1.0804 0 01-.1766.412 1.0742 1.0742 0 01-.329.303c-.13.077-.2745.126-.4244.143a1.0852 1.0852 0 01-.446-.04 11.313 11.313 0 01-5.2382-3.46 11.309 11.309 0 01-2.5847-5.721 11.3054 11.3054 0 0110.8987-12.9135 11.306 11.306 0 0111.5498 12.3345 1.0847 1.0847 0 01-.4278.763 1.0878 1.0878 0 01-.8522.197l-3.2-.64a1.0762 1.0762 0 01-.6362-.391 1.0753 1.0753 0 01-.2294-.71 5.9201 5.9201 0 00-11.2922-2.7225 5.9185 5.9185 0 00-.5009 3.1775 5.9177 5.9177 0 001.2349 2.971 5.921 5.921 0 002.6062 1.886 1.0744 1.0744 0 01.6848 1.222l-.6368 3.189z" fill="#C0DCEB" stroke="#45413C" stroke-width="1.6" stroke-linecap="round" stroke-linejoin="round"/>
  <path d="M56.2944 97.8417a7.3579 7.3579 0 007.3584 7.3583 7.3581 7.3581 0 005.2032-12.5615 7.3583 7.3583 0 00-12.5616 5.2032v0zM28.8335 97.2721a6.4626 6.4626 0 001.8923 4.5689 6.4633 6.4633 0 004.5685 1.892 6.4633 6.4633 0 004.5685-1.892 6.4626 6.4626 0 001.8923-4.5689 6.461 6.461 0 00-11.0293-4.5685 6.461 6.461 0 00-1.8923 4.5685v0z" fill="#fff" stroke="#45413C" stroke-width="1.6" stroke-linecap="round" stroke-linejoin="round"/>
  <path d="M52.1393 53.3056H40.9601a6.3997 6.3997 0 01-6.4-6.4V12.544a6.3997 6.3997 0 016.4-6.4h11.1792v47.1616z" fill="#E8F4FA" stroke="#45413C" stroke-width="1.6" stroke-linecap="round" stroke-linejoin="round"/>
  <path d="M42.8398 6.144h52.664v47.1616h-52.664V6.144z" fill="#00C798"/>
  <path d="M42.8398 6.144h52.664v47.1616h-52.664V6.144z" fill="#009FD9"/>
  <path d="M93.6973 8.6737a7.3477 7.3477 0 00-5.5536-2.5297H50.2013a7.36 7.36 0 00-7.36 7.36v32.44a7.3595 7.3595 0 006.3024 7.2848L93.6973 8.6737z" fill="#00B8F0"/>
  <path d="M42.8398 6.144h52.664v47.1616h-52.664V6.144z" stroke="#45413C" stroke-width="1.6" stroke-linecap="round" stroke-linejoin="round"/>
  <path d="M50.1999 48.704a2.763 2.763 0 01-2.76-2.76V13.5024a2.763 2.763 0 01.8094-1.9506 2.763 2.763 0 011.9506-.8094h37.944a2.7634 2.7634 0 012.76 2.7616v32.4416a2.763 2.763 0 01-2.76 2.76h-37.944v-.0016z" stroke="#4ACFFF" stroke-width="1.6" stroke-linecap="round" stroke-linejoin="round"/>
  <path d="M142.73 125.582c.06.27.059.549-.003.817-.063.269-.185.52-.357.735-.173.215-.392.389-.64.508-.249.119-.521.181-.797.18H76.7056l-.92-8.392h64.1134a1.842 1.842 0 011.797 1.44l1.034 4.712z" fill="#F0F0F0" stroke="#45413C" stroke-width="1.6" stroke-linecap="round" stroke-linejoin="round"/>
  <path d="M76.7053 127.816H58.2045c-.2758 0-.5481-.061-.7968-.18a1.8391 1.8391 0 01-1-2.06l1.0336-4.712a1.8397 1.8397 0 011.7968-1.44h16.5472l.92 8.392z" fill="#BDBEC0" stroke="#45413C" stroke-width="1.6" stroke-linecap="round" stroke-linejoin="round"/>
  <path d="M137.134 116.16a1.8389 1.8389 0 00-.628-1.096c-.332-.28-.752-.433-1.186-.434h-3.69c-.434.001-.854.154-1.186.434-.332.28-.555.668-.628 1.096l-.559 3.266h8.436l-.559-3.266zM124.64 116.16a1.844 1.844 0 00-.628-1.096c-.332-.28-.752-.433-1.186-.434h-3.69c-.434 0-.855.154-1.187.434-.332.28-.554.668-.627 1.096l-.559 3.266h8.435l-.558-3.266zM112.145 116.16a1.8389 1.8389 0 00-.628-1.096c-.332-.28-.752-.433-1.186-.434h-3.691c-.434 0-.855.154-1.186.434-.332.28-.554.668-.627 1.096l-.558 3.266h8.435l-.559-3.266zM99.6512 116.16a1.842 1.842 0 00-.628-1.096 1.846 1.846 0 00-1.1864-.434h-3.6912a1.8396 1.8396 0 00-1.8128 1.53l-.5584 3.266h8.4356l-.5588-3.266zM87.155 116.16a1.8396 1.8396 0 00-1.8128-1.53H81.651a1.8383 1.8383 0 00-1.8112 1.53l-.56 3.264h8.4352l-.56-3.264zM72.2445 116.16a1.8377 1.8377 0 00-.6268-1.096 1.8391 1.8391 0 00-1.186-.434h-3.6912a1.8396 1.8396 0 00-1.8128 1.53l-.56 3.266h8.432l-.5552-3.266z" fill="#fff" stroke="#45413C" stroke-width="1.6" stroke-linecap="round" stroke-linejoin="round"/>
  <path d="M38.8801 40.1809c5.776 60.5141-33.8928 87.6351 33.3792 83.4401" stroke="#45413C" stroke-width="1.6" stroke-linecap="round" stroke-linejoin="round"/>
  <path d="M52.97 21.108c-.336 0-.651-.051-.945-.153-.294-.108-.552-.261-.774-.459-.216-.198-.387-.441-.513-.729s-.189-.615-.189-.981c0-.36.063-.681.189-.963.126-.288.294-.531.504-.729.216-.204.459-.357.729-.459.276-.108.564-.162.864-.162.33 0 .621.054.873.162.252.102.465.246.639.432.174.18.306.399.396.657.09.258.135.54.135.846 0 .102-.006.201-.018.297-.006.09-.015.165-.027.225h-3.249c.06.414.225.72.495.918.27.198.612.297 1.026.297.234 0 .45-.033.648-.099s.396-.156.594-.27l.351.648c-.234.156-.501.282-.801.378-.294.096-.603.144-.927.144zm-.108-3.834c-.306 0-.576.09-.81.27-.228.18-.375.45-.441.81h2.349c-.036-.36-.15-.63-.342-.81-.186-.18-.438-.27-.756-.27zM57.5295 21l-1.764-4.419h1.044l.855 2.295c.084.222.159.444.225.666.072.216.144.438.216.666h.036c.072-.228.141-.45.207-.666.072-.222.15-.444.234-.666l.855-2.295h.99L58.7085 21h-1.179zm5.3785.108c-.216 0-.414-.033-.594-.099-.18-.06-.336-.147-.468-.261a1.1872 1.1872 0 01-.306-.405c-.072-.162-.108-.339-.108-.531 0-.246.057-.462.171-.648.114-.192.294-.354.54-.486.246-.132.561-.24.945-.324.384-.084.849-.144 1.395-.18-.018-.252-.108-.459-.27-.621-.162-.162-.423-.243-.783-.243-.252 0-.501.048-.747.144-.24.09-.474.198-.702.324l-.378-.693c.27-.156.579-.297.927-.423.348-.126.711-.189 1.089-.189.618 0 1.089.165 1.413.495.324.324.486.795.486 1.413V21h-.846l-.081-.549h-.027c-.234.18-.495.336-.783.468-.282.126-.573.189-.873.189zm.315-.81c.222 0 .435-.048.639-.144.21-.102.417-.234.621-.396v-.936c-.396.03-.726.072-.99.126-.264.048-.474.111-.63.189-.156.078-.267.168-.333.27-.066.096-.099.204-.099.324 0 .198.075.342.225.432.156.09.345.135.567.135zm6.5755.81c-.516 0-.909-.15-1.179-.45-.264-.3-.396-.723-.396-1.269v-3.924h-1.476v-.819h2.511v4.797c0 .3.075.513.225.639.156.12.345.18.567.18.234 0 .486-.057.756-.171l.243.765c-.216.084-.414.147-.594.189-.18.042-.399.063-.657.063zm9.8839-3.06c-.258 0-.471-.084-.639-.252-.168-.174-.252-.393-.252-.657s.084-.48.252-.648c.168-.174.381-.261.639-.261s.471.087.639.261c.168.168.252.384.252.648s-.084.483-.252.657c-.168.168-.381.252-.639.252zm0 3.06c-.258 0-.471-.084-.639-.252-.168-.174-.252-.393-.252-.657s.084-.48.252-.648c.168-.174.381-.261.639-.261s.471.087.639.261c.168.168.252.384.252.648s-.084.483-.252.657c-.168.168-.381.252-.639.252zm5.3965-3.06c-.258 0-.471-.084-.639-.252-.168-.174-.252-.393-.252-.657s.084-.48.252-.648c.168-.174.381-.261.639-.261s.471.087.639.261c.168.168.252.384.252.648s-.084.483-.252.657c-.168.168-.381.252-.639.252zm0 3.06c-.258 0-.471-.084-.639-.252-.168-.174-.252-.393-.252-.657s.084-.48.252-.648c.168-.174.381-.261.639-.261s.471.087.639.261c.168.168.252.384.252.648s-.084.483-.252.657c-.168.168-.381.252-.639.252zM52.178 32v-5.004h-1.854v-.882h4.752v.882h-1.854V32h-1.044zm6.1885.108c-.336 0-.651-.051-.945-.153-.294-.108-.552-.261-.774-.459-.216-.198-.387-.441-.513-.729s-.189-.615-.189-.981c0-.36.063-.681.189-.963.126-.288.294-.531.504-.729.216-.204.459-.357.729-.459.276-.108.564-.162.864-.162.33 0 .621.054.873.162.252.102.465.246.639.432.174.18.306.399.396.657.09.258.135.54.135.846 0 .102-.006.201-.018.297-.006.09-.015.165-.027.225h-3.249c.06.414.225.72.495.918.27.198.612.297 1.026.297.234 0 .45-.033.648-.099s.396-.156.594-.27l.351.648c-.234.156-.501.282-.801.378-.294.096-.603.144-.927.144zm-.108-3.834c-.306 0-.576.09-.81.27-.228.18-.375.45-.441.81h2.349c-.036-.36-.15-.63-.342-.81-.186-.18-.438-.27-.756-.27zM61.963 32v-4.419h.855l.09.999h.027c.228-.36.501-.633.819-.819.324-.192.678-.288 1.062-.288.18 0 .333.015.459.045.132.024.264.069.396.135l-.216.873c-.144-.048-.273-.081-.387-.099-.108-.024-.246-.036-.414-.036-.306 0-.6.087-.882.261-.282.174-.537.477-.765.909V32h-1.044zm4.6405 0v-4.419h.801l.081.558h.027c.096-.192.219-.351.369-.477s.354-.189.612-.189c.414 0 .681.246.801.738.102-.216.231-.393.387-.531s.363-.207.621-.207c.312 0 .552.123.72.369.174.24.261.582.261 1.026V32h-.999v-3.06c0-.39-.117-.585-.351-.585-.12 0-.222.048-.306.144-.078.09-.162.228-.252.414V32h-.864v-3.06c0-.192-.027-.336-.081-.432-.054-.102-.144-.153-.27-.153-.12 0-.222.048-.306.144-.078.09-.159.228-.243.414V32h-1.008zm11.0809-2.592v-.756h3.996v.756h-3.996zm5.6125 2.241v-.963l2.547-1.656v-.036l-2.547-1.656v-.963l3.42 2.268v.738l-3.42 2.268zM52.178 43v-5.004h-1.854v-.882h4.752v.882h-1.854V43h-1.044zm6.1885.108c-.336 0-.651-.051-.945-.153-.294-.108-.552-.261-.774-.459-.216-.198-.387-.441-.513-.729s-.189-.615-.189-.981c0-.36.063-.681.189-.963.126-.288.294-.531.504-.729.216-.204.459-.357.729-.459.276-.108.564-.162.864-.162.33 0 .621.054.873.162.252.102.465.246.639.432.174.18.306.399.396.657.09.258.135.54.135.846 0 .102-.006.201-.018.297-.006.09-.015.165-.027.225h-3.249c.06.414.225.72.495.918.27.198.612.297 1.026.297.234 0 .45-.033.648-.099s.396-.156.594-.27l.351.648c-.234.156-.501.282-.801.378-.294.096-.603.144-.927.144zm-.108-3.834c-.306 0-.576.09-.81.27-.228.18-.375.45-.441.81h2.349c-.036-.36-.15-.63-.342-.81-.186-.18-.438-.27-.756-.27zM61.963 43v-4.419h.855l.09.999h.027c.228-.36.501-.633.819-.819.324-.192.678-.288 1.062-.288.18 0 .333.015.459.045.132.024.264.069.396.135l-.216.873c-.144-.048-.273-.081-.387-.099-.108-.024-.246-.036-.414-.036-.306 0-.6.087-.882.261-.282.174-.537.477-.765.909V43h-1.044zm4.6405 0v-4.419h.801l.081.558h.027c.096-.192.219-.351.369-.477s.354-.189.612-.189c.414 0 .681.246.801.738.102-.216.231-.393.387-.531s.363-.207.621-.207c.312 0 .552.123.72.369.174.24.261.582.261 1.026V43h-.999v-3.06c0-.39-.117-.585-.351-.585-.12 0-.222.048-.306.144-.078.09-.162.228-.252.414V43h-.864v-3.06c0-.192-.027-.336-.081-.432-.054-.102-.144-.153-.27-.153-.12 0-.222.048-.306.144-.078.09-.159.228-.243.414V43h-1.008z" fill="#fff"/>
</svg>
