<svg viewBox="0 0 48 48" height="48" width="48" xmlns="http://www.w3.org/2000/svg"><g transform="matrix(0.48,0,0,0.48,0,0)"><path d="M90,50A40,40,0,1,0,13.564,66.5H86.436A39.829,39.829,0,0,0,90,50Z" fill="#C7F0FF"></path><path d="M13.564,66.5a40,40,0,0,0,72.872,0Z" fill="#C7F0FF"></path><path d="M11 66.5L89 66.5" fill="none" stroke="#45413c" stroke-linecap="round" stroke-linejoin="round"></path><path d="M6.5 66.5L9 66.5" fill="none" stroke="#45413c" stroke-linecap="round" stroke-linejoin="round"></path><path d="M91 66.5L93.5 66.5" fill="none" stroke="#45413c" stroke-linecap="round" stroke-linejoin="round"></path><path d="M49.309,51.8h4.908a.868.868,0,0,0,.866-.866,1.965,1.965,0,0,1,.029-.289H59.1a1.965,1.965,0,0,1,.03.289,4.912,4.912,0,0,1-4.908,4.907H49.309a2.021,2.021,0,0,1,0-4.041Z" fill="#d18660" stroke="#45413c" stroke-linecap="round" stroke-linejoin="round"></path><path d="M77.023,48.914a10.97,10.97,0,0,0-21.94,0v1.732H57.97l0,7.506H72.981l.005-7.506h4.037Z" fill="#00f5bc"></path><path d="M66.053,37.944a10.971,10.971,0,0,0-10.97,10.97v1.732h.248a10.967,10.967,0,0,1,21.444,0h.248V48.914A10.971,10.971,0,0,0,66.053,37.944Z" fill="#8cffe4"></path><path d="M77.023,48.914a10.97,10.97,0,0,0-21.94,0v1.732H57.97l0,7.506H72.981l.005-7.506h4.037Z" fill="none" stroke="#45413c" stroke-linecap="round" stroke-linejoin="round"></path><path d="M72.981 50.646L72.981 47.182" fill="none" stroke="#45413c" stroke-linecap="round" stroke-linejoin="round"></path><path d="M57.97 50.646L57.97 47.182" fill="none" stroke="#45413c" stroke-linecap="round" stroke-linejoin="round"></path><path d="M67.208,51.8h4.907a.868.868,0,0,0,.866-.866,1.965,1.965,0,0,1,.03-.289h3.983a1.965,1.965,0,0,1,.029.289,4.912,4.912,0,0,1-4.908,4.907H67.208a2.021,2.021,0,1,1,0-4.041Z" fill="#d18660" stroke="#45413c" stroke-linecap="round" stroke-linejoin="round"></path><path d="M68.538,38.233a1,1,0,0,1-.772-.975l0-2.629H63.262l0,2.948a1,1,0,0,1-.69.95,9.967,9.967,0,0,0-1.005.385,4.023,4.023,0,0,0,7.9-.421Q69.008,38.343,68.538,38.233Z" fill="#d18660" stroke="#45413c" stroke-linecap="round" stroke-linejoin="round" stroke-width="1.009"></path><path d="M65.4,20.924a6.84,6.84,0,0,1,6.841,6.84v.913a1.4,1.4,0,0,1-.144,2.764,6.841,6.841,0,0,1-13.537-1.4v-2.28A6.84,6.84,0,0,1,65.4,20.924Z" fill="#d18660" stroke="#45413c" stroke-linecap="round" stroke-linejoin="round"></path><path d="M65.396 28.619 A0.855 0.855 0 1 0 67.106 28.619 A0.855 0.855 0 1 0 65.396 28.619 Z" fill="#45413c"></path><path d="M60.836 28.619 A0.855 0.855 0 1 0 62.546 28.619 A0.855 0.855 0 1 0 60.836 28.619 Z" fill="#45413c"></path><path d="M67.676 30.899 A0.855 0.855 0 1 0 69.386 30.899 A0.855 0.855 0 1 0 67.676 30.899 Z" fill="#bd704a"></path><path d="M65.966,32.947a3.084,3.084,0,0,1-3.42,0" fill="none" stroke="#45413c" stroke-linecap="round" stroke-linejoin="round"></path><path d="M58.556,26.624c-1.372-.686-.831-4.244.415-4.822l-.892-.713a1.041,1.041,0,0,1,.713-1.875H67.2a5.458,5.458,0,0,1,5.6,5.332v4.116c-4.116,0-4.145-3.237-7.662-4.116-.091.8-1.114,1.552-2.744,2.058a2.016,2.016,0,0,0-2.058-2.058Z" fill="#614b44"></path><path d="M67.2,19.214H58.792a1.041,1.041,0,0,0-.713,1.875l.537.429a1.408,1.408,0,0,1,.176-.024H67.2a5.458,5.458,0,0,1,5.6,5.332v-2.28A5.458,5.458,0,0,0,67.2,19.214Z" fill="#947063"></path><path d="M58.556,26.624c-1.372-.686-.831-4.244.415-4.822l-.892-.713a1.041,1.041,0,0,1,.713-1.875H67.2a5.458,5.458,0,0,1,5.6,5.332v4.116c-4.116,0-4.145-3.237-7.662-4.116-.091.8-1.114,1.552-2.744,2.058a2.016,2.016,0,0,0-2.058-2.058Z" fill="none" stroke="#45413c" stroke-linecap="round" stroke-linejoin="round"></path><path d="M18.132 81.246 A33.487 1.732 0 1 0 85.106 81.246 A33.487 1.732 0 1 0 18.132 81.246 Z" fill="#45413c" opacity=".15"></path><path d="M82.219,58.152h-61.2v19.63a2.309,2.309,0,0,0,2.309,2.31H79.91a2.31,2.31,0,0,0,2.309-2.31Z" fill="#dea47a"></path><path d="M21.019 58.152H82.22V61.039H21.019z" fill="#bf8256"></path><path d="M82.219,58.152h-61.2v19.63a2.309,2.309,0,0,0,2.309,2.31H79.91a2.31,2.31,0,0,0,2.309-2.31Z" fill="none" stroke="#45413c" stroke-linecap="round" stroke-linejoin="round"></path><path d="M27.947 58.152H75.291V80.092H27.947z" fill="#f0d5a8"></path><path d="M27.947 58.152H75.291V61.039H27.947z" fill="#debb7e"></path><path d="M27.947 58.152H75.291V80.092H27.947z" fill="none" stroke="#45413c" stroke-linecap="round" stroke-linejoin="round"></path><path d="M31.411 61.616 L71.827 61.616 L71.827 76.628 L31.411 76.628 Z" fill="#bf8256"></path><path d="M68.363,61.616H34.875a3.464,3.464,0,0,0-3.464,3.464v2.887A3.464,3.464,0,0,1,34.875,64.5H68.363a3.464,3.464,0,0,1,3.464,3.464V65.08A3.464,3.464,0,0,0,68.363,61.616Z" fill="#915e3a"></path><path d="M31.411 61.616 L71.827 61.616 L71.827 76.628 L31.411 76.628 Z" fill="none" stroke="#45413c" stroke-linecap="round" stroke-linejoin="round"></path><path d="M82.219,58.152a1.155,1.155,0,0,0,0-2.31h-61.2a1.155,1.155,0,1,0,0,2.31Z" fill="#bf8256" stroke="#45413c" stroke-linecap="round" stroke-linejoin="round"></path><path d="M36.03,53.533H21.6a2.309,2.309,0,0,0,2.309,2.309H36.03Z" fill="#C7F0FF" stroke="#45413c" stroke-linecap="round" stroke-linejoin="round"></path><path d="M42.958,55.842H36.03V53.533h8.083a.577.577,0,0,1,.578.577h0A1.732,1.732,0,0,1,42.958,55.842Z" fill="#e8f4fa" stroke="#45413c" stroke-linecap="round" stroke-linejoin="round"></path><path d="M32.566,41.986H20.46A1.731,1.731,0,0,0,18.8,44.215l2.8,9.318H36.03Z" fill="#adc4d9"></path><path d="M35.122,42.809,38.34,53.533H36.03L32.566,41.986h1.45A1.154,1.154,0,0,1,35.122,42.809Z" fill="#C7F0FF" stroke="#45413c" stroke-linecap="round" stroke-linejoin="round"></path><path d="M19,44.872H33.432l-.866-2.886H20.46a1.732,1.732,0,0,0-1.66,2.23Z" fill="#C7F0FF"></path><path d="M32.566,41.986H20.46A1.731,1.731,0,0,0,18.8,44.215l2.8,9.318H36.03Z" fill="none" stroke="#45413c" stroke-linecap="round" stroke-linejoin="round"></path><path d="M28.2,47.864a.854.854,0,0,1,.406-.717.881.881,0,0,0-.689-.373c-.293-.03-.572.173-.721.173s-.378-.169-.621-.165a.925.925,0,0,0-.78.473,1.963,1.963,0,0,0,.239,1.9c.158.229.347.486.6.477s.328-.155.617-.155.369.155.621.15.42-.233.577-.463a2.084,2.084,0,0,0,.261-.536A.829.829,0,0,1,28.2,47.864Z" fill="#f0f0f0" stroke="#45413c" stroke-linecap="round" stroke-linejoin="round"></path><path d="M27.554 45.795L27.9 45.45" fill="none" stroke="#45413c" stroke-linecap="round" stroke-linejoin="round"></path><path d="M40.649 33.902 L67.208 33.902 L67.208 52.378 L40.649 52.378 Z" fill="#daedf7"></path><path d="M64.9,33.9H42.958a2.31,2.31,0,0,0-2.309,2.31V39.1a2.31,2.31,0,0,1,2.309-2.31H64.9a2.31,2.31,0,0,1,2.31,2.31V36.212A2.31,2.31,0,0,0,64.9,33.9Z" fill="#ffffff"></path><path d="M40.649 33.902 L67.208 33.902 L67.208 52.378 L40.649 52.378 Z" fill="none" stroke="#45413c" stroke-linecap="round" stroke-linejoin="round"></path><path d="M44.113 36.212L63.744 36.212" fill="none" stroke="#45413c" stroke-linecap="round" stroke-linejoin="round"></path><path d="M58.547,55.842H50.464l.4-11.739a2.309,2.309,0,0,1,2.3-2.117H54.69a2.31,2.31,0,0,1,2.3,2.117Z" fill="#daedf7" stroke="#45413c" stroke-linecap="round" stroke-linejoin="round"></path><path d="M44.113 47.759L44.113 48.914" fill="none" stroke="#45413c" stroke-linecap="round" stroke-linejoin="round"></path><path d="M46.423 47.759L46.423 48.914" fill="none" stroke="#45413c" stroke-linecap="round" stroke-linejoin="round"></path><path d="M48.732 47.759L48.732 48.914" fill="none" stroke="#45413c" stroke-linecap="round" stroke-linejoin="round"></path><path d="M20.846,67.621c0,2.678-1.207,4.849-2.695,4.849s-2.694-2.171-2.694-4.849a6.862,6.862,0,0,1,2.293-4.488.577.577,0,0,1,.8,0A6.861,6.861,0,0,1,20.846,67.621Z" fill="#9ceb60" stroke="#45413c" stroke-linecap="round" stroke-linejoin="round"></path><path d="M18.151,72.47l-3.308-7.725a.577.577,0,0,0-1.067.013l-.512,1.279a4.158,4.158,0,0,0,2.314,5.4Z" fill="#9ceb60" stroke="#45413c" stroke-linecap="round" stroke-linejoin="round"></path><path d="M18.151,72.47l3.309-7.725a.577.577,0,0,1,1.067.013l.512,1.279a4.157,4.157,0,0,1-2.315,5.4Z" fill="#9ceb60" stroke="#45413c" stroke-linecap="round" stroke-linejoin="round"></path><path d="M12.975,72.009a1.153,1.153,0,0,0-1.154,1.2c.228,6.5,2.289,8.041,2.289,8.041h8.083s2.06-1.545,2.289-8.041a1.155,1.155,0,0,0-1.154-1.2Z" fill="#debb7e"></path><path d="M18.151,78.937a7.69,7.69,0,0,1-6.128-3.225c.578,4.4,2.087,5.534,2.087,5.534h8.083s1.508-1.135,2.086-5.534A7.689,7.689,0,0,1,18.151,78.937Z" fill="#b89558"></path><path d="M12.975,72.009a1.153,1.153,0,0,0-1.154,1.2c.228,6.5,2.289,8.041,2.289,8.041h8.083s2.06-1.545,2.289-8.041a1.155,1.155,0,0,0-1.154-1.2Z" fill="none" stroke="#45413c" stroke-linecap="round" stroke-linejoin="round"></path><path d="M8.894 82.401 A9.815 1.732 0 1 0 28.524 82.401 A9.815 1.732 0 1 0 8.894 82.401 Z" fill="#45413c" opacity=".15"></path></g></svg>