<svg viewBox="0 0 48 48" height="48" width="48" xmlns="http://www.w3.org/2000/svg"><g transform="matrix(0.48,0,0,0.48,0,0)"><path d="M9.701 50.000 A40.000 40.000 0 1 0 89.701 50.000 A40.000 40.000 0 1 0 9.701 50.000 Z" fill="#C7F0FF" stroke="#C7F0FF" stroke-linecap="round" stroke-linejoin="round"></path><path d="M17.913 76.001 A29.216 8.82 0 1 0 76.345 76.001 A29.216 8.82 0 1 0 17.913 76.001 Z" fill="#45413c" opacity=".15"></path><path d="M43.734,25.883a21.375,21.375,0,0,1-1.643-8.492,1.1,1.1,0,0,1,1.885-.783,24.405,24.405,0,0,1,4.256,6.473Z" fill="#9ceb60"></path><path d="M43.983,21.343a.438.438,0,0,1-.556.331,6.854,6.854,0,0,0-1-.226,17.518,17.518,0,0,0,1.308,4.435l4.5-2.8a27.843,27.843,0,0,0-3.209-5.3A23.416,23.416,0,0,0,43.983,21.343Z" fill="#6dd627"></path><path d="M43.734,25.883a21.375,21.375,0,0,1-1.643-8.492,1.1,1.1,0,0,1,1.885-.783,24.405,24.405,0,0,1,4.256,6.473Z" fill="none" stroke="#45413c" stroke-linecap="round" stroke-linejoin="round"></path><path d="M54.934,25.883a21.375,21.375,0,0,0,1.643-8.492,1.1,1.1,0,0,0-1.885-.783,24.375,24.375,0,0,0-4.255,6.473Z" fill="#9ceb60"></path><path d="M54.685,21.343a.438.438,0,0,0,.556.331,6.883,6.883,0,0,1,1-.226,17.518,17.518,0,0,1-1.308,4.435l-4.5-2.8a27.791,27.791,0,0,1,3.209-5.3A23.527,23.527,0,0,1,54.685,21.343Z" fill="#6dd627"></path><path d="M54.934,25.883a21.375,21.375,0,0,0,1.643-8.492,1.1,1.1,0,0,0-1.885-.783,24.375,24.375,0,0,0-4.255,6.473Z" fill="none" stroke="#45413c" stroke-linecap="round" stroke-linejoin="round"></path><path d="M50.261,13.885a1.1,1.1,0,0,0-1.854,0c-2.395,3.724-4.4,10.184-2.932,13.607h7.718C54.66,24.068,52.657,17.609,50.261,13.885Z" fill="#9ceb60"></path><path d="M53.193,27.491a9.722,9.722,0,0,0,.281-5.257,6.771,6.771,0,0,0-.795.5.551.551,0,0,1-.75-.089,12.213,12.213,0,0,0-1.924-1.845,1.1,1.1,0,0,0-1.343,0,12.2,12.2,0,0,0-1.923,1.844.551.551,0,0,1-.75.089,6.771,6.771,0,0,0-.795-.5,9.732,9.732,0,0,0,.281,5.257Z" fill="#6dd627"></path><path d="M50.261,13.885a1.1,1.1,0,0,0-1.854,0c-2.395,3.724-4.4,10.184-2.932,13.607h7.718C54.66,24.068,52.657,17.609,50.261,13.885Z" fill="none" stroke="#45413c" stroke-linecap="round" stroke-linejoin="round"></path><path d="M44.373,30.8l-4.5-6.3a1.1,1.1,0,0,1,.87-1.743,6.944,6.944,0,0,1,6.936,5.838Z" fill="#9ceb60"></path><path d="M47.68,28.594a7.523,7.523,0,0,0-2.7-4.455,11.6,11.6,0,0,0-.846,1.919,1.1,1.1,0,0,1-1.371.7,8.834,8.834,0,0,0-1.512-.324L44.373,30.8Z" fill="#6dd627"></path><path d="M44.373,30.8l-4.5-6.3a1.1,1.1,0,0,1,.87-1.743,6.944,6.944,0,0,1,6.936,5.838Z" fill="none" stroke="#45413c" stroke-linecap="round" stroke-linejoin="round"></path><path d="M54.3,30.8l4.5-6.3a1.1,1.1,0,0,0-.871-1.743,6.945,6.945,0,0,0-6.936,5.838Z" fill="#9ceb60"></path><path d="M50.988,28.594a7.523,7.523,0,0,1,2.7-4.455,11.52,11.52,0,0,1,.846,1.919,1.1,1.1,0,0,0,1.371.7,8.854,8.854,0,0,1,1.512-.324L54.3,30.8Z" fill="#6dd627"></path><path d="M54.3,30.8l4.5-6.3a1.1,1.1,0,0,0-.871-1.743,6.945,6.945,0,0,0-6.936,5.838Z" fill="none" stroke="#45413c" stroke-linecap="round" stroke-linejoin="round"></path><path d="M54.3,30.8a11.391,11.391,0,0,0-4.284-8.332,1.1,1.1,0,0,0-1.353,0A11.391,11.391,0,0,0,44.373,30.8Z" fill="#9ceb60"></path><path d="M53.743,27.831q-.229.171-.444.364a1.1,1.1,0,0,1-1.352.1A14.326,14.326,0,0,0,49.78,27.13a1.105,1.105,0,0,0-.891,0,14.292,14.292,0,0,0-2.168,1.162,1.1,1.1,0,0,1-1.352-.1q-.215-.194-.444-.364a10.583,10.583,0,0,0-.552,2.968H54.3A10.583,10.583,0,0,0,53.743,27.831Z" fill="#6dd627"></path><path d="M54.3,30.8a11.391,11.391,0,0,0-4.284-8.332,1.1,1.1,0,0,0-1.353,0A11.391,11.391,0,0,0,44.373,30.8Z" fill="none" stroke="#45413c" stroke-linecap="round" stroke-linejoin="round"></path><path d="M43.822,35.76l-5-5.91a1.1,1.1,0,0,1,.758-1.811c2.538-.191,6.728.856,7.55,4.965Z" fill="#9ceb60"></path><path d="M45,29.539c-2.57,1.824-2.366,3.747-1.036,5.67h.521L47.129,33A5.625,5.625,0,0,0,45,29.539Z" fill="#6dd627"></path><path d="M43.822,35.76l-5-5.91a1.1,1.1,0,0,1,.758-1.811c2.538-.191,6.728.856,7.55,4.965Z" fill="none" stroke="#45413c" stroke-linecap="round" stroke-linejoin="round"></path><path d="M54.847,35.76l5-5.91a1.1,1.1,0,0,0-.758-1.811c-2.538-.191-6.728.856-7.55,4.965Z" fill="#9ceb60"></path><path d="M53.67,29.539c2.57,1.824,2.366,3.747,1.036,5.67h-.521L51.539,33A5.629,5.629,0,0,1,53.67,29.539Z" fill="#6dd627"></path><path d="M54.847,35.76l5-5.91a1.1,1.1,0,0,0-.758-1.811c-2.538-.191-6.728.856-7.55,4.965Z" fill="none" stroke="#45413c" stroke-linecap="round" stroke-linejoin="round"></path><path d="M53.193,35.76c1.4-2.029,1.554-4.057-1.484-5.97a4.463,4.463,0,0,0-4.752,0c-3.036,1.912-2.884,3.94-1.482,5.968Z" fill="#9ceb60"></path><path d="M53.193,35.76c1.4-2.029,1.554-4.057-1.484-5.97a4.463,4.463,0,0,0-4.752,0c-3.036,1.912-2.884,3.94-1.482,5.968Z" fill="none" stroke="#45413c" stroke-linecap="round" stroke-linejoin="round"></path><path d="M33.348,60.015a15.986,15.986,0,1,0,31.972,0V48.99a15.986,15.986,0,1,0-31.972,0Z" fill="#ffe500"></path><path d="M49.334,33A15.986,15.986,0,0,0,33.348,48.99v2.756a15.986,15.986,0,1,1,31.972,0V48.99A15.986,15.986,0,0,0,49.334,33Z" fill="#fff48c"></path><path d="M49.334,76A15.986,15.986,0,0,1,33.348,60.015V57.259a15.986,15.986,0,1,0,31.972,0v2.756A15.986,15.986,0,0,1,49.334,76Z" fill="#ffe500"></path><path d="M36.639,69.731A151.321,151.321,0,0,0,63.977,42.566" fill="none" stroke="#ebcb00" stroke-linecap="round" stroke-linejoin="round"></path><path d="M33.973,64.456a151.28,151.28,0,0,0,26.54-26.893" fill="none" stroke="#ebcb00" stroke-linecap="round" stroke-linejoin="round"></path><path d="M33.348,57.474A151.3,151.3,0,0,0,55.692,34.318" fill="none" stroke="#ebcb00" stroke-linecap="round" stroke-linejoin="round"></path><path d="M33.348,49.751A151.284,151.284,0,0,0,49.31,33" fill="none" stroke="#ebcb00" stroke-linecap="round" stroke-linejoin="round"></path><path d="M41.023,73.673a151.312,151.312,0,0,0,24.3-23.489" fill="none" stroke="#ebcb00" stroke-linecap="round" stroke-linejoin="round"></path><path d="M47.575,75.905A151.23,151.23,0,0,0,65.32,59.115" fill="none" stroke="#ebcb00" stroke-linecap="round" stroke-linejoin="round"></path><path d="M62.03,69.731A151.295,151.295,0,0,1,34.691,42.566" fill="none" stroke="#ebcb00" stroke-linecap="round" stroke-linejoin="round"></path><path d="M64.695,64.456a151.313,151.313,0,0,1-26.54-26.893" fill="none" stroke="#ebcb00" stroke-linecap="round" stroke-linejoin="round"></path><path d="M65.32,57.474A151.3,151.3,0,0,1,42.976,34.318" fill="none" stroke="#ebcb00" stroke-linecap="round" stroke-linejoin="round"></path><path d="M65.32,49.751A151.469,151.469,0,0,1,49.358,33" fill="none" stroke="#ebcb00" stroke-linecap="round" stroke-linejoin="round"></path><path d="M57.645,73.673a151.312,151.312,0,0,1-24.3-23.489" fill="none" stroke="#ebcb00" stroke-linecap="round" stroke-linejoin="round"></path><path d="M51.093,75.905a151.309,151.309,0,0,1-17.745-16.79" fill="none" stroke="#ebcb00" stroke-linecap="round" stroke-linejoin="round"></path><path d="M33.348,60.015a15.986,15.986,0,1,0,31.972,0V48.99a15.986,15.986,0,1,0-31.972,0Z" fill="none" stroke="#45413c" stroke-linecap="round" stroke-linejoin="round"></path><path d="M79.555,30.905c2.5,2.169,14.532,17.735.795,33.549S49.517,70.529,47.02,68.36l-.732.842a1.069,1.069,0,0,0,.14,1.535,27.012,27.012,0,0,0,35.4-40.75,1.068,1.068,0,0,0-1.539.076Z" fill="#9ceb60"></path><path d="M82.015,65.9A27.015,27.015,0,0,1,46.1,70.3a1.066,1.066,0,0,0,.326.441,27.012,27.012,0,0,0,35.4-40.75,1.07,1.07,0,0,0-.482-.261A27.015,27.015,0,0,1,82.015,65.9Z" fill="#6dd627"></path><path d="M79.555,30.905c2.5,2.169,14.532,17.735.795,33.549S49.517,70.529,47.02,68.36l-.732.842a1.069,1.069,0,0,0,.14,1.535,27.012,27.012,0,0,0,35.4-40.75,1.068,1.068,0,0,0-1.539.076Z" fill="none" stroke="#45413c" stroke-linecap="round" stroke-linejoin="round"></path><path d="M79.555,30.905c2.5,2.169,14.532,17.735.795,33.549S49.517,70.529,47.02,68.36Z" fill="#ff866e"></path><path d="M81.051,32.546a13.169,13.169,0,0,0-1.5-1.641L47.02,68.36a13.05,13.05,0,0,0,1.834,1.251Z" fill="#ffa694"></path><path d="M79.555,30.905c2.5,2.169,14.532,17.735.795,33.549S49.517,70.529,47.02,68.36Z" fill="none" stroke="#45413c" stroke-linecap="round" stroke-linejoin="round"></path><path d="M75.637 60.839 A0.551 1.102 0 1 0 76.739 60.839 A0.551 1.102 0 1 0 75.637 60.839 Z" fill="#45413c" stroke="#45413c" stroke-linecap="round" stroke-linejoin="round" transform="translate(-19.705 78.459) rotate(-49.02)"></path><path d="M68.002 65.890 A0.551 1.103 0 1 0 69.104 65.890 A0.551 1.103 0 1 0 68.002 65.890 Z" fill="#45413c" stroke="#45413c" stroke-linecap="round" stroke-linejoin="round" transform="translate(-16.968 24.33) rotate(-17.947)"></path><path d="M58.304 66.275 A1.103 0.551 0 1 0 60.510 66.275 A1.103 0.551 0 1 0 58.304 66.275 Z" fill="#45413c" stroke="#45413c" stroke-linecap="round" stroke-linejoin="round" transform="translate(-18.627 109.08) rotate(-76.874)"></path><path d="M79.570 52.572 A0.551 1.103 0 1 0 80.672 52.572 A0.551 1.103 0 1 0 79.570 52.572 Z" fill="#45413c" stroke="#45413c" stroke-linecap="round" stroke-linejoin="round" transform="translate(14.548 122.454) rotate(-80.093)"></path><path d="M78.120 43.462 A1.103 0.551 0 1 0 80.326 43.462 A1.103 0.551 0 1 0 78.120 43.462 Z" fill="#45413c" stroke="#45413c" stroke-linecap="round" stroke-linejoin="round" transform="translate(-10.348 31.538) rotate(-21.166)"></path><path d="M19.12,62.279A5.809,5.809,0,0,1,25.2,61.73a2.188,2.188,0,0,0,1.957,0,5.809,5.809,0,0,1,6.083.549A7.153,7.153,0,0,1,36.1,68v1.07c0,3.7-2.583,9.135-6.615,9.135-1.1,0-2.205-.551-3.307-.551s-2.2.551-3.308.551c-4.031,0-6.615-5.44-6.615-9.135V68A7.153,7.153,0,0,1,19.12,62.279Z" fill="#ff6242"></path><path d="M22.605,62.771a5.81,5.81,0,0,0-3.485,1.162,7.151,7.151,0,0,0-2.855,5.443c0-.1-.006-.2-.006-.305V68a7.153,7.153,0,0,1,2.861-5.722A5.809,5.809,0,0,1,25.2,61.73a2.188,2.188,0,0,0,1.957,0,5.809,5.809,0,0,1,6.083.549A7.153,7.153,0,0,1,36.1,68v1.07c0,.1,0,.2-.006.305a7.151,7.151,0,0,0-2.855-5.443,5.809,5.809,0,0,0-6.083-.549,2.188,2.188,0,0,1-1.957,0" fill="#ff866e"></path><path d="M19.12,62.279A5.809,5.809,0,0,1,25.2,61.73a2.188,2.188,0,0,0,1.957,0,5.809,5.809,0,0,1,6.083.549A7.153,7.153,0,0,1,36.1,68v1.07c0,3.7-2.583,9.135-6.615,9.135-1.1,0-2.205-.551-3.307-.551s-2.2.551-3.308.551c-4.031,0-6.615-5.44-6.615-9.135V68A7.153,7.153,0,0,1,19.12,62.279Z" fill="none" stroke="#45413c" stroke-linecap="round" stroke-linejoin="round"></path><path d="M26.182,64.976s1.1-5.512-1.654-8.269" fill="none" stroke="#45413c" stroke-linecap="round" stroke-linejoin="round"></path><path d="M24.528,64.425a2.757,2.757,0,0,0,3.307,0" fill="none" stroke="#45413c" stroke-linecap="round" stroke-linejoin="round"></path><path d="M42.719 71.591 A8.820 8.820 0 1 0 60.359 71.591 A8.820 8.820 0 1 0 42.719 71.591 Z" fill="#ffaa54"></path><path d="M42.719 71.591 A8.820 8.820 0 1 0 60.359 71.591 A8.820 8.820 0 1 0 42.719 71.591 Z" fill="#ffaa54"></path><path d="M51.539,64.976a8.822,8.822,0,0,1,8.752,7.718,8.937,8.937,0,0,0,.068-1.1,8.82,8.82,0,1,0-17.571,1.1A8.821,8.821,0,0,1,51.539,64.976Z" fill="#ffcc99"></path><path d="M42.719 71.591 A8.820 8.820 0 1 0 60.359 71.591 A8.820 8.820 0 1 0 42.719 71.591 Z" fill="none" stroke="#45413c"></path><path d="M57.46,59.4a1.1,1.1,0,0,0-1.314-1.228A6.206,6.206,0,0,0,52.938,59.7a6.21,6.21,0,0,0-1.3,3.3,1.1,1.1,0,0,0,1.314,1.228,6.209,6.209,0,0,0,3.208-1.52A6.2,6.2,0,0,0,57.46,59.4Z" fill="#9ceb60" stroke="#45413c" stroke-linecap="round" stroke-linejoin="round"></path><path d="M47.642,72.36a14.742,14.742,0,0,1-1.633-4.022c-.456-1.882-.972-3.978-1.389-5.661a4.23,4.23,0,0,0-8.212,0c-.417,1.683-.933,3.779-1.389,5.661a14.71,14.71,0,0,1-1.633,4.022,8.224,8.224,0,0,0-1.141,4.192c0,4.567,3.7,6.064,8.269,6.064s8.269-1.5,8.269-6.064A8.224,8.224,0,0,0,47.642,72.36Z" fill="#9ceb60"></path><path d="M44.62,62.677a4.23,4.23,0,0,0-8.212,0c-.109.44-.225.908-.344,1.393a5.544,5.544,0,0,1,4.45-2.953,5.543,5.543,0,0,1,4.45,2.953C44.845,63.585,44.729,63.117,44.62,62.677Z" fill="#c8ffa1"></path><path d="M47.642,72.36a14.742,14.742,0,0,1-1.633-4.022c-.456-1.882-.972-3.978-1.389-5.661a4.23,4.23,0,0,0-8.212,0c-.417,1.683-.933,3.779-1.389,5.661a14.71,14.71,0,0,1-1.633,4.022,8.224,8.224,0,0,0-1.141,4.192c0,4.567,3.7,6.064,8.269,6.064s8.269-1.5,8.269-6.064A8.224,8.224,0,0,0,47.642,72.36Z" fill="none" stroke="#45413c" stroke-linecap="round" stroke-linejoin="round"></path><path d="M40.514,59.464v-.645a5.677,5.677,0,0,1,2.756-4.868" fill="none" stroke="#45413c" stroke-linecap="round" stroke-linejoin="round"></path></g></svg>