<svg viewBox="0 0 48 48" height="48" width="48" xmlns="http://www.w3.org/2000/svg"><g transform="matrix(0.48,0,0,0.48,0,0)"><path d="M10.000 49.728 A40.000 40.000 0 1 0 90.000 49.728 A40.000 40.000 0 1 0 10.000 49.728 Z" fill="#C7F0FF" stroke="#C7F0FF"></path><path d="M18.372,73.189Q19.158,72.5,20,71.66c4-4,7-8,15-8s9,5,26,5c9.958,0,20.26-6.177,27.085-11.293" fill="none" stroke="#ff6242" stroke-linecap="round" stroke-linejoin="round"></path><path d="M16.033,69.847a25.623,25.623,0,0,1,2.7-.6c9.63-1.631,11.854,4.184,32.318.717,17.057-2.89,32.4-20.975,37.037-26.916" fill="none" stroke="#6dd627" stroke-linecap="round" stroke-linejoin="round"></path><path d="M11.682,55.37a20.234,20.234,0,0,1,8.369-.739c9.72.957,10.337,7.152,30.993,9.185,13.53,1.332,28.5-6.668,37.226-12.347" fill="none" stroke="#ffe500" stroke-linecap="round" stroke-linejoin="round"></path><path d="M18 33.66L18 51.66" fill="#6dd627" stroke="#46b000" stroke-linecap="round" stroke-linejoin="round"></path><path d="M12 48.66L12 60.66" fill="#6dd627" stroke="#46b000" stroke-linecap="round" stroke-linejoin="round"></path><path d="M24 30.66L24 42.66" fill="#ff6242" stroke="#e04122" stroke-linecap="round" stroke-linejoin="round"></path><path d="M30 38.66L30 50.66" fill="#ff6242" stroke="#e04122" stroke-linecap="round" stroke-linejoin="round"></path><path d="M70 26.66L70 41.66" fill="#ffe500" stroke="#ebcb00" stroke-linecap="round" stroke-linejoin="round"></path><path d="M76 18.66L76 39.66" fill="#6dd627" stroke="#46b000" stroke-linecap="round" stroke-linejoin="round"></path><path d="M82 20.66L82 39.66" fill="#6dd627" stroke="#46b000" stroke-linecap="round" stroke-linejoin="round"></path><path d="M88 17.66L88 30.66" fill="#6dd627" stroke="#46b000" stroke-linecap="round" stroke-linejoin="round"></path><path d="M10.000 50.660 L14.000 50.660 L14.000 58.660 L10.000 58.660 Z" fill="#6dd627" stroke="#46b000"></path><path d="M16.000 35.660 L20.000 35.660 L20.000 52.660 L16.000 52.660 Z" fill="#6dd627" stroke="#46b000"></path><path d="M74.000 26.660 L78.000 26.660 L78.000 37.660 L74.000 37.660 Z" fill="#6dd627" stroke="#46b000"></path><path d="M80.000 22.660 L84.000 22.660 L84.000 31.660 L80.000 31.660 Z" fill="#6dd627" stroke="#46b000"></path><path d="M86.000 19.660 L90.000 19.660 L90.000 25.660 L86.000 25.660 Z" fill="#6dd627" stroke="#46b000"></path><path d="M68.000 30.660 L72.000 30.660 L72.000 36.660 L68.000 36.660 Z" fill="#ffe500" stroke="#ebcb00"></path><path d="M22.000 32.660 L26.000 32.660 L26.000 40.660 L22.000 40.660 Z" fill="#ff6242" stroke="#e04122"></path><path d="M28.000 37.660 L32.000 37.660 L32.000 42.660 L28.000 42.660 Z" fill="#ff6242" stroke="#e04122"></path><path d="M23.951,89.652a26.549,26.549,0,0,1,53.1,0Z" fill="#656769"></path><path d="M50.5,70.086A28.5,28.5,0,0,1,77,88.1,26.549,26.549,0,0,0,24,88.1,28.5,28.5,0,0,1,50.5,70.086Z" fill="#87898c"></path><path d="M42.821,64.236,50.5,90.272l7.681-26.036a26.6,26.6,0,0,0-15.361,0Z" fill="#f0f0f0" stroke="#45413c" stroke-linecap="round" stroke-linejoin="round"></path><path d="M52.859 82.276L52.28 72.606 48.721 72.606 48.142 82.276 50.5 90.271 52.859 82.276z" fill="#ff6242"></path><path d="M52.519 76.609L52.28 72.606 48.721 72.606 48.481 76.609 52.519 76.609z" fill="#e04122"></path><path d="M52.859 82.276L52.28 72.606 48.721 72.606 48.142 82.276 50.5 90.271 52.859 82.276z" fill="none" stroke="#45413c" stroke-linecap="round" stroke-linejoin="round"></path><path d="M53.489,70.455l-.128.975a1.352,1.352,0,0,1-1.341,1.176H48.98a1.353,1.353,0,0,1-1.341-1.176l-.128-.975L50.5,67.466Z" fill="#ff6242" stroke="#45413c" stroke-linecap="round" stroke-linejoin="round"></path><path d="M63.071,66.264l.188,4.545a2,2,0,0,1-2.082,2.081L55.7,72.661l2.486-8.425A26.441,26.441,0,0,1,63.071,66.264Z" fill="#87898c" stroke="#45413c" stroke-linecap="round" stroke-linejoin="round"></path><path d="M55.695 72.661L55.695 72.661 55.695 72.661 55.695 72.661z" fill="#87898c" stroke="#45413c" stroke-linecap="round" stroke-linejoin="round"></path><path d="M53.028,63.226,50.5,67.466l5.2,5.2,2.486-8.425A26.438,26.438,0,0,0,53.028,63.226Z" fill="#ffffff" stroke="#45413c" stroke-linecap="round" stroke-linejoin="round"></path><path d="M45.305,72.661l5.2-5.2-2.527-4.24a26.409,26.409,0,0,0-5.153,1.01Z" fill="#ffffff" stroke="#45413c" stroke-linecap="round" stroke-linejoin="round"></path><path d="M23.951,89.652a26.549,26.549,0,0,1,53.1,0" fill="none" stroke="#45413c" stroke-linecap="round" stroke-linejoin="round"></path><path d="M55.325 57.318L55.325 63.533 50.5 67.455 45.675 63.533 45.675 57.318 55.325 57.318z" fill="#C7F0FF"></path><path d="M45.675,62.152a15.455,15.455,0,0,0,9.65,0V57.318h-9.65Z" fill="#c0dceb"></path><path d="M55.325 57.318L55.325 63.533 50.5 67.455 45.675 63.533 45.675 57.318 55.325 57.318z" fill="none" stroke="#45413c" stroke-linecap="round" stroke-linejoin="round"></path><path d="M45.305 72.661L45.305 72.661 45.305 72.661 45.305 72.661z" fill="#87898c" stroke="#45413c" stroke-linecap="round" stroke-linejoin="round"></path><path d="M63.351,47.971a12.85,12.85,0,1,1-25.7,0V38.5a12.85,12.85,0,1,1,25.7,0Z" fill="#ffffff"></path><path d="M50.5,57.64A12.849,12.849,0,0,1,37.652,44.791v3.181a12.85,12.85,0,0,0,25.7,0V44.791A12.85,12.85,0,0,1,50.5,57.64Z" fill="#e0e0e0"></path><path d="M63.351,47.971a12.85,12.85,0,1,1-25.7,0V38.5a12.85,12.85,0,1,1,25.7,0Z" fill="none" stroke="#45413c" stroke-linecap="round" stroke-linejoin="round"></path><path d="M63.351,43.981a14.884,14.884,0,0,1-25.7,0V38.5a12.85,12.85,0,1,1,25.7,0v5.5" fill="#525252"></path><path d="M50.5,25.655A12.849,12.849,0,0,0,37.652,38.5v5.477h0a12.849,12.849,0,0,1,25.7,0h0V38.5A12.849,12.849,0,0,0,50.5,25.655Z" fill="#656769"></path><path d="M50.502 25.654L50.502 35.817" fill="none" stroke="#ffe500" stroke-linecap="round" stroke-linejoin="round"></path><path d="M54.706 26.358L54.706 32.417" fill="none" stroke="#ffe500" stroke-linecap="round" stroke-linejoin="round"></path><path d="M46.297 26.358L46.297 32.417" fill="none" stroke="#ffe500" stroke-linecap="round" stroke-linejoin="round"></path><path d="M42.784 28.229L42.784 35.817" fill="none" stroke="#ffe500" stroke-linecap="round" stroke-linejoin="round"></path><path d="M58.219 28.229L58.219 35.817" fill="none" stroke="#ffe500" stroke-linecap="round" stroke-linejoin="round"></path><path d="M48.974 37.344 A1.528 1.528 0 1 0 52.030 37.344 A1.528 1.528 0 1 0 48.974 37.344 Z" fill="#ffe500" stroke="#ffe500" stroke-linecap="round" stroke-linejoin="round"></path><path d="M52.757,55.054a3.191,3.191,0,0,1-4.514,0" fill="none" stroke="#45413c" stroke-linecap="round" stroke-linejoin="round"></path><path d="M63.351,43.981a14.884,14.884,0,0,1-25.7,0V38.5a12.85,12.85,0,1,1,25.7,0v5.5" fill="none" stroke="#45413c" stroke-linecap="round" stroke-linejoin="round"></path><path d="M37.929,66.264l-.187,4.545a2,2,0,0,0,2.082,2.081l5.481-.229L42.82,64.236A26.479,26.479,0,0,0,37.929,66.264Z" fill="#87898c" stroke="#45413c" stroke-linecap="round" stroke-linejoin="round"></path><path d="M46.668,89.652l-6.981-9.707A2,2,0,0,1,40,77.267l5.305-4.606,5.012,16.991h.366L55.7,72.661,61,77.267a2,2,0,0,1,.312,2.678l-6.981,9.707" fill="#87898c" stroke="#45413c" stroke-linecap="round" stroke-linejoin="round"></path></g></svg>