<svg width="160" height="160" viewBox="0 0 160 160" fill="none" xmlns="http://www.w3.org/2000/svg">
<path d="M13.1997 80C13.1997 96.9739 19.9425 113.253 31.9449 125.255C43.9472 137.257 60.2259 144 77.1997 144C94.1736 144 110.452 137.257 122.455 125.255C134.457 113.253 141.2 96.9739 141.2 80C141.2 63.0261 134.457 46.7475 122.455 34.7452C110.452 22.7428 94.1736 16 77.1997 16C60.2259 16 43.9472 22.7428 31.9449 34.7452C19.9425 46.7475 13.1997 63.0261 13.1997 80V80Z" fill="#C7F0FF" stroke="#C7F0FF" stroke-width="1.5" stroke-linecap="round" stroke-linejoin="round"/>
<path opacity="0.15" d="M56.6748 45.5376H150V83.372H56.6748V45.5376Z" fill="#45413C"/>
<path d="M56.6748 41.3547H150V79.1891H56.6748V41.3547Z" fill="white"/>
<path d="M147.477 41.3547H59.1971C58.5281 41.3547 57.8866 41.6205 57.4136 42.0935C56.9405 42.5665 56.6748 43.2081 56.6748 43.877V47.6605C56.6748 46.9915 56.9405 46.35 57.4136 45.8769C57.8866 45.4039 58.5281 45.1382 59.1971 45.1382H147.477C148.146 45.1382 148.788 45.4039 149.261 45.8769C149.734 46.35 150 46.9915 150 47.6605V43.877C150 43.2081 149.734 42.5665 149.261 42.0935C148.788 41.6205 148.146 41.3547 147.477 41.3547Z" fill="#C7F0FF"/>
<path d="M56.6748 41.3547H150V79.1891H56.6748V41.3547Z" stroke="#45413C" stroke-width="1.5" stroke-linecap="round" stroke-linejoin="round"/>
<path d="M59.8271 44.5073H66.1329V47.6602H59.8271V44.5073Z" fill="#F0F0F0" stroke="#45413C" stroke-width="1.5" stroke-linecap="round" stroke-linejoin="round"/>
<path d="M69.917 44.5073H76.2227V47.6602H69.917V44.5073Z" fill="#F0F0F0" stroke="#45413C" stroke-width="1.5" stroke-linecap="round" stroke-linejoin="round"/>
<path d="M78.7451 44.5073H85.0508V47.6602H78.7451V44.5073Z" fill="#F0F0F0" stroke="#45413C" stroke-width="1.5" stroke-linecap="round" stroke-linejoin="round"/>
<path d="M87.5728 44.5073H93.8785V47.6602H87.5728V44.5073Z" fill="#F0F0F0" stroke="#45413C" stroke-width="1.5" stroke-linecap="round" stroke-linejoin="round"/>
<path d="M96.4014 44.5073H102.707V47.6602H96.4014V44.5073Z" fill="#F0F0F0" stroke="#45413C" stroke-width="1.5" stroke-linecap="round" stroke-linejoin="round"/>
<path d="M105.229 44.5073H111.535V47.6602H105.229V44.5073Z" fill="#F0F0F0" stroke="#45413C" stroke-width="1.5" stroke-linecap="round" stroke-linejoin="round"/>
<path d="M114.057 44.5073H120.363V47.6602H114.057V44.5073Z" fill="#F0F0F0" stroke="#45413C" stroke-width="1.5" stroke-linecap="round" stroke-linejoin="round"/>
<path d="M122.884 44.5073H129.19V47.6602H122.884V44.5073Z" fill="#F0F0F0" stroke="#45413C" stroke-width="1.5" stroke-linecap="round" stroke-linejoin="round"/>
<path d="M131.713 44.5073H138.019V47.6602H131.713V44.5073Z" fill="#F0F0F0" stroke="#45413C" stroke-width="1.5" stroke-linecap="round" stroke-linejoin="round"/>
<path d="M140.542 44.5073H146.847V47.6602H140.542V44.5073Z" fill="#F0F0F0" stroke="#45413C" stroke-width="1.5" stroke-linecap="round" stroke-linejoin="round"/>
<path d="M59.8271 50.8127H66.1329V55.2268H59.8271V50.8127Z" fill="#F0F0F0" stroke="#45413C" stroke-width="1.5" stroke-linecap="round" stroke-linejoin="round"/>
<path d="M68.6558 50.8127H74.9615V55.2268H68.6558V50.8127Z" fill="#F0F0F0" stroke="#45413C" stroke-width="1.5" stroke-linecap="round" stroke-linejoin="round"/>
<path d="M77.4834 50.8127H83.7891V55.2268H77.4834V50.8127Z" fill="#F0F0F0" stroke="#45413C" stroke-width="1.5" stroke-linecap="round" stroke-linejoin="round"/>
<path d="M86.3115 50.8127H92.6173V55.2268H86.3115V50.8127Z" fill="#F0F0F0" stroke="#45413C" stroke-width="1.5" stroke-linecap="round" stroke-linejoin="round"/>
<path d="M95.1401 50.8127H101.446V55.2268H95.1401V50.8127Z" fill="#F0F0F0" stroke="#45413C" stroke-width="1.5" stroke-linecap="round" stroke-linejoin="round"/>
<path d="M103.968 50.8127H110.274V55.2268H103.968V50.8127Z" fill="#F0F0F0" stroke="#45413C" stroke-width="1.5" stroke-linecap="round" stroke-linejoin="round"/>
<path d="M112.796 50.8127H119.102V55.2268H112.796V50.8127Z" fill="#F0F0F0" stroke="#45413C" stroke-width="1.5" stroke-linecap="round" stroke-linejoin="round"/>
<path d="M121.623 50.8127H127.928V55.2268H121.623V50.8127Z" fill="#F0F0F0" stroke="#45413C" stroke-width="1.5" stroke-linecap="round" stroke-linejoin="round"/>
<path d="M130.452 50.8127H136.758V55.2268H130.452V50.8127Z" fill="#F0F0F0" stroke="#45413C" stroke-width="1.5" stroke-linecap="round" stroke-linejoin="round"/>
<path d="M139.28 50.8127H146.847V55.2268H139.28V50.8127Z" fill="#F0F0F0" stroke="#45413C" stroke-width="1.5" stroke-linecap="round" stroke-linejoin="round"/>
<path d="M59.8271 57.7495H68.0246V62.1635H59.8271V57.7495Z" fill="#F0F0F0" stroke="#45413C" stroke-width="1.5" stroke-linecap="round" stroke-linejoin="round"/>
<path d="M70.5469 57.7495H76.8526V62.1635H70.5469V57.7495Z" fill="#F0F0F0" stroke="#45413C" stroke-width="1.5" stroke-linecap="round" stroke-linejoin="round"/>
<path d="M79.3765 57.7495H85.6822V62.1635H79.3765V57.7495Z" fill="#F0F0F0" stroke="#45413C" stroke-width="1.5" stroke-linecap="round" stroke-linejoin="round"/>
<path d="M88.2031 57.7495H94.5089V62.1635H88.2031V57.7495Z" fill="#F0F0F0" stroke="#45413C" stroke-width="1.5" stroke-linecap="round" stroke-linejoin="round"/>
<path d="M97.0312 57.7495H103.337V62.1635H97.0312V57.7495Z" fill="#F0F0F0" stroke="#45413C" stroke-width="1.5" stroke-linecap="round" stroke-linejoin="round"/>
<path d="M105.859 57.7495H112.165V62.1635H105.859V57.7495Z" fill="#F0F0F0" stroke="#45413C" stroke-width="1.5" stroke-linecap="round" stroke-linejoin="round"/>
<path d="M114.688 57.7495H120.993V62.1635H114.688V57.7495Z" fill="#F0F0F0" stroke="#45413C" stroke-width="1.5" stroke-linecap="round" stroke-linejoin="round"/>
<path d="M123.516 57.7495H129.821V62.1635H123.516V57.7495Z" fill="#F0F0F0" stroke="#45413C" stroke-width="1.5" stroke-linecap="round" stroke-linejoin="round"/>
<path d="M132.343 57.7495H138.649V62.1635H132.343V57.7495Z" fill="#F0F0F0" stroke="#45413C" stroke-width="1.5" stroke-linecap="round" stroke-linejoin="round"/>
<path d="M136.758 69.0998C136.423 69.0998 136.102 68.9669 135.866 68.7304C135.629 68.4939 135.497 68.1732 135.497 67.8387V65.947C135.497 65.6125 135.629 65.2917 135.866 65.0552C136.102 64.8187 136.423 64.6858 136.758 64.6858H139.962C140.129 64.6858 140.294 64.6527 140.448 64.5884C140.602 64.5241 140.742 64.4298 140.859 64.3111C140.977 64.1924 141.069 64.0516 141.132 63.8968C141.194 63.742 141.225 63.5764 141.223 63.4095L141.172 59.0107C141.172 58.6762 141.305 58.3554 141.541 58.1189C141.778 57.8824 142.098 57.7495 142.433 57.7495H145.586C145.92 57.7495 146.241 57.8824 146.478 58.1189C146.714 58.3554 146.847 58.6762 146.847 59.0107V67.8387C146.847 68.1732 146.714 68.4939 146.478 68.7304C146.241 68.9669 145.92 69.0998 145.586 69.0998H136.758Z" fill="#F0F0F0" stroke="#45413C" stroke-width="1.5" stroke-linecap="round" stroke-linejoin="round"/>
<path d="M59.8271 64.6855H71.1775V69.0996H59.8271V64.6855Z" fill="#F0F0F0" stroke="#45413C" stroke-width="1.5" stroke-linecap="round" stroke-linejoin="round"/>
<path d="M73.7007 64.6855H80.0064V69.0996H73.7007V64.6855Z" fill="#F0F0F0" stroke="#45413C" stroke-width="1.5" stroke-linecap="round" stroke-linejoin="round"/>
<path d="M82.5278 64.6855H88.8336V69.0996H82.5278V64.6855Z" fill="#F0F0F0" stroke="#45413C" stroke-width="1.5" stroke-linecap="round" stroke-linejoin="round"/>
<path d="M91.3555 64.6855H97.6612V69.0996H91.3555V64.6855Z" fill="#F0F0F0" stroke="#45413C" stroke-width="1.5" stroke-linecap="round" stroke-linejoin="round"/>
<path d="M100.185 64.6855H106.491V69.0996H100.185V64.6855Z" fill="#F0F0F0" stroke="#45413C" stroke-width="1.5" stroke-linecap="round" stroke-linejoin="round"/>
<path d="M109.012 64.6855H115.318V69.0996H109.012V64.6855Z" fill="#F0F0F0" stroke="#45413C" stroke-width="1.5" stroke-linecap="round" stroke-linejoin="round"/>
<path d="M117.84 64.6855H124.146V69.0996H117.84V64.6855Z" fill="#F0F0F0" stroke="#45413C" stroke-width="1.5" stroke-linecap="round" stroke-linejoin="round"/>
<path d="M126.669 64.6855H132.975V69.0996H126.669V64.6855Z" fill="#F0F0F0" stroke="#45413C" stroke-width="1.5" stroke-linecap="round" stroke-linejoin="round"/>
<path d="M59.8271 71.6223H66.1329V76.0363H59.8271V71.6223Z" fill="#F0F0F0" stroke="#45413C" stroke-width="1.5" stroke-linecap="round" stroke-linejoin="round"/>
<path d="M68.6558 71.6223H74.9615V76.0363H68.6558V71.6223Z" fill="#F0F0F0" stroke="#45413C" stroke-width="1.5" stroke-linecap="round" stroke-linejoin="round"/>
<path d="M77.4834 71.6223H119.101V76.0363H77.4834V71.6223Z" fill="#F0F0F0" stroke="#45413C" stroke-width="1.5" stroke-linecap="round" stroke-linejoin="round"/>
<path d="M121.623 71.6223H127.928V76.0363H121.623V71.6223Z" fill="#F0F0F0" stroke="#45413C" stroke-width="1.5" stroke-linecap="round" stroke-linejoin="round"/>
<path d="M130.452 71.6223H136.758V76.0363H130.452V71.6223Z" fill="#F0F0F0" stroke="#45413C" stroke-width="1.5" stroke-linecap="round" stroke-linejoin="round"/>
<path d="M139.28 71.6223H145.586V76.0363H139.28V71.6223Z" fill="#F0F0F0" stroke="#45413C" stroke-width="1.5" stroke-linecap="round" stroke-linejoin="round"/>
<path d="M77.7703 115.773C78.2262 115.643 78.6421 115.401 78.9797 115.068C79.3174 114.735 79.5659 114.323 79.7024 113.869C80.9623 108.993 80.5466 103.834 78.5219 99.2221C78.2044 98.5504 77.6352 98.0306 76.9374 97.7753C76.2397 97.5199 75.4695 97.5495 74.7933 97.8575C74.1172 98.1656 73.5895 98.7274 73.3243 99.4215C73.0592 100.116 73.0779 100.886 73.3765 101.567C74.8459 104.927 75.1663 108.678 74.2883 112.238C74.1432 112.724 74.1312 113.24 74.2537 113.732C74.3762 114.223 74.6285 114.673 74.9844 115.034C75.3403 115.395 75.7866 115.654 76.2767 115.783C76.7668 115.913 77.2826 115.908 77.7703 115.77V115.773Z" fill="#FFCEBF" stroke="#45413C" stroke-width="1.5" stroke-linecap="round" stroke-linejoin="round"/>
<path d="M83.348 114.728C83.8038 114.598 84.2197 114.356 84.5574 114.023C84.895 113.691 85.1435 113.278 85.2801 112.825C86.5409 107.95 86.1269 102.793 84.1047 98.1814C83.9542 97.8383 83.737 97.5286 83.4657 97.2702C83.1944 97.0118 82.8745 96.8099 82.5245 96.6762C82.1745 96.5425 81.8014 96.4796 81.4269 96.4914C81.0525 96.5031 80.6841 96.5891 80.3431 96.7445C80.0022 96.8998 79.6955 97.1214 79.441 97.3963C79.1864 97.6712 78.989 97.9939 78.8602 98.3457C78.7315 98.6976 78.6739 99.0715 78.6909 99.4458C78.7079 99.82 78.7991 100.187 78.9592 100.526C80.4286 103.886 80.7491 107.636 79.871 111.196C79.7251 111.682 79.7125 112.198 79.8346 112.691C79.9568 113.183 80.2091 113.633 80.5653 113.994C80.9214 114.355 81.3681 114.614 81.8586 114.743C82.3491 114.872 82.8653 114.867 83.3531 114.728H83.348Z" fill="#FFCEBF" stroke="#45413C" stroke-width="1.5" stroke-linecap="round" stroke-linejoin="round"/>
<path d="M88.6216 113.865C89.0774 113.736 89.4933 113.493 89.8309 113.161C90.1686 112.828 90.4171 112.416 90.5537 111.962C91.8132 107.086 91.3974 101.927 89.3732 97.3155C89.2227 96.9724 89.0055 96.6626 88.7342 96.4042C88.4629 96.1458 88.143 95.9439 87.793 95.8102C87.443 95.6765 87.07 95.6137 86.6955 95.6254C86.321 95.6371 85.9526 95.7232 85.6117 95.8785C85.2707 96.0339 84.9641 96.2554 84.7095 96.5303C84.4549 96.8052 84.2575 97.1279 84.1288 97.4798C84 97.8316 83.9425 98.2055 83.9595 98.5798C83.9764 98.954 84.0677 99.3212 84.2278 99.6599C85.6966 103.02 86.0171 106.77 85.1396 110.33C84.9936 110.816 84.981 111.332 85.1032 111.825C85.2253 112.317 85.4777 112.767 85.8338 113.128C86.1899 113.489 86.6367 113.748 87.1272 113.877C87.6177 114.006 88.1339 114.001 88.6216 113.862V113.865Z" fill="#FFCEBF" stroke="#45413C" stroke-width="1.5" stroke-linecap="round" stroke-linejoin="round"/>
<path d="M93.3376 91.6653L90.5782 89.858C88.3055 88.4738 85.7797 87.5562 83.1484 87.1589C80.5171 86.7616 77.833 86.8924 75.2528 87.5438C60.4141 90.7257 52.1814 112.784 50.325 123.959L50.2632 124.238L65.7324 127.343L65.8976 125.517C66.7804 117.423 70.8161 117.915 74.3813 114.498C80.0111 108.534 82.1916 106.146 89.3978 97.9622C90.1091 96.7754 90.1898 96.416 90.9112 96.701C91.5631 96.9211 92.273 96.8953 92.9073 96.6285C93.5415 96.3617 94.0564 95.8723 94.355 95.2524C94.6537 94.6325 94.7155 93.9249 94.5288 93.2626C94.3421 92.6003 93.9198 92.0291 93.3414 91.6564L93.3376 91.6653Z" fill="#FFCEBF"/>
<path d="M93.3376 91.6652L90.5782 89.858C88.3054 88.4738 85.7796 87.5563 83.1483 87.1589C80.5171 86.7616 77.833 86.8924 75.2528 87.5437C60.4141 90.7256 52.1814 112.784 50.325 123.959L50.2632 124.238L54.0239 124.995C56.0998 113.556 63.4749 93.2479 76.6426 90.4822C79.1394 90.0306 81.702 90.0929 84.174 90.6651C86.6459 91.2373 88.9753 92.3076 91.0196 93.8104L93.634 95.6214C93.7289 95.6928 93.8194 95.7699 93.9051 95.8522C93.9954 95.7677 94.0796 95.6771 94.1574 95.581C94.3609 95.2701 94.5011 94.9222 94.57 94.5571C94.6389 94.192 94.6352 93.8169 94.5591 93.4532C94.483 93.0895 94.3359 92.7444 94.1263 92.4376C93.9167 92.1308 93.6487 91.8683 93.3376 91.6652V91.6652Z" fill="#FFDCD1"/>
<path d="M85.6599 93.6411L77.8408 99.7161C77.7386 99.7981 77.615 99.8699 77.5141 99.9519C75.8134 101.197 73.9118 102.141 71.8919 102.744L71.5767 102.834C70.7809 103.062 70.8086 102.533 70.7241 101.858C71.4026 96.8936 74.0599 94.0182 77.5343 93.0232C80.2381 92.3422 83.0901 92.5591 85.6599 93.6411V93.6411Z" fill="#FFB59E"/>
<path d="M65.7347 127.343L65.8986 125.511C66.7814 117.423 70.8108 117.919 74.3874 114.493C80.0159 108.523 82.1876 106.148 89.4013 97.9521C90.1076 96.7818 90.1833 96.4198 90.9147 96.7124C91.5662 96.9254 92.2728 96.8946 92.9032 96.6256C93.5336 96.3566 94.0449 95.8678 94.3419 95.2501C94.6388 94.6324 94.7013 93.9279 94.5177 93.2675C94.3341 92.6072 93.9169 92.036 93.3437 91.6602L90.5692 89.8707C88.2989 88.4839 85.7748 87.5637 83.1447 87.164C80.5145 86.7642 77.8311 86.8929 75.2513 87.5426C60.4164 90.7257 52.1799 112.791 50.3146 123.958L50.2554 124.233L65.7347 127.343ZM77.8354 99.7164C77.7332 99.7984 77.6096 99.8703 77.5087 99.9523C75.808 101.197 73.9064 102.142 71.8865 102.744L71.5713 102.834C70.7755 103.062 70.8032 102.534 70.7187 101.858C71.3972 96.894 74.0545 94.0186 77.5289 93.0235C80.2316 92.3434 83.0821 92.5603 85.6507 93.6415L77.8354 99.7164Z" stroke="#45413C" stroke-width="1.5" stroke-linecap="round" stroke-linejoin="round"/>
<path d="M70.7366 101.862C70.6801 101.984 70.66 102.121 70.6787 102.255C70.6974 102.389 70.7541 102.515 70.8421 102.617C70.93 102.72 71.0456 102.795 71.1751 102.834C71.3046 102.874 71.4426 102.875 71.5727 102.838L71.888 102.744C74.0437 102.113 76.0634 101.087 77.8444 99.7176L86.1478 93.2631C86.4291 93.0457 86.7493 92.8839 87.0911 92.7863C87.8126 92.5801 88.5864 92.6686 89.2426 93.0325C89.8988 93.3965 90.3837 94.006 90.5908 94.7272C90.6961 95.2735 90.6599 95.8376 90.4855 96.3659C90.3111 96.8942 90.0043 97.369 89.5945 97.7452C82.3252 106.001 80.1359 108.397 74.6272 114.238" fill="#FFCEBF"/>
<path d="M70.7366 101.862C70.6801 101.984 70.66 102.121 70.6787 102.255C70.6974 102.389 70.7541 102.515 70.8421 102.617C70.93 102.72 71.0456 102.795 71.1751 102.834C71.3046 102.874 71.4426 102.875 71.5727 102.838L71.888 102.744C74.0437 102.113 76.0634 101.087 77.8444 99.7176L86.1478 93.2631C86.4291 93.0457 86.7493 92.8839 87.0911 92.7863C87.8126 92.5801 88.5864 92.6686 89.2426 93.0325C89.8988 93.3965 90.3837 94.006 90.5908 94.7272C90.6961 95.2735 90.6599 95.8376 90.4855 96.3659C90.3111 96.8942 90.0043 97.369 89.5945 97.7452C82.3252 106.001 80.1359 108.397 74.6272 114.238" stroke="#45413C" stroke-width="1.5" stroke-linecap="round" stroke-linejoin="round"/>
<path d="M71.5005 102.871C73.7615 102.145 75.8998 101.082 77.8428 99.7177L86.1474 93.2631C86.6437 92.8801 87.2539 92.6741 87.8808 92.678C88.5077 92.6819 89.1153 92.8954 89.6068 93.2846C84.4979 99.4213 75.796 107.449 71.5005 102.871Z" fill="#FFDCD1"/>
<path d="M70.7366 101.862C70.6801 101.984 70.66 102.121 70.6787 102.255C70.6974 102.389 70.7541 102.515 70.8421 102.617C70.93 102.72 71.0456 102.795 71.1751 102.834C71.3046 102.874 71.4426 102.875 71.5727 102.838L71.888 102.744C74.0437 102.113 76.0634 101.087 77.8444 99.7176L86.1478 93.2631C86.4291 93.0457 86.7493 92.8839 87.0911 92.7863C87.8126 92.5801 88.5864 92.6686 89.2426 93.0325C89.8988 93.3965 90.3837 94.006 90.5908 94.7272C90.6961 95.2735 90.6599 95.8376 90.4855 96.3659C90.3111 96.8942 90.0043 97.369 89.5945 97.7452C82.3252 106.001 80.1359 108.397 74.6272 114.238" stroke="#45413C" stroke-width="1.5" stroke-linecap="round" stroke-linejoin="round"/>
<path opacity="0.15" d="M103.729 78.3225C100.996 79.3748 98.6373 81.2137 96.9499 83.6068C95.2625 85.9999 94.3227 88.8396 94.2493 91.7668C94.1759 94.694 94.9721 97.5773 96.5374 100.052C98.1026 102.527 100.367 104.482 103.043 105.67C105.719 106.857 108.688 107.225 111.573 106.726C114.458 106.227 117.131 104.883 119.252 102.865C121.374 100.847 122.85 98.2453 123.493 95.3886C124.135 92.5319 123.917 89.5487 122.864 86.8163C121.449 83.1556 118.64 80.2056 115.053 78.6133C111.465 77.021 107.393 76.9164 103.729 78.3225Z" fill="#45413C"/>
<path d="M97.5989 90.4521L89.6285 93.5218C89.279 93.6555 88.9593 93.8568 88.6877 94.1142C88.4161 94.3716 88.1979 94.68 88.0457 95.0219C87.8934 95.3637 87.81 95.7321 87.8003 96.1062C87.7905 96.4802 87.8547 96.8526 87.989 97.2018V97.2018C88.1228 97.5512 88.3242 97.8707 88.5817 98.1422C88.8391 98.4137 89.1475 98.6319 89.4892 98.7841C89.831 98.9364 90.1994 99.0198 90.5734 99.0296C90.9474 99.0394 91.3197 98.9754 91.669 98.8413L99.6382 95.7717L97.5989 90.4521Z" fill="white"/>
<path d="M97.5989 90.4521L89.6285 93.5218C89.279 93.6555 88.9593 93.8568 88.6877 94.1142C88.4161 94.3716 88.1979 94.68 88.0457 95.0219C87.8934 95.3637 87.81 95.7321 87.8003 96.1062C87.7905 96.4802 87.8547 96.8526 87.989 97.2018V97.2018C88.1228 97.5512 88.3242 97.8707 88.5817 98.1422C88.8391 98.4137 89.1475 98.6319 89.4892 98.7841C89.831 98.9364 90.1994 99.0198 90.5734 99.0296C90.9474 99.0394 91.3197 98.9754 91.669 98.8413L99.6382 95.7717L97.5989 90.4521Z" stroke="#45413C" stroke-width="1.5" stroke-linecap="round" stroke-linejoin="round"/>
<path d="M104.456 74.9953C101.255 76.231 98.5824 78.5388 96.8932 81.5251C95.2039 84.5115 94.603 87.9913 95.1929 91.3712C95.5284 93.2575 96.2233 95.0617 97.2398 96.6857C98.7326 99.0624 100.87 100.966 103.403 102.174C105.937 103.382 108.761 103.846 111.548 103.51C114.334 103.175 116.968 102.054 119.142 100.279C121.316 98.5038 122.94 96.1473 123.826 93.4842C124.712 90.8211 124.823 87.961 124.146 85.2373C123.468 82.5137 122.031 80.0386 120.001 78.1007C117.971 76.1628 115.431 74.8418 112.679 74.2918C109.927 73.7417 107.075 73.9853 104.456 74.994V74.9953Z" fill="white" stroke="#45413C" stroke-width="1.5" stroke-linecap="round" stroke-linejoin="round"/>
<path d="M99.1895 88.8116C99.1895 91.6192 100.305 94.3118 102.29 96.2971C104.275 98.2824 106.968 99.3977 109.776 99.3977C112.583 99.3977 115.276 98.2824 117.261 96.2971C119.246 94.3118 120.362 91.6192 120.362 88.8116C120.362 86.004 119.246 83.3114 117.261 81.3262C115.276 79.3409 112.583 78.2256 109.776 78.2256C106.968 78.2256 104.275 79.3409 102.29 81.3262C100.305 83.3114 99.1895 86.004 99.1895 88.8116V88.8116Z" fill="#BF8256"/>
<path d="M111.203 97.6344C113.054 96.9234 114.668 95.7063 115.86 94.122C117.053 92.5377 117.776 90.6501 117.947 88.6746C118.118 86.6991 117.73 84.7153 116.827 82.9497C115.925 81.1841 114.544 79.7079 112.843 78.6895C114.279 79.1226 115.607 79.8564 116.738 80.8422C117.87 81.8279 118.778 83.043 119.404 84.4068C120.029 85.7705 120.358 87.2518 120.367 88.7522C120.376 90.2526 120.066 91.7378 119.457 93.1092C118.849 94.4806 117.955 95.7068 116.836 96.7064C115.717 97.706 114.399 98.4562 112.968 98.907C111.536 99.3579 110.026 99.4992 108.536 99.3216C107.046 99.1439 105.611 98.6513 104.326 97.8765C106.581 98.5691 109.003 98.4838 111.203 97.6344V97.6344Z" fill="#915E3A"/>
<path d="M99.1895 88.8116C99.1895 91.6192 100.305 94.3118 102.29 96.2971C104.275 98.2824 106.968 99.3977 109.776 99.3977C112.583 99.3977 115.276 98.2824 117.261 96.2971C119.246 94.3118 120.362 91.6192 120.362 88.8116C120.362 86.004 119.246 83.3114 117.261 81.3262C115.276 79.3409 112.583 78.2256 109.776 78.2256C106.968 78.2256 104.275 79.3409 102.29 81.3262C100.305 83.3114 99.1895 86.004 99.1895 88.8116V88.8116Z" stroke="#45413C" stroke-width="1.5" stroke-linecap="round" stroke-linejoin="round"/>
<path d="M70.7366 101.862C70.6801 101.984 70.66 102.121 70.6787 102.255C70.6974 102.389 70.7541 102.515 70.8421 102.617C70.93 102.72 71.0456 102.795 71.1751 102.834C71.3046 102.874 71.4426 102.875 71.5727 102.838L71.888 102.744C74.0437 102.113 76.0634 101.087 77.8444 99.7176L86.1478 93.2631C86.4291 93.0457 86.7493 92.8839 87.0911 92.7863C87.8126 92.5801 88.5864 92.6686 89.2426 93.0325C89.8988 93.3965 90.3837 94.006 90.5908 94.7272C90.6961 95.2735 90.6599 95.8376 90.4855 96.3659C90.3111 96.8942 90.0043 97.369 89.5945 97.7452C82.3252 106.001 80.1359 108.397 74.6272 114.238" fill="#FFCEBF"/>
<path d="M70.7366 101.862C70.6801 101.984 70.66 102.121 70.6787 102.255C70.6974 102.389 70.7541 102.515 70.8421 102.617C70.93 102.72 71.0456 102.795 71.1751 102.834C71.3046 102.874 71.4426 102.875 71.5727 102.838L71.888 102.744C74.0437 102.113 76.0634 101.087 77.8444 99.7176L86.1478 93.2631C86.4291 93.0457 86.7493 92.8839 87.0911 92.7863C87.8126 92.5801 88.5864 92.6686 89.2426 93.0325C89.8988 93.3965 90.3837 94.006 90.5908 94.7272C90.6961 95.2735 90.6599 95.8376 90.4855 96.3659C90.3111 96.8942 90.0043 97.369 89.5945 97.7452C82.3252 106.001 80.1359 108.397 74.6272 114.238" stroke="#45413C" stroke-width="1.5" stroke-linecap="round" stroke-linejoin="round"/>
<path d="M71.5005 102.871C73.7615 102.145 75.8998 101.082 77.8428 99.7177L86.1474 93.2631C86.6437 92.8801 87.2539 92.6741 87.8808 92.678C88.5077 92.6819 89.1153 92.8954 89.6068 93.2846C84.4979 99.4213 75.796 107.449 71.5005 102.871Z" fill="#FFDCD1"/>
<path d="M70.7366 101.862C70.6801 101.984 70.66 102.121 70.6787 102.255C70.6974 102.389 70.7541 102.515 70.8421 102.617C70.93 102.72 71.0456 102.795 71.1751 102.834C71.3046 102.874 71.4426 102.875 71.5727 102.838L71.888 102.744C74.0437 102.113 76.0634 101.087 77.8444 99.7176L86.1478 93.2631C86.4291 93.0457 86.7493 92.8839 87.0911 92.7863C87.8126 92.5801 88.5864 92.6686 89.2426 93.0325C89.8988 93.3965 90.3837 94.006 90.5908 94.7272C90.6961 95.2735 90.6599 95.8376 90.4855 96.3659C90.3111 96.8942 90.0043 97.369 89.5945 97.7452C82.3252 106.001 80.1359 108.397 74.6272 114.238" stroke="#45413C" stroke-width="1.5" stroke-linecap="round" stroke-linejoin="round"/>
<path d="M3.3335 136.667V13.3333" stroke="#45413C" stroke-width="1.5" stroke-linecap="round" stroke-linejoin="round"/>
<path d="M51.0679 32.0376H3.33595V43.9695H51.0679V32.0376Z" fill="#FF6242" stroke="#45413C" stroke-width="1.5" stroke-linejoin="round"/>
<path d="M3.33595 55.8991H46.5839C47.7731 55.8991 48.9136 55.4267 49.7545 54.5858C50.5955 53.7449 51.0679 52.6044 51.0679 51.4152V43.9673H3.33595V55.8991Z" fill="#FFE500" stroke="#45413C" stroke-width="1.5" stroke-linejoin="round"/>
<path d="M3.33595 20.105H46.5839C47.7731 20.105 48.9136 20.5774 49.7545 21.4183C50.5955 22.2592 51.0679 23.3997 51.0679 24.589V32.0368H3.33595V20.105Z" fill="#525252" stroke="#45413C" stroke-width="1.5" stroke-linejoin="round"/>
</svg>
