<svg xmlns="http://www.w3.org/2000/svg" version="1.1" xmlns:xlink="http://www.w3.org/1999/xlink" xmlns:svgjs="http://svgjs.com/svgjs" viewBox="0 0 160 160" width="160" height="160"><g transform="matrix(1.6,0,0,1.6,0,0)"><path d="M10.000 52.410 A40.000 40.000 0 1 0 90.000 52.410 A40.000 40.000 0 1 0 10.000 52.410 Z" fill="#c7f0ff" stroke="#c7f0ff" stroke-miterlimit="10"></path><path d="M33.951 80.871 A16.451 1.898 0 1 0 66.853 80.871 A16.451 1.898 0 1 0 33.951 80.871 Z" fill="#45413c" opacity=".15"></path><path d="M50.73,30.721A1.9,1.9,0,0,1,47.9,28.962l.2-14.94a1.9,1.9,0,1,1,3.79.216l-.2,14.94A1.9,1.9,0,0,1,50.73,30.721Z" fill="#c0dceb" stroke="#45413c" stroke-linecap="round" stroke-linejoin="round"></path><path d="M58.611,13.1c.036-2.983-3.779-5.448-8.522-5.506s-8.618,2.313-8.654,5.3l-.029,2.388A1.214,1.214,0,0,0,42.6,16.5l14.75.18a1.212,1.212,0,0,0,1.227-1.2Z" fill="#adc4d9"></path><path d="M58.592,12.7a11.017,11.017,0,0,0-6.684-2.116c-4.743-.058-8.617,2.313-8.654,5.3l-.007.634L42.6,16.5a1.214,1.214,0,0,1-1.2-1.228l.029-2.388c.036-2.983,3.911-5.354,8.654-5.3C54.617,7.646,58.3,9.9,58.592,12.7Z" fill="#c7f0ff"></path><path d="M58.611,13.1c.036-2.983-3.779-5.448-8.522-5.506s-8.618,2.313-8.654,5.3l-.029,2.388A1.214,1.214,0,0,0,42.6,16.5l14.75.18a1.212,1.212,0,0,0,1.227-1.2Z" fill="none" stroke="#45413c" stroke-linecap="round" stroke-linejoin="round"></path><path d="M37.307,36.44a1.9,1.9,0,0,0,1.59-2.93l-7.57-12.882a1.9,1.9,0,1,0-3.186,2.063l7.57,12.882A1.9,1.9,0,0,0,37.307,36.44Z" fill="#c0dceb" stroke="#45413c" stroke-linecap="round" stroke-linejoin="round"></path><path d="M24.434,25.4c-1.117-1.783.276-4.668,3.111-6.443s6.038-1.77,7.155.013l.7,1.124a1.213,1.213,0,0,1-.384,1.672l-8.211,5.142a1.211,1.211,0,0,1-1.671-.384Z" fill="#adc4d9"></path><path d="M24.3,25.151a7.774,7.774,0,0,1,3.249-3.727c2.835-1.775,6.038-1.77,7.155.013l.238.38.081-.051a1.213,1.213,0,0,0,.384-1.672l-.7-1.124c-1.117-1.783-4.32-1.789-7.155-.013C24.838,20.652,23.446,23.358,24.3,25.151Z" fill="#c7f0ff"></path><path d="M24.434,25.4c-1.117-1.783.276-4.668,3.111-6.443s6.038-1.77,7.155.013l.7,1.124a1.213,1.213,0,0,1-.384,1.672l-8.211,5.142a1.211,1.211,0,0,1-1.671-.384Z" fill="none" stroke="#45413c" stroke-linecap="round" stroke-linejoin="round"></path><path d="M62.65,36.44a1.9,1.9,0,0,1-1.591-2.93l7.57-12.882a1.9,1.9,0,1,1,3.187,2.063l-7.57,12.882A1.9,1.9,0,0,1,62.65,36.44Z" fill="#c0dceb" stroke="#45413c" stroke-linecap="round" stroke-linejoin="round"></path><path d="M75.523,25.4c1.117-1.783-.276-4.668-3.111-6.443s-6.039-1.77-7.155.013l-.7,1.124a1.213,1.213,0,0,0,.384,1.672l8.21,5.142a1.213,1.213,0,0,0,1.672-.384Z" fill="#adc4d9"></path><path d="M75.659,25.151a7.772,7.772,0,0,0-3.248-3.727c-2.835-1.775-6.039-1.77-7.155.013l-.238.38-.081-.051a1.213,1.213,0,0,1-.384-1.672l.7-1.124c1.116-1.783,4.32-1.789,7.155-.013C75.118,20.652,76.511,23.358,75.659,25.151Z" fill="#c7f0ff"></path><path d="M75.523,25.4c1.117-1.783-.276-4.668-3.111-6.443s-6.039-1.77-7.155.013l-.7,1.124a1.213,1.213,0,0,0,.384,1.672l8.21,5.142a1.213,1.213,0,0,0,1.672-.384Z" fill="none" stroke="#45413c" stroke-linecap="round" stroke-linejoin="round"></path><path d="M20.869 51.191 A29.106 29.106 0 1 0 79.081 51.191 A29.106 29.106 0 1 0 20.869 51.191 Z" fill="#adc4d9"></path><path d="M78.917,54.3a29.1,29.1,0,0,0-57.889-.054A29.107,29.107,0,1,1,79.081,51.2,29.639,29.639,0,0,1,78.917,54.3Z" fill="#c7f0ff"></path><path d="M20.869 51.191 A29.106 29.106 0 1 0 79.081 51.191 A29.106 29.106 0 1 0 20.869 51.191 Z" fill="none" stroke="#45413c" stroke-linecap="round" stroke-linejoin="round"></path><path d="M25.963 50.987 A24.044 24.044 0 1 0 74.051 50.987 A24.044 24.044 0 1 0 25.963 50.987 Z" fill="#ffffff"></path><path d="M73.915,53.557a24.042,24.042,0,0,0-47.821-.044A24.045,24.045,0,1,1,74.051,51,24.589,24.589,0,0,1,73.915,53.557Z" fill="#c7f0ff"></path><path d="M25.963 50.987 A24.044 24.044 0 1 0 74.051 50.987 A24.044 24.044 0 1 0 25.963 50.987 Z" fill="none" stroke="#45413c" stroke-linecap="round" stroke-linejoin="round"></path><path d="M67.541,56.81l-3.166-1.83a14.987,14.987,0,0,0,0-7.579l3.166-1.83a1.565,1.565,0,0,0,.573-2.139l-2.35-4.071a1.565,1.565,0,0,0-2.141-.572l-3.169,1.827a14.854,14.854,0,0,0-6.561-3.789V33.169A1.567,1.567,0,0,0,52.326,31.6h-4.7a1.567,1.567,0,0,0-1.567,1.567v3.658A14.854,14.854,0,0,0,39.5,40.616l-3.169-1.827a1.563,1.563,0,0,0-2.14.572l-2.351,4.071a1.565,1.565,0,0,0,.573,2.139l3.166,1.83a14.987,14.987,0,0,0,0,7.579l-3.166,1.83a1.565,1.565,0,0,0-.573,2.139l2.351,4.071a1.563,1.563,0,0,0,2.14.572L39.5,61.765a14.844,14.844,0,0,0,6.561,3.789v3.658a1.567,1.567,0,0,0,1.567,1.567h4.7a1.567,1.567,0,0,0,1.567-1.567V65.554a14.844,14.844,0,0,0,6.561-3.789l3.169,1.827a1.565,1.565,0,0,0,2.141-.572l2.35-4.071A1.565,1.565,0,0,0,67.541,56.81ZM49.975,58.947a7.757,7.757,0,1,1,7.757-7.756A7.756,7.756,0,0,1,49.975,58.947Z" fill="#ebcb00"></path><path d="M60.454,40.616a14.854,14.854,0,0,0-6.561-3.789V33.169A1.567,1.567,0,0,0,52.326,31.6h-4.7a1.567,1.567,0,0,0-1.567,1.567v3.658A14.854,14.854,0,0,0,39.5,40.616l-3.169-1.827a1.563,1.563,0,0,0-2.14.572l-2.351,4.071a1.565,1.565,0,0,0,.573,2.139l3.166,1.83a14.987,14.987,0,0,0,0,7.579l-3.166,1.83a1.565,1.565,0,0,0-.573,2.139l2.351,4.071a1.563,1.563,0,0,0,2.14.572l2.949-1.7,5.216-5.215a7.757,7.757,0,1,1,10.969-10.97l5.225-5.225Z" fill="#ffe500"></path><path d="M67.541,56.81l-3.166-1.83a14.987,14.987,0,0,0,0-7.579l3.166-1.83a1.565,1.565,0,0,0,.573-2.139l-2.35-4.071a1.565,1.565,0,0,0-2.141-.572l-3.169,1.827a14.854,14.854,0,0,0-6.561-3.789V33.169A1.567,1.567,0,0,0,52.326,31.6h-4.7a1.567,1.567,0,0,0-1.567,1.567v3.658A14.854,14.854,0,0,0,39.5,40.616l-3.169-1.827a1.563,1.563,0,0,0-2.14.572l-2.351,4.071a1.565,1.565,0,0,0,.573,2.139l3.166,1.83a14.987,14.987,0,0,0,0,7.579l-3.166,1.83a1.565,1.565,0,0,0-.573,2.139l2.351,4.071a1.563,1.563,0,0,0,2.14.572L39.5,61.765a14.844,14.844,0,0,0,6.561,3.789v3.658a1.567,1.567,0,0,0,1.567,1.567h4.7a1.567,1.567,0,0,0,1.567-1.567V65.554a14.844,14.844,0,0,0,6.561-3.789l3.169,1.827a1.565,1.565,0,0,0,2.141-.572l2.35-4.071A1.565,1.565,0,0,0,67.541,56.81ZM49.975,58.947a7.757,7.757,0,1,1,7.757-7.756A7.756,7.756,0,0,1,49.975,58.947Z" fill="none" stroke="#45413c" stroke-linecap="round" stroke-linejoin="round"></path><path d="M49.99,52.253a1.266,1.266,0,0,1-.945-2.107L59.174,38.761a1.265,1.265,0,0,1,1.891,1.682L50.936,51.828A1.259,1.259,0,0,1,49.99,52.253Z" fill="#e0e0e0" stroke="#45413c" stroke-linecap="round" stroke-linejoin="round"></path><path d="M49.006,51.782a1.266,1.266,0,0,1,1.044-2.059l11.466.716a1.265,1.265,0,0,1-.119,2.528l-11.466-.716A1.264,1.264,0,0,1,49.006,51.782Z" fill="#ff6242" stroke="#45413c" stroke-linecap="round" stroke-linejoin="round"></path><path d="M46.211 50.987 A3.796 3.796 0 1 0 53.803 50.987 A3.796 3.796 0 1 0 46.211 50.987 Z" fill="#c7f0ff"></path><path d="M50.008,49.761a3.8,3.8,0,0,1,3.572,2.511,3.8,3.8,0,1,0-7.146,0A3.8,3.8,0,0,1,50.008,49.761Z" fill="#ffffff"></path><path d="M46.211 50.987 A3.796 3.796 0 1 0 53.803 50.987 A3.796 3.796 0 1 0 46.211 50.987 Z" fill="none" stroke="#45413c" stroke-linecap="round" stroke-linejoin="round"></path></g></svg>