<svg width="160" height="160" fill="none" xmlns="http://www.w3.org/2000/svg">
  <path d="M16 80c0 16.9739 6.7428 33.253 18.7452 45.255C46.7475 137.257 63.0261 144 80 144c16.9739 0 33.253-6.743 45.255-18.745C137.257 113.253 144 96.9739 144 80c0-16.9739-6.743-33.2525-18.745-45.2548C113.253 22.7428 96.9739 16 80 16c-16.9739 0-33.2525 6.7428-45.2548 18.7452C22.7428 46.7475 16 63.0261 16 80z" fill="#CDF2FF"/>
  <path d="M130.73 29.2695H29.4805v88.5935H130.73V29.2695z" fill="#F4B78E"/>
  <path opacity=".2" d="M130.73 114.622H29.4805v3.375H130.73v-3.375zM130.73 29.2695H29.4805v3.375H130.73v-3.375z" fill="#fff"/>
  <g opacity=".5" fill="#3F456B">
    <path opacity=".5" d="M80.1055 118.918a1.055 1.055 0 01-1.0547-1.055V29.2695a1.0547 1.0547 0 112.1094 0v88.5935a1.0551 1.0551 0 01-1.0547 1.055zM54.793 118.918a1.055 1.055 0 01-1.0547-1.055V29.2695a1.0547 1.0547 0 112.1094 0v88.5935a1.0551 1.0551 0 01-1.0547 1.055zM42.1367 118.918a1.055 1.055 0 01-1.0547-1.055V29.2695a1.0548 1.0548 0 011.8005-.7457c.1978.1977.3089.466.3089.7457v88.5935a1.055 1.055 0 01-1.0547 1.055zM67.4492 118.918a1.055 1.055 0 01-1.0547-1.055V29.2695a1.0548 1.0548 0 011.8005-.7457c.1978.1977.3089.466.3089.7457v88.5935a1.055 1.055 0 01-1.0547 1.055zM92.7617 118.918a1.054 1.054 0 01-.7458-.309 1.0555 1.0555 0 01-.3089-.746V29.2695a1.0548 1.0548 0 012.1094 0v88.5935a1.055 1.055 0 01-1.0547 1.055zM118.074 118.918c-.28 0-.548-.111-.746-.309a1.0575 1.0575 0 01-.308-.746V29.2695c0-.2797.111-.548.308-.7457a1.0551 1.0551 0 011.801.7457v88.5935c0 .28-.111.548-.309.746-.198.198-.466.309-.746.309zM105.418 118.918c-.28 0-.548-.111-.746-.309a1.0543 1.0543 0 01-.309-.746V29.2695a1.0551 1.0551 0 012.11 0v88.5935c0 .28-.111.548-.309.746-.198.198-.466.309-.746.309z"/>
    <path opacity=".5" d="M130.73 68.293H29.4805a1.0546 1.0546 0 01-.7458-1.8005 1.0546 1.0546 0 01.7458-.3089H130.73a1.055 1.055 0 011.055 1.0547 1.055 1.055 0 01-1.055 1.0547zM130.73 42.9805H29.4805a1.0546 1.0546 0 01-.7458-1.8005 1.0546 1.0546 0 01.7458-.3089H130.73a1.055 1.055 0 011.055 1.0547 1.055 1.055 0 01-1.055 1.0547zM130.73 55.6367H29.4805a1.0546 1.0546 0 01-.7458-1.8004c.1978-.1978.466-.309.7458-.309H130.73a1.0551 1.0551 0 011.055 1.0547 1.055 1.055 0 01-1.055 1.0547zM130.73 80.9492H29.4805a1.0546 1.0546 0 01-.7458-1.8004c.1978-.1978.466-.309.7458-.309H130.73a1.0551 1.0551 0 011.055 1.0547 1.055 1.055 0 01-1.055 1.0547zM130.73 106.262H29.4805a1.055 1.055 0 010-2.11H130.73c.28 0 .548.111.746.309.198.198.309.466.309.746 0 .28-.111.548-.309.746-.198.198-.466.309-.746.309zM130.73 93.6055H29.4805a1.055 1.055 0 01-1.0547-1.0547 1.0547 1.0547 0 011.0547-1.0547H130.73a1.055 1.055 0 011.055 1.0547c0 .2797-.111.548-.309.7458a1.0555 1.0555 0 01-.746.3089z"/>
  </g>
  <path d="M80.1055 71.668c2.4464 0 4.4297-1.9833 4.4297-4.4297 0-2.4465-1.9833-4.4297-4.4297-4.4297-2.4465 0-4.4297 1.9832-4.4297 4.4297 0 2.4464 1.9832 4.4297 4.4297 4.4297z" fill="#767C93"/>
  <path opacity=".2" d="M75.6945 67.6348s.4219-2.5755 4.4108-2.5755c3.989 0 4.4108 2.5755 4.4108 2.5755s.1941-4.8262-4.4108-4.8262c-4.6048 0-4.4108 4.8262-4.4108 4.8262z" fill="#fff"/>
  <path opacity=".3" d="M84.5161 66.8428s-.4218 2.5755-4.4108 2.5755c-3.9889 0-4.4108-2.5755-4.4108-2.5755s-.194 4.8262 4.4108 4.8262c4.6049 0 4.4108-4.8262 4.4108-4.8262z" fill="#3F456B"/>
  <path opacity=".3" d="M84.5161 69.1367s-.4218 2.7422-4.4108 2.7422c-3.9889 0-4.4108-2.7422-4.4108-2.7422s-.194 5.1427 4.4108 5.1427c4.6049 0 4.4108-5.1427 4.4108-5.1427z" fill="#3F456B"/>
  <path d="M54.793 97.1233c2.4464 0 4.4297-1.9832 4.4297-4.4297 0-2.4464-1.9833-4.4297-4.4297-4.4297-2.4465 0-4.4297 1.9833-4.4297 4.4297 0 2.4465 1.9832 4.4297 4.4297 4.4297z" fill="#767C93"/>
  <path opacity=".2" d="M50.382 93.0902s.4219-2.5777 4.4107-2.5777c3.9888 0 4.4107 2.5777 4.4107 2.5777s.194-4.8263-4.4107-4.8263-4.4107 4.8263-4.4107 4.8263z" fill="#fff"/>
  <path opacity=".3" d="M59.2034 92.2959s-.4219 2.5755-4.4107 2.5755c-3.9888 0-4.4107-2.5755-4.4107-2.5755s-.194 4.8263 4.4107 4.8263 4.4107-4.8263 4.4107-4.8263z" fill="#3F456B"/>
  <path opacity=".3" d="M59.2034 94.5898s-.4219 2.7422-4.4107 2.7422c-3.9888 0-4.4107-2.7422-4.4107-2.7422s-.194 5.1427 4.4107 5.1427 4.4107-5.1427 4.4107-5.1427z" fill="#3F456B"/>
  <path d="M105.418 84.1833c2.446 0 4.43-1.9832 4.43-4.4295 0-2.4464-1.984-4.4296-4.43-4.4296-2.446 0-4.43 1.9832-4.43 4.4296 0 2.4463 1.984 4.4295 4.43 4.4295z" fill="#767C93"/>
  <path opacity=".2" d="M101.007 80.1502s.422-2.5754 4.411-2.5754c3.989 0 4.411 2.5754 4.411 2.5754s.194-4.826-4.411-4.826c-4.605 0-4.411 4.826-4.411 4.826z" fill="#fff"/>
  <path opacity=".3" d="M109.829 79.3672s-.422 2.5776-4.411 2.5776c-3.989 0-4.411-2.5776-4.411-2.5776s-.194 4.8262 4.411 4.8262c4.605 0 4.411-4.8262 4.411-4.8262z" fill="#3F456B"/>
  <path opacity=".3" d="M109.829 81.6501s-.422 2.7422-4.411 2.7422c-3.989 0-4.411-2.7422-4.411-2.7422s-.194 5.1427 4.411 5.1427c4.605 0 4.411-5.1427 4.411-5.1427z" fill="#3F456B"/>
  <path d="M54.793 84.1833c2.4464 0 4.4297-1.9832 4.4297-4.4295 0-2.4464-1.9833-4.4296-4.4297-4.4296-2.4465 0-4.4297 1.9832-4.4297 4.4296 0 2.4463 1.9832 4.4295 4.4297 4.4295z" fill="#767C93"/>
  <path opacity=".2" d="M50.382 80.1502s.4219-2.5754 4.4107-2.5754c3.9888 0 4.4107 2.5754 4.4107 2.5754s.194-4.826-4.4107-4.826-4.4107 4.826-4.4107 4.826z" fill="#fff"/>
  <path opacity=".3" d="M59.2034 79.3672s-.4219 2.5776-4.4107 2.5776c-3.9888 0-4.4107-2.5776-4.4107-2.5776s-.194 4.8262 4.4107 4.8262 4.4107-4.8262 4.4107-4.8262z" fill="#3F456B"/>
  <path opacity=".3" d="M59.2034 81.6501s-.4219 2.7422-4.4107 2.7422c-3.9888 0-4.4107-2.7422-4.4107-2.7422s-.194 5.1427 4.4107 5.1427 4.4107-5.1427 4.4107-5.1427z" fill="#3F456B"/>
  <path d="M67.4492 97.1233c2.4465 0 4.4297-1.9832 4.4297-4.4297 0-2.4464-1.9832-4.4297-4.4297-4.4297-2.4464 0-4.4297 1.9833-4.4297 4.4297 0 2.4465 1.9833 4.4297 4.4297 4.4297z" fill="#767C93"/>
  <path opacity=".2" d="M63.0383 93.0902s.4219-2.5777 4.4107-2.5777c3.9887 0 4.4106 2.5777 4.4106 2.5777s.1941-4.8263-4.4106-4.8263c-4.6048 0-4.4107 4.8263-4.4107 4.8263z" fill="#fff"/>
  <path opacity=".3" d="M71.8596 92.2959s-.4219 2.5755-4.4106 2.5755c-3.9888 0-4.4107-2.5755-4.4107-2.5755s-.1941 4.8263 4.4107 4.8263c4.6047 0 4.4106-4.8263 4.4106-4.8263z" fill="#3F456B"/>
  <path opacity=".3" d="M71.8596 94.5898s-.4219 2.7422-4.4106 2.7422c-3.9888 0-4.4107-2.7422-4.4107-2.7422s-.1941 5.1427 4.4107 5.1427c4.6047 0 4.4106-5.1427 4.4106-5.1427zM97.1724 56.4387s-.4219 2.7422-4.4108 2.7422-4.4108-2.7422-4.4108-2.7422-.1941 5.1427 4.4108 5.1427 4.4108-5.1427 4.4108-5.1427z" fill="#3F456B"/>
  <path d="M92.7617 59.0117c2.4465 0 4.4297-1.9832 4.4297-4.4297 0-2.4464-1.9832-4.4297-4.4297-4.4297-2.4464 0-4.4297 1.9833-4.4297 4.4297 0 2.4465 1.9833 4.4297 4.4297 4.4297z" fill="#F5F6F7"/>
  <path opacity=".7" d="M88.3508 54.9786s.4219-2.5756 4.4108-2.5756 4.4108 2.5756 4.4108 2.5756.1941-4.8263-4.4108-4.8263-4.4108 4.8263-4.4108 4.8263z" fill="#fff"/>
  <path opacity=".15" d="M97.1724 54.1865s-.4219 2.5756-4.4108 2.5756-4.4108-2.5756-4.4108-2.5756-.1941 4.8263 4.4108 4.8263 4.4108-4.8263 4.4108-4.8263z" fill="#3F456B"/>
  <path opacity=".3" d="M109.829 56.4387s-.422 2.7422-4.411 2.7422c-3.989 0-4.411-2.7422-4.411-2.7422s-.194 5.1427 4.411 5.1427c4.605 0 4.411-5.1427 4.411-5.1427z" fill="#3F456B"/>
  <path d="M105.418 59.0117c2.446 0 4.43-1.9832 4.43-4.4297 0-2.4464-1.984-4.4297-4.43-4.4297-2.446 0-4.43 1.9833-4.43 4.4297 0 2.4465 1.984 4.4297 4.43 4.4297z" fill="#F5F6F7"/>
  <path opacity=".7" d="M101.007 54.9786s.422-2.5756 4.411-2.5756c3.989 0 4.411 2.5756 4.411 2.5756s.194-4.8263-4.411-4.8263c-4.605 0-4.411 4.8263-4.411 4.8263z" fill="#fff"/>
  <path opacity=".15" d="M109.829 54.1865s-.422 2.5756-4.411 2.5756c-3.989 0-4.411-2.5756-4.411-2.5756s-.194 4.8263 4.411 4.8263c4.605 0 4.411-4.8263 4.411-4.8263z" fill="#3F456B"/>
  <path opacity=".3" d="M59.2034 43.677s-.4219 2.7422-4.4107 2.7422c-3.9888 0-4.4107-2.7422-4.4107-2.7422s-.194 5.1427 4.4107 5.1427 4.4107-5.1427 4.4107-5.1427z" fill="#3F456B"/>
  <path d="M54.793 46.25c2.4464 0 4.4297-1.9832 4.4297-4.4297 0-2.4464-1.9833-4.4297-4.4297-4.4297-2.4465 0-4.4297 1.9833-4.4297 4.4297 0 2.4465 1.9832 4.4297 4.4297 4.4297z" fill="#F5F6F7"/>
  <path opacity=".7" d="M50.382 42.2169s.4219-2.5756 4.4107-2.5756c3.9888 0 4.4107 2.5756 4.4107 2.5756s.194-4.8263-4.4107-4.8263-4.4107 4.8263-4.4107 4.8263z" fill="#fff"/>
  <path opacity=".15" d="M59.2034 41.4248s-.4219 2.5756-4.4107 2.5756c-3.9888 0-4.4107-2.5756-4.4107-2.5756s-.194 4.8263 4.4107 4.8263 4.4107-4.8263 4.4107-4.8263z" fill="#3F456B"/>
  <path opacity=".3" d="M122.485 94.2932s-.422 2.7422-4.411 2.7422c-3.989 0-4.411-2.7422-4.411-2.7422s-.194 5.1427 4.411 5.1427c4.605 0 4.411-5.1427 4.411-5.1427z" fill="#3F456B"/>
  <path d="M118.074 96.8662c2.447 0 4.43-1.9832 4.43-4.4297 0-2.4464-1.983-4.4297-4.43-4.4297-2.446 0-4.429 1.9833-4.429 4.4297 0 2.4465 1.983 4.4297 4.429 4.4297z" fill="#F5F6F7"/>
  <path opacity=".7" d="M113.663 92.8313s.422-2.5755 4.411-2.5755c3.989 0 4.411 2.5755 4.411 2.5755s.194-4.8157-4.411-4.8157c-4.605 0-4.411 4.8157-4.411 4.8157z" fill="#fff"/>
  <path opacity=".15" d="M122.485 92.0366s-.422 2.5756-4.411 2.5756c-3.989 0-4.411-2.5756-4.411-2.5756s-.194 4.8368 4.411 4.8368c4.605 0 4.411-4.8368 4.411-4.8368z" fill="#3F456B"/>
  <path opacity=".3" d="M46.5472 107.101s-.4219 2.742-4.4107 2.742c-3.9888 0-4.4107-2.742-4.4107-2.742s-.1941 5.143 4.4107 5.143 4.4107-5.143 4.4107-5.143z" fill="#3F456B"/>
  <path d="M42.1367 109.674c2.4465 0 4.4297-1.983 4.4297-4.43 0-2.446-1.9832-4.429-4.4297-4.429-2.4464 0-4.4297 1.983-4.4297 4.429 0 2.447 1.9833 4.43 4.4297 4.43z" fill="#F5F6F7"/>
  <path opacity=".7" d="M37.7258 105.641s.4219-2.578 4.4107-2.578c3.9888 0 4.4107 2.578 4.4107 2.578s.1941-4.826-4.4107-4.826-4.4107 4.826-4.4107 4.826z" fill="#fff"/>
  <path opacity=".15" d="M46.5472 104.847s-.4282 2.575-4.4107 2.575c-3.9825 0-4.4107-2.575-4.4107-2.575s-.1941 4.826 4.4107 4.826 4.4107-4.826 4.4107-4.826z" fill="#3F456B"/>
  <path d="M130.73 117.863v12.657H29.4805v-12.657" fill="#F4B78E"/>
  <path opacity=".2" d="M130.73 117.863H29.4805v12.657H130.73v-12.657z" fill="#3F456B"/>
  <path d="M130.73 118.918H29.4805a1.055 1.055 0 01-1.0547-1.055V29.2695a1.0547 1.0547 0 011.0547-1.0547H130.73a1.0551 1.0551 0 011.055 1.0547v88.5935c0 .28-.111.548-.309.746-.198.198-.466.309-.746.309zm-100.1948-2.109h99.1408V30.3242H30.5352v86.4848z" fill="#3F456B"/>
  <path d="M80.1055 72.7228a5.485 5.485 0 01-5.0669-3.3856 5.4848 5.4848 0 011.1889-5.9769 5.4842 5.4842 0 019.3625 3.8781 5.484 5.484 0 01-1.6064 3.878 5.4841 5.4841 0 01-3.8781 1.6064zm0-8.8595a3.3752 3.3752 0 00-2.3865 5.7616 3.3748 3.3748 0 003.6781.7316 3.3752 3.3752 0 001.095-5.5047 3.3753 3.3753 0 00-2.3866-.9885zM54.7929 98.1778a5.4845 5.4845 0 01-3.878-9.3623 5.484 5.484 0 015.9768-1.1888 5.4843 5.4843 0 01-2.0988 10.5511zm0-8.8592a3.3751 3.3751 0 00-3.118 2.0834 3.3745 3.3745 0 00.7316 3.6779 3.3747 3.3747 0 005.1926-.5114 3.3744 3.3744 0 00-.4197-4.2614 3.3747 3.3747 0 00-2.3865-.9885zM105.418 85.2381a5.4842 5.4842 0 01-1.07-10.8632 5.486 5.486 0 013.169.3121 5.4862 5.4862 0 012.461 2.0199 5.481 5.481 0 01.924 3.0469 5.486 5.486 0 01-1.606 3.878 5.4861 5.4861 0 01-3.878 1.6063zm0-8.8592c-.668 0-1.32.1979-1.875.5688a3.3717 3.3717 0 00-1.243 1.5146 3.3723 3.3723 0 00-.192 1.95 3.3725 3.3725 0 002.651 2.6516 3.3755 3.3755 0 004.034-3.3101 3.375 3.375 0 00-.989-2.3864 3.3743 3.3743 0 00-2.386-.9885zM54.7929 85.2381a5.4844 5.4844 0 11-.0001-10.9687 5.4844 5.4844 0 01.0001 10.9687zm0-8.8592a3.3744 3.3744 0 00-3.118 2.0834 3.3748 3.3748 0 004.4096 4.4096 3.375 3.375 0 00-1.2916-6.493zM67.4493 98.1778a5.4848 5.4848 0 01-5.067-3.3856 5.4841 5.4841 0 013.997-7.4776 5.4848 5.4848 0 015.6301 2.332 5.4844 5.4844 0 01-4.5601 8.5312zm0-8.8592a3.3751 3.3751 0 101.2916 6.4929 3.3743 3.3743 0 002.0834-3.118 3.3749 3.3749 0 00-3.375-3.3749zM92.7616 60.0663a5.4844 5.4844 0 11-.0001-10.9687 5.4844 5.4844 0 01.0001 10.9687zm0-8.8593a3.3752 3.3752 0 00-3.3101 4.0334 3.3745 3.3745 0 004.6017 2.4597 3.3756 3.3756 0 002.0834-3.1181 3.3753 3.3753 0 00-3.375-3.375zM105.418 60.0663a5.4842 5.4842 0 01-1.07-10.8633 5.486 5.486 0 013.169.3121 5.4864 5.4864 0 012.461 2.02 5.481 5.481 0 01.924 3.0469 5.4862 5.4862 0 01-1.606 3.878 5.4861 5.4861 0 01-3.878 1.6063zm0-8.8593c-.668 0-1.32.198-1.875.5688-.555.3709-.988.898-1.243 1.5147a3.3719 3.3719 0 00-.192 1.9499 3.3724 3.3724 0 002.651 2.6517 3.375 3.375 0 004.034-3.3101c0-.8951-.356-1.7535-.989-2.3865a3.3743 3.3743 0 00-2.386-.9885zM54.7929 47.3046a5.4837 5.4837 0 01-5.0668-3.3856 5.4843 5.4843 0 115.0668 3.3856zm0-8.8593a3.3744 3.3744 0 00-3.118 2.0834 3.3748 3.3748 0 002.4596 4.6017 3.3752 3.3752 0 003.0449-5.6966 3.3751 3.3751 0 00-2.3865-.9885zM118.074 97.9295a5.4843 5.4843 0 114.56-8.5312 5.481 5.481 0 01.924 3.0469 5.482 5.482 0 01-1.606 3.878 5.4826 5.4826 0 01-3.878 1.6063zm0-8.8592c-.667 0-1.32.1979-1.875.5688a3.3782 3.3782 0 00-1.243 1.5146 3.374 3.374 0 00.732 3.678c.472.472 1.073.7934 1.728.9236a3.3764 3.3764 0 001.95-.192 3.3784 3.3784 0 001.514-1.2431c.371-.555.569-1.2075.569-1.875 0-.8951-.356-1.7535-.988-2.3864a3.3762 3.3762 0 00-2.387-.9885zM42.1367 110.729a5.4817 5.4817 0 01-3.0469-.925 5.481 5.481 0 01-2.02-2.461 5.4852 5.4852 0 01-.3121-3.169 5.4837 5.4837 0 014.309-4.3086 5.4888 5.4888 0 013.1688.3116 5.4902 5.4902 0 012.4613 2.02c.6026.902.9242 1.963.9242 3.047 0 1.455-.5778 2.85-1.6063 3.878a5.483 5.483 0 01-3.878 1.607zm0-8.86a3.3744 3.3744 0 00-3.1181 2.084 3.374 3.374 0 00-.192 1.95 3.3724 3.3724 0 002.6517 2.651 3.3638 3.3638 0 001.9499-.192 3.3725 3.3725 0 001.5147-1.243 3.374 3.374 0 00-.4197-4.261 3.3754 3.3754 0 00-2.3865-.989z" fill="#384169"/>
  <path d="M130.73 131.574H29.4805c-.2798 0-.548-.111-.7458-.309a1.0527 1.0527 0 01-.3089-.745v-12.657c0-.279.1111-.548.3089-.745.1978-.198.466-.309.7458-.309.2797 0 .548.111.7457.309.1978.197.309.466.309.745v11.602h99.1408v-11.602c0-.279.111-.548.309-.745.197-.198.466-.309.745-.309.28 0 .548.111.746.309.198.197.309.466.309.745v12.657c0 .279-.111.548-.309.745-.198.198-.466.309-.746.309z" fill="#3F456B"/>
</svg>
