<svg xmlns="http://www.w3.org/2000/svg" version="1.1" xmlns:xlink="http://www.w3.org/1999/xlink" xmlns:svgjs="http://svgjs.com/svgjs" viewBox="0 0 160 160" width="160" height="160"><g transform="matrix(1.6,0,0,1.6,0,0)"><path d="M90,49.75a40,40,0,1,0-76.436,16.5H86.436A39.844,39.844,0,0,0,90,49.75Z" fill="#c7f0ff"></path><path d="M13.564,66.25a40,40,0,0,0,72.872,0Z" fill="#adc4d9"></path><path d="M11 66.25L89 66.25" fill="none" stroke="#45413c" stroke-linecap="round" stroke-linejoin="round"></path><path d="M6.5 66.25L9 66.25" fill="none" stroke="#45413c" stroke-linecap="round" stroke-linejoin="round"></path><path d="M91 66.25L93.5 66.25" fill="none" stroke="#45413c" stroke-linecap="round" stroke-linejoin="round"></path><path d="M15.672 73.417 A33.667 1.667 0 1 0 83.006 73.417 A33.667 1.667 0 1 0 15.672 73.417 Z" fill="#45413c" opacity=".15"></path><path d="M87.679,63.884a1.66,1.66,0,1,1,0,3.319H45.363a3.319,3.319,0,0,1,3.319-3.319Z" fill="#656769" stroke="#45413c" stroke-linecap="round" stroke-linejoin="round"></path><path d="M13,63.884h9.957V67.2H13a1.66,1.66,0,0,1,0-3.319Z" fill="#656769" stroke="#45413c" stroke-linecap="round" stroke-linejoin="round"></path><path d="M13,52.273a1.963,1.963,0,0,1,1.642-1.938l8.315-1.386V35.622a3.267,3.267,0,0,1,3.267-3.268H81.865a4.978,4.978,0,0,1,4.979,4.979V63.884H48.676A3.319,3.319,0,0,0,45.357,67.2H28.763A5.808,5.808,0,0,0,22.955,61.4v2.489H13Z" fill="#ffe500"></path><path d="M13,52.273a1.963,1.963,0,0,1,1.642-1.938l8.315-1.386a2.939,2.939,0,0,1-2.455,2.9l-5.86.977A1.964,1.964,0,0,0,13,54.762Z" fill="#fff48c"></path><path d="M86.844,39.822a4.977,4.977,0,0,0-4.979-4.978H26.222a3.267,3.267,0,0,0-3.267,3.267V35.622a3.267,3.267,0,0,1,3.267-3.268H81.865a4.978,4.978,0,0,1,4.979,4.979Z" fill="#fff48c"></path><path d="M13,52.273a1.963,1.963,0,0,1,1.642-1.938l8.315-1.386V35.622a3.267,3.267,0,0,1,3.267-3.268H81.865a4.978,4.978,0,0,1,4.979,4.979V63.884H48.676A3.319,3.319,0,0,0,45.357,67.2H28.763A5.808,5.808,0,0,0,22.955,61.4v2.489H13Z" fill="none" stroke="#45413c" stroke-linecap="round" stroke-linejoin="round"></path><path d="M32.088,67.2h9.956V40.651a2.489,2.489,0,0,0-2.488-2.489h-4.98a2.489,2.489,0,0,0-2.488,2.489Z" fill="#656769"></path><path d="M32.088,40.652h9.956a2.489,2.489,0,0,0-2.489-2.49H34.577A2.489,2.489,0,0,0,32.088,40.652Z" fill="#525252"></path><path d="M32.088,67.2h9.956V40.651a2.489,2.489,0,0,0-2.488-2.489h-4.98a2.489,2.489,0,0,0-2.488,2.489Z" fill="none" stroke="#45413c" stroke-linecap="round" stroke-linejoin="round"></path><path d="M22.961,38.162H26.28a1.66,1.66,0,0,1,1.659,1.66v7.467a1.785,1.785,0,0,1-1.659,1.66H22.961Z" fill="#00b8f0"></path><path d="M27.933,40.237v-.415a1.66,1.66,0,0,0-1.659-1.66H22.955v7.053Z" fill="#4acfff"></path><path d="M22.961,38.162H26.28a1.66,1.66,0,0,1,1.659,1.66v7.467a1.785,1.785,0,0,1-1.659,1.66H22.961Z" fill="none" stroke="#45413c" stroke-linecap="round" stroke-linejoin="round"></path><path d="M56.974 67.203 A5.808 5.808 0 1 0 68.590 67.203 A5.808 5.808 0 1 0 56.974 67.203 Z" fill="#525252"></path><path d="M62.782,63.884a5.8,5.8,0,0,0-5.667,4.563A5.805,5.805,0,1,1,68.59,67.2a5.862,5.862,0,0,1-.141,1.244A5.806,5.806,0,0,0,62.782,63.884Z" fill="#656769"></path><path d="M56.974 67.203 A5.808 5.808 0 1 0 68.590 67.203 A5.808 5.808 0 1 0 56.974 67.203 Z" fill="none" stroke="#45413c" stroke-linecap="round" stroke-linejoin="round"></path><path d="M60.293 67.203 A2.489 2.489 0 1 0 65.271 67.203 A2.489 2.489 0 1 0 60.293 67.203 Z" fill="#bdbec0"></path><path d="M62.782,66.788a2.485,2.485,0,0,0-2.257,1.452,2.49,2.49,0,1,1,4.513,0A2.484,2.484,0,0,0,62.782,66.788Z" fill="#e0e0e0"></path><path d="M60.293 67.203 A2.489 2.489 0 1 0 65.271 67.203 A2.489 2.489 0 1 0 60.293 67.203 Z" fill="none" stroke="#45413c" stroke-linecap="round" stroke-linejoin="round"></path><path d="M17.147 67.203 A5.808 5.808 0 1 0 28.763 67.203 A5.808 5.808 0 1 0 17.147 67.203 Z" fill="#525252"></path><path d="M22.955,63.884a5.8,5.8,0,0,0-5.667,4.563,5.808,5.808,0,1,1,11.334,0A5.806,5.806,0,0,0,22.955,63.884Z" fill="#656769"></path><path d="M17.147 67.203 A5.808 5.808 0 1 0 28.763 67.203 A5.808 5.808 0 1 0 17.147 67.203 Z" fill="none" stroke="#45413c" stroke-linecap="round" stroke-linejoin="round"></path><path d="M20.466 67.203 A2.489 2.489 0 1 0 25.444 67.203 A2.489 2.489 0 1 0 20.466 67.203 Z" fill="#bdbec0"></path><path d="M22.955,66.788A2.486,2.486,0,0,0,20.7,68.24a2.49,2.49,0,1,1,4.513,0A2.484,2.484,0,0,0,22.955,66.788Z" fill="#e0e0e0"></path><path d="M20.466 67.203 A2.489 2.489 0 1 0 25.444 67.203 A2.489 2.489 0 1 0 20.466 67.203 Z" fill="none" stroke="#45413c" stroke-linecap="round" stroke-linejoin="round"></path><path d="M32.082 63.884H42.039V67.203H32.082z" fill="#ffe500" stroke="#45413c" stroke-linecap="round" stroke-linejoin="round"></path><path d="M32.082 60.565H42.039V63.884H32.082z" fill="#ffe500" stroke="#45413c" stroke-linecap="round" stroke-linejoin="round"></path><path d="M22.955 38.162L17.976 38.162" fill="none" stroke="#45413c" stroke-linecap="round" stroke-linejoin="round"></path><path d="M14.664,42.311a1.66,1.66,0,0,0,1.659,1.66h1.659V38.162H16.323a1.659,1.659,0,0,0-1.659,1.66Z" fill="#525252" stroke="#45413c" stroke-linecap="round" stroke-linejoin="round"></path><path d="M62.782,61.4a5.791,5.791,0,0,0-4.757,2.489H54.286a9.117,9.117,0,0,1,16.991,0H67.539A5.794,5.794,0,0,0,62.782,61.4Z" fill="#ffe500"></path><path d="M62.782,60.15a9.079,9.079,0,0,0-7.332,3.734H54.286a9.117,9.117,0,0,1,16.991,0H70.113A9.079,9.079,0,0,0,62.782,60.15Z" fill="#fff48c"></path><path d="M62.782,61.4a5.791,5.791,0,0,0-4.757,2.489H54.286a9.117,9.117,0,0,1,16.991,0H67.539A5.794,5.794,0,0,0,62.782,61.4Z" fill="none" stroke="#45413c" stroke-linecap="round" stroke-linejoin="round"></path><path d="M18.2,63.884H14.46A9.123,9.123,0,0,1,32.082,67.2H28.763A5.8,5.8,0,0,0,18.2,63.884Z" fill="#ffe500"></path><path d="M22.955,60.565a9.075,9.075,0,0,0-7.015,3.319H14.46A9.123,9.123,0,0,1,32.082,67.2h-.353A9.124,9.124,0,0,0,22.955,60.565Z" fill="#fff48c"></path><path d="M18.2,63.884H14.46A9.123,9.123,0,0,1,32.082,67.2H28.763A5.8,5.8,0,0,0,18.2,63.884Z" fill="none" stroke="#45413c" stroke-linecap="round" stroke-linejoin="round"></path><path d="M83.525 60.565L72.738 60.565" fill="none" stroke="#45413c" stroke-linecap="round" stroke-linejoin="round"></path><path d="M52.825 60.565L45.357 60.565" fill="none" stroke="#45413c" stroke-linecap="round" stroke-linejoin="round"></path><path d="M83.525 57.246L71.079 57.246" fill="none" stroke="#45413c" stroke-linecap="round" stroke-linejoin="round"></path><path d="M55.314 57.246L45.357 57.246" fill="none" stroke="#45413c" stroke-linecap="round" stroke-linejoin="round"></path><path d="M47.023,51.438A1.659,1.659,0,0,0,48.682,53.1H53.66a1.66,1.66,0,0,0,1.66-1.66V45.63h-8.3Z" fill="#656769"></path><path d="M47.017 45.63H55.31400000000001V48.119H47.017z" fill="#525252"></path><path d="M47.023,51.438A1.659,1.659,0,0,0,48.682,53.1H53.66a1.66,1.66,0,0,0,1.66-1.66V45.63h-8.3Z" fill="none" stroke="#45413c" stroke-linecap="round" stroke-linejoin="round"></path><path d="M47.023,45.63h8.3V39.823a1.661,1.661,0,0,0-1.66-1.661H48.682a1.66,1.66,0,0,0-1.659,1.66Z" fill="#00b8f0"></path><path d="M53.654,38.162H48.676a1.66,1.66,0,0,0-1.659,1.66V45.63h.415l7.148-7.148A1.615,1.615,0,0,0,53.654,38.162Z" fill="#4acfff"></path><path d="M47.023,45.63h8.3V39.823a1.661,1.661,0,0,0-1.66-1.661H48.682a1.66,1.66,0,0,0-1.659,1.66Z" fill="none" stroke="#45413c" stroke-linecap="round" stroke-linejoin="round"></path><path d="M60.3,51.438A1.659,1.659,0,0,0,61.957,53.1h4.978a1.661,1.661,0,0,0,1.661-1.66V45.63H60.3Z" fill="#656769"></path><path d="M60.292 45.63H68.589V48.119H60.292z" fill="#525252"></path><path d="M60.3,51.438A1.659,1.659,0,0,0,61.957,53.1h4.978a1.661,1.661,0,0,0,1.661-1.66V45.63H60.3Z" fill="none" stroke="#45413c" stroke-linecap="round" stroke-linejoin="round"></path><path d="M60.3,45.63h8.3V39.823a1.661,1.661,0,0,0-1.661-1.661H61.957a1.66,1.66,0,0,0-1.659,1.66Z" fill="#00b8f0"></path><path d="M66.929,38.162H61.952a1.66,1.66,0,0,0-1.66,1.66V45.63h.415l7.148-7.148A1.615,1.615,0,0,0,66.929,38.162Z" fill="#4acfff"></path><path d="M60.3,45.63h8.3V39.823a1.661,1.661,0,0,0-1.661-1.661H61.957a1.66,1.66,0,0,0-1.659,1.66Z" fill="none" stroke="#45413c" stroke-linecap="round" stroke-linejoin="round"></path><path d="M73.574,51.438A1.659,1.659,0,0,0,75.233,53.1h4.978a1.66,1.66,0,0,0,1.66-1.66V45.63h-8.3Z" fill="#656769"></path><path d="M73.568 45.63H81.865V48.119H73.568z" fill="#525252"></path><path d="M73.574,51.438A1.659,1.659,0,0,0,75.233,53.1h4.978a1.66,1.66,0,0,0,1.66-1.66V45.63h-8.3Z" fill="none" stroke="#45413c" stroke-linecap="round" stroke-linejoin="round"></path><path d="M73.574,45.63h8.3V39.823a1.661,1.661,0,0,0-1.66-1.661H75.233a1.66,1.66,0,0,0-1.659,1.66Z" fill="#00b8f0"></path><path d="M80.205,38.162H75.228a1.66,1.66,0,0,0-1.66,1.66V45.63h.415l7.148-7.148A1.615,1.615,0,0,0,80.205,38.162Z" fill="#4acfff"></path><path d="M73.574,45.63h8.3V39.823a1.661,1.661,0,0,0-1.66-1.661H75.233a1.66,1.66,0,0,0-1.659,1.66Z" fill="none" stroke="#45413c" stroke-linecap="round" stroke-linejoin="round"></path></g></svg>