<svg xmlns="http://www.w3.org/2000/svg" version="1.1" xmlns:xlink="http://www.w3.org/1999/xlink" xmlns:svgjs="http://svgjs.com/svgjs" viewBox="0 0 160 160" width="160" height="160"><g transform="matrix(1.6,0,0,1.6,0,0)"><path d="M10.000 50.000 A40.000 40.000 0 1 0 90.000 50.000 A40.000 40.000 0 1 0 10.000 50.000 Z" fill="#c7f0ff" stroke="#c7f0ff" stroke-linecap="round" stroke-linejoin="round"></path><path d="M55.743,13.925A6.432,6.432,0,0,0,50,10.387h0a6.432,6.432,0,0,0-5.743,3.538c-2.907,5.766-7.937,18.49-7.937,37.5V66.35a13.68,13.68,0,0,0,27.36,0V51.426C63.68,32.415,58.65,19.691,55.743,13.925Z" fill="#ffe500"></path><path d="M46.487,56.919c-.389-12.214-1.84-23.982-7.251-29.355-.637,2.448-1.219,5.151-1.693,8.1a25.728,25.728,0,0,1,1,7.458V65.509a13.687,13.687,0,0,0,17.388,13.17c.262-.126.519-.262.772-.4A29.4,29.4,0,0,1,46.487,56.919Z" fill="#ebcb00"></path><path d="M53.513,56.919c.389-12.214,1.84-23.982,7.251-29.355.637,2.448,1.219,5.151,1.693,8.1a25.728,25.728,0,0,0-1,7.458V65.509a13.687,13.687,0,0,1-17.388,13.17c-.262-.126-.519-.262-.772-.4A29.4,29.4,0,0,0,53.513,56.919Z" fill="#ebcb00"></path><path d="M38.807 86.248 A11.193 1.865 0 1 0 61.193 86.248 A11.193 1.865 0 1 0 38.807 86.248 Z" fill="#45413c" opacity=".15"></path><path d="M50,16.605a14.561,14.561,0,0,1,7.973,2.33c-.8-2.025-1.568-3.7-2.23-5.01A6.432,6.432,0,0,0,50,10.387h0a6.432,6.432,0,0,0-5.743,3.538c-.662,1.312-1.433,2.985-2.23,5.01A14.561,14.561,0,0,1,50,16.605Z" fill="#fff48c"></path><path d="M55.743,13.925A6.432,6.432,0,0,0,50,10.387h0a6.432,6.432,0,0,0-5.743,3.538c-2.907,5.766-7.937,18.49-7.937,37.5V66.35a13.68,13.68,0,0,0,27.36,0V51.426C63.68,32.415,58.65,19.691,55.743,13.925Z" fill="none" stroke="#45413c" stroke-linecap="round" stroke-linejoin="round"></path><path d="M52.731,86.248H47.269a1,1,0,0,1-1-1V78.786h7.462v6.462A1,1,0,0,1,52.731,86.248Z" fill="#9ceb60"></path><path d="M46.269 78.786H53.730999999999995V82.517H46.269z" fill="#6dd627"></path><path d="M52.731,86.248H47.269a1,1,0,0,1-1-1V78.786h7.462v6.462A1,1,0,0,1,52.731,86.248Z" fill="none" stroke="#45413c" stroke-linecap="round" stroke-linejoin="round"></path><path d="M45.647,66.972A1.243,1.243,0,0,1,44.4,68.215H41.916a1.244,1.244,0,0,1,0-2.487H44.4A1.243,1.243,0,0,1,45.647,66.972Z" fill="#ebcb00" stroke="#ebcb00" stroke-linecap="round" stroke-linejoin="round"></path><path d="M55.6,41.477H53.109a1.866,1.866,0,0,0,0,3.731H55.6a1.866,1.866,0,1,0,0-3.731Z" fill="#ebcb00"></path><path d="M52.487,24.067a1.243,1.243,0,0,1-1.243,1.243H48.756a1.244,1.244,0,0,1,0-2.487h2.488A1.244,1.244,0,0,1,52.487,24.067Z" fill="#ebcb00" stroke="#ebcb00" stroke-linecap="round" stroke-linejoin="round"></path><path d="M54.974,62H52.487a1.866,1.866,0,0,0,0,3.731h2.487a1.866,1.866,0,1,0,0-3.731Z" fill="#fffacf"></path><path d="M54.974,62H52.906A29.3,29.3,0,0,1,51.9,65.632a1.849,1.849,0,0,0,.588.1h2.487a1.866,1.866,0,1,0,0-3.731Z" fill="#fff48c"></path><path d="M61.814,52.67a1.243,1.243,0,0,1-1.243,1.244H58.084a1.244,1.244,0,0,1,0-2.488h2.487A1.243,1.243,0,0,1,61.814,52.67Z" fill="#fffacf" stroke="#fffacf" stroke-linecap="round" stroke-linejoin="round"></path><path d="M56.84,32.15A1.244,1.244,0,0,1,55.6,33.394H53.109a1.244,1.244,0,1,1,0-2.487H55.6A1.243,1.243,0,0,1,56.84,32.15Z" fill="#fffacf" stroke="#fffacf" stroke-linecap="round" stroke-linejoin="round"></path><path d="M48.135,56.4H45.647a1.866,1.866,0,0,0,0,3.731h2.488a1.866,1.866,0,0,0,0-3.731Z" fill="#ffe500"></path><path d="M46.487,56.919c-.005-.173-.011-.346-.017-.518h-.823a1.866,1.866,0,0,0,0,3.731h1.12A29.311,29.311,0,0,1,46.487,56.919Z" fill="#ebcb00"></path><path d="M43.782,47.7a1.244,1.244,0,0,1-1.244,1.244H40.051a1.244,1.244,0,1,1,0-2.487h2.487A1.244,1.244,0,0,1,43.782,47.7Z" fill="#ffe500" stroke="#ffe500" stroke-linecap="round" stroke-linejoin="round"></path><path d="M46.891,35.881H44.4a1.866,1.866,0,1,0,0,3.731h2.487a1.866,1.866,0,0,0,0-3.731Z" fill="#ffe500"></path><path d="M44.4,39.612h.327c-.27-1.266-.577-2.48-.929-3.631a1.865,1.865,0,0,0,.6,3.631Z" fill="#ebcb00"></path><path d="M36.32,66.35A13.686,13.686,0,0,0,54.614,79.231,29.4,29.4,0,0,1,44.261,57.759c-.494-15.531-2.706-30.341-12.593-32.2a1.848,1.848,0,0,0-2.188,1.815,1.824,1.824,0,0,0,.767,1.5c1.786,1.24,6.073,5.239,6.073,15.085Z" fill="#9ceb60"></path><path d="M50.573,75.042c-.19.008-.381.013-.573.013a13.68,13.68,0,0,1-13.68-13.68V66.35A13.686,13.686,0,0,0,54.614,79.231,29.332,29.332,0,0,1,50.573,75.042Z" fill="#6dd627"></path><path d="M36.32,66.35A13.686,13.686,0,0,0,54.614,79.231,29.4,29.4,0,0,1,44.261,57.759c-.494-15.531-2.706-30.341-12.593-32.2a1.848,1.848,0,0,0-2.188,1.815,1.824,1.824,0,0,0,.767,1.5c1.786,1.24,6.073,5.239,6.073,15.085Z" fill="none" stroke="#45413c" stroke-linecap="round" stroke-linejoin="round"></path><path d="M63.68,66.35A13.686,13.686,0,0,1,45.386,79.231,29.4,29.4,0,0,0,55.739,57.759c.494-15.531,2.706-30.341,12.593-32.2a1.848,1.848,0,0,1,2.188,1.815,1.824,1.824,0,0,1-.767,1.5c-1.786,1.24-6.073,5.239-6.073,15.085Z" fill="#9ceb60"></path><path d="M49.427,75.042c.19.008.381.013.573.013a13.68,13.68,0,0,0,13.68-13.68V66.35A13.686,13.686,0,0,1,45.386,79.231,29.332,29.332,0,0,0,49.427,75.042Z" fill="#6dd627"></path><path d="M63.68,66.35A13.686,13.686,0,0,1,45.386,79.231,29.4,29.4,0,0,0,55.739,57.759c.494-15.531,2.706-30.341,12.593-32.2a1.848,1.848,0,0,1,2.188,1.815,1.824,1.824,0,0,1-.767,1.5c-1.786,1.24-6.073,5.239-6.073,15.085Z" fill="none" stroke="#45413c" stroke-linecap="round" stroke-linejoin="round"></path></g></svg>