<svg viewBox="0 0 48 48" height="48" width="48" xmlns="http://www.w3.org/2000/svg"><g transform="matrix(0.48,0,0,0.48,0,0)"><path d="M90.238,50A40,40,0,1,0,13.8,66.5H86.674A39.844,39.844,0,0,0,90.238,50Z" fill="#c7f0ff"></path><path d="M13.8,66.5a40,40,0,0,0,72.872,0Z" fill="#c0dceb"></path><path d="M11.238 66.5L89.238 66.5" fill="none" stroke="#45413c" stroke-linecap="round" stroke-linejoin="round"></path><path d="M6.738 66.5L9.238 66.5" fill="none" stroke="#45413c" stroke-linecap="round" stroke-linejoin="round"></path><path d="M91.238 66.5L93.738 66.5" fill="none" stroke="#45413c" stroke-linecap="round" stroke-linejoin="round"></path><path d="M24.647,59.432V82.254h5.705l.6-15.145a1.933,1.933,0,1,1,3.865,0l.6,15.145h5.706V59.432Z" fill="#87898c"></path><path d="M24.647,59.432v10.75h2.535a2.536,2.536,0,0,0,2.485-2.033c.3-1.461.538-2.955.754-4.46A1.265,1.265,0,0,1,31.676,62.6H34.1a1.266,1.266,0,0,1,1.254,1.088c.215,1.5.458,3,.753,4.459a2.536,2.536,0,0,0,2.485,2.033h2.536V59.432Z" fill="#656769"></path><path d="M24.647,59.432V82.254h5.705l.6-15.145a1.933,1.933,0,1,1,3.865,0l.6,15.145h5.706V59.432Z" fill="none" stroke="#45413c" stroke-linecap="round" stroke-linejoin="round"></path><path d="M16.406 83.522 A16.482 1.902 0 1 0 49.370 83.522 A16.482 1.902 0 1 0 16.406 83.522 Z" fill="#45413c" opacity=".15"></path><path d="M29.481,82.888a1.269,1.269,0,0,0,1.1-1.9,3.8,3.8,0,0,0-3.295-1.9h-.634a3.8,3.8,0,0,0-3.295,1.9,1.267,1.267,0,0,0,1.1,1.9Z" fill="#947746" stroke="#45413c" stroke-linecap="round" stroke-linejoin="round"></path><path d="M36.294,82.888a1.268,1.268,0,0,1-1.1-1.9,3.8,3.8,0,0,1,3.3-1.9h.634a3.8,3.8,0,0,1,3.294,1.9,1.267,1.267,0,0,1-1.1,1.9Z" fill="#947746" stroke="#45413c" stroke-linecap="round" stroke-linejoin="round"></path><path d="M41.129,39.021a12.677,12.677,0,0,0-16.482,0V59.432H41.129Z" fill="#6dd627" stroke="#45413c" stroke-linecap="round" stroke-linejoin="round"></path><path d="M36.244,36.433a1,1,0,0,1-.742-.967l0-3.638h-5.23l0,3.64a1,1,0,0,1-.741.965,12,12,0,0,0-1.179.38c.935,1.784,2.837,3.6,4.536,3.6s3.6-1.817,4.535-3.6A11.659,11.659,0,0,0,36.244,36.433Z" fill="#ffda8f" stroke="#45413c" stroke-linecap="round" stroke-linejoin="round"></path><path d="M20.209,48.655v5.516a2.1,2.1,0,0,1-4.038.783,2.219,2.219,0,0,0-3.97,1.983A6.5,6.5,0,0,0,18.118,60.7a6.382,6.382,0,0,0,6.529-6.339c0,7.984,0,4.826,0,13.312h1.492a1.264,1.264,0,0,0,1.245-1.035c1.743-9.312,2.042-20.06,1.675-30.073A12.685,12.685,0,0,0,20.209,48.655Z" fill="#f0f0f0"></path><path d="M29.059,36.565a12.685,12.685,0,0,0-8.85,12.09v3.771a12.685,12.685,0,0,1,8.955-12.09Q29.128,38.439,29.059,36.565Z" fill="#ffffff"></path><path d="M16.172,54.954a2.219,2.219,0,0,0-3.97,1.983A7.23,7.23,0,0,0,13.529,58.8L17.092,56A2.416,2.416,0,0,1,16.172,54.954Z" fill="#ffda8f" stroke="#45413c" stroke-linecap="round" stroke-linejoin="round"></path><path d="M24.647 46.12L24.647 54.361" fill="none" stroke="#45413c" stroke-linecap="round" stroke-linejoin="round"></path><path d="M20.209,48.655v5.516a2.1,2.1,0,0,1-4.038.783,2.219,2.219,0,0,0-3.97,1.983A6.5,6.5,0,0,0,18.118,60.7a6.382,6.382,0,0,0,6.529-6.339c0,7.984,0,4.826,0,13.312h1.492a1.264,1.264,0,0,0,1.245-1.035c1.743-9.312,2.042-20.06,1.675-30.073A12.685,12.685,0,0,0,20.209,48.655Z" fill="none" stroke="#45413c" stroke-linecap="round" stroke-linejoin="round"></path><path d="M45.566,48.655v5.516a2.1,2.1,0,0,0,4.038.783,2.218,2.218,0,1,1,3.969,1.983A6.5,6.5,0,0,1,47.657,60.7a6.382,6.382,0,0,1-6.528-6.339c0,7.984,0,4.826,0,13.312H39.636a1.265,1.265,0,0,1-1.245-1.035c-1.742-9.312-2.042-20.06-1.675-30.073A12.685,12.685,0,0,1,45.566,48.655Z" fill="#f0f0f0"></path><path d="M36.716,36.565a12.685,12.685,0,0,1,8.85,12.09v3.771a12.683,12.683,0,0,0-8.954-12.09Q36.646,38.439,36.716,36.565Z" fill="#ffffff"></path><path d="M49.6,54.954a2.218,2.218,0,1,1,3.969,1.983A7.228,7.228,0,0,1,52.247,58.8L48.684,56A2.416,2.416,0,0,0,49.6,54.954Z" fill="#ffda8f" stroke="#45413c" stroke-linecap="round" stroke-linejoin="round"></path><path d="M41.129 46.12L41.129 54.361" fill="none" stroke="#45413c" stroke-linecap="round" stroke-linejoin="round"></path><path d="M45.566,48.655v5.516a2.1,2.1,0,0,0,4.038.783,2.218,2.218,0,1,1,3.969,1.983A6.5,6.5,0,0,1,47.657,60.7a6.382,6.382,0,0,1-6.528-6.339c0,7.984,0,4.826,0,13.312H39.636a1.265,1.265,0,0,1-1.245-1.035c-1.742-9.312-2.042-20.06-1.675-30.073A12.685,12.685,0,0,1,45.566,48.655Z" fill="none" stroke="#45413c" stroke-linecap="round" stroke-linejoin="round"></path><path d="M48.471,73.973a1.269,1.269,0,0,1-1.49,1.063L44.6,74.585a1.267,1.267,0,0,1-1-1.532l2.871-12.361a1.267,1.267,0,0,1,1.47-.959l1.347.254a1.268,1.268,0,0,1,1.02,1.429Z" fill="#ff8a14" stroke="#45413c" stroke-linecap="round" stroke-linejoin="round"></path><path d="M48.61 61.191L50.138 53.093" fill="none" stroke="#45413c" stroke-linecap="round" stroke-linejoin="round"></path><path d="M56.094,75.036l2.386-.451a1.267,1.267,0,0,0,1-1.532L56.61,60.692a1.268,1.268,0,0,0-1.47-.959l-1.348.254a1.267,1.267,0,0,0-1.019,1.429l1.832,12.557A1.268,1.268,0,0,0,56.094,75.036Z" fill="#f0d5a8" stroke="#45413c" stroke-linecap="round" stroke-linejoin="round"></path><path d="M54.466 61.191L52.938 53.093" fill="none" stroke="#45413c" stroke-linecap="round" stroke-linejoin="round"></path><path d="M54.018,73.96a1.268,1.268,0,0,1-1.266,1.321H50.324a1.268,1.268,0,0,1-1.267-1.321l.528-12.679a1.268,1.268,0,0,1,1.267-1.215h1.371a1.268,1.268,0,0,1,1.267,1.215Z" fill="#00dba8" stroke="#45413c" stroke-linecap="round" stroke-linejoin="round"></path><path d="M51.538 61.397L51.538 53.156" fill="none" stroke="#45413c" stroke-linecap="round" stroke-linejoin="round"></path><path d="M18.794,75.036l2.386-.451a1.267,1.267,0,0,0,1-1.532L19.31,60.692a1.268,1.268,0,0,0-1.47-.959l-1.348.254a1.267,1.267,0,0,0-1.019,1.429l1.832,12.557A1.268,1.268,0,0,0,18.794,75.036Z" fill="#ff6242" stroke="#45413c" stroke-linecap="round" stroke-linejoin="round"></path><path d="M17.166 61.191L15.638 53.093" fill="none" stroke="#45413c" stroke-linecap="round" stroke-linejoin="round"></path><path d="M9.681,75.036,7.3,74.585a1.267,1.267,0,0,1-1-1.532L9.166,60.692a1.268,1.268,0,0,1,1.47-.959l1.347.254A1.268,1.268,0,0,1,13,61.416L11.171,73.973A1.269,1.269,0,0,1,9.681,75.036Z" fill="#ffffff" stroke="#45413c" stroke-linecap="round" stroke-linejoin="round"></path><path d="M11.31 61.191L12.838 53.093" fill="none" stroke="#45413c" stroke-linecap="round" stroke-linejoin="round"></path><path d="M13.024,75.281h2.428a1.268,1.268,0,0,0,1.266-1.321L16.19,61.281a1.268,1.268,0,0,0-1.267-1.215H13.552a1.268,1.268,0,0,0-1.267,1.215L11.757,73.96A1.268,1.268,0,0,0,13.024,75.281Z" fill="#00dba8" stroke="#45413c" stroke-linecap="round" stroke-linejoin="round"></path><path d="M14.238 61.397L14.238 53.156" fill="none" stroke="#45413c" stroke-linecap="round" stroke-linejoin="round"></path><path d="M41.763,27.369a1.562,1.562,0,0,0-1.268-1.521V24.834a7.608,7.608,0,1,0-15.215,0v1.014a1.553,1.553,0,0,0,.16,3.074,7.608,7.608,0,0,0,14.9,0A1.569,1.569,0,0,0,41.763,27.369Z" fill="#ffda8f" stroke="#45413c" stroke-linecap="round" stroke-linejoin="round"></path><path d="M27.816 28.320 A0.951 0.951 0 1 0 29.718 28.320 A0.951 0.951 0 1 0 27.816 28.320 Z" fill="#ffbe3d"></path><path d="M36.057 28.320 A0.951 0.951 0 1 0 37.959 28.320 A0.951 0.951 0 1 0 36.057 28.320 Z" fill="#ffbe3d"></path><path d="M36.315,26.1a1.079,1.079,0,0,0-1.525,0" fill="none" stroke="#45413c" stroke-linecap="round" stroke-linejoin="round"></path><path d="M29.46,26.1a1.08,1.08,0,0,1,1.526,0" fill="none" stroke="#45413c" stroke-linecap="round" stroke-linejoin="round"></path><path d="M34.79,30.539a3.17,3.17,0,0,1-3.8,0" fill="none" stroke="#45413c" stroke-linecap="round" stroke-linejoin="round"></path><path d="M26.794,22.932a5.435,5.435,0,0,1-1.513-.216v3.132l1.079,1.619a.633.633,0,0,0,.528.282.294.294,0,0,0,.294-.294V22.932Z" fill="#614b44" stroke="#45413c" stroke-linecap="round" stroke-linejoin="round"></path><path d="M41.763,27.369a1.562,1.562,0,0,0-1.268-1.521l-1.066,1.6a.68.68,0,0,1-.564.3.271.271,0,0,1-.271-.271v-4.1a1.269,1.269,0,0,0-.278-.792L36.964,20.9a1.275,1.275,0,0,0-1.86-.123,8.447,8.447,0,0,1-5.641,2.16H26.8a5.233,5.233,0,0,1-5.317-5.117,4.276,4.276,0,0,1,4.265-4.506,3.15,3.15,0,0,1,3.2,1.805,1.267,1.267,0,0,0,1.2.844h6.552a1.269,1.269,0,0,1,1.125.682,1.268,1.268,0,0,0,.88.657,3.806,3.806,0,0,1,3.067,3.733Z" fill="#614b44"></path><path d="M25.743,15.369a3.149,3.149,0,0,1,3.2,1.8,1.271,1.271,0,0,0,1.2.845h6.553a1.268,1.268,0,0,1,1.124.681,1.271,1.271,0,0,0,.88.658,3.806,3.806,0,0,1,3.067,3.722V21.03A3.806,3.806,0,0,0,38.7,17.3a1.27,1.27,0,0,1-.88-.657,1.269,1.269,0,0,0-1.124-.682H30.14a1.27,1.27,0,0,1-1.2-.844,3.148,3.148,0,0,0-3.2-1.805,4.276,4.276,0,0,0-4.265,4.506,4.657,4.657,0,0,0,.1,1.04A4.212,4.212,0,0,1,25.743,15.369Z" fill="#947063"></path><path d="M41.763,27.369a1.562,1.562,0,0,0-1.268-1.521l-1.066,1.6a.68.68,0,0,1-.564.3.271.271,0,0,1-.271-.271v-4.1a1.269,1.269,0,0,0-.278-.792L36.964,20.9a1.275,1.275,0,0,0-1.86-.123,8.447,8.447,0,0,1-5.641,2.16H26.8a5.233,5.233,0,0,1-5.317-5.117,4.276,4.276,0,0,1,4.265-4.506,3.15,3.15,0,0,1,3.2,1.805,1.267,1.267,0,0,0,1.2.844h6.552a1.269,1.269,0,0,1,1.125.682,1.268,1.268,0,0,0,.88.657,3.806,3.806,0,0,1,3.067,3.733Z" fill="none" stroke="#45413c" stroke-linecap="round" stroke-linejoin="round"></path><path d="M90.007 66.325L56.519 66.325 56.519 12.175 90.007 12.175" fill="#fff48c" stroke="#45413c" stroke-linecap="round" stroke-linejoin="round"></path><path d="M74.569 34.500 L87.869 34.500 L87.869 58.250 L74.569 58.250 Z" fill="#00b8f0"></path><path d="M87.869,40.675l-13.3,13.3V35.45a.95.95,0,0,1,.95-.95h11.4a.95.95,0,0,1,.95.95Z" fill="#4acfff"></path><path d="M74.569 34.500 L87.869 34.500 L87.869 58.250 L74.569 58.250 Z" fill="none" stroke="#45413c" stroke-linecap="round" stroke-linejoin="round"></path><path d="M56.519 32.125H71.719V66.325H56.519z" fill="#fff48c" stroke="#45413c" stroke-linecap="round" stroke-linejoin="round"></path><path d="M55.569 59.675 L73.619 59.675 L73.619 62.525 L55.569 62.525 Z" fill="#fff48c" stroke="#45413c" stroke-linecap="round" stroke-linejoin="round"></path><path d="M58.419 64.425L69.819 64.425" fill="none" stroke="#45413c" stroke-linecap="round" stroke-linejoin="round"></path><path d="M58.894 34.500 L69.344 34.500 L69.344 57.300 L58.894 57.300 Z" fill="#00b8f0"></path><path d="M68.394,34.5h-8.55a.95.95,0,0,0-.95.95V50.175L69.344,40.2V35.45A.95.95,0,0,0,68.394,34.5Z" fill="#4acfff"></path><path d="M58.894 34.500 L69.344 34.500 L69.344 57.300 L58.894 57.300 Z" fill="none" stroke="#45413c" stroke-linecap="round" stroke-linejoin="round"></path><path d="M75.519 60.625 L86.919 60.625 L86.919 64.425 L75.519 64.425 Z" fill="#fff48c" stroke="#45413c" stroke-linecap="round" stroke-linejoin="round"></path><path d="M90.011,20.728H54.623a.948.948,0,0,1-.95-.95v-6.65a.941.941,0,0,1,.95-.95H90.011" fill="#fffce5" stroke="#45413c" stroke-linecap="round" stroke-linejoin="round"></path><path d="M90.011 32.128L52.723 32.128 56.523 25.478 90.011 25.478" fill="#6dd627" stroke="#45413c" stroke-linecap="round" stroke-linejoin="round"></path><path d="M90.011,37.752A3.652,3.652,0,0,1,88.757,36.4a.466.466,0,0,0-.826,0,3.56,3.56,0,0,1-6.3,0,.466.466,0,0,0-.826,0,3.56,3.56,0,0,1-6.3,0,.466.466,0,0,0-.826,0,3.56,3.56,0,0,1-6.3,0,.466.466,0,0,0-.826,0,3.56,3.56,0,0,1-6.3,0,.469.469,0,0,0-.836.028,3.57,3.57,0,0,1-3.335,1.862,3.687,3.687,0,0,1-3.363-3.752V32.128H90.011" fill="#46b000" stroke="#45413c" stroke-linecap="round" stroke-linejoin="round"></path></g></svg>