<svg width="160" height="160" viewBox="0 0 160 160" fill="none" xmlns="http://www.w3.org/2000/svg">
<path d="M15.9995 80C15.9995 96.9739 22.7423 113.253 34.7447 125.255C46.747 137.257 63.0257 144 79.9995 144C96.9734 144 113.252 137.257 125.254 125.255C137.257 113.253 144 96.9739 144 80C144 63.0261 137.257 46.7475 125.254 34.7452C113.252 22.7428 96.9734 16 79.9995 16C63.0257 16 46.747 22.7428 34.7447 34.7452C22.7423 46.7475 15.9995 63.0261 15.9995 80V80Z" fill="#C7F0FF" stroke="#C7F0FF" stroke-width="1.5"/>
<path opacity="0.15" d="M43.0942 118.251C43.0942 119.187 46.1607 120.084 51.6191 120.746C57.0774 121.407 64.4806 121.779 72.1998 121.779C79.9191 121.779 87.3222 121.407 92.7806 120.746C98.239 120.084 101.305 119.187 101.305 118.251C101.305 117.315 98.239 116.418 92.7806 115.756C87.3222 115.095 79.9191 114.723 72.1998 114.723C64.4806 114.723 57.0774 115.095 51.6191 115.756C46.1607 116.418 43.0942 117.315 43.0942 118.251V118.251Z" fill="#45413C"/>
<path d="M27 80.224C27 83.9304 27.73 87.6006 29.1484 91.0248C30.5668 94.4491 32.6458 97.5605 35.2666 100.181C37.8875 102.802 40.9989 104.881 44.4231 106.3C47.8474 107.718 51.5176 108.448 55.224 108.448C58.9304 108.448 62.6006 107.718 66.0249 106.3C69.4492 104.881 72.5606 102.802 75.1814 100.181C77.8022 97.5605 79.8812 94.4491 81.2996 91.0248C82.718 87.6006 83.448 83.9304 83.448 80.224C83.448 76.5176 82.718 72.8474 81.2996 69.4231C79.8812 65.9988 77.8022 62.8875 75.1814 60.2666C72.5606 57.6458 69.4492 55.5668 66.0249 54.1484C62.6006 52.73 58.9304 52 55.224 52C51.5176 52 47.8474 52.73 44.4231 54.1484C40.9989 55.5668 37.8875 57.6458 35.2666 60.2666C32.6458 62.8875 30.5668 65.9988 29.1484 69.4231C27.73 72.8474 27 76.5176 27 80.224V80.224Z" fill="#F0F0F0"/>
<path d="M27.5421 85.7344C26.73 81.6506 26.8314 77.4378 27.8391 73.3979C28.8468 69.358 30.7358 65.5911 33.3706 62.3672C36.0055 59.1433 39.321 56.5422 43.0795 54.7505C46.8379 52.9587 50.9462 52.0207 55.1099 52.0037C59.2735 51.9866 63.3894 52.8909 67.1624 54.6517C70.9354 56.4126 74.2721 58.9864 76.9334 62.1886C79.5946 65.3908 81.5144 69.1421 82.5552 73.1736C83.5959 77.2051 83.7319 81.4169 82.9533 85.5072C81.6926 79.0691 78.2273 73.2718 73.1538 69.1128C68.0802 64.9538 61.7157 62.6933 55.1554 62.7202C48.5951 62.7471 42.2494 65.0597 37.2101 69.2602C32.1708 73.4606 28.7532 79.2862 27.5453 85.7344" fill="white"/>
<path d="M27 80.224C27 83.9304 27.73 87.6006 29.1484 91.0248C30.5668 94.4491 32.6458 97.5605 35.2666 100.181C37.8875 102.802 40.9989 104.881 44.4231 106.3C47.8474 107.718 51.5176 108.448 55.224 108.448C58.9304 108.448 62.6006 107.718 66.0249 106.3C69.4492 104.881 72.5606 102.802 75.1814 100.181C77.8022 97.5605 79.8812 94.4491 81.2996 91.0248C82.718 87.6006 83.448 83.9304 83.448 80.224C83.448 76.5176 82.718 72.8474 81.2996 69.4231C79.8812 65.9988 77.8022 62.8875 75.1814 60.2666C72.5606 57.6458 69.4492 55.5668 66.0249 54.1484C62.6006 52.73 58.9304 52 55.224 52C51.5176 52 47.8474 52.73 44.4231 54.1484C40.9989 55.5668 37.8875 57.6458 35.2666 60.2666C32.6458 62.8875 30.5668 65.9988 29.1484 69.4231C27.73 72.8474 27 76.5176 27 80.224V80.224Z" stroke="#45413C" stroke-width="1.5" stroke-linecap="round" stroke-linejoin="round"/>
<path d="M55.2241 88.6911C54.3823 88.6898 53.5754 88.3547 52.9803 87.7593C52.3852 87.164 52.0505 86.3569 52.0497 85.5151V81.9951C52.0505 81.1534 52.3852 80.3465 52.9804 79.7514C53.5755 79.1562 54.3824 78.8215 55.2241 78.8207C56.3405 78.8207 57.4319 78.4896 58.3602 77.8693C59.2884 77.2491 60.0119 76.3675 60.4392 75.336C60.8664 74.3046 60.9782 73.1696 60.7604 72.0746C60.5426 70.9796 60.005 69.9738 59.2155 69.1844C58.4261 68.395 57.4203 67.8573 56.3253 67.6395C55.2303 67.4217 54.0954 67.5335 53.0639 67.9608C52.0324 68.388 51.1508 69.1115 50.5306 70.0398C49.9103 70.9681 49.5793 72.0594 49.5793 73.1759C49.5793 73.5927 49.4972 74.0055 49.3376 74.3907C49.1781 74.7758 48.9443 75.1257 48.6495 75.4205C48.3547 75.7153 48.0048 75.9491 47.6197 76.1086C47.2345 76.2682 46.8217 76.3503 46.4049 76.3503C45.988 76.3503 45.5752 76.2682 45.1901 76.1086C44.8049 75.9491 44.455 75.7153 44.1602 75.4205C43.8655 75.1257 43.6316 74.7758 43.4721 74.3907C43.3126 74.0055 43.2305 73.5927 43.2305 73.1759C43.2297 70.9387 43.8543 68.7459 45.0337 66.845C46.2132 64.944 47.9006 63.4106 49.9054 62.4179C51.9101 61.4251 54.1525 61.0126 56.3794 61.2268C58.6062 61.441 60.7289 62.2734 62.5077 63.63C64.2865 64.9867 65.6507 66.8136 66.4462 68.9045C67.2417 70.9954 67.4368 73.2671 67.0097 75.4631C66.5825 77.659 65.55 79.6918 64.0286 81.3321C62.5073 82.9723 60.5577 84.1546 58.4001 84.7455V85.5231C58.3967 86.3636 58.0607 87.1687 57.4656 87.7623C56.8705 88.3559 56.0646 88.6898 55.2241 88.6911Z" fill="#00B8F0" stroke="#00658A" stroke-width="1.5" stroke-linecap="round" stroke-linejoin="round"/>
<path d="M51.167 96.2751C51.167 97.3513 51.5945 98.3833 52.3554 99.1443C53.1164 99.9052 54.1484 100.333 55.2246 100.333C56.3007 100.333 57.3328 99.9052 58.0937 99.1443C58.8547 98.3833 59.2822 97.3513 59.2822 96.2751C59.2822 95.199 58.8547 94.1669 58.0937 93.406C57.3328 92.645 56.3007 92.2175 55.2246 92.2175C54.1484 92.2175 53.1164 92.645 52.3554 93.406C51.5945 94.1669 51.167 95.199 51.167 96.2751Z" fill="#00B8F0" stroke="#00658A" stroke-width="1.5" stroke-linecap="round" stroke-linejoin="round"/>
<path d="M76 80.224C76 83.9304 76.73 87.6006 78.1484 91.0248C79.5668 94.4491 81.6458 97.5605 84.2666 100.181C86.8875 102.802 89.9989 104.881 93.4231 106.3C96.8474 107.718 100.518 108.448 104.224 108.448C107.93 108.448 111.601 107.718 115.025 106.3C118.449 104.881 121.561 102.802 124.181 100.181C126.802 97.5605 128.881 94.4491 130.3 91.0248C131.718 87.6006 132.448 83.9304 132.448 80.224C132.448 76.5176 131.718 72.8474 130.3 69.4231C128.881 65.9988 126.802 62.8875 124.181 60.2666C121.561 57.6458 118.449 55.5668 115.025 54.1484C111.601 52.73 107.93 52 104.224 52C100.518 52 96.8474 52.73 93.4231 54.1484C89.9989 55.5668 86.8875 57.6458 84.2666 60.2666C81.6458 62.8875 79.5668 65.9988 78.1484 69.4231C76.73 72.8474 76 76.5176 76 80.224V80.224Z" fill="#F0F0F0"/>
<path d="M76.5421 85.7344C75.73 81.6506 75.8314 77.4378 76.8391 73.3979C77.8468 69.358 79.7358 65.5911 82.3706 62.3672C85.0055 59.1433 88.321 56.5422 92.0795 54.7505C95.8379 52.9587 99.9462 52.0207 104.11 52.0037C108.274 51.9866 112.389 52.8909 116.162 54.6517C119.935 56.4126 123.272 58.9864 125.933 62.1886C128.595 65.3908 130.514 69.1421 131.555 73.1736C132.596 77.2051 132.732 81.4169 131.953 85.5072C130.693 79.0691 127.227 73.2718 122.154 69.1128C117.08 64.9538 110.716 62.6933 104.155 62.7202C97.5951 62.7471 91.2494 65.0597 86.2101 69.2602C81.1708 73.4606 77.7532 79.2862 76.5453 85.7344" fill="white"/>
<path d="M76 80.224C76 83.9304 76.73 87.6006 78.1484 91.0248C79.5668 94.4491 81.6458 97.5605 84.2666 100.181C86.8875 102.802 89.9989 104.881 93.4231 106.3C96.8474 107.718 100.518 108.448 104.224 108.448C107.93 108.448 111.601 107.718 115.025 106.3C118.449 104.881 121.561 102.802 124.181 100.181C126.802 97.5605 128.881 94.4491 130.3 91.0248C131.718 87.6006 132.448 83.9304 132.448 80.224C132.448 76.5176 131.718 72.8474 130.3 69.4231C128.881 65.9988 126.802 62.8875 124.181 60.2666C121.561 57.6458 118.449 55.5668 115.025 54.1484C111.601 52.73 107.93 52 104.224 52C100.518 52 96.8474 52.73 93.4231 54.1484C89.9989 55.5668 86.8875 57.6458 84.2666 60.2666C81.6458 62.8875 79.5668 65.9988 78.1484 69.4231C76.73 72.8474 76 76.5176 76 80.224V80.224Z" stroke="#45413C" stroke-width="1.5" stroke-linecap="round" stroke-linejoin="round"/>
<path d="M103.693 96.576C101.037 96.576 98.7814 96.176 96.9254 95.376C95.1014 94.544 93.5654 93.52 92.3174 92.304L95.4854 87.84C96.5094 88.672 97.5974 89.392 98.7494 90C99.9334 90.576 101.245 90.864 102.685 90.864C104.413 90.864 105.821 90.464 106.909 89.664C108.029 88.864 108.589 87.68 108.589 86.112C108.589 84.576 108.061 83.408 107.005 82.608C105.981 81.808 104.653 81.408 103.021 81.408C102.509 81.408 102.045 81.44 101.629 81.504C101.245 81.536 100.861 81.616 100.477 81.744C100.093 81.872 99.6934 82.032 99.2774 82.224C98.8614 82.416 98.3974 82.656 97.8854 82.944L94.7654 80.928L95.5814 65.52H114.253V71.472H101.677L101.149 77.184C101.853 76.928 102.509 76.752 103.117 76.656C103.725 76.528 104.413 76.464 105.181 76.464C106.589 76.464 107.917 76.656 109.165 77.04C110.445 77.424 111.565 78 112.525 78.768C113.485 79.536 114.237 80.512 114.781 81.696C115.357 82.88 115.645 84.288 115.645 85.92C115.645 87.616 115.309 89.12 114.637 90.432C113.997 91.744 113.117 92.864 111.997 93.792C110.909 94.688 109.645 95.376 108.205 95.856C106.765 96.336 105.261 96.576 103.693 96.576Z" fill="#00B8F0"/>
<path d="M96.9254 95.376L96.6141 96.0584C96.6189 96.0605 96.6237 96.0627 96.6285 96.0647L96.9254 95.376ZM92.3174 92.304L91.7057 91.8699C91.4919 92.1712 91.5294 92.5833 91.794 92.8412L92.3174 92.304ZM95.4854 87.84L95.9583 87.2579C95.7974 87.1271 95.5894 87.0688 95.384 87.0969C95.1785 87.1249 94.9938 87.2368 94.8737 87.4059L95.4854 87.84ZM98.7494 90L98.3993 90.6633C98.4066 90.6671 98.4139 90.6708 98.4213 90.6744L98.7494 90ZM106.909 89.664L106.473 89.0536L106.465 89.0598L106.909 89.664ZM107.005 82.608L106.544 83.1991L106.552 83.2058L107.005 82.608ZM101.629 81.504L101.692 82.2514C101.709 82.25 101.726 82.2479 101.743 82.2453L101.629 81.504ZM100.477 81.744L100.24 81.0325L100.24 81.0325L100.477 81.744ZM99.2774 82.224L99.5917 82.905L99.5917 82.905L99.2774 82.224ZM97.8854 82.944L97.4783 83.5739C97.7122 83.725 98.0104 83.7342 98.2531 83.5977L97.8854 82.944ZM94.7654 80.928L94.0164 80.8883C94.0022 81.1567 94.1326 81.4121 94.3583 81.5579L94.7654 80.928ZM95.5814 65.52V64.77C95.1826 64.77 94.8535 65.0821 94.8324 65.4803L95.5814 65.52ZM114.253 65.52H115.003C115.003 65.1058 114.668 64.77 114.253 64.77V65.52ZM114.253 71.472V72.222C114.668 72.222 115.003 71.8862 115.003 71.472H114.253ZM101.677 71.472V70.722C101.29 70.722 100.966 71.0171 100.931 71.403L101.677 71.472ZM101.149 77.184L100.403 77.115C100.379 77.3708 100.488 77.6209 100.691 77.7778C100.895 77.9347 101.164 77.9766 101.406 77.8888L101.149 77.184ZM103.117 76.656L103.234 77.3968C103.247 77.3948 103.259 77.3925 103.272 77.3899L103.117 76.656ZM109.165 77.04L108.945 77.7569L108.95 77.7584L109.165 77.04ZM112.525 78.768L112.994 78.1823L112.994 78.1823L112.525 78.768ZM114.781 81.696L114.1 82.0091C114.102 82.0141 114.105 82.0191 114.107 82.0241L114.781 81.696ZM114.637 90.432L113.97 90.0901C113.968 90.0944 113.965 90.0988 113.963 90.1032L114.637 90.432ZM111.997 93.792L112.474 94.371L112.476 94.3695L111.997 93.792ZM108.205 95.856L107.968 95.1445L107.968 95.1445L108.205 95.856ZM103.693 95.826C101.109 95.826 98.96 95.4363 97.2222 94.6873L96.6285 96.0647C98.6027 96.9157 100.966 97.326 103.693 97.326V95.826ZM97.2366 94.6936C95.4795 93.8922 94.0184 92.9143 92.8408 91.7668L91.794 92.8412C93.1124 94.1257 94.7232 95.1958 96.6141 96.0584L97.2366 94.6936ZM92.929 92.7381L96.097 88.2741L94.8737 87.4059L91.7057 91.8699L92.929 92.7381ZM95.0124 88.4221C96.0741 89.2847 97.2032 90.032 98.3993 90.6633L99.0994 89.3367C97.9915 88.752 96.9446 88.0593 95.9583 87.2579L95.0124 88.4221ZM98.4213 90.6744C99.7168 91.3047 101.143 91.614 102.685 91.614V90.114C101.348 90.114 100.15 89.8473 99.0775 89.3256L98.4213 90.6744ZM102.685 91.614C104.528 91.614 106.105 91.1865 107.354 90.2682L106.465 89.0598C105.538 89.7415 104.298 90.114 102.685 90.114V91.614ZM107.345 90.2743C108.692 89.3123 109.339 87.8833 109.339 86.112H107.839C107.839 87.4767 107.367 88.4157 106.473 89.0537L107.345 90.2743ZM109.339 86.112C109.339 84.3837 108.733 82.9758 107.458 82.0102L106.552 83.2058C107.39 83.8402 107.839 84.7683 107.839 86.112H109.339ZM107.467 82.017C106.281 81.09 104.777 80.658 103.021 80.658V82.158C104.53 82.158 105.682 82.526 106.544 83.199L107.467 82.017ZM103.021 80.658C102.479 80.658 101.976 80.6918 101.515 80.7627L101.743 82.2453C102.115 82.1882 102.54 82.158 103.021 82.158V80.658ZM101.567 80.7566C101.121 80.7938 100.678 80.8866 100.24 81.0325L100.715 82.4555C101.045 82.3454 101.37 82.2782 101.692 82.2514L101.567 80.7566ZM100.24 81.0325C99.8268 81.1703 99.401 81.3409 98.9631 81.543L99.5917 82.905C99.9858 82.7231 100.36 82.5737 100.715 82.4555L100.24 81.0325ZM98.9631 81.543C98.5247 81.7454 98.0425 81.9951 97.5177 82.2903L98.2531 83.5977C98.7522 83.3169 99.198 83.0866 99.5917 82.905L98.9631 81.543ZM98.2924 82.3141L95.1724 80.2981L94.3583 81.5579L97.4783 83.5739L98.2924 82.3141ZM95.5143 80.9677L96.3303 65.5597L94.8324 65.4803L94.0164 80.8883L95.5143 80.9677ZM95.5814 66.27H114.253V64.77H95.5814V66.27ZM113.503 65.52V71.472H115.003V65.52H113.503ZM114.253 70.722H101.677V72.222H114.253V70.722ZM100.931 71.403L100.403 77.115L101.896 77.253L102.424 71.541L100.931 71.403ZM101.406 77.8888C102.074 77.6459 102.683 77.4839 103.234 77.3968L103 75.9152C102.336 76.0201 101.633 76.2101 100.893 76.4792L101.406 77.8888ZM103.272 77.3899C103.819 77.2748 104.454 77.214 105.181 77.214V75.714C104.373 75.714 103.632 75.7812 102.963 75.9221L103.272 77.3899ZM105.181 77.214C106.52 77.214 107.774 77.3965 108.945 77.7568L109.386 76.3232C108.061 75.9155 106.658 75.714 105.181 75.714V77.214ZM108.95 77.7584C110.146 78.1172 111.178 78.6507 112.057 79.3537L112.994 78.1823C111.953 77.3493 110.745 76.7308 109.381 76.3216L108.95 77.7584ZM112.057 79.3537C112.92 80.0443 113.602 80.9248 114.1 82.0091L115.463 81.3829C114.873 80.0992 114.051 79.0277 112.994 78.1823L112.057 79.3537ZM114.107 82.0241C114.623 83.0844 114.895 84.3751 114.895 85.92H116.395C116.395 84.2009 116.092 82.6756 115.456 81.3679L114.107 82.0241ZM114.895 85.92C114.895 87.5151 114.58 88.8988 113.97 90.0901L115.305 90.7739C116.039 89.3412 116.395 87.7169 116.395 85.92H114.895ZM113.963 90.1032C113.37 91.3197 112.556 92.3548 111.519 93.2145L112.476 94.3695C113.678 93.3732 114.625 92.1683 115.311 90.7608L113.963 90.1032ZM111.521 93.2131C110.509 94.0462 109.328 94.6913 107.968 95.1445L108.443 96.5675C109.963 96.0607 111.31 95.3298 112.474 94.3709L111.521 93.2131ZM107.968 95.1445C106.607 95.5982 105.183 95.826 103.693 95.826V97.326C105.339 97.326 106.924 97.0738 108.443 96.5675L107.968 95.1445Z" fill="#00658A"/>
</svg>
