<svg width="151" height="151" viewBox="0 0 151 151" fill="none" xmlns="http://www.w3.org/2000/svg">
<path d="M1 75.2029C1 94.8827 8.81778 113.757 22.7335 127.672C36.6493 141.588 55.5231 149.406 75.2029 149.406C94.8827 149.406 113.757 141.588 127.672 127.672C141.588 113.757 149.406 94.8827 149.406 75.2029C149.406 55.5231 141.588 36.6493 127.672 22.7335C113.757 8.81778 94.8827 1 75.2029 1C55.5231 1 36.6493 8.81778 22.7335 22.7335C8.81778 36.6493 1 55.5231 1 75.2029V75.2029Z" fill="#C7F0FF" stroke="#C7F0FF" stroke-width="1.5"/>
<g clip-path="url(#clip0)">
<path d="M96.8479 133.945V112.994H99.0215H101.225V121.658L109.255 112.994H112.033H114.81L106.448 121.537L115.353 133.945H112.485H109.618L103.338 124.737L101.225 126.911V133.945H99.0517H96.8479ZM54.0711 13.0706V26.9573L67.9577 13.0706H54.0711ZM39.7014 97.4168H50.1164V9.11597H100.923V26.5648C100.289 26.3837 99.6554 26.2931 98.9611 26.2931C98.2668 26.2931 97.6026 26.3837 96.9687 26.595V13.0706H73.5425L54.0711 32.5421V97.4168H64.486V101.371H39.7014V97.4168ZM1 137.99H25.7846V141.945H1V137.99ZM31.9128 137.99H56.6975V141.945H31.9128V137.99ZM62.8257 137.99H87.6103V141.945H62.8257V137.99ZM93.7385 137.99H118.523V141.945H93.7385V137.99ZM124.621 137.99H149.406V141.945H124.621V137.99ZM17.2111 119.273C17.1206 118.277 16.6979 117.492 15.913 116.918C15.1281 116.345 14.0715 116.043 12.8036 116.043C11.6867 116.043 10.8414 116.285 10.2074 116.768C9.57348 117.251 9.2716 117.945 9.2716 118.82C9.2716 119.454 9.60367 119.937 10.2678 120.269C10.9018 120.601 12.2904 121.024 14.3734 121.477C17.4224 122.171 19.4451 122.956 20.4715 123.832C21.4979 124.707 22.0111 126.126 22.0111 128.088C22.0111 130.05 21.2262 131.62 19.6866 132.767C18.147 133.914 16.0338 134.488 13.4074 134.488C10.7508 134.488 8.69802 133.884 7.18861 132.647C5.70938 131.409 4.89429 129.688 4.80373 127.424H9.03009C9.09047 128.541 9.48292 129.386 10.2376 129.99C10.9923 130.594 12.0489 130.865 13.4074 130.865C14.7961 130.865 15.8828 130.624 16.6677 130.201C17.4526 129.749 17.8451 129.115 17.8451 128.33C17.8451 127.545 17.5734 126.971 16.9998 126.579C16.4564 126.216 15.2791 125.824 13.4678 125.432C10.1471 124.677 7.94331 123.892 6.82635 123.017C5.70938 122.171 5.16599 120.813 5.16599 119.001C5.16599 116.979 5.89051 115.349 7.36974 114.171C8.84896 112.994 10.8414 112.39 13.3168 112.39C15.6715 112.39 17.5734 112.994 19.0224 114.232C20.5017 115.469 21.3167 117.13 21.4677 119.243H17.2111V119.273Z" fill="url(#paint0_linear)"/>
</g>
<defs>
<linearGradient id="paint0_linear" x1="75.2029" y1="9.11597" x2="75.2029" y2="141.945" gradientUnits="userSpaceOnUse">
<stop stop-color="#2200FF"/>
<stop offset="1" stop-color="#9E00FF"/>
</linearGradient>
<clipPath id="clip0">
<rect width="148.406" height="148.406" fill="white" transform="translate(1 1)"/>
</clipPath>
</defs>
</svg>
