<svg width="160" height="160" viewBox="0 0 160 160" fill="none" xmlns="http://www.w3.org/2000/svg">
<path d="M15.9995 80C15.9995 96.9739 22.7423 113.253 34.7447 125.255C46.747 137.257 63.0257 144 79.9995 144C96.9734 144 113.252 137.257 125.254 125.255C137.257 113.253 144 96.9739 144 80C144 63.0261 137.257 46.7475 125.254 34.7452C113.252 22.7428 96.9734 16 79.9995 16C63.0257 16 46.747 22.7428 34.7447 34.7452C22.7423 46.7475 15.9995 63.0261 15.9995 80V80Z" fill="#C7F0FF" stroke="#C7F0FF" stroke-width="1.5"/>
<path opacity="0.15" d="M61.9243 132.632C61.9243 132.963 62.4023 133.291 63.331 133.596C64.2597 133.902 65.621 134.18 67.337 134.414C69.053 134.648 71.0902 134.834 73.3323 134.96C75.5744 135.087 77.9775 135.152 80.4043 135.152C82.8312 135.152 85.2342 135.087 87.4763 134.96C89.7184 134.834 91.7556 134.648 93.4717 134.414C95.1877 134.18 96.5489 133.902 97.4776 133.596C98.4063 133.291 98.8843 132.963 98.8843 132.632C98.8843 132.301 98.4063 131.973 97.4776 131.668C96.5489 131.362 95.1877 131.084 93.4717 130.85C91.7556 130.616 89.7184 130.431 87.4763 130.304C85.2342 130.177 82.8312 130.112 80.4043 130.112C77.9775 130.112 75.5744 130.177 73.3323 130.304C71.0902 130.431 69.053 130.616 67.337 130.85C65.621 131.084 64.2597 131.362 63.331 131.668C62.4023 131.973 61.9243 132.301 61.9243 132.632V132.632Z" fill="#45413C"/>
<path d="M77.9414 118.615C78.4909 118.99 79.1412 119.192 79.807 119.192C80.4728 119.192 81.1231 118.99 81.6726 118.615C119.391 92.7681 126.615 79.4977 126.604 61.8017C126.46 57.6935 125.375 53.6731 123.434 50.0499C121.492 46.4267 118.745 43.2973 115.404 40.9025C98.0486 27.9281 85.055 46.4257 79.8086 52.3825C76.1286 48.2049 62.191 27.4673 44.2182 40.9025C37.911 45.5665 33.0182 53.3233 33.0054 61.8017C32.9846 79.4977 40.2262 92.7681 77.9414 118.615Z" fill="#FF6242"/>
<path d="M125.879 70.4785C124.241 64.3077 120.543 58.8821 115.399 55.1009C98.0469 42.1313 85.0533 60.6257 79.8101 66.5825C76.1301 62.4001 62.1893 41.6657 44.2149 55.1009C39.071 58.8827 35.3712 64.3062 33.7269 70.4753C33.2173 67.6128 32.9747 64.7091 33.0021 61.8017V61.8017C33.0021 53.3217 37.9077 45.5665 44.2149 40.9025C62.1877 27.4625 76.1285 48.2049 79.8053 52.3825C85.0517 46.4257 98.0453 27.9281 115.4 40.9025C118.742 43.2973 121.489 46.4267 123.43 50.0499C125.372 53.6731 126.457 57.6935 126.6 61.8017C126.629 64.7101 126.387 67.6148 125.879 70.4785Z" fill="#FF866E"/>
<path d="M77.9414 118.615C78.4909 118.99 79.1412 119.192 79.807 119.192C80.4728 119.192 81.1231 118.99 81.6726 118.615C119.391 92.7681 126.615 79.4977 126.604 61.8017C126.46 57.6935 125.375 53.6731 123.434 50.0499C121.492 46.4267 118.745 43.2973 115.404 40.9025C98.0486 27.9281 85.055 46.4257 79.8086 52.3825C76.1286 48.2049 62.191 27.4673 44.2182 40.9025C37.911 45.5665 33.0182 53.3233 33.0054 61.8017C32.9846 79.4977 40.2262 92.7681 77.9414 118.615Z" stroke="#45413C" stroke-width="1.5" stroke-linecap="round" stroke-linejoin="round"/>
<path d="M96.3382 75.7219H86.7382V66.1219C86.7382 65.6061 86.5335 65.1115 86.1689 64.7467C85.8044 64.3819 85.3099 64.1767 84.7942 64.1763H74.8198C74.3038 64.1763 73.8089 64.3813 73.4441 64.7461C73.0792 65.111 72.8742 65.6059 72.8742 66.1219V75.7219H63.2742C63.0187 75.7217 62.7656 75.7718 62.5294 75.8695C62.2933 75.9672 62.0787 76.1105 61.898 76.2913C61.7173 76.472 61.574 76.6865 61.4763 76.9227C61.3786 77.1588 61.3284 77.4119 61.3286 77.6675V87.6371C61.3286 87.8925 61.379 88.1454 61.4767 88.3814C61.5745 88.6173 61.7179 88.8317 61.8986 89.0123C62.0792 89.1928 62.2937 89.336 62.5298 89.4336C62.7658 89.5312 63.0188 89.5813 63.2742 89.5811H72.8742V99.1811C72.874 99.4366 72.9242 99.6897 73.0219 99.9259C73.1196 100.162 73.2629 100.377 73.4436 100.557C73.6243 100.738 73.8389 100.881 74.075 100.979C74.3112 101.077 74.5643 101.127 74.8198 101.127H84.7894C85.0448 101.127 85.2978 101.076 85.5337 100.979C85.7697 100.881 85.9841 100.737 86.1646 100.557C86.3451 100.376 86.4883 100.162 86.5859 99.9255C86.6835 99.6895 86.7336 99.4365 86.7334 99.1811V89.5811H96.3334C96.5888 89.5813 96.8418 89.5312 97.0778 89.4336C97.3139 89.336 97.5284 89.1928 97.7091 89.0123C97.8897 88.8317 98.0331 88.6173 98.1309 88.3814C98.2287 88.1454 98.279 87.8925 98.279 87.6371V77.6675C98.2794 77.1522 98.0753 76.6578 97.7113 76.293C97.3474 75.9281 96.8535 75.7227 96.3382 75.7219V75.7219Z" fill="white" stroke="#E04122" stroke-width="1.5" stroke-linecap="round" stroke-linejoin="round"/>
<path d="M101.81 109H93.7063C93.5804 109 93.4557 109.025 93.3394 109.073C93.2231 109.121 93.1174 109.192 93.0284 109.281C92.9393 109.37 92.8687 109.476 92.8205 109.592C92.7724 109.708 92.7476 109.833 92.7476 109.959V135.971H102.77V109.959C102.769 109.704 102.668 109.46 102.488 109.281C102.308 109.101 102.064 109 101.81 109V109Z" fill="#6DD627" stroke="#45413C" stroke-width="1.5" stroke-linecap="round" stroke-linejoin="round"/>
<path d="M131.253 115.233C131.253 114.979 131.152 114.735 130.972 114.555C130.792 114.376 130.548 114.275 130.294 114.275H122.189C121.935 114.275 121.691 114.376 121.511 114.555C121.331 114.735 121.23 114.979 121.23 115.233V135.972H131.253V115.233Z" fill="#FFE500" stroke="#45413C" stroke-width="1.5" stroke-linecap="round" stroke-linejoin="round"/>
<path d="M88 135.971H136" stroke="#45413C" stroke-width="1.5" stroke-linecap="round" stroke-linejoin="round"/>
<path d="M116.051 123.714H107.948C107.693 123.714 107.449 123.815 107.269 123.995C107.089 124.174 106.988 124.418 106.988 124.673V135.971H117.01V124.673C117.01 124.418 116.909 124.174 116.729 123.995C116.549 123.815 116.305 123.714 116.051 123.714Z" fill="#FF6242" stroke="#45413C" stroke-width="1.5" stroke-linecap="round" stroke-linejoin="round"/>
</svg>
