<svg viewBox="0 0 48 48" height="48" width="48" xmlns="http://www.w3.org/2000/svg"><g transform="matrix(0.48,0,0,0.48,0,0)"><path d="M10.000 50.000 A40.000 40.000 0 1 0 90.000 50.000 A40.000 40.000 0 1 0 10.000 50.000 Z" fill="#C7F0FF" stroke="#daedf7"></path><path d="M38.450 85.000 A11.55 1.575 0 1 0 61.550 85.000 A11.55 1.575 0 1 0 38.450 85.000 Z" fill="#45413c" opacity=".15"></path><path d="M50,20.425v8.711A20.6,20.6,0,0,0,35.376,35.2l-6.163-6.163A29.286,29.286,0,0,1,50,20.425Z" fill="#ff6196" stroke="#45413c"></path><path d="M41.528,41.353A11.945,11.945,0,0,1,50,37.847v8.711a3.26,3.26,0,0,0-2.309.958Z" fill="#ffb0ca" stroke="#45413c"></path><path d="M50,37.847a11.945,11.945,0,0,1,8.472,3.506l-6.163,6.163A3.26,3.26,0,0,0,50,46.558Z" fill="#dabff5" stroke="#45413c"></path><path d="M70.787,29.038,64.624,35.2A20.6,20.6,0,0,0,50,29.136V20.425A29.286,29.286,0,0,1,70.787,29.038Z" fill="#9f5ae5" stroke="#45413c"></path><path d="M58.472,41.353a11.945,11.945,0,0,1,3.506,8.472H53.267a3.26,3.26,0,0,0-.958-2.309Z" fill="#80ddff" stroke="#45413c"></path><path d="M79.4,49.825H70.689A20.6,20.6,0,0,0,64.624,35.2l6.163-6.163A29.286,29.286,0,0,1,79.4,49.825Z" fill="#00b8f0" stroke="#45413c"></path><path d="M53.267,49.825h8.711A11.941,11.941,0,0,1,58.472,58.3l-6.163-6.162A3.26,3.26,0,0,0,53.267,49.825Z" fill="#a6fbff" stroke="#45413c"></path><path d="M79.4,49.825a29.286,29.286,0,0,1-8.613,20.787l-6.163-6.163a20.6,20.6,0,0,0,6.065-14.624Z" fill="#00dfeb" stroke="#45413c"></path><path d="M50,53.092V61.8A11.942,11.942,0,0,1,41.528,58.3l6.163-6.162A3.26,3.26,0,0,0,50,53.092Z" fill="#fffacf" stroke="#45413c"></path><path d="M35.376,64.449A20.6,20.6,0,0,0,50,70.514v8.711a29.286,29.286,0,0,1-20.787-8.613Z" fill="#ffe500" stroke="#45413c"></path><path d="M29.311,49.825a20.6,20.6,0,0,0,6.065,14.624l-6.163,6.163A29.286,29.286,0,0,1,20.6,49.825Z" fill="#ff8a14" stroke="#45413c"></path><path d="M47.691,52.134,41.528,58.3a11.941,11.941,0,0,1-3.506-8.471h8.711A3.264,3.264,0,0,0,47.691,52.134Z" fill="#ffcc99" stroke="#45413c"></path><path d="M29.213,29.038,35.376,35.2a20.6,20.6,0,0,0-6.065,14.624H20.6A29.286,29.286,0,0,1,29.213,29.038Z" fill="#ff6242" stroke="#45413c"></path><path d="M47.691,47.516a3.264,3.264,0,0,0-.958,2.309H38.022a11.945,11.945,0,0,1,3.506-8.472Z" fill="#ffa694" stroke="#45413c"></path><path d="M58.472,58.3A11.942,11.942,0,0,1,50,61.8V53.092a3.26,3.26,0,0,0,2.309-.958Z" fill="#c8ffa1" stroke="#45413c"></path><path d="M70.787,70.612A29.286,29.286,0,0,1,50,79.225V70.514a20.6,20.6,0,0,0,14.624-6.065Z" fill="#6dd627" stroke="#45413c"></path><path d="M41.528,41.353a11.945,11.945,0,0,0-3.506,8.472H29.311A20.6,20.6,0,0,1,35.376,35.2Z" fill="#ff866e" stroke="#45413c"></path><path d="M50,29.136v8.711a11.945,11.945,0,0,0-8.472,3.506L35.376,35.2A20.6,20.6,0,0,1,50,29.136Z" fill="#ff87af" stroke="#45413c"></path><path d="M64.624,35.2l-6.152,6.152A11.945,11.945,0,0,0,50,37.847V29.136A20.6,20.6,0,0,1,64.624,35.2Z" fill="#bf8df2" stroke="#45413c"></path><path d="M70.689,49.825H61.978a11.945,11.945,0,0,0-3.506-8.472L64.624,35.2A20.6,20.6,0,0,1,70.689,49.825Z" fill="#4acfff" stroke="#45413c"></path><path d="M70.689,49.825a20.6,20.6,0,0,1-6.065,14.624L58.472,58.3a11.941,11.941,0,0,0,3.506-8.471Z" fill="#4aeff7" stroke="#45413c"></path><path d="M64.624,64.449A20.6,20.6,0,0,1,50,70.514V61.8A11.942,11.942,0,0,0,58.472,58.3Z" fill="#9ceb60" stroke="#45413c"></path><path d="M50,61.8v8.711a20.6,20.6,0,0,1-14.624-6.065L41.528,58.3A11.942,11.942,0,0,0,50,61.8Z" fill="#fff48c" stroke="#45413c"></path><path d="M41.528,58.3l-6.152,6.153a20.6,20.6,0,0,1-6.065-14.624h8.711A11.941,11.941,0,0,0,41.528,58.3Z" fill="#ffaa54" stroke="#45413c"></path><path d="M61.978,49.825a11.97,11.97,0,1,1-3.506-8.472A11.941,11.941,0,0,1,61.978,49.825Z" fill="none" stroke="#45413c"></path><path d="M61.978,49.825a11.97,11.97,0,1,1-3.506-8.472A11.941,11.941,0,0,1,61.978,49.825Z" fill="none" stroke="#45413c"></path></g></svg>