<svg xmlns="http://www.w3.org/2000/svg" version="1.1" xmlns:xlink="http://www.w3.org/1999/xlink" xmlns:svgjs="http://svgjs.com/svgjs" viewBox="0 0 160 160" width="160" height="160"><g transform="matrix(1.6,0,0,1.6,0,0)"><path d="M10.000 50.000 A40.000 40.000 0 1 0 90.000 50.000 A40.000 40.000 0 1 0 10.000 50.000 Z" fill="#c7f0ff" stroke="#c7f0ff" stroke-miterlimit="10"></path><path d="M39.000 82.500 A11 1.5 0 1 0 61.000 82.500 A11 1.5 0 1 0 39.000 82.500 Z" fill="#45413c" opacity=".15"></path><path d="M28.419 16.533 L71.580 16.533 L71.580 72.930 L28.419 72.930 Z" fill="#bf8256"></path><path d="M71.581,21.137a4.6,4.6,0,0,0-4.6-4.6H33.023a4.6,4.6,0,0,0-4.6,4.6v6.33a4.6,4.6,0,0,1,4.6-4.6H66.977a4.6,4.6,0,0,1,4.6,4.6Z" fill="#dea47a"></path><path d="M28.419 16.533 L71.580 16.533 L71.580 72.930 L28.419 72.930 Z" fill="none" stroke="#45413c" stroke-linecap="round" stroke-linejoin="round"></path><path d="M33.599 19.986 L66.401 19.986 L66.401 68.326 L33.599 68.326 Z" fill="#ffffff" stroke="#45413c" stroke-linecap="round" stroke-linejoin="round"></path><path d="M54.287,15.382c.007-.1.029-.189.029-.288a4.316,4.316,0,0,0-8.632,0c0,.1.022.191.029.288H40.505a1.151,1.151,0,0,0-1.151,1.151v4.6a1.151,1.151,0,0,0,1.151,1.151H59.5a1.151,1.151,0,0,0,1.151-1.151v-4.6A1.151,1.151,0,0,0,59.5,15.382Z" fill="#c0dceb"></path><path d="M60.646,16.533A1.151,1.151,0,0,0,59.5,15.382H54.287c.007-.1.029-.189.029-.288a4.316,4.316,0,0,0-8.632,0c0,.1.022.191.029.288H40.505a1.151,1.151,0,0,0-1.151,1.151v1.151H60.646Z" fill="#c7f0ff"></path><path d="M54.287,15.382c.007-.1.029-.189.029-.288a4.316,4.316,0,0,0-8.632,0c0,.1.022.191.029.288H40.505a1.151,1.151,0,0,0-1.151,1.151v4.6a1.151,1.151,0,0,0,1.151,1.151H59.5a1.151,1.151,0,0,0,1.151-1.151v-4.6A1.151,1.151,0,0,0,59.5,15.382Z" fill="none" stroke="#45413c" stroke-linecap="round" stroke-linejoin="round"></path><path d="M39.594 33.586 A1.250 1.250 0 1 0 42.094 33.586 A1.250 1.250 0 1 0 39.594 33.586 Z" fill="#ff6242"></path><path d="M46.344 33.586L60.156 33.586" fill="none" stroke="#ff6242" stroke-linecap="round" stroke-linejoin="round" stroke-width="1.5"></path><path d="M39.594 41.303 A1.250 1.250 0 1 0 42.094 41.303 A1.250 1.250 0 1 0 39.594 41.303 Z" fill="#ff8a14"></path><path d="M46.344 41.303L60.156 41.303" fill="none" stroke="#ff8a14" stroke-linecap="round" stroke-linejoin="round" stroke-width="1.5"></path><path d="M39.594 49.021 A1.250 1.250 0 1 0 42.094 49.021 A1.250 1.250 0 1 0 39.594 49.021 Z" fill="#6dd627"></path><path d="M46.344 49.021L60.156 49.021" fill="none" stroke="#6dd627" stroke-linecap="round" stroke-linejoin="round" stroke-width="1.5"></path><path d="M39.594 56.738 A1.250 1.250 0 1 0 42.094 56.738 A1.250 1.250 0 1 0 39.594 56.738 Z" fill="#00b8f0"></path><path d="M46.344 56.738L60.156 56.738" fill="none" stroke="#00b8f0" stroke-linecap="round" stroke-linejoin="round" stroke-width="1.5"></path></g></svg>