<svg width="128" height="128" viewBox="0 0 128 128" fill="none" xmlns="http://www.w3.org/2000/svg">
<circle cx="64" cy="64" r="64" fill="#C7F0FF"/>
<g clip-path="url(#clip0)">
<path d="M67.9997 112H57.333V126.667H67.9997V112Z" fill="#AEB4C6"/>
<path d="M65.333 116H67.9997V126.667H61.333V120C61.333 118.939 61.7544 117.922 62.5046 117.172C63.2547 116.421 64.2721 116 65.333 116Z" fill="#C6CCDA"/>
<path d="M50.667 105.333H74.667V108C74.667 109.061 74.2456 110.078 73.4954 110.829C72.7453 111.579 71.7279 112 70.667 112H54.667C53.6061 112 52.5887 111.579 51.8386 110.829C51.0884 110.078 50.667 109.061 50.667 108V105.333Z" fill="#969CB2"/>
<path d="M33.3335 0H14.667V10.6667H33.3335V0Z" fill="#F6B756"/>
<path d="M33.3335 10.6667H14.667L18.667 4H29.3336L33.3335 10.6667Z" fill="#FAC77D"/>
<path d="M71.9997 0H53.333V10.6667H71.9997V0Z" fill="#F6B756"/>
<path d="M71.9997 10.6667H53.333L57.333 4H67.9997L71.9997 10.6667Z" fill="#FAC77D"/>
<path d="M110.667 0H92V10.6667H110.667V0Z" fill="#F6B756"/>
<path d="M110.667 10.6667H92L96 4H106.667L110.667 10.6667Z" fill="#FAC77D"/>
<path d="M125.333 17.333H0V105.333H125.333V17.333Z" fill="#8288A1"/>
<path d="M120 22.667H5.33301V100H120V22.667Z" fill="#7190C4"/>
<path d="M116 26.6665H9.33301V95.9998H116V26.6665Z" fill="#89A3CE"/>
<path d="M58.6663 30.6665H13.333V46.6665H58.6663V30.6665Z" fill="#85BD79"/>
<path d="M17.3335 30.6665H58.6666V42.6665H25.3334C23.2117 42.6665 21.1769 41.8237 19.6766 40.3234C18.1763 38.8231 17.3335 36.7882 17.3335 34.6665V30.6665Z" fill="#9FC98A"/>
<path d="M22.6667 41.3333C24.1394 41.3333 25.3333 40.1394 25.3333 38.6667C25.3333 37.1939 24.1394 36 22.6667 36C21.1939 36 20 37.1939 20 38.6667C20 40.1394 21.1939 41.3333 22.6667 41.3333Z" fill="#D4E6B6"/>
<path d="M112 30.6665H66.6665V46.6665H112V30.6665Z" fill="#CF4055"/>
<path d="M70.6665 30.6665H112V42.6665H78.6666C76.5448 42.6665 74.51 41.8237 73.0097 40.3234C71.5094 38.8231 70.6665 36.7882 70.6665 34.6665V30.6665Z" fill="#DC5D6B"/>
<path d="M76.0004 41.3333C77.4733 41.3333 78.6673 40.1394 78.6673 38.6667C78.6673 37.1939 77.4733 36 76.0004 36C74.5275 36 73.3335 37.1939 73.3335 38.6667C73.3335 40.1394 74.5275 41.3333 76.0004 41.3333Z" fill="#F4929C"/>
<path d="M58.6663 54.667H13.333V91.9998H58.6663V54.667Z" fill="#ABD9E6"/>
<path d="M17.3335 54.667H58.6666V87.9998H25.3334C23.2117 87.9998 21.1769 87.157 19.6766 85.6567C18.1763 84.1565 17.3335 82.1217 17.3335 80V54.667Z" fill="#C3E1F5"/>
<path d="M38.6667 79.9997V61.333H33.3332C33.3332 62.0403 33.0523 62.7185 32.5522 63.2186C32.0521 63.7187 31.3738 63.9997 30.6665 63.9997V69.333H33.3332V79.9997H30.6665V85.333H41.3334V79.9997H38.6667Z" fill="#85BD79"/>
<path d="M112 54.667H66.6665V91.9998H112V54.667Z" fill="#ABD9E6"/>
<path d="M70.6665 54.667H112V87.9998H78.6666C76.5448 87.9998 74.51 87.157 73.0097 85.6567C71.5094 84.1565 70.6665 82.1217 70.6665 80V54.667Z" fill="#C3E1F5"/>
<path d="M94.9864 63.68C94.2469 62.9333 93.3662 62.3413 92.3957 61.9384C91.4251 61.5355 90.3841 61.3298 89.3332 61.3333C87.2116 61.3333 85.1768 62.1761 83.6766 63.6764C82.1763 65.1767 81.3335 67.2116 81.3335 69.3333V77.3333C81.3335 79.455 82.1763 81.4899 83.6766 82.9902C85.1768 84.4905 87.2116 85.3333 89.3332 85.3333C91.4549 85.3333 93.4897 84.4905 94.9899 82.9902C96.4902 81.4899 97.333 79.455 97.333 77.3333V69.3333C97.3365 68.2824 97.1308 67.2414 96.7279 66.2708C96.325 65.3002 95.733 64.4195 94.9864 63.68V63.68ZM91.9998 77.3333C91.9998 78.0405 91.7189 78.7188 91.2188 79.2189C90.7187 79.719 90.0405 80 89.3332 80C88.626 80 87.9478 79.719 87.4477 79.2189C86.9476 78.7188 86.6667 78.0405 86.6667 77.3333V69.3333C86.6667 68.6261 86.9476 67.9478 87.4477 67.4477C87.9478 66.9476 88.626 66.6666 89.3332 66.6666C90.0405 66.6666 90.7187 66.9476 91.2188 67.4477C91.7189 67.9478 91.9998 68.6261 91.9998 69.3333V77.3333Z" fill="#CF4055"/>
<path d="M125.333 15.9999H102.667V11.9999H110.667C111.02 11.9999 111.359 11.8594 111.609 11.6093C111.859 11.3593 112 11.0201 112 10.6665V-0.000160217C112 -0.353783 111.859 -0.692922 111.609 -0.942971C111.359 -1.19302 111.02 -1.3335 110.667 -1.3335H92C91.6463 -1.3335 91.3072 -1.19302 91.0572 -0.942971C90.8071 -0.692922 90.6666 -0.353783 90.6666 -0.000160217V10.6665C90.6666 11.0201 90.8071 11.3593 91.0572 11.6093C91.3072 11.8594 91.6463 11.9999 92 11.9999H99.9999V15.9999H64.0001V11.9999H72C72.3537 11.9999 72.6928 11.8594 72.9428 11.6093C73.1929 11.3593 73.3334 11.0201 73.3334 10.6665V-0.000160217C73.3334 -0.353783 73.1929 -0.692922 72.9428 -0.942971C72.6928 -1.19302 72.3537 -1.3335 72 -1.3335H53.3334C52.9798 -1.3335 52.6407 -1.19302 52.3906 -0.942971C52.1406 -0.692922 52.0001 -0.353783 52.0001 -0.000160217V10.6665C52.0001 11.0201 52.1406 11.3593 52.3906 11.6093C52.6407 11.8594 52.9798 11.9999 53.3334 11.9999H61.3334V15.9999H25.3336V11.9999H33.3335C33.6871 11.9999 34.0263 11.8594 34.2763 11.6093C34.5264 11.3593 34.6669 11.0201 34.6669 10.6665V-0.000160217C34.6669 -0.353783 34.5264 -0.692922 34.2763 -0.942971C34.0263 -1.19302 33.6871 -1.3335 33.3335 -1.3335H14.6669C14.3133 -1.3335 13.9742 -1.19302 13.7241 -0.942971C13.4741 -0.692922 13.3336 -0.353783 13.3336 -0.000160217V10.6665C13.3336 11.0201 13.4741 11.3593 13.7241 11.6093C13.9742 11.8594 14.3133 11.9999 14.6669 11.9999H22.6669V15.9999H0.000320315C-0.3533 15.9999 -0.692438 16.1403 -0.942485 16.3904C-1.19253 16.6404 -1.33301 16.9796 -1.33301 17.3332V105.333C-1.33301 105.687 -1.19253 106.026 -0.942485 106.276C-0.692438 106.526 -0.3533 106.667 0.000320315 106.667H49.3335V108C49.3335 109.415 49.8954 110.771 50.8956 111.771C51.8957 112.771 53.2523 113.333 54.6668 113.333H56.0001V125.333C56.0001 125.687 56.1406 126.026 56.3906 126.276C56.6407 126.526 56.9798 126.667 57.3334 126.667C57.6871 126.667 58.0262 126.526 58.2762 126.276C58.5263 126.026 58.6668 125.687 58.6668 125.333V113.333H66.6667V125.333C66.6667 125.687 66.8072 126.026 67.0572 126.276C67.3073 126.526 67.6464 126.667 68.0001 126.667C68.3537 126.667 68.6928 126.526 68.9429 126.276C69.1929 126.026 69.3334 125.687 69.3334 125.333V113.333H70.6667C72.0812 113.333 73.4377 112.771 74.4379 111.771C75.4381 110.771 76 109.415 76 108V106.667H125.333C125.687 106.667 126.026 106.526 126.276 106.276C126.526 106.026 126.666 105.687 126.666 105.333V17.3332C126.666 16.9796 126.526 16.6404 126.276 16.3904C126.026 16.1403 125.687 15.9999 125.333 15.9999ZM93.3333 1.33318H109.333V9.33319H93.3333V1.33318ZM54.6668 1.33318H70.6667V9.33319H54.6668V1.33318ZM16.0003 1.33318H32.0002V9.33319H16.0003V1.33318ZM73.3334 108C73.3334 108.707 73.0524 109.386 72.5523 109.886C72.0522 110.386 71.374 110.667 70.6667 110.667H54.6668C53.9595 110.667 53.2813 110.386 52.7812 109.886C52.2811 109.386 52.0001 108.707 52.0001 108V106.667H73.3334V108ZM124 104H1.33365V18.6665H124V104Z" fill="#39426A"/>
<path d="M4 22.6663V99.9998C4 100.353 4.14048 100.693 4.39052 100.943C4.64057 101.193 4.97971 101.333 5.33333 101.333H120C120.354 101.333 120.693 101.193 120.943 100.943C121.193 100.693 121.333 100.353 121.333 99.9998V22.6663C121.333 22.3127 121.193 21.9736 120.943 21.7235C120.693 21.4735 120.354 21.333 120 21.333H5.33333C4.97971 21.333 4.64057 21.4735 4.39052 21.7235C4.14048 21.9736 4 22.3127 4 22.6663V22.6663ZM6.66667 23.9997H118.667V98.6665H6.66667V23.9997Z" fill="#39426A"/>
<path d="M58.6667 29.3335H13.3333C12.9797 29.3335 12.6406 29.474 12.3905 29.724C12.1405 29.9741 12 30.3132 12 30.6668V46.6668C12 47.0204 12.1405 47.3596 12.3905 47.6096C12.6406 47.8597 12.9797 48.0002 13.3333 48.0002H58.6667C59.0203 48.0002 59.3594 47.8597 59.6095 47.6096C59.8595 47.3596 60 47.0204 60 46.6668V30.6668C60 30.3132 59.8595 29.9741 59.6095 29.724C59.3594 29.474 59.0203 29.3335 58.6667 29.3335ZM57.3333 45.3335H14.6667V32.0002H57.3333V45.3335Z" fill="#39426A"/>
<path d="M31.9998 39.9999H51.9998C52.3535 39.9999 52.6926 39.8594 52.9426 39.6094C53.1927 39.3594 53.3332 39.0202 53.3332 38.6666C53.3332 38.313 53.1927 37.9738 52.9426 37.7238C52.6926 37.4737 52.3535 37.3333 51.9998 37.3333H31.9998C31.6462 37.3333 31.3071 37.4737 31.057 37.7238C30.807 37.9738 30.6665 38.313 30.6665 38.6666C30.6665 39.0202 30.807 39.3594 31.057 39.6094C31.3071 39.8594 31.6462 39.9999 31.9998 39.9999Z" fill="#D4E6B6"/>
<path d="M22.6665 42.6667C23.4576 42.6667 24.231 42.4322 24.8888 41.9926C25.5466 41.5531 26.0593 40.9284 26.362 40.1975C26.6648 39.4666 26.744 38.6623 26.5896 37.8864C26.4353 37.1105 26.0543 36.3977 25.4949 35.8383C24.9355 35.2789 24.2228 34.8979 23.4469 34.7436C22.6709 34.5893 21.8667 34.6685 21.1358 34.9712C20.4049 35.274 19.7802 35.7867 19.3406 36.4445C18.9011 37.1023 18.6665 37.8756 18.6665 38.6667C18.6665 39.7276 19.0879 40.745 19.8381 41.4952C20.5882 42.2453 21.6056 42.6667 22.6665 42.6667ZM22.6665 37.3334C22.9302 37.3334 23.188 37.4116 23.4073 37.5581C23.6265 37.7046 23.7974 37.9129 23.8983 38.1565C23.9993 38.4001 24.0257 38.6682 23.9742 38.9269C23.9228 39.1855 23.7958 39.4231 23.6093 39.6096C23.4228 39.796 23.1853 39.923 22.9266 39.9745C22.668 40.0259 22.3999 39.9995 22.1563 39.8986C21.9126 39.7977 21.7044 39.6268 21.5579 39.4075C21.4114 39.1882 21.3332 38.9305 21.3332 38.6667C21.3332 38.3131 21.4736 37.974 21.7237 37.7239C21.9737 37.4739 22.3129 37.3334 22.6665 37.3334Z" fill="#39426A"/>
<path d="M112 29.3335H66.6668C66.3132 29.3335 65.9741 29.474 65.724 29.724C65.474 29.9741 65.3335 30.3132 65.3335 30.6668V46.6668C65.3335 47.0204 65.474 47.3596 65.724 47.6096C65.9741 47.8597 66.3132 48.0002 66.6668 48.0002H112C112.353 48.0002 112.692 47.8597 112.942 47.6096C113.193 47.3596 113.333 47.0204 113.333 46.6668V30.6668C113.333 30.3132 113.193 29.9741 112.942 29.724C112.692 29.474 112.353 29.3335 112 29.3335ZM110.666 45.3335H68.0001V32.0002H110.666V45.3335Z" fill="#39426A"/>
<path d="M85.3333 39.9999H105.333C105.687 39.9999 106.026 39.8594 106.276 39.6094C106.526 39.3594 106.667 39.0202 106.667 38.6666C106.667 38.313 106.526 37.9738 106.276 37.7238C106.026 37.4737 105.687 37.3333 105.333 37.3333H85.3333C84.9797 37.3333 84.6406 37.4737 84.3905 37.7238C84.1405 37.9738 84 38.313 84 38.6666C84 39.0202 84.1405 39.3594 84.3905 39.6094C84.6406 39.8594 84.9797 39.9999 85.3333 39.9999Z" fill="#F4929C"/>
<path d="M76 42.6667C76.7911 42.6667 77.5645 42.4322 78.2223 41.9926C78.8801 41.5531 79.3928 40.9284 79.6955 40.1975C79.9983 39.4666 80.0775 38.6623 79.9231 37.8864C79.7688 37.1105 79.3878 36.3977 78.8284 35.8383C78.269 35.2789 77.5563 34.8979 76.7804 34.7436C76.0044 34.5893 75.2002 34.6685 74.4693 34.9712C73.7384 35.274 73.1136 35.7867 72.6741 36.4445C72.2346 37.1023 72 37.8756 72 38.6667C72 39.7276 72.4214 40.745 73.1716 41.4952C73.9217 42.2453 74.9391 42.6667 76 42.6667ZM76 37.3334C76.2637 37.3334 76.5215 37.4116 76.7408 37.5581C76.96 37.7046 77.1309 37.9129 77.2318 38.1565C77.3328 38.4001 77.3592 38.6682 77.3077 38.9269C77.2563 39.1855 77.1293 39.4231 76.9428 39.6096C76.7563 39.796 76.5188 39.923 76.2601 39.9745C76.0015 40.0259 75.7334 39.9995 75.4898 39.8986C75.2461 39.7977 75.0379 39.6268 74.8914 39.4075C74.7449 39.1882 74.6667 38.9305 74.6667 38.6667C74.6667 38.3131 74.8071 37.974 75.0572 37.7239C75.3072 37.4739 75.6464 37.3334 76 37.3334Z" fill="#39426A"/>
<path d="M58.6667 53.333H13.3333C12.9797 53.333 12.6406 53.4735 12.3905 53.7235C12.1405 53.9736 12 54.3127 12 54.6664V92.0001C12 92.3538 12.1405 92.6929 12.3905 92.943C12.6406 93.193 12.9797 93.3335 13.3333 93.3335H58.6667C59.0203 93.3335 59.3594 93.193 59.6095 92.943C59.8595 92.6929 60 92.3538 60 92.0001V54.6664C60 54.3127 59.8595 53.9736 59.6095 53.7235C59.3594 53.4735 59.0203 53.333 58.6667 53.333ZM57.3333 90.6668H14.6667V55.9997H57.3333V90.6668Z" fill="#39426A"/>
<path d="M30.6668 86.6667H41.3333C41.6869 86.6667 42.026 86.5262 42.2761 86.2761C42.5261 86.0261 42.6666 85.687 42.6666 85.3333V80C42.6666 79.6464 42.5261 79.3072 42.2761 79.0572C42.026 78.8071 41.6869 78.6667 41.3333 78.6667H40V61.3333C40 60.9797 39.8595 60.6406 39.6095 60.3905C39.3594 60.1405 39.0203 60 38.6667 60H33.3334C32.9798 60 32.6407 60.1405 32.3906 60.3905C32.1406 60.6406 32.0001 60.9797 32.0001 61.3333C32.0001 61.687 31.8596 62.0261 31.6096 62.2761C31.3596 62.5262 31.0204 62.6667 30.6668 62.6667C30.3132 62.6667 29.9741 62.8071 29.724 63.0572C29.474 63.3072 29.3335 63.6464 29.3335 64V69.3333C29.3335 69.687 29.474 70.0261 29.724 70.2761C29.9741 70.5262 30.3132 70.6667 30.6668 70.6667H32.0001V78.6667H30.6668C30.3132 78.6667 29.9741 78.8071 29.724 79.0572C29.474 79.3072 29.3335 79.6464 29.3335 80V85.3333C29.3335 85.687 29.474 86.0261 29.724 86.2761C29.9741 86.5262 30.3132 86.6667 30.6668 86.6667ZM32.0001 81.3333H33.3334C33.687 81.3333 34.0262 81.1929 34.2762 80.9428C34.5263 80.6928 34.6667 80.3536 34.6667 80V69.3333C34.6667 68.9797 34.5263 68.6406 34.2762 68.3905C34.0262 68.1405 33.687 68 33.3334 68H32.0001V65.1067C32.5631 64.9079 33.0745 64.5855 33.4967 64.1633C33.9189 63.7411 34.2413 63.2297 34.4401 62.6667H37.3334V80C37.3334 80.3536 37.4738 80.6928 37.7239 80.9428C37.9739 81.1929 38.313 81.3333 38.6667 81.3333H40V84H32.0001V81.3333Z" fill="#39426A"/>
<path d="M112 53.333H66.6668C66.3132 53.333 65.9741 53.4735 65.724 53.7235C65.474 53.9736 65.3335 54.3127 65.3335 54.6664V92.0001C65.3335 92.3538 65.474 92.6929 65.724 92.943C65.9741 93.193 66.3132 93.3335 66.6668 93.3335H112C112.353 93.3335 112.692 93.193 112.942 92.943C113.193 92.6929 113.333 92.3538 113.333 92.0001V54.6664C113.333 54.3127 113.193 53.9736 112.942 53.7235C112.692 53.4735 112.353 53.333 112 53.333ZM110.666 90.6668H68.0001V55.9997H110.666V90.6668Z" fill="#39426A"/>
<path d="M89.3333 86.6667C91.8087 86.6667 94.1827 85.6833 95.933 83.933C97.6833 82.1827 98.6667 79.8087 98.6667 77.3333V69.3333C98.6667 66.858 97.6833 64.484 95.933 62.7337C94.1827 60.9833 91.8087 60 89.3333 60C86.858 60 84.484 60.9833 82.7337 62.7337C80.9833 64.484 80 66.858 80 69.3333V77.3333C80 79.8087 80.9833 82.1827 82.7337 83.933C84.484 85.6833 86.858 86.6667 89.3333 86.6667ZM82.6667 69.3333C82.6667 67.5652 83.369 65.8695 84.6193 64.6193C85.8695 63.369 87.5652 62.6667 89.3333 62.6667C91.1014 62.6667 92.7971 63.369 94.0474 64.6193C95.2976 65.8695 96 67.5652 96 69.3333V77.3333C96 79.1014 95.2976 80.7971 94.0474 82.0474C92.7971 83.2976 91.1014 84 89.3333 84C87.5652 84 85.8695 83.2976 84.6193 82.0474C83.369 80.7971 82.6667 79.1014 82.6667 77.3333V69.3333Z" fill="#39426A"/>
<path d="M89.3333 81.3335C90.3941 81.3335 91.4114 80.9121 92.1615 80.1619C92.9116 79.4118 93.333 78.3944 93.333 77.3335V69.3335C93.333 68.2726 92.9116 67.2552 92.1615 66.5051C91.4114 65.7549 90.3941 65.3335 89.3333 65.3335C88.2725 65.3335 87.2551 65.7549 86.505 66.5051C85.7549 67.2552 85.3335 68.2726 85.3335 69.3335V77.3335C85.3335 78.3944 85.7549 79.4118 86.505 80.1619C87.2551 80.9121 88.2725 81.3335 89.3333 81.3335ZM88 69.3335C88 68.9799 88.1405 68.6407 88.3905 68.3907C88.6405 68.1406 88.9797 68.0002 89.3333 68.0002C89.6869 68.0002 90.026 68.1406 90.276 68.3907C90.526 68.6407 90.6665 68.9799 90.6665 69.3335V77.3335C90.6665 77.6871 90.526 78.0263 90.276 78.2763C90.026 78.5264 89.6869 78.6668 89.3333 78.6668C88.9797 78.6668 88.6405 78.5264 88.3905 78.2763C88.1405 78.0263 88 77.6871 88 77.3335V69.3335Z" fill="#39426A"/>
</g>
<defs>
<clipPath id="clip0">
<rect width="128" height="128" fill="white"/>
</clipPath>
</defs>
</svg>
