<svg xmlns="http://www.w3.org/2000/svg" version="1.1" xmlns:xlink="http://www.w3.org/1999/xlink" xmlns:svgjs="http://svgjs.com/svgjs" viewBox="0 0 160 160" width="160" height="160"><g transform="matrix(1.6,0,0,1.6,0,0)"><path d="M90.671,57.139a40,40,0,1,0-76.436,16.5H87.107A39.844,39.844,0,0,0,90.671,57.139Z" fill="#c7f0ff"></path><path d="M14.235,73.639a40,40,0,0,0,72.872,0Z" fill="#daf7c6"></path><path d="M11.171 73.639L89.171 73.639" fill="none" stroke="#45413c" stroke-linecap="round" stroke-linejoin="round"></path><path d="M6.671 73.639L9.171 73.639" fill="none" stroke="#45413c" stroke-linecap="round" stroke-linejoin="round"></path><path d="M91.171 73.639L93.671 73.639" fill="none" stroke="#45413c" stroke-linecap="round" stroke-linejoin="round"></path><path d="M19.522,34.772a.764.764,0,0,0,.828-.243c6.685-8.19,7.424-11.605,6.268-15.529h0a6.212,6.212,0,0,0-3.846-3.907h0c-4.694-1.748-6.372,3.2-7.148,4.864-1.088-.686-5.531-4.379-8.643-.228h0A6.211,6.211,0,0,0,5.854,25.1h0C7,29.022,9.473,31.494,19.522,34.772Z" fill="#e04122"></path><path d="M7.905,22.878c2.2-2.939,5.075-1.945,6.95-.87a1.823,1.823,0,0,0,2.535-.72c1.03-1.989,2.851-4.331,6.306-3.045a6.479,6.479,0,0,1,3.317,2.714,10.814,10.814,0,0,0-.4-1.957,6.211,6.211,0,0,0-3.847-3.907c-4.693-1.748-6.371,3.2-7.147,4.864-1.088-.686-5.531-4.379-8.643-.228A6.208,6.208,0,0,0,5.854,25.1a10.932,10.932,0,0,0,.725,1.86A6.485,6.485,0,0,1,7.905,22.878Z" fill="#ff6242"></path><path d="M19.522,34.772a.764.764,0,0,0,.828-.243c6.685-8.19,7.424-11.605,6.268-15.529h0a6.212,6.212,0,0,0-3.846-3.907h0c-4.694-1.748-6.372,3.2-7.148,4.864-1.088-.686-5.531-4.379-8.643-.228h0A6.211,6.211,0,0,0,5.854,25.1h0C7,29.022,9.473,31.494,19.522,34.772Z" fill="none" stroke="#45413c" stroke-linecap="round" stroke-linejoin="round"></path><path d="M80.58,30.881a.626.626,0,0,0,.62.339c8.61-.872,11.014-2.42,12.617-5.361h0a5.087,5.087,0,0,0,.035-4.487h0c-1.706-3.73-5.542-1.836-6.954-1.323-.231-1.027-.666-5.736-4.87-5.135h0a5.088,5.088,0,0,0-3.758,2.454h0C76.662,20.306,76.661,23.167,80.58,30.881Z" fill="#e04122"></path><path d="M80.74,17.273c2.977-.426,4.064,1.811,4.527,3.518a1.491,1.491,0,0,0,1.884,1.051c1.748-.555,4.157-.857,5.412,1.888a5.3,5.3,0,0,1,.35,3.49,8.933,8.933,0,0,0,.9-1.361,5.086,5.086,0,0,0,.034-4.488c-1.7-3.729-5.541-1.835-6.952-1.321-.232-1.028-.667-5.737-4.871-5.136a5.084,5.084,0,0,0-3.758,2.454,8.962,8.962,0,0,0-.657,1.5A5.3,5.3,0,0,1,80.74,17.273Z" fill="#ff6242"></path><path d="M80.58,30.881a.626.626,0,0,0,.62.339c8.61-.872,11.014-2.42,12.617-5.361h0a5.087,5.087,0,0,0,.035-4.487h0c-1.706-3.73-5.542-1.836-6.954-1.323-.231-1.027-.666-5.736-4.87-5.135h0a5.088,5.088,0,0,0-3.758,2.454h0C76.662,20.306,76.661,23.167,80.58,30.881Z" fill="none" stroke="#45413c" stroke-linecap="round" stroke-linejoin="round"></path><path d="M58.881,13.085a.4.4,0,0,0,.452.046c4.883-2.663,5.922-4.18,6.138-6.322h0a3.268,3.268,0,0,0-1.1-2.668h0c-1.94-1.784-3.741.295-4.449.951-.394-.551-1.825-3.233-4.166-1.829h0a3.268,3.268,0,0,0-1.615,2.392h0C53.922,7.8,54.635,9.491,58.881,13.085Z" fill="#e04122"></path><path d="M55.583,4.982c1.657-1,2.859.06,3.559.956a.958.958,0,0,0,1.378.153c.9-.765,2.25-1.544,3.678-.231a3.413,3.413,0,0,1,1.077,1.981,5.673,5.673,0,0,0,.2-1.032,3.268,3.268,0,0,0-1.1-2.668c-1.94-1.784-3.741.295-4.449.951-.394-.551-1.825-3.233-4.166-1.829a3.265,3.265,0,0,0-1.615,2.392,5.685,5.685,0,0,0-.016,1.05A3.411,3.411,0,0,1,55.583,4.982Z" fill="#ff6242"></path><path d="M58.881,13.085a.4.4,0,0,0,.452.046c4.883-2.663,5.922-4.18,6.138-6.322h0a3.268,3.268,0,0,0-1.1-2.668h0c-1.94-1.784-3.741.295-4.449.951-.394-.551-1.825-3.233-4.166-1.829h0a3.268,3.268,0,0,0-1.615,2.392h0C53.922,7.8,54.635,9.491,58.881,13.085Z" fill="none" stroke="#45413c" stroke-linecap="round" stroke-linejoin="round"></path><path d="M27.915 94.359 A14.007 1.91 0 1 0 55.929 94.359 A14.007 1.91 0 1 0 27.915 94.359 Z" fill="#45413c" opacity=".15"></path><path d="M41.922,45.334c-6.57.128-12.734,4.957-12.734,13.37h4.457v9.551H50.2V58.7h4.456C54.655,50.291,48.491,45.462,41.922,45.334Z" fill="#f0f0f0"></path><path d="M33.645,68.255V92.449h6.112l.7-15.791a1.468,1.468,0,1,1,2.935,0l.7,15.791H50.2V68.255Z" fill="#00b8f0" stroke="#45413c" stroke-linecap="round" stroke-linejoin="round"></path><path d="M33.645 68.255H50.199V72.07499999999999H33.645z" fill="#009fd9"></path><path d="M33.645,68.255V92.449h6.112l.7-15.791a1.468,1.468,0,1,1,2.935,0l.7,15.791H50.2V68.255Z" fill="none" stroke="#45413c" stroke-linecap="round" stroke-linejoin="round"></path><path d="M52.427,74.622h0A2.228,2.228,0,0,1,50.2,72.393V58.7h4.456V72.393A2.228,2.228,0,0,1,52.427,74.622Z" fill="#d18660" stroke="#45413c" stroke-linecap="round" stroke-linejoin="round"></path><path d="M31.416,74.622h0a2.228,2.228,0,0,1-2.228-2.229V58.7h4.457V72.393A2.229,2.229,0,0,1,31.416,74.622Z" fill="#d18660" stroke="#45413c" stroke-linecap="round" stroke-linejoin="round"></path><path d="M41.922,49.154A12.664,12.664,0,0,1,54.189,58.7h.466c0-8.413-6.164-13.242-12.733-13.37-6.57.128-12.734,4.957-12.734,13.37h.466A12.664,12.664,0,0,1,41.922,49.154Z" fill="#ffffff"></path><path d="M41.922,45.334c-6.57.128-12.734,4.957-12.734,13.37h4.457v9.551H50.2V58.7h4.456C54.655,50.291,48.491,45.462,41.922,45.334Z" fill="none" stroke="#45413c" stroke-linecap="round" stroke-linejoin="round"></path><path d="M50.199 58.704L50.199 54.499" fill="none" stroke="#45413c" stroke-linecap="round" stroke-linejoin="round"></path><path d="M33.645 58.704L33.645 54.499" fill="none" stroke="#45413c" stroke-linecap="round" stroke-linejoin="round"></path><path d="M33.678,93.722a1.269,1.269,0,0,1-1.143-1.847A3.82,3.82,0,0,1,35.88,89.9h.637a3.819,3.819,0,0,1,3.344,1.973,1.269,1.269,0,0,1-1.142,1.847Z" fill="#8ca4b8" stroke="#45413c" stroke-linecap="round" stroke-linejoin="round"></path><path d="M45.124,93.722a1.269,1.269,0,0,1-1.142-1.847A3.82,3.82,0,0,1,47.326,89.9h.637a3.82,3.82,0,0,1,3.345,1.973,1.269,1.269,0,0,1-1.142,1.847Z" fill="#8ca4b8" stroke="#45413c" stroke-linecap="round" stroke-linejoin="round"></path><path d="M45.741,45.958c-.207-.065-.417-.124-.628-.178a.985.985,0,0,1-.73-.961V41.407H39.469v3.41a.985.985,0,0,1-.73.961c-.214.054-.427.114-.637.18v0a3.829,3.829,0,0,0,7.641,0Z" fill="#d18660" stroke="#45413c" stroke-linecap="round" stroke-linejoin="round"></path><path d="M51.4,38.283a1.57,1.57,0,0,0-.988-1.726l.177-1A7.641,7.641,0,0,0,35.541,32.9l-.177,1a1.559,1.559,0,0,0-.378,3.068,7.641,7.641,0,0,0,14.733,2.6A1.576,1.576,0,0,0,51.4,38.283Z" fill="#d18660" stroke="#45413c" stroke-linecap="round" stroke-linejoin="round"></path><path d="M39.123 34.670 A0.955 0.955 0 1 0 41.033 34.670 A0.955 0.955 0 1 0 39.123 34.670 Z" fill="#45413c"></path><path d="M44.766 35.665 A0.955 0.955 0 1 0 46.676 35.665 A0.955 0.955 0 1 0 44.766 35.665 Z" fill="#45413c"></path><path d="M37.427 36.957 A0.955 0.955 0 1 0 39.337 36.957 A0.955 0.955 0 1 0 37.427 36.957 Z" fill="#bd704a"></path><path d="M45.578 38.394 A0.955 0.955 0 1 0 47.488 38.394 A0.955 0.955 0 1 0 45.578 38.394 Z" fill="#bd704a"></path><path d="M51.548,33.783a8.277,8.277,0,1,0-16.3-2.875L34.8,33.416a6.986,6.986,0,0,0,3.082-2.653,2.5,2.5,0,0,1,2.9-1.046,20.505,20.505,0,0,0,5.967,1.052,2.5,2.5,0,0,1,2.365,1.975,6.983,6.983,0,0,0,1.99,3.547Z" fill="#724f3d"></path><path d="M44.834,24.194a8.277,8.277,0,0,0-9.588,6.714L34.8,33.416l.028-.013a8.277,8.277,0,0,1,16.252,2.866l.022.022.442-2.508A8.277,8.277,0,0,0,44.834,24.194Z" fill="#a86c4d"></path><path d="M51.548,33.783a8.277,8.277,0,1,0-16.3-2.875L34.8,33.416a6.986,6.986,0,0,0,3.082-2.653,2.5,2.5,0,0,1,2.9-1.046,20.505,20.505,0,0,0,5.967,1.052,2.5,2.5,0,0,1,2.365,1.975,6.983,6.983,0,0,0,1.99,3.547Z" fill="none" stroke="#45413c" stroke-linecap="round" stroke-linejoin="round"></path><path d="M40.179,39.6a3.443,3.443,0,0,0,3.762.664" fill="none" stroke="#45413c" stroke-linecap="round" stroke-linejoin="round"></path><path d="M71.651,45.022a1.708,1.708,0,0,0-.2.027,6,6,0,0,0,.2-1.555,5.75,5.75,0,0,0-.37-2.069,4.688,4.688,0,0,0,1.134-3.279c0-2.11-1.026-3.821-2.292-3.821a9.933,9.933,0,0,0-19.865,0c-1.266,0-2.292,1.711-2.292,3.821A4.683,4.683,0,0,0,49.1,41.425a5.75,5.75,0,0,0-.37,2.069,6,6,0,0,0,.2,1.555,1.719,1.719,0,0,0-.2-.027c-1.266,0-2.292,1.368-2.292,3.056s1.026,3.056,2.292,3.056a1.6,1.6,0,0,0,.169-.023,4.271,4.271,0,0,0-.169,1.169A3.583,3.583,0,0,0,50.3,55.406,3,3,0,0,0,54.089,57.9c0,.038-.011.073-.011.111a3.057,3.057,0,0,0,3.056,3.057A3,3,0,0,0,58,60.935a2.279,2.279,0,0,0,4.386,0,3,3,0,0,0,.863.132A3.057,3.057,0,0,0,66.3,58.01c0-.038-.009-.073-.011-.111a3,3,0,0,0,3.786-2.493,3.583,3.583,0,0,0,1.574-3.126,4.271,4.271,0,0,0-.17-1.169,1.58,1.58,0,0,0,.17.023c1.266,0,2.292-1.368,2.292-3.056S72.917,45.022,71.651,45.022Z" fill="#724f3d"></path><path d="M60.19,27.258a11.1,11.1,0,0,1,9.824,5.5,9.951,9.951,0,0,0-19.648,0A11.1,11.1,0,0,1,60.19,27.258Z" fill="#a86c4d"></path><path d="M71.651,45.022a1.708,1.708,0,0,0-.2.027,6,6,0,0,0,.2-1.555,5.75,5.75,0,0,0-.37-2.069,4.688,4.688,0,0,0,1.134-3.279c0-2.11-1.026-3.821-2.292-3.821a9.933,9.933,0,0,0-19.865,0c-1.266,0-2.292,1.711-2.292,3.821A4.683,4.683,0,0,0,49.1,41.425a5.75,5.75,0,0,0-.37,2.069,6,6,0,0,0,.2,1.555,1.719,1.719,0,0,0-.2-.027c-1.266,0-2.292,1.368-2.292,3.056s1.026,3.056,2.292,3.056a1.6,1.6,0,0,0,.169-.023,4.271,4.271,0,0,0-.169,1.169A3.583,3.583,0,0,0,50.3,55.406,3,3,0,0,0,54.089,57.9c0,.038-.011.073-.011.111a3.057,3.057,0,0,0,3.056,3.057A3,3,0,0,0,58,60.935a2.279,2.279,0,0,0,4.386,0,3,3,0,0,0,.863.132A3.057,3.057,0,0,0,66.3,58.01c0-.038-.009-.073-.011-.111a3,3,0,0,0,3.786-2.493,3.583,3.583,0,0,0,1.574-3.126,4.271,4.271,0,0,0-.17-1.169,1.58,1.58,0,0,0,.17.023c1.266,0,2.292-1.368,2.292-3.056S72.917,45.022,71.651,45.022Z" fill="none" stroke="#45413c" stroke-linecap="round" stroke-linejoin="round"></path><path d="M47.660 94.359 A14.007 1.91 0 1 0 75.674 94.359 A14.007 1.91 0 1 0 47.660 94.359 Z" fill="#45413c" opacity=".15"></path><path d="M61.667,46.607a11.46,11.46,0,0,0-11.46,11.46v1.274h4.457V70.165H68.671V59.341h4.457V58.067A11.46,11.46,0,0,0,61.667,46.607Z" fill="#f0f0f0"></path><path d="M56.625 82.898L57.21 93.722 66.124 93.722 66.709 82.898 56.625 82.898z" fill="#d18660"></path><path d="M66.537 86.082L66.709 82.898 56.625 82.898 56.798 86.082 66.537 86.082z" fill="#bd704a"></path><path d="M56.625 82.898L57.21 93.722 66.124 93.722 66.709 82.898 56.625 82.898z" fill="none" stroke="#45413c" stroke-linecap="round" stroke-linejoin="round"></path><path d="M66.776,82.9a1.274,1.274,0,0,0,1.272-1.2l.623-11.529H54.664l.623,11.529a1.273,1.273,0,0,0,1.271,1.2Z" fill="#ff6196"></path><path d="M68.499 73.348L68.671 70.165 54.664 70.165 54.836 73.348 68.499 73.348z" fill="#e0366f"></path><path d="M66.776,82.9a1.274,1.274,0,0,0,1.272-1.2l.623-11.529H54.664l.623,11.529a1.273,1.273,0,0,0,1.271,1.2Z" fill="none" stroke="#45413c" stroke-linecap="round" stroke-linejoin="round"></path><path d="M68.33,93.722a1.273,1.273,0,0,0,1.1-1.91,3.817,3.817,0,0,0-3.309-1.91h-.637a3.82,3.82,0,0,0-3.82,3.82Z" fill="#ff6196" stroke="#45413c" stroke-linecap="round" stroke-linejoin="round"></path><path d="M61.667,93.722a3.82,3.82,0,0,0-3.82-3.82H57.21a3.819,3.819,0,0,0-3.309,1.91,1.273,1.273,0,0,0,1.1,1.91Z" fill="#ff6196" stroke="#45413c" stroke-linecap="round" stroke-linejoin="round"></path><path d="M61.667 82.898L61.667 93.722" fill="none" stroke="#45413c" stroke-linecap="round" stroke-linejoin="round"></path><path d="M61.667,46.607a11.46,11.46,0,0,0-11.46,11.46v1.274h.285a11.462,11.462,0,0,1,22.351,0h.285V58.067A11.46,11.46,0,0,0,61.667,46.607Z" fill="#ffffff"></path><path d="M61.667,46.607a11.46,11.46,0,0,0-11.46,11.46v1.274h4.457V70.165H68.671V59.341h4.457V58.067A11.46,11.46,0,0,0,61.667,46.607Z" fill="none" stroke="#45413c" stroke-linecap="round" stroke-linejoin="round"></path><path d="M60.82,52.137a1.456,1.456,0,0,0-.811,1.285c0,.285.086.566.075.85a1.251,1.251,0,0,1-1.408,1.192" fill="none" stroke="#45413c" stroke-linecap="round" stroke-linejoin="round"></path><path d="M61.667,51.052c0-.017-.01-.5-.018-.517-.264-.457-1.218-.4-2.132.128s-1.44,1.325-1.176,1.782,1.218.4,2.131-.128a2.575,2.575,0,0,0,1.2-1.265Z" fill="none" stroke="#45413c" stroke-linecap="round" stroke-linejoin="round"></path><path d="M62.515,52.137a1.455,1.455,0,0,1,.81,1.285c0,.285-.086.566-.074.85a1.251,1.251,0,0,0,1.407,1.192" fill="none" stroke="#45413c" stroke-linecap="round" stroke-linejoin="round"></path><path d="M61.667,51.052c0-.017.01-.5.019-.517.264-.457,1.218-.4,2.131.128s1.44,1.325,1.177,1.782-1.218.4-2.132-.128a2.579,2.579,0,0,1-1.2-1.265Z" fill="none" stroke="#45413c" stroke-linecap="round" stroke-linejoin="round"></path><path d="M54.664 59.341L54.664 56.794" fill="none" stroke="#45413c" stroke-linecap="round" stroke-linejoin="round"></path><path d="M68.671 59.341L68.671 56.794" fill="none" stroke="#45413c" stroke-linecap="round" stroke-linejoin="round"></path><path d="M50.207,59.341V73.666a2.229,2.229,0,1,0,4.457,0V59.341Z" fill="#d18660" stroke="#45413c" stroke-linecap="round" stroke-linejoin="round"></path><path d="M68.671,59.341V73.666a2.229,2.229,0,1,0,4.457,0V59.341Z" fill="#d18660" stroke="#45413c" stroke-linecap="round" stroke-linejoin="round"></path><path d="M65.6,47.3c-.292-.106-.591-.2-.894-.28a1.014,1.014,0,0,1-.772-.971V43.494h-4.57v2.564a1.014,1.014,0,0,1-.769.971q-.438.117-.861.27l0,.009a4.221,4.221,0,0,0,7.873,0Z" fill="#d18660" stroke="#45413c" stroke-linecap="round" stroke-linejoin="round"></path><path d="M66.934,34.953l-.264-.984c-.05-.188-.107-.373-.171-.553a2.125,2.125,0,0,1-2.553-1.5c-4.585,1.6-7.45-.49-7.45-.49a2.641,2.641,0,0,1-1.867,1.7A1.511,1.511,0,0,0,53.24,34.78a2.123,2.123,0,0,1-1.459,2.579q.054.282.129.564l.264.985a1.56,1.56,0,0,0,.954,2.941,7.641,7.641,0,0,0,14.45-3.872,1.56,1.56,0,0,0-.644-3.024Z" fill="#d18660" stroke="#45413c" stroke-linecap="round" stroke-linejoin="round"></path><path d="M55.244 40.400 A0.955 0.955 0 1 0 57.154 40.400 A0.955 0.955 0 1 0 55.244 40.400 Z" fill="#bd704a"></path><path d="M63.239 38.257 A0.955 0.955 0 1 0 65.149 38.257 A0.955 0.955 0 1 0 63.239 38.257 Z" fill="#bd704a"></path><path d="M62.618,40.987a3.183,3.183,0,0,1-3.69.988" fill="none" stroke="#45413c" stroke-linecap="round" stroke-linejoin="round"></path><path d="M55.815 37.610 A0.955 0.955 0 1 0 57.725 37.610 A0.955 0.955 0 1 0 55.815 37.610 Z" fill="#45413c"></path><path d="M61.350 36.127 A0.955 0.955 0 1 0 63.260 36.127 A0.955 0.955 0 1 0 61.350 36.127 Z" fill="#45413c"></path><path d="M53.9,76.642a1,1,0,0,1-1.162.312l-2.157-.864a2.412,2.412,0,0,1-1.343-3.136l.449-1.119a2.411,2.411,0,0,1,3.135-1.343l2.157.864a1,1,0,0,1,.627,1.028A8.127,8.127,0,0,1,53.9,76.642Z" fill="#d18660" stroke="#45413c" stroke-linecap="round" stroke-linejoin="round"></path></g></svg>