<svg xmlns="http://www.w3.org/2000/svg" version="1.1" xmlns:xlink="http://www.w3.org/1999/xlink" xmlns:svgjs="http://svgjs.com/svgjs" viewBox="0 0 160 160" width="160" height="160"><g transform="matrix(1.6,0,0,1.6,0,0)"><path d="M10.007 53.264 A40.000 40.000 0 1 0 90.007 53.264 A40.000 40.000 0 1 0 10.007 53.264 Z" fill="#c7f0ff" stroke="#c7f0ff" stroke-miterlimit="10"></path><path d="M68.650 26.031 A12.983 12.983 0 1 0 94.616 26.031 A12.983 12.983 0 1 0 68.650 26.031 Z" fill="#ffe500"></path><path d="M81.633,13.048a12.983,12.983,0,0,0-9.181,22.163l18.361-18.36A12.941,12.941,0,0,0,81.633,13.048Z" fill="#fff48c"></path><path d="M71.911 26.031 A9.722 9.722 0 1 0 91.355 26.031 A9.722 9.722 0 1 0 71.911 26.031 Z" fill="none" stroke="#ebcb00" stroke-miterlimit="10"></path><path d="M68.650 26.031 A12.983 12.983 0 1 0 94.616 26.031 A12.983 12.983 0 1 0 68.650 26.031 Z" fill="none" stroke="#45413c" stroke-linejoin="round"></path><path d="M85.543,22.136a3.91,3.91,0,0,0-3.91-3.909h-.285a3.625,3.625,0,0,0-1.621,6.867L83.539,27a3.624,3.624,0,0,1-1.621,6.866h-.285a3.91,3.91,0,0,1-3.91-3.91" fill="none" stroke="#45413c" stroke-linecap="round" stroke-linejoin="round"></path><path d="M81.633 18.227L81.633 16.272" fill="none" stroke="#45413c" stroke-linecap="round" stroke-linejoin="round"></path><path d="M81.633 35.822L81.633 33.866" fill="none" stroke="#45413c" stroke-linecap="round" stroke-linejoin="round"></path><path d="M23.429 62.02H27.618V73.577H23.429z" fill="#f0f0f0" stroke="#45413c" stroke-linecap="round" stroke-linejoin="round" transform="translate(-35.929 29.436) rotate(-37.396)"></path><path d="M22.321,67.058a3.142,3.142,0,0,0,3.323-2.55l-1.966-2.572L20.35,64.48Z" fill="#e0e0e0"></path><path d="M23.429 62.02H27.618V73.577H23.429z" fill="#ffffff" stroke="#45413c" stroke-linecap="round" stroke-linejoin="round" transform="translate(-35.929 29.436) rotate(-37.396)"></path><path d="M26.539 65.999H42.248000000000005V70.18799999999999H26.539z" fill="#ffffff" stroke="#45413c" stroke-linecap="round" stroke-linejoin="round" transform="translate(-39.462 48.989) rotate(-48.699)"></path><path d="M33.205,66.273a3.141,3.141,0,0,0,2.669,1.483h1.6l3.673-4.181L38,60.811Z" fill="#e0e0e0"></path><path d="M26.539 65.999H42.248000000000005V70.18799999999999H26.539z" fill="none" stroke="#45413c" stroke-linecap="round" stroke-linejoin="round" transform="translate(-39.462 48.989) rotate(-48.699)"></path><path d="M13.958,56.322a.524.524,0,0,0-.652.426,5.5,5.5,0,1,0,7.394-4.3.523.523,0,0,0-.693.355l-.406,1.53a.523.523,0,0,0,.3.614,2.88,2.88,0,1,1-4.022,2.337.522.522,0,0,0-.386-.561Z" fill="#656769"></path><path d="M13.958,56.322a.524.524,0,0,0-.652.426,5.5,5.5,0,1,0,7.394-4.3.523.523,0,0,0-.693.355l-.406,1.53a.523.523,0,0,0,.3.614,2.88,2.88,0,1,1-4.022,2.337.522.522,0,0,0-.386-.561Z" fill="none" stroke="#45413c" stroke-linecap="round" stroke-linejoin="round"></path><path d="M17.716 62.227 A3.142 3.142 0 1 0 24.000 62.227 A3.142 3.142 0 1 0 17.716 62.227 Z" fill="#ffffff" stroke="#45413c" stroke-linecap="round" stroke-linejoin="round"></path><path d="M26.490 72.713 A3.142 3.142 0 1 0 32.774 72.713 A3.142 3.142 0 1 0 26.490 72.713 Z" fill="#ffffff" stroke="#45413c" stroke-linecap="round" stroke-linejoin="round"></path><path d="M72.648 60.905H84.205V65.094H72.648z" fill="#ffffff" stroke="#45413c" stroke-linecap="round" stroke-linejoin="round" transform="translate(1.176 127.436) rotate(-78.607)"></path><path d="M80.981,60.93a3.143,3.143,0,0,1-4.1-.835l.639-3.174,4.107.828Z" fill="#e0e0e0"></path><path d="M72.648 60.905H84.205V65.094H72.648z" fill="none" stroke="#45413c" stroke-linecap="round" stroke-linejoin="round" transform="translate(1.176 127.436) rotate(-78.607)"></path><path d="M68.49 59.299H72.679V75.008H68.49z" fill="#ffffff" stroke="#45413c" stroke-linecap="round" stroke-linejoin="round" transform="translate(-18.604 106.36) rotate(-67.303)"></path><path d="M70.854,65a3.139,3.139,0,0,1-1.748,2.5l-1.442.7L62.53,66.055l1.616-3.864Z" fill="#e0e0e0"></path><path d="M68.49 59.299H72.679V75.008H68.49z" fill="none" stroke="#45413c" stroke-linecap="round" stroke-linejoin="round" transform="translate(-18.604 106.36) rotate(-67.303)"></path><path d="M83.79,47.614a.524.524,0,0,1,.773.1,5.5,5.5,0,1,1-8.529-.621.525.525,0,0,1,.779.016l1.035,1.2a.523.523,0,0,1,0,.681,2.88,2.88,0,1,0,4.638.337.523.523,0,0,1,.1-.673Z" fill="#656769"></path><path d="M83.79,47.614a.524.524,0,0,1,.773.1,5.5,5.5,0,1,1-8.529-.621.525.525,0,0,1,.779.016l1.035,1.2a.523.523,0,0,1,0,.681,2.88,2.88,0,1,0,4.638.337.523.523,0,0,1,.1-.673Z" fill="none" stroke="#45413c" stroke-linecap="round" stroke-linejoin="round"></path><path d="M77.035 55.947 A3.142 3.142 0 1 0 83.319 55.947 A3.142 3.142 0 1 0 77.035 55.947 Z" fill="#ffffff" stroke="#45413c" stroke-linecap="round" stroke-linejoin="round"></path><path d="M73.747 69.218 A3.142 3.142 0 1 0 80.031 69.218 A3.142 3.142 0 1 0 73.747 69.218 Z" fill="#ffffff" stroke="#45413c" stroke-linecap="round" stroke-linejoin="round"></path><path d="M48.189 54.418H52.378V58.583H48.189z" fill="#c7f0ff"></path><path d="M48.189 54.418H52.378V56.488H48.189z" fill="#c0dceb"></path><path d="M48.189 54.418H52.378V58.583H48.189z" fill="none" stroke="#45413c" stroke-linecap="round" stroke-linejoin="round"></path><path d="M41.905 58.583 L58.661 58.583 L58.661 74.292 L41.905 74.292 Z" fill="#ffffff" stroke="#45413c" stroke-linecap="round" stroke-linejoin="round"></path><path d="M47.141 74.292H53.425V80.57600000000001H47.141z" fill="#c7f0ff"></path><path d="M47.147 74.292H53.431V77.434H47.147z" fill="#c0dceb"></path><path d="M47.141 74.292H53.425V80.57600000000001H47.141z" fill="none" stroke="#45413c" stroke-linecap="round" stroke-linejoin="round"></path><path d="M47.141,93.151c.948.067,1.9.113,2.866.113,1.152,0,2.29-.06,3.418-.156V88.127H47.141Z" fill="#c7f0ff"></path><path d="M47.147 88.127H53.431V91.26899999999999H47.147z" fill="#c0dceb"></path><path d="M47.141,93.151c.948.067,1.9.113,2.866.113,1.152,0,2.29-.06,3.418-.156V88.127H47.141Z" fill="none" stroke="#45413c" stroke-linecap="round" stroke-linejoin="round"></path><path d="M54.472,65.914a2.1,2.1,0,0,1-2.094,2.094H48.189a2.1,2.1,0,0,1-2.095-2.094V58.583h8.378Z" fill="#00b8f0"></path><path d="M53.074 58.583L46.094 65.557 46.094 58.583 53.074 58.583z" fill="#4acfff"></path><path d="M54.472,65.914a2.1,2.1,0,0,1-2.094,2.094H48.189a2.1,2.1,0,0,1-2.095-2.094V58.583h8.378Z" fill="none" stroke="#45413c" stroke-linecap="round" stroke-linejoin="round"></path><path d="M56.279,80.575a2.094,2.094,0,0,1,1.974,2.793,8.381,8.381,0,0,1-15.8,0,2.095,2.095,0,0,1,1.975-2.793Z" fill="#ffffff" stroke="#45413c" stroke-linecap="round" stroke-linejoin="round"></path><path d="M58.661,65.914h4.2a3.142,3.142,0,0,0,3.142-3.142V61.725a3.141,3.141,0,0,0-3.142-3.142H60.772a2.119,2.119,0,0,0-2.111,2.094Z" fill="#ffffff" stroke="#45413c" stroke-linecap="round" stroke-linejoin="round"></path><path d="M41.905,65.914H37.716a3.142,3.142,0,0,1-3.142-3.142V61.725a3.142,3.142,0,0,1,3.142-3.142h2.095a2.1,2.1,0,0,1,2.094,2.094Z" fill="#ffffff" stroke="#45413c" stroke-linecap="round" stroke-linejoin="round"></path><path d="M35.871 31.780 L64.694 31.780 L64.694 54.427 L35.871 54.427 Z" fill="#00b8f0"></path><path d="M39.34,54.427h-.381a3.089,3.089,0,0,1-3.088-3.089V34.868A3.087,3.087,0,0,1,38.96,31.78H61.607Z" fill="#4acfff"></path><path d="M46.39,46.168a1.51,1.51,0,0,1-1.508-1.508c0-1.046-.455-1.543-.578-1.583a2.114,2.114,0,0,0-.522,1.583,1.509,1.509,0,0,1-3.018,0c0-2.578,1.567-4.6,3.568-4.6s3.567,2.019,3.567,4.6A1.511,1.511,0,0,1,46.39,46.168Z" fill="#ffffff" stroke="#009fd9" stroke-linecap="round" stroke-linejoin="round"></path><path d="M54.176,46.168a1.511,1.511,0,0,0,1.509-1.508c0-1.046.455-1.543.577-1.583a2.108,2.108,0,0,1,.523,1.583,1.509,1.509,0,0,0,3.017,0c0-2.578-1.567-4.6-3.567-4.6s-3.568,2.019-3.568,4.6A1.511,1.511,0,0,0,54.176,46.168Z" fill="#ffffff" stroke="#009fd9" stroke-linecap="round" stroke-linejoin="round"></path><path d="M35.871 31.780 L64.694 31.780 L64.694 54.427 L35.871 54.427 Z" fill="none" stroke="#45413c" stroke-linecap="round" stroke-linejoin="round"></path><path d="M5.384 26.031 A12.983 12.983 0 1 0 31.350 26.031 A12.983 12.983 0 1 0 5.384 26.031 Z" fill="#ffe500"></path><path d="M18.367,13.048a12.982,12.982,0,0,0-9.18,22.163l18.361-18.36A12.941,12.941,0,0,0,18.367,13.048Z" fill="#fff48c"></path><path d="M8.645 26.031 A9.722 9.722 0 1 0 28.089 26.031 A9.722 9.722 0 1 0 8.645 26.031 Z" fill="none" stroke="#ebcb00" stroke-miterlimit="10"></path><path d="M5.384 26.031 A12.983 12.983 0 1 0 31.350 26.031 A12.983 12.983 0 1 0 5.384 26.031 Z" fill="none" stroke="#45413c" stroke-linejoin="round"></path><path d="M22.218,18.842H20.756a7.31,7.31,0,0,0,0,14.619h1.462" fill="none" stroke="#45413c" stroke-linecap="round" stroke-linejoin="round"></path><path d="M10.888,23.593H18.2" fill="none" stroke="#45413c" stroke-linecap="round" stroke-linejoin="round"></path><path d="M10.888,27.979H19.66" fill="none" stroke="#45413c" stroke-linecap="round" stroke-linejoin="round"></path><path d="M63.534,17.577a1.937,1.937,0,0,1-.731-3.73l.149-.061a42.99,42.99,0,0,0-25.885,0l.151.061a1.937,1.937,0,0,1-.731,3.731,1.91,1.91,0,0,1-.731-.145L31.03,15.508a.846.846,0,0,1-.178-.106,1.377,1.377,0,0,1-.367-.249,1.137,1.137,0,0,1-.126-.112,1.891,1.891,0,0,1-.367-.539.47.47,0,0,1-.024-.066,1.836,1.836,0,0,1-.117-.529.675.675,0,0,1-.025-.16.792.792,0,0,1,.028-.22,1.817,1.817,0,0,1,.094-.483c.01-.034,2.073-5.1,2.073-5.1a1.929,1.929,0,0,1,1.794-1.207,1.9,1.9,0,0,1,.729.144A1.939,1.939,0,0,1,35.607,9.4l-.368.9a46.855,46.855,0,0,1,29.544,0L64.414,9.4A1.936,1.936,0,0,1,68,7.943l2.053,5.042a1.91,1.91,0,0,1-.473,2.137,1.2,1.2,0,0,1-.164.118,1.611,1.611,0,0,1-.426.268l-4.727,1.925A1.919,1.919,0,0,1,63.534,17.577Z" fill="#c8ffa1" stroke="#388c00" stroke-linecap="round" stroke-linejoin="round"></path><path d="M90.007,53.264a40,40,0,0,1-80,0" fill="none" stroke="#c7f0ff" stroke-miterlimit="10"></path></g></svg>