<svg xmlns="http://www.w3.org/2000/svg" version="1.1" xmlns:xlink="http://www.w3.org/1999/xlink" xmlns:svgjs="http://svgjs.com/svgjs" viewBox="0 0 160 160" width="160" height="160"><g transform="matrix(1.6,0,0,1.6,0,0)"><path d="M7.175 55.643 A40.000 40.000 0 1 0 87.175 55.643 A40.000 40.000 0 1 0 7.175 55.643 Z" fill="#c7f0ff" stroke="#c7f0ff" stroke-miterlimit="10"></path><path d="M18.646,73.556,19.865,78.3,36.09,74.132l-5.21-20.28A19.687,19.687,0,0,0,37.359,35.3a1.282,1.282,0,0,0-1.575-1l-4.107,1.055a14.121,14.121,0,0,1-9.492,16.894c-10.254,3.421-11.176,7.185-9.852,13.309a24.766,24.766,0,0,0,1.413,4.634C15.113,73.16,18.646,73.556,18.646,73.556Z" fill="#c7f0ff"></path><path d="M29.618,80.764s-.625,6.925-5.042,9.614a18.866,18.866,0,0,1-9.313,2.545L14.5,87.875a5.632,5.632,0,0,0,4.817-3.466,9.484,9.484,0,0,0,.551-6.109L36.09,74.132s3.372-.527,6.575,3.554c2.513,3.2,3.057,10.047,3.057,10.047v1.6l-5.96-.363a11.745,11.745,0,0,0-3.676-6.694C32.579,79.42,29.618,80.764,29.618,80.764Z" fill="#87898c"></path><path d="M15.532,72.316a28.833,28.833,0,0,1-1.073-3.783c-1.324-6.124-.4-9.888,9.851-13.308A14.121,14.121,0,0,0,33.8,38.331l3.829-.984a20.307,20.307,0,0,0-.273-2.044,1.282,1.282,0,0,0-1.575-1l-4.107,1.055a14.121,14.121,0,0,1-9.492,16.894c-10.254,3.421-11.176,7.185-9.852,13.309a24.766,24.766,0,0,0,1.413,4.634A5.338,5.338,0,0,0,15.532,72.316Z" fill="#ffffff"></path><path d="M18.646,73.556,19.865,78.3,36.09,74.132l-5.21-20.28A19.687,19.687,0,0,0,37.359,35.3a1.282,1.282,0,0,0-1.575-1l-4.107,1.055a14.121,14.121,0,0,1-9.492,16.894c-10.254,3.421-11.176,7.185-9.852,13.309a24.766,24.766,0,0,0,1.413,4.634C15.113,73.16,18.646,73.556,18.646,73.556Z" fill="none" stroke="#45413c" stroke-linecap="round" stroke-linejoin="round"></path><path d="M18.646,73.556a13.361,13.361,0,0,0,4.773-1.406l-1.7-4.275-2.3.863a1.8,1.8,0,0,1-1.976-1.413l-.885-3.559" fill="none" stroke="#45413c" stroke-linecap="round" stroke-linejoin="round"></path><path d="M21.514 52.957L23.657 68.606 26.888 70.825 28.65 67.323 22.6 52.678 21.514 52.957z" fill="#00dba8" stroke="#45413c" stroke-linecap="round" stroke-linejoin="round"></path><path d="M21.134,55.011l.6,2.351a1.277,1.277,0,0,0,1.556.92l.78-.2a1.277,1.277,0,0,0,.92-1.555l-.69-2.685c-.431.19-.874.363-1.329.514Q22,54.682,21.134,55.011Z" fill="#00dba8" stroke="#45413c" stroke-linecap="round" stroke-linejoin="round"></path><path d="M24.53 51.238L22.769 54.937 19.57 53.208 18.106 48.807 23.159 47.118 24.53 51.238z" fill="#ffda8f" stroke="#45413c" stroke-linecap="round" stroke-linejoin="round" stroke-width="1.009"></path><path d="M19.277 73.679H36.032V76.257H19.277z" fill="#b89558" stroke="#45413c" stroke-linecap="round" stroke-linejoin="round" transform="translate(-17.783 9.239) rotate(-14.407)"></path><path d="M12.276,95.8c2.48-.231,3.236-2.747,3.036-4.891l-.285-3.05-2.311.216a1.155,1.155,0,0,0-1.043,1.259Z" fill="#915e3a" stroke="#45413c" stroke-linecap="round" stroke-linejoin="round"></path><path d="M29.618,80.764s-.625,6.925-5.042,9.614a18.866,18.866,0,0,1-9.313,2.545L14.5,87.875a5.632,5.632,0,0,0,4.817-3.466,9.484,9.484,0,0,0,.551-6.109L36.09,74.132s3.372-.527,6.575,3.554c2.513,3.2,3.057,10.047,3.057,10.047v1.6l-5.96-.363a11.745,11.745,0,0,0-3.676-6.694C32.579,79.42,29.618,80.764,29.618,80.764Z" fill="none" stroke="#45413c" stroke-linecap="round" stroke-linejoin="round"></path><path d="M19.571,53.208a23.773,23.773,0,0,0-3.336,1.639l1.956,2.373a1.285,1.285,0,0,0,1.048.149c.354-.1,3.53-2.432,3.53-2.432Z" fill="#ffffff" stroke="#45413c" stroke-linecap="round" stroke-linejoin="round"></path><path d="M26.524,54.9a1.285,1.285,0,0,0,.846-.635l1.122-6.118h0a14.691,14.691,0,0,1-3.961,3.088l-1.761,3.7S26.164,54.985,26.524,54.9Z" fill="#ffffff" stroke="#45413c" stroke-linecap="round" stroke-linejoin="round"></path><path d="M47.922,90.98c-.408-2.457-2.97-3.032-5.095-2.68l-3.065.666.423,2.125a1.156,1.156,0,0,0,1.329.952Z" fill="#915e3a" stroke="#45413c" stroke-linecap="round" stroke-linejoin="round"></path><path d="M25.474,71.174a2.255,2.255,0,0,0-1.786-4.142l-1.97.843,1.7,4.275Z" fill="#ffda8f" stroke="#45413c" stroke-linecap="round" stroke-linejoin="round"></path><path d="M35.091,3.2C25.72.115,18.126-1.91,9.926,6.261A1.378,1.378,0,0,0,10.007,8.3c6.948,5.774,8.46,18.368,22.529,19.811C37.376,28.608,40.805,5.078,35.091,3.2Z" fill="#d9fdff"></path><path d="M11.68,9.924c7.964-7.465,15.41-5.493,24.544-2.488a3.15,3.15,0,0,1,1.7,1.588C37.6,6.03,36.719,3.734,35.091,3.2,25.72.115,18.127-1.91,9.927,6.261a1.377,1.377,0,0,0,.08,2.039A16.313,16.313,0,0,1,11.68,9.924Z" fill="#ffffff"></path><path d="M35.091,3.2C25.72.115,18.126-1.91,9.926,6.261A1.378,1.378,0,0,0,10.007,8.3c6.948,5.774,8.46,18.368,22.529,19.811C37.376,28.608,40.805,5.078,35.091,3.2Z" fill="none" stroke="#45413c" stroke-linecap="round" stroke-linejoin="round"></path><path d="M39.4,16.743C40.134,9.582,38.205,3.518,35.091,3.2s-6.233,5.227-6.967,12.389c-.625,6.094.682,11.38,3,13.021-.007.039-.03.071-.034.112L26.9,68.153a1.374,1.374,0,0,0,2.734.281L33.826,29c0-.04-.012-.076-.011-.116C36.421,27.748,38.774,22.838,39.4,16.743Zm-6.661,9.4c-1.683-.173-2.6-4.648-2.054-10s2.358-9.544,4.04-9.371,2.6,4.648,2.053,10S34.42,26.319,32.738,26.147Z" fill="#b89558" stroke="#45413c" stroke-linecap="round" stroke-linejoin="round"></path><path d="M10.007,8.3S21.273,2.362,29.7,8.776" fill="none" stroke="#45413c" stroke-linecap="round" stroke-linejoin="round"></path><path d="M12.875,11.361c10.689.437,10.2,7.664,15.407,11.206" fill="none" stroke="#45413c" stroke-linecap="round" stroke-linejoin="round"></path><path d="M29.058,1.4s-4.952,1.753-6.37,9.96.329,13.118.329,13.118" fill="none" stroke="#45413c" stroke-linecap="round" stroke-linejoin="round"></path><path d="M22.266.5s-6.573,5.259-5.087,17.29" fill="none" stroke="#45413c" stroke-linecap="round" stroke-linejoin="round"></path><path d="M36.076,34.409l.405-3.122A1.727,1.727,0,0,0,35.308,29.4l-1.631-.5a1.7,1.7,0,0,0-2.165,1.453l-.48,3.7a1.7,1.7,0,0,0,1.721,1.958l1.707-.072A1.727,1.727,0,0,0,36.076,34.409Z" fill="#ffda8f" stroke="#45413c" stroke-linecap="round" stroke-linejoin="round"></path><path d="M21.181,50.992A7.708,7.708,0,0,0,26.8,43.807h.006c2.355-.657,1.46-4.421-.666-3.829l-.415-1.489a7.733,7.733,0,0,0-14.9,4.152l.415,1.489c-2.126.593-.945,4.277,1.411,3.621l.005,0A7.709,7.709,0,0,0,21.181,50.992Z" fill="#ffda8f" stroke="#45413c" stroke-linecap="round" stroke-linejoin="round"></path><path d="M15.586,45.328a.773.773,0,1,1-.953-.538A.774.774,0,0,1,15.586,45.328Z" fill="#ffbe3d"></path><path d="M24.525,42.836a.773.773,0,1,1-.953-.538A.773.773,0,0,1,24.525,42.836Z" fill="#ffbe3d"></path><path d="M15.413,43.3a1.1,1.1,0,0,1,1.494-.417" fill="none" stroke="#45413c" stroke-linecap="round" stroke-linejoin="round"></path><path d="M20.768,41.8a1.1,1.1,0,0,1,1.494-.416" fill="none" stroke="#45413c" stroke-linecap="round" stroke-linejoin="round"></path><path d="M18.330 47.030 A1.892 2.23 0 1 0 22.114 47.030 A1.892 2.23 0 1 0 18.330 47.030 Z" fill="#ff866e" stroke="#45413c" stroke-linecap="round" stroke-linejoin="round" transform="translate(-11.54 6.881) rotate(-15.081)"></path><path d="M13.354,38.7c3.972,2.162,9.172.336,12.3-1.66a.636.636,0,0,0,.258-.738,8.506,8.506,0,0,0-10.581-5.354A8.743,8.743,0,0,0,9.774,41.7l.383,1.375a.645.645,0,0,0,1.017.338c1.064-.823,2.784-2.54,2.18-4.708" fill="#614b44" stroke="#45413c" stroke-linecap="round" stroke-linejoin="round"></path><path d="M16.289,34.376a8.507,8.507,0,0,1,9.171,2.791c.066-.041.133-.082.2-.123a.637.637,0,0,0,.259-.739,8.506,8.506,0,0,0-10.581-5.354A8.743,8.743,0,0,0,9.774,41.7l.383,1.376a.641.641,0,0,0,.27.369A8.656,8.656,0,0,1,16.289,34.376Z" fill="#947063"></path><path d="M13.354,38.7c3.972,2.162,9.172.336,12.3-1.66a.636.636,0,0,0,.258-.738,8.506,8.506,0,0,0-10.581-5.354A8.743,8.743,0,0,0,9.774,41.7l.383,1.375a.645.645,0,0,0,1.017.338c1.064-.823,2.784-2.54,2.18-4.708" fill="none" stroke="#45413c" stroke-linecap="round" stroke-linejoin="round"></path><path d="M13.354,38.7a3.243,3.243,0,0,1-.956-.572" fill="none" stroke="#45413c" stroke-linecap="round" stroke-linejoin="round"></path><path d="M53.24,14.138H77.421a1.1,1.1,0,0,1,1.1,1.1v13.63a1.1,1.1,0,0,1-1.1,1.1H53.24a1.1,1.1,0,0,1-1.1-1.1V15.237a1.1,1.1,0,0,1,1.1-1.1Z" fill="#6dd627" transform="translate(15.423 69.631) rotate(-62.283)"></path><path d="M69.131,9.149,56.861,32.5l-3.7-1.943a1.1,1.1,0,0,1-.461-1.484L63.949,7.668a1.1,1.1,0,0,1,1.484-.461Z" fill="#9ceb60"></path><path d="M72.574,13.938,67.9,11.485a2.64,2.64,0,0,1-3.563,1.109L56.98,26.6a2.639,2.639,0,0,1,1.108,3.562l4.67,2.455a2.639,2.639,0,0,1,3.563-1.109L73.682,17.5A2.638,2.638,0,0,1,72.574,13.938Z" fill="#c8ffa1"></path><path d="M64.341,12.594,56.98,26.6a2.639,2.639,0,0,1,1.108,3.562L67.9,11.485A2.64,2.64,0,0,1,64.341,12.594Z" fill="#e4ffd1"></path><path d="M66.558,19.718A2.638,2.638,0,1,1,63,20.826,2.637,2.637,0,0,1,66.558,19.718Z" fill="#9ceb60"></path><path d="M66.558,19.718A2.638,2.638,0,1,1,63,20.826,2.637,2.637,0,0,1,66.558,19.718Z" fill="none" stroke="#45413c" stroke-linecap="round" stroke-linejoin="round"></path><path d="M72.574,13.938,67.9,11.485a2.64,2.64,0,0,1-3.563,1.109L56.98,26.6a2.639,2.639,0,0,1,1.108,3.562l4.67,2.455a2.639,2.639,0,0,1,3.563-1.109L73.682,17.5A2.638,2.638,0,0,1,72.574,13.938Z" fill="none" stroke="#45413c" stroke-linecap="round" stroke-linejoin="round"></path><path d="M53.24,14.138H77.421a1.1,1.1,0,0,1,1.1,1.1v13.63a1.1,1.1,0,0,1-1.1,1.1H53.24a1.1,1.1,0,0,1-1.1-1.1V15.237a1.1,1.1,0,0,1,1.1-1.1Z" fill="none" stroke="#45413c" stroke-linecap="round" stroke-linejoin="round" transform="translate(15.423 69.631) rotate(-62.283)"></path><path d="M78.787,24.983c2.074,3.534-2.749,6.5-5.16,3.588-1.977-2.393-.11-5.664,3.3-7.006,4.467-1.758,8.929-.73,12.91,2.243,2.815,2.1-.226,6.281-3.31,4.6C87.7,30.649,85.4,33.4,82.655,31.1c.9,1.29-1.4,4.037-3.533,2.074s-2.089-3.57-2.089-3.57" fill="#ffffff"></path><path d="M78.787,24.983c2.074,3.534-2.749,6.5-5.16,3.588-1.977-2.393-.11-5.664,3.3-7.006,4.467-1.758,8.929-.73,12.91,2.243,2.815,2.1-.226,6.281-3.31,4.6C87.7,30.649,85.4,33.4,82.655,31.1c.9,1.29-1.4,4.037-3.533,2.074s-2.089-3.57-2.089-3.57" fill="none" stroke="#45413c" stroke-linecap="round" stroke-linejoin="round"></path><path d="M55.7,11.906c-4.078.395-3.653,6.043.123,6.284,3.1.2,4.651-3.234,3.737-6.781-1.2-4.65-4.648-7.659-9.392-9.137-3.354-1.046-4.953,3.868-1.78,5.377-2.507.364-3.382,3.838.092,4.713-1.571.031-2.445,3.505.394,4.078s4.109-.413,4.109-.413" fill="#ffffff"></path><path d="M55.7,11.906c-4.078.395-3.653,6.043.123,6.284,3.1.2,4.651-3.234,3.737-6.781-1.2-4.65-4.648-7.659-9.392-9.137-3.354-1.046-4.953,3.868-1.78,5.377-2.507.364-3.382,3.838.092,4.713-1.571.031-2.445,3.505.394,4.078s4.109-.413,4.109-.413" fill="none" stroke="#45413c" stroke-linecap="round" stroke-linejoin="round"></path><path d="M56.726 52.355 L80.183 52.355 L80.183 66.430 L56.726 66.430 Z" fill="#6dd627" transform="translate(-21.808 67.527) rotate(-46.095)"></path><path d="M74.9,49.315,58.63,66.216,55.954,63.64a.979.979,0,0,1-.026-1.382L70.84,46.765a.977.977,0,0,1,1.381-.026Z" fill="#9ceb60"></path><path d="M76.651,54.258l-3.38-3.253a2.346,2.346,0,0,1-3.317.064l-9.76,10.14a2.348,2.348,0,0,1,.064,3.317l3.379,3.254a2.345,2.345,0,0,1,3.317-.064l9.761-10.141A2.346,2.346,0,0,1,76.651,54.258Z" fill="#c8ffa1"></path><path d="M69.954,51.069l-9.76,10.14a2.348,2.348,0,0,1,.064,3.317L73.271,51.005A2.346,2.346,0,0,1,69.954,51.069Z" fill="#e4ffd1"></path><path d="M70.081,57.7a2.346,2.346,0,1,1-3.317.063A2.345,2.345,0,0,1,70.081,57.7Z" fill="#9ceb60"></path><path d="M70.081,57.7a2.346,2.346,0,1,1-3.317.063A2.345,2.345,0,0,1,70.081,57.7Z" fill="none" stroke="#45413c" stroke-linecap="round" stroke-linejoin="round"></path><path d="M76.651,54.258l-3.38-3.253a2.346,2.346,0,0,1-3.317.064l-9.76,10.14a2.348,2.348,0,0,1,.064,3.317l3.379,3.254a2.345,2.345,0,0,1,3.317-.064l9.761-10.141A2.346,2.346,0,0,1,76.651,54.258Z" fill="none" stroke="#45413c" stroke-linecap="round" stroke-linejoin="round"></path><path d="M56.726 52.355 L80.183 52.355 L80.183 66.430 L56.726 66.430 Z" fill="none" stroke="#45413c" stroke-linecap="round" stroke-linejoin="round" transform="translate(-21.808 67.527) rotate(-46.095)"></path><path d="M61.212,48.791c-3.822-.706-4.911,4.557-1.53,5.763,2.774.989,5.087-1.735,5.181-5.208.123-4.553-2.239-8.2-6.178-10.788-2.786-1.83-5.528,2.234-3.029,4.44-2.382-.324-4.087,2.616-1.147,4.322-1.441-.383-3.147,2.557-.707,3.822s3.855.7,3.855.7" fill="#ffffff"></path><path d="M61.212,48.791c-3.822-.706-4.911,4.557-1.53,5.763,2.774.989,5.087-1.735,5.181-5.208.123-4.553-2.239-8.2-6.178-10.788-2.786-1.83-5.528,2.234-3.029,4.44-2.382-.324-4.087,2.616-1.147,4.322-1.441-.383-3.147,2.557-.707,3.822s3.855.7,3.855.7" fill="none" stroke="#45413c" stroke-linecap="round" stroke-linejoin="round"></path><path d="M78.338,66.4c1.648,3.52-3.169,5.9-5.19,2.935C71.49,66.9,73.542,63.972,76.879,63c4.375-1.269,8.5.095,12,3.253,2.474,2.234-.766,5.913-3.531,4.052.915,2.223-1.5,4.616-3.892,2.2.734,1.3-1.68,3.69-3.52,1.648S76.29,70.6,76.29,70.6" fill="#ffffff"></path><path d="M78.338,66.4c1.648,3.52-3.169,5.9-5.19,2.935C71.49,66.9,73.542,63.972,76.879,63c4.375-1.269,8.5.095,12,3.253,2.474,2.234-.766,5.913-3.531,4.052.915,2.223-1.5,4.616-3.892,2.2.734,1.3-1.68,3.69-3.52,1.648S76.29,70.6,76.29,70.6" fill="none" stroke="#45413c" stroke-linecap="round" stroke-linejoin="round"></path><path d="M16.732 97.902 A11.504 1.598 0 1 0 39.740 97.902 A11.504 1.598 0 1 0 16.732 97.902 Z" fill="#45413c" opacity=".15"></path></g></svg>