<svg width="128" height="128" fill="none" xmlns="http://www.w3.org/2000/svg"><path d="M12.8 64a51.202 51.202 0 0 0 87.404 36.204A51.2 51.2 0 1 0 12.8 64Z" fill="#C7F0FF"/><path fill="#fff" stroke="#45413C" stroke-width="2" d="M33 33h62v62H33z"/><path fill="#fff" d="M38 38h32v32H38z"/><path d="M47.028 38.595h-7.387c-.348 0-.683.14-.93.391a1.35 1.35 0 0 0-.386.945v27.9a1.36 1.36 0 0 0 .385.949 1.314 1.314 0 0 0 .931.392h7.387V38.595Z" fill="#9CEB60"/><path d="M38.325 38.595h31.349V69.17H38.325V38.595ZM47.028 38.595V69.17M38.325 46.238h31.35M38.325 53.882h31.35M38.325 61.526h31.35" stroke="#45413C" stroke-width="2" stroke-linecap="round" stroke-linejoin="round"/><path fill="#fff" d="M48 48h32v32H48z"/><path d="M57.028 48.595h-7.387c-.348 0-.683.14-.93.391a1.35 1.35 0 0 0-.386.945v27.9a1.36 1.36 0 0 0 .385.949 1.314 1.314 0 0 0 .931.392h7.387V48.595Z" fill="#9CEB60"/><path d="M48.325 48.595h31.349V79.17H48.325V48.595ZM57.028 48.595V79.17M48.325 56.238h31.35M48.325 63.882h31.35M48.325 71.526h31.35" stroke="#45413C" stroke-width="2" stroke-linecap="round" stroke-linejoin="round"/><path fill="#fff" d="M58 58h32v32H58z"/><path d="M67.028 58.595h-7.387c-.348 0-.683.14-.93.391a1.35 1.35 0 0 0-.386.945v27.9a1.36 1.36 0 0 0 .385.949 1.314 1.314 0 0 0 .931.392h7.387V58.595Z" fill="#9CEB60"/><path d="M58.325 58.595h31.349V89.17H58.325V58.595ZM67.028 58.595V89.17M58.325 66.238h31.35M58.325 73.882h31.35M58.325 81.526h31.35" stroke="#45413C" stroke-width="2" stroke-linecap="round" stroke-linejoin="round"/></svg>