<svg width="128" height="128" fill="none" xmlns="http://www.w3.org/2000/svg"><path d="M12.8 64a51.202 51.202 0 0 0 87.404 36.204A51.2 51.2 0 1 0 12.8 64Z" fill="#C7F0FF"/><path fill="#fff" d="M28 48h32v32H28z"/><path d="M37.028 48.595h-7.387c-.348 0-.683.14-.93.391a1.35 1.35 0 0 0-.386.945v27.9a1.36 1.36 0 0 0 .385.949 1.314 1.314 0 0 0 .931.392h7.387V48.595Z" fill="#9CEB60"/><path d="M28.325 48.595h31.348V79.17H28.325V48.595ZM37.028 48.595V79.17M28.325 56.238h31.35M28.325 63.882h31.35M28.325 71.526h31.35" stroke="#45413C" stroke-width="2" stroke-linecap="round" stroke-linejoin="round"/><path fill="#fff" d="M68 48h32v32H68z"/><path d="M77.028 48.595h-7.387c-.348 0-.683.14-.93.391a1.35 1.35 0 0 0-.386.945v27.9a1.36 1.36 0 0 0 .385.949 1.314 1.314 0 0 0 .931.392h7.387V48.595Z" fill="#9CEB60"/><path d="M68.325 48.595h31.349V79.17H68.325V48.595ZM77.028 48.595V79.17M68.325 56.238h31.35M68.325 63.882h31.35M68.325 71.526h31.35" stroke="#45413C" stroke-width="2" stroke-linecap="round" stroke-linejoin="round"/></svg>