<svg width="128" height="128" fill="none" xmlns="http://www.w3.org/2000/svg"><path d="M12.8 64a51.201 51.201 0 1 0 102.402 0A51.201 51.201 0 0 0 12.8 64Z" fill="#C7F0FF"/><path fill="#fff" d="M36 36h56v56H36z"/><path d="M51.8 37.041H38.872c-.61 0-1.195.246-1.627.685a2.362 2.362 0 0 0-.675 1.654v48.826a2.378 2.378 0 0 0 .673 1.659 2.27 2.27 0 0 0 1.63.687H51.8V37.04Z" fill="#9CEB60"/><path d="M36.57 37.041h54.859v53.507h-54.86V37.041ZM51.8 37.041v53.507M36.57 50.417h54.86M36.57 63.793h54.86M36.57 77.17h54.86" stroke="#45413C" stroke-width="2" stroke-linecap="round" stroke-linejoin="round"/></svg>