<svg width="160" height="160" viewBox="0 0 160 160" fill="none" xmlns="http://www.w3.org/2000/svg">
<path d="M144.001 80.0001C144.002 70.4483 141.865 61.0174 137.747 52.399C133.629 43.7806 127.634 36.1933 120.202 30.1935C112.77 24.1937 104.089 19.9335 94.7957 17.7254C85.5027 15.5174 75.8332 15.4174 66.4966 17.4329C57.1599 19.4484 48.3927 23.5282 40.8381 29.3731C33.2834 35.218 27.1328 42.6798 22.8374 51.2112C18.542 59.7427 16.2107 69.1274 16.0145 78.6771C15.8183 88.2268 17.7621 97.6994 21.7034 106.4H138.299C142.064 98.1086 144.008 89.1064 144.001 80.0001V80.0001Z" fill="#C7F0FF"/>
<path d="M21.7026 106.4C26.779 117.607 34.9776 127.112 45.3168 133.779C55.6561 140.446 67.6978 143.992 80.0002 143.992C92.3027 143.992 104.344 140.446 114.684 133.779C125.023 127.112 133.222 117.607 138.298 106.4H21.7026Z" fill="#F0D3A8"/>
<path d="M17.6006 106.4H142.401" stroke="#45413C" stroke-width="1.5" stroke-linecap="round" stroke-linejoin="round"/>
<path d="M10.4004 106.4H14.4004" stroke="#45413C" stroke-width="1.5" stroke-linecap="round" stroke-linejoin="round"/>
<path d="M145.601 106.4H149.601" stroke="#45413C" stroke-width="1.5" stroke-linecap="round" stroke-linejoin="round"/>
<path d="M27.1748 41.7185H90.4276V106.043H27.1748V41.7185Z" fill="#C0DCEB" stroke="#45413C" stroke-width="1.5" stroke-linecap="round" stroke-linejoin="round"/>
<path d="M27.1748 61.0164H90.4276V66.3764H27.1748V61.0164Z" fill="#E8F4FA" stroke="#45413C" stroke-width="1.5" stroke-linecap="round" stroke-linejoin="round"/>
<path d="M27.1748 36.3567H90.4276V41.7167H27.1748V36.3567Z" fill="#E8F4FA" stroke="#45413C" stroke-width="1.5" stroke-linecap="round" stroke-linejoin="round"/>
<path d="M27.1748 83.5295H90.4276V88.8895H27.1748V83.5295Z" fill="#E8F4FA" stroke="#45413C" stroke-width="1.5" stroke-linecap="round" stroke-linejoin="round"/>
<path d="M61.4807 56.7262C61.4807 55.589 61.0289 54.4983 60.2247 53.6942C59.4206 52.89 58.3299 52.4382 57.1927 52.4382H41.1111C39.9879 52.4599 38.9181 52.9213 38.1315 53.7233C37.3449 54.5252 36.9043 55.6037 36.9043 56.727C36.9043 57.8504 37.3449 58.9289 38.1315 59.7308C38.9181 60.5328 39.9879 60.9941 41.1111 61.0158H57.1927C57.7559 61.0158 58.3136 60.9049 58.834 60.6893C59.3543 60.4737 59.8271 60.1577 60.2253 59.7593C60.6235 59.361 60.9393 58.8881 61.1547 58.3677C61.3701 57.8472 61.4809 57.2895 61.4807 56.7262V56.7262Z" fill="#FFAA54"/>
<path d="M41.1111 56.7214H57.1927C57.946 56.7213 58.6861 56.9197 59.3383 57.2967C59.9906 57.6736 60.5319 58.2158 60.9079 58.8686C61.2834 58.2166 61.4808 57.4773 61.4803 56.7249C61.4798 55.9725 61.2813 55.2334 60.9049 54.5819C60.5285 53.9304 59.9874 53.3894 59.3358 53.0131C58.6842 52.6368 57.9451 52.4386 57.1927 52.4382H41.1111C40.3584 52.4379 39.6189 52.6358 38.967 53.0119C38.3151 53.388 37.7737 53.9292 37.3973 54.581C37.0209 55.2328 36.8227 55.9722 36.8228 56.7249C36.8228 57.4775 37.021 58.2169 37.3975 58.8686C37.7731 58.2158 38.3141 57.6736 38.9661 57.2966C39.6181 56.9197 40.358 56.7213 41.1111 56.7214V56.7214Z" fill="#FFCC99"/>
<path d="M61.4807 56.7262C61.4807 55.589 61.0289 54.4983 60.2247 53.6942C59.4206 52.89 58.3299 52.4382 57.1927 52.4382H41.1111C39.9879 52.4599 38.9181 52.9213 38.1315 53.7233C37.3449 54.5252 36.9043 55.6037 36.9043 56.727C36.9043 57.8504 37.3449 58.9289 38.1315 59.7308C38.9181 60.5328 39.9879 60.9941 41.1111 61.0158H57.1927C57.7559 61.0158 58.3136 60.9049 58.834 60.6893C59.3543 60.4737 59.8271 60.1577 60.2253 59.7593C60.6235 59.361 60.9393 58.8881 61.1547 58.3677C61.3701 57.8472 61.4809 57.2895 61.4807 56.7262V56.7262Z" stroke="#45413C" stroke-width="1.5" stroke-linecap="round" stroke-linejoin="round"/>
<path d="M85.0661 79.2399C85.0661 78.1027 84.6143 77.012 83.8102 76.2078C83.006 75.4037 81.9154 74.9519 80.7781 74.9519H64.6965C63.5734 74.9736 62.5036 75.435 61.717 76.2369C60.9304 77.0389 60.4897 78.1174 60.4897 79.2407C60.4897 80.364 60.9304 81.4425 61.717 82.2445C62.5036 83.0464 63.5734 83.5078 64.6965 83.5295H80.7781C81.3414 83.5295 81.8991 83.4185 82.4194 83.2029C82.9398 82.9873 83.4126 82.6714 83.8108 82.273C84.2089 81.8747 84.5248 81.4018 84.7402 80.8813C84.9556 80.3609 85.0663 79.8031 85.0661 79.2399V79.2399Z" fill="#FFAA54" stroke="#45413C" stroke-width="1.5" stroke-linecap="round" stroke-linejoin="round"/>
<path d="M64.6965 79.2351H80.7781C81.5315 79.235 82.2715 79.4334 82.9238 79.8103C83.576 80.1873 84.1174 80.7295 84.4933 81.3823C84.8688 80.7303 85.0662 79.991 85.0657 79.2385C85.0652 78.4861 84.8668 77.7471 84.4904 77.0956C84.114 76.4441 83.5728 75.903 82.9212 75.5268C82.2696 75.1505 81.5306 74.9523 80.7781 74.9519H64.6965C63.9439 74.9516 63.2044 75.1494 62.5525 75.5256C61.9005 75.9017 61.3591 76.4429 60.9827 77.0947C60.6063 77.7464 60.4082 78.4858 60.4082 79.2385C60.4082 79.9912 60.6065 80.7306 60.9829 81.3823C61.3585 80.7295 61.8996 80.1873 62.5516 79.8103C63.2035 79.4333 63.9434 79.2349 64.6965 79.2351Z" fill="#FFCC99"/>
<path d="M85.0661 79.2399C85.0661 78.1027 84.6143 77.012 83.8102 76.2078C83.006 75.4037 81.9154 74.9519 80.7781 74.9519H64.6965C63.5734 74.9736 62.5036 75.435 61.717 76.2369C60.9304 77.0389 60.4897 78.1174 60.4897 79.2407C60.4897 80.364 60.9304 81.4425 61.717 82.2445C62.5036 83.0464 63.5734 83.5078 64.6965 83.5295H80.7781C81.3414 83.5295 81.8991 83.4185 82.4194 83.2029C82.9398 82.9873 83.4126 82.6714 83.8108 82.273C84.2089 81.8747 84.5248 81.4018 84.7402 80.8813C84.9556 80.3609 85.0663 79.8031 85.0661 79.2399V79.2399Z" stroke="#45413C" stroke-width="1.5" stroke-linecap="round" stroke-linejoin="round"/>
<path d="M66.8423 54.0464C66.8423 54.9614 66.9948 55.8675 67.2911 56.7129C67.5874 57.5583 68.0217 58.3264 68.5692 58.9735C69.1167 59.6205 69.7666 60.1338 70.482 60.484C71.1973 60.8341 71.964 61.0144 72.7383 61.0144C73.5126 61.0144 74.2793 60.8341 74.9946 60.484C75.7099 60.1338 76.3599 59.6205 76.9074 58.9735C77.4549 58.3264 77.8892 57.5583 78.1855 56.7129C78.4818 55.8675 78.6343 54.9614 78.6343 54.0464C78.6343 53.1313 78.4818 52.2252 78.1855 51.3798C77.8892 50.5344 77.4549 49.7663 76.9074 49.1192C76.3599 48.4722 75.7099 47.959 74.9946 47.6088C74.2793 47.2586 73.5126 47.0784 72.7383 47.0784C71.964 47.0784 71.1973 47.2586 70.482 47.6088C69.7666 47.959 69.1167 48.4722 68.5692 49.1192C68.0217 49.7663 67.5874 50.5344 67.2911 51.3798C66.9948 52.2252 66.8423 53.1313 66.8423 54.0464V54.0464Z" fill="#FFAA54"/>
<path d="M72.7384 51.36C74.074 51.4372 75.3472 51.9516 76.3615 52.824C77.3758 53.6963 78.075 54.8781 78.3512 56.1872C78.5404 55.4893 78.6357 54.7694 78.6344 54.0464C78.6344 50.1984 75.9944 47.0784 72.7384 47.0784C69.4824 47.0784 66.8408 50.1984 66.8408 54.0464C66.8401 54.7695 66.9359 55.4894 67.1256 56.1872C67.4016 54.878 68.1007 53.6961 69.1151 52.8237C70.1295 51.9513 71.4027 51.4369 72.7384 51.36V51.36Z" fill="#FFCC99"/>
<path d="M66.8423 54.0464C66.8423 54.9614 66.9948 55.8675 67.2911 56.7129C67.5874 57.5583 68.0217 58.3264 68.5692 58.9735C69.1167 59.6205 69.7666 60.1338 70.482 60.484C71.1973 60.8341 71.964 61.0144 72.7383 61.0144C73.5126 61.0144 74.2793 60.8341 74.9946 60.484C75.7099 60.1338 76.3599 59.6205 76.9074 58.9735C77.4549 58.3264 77.8892 57.5583 78.1855 56.7129C78.4818 55.8675 78.6343 54.9614 78.6343 54.0464C78.6343 53.1313 78.4818 52.2252 78.1855 51.3798C77.8892 50.5344 77.4549 49.7663 76.9074 49.1192C76.3599 48.4722 75.7099 47.959 74.9946 47.6088C74.2793 47.2586 73.5126 47.0784 72.7383 47.0784C71.964 47.0784 71.1973 47.2586 70.482 47.6088C69.7666 47.959 69.1167 48.4722 68.5692 49.1192C68.0217 49.7663 67.5874 50.5344 67.2911 51.3798C66.9948 52.2252 66.8423 53.1313 66.8423 54.0464V54.0464Z" stroke="#45413C" stroke-width="1.5" stroke-linecap="round" stroke-linejoin="round"/>
<path d="M73.2744 54.0464C73.2744 54.9614 73.4269 55.8675 73.7232 56.7129C74.0195 57.5583 74.4538 58.3264 75.0013 58.9735C75.5488 59.6205 76.1988 60.1338 76.9141 60.484C77.6294 60.8341 78.3961 61.0144 79.1704 61.0144C79.9447 61.0144 80.7114 60.8341 81.4267 60.484C82.1421 60.1338 82.792 59.6205 83.3395 58.9735C83.887 58.3264 84.3213 57.5583 84.6176 56.7129C84.9139 55.8675 85.0664 54.9614 85.0664 54.0464C85.0664 53.1313 84.9139 52.2252 84.6176 51.3798C84.3213 50.5344 83.887 49.7663 83.3395 49.1192C82.792 48.4722 82.1421 47.959 81.4267 47.6088C80.7114 47.2586 79.9447 47.0784 79.1704 47.0784C78.3961 47.0784 77.6294 47.2586 76.9141 47.6088C76.1988 47.959 75.5488 48.4722 75.0013 49.1192C74.4538 49.7663 74.0195 50.5344 73.7232 51.3798C73.4269 52.2252 73.2744 53.1313 73.2744 54.0464V54.0464Z" fill="#FFAA54"/>
<path d="M79.1694 51.36C80.505 51.4372 81.7781 51.9516 82.7925 52.824C83.8068 53.6963 84.506 54.8781 84.7822 56.1872C84.9714 55.4893 85.0667 54.7694 85.0654 54.0464C85.0654 50.1984 82.4254 47.0784 79.1694 47.0784C75.9134 47.0784 73.2798 50.1984 73.2798 54.0464C73.2785 54.7694 73.3738 55.4893 73.563 56.1872C73.8387 54.879 74.5368 53.6978 75.5499 52.8255C76.563 51.9532 77.8348 51.4383 79.1694 51.36V51.36Z" fill="#FFCC99"/>
<path d="M73.2744 54.0464C73.2744 54.9614 73.4269 55.8675 73.7232 56.7129C74.0195 57.5583 74.4538 58.3264 75.0013 58.9735C75.5488 59.6205 76.1988 60.1338 76.9141 60.484C77.6294 60.8341 78.3961 61.0144 79.1704 61.0144C79.9447 61.0144 80.7114 60.8341 81.4267 60.484C82.1421 60.1338 82.792 59.6205 83.3395 58.9735C83.887 58.3264 84.3213 57.5583 84.6176 56.7129C84.9139 55.8675 85.0664 54.9614 85.0664 54.0464C85.0664 53.1313 84.9139 52.2252 84.6176 51.3798C84.3213 50.5344 83.887 49.7663 83.3395 49.1192C82.792 48.4722 82.1421 47.959 81.4267 47.6088C80.7114 47.2586 79.9447 47.0784 79.1704 47.0784C78.3961 47.0784 77.6294 47.2586 76.9141 47.6088C76.1988 47.959 75.5488 48.4722 75.0013 49.1192C74.4538 49.7663 74.0195 50.5344 73.7232 51.3798C73.4269 52.2252 73.2744 53.1313 73.2744 54.0464V54.0464Z" stroke="#45413C" stroke-width="1.5" stroke-linecap="round" stroke-linejoin="round"/>
<path d="M44.3207 52.4382C44.3113 53.4453 44.1785 54.4474 43.9255 55.4222C43.8886 55.5405 43.8869 55.6669 43.9204 55.7862C43.954 55.9054 44.0215 56.0124 44.1147 56.094C44.2078 56.1757 44.3227 56.2285 44.4453 56.2462C44.568 56.2638 44.6931 56.2455 44.8055 56.1934C46.5182 55.4906 47.8851 54.1415 48.6103 52.4382H44.3207Z" fill="#F0D5A8" stroke="#45413C" stroke-width="1.5" stroke-linecap="round" stroke-linejoin="round"/>
<path d="M51.84 52.4382C51.8305 53.4453 51.6978 54.4474 51.4448 55.4222C51.4081 55.5403 51.4065 55.6665 51.44 55.7855C51.4736 55.9045 51.5409 56.0112 51.6338 56.0928C51.7267 56.1744 51.8412 56.2273 51.9636 56.2451C52.0859 56.263 52.2108 56.245 52.3231 56.1934C54.0358 55.4907 55.4028 54.1415 56.128 52.4382H51.84Z" fill="#F0D5A8" stroke="#45413C" stroke-width="1.5" stroke-linecap="round" stroke-linejoin="round"/>
<path d="M66.8396 74.9519C66.8302 75.9595 66.6974 76.9621 66.4444 77.9375C66.408 78.0557 66.4066 78.1819 66.4403 78.3008C66.4741 78.4198 66.5416 78.5264 66.6347 78.6079C66.7278 78.6893 66.8425 78.742 66.9649 78.7596C67.0873 78.7772 67.2122 78.759 67.3244 78.7071C69.0371 78.0043 70.404 76.6552 71.1292 74.9519H66.8396Z" fill="#F0D5A8" stroke="#45413C" stroke-width="1.5" stroke-linecap="round" stroke-linejoin="round"/>
<path d="M74.3457 74.9519C74.3362 75.9595 74.2035 76.9621 73.9505 77.9375C73.9143 78.0555 73.913 78.1814 73.9467 78.3001C73.9804 78.4189 74.0478 78.5253 74.1406 78.6066C74.2334 78.688 74.3478 78.7407 74.4699 78.7585C74.592 78.7764 74.7167 78.7585 74.8289 78.7071C76.5416 78.0043 77.9085 76.6552 78.6337 74.9519H74.3457Z" fill="#F0D5A8" stroke="#45413C" stroke-width="1.5" stroke-linecap="round" stroke-linejoin="round"/>
<path d="M60.4084 79.2399C60.4084 78.1027 59.9566 77.012 59.1525 76.2078C58.3483 75.4037 57.2576 74.9519 56.1204 74.9519H40.0388C38.9157 74.9736 37.8459 75.435 37.0593 76.2369C36.2727 77.0389 35.832 78.1174 35.832 79.2407C35.832 80.364 36.2727 81.4425 37.0593 82.2445C37.8459 83.0464 38.9157 83.5078 40.0388 83.5295H56.1204C56.6836 83.5295 57.2414 83.4185 57.7617 83.2029C58.2821 82.9873 58.7548 82.6714 59.153 82.273C59.5512 81.8747 59.867 81.4018 60.0824 80.8813C60.2978 80.3609 60.4086 79.8031 60.4084 79.2399Z" fill="#FFAA54" stroke="#45413C" stroke-width="1.5" stroke-linecap="round" stroke-linejoin="round"/>
<path d="M40.0387 79.2351H56.1203C56.8746 79.2338 57.6157 79.4317 58.2689 79.8087C58.9222 80.1857 59.4642 80.7286 59.8403 81.3823C60.2168 80.7306 60.415 79.9912 60.4151 79.2385C60.4151 78.4858 60.217 77.7464 59.8405 77.0947C59.4641 76.4429 58.9227 75.9017 58.2708 75.5256C57.6189 75.1494 56.8794 74.9516 56.1267 74.9519H40.0387C39.2857 74.9507 38.5456 75.148 37.893 75.5238C37.2404 75.8996 36.6983 76.4407 36.3213 77.0926C35.9443 77.7445 35.7458 78.4842 35.7456 79.2373C35.7454 79.9904 35.9437 80.7302 36.3203 81.3823C36.6963 80.7288 37.2381 80.1861 37.891 79.8091C38.5439 79.4321 39.2848 79.2341 40.0387 79.2351V79.2351Z" fill="#FFCC99"/>
<path d="M60.4084 79.2399C60.4084 78.1027 59.9566 77.012 59.1525 76.2078C58.3483 75.4037 57.2576 74.9519 56.1204 74.9519H40.0388C38.9157 74.9736 37.8459 75.435 37.0593 76.2369C36.2727 77.0389 35.832 78.1174 35.832 79.2407C35.832 80.364 36.2727 81.4425 37.0593 82.2445C37.8459 83.0464 38.9157 83.5078 40.0388 83.5295H56.1204C56.6836 83.5295 57.2414 83.4185 57.7617 83.2029C58.2821 82.9873 58.7548 82.6714 59.153 82.273C59.5512 81.8747 59.867 81.4018 60.0824 80.8813C60.2978 80.3609 60.4086 79.8031 60.4084 79.2399Z" stroke="#45413C" stroke-width="1.5" stroke-linecap="round" stroke-linejoin="round"/>
<path d="M42.1829 74.9519C42.1734 75.9595 42.0407 76.9621 41.7877 77.9375C41.7513 78.0557 41.7498 78.1819 41.7836 78.3008C41.8174 78.4198 41.8849 78.5264 41.978 78.6079C42.071 78.6893 42.1857 78.742 42.3081 78.7596C42.4305 78.7772 42.5554 78.759 42.6677 78.7071C44.3798 78.004 45.7461 76.6549 46.4709 74.9519H42.1829Z" fill="#F0D5A8" stroke="#45413C" stroke-width="1.5" stroke-linecap="round" stroke-linejoin="round"/>
<path d="M49.688 74.9519C49.6785 75.9595 49.5458 76.9621 49.2928 77.9375C49.2566 78.0555 49.2553 78.1814 49.289 78.3001C49.3227 78.4189 49.3901 78.5253 49.4829 78.6066C49.5757 78.688 49.6901 78.7407 49.8122 78.7585C49.9343 78.7764 50.059 78.7585 50.1712 78.7071C51.8839 78.0043 53.2508 76.6552 53.976 74.9519H49.688Z" fill="#F0D5A8" stroke="#45413C" stroke-width="1.5" stroke-linecap="round" stroke-linejoin="round"/>
<path d="M42.3008 94.24H50.6416C51.5026 94.24 52.3552 94.4097 53.1505 94.7395C53.9459 95.0693 54.6684 95.5527 55.2768 96.1619C55.8852 96.7712 56.3675 97.4945 56.6961 98.2903C57.0247 99.0861 57.1932 99.939 57.192 100.8V106.043H35.752V100.8C35.7507 99.9391 35.9191 99.0864 36.2477 98.2907C36.5762 97.4949 37.0583 96.7718 37.6666 96.1625C38.2748 95.5533 38.9971 95.0699 39.7923 94.74C40.5875 94.4101 41.4399 94.2402 42.3008 94.24V94.24Z" fill="#FFAA54"/>
<path d="M48.4145 94.24H44.5281C42.2001 94.24 39.9675 95.1648 38.3214 96.8109C36.6753 98.457 35.7505 100.69 35.7505 103.018V106.034H35.8401C36.1458 103.948 37.1914 102.043 38.7859 100.665C40.3804 99.2868 42.4174 98.5284 44.5249 98.528H48.4113C50.5187 98.5284 52.5557 99.2868 54.1502 100.665C55.7448 102.043 56.7904 103.948 57.0961 106.034H57.1889V103.021C57.1893 101.868 56.9627 100.727 56.522 99.6615C56.0812 98.5964 55.435 97.6285 54.6203 96.8131C53.8055 95.9978 52.8381 95.3509 51.7733 94.9094C50.7085 94.4679 49.5672 94.2404 48.4145 94.24V94.24Z" fill="#FFCC99"/>
<path d="M42.3008 94.24H50.6416C51.5026 94.24 52.3552 94.4097 53.1505 94.7395C53.9459 95.0693 54.6684 95.5527 55.2768 96.1619C55.8852 96.7712 56.3675 97.4945 56.6961 98.2903C57.0247 99.0861 57.1932 99.939 57.192 100.8V106.043H35.752V100.8C35.7507 99.9391 35.9191 99.0864 36.2477 98.2907C36.5762 97.4949 37.0583 96.7718 37.6666 96.1625C38.2748 95.5533 38.9971 95.0699 39.7923 94.74C40.5875 94.4101 41.4399 94.2402 42.3008 94.24V94.24Z" stroke="#45413C" stroke-width="1.5" stroke-linecap="round" stroke-linejoin="round"/>
<path d="M43.2546 97.4658L42.1826 98.5378" stroke="#45413C" stroke-width="1.5" stroke-linecap="round" stroke-linejoin="round"/>
<path d="M49.689 97.4658L50.761 98.5378" stroke="#45413C" stroke-width="1.5" stroke-linecap="round" stroke-linejoin="round"/>
<path d="M46.4712 97.4658V98.5378" stroke="#45413C" stroke-width="1.5" stroke-linecap="round" stroke-linejoin="round"/>
<path d="M68.0312 94.2495H76.372C78.1093 94.2495 79.7754 94.9396 81.0039 96.1681C82.2323 97.3965 82.9224 99.0626 82.9224 100.8V106.043H61.4824V100.8C61.4824 99.0629 62.1723 97.397 63.4004 96.1686C64.6285 94.9403 66.2942 94.2499 68.0312 94.2495Z" fill="#FFAA54"/>
<path d="M74.145 94.2495H70.2586C67.9306 94.2495 65.698 95.1743 64.0519 96.8204C62.4057 98.4665 61.481 100.699 61.481 103.027V106.043H61.5722C61.8765 103.957 62.9218 102.049 64.5167 100.67C66.1117 99.2905 68.1499 98.5313 70.2586 98.5311H74.145C76.2548 98.5316 78.294 99.2919 79.8891 100.673C81.4843 102.054 82.5288 103.963 82.8314 106.051H82.9226V103.027C82.9226 100.699 81.9978 98.4665 80.3517 96.8204C78.7055 95.1743 76.4729 94.2495 74.145 94.2495Z" fill="#FFCC99"/>
<path d="M68.0312 94.2495H76.372C78.1093 94.2495 79.7754 94.9396 81.0039 96.1681C82.2323 97.3965 82.9224 99.0626 82.9224 100.8V106.043H61.4824V100.8C61.4824 99.0629 62.1723 97.397 63.4004 96.1686C64.6285 94.9403 66.2942 94.2499 68.0312 94.2495Z" stroke="#45413C" stroke-width="1.5" stroke-linecap="round" stroke-linejoin="round"/>
<path d="M68.9841 97.4658L67.9121 98.5378" stroke="#45413C" stroke-width="1.5" stroke-linecap="round" stroke-linejoin="round"/>
<path d="M75.418 97.4658L76.49 98.5378" stroke="#45413C" stroke-width="1.5" stroke-linecap="round" stroke-linejoin="round"/>
<path d="M72.2021 97.4658V98.5378" stroke="#45413C" stroke-width="1.5" stroke-linecap="round" stroke-linejoin="round"/>
<path d="M95.7879 106.043H90.4263V36.3567H92.5879C93.4366 36.3567 94.2505 36.6938 94.8506 37.2939C95.4507 37.8941 95.7879 38.708 95.7879 39.5567V106.043Z" fill="#E8F4FA" stroke="#45413C" stroke-width="1.5" stroke-linecap="round" stroke-linejoin="round"/>
<path d="M21.813 106.043H27.1746V36.3567H25.013C24.1643 36.3567 23.3504 36.6938 22.7502 37.2939C22.1501 37.8941 21.813 38.708 21.813 39.5567V106.043Z" fill="#E8F4FA" stroke="#45413C" stroke-width="1.5" stroke-linecap="round" stroke-linejoin="round"/>
<path d="M123.2 94.3998V95.9998C123.2 96.4241 123.032 96.8311 122.731 97.1312C122.431 97.4312 122.024 97.5998 121.6 97.5998H113.6V106.4H83.2001V97.5998H75.2001C74.7758 97.5998 74.3688 97.4312 74.0687 97.1312C73.7687 96.8311 73.6001 96.4241 73.6001 95.9998V94.3998C73.6036 88.7985 75.5031 83.3634 78.9895 78.9794C82.4758 74.5953 87.3435 71.5206 92.8001 70.2558V64.7998H104V70.251C109.457 71.516 114.326 74.5914 117.812 78.9765C121.299 83.3615 123.198 88.7977 123.2 94.3998V94.3998Z" fill="#00DBA8"/>
<path d="M104 70.251V64.7998H92.8001V70.251C87.3427 71.516 82.4744 74.5914 78.988 78.9765C75.5016 83.3615 73.6025 88.7977 73.6001 94.3998V95.9998C73.6003 96.2855 73.6765 96.5661 73.8209 96.8126C74.1255 94.5371 74.7475 92.3154 75.6689 90.2126C83.9761 71.259 112.814 71.2366 121.13 90.2126C122.052 92.3154 122.674 94.537 122.979 96.8126C123.124 96.5661 123.2 96.2855 123.2 95.9998V94.3998C123.198 88.7977 121.299 83.3615 117.812 78.9765C114.326 74.5914 109.457 71.516 104 70.251V70.251Z" fill="#00F5BC"/>
<path d="M104 70.251V64.7998C97.0945 64.7998 99.8529 64.7998 92.8001 64.7998V70.251C91.2198 70.6168 89.6796 71.1378 88.2017 71.8062C89.086 73.7707 90.5188 75.438 92.328 76.6076C94.1372 77.7773 96.2457 78.3995 98.4001 78.3995C100.554 78.3995 102.663 77.7773 104.472 76.6076C106.281 75.438 107.714 73.7707 108.598 71.8062C107.12 71.1382 105.58 70.6173 104 70.251V70.251Z" stroke="#45413C" stroke-width="1.5" stroke-linecap="round" stroke-linejoin="round"/>
<path d="M104 70.251V64.7998C97.0945 64.7998 99.8529 64.7998 92.8001 64.7998V70.251C91.2198 70.6168 89.6796 71.1378 88.2017 71.8062C89.086 73.7707 90.5188 75.438 92.328 76.6076C94.1372 77.7773 96.2457 78.3995 98.4001 78.3995C100.554 78.3995 102.663 77.7773 104.472 76.6076C106.281 75.438 107.714 73.7707 108.598 71.8062C107.12 71.1382 105.58 70.6173 104 70.251V70.251Z" fill="#D18660" stroke="#45413C" stroke-width="1.5" stroke-linecap="round" stroke-linejoin="round"/>
<path d="M121.6 97.6001V107.003C121.6 107.6 121.806 108.179 122.183 108.643C122.559 109.106 123.084 109.425 123.669 109.546C124.254 109.668 124.862 109.584 125.392 109.309C125.923 109.034 126.342 108.585 126.579 108.037L128.331 104C128.643 103.286 129.156 102.679 129.808 102.253C130.459 101.826 131.221 101.6 132 101.6C132.547 101.599 133.089 101.712 133.591 101.931C134.073 102.14 134.51 102.442 134.876 102.82C135.242 103.199 135.53 103.645 135.723 104.134C135.916 104.624 136.011 105.147 136.001 105.673C135.992 106.199 135.879 106.718 135.669 107.2L133.909 111.232C132.935 113.463 131.224 115.29 129.062 116.407C126.9 117.524 124.419 117.863 122.037 117.367C119.654 116.871 117.515 115.57 115.979 113.683C114.442 111.796 113.602 109.437 113.6 107.003V97.6001H121.6Z" fill="#D18660" stroke="#45413C" stroke-width="1.5" stroke-linecap="round" stroke-linejoin="round"/>
<path d="M126.212 92.3218L134.198 91.8339L135.71 116.588L127.725 117.076L126.212 92.3218Z" fill="#F0D5A8"/>
<path d="M129.601 95.5283L131.201 95.4307C131.62 95.4049 132.041 95.462 132.438 95.5987C132.835 95.7355 133.202 95.9492 133.517 96.2276C133.832 96.506 134.089 96.8438 134.273 97.2215C134.457 97.5992 134.565 98.0096 134.591 98.4291L135.521 113.6C135.521 113.53 135.521 113.459 135.521 113.389L134.401 95.0291C134.375 94.6096 134.267 94.1992 134.083 93.8215C133.898 93.4438 133.641 93.106 133.327 92.8276C133.012 92.5492 132.645 92.3355 132.248 92.1987C131.85 92.062 131.43 92.0049 131.01 92.0307L129.41 92.1283C128.99 92.1526 128.578 92.2596 128.199 92.4434C127.82 92.6272 127.481 92.884 127.201 93.1992C126.921 93.5143 126.707 93.8816 126.569 94.2799C126.432 94.6782 126.375 95.0998 126.401 95.5203L126.594 98.7091C126.598 97.8962 126.91 97.1151 127.469 96.5243C128.027 95.9336 128.789 95.5775 129.601 95.5283V95.5283Z" fill="#F7E5C6"/>
<path d="M126.212 92.3218L134.198 91.8339L135.71 116.588L127.725 117.076L126.212 92.3218Z" stroke="#45413C" stroke-width="1.5" stroke-linecap="round" stroke-linejoin="round"/>
<path d="M134.416 121.665C134.382 121.079 134.212 120.509 133.92 120C133.626 119.491 133.453 118.92 133.416 118.333L133.309 116.64C133.05 116.725 132.781 116.776 132.509 116.79L130.909 116.888C130.641 116.905 130.372 116.888 130.109 116.837L130.21 118.534C130.246 119.121 130.145 119.709 129.914 120.249C129.684 120.791 129.582 121.379 129.618 121.966L129.808 125.065C129.822 125.384 129.9 125.696 130.036 125.984C130.172 126.272 130.364 126.53 130.601 126.743C130.837 126.956 131.114 127.12 131.415 127.225C131.716 127.33 132.034 127.374 132.352 127.354C132.67 127.335 132.981 127.252 133.267 127.112C133.552 126.971 133.807 126.775 134.016 126.534C134.225 126.294 134.385 126.014 134.485 125.712C134.585 125.41 134.623 125.09 134.599 124.773L134.416 121.665Z" fill="#F0D5A8"/>
<path d="M134.008 120.174C133.978 120.115 133.947 120.057 133.914 120C133.619 119.491 133.447 118.92 133.41 118.333L133.309 116.64C133.05 116.725 132.781 116.776 132.509 116.79L130.909 116.888C130.641 116.905 130.372 116.888 130.109 116.837L130.21 118.534C130.246 119.121 130.145 119.709 129.914 120.249C129.872 120.347 129.837 120.446 129.803 120.545C130.042 120.905 130.372 121.193 130.761 121.38C131.149 121.568 131.581 121.647 132.011 121.609C132.44 121.572 132.852 121.42 133.202 121.168C133.553 120.917 133.829 120.576 134.002 120.181L134.008 120.174Z" fill="#DEBB7E"/>
<path d="M134.416 121.665C134.382 121.079 134.212 120.509 133.92 120C133.626 119.491 133.453 118.92 133.416 118.333L133.309 116.64C133.05 116.725 132.781 116.776 132.509 116.79L130.909 116.888C130.641 116.905 130.372 116.888 130.109 116.837L130.21 118.534C130.246 119.121 130.145 119.709 129.914 120.249C129.684 120.791 129.582 121.379 129.618 121.966L129.808 125.065C129.822 125.384 129.9 125.696 130.036 125.984C130.172 126.272 130.364 126.53 130.601 126.743C130.837 126.956 131.114 127.12 131.415 127.225C131.716 127.33 132.034 127.374 132.352 127.354C132.67 127.335 132.981 127.252 133.267 127.112C133.552 126.971 133.807 126.775 134.016 126.534C134.225 126.294 134.385 126.014 134.485 125.712C134.585 125.41 134.623 125.09 134.599 124.773L134.416 121.665Z" stroke="#45413C" stroke-width="1.5" stroke-linecap="round" stroke-linejoin="round"/>
<path d="M127.504 87.2466C127.538 87.8333 127.708 88.4041 128 88.9138C128.294 89.4227 128.466 89.9928 128.503 90.5794L128.572 92.2898C128.839 92.2002 129.117 92.1464 129.399 92.1298L130.999 92.0322C131.256 92.0169 131.515 92.0325 131.768 92.0786L131.7 90.3858C131.664 89.7989 131.766 89.2117 131.996 88.6706C132.227 88.1297 132.328 87.5424 132.292 86.9554L132.103 83.8562C132.064 83.2197 131.774 82.6247 131.296 82.202C130.819 81.7794 130.193 81.5638 129.556 81.6026C128.92 81.6414 128.325 81.9315 127.902 82.4091C127.48 82.8866 127.264 83.5125 127.303 84.149L127.504 87.2466Z" fill="#F0D5A8"/>
<path d="M131.801 89.2798L128.413 89.3838H128.236C128.391 89.7635 128.484 90.1662 128.509 90.5758L128.578 92.2862C128.846 92.1966 129.124 92.1428 129.405 92.1262L131.005 92.0286C131.263 92.0133 131.521 92.0289 131.775 92.075L131.706 90.3822C131.684 90.0121 131.716 89.6407 131.801 89.2798V89.2798Z" fill="#DEBB7E"/>
<path d="M127.504 87.2466C127.538 87.8333 127.708 88.4041 128 88.9138C128.294 89.4227 128.466 89.9928 128.503 90.5794L128.572 92.2898C128.839 92.2002 129.117 92.1464 129.399 92.1298L130.999 92.0322C131.256 92.0169 131.515 92.0325 131.768 92.0786L131.7 90.3858C131.664 89.7989 131.766 89.2117 131.996 88.6706C132.227 88.1297 132.328 87.5424 132.292 86.9554L132.103 83.8562C132.064 83.2197 131.774 82.6247 131.296 82.202C130.819 81.7794 130.193 81.5638 129.556 81.6026C128.92 81.6414 128.325 81.9315 127.902 82.4091C127.48 82.8866 127.264 83.5125 127.303 84.149L127.504 87.2466Z" stroke="#45413C" stroke-width="1.5" stroke-linecap="round" stroke-linejoin="round"/>
<path d="M128.368 107.77C128.556 108.508 129.005 109.154 129.631 109.587C130.257 110.021 131.019 110.215 131.776 110.132L135.661 109.751C135.975 109.72 136.279 109.628 136.557 109.479C136.835 109.33 137.081 109.129 137.281 108.885C137.481 108.641 137.631 108.361 137.723 108.059C137.814 107.757 137.846 107.44 137.815 107.127L137.346 102.351C137.315 102.037 137.223 101.732 137.074 101.454C136.926 101.175 136.724 100.929 136.48 100.729C136.236 100.529 135.955 100.378 135.653 100.287C135.351 100.195 135.034 100.164 134.72 100.196L130.835 100.576C130.077 100.642 129.368 100.98 128.839 101.528C128.309 102.075 127.996 102.795 127.955 103.556C127.912 104.972 128.051 106.389 128.368 107.77V107.77Z" fill="#D18660"/>
<path d="M137.66 105.533L137.34 102.35C137.278 101.717 136.967 101.135 136.476 100.731C135.985 100.326 135.353 100.134 134.72 100.195L130.836 100.576C130.077 100.642 129.368 100.98 128.839 101.527C128.31 102.074 127.996 102.795 127.956 103.555C127.956 103.745 127.956 103.937 127.956 104.131L135.044 103.381C135.676 103.32 136.306 103.513 136.796 103.916C137.286 104.32 137.597 104.901 137.66 105.533Z" fill="#E09F7E"/>
<path d="M128.368 107.77C128.556 108.508 129.005 109.154 129.631 109.587C130.257 110.021 131.019 110.215 131.776 110.132L135.661 109.751C135.975 109.72 136.279 109.628 136.557 109.479C136.835 109.33 137.081 109.129 137.281 108.885C137.481 108.641 137.631 108.361 137.723 108.059C137.814 107.757 137.846 107.44 137.815 107.127L137.346 102.351C137.315 102.037 137.223 101.732 137.074 101.454C136.926 101.175 136.724 100.929 136.48 100.729C136.236 100.529 135.955 100.378 135.653 100.287C135.351 100.195 135.034 100.164 134.72 100.196L130.835 100.576C130.077 100.642 129.368 100.98 128.839 101.528C128.309 102.075 127.996 102.795 127.955 103.556C127.912 104.972 128.051 106.389 128.368 107.77V107.77Z" stroke="#45413C" stroke-width="1.5" stroke-linecap="round" stroke-linejoin="round"/>
<path d="M92.8008 70.3774C96.4536 71.474 100.348 71.474 104.001 70.3774V64.7998H92.8008V70.3774Z" fill="#BD704A"/>
<path d="M123.2 94.3998V95.9998C123.2 96.4241 123.032 96.8311 122.731 97.1312C122.431 97.4312 122.024 97.5998 121.6 97.5998H113.6V106.4H83.2001V97.5998H75.2001C74.7758 97.5998 74.3688 97.4312 74.0687 97.1312C73.7687 96.8311 73.6001 96.4241 73.6001 95.9998V94.3998C73.6036 88.7985 75.5031 83.3634 78.9895 78.9794C82.4758 74.5953 87.3435 71.5206 92.8001 70.2558V64.7998H104V70.251C109.457 71.516 114.326 74.5914 117.812 78.9765C121.299 83.3615 123.198 88.7977 123.2 94.3998V94.3998Z" stroke="#45413C" stroke-width="1.5" stroke-linecap="round" stroke-linejoin="round"/>
<path d="M110.494 121.048C110.494 122.673 109.848 124.231 108.699 125.379C107.55 126.528 105.992 127.173 104.368 127.173H48.2078C47.3951 127.186 46.5878 127.037 45.8331 126.735C45.0784 126.433 44.3914 125.984 43.812 125.414C43.2325 124.844 42.7724 124.164 42.4583 123.415C42.1442 122.665 41.9824 121.86 41.9824 121.047C41.9824 120.234 42.1442 119.43 42.4583 118.68C42.7724 117.93 43.2325 117.251 43.812 116.68C44.3914 116.11 45.0784 115.661 45.8331 115.359C46.5878 115.057 47.3951 114.909 48.2078 114.922H104.368C105.993 114.922 107.551 115.567 108.7 116.716C109.849 117.865 110.494 119.423 110.494 121.048Z" fill="#F0D3A8"/>
<path d="M48.2114 119H104.371C105.639 119 106.875 119.394 107.909 120.125C108.944 120.857 109.727 121.892 110.149 123.087C110.474 122.163 110.573 121.175 110.437 120.205C110.302 119.235 109.936 118.312 109.37 117.513C108.804 116.714 108.055 116.062 107.185 115.612C106.316 115.162 105.351 114.927 104.371 114.927H48.2114C47.2322 114.927 46.2673 115.162 45.3976 115.612C44.5279 116.062 43.7787 116.714 43.2128 117.513C42.647 118.312 42.281 119.235 42.1454 120.205C42.0099 121.175 42.1087 122.163 42.4338 123.087C42.856 121.892 43.6384 120.857 44.6731 120.125C45.7078 119.393 46.944 119 48.2114 119V119Z" fill="white"/>
<path opacity="0.15" d="M40.0439 129.216C40.0439 130.028 43.9165 130.807 50.8098 131.382C57.703 131.956 67.0522 132.279 76.8007 132.279C86.5493 132.279 95.8985 131.956 102.792 131.382C109.685 130.807 113.558 130.028 113.558 129.216C113.558 128.404 109.685 127.625 102.792 127.051C95.8985 126.476 86.5493 126.154 76.8007 126.154C67.0522 126.154 57.703 126.476 50.8098 127.051C43.9165 127.625 40.0439 128.404 40.0439 129.216V129.216Z" fill="#45413C"/>
<path d="M110.494 121.048C110.494 122.673 109.848 124.231 108.699 125.379C107.55 126.528 105.992 127.173 104.368 127.173H48.2078C47.3951 127.186 46.5878 127.037 45.8331 126.735C45.0784 126.433 44.3914 125.984 43.812 125.414C43.2325 124.844 42.7724 124.164 42.4583 123.415C42.1442 122.665 41.9824 121.86 41.9824 121.047C41.9824 120.234 42.1442 119.43 42.4583 118.68C42.7724 117.93 43.2325 117.251 43.812 116.68C44.3914 116.11 45.0784 115.661 45.8331 115.359C46.5878 115.057 47.3951 114.909 48.2078 114.922H104.368C105.993 114.922 107.551 115.567 108.7 116.716C109.849 117.865 110.494 119.423 110.494 121.048Z" stroke="#45413C" stroke-width="1.5" stroke-linecap="round" stroke-linejoin="round"/>
<path d="M52.2961 114.922C52.2961 114.922 51.2737 125.131 60.4561 127.173" stroke="#45413C" stroke-width="1.5" stroke-linecap="round" stroke-linejoin="round"/>
<path d="M65.6003 114.922C65.6003 114.922 64.5779 125.131 73.7603 127.173" stroke="#45413C" stroke-width="1.5" stroke-linecap="round" stroke-linejoin="round"/>
<path d="M78.9109 114.922C78.9109 114.922 77.8885 125.131 87.0709 127.173" stroke="#45413C" stroke-width="1.5" stroke-linecap="round" stroke-linejoin="round"/>
<path d="M88.8805 116.8C88.8805 116.8 88.0805 124.8 95.2804 126.4" stroke="#45413C" stroke-width="1.5" stroke-linecap="round" stroke-linejoin="round"/>
<path d="M75.2002 97.6001H83.2002V106.4H75.2002V97.6001Z" fill="#D18660" stroke="#45413C" stroke-width="1.5" stroke-linecap="round" stroke-linejoin="round"/>
<path d="M110.062 72.5284C109.004 71.9639 107.907 71.4767 106.779 71.0708L105.235 82.4132C105.142 83.0808 104.843 83.7024 104.378 84.1904C103.913 84.6785 103.307 85.0082 102.645 85.1332C101.245 85.408 99.8254 85.5685 98.3998 85.6132C96.9347 85.6565 95.4695 85.5303 94.0334 85.2372C93.3979 85.0959 92.8214 84.7619 92.3827 84.2808C91.9441 83.7998 91.6645 83.195 91.5822 82.5492L90.0174 71.0852C88.8923 71.4892 87.7982 71.9748 86.7438 72.538L87.8558 81.994C87.9534 82.7989 87.948 83.6129 87.8398 84.4164L84.7998 106.4H112L108.968 84.4164C108.856 83.609 108.848 82.7906 108.944 81.9812L110.062 72.5284Z" fill="#E5FEFF" stroke="#45413C" stroke-width="1.5" stroke-linecap="round" stroke-linejoin="round"/>
<path d="M92.8579 88.9669C92.8579 89.2851 92.9843 89.5903 93.2094 89.8154C93.4344 90.0404 93.7396 90.1669 94.0579 90.1669C94.3762 90.1669 94.6814 90.0404 94.9064 89.8154C95.1315 89.5903 95.2579 89.2851 95.2579 88.9669C95.2579 88.6486 95.1315 88.3434 94.9064 88.1183C94.6814 87.8933 94.3762 87.7668 94.0579 87.7668C93.7396 87.7668 93.4344 87.8933 93.2094 88.1183C92.9843 88.3434 92.8579 88.6486 92.8579 88.9669Z" fill="#BF8DF2"/>
<path d="M88.8003 94.0579C88.8003 94.2952 88.8707 94.5273 89.0025 94.7246C89.1344 94.9219 89.3218 95.0757 89.5411 95.1666C89.7603 95.2574 90.0016 95.2811 90.2344 95.2348C90.4672 95.1885 90.681 95.0743 90.8488 94.9064C91.0166 94.7386 91.1309 94.5248 91.1772 94.292C91.2235 94.0592 91.1998 93.818 91.1089 93.5987C91.0181 93.3794 90.8643 93.192 90.667 93.0601C90.4696 92.9283 90.2376 92.8579 90.0003 92.8579C89.682 92.8579 89.3768 92.9843 89.1518 93.2094C88.9267 93.4344 88.8003 93.7396 88.8003 94.0579Z" fill="#BF8DF2"/>
<path d="M102.474 88.4004C102.474 88.6378 102.545 88.8698 102.676 89.0671C102.808 89.2645 102.996 89.4183 103.215 89.5091C103.434 89.5999 103.675 89.6237 103.908 89.5774C104.141 89.5311 104.355 89.4168 104.523 89.249C104.69 89.0811 104.805 88.8673 104.851 88.6345C104.897 88.4018 104.874 88.1605 104.783 87.9412C104.692 87.7219 104.538 87.5345 104.341 87.4027C104.143 87.2708 103.911 87.2004 103.674 87.2004C103.356 87.2004 103.051 87.3269 102.826 87.5519C102.601 87.777 102.474 88.0822 102.474 88.4004V88.4004Z" fill="#BF8DF2"/>
<path d="M97.3828 93.4915C97.3828 93.7288 97.4532 93.9608 97.5851 94.1582C97.7169 94.3555 97.9043 94.5093 98.1236 94.6001C98.3429 94.691 98.5841 94.7147 98.8169 94.6684C99.0497 94.6221 99.2635 94.5078 99.4313 94.34C99.5992 94.1722 99.7135 93.9584 99.7598 93.7256C99.8061 93.4928 99.7823 93.2516 99.6915 93.0323C99.6007 92.813 99.4468 92.6256 99.2495 92.4937C99.0522 92.3619 98.8202 92.2915 98.5828 92.2915C98.2646 92.2915 97.9593 92.4179 97.7343 92.643C97.5092 92.868 97.3828 93.1732 97.3828 93.4915V93.4915Z" fill="#BF8DF2"/>
<path d="M92.2915 98.5826C92.2915 98.8199 92.3619 99.0519 92.4937 99.2493C92.6256 99.4466 92.813 99.6004 93.0323 99.6912C93.2516 99.7821 93.4928 99.8058 93.7256 99.7595C93.9584 99.7132 94.1722 99.5989 94.34 99.4311C94.5078 99.2633 94.6221 99.0495 94.6684 98.8167C94.7147 98.5839 94.691 98.3426 94.6001 98.1234C94.5093 97.9041 94.3555 97.7167 94.1582 97.5848C93.9608 97.453 93.7288 97.3826 93.4915 97.3826C93.1732 97.3826 92.868 97.509 92.643 97.734C92.4179 97.9591 92.2915 98.2643 92.2915 98.5826V98.5826Z" fill="#BF8DF2"/>
<path d="M88 103.275C88 103.513 88.0704 103.745 88.2022 103.942C88.3341 104.139 88.5215 104.293 88.7408 104.384C88.96 104.475 89.2013 104.498 89.4341 104.452C89.6669 104.406 89.8807 104.292 90.0485 104.124C90.2163 103.956 90.3306 103.742 90.3769 103.509C90.4232 103.277 90.3995 103.035 90.3086 102.816C90.2178 102.597 90.064 102.409 89.8667 102.277C89.6693 102.146 89.4373 102.075 89.2 102.075C88.8817 102.075 88.5765 102.202 88.3515 102.427C88.1264 102.652 88 102.957 88 103.275Z" fill="#BF8DF2"/>
<path d="M105.601 92.9251C105.601 93.1624 105.671 93.3944 105.803 93.5918C105.935 93.7891 106.122 93.9429 106.341 94.0337C106.561 94.1246 106.802 94.1483 107.035 94.102C107.267 94.0557 107.481 93.9414 107.649 93.7736C107.817 93.6058 107.931 93.392 107.978 93.1592C108.024 92.9264 108 92.6852 107.909 92.4659C107.818 92.2466 107.665 92.0592 107.467 91.9273C107.27 91.7955 107.038 91.7251 106.801 91.7251C106.482 91.7251 106.177 91.8515 105.952 92.0766C105.727 92.3016 105.601 92.6068 105.601 92.9251V92.9251Z" fill="#BF8DF2"/>
<path d="M101.908 98.0178C101.908 98.255 101.979 98.4869 102.111 98.684C102.243 98.8811 102.43 99.0347 102.65 99.1253C102.869 99.2159 103.11 99.2394 103.343 99.1929C103.575 99.1464 103.789 99.032 103.957 98.8641C104.124 98.6962 104.239 98.4824 104.285 98.2497C104.331 98.017 104.307 97.7758 104.216 97.5566C104.125 97.3374 103.972 97.1501 103.774 97.0183C103.577 96.8865 103.345 96.8162 103.108 96.8162C102.95 96.8162 102.794 96.8473 102.648 96.9077C102.502 96.9681 102.37 97.0566 102.259 97.1682C102.147 97.2798 102.059 97.4123 101.999 97.5581C101.938 97.7038 101.908 97.86 101.908 98.0178V98.0178Z" fill="#BF8DF2"/>
<path d="M96.8164 103.109C96.8167 103.346 96.8874 103.578 97.0194 103.775C97.1515 103.972 97.339 104.126 97.5583 104.217C97.7776 104.307 98.0188 104.331 98.2515 104.284C98.4842 104.238 98.6978 104.123 98.8655 103.955C99.0332 103.788 99.1473 103.574 99.1935 103.341C99.2396 103.108 99.2158 102.867 99.1249 102.648C99.034 102.429 98.8802 102.241 98.6829 102.11C98.4856 101.978 98.2537 101.907 98.0164 101.907C97.8587 101.907 97.7025 101.939 97.5568 101.999C97.4111 102.059 97.2788 102.148 97.1673 102.26C97.0559 102.371 96.9675 102.504 96.9073 102.649C96.8471 102.795 96.8162 102.951 96.8164 103.109V103.109Z" fill="#BF8DF2"/>
<path d="M106.434 102.543C106.434 102.78 106.504 103.012 106.636 103.209C106.768 103.407 106.956 103.56 107.175 103.651C107.394 103.742 107.635 103.766 107.868 103.719C108.101 103.673 108.315 103.559 108.483 103.391C108.65 103.223 108.765 103.009 108.811 102.777C108.857 102.544 108.834 102.303 108.743 102.083C108.652 101.864 108.498 101.677 108.301 101.545C108.103 101.413 107.871 101.343 107.634 101.343C107.316 101.343 107.011 101.469 106.786 101.694C106.561 101.919 106.434 102.224 106.434 102.543Z" fill="#BF8DF2"/>
<path d="M113.601 97.6958C114.371 96.3489 114.814 94.8403 114.894 93.2912C114.975 91.742 114.692 90.1955 114.067 88.7758C113.543 87.4702 113.086 86.1449 112.695 84.7998" stroke="#45413C" stroke-width="1.5" stroke-linecap="round" stroke-linejoin="round"/>
<path d="M83.2 97.6959C82.4295 96.3493 81.9859 94.8407 81.9051 93.2914C81.8242 91.742 82.1083 90.1954 82.7344 88.7759C83.257 87.4703 83.7141 86.1455 84.1056 84.8015" stroke="#45413C" stroke-width="1.5" stroke-linecap="round" stroke-linejoin="round"/>
<path d="M95.2883 75.0272L92.6115 74.8992L89.2515 76.616L87.8019 79.04C87.5505 79.427 87.4631 79.898 87.559 80.3494C87.6548 80.8009 87.9261 81.1957 88.3131 81.4472C88.7001 81.6986 89.1711 81.786 89.6226 81.6901C90.074 81.5942 90.4689 81.323 90.7203 80.936L91.2723 80.1536L91.8163 81.1648C92.0321 81.5679 92.3992 81.8688 92.8368 82.0013C93.2744 82.1337 93.7468 82.0869 94.1499 81.8712C94.553 81.6554 94.8539 81.2883 94.9864 80.8507C95.1189 80.413 95.0721 79.9407 94.8563 79.5376L94.3123 78.5264L95.2723 78.4976C95.7239 78.4887 96.1543 78.3041 96.472 77.983C96.7898 77.6619 96.9699 77.2296 96.974 76.7779C96.9782 76.3262 96.8061 75.8907 96.4944 75.5638C96.1826 75.2369 95.7557 75.0444 95.3043 75.0272H95.2883Z" fill="#724F3D" stroke="#45413C" stroke-width="1.5" stroke-linecap="round" stroke-linejoin="round"/>
<path d="M86.061 74.1941L92.3686 70.9712L94.0102 74.1841L87.7027 77.407L86.061 74.1941Z" fill="#6DD627" stroke="#45413C" stroke-width="1.5" stroke-linecap="round" stroke-linejoin="round"/>
<path d="M91.1625 67.0867C91.1849 67.0499 91.3353 66.8211 91.5705 66.4627C89.2021 65.3357 87.1467 63.6446 85.5844 61.5378C84.0222 59.4311 83.001 56.973 82.6105 54.3795C82.5449 54.3795 82.4825 54.4003 82.4153 54.4003C81.8001 54.4004 81.1979 54.2232 80.6809 53.8899C80.0537 55.2452 79.926 56.7786 80.3204 58.2189C80.7148 59.6592 81.6059 60.9136 82.8361 61.7603C82.4621 62.3217 82.2078 62.9542 82.089 63.6183C81.9702 64.2824 81.9894 64.9638 82.1455 65.6201C82.3017 66.2764 82.5913 66.8935 82.9964 67.4329C83.4015 67.9723 83.9133 68.4226 84.5001 68.7555C84.0824 69.7479 84.0639 70.8633 84.4485 71.869C84.833 72.8747 85.5909 73.6932 86.5641 74.1539C86.6678 73.9585 86.8292 73.7998 87.0265 73.6995L91.4041 71.4595C91.5767 71.3705 91.7701 71.3299 91.964 71.342C92.1578 71.3541 92.3447 71.4185 92.5049 71.5283C92.5735 71.2978 92.6217 71.0617 92.6489 70.8227C92.7292 70.1256 92.6355 69.4195 92.3761 68.7675C92.1167 68.1156 91.6997 67.5381 91.1625 67.0867V67.0867Z" fill="#724F3D" stroke="#45413C" stroke-width="1.5" stroke-linecap="round" stroke-linejoin="round"/>
<path d="M114.414 48.0002V44.0002C114.414 39.7568 112.728 35.6871 109.728 32.6865C106.727 29.686 102.657 28.0002 98.4139 28.0002C94.1704 28.0002 90.1007 29.686 87.1002 32.6865C84.0996 35.6871 82.4139 39.7568 82.4139 44.0002V48.0002C81.5652 48.0002 80.7512 48.3374 80.1511 48.9375C79.551 49.5376 79.2139 50.3516 79.2139 51.2002C79.2139 52.0489 79.551 52.8629 80.1511 53.463C80.7512 54.0631 81.5652 54.4002 82.4139 54.4002C82.4811 54.4002 82.5435 54.3842 82.6091 54.381C83.1745 58.1681 85.0811 61.6262 87.9817 64.1259C90.8823 66.6255 94.584 68.0005 98.4131 68.0005C102.242 68.0005 105.944 66.6255 108.844 64.1259C111.745 61.6262 113.652 58.1681 114.217 54.381C114.283 54.381 114.347 54.4002 114.414 54.4002C115.263 54.4002 116.076 54.0631 116.677 53.463C117.277 52.8629 117.614 52.0489 117.614 51.2002C117.614 50.3516 117.277 49.5376 116.677 48.9375C116.076 48.3374 115.263 48.0002 114.414 48.0002Z" fill="#D18660" stroke="#45413C" stroke-width="1.5" stroke-linecap="round" stroke-linejoin="round"/>
<path d="M87.2134 54.8003C87.2134 55.3307 87.4241 55.8394 87.7992 56.2145C88.1742 56.5896 88.6829 56.8003 89.2134 56.8003C89.7438 56.8003 90.2525 56.5896 90.6276 56.2145C91.0027 55.8394 91.2134 55.3307 91.2134 54.8003C91.2134 54.2699 91.0027 53.7612 90.6276 53.3861C90.2525 53.011 89.7438 52.8003 89.2134 52.8003C88.6829 52.8003 88.1742 53.011 87.7992 53.3861C87.4241 53.7612 87.2134 54.2699 87.2134 54.8003V54.8003Z" fill="#BD704A"/>
<path d="M105.613 54.8003C105.613 55.3307 105.824 55.8394 106.199 56.2145C106.574 56.5896 107.083 56.8003 107.613 56.8003C108.144 56.8003 108.652 56.5896 109.027 56.2145C109.403 55.8394 109.613 55.3307 109.613 54.8003C109.613 54.2699 109.403 53.7612 109.027 53.3861C108.652 53.011 108.144 52.8003 107.613 52.8003C107.083 52.8003 106.574 53.011 106.199 53.3861C105.824 53.7612 105.613 54.2699 105.613 54.8003V54.8003Z" fill="#BD704A"/>
<path d="M117.537 39.3601C117.999 37.0471 117.678 34.646 116.623 32.5361C113.942 27.1729 109.113 26.8577 105.454 26.1921C102.441 24.5793 97.5785 21.1857 90.1849 22.8321C87.9785 23.3226 85.8914 24.2463 84.0446 25.5495C82.1978 26.8527 80.6281 28.5095 79.4265 30.4239C78.2248 32.3383 77.4151 34.4722 77.0443 36.7019C76.6736 38.9315 76.7491 41.2126 77.2665 43.4129L79.2137 51.2001C79.2143 50.7818 79.2978 50.3678 79.4593 49.982C79.6208 49.5962 79.8571 49.2462 80.1546 48.9522C80.4522 48.6583 80.805 48.4262 81.1927 48.2693C81.5805 48.1125 81.9954 48.034 82.4137 48.0385C82.838 48.0385 83.245 47.8699 83.545 47.5699C83.8451 47.2698 84.0137 46.8628 84.0137 46.4385V45.6001C84.0137 44.7345 84.5545 43.7873 85.4201 43.7505C91.0089 43.5105 100.508 39.3121 103.626 37.8673C103.926 37.7288 104.261 37.6872 104.585 37.7483C104.909 37.8094 105.206 37.9701 105.434 38.2081C107.745 40.2591 110.157 42.1922 112.662 44.0001C112.867 44.1476 113.035 44.3422 113.15 44.5677C113.265 44.7931 113.325 45.0429 113.324 45.2961V46.8801C113.324 47.3044 113.493 47.7114 113.793 48.0115C114.093 48.3115 114.5 48.4801 114.924 48.4801C115.945 48.4801 115.994 47.0769 116.108 46.5057L117.537 39.3601Z" fill="#724F3D"/>
<path d="M90.0545 28.4206C97.4481 26.7774 102.31 30.171 105.323 31.7806C108.982 32.4462 113.811 32.7614 116.493 38.1246C116.857 38.8528 117.135 39.6206 117.323 40.4126L117.536 39.3486C117.998 37.0356 117.677 34.6345 116.622 32.5246C113.941 27.1614 109.112 26.8462 105.453 26.1806C102.44 24.5678 97.5777 21.1742 90.1841 22.8206C85.9877 23.7539 82.2977 26.2354 79.8506 29.7698C77.4035 33.3042 76.3793 37.6315 76.9825 41.8878C77.6093 38.6123 79.181 35.5918 81.5039 33.1987C83.8267 30.8057 86.799 29.1447 90.0545 28.4206V28.4206Z" fill="#A86C4D"/>
<path d="M117.537 39.3601C117.999 37.0471 117.678 34.646 116.623 32.5361C113.942 27.1729 109.113 26.8577 105.454 26.1921C102.441 24.5793 97.5785 21.1857 90.1849 22.8321C87.9785 23.3226 85.8914 24.2463 84.0446 25.5495C82.1978 26.8527 80.6281 28.5095 79.4265 30.4239C78.2248 32.3383 77.4151 34.4722 77.0443 36.7019C76.6736 38.9315 76.7491 41.2126 77.2665 43.4129L79.2137 51.2001C79.2143 50.7818 79.2978 50.3678 79.4593 49.982C79.6208 49.5962 79.8571 49.2462 80.1546 48.9522C80.4522 48.6583 80.805 48.4262 81.1927 48.2693C81.5805 48.1125 81.9954 48.034 82.4137 48.0385C82.838 48.0385 83.245 47.8699 83.545 47.5699C83.8451 47.2698 84.0137 46.8628 84.0137 46.4385V45.6001C84.0137 44.7345 84.5545 43.7873 85.4201 43.7505C91.0089 43.5105 100.508 39.3121 103.626 37.8673C103.926 37.7288 104.261 37.6872 104.585 37.7483C104.909 37.8094 105.206 37.9701 105.434 38.2081C107.745 40.2591 110.157 42.1922 112.662 44.0001C112.867 44.1476 113.035 44.3422 113.15 44.5677C113.265 44.7931 113.325 45.0429 113.324 45.2961V46.8801C113.324 47.3044 113.493 47.7114 113.793 48.0115C114.093 48.3115 114.5 48.4801 114.924 48.4801C115.945 48.4801 115.994 47.0769 116.108 46.5057L117.537 39.3601Z" stroke="#45413C" stroke-width="1.5" stroke-linecap="round" stroke-linejoin="round"/>
<path d="M93.6133 52.7999H88.8133C87.9646 52.7999 87.1507 52.4627 86.5505 51.8626C85.9504 51.2625 85.6133 50.4485 85.6133 49.5999V46.3999C85.6133 46.1877 85.6976 45.9842 85.8476 45.8342C85.9976 45.6841 86.2011 45.5999 86.4133 45.5999H96.0133C96.2255 45.5999 96.4289 45.6841 96.579 45.8342C96.729 45.9842 96.8133 46.1877 96.8133 46.3999V49.5999C96.8133 50.4485 96.4761 51.2625 95.876 51.8626C95.2759 52.4627 94.462 52.7999 93.6133 52.7999Z" fill="#00B8F0"/>
<path d="M87.4949 52.5151L94.3413 45.5999H86.4133C86.2011 45.5999 85.9976 45.6841 85.8476 45.8342C85.6976 45.9842 85.6133 46.1877 85.6133 46.3999V49.5999C85.6134 50.2153 85.791 50.8176 86.1247 51.3346C86.4584 51.8517 86.9341 52.2615 87.4949 52.5151V52.5151Z" fill="#4ACFFF"/>
<path d="M93.6133 52.7999H88.8133C87.9646 52.7999 87.1507 52.4627 86.5505 51.8626C85.9504 51.2625 85.6133 50.4485 85.6133 49.5999V46.3999C85.6133 46.1877 85.6976 45.9842 85.8476 45.8342C85.9976 45.6841 86.2011 45.5999 86.4133 45.5999H96.0133C96.2255 45.5999 96.4289 45.6841 96.579 45.8342C96.729 45.9842 96.8133 46.1877 96.8133 46.3999V49.5999C96.8133 50.4485 96.4761 51.2625 95.876 51.8626C95.2759 52.4627 94.462 52.7999 93.6133 52.7999Z" stroke="#45413C" stroke-width="1.5" stroke-linecap="round" stroke-linejoin="round"/>
<path d="M108.013 52.7999H103.213C102.364 52.7999 101.551 52.4627 100.95 51.8626C100.35 51.2625 100.013 50.4485 100.013 49.5999V46.3999C100.013 46.1877 100.097 45.9842 100.247 45.8342C100.398 45.6841 100.601 45.5999 100.813 45.5999H110.413C110.625 45.5999 110.829 45.6841 110.979 45.8342C111.129 45.9842 111.213 46.1877 111.213 46.3999V49.5999C111.213 50.4485 110.876 51.2625 110.276 51.8626C109.676 52.4627 108.862 52.7999 108.013 52.7999Z" fill="#00B8F0"/>
<path d="M101.895 52.5151L108.741 45.5999H100.813C100.601 45.5999 100.398 45.6841 100.247 45.8342C100.097 45.9842 100.013 46.1877 100.013 46.3999V49.5999C100.013 50.2153 100.191 50.8176 100.525 51.3346C100.858 51.8517 101.334 52.2615 101.895 52.5151Z" fill="#4ACFFF"/>
<path d="M108.013 52.7999H103.213C102.364 52.7999 101.551 52.4627 100.95 51.8626C100.35 51.2625 100.013 50.4485 100.013 49.5999V46.3999C100.013 46.1877 100.097 45.9842 100.247 45.8342C100.398 45.6841 100.601 45.5999 100.813 45.5999H110.413C110.625 45.5999 110.829 45.6841 110.979 45.8342C111.129 45.9842 111.213 46.1877 111.213 46.3999V49.5999C111.213 50.4485 110.876 51.2625 110.276 51.8626C109.676 52.4627 108.862 52.7999 108.013 52.7999Z" stroke="#45413C" stroke-width="1.5" stroke-linecap="round" stroke-linejoin="round"/>
<path d="M96.813 47.2004H100.013" stroke="#45413C" stroke-width="1.5" stroke-linecap="round" stroke-linejoin="round"/>
<path d="M103.213 58.8623C101.925 60.1055 100.204 60.8002 98.4133 60.8002C96.6227 60.8002 94.902 60.1055 93.6133 58.8623" stroke="#45413C" stroke-width="1.5" stroke-linecap="round" stroke-linejoin="round"/>
<path d="M94.4128 49.6002C94.2154 49.1264 93.8821 48.7216 93.455 48.4369C93.0279 48.1522 92.5261 48.0002 92.0128 48.0002C91.4995 48.0002 90.9977 48.1522 90.5706 48.4369C90.1435 48.7216 89.8102 49.1264 89.6128 49.6002" stroke="#45413C" stroke-width="1.5" stroke-linecap="round" stroke-linejoin="round"/>
<path d="M107.214 49.6002C107.016 49.1264 106.683 48.7216 106.256 48.4369C105.829 48.1522 105.327 48.0002 104.814 48.0002C104.3 48.0002 103.798 48.1522 103.371 48.4369C102.944 48.7216 102.611 49.1264 102.414 49.6002" stroke="#45413C" stroke-width="1.5" stroke-linecap="round" stroke-linejoin="round"/>
</svg>
