<svg width="160" height="160" viewBox="0 0 160 160" fill="none" xmlns="http://www.w3.org/2000/svg">
<path d="M148.449 81.7327C148.45 72.181 146.314 62.7501 142.195 54.1317C138.077 45.5133 132.082 37.926 124.65 31.9261C117.218 25.9263 108.537 21.6662 99.2439 19.4581C89.9509 17.2501 80.2815 17.1501 70.9448 19.1656C61.6081 21.1811 52.841 25.2609 45.2863 31.1058C37.7316 36.9507 31.5811 44.4125 27.2857 52.9439C22.9903 61.4753 20.659 70.86 20.4627 80.4098C20.2665 89.9595 22.2103 99.4321 26.1516 108.133H142.747C146.511 99.841 148.456 90.839 148.449 81.7327V81.7327Z" fill="#C7F0FF"/>
<path d="M26.1514 108.133C31.2277 119.339 39.4263 128.845 49.7655 135.512C60.1048 142.179 72.1465 145.724 84.449 145.724C96.7514 145.724 108.793 142.179 119.132 135.512C129.472 128.845 137.67 119.339 142.747 108.133H26.1514Z" fill="#DAEDF7"/>
<path d="M21.249 108.133H146.049" stroke="#45413C" stroke-width="1.5" stroke-linecap="round" stroke-linejoin="round"/>
<path d="M14.0498 108.133H18.0498" stroke="#45413C" stroke-width="1.5" stroke-linecap="round" stroke-linejoin="round"/>
<path d="M149.25 108.133H153.25" stroke="#45413C" stroke-width="1.5" stroke-linecap="round" stroke-linejoin="round"/>
<path opacity="0.15" d="M33.3838 149.266C33.3838 150.228 35.9328 151.151 40.4699 151.831C45.0071 152.512 51.1608 152.894 57.5774 152.894C63.9939 152.894 70.1477 152.512 74.6848 151.831C79.222 151.151 81.771 150.228 81.771 149.266C81.771 148.303 79.222 147.38 74.6848 146.7C70.1477 146.019 63.9939 145.637 57.5774 145.637C51.1608 145.637 45.0071 146.019 40.4699 146.7C35.9328 147.38 33.3838 148.303 33.3838 149.266V149.266Z" fill="#45413C"/>
<path d="M41.5903 103.296V145.394H53.2031L54.5279 114.907C54.591 114.147 54.9375 113.438 55.4987 112.922C56.0599 112.405 56.7948 112.118 57.5575 112.118C58.3203 112.118 59.0552 112.405 59.6164 112.922C60.1776 113.438 60.5241 114.147 60.5871 114.907L61.9199 145.394H73.5327V103.296H41.5903Z" fill="#8CA4B8"/>
<path d="M41.5903 103.296H73.5263V110.07H41.5903V103.296Z" fill="#627B8C"/>
<path d="M41.5903 103.296V145.394H53.2031L54.5279 114.907C54.591 114.147 54.9375 113.438 55.4987 112.922C56.0599 112.405 56.7948 112.118 57.5575 112.118C58.3203 112.118 59.0552 112.405 59.6164 112.922C60.1776 113.438 60.5241 114.147 60.5871 114.907L61.9199 145.394H73.5327V103.296H41.5903Z" stroke="#45413C" stroke-width="1.5" stroke-linecap="round" stroke-linejoin="round"/>
<path d="M29.0812 93.6909C27.0655 95.9219 24.2658 97.2879 21.2668 97.5037C20.6879 97.4926 20.1127 97.597 19.5747 97.8109C19.0367 98.0247 18.5467 98.3437 18.1334 98.7492C17.7201 99.1546 17.3918 99.6384 17.1677 100.172C16.9436 100.706 16.8281 101.279 16.8281 101.858C16.8281 102.437 16.9436 103.01 17.1677 103.544C17.3918 104.078 17.7201 104.562 18.1334 104.967C18.5467 105.373 19.0367 105.691 19.5747 105.905C20.1127 106.119 20.6879 106.224 21.2668 106.213C26.5727 105.997 31.5795 103.698 35.1996 99.8125L29.0812 93.6909Z" fill="#FFDA8F" stroke="#45413C" stroke-width="1.5" stroke-linecap="round" stroke-linejoin="round"/>
<path d="M57.5579 56.8433C51.0129 56.8437 44.7361 59.4439 40.1081 64.0719C35.4801 68.6999 32.8799 74.9767 32.8795 81.5217V84.4385C32.8785 87.9021 31.514 91.226 29.0811 93.6913L35.1995 99.8097C39.2631 95.7224 41.5582 90.202 41.5899 84.4385V103.296H73.5258V97.4897H82.2394V81.5217C82.2394 78.2806 81.601 75.0712 80.3606 72.0769C79.1202 69.0826 77.3021 66.3619 75.0102 64.0703C72.7182 61.7786 69.9973 59.9609 67.0029 58.7209C64.0084 57.4809 60.7989 56.8428 57.5579 56.8433V56.8433Z" fill="#FF866E"/>
<path d="M57.6376 66.0251C63.1432 66.0247 68.5037 67.7899 72.9319 71.0614C77.36 74.333 80.6222 78.9384 82.2392 84.2011V81.5211C82.2654 78.2637 81.6465 75.0333 80.4181 72.0163C79.1897 68.9992 77.3761 66.2552 75.082 63.9426C72.7878 61.6299 70.0585 59.7943 67.0515 58.5416C64.0444 57.289 60.8191 56.644 57.5616 56.644C54.3041 56.644 51.0788 57.289 48.0717 58.5416C45.0647 59.7943 42.3354 61.6299 40.0412 63.9426C37.7471 66.2552 35.9335 68.9992 34.7051 72.0163C33.4767 75.0333 32.8578 78.2637 32.884 81.5211V84.4379C32.884 84.5979 32.8648 84.7579 32.8584 84.9291C34.3501 79.5003 37.5821 74.711 42.0583 71.2961C46.5345 67.8812 52.0075 66.0295 57.6376 66.0251V66.0251Z" fill="#FFA694"/>
<path d="M57.5579 56.8433C51.0129 56.8437 44.7361 59.4439 40.1081 64.0719C35.4801 68.6999 32.8799 74.9767 32.8795 81.5217V84.4385C32.8785 87.9021 31.514 91.226 29.0811 93.6913L35.1995 99.8097C39.2631 95.7224 41.5582 90.202 41.5899 84.4385V103.296H73.5258V97.4897H82.2394V81.5217C82.2394 78.2806 81.601 75.0712 80.3606 72.0769C79.1202 69.0826 77.3021 66.3619 75.0102 64.0703C72.7182 61.7786 69.9973 59.9609 67.0029 58.7209C64.0084 57.4809 60.7989 56.8428 57.5579 56.8433V56.8433Z" stroke="#45413C" stroke-width="1.5" stroke-linecap="round" stroke-linejoin="round"/>
<path d="M39.7744 143.096C39.5333 143.46 39.3956 143.884 39.376 144.32C39.3563 144.757 39.4555 145.19 39.6628 145.575C39.8702 145.96 40.178 146.281 40.5536 146.505C40.9291 146.728 41.3582 146.846 41.7952 146.845H51.7024C52.1182 146.845 52.527 146.738 52.8895 146.534C53.2519 146.33 53.5556 146.037 53.7714 145.681C53.9873 145.326 54.1078 144.921 54.1215 144.505C54.1352 144.09 54.0416 143.678 53.8496 143.309C51.2 138.24 42.7888 138.523 39.7744 143.096Z" fill="#525252" stroke="#45413C" stroke-width="1.5" stroke-linecap="round" stroke-linejoin="round"/>
<path d="M75.3426 143.096C75.5831 143.461 75.7204 143.884 75.7398 144.32C75.7591 144.756 75.6599 145.19 75.4526 145.574C75.2454 145.959 74.9378 146.28 74.5626 146.504C74.1874 146.727 73.7586 146.845 73.3218 146.845H63.413C62.9972 146.845 62.5883 146.738 62.2258 146.534C61.8634 146.331 61.5596 146.037 61.3439 145.681C61.1282 145.326 61.0078 144.921 60.9944 144.505C60.981 144.089 61.075 143.677 61.2674 143.309C63.9106 138.24 72.3282 138.523 75.3426 143.096Z" fill="#525252" stroke="#45413C" stroke-width="1.5" stroke-linecap="round" stroke-linejoin="round"/>
<path d="M82.2396 110.56C82.2177 111.7 81.7493 112.787 80.9351 113.585C80.1209 114.384 79.0258 114.832 77.8852 114.832C76.7445 114.832 75.6495 114.384 74.8352 113.585C74.021 112.787 73.5526 111.7 73.5308 110.56V97.4895H82.2396V110.56Z" fill="#FFDA8F" stroke="#45413C" stroke-width="1.5" stroke-linecap="round" stroke-linejoin="round"/>
<path d="M41.5903 74.2637V84.4253" stroke="#45413C" stroke-width="1.5" stroke-linecap="round" stroke-linejoin="round"/>
<path d="M73.5259 74.2637V97.4893" stroke="#45413C" stroke-width="1.5" stroke-linecap="round" stroke-linejoin="round"/>
<path d="M64.7996 57.9202C64.4892 57.8263 64.1761 57.7372 63.8604 57.653C63.5185 57.5628 63.2161 57.3619 63.0004 57.0817C62.7848 56.8015 62.668 56.4578 62.6684 56.1042V50.7554H52.4284V56.1074C52.4281 56.4604 52.311 56.8034 52.0954 57.083C51.8798 57.3625 51.5778 57.563 51.2364 57.653C50.9164 57.7362 50.606 57.8258 50.2956 57.9202C50.2956 58.0466 50.2588 58.1666 50.2588 58.2946C50.2588 60.2279 51.0268 62.082 52.3939 63.4491C53.7609 64.8162 55.6151 65.5842 57.5484 65.5842C59.4817 65.5842 61.3358 64.8162 62.7029 63.4491C64.07 62.082 64.838 60.2279 64.838 58.2946C64.8348 58.165 64.7996 58.045 64.7996 57.9202Z" fill="#FFDA8F" stroke="#45413C" stroke-width="1.5" stroke-linecap="round" stroke-linejoin="round"/>
<path d="M78.3647 109.103V127.983C78.3669 129.136 78.8266 130.242 79.6432 131.057C80.4597 131.872 81.5663 132.33 82.7199 132.33" stroke="#45413C" stroke-width="1.5" stroke-linecap="round" stroke-linejoin="round"/>
<path d="M45.9473 124.137H48.3665" stroke="#45413C" stroke-width="1.5" stroke-linecap="round" stroke-linejoin="round"/>
<path d="M66.5122 124.137H68.9314" stroke="#45413C" stroke-width="1.5" stroke-linecap="round" stroke-linejoin="round"/>
<path d="M35.7836 123.619C35.7836 127.469 34.2542 131.162 31.5317 133.884C28.8093 136.607 25.1169 138.136 21.2668 138.136C17.4167 138.136 13.7243 136.607 11.0019 133.884C8.27944 131.162 6.75 127.469 6.75 123.619C6.75 115.602 13.2492 103.299 21.2668 103.299C29.2844 103.299 35.7836 115.602 35.7836 123.619Z" fill="#DEBB7E"/>
<path d="M21.2667 109.102C28.3211 109.102 34.1947 118.626 35.5067 126.382C35.6873 125.475 35.7805 124.551 35.7851 123.626C35.7851 115.608 29.2859 103.306 21.2683 103.306C13.2507 103.306 6.75146 115.611 6.75146 123.626C6.75604 124.551 6.84926 125.475 7.02987 126.382C8.33867 118.626 14.2123 109.102 21.2667 109.102Z" fill="#F0D5A8"/>
<path d="M21.2665 103.296L14.8665 95.0335C14.6353 94.7352 14.4917 94.3784 14.4518 94.003C14.4119 93.6277 14.4774 93.2487 14.6409 92.9085C14.8043 92.5682 15.0593 92.2803 15.3773 92.0768C15.6952 91.8734 16.0635 91.7625 16.4409 91.7567L25.7305 91.6111C26.1079 91.6051 26.4796 91.7043 26.8038 91.8976C27.1279 92.0909 27.3919 92.3707 27.566 92.7056C27.7401 93.0405 27.8175 93.4173 27.7894 93.7937C27.7614 94.1701 27.6291 94.5313 27.4073 94.8367L21.2665 103.296Z" fill="#DEBB7E" stroke="#45413C" stroke-width="1.5" stroke-linecap="round" stroke-linejoin="round"/>
<path d="M35.7836 123.619C35.7836 127.469 34.2542 131.162 31.5317 133.884C28.8093 136.607 25.1169 138.136 21.2668 138.136C17.4167 138.136 13.7243 136.607 11.0019 133.884C8.27944 131.162 6.75 127.469 6.75 123.619C6.75 115.602 13.2492 103.299 21.2668 103.299C29.2844 103.299 35.7836 115.602 35.7836 123.619Z" stroke="#45413C" stroke-width="1.5" stroke-linecap="round" stroke-linejoin="round"/>
<path d="M16.9111 126.523C16.9111 127.384 17.1666 128.226 17.6451 128.942C18.1237 129.659 18.8039 130.217 19.5997 130.547C20.3955 130.876 21.2712 130.962 22.116 130.794C22.9608 130.626 23.7368 130.212 24.3459 129.602C24.955 128.993 25.3698 128.217 25.5379 127.373C25.7059 126.528 25.6197 125.652 25.29 124.856C24.9604 124.06 24.4022 123.38 23.686 122.902C22.9697 122.423 22.1277 122.168 21.2663 122.168C20.405 122.168 19.5629 121.912 18.8467 121.434C18.1305 120.955 17.5723 120.275 17.2427 119.479C16.913 118.683 16.8268 117.808 16.9948 116.963C17.1629 116.118 17.5777 115.342 18.1867 114.733C18.7958 114.124 19.5719 113.709 20.4167 113.541C21.2615 113.373 22.1372 113.459 22.933 113.789C23.7288 114.118 24.409 114.677 24.8876 115.393C25.3661 116.109 25.6215 116.951 25.6215 117.812" stroke="#45413C" stroke-width="1.5" stroke-linecap="round" stroke-linejoin="round"/>
<path d="M21.2666 113.458V110.555" stroke="#45413C" stroke-width="1.5" stroke-linecap="round" stroke-linejoin="round"/>
<path d="M21.2666 130.877V133.781" stroke="#45413C" stroke-width="1.5" stroke-linecap="round" stroke-linejoin="round"/>
<path d="M21.3671 105.818C21.9871 105.803 22.5968 105.656 23.1553 105.386C23.7139 105.117 24.2084 104.731 24.6057 104.255C25.0031 103.779 25.2942 103.223 25.4594 102.625C25.6247 102.028 25.6603 101.401 25.5639 100.789C25.3516 99.7147 24.7598 98.7528 23.8966 98.0792C23.0335 97.4055 21.9567 97.065 20.8631 97.12L19.7431 97.1488C18.9843 97.1672 18.2628 97.4822 17.7334 98.0263C17.204 98.5703 16.9088 99.3001 16.9111 100.059V102.962C16.9125 103.348 16.991 103.73 17.142 104.086C17.2929 104.442 17.5134 104.764 17.7904 105.034C18.0673 105.303 18.3953 105.515 18.7551 105.656C19.1148 105.797 19.4992 105.865 19.8855 105.856L21.3671 105.818Z" fill="#FFDA8F" stroke="#45413C" stroke-width="1.5" stroke-linecap="round" stroke-linejoin="round"/>
<path d="M74.5134 39.8877C74.5076 39.1989 74.2635 38.5333 73.8224 38.0042C73.3814 37.4751 72.7707 37.115 72.0942 36.9853V35.0493C72.0942 31.1992 70.5648 27.5068 67.8424 24.7843C65.1199 22.0619 61.4275 20.5325 57.5774 20.5325C53.7273 20.5325 50.0349 22.0619 47.3125 24.7843C44.5901 27.5068 43.0606 31.1992 43.0606 35.0493V36.9853C42.3555 37.1177 41.7223 37.5016 41.2787 38.0655C40.8351 38.6294 40.6112 39.3352 40.6485 40.0517C40.6859 40.7682 40.9819 41.4469 41.4817 41.9617C41.9815 42.4764 42.6511 42.7924 43.3662 42.8509C44.0471 46.1163 45.8316 49.0476 48.4198 51.1518C51.008 53.256 54.2418 54.4047 57.5774 54.4047C60.913 54.4047 64.1469 53.256 66.7351 51.1518C69.3232 49.0476 71.1078 46.1163 71.7886 42.8509C72.5299 42.7841 73.2197 42.4435 73.7235 41.8957C74.2273 41.3478 74.5089 40.6319 74.5134 39.8877Z" fill="#FFDA8F" stroke="#45413C" stroke-width="1.5" stroke-linecap="round" stroke-linejoin="round"/>
<path d="M57.5778 26.5809C60.4149 26.5185 63.2228 27.164 65.7479 28.4591C68.2729 29.7542 70.4355 31.658 72.0402 33.9985C71.7764 30.3428 70.1381 26.9226 67.4547 24.4259C64.7714 21.9292 61.2422 20.5413 57.577 20.5413C53.9118 20.5413 50.3825 21.9292 47.6992 24.4259C45.0159 26.9226 43.3775 30.3428 43.1138 33.9985C44.7189 31.658 46.8818 29.7543 49.4071 28.4593C51.9324 27.1643 54.7405 26.5187 57.5778 26.5809V26.5809Z" fill="#FFE9BD"/>
<path d="M74.5134 39.8877C74.5076 39.1989 74.2635 38.5333 73.8224 38.0042C73.3814 37.4751 72.7707 37.115 72.0942 36.9853V35.0493C72.0942 31.1992 70.5648 27.5068 67.8424 24.7843C65.1199 22.0619 61.4275 20.5325 57.5774 20.5325C53.7273 20.5325 50.0349 22.0619 47.3125 24.7843C44.5901 27.5068 43.0606 31.1992 43.0606 35.0493V36.9853C42.3555 37.1177 41.7223 37.5016 41.2787 38.0655C40.8351 38.6294 40.6112 39.3352 40.6485 40.0517C40.6859 40.7682 40.9819 41.4469 41.4817 41.9617C41.9815 42.4764 42.6511 42.7924 43.3662 42.8509C44.0471 46.1163 45.8316 49.0476 48.4198 51.1518C51.008 53.256 54.2418 54.4047 57.5774 54.4047C60.913 54.4047 64.1469 53.256 66.7351 51.1518C69.3232 49.0476 71.1078 46.1163 71.7886 42.8509C72.5299 42.7841 73.2197 42.4435 73.7235 41.8957C74.2273 41.3478 74.5089 40.6319 74.5134 39.8877Z" stroke="#45413C" stroke-width="1.5" stroke-linecap="round" stroke-linejoin="round"/>
<path d="M47.8989 41.7023C47.8989 41.9406 47.9459 42.1765 48.037 42.3967C48.1282 42.6168 48.2619 42.8168 48.4303 42.9853C48.5988 43.1538 48.7989 43.2874 49.019 43.3786C49.2391 43.4698 49.4751 43.5167 49.7133 43.5167C49.9516 43.5167 50.1875 43.4698 50.4077 43.3786C50.6278 43.2874 50.8278 43.1538 50.9963 42.9853C51.1648 42.8168 51.2984 42.6168 51.3896 42.3967C51.4808 42.1765 51.5277 41.9406 51.5277 41.7023C51.5277 41.4641 51.4808 41.2281 51.3896 41.008C51.2984 40.7879 51.1648 40.5878 50.9963 40.4194C50.8278 40.2509 50.6278 40.1172 50.4077 40.0261C50.1875 39.9349 49.9516 39.8879 49.7133 39.8879C49.4751 39.8879 49.2391 39.9349 49.019 40.0261C48.7989 40.1172 48.5988 40.2509 48.4303 40.4194C48.2619 40.5878 48.1282 40.7879 48.037 41.008C47.9459 41.2281 47.8989 41.4641 47.8989 41.7023V41.7023Z" fill="#FFBE3D"/>
<path d="M63.625 41.7023C63.625 42.1835 63.8162 42.645 64.1564 42.9853C64.4967 43.3256 64.9582 43.5167 65.4394 43.5167C65.9206 43.5167 66.3821 43.3256 66.7224 42.9853C67.0626 42.645 67.2538 42.1835 67.2538 41.7023C67.2538 41.2211 67.0626 40.7596 66.7224 40.4194C66.3821 40.0791 65.9206 39.8879 65.4394 39.8879C64.9582 39.8879 64.4967 40.0791 64.1564 40.4194C63.8162 40.7596 63.625 41.2211 63.625 41.7023Z" fill="#FFBE3D"/>
<path d="M53.9487 46.0476C55.0235 46.7636 56.2861 47.1456 57.5775 47.1456C58.869 47.1456 60.1315 46.7636 61.2063 46.0476" stroke="#45413C" stroke-width="1.5" stroke-linecap="round" stroke-linejoin="round"/>
<path d="M58.9048 29.0015H56.2488C55.628 29.0014 55.031 28.7627 54.5813 28.3347C54.1316 27.9068 53.8636 27.3223 53.8328 26.7023L52.8648 9.64627C52.8485 9.31882 52.899 8.99148 53.013 8.6841C53.1271 8.37673 53.3024 8.09572 53.5283 7.85813C53.7542 7.62054 54.0261 7.43132 54.3273 7.30194C54.6286 7.17256 54.9529 7.10572 55.2808 7.10547H59.8728C60.2006 7.10572 60.525 7.17256 60.8263 7.30194C61.1275 7.43132 61.3994 7.62054 61.6253 7.85813C61.8512 8.09572 62.0265 8.37673 62.1406 8.6841C62.2546 8.99148 62.305 9.31882 62.2888 9.64627L61.3288 26.7023C61.2979 27.3237 61.0288 27.9093 60.5774 28.3375C60.126 28.7657 59.527 29.0035 58.9048 29.0015V29.0015Z" fill="#614B44"/>
<path d="M55.2808 13.1535H59.8712C60.3201 13.1582 60.7587 13.2888 61.1371 13.5303C61.5156 13.7718 61.8187 14.1147 62.012 14.5199L62.2872 9.64627C62.3039 9.31871 62.2538 8.99117 62.1399 8.68359C62.026 8.37601 61.8507 8.09482 61.6247 7.85714C61.3987 7.61945 61.1267 7.43024 60.8252 7.30102C60.5238 7.17179 60.1992 7.10526 59.8712 7.10547H55.2808C54.9529 7.10572 54.6286 7.17256 54.3273 7.30194C54.0261 7.43132 53.7542 7.62054 53.5283 7.85813C53.3024 8.09572 53.1271 8.37673 53.013 8.6841C52.899 8.99148 52.8485 9.31882 52.8648 9.64627L53.1416 14.5199C53.3348 14.1149 53.6376 13.7722 54.0158 13.5307C54.3939 13.2892 54.8321 13.1585 55.2808 13.1535V13.1535Z" fill="#947063"/>
<path d="M53.0718 13.2749H62.083Z" fill="#FF8A14"/>
<path d="M53.0718 13.2749H62.083" stroke="#45413C" stroke-width="1.5"/>
<path d="M58.9048 29.0015H56.2488C55.628 29.0014 55.031 28.7627 54.5813 28.3347C54.1316 27.9068 53.8636 27.3223 53.8328 26.7023L52.8648 9.64627C52.8485 9.31882 52.899 8.99148 53.013 8.6841C53.1271 8.37673 53.3024 8.09572 53.5283 7.85813C53.7542 7.62054 54.0261 7.43132 54.3273 7.30194C54.6286 7.17256 54.9529 7.10572 55.2808 7.10547H59.8728C60.2006 7.10572 60.525 7.17256 60.8263 7.30194C61.1275 7.43132 61.3994 7.62054 61.6253 7.85813C61.8512 8.09572 62.0265 8.37673 62.1406 8.6841C62.2546 8.99148 62.305 9.31882 62.2888 9.64627L61.3288 26.7023C61.2979 27.3237 61.0288 27.9093 60.5774 28.3375C60.126 28.7657 59.527 29.0035 58.9048 29.0015V29.0015Z" stroke="#45413C" stroke-width="1.5"/>
<path d="M58.9048 29.0015H56.2488C55.628 29.0014 55.031 28.7627 54.5813 28.3347C54.1316 27.9068 53.8636 27.3223 53.8328 26.7023L52.8648 9.64627C52.8485 9.31882 52.899 8.99148 53.013 8.6841C53.1271 8.37673 53.3024 8.09572 53.5283 7.85813C53.7542 7.62054 54.0261 7.43132 54.3273 7.30194C54.6286 7.17256 54.9529 7.10572 55.2808 7.10547H59.8728C60.2006 7.10572 60.525 7.17256 60.8263 7.30194C61.1275 7.43132 61.3994 7.62054 61.6253 7.85813C61.8512 8.09572 62.0265 8.37673 62.1406 8.6841C62.2546 8.99148 62.305 9.31882 62.2888 9.64627L61.3288 26.7023C61.2979 27.3237 61.0288 27.9093 60.5774 28.3375C60.126 28.7657 59.527 29.0035 58.9048 29.0015V29.0015Z" stroke="#45413C" stroke-width="1.5"/>
<path d="M58.9048 29.0015H56.2488C55.628 29.0014 55.031 28.7627 54.5813 28.3347C54.1316 27.9068 53.8636 27.3223 53.8328 26.7023L52.8648 9.64627C52.8485 9.31882 52.899 8.99148 53.013 8.6841C53.1271 8.37673 53.3024 8.09572 53.5283 7.85813C53.7542 7.62054 54.0261 7.43132 54.3273 7.30194C54.6286 7.17256 54.9529 7.10572 55.2808 7.10547H59.8728C60.2006 7.10572 60.525 7.17256 60.8263 7.30194C61.1275 7.43132 61.3994 7.62054 61.6253 7.85813C61.8512 8.09572 62.0265 8.37673 62.1406 8.6841C62.2546 8.99148 62.305 9.31882 62.2888 9.64627L61.3288 26.7023C61.2979 27.3237 61.0288 27.9093 60.5774 28.3375C60.126 28.7657 59.527 29.0035 58.9048 29.0015V29.0015Z" stroke="#45413C" stroke-width="1.5"/>
<path d="M50.2671 37.3009C50.6535 36.9151 51.1771 36.6985 51.7231 36.6985C52.2691 36.6985 52.7927 36.9151 53.1791 37.3009" stroke="#45413C" stroke-width="1.5" stroke-linecap="round" stroke-linejoin="round"/>
<path d="M61.9194 37.3007C62.3055 36.9151 62.8289 36.6985 63.3746 36.6985C63.9203 36.6985 64.4437 36.9151 64.8298 37.3007" stroke="#45413C" stroke-width="1.5" stroke-linecap="round" stroke-linejoin="round"/>
<path d="M71.6331 43.3969C71.3282 44.6867 70.8394 45.9261 70.1819 47.0769C68.9156 49.3034 67.0822 51.1547 64.8682 52.4425C62.6542 53.7304 60.1385 54.4089 57.5771 54.4089C55.0158 54.4089 52.5001 53.7304 50.2861 52.4425C48.072 51.1547 46.2386 49.3034 44.9723 47.0769C44.3143 45.9261 43.825 44.6868 43.5195 43.3969H45.0651C46.835 43.3579 48.5595 42.8295 50.0475 41.8705C52.3183 40.4952 54.9224 39.7681 57.5771 39.7681C60.2319 39.7681 62.836 40.4952 65.1067 41.8705C66.5947 42.8297 68.3192 43.358 70.0891 43.3969H71.6331Z" fill="#FF866E" stroke="#45413C" stroke-width="1.5" stroke-linecap="round" stroke-linejoin="round"/>
<path d="M100.318 75.5583H141.38V114.454H100.318V75.5583Z" fill="#87898C"/>
<path d="M139.435 75.5583H102.262C101.746 75.5588 101.252 75.7638 100.888 76.1283C100.524 76.4928 100.319 76.987 100.319 77.5024V82.3648C100.319 81.8492 100.524 81.3547 100.889 80.9901C101.253 80.6256 101.748 80.4208 102.263 80.4208H139.435C139.95 80.4208 140.445 80.6256 140.809 80.9901C141.174 81.3547 141.379 81.8492 141.379 82.3648V77.5024C141.379 76.9868 141.174 76.4923 140.809 76.1277C140.445 75.7632 139.95 75.5583 139.435 75.5583Z" fill="#BDBEC0"/>
<path d="M135.545 108.619H107.751C107.327 108.619 106.92 108.45 106.62 108.15C106.32 107.85 106.151 107.443 106.151 107.019V82.9918C106.151 82.5675 106.32 82.1605 106.62 81.8605C106.92 81.5604 107.327 81.3918 107.751 81.3918H135.545V108.619Z" fill="#525252" stroke="#45413C" stroke-width="1.5" stroke-linecap="round" stroke-linejoin="round"/>
<path d="M100.318 75.5583H141.38V114.454H100.318V75.5583Z" stroke="#45413C" stroke-width="1.5" stroke-linecap="round" stroke-linejoin="round"/>
<path d="M106.151 107.019C106.151 107.443 106.32 107.85 106.62 108.15C106.92 108.45 107.327 108.619 107.751 108.619H110.041C110.301 108.626 110.56 108.582 110.802 108.487C111.045 108.393 111.266 108.251 111.453 108.069C111.639 107.888 111.788 107.671 111.889 107.432C111.99 107.192 112.042 106.934 112.042 106.674C112.042 106.414 111.99 106.156 111.889 105.917C111.788 105.677 111.639 105.46 111.453 105.279C111.266 105.097 111.045 104.955 110.802 104.861C110.56 104.767 110.301 104.722 110.041 104.729H106.151V107.019Z" fill="#EBCB00" stroke="#45413C" stroke-width="1.5" stroke-linecap="round" stroke-linejoin="round"/>
<path d="M133.6 108.619C133.86 108.626 134.119 108.582 134.362 108.487C134.604 108.393 134.825 108.251 135.012 108.069C135.198 107.888 135.347 107.671 135.448 107.432C135.549 107.192 135.602 106.934 135.602 106.674C135.602 106.414 135.549 106.156 135.448 105.917C135.347 105.677 135.198 105.46 135.012 105.279C134.825 105.097 134.604 104.955 134.362 104.861C134.119 104.767 133.86 104.722 133.6 104.729H127.767C127.506 104.722 127.247 104.767 127.005 104.861C126.763 104.955 126.541 105.097 126.355 105.279C126.168 105.46 126.02 105.677 125.919 105.917C125.817 106.156 125.765 106.414 125.765 106.674C125.765 106.934 125.817 107.192 125.919 107.432C126.02 107.671 126.168 107.888 126.355 108.069C126.541 108.251 126.763 108.393 127.005 108.487C127.247 108.582 127.506 108.626 127.767 108.619H133.6Z" fill="#EBCB00" stroke="#45413C" stroke-width="1.5" stroke-linecap="round" stroke-linejoin="round"/>
<path d="M123.876 108.619C124.383 108.604 124.863 108.393 125.216 108.03C125.569 107.667 125.766 107.18 125.766 106.674C125.766 106.168 125.569 105.681 125.216 105.318C124.863 104.955 124.383 104.744 123.876 104.729H118.041C117.535 104.744 117.055 104.955 116.702 105.318C116.349 105.681 116.151 106.168 116.151 106.674C116.151 107.18 116.349 107.667 116.702 108.03C117.055 108.393 117.535 108.604 118.041 108.619H123.876Z" fill="#EBCB00" stroke="#45413C" stroke-width="1.5" stroke-linecap="round" stroke-linejoin="round"/>
<path d="M126.793 104.729C127.299 104.715 127.779 104.504 128.132 104.141C128.485 103.777 128.683 103.291 128.683 102.785C128.683 102.278 128.485 101.792 128.132 101.429C127.779 101.066 127.299 100.854 126.793 100.84H120.959C120.453 100.854 119.972 101.066 119.62 101.429C119.267 101.792 119.069 102.278 119.069 102.785C119.069 103.291 119.267 103.777 119.62 104.141C119.972 104.504 120.453 104.715 120.959 104.729H126.793Z" fill="#EBCB00" stroke="#45413C" stroke-width="1.5" stroke-linecap="round" stroke-linejoin="round"/>
<path d="M131.656 100.84C132.162 100.825 132.642 100.614 132.995 100.251C133.348 99.8877 133.545 99.4013 133.545 98.895C133.545 98.3886 133.348 97.9022 132.995 97.5391C132.642 97.176 132.162 96.9647 131.656 96.9502H125.82C125.314 96.9647 124.834 97.176 124.481 97.5391C124.128 97.9022 123.931 98.3886 123.931 98.895C123.931 99.4013 124.128 99.8877 124.481 100.251C124.834 100.614 125.314 100.825 125.82 100.84H131.656Z" fill="#EBCB00" stroke="#45413C" stroke-width="1.5" stroke-linecap="round" stroke-linejoin="round"/>
<path d="M117.838 103.464C118.322 103.313 118.727 102.978 118.969 102.532C119.21 102.086 119.268 101.564 119.129 101.076C118.991 100.588 118.668 100.173 118.228 99.9204C117.789 99.6674 117.268 99.5959 116.777 99.7213L111.164 101.313C110.912 101.377 110.676 101.491 110.469 101.649C110.262 101.806 110.088 102.003 109.959 102.228C109.829 102.453 109.746 102.702 109.714 102.96C109.682 103.217 109.702 103.479 109.773 103.729C109.844 103.979 109.964 104.212 110.127 104.415C110.289 104.618 110.49 104.786 110.719 104.91C110.947 105.033 111.198 105.11 111.457 105.135C111.716 105.16 111.977 105.133 112.225 105.056L117.838 103.464Z" fill="#EBCB00" stroke="#45413C" stroke-width="1.5" stroke-linecap="round" stroke-linejoin="round"/>
<path d="M135.545 100.84H130.683C130.423 100.832 130.164 100.877 129.922 100.972C129.679 101.066 129.458 101.208 129.271 101.389C129.085 101.571 128.936 101.788 128.835 102.027C128.734 102.267 128.682 102.525 128.682 102.785C128.682 103.045 128.734 103.302 128.835 103.542C128.936 103.782 129.085 103.999 129.271 104.18C129.458 104.361 129.679 104.503 129.922 104.598C130.164 104.692 130.423 104.737 130.683 104.73H135.545V100.84Z" fill="#EBCB00" stroke="#45413C" stroke-width="1.5" stroke-linecap="round" stroke-linejoin="round"/>
<path d="M139.435 110.56H137.145C136.721 110.56 136.314 110.391 136.014 110.091C135.714 109.791 135.545 109.384 135.545 108.96V81.0478C135.545 80.6234 135.714 80.2164 136.014 79.9164C136.314 79.6163 136.721 79.4478 137.145 79.4478H139.435V110.56Z" fill="#87898C"/>
<path d="M137.489 79.4478C136.974 79.4478 136.479 79.6526 136.115 80.0171C135.75 80.3817 135.545 80.8762 135.545 81.3918V86.2542C135.545 85.7386 135.75 85.2441 136.115 84.8795C136.479 84.515 136.974 84.3102 137.489 84.3102H139.435V79.4478H137.489Z" fill="#BDBEC0"/>
<path d="M139.436 77.5024H145.271V112.509H139.436V77.5024Z" fill="#87898C"/>
<path d="M145.269 82.3648H139.436V79.1024C139.436 78.6781 139.604 78.2711 139.904 77.9711C140.204 77.671 140.611 77.5024 141.036 77.5024H143.669C144.093 77.5024 144.5 77.671 144.801 77.9711C145.101 78.2711 145.269 78.6781 145.269 79.1024V82.3648Z" fill="#BDBEC0"/>
<path d="M147.558 98.8959H145.269V91.1167H147.558C147.983 91.1167 148.389 91.2853 148.69 91.5853C148.99 91.8854 149.158 92.2924 149.158 92.7167V97.2959C149.158 97.7202 148.99 98.1272 148.69 98.4273C148.389 98.7273 147.983 98.8959 147.558 98.8959Z" fill="#656769" stroke="#45413C" stroke-width="1.5" stroke-linecap="round" stroke-linejoin="round"/>
<path d="M139.436 77.5024H145.271V112.509H139.436V77.5024Z" stroke="#45413C" stroke-width="1.5" stroke-linecap="round" stroke-linejoin="round"/>
<path d="M139.435 110.56H137.145C136.721 110.56 136.314 110.391 136.014 110.091C135.714 109.791 135.545 109.384 135.545 108.96V81.0478C135.545 80.6234 135.714 80.2164 136.014 79.9164C136.314 79.6163 136.721 79.4478 137.145 79.4478H139.435V110.56Z" stroke="#45413C" stroke-width="1.5" stroke-linecap="round" stroke-linejoin="round"/>
<path d="M104.682 112.454C104.638 112.264 104.548 112.087 104.419 111.94C104.29 111.793 104.127 111.68 103.944 111.612C103.761 111.543 103.564 111.521 103.37 111.547C103.176 111.574 102.992 111.648 102.834 111.763C100.898 113.078 98.5995 113.755 96.2597 113.699C96.0763 113.687 95.8928 113.718 95.7236 113.79C95.5544 113.862 95.4042 113.972 95.2849 114.111C95.1657 114.251 95.0806 114.417 95.0365 114.595C94.9924 114.773 94.9905 114.96 95.0309 115.139L95.5701 117.539C95.6289 117.799 95.7741 118.032 95.9821 118.2C96.1901 118.368 96.4486 118.46 96.7157 118.462C99.2559 118.417 101.755 117.816 104.039 116.702C104.451 116.491 104.782 116.149 104.977 115.729C105.173 115.309 105.223 114.835 105.119 114.384L104.682 112.454Z" fill="#6DD627" stroke="#45413C" stroke-width="1.5" stroke-linecap="round" stroke-linejoin="round"/>
<path d="M132.534 119.635C132.566 119.442 132.645 119.26 132.764 119.105C132.883 118.95 133.039 118.827 133.217 118.747C133.395 118.667 133.59 118.632 133.785 118.646C133.98 118.659 134.169 118.721 134.334 118.825C136.349 120.016 138.686 120.545 141.017 120.337C141.2 120.314 141.385 120.334 141.558 120.395C141.732 120.456 141.889 120.556 142.017 120.688C142.145 120.82 142.241 120.98 142.296 121.155C142.352 121.33 142.366 121.516 142.337 121.697L141.952 124.126C141.91 124.39 141.781 124.632 141.584 124.812C141.387 124.993 141.135 125.101 140.869 125.12C138.33 125.237 135.796 124.797 133.446 123.83C133.021 123.647 132.669 123.328 132.445 122.922C132.222 122.516 132.141 122.047 132.214 121.59L132.534 119.635Z" fill="#6DD627" stroke="#45413C" stroke-width="1.5" stroke-linecap="round" stroke-linejoin="round"/>
</svg>
