<svg width="100" height="100" viewBox="0 0 100 100" fill="none" xmlns="http://www.w3.org/2000/svg">
<path d="M48.4959 93.6075C70.3001 93.6075 87.9759 75.9317 87.9759 54.1275C87.9759 32.3232 70.3001 14.6475 48.4959 14.6475C26.6916 14.6475 9.01587 32.3232 9.01587 54.1275C9.01587 75.9317 26.6916 93.6075 48.4959 93.6075Z" fill="#B8ECFF"/>
<path d="M76.6391 24.2687C80.505 24.2687 83.6389 21.1348 83.6389 17.2689C83.6389 13.403 80.505 10.269 76.6391 10.269C72.7732 10.269 69.6393 13.403 69.6393 17.2689C69.6393 21.1348 72.7732 24.2687 76.6391 24.2687Z" fill="#B8ECFF" stroke="#009FD9" stroke-width="1.3" stroke-linecap="round" stroke-linejoin="round"/>
<path d="M76.6392 7.46996V5.36963" stroke="#009FD9" stroke-width="1.3" stroke-linecap="round" stroke-linejoin="round"/>
<path d="M83.5679 10.3404L85.0533 8.85498" stroke="#009FD9" stroke-width="1.3" stroke-linecap="round" stroke-linejoin="round"/>
<path d="M86.4381 17.269H88.5385" stroke="#009FD9" stroke-width="1.3" stroke-linecap="round" stroke-linejoin="round"/>
<path d="M83.5679 24.1987L85.0533 25.6832" stroke="#009FD9" stroke-width="1.3" stroke-linecap="round" stroke-linejoin="round"/>
<path d="M76.6392 27.0688V29.1682" stroke="#009FD9" stroke-width="1.3" stroke-linecap="round" stroke-linejoin="round"/>
<path d="M69.7094 24.1987L68.225 25.6832" stroke="#009FD9" stroke-width="1.3" stroke-linecap="round" stroke-linejoin="round"/>
<path d="M66.8392 17.269H64.7399" stroke="#009FD9" stroke-width="1.3" stroke-linecap="round" stroke-linejoin="round"/>
<path d="M69.7094 10.3404L68.225 8.85498" stroke="#009FD9" stroke-width="1.3" stroke-linecap="round" stroke-linejoin="round"/>
<path d="M77.032 23.1883C76.6263 23.1905 76.2246 23.2686 75.8476 23.4183C75.6446 22.128 74.9874 20.9526 73.9946 20.1038C73.0019 19.2549 71.7386 18.7886 70.4324 18.7886C69.1262 18.7886 67.863 19.2549 66.8702 20.1038C65.8773 20.9526 65.2203 22.128 65.0173 23.4183C64.6402 23.2686 64.2385 23.1905 63.8329 23.1883C62.967 23.2033 62.1416 23.5578 61.5346 24.1753C60.9275 24.793 60.5874 25.6243 60.5874 26.4903C60.5874 27.3563 60.9275 28.1877 61.5346 28.8052C62.1416 29.4229 62.967 29.7773 63.8329 29.7923H77.032C77.8978 29.7773 78.7231 29.4229 79.3302 28.8052C79.9372 28.1877 80.2774 27.3563 80.2774 26.4903C80.2774 25.6243 79.9372 24.793 79.3302 24.1753C78.7231 23.5578 77.8978 23.2033 77.032 23.1883Z" fill="white" stroke="#009FD9" stroke-width="1.3" stroke-linecap="round" stroke-linejoin="round"/>
<path d="M77.032 23.1883C76.6263 23.1905 76.2246 23.2686 75.8476 23.4183C75.6446 22.128 74.9874 20.9526 73.9946 20.1038C73.0019 19.2549 71.7386 18.7886 70.4324 18.7886C69.1262 18.7886 67.863 19.2549 66.8702 20.1038C65.8773 20.9526 65.2203 22.128 65.0173 23.4183C64.6402 23.2686 64.2385 23.1905 63.8329 23.1883C62.967 23.2033 62.1416 23.5578 61.5346 24.1753C60.9275 24.793 60.5874 25.6243 60.5874 26.4903C60.5874 27.3563 60.9275 28.1877 61.5346 28.8052C62.1416 29.4229 62.967 29.7773 63.8329 29.7923H77.032C77.8978 29.7773 78.7231 29.4229 79.3302 28.8052C79.9372 28.1877 80.2774 27.3563 80.2774 26.4903C80.2774 25.6243 79.9372 24.793 79.3302 24.1753C78.7231 23.5578 77.8978 23.2033 77.032 23.1883Z" fill="#E5F8FF" stroke="#009FD9" stroke-width="1.3" stroke-linecap="round" stroke-linejoin="round"/>
<path d="M20.8501 69.5911H92.5941C92.5941 69.5911 78.4968 60.2235 69.7204 51.4688L64.9039 56.2854C64.6369 56.5521 64.2749 56.7021 63.8976 56.7021C63.5202 56.7021 63.1582 56.5521 62.8914 56.2854L57.7303 51.1243C57.4633 50.8574 57.1011 50.7075 56.7236 50.7075C56.346 50.7075 55.9839 50.8574 55.7169 51.1243L50.5548 56.2863C50.2879 56.5531 49.9259 56.703 49.5486 56.703C49.1712 56.703 48.8092 56.5531 48.5424 56.2863L43.7218 51.4718C34.9435 60.2264 20.8501 69.5911 20.8501 69.5911Z" fill="#4ACFFF" stroke="#009FD9" stroke-width="1.3" stroke-linecap="round" stroke-linejoin="round"/>
<path d="M57.7303 51.1244L62.8923 56.2854C63.1592 56.5522 63.5211 56.7021 63.8985 56.7021C64.2759 56.7021 64.6379 56.5522 64.9048 56.2854L69.7213 51.4688C66.6054 48.3597 64.1586 45.3277 63.2525 42.8197C63.07 42.2675 62.7206 41.7855 62.2524 41.4404C61.7843 41.0952 61.2205 40.904 60.639 40.8931H52.8101C52.2287 40.9044 51.6652 41.0958 51.1973 41.4409C50.7294 41.7859 50.38 42.2677 50.1975 42.8197C49.2914 45.3286 46.8417 48.3618 43.7247 51.4718L48.5452 56.2863C48.8121 56.5532 49.1741 56.7031 49.5515 56.7031C49.9289 56.7031 50.2908 56.5532 50.5577 56.2863L55.7197 51.1244C55.9865 50.8581 56.3481 50.7086 56.725 50.7086C57.1019 50.7086 57.4635 50.8581 57.7303 51.1244Z" fill="#B8ECFF" stroke="#009FD9" stroke-width="1.3" stroke-linecap="round" stroke-linejoin="round"/>
<path d="M69.7194 51.4688C66.6034 48.3597 64.1567 45.3277 63.2506 42.8197C63.0681 42.2675 62.7187 41.7855 62.2505 41.4404C61.7823 41.0952 61.2186 40.904 60.637 40.8931H52.8081C52.2272 40.9049 51.6642 41.0966 51.1967 41.4415C50.7291 41.7866 50.38 42.2681 50.1975 42.8197C49.2914 45.3286 46.8417 48.3618 43.7248 51.4718C34.9484 60.2265 20.854 69.5911 20.854 69.5911H92.5941C92.5941 69.5911 78.4978 60.2235 69.7194 51.4688Z" stroke="#009FD9" stroke-width="1.3" stroke-linecap="round" stroke-linejoin="round"/>
<path d="M43.7208 51.4718L48.5413 56.2863C48.8082 56.5531 49.1702 56.703 49.5476 56.703C49.9249 56.703 50.2868 56.5531 50.5538 56.2863L55.7158 51.1243C55.9828 50.8574 56.3449 50.7075 56.7226 50.7075C57.1001 50.7075 57.4622 50.8574 57.7293 51.1243L62.8903 56.2854C63.1572 56.5521 63.5192 56.7021 63.8966 56.7021C64.2739 56.7021 64.6359 56.5521 64.9028 56.2854L69.7194 51.4688" stroke="#009FD9" stroke-width="1.3" stroke-linecap="round" stroke-linejoin="round"/>
<path d="M94.8631 70.7821C94.4384 70.6713 94.0013 70.6152 93.5623 70.6153C93.5267 70.6153 93.4952 70.6252 93.4636 70.6262C93.2623 69.1689 92.6155 67.8094 91.6119 66.7337C90.6082 65.6581 89.2966 64.9189 87.8566 64.6174C86.4167 64.3158 84.9188 64.4666 83.5678 65.0491C82.2169 65.6317 81.079 66.6174 80.3098 67.8715C79.0984 66.9907 77.6391 66.5162 76.1412 66.5162C74.6435 66.5162 73.1841 66.9907 71.9726 67.8715C71.3351 66.8311 70.4414 65.9717 69.3768 65.3754C68.3121 64.7792 67.1124 64.4661 65.8922 64.4661C64.6721 64.4661 63.4723 64.7792 62.4077 65.3754C61.3431 65.9717 60.4493 66.8311 59.8118 67.8715C58.6004 66.9907 57.1411 66.5162 55.6432 66.5162C54.1454 66.5162 52.6861 66.9907 51.4746 67.8715C50.8371 66.8311 49.9434 65.9717 48.8788 65.3754C47.8141 64.7792 46.6144 64.4661 45.3942 64.4661C44.1741 64.4661 42.9743 64.7792 41.9097 65.3754C40.8451 65.9717 39.9513 66.8311 39.3138 67.8715C38.1023 66.9907 36.6431 66.5162 35.1452 66.5162C33.6474 66.5162 32.188 66.9907 30.9766 67.8715C30.2072 66.6178 29.0691 65.6323 27.7182 65.0502C26.3673 64.4681 24.8694 64.3176 23.4297 64.6193C21.99 64.921 20.6786 65.6603 19.6752 66.7359C18.6717 67.8115 18.0251 69.1709 17.8238 70.6281C17.7883 70.6281 17.7567 70.6173 17.7251 70.6173C17.0528 70.6164 16.3869 70.7484 15.7656 71.0055C15.1443 71.2626 14.58 71.6398 14.1048 72.1155C13.0924 71.2572 11.808 70.7861 10.4806 70.7861C9.30861 70.7874 8.16578 71.1515 7.20901 71.8284C6.25224 72.5052 5.52844 73.4616 5.13696 74.5663C10.745 81.1639 17.7838 86.3956 25.718 89.8636C33.6521 93.3316 42.2726 94.9445 50.9239 94.5796C59.5752 94.2148 68.0294 91.8817 75.6433 87.758C83.2573 83.6342 89.8305 77.8285 94.8631 70.7821Z" fill="#B8ECFF"/>
<path d="M93.5623 70.6153C93.5267 70.6153 93.4952 70.6252 93.4636 70.6262C93.2623 69.1689 92.6155 67.8094 91.6119 66.7337C90.6082 65.6581 89.2966 64.9189 87.8566 64.6174C86.4167 64.3158 84.9188 64.4666 83.5678 65.0491C82.2169 65.6317 81.079 66.6174 80.3098 67.8715C79.0984 66.9907 77.6391 66.5162 76.1412 66.5162C74.6435 66.5162 73.1841 66.9907 71.9726 67.8715C71.3351 66.8311 70.4414 65.9717 69.3768 65.3754C68.3121 64.7792 67.1124 64.4661 65.8922 64.4661C64.6721 64.4661 63.4723 64.7792 62.4077 65.3754C61.3431 65.9717 60.4493 66.8311 59.8118 67.8715C58.6004 66.9907 57.1411 66.5162 55.6432 66.5162C54.1454 66.5162 52.6861 66.9907 51.4746 67.8715C50.8371 66.8311 49.9434 65.9717 48.8788 65.3754C47.8141 64.7792 46.6144 64.4661 45.3942 64.4661C44.1741 64.4661 42.9743 64.7792 41.9097 65.3754C40.8451 65.9717 39.9513 66.8311 39.3138 67.8715C38.1023 66.9907 36.6431 66.5162 35.1452 66.5162C33.6474 66.5162 32.188 66.9907 30.9766 67.8715C30.2072 66.6178 29.0691 65.6323 27.7182 65.0502C26.3673 64.4681 24.8694 64.3176 23.4297 64.6193C21.99 64.921 20.6786 65.6603 19.6752 66.7359C18.6717 67.8115 18.0251 69.1709 17.8238 70.6281C17.7883 70.6281 17.7567 70.6173 17.7251 70.6173C17.0528 70.6164 16.3869 70.7484 15.7656 71.0055C15.1443 71.2626 14.58 71.6398 14.1048 72.1155C13.0924 71.2572 11.808 70.7861 10.4806 70.7861C9.30861 70.7874 8.16578 71.1515 7.20901 71.8284C6.25224 72.5052 5.52844 73.4616 5.13696 74.5663C5.514 75.0098 5.89794 75.4474 6.28879 75.879C6.81665 75.2272 7.48359 74.7015 8.24081 74.3406C8.99803 73.9798 9.82635 73.7929 10.6651 73.7935C11.738 73.7929 12.788 74.1039 13.6873 74.6887C13.8593 74.7959 14.0596 74.8484 14.2621 74.839C14.4644 74.8296 14.6591 74.7589 14.8204 74.6364C15.5236 74.1085 16.3537 73.7756 17.2267 73.6711C17.4343 73.6464 17.6296 73.5603 17.7879 73.4238C17.9461 73.2874 18.06 73.1068 18.115 72.9052C18.4344 71.6036 19.1155 70.419 20.0798 69.4882C21.044 68.5574 22.252 67.9184 23.564 67.6452C24.8761 67.3719 26.2386 67.4756 27.4943 67.944C28.7499 68.4125 29.8474 69.2267 30.6598 70.2926C30.7779 70.4433 30.946 70.5467 31.1337 70.5842C31.3215 70.6216 31.5164 70.5907 31.6833 70.4969C32.7305 69.8868 33.9176 69.5576 35.1294 69.5412C36.3413 69.5248 37.5368 69.8217 38.6002 70.4031C38.8151 70.5192 39.0637 70.5565 39.3032 70.5088C39.5427 70.461 39.758 70.3312 39.9119 70.1415C40.5783 69.3142 41.4221 68.6473 42.381 68.19C43.3398 67.7327 44.3891 67.4967 45.4515 67.4995C46.5138 67.5021 47.5619 67.7436 48.5183 68.2058C49.4748 68.6682 50.3151 69.3395 50.9772 70.1702C51.1241 70.3525 51.3304 70.4773 51.5601 70.523C51.7898 70.5686 52.0281 70.5322 52.2336 70.4199C53.265 69.8491 54.4234 69.5468 55.6022 69.5406C56.7809 69.5343 57.9424 69.8245 58.9798 70.3844C59.2046 70.5047 59.4642 70.5432 59.7143 70.4933C59.9643 70.4435 60.1892 70.3084 60.3507 70.111C61.0204 69.2883 61.8661 68.6263 62.8256 68.1739C63.7852 67.7214 64.834 67.4901 65.8947 67.4968C66.9555 67.5035 68.0012 67.7482 68.955 68.2128C69.9086 68.6773 70.7459 69.35 71.4051 70.181C71.5491 70.3609 71.7518 70.484 71.9777 70.529C72.2036 70.574 72.4381 70.5377 72.6398 70.4268C73.6479 69.8663 74.7783 69.5623 75.9314 69.5415C77.0846 69.5206 78.2252 69.7837 79.2527 70.3074C79.5203 70.4447 79.8264 70.4875 80.1213 70.4289C80.4161 70.3702 80.6826 70.2137 80.8773 69.9846C81.7259 68.994 82.8308 68.2561 84.0711 67.8521C85.3113 67.4482 86.639 67.3937 87.9081 67.6948C89.1773 67.9958 90.339 68.6407 91.2657 69.5586C92.1925 70.4765 92.8485 71.632 93.1616 72.8982C93.1699 72.9318 93.1805 72.9648 93.1931 72.9969C93.7676 72.2732 94.3242 71.5336 94.8631 70.7782C94.4382 70.6686 94.0011 70.6139 93.5623 70.6153Z" fill="#E5F8FF"/>
<path d="M94.8631 70.7821C94.4384 70.6713 94.0013 70.6152 93.5623 70.6153C93.5267 70.6153 93.4952 70.6252 93.4636 70.6262C93.2623 69.1689 92.6155 67.8094 91.6119 66.7337C90.6082 65.6581 89.2966 64.9189 87.8566 64.6174C86.4167 64.3158 84.9188 64.4666 83.5678 65.0491C82.2169 65.6317 81.079 66.6174 80.3098 67.8715C79.0984 66.9907 77.6391 66.5162 76.1412 66.5162C74.6435 66.5162 73.1841 66.9907 71.9726 67.8715C71.3351 66.8311 70.4414 65.9717 69.3768 65.3754C68.3121 64.7792 67.1124 64.4661 65.8922 64.4661C64.6721 64.4661 63.4723 64.7792 62.4077 65.3754C61.3431 65.9717 60.4493 66.8311 59.8118 67.8715C58.6004 66.9907 57.1411 66.5162 55.6432 66.5162C54.1454 66.5162 52.6861 66.9907 51.4746 67.8715C50.8371 66.8311 49.9434 65.9717 48.8788 65.3754C47.8141 64.7792 46.6144 64.4661 45.3942 64.4661C44.1741 64.4661 42.9743 64.7792 41.9097 65.3754C40.8451 65.9717 39.9513 66.8311 39.3138 67.8715C38.1023 66.9907 36.6431 66.5162 35.1452 66.5162C33.6474 66.5162 32.188 66.9907 30.9766 67.8715C30.2072 66.6178 29.0691 65.6323 27.7182 65.0502C26.3673 64.4681 24.8694 64.3176 23.4297 64.6193C21.99 64.921 20.6786 65.6603 19.6752 66.7359C18.6717 67.8115 18.0251 69.1709 17.8238 70.6281C17.7883 70.6281 17.7567 70.6173 17.7251 70.6173C17.0528 70.6164 16.3869 70.7484 15.7656 71.0055C15.1443 71.2626 14.58 71.6398 14.1048 72.1155C13.0924 71.2572 11.808 70.7861 10.4806 70.7861C9.30861 70.7874 8.16578 71.1515 7.20901 71.8284C6.25224 72.5052 5.52844 73.4616 5.13696 74.5663" stroke="#00B8F0" stroke-width="1.3" stroke-linecap="round" stroke-linejoin="round"/>
<path d="M38.5587 87.8682C38.5616 87.1536 38.3846 86.4498 38.0438 85.8217C37.7028 85.1935 37.2093 84.6615 36.6086 84.2745C36.0079 83.8875 35.3192 83.658 34.6064 83.6072C33.8936 83.5566 33.1795 83.6863 32.5301 83.9844C32.1438 82.9388 31.4162 82.054 30.4651 81.4728C29.514 80.8915 28.3946 80.6479 27.288 80.7812C26.1813 80.9144 25.1519 81.4168 24.3658 82.2072C23.5799 82.9976 23.0832 84.0298 22.9562 85.1372" stroke="#4ACFFF" stroke-width="1.3" stroke-linecap="round" stroke-linejoin="round"/>
<path d="M66.3161 83.5974C66.3173 83.0055 66.1705 82.4226 65.8892 81.9018C65.6079 81.381 65.201 80.9386 64.7053 80.6151C64.2096 80.2914 63.6409 80.0969 63.0509 80.0488C62.4608 80.0009 61.8683 80.101 61.3268 80.3403C60.7717 79.4018 59.9233 78.6718 58.9124 78.2631C57.9014 77.8543 56.784 77.7896 55.7327 78.0788C54.6812 78.3679 53.7541 78.9949 53.0943 79.8631C52.4345 80.7312 52.0787 81.7924 52.0816 82.8828" stroke="#4ACFFF" stroke-width="1.3" stroke-linecap="round" stroke-linejoin="round"/>
<path d="M49.548 79.0249V81.9859" stroke="#45413C" stroke-width="1.3" stroke-linecap="round" stroke-linejoin="round"/>
<path d="M47.574 81.9858L45.6 84.9468" stroke="#45413C" stroke-width="1.3" stroke-linecap="round" stroke-linejoin="round"/>
<path d="M44.6129 82.9728L40.6649 81.9858" stroke="#45413C" stroke-width="1.3" stroke-linecap="round" stroke-linejoin="round"/>
<path d="M15.9869 70.6357V85.4407C15.9869 86.0952 16.2469 86.7228 16.7097 87.1855C17.1724 87.6483 17.8 87.9082 18.4544 87.9082C19.1089 87.9082 19.7365 87.6483 20.1992 87.1855C20.662 86.7228 20.9219 86.0952 20.9219 85.4407V70.6357H15.9869Z" fill="#BF8256" stroke="#45413C" stroke-width="1.3" stroke-linecap="round" stroke-linejoin="round"/>
<path d="M38.688 92.3494L38.9841 89.7625C39.4427 85.8711 39.6734 81.9563 39.675 78.0379H20.922V77.959C20.9236 81.9039 21.1543 85.8454 21.6129 89.7635L21.909 92.3494" fill="#F8F8F8"/>
<path d="M38.688 92.3494L38.9841 89.7625C39.4427 85.8711 39.6734 81.9563 39.675 78.0379H20.922V77.959C20.9236 81.9039 21.1543 85.8454 21.6129 89.7635L21.909 92.3494" stroke="#45413C" stroke-width="1.3" stroke-linecap="round" stroke-linejoin="round"/>
<path d="M35.5701 92.3496L36.4584 85.8551C36.6268 84.6188 37.1629 83.4617 37.9971 82.5339L39.6434 80.7168C39.5635 83.7429 39.3473 86.7306 38.993 89.7587L38.688 92.3496" fill="#FF87AF"/>
<path d="M35.5701 92.3496L36.4584 85.8551C36.6268 84.6188 37.1629 83.4617 37.9971 82.5339L39.6434 80.7168C39.5635 83.7429 39.3473 86.7306 38.993 89.7587L38.688 92.3496" stroke="#45413C" stroke-width="1.3" stroke-linecap="round" stroke-linejoin="round"/>
<path d="M21.9089 92.3495L21.6128 89.7636C21.2628 86.7572 21.0466 83.7429 20.9644 80.7207L22.5998 82.5338C23.433 83.4607 23.9687 84.6163 24.1376 85.8511L25.0259 92.3456" fill="#FF87AF"/>
<path d="M21.9089 92.3495L21.6128 89.7636C21.2628 86.7572 21.0466 83.7429 20.9644 80.7207L22.5998 82.5338C23.433 83.4607 23.9687 84.6163 24.1376 85.8511L25.0259 92.3456" stroke="#45413C" stroke-width="1.3" stroke-linecap="round" stroke-linejoin="round"/>
<path d="M52.9994 74.5837H48.0644C47.1482 74.5837 46.2696 74.2198 45.6217 73.5719C44.9739 72.9241 44.6099 72.0454 44.6099 71.1292V70.6357H39.6749V71.1292C39.6775 73.3535 40.5623 75.4859 42.135 77.0586C43.7078 78.6314 45.8402 79.5161 48.0644 79.5187H52.9994V74.5837Z" fill="#BF8256" stroke="#45413C" stroke-width="1.3" stroke-linecap="round" stroke-linejoin="round"/>
<path d="M33.753 50.7967V48.4279C33.753 48.1661 33.649 47.9151 33.4639 47.73C33.2788 47.5449 33.0278 47.4409 32.766 47.4409H27.831C27.5692 47.4409 27.3182 47.5449 27.1331 47.73C26.948 47.9151 26.844 48.1661 26.844 48.4279V50.7967C23.4768 51.5783 20.4734 53.4768 18.3228 56.183C16.1721 58.8892 15.001 62.2437 15 65.7004V69.6484C15 69.9102 15.104 70.1612 15.2891 70.3463C15.4742 70.5314 15.7252 70.6354 15.987 70.6354H20.922V75.0769H39.675V70.6354H44.61C44.8718 70.6354 45.1228 70.5314 45.3079 70.3463C45.493 70.1612 45.597 69.9102 45.597 69.6484V66.1278C45.619 62.6166 44.4647 59.1991 42.318 56.4204C40.1713 53.6417 37.156 51.6619 33.753 50.7967Z" fill="#F8F8F8"/>
<path d="M45.597 66.1279C45.6387 62.1443 44.1531 58.296 41.4455 55.3736C38.738 52.4513 35.014 50.6768 31.0387 50.4149C28.9694 50.3146 26.9012 50.6358 24.9597 51.3588C23.0182 52.0818 21.2437 53.1916 19.7439 54.6209C18.2442 56.0503 17.0504 57.7693 16.2349 59.6739C15.4194 61.5784 14.9993 63.6288 15 65.7006V69.6486C15.0001 69.7149 15.0067 69.781 15.0197 69.846C15.2274 65.8015 17.0303 62.0044 20.0331 59.287C23.0359 56.5697 26.9937 55.1538 31.0387 55.3499C34.8187 55.5935 38.3796 57.2088 41.0528 59.8924C43.726 62.5759 45.3275 66.1431 45.5565 69.9239C45.5832 69.8346 45.5968 69.7418 45.597 69.6486V66.1279Z" fill="white"/>
<path d="M33.753 50.7967V48.4279C33.753 48.1661 33.649 47.9151 33.4639 47.73C33.2788 47.5449 33.0278 47.4409 32.766 47.4409H27.831C27.5692 47.4409 27.3182 47.5449 27.1331 47.73C26.948 47.9151 26.844 48.1661 26.844 48.4279V50.7967C25.5325 51.0996 24.2669 51.5752 23.0806 52.2111L30.2985 66.1939L37.4957 52.2486C36.3201 51.5963 35.0609 51.1078 33.753 50.7967Z" fill="#BF8256"/>
<path d="M33.753 48.4279C33.753 48.1661 33.649 47.9151 33.4639 47.73C33.2788 47.5449 33.0278 47.4409 32.766 47.4409H27.831C27.5692 47.4409 27.3182 47.5449 27.1331 47.73C26.948 47.9151 26.844 48.1661 26.844 48.4279V50.7967C25.5325 51.0996 24.2669 51.5752 23.0806 52.2111L25.1533 56.2272C27.0396 55.5549 29.0395 55.2591 31.0397 55.3567C32.5418 55.427 34.0243 55.7266 35.4358 56.245L37.4967 52.2525C36.321 51.5988 35.0614 51.109 33.753 50.7967V48.4279Z" fill="#BF8256"/>
<path d="M33.753 50.7967V48.4279C33.753 48.1661 33.649 47.9151 33.4639 47.73C33.2788 47.5449 33.0278 47.4409 32.766 47.4409H27.831C27.5692 47.4409 27.3182 47.5449 27.1331 47.73C26.948 47.9151 26.844 48.1661 26.844 48.4279V50.7967C25.5325 51.0996 24.2669 51.5752 23.0806 52.2111L30.2985 66.1939L37.4957 52.2486C36.3201 51.5963 35.0609 51.1078 33.753 50.7967Z" stroke="#45413C" stroke-width="1.3" stroke-linecap="round" stroke-linejoin="round"/>
<path d="M20.922 64.2163V70.6318" stroke="#45413C" stroke-width="1.3" stroke-linecap="round" stroke-linejoin="round"/>
<path d="M33.753 50.7967V48.4279C33.753 48.1661 33.649 47.9151 33.4639 47.73C33.2788 47.5449 33.0278 47.4409 32.766 47.4409H27.831C27.5692 47.4409 27.3182 47.5449 27.1331 47.73C26.948 47.9151 26.844 48.1661 26.844 48.4279V50.7967C23.4768 51.5783 20.4734 53.4768 18.3228 56.183C16.1721 58.8892 15.001 62.2437 15 65.7004V69.6484C15 69.9102 15.104 70.1612 15.2891 70.3463C15.4742 70.5314 15.7252 70.6354 15.987 70.6354H20.922V75.0769H39.675V70.6354H44.61C44.8718 70.6354 45.1228 70.5314 45.3079 70.3463C45.493 70.1612 45.597 69.9102 45.597 69.6484V66.1278C45.619 62.6166 44.4647 59.1991 42.318 56.4204C40.1713 53.6417 37.156 51.6619 33.753 50.7967Z" stroke="#45413C" stroke-width="1.3" stroke-linecap="round" stroke-linejoin="round"/>
<path d="M39.6749 64.2163V70.6318" stroke="#45413C" stroke-width="1.3" stroke-linecap="round" stroke-linejoin="round"/>
<path d="M30.2985 66.1941L42.1425 55.8306C42.1425 55.8306 43.1295 54.8436 41.1555 52.8696C40.6196 52.4093 39.9836 52.0803 39.2982 51.909C38.6129 51.7377 37.8969 51.7286 37.2075 51.8826L30.2985 66.1941Z" fill="#FF87AF"/>
<path d="M40.7705 57.0268C39.4288 55.7599 37.8693 54.7458 36.1671 54.0333L37.2074 51.8826C37.8969 51.7286 38.6128 51.7377 39.2982 51.909C39.9836 52.0803 40.6195 52.4093 41.1554 52.8696C43.1294 54.8436 42.1424 55.8306 42.1424 55.8306L40.7705 57.0268Z" fill="#FFB0CA"/>
<path d="M30.2985 66.1941L42.1425 55.8306C42.1425 55.8306 43.1295 54.8436 41.1555 52.8696C40.6196 52.4093 39.9836 52.0803 39.2982 51.909C38.6129 51.7377 37.8969 51.7286 37.2075 51.8826L30.2985 66.1941Z" stroke="#45413C" stroke-width="1.3" stroke-linecap="round" stroke-linejoin="round"/>
<path d="M30.2985 66.1941L18.4545 55.8306C18.4545 55.8306 17.4675 54.8436 19.4415 52.8696C19.9774 52.4093 20.6134 52.0803 21.2987 51.909C21.9841 51.7377 22.7 51.7286 23.3895 51.8826L30.2985 66.1941Z" fill="#FF87AF"/>
<path d="M19.8264 57.0268C21.1681 55.7599 22.7276 54.7458 24.4298 54.0333L23.3895 51.8826C22.7 51.7286 21.9841 51.7377 21.2987 51.909C20.6134 52.0803 19.9774 52.4093 19.4415 52.8696C17.4675 54.8436 18.4545 55.8306 18.4545 55.8306L19.8264 57.0268Z" fill="#FFB0CA"/>
<path d="M30.2985 66.1941L18.4545 55.8306C18.4545 55.8306 17.4675 54.8436 19.4415 52.8696C19.9774 52.4093 20.6134 52.0803 21.2987 51.909C21.9841 51.7377 22.7 51.7286 23.3895 51.8826L30.2985 66.1941Z" stroke="#45413C" stroke-width="1.3" stroke-linecap="round" stroke-linejoin="round"/>
<path d="M20.922 75.0732H39.675V78.0342H20.922V75.0732Z" fill="white" stroke="#45413C" stroke-width="1.3" stroke-linecap="round" stroke-linejoin="round"/>
<path d="M30.2985 66.1899V75.0729" stroke="#45413C" stroke-width="1.3" stroke-linecap="round" stroke-linejoin="round"/>
<path d="M55.3337 73.5967H54.4799C53.6946 73.5967 52.9415 73.9086 52.3862 74.4639C51.8309 75.0192 51.5189 75.7724 51.5189 76.5577V77.5447C51.5189 78.33 51.8309 79.0831 52.3862 79.6384C52.9415 80.1937 53.6946 80.5057 54.4799 80.5057H55.3337C55.5459 80.5057 55.7561 80.4638 55.9521 80.3825C56.1482 80.3011 56.3263 80.1819 56.4762 80.0316C56.6261 79.8814 56.7449 79.703 56.8257 79.5068C56.9066 79.3105 56.9479 79.1002 56.9474 78.888V75.2065C56.9464 74.7792 56.7759 74.3697 56.4734 74.0679C56.1709 73.7662 55.761 73.5967 55.3337 73.5967Z" fill="#BF8256"/>
<path d="M52.0124 79.1002V78.1132C52.0124 77.3279 52.3244 76.5747 52.8797 76.0194C53.435 75.4642 54.1881 75.1522 54.9734 75.1522H55.8272C56.2451 75.1518 56.6468 75.3139 56.9474 75.6042V75.2094C56.9472 74.7816 56.777 74.3714 56.4744 74.069C56.1718 73.7666 55.7615 73.5967 55.3337 73.5967H54.4799C53.6946 73.5967 52.9415 73.9086 52.3862 74.4639C51.8309 75.0192 51.5189 75.7724 51.5189 76.5577V77.5447C51.5176 78.1279 51.6893 78.6985 52.0124 79.1841V79.1002Z" fill="#E09F7E"/>
<path d="M55.3337 73.5967H54.4799C53.6946 73.5967 52.9415 73.9086 52.3862 74.4639C51.8309 75.0192 51.5189 75.7724 51.5189 76.5577V77.5447C51.5189 78.33 51.8309 79.0831 52.3862 79.6384C52.9415 80.1937 53.6946 80.5057 54.4799 80.5057H55.3337C55.5459 80.5057 55.7561 80.4638 55.9521 80.3825C56.1482 80.3011 56.3263 80.1819 56.4762 80.0316C56.6261 79.8814 56.7449 79.703 56.8257 79.5068C56.9066 79.3105 56.9479 79.1002 56.9474 78.888V75.2065C56.9464 74.7792 56.7759 74.3697 56.4734 74.0679C56.1709 73.7662 55.761 73.5967 55.3337 73.5967Z" stroke="#45413C" stroke-width="1.3" stroke-linecap="round" stroke-linejoin="round"/>
<path d="M30.2985 89.3887L20.7552 80.8018C20.6515 80.7085 20.5688 80.5943 20.5125 80.4667C20.4562 80.3391 20.4276 80.2011 20.4285 80.0616V78.6482C20.4287 78.553 20.4565 78.4598 20.5084 78.38C20.5604 78.3001 20.6344 78.2371 20.7214 78.1984C20.8084 78.1597 20.9048 78.1469 20.9989 78.1618C21.093 78.1766 21.1808 78.2184 21.2516 78.282L30.2985 86.4277V89.3887Z" fill="#F8F8F8" stroke="#45413C" stroke-width="1.3" stroke-linecap="round" stroke-linejoin="round"/>
<path d="M30.2985 89.3887L39.8418 80.8018C39.9454 80.7085 40.0281 80.5943 40.0845 80.4667C40.1408 80.3391 40.1694 80.2011 40.1685 80.0616V78.6482C40.1683 78.553 40.1405 78.4598 40.0885 78.38C40.0365 78.3001 39.9626 78.2371 39.8755 78.1984C39.7885 78.1597 39.6921 78.1469 39.5981 78.1618C39.504 78.1766 39.4162 78.2184 39.3453 78.282L30.2985 86.4277V89.3887Z" fill="#F8F8F8" stroke="#45413C" stroke-width="1.3" stroke-linecap="round" stroke-linejoin="round"/>
<path d="M30.2985 89.3848V92.3458" stroke="#45413C" stroke-width="1.3" stroke-linecap="round" stroke-linejoin="round"/>
<path d="M34.0056 79.03C33.9802 79.1686 33.9071 79.2938 33.7989 79.384C33.6907 79.4741 33.5543 79.5235 33.4134 79.5235C33.2726 79.5235 33.1362 79.4741 33.028 79.384C32.9198 79.2938 32.8466 79.1686 32.8212 79.03L32.1738 75.7601C32.1445 75.6167 32.1475 75.4685 32.1825 75.3264C32.2175 75.1843 32.2838 75.0517 32.3763 74.9384C32.4689 74.825 32.5856 74.7336 32.7178 74.6709C32.8501 74.6082 32.9946 74.5757 33.141 74.5757H33.6947C33.8411 74.5757 33.9856 74.6082 34.1179 74.6709C34.2501 74.7336 34.3668 74.825 34.4594 74.9384C34.552 75.0517 34.6182 75.1843 34.6532 75.3264C34.6883 75.4685 34.6913 75.6167 34.662 75.7601L34.0056 79.03Z" fill="#6DD627" stroke="#45413C" stroke-width="1.3" stroke-linecap="round" stroke-linejoin="round"/>
<path d="M36.5344 79.03C36.509 79.1686 36.4358 79.2938 36.3276 79.384C36.2194 79.4741 36.083 79.5235 35.9422 79.5235C35.8013 79.5235 35.6649 79.4741 35.5567 79.384C35.4485 79.2938 35.3754 79.1686 35.35 79.03L34.6966 75.7601C34.6673 75.6167 34.6703 75.4685 34.7053 75.3264C34.7404 75.1843 34.8066 75.0517 34.8992 74.9384C34.9918 74.825 35.1084 74.7336 35.2407 74.6709C35.3729 74.6082 35.5175 74.5757 35.6638 74.5757H36.2205C36.3669 74.5757 36.5114 74.6082 36.6437 74.6709C36.7759 74.7336 36.8926 74.825 36.9852 74.9384C37.0778 75.0517 37.144 75.1843 37.179 75.3264C37.214 75.4685 37.217 75.6167 37.1878 75.7601L36.5344 79.03Z" fill="#00B8F0" stroke="#45413C" stroke-width="1.3" stroke-linecap="round" stroke-linejoin="round"/>
<path d="M39.0621 79.0299C39.0367 79.1685 38.9635 79.2937 38.8553 79.3839C38.7471 79.474 38.6107 79.5234 38.4699 79.5234C38.329 79.5234 38.1927 79.474 38.0845 79.3839C37.9763 79.2937 37.9031 79.1685 37.8777 79.0299L37.2243 75.76C37.1963 75.6169 37.2004 75.4694 37.2362 75.328C37.272 75.1867 37.3387 75.055 37.4315 74.9425C37.5242 74.83 37.6408 74.7395 37.7727 74.6774C37.9046 74.6153 38.0487 74.5833 38.1945 74.5835H38.7482C38.8946 74.5835 39.0391 74.616 39.1714 74.6787C39.3037 74.7414 39.4203 74.8328 39.5129 74.9462C39.6055 75.0596 39.6717 75.1921 39.7067 75.3342C39.7418 75.4763 39.7448 75.6245 39.7155 75.7679L39.0621 79.0299Z" fill="#FF6242" stroke="#45413C" stroke-width="1.3" stroke-linecap="round" stroke-linejoin="round"/>
<path d="M41.1554 41.0253C41.1554 46.4765 36.2944 50.8953 30.2984 50.8953C24.3024 50.8953 19.4414 46.4765 19.4414 41.0253V36.0903H41.1554V41.0253Z" fill="#FF6242" stroke="#45413C" stroke-width="1.3" stroke-linecap="round" stroke-linejoin="round"/>
<path d="M40.1685 37.0724V34.6049C40.1685 31.9872 39.1286 29.4767 37.2776 27.6257C35.4266 25.7747 32.9162 24.7349 30.2985 24.7349C27.6808 24.7349 25.1703 25.7747 23.3193 27.6257C21.4683 29.4767 20.4285 31.9872 20.4285 34.6049V37.0724C19.9049 37.0724 19.4028 37.2803 19.0326 37.6505C18.6624 38.0207 18.4545 38.5228 18.4545 39.0464C18.4545 39.5699 18.6624 40.072 19.0326 40.4422C19.4028 40.8124 19.9049 41.0204 20.4285 41.0204C20.4699 41.0204 20.5084 41.0105 20.5499 41.0085C20.898 43.3451 22.0737 45.4789 23.863 47.0214C25.6523 48.5639 27.9361 49.4124 30.2985 49.4124C32.6608 49.4124 34.9446 48.5639 36.7339 47.0214C38.5232 45.4789 39.699 43.3451 40.0471 41.0085C40.0885 41.0085 40.127 41.0204 40.1685 41.0204C40.692 41.0204 41.1941 40.8124 41.5643 40.4422C41.9345 40.072 42.1425 39.5699 42.1425 39.0464C42.1425 38.5228 41.9345 38.0207 41.5643 37.6505C41.1941 37.2803 40.692 37.0724 40.1685 37.0724Z" fill="#BF8256" stroke="#45413C" stroke-width="1.3" stroke-linecap="round" stroke-linejoin="round"/>
<path d="M23.3894 41.2674C23.3894 41.5947 23.5194 41.9085 23.7508 42.1398C23.9821 42.3712 24.2959 42.5012 24.6232 42.5012C24.9504 42.5012 25.2642 42.3712 25.4955 42.1398C25.7269 41.9085 25.8569 41.5947 25.8569 41.2674C25.8569 40.9402 25.7269 40.6264 25.4955 40.395C25.2642 40.1637 24.9504 40.0337 24.6232 40.0337C24.2959 40.0337 23.9821 40.1637 23.7508 40.395C23.5194 40.6264 23.3894 40.9402 23.3894 41.2674Z" fill="#BF8256"/>
<path d="M34.74 41.2674C34.74 41.5947 34.87 41.9085 35.1013 42.1398C35.3327 42.3712 35.6465 42.5012 35.9737 42.5012C36.301 42.5012 36.6148 42.3712 36.8461 42.1398C37.0775 41.9085 37.2075 41.5947 37.2075 41.2674C37.2075 40.9402 37.0775 40.6264 36.8461 40.395C36.6148 40.1637 36.301 40.0337 35.9737 40.0337C35.6465 40.0337 35.3327 40.1637 35.1013 40.395C34.87 40.6264 34.74 40.9402 34.74 41.2674Z" fill="#BF8256"/>
<path d="M27.3296 43.7734C28.1299 44.5361 29.193 44.9616 30.2985 44.9616C31.404 44.9616 32.4671 44.5361 33.2674 43.7734" stroke="#45413C" stroke-width="1.3" stroke-linecap="round" stroke-linejoin="round"/>
<path d="M35.727 38.0595C35.605 37.7663 35.3989 37.5158 35.1347 37.3396C34.8705 37.1634 34.5601 37.0693 34.2425 37.0693C33.9249 37.0693 33.6145 37.1634 33.3503 37.3396C33.0861 37.5158 32.8801 37.7663 32.7581 38.0595" stroke="#45413C" stroke-width="1.3" stroke-linecap="round" stroke-linejoin="round"/>
<path d="M27.823 38.0596C27.7008 37.7665 27.4946 37.5161 27.2304 37.3399C26.9661 37.1638 26.6557 37.0698 26.3381 37.0698C26.0205 37.0698 25.7101 37.1638 25.4458 37.3399C25.1816 37.5161 24.9753 37.7665 24.8531 38.0596" stroke="#45413C" stroke-width="1.3" stroke-linecap="round" stroke-linejoin="round"/>
<path d="M20.922 34.605V33.1245" stroke="#45413C" stroke-width="1.3" stroke-linecap="round" stroke-linejoin="round"/>
<path d="M39.6749 34.605V33.1245" stroke="#45413C" stroke-width="1.3" stroke-linecap="round" stroke-linejoin="round"/>
<path d="M30.2985 22.7661C20.922 22.7661 17.4675 30.1686 17.4675 40.5321C17.4132 42.8225 17.87 45.0962 18.8048 47.1878C19.7395 49.2795 21.1287 51.1365 22.8713 52.6239C22.9555 52.693 23.0602 52.7324 23.1692 52.7358C23.2781 52.7392 23.3851 52.7064 23.4734 52.6427C23.5618 52.5789 23.6265 52.4876 23.6576 52.3832C23.6886 52.2787 23.6843 52.1669 23.6451 52.0652C21.8482 47.7386 20.9228 43.0999 20.922 38.415V34.6052H23.883V32.1377L25.3635 34.6052H27.831L28.3245 32.6312L29.3115 34.6052H33.2595L35.2335 32.6312V34.6052H39.675V38.415C39.6736 43.0984 38.7479 47.7354 36.9508 52.0603C36.9113 52.1621 36.9067 52.2742 36.9378 52.379C36.9688 52.4837 37.0337 52.5752 37.1223 52.6391C37.2109 52.703 37.3182 52.7357 37.4274 52.732C37.5366 52.7284 37.6415 52.6886 37.7256 52.6189C39.4676 51.1321 40.8564 49.2759 41.7911 47.1851C42.7258 45.0944 43.183 42.8217 43.1295 40.5321C43.1295 30.1686 39.675 22.7661 30.2985 22.7661Z" fill="#614B44"/>
<path d="M30.2984 26.8572C38.9228 26.8572 42.5293 33.1286 43.0524 42.1982C43.1028 41.6622 43.1294 41.1056 43.1294 40.5321C43.1294 30.1686 39.6749 22.7661 30.2984 22.7661C20.9219 22.7661 17.4674 30.1686 17.4674 40.5321C17.4674 41.1105 17.4941 41.6672 17.5444 42.2031C18.0675 33.1296 21.674 26.8572 30.2984 26.8572Z" fill="#A86C4D"/>
<path d="M30.2985 22.7661C20.922 22.7661 17.4675 30.1686 17.4675 40.5321C17.4132 42.8225 17.87 45.0962 18.8048 47.1878C19.7395 49.2795 21.1287 51.1365 22.8713 52.6239C22.9555 52.693 23.0602 52.7324 23.1692 52.7358C23.2781 52.7392 23.3851 52.7064 23.4734 52.6427C23.5618 52.5789 23.6265 52.4876 23.6576 52.3832C23.6886 52.2787 23.6843 52.1669 23.6451 52.0652C21.8482 47.7386 20.9228 43.0999 20.922 38.415V34.6052H23.883V32.1377L25.3635 34.6052H27.831L28.3245 32.6312L29.3115 34.6052H33.2595L35.2335 32.6312V34.6052H39.675V38.415C39.6736 43.0984 38.7479 47.7354 36.9508 52.0603C36.9113 52.1621 36.9067 52.2742 36.9378 52.379C36.9688 52.4837 37.0337 52.5752 37.1223 52.6391C37.2109 52.703 37.3182 52.7357 37.4274 52.732C37.5366 52.7284 37.6415 52.6886 37.7256 52.6189C39.4676 51.1321 40.8564 49.2759 41.7911 47.1851C42.7258 45.0944 43.183 42.8217 43.1295 40.5321C43.1295 30.1686 39.675 22.7661 30.2985 22.7661Z" stroke="#45413C" stroke-width="1.3" stroke-linecap="round" stroke-linejoin="round"/>
<path d="M20.4284 36.0906C20.4284 36.0906 23.3894 33.1296 30.2984 33.1296C37.2074 33.1296 40.1684 36.0906 40.1684 36.0906L43.1294 35.1036C43.1294 35.1036 43.1294 21.2856 30.2984 21.2856C17.4674 21.2856 17.4674 35.1036 17.4674 35.1036L20.4284 36.0906Z" fill="#FF87AF"/>
<path d="M30.2984 24.2466C39.3788 24.2466 42.0319 31.1655 42.8067 35.2112L43.1294 35.1036C43.1294 35.1036 43.1294 21.2856 30.2984 21.2856C17.4674 21.2856 17.4674 35.1036 17.4674 35.1036L17.7902 35.2112C18.565 31.1616 21.218 24.2466 30.2984 24.2466Z" fill="#FFB0CA"/>
<path d="M20.4284 36.0906C20.4284 36.0906 23.3894 33.1296 30.2984 33.1296C37.2074 33.1296 40.1684 36.0906 40.1684 36.0906L43.1294 35.1036C43.1294 35.1036 43.1294 21.2856 30.2984 21.2856C17.4674 21.2856 17.4674 35.1036 17.4674 35.1036L20.4284 36.0906Z" stroke="#45413C" stroke-width="1.3" stroke-linecap="round" stroke-linejoin="round"/>
<path d="M35.269 22.1284L34.2465 26.2166" stroke="#45413C" stroke-width="1.3" stroke-linecap="round" stroke-linejoin="round"/>
<path d="M39.4322 24.978L38.1945 26.2167" stroke="#45413C" stroke-width="1.3" stroke-linecap="round" stroke-linejoin="round"/>
<path d="M25.3279 22.1284L26.3504 26.2166" stroke="#45413C" stroke-width="1.3" stroke-linecap="round" stroke-linejoin="round"/>
<path d="M21.1648 24.978L22.4025 26.2167" stroke="#45413C" stroke-width="1.3" stroke-linecap="round" stroke-linejoin="round"/>
<path d="M17.7902 32.2412L20.4284 33.1295C20.4284 33.1295 23.3894 30.1685 30.2984 30.1685C37.2074 30.1685 40.1684 33.1295 40.1684 33.1295L42.8086 32.2491C42.997 33.1896 43.1043 34.1446 43.1294 35.1035L40.1684 36.0905C40.1684 36.0905 37.2074 33.1295 30.2984 33.1295C23.3894 33.1295 20.4284 36.0905 20.4284 36.0905L17.4674 35.1035C17.4925 34.1446 17.5999 33.1896 17.7882 32.2491" fill="#00B8F0"/>
<path d="M17.7902 32.2412L20.4284 33.1295C20.4284 33.1295 23.3894 30.1685 30.2984 30.1685C37.2074 30.1685 40.1684 33.1295 40.1684 33.1295L42.8086 32.2491C42.997 33.1896 43.1043 34.1446 43.1294 35.1035L40.1684 36.0905C40.1684 36.0905 37.2074 33.1295 30.2984 33.1295C23.3894 33.1295 20.4284 36.0905 20.4284 36.0905L17.4674 35.1035C17.4925 34.1446 17.5999 33.1896 17.7882 32.2491" stroke="#45413C" stroke-width="1.3" stroke-linecap="round" stroke-linejoin="round"/>
<path d="M17.7902 32.2412L20.4284 33.1295C20.4284 33.1295 23.3894 30.1685 30.2984 30.1685C37.2074 30.1685 40.1684 33.1295 40.1684 33.1295L42.8086 32.2491C42.997 33.1896 43.1043 34.1446 43.1294 35.1035L40.1684 36.0905C40.1684 36.0905 37.2074 33.1295 30.2984 33.1295C23.3894 33.1295 20.4284 36.0905 20.4284 36.0905L17.4674 35.1035C17.4925 34.1446 17.5999 33.1896 17.7882 32.2491" fill="#F8F8F8"/>
<path d="M17.7902 32.2412L20.4284 33.1295C20.4284 33.1295 23.3894 30.1685 30.2984 30.1685C37.2074 30.1685 40.1684 33.1295 40.1684 33.1295L42.8086 32.2491C42.997 33.1896 43.1043 34.1446 43.1294 35.1035L40.1684 36.0905C40.1684 36.0905 37.2074 33.1295 30.2984 33.1295C23.3894 33.1295 20.4284 36.0905 20.4284 36.0905L17.4674 35.1035C17.4925 34.1446 17.5999 33.1896 17.7882 32.2491" stroke="#45413C" stroke-width="1.3" stroke-linecap="round" stroke-linejoin="round"/>
<path d="M59.9778 50L52.0322 89.3914C51.8375 90.3572 52.5584 91.2224 53.3299 90.9487C53.6878 90.8216 53.964 90.4672 54.0544 90.019L62 50.6305L59.9778 50Z" fill="#BF8256" stroke="#45413C" stroke-width="1.3" stroke-linecap="round" stroke-linejoin="round"/>
<path d="M75.5 53.8408C75.5 53.8408 77.8947 53.9844 76.555 55.2741C75.2154 56.5639 75.2218 55.7419 75.2218 55.7419L71 55.7419L66.7685 54.6557L58.8799 54.1803C58.2578 54.1426 57.8798 53.9907 58.0347 53.8408L59.7264 52.2119C59.8831 52.0621 60.5136 51.971 61.136 52.0084L69.0263 52.4838L75.5 53.8408Z" fill="#87898C"/>
<path d="M78 54.6509C76.6671 56.4263 71.077 55.9387 71.077 55.9387L66.7242 55.0874L58.8754 54.4329C58.2565 54.381 57.8804 54.172 58.0345 53.9656L58.8754 52.0979C59.0312 51.8916 58.063 52.0754 60.3077 52.0755L68.9705 52.0976L78 54.6509Z" stroke="#45413C" stroke-linecap="round" stroke-linejoin="round"/>
</svg>