<svg width="160" height="160" fill="none" xmlns="http://www.w3.org/2000/svg">
  <path d="M16 80c0 16.9739 6.7428 33.253 18.7452 45.255C46.7475 137.257 63.0261 144 80 144c16.9739 0 33.253-6.743 45.255-18.745C137.257 113.253 144 96.9739 144 80c0-16.9739-6.743-33.2525-18.745-45.2548C113.253 22.7428 96.9739 16 80 16c-16.9739 0-33.2525 6.7428-45.2548 18.7452C22.7428 46.7475 16 63.0261 16 80z" fill="#CDF2FF"/>
  <path d="M22.7839 66.5662c.1177-2.3253.3385-4.4593.6623-6.402.3532-1.9721.8389-3.8412 1.457-5.6073.6475-1.7955 1.4717-3.5321 2.4725-5.2099 1.0008-1.7072 2.237-3.488 3.7087-5.3424H17v-5.4748h21.0604v3.9737c-1.766 1.9721-3.1936 3.8265-4.2827 5.5631-1.0891 1.7072-1.9427 3.488-2.5608 5.3424-.6181 1.8249-1.0597 3.797-1.3246 5.9163-.2649 2.0899-.4562 4.5035-.5739 7.2409h-6.5345zM69.7711 66.5662v-3.7087c2.0016-1.6778 3.8265-3.2378 5.4748-4.6801 1.6484-1.4717 3.0612-2.8404 4.2386-4.1061 1.1774-1.2657 2.0899-2.4578 2.7374-3.5763.6476-1.1185.9714-2.1782.9714-3.179 0-1.3834-.3974-2.4283-1.1921-3.1347-.7948-.7359-1.928-1.1038-3.3997-1.1038-1.1185 0-2.1488.2943-3.0907.883-.9124.5593-1.766 1.2215-2.5608 1.9868l-3.488-3.488c.7359-.7358 1.457-1.3834 2.1635-1.9426.7358-.5593 1.5011-1.0155 2.2959-1.3688a11.3436 11.3436 0 012.5608-.8388C77.3947 38.103 78.3954 38 79.4845 38c1.4717 0 2.811.2208 4.0178.6623 1.2068.4121 2.237 1.0155 3.0906 1.8102.8831.7653 1.5601 1.6925 2.031 2.7816.5004 1.089.7506 2.3106.7506 3.6646 0 1.1774-.2796 2.3842-.8389 3.6204-.5592 1.2068-1.3245 2.4284-2.2959 3.6646-.9419 1.2068-2.0309 2.4284-3.2672 3.6646-1.2362 1.2068-2.5314 2.3989-3.8854 3.5763.7948-.0883 1.6484-.1619 2.5608-.2207.942-.0883 1.7808-.1325 2.5167-.1325h6.6669v5.4748H69.7711zM133.359 67.0961c-1.618 0-3.076-.1766-4.371-.5299-1.295-.3826-2.399-.9124-3.311-1.5894-.912-.677-1.619-1.4865-2.119-2.4284-.471-.9419-.707-1.9868-.707-3.1348 0-.8536.133-1.6189.398-2.2959.294-.7064.677-1.3392 1.148-1.8985.5-.5592 1.059-1.0596 1.677-1.5011.648-.4416 1.34-.8389 2.075-1.1921v-.1767c-1.177-.8241-2.163-1.7513-2.958-2.7815-.765-1.0597-1.148-2.3401-1.148-3.8412 0-1.1774.236-2.2371.707-3.179.471-.9713 1.118-1.7955 1.942-2.4725.854-.677 1.87-1.1921 3.047-1.5453 1.177-.3532 2.458-.5298 3.841-.5298 1.413 0 2.679.1913 3.797.574 1.148.3532 2.12.8683 2.914 1.5453.795.6475 1.398 1.457 1.81 2.4283.442.9419.663 1.9869.663 3.1348 0 1.3246-.398 2.502-1.192 3.5322-.766 1.0302-1.708 1.8985-2.826 2.6049v.1766c.736.3532 1.428.7653 2.075 1.2363.648.4415 1.207.9566 1.678 1.5453.471.5887.839 1.2657 1.104 2.031.265.7358.397 1.5747.397 2.5166 0 1.1185-.235 2.1488-.706 3.0907s-1.163 1.766-2.076 2.4725c-.883.677-1.986 1.2215-3.311 1.6336-1.325.3826-2.84.574-4.548.574zm1.943-16.866c1.413-1.2657 2.119-2.6344 2.119-4.1062 0-1.089-.338-1.9574-1.015-2.6049-.677-.677-1.663-1.0155-2.958-1.0155-1.031 0-1.914.2649-2.649.7947-.707.5298-1.06 1.3393-1.06 2.4284 0 1.1479.515 2.0457 1.545 2.6932 1.03.6476 2.37 1.251 4.018 1.8103zm-1.766 12.3625c1.325 0 2.384-.2797 3.179-.8389.824-.5887 1.236-1.4717 1.236-2.6491 0-.6476-.162-1.1921-.485-1.6336-.324-.4416-.795-.8389-1.413-1.1921-.589-.3827-1.295-.7212-2.12-1.0155-.824-.3238-1.736-.677-2.737-1.0597-.795.5887-1.457 1.251-1.987 1.9869-.5.7358-.75 1.56-.75 2.4725 0 1.2362.485 2.2076 1.457 2.914.971.677 2.178 1.0155 3.62 1.0155z" fill="#271B72"/>
  <path d="M22.7839 121.756c.1177-2.325.3385-4.459.6623-6.402.3532-1.972.8389-3.841 1.457-5.607.6475-1.796 1.4717-3.532 2.4725-5.21 1.0008-1.707 2.237-3.488 3.7087-5.3425H17v-5.4749h21.0604v3.9737c-1.766 1.9721-3.1936 3.8267-4.2827 5.5627-1.0891 1.708-1.9427 3.488-2.5608 5.343-.6181 1.825-1.0597 3.797-1.3246 5.916-.2649 2.09-.4562 4.504-.5739 7.241h-6.5345z" fill="url(#paint0_linear)"/>
  <path d="M44.2244 121.756v-5.254h7.55v-16.204H45.549v-4.0176c.9419-.1471 1.7808-.2943 2.5166-.4415.7653-.1766 1.4571-.3679 2.0752-.5739.6181-.2061 1.1921-.4268 1.7219-.6623a17.4708 17.4708 0 001.6336-.8831h4.7684v22.7824h6.3579v5.254H44.2244z" fill="url(#paint1_linear)"/>
  <path d="M69.7711 121.756v-3.709c2.0016-1.677 3.8265-3.237 5.4748-4.68 1.6484-1.472 3.0612-2.84 4.2386-4.106s2.0899-2.458 2.7374-3.576c.6476-1.119.9714-2.178.9714-3.179 0-1.384-.3974-2.428-1.1921-3.1349-.7948-.7359-1.928-1.1038-3.3997-1.1038-1.1185 0-2.1488.2943-3.0907.883-.9124.5593-1.766 1.2217-2.5608 1.9867l-3.488-3.4878c.7359-.7359 1.457-1.3835 2.1635-1.9427.7358-.5593 1.5011-1.0155 2.2959-1.3687a11.3389 11.3389 0 012.5608-.8389c.9125-.2061 1.9132-.3091 3.0023-.3091 1.4717 0 2.811.2208 4.0178.6623 1.2068.4121 2.237 1.0155 3.0906 1.8102.8831.7653 1.5601 1.6925 2.031 2.7816.5004 1.0891.7506 2.3101.7506 3.6641 0 1.178-.2796 2.385-.8389 3.621-.5592 1.207-1.3245 2.428-2.2959 3.665-.9419 1.206-2.0309 2.428-3.2672 3.664-1.2362 1.207-2.5314 2.399-3.8854 3.576.7948-.088 1.6484-.161 2.5608-.22.942-.089 1.7808-.133 2.5167-.133h6.6669v5.475H69.7711z" fill="url(#paint2_linear)"/>
  <path d="M106.93 122.286c-1.619 0-3.091-.309-4.415-.927-1.325-.648-2.458-1.59-3.4002-2.826-.9419-1.236-1.6777-2.767-2.2076-4.592-.5004-1.825-.7505-3.929-.7505-6.314 0-2.384.2501-4.474.7505-6.269.5299-1.7956 1.2657-3.2968 2.2076-4.5036.9422-1.2362 2.0752-2.1487 3.4002-2.7374 1.324-.6181 2.796-.9272 4.415-.9272 1.619 0 3.09.3091 4.415.9272 1.324.5887 2.458 1.5012 3.4 2.7374.941 1.2068 1.663 2.708 2.163 4.5036.53 1.795.795 3.885.795 6.269 0 2.385-.265 4.489-.795 6.314-.5 1.825-1.222 3.356-2.163 4.592-.942 1.236-2.076 2.178-3.4 2.826-1.325.618-2.796.927-4.415.927zm0-5.033c.706 0 1.354-.162 1.942-.486.619-.324 1.148-.854 1.59-1.59.441-.765.795-1.751 1.059-2.958.265-1.236.398-2.767.398-4.592 0-1.824-.133-3.34-.398-4.547-.264-1.207-.618-2.164-1.059-2.87-.442-.7359-.971-1.251-1.59-1.5454-.588-.2943-1.236-.4415-1.942-.4415-.707 0-1.369.1472-1.987.4415-.589.2944-1.104.8095-1.545 1.5454-.442.706-.795 1.663-1.06 2.87s-.397 2.723-.397 4.547c0 1.825.132 3.356.397 4.592.265 1.207.618 2.193 1.06 2.958.441.736.956 1.266 1.545 1.59.618.324 1.28.486 1.987.486zm0-6.358c-.942 0-1.737-.295-2.384-.883-.619-.618-.928-1.443-.928-2.473 0-1.03.309-1.839.928-2.428.647-.618 1.442-.927 2.384-.927s1.722.309 2.34.927c.647.589.971 1.398.971 2.428s-.324 1.855-.971 2.473c-.618.588-1.398.883-2.34.883z" fill="url(#paint3_linear)"/>
  <path d="M133.359 122.286c-1.618 0-3.076-.177-4.371-.53-1.295-.383-2.399-.912-3.311-1.589-.912-.677-1.619-1.487-2.119-2.429-.471-.942-.707-1.987-.707-3.135 0-.853.133-1.618.398-2.295.294-.707.677-1.34 1.148-1.899.5-.559 1.059-1.06 1.677-1.501.648-.442 1.34-.839 2.075-1.192v-.177c-1.177-.824-2.163-1.751-2.958-2.781-.765-1.06-1.148-2.34-1.148-3.842 0-1.177.236-2.2366.707-3.1785.471-.9714 1.118-1.7956 1.942-2.4725.854-.677 1.87-1.1921 3.047-1.5454 1.177-.3532 2.458-.5298 3.841-.5298 1.413 0 2.679.1913 3.797.574 1.148.3532 2.12.8683 2.914 1.5453.795.6476 1.398 1.457 1.81 2.4284.442.9419.663 1.9868.663 3.1345 0 1.325-.398 2.502-1.192 3.532-.766 1.031-1.708 1.899-2.826 2.605v.177c.736.353 1.428.765 2.075 1.236.648.442 1.207.957 1.678 1.546.471.588.839 1.265 1.104 2.031.265.735.397 1.574.397 2.516 0 1.119-.235 2.149-.706 3.091-.471.942-1.163 1.766-2.076 2.472-.883.677-1.986 1.222-3.311 1.634-1.325.383-2.84.574-4.548.574zm1.943-16.866c1.413-1.266 2.119-2.635 2.119-4.106 0-1.089-.338-1.9576-1.015-2.6052-.677-.677-1.663-1.0155-2.958-1.0155-1.031 0-1.914.2649-2.649.7947-.707.5299-1.06 1.3393-1.06 2.428 0 1.148.515 2.046 1.545 2.694 1.03.647 2.37 1.251 4.018 1.81zm-1.766 12.362c1.325 0 2.384-.279 3.179-.838.824-.589 1.236-1.472 1.236-2.65 0-.647-.162-1.192-.485-1.633-.324-.442-.795-.839-1.413-1.192-.589-.383-1.295-.721-2.12-1.016-.824-.324-1.736-.677-2.737-1.059-.795.588-1.457 1.251-1.987 1.986-.5.736-.75 1.56-.75 2.473 0 1.236.485 2.207 1.457 2.914.971.677 2.178 1.015 3.62 1.015z" fill="url(#paint4_linear)"/>
  <path d="M49.4455 59.2527l-1.8165-1.2489 2.7532-4.4561-4.3426-1.9301.6528-2.0152 4.5981 1.2205.3406-5.0523h2.2139l.3406 5.0523 4.5981-1.2205.6528 2.0152-4.3427 1.9301 2.7532 4.4561-1.8165 1.2489-3.2925-4.0304-3.2925 4.0304zM103.058 59.2527l-1.816-1.2489 2.753-4.4561-4.3427-1.9301.6527-2.0152 4.598 1.2205.341-5.0523h2.214l.34 5.0523 4.598-1.2205.653 2.0152-4.342 1.9301 2.753 4.4561-1.817 1.2489-3.292-4.0304-3.293 4.0304z" fill="#000"/>
  <defs>
    <linearGradient id="paint0_linear" x1="80.5" y1="93.1898" x2="80.5" y2="122.286" gradientUnits="userSpaceOnUse">
      <stop stop-color="#20F"/>
      <stop offset="1" stop-color="#9E00FF"/>
    </linearGradient>
    <linearGradient id="paint1_linear" x1="80.5" y1="93.1898" x2="80.5" y2="122.286" gradientUnits="userSpaceOnUse">
      <stop stop-color="#20F"/>
      <stop offset="1" stop-color="#9E00FF"/>
    </linearGradient>
    <linearGradient id="paint2_linear" x1="80.5" y1="93.1898" x2="80.5" y2="122.286" gradientUnits="userSpaceOnUse">
      <stop stop-color="#20F"/>
      <stop offset="1" stop-color="#9E00FF"/>
    </linearGradient>
    <linearGradient id="paint3_linear" x1="80.5" y1="93.1898" x2="80.5" y2="122.286" gradientUnits="userSpaceOnUse">
      <stop stop-color="#20F"/>
      <stop offset="1" stop-color="#9E00FF"/>
    </linearGradient>
    <linearGradient id="paint4_linear" x1="80.5" y1="93.1898" x2="80.5" y2="122.286" gradientUnits="userSpaceOnUse">
      <stop stop-color="#20F"/>
      <stop offset="1" stop-color="#9E00FF"/>
    </linearGradient>
  </defs>
</svg>
