<svg width="160" height="160" fill="none" xmlns="http://www.w3.org/2000/svg">
  <path d="M16 80c0 16.9739 6.7428 33.253 18.7452 45.255C46.7475 137.257 63.0261 144 80 144c16.9739 0 33.253-6.743 45.255-18.745C137.257 113.253 144 96.9739 144 80c0-16.9739-6.743-33.2525-18.745-45.2548C113.253 22.7428 96.9739 16 80 16c-16.9739 0-33.2525 6.7428-45.2548 18.7452C22.7428 46.7475 16 63.0261 16 80z" fill="#CDF2FF"/>
  <path d="M43.404 72c.0747-1.4747.2147-2.828.42-4.06.224-1.2507.532-2.436.924-3.556.4107-1.1387.9333-2.24 1.568-3.304.6347-1.0827 1.4187-2.212 2.352-3.388h-8.932V54.22h13.356v2.52c-1.12 1.2507-2.0253 2.4267-2.716 3.528-.6907 1.0827-1.232 2.212-1.624 3.388-.392 1.1573-.672 2.408-.84 3.752-.168 1.3253-.2893 2.856-.364 4.592h-4.144zm29.7981 0v-2.352c1.2694-1.064 2.4267-2.0533 3.472-2.968 1.0454-.9333 1.9414-1.8013 2.688-2.604.7467-.8027 1.3254-1.5587 1.736-2.268.4107-.7093.616-1.3813.616-2.016 0-.8773-.252-1.54-.756-1.988-.504-.4667-1.2226-.7-2.156-.7-.7093 0-1.3626.1867-1.96.56-.5786.3547-1.12.7747-1.624 1.26l-2.212-2.212c.4667-.4667.924-.8773 1.372-1.232.4667-.3547.952-.644 1.456-.868a7.193 7.193 0 011.624-.532c.5787-.1307 1.2134-.196 1.904-.196.9334 0 1.7827.14 2.548.42.7654.2613 1.4187.644 1.96 1.148.56.4853.9894 1.0733 1.288 1.764.3174.6907.476 1.4653.476 2.324 0 .7467-.1773 1.512-.532 2.296-.3546.7653-.84 1.54-1.456 2.324-.5973.7653-1.288 1.54-2.072 2.324a58.1691 58.1691 0 01-2.464 2.268 35.3374 35.3374 0 011.624-.14c.5974-.056 1.1294-.084 1.596-.084h4.228V72h-13.356zm40.3259.336c-1.026 0-1.95-.112-2.772-.336-.821-.2427-1.521-.5787-2.1-1.008-.578-.4293-1.026-.9427-1.344-1.54-.298-.5973-.448-1.26-.448-1.988 0-.5413.084-1.0267.252-1.456.187-.448.43-.8493.728-1.204a6.49 6.49 0 011.064-.952c.411-.28.85-.532 1.316-.756v-.112c-.746-.5227-1.372-1.1107-1.876-1.764-.485-.672-.728-1.484-.728-2.436 0-.7467.15-1.4187.448-2.016.299-.616.71-1.1387 1.232-1.568.542-.4293 1.186-.756 1.932-.98.747-.224 1.559-.336 2.436-.336.896 0 1.699.1213 2.408.364.728.224 1.344.5507 1.848.98.504.4107.887.924 1.148 1.54.28.5973.42 1.26.42 1.988 0 .84-.252 1.5867-.756 2.24-.485.6533-1.082 1.204-1.792 1.652v.112c.467.224.906.4853 1.316.784.411.28.766.6067 1.064.98.299.3733.532.8027.7 1.288.168.4667.252.9987.252 1.596 0 .7093-.149 1.3627-.448 1.96-.298.5973-.737 1.12-1.316 1.568-.56.4293-1.26.7747-2.1 1.036-.84.2427-1.801.364-2.884.364zm1.232-10.696c.896-.8027 1.344-1.6707 1.344-2.604 0-.6907-.214-1.2413-.644-1.652-.429-.4293-1.054-.644-1.876-.644-.653 0-1.213.168-1.68.504-.448.336-.672.8493-.672 1.54 0 .728.327 1.2973.98 1.708.654.4107 1.503.7933 2.548 1.148zm-1.12 7.84c.84 0 1.512-.1773 2.016-.532.523-.3733.784-.9333.784-1.68 0-.4107-.102-.756-.308-1.036-.205-.28-.504-.532-.896-.756-.373-.2427-.821-.4573-1.344-.644-.522-.2053-1.101-.4293-1.736-.672-.504.3733-.924.7933-1.26 1.26-.317.4667-.476.9893-.476 1.568 0 .784.308 1.4.924 1.848.616.4293 1.382.644 2.296.644z" fill="#271B72"/>
  <path d="M43.404 107c.0747-1.475.2147-2.828.42-4.06.224-1.251.532-2.436.924-3.556.4107-1.1387.9333-2.24 1.568-3.304.6347-1.0827 1.4187-2.212 2.352-3.388h-8.932V89.22h13.356v2.52c-1.12 1.2507-2.0253 2.4267-2.716 3.528-.6907 1.0827-1.232 2.212-1.624 3.388-.392 1.1573-.672 2.408-.84 3.752-.168 1.325-.2893 2.856-.364 4.592h-4.144zm13.5971 0v-3.332h4.788V93.392h-3.948v-2.548c.5973-.0933 1.1293-.1867 1.596-.28.4853-.112.924-.2333 1.316-.364.392-.1307.756-.2707 1.092-.42.3546-.168.7-.3547 1.036-.56h3.024v14.448h4.032V107h-12.936zm16.201 0v-2.352c1.2694-1.064 2.4267-2.053 3.472-2.968 1.0454-.933 1.9414-1.8013 2.688-2.604.7467-.8027 1.3254-1.5587 1.736-2.268.4107-.7093.616-1.3813.616-2.016 0-.8773-.252-1.54-.756-1.988-.504-.4667-1.2226-.7-2.156-.7-.7093 0-1.3626.1867-1.96.56-.5786.3547-1.12.7747-1.624 1.26l-2.212-2.212c.4667-.4667.924-.8773 1.372-1.232.4667-.3547.952-.644 1.456-.868a7.193 7.193 0 011.624-.532c.5787-.1307 1.2134-.196 1.904-.196.9334 0 1.7827.14 2.548.42.7654.2613 1.4187.644 1.96 1.148.56.4853.9894 1.0733 1.288 1.764.3174.6907.476 1.4653.476 2.324 0 .7467-.1773 1.512-.532 2.296-.3546.7653-.84 1.54-1.456 2.324-.5973.7653-1.288 1.54-2.072 2.324a58.5711 58.5711 0 01-2.464 2.268c.504-.056 1.0454-.103 1.624-.14.5974-.056 1.1294-.084 1.596-.084h4.228V107h-13.356zm23.5651.336c-1.0267 0-1.96-.196-2.8-.588-.84-.411-1.5587-1.008-2.156-1.792-.5973-.784-1.064-1.755-1.4-2.912-.3173-1.157-.476-2.492-.476-4.004 0-1.512.1587-2.8373.476-3.976.336-1.1387.8027-2.0907 1.4-2.856.5973-.784 1.316-1.3627 2.156-1.736.84-.392 1.7733-.588 2.8-.588 1.0267 0 1.96.196 2.8.588.8398.3733 1.5588.952 2.1558 1.736.598.7653 1.055 1.7173 1.372 2.856.336 1.1387.504 2.464.504 3.976s-.168 2.847-.504 4.004c-.317 1.157-.774 2.128-1.372 2.912-.597.784-1.316 1.381-2.1558 1.792-.84.392-1.7733.588-2.8.588zm0-3.192c.448 0 .8587-.103 1.232-.308.392-.205.728-.541 1.008-1.008.28-.485.504-1.111.672-1.876.168-.784.252-1.7547.252-2.912s-.084-2.1187-.252-2.884c-.168-.7653-.392-1.372-.672-1.82-.28-.4667-.616-.7933-1.008-.98-.3733-.1867-.784-.28-1.232-.28-.448 0-.868.0933-1.26.28-.3733.1867-.7.5133-.98.98-.28.448-.504 1.0547-.672 1.82-.168.7653-.252 1.7267-.252 2.884s.084 2.128.252 2.912c.168.765.392 1.391.672 1.876.28.467.6067.803.98 1.008.392.205.812.308 1.26.308zm0-4.032c-.5973 0-1.1013-.1867-1.512-.56-.392-.392-.588-.9147-.588-1.568 0-.6533.196-1.1667.588-1.54.4107-.392.9147-.588 1.512-.588s1.092.196 1.484.588c.4107.3733.616.8867.616 1.54s-.2053 1.176-.616 1.568c-.392.3733-.8867.56-1.484.56zm16.7608 7.224c-1.026 0-1.95-.112-2.772-.336-.821-.243-1.521-.579-2.1-1.008-.578-.429-1.026-.943-1.344-1.54-.298-.597-.448-1.26-.448-1.988 0-.541.084-1.027.252-1.456.187-.448.43-.849.728-1.204a6.49 6.49 0 011.064-.952c.411-.28.85-.532 1.316-.756v-.112c-.746-.5227-1.372-1.1107-1.876-1.764-.485-.672-.728-1.484-.728-2.436 0-.7467.15-1.4187.448-2.016.299-.616.71-1.1387 1.232-1.568.542-.4293 1.186-.756 1.932-.98.747-.224 1.559-.336 2.436-.336.896 0 1.699.1213 2.408.364.728.224 1.344.5507 1.848.98.504.4107.887.924 1.148 1.54.28.5973.42 1.26.42 1.988 0 .84-.252 1.5867-.756 2.24-.485.6533-1.082 1.204-1.792 1.652v.112c.467.224.906.4853 1.316.784.411.28.766.6067 1.064.98.299.3733.532.803.7 1.288.168.467.252.999.252 1.596 0 .709-.149 1.363-.448 1.96-.298.597-.737 1.12-1.316 1.568-.56.429-1.26.775-2.1 1.036-.84.243-1.801.364-2.884.364zm1.232-10.696c.896-.8027 1.344-1.6707 1.344-2.604 0-.6907-.214-1.2413-.644-1.652-.429-.4293-1.054-.644-1.876-.644-.653 0-1.213.168-1.68.504-.448.336-.672.8493-.672 1.54 0 .728.327 1.2973.98 1.708.654.4107 1.503.7933 2.548 1.148zm-1.12 7.84c.84 0 1.512-.177 2.016-.532.523-.373.784-.933.784-1.68 0-.411-.102-.756-.308-1.036-.205-.28-.504-.532-.896-.756-.373-.243-.821-.457-1.344-.644-.522-.2053-1.101-.4293-1.736-.672-.504.3733-.924.7933-1.26 1.26-.317.467-.476.989-.476 1.568 0 .784.308 1.4.924 1.848.616.429 1.382.644 2.296.644z" fill="url(#paint0_linear)"/>
  <path d="M60.312 67.362l-1.152-.792 1.746-2.826-2.754-1.224.414-1.278 2.916.774.216-3.204h1.404l.216 3.204 2.916-.774.414 1.278-2.754 1.224 1.746 2.826-1.152.792-2.088-2.556-2.088 2.556zM94.312 67.362l-1.152-.792 1.746-2.826-2.754-1.224.414-1.278 2.916.774.216-3.204h1.404l.216 3.204 2.916-.774.414 1.278-2.754 1.224 1.746 2.826-1.152.792-2.088-2.556-2.088 2.556z" fill="#000"/>
  <defs>
    <linearGradient id="paint0_linear" x1="80" y1="80" x2="80" y2="115" gradientUnits="userSpaceOnUse">
      <stop stop-color="#20F"/>
      <stop offset="1" stop-color="#9E00FF"/>
    </linearGradient>
  </defs>
</svg>
