<svg width="128" height="128" viewBox="0 0 128 128" fill="none" xmlns="http://www.w3.org/2000/svg">
<circle cx="64" cy="64" r="64" fill="#C7F0FF"/>
<g clip-path="url(#clip0)">
<path d="M107.704 102.205V109.701C107.704 110.526 107.029 111.201 106.205 111.201H22.2489C21.4246 111.201 20.7496 110.526 20.7496 109.701V102.205L21.6646 103.584C21.8433 103.659 22.0394 103.704 22.2489 103.704H93.4619H106.205L107.704 102.205Z" fill="#965353"/>
<g opacity="0.2">
<g opacity="0.2">
<path opacity="0.2" d="M107.704 102.205V109.701C107.704 110.526 107.029 111.201 106.205 111.201H22.2489C21.4246 111.201 20.7496 110.526 20.7496 109.701V102.205L21.6646 103.584C21.8433 103.659 22.0394 103.704 22.2489 103.704H93.4619H106.205L107.704 102.205Z" fill="black"/>
</g>
</g>
<g opacity="0.2">
<g opacity="0.2">
<g opacity="0.2">
<path opacity="0.2" d="M23.7481 109.701V97.7074V25.7449C23.7481 24.9206 24.4231 24.2456 25.2474 24.2456H22.2489C21.4246 24.2456 20.7496 24.9206 20.7496 25.7449V97.7074V109.701C20.7496 110.316 21.1244 110.855 21.6646 111.08C21.8433 111.155 22.0394 111.2 22.2489 111.2H25.2474C25.0379 111.2 24.8418 111.155 24.6631 111.08C24.1228 110.855 23.7481 110.316 23.7481 109.701Z" fill="white"/>
</g>
</g>
</g>
<g opacity="0.2">
<g opacity="0.2">
<g opacity="0.2">
<path opacity="0.2" d="M104.706 109.701V97.7074V25.7449C104.706 24.9206 104.031 24.2456 103.207 24.2456H106.205C107.029 24.2456 107.704 24.9206 107.704 25.7449V97.7074V109.701C107.704 110.316 107.33 110.855 106.789 111.08C106.611 111.155 106.414 111.2 106.205 111.2H103.207C103.416 111.2 103.612 111.155 103.791 111.08C104.331 110.855 104.706 110.316 104.706 109.701Z" fill="black"/>
</g>
</g>
</g>
<path d="M100.208 24.2456H28.2456V96.2081H100.208V24.2456Z" fill="#E6E9ED"/>
<path d="M40.2394 24.2456H28.2456V36.2394H40.2394V24.2456Z" fill="#656D78"/>
<path d="M64.2272 24.2456H52.2334V36.2394H64.2272V24.2456Z" fill="#656D78"/>
<path d="M88.2146 24.2456H76.2208V36.2394H88.2146V24.2456Z" fill="#656D78"/>
<path d="M76.2206 36.2378H64.2269V48.2316H76.2206V36.2378Z" fill="#656D78"/>
<path d="M100.208 36.2378H88.2146V48.2316H100.208V36.2378Z" fill="#656D78"/>
<path d="M52.2332 36.2393H40.2394V48.2331H52.2332V36.2393Z" fill="#656D78"/>
<path d="M40.2394 48.2334H28.2456V60.227H40.2394V48.2334Z" fill="#656D78"/>
<path d="M40.2394 72.2207H28.2456V84.2145H40.2394V72.2207Z" fill="#656D78"/>
<path d="M52.2332 60.2266H40.2394V72.2202H52.2332V60.2266Z" fill="#656D78"/>
<path d="M64.2272 48.2334H52.2334V60.227H64.2272V48.2334Z" fill="#656D78"/>
<path d="M100.208 84.2146V96.2084H93.462H88.2146V84.2146H100.208Z" fill="#656D78"/>
<path d="M100.208 60.2266H88.2146V72.2202H100.208V60.2266Z" fill="#656D78"/>
<path d="M106.205 16.7495H22.2489C21.4246 16.7495 20.7496 17.4245 20.7496 18.2488V90.2114V102.205C20.7496 102.82 21.1244 103.359 21.6646 103.584C21.8433 103.659 22.0394 103.704 22.2489 103.704H93.4619H106.205C107.029 103.704 107.704 103.029 107.704 102.205V18.2488C107.704 17.4243 107.029 16.7495 106.205 16.7495ZM100.208 36.2394V48.2332V60.2268V72.2204V84.2143V96.2081H93.4619H88.2146H76.2208H64.2269H52.2331H40.2393H28.2457V90.2114V84.2144V72.2206V60.2268V48.2332V36.2394V24.2456H40.2395H52.2333H64.2269H76.2206H88.2144H100.208V36.2394Z" fill="#965353"/>
<g opacity="0.2">
<g opacity="0.2">
<g opacity="0.2">
<path opacity="0.2" d="M23.7481 102.205V90.2114V18.2488C23.7481 17.4245 24.4231 16.7495 25.2474 16.7495H22.2489C21.4246 16.7495 20.7496 17.4245 20.7496 18.2488V90.2114V102.205C20.7496 102.82 21.1244 103.359 21.6646 103.584C21.8433 103.659 22.0394 103.704 22.2489 103.704H25.2474C25.0379 103.704 24.8418 103.659 24.6631 103.584C24.1228 103.359 23.7481 102.82 23.7481 102.205Z" fill="white"/>
</g>
</g>
</g>
<g opacity="0.2">
<g opacity="0.2">
<g opacity="0.2">
<path opacity="0.2" d="M104.706 102.205V90.2114V18.2488C104.706 17.4245 104.031 16.7495 103.207 16.7495H106.205C107.029 16.7495 107.704 17.4245 107.704 18.2488V90.2114V102.205C107.704 102.82 107.33 103.359 106.789 103.584C106.611 103.659 106.414 103.704 106.205 103.704H103.207C103.416 103.704 103.612 103.659 103.791 103.584C104.331 103.359 104.706 102.82 104.706 102.205Z" fill="black"/>
</g>
</g>
</g>
<path d="M88.2146 72.2207H76.2208V84.2145H88.2146V72.2207Z" fill="#656D78"/>
<path d="M88.2146 48.2334H76.2208V60.227H88.2146V48.2334Z" fill="#656D78"/>
<path d="M76.2206 84.2146H64.2269V96.2084H76.2206V84.2146Z" fill="#656D78"/>
<path d="M76.2206 60.2266H64.2269V72.2202H76.2206V60.2266Z" fill="#656D78"/>
<path d="M64.2272 72.2207H52.2334V84.2145H64.2272V72.2207Z" fill="#656D78"/>
<path d="M52.2332 84.2146H40.2394V96.2084H52.2332V84.2146Z" fill="#656D78"/>
<path d="M46.2363 93.2099C47.8923 93.2099 49.2348 91.8674 49.2348 90.2114C49.2348 88.5554 47.8923 87.2129 46.2363 87.2129C44.5803 87.2129 43.2378 88.5554 43.2378 90.2114C43.2378 91.8674 44.5803 93.2099 46.2363 93.2099Z" fill="#FFD2A6"/>
<path d="M70.2238 93.21C71.8797 93.21 73.2221 91.8676 73.2221 90.2117C73.2221 88.5558 71.8797 87.2134 70.2238 87.2134C68.5679 87.2134 67.2255 88.5558 67.2255 90.2117C67.2255 91.8676 68.5679 93.21 70.2238 93.21Z" fill="#FFD2A6"/>
<path d="M94.2114 93.21C95.8674 93.21 97.2098 91.8676 97.2098 90.2117C97.2098 88.5558 95.8674 87.2134 94.2114 87.2134C92.5555 87.2134 91.2131 88.5558 91.2131 90.2117C91.2131 91.8676 92.5555 93.21 94.2114 93.21Z" fill="#FFD2A6"/>
<path d="M82.2176 81.2159C83.8735 81.2159 85.2159 79.8735 85.2159 78.2176C85.2159 76.5616 83.8735 75.2192 82.2176 75.2192C80.5616 75.2192 79.2192 76.5616 79.2192 78.2176C79.2192 79.8735 80.5616 81.2159 82.2176 81.2159Z" fill="#FFD2A6"/>
<path d="M58.2301 81.216C59.8861 81.216 61.2286 79.8735 61.2286 78.2175C61.2286 76.5615 59.8861 75.219 58.2301 75.219C56.574 75.219 55.2316 76.5615 55.2316 78.2175C55.2316 79.8735 56.574 81.216 58.2301 81.216Z" fill="#FFD2A6"/>
<path d="M46.2363 69.2226C47.8923 69.2226 49.2348 67.8801 49.2348 66.2241C49.2348 64.5681 47.8923 63.2256 46.2363 63.2256C44.5803 63.2256 43.2378 64.5681 43.2378 66.2241C43.2378 67.8801 44.5803 69.2226 46.2363 69.2226Z" fill="#FFD2A6"/>
<path d="M34.2426 33.2411C35.8987 33.2411 37.2411 31.8987 37.2411 30.2426C37.2411 28.5866 35.8987 27.2441 34.2426 27.2441C32.5866 27.2441 31.2441 28.5866 31.2441 30.2426C31.2441 31.8987 32.5866 33.2411 34.2426 33.2411Z" fill="#ED5565"/>
<g opacity="0.3">
<g opacity="0.3">
<path opacity="0.3" d="M32.7434 30.2426C32.7434 28.8475 33.701 27.6848 34.9923 27.3503C34.7506 27.288 34.5033 27.2441 34.2426 27.2441C32.5866 27.2441 31.2441 28.5868 31.2441 30.2426C31.2441 31.8984 32.5868 33.2409 34.2426 33.2409C34.5033 33.2409 34.7506 33.1971 34.9923 33.1348C33.701 32.8003 32.7434 31.6378 32.7434 30.2426Z" fill="white"/>
</g>
</g>
<g opacity="0.2">
<g opacity="0.2">
<path opacity="0.2" d="M35.7418 30.2426C35.7418 31.6378 34.7842 32.8003 33.4929 33.1348C33.7344 33.1971 33.9819 33.2409 34.2425 33.2409C35.8984 33.2409 37.2409 31.8984 37.2409 30.2426C37.2409 28.5866 35.8984 27.2441 34.2425 27.2441C33.9819 27.2441 33.7344 27.288 33.4929 27.3503C34.7842 27.6848 35.7418 28.8473 35.7418 30.2426Z" fill="black"/>
</g>
</g>
<path d="M58.2301 33.2411C59.8861 33.2411 61.2286 31.8987 61.2286 30.2426C61.2286 28.5866 59.8861 27.2441 58.2301 27.2441C56.574 27.2441 55.2316 28.5866 55.2316 30.2426C55.2316 31.8987 56.574 33.2411 58.2301 33.2411Z" fill="#ED5565"/>
<path d="M70.2238 45.2334C71.8797 45.2334 73.2221 43.8911 73.2221 42.2351C73.2221 40.5792 71.8797 39.2368 70.2238 39.2368C68.5679 39.2368 67.2255 40.5792 67.2255 42.2351C67.2255 43.8911 68.5679 45.2334 70.2238 45.2334Z" fill="#ED5565"/>
<g opacity="0.3">
<g opacity="0.3">
<path opacity="0.3" d="M56.7308 30.2426C56.7308 28.8475 57.6882 27.6848 58.9797 27.3503C58.738 27.288 58.4907 27.2441 58.2301 27.2441C56.5741 27.2441 55.2316 28.5868 55.2316 30.2426C55.2316 31.8984 56.5743 33.2409 58.2301 33.2409C58.4907 33.2409 58.738 33.1971 58.9797 33.1348C57.6882 32.8003 56.7308 31.6378 56.7308 30.2426Z" fill="white"/>
</g>
</g>
<g opacity="0.2">
<g opacity="0.2">
<path opacity="0.2" d="M59.7295 30.2426C59.7295 31.6378 58.7719 32.8003 57.4806 33.1348C57.7221 33.1971 57.9696 33.2409 58.2302 33.2409C59.886 33.2409 61.2285 31.8984 61.2285 30.2426C61.2285 28.5866 59.886 27.2441 58.2302 27.2441C57.9696 27.2441 57.7221 27.288 57.4806 27.3503C58.7719 27.6848 59.7295 28.8473 59.7295 30.2426Z" fill="black"/>
</g>
</g>
<path d="M94.2114 45.2334C95.8674 45.2334 97.2098 43.8911 97.2098 42.2351C97.2098 40.5792 95.8674 39.2368 94.2114 39.2368C92.5555 39.2368 91.2131 40.5792 91.2131 42.2351C91.2131 43.8911 92.5555 45.2334 94.2114 45.2334Z" fill="#ED5565"/>
<path d="M46.2363 45.2333C47.8923 45.2333 49.2348 43.8908 49.2348 42.2348C49.2348 40.5788 47.8923 39.2363 46.2363 39.2363C44.5803 39.2363 43.2378 40.5788 43.2378 42.2348C43.2378 43.8908 44.5803 45.2333 46.2363 45.2333Z" fill="#ED5565"/>
<path d="M82.2176 33.241C83.8735 33.241 85.2159 31.8986 85.2159 30.2427C85.2159 28.5868 83.8735 27.2444 82.2176 27.2444C80.5616 27.2444 79.2192 28.5868 79.2192 30.2427C79.2192 31.8986 80.5616 33.241 82.2176 33.241Z" fill="#ED5565"/>
<g opacity="0.3">
<g opacity="0.3">
<path opacity="0.3" d="M44.737 42.236C44.737 40.8409 45.6944 39.6782 46.9859 39.3437C46.7442 39.2814 46.4969 39.2375 46.2363 39.2375C44.5803 39.2375 43.2378 40.5802 43.2378 42.236C43.2378 43.8919 44.5805 45.2344 46.2363 45.2344C46.4969 45.2344 46.7442 45.1905 46.9859 45.1282C45.6946 44.7937 44.737 43.6312 44.737 42.236Z" fill="white"/>
</g>
</g>
<g opacity="0.2">
<g opacity="0.2">
<path opacity="0.2" d="M47.7356 42.236C47.7356 43.6312 46.778 44.7937 45.4867 45.1282C45.7282 45.1905 45.9757 45.2344 46.2363 45.2344C47.8921 45.2344 49.2346 43.8919 49.2346 42.236C49.2346 40.58 47.8921 39.2375 46.2363 39.2375C45.9757 39.2375 45.7282 39.2814 45.4867 39.3437C46.778 39.6782 47.7356 40.8407 47.7356 42.236Z" fill="black"/>
</g>
</g>
<g opacity="0.5">
<g opacity="0.5">
<path opacity="0.5" d="M44.737 66.224C44.737 64.8288 45.6944 63.6662 46.9859 63.3309C46.7442 63.2694 46.4969 63.2253 46.2363 63.2253C44.5803 63.2253 43.2378 64.5678 43.2378 66.2238C43.2378 67.8797 44.5805 69.2222 46.2363 69.2222C46.4969 69.2222 46.7442 69.1783 46.9859 69.1166C45.6946 68.7817 44.737 67.6194 44.737 66.224Z" fill="white"/>
</g>
</g>
<g opacity="0.2">
<g opacity="0.2">
<path opacity="0.2" d="M47.7356 66.2241C47.7356 67.6193 46.778 68.7818 45.4867 69.1171C45.7282 69.1786 45.9757 69.2227 46.2363 69.2227C47.8921 69.2227 49.2346 67.8802 49.2346 66.2243C49.2346 64.5683 47.8921 63.2258 46.2363 63.2258C45.9757 63.2258 45.7282 63.2697 45.4867 63.3314C46.778 63.6665 47.7356 64.829 47.7356 66.2241Z" fill="black"/>
</g>
</g>
<g opacity="0.5">
<g opacity="0.5">
<path opacity="0.5" d="M56.7308 78.2174C56.7308 76.8223 57.6882 75.6596 58.9797 75.3243C58.738 75.2628 58.4907 75.2188 58.2301 75.2188C56.5741 75.2188 55.2316 76.5612 55.2316 78.2172C55.2316 79.8731 56.5743 81.2156 58.2301 81.2156C58.4907 81.2156 58.738 81.1717 58.9797 81.11C57.6882 80.7751 56.7308 79.6126 56.7308 78.2174Z" fill="white"/>
</g>
</g>
<g opacity="0.2">
<g opacity="0.2">
<path opacity="0.2" d="M59.7295 78.2175C59.7295 79.6127 58.7719 80.7752 57.4806 81.1105C57.7221 81.172 57.9696 81.216 58.2302 81.216C59.886 81.216 61.2285 79.8735 61.2285 78.2177C61.2285 76.5617 59.886 75.2192 58.2302 75.2192C57.9696 75.2192 57.7221 75.2631 57.4806 75.3248C58.7719 75.6597 59.7295 76.8224 59.7295 78.2175Z" fill="black"/>
</g>
</g>
<g opacity="0.5">
<g opacity="0.5">
<path opacity="0.5" d="M80.7185 78.2174C80.7185 76.8223 81.6757 75.6596 82.967 75.3243C82.7257 75.2628 82.4782 75.2188 82.2177 75.2188C80.5617 75.2188 79.2192 76.5612 79.2192 78.2172C79.2192 79.8731 80.5617 81.2156 82.2177 81.2156C82.4782 81.2156 82.7257 81.1717 82.967 81.11C81.6759 80.7751 80.7185 79.6126 80.7185 78.2174Z" fill="white"/>
</g>
</g>
<g opacity="0.2">
<g opacity="0.2">
<path opacity="0.2" d="M83.7166 78.2175C83.7166 79.6127 82.7594 80.7752 81.4681 81.1105C81.7095 81.172 81.9569 81.216 82.2178 81.216C83.8734 81.216 85.2159 79.8735 85.2159 78.2177C85.2159 76.5617 83.8734 75.2192 82.2178 75.2192C81.9569 75.2192 81.7095 75.2631 81.4681 75.3248C82.7594 75.6597 83.7166 76.8224 83.7166 78.2175Z" fill="black"/>
</g>
</g>
<g opacity="0.5">
<g opacity="0.5">
<path opacity="0.5" d="M92.7124 90.2116C92.7124 88.8164 93.6696 87.6537 94.9609 87.3185C94.7196 87.257 94.4721 87.2129 94.2113 87.2129C92.5556 87.2129 91.2131 88.5554 91.2131 90.2114C91.2131 91.8672 92.5556 93.2097 94.2113 93.2097C94.4721 93.2097 94.7196 93.1658 94.9609 93.1041C93.6696 92.7691 92.7124 91.6068 92.7124 90.2116Z" fill="white"/>
</g>
</g>
<g opacity="0.2">
<g opacity="0.2">
<path opacity="0.2" d="M95.7104 90.2117C95.7104 91.6069 94.7532 92.7694 93.4619 93.1046C93.7032 93.1661 93.9507 93.2102 94.2112 93.2102C95.8672 93.2102 97.2097 91.8677 97.2097 90.2119C97.2097 88.5559 95.8672 87.2134 94.2112 87.2134C93.9507 87.2134 93.7032 87.2573 93.4619 87.3189C94.7532 87.6538 95.7104 88.8163 95.7104 90.2117Z" fill="black"/>
</g>
</g>
<g opacity="0.5">
<g opacity="0.5">
<path opacity="0.5" d="M68.7247 90.2116C68.7247 88.8164 69.6819 87.6537 70.9732 87.3185C70.7319 87.257 70.4844 87.2129 70.224 87.2129C68.568 87.2129 67.2255 88.5554 67.2255 90.2114C67.2255 91.8672 68.568 93.2097 70.224 93.2097C70.4844 93.2097 70.7319 93.1658 70.9732 93.1041C69.6821 92.7691 68.7247 91.6068 68.7247 90.2116Z" fill="white"/>
</g>
</g>
<g opacity="0.2">
<g opacity="0.2">
<path opacity="0.2" d="M71.7231 90.2117C71.7231 91.6069 70.7659 92.7694 69.4746 93.1046C69.7159 93.1661 69.9634 93.2102 70.2242 93.2102C71.8799 93.2102 73.2224 91.8677 73.2224 90.2119C73.2224 88.5559 71.8799 87.2134 70.2242 87.2134C69.9634 87.2134 69.7159 87.2573 69.4746 87.3189C70.7657 87.6538 71.7231 88.8163 71.7231 90.2117Z" fill="black"/>
</g>
</g>
<g opacity="0.5">
<g opacity="0.5">
<path opacity="0.5" d="M44.737 90.2116C44.737 88.8164 45.6944 87.6537 46.9859 87.3185C46.7442 87.257 46.4969 87.2129 46.2363 87.2129C44.5803 87.2129 43.2378 88.5554 43.2378 90.2114C43.2378 91.8672 44.5805 93.2097 46.2363 93.2097C46.4969 93.2097 46.7442 93.1658 46.9859 93.1041C45.6946 92.7691 44.737 91.6068 44.737 90.2116Z" fill="white"/>
</g>
</g>
<g opacity="0.2">
<g opacity="0.2">
<path opacity="0.2" d="M47.7356 90.2117C47.7356 91.6069 46.778 92.7694 45.4867 93.1046C45.7282 93.1661 45.9757 93.2102 46.2363 93.2102C47.8921 93.2102 49.2346 91.8677 49.2346 90.2119C49.2346 88.5559 47.8921 87.2134 46.2363 87.2134C45.9757 87.2134 45.7282 87.2573 45.4867 87.3189C46.778 87.6538 47.7356 88.8163 47.7356 90.2117Z" fill="black"/>
</g>
</g>
<g opacity="0.3">
<g opacity="0.3">
<path opacity="0.3" d="M68.7247 42.236C68.7247 40.8409 69.6819 39.6782 70.9732 39.3437C70.7319 39.2814 70.4844 39.2375 70.224 39.2375C68.568 39.2375 67.2255 40.5802 67.2255 42.236C67.2255 43.8919 68.568 45.2344 70.224 45.2344C70.4844 45.2344 70.7319 45.1905 70.9732 45.1282C69.6821 44.7937 68.7247 43.6312 68.7247 42.236Z" fill="white"/>
</g>
</g>
<g opacity="0.2">
<g opacity="0.2">
<path opacity="0.2" d="M71.7231 42.236C71.7231 43.6312 70.7659 44.7937 69.4746 45.1282C69.7159 45.1905 69.9634 45.2344 70.2242 45.2344C71.8799 45.2344 73.2224 43.8919 73.2224 42.236C73.2224 40.58 71.8799 39.2375 70.2242 39.2375C69.9634 39.2375 69.7159 39.2814 69.4746 39.3437C70.7657 39.6782 71.7231 40.8407 71.7231 42.236Z" fill="black"/>
</g>
</g>
<g opacity="0.3">
<g opacity="0.3">
<path opacity="0.3" d="M92.7124 42.236C92.7124 40.8409 93.6696 39.6782 94.9609 39.3437C94.7196 39.2814 94.4721 39.2375 94.2113 39.2375C92.5556 39.2375 91.2131 40.5802 91.2131 42.236C91.2131 43.8919 92.5556 45.2344 94.2113 45.2344C94.4721 45.2344 94.7196 45.1905 94.9609 45.1282C93.6696 44.7937 92.7124 43.6312 92.7124 42.236Z" fill="white"/>
</g>
</g>
<g opacity="0.2">
<g opacity="0.2">
<path opacity="0.2" d="M95.7104 42.236C95.7104 43.6312 94.7532 44.7937 93.4619 45.1282C93.7032 45.1905 93.9507 45.2344 94.2112 45.2344C95.8672 45.2344 97.2097 43.8919 97.2097 42.236C97.2097 40.58 95.8672 39.2375 94.2112 39.2375C93.9507 39.2375 93.7032 39.2814 93.4619 39.3437C94.7532 39.6782 95.7104 40.8407 95.7104 42.236Z" fill="black"/>
</g>
</g>
<g opacity="0.3">
<g opacity="0.3">
<path opacity="0.3" d="M80.7185 30.2426C80.7185 28.8475 81.6757 27.6848 82.967 27.3503C82.7257 27.288 82.4782 27.2441 82.2177 27.2441C80.5617 27.2441 79.2192 28.5868 79.2192 30.2426C79.2192 31.8984 80.5617 33.2409 82.2177 33.2409C82.4782 33.2409 82.7257 33.1971 82.967 33.1348C81.6759 32.8003 80.7185 31.6378 80.7185 30.2426Z" fill="white"/>
</g>
</g>
<g opacity="0.2">
<g opacity="0.2">
<path opacity="0.2" d="M83.7166 30.2426C83.7166 31.6378 82.7594 32.8003 81.4681 33.1348C81.7095 33.1971 81.9569 33.2409 82.2178 33.2409C83.8734 33.2409 85.2159 31.8984 85.2159 30.2426C85.2159 28.5866 83.8734 27.2441 82.2178 27.2441C81.9569 27.2441 81.7095 27.288 81.4681 27.3503C82.7594 27.6848 83.7166 28.8473 83.7166 30.2426Z" fill="black"/>
</g>
</g>
<path d="M40.2395 36.9892H28.2457C27.8313 36.9892 27.4961 36.6539 27.4961 36.2395V24.2457C27.4961 23.8313 27.8313 23.4961 28.2457 23.4961H40.2395C40.6539 23.4961 40.9892 23.8313 40.9892 24.2457V36.2395C40.9892 36.6539 40.6539 36.9892 40.2395 36.9892ZM28.9953 35.4899H39.4899V24.9953H28.9953V35.4899Z" fill="#3A3847"/>
<path d="M52.2332 36.9892H40.2394C39.825 36.9892 39.4897 36.6539 39.4897 36.2395V24.2457C39.4897 23.8313 39.825 23.4961 40.2394 23.4961H52.2332C52.6474 23.4961 52.9828 23.8313 52.9828 24.2457V36.2395C52.9828 36.6539 52.6474 36.9892 52.2332 36.9892ZM40.989 35.4899H51.4836V24.9953H40.989V35.4899Z" fill="#3A3847"/>
<path d="M64.227 36.9892H52.2331C51.8188 36.9892 51.4835 36.6539 51.4835 36.2395V24.2457C51.4835 23.8313 51.8188 23.4961 52.2331 23.4961H64.227C64.641 23.4961 64.9766 23.8313 64.9766 24.2457V36.2395C64.9766 36.6539 64.6411 36.9892 64.227 36.9892ZM52.983 35.4899H63.4775V24.9953H52.983V35.4899Z" fill="#3A3847"/>
<path d="M76.2208 36.9892H64.2269C63.8125 36.9892 63.4773 36.6539 63.4773 36.2395V24.2457C63.4773 23.8313 63.8125 23.4961 64.2269 23.4961H76.2206C76.6348 23.4961 76.9702 23.8313 76.9702 24.2457V36.2395C76.9704 36.6539 76.6349 36.9892 76.2208 36.9892ZM64.9765 35.4899H75.4711V24.9953H64.9765V35.4899Z" fill="#3A3847"/>
<path d="M88.2146 36.9892H76.2208C75.8066 36.9892 75.4712 36.6539 75.4712 36.2395V24.2457C75.4712 23.8313 75.8066 23.4961 76.2208 23.4961H88.2146C88.6288 23.4961 88.9643 23.8313 88.9643 24.2457V36.2395C88.9643 36.6539 88.6288 36.9892 88.2146 36.9892ZM76.9704 35.4899H87.465V24.9953H76.9704V35.4899Z" fill="#3A3847"/>
<path d="M100.208 36.9892H88.2145C87.8003 36.9892 87.4648 36.6539 87.4648 36.2395V24.2457C87.4648 23.8313 87.8003 23.4961 88.2145 23.4961H100.208C100.622 23.4961 100.958 23.8313 100.958 24.2457V36.2395C100.958 36.6539 100.622 36.9892 100.208 36.9892ZM88.9643 35.4899H99.4588V24.9953H88.9643V35.4899Z" fill="#3A3847"/>
<path d="M40.2395 48.9828H28.2457C27.8313 48.9828 27.4961 48.6475 27.4961 48.2332V36.2394C27.4961 35.825 27.8313 35.4897 28.2457 35.4897H40.2395C40.6539 35.4897 40.9892 35.825 40.9892 36.2394V48.2332C40.9892 48.6474 40.6539 48.9828 40.2395 48.9828ZM28.9953 47.4836H39.4899V36.989H28.9953V47.4836Z" fill="#3A3847"/>
<path d="M52.2332 48.9828H40.2394C39.825 48.9828 39.4897 48.6475 39.4897 48.2332V36.2394C39.4897 35.825 39.825 35.4897 40.2394 35.4897H52.2332C52.6474 35.4897 52.9828 35.825 52.9828 36.2394V48.2332C52.9828 48.6474 52.6474 48.9828 52.2332 48.9828ZM40.989 47.4836H51.4836V36.989H40.989V47.4836Z" fill="#3A3847"/>
<path d="M64.227 48.9828H52.2331C51.8188 48.9828 51.4835 48.6475 51.4835 48.2332V36.2394C51.4835 35.825 51.8188 35.4897 52.2331 35.4897H64.227C64.641 35.4897 64.9766 35.825 64.9766 36.2394V48.2332C64.9766 48.6474 64.6411 48.9828 64.227 48.9828ZM52.983 47.4836H63.4775V36.989H52.983V47.4836Z" fill="#3A3847"/>
<path d="M76.2208 48.9828H64.2269C63.8125 48.9828 63.4773 48.6475 63.4773 48.2332V36.2394C63.4773 35.825 63.8125 35.4897 64.2269 35.4897H76.2206C76.6348 35.4897 76.9702 35.825 76.9702 36.2394V48.2332C76.9704 48.6474 76.6349 48.9828 76.2208 48.9828ZM64.9765 47.4836H75.4711V36.989H64.9765V47.4836Z" fill="#3A3847"/>
<path d="M88.2146 48.9828H76.2208C75.8066 48.9828 75.4712 48.6475 75.4712 48.2332V36.2394C75.4712 35.825 75.8066 35.4897 76.2208 35.4897H88.2146C88.6288 35.4897 88.9643 35.825 88.9643 36.2394V48.2332C88.9643 48.6474 88.6288 48.9828 88.2146 48.9828ZM76.9704 47.4836H87.465V36.989H76.9704V47.4836Z" fill="#3A3847"/>
<path d="M100.208 48.9828H88.2145C87.8003 48.9828 87.4648 48.6475 87.4648 48.2332V36.2394C87.4648 35.825 87.8003 35.4897 88.2145 35.4897H100.208C100.622 35.4897 100.958 35.825 100.958 36.2394V48.2332C100.958 48.6474 100.622 48.9828 100.208 48.9828ZM88.9643 47.4836H99.4588V36.989H88.9643V47.4836Z" fill="#3A3847"/>
<path d="M40.2395 60.9768H28.2457C27.8313 60.9768 27.4961 60.6415 27.4961 60.2271V48.2335C27.4961 47.8191 27.8313 47.4839 28.2457 47.4839H40.2395C40.6539 47.4839 40.9892 47.8191 40.9892 48.2335V60.2271C40.9892 60.6415 40.6539 60.9768 40.2395 60.9768ZM28.9953 59.4777H39.4899V48.9831H28.9953V59.4777Z" fill="#3A3847"/>
<path d="M52.2332 60.9768H40.2394C39.825 60.9768 39.4897 60.6415 39.4897 60.2271V48.2335C39.4897 47.8191 39.825 47.4839 40.2394 47.4839H52.2332C52.6474 47.4839 52.9828 47.8191 52.9828 48.2335V60.2271C52.9828 60.6415 52.6474 60.9768 52.2332 60.9768ZM40.989 59.4777H51.4836V48.9831H40.989V59.4777Z" fill="#3A3847"/>
<path d="M64.227 60.9768H52.2331C51.8188 60.9768 51.4835 60.6415 51.4835 60.2271V48.2335C51.4835 47.8191 51.8188 47.4839 52.2331 47.4839H64.227C64.641 47.4839 64.9766 47.8191 64.9766 48.2335V60.2271C64.9766 60.6415 64.6411 60.9768 64.227 60.9768ZM52.983 59.4777H63.4775V48.9831H52.983V59.4777Z" fill="#3A3847"/>
<path d="M76.2208 60.9768H64.2269C63.8125 60.9768 63.4773 60.6415 63.4773 60.2271V48.2335C63.4773 47.8191 63.8125 47.4839 64.2269 47.4839H76.2206C76.6348 47.4839 76.9702 47.8191 76.9702 48.2335V60.2271C76.9704 60.6415 76.6349 60.9768 76.2208 60.9768ZM64.9765 59.4777H75.4711V48.9831H64.9765V59.4777Z" fill="#3A3847"/>
<path d="M88.2146 60.9768H76.2208C75.8066 60.9768 75.4712 60.6415 75.4712 60.2271V48.2335C75.4712 47.8191 75.8066 47.4839 76.2208 47.4839H88.2146C88.6288 47.4839 88.9643 47.8191 88.9643 48.2335V60.2271C88.9643 60.6415 88.6288 60.9768 88.2146 60.9768ZM76.9704 59.4777H87.465V48.9831H76.9704V59.4777Z" fill="#3A3847"/>
<path d="M100.208 60.9768H88.2145C87.8003 60.9768 87.4648 60.6415 87.4648 60.2271V48.2335C87.4648 47.8191 87.8003 47.4839 88.2145 47.4839H100.208C100.622 47.4839 100.958 47.8191 100.958 48.2335V60.2271C100.958 60.6415 100.622 60.9768 100.208 60.9768ZM88.9643 59.4777H99.4588V48.9831H88.9643V59.4777Z" fill="#3A3847"/>
<path d="M40.2395 72.9701H28.2457C27.8313 72.9701 27.4961 72.6349 27.4961 72.2205V60.2267C27.4961 59.8125 27.8313 59.4771 28.2457 59.4771H40.2395C40.6539 59.4771 40.9892 59.8123 40.9892 60.2267V72.2203C40.9892 72.6349 40.6539 72.9701 40.2395 72.9701ZM28.9953 71.4709H39.4899V60.9763H28.9953V71.4709Z" fill="#3A3847"/>
<path d="M52.2332 72.9701H40.2394C39.825 72.9701 39.4897 72.6349 39.4897 72.2205V60.2267C39.4897 59.8125 39.825 59.4771 40.2394 59.4771H52.2332C52.6474 59.4771 52.9828 59.8123 52.9828 60.2267V72.2203C52.9828 72.6349 52.6474 72.9701 52.2332 72.9701ZM40.989 71.4709H51.4836V60.9763H40.989V71.4709Z" fill="#3A3847"/>
<path d="M64.227 72.9701H52.2331C51.8188 72.9701 51.4835 72.6349 51.4835 72.2205V60.2267C51.4835 59.8125 51.8188 59.4771 52.2331 59.4771H64.227C64.641 59.4771 64.9766 59.8123 64.9766 60.2267V72.2203C64.9766 72.6349 64.6411 72.9701 64.227 72.9701ZM52.983 71.4709H63.4775V60.9763H52.983V71.4709Z" fill="#3A3847"/>
<path d="M76.2208 72.9701H64.2269C63.8125 72.9701 63.4773 72.6349 63.4773 72.2205V60.2267C63.4773 59.8125 63.8125 59.4771 64.2269 59.4771H76.2206C76.6348 59.4771 76.9702 59.8123 76.9702 60.2267V72.2203C76.9704 72.6349 76.6349 72.9701 76.2208 72.9701ZM64.9765 71.4709H75.4711V60.9763H64.9765V71.4709Z" fill="#3A3847"/>
<path d="M88.2146 72.9701H76.2208C75.8066 72.9701 75.4712 72.6349 75.4712 72.2205V60.2267C75.4712 59.8125 75.8066 59.4771 76.2208 59.4771H88.2146C88.6288 59.4771 88.9643 59.8123 88.9643 60.2267V72.2203C88.9643 72.6349 88.6288 72.9701 88.2146 72.9701ZM76.9704 71.4709H87.465V60.9763H76.9704V71.4709Z" fill="#3A3847"/>
<path d="M100.208 72.9701H88.2145C87.8003 72.9701 87.4648 72.6349 87.4648 72.2205V60.2267C87.4648 59.8125 87.8003 59.4771 88.2145 59.4771H100.208C100.622 59.4771 100.958 59.8123 100.958 60.2267V72.2203C100.958 72.6349 100.622 72.9701 100.208 72.9701ZM88.9643 71.4709H99.4588V60.9763H88.9643V71.4709Z" fill="#3A3847"/>
<path d="M40.2395 84.9641H28.2457C27.8313 84.9641 27.4961 84.6288 27.4961 84.2144V72.2206C27.4961 71.8064 27.8313 71.4712 28.2457 71.4712H40.2395C40.6539 71.4712 40.9892 71.8064 40.9892 72.2206V84.2144C40.9892 84.6288 40.6539 84.9641 40.2395 84.9641ZM28.9953 83.465H39.4899V72.9703H28.9953V83.465Z" fill="#3A3847"/>
<path d="M52.2332 84.9641H40.2394C39.825 84.9641 39.4897 84.6288 39.4897 84.2144V72.2206C39.4897 71.8064 39.825 71.4712 40.2394 71.4712H52.2332C52.6474 71.4712 52.9828 71.8064 52.9828 72.2206V84.2144C52.9828 84.6288 52.6474 84.9641 52.2332 84.9641ZM40.989 83.465H51.4836V72.9703H40.989V83.465Z" fill="#3A3847"/>
<path d="M64.227 84.9641H52.2331C51.8188 84.9641 51.4835 84.6288 51.4835 84.2144V72.2206C51.4835 71.8064 51.8188 71.4712 52.2331 71.4712H64.227C64.641 71.4712 64.9766 71.8064 64.9766 72.2206V84.2144C64.9766 84.6288 64.6411 84.9641 64.227 84.9641ZM52.983 83.465H63.4775V72.9703H52.983V83.465Z" fill="#3A3847"/>
<path d="M76.2208 84.9641H64.2269C63.8125 84.9641 63.4773 84.6288 63.4773 84.2144V72.2206C63.4773 71.8064 63.8125 71.4712 64.2269 71.4712H76.2206C76.6348 71.4712 76.9702 71.8064 76.9702 72.2206V84.2144C76.9704 84.6288 76.6349 84.9641 76.2208 84.9641ZM64.9765 83.465H75.4711V72.9703H64.9765V83.465Z" fill="#3A3847"/>
<path d="M88.2146 84.9641H76.2208C75.8066 84.9641 75.4712 84.6288 75.4712 84.2144V72.2206C75.4712 71.8064 75.8066 71.4712 76.2208 71.4712H88.2146C88.6288 71.4712 88.9643 71.8064 88.9643 72.2206V84.2144C88.9643 84.6288 88.6288 84.9641 88.2146 84.9641ZM76.9704 83.465H87.465V72.9703H76.9704V83.465Z" fill="#3A3847"/>
<path d="M100.208 84.9641H88.2145C87.8003 84.9641 87.4648 84.6288 87.4648 84.2144V72.2206C87.4648 71.8064 87.8003 71.4712 88.2145 71.4712H100.208C100.622 71.4712 100.958 71.8064 100.958 72.2206V84.2144C100.958 84.6288 100.622 84.9641 100.208 84.9641ZM88.9643 83.465H99.4588V72.9703H88.9643V83.465Z" fill="#3A3847"/>
<path d="M40.2395 96.9577H28.2457C27.8313 96.9577 27.4961 96.6225 27.4961 96.2081V84.2143C27.4961 83.8001 27.8313 83.4648 28.2457 83.4648H40.2395C40.6539 83.4648 40.9892 83.8001 40.9892 84.2143V96.2081C40.9892 96.6225 40.6539 96.9577 40.2395 96.9577ZM28.9953 95.4585H39.4899V84.9639H28.9953V95.4585Z" fill="#3A3847"/>
<path d="M52.2332 96.9577H40.2394C39.825 96.9577 39.4897 96.6225 39.4897 96.2081V84.2143C39.4897 83.8001 39.825 83.4648 40.2394 83.4648H52.2332C52.6474 83.4648 52.9828 83.8001 52.9828 84.2143V96.2081C52.9828 96.6225 52.6474 96.9577 52.2332 96.9577ZM40.989 95.4585H51.4836V84.9639H40.989V95.4585Z" fill="#3A3847"/>
<path d="M64.227 96.9577H52.2331C51.8188 96.9577 51.4835 96.6225 51.4835 96.2081V84.2143C51.4835 83.8001 51.8188 83.4648 52.2331 83.4648H64.227C64.641 83.4648 64.9766 83.8001 64.9766 84.2143V96.2081C64.9766 96.6225 64.6411 96.9577 64.227 96.9577ZM52.983 95.4585H63.4775V84.9639H52.983V95.4585Z" fill="#3A3847"/>
<path d="M76.2208 96.9577H64.2269C63.8125 96.9577 63.4773 96.6225 63.4773 96.2081V84.2143C63.4773 83.8001 63.8125 83.4648 64.2269 83.4648H76.2206C76.6348 83.4648 76.9702 83.8001 76.9702 84.2143V96.2081C76.9704 96.6225 76.6349 96.9577 76.2208 96.9577ZM64.9765 95.4585H75.4711V84.9639H64.9765V95.4585Z" fill="#3A3847"/>
<path d="M88.2146 96.9577H76.2208C75.8066 96.9577 75.4712 96.6225 75.4712 96.2081V84.2143C75.4712 83.8001 75.8066 83.4648 76.2208 83.4648H88.2146C88.6288 83.4648 88.9643 83.8001 88.9643 84.2143V96.2081C88.9643 96.6225 88.6288 96.9577 88.2146 96.9577ZM76.9704 95.4585H87.465V84.9639H76.9704V95.4585Z" fill="#3A3847"/>
<path d="M100.208 96.9577H88.2145C87.8003 96.9577 87.4648 96.6225 87.4648 96.2081V84.2143C87.4648 83.8001 87.8003 83.4648 88.2145 83.4648H100.208C100.622 83.4648 100.958 83.8001 100.958 84.2143V96.2081C100.958 96.6225 100.622 96.9577 100.208 96.9577ZM88.9643 95.4585H99.4588V84.9639H88.9643V95.4585Z" fill="#3A3847"/>
<path d="M106.205 104.454H22.2489C21.0088 104.454 20 103.445 20 102.205V18.2489C20 17.0087 21.0088 16 22.2489 16H106.205C107.445 16 108.454 17.0087 108.454 18.2489V102.205C108.454 103.445 107.445 104.454 106.205 104.454ZM22.2489 17.4992C21.836 17.4992 21.4993 17.8352 21.4993 18.2489V102.205C21.4993 102.618 21.836 102.955 22.2489 102.955H106.205C106.618 102.955 106.955 102.618 106.955 102.205V18.2489C106.955 17.8352 106.618 17.4992 106.205 17.4992H22.2489V17.4992Z" fill="#3A3847"/>
<path d="M106.205 111.95H22.2489C21.0088 111.95 20 110.941 20 109.701C20 109.287 20.3353 108.952 20.7496 108.952C21.164 108.952 21.4993 109.287 21.4993 109.701C21.4993 110.114 21.836 110.451 22.2489 110.451H106.205C106.618 110.451 106.955 110.114 106.955 109.701C106.955 109.287 107.29 108.952 107.704 108.952C108.119 108.952 108.454 109.287 108.454 109.701C108.454 110.941 107.445 111.95 106.205 111.95Z" fill="#3A3847"/>
<path d="M20.7496 110.451C20.3353 110.451 20 110.115 20 109.701V105.203C20 104.789 20.3353 104.454 20.7496 104.454C21.164 104.454 21.4992 104.789 21.4992 105.203V109.701C21.4992 110.115 21.164 110.451 20.7496 110.451Z" fill="#3A3847"/>
<path d="M107.704 110.451C107.29 110.451 106.955 110.115 106.955 109.701V105.203C106.955 104.789 107.29 104.454 107.704 104.454C108.119 104.454 108.454 104.789 108.454 105.203V109.701C108.454 110.115 108.119 110.451 107.704 110.451Z" fill="#3A3847"/>
<path d="M67.2254 108.952H61.2284C60.8142 108.952 60.4788 108.617 60.4788 108.202C60.4788 107.788 60.8142 107.453 61.2284 107.453H67.2254C67.6396 107.453 67.975 107.788 67.975 108.202C67.975 108.617 67.6396 108.952 67.2254 108.952Z" fill="#3A3847"/>
<path d="M25.2473 30.9922H23.748C23.3337 30.9922 22.9984 30.6569 22.9984 30.2425C22.9984 29.8282 23.3337 29.4929 23.748 29.4929H25.2473C25.6615 29.4929 25.9969 29.8282 25.9969 30.2425C25.9969 30.6569 25.6617 30.9922 25.2473 30.9922Z" fill="#3A3847"/>
<path d="M25.2473 42.9861H23.748C23.3337 42.9861 22.9984 42.6508 22.9984 42.2364C22.9984 41.8221 23.3337 41.4868 23.748 41.4868H25.2473C25.6615 41.4868 25.9969 41.8221 25.9969 42.2364C25.9969 42.6508 25.6617 42.9861 25.2473 42.9861Z" fill="#3A3847"/>
<path d="M25.2473 54.9795H23.748C23.3337 54.9795 22.9984 54.6442 22.9984 54.2298C22.9984 53.8155 23.3337 53.4802 23.748 53.4802H25.2473C25.6615 53.4802 25.9969 53.8155 25.9969 54.2298C25.9969 54.6442 25.6617 54.9795 25.2473 54.9795Z" fill="#3A3847"/>
<path d="M25.2473 66.9736H23.748C23.3337 66.9736 22.9984 66.6382 22.9984 66.224C22.9984 65.8096 23.3337 65.4744 23.748 65.4744H25.2473C25.6615 65.4744 25.9969 65.8096 25.9969 66.224C25.9969 66.6382 25.6617 66.9736 25.2473 66.9736Z" fill="#3A3847"/>
<path d="M25.2473 78.9678H23.748C23.3337 78.9678 22.9984 78.6323 22.9984 78.2181C22.9984 77.8038 23.3337 77.4685 23.748 77.4685H25.2473C25.6615 77.4685 25.9969 77.8038 25.9969 78.2181C25.9969 78.6323 25.6617 78.9678 25.2473 78.9678Z" fill="#3A3847"/>
<path d="M25.2473 90.961H23.748C23.3337 90.961 22.9984 90.6257 22.9984 90.2115C22.9984 89.7972 23.3337 89.4619 23.748 89.4619H25.2473C25.6615 89.4619 25.9969 89.7972 25.9969 90.2115C25.9969 90.6257 25.6617 90.961 25.2473 90.961Z" fill="#3A3847"/>
<path d="M34.9923 99.956H33.493C33.0787 99.956 32.7434 99.6208 32.7434 99.2064C32.7434 98.792 33.0787 98.4568 33.493 98.4568H34.9923C35.4065 98.4568 35.7419 98.792 35.7419 99.2064C35.7419 99.6208 35.4065 99.956 34.9923 99.956Z" fill="#3A3847"/>
<path d="M46.9859 99.956H45.4867C45.0723 99.956 44.7371 99.6208 44.7371 99.2064C44.7371 98.792 45.0723 98.4568 45.4867 98.4568H46.9859C47.4001 98.4568 47.7356 98.792 47.7356 99.2064C47.7356 99.6208 47.4003 99.956 46.9859 99.956Z" fill="#3A3847"/>
<path d="M58.9798 99.956H57.4806C57.0662 99.956 56.731 99.6208 56.731 99.2064C56.731 98.792 57.0662 98.4568 57.4806 98.4568H58.9798C59.3942 98.4568 59.7295 98.792 59.7295 99.2064C59.7295 99.6208 59.3942 99.956 58.9798 99.956Z" fill="#3A3847"/>
<path d="M70.9732 99.956H69.4744C69.0598 99.956 68.7247 99.6208 68.7247 99.2064C68.7247 98.792 69.0598 98.4568 69.4744 98.4568H70.9732C71.3878 98.4568 71.7229 98.792 71.7229 99.2064C71.7229 99.6208 71.3878 99.956 70.9732 99.956Z" fill="#3A3847"/>
<path d="M82.967 99.956H81.4681C81.0536 99.956 80.7185 99.6208 80.7185 99.2064C80.7185 98.792 81.0536 98.4568 81.4681 98.4568H82.967C83.3816 98.4568 83.7166 98.792 83.7166 99.2064C83.7166 99.6208 83.3816 99.956 82.967 99.956Z" fill="#3A3847"/>
<path d="M94.9608 99.956H93.4619C93.0473 99.956 92.7123 99.6208 92.7123 99.2064C92.7123 98.792 93.0473 98.4568 93.4619 98.4568H94.9608C95.3753 98.4568 95.7104 98.792 95.7104 99.2064C95.7104 99.6208 95.3753 99.956 94.9608 99.956Z" fill="#3A3847"/>
<path d="M34.2425 33.9907C32.1753 33.9907 30.4944 32.3092 30.4944 30.2428C30.4944 28.1761 32.1751 26.4946 34.2425 26.4946C36.3099 26.4946 37.9904 28.1761 37.9904 30.2428C37.9906 32.3092 36.3099 33.9907 34.2425 33.9907ZM34.2425 27.9939C33.0024 27.9939 31.9936 29.0026 31.9936 30.2428C31.9936 31.4827 33.0024 32.4914 34.2425 32.4914C35.4824 32.4914 36.4914 31.4827 36.4914 30.2428C36.4914 29.0024 35.4826 27.9939 34.2425 27.9939Z" fill="#3A3847"/>
<path d="M46.2379 93.9594C44.1707 93.9594 42.4897 92.2787 42.4897 90.2115C42.4897 88.1441 44.1705 86.4634 46.2379 86.4634C48.3052 86.4634 49.9858 88.1441 49.9858 90.2115C49.9858 92.2787 48.3051 93.9594 46.2379 93.9594ZM46.2379 87.9626C44.9977 87.9626 43.989 88.9714 43.989 90.2115C43.989 91.4514 44.9977 92.4602 46.2379 92.4602C47.4778 92.4602 48.4867 91.4514 48.4867 90.2115C48.4867 88.9712 47.4778 87.9626 46.2379 87.9626Z" fill="#3A3847"/>
<path d="M46.2379 69.9721C44.1707 69.9721 42.4897 68.2914 42.4897 66.2242C42.4897 64.1578 44.1705 62.4761 46.2379 62.4761C48.3052 62.4761 49.9858 64.1578 49.9858 66.2242C49.9858 68.2916 48.3051 69.9721 46.2379 69.9721ZM46.2379 63.9753C44.9977 63.9753 43.989 64.9841 43.989 66.2242C43.989 67.4641 44.9977 68.4729 46.2379 68.4729C47.4778 68.4729 48.4867 67.4641 48.4867 66.2242C48.4867 64.9841 47.4778 63.9753 46.2379 63.9753Z" fill="#3A3847"/>
<path d="M58.2286 81.9655C56.1612 81.9655 54.4805 80.2848 54.4805 78.2176C54.4805 76.1504 56.1612 74.4695 58.2286 74.4695C60.2958 74.4695 61.9765 76.1504 61.9765 78.2176C61.9765 80.2848 60.296 81.9655 58.2286 81.9655ZM58.2286 75.9687C56.9885 75.9687 55.9797 76.9775 55.9797 78.2176C55.9797 79.4575 56.9885 80.4663 58.2286 80.4663C59.4685 80.4663 60.4773 79.4575 60.4773 78.2176C60.4773 76.9775 59.4687 75.9687 58.2286 75.9687Z" fill="#3A3847"/>
<path d="M82.2161 81.9655C80.1486 81.9655 78.468 80.2848 78.468 78.2176C78.468 76.1504 80.1486 74.4695 82.2161 74.4695C84.2833 74.4695 85.9639 76.1504 85.9639 78.2176C85.9639 80.2848 84.2835 81.9655 82.2161 81.9655ZM82.2161 75.9687C80.9758 75.9687 79.9673 76.9775 79.9673 78.2176C79.9673 79.4575 80.9758 80.4663 82.2161 80.4663C83.4561 80.4663 84.4646 79.4575 84.4646 78.2176C84.4648 76.9775 83.4563 75.9687 82.2161 75.9687Z" fill="#3A3847"/>
<path d="M94.2127 93.9594C92.1455 93.9594 90.465 92.2787 90.465 90.2115C90.465 88.1441 92.1455 86.4634 94.2127 86.4634C96.2803 86.4634 97.9608 88.1441 97.9608 90.2115C97.9608 92.2787 96.2803 93.9594 94.2127 93.9594ZM94.2127 87.9626C92.9728 87.9626 91.9642 88.9714 91.9642 90.2115C91.9642 91.4514 92.9728 92.4602 94.2127 92.4602C95.453 92.4602 96.4616 91.4514 96.4616 90.2115C96.4616 88.9712 95.453 87.9626 94.2127 87.9626Z" fill="#3A3847"/>
<path d="M70.2254 93.9594C68.1579 93.9594 66.4773 92.2787 66.4773 90.2115C66.4773 88.1441 68.1579 86.4634 70.2254 86.4634C72.2926 86.4634 73.9732 88.1441 73.9732 90.2115C73.9732 92.2787 72.2928 93.9594 70.2254 93.9594ZM70.2254 87.9626C68.9851 87.9626 67.9765 88.9714 67.9765 90.2115C67.9765 91.4514 68.9851 92.4602 70.2254 92.4602C71.4654 92.4602 72.4739 91.4514 72.4739 90.2115C72.4739 88.9712 71.4654 87.9626 70.2254 87.9626Z" fill="#3A3847"/>
<path d="M58.2301 33.9907C56.1627 33.9907 54.4819 32.3092 54.4819 30.2428C54.4819 28.1761 56.1627 26.4946 58.2301 26.4946C60.2972 26.4946 61.978 28.1761 61.978 30.2428C61.978 32.3092 60.2972 33.9907 58.2301 33.9907ZM58.2301 27.9939C56.9899 27.9939 55.9812 29.0026 55.9812 30.2428C55.9812 31.4827 56.9899 32.4914 58.2301 32.4914C59.47 32.4914 60.4787 31.4827 60.4787 30.2428C60.4787 29.0024 59.47 27.9939 58.2301 27.9939Z" fill="#3A3847"/>
<path d="M82.2177 33.9907C80.1502 33.9907 78.4696 32.3092 78.4696 30.2428C78.4696 28.1761 80.1502 26.4946 82.2177 26.4946C84.2849 26.4946 85.9655 28.1761 85.9655 30.2428C85.9655 32.3092 84.2851 33.9907 82.2177 33.9907ZM82.2177 27.9939C80.9774 27.9939 79.9689 29.0026 79.9689 30.2428C79.9689 31.4827 80.9774 32.4914 82.2177 32.4914C83.4577 32.4914 84.4662 31.4827 84.4662 30.2428C84.4662 29.0024 83.4577 27.9939 82.2177 27.9939Z" fill="#3A3847"/>
<path d="M94.2111 45.9829C92.1439 45.9829 90.4634 44.3014 90.4634 42.2349C90.4634 40.1683 92.1439 38.4868 94.2111 38.4868C96.2787 38.4868 97.9592 40.1683 97.9592 42.2349C97.9592 44.3014 96.2787 45.9829 94.2111 45.9829ZM94.2111 39.9861C92.9712 39.9861 91.9626 40.9948 91.9626 42.2349C91.9626 43.4749 92.9712 44.4836 94.2111 44.4836C95.4514 44.4836 96.46 43.4749 96.46 42.2349C96.46 40.9946 95.4514 39.9861 94.2111 39.9861Z" fill="#3A3847"/>
<path d="M70.224 45.9829C68.1564 45.9829 66.4758 44.3014 66.4758 42.2349C66.4758 40.1683 68.1564 38.4868 70.224 38.4868C72.2911 38.4868 73.9717 40.1683 73.9717 42.2349C73.9719 44.3014 72.2913 45.9829 70.224 45.9829ZM70.224 39.9861C68.9836 39.9861 67.9751 40.9948 67.9751 42.2349C67.9751 43.4749 68.9836 44.4836 70.224 44.4836C71.4639 44.4836 72.4725 43.4749 72.4725 42.2349C72.4726 40.9946 71.4641 39.9861 70.224 39.9861Z" fill="#3A3847"/>
<path d="M46.2363 45.9829C44.1691 45.9829 42.4882 44.3014 42.4882 42.2349C42.4882 40.1683 44.1689 38.4868 46.2363 38.4868C48.3037 38.4868 49.9842 40.1683 49.9842 42.2349C49.9844 44.3014 48.3037 45.9829 46.2363 45.9829ZM46.2363 39.9861C44.9962 39.9861 43.9874 40.9948 43.9874 42.2349C43.9874 43.4749 44.9962 44.4836 46.2363 44.4836C47.4762 44.4836 48.4852 43.4749 48.4852 42.2349C48.4852 40.9946 47.4764 39.9861 46.2363 39.9861Z" fill="#3A3847"/>
</g>
<defs>
<clipPath id="clip0">
<rect width="96" height="96" fill="white" transform="translate(16 16)"/>
</clipPath>
</defs>
</svg>
