<svg width="129" height="128" viewBox="0 0 129 128" fill="none" xmlns="http://www.w3.org/2000/svg">
<path d="M0 64C0 80.9739 6.74284 97.2525 18.7452 109.255C30.7475 121.257 47.0261 128 64 128C80.9739 128 97.2525 121.257 109.255 109.255C121.257 97.2525 128 80.9739 128 64C128 47.0261 121.257 30.7475 109.255 18.7452C97.2525 6.74284 80.9739 0 64 0C47.0261 0 30.7475 6.74284 18.7452 18.7452C6.74284 30.7475 0 47.0261 0 64V64Z" fill="#C7F0FF"/>
<path opacity="0.15" d="M23.6143 106.714C23.6143 107.446 28.0269 108.148 35.8816 108.665C43.7362 109.183 54.3893 109.474 65.4975 109.474C76.6056 109.474 87.2587 109.183 95.1133 108.665C102.968 108.148 107.381 107.446 107.381 106.714C107.381 105.982 102.968 105.28 95.1133 104.762C87.2587 104.244 76.6056 103.954 65.4975 103.954C54.3893 103.954 43.7362 104.244 35.8816 104.762C28.0269 105.28 23.6143 105.982 23.6143 106.714V106.714Z" fill="#45413C"/>
<path d="M25.0303 42.6543H105.933V86.5727H25.0303V42.6543Z" fill="#656769"/>
<path d="M25.0303 42.6543H105.933V51.1295H25.0303V42.6543Z" fill="#525252"/>
<path d="M104.334 105.066H26.6303C26.2059 105.066 25.799 104.897 25.4989 104.597C25.1988 104.297 25.0303 103.89 25.0303 103.466V86.5728H105.934V103.466C105.934 103.89 105.766 104.297 105.466 104.597C105.166 104.897 104.759 105.066 104.334 105.066Z" fill="#E8F4FA"/>
<path d="M25.0303 86.5728H105.933V99.2863H25.0303V86.5728Z" fill="#DAEDF7"/>
<path d="M31.9648 91.2C31.9653 92.426 32.4526 93.6018 33.3197 94.4686C34.1869 95.3354 35.3628 95.8223 36.5888 95.8223H94.376C95.6021 95.8223 96.778 95.3354 97.6451 94.4686C98.5123 93.6018 98.9996 92.426 99 91.2H31.9648Z" fill="#C0DCEB"/>
<path d="M29.6543 47.2769H101.312V81.9489H29.6543V47.2769Z" fill="#FFAA54"/>
<path d="M98.1103 47.2769H32.8543C32.0056 47.2769 31.1917 47.614 30.5916 48.2141C29.9914 48.8142 29.6543 49.6282 29.6543 50.4769V54.3297C29.6543 53.481 29.9914 52.667 30.5916 52.0669C31.1917 51.4668 32.0056 51.1297 32.8543 51.1297H98.1103C98.959 51.1297 99.7729 51.4668 100.373 52.0669C100.973 52.667 101.31 53.481 101.31 54.3297V50.4769C101.31 49.6282 100.973 48.8142 100.373 48.2141C99.7729 47.614 98.959 47.2769 98.1103 47.2769Z" fill="#FF8A14"/>
<path d="M105.934 42.6543H25.0303V27.3599C25.0303 26.5112 25.3674 25.6973 25.9675 25.0972C26.5676 24.4971 27.3816 24.1599 28.2303 24.1599H102.734C103.583 24.1599 104.397 24.4971 104.997 25.0972C105.597 25.6973 105.934 26.5112 105.934 27.3599V42.6543Z" fill="#E8F4FA"/>
<path d="M102.734 24.1599H28.2303C27.3816 24.1599 26.5676 24.4971 25.9675 25.0972C25.3674 25.6973 25.0303 26.5112 25.0303 27.3599V31.2127C25.0303 30.364 25.3674 29.5501 25.9675 28.95C26.5676 28.3499 27.3816 28.0127 28.2303 28.0127H102.734C103.583 28.0127 104.397 28.3499 104.997 28.95C105.597 29.5501 105.934 30.364 105.934 31.2127V27.3599C105.934 26.5112 105.597 25.6973 104.997 25.0972C104.397 24.4971 103.583 24.1599 102.734 24.1599Z" fill="white"/>
<path d="M48.1455 28.7856H66.6383V38.032H48.1455V28.7856Z" fill="#00B8F0"/>
<path d="M51.6129 38.032H49.1089C48.9829 38.032 48.858 38.0072 48.7416 37.9589C48.6251 37.9107 48.5193 37.84 48.4301 37.7508C48.341 37.6617 48.2702 37.5559 48.222 37.4394C48.1738 37.3229 48.1489 37.1981 48.1489 37.072V29.7488C48.1489 29.6228 48.1738 29.4979 48.222 29.3814C48.2702 29.265 48.341 29.1591 48.4301 29.07C48.5193 28.9809 48.6251 28.9101 48.7416 28.8619C48.858 28.8136 48.9829 28.7888 49.1089 28.7888H60.8593L51.6129 38.032Z" fill="#4ACFFF"/>
<path d="M31.9663 33.408C31.9663 34.634 32.4533 35.8097 33.3202 36.6766C34.187 37.5434 35.3628 38.0304 36.5887 38.0304C37.8146 38.0304 38.9904 37.5434 39.8572 36.6766C40.7241 35.8097 41.2111 34.634 41.2111 33.408C41.2111 32.1821 40.7241 31.0064 39.8572 30.1395C38.9904 29.2726 37.8146 28.7856 36.5887 28.7856C35.3628 28.7856 34.187 29.2726 33.3202 30.1395C32.4533 31.0064 31.9663 32.1821 31.9663 33.408V33.408Z" fill="#E8F4FA"/>
<path d="M36.589 31.9457C37.5339 31.9486 38.455 32.2418 39.2277 32.7855C40.0004 33.3293 40.5873 34.0973 40.909 34.9857C41.1722 34.286 41.2618 33.533 41.1702 32.7911C41.0785 32.0492 40.8084 31.3406 40.3829 30.7259C39.9574 30.1113 39.3892 29.609 38.7271 29.2621C38.065 28.9151 37.3286 28.7339 36.581 28.7339C35.8335 28.7339 35.0971 28.9151 34.435 29.2621C33.7728 29.609 33.2047 30.1113 32.7792 30.7259C32.3537 31.3406 32.0835 32.0492 31.9919 32.7911C31.9003 33.533 31.9899 34.286 32.253 34.9857C32.5755 34.0946 33.1648 33.3246 33.9407 32.7806C34.7166 32.2366 35.6414 31.9451 36.589 31.9457V31.9457Z" fill="white"/>
<path fill-rule="evenodd" clip-rule="evenodd" d="M24.2305 86.5727C24.2305 86.1309 24.5886 85.7727 25.0305 85.7727H105.934C106.376 85.7727 106.734 86.1309 106.734 86.5727V103.466C106.734 104.102 106.482 104.712 106.032 105.163C105.581 105.613 104.971 105.866 104.334 105.866H26.6305C25.9939 105.866 25.3835 105.613 24.9334 105.163C24.4833 104.712 24.2305 104.102 24.2305 103.466V86.5727ZM25.8305 87.3727V103.466C25.8305 103.678 25.9148 103.881 26.0648 104.031C26.2148 104.181 26.4183 104.266 26.6305 104.266H104.334C104.547 104.266 104.75 104.181 104.9 104.031C105.05 103.881 105.134 103.678 105.134 103.466V87.3727H25.8305Z" fill="#45413C"/>
<path fill-rule="evenodd" clip-rule="evenodd" d="M31.3988 90.6343C31.5488 90.4842 31.7523 90.3999 31.9646 90.3999H98.9997C99.212 90.3999 99.4155 90.4842 99.5655 90.6343C99.7156 90.7844 99.7998 90.988 99.7997 91.2002C99.7992 92.6384 99.2276 94.0175 98.2104 95.0343C97.1933 96.0511 95.814 96.6223 94.3757 96.6223H36.5885C35.1503 96.6223 33.771 96.0511 32.7539 95.0343C31.7367 94.0175 31.165 92.6384 31.1646 91.2002C31.1645 90.988 31.2487 90.7844 31.3988 90.6343ZM32.8495 91.9999C33.0029 92.7153 33.3597 93.3776 33.885 93.9027C34.6021 94.6196 35.5746 95.0223 36.5885 95.0223H94.3757C95.3897 95.0223 96.3621 94.6196 97.0793 93.9027C97.6046 93.3776 97.9614 92.7152 98.1148 91.9999H32.8495Z" fill="#45413C"/>
<path fill-rule="evenodd" clip-rule="evenodd" d="M28.2305 24.9601C27.5939 24.9601 26.9835 25.213 26.5334 25.6631C26.0833 26.1131 25.8305 26.7236 25.8305 27.3601V41.8545H105.134V27.3601C105.134 26.7236 104.882 26.1131 104.432 25.6631C103.981 25.213 103.371 24.9601 102.734 24.9601H28.2305ZM25.402 24.5317C26.1522 23.7815 27.1696 23.3601 28.2305 23.3601H102.734C103.795 23.3601 104.813 23.7815 105.563 24.5317C106.313 25.2818 106.734 26.2992 106.734 27.3601V42.6545C106.734 43.0963 106.376 43.4545 105.934 43.4545H25.0305C24.5886 43.4545 24.2305 43.0963 24.2305 42.6545V27.3601C24.2305 26.2992 24.6519 25.2818 25.402 24.5317Z" fill="#45413C"/>
<path fill-rule="evenodd" clip-rule="evenodd" d="M47.3457 28.7856C47.3457 28.3438 47.7039 27.9856 48.1457 27.9856H66.6385C67.0803 27.9856 67.4385 28.3438 67.4385 28.7856V38.032C67.4385 38.4738 67.0803 38.832 66.6385 38.832H48.1457C47.7039 38.832 47.3457 38.4738 47.3457 38.032V28.7856ZM48.9457 29.5856V37.232H65.8385V29.5856H48.9457Z" fill="#45413C"/>
<path fill-rule="evenodd" clip-rule="evenodd" d="M32.7547 29.5738C33.7716 28.5569 35.1508 27.9856 36.5889 27.9856C38.027 27.9856 39.4062 28.5569 40.4231 29.5738C41.44 30.5907 42.0113 31.9699 42.0113 33.408C42.0113 34.8461 41.44 36.2253 40.4231 37.2422C39.4062 38.2591 38.027 38.8304 36.5889 38.8304C35.1508 38.8304 33.7716 38.2591 32.7547 37.2422C31.7378 36.2253 31.1665 34.8461 31.1665 33.408C31.1665 31.9699 31.7378 30.5907 32.7547 29.5738ZM36.5889 29.5856C35.5751 29.5856 34.6029 29.9883 33.8861 30.7051C33.1692 31.422 32.7665 32.3942 32.7665 33.408C32.7665 34.4218 33.1692 35.394 33.8861 36.1108C34.6029 36.8277 35.5751 37.2304 36.5889 37.2304C37.6027 37.2304 38.5749 36.8277 39.2918 36.1108C40.0086 35.394 40.4113 34.4218 40.4113 33.408C40.4113 32.3942 40.0086 31.422 39.2918 30.7051C38.5749 29.9883 37.6027 29.5856 36.5889 29.5856Z" fill="#45413C"/>
<path d="M73.5728 33.408C73.5728 34.634 74.0598 35.8097 74.9266 36.6766C75.7935 37.5434 76.9692 38.0304 78.1952 38.0304C79.4211 38.0304 80.5968 37.5434 81.4637 36.6766C82.3305 35.8097 82.8176 34.634 82.8176 33.408C82.8176 32.1821 82.3305 31.0064 81.4637 30.1395C80.5968 29.2726 79.4211 28.7856 78.1952 28.7856C76.9692 28.7856 75.7935 29.2726 74.9266 30.1395C74.0598 31.0064 73.5728 32.1821 73.5728 33.408V33.408Z" fill="#E8F4FA"/>
<path d="M78.1953 31.9457C79.1402 31.9483 80.0614 32.2414 80.8342 32.7852C81.6069 33.329 82.1938 34.0971 82.5153 34.9857C82.7776 34.2863 82.8665 33.5338 82.7745 32.7926C82.6824 32.0514 82.4121 31.3435 81.9867 30.7296C81.5613 30.1157 80.9934 29.614 80.3317 29.2675C79.67 28.921 78.9343 28.74 78.1873 28.74C77.4404 28.74 76.7046 28.921 76.043 29.2675C75.3813 29.614 74.8134 30.1157 74.388 30.7296C73.9626 31.3435 73.6923 32.0514 73.6002 32.7926C73.5081 33.5338 73.597 34.2863 73.8593 34.9857C74.182 34.0947 74.7714 33.3249 75.5472 32.7809C76.3231 32.2369 77.2478 31.9453 78.1953 31.9457V31.9457Z" fill="white"/>
<path fill-rule="evenodd" clip-rule="evenodd" d="M74.3611 29.5738C75.378 28.5569 76.7572 27.9856 78.1954 27.9856C79.6335 27.9856 81.0127 28.5569 82.0296 29.5738C83.0465 30.5907 83.6178 31.9699 83.6178 33.408C83.6178 34.8461 83.0465 36.2253 82.0296 37.2422C81.0127 38.2591 79.6335 38.8304 78.1954 38.8304C76.7572 38.8304 75.378 38.2591 74.3611 37.2422C73.3442 36.2253 72.7729 34.8461 72.7729 33.408C72.7729 31.9699 73.3442 30.5907 74.3611 29.5738ZM78.1954 29.5856C77.1816 29.5856 76.2093 29.9883 75.4925 30.7051C74.7757 31.422 74.3729 32.3942 74.3729 33.408C74.3729 34.4218 74.7757 35.394 75.4925 36.1108C76.2093 36.8277 77.1816 37.2304 78.1954 37.2304C79.2091 37.2304 80.1814 36.8277 80.8982 36.1108C81.615 35.394 82.0178 34.4218 82.0178 33.408C82.0178 32.3942 81.615 31.422 80.8982 30.7051C80.1814 29.9883 79.2091 29.5856 78.1954 29.5856Z" fill="#45413C"/>
<path d="M89.7534 33.408C89.7534 34.0151 89.873 34.6161 90.1053 35.177C90.3376 35.7378 90.6781 36.2473 91.1073 36.6766C91.5365 37.1058 92.0461 37.4463 92.6069 37.6786C93.1677 37.9109 93.7688 38.0304 94.3758 38.0304C94.9828 38.0304 95.5839 37.9109 96.1447 37.6786C96.7056 37.4463 97.2151 37.1058 97.6444 36.6766C98.0736 36.2473 98.4141 35.7378 98.6464 35.177C98.8787 34.6161 98.9982 34.0151 98.9982 33.408C98.9982 32.801 98.8787 32.1999 98.6464 31.6391C98.4141 31.0783 98.0736 30.5687 97.6444 30.1395C97.2151 29.7103 96.7056 29.3698 96.1447 29.1375C95.5839 28.9052 94.9828 28.7856 94.3758 28.7856C93.7688 28.7856 93.1677 28.9052 92.6069 29.1375C92.0461 29.3698 91.5365 29.7103 91.1073 30.1395C90.6781 30.5687 90.3376 31.0783 90.1053 31.6391C89.873 32.1999 89.7534 32.801 89.7534 33.408V33.408Z" fill="#E8F4FA"/>
<path d="M94.376 31.9457C95.3208 31.9486 96.242 32.2417 97.0147 32.7855C97.7874 33.3292 98.3743 34.0973 98.696 34.9857C98.9583 34.2863 99.0472 33.5338 98.9552 32.7926C98.8631 32.0514 98.5928 31.3435 98.1674 30.7296C97.7419 30.1157 97.1741 29.614 96.5124 29.2675C95.8507 28.921 95.1149 28.74 94.368 28.74C93.6211 28.74 92.8853 28.921 92.2236 29.2675C91.562 29.614 90.9941 30.1157 90.5687 30.7296C90.1433 31.3435 89.8729 32.0514 89.7809 32.7926C89.6888 33.5338 89.7777 34.2863 90.04 34.9857C90.3627 34.0947 90.952 33.3249 91.7279 32.7809C92.5038 32.2369 93.4284 31.9453 94.376 31.9457V31.9457Z" fill="white"/>
<path fill-rule="evenodd" clip-rule="evenodd" d="M92.3009 28.3984C92.9588 28.1259 93.6639 27.9856 94.376 27.9856C95.0881 27.9856 95.7932 28.1259 96.4511 28.3984C97.109 28.6709 97.7067 29.0703 98.2102 29.5738C98.7137 30.0773 99.1132 30.6751 99.3857 31.3329C99.6582 31.9908 99.7984 32.6959 99.7984 33.408C99.7984 34.1201 99.6582 34.8252 99.3857 35.4831C99.1132 36.1409 98.7137 36.7387 98.2102 37.2422C97.7067 37.7457 97.109 38.1451 96.4511 38.4176C95.7932 38.6901 95.0881 38.8304 94.376 38.8304C93.6639 38.8304 92.9588 38.6901 92.3009 38.4176C91.6431 38.1451 91.0453 37.7457 90.5418 37.2422C90.0383 36.7387 89.6389 36.1409 89.3664 35.4831C89.0939 34.8252 88.9536 34.1201 88.9536 33.408C88.9536 32.6959 89.0939 31.9908 89.3664 31.3329C89.6389 30.6751 90.0383 30.0773 90.5418 29.5738C91.0453 29.0703 91.6431 28.6709 92.3009 28.3984ZM94.376 29.5856C93.874 29.5856 93.377 29.6845 92.9132 29.8766C92.4495 30.0687 92.0281 30.3502 91.6732 30.7051C91.3182 31.0601 91.0367 31.4815 90.8446 31.9452C90.6525 32.409 90.5536 32.906 90.5536 33.408C90.5536 33.91 90.6525 34.407 90.8446 34.8708C91.0367 35.3345 91.3182 35.7559 91.6732 36.1108C92.0281 36.4658 92.4495 36.7473 92.9132 36.9394C93.377 37.1315 93.874 37.2304 94.376 37.2304C94.878 37.2304 95.375 37.1315 95.8388 36.9394C96.3025 36.7473 96.7239 36.4658 97.0789 36.1108C97.4338 35.7559 97.7154 35.3345 97.9075 34.8708C98.0995 34.407 98.1984 33.91 98.1984 33.408C98.1984 32.906 98.0995 32.409 97.9075 31.9452C97.7154 31.4815 97.4338 31.0601 97.0789 30.7051C96.7239 30.3502 96.3025 30.0687 95.8388 29.8766C95.375 29.6845 94.878 29.5856 94.376 29.5856Z" fill="#45413C"/>
<path d="M25.0449 86.5728H105.947V91.1952H25.0449V86.5728Z" fill="#E8F4FA"/>
<path fill-rule="evenodd" clip-rule="evenodd" d="M24.2446 86.5727C24.2446 86.1309 24.6028 85.7727 25.0446 85.7727H105.947C106.389 85.7727 106.747 86.1309 106.747 86.5727V91.1951C106.747 91.6369 106.389 91.9951 105.947 91.9951H25.0446C24.6028 91.9951 24.2446 91.6369 24.2446 91.1951V86.5727ZM25.8446 87.3727V90.3951H105.147V87.3727H25.8446Z" fill="#45413C"/>
<path fill-rule="evenodd" clip-rule="evenodd" d="M28.8687 77.3264C28.8687 76.8845 29.2268 76.5264 29.6687 76.5264H101.325C101.766 76.5264 102.125 76.8845 102.125 77.3264C102.125 77.7682 101.766 78.1264 101.325 78.1264H29.6687C29.2268 78.1264 28.8687 77.7682 28.8687 77.3264Z" fill="#45413C"/>
<path fill-rule="evenodd" clip-rule="evenodd" d="M24.2305 42.6545C24.2305 42.2127 24.5886 41.8545 25.0305 41.8545H105.933C106.375 41.8545 106.733 42.2127 106.733 42.6545V86.5729C106.733 87.0147 106.375 87.3729 105.933 87.3729H25.0305C24.5886 87.3729 24.2305 87.0147 24.2305 86.5729V42.6545ZM25.8305 43.4545V85.7729H105.133V43.4545H25.8305Z" fill="#45413C"/>
<path fill-rule="evenodd" clip-rule="evenodd" d="M28.8545 47.2768C28.8545 46.835 29.2127 46.4768 29.6545 46.4768H101.312C101.754 46.4768 102.112 46.835 102.112 47.2768V81.9488C102.112 82.3906 101.754 82.7488 101.312 82.7488H29.6545C29.2127 82.7488 28.8545 82.3906 28.8545 81.9488V47.2768ZM30.4545 48.0768V81.1488H100.512V48.0768H30.4545Z" fill="#45413C"/>
<path d="M94.5205 94.6948H72.1924V120H94.5205V94.6948Z" fill="#BF7E68" stroke="#4C241D" stroke-width="2" stroke-linecap="round" stroke-linejoin="round"/>
<path d="M93.6952 111.664C92.8937 114.401 92.2608 117.185 91.8003 120H106.992C107.019 119.905 107.044 119.809 107.07 119.714C109.636 110.216 104.895 100.15 96.5651 96.9633L93.6118 95.8335C95.2629 100.977 95.292 106.504 93.6952 111.664V111.664Z" fill="#EDEBDC" stroke="#4C241D" stroke-width="2" stroke-linecap="round" stroke-linejoin="round"/>
<path d="M73.6402 111.664C71.9083 106.05 72.0948 100.019 74.1701 94.5222L74.5199 94.3823L68.3022 96.8607C60.084 100.136 55.4844 110.109 57.9896 119.536C58.0298 119.685 58.0715 119.833 58.1132 119.994H75.5291C75.0697 117.182 74.4389 114.4 73.6402 111.664V111.664Z" fill="#EDEBDC" stroke="#4C241D" stroke-width="2" stroke-linecap="round" stroke-linejoin="round"/>
<path d="M87.4315 92.3401L80.3654 89.9451L74.8667 91.8861H86.0918L87.4315 92.3401Z" fill="#E7D1C4" stroke="#4C241D" stroke-width="2" stroke-linecap="round" stroke-linejoin="round"/>
<path d="M75.1694 85.7635L80.357 100.03C80.5816 100.647 80.991 101.181 81.5295 101.558C82.0679 101.935 82.7094 102.138 83.3668 102.137V102.137C84.0196 102.137 84.6567 101.938 85.1928 101.565C85.7289 101.193 86.1383 100.665 86.3662 100.053L91.9453 85.1025L75.1694 85.7635Z" fill="#A9BA5A" stroke="#4C241D" stroke-width="2" stroke-linecap="round" stroke-linejoin="round"/>
<path d="M127.21 76.9811C125.191 73.7063 120.697 72.0407 116.361 72.7016C111.038 73.5113 104.553 75.0922 102.518 75.6042C102.41 75.0023 102.253 74.4104 102.048 73.8343L99.5691 67.6212C98.5766 65.2283 96.9032 63.1797 94.7566 61.7295L89.4961 58.0766C87.4634 56.7225 85.0756 56 82.6332 56C80.1908 56 77.803 56.7225 75.7703 58.0766L70.5187 61.7355C68.3717 63.1855 66.6978 65.2342 65.7048 67.6271L63.2278 73.8403C63.0216 74.4161 62.8637 75.0081 62.7559 75.6102C60.7137 75.0981 54.2296 73.5173 48.9051 72.7075C44.5704 72.0392 40.075 73.7063 38.0581 76.9811L38 77.0779C38 77.0779 45.7613 75.4554 49.6434 80.3214C53.4258 85.0639 63.3618 85.6489 63.8634 85.6802C64.6694 87.6325 65.7528 89.4584 67.0802 91.1014C68.2886 92.5462 69.7938 93.7139 71.4937 94.5251L75.4249 96.4959C77.6695 97.5938 80.1352 98.1646 82.6339 98.1646C85.1327 98.1646 87.5984 97.5938 89.843 96.4959L93.7385 94.5459C95.6409 93.6118 97.3032 92.253 98.5971 90.5745C99.7417 89.0729 100.685 87.428 101.403 85.6817C101.905 85.6549 111.841 85.0699 115.625 80.3229C119.505 75.4539 127.268 77.0764 127.268 77.0764L127.21 76.9811Z" fill="#A9BA5A" stroke="#4C241D" stroke-width="2" stroke-linecap="round" stroke-linejoin="round"/>
<path d="M91.5434 80.8289C92.9286 80.8289 94.0515 79.7059 94.0515 78.3207C94.0515 76.9355 92.9286 75.8125 91.5434 75.8125C90.1581 75.8125 89.0352 76.9355 89.0352 78.3207C89.0352 79.7059 90.1581 80.8289 91.5434 80.8289Z" fill="#4C241D"/>
<path d="M75.1693 80.8289C76.5546 80.8289 77.6775 79.7059 77.6775 78.3207C77.6775 76.9355 76.5546 75.8125 75.1693 75.8125C73.7841 75.8125 72.6611 76.9355 72.6611 78.3207C72.6611 79.7059 73.7841 80.8289 75.1693 80.8289Z" fill="#4C241D"/>
<path d="M73.6807 69.3896H91.5432" stroke="#E0DFA6" stroke-width="2" stroke-linecap="round" stroke-linejoin="round"/>
<path d="M80.7134 63.4355H84.5092" stroke="#E0DFA6" stroke-width="2" stroke-linecap="round" stroke-linejoin="round"/>
</svg>
