<svg width="84" height="82" viewBox="0 0 84 82" fill="none" xmlns="http://www.w3.org/2000/svg">
<path d="M40.3744 80.5999C62.2445 80.5999 79.9744 62.87 79.9744 40.9999C79.9744 19.1298 62.2445 1.3999 40.3744 1.3999C18.5043 1.3999 0.774414 19.1298 0.774414 40.9999C0.774414 62.87 18.5043 80.5999 40.3744 80.5999Z" fill="#DAEDF7" stroke="#DAEDF7" stroke-linecap="round" stroke-linejoin="round"/>
<path d="M58.6655 65.9916H21.8375C21.1779 65.9916 20.5454 65.7296 20.079 65.2632C19.6126 64.7968 19.3506 64.1643 19.3506 63.5047V15.8174C19.3511 15.13 19.6245 14.4709 20.1106 13.9849C20.5968 13.499 21.256 13.2258 21.9434 13.2256H58.5585C59.246 13.2256 59.9054 13.4986 60.3916 13.9847C60.8778 14.4707 61.1511 15.1299 61.1514 15.8174V63.5047C61.1514 64.1641 60.8895 64.7965 60.4233 65.2629C59.9571 65.7292 59.3249 65.9913 58.6655 65.9916Z" fill="#DEBB7E"/>
<path d="M58.5586 13.2256H21.9424C21.255 13.2258 20.5958 13.499 20.1097 13.9849C19.6235 14.4709 19.3501 15.13 19.3496 15.8174V19.3933C19.3496 18.6662 19.6384 17.969 20.1525 17.4549C20.6666 16.9408 21.3639 16.652 22.0909 16.652H58.4101C59.1371 16.652 59.8344 16.9408 60.3485 17.4549C60.8626 17.969 61.1514 18.6662 61.1514 19.3933V15.8174C61.1515 15.4769 61.0845 15.1398 60.9542 14.8252C60.824 14.5106 60.633 14.2248 60.3922 13.9841C60.1514 13.7434 59.8655 13.5525 59.5509 13.4223C59.2362 13.2922 58.899 13.2253 58.5586 13.2256Z" fill="#F0D3A8"/>
<path d="M58.6655 65.9916H21.8375C21.1779 65.9916 20.5454 65.7296 20.079 65.2632C19.6126 64.7968 19.3506 64.1643 19.3506 63.5047V15.8174C19.3511 15.13 19.6245 14.4709 20.1106 13.9849C20.5968 13.499 21.256 13.2258 21.9434 13.2256H58.5585C59.246 13.2256 59.9054 13.4986 60.3916 13.9847C60.8778 14.4707 61.1511 15.1299 61.1514 15.8174V63.5047C61.1514 64.1641 60.8895 64.7965 60.4233 65.2629C59.9571 65.7292 59.3249 65.9913 58.6655 65.9916Z" stroke="#45413C" stroke-linecap="round" stroke-linejoin="round"/>
<path d="M55.7958 17.3369H24.7049C24.0178 17.3369 23.4614 17.8933 23.4614 18.5804V60.6356C23.4614 61.3226 24.0178 61.879 24.7049 61.879H55.7958C56.4829 61.879 57.0393 61.3226 57.0393 60.6356V18.5804C57.0393 17.8933 56.4829 17.3369 55.7958 17.3369Z" fill="white" stroke="#45413C" stroke-linecap="round" stroke-linejoin="round"/>
<path d="M28.249 28.3013H49.1865" stroke="#45413C" stroke-linecap="round" stroke-linejoin="round"/>
<path d="M28.249 34.4688H49.1865" stroke="#45413C" stroke-linecap="round" stroke-linejoin="round"/>
<path d="M28.249 41.3218H42.8416" stroke="#45413C" stroke-linecap="round" stroke-linejoin="round"/>
<path opacity="0.15" d="M57.0402 32.5967L47.2887 43.16C46.6736 43.8285 46.349 44.7138 46.3861 45.6215C46.4232 46.5292 46.8191 47.385 47.4867 48.0011C47.9045 48.3852 48.4134 48.6584 48.9648 48.7931L45.7968 51.9611L46.2819 52.4462L42.0002 56.7269C41.7913 56.9361 41.6555 57.207 41.613 57.4994C41.5704 57.7919 41.6233 58.0903 41.7639 58.3503C41.9044 58.6102 42.1251 58.8179 42.3931 58.9425C42.6611 59.067 42.9622 59.1018 43.2515 59.0416C47.0036 58.2436 48.9123 57.0913 48.9341 55.6122L49.1935 55.3528L50.1627 56.322L52.5595 53.9262C53.2026 54.4439 54.0109 54.7123 54.836 54.6822C55.661 54.652 56.4475 54.3252 57.0511 53.7619L57.0402 32.5967Z" fill="#45413C"/>
<path d="M54.6777 40.8948L66.6815 45.3726L71.7305 37.2744L58.6783 33.75L54.6777 40.8948Z" fill="#BF8256"/>
<path d="M73.8146 54.5632L83.1107 45.2671C83.1463 45.2315 83.1849 45.1978 83.2255 45.1681C80.114 42.4674 79.3457 36.7531 73.3622 33.6227C65.4837 29.5093 55.7402 30.4904 47.1826 41.1774C46.8261 41.6513 46.6676 42.2452 46.7405 42.8337C46.8135 43.4223 47.1122 43.9594 47.5737 44.3319C48.0352 44.7044 48.6233 44.883 49.214 44.8301C49.8047 44.7772 50.3517 44.497 50.7397 44.0484C51.2844 43.3734 51.8534 42.7182 52.4454 42.0843C52.6464 42.2991 52.887 42.4723 53.1543 42.5961C62.1088 49.3756 63.9136 50.2369 66.1094 51.0903C69.4962 52.407 70.9921 53.0426 73.482 55.2968C73.4997 55.0199 73.618 54.759 73.8146 54.5632ZM67.6766 40.0924C66.9215 41.0045 65.8715 41.6241 64.7081 41.8441C63.5447 42.0641 62.3409 41.8706 61.305 41.2972L56.0124 38.8717C59.1022 36.6096 62.2197 35.6661 65.3253 36.071C67.9667 36.4145 68.5785 38.7509 67.6796 40.0884L67.6766 40.0924Z" fill="#BF8256"/>
<path d="M81.4128 46.9596L83.1107 45.2627C83.1463 45.2271 83.1849 45.1934 83.2255 45.1637C80.1139 42.463 79.3457 36.7487 73.3622 33.6183C65.4837 29.5049 55.7401 30.486 47.1826 41.173C46.8543 41.5819 46.676 42.0909 46.6773 42.6152C46.6785 43.1395 46.8593 43.6476 47.1895 44.0549C47.2558 43.9292 47.3331 43.8104 47.4212 43.6985C55.9797 33.0065 64.9076 32.3284 72.8563 36.3032C75.4986 37.6229 79.0438 43.848 81.4128 46.9596Z" fill="#E09F7E"/>
<path opacity="0.15" d="M40.0308 75.6393C48.2379 75.6393 54.8927 74.8721 54.8927 73.9246C54.8927 72.9772 48.2389 72.21 40.0308 72.21C31.8237 72.21 25.1689 72.9772 25.1689 73.9246C25.1689 74.8721 31.8227 75.6393 40.0308 75.6393Z" fill="#45413C"/>
<path d="M30.3398 48.4429C29.9848 48.797 29.7227 49.2333 29.5768 49.713C29.4308 50.1928 29.4055 50.7011 29.5031 51.1929C29.6006 51.6848 29.8181 52.1449 30.1361 52.5326C30.4541 52.9203 30.8629 53.2235 31.3261 53.4154C31.7894 53.6072 32.2929 53.6818 32.7919 53.6325C33.2909 53.5831 33.77 53.4114 34.1867 53.1325C34.6034 52.8537 34.9449 52.4763 35.1809 52.0338C35.4168 51.5914 35.5399 51.0975 35.5393 50.5961V51.206C35.5393 51.8521 35.796 52.4718 36.2529 52.9287C36.7098 53.3857 37.3295 53.6423 37.9757 53.6423C38.6218 53.6423 39.2415 53.3857 39.6984 52.9287C40.1553 52.4718 40.412 51.8521 40.412 51.206C40.412 51.8521 40.6687 52.4718 41.1256 52.9287C41.5826 53.3857 42.2023 53.6423 42.8484 53.6423H44.673" stroke="#FF6242" stroke-linecap="round" stroke-linejoin="round"/>
<path d="M60.5578 41.8295C60.8576 41.8457 61.1513 41.9208 61.4221 42.0505C61.6929 42.1803 61.9354 42.3621 62.1359 42.5856C62.3364 42.809 62.491 43.0698 62.5907 43.3531C62.6904 43.6363 62.7333 43.9364 62.717 44.2362L62.315 51.6612C62.2689 52.2568 61.9916 52.8107 61.5424 53.2045C61.0932 53.5983 60.5077 53.8006 59.9112 53.7683C59.3147 53.736 58.7545 53.4715 58.3504 53.0315C57.9464 52.5914 57.7306 52.0108 57.7492 51.4137L58.1511 43.9887C58.1841 43.3833 58.4561 42.8157 58.9074 42.4108C59.3587 42.0059 59.9524 41.7968 60.5578 41.8295Z" fill="#BF8256" stroke="#45413C" stroke-linecap="round" stroke-linejoin="round"/>
<path d="M58.1956 41.1168C58.7307 41.4019 59.1307 41.8879 59.3076 42.4679C59.4846 43.0478 59.4239 43.6743 59.139 44.2096L56.4096 49.5199C56.1175 50.0421 55.6324 50.4289 55.0584 50.5975C54.4843 50.7661 53.8671 50.7031 53.339 50.4219C52.8109 50.1407 52.414 49.6637 52.2335 49.0933C52.053 48.5229 52.1032 47.9045 52.3734 47.3707L55.1028 42.0603C55.2437 41.795 55.4355 41.5602 55.6673 41.3691C55.8991 41.1781 56.1662 41.0347 56.4535 40.947C56.7408 40.8594 57.0425 40.8293 57.3414 40.8584C57.6404 40.8876 57.9306 40.9754 58.1956 41.1168Z" fill="#BF8256" stroke="#45413C" stroke-linecap="round" stroke-linejoin="round"/>
<path d="M83.2255 45.1637C80.114 42.463 79.3457 36.7487 73.3622 33.6183C65.4837 29.5049 55.7402 30.486 47.1826 41.173C46.8261 41.6469 46.6676 42.2408 46.7405 42.8293C46.8135 43.4179 47.1122 43.955 47.5737 44.3275C48.0352 44.7 48.6233 44.8786 49.214 44.8257C49.8047 44.7728 50.3517 44.4926 50.7397 44.044C51.2844 43.369 51.8534 42.7138 52.4454 42.0799C52.6464 42.2947 52.887 42.4689 53.1543 42.5917C62.1088 49.3712 63.9136 50.2325 66.1094 51.0859C69.4962 52.4026 70.9921 53.0382 73.482 55.2924M67.6766 40.086C66.9225 40.9992 65.8728 41.6201 64.7093 41.8412C63.5457 42.0623 62.3415 41.8697 61.305 41.2968L56.0124 38.8713C59.1022 36.6091 62.2197 35.6657 65.3253 36.0706C67.9667 36.4141 68.5785 38.7505 67.6796 40.088L67.6766 40.086Z" stroke="#45413C" stroke-linecap="round" stroke-linejoin="round"/>
<path d="M65.6996 40.5427L62.7207 36.3471L72.002 29.7537C72.2517 29.5762 72.5339 29.4496 72.8326 29.3812C73.1312 29.3127 73.4405 29.3038 73.7426 29.355C74.0447 29.4061 74.3337 29.5162 74.5933 29.6791C74.8528 29.8419 75.0777 30.0543 75.2551 30.3042L75.5323 30.6942C75.7099 30.9439 75.8365 31.2262 75.905 31.525C75.9734 31.8237 75.9822 32.133 75.931 32.4351C75.8798 32.7372 75.7695 33.0263 75.6065 33.2858C75.4434 33.5453 75.2308 33.7701 74.9809 33.9474L65.6996 40.5427Z" fill="#FF6242"/>
<path d="M75.4105 30.5309C75.4036 30.521 75.4006 30.5111 75.3937 30.5012C75.2191 30.2012 74.9807 29.9433 74.6954 29.7457C74.4101 29.548 74.0848 29.4155 73.7426 29.3575C73.4004 29.2995 73.0497 29.3175 72.7151 29.4101C72.3806 29.5027 72.0706 29.6677 71.8069 29.8934L62.7207 36.3472L64.1602 38.3727L75.4105 30.5309Z" fill="#FF6242"/>
<path d="M65.6996 40.5427L62.7207 36.3471L72.002 29.7537C72.2517 29.5762 72.5339 29.4496 72.8326 29.3812C73.1312 29.3127 73.4405 29.3038 73.7426 29.355C74.0447 29.4061 74.3337 29.5162 74.5933 29.6791C74.8528 29.8419 75.0777 30.0543 75.2551 30.3042L75.5323 30.6942C75.7099 30.9439 75.8365 31.2262 75.905 31.525C75.9734 31.8237 75.9822 32.133 75.931 32.4351C75.8798 32.7372 75.7695 33.0263 75.6065 33.2858C75.4434 33.5453 75.2308 33.7701 74.9809 33.9474L65.6996 40.5427Z" stroke="#45413C" stroke-linecap="round" stroke-linejoin="round"/>
<path d="M63.1255 33.957L69.6486 29.3229C69.8307 29.1881 70.0381 29.0915 70.2584 29.0388C70.4787 28.9861 70.7074 28.9785 70.9307 29.0163C71.154 29.0541 71.3674 29.1366 71.5581 29.2589C71.7488 29.3811 71.9129 29.5406 72.0404 29.7278" stroke="#45413C" stroke-linecap="round" stroke-linejoin="round"/>
<path d="M48.1252 48.1191L43.5415 51.3752C43.4407 51.4459 43.3655 51.5473 43.327 51.6642C43.2885 51.7812 43.2888 51.9074 43.3279 52.0241C43.3669 52.1409 43.4426 52.2418 43.5438 52.3121C43.6449 52.3823 43.7659 52.4179 43.889 52.4138C45.8106 52.3346 48.5568 51.9861 48.5172 50.6456L49.4488 49.9833L48.1252 48.1191Z" fill="#FFE500" stroke="#45413C" stroke-linecap="round" stroke-linejoin="round"/>
<path d="M49.7803 50.4486L48.125 48.1192C48.0386 47.996 48.0044 47.8438 48.0296 47.6955C48.0548 47.5472 48.1374 47.4149 48.2596 47.3272L50.5901 45.6719L52.9067 48.9389L50.5772 50.5942C50.4521 50.6802 50.2981 50.7132 50.1487 50.6859C49.9994 50.6586 49.8669 50.5733 49.7803 50.4486Z" fill="#DAEDF7"/>
<path d="M51.6197 47.1173L50.5891 45.667L48.2596 47.3223C48.1374 47.41 48.0548 47.5423 48.0296 47.6906C48.0044 47.8389 48.0386 47.9911 48.125 48.1143L48.8071 49.0746L51.6197 47.1173Z" fill="#DAEDF7"/>
<path d="M49.7803 50.4486L48.125 48.1192C48.0386 47.996 48.0044 47.8438 48.0296 47.6955C48.0548 47.5472 48.1374 47.4149 48.2596 47.3272L50.5901 45.6719L52.9067 48.9389L50.5772 50.5942C50.4521 50.6802 50.2981 50.7132 50.1487 50.6859C49.9994 50.6586 49.8669 50.5733 49.7803 50.4486Z" stroke="#45413C" stroke-linecap="round" stroke-linejoin="round"/>
<path d="M52.5762 48.4628L50.9209 46.1333C50.7455 45.8861 50.6754 45.5793 50.7261 45.2804C50.7767 44.9815 50.944 44.715 51.1912 44.5394L62.7207 36.3472L65.6996 40.5408L54.1701 48.7331C53.9229 48.9085 53.6161 48.9786 53.3172 48.9279C53.0183 48.8772 52.7518 48.7099 52.5762 48.4628Z" fill="#FF6242"/>
<path d="M51.6197 47.1174L64.1601 38.3747L62.7206 36.3472L51.1911 44.5394C51.0686 44.6263 50.9644 44.7364 50.8846 44.8635C50.8047 44.9907 50.7507 45.1323 50.7255 45.2803C50.7004 45.4284 50.7048 45.5799 50.7383 45.7263C50.7718 45.8726 50.8338 46.0109 50.9208 46.1333L51.6197 47.1174Z" fill="#FF6242"/>
<path d="M52.5762 48.4628L50.9209 46.1333C50.7455 45.8861 50.6754 45.5793 50.7261 45.2804C50.7767 44.9815 50.944 44.715 51.1912 44.5394L62.7207 36.3472L65.6996 40.5408L54.1701 48.7331C53.9229 48.9085 53.6161 48.9786 53.3172 48.9279C53.0183 48.8772 52.7518 48.7099 52.5762 48.4628Z" stroke="#45413C" stroke-linecap="round" stroke-linejoin="round"/>
<path d="M67.6795 40.0881C66.9249 41.0017 65.8746 41.6227 64.7104 41.8434C63.5463 42.0642 62.3415 41.8709 61.3049 41.2969L55.054 38.4388C54.7799 38.306 54.4821 38.2293 54.178 38.2132C53.8739 38.197 53.5696 38.2418 53.283 38.3449C52.9964 38.448 52.7333 38.6072 52.5091 38.8134C52.2849 39.0195 52.1041 39.2683 51.9774 39.5452C51.8507 39.8222 51.7805 40.1216 51.7711 40.426C51.7617 40.7304 51.8132 41.0337 51.9225 41.3179C52.0318 41.6022 52.1968 41.8617 52.4079 42.0813C52.6189 42.3009 52.8716 42.4762 53.1512 42.5968C62.1058 49.3763 63.9106 50.2376 66.1064 51.091" fill="#FFCEBF"/>
<path d="M55.7711 41.4346L62.0219 44.2928C62.5641 44.5582 63.1615 44.6917 63.7651 44.6821C64.3687 44.6726 64.9616 44.5203 65.4951 44.2378C66.0286 43.9553 66.4878 43.5506 66.8349 43.0566C67.1821 42.5627 67.4075 41.9937 67.4927 41.396L67.6798 40.0862C66.9256 41.0003 65.8754 41.6218 64.7111 41.8429C63.5469 42.0641 62.342 41.8709 61.3052 41.297L55.0543 38.4389C54.5324 38.1972 53.9385 38.1614 53.3914 38.3387C52.8443 38.5159 52.3842 38.8931 52.1031 39.3949C51.8221 39.8967 51.7408 40.4861 51.8755 41.0452C52.0102 41.6043 52.351 42.092 52.8298 42.4108C53.1063 41.9069 53.5632 41.5262 54.1087 41.3451C54.6543 41.1641 55.2481 41.196 55.7711 41.4346Z" fill="#FFDCD1"/>
<path d="M67.6795 40.0881C66.9249 41.0017 65.8746 41.6227 64.7104 41.8434C63.5463 42.0642 62.3415 41.8709 61.3049 41.2969L55.054 38.4388C54.7799 38.306 54.4821 38.2293 54.178 38.2132C53.8739 38.197 53.5696 38.2418 53.283 38.3449C52.9964 38.448 52.7333 38.6072 52.5091 38.8134C52.2849 39.0195 52.1041 39.2683 51.9774 39.5452C51.8507 39.8222 51.7805 40.1216 51.7711 40.426C51.7617 40.7304 51.8132 41.0337 51.9225 41.3179C52.0318 41.6022 52.1968 41.8617 52.4079 42.0813C52.6189 42.3009 52.8716 42.4762 53.1512 42.5968C62.1058 49.3763 63.9106 50.2376 66.1064 51.091" stroke="#45413C" stroke-linecap="round" stroke-linejoin="round"/>
<path d="M67.6795 40.0881C66.9249 41.0017 65.8746 41.6227 64.7104 41.8434C63.5463 42.0642 62.3415 41.8709 61.3049 41.2969L55.054 38.4388C54.7799 38.306 54.4821 38.2293 54.178 38.2132C53.8739 38.197 53.5696 38.2418 53.283 38.3449C52.9964 38.448 52.7333 38.6072 52.5091 38.8134C52.2849 39.0195 52.1041 39.2683 51.9774 39.5452C51.8507 39.8222 51.7805 40.1216 51.7711 40.426C51.7617 40.7304 51.8132 41.0337 51.9225 41.3179C52.0318 41.6022 52.1968 41.8617 52.4079 42.0813C52.6189 42.3009 52.8716 42.4762 53.1512 42.5968C62.1058 49.3763 63.9106 50.2376 66.1064 51.091" fill="#BF8256"/>
<path d="M55.7711 41.4346L62.0219 44.2928C62.5641 44.5582 63.1615 44.6917 63.7651 44.6821C64.3687 44.6726 64.9616 44.5203 65.4951 44.2378C66.0286 43.9553 66.4878 43.5506 66.8349 43.0566C67.1821 42.5627 67.4075 41.9937 67.4927 41.396L67.6798 40.0862C66.9256 41.0003 65.8754 41.6218 64.7111 41.8429C63.5469 42.0641 62.342 41.8709 61.3052 41.297L55.0543 38.4389C54.5324 38.1972 53.9385 38.1614 53.3914 38.3387C52.8443 38.5159 52.3842 38.8931 52.1031 39.3949C51.8221 39.8967 51.7408 40.4861 51.8755 41.0452C52.0102 41.6043 52.351 42.092 52.8298 42.4108C53.1063 41.9069 53.5632 41.5262 54.1087 41.3451C54.6543 41.1641 55.2481 41.196 55.7711 41.4346Z" fill="#E09F7E"/>
<path d="M67.6795 40.0881C66.9249 41.0017 65.8746 41.6227 64.7104 41.8434C63.5463 42.0642 62.3415 41.8709 61.3049 41.2969L55.054 38.4388C54.7799 38.306 54.4821 38.2293 54.178 38.2132C53.8739 38.197 53.5696 38.2418 53.283 38.3449C52.9964 38.448 52.7333 38.6072 52.5091 38.8134C52.2849 39.0195 52.1041 39.2683 51.9774 39.5452C51.8507 39.8222 51.7805 40.1216 51.7711 40.426C51.7617 40.7304 51.8132 41.0337 51.9225 41.3179C52.0318 41.6022 52.1968 41.8617 52.4079 42.0813C52.6189 42.3009 52.8716 42.4762 53.1512 42.5968C62.1058 49.3763 63.9106 50.2376 66.1064 51.091" stroke="#45413C" stroke-linecap="round" stroke-linejoin="round"/>
<path d="M18.9997 21.168L17.3325 34.5033L23.1666 31.1689L29.0007 34.5033L27.3345 21.168H18.9997Z" fill="#FFE500"/>
<path d="M27.3343 21.168H18.9994L18.249 27.1753C18.9306 27.0725 19.6256 27.1035 20.2954 27.2664C21.2784 27.6742 22.0368 29.5018 23.1664 29.5018C24.2959 29.5018 25.0553 27.6742 26.0374 27.2664C26.7074 27.1034 27.4028 27.0725 28.0847 27.1753L27.3343 21.168Z" fill="#EBCB00"/>
<path d="M18.9997 21.168L17.3325 34.5033L23.1666 31.1689L29.0007 34.5033L27.3345 21.168H18.9997Z" stroke="#45413C" stroke-linejoin="round"/>
<path d="M32.3358 16.1674C32.3358 17.297 30.5073 18.0553 30.0994 19.0384C29.6776 20.0571 30.4182 21.8827 29.6499 22.6499C28.8817 23.4172 27.0571 22.6767 26.0384 23.0994C25.0563 23.5073 24.298 25.3348 23.1674 25.3348C22.0368 25.3348 21.2795 23.5073 20.2964 23.0994C19.2777 22.6767 17.4531 23.4172 16.6849 22.6499C15.9166 21.8827 16.6582 20.0571 16.2354 19.0384C15.8285 18.0553 14 17.297 14 16.1674C14 15.0378 15.8285 14.2785 16.2354 13.2964C16.6582 12.2777 15.9176 10.4521 16.6849 9.68488C17.4521 8.91763 19.2777 9.65815 20.2964 9.23542C21.2795 8.82754 22.0378 7 23.1674 7C24.297 7 25.0563 8.82754 26.0384 9.23542C27.0571 9.65815 28.8827 8.91763 29.6499 9.68488C30.4172 10.4521 29.6776 12.2777 30.0994 13.2964C30.5063 14.2785 32.3358 15.0368 32.3358 16.1674Z" fill="#FF6242"/>
<path d="M32.3358 16.1674C32.3358 17.297 30.5073 18.0553 30.0994 19.0384C29.6776 20.0571 30.4182 21.8827 29.6499 22.6499C28.8817 23.4172 27.0571 22.6767 26.0384 23.0994C25.0563 23.5073 24.298 25.3348 23.1674 25.3348C22.0368 25.3348 21.2795 23.5073 20.2964 23.0994C19.2777 22.6767 17.4531 23.4172 16.6849 22.6499C15.9166 21.8827 16.6582 20.0571 16.2354 19.0384C15.8285 18.0553 14 17.297 14 16.1674C14 15.0378 15.8285 14.2785 16.2354 13.2964C16.6582 12.2777 15.9176 10.4521 16.6849 9.68488C17.4521 8.91763 19.2777 9.65815 20.2964 9.23542C21.2795 8.82754 22.0378 7 23.1674 7C24.297 7 25.0563 8.82754 26.0384 9.23542C27.0571 9.65815 28.8827 8.91763 29.6499 9.68488C30.4172 10.4521 29.6776 12.2777 30.0994 13.2964C30.5063 14.2785 32.3358 15.0368 32.3358 16.1674Z" stroke="#45413C" stroke-linejoin="round"/>
<path d="M27.3343 16.1674C27.3345 16.9918 27.0903 17.7977 26.6324 18.4832C26.1745 19.1688 25.5237 19.7031 24.7621 20.0187C24.0005 20.3343 23.1625 20.417 22.3539 20.2563C21.5454 20.0956 20.8026 19.6987 20.2196 19.1159C19.6366 18.533 19.2396 17.7904 19.0787 16.9819C18.9178 16.1733 19.0003 15.3353 19.3157 14.5736C19.6311 13.812 20.1653 13.161 20.8508 12.703C21.5362 12.245 22.3421 12.0005 23.1664 12.0005C23.7137 12.0004 24.2557 12.108 24.7613 12.3174C25.267 12.5267 25.7265 12.8337 26.1135 13.2206C26.5006 13.6075 26.8076 14.0669 27.0171 14.5726C27.2265 15.0782 27.3343 15.6201 27.3343 16.1674Z" fill="white" stroke="#45413C" stroke-linejoin="round"/>
</svg>
