<svg width="84" height="84" viewBox="0 0 84 84" fill="none" xmlns="http://www.w3.org/2000/svg">
<path d="M40.6 81.2C62.4701 81.2 80.2 63.4701 80.2 41.6C80.2 19.7299 62.4701 2 40.6 2C18.7299 2 1 19.7299 1 41.6C1 63.4701 18.7299 81.2 40.6 81.2Z" fill="#DAEDF7" stroke="#DAEDF7" stroke-linecap="round" stroke-linejoin="round"/>
<path d="M58.891 66.5917H22.0631C21.4035 66.5917 20.7709 66.3297 20.3046 65.8633C19.8382 65.3969 19.5762 64.7644 19.5762 64.1048V16.4175C19.5767 15.7301 19.8501 15.071 20.3362 14.585C20.8224 14.0991 21.4816 13.8259 22.169 13.8257H58.7841C59.4716 13.8257 60.131 14.0987 60.6172 14.5848C61.1034 15.0708 61.3767 15.73 61.3769 16.4175V64.1048C61.3769 64.7642 61.1151 65.3966 60.6489 65.863C60.1827 66.3293 59.5504 66.5914 58.891 66.5917Z" fill="#DEBB7E"/>
<path d="M58.7841 13.8257H22.168C21.4806 13.8259 20.8214 14.0991 20.3353 14.585C19.8491 15.071 19.5757 15.7301 19.5752 16.4175V19.9934C19.5752 19.2663 19.864 18.5691 20.3781 18.055C20.8922 17.5409 21.5895 17.2521 22.3165 17.2521H58.6356C59.3627 17.2521 60.0599 17.5409 60.574 18.055C61.0881 18.5691 61.377 19.2663 61.377 19.9934V16.4175C61.3771 16.077 61.3101 15.7399 61.1798 15.4253C61.0496 15.1107 60.8586 14.8249 60.6178 14.5842C60.377 14.3435 60.0911 14.1526 59.7765 14.0224C59.4618 13.8923 59.1246 13.8254 58.7841 13.8257Z" fill="#F0D3A8"/>
<path d="M58.891 66.5917H22.0631C21.4035 66.5917 20.7709 66.3297 20.3046 65.8633C19.8382 65.3969 19.5762 64.7644 19.5762 64.1048V16.4175C19.5767 15.7301 19.8501 15.071 20.3362 14.585C20.8224 14.0991 21.4816 13.8259 22.169 13.8257H58.7841C59.4716 13.8257 60.131 14.0987 60.6172 14.5848C61.1034 15.0708 61.3767 15.73 61.3769 16.4175V64.1048C61.3769 64.7642 61.1151 65.3966 60.6489 65.863C60.1827 66.3293 59.5504 66.5914 58.891 66.5917Z" stroke="#45413C" stroke-linecap="round" stroke-linejoin="round"/>
<path d="M56.0214 17.937H24.9305C24.2434 17.937 23.687 18.4934 23.687 19.1805V61.2356C23.687 61.9227 24.2434 62.4791 24.9305 62.4791H56.0214C56.7085 62.4791 57.2648 61.9227 57.2648 61.2356V19.1805C57.2648 18.4934 56.7085 17.937 56.0214 17.937Z" fill="white" stroke="#45413C" stroke-linecap="round" stroke-linejoin="round"/>
<path d="M28.4746 28.9014H49.4121" stroke="#45413C" stroke-linecap="round" stroke-linejoin="round"/>
<path d="M28.4746 35.0688H49.4121" stroke="#45413C" stroke-linecap="round" stroke-linejoin="round"/>
<path d="M28.4746 41.9219H43.0672" stroke="#45413C" stroke-linecap="round" stroke-linejoin="round"/>
<path opacity="0.15" d="M57.2658 33.1968L47.5143 43.7601C46.8992 44.4286 46.5745 45.3139 46.6117 46.2216C46.6488 47.1293 47.0447 47.9851 47.7123 48.6012C48.1301 48.9853 48.639 49.2585 49.1904 49.3932L46.0224 52.5612L46.5075 53.0463L42.2257 57.327C42.0169 57.5362 41.8811 57.8071 41.8385 58.0995C41.796 58.392 41.8489 58.6904 41.9894 58.9504C42.13 59.2103 42.3507 59.418 42.6187 59.5426C42.8867 59.6671 43.1878 59.7019 43.4771 59.6417C47.2292 58.8437 49.1379 57.6914 49.1597 56.2123L49.4191 55.9529L50.3883 56.9221L52.7851 54.5263C53.4282 55.044 54.2365 55.3124 55.0616 55.2823C55.8866 55.2521 56.6731 54.9253 57.2767 54.362L57.2658 33.1968Z" fill="#45413C"/>
<path d="M54.9033 41.4949L66.9071 45.9727L71.9561 37.8745L58.9039 34.3501L54.9033 41.4949Z" fill="#BF8256"/>
<path d="M74.0402 55.1633L83.3363 45.8672C83.3719 45.8316 83.4105 45.7979 83.4511 45.7682C80.3395 43.0675 79.5713 37.3532 73.5878 34.2228C65.7093 30.1094 55.9658 31.0905 47.4082 41.7775C47.0517 42.2514 46.8931 42.8453 46.9661 43.4338C47.0391 44.0223 47.3378 44.5595 47.7993 44.932C48.2608 45.3045 48.8489 45.4831 49.4396 45.4302C50.0303 45.3773 50.5773 45.097 50.9653 44.6485C51.51 43.9734 52.0789 43.3183 52.671 42.6844C52.872 42.8992 53.1126 43.0724 53.3799 43.1962C62.3344 49.9757 64.1392 50.837 66.335 51.6904C69.7218 53.0071 71.2177 53.6427 73.7075 55.8969C73.7253 55.62 73.8436 55.3591 74.0402 55.1633ZM67.9022 40.6925C67.1471 41.6046 66.0971 42.2242 64.9337 42.4442C63.7702 42.6642 62.5665 42.4707 61.5305 41.8973L56.238 39.4718C59.3278 37.2097 62.4453 36.2662 65.5509 36.6711C68.1923 37.0146 68.8041 39.351 67.9052 40.6885L67.9022 40.6925Z" fill="#BF8256"/>
<path d="M81.6384 47.5597L83.3363 45.8628C83.3719 45.8272 83.4105 45.7935 83.4511 45.7638C80.3395 43.0631 79.5713 37.3488 73.5877 34.2184C65.7093 30.105 55.9657 31.0861 47.4082 41.7731C47.0799 42.182 46.9016 42.691 46.9028 43.2153C46.9041 43.7396 47.0849 44.2477 47.4151 44.655C47.4814 44.5293 47.5587 44.4105 47.6468 44.2986C56.2053 33.6066 65.1331 32.9285 73.0818 36.9033C75.7242 38.223 79.2693 44.4481 81.6384 47.5597Z" fill="#E09F7E"/>
<path opacity="0.15" d="M40.2564 76.2394C48.4635 76.2394 55.1183 75.4722 55.1183 74.5247C55.1183 73.5773 48.4645 72.8101 40.2564 72.8101C32.0493 72.8101 25.3945 73.5773 25.3945 74.5247C25.3945 75.4722 32.0483 76.2394 40.2564 76.2394Z" fill="#45413C"/>
<path d="M30.5654 49.043C30.2104 49.3971 29.9483 49.8334 29.8024 50.3131C29.6564 50.7929 29.6311 51.3012 29.7286 51.793C29.8262 52.2849 30.0436 52.745 30.3617 53.1327C30.6797 53.5204 31.0884 53.8236 31.5517 54.0155C32.015 54.2073 32.5184 54.2819 33.0174 54.2326C33.5164 54.1832 33.9956 54.0115 34.4123 53.7326C34.829 53.4538 35.1705 53.0764 35.4064 52.6339C35.6424 52.1915 35.7655 51.6976 35.7648 51.1962V51.8061C35.7648 52.4522 36.0215 53.0719 36.4784 53.5288C36.9354 53.9858 37.5551 54.2424 38.2012 54.2424C38.8474 54.2424 39.4671 53.9858 39.924 53.5288C40.3809 53.0719 40.6376 52.4522 40.6376 51.8061C40.6376 52.4522 40.8943 53.0719 41.3512 53.5288C41.8081 53.9858 42.4278 54.2424 43.074 54.2424H44.8986" stroke="#FF6242" stroke-linecap="round" stroke-linejoin="round"/>
<path d="M60.7834 42.4296C61.0832 42.4458 61.3769 42.5209 61.6477 42.6506C61.9184 42.7804 62.161 42.9622 62.3615 43.1856C62.562 43.4091 62.7166 43.6699 62.8162 43.9532C62.9159 44.2364 62.9589 44.5365 62.9426 44.8363L62.5406 52.2613C62.4945 52.8569 62.2172 53.4108 61.768 53.8046C61.3188 54.1984 60.7333 54.4007 60.1368 54.3684C59.5402 54.3361 58.9801 54.0716 58.576 53.6316C58.172 53.1915 57.9562 52.6109 57.9747 52.0138L58.3767 44.5888C58.4097 43.9834 58.6817 43.4158 59.133 43.0109C59.5843 42.606 60.1779 42.3969 60.7834 42.4296Z" fill="#BF8256" stroke="#45413C" stroke-linecap="round" stroke-linejoin="round"/>
<path d="M58.4212 41.7169C58.9563 42.002 59.3563 42.488 59.5332 43.068C59.7102 43.6479 59.6495 44.2744 59.3646 44.8097L56.6352 50.12C56.3431 50.6422 55.858 51.029 55.2839 51.1976C54.7099 51.3662 54.0926 51.3032 53.5646 51.022C53.0365 50.7408 52.6396 50.2638 52.4591 49.6934C52.2786 49.123 52.3288 48.5046 52.599 47.9707L55.3284 42.6604C55.4693 42.3951 55.6611 42.1603 55.8929 41.9692C56.1246 41.7782 56.3918 41.6348 56.6791 41.5471C56.9664 41.4595 57.2681 41.4294 57.567 41.4585C57.866 41.4877 58.1562 41.5755 58.4212 41.7169Z" fill="#BF8256" stroke="#45413C" stroke-linecap="round" stroke-linejoin="round"/>
<path d="M83.4511 45.7638C80.3395 43.0631 79.5713 37.3488 73.5878 34.2184C65.7093 30.105 55.9658 31.0861 47.4082 41.7731C47.0517 42.247 46.8931 42.8409 46.9661 43.4294C47.0391 44.018 47.3378 44.5551 47.7993 44.9276C48.2608 45.3001 48.8489 45.4787 49.4396 45.4258C50.0303 45.3729 50.5773 45.0927 50.9653 44.6441C51.51 43.9691 52.0789 43.3139 52.671 42.68C52.872 42.8948 53.1126 43.069 53.3799 43.1918C62.3344 49.9713 64.1392 50.8326 66.335 51.686C69.7218 53.0027 71.2177 53.6383 73.7075 55.8925M67.9022 40.6861C67.148 41.5993 66.0984 42.2202 64.9349 42.4413C63.7713 42.6624 62.5671 42.4698 61.5305 41.8969L56.238 39.4714C59.3278 37.2092 62.4453 36.2658 65.5509 36.6707C68.1923 37.0142 68.8041 39.3506 67.9052 40.6881L67.9022 40.6861Z" stroke="#45413C" stroke-linecap="round" stroke-linejoin="round"/>
<path d="M65.9252 41.1428L62.9463 36.9472L72.2275 30.3538C72.4773 30.1763 72.7595 30.0497 73.0582 29.9813C73.3568 29.9128 73.666 29.9039 73.9681 29.9551C74.2703 30.0062 74.5593 30.1163 74.8188 30.2792C75.0784 30.442 75.3033 30.6544 75.4807 30.9043L75.7579 31.2943C75.9355 31.544 76.0621 31.8263 76.1305 32.1251C76.199 32.4238 76.2078 32.7331 76.1566 33.0352C76.1054 33.3373 75.9951 33.6264 75.8321 33.8859C75.669 34.1454 75.4564 34.3702 75.2064 34.5475L65.9252 41.1428Z" fill="#FF6242"/>
<path d="M75.6361 31.131C75.6292 31.1211 75.6262 31.1112 75.6193 31.1013C75.4447 30.8013 75.2063 30.5434 74.921 30.3458C74.6357 30.1481 74.3104 30.0156 73.9682 29.9576C73.626 29.8996 73.2752 29.9176 72.9407 30.0102C72.6062 30.1028 72.2962 30.2678 72.0325 30.4935L62.9463 36.9473L64.3857 38.9728L75.6361 31.131Z" fill="#FF6242"/>
<path d="M65.9252 41.1428L62.9463 36.9472L72.2275 30.3538C72.4773 30.1763 72.7595 30.0497 73.0582 29.9813C73.3568 29.9128 73.666 29.9039 73.9681 29.9551C74.2703 30.0062 74.5593 30.1163 74.8188 30.2792C75.0784 30.442 75.3033 30.6544 75.4807 30.9043L75.7579 31.2943C75.9355 31.544 76.0621 31.8263 76.1305 32.1251C76.199 32.4238 76.2078 32.7331 76.1566 33.0352C76.1054 33.3373 75.9951 33.6264 75.8321 33.8859C75.669 34.1454 75.4564 34.3702 75.2064 34.5475L65.9252 41.1428Z" stroke="#45413C" stroke-linecap="round" stroke-linejoin="round"/>
<path d="M63.3511 34.5571L69.8742 29.9229C70.0563 29.7882 70.2637 29.6916 70.484 29.6389C70.7043 29.5862 70.9329 29.5786 71.1563 29.6164C71.3796 29.6542 71.593 29.7367 71.7837 29.8589C71.9744 29.9812 72.1384 30.1407 72.266 30.3279" stroke="#45413C" stroke-linecap="round" stroke-linejoin="round"/>
<path d="M48.3508 48.7192L43.7671 51.9753C43.6663 52.046 43.5911 52.1474 43.5526 52.2643C43.5141 52.3813 43.5144 52.5075 43.5534 52.6242C43.5925 52.7409 43.6682 52.8419 43.7693 52.9122C43.8704 52.9824 43.9915 53.018 44.1146 53.0139C46.0361 52.9347 48.7824 52.5862 48.7428 51.2457L49.6744 50.5834L48.3508 48.7192Z" fill="#FFE500" stroke="#45413C" stroke-linecap="round" stroke-linejoin="round"/>
<path d="M50.0059 51.0487L48.3506 48.7193C48.2642 48.5961 48.2299 48.4439 48.2552 48.2956C48.2804 48.1473 48.363 48.015 48.4852 47.9273L50.8157 46.272L53.1323 49.539L50.8028 51.1943C50.6777 51.2803 50.5236 51.3133 50.3743 51.286C50.2249 51.2587 50.0925 51.1734 50.0059 51.0487Z" fill="#DAEDF7"/>
<path d="M51.8453 47.7174L50.8147 46.2671L48.4852 47.9224C48.363 48.0101 48.2804 48.1424 48.2552 48.2907C48.2299 48.439 48.2642 48.5912 48.3506 48.7144L49.0327 49.6747L51.8453 47.7174Z" fill="#DAEDF7"/>
<path d="M50.0059 51.0487L48.3506 48.7193C48.2642 48.5961 48.2299 48.4439 48.2552 48.2956C48.2804 48.1473 48.363 48.015 48.4852 47.9273L50.8157 46.272L53.1323 49.539L50.8028 51.1943C50.6777 51.2803 50.5236 51.3133 50.3743 51.286C50.2249 51.2587 50.0925 51.1734 50.0059 51.0487Z" stroke="#45413C" stroke-linecap="round" stroke-linejoin="round"/>
<path d="M52.8018 49.0629L51.1465 46.7334C50.971 46.4862 50.901 46.1794 50.9516 45.8805C51.0023 45.5816 51.1696 45.3151 51.4168 45.1395L62.9463 36.9473L65.9252 41.1409L54.3957 49.3332C54.1484 49.5086 53.8417 49.5787 53.5428 49.528C53.2439 49.4773 52.9773 49.31 52.8018 49.0629Z" fill="#FF6242"/>
<path d="M51.8453 47.7175L64.3857 38.9748L62.9462 36.9473L51.4167 45.1395C51.2942 45.2264 51.19 45.3365 51.1102 45.4636C51.0303 45.5908 50.9762 45.7324 50.9511 45.8804C50.926 46.0285 50.9304 46.18 50.9639 46.3264C50.9974 46.4727 51.0594 46.611 51.1464 46.7334L51.8453 47.7175Z" fill="#FF6242"/>
<path d="M52.8018 49.0629L51.1465 46.7334C50.971 46.4862 50.901 46.1794 50.9516 45.8805C51.0023 45.5816 51.1696 45.3151 51.4168 45.1395L62.9463 36.9473L65.9252 41.1409L54.3957 49.3332C54.1484 49.5086 53.8417 49.5787 53.5428 49.528C53.2439 49.4773 52.9773 49.31 52.8018 49.0629Z" stroke="#45413C" stroke-linecap="round" stroke-linejoin="round"/>
<path d="M67.9051 40.6882C67.1505 41.6018 66.1002 42.2228 64.936 42.4435C63.7718 42.6643 62.5671 42.471 61.5305 41.897L55.2796 39.0389C55.0055 38.9061 54.7077 38.8294 54.4036 38.8133C54.0994 38.7971 53.7952 38.8419 53.5086 38.945C53.222 39.0481 52.9589 39.2073 52.7347 39.4135C52.5105 39.6196 52.3297 39.8684 52.203 40.1453C52.0763 40.4223 52.0061 40.7217 51.9967 41.0261C51.9873 41.3305 52.0387 41.6338 52.1481 41.918C52.2574 42.2023 52.4224 42.4618 52.6334 42.6814C52.8444 42.901 53.0972 43.0763 53.3768 43.1969C62.3314 49.9764 64.1362 50.8377 66.332 51.6911" fill="#FFCEBF"/>
<path d="M55.9966 42.0347L62.2475 44.8929C62.7897 45.1583 63.387 45.2918 63.9907 45.2822C64.5943 45.2727 65.1871 45.1204 65.7207 44.8379C66.2542 44.5554 66.7133 44.1506 67.0605 43.6567C67.4077 43.1628 67.6331 42.5938 67.7182 41.9961L67.9053 40.6863C67.1512 41.6004 66.101 42.2219 64.9367 42.443C63.7725 42.6642 62.5675 42.471 61.5307 41.8971L55.2799 39.039C54.758 38.7973 54.1641 38.7615 53.617 38.9388C53.0698 39.116 52.6098 39.4932 52.3287 39.995C52.0477 40.4968 51.9664 41.0862 52.1011 41.6453C52.2358 42.2044 52.5766 42.6921 53.0553 43.0109C53.3319 42.507 53.7888 42.1263 54.3343 41.9452C54.8799 41.7642 55.4737 41.7961 55.9966 42.0347Z" fill="#FFDCD1"/>
<path d="M67.9051 40.6882C67.1505 41.6018 66.1002 42.2228 64.936 42.4435C63.7718 42.6643 62.5671 42.471 61.5305 41.897L55.2796 39.0389C55.0055 38.9061 54.7077 38.8294 54.4036 38.8133C54.0994 38.7971 53.7952 38.8419 53.5086 38.945C53.222 39.0481 52.9589 39.2073 52.7347 39.4135C52.5105 39.6196 52.3297 39.8684 52.203 40.1453C52.0763 40.4223 52.0061 40.7217 51.9967 41.0261C51.9873 41.3305 52.0387 41.6338 52.1481 41.918C52.2574 42.2023 52.4224 42.4618 52.6334 42.6814C52.8444 42.901 53.0972 43.0763 53.3768 43.1969C62.3314 49.9764 64.1362 50.8377 66.332 51.6911" stroke="#45413C" stroke-linecap="round" stroke-linejoin="round"/>
<path d="M67.9051 40.6882C67.1505 41.6018 66.1002 42.2228 64.936 42.4435C63.7718 42.6643 62.5671 42.471 61.5305 41.897L55.2796 39.0389C55.0055 38.9061 54.7077 38.8294 54.4036 38.8133C54.0994 38.7971 53.7952 38.8419 53.5086 38.945C53.222 39.0481 52.9589 39.2073 52.7347 39.4135C52.5105 39.6196 52.3297 39.8684 52.203 40.1453C52.0763 40.4223 52.0061 40.7217 51.9967 41.0261C51.9873 41.3305 52.0387 41.6338 52.1481 41.918C52.2574 42.2023 52.4224 42.4618 52.6334 42.6814C52.8444 42.901 53.0972 43.0763 53.3768 43.1969C62.3314 49.9764 64.1362 50.8377 66.332 51.6911" fill="#BF8256"/>
<path d="M55.9966 42.0347L62.2475 44.8929C62.7897 45.1583 63.387 45.2918 63.9907 45.2822C64.5943 45.2727 65.1871 45.1204 65.7207 44.8379C66.2542 44.5554 66.7133 44.1506 67.0605 43.6567C67.4077 43.1628 67.6331 42.5938 67.7182 41.9961L67.9053 40.6863C67.1512 41.6004 66.101 42.2219 64.9367 42.443C63.7725 42.6642 62.5675 42.471 61.5307 41.8971L55.2799 39.039C54.758 38.7973 54.1641 38.7615 53.617 38.9388C53.0698 39.116 52.6098 39.4932 52.3287 39.995C52.0477 40.4968 51.9664 41.0862 52.1011 41.6453C52.2358 42.2044 52.5766 42.6921 53.0553 43.0109C53.3319 42.507 53.7888 42.1263 54.3343 41.9452C54.8799 41.7642 55.4737 41.7961 55.9966 42.0347Z" fill="#E09F7E"/>
<path d="M67.9051 40.6882C67.1505 41.6018 66.1002 42.2228 64.936 42.4435C63.7718 42.6643 62.5671 42.471 61.5305 41.897L55.2796 39.0389C55.0055 38.9061 54.7077 38.8294 54.4036 38.8133C54.0994 38.7971 53.7952 38.8419 53.5086 38.945C53.222 39.0481 52.9589 39.2073 52.7347 39.4135C52.5105 39.6196 52.3297 39.8684 52.203 40.1453C52.0763 40.4223 52.0061 40.7217 51.9967 41.0261C51.9873 41.3305 52.0387 41.6338 52.1481 41.918C52.2574 42.2023 52.4224 42.4618 52.6334 42.6814C52.8444 42.901 53.0972 43.0763 53.3768 43.1969C62.3314 49.9764 64.1362 50.8377 66.332 51.6911" stroke="#45413C" stroke-linecap="round" stroke-linejoin="round"/>
<path d="M19.2253 21.7681L17.5581 35.1034L23.3922 31.769L29.2262 35.1034L27.5601 21.7681H19.2253Z" fill="#FFE500"/>
<path d="M27.5598 21.7681H19.225L18.4746 27.7754C19.1562 27.6726 19.8512 27.7036 20.5209 27.8665C21.504 28.2743 22.2623 30.1019 23.3919 30.1019C24.5215 30.1019 25.2809 28.2743 26.2629 27.8665C26.933 27.7035 27.6284 27.6726 28.3103 27.7754L27.5598 21.7681Z" fill="#EBCB00"/>
<path d="M19.2253 21.7681L17.5581 35.1034L23.3922 31.769L29.2262 35.1034L27.5601 21.7681H19.2253Z" stroke="#45413C" stroke-linejoin="round"/>
<path d="M32.5614 16.7675C32.5614 17.8971 30.7328 18.6554 30.325 19.6385C29.9032 20.6572 30.6437 22.4828 29.8755 23.25C29.1073 24.0173 27.2827 23.2767 26.264 23.6995C25.2819 24.1074 24.5236 25.9349 23.393 25.9349C22.2624 25.9349 21.5051 24.1074 20.522 23.6995C19.5033 23.2767 17.6787 24.0173 16.9105 23.25C16.1422 22.4828 16.8837 20.6572 16.461 19.6385C16.0541 18.6554 14.2256 17.8971 14.2256 16.7675C14.2256 15.6379 16.0541 14.8786 16.461 13.8965C16.8837 12.8778 16.1432 11.0522 16.9105 10.285C17.6777 9.51773 19.5033 10.2582 20.522 9.83552C21.5051 9.42764 22.2634 7.6001 23.393 7.6001C24.5226 7.6001 25.2819 9.42764 26.264 9.83552C27.2827 10.2582 29.1083 9.51773 29.8755 10.285C30.6428 11.0522 29.9032 12.8778 30.325 13.8965C30.7319 14.8786 32.5614 15.6369 32.5614 16.7675Z" fill="#FF6242"/>
<path d="M32.5614 16.7675C32.5614 17.8971 30.7328 18.6554 30.325 19.6385C29.9032 20.6572 30.6437 22.4828 29.8755 23.25C29.1073 24.0173 27.2827 23.2767 26.264 23.6995C25.2819 24.1074 24.5236 25.9349 23.393 25.9349C22.2624 25.9349 21.5051 24.1074 20.522 23.6995C19.5033 23.2767 17.6787 24.0173 16.9105 23.25C16.1422 22.4828 16.8837 20.6572 16.461 19.6385C16.0541 18.6554 14.2256 17.8971 14.2256 16.7675C14.2256 15.6379 16.0541 14.8786 16.461 13.8965C16.8837 12.8778 16.1432 11.0522 16.9105 10.285C17.6777 9.51773 19.5033 10.2582 20.522 9.83552C21.5051 9.42764 22.2634 7.6001 23.393 7.6001C24.5226 7.6001 25.2819 9.42764 26.264 9.83552C27.2827 10.2582 29.1083 9.51773 29.8755 10.285C30.6428 11.0522 29.9032 12.8778 30.325 13.8965C30.7319 14.8786 32.5614 15.6369 32.5614 16.7675Z" stroke="#45413C" stroke-linejoin="round"/>
<path d="M27.5599 16.7675C27.5601 17.5919 27.3158 18.3978 26.858 19.0833C26.4001 19.7689 25.7493 20.3032 24.9877 20.6188C24.2261 20.9344 23.3881 21.0171 22.5795 20.8564C21.771 20.6957 21.0282 20.2988 20.4452 19.716C19.8622 19.1331 19.4652 18.3905 19.3043 17.582C19.1434 16.7734 19.2259 15.9354 19.5413 15.1737C19.8567 14.4121 20.3909 13.7611 21.0764 13.3031C21.7618 12.8451 22.5676 12.6006 23.392 12.6006C23.9393 12.6005 24.4813 12.7081 24.9869 12.9175C25.4926 13.1268 25.9521 13.4337 26.3391 13.8207C26.7262 14.2076 27.0332 14.667 27.2426 15.1727C27.4521 15.6783 27.5599 16.2202 27.5599 16.7675Z" fill="white" stroke="#45413C" stroke-linejoin="round"/>
</svg>
