<svg xmlns="http://www.w3.org/2000/svg" version="1.1" xmlns:xlink="http://www.w3.org/1999/xlink" xmlns:svgjs="http://svgjs.com/svgjs" viewBox="0 0 160 160" width="160" height="160"><g transform="matrix(1.6,0,0,1.6,0,0)"><path d="M2.351 54.929 A40.000 40.000 0 1 0 82.351 54.929 A40.000 40.000 0 1 0 2.351 54.929 Z" fill="#c7f0ff" stroke="#c7f0ff" stroke-miterlimit="10"></path><path d="M8.423 35.315 L48.720 35.315 L48.720 75.860 L8.423 75.860 Z" fill="#f7e5c6" transform="translate(-8.356 5.162) rotate(-9.013)"></path><path d="M8.423 35.315 L48.720 35.315 L48.720 75.860 L8.423 75.860 Z" fill="#ffffff" stroke="#45413c" stroke-linecap="round" stroke-linejoin="round" transform="translate(-8.356 5.162) rotate(-9.013)"></path><path d="M9.903 45.073L8.812 38.195" fill="none" stroke="#45413c" stroke-linecap="round" stroke-linejoin="round"></path><path d="M10.745 50.38L10.534 49.053" fill="none" stroke="#45413c" stroke-linecap="round" stroke-linejoin="round"></path><path d="M16.383 34.052 L56.680 34.052 L56.680 74.597 L16.383 74.597 Z" fill="#c7f0ff" transform="translate(-8.059 6.394) rotate(-9.013)"></path><path d="M16.383 34.052 L56.680 34.052 L56.680 74.597 L16.383 74.597 Z" fill="none" stroke="#45413c" stroke-linecap="round" stroke-linejoin="round" transform="translate(-8.059 6.394) rotate(-9.013)"></path><path d="M16.491 78.029L14.386 64.763" fill="none" stroke="#45413c" stroke-linecap="round" stroke-linejoin="round"></path><path d="M55.819,47.31A16.119,16.119,0,0,0,74.264,60.705l-39.8,6.313a16.119,16.119,0,0,1-18.445-13.4L13.631,38.564a1.118,1.118,0,0,1,.93-1.28l37.588-5.963a1.119,1.119,0,0,1,1.281.93Z" fill="#ffffff"></path><path d="M55.018,42.262l-39.8,6.313L13.631,38.564a1.118,1.118,0,0,1,.93-1.28l37.588-5.963a1.119,1.119,0,0,1,1.281.93Z" fill="#ff6242"></path><path d="M55.819,47.31A16.119,16.119,0,0,0,74.264,60.705l-39.8,6.313a16.119,16.119,0,0,1-18.445-13.4L13.631,38.564a1.118,1.118,0,0,1,.93-1.28l37.588-5.963a1.119,1.119,0,0,1,1.281.93Z" fill="none" stroke="#45413c" stroke-linecap="round" stroke-linejoin="round"></path><path d="M32.841,32.48a7.99,7.99,0,0,0,.5,1.824l2.3-.365a5.785,5.785,0,0,1-.593-1.81A6.156,6.156,0,1,1,46.059,34.86a1.137,1.137,0,0,0-.237.865,1.124,1.124,0,0,0,2.015.485,8.344,8.344,0,0,0,1.284-7.627,8.4,8.4,0,0,0-16.28,3.9Z" fill="#e0e0e0" stroke="#45413c" stroke-linecap="round" stroke-linejoin="round"></path><path d="M20.68,34.409a7.99,7.99,0,0,0,.5,1.824l2.3-.365a5.785,5.785,0,0,1-.593-1.81A6.156,6.156,0,1,1,33.9,36.789a1.137,1.137,0,0,0-.237.865,1.124,1.124,0,0,0,2.015.485,8.344,8.344,0,0,0,1.284-7.627,8.4,8.4,0,0,0-16.28,3.9Z" fill="#e0e0e0" stroke="#45413c" stroke-linecap="round" stroke-linejoin="round"></path><path d="M8.519,36.338a7.99,7.99,0,0,0,.5,1.824l2.3-.365a5.793,5.793,0,0,1-.593-1.81,6.156,6.156,0,1,1,11.007,2.731,1.137,1.137,0,0,0-.237.865,1.124,1.124,0,0,0,2.015.485A8.344,8.344,0,0,0,24.8,32.441a8.4,8.4,0,0,0-16.28,3.9Z" fill="#e0e0e0" stroke="#45413c" stroke-linecap="round" stroke-linejoin="round"></path><path d="M15.219 48.575L55.018 42.262" fill="none" stroke="#45413c" stroke-linecap="round" stroke-linejoin="round"></path><path d="M26.172,46.837l.769,4.849a16.263,16.263,0,0,0,18.445,13.6" fill="none" stroke="#45413c" stroke-linecap="round" stroke-linejoin="round"></path><path d="M36.218,45.244l.733,4.623a16.535,16.535,0,0,0,18.65,13.8" fill="none" stroke="#45413c" stroke-linecap="round" stroke-linejoin="round"></path><path d="M46.657,43.588l.69,4.351c1.392,8.774,9.219,15.125,17.7,14.228" fill="none" stroke="#45413c" stroke-linecap="round" stroke-linejoin="round"></path><path d="M16.867 56.821L56.175 49.554" fill="none" stroke="#45413c" stroke-linecap="round" stroke-linejoin="round"></path><path d="M21.582 63.449L60.092 55.93" fill="none" stroke="#45413c" stroke-linecap="round" stroke-linejoin="round"></path><path d="M18.690 85.541 A17.795 1.75 0 1 0 54.280 85.541 A17.795 1.75 0 1 0 18.690 85.541 Z" fill="#45413c" opacity=".15"></path><path d="M74.613,5.163a21.023,21.023,0,0,0-17.27,29.374L52.271,46.13a1.052,1.052,0,0,0,1.261,1.431L65.6,44.011a21.031,21.031,0,1,0,9.01-38.848Z" fill="#ffffff"></path><path d="M52.951,44.576,65.6,40.855A20.988,20.988,0,0,0,97.58,24.387a21.578,21.578,0,0,1-.028,3.767A21.008,21.008,0,0,1,65.6,44.011l-12.071,3.55a1.052,1.052,0,0,1-1.261-1.431Z" fill="#c7f0ff"></path><path d="M74.613,5.163a21.023,21.023,0,0,0-17.27,29.374L52.271,46.13a1.052,1.052,0,0,0,1.261,1.431L65.6,44.011a21.031,21.031,0,1,0,9.01-38.848Z" fill="none" stroke="#45413c" stroke-linecap="round" stroke-linejoin="round"></path><path d="M77.337,27.55a.842.842,0,0,1-1.632,0c-3.3-12.989-3.158-12.4-3.17-12.534a4,4,0,1,1,7.972,0C80.494,15.146,80.633,14.557,77.337,27.55Z" fill="#ff6242" stroke="#45413c" stroke-linecap="round" stroke-linejoin="round"></path><path d="M76.521,38.766a3.505,3.505,0,1,1,3.5-3.507A3.509,3.509,0,0,1,76.521,38.766Z" fill="#ff6242"></path><path d="M76.521,32.256a3.005,3.005,0,1,1-3,3,3.008,3.008,0,0,1,3-3m0-1a4.005,4.005,0,1,0,4,4,4,4,0,0,0-4-4Z" fill="#45413c"></path><path d="M74.613,5.163a21.023,21.023,0,0,0-17.27,29.374L52.271,46.13a1.052,1.052,0,0,0,1.261,1.431L65.6,44.011a21.031,21.031,0,1,0,9.01-38.848Z" fill="#ffffff"></path><path d="M52.951,44.576,65.6,40.855A20.988,20.988,0,0,0,97.58,24.387a21.578,21.578,0,0,1-.028,3.767A21.008,21.008,0,0,1,65.6,44.011l-12.071,3.55a1.052,1.052,0,0,1-1.261-1.431Z" fill="#c7f0ff"></path><path d="M74.613,5.163a21.023,21.023,0,0,0-17.27,29.374L52.271,46.13a1.052,1.052,0,0,0,1.261,1.431L65.6,44.011a21.031,21.031,0,1,0,9.01-38.848Z" fill="none" stroke="#45413c" stroke-linecap="round" stroke-linejoin="round"></path><path d="M77.337,27.55a.842.842,0,0,1-1.632,0c-3.3-12.989-3.158-12.4-3.17-12.534a4,4,0,1,1,7.972,0C80.494,15.146,80.633,14.557,77.337,27.55Z" fill="#ff6242" stroke="#e04122" stroke-linecap="round" stroke-linejoin="round"></path><path d="M76.521,38.766a3.505,3.505,0,1,1,3.5-3.507A3.509,3.509,0,0,1,76.521,38.766Z" fill="#ff6242"></path><path d="M76.521,32.256a3.005,3.005,0,1,1-3,3,3.008,3.008,0,0,1,3-3m0-1a4.005,4.005,0,1,0,4,4,4,4,0,0,0-4-4Z" fill="#e04122"></path></g></svg>