<svg viewBox="0 0 48 48" height="48" width="48" xmlns="http://www.w3.org/2000/svg"><g transform="matrix(0.48,0,0,0.48,0,0)"><path d="M10.000 50.000 A40.000 40.000 0 1 0 90.000 50.000 A40.000 40.000 0 1 0 10.000 50.000 Z" fill="#C7F0FF" stroke="#C7F0FF"></path><path d="M20.075 50.000 A29.925 29.925 0 1 0 79.925 50.000 A29.925 29.925 0 1 0 20.075 50.000 Z" fill="#adc4d9" stroke="#45413c"></path><path d="M22.569 50.000 A27.431 27.431 0 1 0 77.431 50.000 A27.431 27.431 0 1 0 22.569 50.000 Z" fill="#525252"></path><path d="M27.556 50.000 A22.444 22.444 0 1 0 72.444 50.000 A22.444 22.444 0 1 0 27.556 50.000 Z" fill="#87898c"></path><path d="M72.444,50a23.583,23.583,0,0,1-.137,2.494,22.446,22.446,0,0,0-44.614,0A23.583,23.583,0,0,1,27.556,50a22.444,22.444,0,0,1,44.888,0Z" fill="#656769"></path><path d="M32.544 50.000 A17.456 17.456 0 1 0 67.456 50.000 A17.456 17.456 0 1 0 32.544 50.000 Z" fill="#656769" stroke="#45413c"></path><path d="M35.037 50.000 A14.963 14.963 0 1 0 64.963 50.000 A14.963 14.963 0 1 0 35.037 50.000 Z" fill="#00b8f0"></path><path d="M35.037 50.000 A14.963 14.963 0 1 0 64.963 50.000 A14.963 14.963 0 1 0 35.037 50.000 Z" fill="#4acfff"></path><path d="M40.025 50.000 A9.975 9.975 0 1 0 59.975 50.000 A9.975 9.975 0 1 0 40.025 50.000 Z" fill="#00b8f0"></path><path d="M57.481,50a7.481,7.481,0,0,1-14.962,0,7.668,7.668,0,0,1,.137-1.422,3.6,3.6,0,0,0,1.11.175,3.744,3.744,0,0,0,3.241-5.611A7.484,7.484,0,0,1,57.481,50Z" fill="#009fd9"></path><path d="M46.259 50.000 A3.741 3.741 0 1 0 53.741 50.000 A3.741 3.741 0 1 0 46.259 50.000 Z" fill="#656769"></path><path d="M47.506 50.000 A2.494 2.494 0 1 0 52.494 50.000 A2.494 2.494 0 1 0 47.506 50.000 Z" fill="#525252"></path><path d="M47.506,45.012a3.735,3.735,0,0,1-3.74,3.741,3.6,3.6,0,0,1-1.11-.175,7.512,7.512,0,0,1,4.351-5.436A3.772,3.772,0,0,1,47.506,45.012Z" fill="#00b8f0"></path><path d="M47.007,43.142a7.512,7.512,0,0,0-4.351,5.436,3.738,3.738,0,1,1,4.351-5.436Z" fill="#80ddff"></path><path d="M22.569 50.000 A27.431 27.431 0 1 0 77.431 50.000 A27.431 27.431 0 1 0 22.569 50.000 Z" fill="none" stroke="#45413c"></path><path d="M27.556 50.000 A22.444 22.444 0 1 0 72.444 50.000 A22.444 22.444 0 1 0 27.556 50.000 Z" fill="none" stroke="#45413c"></path><path d="M35.159,48.084A15.14,15.14,0,0,0,35.038,50a14.962,14.962,0,0,0,29.924,0,15.18,15.18,0,0,0-.115-1.87,14.959,14.959,0,0,1-29.69-.046" fill="#009fd9"></path><path d="M35.037 50.000 A14.963 14.963 0 1 0 64.963 50.000 A14.963 14.963 0 1 0 35.037 50.000 Z" fill="none" stroke="#45413c"></path></g></svg>