<svg width="160" height="160" viewBox="0 0 160 160" fill="none" xmlns="http://www.w3.org/2000/svg">
<path d="M144.001 83.3504C144.002 73.7987 141.865 64.3678 137.747 55.7494C133.629 47.131 127.634 39.5436 120.202 33.5438C112.77 27.544 104.089 23.2838 94.7957 21.0758C85.5027 18.8677 75.8332 18.7678 66.4966 20.7833C57.1599 22.7987 48.3927 26.8785 40.8381 32.7235C33.2834 38.5684 27.1328 46.0302 22.8374 54.5616C18.542 63.093 16.2107 72.4777 16.0145 82.0275C15.8183 91.5772 17.7621 101.05 21.7034 109.75H138.299C142.063 101.459 144.008 92.4567 144.001 83.3504V83.3504Z" fill="#C7F0FF"/>
<path d="M21.7026 109.75C26.779 120.957 34.9776 130.462 45.3168 137.129C55.6561 143.796 67.6978 147.342 80.0002 147.342C92.3027 147.342 104.344 143.796 114.684 137.129C125.023 130.462 133.222 120.957 138.298 109.75H21.7026Z" fill="#F2DFC2"/>
<path d="M17.6006 109.75H142.401" stroke="#45413C" stroke-width="1.5" stroke-linecap="round" stroke-linejoin="round"/>
<path d="M10.4004 109.75H14.4004" stroke="#45413C" stroke-width="1.5" stroke-linecap="round" stroke-linejoin="round"/>
<path d="M145.601 109.75H149.601" stroke="#45413C" stroke-width="1.5" stroke-linecap="round" stroke-linejoin="round"/>
<path d="M121.867 34.4833C121.877 28.7115 119.597 23.1715 115.528 19.0784C111.459 14.9853 105.932 12.6734 100.16 12.6497H98.9939C93.2227 12.6742 87.6969 14.9866 83.6282 19.0795C79.5595 23.1725 77.2801 28.7121 77.2899 34.4833C77.2832 43.1558 76.4225 51.8066 74.7203 60.3105C74.517 61.2825 74.5327 62.2877 74.7661 63.253C74.9995 64.2182 75.4449 65.1194 76.0699 65.8912C76.6949 66.663 77.4839 67.2859 78.3796 67.7149C79.2753 68.1439 80.2552 68.3681 81.2483 68.3713H117.92C118.914 68.3683 119.894 68.1443 120.79 67.7154C121.685 67.2865 122.475 66.6636 123.1 65.8918C123.725 65.12 124.17 64.2187 124.404 63.2533C124.638 62.2879 124.653 61.2827 124.45 60.3105C122.743 51.8072 121.878 43.1563 121.867 34.4833V34.4833Z" fill="#724F3D"/>
<path d="M98.9574 18.3617H100.201C104.907 18.3731 109.498 19.8172 113.363 22.5018C117.229 25.1865 120.185 28.9845 121.839 33.3905C121.571 27.8143 119.172 22.5539 115.138 18.6946C111.104 14.8353 105.743 12.6715 100.161 12.6497H98.9942C93.412 12.6723 88.0514 14.8364 84.018 18.6956C79.9847 22.5548 77.5862 27.8147 77.3174 33.3905C78.9716 28.9843 81.9282 25.1863 85.7939 22.5017C89.6595 19.817 94.251 18.373 98.9574 18.3617V18.3617Z" fill="#A86C4D"/>
<path d="M121.867 34.4833C121.877 28.7115 119.597 23.1715 115.528 19.0784C111.459 14.9853 105.932 12.6734 100.16 12.6497H98.9939C93.2227 12.6742 87.6969 14.9866 83.6282 19.0795C79.5595 23.1725 77.2801 28.7121 77.2899 34.4833C77.2832 43.1558 76.4225 51.8066 74.7203 60.3105C74.517 61.2825 74.5327 62.2877 74.7661 63.253C74.9995 64.2182 75.4449 65.1194 76.0699 65.8912C76.6949 66.663 77.4839 67.2859 78.3796 67.7149C79.2753 68.1439 80.2552 68.3681 81.2483 68.3713H117.92C118.914 68.3683 119.894 68.1443 120.79 67.7154C121.685 67.2865 122.475 66.6636 123.1 65.8918C123.725 65.12 124.17 64.2187 124.404 63.2533C124.638 62.2879 124.653 61.2827 124.45 60.3105C122.743 51.8072 121.878 43.1563 121.867 34.4833V34.4833Z" stroke="#45413C" stroke-width="1.5" stroke-linecap="round" stroke-linejoin="round"/>
<path d="M117.17 99.8591H126.431V110.046H117.17V99.8591Z" fill="#D18660" stroke="#45413C" stroke-width="1.5" stroke-linecap="round" stroke-linejoin="round"/>
<path d="M72.7168 99.8591H81.9776V110.046H72.7168V99.8591Z" fill="#D18660" stroke="#45413C" stroke-width="1.5" stroke-linecap="round" stroke-linejoin="round"/>
<path d="M128.284 96.1599H128.244C127.82 80.6639 115.5 67.4511 99.5753 67.4495C83.6505 67.4479 71.3305 80.6591 70.9065 96.1599H70.8665C70.1298 96.1599 69.4233 96.4525 68.9024 96.9734C68.3815 97.4943 68.0889 98.2008 68.0889 98.9375C68.0889 99.6741 68.3815 100.381 68.9024 100.902C69.4233 101.422 70.1298 101.715 70.8665 101.715H81.9785V110.051H117.17V101.715H128.284C129.021 101.715 129.727 101.422 130.248 100.902C130.769 100.381 131.062 99.6741 131.062 98.9375C131.062 98.2008 130.769 97.4943 130.248 96.9734C129.727 96.4525 129.021 96.1599 128.284 96.1599V96.1599Z" fill="#BF8DF2"/>
<path d="M99.5747 91.5203C98.8393 91.519 98.1343 91.2263 97.6143 90.7063C97.0943 90.1863 96.8016 89.4813 96.8003 88.7459V75.7859H102.352V88.7459C102.351 89.4819 102.058 90.1873 101.537 90.7074C101.016 91.2275 100.311 91.5199 99.5747 91.5203V91.5203Z" fill="white" stroke="#45413C" stroke-width="1.5" stroke-linecap="round" stroke-linejoin="round"/>
<path d="M70.8665 101.71H71.0409C72.3545 87.0318 84.2857 74.8542 99.5705 74.8542C114.855 74.8542 126.791 87.0398 128.105 101.71H128.284C129.021 101.71 129.727 101.418 130.248 100.897C130.769 100.376 131.062 99.6692 131.062 98.9326C131.062 98.1959 130.769 97.4894 130.248 96.9685C129.727 96.4476 129.021 96.155 128.284 96.155H128.244C127.82 80.659 115.5 67.4462 99.5753 67.4446C83.6505 67.443 71.3305 80.659 70.9065 96.1598H70.8665C70.1298 96.1598 69.4233 96.4524 68.9024 96.9733C68.3815 97.4942 68.0889 98.2007 68.0889 98.9374C68.0889 99.674 68.3815 100.381 68.9024 100.901C69.4233 101.422 70.1298 101.715 70.8665 101.715V101.71Z" fill="#DABFF5"/>
<path d="M128.284 96.1599H128.244C127.82 80.6639 115.5 67.4511 99.5753 67.4495C83.6505 67.4479 71.3305 80.6591 70.9065 96.1599H70.8665C70.1298 96.1599 69.4233 96.4525 68.9024 96.9734C68.3815 97.4943 68.0889 98.2008 68.0889 98.9375C68.0889 99.6741 68.3815 100.381 68.9024 100.902C69.4233 101.422 70.1298 101.715 70.8665 101.715H81.9785V110.051H117.17V101.715H128.284C129.021 101.715 129.727 101.422 130.248 100.902C130.769 100.381 131.062 99.6741 131.062 98.9375C131.062 98.2008 130.769 97.4943 130.248 96.9734C129.727 96.4525 129.021 96.1599 128.284 96.1599V96.1599Z" stroke="#45413C" stroke-width="1.5" stroke-linecap="round" stroke-linejoin="round"/>
<path d="M106.058 68.2272V61.8896H93.0979V68.2272C92.3086 68.416 91.5331 68.6368 90.7715 68.8896L99.5811 77.6992L108.389 68.8896C107.625 68.6368 106.848 68.416 106.058 68.2272Z" fill="#D18660"/>
<path d="M82.2621 73.4831L86.4765 77.6991C88.2135 79.4357 90.5691 80.4112 93.0253 80.4112C95.4815 80.4112 97.8372 79.4357 99.5741 77.6991L90.7549 68.8783L90.7421 68.8687C87.6637 69.8982 84.787 71.4535 82.2397 73.4655L82.2621 73.4831Z" fill="white" stroke="#45413C" stroke-width="1.5" stroke-linecap="round" stroke-linejoin="round"/>
<path d="M116.887 73.4832L112.671 77.6976C111.811 78.5578 110.791 79.2402 109.667 79.7058C108.544 80.1713 107.339 80.411 106.123 80.411C104.907 80.411 103.703 80.1713 102.579 79.7058C101.456 79.2402 100.435 78.5578 99.5752 77.6976L108.394 68.8784L108.407 68.8672C111.487 69.8976 114.364 71.4534 116.913 73.4656L116.887 73.4832Z" fill="white" stroke="#45413C" stroke-width="1.5" stroke-linecap="round" stroke-linejoin="round"/>
<path d="M93.0908 68.3456C97.3178 69.6137 101.824 69.6137 106.051 68.3456V61.8896H93.0908V68.3456Z" fill="#BD704A"/>
<path d="M106.058 68.2272V61.8896H93.0979V68.2272C92.3086 68.416 91.5331 68.6368 90.7715 68.8896L99.5811 77.6992L108.389 68.8896C107.625 68.6368 106.848 68.416 106.058 68.2272Z" stroke="#45413C" stroke-width="1.5"/>
<path d="M81.9775 93.3762V101.711" stroke="#45413C" stroke-width="1.5" stroke-linecap="round" stroke-linejoin="round"/>
<path d="M117.17 93.3762V101.711" stroke="#45413C" stroke-width="1.5" stroke-linecap="round" stroke-linejoin="round"/>
<path d="M29.1909 115.603H78.2741V122.086H29.1909V115.603Z" fill="#00DBA8"/>
<path d="M32.8955 104.49H74.5707V110.973H32.8955V104.49Z" fill="#DEBB7E"/>
<path d="M34.7476 90.5981H74.57V99.8589H34.7476V90.5981Z" fill="#FF6242"/>
<path d="M34.7476 76.7073H74.57V85.9681H34.7476V76.7073Z" fill="#00B8F0"/>
<path opacity="0.15" d="M27.3374 123.938C27.3374 124.303 28.0081 124.664 29.3113 125.001C30.6145 125.338 32.5245 125.644 34.9325 125.902C37.3404 126.16 40.199 126.365 43.3452 126.504C46.4913 126.644 49.8633 126.716 53.2686 126.716C56.6739 126.716 60.0459 126.644 63.192 126.504C66.3382 126.365 69.1968 126.16 71.6047 125.902C74.0127 125.644 75.9227 125.338 77.2259 125.001C78.5291 124.664 79.1998 124.303 79.1998 123.938C79.1998 123.573 78.5291 123.212 77.2259 122.875C75.9227 122.538 74.0127 122.232 71.6047 121.974C69.1968 121.716 66.3382 121.511 63.192 121.372C60.0459 121.232 56.6739 121.16 53.2686 121.16C49.8633 121.16 46.4913 121.232 43.3452 121.372C40.199 121.511 37.3404 121.716 34.9325 121.974C32.5245 122.232 30.6145 122.538 29.3113 122.875C28.0081 123.212 27.3374 123.573 27.3374 123.938V123.938Z" fill="#45413C"/>
<path d="M76.4232 119.307H31.0408C30.5494 119.307 30.0781 119.112 29.7307 118.764C29.3832 118.417 29.188 117.946 29.188 117.454V120.234C29.1897 120.724 29.3856 121.193 29.7329 121.54C30.0802 121.886 30.5505 122.08 31.0408 122.08H76.4232C76.9142 122.08 77.385 121.885 77.7322 121.538C78.0794 121.191 78.2744 120.72 78.2744 120.229V117.454C78.2746 117.698 78.2269 117.938 78.1339 118.163C78.041 118.388 77.9047 118.592 77.7328 118.764C77.5608 118.936 77.3567 119.073 77.132 119.166C76.9073 119.259 76.6664 119.307 76.4232 119.307Z" fill="#00AD85"/>
<path d="M29.1909 115.603H78.2741V122.086H29.1909V115.603Z" stroke="#45413C" stroke-width="1.5" stroke-linecap="round" stroke-linejoin="round"/>
<path d="M72.7179 104.49H34.7483C34.2569 104.49 33.7856 104.685 33.4382 105.032C33.0907 105.38 32.8955 105.851 32.8955 106.343V109.12C32.8959 108.629 33.0913 108.158 33.4386 107.81C33.786 107.463 34.257 107.268 34.7483 107.267H72.7179C72.9612 107.267 73.2022 107.315 73.4269 107.408C73.6517 107.501 73.856 107.638 74.028 107.81C74.2001 107.982 74.3366 108.186 74.4297 108.411C74.5228 108.636 74.5707 108.877 74.5707 109.12V106.343C74.5709 106.099 74.5231 105.858 74.4301 105.633C74.3371 105.408 74.2006 105.204 74.0285 105.032C73.8564 104.86 73.6521 104.723 73.4272 104.63C73.2023 104.537 72.9613 104.49 72.7179 104.49Z" fill="#F0D5A8"/>
<path d="M32.8955 104.49H74.5707V110.973H32.8955V104.49Z" stroke="#45413C" stroke-width="1.5" stroke-linecap="round" stroke-linejoin="round"/>
<path d="M72.7172 90.5981H36.6004C36.3571 90.5979 36.1162 90.6457 35.8914 90.7386C35.6667 90.8315 35.4624 90.9679 35.2903 91.1398C35.1183 91.3117 34.9818 91.5159 34.8886 91.7406C34.7955 91.9653 34.7476 92.2061 34.7476 92.4493V96.1597C34.7473 95.9164 34.7951 95.6753 34.8882 95.4505C34.9812 95.2256 35.1177 95.0212 35.2898 94.8491C35.4619 94.6771 35.6662 94.5406 35.8911 94.4476C36.116 94.3545 36.357 94.3067 36.6004 94.3069H72.7172C72.9605 94.3067 73.2016 94.3545 73.4264 94.4476C73.6513 94.5406 73.8557 94.6771 74.0278 94.8491C74.1998 95.0212 74.3363 95.2256 74.4293 95.4505C74.5224 95.6753 74.5702 95.9164 74.57 96.1597V92.4493C74.57 92.2061 74.522 91.9653 74.4289 91.7406C74.3358 91.5159 74.1993 91.3117 74.0272 91.1398C73.8551 90.9679 73.6509 90.8315 73.4261 90.7386C73.2013 90.6457 72.9604 90.5979 72.7172 90.5981V90.5981Z" fill="#FF866E"/>
<path d="M34.7476 90.5981H74.57V99.8589H34.7476V90.5981Z" stroke="#45413C" stroke-width="1.5" stroke-linecap="round" stroke-linejoin="round"/>
<path d="M72.7172 76.7073H36.6004C36.357 76.7071 36.116 76.7548 35.8911 76.8479C35.6662 76.9409 35.4619 77.0774 35.2898 77.2495C35.1177 77.4216 34.9812 77.6259 34.8882 77.8508C34.7951 78.0757 34.7473 78.3167 34.7476 78.5601V82.2641C34.7476 82.0208 34.7955 81.78 34.8886 81.5553C34.9818 81.3306 35.1183 81.1264 35.2903 80.9545C35.4624 80.7826 35.6667 80.6463 35.8914 80.5533C36.1162 80.4604 36.3571 80.4127 36.6004 80.4129H72.7172C72.9604 80.4127 73.2013 80.4604 73.4261 80.5533C73.6509 80.6463 73.8551 80.7826 74.0272 80.9545C74.1993 81.1264 74.3358 81.3306 74.4289 81.5553C74.522 81.78 74.57 82.0208 74.57 82.2641V78.5601C74.5702 78.3167 74.5224 78.0757 74.4293 77.8508C74.3363 77.6259 74.1998 77.4216 74.0278 77.2495C73.8557 77.0774 73.6513 76.9409 73.4264 76.8479C73.2016 76.7548 72.9605 76.7071 72.7172 76.7073V76.7073Z" fill="#4ACFFF"/>
<path d="M34.7476 76.7073H74.57V85.9681H34.7476V76.7073Z" stroke="#45413C" stroke-width="1.5" stroke-linecap="round" stroke-linejoin="round"/>
<path d="M32.8955 110.973H74.5707V115.604H32.8955V110.973Z" fill="#915E3A" stroke="#45413C" stroke-width="1.5" stroke-linecap="round" stroke-linejoin="round"/>
<path d="M32.8955 99.8591H72.7179V104.49H32.8955V99.8591Z" fill="#FF8A14" stroke="#45413C" stroke-width="1.5" stroke-linecap="round" stroke-linejoin="round"/>
<path d="M32.8955 85.9683H70.8651V90.5987H32.8955V85.9683Z" fill="#00DFEB" stroke="#45413C" stroke-width="1.5" stroke-linecap="round" stroke-linejoin="round"/>
<path d="M30.1172 72.0752H68.0868V76.7056H30.1172V72.0752Z" fill="#FF6242" stroke="#45413C" stroke-width="1.5" stroke-linecap="round" stroke-linejoin="round"/>
<path d="M36.6001 115.603V122.085" stroke="#45413C" stroke-width="1.5" stroke-linecap="round" stroke-linejoin="round"/>
<path d="M41.2305 90.5981V99.8589" stroke="#45413C" stroke-width="1.5" stroke-linecap="round" stroke-linejoin="round"/>
<path d="M40.3042 76.7073H44.0082V85.9681H40.3042V76.7073Z" fill="#E0E0E0" stroke="#45413C" stroke-width="1.5" stroke-linecap="round" stroke-linejoin="round"/>
<path d="M49.5654 76.7073H53.2694V85.9681H49.5654V76.7073Z" fill="#E0E0E0" stroke="#45413C" stroke-width="1.5" stroke-linecap="round" stroke-linejoin="round"/>
<path d="M121.809 46.1453C121.809 45.1628 121.418 44.2205 120.724 43.5256C120.029 42.8307 119.087 42.4401 118.105 42.4397V37.8093C118.104 37.124 118.066 36.4392 117.991 35.7581C113.081 34.5677 108.071 29.9037 108.071 24.8445C105.752 28.162 102.667 30.8706 99.0765 32.7397C95.4863 34.6089 91.4979 35.5834 87.4503 35.5805C85.3807 35.5276 83.3217 35.266 81.3047 34.7997C81.1405 35.7945 81.0581 36.801 81.0583 37.8093V42.4397C80.089 42.4598 79.1663 42.859 78.4879 43.5516C77.8096 44.2442 77.4297 45.175 77.4297 46.1445C77.4297 47.1139 77.8096 48.0448 78.4879 48.7374C79.1663 49.43 80.089 49.8291 81.0583 49.8493C81.1367 49.8493 81.2087 49.8317 81.2855 49.8269C81.9395 54.2114 84.1463 58.2152 87.5042 61.1094C90.8621 64.0036 95.1477 65.5956 99.5807 65.5956C104.014 65.5956 108.299 64.0036 111.657 61.1094C115.015 58.2152 117.222 54.2114 117.876 49.8269C117.953 49.8269 118.025 49.8493 118.103 49.8493C119.086 49.8493 120.028 49.4591 120.723 48.7645C121.418 48.0699 121.808 47.1278 121.809 46.1453V46.1453Z" fill="#D18660" stroke="#45413C" stroke-width="1.5" stroke-linecap="round" stroke-linejoin="round"/>
<path d="M86.6162 49.4002C86.6162 50.0142 86.8601 50.6031 87.2943 51.0373C87.7285 51.4714 88.3174 51.7154 88.9314 51.7154C89.5454 51.7154 90.1343 51.4714 90.5685 51.0373C91.0027 50.6031 91.2466 50.0142 91.2466 49.4002C91.2466 48.7861 91.0027 48.1973 90.5685 47.7631C90.1343 47.3289 89.5454 47.085 88.9314 47.085C88.3174 47.085 87.7285 47.3289 87.2943 47.7631C86.8601 48.1973 86.6162 48.7861 86.6162 49.4002V49.4002Z" fill="#BD704A"/>
<path d="M107.917 49.4002C107.917 50.0142 108.161 50.6031 108.595 51.0373C109.029 51.4714 109.618 51.7154 110.232 51.7154C110.846 51.7154 111.435 51.4714 111.869 51.0373C112.303 50.6031 112.547 50.0142 112.547 49.4002C112.547 48.7861 112.303 48.1973 111.869 47.7631C111.435 47.3289 110.846 47.085 110.232 47.085C109.618 47.085 109.029 47.3289 108.595 47.7631C108.161 48.1973 107.917 48.7861 107.917 49.4002V49.4002Z" fill="#BD704A"/>
<path d="M94.0103 54.104C95.5126 55.5346 97.5077 56.3326 99.5822 56.3326C101.657 56.3326 103.652 55.5346 105.154 54.104" stroke="#45413C" stroke-width="1.5" stroke-linecap="round" stroke-linejoin="round"/>
<path d="M99.583 38.7361H118.105L116.717 42.4337C116.086 44.0251 115.006 45.3986 113.608 46.387C112.21 47.3753 110.555 47.9358 108.844 48.0001C107.146 47.9592 105.505 47.378 104.161 46.3409C102.902 45.3583 101.917 44.0684 101.3 42.5953L99.583 38.7361Z" fill="#FAB796" stroke="#45413C" stroke-width="1.5" stroke-linecap="round" stroke-linejoin="round"/>
<path d="M99.5828 38.7361H81.0596L82.4468 42.4337C83.0783 44.0249 84.1588 45.3982 85.5567 46.3865C86.9546 47.3747 88.6096 47.9353 90.3204 48.0001C92.0188 47.9604 93.6605 47.3804 95.0068 46.3441C96.2652 45.3614 97.2498 44.0715 97.866 42.5985L99.5828 38.7361Z" fill="#FAB796" stroke="#45413C" stroke-width="1.5" stroke-linecap="round" stroke-linejoin="round"/>
<path d="M94.0478 43.3807C93.8187 42.8307 93.4319 42.3609 92.9362 42.0303C92.4404 41.6998 91.858 41.5234 91.2622 41.5234C90.6664 41.5234 90.0839 41.6998 89.5882 42.0303C89.0924 42.3609 88.7057 42.8307 88.4766 43.3807" stroke="#45413C" stroke-width="1.5" stroke-linecap="round" stroke-linejoin="round"/>
<path d="M110.703 43.3807C110.474 42.8307 110.087 42.3609 109.591 42.0303C109.096 41.6998 108.513 41.5234 107.917 41.5234C107.322 41.5234 106.739 41.6998 106.243 42.0303C105.748 42.3609 105.361 42.8307 105.132 43.3807" stroke="#45413C" stroke-width="1.5" stroke-linecap="round" stroke-linejoin="round"/>
</svg>
