<svg width="160" height="160" fill="none" xmlns="http://www.w3.org/2000/svg">
  <path d="M16 80c0 16.9739 6.7428 33.253 18.7452 45.255C46.7475 137.257 63.0261 144 80 144c16.9739 0 33.253-6.743 45.255-18.745C137.257 113.253 144 96.9739 144 80c0-16.9739-6.743-33.2525-18.745-45.2548C113.253 22.7428 96.9739 16 80 16c-16.9739 0-33.2525 6.7428-45.2548 18.7452C22.7428 46.7475 16 63.0261 16 80z" fill="#CDF2FF"/>
  <path d="M58.5113 75.9709L13 75.2041M108.511 75.9709L63 75.2041M146.673 75.9709l-45.511-.7668M58.5113 84.9709L13 84.2041M108.511 84.9709L63 84.2041M146.673 84.9709l-45.511-.7668" stroke="#45413C" stroke-width="1.6" stroke-linecap="round" stroke-linejoin="round"/>
  <path d="M1 80a16 16 0 1032 0 16 16 0 00-32 0z" fill="#FF866E" stroke="#45413C" stroke-width="1.6" stroke-linecap="round" stroke-linejoin="round"/>
  <path d="M43 80a15.9999 15.9999 0 0027.3137 11.3137A15.9999 15.9999 0 0059 64a15.9999 15.9999 0 00-16 16z" fill="#FFAA54" stroke="#45413C" stroke-width="1.6" stroke-linecap="round" stroke-linejoin="round"/>
  <path d="M85 80a15.9999 15.9999 0 0016 16c4.243 0 8.313-1.6857 11.314-4.6863C115.314 88.3131 117 84.2435 117 80c0-4.2435-1.686-8.3131-4.686-11.3137A16.0021 16.0021 0 00101 64a15.9999 15.9999 0 00-16 16z" fill="#FF866E" stroke="#45413C" stroke-width="1.6" stroke-linecap="round" stroke-linejoin="round"/>
  <path d="M127 80c0 4.2435 1.686 8.3131 4.686 11.3137A16.0021 16.0021 0 00143 96c4.243 0 8.313-1.6857 11.314-4.6863C157.314 88.3131 159 84.2435 159 80c0-4.2435-1.686-8.3131-4.686-11.3137A16.0021 16.0021 0 00143 64c-4.243 0-8.313 1.6857-11.314 4.6863A16.0021 16.0021 0 00127 80z" fill="#FFAA54" stroke="#45413C" stroke-width="1.6" stroke-linecap="round" stroke-linejoin="round"/>
</svg>
