<svg xmlns="http://www.w3.org/2000/svg" version="1.1" xmlns:xlink="http://www.w3.org/1999/xlink" xmlns:svgjs="http://svgjs.com/svgjs" viewBox="0 0 160 160" width="160" height="160"><g transform="matrix(1.6,0,0,1.6,0,0)"><path d="M10.000 50.000 A40.000 40.000 0 1 0 90.000 50.000 A40.000 40.000 0 1 0 10.000 50.000 Z" fill="#e8f4fa" stroke="#daedf7" stroke-miterlimit="10"></path><path d="M26.351 29.931 L63.836 29.931 L63.836 65.211 L26.351 65.211 Z" fill="#ffffff"></path><path d="M59.048,57.587,56.763,56.27a1.127,1.127,0,0,0-1.543.412l-1.7,2.935a1.129,1.129,0,0,0,.413,1.543l1.582.914a1.1,1.1,0,0,1,.532,1.157,10.771,10.771,0,0,0-.183,1.98h5.762a2.205,2.205,0,0,0,2.2-2.2V54.84A10.708,10.708,0,0,0,59.048,57.587Z" fill="#daedf7"></path><path d="M26.351 29.931 L63.836 29.931 L63.836 65.211 L26.351 65.211 Z" fill="none" stroke="#45413c" stroke-linecap="round" stroke-linejoin="round"></path><path d="M35.722,33.79a1.654,1.654,0,0,1-3.308,0V25.521a1.654,1.654,0,0,1,3.308,0Z" fill="#adc4d9"></path><path d="M34.068,23.868a1.654,1.654,0,0,0-1.654,1.653v2.757a1.654,1.654,0,0,1,3.308,0V25.521A1.653,1.653,0,0,0,34.068,23.868Z" fill="#c0dceb"></path><path d="M35.722,33.79a1.654,1.654,0,0,1-3.308,0V25.521a1.654,1.654,0,0,1,3.308,0Z" fill="none" stroke="#45413c" stroke-linecap="round" stroke-linejoin="round"></path><path d="M46.747,33.79a1.654,1.654,0,1,1-3.308,0V25.521a1.654,1.654,0,0,1,3.308,0Z" fill="#adc4d9"></path><path d="M45.093,23.868a1.654,1.654,0,0,0-1.654,1.653v2.757a1.654,1.654,0,1,1,3.308,0V25.521A1.653,1.653,0,0,0,45.093,23.868Z" fill="#c0dceb"></path><path d="M46.747,33.79a1.654,1.654,0,1,1-3.308,0V25.521a1.654,1.654,0,0,1,3.308,0Z" fill="none" stroke="#45413c" stroke-linecap="round" stroke-linejoin="round"></path><path d="M57.772,33.79a1.654,1.654,0,1,1-3.308,0V25.521a1.654,1.654,0,0,1,3.308,0Z" fill="#adc4d9"></path><path d="M56.118,23.868a1.654,1.654,0,0,0-1.654,1.653v2.757a1.654,1.654,0,1,1,3.308,0V25.521A1.653,1.653,0,0,0,56.118,23.868Z" fill="#c0dceb"></path><path d="M57.772,33.79a1.654,1.654,0,1,1-3.308,0V25.521a1.654,1.654,0,0,1,3.308,0Z" fill="none" stroke="#45413c" stroke-linecap="round" stroke-linejoin="round"></path><path d="M27.100 74.071 A18.191 2.205 0 1 0 63.482 74.071 A18.191 2.205 0 1 0 27.100 74.071 Z" fill="#45413c" opacity=".15"></path><path d="M82.022,68.271l-2.283-1.32a10.808,10.808,0,0,0,0-5.464l2.283-1.319a1.129,1.129,0,0,0,.413-1.543l-1.7-2.935a1.127,1.127,0,0,0-1.543-.412L76.912,56.6a10.713,10.713,0,0,0-4.73-2.732V51.226a1.129,1.129,0,0,0-1.13-1.13h-3.39a1.129,1.129,0,0,0-1.13,1.13v2.637A10.717,10.717,0,0,0,61.8,56.6l-2.284-1.317a1.129,1.129,0,0,0-1.544.412l-1.7,2.935a1.13,1.13,0,0,0,.414,1.543l2.283,1.319a10.778,10.778,0,0,0,0,5.464l-2.283,1.32a1.129,1.129,0,0,0-.414,1.542l1.7,2.935a1.129,1.129,0,0,0,1.544.413L61.8,71.844a10.726,10.726,0,0,0,4.731,2.732v2.637a1.129,1.129,0,0,0,1.13,1.129h3.39a1.129,1.129,0,0,0,1.13-1.129V74.576a10.723,10.723,0,0,0,4.73-2.732L79.2,73.161a1.128,1.128,0,0,0,1.543-.413l1.7-2.935A1.128,1.128,0,0,0,82.022,68.271ZM69.357,69.812a5.593,5.593,0,1,1,5.592-5.593A5.593,5.593,0,0,1,69.357,69.812Z" fill="#bdbec0"></path><path d="M76.912,56.6a10.713,10.713,0,0,0-4.73-2.732V51.226a1.129,1.129,0,0,0-1.13-1.13h-3.39a1.129,1.129,0,0,0-1.13,1.13v2.637A10.717,10.717,0,0,0,61.8,56.6l-2.284-1.317a1.129,1.129,0,0,0-1.544.412l-1.7,2.935a1.13,1.13,0,0,0,.414,1.543l2.283,1.319a10.778,10.778,0,0,0,0,5.464l-2.283,1.32a1.129,1.129,0,0,0-.414,1.542l1.7,2.935a1.129,1.129,0,0,0,1.544.413l2.126-1.226,3.76-3.76a5.593,5.593,0,1,1,7.909-7.909L77.079,56.5Z" fill="#e0e0e0"></path><path d="M82.022,68.271l-2.283-1.32a10.808,10.808,0,0,0,0-5.464l2.283-1.319a1.129,1.129,0,0,0,.413-1.543l-1.7-2.935a1.127,1.127,0,0,0-1.543-.412L76.912,56.6a10.713,10.713,0,0,0-4.73-2.732V51.226a1.129,1.129,0,0,0-1.13-1.13h-3.39a1.129,1.129,0,0,0-1.13,1.13v2.637A10.717,10.717,0,0,0,61.8,56.6l-2.284-1.317a1.129,1.129,0,0,0-1.544.412l-1.7,2.935a1.13,1.13,0,0,0,.414,1.543l2.283,1.319a10.778,10.778,0,0,0,0,5.464l-2.283,1.32a1.129,1.129,0,0,0-.414,1.542l1.7,2.935a1.129,1.129,0,0,0,1.544.413L61.8,71.844a10.726,10.726,0,0,0,4.731,2.732v2.637a1.129,1.129,0,0,0,1.13,1.129h3.39a1.129,1.129,0,0,0,1.13-1.129V74.576a10.723,10.723,0,0,0,4.73-2.732L79.2,73.161a1.128,1.128,0,0,0,1.543-.413l1.7-2.935A1.128,1.128,0,0,0,82.022,68.271ZM69.357,69.812a5.593,5.593,0,1,1,5.592-5.593A5.593,5.593,0,0,1,69.357,69.812Z" fill="none" stroke="#45413c" stroke-linejoin="round"></path></g></svg>