<svg width="128" height="128" viewBox="0 0 128 128" fill="none" xmlns="http://www.w3.org/2000/svg">
<g clip-path="url(#clip0)">
<path d="M128 64.4559C128.001 55.4343 125.983 46.5268 122.093 38.3866C118.204 30.2465 112.541 23.0803 105.522 17.4134C98.5019 11.7465 90.3027 7.72282 81.5254 5.6373C72.7481 3.55179 63.6153 3.45738 54.7968 5.36101C45.9783 7.26464 37.6976 11.118 30.5622 16.6386C23.4268 22.1591 17.6176 29.2068 13.5606 37.2648C9.50355 45.3227 7.30162 54.1866 7.11628 63.2064C6.93093 72.2261 8.76687 81.173 12.4895 89.3908H122.614C126.17 81.5595 128.007 73.0569 128 64.4559V64.4559Z" fill="#C7F0FF"/>
<path d="M12.489 89.3909C17.2836 99.9752 25.0272 108.953 34.7927 115.25C44.5582 121.548 55.9316 124.897 67.5513 124.897C79.171 124.897 90.5445 121.548 100.31 115.25C110.075 108.953 117.819 99.9752 122.614 89.3909H12.489Z" fill="#CCF7AD"/>
<path d="M13.5371 89.3879L124.958 89.3879" stroke="#45413C" stroke-width="1.5" stroke-linecap="round" stroke-linejoin="round"/>
<path d="M1.81421 89.3909H5.59223" stroke="#45413C" stroke-width="1.5" stroke-linecap="round" stroke-linejoin="round"/>
<path d="M49.3513 102.127H111.125C114.854 102.088 118.417 100.58 121.041 97.9291C123.664 95.2785 125.136 91.6998 125.136 87.9704C125.136 84.2411 123.664 80.6624 121.041 78.0118C118.417 75.3612 114.854 73.8527 111.125 73.8142H49.3513V102.127Z" fill="#BF8256"/>
<path d="M51.143 42.1815L53.3524 49.118L46.416 51.3273L48.6269 58.2638L41.6904 60.4747L43.8998 67.4111L36.9634 69.6205L39.1727 76.5569L32.2363 78.7678L34.4472 85.7043L27.5108 87.9137L29.7202 94.8501L22.7837 97.061L11.3514 91.1522L39.7092 36.2727L51.143 42.1815Z" fill="#DAEDF7" stroke="#45413C" stroke-width="1.5" stroke-linecap="round" stroke-linejoin="round"/>
<path d="M3.01693 95.1066C2.13839 94.6484 1.47618 93.8568 1.17597 92.9058C0.875765 91.9548 0.962149 90.9224 1.41612 90.0357C1.8701 89.149 2.65447 88.4806 3.5967 88.1776C4.53892 87.8746 5.56181 87.9618 6.44035 88.42L23 97.0581L21.8589 99.2865C21.5592 99.8718 21.1482 100.392 20.6494 100.817C20.1506 101.242 19.5737 101.563 18.9518 101.763C18.3298 101.963 17.6749 102.038 17.0244 101.982C16.374 101.927 15.7407 101.742 15.1609 101.44L3.01693 95.1066Z" fill="#FF6242" stroke="#45413C" stroke-width="1.5" stroke-linecap="round" stroke-linejoin="round"/>
<path d="M37.5366 26.4585C36.6268 25.9884 35.5675 25.8989 34.5917 26.2098C33.616 26.5207 32.8037 27.2065 32.3335 28.1163C31.8634 29.0261 31.7739 30.0854 32.0848 31.0612C32.3957 32.037 33.0815 32.8493 33.9913 33.3194L51.142 42.1811L52.3238 39.8947C52.6341 39.2941 52.8232 38.6382 52.88 37.9645C52.9369 37.2909 52.8605 36.6126 52.6552 35.9685C52.4499 35.3243 52.1197 34.7269 51.6835 34.2104C51.2473 33.6939 50.7136 33.2684 50.1129 32.9582L37.5366 26.4585Z" fill="#FF6242" stroke="#45413C" stroke-width="1.5" stroke-linecap="round" stroke-linejoin="round"/>
<path d="M11.3514 91.1533L39.7107 36.2741L46.5711 39.8193L18.2118 94.6985L11.3514 91.1533Z" fill="#ADC4D9" stroke="#45413C" stroke-width="1.5" stroke-linecap="round" stroke-linejoin="round"/>
<path d="M125.279 87.9712C125.279 84.2168 123.788 80.6161 121.133 77.9612C118.478 75.3063 114.878 73.8146 111.123 73.8142H49.3513V87.9712H125.279Z" fill="#DEA47A"/>
<path d="M49.3513 102.127H111.125C114.854 102.088 118.417 100.58 121.041 97.9291C123.664 95.2785 125.136 91.6998 125.136 87.9704C125.136 84.2411 123.664 80.6624 121.041 78.0118C118.417 75.3612 114.854 73.8527 111.125 73.8142H49.3513V102.127Z" stroke="#45413C" stroke-width="1.5" stroke-linecap="round" stroke-linejoin="round"/>
<path d="M64.0099 73.8134H97.4725C101.202 73.7749 104.765 72.2665 107.388 69.6158C110.012 66.9652 111.483 63.3865 111.483 59.6572C111.483 55.9279 110.012 52.3492 107.388 49.6985C104.765 47.0479 101.202 45.5395 97.4725 45.501H64.0099V73.8134Z" fill="#BF8256"/>
<path d="M111.626 59.6564C111.626 55.9024 110.135 52.3022 107.481 49.6476C104.827 46.9929 101.227 45.5014 97.4725 45.501H64.0099V59.6564H111.626Z" fill="#DEA47A"/>
<path d="M64.0099 73.8134H97.4725C101.202 73.7749 104.765 72.2665 107.388 69.6158C110.012 66.9652 111.483 63.3865 111.483 59.6572C111.483 55.9279 110.012 52.3492 107.388 49.6985C104.765 47.0479 101.202 45.5395 97.4725 45.501H64.0099V73.8134Z" stroke="#45413C" stroke-width="1.5" stroke-linecap="round" stroke-linejoin="round"/>
<path d="M63.5067 87.9712C63.5067 91.7258 64.9982 95.3267 67.6532 97.9817C70.3081 100.637 73.909 102.128 77.6637 102.128C81.4184 102.128 85.0192 100.637 87.6742 97.9817C90.3291 95.3267 91.8207 91.7258 91.8207 87.9712C91.8207 84.2165 90.3291 80.6156 87.6742 77.9607C85.0192 75.3057 81.4184 73.8142 77.6637 73.8142C73.909 73.8142 70.3081 75.3057 67.6532 77.9607C64.9982 80.6156 63.5067 84.2165 63.5067 87.9712Z" fill="#F0D5A8"/>
<path d="M35.1947 87.9712C35.1947 89.8303 35.5609 91.6712 36.2723 93.3888C36.9838 95.1064 38.0266 96.6671 39.3412 97.9817C40.6558 99.2963 42.2164 100.339 43.934 101.051C45.6516 101.762 47.4926 102.128 49.3517 102.128C51.2108 102.128 53.0517 101.762 54.7693 101.051C56.4869 100.339 58.0476 99.2963 59.3622 97.9817C60.6768 96.6671 61.7196 95.1064 62.431 93.3888C63.1425 91.6712 63.5087 89.8303 63.5087 87.9712C63.5087 86.1121 63.1425 84.2712 62.431 82.5535C61.7196 80.8359 60.6768 79.2753 59.3622 77.9607C58.0476 76.6461 56.4869 75.6033 54.7693 74.8918C53.0517 74.1804 51.2108 73.8142 49.3517 73.8142C47.4926 73.8142 45.6516 74.1804 43.934 74.8918C42.2164 75.6033 40.6558 76.6461 39.3412 77.9607C38.0266 79.2753 36.9838 80.8359 36.2723 82.5535C35.5609 84.2712 35.1947 86.1121 35.1947 87.9712V87.9712Z" fill="#F0D5A8"/>
<path d="M49.853 59.658C49.853 61.5171 50.2192 63.358 50.9307 65.0756C51.6421 66.7932 52.6849 68.3539 53.9995 69.6685C55.3141 70.9831 56.8748 72.0258 58.5924 72.7373C60.31 73.4488 62.1509 73.8149 64.01 73.8149C65.8691 73.8149 67.71 73.4488 69.4277 72.7373C71.1453 72.0258 72.7059 70.9831 74.0205 69.6685C75.3351 68.3539 76.3779 66.7932 77.0894 65.0756C77.8008 63.358 78.167 61.5171 78.167 59.658C78.167 57.7988 77.8008 55.9579 77.0894 54.2403C76.3779 52.5227 75.3351 50.9621 74.0205 49.6475C72.7059 48.3329 71.1453 47.2901 69.4277 46.5786C67.71 45.8672 65.8691 45.501 64.01 45.501C62.1509 45.501 60.31 45.8672 58.5924 46.5786C56.8748 47.2901 55.3141 48.3329 53.9995 49.6475C52.6849 50.9621 51.6421 52.5227 50.9307 54.2403C50.2192 55.9579 49.853 57.7988 49.853 59.658V59.658Z" fill="#F0D5A8"/>
<path d="M55.0027 59.656C55.0027 62.0452 55.9518 64.3365 57.6412 66.0258C59.3305 67.7152 61.6218 68.6643 64.011 68.6643C66.4001 68.6643 68.6914 67.7152 70.3808 66.0258C72.0702 64.3365 73.0193 62.0452 73.0193 59.656C73.0193 57.2669 72.0702 54.9756 70.3808 53.2862C68.6914 51.5968 66.4001 50.6477 64.011 50.6477C61.6218 50.6477 59.3305 51.5968 57.6412 53.2862C55.9518 54.9756 55.0027 57.2669 55.0027 59.656Z" fill="#F0D5A8"/>
<path d="M40.3429 87.9697C40.3429 90.3589 41.292 92.6502 42.9814 94.3396C44.6708 96.0289 46.962 96.978 49.3512 96.978C51.7403 96.978 54.0316 96.0289 55.721 94.3396C57.4104 92.6502 58.3595 90.3589 58.3595 87.9697C58.3595 85.5806 57.4104 83.2893 55.721 81.5999C54.0316 79.9105 51.7403 78.9614 49.3512 78.9614C46.962 78.9614 44.6708 79.9105 42.9814 81.5999C41.292 83.2893 40.3429 85.5806 40.3429 87.9697Z" fill="#F0D5A8"/>
<path d="M68.6564 87.9697C68.6564 90.3589 69.6055 92.6502 71.2948 94.3396C72.9842 96.0289 75.2755 96.978 77.6647 96.978C80.0538 96.978 82.3451 96.0289 84.0345 94.3396C85.7239 92.6502 86.673 90.3589 86.673 87.9697C86.673 85.5806 85.7239 83.2893 84.0345 81.5999C82.3451 79.9105 80.0538 78.9614 77.6647 78.9614C75.2755 78.9614 72.9842 79.9105 71.2948 81.5999C69.6055 83.2893 68.6564 85.5806 68.6564 87.9697Z" fill="#F0D5A8"/>
<path d="M85.8735 50.6477H94.8833" stroke="#45413C" stroke-width="1.5" stroke-linecap="round" stroke-linejoin="round"/>
<path d="M99.5271 94.4048H104.676" stroke="#45413C" stroke-width="1.5" stroke-linecap="round" stroke-linejoin="round"/>
<path d="M99.5271 81.5347H109.823" stroke="#45413C" stroke-width="1.5" stroke-linecap="round" stroke-linejoin="round"/>
<path d="M109.822 89.9277H117.545" stroke="#45413C" stroke-width="1.5" stroke-linecap="round" stroke-linejoin="round"/>
<path d="M84.0837 66.0913H91.806" stroke="#45413C" stroke-width="1.5" stroke-linecap="round" stroke-linejoin="round"/>
<path d="M91.0217 58.3708H101.318" stroke="#45413C" stroke-width="1.5" stroke-linecap="round" stroke-linejoin="round"/>
<path d="M49.853 59.658C49.853 55.9033 51.3446 52.3024 53.9995 49.6475C56.6545 46.9925 60.2553 45.501 64.01 45.501C67.7647 45.501 71.3656 46.9925 74.0205 49.6475C76.6755 52.3024 78.167 55.9033 78.167 59.658H49.853Z" fill="#F7E5C6"/>
<path d="M55.0082 59.656C55.0082 57.2669 55.9573 54.9756 57.6466 53.2862C59.336 51.5968 61.6273 50.6477 64.0165 50.6477C66.4056 50.6477 68.6969 51.5968 70.3863 53.2862C72.0757 54.9756 73.0248 57.2669 73.0248 59.656H55.0082Z" fill="#F7E5C6"/>
<path d="M63.5067 87.9712C63.5067 84.2165 64.9982 80.6156 67.6532 77.9607C70.3081 75.3057 73.909 73.8142 77.6637 73.8142C81.4184 73.8142 85.0192 75.3057 87.6742 77.9607C90.3291 80.6156 91.8207 84.2165 91.8207 87.9712H63.5067Z" fill="#F7E5C6"/>
<path d="M68.6564 87.9697C68.6564 85.5806 69.6055 83.2893 71.2948 81.5999C72.9842 79.9105 75.2755 78.9614 77.6647 78.9614C80.0538 78.9614 82.3451 79.9105 84.0345 81.5999C85.7239 83.2893 86.673 85.5806 86.673 87.9697H68.6564Z" fill="#F7E5C6"/>
<path d="M35.1955 87.9712C35.1761 86.0999 35.528 84.2433 36.2308 82.5088C36.9335 80.7744 37.9732 79.1964 39.2896 77.8663C40.6061 76.5362 42.1732 75.4803 43.9003 74.7596C45.6274 74.039 47.4803 73.668 49.3517 73.668C51.2231 73.668 53.076 74.039 54.8031 74.7596C56.5302 75.4803 58.0973 76.5362 59.4138 77.8663C60.7302 79.1964 61.7699 80.7744 62.4726 82.5088C63.1754 84.2433 63.5272 86.0999 63.5079 87.9712H35.1955Z" fill="#F7E5C6"/>
<path d="M40.3496 87.9697C40.3496 85.5806 41.2987 83.2893 42.9881 81.5999C44.6775 79.9105 46.9688 78.9614 49.3579 78.9614C51.7471 78.9614 54.0384 79.9105 55.7277 81.5999C57.4171 83.2893 58.3662 85.5806 58.3662 87.9697H40.3496Z" fill="#F7E5C6"/>
<path d="M63.5067 87.9712C63.5067 91.7258 64.9982 95.3267 67.6532 97.9817C70.3081 100.637 73.909 102.128 77.6637 102.128C81.4184 102.128 85.0192 100.637 87.6742 97.9817C90.3291 95.3267 91.8207 91.7258 91.8207 87.9712C91.8207 84.2165 90.3291 80.6156 87.6742 77.9607C85.0192 75.3057 81.4184 73.8142 77.6637 73.8142C73.909 73.8142 70.3081 75.3057 67.6532 77.9607C64.9982 80.6156 63.5067 84.2165 63.5067 87.9712Z" stroke="#45413C" stroke-width="1.5" stroke-linecap="round" stroke-linejoin="round"/>
<path d="M35.1947 87.9712C35.1947 89.8303 35.5609 91.6712 36.2723 93.3888C36.9838 95.1064 38.0266 96.6671 39.3412 97.9817C40.6558 99.2963 42.2164 100.339 43.934 101.051C45.6516 101.762 47.4926 102.128 49.3517 102.128C51.2108 102.128 53.0517 101.762 54.7693 101.051C56.4869 100.339 58.0476 99.2963 59.3622 97.9817C60.6768 96.6671 61.7196 95.1064 62.431 93.3888C63.1425 91.6712 63.5087 89.8303 63.5087 87.9712C63.5087 86.1121 63.1425 84.2712 62.431 82.5535C61.7196 80.8359 60.6768 79.2753 59.3622 77.9607C58.0476 76.6461 56.4869 75.6033 54.7693 74.8918C53.0517 74.1804 51.2108 73.8142 49.3517 73.8142C47.4926 73.8142 45.6516 74.1804 43.934 74.8918C42.2164 75.6033 40.6558 76.6461 39.3412 77.9607C38.0266 79.2753 36.9838 80.8359 36.2723 82.5535C35.5609 84.2712 35.1947 86.1121 35.1947 87.9712V87.9712Z" stroke="#45413C" stroke-width="1.5" stroke-linecap="round" stroke-linejoin="round"/>
<path d="M49.853 59.658C49.853 61.5171 50.2192 63.358 50.9307 65.0756C51.6421 66.7932 52.6849 68.3539 53.9995 69.6685C55.3141 70.9831 56.8748 72.0258 58.5924 72.7373C60.31 73.4488 62.1509 73.8149 64.01 73.8149C65.8691 73.8149 67.71 73.4488 69.4277 72.7373C71.1453 72.0258 72.7059 70.9831 74.0205 69.6685C75.3351 68.3539 76.3779 66.7932 77.0894 65.0756C77.8008 63.358 78.167 61.5171 78.167 59.658C78.167 57.7988 77.8008 55.9579 77.0894 54.2403C76.3779 52.5227 75.3351 50.9621 74.0205 49.6475C72.7059 48.3329 71.1453 47.2901 69.4277 46.5786C67.71 45.8672 65.8691 45.501 64.01 45.501C62.1509 45.501 60.31 45.8672 58.5924 46.5786C56.8748 47.2901 55.3141 48.3329 53.9995 49.6475C52.6849 50.9621 51.6421 52.5227 50.9307 54.2403C50.2192 55.9579 49.853 57.7988 49.853 59.658V59.658Z" stroke="#45413C" stroke-width="1.5" stroke-linecap="round" stroke-linejoin="round"/>
<path d="M55.0027 59.656C55.0027 62.0452 55.9518 64.3365 57.6412 66.0258C59.3305 67.7152 61.6218 68.6643 64.011 68.6643C66.4001 68.6643 68.6914 67.7152 70.3808 66.0258C72.0702 64.3365 73.0193 62.0452 73.0193 59.656C73.0193 57.2669 72.0702 54.9756 70.3808 53.2862C68.6914 51.5968 66.4001 50.6477 64.011 50.6477C61.6218 50.6477 59.3305 51.5968 57.6412 53.2862C55.9518 54.9756 55.0027 57.2669 55.0027 59.656Z" stroke="#45413C" stroke-width="1.5" stroke-linecap="round" stroke-linejoin="round"/>
<path d="M40.3429 87.9697C40.3429 90.3589 41.292 92.6502 42.9814 94.3396C44.6708 96.0289 46.962 96.978 49.3512 96.978C51.7403 96.978 54.0316 96.0289 55.721 94.3396C57.4104 92.6502 58.3595 90.3589 58.3595 87.9697C58.3595 85.5806 57.4104 83.2893 55.721 81.5999C54.0316 79.9105 51.7403 78.9614 49.3512 78.9614C46.962 78.9614 44.6708 79.9105 42.9814 81.5999C41.292 83.2893 40.3429 85.5806 40.3429 87.9697Z" stroke="#45413C" stroke-width="1.5" stroke-linecap="round" stroke-linejoin="round"/>
<path d="M68.6564 87.9697C68.6564 90.3589 69.6055 92.6502 71.2948 94.3396C72.9842 96.0289 75.2755 96.978 77.6647 96.978C80.0538 96.978 82.3451 96.0289 84.0345 94.3396C85.7239 92.6502 86.673 90.3589 86.673 87.9697C86.673 85.5806 85.7239 83.2893 84.0345 81.5999C82.3451 79.9105 80.0538 78.9614 77.6647 78.9614C75.2755 78.9614 72.9842 79.9105 71.2948 81.5999C69.6055 83.2893 68.6564 85.5806 68.6564 87.9697Z" stroke="#45413C" stroke-width="1.5" stroke-linecap="round" stroke-linejoin="round"/>
</g>
<defs>
<clipPath id="clip0">
<rect width="128" height="128" fill="white"/>
</clipPath>
</defs>
</svg>
