<svg viewBox="0 0 48 48" height="48" width="48" xmlns="http://www.w3.org/2000/svg"><g transform="matrix(0.48,0,0,0.48,0,0)"><path d="M10.000 50.000 A40.000 40.000 0 1 0 90.000 50.000 A40.000 40.000 0 1 0 10.000 50.000 Z" fill="#C7F0FF" stroke="#C7F0FF"></path><path d="M70.258,65.463A9.261,9.261,0,0,1,61,74.724H33.214a3.472,3.472,0,0,1-3.472-3.473V21.473A3.472,3.472,0,0,1,33.214,18H66.786a3.472,3.472,0,0,1,3.472,3.473Z" fill="#ffffff"></path><path d="M61,69.514H33.214a3.472,3.472,0,0,1-3.472-3.473v5.21a3.472,3.472,0,0,0,3.472,3.473H61a9.261,9.261,0,0,0,9.261-9.261v-5.21A9.261,9.261,0,0,1,61,69.514Z" fill="#C7F0FF"></path><path d="M70.258,65.463A9.261,9.261,0,0,1,61,74.724H33.214a3.472,3.472,0,0,1-3.472-3.473V21.473A3.472,3.472,0,0,1,33.214,18H66.786a3.472,3.472,0,0,1,3.472,3.473Z" fill="none" stroke="#45413c" stroke-linecap="round" stroke-linejoin="round"></path><path d="M62.786,49.256H34.214a1,1,0,0,1-1-1V23.63a1,1,0,0,1,1-1H65.786a1,1,0,0,1,1,1V45.256A4,4,0,0,1,62.786,49.256Z" fill="#87898c" stroke="#45413c" stroke-linecap="round" stroke-linejoin="round"></path><path d="M39.003 26.103 L60.998 26.103 L60.998 45.783 L39.003 45.783 Z" fill="#6dd627"></path><path d="M40.368,45.575,59.632,26.311a2.306,2.306,0,0,0-.95-.208H41.318A2.315,2.315,0,0,0,39,28.419V43.468A2.311,2.311,0,0,0,40.368,45.575Z" fill="#9ceb60"></path><path d="M39.003 26.103 L60.998 26.103 L60.998 45.783 L39.003 45.783 Z" fill="none" stroke="#45413c" stroke-linecap="round" stroke-linejoin="round"></path><path d="M34.951 32.470 A1.158 1.158 0 1 0 37.267 32.470 A1.158 1.158 0 1 0 34.951 32.470 Z" fill="#45413c"></path><path d="M43.633,59.675a1.157,1.157,0,0,0-1.158-1.158H40.16V56.2a1.158,1.158,0,1,0-2.315,0v2.315H35.53a1.158,1.158,0,1,0,0,2.315h2.315v2.315a1.158,1.158,0,1,0,2.315,0V60.832h2.315A1.157,1.157,0,0,0,43.633,59.675Z" fill="#656769" stroke="#45413c" stroke-linecap="round" stroke-linejoin="round"></path><path d="M51.736 61.411 A2.894 2.894 0 1 0 57.524 61.411 A2.894 2.894 0 1 0 51.736 61.411 Z" fill="#ff6242"></path><path d="M54.63,60.253a2.9,2.9,0,0,1,2.762,2.026,2.895,2.895,0,1,0-5.523,0A2.9,2.9,0,0,1,54.63,60.253Z" fill="#ff866e"></path><path d="M51.736 61.411 A2.894 2.894 0 1 0 57.524 61.411 A2.894 2.894 0 1 0 51.736 61.411 Z" fill="none" stroke="#45413c" stroke-linecap="round" stroke-linejoin="round"></path><path d="M59.84 68.935L62.734 71.83" fill="none" stroke="#45413c" stroke-linecap="round" stroke-linejoin="round"></path><path d="M62.155 66.62L65.049 69.514" fill="none" stroke="#45413c" stroke-linecap="round" stroke-linejoin="round"></path><path d="M64.47 64.305L67.364 67.199" fill="none" stroke="#45413c" stroke-linecap="round" stroke-linejoin="round"></path><path d="M42.475 67.778L45.948 65.463" fill="none" stroke="#45413c" stroke-linecap="round" stroke-linejoin="round"></path><path d="M47.106 67.778L50.579 65.463" fill="none" stroke="#45413c" stroke-linecap="round" stroke-linejoin="round"></path><path d="M59.840 57.937 A2.894 2.894 0 1 0 65.628 57.937 A2.894 2.894 0 1 0 59.840 57.937 Z" fill="#ff6242"></path><path d="M62.734,56.779A2.894,2.894,0,0,1,65.5,58.805a2.894,2.894,0,1,0-5.523,0A2.9,2.9,0,0,1,62.734,56.779Z" fill="#ff866e"></path><path d="M59.840 57.937 A2.894 2.894 0 1 0 65.628 57.937 A2.894 2.894 0 1 0 59.840 57.937 Z" fill="none" stroke="#45413c" stroke-linecap="round" stroke-linejoin="round"></path><path d="M38.000 81.000 A12 1.5 0 1 0 62.000 81.000 A12 1.5 0 1 0 38.000 81.000 Z" fill="#45413c" opacity=".15"></path></g></svg>