<svg width="112" height="112" viewBox="0 0 112 112" fill="none" xmlns="http://www.w3.org/2000/svg">
<path d="M0 56C0 70.8521 5.89998 85.0959 16.402 95.598C26.9041 106.1 41.1479 112 56 112C70.8521 112 85.0959 106.1 95.598 95.598C106.1 85.0959 112 70.8521 112 56C112 41.1479 106.1 26.9041 95.598 16.402C85.0959 5.89998 70.8521 0 56 0C41.1479 0 26.9041 5.89998 16.402 16.402C5.89998 26.9041 0 41.1479 0 56Z" fill="#C7F0FF"/>
<path opacity="0.15" d="M20.6626 93.3744C20.6626 94.0149 24.5237 94.6292 31.3965 95.0821C38.2693 95.535 47.5908 95.7894 57.3104 95.7894C67.03 95.7894 76.3515 95.535 83.2243 95.0821C90.0971 94.6292 93.9582 94.0149 93.9582 93.3744C93.9582 92.7339 90.0971 92.1196 83.2243 91.6667C76.3515 91.2138 67.03 90.9594 57.3104 90.9594C47.5908 90.9594 38.2693 91.2138 31.3965 91.6667C24.5237 92.1196 20.6626 92.7339 20.6626 93.3744Z" fill="#45413C"/>
<path d="M21.9014 37.3226H92.691V75.7512H21.9014V37.3226Z" fill="#656769"/>
<path d="M21.9014 37.3226H92.691V44.7384H21.9014V37.3226Z" fill="#525252"/>
<path d="M91.2924 91.9324H23.3014C22.9301 91.9324 22.574 91.7849 22.3114 91.5224C22.0489 91.2598 21.9014 90.9037 21.9014 90.5324V75.7512H92.6924V90.5324C92.6924 90.9037 92.5449 91.2598 92.2823 91.5224C92.0198 91.7849 91.6637 91.9324 91.2924 91.9324Z" fill="#E8F4FA"/>
<path d="M21.9014 75.7512H92.691V86.8756H21.9014V75.7512Z" fill="#DAEDF7"/>
<path d="M27.9692 79.8C27.9696 80.8728 28.396 81.9016 29.1548 82.6601C29.9135 83.4185 30.9424 83.8446 32.0152 83.8446H82.579C83.6519 83.8446 84.6808 83.4185 85.4395 82.6601C86.1982 81.9016 86.6247 80.8728 86.625 79.8H27.9692Z" fill="#C0DCEB"/>
<path d="M25.9478 41.3672H88.6482V71.7052H25.9478V41.3672Z" fill="#FFAA54"/>
<path d="M85.8468 41.3672H28.7478C28.0051 41.3672 27.293 41.6622 26.7679 42.1873C26.2428 42.7124 25.9478 43.4246 25.9478 44.1672V47.5384C25.9478 46.7958 26.2428 46.0836 26.7679 45.5585C27.293 45.0334 28.0051 44.7384 28.7478 44.7384H85.8468C86.5894 44.7384 87.3016 45.0334 87.8267 45.5585C88.3518 46.0836 88.6468 46.7958 88.6468 47.5384V44.1672C88.6468 43.4246 88.3518 42.7124 87.8267 42.1873C87.3016 41.6622 86.5894 41.3672 85.8468 41.3672Z" fill="#FF8A14"/>
<path d="M92.6924 37.3226H21.9014V23.94C21.9014 23.1974 22.1964 22.4852 22.7215 21.9601C23.2466 21.435 23.9588 21.14 24.7014 21.14H89.8924C90.635 21.14 91.3472 21.435 91.8723 21.9601C92.3974 22.4852 92.6924 23.1974 92.6924 23.94V37.3226Z" fill="#E8F4FA"/>
<path d="M89.8924 21.14H24.7014C23.9588 21.14 23.2466 21.435 22.7215 21.9601C22.1964 22.4852 21.9014 23.1974 21.9014 23.94V27.3112C21.9014 26.5686 22.1964 25.8564 22.7215 25.3313C23.2466 24.8062 23.9588 24.5112 24.7014 24.5112H89.8924C90.635 24.5112 91.3472 24.8062 91.8723 25.3313C92.3974 25.8564 92.6924 26.5686 92.6924 27.3112V23.94C92.6924 23.1974 92.3974 22.4852 91.8723 21.9601C91.3472 21.435 90.635 21.14 89.8924 21.14Z" fill="white"/>
<path d="M42.1274 25.1874H58.3086V33.278H42.1274V25.1874Z" fill="#00B8F0"/>
<path d="M45.1614 33.278H42.9704C42.8601 33.278 42.7508 33.2563 42.6489 33.2141C42.547 33.1718 42.4544 33.11 42.3764 33.032C42.2984 32.954 42.2365 32.8614 42.1943 32.7595C42.1521 32.6575 42.1304 32.5483 42.1304 32.438V26.0302C42.1304 25.9199 42.1521 25.8107 42.1943 25.7087C42.2365 25.6068 42.2984 25.5142 42.3764 25.4362C42.4544 25.3582 42.547 25.2964 42.6489 25.2541C42.7508 25.2119 42.8601 25.1902 42.9704 25.1902H53.252L45.1614 33.278Z" fill="#4ACFFF"/>
<path d="M27.9707 29.232C27.9707 30.3047 28.3968 31.3335 29.1553 32.092C29.9138 32.8505 30.9426 33.2766 32.0153 33.2766C33.088 33.2766 34.1168 32.8505 34.8753 32.092C35.6338 31.3335 36.0599 30.3047 36.0599 29.232C36.0599 28.1593 35.6338 27.1305 34.8753 26.372C34.1168 25.6135 33.088 25.1874 32.0153 25.1874C30.9426 25.1874 29.9138 25.6135 29.1553 26.372C28.3968 27.1305 27.9707 28.1593 27.9707 29.232Z" fill="#E8F4FA"/>
<path d="M32.0154 27.9524C32.8421 27.9549 33.6481 28.2115 34.3242 28.6872C35.0003 29.163 35.5139 29.8351 35.7954 30.6124C36.0257 30.0002 36.1041 29.3413 36.0239 28.6921C35.9437 28.0429 35.7073 27.4229 35.335 26.8851C34.9627 26.3473 34.4656 25.9078 33.8862 25.6042C33.3068 25.3006 32.6625 25.1421 32.0084 25.1421C31.3543 25.1421 30.71 25.3006 30.1306 25.6042C29.5512 25.9078 29.0541 26.3473 28.6818 26.8851C28.3095 27.4229 28.0731 28.0429 27.9929 28.6921C27.9127 29.3413 27.9911 30.0002 28.2214 30.6124C28.5036 29.8327 29.0192 29.159 29.6981 28.683C30.3771 28.207 31.1862 27.9519 32.0154 27.9524Z" fill="white"/>
<path fill-rule="evenodd" clip-rule="evenodd" d="M21.2017 75.7512C21.2017 75.3646 21.5151 75.0512 21.9017 75.0512H92.6927C93.0793 75.0512 93.3927 75.3646 93.3927 75.7512V90.5324C93.3927 91.0894 93.1714 91.6235 92.7776 92.0173C92.3838 92.4112 91.8496 92.6324 91.2927 92.6324H23.3017C22.7447 92.6324 22.2106 92.4112 21.8167 92.0173C21.4229 91.6235 21.2017 91.0894 21.2017 90.5324V75.7512ZM22.6017 76.4512V90.5324C22.6017 90.7181 22.6754 90.8961 22.8067 91.0274C22.938 91.1587 23.116 91.2324 23.3017 91.2324H91.2927C91.4783 91.2324 91.6564 91.1587 91.7876 91.0274C91.9189 90.8961 91.9927 90.7181 91.9927 90.5324V76.4512H22.6017Z" fill="#45413C"/>
<path fill-rule="evenodd" clip-rule="evenodd" d="M27.474 79.3051C27.6053 79.1738 27.7833 79.1 27.969 79.1H86.6248C86.8105 79.1 86.9886 79.1738 87.1199 79.3051C87.2512 79.4364 87.3249 79.6146 87.3248 79.8002C87.3244 81.0587 86.8242 82.2654 85.9342 83.1551C85.0442 84.0448 83.8373 84.5446 82.5788 84.5446H32.015C30.7566 84.5446 29.5497 84.0448 28.6597 83.1551C27.7697 82.2654 27.2695 81.0587 27.269 79.8002C27.269 79.6146 27.3427 79.4364 27.474 79.3051ZM28.7434 80.5C28.8776 81.1259 29.1898 81.7055 29.6495 82.165C30.2769 82.7922 31.1278 83.1446 32.015 83.1446H82.5788C83.4661 83.1446 84.3169 82.7922 84.9444 82.165C85.4041 81.7055 85.7163 81.1259 85.8505 80.5H28.7434Z" fill="#45413C"/>
<path fill-rule="evenodd" clip-rule="evenodd" d="M24.7017 21.84C24.1447 21.84 23.6106 22.0613 23.2167 22.4551C22.8229 22.8489 22.6017 23.383 22.6017 23.94V36.6226H91.9927V23.94C91.9927 23.383 91.7714 22.8489 91.3776 22.4551C90.9838 22.0613 90.4496 21.84 89.8927 21.84H24.7017ZM22.2268 21.4651C22.8832 20.8088 23.7734 20.44 24.7017 20.44H89.8927C90.8209 20.44 91.7112 20.8088 92.3675 21.4651C93.0239 22.1215 93.3927 23.0117 93.3927 23.94V37.3226C93.3927 37.7092 93.0793 38.0226 92.6927 38.0226H21.9017C21.5151 38.0226 21.2017 37.7092 21.2017 37.3226V23.94C21.2017 23.0117 21.5704 22.1215 22.2268 21.4651Z" fill="#45413C"/>
<path fill-rule="evenodd" clip-rule="evenodd" d="M41.4272 25.1874C41.4272 24.8008 41.7406 24.4874 42.1272 24.4874H58.3084C58.695 24.4874 59.0084 24.8008 59.0084 25.1874V33.278C59.0084 33.6646 58.695 33.978 58.3084 33.978H42.1272C41.7406 33.978 41.4272 33.6646 41.4272 33.278V25.1874ZM42.8272 25.8874V32.578H57.6084V25.8874H42.8272Z" fill="#45413C"/>
<path fill-rule="evenodd" clip-rule="evenodd" d="M28.6602 25.8771C29.55 24.9873 30.7568 24.4874 32.0151 24.4874C33.2735 24.4874 34.4803 24.9873 35.37 25.8771C36.2598 26.7668 36.7597 27.9736 36.7597 29.232C36.7597 30.4903 36.2598 31.6972 35.37 32.5869C34.4803 33.4767 33.2735 33.9766 32.0151 33.9766C30.7568 33.9766 29.55 33.4767 28.6602 32.5869C27.7704 31.6972 27.2705 30.4903 27.2705 29.232C27.2705 27.9736 27.7704 26.7668 28.6602 25.8771ZM32.0151 25.8874C31.1281 25.8874 30.2774 26.2398 29.6501 26.867C29.0229 27.4942 28.6705 28.345 28.6705 29.232C28.6705 30.119 29.0229 30.9698 29.6501 31.597C30.2774 32.2242 31.1281 32.5766 32.0151 32.5766C32.9022 32.5766 33.7529 32.2242 34.3801 31.597C35.0073 30.9698 35.3597 30.119 35.3597 29.232C35.3597 28.345 35.0073 27.4942 34.3801 26.867C33.7529 26.2398 32.9022 25.8874 32.0151 25.8874Z" fill="#45413C"/>
<path d="M64.376 29.232C64.376 30.3047 64.8021 31.3335 65.5606 32.092C66.3191 32.8505 67.3479 33.2766 68.4206 33.2766C69.4933 33.2766 70.522 32.8505 71.2805 32.092C72.0391 31.3335 72.4652 30.3047 72.4652 29.232C72.4652 28.1593 72.0391 27.1305 71.2805 26.372C70.522 25.6135 69.4933 25.1874 68.4206 25.1874C67.3479 25.1874 66.3191 25.6135 65.5606 26.372C64.8021 27.1305 64.376 28.1593 64.376 29.232Z" fill="#E8F4FA"/>
<path d="M68.4207 27.9524C69.2475 27.9547 70.0536 28.2112 70.7297 28.687C71.4059 29.1628 71.9194 29.835 72.2007 30.6124C72.4302 30.0005 72.5081 29.3421 72.4275 28.6935C72.3469 28.0449 72.1104 27.4255 71.7382 26.8884C71.3659 26.3512 70.869 25.9122 70.2901 25.609C69.7111 25.3058 69.0673 25.1474 68.4137 25.1474C67.7602 25.1474 67.1164 25.3058 66.5374 25.609C65.9584 25.9122 65.4616 26.3512 65.0893 26.8884C64.7171 27.4255 64.4805 28.0449 64.4 28.6935C64.3194 29.3421 64.3972 30.0005 64.6267 30.6124C64.9091 29.8328 65.4248 29.1592 66.1037 28.6832C66.7825 28.2073 67.5916 27.9521 68.4207 27.9524Z" fill="white"/>
<path fill-rule="evenodd" clip-rule="evenodd" d="M65.0659 25.8771C65.9557 24.9873 67.1625 24.4874 68.4209 24.4874C69.6792 24.4874 70.886 24.9873 71.7758 25.8771C72.6656 26.7668 73.1655 27.9736 73.1655 29.232C73.1655 30.4903 72.6656 31.6972 71.7758 32.5869C70.886 33.4767 69.6792 33.9766 68.4209 33.9766C67.1625 33.9766 65.9557 33.4767 65.0659 32.5869C64.1761 31.6972 63.6763 30.4903 63.6763 29.232C63.6763 27.9736 64.1761 26.7668 65.0659 25.8771ZM68.4209 25.8874C67.5338 25.8874 66.6831 26.2398 66.0559 26.867C65.4286 27.4942 65.0763 28.345 65.0763 29.232C65.0763 30.119 65.4286 30.9698 66.0559 31.597C66.6831 32.2242 67.5338 32.5766 68.4209 32.5766C69.3079 32.5766 70.1586 32.2242 70.7859 31.597C71.4131 30.9698 71.7655 30.119 71.7655 29.232C71.7655 28.345 71.4131 27.4942 70.7859 26.867C70.1586 26.2398 69.3079 25.8874 68.4209 25.8874Z" fill="#45413C"/>
<path d="M78.5342 29.232C78.5342 29.7631 78.6388 30.2891 78.8421 30.7798C79.0453 31.2705 79.3432 31.7164 79.7188 32.092C80.0944 32.4675 80.5403 32.7655 81.031 32.9687C81.5217 33.172 82.0476 33.2766 82.5788 33.2766C83.1099 33.2766 83.6359 33.172 84.1266 32.9687C84.6173 32.7655 85.0632 32.4675 85.4387 32.092C85.8143 31.7164 86.1122 31.2705 86.3155 30.7798C86.5188 30.2891 86.6234 29.7631 86.6234 29.232C86.6234 28.7009 86.5188 28.1749 86.3155 27.6842C86.1122 27.1935 85.8143 26.7476 85.4387 26.372C85.0632 25.9965 84.6173 25.6985 84.1266 25.4953C83.6359 25.292 83.1099 25.1874 82.5788 25.1874C82.0476 25.1874 81.5217 25.292 81.031 25.4953C80.5403 25.6985 80.0944 25.9965 79.7188 26.372C79.3432 26.7476 79.0453 27.1935 78.8421 27.6842C78.6388 28.1749 78.5342 28.7009 78.5342 29.232Z" fill="#E8F4FA"/>
<path d="M82.5789 27.9524C83.4057 27.9549 84.2117 28.2115 84.8878 28.6872C85.5639 29.163 86.0774 29.8351 86.3589 30.6124C86.5885 30.0005 86.6663 29.3421 86.5857 28.6935C86.5051 28.0449 86.2686 27.4255 85.8964 26.8884C85.5241 26.3512 85.0272 25.9122 84.4483 25.609C83.8693 25.3058 83.2255 25.1474 82.572 25.1474C81.9184 25.1474 81.2746 25.3058 80.6956 25.609C80.1166 25.9122 79.6198 26.3512 79.2475 26.8884C78.8753 27.4255 78.6387 28.0449 78.5582 28.6935C78.4776 29.3421 78.5554 30.0005 78.7849 30.6124C79.0673 29.8328 79.583 29.1592 80.2619 28.6832C80.9408 28.2073 81.7498 27.9521 82.5789 27.9524Z" fill="white"/>
<path fill-rule="evenodd" clip-rule="evenodd" d="M80.7634 24.8486C81.339 24.6101 81.956 24.4874 82.5791 24.4874C83.2021 24.4874 83.8191 24.6101 84.3948 24.8486C84.9704 25.087 85.4934 25.4365 85.934 25.8771C86.3746 26.3176 86.7241 26.8407 86.9625 27.4163C87.201 27.992 87.3237 28.6089 87.3237 29.232C87.3237 29.8551 87.201 30.472 86.9625 31.0477C86.7241 31.6233 86.3746 32.1464 85.934 32.5869C85.4934 33.0275 84.9704 33.377 84.3948 33.6154C83.8191 33.8539 83.2021 33.9766 82.5791 33.9766C81.956 33.9766 81.339 33.8539 80.7634 33.6154C80.1877 33.377 79.6647 33.0275 79.2241 32.5869C78.7836 32.1464 78.4341 31.6233 78.1956 31.0477C77.9572 30.472 77.8345 29.8551 77.8345 29.232C77.8345 28.6089 77.9572 27.992 78.1956 27.4163C78.4341 26.8407 78.7836 26.3176 79.2241 25.8771C79.6647 25.4365 80.1877 25.087 80.7634 24.8486ZM82.5791 25.8874C82.1399 25.8874 81.7049 25.9739 81.2991 26.142C80.8934 26.3101 80.5247 26.5564 80.2141 26.867C79.9035 27.1776 79.6571 27.5463 79.4891 27.9521C79.321 28.3579 79.2345 28.7928 79.2345 29.232C79.2345 29.6712 79.321 30.1061 79.4891 30.5119C79.6571 30.9177 79.9035 31.2864 80.2141 31.597C80.5247 31.9076 80.8934 32.1539 81.2991 32.322C81.7049 32.4901 82.1399 32.5766 82.5791 32.5766C83.0183 32.5766 83.4532 32.4901 83.859 32.322C84.2648 32.1539 84.6335 31.9076 84.9441 31.597C85.2546 31.2864 85.501 30.9177 85.6691 30.5119C85.8372 30.1061 85.9237 29.6712 85.9237 29.232C85.9237 28.7928 85.8372 28.3579 85.6691 27.9521C85.501 27.5463 85.2546 27.1776 84.9441 26.867C84.6335 26.5564 84.2648 26.3101 83.859 26.142C83.4532 25.9739 83.0183 25.8874 82.5791 25.8874Z" fill="#45413C"/>
<path d="M21.9141 75.7512H92.7037V79.7958H21.9141V75.7512Z" fill="#E8F4FA"/>
<path fill-rule="evenodd" clip-rule="evenodd" d="M21.2144 75.7512C21.2144 75.3646 21.5278 75.0512 21.9144 75.0512H92.704C93.0906 75.0512 93.404 75.3646 93.404 75.7512V79.7958C93.404 80.1824 93.0906 80.4958 92.704 80.4958H21.9144C21.5278 80.4958 21.2144 80.1824 21.2144 79.7958V75.7512ZM22.6144 76.4512V79.0958H92.004V76.4512H22.6144Z" fill="#45413C"/>
<path fill-rule="evenodd" clip-rule="evenodd" d="M25.2603 67.6606C25.2603 67.274 25.5737 66.9606 25.9603 66.9606H88.6593C89.0459 66.9606 89.3593 67.274 89.3593 67.6606C89.3593 68.0472 89.0459 68.3606 88.6593 68.3606H25.9603C25.5737 68.3606 25.2603 68.0472 25.2603 67.6606Z" fill="#45413C"/>
<path fill-rule="evenodd" clip-rule="evenodd" d="M21.2017 37.3226C21.2017 36.936 21.5151 36.6226 21.9017 36.6226H92.6913C93.0779 36.6226 93.3913 36.936 93.3913 37.3226V75.7512C93.3913 76.1378 93.0779 76.4512 92.6913 76.4512H21.9017C21.5151 76.4512 21.2017 76.1378 21.2017 75.7512V37.3226ZM22.6017 38.0226V75.0512H91.9913V38.0226H22.6017Z" fill="#45413C"/>
<path fill-rule="evenodd" clip-rule="evenodd" d="M25.2476 41.3672C25.2476 40.9806 25.561 40.6672 25.9476 40.6672H88.648C89.0346 40.6672 89.348 40.9806 89.348 41.3672V71.7052C89.348 72.0918 89.0346 72.4052 88.648 72.4052H25.9476C25.561 72.4052 25.2476 72.0918 25.2476 71.7052V41.3672ZM26.6476 42.0672V71.0052H87.948V42.0672H26.6476Z" fill="#45413C"/>
</svg>
