<svg width="160" height="160" viewBox="0 0 160 160" fill="none" xmlns="http://www.w3.org/2000/svg">
<path d="M16 80C16 96.9739 22.7428 113.253 34.7452 125.255C46.7475 137.257 63.0261 144 80 144C96.9739 144 113.253 137.257 125.255 125.255C137.257 113.253 144 96.9739 144 80C144 63.0261 137.257 46.7475 125.255 34.7452C113.253 22.7428 96.9739 16 80 16C63.0261 16 46.7475 22.7428 34.7452 34.7452C22.7428 46.7475 16 63.0261 16 80V80Z" fill="#CDF2FF"/>
<path d="M15.4582 99V92.574H24.6922V72.756H17.0782V67.842C18.2302 67.662 19.2562 67.482 20.1562 67.302C21.0922 67.086 21.9382 66.852 22.6942 66.6C23.4502 66.348 24.1522 66.078 24.8002 65.79C25.4842 65.466 26.1502 65.106 26.7982 64.71H32.6302V92.574H40.4062V99H15.4582ZM64.6851 99V90.792H48.1611V85.338L62.4711 64.71H72.0831V84.744H76.4031V90.792H72.0831V99H64.6851ZM55.8291 84.744H64.6851V78.966C64.6851 77.886 64.7031 76.644 64.7391 75.24C64.8111 73.8 64.8831 72.54 64.9551 71.46H64.7391C64.1631 72.432 63.5511 73.404 62.9031 74.376C62.2551 75.348 61.6251 76.32 61.0131 77.292L55.8291 84.744ZM99.764 99V90.792H83.24V85.338L97.55 64.71H107.162V84.744H111.482V90.792H107.162V99H99.764ZM90.908 84.744H99.764V78.966C99.764 77.886 99.782 76.644 99.818 75.24C99.89 73.8 99.962 72.54 100.034 71.46H99.818C99.242 72.432 98.63 73.404 97.982 74.376C97.334 75.348 96.704 76.32 96.092 77.292L90.908 84.744ZM120.695 99V92.574H129.929V72.756H122.315V67.842C123.467 67.662 124.493 67.482 125.393 67.302C126.329 67.086 127.175 66.852 127.931 66.6C128.687 66.348 129.389 66.078 130.037 65.79C130.721 65.466 131.387 65.106 132.035 64.71H137.867V92.574H145.643V99H120.695Z" fill="url(#paint0_linear)"/>
<defs>
<linearGradient id="paint0_linear" x1="80" y1="34" x2="80" y2="126" gradientUnits="userSpaceOnUse">
<stop stop-color="#2200FF"/>
<stop offset="1" stop-color="#9E00FF"/>
</linearGradient>
</defs>
</svg>
