<svg height="160" width="160" xmlns="http://www.w3.org/2000/svg">
  <path d="M16 80a64 64 0 10128 0 64 64 0 10-128 0z" fill="#C7F0FF" stroke="#C7F0FF" stroke-width="1.6"/>
  <path d="M56.3232 117.2096a23.6768 2.8976 0 1047.3536 0 23.6768 2.8976 0 10-47.3536 0z" fill="#45413c" opacity=".15"/>
  <path d="M36.32 48.3872h87.36v58.6048H36.32z" fill="#009fd9"/>
  <path d="M119.24 48.3872H40.76a4.4384 4.4384 0 00-4.44 4.44v6.6592a4.44 4.44 0 014.44-4.4464h78.48a4.44 4.44 0 014.44 4.4464v-6.6592a4.4384 4.4384 0 00-4.44-4.44z" fill="#00b8f0"/>
  <path d="M36.32 48.3872h87.36v58.6048H36.32z" fill="none" stroke="#45413c" stroke-linecap="round" stroke-linejoin="round" stroke-width="1.6"/>
  <path d="M46.9744 66.8464h10.592v9.8448h-10.592z" fill="#ebcb00"/>
  <path d="M47.7744 76.264l8.9936-8.992a2.0432 2.0432 0 00-1.2512-.4256h-6.4912a2.0496 2.0496 0 00-2.0512 2.0512V74.64a2.0464 2.0464 0 00.8 1.624z" fill="#ffe500"/>
  <path d="M46.9744 66.8464h10.592v9.8448h-10.592zM44.9184 80.1152v5.328M49.144 80.1152v5.328M53.3696 80.1152v5.328M57.5952 80.1152v5.328M64.08 80.1152v5.328M68.3056 80.1152v5.328M72.5312 80.1152v5.328M76.7568 80.1152v5.328M83.2432 80.1152v5.328M87.4688 80.1152v5.328M95.92 80.1152v5.328M91.6944 80.1152v5.328M102.4048 80.1152v5.328M106.6304 80.1152v5.328M110.856 80.1152v5.328M115.0816 80.1152v5.328M46.928 98.7584h12.5312M64.4368 98.7584h7.9312M106.4096 73.168h7.9328" fill="none" stroke="#45413c" stroke-linecap="round" stroke-linejoin="round" stroke-width="1.6"/>
  <path d="M105.0496 95.4144a6.6592 6.6592 0 1013.3184 0 6.6592 6.6592 0 10-13.3184 0z" fill="#ffe500"/>
  <path d="M97.0576 95.4144a6.6592 6.6592 0 1013.3184 0 6.6592 6.6592 0 10-13.3184 0z" fill="#ff6242"/>
  <path d="M101.0544 95.4144h13.3184" fill="none" stroke="#f0f0f0" stroke-linecap="round" stroke-linejoin="round" stroke-width="1.6"/>
  <path d="M47.7632 61.8688l1.0544-4.9696 2.2592 2.5872 3.4656-2.5872-.4528 4.9696h17.6256l1.2064-4.9696M59.5136 61.8688l1.2064-4.9696M64.936 61.8688l1.2064-4.9696" fill="none" stroke="#fff" stroke-linecap="round" stroke-linejoin="round" stroke-width="1.6"/>
</svg>
