<svg width="160" height="160" viewBox="0 0 160 160" fill="none" xmlns="http://www.w3.org/2000/svg">
<path d="M16 80C16 96.9739 22.7428 113.253 34.7452 125.255C46.7475 137.257 63.0261 144 80 144C96.9739 144 113.253 137.257 125.255 125.255C137.257 113.253 144 96.9739 144 80C144 63.0261 137.257 46.7475 125.255 34.7452C113.253 22.7428 96.9739 16 80 16C63.0261 16 46.7475 22.7428 34.7452 34.7452C22.7428 46.7475 16 63.0261 16 80V80Z" fill="#CDF2FF"/>
<path d="M5.36688 94V67.92H11.5269L14.0869 77.16L14.9669 80.76H15.1269L16.0069 77.16L18.5669 67.92H24.7269V94H19.7669V85.92C19.7669 85.2 19.7935 84.2933 19.8469 83.2C19.9002 82.1067 19.9669 80.9867 20.0469 79.84C20.1269 78.6933 20.2069 77.5867 20.2869 76.52C20.3935 75.4267 20.4735 74.5333 20.5269 73.84H20.4069L18.4069 80.8L16.4069 87.08H13.5269L11.4869 80.8L9.60688 73.84H9.48688C9.56688 74.5333 9.64688 75.4267 9.72688 76.52C9.80688 77.5867 9.88688 78.6933 9.96688 79.84C10.0469 80.9867 10.1135 82.1067 10.1669 83.2C10.2202 84.2933 10.2469 85.2 10.2469 85.92V94H5.36688ZM37.9913 94.48C36.9779 94.48 36.0713 94.32 35.2713 94C34.4713 93.7067 33.7913 93.2933 33.2313 92.76C32.6713 92.2 32.2313 91.56 31.9113 90.84C31.6179 90.12 31.4713 89.3333 31.4713 88.48C31.4713 87.36 31.7113 86.3867 32.1913 85.56C32.6713 84.7067 33.4313 83.9867 34.4713 83.4C35.5379 82.8133 36.8979 82.3467 38.5513 82C40.2046 81.6267 42.2046 81.3733 44.5513 81.24C44.4446 80.3333 44.0446 79.6267 43.3513 79.12C42.6846 78.6133 41.6713 78.36 40.3113 78.36C39.3513 78.36 38.3779 78.5333 37.3913 78.88C36.4313 79.2 35.3913 79.64 34.2713 80.2L32.1913 76.36C33.5513 75.5867 35.0046 74.9467 36.5513 74.44C38.1246 73.9333 39.7646 73.68 41.4713 73.68C44.2446 73.68 46.4313 74.4133 48.0313 75.88C49.6313 77.3467 50.4313 79.6 50.4313 82.64V94H45.6313L45.1913 91.76H45.0313C44.0179 92.5333 42.9113 93.1867 41.7113 93.72C40.5113 94.2267 39.2713 94.48 37.9913 94.48ZM39.8713 89.92C40.7513 89.92 41.5779 89.7467 42.3513 89.4C43.1246 89.0267 43.8579 88.5733 44.5513 88.04V84.76C43.0846 84.84 41.8713 84.9733 40.9113 85.16C39.9513 85.3467 39.1913 85.5867 38.6313 85.88C38.0713 86.1467 37.6713 86.4667 37.4313 86.84C37.2179 87.2133 37.1113 87.6133 37.1113 88.04C37.1113 88.68 37.3513 89.16 37.8313 89.48C38.3379 89.7733 39.0179 89.92 39.8713 89.92ZM68.7356 94.48C67.1623 94.48 65.709 94.2533 64.3756 93.8C63.0423 93.32 61.869 92.64 60.8556 91.76C59.869 90.88 59.0956 89.8 58.5356 88.52C57.9756 87.2133 57.6956 85.7333 57.6956 84.08C57.6956 82.4267 58.0023 80.96 58.6156 79.68C59.2556 78.3733 60.0956 77.28 61.1356 76.4C62.2023 75.52 63.429 74.8533 64.8156 74.4C66.2023 73.92 67.6556 73.68 69.1756 73.68C70.749 73.68 72.1623 73.9333 73.4156 74.44C74.6956 74.9467 75.7623 75.5867 76.6156 76.36L73.8956 80C72.429 78.96 70.9623 78.44 69.4956 78.44C67.789 78.44 66.4023 78.9467 65.3356 79.96C64.269 80.9733 63.7356 82.3467 63.7356 84.08C63.7356 85.8133 64.2423 87.1867 65.2556 88.2C66.2956 89.2133 67.6423 89.72 69.2956 89.72C70.3356 89.72 71.2823 89.5333 72.1356 89.16C73.0156 88.7867 73.8156 88.3467 74.5356 87.84L76.8956 91.56C75.6956 92.5733 74.3756 93.32 72.9356 93.8C71.4956 94.2533 70.0956 94.48 68.7356 94.48ZM85.64 94V74.16H90.44L90.92 78.48H91.04C92.0267 76.8533 93.2133 75.6533 94.6 74.88C95.9867 74.08 97.48 73.68 99.08 73.68C99.96 73.68 100.667 73.7467 101.2 73.88C101.76 74.0133 102.333 74.2133 102.92 74.48L101.72 79.4C101.107 79.2133 100.547 79.08 100.04 79C99.56 78.8933 98.9467 78.84 98.2 78.84C96.9733 78.84 95.76 79.2 94.56 79.92C93.3867 80.64 92.3733 81.8933 91.52 83.68V94H85.64ZM118.984 94.48C117.678 94.48 116.411 94.2533 115.184 93.8C113.984 93.32 112.904 92.64 111.944 91.76C111.011 90.88 110.264 89.8 109.704 88.52C109.144 87.2133 108.864 85.7333 108.864 84.08C108.864 82.4267 109.144 80.96 109.704 79.68C110.264 78.3733 111.011 77.28 111.944 76.4C112.904 75.52 113.984 74.8533 115.184 74.4C116.411 73.92 117.678 73.68 118.984 73.68C120.291 73.68 121.544 73.92 122.744 74.4C123.971 74.8533 125.051 75.52 125.984 76.4C126.944 77.28 127.704 78.3733 128.264 79.68C128.824 80.96 129.104 82.4267 129.104 84.08C129.104 85.7333 128.824 87.2133 128.264 88.52C127.704 89.8 126.944 90.88 125.984 91.76C125.051 92.64 123.971 93.32 122.744 93.8C121.544 94.2533 120.291 94.48 118.984 94.48ZM118.984 89.72C120.344 89.72 121.358 89.2133 122.024 88.2C122.718 87.1867 123.064 85.8133 123.064 84.08C123.064 82.3467 122.718 80.9733 122.024 79.96C121.358 78.9467 120.344 78.44 118.984 78.44C117.624 78.44 116.598 78.9467 115.904 79.96C115.238 80.9733 114.904 82.3467 114.904 84.08C114.904 85.8133 115.238 87.1867 115.904 88.2C116.598 89.2133 117.624 89.72 118.984 89.72ZM144.809 94.48C143.022 94.48 141.275 94.1867 139.569 93.6C137.862 93.0133 136.369 92.2933 135.089 91.44L137.609 87.76C138.835 88.5333 140.115 89.12 141.449 89.52C142.782 89.92 144.169 90.12 145.609 90.12C146.702 90.12 147.502 89.96 148.009 89.64C148.515 89.32 148.769 88.92 148.769 88.44C148.769 88.1733 148.689 87.9333 148.529 87.72C148.395 87.5067 148.142 87.32 147.769 87.16C147.422 86.9733 146.929 86.8 146.289 86.64C145.649 86.48 144.849 86.2933 143.889 86.08C141.195 85.4933 139.262 84.7067 138.089 83.72C136.915 82.7067 136.329 81.4267 136.329 79.88C136.329 78.9733 136.542 78.1333 136.969 77.36C137.395 76.5867 137.995 75.9333 138.769 75.4C139.569 74.8667 140.529 74.4533 141.649 74.16C142.769 73.84 144.035 73.68 145.449 73.68C147.235 73.68 148.849 73.9733 150.289 74.56C151.755 75.12 153.009 75.7333 154.049 76.4L151.409 79.92C150.395 79.3067 149.342 78.84 148.249 78.52C147.155 78.2 146.049 78.04 144.929 78.04C143.995 78.04 143.302 78.1867 142.849 78.48C142.395 78.7733 142.169 79.1467 142.169 79.6C142.169 80.16 142.515 80.56 143.209 80.8C143.902 81.04 145.089 81.3467 146.769 81.72C148.289 82.0667 149.555 82.44 150.569 82.84C151.582 83.24 152.382 83.6933 152.969 84.2C153.555 84.7067 153.969 85.28 154.209 85.92C154.449 86.56 154.569 87.28 154.569 88.08C154.569 88.9867 154.355 89.8267 153.929 90.6C153.502 91.3733 152.875 92.0533 152.049 92.64C151.249 93.2 150.235 93.6533 149.009 94C147.809 94.32 146.409 94.48 144.809 94.48Z" fill="url(#paint0_linear)"/>
<defs>
<linearGradient id="paint0_linear" x1="80" y1="46" x2="80" y2="114" gradientUnits="userSpaceOnUse">
<stop stop-color="#2200FF"/>
<stop offset="1" stop-color="#9E00FF"/>
</linearGradient>
</defs>
</svg>
