<svg viewBox="0 0 48 48" height="48" width="48" xmlns="http://www.w3.org/2000/svg"><g transform="matrix(0.48,0,0,0.48,0,0)"><path d="M10.000 50.000 A40.000 40.000 0 1 0 90.000 50.000 A40.000 40.000 0 1 0 10.000 50.000 Z" fill="#C7F0FF" stroke="#C7F0FF"></path><path d="M26.833 78.015 A20.7 1.725 0 1 0 68.233 78.015 A20.7 1.725 0 1 0 26.833 78.015 Z" fill="#525252" opacity=".15"></path><path d="M87.537,28.254a3.177,3.177,0,0,0-2.2-1.174l-33.493.209L19.556,18.367a3.173,3.173,0,0,0-3.709,2.706l-5.384,40.4a3.165,3.165,0,0,0,.627,2.347,3.108,3.108,0,0,0,2.975,1.075l6.513-1.049a31.73,31.73,0,0,1,17.348,2.076l6.99,2.939a5.215,5.215,0,0,0,2.721.36l6.568-.889a35.066,35.066,0,0,1,19.107,2.776l5.144,2.317a3.11,3.11,0,0,0,3.153-.264,3.163,3.163,0,0,0,1.216-2.1l5.384-40.4A3.174,3.174,0,0,0,87.537,28.254Z" fill="#ff6242" stroke="#45413c" stroke-linecap="round" stroke-linejoin="round"></path><path d="M15.262,49.655l-.882,6.664a3.174,3.174,0,0,0,3.587,3.56c6.533-.912,19.4-1.38,28.663,6.737l.834-6.292Z" fill="#e0e0e0" stroke="#45413c" stroke-linecap="round" stroke-linejoin="round"></path><path d="M46.63,66.616a60.125,60.125,0,0,0-25.82-9.823l-3.235-.429A3.172,3.172,0,0,1,14.846,52.8L19.43,18.194a3.174,3.174,0,0,1,3.563-2.73l3.235.429a60.1,60.1,0,0,1,25.82,9.823Z" fill="#ffffff"></path><path d="M81.332,58.407l-.883,6.664a3.175,3.175,0,0,1-4.39,2.5c-6.07-2.582-18.374-6.385-29.429-.959l.834-6.292Z" fill="#C7F0FF" stroke="#45413c" stroke-linecap="round" stroke-linejoin="round"></path><path d="M46.63,66.616a60.127,60.127,0,0,1,27.488-2.762l3.234.429a3.174,3.174,0,0,0,3.563-2.73L85.5,26.946a3.174,3.174,0,0,0-2.73-3.563l-3.234-.429a60.127,60.127,0,0,0-27.488,2.762Z" fill="#ffffff"></path><path d="M82.708,23.855,78.123,58.462a3.183,3.183,0,0,1-3.563,2.73l-3.24-.429c-7.346-.974-13.076,1.677-19.541,4.326q-2.607.639-5.149,1.527l5.356-40.428c1.811-.625,3.537-1.325,5.211-2A60.056,60.056,0,0,1,79.53,22.953l3.209.425A4.735,4.735,0,0,1,82.708,23.855Z" fill="#C7F0FF"></path><path d="M85.5,26.946l-.834,6.292a3.183,3.183,0,0,0-2.729-3.563L78.7,29.246a60.1,60.1,0,0,0-27.481,2.762l.833-6.292A60.118,60.118,0,0,1,79.53,22.953l3.24.43A3.183,3.183,0,0,1,85.5,26.946Z" fill="#ffffff"></path><path d="M46.63,66.616a60.125,60.125,0,0,0-25.82-9.823l-3.235-.429A3.172,3.172,0,0,1,14.846,52.8L19.43,18.194a3.174,3.174,0,0,1,3.563-2.73l3.235.429a60.1,60.1,0,0,1,25.82,9.823Z" fill="none" stroke="#45413c" stroke-linecap="round" stroke-linejoin="round"></path><path d="M46.63,66.616a60.127,60.127,0,0,1,27.488-2.762l3.234.429a3.174,3.174,0,0,0,3.563-2.73L85.5,26.946a3.174,3.174,0,0,0-2.73-3.563l-3.234-.429a60.127,60.127,0,0,0-27.488,2.762Z" fill="none" stroke="#45413c" stroke-linecap="round" stroke-linejoin="round"></path><path d="M81.764,18.9,76.942,55.3a3.177,3.177,0,0,1-2.926,2.75l-7.7.531a32.024,32.024,0,0,0-13.942,4.348l-5.7,3.375L52.09,25.4l5.7-3.375a32.007,32.007,0,0,1,13.942-4.348l7.06-.489,1.292-.085a1.577,1.577,0,0,1,1.263.487A1.6,1.6,0,0,1,81.764,18.9Z" fill="#ffffff"></path><path d="M78.789,17.189,74.108,52.52a3.175,3.175,0,0,1-2.925,2.75l-7.706.532A32.007,32.007,0,0,0,49.536,60.15l-2.224,1.322L52.09,25.4l5.7-3.375a32.007,32.007,0,0,1,13.942-4.348Z" fill="#C7F0FF"></path><path d="M46.672,66.3l5.7-3.373a31.729,31.729,0,0,1,13.938-4.345l7.706-.541a3.172,3.172,0,0,0,2.924-2.749l4.823-36.4A1.587,1.587,0,0,0,80.081,17.1l-8.351.586a31.737,31.737,0,0,0-13.939,4.345L52.09,25.4Z" fill="none" stroke="#45413c" stroke-linecap="round" stroke-linejoin="round"></path><path d="M52.075,25.509l-5.417,40.9,3.358-3.832a31.752,31.752,0,0,1,9.882-7.57l8.186-4.018a3.172,3.172,0,0,0,1.747-2.432L74.637,12.28a1.587,1.587,0,0,0-2.272-1.633l-7.049,3.46a31.737,31.737,0,0,0-9.882,7.57Z" fill="#ffffff"></path><path d="M52.048,25.716l-5.418,40.9,3.359-3.832a31.726,31.726,0,0,1,9.882-7.57L68.056,51.2A3.171,3.171,0,0,0,69.8,48.764l4.8-36.277a1.587,1.587,0,0,0-2.272-1.633l-7.048,3.46a31.726,31.726,0,0,0-9.882,7.57Z" fill="none" stroke="#45413c" stroke-linecap="round" stroke-linejoin="round"></path><path d="M62.289,22.707l-.94,10.282c-1.472.876-2.8,1.765-3.922,2.552l.939-10.257A33.433,33.433,0,0,1,62.289,22.707Z" fill="#80ddff" stroke="#45413c" stroke-linecap="round" stroke-linejoin="round"></path><path d="M55.231,27.988a28.038,28.038,0,0,1,3.135-2.7l-.939,10.257c-2.12,1.486-3.466,2.6-3.466,2.6Z" fill="#00b8f0" stroke="#45413c" stroke-linecap="round" stroke-linejoin="round"></path><path d="M70.464,19.1,69.195,29.257A32.25,32.25,0,0,0,65.234,30.9l.927-10.156A35.707,35.707,0,0,1,70.464,19.1Z" fill="#8cffe4" stroke="#45413c" stroke-linecap="round" stroke-linejoin="round"></path><path d="M66.161,20.739,65.234,30.9c-1.358.647-2.666,1.371-3.885,2.094l.94-10.282A41.589,41.589,0,0,1,66.161,20.739Z" fill="#4aeff7" stroke="#45413c" stroke-linecap="round" stroke-linejoin="round"></path><path d="M57.77,40.682s2.182-2.182,8.572-4.524" fill="none" stroke="#45413c" stroke-linecap="round" stroke-linejoin="round"></path><path d="M57.77,45.76s2.16-2.16,8.474-4.488" fill="none" stroke="#45413c" stroke-linecap="round" stroke-linejoin="round"></path><path d="M57.77,50.838a19.211,19.211,0,0,1,5.114-3.1" fill="none" stroke="#45413c" stroke-linecap="round" stroke-linejoin="round"></path><path d="M20.969 38.146 A12.697 12.697 0 1 0 46.363 38.146 A12.697 12.697 0 1 0 20.969 38.146 Z" fill="#b8ecff"></path><path d="M45.625,42.417a12.694,12.694,0,0,0-24.606-5.41,12.909,12.909,0,0,1,.246-1.588,12.7,12.7,0,1,1,24.36,7Z" fill="#80ddff"></path><path d="M21.223,40.689c.335-.138.719-.3,1.129-.481a55.043,55.043,0,0,0,6.982-3.594l1.362,2.13a.532.532,0,0,0,.734.161l2.282-1.459a.533.533,0,0,1,.733.162l1.46,2.281a.533.533,0,0,0,.733.162l2.131-1.363a54.21,54.21,0,0,0,4.657,5.992h0c.229.267.442.509.647.739Z" fill="#87898c"></path><path d="M34.444,37.606l1.462,2.285a.529.529,0,0,0,.73.161l2.133-1.364h0a10.178,10.178,0,0,1-1.657-3.656,1.045,1.045,0,0,0-.8-.908L33.475,33.5a1.045,1.045,0,0,0-1.1.491,10.194,10.194,0,0,1-3.04,2.624L30.7,38.746a.53.53,0,0,0,.731.161l2.286-1.462A.529.529,0,0,1,34.444,37.606Z" fill="#ffffff"></path><path d="M21.223,40.689c.335-.138.719-.3,1.129-.481a55.043,55.043,0,0,0,6.982-3.594l1.362,2.13a.532.532,0,0,0,.734.161l2.282-1.459a.533.533,0,0,1,.733.162l1.46,2.281a.533.533,0,0,0,.733.162l2.131-1.363a54.21,54.21,0,0,0,4.657,5.992h0c.229.267.442.509.647.739Z" fill="#87898c"></path><path d="M34.444,37.606l1.462,2.285a.529.529,0,0,0,.73.161l2.133-1.364h0a10.178,10.178,0,0,1-1.657-3.656,1.045,1.045,0,0,0-.8-.908L33.475,33.5a1.045,1.045,0,0,0-1.1.491,10.194,10.194,0,0,1-3.04,2.624L30.7,38.746a.53.53,0,0,0,.731.161l2.286-1.462A.529.529,0,0,1,34.444,37.606Z" fill="#ffffff"></path><path d="M29.332,36.614,30.7,38.746a.53.53,0,0,0,.731.161l2.286-1.462a.529.529,0,0,1,.73.161l1.462,2.285a.529.529,0,0,0,.73.161l2.133-1.364" fill="none" stroke="#45413c" stroke-linecap="round" stroke-linejoin="round"></path><path d="M38.769,38.688h0a10.178,10.178,0,0,1-1.657-3.656,1.045,1.045,0,0,0-.8-.908L33.475,33.5a1.045,1.045,0,0,0-1.1.491,10.194,10.194,0,0,1-3.04,2.624h0a55.079,55.079,0,0,1-6.98,3.593c-.41.182-.794.343-1.129.481L44.078,45.42c-.205-.23-.418-.472-.647-.739h0a54.21,54.21,0,0,1-4.657-5.992l-2.131,1.363" fill="none" stroke="#45413c" stroke-linecap="round" stroke-linejoin="round"></path><path d="M20.969 38.146 A12.697 12.697 0 1 0 46.363 38.146 A12.697 12.697 0 1 0 20.969 38.146 Z" fill="none" stroke="#45413c" stroke-linecap="round" stroke-linejoin="round"></path><path d="M20.969 38.146 A12.697 12.697 0 1 0 46.363 38.146 A12.697 12.697 0 1 0 20.969 38.146 Z" fill="none" stroke="#45413c" stroke-linecap="round" stroke-linejoin="round"></path><path d="M44.389,44.952a2.5,2.5,0,0,0-.607-.216c-.119-.026-.235-.041-.351-.055h0a2.67,2.67,0,0,0-2.122.806,2.641,2.641,0,0,0-3.028-.666,2.649,2.649,0,0,0-4.412-.97,2.641,2.641,0,0,0-3.028-.666,2.65,2.65,0,0,0-4.413-.97,2.641,2.641,0,0,0-3.028-.666,2.657,2.657,0,0,0-1.043-1.34,2.573,2.573,0,0,0-.891-.38,2.294,2.294,0,0,0-.39-.052,12.7,12.7,0,0,0,23.318,5.176Z" fill="#C7F0FF"></path><path d="M34.969,50.079A1.322,1.322,0,0,0,33.961,48.5a1.309,1.309,0,0,0-.543,0,1.847,1.847,0,0,0-3.559.185" fill="none" stroke="#45413c" stroke-linecap="round" stroke-linejoin="round"></path><path d="M21.278,40.942A2.62,2.62,0,0,1,22.922,42.1a2.743,2.743,0,0,1,.167.3.3.3,0,0,0,.354.16,2.521,2.521,0,0,1,1.055-.115,2.078,2.078,0,0,1,.309.046,2.2,2.2,0,0,1,.321.093,2.6,2.6,0,0,1,.835.492.388.388,0,0,0,.495.011,1.73,1.73,0,0,1,.231-.16,2.6,2.6,0,0,1,1.986-.36,2.639,2.639,0,0,1,1.657,1.161c.047.081.1.168.139.252a.374.374,0,0,0,.441.189,2.635,2.635,0,0,1,.97-.1,2.478,2.478,0,0,1,.335.053,2.168,2.168,0,0,1,.321.092,2.682,2.682,0,0,1,.82.483.421.421,0,0,0,.523.013c.071-.055.142-.105.217-.153a2.605,2.605,0,0,1,1.986-.36,2.643,2.643,0,0,1,1.657,1.161c.052.082.1.168.145.254a.369.369,0,0,0,.429.192,2.649,2.649,0,0,1,.976-.105,2.3,2.3,0,0,1,.335.052,2.057,2.057,0,0,1,.306.089,2.549,2.549,0,0,1,.791.444.492.492,0,0,0,.614.016,1.156,1.156,0,0,1,.171-.114,2.609,2.609,0,0,1,1.986-.36c.078.018.161.042.238.064.232-.3.452-.614.657-.938a2.5,2.5,0,0,0-.607-.216c-.119-.026-.235-.041-.351-.055h0a2.67,2.67,0,0,0-2.122.806,2.641,2.641,0,0,0-3.028-.666,2.649,2.649,0,0,0-4.412-.97,2.641,2.641,0,0,0-3.028-.666,2.65,2.65,0,0,0-4.413-.97,2.641,2.641,0,0,0-3.028-.666,2.657,2.657,0,0,0-1.043-1.34,2.573,2.573,0,0,0-.891-.38,2.294,2.294,0,0,0-.39-.052Q21.148,40.366,21.278,40.942Z" fill="#ffffff"></path><path d="M44.389,44.952a2.5,2.5,0,0,0-.607-.216c-.119-.026-.235-.041-.351-.055h0a2.67,2.67,0,0,0-2.122.806,2.641,2.641,0,0,0-3.028-.666,2.649,2.649,0,0,0-4.412-.97,2.641,2.641,0,0,0-3.028-.666,2.65,2.65,0,0,0-4.413-.97,2.641,2.641,0,0,0-3.028-.666,2.657,2.657,0,0,0-1.043-1.34,2.573,2.573,0,0,0-.891-.38,2.294,2.294,0,0,0-.39-.052,12.7,12.7,0,0,0,23.318,5.176Z" fill="none" stroke="#45413c" stroke-linecap="round" stroke-linejoin="round"></path></g></svg>