<svg viewBox="0 0 48 48" height="48" width="48" xmlns="http://www.w3.org/2000/svg"><g transform="matrix(0.48,0,0,0.48,0,0)"><path d="M9.491 50.000 A40.000 40.000 0 1 0 89.491 50.000 A40.000 40.000 0 1 0 9.491 50.000 Z" fill="#C7F0FF" stroke="#C7F0FF"></path><path d="M97.87 72.256L71.825 49.104 27.833 49.104 1.788 72.256 97.87 72.256z" fill="#9ceb60"></path><path d="M27.961 53.734L32.227 49.104 27.833 49.104 22.624 53.734 22.624 53.734 27.961 53.734z" fill="#ffe500"></path><path d="M27.99 58.365L24.369 62.995 65.039 62.995 62.896 58.365 27.99 58.365z" fill="#4acfff"></path><path d="M82.243 58.365L71.615 58.365 82.233 72.256 97.87 72.256 82.243 58.365z" fill="#ffe500"></path><path d="M71.615,58.365H82.243l-5.209-4.631H51.651L51.3,49.1H48.362l-.355,4.63h-16.4l3.621-4.63H32.227l-4.266,4.63H22.624l-5.209,4.631h6.279L10.9,72.256h6.231l4.527-5.788H66.645l2.679,5.788H82.233ZM24.369,63l3.621-4.63H62.9L65.039,63Z" fill="#ffffff"></path><path d="M97.87 72.256L71.825 49.104 27.833 49.104 1.788 72.256 97.87 72.256z" fill="none" stroke="#45413c" stroke-linecap="round" stroke-linejoin="round"></path><path d="M37.674 54.892 A5.788 1.158 0 1 0 49.250 54.892 A5.788 1.158 0 1 0 37.674 54.892 Z" fill="#45413c" opacity=".15"></path><path d="M57.933,24.215c0,7.991-14.47,29.519-14.47,29.519S28.992,32.206,28.992,24.215a14.471,14.471,0,1,1,28.941,0Z" fill="#ff6242"></path><path d="M43.462,14.375A14.475,14.475,0,0,1,57.7,26.24a10.256,10.256,0,0,0,.235-2.025,14.471,14.471,0,1,0-28.941,0,10.21,10.21,0,0,0,.235,2.021A14.474,14.474,0,0,1,43.462,14.375Z" fill="#ff866e"></path><path d="M36.517 24.215 A6.946 6.946 0 1 0 50.409 24.215 A6.946 6.946 0 1 0 36.517 24.215 Z" fill="#e04122" stroke="#45413c" stroke-linecap="round" stroke-linejoin="round"></path><path d="M57.933,24.215c0,7.991-14.47,29.519-14.47,29.519S28.992,32.206,28.992,24.215a14.471,14.471,0,1,1,28.941,0Z" fill="none" stroke="#45413c" stroke-linecap="round" stroke-linejoin="round"></path><path d="M61.984 53.155 A4.052 0.579 0 1 0 70.088 53.155 A4.052 0.579 0 1 0 61.984 53.155 Z" fill="#45413c" opacity=".15"></path><path d="M77.032 62.416 A4.052 0.579 0 1 0 85.136 62.416 A4.052 0.579 0 1 0 77.032 62.416 Z" fill="#45413c" opacity=".15"></path><path d="M15.679 60.101 A4.052 0.579 0 1 0 23.783 60.101 A4.052 0.579 0 1 0 15.679 60.101 Z" fill="#45413c" opacity=".15"></path><path d="M22.625,54.313c0,1.6-2.894,5.209-2.894,5.209s-2.894-3.611-2.894-5.209a2.894,2.894,0,1,1,5.788,0Z" fill="#ff6242" stroke="#45413c" stroke-linecap="round" stroke-linejoin="round"></path><path d="M68.93,47.367c0,1.6-2.894,5.209-2.894,5.209s-2.894-3.61-2.894-5.209a2.894,2.894,0,0,1,5.788,0Z" fill="#ff6242" stroke="#45413c" stroke-linecap="round" stroke-linejoin="round"></path><path d="M87.452,49.682c0,3.517-6.367,12.155-6.367,12.155S74.718,53.2,74.718,49.682a6.367,6.367,0,1,1,12.734,0Z" fill="#ff6242" stroke="#45413c" stroke-linecap="round" stroke-linejoin="round"></path><path d="M78.191 49.682 A2.894 2.894 0 1 0 83.979 49.682 A2.894 2.894 0 1 0 78.191 49.682 Z" fill="#e04122" stroke="#45413c" stroke-linecap="round" stroke-linejoin="round"></path></g></svg>