<svg width="160" height="160" fill="none" xmlns="http://www.w3.org/2000/svg">
  <path d="M16 80c0 16.9739 6.7428 33.253 18.7452 45.255C46.7475 137.257 63.0261 144 80 144c16.9739 0 33.253-6.743 45.255-18.745C137.257 113.253 144 96.9739 144 80c0-16.9739-6.743-33.2525-18.745-45.2548C113.253 22.7428 96.9739 16 80 16c-16.9739 0-33.2525 6.7428-45.2548 18.7452C22.7428 46.7475 16 63.0261 16 80z" fill="#C7F0FF"/>
  <path d="M116.898 53.4647H43.1013c-3.4367 0-6.2263 2.7896-6.2263 6.2126v40.6317c0 3.436 2.7896 6.226 6.2261 6.226h73.8109c3.436 0 6.226-2.79 6.213-6.212V59.6773c0-3.423-2.79-6.2126-6.227-6.2126zM82.493 94.0965h-8.2881V77.9247l-8.288 10.3635-8.2879-10.3635v16.1718h-8.3153v-28.193h8.2883l8.2881 10.3635 8.288-10.3635h8.2879v28.1928h.027v.0002zm18.234.4178L88.2879 80.0001h8.288V65.9035h8.2881v14.0966h8.288l-12.425 14.5142z" fill="url(#paint0_linear)"/>
  <defs>
    <linearGradient id="paint0_linear" x1="79.9999" y1="53.4647" x2="79.9999" y2="106.535" gradientUnits="userSpaceOnUse">
      <stop stop-color="#20F"/>
      <stop offset="1" stop-color="#9E00FF"/>
    </linearGradient>
  </defs>
</svg>
