<svg width="160" height="160" fill="none" xmlns="http://www.w3.org/2000/svg">
  <path d="M16 80c0 16.9739 6.7428 33.253 18.7452 45.255C46.7475 137.257 63.0261 144 80 144c16.9739 0 33.253-6.743 45.255-18.745C137.257 113.253 144 96.9739 144 80c0-16.9739-6.743-33.2525-18.745-45.2548C113.253 22.7428 96.9739 16 80 16c-16.9739 0-33.2525 6.7428-45.2548 18.7452C22.7428 46.7475 16 63.0261 16 80z" fill="#C7F0FF"/>
  <g clip-path="url(#clip0)">
    <path d="M133.81 41.3027H26.1894c-5.0118 0-9.08 4.0682-9.08 9.0601v59.2552c0 5.011 4.0682 9.079 9.0797 9.079H133.83c5.011 0 9.08-4.068 9.06-9.06V50.3628c0-4.9919-4.068-9.0601-9.08-9.0601zM83.6356 100.557H71.5489V76.9735L59.4621 92.0869 47.3756 76.9735v23.5835H35.2492V59.4426h12.0871L59.423 74.556l12.0868-15.1134h12.0865v41.1144h.0393zm26.5904.61L92.0865 80.0002h12.0865V59.4426h12.087v20.5576h12.087l-18.121 21.1668z" fill="url(#paint0_linear)"/>
  </g>
  <defs>
    <linearGradient id="paint0_linear" x1="79.9999" y1="41.3027" x2="79.9999" y2="118.697" gradientUnits="userSpaceOnUse">
      <stop stop-color="#20F"/>
      <stop offset="1" stop-color="#9E00FF"/>
    </linearGradient>
    <clipPath id="clip0">
      <path fill="#fff" transform="translate(16 16)" d="M0 0h128v128H0z"/>
    </clipPath>
  </defs>
</svg>
