<svg viewBox="0 0 48 48" height="48" width="48" xmlns="http://www.w3.org/2000/svg"><g transform="matrix(0.48,0,0,0.48,0,0)"><path d="M10.000 50.000 A40.000 40.000 0 1 0 90.000 50.000 A40.000 40.000 0 1 0 10.000 50.000 Z" fill="#C7F0FF" stroke="#C7F0FF"></path><path d="M19.614 26.994 L75.717 26.994 L75.717 64.630 L19.614 64.630 Z" fill="#009fd9"></path><path d="M38.432,54.366a1.711,1.711,0,0,1-1.711-1.711,1.71,1.71,0,0,0-1.711-1.71H33.3a3.422,3.422,0,0,1,0-6.843H35.01a1.71,1.71,0,0,0,1.711-1.711,1.711,1.711,0,0,1,1.711-1.711h1.71a1.711,1.711,0,0,0,1.711-1.711V33.837a1.71,1.71,0,0,0-1.711-1.71,5.133,5.133,0,0,1-5.132-5.133H22.465a2.851,2.851,0,0,0-2.851,2.851V44.1a3.421,3.421,0,0,0,3.421,3.421,1.711,1.711,0,0,1,1.711,1.711v3.421a1.71,1.71,0,0,0,1.711,1.711,1.711,1.711,0,0,1,1.711,1.711v1.711a3.421,3.421,0,0,0,3.42,3.421A3.421,3.421,0,0,1,35.01,64.63H45.275V61.209A6.843,6.843,0,0,0,38.432,54.366Z" fill="#80ddff"></path><path d="M72.866,26.994H62.03a1.71,1.71,0,0,0-1.709,1.71,4.277,4.277,0,0,1-4.277,4.277,2.568,2.568,0,0,0-2.567,2.567,6.844,6.844,0,0,0,6.844,6.843A1.71,1.71,0,0,1,62.03,44.1v.855A2.567,2.567,0,0,0,64.6,47.523a2.566,2.566,0,0,1,2.566,2.566,4.276,4.276,0,0,0,4.276,4.277h4.277V29.845A2.851,2.851,0,0,0,72.866,26.994Z" fill="#80ddff"></path><path d="M72.866,26.994h-50.4a2.851,2.851,0,0,0-2.851,2.851v4.277a2.851,2.851,0,0,1,2.851-2.851h50.4a2.851,2.851,0,0,1,2.851,2.851V29.845A2.851,2.851,0,0,0,72.866,26.994Z" fill="#00b8f0"></path><path d="M58.61,64.63h0A5.132,5.132,0,0,0,53.477,59.5h0a1.711,1.711,0,0,1-1.71-1.711h0A5.132,5.132,0,0,1,56.9,52.655h1.453a8.812,8.812,0,0,1,7.17,3.69h0a8.805,8.805,0,0,1,1.642,5.122V64.63Z" fill="#80ddff"></path><path d="M26.457 42.391 L36.722 42.391 L36.722 49.234 L26.457 49.234 Z" fill="#C7F0FF"></path><path d="M27.882,49.234h.547l6.843-6.843h-7.39a1.425,1.425,0,0,0-1.425,1.426v3.991A1.425,1.425,0,0,0,27.882,49.234Z" fill="#C7F0FF"></path><path d="M26.457 42.391 L36.722 42.391 L36.722 49.234 L26.457 49.234 Z" fill="none" stroke="#45413c" stroke-linecap="round" stroke-linejoin="round"></path><path d="M26.457 32.127 L55.188 32.127 L55.188 38.970 L26.457 38.970 Z" fill="#C7F0FF"></path><path d="M28.168 56.077L28.168 59.499" fill="none" stroke="#45413c" stroke-linecap="round" stroke-linejoin="round"></path><path d="M31.588 56.077L31.588 59.499" fill="none" stroke="#45413c" stroke-linecap="round" stroke-linejoin="round"></path><path d="M35.01 56.077L35.01 59.499" fill="none" stroke="#45413c" stroke-linecap="round" stroke-linejoin="round"></path><path d="M38.432 56.077L38.432 59.499" fill="none" stroke="#45413c" stroke-linecap="round" stroke-linejoin="round"></path><path d="M45.275 56.077L45.275 59.499" fill="none" stroke="#45413c" stroke-linecap="round" stroke-linejoin="round"></path><path d="M48.696 56.077L48.696 59.499" fill="none" stroke="#45413c" stroke-linecap="round" stroke-linejoin="round"></path><path d="M51.767 56.077L51.767 59.499" fill="none" stroke="#45413c" stroke-linecap="round" stroke-linejoin="round"></path><path d="M58.61 56.077L58.61 59.499" fill="none" stroke="#45413c" stroke-linecap="round" stroke-linejoin="round"></path><path d="M62.03 56.077L62.03 59.499" fill="none" stroke="#45413c" stroke-linecap="round" stroke-linejoin="round"></path><path d="M65.453 56.077L65.453 59.499" fill="none" stroke="#45413c" stroke-linecap="round" stroke-linejoin="round"></path><path d="M68.875 56.077L68.875 59.499" fill="none" stroke="#45413c" stroke-linecap="round" stroke-linejoin="round"></path><path d="M26.457 32.127 L55.188 32.127 L55.188 38.970 L26.457 38.970 Z" fill="none" stroke="#45413c" stroke-linecap="round" stroke-linejoin="round"></path><path d="M62.030 45.812 A4.277 4.277 0 1 0 70.584 45.812 A4.277 4.277 0 1 0 62.030 45.812 Z" fill="#ffe500"></path><path d="M57.753 45.812 A4.277 4.277 0 1 0 66.307 45.812 A4.277 4.277 0 1 0 57.753 45.812 Z" fill="#ff6242"></path><path d="M60.321 45.812L68.875 45.812" fill="none" stroke="#f0f0f0" stroke-linecap="round" stroke-linejoin="round"></path><path d="M75.717,34.122a2.851,2.851,0,0,0-2.851-2.851h-13.4a4.261,4.261,0,0,0,.856-2.567,1.71,1.71,0,0,1,1.709-1.71H72.866a2.851,2.851,0,0,1,2.851,2.851v4.277Z" fill="#b8ecff"></path><path d="M37.3,31.271H22.465a2.851,2.851,0,0,0-2.851,2.851V29.845a2.851,2.851,0,0,1,2.851-2.851H35.01A5.128,5.128,0,0,0,37.3,31.271Z" fill="#b8ecff"></path><path d="M19.614 26.994 L75.717 26.994 L75.717 64.630 L19.614 64.630 Z" fill="none" stroke="#45413c" stroke-linecap="round" stroke-linejoin="round"></path><path d="M19.756 65.868 A26.25 1.414 0 1 0 72.256 65.868 A26.25 1.414 0 1 0 19.756 65.868 Z" fill="#45413c" opacity=".15"></path><path d="M63.331 79.868 A11.55 1.414 0 1 0 86.431 79.868 A11.55 1.414 0 1 0 63.331 79.868 Z" fill="#45413c" opacity=".15"></path><path d="M85.369,50.908V63.2h-4.3v-12.3a6.148,6.148,0,0,0-12.3,0V63.2h-4.3v-12.3a10.451,10.451,0,1,1,20.9,0Z" fill="#C7F0FF"></path><path d="M74.918,40.457a10.458,10.458,0,0,0-10.45,10.451v2.459a10.451,10.451,0,1,1,20.9,0V50.908A10.458,10.458,0,0,0,74.918,40.457Z" fill="#C7F0FF"></path><path d="M85.369,50.908V63.2h-4.3v-12.3a6.148,6.148,0,0,0-12.3,0V63.2h-4.3v-12.3a10.451,10.451,0,1,1,20.9,0Z" fill="none" stroke="#45413c" stroke-linecap="round" stroke-linejoin="round"></path><path d="M62.009 55.211 L87.829 55.211 L87.829 74.057 L62.009 74.057 Z" fill="#ffe500"></path><path d="M77.377,62.588a2.459,2.459,0,1,0-3.688,2.119v2.8a1.23,1.23,0,1,0,2.459,0v-2.8A2.451,2.451,0,0,0,77.377,62.588Z" fill="#656769" stroke="#45413c" stroke-linecap="round" stroke-linejoin="round"></path><path d="M87.828,61.359A2.459,2.459,0,0,0,85.369,58.9h-20.9a2.459,2.459,0,0,0-2.459,2.459V57.311a2.1,2.1,0,0,1,2.1-2.1H85.728a2.1,2.1,0,0,1,2.1,2.1Z" fill="#fff48c"></path><path d="M62.009 55.211 L87.829 55.211 L87.829 74.057 L62.009 74.057 Z" fill="none" stroke="#45413c" stroke-linecap="round" stroke-linejoin="round"></path></g></svg>