<svg viewBox="0 0 48 48" height="48" width="48" xmlns="http://www.w3.org/2000/svg"><g transform="matrix(0.48,0,0,0.48,0,0)"><path d="M10.213 51.750 A40.000 40.000 0 1 0 90.213 51.750 A40.000 40.000 0 1 0 10.213 51.750 Z" fill="#c7f0ff"></path><path d="M13.776,68.25a40,40,0,0,0,72.873,0Z" fill="#daedf7"></path><path d="M6.713 68.25L9.213 68.25" fill="none" stroke="#45413c" stroke-linecap="round" stroke-linejoin="round"></path><path d="M11.213 68.25L89.213 68.25" fill="none" stroke="#45413c" stroke-linecap="round" stroke-linejoin="round"></path><path d="M6.713 68.359L9.213 68.359" fill="none" stroke="#45413c" stroke-linecap="round" stroke-linejoin="round"></path><path d="M91.213 68.25L93.713 68.25" fill="none" stroke="#45413c" stroke-linecap="round" stroke-linejoin="round"></path><path d="M34.713,23.25a1,1,0,0,1,1-1h56a1,1,0,0,1,1,1v45h-58Z" fill="#8ca4b8" stroke="#45413c" stroke-linecap="round" stroke-linejoin="round"></path><path d="M36.713 24.25H90.713V35.25H36.713z" fill="#ccfff3" stroke="#45413c" stroke-linecap="round" stroke-linejoin="round"></path><path d="M36.713 38.25H90.713V49.25H36.713z" fill="#ccfff3" stroke="#45413c" stroke-linecap="round" stroke-linejoin="round"></path><path d="M36.713 52.25H90.713V63.25H36.713z" fill="#627b8c" stroke="#45413c" stroke-linecap="round" stroke-linejoin="round"></path><path d="M36.713 32.25H90.713V35.25H36.713z" fill="#4aeff7" stroke="#45413c" stroke-linecap="round" stroke-linejoin="round"></path><path d="M36.713 46.25H90.713V49.25H36.713z" fill="#4aeff7" stroke="#45413c" stroke-linecap="round" stroke-linejoin="round"></path><path d="M36.713 60.25H90.713V63.25H36.713z" fill="#4aeff7" stroke="#45413c" stroke-linecap="round" stroke-linejoin="round"></path><path d="M46.213,31.5V29.427a.751.751,0,0,0-.08-.335l-.841-1.684a.75.75,0,0,1-.079-.335V26a.75.75,0,0,0-.75-.75h0a.75.75,0,0,0-.75.75v1.073a.751.751,0,0,1-.08.335l-.841,1.684a.75.75,0,0,0-.079.335V31.5a.75.75,0,0,0,.75.75h2A.75.75,0,0,0,46.213,31.5Z" fill="#9ceb60" stroke="#45413c" stroke-linecap="round" stroke-linejoin="round"></path><path d="M53.213,31.5V29.427a.751.751,0,0,0-.08-.335l-.841-1.684a.75.75,0,0,1-.079-.335V26a.75.75,0,0,0-.75-.75h0a.75.75,0,0,0-.75.75v1.073a.751.751,0,0,1-.08.335l-.841,1.684a.75.75,0,0,0-.079.335V31.5a.75.75,0,0,0,.75.75h2A.75.75,0,0,0,53.213,31.5Z" fill="#9ceb60" stroke="#45413c" stroke-linecap="round" stroke-linejoin="round"></path><path d="M67.713,31.5V29.427a.751.751,0,0,0-.08-.335l-.841-1.684a.75.75,0,0,1-.079-.335V26a.75.75,0,0,0-.75-.75h0a.75.75,0,0,0-.75.75v1.073a.751.751,0,0,1-.08.335l-.841,1.684a.75.75,0,0,0-.079.335V31.5a.75.75,0,0,0,.75.75h2A.75.75,0,0,0,67.713,31.5Z" fill="#9ceb60" stroke="#45413c" stroke-linecap="round" stroke-linejoin="round"></path><path d="M71.213,31.5V29.427a.751.751,0,0,0-.08-.335l-.841-1.684a.75.75,0,0,1-.079-.335V26a.75.75,0,0,0-.75-.75h0a.75.75,0,0,0-.75.75v1.073a.751.751,0,0,1-.08.335l-.841,1.684a.75.75,0,0,0-.079.335V31.5a.75.75,0,0,0,.75.75h2A.75.75,0,0,0,71.213,31.5Z" fill="#9ceb60" stroke="#45413c" stroke-linecap="round" stroke-linejoin="round"></path><path d="M82.213,31.5V29.427a.751.751,0,0,0-.08-.335l-.841-1.684a.75.75,0,0,1-.079-.335V26a.75.75,0,0,0-.75-.75h0a.75.75,0,0,0-.75.75v1.073a.751.751,0,0,1-.08.335l-.841,1.684a.75.75,0,0,0-.079.335V31.5a.75.75,0,0,0,.75.75h2A.75.75,0,0,0,82.213,31.5Z" fill="#9ceb60" stroke="#45413c" stroke-linecap="round" stroke-linejoin="round"></path><path d="M85.713,31.5V29.427a.751.751,0,0,0-.08-.335l-.841-1.684a.75.75,0,0,1-.079-.335V26a.75.75,0,0,0-.75-.75h0a.75.75,0,0,0-.75.75v1.073a.751.751,0,0,1-.08.335l-.841,1.684a.75.75,0,0,0-.079.335V31.5a.75.75,0,0,0,.75.75h2A.75.75,0,0,0,85.713,31.5Z" fill="#9ceb60" stroke="#45413c" stroke-linecap="round" stroke-linejoin="round"></path><path d="M64.213,31.5V29.427a.751.751,0,0,0-.08-.335l-.841-1.684a.75.75,0,0,1-.079-.335V26a.75.75,0,0,0-.75-.75h0a.75.75,0,0,0-.75.75v1.073a.751.751,0,0,1-.08.335l-.841,1.684a.75.75,0,0,0-.079.335V31.5a.75.75,0,0,0,.75.75h2A.75.75,0,0,0,64.213,31.5Z" fill="#9ceb60" stroke="#45413c" stroke-linecap="round" stroke-linejoin="round"></path><path d="M48.213,45.5V43.427a.751.751,0,0,0-.08-.335l-.841-1.684a.75.75,0,0,1-.079-.335V40a.75.75,0,0,0-.75-.75h0a.75.75,0,0,0-.75.75v1.073a.751.751,0,0,1-.08.335l-.841,1.684a.75.75,0,0,0-.079.335V45.5a.75.75,0,0,0,.75.75h2A.75.75,0,0,0,48.213,45.5Z" fill="#9ceb60" stroke="#45413c" stroke-linecap="round" stroke-linejoin="round"></path><path d="M54.713,45.5V43.427a.751.751,0,0,0-.08-.335l-.841-1.684a.75.75,0,0,1-.079-.335V40a.75.75,0,0,0-.75-.75h0a.75.75,0,0,0-.75.75v1.073a.751.751,0,0,1-.08.335l-.841,1.684a.75.75,0,0,0-.079.335V45.5a.75.75,0,0,0,.75.75h2A.75.75,0,0,0,54.713,45.5Z" fill="#9ceb60" stroke="#45413c" stroke-linecap="round" stroke-linejoin="round"></path><path d="M70.213,45.5V43.427a.751.751,0,0,0-.08-.335l-.841-1.684a.75.75,0,0,1-.079-.335V40a.75.75,0,0,0-.75-.75h0a.75.75,0,0,0-.75.75v1.073a.751.751,0,0,1-.08.335l-.841,1.684a.75.75,0,0,0-.079.335V45.5a.75.75,0,0,0,.75.75h2A.75.75,0,0,0,70.213,45.5Z" fill="#9ceb60" stroke="#45413c" stroke-linecap="round" stroke-linejoin="round"></path><path d="M73.713,45.5V43.427a.751.751,0,0,0-.08-.335l-.841-1.684a.75.75,0,0,1-.079-.335V40a.75.75,0,0,0-.75-.75h0a.75.75,0,0,0-.75.75v1.073a.751.751,0,0,1-.08.335l-.841,1.684a.75.75,0,0,0-.079.335V45.5a.75.75,0,0,0,.75.75h2A.75.75,0,0,0,73.713,45.5Z" fill="#9ceb60" stroke="#45413c" stroke-linecap="round" stroke-linejoin="round"></path><path d="M82.213,45.5V43.427a.751.751,0,0,0-.08-.335l-.841-1.684a.75.75,0,0,1-.079-.335V40a.75.75,0,0,0-.75-.75h0a.75.75,0,0,0-.75.75v1.073a.751.751,0,0,1-.08.335l-.841,1.684a.75.75,0,0,0-.079.335V45.5a.75.75,0,0,0,.75.75h2A.75.75,0,0,0,82.213,45.5Z" fill="#9ceb60" stroke="#45413c" stroke-linecap="round" stroke-linejoin="round"></path><path d="M77.213,45.5V43.427a.751.751,0,0,0-.08-.335l-.841-1.684a.75.75,0,0,1-.079-.335V40a.75.75,0,0,0-.75-.75h0a.75.75,0,0,0-.75.75v1.073a.751.751,0,0,1-.08.335l-.841,1.684a.75.75,0,0,0-.079.335V45.5a.75.75,0,0,0,.75.75h2A.75.75,0,0,0,77.213,45.5Z" fill="#9ceb60" stroke="#45413c" stroke-linecap="round" stroke-linejoin="round"></path><path d="M88.713,45.5V43.427a.751.751,0,0,0-.08-.335l-.841-1.684a.75.75,0,0,1-.079-.335V40a.75.75,0,0,0-.75-.75h0a.75.75,0,0,0-.75.75v1.073a.751.751,0,0,1-.08.335l-.841,1.684a.75.75,0,0,0-.079.335V45.5a.75.75,0,0,0,.75.75h2A.75.75,0,0,0,88.713,45.5Z" fill="#9ceb60" stroke="#45413c" stroke-linecap="round" stroke-linejoin="round"></path><path d="M58.213,45.5V43.427a.751.751,0,0,0-.08-.335l-.841-1.684a.75.75,0,0,1-.079-.335V40a.75.75,0,0,0-.75-.75h0a.75.75,0,0,0-.75.75v1.073a.751.751,0,0,1-.08.335l-.841,1.684a.75.75,0,0,0-.079.335V45.5a.75.75,0,0,0,.75.75h2A.75.75,0,0,0,58.213,45.5Z" fill="#9ceb60" stroke="#45413c" stroke-linecap="round" stroke-linejoin="round"></path><path d="M64.213,45.5V43.427a.751.751,0,0,0-.08-.335l-.841-1.684a.75.75,0,0,1-.079-.335V40a.75.75,0,0,0-.75-.75h0a.75.75,0,0,0-.75.75v1.073a.751.751,0,0,1-.08.335l-.841,1.684a.75.75,0,0,0-.079.335V45.5a.75.75,0,0,0,.75.75h2A.75.75,0,0,0,64.213,45.5Z" fill="#9ceb60" stroke="#45413c" stroke-linecap="round" stroke-linejoin="round"></path><path d="M42.713,59.5V57.427a.751.751,0,0,0-.08-.335l-.841-1.684a.75.75,0,0,1-.079-.335V54a.75.75,0,0,0-.75-.75h0a.75.75,0,0,0-.75.75v1.073a.751.751,0,0,1-.08.335l-.841,1.684a.75.75,0,0,0-.079.335V59.5a.75.75,0,0,0,.75.75h2A.75.75,0,0,0,42.713,59.5Z" fill="#9ceb60" stroke="#45413c" stroke-linecap="round" stroke-linejoin="round"></path><path d="M46.213,59.5V57.427a.751.751,0,0,0-.08-.335l-.841-1.684a.75.75,0,0,1-.079-.335V54a.75.75,0,0,0-.75-.75h0a.75.75,0,0,0-.75.75v1.073a.751.751,0,0,1-.08.335l-.841,1.684a.75.75,0,0,0-.079.335V59.5a.75.75,0,0,0,.75.75h2A.75.75,0,0,0,46.213,59.5Z" fill="#9ceb60" stroke="#45413c" stroke-linecap="round" stroke-linejoin="round"></path><path d="M51.213,59.5V57.427a.751.751,0,0,0-.08-.335l-.841-1.684a.75.75,0,0,1-.079-.335V54a.75.75,0,0,0-.75-.75h0a.75.75,0,0,0-.75.75v1.073a.751.751,0,0,1-.08.335l-.841,1.684a.75.75,0,0,0-.079.335V59.5a.75.75,0,0,0,.75.75h2A.75.75,0,0,0,51.213,59.5Z" fill="#9ceb60" stroke="#45413c" stroke-linecap="round" stroke-linejoin="round"></path><path d="M54.713,59.5V57.427a.751.751,0,0,0-.08-.335l-.841-1.684a.75.75,0,0,1-.079-.335V54a.75.75,0,0,0-.75-.75h0a.75.75,0,0,0-.75.75v1.073a.751.751,0,0,1-.08.335l-.841,1.684a.75.75,0,0,0-.079.335V59.5a.75.75,0,0,0,.75.75h2A.75.75,0,0,0,54.713,59.5Z" fill="#9ceb60" stroke="#45413c" stroke-linecap="round" stroke-linejoin="round"></path><path d="M67.713,59.5V57.427a.751.751,0,0,0-.08-.335l-.841-1.684a.75.75,0,0,1-.079-.335V54a.75.75,0,0,0-.75-.75h0a.75.75,0,0,0-.75.75v1.073a.751.751,0,0,1-.08.335l-.841,1.684a.75.75,0,0,0-.079.335V59.5a.75.75,0,0,0,.75.75h2A.75.75,0,0,0,67.713,59.5Z" fill="#9ceb60" stroke="#45413c" stroke-linecap="round" stroke-linejoin="round"></path><path d="M72.963,60.25a.75.75,0,0,0,.75-.75V57.427a.751.751,0,0,0-.08-.335l-.841-1.684a.75.75,0,0,1-.079-.335V54a.75.75,0,0,0-.75-.75h0a.75.75,0,0,0-.75.75v1.073a.751.751,0,0,1-.08.335l-.841,1.684a.75.75,0,0,0-.079.335V59.5a.75.75,0,0,0,.75.75Z" fill="#9ceb60" stroke="#45413c" stroke-linecap="round" stroke-linejoin="round"></path><path d="M83.713,59.5V57.427a.751.751,0,0,0-.08-.335l-.841-1.684a.75.75,0,0,1-.079-.335V54a.75.75,0,0,0-.75-.75h0a.75.75,0,0,0-.75.75v1.073a.751.751,0,0,1-.08.335l-.841,1.684a.75.75,0,0,0-.079.335V59.5a.75.75,0,0,0,.75.75h2A.75.75,0,0,0,83.713,59.5Z" fill="#9ceb60" stroke="#45413c" stroke-linecap="round" stroke-linejoin="round"></path><path d="M76.463,60.25a.75.75,0,0,0,.75-.75V57.427a.751.751,0,0,0-.08-.335l-.841-1.684a.75.75,0,0,1-.079-.335V54a.75.75,0,0,0-.75-.75h0a.75.75,0,0,0-.75.75v1.073a.751.751,0,0,1-.08.335l-.841,1.684a.75.75,0,0,0-.079.335V59.5a.75.75,0,0,0,.75.75Z" fill="#9ceb60" stroke="#45413c" stroke-linecap="round" stroke-linejoin="round"></path><path d="M87.213,59.5V57.427a.751.751,0,0,0-.08-.335l-.841-1.684a.75.75,0,0,1-.079-.335V54a.75.75,0,0,0-.75-.75h0a.75.75,0,0,0-.75.75v1.073a.751.751,0,0,1-.08.335l-.841,1.684a.75.75,0,0,0-.079.335V59.5a.75.75,0,0,0,.75.75h2A.75.75,0,0,0,87.213,59.5Z" fill="#9ceb60" stroke="#45413c" stroke-linecap="round" stroke-linejoin="round"></path><path d="M58.213,59.5V57.427a.751.751,0,0,0-.08-.335l-.841-1.684a.75.75,0,0,1-.079-.335V54a.75.75,0,0,0-.75-.75h0a.75.75,0,0,0-.75.75v1.073a.751.751,0,0,1-.08.335l-.841,1.684a.75.75,0,0,0-.079.335V59.5a.75.75,0,0,0,.75.75h2A.75.75,0,0,0,58.213,59.5Z" fill="#9ceb60" stroke="#45413c" stroke-linecap="round" stroke-linejoin="round"></path><path d="M64.213,59.5V57.427a.751.751,0,0,0-.08-.335l-.841-1.684a.75.75,0,0,1-.079-.335V54a.75.75,0,0,0-.75-.75h0a.75.75,0,0,0-.75.75v1.073a.751.751,0,0,1-.08.335l-.841,1.684a.75.75,0,0,0-.079.335V59.5a.75.75,0,0,0,.75.75h2A.75.75,0,0,0,64.213,59.5Z" fill="#9ceb60" stroke="#45413c" stroke-linecap="round" stroke-linejoin="round"></path><path d="M72.213 18.250 L77.213 18.250 L77.213 27.250 L72.213 27.250 Z" fill="#b8ecff"></path><path d="M76.213,18.25h-3a1,1,0,0,0-1,1v2.5a1,1,0,0,1,1-1h3a1,1,0,0,1,1,1v-2.5A1,1,0,0,0,76.213,18.25Z" fill="#e5f8ff"></path><path d="M72.213 18.250 L77.213 18.250 L77.213 27.250 L72.213 27.250 Z" fill="none" stroke="#45413c" stroke-linecap="round" stroke-linejoin="round"></path><path d="M74.713 18.25L74.713 8.25" fill="none" stroke="#45413c" stroke-linecap="round" stroke-linejoin="round"></path><path d="M73.213 16.25L76.213 16.25" fill="none" stroke="#45413c" stroke-linecap="round" stroke-linejoin="round"></path><path d="M54.213 18.250 L59.213 18.250 L59.213 27.250 L54.213 27.250 Z" fill="#b8ecff"></path><path d="M58.213,18.25h-3a1,1,0,0,0-1,1v2.5a1,1,0,0,1,1-1h3a1,1,0,0,1,1,1v-2.5A1,1,0,0,0,58.213,18.25Z" fill="#e5f8ff"></path><path d="M54.213 18.250 L59.213 18.250 L59.213 27.250 L54.213 27.250 Z" fill="none" stroke="#45413c" stroke-linecap="round" stroke-linejoin="round"></path><path d="M56.713 18.25L56.713 8.25" fill="none" stroke="#45413c" stroke-linecap="round" stroke-linejoin="round"></path><path d="M55.213 16.25L58.213 16.25" fill="none" stroke="#45413c" stroke-linecap="round" stroke-linejoin="round"></path><path d="M36.213 18.250 L41.213 18.250 L41.213 27.250 L36.213 27.250 Z" fill="#b8ecff"></path><path d="M40.213,18.25h-3a1,1,0,0,0-1,1v2.5a1,1,0,0,1,1-1h3a1,1,0,0,1,1,1v-2.5A1,1,0,0,0,40.213,18.25Z" fill="#e5f8ff"></path><path d="M36.213 18.250 L41.213 18.250 L41.213 27.250 L36.213 27.250 Z" fill="none" stroke="#45413c" stroke-linecap="round" stroke-linejoin="round"></path><path d="M38.713 18.25L38.713 8.25" fill="none" stroke="#45413c" stroke-linecap="round" stroke-linejoin="round"></path><path d="M37.213 16.25L40.213 16.25" fill="none" stroke="#45413c" stroke-linecap="round" stroke-linejoin="round"></path><path d="M29.713 51.25H92.713V68.25H29.713z" fill="#009fd9" stroke="#45413c" stroke-linecap="round" stroke-linejoin="round"></path><path d="M29.713,51.25h63v-3H27.858a.927.927,0,0,0-.829,1.342h0A3,3,0,0,0,29.713,51.25Z" fill="#adc4d9" stroke="#45413c" stroke-linecap="round" stroke-linejoin="round"></path><path d="M29.713 53.25H92.713V56.25H29.713z" fill="#4acfff" stroke="#45413c" stroke-linecap="round" stroke-linejoin="round"></path><path d="M29.713 58.25H92.713V61.25H29.713z" fill="#4acfff" stroke="#45413c" stroke-linecap="round" stroke-linejoin="round"></path><path d="M29.713 63.25H92.713V66.25H29.713z" fill="#4acfff" stroke="#45413c" stroke-linecap="round" stroke-linejoin="round"></path><path d="M59.713 51.25H62.713V68.25H59.713z" fill="#adc4d9" stroke="#45413c" stroke-linecap="round" stroke-linejoin="round"></path><path d="M89.713 51.25H92.713V68.25H89.713z" fill="#adc4d9" stroke="#45413c" stroke-linecap="round" stroke-linejoin="round"></path><path d="M29.713 51.25H32.713V68.25H29.713z" fill="#adc4d9" stroke="#45413c" stroke-linecap="round" stroke-linejoin="round"></path><path d="M15.488 58.1H18.938V82.25H15.488z" fill="#adc4d9"></path><path d="M15.488 58.1H18.938V60.975H15.488z" fill="#8ca4b8"></path><path d="M15.488 58.1H18.938V82.25H15.488z" fill="none" stroke="#45413c" stroke-linecap="round" stroke-linejoin="round"></path><path d="M6.287 54.650 L28.137 54.650 L28.137 58.100 L6.287 58.100 Z" fill="#00b8f0"></path><path d="M7.438,58.1h7.474l3.451-3.45H7.438A1.15,1.15,0,0,0,6.287,55.8v1.15A1.15,1.15,0,0,0,7.438,58.1Z" fill="#4acfff"></path><path d="M6.287 54.650 L28.137 54.650 L28.137 58.100 L6.287 58.100 Z" fill="none" stroke="#45413c" stroke-linecap="round" stroke-linejoin="round"></path><path d="M20.088,79.95h-5.75a1.15,1.15,0,0,0-1.15,1.15v1.15h8.05V81.1A1.15,1.15,0,0,0,20.088,79.95Z" fill="#627b8c" stroke="#45413c" stroke-linecap="round" stroke-linejoin="round"></path><path d="M21.850 88.778 A18.172 2.097 0 1 0 58.194 88.778 A18.172 2.097 0 1 0 21.850 88.778 Z" fill="#45413c" opacity=".15"></path><path d="M46.312,83.885h.7a4.17,4.17,0,0,1,2.1.562V62.219H30.936V84.447a4.173,4.173,0,0,1,2.1-.562h.7a4.191,4.191,0,0,1,3.573,2l.543-15.277a2.176,2.176,0,0,1,4.349,0l.543,15.277A4.191,4.191,0,0,1,46.312,83.885Z" fill="#8ca4b8"></path><path d="M30.936 62.219H49.108000000000004V65.714H30.936z" fill="#627b8c"></path><path d="M46.312,83.885h.7a4.17,4.17,0,0,1,2.1.562V62.219H30.936V84.447a4.173,4.173,0,0,1,2.1-.562h.7a4.191,4.191,0,0,1,3.573,2l.543-15.277a2.176,2.176,0,0,1,4.349,0l.543,15.277A4.191,4.191,0,0,1,46.312,83.885Z" fill="none" stroke="#45413c" stroke-linecap="round" stroke-linejoin="round"></path><path d="M36.153,88.079a1.4,1.4,0,0,0,1.211-2.1,4.193,4.193,0,0,0-3.633-2.1h-.7a4.192,4.192,0,0,0-3.632,2.1,1.4,1.4,0,0,0,1.211,2.1Z" fill="#ffffff" stroke="#45413c" stroke-linecap="round" stroke-linejoin="round"></path><path d="M49.107,66.063a2.447,2.447,0,0,0,4.893,0V51.735H49.107Z" fill="#ffda8f"></path><path d="M49.107 51.735H53.999V54.531H49.107z" fill="#ffbe3d"></path><path d="M49.107,66.063a2.447,2.447,0,0,0,4.893,0V51.735H49.107Z" fill="none" stroke="#45413c" stroke-linecap="round" stroke-linejoin="round"></path><path d="M49.107,51.735l0,10.484H30.936V51.735H26.043v-1.4a13.979,13.979,0,1,1,27.957,0v1.4Z" fill="#e5f8ff"></path><path d="M40.022,36.359A13.979,13.979,0,0,0,26.043,50.338v1.4h.03a.308.308,0,0,0,.3-.242,13.981,13.981,0,0,1,27.293,0,.308.308,0,0,0,.3.242H54v-1.4A13.979,13.979,0,0,0,40.022,36.359Z" fill="#ffffff"></path><path d="M27.441,44.275v7.46h2.8V40.363A14.038,14.038,0,0,0,27.441,44.275Z" fill="#00f5bc" stroke="#45413c" stroke-linejoin="round"></path><path d="M49.806,40.363V51.735h2.8v-7.46A14.017,14.017,0,0,0,49.806,40.363Z" fill="#00f5bc" stroke="#45413c" stroke-linejoin="round"></path><path d="M41.01,43.059a1.4,1.4,0,0,1-1.977,0l-.409-.409V62.216h2.795V42.65Z" fill="#00f5bc" stroke="#45413c" stroke-linejoin="round"></path><path d="M46.226,37.842l-2.011,2.012V62.216h2.8V38.244C46.757,38.1,46.489,37.974,46.226,37.842Z" fill="#00f5bc" stroke="#45413c" stroke-linejoin="round"></path><path d="M33.817,37.842c-.263.132-.531.256-.785.4V62.216h2.8V39.854Z" fill="#00f5bc" stroke="#45413c" stroke-linejoin="round"></path><path d="M49.108 55.929H49.108999999999995V62.219H49.108z" fill="#ffffff"></path><path d="M49.107,51.735l0,10.484H30.936V51.735H26.043v-1.4a13.979,13.979,0,1,1,27.957,0v1.4Z" fill="none" stroke="#45413c" stroke-linecap="round" stroke-linejoin="round"></path><path d="M43.936,36.931a1.215,1.215,0,0,1-.879-1.169l0-4.806H37l0,4.8a1.214,1.214,0,0,1-.88,1.167,13.33,13.33,0,0,0-2.319.9l5.232,5.232a1.4,1.4,0,0,0,1.977,0l5.232-5.232A13.264,13.264,0,0,0,43.936,36.931Z" fill="#ffda8f" stroke="#45413c" stroke-linecap="round" stroke-linejoin="round"></path><path d="M49.107 47.542L49.107 51.735" fill="none" stroke="#45413c" stroke-linecap="round" stroke-linejoin="round"></path><path d="M30.936 47.542L30.936 51.735" fill="none" stroke="#45413c" stroke-linecap="round" stroke-linejoin="round"></path><path d="M30.936,51.735a7.339,7.339,0,1,1-14.677,0,2.446,2.446,0,0,1,4.892,0,2.446,2.446,0,1,0,4.892,0Z" fill="#ffda8f" stroke="#45413c" stroke-linecap="round" stroke-linejoin="round"></path><path d="M49.432,88.079a1.4,1.4,0,0,0,1.211-2.1,4.192,4.192,0,0,0-3.632-2.1h-.7a4.194,4.194,0,0,0-3.633,2.1,1.4,1.4,0,0,0,1.211,2.1Z" fill="#ffffff" stroke="#45413c" stroke-linecap="round" stroke-linejoin="round"></path><path d="M26.344,48.241h4.592v3.494H26.344a1,1,0,0,1-1-1V49.241A1,1,0,0,1,26.344,48.241Z" fill="#e5f8ff" stroke="#45413c" stroke-linecap="round" stroke-linejoin="round"></path><path d="M25.043,55.929H18.656a1,1,0,0,1-1-1V43.348h8.387V54.929A1,1,0,0,1,25.043,55.929Z" fill="#b8ecff" stroke="#45413c" stroke-linecap="round" stroke-linejoin="round"></path><path d="M25.043,55.929H18.656a1,1,0,0,1-1-1v-5.29h8.387v5.29A1,1,0,0,1,25.043,55.929Z" fill="#ffe500" stroke="#45413c" stroke-linecap="round" stroke-linejoin="round"></path><path d="M26.043,46.843v2.8H17.656v-2.8a1.4,1.4,0,0,1,2.8,0h2.8a1.4,1.4,0,1,1,2.795,0Z" fill="#ffffffef2" stroke="#45413c" stroke-linecap="round" stroke-linejoin="round"></path><path d="M17.713,55.1a3.214,3.214,0,0,0,4.028-2.672,3.362,3.362,0,0,0-2.552-3.586l-.8-.218a2.141,2.141,0,0,0-2.615,1.462l-.606,2.054a2.142,2.142,0,0,0,1.493,2.673Z" fill="#ffda8f" stroke="#45413c" stroke-linecap="round" stroke-linejoin="round"></path><path d="M53.7,51.735H49.107V48.241H53.7a1,1,0,0,1,1,1v1.494A1,1,0,0,1,53.7,51.735Z" fill="#e5f8ff" stroke="#45413c" stroke-linecap="round" stroke-linejoin="round"></path><path d="M49.806,26.757a1.723,1.723,0,0,0-1.4-1.677V23.961a8.387,8.387,0,1,0-16.773,0V25.08a1.712,1.712,0,0,0,.176,3.389,8.387,8.387,0,0,0,16.421,0A1.73,1.73,0,0,0,49.806,26.757Z" fill="#ffda8f" stroke="#45413c" stroke-linecap="round" stroke-linejoin="round"></path><path d="M34.431 27.805 A1.048 1.048 0 1 0 36.527 27.805 A1.048 1.048 0 1 0 34.431 27.805 Z" fill="#ffbe3d"></path><path d="M43.516 27.805 A1.048 1.048 0 1 0 45.612 27.805 A1.048 1.048 0 1 0 43.516 27.805 Z" fill="#ffbe3d"></path><path d="M37.925,30.316a3.781,3.781,0,0,0,4.193,0" fill="none" stroke="#45413c" stroke-linecap="round" stroke-linejoin="round"></path><path d="M31.635,23.961v.767h.007a2.334,2.334,0,0,0,2.3-2.323,1.659,1.659,0,0,1,1.946-1.37,22.724,22.724,0,0,0,2.3.321,3.9,3.9,0,0,1-1.652-2.985,4.356,4.356,0,0,1,.582-2.265l-.007,0A8.382,8.382,0,0,0,31.635,23.961Z" fill="#947063" stroke="#45413c" stroke-linecap="round" stroke-linejoin="round"></path><path d="M48.135,25.729a.713.713,0,0,0,1.186-.461c1.166-11.567-8.6-11.091-8.6-11.091a4.028,4.028,0,0,0-4.193,4.193c0,1.93,2.007,3.826,3.495,3.495s3.553-1.22,2.854,1.575c0,0,2.737-.07,2.519-2.472A7.943,7.943,0,0,0,48.135,25.729Z" fill="#614b44"></path><path d="M40.72,14.177a4.028,4.028,0,0,0-4.193,4.193,3.259,3.259,0,0,0,.3,1.327l0,0h0a4.057,4.057,0,0,1,3.886-2.53s7.76-.357,8.606,7.783c0,0,.017-.02.027-.029C50.288,13.711,40.72,14.177,40.72,14.177Z" fill="#947063"></path><path d="M48.135,25.729a.713.713,0,0,0,1.186-.461c1.166-11.567-8.6-11.091-8.6-11.091a4.028,4.028,0,0,0-4.193,4.193c0,1.93,2.007,3.826,3.495,3.495s3.553-1.22,2.854,1.575c0,0,2.737-.07,2.519-2.472A7.943,7.943,0,0,0,48.135,25.729Z" fill="none" stroke="#45413c" stroke-linecap="round" stroke-linejoin="round"></path><path d="M36.614,25.184a.989.989,0,0,1,1.4,0" fill="none" stroke="#45413c" stroke-linecap="round" stroke-linejoin="round"></path><path d="M42.206,25.184a.987.987,0,0,1,1.4,0" fill="none" stroke="#45413c" stroke-linecap="round" stroke-linejoin="round"></path></g></svg>