<svg width="112" height="112" fill="none" xmlns="http://www.w3.org/2000/svg">
  <path d="M0 56a56.0003 56.0003 0 0056 56 56.0003 56.0003 0 0056-56A56.0003 56.0003 0 0056 0 56.0003 56.0003 0 000 56z" fill="#C7F0FF"/>
  <path fill-rule="evenodd" clip-rule="evenodd" d="M47.694 36.701h2.7833c1.062 0 1.923.861 1.923 1.9231s-.861 1.9231-1.923 1.9231h-2.8435a1.8853 1.8853 0 01-.1302-.0045 3.4188 3.4188 0 00-3.6335 3.0721v4.6428c0 .0174-.0003.0348-.0007.0522a6.6854 6.6854 0 01-3.523 5.7096l-3.0712 1.7666 3.0715 1.7649a6.692 6.692 0 013.5226 5.7076c.0005.018.0008.036.0008.0541v4.6465a3.4153 3.4153 0 001.1684 2.2481 3.4152 3.4152 0 002.4636.8203 1.9311 1.9311 0 01.1317-.0045h2.8435c1.062 0 1.923.861 1.923 1.9231 0 1.062-.861 1.923-1.923 1.923h-2.7826a7.2614 7.2614 0 01-7.6647-6.6725 1.8967 1.8967 0 01-.0061-.1526v-4.701a2.8464 2.8464 0 00-1.5106-2.4109 1.962 1.962 0 01-.0569-.0315l-5.9978-3.4462a1.923 1.923 0 01-.0007-3.3344l5.9977-3.45a1.7915 1.7915 0 01.0593-.0328 2.8384 2.8384 0 001.509-2.4091v-4.6982c0-.0509.002-.1018.0061-.1525a7.2646 7.2646 0 017.664-6.6764z" fill="url(#paint0_linear)"/>
  <path fill-rule="evenodd" clip-rule="evenodd" d="M67.2902 41.3641a3.4147 3.4147 0 00-2.4644-.8212 1.926 1.926 0 01-.1316.0045h-2.8434c-1.0621 0-1.9231-.861-1.9231-1.9231s.861-1.9231 1.9231-1.9231h2.7826a7.2618 7.2618 0 015.1691 1.7506 7.2616 7.2616 0 012.4957 4.9272c.004.0503.0059.1007.0059.1512v4.6982a2.8395 2.8395 0 001.5091 2.4091c.0199.0106.0397.0215.0593.0327l5.9977 3.45a1.9232 1.9232 0 01-.0008 3.3344l-5.9977 3.4463a2.1006 2.1006 0 01-.0569.0314 2.8462 2.8462 0 00-1.5107 2.411v4.7009c0 .051-.002.1019-.006.1526a7.261 7.261 0 01-7.6647 6.6726h-2.7826c-1.0621 0-1.9231-.861-1.9231-1.9231s.861-1.9231 1.9231-1.9231h2.8434c.044 0 .0879.0015.1317.0045a3.4147 3.4147 0 003.6321-3.0684v-4.6465c0-.018.0002-.036.0008-.054a6.6917 6.6917 0 013.5225-5.7076l3.0716-1.7649-3.0713-1.7667a6.6848 6.6848 0 01-3.5229-5.7095 1.829 1.829 0 01-.0007-.0523v-4.6435a3.415 3.415 0 00-1.1678-2.2502z" fill="url(#paint1_linear)"/>
  <path d="M20 76V36h13.0698v2.5581h-9.4884v34.8838h9.4884V76H20z" fill="url(#paint2_linear)"/>
  <path d="M92.3003 76V36H79.2305v2.5581h9.4884v34.8838h-9.4884V76h13.0698z" fill="url(#paint3_linear)"/>
  <defs>
    <linearGradient id="paint0_linear" x1="41.947" y1="36.6887" x2="41.947" y2="74.8817" gradientUnits="userSpaceOnUse">
      <stop stop-color="#20F"/>
      <stop offset="1" stop-color="#9E00FF"/>
    </linearGradient>
    <linearGradient id="paint1_linear" x1="70.3811" y1="36.6887" x2="70.3811" y2="74.8819" gradientUnits="userSpaceOnUse">
      <stop stop-color="#20F"/>
      <stop offset="1" stop-color="#9E00FF"/>
    </linearGradient>
    <linearGradient id="paint2_linear" x1="26.5349" y1="36" x2="26.5349" y2="76" gradientUnits="userSpaceOnUse">
      <stop stop-color="#20F"/>
      <stop offset="1" stop-color="#9E00FF"/>
    </linearGradient>
    <linearGradient id="paint3_linear" x1="85.7654" y1="36" x2="85.7654" y2="76" gradientUnits="userSpaceOnUse">
      <stop stop-color="#20F"/>
      <stop offset="1" stop-color="#9E00FF"/>
    </linearGradient>
  </defs>
</svg>
