<svg width="150" height="150" viewBox="0 0 150 150" fill="none" xmlns="http://www.w3.org/2000/svg">
<path d="M1 75C1 94.626 8.79641 113.448 22.6741 127.326C36.5518 141.204 55.374 149 75 149C94.626 149 113.448 141.204 127.326 127.326C141.204 113.448 149 94.626 149 75C149 55.374 141.204 36.5518 127.326 22.6741C113.448 8.7964 94.626 1 75 1C55.374 1 36.5518 8.7964 22.6741 22.6741C8.79641 36.5518 1 55.374 1 75V75Z" fill="#C7F0FF" stroke="#C7F0FF" stroke-width="1.5"/>
<path d="M133 17H17V133H133V17Z" fill="#FFD782"/>
<path d="M43 61C52.9411 61 61 52.9411 61 43C61 33.0589 52.9411 25 43 25C33.0589 25 25 33.0589 25 43C25 52.9411 33.0589 61 43 61Z" fill="#8EC13F"/>
<path d="M37 41C39.2091 41 41 39.2091 41 37C41 34.7909 39.2091 33 37 33C34.7909 33 33 34.7909 33 37C33 39.2091 34.7909 41 37 41Z" fill="#C8D952"/>
<path d="M49 41C51.2091 41 53 39.2091 53 37C53 34.7909 51.2091 33 49 33C46.7909 33 45 34.7909 45 37C45 39.2091 46.7909 41 49 41Z" fill="#C8D952"/>
<path d="M37 53C39.2091 53 41 51.2091 41 49C41 46.7909 39.2091 45 37 45C34.7909 45 33 46.7909 33 49C33 51.2091 34.7909 53 37 53Z" fill="#C8D952"/>
<path d="M49 53C51.2091 53 53 51.2091 53 49C53 46.7909 51.2091 45 49 45C46.7909 45 45 46.7909 45 49C45 51.2091 46.7909 53 49 53Z" fill="#C8D952"/>
<path d="M107 61C116.941 61 125 52.9411 125 43C125 33.0589 116.941 25 107 25C97.0589 25 89 33.0589 89 43C89 52.9411 97.0589 61 107 61Z" fill="#E97424"/>
<path d="M101 41C103.209 41 105 39.2091 105 37C105 34.7909 103.209 33 101 33C98.7909 33 97 34.7909 97 37C97 39.2091 98.7909 41 101 41Z" fill="#FCF05A"/>
<path d="M113 41C115.209 41 117 39.2091 117 37C117 34.7909 115.209 33 113 33C110.791 33 109 34.7909 109 37C109 39.2091 110.791 41 113 41Z" fill="#FCF05A"/>
<path d="M101 53C103.209 53 105 51.2091 105 49C105 46.7909 103.209 45 101 45C98.7909 45 97 46.7909 97 49C97 51.2091 98.7909 53 101 53Z" fill="#FCF05A"/>
<path d="M113 53C115.209 53 117 51.2091 117 49C117 46.7909 115.209 45 113 45C110.791 45 109 46.7909 109 49C109 51.2091 110.791 53 113 53Z" fill="#FCF05A"/>
<path d="M43 125C52.9411 125 61 116.941 61 107C61 97.0589 52.9411 89 43 89C33.0589 89 25 97.0589 25 107C25 116.941 33.0589 125 43 125Z" fill="#E1462B"/>
<path d="M37 105C39.2091 105 41 103.209 41 101C41 98.7909 39.2091 97 37 97C34.7909 97 33 98.7909 33 101C33 103.209 34.7909 105 37 105Z" fill="#F98C96"/>
<path d="M49 105C51.2091 105 53 103.209 53 101C53 98.7909 51.2091 97 49 97C46.7909 97 45 98.7909 45 101C45 103.209 46.7909 105 49 105Z" fill="#F98C96"/>
<path d="M37 117C39.2091 117 41 115.209 41 113C41 110.791 39.2091 109 37 109C34.7909 109 33 110.791 33 113C33 115.209 34.7909 117 37 117Z" fill="#F98C96"/>
<path d="M49 117C51.2091 117 53 115.209 53 113C53 110.791 51.2091 109 49 109C46.7909 109 45 110.791 45 113C45 115.209 46.7909 117 49 117Z" fill="#F98C96"/>
<path d="M107 125C116.941 125 125 116.941 125 107C125 97.0589 116.941 89 107 89C97.0589 89 89 97.0589 89 107C89 116.941 97.0589 125 107 125Z" fill="#2D75BB"/>
<path d="M101 105C103.209 105 105 103.209 105 101C105 98.7909 103.209 97 101 97C98.7909 97 97 98.7909 97 101C97 103.209 98.7909 105 101 105Z" fill="#32B1CC"/>
<path d="M113 105C115.209 105 117 103.209 117 101C117 98.7909 115.209 97 113 97C110.791 97 109 98.7909 109 101C109 103.209 110.791 105 113 105Z" fill="#32B1CC"/>
<path d="M101 117C103.209 117 105 115.209 105 113C105 110.791 103.209 109 101 109C98.7909 109 97 110.791 97 113C97 115.209 98.7909 117 101 117Z" fill="#32B1CC"/>
<path d="M113 117C115.209 117 117 115.209 117 113C117 110.791 115.209 109 113 109C110.791 109 109 110.791 109 113C109 115.209 110.791 117 113 117Z" fill="#32B1CC"/>
<path d="M65 65L75 75L65 85V65Z" fill="#78A528"/>
<path d="M75 75L85 65V85L75 75Z" fill="#1A68A8"/>
<path d="M65 65L75 75L85 65H65Z" fill="#D15A09"/>
<path d="M65 85L75 75L85 85H65Z" fill="#C92D18"/>
<path d="M133 75V65H121V75H133Z" fill="#1A68A8"/>
<path d="M133 85V75H121V85H133Z" fill="#F4F4E6"/>
<path d="M121 75V65H109V75H121Z" fill="#2D75BB"/>
<path d="M121 85V75H109V85H121Z" fill="#E0DEC6"/>
<path d="M109 75V65H97V75H109Z" fill="#1A68A8"/>
<path d="M109 85V75H97V85H109Z" fill="#F4F4E6"/>
<path d="M97 75V65H85V75H97Z" fill="#2D75BB"/>
<path d="M97 85V75H85V85H97Z" fill="#E0DEC6"/>
<path d="M65 75V65H53V75H65Z" fill="#E0DEC6"/>
<path d="M65 85V75H53V85H65Z" fill="#8EC13F"/>
<path d="M53 75V65H41V75H53Z" fill="#F4F4E6"/>
<path d="M53 85V75H41V85H53Z" fill="#78A528"/>
<path d="M41 75V65H29V75H41Z" fill="#E0DEC6"/>
<path d="M41 85V75H29V85H41Z" fill="#8EC13F"/>
<path d="M29 75V65H17V75H29Z" fill="#F4F4E6"/>
<path d="M29 85V75H17V85H29Z" fill="#78A528"/>
<path d="M75 17H65V29H75V17Z" fill="#D15A09"/>
<path d="M85 17H75V29H85V17Z" fill="#F4F4E6"/>
<path d="M75 29H65V41H75V29Z" fill="#E97424"/>
<path d="M85 29H75V41H85V29Z" fill="#E0DEC6"/>
<path d="M75 41H65V53H75V41Z" fill="#D15A09"/>
<path d="M85 41H75V53H85V41Z" fill="#F4F4E6"/>
<path d="M75 53H65V65H75V53Z" fill="#E97424"/>
<path d="M85 53H75V65H85V53Z" fill="#E0DEC6"/>
<path d="M75 85H65V97H75V85Z" fill="#E0DEC6"/>
<path d="M85 85H75V97H85V85Z" fill="#E1462B"/>
<path d="M75 97H65V109H75V97Z" fill="#F4F4E6"/>
<path d="M85 97H75V109H85V97Z" fill="#C92D18"/>
<path d="M75 109H65V121H75V109Z" fill="#E0DEC6"/>
<path d="M85 109H75V121H85V109Z" fill="#E1462B"/>
<path d="M75 121H65V133H75V121Z" fill="#F4F4E6"/>
<path d="M85 121H75V133H85V121Z" fill="#C92D18"/>
<path d="M27 23H23V27H27V23Z" fill="#F4F4E6"/>
<path d="M127 23H123V27H127V23Z" fill="#F4F4E6"/>
<path d="M127 123H123V127H127V123Z" fill="#F4F4E6"/>
<path d="M27 123H23V127H27V123Z" fill="#F4F4E6"/>
</svg>
