<svg width="82" height="82" viewBox="0 0 82 82" fill="none" xmlns="http://www.w3.org/2000/svg">
<path d="M1.3999 40.9999C1.3999 51.5025 5.57203 61.5749 12.9985 69.0013C20.4249 76.4278 30.4973 80.5999 40.9999 80.5999C51.5025 80.5999 61.5749 76.4278 69.0013 69.0013C76.4278 61.5749 80.5999 51.5025 80.5999 40.9999C80.5999 35.7996 79.5756 30.6501 77.5855 25.8456C75.5954 21.0411 72.6785 16.6757 69.0013 12.9985C65.3241 9.32127 60.9587 6.40436 56.1542 4.41427C51.3497 2.42419 46.2002 1.3999 40.9999 1.3999C35.7996 1.3999 30.6501 2.42419 25.8456 4.41427C21.0411 6.40436 16.6757 9.32127 12.9985 12.9985C9.32127 16.6757 6.40436 21.0411 4.41427 25.8456C2.42419 30.6501 1.3999 35.7996 1.3999 40.9999Z" fill="#B8ECFF" stroke="#B8ECFF" stroke-miterlimit="10"/>
<path d="M42.4631 49.0192L36.9795 58.6152C36.8276 58.8804 36.7482 59.1808 36.749 59.4864C36.7499 59.792 36.831 60.0919 36.9844 60.3562C37.1377 60.6206 37.3578 60.8399 37.6226 60.9924C37.8874 61.1448 38.1876 61.225 38.4932 61.2249H45.3153C45.5891 61.2249 45.8591 61.2895 46.1033 61.4134C46.3476 61.5372 46.5592 61.7168 46.7211 61.9377C46.883 62.1586 46.9906 62.4145 47.0351 62.6847C47.0796 62.9549 47.0599 63.2318 46.9775 63.493L43.8709 73.3306C43.8099 73.5247 43.8186 73.7339 43.8956 73.9222C43.9726 74.1105 44.113 74.2659 44.2925 74.3616C44.4719 74.4574 44.6792 74.4874 44.8785 74.4464C45.0777 74.4055 45.2564 74.2962 45.3836 74.1375L57.6319 58.8202C57.8374 58.5639 57.9662 58.2547 58.0036 57.9283C58.0409 57.6019 57.9852 57.2715 57.8429 56.9754C57.7006 56.6793 57.4775 56.4295 57.1993 56.2547C56.9211 56.08 56.5991 55.9874 56.2706 55.9878H53.1303C52.8332 55.9875 52.5411 55.9114 52.2816 55.7666C52.0222 55.6218 51.804 55.4131 51.6478 55.1603C51.4916 54.9076 51.4026 54.6191 51.3892 54.3223C51.3758 54.0254 51.4384 53.7301 51.5711 53.4643L53.7966 49.0093L42.4631 49.0192Z" fill="#FFE500" stroke="#45413C" stroke-linecap="round" stroke-linejoin="round"/>
<path d="M18.9228 47.2728C18.9306 47.7357 18.8462 48.1955 18.6744 48.6254C18.5027 49.0553 18.247 49.4468 17.9224 49.7769C17.5978 50.107 17.2108 50.3692 16.7838 50.5482C16.3568 50.7271 15.8985 50.8193 15.4355 50.8193C14.9726 50.8193 14.5142 50.7271 14.0873 50.5482C13.6603 50.3692 13.2732 50.107 12.9486 49.7769C12.624 49.4468 12.3684 49.0553 12.1966 48.6254C12.0249 48.1955 11.9404 47.7357 11.9482 47.2728C11.9482 45.3472 15.435 41.1704 15.435 41.1704C15.435 41.1704 18.9228 45.3472 18.9228 47.2728ZM72.9768 59.4785C72.9846 59.9414 72.9002 60.4012 72.7284 60.8311C72.5567 61.2611 72.301 61.6525 71.9764 61.9826C71.6518 62.3127 71.2648 62.5749 70.8378 62.7539C70.4108 62.9328 69.9525 63.025 69.4895 63.025C69.0266 63.025 68.5682 62.9328 68.1413 62.7539C67.7143 62.5749 67.3272 62.3127 67.0026 61.9826C66.678 61.6525 66.4224 61.2611 66.2506 60.8311C66.0789 60.4012 65.9944 59.9414 66.0022 59.4785C66.0022 57.5529 69.49 53.3761 69.49 53.3761C69.49 53.3761 72.9768 57.5529 72.9768 59.4785ZM31.1295 59.4785C31.1373 59.9414 31.0529 60.4012 30.8811 60.8311C30.7094 61.2611 30.4537 61.6525 30.1291 61.9826C29.8045 62.3127 29.4175 62.5749 28.9905 62.7539C28.5635 62.9328 28.1052 63.025 27.6422 63.025C27.1793 63.025 26.7209 62.9328 26.294 62.7539C25.867 62.5749 25.4799 62.3127 25.1553 61.9826C24.8307 61.6525 24.5751 61.2611 24.4033 60.8311C24.2316 60.4012 24.1472 59.9414 24.155 59.4785C24.155 57.5529 27.6417 53.3761 27.6417 53.3761C27.6417 53.3761 31.1295 57.5529 31.1295 59.4785Z" fill="#D9FDFF" stroke="#45413C" stroke-linecap="round" stroke-linejoin="round"/>
<path d="M34.6163 22.8622C33.6912 22.8614 32.7753 23.0455 31.9223 23.4037C31.0694 23.7619 30.2966 24.287 29.6495 24.9481C28.9705 23.1856 27.7365 21.692 26.1337 20.6927C24.531 19.6935 22.6466 19.243 20.7652 19.4093C18.8838 19.5755 17.1076 20.3495 15.7049 21.6143C14.3022 22.8791 13.3492 24.566 12.9898 26.4202C11.6692 26.5875 10.4624 27.2532 9.61645 28.281C8.7705 29.3088 8.34934 30.6211 8.43914 31.9492C8.52895 33.2773 9.12294 34.521 10.0996 35.4255C11.0762 36.3301 12.3616 36.8272 13.6927 36.8152H34.6163C35.5322 36.8152 36.4392 36.6348 37.2854 36.2843C38.1316 35.9338 38.9004 35.4201 39.5481 34.7724C40.1957 34.1248 40.7095 33.3559 41.06 32.5097C41.4105 31.6635 41.5909 30.7566 41.5909 29.8407C41.5909 28.9248 41.4105 28.0178 41.06 27.1716C40.7095 26.3254 40.1957 25.5566 39.5481 24.9089C38.9004 24.2613 38.1316 23.7475 37.2854 23.397C36.4392 23.0465 35.5322 22.8661 34.6163 22.8661V22.8622Z" fill="#ADC4D9"/>
<path d="M41.475 28.5448C41.2399 27.2925 40.6661 26.1286 39.8158 25.1795C38.9656 24.2305 37.8715 23.5327 36.6525 23.162C35.4334 22.7912 34.1361 22.7617 32.9014 23.0766C31.6668 23.3915 30.542 24.0388 29.6495 24.9481C28.9705 23.1856 27.7365 21.692 26.1337 20.6927C24.5309 19.6935 22.6465 19.243 20.7651 19.4093C18.8837 19.5755 17.1076 20.3495 15.7049 21.6143C14.3021 22.8791 13.3491 24.566 12.9898 26.4202C11.9965 26.5517 11.0621 26.9667 10.2986 27.6155C9.53509 28.2643 8.97474 29.1194 8.68466 30.0784C8.39458 31.0375 8.38705 32.0598 8.66299 33.023C8.93893 33.9862 9.48664 34.8495 10.2405 35.5094C10.2645 34.3979 10.6619 33.3269 11.3688 32.4688C12.0757 31.6107 13.0508 31.0155 14.1372 30.7792C14.8153 26.7657 17.8784 23.7334 21.5622 23.7334C24.7777 23.7334 27.5071 26.051 28.605 29.3071C29.7039 28.0201 32.9264 27.2211 34.6163 27.2211C37.7041 27.2211 40.2801 29.8941 40.6553 33.3314C41.4909 31.8848 41.7816 30.187 41.475 28.5448Z" fill="#ADC4D9"/>
<path d="M34.6163 22.8622C33.6912 22.8614 32.7753 23.0455 31.9223 23.4037C31.0694 23.7619 30.2966 24.287 29.6495 24.9481C28.9705 23.1856 27.7365 21.692 26.1337 20.6927C24.531 19.6935 22.6466 19.243 20.7652 19.4093C18.8838 19.5755 17.1076 20.3495 15.7049 21.6143C14.3022 22.8791 13.3492 24.566 12.9898 26.4202C11.6692 26.5875 10.4624 27.2532 9.61645 28.281C8.7705 29.3088 8.34934 30.6211 8.43914 31.9492C8.52895 33.2773 9.12294 34.521 10.0996 35.4255C11.0762 36.3301 12.3616 36.8272 13.6927 36.8152H34.6163C35.5322 36.8152 36.4392 36.6348 37.2854 36.2843C38.1316 35.9338 38.9004 35.4201 39.5481 34.7724C40.1957 34.1248 40.7095 33.3559 41.06 32.5097C41.4105 31.6635 41.5909 30.7566 41.5909 29.8407C41.5909 28.9248 41.4105 28.0178 41.06 27.1716C40.7095 26.3254 40.1957 25.5566 39.5481 24.9089C38.9004 24.2613 38.1316 23.7475 37.2854 23.397C36.4392 23.0465 35.5322 22.8661 34.6163 22.8661V22.8622Z" stroke="#45413C" stroke-linecap="round" stroke-linejoin="round"/>
<path d="M69.2832 33.1929C69.6246 31.7973 69.5243 30.33 68.9961 28.9937C68.4679 27.6575 67.5379 26.5182 66.3344 25.7332C65.1309 24.9482 63.7134 24.5563 62.2776 24.6114C60.8419 24.6666 59.4586 25.1662 58.3189 26.0412C56.4715 23.864 54.0002 22.3065 51.2391 21.5791C48.4779 20.8518 45.56 20.9897 42.8798 21.9742C40.1995 22.9587 37.8861 24.7423 36.2523 27.0841C34.6185 29.4258 33.743 32.2127 33.7442 35.068C33.7442 35.0977 33.7491 35.1264 33.7491 35.1561C32.8048 35.0341 31.8455 35.1071 30.9306 35.3707C30.0157 35.6343 29.1646 36.0829 28.43 36.6886C27.6954 37.2944 27.0929 38.0444 26.6599 38.8924C26.2268 39.7404 25.9724 40.6682 25.9123 41.6184C25.8522 42.5687 25.9878 43.5211 26.3106 44.4169C26.6335 45.3126 27.1367 46.1326 27.7892 46.826C28.4416 47.5194 29.2295 48.0716 30.1039 48.4483C30.9784 48.825 31.9208 49.0183 32.873 49.0161H64.256C66.1065 49.0186 67.9096 48.4313 69.4037 47.3396C70.8979 46.2478 72.0053 44.7084 72.5653 42.9447C73.1253 41.1809 73.1087 39.2847 72.518 37.531C71.9273 35.7773 70.7932 34.2574 69.2802 33.192L69.2832 33.1929Z" fill="#ADC4D9"/>
<path d="M69.7388 47.0784C70.7874 46.233 71.6253 45.1555 72.1865 43.931C72.7476 42.7064 73.0168 41.3683 72.9726 40.022C72.9285 38.6758 72.5722 37.3582 71.932 36.173C71.2918 34.9879 70.3851 33.9677 69.2834 33.1927C69.6248 31.797 69.5245 30.3297 68.9963 28.9935C68.4681 27.6573 67.538 26.518 66.3346 25.733C65.1311 24.948 63.7136 24.556 62.2778 24.6112C60.842 24.6663 59.4588 25.1659 58.3191 26.0409C56.472 23.8632 54.0007 22.3051 51.2393 21.5775C48.478 20.8498 45.5598 20.9876 42.8793 21.9722C40.1988 22.9568 37.8853 24.7407 36.2515 27.0828C34.6178 29.4249 33.7426 32.2122 33.7443 35.0678C33.7443 35.0975 33.7493 35.1262 33.7493 35.1559C32.201 34.9546 30.6299 35.2802 29.2891 36.0802C27.9483 36.8803 26.9157 38.1082 26.3575 39.5664C25.7994 41.0246 25.7481 42.6282 26.2121 44.1191C26.676 45.6099 27.6281 46.9013 28.9151 47.7853C28.5415 46.7374 28.4263 45.6147 28.5796 44.5128C28.7328 43.4109 29.1498 42.3622 29.7952 41.456C30.4405 40.5497 31.2952 39.8127 32.2864 39.3076C33.2777 38.8024 34.3762 38.5441 35.4887 38.5545C35.7824 38.5651 36.0751 38.5948 36.3649 38.6436V38.5545C36.3649 25.9221 51.4594 20.99 57.2895 29.8366C62.4009 25.9568 68.0241 31.0028 66.6727 36.6805C67.8129 37.482 68.7436 38.5459 69.3864 39.7824C70.0293 41.019 70.3654 42.392 70.3664 43.7857C70.3695 44.9133 70.1565 46.0311 69.7388 47.0784Z" fill="#DAEDF7"/>
<path d="M69.2832 33.1929C69.6246 31.7973 69.5243 30.33 68.9961 28.9937C68.4679 27.6575 67.5379 26.5182 66.3344 25.7332C65.1309 24.9482 63.7134 24.5563 62.2776 24.6114C60.8419 24.6666 59.4586 25.1662 58.3189 26.0412C56.4715 23.864 54.0002 22.3065 51.2391 21.5791C48.4779 20.8518 45.56 20.9897 42.8798 21.9742C40.1995 22.9587 37.8861 24.7423 36.2523 27.0841C34.6185 29.4258 33.743 32.2127 33.7442 35.068C33.7442 35.0977 33.7491 35.1264 33.7491 35.1561C32.8048 35.0341 31.8455 35.1071 30.9306 35.3707C30.0157 35.6343 29.1646 36.0829 28.43 36.6886C27.6954 37.2944 27.0929 38.0444 26.6599 38.8924C26.2268 39.7404 25.9724 40.6682 25.9123 41.6184C25.8522 42.5687 25.9878 43.5211 26.3106 44.4169C26.6335 45.3126 27.1367 46.1326 27.7892 46.826C28.4416 47.5194 29.2295 48.0716 30.1039 48.4483C30.9784 48.825 31.9208 49.0183 32.873 49.0161H64.256C66.1065 49.0186 67.9096 48.4313 69.4037 47.3396C70.8979 46.2478 72.0053 44.7084 72.5653 42.9447C73.1253 41.1809 73.1087 39.2847 72.518 37.531C71.9273 35.7773 70.7932 34.2574 69.2802 33.192L69.2832 33.1929Z" stroke="#45413C" stroke-linecap="round" stroke-linejoin="round"/>
</svg>
