<svg width="160" height="148" viewBox="0 0 160 148" fill="none" xmlns="http://www.w3.org/2000/svg">
<circle cx="80" cy="74" r="74" fill="#C7F0FF"/>
<path d="M12.1316 95.5586C7.74678 94.3773 3.72298 91.0462 1.66437 86.8933C0.0867174 83.7106 0.0886912 83.7329 0.0849635 69.1054C-0.101943 56.4523 -0.0304751 56.044 0.813013 54.8237C2.60451 51.8361 6.55513 51.1981 9.14532 53.4781C10.9639 55.0788 11.1084 55.6224 11.1084 60.8601V65.4023H18.7486C23.422 65.4023 26.8337 65.4977 27.5347 65.648C31.5218 66.5031 33.0354 71.2712 30.2671 74.2556C29.9409 74.6073 29.2689 75.1136 28.7738 75.3807C27.9049 75.8496 27.5825 75.8689 19.491 75.9353L11.1084 76.0041V78.0297C11.1084 80.9759 11.414 81.9398 12.7815 83.3074C14.3784 84.9043 14.8047 84.9795 22.2911 84.9854C28.0992 84.9897 28.6215 85.0233 29.5614 85.4487C33.1271 87.0628 34.0154 91.3604 31.3862 94.2767C29.8493 95.9814 29.7479 95.9985 21.2351 95.9887C14.5906 95.9812 13.5107 95.9301 12.1316 95.5586ZM46.154 95.6553C42.692 94.8164 39.1191 92.1861 36.9352 88.8687C34.9227 85.8116 34.5305 83.6605 34.5201 75.626C34.5112 68.6972 34.6503 67.8245 35.9833 66.4521C37.217 65.1817 38.0032 64.8524 39.8182 64.8456C41.2043 64.8402 41.5542 64.9281 42.5127 65.5207C43.1948 65.9424 43.8737 66.621 44.2954 67.3026C45.1396 68.7658 44.9848 69.3795 45.089 75.398C45.1992 82.248 45.2124 82.4101 45.7291 83.2412C47.4747 86.0488 51.0841 86.4626 53.4784 84.1295C54.8607 82.7825 54.9906 81.9912 54.9906 74.9165C54.9906 69.0993 55.0168 68.7077 55.466 67.8124C56.3661 66.019 57.6711 65.0697 59.5999 64.8053C61.6639 64.5224 63.8898 65.7391 64.9562 67.7331C65.4315 68.6218 65.46 68.9865 65.5673 75.5461C65.529 81.0031 65.7857 82.6001 66.3006 83.3642C67.9474 85.8506 71.4089 86.3854 73.5705 84.4875C75.1198 83.1272 75.119 83.1319 75.2464 75.5289C75.3558 69.0028 75.3859 68.6195 75.8575 67.7331C77.8371 64.0126 82.8483 63.7781 85.027 67.304C86.4363 69.2578 85.8195 73.3923 85.8195 76.0585C85.9217 79.567 85.7159 84.0657 85.1024 85.4522C83.4334 90.1629 79.7161 93.9045 75.2439 95.3749C73.2152 96.0419 68.7448 96.202 66.7306 95.6798C64.7887 95.1763 63.1082 94.405 61.509 93.2832L60.1664 92.3415L58.8241 93.2831C57.2008 94.4217 55.5577 95.1929 53.7618 95.6591C52.088 96.0936 47.9544 96.0915 46.154 95.6553ZM92.8918 95.6881C91.8666 95.2417 90.5863 94.0362 90.0268 92.9906C89.5377 92.0766 89.5337 91.9756 89.5337 80.4797C89.5337 69.4174 89.5538 68.8499 89.9753 67.9999C91.7277 64.4658 96.2525 63.6704 98.9963 66.4142C100.703 68.1206 100.698 68.0783 100.625 80.8433C100.562 91.8609 100.551 92.0858 100.074 92.9693C99.4454 94.1317 98.3041 95.218 97.2484 95.6583C96.2276 96.0841 93.8387 96.1004 92.8918 95.6881ZM116.507 95.5614C111.505 94.2499 107.15 90.2979 105.311 85.4011C104.318 82.7586 104.24 81.4124 104.315 68.3278C104.385 56.259 104.394 56.0489 104.872 55.1631C107.255 50.7459 113.779 51.3051 115.194 56.0479C115.433 56.848 115.525 58.3018 115.525 61.2592V65.3608L120.87 65.4422C125.812 65.5175 126.282 65.56 127.115 66.005C131.026 68.0963 131.044 73.2851 127.147 75.3675C126.273 75.8344 125.878 75.8703 120.852 75.9404L115.489 76.0151L115.563 78.6412C115.65 81.7059 115.999 82.6244 117.52 83.79C118.852 84.8109 119.69 84.9775 123.514 84.9814C126.583 84.9843 126.993 85.033 128.027 85.5146C132.35 87.5273 132.345 93.6214 128.02 95.5862C126.683 96.1935 118.854 96.1766 116.507 95.5614ZM145.157 95.5722C139.49 94.0221 134.837 89.2616 133.37 83.5116C133.009 82.0981 132.969 80.6713 132.967 69.1155C133.053 57.1205 132.458 57.5896 133.581 55.1209C134.875 52.6678 137.544 51.5869 140.371 52.3717C141.549 52.6989 143.531 54.6814 143.858 55.8597C143.995 56.3501 144.103 58.6527 144.104 61.0704L144.105 65.4024H148.688C153.936 65.4024 155.33 65.5968 156.595 66.5054C159.333 68.4727 159.395 72.8809 156.712 74.8243C155.374 75.7939 154.108 75.9791 148.82 75.9791H144.105V78.0173C144.105 80.7018 144.413 81.8305 145.476 83.0374C146.924 84.6831 147.461 84.8399 152.112 84.975C156.161 85.0925 156.187 85.0966 157.288 85.7763C158.549 86.5546 159.715 88.275 159.942 89.6904C160.269 91.7389 159.196 94.0457 157.345 95.2716L156.404 95.8948L151.548 95.9436C147.404 95.9852 146.468 95.9309 145.157 95.5722ZM92.6155 61.4439C89.0431 59.6637 88.3938 54.9619 91.3606 52.357C92.5164 51.3423 93.4462 51 95.0471 51C97.2857 51 99.0246 52.0459 100.03 53.9971C102.434 58.6627 97.3272 63.7918 92.6155 61.4439Z" fill="#33CCFF"/>
</svg>
