<svg viewBox="0 0 48 48" height="48" width="48" xmlns="http://www.w3.org/2000/svg"><g transform="matrix(0.48,0,0,0.48,0,0)"><path d="M10.000 50.000 A40.000 40.000 0 1 0 90.000 50.000 A40.000 40.000 0 1 0 10.000 50.000 Z" fill="#C7F0FF" stroke="#C7F0FF"></path><path d="M23.338 28.096 L84.982 28.096 L84.982 68.605 L23.338 68.605 Z" fill="#f0f0f0"></path><path d="M82.582,64.2H25.738a2.4,2.4,0,0,1-2.4-2.4v4.4a2.4,2.4,0,0,0,2.4,2.4H82.582a2.4,2.4,0,0,0,2.4-2.4V61.8A2.4,2.4,0,0,1,82.582,64.2Z" fill="#bdbec0"></path><path d="M70.892 33.380 L81.460 33.380 L81.460 38.664 L70.892 38.664 Z" fill="#6dd627"></path><path d="M70.892,33.88v4.284a.5.5,0,0,0,.5.5h1.55l5.284-5.284H71.392A.5.5,0,0,0,70.892,33.88Z" fill="#9ceb60"></path><path d="M23.338 28.096 L84.982 28.096 L84.982 68.605 L23.338 68.605 Z" fill="none" stroke="#45413c" stroke-linecap="round" stroke-linejoin="round"></path><path d="M23.338 33.38H67.37V64.185H23.338z" fill="#00b8f0"></path><path d="M23.338 60.24L50.198 33.38 23.338 33.38 23.338 60.24z" fill="#4acfff"></path><path d="M23.453,66.367,12.835,52.209A2.732,2.732,0,1,1,17.489,49.4l8.036,16.966Z" fill="#ff6242"></path><path d="M13.419,52.284a2.72,2.72,0,0,1,5.064-.784l-.994-2.1a2.732,2.732,0,1,0-4.654,2.808l.542.723A2.718,2.718,0,0,1,13.419,52.284Z" fill="#ff866e"></path><path d="M23.453,66.367,12.835,52.209A2.732,2.732,0,1,1,17.489,49.4l8.036,16.966Z" fill="none" stroke="#45413c" stroke-linecap="round" stroke-linejoin="round"></path><path d="M15.565 79.834 A16.898 2.202 0 1 0 49.361 79.834 A16.898 2.202 0 1 0 15.565 79.834 Z" fill="#45413c" opacity=".15"></path><path d="M23.338 33.38H67.37V64.185H23.338z" fill="none" stroke="#45413c" stroke-linecap="round" stroke-linejoin="round"></path><path d="M70.892 33.380 L81.460 33.380 L81.460 38.664 L70.892 38.664 Z" fill="none" stroke="#45413c" stroke-linecap="round" stroke-linejoin="round"></path><path d="M70.892 43.948 A1.761 1.761 0 1 0 74.414 43.948 A1.761 1.761 0 1 0 70.892 43.948 Z" fill="#87898c"></path><path d="M72.653,43.7a1.761,1.761,0,0,1,1.59,1,1.761,1.761,0,1,0-3.18,0A1.763,1.763,0,0,1,72.653,43.7Z" fill="#bdbec0"></path><path d="M70.892 43.948 A1.761 1.761 0 1 0 74.414 43.948 A1.761 1.761 0 1 0 70.892 43.948 Z" fill="none" stroke="#45413c" stroke-linecap="round" stroke-linejoin="round"></path><path d="M77.937 43.948 A1.761 1.761 0 1 0 81.459 43.948 A1.761 1.761 0 1 0 77.937 43.948 Z" fill="#87898c"></path><path d="M79.7,43.7a1.76,1.76,0,0,1,1.59,1,1.761,1.761,0,1,0-3.18,0A1.763,1.763,0,0,1,79.7,43.7Z" fill="#bdbec0"></path><path d="M77.937 43.948 A1.761 1.761 0 1 0 81.459 43.948 A1.761 1.761 0 1 0 77.937 43.948 Z" fill="none" stroke="#45413c" stroke-linecap="round" stroke-linejoin="round"></path><path d="M70.892 50.993 A1.761 1.761 0 1 0 74.414 50.993 A1.761 1.761 0 1 0 70.892 50.993 Z" fill="#87898c"></path><path d="M72.653,50.748a1.761,1.761,0,0,1,1.59,1,1.761,1.761,0,1,0-3.18,0A1.763,1.763,0,0,1,72.653,50.748Z" fill="#bdbec0"></path><path d="M70.892 50.993 A1.761 1.761 0 1 0 74.414 50.993 A1.761 1.761 0 1 0 70.892 50.993 Z" fill="none" stroke="#45413c" stroke-linecap="round" stroke-linejoin="round"></path><path d="M77.937 50.993 A1.761 1.761 0 1 0 81.459 50.993 A1.761 1.761 0 1 0 77.937 50.993 Z" fill="#87898c"></path><path d="M79.7,50.748a1.76,1.76,0,0,1,1.59,1,1.761,1.761,0,1,0-3.18,0A1.763,1.763,0,0,1,79.7,50.748Z" fill="#bdbec0"></path><path d="M77.937 50.993 A1.761 1.761 0 1 0 81.459 50.993 A1.761 1.761 0 1 0 77.937 50.993 Z" fill="none" stroke="#45413c" stroke-linecap="round" stroke-linejoin="round"></path><path d="M72.653 59.799 A3.523 3.523 0 1 0 79.699 59.799 A3.523 3.523 0 1 0 72.653 59.799 Z" fill="#87898c"></path><path d="M76.176,58.21a3.524,3.524,0,0,1,3.387,2.556,3.523,3.523,0,1,0-6.91-.967,3.5,3.5,0,0,0,.136.967A3.523,3.523,0,0,1,76.176,58.21Z" fill="#bdbec0"></path><path d="M72.653 59.799 A3.523 3.523 0 1 0 79.699 59.799 A3.523 3.523 0 1 0 72.653 59.799 Z" fill="none" stroke="#45413c" stroke-linecap="round" stroke-linejoin="round"></path><path d="M67.369 28.096L67.369 68.606" fill="none" stroke="#45413c" stroke-linecap="round" stroke-linejoin="round"></path><path d="M80.579 68.606L79.698 72.128 72.653 72.128 71.772 68.606 80.579 68.606z" fill="#87898c" stroke="#45413c" stroke-linecap="round" stroke-linejoin="round"></path><path d="M48.324,63.258a5.168,5.168,0,0,0-10.08-1.618,5.142,5.142,0,0,0-8.576-.423c0-.011,0-.021,0-.032a4.146,4.146,0,0,0-8.291,0A5.181,5.181,0,0,0,16.2,66.367H47.265A5.143,5.143,0,0,0,48.324,63.258Z" fill="#f0f0f0"></path><path d="M21.38,64.385a4.146,4.146,0,0,1,8.291,0c0,.012,0,.022,0,.033a5.141,5.141,0,0,1,8.576.422,5.148,5.148,0,0,1,9.809.038,5.019,5.019,0,0,0,.271-1.62,5.168,5.168,0,0,0-10.08-1.618,5.141,5.141,0,0,0-8.576-.423c0-.011,0-.021,0-.032a4.146,4.146,0,0,0-8.291,0A5.181,5.181,0,0,0,16.2,66.367h1.135A5.151,5.151,0,0,1,21.38,64.385Z" fill="#ffffff"></path><path d="M48.324,63.258a5.168,5.168,0,0,0-10.08-1.618,5.142,5.142,0,0,0-8.576-.423c0-.011,0-.021,0-.032a4.146,4.146,0,0,0-8.291,0A5.181,5.181,0,0,0,16.2,66.367H47.265A5.143,5.143,0,0,0,48.324,63.258Z" fill="none" stroke="#45413c" stroke-linecap="round" stroke-linejoin="round"></path><path d="M14.126,66.367a13.228,13.228,0,0,0,2.7,7.57A11.76,11.76,0,0,0,26.355,78.8H37.131a11.778,11.778,0,0,0,9.532-4.865,13.235,13.235,0,0,0,2.7-7.57Z" fill="#ffe500"></path><path d="M14.126,66.367a13.238,13.238,0,0,0,2.708,7.585A11.753,11.753,0,0,0,26.35,78.8H37.136a11.768,11.768,0,0,0,9.516-4.85,13.239,13.239,0,0,0,2.709-7.585Z" fill="#ffe500"></path><path d="M14.243,67.71c3.963,3.579,10.315,5.911,17.5,5.911s13.538-2.332,17.5-5.911a10.249,10.249,0,0,0,.117-1.343H14.126A10.249,10.249,0,0,0,14.243,67.71Z" fill="#ffffff48c"></path><path d="M14.126,66.367a13.238,13.238,0,0,0,2.708,7.585A11.753,11.753,0,0,0,26.35,78.8H37.136a11.768,11.768,0,0,0,9.516-4.85,13.239,13.239,0,0,0,2.709-7.585Z" fill="none" stroke="#45413c" stroke-linecap="round" stroke-linejoin="round"></path></g></svg>