<svg width="160" height="160" viewBox="0 0 160 160" fill="none" xmlns="http://www.w3.org/2000/svg">
<path d="M16 80C16 96.9739 22.7428 113.253 34.7452 125.255C46.7475 137.257 63.0261 144 80 144C96.9739 144 113.253 137.257 125.255 125.255C137.257 113.253 144 96.9739 144 80C144 63.0261 137.257 46.7475 125.255 34.7452C113.253 22.7428 96.9739 16 80 16C63.0261 16 46.7475 22.7428 34.7452 34.7452C22.7428 46.7475 16 63.0261 16 80V80Z" fill="#C7F0FF"/>
<path d="M20.3191 69V42.92H26.1991V64.04H37.7991V69H20.3191ZM54.0234 69.48C52.7168 69.48 51.4501 69.2533 50.2234 68.8C49.0234 68.32 47.9434 67.64 46.9834 66.76C46.0501 65.88 45.3034 64.8 44.7434 63.52C44.1834 62.2133 43.9034 60.7333 43.9034 59.08C43.9034 57.4267 44.1834 55.96 44.7434 54.68C45.3034 53.3733 46.0501 52.28 46.9834 51.4C47.9434 50.52 49.0234 49.8533 50.2234 49.4C51.4501 48.92 52.7168 48.68 54.0234 48.68C55.3301 48.68 56.5834 48.92 57.7834 49.4C59.0101 49.8533 60.0901 50.52 61.0234 51.4C61.9834 52.28 62.7434 53.3733 63.3034 54.68C63.8634 55.96 64.1434 57.4267 64.1434 59.08C64.1434 60.7333 63.8634 62.2133 63.3034 63.52C62.7434 64.8 61.9834 65.88 61.0234 66.76C60.0901 67.64 59.0101 68.32 57.7834 68.8C56.5834 69.2533 55.3301 69.48 54.0234 69.48ZM54.0234 64.72C55.3834 64.72 56.3968 64.2133 57.0634 63.2C57.7568 62.1867 58.1034 60.8133 58.1034 59.08C58.1034 57.3467 57.7568 55.9733 57.0634 54.96C56.3968 53.9467 55.3834 53.44 54.0234 53.44C52.6634 53.44 51.6368 53.9467 50.9434 54.96C50.2768 55.9733 49.9434 57.3467 49.9434 59.08C49.9434 60.8133 50.2768 62.1867 50.9434 63.2C51.6368 64.2133 52.6634 64.72 54.0234 64.72ZM81.7278 69.48C80.1545 69.48 78.7011 69.2533 77.3678 68.8C76.0345 68.32 74.8611 67.64 73.8478 66.76C72.8611 65.88 72.0878 64.8 71.5278 63.52C70.9678 62.2133 70.6878 60.7333 70.6878 59.08C70.6878 57.4267 70.9945 55.96 71.6078 54.68C72.2478 53.3733 73.0878 52.28 74.1278 51.4C75.1945 50.52 76.4211 49.8533 77.8078 49.4C79.1945 48.92 80.6478 48.68 82.1678 48.68C83.7411 48.68 85.1545 48.9333 86.4078 49.44C87.6878 49.9467 88.7545 50.5867 89.6078 51.36L86.8878 55C85.4211 53.96 83.9545 53.44 82.4878 53.44C80.7811 53.44 79.3945 53.9467 78.3278 54.96C77.2611 55.9733 76.7278 57.3467 76.7278 59.08C76.7278 60.8133 77.2345 62.1867 78.2478 63.2C79.2878 64.2133 80.6345 64.72 82.2878 64.72C83.3278 64.72 84.2745 64.5333 85.1278 64.16C86.0078 63.7867 86.8078 63.3467 87.5278 62.84L89.8878 66.56C88.6878 67.5733 87.3678 68.32 85.9278 68.8C84.4878 69.2533 83.0878 69.48 81.7278 69.48ZM102.952 69.48C101.939 69.48 101.032 69.32 100.232 69C99.4322 68.7067 98.7522 68.2933 98.1922 67.76C97.6322 67.2 97.1922 66.56 96.8722 65.84C96.5789 65.12 96.4322 64.3333 96.4322 63.48C96.4322 62.36 96.6722 61.3867 97.1522 60.56C97.6322 59.7067 98.3922 58.9867 99.4322 58.4C100.499 57.8133 101.859 57.3467 103.512 57C105.166 56.6267 107.166 56.3733 109.512 56.24C109.406 55.3333 109.006 54.6267 108.312 54.12C107.646 53.6133 106.632 53.36 105.272 53.36C104.312 53.36 103.339 53.5333 102.352 53.88C101.392 54.2 100.352 54.64 99.2322 55.2L97.1522 51.36C98.5122 50.5867 99.9655 49.9467 101.512 49.44C103.086 48.9333 104.726 48.68 106.432 48.68C109.206 48.68 111.392 49.4133 112.992 50.88C114.592 52.3467 115.392 54.6 115.392 57.64V69H110.592L110.152 66.76H109.992C108.979 67.5333 107.872 68.1867 106.672 68.72C105.472 69.2267 104.232 69.48 102.952 69.48ZM104.832 64.92C105.712 64.92 106.539 64.7467 107.312 64.4C108.086 64.0267 108.819 63.5733 109.512 63.04V59.76C108.046 59.84 106.832 59.9733 105.872 60.16C104.912 60.3467 104.152 60.5867 103.592 60.88C103.032 61.1467 102.632 61.4667 102.392 61.84C102.179 62.2133 102.072 62.6133 102.072 63.04C102.072 63.68 102.312 64.16 102.792 64.48C103.299 64.7733 103.979 64.92 104.832 64.92ZM135.777 69.48C133.27 69.48 131.377 68.7467 130.097 67.28C128.843 65.7867 128.217 63.7733 128.217 61.24V45.6H121.977V40.96H134.097V61.48C134.097 62.0933 134.177 62.6133 134.337 63.04C134.523 63.44 134.763 63.7733 135.057 64.04C135.377 64.28 135.723 64.4533 136.097 64.56C136.497 64.6667 136.91 64.72 137.337 64.72C137.79 64.72 138.257 64.68 138.737 64.6C139.243 64.4933 139.803 64.32 140.417 64.08L141.737 68.4C141.203 68.56 140.71 68.7067 140.257 68.84C139.803 68.9733 139.35 69.08 138.897 69.16C138.443 69.2667 137.963 69.3467 137.457 69.4C136.95 69.4533 136.39 69.48 135.777 69.48Z" fill="url(#paint0_linear)"/>
<path d="M5.36688 119V92.92H11.5269L14.0869 102.16L14.9669 105.76H15.1269L16.0069 102.16L18.5669 92.92H24.7269V119H19.7669V110.92C19.7669 110.2 19.7935 109.293 19.8469 108.2C19.9002 107.107 19.9669 105.987 20.0469 104.84C20.1269 103.693 20.2069 102.587 20.2869 101.52C20.3935 100.427 20.4735 99.5333 20.5269 98.84H20.4069L18.4069 105.8L16.4069 112.08H13.5269L11.4869 105.8L9.60688 98.84H9.48688C9.56688 99.5333 9.64688 100.427 9.72688 101.52C9.80688 102.587 9.88688 103.693 9.96688 104.84C10.0469 105.987 10.1135 107.107 10.1669 108.2C10.2202 109.293 10.2469 110.2 10.2469 110.92V119H5.36688ZM40.1513 119V103.76H32.1913V99.16H46.0313V119H40.1513ZM42.8313 96.04C41.6846 96.04 40.7379 95.72 39.9913 95.08C39.2713 94.44 38.9113 93.5733 38.9113 92.48C38.9113 91.3867 39.2713 90.5067 39.9913 89.84C40.7379 89.1467 41.6846 88.8 42.8313 88.8C43.9779 88.8 44.9113 89.1467 45.6313 89.84C46.3779 90.5067 46.7513 91.3867 46.7513 92.48C46.7513 93.5733 46.3779 94.44 45.6313 95.08C44.9113 95.72 43.9779 96.04 42.8313 96.04ZM57.8956 119V99.16H62.6956L63.1356 101.8H63.2956C64.149 100.947 65.1223 100.213 66.2156 99.6C67.3356 98.9867 68.6423 98.68 70.1356 98.68C72.3756 98.68 74.0156 99.4 75.0556 100.84C76.0956 102.28 76.6156 104.253 76.6156 106.76V119H70.7356V107.52C70.7356 106.187 70.5223 105.213 70.0956 104.6C69.669 103.987 68.909 103.68 67.8156 103.68C67.0156 103.68 66.309 103.853 65.6956 104.2C65.109 104.547 64.469 105.067 63.7756 105.76V119H57.8956ZM92.12 119V103.76H84.16V99.16H98V119H92.12ZM94.8 96.04C93.6533 96.04 92.7067 95.72 91.96 95.08C91.24 94.44 90.88 93.5733 90.88 92.48C90.88 91.3867 91.24 90.5067 91.96 89.84C92.7067 89.1467 93.6533 88.8 94.8 88.8C95.9467 88.8 96.88 89.1467 97.6 89.84C98.3467 90.5067 98.72 91.3867 98.72 92.48C98.72 93.5733 98.3467 94.44 97.6 95.08C96.88 95.72 95.9467 96.04 94.8 96.04ZM108.384 119V99.16H112.824L113.224 101.6H113.384C113.758 100.8 114.278 100.12 114.944 99.56C115.611 98.9733 116.518 98.68 117.664 98.68C118.518 98.68 119.238 98.96 119.824 99.52C120.438 100.053 120.864 100.853 121.104 101.92C121.478 101.013 122.011 100.253 122.704 99.64C123.424 99 124.358 98.68 125.504 98.68C126.944 98.68 128.038 99.2533 128.784 100.4C129.558 101.52 129.944 103.08 129.944 105.08V119H124.344V105.48C124.344 104.867 124.264 104.413 124.104 104.12C123.944 103.827 123.664 103.68 123.264 103.68C122.891 103.68 122.571 103.84 122.304 104.16C122.038 104.48 121.758 104.96 121.464 105.6V119H116.864V105.48C116.864 104.28 116.491 103.68 115.744 103.68C115.371 103.68 115.051 103.84 114.784 104.16C114.518 104.48 114.251 104.96 113.984 105.6V119H108.384ZM141.929 119.48C140.915 119.48 140.009 119.32 139.209 119C138.409 118.707 137.729 118.293 137.169 117.76C136.609 117.2 136.169 116.56 135.849 115.84C135.555 115.12 135.409 114.333 135.409 113.48C135.409 112.36 135.649 111.387 136.129 110.56C136.609 109.707 137.369 108.987 138.409 108.4C139.475 107.813 140.835 107.347 142.489 107C144.142 106.627 146.142 106.373 148.489 106.24C148.382 105.333 147.982 104.627 147.289 104.12C146.622 103.613 145.609 103.36 144.249 103.36C143.289 103.36 142.315 103.533 141.329 103.88C140.369 104.2 139.329 104.64 138.209 105.2L136.129 101.36C137.489 100.587 138.942 99.9467 140.489 99.44C142.062 98.9333 143.702 98.68 145.409 98.68C148.182 98.68 150.369 99.4133 151.969 100.88C153.569 102.347 154.369 104.6 154.369 107.64V119H149.569L149.129 116.76H148.969C147.955 117.533 146.849 118.187 145.649 118.72C144.449 119.227 143.209 119.48 141.929 119.48ZM143.809 114.92C144.689 114.92 145.515 114.747 146.289 114.4C147.062 114.027 147.795 113.573 148.489 113.04V109.76C147.022 109.84 145.809 109.973 144.849 110.16C143.889 110.347 143.129 110.587 142.569 110.88C142.009 111.147 141.609 111.467 141.369 111.84C141.155 112.213 141.049 112.613 141.049 113.04C141.049 113.68 141.289 114.16 141.769 114.48C142.275 114.773 142.955 114.92 143.809 114.92Z" fill="url(#paint1_linear)"/>
<defs>
<linearGradient id="paint0_linear" x1="80" y1="30" x2="80" y2="80" gradientUnits="userSpaceOnUse">
<stop stop-color="#2200FF"/>
<stop offset="1" stop-color="#9E00FF"/>
</linearGradient>
<linearGradient id="paint1_linear" x1="80" y1="80" x2="80" y2="130" gradientUnits="userSpaceOnUse">
<stop stop-color="#2200FF"/>
<stop offset="1" stop-color="#9E00FF"/>
</linearGradient>
</defs>
</svg>
