<svg width="160" height="160" viewBox="0 0 160 160" fill="none" xmlns="http://www.w3.org/2000/svg">
<path d="M15.9995 80C15.9995 96.9739 22.7423 113.253 34.7447 125.255C46.747 137.257 63.0257 144 79.9995 144C96.9734 144 113.252 137.257 125.254 125.255C137.257 113.253 144 96.9739 144 80C144 63.0261 137.257 46.7475 125.254 34.7452C113.252 22.7428 96.9734 16 79.9995 16C63.0257 16 46.747 22.7428 34.7447 34.7452C22.7423 46.7475 15.9995 63.0261 15.9995 80V80Z" fill="#C7F0FF" stroke="#C7F0FF" stroke-width="1.5"/>
<path d="M60 122C60 124.626 60.5173 127.227 61.5224 129.654C62.5275 132.08 64.0007 134.285 65.8579 136.142C67.715 137.999 69.9198 139.472 72.3463 140.478C74.7728 141.483 77.3736 142 80 142C82.6264 142 85.2272 141.483 87.6537 140.478C90.0802 139.472 92.285 137.999 94.1421 136.142C95.9993 134.285 97.4725 132.08 98.4776 129.654C99.4827 127.227 100 124.626 100 122C100 119.374 99.4827 116.773 98.4776 114.346C97.4725 111.92 95.9993 109.715 94.1421 107.858C92.285 106.001 90.0802 104.528 87.6537 103.522C85.2272 102.517 82.6264 102 80 102C77.3736 102 74.7728 102.517 72.3463 103.522C69.9198 104.528 67.715 106.001 65.8579 107.858C64.0007 109.715 62.5275 111.92 61.5224 114.346C60.5173 116.773 60 119.374 60 122V122Z" fill="#F0F0F0"/>
<path d="M60.3841 125.906C59.8087 123.012 59.8805 120.027 60.5946 117.164C61.3087 114.301 62.6472 111.632 64.5143 109.347C66.3815 107.063 68.7309 105.22 71.3942 103.95C74.0575 102.68 76.9687 102.016 79.9191 102.004C82.8696 101.991 85.7861 102.632 88.4598 103.88C91.1334 105.128 93.4978 106.952 95.3836 109.221C97.2694 111.49 98.6298 114.148 99.3673 117.005C100.105 119.862 100.201 122.846 99.6495 125.745C98.7561 121.183 96.3005 117.075 92.7053 114.127C89.1101 111.18 84.6001 109.578 79.9514 109.597C75.3027 109.617 70.806 111.255 67.235 114.232C63.6641 117.208 61.2423 121.336 60.3864 125.906" fill="white"/>
<path d="M60 122C60 124.626 60.5173 127.227 61.5224 129.654C62.5275 132.08 64.0007 134.285 65.8579 136.142C67.715 137.999 69.9198 139.472 72.3463 140.478C74.7728 141.483 77.3736 142 80 142C82.6264 142 85.2272 141.483 87.6537 140.478C90.0802 139.472 92.285 137.999 94.1421 136.142C95.9993 134.285 97.4725 132.08 98.4776 129.654C99.4827 127.227 100 124.626 100 122C100 119.374 99.4827 116.773 98.4776 114.346C97.4725 111.92 95.9993 109.715 94.1421 107.858C92.285 106.001 90.0802 104.528 87.6537 103.522C85.2272 102.517 82.6264 102 80 102C77.3736 102 74.7728 102.517 72.3463 103.522C69.9198 104.528 67.715 106.001 65.8579 107.858C64.0007 109.715 62.5275 111.92 61.5224 114.346C60.5173 116.773 60 119.374 60 122V122Z" stroke="#45413C" stroke-width="1.5" stroke-linecap="round" stroke-linejoin="round"/>
<path d="M81.3184 130V125.136H71.5264V121.904L80.0064 109.68H85.7024V121.552H88.2624V125.136H85.7024V130H81.3184ZM76.0704 121.552H81.3184V118.128C81.3184 117.488 81.329 116.752 81.3504 115.92C81.393 115.067 81.4357 114.32 81.4784 113.68H81.3504C81.009 114.256 80.6464 114.832 80.2624 115.408C79.8784 115.984 79.505 116.56 79.1424 117.136L76.0704 121.552Z" fill="#00B8F0"/>
<path fill-rule="evenodd" clip-rule="evenodd" d="M79.3901 109.253C79.5303 109.051 79.7605 108.93 80.0064 108.93H85.7024C86.1166 108.93 86.4524 109.266 86.4524 109.68V120.802H88.2624C88.6766 120.802 89.0124 121.138 89.0124 121.552V125.136C89.0124 125.55 88.6766 125.886 88.2624 125.886H86.4524V130C86.4524 130.414 86.1166 130.75 85.7024 130.75H81.3184C80.9042 130.75 80.5684 130.414 80.5684 130V125.886H71.5264C71.1122 125.886 70.7764 125.55 70.7764 125.136V121.904C70.7764 121.751 70.823 121.602 70.9101 121.477L79.3901 109.253ZM80.3989 110.43L72.2764 122.139V124.386H81.3184C81.7326 124.386 82.0684 124.722 82.0684 125.136V129.25H84.9524V125.136C84.9524 124.722 85.2882 124.386 85.7024 124.386H87.5124V122.302H85.7024C85.2882 122.302 84.9524 121.966 84.9524 121.552V110.43H80.3989ZM80.7051 113.298C80.8402 113.07 81.0855 112.93 81.3504 112.93H81.4784C81.6859 112.93 81.8842 113.016 82.0261 113.168C82.1679 113.319 82.2405 113.523 82.2267 113.73C82.1845 114.363 82.1423 115.102 82.0999 115.949C82.0788 116.772 82.0684 117.498 82.0684 118.128V121.552C82.0684 121.966 81.7326 122.302 81.3184 122.302H76.0704C75.7911 122.302 75.535 122.147 75.4056 121.9C75.2763 121.652 75.2952 121.353 75.4547 121.124L78.5169 116.722C78.8802 116.145 79.254 115.569 79.6383 114.992C80.0152 114.427 80.3708 113.862 80.7051 113.298ZM80.5917 116.269C80.3143 116.692 80.0428 117.114 79.777 117.536C79.7709 117.545 79.7646 117.555 79.758 117.564L77.5057 120.802H80.5684V118.128C80.5684 117.577 80.5762 116.957 80.5917 116.269Z" fill="#00658A"/>
<path d="M60 94C60 96.6264 60.5173 99.2272 61.5224 101.654C62.5275 104.08 64.0007 106.285 65.8579 108.142C67.715 109.999 69.9198 111.472 72.3463 112.478C74.7728 113.483 77.3736 114 80 114C82.6264 114 85.2272 113.483 87.6537 112.478C90.0802 111.472 92.285 109.999 94.1421 108.142C95.9993 106.285 97.4725 104.08 98.4776 101.654C99.4827 99.2272 100 96.6264 100 94C100 91.3736 99.4827 88.7728 98.4776 86.3463C97.4725 83.9198 95.9993 81.715 94.1421 79.8579C92.285 78.0007 90.0802 76.5275 87.6537 75.5224C85.2272 74.5173 82.6264 74 80 74C77.3736 74 74.7728 74.5173 72.3463 75.5224C69.9198 76.5275 67.715 78.0007 65.8579 79.8579C64.0007 81.715 62.5275 83.9198 61.5224 86.3463C60.5173 88.7728 60 91.3736 60 94V94Z" fill="#F0F0F0"/>
<path d="M60.3841 97.9057C59.8087 95.0119 59.8805 92.0267 60.5946 89.1639C61.3087 86.3012 62.6472 83.6319 64.5143 81.3474C66.3815 79.0628 68.7309 77.2197 71.3942 75.95C74.0575 74.6804 76.9687 74.0157 79.9191 74.0036C82.8696 73.9915 85.7861 74.6323 88.4598 75.8801C91.1334 77.1278 93.4978 78.9516 95.3836 81.2208C97.2694 83.4899 98.6298 86.1482 99.3673 89.005C100.105 91.8617 100.201 94.8463 99.6495 97.7447C98.7561 93.1826 96.3005 89.0745 92.7053 86.1274C89.1101 83.1803 84.6001 81.5784 79.9514 81.5975C75.3027 81.6166 70.806 83.2553 67.235 86.2319C63.6641 89.2084 61.2423 93.3364 60.3864 97.9057" fill="white"/>
<path d="M60 94C60 96.6264 60.5173 99.2272 61.5224 101.654C62.5275 104.08 64.0007 106.285 65.8579 108.142C67.715 109.999 69.9198 111.472 72.3463 112.478C74.7728 113.483 77.3736 114 80 114C82.6264 114 85.2272 113.483 87.6537 112.478C90.0802 111.472 92.285 109.999 94.1421 108.142C95.9993 106.285 97.4725 104.08 98.4776 101.654C99.4827 99.2272 100 96.6264 100 94C100 91.3736 99.4827 88.7728 98.4776 86.3463C97.4725 83.9198 95.9993 81.715 94.1421 79.8579C92.285 78.0007 90.0802 76.5275 87.6537 75.5224C85.2272 74.5173 82.6264 74 80 74C77.3736 74 74.7728 74.5173 72.3463 75.5224C69.9198 76.5275 67.715 78.0007 65.8579 79.8579C64.0007 81.715 62.5275 83.9198 61.5224 86.3463C60.5173 88.7728 60 91.3736 60 94V94Z" stroke="#45413C" stroke-width="1.5" stroke-linecap="round" stroke-linejoin="round"/>
<path d="M79.3345 102.384C77.5852 102.384 76.0812 102.128 74.8225 101.616C73.5638 101.083 72.5398 100.379 71.7505 99.5039L73.9265 96.5279C74.6092 97.1252 75.3665 97.6159 76.1985 97.9999C77.0518 98.3839 77.9478 98.5759 78.8865 98.5759C79.9958 98.5759 80.9025 98.3732 81.6065 97.9679C82.3318 97.5412 82.6945 96.9439 82.6945 96.1759C82.6945 95.7279 82.5985 95.3226 82.4065 94.9599C82.2145 94.5972 81.8838 94.2986 81.4145 94.0639C80.9452 93.8079 80.3158 93.6159 79.5265 93.4879C78.7372 93.3386 77.7452 93.2639 76.5505 93.2639V89.9359C78.5558 89.9359 79.9638 89.6906 80.7745 89.1999C81.6065 88.6879 82.0225 88.0266 82.0225 87.2159C82.0225 86.5119 81.7558 85.9679 81.2225 85.5839C80.6892 85.1786 79.9532 84.9759 79.0145 84.9759C78.2038 84.9759 77.4572 85.1359 76.7745 85.4559C76.0918 85.7759 75.3985 86.2132 74.6945 86.7679L72.3265 83.8879C73.3292 83.0772 74.3958 82.4479 75.5265 81.9999C76.6785 81.5306 77.9158 81.2959 79.2385 81.2959C80.3478 81.2959 81.3612 81.4239 82.2785 81.6799C83.1958 81.9146 83.9852 82.2772 84.6465 82.7679C85.3078 83.2372 85.8198 83.8132 86.1825 84.4959C86.5452 85.1786 86.7265 85.9679 86.7265 86.8639C86.7265 87.9306 86.3852 88.8372 85.7025 89.5839C85.0198 90.3092 84.0705 90.9066 82.8545 91.3759V91.5039C84.1345 91.8452 85.2118 92.4319 86.0865 93.2639C86.9612 94.0746 87.3985 95.1412 87.3985 96.4639C87.3985 97.4026 87.1745 98.2452 86.7265 98.9919C86.2998 99.7172 85.7132 100.336 84.9665 100.848C84.2412 101.339 83.3878 101.723 82.4065 102C81.4252 102.256 80.4012 102.384 79.3345 102.384Z" fill="#00B8F0"/>
<path fill-rule="evenodd" clip-rule="evenodd" d="M79.2385 82.0459C78.0066 82.0459 76.866 82.264 75.8095 82.6945L75.8028 82.6972L75.8028 82.6972C74.9679 83.028 74.1672 83.4658 73.4004 84.013L74.8194 85.7389C75.3644 85.3546 75.9099 85.0329 76.4562 84.7768C77.2458 84.4067 78.1022 84.2259 79.0145 84.2259C80.0491 84.2259 80.9626 84.4478 81.6686 84.981C82.4082 85.5171 82.7725 86.2941 82.7725 87.2159C82.7725 88.3437 82.1684 89.2227 81.1676 89.8386L81.1629 89.8415L81.1628 89.8415C80.2898 90.37 78.9664 90.6192 77.3005 90.674V92.5242C78.1994 92.5497 78.9866 92.6232 79.6562 92.7491C80.4821 92.8838 81.1949 93.0923 81.7618 93.3991C82.3265 93.6837 82.7881 94.0778 83.0693 94.609C83.3237 95.0895 83.4445 95.617 83.4445 96.1759C83.4445 97.2391 82.9146 98.0685 81.9868 98.6143L81.9807 98.6179L81.9807 98.6179C81.1287 99.1084 80.0811 99.3259 78.8865 99.3259C77.8421 99.3259 76.8411 99.1115 75.8907 98.6838L75.8842 98.6809L75.8842 98.6809C75.2377 98.3825 74.632 98.0238 74.068 97.605L72.7327 99.4312C73.3724 100.021 74.1609 100.52 75.1101 100.923C76.2563 101.389 77.6579 101.634 79.3345 101.634C80.3379 101.634 81.2956 101.514 82.2097 101.276C83.1224 101.017 83.8972 100.665 84.5443 100.228C85.2063 99.7737 85.7136 99.2345 86.08 98.6116L86.0833 98.606L86.0834 98.606C86.456 97.985 86.6485 97.2776 86.6485 96.4639C86.6485 95.3248 86.2806 94.4664 85.5767 93.814L85.5695 93.8074L85.5696 93.8073C84.7946 93.0701 83.832 92.5408 82.6612 92.2286C82.3329 92.141 82.1045 91.8437 82.1045 91.5039V91.3759C82.1045 91.0659 82.2952 90.7878 82.5844 90.6762C83.7242 90.2363 84.567 89.6946 85.1526 89.0739C85.6991 88.4742 85.9765 87.7525 85.9765 86.8639C85.9765 86.071 85.8167 85.406 85.5202 84.8478C85.215 84.2734 84.7833 83.7847 84.2124 83.3795L84.1996 83.3702C83.6272 82.9455 82.9297 82.6206 82.0926 82.4065L82.0769 82.4023C81.2349 82.1673 80.2906 82.0459 79.2385 82.0459ZM75.247 81.3039C76.4934 80.7967 77.8263 80.5459 79.2385 80.5459C80.402 80.5459 81.4816 80.6798 82.4722 80.9553C83.4637 81.2099 84.3401 81.6081 85.087 82.1608C85.8357 82.6936 86.4258 83.3553 86.8448 84.144C87.2736 84.9511 87.4765 85.8648 87.4765 86.8639C87.4765 88.1067 87.0724 89.1971 86.256 90.09L86.2487 90.098L86.2486 90.0979C85.7983 90.5764 85.2561 90.996 84.6298 91.3609C85.3609 91.7139 86.0191 92.1653 86.5999 92.7172C87.6429 93.6857 88.1485 94.9595 88.1485 96.4639C88.1485 97.5264 87.8935 98.5035 87.3712 99.3751C86.8848 100.201 86.22 100.898 85.3906 101.466L85.3867 101.469C84.5852 102.011 83.6564 102.426 82.6105 102.722L82.5958 102.726C81.5495 102.999 80.4617 103.134 79.3345 103.134C77.5149 103.134 75.91 102.868 74.5399 102.311L74.5298 102.307L74.5299 102.306C73.1866 101.737 72.0672 100.974 71.1937 100.006C70.9557 99.7426 70.9354 99.348 71.1451 99.0612L73.3211 96.0852C73.4452 95.9155 73.6349 95.8056 73.8439 95.7825C74.053 95.7593 74.2621 95.825 74.4204 95.9635C75.0476 96.5123 75.7433 96.9634 76.5095 97.3174C77.2648 97.6568 78.0548 97.8259 78.8865 97.8259C79.9087 97.8259 80.6735 97.6387 81.2293 97.3197C81.7498 97.0125 81.9445 96.6478 81.9445 96.1759C81.9445 95.8388 81.8733 95.5557 81.7437 95.3108C81.6429 95.1204 81.4476 94.919 81.0791 94.7347C81.0711 94.7307 81.0632 94.7266 81.0554 94.7223C80.6877 94.5218 80.1494 94.3487 79.4064 94.2282L79.3871 94.2248C78.66 94.0873 77.7186 94.0139 76.5505 94.0139C76.1363 94.0139 75.8005 93.6781 75.8005 93.2639V89.9359C75.8005 89.5217 76.1363 89.1859 76.5505 89.1859C78.5383 89.1859 79.7623 88.9347 80.3839 88.5596C81.0452 88.1519 81.2725 87.7088 81.2725 87.2159C81.2725 86.733 81.1061 86.4242 80.7843 86.1925L80.7687 86.181C80.4091 85.9078 79.8535 85.7259 79.0145 85.7259C78.3054 85.7259 77.6685 85.8651 77.0928 86.135C76.4707 86.4266 75.8258 86.8314 75.1586 87.357C74.8381 87.6096 74.3744 87.5595 74.1152 87.2442L71.7472 84.3642C71.6202 84.2098 71.5601 84.011 71.5803 83.812C71.6006 83.613 71.6994 83.4304 71.855 83.3047C72.9121 82.45 74.0429 81.7814 75.247 81.3039Z" fill="#00658A"/>
<path d="M60 66C60 68.6264 60.5173 71.2272 61.5224 73.6537C62.5275 76.0802 64.0007 78.285 65.8579 80.1421C67.715 81.9993 69.9198 83.4725 72.3463 84.4776C74.7728 85.4827 77.3736 86 80 86C82.6264 86 85.2272 85.4827 87.6537 84.4776C90.0802 83.4725 92.285 81.9993 94.1421 80.1421C95.9993 78.285 97.4725 76.0802 98.4776 73.6537C99.4827 71.2272 100 68.6264 100 66C100 63.3736 99.4827 60.7728 98.4776 58.3463C97.4725 55.9198 95.9993 53.715 94.1421 51.8579C92.285 50.0007 90.0802 48.5275 87.6537 47.5224C85.2272 46.5173 82.6264 46 80 46C77.3736 46 74.7728 46.5173 72.3463 47.5224C69.9198 48.5275 67.715 50.0007 65.8579 51.8579C64.0007 53.715 62.5275 55.9198 61.5224 58.3463C60.5173 60.7728 60 63.3736 60 66V66Z" fill="#F0F0F0"/>
<path d="M60.3841 69.9057C59.8087 67.0119 59.8805 64.0267 60.5946 61.1639C61.3087 58.3012 62.6472 55.6319 64.5143 53.3474C66.3815 51.0628 68.7309 49.2197 71.3942 47.95C74.0575 46.6804 76.9687 46.0157 79.9191 46.0036C82.8696 45.9915 85.7861 46.6323 88.4598 47.8801C91.1334 49.1278 93.4978 50.9516 95.3836 53.2208C97.2694 55.4899 98.6298 58.1482 99.3673 61.005C100.105 63.8617 100.201 66.8463 99.6495 69.7447C98.7561 65.1826 96.3005 61.0745 92.7053 58.1274C89.1101 55.1803 84.6001 53.5784 79.9514 53.5975C75.3027 53.6166 70.806 55.2553 67.235 58.2319C63.6641 61.2084 61.2423 65.3364 60.3864 69.9057" fill="white"/>
<path d="M60 66C60 68.6264 60.5173 71.2272 61.5224 73.6537C62.5275 76.0802 64.0007 78.285 65.8579 80.1421C67.715 81.9993 69.9198 83.4725 72.3463 84.4776C74.7728 85.4827 77.3736 86 80 86C82.6264 86 85.2272 85.4827 87.6537 84.4776C90.0802 83.4725 92.285 81.9993 94.1421 80.1421C95.9993 78.285 97.4725 76.0802 98.4776 73.6537C99.4827 71.2272 100 68.6264 100 66C100 63.3736 99.4827 60.7728 98.4776 58.3463C97.4725 55.9198 95.9993 53.715 94.1421 51.8579C92.285 50.0007 90.0802 48.5275 87.6537 47.5224C85.2272 46.5173 82.6264 46 80 46C77.3736 46 74.7728 46.5173 72.3463 47.5224C69.9198 48.5275 67.715 50.0007 65.8579 51.8579C64.0007 53.715 62.5275 55.9198 61.5224 58.3463C60.5173 60.7728 60 63.3736 60 66V66Z" stroke="#45413C" stroke-width="1.5" stroke-linecap="round" stroke-linejoin="round"/>
<path d="M79.9998 72.0003C79.4033 71.9994 78.8315 71.7619 78.4098 71.34C77.9882 70.9181 77.751 70.3462 77.7504 69.7497V67.2554C77.751 66.659 77.9882 66.0871 78.4099 65.6654C78.8316 65.2437 79.4034 65.0065 79.9998 65.0059C80.791 65.0059 81.5643 64.7713 82.2221 64.3318C82.8799 63.8923 83.3926 63.2676 83.6954 62.5367C83.9981 61.8057 84.0773 61.0015 83.923 60.2256C83.7686 59.4496 83.3877 58.7369 82.8283 58.1775C82.2689 57.6181 81.5561 57.2371 80.7802 57.0828C80.0043 56.9284 79.2 57.0076 78.4691 57.3104C77.7382 57.6131 77.1135 58.1258 76.674 58.7836C76.2344 59.4414 75.9998 60.2148 75.9998 61.0059C75.9998 61.3013 75.9417 61.5938 75.8286 61.8667C75.7156 62.1397 75.5499 62.3876 75.341 62.5965C75.1321 62.8054 74.8841 62.9711 74.6112 63.0841C74.3383 63.1972 74.0458 63.2554 73.7504 63.2554C73.455 63.2554 73.1625 63.1972 72.8896 63.0841C72.6167 62.9711 72.3687 62.8054 72.1598 62.5965C71.9509 62.3876 71.7853 62.1397 71.6722 61.8667C71.5592 61.5938 71.501 61.3013 71.501 61.0059C71.5004 59.4207 71.943 57.8668 72.7788 56.5197C73.6146 55.1727 74.8103 54.0861 76.2309 53.3826C77.6515 52.6792 79.2405 52.3868 80.8185 52.5386C82.3965 52.6904 83.9006 53.2802 85.1611 54.2416C86.4216 55.2029 87.3883 56.4975 87.952 57.9792C88.5157 59.4608 88.654 61.0706 88.3513 62.6267C88.0486 64.1828 87.3169 65.6232 86.2389 66.7855C85.1609 67.9478 83.7794 68.7856 82.2504 69.2043V69.7553C82.248 70.351 82.01 70.9214 81.5882 71.3421C81.1665 71.7627 80.5955 71.9994 79.9998 72.0003Z" fill="#FF0000" stroke="#6A1D1D" stroke-width="1.5" stroke-linecap="round" stroke-linejoin="round"/>
<path d="M77.125 77.3743C77.125 78.1369 77.4279 78.8682 77.9671 79.4074C78.5064 79.9467 79.2377 80.2496 80.0003 80.2496C80.7629 80.2496 81.4942 79.9467 82.0334 79.4074C82.5726 78.8682 82.8756 78.1369 82.8756 77.3743C82.8756 76.6117 82.5726 75.8804 82.0334 75.3412C81.4942 74.802 80.7629 74.499 80.0003 74.499C79.2377 74.499 78.5064 74.802 77.9671 75.3412C77.4279 75.8804 77.125 76.6117 77.125 77.3743Z" fill="#FF0000" stroke="#6A1D1D" stroke-width="1.5" stroke-linecap="round" stroke-linejoin="round"/>
<path d="M60 38C60 40.6264 60.5173 43.2272 61.5224 45.6537C62.5275 48.0802 64.0007 50.285 65.8579 52.1421C67.715 53.9993 69.9198 55.4725 72.3463 56.4776C74.7728 57.4827 77.3736 58 80 58C82.6264 58 85.2272 57.4827 87.6537 56.4776C90.0802 55.4725 92.285 53.9993 94.1421 52.1421C95.9993 50.285 97.4725 48.0802 98.4776 45.6537C99.4827 43.2272 100 40.6264 100 38C100 35.3736 99.4827 32.7728 98.4776 30.3463C97.4725 27.9198 95.9993 25.715 94.1421 23.8579C92.285 22.0007 90.0802 20.5275 87.6537 19.5224C85.2272 18.5173 82.6264 18 80 18C77.3736 18 74.7728 18.5173 72.3463 19.5224C69.9198 20.5275 67.715 22.0007 65.8579 23.8579C64.0007 25.715 62.5275 27.9198 61.5224 30.3463C60.5173 32.7728 60 35.3736 60 38V38Z" fill="#F0F0F0"/>
<path d="M60.3841 41.9057C59.8087 39.0119 59.8805 36.0267 60.5946 33.1639C61.3087 30.3012 62.6472 27.6319 64.5143 25.3474C66.3815 23.0628 68.7309 21.2197 71.3942 19.95C74.0575 18.6804 76.9687 18.0157 79.9191 18.0036C82.8696 17.9915 85.7861 18.6323 88.4598 19.8801C91.1334 21.1278 93.4978 22.9516 95.3836 25.2208C97.2694 27.4899 98.6298 30.1482 99.3673 33.005C100.105 35.8617 100.201 38.8463 99.6495 41.7447C98.7561 37.1826 96.3005 33.0745 92.7053 30.1274C89.1101 27.1803 84.6001 25.5784 79.9514 25.5975C75.3027 25.6166 70.806 27.2553 67.235 30.2319C63.6641 33.2084 61.2423 37.3364 60.3864 41.9057" fill="white"/>
<path d="M60 38C60 40.6264 60.5173 43.2272 61.5224 45.6537C62.5275 48.0802 64.0007 50.285 65.8579 52.1421C67.715 53.9993 69.9198 55.4725 72.3463 56.4776C74.7728 57.4827 77.3736 58 80 58C82.6264 58 85.2272 57.4827 87.6537 56.4776C90.0802 55.4725 92.285 53.9993 94.1421 52.1421C95.9993 50.285 97.4725 48.0802 98.4776 45.6537C99.4827 43.2272 100 40.6264 100 38C100 35.3736 99.4827 32.7728 98.4776 30.3463C97.4725 27.9198 95.9993 25.715 94.1421 23.8579C92.285 22.0007 90.0802 20.5275 87.6537 19.5224C85.2272 18.5173 82.6264 18 80 18C77.3736 18 74.7728 18.5173 72.3463 19.5224C69.9198 20.5275 67.715 22.0007 65.8579 23.8579C64.0007 25.715 62.5275 27.9198 61.5224 30.3463C60.5173 32.7728 60 35.3736 60 38V38Z" stroke="#45413C" stroke-width="1.5" stroke-linecap="round" stroke-linejoin="round"/>
<path d="M72.9341 45.9999V42.1919H78.4061V30.4479H73.8941V27.5359C74.5767 27.4293 75.1847 27.3226 75.7181 27.2159C76.2727 27.0879 76.7741 26.9493 77.2221 26.7999C77.6701 26.6506 78.0861 26.4906 78.4701 26.3199C78.8754 26.1279 79.2701 25.9146 79.6541 25.6799H83.1101V42.1919H87.7181V45.9999H72.9341Z" fill="#00B8F0"/>
<path fill-rule="evenodd" clip-rule="evenodd" d="M79.263 25.04C79.3807 24.968 79.5161 24.9299 79.6541 24.9299H83.1101C83.5243 24.9299 83.8601 25.2657 83.8601 25.6799V41.4419H87.7181C88.1323 41.4419 88.4681 41.7777 88.4681 42.1919V45.9999C88.4681 46.4141 88.1323 46.7499 87.7181 46.7499H72.9341C72.5199 46.7499 72.1841 46.4141 72.1841 45.9999V42.1919C72.1841 41.7777 72.5199 41.4419 72.9341 41.4419H77.6561V31.1979H73.8941C73.4799 31.1979 73.1441 30.8621 73.1441 30.4479V27.5359C73.1441 27.1664 73.4132 26.852 73.7783 26.7949C74.4485 26.6902 75.0421 26.5861 75.5602 26.4827C76.0919 26.3597 76.5663 26.228 76.9849 26.0884C77.4095 25.9469 77.8 25.7966 78.1572 25.6382C78.5356 25.4586 78.9042 25.2593 79.263 25.04ZM79.8619 26.4299C79.5132 26.6355 79.1563 26.8248 78.7911 26.9977L78.7747 27.0053C78.3661 27.1869 77.9274 27.3554 77.4593 27.5114L77.2221 26.7999L77.4593 27.5114C76.9847 27.6696 76.46 27.8144 75.8867 27.9467C75.8796 27.9484 75.8724 27.9499 75.8652 27.9514C75.492 28.026 75.0849 28.1003 74.6441 28.1743V29.6979H78.4061C78.8203 29.6979 79.1561 30.0337 79.1561 30.4479V42.1919C79.1561 42.6061 78.8203 42.9419 78.4061 42.9419H73.6841V45.2499H86.9681V42.9419H83.1101C82.6959 42.9419 82.3601 42.6061 82.3601 42.1919V26.4299H79.8619Z" fill="#00658A"/>
</svg>
