<svg viewBox="0 0 48 48" height="48" width="48" xmlns="http://www.w3.org/2000/svg"><g transform="matrix(0.48,0,0,0.48,0,0)"><path d="M7.543 57.537 A40.000 40.000 0 1 0 87.543 57.537 A40.000 40.000 0 1 0 7.543 57.537 Z" fill="#C7F0FF" stroke="#C7F0FF"></path><path d="M20.735 92.147 A15.313 2.625 0 1 0 51.361 92.147 A15.313 2.625 0 1 0 20.735 92.147 Z" fill="#45413c" opacity=".15"></path><path d="M57.048 92.147 A9.45 2.625 0 1 0 75.948 92.147 A9.45 2.625 0 1 0 57.048 92.147 Z" fill="#45413c" opacity=".15"></path><path d="M67.348,39.841c.065-4.228-1.413-8.856-4.031-13.778a1.051,1.051,0,0,1,1.417-1.423A17,17,0,0,1,71.9,31.66c1.219-1.887.743-4.882-.381-8.3a1.05,1.05,0,0,1,1.7-1.108,18.78,18.78,0,0,1,5.045,7.592l3.983-3.082a1.05,1.05,0,0,1,1.616,1.223L81.783,33.14a17.448,17.448,0,0,1,10.133,2.541,1.05,1.05,0,0,1-.61,1.963c-3.986-.383-7.474.116-10.321,1.746,3.483.452,6.413,1.54,8.234,3.908A1.05,1.05,0,0,1,88,44.915c-4.524-1.779-8.628-2.05-12.472-.526" fill="#9ceb60"></path><path d="M83.732,26.972,81.783,33.14a17.448,17.448,0,0,1,10.133,2.541,1.05,1.05,0,0,1-.61,1.963c-3.986-.383-7.474.116-10.321,1.746,3.483.452,6.413,1.54,8.234,3.908A1.05,1.05,0,0,1,88,44.915c-4.524-1.779-8.628-2.05-12.472-.526l-1.82-1.012Z" fill="#6dd627"></path><path d="M38.016 43.329 L85.986 43.329 L85.986 77.259 L38.016 77.259 Z" fill="#ffe500" transform="translate(-20.824 85.185) rotate(-60.927)"></path><path d="M75.47,40.494A16.968,16.968,0,0,1,80.239,62.4L73.417,74.673A16.968,16.968,0,0,1,51.96,82.047Z" fill="#ebcb00"></path><path d="M75.188,70.823l.435-.118.678-1.219-1.374.372-1-3.7,3.69-1,.357,1.317.7-1.252L78.58,64.9l.318-.086.678-1.22-1.258.341-1.22-4.5,3.989-1.08.407,1.5a16.02,16.02,0,0,0,.574-1.7l-.017-.061.035-.009c.1-.369.2-.738.273-1.11l-.569.154L80.723,53.19l1.895-.514c-.025-.337-.069-.671-.115-1.005l-2.041.554-1.136-4.192,2.02-.548c-.132-.31-.262-.622-.414-.924l-1.868.506-1.3-4.794A16.233,16.233,0,0,0,76.411,41.1l.092.341-3.974,1.134-1.011-3.73.784-.224a16.35,16.35,0,0,0-2.121-.889l.114.422L66.619,39.2l-.612-2.258c-.349-.02-.7-.035-1.045-.032l.695,2.564-3.914,1.117L60.9,37.469c-.322.087-.638.192-.954.3l.84,3.1L56.287,42.15l-.6-2.206c-.292.209-.579.425-.858.655l.495,1.826-3.086.881a16.185,16.185,0,0,0-1.263,1.9l-.064.116.9,3.16-3.16.9-.687,1.237,4.122-1.177L53.4,54.024l-5.169,1.4-.993-3.481-.687,1.235.715,2.507-2.483.673-.678,1.22,3.436-.931,1.192,4.177-6.859,1.859c-.1.367-.184.734-.253,1.1l7.386-2,1.119,3.923L41.39,68.075c.028.336.081.668.13,1L50.4,66.67l1.28,4.487-8.822,2.39c.143.309.294.613.457.912l8.64-2.341L53,75.8,45.7,77.78c.263.282.547.547.832.811l6.749-1.829,1.844,6.46c.366.089.734.163,1.1.225L54.24,76.5l5.17-1.4,2.376,8.326c.328-.06.651-.145.975-.225l-2.387-8.362,3.481-.943,2.2,8.115c.307-.152.605-.322.9-.494L64.82,73.633l4.51-1.223,1.6,5.9c.271-.3.527-.624.778-.951L70.3,72.149l3.928-1.064.39,1.437.7-1.252ZM77.353,64.2l-3.689,1-1.221-4.5,3.69-1Zm-12.1-6.817,1.067,3.937L61.813,62.54,60.746,58.6Zm-4.772.258-1.136-4.193,4.51-1.222L65,56.416Zm5.737-.52,3.928-1.064,1.067,3.937-3.928,1.064Zm4.893-1.325,3.69-1,1.067,3.937-3.69,1Zm-.262-.966-1.136-4.192,3.69-1,1.136,4.192Zm-.964.262L65.96,56.155l-1.136-4.193L68.753,50.9ZM64.563,51l-1.286-4.744,3.914-1.116,1.3,4.8Zm-.965.261-4.511,1.223-1.266-4.671,4.5-1.282ZM59.52,57.9l-3.694,1-1.192-4.177,3.75-1.016Zm.261.965L60.848,62.8l-3.628.983L56.1,59.863Zm1.329,4.9,1.22,4.5-3.555.964-1.281-4.487Zm.965-.261,4.51-1.222,1.221,4.5L63.3,68.008Zm5.475-1.484,3.928-1.065,1.221,4.5L68.77,66.524Zm13.275-4.633-3.988,1.081L75.77,54.532l3.988-1.081Zm-1.328-4.9-3.989,1.081-1.136-4.192,3.989-1.081ZM76.765,42.405,78.1,47.329,74.111,48.41l-1.32-4.871Zm-3.619,6.266-3.69,1-1.3-4.808,3.676-1.049Zm-2.589-9.553,1.011,3.73L67.891,43.9,66.88,40.168Zm-4.638,1.324,1.011,3.73-3.914,1.117-1.011-3.73Zm-4.875,1.392,1.01,3.729L57.56,46.846l-1.011-3.73ZM51.715,44.5l3.873-1.1,1.01,3.73-3.823,1.091Zm1.335,4.678,3.81-1.087,1.262,4.657-3.762,1.02ZM48.5,56.387l5.17-1.4,1.192,4.176-5.17,1.4Zm1.467,5.138,5.169-1.4,1.119,3.922-5.169,1.4Zm1.393,4.884,5.17-1.4,1.28,4.486-5.169,1.4Zm2.606,9.13-1.051-3.682,5.169-1.4,1.051,3.682ZM60.1,73.876l-1.051-3.682,3.543-.96,1,3.7Zm4.458-1.208-1-3.7,4.51-1.222,1,3.7Zm5.476-1.484-1-3.695,3.928-1.065,1,3.695Z" fill="#ffffff48c"></path><path d="M38.016 43.329 L85.986 43.329 L85.986 77.259 L38.016 77.259 Z" fill="none" stroke="#45413c" stroke-linecap="round" stroke-linejoin="round" transform="translate(-20.824 85.185) rotate(-60.927)"></path><path d="M19.912,76.415A1.19,1.19,0,0,0,21.1,77.552H42.645a1.191,1.191,0,0,0,1.19-1.137l2.274-50.024a1.191,1.191,0,0,0-1.19-1.245H18.853a1.192,1.192,0,0,0-1.19,1.245Z" fill="#ffffff" stroke="#45413c" stroke-linecap="round" stroke-linejoin="round"></path><path d="M43.707,33.556a1.192,1.192,0,0,0-1.189-1.264H21.228a1.192,1.192,0,0,0-1.189,1.264L22.3,70.891a1.2,1.2,0,0,0,.683,1.015,20.09,20.09,0,0,0,17.776,0,1.2,1.2,0,0,0,.683-1.015Z" fill="#ff866e"></path><path d="M42.444,37.057H21.154a1.184,1.184,0,0,0-.879.392l-.236-3.893a1.192,1.192,0,0,1,1.189-1.264h21.29a1.191,1.191,0,0,1,1.189,1.264l-.249,4.111A1.17,1.17,0,0,0,42.444,37.057Z" fill="#ffcabf"></path><path d="M43.707,33.556a1.192,1.192,0,0,0-1.189-1.264H21.228a1.192,1.192,0,0,0-1.189,1.264L22.3,70.891a1.2,1.2,0,0,0,.683,1.015,20.09,20.09,0,0,0,17.776,0,1.2,1.2,0,0,0,.683-1.015Z" fill="none" stroke="#45413c" stroke-linecap="round" stroke-linejoin="round"></path><path d="M38.087,32.292,42.039,3.548c.086-.653.5-1.138.934-1.08l1.549.206c.429.057.706.632.618,1.285l-3.6,28.333Z" fill="#ffffffce5" stroke="#45413c" stroke-linecap="round" stroke-linejoin="round"></path><path d="M30.682 37.057 L39.019 37.057 L39.019 45.394 L30.682 45.394 Z" fill="#ffffff0ed" stroke="#45413c" stroke-linecap="round" stroke-linejoin="round" transform="translate(-13.566 65.099) rotate(-76.037)"></path><path d="M24.078 48.318 L30.907 48.318 L30.907 55.147 L24.078 55.147 Z" fill="#ffcabf" transform="translate(-11.672 8.164) rotate(-13.965)"></path><path d="M24.175,52.54l-.614-2.468a.854.854,0,0,1,.623-1.035l4.97-1.235a.853.853,0,0,1,1.034.622l1.024,4.116Z" fill="#ffffff0ed"></path><path d="M24.078 48.318 L30.907 48.318 L30.907 55.147 L24.078 55.147 Z" fill="none" stroke="#45413c" stroke-linecap="round" stroke-linejoin="round" transform="translate(-11.672 8.164) rotate(-13.965)"></path><path d="M31.233 58.156 L38.168 58.156 L38.168 65.091 L31.233 65.091 Z" fill="#ffcabf" stroke="#45413c" stroke-linecap="round" stroke-linejoin="round" transform="translate(-13.846 10.195) rotate(-13.965)"></path><path d="M42.708 74.433 A13.550 13.550 0 1 0 69.808 74.433 A13.550 13.550 0 1 0 42.708 74.433 Z" fill="#ff8a14"></path><path d="M43.572,69.673a13.531,13.531,0,0,0,25.372,0,13.55,13.55,0,1,1-25.372,0Z" fill="#eb6d00"></path><path d="M42.708 74.433 A13.550 13.550 0 1 0 69.808 74.433 A13.550 13.550 0 1 0 42.708 74.433 Z" fill="none" stroke="#45413c" stroke-linecap="round" stroke-linejoin="round"></path><path d="M75.839,73.151a13.549,13.549,0,1,1-23.72,13.1Z" fill="#ff8a14" stroke="#45413c" stroke-linecap="round" stroke-linejoin="round"></path><path d="M52.119,86.255c.016.028.035.053.05.081a14.885,14.885,0,0,0,23.712-13.1c-.015-.028-.026-.058-.042-.086Z" fill="#ffffff" stroke="#45413c" stroke-linecap="round" stroke-linejoin="round"></path><path d="M73.258,74.577,54.518,84.93a11.977,11.977,0,0,0,18.74-10.353Z" fill="#ffaa54"></path><path d="M61.222 89.267L63.979 79.703 73.544 82.46" fill="none" stroke="#45413c" stroke-linecap="round" stroke-linejoin="round"></path><path d="M63.979 79.703L68.238 87.412" fill="none" stroke="#45413c" stroke-linecap="round" stroke-linejoin="round"></path><path d="M52.119,86.255c.016.028.035.053.05.081a14.885,14.885,0,0,0,23.712-13.1c-.015-.028-.026-.058-.042-.086Z" fill="none" stroke="#45413c" stroke-linecap="round" stroke-linejoin="round"></path><path d="M32.175 88.573 A4.585 4.585 0 1 0 41.345 88.573 A4.585 4.585 0 1 0 32.175 88.573 Z" fill="#bf8df2"></path><path d="M32.467,86.962a4.579,4.579,0,0,0,8.586,0,4.585,4.585,0,1,1-8.586,0Z" fill="#9f5ae5"></path><path d="M32.175 88.573 A4.585 4.585 0 1 0 41.345 88.573 A4.585 4.585 0 1 0 32.175 88.573 Z" fill="none" stroke="#45413c" stroke-linecap="round" stroke-linejoin="round"></path><path d="M40.587 87.808 A4.585 4.585 0 1 0 49.757 87.808 A4.585 4.585 0 1 0 40.587 87.808 Z" fill="#bf8df2"></path><path d="M40.879,86.2a4.579,4.579,0,0,0,8.586,0,4.585,4.585,0,1,1-8.586,0Z" fill="#9f5ae5"></path><path d="M40.587 87.808 A4.585 4.585 0 1 0 49.757 87.808 A4.585 4.585 0 1 0 40.587 87.808 Z" fill="none" stroke="#45413c" stroke-linecap="round" stroke-linejoin="round"></path><path d="M23.172 88.126 A4.585 4.585 0 1 0 32.342 88.126 A4.585 4.585 0 1 0 23.172 88.126 Z" fill="#bf8df2"></path><path d="M23.464,86.515a4.579,4.579,0,0,0,8.586,0,4.585,4.585,0,1,1-8.586,0Z" fill="#9f5ae5"></path><path d="M23.172 88.126 A4.585 4.585 0 1 0 32.342 88.126 A4.585 4.585 0 1 0 23.172 88.126 Z" fill="none" stroke="#45413c" stroke-linecap="round" stroke-linejoin="round"></path><path d="M27.207 81.410 A4.585 4.585 0 1 0 36.377 81.410 A4.585 4.585 0 1 0 27.207 81.410 Z" fill="#bf8df2"></path><path d="M27.5,79.8a4.579,4.579,0,0,0,8.586,0,4.585,4.585,0,1,1-8.586,0Z" fill="#9f5ae5"></path><path d="M27.207 81.410 A4.585 4.585 0 1 0 36.377 81.410 A4.585 4.585 0 1 0 27.207 81.410 Z" fill="none" stroke="#45413c" stroke-linecap="round" stroke-linejoin="round"></path><path d="M22.689,71.439c.9,2.908-.237,5.848-2.546,6.565s-4.915-1.06-5.818-3.968c-.644-2.076.409-6.206,1.065-8.4a1.05,1.05,0,0,1,1.665-.516C18.839,66.557,22.045,69.363,22.689,71.439Z" fill="#9ceb60" stroke="#45413c" stroke-linecap="round" stroke-linejoin="round"></path><path d="M19.9,76.974c-1.717-.96-3.794-.8-5.693-.73a1.645,1.645,0,0,0,.085,3.286c1.263-.044,2.907-.3,4.061.342,1.849,1.034,3.395-1.866,1.547-2.9Z" fill="#b89558" stroke="#45413c" stroke-linecap="round" stroke-linejoin="round"></path><path d="M36.001 79.895 A4.585 4.585 0 1 0 45.171 79.895 A4.585 4.585 0 1 0 36.001 79.895 Z" fill="#bf8df2"></path><path d="M36.293,78.285a4.579,4.579,0,0,0,8.586,0,4.585,4.585,0,1,1-8.586,0Z" fill="#9f5ae5"></path><path d="M36.001 79.895 A4.585 4.585 0 1 0 45.171 79.895 A4.585 4.585 0 1 0 36.001 79.895 Z" fill="none" stroke="#45413c" stroke-linecap="round" stroke-linejoin="round"></path><path d="M18.109 81.487 A4.585 4.585 0 1 0 27.279 81.487 A4.585 4.585 0 1 0 18.109 81.487 Z" fill="#bf8df2"></path><path d="M18.4,79.876a4.579,4.579,0,0,0,8.586,0,4.585,4.585,0,1,1-8.586,0Z" fill="#9f5ae5"></path><path d="M18.109 81.487 A4.585 4.585 0 1 0 27.279 81.487 A4.585 4.585 0 1 0 18.109 81.487 Z" fill="none" stroke="#45413c" stroke-linecap="round" stroke-linejoin="round"></path><path d="M21.271 75.309 A4.585 4.585 0 1 0 30.441 75.309 A4.585 4.585 0 1 0 21.271 75.309 Z" fill="#bf8df2"></path><path d="M21.563,73.7a4.579,4.579,0,0,0,8.586,0,4.585,4.585,0,1,1-8.586,0Z" fill="#9f5ae5"></path><path d="M21.271 75.309 A4.585 4.585 0 1 0 30.441 75.309 A4.585 4.585 0 1 0 21.271 75.309 Z" fill="none" stroke="#45413c" stroke-linecap="round" stroke-linejoin="round"></path><path d="M30.621 73.917 A4.585 4.585 0 1 0 39.791 73.917 A4.585 4.585 0 1 0 30.621 73.917 Z" fill="#bf8df2"></path><path d="M30.913,72.306a4.579,4.579,0,0,0,8.586,0,4.585,4.585,0,1,1-8.586,0Z" fill="#9f5ae5"></path><path d="M30.621 73.917 A4.585 4.585 0 1 0 39.791 73.917 A4.585 4.585 0 1 0 30.621 73.917 Z" fill="none" stroke="#45413c" stroke-linecap="round" stroke-linejoin="round"></path><path d="M67.194,36.6l-.454-1.9a36.953,36.953,0,0,0-3.423-8.637,1.051,1.051,0,0,1,1.417-1.423A14.606,14.606,0,0,1,71.9,31.66c1.219-1.887.743-4.882-.381-8.3a1.05,1.05,0,0,1,1.7-1.108,18.78,18.78,0,0,1,5.045,7.592l3.983-3.082a1.05,1.05,0,0,1,1.616,1.223L81.783,33.14a17.448,17.448,0,0,1,10.133,2.541,1.05,1.05,0,0,1-.61,1.963c-3.986-.383-7.474.116-10.321,1.746,4.637.6,6.413,1.54,8.234,3.908A1.05,1.05,0,0,1,88,44.915a18.537,18.537,0,0,0-8.8-1.436" fill="none" stroke="#45413c" stroke-linecap="round" stroke-linejoin="round"></path></g></svg>