<svg width="128" height="128" fill="none" xmlns="http://www.w3.org/2000/svg">
  <path d="M12.3685 63.9996a51.198 51.198 0 0014.9962 36.2034c9.6018 9.602 22.6247 14.997 36.2038 14.997s26.602-5.395 36.2039-14.997c9.6016-9.6014 14.9966-22.6243 14.9966-36.2034s-5.395-26.602-14.9966-36.2039a51.2 51.2 0 00-36.2039-14.9961 51.1995 51.1995 0 00-36.2038 14.9961 51.2 51.2 0 00-14.9962 36.2039z" fill="#C7F0FF" stroke="#C7F0FF"/>
  <path d="M37.9809 68.8902H83.188l-8.4006-36.6169a11.7928 11.7928 0 00-11.4944-9.1559H21.1643l16.8166 45.7728z" fill="#FF6242"/>
  <path d="M25.2642 34.2778l-4.096-11.1604H63.293a11.7926 11.7926 0 0111.4944 9.1559l1.6 6.9772a11.7147 11.7147 0 00-9.591-4.9727H25.2642z" fill="#FF866E"/>
  <path d="M76.6262 57.7276a6.7736 6.7736 0 015.6012-3.4752h25.8046v44.2202H81.6028a2.0914 2.0914 0 01-1.8099-2.0544l-4.8064-30.7277a12.2875 12.2875 0 011.6397-7.9629z" fill="#E04122"/>
  <path d="M76.6262 57.7276a6.7736 6.7736 0 015.6012-3.4752h25.8046v44.2202H81.6028a2.0914 2.0914 0 01-1.8099-2.0544l-4.8064-30.7277a12.2875 12.2875 0 011.6397-7.9629v0z" stroke="#45413C" stroke-linecap="round" stroke-linejoin="round"/>
  <path d="M100.439 96.015c0 1.3568.822 2.4563 1.835 2.4563h7.621a2.0922 2.0922 0 001.287-.6872c.332-.376.518-.859.523-1.3608l3.826-30.7289a12.3118 12.3118 0 00-1.639-7.9668 6.7751 6.7751 0 00-5.604-3.4803h-.512c-4.054 0-7.341 4.4007-7.341 9.8279l.004 31.9398z" fill="#FF6242"/>
  <path d="M100.439 71.4454v-7.3702c0-5.4272 3.287-9.8279 7.341-9.8279h.512a6.7763 6.7763 0 013.252 1.0128 6.7772 6.7772 0 012.348 2.4675 12.3092 12.3092 0 011.639 7.968l-.315 2.528a11.0868 11.0868 0 00-1.324-3.136 6.8105 6.8105 0 00-2.353-2.4536 6.8059 6.8059 0 00-3.245-1.0113h-.512c-4.059-.0051-7.343 4.3929-7.343 9.8227z" fill="#FF866E"/>
  <path d="M87.7477 103.385h-2.9812c-1.0137 0-1.8355-1.099-1.8355-2.456v-2.4576h6.656v2.4576c-.0038 1.357-.8256 2.456-1.8393 2.456z" fill="#656769" stroke="#45413C"/>
  <path d="M37.9809 68.8902H83.188l-8.4006-36.6169a11.7928 11.7928 0 00-11.4944-9.1559H21.1643l16.8166 45.7728z" stroke="#45413C" stroke-linecap="round" stroke-linejoin="round"/>
  <path d="M22.2577 68.8902h15.7235l-9.1686-39.7351a7.79 7.79 0 00-6.3253-5.9093 7.7893 7.7893 0 00-5.805 1.3612 7.7898 7.7898 0 00-3.039 8.1053l8.6144 36.1779z" fill="#E04122"/>
  <path d="M22.2577 68.8902h15.7235l-9.1686-39.7351a7.79 7.79 0 00-6.3253-5.9093 7.7893 7.7893 0 00-5.805 1.3612 7.7898 7.7898 0 00-3.039 8.1053l8.6144 36.1779z" stroke="#45413C" stroke-linecap="round" stroke-linejoin="round"/>
  <path d="M21.0599 57.7276a6.7736 6.7736 0 015.6013-3.4752h25.8073v44.2202h-26.432a2.0917 2.0917 0 01-1.8099-2.0544l-4.8064-30.7277a12.2875 12.2875 0 011.6397-7.9629z" fill="#E04122"/>
  <path d="M21.0599 57.7276a6.7736 6.7736 0 015.6013-3.4752h25.8073v44.2202h-26.432a2.0917 2.0917 0 01-1.8099-2.0544l-4.8064-30.7277a12.2875 12.2875 0 011.6397-7.9629v0z" stroke="#45413C" stroke-linecap="round" stroke-linejoin="round"/>
  <path opacity=".15" d="M31.1408 103.828c0 .387.9151.771 2.6931 1.128 1.778.358 4.384.683 7.6692.957 3.2853.273 7.1855.491 11.4779.639 4.2924.148 8.8929.224 13.539.224 4.6461 0 9.2466-.076 13.539-.224 4.2924-.148 8.1926-.366 11.4779-.639 3.2852-.274 5.8912-.599 7.6692-.957 1.7779-.357 2.6929-.741 2.6929-1.128 0-.387-.915-.77-2.6929-1.128-1.778-.358-4.384-.682-7.6692-.956-3.2853-.274-7.1855-.491-11.4779-.639-4.2924-.148-8.8929-.225-13.539-.225-4.6461 0-9.2466.077-13.539.225-4.2924.148-8.1926.365-11.4779.639-3.2852.274-5.8912.598-7.6692.956-1.778.358-2.6931.741-2.6931 1.128z" fill="#45413C"/>
  <path d="M32.1827 103.385h-2.9824c-1.0138 0-1.8356-1.099-1.8356-2.456v-2.4576h6.656v2.4576c-.0038 1.357-.8256 2.456-1.838 2.456z" fill="#656769" stroke="#45413C"/>
  <path d="M54.6993 68.9885h17.6896v29.385H54.6993v-29.385z" fill="#E04122"/>
  <path d="M54.6993 68.9885h17.6896v29.385H54.6993v-29.385z" stroke="#45413C" stroke-linecap="round" stroke-linejoin="round"/>
  <path d="M54.6993 91.1013h17.6896v7.273H54.6993v-7.273z" fill="#525252" stroke="#45413C" stroke-linecap="round" stroke-linejoin="round"/>
  <path d="M104.448 103.385h2.982c1.014 0 1.836-1.099 1.836-2.456v-2.4576h-6.656v2.4576c.009 1.357.83 2.456 1.838 2.456z" fill="#656769" stroke="#45413C"/>
  <path d="M100.439 96.015c0 1.3568.822 2.4563 1.835 2.4563h7.621a2.0922 2.0922 0 001.287-.6872c.332-.376.518-.859.523-1.3608l3.826-30.7289a12.3118 12.3118 0 00-1.639-7.9668 6.7751 6.7751 0 00-5.604-3.4803h-.512c-4.054 0-7.341 4.4007-7.341 9.8279l.004 31.9398z" stroke="#45413C" stroke-linecap="round" stroke-linejoin="round"/>
  <path d="M56.0497 103.385h-2.9824c-1.0137 0-1.8355-1.099-1.8355-2.456v-2.4576h6.656v2.4576c-.0025 1.357-.8243 2.456-1.8381 2.456z" fill="#656769" stroke="#45413C"/>
  <path d="M60.0637 96.015c0 1.3568-.8218 2.4563-1.8355 2.4563h-7.6211a2.09 2.09 0 01-1.81-2.048l-3.8259-30.7328a9.6256 9.6256 0 011.6397-6.9875c1.3952-2.2042 3.4445-4.4557 5.6013-4.4557h.512c4.055 0 7.3408 4.4007 7.3408 9.8279l-.0013 31.9398zM65.4284 91.1014h40.3746v-12.288c0-5.4284-3.287-9.8278-7.3404-9.8278H72.7692c-4.0538 0-7.3408 4.3994-7.3408 9.8278v12.288z" fill="#FF6242"/>
  <path d="M72.7692 68.9911c-4.055 0-7.3408 4.3981-7.3408 9.8278v7.3703c0-5.4298 3.2858-9.8279 7.3408-9.8279h25.6934c4.0564 0 7.3404 4.3981 7.3404 9.8279v-7.3728c0-5.4298-3.284-9.8279-7.3404-9.8279l-25.6934.0026z" fill="#FF866E"/>
  <path d="M65.4284 91.1014h40.3746v-12.288c0-5.4284-3.287-9.8278-7.3404-9.8278H72.7692c-4.0538 0-7.3408 4.3994-7.3408 9.8278v12.288z" stroke="#45413C" stroke-linecap="round" stroke-linejoin="round"/>
  <path d="M65.4284 93.5589c0 2.7136 1.6435 4.9127 3.671 4.9127h33.0346c2.026 0 3.669-2.1991 3.669-4.9127v-2.4576H65.4284v2.4576z" fill="#525252"/>
  <path d="M65.4286 91.1013v2.4576a5.4068 5.4068 0 00.128 1.2275h40.1194a5.565 5.565 0 00.128-1.2275v-2.4576H65.4286z" fill="#656769"/>
  <path d="M65.4284 93.5589c0 2.7136 1.6435 4.9127 3.671 4.9127h33.0346c2.026 0 3.669-2.1991 3.669-4.9127v-2.4576H65.4284v2.4576z" stroke="#45413C" stroke-linecap="round" stroke-linejoin="round"/>
  <path d="M45.9813 39.2595a4.177 4.177 0 004.1288-3.934 4.1768 4.1768 0 00-3.645-4.386 3.1987 3.1987 0 00-1.4077-2.4325 3.2007 3.2007 0 00-2.7843-.3835 2.4559 2.4559 0 00-2.432-2.1115 2.4563 2.4563 0 00-2.432 2.1115 3.1987 3.1987 0 00-2.7842.3835 3.1997 3.1997 0 00-1.4078 2.4325 4.1766 4.1766 0 00.4839 8.32h12.2803z" fill="#FFFCE5"/>
  <path d="M45.9813 39.2595a4.177 4.177 0 004.1288-3.934 4.1768 4.1768 0 00-3.645-4.386 3.1987 3.1987 0 00-1.4077-2.4325 3.2007 3.2007 0 00-2.7843-.3835 2.4559 2.4559 0 00-2.432-2.1115 2.4563 2.4563 0 00-2.432 2.1115 3.1987 3.1987 0 00-2.7842.3835 3.1997 3.1997 0 00-1.4078 2.4325 4.1766 4.1766 0 00.4839 8.32h12.2803z" fill="#F7E5C6"/>
  <path d="M32.6108 35.0982a.9879.9879 0 00.6976-.7027 3.1999 3.1999 0 013.0912-2.3885c.0844 0 .1676 0 .256.0102a.9853.9853 0 00.9651-.5619 2.4576 2.4576 0 014.4493 0 .9853.9853 0 00.9651.5619c.0832 0 .1664-.0102.256-.0102a3.1997 3.1997 0 013.0912 2.3885.9883.9883 0 00.6976.7027 4.1835 4.1835 0 012.5677 2.0096 4.1763 4.1763 0 00.0583-3.9376 4.176 4.176 0 00-3.2417-2.2358 3.201 3.201 0 00-1.4078-2.4326 3.2001 3.2001 0 00-2.7842-.3834 2.4564 2.4564 0 00-4.864 0 3.1989 3.1989 0 00-2.7833.3841 3.2002 3.2002 0 00-1.4074 2.4319 4.1759 4.1759 0 00-3.2328 2.2405 4.1766 4.1766 0 00.0622 3.9329 4.1808 4.1808 0 012.5639-2.0096z" fill="#FFF5E3"/>
  <path d="M45.9813 39.2595a4.177 4.177 0 004.1288-3.934 4.1768 4.1768 0 00-3.645-4.386 3.1987 3.1987 0 00-1.4077-2.4325 3.2007 3.2007 0 00-2.7843-.3835 2.4559 2.4559 0 00-2.432-2.1115 2.4563 2.4563 0 00-2.432 2.1115 3.1987 3.1987 0 00-2.7842.3835 3.1997 3.1997 0 00-1.4078 2.4325 4.1766 4.1766 0 00.4839 8.32h12.2803z" stroke="#45413C" stroke-linecap="round" stroke-linejoin="round"/>
  <path d="M49.2235 51.6297a2.9441 2.9441 0 01-2.9287 2.6176H33.3822a2.944 2.944 0 01-2.9299-2.6176l-1.5476-13.7331a.9835.9835 0 01.5752-1.0073.9816.9816 0 01.4015-.0858h19.9104a.9809.9809 0 01.7333.3276.9816.9816 0 01.2433.7655l-1.5449 13.7331z" fill="#FFE500"/>
  <path d="M29.55 43.6169a1.0058 1.0058 0 01.3328-.0576h19.9091c.1129.0004.225.0199.3315.0576l.64-5.7203a.9813.9813 0 00-.5741-1.0073.9804.9804 0 00-.4013-.0858H29.8828a.981.981 0 00-.7334.3276.9816.9816 0 00-.2433.7655l.6439 5.7203z" fill="#FFF48C"/>
  <path d="M49.3717 50.3152l-.1484 1.3145a2.9444 2.9444 0 01-2.9287 2.6176H33.382a2.944 2.944 0 01-2.9299-2.6176l-.1472-1.3132 19.0668-.0013z" fill="#FF6242"/>
  <path d="M29.2593 41.039l-.3546-3.1424a.9835.9835 0 01.5752-1.0073.9816.9816 0 01.4015-.0858h19.9104a.9809.9809 0 01.7333.3276.9816.9816 0 01.2433.7655l-.3533 3.1411-21.1558.0013z" fill="#FF866E"/>
  <path d="M49.2235 51.6297a2.9441 2.9441 0 01-2.9287 2.6176H33.3822a2.944 2.944 0 01-2.9299-2.6176l-1.5476-13.7331a.9835.9835 0 01.5752-1.0073.9816.9816 0 01.4015-.0858h19.9104a.9809.9809 0 01.7333.3276.9816.9816 0 01.2433.7655l-1.5449 13.7331z" stroke="#45413C" stroke-linecap="round" stroke-linejoin="round"/>
  <path d="M77.1246 53.1665h3.9309v-7.3997a5.866 5.866 0 00-3.2589-5.2736l-4.8102-2.4051a.9834.9834 0 00-.7504-.0529.9833.9833 0 00-.568.4932l-.8845 1.7574a.9844.9844 0 00.4403 1.3197l4.8103 2.4051a1.9535 1.9535 0 011.0854 1.7562l.0051 7.3997z" fill="#E0E0E0" stroke="#45413C"/>
  <path d="M74.5112 67.0983a1.9661 1.9661 0 001.9584 1.792h5.248a1.9656 1.9656 0 001.9584-1.792l1.3159-14.9132H73.1941l1.3171 14.9132z" fill="#6DD627"/>
  <path d="M84.5618 57.0004l.4262-4.8153H73.1941l.4211 4.7731 10.9466.0422z" fill="#46B000"/>
  <path d="M71.2292 47.2698h15.7249v4.9139H71.2292v-4.9139z" fill="#E0E0E0" stroke="#45413C"/>
  <path d="M74.1979 63.5437c3.7696-.0998 6.7738-1.7497 6.7738-3.7926 0-2.1619-3.3638-3.9091-7.4458-3.8093l.672 7.6019z" fill="#C8FFA1"/>
  <path d="M74.5112 67.0983a1.9661 1.9661 0 001.9584 1.792h5.248a1.9656 1.9656 0 001.9584-1.792l1.3159-14.9132H73.1941l1.3171 14.9132z" stroke="#45413C"/>
  <path d="M45.2848 68.2032l-.3136-2.5127a9.6256 9.6256 0 011.6397-6.9875c1.3952-2.2042 3.4445-4.4557 5.6013-4.4557h.512c4.055 0 7.3408 4.4007 7.3408 9.8279v7.3702c0-5.4298-3.2845-9.8278-7.3408-9.8278h-.512a6.8081 6.8081 0 00-5.5975 3.4649 11.1053 11.1053 0 00-1.3222 3.1207" fill="#FF866E"/>
  <path d="M60.0637 96.015c0 1.3568-.8218 2.4563-1.8355 2.4563h-7.6211a2.09 2.09 0 01-1.81-2.048l-3.8259-30.7328a9.6256 9.6256 0 011.6397-6.9875c1.3952-2.2042 3.4445-4.4557 5.6013-4.4557h.512c4.055 0 7.3408 4.4007 7.3408 9.8279l-.0013 31.9398z" stroke="#45413C" stroke-linecap="round" stroke-linejoin="round"/>
</svg>
