<svg viewBox="0 0 48 48" height="48" width="48" xmlns="http://www.w3.org/2000/svg"><g transform="matrix(0.48,0,0,0.48,0,0)"><path d="M9.663 50.000 A40.000 40.000 0 1 0 89.663 50.000 A40.000 40.000 0 1 0 9.663 50.000 Z" fill="#C7F0FF" stroke="#C7F0FF"></path><path d="M29.673,53.821H64.991L58.428,25.214a9.213,9.213,0,0,0-8.98-7.153H16.535Z" fill="#ff6242"></path><path d="M19.738,26.78l-3.2-8.719H49.448a9.213,9.213,0,0,1,8.98,7.153l1.25,5.451a9.152,9.152,0,0,0-7.493-3.885Z" fill="#ff866e"></path><path d="M59.864,45.1a5.292,5.292,0,0,1,4.376-2.715H84.4V76.932H63.752a1.634,1.634,0,0,1-1.414-1.605L58.583,51.321A9.6,9.6,0,0,1,59.864,45.1Z" fill="#e04122"></path><path d="M59.864,45.1a5.292,5.292,0,0,1,4.376-2.715H84.4V76.932H63.752a1.634,1.634,0,0,1-1.414-1.605L58.583,51.321A9.6,9.6,0,0,1,59.864,45.1Z" fill="none" stroke="#45413c" stroke-linecap="round" stroke-linejoin="round"></path><path d="M78.468,75.012c0,1.06.642,1.919,1.434,1.919h5.954a1.633,1.633,0,0,0,1.414-1.6l2.989-24.007A9.617,9.617,0,0,0,88.978,45.1,5.292,5.292,0,0,0,84.6,42.381h-.4c-3.167,0-5.735,3.438-5.735,7.678Z" fill="#ff6242"></path><path d="M78.468,55.817V50.059c0-4.24,2.568-7.678,5.735-7.678h.4A5.292,5.292,0,0,1,88.978,45.1a9.617,9.617,0,0,1,1.281,6.225L90.013,53.3a8.683,8.683,0,0,0-1.035-2.45,5.321,5.321,0,0,0-4.373-2.707h-.4C81.034,48.139,78.468,51.575,78.468,55.817Z" fill="#ff866e"></path><path d="M68.553,80.77H66.224c-.792,0-1.434-.859-1.434-1.919v-1.92h5.2v1.92C69.987,79.911,69.345,80.77,68.553,80.77Z" fill="#656769" stroke="#45413c"></path><path d="M29.673,53.821H64.991L58.428,25.214a9.213,9.213,0,0,0-8.98-7.153H16.535Z" fill="none" stroke="#45413c" stroke-linecap="round" stroke-linejoin="round"></path><path d="M17.389,53.821H29.673L22.51,22.778a6.086,6.086,0,1,0-11.851,2.779Z" fill="#e04122"></path><path d="M17.389,53.821H29.673L22.51,22.778a6.086,6.086,0,1,0-11.851,2.779Z" fill="none" stroke="#45413c" stroke-linecap="round" stroke-linejoin="round"></path><path d="M16.453,45.1a5.292,5.292,0,0,1,4.376-2.715H40.991V76.932H20.341a1.634,1.634,0,0,1-1.414-1.605L15.172,51.321A9.6,9.6,0,0,1,16.453,45.1Z" fill="#e04122"></path><path d="M16.453,45.1a5.292,5.292,0,0,1,4.376-2.715H40.991V76.932H20.341a1.634,1.634,0,0,1-1.414-1.605L15.172,51.321A9.6,9.6,0,0,1,16.453,45.1Z" fill="none" stroke="#45413c" stroke-linecap="round" stroke-linejoin="round"></path><path d="M24.329 81.116 A27.64 2.303 0 1 0 79.609 81.116 A27.64 2.303 0 1 0 24.329 81.116 Z" fill="#45413c" opacity=".15"></path><path d="M25.143,80.77h-2.33c-.792,0-1.434-.859-1.434-1.919v-1.92h5.2v1.92C26.576,79.911,25.934,80.77,25.143,80.77Z" fill="#656769" stroke="#45413c"></path><path d="M42.734 53.898H56.554V76.855H42.734z" fill="#e04122"></path><path d="M42.734 53.898H56.554V76.855H42.734z" fill="none" stroke="#45413c" stroke-linecap="round" stroke-linejoin="round"></path><path d="M42.734 71.173H56.554V76.855H42.734z" fill="#525252" stroke="#45413c" stroke-linecap="round" stroke-linejoin="round"></path><path d="M81.6,80.77h2.33c.792,0,1.434-.859,1.434-1.919v-1.92h-5.2v1.92C80.171,79.911,80.813,80.77,81.6,80.77Z" fill="#656769" stroke="#45413c"></path><path d="M78.468,75.012c0,1.06.642,1.919,1.434,1.919h5.954a1.633,1.633,0,0,0,1.414-1.6l2.989-24.007A9.617,9.617,0,0,0,88.978,45.1,5.292,5.292,0,0,0,84.6,42.381h-.4c-3.167,0-5.735,3.438-5.735,7.678Z" fill="none" stroke="#45413c" stroke-linecap="round" stroke-linejoin="round"></path><path d="M43.789,80.77h-2.33c-.792,0-1.434-.859-1.434-1.919v-1.92h5.2v1.92C45.223,79.911,44.581,80.77,43.789,80.77Z" fill="#656769" stroke="#45413c"></path><path d="M46.925,75.012c0,1.06-.642,1.919-1.434,1.919H39.537a1.633,1.633,0,0,1-1.414-1.6L35.134,51.321a7.52,7.52,0,0,1,1.281-5.459c1.09-1.722,2.691-3.481,4.376-3.481h.4c3.168,0,5.735,3.438,5.735,7.678Z" fill="#ff6242"></path><path d="M51.116,71.173H82.659v-9.6c0-4.241-2.568-7.678-5.735-7.678H56.851c-3.167,0-5.735,3.437-5.735,7.678Z" fill="#ff6242"></path><path d="M56.851,53.9c-3.168,0-5.735,3.436-5.735,7.678v5.758c0-4.242,2.567-7.678,5.735-7.678H76.924c3.169,0,5.735,3.436,5.735,7.678V61.576c0-4.242-2.566-7.678-5.735-7.678Z" fill="#ff866e"></path><path d="M51.116,71.173H82.659v-9.6c0-4.241-2.568-7.678-5.735-7.678H56.851c-3.167,0-5.735,3.437-5.735,7.678Z" fill="none" stroke="#45413c" stroke-linecap="round" stroke-linejoin="round"></path><path d="M51.116,73.093c0,2.12,1.284,3.838,2.868,3.838H79.792c1.583,0,2.867-1.718,2.867-3.838v-1.92H51.116Z" fill="#525252"></path><path d="M51.116,71.173v1.92a4.225,4.225,0,0,0,.1.959H82.559a4.283,4.283,0,0,0,.1-.959v-1.92Z" fill="#656769"></path><path d="M51.116,73.093c0,2.12,1.284,3.838,2.868,3.838H79.792c1.583,0,2.867-1.718,2.867-3.838v-1.92H51.116Z" fill="none" stroke="#45413c" stroke-linecap="round" stroke-linejoin="round"></path><path d="M35.923,30.672a3.263,3.263,0,0,0,.378-6.5,2.5,2.5,0,0,0-3.275-2.2,1.919,1.919,0,0,0-3.8,0,2.5,2.5,0,0,0-3.275,2.2,3.263,3.263,0,0,0,.378,6.5Z" fill="#fffce5"></path><path d="M35.923,30.672a3.263,3.263,0,0,0,.378-6.5,2.5,2.5,0,0,0-3.275-2.2,1.919,1.919,0,0,0-3.8,0,2.5,2.5,0,0,0-3.275,2.2,3.263,3.263,0,0,0,.378,6.5Z" fill="#f7e5c6"></path><path d="M25.477,27.421a.772.772,0,0,0,.545-.549,2.5,2.5,0,0,1,2.415-1.866c.066,0,.131,0,.2.008a.77.77,0,0,0,.754-.439,1.92,1.92,0,0,1,3.476,0,.77.77,0,0,0,.754.439c.065,0,.13-.008.2-.008a2.5,2.5,0,0,1,2.415,1.866.772.772,0,0,0,.545.549,3.268,3.268,0,0,1,2.006,1.57A3.263,3.263,0,0,0,36.3,24.168a2.5,2.5,0,0,0-3.275-2.2,1.919,1.919,0,0,0-3.8,0,2.5,2.5,0,0,0-3.274,2.2,3.263,3.263,0,0,0-2.477,4.823A3.265,3.265,0,0,1,25.477,27.421Z" fill="#fff5e3"></path><path d="M35.923,30.672a3.263,3.263,0,0,0,.378-6.5,2.5,2.5,0,0,0-3.275-2.2,1.919,1.919,0,0,0-3.8,0,2.5,2.5,0,0,0-3.275,2.2,3.263,3.263,0,0,0,.378,6.5Z" fill="none" stroke="#45413c" stroke-linecap="round" stroke-linejoin="round"></path><path d="M38.456,40.336a2.3,2.3,0,0,1-2.288,2.045H26.08a2.3,2.3,0,0,1-2.289-2.045L22.582,29.607a.768.768,0,0,1,.763-.854H38.9a.767.767,0,0,1,.763.854Z" fill="#ffe500"></path><path d="M23.086,34.076a.785.785,0,0,1,.26-.045H38.9a.784.784,0,0,1,.259.045l.5-4.469a.767.767,0,0,0-.762-.854H23.346a.767.767,0,0,0-.763.854Z" fill="#fff48c"></path><path d="M38.572,39.309l-.116,1.027a2.3,2.3,0,0,1-2.288,2.045H26.08a2.3,2.3,0,0,1-2.289-2.045l-.115-1.026Z" fill="#ff6242"></path><path d="M22.859,32.062l-.277-2.455a.768.768,0,0,1,.763-.854H38.9a.767.767,0,0,1,.763.854l-.276,2.454Z" fill="#ff866e"></path><path d="M38.456,40.336a2.3,2.3,0,0,1-2.288,2.045H26.08a2.3,2.3,0,0,1-2.289-2.045L22.582,29.607a.768.768,0,0,1,.763-.854H38.9a.767.767,0,0,1,.763.854Z" fill="none" stroke="#45413c" stroke-linecap="round" stroke-linejoin="round"></path><path d="M60.254,41.537h3.071V35.756a4.583,4.583,0,0,0-2.546-4.12l-3.758-1.879a.768.768,0,0,0-1.03.344L55.3,31.474a.769.769,0,0,0,.344,1.031l3.758,1.879a1.526,1.526,0,0,1,.848,1.372Z" fill="#e0e0e0" stroke="#45413c"></path><path d="M58.212,52.421a1.536,1.536,0,0,0,1.53,1.4h4.1a1.536,1.536,0,0,0,1.53-1.4L66.4,40.77H57.183Z" fill="#6dd627"></path><path d="M66.064 44.532L66.397 40.77 57.183 40.77 57.512 44.499 66.064 44.532z" fill="#46b000"></path><path d="M55.648 36.930 L67.933 36.930 L67.933 40.769 L55.648 40.769 Z" fill="#e0e0e0" stroke="#45413c"></path><path d="M57.967,49.644c2.945-.078,5.292-1.367,5.292-2.963,0-1.689-2.628-3.054-5.817-2.976Z" fill="#c8ffa1"></path><path d="M58.212,52.421a1.536,1.536,0,0,0,1.53,1.4h4.1a1.536,1.536,0,0,0,1.53-1.4L66.4,40.77H57.183Z" fill="none" stroke="#45413c"></path><path d="M35.379,53.284l-.245-1.963a7.52,7.52,0,0,1,1.281-5.459c1.09-1.722,2.691-3.481,4.376-3.481h.4c3.168,0,5.735,3.438,5.735,7.678v5.758c0-4.242-2.566-7.678-5.735-7.678h-.4a5.319,5.319,0,0,0-4.373,2.707,8.675,8.675,0,0,0-1.033,2.438" fill="#ff866e"></path><path d="M46.925,75.012c0,1.06-.642,1.919-1.434,1.919H39.537a1.633,1.633,0,0,1-1.414-1.6L35.134,51.321a7.52,7.52,0,0,1,1.281-5.459c1.09-1.722,2.691-3.481,4.376-3.481h.4c3.168,0,5.735,3.438,5.735,7.678Z" fill="none" stroke="#45413c" stroke-linecap="round" stroke-linejoin="round"></path></g></svg>