<svg width="128" height="128" fill="none" xmlns="http://www.w3.org/2000/svg">
  <path d="M12.8 65.6038A51.1994 51.1994 0 0 0 64 116.804a51.1998 51.1998 0 0 0 51.2-51.2002 51.1994 51.1994 0 0 0-14.996-36.2039 51.2003 51.2003 0 0 0-72.4079 0A51.2003 51.2003 0 0 0 12.8 65.6038Z" fill="#C7F0FF"/>
  <path d="M12.8 65.6038A51.1994 51.1994 0 0 0 64 116.804a51.1998 51.1998 0 0 0 51.2-51.2002 51.1994 51.1994 0 0 0-14.996-36.2039 51.2003 51.2003 0 0 0-72.4079 0A51.2003 51.2003 0 0 0 12.8 65.6038v0Z" stroke="#DAEDF7" stroke-width=".48" stroke-linecap="round" stroke-linejoin="round"/>
  <path d="m66.2362 81.9391-9.6602-7.5124a7.3823 7.3823 0 0 0-2.2592-1.102l-10.624-3.09c-1.3734-1.0982-1.2954.768-2.3936 2.1479-1.0982 1.3798-3.968 7.0323-2.5933 8.1305l12.1357 9.4375.407 2.7763a3.1835 3.1835 0 0 0 6.3079-.8614 3.1836 3.1836 0 0 0 4.1895-2.3128 3.1832 3.1832 0 0 0-.1204-1.7768l-.6976-1.8996 1.3299 1.0356a3.1848 3.1848 0 1 0 3.9783-4.9728v0Z" fill="#BD704A" stroke="#45413C" stroke-width=".48" stroke-linecap="round" stroke-linejoin="round"/>
  <path d="m54.249 86.158 1.3939 3.808a3.1848 3.1848 0 0 0 5.8527.222 3.1842 3.1842 0 0 0 .1274-2.4121M55.2141 81.4348l7.0438 5.4771M48.3994 77.5204l-2.7751-.8678" stroke="#45413C" stroke-width=".48" stroke-linecap="round" stroke-linejoin="round"/>
  <path d="m45.6297 79.0762 7.759-68.0159 48.5833 5.5423-7.7588 68.0158-48.5835-5.5422Z" fill="#915E3A"/>
  <path d="M101.165 23.6672a1.7777 1.7777 0 0 0-.376-1.3079 1.7752 1.7752 0 0 0-1.1896-.6595l-45.0496-5.1392a1.7793 1.7793 0 0 0-1.9687 1.5654l.6669-5.7945a1.2797 1.2797 0 0 1 1.408-1.1277l46.039 5.248c.337.0386.645.2095.857.4752.211.2657.308.6045.269.9418l-.656 5.7984Z" fill="#BF8256"/>
  <path d="m45.6297 79.0762 7.759-68.0159 48.5833 5.5423-7.7588 68.0158-48.5835-5.5422Z" stroke="#45413C" stroke-width=".48" stroke-linecap="round" stroke-linejoin="round"/>
  <path d="m75.8874 72.6846-.2023 1.7664-1.8892-.2112a3.5417 3.5417 0 0 0-6.8199-.777l-1.8906-.2163.2023-1.7664a1.783 1.783 0 0 1 1.9673-1.5654l7.0669.8064a1.7832 1.7832 0 0 1 1.5655 1.9635ZM75.4842 76.2174l-.2023 1.7664a1.783 1.783 0 0 1-1.9673 1.5655l-7.0669-.8064a1.783 1.783 0 0 1-1.5654-1.9687l.2022-1.7664 1.8893.2163a3.5414 3.5414 0 0 0 5.3512 2.5451 3.5418 3.5418 0 0 0 1.4686-1.7668l1.8906.215Z" fill="#FFE500"/>
  <path d="M68.5069 74.7301c0 .4715.1873.9237.5207 1.2572a1.7782 1.7782 0 0 0 2.5144 0 1.7782 1.7782 0 0 0 0-2.5144 1.778 1.778 0 0 0-3.0351 1.2572ZM59.0938 18.7621a.512.512 0 0 1 .6156-.4902l1.2532.1433a1.693 1.693 0 0 1 1.5588 1.2049c.0675.2245.0876.4606.0591.6934a1.675 1.675 0 0 1-.6582 1.165 1.6748 1.6748 0 0 1-1.3015.3108l-.7859-.0896-.128 1.1597a.5354.5354 0 0 1-.5947.5052.5359.5359 0 0 1-.3686-.2118.535.535 0 0 1-.0978-.4137l.448-3.977Zm.8473 2.0032.7219.0832a.7566.7566 0 0 0 .8012-.669.7562.7562 0 0 0-.6296-.8324l-.722-.082-.1715 1.5002ZM64.2445 19.2998a.8366.8366 0 0 1 .8243-.5017.8086.8086 0 0 1 .6912.6745l.9472 4.009a.8528.8528 0 0 1 .0282.2675.4763.4763 0 0 1-.1846.32.4752.4752 0 0 1-.3581.0909.4996.4996 0 0 1-.4749-.4263l-.1357-.6937-1.9661-.2215-.2867.64a.4957.4957 0 0 1-.553.3175.513.513 0 0 1-.349-.1807.5126.5126 0 0 1-.1182-.3748.5809.5809 0 0 1 .0768-.2279l1.8586-3.6928Zm-.215 2.5779 1.3452.1524-.4236-2.1261h-.0154l-.9062 1.9737ZM71.0669 20.1995a.4924.4924 0 0 1-.1672.3478.4931.4931 0 0 1-.3666.1206c-.2905-.032-.4928-.27-.9177-.3187-.3047-.0345-.5991.096-.6324.393-.0832.7296 2.3348.5325 2.1261 2.3577a1.6915 1.6915 0 0 1-1.9993 1.4362c-.5453-.0614-1.705-.3238-1.6295-.9882a.476.476 0 0 1 .5312-.4492c.3328.0384.6976.3596 1.1584.4121.4608.0525.7514-.1805.7898-.5273.096-.8346-2.3245-.6016-2.1376-2.2439a1.648 1.648 0 0 1 1.2713-1.3996 1.6486 1.6486 0 0 1 .6666-.0122c.3968.0512 1.3709.311 1.3069.8717ZM75.433 20.6974a.4929.4929 0 0 1-.5338.4685c-.2905-.032-.4928-.2701-.9177-.3187-.3047-.0346-.5978.096-.6324.3942-.0832.7284 2.3348.5312 2.1261 2.3565a1.692 1.692 0 0 1-2.0032 1.4362c-.5453-.0615-1.705-.3239-1.6294-.9882a.4738.4738 0 0 1 .1677-.34.4733.4733 0 0 1 .3635-.108c.3328.0371.6976.3584 1.1584.4109a.6316.6316 0 0 0 .7004-.2753.6316.6316 0 0 0 .0906-.2508c.0947-.8358-2.3257-.6029-2.1389-2.2451a1.6482 1.6482 0 0 1 .6663-1.1218 1.6492 1.6492 0 0 1 1.2729-.2862c.3994.0474 1.3735.3072 1.3095.8678ZM76.8269 20.7846a.5111.5111 0 0 1 .3931-.4869.5113.5113 0 0 1 .2226-.0034l1.2518.1434a1.6943 1.6943 0 0 1 1.5596 1.2047 1.696 1.696 0 0 1 .0596.6935 1.6737 1.6737 0 0 1-.6599 1.1631 1.6733 1.6733 0 0 1-1.3011.3089l-.7846-.0896-.128 1.161a.5357.5357 0 0 1-.3833.4753.5343.5343 0 0 1-.4185-.0505.534.534 0 0 1-.2521-.3378.5352.5352 0 0 1-.0072-.215l.448-3.9667Zm.8473 2.0032.722.0832a.7553.7553 0 0 0 .1715-1.5002l-.7219-.0832-.1716 1.5002ZM80.9049 23.2435a2.4583 2.4583 0 0 1 .862-1.7559 2.4587 2.4587 0 0 1 1.8708-.5711 2.492 2.492 0 0 1 1.6814.987 2.4931 2.4931 0 0 1 .4562 1.8956 2.4543 2.4543 0 0 1-.237.9802 2.4539 2.4539 0 0 1-.6109.8024 2.455 2.455 0 0 1-2.8431.2653 2.4557 2.4557 0 0 1-1.173-2.6035h-.0064Zm3.7658.4288c.0973-.8563-.256-1.678-1.1443-1.7792-.8884-.1011-1.4196.6196-1.5168 1.4759-.0973.8563.2457 1.6781 1.1443 1.7805.8985.1024 1.4182-.6132 1.5168-1.4772ZM87.0028 21.9454a.5126.5126 0 0 1 .19-.3867.5124.5124 0 0 1 .418-.1048l1.2455.1421c1.0905.128 1.7075.6912 1.5808 1.8022a1.3822 1.3822 0 0 1-1.4631 1.1879l1.0573 1.4259a.461.461 0 0 1 .1063.3277.5404.5404 0 0 1-.7267.4562.5403.5403 0 0 1-.2564-.2002l-1.3542-2.0826h-.0141l-.1754 1.536a.5343.5343 0 0 1-.3833.4754.5355.5355 0 0 1-.6705-.3883.534.534 0 0 1-.0073-.2151l.4531-3.9757Zm.8704 1.7984.7296.0832a.6066.6066 0 0 0 .6594-.3071.6056.6056 0 0 0 .0702-.2484.5948.5948 0 0 0-.3361-.6411.5965.5965 0 0 0-.2514-.0552l-.7283-.0832-.1434 1.2518ZM92.1766 22.9656l-.768-.087a.4607.4607 0 0 1-.4249-.544.4764.4764 0 0 1 .5376-.4339l2.6048.2969a.4776.4776 0 0 1 .4249.544.4603.4603 0 0 1-.5376.4339l-.768-.0883-.4057 3.552a.5355.5355 0 0 1-.3871.4513.5354.5354 0 0 1-.6594-.3711.536.536 0 0 1-.0159-.2082l.3993-3.5456Z" fill="#FFE500"/>
  <path d="m76.2061 51.0719.1792-7.8541-2.1197-.2483c-3.5328-.4032-3.6941 1.0112-3.6941 1.0112s-2.8275-.3225-2.9888 1.0906l-.2419 2.1197s.7885-.6259 3.6147-.3034l-1.1097 3.456-1.9776 4.7859-3.8554 2.4192 1.1712 2.2823 4.4007-.9306-2.5229 3.2922a5.3333 5.3333 0 0 0 3.9987 2.6035 5.5316 5.5316 0 0 0 4.48-1.6371l-1.7165-3.7748 4.0781 1.897 1.655-1.9584-2.5011-3.1488-.8499-5.1021Z" stroke="#FFE500" stroke-width=".48" stroke-linecap="round" stroke-linejoin="round"/>
  <path d="M68.864 59.8438a5.2415 5.2415 0 0 0 2.6407 1.0649 6.2522 6.2522 0 0 0 2.8159-.4326M69.3056 36.5297a4.9798 4.9798 0 0 0 1.4584 3.5209 4.9787 4.9787 0 0 0 5.4263 1.0793 4.9787 4.9787 0 0 0 3.0737-4.6002 4.9797 4.9797 0 0 0-1.4584-3.5208 4.978 4.978 0 0 0-5.4263-1.0793 4.9804 4.9804 0 0 0-3.0737 4.6001v0ZM69.8458 50.3398l6.3603.7258M64.5529 58.6021l-4.3865 2.2527M78.7955 60.2266l3.7658 3.1833M81.92 57.4449a24.0647 24.0647 0 0 1 .64 5.9648s1.6409-7.1372 3.1347-7.68" stroke="#FFE500" stroke-width=".48" stroke-linecap="round" stroke-linejoin="round"/>
  <path d="M73.2186 36.5299a1.0662 1.0662 0 1 0 2.1324 0 1.0662 1.0662 0 0 0-2.1324 0Z" fill="#FFE500"/>
  <path d="M76.2061 51.0719s4.48-1.6359 5.5104-4.3827c1.0304-2.7469 7.3088-1.3133 7.3088-1.3133s-3.2487 9.6512-11.9706 10.8045M69.8457 50.3397s-3.9987-2.6035-4.3827-5.504c-.384-2.9004-6.8249-2.926-6.8249-2.926s.992 10.135 9.23 13.2224M58.7622 53.376a16.627 16.627 0 0 1 1.408 7.4841s.4736-5.12 1.2608-5.7484" stroke="#FFE500" stroke-width=".48" stroke-linecap="round" stroke-linejoin="round"/>
  <path d="m45.7856 113.88-16.7834-1.773v-.03c-2.4883-20.6389-3.6582-42.829 23.2141-56.2204l1.536-.768a3.1847 3.1847 0 0 1 2.857 5.6922l-1.536.768c-6.77 3.3997-11.4752 7.3497-13.0023 14.7379-2.4077 11.136 3.7811 7.3178 5.3517 3.4138l3.6838-8.2317a3.1846 3.1846 0 0 1 5.8445 2.5305c-4.128 16.4058-3.072 19.5956-7.1821 25.0253-3.0681 4.0534-3.1769 7.2154-3.9833 14.8554Z" fill="#D18660"/>
  <path d="m58.0889 56.6476-1.3964.7014c-26.4423 13.184-25.728 34.8672-23.3293 55.219l-4.361-.461v-.03c-2.4883-20.639-3.6582-42.8291 23.2141-56.2204l1.536-.768a3.1887 3.1887 0 0 1 4.2739 1.4182" fill="#E09F7E"/>
  <path d="M57.1072 73.5511a3.3279 3.3279 0 0 0-4.1818 1.792l-3.8515 8.6042a3.3146 3.3146 0 0 1-3.0029 2.0796 3.3147 3.3147 0 0 1-3.0924-1.9439l-.2381-.5261c1.4541.512 3.799-1.664 4.6822-3.8605l3.6839-8.2317a3.1844 3.1844 0 0 1 3.967-1.7442 3.1848 3.1848 0 0 1 2.0336 3.8268v.0038Z" fill="#E09F7E"/>
  <path d="M29.0022 112.107v-.03c-2.4883-20.6389-3.6582-42.829 23.2141-56.2204l1.536-.768a3.1847 3.1847 0 0 1 2.857 5.6922l-1.536.768c-6.77 3.3997-11.4752 7.3497-13.0023 14.7379-2.4077 11.136 3.7811 7.3178 5.3517 3.4138l3.6838-8.2317a3.1846 3.1846 0 0 1 5.8445 2.5305c-4.128 16.4058-3.072 19.5956-7.1821 25.0253-3.0681 4.0534-3.1769 7.2154-3.9833 14.8554" stroke="#45413C" stroke-width=".48" stroke-linecap="round" stroke-linejoin="round"/>
</svg>
