<svg viewBox="0 0 48 48" height="48" width="48" xmlns="http://www.w3.org/2000/svg"><g transform="matrix(0.48,0,0,0.48,0,0)"><path d="M10.000 50.616 A40.000 40.000 0 1 0 90.000 50.616 A40.000 40.000 0 1 0 10.000 50.616 Z" fill="#C7F0FF" stroke="#C7F0FF"></path><path d="M40.360 86.129 A11.025 1.654 0 1 0 62.410 86.129 A11.025 1.654 0 1 0 40.360 86.129 Z" fill="#45413c" opacity=".15"></path><path d="M68.883,24a3.258,3.258,0,0,0-3.453-3.051L31.9,23.021a3.258,3.258,0,0,0-3.051,3.453L29.779,41.6l40.039-2.475Z" fill="#debb7e" stroke="#45413c" stroke-linecap="round" stroke-linejoin="round"></path><path d="M30.923,54.879a1.112,1.112,0,0,0,1.051,1.171l32.221,1.736a1.112,1.112,0,0,0,1.17-1.051l1.946-36.109-8.935-9.953L34.489,9.386a1.112,1.112,0,0,0-1.171,1.051Z" fill="#ffffff"></path><path d="M67.311,20.626l-8.343-.45a1.1,1.1,0,0,1-1.041-1.16l.449-8.343Z" fill="#C7F0FF" stroke="#45413c" stroke-linecap="round" stroke-linejoin="round"></path><path d="M38.361 18.153L50.317 18.797" fill="none" stroke="#627b8c" stroke-linecap="round" stroke-linejoin="round"></path><path d="M37.952 25.743L60.28 26.946" fill="none" stroke="#627b8c" stroke-linecap="round" stroke-linejoin="round"></path><path d="M37.543 33.334L59.871 34.537" fill="none" stroke="#627b8c" stroke-linecap="round" stroke-linejoin="round"></path><path d="M37.134 40.924L59.462 42.127" fill="none" stroke="#45413c" stroke-linecap="round" stroke-linejoin="round"></path><path d="M36.725 48.515L59.053 49.718" fill="none" stroke="#45413c" stroke-linecap="round" stroke-linejoin="round"></path><path d="M30.923,54.879a1.112,1.112,0,0,0,1.051,1.171l32.221,1.736a1.112,1.112,0,0,0,1.17-1.051l1.563-28.992L61.6,37.221,36.068,38.8l-3.987-5.406Z" fill="#f0f0f0"></path><path d="M30.923,54.879a1.112,1.112,0,0,0,1.051,1.171l32.221,1.736a1.112,1.112,0,0,0,1.17-1.051l1.946-36.109-8.935-9.953L34.489,9.386a1.112,1.112,0,0,0-1.171,1.051Z" fill="none" stroke="#45413c" stroke-linecap="round" stroke-linejoin="round"></path><path d="M69.247,29.891l-5.4,9.606-28.1,1.737-6.541-8.868,2.779,44.952a3.543,3.543,0,0,0,3.753,3.317L68.71,78.6a3.541,3.541,0,0,0,3.316-3.753Z" fill="#f0d5a8"></path><path d="M35.741,80.635,68.71,78.6a3.542,3.542,0,0,0,3.316-3.754L72,74.473l-1.246-3.379A5.63,5.63,0,0,0,65.246,67.7l-27.41,1.694a5.631,5.631,0,0,0-5.052,4.049l-.82,3.5.023.37A3.543,3.543,0,0,0,35.741,80.635Z" fill="#debb7e"></path><path d="M69.247,29.891l-5.4,9.606-28.1,1.737-6.541-8.868,2.779,44.952a3.543,3.543,0,0,0,3.753,3.317L68.71,78.6a3.541,3.541,0,0,0,3.316-3.753Z" fill="none" stroke="#45413c" stroke-linecap="round" stroke-linejoin="round"></path><path d="M50.235,47.389l.616,9.959a2.509,2.509,0,0,0,2.862,2.529" fill="none" stroke="#45413c" stroke-linecap="round" stroke-linejoin="round"></path><path d="M46.975 47.389 A3.258 3.258 0 1 0 53.491 47.389 A3.258 3.258 0 1 0 46.975 47.389 Z" fill="#ffffff" stroke="#45413c" stroke-linecap="round" stroke-linejoin="round"></path><path d="M49.418 47.389 A0.815 0.815 0 1 0 51.048 47.389 A0.815 0.815 0 1 0 49.418 47.389 Z" fill="#45413c"></path><path d="M65.391,70.056l-27.409,1.7A3.259,3.259,0,0,0,35.053,74.1l-1.4,6.007a3.529,3.529,0,0,0,2.092.53L68.71,78.6a3.529,3.529,0,0,0,2.01-.784l-2.133-5.788A3.258,3.258,0,0,0,65.391,70.056Z" fill="#f0d5a8" stroke="#45413c" stroke-linecap="round" stroke-linejoin="round"></path></g></svg>