<svg width="160" height="160" viewBox="0 0 160 160" fill="none" xmlns="http://www.w3.org/2000/svg">
<path d="M16 80C16 96.9739 22.7428 113.253 34.7452 125.255C46.7475 137.257 63.0261 144 80 144C96.9739 144 113.253 137.257 125.255 125.255C137.257 113.253 144 96.9739 144 80C144 63.0261 137.257 46.7475 125.255 34.7452C113.253 22.7428 96.9739 16 80 16C63.0261 16 46.7475 22.7428 34.7452 34.7452C22.7428 46.7475 16 63.0261 16 80V80Z" fill="#C7F0FF"/>
<path d="M52.6556 74V47.92H58.6956L64.1756 60.88L66.4156 66.64H66.5756C66.4423 65.2533 66.269 63.72 66.0556 62.04C65.8423 60.3333 65.7356 58.7067 65.7356 57.16V47.92H71.3756V74H65.3356L59.8556 61L57.6156 55.32H57.4556C57.589 56.76 57.7623 58.3067 57.9756 59.96C58.189 61.6133 58.2956 63.2133 58.2956 64.76V74H52.6556ZM84.6 59.32C83.5333 59.32 82.6267 59.1867 81.88 58.92C81.1333 58.6267 80.5333 58.2267 80.08 57.72C79.6267 57.1867 79.2933 56.5733 79.08 55.88C78.8667 55.16 78.76 54.36 78.76 53.48V49.04H76V45.96L78.96 45.8L79.48 41.92H82.96V45.8H88.12V49.04H82.96V53.44C82.96 54.4267 83.1733 55.12 83.6 55.52C84.0267 55.8933 84.7067 56.08 85.64 56.08C86.4667 56.08 87.24 55.9333 87.96 55.64L88.68 58.6C88.1467 58.7867 87.5333 58.96 86.84 59.12C86.1733 59.2533 85.4267 59.32 84.6 59.32Z" fill="url(#paint0_linear)"/>
<path d="M93.2478 59V40.28H97.4078V44.96L97.2078 47.4C97.6878 46.9467 98.2745 46.52 98.9678 46.12C99.6878 45.6933 100.528 45.48 101.488 45.48C103.008 45.48 104.101 45.9733 104.768 46.96C105.434 47.92 105.768 49.2267 105.768 50.88V59H101.608V51.4C101.608 50.5733 101.474 49.9733 101.208 49.6C100.941 49.2267 100.474 49.04 99.8078 49.04C99.3278 49.04 98.9145 49.1467 98.5678 49.36C98.2211 49.5733 97.8345 49.8667 97.4078 50.24V59H93.2478Z" fill="url(#paint1_linear)"/>
<path d="M18.9191 121.36V94.16H23.7191L24.1591 96.16H24.2791C25.0791 95.44 25.9991 94.8533 27.0391 94.4C28.0791 93.92 29.1324 93.68 30.1991 93.68C31.4257 93.68 32.5324 93.92 33.5191 94.4C34.5057 94.88 35.3457 95.56 36.0391 96.44C36.7324 97.32 37.2524 98.3867 37.5991 99.64C37.9724 100.867 38.1591 102.24 38.1591 103.76C38.1591 105.467 37.9191 106.987 37.4391 108.32C36.9591 109.627 36.3191 110.747 35.5191 111.68C34.7191 112.587 33.7991 113.28 32.7591 113.76C31.7457 114.24 30.6791 114.48 29.5591 114.48C27.7457 114.48 26.1191 113.76 24.6791 112.32H24.5191L24.7991 115.56V121.36H18.9191ZM28.1991 109.68C29.3191 109.68 30.2524 109.227 30.9991 108.32C31.7457 107.387 32.1191 105.893 32.1191 103.84C32.1191 100.267 30.9057 98.48 28.4791 98.48C27.2257 98.48 25.9991 99.0933 24.7991 100.32V108.36C25.3591 108.84 25.9324 109.187 26.5191 109.4C27.1324 109.587 27.6924 109.68 28.1991 109.68ZM46.6634 114V94.16H51.4634L51.9434 98.48H52.0634C53.0501 96.8533 54.2368 95.6533 55.6234 94.88C57.0101 94.08 58.5034 93.68 60.1034 93.68C60.9834 93.68 61.6901 93.7467 62.2234 93.88C62.7834 94.0133 63.3568 94.2133 63.9434 94.48L62.7434 99.4C62.1301 99.2133 61.5701 99.08 61.0634 99C60.5834 98.8933 59.9701 98.84 59.2234 98.84C57.9968 98.84 56.7834 99.2 55.5834 99.92C54.4101 100.64 53.3968 101.893 52.5434 103.68V114H46.6634ZM79.1278 114V98.76H71.1678V94.16H85.0078V114H79.1278ZM81.8078 91.04C80.6611 91.04 79.7145 90.72 78.9678 90.08C78.2478 89.44 77.8878 88.5733 77.8878 87.48C77.8878 86.3867 78.2478 85.5067 78.9678 84.84C79.7145 84.1467 80.6611 83.8 81.8078 83.8C82.9545 83.8 83.8878 84.1467 84.6078 84.84C85.3545 85.5067 85.7278 86.3867 85.7278 87.48C85.7278 88.5733 85.3545 89.44 84.6078 90.08C83.8878 90.72 82.9545 91.04 81.8078 91.04ZM95.3922 114V94.16H99.8322L100.232 96.6H100.392C100.766 95.8 101.286 95.12 101.952 94.56C102.619 93.9733 103.526 93.68 104.672 93.68C105.526 93.68 106.246 93.96 106.832 94.52C107.446 95.0533 107.872 95.8533 108.112 96.92C108.486 96.0133 109.019 95.2533 109.712 94.64C110.432 94 111.366 93.68 112.512 93.68C113.952 93.68 115.046 94.2533 115.792 95.4C116.566 96.52 116.952 98.08 116.952 100.08V114H111.352V100.48C111.352 99.8667 111.272 99.4133 111.112 99.12C110.952 98.8267 110.672 98.68 110.272 98.68C109.899 98.68 109.579 98.84 109.312 99.16C109.046 99.48 108.766 99.96 108.472 100.6V114H103.872V100.48C103.872 99.28 103.499 98.68 102.752 98.68C102.379 98.68 102.059 98.84 101.792 99.16C101.526 99.48 101.259 99.96 100.992 100.6V114H95.3922ZM133.177 114.48C131.63 114.48 130.177 114.253 128.817 113.8C127.483 113.32 126.323 112.64 125.337 111.76C124.35 110.88 123.577 109.8 123.017 108.52C122.457 107.213 122.177 105.733 122.177 104.08C122.177 102.453 122.457 101 123.017 99.72C123.603 98.4133 124.377 97.32 125.337 96.44C126.297 95.5333 127.39 94.8533 128.617 94.4C129.87 93.92 131.163 93.68 132.497 93.68C134.017 93.68 135.363 93.92 136.537 94.4C137.71 94.88 138.683 95.5467 139.457 96.4C140.257 97.2533 140.857 98.2667 141.257 99.44C141.657 100.587 141.857 101.84 141.857 103.2C141.857 103.733 141.817 104.253 141.737 104.76C141.683 105.24 141.63 105.6 141.577 105.84H128.057C128.35 107.28 129.003 108.333 130.017 109C131.03 109.667 132.35 110 133.977 110C134.883 110 135.737 109.88 136.537 109.64C137.363 109.4 138.217 109.053 139.097 108.6L141.057 112.16C139.91 112.88 138.643 113.453 137.257 113.88C135.87 114.28 134.51 114.48 133.177 114.48ZM132.697 98.16C131.523 98.16 130.537 98.4667 129.737 99.08C128.963 99.6933 128.43 100.627 128.137 101.88H136.617C136.323 99.4 135.017 98.16 132.697 98.16Z" fill="url(#paint2_linear)"/>
<defs>
<linearGradient id="paint0_linear" x1="72" y1="35" x2="72" y2="85" gradientUnits="userSpaceOnUse">
<stop stop-color="#2200FF"/>
<stop offset="1" stop-color="#9E00FF"/>
</linearGradient>
<linearGradient id="paint1_linear" x1="99" y1="35" x2="99" y2="85" gradientUnits="userSpaceOnUse">
<stop stop-color="#2200FF"/>
<stop offset="1" stop-color="#9E00FF"/>
</linearGradient>
<linearGradient id="paint2_linear" x1="80" y1="75" x2="80" y2="125" gradientUnits="userSpaceOnUse">
<stop stop-color="#2200FF"/>
<stop offset="1" stop-color="#9E00FF"/>
</linearGradient>
</defs>
</svg>
