<svg width="160" height="160" viewBox="0 0 160 160" fill="none" xmlns="http://www.w3.org/2000/svg">
<path d="M16 80C16 96.9739 22.7428 113.253 34.7452 125.255C46.7475 137.257 63.0261 144 80 144C96.9739 144 113.253 137.257 125.255 125.255C137.257 113.253 144 96.9739 144 80C144 63.0261 137.257 46.7475 125.255 34.7452C113.253 22.7428 96.9739 16 80 16C63.0261 16 46.7475 22.7428 34.7452 34.7452C22.7428 46.7475 16 63.0261 16 80V80Z" fill="#C7F0FF"/>
<rect x="28" y="22" width="24" height="76" rx="12" fill="#59D2AE"/>
<rect x="68" y="22" width="24" height="76" rx="12" fill="#6A93FF"/>
<rect x="108" y="22" width="24" height="76" rx="12" fill="#FAE54E"/>
<path d="M38.2143 118.44L37.7343 120.36H42.1183L41.6383 118.44C41.3609 117.395 41.0729 116.296 40.7743 115.144C40.4756 113.971 40.2089 112.829 39.9743 111.72H39.8463C39.5903 112.829 39.3236 113.971 39.0463 115.144C38.7689 116.296 38.4916 117.395 38.2143 118.44ZM30.6943 129L37.1903 108.136H42.8223L49.3183 129H44.3263L43.0783 124.04H36.7743L35.4943 129H30.6943Z" fill="url(#paint0_linear)"/>
<path d="M80.0703 129.384C77.5103 129.384 75.6009 128.669 74.3423 127.24C73.0836 125.789 72.4543 123.699 72.4543 120.968V108.136H77.1583V121.448C77.1583 122.707 77.3929 123.667 77.8623 124.328C78.3316 124.989 79.0676 125.32 80.0703 125.32C81.0729 125.32 81.8089 124.989 82.2783 124.328C82.7689 123.667 83.0143 122.707 83.0143 121.448V108.136H87.5583V120.968C87.5583 123.699 86.9396 125.789 85.7023 127.24C84.4863 128.669 82.6089 129.384 80.0703 129.384Z" fill="url(#paint1_linear)"/>
<path d="M121.382 129.384C120.038 129.384 118.78 129.16 117.606 128.712C116.454 128.243 115.441 127.56 114.566 126.664C113.713 125.768 113.041 124.659 112.55 123.336C112.06 121.992 111.814 120.445 111.814 118.696C111.814 116.947 112.06 115.4 112.55 114.056C113.062 112.691 113.745 111.549 114.598 110.632C115.473 109.693 116.497 108.979 117.67 108.488C118.844 107.997 120.102 107.752 121.446 107.752C122.854 107.752 124.049 108.029 125.03 108.584C126.033 109.117 126.876 109.725 127.558 110.408L124.966 113.32C124.518 112.872 124.028 112.509 123.494 112.232C122.961 111.955 122.278 111.816 121.446 111.816C120.764 111.816 120.134 111.976 119.558 112.296C118.982 112.595 118.481 113.032 118.054 113.608C117.628 114.184 117.286 114.888 117.03 115.72C116.796 116.552 116.678 117.491 116.678 118.536C116.678 120.691 117.084 122.365 117.894 123.56C118.726 124.733 119.974 125.32 121.638 125.32C122.044 125.32 122.428 125.267 122.79 125.16C123.153 125.053 123.452 124.893 123.686 124.68V121.096H120.646V117.256H127.91V126.856C127.206 127.517 126.278 128.104 125.126 128.616C123.974 129.128 122.726 129.384 121.382 129.384Z" fill="url(#paint2_linear)"/>
<defs>
<linearGradient id="paint0_linear" x1="40" y1="98" x2="40" y2="138" gradientUnits="userSpaceOnUse">
<stop stop-color="#2200FF"/>
<stop offset="1" stop-color="#9E00FF"/>
</linearGradient>
<linearGradient id="paint1_linear" x1="80" y1="98" x2="80" y2="138" gradientUnits="userSpaceOnUse">
<stop stop-color="#2200FF"/>
<stop offset="1" stop-color="#9E00FF"/>
</linearGradient>
<linearGradient id="paint2_linear" x1="120" y1="98" x2="120" y2="138" gradientUnits="userSpaceOnUse">
<stop stop-color="#2200FF"/>
<stop offset="1" stop-color="#9E00FF"/>
</linearGradient>
</defs>
</svg>
