<svg width="160" height="160" viewBox="0 0 160 160" fill="none" xmlns="http://www.w3.org/2000/svg">
<path d="M15.9995 79.9995C15.9995 96.9734 22.7423 113.252 34.7447 125.254C46.747 137.257 63.0257 144 79.9995 144C96.9734 144 113.252 137.257 125.254 125.254C137.257 113.252 144 96.9734 144 79.9995C144 63.0257 137.257 46.747 125.254 34.7447C113.252 22.7423 96.9734 15.9995 79.9995 15.9995C63.0257 15.9995 46.747 22.7423 34.7447 34.7447C22.7423 46.747 15.9995 63.0257 15.9995 79.9995V79.9995Z" fill="#C7F0FF"/>
<path d="M26.6869 107.96C22.2602 107.96 18.5002 107.293 15.4069 105.96C12.3669 104.573 9.80688 102.867 7.72688 100.84L13.0069 93.4C14.7135 94.7867 16.5269 95.9867 18.4469 97C20.4202 97.96 22.6069 98.44 25.0069 98.44C27.8869 98.44 30.2335 97.7733 32.0469 96.44C33.9135 95.1067 34.8469 93.1333 34.8469 90.52C34.8469 87.96 33.9669 86.0133 32.2069 84.68C30.5002 83.3467 28.2869 82.68 25.5669 82.68C24.7135 82.68 23.9402 82.7333 23.2469 82.84C22.6069 82.8933 21.9669 83.0267 21.3269 83.24C20.6869 83.4533 20.0202 83.72 19.3269 84.04C18.6335 84.36 17.8602 84.76 17.0069 85.24L11.8069 81.88L13.1669 56.2H44.2869V66.12H23.3269L22.4469 75.64C23.6202 75.2133 24.7135 74.92 25.7269 74.76C26.7402 74.5467 27.8869 74.44 29.1669 74.44C31.5135 74.44 33.7269 74.76 35.8069 75.4C37.9402 76.04 39.8069 77 41.4069 78.28C43.0069 79.56 44.2602 81.1867 45.1669 83.16C46.1269 85.1333 46.6069 87.48 46.6069 90.2C46.6069 93.0267 46.0469 95.5333 44.9269 97.72C43.8602 99.9067 42.3935 101.773 40.5269 103.32C38.7135 104.813 36.6069 105.96 34.2069 106.76C31.8069 107.56 29.3002 107.96 26.6869 107.96ZM60.6556 107V100.28C64.2823 97.24 67.589 94.4133 70.5756 91.8C73.5623 89.1333 76.1223 86.6533 78.2556 84.36C80.389 82.0667 82.0423 79.9067 83.2156 77.88C84.389 75.8533 84.9756 73.9333 84.9756 72.12C84.9756 69.6133 84.2556 67.72 82.8156 66.44C81.3756 65.1067 79.3223 64.44 76.6556 64.44C74.629 64.44 72.7623 64.9733 71.0556 66.04C69.4023 67.0533 67.8556 68.2533 66.4156 69.64L60.0956 63.32C61.429 61.9867 62.7356 60.8133 64.0156 59.8C65.349 58.7867 66.7356 57.96 68.1756 57.32C69.669 56.6267 71.2156 56.12 72.8156 55.8C74.469 55.4267 76.2823 55.24 78.2556 55.24C80.9223 55.24 83.349 55.64 85.5356 56.44C87.7223 57.1867 89.589 58.28 91.1356 59.72C92.7356 61.1067 93.9623 62.7867 94.8156 64.76C95.7223 66.7333 96.1756 68.9467 96.1756 71.4C96.1756 73.5333 95.669 75.72 94.6556 77.96C93.6423 80.1467 92.2556 82.36 90.4956 84.6C88.789 86.7867 86.8156 89 84.5756 91.24C82.3356 93.4267 79.989 95.5867 77.5356 97.72C78.9756 97.56 80.5223 97.4267 82.1756 97.32C83.8823 97.16 85.4023 97.08 86.7356 97.08H98.8156V107H60.6556ZM131.904 107.96C128.971 107.96 126.331 107.64 123.984 107C121.638 106.307 119.638 105.347 117.984 104.12C116.331 102.893 115.051 101.427 114.144 99.72C113.291 98.0133 112.864 96.12 112.864 94.04C112.864 92.4933 113.104 91.1067 113.584 89.88C114.118 88.6 114.811 87.4533 115.664 86.44C116.571 85.4267 117.584 84.52 118.704 83.72C119.878 82.92 121.131 82.2 122.464 81.56V81.24C120.331 79.7467 118.544 78.0667 117.104 76.2C115.718 74.28 115.024 71.96 115.024 69.24C115.024 67.1067 115.451 65.1867 116.304 63.48C117.158 61.72 118.331 60.2267 119.824 59C121.371 57.7733 123.211 56.84 125.344 56.2C127.478 55.56 129.798 55.24 132.304 55.24C134.864 55.24 137.158 55.5867 139.184 56.28C141.264 56.92 143.024 57.8533 144.464 59.08C145.904 60.2533 146.998 61.72 147.744 63.48C148.544 65.1867 148.944 67.08 148.944 69.16C148.944 71.56 148.224 73.6933 146.784 75.56C145.398 77.4267 143.691 79 141.664 80.28V80.6C142.998 81.24 144.251 81.9867 145.424 82.84C146.598 83.64 147.611 84.5733 148.464 85.64C149.318 86.7067 149.984 87.9333 150.464 89.32C150.944 90.6533 151.184 92.1733 151.184 93.88C151.184 95.9067 150.758 97.7733 149.904 99.48C149.051 101.187 147.798 102.68 146.144 103.96C144.544 105.187 142.544 106.173 140.144 106.92C137.744 107.613 134.998 107.96 131.904 107.96ZM135.424 77.4C137.984 75.1067 139.264 72.6267 139.264 69.96C139.264 67.9867 138.651 66.4133 137.424 65.24C136.198 64.0133 134.411 63.4 132.064 63.4C130.198 63.4 128.598 63.88 127.264 64.84C125.984 65.8 125.344 67.2667 125.344 69.24C125.344 71.32 126.278 72.9467 128.144 74.12C130.011 75.2933 132.438 76.3867 135.424 77.4ZM132.224 99.8C134.624 99.8 136.544 99.2933 137.984 98.28C139.478 97.2133 140.224 95.6133 140.224 93.48C140.224 92.3067 139.931 91.32 139.344 90.52C138.758 89.72 137.904 89 136.784 88.36C135.718 87.6667 134.438 87.0533 132.944 86.52C131.451 85.9333 129.798 85.2933 127.984 84.6C126.544 85.6667 125.344 86.8667 124.384 88.2C123.478 89.5333 123.024 91.0267 123.024 92.68C123.024 94.92 123.904 96.68 125.664 97.96C127.424 99.1867 129.611 99.8 132.224 99.8Z" fill="#FFE500"/>
<path d="M15.4069 105.96L15.0956 106.642C15.1004 106.645 15.1052 106.647 15.11 106.649L15.4069 105.96ZM7.72688 100.84L7.11524 100.406C6.90143 100.707 6.93887 101.119 7.20348 101.377L7.72688 100.84ZM13.0069 93.4L13.4798 92.8179C13.3189 92.6871 13.1109 92.6288 12.9055 92.6569C12.7 92.6849 12.5153 92.7968 12.3952 92.9659L13.0069 93.4ZM18.4469 97L18.0968 97.6633C18.1041 97.6671 18.1114 97.6708 18.1188 97.6744L18.4469 97ZM32.0469 96.44L31.6109 95.8296L31.6026 95.8358L32.0469 96.44ZM32.2069 84.68L31.7451 85.2711L31.754 85.2778L32.2069 84.68ZM23.2469 82.84L23.3092 83.5874C23.3265 83.586 23.3437 83.5839 23.3609 83.5813L23.2469 82.84ZM21.3269 83.24L21.0897 82.5285L21.0897 82.5285L21.3269 83.24ZM19.3269 84.04L19.6412 84.721L19.6412 84.721L19.3269 84.04ZM17.0069 85.24L16.5998 85.8699C16.8337 86.021 17.1319 86.0302 17.3746 85.8937L17.0069 85.24ZM11.8069 81.88L11.0579 81.8403C11.0437 82.1087 11.1741 82.3641 11.3998 82.5099L11.8069 81.88ZM13.1669 56.2V55.45C12.7681 55.45 12.439 55.7621 12.4179 56.1603L13.1669 56.2ZM44.2869 56.2H45.0369C45.0369 55.7858 44.7011 55.45 44.2869 55.45V56.2ZM44.2869 66.12V66.87C44.7011 66.87 45.0369 66.5342 45.0369 66.12H44.2869ZM23.3269 66.12V65.37C22.9394 65.37 22.6157 65.6651 22.5801 66.051L23.3269 66.12ZM22.4469 75.64L21.7001 75.571C21.6764 75.8268 21.7853 76.0769 21.9888 76.2338C22.1922 76.3907 22.4617 76.4326 22.7032 76.3448L22.4469 75.64ZM25.7269 74.76L25.8438 75.5008C25.8564 75.4988 25.8689 75.4965 25.8814 75.4939L25.7269 74.76ZM35.8069 75.4L35.5863 76.1169L35.5914 76.1184L35.8069 75.4ZM41.4069 78.28L41.8754 77.6943L41.8754 77.6943L41.4069 78.28ZM45.1669 83.16L44.4854 83.4731C44.4877 83.4781 44.49 83.4831 44.4924 83.4881L45.1669 83.16ZM44.9269 97.72L44.2593 97.3781C44.2571 97.3824 44.2549 97.3868 44.2528 97.3912L44.9269 97.72ZM40.5269 103.32L41.0037 103.899L41.0054 103.898L40.5269 103.32ZM34.2069 106.76L33.9697 106.048L33.9697 106.048L34.2069 106.76ZM26.6869 107.21C22.3318 107.21 18.6789 106.554 15.7037 105.271L15.11 106.649C18.3216 108.033 22.1886 108.71 26.6869 108.71V107.21ZM15.7181 105.278C12.745 103.921 10.2599 102.261 8.25027 100.303L7.20348 101.377C9.35385 103.472 11.9887 105.225 15.0956 106.642L15.7181 105.278ZM8.33851 101.274L13.6185 93.8341L12.3952 92.9659L7.11524 100.406L8.33851 101.274ZM12.5339 93.9821C14.2783 95.3994 16.1327 96.6267 18.0968 97.6633L18.7969 96.3367C16.921 95.3466 15.1488 94.1739 13.4798 92.8179L12.5339 93.9821ZM18.1188 97.6744C20.2036 98.6887 22.504 99.19 25.0069 99.19V97.69C22.7097 97.69 20.6368 97.2313 18.775 96.3256L18.1188 97.6744ZM25.0069 99.19C28.0018 99.19 30.5171 98.4958 32.4912 97.0442L31.6026 95.8358C29.95 97.0509 27.7719 97.69 25.0069 97.69V99.19ZM32.4828 97.0503C34.5762 95.555 35.5969 93.3367 35.5969 90.52H34.0969C34.0969 92.93 33.2509 94.6583 31.6109 95.8297L32.4828 97.0503ZM35.5969 90.52C35.5969 87.7677 34.6384 85.5811 32.6598 84.0822L31.754 85.2778C33.2954 86.4456 34.0969 88.1523 34.0969 90.52H35.5969ZM32.6686 84.089C30.7994 82.6287 28.4106 81.93 25.5669 81.93V83.43C28.1632 83.43 30.201 84.0647 31.7451 85.271L32.6686 84.089ZM25.5669 81.93C24.6832 81.93 23.8709 81.9852 23.1328 82.0987L23.3609 83.5813C24.0095 83.4815 24.7439 83.43 25.5669 83.43V81.93ZM23.1846 82.0926C22.4822 82.1511 21.7835 82.2972 21.0897 82.5285L21.564 83.9515C22.1502 83.7561 22.7316 83.6355 23.3092 83.5874L23.1846 82.0926ZM21.0897 82.5285C20.4203 82.7516 19.7278 83.0289 19.0126 83.359L19.6412 84.721C20.3126 84.4111 20.9535 84.155 21.564 83.9515L21.0897 82.5285ZM19.0126 83.359C18.2969 83.6894 17.5054 84.0991 16.6392 84.5863L17.3746 85.8937C18.2151 85.4209 18.9702 85.0306 19.6412 84.721L19.0126 83.359ZM17.4139 84.6101L12.2139 81.2501L11.3998 82.5099L16.5998 85.8699L17.4139 84.6101ZM12.5558 81.9197L13.9158 56.2397L12.4179 56.1603L11.0579 81.8403L12.5558 81.9197ZM13.1669 56.95H44.2869V55.45H13.1669V56.95ZM43.5369 56.2V66.12H45.0369V56.2H43.5369ZM44.2869 65.37H23.3269V66.87H44.2869V65.37ZM22.5801 66.051L21.7001 75.571L23.1937 75.709L24.0737 66.189L22.5801 66.051ZM22.7032 76.3448C23.8407 75.9312 24.8869 75.6519 25.8438 75.5008L25.6099 74.0192C24.5402 74.1881 23.3997 74.4955 22.1906 74.9352L22.7032 76.3448ZM25.8814 75.4939C26.8337 75.2934 27.9272 75.19 29.1669 75.19V73.69C27.8466 73.69 26.6468 73.7999 25.5724 74.0261L25.8814 75.4939ZM29.1669 75.19C31.4446 75.19 33.5831 75.5005 35.5863 76.1168L36.0274 74.6832C33.8706 74.0195 31.5825 73.69 29.1669 73.69V75.19ZM35.5914 76.1184C37.6407 76.7332 39.4197 77.6507 40.9384 78.8656L41.8754 77.6943C40.194 76.3493 38.2397 75.3468 36.0224 74.6816L35.5914 76.1184ZM40.9384 78.8656C42.4416 80.0683 43.6245 81.5995 44.4854 83.4731L45.8484 82.8469C44.8959 80.7739 43.5721 79.0517 41.8754 77.6943L40.9384 78.8656ZM44.4924 83.4881C45.3923 85.3377 45.8569 87.5671 45.8569 90.2H47.3569C47.3569 87.3929 46.8615 84.929 45.8413 82.8319L44.4924 83.4881ZM45.8569 90.2C45.8569 92.9257 45.3175 95.3122 44.2593 97.3781L45.5944 98.0619C46.7762 95.7545 47.3569 93.1276 47.3569 90.2H45.8569ZM44.2528 97.3912C43.2327 99.4823 41.8326 101.264 40.0484 102.742L41.0054 103.898C42.9545 102.283 44.4877 100.331 45.601 98.0488L44.2528 97.3912ZM40.0501 102.741C38.3131 104.172 36.2891 105.275 33.9697 106.048L34.444 107.472C36.9246 106.645 39.114 105.455 41.0037 103.899L40.0501 102.741ZM33.9697 106.048C31.6487 106.822 29.2223 107.21 26.6869 107.21V108.71C29.3781 108.71 31.9651 108.298 34.444 107.472L33.9697 106.048ZM60.6556 107H59.9056C59.9056 107.414 60.2414 107.75 60.6556 107.75V107ZM60.6556 100.28L60.1738 99.7052C60.0038 99.8477 59.9056 100.058 59.9056 100.28H60.6556ZM70.5756 91.8L71.0695 92.3645L71.0751 92.3595L70.5756 91.8ZM78.2556 84.36L78.8048 84.8708L78.8048 84.8708L78.2556 84.36ZM83.2156 77.88L82.5666 77.5042L82.5666 77.5042L83.2156 77.88ZM82.8156 66.44L82.3061 66.9903C82.3098 66.9938 82.3136 66.9972 82.3174 67.0006L82.8156 66.44ZM71.0556 66.04L71.4476 66.6795L71.4531 66.676L71.0556 66.04ZM66.4156 69.64L65.8853 70.1703C66.1743 70.4593 66.6415 70.4637 66.9359 70.1802L66.4156 69.64ZM60.0956 63.32L59.5653 62.7897C59.2724 63.0826 59.2724 63.5574 59.5653 63.8503L60.0956 63.32ZM64.0156 59.8L63.5618 59.2029C63.5579 59.2059 63.554 59.2089 63.5501 59.212L64.0156 59.8ZM68.1756 57.32L68.4803 58.0054L68.4915 58.0003L68.1756 57.32ZM72.8156 55.8L72.9627 56.5354C72.9688 56.5342 72.9748 56.5329 72.9808 56.5316L72.8156 55.8ZM85.5356 56.44L85.2779 57.1443C85.283 57.1462 85.2881 57.148 85.2933 57.1498L85.5356 56.44ZM91.1356 59.72L90.6246 60.2689C90.6311 60.275 90.6377 60.2809 90.6444 60.2868L91.1356 59.72ZM94.8156 64.76L94.1272 65.0577C94.1295 65.0629 94.1318 65.068 94.1341 65.0731L94.8156 64.76ZM94.6556 77.96L95.3361 78.2754L95.339 78.2691L94.6556 77.96ZM90.4956 84.6L89.9059 84.1366L89.9044 84.1385L90.4956 84.6ZM84.5756 91.24L85.0996 91.7767L85.106 91.7703L84.5756 91.24ZM77.5356 97.72L77.0435 97.154C76.7959 97.3694 76.717 97.7206 76.8487 98.0212C76.9805 98.3217 77.2923 98.5016 77.6185 98.4654L77.5356 97.72ZM82.1756 97.32L82.2239 98.0684C82.2312 98.068 82.2384 98.0674 82.2456 98.0667L82.1756 97.32ZM98.8156 97.08H99.5656C99.5656 96.6658 99.2298 96.33 98.8156 96.33V97.08ZM98.8156 107V107.75C99.2298 107.75 99.5656 107.414 99.5656 107H98.8156ZM61.4056 107V100.28H59.9056V107H61.4056ZM61.1374 100.855C64.7674 97.812 68.0782 94.9818 71.0695 92.3644L70.0817 91.2356C67.0997 93.8448 63.7972 96.668 60.1738 99.7052L61.1374 100.855ZM71.0751 92.3595C74.0746 89.6814 76.652 87.185 78.8048 84.8708L77.7065 83.8492C75.5926 86.1216 73.05 88.5853 70.0761 91.2405L71.0751 92.3595ZM78.8048 84.8708C80.9644 82.5492 82.6556 80.3442 83.8647 78.2558L82.5666 77.5042C81.429 79.4691 79.8135 81.5841 77.7065 83.8492L78.8048 84.8708ZM83.8647 78.2558C85.0853 76.1474 85.7256 74.0984 85.7256 72.12H84.2256C84.2256 73.7683 83.6926 75.5592 82.5666 77.5042L83.8647 78.2558ZM85.7256 72.12C85.7256 69.4676 84.9589 67.3417 83.3139 65.8794L82.3174 67.0006C83.5523 68.0983 84.2256 69.7591 84.2256 72.12H85.7256ZM83.3252 65.8897C81.7032 64.3879 79.4425 63.69 76.6556 63.69V65.19C79.2021 65.19 81.048 65.8255 82.3061 66.9903L83.3252 65.8897ZM76.6556 63.69C74.4894 63.69 72.4849 64.2623 70.6581 65.404L71.4531 66.676C73.0397 65.6844 74.7685 65.19 76.6556 65.19V63.69ZM70.6637 65.4005C68.9627 66.4431 67.3732 67.6766 65.8954 69.0998L66.9359 70.1802C68.338 68.83 69.8419 67.6636 71.4475 66.6794L70.6637 65.4005ZM66.946 69.1097L60.626 62.7897L59.5653 63.8503L65.8853 70.1703L66.946 69.1097ZM60.626 63.8503C61.9419 62.5344 63.227 61.3809 64.4812 60.388L63.5501 59.212C62.2442 60.2458 60.916 61.4389 59.5653 62.7897L60.626 63.8503ZM64.4694 60.3971C65.7595 59.4167 67.0964 58.6204 68.4802 58.0054L67.871 56.6346C66.3748 57.2996 64.9384 58.1567 63.5618 59.2029L64.4694 60.3971ZM68.4915 58.0003C69.9314 57.3317 71.4215 56.8437 72.9627 56.5354L72.6685 55.0646C71.0098 55.3963 69.4065 55.9216 67.8598 56.6397L68.4915 58.0003ZM72.9808 56.5316C74.572 56.1723 76.329 55.99 78.2556 55.99V54.49C76.2356 54.49 74.366 54.681 72.6504 55.0684L72.9808 56.5316ZM78.2556 55.99C80.847 55.99 83.1849 56.3786 85.2779 57.1443L85.7933 55.7357C83.513 54.9014 80.9976 54.49 78.2556 54.49V55.99ZM85.2933 57.1498C87.3895 57.8655 89.1621 58.9073 90.6246 60.2689L91.6467 59.1711C90.0158 57.6527 88.0551 56.5078 85.778 55.7302L85.2933 57.1498ZM90.6444 60.2868C92.158 61.5985 93.3179 63.1861 94.1272 65.0577L95.504 64.4623C94.6067 62.3873 93.3133 60.6148 91.6268 59.1532L90.6444 60.2868ZM94.1341 65.0731C94.9901 66.9362 95.4256 69.0407 95.4256 71.4H96.9256C96.9256 68.8526 96.4544 66.5304 95.4971 64.4469L94.1341 65.0731ZM95.4256 71.4C95.4256 73.4117 94.9484 75.4933 93.9723 77.6509L95.339 78.2691C96.3896 75.9467 96.9256 73.655 96.9256 71.4H95.4256ZM93.9751 77.6447C92.9902 79.7701 91.6363 81.9343 89.9059 84.1366L91.0854 85.0634C92.8749 82.7857 94.2944 80.5232 95.3361 78.2753L93.9751 77.6447ZM89.9044 84.1385C88.219 86.2979 86.2666 88.4884 84.0453 90.7097L85.106 91.7703C87.3647 89.5116 89.3589 87.2754 91.0869 85.0615L89.9044 84.1385ZM84.0517 90.7033C81.8224 92.8795 79.4864 95.0298 77.0435 97.154L78.0278 98.286C80.4915 96.1435 82.8488 93.9738 85.0995 91.7767L84.0517 90.7033ZM77.6185 98.4654C79.0455 98.3069 80.5805 98.1745 82.2239 98.0684L82.1273 96.5716C80.4641 96.6789 78.9058 96.8131 77.4528 96.9746L77.6185 98.4654ZM82.2456 98.0667C83.9352 97.9083 85.4312 97.83 86.7356 97.83V96.33C85.3734 96.33 83.8294 96.4117 82.1056 96.5733L82.2456 98.0667ZM86.7356 97.83H98.8156V96.33H86.7356V97.83ZM98.0656 97.08V107H99.5656V97.08H98.0656ZM98.8156 106.25H60.6556V107.75H98.8156V106.25ZM123.984 107L123.772 107.719C123.777 107.721 123.782 107.722 123.787 107.724L123.984 107ZM117.984 104.12L117.537 104.722L117.537 104.722L117.984 104.12ZM114.144 99.72L113.474 100.055C113.476 100.061 113.479 100.066 113.482 100.072L114.144 99.72ZM113.584 89.88L112.892 89.5915C112.89 89.5966 112.888 89.6016 112.886 89.6067L113.584 89.88ZM115.664 86.44L115.105 85.9399C115.1 85.9455 115.096 85.9512 115.091 85.9569L115.664 86.44ZM118.704 83.72L118.282 83.1003C118.277 83.1034 118.273 83.1065 118.268 83.1097L118.704 83.72ZM122.464 81.56L122.789 82.2361C123.049 82.1113 123.214 81.8484 123.214 81.56H122.464ZM122.464 81.24H123.214C123.214 80.9953 123.095 80.7659 122.894 80.6256L122.464 81.24ZM117.104 76.2L116.496 76.6391C116.501 76.6455 116.506 76.6518 116.511 76.6581L117.104 76.2ZM116.304 63.48L116.975 63.8154L116.979 63.8072L116.304 63.48ZM119.824 59L119.358 58.4123L119.348 58.4205L119.824 59ZM125.344 56.2L125.129 55.4816L125.129 55.4816L125.344 56.2ZM139.184 56.28L138.942 56.9896C138.949 56.9921 138.956 56.9945 138.964 56.9968L139.184 56.28ZM144.464 59.08L143.978 59.6509C143.982 59.6545 143.986 59.658 143.991 59.6614L144.464 59.08ZM147.744 63.48L147.054 63.7729C147.058 63.7815 147.061 63.7899 147.065 63.7983L147.744 63.48ZM146.784 75.56L146.19 75.1018L146.182 75.1128L146.784 75.56ZM141.664 80.28L141.264 79.6459C141.046 79.7833 140.914 80.0227 140.914 80.28H141.664ZM141.664 80.6H140.914C140.914 80.8884 141.08 81.1513 141.34 81.2761L141.664 80.6ZM145.424 82.84L144.983 83.4466C144.989 83.451 144.996 83.4554 145.002 83.4597L145.424 82.84ZM148.464 85.64L149.05 85.1715L149.05 85.1715L148.464 85.64ZM150.464 89.32L149.756 89.5654L149.759 89.574L150.464 89.32ZM149.904 99.48L150.575 99.8154L150.575 99.8154L149.904 99.48ZM146.144 103.96L146.601 104.555L146.604 104.553L146.144 103.96ZM140.144 106.92L140.353 107.641C140.357 107.639 140.362 107.638 140.367 107.636L140.144 106.92ZM135.424 77.4L135.183 78.1102C135.44 78.1972 135.723 78.1393 135.925 77.9586L135.424 77.4ZM137.424 65.24L136.894 65.7703C136.898 65.7743 136.902 65.7781 136.906 65.782L137.424 65.24ZM127.264 64.84L126.826 64.2313C126.822 64.2342 126.818 64.2371 126.814 64.24L127.264 64.84ZM128.144 74.12L127.745 74.755L127.745 74.755L128.144 74.12ZM137.984 98.28L138.416 98.8934L138.42 98.8903L137.984 98.28ZM136.784 88.36L136.376 88.9888C136.388 88.9966 136.4 89.0041 136.412 89.0112L136.784 88.36ZM132.944 86.52L132.67 87.2181C132.677 87.2209 132.685 87.2237 132.692 87.2263L132.944 86.52ZM127.984 84.6L128.252 83.8995C128.013 83.808 127.744 83.8449 127.538 83.9973L127.984 84.6ZM124.384 88.2L123.776 87.7618C123.772 87.7672 123.768 87.7727 123.764 87.7783L124.384 88.2ZM125.664 97.96L125.223 98.5666C125.227 98.5695 125.231 98.5724 125.236 98.5753L125.664 97.96ZM131.904 107.21C129.025 107.21 126.452 106.896 124.182 106.276L123.787 107.724C126.21 108.384 128.918 108.71 131.904 108.71V107.21ZM124.197 106.281C121.919 105.608 120.002 104.683 118.431 103.518L117.537 104.722C119.273 106.01 121.356 107.006 123.772 107.719L124.197 106.281ZM118.431 103.518C116.861 102.353 115.658 100.97 114.807 99.3681L113.482 100.072C114.444 101.883 115.801 103.434 117.537 104.722L118.431 103.518ZM114.815 99.3846C114.019 97.7912 113.614 96.0142 113.614 94.04H112.114C112.114 96.2258 112.564 98.2355 113.474 100.055L114.815 99.3846ZM113.614 94.04C113.614 92.5709 113.842 91.2791 114.283 90.1533L112.886 89.6067C112.366 90.9342 112.114 92.4158 112.114 94.04H113.614ZM114.277 90.1685C114.782 88.9557 115.436 87.8753 116.238 86.9231L115.091 85.9569C114.186 87.0314 113.453 88.2443 112.892 89.5915L114.277 90.1685ZM116.223 86.9401C117.093 85.9684 118.065 85.0986 119.14 84.3303L118.268 83.1097C117.104 83.9414 116.049 84.8849 115.105 85.9399L116.223 86.9401ZM119.127 84.3397C120.268 83.5618 121.488 82.8605 122.789 82.2361L122.14 80.8839C120.774 81.5395 119.488 82.2782 118.282 83.1003L119.127 84.3397ZM123.214 81.56V81.24H121.714V81.56H123.214ZM122.894 80.6256C120.817 79.1713 119.087 77.5425 117.698 75.7419L116.511 76.6581C118.001 78.5908 119.845 80.3221 122.034 81.8544L122.894 80.6256ZM117.712 75.7609C116.431 73.9871 115.774 71.8266 115.774 69.24H114.274C114.274 72.0934 115.004 74.5729 116.496 76.6391L117.712 75.7609ZM115.774 69.24C115.774 67.2092 116.18 65.4062 116.975 63.8154L115.634 63.1446C114.722 64.9671 114.274 67.0041 114.274 69.24H115.774ZM116.979 63.8072C117.786 62.1435 118.892 60.7366 120.3 59.5795L119.348 58.4205C117.77 59.7167 116.53 61.2965 115.63 63.1528L116.979 63.8072ZM120.29 59.5876C121.754 58.4271 123.506 57.5345 125.56 56.9184L125.129 55.4816C122.916 56.1455 120.988 57.1195 119.358 58.4124L120.29 59.5876ZM125.56 56.9184C127.615 56.3018 129.862 55.99 132.304 55.99V54.49C129.734 54.49 127.34 54.8182 125.129 55.4816L125.56 56.9184ZM132.304 55.99C134.797 55.99 137.007 56.3277 138.942 56.9896L139.427 55.5704C137.309 54.8457 134.931 54.49 132.304 54.49V55.99ZM138.964 56.9968C140.961 57.6113 142.627 58.4997 143.978 59.6509L144.951 58.5091C143.422 57.207 141.568 56.2287 139.405 55.5632L138.964 56.9968ZM143.991 59.6614C145.333 60.7553 146.353 62.1219 147.054 63.7729L148.435 63.1871C147.642 61.3181 146.476 59.7513 144.938 58.4986L143.991 59.6614ZM147.065 63.7983C147.814 65.3954 148.194 67.1785 148.194 69.16H149.694C149.694 66.9815 149.275 64.9779 148.423 63.1617L147.065 63.7983ZM148.194 69.16C148.194 71.3975 147.527 73.369 146.191 75.1019L147.378 76.0181C148.921 74.0177 149.694 71.7225 149.694 69.16H148.194ZM146.182 75.1128C144.852 76.903 143.215 78.4137 141.264 79.6459L142.065 80.9141C144.167 79.5863 145.943 77.9504 147.386 76.0072L146.182 75.1128ZM140.914 80.28V80.6H142.414V80.28H140.914ZM141.34 81.2761C142.633 81.8969 143.847 82.6204 144.983 83.4466L145.866 82.2334C144.655 81.3529 143.362 80.5831 141.989 79.9239L141.34 81.2761ZM145.002 83.4597C146.116 84.2193 147.074 85.1023 147.879 86.1085L149.05 85.1715C148.148 84.0443 147.079 83.0606 145.847 82.2203L145.002 83.4597ZM147.879 86.1085C148.675 87.1036 149.302 88.2535 149.756 89.5653L151.173 89.0747C150.667 87.6131 149.961 86.3098 149.05 85.1715L147.879 86.1085ZM149.759 89.574C150.204 90.8112 150.434 92.2428 150.434 93.88H151.934C151.934 92.1039 151.685 90.4955 151.17 89.066L149.759 89.574ZM150.434 93.88C150.434 95.7977 150.032 97.5485 149.234 99.1446L150.575 99.8154C151.484 97.9982 151.934 96.0157 151.934 93.88H150.434ZM149.234 99.1446C148.435 100.741 147.258 102.149 145.685 103.367L146.604 104.553C148.337 103.211 149.667 101.632 150.575 99.8154L149.234 99.1446ZM145.688 103.365C144.173 104.526 142.257 105.477 139.922 106.204L140.367 107.636C142.832 106.869 144.916 105.847 146.601 104.555L145.688 103.365ZM139.936 106.199C137.618 106.869 134.943 107.21 131.904 107.21V108.71C135.052 108.71 137.871 108.357 140.353 107.641L139.936 106.199ZM135.925 77.9586C138.595 75.5668 140.014 72.8977 140.014 69.96H138.514C138.514 72.3557 137.374 74.6466 134.924 76.8414L135.925 77.9586ZM140.014 69.96C140.014 67.8182 139.342 66.0361 137.943 64.698L136.906 65.782C137.96 66.7906 138.514 68.1551 138.514 69.96H140.014ZM137.955 64.7097C136.544 63.2985 134.538 62.65 132.064 62.65V64.15C134.284 64.15 135.852 64.7282 136.894 65.7703L137.955 64.7097ZM132.064 62.65C130.063 62.65 128.304 63.1672 126.826 64.2313L127.703 65.4486C128.891 64.5928 130.333 64.15 132.064 64.15V62.65ZM126.814 64.24C125.301 65.3748 124.594 67.092 124.594 69.24H126.094C126.094 67.4414 126.667 66.2252 127.714 65.44L126.814 64.24ZM124.594 69.24C124.594 71.596 125.676 73.4543 127.745 74.755L128.544 73.485C126.879 72.439 126.094 71.044 126.094 69.24H124.594ZM127.745 74.755C129.678 75.9697 132.163 77.0854 135.183 78.1102L135.665 76.6898C132.713 75.6879 130.344 74.617 128.544 73.485L127.745 74.755ZM132.224 100.55C134.724 100.55 136.811 100.023 138.416 98.8934L137.553 97.6666C136.278 98.564 134.525 99.05 132.224 99.05V100.55ZM138.42 98.8903C140.145 97.6585 140.974 95.8105 140.974 93.48H139.474C139.474 95.4162 138.811 96.7681 137.548 97.6697L138.42 98.8903ZM140.974 93.48C140.974 92.1772 140.647 91.0274 139.949 90.0765L138.74 90.9635C139.216 91.6126 139.474 92.4362 139.474 93.48H140.974ZM139.949 90.0765C139.285 89.1703 138.342 88.386 137.156 87.7088L136.412 89.0112C137.467 89.614 138.231 90.2697 138.74 90.9635L139.949 90.0765ZM137.193 87.7312C136.067 86.9993 134.732 86.3621 133.197 85.8137L132.692 87.2263C134.143 87.7446 135.368 88.334 136.376 88.9888L137.193 87.7312ZM133.219 85.8219C131.723 85.2343 130.067 84.5934 128.252 83.8995L127.717 85.3005C129.528 85.9932 131.179 86.6324 132.67 87.2181L133.219 85.8219ZM127.538 83.9973C126.041 85.1059 124.785 86.3601 123.776 87.7618L124.993 88.6382C125.904 87.3732 127.047 86.2274 128.431 85.2027L127.538 83.9973ZM123.764 87.7783C122.771 89.2393 122.274 90.8803 122.274 92.68H123.774C123.774 91.173 124.185 89.8274 125.005 88.6217L123.764 87.7783ZM122.274 92.68C122.274 95.1516 123.263 97.1406 125.223 98.5666L126.106 97.3534C124.546 96.2194 123.774 94.6884 123.774 92.68H122.274ZM125.236 98.5753C127.147 99.9073 129.492 100.55 132.224 100.55V99.05C129.73 99.05 127.702 98.4661 126.093 97.3447L125.236 98.5753Z" fill="#45413C"/>
</svg>
