<svg width="96" height="96" fill="none" xmlns="http://www.w3.org/2000/svg">
  <path d="M16.5 85.5h63v-63l-18-18h-45v81z" fill="#FFE0B2"/>
  <path d="M79.5 42c-.828 0-1.5-.672-1.5-1.5v-18c0-.828.672-1.5 1.5-1.5s1.5.672 1.5 1.5v18c0 .828-.672 1.5-1.5 1.5zM16.5 41.9995c-.828 0-1.5-.672-1.5-1.5v-36c0-.828.672-1.5 1.5-1.5h39c.828 0 1.5.672 1.5 1.5s-.672 1.5-1.5 1.5H18v34.5c0 .828-.672 1.5-1.5 1.5z" fill="#455A64"/>
  <path d="M64.437 22.5c-1.659 0-2.937-1.341-2.937-3v-15l17.937 18h-15z" fill="#fff"/>
  <path d="M79.497 23.9998c-.021-.003-.042 0-.06 0H61.5c-.828 0-1.5-.672-1.5-1.5v-18c0-.606.366-1.155.927-1.386.558-.234 1.203-.102 1.635.327l17.715 17.778c.432.264.717.738.717 1.281.003.828-.672 1.5-1.497 1.5zm-16.497-3h12.822L63 8.1298v12.87z" fill="#455A64"/>
  <path d="M85.5 91.5c3.3 0 6-2.7 6-6v-33c0-3.3-2.7-6-6-6h-75c-3.3 0-6 2.7-6 6v33c0 3.3 2.697 6 6 6h75z" fill="#fff"/>
  <path d="M88.734 91.5H9.111C9.042 91.134 9 90.384 9 90V54c0-1.659 1.341-3 3-3h78c.474 0 .933.069 1.377.177v37.731c-.996.585-1.875 1.713-2.643 2.592z" fill="#ECEFF1"/>
  <path d="M84 48H12v43.5h72V48z" fill="#80D8FF"/>
  <path d="M84 48H12v3h72v-3z" fill="#A9E4FF"/>
  <path d="M12 76.5v-15c0-.828-.675-1.5-1.5-1.5S9 60.672 9 61.5v15c0 .828.672 1.5 1.5 1.5.825 0 1.5-.672 1.5-1.5zM87 70.5v-3c0-.828-.675-1.5-1.5-1.5-.828 0-1.5.672-1.5 1.5v3c0 .828.672 1.5 1.5 1.5.825 0 1.5-.672 1.5-1.5z" fill="#455A64"/>
  <path d="M85.5 93h-75C6.366 93 3 89.634 3 85.5v-33c0-4.134 3.366-7.5 7.5-7.5h75c4.134 0 7.5 3.366 7.5 7.5v33c0 4.134-3.366 7.5-7.5 7.5zm-75-45C8.019 48 6 50.019 6 52.5v33c0 2.481 2.019 4.5 4.5 4.5h75c2.481 0 4.5-2.019 4.5-4.5v-33c0-2.481-2.019-4.5-4.5-4.5h-75z" fill="#455A64"/>
  <path d="M73.5 87h-3c-.828 0-1.5-.672-1.5-1.5s.672-1.5 1.5-1.5H72v-1.5c0-.828.672-1.5 1.5-1.5s1.5.672 1.5 1.5v3c0 .828-.672 1.5-1.5 1.5zM73.5 57c-.828 0-1.5-.672-1.5-1.5V54h-1.5c-.828 0-1.5-.672-1.5-1.5s.672-1.5 1.5-1.5h3c.828 0 1.5.672 1.5 1.5v3c0 .828-.672 1.5-1.5 1.5zM37.5 57c-.828 0-1.5-.672-1.5-1.5v-3c0-.828.672-1.5 1.5-1.5h3c.828 0 1.5.672 1.5 1.5s-.672 1.5-1.5 1.5H39v1.5c0 .828-.672 1.5-1.5 1.5zM40.5 87h-3c-.828 0-1.5-.672-1.5-1.5v-3c0-.828.672-1.5 1.5-1.5s1.5.672 1.5 1.5V84h1.5c.828 0 1.5.672 1.5 1.5s-.672 1.5-1.5 1.5zM50.104 80v-2.176h5.888v-15.04h-4.576v-1.696c1.216-.1707 2.2293-.3733 3.04-.608.8107-.2347 1.5467-.5333 2.208-.896h1.952v18.24h5.344V80H50.104zM41.64 37V13h3.12v24h-3.12z" fill="#455A64"/>
</svg>
