<svg width="160" height="160" viewBox="0 0 160 160" fill="none" xmlns="http://www.w3.org/2000/svg">
<path d="M15.9995 79.9995C15.9995 96.9734 22.7423 113.252 34.7447 125.254C46.747 137.257 63.0257 144 79.9995 144C96.9734 144 113.252 137.257 125.254 125.254C137.257 113.252 144 96.9734 144 79.9995C144 63.0257 137.257 46.747 125.254 34.7447C113.252 22.7423 96.9734 15.9995 79.9995 15.9995C63.0257 15.9995 46.747 22.7423 34.7447 34.7447C22.7423 46.747 15.9995 63.0257 15.9995 79.9995V79.9995Z" fill="#C7F0FF"/>
<path d="M7.29322 89V84.716H13.4492V71.504H8.37322V68.228C9.14122 68.108 9.82522 67.988 10.4252 67.868C11.0492 67.724 11.6132 67.568 12.1172 67.4C12.6212 67.232 13.0892 67.052 13.5212 66.86C13.9772 66.644 14.4212 66.404 14.8532 66.14H18.7412V84.716H23.9252V89H7.29322ZM32.9832 89C33.0792 87.104 33.2592 85.364 33.5232 83.78C33.8112 82.172 34.2072 80.648 34.7112 79.208C35.2392 77.744 35.9112 76.328 36.7272 74.96C37.5432 73.568 38.5512 72.116 39.7512 70.604H28.2672V66.14H45.4392V69.38C43.9992 70.988 42.8352 72.5 41.9472 73.916C41.0592 75.308 40.3632 76.76 39.8592 78.272C39.3552 79.76 38.9952 81.368 38.7792 83.096C38.5632 84.8 38.4072 86.768 38.3112 89H32.9832ZM57.6651 89.432C55.6971 89.432 54.0051 89.144 52.5891 88.568C51.1731 87.968 50.0211 87.176 49.1331 86.192L51.5811 82.844C52.3491 83.516 53.2011 84.068 54.1371 84.5C55.0971 84.932 56.1051 85.148 57.1611 85.148C58.4091 85.148 59.4291 84.92 60.2211 84.464C61.0371 83.984 61.4451 83.312 61.4451 82.448C61.4451 81.944 61.3371 81.488 61.1211 81.08C60.9051 80.672 60.5331 80.336 60.0051 80.072C59.4771 79.784 58.7691 79.568 57.8811 79.424C56.9931 79.256 55.8771 79.172 54.5331 79.172V75.428C56.7891 75.428 58.3731 75.152 59.2851 74.6C60.2211 74.024 60.6891 73.28 60.6891 72.368C60.6891 71.576 60.3891 70.964 59.7891 70.532C59.1891 70.076 58.3611 69.848 57.3051 69.848C56.3931 69.848 55.5531 70.028 54.7851 70.388C54.0171 70.748 53.2371 71.24 52.4451 71.864L49.7811 68.624C50.9091 67.712 52.1091 67.004 53.3811 66.5C54.6771 65.972 56.0691 65.708 57.5571 65.708C58.8051 65.708 59.9451 65.852 60.9771 66.14C62.0091 66.404 62.8971 66.812 63.6411 67.364C64.3851 67.892 64.9611 68.54 65.3691 69.308C65.7771 70.076 65.9811 70.964 65.9811 71.972C65.9811 73.172 65.5971 74.192 64.8291 75.032C64.0611 75.848 62.9931 76.52 61.6251 77.048V77.192C63.0651 77.576 64.2771 78.236 65.2611 79.172C66.2451 80.084 66.7371 81.284 66.7371 82.772C66.7371 83.828 66.4851 84.776 65.9811 85.616C65.5011 86.432 64.8411 87.128 64.0011 87.704C63.1851 88.256 62.2251 88.688 61.1211 89C60.0171 89.288 58.8651 89.432 57.6651 89.432ZM79.395 89.432C77.403 89.432 75.711 89.132 74.319 88.532C72.951 87.908 71.799 87.14 70.863 86.228L73.239 82.88C74.007 83.504 74.823 84.044 75.687 84.5C76.575 84.932 77.559 85.148 78.639 85.148C79.935 85.148 80.991 84.848 81.807 84.248C82.647 83.648 83.067 82.76 83.067 81.584C83.067 80.432 82.671 79.556 81.879 78.956C81.111 78.356 80.115 78.056 78.891 78.056C78.507 78.056 78.159 78.08 77.847 78.128C77.559 78.152 77.271 78.212 76.983 78.308C76.695 78.404 76.395 78.524 76.083 78.668C75.771 78.812 75.423 78.992 75.039 79.208L72.699 77.696L73.311 66.14H87.315V70.604H77.883L77.487 74.888C78.015 74.696 78.507 74.564 78.963 74.492C79.419 74.396 79.935 74.348 80.511 74.348C81.567 74.348 82.563 74.492 83.499 74.78C84.459 75.068 85.299 75.5 86.019 76.076C86.739 76.652 87.303 77.384 87.711 78.272C88.143 79.16 88.359 80.216 88.359 81.44C88.359 82.712 88.107 83.84 87.603 84.824C87.123 85.808 86.463 86.648 85.623 87.344C84.807 88.016 83.859 88.532 82.779 88.892C81.699 89.252 80.571 89.432 79.395 89.432ZM92.881 89V85.976C94.513 84.608 96.001 83.336 97.345 82.16C98.689 80.96 99.841 79.844 100.801 78.812C101.761 77.78 102.505 76.808 103.033 75.896C103.561 74.984 103.825 74.12 103.825 73.304C103.825 72.176 103.501 71.324 102.853 70.748C102.205 70.148 101.281 69.848 100.081 69.848C99.169 69.848 98.329 70.088 97.561 70.568C96.817 71.024 96.121 71.564 95.473 72.188L92.629 69.344C93.229 68.744 93.817 68.216 94.393 67.76C94.993 67.304 95.617 66.932 96.265 66.644C96.937 66.332 97.633 66.104 98.353 65.96C99.097 65.792 99.913 65.708 100.801 65.708C102.001 65.708 103.093 65.888 104.077 66.248C105.061 66.584 105.901 67.076 106.597 67.724C107.317 68.348 107.869 69.104 108.253 69.992C108.661 70.88 108.865 71.876 108.865 72.98C108.865 73.94 108.637 74.924 108.181 75.932C107.725 76.916 107.101 77.912 106.309 78.92C105.541 79.904 104.653 80.9 103.645 81.908C102.637 82.892 101.581 83.864 100.477 84.824C101.125 84.752 101.821 84.692 102.565 84.644C103.333 84.572 104.017 84.536 104.617 84.536H110.053V89H92.881ZM123.791 89.432C122.615 89.432 121.475 89.216 120.371 88.784C119.267 88.352 118.283 87.68 117.419 86.768C116.555 85.856 115.859 84.692 115.331 83.276C114.803 81.836 114.539 80.108 114.539 78.092C114.539 75.956 114.815 74.108 115.367 72.548C115.919 70.988 116.651 69.704 117.563 68.696C118.499 67.688 119.555 66.944 120.731 66.464C121.907 65.96 123.131 65.708 124.403 65.708C126.035 65.708 127.463 65.984 128.687 66.536C129.911 67.064 130.907 67.7 131.675 68.444L128.903 71.612C128.423 71.18 127.823 70.808 127.103 70.496C126.383 70.16 125.639 69.992 124.871 69.992C124.175 69.992 123.503 70.124 122.855 70.388C122.231 70.628 121.667 71.036 121.163 71.612C120.683 72.164 120.287 72.896 119.975 73.808C119.663 74.72 119.483 75.848 119.435 77.192C120.251 76.4 121.151 75.788 122.135 75.356C123.143 74.924 124.079 74.708 124.943 74.708C125.951 74.708 126.875 74.852 127.715 75.14C128.579 75.428 129.323 75.86 129.947 76.436C130.595 77.012 131.099 77.744 131.459 78.632C131.819 79.52 131.999 80.564 131.999 81.764C131.999 82.964 131.771 84.032 131.315 84.968C130.883 85.904 130.283 86.708 129.515 87.38C128.771 88.052 127.907 88.568 126.923 88.928C125.939 89.264 124.895 89.432 123.791 89.432ZM123.683 85.472C124.139 85.472 124.571 85.4 124.979 85.256C125.411 85.112 125.783 84.896 126.095 84.608C126.431 84.296 126.695 83.912 126.887 83.456C127.079 82.976 127.175 82.412 127.175 81.764C127.175 80.588 126.863 79.748 126.239 79.244C125.615 78.716 124.799 78.452 123.791 78.452C123.119 78.452 122.423 78.62 121.703 78.956C120.983 79.292 120.275 79.868 119.579 80.684C119.723 81.596 119.927 82.364 120.191 82.988C120.479 83.588 120.803 84.08 121.163 84.464C121.523 84.824 121.919 85.088 122.351 85.256C122.783 85.4 123.227 85.472 123.683 85.472ZM144.009 89.432C142.041 89.432 140.349 89.144 138.933 88.568C137.517 87.968 136.365 87.176 135.477 86.192L137.925 82.844C138.693 83.516 139.545 84.068 140.481 84.5C141.441 84.932 142.449 85.148 143.505 85.148C144.753 85.148 145.773 84.92 146.565 84.464C147.381 83.984 147.789 83.312 147.789 82.448C147.789 81.944 147.681 81.488 147.465 81.08C147.249 80.672 146.877 80.336 146.349 80.072C145.821 79.784 145.113 79.568 144.225 79.424C143.337 79.256 142.221 79.172 140.877 79.172V75.428C143.133 75.428 144.717 75.152 145.629 74.6C146.565 74.024 147.033 73.28 147.033 72.368C147.033 71.576 146.733 70.964 146.133 70.532C145.533 70.076 144.705 69.848 143.649 69.848C142.737 69.848 141.897 70.028 141.129 70.388C140.361 70.748 139.581 71.24 138.789 71.864L136.125 68.624C137.253 67.712 138.453 67.004 139.725 66.5C141.021 65.972 142.413 65.708 143.901 65.708C145.149 65.708 146.289 65.852 147.321 66.14C148.353 66.404 149.241 66.812 149.985 67.364C150.729 67.892 151.305 68.54 151.713 69.308C152.121 70.076 152.325 70.964 152.325 71.972C152.325 73.172 151.941 74.192 151.173 75.032C150.405 75.848 149.337 76.52 147.969 77.048V77.192C149.409 77.576 150.621 78.236 151.605 79.172C152.589 80.084 153.081 81.284 153.081 82.772C153.081 83.828 152.829 84.776 152.325 85.616C151.845 86.432 151.185 87.128 150.345 87.704C149.529 88.256 148.569 88.688 147.465 89C146.361 89.288 145.209 89.432 144.009 89.432Z" fill="#FFE500"/>
<path d="M7.29322 89H6.54322C6.54322 89.4142 6.87901 89.75 7.29322 89.75V89ZM7.29322 84.716V83.966C6.87901 83.966 6.54322 84.3018 6.54322 84.716H7.29322ZM13.4492 84.716V85.466C13.8634 85.466 14.1992 85.1302 14.1992 84.716H13.4492ZM13.4492 71.504H14.1992C14.1992 71.0898 13.8634 70.754 13.4492 70.754V71.504ZM8.37322 71.504H7.62322C7.62322 71.9182 7.95901 72.254 8.37322 72.254V71.504ZM8.37322 68.228L8.25744 67.487C7.89235 67.544 7.62322 67.8585 7.62322 68.228H8.37322ZM10.4252 67.868L10.5723 68.6034C10.5795 68.602 10.5867 68.6004 10.5939 68.5988L10.4252 67.868ZM12.1172 67.4L12.3544 68.1115L12.3544 68.1115L12.1172 67.4ZM13.5212 66.86L13.8258 67.5454C13.8313 67.5429 13.8368 67.5404 13.8423 67.5378L13.5212 66.86ZM14.8532 66.14V65.39C14.7152 65.39 14.5799 65.4281 14.4621 65.5L14.8532 66.14ZM18.7412 66.14H19.4912C19.4912 65.7258 19.1554 65.39 18.7412 65.39V66.14ZM18.7412 84.716H17.9912C17.9912 85.1302 18.327 85.466 18.7412 85.466V84.716ZM23.9252 84.716H24.6752C24.6752 84.3018 24.3394 83.966 23.9252 83.966V84.716ZM23.9252 89V89.75C24.3394 89.75 24.6752 89.4142 24.6752 89H23.9252ZM8.04322 89V84.716H6.54322V89H8.04322ZM7.29322 85.466H13.4492V83.966H7.29322V85.466ZM14.1992 84.716V71.504H12.6992V84.716H14.1992ZM13.4492 70.754H8.37322V72.254H13.4492V70.754ZM9.12322 71.504V68.228H7.62322V71.504H9.12322ZM8.489 68.969C9.26483 68.8478 9.95958 68.726 10.5723 68.6034L10.2781 67.1326C9.69086 67.25 9.01761 67.3682 8.25744 67.487L8.489 68.969ZM10.5939 68.5988C11.2365 68.4505 11.8239 68.2884 12.3544 68.1115L11.88 66.6885C11.4026 66.8476 10.862 66.9975 10.2566 67.1372L10.5939 68.5988ZM12.3544 68.1115C12.8785 67.9368 13.3693 67.7483 13.8258 67.5454L13.2166 66.1746C12.8092 66.3557 12.3639 66.5272 11.88 66.6885L12.3544 68.1115ZM13.8423 67.5378C14.3224 67.3104 14.7897 67.0578 15.2443 66.78L14.4621 65.5C14.0527 65.7502 13.6321 65.9776 13.2002 66.1822L13.8423 67.5378ZM14.8532 66.89H18.7412V65.39H14.8532V66.89ZM17.9912 66.14V84.716H19.4912V66.14H17.9912ZM18.7412 85.466H23.9252V83.966H18.7412V85.466ZM23.1752 84.716V89H24.6752V84.716H23.1752ZM23.9252 88.25H7.29322V89.75H23.9252V88.25ZM32.9832 89L32.2341 88.9621C32.2237 89.1673 32.298 89.3678 32.4396 89.5167C32.5812 89.6657 32.7777 89.75 32.9832 89.75V89ZM33.5232 83.78L32.7849 83.6478L32.7834 83.6567L33.5232 83.78ZM34.7112 79.208L34.0056 78.9535L34.0033 78.9602L34.7112 79.208ZM36.7272 74.96L37.3713 75.3442L37.3742 75.3393L36.7272 74.96ZM39.7512 70.604L40.3386 71.0702C40.5175 70.8448 40.5517 70.5369 40.4265 70.2778C40.3013 70.0187 40.0389 69.854 39.7512 69.854V70.604ZM28.2672 70.604H27.5172C27.5172 71.0182 27.8529 71.354 28.2672 71.354V70.604ZM28.2672 66.14V65.39C27.8529 65.39 27.5172 65.7258 27.5172 66.14H28.2672ZM45.4392 66.14H46.1892C46.1892 65.7258 45.8534 65.39 45.4392 65.39V66.14ZM45.4392 69.38L45.9979 69.8803C46.121 69.7428 46.1892 69.5646 46.1892 69.38H45.4392ZM41.9472 73.916L42.5795 74.3194L42.5826 74.3145L41.9472 73.916ZM39.8592 78.272L40.5695 78.5126L40.5707 78.5092L39.8592 78.272ZM38.7792 83.096L39.5232 83.1903L39.5234 83.189L38.7792 83.096ZM38.3112 89V89.75C38.7128 89.75 39.0432 89.4335 39.0605 89.0322L38.3112 89ZM33.7322 89.0379C33.827 87.1655 34.0044 85.4545 34.263 83.9033L32.7834 83.6567C32.5139 85.2735 32.3313 87.0425 32.2341 88.9621L33.7322 89.0379ZM34.2614 83.9122C34.5429 82.3407 34.9291 80.8556 35.4191 79.4558L34.0033 78.9602C33.4852 80.4404 33.0794 82.0033 32.7849 83.6478L34.2614 83.9122ZM35.4167 79.4624C35.928 78.0446 36.5793 76.672 37.3713 75.3442L36.083 74.5758C35.2431 75.984 34.5503 77.4434 34.0056 78.9536L35.4167 79.4624ZM37.3742 75.3393C38.1693 73.9828 39.1564 72.5599 40.3386 71.0702L39.1637 70.1378C37.9459 71.6721 36.917 73.1532 36.0801 74.5807L37.3742 75.3393ZM39.7512 69.854H28.2672V71.354H39.7512V69.854ZM29.0172 70.604V66.14H27.5172V70.604H29.0172ZM28.2672 66.89H45.4392V65.39H28.2672V66.89ZM44.6892 66.14V69.38H46.1892V66.14H44.6892ZM44.8804 68.8797C43.4198 70.5108 42.2278 72.0568 41.3118 73.5175L42.5826 74.3145C43.4425 72.9432 44.5785 71.4652 45.9979 69.8803L44.8804 68.8797ZM41.3149 73.5126C40.3949 74.9547 39.6718 76.4623 39.1476 78.0348L40.5707 78.5092C41.0545 77.0577 41.7234 75.6613 42.5795 74.3194L41.3149 73.5126ZM39.1488 78.0314C38.6269 79.5722 38.2566 81.2301 38.0349 83.003L39.5234 83.189C39.7338 81.5059 40.0834 79.9478 40.5695 78.5126L39.1488 78.0314ZM38.0351 83.0017C37.8159 84.7313 37.6585 86.7208 37.5618 88.9678L39.0605 89.0322C39.1558 86.8152 39.3105 84.8687 39.5232 83.1903L38.0351 83.0017ZM38.3112 88.25H32.9832V89.75H38.3112V88.25ZM52.5891 88.568L52.2965 89.2586L52.3065 89.2627L52.5891 88.568ZM49.1331 86.192L48.5277 85.7493C48.318 86.0361 48.3383 86.4307 48.5763 86.6945L49.1331 86.192ZM51.5811 82.844L52.075 82.2796C51.9167 82.1411 51.7076 82.0754 51.4985 82.0986C51.2895 82.1217 51.0998 82.2316 50.9757 82.4013L51.5811 82.844ZM54.1371 84.5L53.8228 85.181L53.8293 85.1839L54.1371 84.5ZM60.2211 84.464L60.5953 85.114L60.6014 85.1105L60.2211 84.464ZM61.1211 81.08L61.7839 80.7291L61.7839 80.7291L61.1211 81.08ZM60.0051 80.072L59.646 80.7304C59.6538 80.7347 59.6617 80.7388 59.6697 80.7428L60.0051 80.072ZM57.8811 79.424L57.7417 80.1609C57.7481 80.1621 57.7546 80.1633 57.761 80.1643L57.8811 79.424ZM54.5331 79.172H53.7831C53.7831 79.5862 54.1189 79.922 54.5331 79.922V79.172ZM54.5331 75.428V74.678C54.1189 74.678 53.7831 75.0138 53.7831 75.428H54.5331ZM59.2851 74.6L59.6735 75.2416L59.6782 75.2387L59.2851 74.6ZM59.7891 70.532L59.3353 71.1291C59.3404 71.133 59.3456 71.1369 59.3509 71.1407L59.7891 70.532ZM54.7851 70.388L55.1034 71.0671L55.1034 71.0671L54.7851 70.388ZM52.4451 71.864L51.8658 72.3403C52.125 72.6556 52.5887 72.7057 52.9092 72.4531L52.4451 71.864ZM49.7811 68.624L49.3096 68.0408C49.154 68.1665 49.0552 68.3491 49.0349 68.5481C49.0147 68.7471 49.0748 68.9459 49.2018 69.1003L49.7811 68.624ZM53.3811 66.5L53.6574 67.1973L53.6641 67.1946L53.3811 66.5ZM60.9771 66.14L60.7755 66.8624C60.7807 66.8639 60.786 66.8653 60.7912 66.8666L60.9771 66.14ZM63.6411 67.364L63.1942 67.9663C63.1985 67.9695 63.2027 67.9726 63.207 67.9756L63.6411 67.364ZM64.8291 75.032L65.3753 75.5461L65.3826 75.5381L64.8291 75.032ZM61.6251 77.048L61.355 76.3483C61.0658 76.4599 60.8751 76.738 60.8751 77.048H61.6251ZM61.6251 77.192H60.8751C60.8751 77.5318 61.1035 77.8291 61.4318 77.9167L61.6251 77.192ZM65.2611 79.172L64.7441 79.7155L64.7513 79.7221L65.2611 79.172ZM65.9811 85.616L65.338 85.2301L65.3346 85.2357L65.9811 85.616ZM64.0011 87.704L64.4213 88.3252L64.4252 88.3225L64.0011 87.704ZM61.1211 89L61.3104 89.7257C61.3153 89.7244 61.3202 89.7231 61.3251 89.7217L61.1211 89ZM57.6651 88.682C55.7674 88.682 54.1762 88.4039 52.8717 87.8733L52.3065 89.2627C53.834 89.8841 55.6268 90.182 57.6651 90.182V88.682ZM52.8817 87.8774C51.5504 87.3133 50.4937 86.5803 49.6899 85.6895L48.5763 86.6945C49.5484 87.7717 50.7958 88.6227 52.2965 89.2586L52.8817 87.8774ZM49.7385 86.6347L52.1865 83.2867L50.9757 82.4013L48.5277 85.7493L49.7385 86.6347ZM51.0872 83.4084C51.9098 84.1282 52.8223 84.7192 53.8228 85.181L54.4514 83.819C53.5798 83.4168 52.7884 82.9038 52.075 82.2796L51.0872 83.4084ZM53.8293 85.1839C54.8864 85.6596 55.9993 85.898 57.1611 85.898V84.398C56.2109 84.398 55.3078 84.2044 54.4449 83.8161L53.8293 85.1839ZM57.1611 85.898C58.4944 85.898 59.6553 85.6552 60.5953 85.114L59.8469 83.814C59.2029 84.1848 58.3238 84.398 57.1611 84.398V85.898ZM60.6014 85.1105C61.6199 84.5113 62.1951 83.6072 62.1951 82.448H60.6951C60.6951 83.0168 60.4543 83.4567 59.8408 83.8175L60.6014 85.1105ZM62.1951 82.448C62.1951 81.8331 62.0623 81.2549 61.7839 80.7291L60.4583 81.4309C60.6119 81.7211 60.6951 82.0549 60.6951 82.448H62.1951ZM61.7839 80.7291C61.4767 80.1488 60.9693 79.7156 60.3405 79.4012L59.6697 80.7428C60.0969 80.9564 60.3335 81.1952 60.4583 81.4309L61.7839 80.7291ZM60.3642 79.4136C59.7345 79.0701 58.9355 78.8352 58.0011 78.6837L57.761 80.1643C58.6026 80.3008 59.2197 80.4979 59.646 80.7304L60.3642 79.4136ZM58.0205 78.6871C57.0702 78.5073 55.9036 78.422 54.5331 78.422V79.922C55.8506 79.922 56.916 80.0047 57.7417 80.1609L58.0205 78.6871ZM55.2831 79.172V75.428H53.7831V79.172H55.2831ZM54.5331 76.178C56.8043 76.178 58.5718 75.9084 59.6734 75.2416L58.8967 73.9584C58.1744 74.3956 56.7739 74.678 54.5331 74.678V76.178ZM59.6782 75.2387C60.783 74.5589 61.4391 73.5971 61.4391 72.368H59.9391C59.9391 72.9629 59.6592 73.4891 58.892 73.9613L59.6782 75.2387ZM61.4391 72.368C61.4391 71.3549 61.0389 70.5077 60.2273 69.9233L59.3509 71.1407C59.7393 71.4203 59.9391 71.7971 59.9391 72.368H61.4391ZM60.2429 69.9349C59.4691 69.3468 58.4607 69.098 57.3051 69.098V70.598C58.2614 70.598 58.9091 70.8052 59.3353 71.1291L60.2429 69.9349ZM57.3051 69.098C56.2915 69.098 55.3417 69.2988 54.4668 69.7089L55.1034 71.0671C55.7644 70.7572 56.4947 70.598 57.3051 70.598V69.098ZM54.4668 69.7089C53.6382 70.0973 52.8098 70.6219 51.9809 71.2749L52.9092 72.4531C53.6644 71.8581 54.396 71.3987 55.1034 71.0671L54.4668 69.7089ZM53.0244 71.3877L50.3604 68.1477L49.2018 69.1003L51.8658 72.3403L53.0244 71.3877ZM50.2526 69.2072C51.3252 68.34 52.46 67.6717 53.6574 67.1973L53.1048 65.8027C51.7582 66.3363 50.4929 67.084 49.3096 68.0408L50.2526 69.2072ZM53.6641 67.1946C54.8646 66.7054 56.1599 66.458 57.5571 66.458V64.958C55.9783 64.958 54.4896 65.2385 53.0981 65.8054L53.6641 67.1946ZM57.5571 66.458C58.7479 66.458 59.8189 66.5954 60.7755 66.8624L61.1787 65.4176C60.0713 65.1086 58.8623 64.958 57.5571 64.958V66.458ZM60.7912 66.8666C61.743 67.1101 62.5391 67.4803 63.1942 67.9663L64.088 66.7617C63.255 66.1437 62.2752 65.6979 61.163 65.4134L60.7912 66.8666ZM63.207 67.9756C63.8606 68.4394 64.3563 69.0001 64.7068 69.6599L66.0314 68.9561C65.5659 68.0799 64.9096 67.3446 64.0752 66.7524L63.207 67.9756ZM64.7068 69.6599C65.0486 70.3034 65.2311 71.0671 65.2311 71.972H66.7311C66.7311 70.8609 66.5055 69.8486 66.0314 68.9561L64.7068 69.6599ZM65.2311 71.972C65.2311 72.9958 64.9099 73.8322 64.2756 74.5259L65.3826 75.5381C66.2843 74.5518 66.7311 73.3481 66.7311 71.972H65.2311ZM64.2829 74.518C63.6118 75.231 62.6493 75.8488 61.355 76.3483L61.8952 77.7477C63.3369 77.1912 64.5103 76.465 65.3752 75.546L64.2829 74.518ZM60.8751 77.048V77.192H62.3751V77.048H60.8751ZM61.4318 77.9167C62.7626 78.2715 63.8598 78.8742 64.7442 79.7154L65.778 78.6286C64.6943 77.5978 63.3676 76.8805 61.8183 76.4673L61.4318 77.9167ZM64.7513 79.7221C65.5645 80.4758 65.9871 81.4675 65.9871 82.772H67.4871C67.4871 81.1005 66.9257 79.6922 65.7709 78.6219L64.7513 79.7221ZM65.9871 82.772C65.9871 83.7031 65.7666 84.5158 65.338 85.2301L66.6242 86.0019C67.2036 85.0362 67.4871 83.9529 67.4871 82.772H65.9871ZM65.3346 85.2357C64.9145 85.9499 64.3333 86.5668 63.5769 87.0855L64.4252 88.3225C65.3489 87.6892 66.0877 86.9141 66.6275 85.9963L65.3346 85.2357ZM63.5809 87.0828C62.841 87.5833 61.9565 87.9845 60.9171 88.2783L61.3251 89.7217C62.4937 89.3915 63.5292 88.9287 64.4213 88.3252L63.5809 87.0828ZM60.9318 88.2743C59.8927 88.5453 58.8045 88.682 57.6651 88.682V90.182C58.9257 90.182 60.1415 90.0307 61.3104 89.7257L60.9318 88.2743ZM74.319 88.532L74.0078 89.2144C74.0125 89.2165 74.0173 89.2187 74.0222 89.2207L74.319 88.532ZM70.863 86.228L70.2514 85.7939C70.0376 86.0952 70.075 86.5073 70.3396 86.7652L70.863 86.228ZM73.239 82.88L73.712 82.2979C73.551 82.1671 73.3431 82.1088 73.1376 82.1369C72.9321 82.1649 72.7474 82.2768 72.6274 82.4459L73.239 82.88ZM75.687 84.5L75.337 85.1633C75.3442 85.1671 75.3515 85.1708 75.3589 85.1744L75.687 84.5ZM81.807 84.248L81.3711 83.6376L81.3627 83.6438L81.807 84.248ZM81.879 78.956L81.4172 79.5471L81.4261 79.5538L81.879 78.956ZM77.847 78.128L77.9093 78.8754C77.9266 78.874 77.9439 78.8719 77.9611 78.8693L77.847 78.128ZM76.983 78.308L76.7459 77.5965L76.7459 77.5965L76.983 78.308ZM76.083 78.668L76.3973 79.349L76.3973 79.349L76.083 78.668ZM75.039 79.208L74.632 79.8379C74.8658 79.989 75.1641 79.9982 75.4067 79.8617L75.039 79.208ZM72.699 77.696L71.9501 77.6563C71.9359 77.9247 72.0663 78.1801 72.292 78.3259L72.699 77.696ZM73.311 66.14V65.39C72.9122 65.39 72.5832 65.7021 72.5621 66.1003L73.311 66.14ZM87.315 66.14H88.065C88.065 65.7258 87.7292 65.39 87.315 65.39V66.14ZM87.315 70.604V71.354C87.7292 71.354 88.065 71.0182 88.065 70.604H87.315ZM77.883 70.604V69.854C77.4956 69.854 77.1719 70.1491 77.1362 70.535L77.883 70.604ZM77.487 74.888L76.7402 74.819C76.7166 75.0748 76.8255 75.3249 77.0289 75.4818C77.2323 75.6387 77.5019 75.6806 77.7433 75.5928L77.487 74.888ZM78.963 74.492L79.08 75.2328C79.0926 75.2308 79.1051 75.2285 79.1175 75.2259L78.963 74.492ZM83.499 74.78L83.2785 75.4969L83.2835 75.4984L83.499 74.78ZM86.019 76.076L86.4876 75.4903L86.4876 75.4903L86.019 76.076ZM87.711 78.272L87.0295 78.5851C87.0318 78.5901 87.0342 78.5951 87.0366 78.6001L87.711 78.272ZM87.603 84.824L86.9355 84.4821C86.9333 84.4864 86.9311 84.4908 86.929 84.4952L87.603 84.824ZM85.623 87.344L86.0998 87.923L86.1015 87.9215L85.623 87.344ZM82.779 88.892L82.5419 88.1805L82.5419 88.1805L82.779 88.892ZM79.395 88.682C77.4746 88.682 75.8897 88.3923 74.6159 87.8433L74.0222 89.2207C75.5324 89.8717 77.3315 90.182 79.395 90.182V88.682ZM74.6303 87.8496C73.3292 87.2562 72.2521 86.5343 71.3864 85.6908L70.3396 86.7652C71.346 87.7457 72.5729 88.5598 74.0078 89.2144L74.6303 87.8496ZM71.4747 86.6621L73.8507 83.3141L72.6274 82.4459L70.2514 85.7939L71.4747 86.6621ZM72.7661 83.4621C73.5718 84.1167 74.4289 84.684 75.337 85.1633L76.0371 83.8367C75.2172 83.404 74.4423 82.8913 73.712 82.2979L72.7661 83.4621ZM75.3589 85.1744C76.3585 85.6607 77.4562 85.898 78.639 85.898V84.398C77.6619 84.398 76.7916 84.2033 76.0151 83.8256L75.3589 85.1744ZM78.639 85.898C80.05 85.898 81.2745 85.5705 82.2513 84.8522L81.3627 83.6438C80.7075 84.1255 79.8201 84.398 78.639 84.398V85.898ZM82.243 84.8583C83.3097 84.0963 83.817 82.9633 83.817 81.584H82.317C82.317 82.5567 81.9844 83.1997 81.3711 83.6377L82.243 84.8583ZM83.817 81.584C83.817 80.2397 83.3425 79.1238 82.3319 78.3582L81.4261 79.5538C81.9996 79.9882 82.317 80.6243 82.317 81.584H83.817ZM82.3408 78.365C81.4102 77.638 80.2388 77.306 78.891 77.306V78.806C79.9913 78.806 80.8118 79.074 81.4173 79.547L82.3408 78.365ZM78.891 77.306C78.4767 77.306 78.0898 77.3318 77.733 77.3867L77.9611 78.8693C78.2283 78.8282 78.5374 78.806 78.891 78.806V77.306ZM77.7847 77.3806C77.4343 77.4098 77.0877 77.4826 76.7459 77.5965L77.2202 79.0195C77.4544 78.9414 77.6838 78.8942 77.9093 78.8754L77.7847 77.3806ZM76.7459 77.5965C76.4285 77.7023 76.1026 77.8329 75.7687 77.987L76.3973 79.349C76.6874 79.2151 76.9616 79.1057 77.2202 79.0195L76.7459 77.5965ZM75.7687 77.987C75.4344 78.1414 75.0682 78.3311 74.6713 78.5543L75.4067 79.8617C75.7779 79.6529 76.1077 79.4826 76.3973 79.349L75.7687 77.987ZM75.4461 78.5781L73.1061 77.0661L72.292 78.3259L74.632 79.8379L75.4461 78.5781ZM73.448 77.7357L74.06 66.1797L72.5621 66.1003L71.9501 77.6563L73.448 77.7357ZM73.311 66.89H87.315V65.39H73.311V66.89ZM86.565 66.14V70.604H88.065V66.14H86.565ZM87.315 69.854H77.883V71.354H87.315V69.854ZM77.1362 70.535L76.7402 74.819L78.2338 74.957L78.6298 70.673L77.1362 70.535ZM77.7433 75.5928C78.2355 75.4139 78.6804 75.2959 79.08 75.2328L78.8461 73.7512C78.3337 73.8321 77.7946 73.9781 77.2307 74.1832L77.7433 75.5928ZM79.1175 75.2259C79.5125 75.1428 79.9753 75.098 80.511 75.098V73.598C79.8947 73.598 79.3256 73.6492 78.8085 73.7581L79.1175 75.2259ZM80.511 75.098C81.4981 75.098 82.4193 75.2325 83.2785 75.4968L83.7196 74.0632C82.7068 73.7515 81.636 73.598 80.511 73.598V75.098ZM83.2835 75.4984C84.1595 75.7612 84.9119 76.1507 85.5505 76.6617L86.4876 75.4903C85.6862 74.8493 84.7585 74.3748 83.7145 74.0616L83.2835 75.4984ZM85.5505 76.6617C86.1738 77.1603 86.6673 77.7968 87.0295 78.5851L88.3925 77.9589C87.9387 76.9712 87.3043 76.1437 86.4876 75.4903L85.5505 76.6617ZM87.0366 78.6001C87.4084 79.3644 87.609 80.3031 87.609 81.44H89.109C89.109 80.1289 88.8777 78.9556 88.3855 77.9439L87.0366 78.6001ZM87.609 81.44C87.609 82.6111 87.3777 83.6188 86.9355 84.4821L88.2706 85.1659C88.8364 84.0612 89.109 82.8129 89.109 81.44H87.609ZM86.929 84.4952C86.4955 85.3837 85.9021 86.1388 85.1445 86.7665L86.1015 87.9215C87.024 87.1572 87.7505 86.2323 88.2771 85.1528L86.929 84.4952ZM85.1463 86.7651C84.4066 87.3742 83.5413 87.8473 82.5419 88.1805L83.0162 89.6035C84.1768 89.2167 85.2075 88.6578 86.0998 87.9229L85.1463 86.7651ZM82.5419 88.1805C81.5408 88.5142 80.4931 88.682 79.395 88.682V90.182C80.649 90.182 81.8572 89.9898 83.0162 89.6035L82.5419 88.1805ZM92.881 89H92.131C92.131 89.4142 92.4668 89.75 92.881 89.75V89ZM92.881 85.976L92.3992 85.4012C92.2292 85.5437 92.131 85.7542 92.131 85.976H92.881ZM97.345 82.16L97.8389 82.7245L97.8445 82.7195L97.345 82.16ZM100.801 78.812L101.35 79.3228L101.35 79.3228L100.801 78.812ZM103.033 75.896L102.384 75.5202L102.384 75.5202L103.033 75.896ZM102.853 70.748L102.343 71.2983C102.347 71.3018 102.351 71.3052 102.355 71.3086L102.853 70.748ZM97.561 70.568L97.9529 71.2075L97.9585 71.204L97.561 70.568ZM95.473 72.188L94.9426 72.7183C95.2316 73.0073 95.6988 73.0117 95.9932 72.7282L95.473 72.188ZM92.629 69.344L92.0986 68.8137C91.8057 69.1066 91.8057 69.5814 92.0986 69.8743L92.629 69.344ZM94.393 67.76L93.9392 67.1629C93.9352 67.1659 93.9313 67.1689 93.9274 67.172L94.393 67.76ZM96.265 66.644L96.5696 67.3294L96.5808 67.3243L96.265 66.644ZM98.353 65.96L98.5001 66.6954C98.5061 66.6942 98.5121 66.6929 98.5182 66.6916L98.353 65.96ZM104.077 66.248L103.819 66.9523C103.824 66.9542 103.829 66.956 103.835 66.9578L104.077 66.248ZM106.597 67.724L106.086 68.2729C106.092 68.279 106.099 68.2849 106.106 68.2908L106.597 67.724ZM108.253 69.992L107.565 70.2897C107.567 70.2949 107.569 70.3 107.571 70.3051L108.253 69.992ZM108.181 75.932L108.861 76.2474L108.864 76.2411L108.181 75.932ZM106.309 78.92L105.719 78.4566L105.718 78.4585L106.309 78.92ZM103.645 81.908L104.169 82.4447L104.175 82.4383L103.645 81.908ZM100.477 84.824L99.9848 84.258C99.7372 84.4734 99.6583 84.8246 99.7901 85.1252C99.9218 85.4257 100.234 85.6056 100.56 85.5694L100.477 84.824ZM102.565 84.644L102.613 85.3924C102.621 85.392 102.628 85.3914 102.635 85.3907L102.565 84.644ZM110.053 84.536H110.803C110.803 84.1218 110.467 83.786 110.053 83.786V84.536ZM110.053 89V89.75C110.467 89.75 110.803 89.4142 110.803 89H110.053ZM93.631 89V85.976H92.131V89H93.631ZM93.3628 86.5508C94.9981 85.18 96.4902 83.9045 97.8388 82.7244L96.8511 81.5956C95.5117 82.7675 94.0279 84.036 92.3992 85.4012L93.3628 86.5508ZM97.8445 82.7195C99.2013 81.508 100.371 80.3757 101.35 79.3228L100.252 78.3012C99.3112 79.3123 98.1767 80.412 96.8455 81.6005L97.8445 82.7195ZM101.35 79.3228C102.336 78.2625 103.118 77.2455 103.682 76.2718L102.384 75.5202C101.892 76.3705 101.186 77.2974 100.252 78.3012L101.35 79.3228ZM103.682 76.2718C104.257 75.2781 104.575 74.2851 104.575 73.304H103.075C103.075 73.9549 102.865 74.6899 102.384 75.5202L103.682 76.2718ZM104.575 73.304C104.575 72.0303 104.204 70.9457 103.351 70.1874L102.355 71.3086C102.798 71.7023 103.075 72.3217 103.075 73.304H104.575ZM103.363 70.1977C102.533 69.4292 101.401 69.098 100.081 69.098V70.598C101.161 70.598 101.877 70.8668 102.343 71.2983L103.363 70.1977ZM100.081 69.098C99.0294 69.098 98.0515 69.377 97.1635 69.932L97.9585 71.204C98.6064 70.799 99.3085 70.598 100.081 70.598V69.098ZM97.169 69.9285C96.3774 70.4137 95.6386 70.9873 94.9527 71.6478L95.9932 72.7282C96.6034 72.1407 97.2565 71.6343 97.9529 71.2075L97.169 69.9285ZM96.0033 71.6577L93.1593 68.8137L92.0986 69.8743L94.9426 72.7183L96.0033 71.6577ZM93.1593 69.8743C93.7419 69.2917 94.3083 68.7836 94.8585 68.348L93.9274 67.172C93.3256 67.6484 92.716 68.1963 92.0986 68.8137L93.1593 69.8743ZM94.8468 68.3571C95.4035 67.934 95.9778 67.5924 96.5696 67.3294L95.9604 65.9586C95.2562 66.2716 94.5824 66.674 93.9392 67.1629L94.8468 68.3571ZM96.5808 67.3243C97.1994 67.037 97.8388 66.8277 98.5001 66.6954L98.2059 65.2246C97.4271 65.3803 96.6745 65.627 95.9491 65.9637L96.5808 67.3243ZM98.5182 66.6916C99.2 66.5376 99.9597 66.458 100.801 66.458V64.958C99.8662 64.958 98.994 65.0464 98.1878 65.2284L98.5182 66.6916ZM100.801 66.458C101.926 66.458 102.929 66.6266 103.819 66.9523L104.335 65.5437C103.257 65.1494 102.076 64.958 100.801 64.958V66.458ZM103.835 66.9578C104.728 67.2629 105.474 67.7033 106.086 68.2729L107.108 67.1751C106.328 66.4487 105.394 65.9051 104.319 65.5382L103.835 66.9578ZM106.106 68.2908C106.739 68.8398 107.225 69.5034 107.565 70.2897L108.941 69.6943C108.513 68.7046 107.895 67.8562 107.088 67.1572L106.106 68.2908ZM107.571 70.3051C107.929 71.0829 108.115 71.97 108.115 72.98H109.615C109.615 71.782 109.393 70.6771 108.934 69.6789L107.571 70.3051ZM108.115 72.98C108.115 73.8183 107.916 74.6973 107.498 75.6229L108.864 76.2411C109.358 75.1507 109.615 74.0617 109.615 72.98H108.115ZM107.5 75.6167C107.073 76.5395 106.482 77.4863 105.719 78.4566L106.899 79.3834C107.72 78.3377 108.377 77.2925 108.861 76.2473L107.5 75.6167ZM105.718 78.4585C104.971 79.4153 104.104 80.3884 103.115 81.3777L104.175 82.4383C105.202 81.4116 106.111 80.3927 106.9 79.3815L105.718 78.4585ZM103.121 81.3713C102.124 82.3449 101.078 83.3071 99.9848 84.258L100.969 85.39C102.084 84.4209 103.15 83.4391 104.169 82.4447L103.121 81.3713ZM100.56 85.5694C101.195 85.4989 101.879 85.4398 102.613 85.3924L102.517 83.8956C101.763 83.9442 101.055 84.0051 100.394 84.0786L100.56 85.5694ZM102.635 85.3907C103.386 85.3203 104.046 85.286 104.617 85.286V83.786C103.988 83.786 103.28 83.8237 102.495 83.8973L102.635 85.3907ZM104.617 85.286H110.053V83.786H104.617V85.286ZM109.303 84.536V89H110.803V84.536H109.303ZM110.053 88.25H92.881V89.75H110.053V88.25ZM120.371 88.784L120.644 88.0856L120.644 88.0856L120.371 88.784ZM117.419 86.768L116.874 87.2838L116.874 87.2838L117.419 86.768ZM115.331 83.276L114.627 83.5342L114.628 83.538L115.331 83.276ZM117.563 68.696L117.013 68.1856L117.007 68.1928L117.563 68.696ZM120.731 66.464L121.014 67.1585L121.026 67.1534L120.731 66.464ZM128.687 66.536L128.379 67.2198L128.39 67.2247L128.687 66.536ZM131.675 68.444L132.239 68.9379C132.502 68.6373 132.484 68.1832 132.197 67.9053L131.675 68.444ZM128.903 71.612L128.401 72.1695C128.55 72.3038 128.747 72.3726 128.948 72.3607C129.148 72.3487 129.335 72.2569 129.467 72.1059L128.903 71.612ZM127.103 70.496L126.786 71.1756C126.792 71.1786 126.798 71.1814 126.805 71.1842L127.103 70.496ZM122.855 70.388L123.124 71.088C123.129 71.0862 123.133 71.0844 123.138 71.0826L122.855 70.388ZM121.163 71.612L120.598 71.1181L120.597 71.1199L121.163 71.612ZM119.975 73.808L119.265 73.5652L119.265 73.5652L119.975 73.808ZM119.435 77.192L118.685 77.1652C118.674 77.4712 118.851 77.7531 119.13 77.8774C119.41 78.0017 119.738 77.9434 119.957 77.7302L119.435 77.192ZM122.135 75.356L121.839 74.6666L121.833 74.6693L122.135 75.356ZM127.715 75.14L127.472 75.8495L127.478 75.8515L127.715 75.14ZM129.947 76.436L129.438 76.9872L129.449 76.9966L129.947 76.436ZM131.315 84.968L130.641 84.6395C130.638 84.6442 130.636 84.649 130.634 84.6537L131.315 84.968ZM129.515 87.38L129.021 86.8155L129.012 86.8234L129.515 87.38ZM126.923 88.928L127.165 89.6378C127.17 89.636 127.176 89.6342 127.181 89.6323L126.923 88.928ZM124.979 85.256L124.742 84.5444L124.729 84.5488L124.979 85.256ZM126.095 84.608L126.604 85.1591L126.605 85.1576L126.095 84.608ZM126.887 83.456L127.578 83.7471L127.583 83.7345L126.887 83.456ZM126.239 79.244L125.754 79.8165C125.759 79.8202 125.763 79.8239 125.768 79.8275L126.239 79.244ZM121.703 78.956L121.386 78.2764L121.386 78.2764L121.703 78.956ZM119.579 80.684L119.008 80.1973C118.866 80.364 118.804 80.5845 118.838 80.801L119.579 80.684ZM120.191 82.988L119.5 83.2802C119.505 83.2911 119.51 83.3019 119.515 83.3125L120.191 82.988ZM121.163 84.464L120.616 84.977C120.621 84.9828 120.627 84.9886 120.633 84.9943L121.163 84.464ZM122.351 85.256L122.079 85.955C122.091 85.9595 122.102 85.9636 122.114 85.9675L122.351 85.256ZM123.791 88.682C122.709 88.682 121.662 88.4838 120.644 88.0856L120.098 89.4824C121.288 89.9482 122.521 90.182 123.791 90.182V88.682ZM120.644 88.0856C119.649 87.6961 118.756 87.089 117.963 86.2522L116.874 87.2838C117.81 88.271 118.885 89.0079 120.098 89.4824L120.644 88.0856ZM117.963 86.2522C117.181 85.4265 116.533 84.3544 116.034 83.014L114.628 83.538C115.184 85.0296 115.929 86.2855 116.874 87.2838L117.963 86.2522ZM116.035 83.0178C115.545 81.6819 115.289 80.0461 115.289 78.092H113.789C113.789 80.1699 114.061 81.9901 114.627 83.5342L116.035 83.0178ZM115.289 78.092C115.289 76.0177 115.557 74.2583 116.074 72.7982L114.66 72.2978C114.073 73.9577 113.789 75.8943 113.789 78.092H115.289ZM116.074 72.7982C116.6 71.3119 117.286 70.1195 118.119 69.1992L117.007 68.1928C116.015 69.2885 115.238 70.6641 114.66 72.2978L116.074 72.7982ZM118.113 69.2063C118.98 68.2716 119.948 67.5938 121.014 67.1584L120.447 65.7696C119.162 66.2942 118.017 67.1044 117.013 68.1857L118.113 69.2063ZM121.026 67.1534C122.11 66.6891 123.233 66.458 124.403 66.458V64.958C123.029 64.958 121.704 65.2309 120.435 65.7746L121.026 67.1534ZM124.403 66.458C125.951 66.458 127.27 66.7198 128.379 67.2197L128.995 65.8523C127.656 65.2482 126.119 64.958 124.403 64.958V66.458ZM128.39 67.2247C129.55 67.7252 130.464 68.3153 131.153 68.9827L132.197 67.9053C131.35 67.0847 130.272 66.4028 128.984 65.8473L128.39 67.2247ZM131.11 67.9501L128.338 71.1181L129.467 72.1059L132.239 68.9379L131.11 67.9501ZM129.405 71.0545C128.853 70.558 128.18 70.1454 127.401 69.8078L126.805 71.1842C127.466 71.4706 127.993 71.802 128.401 72.1695L129.405 71.0545ZM127.42 69.8164C126.604 69.4357 125.752 69.242 124.871 69.242V70.742C125.525 70.742 126.162 70.8843 126.786 71.1756L127.42 69.8164ZM124.871 69.242C124.077 69.242 123.309 69.393 122.572 69.6934L123.138 71.0826C123.697 70.855 124.272 70.742 124.871 70.742V69.242ZM122.586 69.688C121.832 69.9777 121.171 70.4638 120.598 71.1181L121.727 72.1059C122.163 71.6082 122.629 71.2783 123.124 71.088L122.586 69.688ZM120.597 71.1199C120.037 71.7641 119.599 72.5892 119.265 73.5652L120.685 74.0508C120.975 73.2028 121.329 72.5639 121.729 72.1041L120.597 71.1199ZM119.265 73.5652C118.922 74.5683 118.735 75.7744 118.685 77.1652L120.184 77.2188C120.231 75.9216 120.404 74.8717 120.685 74.0508L119.265 73.5652ZM119.957 77.7302C120.713 76.9968 121.539 76.4367 122.436 76.0427L121.833 74.6693C120.763 75.1393 119.789 75.8032 118.913 76.6538L119.957 77.7302ZM122.43 76.0454C123.369 75.643 124.204 75.458 124.943 75.458V73.958C123.954 73.958 122.917 74.205 121.839 74.6666L122.43 76.0454ZM124.943 75.458C125.879 75.458 126.72 75.5917 127.472 75.8495L127.958 74.4305C127.03 74.1123 126.023 73.958 124.943 73.958V75.458ZM127.478 75.8515C128.248 76.1084 128.898 76.4883 129.438 76.9871L130.456 75.8849C129.748 75.2317 128.91 74.7476 127.952 74.4285L127.478 75.8515ZM129.449 76.9966C130.002 77.4882 130.443 78.1212 130.764 78.9138L132.154 78.3502C131.755 77.3668 131.188 76.5358 130.445 75.8754L129.449 76.9966ZM130.764 78.9138C131.08 79.6928 131.249 80.6371 131.249 81.764H132.749C132.749 80.4909 132.558 79.3472 132.154 78.3502L130.764 78.9138ZM131.249 81.764C131.249 82.8675 131.04 83.8204 130.641 84.6395L131.989 85.2965C132.502 84.2436 132.749 83.0605 132.749 81.764H131.249ZM130.634 84.6537C130.246 85.4951 129.709 86.2136 129.021 86.8156L130.009 87.9444C130.857 87.2024 131.52 86.3129 131.996 85.2823L130.634 84.6537ZM129.012 86.8234C128.343 87.428 127.563 87.8952 126.665 88.2237L127.181 89.6323C128.251 89.2408 129.199 88.676 130.018 87.9366L129.012 86.8234ZM126.681 88.2182C125.779 88.526 124.818 88.682 123.791 88.682V90.182C124.972 90.182 126.099 90.002 127.165 89.6378L126.681 88.2182ZM123.683 86.222C124.219 86.222 124.736 86.137 125.229 85.9632L124.729 84.5488C124.406 84.663 124.059 84.722 123.683 84.722V86.222ZM125.216 85.9675C125.742 85.7924 126.208 85.5243 126.604 85.1591L125.586 84.0569C125.358 84.2677 125.08 84.4316 124.742 84.5445L125.216 85.9675ZM126.605 85.1576C127.025 84.7676 127.348 84.2932 127.578 83.747L126.196 83.165C126.042 83.5308 125.837 83.8244 125.585 84.0584L126.605 85.1576ZM127.583 83.7345C127.818 83.1466 127.925 82.4841 127.925 81.764H126.425C126.425 82.3399 126.339 82.8054 126.191 83.1775L127.583 83.7345ZM127.925 81.764C127.925 80.4705 127.581 79.3637 126.71 78.6605L125.768 79.8275C126.145 80.1323 126.425 80.7055 126.425 81.764H127.925ZM126.723 78.6715C125.934 78.004 124.933 77.702 123.791 77.702V79.202C124.664 79.202 125.295 79.428 125.754 79.8165L126.723 78.6715ZM123.791 77.702C122.991 77.702 122.187 77.9024 121.386 78.2764L122.02 79.6356C122.659 79.3376 123.247 79.202 123.791 79.202V77.702ZM121.386 78.2764C120.541 78.6707 119.751 79.3266 119.008 80.1973L120.15 81.1707C120.799 80.4094 121.425 79.9133 122.02 79.6356L121.386 78.2764ZM118.838 80.801C118.988 81.7531 119.206 82.584 119.5 83.2802L120.882 82.6958C120.648 82.144 120.457 81.4389 120.32 80.567L118.838 80.801ZM119.515 83.3125C119.828 83.9642 120.192 84.5246 120.616 84.977L121.71 83.951C121.414 83.6354 121.13 83.2118 120.867 82.6635L119.515 83.3125ZM120.633 84.9943C121.059 85.4206 121.541 85.7457 122.079 85.955L122.623 84.557C122.297 84.4303 121.987 84.2274 121.693 83.9337L120.633 84.9943ZM122.114 85.9675C122.622 86.137 123.146 86.222 123.683 86.222V84.722C123.307 84.722 122.943 84.663 122.588 84.5445L122.114 85.9675ZM138.933 88.568L138.64 89.2586L138.65 89.2627L138.933 88.568ZM135.477 86.192L134.871 85.7493C134.662 86.0361 134.682 86.4307 134.92 86.6945L135.477 86.192ZM137.925 82.844L138.419 82.2796C138.26 82.1411 138.051 82.0754 137.842 82.0986C137.633 82.1217 137.444 82.2316 137.319 82.4013L137.925 82.844ZM140.481 84.5L140.167 85.181L140.173 85.1839L140.481 84.5ZM146.565 84.464L146.939 85.114L146.945 85.1105L146.565 84.464ZM147.465 81.08L148.128 80.7291L148.128 80.7291L147.465 81.08ZM146.349 80.072L145.99 80.7304C145.998 80.7347 146.005 80.7388 146.013 80.7428L146.349 80.072ZM144.225 79.424L144.085 80.1609C144.092 80.1621 144.098 80.1633 144.105 80.1643L144.225 79.424ZM140.877 79.172H140.127C140.127 79.5862 140.463 79.922 140.877 79.922V79.172ZM140.877 75.428V74.678C140.463 74.678 140.127 75.0138 140.127 75.428H140.877ZM145.629 74.6L146.017 75.2416L146.022 75.2387L145.629 74.6ZM146.133 70.532L145.679 71.1291C145.684 71.133 145.689 71.1369 145.695 71.1407L146.133 70.532ZM141.129 70.388L141.447 71.0671L141.447 71.0671L141.129 70.388ZM138.789 71.864L138.21 72.3403C138.469 72.6556 138.932 72.7057 139.253 72.4531L138.789 71.864ZM136.125 68.624L135.653 68.0408C135.498 68.1665 135.399 68.3491 135.379 68.5481C135.358 68.7471 135.419 68.9459 135.546 69.1003L136.125 68.624ZM139.725 66.5L140.001 67.1973L140.008 67.1946L139.725 66.5ZM147.321 66.14L147.119 66.8624C147.124 66.8639 147.13 66.8653 147.135 66.8666L147.321 66.14ZM149.985 67.364L149.538 67.9663C149.542 67.9695 149.546 67.9726 149.551 67.9756L149.985 67.364ZM151.173 75.032L151.719 75.5461L151.726 75.5381L151.173 75.032ZM147.969 77.048L147.699 76.3483C147.41 76.4599 147.219 76.738 147.219 77.048H147.969ZM147.969 77.192H147.219C147.219 77.5318 147.447 77.8291 147.776 77.9167L147.969 77.192ZM151.605 79.172L151.088 79.7155L151.095 79.7221L151.605 79.172ZM152.325 85.616L151.682 85.2301L151.678 85.2357L152.325 85.616ZM150.345 87.704L150.765 88.3252L150.769 88.3225L150.345 87.704ZM147.465 89L147.654 89.7257C147.659 89.7244 147.664 89.7231 147.669 89.7217L147.465 89ZM144.009 88.682C142.111 88.682 140.52 88.4039 139.215 87.8733L138.65 89.2627C140.178 89.8841 141.971 90.182 144.009 90.182V88.682ZM139.225 87.8774C137.894 87.3133 136.837 86.5803 136.034 85.6895L134.92 86.6945C135.892 87.7717 137.14 88.6227 138.64 89.2586L139.225 87.8774ZM136.082 86.6347L138.53 83.2867L137.319 82.4013L134.871 85.7493L136.082 86.6347ZM137.431 83.4084C138.254 84.1282 139.166 84.7192 140.167 85.181L140.795 83.819C139.924 83.4168 139.132 82.9038 138.419 82.2796L137.431 83.4084ZM140.173 85.1839C141.23 85.6596 142.343 85.898 143.505 85.898V84.398C142.555 84.398 141.652 84.2044 140.789 83.8161L140.173 85.1839ZM143.505 85.898C144.838 85.898 145.999 85.6552 146.939 85.114L146.191 83.814C145.547 84.1848 144.668 84.398 143.505 84.398V85.898ZM146.945 85.1105C147.964 84.5113 148.539 83.6072 148.539 82.448H147.039C147.039 83.0168 146.798 83.4567 146.185 83.8175L146.945 85.1105ZM148.539 82.448C148.539 81.8331 148.406 81.2549 148.128 80.7291L146.802 81.4309C146.956 81.7211 147.039 82.0549 147.039 82.448H148.539ZM148.128 80.7291C147.82 80.1488 147.313 79.7156 146.684 79.4012L146.013 80.7428C146.441 80.9564 146.677 81.1952 146.802 81.4309L148.128 80.7291ZM146.708 79.4136C146.078 79.0701 145.279 78.8352 144.345 78.6837L144.105 80.1643C144.946 80.3008 145.563 80.4979 145.99 80.7304L146.708 79.4136ZM144.364 78.6871C143.414 78.5073 142.247 78.422 140.877 78.422V79.922C142.194 79.922 143.26 80.0047 144.085 80.1609L144.364 78.6871ZM141.627 79.172V75.428H140.127V79.172H141.627ZM140.877 76.178C143.148 76.178 144.916 75.9084 146.017 75.2416L145.24 73.9584C144.518 74.3956 143.118 74.678 140.877 74.678V76.178ZM146.022 75.2387C147.127 74.5589 147.783 73.5971 147.783 72.368H146.283C146.283 72.9629 146.003 73.4891 145.236 73.9613L146.022 75.2387ZM147.783 72.368C147.783 71.3549 147.383 70.5077 146.571 69.9233L145.695 71.1407C146.083 71.4203 146.283 71.7971 146.283 72.368H147.783ZM146.587 69.9349C145.813 69.3468 144.804 69.098 143.649 69.098V70.598C144.605 70.598 145.253 70.8052 145.679 71.1291L146.587 69.9349ZM143.649 69.098C142.635 69.098 141.685 69.2988 140.811 69.7089L141.447 71.0671C142.108 70.7572 142.838 70.598 143.649 70.598V69.098ZM140.811 69.7089C139.982 70.0973 139.154 70.6219 138.325 71.2749L139.253 72.4531C140.008 71.8581 140.74 71.3987 141.447 71.0671L140.811 69.7089ZM139.368 71.3877L136.704 68.1477L135.546 69.1003L138.21 72.3403L139.368 71.3877ZM136.596 69.2072C137.669 68.34 138.804 67.6717 140.001 67.1973L139.449 65.8027C138.102 66.3363 136.837 67.084 135.653 68.0408L136.596 69.2072ZM140.008 67.1946C141.208 66.7054 142.504 66.458 143.901 66.458V64.958C142.322 64.958 140.833 65.2385 139.442 65.8054L140.008 67.1946ZM143.901 66.458C145.092 66.458 146.163 66.5954 147.119 66.8624L147.522 65.4176C146.415 65.1086 145.206 64.958 143.901 64.958V66.458ZM147.135 66.8666C148.087 67.1101 148.883 67.4803 149.538 67.9663L150.432 66.7617C149.599 66.1437 148.619 65.6979 147.507 65.4134L147.135 66.8666ZM149.551 67.9756C150.204 68.4394 150.7 69.0001 151.051 69.6599L152.375 68.9561C151.91 68.0799 151.253 67.3446 150.419 66.7524L149.551 67.9756ZM151.051 69.6599C151.392 70.3034 151.575 71.0671 151.575 71.972H153.075C153.075 70.8609 152.849 69.8486 152.375 68.9561L151.051 69.6599ZM151.575 71.972C151.575 72.9958 151.254 73.8322 150.619 74.5259L151.726 75.5381C152.628 74.5518 153.075 73.3481 153.075 71.972H151.575ZM150.627 74.518C149.956 75.231 148.993 75.8488 147.699 76.3483L148.239 77.7477C149.681 77.1912 150.854 76.465 151.719 75.546L150.627 74.518ZM147.219 77.048V77.192H148.719V77.048H147.219ZM147.776 77.9167C149.106 78.2715 150.204 78.8742 151.088 79.7154L152.122 78.6286C151.038 77.5978 149.711 76.8805 148.162 76.4673L147.776 77.9167ZM151.095 79.7221C151.908 80.4758 152.331 81.4675 152.331 82.772H153.831C153.831 81.1005 153.269 79.6922 152.115 78.6219L151.095 79.7221ZM152.331 82.772C152.331 83.7031 152.11 84.5158 151.682 85.2301L152.968 86.0019C153.547 85.0362 153.831 83.9529 153.831 82.772H152.331ZM151.678 85.2357C151.258 85.9499 150.677 86.5668 149.921 87.0855L150.769 88.3225C151.693 87.6892 152.431 86.9141 152.971 85.9963L151.678 85.2357ZM149.925 87.0828C149.185 87.5833 148.3 87.9845 147.261 88.2783L147.669 89.7217C148.837 89.3915 149.873 88.9287 150.765 88.3252L149.925 87.0828ZM147.276 88.2743C146.236 88.5453 145.148 88.682 144.009 88.682V90.182C145.269 90.182 146.485 90.0307 147.654 89.7257L147.276 88.2743Z" fill="#45413C"/>
</svg>
