<svg width="160" height="160" viewBox="0 0 160 160" fill="none" xmlns="http://www.w3.org/2000/svg">
<path d="M15.9995 79.9995C15.9995 96.9734 22.7423 113.252 34.7447 125.254C46.747 137.257 63.0257 144 79.9995 144C96.9734 144 113.252 137.257 125.254 125.254C137.257 113.252 144 96.9734 144 79.9995C144 63.0257 137.257 46.747 125.254 34.7447C113.252 22.7423 96.9734 15.9995 79.9995 15.9995C63.0257 15.9995 46.747 22.7423 34.7447 34.7447C22.7423 46.747 15.9995 63.0257 15.9995 79.9995V79.9995Z" fill="#C7F0FF"/>
<path d="M20.8028 121V109.576H37.2188V74.344H23.6828V65.608C25.7308 65.288 27.5548 64.968 29.1548 64.648C30.8188 64.264 32.3228 63.848 33.6668 63.4C35.0108 62.952 36.2588 62.472 37.4108 61.96C38.6268 61.384 39.8108 60.744 40.9628 60.04H51.3308V109.576H65.1548V121H20.8028Z" fill="#FFE500"/>
<path d="M20.8028 121H20.0528C20.0528 121.414 20.3885 121.75 20.8028 121.75V121ZM20.8028 109.576V108.826C20.3885 108.826 20.0528 109.162 20.0528 109.576H20.8028ZM37.2188 109.576V110.326C37.633 110.326 37.9688 109.99 37.9688 109.576H37.2188ZM37.2188 74.344H37.9688C37.9688 73.9298 37.633 73.594 37.2188 73.594V74.344ZM23.6828 74.344H22.9328C22.9328 74.7582 23.2685 75.094 23.6828 75.094V74.344ZM23.6828 65.608L23.567 64.867C23.2019 64.924 22.9328 65.2385 22.9328 65.608H23.6828ZM29.1548 64.648L29.3018 65.3834C29.309 65.382 29.3162 65.3804 29.3234 65.3788L29.1548 64.648ZM33.6668 63.4L33.9039 64.1115L33.9039 64.1115L33.6668 63.4ZM37.4108 61.96L37.7154 62.6454C37.7209 62.6429 37.7264 62.6404 37.7318 62.6378L37.4108 61.96ZM40.9628 60.04V59.29C40.8247 59.29 40.6894 59.3281 40.5717 59.4L40.9628 60.04ZM51.3308 60.04H52.0808C52.0808 59.6258 51.745 59.29 51.3308 59.29V60.04ZM51.3308 109.576H50.5808C50.5808 109.99 50.9165 110.326 51.3308 110.326V109.576ZM65.1548 109.576H65.9048C65.9048 109.162 65.569 108.826 65.1548 108.826V109.576ZM65.1548 121V121.75C65.569 121.75 65.9048 121.414 65.9048 121H65.1548ZM21.5528 121V109.576H20.0528V121H21.5528ZM20.8028 110.326H37.2188V108.826H20.8028V110.326ZM37.9688 109.576V74.344H36.4688V109.576H37.9688ZM37.2188 73.594H23.6828V75.094H37.2188V73.594ZM24.4328 74.344V65.608H22.9328V74.344H24.4328ZM23.7985 66.349C25.8544 66.0278 27.6891 65.706 29.3018 65.3834L29.0077 63.9126C27.4204 64.23 25.6071 64.5482 23.567 64.867L23.7985 66.349ZM29.3234 65.3788C31.006 64.9905 32.5334 64.5684 33.9039 64.1115L33.4296 62.6885C32.1121 63.1276 30.6315 63.5375 28.9861 63.9172L29.3234 65.3788ZM33.9039 64.1115C35.2681 63.6568 36.5388 63.1683 37.7154 62.6454L37.1061 61.2746C35.9787 61.7757 34.7534 62.2472 33.4296 62.6885L33.9039 64.1115ZM37.7318 62.6378C38.9719 62.0504 40.1793 61.3978 41.3538 60.68L40.5717 59.4C39.4422 60.0902 38.2816 60.7176 37.0897 61.2822L37.7318 62.6378ZM40.9628 60.79H51.3308V59.29H40.9628V60.79ZM50.5808 60.04V109.576H52.0808V60.04H50.5808ZM51.3308 110.326H65.1548V108.826H51.3308V110.326ZM64.4048 109.576V121H65.9048V109.576H64.4048ZM65.1548 120.25H20.8028V121.75H65.1548V120.25Z" fill="#45413C"/>
<path d="M82.0188 85.768C79.3308 85.768 76.6428 85.352 73.9548 84.52C71.3308 83.624 69.0588 82.504 67.1388 81.16L71.6508 75.112C73.3788 76.2 75.0748 77.032 76.7388 77.608C78.4668 78.184 80.2908 78.472 82.2108 78.472C84.0668 78.472 85.4108 78.248 86.2428 77.8C87.0748 77.352 87.4908 76.744 87.4908 75.976C87.4908 75.016 86.7228 74.28 85.1868 73.768C83.6508 73.192 81.8908 72.616 79.9068 72.04C78.6268 71.656 77.3468 71.208 76.0668 70.696C74.8508 70.12 73.6988 69.48 72.6108 68.776C71.5868 68.008 70.7548 67.144 70.1148 66.184C69.4748 65.16 69.1548 63.976 69.1548 62.632C69.1548 59.624 70.4348 57.192 72.9948 55.336C75.5548 53.48 79.0748 52.552 83.5548 52.552C86.3068 52.552 88.7708 53 90.9468 53.896C93.1228 54.792 95.0428 55.752 96.7068 56.776L92.1948 62.632C90.8508 61.8 89.4748 61.16 88.0668 60.712C86.6588 60.264 85.1868 60.04 83.6508 60.04C81.9868 60.04 80.8028 60.232 80.0988 60.616C79.3948 61 79.0428 61.544 79.0428 62.248C79.0428 63.144 79.7468 63.848 81.1548 64.36C82.6268 64.872 84.3548 65.416 86.3388 65.992C87.6188 66.376 88.8988 66.824 90.1788 67.336C91.5228 67.784 92.7068 68.392 93.7308 69.16C94.8188 69.864 95.6828 70.728 96.3228 71.752C97.0268 72.776 97.3788 73.992 97.3788 75.4C97.3788 78.344 96.0668 80.808 93.4428 82.792C90.8188 84.776 87.0108 85.768 82.0188 85.768Z" fill="#FFE500"/>
<path d="M73.9548 84.52L73.7124 85.2298C73.7192 85.2321 73.7261 85.2343 73.733 85.2365L73.9548 84.52ZM67.1388 81.16L66.5376 80.7115C66.4163 80.8741 66.366 81.0789 66.3983 81.2792C66.4305 81.4794 66.5425 81.6581 66.7087 81.7744L67.1388 81.16ZM71.6508 75.112L72.0504 74.4773C71.7193 74.2689 71.2836 74.3499 71.0496 74.6635L71.6508 75.112ZM76.7388 77.608L76.4934 78.3168L76.5016 78.3195L76.7388 77.608ZM86.2428 77.8L85.8872 77.1396L85.8872 77.1396L86.2428 77.8ZM85.1868 73.768L84.9234 74.4702C84.9321 74.4735 84.9408 74.4766 84.9496 74.4795L85.1868 73.768ZM79.9068 72.04L79.6912 72.7584L79.6976 72.7603L79.9068 72.04ZM76.0668 70.696L75.7457 71.3738C75.7597 71.3804 75.7738 71.3866 75.7882 71.3924L76.0668 70.696ZM72.6108 68.776L72.1608 69.376C72.1746 69.3864 72.1888 69.3963 72.2033 69.4057L72.6108 68.776ZM70.1148 66.184L69.4788 66.5815C69.4826 66.5877 69.4866 66.5939 69.4907 66.6L70.1148 66.184ZM72.9948 55.336L73.435 55.9432L73.435 55.9432L72.9948 55.336ZM90.9468 53.896L90.6612 54.5895L90.6612 54.5895L90.9468 53.896ZM96.7068 56.776L97.3009 57.2338C97.4306 57.0654 97.4828 56.8498 97.4445 56.6407C97.4061 56.4317 97.2809 56.2487 97.0998 56.1373L96.7068 56.776ZM92.1948 62.632L91.8 63.2697C92.127 63.4721 92.5541 63.3944 92.7889 63.0897L92.1948 62.632ZM88.0668 60.712L87.8393 61.4267L87.8393 61.4267L88.0668 60.712ZM80.0988 60.616L80.4579 61.2744L80.4579 61.2744L80.0988 60.616ZM81.1548 64.36L80.8984 65.0649L80.9084 65.0684L81.1548 64.36ZM86.3388 65.992L86.5543 65.2736L86.5479 65.2717L86.3388 65.992ZM90.1788 67.336L89.9002 68.0324C89.9138 68.0378 89.9276 68.0429 89.9416 68.0475L90.1788 67.336ZM93.7308 69.16L93.2808 69.76C93.2946 69.7704 93.3088 69.7803 93.3233 69.7897L93.7308 69.16ZM96.3228 71.752L95.6868 72.1495C95.6925 72.1588 95.6985 72.1679 95.7047 72.1769L96.3228 71.752ZM93.4428 82.792L92.9904 82.1938L92.9904 82.1938L93.4428 82.792ZM82.0188 85.018C79.4094 85.018 76.7961 84.6143 74.1765 83.8035L73.733 85.2365C76.4894 86.0896 79.2521 86.518 82.0188 86.518V85.018ZM74.1971 83.8102C71.628 82.933 69.4216 81.8425 67.5688 80.5456L66.7087 81.7744C68.6959 83.1655 71.0335 84.315 73.7124 85.2298L74.1971 83.8102ZM67.7399 81.6085L72.2519 75.5605L71.0496 74.6635L66.5376 80.7115L67.7399 81.6085ZM71.2511 75.7467C73.0201 76.8604 74.7676 77.7193 76.4934 78.3167L76.9841 76.8993C75.3819 76.3447 73.7374 75.5396 72.0504 74.4773L71.2511 75.7467ZM76.5016 78.3195C78.3101 78.9224 80.2145 79.222 82.2108 79.222V77.722C80.367 77.722 78.6234 77.4456 76.9759 76.8965L76.5016 78.3195ZM82.2108 79.222C84.0929 79.222 85.5949 79.0007 86.5983 78.4604L85.8872 77.1396C85.2266 77.4953 84.0406 77.722 82.2108 77.722V79.222ZM86.5983 78.4604C87.6068 77.9173 88.2408 77.0879 88.2408 75.976H86.7408C86.7408 76.4001 86.5427 76.7867 85.8872 77.1396L86.5983 78.4604ZM88.2408 75.976C88.2408 74.4982 87.0275 73.591 85.4239 73.0565L84.9496 74.4795C86.418 74.969 86.7408 75.5338 86.7408 75.976H88.2408ZM85.4501 73.0658C83.8924 72.4816 82.1137 71.8998 80.1159 71.3197L79.6976 72.7603C81.6678 73.3322 83.4091 73.9024 84.9234 74.4702L85.4501 73.0658ZM80.1223 71.3216C78.8642 70.9442 77.6053 70.5036 76.3453 69.9996L75.7882 71.3924C77.0882 71.9124 78.3893 72.3678 79.6912 72.7584L80.1223 71.3216ZM76.3878 70.0182C75.2005 69.4558 74.0775 68.8317 73.0182 68.1463L72.2033 69.4057C73.32 70.1283 74.501 70.7842 75.7457 71.3738L76.3878 70.0182ZM73.0608 68.176C72.0974 67.4535 71.3268 66.6499 70.7388 65.768L69.4907 66.6C70.1827 67.6381 71.0761 68.5625 72.1608 69.376L73.0608 68.176ZM70.7507 65.7865C70.1935 64.8949 69.9048 63.8518 69.9048 62.632H68.4048C68.4048 64.1002 68.756 65.4251 69.4788 66.5815L70.7507 65.7865ZM69.9048 62.632C69.9048 59.8785 71.0578 57.6666 73.435 55.9432L72.5545 54.7288C69.8117 56.7174 68.4048 59.3695 68.4048 62.632H69.9048ZM73.435 55.9432C75.8235 54.2115 79.1691 53.302 83.5548 53.302V51.802C78.9804 51.802 75.286 52.7485 72.5545 54.7288L73.435 55.9432ZM83.5548 53.302C86.2252 53.302 88.5898 53.7366 90.6612 54.5895L91.2323 53.2025C88.9517 52.2634 86.3884 51.802 83.5548 51.802V53.302ZM90.6612 54.5895C92.8072 55.4732 94.6901 56.4156 96.3137 57.4147L97.0998 56.1373C95.3954 55.0884 93.4383 54.1108 91.2323 53.2025L90.6612 54.5895ZM96.1126 56.3182L91.6006 62.1742L92.7889 63.0897L97.3009 57.2338L96.1126 56.3182ZM92.5895 61.9943C91.1967 61.1321 89.7648 60.4652 88.2942 59.9973L87.8393 61.4267C89.1847 61.8547 90.5048 62.4679 91.8 63.2697L92.5895 61.9943ZM88.2942 59.9973C86.8097 59.525 85.2608 59.29 83.6508 59.29V60.79C85.1127 60.79 86.5078 61.003 87.8393 61.4267L88.2942 59.9973ZM83.6508 59.29C81.9689 59.29 80.6202 59.4773 79.7396 59.9576L80.4579 61.2744C80.9853 60.9867 82.0046 60.79 83.6508 60.79V59.29ZM79.7396 59.9576C78.8353 60.4508 78.2928 61.2261 78.2928 62.248H79.7928C79.7928 61.8619 79.9542 61.5492 80.4579 61.2744L79.7396 59.9576ZM78.2928 62.248C78.2928 63.6448 79.418 64.5265 80.8984 65.0648L81.4111 63.6552C80.0755 63.1695 79.7928 62.6432 79.7928 62.248H78.2928ZM80.9084 65.0684C82.3959 65.5858 84.1369 66.1337 86.1296 66.7123L86.5479 65.2717C84.5726 64.6983 82.8576 64.1582 81.4011 63.6516L80.9084 65.0684ZM86.1232 66.7104C87.3813 67.0878 88.6402 67.5284 89.9002 68.0324L90.4573 66.6396C89.1573 66.1196 87.8562 65.6642 86.5543 65.2736L86.1232 66.7104ZM89.9416 68.0475C91.2172 68.4727 92.3277 69.0452 93.2808 69.76L94.1808 68.56C93.0858 67.7388 91.8283 67.0953 90.4159 66.6245L89.9416 68.0475ZM93.3233 69.7897C94.3259 70.4384 95.1092 71.2254 95.6868 72.1495L96.9588 71.3545C96.2563 70.2306 95.3116 69.2896 94.1382 68.5303L93.3233 69.7897ZM95.7047 72.1769C96.3116 73.0597 96.6288 74.1228 96.6288 75.4H98.1288C98.1288 73.8612 97.7419 72.4923 96.9408 71.3271L95.7047 72.1769ZM96.6288 75.4C96.6288 78.079 95.4522 80.3324 92.9904 82.1938L93.8951 83.3902C96.6813 81.2836 98.1288 78.609 98.1288 75.4H96.6288ZM92.9904 82.1938C90.5486 84.04 86.9275 85.018 82.0188 85.018V86.518C87.094 86.518 91.0889 85.512 93.8951 83.3902L92.9904 82.1938Z" fill="#45413C"/>
<path d="M124.259 85.768C121.699 85.768 119.523 85.448 117.731 84.808C115.939 84.104 114.499 83.144 113.411 81.928C112.323 80.648 111.523 79.176 111.011 77.512C110.499 75.784 110.243 73.864 110.243 71.752V61.096H103.619V53.704L110.723 53.32L111.971 44.008H120.323V53.32H132.707V61.096H120.323V71.656C120.323 74.024 120.835 75.688 121.859 76.648C122.883 77.544 124.515 77.992 126.755 77.992C128.739 77.992 130.595 77.64 132.323 76.936L134.051 84.04C132.771 84.488 131.299 84.904 129.635 85.288C128.035 85.608 126.243 85.768 124.259 85.768Z" fill="#FFE500"/>
<path d="M117.731 84.808L117.457 85.5061C117.464 85.5089 117.471 85.5117 117.478 85.5143L117.731 84.808ZM113.411 81.928L112.839 82.4137C112.843 82.4186 112.848 82.4234 112.852 82.4281L113.411 81.928ZM111.011 77.512L110.292 77.7251L110.294 77.7326L111.011 77.512ZM110.243 61.096H110.993C110.993 60.6818 110.657 60.346 110.243 60.346V61.096ZM103.619 61.096H102.869C102.869 61.5102 103.205 61.846 103.619 61.846V61.096ZM103.619 53.704L103.578 52.9551C103.18 52.9766 102.869 53.3055 102.869 53.704H103.619ZM110.723 53.32L110.763 54.0689C111.123 54.0495 111.418 53.7768 111.466 53.4196L110.723 53.32ZM111.971 44.008V43.258C111.595 43.258 111.277 43.536 111.227 43.9084L111.971 44.008ZM120.323 44.008H121.073C121.073 43.5938 120.737 43.258 120.323 43.258V44.008ZM120.323 53.32H119.573C119.573 53.7342 119.909 54.07 120.323 54.07V53.32ZM132.707 53.32H133.457C133.457 52.9058 133.121 52.57 132.707 52.57V53.32ZM132.707 61.096V61.846C133.121 61.846 133.457 61.5102 133.457 61.096H132.707ZM120.323 61.096V60.346C119.909 60.346 119.573 60.6818 119.573 61.096H120.323ZM121.859 76.648L121.346 77.1952C121.352 77.201 121.358 77.2068 121.365 77.2124L121.859 76.648ZM132.323 76.936L133.052 76.7587C133 76.5467 132.859 76.3676 132.664 76.2682C132.47 76.1689 132.242 76.1591 132.04 76.2414L132.323 76.936ZM134.051 84.04L134.299 84.7479C134.663 84.6205 134.871 84.2376 134.78 83.8627L134.051 84.04ZM129.635 85.288L129.782 86.0234C129.789 86.022 129.796 86.0204 129.803 86.0188L129.635 85.288ZM124.259 85.018C121.757 85.018 119.671 84.7047 117.983 84.1017L117.478 85.5143C119.374 86.1913 121.641 86.518 124.259 86.518V85.018ZM118.005 84.1099C116.303 83.4411 114.967 82.5422 113.97 81.4279L112.852 82.4281C114.031 83.7458 115.575 84.7669 117.457 85.5061L118.005 84.1099ZM113.982 81.4423C112.963 80.2427 112.211 78.8617 111.728 77.2914L110.294 77.7326C110.835 79.4903 111.683 81.0533 112.839 82.4137L113.982 81.4423ZM111.73 77.2989C111.242 75.6508 110.993 73.8039 110.993 71.752H109.493C109.493 73.9241 109.756 75.9172 110.292 77.7251L111.73 77.2989ZM110.993 71.752V61.096H109.493V71.752H110.993ZM110.243 60.346H103.619V61.846H110.243V60.346ZM104.369 61.096V53.704H102.869V61.096H104.369ZM103.659 54.4529L110.763 54.0689L110.682 52.5711L103.578 52.9551L103.659 54.4529ZM111.466 53.4196L112.714 44.1076L111.227 43.9084L109.979 53.2204L111.466 53.4196ZM111.971 44.758H120.323V43.258H111.971V44.758ZM119.573 44.008V53.32H121.073V44.008H119.573ZM120.323 54.07H132.707V52.57H120.323V54.07ZM131.957 53.32V61.096H133.457V53.32H131.957ZM132.707 60.346H120.323V61.846H132.707V60.346ZM119.573 61.096V71.656H121.073V61.096H119.573ZM119.573 71.656C119.573 74.096 120.094 76.0218 121.346 77.1952L122.372 76.1008C121.575 75.3542 121.073 73.952 121.073 71.656H119.573ZM121.365 77.2124C122.59 78.2845 124.443 78.742 126.755 78.742V77.242C124.587 77.242 123.175 76.8035 122.353 76.0836L121.365 77.2124ZM126.755 78.742C128.83 78.742 130.782 78.3734 132.606 77.6306L132.04 76.2414C130.407 76.9065 128.648 77.242 126.755 77.242V78.742ZM131.594 77.1133L133.322 84.2173L134.78 83.8627L133.052 76.7587L131.594 77.1133ZM133.803 83.3321C132.555 83.7691 131.11 84.1779 129.466 84.5572L129.803 86.0188C131.488 85.6301 132.987 85.2069 134.299 84.7479L133.803 83.3321ZM129.488 84.5526C127.945 84.8611 126.204 85.018 124.259 85.018V86.518C126.282 86.518 128.124 86.3549 129.782 86.0234L129.488 84.5526Z" fill="#45413C"/>
</svg>
