<svg width="160" height="160" viewBox="0 0 160 160" fill="none" xmlns="http://www.w3.org/2000/svg">
<path d="M15.4673 84.718C15.4673 101.692 22.2101 117.971 34.2125 129.973C46.2148 141.975 62.4934 148.718 79.4673 148.718C96.4411 148.718 112.72 141.975 124.722 129.973C136.724 117.971 143.467 101.692 143.467 84.718C143.467 67.7442 136.724 51.4655 124.722 39.4632C112.72 27.4609 96.4411 20.718 79.4673 20.718C62.4934 20.718 46.2148 27.4609 34.2125 39.4632C22.2101 51.4655 15.4673 67.7442 15.4673 84.718V84.718Z" fill="#C7F0FF"/>
<path opacity="0.15" d="M43.208 134.581C43.208 135.346 47.1098 136.08 54.0549 136.622C61 137.163 70.4197 137.467 80.2416 137.467C90.0635 137.467 99.4832 137.163 106.428 136.622C113.373 136.08 117.275 135.346 117.275 134.581C117.275 133.815 113.373 133.081 106.428 132.54C99.4832 131.998 90.0635 131.694 80.2416 131.694C70.4197 131.694 61 131.998 54.0549 132.54C47.1098 133.081 43.208 133.815 43.208 134.581V134.581Z" fill="#45413C"/>
<path d="M59.3824 100.358H49.9008C49.6514 100.358 49.4043 100.31 49.1738 100.215C48.9432 100.12 48.7336 99.9801 48.557 99.8039C48.3805 99.6278 48.2404 99.4186 48.1448 99.1883C48.0492 98.9579 48 98.711 48 98.4616V94.6696C47.9998 94.4204 48.0487 94.1737 48.1439 93.9435C48.2391 93.7133 48.3787 93.5041 48.5548 93.3279C48.7308 93.1516 48.9399 93.0118 49.1701 92.9164C49.4002 92.8211 49.6469 92.772 49.896 92.772H59.3776L59.3824 100.358Z" fill="#FF6242"/>
<path d="M49.9008 92.772C49.6513 92.7713 49.4041 92.82 49.1734 92.9151C48.9427 93.0102 48.733 93.1499 48.5565 93.3262C48.3799 93.5025 48.2398 93.7119 48.1443 93.9424C48.0488 94.1729 47.9998 94.4201 48 94.6696V98.4616C47.9998 98.2125 48.0487 97.9659 48.1439 97.7358C48.2391 97.5056 48.3788 97.2965 48.5549 97.1204C48.731 96.9443 48.9401 96.8047 49.1702 96.7095C49.4003 96.6143 49.647 96.5654 49.896 96.5656H59.3776V92.772H49.9008Z" fill="#FF866E"/>
<path d="M59.3824 100.358H49.9008C49.6514 100.358 49.4043 100.31 49.1738 100.215C48.9432 100.12 48.7336 99.9801 48.557 99.8039C48.3805 99.6278 48.2404 99.4186 48.1448 99.1883C48.0492 98.9579 48 98.711 48 98.4616V94.6696C47.9998 94.4204 48.0487 94.1737 48.1439 93.9435C48.2391 93.7133 48.3787 93.5041 48.5548 93.3279C48.7308 93.1516 48.9399 93.0118 49.1701 92.9164C49.4002 92.8211 49.6469 92.772 49.896 92.772H59.3776L59.3824 100.358Z" stroke="#45413C" stroke-width="1.5" stroke-linecap="round" stroke-linejoin="round"/>
<path d="M101.101 100.358H110.582C111.085 100.358 111.568 100.158 111.923 99.8023C112.279 99.4468 112.479 98.9646 112.48 98.4616V94.6696C112.48 94.1666 112.28 93.6842 111.925 93.3283C111.569 92.9725 111.087 92.7724 110.584 92.772H101.101V100.358Z" fill="#FF6242"/>
<path d="M110.582 92.772C111.085 92.772 111.568 92.9719 111.924 93.3278C112.28 93.6836 112.48 94.1663 112.48 94.6696V98.4616C112.48 97.9587 112.28 97.4765 111.924 97.1209C111.569 96.7653 111.087 96.5656 110.584 96.5656H101.101V92.772H110.582Z" fill="#FF866E"/>
<path d="M101.101 100.358H110.582C111.085 100.358 111.568 100.158 111.923 99.8023C112.279 99.4468 112.479 98.9646 112.48 98.4616V94.6696C112.48 94.1666 112.28 93.6842 111.925 93.3283C111.569 92.9725 111.087 92.7724 110.584 92.772H101.101V100.358Z" stroke="#45413C" stroke-width="1.5" stroke-linecap="round" stroke-linejoin="round"/>
<path d="M104.893 96.566L99.3101 83.9996C98.7141 82.659 97.7421 81.52 96.5119 80.7206C95.2817 79.9212 93.8461 79.4957 92.3789 79.4956H68.1037C66.6366 79.4957 65.201 79.9212 63.9708 80.7206C62.7405 81.52 61.7686 82.659 61.1725 83.9996L55.5885 96.5628L45.5757 104.907C45.1486 105.263 44.805 105.708 44.5692 106.212C44.3333 106.715 44.211 107.264 44.2109 107.82V119.318C44.2105 120.324 44.6093 121.288 45.3198 122C46.0302 122.711 46.9942 123.112 47.9997 123.113H112.48C113.485 123.113 114.45 122.714 115.161 122.003C115.872 121.291 116.272 120.327 116.272 119.321V107.824C116.272 107.268 116.15 106.718 115.914 106.215C115.678 105.711 115.334 105.266 114.907 104.91L104.893 96.566Z" fill="#FF6242"/>
<path d="M116.27 107.824C116.27 107.268 116.148 106.718 115.912 106.215C115.676 105.711 115.333 105.266 114.905 104.91L104.893 96.566L99.3101 83.9996C98.7141 82.659 97.7421 81.52 96.5119 80.7206C95.2817 79.9212 93.8461 79.4957 92.3789 79.4956H68.1037C66.6366 79.4957 65.201 79.9212 63.9708 80.7206C62.7405 81.52 61.7686 82.659 61.1725 83.9996L55.5885 96.5628L45.5757 104.907C45.1487 105.263 44.8051 105.708 44.5693 106.212C44.3335 106.715 44.2111 107.264 44.2109 107.82V113.508C44.2111 112.953 44.3335 112.404 44.5693 111.901C44.8052 111.397 45.1488 110.952 45.5757 110.596L55.5885 102.251L61.1725 89.6892C61.7686 88.3486 62.7405 87.2096 63.9708 86.4102C65.201 85.6108 66.6366 85.1853 68.1037 85.1852H92.3789C93.8461 85.1853 95.2817 85.6108 96.5119 86.4102C97.7421 87.2096 98.7141 88.3486 99.3101 89.6892L104.893 102.251L114.905 110.596C115.333 110.952 115.676 111.397 115.912 111.9C116.148 112.404 116.27 112.953 116.27 113.508V107.824Z" fill="#FF866E"/>
<path d="M104.893 96.566L99.3101 83.9996C98.7141 82.659 97.7421 81.52 96.5119 80.7206C95.2817 79.9212 93.8461 79.4957 92.3789 79.4956H68.1037C66.6366 79.4957 65.201 79.9212 63.9708 80.7206C62.7405 81.52 61.7686 82.659 61.1725 83.9996L55.5885 96.5628L45.5757 104.907C45.1486 105.263 44.805 105.708 44.5692 106.212C44.3333 106.715 44.211 107.264 44.2109 107.82V119.318C44.2105 120.324 44.6093 121.288 45.3198 122C46.0302 122.711 46.9942 123.112 47.9997 123.113H112.48C113.485 123.113 114.45 122.714 115.161 122.003C115.872 121.291 116.272 120.327 116.272 119.321V107.824C116.272 107.268 116.15 106.718 115.914 106.215C115.678 105.711 115.334 105.266 114.907 104.91L104.893 96.566Z" stroke="#45413C" stroke-width="1.5" stroke-linecap="round" stroke-linejoin="round"/>
<path d="M57.4865 134.491H51.7969C51.5478 134.492 51.3012 134.443 51.0711 134.347C50.8409 134.252 50.6318 134.113 50.4557 133.937C50.2796 133.76 50.14 133.551 50.0448 133.321C49.9496 133.091 49.9007 132.844 49.9009 132.595V123.114H59.3825V132.595C59.3825 133.098 59.1827 133.58 58.8272 133.936C58.4716 134.292 57.9893 134.491 57.4865 134.491V134.491Z" fill="#656769" stroke="#45413C" stroke-width="1.5" stroke-linecap="round" stroke-linejoin="round"/>
<path d="M110.582 132.595C110.582 133.098 110.382 133.58 110.027 133.936C109.671 134.292 109.189 134.491 108.686 134.491H102.997C102.748 134.492 102.501 134.443 102.271 134.347C102.041 134.252 101.832 134.113 101.655 133.937C101.479 133.76 101.34 133.551 101.244 133.321C101.149 133.091 101.1 132.844 101.101 132.595V123.114H110.582V132.595Z" fill="#656769" stroke="#45413C" stroke-width="1.5" stroke-linecap="round" stroke-linejoin="round"/>
<path d="M116.27 121.217C116.27 122.223 115.871 123.188 115.16 123.899C114.448 124.611 113.484 125.01 112.478 125.011H47.9997C46.9937 125.01 46.029 124.611 45.3176 123.899C44.6063 123.188 44.2065 122.223 44.2061 121.217V115.529H116.27V121.217Z" fill="#E8F4FA"/>
<path d="M44.2109 115.529H116.27V119.321H44.2109V115.529Z" fill="white"/>
<path d="M116.27 121.217C116.27 122.223 115.871 123.188 115.16 123.899C114.448 124.611 113.484 125.01 112.478 125.011H47.9997C46.9937 125.01 46.029 124.611 45.3176 123.899C44.6063 123.188 44.2065 122.223 44.2061 121.217V115.529H116.27V121.217Z" stroke="#45413C" stroke-width="1.5" stroke-linecap="round" stroke-linejoin="round"/>
<path d="M70.7603 118.97H89.7234V128.451H70.7603V118.97Z" fill="white" stroke="#45413C" stroke-width="1.5" stroke-linecap="round" stroke-linejoin="round"/>
<path d="M95.4111 115.529H65.0703L66.2495 110.815C66.4529 109.993 66.9259 109.263 67.5929 108.741C68.2599 108.218 69.0825 107.935 69.9295 107.935H90.5599C91.4067 107.935 92.2291 108.219 92.896 108.741C93.5629 109.263 94.036 109.993 94.2399 110.815L95.4111 115.529Z" fill="#87898C"/>
<path d="M95.4111 115.529H65.0703L66.2495 110.815C66.4529 109.993 66.9259 109.263 67.5929 108.741C68.2599 108.218 69.0825 107.935 69.9295 107.935H90.5599C91.4067 107.935 92.2291 108.219 92.896 108.741C93.5629 109.263 94.036 109.993 94.2399 110.815L95.4111 115.529Z" stroke="#45413C" stroke-width="1.5" stroke-linecap="round" stroke-linejoin="round"/>
<path d="M55.5885 115.529H44.2109V107.943H49.2509C50.5197 107.943 51.7522 108.367 52.7523 109.148C53.7525 109.929 54.463 111.021 54.7709 112.252L55.5885 115.529Z" fill="#FFE500" stroke="#45413C" stroke-width="1.5" stroke-linecap="round" stroke-linejoin="round"/>
<path d="M66.019 111.735H94.4638" stroke="#45413C" stroke-width="1.5" stroke-linecap="round" stroke-linejoin="round"/>
<path d="M104.893 115.529H116.27V107.943H111.23C109.962 107.943 108.729 108.367 107.729 109.148C106.73 109.929 106.019 111.021 105.712 112.252L104.893 115.529Z" fill="#FFE500" stroke="#45413C" stroke-width="1.5" stroke-linecap="round" stroke-linejoin="round"/>
<path d="M91.0595 83.2908H69.4227C68.2433 83.2675 67.0814 83.5791 66.0718 84.1894C65.0622 84.7997 64.2464 85.6836 63.7187 86.7388L60.4307 93.7788C60.2883 94.0814 60.2303 94.4168 60.2626 94.7497C60.295 95.0825 60.4167 95.4005 60.6147 95.67C60.8261 95.9534 61.1016 96.1828 61.4186 96.3394C61.7356 96.4959 62.0852 96.5752 62.4387 96.5708H98.0451C98.3987 96.5752 98.7483 96.4959 99.0653 96.3394C99.3823 96.1828 99.6578 95.9534 99.8691 95.67C100.067 95.4003 100.188 95.0824 100.22 94.7496C100.253 94.4168 100.195 94.0815 100.053 93.7788L96.7635 86.7388C96.2359 85.6836 95.42 84.7997 94.4105 84.1894C93.4009 83.5791 92.239 83.2675 91.0595 83.2908Z" fill="#00B8F0"/>
<path d="M78.1731 96.5659H62.4387C62.0852 96.5703 61.7356 96.4911 61.4186 96.3345C61.1016 96.1779 60.8261 95.9485 60.6147 95.6651C60.4167 95.3956 60.295 95.0777 60.2626 94.7448C60.2303 94.4119 60.2883 94.0765 60.4307 93.7739L63.7187 86.7339C64.2464 85.6787 65.0622 84.7948 66.0718 84.1845C67.0814 83.5742 68.2433 83.2627 69.4227 83.2859H91.0595C91.5396 83.2878 92.0181 83.3414 92.4867 83.4459L78.1731 96.5659Z" fill="#4ACFFF"/>
<path d="M91.0595 83.2908H69.4227C68.2433 83.2675 67.0814 83.5791 66.0718 84.1894C65.0622 84.7997 64.2464 85.6836 63.7187 86.7388L60.4307 93.7788C60.2883 94.0814 60.2303 94.4168 60.2626 94.7497C60.295 95.0825 60.4167 95.4005 60.6147 95.67C60.8261 95.9534 61.1016 96.1828 61.4186 96.3394C61.7356 96.4959 62.0852 96.5752 62.4387 96.5708H98.0451C98.3987 96.5752 98.7483 96.4959 99.0653 96.3394C99.3823 96.1828 99.6578 95.9534 99.8691 95.67C100.067 95.4003 100.188 95.0824 100.22 94.7496C100.253 94.4168 100.195 94.0815 100.053 93.7788L96.7635 86.7388C96.2359 85.6836 95.42 84.7997 94.4105 84.1894C93.4009 83.5791 92.239 83.2675 91.0595 83.2908Z" stroke="#45413C" stroke-width="1.5" stroke-linecap="round" stroke-linejoin="round"/>
<path d="M82.6343 30H112.394C114.861 30 117.227 30.9799 118.971 32.7241C120.715 34.4684 121.695 36.8341 121.695 39.3008V55.68C121.695 56.9015 121.455 58.111 120.988 59.2395C120.52 60.368 119.835 61.3934 118.971 62.2571C118.108 63.1208 117.082 63.8059 115.954 64.2732C114.825 64.7406 113.616 64.981 112.394 64.9808H94.3143L87.6919 74.2608C87.584 74.4119 87.4334 74.5273 87.2594 74.592C87.0853 74.6567 86.8959 74.6679 86.7155 74.624C86.5351 74.5801 86.372 74.4832 86.2471 74.3457C86.1223 74.2083 86.0415 74.0366 86.0151 73.8528L84.7479 64.9888H82.6343C81.4128 64.989 80.2033 64.7486 79.0748 64.2812C77.9463 63.8139 76.9209 63.1288 76.0572 62.2651C75.1935 61.4014 74.5084 60.376 74.0411 59.2475C73.5737 58.119 73.3333 56.9095 73.3335 55.688V39.3008C73.3335 36.8341 74.3134 34.4684 76.0576 32.7241C77.8019 30.9799 80.1676 30 82.6343 30V30Z" fill="white"/>
<path d="M82.6343 30H112.394C114.861 30 117.227 30.9799 118.971 32.7241C120.715 34.4684 121.695 36.8341 121.695 39.3008V55.68C121.695 56.9015 121.455 58.111 120.988 59.2395C120.52 60.368 119.835 61.3934 118.971 62.2571C118.108 63.1208 117.082 63.8059 115.954 64.2732C114.825 64.7406 113.616 64.981 112.394 64.9808H94.3143L87.6919 74.2608C87.584 74.4119 87.4334 74.5273 87.2594 74.592C87.0853 74.6567 86.8959 74.6679 86.7155 74.624C86.5351 74.5801 86.372 74.4832 86.2471 74.3457C86.1223 74.2083 86.0415 74.0366 86.0151 73.8528L84.7479 64.9888H82.6343C81.4128 64.989 80.2033 64.7486 79.0748 64.2812C77.9463 63.8139 76.9209 63.1288 76.0572 62.2651C75.1935 61.4014 74.5084 60.376 74.0411 59.2475C73.5737 58.119 73.3333 56.9095 73.3335 55.688V39.3008C73.3335 36.8341 74.3134 34.4684 76.0576 32.7241C77.8019 30.9799 80.1676 30 82.6343 30V30Z" stroke="#45413C" stroke-width="1.5" stroke-linecap="round" stroke-linejoin="round"/>
<path d="M92.7148 38.4548C92.3539 38.558 92.0365 38.7759 91.8104 39.0755C91.5844 39.3751 91.4621 39.7402 91.462 40.1156V52.9956C90.8666 52.733 90.2196 52.6084 89.5693 52.6309C88.919 52.6534 88.2822 52.8226 87.7064 53.1257C87.1307 53.4288 86.6308 53.8581 86.2442 54.3815C85.8576 54.9048 85.5942 55.5088 85.4737 56.1482C85.3532 56.7876 85.3786 57.446 85.5482 58.0742C85.7178 58.7024 86.0271 59.2842 86.453 59.7761C86.879 60.268 87.4105 60.6574 88.008 60.9151C88.6055 61.1728 89.2535 61.2922 89.9036 61.2644C91.0416 61.1874 92.1067 60.6763 92.8788 59.8367C93.6508 58.997 94.071 57.8929 94.0524 56.7524V44.2404L107.012 41.1572V49.5412C106.417 49.2786 105.77 49.154 105.12 49.1765C104.469 49.199 103.833 49.3682 103.257 49.6713C102.681 49.9744 102.181 50.4037 101.795 50.9271C101.408 51.4504 101.145 52.0544 101.024 52.6938C100.904 53.3332 100.929 53.9916 101.099 54.6198C101.268 55.248 101.578 55.8298 102.003 56.3217C102.429 56.8136 102.961 57.203 103.558 57.4607C104.156 57.7184 104.804 57.8378 105.454 57.81C106.593 57.7322 107.658 57.2198 108.429 56.3789C109.201 55.5379 109.62 54.4327 109.6 53.2916V35.9204C109.6 35.653 109.538 35.3892 109.419 35.1498C109.299 34.9105 109.126 34.7021 108.913 34.541C108.699 34.38 108.451 34.2708 108.189 34.2219C107.926 34.1731 107.655 34.186 107.398 34.2596L92.7148 38.4548Z" fill="#FFE500" stroke="#B58B00" stroke-width="1.5" stroke-linecap="round" stroke-linejoin="round"/>
</svg>
