<svg viewBox="0 0 48 48" height="48" width="48" xmlns="http://www.w3.org/2000/svg"><g transform="matrix(0.48,0,0,0.48,0,0)"><path d="M9.752 50.000 A40.000 40.000 0 1 0 89.752 50.000 A40.000 40.000 0 1 0 9.752 50.000 Z" fill="#C7F0FF" stroke="#C7F0FF"></path><path d="M58.752 79.750 A10 1.5 0 1 0 78.752 79.750 A10 1.5 0 1 0 58.752 79.750 Z" fill="#45413c" opacity=".15"></path><path d="M20.451 71.083 A24.784 1.819 0 1 0 70.019 71.083 A24.784 1.819 0 1 0 20.451 71.083 Z" fill="#45413c" opacity=".15"></path><path d="M75.127,18.344a5,5,0,0,0-5.006-5.005H18.566a5,5,0,0,0-5,5.005V52.517H75.127Z" fill="#00b8f0"></path><path d="M54.7,13.339H18.566a5.005,5.005,0,0,0-5,5.005V52.517h1.957Z" fill="#4acfff"></path><path d="M51.806 67.442L36.881 67.442 37.814 59.98 50.874 59.98 51.806 67.442z" fill="#C7F0FF"></path><path d="M51.223 62.778L37.464 62.778 37.814 59.98 50.874 59.98 51.223 62.778z" fill="#c0dceb"></path><path d="M51.806 67.442L36.881 67.442 37.814 59.98 50.874 59.98 51.806 67.442z" fill="none" stroke="#45413c" stroke-linecap="round" stroke-linejoin="round"></path><path d="M55.03,71.174H33.657a1.156,1.156,0,0,1-1.074-1.614,3.732,3.732,0,0,1,3.365-2.118H52.739A3.73,3.73,0,0,1,56.1,69.56,1.155,1.155,0,0,1,55.03,71.174Z" fill="#C7F0FF" stroke="#45413c" stroke-linecap="round" stroke-linejoin="round"></path><path d="M70.121,59.98a5.006,5.006,0,0,0,5.006-5.006V52.517H13.561v2.457a5.005,5.005,0,0,0,5,5.006Z" fill="#ffffff" stroke="#45413c" stroke-linecap="round" stroke-linejoin="round"></path><path d="M75.127,18.344a5,5,0,0,0-5.006-5.005H18.566a5,5,0,0,0-5,5.005V52.517H75.127Z" fill="none" stroke="#45413c" stroke-linecap="round" stroke-linejoin="round"></path><path d="M43.131 56.248 A1.213 1.213 0 1 0 45.557 56.248 A1.213 1.213 0 1 0 43.131 56.248 Z" fill="#45413c"></path><path d="M35.745,23.321H28.907a.809.809,0,0,0-.809.809V46.08h8.457V24.13A.81.81,0,0,0,35.745,23.321Z" fill="#6dd627" stroke="#45413c" stroke-linecap="round" stroke-linejoin="round"></path><path d="M60.59,28.581a.809.809,0,0,0-.809-.809H52.942a.809.809,0,0,0-.809.809v17.5H60.59Z" fill="#ffe500" stroke="#45413c" stroke-linecap="round" stroke-linejoin="round"></path><path d="M24.092 46.08L64.596 46.08" fill="none" stroke="#45413c" stroke-linecap="round" stroke-linejoin="round"></path><path d="M47.763,35.737H40.925a.81.81,0,0,0-.81.809V46.08h8.457V36.546A.809.809,0,0,0,47.763,35.737Z" fill="#ff6242" stroke="#45413c" stroke-linecap="round" stroke-linejoin="round"></path><path d="M83.105,70.745a3.731,3.731,0,1,0,0-7.461l-1.13,0V59.872h1.13a7.143,7.143,0,0,1,0,14.286h-1.13V70.745Z" fill="#ffffff" stroke="#45413c" stroke-linecap="round" stroke-linejoin="round"></path><path d="M81.975,58.546a1.15,1.15,0,0,0-1.15-1.15H63.785a1.15,1.15,0,0,0-1.151,1.15V73.929a5.913,5.913,0,0,0,5.913,5.913h7.515a5.913,5.913,0,0,0,5.913-5.913Z" fill="#ffffff" stroke="#45413c" stroke-linecap="round" stroke-linejoin="round"></path></g></svg>