<svg width="160" height="160" viewBox="0 0 160 160" fill="none" xmlns="http://www.w3.org/2000/svg">
<path d="M23.4395 79.0796C23.4395 96.0534 30.1823 112.332 42.1846 124.334C54.1869 136.337 70.4656 143.08 87.4395 143.08C104.413 143.08 120.692 136.337 132.694 124.334C144.697 112.332 151.439 96.0534 151.439 79.0796C151.439 62.1057 144.697 45.8271 132.694 33.8248C120.692 21.8224 104.413 15.0796 87.4395 15.0796C70.4656 15.0796 54.1869 21.8224 42.1846 33.8248C30.1823 45.8271 23.4395 62.1057 23.4395 79.0796V79.0796Z" fill="#C7F0FF"/>
<path opacity="0.15" d="M63.999 140.52C63.999 141.097 65.0005 141.67 66.9464 142.203C68.8923 142.737 71.7444 143.222 75.3399 143.631C78.9353 144.039 83.2038 144.364 87.9015 144.585C92.5992 144.806 97.6342 144.92 102.719 144.92C107.804 144.92 112.839 144.806 117.537 144.585C122.234 144.364 126.503 144.039 130.098 143.631C133.694 143.222 136.546 142.737 138.492 142.203C140.438 141.67 141.439 141.097 141.439 140.52C141.439 139.942 140.438 139.37 138.492 138.836C136.546 138.302 133.694 137.817 130.098 137.408C126.503 137 122.234 136.676 117.537 136.455C112.839 136.233 107.804 136.12 102.719 136.12C97.6342 136.12 92.5992 136.233 87.9015 136.455C83.2038 136.676 78.9353 137 75.3399 137.408C71.7444 137.817 68.8923 138.302 66.9464 138.836C65.0005 139.37 63.999 139.942 63.999 140.52V140.52Z" fill="#45413C"/>
<path opacity="0.15" d="M9.29199 140.52C9.29199 141.097 9.8838 141.67 11.0336 142.203C12.1835 142.737 13.8688 143.222 15.9934 143.631C18.118 144.039 20.6403 144.364 23.4162 144.585C26.1921 144.806 29.1673 144.92 32.172 144.92C35.1766 144.92 38.1519 144.806 40.9278 144.585C43.7037 144.364 46.226 144.039 48.3506 143.631C50.4752 143.222 52.1605 142.737 53.3104 142.203C54.4602 141.67 55.052 141.097 55.052 140.52C55.052 139.942 54.4602 139.37 53.3104 138.836C52.1605 138.302 50.4752 137.817 48.3506 137.408C46.226 137 43.7037 136.676 40.9278 136.455C38.1519 136.233 35.1766 136.12 32.172 136.12C29.1673 136.12 26.1921 136.233 23.4162 136.455C20.6403 136.676 18.118 137 15.9934 137.408C13.8688 137.817 12.1835 138.302 11.0336 138.836C9.8838 139.37 9.29199 139.942 9.29199 140.52V140.52Z" fill="#45413C"/>
<path d="M64.8794 16.4399H138.799V90.3599H64.8794V16.4399Z" fill="#FFFBE5"/>
<path d="M138.799 23.4799C138.799 21.6128 138.058 19.8222 136.737 18.5019C135.417 17.1817 133.627 16.4399 131.759 16.4399H71.9194C70.0523 16.4399 68.2616 17.1817 66.9414 18.5019C65.6211 19.8222 64.8794 21.6128 64.8794 23.4799V27.8799C64.8794 26.0128 65.6211 24.2222 66.9414 22.9019C68.2616 21.5817 70.0523 20.8399 71.9194 20.8399H131.759C133.627 20.8399 135.417 21.5817 136.737 22.9019C138.058 24.2222 138.799 26.0128 138.799 27.8799V23.4799Z" fill="white"/>
<path d="M64.8794 16.4399H138.799V90.3599H64.8794V16.4399Z" stroke="#45413C" stroke-width="1.5" stroke-linecap="round" stroke-linejoin="round"/>
<path d="M74.5591 26.1196H129.119V80.6796H74.5591V26.1196Z" fill="#525252"/>
<path d="M129.119 29.3196C129.119 28.4709 128.782 27.657 128.182 27.0569C127.582 26.4568 126.768 26.1196 125.919 26.1196H77.7591C76.9104 26.1196 76.0965 26.4568 75.4963 27.0569C74.8962 27.657 74.5591 28.4709 74.5591 29.3196V77.4796C74.5591 78.3283 74.8962 79.1422 75.4963 79.7424C76.0965 80.3425 76.9104 80.6796 77.7591 80.6796H78.0023L129.119 29.5628V29.3196Z" fill="#656769"/>
<path d="M74.5591 26.1196H129.119V80.6796H74.5591V26.1196Z" stroke="#45413C" stroke-width="1.5" stroke-linecap="round" stroke-linejoin="round"/>
<path d="M123.839 84.1992V86.8392" stroke="#45413C" stroke-width="1.5" stroke-linecap="round" stroke-linejoin="round"/>
<path d="M89.064 53.7881C89.01 53.7387 88.9668 53.6787 88.9373 53.6117C88.9078 53.5448 88.8925 53.4724 88.8925 53.3993C88.8925 53.3261 88.9078 53.2537 88.9373 53.1868C88.9668 53.1198 89.01 53.0598 89.064 53.0105L92.7728 49.6105C92.827 49.5608 92.8702 49.5005 92.8997 49.4333C92.9293 49.3661 92.9446 49.2935 92.9446 49.2201C92.9446 49.1466 92.9293 49.074 92.8997 49.0068C92.8702 48.9396 92.827 48.8793 92.7728 48.8297C91.8886 48.0304 90.7916 47.5047 89.6146 47.3165C88.4376 47.1283 87.2314 47.2856 86.142 47.7693C85.0527 48.2531 84.127 49.0424 83.4774 50.0417C82.8277 51.041 82.4819 52.2073 82.4819 53.3993C82.4819 54.5912 82.8277 55.7575 83.4774 56.7568C84.127 57.7561 85.0527 58.5455 86.142 59.0292C87.2314 59.5129 88.4376 59.6702 89.6146 59.482C90.7916 59.2938 91.8886 58.7682 92.7728 57.9689C92.827 57.9192 92.8702 57.8589 92.8997 57.7917C92.9293 57.7245 92.9446 57.6519 92.9446 57.5785C92.9446 57.505 92.9293 57.4324 92.8997 57.3652C92.8702 57.298 92.827 57.2377 92.7728 57.1881L89.064 53.7881Z" fill="#8CFFE4" stroke="#8CFFE4" stroke-width="1.5" stroke-linecap="round" stroke-linejoin="round"/>
<path d="M95.6802 53.3995C95.6802 53.6329 95.7729 53.8567 95.9379 54.0218C96.103 54.1868 96.3268 54.2795 96.5602 54.2795C96.7936 54.2795 97.0174 54.1868 97.1824 54.0218C97.3475 53.8567 97.4402 53.6329 97.4402 53.3995C97.4402 53.1661 97.3475 52.9423 97.1824 52.7773C97.0174 52.6122 96.7936 52.5195 96.5602 52.5195C96.3268 52.5195 96.103 52.6122 95.9379 52.7773C95.7729 52.9423 95.6802 53.1661 95.6802 53.3995V53.3995Z" fill="#8CFFE4" stroke="#8CFFE4" stroke-width="1.5" stroke-linecap="round" stroke-linejoin="round"/>
<path d="M101.839 53.3995C101.839 53.6329 101.932 53.8567 102.097 54.0218C102.262 54.1868 102.486 54.2795 102.719 54.2795C102.953 54.2795 103.177 54.1868 103.342 54.0218C103.507 53.8567 103.599 53.6329 103.599 53.3995C103.599 53.1661 103.507 52.9423 103.342 52.7773C103.177 52.6122 102.953 52.5195 102.719 52.5195C102.486 52.5195 102.262 52.6122 102.097 52.7773C101.932 52.9423 101.839 53.1661 101.839 53.3995V53.3995Z" fill="#8CFFE4" stroke="#8CFFE4" stroke-width="1.5" stroke-linecap="round" stroke-linejoin="round"/>
<path d="M108 53.3995C108 53.6329 108.092 53.8567 108.257 54.0218C108.422 54.1868 108.646 54.2795 108.88 54.2795C109.113 54.2795 109.337 54.1868 109.502 54.0218C109.667 53.8567 109.76 53.6329 109.76 53.3995C109.76 53.1661 109.667 52.9423 109.502 52.7773C109.337 52.6122 109.113 52.5195 108.88 52.5195C108.646 52.5195 108.422 52.6122 108.257 52.7773C108.092 52.9423 108 53.1661 108 53.3995V53.3995Z" fill="#00F5BC" stroke="#00F5BC" stroke-width="1.5" stroke-linecap="round" stroke-linejoin="round"/>
<path d="M114.16 53.3995C114.16 53.6329 114.253 53.8567 114.418 54.0218C114.583 54.1868 114.807 54.2795 115.04 54.2795C115.274 54.2795 115.497 54.1868 115.662 54.0218C115.827 53.8567 115.92 53.6329 115.92 53.3995C115.92 53.1661 115.827 52.9423 115.662 52.7773C115.497 52.6122 115.274 52.5195 115.04 52.5195C114.807 52.5195 114.583 52.6122 114.418 52.7773C114.253 52.9423 114.16 53.1661 114.16 53.3995Z" fill="#00F5BC" stroke="#00F5BC" stroke-width="1.5" stroke-linecap="round" stroke-linejoin="round"/>
<path d="M120.319 53.3995C120.319 53.6329 120.412 53.8567 120.577 54.0218C120.742 54.1868 120.966 54.2795 121.199 54.2795C121.433 54.2795 121.657 54.1868 121.822 54.0218C121.987 53.8567 122.079 53.6329 122.079 53.3995C122.079 53.1661 121.987 52.9423 121.822 52.7773C121.657 52.6122 121.433 52.5195 121.199 52.5195C120.966 52.5195 120.742 52.6122 120.577 52.7773C120.412 52.9423 120.319 53.1661 120.319 53.3995V53.3995Z" fill="#00F5BC" stroke="#00F5BC" stroke-width="1.5" stroke-linecap="round" stroke-linejoin="round"/>
<path d="M142.319 100.04C142.319 99.1065 141.949 98.2111 141.288 97.551C140.628 96.8909 139.733 96.52 138.799 96.52H64.8794C63.9458 96.52 63.0505 96.8909 62.3904 97.551C61.7302 98.2111 61.3594 99.1065 61.3594 100.04V134.36H142.319V100.04Z" fill="#FFFBE5"/>
<path d="M142.319 100.04C142.319 99.1065 141.949 98.2111 141.288 97.551C140.628 96.8909 139.733 96.52 138.799 96.52H64.8794C63.9458 96.52 63.0505 96.8909 62.3904 97.551C61.7302 98.2111 61.3594 99.1065 61.3594 100.04V104.44C61.3594 103.506 61.7302 102.611 62.3904 101.951C63.0505 101.291 63.9458 100.92 64.8794 100.92H138.799C139.733 100.92 140.628 101.291 141.288 101.951C141.949 102.611 142.319 103.506 142.319 104.44V100.04Z" fill="white"/>
<path d="M142.319 100.04C142.319 99.1065 141.949 98.2111 141.288 97.551C140.628 96.8909 139.733 96.52 138.799 96.52H64.8794C63.9458 96.52 63.0505 96.8909 62.3904 97.551C61.7302 98.2111 61.3594 99.1065 61.3594 100.04V134.36H142.319V100.04Z" stroke="#45413C" stroke-width="1.5" stroke-linecap="round" stroke-linejoin="round"/>
<path d="M139.119 140.52H64.5594C63.7107 140.52 62.8968 140.183 62.2966 139.583C61.6965 138.982 61.3594 138.169 61.3594 137.32V134.36H142.319V137.32C142.319 138.169 141.982 138.982 141.382 139.583C140.782 140.183 139.968 140.52 139.119 140.52Z" fill="#FFEF9E" stroke="#45413C" stroke-width="1.5" stroke-linecap="round" stroke-linejoin="round"/>
<path d="M75.4392 122.92H66.6392V128.36C66.6392 128.784 66.8077 129.191 67.1078 129.491C67.4078 129.791 67.8148 129.96 68.2392 129.96H75.4392V122.92Z" fill="#E0E0E0" stroke="#45413C" stroke-width="1.5" stroke-linecap="round" stroke-linejoin="round"/>
<path d="M66.6392 115.88H75.4392V122.92H66.6392V115.88Z" fill="#E0E0E0" stroke="#45413C" stroke-width="1.5" stroke-linecap="round" stroke-linejoin="round"/>
<path d="M75.4392 108.839H68.2392C67.8148 108.839 67.4078 109.008 67.1078 109.308C66.8077 109.608 66.6392 110.015 66.6392 110.439V115.879H75.4392V108.839Z" fill="#E0E0E0" stroke="#45413C" stroke-width="1.5" stroke-linecap="round" stroke-linejoin="round"/>
<path d="M75.4395 122.92H84.2395V129.96H75.4395V122.92Z" fill="#E0E0E0" stroke="#45413C" stroke-width="1.5" stroke-linecap="round" stroke-linejoin="round"/>
<path d="M75.4395 115.88H84.2395V122.92H75.4395V115.88Z" fill="#E0E0E0" stroke="#45413C" stroke-width="1.5" stroke-linecap="round" stroke-linejoin="round"/>
<path d="M75.4395 108.839H84.2395V115.879H75.4395V108.839Z" fill="#E0E0E0" stroke="#45413C" stroke-width="1.5" stroke-linecap="round" stroke-linejoin="round"/>
<path d="M84.2397 122.92H93.0397V129.96H84.2397V122.92Z" fill="#E0E0E0" stroke="#45413C" stroke-width="1.5" stroke-linecap="round" stroke-linejoin="round"/>
<path d="M84.2397 115.88H93.0397V122.92H84.2397V115.88Z" fill="#E0E0E0" stroke="#45413C" stroke-width="1.5" stroke-linecap="round" stroke-linejoin="round"/>
<path d="M84.2397 108.839H93.0397V115.879H84.2397V108.839Z" fill="#E0E0E0" stroke="#45413C" stroke-width="1.5" stroke-linecap="round" stroke-linejoin="round"/>
<path d="M93.04 122.92H101.84V129.96H93.04V122.92Z" fill="#E0E0E0" stroke="#45413C" stroke-width="1.5" stroke-linecap="round" stroke-linejoin="round"/>
<path d="M93.04 115.88H101.84V122.92H93.04V115.88Z" fill="#E0E0E0" stroke="#45413C" stroke-width="1.5" stroke-linecap="round" stroke-linejoin="round"/>
<path d="M93.04 108.839H101.84V115.879H93.04V108.839Z" fill="#E0E0E0" stroke="#45413C" stroke-width="1.5" stroke-linecap="round" stroke-linejoin="round"/>
<path d="M101.839 122.92H110.639V129.96H101.839V122.92Z" fill="#E0E0E0" stroke="#45413C" stroke-width="1.5" stroke-linecap="round" stroke-linejoin="round"/>
<path d="M101.839 115.88H110.639V122.92H101.839V115.88Z" fill="#E0E0E0" stroke="#45413C" stroke-width="1.5" stroke-linecap="round" stroke-linejoin="round"/>
<path d="M101.839 108.839H110.639V115.879H101.839V108.839Z" fill="#E0E0E0" stroke="#45413C" stroke-width="1.5" stroke-linecap="round" stroke-linejoin="round"/>
<path d="M110.64 122.92H119.44V129.96H110.64V122.92Z" fill="#E0E0E0" stroke="#45413C" stroke-width="1.5" stroke-linecap="round" stroke-linejoin="round"/>
<path d="M110.64 115.88H119.44V122.92H110.64V115.88Z" fill="#E0E0E0" stroke="#45413C" stroke-width="1.5" stroke-linecap="round" stroke-linejoin="round"/>
<path d="M110.64 108.839H119.44V115.879H110.64V108.839Z" fill="#E0E0E0" stroke="#45413C" stroke-width="1.5" stroke-linecap="round" stroke-linejoin="round"/>
<path d="M119.44 122.92H128.24V129.96H119.44V122.92Z" fill="#E0E0E0" stroke="#45413C" stroke-width="1.5" stroke-linecap="round" stroke-linejoin="round"/>
<path d="M119.44 115.88H128.24V122.92H119.44V115.88Z" fill="#E0E0E0" stroke="#45413C" stroke-width="1.5" stroke-linecap="round" stroke-linejoin="round"/>
<path d="M119.44 108.839H128.24V115.879H119.44V108.839Z" fill="#E0E0E0" stroke="#45413C" stroke-width="1.5" stroke-linecap="round" stroke-linejoin="round"/>
<path d="M137.039 122.92H128.239V129.96H135.439C135.864 129.96 136.271 129.791 136.571 129.491C136.871 129.191 137.039 128.784 137.039 128.36V122.92Z" fill="#E0E0E0" stroke="#45413C" stroke-width="1.5" stroke-linecap="round" stroke-linejoin="round"/>
<path d="M128.239 115.88H137.039V122.92H128.239V115.88Z" fill="#E0E0E0" stroke="#45413C" stroke-width="1.5" stroke-linecap="round" stroke-linejoin="round"/>
<path d="M135.439 108.839H128.239V115.879H137.039V110.439C137.039 110.015 136.871 109.608 136.571 109.308C136.271 109.008 135.864 108.839 135.439 108.839Z" fill="#E0E0E0" stroke="#45413C" stroke-width="1.5" stroke-linecap="round" stroke-linejoin="round"/>
<path d="M70.1597 104.44V96.52" stroke="#45413C" stroke-width="1.5" stroke-linecap="round" stroke-linejoin="round"/>
<path d="M77.1992 104.44V96.52" stroke="#45413C" stroke-width="1.5" stroke-linecap="round" stroke-linejoin="round"/>
<path d="M84.2397 104.44V96.52" stroke="#45413C" stroke-width="1.5" stroke-linecap="round" stroke-linejoin="round"/>
<path d="M91.2793 104.44V96.52" stroke="#45413C" stroke-width="1.5" stroke-linecap="round" stroke-linejoin="round"/>
<path d="M98.3203 104.44V96.52" stroke="#45413C" stroke-width="1.5" stroke-linecap="round" stroke-linejoin="round"/>
<path d="M105.36 104.44V96.52" stroke="#45413C" stroke-width="1.5" stroke-linecap="round" stroke-linejoin="round"/>
<path d="M112.399 104.44V96.52" stroke="#45413C" stroke-width="1.5" stroke-linecap="round" stroke-linejoin="round"/>
<path d="M119.44 104.44V96.52" stroke="#45413C" stroke-width="1.5" stroke-linecap="round" stroke-linejoin="round"/>
<path d="M126.479 104.44V96.52" stroke="#45413C" stroke-width="1.5" stroke-linecap="round" stroke-linejoin="round"/>
<path d="M133.519 104.44V96.52" stroke="#45413C" stroke-width="1.5" stroke-linecap="round" stroke-linejoin="round"/>
<path d="M8.55957 122.92H56.0796V140.52H8.55957V122.92Z" fill="#FFFBE5"/>
<path d="M52.8796 122.92H11.7596C10.9109 122.92 10.0969 123.257 9.49683 123.857C8.89671 124.457 8.55957 125.271 8.55957 126.12V130.52C8.55957 129.671 8.89671 128.857 9.49683 128.257C10.0969 127.657 10.9109 127.32 11.7596 127.32H52.8796C53.7283 127.32 54.5422 127.657 55.1423 128.257C55.7424 128.857 56.0796 129.671 56.0796 130.52V126.12C56.0796 125.271 55.7424 124.457 55.1423 123.857C54.5422 123.257 53.7283 122.92 52.8796 122.92Z" fill="white"/>
<path d="M8.55957 122.92H56.0796V140.52H8.55957V122.92Z" stroke="#45413C" stroke-width="1.5" stroke-linecap="round" stroke-linejoin="round"/>
<path d="M12.0801 129.08H52.5601" stroke="#45413C" stroke-width="1.5" stroke-linecap="round" stroke-linejoin="round"/>
<path d="M37.7598 136.12H26.8798C26.4554 136.12 26.0485 135.952 25.7484 135.651C25.4484 135.351 25.2798 134.944 25.2798 134.52V129.08H39.3598V134.52C39.3598 134.944 39.1912 135.351 38.8912 135.651C38.5911 135.952 38.1841 136.12 37.7598 136.12Z" fill="#FFEF9E" stroke="#45413C" stroke-width="1.5" stroke-linecap="round" stroke-linejoin="round"/>
<path d="M37.7598 130.84H26.8798C26.4554 130.84 26.0485 130.671 25.7484 130.371C25.4484 130.071 25.2798 129.664 25.2798 129.24V122.92H39.3598V129.24C39.3598 129.664 39.1912 130.071 38.8912 130.371C38.5911 130.671 38.1841 130.84 37.7598 130.84Z" fill="#E0E0E0"/>
<path d="M25.2798 122.92H39.3598V126.44H25.2798V122.92Z" fill="#F0F0F0"/>
<path d="M37.7598 130.84H26.8798C26.4554 130.84 26.0485 130.671 25.7484 130.371C25.4484 130.071 25.2798 129.664 25.2798 129.24V122.92H39.3598V129.24C39.3598 129.664 39.1912 130.071 38.8912 130.371C38.5911 130.671 38.1841 130.84 37.7598 130.84Z" stroke="#45413C" stroke-width="1.5" stroke-linecap="round" stroke-linejoin="round"/>
<path d="M87.7588 90.3594H115.919V96.5194H87.7588V90.3594Z" fill="#FFEF9E" stroke="#45413C" stroke-width="1.5" stroke-linecap="round" stroke-linejoin="round"/>
</svg>
