<svg width="160" height="160" viewBox="0 0 160 160" fill="none" xmlns="http://www.w3.org/2000/svg">
<path d="M16 80C16 96.9739 22.7428 113.253 34.7452 125.255C46.7475 137.257 63.0261 144 80 144C96.9739 144 113.253 137.257 125.255 125.255C137.257 113.253 144 96.9739 144 80C144 63.0261 137.257 46.7475 125.255 34.7452C113.253 22.7428 96.9739 16 80 16C63.0261 16 46.7475 22.7428 34.7452 34.7452C22.7428 46.7475 16 63.0261 16 80V80Z" fill="#C7F0FF"/>
<path d="M117.994 60.3624C118.512 61.4976 118.796 62.7253 118.83 63.9724C118.864 65.2196 118.647 66.4609 118.192 67.6226C117.737 68.7844 117.054 69.843 116.182 70.7355C115.31 71.6281 114.268 72.3365 113.117 72.8187C111.967 73.3009 110.731 73.547 109.483 73.5425C108.236 73.5381 107.002 73.283 105.854 72.7926C104.707 72.3022 103.67 71.5863 102.805 70.6875C101.94 69.7887 101.264 68.7253 100.817 67.5603C99.346 64.0495 100.817 54.3469 101.68 49.5442C101.733 49.2368 101.861 48.9476 102.055 48.7031C102.248 48.4587 102.5 48.267 102.788 48.1458C103.075 48.0246 103.388 47.9778 103.698 48.0097C104.008 48.0416 104.305 48.1512 104.562 48.3284C108.58 51.0914 116.523 56.8485 117.994 60.3624Z" fill="#BF8256" stroke="#45413C" stroke-width="1.5" stroke-linecap="round" stroke-linejoin="round"/>
<path d="M138.084 60.3627C137.612 61.4913 137.366 62.702 137.361 63.9256C137.357 65.1492 137.593 66.3618 138.057 67.4941C138.521 68.6264 139.203 69.6562 140.065 70.5248C140.927 71.3933 141.951 72.0836 143.08 72.5562C144.209 73.0289 145.419 73.2745 146.643 73.2793C147.867 73.284 149.079 73.0477 150.212 72.5838C151.344 72.1199 152.374 71.4375 153.242 70.5756C154.111 69.7137 154.801 68.6892 155.274 67.5606C156.745 64.0498 155.274 54.3472 154.41 49.5445C154.359 49.2372 154.23 48.9479 154.037 48.7034C153.844 48.4589 153.592 48.2671 153.305 48.1459C153.018 48.0246 152.705 47.9778 152.395 48.0098C152.085 48.0417 151.788 48.1514 151.532 48.3287C147.501 51.0917 139.556 56.8488 138.084 60.3627Z" fill="#BF8256" stroke="#45413C" stroke-width="1.5" stroke-linecap="round" stroke-linejoin="round"/>
<path d="M128.04 112C109.401 112 87.5275 62.3013 128.04 62.3013C168.553 62.3013 146.676 112 128.04 112Z" fill="#FFFCE5"/>
<path d="M113.898 79.3873C113.898 80.6232 114.389 81.8084 115.263 82.6823C116.137 83.5562 117.322 84.0471 118.558 84.0471C119.794 84.0471 120.979 83.5562 121.853 82.6823C122.727 81.8084 123.218 80.6232 123.218 79.3873C123.218 78.1515 122.727 76.9662 121.853 76.0924C120.979 75.2185 119.794 74.7275 118.558 74.7275C117.322 74.7275 116.137 75.2185 115.263 76.0924C114.389 76.9662 113.898 78.1515 113.898 79.3873Z" fill="#45413C"/>
<path d="M133.038 106.994C133.038 109.76 128.031 112 128.031 112C128.031 112 123.022 109.76 123.022 106.994C123.006 106.326 123.123 105.661 123.367 105.039C123.611 104.417 123.978 103.85 124.444 103.372C124.911 102.894 125.469 102.514 126.084 102.254C126.7 101.995 127.362 101.861 128.03 101.861C128.698 101.861 129.36 101.995 129.975 102.254C130.591 102.514 131.149 102.894 131.615 103.372C132.082 103.85 132.448 104.417 132.693 105.039C132.937 105.661 133.054 106.326 133.038 106.994Z" fill="#45413C"/>
<path d="M145.774 98.3627C153.963 84.2952 154.553 64.1848 131.421 62.4097C129.523 65.6296 128.389 69.2413 128.103 72.9678C127.818 76.6944 128.391 80.4367 129.776 83.9077C131.162 87.3787 133.324 90.4863 136.098 92.9919C138.871 95.4976 142.181 97.3348 145.774 98.3627V98.3627Z" fill="#BF8256"/>
<path d="M128.04 112C109.401 112 87.5275 62.3013 128.04 62.3013C168.553 62.3013 146.676 112 128.04 112Z" stroke="#45413C" stroke-width="1.5" stroke-linecap="round" stroke-linejoin="round"/>
<path d="M132.862 79.3873C132.862 80.6232 133.353 81.8084 134.227 82.6823C135.101 83.5562 136.286 84.0471 137.522 84.0471C138.758 84.0471 139.943 83.5562 140.817 82.6823C141.691 81.8084 142.182 80.6232 142.182 79.3873C142.182 78.1515 141.691 76.9662 140.817 76.0924C139.943 75.2185 138.758 74.7275 137.522 74.7275C136.286 74.7275 135.101 75.2185 134.227 76.0924C133.353 76.9662 132.862 78.1515 132.862 79.3873V79.3873Z" fill="#45413C"/>
<path d="M25.7291 57.1216C20.0576 53.3899 13.9551 50.3589 7.55479 48.0947C7.1822 47.9898 6.79055 47.9718 6.4099 48.0419C6.02925 48.112 5.66973 48.2685 5.35896 48.4992C5.04819 48.7299 4.79443 49.0288 4.61717 49.3729C4.43992 49.717 4.34387 50.0971 4.33643 50.4841C4.78456 58.0926 5.99927 65.6365 7.9621 73.0011C12.7591 66.5696 18.8014 61.1692 25.7291 57.1216V57.1216Z" fill="#87898C" stroke="#45413C" stroke-width="1.5" stroke-linecap="round" stroke-linejoin="round"/>
<path d="M53.4561 57.1217C59.1327 53.3885 65.2411 50.3574 71.6475 48.0948C72.02 47.9899 72.4115 47.9718 72.792 48.0419C73.1725 48.112 73.5319 48.2685 73.8425 48.4993C74.153 48.73 74.4065 49.029 74.5835 49.3731C74.7604 49.7172 74.856 50.0973 74.863 50.4842C74.4144 58.0924 73.2007 65.6362 71.2402 73.0012C66.4382 66.5679 60.39 61.1674 53.4561 57.1217V57.1217Z" fill="#87898C" stroke="#45413C" stroke-width="1.5" stroke-linecap="round" stroke-linejoin="round"/>
<path d="M39.5942 112C19.9369 112 4 99.7121 4 84.5554C4 69.3986 25.7541 57.1104 25.7541 57.1104H53.4429C53.4429 57.1104 75.1912 69.3986 75.1912 84.5554C75.1912 99.7121 59.2514 112 39.5942 112Z" fill="#FFFCE5" stroke="#45413C" stroke-width="1.5" stroke-linecap="round" stroke-linejoin="round"/>
<path d="M39.5937 64.6821C26.9726 64.6821 11.5377 74.2741 14.4176 89.9902C14.9912 93.9226 16.4513 97.6732 18.6874 100.958C20.9236 104.244 23.8774 106.977 27.3254 108.953C30.9999 107.072 39.2523 102.126 39.6023 95.509C39.9493 102.126 48.2075 107.072 51.8791 108.953C55.3271 106.977 58.2809 104.244 60.5171 100.958C62.7533 97.6732 64.2133 93.9226 64.787 89.9902C67.6496 74.2799 52.2118 64.6821 39.5937 64.6821Z" fill="#87898C"/>
<path d="M53.6093 109.785C53.6093 109.785 40.0417 104.034 39.5942 95.5088C39.1438 104.034 25.5791 109.785 25.5791 109.785" stroke="#45413C" stroke-width="1.5" stroke-linecap="round" stroke-linejoin="round"/>
<path d="M35.9205 88.2495C35.2452 88.2502 34.5861 88.4566 34.0311 88.8414C33.4761 89.2263 33.0515 89.7711 32.8141 90.4033C32.5767 91.0356 32.5376 91.7252 32.7021 92.3802C32.8666 93.0352 33.2268 93.6245 33.7348 94.0695L37.0937 97.0039C37.7861 97.6099 38.6749 97.9439 39.595 97.9439C40.5151 97.9439 41.4039 97.6099 42.0962 97.0039L45.4551 94.0724C45.9631 93.6274 46.3234 93.0381 46.4879 92.383C46.6523 91.728 46.6133 91.0384 46.3758 90.4062C46.1384 89.774 45.7139 89.2291 45.1589 88.8443C44.6039 88.4595 43.9448 88.253 43.2694 88.2524L35.9205 88.2495Z" fill="#FFCCDD" stroke="#45413C" stroke-width="1.5" stroke-linecap="round" stroke-linejoin="round"/>
<path d="M39.5942 112C19.9369 112 4 99.7121 4 84.5554C4 69.3986 25.7541 57.1104 25.7541 57.1104H53.4429C53.4429 57.1104 75.1912 69.3986 75.1912 84.5554C75.1912 99.7121 59.2514 112 39.5942 112Z" stroke="#45413C" stroke-width="1.5" stroke-linecap="round" stroke-linejoin="round"/>
<path d="M20.9971 78.7134C20.9971 80.1254 21.558 81.4795 22.5564 82.4779C23.5548 83.4763 24.9089 84.0372 26.3208 84.0372C27.7328 84.0372 29.0869 83.4763 30.0853 82.4779C31.0837 81.4795 31.6446 80.1254 31.6446 78.7134C31.6446 77.3015 31.0837 75.9473 30.0853 74.9489C29.0869 73.9505 27.7328 73.3896 26.3208 73.3896C24.9089 73.3896 23.5548 73.9505 22.5564 74.9489C21.558 75.9473 20.9971 77.3015 20.9971 78.7134Z" fill="#45413C"/>
<path d="M47.542 78.7134C47.542 80.1254 48.1029 81.4795 49.1013 82.4779C50.0997 83.4763 51.4538 84.0372 52.8658 84.0372C54.2777 84.0372 55.6319 83.4763 56.6303 82.4779C57.6287 81.4795 58.1896 80.1254 58.1896 78.7134C58.1896 77.3015 57.6287 75.9473 56.6303 74.9489C55.6319 73.9505 54.2777 73.3896 52.8658 73.3896C51.4538 73.3896 50.0997 73.9505 49.1013 74.9489C48.1029 75.9473 47.542 77.3015 47.542 78.7134V78.7134Z" fill="#45413C"/>
</svg>
