<svg width="160" height="160" viewBox="0 0 160 160" fill="none" xmlns="http://www.w3.org/2000/svg">
<path d="M16 80C16 96.9739 22.7428 113.253 34.7452 125.255C46.7475 137.257 63.0261 144 80 144C96.9739 144 113.253 137.257 125.255 125.255C137.257 113.253 144 96.9739 144 80C144 63.0261 137.257 46.7475 125.255 34.7452C113.253 22.7428 96.9739 16 80 16C63.0261 16 46.7475 22.7428 34.7452 34.7452C22.7428 46.7475 16 63.0261 16 80V80Z" fill="#CDF2FF"/>
<path d="M10.3669 108V98.48H24.0469V69.12H12.7669V61.84C14.4735 61.5733 15.9935 61.3067 17.3269 61.04C18.7135 60.72 19.9669 60.3733 21.0869 60C22.2069 59.6267 23.2469 59.2267 24.2069 58.8C25.2202 58.32 26.2069 57.7867 27.1669 57.2H35.8069V98.48H47.3269V108H10.3669ZM60.6556 108V101.28C64.2823 98.24 67.589 95.4133 70.5756 92.8C73.5623 90.1333 76.1223 87.6533 78.2556 85.36C80.389 83.0667 82.0423 80.9067 83.2156 78.88C84.389 76.8533 84.9756 74.9333 84.9756 73.12C84.9756 70.6133 84.2556 68.72 82.8156 67.44C81.3756 66.1067 79.3223 65.44 76.6556 65.44C74.629 65.44 72.7623 65.9733 71.0556 67.04C69.4023 68.0533 67.8556 69.2533 66.4156 70.64L60.0956 64.32C61.429 62.9867 62.7356 61.8133 64.0156 60.8C65.349 59.7867 66.7356 58.96 68.1756 58.32C69.669 57.6267 71.2156 57.12 72.8156 56.8C74.469 56.4267 76.2823 56.24 78.2556 56.24C80.9223 56.24 83.349 56.64 85.5356 57.44C87.7223 58.1867 89.589 59.28 91.1356 60.72C92.7356 62.1067 93.9623 63.7867 94.8156 65.76C95.7223 67.7333 96.1756 69.9467 96.1756 72.4C96.1756 74.5333 95.669 76.72 94.6556 78.96C93.6423 81.1467 92.2556 83.36 90.4956 85.6C88.789 87.7867 86.8156 90 84.5756 92.24C82.3356 94.4267 79.989 96.5867 77.5356 98.72C78.9756 98.56 80.5223 98.4267 82.1756 98.32C83.8823 98.16 85.4023 98.08 86.7356 98.08H98.8156V108H60.6556ZM114.304 108V98.48H127.984V69.12H116.704V61.84C118.411 61.5733 119.931 61.3067 121.264 61.04C122.651 60.72 123.904 60.3733 125.024 60C126.144 59.6267 127.184 59.2267 128.144 58.8C129.158 58.32 130.144 57.7867 131.104 57.2H139.744V98.48H151.264V108H114.304Z" fill="url(#paint0_linear)"/>
<defs>
<linearGradient id="paint0_linear" x1="80" y1="12" x2="80" y2="148" gradientUnits="userSpaceOnUse">
<stop stop-color="#2200FF"/>
<stop offset="1" stop-color="#9E00FF"/>
</linearGradient>
</defs>
</svg>
