<svg xmlns="http://www.w3.org/2000/svg" version="1.1" xmlns:xlink="http://www.w3.org/1999/xlink" xmlns:svgjs="http://svgjs.com/svgjs" viewBox="0 0 160 160" width="160" height="160"><g transform="matrix(1.6,0,0,1.6,0,0)"><path d="M10.000 50.000 A40.000 40.000 0 1 0 90.000 50.000 A40.000 40.000 0 1 0 10.000 50.000 Z" fill="#c7f0ff" stroke="#c7f0ff" stroke-miterlimit="10"></path><path d="M71.912,38.058,53.924,36.675c0,10.921-19.589,12.177-20.915,27.54l.129,9.933H47.986c5.94,0,11.032-3.616,12.419-9.277v0a25.579,25.579,0,0,0,3.139,9.109,1.1,1.1,0,0,0,.957.554h2.562a1.1,1.1,0,0,0,.985-1.6c-3.068-6.129-1.8-15.2,1.747-22.926C72.162,44.852,71.912,38.058,71.912,38.058Z" fill="#ff8a14"></path><path d="M60.194,65.625a12.441,12.441,0,0,1-12.208,8.523c-8.5-.391-18.879-1.136-20.289-2.465a2.133,2.133,0,0,1-.314-2.869,43.007,43.007,0,0,0,12.579,1.872,42.514,42.514,0,0,0,20.223-5.064" fill="#eb6d00"></path><path d="M64.909,24.442c.862-2.4,3.938-4.695,8.021-6.949a1.1,1.1,0,0,1,1.629.846A15.665,15.665,0,0,1,72.13,29.2Z" fill="#ff8a14" stroke="#45413c" stroke-linecap="round" stroke-linejoin="round"></path><path d="M68.093,25.377l4.557,3A15.357,15.357,0,0,0,74.671,19.9C71.337,21.673,68.774,23.483,68.093,25.377Z" fill="#f7e5c6" stroke="#45413c" stroke-linecap="round" stroke-linejoin="round"></path><path d="M61.176,24.442c-.862-2.4-3.938-4.695-8.021-6.949a1.1,1.1,0,0,0-1.629.845A15.669,15.669,0,0,0,53.955,29.2Z" fill="#ff8a14" stroke="#45413c" stroke-linecap="round" stroke-linejoin="round"></path><path d="M57.992,25.377l-4.557,3A15.357,15.357,0,0,1,51.413,19.9C54.747,21.673,57.31,23.483,57.992,25.377Z" fill="#f7e5c6" stroke="#45413c" stroke-linecap="round" stroke-linejoin="round"></path><path d="M53.924,36.675c0,10.921-19.589,12.177-20.915,27.54l.129,9.933h3.268L36.3,66.2c1.265-15.713,21.336-16.965,21.485-28.293Z" fill="#ffaa54"></path><path d="M44.928 75.545 A13.673 1.902 0 1 0 72.274 75.545 A13.673 1.902 0 1 0 44.928 75.545 Z" fill="#45413c" opacity=".15"></path><path d="M60.406,64.868s5.075-3.062,9.39-14.859c2.1-4.575,2.139-10.426,2.121-11.692l-5.954,1.371s-.167,4.289,0,7.6C66.422,56.386,60.406,60.581,60.406,64.868Z" fill="#ffffff"></path><path d="M71.912,38.058,53.924,36.675c0,10.921-19.589,12.177-20.915,27.54l.129,9.933H47.986c5.94,0,11.032-3.616,12.419-9.277v0a25.579,25.579,0,0,0,3.139,9.109,1.1,1.1,0,0,0,.957.554h2.562a1.1,1.1,0,0,0,.985-1.6c-3.068-6.129-1.8-15.2,1.747-22.926C72.162,44.852,71.912,38.058,71.912,38.058Z" fill="none" stroke="#45413c" stroke-linecap="round" stroke-linejoin="round"></path><path d="M55.949,59.1c-1.855,5.193-.958,12.063-.543,14.516a1.1,1.1,0,0,0,1.085.919h2.318a1.1,1.1,0,0,0,1.1-1.08c.2-9.615,2.47-13.8,2.47-13.8" fill="#ff8a14" stroke="#45413c" stroke-linecap="round" stroke-linejoin="round"></path><path d="M38.846,63.005a5.69,5.69,0,0,1,9.826,3.908,6.967,6.967,0,0,1-1.288,3.773" fill="none" stroke="#45413c" stroke-linecap="round" stroke-linejoin="round"></path><path d="M77.65,34.7c-3.694,0-5.69-14.209-14.607-14.209s-9.631,9.6-14.607,14.209a19.058,19.058,0,0,0,10.591,6.251c1.02,2.413,2.725,4.635,4.015,4.635s3-2.24,4.016-4.635A19.063,19.063,0,0,0,77.65,34.7Z" fill="#ff8a14"></path><path d="M76.533,34.252c-.88.031-1.881.1-2.97.226a13.061,13.061,0,0,0-9.228,5.583,1.385,1.385,0,0,1-2.585,0,13.061,13.061,0,0,0-9.228-5.583c-1.089-.129-2.091-.2-2.97-.226a1.822,1.822,0,0,1-1.117.445,19.063,19.063,0,0,0,10.592,6.251c1.012,2.4,2.725,4.635,4.015,4.635s3-2.24,4.016-4.635A19.063,19.063,0,0,0,77.65,34.7,1.822,1.822,0,0,1,76.533,34.252Z" fill="#ffffff"></path><path d="M64.86,43.162c0,1.033-1.851,2.421-1.851,2.421s-1.852-1.388-1.852-2.421.829-1.318,1.852-1.318S64.86,42.13,64.86,43.162Z" fill="#45413c"></path><path d="M59.027 40.948L57.962 38.428" fill="none" stroke="#45413c" stroke-linecap="round" stroke-linejoin="round"></path><path d="M67.935 38.872L67.058 40.948" fill="none" stroke="#45413c" stroke-linecap="round" stroke-linejoin="round"></path><path d="M66.622,31.85a3.66,3.66,0,0,1,3.856-1.5" fill="none" stroke="#45413c" stroke-linecap="round" stroke-linejoin="round"></path><path d="M59.463,31.85a3.661,3.661,0,0,0-3.857-1.5" fill="none" stroke="#45413c" stroke-linecap="round" stroke-linejoin="round"></path><path d="M53.388,27.3c2.081-3.6,4.494-6.815,9.655-6.815,4.688,0,7.463,3.927,9.577,7.653-2.61-2.271-5.726-4.752-9.577-4.752-4.056,0-7.145,2.105-9.653,3.916" fill="#ffaa54"></path><path d="M77.65,34.7c-3.694,0-5.69-14.209-14.607-14.209s-9.631,9.6-14.607,14.209a19.058,19.058,0,0,0,10.591,6.251c1.02,2.413,2.725,4.635,4.015,4.635s3-2.24,4.016-4.635A19.063,19.063,0,0,0,77.65,34.7Z" fill="none" stroke="#45413c" stroke-linecap="round" stroke-linejoin="round"></path><path d="M33.073,69.182A29.538,29.538,0,0,0,29.58,70.96" fill="none" stroke="#45413c" stroke-linecap="round" stroke-linejoin="round"></path><path d="M56.316,77.567c-6.439-.894-11.9,4.3-21.124,4.3s-13.186-5.678-13.186-9.018a8.623,8.623,0,0,1,8.622-8.633h2.381l.064,4.967C41.86,65.445,53.56,73.741,56.316,77.567Z" fill="#ff8a14"></path><path d="M53.571,74.771a16.677,16.677,0,0,1,2.745,2.8c-6.439-.894-11.9,4.3-21.124,4.3-5.148,0-8.656-1.767-10.752-3.909a18.658,18.658,0,0,0,7.977,1.623c9.146,0,14.92-4.631,21.157-4.812" fill="#eb6d00"></path><path d="M33.073,69.182A29.538,29.538,0,0,0,29.58,70.96" fill="none" stroke="#45413c" stroke-linecap="round" stroke-linejoin="round"></path><path d="M38.4,81.656c7.361-.963,12.259-4.874,17.914-4.089-2.213-3.073-10.193-9.027-17.8-9.319l1.889,2.5a1.1,1.1,0,0,1-.088,1.433l-1.508,1.555a1.1,1.1,0,0,0,.031,1.565l1.5,1.429a1.1,1.1,0,0,1,.186,1.362L38.4,81.654" fill="#ffffff"></path><path d="M40.281,78.5,38.4,81.654v0c7.361-.963,12.259-4.874,17.914-4.089a16.677,16.677,0,0,0-2.745-2.8l0,0c-4.256.124-8.3,2.319-13.339,3.7" fill="#f0f0f0"></path><path d="M56.316,77.567c-6.439-.894-11.9,4.3-21.124,4.3s-13.186-5.678-13.186-9.018a8.623,8.623,0,0,1,8.622-8.633h2.381l.064,4.967C41.86,65.445,53.56,73.741,56.316,77.567Z" fill="none" stroke="#45413c" stroke-linecap="round" stroke-linejoin="round"></path></g></svg>