<svg width="104" height="103" fill="none" xmlns="http://www.w3.org/2000/svg">
  <path d="M.7997 51.2925a51.2002 51.2002 0 0014.9961 36.2039c9.6019 9.6019 22.6248 14.9966 36.2039 14.9966 13.5791 0 26.602-5.3947 36.2039-14.9966A51.2006 51.2006 0 00103.2 51.2925a51.2002 51.2002 0 00-14.9964-36.2038A51.2 51.2 0 00.7996 51.2925z" fill="#C7F0FF"/>
  <path d="M12.7684 27.3233c.7343 2.7244 2.4327 5.0692 4.7216 6.5186 2.2889 1.4494 4.9808 1.8847 7.4836 1.2102 2.5027-.6746 4.6113-2.4037 5.8618-4.8071 1.2505-2.4034 1.5405-5.2841.8063-8.0084-.7343-2.7243-2.4327-5.0691-4.7216-6.5185-2.2889-1.4494-4.9809-1.8847-7.4836-1.2102-2.5028.6745-4.6113 2.4037-5.8618 4.8071-1.2505 2.4033-1.5405 5.284-.8063 8.0083z" fill="#9CEB60" stroke="#45413C" stroke-linecap="round" stroke-linejoin="round"/>
  <path d="M12.4426 25.6201c2.0278 4.7273 6.9393 7.4448 11.6512 6.1743 4.7119-1.2705 7.5948-6.0878 6.9719-11.1938.2316.5302.4235 1.0768.574 1.6354 1.5293 5.6732-1.4564 11.4106-6.6686 12.8147-5.2122 1.4042-10.6755-2.0561-12.2047-7.7284a11.5167 11.5167 0 01-.3238-1.7022z" fill="#6DD627"/>
  <path d="M12.7684 27.3233c.7343 2.7244 2.4327 5.0692 4.7216 6.5186 2.2889 1.4494 4.9808 1.8847 7.4836 1.2102 2.5027-.6746 4.6113-2.4037 5.8618-4.8071 1.2505-2.4034 1.5405-5.2841.8063-8.0084-.7343-2.7243-2.4327-5.0691-4.7216-6.5185-2.2889-1.4494-4.9809-1.8847-7.4836-1.2102-2.5028.6745-4.6113 2.4037-5.8618 4.8071-1.2505 2.4033-1.5405 5.284-.8063 8.0083v0z" stroke="#45413C" stroke-linecap="round" stroke-linejoin="round"/>
  <path d="M24.4378 35.1811c-.0326.0069-.2571 1.4247-.4155 2.434a.6916.6916 0 00.4973.7716.691.691 0 00.3311.0105l1.8231-.3889a.6927.6927 0 00.5469-.7095.6924.6924 0 00-.0894-.3091l-1.2714-2.2275-1.4221.4189z" fill="#6DD627" stroke="#45413C" stroke-linecap="round" stroke-linejoin="round"/>
  <path d="M25.6183 38.2295c.0737 2.9299 1.6715 5.4829 2.2275 8.3589.3924 2.0236.1011 4.1122.1773 6.1683M38.9515 32.3767c-.4755 2.2711-.6152 3.2452.5825 5.2328" stroke="#45413C" stroke-linecap="round" stroke-linejoin="round"/>
  <path d="M24.8806 17.4509c.2603 1.6819.8224 3.3003 1.6543 4.7627.8318 1.4624 1.917 2.7402 3.1937 3.7604 1.2767 1.0202 2.7199 1.7629 4.247 2.1856 1.5272.4227 3.1086.5171 4.6538.278 1.5452-.2392 3.024-.8073 4.3519-1.6719 1.328-.8646 2.4791-2.0087 3.3876-3.3672.9086-1.3584 1.5567-2.9045 1.9076-4.5499.3508-1.6454.3974-3.358.137-5.04-.2603-1.6819-.8224-3.3003-1.6542-4.7627-.8318-1.4624-1.9171-2.7401-3.1938-3.7604-1.2767-1.0202-2.7198-1.7628-4.247-2.1855-1.5272-.4227-3.1085-.5172-4.6537-.278-1.5452.2391-3.024.8072-4.352 1.6718-1.3279.8646-2.479 2.0088-3.3876 3.3672-.9085 1.3584-1.5567 2.9045-1.9075 4.5499-.3508 1.6455-.3974 3.358-.1371 5.04z" fill="#00DFEB" stroke="#45413C" stroke-linecap="round" stroke-linejoin="round"/>
  <path d="M24.7121 15.3463c1.8256 5.997 7.4097 9.9379 13.2876 9.0306 5.8779-.9072 10.0081-6.3585 9.9378-12.6245.2097.6726.3689 1.3599.4763 2.0561 1.0949 7.073-3.2854 13.6217-9.7836 14.6284-6.4981 1.0066-12.6553-3.9118-13.7468-10.989a14.2224 14.2224 0 01-.1713-2.1016z" fill="#00C9D4"/>
  <path d="M24.8806 17.4509c.2603 1.6819.8224 3.3003 1.6543 4.7627.8318 1.4624 1.917 2.7402 3.1937 3.7604 1.2767 1.0202 2.7199 1.7629 4.247 2.1856 1.5272.4227 3.1086.5171 4.6538.278 1.5452-.2392 3.024-.8073 4.3519-1.6719 1.328-.8646 2.4791-2.0087 3.3876-3.3672.9086-1.3584 1.5567-2.9045 1.9076-4.5499.3508-1.6454.3974-3.358.137-5.04-.2603-1.6819-.8224-3.3003-1.6542-4.7627-.8318-1.4624-1.9171-2.7401-3.1938-3.7604-1.2767-1.0202-2.7198-1.7628-4.247-2.1855-1.5272-.4227-3.1085-.5172-4.6537-.278-1.5452.2391-3.024.8072-4.352 1.6718-1.3279.8646-2.479 2.0088-3.3876 3.3672-.9085 1.3584-1.5567 2.9045-1.9075 4.5499-.3508 1.6455-.3974 3.358-.1371 5.04v0z" stroke="#45413C" stroke-linecap="round" stroke-linejoin="round"/>
  <path d="M37.9636 28.5186c-.0411 0-.5038 1.6912-.8276 2.8923a.8424.8424 0 00.8987 1.058l2.2591-.2279a.843.843 0 00.6389-.4133.8432.8432 0 00.0465-.7595l-1.2422-2.8614-1.7734.3118z" fill="#00DFEB" stroke="#45413C" stroke-linecap="round" stroke-linejoin="round"/>
  <path d="M38.8961 10.9086c.249.6884.7341 1.2596 1.3483 1.5878.6143.3283 1.3074.3868 1.9271.1626.6196-.2242 1.1148-.7127 1.3769-1.358.262-.6453.2692-1.3945.0201-2.083-.249-.6884-.734-1.2595-1.3483-1.5878-.6143-.3282-1.3074-.3867-1.927-.1625-.6197.2242-1.1149.7127-1.3769 1.358-.2621.6453-.2693 1.3945-.0202 2.0829z" fill="#A6FBFF"/>
  <path d="M67.7267 27.7397c2.5676.5981 5.2887.0614 7.5645-1.4919 2.2759-1.5532 3.9201-3.9959 4.571-6.7906.651-2.7946.2552-5.7124-1.1001-8.1114-1.3554-2.399-3.5593-4.0828-6.1269-4.6808-2.5676-.598-5.2887-.0614-7.5645 1.4919-2.2759 1.5533-3.9201 3.9959-4.571 6.7906-.6509 2.7947-.2552 5.7125 1.1001 8.1115 1.3554 2.399 3.5593 4.0827 6.1269 4.6807z" fill="#FFF48C" stroke="#45413C" stroke-linecap="round" stroke-linejoin="round"/>
  <path d="M61.0253 13.2654c-.4532 5.2122 2.6429 10.0072 7.479 11.1372 4.8362 1.13 9.7331-1.8076 11.629-6.6823a11.9186 11.9186 0 01-.2716 1.7417c-1.3553 5.8196-6.7885 9.5283-12.1353 8.2826-5.3467-1.2456-8.5825-6.9727-7.2272-12.7924a11.9033 11.9033 0 01.5261-1.6868z" fill="#FFE500"/>
  <path d="M67.7267 27.7397c2.5676.5981 5.2887.0614 7.5645-1.4919 2.2759-1.5532 3.9201-3.9959 4.571-6.7906.651-2.7946.2552-5.7124-1.1001-8.1114-1.3554-2.399-3.5593-4.0828-6.1269-4.6808-2.5676-.598-5.2887-.0614-7.5645 1.4919-2.2759 1.5533-3.9201 3.9959-4.571 6.7906-.6509 2.7947-.2552 5.7125 1.1001 8.1115 1.3554 2.399 3.5593 4.0827 6.1269 4.6807v0z" stroke="#45413C" stroke-linecap="round" stroke-linejoin="round"/>
  <path d="M67.185 27.5963c-.0326-.0103-.9158 1.1522-1.5421 1.9824a.7036.7036 0 00-.1055.6459.7031.7031 0 00.4722.4533l1.8214.5268a.7025.7025 0 00.625-.1186.7023.7023 0 00.2736-.5745l-.0685-2.6035-1.4761-.3118z" fill="#FFE500" stroke="#45413C" stroke-linecap="round" stroke-linejoin="round"/>
  <path d="M75.3846 16.6224a1.8968 1.8968 0 00.7994-.1474c.2555-.1069.49-.2685.69-.4756.2001-.2071.3617-.4556.4757-.7313a2.528 2.528 0 00.1888-.8758 2.5283 2.5283 0 00-.1267-.887c-.0943-.2831-.238-.5423-.423-.763-.1849-.2206-.4075-.3983-.6549-.5229a1.8956 1.8956 0 00-.787-.2033 1.895 1.895 0 00-.7994.1474c-.2556.1069-.4901.2685-.6901.4755-.2.2071-.3616.4556-.4756.7314a2.527 2.527 0 00-.1889.8758 2.5304 2.5304 0 00.1267.8869c.0944.2831.2381.5424.423.763.185.2207.4075.3984.6549.523a1.896 1.896 0 00.7871.2033z" fill="#FFFCE5"/>
  <path d="M66.9081 30.9373c-.4147.9766-1.5421 2.5941-1.4779 3.653a10.354 10.354 0 00.4036 1.9164" stroke="#45413C" stroke-linecap="round" stroke-linejoin="round"/>
  <path d="M80.1474 37.3213c1.247.2445 2.5342.2192 3.7881-.0743 1.2539-.2935 2.45-.8496 3.5199-1.6365 1.0699-.7869 1.9928-1.7891 2.7158-2.9495.7231-1.1604 1.2322-2.4563 1.4984-3.8136.2661-1.3573.284-2.7494.0526-4.097-.2313-1.3475-.7074-2.624-1.401-3.7566-.6936-1.1327-1.5911-2.0992-2.6413-2.8445-1.0503-.7453-2.2326-1.2548-3.4796-1.4993-1.247-.2445-2.5342-.2192-3.7882.0743-1.2539.2935-2.4499.8496-3.5199 1.6365-1.0699.7869-1.9928 1.7891-2.7158 2.9495-.7231 1.1604-1.2322 2.4563-1.4983 3.8136-.2662 1.3573-.2841 2.7494-.0527 4.097.2313 1.3475.7074 2.624 1.401 3.7566.6936 1.1327 1.5911 2.0992 2.6413 2.8445 1.0503.7453 2.2327 1.2548 3.4797 1.4993z" fill="#FF866E" stroke="#45413C" stroke-linecap="round" stroke-linejoin="round"/>
  <path d="M73.1322 23.4685c-.263 5.0863 2.9129 9.6448 7.6573 10.5752 4.7445.9304 9.4067-2.0921 11.0884-6.9008a11.4848 11.4848 0 01-.2047 1.704c-1.1232 5.7083-6.2814 9.5044-11.5262 8.4763-5.2448-1.028-8.5885-6.4913-7.4688-12.1995a11.3951 11.3951 0 01.454-1.6552z" fill="#FF6242"/>
  <path d="M80.1474 37.3213c1.247.2445 2.5342.2192 3.7881-.0743 1.2539-.2935 2.45-.8496 3.5199-1.6365 1.0699-.7869 1.9928-1.7891 2.7158-2.9495.7231-1.1604 1.2322-2.4563 1.4984-3.8136.2661-1.3573.284-2.7494.0526-4.097-.2313-1.3475-.7074-2.624-1.401-3.7566-.6936-1.1327-1.5911-2.0992-2.6413-2.8445-1.0503-.7453-2.2326-1.2548-3.4796-1.4993-1.247-.2445-2.5342-.2192-3.7882.0743-1.2539.2935-2.4499.8496-3.5199 1.6365-1.0699.7869-1.9928 1.7891-2.7158 2.9495-.7231 1.1604-1.2322 2.4563-1.4983 3.8136-.2662 1.3573-.2841 2.7494-.0527 4.097.2313 1.3475.7074 2.624 1.401 3.7566.6936 1.1327 1.5911 2.0992 2.6413 2.8445 1.0503.7453 2.2327 1.2548 3.4797 1.4993v0z" stroke="#45413C" stroke-linecap="round" stroke-linejoin="round"/>
  <path d="M79.6162 37.199c-.0317-.0077-.8516 1.1531-1.4316 1.9816a.6858.6858 0 00-.0804.632.6857.6857 0 00.4745.4252l1.7897.4506a.6862.6862 0 00.6039-.1371.6857.6857 0 00.2468-.568l-.1576-2.5316-1.4453-.2527z" fill="#FF6242" stroke="#45413C" stroke-linecap="round" stroke-linejoin="round"/>
  <path d="M85.1985 23.9992c0 .2946.0522.5862.1537.8583.1015.2721.2502.5194.4377.7277.1875.2082.4101.3734.6551.4862.245.1127.5076.1707.7728.1707.2651 0 .5277-.058.7727-.1707.245-.1128.4676-.278.6551-.4862.1875-.2083.3362-.4556.4377-.7277a2.4592 2.4592 0 00.1537-.8583c0-.2945-.0522-.5862-.1537-.8583-.1015-.2721-.2502-.5194-.4377-.7276-.1875-.2083-.4101-.3735-.6551-.4862a1.8464 1.8464 0 00-.7727-.1708c-.2652 0-.5278.0581-.7728.1708-.245.1127-.4676.2779-.6551.4862-.1875.2082-.3362.4555-.4377.7276a2.4596 2.4596 0 00-.1537.8583z" fill="#FFA694"/>
  <path d="M79.6032 40.4932c-1.1455 2.7731.4677 6.1897-.2022 9.1145-.2647 1.1557-.8919 2.2489-.8567 3.4337" stroke="#45413C" stroke-linecap="round" stroke-linejoin="round"/>
  <path d="M84.8069 62.1804a.8564.8564 0 01-.0857.9655 5.0163 5.0163 0 01-3.2555 1.8453.8561.8561 0 01-.8713-.4283l-.5997-1.0615a.8575.8575 0 01.1892-1.0742.8579.8579 0 01.3471-.1791 4.9337 4.9337 0 002.32-1.3151.8575.8575 0 01.721-.2431.8575.8575 0 01.6301.4264l.6048 1.0641z" fill="#00F5BC" stroke="#45413C" stroke-linecap="round" stroke-linejoin="round"/>
  <path d="M53.5353 19.9777a.8571.8571 0 01.7265.6417 5.0169 5.0169 0 01-.4584 3.7121.8564.8564 0 01-.8567.4455l-1.2105-.1491a.857.857 0 01-.7487-.7926.8575.8575 0 01.0633-.3854 4.9236 4.9236 0 00.3264-2.6463.8567.8567 0 01.9527-.9758l1.2054.1499z" fill="#FF6242" stroke="#45413C" stroke-linecap="round" stroke-linejoin="round"/>
  <path d="M58.5159 33.5755a.8567.8567 0 01-.897-.3675 5.0224 5.0224 0 01-.7856-3.6564.8569.8569 0 01.6665-.7042l1.1926-.2571a.8576.8576 0 01.7373.1874.8566.8566 0 01.2976.7002 4.9406 4.9406 0 00.5603 2.607.8566.8566 0 01-.5792 1.2336l-1.1925.257z" fill="#FF6196" stroke="#45413C" stroke-linecap="round" stroke-linejoin="round"/>
  <path d="M71.499 52.289a.8566.8566 0 01.9681-.0411 5.0143 5.0143 0 012.2446 2.9925.8564.8564 0 01-.3101.9175l-.9758.7317a.8575.8575 0 01-.7489.1377.8574.8574 0 01-.5628-.513 4.929 4.929 0 00-1.6003-2.1332.857.857 0 01-.2412-1.0635.8567.8567 0 01.2506-.2995l.9758-.7291zM24.0357 45.4438a.8571.8571 0 00-.9681-.0411 5.0208 5.0208 0 00-2.2446 2.9925.8572.8572 0 00.3102.9175l.9758.7325a.857.857 0 001.0897-.051.8563.8563 0 00.2219-.3217 4.9393 4.9393 0 011.6003-2.1332.8557.8557 0 00.3329-.6838.8562.8562 0 00-.3423-.6792l-.9758-.7325z" fill="#BF8DF2" stroke="#45413C" stroke-linecap="round" stroke-linejoin="round"/>
  <path d="M84.1814 47.922a.8561.8561 0 01.9664-.0634 5.0174 5.0174 0 012.3131 2.9385.8571.8571 0 01-.2896.9244l-.9578.7547a.8558.8558 0 01-1.091-.0259.8567.8567 0 01-.2292-.3168 4.9304 4.9304 0 00-1.65-2.0955.8575.8575 0 01-.3488-.676.8567.8567 0 01.3265-.687l.9604-.753z" fill="#4AEFF7" stroke="#45413C" stroke-linecap="round" stroke-linejoin="round"/>
  <path d="M35.0598 38.614a.8561.8561 0 01-.4712.8473 5.0155 5.0155 0 01-3.7241.3487.8565.8565 0 01-.6202-.7445l-.1131-1.214a.8572.8572 0 01.2724-.71.8578.8578 0 01.7299-.2135 4.924 4.924 0 002.6558-.2493.8567.8567 0 011.1574.7214l.1131 1.2139z" fill="#FF8A14" stroke="#45413C" stroke-linecap="round" stroke-linejoin="round"/>
  <path d="M49.7529 33.1099a.8567.8567 0 01-.7762.5809 5.016 5.016 0 01-3.5416-1.1994.8566.8566 0 01-.2622-.933l.3924-1.1548a.856.856 0 01.928-.5736.8563.8563 0 01.3647.1401 4.9249 4.9249 0 002.5248.8567.8562.8562 0 01.7616 1.1309l-.3915 1.1522zM21.7591 61.5472a.8568.8568 0 01-.257-.915 4.7495 4.7495 0 012.451-2.8777.8565.8565 0 01.9424.1114l1.064.9064a.8554.8554 0 01.301.7068.8565.8565 0 01-.3866.6639 4.645 4.645 0 00-1.7135 2.0124.856.856 0 01-.5931.4841.8568.8568 0 01-.7433-.1834l-1.0649-.9089z" fill="#FFF48C" stroke="#45413C" stroke-linecap="round" stroke-linejoin="round"/>
  <path d="M43.0601 100.198l.3103-3.7504 7.502.6207-.3103 3.7507-7.502-.621z" fill="#C0DCEB"/>
  <path d="M47.5352 64.9648l.4137-5.0005 5.0005.4138-.4137 5.0005-5.0005-.4138z" fill="#DAEDF7"/>
  <path d="M47.7423 62.4636l.2069-2.5002 5.0005.4137-.2069 2.5003-5.0005-.4138z" fill="#C0DCEB"/>
  <path d="M47.5352 64.9648l.4137-5.0005 5.0005.4138-.4137 5.0005-5.0005-.4138z" stroke="#45413C" stroke-linecap="round" stroke-linejoin="round"/>
  <path d="M38.4807 83.0989l1.5518-18.7545 20.0046 1.6552-1.5518 18.7545-20.0046-1.6552z" fill="#fff" stroke="#45413C" stroke-linecap="round" stroke-linejoin="round"/>
  <path d="M44.1121 91.1172l.6207-7.5021 7.502.6208-.6207 7.502-7.502-.6207z" fill="#DAEDF7"/>
  <path d="M44.422 87.3672l.3103-3.7504 7.5021.6207-.3104 3.7504-7.502-.6207z" fill="#C0DCEB"/>
  <path d="M44.1121 91.1172l.6207-7.5021 7.502.6208-.6207 7.502-7.502-.6207z" stroke="#45413C" stroke-linecap="round" stroke-linejoin="round"/>
  <path d="M54.3113 74.3375a2.509 2.509 0 01-2.7072 2.2938l-5.001-.4135a2.5102 2.5102 0 01-2.2937-2.7059l.7245-8.7526 10.0019.8281-.7245 8.7501z" fill="#00B8F0"/>
  <path d="M53.3666 65.448l-9.0239 7.671.6911-8.3609 8.3328.6899z" fill="#4ACFFF"/>
  <path d="M54.3113 74.3375a2.509 2.509 0 01-2.7072 2.2938l-5.001-.4135a2.5102 2.5102 0 01-2.2937-2.7059l.7245-8.7526 10.0019.8281-.7245 8.7501z" stroke="#45413C" stroke-linecap="round" stroke-linejoin="round"/>
  <path d="M55.0208 92.0196a2.5084 2.5084 0 011.9548 1.2261 2.508 2.508 0 01.1265 2.3041 10.041 10.041 0 01-9.9828 5.8872 10.0388 10.0388 0 01-5.6235-2.3116 10.0396 10.0396 0 01-3.2583-5.1333 2.5097 2.5097 0 01-.0219-1.1868 2.5085 2.5085 0 012.6548-1.9518l14.1504 1.1661z" fill="#fff" stroke="#45413C" stroke-linecap="round" stroke-linejoin="round"/>
  <path d="M22.3585 56.7395l3.7387-3.3463 12.5505 14.0222-3.7387 3.3463-12.5505-14.0222z" fill="#fff"/>
  <path d="M26.0986 53.3933l-3.7401 3.3511 3.4009 3.7926a6.6277 6.6277 0 004.0141-3.04l-3.6749-4.1037z" fill="#E0E0E0"/>
  <path d="M22.3585 56.7395l3.7387-3.3463 12.5505 14.0222-3.7387 3.3463-12.5505-14.0222z" stroke="#45413C" stroke-linecap="round" stroke-linejoin="round"/>
  <path d="M39.3086 73.0966l-5.0009-.4134a3.7646 3.7646 0 01-3.4407-4.0615l.1037-1.2492a3.7622 3.7622 0 011.318-2.5617 3.762 3.762 0 012.7434-.879l2.5012.2061a2.5088 2.5088 0 012.2924 2.7072l-.5171 6.2515z" fill="#fff" stroke="#45413C" stroke-linecap="round" stroke-linejoin="round"/>
  <path d="M12.6096 44.936l3.833-3.2379 8.9342 10.5759-3.833 3.238-8.9342-10.576z" fill="#fff"/>
  <path d="M16.4442 41.6965l-3.84 3.2384 2.8761 3.4048a6.6264 6.6264 0 003.6276-3.4828l-2.6637-3.1604z" fill="#E0E0E0"/>
  <path d="M12.6096 44.936l3.833-3.2379 8.9342 10.5759-3.833 3.238-8.9342-10.576z" stroke="#45413C" stroke-linecap="round" stroke-linejoin="round"/>
  <path d="M4.4857 35.5477a.6286.6286 0 00-.6741.2998.6286.6286 0 00-.081.248 6.587 6.587 0 108.5951-5.5731.6292.6292 0 00-.5072.0536.6286.6286 0 00-.3004.4123l-.3956 1.8547a.6262.6262 0 00.384.7168 3.4565 3.4565 0 012.212 2.8643 3.4553 3.4553 0 01-1.5561 3.2673 3.456 3.456 0 01-5.3304-3.1005.6272.6272 0 00-.4967-.6477l-1.8496-.3955z" fill="#656769"/>
  <path d="M4.4857 35.5477a.6286.6286 0 00-.6741.2998.6286.6286 0 00-.081.248 6.587 6.587 0 108.5951-5.5731.6292.6292 0 00-.5072.0536.6286.6286 0 00-.3004.4123l-.3956 1.8547a.6262.6262 0 00.384.7168 3.4565 3.4565 0 012.212 2.8643 3.4553 3.4553 0 01-1.5561 3.2673 3.456 3.456 0 01-5.3304-3.1005.6272.6272 0 00-.4967-.6477l-1.8496-.3955z" stroke="#45413C" stroke-linecap="round" stroke-linejoin="round"/>
  <path d="M9.3245 42.2097a3.7628 3.7628 0 001.1022 2.661 3.7621 3.7621 0 002.661 1.1022 3.7635 3.7635 0 002.6609-1.1022 3.7632 3.7632 0 10-6.4241-2.661zM20.435 54.2446a3.7632 3.7632 0 107.5265 0 3.7632 3.7632 0 00-7.5265 0z" fill="#fff" stroke="#45413C" stroke-linecap="round" stroke-linejoin="round"/>
  <path d="M60.8986 69.2563l14.6845-11.7687 3.1379 3.9154-14.6845 11.7687-3.1379-3.9154z" fill="#fff"/>
  <path d="M75.582 57.488l-4.4032 3.529a6.6244 6.6244 0 003.4765 3.6442l4.064-3.2576-3.1373-3.9156z" fill="#E0E0E0"/>
  <path d="M60.8986 69.2563l14.6845-11.7687 3.1379 3.9154-14.6845 11.7687-3.1379-3.9154z" stroke="#45413C" stroke-linecap="round" stroke-linejoin="round"/>
  <path d="M59.3138 74.7516l5.001.4147a3.7626 3.7626 0 003.6575-2.0325c.2258-.44.3626-.9203.4027-1.4132l.1036-1.2506a3.7628 3.7628 0 00-3.4406-4.0614l-2.4998-.2061a2.509 2.509 0 00-1.8291.5857 2.5062 2.5062 0 00-.8781 1.7081l-.5172 6.2553z" fill="#fff" stroke="#45413C" stroke-linecap="round" stroke-linejoin="round"/>
  <path d="M76.4779 56.501l10.5511-8.9635 3.2486 3.824-10.5511 8.9635-3.2486-3.824z" fill="#fff"/>
  <path d="M87.0279 47.5361l-3.1564 2.6804a6.6198 6.6198 0 003.0054 4.032l3.3946-2.8877-3.2436-3.8247z" fill="#E0E0E0"/>
  <path d="M76.4779 56.501l10.5511-8.9635 3.2486 3.824-10.5511 8.9635-3.2486-3.824z" stroke="#45413C" stroke-linecap="round" stroke-linejoin="round"/>
  <path d="M99.8346 43.4318a.6293.6293 0 01.4754.1874.6305.6305 0 01.179.4782 6.5923 6.5923 0 01-1.227 3.4455 6.587 6.587 0 01-11.7005-2.1032 6.587 6.587 0 015.3649-8.2543.6294.6294 0 01.2605.0158.63.63 0 01.3943.3243.6291.6291 0 01.0659.2525l.0857 1.8957a.6281.6281 0 01-.503.64 3.4558 3.4558 0 00-1.6532 5.9405 3.4564 3.4564 0 003.5541.6807 3.4568 3.4568 0 002.213-2.8631.626.626 0 01.5952-.5581l1.8957-.0819z" fill="#656769"/>
  <path d="M99.8346 43.4318a.6293.6293 0 01.4754.1874.6305.6305 0 01.179.4782 6.5923 6.5923 0 01-1.227 3.4455 6.587 6.587 0 01-11.7005-2.1032 6.587 6.587 0 015.3649-8.2543.6294.6294 0 01.2605.0158.63.63 0 01.3943.3243.6291.6291 0 01.0659.2525l.0857 1.8957a.6281.6281 0 01-.503.64 3.4558 3.4558 0 00-1.6532 5.9405 3.4564 3.4564 0 003.5541.6807 3.4568 3.4568 0 002.213-2.8631.626.626 0 01.5952-.5581l1.8957-.0819z" stroke="#45413C" stroke-linecap="round" stroke-linejoin="round"/>
  <path d="M86.4922 48.594a3.7631 3.7631 0 107.2399-1.4401 3.7639 3.7639 0 00-2.0366-2.0366 3.7617 3.7617 0 00-2.8802 0 3.7628 3.7628 0 00-2.3231 3.4767zM73.5536 58.6384a3.7622 3.7622 0 001.1022 2.661 3.7626 3.7626 0 004.1011.8158 3.7626 3.7626 0 002.0366-2.0366 3.7622 3.7622 0 000-2.8803 3.7635 3.7635 0 00-4.9168-2.0366 3.7626 3.7626 0 00-2.0366 2.0366 3.762 3.762 0 00-.2865 1.4401z" fill="#fff" stroke="#45413C" stroke-linecap="round" stroke-linejoin="round"/>
  <path d="M33.6396 58.7476l2.3097-27.2033 34.6223 2.9396-2.3096 27.2032-34.6224-2.9395z" fill="#00B8F0"/>
  <path d="M37.8075 59.1021l-.457-.0397a3.7247 3.7247 0 01-2.533-1.3081 3.724 3.724 0 01-.8654-2.7162l1.6806-19.7837a3.7228 3.7228 0 014.0244-3.3946l27.2038 2.304-29.0534 24.9383z" fill="#4ACFFF"/>
  <path d="M33.6396 58.7476l2.3097-27.2033 34.6223 2.9396-2.3096 27.2032-34.6224-2.9395z" stroke="#45413C" stroke-linecap="round" stroke-linejoin="round"/>
  <path d="M47.1227 49.8429a1.7618 1.7618 0 01-1.6051-1.9034 2.287 2.287 0 00-.5683-2.0198 2.4435 2.4435 0 00-.8704 1.8982 1.769 1.769 0 01-1.7536 1.6102h-.1485a1.761 1.761 0 01-1.6051-1.9033c.247-2.9171 2.1389-5.12 4.3981-5.12.0973 0 .1945.0038.2918.0115 2.3706.201 4.0231 2.7584 3.7632 5.8227a1.77 1.77 0 01-1.751 1.6115l-.1511-.0076zM61.9603 51.1019a1.7612 1.7612 0 01-1.6038-1.9034 2.287 2.287 0 00-.5684-2.0198 2.4027 2.4027 0 00-.8768 1.8982 1.7701 1.7701 0 01-1.7523 1.6116l-.1497-.0064a1.759 1.759 0 01-1.6039-1.9034c.2471-2.9171 2.1363-5.12 4.3955-5.12.0973 0 .1959 0 .2944.0128 2.3706.2022 4.0231 2.7597 3.7632 5.8227a1.77 1.77 0 01-1.7472 1.6179l-.151-.0102z" fill="#fff" stroke="#009FD9"/>
</svg>
