<svg width="160" height="160" fill="none" xmlns="http://www.w3.org/2000/svg">
  <path d="M16 80c0 16.9739 6.7428 33.253 18.7452 45.255C46.7475 137.257 63.0261 144 80 144c16.9739 0 33.253-6.743 45.255-18.745C137.257 113.253 144 96.9739 144 80c0-16.9739-6.743-33.2525-18.745-45.2548C113.253 22.7428 96.9739 16 80 16c-16.9739 0-33.2525 6.7428-45.2548 18.7452C22.7428 46.7475 16 63.0261 16 80z" fill="#CDF2FF"/>
  <g clip-path="url(#clip0)" fill="#271B72">
    <path d="M48.0802 132.158c.4127.051.8639.105 1.3512.162l.9582 7.028c.3679 2.696 2.6742 4.652 5.3211 4.652.2423 0 .4868-.017.7335-.051 2.9424-.401 5.0024-3.111 4.6012-6.054l-.6154-4.513c.4433.033.8915.064 1.3419.094l.5781 4.241c.0654.48.0751.954.0395 1.419h21.1141a6.699 6.699 0 01.0395-1.419l.6005-4.402c.4526-.035.9016-.071 1.3437-.108l-.6392 4.688c-.4012 2.943 1.6589 5.654 4.6012 6.055.2467.034.4912.05.7335.05 2.647 0 4.9533-1.956 5.3211-4.651l.9956-7.301c.575-.073 1.0285-.133 1.3533-.177l-.9907 7.265h9.5229V122.09H100.839c.421-5.604-.038-12.187-4.0129-14.405-1.8524-1.034-3.7619-1.558-5.6753-1.558-1.9842 0-3.632.564-4.8124 1.153l-.7682-9.0972-1.3739-.6237 1.014 12.0069s4.6824-4.243 10.974-.731c6.2917 3.511 2.0487 21.655 2.0487 21.655s-14.3853 2.049-26.3834 2.049c-11.9982 0-26.3834-2.049-26.3834-2.049s-3.635-15.546.8156-20.642a6.0652 6.0652 0 01-.7787-1.082c-2.7027 2.839-3.0087 8.448-2.6426 13.324H36v17.046h13.0319l-.9517-6.978z"/>
    <path d="M46.1037 107.814c.9938 2.293 3.3616 3.215 5.6521 4.107 2.9305 1.141 4.8786 2.025 5.2487 3.845.3384 1.665 1.8019 2.813 3.4375 2.813.2317 0 .467-.023.7032-.071 1.9002-.386 3.1285-2.24 2.7422-4.14-1.1606-5.714-6.433-7.766-9.5839-8.993a63.565 63.565 0 01-1.0408-.412c.813-1.869 1.6576-3.535 2.5039-5.018 1.4525-2.5473 2.9085-4.5525 4.2118-6.0954v5.8869c-.4771.252-.9648.4995-1.4696.7405l-.6905.328-.36 4.861c.4179.201.8442.423 1.2713.667l.3459-4.668c4.4971-2.1414 7.9096-4.7339 10.4964-7.3308 1.4943 1.8037 3.1088 3.0947 4.7904 3.4248l.1919.0377.1672-.1009c1.0842-.6567 1.9534-1.7945 2.65-3.2352l-.8963-.4069c-.5729 1.1712-1.2673 2.1022-2.1106 2.6715-4.746-1.179-9.1348-11.33-11.3151-17.2288a9.9143 9.9143 0 004.2193 2.5368c-.0869-1.0241-.054-2.672.8046-3.9634.6295-.9468 1.5697-1.5368 2.7962-1.7541 1.2247-.2177 2.312.0136 3.2281.687 1.2028.884 1.8029 2.3432 2.0864 3.3356a9.9246 9.9246 0 002.891-3.6785c-.0083 2.3726-.104 5.4204-.4376 8.4448l.9661.4385c.1374-1.1527.2393-2.3085.313-3.4318l3.0091.3859.3999 4.7355 4.8312 2.1926-.0623 1.0803-13.4722-6.1148c-1.7673-.8011-3.8475-.0193-4.6495 1.7467-.8011 1.7659-.0197 3.8479 1.7466 4.6495l15.9414 7.2354 3.5222 1.5987c.0154.007.0312.0114.0465.0184a3.512 3.512 0 00.2718.1058c.0333.0114.0671.0215.1005.032.0777.0242.1567.0452.2362.0641a2.406 2.406 0 00.1106.0246 3.638 3.638 0 00.2423.0386c.0333.0044.0671.0101.1005.0136a3.504 3.504 0 00.3266.0172c.0048 0 .0096.0008.0145.0008.0035 0 .0066-.0008.0101-.0008.1409-.0005.2831-.0123.4262-.0303.0369-.0049.0737-.0092.1102-.0149.0298-.0049.0597-.0066.0895-.0123a3.5085 3.5085 0 00.7713-.2388c.0281-.0123.0557-.0255.0834-.0387a3.5414 3.5414 0 00.3516-.1887c.0167-.0105.0342-.0193.0509-.0303a3.4667 3.4667 0 00.3582-.2634c.0268-.0224.0522-.0465.0781-.0698.09-.0799.1756-.1641.2564-.2524.0246-.0268.0505-.0527.0746-.0803a3.617 3.617 0 00.263-.3472c.0197-.0299.0381-.061.057-.0918a3.473 3.473 0 00.1971-.3604c.0066-.014.0158-.0263.0224-.0408.0031-.0066.0048-.0136.0079-.0202a3.5145 3.5145 0 00.0913-.2317c.0114-.0312.025-.0619.0356-.0931a3.54 3.54 0 00.068-.2419c.0079-.0311.0184-.0623.0259-.0939.0154-.0672.025-.1361.036-.2046.0075-.0456.018-.0917.0237-.1374.0053-.0421.0061-.0851.0097-.1277.0061-.0733.0136-.1462.0153-.219.0005-.0277-.0017-.0554-.0017-.083a3.565 3.565 0 00-.0079-.266c-.0022-.0281-.0075-.0562-.0101-.0843a3.4823 3.4823 0 00-.0347-.2625c-.0013-.0066-.0013-.0127-.0026-.0189-1.3248-7.2209-7.1986-11.0412-10.4649-12.6416-.5399-.2643-1.0087-.4693-1.3735-.6177l-.1019-1.204-4.1565-.5329c.022-.4491.04-.8898.054-1.3209.1295-3.9221-.0338-6.9852-.0527-7.3122l-.0399.0022a9.9337 9.9337 0 00-.1414-1.3165c-.9512-5.3711-6.0756-8.9543-11.4476-8.0031-5.3707.9512-8.9544 6.0761-8.0032 11.4477.0781.4416.187.8696.3196 1.2853l-.0391.0118c.0983.3253 1.0623 3.4713 2.6303 7.3a3.4942 3.4942 0 00-2.021.4372c-.3161.1777-6.8584 3.9633-12.6158 15.0331-.8696 1.6725-1.722 3.5065-2.5319 5.5245-.6773 1.685-.374 3.067.0004 3.93z"/>
    <path d="M71.808 82.2933a9.8726 9.8726 0 002.8155-.9495c-.1282-.6277-.5377-2.1737-1.5706-2.9287-.5206-.3806-1.1356-.5013-1.8779-.3701-.7454.1322-1.2822.4583-1.64.9969-.7278 1.0948-.5478 2.7681-.456 3.3506a9.865 9.865 0 002.729-.0992zM82.707 111.214l.8744-.076-1.2405-14.4207-.9166-.4162 1.2827 14.9129zM85.2051 111.789l.5592.677c.2296-.19 5.6969-4.589 10.759.2l.6035-.638c-5.6318-5.326-11.8603-.291-11.9217-.239zM59.334 126.319l.5777.661c13.966-12.221 18.7296-24.195 18.7757-24.314l-.8178-.319c-.0456.118-4.7298 11.892-18.5356 23.972zM102.266 60.7719c12.363 0 22.386-10.0223 22.386-22.3857C124.652 26.0224 114.629 16 102.266 16c-12.3632 0-22.3856 10.0224-22.3856 22.3857-.0005 12.3639 10.0224 22.3862 22.3856 22.3862zm-1.095-39.6005c9.981 0 18.071 8.0905 18.071 18.0708 0 9.9802-8.09 18.0707-18.071 18.0707-9.9799 0-18.0704-8.0909-18.0704-18.0712 0-9.9798 8.0905-18.0703 18.0704-18.0703z"/>
    <path d="M95.5084 42.7731c1.1808 1.6276 2.5565 3.9963 2.5565 6.2025 0 3.8589 6.3971 3.8589 6.3971 0 0-2.2067 1.376-4.5749 2.557-6.2025 1.883-1.6202 3.08-4.0165 3.08-6.6964 0-4.8795-3.955-8.8359-8.835-8.8359-4.8799 0-8.8363 3.9564-8.8363 8.8359 0 2.6803 1.198 5.0762 3.0807 6.6964zm5.7556-13.7049c3.864 0 7.008 3.1443 7.008 7.0098 0 2.0373-.893 3.9726-2.447 5.3093l-.161.1387-.128.1743c-.659.9117-1.199 1.7957-1.635 2.6544h-5.2729c-.4368-.86-.9776-1.7449-1.6396-2.6566l-.1251-.1721-.1615-.1387c-1.5539-1.3371-2.4459-3.2725-2.4459-5.3093 0-3.8655 3.1434-7.0098 7.008-7.0098z"/>
    <path d="M96.7866 36.4275a.4389.4389 0 00.439-.439c0-2.2993 1.8704-4.1701 4.1684-4.1701.243 0 .439-.1967.439-.439a.4387.4387 0 00-.439-.439c-2.7826 0-5.0463 2.2646-5.0463 5.0481 0 .2427.1966.439.4389.439zM89.5029 63.7116c0 1.7124 1.388 3.1004 3.1004 3.1004 1.7124 0 3.1004-1.388 3.1004-3.1004 0-1.7124-1.388-3.1004-3.1004-3.1004-1.7124 0-3.1004 1.388-3.1004 3.1004zm5.0296.0456c0 1.1313-.9169 2.0487-2.0486 2.0487-1.1316 0-2.0486-.917-2.0486-2.0487 0-1.1316.917-2.0486 2.0486-2.0486 1.1317 0 2.0486.917 2.0486 2.0486zM85.187 68.0188c0 1.0908.8845 1.9753 1.9753 1.9753 1.0909 0 1.9754-.8845 1.9754-1.9753 0-1.0908-.8845-1.9753-1.9754-1.9753-1.0908 0-1.9753.8845-1.9753 1.9753zm3.0179.0549c0 .6667-.5404 1.2071-1.2072 1.2071-.6668 0-1.2071-.5404-1.2071-1.2071 0-.6668.5403-1.2072 1.2071-1.2072.6668 0 1.2072.5404 1.2072 1.2072zM82.2237 69.2623c.6262 0 1.1338-.5076 1.1338-1.1338 0-.6262-.5076-1.1339-1.1338-1.1339-.6262 0-1.1339.5077-1.1339 1.1339 0 .6262.5077 1.1338 1.1339 1.1338zM59.3686 58.9314c-.3064.1018-.5334.3731-.6813.8147-.1479.4416-.1769.798-.0869 1.0689.2388.719.6821.9705 1.33.7554.2178-.0724.457-.2677.7177-.5864.2608-.3187.353-.6813.2766-1.0878l-.0935-.5772c-.0452-.1356-.2502-.2506-.615-.3455-.3648-.0943-.6475-.1084-.8476-.0421zM56.8709 50.4597c.2173.6541.399 1.6861.5465 3.0956.1435 1.2998.453 2.5082.9288 3.6258.4043.1344.9008.1032 1.4899-.0921.0829-.3806.0605-.7818-.0663-1.2041-.1721-.5575-.288-1.3402-.3477-2.3471-.0597-.968-.1457-2.0202-.2581-3.1566-.1124-1.1365-.1962-1.7875-.2506-1.9525-.0685-.2059-.2388-.3604-.5119-.4631-.2726-.1023-.5267-.1146-.7624-.036-.2178.0724-.446.2721-.6839.5996-.238.3275-.317.7151-.2371 1.1628.0803.4469.1313.7032.1528.7677zM54.8588 63.9574c-.0149.4653.0597.8152.2234 1.0487.4346.6203.9315.7344 1.4907.3424.1879-.1317.3613-.3876.5193-.7678.1585-.3797.1427-.7536-.0469-1.1215l-.2551-.5263c-.0821-.1168-.3112-.1681-.6883-.1545-.3766.014-.6518.0816-.8243.2028-.2643.1857-.4039.5109-.4188.9762zM50.4555 55.5826c.3955.5645.866 1.5008 1.4112 2.8085.5101 1.204 1.1532 2.2729 1.9297 3.207.4258.0128.8924-.1593 1.4007-.5157-.0298-.3885-.1659-.7665-.4087-1.1348-.3248-.4846-.6602-1.201-1.0061-2.1487-.3349-.91-.7185-1.8937-1.1522-2.9503-.4337-1.0565-.7006-1.6562-.8003-1.7984-.1246-.1778-.3323-.2765-.6228-.2967-.2906-.0198-.5378.0417-.741.1839-.1879.1317-.349.3885-.4833.7708-.1339.3819-.0983.7761.1062 1.1817.205.4061.3275.6369.3666.6927z"/>
  </g>
  <defs>
    <clipPath id="clip0">
      <path fill="#fff" transform="translate(36 16)" d="M0 0h88.6519v128H0z"/>
    </clipPath>
  </defs>
</svg>
