<svg width="160" height="160" fill="none" xmlns="http://www.w3.org/2000/svg">
  <path d="M16 80c0 16.9739 6.7428 33.253 18.7452 45.255C46.7475 137.257 63.0261 144 80 144c16.9739 0 33.253-6.743 45.255-18.745C137.257 113.253 144 96.9739 144 80c0-16.9739-6.743-33.2525-18.745-45.2548C113.253 22.7428 96.9739 16 80 16c-16.9739 0-33.2525 6.7428-45.2548 18.7452C22.7428 46.7475 16 63.0261 16 80z" fill="#CDF2FF"/>
  <g clip-path="url(#clip0)">
    <path d="M56.0602 119.118c.3094.038.6479.079 1.0133.122l.7187 5.271c.2759 2.022 2.0056 3.489 3.9908 3.489.1818 0 .3651-.013.5502-.038 2.2067-.301 3.7518-2.334 3.4509-4.541l-.4616-3.385c.3325.025.6686.048 1.0064.071l.4336 3.181a5.02 5.02 0 01.0296 1.064h15.8356a5.0265 5.0265 0 01.0296-1.064l.4504-3.302c.3394-.026.6762-.053 1.0077-.081l-.4793 3.516c-.3009 2.208 1.2441 4.241 3.4509 4.541.185.026.3684.038.5501.038 1.9852 0 3.715-1.467 3.9909-3.488l.7466-5.476c.4313-.055.7714-.099 1.015-.132l-.743 5.448h7.1421v-12.784H95.629c.3157-4.203-.0283-9.141-3.0094-10.804-1.3893-.7755-2.8215-1.1689-4.2565-1.1689-1.4881 0-2.724.4229-3.6093.8649l-.5761-6.8229-1.0305-.4678.7605 9.0057s3.5118-3.1827 8.2305-.549c4.7188 2.634 1.5365 16.242 1.5365 16.242s-10.7889 1.536-19.7875 1.536c-8.9986 0-19.7875-1.536-19.7875-1.536s-2.7263-11.66.6117-15.482a4.5227 4.5227 0 01-.5841-.812c-2.027 2.129-2.2565 6.336-1.9819 9.993H47v12.785h9.7739l-.7137-5.234z" fill="url(#paint0_linear)"/>
    <path d="M54.5778 100.861c.7453 1.72 2.5212 2.411 4.239 3.08 2.1979.855 3.659 1.518 3.9365 2.883.2539 1.249 1.3515 2.11 2.5782 2.11.1738 0 .3503-.017.5274-.053 1.4252-.29 2.3463-1.68 2.0566-3.105-.8704-4.285-4.8247-5.8246-7.1879-6.7444-.2416-.0942-.5201-.2025-.7805-.3095.6097-1.4018 1.2431-2.6509 1.8778-3.7633 1.0894-1.9105 2.1815-3.4144 3.1589-4.5716V94.8024c-.3578.189-.7236.3746-1.1022.5551l-.5179.2465-.2699 3.6452a15.8 15.8 0 01.9534.5004l.2594-3.5006c3.3729-1.6063 5.9323-3.5507 7.8724-5.4983 1.1206 1.3527 2.3315 2.321 3.5927 2.5685l.1439.0284.1255-.0758c.8131-.4925 1.465-1.3458 1.9875-2.4263l-.6723-.3052c-.4296.8783-.9505 1.5766-1.5829 2.0036-3.5595-.8843-6.8511-8.4975-8.4864-12.9216a7.4354 7.4354 0 003.1645 1.9026c-.0652-.7681-.0405-2.004.6035-2.9726.4721-.7101 1.1773-1.1526 2.0971-1.3155.9186-.1633 1.734.0102 2.4211.5152.9021.6631 1.3521 1.7574 1.5648 2.5018a7.4452 7.4452 0 002.1683-2.7589c-.0063 1.7794-.0781 4.0652-.3283 6.3335l.7247.3289c.103-.8645.1794-1.7313.2347-2.5738l2.2568.2894.2999 3.5516 3.6234 1.6445-.0467.8102-10.1042-4.5861c-1.3254-.6008-2.8856-.0145-3.4871 1.31-.6008 1.3245-.0148 2.886 1.31 3.4871l11.956 5.4266 2.6417 1.199c.0115.0053.0234.0086.0349.0138a2.62 2.62 0 00.2038.0794c.025.0085.0503.0161.0754.024.0582.0181.1175.0339.1771.0481.0276.0066.0553.0131.083.0184.0599.0119.1204.0211.1817.029.025.0033.0504.0075.0754.0102.081.0079.1626.0125.2449.0128.0036 0 .0073.0007.0109.0007.0026 0 .0049-.0007.0076-.0007a2.6253 2.6253 0 00.3196-.0227c.0277-.0036.0553-.0069.0827-.0112.0223-.0036.0447-.0049.0671-.0092a2.6245 2.6245 0 00.5785-.1791 2.0789 2.0789 0 00.0625-.029 2.661 2.661 0 00.2637-.1415c.0125-.0079.0257-.0145.0382-.0228a2.6074 2.6074 0 00.2687-.1975c.02-.0168.0391-.0349.0586-.0523.0674-.06.1316-.1232.1922-.1893.0185-.0201.0379-.0395.056-.0603a2.7091 2.7091 0 00.1972-.2604c.0148-.0224.0286-.0458.0428-.0688a2.6187 2.6187 0 00.1478-.2703c.005-.0105.0119-.0197.0168-.0306.0023-.0049.0036-.0102.0059-.0152a2.6122 2.6122 0 00.0685-.1738c.0086-.0234.0188-.0464.0267-.0698a2.6937 2.6937 0 00.051-.1814c.0059-.0234.0138-.0467.0194-.0704.0116-.0504.0188-.1021.027-.1535.0056-.0342.0135-.0688.0178-.103.004-.0316.0046-.0639.0072-.0958.0047-.055.0103-.1096.0116-.1643.0003-.0207-.0013-.0415-.0013-.0622 0-.0668-.001-.1333-.006-.1995-.0016-.0211-.0056-.0422-.0075-.0632a2.5855 2.5855 0 00-.0261-.1969c-.0009-.0049-.0009-.0095-.0019-.0142-.9936-5.4156-5.3989-8.2809-7.8487-9.4812a16.5621 16.5621 0 00-1.0301-.4632l-.0764-.9031-3.1174-.3997c.0165-.3367.03-.6673.0405-.9906.0971-2.9416-.0253-5.2389-.0395-5.4841l-.03.0016a7.456 7.456 0 00-.106-.9873c-.7134-4.0284-4.5567-6.7158-8.5857-6.0024-4.0281.7134-6.7158 4.5571-6.0024 8.5858a7.415 7.415 0 00.2397.9639l-.0293.0089c.0737.244.7967 2.6035 1.9727 5.475a2.6216 2.6216 0 00-1.5158.3279c-.237.1333-5.1437 2.9725-9.4618 11.2748-.6522 1.2544-1.2915 2.6298-1.8989 4.1433-.508 1.2638-.2805 2.3001.0003 2.9481z" fill="url(#paint1_linear)"/>
    <path d="M73.856 81.72a7.403 7.403 0 002.1116-.7121c-.0961-.4708-.4033-1.6303-1.1779-2.1965-.3905-.2855-.8517-.376-1.4085-.2776-.559.0991-.9616.3437-1.2299.7477-.5459.8211-.4109 2.0761-.3421 2.5129a7.3972 7.3972 0 002.0468-.0744z" fill="url(#paint2_linear)"/>
    <path d="M82.0303 103.41l.6558-.056-.9303-10.8161-.6874-.3121.9619 11.1842z" fill="url(#paint3_linear)"/>
    <path d="M83.9038 103.842l.4194.507c.1722-.142 4.2727-3.441 8.0692.15l.4527-.478c-4.2239-3.995-8.8952-.218-8.9413-.179z" fill="url(#paint4_linear)"/>
    <path d="M64.5005 114.739l.4332.496c10.4746-9.165 14.0473-18.1463 14.0818-18.2358l-.6133-.2387c-.0342.0882-3.5474 8.9185-13.9017 17.9785z" fill="url(#paint5_linear)"/>
    <path d="M96.6995 65.5789c9.2725 0 16.7895-7.5167 16.7895-16.7893C113.489 39.5168 105.972 32 96.6995 32c-9.2726 0-16.7893 7.5168-16.7893 16.7893-.0004 9.2729 7.5167 16.7896 16.7893 16.7896zm-.8211-29.7003c7.4856 0 13.5526 6.0678 13.5526 13.553 0 7.4852-6.067 13.5531-13.5526 13.5531-7.4852 0-13.5531-6.0682-13.5531-13.5534 0-7.4849 6.0679-13.5527 13.5531-13.5527z" fill="url(#paint6_linear)"/>
    <path d="M91.6313 52.0798c.8856 1.2208 1.9174 2.9973 1.9174 4.6519 0 2.8942 4.798 2.8942 4.798 0 0-1.655 1.0321-3.4311 1.9173-4.6519 1.412-1.2151 2.311-3.0123 2.311-5.0222 0-3.6597-2.967-6.6269-6.627-6.6269-3.6599 0-6.6272 2.9672-6.6272 6.6269 0 2.0102.8984 3.8071 2.3105 5.0222zm4.3171-10.2786c2.8974 0 5.2556 2.3582 5.2556 5.2574 0 1.5279-.67 2.9794-1.835 3.9819l-.1212.104-.0955.1307c-.4948.6838-.8994 1.3469-1.2263 1.9908h-3.9549c-.3276-.6449-.7332-1.3086-1.2297-1.9924l-.0938-.1291-.1212-.104c-1.1654-1.0028-1.8344-2.4544-1.8344-3.9819 0-2.8992 2.3576-5.2574 5.2564-5.2574z" fill="url(#paint7_linear)"/>
    <path d="M92.59 47.3206a.3292.3292 0 00.3292-.3292c0-1.7245 1.4028-3.1276 3.1266-3.1276a.3291.3291 0 00.3292-.3293.329.329 0 00-.3292-.3292c-2.0873 0-3.7851 1.6985-3.7851 3.7861 0 .182.1475.3292.3293.3292z" fill="url(#paint8_linear)"/>
    <path d="M87.1274 67.7837c0 1.2843 1.041 2.3253 2.3253 2.3253s2.3253-1.041 2.3253-2.3253-1.041-2.3253-2.3253-2.3253-2.3253 1.041-2.3253 2.3253zm3.7723.0342c0 .8484-.6878 1.5365-1.5365 1.5365-.8488 0-1.5365-.6878-1.5365-1.5365s.6877-1.5365 1.5365-1.5365c.8487 0 1.5365.6878 1.5365 1.5365z" fill="url(#paint9_linear)"/>
    <path d="M83.8901 71.0141c0 .8181.6634 1.4815 1.4815 1.4815s1.4815-.6634 1.4815-1.4815-.6634-1.4815-1.4815-1.4815-1.4815.6634-1.4815 1.4815zm2.2634.0411a.9052.9052 0 01-.9053.9054.9053.9053 0 01-.9054-.9054c0-.5.4053-.9053.9054-.9053a.9052.9052 0 01.9053.9053z" fill="url(#paint10_linear)"/>
    <path d="M81.6678 71.9467a.8503.8503 0 00.8503-.8503.8503.8503 0 10-1.7007 0c0 .4696.3807.8503.8504.8503z" fill="url(#paint11_linear)"/>
    <path d="M64.5265 64.1986c-.2298.0764-.4.2798-.5109.611-.111.3312-.1327.5986-.0652.8017.1791.5393.5116.7279.9975.5666.1633-.0543.3428-.2008.5383-.4399.1956-.239.2647-.5109.2074-.8158l-.0701-.4329c-.0339-.1017-.1877-.188-.4612-.2591-.2736-.0708-.4856-.0813-.6358-.0316z" fill="url(#paint12_linear)"/>
    <path d="M62.6533 57.8448c.1629.4906.2992 1.2646.4099 2.3217.1076.9748.3397 1.8812.6966 2.7194.3032.1007.6755.0774 1.1174-.0692.0622-.2854.0454-.5863-.0497-.903-.1291-.4181-.216-1.0051-.2608-1.7604-.0448-.7259-.1093-1.515-.1936-2.3674-.0843-.8523-.1471-1.3406-.188-1.4644-.0513-.1544-.1791-.2703-.3838-.3473-.2045-.0767-.3951-.0859-.5719-.027-.1633.0543-.3345.2041-.5129.4497-.1785.2456-.2377.5363-.1778.8721.0603.3352.0984.5274.1146.5758z" fill="url(#paint13_linear)"/>
    <path d="M61.144 67.968c-.0112.349.0448.6114.1676.7865.3259.4652.6986.5508 1.118.2568.1409-.0987.2709-.2907.3895-.5758.1188-.2847.107-.5652-.0353-.8411l-.1913-.3948c-.0615-.0875-.2334-.126-.5162-.1158-.2824.0105-.4889.0612-.6182.1521-.1982.1392-.3029.3832-.3141.7321z" fill="url(#paint14_linear)"/>
    <path d="M57.8413 61.6869c.2967.4234.6496 1.1256 1.0585 2.1064.3825.903.8649 1.7047 1.4472 2.4053.3194.0095.6694-.1195 1.0506-.3869-.0224-.2913-.1245-.5748-.3065-.851-.2436-.3635-.4952-.9008-.7546-1.6115-.2512-.6825-.5389-1.4203-.8642-2.2127-.3253-.7925-.5254-1.2422-.6002-1.3489-.0935-.1333-.2492-.2074-.4671-.2225-.218-.0148-.4033.0313-.5558.1379-.1409.0988-.2617.2914-.3624.5781-.1004.2865-.0738.5821.0796.8863.1538.3045.2456.4777.2749.5195z" fill="url(#paint15_linear)"/>
  </g>
  <defs>
    <linearGradient id="paint0_linear" x1="73.3943" y1="93.1693" x2="73.3943" y2="128" gradientUnits="userSpaceOnUse">
      <stop stop-color="#20F"/>
      <stop offset="1" stop-color="#9E00FF"/>
    </linearGradient>
    <linearGradient id="paint1_linear" x1="73.1926" y1="67.0186" x2="73.1926" y2="108.934" gradientUnits="userSpaceOnUse">
      <stop stop-color="#20F"/>
      <stop offset="1" stop-color="#9E00FF"/>
    </linearGradient>
    <linearGradient id="paint2_linear" x1="73.8551" y1="78.4955" x2="73.8551" y2="81.8332" gradientUnits="userSpaceOnUse">
      <stop stop-color="#20F"/>
      <stop offset="1" stop-color="#9E00FF"/>
    </linearGradient>
    <linearGradient id="paint3_linear" x1="81.8773" y1="92.2258" x2="81.8773" y2="103.41" gradientUnits="userSpaceOnUse">
      <stop stop-color="#20F"/>
      <stop offset="1" stop-color="#9E00FF"/>
    </linearGradient>
    <linearGradient id="paint4_linear" x1="88.3745" y1="102.189" x2="88.3745" y2="104.499" gradientUnits="userSpaceOnUse">
      <stop stop-color="#20F"/>
      <stop offset="1" stop-color="#9E00FF"/>
    </linearGradient>
    <linearGradient id="paint5_linear" x1="71.758" y1="96.7605" x2="71.758" y2="115.235" gradientUnits="userSpaceOnUse">
      <stop stop-color="#20F"/>
      <stop offset="1" stop-color="#9E00FF"/>
    </linearGradient>
    <linearGradient id="paint6_linear" x1="96.6995" y1="32" x2="96.6995" y2="65.5789" gradientUnits="userSpaceOnUse">
      <stop stop-color="#20F"/>
      <stop offset="1" stop-color="#9E00FF"/>
    </linearGradient>
    <linearGradient id="paint7_linear" x1="95.9477" y1="40.4307" x2="95.9477" y2="58.9024" gradientUnits="userSpaceOnUse">
      <stop stop-color="#20F"/>
      <stop offset="1" stop-color="#9E00FF"/>
    </linearGradient>
    <linearGradient id="paint8_linear" x1="94.3179" y1="43.2053" x2="94.3179" y2="47.3206" gradientUnits="userSpaceOnUse">
      <stop stop-color="#20F"/>
      <stop offset="1" stop-color="#9E00FF"/>
    </linearGradient>
    <linearGradient id="paint9_linear" x1="89.4527" y1="65.4584" x2="89.4527" y2="70.109" gradientUnits="userSpaceOnUse">
      <stop stop-color="#20F"/>
      <stop offset="1" stop-color="#9E00FF"/>
    </linearGradient>
    <linearGradient id="paint10_linear" x1="85.3716" y1="69.5326" x2="85.3716" y2="72.4956" gradientUnits="userSpaceOnUse">
      <stop stop-color="#20F"/>
      <stop offset="1" stop-color="#9E00FF"/>
    </linearGradient>
    <linearGradient id="paint11_linear" x1="81.6678" y1="70.246" x2="81.6678" y2="71.9467" gradientUnits="userSpaceOnUse">
      <stop stop-color="#20F"/>
      <stop offset="1" stop-color="#9E00FF"/>
    </linearGradient>
    <linearGradient id="paint12_linear" x1="64.8126" y1="64.1678" x2="64.8126" y2="66.2337" gradientUnits="userSpaceOnUse">
      <stop stop-color="#20F"/>
      <stop offset="1" stop-color="#9E00FF"/>
    </linearGradient>
    <linearGradient id="paint13_linear" x1="63.715" y1="55.9089" x2="63.715" y2="62.9473" gradientUnits="userSpaceOnUse">
      <stop stop-color="#20F"/>
      <stop offset="1" stop-color="#9E00FF"/>
    </linearGradient>
    <linearGradient id="paint14_linear" x1="62.0214" y1="67.0822" x2="62.0214" y2="69.1821" gradientUnits="userSpaceOnUse">
      <stop stop-color="#20F"/>
      <stop offset="1" stop-color="#9E00FF"/>
    </linearGradient>
    <linearGradient id="paint15_linear" x1="59.4124" y1="59.5624" x2="59.4124" y2="66.1991" gradientUnits="userSpaceOnUse">
      <stop stop-color="#20F"/>
      <stop offset="1" stop-color="#9E00FF"/>
    </linearGradient>
    <clipPath id="clip0">
      <path fill="#fff" transform="translate(47 32)" d="M0 0h66.4889v96H0z"/>
    </clipPath>
  </defs>
</svg>
