<svg viewBox="0 0 48 48" height="48" width="48" xmlns="http://www.w3.org/2000/svg"><g transform="matrix(0.48,0,0,0.48,0,0)"><path d="M10.000 47.451 A40.000 40.000 0 1 0 90.000 47.451 A40.000 40.000 0 1 0 10.000 47.451 Z" fill="#C7F0FF" stroke="#C7F0FF" stroke-linecap="round" stroke-linejoin="round"></path><path d="M25.000 68.951 A25 2 0 1 0 75.000 68.951 A25 2 0 1 0 25.000 68.951 Z" fill="#45413c" opacity=".15"></path><path d="M20.5,53.452a6,6,0,0,1-5.305-8.8c7.7-14.627,21.8-22.868,39.7-23.2H55a6,6,0,0,1,.111,12c-13.521.255-23.654,6.062-29.3,16.8A6,6,0,0,1,20.5,53.452Z" fill="#ffaa54"></path><path d="M17.628,46.594c7.7-14.627,21.8-22.867,39.7-23.2h.115a5.961,5.961,0,0,1,2.384.494A5.988,5.988,0,0,0,55,21.451h-.115c-17.9.337-32,8.578-39.7,23.2a6,6,0,0,0,2.515,8.1c.134.07.269.134.406.194A6,6,0,0,1,17.628,46.594Z" fill="#ffcc99"></path><path d="M20.5,53.452a6,6,0,0,1-5.305-8.8c7.7-14.627,21.8-22.868,39.7-23.2H55a6,6,0,0,1,.111,12c-13.521.255-23.654,6.062-29.3,16.8A6,6,0,0,1,20.5,53.452Z" fill="none" stroke="#45413c" stroke-linecap="round" stroke-linejoin="round"></path><path d="M80.545,62.117l-54.5-12.38a6,6,0,1,0-6.767,3.591L77.426,66.536a3,3,0,0,0,3.59-2.261l.588-2.586A1,1,0,0,1,80.545,62.117Z" fill="#ffe9bd"></path><path d="M40.112,58.06l33.2,7.542,1.08-2.479L80.93,64.58a2.8,2.8,0,0,0,.086-.3l.588-2.586a1,1,0,0,1-1.059.428L30.314,50.706a4.58,4.58,0,0,0,3.448,3.361l6.106,1.361Z" fill="#ffda8f"></path><path d="M20.5,44.076a6,6,0,0,1,5.856,4.688,6.072,6.072,0,0,0,.144-1.313,6,6,0,1,0-11.856,1.314A6,6,0,0,1,20.5,44.076Z" fill="#fff2d9"></path><path d="M80.545,62.117l-54.5-12.38a6,6,0,1,0-6.767,3.591L77.426,66.536a3,3,0,0,0,3.59-2.261l.588-2.586A1,1,0,0,1,80.545,62.117Z" fill="none" stroke="#45413c" stroke-linecap="round" stroke-linejoin="round"></path><path d="M26.194,49.347c-.035.133-.069.266-.1.4l4.881,1.109L80.545,62.117a1,1,0,0,0,1.025-1.57L59.761,31.1c-10.67-4.6-29.376,4.016-33.406,17.663A5.826,5.826,0,0,1,26.194,49.347Z" fill="#fff48c"></path><path d="M85.8,82.887,78.113,66.61a3,3,0,0,1-.687-.074L71.97,65.3l6.7,14.248a2.5,2.5,0,1,1-4.525,2.128L66.06,64.48a2.514,2.514,0,0,1-.188-.569l-5.656-1.285L63.9,70.467A2.5,2.5,0,1,1,59.379,72.6l-5.35-11.374-5.567-1.265,8.7,18.5a2.6,2.6,0,0,1-.91,3.334A2.5,2.5,0,0,1,52.7,80.71L42.942,59.969a2.488,2.488,0,0,1-.224-1.317l-6.629-1.506L53.059,92.54" fill="#fffce5"></path><path d="M44.027,56.7a2.5,2.5,0,0,1,3.44,1.141l1,2.115,5.567,1.265-.183-.39A2.5,2.5,0,1,1,58.37,58.7l1.846,3.923,5.656,1.285a2.5,2.5,0,0,1,4.713-1.559L71.97,65.3l5.456,1.239a3,3,0,0,0,.687.074l-1.785-3.794a1,1,0,0,1,1.127-1.4l3.09.7L30.974,50.856l.512.116a4,4,0,0,1,2.733,2.2l1.87,3.975,6.629,1.506A2.5,2.5,0,0,1,44.027,56.7Z" fill="#fffacf"></path><path d="M26.355,48.765c-.057.193-.11.387-.161.582A5.826,5.826,0,0,0,26.355,48.765Z" fill="#fffacf"></path><path d="M85.8,82.887,76.328,62.816a1,1,0,0,1,1.127-1.4l3.09.7a1,1,0,0,0,1.025-1.57L59.761,31.1C48.837,26.391,29.49,35.535,26.093,49.747l5.393,1.225a4,4,0,0,1,2.733,2.2L53.044,92.549m9.661-18.756a2.5,2.5,0,0,1-3.326-1.2L53.846,60.831A2.5,2.5,0,1,1,58.37,58.7L63.9,70.467A2.5,2.5,0,0,1,62.705,73.793Zm14.768,9.079a2.5,2.5,0,0,1-3.327-1.2L66.06,64.48a2.5,2.5,0,0,1,4.525-2.128l8.086,17.193A2.5,2.5,0,0,1,77.473,82.872ZM44.027,56.7a2.5,2.5,0,0,1,3.44,1.141l9.694,20.612a2.6,2.6,0,0,1-.91,3.334A2.5,2.5,0,0,1,52.7,80.71L42.942,59.969A2.5,2.5,0,0,1,44.027,56.7Z" fill="none" stroke="#45413c" stroke-linecap="round" stroke-linejoin="round"></path><path d="M72.031,60.426a3.979,3.979,0,0,1-1.273-.208l-2.929-.983A5.312,5.312,0,0,1,65.9,58.16a4.981,4.981,0,0,1-1.176-1.612,1.226,1.226,0,0,0-1.2-.712,12.331,12.331,0,0,1-2.318-.041,5.829,5.829,0,0,1-4.121-2.175,5.261,5.261,0,0,1-.751-1.354,1.5,1.5,0,0,0-1.938-.879,7.756,7.756,0,0,1-3.686.624,5.419,5.419,0,0,1-4.868-4.488,2.071,2.071,0,0,0-3.107-1.474,8.6,8.6,0,0,0-1.391.938,4.036,4.036,0,0,1-5.6.767,3.966,3.966,0,0,1-.815-5.541,11.226,11.226,0,0,1,3.461-2.884A56.763,56.763,0,0,1,51.138,33.4c3.54-1.049,5.671.056,6.833,1.169A5.877,5.877,0,0,1,59.6,39.995a1.044,1.044,0,0,0,1.034,1.245,5.254,5.254,0,0,1,2.494.537,5.117,5.117,0,0,1,2.764,4.157,1.583,1.583,0,0,0,1.593,1.445h0a5.32,5.32,0,0,1,4.153,1.675,4.816,4.816,0,0,1,1.232,3.434l.432.145a4,4,0,0,1-1.272,7.793Z" fill="#ff6242"></path><path d="M44.908,47.59c-.257-3.611-2.8-4.748-4.452-4.631a1.645,1.645,0,0,0,.095,3.286,14.45,14.45,0,0,1-3.224-.167,2.779,2.779,0,0,1-1.061-.422.911.911,0,0,1-.359-.531c-.02-.065-.044-.132-.071-.2a2,2,0,1,0-3.677,1.559l.069.162a4.848,4.848,0,0,0,2.063,2.263,6.559,6.559,0,0,0,2.484.759,17.568,17.568,0,0,0,4.025-.135,1.645,1.645,0,0,0,.356,3.268C42.805,52.688,45.165,51.2,44.908,47.59Z" fill="#f0d5a8"></path><path d="M44.908,47.591c-.257-3.612-2.8-4.749-4.452-4.632a1.645,1.645,0,0,0-.932.374c1.548.282,3.346,1.573,3.559,4.578.192,2.7-1.081,4.215-2.425,4.854a1.677,1.677,0,0,0,.5.04C42.805,52.687,45.165,51.2,44.908,47.591Z" fill="#b89558"></path><path d="M44.908,47.59c-.257-3.611-2.8-4.748-4.452-4.631a1.645,1.645,0,0,0,.095,3.286,14.45,14.45,0,0,1-3.224-.167,2.779,2.779,0,0,1-1.061-.422.911.911,0,0,1-.359-.531c-.02-.065-.044-.132-.071-.2a2,2,0,1,0-3.677,1.559l.069.162a4.848,4.848,0,0,0,2.063,2.263,6.559,6.559,0,0,0,2.484.759,17.568,17.568,0,0,0,4.025-.135,1.645,1.645,0,0,0,.356,3.268C42.805,52.688,45.165,51.2,44.908,47.59Z" fill="none" stroke="#45413c" stroke-linecap="round" stroke-linejoin="round"></path><path d="M66.331,54.833c-3.562.652-5.3-1.531-5.6-3.157a1.645,1.645,0,0,1,3.206-.727,14.423,14.423,0,0,0-.966-3.08,2.784,2.784,0,0,0-.673-.923.908.908,0,0,0-.6-.215c-.069,0-.14-.01-.209-.02a2,2,0,0,1,.594-3.95l.174.027a4.846,4.846,0,0,1,2.706,1.434,6.566,6.566,0,0,1,1.354,2.216,17.615,17.615,0,0,1,.873,3.931,1.644,1.644,0,0,1,3.253-.469C70.743,51.526,69.893,54.181,66.331,54.833Z" fill="#f0d5a8"></path><path d="M66.331,54.833c-3.562.652-5.3-1.531-5.6-3.157a1.641,1.641,0,0,1,.13-1c.659,1.429,2.357,2.848,5.32,2.306,2.666-.488,3.813-2.1,4.1-3.558a1.638,1.638,0,0,1,.163.472C70.743,51.526,69.893,54.181,66.331,54.833Z" fill="#b89558"></path><path d="M66.331,54.833c-3.562.652-5.3-1.531-5.6-3.157a1.645,1.645,0,0,1,3.206-.727,14.423,14.423,0,0,0-.966-3.08,2.784,2.784,0,0,0-.673-.923.908.908,0,0,0-.6-.215c-.069,0-.14-.01-.209-.02a2,2,0,0,1,.594-3.95l.174.027a4.846,4.846,0,0,1,2.706,1.434,6.566,6.566,0,0,1,1.354,2.216,17.615,17.615,0,0,1,.873,3.931,1.644,1.644,0,0,1,3.253-.469C70.743,51.526,69.893,54.181,66.331,54.833Z" fill="none" stroke="#45413c" stroke-linecap="round" stroke-linejoin="round"></path><path d="M51.500 36.451 A4.000 4.000 0 1 0 59.500 36.451 A4.000 4.000 0 1 0 51.500 36.451 Z" fill="#ff866e" stroke="#45413c"></path><path d="M55.000 34.451 A1.000 1.000 0 1 0 57.000 34.451 A1.000 1.000 0 1 0 55.000 34.451 Z" fill="#ffcabf"></path><path d="M53.000 37.951 A1.000 1.000 0 1 0 55.000 37.951 A1.000 1.000 0 1 0 53.000 37.951 Z" fill="#ffcabf"></path><path d="M56.500 36.951 A0.500 0.500 0 1 0 57.500 36.951 A0.500 0.500 0 1 0 56.500 36.951 Z" fill="#ffcabf"></path><path d="M49.500 49.451 A4.000 4.000 0 1 0 57.500 49.451 A4.000 4.000 0 1 0 49.500 49.451 Z" fill="#ff866e" stroke="#45413c"></path><path d="M53.000 47.451 A1.000 1.000 0 1 0 55.000 47.451 A1.000 1.000 0 1 0 53.000 47.451 Z" fill="#ffcabf"></path><path d="M51.000 50.951 A1.000 1.000 0 1 0 53.000 50.951 A1.000 1.000 0 1 0 51.000 50.951 Z" fill="#ffcabf"></path><path d="M54.500 49.951 A0.500 0.500 0 1 0 55.500 49.951 A0.500 0.500 0 1 0 54.500 49.951 Z" fill="#ffcabf"></path><path d="M73.54,59.346a1.037,1.037,0,0,1-.609-.865,1.147,1.147,0,0,0-.277-.661,1,1,0,0,1-.036-1.265.844.844,0,0,0,.111-.177.9.9,0,0,0-.45-1.188,1,1,0,1,1,.822-1.823,2.9,2.9,0,0,1,1.483,3.762,3.167,3.167,0,0,1,.344,1.263.984.984,0,0,1-1.388.954Z" fill="#6dd627" stroke="#45413c" stroke-linecap="round" stroke-linejoin="round"></path><path d="M47.19,43.56a1,1,0,0,1-.412-1.353.88.88,0,0,0-.566-1.287,1,1,0,0,1-.744-1.024,1.125,1.125,0,0,0-.593-1.068,1.141,1.141,0,0,0-1.219.1,1,1,0,0,1-1.264-.049.956.956,0,0,0-.17-.122.9.9,0,0,0-1.215.369,1,1,0,1,1-1.765-.942A2.9,2.9,0,0,1,43.1,36.958a3.121,3.121,0,0,1,4.322,2.306,2.9,2.9,0,0,1,1.125,3.885A1,1,0,0,1,47.19,43.56Z" fill="#6dd627" stroke="#45413c"></path></g></svg>