<svg viewBox="0 0 48 48" height="48" width="48" xmlns="http://www.w3.org/2000/svg"><g transform="matrix(0.48,0,0,0.48,0,0)"><path d="M10.000 54.073 A40.000 40.000 0 1 0 90.000 54.073 A40.000 40.000 0 1 0 10.000 54.073 Z" fill="#C7F0FF" stroke="#C7F0FF" stroke-linecap="round" stroke-linejoin="round"></path><path d="M79.025,55.216A29.049,29.049,0,0,0,43.37,26.951l6.194,26.406a1.1,1.1,0,0,1-1.392,1.307L22.206,46.825a29.029,29.029,0,1,0,56.819,8.391Z" fill="#fffce5"></path><path d="M63.955,51.537a3.834,3.834,0,1,0,5.421-5.422L55.048,31.788a3.834,3.834,0,0,0-5.422,5.421l2.711,2.711a3.834,3.834,0,0,1-4.493,6.106l1.72,7.331a1.1,1.1,0,0,1-1.392,1.307L43.984,53.4a3.833,3.833,0,0,1-5.975,4.72l-1.936-1.936a3.833,3.833,0,1,0-5.421,5.421l13.94,13.941a3.834,3.834,0,0,0,5.422-5.421l5.034,5.034a3.834,3.834,0,1,0,5.421-5.422l-5.421-5.421A3.833,3.833,0,0,1,60.469,58.9l3.1,3.1a3.834,3.834,0,0,0,5.422-5.422Z" fill="#ff6242"></path><path d="M79.025,55.216A29.049,29.049,0,0,0,43.37,26.951l.5,2.134A26.81,26.81,0,1,1,24.3,47.459l-2.1-.634a29.029,29.029,0,1,0,56.819,8.391Z" fill="#fff48c"></path><path d="M79.025,55.216A29.049,29.049,0,0,0,43.37,26.951l6.194,26.406a1.1,1.1,0,0,1-1.392,1.307L22.206,46.825a29.029,29.029,0,1,0,56.819,8.391Z" fill="none" stroke="#45413c" stroke-linecap="round" stroke-linejoin="round"></path><path d="M84.5,55.216a34.529,34.529,0,0,0-42.383-33.6l1.251,5.332A28.994,28.994,0,1,1,22.206,46.825l-5.244-1.583A34.506,34.506,0,1,0,84.5,55.216Z" fill="#f0d5a8"></path><path d="M84.5,55.216a34.529,34.529,0,0,0-42.383-33.6l.5,2.133A32.278,32.278,0,1,1,19.06,45.875l-2.1-.633A34.506,34.506,0,1,0,84.5,55.216Z" fill="#debb7e"></path><path d="M84.5,55.216a34.529,34.529,0,0,0-42.383-33.6l1.251,5.332A28.994,28.994,0,1,1,22.206,46.825l-5.244-1.583A34.506,34.506,0,1,0,84.5,55.216Z" fill="none" stroke="#45413c" stroke-linecap="round" stroke-linejoin="round"></path><path d="M29.748,49.1a1.784,1.784,0,0,1-.241.252.989.989,0,0,1-.653.254,2.22,2.22,0,0,0-.228.029,2.187,2.187,0,1,0,.773,4.305l.189-.034a5.309,5.309,0,0,0,2.919-1.654A6.775,6.775,0,0,0,33.72,50.3Z" fill="#f0d5a8" stroke="#45413c"></path><path d="M63,50.072c-3.1,2.475-2.542,5.478-1.412,6.893a1.8,1.8,0,0,0,2.905-2.127,15.824,15.824,0,0,1,1.852,3.012,3.047,3.047,0,0,1,.278,1.22.989.989,0,0,1-.256.653c-.046.058-.091.122-.133.187a2.187,2.187,0,0,0,3.691,2.348l.1-.162a5.318,5.318,0,0,0,.761-3.268,7.194,7.194,0,0,0-.859-2.712A19.25,19.25,0,0,0,67.3,52.569a1.8,1.8,0,0,0,2.727-2.351C68.9,48.8,66.1,47.6,63,50.072Z" fill="#f0d5a8"></path><path d="M63,50.072c-3.1,2.475-2.542,5.478-1.412,6.893a1.79,1.79,0,0,0,.916.608c-.707-1.571-.659-3.995,1.919-6.054,2.319-1.852,4.474-1.643,5.885-.827a1.822,1.822,0,0,0-.273-.474C68.9,48.8,66.1,47.6,63,50.072Z" fill="#b89558"></path><path d="M63,50.072c-3.1,2.475-2.542,5.478-1.412,6.893a1.8,1.8,0,0,0,2.905-2.127,15.824,15.824,0,0,1,1.852,3.012,3.047,3.047,0,0,1,.278,1.22.989.989,0,0,1-.256.653c-.046.058-.091.122-.133.187a2.187,2.187,0,0,0,3.691,2.348l.1-.162a5.318,5.318,0,0,0,.761-3.268,7.194,7.194,0,0,0-.859-2.712A19.25,19.25,0,0,0,67.3,52.569a1.8,1.8,0,0,0,2.727-2.351C68.9,48.8,66.1,47.6,63,50.072Z" fill="none" stroke="#45413c" stroke-linecap="round" stroke-linejoin="round"></path><path d="M54.307,71.846c2.706-2.9,1.719-5.789.4-7.025a1.8,1.8,0,0,0-2.565,2.526,15.776,15.776,0,0,1-2.27-2.711,3.051,3.051,0,0,1-.452-1.166.982.982,0,0,1,.158-.683c.037-.065.073-.135.1-.2A2.187,2.187,0,0,0,45.686,60.8l-.079.176a5.314,5.314,0,0,0-.278,3.343,7.176,7.176,0,0,0,1.244,2.559A19.209,19.209,0,0,0,49.682,70a1.8,1.8,0,0,0-2.356,2.723C48.649,73.959,51.6,74.745,54.307,71.846Z" fill="#f0d5a8"></path><path d="M54.307,71.846c2.706-2.9,1.719-5.789.4-7.025a1.8,1.8,0,0,0-1-.469c.928,1.452,1.233,3.858-1.019,6.269-2.025,2.17-4.188,2.275-5.7,1.673a1.8,1.8,0,0,0,.339.43C48.649,73.959,51.6,74.746,54.307,71.846Z" fill="#b89558"></path><path d="M54.307,71.846c2.706-2.9,1.719-5.789.4-7.025a1.8,1.8,0,0,0-2.565,2.526,15.776,15.776,0,0,1-2.27-2.711,3.051,3.051,0,0,1-.452-1.166.982.982,0,0,1,.158-.683c.037-.065.073-.135.1-.2A2.187,2.187,0,0,0,45.686,60.8l-.079.176a5.314,5.314,0,0,0-.278,3.343,7.176,7.176,0,0,0,1.244,2.559A19.209,19.209,0,0,0,49.682,70a1.8,1.8,0,0,0-2.356,2.723C48.649,73.959,51.6,74.745,54.307,71.846Z" fill="none" stroke="#45413c" stroke-linecap="round" stroke-linejoin="round"></path><path d="M60.334 40.977 A4.381 4.381 0 1 0 69.096 40.977 A4.381 4.381 0 1 0 60.334 40.977 Z" fill="#ff866e" stroke="#45413c"></path><path d="M64.168 38.786 A1.095 1.095 0 1 0 66.358 38.786 A1.095 1.095 0 1 0 64.168 38.786 Z" fill="#ffcabf"></path><path d="M61.977 42.620 A1.095 1.095 0 1 0 64.167 42.620 A1.095 1.095 0 1 0 61.977 42.620 Z" fill="#ffcabf"></path><path d="M65.810 41.525 A0.548 0.548 0 1 0 66.906 41.525 A0.548 0.548 0 1 0 65.810 41.525 Z" fill="#ffcabf"></path><path d="M59.310 69.455 A4.381 4.381 0 1 0 68.072 69.455 A4.381 4.381 0 1 0 59.310 69.455 Z" fill="#ff866e" stroke="#45413c"></path><path d="M63.144 67.264 A1.095 1.095 0 1 0 65.334 67.264 A1.095 1.095 0 1 0 63.144 67.264 Z" fill="#ffcabf"></path><path d="M60.953 71.097 A1.095 1.095 0 1 0 63.143 71.097 A1.095 1.095 0 1 0 60.953 71.097 Z" fill="#ffcabf"></path><path d="M64.786 70.002 A0.548 0.548 0 1 0 65.882 70.002 A0.548 0.548 0 1 0 64.786 70.002 Z" fill="#ffcabf"></path><path d="M46.389,39.824a4.381,4.381,0,0,0-1.744-7.438Z" fill="#ff866e" stroke="#45413c" stroke-linecap="round" stroke-linejoin="round"></path><path d="M31.706 62.023 A4.381 4.381 0 1 0 40.468 62.023 A4.381 4.381 0 1 0 31.706 62.023 Z" fill="#ff866e" stroke="#45413c"></path><path d="M35.539 59.833 A1.095 1.095 0 1 0 37.729 59.833 A1.095 1.095 0 1 0 35.539 59.833 Z" fill="#ffcabf"></path><path d="M33.349 63.666 A1.095 1.095 0 1 0 35.539 63.666 A1.095 1.095 0 1 0 33.349 63.666 Z" fill="#ffcabf"></path><path d="M37.182 62.571 A0.548 0.548 0 1 0 38.278 62.571 A0.548 0.548 0 1 0 37.182 62.571 Z" fill="#ffcabf"></path><path d="M60.78,33.694a1.1,1.1,0,0,1-1.494.41.985.985,0,0,0-1.342.368.962.962,0,0,0-.084.213,1.092,1.092,0,0,1-1.144.784,1.231,1.231,0,0,0-1.186.618,1.248,1.248,0,0,0,.074,1.337,1.094,1.094,0,0,1-.091,1.383,1,1,0,0,0-.14.182.986.986,0,0,0,.369,1.342,1.1,1.1,0,1,1-1.084,1.9,3.177,3.177,0,0,1-1.229-4.255,3.418,3.418,0,0,1,2.654-4.664A3.179,3.179,0,0,1,60.37,32.2,1.094,1.094,0,0,1,60.78,33.694Z" fill="#6dd627" stroke="#45413c"></path><path d="M41.8,68.852a1.1,1.1,0,0,1-.736,1.363.985.985,0,0,0-.66,1.225,1.009,1.009,0,0,0,.095.208,1.093,1.093,0,0,1-.223,1.369A1.232,1.232,0,0,0,39.9,74.3a1.25,1.25,0,0,0,1.018.87,1.091,1.091,0,0,1,.937,1.021,1.034,1.034,0,0,0,.035.226.985.985,0,0,0,1.225.661,1.1,1.1,0,0,1,.628,2.1,3.179,3.179,0,0,1-3.926-2.051,3.418,3.418,0,0,1-1.538-5.141,3.178,3.178,0,0,1,2.155-3.87A1.094,1.094,0,0,1,41.8,68.852Z" fill="#6dd627" stroke="#45413c"></path><path d="M56.557,45.818a1.095,1.095,0,0,0-2.18.208A.987.987,0,0,1,53.49,47.1a.972.972,0,0,1-.228-.01,1.093,1.093,0,0,0-1.185.721,1.249,1.249,0,0,1-1.051.829,1.231,1.231,0,0,1-1.188-.616,1.09,1.09,0,0,0-1.3-.485.978.978,0,0,1-.223.053.9.9,0,0,1-.1,0L48.8,50.1a3.416,3.416,0,0,0,4.981-.834A3.178,3.178,0,0,0,56.557,45.818Z" fill="#ffe500" stroke="#45413c" stroke-linecap="round" stroke-linejoin="round"></path><path d="M18.263,26.818a2.194,2.194,0,0,0,1.415,2.874l3.076.928A29.077,29.077,0,0,1,43.917,10.747l-.734-3.129a2.19,2.19,0,0,0-2.777-1.594A34.59,34.59,0,0,0,18.263,26.818Z" fill="#f0d5a8"></path><path d="M19.608,29.669A32.369,32.369,0,0,1,43.165,7.547a2.191,2.191,0,0,0-2.76-1.523A34.59,34.59,0,0,0,18.263,26.818a2.192,2.192,0,0,0,1.345,2.851Z" fill="#debb7e"></path><path d="M22.754,30.62l27.794,8.391L43.917,10.747A29.077,29.077,0,0,0,22.754,30.62Z" fill="#fffce5"></path><path d="M48.392,29.821a3.851,3.851,0,0,1-.929-.685l-4.647-4.647A3.834,3.834,0,0,0,37.4,29.911l6.583,6.583a3.863,3.863,0,0,1,.554.7l6.016,1.816Z" fill="#ff6242"></path><path d="M22.754,30.62l2.1.634A26.88,26.88,0,0,1,44.418,12.88l-.5-2.133A29.077,29.077,0,0,0,22.754,30.62Z" fill="#fff48c"></path><path d="M18.263,26.818a2.194,2.194,0,0,0,1.415,2.874l3.076.928A29.077,29.077,0,0,1,43.917,10.747l-.734-3.129a2.19,2.19,0,0,0-2.777-1.594A34.59,34.59,0,0,0,18.263,26.818Z" fill="none" stroke="#45413c" stroke-linecap="round" stroke-linejoin="round"></path><path d="M30.3,32.9l3.972,1.2c.073-.174.139-.346.2-.515a19.3,19.3,0,0,0,.832-4.332,1.8,1.8,0,0,0,3.577.412c.275-1.789-.738-4.67-4.658-5.273s-5.752,1.842-6.027,3.632a1.8,1.8,0,0,0,3.532.7,15.747,15.747,0,0,1-.961,3.4A3.849,3.849,0,0,1,30.3,32.9Z" fill="#f0d5a8"></path><path d="M34.219,24.388c-3.92-.6-5.752,1.842-6.027,3.631a1.8,1.8,0,0,0,.173,1.087c.677-1.585,2.492-3.192,5.753-2.691,2.934.451,4.239,2.178,4.6,3.768a1.8,1.8,0,0,0,.163-.522C39.152,27.872,38.139,24.991,34.219,24.388Z" fill="#b89558"></path><path d="M30.3,32.9l3.972,1.2c.073-.174.139-.346.2-.515a19.3,19.3,0,0,0,.832-4.332,1.8,1.8,0,0,0,3.577.412c.275-1.789-.738-4.67-4.658-5.273s-5.752,1.842-6.027,3.632a1.8,1.8,0,0,0,3.532.7,15.747,15.747,0,0,1-.961,3.4A3.849,3.849,0,0,1,30.3,32.9Z" fill="none" stroke="#45413c" stroke-linecap="round" stroke-linejoin="round"></path><path d="M43.976,24.772a4.367,4.367,0,0,0,2.961-1.152l-1.745-7.439a4.381,4.381,0,1,0-1.216,8.591Z" fill="#ff866e"></path><path d="M43.429 18.200 A1.095 1.095 0 1 0 45.619 18.200 A1.095 1.095 0 1 0 43.429 18.200 Z" fill="#ffcabf"></path><path d="M41.238 22.034 A1.095 1.095 0 1 0 43.428 22.034 A1.095 1.095 0 1 0 41.238 22.034 Z" fill="#ffcabf"></path><path d="M45.071 20.939 A0.548 0.548 0 1 0 46.167 20.939 A0.548 0.548 0 1 0 45.071 20.939 Z" fill="#ffcabf"></path><path d="M43.976,24.772a4.367,4.367,0,0,0,2.961-1.152l-1.745-7.439a4.381,4.381,0,1,0-1.216,8.591Z" fill="none" stroke="#45413c"></path><path d="M48.76,31.39a.985.985,0,0,1-.969-.89,1.1,1.1,0,1,0-2.181.207,3.179,3.179,0,0,0,3.377,2.867,3.374,3.374,0,0,0,.362.325Z" fill="#ffe500" stroke="#45413c" stroke-linecap="round" stroke-linejoin="round"></path><path d="M22.754,30.62l27.794,8.391L43.917,10.747A29.077,29.077,0,0,0,22.754,30.62Z" fill="none" stroke="#45413c" stroke-linecap="round" stroke-linejoin="round"></path><path d="M18.158,27.2c.058-.238.105-.377.105-.377A2.228,2.228,0,0,0,18.158,27.2Z" fill="#fff48c" stroke="#45413c" stroke-linecap="round" stroke-linejoin="round"></path><path d="M19.678,29.692a2.193,2.193,0,0,1-1.52-2.5c-.284,1.179-.83,4.793,2.732,6.148l1.085.328a1.1,1.1,0,0,1,.779,1.049v7.029a1.643,1.643,0,0,0,3.286,0V37.1a1.623,1.623,0,0,1,1.57-1.656,1.577,1.577,0,0,1,1.579,1.577v8.564a1.643,1.643,0,0,0,3.286,0v-6.53a1.643,1.643,0,1,1,3.286,0v4.339a1.643,1.643,0,1,0,3.286,0V41.037a1.643,1.643,0,1,1,3.286,0V46.13a1.643,1.643,0,0,0,3.286,0V42.284a1.095,1.095,0,0,1,1.412-1.049l2.105.636a1.1,1.1,0,0,0,1.412-1.049V39.011Z" fill="#fff48c" stroke="#45413c" stroke-linecap="round" stroke-linejoin="round"></path></g></svg>