<svg width="160" height="160" viewBox="0 0 160 160" fill="none" xmlns="http://www.w3.org/2000/svg">
<path d="M21.8972 107.938C18.0538 99.117 16.4665 89.4779 17.2786 79.8903C18.0908 70.3026 21.2767 61.0679 26.5492 53.019C31.8216 44.9701 39.0147 38.3603 47.4796 33.7856C55.9446 29.211 65.4152 26.8154 75.0372 26.8149C84.6592 26.8145 94.13 29.2092 102.595 33.7831C111.061 38.357 118.254 44.9662 123.528 53.0146C128.801 61.063 131.988 70.2975 132.8 79.8851C133.613 89.4727 132.027 99.1118 128.184 107.933L21.8972 107.938Z" fill="#C7F0FF"/>
<path d="M21.9092 107.932C26.4213 118.269 33.8513 127.066 43.2886 133.244C52.7258 139.422 63.7604 142.713 75.04 142.713C86.3195 142.713 97.3541 139.422 106.791 133.244C116.229 127.066 123.659 118.269 128.171 107.932H21.9092Z" fill="#CCF7AD"/>
<path d="M18.522 107.932H131.56" stroke="#45413C" stroke-linecap="round" stroke-linejoin="round"/>
<path d="M12 107.932H15.6232" stroke="#45413C" stroke-linecap="round" stroke-linejoin="round"/>
<path d="M134.458 107.932H138.081" stroke="#45413C" stroke-linecap="round" stroke-linejoin="round"/>
<path d="M32.394 82.0444H107.475V117.641H32.394V82.0444Z" fill="#BF8256"/>
<path d="M32.394 82.0444H107.475V83.9212H32.394V82.0444Z" fill="#915E3A"/>
<path d="M32.394 82.0444H107.475V117.641H32.394V82.0444Z" stroke="#45413C" stroke-linecap="round" stroke-linejoin="round"/>
<path d="M32.394 33.2412H107.475V63.2732H32.394V33.2412Z" fill="#BF8256"/>
<path d="M32.394 33.2412H107.475V36.0564H32.394V33.2412Z" fill="#915E3A"/>
<path d="M32.394 33.2412H107.475V63.2732H32.394V33.2412Z" stroke="#45413C" stroke-linecap="round" stroke-linejoin="round"/>
<path d="M32.394 21.9795H107.475V30.4259H32.394V21.9795Z" fill="#BF8256"/>
<path d="M32.394 21.9795H107.475V24.7947H32.394V21.9795Z" fill="#915E3A"/>
<path d="M32.394 21.9795H107.475V30.4259H32.394V21.9795Z" stroke="#45413C" stroke-linecap="round" stroke-linejoin="round"/>
<path d="M108.605 82.0441H31.2612C31.0635 82.0441 30.8738 81.9655 30.734 81.8257C30.5942 81.6858 30.5156 81.4962 30.5156 81.2985V66.0889H109.35V81.2985C109.35 81.3963 109.331 81.4933 109.294 81.5837C109.256 81.6742 109.201 81.7564 109.132 81.8256C109.063 81.8949 108.981 81.9498 108.89 81.9873C108.8 82.0248 108.703 82.0441 108.605 82.0441V82.0441Z" fill="#BF8256"/>
<path d="M30.5156 66.0889H109.35V68.9041H30.5156V66.0889Z" fill="#915E3A"/>
<path d="M108.605 82.0441H31.2612C31.0635 82.0441 30.8738 81.9655 30.734 81.8257C30.5942 81.6858 30.5156 81.4962 30.5156 81.2985V66.0889H109.35V81.2985C109.35 81.3963 109.331 81.4933 109.294 81.5837C109.256 81.6742 109.201 81.7564 109.132 81.8256C109.063 81.8949 108.981 81.9498 108.89 81.9873C108.8 82.0248 108.703 82.0441 108.605 82.0441V82.0441Z" stroke="#45413C" stroke-linecap="round" stroke-linejoin="round"/>
<path d="M89.0672 79.228H50.8C50.2315 79.2281 49.6685 79.1162 49.1433 78.8987C48.6181 78.6812 48.1408 78.3623 47.7388 77.9603C47.3368 77.5584 47.018 77.0811 46.8005 76.5559C46.583 76.0306 46.4711 75.4677 46.4712 74.8992V72.7712C46.4712 71.7458 46.8785 70.7623 47.6036 70.0372C48.3287 69.3121 49.3122 68.9048 50.3376 68.9048H89.5296C90.555 68.9048 91.5385 69.3121 92.2635 70.0372C92.9886 70.7623 93.396 71.7458 93.396 72.7712V74.8992C93.3961 75.4677 93.2842 76.0306 93.0667 76.5559C92.8492 77.0811 92.5303 77.5584 92.1283 77.9603C91.7264 78.3623 91.2491 78.6812 90.7239 78.8987C90.1986 79.1162 89.6357 79.2281 89.0672 79.228V79.228Z" fill="white" stroke="#45413C" stroke-linecap="round" stroke-linejoin="round"/>
<path d="M33.8604 69.4326H43.1276V78.6998H33.8604V69.4326Z" fill="#B89558" stroke="#45413C" stroke-linecap="round" stroke-linejoin="round"/>
<path d="M35.5449 71.1172H41.4417V77.014H35.5449V71.1172Z" fill="#DEBB7E" stroke="#45413C" stroke-linecap="round" stroke-linejoin="round"/>
<path d="M96.7397 69.4326H106.007V78.6998H96.7397V69.4326Z" fill="#B89558" stroke="#45413C" stroke-linecap="round" stroke-linejoin="round"/>
<path d="M98.4243 71.1172H104.321V77.014H98.4243V71.1172Z" fill="#DEBB7E" stroke="#45413C" stroke-linecap="round" stroke-linejoin="round"/>
<path d="M28.6392 63.2734H111.228V66.0886H28.6392V63.2734Z" fill="#DEBB7E" stroke="#45413C" stroke-linecap="round" stroke-linejoin="round"/>
<path d="M28.6392 30.4253H111.228V33.2405H28.6392V30.4253Z" fill="#DEBB7E" stroke="#45413C" stroke-linecap="round" stroke-linejoin="round"/>
<path d="M30.5156 19.1636H109.35V21.9788H30.5156V19.1636Z" fill="#DEBB7E" stroke="#45413C" stroke-linecap="round" stroke-linejoin="round"/>
<path d="M28.6392 17.2871H111.228V20.1023H28.6392V17.2871Z" fill="#DEBB7E" stroke="#45413C" stroke-linecap="round" stroke-linejoin="round"/>
<path d="M51.2803 84.8589H37.9075C37.6896 84.8589 37.4807 84.9455 37.3266 85.0995C37.1725 85.2536 37.0859 85.4626 37.0859 85.6805L37.1491 117.644H52.1651L52.1019 85.6797C52.1019 85.5718 52.0807 85.465 52.0394 85.3654C51.9981 85.2658 51.9376 85.1752 51.8613 85.099C51.785 85.0228 51.6944 84.9623 51.5947 84.9211C51.495 84.8799 51.3882 84.8588 51.2803 84.8589Z" fill="#FF6242" stroke="#45413C" stroke-linecap="round" stroke-linejoin="round"/>
<path d="M39.9019 87.6743H49.2867V92.3671H39.9019V87.6743Z" fill="#4ACFFF"/>
<path d="M39.9019 87.6743V92.3671H43.0587L47.7515 87.6743H39.9019Z" fill="#80DDFF"/>
<path d="M39.9019 87.6743H49.2867V92.3671H39.9019V87.6743Z" stroke="#45413C" stroke-linecap="round" stroke-linejoin="round"/>
<path d="M39.9019 95.1826H43.6563V100.814H39.9019V95.1826Z" fill="#4ACFFF"/>
<path d="M39.9019 99.0698L43.6555 95.3154V95.1826H39.9019V99.0698Z" fill="#80DDFF"/>
<path d="M39.9019 95.1826H43.6563V100.814H39.9019V95.1826Z" stroke="#45413C" stroke-linecap="round" stroke-linejoin="round"/>
<path d="M39.9019 102.691H43.6563V108.322H39.9019V102.691Z" fill="#4ACFFF"/>
<path d="M39.9019 106.578L43.6555 102.824V102.691H39.9019V106.578Z" fill="#80DDFF"/>
<path d="M39.9019 102.691H43.6563V108.322H39.9019V102.691Z" stroke="#45413C" stroke-linecap="round" stroke-linejoin="round"/>
<path d="M39.9019 110.199H43.6563V115.83H39.9019V110.199Z" fill="#4ACFFF"/>
<path d="M39.9019 114.086L43.6555 110.332V110.199H39.9019V114.086Z" fill="#80DDFF"/>
<path d="M39.9019 110.199H43.6563V115.83H39.9019V110.199Z" stroke="#45413C" stroke-linecap="round" stroke-linejoin="round"/>
<path d="M45.5317 95.1826H49.2861V100.814H45.5317V95.1826Z" fill="#4ACFFF"/>
<path d="M45.5317 99.0698L49.2861 95.3154V95.1826H45.5317V99.0698Z" fill="#80DDFF"/>
<path d="M45.5317 95.1826H49.2861V100.814H45.5317V95.1826Z" stroke="#45413C" stroke-linecap="round" stroke-linejoin="round"/>
<path d="M45.5317 102.691H49.2861V108.322H45.5317V102.691Z" fill="#4ACFFF"/>
<path d="M45.5317 106.578L49.2861 102.824V102.691H45.5317V106.578Z" fill="#80DDFF"/>
<path d="M45.5317 102.691H49.2861V108.322H45.5317V102.691Z" stroke="#45413C" stroke-linecap="round" stroke-linejoin="round"/>
<path d="M45.5317 110.199H49.2861V115.83H45.5317V110.199Z" fill="#4ACFFF"/>
<path d="M45.5317 114.086L49.2861 110.332V110.199H45.5317V114.086Z" fill="#80DDFF"/>
<path d="M45.5317 110.199H49.2861V115.83H45.5317V110.199Z" stroke="#45413C" stroke-linecap="round" stroke-linejoin="round"/>
<path d="M58.6714 89.5513H100.904V114.891H58.6714V89.5513Z" fill="#4ACFFF"/>
<path d="M58.6714 89.5513V114.89H66.5746L91.9138 89.5513H58.6714Z" fill="#80DDFF"/>
<path d="M58.6714 89.5513H100.904V114.891H58.6714V89.5513Z" stroke="#45413C" stroke-linecap="round" stroke-linejoin="round"/>
<path d="M71.811 89.5513V114.89" stroke="#45413C" stroke-linecap="round" stroke-linejoin="round"/>
<path d="M87.7651 89.5513V114.89" stroke="#45413C" stroke-linecap="round" stroke-linejoin="round"/>
<path d="M58.6714 104.567H100.904" stroke="#45413C" stroke-linecap="round" stroke-linejoin="round"/>
<path d="M103.72 90.4907H55.856L57.4968 86.3883C57.5663 86.214 57.6865 86.0647 57.8418 85.9594C57.9971 85.8542 58.1804 85.7979 58.368 85.7979H101.207C101.395 85.7978 101.578 85.854 101.733 85.9593C101.889 86.0645 102.009 86.214 102.078 86.3883L103.72 90.4907Z" fill="#FFE500"/>
<path d="M102.594 87.6747L102.078 86.3883C102.009 86.214 101.889 86.0645 101.733 85.9593C101.578 85.854 101.395 85.7978 101.207 85.7979H58.368C58.1804 85.7979 57.9972 85.8542 57.8419 85.9594C57.6866 86.0647 57.5664 86.214 57.4968 86.3883L56.9824 87.6747H102.594Z" fill="#FFF48C"/>
<path d="M103.72 90.4907H55.856L57.4968 86.3883C57.5663 86.214 57.6865 86.0647 57.8418 85.9594C57.9971 85.8542 58.1804 85.7979 58.368 85.7979H101.207C101.395 85.7978 101.578 85.854 101.733 85.9593C101.889 86.0645 102.009 86.214 102.078 86.3883L103.72 90.4907Z" stroke="#45413C" stroke-linecap="round" stroke-linejoin="round"/>
<path d="M59.464 95.1835H58.2304C57.9185 95.1835 57.6097 95.122 57.3215 95.0027C57.0334 94.8833 56.7716 94.7083 56.5511 94.4877C56.3306 94.2672 56.1557 94.0053 56.0365 93.7172C55.9172 93.429 55.8559 93.1202 55.856 92.8083V90.4883H61.84V92.8083C61.84 93.1203 61.7785 93.4292 61.6591 93.7174C61.5397 94.0056 61.3646 94.2675 61.144 94.4881C60.9234 94.7086 60.6614 94.8836 60.3732 95.0029C60.0849 95.1222 59.7759 95.1836 59.464 95.1835V95.1835Z" fill="#EBCB00" stroke="#45413C" stroke-linecap="round" stroke-linejoin="round"/>
<path d="M65.4475 95.1835H64.2139C63.9021 95.1834 63.5934 95.1219 63.3053 95.0024C63.0173 94.883 62.7556 94.708 62.5352 94.4875C62.3148 94.2669 62.14 94.0051 62.0208 93.717C61.9015 93.4289 61.8402 93.1201 61.8403 92.8083V90.4883H67.8227V92.8083C67.8228 93.1202 67.7615 93.4291 67.6421 93.7173C67.5228 94.0056 67.3479 94.2675 67.1273 94.488C66.9067 94.7086 66.6448 94.8836 66.3566 95.0029C66.0684 95.1222 65.7595 95.1836 65.4475 95.1835V95.1835Z" fill="#EBCB00" stroke="#45413C" stroke-linecap="round" stroke-linejoin="round"/>
<path d="M71.4306 95.1835H70.197C69.567 95.1835 68.9629 94.9332 68.5175 94.4878C68.072 94.0424 67.8218 93.4382 67.8218 92.8083V90.4883H73.805V92.8083C73.8051 93.1202 73.7437 93.429 73.6245 93.7172C73.5052 94.0053 73.3303 94.2672 73.1098 94.4877C72.8893 94.7083 72.6275 94.8833 72.3394 95.0027C72.0513 95.122 71.7425 95.1835 71.4306 95.1835V95.1835Z" fill="#EBCB00" stroke="#45413C" stroke-linecap="round" stroke-linejoin="round"/>
<path d="M77.4132 95.1835H76.1796C75.8677 95.1835 75.5589 95.122 75.2708 95.0027C74.9826 94.8833 74.7208 94.7083 74.5003 94.4877C74.2798 94.2672 74.105 94.0053 73.9857 93.7172C73.8664 93.429 73.8051 93.1202 73.8052 92.8083V90.4883H79.7884V92.8083C79.7884 93.4382 79.5381 94.0424 79.0927 94.4878C78.6473 94.9332 78.0431 95.1835 77.4132 95.1835V95.1835Z" fill="#EBCB00" stroke="#45413C" stroke-linecap="round" stroke-linejoin="round"/>
<path d="M83.3956 95.1835H82.1595C81.8477 95.1835 81.5389 95.122 81.2507 95.0027C80.9626 94.8833 80.7008 94.7083 80.4803 94.4877C80.2598 94.2672 80.0849 94.0053 79.9657 93.7172C79.8464 93.429 79.7851 93.1202 79.7852 92.8083V90.4883H85.7675V92.8083C85.7678 93.4377 85.518 94.0415 85.0732 94.4869C84.6284 94.9323 84.025 95.1828 83.3956 95.1835V95.1835Z" fill="#EBCB00" stroke="#45413C" stroke-linecap="round" stroke-linejoin="round"/>
<path d="M89.3798 95.1835H88.1462C87.5163 95.1835 86.9121 94.9332 86.4667 94.4878C86.0212 94.0424 85.771 93.4382 85.771 92.8083V90.4883H91.7542V92.8083C91.7543 93.1202 91.693 93.429 91.5737 93.7172C91.4544 94.0053 91.2795 94.2672 91.059 94.4877C90.8385 94.7083 90.5768 94.8833 90.2886 95.0027C90.0005 95.122 89.6917 95.1835 89.3798 95.1835Z" fill="#EBCB00" stroke="#45413C" stroke-linecap="round" stroke-linejoin="round"/>
<path d="M95.3604 95.1835H94.1276C93.4977 95.1835 92.8936 94.9332 92.4481 94.4878C92.0027 94.0424 91.7524 93.4382 91.7524 92.8083V90.4883H97.7356V92.8083C97.7356 93.4382 97.4854 94.0424 97.04 94.4878C96.5945 94.9332 95.9904 95.1835 95.3604 95.1835V95.1835Z" fill="#EBCB00" stroke="#45413C" stroke-linecap="round" stroke-linejoin="round"/>
<path d="M101.345 95.1835H100.112C99.7998 95.1835 99.491 95.122 99.2029 95.0027C98.9148 94.8833 98.653 94.7083 98.4325 94.4877C98.212 94.2672 98.0371 94.0053 97.9178 93.7172C97.7985 93.429 97.7372 93.1202 97.7373 92.8083V90.4883H103.721V92.8083C103.721 93.4382 103.47 94.0424 103.025 94.4878C102.579 94.9332 101.975 95.1835 101.345 95.1835V95.1835Z" fill="#EBCB00" stroke="#45413C" stroke-linecap="round" stroke-linejoin="round"/>
<path d="M60.7203 107.287H58.9099C58.8519 107.281 58.7942 107.299 58.7493 107.336C58.7043 107.373 58.6758 107.426 58.6699 107.484V114.691C58.6756 114.749 58.7041 114.802 58.749 114.839C58.794 114.876 58.8519 114.894 58.9099 114.888H60.7203C60.7783 114.894 60.836 114.876 60.881 114.839C60.9259 114.802 60.9545 114.749 60.9603 114.691V107.484C60.9543 107.426 60.9257 107.373 60.8808 107.336C60.8359 107.299 60.7783 107.281 60.7203 107.287V107.287Z" fill="#00DFEB" stroke="#45413C" stroke-linecap="round" stroke-linejoin="round"/>
<path d="M63.0047 108.24H61.1951C61.1371 108.235 61.0794 108.253 61.0344 108.29C60.9895 108.327 60.9609 108.38 60.9551 108.438V114.694C60.9607 114.752 60.9892 114.805 61.0342 114.842C61.0792 114.879 61.1371 114.897 61.1951 114.891H63.0047C63.0627 114.897 63.1206 114.879 63.1656 114.842C63.2106 114.805 63.239 114.752 63.2447 114.694V108.438C63.2388 108.38 63.2103 108.327 63.1653 108.29C63.1204 108.253 63.0627 108.235 63.0047 108.24Z" fill="#9CEB60" stroke="#45413C" stroke-linecap="round" stroke-linejoin="round"/>
<path d="M65.5266 107.484C65.5208 107.426 65.4922 107.373 65.4473 107.336C65.4023 107.299 65.3446 107.281 65.2866 107.287H63.4802C63.4223 107.281 63.3645 107.299 63.3196 107.336C63.2746 107.373 63.2461 107.426 63.2402 107.484V114.691C63.2459 114.749 63.2744 114.802 63.3194 114.839C63.3644 114.876 63.4222 114.894 63.4802 114.888H65.289C65.347 114.894 65.4049 114.876 65.4499 114.839C65.4949 114.802 65.5234 114.749 65.529 114.691L65.5266 107.484Z" fill="#FFF48C" stroke="#45413C" stroke-linecap="round" stroke-linejoin="round"/>
<path d="M67.7522 107.289C67.73 107.234 67.6886 107.189 67.6356 107.162C67.5826 107.135 67.5217 107.129 67.4642 107.143L65.7042 107.502C65.6764 107.505 65.6495 107.513 65.6252 107.527C65.6009 107.541 65.5799 107.56 65.5634 107.583C65.547 107.606 65.5355 107.631 65.5297 107.659C65.5239 107.686 65.524 107.714 65.5298 107.742L67.593 114.741C67.6152 114.796 67.6567 114.841 67.7097 114.868C67.7627 114.894 67.8236 114.901 67.881 114.886L69.641 114.527C69.6689 114.525 69.6959 114.516 69.7203 114.502C69.7446 114.488 69.7657 114.469 69.7822 114.447C69.7986 114.424 69.8101 114.398 69.8159 114.371C69.8216 114.343 69.8214 114.315 69.8154 114.287L67.7522 107.289Z" fill="#F0F0F0" stroke="#45413C" stroke-linecap="round" stroke-linejoin="round"/>
<path d="M82.9599 107.287H81.1511C81.0932 107.281 81.0354 107.299 80.9905 107.336C80.9455 107.373 80.917 107.426 80.9111 107.484V114.691C80.9168 114.749 80.9453 114.802 80.9903 114.839C81.0353 114.876 81.0931 114.894 81.1511 114.888H82.9599C83.0179 114.894 83.0757 114.876 83.1206 114.839C83.1656 114.802 83.1941 114.749 83.1999 114.691V107.484C83.1939 107.426 83.1653 107.373 83.1204 107.336C83.0755 107.299 83.0179 107.281 82.9599 107.287V107.287Z" fill="#FF87AF" stroke="#45413C" stroke-linecap="round" stroke-linejoin="round"/>
<path d="M85.2417 108.24H83.4329C83.3749 108.235 83.3172 108.253 83.2722 108.29C83.2273 108.327 83.1987 108.38 83.1929 108.438V114.694C83.1985 114.752 83.227 114.805 83.272 114.842C83.317 114.879 83.3749 114.897 83.4329 114.891H85.2417C85.2997 114.897 85.3575 114.879 85.4025 114.842C85.4475 114.805 85.476 114.752 85.4817 114.694V108.438C85.4758 108.38 85.4473 108.327 85.4023 108.29C85.3574 108.253 85.2996 108.235 85.2417 108.24Z" fill="#9CEB60" stroke="#45413C" stroke-linecap="round" stroke-linejoin="round"/>
<path d="M87.7654 107.484C87.7595 107.426 87.731 107.373 87.686 107.336C87.6411 107.299 87.5833 107.281 87.5254 107.287H85.7166C85.6586 107.281 85.6008 107.299 85.5559 107.336C85.5109 107.373 85.4824 107.426 85.4766 107.484V114.691C85.4822 114.749 85.5107 114.802 85.5557 114.839C85.6007 114.876 85.6585 114.894 85.7166 114.888H87.5254C87.5834 114.894 87.6412 114.876 87.6862 114.839C87.7312 114.802 87.7597 114.749 87.7654 114.691V107.484Z" fill="black" stroke="#45413C" stroke-linecap="round" stroke-linejoin="round"/>
<path d="M73.8584 96.9658H72.0496C71.9915 96.9604 71.9336 96.9783 71.8886 97.0155C71.8437 97.0526 71.8152 97.1061 71.8096 97.1642V104.37C71.8152 104.428 71.8437 104.481 71.8886 104.518C71.9336 104.556 71.9915 104.574 72.0496 104.568H73.8584C73.9164 104.573 73.9742 104.555 74.0191 104.518C74.064 104.481 74.0925 104.428 74.0984 104.37V97.1642C74.0925 97.1062 74.064 97.0528 74.0191 97.0157C73.9742 96.9786 73.9164 96.9606 73.8584 96.9658V96.9658Z" fill="#E0E0E0" stroke="#45413C" stroke-linecap="round" stroke-linejoin="round"/>
<path d="M76.1421 97.9199H74.3333C74.2752 97.9145 74.2173 97.9324 74.1723 97.9696C74.1274 98.0067 74.0989 98.0602 74.0933 98.1183V104.373C74.0989 104.432 74.1274 104.485 74.1723 104.522C74.2173 104.559 74.2752 104.577 74.3333 104.572H76.1421C76.2002 104.577 76.258 104.559 76.303 104.522C76.348 104.485 76.3764 104.432 76.3821 104.373V98.1183C76.3764 98.0602 76.348 98.0067 76.303 97.9696C76.258 97.9324 76.2002 97.9145 76.1421 97.9199Z" fill="#9CEB60" stroke="#45413C" stroke-linecap="round" stroke-linejoin="round"/>
<path d="M78.6656 97.1642C78.66 97.1061 78.6315 97.0526 78.5866 97.0155C78.5416 96.9783 78.4837 96.9604 78.4256 96.9658H76.6184C76.5603 96.9604 76.5025 96.9783 76.4575 97.0155C76.4125 97.0526 76.3841 97.1061 76.3784 97.1642V104.37C76.3841 104.428 76.4125 104.481 76.4575 104.518C76.5025 104.556 76.5603 104.574 76.6184 104.568H78.428C78.4861 104.574 78.544 104.556 78.589 104.518C78.6339 104.481 78.6623 104.428 78.668 104.37L78.6656 97.1642Z" fill="#FF87AF" stroke="#45413C" stroke-linecap="round" stroke-linejoin="round"/>
<path d="M90.4648 107.29H88.656C88.598 107.284 88.5403 107.302 88.4953 107.339C88.4504 107.376 88.4219 107.429 88.416 107.487V114.694C88.4217 114.752 88.4501 114.805 88.4951 114.842C88.5401 114.879 88.598 114.897 88.656 114.891H90.4648C90.5228 114.896 90.5806 114.879 90.6255 114.842C90.6705 114.805 90.699 114.751 90.7048 114.694V107.487C90.6988 107.429 90.6702 107.376 90.6253 107.339C90.5804 107.302 90.5228 107.284 90.4648 107.29V107.29Z" fill="#00DFEB" stroke="#45413C" stroke-linecap="round" stroke-linejoin="round"/>
<path d="M92.75 108.24H90.9412C90.8832 108.235 90.8253 108.252 90.7803 108.289C90.7353 108.326 90.7068 108.38 90.7012 108.438V114.694C90.7068 114.752 90.7353 114.805 90.7803 114.842C90.8253 114.879 90.8832 114.897 90.9412 114.891H92.75C92.808 114.897 92.8659 114.879 92.9109 114.842C92.9559 114.805 92.9843 114.752 92.99 114.694V108.438C92.9843 108.38 92.9559 108.326 92.9109 108.289C92.8659 108.252 92.808 108.235 92.75 108.24V108.24Z" fill="#F0F0F0" stroke="#45413C" stroke-linecap="round" stroke-linejoin="round"/>
<path d="M95.2732 107.487C95.2673 107.429 95.2388 107.376 95.1938 107.339C95.1489 107.302 95.0911 107.284 95.0332 107.29H93.2244C93.1664 107.284 93.1087 107.302 93.0637 107.339C93.0188 107.376 92.9902 107.429 92.9844 107.487V114.694C92.99 114.752 93.0185 114.805 93.0635 114.842C93.1085 114.879 93.1664 114.897 93.2244 114.891H95.0332C95.0912 114.897 95.149 114.879 95.194 114.842C95.239 114.805 95.2675 114.752 95.2732 114.694V107.487Z" fill="#FFF48C" stroke="#45413C" stroke-linecap="round" stroke-linejoin="round"/>
<path d="M92.6287 96.9658H90.8191C90.761 96.9604 90.7031 96.9783 90.6582 97.0155C90.6132 97.0526 90.5848 97.1061 90.5791 97.1642V104.37C90.5848 104.428 90.6132 104.481 90.6582 104.518C90.7031 104.556 90.761 104.574 90.8191 104.568H92.6287C92.6868 104.574 92.7447 104.556 92.7896 104.518C92.8346 104.481 92.863 104.428 92.8687 104.37V97.1642C92.863 97.1061 92.8346 97.0526 92.7896 97.0155C92.7447 96.9783 92.6868 96.9604 92.6287 96.9658Z" fill="#00DFEB" stroke="#45413C" stroke-linecap="round" stroke-linejoin="round"/>
<path d="M94.9131 97.9199H93.1043C93.0462 97.9145 92.9883 97.9324 92.9433 97.9696C92.8984 98.0067 92.8699 98.0602 92.8643 98.1183V104.373C92.8699 104.432 92.8984 104.485 92.9433 104.522C92.9883 104.559 93.0462 104.577 93.1043 104.572H94.9131C94.9711 104.577 95.0289 104.559 95.0738 104.522C95.1187 104.485 95.1472 104.431 95.1531 104.373V98.1183C95.1472 98.0603 95.1187 98.007 95.0738 97.9698C95.0289 97.9327 94.9711 97.9147 94.9131 97.9199Z" fill="#FF87AF" stroke="#45413C" stroke-linecap="round" stroke-linejoin="round"/>
<path d="M97.4397 97.1642C97.434 97.1061 97.4056 97.0526 97.3606 97.0155C97.3156 96.9783 97.2578 96.9604 97.1997 96.9658H95.3909C95.3328 96.9604 95.2749 96.9783 95.2299 97.0155C95.185 97.0526 95.1566 97.1061 95.1509 97.1642V104.37C95.1566 104.428 95.185 104.481 95.2299 104.518C95.2749 104.556 95.3328 104.574 95.3909 104.568H97.1997C97.2578 104.574 97.3156 104.556 97.3606 104.518C97.4056 104.481 97.434 104.428 97.4397 104.37V97.1642Z" fill="#FFF48C" stroke="#45413C" stroke-linecap="round" stroke-linejoin="round"/>
<path d="M38.9629 24.7954H41.7781V27.6106H38.9629V24.7954Z" fill="#DEBB7E" stroke="#45413C" stroke-linecap="round" stroke-linejoin="round"/>
<path d="M47.4102 24.7954H50.2253V27.6106H47.4102V24.7954Z" fill="#DEBB7E" stroke="#45413C" stroke-linecap="round" stroke-linejoin="round"/>
<path d="M55.856 24.7954H58.6712V27.6106H55.856V24.7954Z" fill="#DEBB7E" stroke="#45413C" stroke-linecap="round" stroke-linejoin="round"/>
<path d="M64.3027 24.7954H67.1179V27.6106H64.3027V24.7954Z" fill="#DEBB7E" stroke="#45413C" stroke-linecap="round" stroke-linejoin="round"/>
<path d="M72.7485 24.7954H75.5637V27.6106H72.7485V24.7954Z" fill="#DEBB7E" stroke="#45413C" stroke-linecap="round" stroke-linejoin="round"/>
<path d="M81.1958 24.7954H84.011V27.6106H81.1958V24.7954Z" fill="#DEBB7E" stroke="#45413C" stroke-linecap="round" stroke-linejoin="round"/>
<path d="M89.6416 24.7954H92.4568V27.6106H89.6416V24.7954Z" fill="#DEBB7E" stroke="#45413C" stroke-linecap="round" stroke-linejoin="round"/>
<path d="M98.0889 24.7954H100.904V27.6106H98.0889V24.7954Z" fill="#DEBB7E" stroke="#45413C" stroke-linecap="round" stroke-linejoin="round"/>
<path d="M35.208 56.2471H55.8552V58.5807H35.208V56.2471Z" fill="#FFE500"/>
<path d="M54.9168 56.2471H36.1464C35.8975 56.2471 35.6588 56.3459 35.4829 56.5219C35.3069 56.6979 35.208 56.9366 35.208 57.1855V57.6423C35.2082 57.7643 35.2327 57.885 35.28 57.9975C35.3501 57.8252 35.47 57.6777 35.6243 57.5738C35.7786 57.4699 35.9604 57.4144 36.1464 57.4143H54.9168C55.1028 57.4145 55.2845 57.4701 55.4388 57.5739C55.5931 57.6778 55.713 57.8252 55.7832 57.9975C55.8305 57.885 55.855 57.7643 55.8552 57.6423V57.1855C55.8552 56.9366 55.7563 56.6979 55.5803 56.5219C55.4044 56.3459 55.1657 56.2471 54.9168 56.2471Z" fill="black"/>
<path d="M35.208 56.2471H55.8552V58.5807H35.208V56.2471Z" stroke="#45413C" stroke-linecap="round" stroke-linejoin="round"/>
<path d="M53.2339 37.9331H37.8307C37.7329 37.9331 37.6359 37.9524 37.5455 37.9899C37.4551 38.0274 37.373 38.0823 37.3038 38.1515C37.2346 38.2208 37.1798 38.303 37.1424 38.3934C37.105 38.4839 37.0858 38.5808 37.0859 38.6787V56.2467H53.9795V38.6787C53.9795 38.481 53.901 38.2913 53.7612 38.1515C53.6213 38.0117 53.4317 37.9331 53.2339 37.9331V37.9331Z" fill="#FFE500"/>
<path d="M37.0859 54.7515H53.9787V56.2475H37.0859V54.7515Z" fill="#EBCB00"/>
<path d="M53.2339 37.9331H37.8307C37.7329 37.9331 37.6359 37.9524 37.5455 37.9899C37.4551 38.0274 37.373 38.0823 37.3038 38.1515C37.2346 38.2208 37.1798 38.303 37.1424 38.3934C37.105 38.4839 37.0858 38.5808 37.0859 38.6787V56.2467H53.9795V38.6787C53.9795 38.481 53.901 38.2913 53.7612 38.1515C53.6213 38.0117 53.4317 37.9331 53.2339 37.9331V37.9331Z" stroke="#45413C" stroke-linecap="round" stroke-linejoin="round"/>
<path d="M38.9629 39.8115H44.5941V45.4427H38.9629V39.8115Z" fill="#4ACFFF"/>
<path d="M44.5941 39.8115H38.9629V45.4427H39.1101L44.5941 39.9587V39.8115Z" fill="#80DDFF"/>
<path d="M38.9629 39.8115H44.5941V45.4427H38.9629V39.8115Z" stroke="#45413C" stroke-linecap="round" stroke-linejoin="round"/>
<path d="M38.9629 48.2573H44.5941V53.8885H38.9629V48.2573Z" fill="#4ACFFF"/>
<path d="M44.5941 48.2573H38.9629V53.8885H39.1101L44.5941 48.4045V48.2573Z" fill="#80DDFF"/>
<path d="M38.9629 48.2573H44.5941V53.8885H38.9629V48.2573Z" stroke="#45413C" stroke-linecap="round" stroke-linejoin="round"/>
<path d="M46.4712 39.8115H52.1024V45.4427H46.4712V39.8115Z" fill="#4ACFFF"/>
<path d="M52.1016 39.8115H46.4712V45.4427H46.6176L52.1016 39.9587V39.8115Z" fill="#80DDFF"/>
<path d="M46.4712 39.8115H52.1024V45.4427H46.4712V39.8115Z" stroke="#45413C" stroke-linecap="round" stroke-linejoin="round"/>
<path d="M46.4712 48.2573H52.1024V53.8885H46.4712V48.2573Z" fill="#4ACFFF"/>
<path d="M52.1016 48.2573H46.4712V53.8885H46.6176L52.1016 48.4045V48.2573Z" fill="#80DDFF"/>
<path d="M46.4712 48.2573H52.1024V53.8885H46.4712V48.2573Z" stroke="#45413C" stroke-linecap="round" stroke-linejoin="round"/>
<path d="M59.6094 56.2471H80.2566V58.5807H59.6094V56.2471Z" fill="#FFE500"/>
<path d="M79.3182 56.2471H60.5486C60.2996 56.2471 60.0609 56.3459 59.8847 56.5219C59.7086 56.6978 59.6096 56.9365 59.6094 57.1855V57.6423C59.61 57.7642 59.6344 57.8849 59.6814 57.9975C59.7516 57.8251 59.8716 57.6776 60.0261 57.5737C60.1805 57.4698 60.3624 57.4143 60.5486 57.4143H79.3182C79.5043 57.4143 79.6862 57.4698 79.8407 57.5737C79.9951 57.6776 80.1151 57.8251 80.1854 57.9975C80.232 57.8848 80.2562 57.7642 80.2566 57.6423V57.1855C80.2566 56.9366 80.1577 56.6979 79.9817 56.5219C79.8057 56.3459 79.5671 56.2471 79.3182 56.2471Z" fill="black"/>
<path d="M59.6094 56.2471H80.2566V58.5807H59.6094V56.2471Z" stroke="#45413C" stroke-linecap="round" stroke-linejoin="round"/>
<path d="M77.6353 37.9331H62.2321C62.1342 37.9331 62.0373 37.9524 61.9469 37.9899C61.8565 38.0274 61.7743 38.0823 61.7052 38.1515C61.636 38.2208 61.5812 38.303 61.5438 38.3934C61.5064 38.4839 61.4872 38.5808 61.4873 38.6787V56.2467H78.3801V38.6787C78.3802 38.5808 78.361 38.4839 78.3236 38.3934C78.2863 38.303 78.2314 38.2208 78.1622 38.1515C78.0931 38.0823 78.0109 38.0274 77.9205 37.9899C77.8301 37.9524 77.7332 37.9331 77.6353 37.9331V37.9331Z" fill="#FFE500"/>
<path d="M61.4873 54.7515H78.3801V56.2475H61.4873V54.7515Z" fill="#EBCB00"/>
<path d="M77.6353 37.9331H62.2321C62.1342 37.9331 62.0373 37.9524 61.9469 37.9899C61.8565 38.0274 61.7743 38.0823 61.7052 38.1515C61.636 38.2208 61.5812 38.303 61.5438 38.3934C61.5064 38.4839 61.4872 38.5808 61.4873 38.6787V56.2467H78.3801V38.6787C78.3802 38.5808 78.361 38.4839 78.3236 38.3934C78.2863 38.303 78.2314 38.2208 78.1622 38.1515C78.0931 38.0823 78.0109 38.0274 77.9205 37.9899C77.8301 37.9524 77.7332 37.9331 77.6353 37.9331V37.9331Z" stroke="#45413C" stroke-linecap="round" stroke-linejoin="round"/>
<path d="M63.3638 39.8115H68.995V45.4427H63.3638V39.8115Z" fill="#4ACFFF"/>
<path d="M68.995 39.8115H63.3638V45.4427H63.511L68.995 39.9587V39.8115Z" fill="#80DDFF"/>
<path d="M63.3638 39.8115H68.995V45.4427H63.3638V39.8115Z" stroke="#45413C" stroke-linecap="round" stroke-linejoin="round"/>
<path d="M63.3638 48.2573H68.995V53.8885H63.3638V48.2573Z" fill="#4ACFFF"/>
<path d="M68.995 48.2573H63.3638V53.8885H63.511L68.995 48.4045V48.2573Z" fill="#80DDFF"/>
<path d="M63.3638 48.2573H68.995V53.8885H63.3638V48.2573Z" stroke="#45413C" stroke-linecap="round" stroke-linejoin="round"/>
<path d="M70.8721 39.8115H76.5033V45.4427H70.8721V39.8115Z" fill="#4ACFFF"/>
<path d="M76.5033 39.8115H70.8721V45.4427H71.0193L76.5033 39.9587V39.8115Z" fill="#80DDFF"/>
<path d="M70.8721 39.8115H76.5033V45.4427H70.8721V39.8115Z" stroke="#45413C" stroke-linecap="round" stroke-linejoin="round"/>
<path d="M70.8721 48.2573H76.5033V53.8885H70.8721V48.2573Z" fill="#4ACFFF"/>
<path d="M76.5033 48.2573H70.8721V53.8885H71.0193L76.5033 48.4045V48.2573Z" fill="#80DDFF"/>
<path d="M70.8721 48.2573H76.5033V53.8885H70.8721V48.2573Z" stroke="#45413C" stroke-linecap="round" stroke-linejoin="round"/>
<path d="M83.0728 56.2471H103.72V58.5807H83.0728V56.2471Z" fill="#FFE500"/>
<path d="M102.781 56.2471H84.0112C83.7623 56.2471 83.5236 56.3459 83.3476 56.5219C83.1716 56.6979 83.0728 56.9366 83.0728 57.1855V57.6423C83.0731 57.7642 83.0973 57.8848 83.144 57.9975C83.2142 57.8251 83.3342 57.6776 83.4887 57.5737C83.6431 57.4698 83.825 57.4143 84.0112 57.4143H102.781C102.967 57.4143 103.149 57.4698 103.303 57.5737C103.458 57.6776 103.578 57.8251 103.648 57.9975C103.695 57.8849 103.719 57.7642 103.72 57.6423V57.1855C103.72 56.9365 103.621 56.6978 103.445 56.5219C103.268 56.3459 103.03 56.2471 102.781 56.2471V56.2471Z" fill="black"/>
<path d="M83.0728 56.2471H103.72V58.5807H83.0728V56.2471Z" stroke="#45413C" stroke-linecap="round" stroke-linejoin="round"/>
<path d="M101.097 37.9331H85.694C85.5961 37.9331 85.4992 37.9524 85.4088 37.9899C85.3184 38.0274 85.2363 38.0823 85.1671 38.1515C85.0979 38.2208 85.0431 38.303 85.0057 38.3934C84.9683 38.4839 84.9491 38.5808 84.9492 38.6787V56.2467H101.84V38.6787C101.84 38.4814 101.762 38.2922 101.623 38.1524C101.483 38.0126 101.294 37.9337 101.097 37.9331V37.9331Z" fill="#FFE500"/>
<path d="M84.9492 54.7515H101.842V56.2475H84.9492V54.7515Z" fill="#EBCB00"/>
<path d="M101.097 37.9331H85.694C85.5961 37.9331 85.4992 37.9524 85.4088 37.9899C85.3184 38.0274 85.2363 38.0823 85.1671 38.1515C85.0979 38.2208 85.0431 38.303 85.0057 38.3934C84.9683 38.4839 84.9491 38.5808 84.9492 38.6787V56.2467H101.84V38.6787C101.84 38.4814 101.762 38.2922 101.623 38.1524C101.483 38.0126 101.294 37.9337 101.097 37.9331V37.9331Z" stroke="#45413C" stroke-linecap="round" stroke-linejoin="round"/>
<path d="M86.8262 39.8115H92.4574V45.4427H86.8262V39.8115Z" fill="#4ACFFF"/>
<path d="M92.4574 39.8115H86.8262V45.4427H86.9734L92.4574 39.9587V39.8115Z" fill="#80DDFF"/>
<path d="M86.8262 39.8115H92.4574V45.4427H86.8262V39.8115Z" stroke="#45413C" stroke-linecap="round" stroke-linejoin="round"/>
<path d="M86.8262 48.2573H92.4574V53.8885H86.8262V48.2573Z" fill="#4ACFFF"/>
<path d="M92.4574 48.2573H86.8262V53.8885H86.9734L92.4574 48.4045V48.2573Z" fill="#80DDFF"/>
<path d="M86.8262 48.2573H92.4574V53.8885H86.8262V48.2573Z" stroke="#45413C" stroke-linecap="round" stroke-linejoin="round"/>
<path d="M94.334 39.8115H99.9652V45.4427H94.334V39.8115Z" fill="#4ACFFF"/>
<path d="M99.9652 39.8115H94.334V45.4427H94.4812L99.9652 39.9587V39.8115Z" fill="#80DDFF"/>
<path d="M94.334 39.8115H99.9652V45.4427H94.334V39.8115Z" stroke="#45413C" stroke-linecap="round" stroke-linejoin="round"/>
<path d="M94.334 48.2573H99.9652V53.8885H94.334V48.2573Z" fill="#4ACFFF"/>
<path d="M99.9652 48.2573H94.334V53.8885H94.4812L99.9652 48.4045V48.2573Z" fill="#80DDFF"/>
<path d="M94.334 48.2573H99.9652V53.8885H94.334V48.2573Z" stroke="#45413C" stroke-linecap="round" stroke-linejoin="round"/>
<path d="M119.64 117.644V102.364C119.64 94.4382 125.516 84.9238 132.862 84.9238" stroke="#45413C" stroke-linecap="round" stroke-linejoin="round"/>
<path d="M103.449 84.9272C120.169 84.9272 119.71 108.477 119.618 117.647" stroke="#45413C" stroke-linecap="round" stroke-linejoin="round"/>
<path d="M132.836 100.778C132.276 102.353 131.394 103.793 130.246 105.007C129.098 106.221 127.709 107.182 126.168 107.829L119.64 110.469" stroke="#45413C" stroke-linecap="round" stroke-linejoin="round"/>
<path d="M143.949 73.864C143.748 73.8486 143.555 73.7747 143.396 73.6515C143.236 73.5282 143.116 73.361 143.05 73.1704C141.906 69.86 139.218 67.4904 135.512 67.4904C134.066 67.4946 132.653 67.9178 131.442 68.7088C131.306 68.797 131.15 68.8517 130.988 68.8684C130.826 68.885 130.663 68.8633 130.511 68.8048C130.359 68.7463 130.223 68.6528 130.114 68.5318C130.005 68.4109 129.926 68.2659 129.884 68.1088C128.547 63.176 124.357 59.564 119.352 59.564C114.257 59.564 110.012 63.3104 108.761 68.3824C108.72 68.545 108.641 68.6953 108.53 68.8206C108.419 68.9459 108.279 69.0423 108.122 69.1016C107.965 69.1609 107.797 69.1813 107.63 69.1611C107.464 69.1409 107.305 69.0807 107.167 68.9856C105.787 68.0164 104.143 67.4945 102.457 67.4904C100.502 67.5449 98.62 68.241 97.1003 69.4711C95.5805 70.7013 94.5077 72.3973 94.0472 74.2976C90.6472 72.5632 87.7648 75.6808 87.7648 78.5864C87.7204 79.8011 88.1595 80.9839 88.9858 81.8754C89.8121 82.7669 90.9582 83.2945 92.1728 83.3424C92.9259 83.3403 93.6637 83.1293 94.304 82.7328C94.5145 82.6041 94.7642 82.555 95.0078 82.5945C95.2514 82.634 95.4728 82.7593 95.632 82.948C96.139 83.5614 96.7741 84.0564 97.4928 84.3983C98.2114 84.7402 98.9962 84.9207 99.792 84.9272H135.512C137.365 84.9186 139.153 84.2381 140.542 83.012C140.699 82.8771 140.893 82.7921 141.098 82.7679C141.304 82.7437 141.512 82.7813 141.696 82.876C142.282 83.1818 142.932 83.3418 143.593 83.3424C144.761 83.2527 145.856 82.7363 146.668 81.8917C147.481 81.047 147.954 79.933 147.998 78.7619C148.042 77.5908 147.653 76.4445 146.907 75.5413C146.16 74.638 145.107 74.041 143.949 73.864V73.864Z" fill="#FFCCDD"/>
<path d="M146.88 81.7594C146.527 81.3091 146.085 80.9366 145.581 80.6651C145.078 80.3937 144.524 80.2291 143.953 80.1818C143.752 80.1659 143.56 80.0917 143.4 79.9684C143.24 79.8451 143.12 79.678 143.053 79.4874C142.548 77.8719 141.549 76.4553 140.197 75.4366C138.845 74.4178 137.208 73.8481 135.516 73.8074C134.07 73.8116 132.656 74.2348 131.446 75.0258C131.309 75.1138 131.154 75.1684 130.992 75.185C130.83 75.2017 130.667 75.1799 130.515 75.1216C130.363 75.0632 130.227 74.9698 130.118 74.8491C130.009 74.7283 129.93 74.5836 129.888 74.4266C128.551 69.493 124.361 65.881 119.356 65.881C114.261 65.881 110.016 69.6274 108.765 74.6994C108.724 74.862 108.645 75.0123 108.534 75.1376C108.423 75.2629 108.283 75.3593 108.126 75.4187C107.97 75.478 107.801 75.4984 107.635 75.4782C107.469 75.458 107.31 75.3977 107.172 75.3026C105.791 74.3338 104.147 73.8119 102.461 73.8074C100.68 73.8471 98.9527 74.4267 97.5084 75.4696C96.0642 76.5125 94.9706 77.9693 94.3726 79.6474C94.2812 79.8831 94.1065 80.0771 93.8817 80.1928C93.657 80.3085 93.3976 80.3379 93.1526 80.2754C92.3748 80.0894 91.5599 80.1305 90.8047 80.394C90.0496 80.6575 89.3859 81.1322 88.8926 81.7618C88.1598 80.8677 87.7622 79.7458 87.7686 78.5898C87.7686 75.2474 91.0062 72.7498 94.051 74.301C94.5115 72.4007 95.5844 70.7047 97.1041 69.4746C98.6239 68.2444 100.506 67.5483 102.461 67.4938C104.147 67.4979 105.791 68.0199 107.171 68.989C107.309 69.0843 107.468 69.1447 107.634 69.165C107.801 69.1853 107.969 69.1649 108.126 69.1056C108.283 69.0463 108.423 68.9498 108.534 68.8244C108.645 68.699 108.724 68.5485 108.765 68.3858C110.016 63.3138 114.261 59.5674 119.356 59.5674C124.361 59.5674 128.551 63.1794 129.888 68.1122C129.93 68.2691 130.009 68.4139 130.118 68.5346C130.227 68.6554 130.363 68.7487 130.515 68.8072C130.667 68.8656 130.83 68.8875 130.992 68.871C131.154 68.8544 131.309 68.8001 131.446 68.7122C132.656 67.9212 134.07 67.498 135.516 67.4938C137.208 67.5345 138.845 68.1042 140.197 69.123C141.549 70.1417 142.548 71.5583 143.053 73.1738C143.12 73.3643 143.24 73.5313 143.4 73.6546C143.559 73.7779 143.752 73.8521 143.953 73.8682C145.097 74.003 146.149 74.5632 146.899 75.4376C147.65 76.312 148.044 77.4366 148.004 78.5882C148.011 79.744 147.613 80.8658 146.88 81.7594V81.7594Z" fill="#FFE5EE"/>
<path d="M143.949 73.864C143.748 73.8486 143.555 73.7747 143.396 73.6515C143.236 73.5282 143.116 73.361 143.05 73.1704C141.906 69.86 139.218 67.4904 135.512 67.4904C134.066 67.4946 132.653 67.9178 131.442 68.7088C131.306 68.797 131.15 68.8517 130.988 68.8684C130.826 68.885 130.663 68.8633 130.511 68.8048C130.359 68.7463 130.223 68.6528 130.114 68.5318C130.005 68.4109 129.926 68.2659 129.884 68.1088C128.547 63.176 124.357 59.564 119.352 59.564C114.257 59.564 110.012 63.3104 108.761 68.3824C108.72 68.545 108.641 68.6953 108.53 68.8206C108.419 68.9459 108.279 69.0423 108.122 69.1016C107.965 69.1609 107.797 69.1813 107.63 69.1611C107.464 69.1409 107.305 69.0807 107.167 68.9856C105.787 68.0164 104.143 67.4945 102.457 67.4904C100.502 67.5449 98.62 68.241 97.1003 69.4711C95.5805 70.7013 94.5077 72.3973 94.0472 74.2976C90.6472 72.5632 87.7648 75.6808 87.7648 78.5864C87.7204 79.8011 88.1595 80.9839 88.9858 81.8754C89.8121 82.7669 90.9582 83.2945 92.1728 83.3424C92.9259 83.3403 93.6637 83.1293 94.304 82.7328C94.5145 82.6041 94.7642 82.555 95.0078 82.5945C95.2514 82.634 95.4728 82.7593 95.632 82.948C96.139 83.5614 96.7741 84.0564 97.4928 84.3983C98.2114 84.7402 98.9962 84.9207 99.792 84.9272H135.512C137.365 84.9186 139.153 84.2381 140.542 83.012C140.699 82.8771 140.893 82.7921 141.098 82.7679C141.304 82.7437 141.512 82.7813 141.696 82.876C142.282 83.1818 142.932 83.3418 143.593 83.3424C144.761 83.2527 145.856 82.7363 146.668 81.8917C147.481 81.047 147.954 79.933 147.998 78.7619C148.042 77.5908 147.653 76.4445 146.907 75.5413C146.16 74.638 145.107 74.041 143.949 73.864V73.864Z" stroke="#45413C" stroke-linecap="round" stroke-linejoin="round"/>
<path d="M128.205 100.779C127.714 100.132 127.443 99.3449 127.432 98.533C127.397 97.5882 127.739 96.6683 128.381 95.9749C129.024 95.2814 129.915 94.8711 130.86 94.8338C131.37 94.8348 131.871 94.9612 132.32 95.2018C132.548 95.3227 132.813 95.354 133.063 95.2894C133.312 95.2249 133.529 95.0692 133.67 94.853C134.074 94.2077 134.634 93.6743 135.298 93.3017C135.963 92.9291 136.71 92.7291 137.471 92.7202C138.753 92.771 139.963 93.3279 140.835 94.2689C141.707 95.2099 142.17 96.4582 142.123 97.7402C142.124 98.8301 141.784 99.8929 141.151 100.78L128.205 100.779Z" fill="#FFCCDD"/>
<path d="M142.058 98.5434C141.694 97.7654 141.119 97.105 140.399 96.637C139.678 96.169 138.841 95.9121 137.982 95.8954C137.221 95.9042 136.474 96.104 135.81 96.4765C135.146 96.849 134.586 97.3823 134.181 98.0274C134.04 98.2436 133.824 98.3993 133.574 98.464C133.324 98.5287 133.059 98.4977 132.831 98.377C132.382 98.1362 131.881 98.0095 131.371 98.0082C130.614 98.0293 129.885 98.2978 129.296 98.7728C128.706 99.2477 128.288 99.9028 128.106 100.638C127.675 100.02 127.44 99.2865 127.432 98.533C127.397 97.5882 127.739 96.6683 128.381 95.9749C129.024 95.2814 129.915 94.8711 130.86 94.8338C131.37 94.8348 131.871 94.9612 132.32 95.2018C132.548 95.3227 132.813 95.354 133.063 95.2894C133.312 95.2249 133.529 95.0692 133.67 94.853C134.074 94.2077 134.634 93.6743 135.298 93.3017C135.963 92.9291 136.71 92.7291 137.471 92.7202C138.753 92.771 139.963 93.3279 140.835 94.2689C141.707 95.2099 142.17 96.4582 142.123 97.7402C142.123 98.0081 142.103 98.2755 142.062 98.5402" fill="#FFE5EE"/>
<path d="M128.205 100.779C127.714 100.132 127.443 99.3449 127.432 98.533C127.397 97.5882 127.739 96.6683 128.381 95.9749C129.024 95.2814 129.915 94.8711 130.86 94.8338C131.37 94.8348 131.871 94.9612 132.32 95.2018C132.548 95.3227 132.813 95.354 133.063 95.2894C133.312 95.2249 133.529 95.0692 133.67 94.853C134.074 94.2077 134.634 93.6743 135.298 93.3017C135.963 92.9291 136.71 92.7291 137.471 92.7202C138.753 92.771 139.963 93.3279 140.835 94.2689C141.707 95.2099 142.17 96.4582 142.123 97.7402C142.124 98.8301 141.784 99.8929 141.151 100.78L128.205 100.779Z" stroke="#45413C" stroke-linecap="round" stroke-linejoin="round"/>
<path d="M55.0358 73.62C55.0358 73.8233 54.9891 74.01 54.8958 74.18C54.8024 74.3467 54.6591 74.4817 54.4658 74.585C54.2724 74.6883 54.0324 74.74 53.7458 74.74H53.2158V76H52.3608V72.49H53.7458C54.0258 72.49 54.2624 72.5383 54.4558 72.635C54.6491 72.7317 54.7941 72.865 54.8908 73.035C54.9874 73.205 55.0358 73.4 55.0358 73.62ZM53.6808 74.06C53.8441 74.06 53.9658 74.0217 54.0458 73.945C54.1258 73.8683 54.1658 73.76 54.1658 73.62C54.1658 73.48 54.1258 73.3717 54.0458 73.295C53.9658 73.2183 53.8441 73.18 53.6808 73.18H53.2158V74.06H53.6808ZM57.3909 76.035C57.0609 76.035 56.7576 75.9583 56.4809 75.805C56.2076 75.6517 55.9892 75.4383 55.8259 75.165C55.6659 74.8883 55.5859 74.5783 55.5859 74.235C55.5859 73.8917 55.6659 73.5833 55.8259 73.31C55.9892 73.0367 56.2076 72.8233 56.4809 72.67C56.7576 72.5167 57.0609 72.44 57.3909 72.44C57.7209 72.44 58.0226 72.5167 58.2959 72.67C58.5726 72.8233 58.7892 73.0367 58.9459 73.31C59.1059 73.5833 59.1859 73.8917 59.1859 74.235C59.1859 74.5783 59.1059 74.8883 58.9459 75.165C58.7859 75.4383 58.5692 75.6517 58.2959 75.805C58.0226 75.9583 57.7209 76.035 57.3909 76.035ZM57.3909 75.255C57.6709 75.255 57.8942 75.1617 58.0609 74.975C58.2309 74.7883 58.3159 74.5417 58.3159 74.235C58.3159 73.925 58.2309 73.6783 58.0609 73.495C57.8942 73.3083 57.6709 73.215 57.3909 73.215C57.1076 73.215 56.8809 73.3067 56.7109 73.49C56.5442 73.6733 56.4609 73.9217 56.4609 74.235C56.4609 74.545 56.5442 74.7933 56.7109 74.98C56.8809 75.1633 57.1076 75.255 57.3909 75.255ZM60.7666 73.175V73.885H61.9116V74.545H60.7666V75.315H62.0616V76H59.9116V72.49H62.0616V73.175H60.7666ZM65.3916 72.49V73.175H64.4616V76H63.6066V73.175H62.6766V72.49H65.3916ZM67.8607 76L67.1307 74.675H66.9257V76H66.0707V72.49H67.5057C67.7824 72.49 68.0174 72.5383 68.2107 72.635C68.4074 72.7317 68.5541 72.865 68.6507 73.035C68.7474 73.2017 68.7957 73.3883 68.7957 73.595C68.7957 73.8283 68.7291 74.0367 68.5957 74.22C68.4657 74.4033 68.2724 74.5333 68.0157 74.61L68.8257 76H67.8607ZM66.9257 74.07H67.4557C67.6124 74.07 67.7291 74.0317 67.8057 73.955C67.8857 73.8783 67.9257 73.77 67.9257 73.63C67.9257 73.4967 67.8857 73.3917 67.8057 73.315C67.7291 73.2383 67.6124 73.2 67.4557 73.2H66.9257V74.07ZM72.5925 72.49L71.3775 74.84V76H70.5225V74.84L69.3075 72.49H70.2775L70.9575 73.96L71.6325 72.49H72.5925ZM74.3515 74.24C74.3515 73.8933 74.4265 73.585 74.5765 73.315C74.7265 73.0417 74.9349 72.83 75.2015 72.68C75.4715 72.5267 75.7765 72.45 76.1165 72.45C76.5332 72.45 76.8899 72.56 77.1865 72.78C77.4832 73 77.6815 73.3 77.7815 73.68H76.8415C76.7715 73.5333 76.6715 73.4217 76.5415 73.345C76.4149 73.2683 76.2699 73.23 76.1065 73.23C75.8432 73.23 75.6299 73.3217 75.4665 73.505C75.3032 73.6883 75.2215 73.9333 75.2215 74.24C75.2215 74.5467 75.3032 74.7917 75.4665 74.975C75.6299 75.1583 75.8432 75.25 76.1065 75.25C76.2699 75.25 76.4149 75.2117 76.5415 75.135C76.6715 75.0583 76.7715 74.9467 76.8415 74.8H77.7815C77.6815 75.18 77.4832 75.48 77.1865 75.7C76.8899 75.9167 76.5332 76.025 76.1165 76.025C75.7765 76.025 75.4715 75.95 75.2015 75.8C74.9349 75.6467 74.7265 75.435 74.5765 75.165C74.4265 74.895 74.3515 74.5867 74.3515 74.24ZM79.4101 75.34H80.5301V76H78.5551V72.49H79.4101V75.34ZM82.0279 72.49V74.59C82.0279 74.8 82.0796 74.9617 82.1829 75.075C82.2863 75.1883 82.4379 75.245 82.6379 75.245C82.8379 75.245 82.9913 75.1883 83.0979 75.075C83.2046 74.9617 83.2579 74.8 83.2579 74.59V72.49H84.1129V74.585C84.1129 74.8983 84.0463 75.1633 83.9129 75.38C83.7796 75.5967 83.5996 75.76 83.3729 75.87C83.1496 75.98 82.8996 76.035 82.6229 76.035C82.3463 76.035 82.0979 75.9817 81.8779 75.875C81.6613 75.765 81.4896 75.6017 81.3629 75.385C81.2363 75.165 81.1729 74.8983 81.1729 74.585V72.49H82.0279ZM87.0883 74.2C87.2917 74.2433 87.455 74.345 87.5783 74.505C87.7017 74.6617 87.7633 74.8417 87.7633 75.045C87.7633 75.3383 87.66 75.5717 87.4533 75.745C87.25 75.915 86.965 76 86.5983 76H84.9633V72.49H86.5433C86.9 72.49 87.1783 72.5717 87.3783 72.735C87.5817 72.8983 87.6833 73.12 87.6833 73.4C87.6833 73.6067 87.6283 73.7783 87.5183 73.915C87.4117 74.0517 87.2683 74.1467 87.0883 74.2ZM85.8183 73.91H86.3783C86.5183 73.91 86.625 73.88 86.6983 73.82C86.775 73.7567 86.8133 73.665 86.8133 73.545C86.8133 73.425 86.775 73.3333 86.6983 73.27C86.625 73.2067 86.5183 73.175 86.3783 73.175H85.8183V73.91ZM86.4483 75.31C86.5917 75.31 86.7017 75.2783 86.7783 75.215C86.8583 75.1483 86.8983 75.0533 86.8983 74.93C86.8983 74.8067 86.8567 74.71 86.7733 74.64C86.6933 74.57 86.5817 74.535 86.4383 74.535H85.8183V75.31H86.4483Z" fill="#45413C"/>
</svg>
