<svg width="160" height="160" fill="none" xmlns="http://www.w3.org/2000/svg" xmlns:xlink="http://www.w3.org/1999/xlink">
  <defs>
    <path id="left" d="M 0 21 l 0 -16 t 5 -5 l 12 0 t 5 5 l 0 6" stroke="#30e" stroke-width="3"/>
    <path id="inner" d="M 0 11 l 0 -6 t 5 -5 l 12 0 t 5 5 l 0 6" stroke="#30e" stroke-width="3"/>
    <path id="right" d="M 0 11 l 0 -6 t 5 -5 l 12 0 t 5 5 l 0 16" stroke="#30e" stroke-width="3"/>
    <path id="egg" d="M -5 6 C -7 21 7 21 5 6 C 3 1 -3 1 -5 6" stroke="#b65" stroke-width="3"/>
  </defs>
  <circle cx="80" cy="80" r="80" fill="#C7F0FF"/>

  <use xlink:href="#left" transform="translate(3,70)"/>
  <use xlink:href="#inner" transform="translate(25,70)"/>
  <use xlink:href="#inner" transform="translate(47,70)"/>
  <use xlink:href="#inner" transform="translate(69,70)"/>
  <use xlink:href="#inner" transform="translate(91,70)"/>
  <use xlink:href="#inner" transform="translate(113,70)"/>
  <use xlink:href="#right" transform="translate(135,70)"/>

  <use xlink:href="#egg" transform="translate(14,75)"/>
  <use xlink:href="#egg" transform="translate(58,75)"/>
  <use xlink:href="#egg" transform="translate(80,75)"/>
  <use xlink:href="#egg" transform="translate(146,75)"/>
</svg>
