<svg width="160" height="160" viewBox="0 0 160 160" fill="none" xmlns="http://www.w3.org/2000/svg">
<g clip-path="url(#clip0)">
<path d="M16 80C16 96.9739 22.7428 113.253 34.7452 125.255C46.7475 137.257 63.0261 144 80 144C96.9739 144 113.253 137.257 125.255 125.255C137.257 113.253 144 96.9739 144 80C144 63.0261 137.257 46.7475 125.255 34.7452C113.253 22.7428 96.9739 16 80 16C63.0261 16 46.7475 22.7428 34.7452 34.7452C22.7428 46.7475 16 63.0261 16 80V80Z" fill="#C7F0FF"/>
<path d="M11.6469 74V42.704H22.7349C24.4309 42.704 26.0149 42.88 27.4869 43.232C28.9909 43.552 30.2869 44.112 31.3749 44.912C32.4949 45.68 33.3749 46.72 34.0149 48.032C34.6549 49.312 34.9749 50.896 34.9749 52.784C34.9749 54.608 34.6389 56.192 33.9669 57.536C33.3269 58.88 32.4469 59.984 31.3269 60.848C30.2069 61.712 28.9109 62.352 27.4389 62.768C25.9669 63.184 24.3989 63.392 22.7349 63.392H18.7029V74H11.6469ZM18.7029 57.776H22.3029C26.1429 57.776 28.0629 56.112 28.0629 52.784C28.0629 51.152 27.5669 50 26.5749 49.328C25.6149 48.656 24.1909 48.32 22.3029 48.32H18.7029V57.776ZM42.3961 74V50.192H48.1561L48.7321 55.376H48.8761C50.0601 53.424 51.4841 51.984 53.1481 51.056C54.8121 50.096 56.6041 49.616 58.5241 49.616C59.5801 49.616 60.4281 49.696 61.0681 49.856C61.7401 50.016 62.4281 50.256 63.1321 50.576L61.6921 56.48C60.9561 56.256 60.2841 56.096 59.6761 56C59.1001 55.872 58.3641 55.808 57.4681 55.808C55.9961 55.808 54.5401 56.24 53.1001 57.104C51.6921 57.968 50.4761 59.472 49.4521 61.616V74H42.3961ZM78.9534 74V55.712H69.4014V50.192H86.0094V74H78.9534ZM82.1694 46.448C80.7934 46.448 79.6574 46.064 78.7614 45.296C77.8974 44.528 77.4654 43.488 77.4654 42.176C77.4654 40.864 77.8974 39.808 78.7614 39.008C79.6574 38.176 80.7934 37.76 82.1694 37.76C83.5454 37.76 84.6654 38.176 85.5294 39.008C86.4254 39.808 86.8734 40.864 86.8734 42.176C86.8734 43.488 86.4254 44.528 85.5294 45.296C84.6654 46.064 83.5454 46.448 82.1694 46.448ZM96.0706 74V50.192H101.399L101.879 53.12H102.071C102.519 52.16 103.143 51.344 103.943 50.672C104.743 49.968 105.831 49.616 107.207 49.616C108.231 49.616 109.095 49.952 109.799 50.624C110.535 51.264 111.047 52.224 111.335 53.504C111.783 52.416 112.423 51.504 113.255 50.768C114.119 50 115.239 49.616 116.615 49.616C118.343 49.616 119.655 50.304 120.551 51.68C121.479 53.024 121.943 54.896 121.943 57.296V74H115.223V57.776C115.223 57.04 115.127 56.496 114.935 56.144C114.743 55.792 114.407 55.616 113.927 55.616C113.479 55.616 113.095 55.808 112.775 56.192C112.455 56.576 112.119 57.152 111.767 57.92V74H106.247V57.776C106.247 56.336 105.799 55.616 104.903 55.616C104.455 55.616 104.071 55.808 103.751 56.192C103.431 56.576 103.111 57.152 102.791 57.92V74H96.0706ZM139.012 74.576C137.156 74.576 135.412 74.304 133.78 73.76C132.18 73.184 130.788 72.368 129.604 71.312C128.42 70.256 127.492 68.96 126.82 67.424C126.148 65.856 125.812 64.08 125.812 62.096C125.812 60.144 126.148 58.4 126.82 56.864C127.524 55.296 128.452 53.984 129.604 52.928C130.756 51.84 132.068 51.024 133.54 50.48C135.044 49.904 136.596 49.616 138.196 49.616C140.02 49.616 141.636 49.904 143.044 50.48C144.452 51.056 145.62 51.856 146.548 52.88C147.508 53.904 148.228 55.12 148.708 56.528C149.188 57.904 149.428 59.408 149.428 61.04C149.428 61.68 149.38 62.304 149.284 62.912C149.22 63.488 149.156 63.92 149.092 64.208H132.868C133.22 65.936 134.004 67.2 135.22 68C136.436 68.8 138.02 69.2 139.972 69.2C141.06 69.2 142.084 69.056 143.044 68.768C144.036 68.48 145.06 68.064 146.116 67.52L148.468 71.792C147.092 72.656 145.572 73.344 143.908 73.856C142.244 74.336 140.612 74.576 139.012 74.576ZM138.436 54.992C137.028 54.992 135.844 55.36 134.884 56.096C133.956 56.832 133.316 57.952 132.964 59.456H143.14C142.788 56.48 141.22 54.992 138.436 54.992Z" fill="url(#paint0_linear)"/>
<path d="M4.57469 118V102.76H-0.665312V98.4L4.57469 98.16V97.64C4.57469 96.4933 4.74802 95.4267 5.09469 94.44C5.44135 93.4533 5.97469 92.6 6.69469 91.88C7.41469 91.1333 8.33469 90.5467 9.45469 90.12C10.5747 89.6933 11.908 89.48 13.4547 89.48C14.6014 89.48 15.668 89.5867 16.6547 89.8C17.668 90.0133 18.6014 90.2667 19.4547 90.56L18.3347 94.88C17.028 94.3733 15.6414 94.12 14.1747 94.12C12.8947 94.12 11.948 94.4 11.3347 94.96C10.748 95.52 10.4547 96.4 10.4547 97.6V98.16H17.2947V102.76H10.4547V118H4.57469ZM28.9991 118.48C27.9857 118.48 27.0791 118.32 26.2791 118C25.4791 117.707 24.7991 117.293 24.2391 116.76C23.6791 116.2 23.2391 115.56 22.9191 114.84C22.6257 114.12 22.4791 113.333 22.4791 112.48C22.4791 111.36 22.7191 110.387 23.1991 109.56C23.6791 108.707 24.4391 107.987 25.4791 107.4C26.5457 106.813 27.9057 106.347 29.5591 106C31.2124 105.627 33.2124 105.373 35.5591 105.24C35.4524 104.333 35.0524 103.627 34.3591 103.12C33.6924 102.613 32.6791 102.36 31.3191 102.36C30.3591 102.36 29.3857 102.533 28.3991 102.88C27.4391 103.2 26.3991 103.64 25.2791 104.2L23.1991 100.36C24.5591 99.5867 26.0124 98.9467 27.5591 98.44C29.1324 97.9333 30.7724 97.68 32.4791 97.68C35.2524 97.68 37.4391 98.4133 39.0391 99.88C40.6391 101.347 41.4391 103.6 41.4391 106.64V118H36.6391L36.1991 115.76H36.0391C35.0257 116.533 33.9191 117.187 32.7191 117.72C31.5191 118.227 30.2791 118.48 28.9991 118.48ZM30.8791 113.92C31.7591 113.92 32.5857 113.747 33.3591 113.4C34.1324 113.027 34.8657 112.573 35.5591 112.04V108.76C34.0924 108.84 32.8791 108.973 31.9191 109.16C30.9591 109.347 30.1991 109.587 29.6391 109.88C29.0791 110.147 28.6791 110.467 28.4391 110.84C28.2257 111.213 28.1191 111.613 28.1191 112.04C28.1191 112.68 28.3591 113.16 28.8391 113.48C29.3457 113.773 30.0257 113.92 30.8791 113.92ZM57.7434 118.48C56.1701 118.48 54.7168 118.253 53.3834 117.8C52.0501 117.32 50.8768 116.64 49.8634 115.76C48.8768 114.88 48.1034 113.8 47.5434 112.52C46.9834 111.213 46.7034 109.733 46.7034 108.08C46.7034 106.427 47.0101 104.96 47.6234 103.68C48.2634 102.373 49.1034 101.28 50.1434 100.4C51.2101 99.52 52.4368 98.8533 53.8234 98.4C55.2101 97.92 56.6634 97.68 58.1834 97.68C59.7568 97.68 61.1701 97.9333 62.4234 98.44C63.7034 98.9467 64.7701 99.5867 65.6234 100.36L62.9034 104C61.4368 102.96 59.9701 102.44 58.5034 102.44C56.7968 102.44 55.4101 102.947 54.3434 103.96C53.2768 104.973 52.7434 106.347 52.7434 108.08C52.7434 109.813 53.2501 111.187 54.2634 112.2C55.3034 113.213 56.6501 113.72 58.3034 113.72C59.3434 113.72 60.2901 113.533 61.1434 113.16C62.0234 112.787 62.8234 112.347 63.5434 111.84L65.9034 115.56C64.7034 116.573 63.3834 117.32 61.9434 117.8C60.5034 118.253 59.1034 118.48 57.7434 118.48ZM83.5278 118.48C81.9545 118.48 80.6211 118.267 79.5278 117.84C78.4345 117.413 77.5411 116.827 76.8478 116.08C76.1811 115.307 75.7011 114.387 75.4078 113.32C75.1145 112.253 74.9678 111.067 74.9678 109.76V102.76H69.9678V98.4L75.2478 98.16L76.0078 92.08H80.8478V98.16H89.2478V102.76H80.8478V109.72C80.8478 111.24 81.1811 112.32 81.8478 112.96C82.5145 113.573 83.5811 113.88 85.0478 113.88C85.7945 113.88 86.4745 113.813 87.0878 113.68C87.7278 113.547 88.3545 113.373 88.9678 113.16L90.0078 117.4C89.1278 117.667 88.1545 117.907 87.0878 118.12C86.0478 118.36 84.8611 118.48 83.5278 118.48ZM103.992 118.48C102.686 118.48 101.419 118.253 100.192 117.8C98.9922 117.32 97.9122 116.64 96.9522 115.76C96.0189 114.88 95.2722 113.8 94.7122 112.52C94.1522 111.213 93.8722 109.733 93.8722 108.08C93.8722 106.427 94.1522 104.96 94.7122 103.68C95.2722 102.373 96.0189 101.28 96.9522 100.4C97.9122 99.52 98.9922 98.8533 100.192 98.4C101.419 97.92 102.686 97.68 103.992 97.68C105.299 97.68 106.552 97.92 107.752 98.4C108.979 98.8533 110.059 99.52 110.992 100.4C111.952 101.28 112.712 102.373 113.272 103.68C113.832 104.96 114.112 106.427 114.112 108.08C114.112 109.733 113.832 111.213 113.272 112.52C112.712 113.8 111.952 114.88 110.992 115.76C110.059 116.64 108.979 117.32 107.752 117.8C106.552 118.253 105.299 118.48 103.992 118.48ZM103.992 113.72C105.352 113.72 106.366 113.213 107.032 112.2C107.726 111.187 108.072 109.813 108.072 108.08C108.072 106.347 107.726 104.973 107.032 103.96C106.366 102.947 105.352 102.44 103.992 102.44C102.632 102.44 101.606 102.947 100.912 103.96C100.246 104.973 99.9122 106.347 99.9122 108.08C99.9122 109.813 100.246 111.187 100.912 112.2C101.606 113.213 102.632 113.72 103.992 113.72ZM120.617 118V98.16H125.417L125.897 102.48H126.017C127.003 100.853 128.19 99.6533 129.577 98.88C130.963 98.08 132.457 97.68 134.057 97.68C134.937 97.68 135.643 97.7467 136.177 97.88C136.737 98.0133 137.31 98.2133 137.897 98.48L136.697 103.4C136.083 103.213 135.523 103.08 135.017 103C134.537 102.893 133.923 102.84 133.177 102.84C131.95 102.84 130.737 103.2 129.537 103.92C128.363 104.64 127.35 105.893 126.497 107.68V118H120.617ZM151.801 118.48C150.014 118.48 148.268 118.187 146.561 117.6C144.854 117.013 143.361 116.293 142.081 115.44L144.601 111.76C145.828 112.533 147.108 113.12 148.441 113.52C149.774 113.92 151.161 114.12 152.601 114.12C153.694 114.12 154.494 113.96 155.001 113.64C155.508 113.32 155.761 112.92 155.761 112.44C155.761 112.173 155.681 111.933 155.521 111.72C155.388 111.507 155.134 111.32 154.761 111.16C154.414 110.973 153.921 110.8 153.281 110.64C152.641 110.48 151.841 110.293 150.881 110.08C148.188 109.493 146.254 108.707 145.081 107.72C143.908 106.707 143.321 105.427 143.321 103.88C143.321 102.973 143.534 102.133 143.961 101.36C144.388 100.587 144.988 99.9333 145.761 99.4C146.561 98.8667 147.521 98.4533 148.641 98.16C149.761 97.84 151.028 97.68 152.441 97.68C154.228 97.68 155.841 97.9733 157.281 98.56C158.748 99.12 160.001 99.7333 161.041 100.4L158.401 103.92C157.388 103.307 156.334 102.84 155.241 102.52C154.148 102.2 153.041 102.04 151.921 102.04C150.988 102.04 150.294 102.187 149.841 102.48C149.388 102.773 149.161 103.147 149.161 103.6C149.161 104.16 149.508 104.56 150.201 104.8C150.894 105.04 152.081 105.347 153.761 105.72C155.281 106.067 156.548 106.44 157.561 106.84C158.574 107.24 159.374 107.693 159.961 108.2C160.548 108.707 160.961 109.28 161.201 109.92C161.441 110.56 161.561 111.28 161.561 112.08C161.561 112.987 161.348 113.827 160.921 114.6C160.494 115.373 159.868 116.053 159.041 116.64C158.241 117.2 157.228 117.653 156.001 118C154.801 118.32 153.401 118.48 151.801 118.48Z" fill="url(#paint1_linear)"/>
</g>
<defs>
<linearGradient id="paint0_linear" x1="80" y1="27" x2="80" y2="87" gradientUnits="userSpaceOnUse">
<stop stop-color="#2200FF"/>
<stop offset="1" stop-color="#9E00FF"/>
</linearGradient>
<linearGradient id="paint1_linear" x1="80" y1="79" x2="80" y2="129" gradientUnits="userSpaceOnUse">
<stop stop-color="#2200FF"/>
<stop offset="1" stop-color="#9E00FF"/>
</linearGradient>
<clipPath id="clip0">
<rect width="160" height="160" fill="white"/>
</clipPath>
</defs>
</svg>
