<svg width="160" height="160" viewBox="0 0 160 160" fill="none" xmlns="http://www.w3.org/2000/svg">
<path d="M16 80C16 96.9739 22.7428 113.253 34.7452 125.255C46.7475 137.257 63.0261 144 80 144C96.9739 144 113.253 137.257 125.255 125.255C137.257 113.253 144 96.9739 144 80C144 63.0261 137.257 46.7475 125.255 34.7452C113.253 22.7428 96.9739 16 80 16C63.0261 16 46.7475 22.7428 34.7452 34.7452C22.7428 46.7475 16 63.0261 16 80V80Z" fill="#C7F0FF"/>
<path d="M11.6469 74V42.704H22.7349C24.4309 42.704 26.0149 42.88 27.4869 43.232C28.9909 43.552 30.2869 44.112 31.3749 44.912C32.4949 45.68 33.3749 46.72 34.0149 48.032C34.6549 49.312 34.9749 50.896 34.9749 52.784C34.9749 54.608 34.6389 56.192 33.9669 57.536C33.3269 58.88 32.4469 59.984 31.3269 60.848C30.2069 61.712 28.9109 62.352 27.4389 62.768C25.9669 63.184 24.3989 63.392 22.7349 63.392H18.7029V74H11.6469ZM18.7029 57.776H22.3029C26.1429 57.776 28.0629 56.112 28.0629 52.784C28.0629 51.152 27.5669 50 26.5749 49.328C25.6149 48.656 24.1909 48.32 22.3029 48.32H18.7029V57.776ZM42.3961 74V50.192H48.1561L48.7321 55.376H48.8761C50.0601 53.424 51.4841 51.984 53.1481 51.056C54.8121 50.096 56.6041 49.616 58.5241 49.616C59.5801 49.616 60.4281 49.696 61.0681 49.856C61.7401 50.016 62.4281 50.256 63.1321 50.576L61.6921 56.48C60.9561 56.256 60.2841 56.096 59.6761 56C59.1001 55.872 58.3641 55.808 57.4681 55.808C55.9961 55.808 54.5401 56.24 53.1001 57.104C51.6921 57.968 50.4761 59.472 49.4521 61.616V74H42.3961ZM78.9534 74V55.712H69.4014V50.192H86.0094V74H78.9534ZM82.1694 46.448C80.7934 46.448 79.6574 46.064 78.7614 45.296C77.8974 44.528 77.4654 43.488 77.4654 42.176C77.4654 40.864 77.8974 39.808 78.7614 39.008C79.6574 38.176 80.7934 37.76 82.1694 37.76C83.5454 37.76 84.6654 38.176 85.5294 39.008C86.4254 39.808 86.8734 40.864 86.8734 42.176C86.8734 43.488 86.4254 44.528 85.5294 45.296C84.6654 46.064 83.5454 46.448 82.1694 46.448ZM96.0706 74V50.192H101.399L101.879 53.12H102.071C102.519 52.16 103.143 51.344 103.943 50.672C104.743 49.968 105.831 49.616 107.207 49.616C108.231 49.616 109.095 49.952 109.799 50.624C110.535 51.264 111.047 52.224 111.335 53.504C111.783 52.416 112.423 51.504 113.255 50.768C114.119 50 115.239 49.616 116.615 49.616C118.343 49.616 119.655 50.304 120.551 51.68C121.479 53.024 121.943 54.896 121.943 57.296V74H115.223V57.776C115.223 57.04 115.127 56.496 114.935 56.144C114.743 55.792 114.407 55.616 113.927 55.616C113.479 55.616 113.095 55.808 112.775 56.192C112.455 56.576 112.119 57.152 111.767 57.92V74H106.247V57.776C106.247 56.336 105.799 55.616 104.903 55.616C104.455 55.616 104.071 55.808 103.751 56.192C103.431 56.576 103.111 57.152 102.791 57.92V74H96.0706ZM139.012 74.576C137.156 74.576 135.412 74.304 133.78 73.76C132.18 73.184 130.788 72.368 129.604 71.312C128.42 70.256 127.492 68.96 126.82 67.424C126.148 65.856 125.812 64.08 125.812 62.096C125.812 60.144 126.148 58.4 126.82 56.864C127.524 55.296 128.452 53.984 129.604 52.928C130.756 51.84 132.068 51.024 133.54 50.48C135.044 49.904 136.596 49.616 138.196 49.616C140.02 49.616 141.636 49.904 143.044 50.48C144.452 51.056 145.62 51.856 146.548 52.88C147.508 53.904 148.228 55.12 148.708 56.528C149.188 57.904 149.428 59.408 149.428 61.04C149.428 61.68 149.38 62.304 149.284 62.912C149.22 63.488 149.156 63.92 149.092 64.208H132.868C133.22 65.936 134.004 67.2 135.22 68C136.436 68.8 138.02 69.2 139.972 69.2C141.06 69.2 142.084 69.056 143.044 68.768C144.036 68.48 145.06 68.064 146.116 67.52L148.468 71.792C147.092 72.656 145.572 73.344 143.908 73.856C142.244 74.336 140.612 74.576 139.012 74.576ZM138.436 54.992C137.028 54.992 135.844 55.36 134.884 56.096C133.956 56.832 133.316 57.952 132.964 59.456H143.14C142.788 56.48 141.22 54.992 138.436 54.992Z" fill="url(#paint0_linear)"/>
<path d="M10.9269 118V98.16H15.7269L16.1669 100.8H16.3269C17.1802 99.9467 18.1535 99.2133 19.2469 98.6C20.3669 97.9867 21.6735 97.68 23.1669 97.68C25.4069 97.68 27.0469 98.4 28.0869 99.84C29.1269 101.28 29.6469 103.253 29.6469 105.76V118H23.7669V106.52C23.7669 105.187 23.5535 104.213 23.1269 103.6C22.7002 102.987 21.9402 102.68 20.8469 102.68C20.0469 102.68 19.3402 102.853 18.7269 103.2C18.1402 103.547 17.5002 104.067 16.8069 104.76V118H10.9269ZM40.9513 118.48C38.6846 118.48 37.0446 117.76 36.0313 116.32C35.0179 114.88 34.5113 112.907 34.5113 110.4V98.16H40.3913V109.64C40.3913 110.973 40.5913 111.947 40.9913 112.56C41.3913 113.173 42.1513 113.48 43.2713 113.48C44.0179 113.48 44.6713 113.32 45.2313 113C45.8179 112.68 46.4579 112.08 47.1513 111.2V98.16H53.0313V118H48.2313L47.7913 115.16H47.6313C46.7513 116.173 45.7779 116.987 44.7113 117.6C43.6446 118.187 42.3913 118.48 40.9513 118.48ZM57.4156 118V98.16H61.8556L62.2556 100.6H62.4156C62.789 99.8 63.309 99.12 63.9756 98.56C64.6423 97.9733 65.549 97.68 66.6956 97.68C67.549 97.68 68.269 97.96 68.8556 98.52C69.469 99.0533 69.8956 99.8533 70.1356 100.92C70.509 100.013 71.0423 99.2533 71.7356 98.64C72.4556 98 73.389 97.68 74.5356 97.68C75.9756 97.68 77.069 98.2533 77.8156 99.4C78.589 100.52 78.9756 102.08 78.9756 104.08V118H73.3756V104.48C73.3756 103.867 73.2956 103.413 73.1356 103.12C72.9756 102.827 72.6956 102.68 72.2956 102.68C71.9223 102.68 71.6023 102.84 71.3356 103.16C71.069 103.48 70.789 103.96 70.4956 104.6V118H65.8956V104.48C65.8956 103.28 65.5223 102.68 64.7756 102.68C64.4023 102.68 64.0823 102.84 63.8156 103.16C63.549 103.48 63.2823 103.96 63.0156 104.6V118H57.4156ZM93.52 118.48C92.5867 118.48 91.6533 118.253 90.72 117.8C89.8133 117.347 88.9467 116.693 88.12 115.84H87.96L87.48 118H82.88V89.96H88.76V96.84L88.56 99.96H88.68C89.4267 99.24 90.28 98.68 91.24 98.28C92.2 97.88 93.16 97.68 94.12 97.68C95.3467 97.68 96.4533 97.92 97.44 98.4C98.4533 98.88 99.2933 99.56 99.96 100.44C100.653 101.293 101.187 102.347 101.56 103.6C101.933 104.827 102.12 106.2 102.12 107.72C102.12 109.427 101.88 110.947 101.4 112.28C100.92 113.613 100.28 114.747 99.48 115.68C98.68 116.587 97.76 117.28 96.72 117.76C95.7067 118.24 94.64 118.48 93.52 118.48ZM92.2 113.68C93.2933 113.68 94.2133 113.227 94.96 112.32C95.7067 111.387 96.08 109.893 96.08 107.84C96.08 104.267 94.8667 102.48 92.44 102.48C91.1867 102.48 89.96 103.093 88.76 104.32V112.36C89.32 112.84 89.8933 113.187 90.48 113.4C91.0933 113.587 91.6667 113.68 92.2 113.68ZM117.184 118.48C115.638 118.48 114.184 118.253 112.824 117.8C111.491 117.32 110.331 116.64 109.344 115.76C108.358 114.88 107.584 113.8 107.024 112.52C106.464 111.213 106.184 109.733 106.184 108.08C106.184 106.453 106.464 105 107.024 103.72C107.611 102.413 108.384 101.32 109.344 100.44C110.304 99.5333 111.398 98.8533 112.624 98.4C113.878 97.92 115.171 97.68 116.504 97.68C118.024 97.68 119.371 97.92 120.544 98.4C121.718 98.88 122.691 99.5467 123.464 100.4C124.264 101.253 124.864 102.267 125.264 103.44C125.664 104.587 125.864 105.84 125.864 107.2C125.864 107.733 125.824 108.253 125.744 108.76C125.691 109.24 125.638 109.6 125.584 109.84H112.064C112.358 111.28 113.011 112.333 114.024 113C115.038 113.667 116.358 114 117.984 114C118.891 114 119.744 113.88 120.544 113.64C121.371 113.4 122.224 113.053 123.104 112.6L125.064 116.16C123.918 116.88 122.651 117.453 121.264 117.88C119.878 118.28 118.518 118.48 117.184 118.48ZM116.704 102.16C115.531 102.16 114.544 102.467 113.744 103.08C112.971 103.693 112.438 104.627 112.144 105.88H120.624C120.331 103.4 119.024 102.16 116.704 102.16ZM132.609 118V98.16H137.409L137.889 102.48H138.009C138.995 100.853 140.182 99.6533 141.569 98.88C142.955 98.08 144.449 97.68 146.049 97.68C146.929 97.68 147.635 97.7467 148.169 97.88C148.729 98.0133 149.302 98.2133 149.889 98.48L148.689 103.4C148.075 103.213 147.515 103.08 147.009 103C146.529 102.893 145.915 102.84 145.169 102.84C143.942 102.84 142.729 103.2 141.529 103.92C140.355 104.64 139.342 105.893 138.489 107.68V118H132.609Z" fill="url(#paint1_linear)"/>
<defs>
<linearGradient id="paint0_linear" x1="80" y1="27" x2="80" y2="87" gradientUnits="userSpaceOnUse">
<stop stop-color="#2200FF"/>
<stop offset="1" stop-color="#9E00FF"/>
</linearGradient>
<linearGradient id="paint1_linear" x1="80" y1="79" x2="80" y2="129" gradientUnits="userSpaceOnUse">
<stop stop-color="#2200FF"/>
<stop offset="1" stop-color="#9E00FF"/>
</linearGradient>
</defs>
</svg>
