<svg width="128" height="128" viewBox="0 0 128 128" fill="none" xmlns="http://www.w3.org/2000/svg">
<circle cx="64" cy="64" r="64" fill="#C7F0FF"/>
<path d="M78.9759 25.3101C75.5559 25.3101 72.7659 28.0701 72.7659 31.4801V38.3201C71.8359 37.7601 70.7459 37.4401 69.5859 37.4401C68.1059 37.4401 66.7359 37.9601 65.6659 38.8301C64.6059 37.0401 62.4559 35.7301 60.1759 35.7301C58.5759 35.7301 57.1159 36.3301 56.0259 37.3201C54.9659 35.6001 53.0659 34.4601 50.8959 34.4601H50.8359C47.4959 34.4601 44.7759 37.1801 44.7759 40.5201V53.0791C43.5679 54.9291 42.8149 57.2921 42.8149 60.1431V64.3721C42.8149 70.4971 46.1989 75.8811 51.3999 78.6041V85.6801H50.1869C48.3469 85.6801 46.8469 87.1901 46.8469 89.0401V99.3301C46.8469 101.18 48.3469 102.69 50.1869 102.69H79.7669C81.6069 102.69 83.1069 101.18 83.1069 99.3301V89.0401C83.1069 87.1901 81.6069 85.6801 79.7669 85.6801H78.5559V78.1711C78.5559 78.1711 78.5569 78.1711 78.5569 78.1701C82.5569 75.4301 85.1869 70.8501 85.1869 65.6701V31.4801C85.1859 28.0701 82.3959 25.3101 78.9759 25.3101ZM66.3759 47.5101V43.6101C66.3759 41.8601 67.8159 40.4401 69.5859 40.4401C71.2259 40.4401 72.5759 41.6601 72.7659 43.2301V54.1301V54.1501C72.5659 55.7001 71.2159 56.9101 69.5859 56.9101C68.4669 56.9101 67.4789 56.3411 66.9079 55.4831C67.6379 54.1981 68.0709 52.7251 68.1059 51.1621C68.1119 51.0911 68.1159 51.0181 68.1159 50.9451V49.7641C68.1159 48.9361 67.4439 48.2641 66.6159 48.2641H66.5949L66.6159 48.2601H66.3759C66.3759 48.2601 66.3759 47.5101 66.3759 47.5101ZM56.9659 41.9001C56.9659 40.1601 58.4059 38.7301 60.1759 38.7301C62.0359 38.7301 63.3759 40.2501 63.3759 41.2701V48.2601H56.9659V41.9001V41.9001ZM47.7759 40.5201C47.7759 38.8301 49.1459 37.4601 50.8359 37.4601H50.8959C52.5859 37.4601 53.9559 38.8301 53.9559 40.5201V48.2641H53.4829C51.5209 48.2641 49.5129 48.8661 47.7749 50.0311L47.7759 40.5201ZM54.3989 79.8041C54.5959 79.8611 54.7879 79.9281 54.9889 79.9791C55.0179 79.9891 55.0459 80.0021 55.0759 80.0111H55.0859C56.6459 80.5511 58.3159 80.8411 60.0559 80.8411H69.8959C71.8959 80.8411 73.8049 80.4611 75.5549 79.7611V85.6801H54.3989V79.8041ZM79.7659 88.6801C79.9559 88.6801 80.1059 88.8401 80.1059 89.0401V99.3301C80.1059 99.5301 79.9559 99.6901 79.7659 99.6901H50.1859C49.9959 99.6901 49.8459 99.5301 49.8459 99.3301V89.0401C49.8459 88.8401 49.9959 88.6801 50.1859 88.6801H79.7659ZM82.1859 65.6701C82.1859 69.0301 80.7959 72.0901 78.5559 74.2901C77.6759 75.1601 76.6659 75.9001 75.5559 76.4701C73.8559 77.3501 71.9359 77.8401 69.8959 77.8401H60.0559C58.7659 77.8401 57.5259 77.6401 56.3459 77.2701H56.3419C56.1849 77.2021 55.9879 77.1761 55.8359 77.1001C49.9979 75.7881 45.8159 70.3011 45.8159 64.3701V60.1401C45.8159 57.9901 46.4859 55.7801 47.7759 54.1001V54.0971C49.0709 52.4121 50.9889 51.2651 53.4839 51.2651H65.0959C65.0839 51.5151 65.0379 51.7561 64.9959 51.9971C65.0019 51.9981 65.0079 51.9981 65.0149 51.9991C64.9579 52.3271 64.8779 52.6461 64.7719 52.9551C64.7649 52.9541 64.7589 52.9541 64.7519 52.9531C64.4819 53.7401 64.0759 54.4671 63.5319 55.0841C62.3779 56.3891 60.6969 57.2181 58.8429 57.2181H55.6849C54.8569 57.2181 54.1849 57.8901 54.1849 58.7181V62.3361C54.1849 63.1641 54.8569 63.8361 55.6849 63.8361C59.3459 63.8361 62.3249 66.8151 62.3249 70.4751C62.3249 71.3031 62.9969 71.9751 63.8249 71.9751C64.6529 71.9751 65.3249 71.3031 65.3249 70.4751C65.3249 65.6701 61.7909 61.6751 57.1849 60.9531V60.2191H58.8429C61.1829 60.2191 63.3319 59.3191 64.9739 57.8591C64.9749 57.8601 64.9759 57.8611 64.9769 57.8621C66.1069 59.1221 67.7569 59.9121 69.5869 59.9121C73.0069 59.9121 75.7969 57.1521 75.7969 53.7521L75.7669 31.4821C75.7669 29.7321 77.2069 28.3121 78.9769 28.3121C80.7469 28.3121 82.1869 29.7321 82.1869 31.4821L82.1859 65.6701Z" fill="url(#paint0_linear)"/>
<defs>
<linearGradient id="paint0_linear" x1="64.0009" y1="25.3101" x2="64.0009" y2="102.69" gradientUnits="userSpaceOnUse">
<stop stop-color="#2200FF"/>
<stop offset="1" stop-color="#9E00FF"/>
</linearGradient>
</defs>
</svg>
