<svg xmlns="http://www.w3.org/2000/svg" version="1.1" xmlns:xlink="http://www.w3.org/1999/xlink" xmlns:svgjs="http://svgjs.com/svgjs" viewBox="0 0 160 160" width="160" height="160"><g transform="matrix(1.6,0,0,1.6,0,0)"><path d="M50.5,90A39.948,39.948,0,0,0,85.108,70H15.892A39.948,39.948,0,0,0,50.5,90Z" fill="#ccf7ad"></path><path d="M14.064,66.5c.546,1.2,1.17,2.363,1.828,3.5H85.108c.658-1.137,1.282-2.3,1.828-3.5Z" fill="#ccf7ad"></path><path d="M90.5,50A40,40,0,1,0,14.064,66.5H86.936A39.844,39.844,0,0,0,90.5,50Z" fill="#c7f0ff"></path><path d="M11 66.5L89 66.5" fill="none" stroke="#45413c" stroke-linecap="round" stroke-linejoin="round"></path><path d="M6.5 66.5L9 66.5" fill="none" stroke="#45413c" stroke-linecap="round" stroke-linejoin="round"></path><path d="M91 66.5L93.5 66.5" fill="none" stroke="#45413c" stroke-linecap="round" stroke-linejoin="round"></path><path d="M18.786 13.825H38.302V74H18.786z" fill="#f7e5c6"></path><path d="M18.786 13.825H38.302V25.52H18.786z" fill="#f0d5a8"></path><path d="M62.698 13.825H82.214V74H62.698z" fill="#f7e5c6"></path><path d="M62.697 13.825H82.213V25.52H62.697z" fill="#f0d5a8"></path><path d="M38.302 30.901H62.697V74H38.302z" fill="#f7e5c6"></path><path d="M38.302 30.901H62.697V43.099000000000004H38.302z" fill="#f0d5a8"></path><path d="M18.786 13.825H38.302V74H18.786z" fill="none" stroke="#45413c" stroke-linecap="round" stroke-linejoin="round"></path><path d="M62.698 13.825H82.214V74H62.698z" fill="none" stroke="#45413c" stroke-linecap="round" stroke-linejoin="round"></path><path d="M38.302 30.901H62.697V74H38.302z" fill="none" stroke="#45413c" stroke-linecap="round" stroke-linejoin="round"></path><path d="M36.676,12.355v1.469H33.423V12.355A1.355,1.355,0,0,0,32.068,11h-.542a1.356,1.356,0,0,0-1.356,1.355v1.469H26.918V12.355A1.356,1.356,0,0,0,25.562,11H25.02a1.355,1.355,0,0,0-1.355,1.355v1.469H20.412V12.355A1.355,1.355,0,0,0,19.057,11h-.542a1.356,1.356,0,0,0-1.356,1.355V20.33a.813.813,0,0,1,.814.813v1.626h2.439V18.9a2.436,2.436,0,0,1,.714-1.723l.913-.913.912.913a2.437,2.437,0,0,1,.714,1.723v3.869h3.253V18.9a2.435,2.435,0,0,1,.713-1.723l.913-.913.912.913A2.433,2.433,0,0,1,30.17,18.9v3.869h3.253V18.9a2.437,2.437,0,0,1,.714-1.723l.912-.913.913.913a2.436,2.436,0,0,1,.714,1.723v3.869h2.439V21.143a.813.813,0,0,1,.814-.813V12.355A1.356,1.356,0,0,0,38.573,11h-.542A1.355,1.355,0,0,0,36.676,12.355Z" fill="#ffe3cf" stroke="#45413c" stroke-linecap="round" stroke-linejoin="round"></path><path d="M80.588,12.355v1.469H77.335V12.355A1.355,1.355,0,0,0,75.98,11h-.543a1.355,1.355,0,0,0-1.355,1.355v1.469H70.829V12.355A1.355,1.355,0,0,0,69.474,11h-.542a1.355,1.355,0,0,0-1.355,1.355v1.469H64.324V12.355A1.355,1.355,0,0,0,62.969,11h-.542a1.356,1.356,0,0,0-1.356,1.355V20.33a.813.813,0,0,1,.813.813v1.626h2.44V18.9a2.437,2.437,0,0,1,.714-1.723l.912-.913.913.913a2.437,2.437,0,0,1,.714,1.723v3.869h3.252V18.9a2.436,2.436,0,0,1,.714-1.723l.913-.913.912.913a2.437,2.437,0,0,1,.714,1.723v3.869h3.253V18.9a2.436,2.436,0,0,1,.714-1.723l.912-.913.913.913a2.437,2.437,0,0,1,.714,1.723v3.869h2.439V21.143a.813.813,0,0,1,.813-.813V12.355A1.355,1.355,0,0,0,82.485,11h-.542A1.355,1.355,0,0,0,80.588,12.355Z" fill="#ffe3cf" stroke="#45413c" stroke-linecap="round" stroke-linejoin="round"></path><path d="M38.302 36.594L17.973 36.594" fill="none" stroke="#45413c" stroke-linecap="round" stroke-linejoin="round"></path><path d="M62.698 36.594L83.027 36.594" fill="none" stroke="#45413c" stroke-linecap="round" stroke-linejoin="round"></path><path d="M22.852 27.649 L26.105 27.649 L26.105 32.528 L22.852 32.528 Z" fill="#00b8f0"></path><path d="M22.852,29v2.168a1.349,1.349,0,0,0,.145.611l3.075-3.075a1.356,1.356,0,0,0-1.323-1.059h-.542A1.355,1.355,0,0,0,22.852,29Z" fill="#4acfff"></path><path d="M22.852 27.649 L26.105 27.649 L26.105 32.528 L22.852 32.528 Z" fill="none" stroke="#45413c" stroke-linecap="round" stroke-linejoin="round"></path><path d="M30.984 27.649 L34.237 27.649 L34.237 32.528 L30.984 32.528 Z" fill="#00b8f0"></path><path d="M30.984,29v2.168a1.349,1.349,0,0,0,.145.611L34.2,28.708a1.356,1.356,0,0,0-1.323-1.059h-.542A1.354,1.354,0,0,0,30.984,29Z" fill="#4acfff"></path><path d="M30.984 27.649 L34.237 27.649 L34.237 32.528 L30.984 32.528 Z" fill="none" stroke="#45413c" stroke-linecap="round" stroke-linejoin="round"></path><path d="M25.291 61.802 L31.796 61.802 L31.796 68.307 L25.291 68.307 Z" fill="#00b8f0"></path><path d="M30.442,61.8h-3.8a1.356,1.356,0,0,0-1.356,1.356v3.794a1.354,1.354,0,0,0,.749,1.212L31.8,63.257v-.1A1.356,1.356,0,0,0,30.442,61.8Z" fill="#4acfff"></path><path d="M30.8,68.308H28.544V61.8H30.8a1,1,0,0,1,1,1v4.506A1,1,0,0,1,30.8,68.308Z" fill="none" stroke="#45413c" stroke-linecap="round" stroke-linejoin="round"></path><path d="M69.203 61.802 L75.708 61.802 L75.708 68.307 L69.203 68.307 Z" fill="#00b8f0"></path><path d="M74.353,61.8H70.558A1.356,1.356,0,0,0,69.2,63.158v3.794a1.354,1.354,0,0,0,.749,1.212l5.757-4.907v-.1A1.356,1.356,0,0,0,74.353,61.8Z" fill="#4acfff"></path><path d="M74.709,68.308H72.456V61.8h2.253a1,1,0,0,1,1,1v4.506A1,1,0,0,1,74.709,68.308Z" fill="none" stroke="#45413c" stroke-linecap="round" stroke-linejoin="round"></path><path d="M52.939,52.044H48.06v-5.2a5.479,5.479,0,0,1,2.44-4.558h0a5.478,5.478,0,0,1,2.439,4.558Z" fill="#00b8f0"></path><path d="M52.805,45.676a5.469,5.469,0,0,0-2.3-3.39,5.479,5.479,0,0,0-2.44,4.558v4.615Z" fill="#4acfff"></path><path d="M52.94,52.044H48.06v-5.2a5.479,5.479,0,0,1,2.44-4.558h0a5.479,5.479,0,0,1,2.44,4.558Z" fill="none" stroke="#45413c" stroke-linecap="round" stroke-linejoin="round"></path><path d="M29.628,52.044H27.46A1.356,1.356,0,0,1,26.1,50.689V46.844a5.479,5.479,0,0,1,2.44-4.558h0a5.479,5.479,0,0,1,2.44,4.558v3.845A1.356,1.356,0,0,1,29.628,52.044Z" fill="#00b8f0"></path><path d="M30.861,45.7a5.477,5.477,0,0,0-2.317-3.409,5.479,5.479,0,0,0-2.44,4.558v3.845a1.345,1.345,0,0,0,.141.6Z" fill="#4acfff"></path><path d="M30.849,45.676a5.469,5.469,0,0,0-2.3-3.39,5.478,5.478,0,0,0-2.439,4.558v4.615Z" fill="#4acfff"></path><path d="M73.54,52.044H71.372a1.356,1.356,0,0,1-1.356-1.355V46.844a5.479,5.479,0,0,1,2.44-4.558h0A5.478,5.478,0,0,1,74.9,46.844v3.845A1.355,1.355,0,0,1,73.54,52.044Z" fill="#00b8f0"></path><path d="M74.8,45.806a5.48,5.48,0,0,0-2.34-3.52,5.479,5.479,0,0,0-2.44,4.558v3.845a1.342,1.342,0,0,0,.142.6Z" fill="#4acfff"></path><path d="M73.54,52.044H71.372a1.356,1.356,0,0,1-1.356-1.355V46.844a5.479,5.479,0,0,1,2.44-4.558h0A5.478,5.478,0,0,1,74.9,46.844v3.845A1.355,1.355,0,0,1,73.54,52.044Z" fill="none" stroke="#45413c" stroke-linecap="round" stroke-linejoin="round"></path><path d="M44.808,52.044H41.555V48.625a3.523,3.523,0,0,1,1.032-2.492l.594-.594.594.594a3.524,3.524,0,0,1,1.033,2.492Z" fill="#00b8f0"></path><path d="M41.555,50.689l3.084-3.084a3.509,3.509,0,0,0-.864-1.472l-.594-.594-.594.594a3.523,3.523,0,0,0-1.032,2.492Z" fill="#4acfff"></path><path d="M44.808,52.044H41.555V48.625a3.523,3.523,0,0,1,1.032-2.492l.594-.594.594.594a3.524,3.524,0,0,1,1.033,2.492Z" fill="none" stroke="#45413c" stroke-linecap="round" stroke-linejoin="round"></path><path d="M59.445,52.044H56.192V48.625a3.524,3.524,0,0,1,1.033-2.492l.594-.594.594.594a3.523,3.523,0,0,1,1.032,2.492Z" fill="#00b8f0"></path><path d="M56.192,50.689l3.085-3.084a3.509,3.509,0,0,0-.864-1.472l-.594-.594-.594.594a3.524,3.524,0,0,0-1.033,2.492Z" fill="#4acfff"></path><path d="M59.445,52.044H56.192V48.625a3.524,3.524,0,0,1,1.033-2.492l.594-.594.594.594a3.523,3.523,0,0,1,1.032,2.492Z" fill="none" stroke="#45413c" stroke-linecap="round" stroke-linejoin="round"></path><path d="M17.973 55.297L83.027 55.297" fill="none" stroke="#45413c" stroke-linecap="round" stroke-linejoin="round"></path><path d="M50.5,59.363h0a5.838,5.838,0,0,0-4.879,5.759V74h9.758V65.122A5.839,5.839,0,0,0,50.5,59.363Z" fill="#debb7e" stroke="#45413c" stroke-linecap="round" stroke-linejoin="round"></path><path d="M59.445,29v1.9H56.192V29a1.355,1.355,0,0,0-1.355-1.355H53.482A1.356,1.356,0,0,0,52.126,29v1.9H48.874V29a1.356,1.356,0,0,0-1.356-1.355H46.163A1.355,1.355,0,0,0,44.808,29v1.9H41.555V29A1.355,1.355,0,0,0,40.2,27.649H38.3v12.2h3.253V35.977a2.438,2.438,0,0,1,.714-1.724l.912-.912.913.912a2.438,2.438,0,0,1,.714,1.724v3.869h4.066V35.977a2.437,2.437,0,0,1,.713-1.724l.913-.912.912.912a2.438,2.438,0,0,1,.714,1.724v3.869h4.066V35.977a2.438,2.438,0,0,1,.714-1.724l.913-.912.912.912a2.438,2.438,0,0,1,.714,1.724v3.869H62.7v-12.2H60.8A1.355,1.355,0,0,0,59.445,29Z" fill="#ffe3cf" stroke="#45413c" stroke-linecap="round" stroke-linejoin="round"></path><path d="M45.621 65.055H55.379000000000005V74H45.621z" fill="#ff6242" stroke="#45413c" stroke-linecap="round" stroke-linejoin="round"></path><path d="M48.874 62.615L48.874 59.886" fill="none" stroke="#45413c" stroke-linecap="round" stroke-linejoin="round"></path><path d="M52.126 62.615L52.126 59.887" fill="none" stroke="#45413c" stroke-linecap="round" stroke-linejoin="round"></path><path d="M18.786 61.802L22.039 61.802" fill="none" stroke="#45413c" stroke-linecap="round" stroke-linejoin="round"></path><path d="M18.786 68.308L22.039 68.308" fill="none" stroke="#45413c" stroke-linecap="round" stroke-linejoin="round"></path><path d="M35.049 61.802L38.302 61.802" fill="none" stroke="#45413c" stroke-linecap="round" stroke-linejoin="round"></path><path d="M35.049 68.308L42.368 68.308" fill="none" stroke="#45413c" stroke-linecap="round" stroke-linejoin="round"></path><path d="M62.698 61.802L65.95 61.802" fill="none" stroke="#45413c" stroke-linecap="round" stroke-linejoin="round"></path><path d="M58.632 68.308L65.95 68.308" fill="none" stroke="#45413c" stroke-linecap="round" stroke-linejoin="round"></path><path d="M78.961 61.802L82.214 61.802" fill="none" stroke="#45413c" stroke-linecap="round" stroke-linejoin="round"></path><path d="M78.961 68.308L82.214 68.308" fill="none" stroke="#45413c" stroke-linecap="round" stroke-linejoin="round"></path><path d="M62.698 43.099L65.95 43.099" fill="none" stroke="#45413c" stroke-linecap="round" stroke-linejoin="round"></path><path d="M62.698 49.605L65.95 49.605" fill="none" stroke="#45413c" stroke-linecap="round" stroke-linejoin="round"></path><path d="M78.961 43.099L82.214 43.099" fill="none" stroke="#45413c" stroke-linecap="round" stroke-linejoin="round"></path><path d="M78.961 49.605L82.214 49.605" fill="none" stroke="#45413c" stroke-linecap="round" stroke-linejoin="round"></path><path d="M18.786 43.099L22.039 43.099" fill="none" stroke="#45413c" stroke-linecap="round" stroke-linejoin="round"></path><path d="M18.786 49.605L22.039 49.605" fill="none" stroke="#45413c" stroke-linecap="round" stroke-linejoin="round"></path><path d="M35.049 43.099L38.302 43.099" fill="none" stroke="#45413c" stroke-linecap="round" stroke-linejoin="round"></path><path d="M35.049 49.605L38.302 49.605" fill="none" stroke="#45413c" stroke-linecap="round" stroke-linejoin="round"></path><path d="M50.5 65.055L50.5 74" fill="#656769" stroke="#45413c" stroke-linecap="round" stroke-linejoin="round"></path><path d="M29.628,52.044H27.46A1.356,1.356,0,0,1,26.1,50.689V46.844a5.479,5.479,0,0,1,2.44-4.558h0a5.479,5.479,0,0,1,2.44,4.558v3.845A1.356,1.356,0,0,1,29.628,52.044Z" fill="none" stroke="#45413c" stroke-linecap="round" stroke-linejoin="round"></path><path d="M28.544,68.308H26.291a1,1,0,0,1-1-1V62.8a1,1,0,0,1,1-1h2.253Z" fill="none" stroke="#45413c" stroke-linecap="round" stroke-linejoin="round"></path><path d="M72.456,68.308H70.2a1,1,0,0,1-1-1V62.8a1,1,0,0,1,1-1h2.253Z" fill="none" stroke="#45413c" stroke-linecap="round" stroke-linejoin="round"></path><path d="M66.899 27.649 L70.152 27.649 L70.152 32.528 L66.899 32.528 Z" fill="#00b8f0"></path><path d="M66.9,29v2.168a1.349,1.349,0,0,0,.146.611l3.074-3.075A1.356,1.356,0,0,0,68.8,27.649h-.542A1.355,1.355,0,0,0,66.9,29Z" fill="#4acfff"></path><path d="M66.899 27.649 L70.152 27.649 L70.152 32.528 L66.899 32.528 Z" fill="none" stroke="#45413c" stroke-linecap="round" stroke-linejoin="round"></path><path d="M75.031 27.649 L78.284 27.649 L78.284 32.528 L75.031 32.528 Z" fill="#00b8f0"></path><path d="M75.031,29v2.168a1.349,1.349,0,0,0,.145.611l3.075-3.075a1.356,1.356,0,0,0-1.323-1.059h-.542A1.355,1.355,0,0,0,75.031,29Z" fill="#4acfff"></path><path d="M75.031 27.649 L78.284 27.649 L78.284 32.528 L75.031 32.528 Z" fill="none" stroke="#45413c" stroke-linecap="round" stroke-linejoin="round"></path></g></svg>