<svg viewBox="0 0 160 160" height="160" width="160" xmlns="http://www.w3.org/2000/svg"><g transform="matrix(1.6,0,0,1.6,0,0)"><path d="M10.000 50.000 A40.000 40.000 0 1 0 90.000 50.000 A40.000 40.000 0 1 0 10.000 50.000 Z" fill="#C7F0FF" stroke="#C7F0FF"></path><path d="M37.516 79.698 A12.901 1.759 0 1 0 63.318 79.698 A12.901 1.759 0 1 0 37.516 79.698 Z" fill="#45413c" opacity=".15"></path><path d="M70.575,21.154a2.663,2.663,0,0,0-2.886.581L23.736,65.688a2.663,2.663,0,0,0-.581,2.886,2.632,2.632,0,0,0,2.455,1.631l43.953.009a2.655,2.655,0,0,0,2.652-2.652V23.6A2.651,2.651,0,0,0,70.575,21.154ZM62.939,46.911V59.617a1.32,1.32,0,0,1-1.321,1.321H48.912a1.332,1.332,0,0,1-1.227-.815,1.347,1.347,0,0,1,.29-1.453l12.7-12.7a1.347,1.347,0,0,1,1.453-.29A1.332,1.332,0,0,1,62.939,46.911Z" fill="#debb7e"></path><path d="M72.215,25.773V23.6a2.648,2.648,0,0,0-4.526-1.865L23.736,65.688a2.663,2.663,0,0,0-.581,2.886,2.632,2.632,0,0,0,2.455,1.631h2.173Z" fill="#f0d5a8"></path><path d="M29.236 60.188L32.047 62.999" fill="none" stroke="#45413c" stroke-linecap="round" stroke-linejoin="round"></path><path d="M33.921 55.503L37.669 59.251" fill="none" stroke="#45413c" stroke-linecap="round" stroke-linejoin="round"></path><path d="M38.606 50.818L41.417 53.629" fill="none" stroke="#45413c" stroke-linecap="round" stroke-linejoin="round"></path><path d="M43.29 46.134L47.038 49.881" fill="none" stroke="#45413c" stroke-linecap="round" stroke-linejoin="round"></path><path d="M47.975 41.449L50.786 44.26" fill="none" stroke="#45413c" stroke-linecap="round" stroke-linejoin="round"></path><path d="M52.66 36.764L56.408 40.512" fill="none" stroke="#45413c" stroke-linecap="round" stroke-linejoin="round"></path><path d="M57.345 32.079L60.156 34.89" fill="none" stroke="#45413c" stroke-linecap="round" stroke-linejoin="round"></path><path d="M62.03 27.394L65.778 31.142" fill="none" stroke="#45413c" stroke-linecap="round" stroke-linejoin="round"></path><path d="M70.575,21.154a2.663,2.663,0,0,0-2.886.581L23.736,65.688a2.663,2.663,0,0,0-.581,2.886,2.632,2.632,0,0,0,2.455,1.631l43.953.009a2.655,2.655,0,0,0,2.652-2.652V23.6A2.651,2.651,0,0,0,70.575,21.154ZM62.939,46.911V59.617a1.32,1.32,0,0,1-1.321,1.321H48.912a1.332,1.332,0,0,1-1.227-.815,1.347,1.347,0,0,1,.29-1.453l12.7-12.7a1.347,1.347,0,0,1,1.453-.29A1.332,1.332,0,0,1,62.939,46.911Z" fill="none" stroke="#45413c"></path></g></svg>