<svg width="160" height="160" viewBox="0 0 160 160" fill="none" xmlns="http://www.w3.org/2000/svg">
<circle cx="80" cy="80" r="80" fill="#C7F0FF"/>
<g clip-path="url(#clip0)">
<path d="M0 70.8398H160V82.0083H0V70.8398Z" fill="white"/>
<path d="M0 70.8398H160M160 82.0083H0H160Z" stroke="#45413C" stroke-width="1.5" stroke-linecap="round" stroke-linejoin="round"/>
<path d="M28.2803 105.596V60.5855C28.2803 59.1041 27.6918 57.6834 26.6443 56.6359C25.5969 55.5885 24.1762 55 22.6948 55C21.2135 55 19.7928 55.5885 18.7453 56.6359C17.6978 57.6834 17.1094 59.1041 17.1094 60.5855V105.596H28.2803Z" fill="#E8F4FA"/>
<path d="M22.7047 55C21.2259 55 19.8077 55.5875 18.762 56.6331C17.7164 57.6788 17.1289 59.097 17.1289 60.5758V69.5164C17.1289 68.035 17.7174 66.6144 18.7648 65.5669C19.8123 64.5194 21.233 63.931 22.7144 63.931C24.1957 63.931 25.6164 64.5194 26.6639 65.5669C27.7114 66.6144 28.2998 68.035 28.2998 69.5164V60.5831C28.3008 59.8486 28.1566 59.1212 27.8756 58.4426C27.5946 57.764 27.1823 57.1476 26.6624 56.6288C26.1425 56.1101 25.5253 55.6991 24.8461 55.4196C24.1669 55.1401 23.4391 54.9975 22.7047 55V55Z" fill="white"/>
<path d="M28.2803 105.596V60.5855C28.2803 59.1041 27.6918 57.6834 26.6443 56.6359C25.5969 55.5885 24.1762 55 22.6948 55C21.2135 55 19.7928 55.5885 18.7453 56.6359C17.6978 57.6834 17.1094 59.1041 17.1094 60.5855V105.596" stroke="#45413C" stroke-width="1.5" stroke-linecap="round" stroke-linejoin="round"/>
<path d="M66.6177 105.595V60.5842C66.6177 59.1032 66.0294 57.6828 64.9821 56.6356C63.9349 55.5883 62.5145 55 61.0335 55C59.5524 55 58.1321 55.5883 57.0848 56.6356C56.0376 57.6828 55.4492 59.1032 55.4492 60.5842V105.595H66.6177Z" fill="#E8F4FA"/>
<path d="M61.025 55C59.5462 55 58.128 55.5875 57.0823 56.6331C56.0367 57.6788 55.4492 59.097 55.4492 60.5758V69.5164C55.4492 68.0353 56.0376 66.615 57.0848 65.5677C58.1321 64.5205 59.5524 63.9321 61.0335 63.9321C62.5145 63.9321 63.9349 64.5205 64.9821 65.5677C66.0294 66.615 66.6177 68.0353 66.6177 69.5164V60.5831C66.6187 59.8488 66.4746 59.1216 66.1938 58.4431C65.9129 57.7647 65.5008 57.1484 64.9812 56.6297C64.4615 56.1109 63.8445 55.6999 63.1656 55.4203C62.4867 55.1406 61.7592 54.9978 61.025 55V55Z" fill="white"/>
<path d="M66.6177 105.595V60.5842C66.6177 59.1032 66.0294 57.6828 64.9821 56.6356C63.9349 55.5883 62.5145 55 61.0335 55C59.5524 55 58.1321 55.5883 57.0848 56.6356C56.0376 57.6828 55.4492 59.1032 55.4492 60.5842V105.595" stroke="#45413C" stroke-width="1.5" stroke-linecap="round" stroke-linejoin="round"/>
<path d="M105.019 105.596V60.5855C105.019 59.1041 104.43 57.6834 103.383 56.6359C102.335 55.5885 100.914 55 99.4331 55C97.9518 55 96.5311 55.5885 95.4836 56.6359C94.4361 57.6834 93.8477 59.1041 93.8477 60.5855V105.596H105.019Z" fill="#E8F4FA"/>
<path d="M99.4429 55C97.9642 55 96.5459 55.5875 95.5003 56.6331C94.4546 57.6788 93.8672 59.097 93.8672 60.5758V69.5164C93.8672 68.035 94.4557 66.6144 95.5031 65.5669C96.5506 64.5194 97.9713 63.931 99.4526 63.931C100.934 63.931 102.355 64.5194 103.402 65.5669C104.45 66.6144 105.038 68.035 105.038 69.5164V60.5831C105.039 59.8486 104.895 59.1212 104.614 58.4426C104.333 57.764 103.921 57.1476 103.401 56.6288C102.881 56.1101 102.264 55.6991 101.584 55.4196C100.905 55.1401 100.177 54.9975 99.4429 55V55Z" fill="white"/>
<path d="M105.019 105.596V60.5855C105.019 59.1041 104.43 57.6834 103.383 56.6359C102.335 55.5885 100.914 55 99.4331 55C97.9518 55 96.5311 55.5885 95.4836 56.6359C94.4361 57.6834 93.8477 59.1041 93.8477 60.5855V105.596" stroke="#45413C" stroke-width="1.5" stroke-linecap="round" stroke-linejoin="round"/>
<path d="M143.437 105.596V60.5855C143.437 59.1041 142.848 57.6834 141.801 56.6359C140.753 55.5885 139.332 55 137.851 55C136.37 55 134.949 55.5885 133.902 56.6359C132.854 57.6834 132.266 59.1041 132.266 60.5855V105.596H143.437Z" fill="#E8F4FA"/>
<path d="M137.841 55C136.363 55 134.944 55.5875 133.899 56.6331C132.853 57.6788 132.266 59.097 132.266 60.5758V69.5164C132.266 68.035 132.854 66.6144 133.902 65.5669C134.949 64.5194 136.37 63.931 137.851 63.931C139.332 63.931 140.753 64.5194 141.801 65.5669C142.848 66.6144 143.437 68.035 143.437 69.5164V60.5831C143.438 59.8486 143.293 59.1212 143.012 58.4426C142.731 57.764 142.319 57.1476 141.799 56.6288C141.279 56.1101 140.662 55.6991 139.983 55.4196C139.304 55.1401 138.576 54.9975 137.841 55Z" fill="white"/>
<path d="M143.437 105.596V60.5855C143.437 59.1041 142.848 57.6834 141.801 56.6359C140.753 55.5885 139.332 55 137.851 55C136.37 55 134.949 55.5885 133.902 56.6359C132.854 57.6834 132.266 59.1041 132.266 60.5855V105.596H143.437Z" stroke="#45413C" stroke-width="1.5" stroke-linecap="round" stroke-linejoin="round"/>
</g>
<defs>
<clipPath id="clip0">
<rect width="160" height="160" fill="white"/>
</clipPath>
</defs>
</svg>
