<svg viewBox="0 0 160 160" height="160" width="160" xmlns="http://www.w3.org/2000/svg"><g transform="matrix(1.6,0,0,1.6,0,0)"><path d="M10.000 50.000 A40.000 40.000 0 1 0 90.000 50.000 A40.000 40.000 0 1 0 10.000 50.000 Z" fill="#C7F0FF" stroke="#C7F0FF"></path><path d="M33.503 78.700 A16.315 1.997 0 1 0 66.133 78.700 A16.315 1.997 0 1 0 33.503 78.700 Z" fill="#45413c" opacity=".15"></path><path d="M67.459 21.488L67.459 60.68" fill="none" stroke="#45413c" stroke-linecap="round" stroke-linejoin="round"></path><path d="M63.518 30.227 L71.398 30.227 L71.398 33.918 L63.518 33.918 Z" fill="#00b8f0" stroke="#45413c" stroke-linecap="round" stroke-linejoin="round"></path><path d="M63.518 54.067 L71.398 54.067 L71.398 57.758 L63.518 57.758 Z" fill="#00b8f0" stroke="#45413c" stroke-linecap="round" stroke-linejoin="round"></path><path d="M63.518 50.375 L71.398 50.375 L71.398 54.066 L63.518 54.066 Z" fill="#00b8f0" stroke="#45413c" stroke-linecap="round" stroke-linejoin="round"></path><path d="M63.518 46.684 L71.398 46.684 L71.398 50.375 L63.518 50.375 Z" fill="#00b8f0" stroke="#45413c" stroke-linecap="round" stroke-linejoin="round"></path><path d="M63.518 37.539 L71.398 37.539 L71.398 41.230 L63.518 41.230 Z" fill="#00b8f0" stroke="#45413c" stroke-linecap="round" stroke-linejoin="round"></path><path d="M44.046 21.488L44.046 60.68" fill="none" stroke="#45413c" stroke-linecap="round" stroke-linejoin="round"></path><path d="M40.106 30.227 L47.986 30.227 L47.986 33.918 L40.106 33.918 Z" fill="#ffe500" stroke="#45413c" stroke-linecap="round" stroke-linejoin="round"></path><path d="M40.106 54.067 L47.986 54.067 L47.986 57.758 L40.106 57.758 Z" fill="#ffe500" stroke="#45413c" stroke-linecap="round" stroke-linejoin="round"></path><path d="M40.106 50.375 L47.986 50.375 L47.986 54.066 L40.106 54.066 Z" fill="#ffe500" stroke="#45413c" stroke-linecap="round" stroke-linejoin="round"></path><path d="M40.106 41.230 L47.986 41.230 L47.986 44.921 L40.106 44.921 Z" fill="#ffe500" stroke="#45413c" stroke-linecap="round" stroke-linejoin="round"></path><path d="M40.106 37.539 L47.986 37.539 L47.986 41.230 L40.106 41.230 Z" fill="#ffe500" stroke="#45413c" stroke-linecap="round" stroke-linejoin="round"></path><path d="M32.339 21.488L32.339 60.68" fill="none" stroke="#45413c" stroke-linecap="round" stroke-linejoin="round"></path><path d="M28.399 30.227 L36.279 30.227 L36.279 33.918 L28.399 33.918 Z" fill="#ff6242" stroke="#45413c" stroke-linecap="round" stroke-linejoin="round"></path><path d="M28.399 54.067 L36.279 54.067 L36.279 57.758 L28.399 57.758 Z" fill="#ff6242" stroke="#45413c" stroke-linecap="round" stroke-linejoin="round"></path><path d="M28.399 50.375 L36.279 50.375 L36.279 54.066 L28.399 54.066 Z" fill="#ff6242" stroke="#45413c" stroke-linecap="round" stroke-linejoin="round"></path><path d="M28.399 46.684 L36.279 46.684 L36.279 50.375 L28.399 50.375 Z" fill="#ff6242" stroke="#45413c" stroke-linecap="round" stroke-linejoin="round"></path><path d="M28.399 42.993 L36.279 42.993 L36.279 46.684 L28.399 46.684 Z" fill="#ff6242" stroke="#45413c" stroke-linecap="round" stroke-linejoin="round"></path><path d="M55.752 21.488L55.752 60.68" fill="none" stroke="#45413c" stroke-linecap="round" stroke-linejoin="round"></path><path d="M51.812 54.067 L59.692 54.067 L59.692 57.758 L51.812 57.758 Z" fill="#6dd627" stroke="#45413c" stroke-linecap="round" stroke-linejoin="round"></path><path d="M51.812 50.375 L59.692 50.375 L59.692 54.066 L51.812 54.066 Z" fill="#6dd627" stroke="#45413c" stroke-linecap="round" stroke-linejoin="round"></path><path d="M51.812 46.684 L59.692 46.684 L59.692 50.375 L51.812 50.375 Z" fill="#6dd627" stroke="#45413c" stroke-linecap="round" stroke-linejoin="round"></path><path d="M51.812 42.993 L59.692 42.993 L59.692 46.684 L51.812 46.684 Z" fill="#6dd627" stroke="#45413c" stroke-linecap="round" stroke-linejoin="round"></path><path d="M51.812 24.439 L59.692 24.439 L59.692 28.130 L51.812 28.130 Z" fill="#6dd627" stroke="#45413c" stroke-linecap="round" stroke-linejoin="round"></path><path d="M20.671 33.918H78.964V37.539H20.671z" fill="#dea47a" stroke="#45413c" stroke-linecap="round" stroke-linejoin="round"></path><path d="M78.688,19.055H20.948a2.316,2.316,0,0,0-2.316,2.315V60.826a2.315,2.315,0,0,0,2.316,2.315h57.74A2.315,2.315,0,0,0,81,60.826V21.37A2.316,2.316,0,0,0,78.688,19.055ZM76.156,56.6A1.157,1.157,0,0,1,75,57.758H24.637A1.157,1.157,0,0,1,23.479,56.6v-31a1.157,1.157,0,0,1,1.158-1.157H75A1.157,1.157,0,0,1,76.156,25.6Z" fill="#dea47a"></path><path d="M78.688,19.055H20.948a2.316,2.316,0,0,0-2.316,2.316v2.8a2.315,2.315,0,0,1,2.316-2.315h57.74A2.315,2.315,0,0,1,81,24.166v-2.8A2.316,2.316,0,0,0,78.688,19.055Z" fill="#f0c2a1"></path><path d="M78.688,19.055H20.948a2.316,2.316,0,0,0-2.316,2.315V60.826a2.315,2.315,0,0,0,2.316,2.315h57.74A2.315,2.315,0,0,0,81,60.826V21.37A2.316,2.316,0,0,0,78.688,19.055ZM76.156,56.6A1.157,1.157,0,0,1,75,57.758H24.637A1.157,1.157,0,0,1,23.479,56.6v-31a1.157,1.157,0,0,1,1.158-1.157H75A1.157,1.157,0,0,1,76.156,25.6Z" fill="none" stroke="#45413c" stroke-linecap="round" stroke-linejoin="round"></path></g></svg>