<svg width="84" height="82" viewBox="0 0 84 82" fill="none" xmlns="http://www.w3.org/2000/svg">
<path d="M3.81592 40.9999C3.81592 46.2002 4.8402 51.3497 6.83029 56.1542C8.82038 60.9587 11.7373 65.3241 15.4145 69.0013C19.0917 72.6785 23.4572 75.5954 28.2617 77.5855C33.0661 79.5756 38.2156 80.5999 43.4159 80.5999C48.6163 80.5999 53.7657 79.5756 58.5702 77.5855C63.3747 75.5954 67.7402 72.6785 71.4174 69.0013C75.0946 65.3241 78.0115 60.9587 80.0015 56.1542C81.9916 51.3497 83.0159 46.2002 83.0159 40.9999C83.0159 30.4973 78.8438 20.4249 71.4174 12.9985C63.9909 5.57203 53.9185 1.3999 43.4159 1.3999C32.9133 1.3999 22.8409 5.57203 15.4145 12.9985C7.98805 20.4249 3.81592 30.4973 3.81592 40.9999Z" fill="#DAEDF7" stroke="#DAEDF7"/>
<path d="M74.7124 34.8073C74.7124 35.3642 74.4912 35.8983 74.0974 36.2921C73.7036 36.6859 73.1695 36.9071 72.6126 36.9071H30.6198C30.0629 36.9071 29.5288 36.6859 29.135 36.2921C28.7412 35.8983 28.52 35.3642 28.52 34.8073V11.7106C28.52 11.1537 28.7412 10.6196 29.135 10.2259C29.5288 9.83207 30.0629 9.61084 30.6198 9.61084H72.6126C73.1695 9.61084 73.7036 9.83207 74.0974 10.2259C74.4912 10.6196 74.7124 11.1537 74.7124 11.7106V22.2096L81.5583 29.9118C81.693 30.063 81.781 30.25 81.8118 30.4501C81.8426 30.6503 81.8148 30.8551 81.7319 31.0398C81.6489 31.2245 81.5142 31.3813 81.3441 31.4912C81.174 31.6011 80.9757 31.6594 80.7732 31.6591H74.7124V34.8073Z" fill="white" stroke="#45413C" stroke-linecap="round" stroke-linejoin="round"/>
<path d="M68.413 16.9609H52.666" stroke="#45413C" stroke-linecap="round" stroke-linejoin="round"/>
<path d="M68.413 22.21H52.666" stroke="#45413C" stroke-linecap="round" stroke-linejoin="round"/>
<path d="M61.4146 27.459H52.666" stroke="#45413C" stroke-linecap="round" stroke-linejoin="round"/>
<path d="M9.01408 71.3833C9.01539 72.0118 9.26561 72.6141 9.70999 73.0585C10.1544 73.5029 10.7567 73.7531 11.3851 73.7544H58.8061C59.4354 73.7544 60.039 73.5048 60.4845 73.0602C60.9299 72.6157 61.1808 72.0126 61.1821 71.3833V45.3008C61.1821 44.6706 60.9318 44.0663 60.4862 43.6207C60.0406 43.1751 59.4363 42.9248 58.8061 42.9248H11.3851C10.7558 42.9261 10.1528 43.177 9.70824 43.6225C9.26373 44.0679 9.01408 44.6715 9.01408 45.3008V57.1561L1.28416 65.8492C1.13317 66.0207 1.03483 66.2321 1.00094 66.4581C0.967043 66.6841 0.999034 66.915 1.09307 67.1233C1.18711 67.3315 1.33921 67.5082 1.53113 67.6322C1.72306 67.7562 1.94667 67.8222 2.17516 67.8223H9.01903L9.01408 71.3833Z" fill="white" stroke="#45413C" stroke-linecap="round" stroke-linejoin="round"/>
<path d="M55.2511 53.957H37.4678" stroke="#45413C" stroke-linecap="round" stroke-linejoin="round"/>
<path d="M55.2511 59.8843H37.4678" stroke="#45413C" stroke-linecap="round" stroke-linejoin="round"/>
<path d="M47.348 65.8125H37.4678" stroke="#45413C" stroke-linecap="round" stroke-linejoin="round"/>
<path d="M31.9297 23.0264C31.9297 25.192 32.79 27.2689 34.3213 28.8003C35.8526 30.3316 37.9296 31.1919 40.0952 31.1919C42.2608 31.1919 44.3378 30.3316 45.8691 28.8003C47.4004 27.2689 48.2607 25.192 48.2607 23.0264C48.2607 20.8607 47.4004 18.7838 45.8691 17.2525C44.3378 15.7211 42.2608 14.8608 40.0952 14.8608C37.9296 14.8608 35.8526 15.7211 34.3213 17.2525C32.79 18.7838 31.9297 20.8607 31.9297 23.0264Z" fill="#FFE8D1" stroke="#45413C"/>
<path d="M37.4678 22.8377C37.4678 23.5345 37.7446 24.2028 38.2373 24.6956C38.7301 25.1883 39.3984 25.4651 40.0952 25.4651C40.7921 25.4651 41.4604 25.1883 41.9531 24.6956C42.4459 24.2028 42.7227 23.5345 42.7227 22.8377V21.5239C42.7227 20.8271 42.4459 20.1588 41.9531 19.666C41.4604 19.1733 40.7921 18.8965 40.0952 18.8965C39.3984 18.8965 38.7301 19.1733 38.2373 19.666C37.7446 20.1588 37.4678 20.8271 37.4678 21.5239V22.8377Z" fill="#DAEDF7"/>
<path d="M37.4678 22.8377C37.4678 23.5345 37.7446 24.2028 38.2373 24.6956C38.7301 25.1883 39.3984 25.4651 40.0952 25.4651C40.7921 25.4651 41.4604 25.1883 41.9531 24.6956C42.4459 24.2028 42.7227 23.5345 42.7227 22.8377V21.5239C42.7227 20.8271 42.4459 20.1588 41.9531 19.666C41.4604 19.1733 40.7921 18.8965 40.0952 18.8965C39.3984 18.8965 38.7301 19.1733 38.2373 19.666C37.7446 20.1588 37.4678 20.8271 37.4678 21.5239V22.8377Z" fill="#FFCEBF" stroke="#45413C"/>
<path d="M34.6392 29.101C36.1375 30.4472 38.0807 31.192 40.0951 31.192C42.1094 31.192 44.0526 30.4472 45.5509 29.101C45.1022 28.0238 44.3447 27.1035 43.3737 26.4562C42.4028 25.8088 41.262 25.4634 40.0951 25.4634C38.9281 25.4634 37.7873 25.8088 36.8164 26.4562C35.8454 27.1035 35.0879 28.0238 34.6392 29.101Z" fill="#FF6242" stroke="#45413C"/>
<path d="M37.4897 21.1842C37.5588 20.6545 37.7877 20.1584 38.146 19.7621C38.5042 19.3658 38.9747 19.0881 39.4948 18.966C40.0149 18.8439 40.5598 18.8833 41.057 19.0789C41.5541 19.2744 41.9799 19.6169 42.2774 20.0606C41.6558 20.6637 40.8821 21.0867 40.039 21.2846C39.1958 21.4825 38.3147 21.4478 37.4897 21.1842Z" fill="#A86C4D" stroke="#45413C" stroke-linejoin="round"/>
<path d="M12.8286 57.63C12.8286 58.8409 13.0671 60.04 13.5305 61.1587C13.9939 62.2774 14.6731 63.2939 15.5293 64.1502C16.3856 65.0064 17.4021 65.6856 18.5208 66.149C19.6395 66.6124 20.8386 66.8509 22.0495 66.8509C23.2604 66.8509 24.4594 66.6124 25.5781 66.149C26.6969 65.6856 27.7134 65.0064 28.5696 64.1502C29.4258 63.2939 30.105 62.2774 30.5684 61.1587C31.0318 60.04 31.2703 58.8409 31.2703 57.63C31.2703 56.4191 31.0318 55.2201 30.5684 54.1014C30.105 52.9826 29.4258 51.9661 28.5696 51.1099C27.7134 50.2537 26.6969 49.5745 25.5781 49.1111C24.4594 48.6477 23.2604 48.4092 22.0495 48.4092C20.8386 48.4092 19.6395 48.6477 18.5208 49.1111C17.4021 49.5745 16.3856 50.2537 15.5293 51.1099C14.6731 51.9661 13.9939 52.9826 13.5305 54.1014C13.0671 55.2201 12.8286 56.4191 12.8286 57.63Z" fill="#B8ECFF" stroke="#45413C"/>
<path d="M16.7729 54.2798H27.3273V63.0066H16.7729V54.2798Z" fill="#00B8F0"/>
<path d="M16.7729 54.2798H27.3273V63.0066H16.7729V54.2798Z" stroke="#45413C" stroke-linecap="round" stroke-linejoin="round"/>
<path d="M26.171 54.2877L18.2401 63.0056H18.0817C17.9098 63.0059 17.7395 62.9722 17.5806 62.9065C17.4217 62.8409 17.2773 62.7445 17.1557 62.6229C17.0341 62.5013 16.9377 62.3569 16.872 62.198C16.8064 62.0391 16.7727 61.8688 16.773 61.6969V55.5886C16.7727 55.4166 16.8064 55.2463 16.872 55.0874C16.9377 54.9285 17.0341 54.7841 17.1557 54.6625C17.2773 54.541 17.4217 54.4446 17.5806 54.3789C17.7395 54.3132 17.9098 54.2795 18.0817 54.2798H26.0176C26.07 54.2798 26.1186 54.2837 26.171 54.2877Z" fill="#4ACFFF"/>
<path d="M27.3273 55.5886V61.6969C27.3276 61.8689 27.2939 62.0393 27.2282 62.1983C27.1624 62.3572 27.0659 62.5017 26.9442 62.6232C26.8226 62.7448 26.6781 62.8412 26.519 62.9068C26.36 62.9725 26.1896 63.006 26.0176 63.0056H18.0817C17.9098 63.0059 17.7395 62.9722 17.5806 62.9065C17.4217 62.8409 17.2773 62.7445 17.1557 62.6229C17.0341 62.5013 16.9377 62.3569 16.872 62.198C16.8064 62.0391 16.7727 61.8688 16.773 61.6969V55.5886C16.7727 55.4166 16.8064 55.2463 16.872 55.0874C16.9377 54.9285 17.0341 54.7841 17.1557 54.6625C17.2773 54.541 17.4217 54.4446 17.5806 54.3789C17.7395 54.3132 17.9098 54.2795 18.0817 54.2798H26.0176C26.07 54.2798 26.1166 54.2798 26.171 54.2877C26.4896 54.3253 26.7834 54.4785 26.9965 54.7183C27.2096 54.9581 27.3274 55.2677 27.3273 55.5886Z" stroke="#45413C" stroke-linecap="round" stroke-linejoin="round"/>
<path d="M22.0493 54.28V52.6802Z" fill="#FF6242"/>
<path d="M22.0493 54.28V52.6802" stroke="#45413C" stroke-linecap="round" stroke-linejoin="round"/>
<path d="M20.939 51.6357C20.939 51.9303 21.056 52.2128 21.2643 52.4211C21.4726 52.6294 21.7551 52.7465 22.0497 52.7465C22.3443 52.7465 22.6269 52.6294 22.8352 52.4211C23.0435 52.2128 23.1605 51.9303 23.1605 51.6357C23.1605 51.3411 23.0435 51.0586 22.8352 50.8502C22.6269 50.6419 22.3443 50.5249 22.0497 50.5249C21.7551 50.5249 21.4726 50.6419 21.2643 50.8502C21.056 51.0586 20.939 51.3411 20.939 51.6357Z" fill="#FF6242" stroke="#45413C" stroke-linecap="round" stroke-linejoin="round"/>
<path d="M20.7627 64.7354V63.0059H23.3377V64.7215" stroke="#45413C" stroke-linecap="round" stroke-linejoin="round"/>
<path d="M19.3213 58.2348C19.3213 58.5966 19.465 58.9436 19.7209 59.1995C19.9767 59.4553 20.3237 59.599 20.6855 59.599C21.0473 59.599 21.3943 59.4553 21.6502 59.1995C21.906 58.9436 22.0497 58.5966 22.0497 58.2348C22.0497 57.873 21.906 57.526 21.6502 57.2702C21.3943 57.0143 21.0473 56.8706 20.6855 56.8706C20.3237 56.8706 19.9767 57.0143 19.7209 57.2702C19.465 57.526 19.3213 57.873 19.3213 58.2348Z" fill="white" stroke="#45413C" stroke-linecap="round" stroke-linejoin="round"/>
<path d="M22.0503 58.2348C22.0503 58.5966 22.194 58.9436 22.4499 59.1995C22.7057 59.4553 23.0527 59.599 23.4145 59.599C23.7763 59.599 24.1233 59.4553 24.3792 59.1995C24.635 58.9436 24.7787 58.5966 24.7787 58.2348C24.7787 57.873 24.635 57.526 24.3792 57.2702C24.1233 57.0143 23.7763 56.8706 23.4145 56.8706C23.0527 56.8706 22.7057 57.0143 22.4499 57.2702C22.194 57.526 22.0503 57.873 22.0503 58.2348Z" fill="white" stroke="#45413C" stroke-linecap="round" stroke-linejoin="round"/>
</svg>
