<svg xmlns="http://www.w3.org/2000/svg" version="1.1" xmlns:xlink="http://www.w3.org/1999/xlink" xmlns:svgjs="http://svgjs.com/svgjs" viewBox="0 0 160 160" width="160" height="160"><g transform="matrix(1.6,0,0,1.6,0,0)"><path d="M8.910 50.000 A40.000 40.000 0 1 0 88.910 50.000 A40.000 40.000 0 1 0 8.910 50.000 Z" fill="#c7f0ff" stroke="#c7f0ff" stroke-miterlimit="10"></path><path d="M72.188,11.81a9.449,9.449,0,0,1,8.863,9.577v8a1.225,1.225,0,0,1-.791,1.151c-4.364,1.62-9.2,2.461-16.79-.017a1.239,1.239,0,0,1-.846-1.173V21.632C62.624,16.086,66.571,11.617,72.188,11.81Z" fill="#ffdf3d"></path><path d="M72.188,11.81c-5.616-.193-9.564,4.276-9.564,9.822v2.457c0-5.43,3.784-9.828,9.214-9.828s9.213,4.4,9.213,9.828v-2.7A9.449,9.449,0,0,0,72.188,11.81Z" fill="#ffef9e"></path><path d="M72.188,11.81a9.449,9.449,0,0,1,8.863,9.577v8a1.225,1.225,0,0,1-.791,1.151c-4.364,1.62-9.2,2.461-16.79-.017a1.239,1.239,0,0,1-.846-1.173V21.632C62.624,16.086,66.571,11.617,72.188,11.81Z" fill="none" stroke="#45413c" stroke-linecap="round" stroke-linejoin="round"></path><path d="M71.176,75.9a10.016,10.016,0,0,1-1.653-.142,1.1,1.1,0,1,1,.362-2.174c3.043.506,5-.844,7.268-2.409,2.115-1.462,4.513-3.119,7.986-3.119a1.1,1.1,0,1,1,0,2.2c-2.785,0-4.7,1.325-6.733,2.728C76.329,74.425,74.193,75.9,71.176,75.9Z" fill="#87898c" stroke="#45413c" stroke-linecap="round" stroke-linejoin="round"></path><path d="M59.685 80.489 A12.679 1.902 0 1 0 85.043 80.489 A12.679 1.902 0 1 0 59.685 80.489 Z" fill="#45413c" opacity=".15"></path><path d="M65.471,78.452l-1.4-33.306a8.665,8.665,0,0,1-1.981,5.51A6.987,6.987,0,0,1,56.654,52.9,7.805,7.805,0,0,1,52.1,51.592V46.817A2.572,2.572,0,0,0,53.562,45c.2,1.228.872,2.968,3.092,2.968a2.243,2.243,0,0,0,1.755-.594,3.884,3.884,0,0,0,.742-2.227,12.687,12.687,0,0,1,25.374,0V55.718H79.591L78.205,78.452Z" fill="#ffaa54"></path><path d="M84,45.146a12.69,12.69,0,0,0-24.315,0h-.53a12.687,12.687,0,0,1,25.374,0Z" fill="#ffcc99"></path><path d="M65.471,78.452l-1.4-33.306a8.665,8.665,0,0,1-1.981,5.51A6.987,6.987,0,0,1,56.654,52.9,7.805,7.805,0,0,1,52.1,51.592V46.817A2.572,2.572,0,0,0,53.562,45c.2,1.228.872,2.968,3.092,2.968a2.243,2.243,0,0,0,1.755-.594,3.884,3.884,0,0,0,.742-2.227,12.687,12.687,0,0,1,25.374,0V55.718H79.591L78.205,78.452Z" fill="none" stroke="#45413c" stroke-linecap="round" stroke-linejoin="round"></path><path d="M79.388,77.254a1.268,1.268,0,0,1-1.062,1.962H73.108a1.268,1.268,0,0,1-1.127-1.851C73.367,74.691,77.807,74.84,79.388,77.254Z" fill="#915e3a" stroke="#45413c" stroke-linecap="round" stroke-linejoin="round"></path><path d="M64.291,77.254a1.267,1.267,0,0,0,1.061,1.962h5.219A1.269,1.269,0,0,0,71.7,77.365C70.312,74.691,65.872,74.84,64.291,77.254Z" fill="#915e3a" stroke="#45413c" stroke-linecap="round" stroke-linejoin="round"></path><path d="M71.839,43.736,66.822,33.491a12.717,12.717,0,0,1,10.032,0Z" fill="#ffffff" stroke="#45413c" stroke-linecap="round" stroke-linejoin="round"></path><path d="M76.832,39.508l-4.993,4.228,5.015-10.245,2.41,5.185a.585.585,0,0,1-.531.832Z" fill="#ffcc99" stroke="#45413c" stroke-linecap="round" stroke-linejoin="round"></path><path d="M66.845,39.508l4.994,4.228L66.823,33.491l-2.409,5.185a.585.585,0,0,0,.531.832Z" fill="#ffcc99" stroke="#45413c" stroke-linecap="round" stroke-linejoin="round"></path><path d="M71.838 56.718L71.838 43.736" fill="#00b8f0" stroke="#45413c" stroke-linecap="round" stroke-linejoin="round"></path><path d="M76.854,33.491a12.594,12.594,0,0,0-2.073-.687,1,1,0,0,1-.768-.973V28.769H69.662v3.062a1,1,0,0,1-.768.973,12.594,12.594,0,0,0-2.073.687,5.534,5.534,0,0,0,10.033,0Z" fill="#ffcebf" stroke="#45413c" stroke-linecap="round" stroke-linejoin="round" stroke-width="1.009"></path><path d="M79.591,58.184a2.467,2.467,0,1,0,4.934,0V55.718H79.591Z" fill="#ffe500" stroke="#45413c" stroke-linecap="round" stroke-linejoin="round"></path><path d="M81.341,45.741a4.511,4.511,0,0,1-.674,2.461,4.5,4.5,0,0,0-.827,2.6l-.25,4.915" fill="none" stroke="#45413c" stroke-linecap="round" stroke-linejoin="round"></path><path d="M71.838 78.452L71.838 62.932" fill="#00b8f0" stroke="#45413c" stroke-linecap="round" stroke-linejoin="round"></path><path d="M43.906,36.687l-5.871-2.106-.47-1a1.1,1.1,0,0,1,.526-1.467l8.973-4.236a1.1,1.1,0,0,1,1.468.527l.47,1L46.9,35.275Z" fill="#87898c" stroke="#45413c" stroke-linecap="round" stroke-linejoin="round"></path><path d="M65.268,73.622a9.009,9.009,0,0,0-5.726,2.315,8.533,8.533,0,0,1-7.748,1.477,3.639,3.639,0,0,1-2.428-3.045,5.271,5.271,0,0,1,4.284-6.024,5.434,5.434,0,0,0,3.729-3.008c1.186-2.456.89-5.8-.833-9.41-2.741-5.749-9.239-18.508-9.3-18.637a1.1,1.1,0,1,0-1.965,1c.066.128,6.551,12.862,9.28,18.586,1.408,2.953,1.714,5.687.837,7.5A3.234,3.234,0,0,1,53.155,66.2a7.435,7.435,0,0,0-5.968,8.5,5.851,5.851,0,0,0,3.818,4.776,8.141,8.141,0,0,0,2.122.483,11.147,11.147,0,0,0,7.818-2.319A6.744,6.744,0,0,1,65.364,75.9Z" fill="#87898c" stroke="#45413c" stroke-linecap="round" stroke-linejoin="round"></path><path d="M48.129,39.172l-1.871.886a1,1,0,0,1-1.331-.475l-1.535-3.239L47.07,34.6l1.535,3.238A1,1,0,0,1,48.129,39.172Z" fill="#c0dceb" stroke="#45413c" stroke-linecap="round" stroke-linejoin="round"></path><path d="M51.051,44.332a2.784,2.784,0,1,1,2.4,5.012l-1.4.672a1.457,1.457,0,0,1-1.064.081,1.278,1.278,0,0,1-.774-.663L48.949,46.8a1.366,1.366,0,0,1,.7-1.8Z" fill="#ffe500" stroke="#45413c" stroke-linecap="round" stroke-linejoin="round"></path><path d="M97.369,76.878H86.139a1,1,0,0,1-1-1V65.853h13.23V75.878A1,1,0,0,1,97.369,76.878Z" fill="#00b8f0" stroke="#45413c" stroke-linecap="round" stroke-linejoin="round"></path><path d="M98.369,65.853H85.139V60.238a1,1,0,0,1,1-1H94.19a4.179,4.179,0,0,1,4.179,4.179Z" fill="#656769"></path><path d="M98.369,63.418a4.179,4.179,0,0,0-4.179-4.18H86.139a1,1,0,0,0-1,1v3.41a1.1,1.1,0,0,1,1.1-1.1h7.52a4.592,4.592,0,0,1,4.4,3.307h.209Z" fill="#87898c"></path><path d="M98.369,65.853H85.139V60.238a1,1,0,0,1,1-1H94.19a4.179,4.179,0,0,1,4.179,4.179Z" fill="none" stroke="#45413c" stroke-linecap="round" stroke-linejoin="round"></path><path d="M84.037 76.878 A2.205 2.205 0 1 0 88.447 76.878 A2.205 2.205 0 1 0 84.037 76.878 Z" fill="#656769" stroke="#45413c" stroke-linecap="round" stroke-linejoin="round"></path><path d="M96.164 77.981 A1.103 1.103 0 1 0 98.370 77.981 A1.103 1.103 0 1 0 96.164 77.981 Z" fill="#656769" stroke="#45413c" stroke-linecap="round" stroke-linejoin="round"></path><path d="M88.447 61.443L92.857 61.443" fill="none" stroke="#45413c" stroke-linecap="round" stroke-linejoin="round"></path><path d="M88.447 68.058H95.062V71.36600000000001H88.447z" fill="none" stroke="#45413c" stroke-linecap="round" stroke-linejoin="round"></path><path d="M2.451 70.291 A20.948 1.902 0 1 0 44.347 70.291 A20.948 1.902 0 1 0 2.451 70.291 Z" fill="#45413c" opacity=".15"></path><path d="M11.272,49.79H5.657a1,1,0,0,1-1-1V46.38a1,1,0,0,1,1-1h5.615Z" fill="#ff6242"></path><path d="M5.759,45.38a1.1,1.1,0,0,0-1.1,1.1v2.2a1.1,1.1,0,0,1,1.1-1.1h5.513v-2.2Z" fill="#ff866e"></path><path d="M11.272,49.79H5.657a1,1,0,0,1-1-1V46.38a1,1,0,0,1,1-1h5.615Z" fill="none" stroke="#45413c" stroke-linecap="round" stroke-linejoin="round"></path><path d="M35.527,49.79h5.615a1,1,0,0,0,1-1V46.38a1,1,0,0,0-1-1H35.527Z" fill="#ff6242"></path><path d="M41.039,45.38a1.1,1.1,0,0,1,1.1,1.1v2.2a1.1,1.1,0,0,0-1.1-1.1H35.527v-2.2Z" fill="#ff866e"></path><path d="M35.527,49.79h5.615a1,1,0,0,0,1-1V46.38a1,1,0,0,0-1-1H35.527Z" fill="none" stroke="#45413c" stroke-linecap="round" stroke-linejoin="round"></path><path d="M37.732,47.585l-3.246-7.3a4.411,4.411,0,0,0-4.03-2.619H16.343a4.411,4.411,0,0,0-4.03,2.619l-3.246,7.3L3.245,52.436a2.2,2.2,0,0,0-.793,1.694v6.685A2.2,2.2,0,0,0,4.657,63.02H42.142a2.2,2.2,0,0,0,2.2-2.205V54.13a2.206,2.206,0,0,0-.794-1.694Z" fill="#ff6242"></path><path d="M44.347,54.13a2.206,2.206,0,0,0-.794-1.694l-5.821-4.851-3.246-7.3a4.409,4.409,0,0,0-4.03-2.619H16.343a4.409,4.409,0,0,0-4.03,2.619l-3.246,7.3L3.245,52.436a2.2,2.2,0,0,0-.793,1.694v3.307a2.2,2.2,0,0,1,.793-1.693l5.822-4.852,3.246-7.3a4.409,4.409,0,0,1,4.03-2.619H30.456a4.409,4.409,0,0,1,4.03,2.619l3.246,7.3,5.821,4.852a2.2,2.2,0,0,1,.794,1.693Z" fill="#ff866e"></path><path d="M37.732,47.585l-3.246-7.3a4.411,4.411,0,0,0-4.03-2.619H16.343a4.411,4.411,0,0,0-4.03,2.619l-3.246,7.3L3.245,52.436a2.2,2.2,0,0,0-.793,1.694v6.685A2.2,2.2,0,0,0,4.657,63.02H42.142a2.2,2.2,0,0,0,2.2-2.205V54.13a2.206,2.206,0,0,0-.794-1.694Z" fill="none" stroke="#45413c" stroke-linecap="round" stroke-linejoin="round"></path><path d="M10.272,69.635H6.759a1,1,0,0,1-1-1V63.02h5.513v5.615A1,1,0,0,1,10.272,69.635Z" fill="#656769" stroke="#45413c" stroke-linecap="round" stroke-linejoin="round"></path><path d="M40.039,69.635H36.527a1,1,0,0,1-1-1V63.02h5.512v5.615A1,1,0,0,1,40.039,69.635Z" fill="#656769" stroke="#45413c" stroke-linecap="round" stroke-linejoin="round"></path><path d="M42.347,64.122H4.452a2,2,0,0,1-2-2V58.61h41.9v3.512A2,2,0,0,1,42.347,64.122Z" fill="#c7f0ff"></path><path d="M2.452 58.61H44.347V60.815H2.452z" fill="#ffffff"></path><path d="M42.347,64.122H4.452a2,2,0,0,1-2-2V58.61h41.9v3.512A2,2,0,0,1,42.347,64.122Z" fill="none" stroke="#45413c" stroke-linecap="round" stroke-linejoin="round"></path><path d="M17.887 60.815 L28.912 60.815 L28.912 66.328 L17.887 66.328 Z" fill="#ffffff" stroke="#45413c" stroke-linecap="round" stroke-linejoin="round"></path><path d="M32.219,58.61H14.579l.685-2.74A2.205,2.205,0,0,1,17.4,54.2H29.4a2.2,2.2,0,0,1,2.139,1.67Z" fill="#87898c"></path><path d="M32.219,58.61H14.579l.685-2.74A2.205,2.205,0,0,1,17.4,54.2H29.4a2.2,2.2,0,0,1,2.139,1.67Z" fill="none" stroke="#45413c" stroke-linecap="round" stroke-linejoin="round"></path><path d="M9.067,58.61H2.452V54.2h2.93a3.308,3.308,0,0,1,3.209,2.5Z" fill="#ff6242"></path><path d="M9.067,58.61H2.452V54.2h2.93a3.308,3.308,0,0,1,3.209,2.5Z" fill="#ffe500" stroke="#45413c" stroke-linecap="round" stroke-linejoin="round"></path><path d="M15.131 56.405L31.668 56.405" fill="none" stroke="#45413c" stroke-linecap="round" stroke-linejoin="round"></path><path d="M37.734,58.61h6.615V54.2h-2.93a3.307,3.307,0,0,0-3.208,2.5Z" fill="#ffe500" stroke="#45413c" stroke-linecap="round" stroke-linejoin="round"></path><path d="M33.081,41.872a3.308,3.308,0,0,0-3.04-2.005H16.763a3.308,3.308,0,0,0-3.04,2.005l-2.052,4.787a.617.617,0,0,0,.61.926H34.522a.617.617,0,0,0,.611-.926Z" fill="#00b8f0"></path><path d="M30.017,39.867H16.763a3.308,3.308,0,0,0-3.04,2.005l-2.052,4.787a.617.617,0,0,0,.61.926H22.3Z" fill="#4acfff"></path><path d="M33.081,41.872a3.308,3.308,0,0,0-3.04-2.005H16.763a3.308,3.308,0,0,0-3.04,2.005l-2.052,4.787a.617.617,0,0,0,.61.926H34.522a.617.617,0,0,0,.611-.926Z" fill="none" stroke="#45413c" stroke-linecap="round" stroke-linejoin="round"></path><path d="M80.437,24.089a1.511,1.511,0,0,1-1.388,1.5,7.364,7.364,0,0,1-14.423,0,1.5,1.5,0,0,1-.159-2.973s7.7-2.96,9.394-6.493a.358.358,0,0,1,.674.079,7.963,7.963,0,0,0,4.018,5.109,1.233,1.233,0,0,1,.655,1.088v.217A1.513,1.513,0,0,1,80.437,24.089Z" fill="#ffcebf" stroke="#45413c" stroke-linecap="round" stroke-linejoin="round"></path><path d="M68.153 22.553 A0.921 0.921 0 1 0 69.995 22.553 A0.921 0.921 0 1 0 68.153 22.553 Z" fill="#45413c"></path><path d="M73.681 22.553 A0.921 0.921 0 1 0 75.523 22.553 A0.921 0.921 0 1 0 73.681 22.553 Z" fill="#45413c"></path><path d="M66.924 25.010 A0.921 0.921 0 1 0 68.766 25.010 A0.921 0.921 0 1 0 66.924 25.010 Z" fill="#ffb59e"></path><path d="M74.909 25.010 A0.921 0.921 0 1 0 76.751 25.010 A0.921 0.921 0 1 0 74.909 25.010 Z" fill="#ffb59e"></path><path d="M70,27.216a3.321,3.321,0,0,0,3.685,0" fill="none" stroke="#45413c" stroke-linecap="round" stroke-linejoin="round"></path></g></svg>