<svg xmlns="http://www.w3.org/2000/svg" version="1.1" xmlns:xlink="http://www.w3.org/1999/xlink" xmlns:svgjs="http://svgjs.com/svgjs" viewBox="0 0 160 160" width="160" height="160"><g transform="matrix(1.6,0,0,1.6,0,0)"><path d="M12.034 50.000 A40.000 40.000 0 1 0 92.034 50.000 A40.000 40.000 0 1 0 12.034 50.000 Z" fill="#c7f0ff"></path><path d="M59.034,59.5l3.146-7.152a3.6,3.6,0,0,1,6.638.113L71.634,59.5Z" fill="#6dd627"></path><path d="M62.18,54.148a3.6,3.6,0,0,1,6.638.113l2.1,5.239h.72l-2.816-7.039a3.6,3.6,0,0,0-6.638-.113L59.034,59.5h.792Z" fill="#9ceb60"></path><path d="M59.034,59.5l3.146-7.152a3.6,3.6,0,0,1,6.638.113L71.634,59.5Z" fill="none" stroke="#45413c" stroke-linecap="round" stroke-linejoin="round"></path><path d="M64.434,59.5l5.653-11.307a2.4,2.4,0,0,1,4.293,0L80.034,59.5Z" fill="#6dd627"></path><path d="M70.087,50.627a2.4,2.4,0,0,1,4.294,0L78.817,59.5h1.217L74.381,48.193a2.4,2.4,0,0,0-4.294,0L64.434,59.5H65.65Z" fill="#9ceb60"></path><path d="M64.434,59.5l5.653-11.307a2.4,2.4,0,0,1,4.293,0L80.034,59.5Z" fill="none" stroke="#45413c" stroke-linecap="round" stroke-linejoin="round"></path><path d="M45.434,66.5l-3.147-7.152a3.6,3.6,0,0,0-6.638.113L32.834,66.5Z" fill="#6dd627"></path><path d="M42.287,61.148a3.6,3.6,0,0,0-6.638.113L33.554,66.5h-.72l2.815-7.039a3.6,3.6,0,0,1,6.638-.113L45.434,66.5h-.793Z" fill="#9ceb60"></path><path d="M45.434,66.5l-3.147-7.152a3.6,3.6,0,0,0-6.638.113L32.834,66.5Z" fill="none" stroke="#45413c" stroke-linecap="round" stroke-linejoin="round"></path><path d="M40.034,66.5,34.38,55.193a2.4,2.4,0,0,0-4.293,0L24.434,66.5Z" fill="#6dd627"></path><path d="M34.381,57.627a2.4,2.4,0,0,0-4.294,0L25.65,66.5H24.434l5.653-11.307a2.4,2.4,0,0,1,4.294,0L40.034,66.5H38.817Z" fill="#9ceb60"></path><path d="M40.034,66.5,34.38,55.193a2.4,2.4,0,0,0-4.293,0L24.434,66.5Z" fill="none" stroke="#45413c" stroke-linecap="round" stroke-linejoin="round"></path><path d="M72.622,58.621,63.789,53.6a4.8,4.8,0,0,0-5.237.419L45.677,63.989A12,12,0,0,1,38.331,66.5H15.6a40,40,0,0,0,75.291-7H76.07A7.2,7.2,0,0,1,72.622,58.621Z" fill="#dea47a"></path><path d="M38.331,66.5a3.677,3.677,0,0,0,4.461,2.189,11.984,11.984,0,0,0,3.935-2.017L63.553,53.5a4.792,4.792,0,0,0-5,.526L45.677,63.989A12,12,0,0,1,38.331,66.5Z" fill="#45413c" opacity=".15"></path><path d="M93.034 59.5L95.434 59.5" fill="none" stroke="#45413c" stroke-linecap="round" stroke-linejoin="round"></path><path d="M11.034 66.5L8.534 66.5" fill="none" stroke="#45413c" stroke-linecap="round" stroke-linejoin="round"></path><path d="M13.034,66.5h25.3a12,12,0,0,0,7.346-2.511l12.875-9.968a4.8,4.8,0,0,1,5.237-.419l8.833,5.019a7.2,7.2,0,0,0,3.448.879H91.034" fill="none" stroke="#45413c" stroke-linecap="round" stroke-linejoin="round"></path><path d="M32.734,76.994a3.4,3.4,0,0,1,4.8,0" fill="none" stroke="#bf8256" stroke-linecap="round" stroke-linejoin="round"></path><path d="M62.034,64.494a3.4,3.4,0,0,1,4.8,0" fill="none" stroke="#bf8256" stroke-linecap="round" stroke-linejoin="round"></path><path d="M48.734,72a3.393,3.393,0,0,1,4.8,0" fill="none" stroke="#bf8256" stroke-linecap="round" stroke-linejoin="round"></path><path d="M71.534,75a3.393,3.393,0,0,1,4.8,0" fill="none" stroke="#bf8256" stroke-linecap="round" stroke-linejoin="round"></path><path d="M42.539 35.146L48.918 46.417 45.732 33.874" fill="none" stroke="#45413c" stroke-linecap="round" stroke-linejoin="round"></path><path d="M59.498 34.573L58.31 39.382 46.382 36.435 44.999 30.99 59.498 34.573z" fill="#bdbec0" stroke="#45413c" stroke-linecap="round" stroke-linejoin="round"></path><path d="M58.864 35.931H61.616V38.683H58.864z" fill="#bdbec0" stroke="#45413c" stroke-linecap="round" stroke-linejoin="round" transform="translate(9.573 86.841) rotate(-76.122)"></path><path d="M11.01 24.294L9.03 32.31" fill="none" stroke="#45413c" stroke-linecap="round" stroke-linejoin="round"></path><path d="M22.154 31.364 L28.759 31.364 L28.759 37.969 L22.154 37.969 Z" fill="#bdbec0" stroke="#45413c" stroke-linecap="round" stroke-linejoin="round" transform="translate(-14.304 51.067) rotate(-76.124)"></path><path d="M23.231 26.463L13.651 37.703 19.026 26.274" fill="none" stroke="#45413c" stroke-linecap="round" stroke-linejoin="round"></path><path d="M33.406,12.818,25,15.845l.135-1.923a2.628,2.628,0,0,1,3.249-2.344Z" fill="#ff6242" stroke="#45413c" stroke-linecap="round" stroke-linejoin="round"></path><path d="M33.406 12.818L38.215 14.006" fill="none" stroke="#45413c" stroke-linecap="round" stroke-linejoin="round"></path><path d="M25.004 15.845L24.212 19.051" fill="none" stroke="#45413c" stroke-linecap="round" stroke-linejoin="round"></path><path d="M18.35,21.005h0a7.245,7.245,0,0,1,7.861-3.161l6.559,1.621a4.948,4.948,0,0,1,2.468,1.466l3.006,3.288L59.175,29.39a1.651,1.651,0,0,1,.966,2.537l-1.347,1.965a3.3,3.3,0,0,1-3.516,1.339l-5.157-1.274a9.907,9.907,0,0,0-9.4,2.632l-2.834,2.85L26.664,36.666l1.584-6.412Z" fill="#ff6242"></path><path d="M25.617,20.249l6.56,1.62a4.958,4.958,0,0,1,2.468,1.467l3,3.287L58.581,31.8a1.625,1.625,0,0,1,1.064.855l.5-.723a1.652,1.652,0,0,0-.966-2.537L38.244,24.219l-3.005-3.288a4.955,4.955,0,0,0-2.469-1.466l-6.559-1.621a7.243,7.243,0,0,0-7.86,3.161l.828.774A7.237,7.237,0,0,1,25.617,20.249Z" fill="#ff866e"></path><path d="M38.244,24.219l-3.005-3.288A4.981,4.981,0,0,0,34,19.96l-9.771,5.9.887,1.469,3.13,2.925-.4,1.6,11-6.639Z" fill="#ffe500"></path><path d="M32.177,21.869a4.958,4.958,0,0,1,2.468,1.467l2.6,2.848,1.6-.966-.6-1-3.005-3.288A4.981,4.981,0,0,0,34,19.96l-2.774,1.675Z" fill="#fff48c"></path><path d="M38.244,24.219l-3.005-3.288A4.981,4.981,0,0,0,34,19.96l-9.771,5.9.887,1.469,3.13,2.925-.4,1.6,11-6.639Z" fill="none" stroke="#45413c" stroke-linecap="round" stroke-linejoin="round"></path><path d="M18.35,21.005h0a7.245,7.245,0,0,1,7.861-3.161l6.559,1.621a4.948,4.948,0,0,1,2.468,1.466l3.006,3.288L59.175,29.39a1.651,1.651,0,0,1,.966,2.537l-1.347,1.965a3.3,3.3,0,0,1-3.516,1.339l-5.157-1.274a9.907,9.907,0,0,0-9.4,2.632l-2.834,2.85L26.664,36.666l1.584-6.412Z" fill="none" stroke="#45413c" stroke-linecap="round" stroke-linejoin="round"></path><path d="M40.1,44.238a9.082,9.082,0,1,1,6.639,11A9.083,9.083,0,0,1,40.1,44.238Z" fill="#656769"></path><path d="M4.834,35.525a9.082,9.082,0,1,1,6.638,11A9.083,9.083,0,0,1,4.834,35.525Z" fill="#656769"></path><path d="M50.3,40.806a9.08,9.08,0,0,1,6.883,9.354,9.083,9.083,0,1,0-17.329-4.281A9.079,9.079,0,0,1,50.3,40.806Z" fill="#87898c"></path><path d="M15.037,32.093a9.08,9.08,0,0,1,6.882,9.354A9.082,9.082,0,1,0,4.59,37.166,9.079,9.079,0,0,1,15.037,32.093Z" fill="#87898c"></path><path d="M40.1,44.238a9.082,9.082,0,1,1,6.639,11A9.083,9.083,0,0,1,40.1,44.238Z" fill="none" stroke="#45413c" stroke-linecap="round" stroke-linejoin="round"></path><path d="M4.834,35.525a9.082,9.082,0,1,1,6.638,11A9.083,9.083,0,0,1,4.834,35.525Z" fill="none" stroke="#45413c" stroke-linecap="round" stroke-linejoin="round"></path><path d="M16.857,38.5a3.3,3.3,0,1,1-2.415-4A3.3,3.3,0,0,1,16.857,38.5Z" fill="#daedf7" stroke="#45413c" stroke-linecap="round" stroke-linejoin="round"></path><path d="M52.124,47.209a3.3,3.3,0,1,1-2.414-4A3.3,3.3,0,0,1,52.124,47.209Z" fill="#daedf7" stroke="#45413c" stroke-linecap="round" stroke-linejoin="round"></path><path d="M11.01,24.294,12.8,22.662a6.6,6.6,0,0,1,6.041-1.537l3.768.931a9.907,9.907,0,0,1,7.172,6.974l2.5,9.022-5.611-1.386-2.005-6.522a4.954,4.954,0,0,0-3.547-3.354Z" fill="#ff6242"></path><path d="M17.44,23.331l3.768.931a9.909,9.909,0,0,1,7.172,6.974l1.74,6.284,2.155.532-2.5-9.022A9.9,9.9,0,0,0,22.6,22.056l-3.767-.931A6.6,6.6,0,0,0,12.8,22.662L11.01,24.294l.844.209A6.6,6.6,0,0,1,17.44,23.331Z" fill="#ff866e"></path><path d="M39.563,22.392l-2.319,2.12a1.652,1.652,0,0,0-.3,2.073l1.715,2.839,15.47.694a1.652,1.652,0,0,0,1.677-1.254l.072-.289a1.652,1.652,0,0,0-1.208-2L45.618,24.34a9.484,9.484,0,0,1-3.87-1.986h0A1.651,1.651,0,0,0,39.563,22.392Z" fill="#525252"></path><path d="M37.793,27.2l2.319-2.12a1.652,1.652,0,0,1,2.186-.038,9.462,9.462,0,0,0,3.869,1.986l9.053,2.236a1.574,1.574,0,0,1,.326.155,1.641,1.641,0,0,0,.26-.554l.072-.289a1.652,1.652,0,0,0-1.208-2L45.619,24.34a9.476,9.476,0,0,1-3.871-1.986,1.651,1.651,0,0,0-2.185.038l-2.32,2.12a1.652,1.652,0,0,0-.3,2.072l.581.963A1.625,1.625,0,0,1,37.793,27.2Z" fill="#656769"></path><path d="M39.563,22.392l-2.319,2.12a1.652,1.652,0,0,0-.3,2.073l1.715,2.839,15.47.694a1.652,1.652,0,0,0,1.677-1.254l.072-.289a1.652,1.652,0,0,0-1.208-2L45.618,24.34a9.484,9.484,0,0,1-3.87-1.986h0A1.651,1.651,0,0,0,39.563,22.392Z" fill="none" stroke="#45413c" stroke-linecap="round" stroke-linejoin="round"></path><path d="M11.01,24.294,12.8,22.662a6.6,6.6,0,0,1,6.041-1.537l3.768.931a9.907,9.907,0,0,1,7.172,6.974l2.5,9.022-5.611-1.386-2.005-6.522a4.954,4.954,0,0,0-3.547-3.354Z" fill="none" stroke="#45413c" stroke-linecap="round" stroke-linejoin="round"></path><path d="M37.084 39.241L55.095 35.186" fill="none" stroke="#45413c" stroke-linecap="round" stroke-linejoin="round"></path><path d="M15.829 28.886L15.235 31.291" fill="none" stroke="#45413c" stroke-linecap="round" stroke-linejoin="round"></path><path d="M8.956 29.929L10.237 32.049" fill="none" stroke="#45413c" stroke-linecap="round" stroke-linejoin="round"></path><path d="M4.834 35.525L7.238 36.119" fill="none" stroke="#45413c" stroke-linecap="round" stroke-linejoin="round"></path><path d="M5.876 42.398L7.996 41.118" fill="none" stroke="#45413c" stroke-linecap="round" stroke-linejoin="round"></path><path d="M11.472 46.52L12.066 44.116" fill="none" stroke="#45413c" stroke-linecap="round" stroke-linejoin="round"></path><path d="M18.345 45.478L17.065 43.358" fill="none" stroke="#45413c" stroke-linecap="round" stroke-linejoin="round"></path><path d="M22.467 39.882L20.063 39.288" fill="none" stroke="#45413c" stroke-linecap="round" stroke-linejoin="round"></path><path d="M21.425 33.009L19.305 34.289" fill="none" stroke="#45413c" stroke-linecap="round" stroke-linejoin="round"></path><path d="M46.74 55.234L47.334 52.829" fill="none" stroke="#45413c" stroke-linecap="round" stroke-linejoin="round"></path><path d="M53.612 54.191L52.332 52.071" fill="none" stroke="#45413c" stroke-linecap="round" stroke-linejoin="round"></path><path d="M57.735 48.595L55.331 48.001" fill="none" stroke="#45413c" stroke-linecap="round" stroke-linejoin="round"></path><path d="M56.693 41.722L54.573 43.003" fill="none" stroke="#45413c" stroke-linecap="round" stroke-linejoin="round"></path><path d="M51.097 37.6L50.502 40.004" fill="none" stroke="#45413c" stroke-linecap="round" stroke-linejoin="round"></path><path d="M44.224 38.642L45.504 40.762" fill="none" stroke="#45413c" stroke-linecap="round" stroke-linejoin="round"></path><path d="M40.101 44.238L42.506 44.832" fill="none" stroke="#45413c" stroke-linecap="round" stroke-linejoin="round"></path><path d="M41.143 51.111L43.264 49.831" fill="none" stroke="#45413c" stroke-linecap="round" stroke-linejoin="round"></path><path d="M35.094,43.852l-8.015-1.981a1.65,1.65,0,0,1-1.207-2l.792-3.206,12.824,3.169-.4,1.6A3.3,3.3,0,0,1,35.094,43.852Z" fill="#656769"></path><path d="M26.664,36.666l-.594,2.405,12.711,3.14a3.3,3.3,0,0,0,.311-.773l.4-1.6Z" fill="#656769"></path><path d="M35.094,43.852l-8.015-1.981a1.65,1.65,0,0,1-1.207-2l.792-3.206,12.824,3.169-.4,1.6A3.3,3.3,0,0,1,35.094,43.852Z" fill="none" stroke="#45413c" stroke-linecap="round" stroke-linejoin="round"></path></g></svg>