<svg width="112" height="112" viewBox="0 0 112 112" fill="none" xmlns="http://www.w3.org/2000/svg">
<path d="M0 56C0 70.8521 5.89998 85.0959 16.402 95.598C26.9041 106.1 41.1479 112 56 112C70.8521 112 85.0959 106.1 95.598 95.598C106.1 85.0959 112 70.8521 112 56C112 41.1479 106.1 26.9041 95.598 16.402C85.0959 5.89998 70.8521 0 56 0C41.1479 0 26.9041 5.89998 16.402 16.402C5.89998 26.9041 0 41.1479 0 56Z" fill="#C7F0FF"/>
<path d="M18.4634 53.431C18.4634 63.2572 22.3668 72.6809 29.315 79.629C36.2631 86.5772 45.6868 90.4806 55.513 90.4806C65.3391 90.4806 74.7629 86.5772 81.711 79.629C88.6591 72.6809 92.5626 63.2572 92.5626 53.431C92.5626 43.6048 88.6591 34.1811 81.711 27.233C74.7629 20.2848 65.3391 16.3814 55.513 16.3814C45.6868 16.3814 36.2631 20.2848 29.315 27.233C22.3668 34.1811 18.4634 43.6048 18.4634 53.431Z" fill="white"/>
<path d="M18.7084 49.1554C18.5458 50.5748 18.4645 52.0023 18.4648 53.431C18.4662 58.4759 19.4978 63.4675 21.4965 68.0996C23.4952 72.7317 26.4189 76.9068 30.0883 80.369C33.7577 83.8313 38.0956 86.5076 42.8359 88.234C47.5763 89.9604 52.6193 90.7005 57.6558 90.4089C62.6923 90.1173 67.6162 88.8002 72.1257 86.5383C76.6351 84.2764 80.6351 81.1174 83.8805 77.2548C87.1258 73.3923 89.5482 68.9077 90.999 64.0758C92.4498 59.244 92.8985 54.1668 92.3176 49.1554C91.302 58.2059 86.9873 66.5649 80.1978 72.6351C73.4084 78.7053 64.6204 82.061 55.513 82.061C46.4057 82.061 37.6177 78.7053 30.8283 72.6351C24.0388 66.5649 19.7241 58.2059 18.7084 49.1554Z" fill="#E8F4FA"/>
<path opacity="0.15" d="M36.1802 101.982C36.1802 102.313 36.7029 102.642 37.7185 102.948C38.7341 103.255 40.2227 103.533 42.0993 103.767C43.9758 104.002 46.2037 104.188 48.6555 104.315C51.1074 104.442 53.7353 104.507 56.3892 104.507C59.0431 104.507 61.671 104.442 64.1228 104.315C66.5747 104.188 68.8025 104.002 70.6791 103.767C72.5557 103.533 74.0443 103.255 75.0599 102.948C76.0755 102.642 76.5982 102.313 76.5982 101.982C76.5982 101.65 76.0755 101.322 75.0599 101.015C74.0443 100.709 72.5557 100.43 70.6791 100.196C68.8025 99.9612 66.5747 99.7752 64.1228 99.6483C61.671 99.5213 59.0431 99.456 56.3892 99.456C53.7353 99.456 51.1074 99.5213 48.6555 99.6483C46.2037 99.7752 43.9758 99.9612 42.0993 100.196C40.2227 100.43 38.7341 100.709 37.7185 101.015C36.7029 101.322 36.1802 101.65 36.1802 101.982Z" fill="#45413C"/>
<path d="M18.4634 53.431C18.4634 63.2572 22.3668 72.6809 29.315 79.629C36.2631 86.5772 45.6868 90.4806 55.513 90.4806C65.3391 90.4806 74.7629 86.5772 81.711 79.629C88.6592 72.6809 92.5626 63.2572 92.5626 53.431C92.5626 43.6048 88.6592 34.1811 81.711 27.233C74.7629 20.2848 65.3391 16.3814 55.513 16.3814C45.6868 16.3814 36.2631 20.2848 29.315 27.233C22.3668 34.1811 18.4634 43.6048 18.4634 53.431V53.431Z" stroke="#45413C" stroke-width="1.4" stroke-miterlimit="10"/>
<path d="M45.4092 38.2746C45.4092 39.6014 45.6705 40.9153 46.1783 42.1412C46.686 43.367 47.4303 44.4808 48.3685 45.4191C49.3067 46.3573 50.4206 47.1015 51.6464 47.6093C52.8723 48.1171 54.1861 48.3784 55.513 48.3784C56.8398 48.3784 58.1537 48.1171 59.3795 47.6093C60.6054 47.1015 61.7192 46.3573 62.6574 45.4191C63.5957 44.4808 64.3399 43.367 64.8477 42.1412C65.3554 40.9153 65.6168 39.6014 65.6168 38.2746C65.6168 36.9478 65.3554 35.6339 64.8477 34.408C64.3399 33.1822 63.5957 32.0684 62.6574 31.1301C61.7192 30.1919 60.6054 29.4477 59.3795 28.9399C58.1537 28.4321 56.8398 28.1708 55.513 28.1708C54.1861 28.1708 52.8723 28.4321 51.6464 28.9399C50.4206 29.4477 49.3067 30.1919 48.3685 31.1301C47.4303 32.0684 46.686 33.1822 46.1783 34.408C45.6705 35.6339 45.4092 36.9478 45.4092 38.2746Z" fill="#FF6242"/>
<path d="M64.152 33.0302C63.3572 31.7217 62.2754 30.611 60.9884 29.7818C59.7015 28.9526 58.2429 28.4267 56.7229 28.2437C55.2029 28.0608 53.6612 28.2256 52.2143 28.7257C50.7673 29.2258 49.4529 30.0482 48.3703 31.1307C47.2877 32.2132 46.4652 33.5275 45.9649 34.9744C45.4646 36.4214 45.2997 37.963 45.4824 39.4831C45.6652 41.0031 46.191 42.4617 47.0201 43.7487C47.8491 45.0358 48.9598 46.1176 50.2682 46.9126C49.2881 45.3301 48.7715 43.5044 48.7772 41.643C48.779 38.9637 49.8441 36.3947 51.7385 34.5001C53.6329 32.6054 56.2017 31.54 58.881 31.5378C60.743 31.5328 62.569 32.0498 64.152 33.0302Z" fill="#E04122"/>
<path d="M45.4092 38.2746C45.4092 39.6015 45.6705 40.9153 46.1783 42.1412C46.686 43.367 47.4303 44.4808 48.3685 45.4191C49.3067 46.3573 50.4206 47.1015 51.6464 47.6093C52.8723 48.1171 54.1861 48.3784 55.513 48.3784C56.8398 48.3784 58.1537 48.1171 59.3795 47.6093C60.6054 47.1015 61.7192 46.3573 62.6574 45.4191C63.5957 44.4808 64.3399 43.367 64.8477 42.1412C65.3554 40.9153 65.6168 39.6015 65.6168 38.2746C65.6168 36.9478 65.3554 35.6339 64.8477 34.408C64.3399 33.1822 63.5957 32.0684 62.6574 31.1301C61.7192 30.1919 60.6054 29.4477 59.3795 28.9399C58.1537 28.4321 56.8398 28.1708 55.513 28.1708C54.1861 28.1708 52.8723 28.4321 51.6464 28.9399C50.4206 29.4477 49.3067 30.1919 48.3685 31.1301C47.4303 32.0684 46.686 33.1822 46.1783 34.408C45.6705 35.6339 45.4092 36.9478 45.4092 38.2746V38.2746Z" stroke="#45413C" stroke-width="1.4" stroke-miterlimit="10"/>
<path d="M44.9941 67.5348C44.9941 70.2145 46.0586 72.7844 47.9535 74.6793C49.8483 76.5741 52.4182 77.6386 55.0979 77.6386C57.7776 77.6386 60.3476 76.5741 62.2424 74.6793C64.1372 72.7844 65.2017 70.2145 65.2017 67.5348C65.2017 64.8551 64.1372 62.2852 62.2424 60.3903C60.3476 58.4955 57.7776 57.431 55.0979 57.431C52.4182 57.431 49.8483 58.4955 47.9535 60.3903C46.0586 62.2852 44.9941 64.8551 44.9941 67.5348Z" fill="#00B8F0"/>
<path d="M63.7359 62.2904C62.941 60.982 61.8591 59.8714 60.5721 59.0423C59.285 58.2132 57.8264 57.6875 56.3064 57.5047C54.7864 57.3219 53.2447 57.4868 51.7978 57.9871C50.3509 58.4874 49.0365 59.3099 47.954 60.3925C46.8715 61.4751 46.0492 62.7895 45.549 64.2365C45.0489 65.6834 44.8841 67.2251 45.067 68.7451C45.25 70.2651 45.7759 71.7237 46.6051 73.0107C47.4343 74.2976 48.5451 75.3794 49.8535 76.1742C48.8731 74.5913 48.3561 72.7652 48.3611 70.9032C48.3634 68.2242 49.4286 65.6555 51.3229 63.7612C53.2173 61.8668 55.7859 60.8016 58.4649 60.7994C60.3268 60.7935 62.153 61.3101 63.7359 62.2904Z" fill="#009FD9"/>
<path d="M44.9941 67.5348C44.9941 70.2145 46.0586 72.7844 47.9535 74.6793C49.8483 76.5741 52.4182 77.6386 55.0979 77.6386C57.7776 77.6386 60.3476 76.5741 62.2424 74.6793C64.1372 72.7844 65.2017 70.2145 65.2017 67.5348C65.2017 64.8551 64.1372 62.2852 62.2424 60.3903C60.3476 58.4955 57.7776 57.431 55.0979 57.431C52.4182 57.431 49.8483 58.4955 47.9535 60.3903C46.0586 62.2852 44.9941 64.8551 44.9941 67.5348V67.5348Z" stroke="#45413C" stroke-width="1.4" stroke-miterlimit="10"/>
</svg>
