<svg xmlns="http://www.w3.org/2000/svg" version="1.1" xmlns:xlink="http://www.w3.org/1999/xlink" xmlns:svgjs="http://svgjs.com/svgjs" viewBox="0 0 160 160" width="160" height="160"><g transform="matrix(1.6,0,0,1.6,0,0)"><path d="M10.000 50.000 A40.000 40.000 0 1 0 90.000 50.000 A40.000 40.000 0 1 0 10.000 50.000 Z" fill="#c7f0ff" stroke="#c7f0ff" stroke-miterlimit="10"></path><path d="M65.848,86.086l-.589-17.592a4.715,4.715,0,0,0-.614-2.326l-1.333-2.351a10.317,10.317,0,0,1-1.349-5.208l.067-5.8a10.282,10.282,0,0,0-.839-4.181l-2.844-7.986a2.1,2.1,0,0,1,1.183-2.771A2.222,2.222,0,0,1,62.4,39.018l5.294,8.7c.373-.842,3.189-7.793-.816-17.314a2.671,2.671,0,0,1,1.536-3.521,2.83,2.83,0,0,1,3.643,1.485,33.536,33.536,0,0,1,1.321,3.788,43.872,43.872,0,0,0-2.248-8.568,2.679,2.679,0,0,1,1.688-3.455,2.819,2.819,0,0,1,3.574,1.632c2.841,7.657,2.639,12.979,2.912,19.783a86.305,86.305,0,0,0-1.27-14.521,3.435,3.435,0,0,1,2.428-3.71,2.794,2.794,0,0,1,3.3,2.1c1.4,6.534,3.989,23.867-2.1,38.463a12.767,12.767,0,0,0-.985,4.9l.589,7.79A35.854,35.854,0,0,1,65.848,86.086Z" fill="#ffcebf"></path><path d="M65.848,86.087l-.589-17.593a4.715,4.715,0,0,0-.614-2.326l-1.333-2.351a10.317,10.317,0,0,1-1.349-5.208l.067-5.8a10.282,10.282,0,0,0-.839-4.181l-2.844-7.986a2.1,2.1,0,0,1,1.183-2.771A2.222,2.222,0,0,1,62.4,39.018l5.294,8.7c.373-.842,3.189-7.793-.816-17.314a2.671,2.671,0,0,1,1.536-3.521,2.83,2.83,0,0,1,3.643,1.485,33.536,33.536,0,0,1,1.321,3.788,43.872,43.872,0,0,0-2.248-8.568,2.679,2.679,0,0,1,1.688-3.455,2.819,2.819,0,0,1,3.574,1.632c2.841,7.657,2.639,12.979,2.912,19.783a86.305,86.305,0,0,0-1.27-14.521,3.435,3.435,0,0,1,2.428-3.71,2.794,2.794,0,0,1,3.3,2.1c1.4,6.534,3.989,23.867-2.1,38.463a12.767,12.767,0,0,0-.985,4.9l.589,7.79" fill="none" stroke="#45413c" stroke-linecap="round" stroke-linejoin="round"></path><path d="M73.37,32.076A36.716,36.716,0,0,1,73.01,45.8" fill="none" stroke="#45413c" stroke-linecap="round" stroke-miterlimit="10"></path><path d="M79.306,41.55a18.737,18.737,0,0,1-1.084,6.994" fill="none" stroke="#45413c" stroke-miterlimit="10"></path><path d="M33.759,86.086l.59-17.592a4.7,4.7,0,0,1,.614-2.326L36.3,63.817a10.306,10.306,0,0,0,1.348-5.208l-.066-5.8a10.3,10.3,0,0,1,.838-4.181l2.845-7.986a2.1,2.1,0,0,0-1.184-2.771,2.221,2.221,0,0,0-2.867,1.144l-5.294,8.7c-.373-.842-3.19-7.793.816-17.314A2.672,2.672,0,0,0,31.2,26.884a2.829,2.829,0,0,0-3.642,1.485,33.536,33.536,0,0,0-1.321,3.788,43.8,43.8,0,0,1,2.248-8.568,2.68,2.68,0,0,0-1.688-3.455,2.819,2.819,0,0,0-3.574,1.632c-2.841,7.657-2.639,12.979-2.912,19.783a86.305,86.305,0,0,1,1.27-14.521,3.436,3.436,0,0,0-2.428-3.71,2.794,2.794,0,0,0-3.3,2.1c-1.4,6.534-3.989,23.867,2.1,38.463a12.767,12.767,0,0,1,.985,4.9l-.59,6.949A51.881,51.881,0,0,0,33.759,86.086Z" fill="#ffcebf"></path><path d="M33.759,86.087l.59-17.593a4.7,4.7,0,0,1,.614-2.326L36.3,63.817a10.306,10.306,0,0,0,1.348-5.208l-.066-5.8a10.3,10.3,0,0,1,.838-4.181l2.845-7.986a2.1,2.1,0,0,0-1.184-2.771,2.221,2.221,0,0,0-2.867,1.144l-5.294,8.7c-.373-.842-3.19-7.793.816-17.314A2.672,2.672,0,0,0,31.2,26.884a2.829,2.829,0,0,0-3.642,1.485,33.536,33.536,0,0,0-1.321,3.788,43.8,43.8,0,0,1,2.248-8.568,2.68,2.68,0,0,0-1.688-3.455,2.819,2.819,0,0,0-3.574,1.632c-2.841,7.657-2.639,12.979-2.912,19.783a86.305,86.305,0,0,1,1.27-14.521,3.436,3.436,0,0,0-2.428-3.71,2.794,2.794,0,0,0-3.3,2.1c-1.4,6.534-3.989,23.867,2.1,38.463a12.767,12.767,0,0,1,.985,4.9l-.59,6.949" fill="none" stroke="#45413c" stroke-linecap="round" stroke-linejoin="round"></path><path d="M26.238,32.076A36.74,36.74,0,0,0,26.6,45.8" fill="none" stroke="#45413c" stroke-linecap="round" stroke-miterlimit="10"></path><path d="M20.3,41.55a18.737,18.737,0,0,0,1.084,6.994" fill="none" stroke="#45413c" stroke-miterlimit="10"></path><path d="M13.327 42.88L74.25 52.056" fill="none" stroke="#ff6242" stroke-linecap="round" stroke-linejoin="round" stroke-width="1.5"></path><path d="M86.242 42.88L25.318 52.056" fill="none" stroke="#ff6242" stroke-linecap="round" stroke-linejoin="round" stroke-width="1.5"></path><path d="M20.544,45.308c2.019,2.149,16.285,16.829,29.26,16.829C63,62.137,77.525,46.393,79.155,44.58" fill="none" stroke="#ff6242" stroke-linecap="round" stroke-linejoin="round" stroke-width="1.5"></path><path d="M19.724,55.551,18.718,44.279a2.893,2.893,0,0,1,2.616-3.173,2.946,2.946,0,0,1,3.283,2.528l.741,9.011c2.08,1.544,3.853,2.571,4.185,5.407l.388,3.31" fill="#ffcebf" stroke="#45413c" stroke-linecap="round" stroke-linejoin="round"></path><path d="M79.884,55.551,80.89,44.279a2.893,2.893,0,0,0-2.616-3.173,2.946,2.946,0,0,0-3.283,2.528l-.741,9.011c-2.08,1.544-3.854,2.571-4.186,5.407l-.387,3.31" fill="#ffcebf" stroke="#45413c" stroke-linecap="round" stroke-linejoin="round"></path><path d="M80.882 54.277L18.726 54.277" fill="none" stroke="#ff6242" stroke-linecap="round" stroke-linejoin="round" stroke-width="1.5"></path></g></svg>