<svg width="160" height="160" fill="none" xmlns="http://www.w3.org/2000/svg">
  <path d="M16 80c0 16.9739 6.7428 33.253 18.7452 45.255C46.7475 137.257 63.0261 144 80 144c16.9739 0 33.253-6.743 45.255-18.745C137.257 113.253 144 96.9739 144 80c0-16.9739-6.743-33.2525-18.745-45.2548C113.253 22.7428 96.9739 16 80 16c-16.9739 0-33.2525 6.7428-45.2548 18.7452C22.7428 46.7475 16 63.0261 16 80z" fill="#CDF2FF"/>
  <path d="M13.6469 108V55.84h18.48c2.7733 0 5.36.2667 7.76.8 2.4533.5333 4.5866 1.44 6.4 2.72 1.8666 1.2267 3.3333 2.88 4.4 4.96 1.0666 2.08 1.6 4.6667 1.6 7.76 0 3.84-.8534 7.0133-2.56 9.52-1.7067 2.4533-3.9467 4.2933-6.72 5.52l11.76 20.88h-13.2l-10-18.8h-6.16V108h-11.76zm11.76-28.16h5.76c6.3466 0 9.52-2.5867 9.52-7.76 0-2.56-.8-4.3467-2.4-5.36-1.6-1.0133-3.9734-1.52-7.12-1.52h-5.76v14.64zM64.5756 108V55.84h11.76v42.24h23.2V108h-34.96zm46.7684 0V55.84h34.56v9.92h-22.72v10.48h19.28v9.84h-19.28v12h23.52V108h-35.36z" fill="url(#paint0_linear)"/>
  <defs>
    <linearGradient id="paint0_linear" x1="80" y1="12" x2="80" y2="148" gradientUnits="userSpaceOnUse">
      <stop stop-color="#20F"/>
      <stop offset="1" stop-color="#9E00FF"/>
    </linearGradient>
  </defs>
</svg>
