<svg xmlns="http://www.w3.org/2000/svg" version="1.1" xmlns:xlink="http://www.w3.org/1999/xlink" xmlns:svgjs="http://svgjs.com/svgjs" viewBox="0 0 160 160" width="160" height="160"><g transform="matrix(1.6,0,0,1.6,0,0)"><path d="M10.000 50.000 A40.000 40.000 0 1 0 90.000 50.000 A40.000 40.000 0 1 0 10.000 50.000 Z" fill="#c7f0ff" stroke="#c7f0ff" stroke-miterlimit="10"></path><path d="M34.408 79.241 A16.547 1.5 0 1 0 67.502 79.241 A16.547 1.5 0 1 0 34.408 79.241 Z" fill="#45413c" opacity=".15"></path><path d="M79.456,50.3a28.354,28.354,0,0,1-56.7.524Z" fill="#f0f0f0"></path><path d="M22.751,50.828A28.354,28.354,0,0,0,79.456,50.3l-1.805.016v-.012a28.355,28.355,0,0,1-54.578.517" fill="#e0e0e0"></path><path d="M79.456,50.3l-56.7.524A28.354,28.354,0,1,1,79.456,50.3Z" fill="#4acfff"></path><path d="M30.492,50.756a20.616,20.616,0,1,1,41.23-.381Z" fill="#00b8f0"></path><path d="M79.456,50.3a28.354,28.354,0,0,1-56.7.524Z" fill="none" stroke="#45413c" stroke-linecap="round" stroke-linejoin="round"></path><path d="M79.456,50.3l-56.7.524A28.354,28.354,0,1,1,79.456,50.3Z" fill="none" stroke="#45413c" stroke-linecap="round" stroke-linejoin="round"></path><path d="M55.354,55.575a.876.876,0,0,1,.731.539,2.908,2.908,0,0,1,.327,1.34c.211,11.922-1.673,21.352-4.381,21.449-2.647.095-5.148-8.767-5.86-20.293a4.086,4.086,0,0,1,.311-1.915c.241-.519.591-.823.968-.836Z" fill="none" stroke="#45413c" stroke-linecap="round" stroke-linejoin="round"></path><path d="M40.51,34.688c-2.251.025-3.113,3.481-3.089,5.764s.957,5.694,3.194,5.694h.021c2.253-.025,3.113-3.484,3.089-5.763C43.7,38.056,42.743,34.668,40.51,34.688Z" fill="#ffffff" stroke="#00658a" stroke-linecap="round" stroke-linejoin="round"></path><path d="M61.763,40.184c-.024-2.3-.948-5.674-3.214-5.694-1.767.02-3.124,2.552-3.089,5.763s1.436,5.7,3.2,5.7h.02C60.443,45.928,61.8,43.4,61.763,40.184Z" fill="#ffffff" stroke="#00658a" stroke-linecap="round" stroke-linejoin="round"></path><path d="M23.43,56.765l5.3-.19a2.572,2.572,0,0,1,2.6,2C33.9,69.771,41.291,78.051,50,78.9" fill="none" stroke="#45413c" stroke-linecap="round" stroke-linejoin="round"></path><path d="M51.365,78.918A28.352,28.352,0,0,1,23.489,57.027" fill="none" stroke="#45413c" stroke-linecap="round" stroke-linejoin="round"></path><path d="M54.09,78.763A28.357,28.357,0,0,0,79.122,54.944l.027-.178-5.508.2a2.576,2.576,0,0,0-2.451,2.181c-1.768,11.422-8.622,20.247-17.321,21.634" fill="none" stroke="#45413c" stroke-linecap="round" stroke-linejoin="round"></path></g></svg>