<svg xmlns="http://www.w3.org/2000/svg" viewBox="0 0 48 48" height="48" width="48"><g transform="matrix(0.48,0,0,0.48,0,0)"><path d="M90.5 53.768a40 40 0 1 0-76.436 16.5h72.872a39.829 39.829 0 0 0 3.564-16.5z" fill="#c7f0ff"></path><path d="M14.064 70.268a40 40 0 0 0 72.872 0z" fill="#ccf7ad"></path><path d="M11 70.268h78m-82.5 0H9m82 0h2.5" stroke-linecap="round" stroke-linejoin="round" stroke="#45413c" fill="none"></path><ellipse cx="32.319" cy="93.097" rx="12.763" ry="1.914" opacity=".15" fill="#45413c"></ellipse><path d="M72.779 41.408h-1.915a4.472 4.472 0 0 1-4.464-4.467v-1.276h2.55v1.276a1.917 1.917 0 0 0 1.914 1.915h1.915z" fill="#87898c" stroke-linecap="round" stroke-linejoin="round" stroke="#45413c"></path><path fill="#bdbec0" stroke-linecap="round" stroke-linejoin="round" stroke="#45413c" d="m67.674 31.198-1.915 4.467h3.829l-1.914-4.467z"></path><path fill="#bdbec0" d="M82.351 44.599H69.588l-1.276 29.354h15.315l-1.276-29.354z"></path><path d="M83.627 44.6s-7.658-9.732-7.658-15.954c0 6.222-7.657 15.954-7.657 15.954z" fill="#ff6242" stroke-linecap="round" stroke-linejoin="round" stroke="#45413c"></path><path d="M78.522 68.848a2.553 2.553 0 0 0-5.105 0v5.105h5.105z" fill="#915e3a" stroke-linecap="round" stroke-linejoin="round" stroke="#45413c"></path><circle cx="75.969" cy="53.533" r="2.553" fill="#00b8f0"></circle><path d="M74.165 55.338a2.552 2.552 0 0 1 3.609-3.61z" fill="#4acfff"></path><circle cx="75.969" cy="53.533" r="2.553" stroke-linecap="round" stroke-linejoin="round" stroke="#45413c" fill="none"></circle><path fill="#87898c" d="m82.489 47.79-.138-3.191H69.588l-.139 3.191h13.04z"></path><path stroke-linecap="round" stroke-linejoin="round" stroke="#45413c" fill="none" d="M82.351 44.599H69.588l-1.276 29.354h15.315l-1.276-29.354z"></path><path d="M61.93 26.093a2.54 2.54 0 0 1 2.021 4.1 1.254 1.254 0 0 1 .532 1.009 1.277 1.277 0 0 1-2.553 0 2.553 2.553 0 0 1 0-5.105z" fill="#ffffff" stroke-linecap="round" stroke-linejoin="round" stroke="#45413c"></path><path d="M32.319 61.956c2.68-2.68 4.595-13.018 4.595-13.018.382 2.3 4.594 5.36 4.594 5.36-2.808-1.914-.766-9.189-.766-9.189 1.149 1.276 3.063 0 3.063 0-3.445-2.042-2.3-13.784-2.3-13.784a9.189 9.189 0 0 0-18.378 0s1.148 11.742-2.3 13.784c0 0 1.915 1.276 3.064 0 0 0 2.042 7.275-.766 9.189 0 0 4.211-3.063 4.594-5.36.005 0 1.92 10.338 4.6 13.018z" fill="#e0e0e0" stroke-linecap="round" stroke-linejoin="round" stroke="#45413c"></path><path d="M33.085 66.551H23.9v24.5h6.126l.7-16.082a1.6 1.6 0 0 1 3.2 0l.7 16.082h6.126v-24.5z" fill="#915e3a" stroke-linecap="round" stroke-linejoin="round" stroke="#45413c"></path><path d="M47.634 61.19a2.3 2.3 0 0 1-2.3-2.3v-1.529a13.018 13.018 0 0 0-26.036 0v11.487h3.733l-1.316 15.2a1.277 1.277 0 0 0 1.275 1.392h18.658a1.277 1.277 0 0 0 1.272-1.387l-1.962-22.672a11.111 11.111 0 0 0 7.242 8.474 1.277 1.277 0 0 0 1.737-1.191V61.19z" fill="#00b8f0"></path><path d="M32.319 49.7a14.535 14.535 0 0 1 13.018 8.08v-.423a13.018 13.018 0 0 0-26.036 0l.176.059A14.542 14.542 0 0 1 32.319 49.7z" fill="#4acfff"></path><path d="M30.942 64.376a1.532 1.532 0 0 0 2.754 0l.688-1.414a121.047 121.047 0 0 0 6.384-15.493 12.981 12.981 0 0 0-16.9 0 121.194 121.194 0 0 0 6.384 15.493z" fill="#009fd9"></path><path d="M47.634 61.19a2.3 2.3 0 0 1-2.3-2.3v-1.529a13.018 13.018 0 0 0-26.036 0v11.487h3.733l-1.316 15.2a1.277 1.277 0 0 0 1.275 1.392h18.658a1.277 1.277 0 0 0 1.272-1.387l-1.962-22.672a11.111 11.111 0 0 0 7.242 8.474 1.277 1.277 0 0 0 1.737-1.191V61.19z" stroke-linecap="round" stroke-linejoin="round" stroke="#45413c" fill="none"></path><path d="M40.742 55.064v3.829a13.888 13.888 0 0 0 .216 2.488" stroke-linecap="round" stroke-linejoin="round" stroke="#45413c" fill="none"></path><path d="M22.937 89.843A1.276 1.276 0 0 0 24 91.821h5.23a1.276 1.276 0 0 0 1.133-1.866c-1.395-2.672-5.835-2.524-7.426-.112zm18.763 0a1.276 1.276 0 0 1-1.067 1.978h-5.225a1.276 1.276 0 0 1-1.133-1.866c1.395-2.672 5.835-2.524 7.425-.112z" fill="#915e3a" stroke-linecap="round" stroke-linejoin="round" stroke="#45413c"></path><path d="M19.3 71.911a2.3 2.3 0 0 0 4.6 0v-3.063h-4.6zM49.932 61.19H53a2.3 2.3 0 0 1 0 4.595h-3.068z" fill="#ffcebf" stroke-linecap="round" stroke-linejoin="round" stroke="#45413c"></path><path fill="#009fd9" stroke-linecap="round" stroke-linejoin="round" stroke="#45413c" d="M23.896 55.064v13.784h-.862"></path><path d="M39.987 32.857v-1.532a7.538 7.538 0 0 0-.078-.771 4.588 4.588 0 0 1-4.409-3.582 4.569 4.569 0 0 1-6.364 0 4.588 4.588 0 0 1-4.387 3.58 7.3 7.3 0 0 0-.079.773v1.532c-2.185 0-2.038 3.829.383 3.829h.007a7.607 7.607 0 0 0 14.537 0h.006c2.422 0 2.569-3.829.384-3.829z" fill="#ffcebf" stroke-linecap="round" stroke-linejoin="round" stroke="#45413c"></path><path d="M29.838 32.091a.958.958 0 1 0 .957.957.958.958 0 0 0-.957-.957zm4.977 0a.958.958 0 1 0 .957.957.958.958 0 0 0-.957-.957z" fill="#45413c"></path><path d="M28.5 35.154a.766.766 0 1 1-.766-.766.766.766 0 0 1 .766.766zm9.187 0a.766.766 0 1 1-.766-.766.766.766 0 0 1 .766.766z" fill="#ffb59e"></path><path d="M39.211 43.578c0 4.229-6.892 18.378-6.892 18.378s-6.892-14.149-6.892-18.378 2.663-6.892 6.892-6.892 6.892 2.662 6.892 6.892z" fill="#e0e0e0" stroke-linecap="round" stroke-linejoin="round" stroke="#45413c"></path><path d="M36.914 42.812s-1.532-2.68-3.063-3.063c-.821-.205-1.532-.686-1.532-1.532a1.531 1.531 0 0 1 1.532-1.531c3.956 0 3.063 6.126 3.063 6.126z" fill="#e0e0e0" stroke-linecap="round" stroke-linejoin="round" stroke="#45413c"></path><path d="M27.724 42.812s1.532-2.68 3.063-3.063c.821-.205 1.532-.686 1.532-1.532a1.531 1.531 0 0 0-1.532-1.531c-3.956 0-3.063 6.126-3.063 6.126z" fill="#e0e0e0" stroke-linecap="round" stroke-linejoin="round" stroke="#45413c"></path><path d="M56.793 90.966a1.532 1.532 0 0 1-1.709-1.642l1.142-14.4-3.732-1.343a1.532 1.532 0 0 1-.985-1.727l2.553-13.443-3.95-.638a1.53 1.53 0 0 1-1.225-1.945l1.649-5.594a1.531 1.531 0 1 1 2.937.866l-1.157 3.927 3.787.611a1.53 1.53 0 0 1 1.26 1.8l-2.6 13.705 3.6 1.3A1.531 1.531 0 0 1 59.373 74l-1.235 15.57a1.532 1.532 0 0 1-1.345 1.396z" stroke-miterlimit="10" fill="#915e3a" stroke="#45413c"></path><path d="M58.318 45.242a5.36 5.36 0 1 1-5.955-4.691 5.36 5.36 0 0 1 5.955 4.691z" fill="#ffe500"></path><path d="M47.888 47.5a5.362 5.362 0 0 1 10.215 0 5.362 5.362 0 1 0-10.215 0z" fill="#ffffff48c"></path><path d="M58.318 45.242a5.36 5.36 0 1 1-5.955-4.691 5.36 5.36 0 0 1 5.955 4.691z" stroke-linecap="round" stroke-linejoin="round" stroke="#45413c" fill="none"></path><path d="M55.128 60.692a2.875 2.875 0 0 0-3.479 2.566 3.008 3.008 0 0 0 2.439 3.09l.727.158a1.915 1.915 0 0 0 2.271-1.422l.449-1.862a1.915 1.915 0 0 0-1.453-2.322z" fill="#ffcebf" stroke-linecap="round" stroke-linejoin="round" stroke="#45413c"></path><path d="m23.646 28.262 7.462-22.4a1.276 1.276 0 0 1 2.422 0l7.462 22.4z" fill="#00b8f0"></path><path d="m33.9 6.96-.366-1.1a1.276 1.276 0 0 0-2.422 0l-7.462 22.4h3.15z" fill="#4acfff"></path><path d="m23.646 28.262 7.462-22.4a1.276 1.276 0 0 1 2.422 0l7.462 22.4z" stroke-linecap="round" stroke-linejoin="round" stroke="#45413c" fill="none"></path><path d="M46.539 27.254a1.514 1.514 0 0 0-1.36-.4 68.671 68.671 0 0 1-12.86 1.046 68.671 68.671 0 0 1-12.86-1.046 1.52 1.52 0 0 0-1.361.4.92.92 0 0 0-.329.648c0 1.691 6.514 3.063 14.55 3.063s14.55-1.372 14.55-3.063a.916.916 0 0 0-.33-.648z" fill="#00b8f0" stroke-linecap="round" stroke-linejoin="round" stroke="#45413c"></path></g></svg>