<svg xmlns="http://www.w3.org/2000/svg" version="1.1" xmlns:xlink="http://www.w3.org/1999/xlink" xmlns:svgjs="http://svgjs.com/svgjs" viewBox="0 0 160 160" width="160" height="160"><g transform="matrix(1.6,0,0,1.6,0,0)"><path d="M90.5,52.579a40,40,0,1,0-76.436,16.5H86.936A39.829,39.829,0,0,0,90.5,52.579Z" fill="#c7f0ff"></path><path d="M14.064,69.079a40,40,0,0,0,72.872,0Z" fill="#ccf7ad"></path><path d="M11 69.079L89 69.079" fill="none" stroke="#45413c" stroke-linecap="round" stroke-linejoin="round"></path><path d="M6.5 69.079L9 69.079" fill="none" stroke="#45413c" stroke-linecap="round" stroke-linejoin="round"></path><path d="M91 69.079L93.5 69.079" fill="none" stroke="#45413c" stroke-linecap="round" stroke-linejoin="round"></path><path d="M25.331,62.353c2.68-2.68,4.594-13.018,4.594-13.018.383,2.3,4.6,5.36,4.6,5.36-2.808-1.914-.766-9.189-.766-9.189,1.149,1.276,3.063,0,3.063,0-3.446-2.042-2.3-13.784-2.3-13.784a9.19,9.19,0,0,0-18.379,0s1.149,11.742-2.3,13.784c0,0,1.915,1.276,3.063,0,0,0,2.042,7.275-.766,9.189,0,0,4.212-3.063,4.6-5.36C20.736,49.335,22.65,59.673,25.331,62.353Z" fill="#e0e0e0" stroke="#45413c" stroke-linecap="round" stroke-linejoin="round"></path><path d="M13.334 93.494 A12.763 1.914 0 1 0 38.860 93.494 A12.763 1.914 0 1 0 13.334 93.494 Z" fill="#45413c" opacity=".15"></path><path d="M31,88.389a6.984,6.984,0,0,1,2.754.537V66.947H16.907V88.389h3.372a6.927,6.927,0,0,1,2.862.585l.592-13.605a1.6,1.6,0,0,1,3.2,0l.7,13.02Z" fill="#915e3a" stroke="#45413c" stroke-linecap="round" stroke-linejoin="round"></path><path d="M36.051,92.218c0-2.742-2.68-3.829-5.051-3.829H27.628v2.552A1.276,1.276,0,0,0,28.9,92.218Z" fill="#915e3a" stroke="#45413c" stroke-linecap="round" stroke-linejoin="round"></path><path d="M25.331,92.218c0-2.742-2.681-3.829-5.052-3.829H16.907v2.552a1.277,1.277,0,0,0,1.276,1.277Z" fill="#915e3a" stroke="#45413c" stroke-linecap="round" stroke-linejoin="round"></path><path d="M40.646,61.587a2.3,2.3,0,0,1-2.3-2.3V57.758a13.018,13.018,0,0,0-26.036,0v10.21a1.276,1.276,0,0,0,1.276,1.277h2.457L14.73,84.45A1.275,1.275,0,0,0,16,85.836H34.66a1.275,1.275,0,0,0,1.272-1.386L33.97,61.778a11.107,11.107,0,0,0,7.237,8.473,1.276,1.276,0,0,0,1.736-1.19V61.587Z" fill="#00b8f0"></path><path d="M25.374,49.335c6.11,0,11.275,3.341,12.965,7.932a13.017,13.017,0,0,0-26.023.266C13.9,52.805,19.147,49.335,25.374,49.335Z" fill="#4acfff"></path><path d="M25.485,64.772a1.532,1.532,0,0,0,2.754,0l.689-1.413a131.521,131.521,0,0,0,6.03-14.341,12.982,12.982,0,0,0-16.81-2.113c1.422,5.557,5.663,14.428,6.649,16.454Z" fill="#009fd9"></path><path d="M42.943,61.587h3.064a2.3,2.3,0,0,1,0,4.595H42.943Z" fill="#ffcebf" stroke="#45413c" stroke-linecap="round" stroke-linejoin="round"></path><path d="M40.646,61.587a2.3,2.3,0,0,1-2.3-2.3V57.758a13.018,13.018,0,0,0-26.036,0v10.21a1.276,1.276,0,0,0,1.276,1.277h2.457L14.73,84.45A1.275,1.275,0,0,0,16,85.836H34.66a1.275,1.275,0,0,0,1.272-1.386L33.97,61.778a11.107,11.107,0,0,0,7.237,8.473,1.276,1.276,0,0,0,1.736-1.19V61.587Z" fill="none" stroke="#45413c" stroke-linecap="round" stroke-linejoin="round"></path><path d="M18.439 55.453L18.439 69.237" fill="none" stroke="#45413c" stroke-linecap="round" stroke-linejoin="round"></path><path d="M13.844,72.3a2.3,2.3,0,0,0,4.6,0V69.237h-4.6Z" fill="#ffcebf" stroke="#45413c" stroke-linecap="round" stroke-linejoin="round"></path><path d="M33.97,61.778a13.706,13.706,0,0,1-.216-2.488V55.453" fill="none" stroke="#45413c" stroke-linecap="round" stroke-linejoin="round"></path><path d="M80.337,71.8a1.276,1.276,0,0,1-1.25-1.026L76.534,58.009a1.279,1.279,0,0,1,.561-1.325l7.665-4.927-5.367-5.9a1.277,1.277,0,0,1-.1-1.585l4.357-6.293H78.424a1.276,1.276,0,0,1-1.032-.526l-3.469-4.768-1.914,8.139a1.27,1.27,0,0,1-1.437.969l-6.515-1,1.581,8.439a1.275,1.275,0,1,1-2.507.47l-1.915-10.21a1.276,1.276,0,0,1,1.449-1.5l7.129,1.1,2.282-9.7a1.277,1.277,0,0,1,2.275-.459l4.722,6.494h7.008a1.277,1.277,0,0,1,1.05,2l-5.166,7.461,5.7,6.269a1.278,1.278,0,0,1-.254,1.933l-8.2,5.272L81.589,70.27a1.275,1.275,0,0,1-1,1.5A1.289,1.289,0,0,1,80.337,71.8Z" fill="#fff48c" stroke="#45413c" stroke-linecap="round" stroke-linejoin="round"></path><path d="M86.719,74.351l4.335-3.034a.638.638,0,0,0-.437-1.157l-2.347.261a.639.639,0,0,1-.69-.789l.568-2.273a.638.638,0,0,0-1.034-.639l-2.361,2.023a.637.637,0,0,1-.969-.168l-1.616-2.827a.638.638,0,0,0-1.108,0l-1.615,2.827a.638.638,0,0,1-.97.168l-2.36-2.023a.638.638,0,0,0-1.035.639l.568,2.273a.638.638,0,0,1-.689.789l-2.348-.261a.638.638,0,0,0-.436,1.157l4.334,3.034Z" fill="#ffaa54" stroke="#45413c" stroke-linecap="round" stroke-linejoin="round"></path><path d="M62.971,63.906l2.166,2.719a.766.766,0,0,0,1.357-.366l.526-3.571a.766.766,0,0,1,.693-.652l3.481-.3a.767.767,0,0,0,.646-1.05l-1-2.476a.766.766,0,0,1,.582-1.041l5.071-.86a.766.766,0,0,0,.249-1.421l-4.518-2.558a.767.767,0,0,1-.377-.8l1.077-6.256a.766.766,0,0,0-.984-.861L67.867,45.7a.765.765,0,0,1-.967-.526l-.909-3.282a.765.765,0,0,0-1.3-.314l-2.385,2.591a.766.766,0,0,1-1.007.106l-3.283-2.331a.766.766,0,0,0-1.188.444l-1.112,4.607a.767.767,0,0,1-.775.585l-3.461-.137A.765.765,0,0,0,50.8,48.6l2.1,3.44a.766.766,0,0,1-.166.99L50.4,54.962a.766.766,0,0,0,.376,1.348l3.167.467a.766.766,0,0,1,.573,1.1L52.59,61.719a.766.766,0,0,0,.933,1.068l4.036-1.382a.766.766,0,0,1,1.006.615l.458,3.17a.766.766,0,0,0,1.343.385l1.421-1.685A.766.766,0,0,1,62.971,63.906Z" fill="#fffce5" stroke="#45413c" stroke-linecap="round" stroke-linejoin="round"></path><path d="M59.283,55.476a1.533,1.533,0,0,0-1.792-1.215l-5.728,1.1A1.531,1.531,0,0,0,50.6,57.34l1.244,3.8L38.722,65.036A1.531,1.531,0,0,0,37.639,66.7l.517,3.932-3.3,1.384.277,3.206,5.286-2.217a1.529,1.529,0,0,0,.927-1.611l-.5-3.8L54.22,63.63a1.53,1.53,0,0,0,1.02-1.944L54.047,58.04l4.02-.771A1.532,1.532,0,0,0,59.283,55.476Z" fill="#915e3a" stroke="#45413c" stroke-linecap="round" stroke-linejoin="round"></path><path d="M65.492,58.891a5.36,5.36,0,1,1,1.439-7.443A5.36,5.36,0,0,1,65.492,58.891Z" fill="#e04122"></path><path d="M66.931,51.448a5.341,5.341,0,0,0-8.995.193,5.344,5.344,0,0,1,7.383,7.343c.056-.035.117-.055.173-.093A5.36,5.36,0,0,0,66.931,51.448Z" fill="#ff6242"></path><path d="M65.492,58.891a5.36,5.36,0,1,1,1.439-7.443A5.36,5.36,0,0,1,65.492,58.891Z" fill="none" stroke="#45413c" stroke-linecap="round" stroke-linejoin="round"></path><path d="M50.3,63.138a2.873,2.873,0,0,0-3.875-1.915A3.007,3.007,0,0,0,44.8,64.806l.193.719a1.916,1.916,0,0,0,2.3,1.366l1.861-.454a1.916,1.916,0,0,0,1.4-2.355Z" fill="#ffcebf" stroke="#45413c" stroke-linecap="round" stroke-linejoin="round"></path><path d="M32.988,31.722a7.658,7.658,0,1,0-15.315,0v3.063a7.658,7.658,0,1,0,15.315,0Z" fill="#ffcebf" stroke="#45413c" stroke-linecap="round" stroke-linejoin="round"></path><path d="M23.991,32.488a.957.957,0,1,0,.957.957.957.957,0,0,0-.957-.957Z" fill="#45413c"></path><path d="M29.734,32.488a.957.957,0,1,0,.957.957.956.956,0,0,0-.957-.957Z" fill="#45413c"></path><path d="M21.502 36.317 A0.766 0.766 0 1 0 23.034 36.317 A0.766 0.766 0 1 0 21.502 36.317 Z" fill="#ffb59e"></path><path d="M33.754,43.974c0,4.23-6.892,18.379-6.892,18.379S19.97,48.2,19.97,43.974s2.663-6.892,6.892-6.892S33.754,39.745,33.754,43.974Z" fill="#e0e0e0" stroke="#45413c" stroke-linecap="round" stroke-linejoin="round"></path><path d="M32.309,43.209s-1.532-2.681-3.063-3.064c-.821-.205-1.532-.685-1.532-1.531a1.532,1.532,0,0,1,1.532-1.532C33.2,37.082,32.309,43.209,32.309,43.209Z" fill="#e0e0e0" stroke="#45413c" stroke-linecap="round" stroke-linejoin="round"></path><path d="M23.12,43.209s1.531-2.681,3.063-3.064c.82-.205,1.531-.685,1.531-1.531a1.531,1.531,0,0,0-1.531-1.532C22.226,37.082,23.12,43.209,23.12,43.209Z" fill="#e0e0e0" stroke="#45413c" stroke-linecap="round" stroke-linejoin="round"></path><path d="M16.907,45.506s.23.818.429,1.978a13.052,13.052,0,0,1,2.857-1.69c-2.8-1.628-1.754-9.478-1.754-9.478a3.021,3.021,0,0,0,2.3,1.532c-.778-.778-.283-8.841.2-14.195h0a9.186,9.186,0,0,0-4.793,8.07s1.149,11.742-2.3,13.784C13.844,45.506,15.759,46.782,16.907,45.506Z" fill="#e0e0e0" stroke="#45413c" stroke-linecap="round" stroke-linejoin="round"></path><path d="M33.754,28.659,26.164,5.2a.876.876,0,0,0-1.666,0L16.907,28.659Z" fill="#00b8f0"></path><path d="M27.234,8.505,26.164,5.2a.876.876,0,0,0-1.666,0L16.907,28.659h3.807Z" fill="#4acfff"></path><path d="M33.754,28.659,26.164,5.2a.876.876,0,0,0-1.666,0L16.907,28.659Z" fill="none" stroke="#45413c" stroke-linecap="round" stroke-linejoin="round"></path><path d="M39.551,27.65a1.518,1.518,0,0,0-1.36-.4A68.69,68.69,0,0,1,25.331,28.3,68.694,68.694,0,0,1,12.47,27.253a1.519,1.519,0,0,0-1.36.4.918.918,0,0,0-.329.647c0,1.692,6.514,3.063,14.55,3.063S39.88,29.99,39.88,28.3A.922.922,0,0,0,39.551,27.65Z" fill="#00b8f0" stroke="#45413c" stroke-linecap="round" stroke-linejoin="round"></path></g></svg>
