<svg width="160" height="160" fill="none" xmlns="http://www.w3.org/2000/svg">
  <path d="M16 80c0 16.9739 6.7428 33.253 18.7452 45.255C46.7475 137.257 63.0261 144 80 144c16.9739 0 33.253-6.743 45.255-18.745C137.257 113.253 144 96.9739 144 80c0-16.9739-6.743-33.2525-18.745-45.2548C113.253 22.7428 96.9739 16 80 16c-16.9739 0-33.2525 6.7428-45.2548 18.7452C22.7428 46.7475 16 63.0261 16 80z" fill="#CDF2FF"/>
  <path d="M50.903 61l.3049 3.7197-5.732 1.1585L58.7082 91.55h.6707l11.4639-25.6108-5.7319-1.2195L65.4158 61h17.4277v3.8577l-5.3541 1.0815L62.001 97.16l-.5374 1.0366h-7.6635l-3.252-6.4161-13.5479-25.9632L32 64.8172V61h18.9032-.0002zM128 61v3.7843l-5.732 1.2159v27.1352L128 94.4093v3.7873h-18.894v-3.7902l5.662-1.271V66.0002l-5.662-1.2131V61H128zm-23.172 0l.01.1201v3.6624l-5.7418 1.2179v27.1352l5.7418 1.2761v3.6652l-.01.1201H86.0955v-3.8261l5.5006-1.2351V66.0006l-5.5006-1.1787v-3.8215h18.7325V61z" fill="#000"/>
</svg>
