<svg width="160" height="160" fill="none" xmlns="http://www.w3.org/2000/svg">
  <path d="M16 80c0 16.9739 6.7428 33.253 18.7452 45.255C46.7475 137.257 63.0261 144 80 144c16.9739 0 33.253-6.743 45.255-18.745C137.257 113.253 144 96.9739 144 80c0-16.9739-6.743-33.2525-18.745-45.2548C113.253 22.7428 96.9739 16 80 16c-16.9739 0-33.2525 6.7428-45.2548 18.7452C22.7428 46.7475 16 63.0261 16 80z" fill="#CDF2FF"/>
  <path d="M37.5669 53l.4446 5.4245-8.3591 1.6896 19.297 37.438h.9782L66.6458 60.203l-8.3591-1.7785L58.7313 53h25.4155v5.6258l-7.808 1.5772-22.5873 45.53-.7838 1.512H41.7918l-4.7425-9.3568-19.7573-37.863L10 58.5668V53h27.5672-.0003zM150 53v5.5188l-8.359 1.7732v39.5722L150 101.722v5.523h-27.554v-5.527l8.257-1.8538V60.292l-8.257-1.7691V53H150zm-33.792 0l.014.1752v5.3409l-8.373 1.7762v39.5722l8.373 1.8605v5.345l-.014.176H88.8892v-5.58l8.0218-1.8012V60.2926l-8.0218-1.719v-5.573h27.3188V53z" fill="#130B43"/>
</svg>
