<svg width="160" height="160" fill="none" xmlns="http://www.w3.org/2000/svg">
  <path d="M16 80c0 16.9739 6.7428 33.253 18.7452 45.255C46.7475 137.257 63.0261 144 80 144c16.9739 0 33.253-6.743 45.255-18.745C137.257 113.253 144 96.9739 144 80c0-16.9739-6.743-33.2525-18.745-45.2548C113.253 22.7428 96.9739 16 80 16c-16.9739 0-33.2525 6.7428-45.2548 18.7452C22.7428 46.7475 16 63.0261 16 80v0z" fill="#C7F0FF" stroke="#C7F0FF" stroke-width="1.6" stroke-miterlimit="10"/>
  <path d="M84.221 44.68a2.0395 2.0395 0 00.7039-1.5408c0-.2922-.0629-.5811-.1843-.847a2.0404 2.0404 0 00-.5196-.6938L71.7682 30.8176a2.0388 2.0388 0 00-3.3712 1.5408v3.4464a38.139 38.139 0 00-35.2365 23.5451 38.1388 38.1388 0 00-2.9027 14.5957v1.4672l2.768-4.7088A41.038 41.038 0 0168.397 50.4736V53.92a2.0368 2.0368 0 003.3712 1.5408L84.221 44.68z" fill="#FF6242"/>
  <path d="M84.9266 43.1392a2.0371 2.0371 0 00-.1847-.8461 2.037 2.037 0 00-.5193-.6931L71.7682 30.8176a2.0388 2.0388 0 00-3.3712 1.5408v3.4464a38.139 38.139 0 00-35.2365 23.5451 38.1388 38.1388 0 00-2.9027 14.5957v1.4672l.672-1.1424A38.1297 38.1297 0 0168.397 43.1392h16.5296z" fill="#FF866E"/>
  <path d="M84.221 44.68a2.0395 2.0395 0 00.7039-1.5408c0-.2922-.0629-.5811-.1843-.847a2.0404 2.0404 0 00-.5196-.6938L71.7682 30.8176a2.0388 2.0388 0 00-3.3712 1.5408v3.4464a38.139 38.139 0 00-35.2365 23.5451 38.1388 38.1388 0 00-2.9027 14.5957v1.4672l2.768-4.7088A41.038 41.038 0 0168.397 50.4736V53.92a2.0368 2.0368 0 003.3712 1.5408L84.221 44.68z" stroke="#45413C" stroke-width="1.6" stroke-linecap="round" stroke-linejoin="round"/>
  <path d="M78.9792 117.88a2.0397 2.0397 0 00-.5195.693 2.039 2.039 0 000 1.694c.1214.265.2986.502.5195.693l12.4528 10.782c.2954.256.6578.421 1.0443.476.3865.055.7807-.002 1.1358-.164a2.0374 2.0374 0 001.1911-1.852v-3.447a38.1344 38.1344 0 0026.9688-11.171 38.1332 38.1332 0 0011.17-26.9696v-1.4672l-2.768 4.7088a41.0278 41.0278 0 01-14.997 14.815 41.03 41.03 0 01-20.3738 5.415v-3.446a2.0363 2.0363 0 00-1.1902-1.854 2.0284 2.0284 0 00-1.1366-.164 2.0389 2.0389 0 00-1.0444.477L78.9792 117.88z" fill="#4ACFFF"/>
  <path d="M78.2734 119.421a2.038 2.038 0 00.704 1.539l12.4544 10.782c.2954.256.6579.421 1.0444.476.3865.055.7807-.002 1.1358-.164.3551-.162.6561-.423.8672-.751.2111-.329.3235-.711.3238-1.101v-3.447a38.1344 38.1344 0 0026.969-11.171 38.1386 38.1386 0 008.268-12.374 38.152 38.152 0 002.902-14.5956v-1.4672l-.672 1.1424a38.1303 38.1303 0 01-13.114 22.3284 38.1282 38.1282 0 01-24.353 8.803H78.2734z" fill="#00B8F0"/>
  <path d="M78.9792 117.88a2.0397 2.0397 0 00-.5195.693 2.039 2.039 0 000 1.694c.1214.265.2986.502.5195.693l12.4528 10.782c.2954.256.6578.421 1.0443.476.3865.055.7807-.002 1.1358-.164a2.0374 2.0374 0 001.1911-1.852v-3.447a38.1344 38.1344 0 0026.9688-11.171 38.1332 38.1332 0 0011.17-26.9696v-1.4672l-2.768 4.7088a41.0278 41.0278 0 01-14.997 14.815 41.03 41.03 0 01-20.3738 5.415v-3.446a2.0363 2.0363 0 00-1.1902-1.854 2.0284 2.0284 0 00-1.1366-.164 2.0389 2.0389 0 00-1.0444.477L78.9792 117.88z" stroke="#45413C" stroke-width="1.6" stroke-linecap="round" stroke-linejoin="round"/>
  <path opacity=".15" d="M65.1172 105.576c0 .483 1.568.947 4.3591 1.288 2.7911.342 6.5766.533 10.5238.533 3.9471 0 7.7327-.191 10.5237-.533 2.7911-.341 4.3591-.805 4.3591-1.288s-1.568-.946-4.3591-1.287c-2.791-.342-6.5766-.534-10.5237-.534-3.9472 0-7.7327.192-10.5238.534-2.7911.341-4.3591.804-4.3591 1.287z" fill="#45413C"/>
  <path d="M53.938 64.3193h52.124v30.1901H53.938V64.3193z" fill="#fff"/>
  <path d="M53.938 64.3193h52.124v30.1901H53.938V64.3193z" stroke="#45413C" stroke-width="1.6" stroke-linecap="round" stroke-linejoin="round"/>
  <path d="M61.0659 69.558v19.7117M66.5581 69.558v11.7917M71.2593 69.558v5.496M77.2793 69.558v11.7917M82.7207 69.558v7.08M87.9487 69.558v7.344M93.7061 69.558v11.7917M99.1982 69.558v19.7117M66.5581 86.7181v2.5517M71.2593 79.5421v9.7276M77.2793 86.7181v2.5517M82.7207 80.8621v8.4076M87.9487 82.7101v6.5596M93.7061 86.7181v2.5517" stroke="#45413C" stroke-width="3.2" stroke-linecap="round" stroke-linejoin="round"/>
</svg>
