<svg width="160" height="160" viewBox="0 0 160 160" fill="none" xmlns="http://www.w3.org/2000/svg">
<path d="M16 80C16 96.9739 22.7428 113.253 34.7452 125.255C46.7475 137.257 63.0261 144 80 144C96.9739 144 113.253 137.257 125.255 125.255C137.257 113.253 144 96.9739 144 80C144 63.0261 137.257 46.7475 125.255 34.7452C113.253 22.7428 96.9739 16 80 16C63.0261 16 46.7475 22.7428 34.7452 34.7452C22.7428 46.7475 16 63.0261 16 80Z" fill="#CDF2FF"/>
<path d="M13.6469 108V55.84H32.1269C34.9002 55.84 37.4869 56.1067 39.8869 56.64C42.3402 57.1733 44.4735 58.08 46.2869 59.36C48.1535 60.5867 49.6202 62.24 50.6869 64.32C51.7535 66.4 52.2869 68.9867 52.2869 72.08C52.2869 75.92 51.4335 79.0933 49.7269 81.6C48.0202 84.0533 45.7802 85.8933 43.0069 87.12L54.7669 108H41.5669L31.5669 89.2H25.4069V108H13.6469ZM25.4069 79.84H31.1669C37.5135 79.84 40.6869 77.2533 40.6869 72.08C40.6869 69.52 39.8869 67.7333 38.2869 66.72C36.6869 65.7067 34.3135 65.2 31.1669 65.2H25.4069V79.84ZM64.5756 108V55.84H76.3356V98.08H99.5356V108H64.5756ZM111.344 108V55.84H145.904V65.76H123.184V76.24H142.464V86.08H123.184V98.08H146.704V108H111.344Z" fill="url(#paint0_linear)"/>
<defs>
<linearGradient id="paint0_linear" x1="80" y1="12" x2="80" y2="148" gradientUnits="userSpaceOnUse">
<stop stop-color="#2200FF"/>
<stop offset="1" stop-color="#9E00FF"/>
</linearGradient>
</defs>
</svg>
