<svg width="160" height="160" fill="none" xmlns="http://www.w3.org/2000/svg">
  <path d="M16 80c0 16.9739 6.7428 33.253 18.7452 45.255C46.7475 137.257 63.0261 144 80 144c16.9739 0 33.253-6.743 45.255-18.745C137.257 113.253 144 96.9739 144 80c0-16.9739-6.743-33.2525-18.745-45.2548C113.253 22.7428 96.9739 16 80 16c-16.9739 0-33.2525 6.7428-45.2548 18.7452C22.7428 46.7475 16 63.0261 16 80z" fill="#C7F0FF"/>
  <path fill-rule="evenodd" clip-rule="evenodd" d="M66.3647 105.042v16c0 .795.3161 1.558.8787 2.121a3.0029 3.0029 0 002.1213.879h10a3.003 3.003 0 002.1214-.879 3.001 3.001 0 00.8786-2.121v-16h-16z" fill="#2B223D"/>
  <path d="M95.1805 66.8238a82.6846 82.6846 0 01-10.7588.6939c-16.5457 0-30.6206-4.7208-35.8733-11.3138a27.0356 27.0356 0 00.1214 43.6926 27.0322 27.0322 0 0015.8678 5.1445h19.8277a10.846 10.846 0 007.6382-3.176 10.849 10.849 0 003.177-7.6386V66.8238z" fill="#753B2C"/>
  <path d="M64.56 48.5228a1.6922 1.6922 0 00.3037 1.6429c.2327.28.4853.5416.7408.8a12.5376 12.5376 0 008.9406 3.7656h30.2889a13.007 13.007 0 0012.2-8.3283c.351-.9352.585-1.9103.697-2.903a12.5337 12.5337 0 00-1.263-7.0207 1.0037 1.0037 0 00-.83-.5212 1.0008 1.0008 0 00-.495.1035.9929.9929 0 00-.381.3327c-4.972 6.818-19.2939 11.746-36.1983 11.746a81.764 81.764 0 01-12.0356-.8725 1.7884 1.7884 0 00-1.9681 1.255z" fill="#D78E39"/>
  <path d="M75.8643 54.7318h-3V83.576h3V54.7318z" fill="#2B223D"/>
  <path d="M66.3647 97.7316v-7a8.0235 8.0235 0 018-8 8.023 8.023 0 015.65 2.35 8.023 8.023 0 012.35 5.65v7a1.0002 1.0002 0 01-1 1h-14a1.0003 1.0003 0 01-1-1zm14-3V90.94a6.14 6.14 0 00-5.2106-6.158 6.0087 6.0087 0 00-4.7412 1.4379 6.0077 6.0077 0 00-2.0482 4.5114v4a1.0003 1.0003 0 001 1h10a1.0002 1.0002 0 00.9998-.9995l.0002-.0002z" fill="#D0D8DD"/>
  <path d="M74.5457 54.7316h30.2883a13.007 13.007 0 0012.2-8.3283c3.468-.1083 5.466.8667 5.466 4.0849 0 7.7335-11.53 14.2588-27.3192 16.3356a82.687 82.687 0 01-10.7588.6939c-16.5457 0-30.6206-4.7208-35.8733-11.3138a9.143 9.143 0 01-2.2049-5.7157c0-6.15 7.2911-4.1125 18.2167-1.9654a1.6924 1.6924 0 00.3038 1.6429c.2327.28.4853.5416.7408.8a12.5386 12.5386 0 008.9406 3.7656" fill="#C47A1B"/>
</svg>
