<svg width="160" height="160" fill="none" xmlns="http://www.w3.org/2000/svg">
  <path d="M16 80c0 16.9739 6.7428 33.253 18.7452 45.255C46.7475 137.257 63.0261 144 80 144c16.9739 0 33.253-6.743 45.255-18.745C137.257 113.253 144 96.9739 144 80c0-16.9739-6.743-33.2525-18.745-45.2548C113.253 22.7428 96.9739 16 80 16c-16.9739 0-33.2525 6.7428-45.2548 18.7452C22.7428 46.7475 16 63.0261 16 80z" fill="#C7F0FF"/>
  <g clip-path="url(#clip0)">
    <path fill-rule="evenodd" clip-rule="evenodd" d="M59.4668 114.39v23.251c0 1.156.476 2.265 1.3232 3.082.8472.818 1.9963 1.277 3.1944 1.277h15.0589c1.1981 0 2.3472-.459 3.1945-1.277.8472-.817 1.3231-1.926 1.3231-3.082V114.39H59.4668z" fill="#2B223D"/>
    <path d="M102.86 58.854a128.9695 128.9695 0 01-16.2013 1.0084c-24.9159 0-46.1111-6.86-54.0211-16.4406-6.9212 4.8974-12.0614 11.7803-14.6865 19.6654-2.6251 7.8851-2.6007 16.3691.0698 24.24 2.6704 7.871 7.8502 14.7258 14.7995 19.5868 6.9493 4.86 15.3125 7.477 23.8951 7.476h29.8582c4.3155-.012 8.4507-1.672 11.5023-4.617 3.052-2.944 4.771-6.935 4.784-11.0989V58.854z" fill="#753B2C"/>
    <path d="M56.7493 32.2601a2.3777 2.3777 0 00-.098 1.252c.0802.4184.2715.8097.5553 1.1354.3504.4069.7308.787 1.1156 1.1625 1.7549 1.7294 3.8494 3.104 6.161 4.0435 2.3117.9396 4.7942 1.4252 7.3025 1.4285h45.6123c3.972.0185 7.857-1.1291 11.138-3.2906 3.281-2.1615 5.803-5.2346 7.232-8.8117a17.071 17.071 0 001.05-4.2184c.404-3.5068-.257-7.0512-1.902-10.2022a1.471 1.471 0 00-.522-.5361 1.5437 1.5437 0 00-.727-.2212 1.5545 1.5545 0 00-.746.1504c-.231.111-.429.2774-.574.4834-7.486 9.9076-29.054 17.0687-54.5098 17.0687a127.5257 127.5257 0 01-18.1242-1.2679c-.6385-.0889-1.2888.0463-1.8327.381s-.9452.8466-1.131 1.4427z" fill="#D78E39"/>
    <path d="M73.772 41.2827h-4.5176v41.9149h4.5176V41.2827z" fill="#2B223D"/>
    <path d="M59.4668 103.768V93.5958c.0093-3.0805 1.2816-6.0321 3.5388-8.2103 2.2573-2.1782 5.3161-3.4059 8.5083-3.4149 3.1922.009 6.251 1.2367 8.5082 3.4149 2.2573 2.1782 3.5295 5.1298 3.5388 8.2103v10.1722c0 .385-.1586.755-.441 1.027-.2824.273-.6655.426-1.0648.426H60.9727c-.3994 0-.7824-.153-1.0648-.426-.2824-.272-.4411-.642-.4411-1.027zm21.0824-4.3596v-5.5098c.0322-2.1544-.7445-4.2473-2.1868-5.8921s-3.4527-2.7305-5.6598-3.0564a9.3609 9.3609 0 00-3.8035.3014c-1.2312.3604-2.3686.97-3.3362 1.7882-.9677.8182-1.7433 1.8262-2.2752 2.9567-.5319 1.1305-.8077 2.3574-.8091 3.5989v5.8126c0 .3854.1586.7551.441 1.0271.2824.273.6655.426 1.0648.426h15.0589c.3992 0 .782-.153 1.0643-.425.2824-.273.4411-.6421.4413-1.0273l.0003-.0003z" fill="#D0D8DD"/>
    <path d="M71.7867 41.2825h45.6113c3.973.0185 7.857-1.1291 11.138-3.2906 3.281-2.1615 5.804-5.2347 7.233-8.8117 5.223-.1574 8.232 1.2595 8.232 5.936 0 11.2379-17.364 20.7201-41.14 23.738a128.981 128.981 0 01-16.2018 1.0084c-24.9159 0-46.111-6.86-54.021-16.4407-2.0636-2.3177-3.2362-5.2511-3.3203-8.3057 0-8.9369 10.9797-5.9761 27.4324-2.856a2.3774 2.3774 0 00-.098 1.2519c.0802.4185.2715.8097.5553 1.1354.3504.4069.7308.7871 1.1156 1.1626 1.7549 1.7294 3.8494 3.104 6.161 4.0435 2.3117.9395 4.7941 1.4251 7.3025 1.4284" fill="#C47A1B"/>
  </g>
  <defs>
    <clipPath id="clip0">
      <path fill="#fff" transform="translate(16 16)" d="M0 0h128v128H0z"/>
    </clipPath>
  </defs>
</svg>
