<svg viewBox="0 0 48 48" height="48" width="48" xmlns="http://www.w3.org/2000/svg"><g transform="matrix(0.48,0,0,0.48,0,0)"><path d="M10.000 51.280 A40.000 40.000 0 1 0 90.000 51.280 A40.000 40.000 0 1 0 10.000 51.280 Z" fill="#C7F0FF" stroke="#C7F0FF"></path><path d="M23.854 79.447 A20.341 2.087 0 1 0 64.536 79.447 A20.341 2.087 0 1 0 23.854 79.447 Z" fill="#45413c" opacity=".15"></path><path d="M36.027,60.2h-11.6a1.26,1.26,0,0,0-1.261,1.261v2.016a1.261,1.261,0,0,0,1.261,1.261h11.6Z" fill="#6dd627"></path><path d="M62.749,60.2h-11.6V64.74h11.6a1.261,1.261,0,0,0,1.26-1.261V61.463A1.261,1.261,0,0,0,62.749,60.2Z" fill="#46b000"></path><path d="M23.170 69.277 L64.009 69.277 L64.009 73.814 L23.170 73.814 Z" fill="#6dd627" stroke="#45413c" stroke-linecap="round" stroke-linejoin="round"></path><path d="M23.170 73.815 L64.009 73.815 L64.009 78.352 L23.170 78.352 Z" fill="#6dd627" stroke="#45413c" stroke-linecap="round" stroke-linejoin="round"></path><path d="M23.170 64.740 L64.009 64.740 L64.009 69.277 L23.170 69.277 Z" fill="#6dd627" stroke="#45413c" stroke-linecap="round" stroke-linejoin="round"></path><path d="M23.170 60.202 L64.009 60.202 L64.009 64.739 L23.170 64.739 Z" fill="none" stroke="#45413c" stroke-linecap="round" stroke-linejoin="round"></path><path d="M36.027 60.202H51.152V78.352H36.027z" fill="#e4ffd1"></path><path d="M42.392,61.591l8.761,1.839V60.2H39.539A6.451,6.451,0,0,0,42.392,61.591Z" fill="#c8ffa1"></path><path d="M36.027 60.202H51.152V78.352H36.027z" fill="none" stroke="#45413c" stroke-linecap="round" stroke-linejoin="round"></path><path d="M43.59 74.318L43.59 75.579" fill="none" stroke="#45413c" stroke-linecap="round" stroke-linejoin="round"></path><path d="M43.59 62.974L43.59 64.235" fill="none" stroke="#45413c" stroke-linecap="round" stroke-linejoin="round"></path><path d="M41.069,71.8a2.521,2.521,0,1,0,2.521-2.521,2.521,2.521,0,1,1,2.521-2.521" fill="none" stroke="#45413c" stroke-linecap="round" stroke-linejoin="round"></path><path d="M18.178 51.127 L59.017 51.127 L59.017 55.664 L18.178 55.664 Z" fill="#6dd627" stroke="#45413c" stroke-linecap="round" stroke-linejoin="round"></path><path d="M18.178 55.664 L59.017 55.664 L59.017 60.201 L18.178 60.201 Z" fill="#6dd627" stroke="#45413c" stroke-linecap="round" stroke-linejoin="round"></path><path d="M18.178 46.589 L59.017 46.589 L59.017 51.126 L18.178 51.126 Z" fill="#6dd627" stroke="#45413c" stroke-linecap="round" stroke-linejoin="round"></path><path d="M18.178 42.052 L59.017 42.052 L59.017 46.589 L18.178 46.589 Z" fill="#6dd627" stroke="#45413c" stroke-linecap="round" stroke-linejoin="round"></path><path d="M31.035 42.052H46.16V60.202H31.035z" fill="#e4ffd1"></path><path d="M37.362,53.887a6.46,6.46,0,0,0,.921,4.892A6.54,6.54,0,0,0,39.538,60.2h6.623V42.052H39.846Z" fill="#c8ffa1"></path><path d="M31.035 42.052H46.16V60.202H31.035z" fill="none" stroke="#45413c" stroke-linecap="round" stroke-linejoin="round"></path><path d="M38.598 56.168L38.598 57.428" fill="none" stroke="#45413c" stroke-linecap="round" stroke-linejoin="round"></path><path d="M38.598 44.824L38.598 46.084" fill="none" stroke="#45413c" stroke-linecap="round" stroke-linejoin="round"></path><path d="M36.077,53.647A2.521,2.521,0,1,0,38.6,51.126a2.521,2.521,0,1,1,2.521-2.521" fill="none" stroke="#45413c" stroke-linecap="round" stroke-linejoin="round"></path><path d="M39.326 17.393 L89.657 17.393 L89.657 56.219 L39.326 56.219 Z" fill="#656769" transform="translate(15.222 92.362) rotate(-78.146)"></path><path d="M85.845,15.575,53.476,8.781a2.885,2.885,0,0,0-3.406,2.224l-1.116,5.318A2.884,2.884,0,0,1,52.36,14.1l32.369,6.794a2.884,2.884,0,0,1,2.224,3.4l1.116-5.318A2.884,2.884,0,0,0,85.845,15.575Z" fill="#87898c"></path><path d="M39.326 17.393 L89.657 17.393 L89.657 56.219 L39.326 56.219 Z" fill="none" stroke="#45413c" stroke-linecap="round" stroke-linejoin="round" transform="translate(15.222 92.362) rotate(-78.146)"></path><path d="M47.56,22.967,40.914,54.633a2.883,2.883,0,0,0,2.223,3.4l32.37,6.794a2.884,2.884,0,0,0,3.405-2.224l6.646-31.665Z" fill="#C7F0FF" stroke="#45413c" stroke-linecap="round" stroke-linejoin="round"></path><path d="M50.407 27.754 L54.721 27.754 L54.721 33.506 L50.407 33.506 Z" fill="#ffffff" stroke="#45413c" stroke-linecap="round" stroke-linejoin="round" transform="translate(11.79 75.781) rotate(-78.146)"></path><path d="M48.930 34.790 L53.244 34.790 L53.244 40.542 L48.930 40.542 Z" fill="#ffffff" stroke="#45413c" stroke-linecap="round" stroke-linejoin="round" transform="translate(3.73 79.927) rotate(-78.146)"></path><path d="M47.453 41.827 L51.767 41.827 L51.767 47.579 L47.453 47.579 Z" fill="#ffffff" stroke="#45413c" stroke-linecap="round" stroke-linejoin="round" transform="translate(-4.331 84.072) rotate(-78.146)"></path><path d="M45.976 48.864 L50.290 48.864 L50.290 54.616 L45.976 54.616 Z" fill="#ffffff" stroke="#45413c" stroke-linecap="round" stroke-linejoin="round" transform="translate(-12.391 88.218) rotate(-78.146)"></path><path d="M58.851 29.526 L63.165 29.526 L63.165 35.278 L58.851 35.278 Z" fill="#ffffff" stroke="#45413c" stroke-linecap="round" stroke-linejoin="round" transform="translate(16.765 85.453) rotate(-78.146)"></path><path d="M56.274 40.961 L57.158 36.738 L62.788 37.917 L61.904 42.140 Z" fill="#ffffff" stroke="#45413c" stroke-linecap="round" stroke-linejoin="round" transform="matrix(0.205, -0.979, 0.979, 0.205, 8.705, 89.599)"></path><path d="M55.897 43.599 L60.211 43.599 L60.211 49.351 L55.897 49.351 Z" fill="#ffffff" stroke="#45413c" stroke-linecap="round" stroke-linejoin="round" transform="translate(0.644 93.745) rotate(-78.146)"></path><path d="M54.420 50.636 L58.734 50.636 L58.734 56.388 L54.420 56.388 Z" fill="#ffffff" stroke="#45413c" stroke-linecap="round" stroke-linejoin="round" transform="translate(-7.416 97.891) rotate(-78.146)"></path><path d="M67.295 31.298 L71.609 31.298 L71.609 37.050 L67.295 37.050 Z" fill="#ffffff" stroke="#45413c" stroke-linecap="round" stroke-linejoin="round" transform="translate(21.74 95.125) rotate(-78.146)"></path><path d="M65.818 38.335 L70.132 38.335 L70.132 44.087 L65.818 44.087 Z" fill="#ffffff" stroke="#45413c" stroke-linecap="round" stroke-linejoin="round" transform="translate(13.68 99.271) rotate(-78.146)"></path><path d="M64.341 45.372 L68.655 45.372 L68.655 51.124 L64.341 51.124 Z" fill="#ffffff" stroke="#45413c" stroke-linecap="round" stroke-linejoin="round" transform="translate(5.62 103.417) rotate(-78.146)"></path><path d="M62.864 52.409 L67.178 52.409 L67.178 58.161 L62.864 58.161 Z" fill="#ffffff" stroke="#45413c" stroke-linecap="round" stroke-linejoin="round" transform="translate(-2.441 107.563) rotate(-78.146)"></path><path d="M75.739 33.071 L80.053 33.071 L80.053 38.823 L75.739 38.823 Z" fill="#ff6242" stroke="#45413c" stroke-linecap="round" stroke-linejoin="round" transform="translate(26.715 104.798) rotate(-78.146)"></path><path d="M74.262 40.107 L78.576 40.107 L78.576 45.859 L74.262 45.859 Z" fill="#ffe500" stroke="#45413c" stroke-linecap="round" stroke-linejoin="round" transform="translate(18.655 108.943) rotate(-78.146)"></path><path d="M68.452 50.662 L79.956 50.662 L79.956 56.414 L68.452 56.414 Z" fill="#6dd627" stroke="#45413c" stroke-linecap="round" stroke-linejoin="round" transform="translate(6.565 115.162) rotate(-78.146)"></path><path d="M39.326 17.393 L89.657 17.393 L89.657 56.219 L39.326 56.219 Z" fill="none" stroke="#45413c" stroke-linecap="round" stroke-linejoin="round" transform="translate(15.222 92.362) rotate(-78.146)"></path><path d="M78.24,65.6s-.039-.06-.122-.161" fill="#ffdcd1"></path><path d="M64.507 6.339 L72.416 6.339 L72.416 32.942 L64.507 32.942 Z" fill="#00b8f0" transform="translate(35.177 82.608) rotate(-78.146)"></path><path d="M59.764,21.855l-3.634-.762a1.531,1.531,0,0,1-1.184-1.813l1-4.744a1.533,1.533,0,0,1,1.813-1.184l11.072,2.324Z" fill="#4acfff"></path><path d="M64.507 6.339 L72.416 6.339 L72.416 32.942 L64.507 32.942 Z" fill="none" stroke="#45413c" stroke-linecap="round" stroke-linejoin="round" transform="translate(35.177 82.608) rotate(-78.146)"></path></g></svg>