<svg width="165" height="160" viewBox="0 0 165 160" fill="none" xmlns="http://www.w3.org/2000/svg">
<circle cx="85" cy="80" r="80" fill="#C7F0FF"/>
<path d="M137.515 121.025V125.757C137.515 138.771 121.874 139.954 121.874 139.954C118.367 140.336 114.864 140.693 111.345 140.927C84.7056 142.699 57.9259 142.699 31.2864 140.933C19.6661 140.164 1.62939 140.658 1.62939 125.739C1.62939 125.429 1.62939 121.025 1.62939 121.025C1.62939 112.43 8.48886 107.05 17.2709 107.003C17.3785 107.003 17.486 107.003 17.5935 107.005C18.5125 107.011 19.451 107.076 20.3993 107.204C38.374 109.591 56.8147 110.081 74.9491 110.081C84.4351 110.081 93.9341 109.877 103.394 109.203C106.35 108.993 109.305 108.735 112.244 108.395C115.301 108.043 118.667 107.103 121.88 106.952C122.943 106.902 123.989 106.937 125.002 107.112C126.837 107.425 128.635 107.952 130.275 108.762C135.293 111.247 137.515 115.976 137.515 121.025Z" fill="#F5F6F7"/>
<path d="M130.61 83.2935L131.976 81.6876C130.695 78.2448 128.065 74.8848 125.784 73.1102C124.064 71.7702 119.919 70.744 117.312 71.6314C114.764 72.4985 114.408 75.3994 115.093 77.177C115.324 77.7743 115.604 78.351 115.914 78.919C116.732 80.4216 117.752 81.8502 118.553 83.3557C119.922 85.929 121.092 88.5966 121.812 91.3827C123.132 96.4669 122.812 101.714 121.874 106.828L121.881 106.952C118.667 107.103 115.301 108.043 112.245 108.395C109.305 108.735 106.35 108.993 103.394 109.203C93.9343 109.877 84.4353 110.081 74.9494 110.081C56.8149 110.081 38.3742 109.59 20.3995 107.204C19.4512 107.076 18.5127 107.011 17.5938 107.005L17.597 106.828C18.5355 93.6514 19.9237 82.8024 24.4402 70.1523C28.6667 58.3155 38.1005 44.9704 49.206 36.7302C69.6736 21.5455 99.9693 25.5146 119.267 38.8008C128.717 45.3076 140.774 57.73 145.01 78.1379L144.988 78.2859C152.557 79.2768 158.371 85.189 158.371 92.3349C158.371 100.176 151.368 106.532 142.729 106.532C134.091 106.532 127.088 100.176 127.088 92.3349C127.088 89.1913 128.359 85.8372 130.61 83.2935Z" fill="#FF3D54"/>
<g opacity="0.2">
<g opacity="0.2">
<path opacity="0.2" d="M102.648 31.1108C102.648 31.1108 136.538 45.8993 139.797 83.1662H146.314C146.314 83.1662 145.336 46.7866 102.648 31.1108Z" fill="#3F456B"/>
</g>
</g>
<path d="M142.729 106.532C151.368 106.532 158.37 100.176 158.37 92.3352C158.37 84.4944 151.368 78.1382 142.729 78.1382C134.09 78.1382 127.087 84.4944 127.087 92.3352C127.087 100.176 134.09 106.532 142.729 106.532Z" fill="#F5F6F7"/>
<g opacity="0.8">
<g opacity="0.8">
<path opacity="0.8" d="M2.06348 118.067C2.06348 118.067 7.495 110.377 21.1814 113.039C34.8677 115.701 73.9716 115.996 73.9716 115.996C73.9716 115.996 103.625 115.996 117.963 113.63C132.302 111.264 134.257 113.63 136.212 116.588C136.212 116.588 133.605 104.416 116.497 107.692C99.3891 110.968 60.2148 111.264 23.2643 107.567C23.2643 107.567 4.4524 104.166 2.06348 118.067Z" fill="white"/>
</g>
</g>
<g opacity="0.1">
<g opacity="0.1">
<path opacity="0.1" d="M99.3833 109.608C99.3833 109.608 109.817 110.673 111.12 120.137C112.212 128.067 113.727 138.408 100.856 141.695C100.856 141.695 114.954 141.322 125.583 139.011C136.212 136.7 137.19 128.163 137.353 124.594C137.515 121.025 138.167 108.917 123.829 107.133C109.165 108.898 99.3833 109.608 99.3833 109.608Z" fill="#3F456B"/>
</g>
</g>
<g opacity="0.1">
<g opacity="0.1">
<path opacity="0.1" d="M129.043 99.1378C129.043 99.1378 138.917 109.279 149.247 99.638C159.023 90.5138 146.966 78.7295 146.966 78.7295C146.966 78.7295 166.641 89.7389 153.157 103.223C140.448 115.931 129.043 99.1378 129.043 99.1378Z" fill="#3F456B"/>
</g>
</g>
<g opacity="0.8">
<g opacity="0.8">
<path opacity="0.8" d="M137.515 97.3629C142.374 97.3629 146.314 93.7876 146.314 89.3773C146.314 84.9669 142.374 81.3916 137.515 81.3916C132.656 81.3916 128.717 84.9669 128.717 89.3773C128.717 93.7876 132.656 97.3629 137.515 97.3629Z" fill="white"/>
</g>
</g>
<g opacity="0.8">
<g opacity="0.8">
<path opacity="0.8" d="M27.807 108.701C27.807 108.701 21.507 109.194 19.2259 118.067C17.2782 125.644 16.6242 140.435 26.0717 140.934L63.9236 142.136C63.9236 142.136 60.285 139.658 59.9591 132.856C59.6333 126.053 59.0014 114.114 63.2279 110.175L27.807 108.701Z" fill="white"/>
</g>
</g>
<g opacity="0.1">
<g opacity="0.1">
<path opacity="0.1" d="M79.8438 136.366C71.823 136.532 63.8099 136.488 55.8608 136.258C42.4661 135.871 28.4656 135.327 15.3159 132.856C15.3159 132.856 2.60716 130.49 2.60716 120.729C2.60716 120.729 -1.97549 136.935 15.4684 139.48C32.9123 142.025 79.8373 142.257 79.8373 142.257C79.8373 142.257 109.491 142.025 121.548 139.954C133.605 137.884 136.863 131.662 136.864 122.8C136.864 124.635 135.312 127.468 133.997 128.615C130.007 132.098 124.862 132.799 119.586 133.605C106.553 135.596 93.029 136.092 79.8438 136.366Z" fill="#3F456B"/>
</g>
</g>
<g opacity="0.8">
<g opacity="0.8">
<path opacity="0.8" d="M88.9382 121.661C89.0524 117.497 71.5001 113.637 49.7342 113.041C27.9683 112.444 10.231 115.336 10.1168 119.5C10.0027 123.664 27.5549 127.524 49.3209 128.12C71.0868 128.717 88.8241 125.825 88.9382 121.661Z" fill="white"/>
</g>
</g>
<g opacity="0.2">
<g opacity="0.2">
<path opacity="0.2" d="M114.379 72.5187C114.379 72.5187 123.829 88.7859 121.874 106.828L103.395 109.203C103.395 109.203 110.794 96.1802 101.344 73.9975C101.344 73.9975 97.7598 65.1245 106.232 61.5752C111.513 59.3632 119.919 64.7706 122.851 71.6138C119.919 71.2879 115.578 71.6017 114.379 72.5187Z" fill="#3F456B"/>
</g>
</g>
<g opacity="0.2">
<g opacity="0.2">
<path opacity="0.2" d="M87.3319 28.2739C87.3319 28.2739 43.9918 26.9705 30.9572 84.6487C30.9572 84.6487 28.3503 96.7419 28.1851 107.854L58.6558 109.756C58.6558 109.756 51.4867 43.9155 87.3319 28.2739Z" fill="white"/>
</g>
</g>
<g opacity="0.2">
<g opacity="0.2">
<path opacity="0.2" d="M26.0693 66.6032C26.0693 66.6032 43.0143 34.9558 75.9268 32.2941C107.817 29.7149 121.921 41.2981 121.921 41.2981C121.921 41.2981 104.169 23.4518 75.2209 27.7248C36.8229 32.2938 26.0693 66.6032 26.0693 66.6032Z" fill="white"/>
</g>
</g>
<g opacity="0.5">
<g opacity="0.5">
<g opacity="0.5">
<path opacity="0.5" d="M15.0741 60.1578C14.66 60.1578 14.2455 60.0007 13.9277 59.6863C13.2884 59.0531 13.2832 58.0214 13.9163 57.3821L19.8774 51.3617C20.5109 50.7223 21.5422 50.7175 22.1816 51.3503C22.8209 51.9834 22.8261 53.0151 22.193 53.6545L16.2319 59.6748C15.9132 59.9968 15.4935 60.1578 15.0741 60.1578Z" fill="#3F456B"/>
</g>
<g opacity="0.5">
<path opacity="0.5" d="M42.5888 32.3714C42.1746 32.3714 41.7601 32.2143 41.4424 31.8998C40.803 31.2667 40.7978 30.235 41.431 29.5956L47.1633 23.8066C47.7964 23.1673 48.8281 23.1621 49.4675 23.7952C50.1068 24.4284 50.112 25.4601 49.4789 26.0994L43.7466 31.8884C43.4279 32.2101 43.0082 32.3714 42.5888 32.3714Z" fill="#3F456B"/>
</g>
</g>
<g opacity="0.5">
<g opacity="0.5">
<path opacity="0.5" d="M35.5517 28.3209C35.4145 28.3209 35.2754 28.3033 35.1365 28.2668C34.2661 28.0381 33.7461 27.1472 33.9748 26.2771L36.093 18.2155C36.3217 17.3451 37.2136 16.8254 38.0827 17.0538C38.9531 17.2826 39.4732 18.1735 39.2444 19.0436L37.1263 27.1051C36.934 27.8367 36.2738 28.3209 35.5517 28.3209Z" fill="#3F456B"/>
</g>
</g>
<g opacity="0.5">
<g opacity="0.5">
<path opacity="0.5" d="M27.6003 28.3603C26.884 28.3603 26.2274 27.8843 26.0296 27.1599L23.8329 19.1191C23.5957 18.251 24.1073 17.3549 24.9751 17.118C25.8435 16.8811 26.739 17.3924 26.9762 18.2601L29.1729 26.3009C29.4101 27.169 28.8985 28.0651 28.0307 28.302C27.887 28.3414 27.7423 28.3603 27.6003 28.3603Z" fill="#3F456B"/>
</g>
</g>
<g opacity="0.5">
<g opacity="0.5">
<path opacity="0.5" d="M20.6981 32.2481C20.2839 32.2481 19.8694 32.091 19.5517 31.7766L13.7627 26.0439C13.1233 25.4108 13.1181 24.3791 13.7513 23.7397C14.3844 23.1004 15.4161 23.0952 16.0555 23.7283L21.8445 29.461C22.4838 30.0941 22.4891 31.1258 21.8559 31.7652C21.5372 32.0871 21.1175 32.2481 20.6981 32.2481Z" fill="#3F456B"/>
</g>
</g>
<g opacity="0.5">
<g opacity="0.5">
<path opacity="0.5" d="M16.7954 39.2731C16.6582 39.2731 16.5191 39.2555 16.3803 39.219L8.31866 37.1009C7.44828 36.8721 6.9282 35.9812 7.15695 35.1111C7.38571 34.2411 8.27728 33.7207 9.14669 33.9494L17.2083 36.0675C18.0787 36.2963 18.5987 37.1872 18.37 38.0573C18.1777 38.7888 17.5175 39.2731 16.7954 39.2731Z" fill="#3F456B"/>
</g>
</g>
<g opacity="0.5">
<g opacity="0.5">
<path opacity="0.5" d="M8.79179 49.4197C8.07554 49.4197 7.41892 48.9437 7.22112 48.2193C6.98389 47.3512 7.4955 46.4554 8.36328 46.2181L16.4043 44.0208C17.2728 43.7839 18.1686 44.2952 18.4055 45.163C18.6427 46.0311 18.1311 46.9269 17.2633 47.1641L9.22226 49.3614C9.07855 49.4008 8.93387 49.4197 8.79179 49.4197Z" fill="#3F456B"/>
</g>
</g>
</g>
<path d="M71.2795 143.882C57.8822 143.882 44.4852 143.441 31.1778 142.56C30.1445 142.491 29.0604 142.433 27.9423 142.373C22.0461 142.055 15.3633 141.695 9.95519 139.628C3.34925 137.102 0 132.429 0 125.74V121.025C0 111.866 7.09898 105.429 17.2634 105.373C18.3664 105.369 19.49 105.44 20.6143 105.589C39.6262 108.112 58.75 108.452 74.9494 108.452C85.9141 108.452 94.9162 108.175 103.28 107.579C106.524 107.347 109.396 107.085 112.059 106.778C113.258 106.64 114.511 106.406 115.839 106.158C118.955 105.577 122.178 104.976 125.279 105.506C127.398 105.869 129.322 106.474 130.999 107.303C136.176 109.866 139.145 114.867 139.145 121.025V125.757C139.145 131.741 136.126 136.389 130.414 139.198C126.409 141.166 122.446 141.541 122.028 141.576C118.678 141.942 115.079 142.313 111.453 142.554C98.1263 143.44 84.7029 143.882 71.2795 143.882ZM17.2813 108.632C13.3194 108.654 9.74664 109.865 7.22086 112.043C4.62892 114.277 3.25866 117.383 3.25866 121.025V125.74C3.25866 131.088 5.75641 134.533 11.1189 136.584C16.0492 138.469 22.4609 138.814 28.1176 139.119C29.2494 139.18 30.3472 139.239 31.3932 139.308C57.891 141.064 84.7537 141.062 111.236 139.303C114.81 139.065 118.376 138.697 121.697 138.334C121.715 138.332 121.733 138.33 121.751 138.329C121.785 138.326 125.469 138.019 129.054 136.234C133.587 133.978 135.886 130.453 135.886 125.757V121.025C135.886 118.162 135.063 112.951 129.553 110.224C128.159 109.534 126.536 109.028 124.728 108.718C122.202 108.285 119.27 108.832 116.436 109.362C115.112 109.609 113.744 109.864 112.432 110.015C109.721 110.328 106.803 110.594 103.511 110.829C95.0683 111.431 85.9927 111.711 74.9491 111.711C58.6431 111.711 39.3854 111.368 20.1851 108.819C19.2085 108.689 18.2289 108.629 17.2813 108.632ZM17.2722 107.002H17.2754H17.2722Z" fill="#3F456B"/>
<path d="M17.5982 108.457C17.5594 108.457 17.5203 108.456 17.4809 108.453C16.5835 108.389 15.9073 107.61 15.9715 106.712C16.9423 93.0741 18.4409 82.1097 22.9053 69.6046C27.4456 56.8867 37.388 43.4692 48.2348 35.4219C58.1512 28.0648 70.785 24.6217 84.7731 25.4625C97.4887 26.2276 110.067 30.488 120.191 37.4589C128.052 42.8712 141.935 55.3101 146.605 77.8069C146.789 78.6881 146.223 79.5506 145.341 79.7334C144.46 79.9176 143.598 79.3505 143.415 78.4694C138.976 57.0864 125.801 45.2784 118.343 40.143C108.84 33.6 96.5333 29.4348 84.5776 28.7153C71.3644 27.9208 59.4697 31.1446 50.1766 38.0393C39.8128 45.7284 30.3128 58.5486 25.9746 70.7005C21.6158 82.9093 20.198 93.2347 19.222 106.944C19.1607 107.802 18.4455 108.457 17.5982 108.457Z" fill="#3F456B"/>
<path d="M142.729 109.465C132.883 109.465 125.458 102.661 125.458 93.6388C125.458 90.0797 126.557 86.5153 128.551 83.6024C130.725 80.4288 133.805 78.3391 137.224 77.7183C138.108 77.5567 138.957 78.1452 139.118 79.0302C139.279 79.9156 138.691 80.7635 137.806 80.9241C132.117 81.9575 128.717 88.2001 128.717 93.6388C128.717 100.804 134.741 106.206 142.729 106.206C150.455 106.206 156.741 100.569 156.741 93.6388C156.741 87.0429 151.261 80.7518 144.775 79.9006C143.882 79.7836 143.254 78.9654 143.371 78.0731C143.488 77.1809 144.305 76.5533 145.199 76.6696C153.36 77.7404 160 85.3527 160 93.6388C160 102.365 152.252 109.465 142.729 109.465Z" fill="#3F456B"/>
<path d="M121.876 108.458C121.813 108.458 121.75 108.454 121.686 108.447C120.792 108.343 120.152 107.535 120.255 106.641C120.285 106.37 122.523 84.4807 105.594 62.5714C105.044 61.8594 105.175 60.8362 105.887 60.2858C106.599 59.7357 107.623 59.8671 108.173 60.5788C117.463 72.6022 121.135 84.5462 122.58 92.4487C124.154 101.055 123.52 106.776 123.492 107.016C123.396 107.846 122.692 108.458 121.876 108.458Z" fill="#3F456B"/>
<path d="M131.976 83.3174C131.331 83.3174 130.72 82.9313 130.464 82.2962C130.267 81.8113 125.628 70.7413 114.931 74.0743C114.072 74.3415 113.159 73.8628 112.891 73.0035C112.623 72.1442 113.103 71.2307 113.962 70.9632C121.09 68.7421 126.056 71.6593 128.966 74.4976C132.021 77.4756 133.429 80.9354 133.488 81.0813C133.823 81.9165 133.417 82.8651 132.582 83.1998C132.383 83.2796 132.178 83.3174 131.976 83.3174Z" fill="#3F456B"/>
</svg>
