<svg width="160" height="160" viewBox="0 0 160 160" fill="none" xmlns="http://www.w3.org/2000/svg">
<path d="M12.0283 79.9995C12.0283 96.9734 18.7712 113.252 30.7735 125.254C42.7758 137.257 59.0545 144 76.0283 144C93.0022 144 109.281 137.257 121.283 125.254C133.285 113.252 140.028 96.9734 140.028 79.9995C140.028 63.0257 133.285 46.747 121.283 34.7447C109.281 22.7423 93.0022 15.9995 76.0283 15.9995C59.0545 15.9995 42.7758 22.7423 30.7735 34.7447C18.7712 46.747 12.0283 63.0257 12.0283 79.9995V79.9995Z" fill="#009FD9"/>
<path d="M17.1484 75.4838C17.1484 79.9832 18.9358 84.2982 22.1173 87.4798C25.2988 90.6613 29.6139 92.4486 34.1132 92.4486C38.6126 92.4486 42.9276 90.6613 46.1092 87.4798C49.2907 84.2982 51.078 79.9832 51.078 75.4838C51.078 70.9845 49.2907 66.6694 46.1092 63.4879C42.9276 60.3064 38.6126 58.519 34.1132 58.519C29.6139 58.519 25.2988 60.3064 22.1173 63.4879C18.9358 66.6694 17.1484 70.9845 17.1484 75.4838V75.4838Z" fill="#EDDCB1"/>
<path d="M51.0777 75.4843C51.0793 79.0051 49.9837 82.439 47.9433 85.3083L47.8457 85.2443L44.2425 86.4555C43.8978 86.5719 43.5225 86.559 43.1866 86.4191C42.8507 86.2793 42.5771 86.0221 42.4169 85.6955L40.1593 81.1883C40.0394 80.9493 39.9852 80.6827 40.0024 80.4158C40.0195 80.149 40.1074 79.8915 40.2569 79.6699L42.5513 76.2443C42.6881 76.0325 42.7702 75.79 42.79 75.5386C42.8099 75.2872 42.7669 75.0349 42.6649 74.8043L39.9993 68.7803C39.8521 68.4599 39.6021 68.198 39.2889 68.0363L33.5529 65.1771C33.3423 65.069 33.1602 64.913 33.0211 64.7215C32.882 64.5301 32.7899 64.3086 32.7522 64.075C32.7145 63.8414 32.7323 63.6022 32.8041 63.3767C32.8759 63.1512 32.9998 62.9458 33.1657 62.7771L36.5433 59.4011L36.7033 58.7227C40.7046 59.3429 44.3525 61.373 46.9884 64.4467C49.6243 67.5204 51.0747 71.4351 51.0777 75.4843V75.4843Z" fill="#998972"/>
<path d="M17.3535 72.9846C17.3535 74.8843 17.787 76.7653 18.6293 78.5204C19.4716 80.2754 20.7061 81.8701 22.2624 83.2134C23.8187 84.5566 25.6663 85.6222 27.6997 86.3491C29.7332 87.0761 31.9126 87.4502 34.1135 87.4502C36.3145 87.4502 38.4939 87.0761 40.5273 86.3491C42.5607 85.6222 44.4083 84.5566 45.9646 83.2134C47.5209 81.8701 48.7555 80.2754 49.5977 78.5204C50.44 76.7653 50.8735 74.8843 50.8735 72.9846C50.8735 71.085 50.44 69.2039 49.5977 67.4489C48.7555 65.6938 47.5209 64.0992 45.9646 62.7559C44.4083 61.4127 42.5607 60.3471 40.5273 59.6202C38.4939 58.8932 36.3145 58.519 34.1135 58.519C31.9126 58.519 29.7332 58.8932 27.6997 59.6202C25.6663 60.3471 23.8187 61.4127 22.2624 62.7559C20.7061 64.0992 19.4716 65.6938 18.6293 67.4489C17.787 69.2039 17.3535 71.085 17.3535 72.9846V72.9846Z" fill="#CE9B6E"/>
<path d="M50.8793 72.9704C50.3439 69.3936 48.6798 66.0815 46.1297 63.5171C43.5796 60.9526 40.2769 59.2699 36.7033 58.7144L36.5433 59.3928L33.1657 62.7688C32.9998 62.9375 32.8759 63.1429 32.8041 63.3684C32.7323 63.5939 32.7145 63.8331 32.7522 64.0667C32.7899 64.3003 32.882 64.5218 33.0211 64.7132C33.1602 64.9047 33.3423 65.0607 33.5529 65.1688L39.2889 68.028C39.6021 68.1897 39.8521 68.4516 39.9993 68.772L42.6665 74.7976C42.7685 75.0282 42.8115 75.2805 42.7916 75.5319C42.7718 75.7833 42.6898 76.0258 42.5529 76.2376L40.2585 79.6632C40.109 79.8848 40.0211 80.1423 40.004 80.4091C39.9868 80.676 40.041 80.9426 40.1609 81.1816L42.2601 85.3624C44.556 84.1025 46.5289 82.3281 48.0243 80.1781C49.5197 78.0282 50.4969 75.5611 50.8793 72.9704Z" fill="#AD7364"/>
<path d="M36.6492 76.2439C36.8417 76.7217 36.8501 77.2538 36.6727 77.7374C36.4954 78.221 36.1449 78.6215 35.6892 78.8615L28.742 82.6087C28.4945 82.7429 28.2226 82.8259 27.9423 82.853C27.6621 82.88 27.3793 82.8505 27.1107 82.7662C26.8421 82.6819 26.5932 82.5445 26.3787 82.3621C26.1642 82.1798 25.9885 81.9563 25.862 81.7047L24.9564 79.8791C24.7892 79.5491 24.7131 79.1804 24.7359 78.8111C24.7587 78.4419 24.8795 78.0853 25.086 77.7783L27.2828 74.4663C27.5144 74.1225 27.6386 73.7177 27.6396 73.3031V70.9607C27.6388 70.6429 27.7109 70.329 27.8503 70.0433C27.9897 69.7576 28.1927 69.5077 28.4438 69.3127C28.6949 69.1177 28.9873 68.9829 29.2986 68.9185C29.6099 68.8542 29.9318 68.8621 30.2396 68.9415L33.0684 69.6359C33.3905 69.7183 33.6888 69.8754 33.9389 70.0944C34.1891 70.3135 34.3842 70.5883 34.5084 70.8967L36.6492 76.2439Z" fill="#FEF7DD"/>
<path d="M36.6971 58.7191C41.038 59.3831 44.9528 61.7028 47.6199 65.1915C50.287 68.6801 51.4988 73.0663 51.0011 77.4294C50.5034 81.7924 48.3348 85.793 44.9505 88.5913C41.5662 91.3896 37.2295 92.7681 32.8506 92.4373C28.4718 92.1065 24.3913 90.0922 21.4658 86.8172C18.5403 83.5423 16.9973 79.2613 17.1607 74.873C17.3241 70.4847 19.1811 66.3303 22.342 63.2819C25.5029 60.2336 29.7218 58.5282 34.1131 58.5239C34.9782 58.5231 35.842 58.5883 36.6971 58.7191V58.7191Z" stroke="#45413C" stroke-width="1.5" stroke-linecap="round" stroke-linejoin="round"/>
<path d="M27.6505 73.3031V70.9607C27.6497 70.6429 27.7218 70.329 27.8612 70.0433C28.0006 69.7576 28.2037 69.5077 28.4547 69.3127C28.7058 69.1177 28.9982 68.9829 29.3095 68.9185C29.6208 68.8542 29.9428 68.8621 30.2505 68.9415L33.0793 69.6359C33.4015 69.7183 33.6997 69.8754 33.9499 70.0944C34.2 70.3135 34.3951 70.5883 34.5194 70.8967L36.6522 76.2439C36.8446 76.7217 36.853 77.2538 36.6756 77.7374C36.4983 78.221 36.1479 78.6215 35.6922 78.8615L28.7449 82.6087C28.4974 82.7429 28.2255 82.8259 27.9453 82.853C27.6651 82.88 27.3823 82.8505 27.1136 82.7662C26.845 82.6819 26.5961 82.5445 26.3816 82.3621C26.1671 82.1798 25.9914 81.9563 25.865 81.7047L24.9594 79.8791C24.7922 79.5491 24.716 79.1804 24.7388 78.8111C24.7616 78.4419 24.8825 78.0853 25.0889 77.7783L27.2858 74.4663C27.5202 74.1234 27.6472 73.7185 27.6505 73.3031V73.3031Z" stroke="#45413C" stroke-width="1.5" stroke-linecap="round" stroke-linejoin="round"/>
<path d="M36.5369 59.3931L33.1593 62.7691C32.9934 62.9378 32.8696 63.1432 32.7977 63.3687C32.7259 63.5942 32.7081 63.8334 32.7458 64.067C32.7835 64.3006 32.8756 64.5221 33.0147 64.7135C33.1538 64.905 33.336 65.061 33.5465 65.1691L39.2825 68.0283C39.5957 68.19 39.8458 68.4519 39.9929 68.7723L42.6601 74.7979C42.7621 75.0285 42.8051 75.2808 42.7853 75.5322C42.7655 75.7836 42.6834 76.0261 42.5465 76.2379L40.2521 79.6635C40.1026 79.8852 40.0148 80.1426 39.9976 80.4094C39.9805 80.6763 40.0346 80.9429 40.1545 81.1819L42.4169 85.6891C42.5772 86.0157 42.8507 86.2729 43.1866 86.4127C43.5225 86.5526 43.8978 86.5655 44.2425 86.4491L47.8457 85.2379" stroke="#45413C" stroke-width="1.5" stroke-linecap="round" stroke-linejoin="round"/>
<path d="M66.2847 35.3003C66.3115 35.2023 66.3633 35.113 66.4352 35.0412C66.507 34.9693 66.5963 34.9175 66.6943 34.8907L74.3999 32.7995C74.5207 32.7638 74.6267 32.6899 74.7021 32.589C74.7775 32.4881 74.8183 32.3655 74.8183 32.2395C74.8183 32.1136 74.7775 31.991 74.7021 31.89C74.6267 31.7891 74.5207 31.7153 74.3999 31.6795L66.7007 29.5803C66.6027 29.5536 66.5134 29.5017 66.4416 29.4299C66.3698 29.3581 66.3179 29.2687 66.2911 29.1707L64.1903 21.4715C64.1546 21.3507 64.0808 21.2447 63.9798 21.1693C63.8789 21.094 63.7563 21.0532 63.6303 21.0532C63.5044 21.0532 63.3818 21.094 63.2809 21.1693C63.1799 21.2447 63.1061 21.3507 63.0703 21.4715L60.9599 29.1563C60.9333 29.2544 60.8815 29.3438 60.8097 29.4157C60.7378 29.4875 60.6484 29.5393 60.5503 29.5659L52.8511 31.6667C52.7294 31.7015 52.6224 31.7749 52.5462 31.876C52.4699 31.977 52.4287 32.1002 52.4287 32.2267C52.4287 32.3533 52.4699 32.4764 52.5462 32.5775C52.6224 32.6785 52.7294 32.752 52.8511 32.7867L60.5519 34.8875C60.6497 34.9143 60.7388 34.9659 60.8106 35.0375C60.8824 35.109 60.9344 35.1979 60.9615 35.2955L63.0607 42.9963C63.0965 43.1171 63.1703 43.2231 63.2713 43.2985C63.3722 43.3739 63.4948 43.4146 63.6207 43.4146C63.7467 43.4146 63.8693 43.3739 63.9702 43.2985C64.0712 43.2231 64.145 43.1171 64.1807 42.9963L66.2847 35.3003Z" fill="#FFE500" stroke="#45413C" stroke-width="1.5" stroke-linecap="round" stroke-linejoin="round"/>
<path d="M100.201 40.2613C100.361 39.6735 100.672 39.1377 101.102 38.7069C101.533 38.2761 102.069 37.9653 102.657 37.8053L105.998 36.8949C106.118 36.8592 106.224 36.7853 106.3 36.6844C106.375 36.5835 106.416 36.4609 106.416 36.3349C106.416 36.2089 106.375 36.0863 106.3 35.9854C106.224 35.8845 106.118 35.8107 105.998 35.7749L102.657 34.8645C102.069 34.7043 101.533 34.3935 101.102 33.9627C100.671 33.532 100.36 32.9963 100.199 32.4085L99.2887 29.0677C99.253 28.9469 99.1791 28.8409 99.0782 28.7655C98.9773 28.6901 98.8547 28.6494 98.7287 28.6494C98.6027 28.6494 98.4801 28.6901 98.3792 28.7655C98.2783 28.8409 98.2044 28.9469 98.1687 29.0677L97.2583 32.4085C97.0977 32.996 96.7867 33.5316 96.356 33.9622C95.9253 34.3929 95.3898 34.7039 94.8023 34.8645L91.4615 35.7765C91.3398 35.8113 91.2327 35.8847 91.1565 35.9858C91.0803 36.0868 91.0391 36.2099 91.0391 36.3365C91.0391 36.4631 91.0803 36.5862 91.1565 36.6872C91.2327 36.7883 91.3398 36.8618 91.4615 36.8965L94.8023 37.8069C95.3898 37.9675 95.9253 38.2785 96.356 38.7092C96.7867 39.1399 97.0977 39.6754 97.2583 40.2629L98.1703 43.6037C98.2051 43.7254 98.2785 43.8325 98.3796 43.9087C98.4806 43.9849 98.6037 44.0261 98.7303 44.0261C98.8569 44.0261 98.98 43.9849 99.081 43.9087C99.1821 43.8325 99.2555 43.7254 99.2903 43.6037L100.201 40.2613Z" fill="#FFE500" stroke="#45413C" stroke-width="1.5" stroke-linecap="round" stroke-linejoin="round"/>
<path d="M44.4218 119.61C44.5826 119.022 44.8938 118.487 45.3248 118.056C45.7558 117.625 46.2916 117.314 46.8794 117.154L50.2202 116.242C50.3419 116.207 50.449 116.134 50.5252 116.033C50.6014 115.932 50.6427 115.809 50.6427 115.682C50.6427 115.556 50.6014 115.432 50.5252 115.331C50.449 115.23 50.3419 115.157 50.2202 115.122L46.8794 114.21C46.2916 114.05 45.7558 113.739 45.325 113.309C44.8942 112.878 44.5835 112.342 44.4234 111.754L43.5194 108.409C43.4837 108.288 43.4098 108.182 43.3089 108.106C43.208 108.031 43.0854 107.99 42.9594 107.99C42.8335 107.99 42.7109 108.031 42.6099 108.106C42.509 108.182 42.4352 108.288 42.3994 108.409L41.489 111.749C41.3288 112.337 41.018 112.873 40.5873 113.304C40.1565 113.735 39.6208 114.046 39.033 114.207L35.6922 115.117C35.5714 115.153 35.4654 115.227 35.39 115.328C35.3147 115.429 35.2739 115.551 35.2739 115.677C35.2739 115.803 35.3147 115.926 35.39 116.027C35.4654 116.128 35.5714 116.202 35.6922 116.237L39.033 117.148C39.6205 117.308 40.1561 117.619 40.5867 118.05C41.0174 118.481 41.3284 119.016 41.489 119.604L42.401 122.945C42.4358 123.066 42.5093 123.173 42.6103 123.25C42.7113 123.326 42.8345 123.367 42.961 123.367C43.0876 123.367 43.2107 123.326 43.3118 123.25C43.4128 123.173 43.4863 123.066 43.521 122.945L44.4218 119.61Z" fill="#FFE500" stroke="#45413C" stroke-width="1.5" stroke-linecap="round" stroke-linejoin="round"/>
<path d="M119.749 64.5915L130.751 75.5931C130.984 75.8245 131.186 76.0848 131.352 76.3675L134.872 72.8475C135.234 72.4865 135.521 72.0577 135.716 71.5858C135.912 71.1138 136.012 70.608 136.012 70.0971C136.012 69.5863 135.912 69.0804 135.716 68.6085C135.521 68.1366 135.234 67.7078 134.872 67.3467L127.992 60.4667C127.263 59.7377 126.274 59.3281 125.242 59.3281C124.211 59.3281 123.221 59.7377 122.492 60.4667L118.972 63.9867C119.255 64.1554 119.516 64.3586 119.749 64.5915V64.5915Z" fill="#B58B00"/>
<path d="M131.444 63.9003L127.999 60.4619C127.27 59.7328 126.28 59.3232 125.249 59.3232C124.217 59.3232 123.228 59.7328 122.499 60.4619L118.979 63.9819C119.26 64.1499 119.519 64.352 119.751 64.5835L125.254 70.0843L131.444 63.9003Z" fill="#EBCB00"/>
<path d="M119.749 64.5915L130.751 75.5931C130.984 75.8245 131.186 76.0848 131.352 76.3675L134.872 72.8475C135.234 72.4865 135.521 72.0577 135.716 71.5858C135.912 71.1138 136.012 70.608 136.012 70.0971C136.012 69.5863 135.912 69.0804 135.716 68.6085C135.521 68.1366 135.234 67.7078 134.872 67.3467L127.992 60.4667C127.263 59.7377 126.274 59.3281 125.242 59.3281C124.211 59.3281 123.221 59.7377 122.492 60.4667L118.972 63.9867C119.255 64.1554 119.516 64.3586 119.749 64.5915V64.5915Z" stroke="#45413C" stroke-width="1.5" stroke-linecap="round" stroke-linejoin="round"/>
<path d="M118.95 92.8967L130.752 81.0935C131.113 80.7324 131.4 80.3037 131.595 79.8317C131.791 79.3598 131.892 78.854 131.892 78.3431C131.892 77.8322 131.791 77.3264 131.595 76.8545C131.4 76.3825 131.113 75.9538 130.752 75.5927L119.75 64.5911C119.021 63.8621 118.032 63.4526 117.001 63.4526C115.969 63.4526 114.98 63.8621 114.251 64.5911L102.448 76.3943C102.083 76.7588 101.878 77.2532 101.878 77.7687V80.2839C101.878 80.5392 101.828 80.792 101.73 81.0279C101.633 81.2637 101.489 81.4779 101.309 81.6583L99.6941 83.2727C99.3313 83.6359 98.8395 83.8407 98.3261 83.8423L95.8173 83.8519C95.3049 83.8541 94.8139 84.0581 94.4509 84.4199L82.6301 96.2167C82.2685 96.578 81.9815 97.0069 81.7858 97.4791C81.59 97.9514 81.4893 98.4575 81.4893 98.9687C81.4893 99.4799 81.59 99.986 81.7858 100.458C81.9815 100.93 82.2685 101.359 82.6301 101.721L93.6253 112.716C93.9866 113.078 94.4156 113.364 94.8878 113.56C95.36 113.756 95.8661 113.857 96.3773 113.857C96.8885 113.857 97.3947 113.756 97.8669 113.56C98.3391 113.364 98.7681 113.078 99.1293 112.716L110.925 100.897C111.287 100.534 111.491 100.043 111.493 99.5303L111.502 97.0215C111.504 96.5082 111.709 96.0163 112.072 95.6535L113.686 94.0391C113.867 93.8584 114.081 93.7151 114.317 93.6173C114.554 93.5196 114.807 93.4693 115.062 93.4695H117.576C118.092 93.4682 118.586 93.2622 118.95 92.8967V92.8967Z" fill="#E8F4FA"/>
<path d="M125.253 70.0919L119.75 64.5911C119.021 63.8621 118.032 63.4526 117.001 63.4526C115.969 63.4526 114.98 63.8621 114.251 64.5911L102.448 76.3943C102.267 76.5748 102.123 76.7892 102.025 77.0254C101.928 77.2616 101.878 77.5147 101.878 77.7703V80.2839C101.878 80.7994 101.673 81.2938 101.309 81.6583L99.6941 83.2727C99.3313 83.6359 98.8395 83.8407 98.3261 83.8423L95.8173 83.8519C95.3049 83.8541 94.8139 84.0581 94.4509 84.4199L82.6301 96.2167C82.2685 96.578 81.9815 97.0069 81.7858 97.4792C81.59 97.9514 81.4893 98.4575 81.4893 98.9687C81.4893 99.4799 81.59 99.9861 81.7858 100.458C81.9815 100.93 82.2685 101.359 82.6301 101.721L88.1293 107.218L125.253 70.0919Z" fill="white"/>
<path d="M118.95 92.8967L130.752 81.0935C131.113 80.7324 131.4 80.3037 131.595 79.8317C131.791 79.3598 131.892 78.854 131.892 78.3431C131.892 77.8322 131.791 77.3264 131.595 76.8545C131.4 76.3825 131.113 75.9538 130.752 75.5927L119.75 64.5911C119.021 63.8621 118.032 63.4526 117.001 63.4526C115.969 63.4526 114.98 63.8621 114.251 64.5911L102.448 76.3943C102.083 76.7588 101.878 77.2532 101.878 77.7687V80.2839C101.878 80.5392 101.828 80.792 101.73 81.0279C101.633 81.2637 101.489 81.4779 101.309 81.6583L99.6941 83.2727C99.3313 83.6359 98.8395 83.8407 98.3261 83.8423L95.8173 83.8519C95.3049 83.8541 94.8139 84.0581 94.4509 84.4199L82.6301 96.2167C82.2685 96.578 81.9815 97.0069 81.7858 97.4791C81.59 97.9514 81.4893 98.4575 81.4893 98.9687C81.4893 99.4799 81.59 99.986 81.7858 100.458C81.9815 100.93 82.2685 101.359 82.6301 101.721L93.6253 112.716C93.9866 113.078 94.4156 113.364 94.8878 113.56C95.36 113.756 95.8661 113.857 96.3773 113.857C96.8885 113.857 97.3947 113.756 97.8669 113.56C98.3391 113.364 98.7681 113.078 99.1293 112.716L110.925 100.897C111.287 100.534 111.491 100.043 111.493 99.5303L111.502 97.0215C111.504 96.5082 111.709 96.0163 112.072 95.6535L113.686 94.0391C113.867 93.8584 114.081 93.7151 114.317 93.6173C114.554 93.5196 114.807 93.4693 115.062 93.4695H117.576C118.092 93.4682 118.586 93.2622 118.95 92.8967V92.8967Z" stroke="#45413C" stroke-width="1.5" stroke-linecap="round" stroke-linejoin="round"/>
<path d="M86.1215 130.996C88.2395 128.205 89.2624 124.735 88.9971 121.241C88.7318 117.747 87.1967 114.471 84.6815 112.032L83.3071 110.657C80.8675 108.142 77.5916 106.607 74.0977 106.341C70.6038 106.076 67.1336 107.099 64.3423 109.217C64.1227 109.386 63.9419 109.601 63.8121 109.845C63.6822 110.09 63.6063 110.36 63.5895 110.637C63.5727 110.913 63.6153 111.19 63.7145 111.449C63.8137 111.708 63.9672 111.943 64.1647 112.137L83.1999 131.174C83.3944 131.372 83.6291 131.525 83.888 131.625C84.147 131.724 84.4242 131.767 84.7011 131.75C84.9779 131.733 85.248 131.657 85.493 131.527C85.738 131.397 85.9523 131.216 86.1215 130.996V130.996Z" fill="#E8F4FA"/>
<path d="M83.9998 111.344L83.3134 110.657C80.8738 108.142 77.5979 106.607 74.104 106.341C70.6101 106.076 67.14 107.099 64.3486 109.217C64.129 109.386 63.9483 109.601 63.8184 109.845C63.6886 110.09 63.6127 110.36 63.5959 110.637C63.579 110.913 63.6217 111.19 63.7209 111.449C63.8201 111.708 63.9736 111.943 64.171 112.137L73.6862 121.654L83.9998 111.344Z" fill="white"/>
<path d="M86.1215 130.996C88.2395 128.205 89.2624 124.735 88.9971 121.241C88.7318 117.747 87.1967 114.471 84.6815 112.032L83.3071 110.657C80.8675 108.142 77.5916 106.607 74.0977 106.341C70.6038 106.076 67.1336 107.099 64.3423 109.217C64.1227 109.386 63.9419 109.601 63.8121 109.845C63.6822 110.09 63.6063 110.36 63.5895 110.637C63.5727 110.913 63.6153 111.19 63.7145 111.449C63.8137 111.708 63.9672 111.943 64.1647 112.137L83.1999 131.174C83.3944 131.372 83.6291 131.525 83.888 131.625C84.147 131.724 84.4242 131.767 84.7011 131.75C84.9779 131.733 85.248 131.657 85.493 131.527C85.738 131.397 85.9523 131.216 86.1215 130.996V130.996Z" stroke="#45413C" stroke-width="1.5" stroke-linecap="round" stroke-linejoin="round"/>
<path d="M73.6858 121.659L69.561 125.783" stroke="#45413C" stroke-width="1.5" stroke-linecap="round" stroke-linejoin="round"/>
<path d="M104.628 86.5918L108.753 90.7166" stroke="#45413C" stroke-width="1.5" stroke-linecap="round" stroke-linejoin="round"/>
<path d="M64.7466 61.8379L79.8741 46.7103L102.565 69.4011L87.4374 84.5287L64.7466 61.8379Z" fill="#FFF48C" stroke="#45413C" stroke-width="1.5" stroke-linecap="round" stroke-linejoin="round"/>
<path d="M72.3115 54.2729L95.0011 76.9641" stroke="#45413C" stroke-width="1.5" stroke-linecap="round" stroke-linejoin="round"/>
<path d="M95.0014 61.8379L79.875 76.9643" stroke="#45413C" stroke-width="1.5" stroke-linecap="round" stroke-linejoin="round"/>
<path d="M87.4379 54.2729L72.3115 69.4009" stroke="#45413C" stroke-width="1.5" stroke-linecap="round" stroke-linejoin="round"/>
<path d="M84.687 112.032C85.1385 112.484 85.6747 112.843 86.265 113.088C86.8553 113.333 87.488 113.459 88.127 113.459C88.7661 113.459 89.3988 113.333 89.9891 113.088C90.5794 112.843 91.1156 112.484 91.567 112.032L92.255 111.344L83.999 103.093L83.3126 103.781C82.8606 104.232 82.502 104.769 82.2573 105.359C82.0127 105.949 81.8867 106.582 81.8867 107.221C81.8867 107.86 82.0127 108.492 82.2573 109.083C82.502 109.673 82.8606 110.209 83.3126 110.661L84.687 112.032Z" fill="#B58B00"/>
<path d="M88.1254 107.219L83.999 103.093L83.3126 103.781C82.8606 104.232 82.502 104.769 82.2573 105.359C82.0127 105.949 81.8867 106.582 81.8867 107.221C81.8867 107.86 82.0127 108.492 82.2573 109.083C82.502 109.673 82.8606 110.209 83.3126 110.661L83.999 111.347L88.1254 107.219Z" fill="#EBCB00"/>
<path d="M84.687 112.032C85.1385 112.484 85.6747 112.843 86.265 113.088C86.8553 113.333 87.488 113.459 88.127 113.459C88.7661 113.459 89.3988 113.333 89.9891 113.088C90.5794 112.843 91.1156 112.484 91.567 112.032L92.255 111.344L83.999 103.093L83.3126 103.781C82.8606 104.232 82.502 104.769 82.2573 105.359C82.0127 105.949 81.8867 106.582 81.8867 107.221C81.8867 107.86 82.0127 108.492 82.2573 109.083C82.502 109.673 82.8606 110.209 83.3126 110.661L84.687 112.032Z" stroke="#45413C" stroke-width="1.5" stroke-linecap="round" stroke-linejoin="round"/>
<path d="M103.94 74.9018L100.502 71.4634" stroke="#45413C" stroke-width="1.5" stroke-linecap="round" stroke-linejoin="round"/>
<path d="M92.9389 85.9028L89.5005 82.4644" stroke="#45413C" stroke-width="1.5" stroke-linecap="round" stroke-linejoin="round"/>
<path d="M110.816 107.907L125.943 92.7792L148.634 115.47L133.507 130.598L110.816 107.907Z" fill="#FFF48C" stroke="#45413C" stroke-width="1.5" stroke-linecap="round" stroke-linejoin="round"/>
<path d="M141.07 123.033L118.381 100.342" stroke="#45413C" stroke-width="1.5" stroke-linecap="round" stroke-linejoin="round"/>
<path d="M133.507 100.342L118.381 115.47" stroke="#45413C" stroke-width="1.5" stroke-linecap="round" stroke-linejoin="round"/>
<path d="M141.071 107.907L125.944 123.033" stroke="#45413C" stroke-width="1.5" stroke-linecap="round" stroke-linejoin="round"/>
<path d="M120.443 91.4048L123.88 94.8416" stroke="#45413C" stroke-width="1.5" stroke-linecap="round" stroke-linejoin="round"/>
<path d="M109.44 102.406L112.879 105.843" stroke="#45413C" stroke-width="1.5" stroke-linecap="round" stroke-linejoin="round"/>
</svg>
