<svg width="160" height="160" viewBox="0 0 160 160" fill="none" xmlns="http://www.w3.org/2000/svg">
<path d="M79.8977 143.999C91.1248 143.998 102.154 141.04 111.874 135.423C121.595 129.805 129.664 121.726 135.27 111.999H24.5249C30.1311 121.726 38.2006 129.805 47.9212 135.423C57.6418 141.04 68.6706 143.998 79.8977 143.999V143.999Z" fill="#E8F4FA"/>
<path d="M21.6001 106.399C22.4737 108.319 23.4721 110.18 24.5249 111.999H135.27C136.323 110.18 137.322 108.319 138.195 106.399H21.6001Z" fill="#FFE5EE"/>
<path d="M144.001 79.9994C144.002 70.4476 141.865 61.0167 137.747 52.3983C133.629 43.7799 127.634 36.1926 120.202 30.1928C112.77 24.1929 104.089 19.9328 94.7957 17.7247C85.5027 15.5167 75.8332 15.4167 66.4966 17.4322C57.1599 19.4477 48.3927 23.5275 40.8381 29.3724C33.2834 35.2173 27.1328 42.6791 22.8374 51.2105C18.542 59.7419 16.2107 69.1267 16.0145 78.6764C15.8183 88.2261 17.7621 97.6987 21.7034 106.399H138.299C142.063 98.1076 144.008 89.1056 144.001 79.9994V79.9994Z" fill="#C7F0FF"/>
<path d="M17.6006 106.399H142.401" stroke="#45413C" stroke-width="1.5" stroke-linecap="round" stroke-linejoin="round"/>
<path d="M10.4004 106.399H14.4004" stroke="#45413C" stroke-width="1.5" stroke-linecap="round" stroke-linejoin="round"/>
<path d="M145.601 106.399H149.601" stroke="#45413C" stroke-width="1.5" stroke-linecap="round" stroke-linejoin="round"/>
<path d="M56.0001 94.0998C56.01 94.564 55.9272 95.0256 55.7564 95.4574C55.5856 95.8891 55.3304 96.2825 55.0056 96.6143C54.6808 96.9462 54.293 97.2098 53.8649 97.3898C53.4369 97.5698 52.9772 97.6625 52.5129 97.6625C52.0486 97.6625 51.5889 97.5698 51.1609 97.3898C50.7328 97.2098 50.345 96.9462 50.0202 96.6143C49.6954 96.2825 49.4402 95.8891 49.2694 95.4574C49.0986 95.0256 49.0158 94.564 49.0257 94.0998V89.4502H56.0001V94.0998Z" fill="#FFDA8F" stroke="#45413C" stroke-width="1.5" stroke-linecap="round" stroke-linejoin="round"/>
<path d="M88.5551 94.0998C88.5551 95.0249 88.1876 95.912 87.5335 96.5662C86.8794 97.2203 85.9922 97.5878 85.0671 97.5878C84.142 97.5878 83.2548 97.2203 82.6007 96.5662C81.9466 95.912 81.5791 95.0249 81.5791 94.0998V89.4502H88.5551V94.0998Z" fill="#FFDA8F" stroke="#45413C" stroke-width="1.5" stroke-linecap="round" stroke-linejoin="round"/>
<path d="M87.784 89.451C88.0377 89.4512 88.2889 89.4014 88.5233 89.3045C88.7577 89.2075 88.9707 89.0652 89.1501 88.8859C89.3294 88.7065 89.4717 88.4935 89.5686 88.2591C89.6656 88.0247 89.7154 87.7735 89.7152 87.5198V72.0158C89.7394 69.2529 89.2161 66.5125 88.1754 63.9529C87.1348 61.3932 85.5975 59.0651 83.6523 57.1028C81.7071 55.1405 79.3925 53.5829 76.842 52.5199C74.2916 51.4569 71.5559 50.9097 68.7928 50.9097C66.0298 50.9097 63.294 51.4569 60.7436 52.5199C58.1932 53.5829 55.8786 55.1405 53.9333 57.1028C51.9881 59.0651 50.4508 61.3932 49.4102 63.9529C48.3696 66.5125 47.8463 69.2529 47.8704 72.0158V87.5198C47.8702 87.7735 47.92 88.0247 48.017 88.2591C48.114 88.4935 48.2562 88.7065 48.4356 88.8859C48.615 89.0652 48.8279 89.2075 49.0623 89.3045C49.2967 89.4014 49.548 89.4512 49.8016 89.451H56V98.1694H62.2704C63.5617 98.171 64.8335 97.8536 65.9726 97.2453C67.1117 96.6371 68.0829 95.757 68.8 94.683C69.5151 95.7555 70.484 96.6349 71.6205 97.2431C72.7571 97.8513 74.0262 98.1695 75.3152 98.1694H81.5856V89.451H87.784Z" fill="#B89558"/>
<path d="M48.2224 75.5022C49.1193 70.7021 51.6667 66.3667 55.4234 63.2469C59.1801 60.1271 63.9096 58.4194 68.7928 58.4194C73.676 58.4194 78.4055 60.1271 82.1622 63.2469C85.9189 66.3667 88.4663 70.7021 89.3632 75.5022H89.7712C89.7337 75.312 89.7149 75.1185 89.7152 74.9246V72.0158C89.7394 69.2529 89.216 66.5125 88.1754 63.9529C87.1348 61.3932 85.5975 59.0651 83.6523 57.1028C81.7071 55.1405 79.3924 53.5829 76.842 52.5199C74.2916 51.4569 71.5559 50.9097 68.7928 50.9097C66.0298 50.9097 63.294 51.4569 60.7436 52.5199C58.1932 53.5829 55.8786 55.1405 53.9333 57.1028C51.9881 59.0651 50.4508 61.3932 49.4102 63.9529C48.3696 66.5125 47.8463 69.2529 47.8704 72.0158V75.5022H48.2224Z" fill="#DEBB7E"/>
<path d="M87.784 89.451C88.0377 89.4512 88.2889 89.4014 88.5233 89.3045C88.7577 89.2075 88.9707 89.0652 89.1501 88.8859C89.3294 88.7065 89.4717 88.4935 89.5686 88.2591C89.6656 88.0247 89.7154 87.7735 89.7152 87.5198V72.0158C89.7394 69.2529 89.2161 66.5125 88.1754 63.9529C87.1348 61.3932 85.5975 59.0651 83.6523 57.1028C81.7071 55.1405 79.3925 53.5829 76.842 52.5199C74.2916 51.4569 71.5559 50.9097 68.7928 50.9097C66.0298 50.9097 63.294 51.4569 60.7436 52.5199C58.1932 53.5829 55.8786 55.1405 53.9333 57.1028C51.9881 59.0651 50.4508 61.3932 49.4102 63.9529C48.3696 66.5125 47.8463 69.2529 47.8704 72.0158V87.5198C47.8702 87.7735 47.92 88.0247 48.017 88.2591C48.114 88.4935 48.2562 88.7065 48.4356 88.8859C48.615 89.0652 48.8279 89.2075 49.0623 89.3045C49.2967 89.4014 49.548 89.4512 49.8016 89.451H56V98.1694H62.2704C63.5617 98.171 64.8335 97.8536 65.9726 97.2453C67.1117 96.6371 68.0829 95.757 68.8 94.683C69.5151 95.7555 70.484 96.6349 71.6205 97.2431C72.7571 97.8513 74.0262 98.1695 75.3152 98.1694H81.5856V89.451H87.784Z" stroke="#45413C" stroke-width="1.5" stroke-linecap="round" stroke-linejoin="round"/>
<path d="M81.5791 89.4509V69.6909" stroke="#45413C" stroke-width="1.5" stroke-linecap="round" stroke-linejoin="round"/>
<path d="M56.0073 89.4509V69.6909" stroke="#45413C" stroke-width="1.5" stroke-linecap="round" stroke-linejoin="round"/>
<path d="M68.8012 81.3147L77.046 52.7835C74.438 51.6676 71.6307 51.0923 68.794 51.0923C65.9573 51.0923 63.15 51.6676 60.542 52.7835L68.8012 81.3147Z" fill="white" stroke="#45413C" stroke-width="1.5" stroke-linecap="round" stroke-linejoin="round"/>
<path d="M68.8006 81.3144L60.5414 52.7832C58.0985 53.833 55.8781 55.3388 53.999 57.22L59.4934 62.7192V68.5272L68.8006 81.3144Z" fill="#B89558" stroke="#45413C" stroke-width="1.5" stroke-linecap="round" stroke-linejoin="round"/>
<path d="M68.8003 81.3144L77.0451 52.7832C79.488 53.833 81.7084 55.3388 83.5875 57.22L78.0931 62.7192V68.5272L68.8003 81.3144Z" fill="#B89558" stroke="#45413C" stroke-width="1.5" stroke-linecap="round" stroke-linejoin="round"/>
<path d="M68.7944 51.0923L65.3384 69.3723L68.7944 81.3147L72.2488 69.3723L68.7944 51.0923Z" fill="#9F5AE5" stroke="#45413C" stroke-width="1.5" stroke-linecap="round" stroke-linejoin="round"/>
<path d="M68.7939 94.6813V81.3149Z" fill="#00B8F0"/>
<path d="M68.7939 94.6813V81.3149" stroke="#45413C" stroke-width="1.5" stroke-linecap="round" stroke-linejoin="round"/>
<path d="M75.0166 59.8027L68.7942 51.0923L62.5718 59.8027" stroke="#45413C" stroke-width="1.5" stroke-linecap="round" stroke-linejoin="round"/>
<path d="M64.4885 42.3159L64.4805 51.5495L68.7765 54.8663L73.0837 51.5495L73.0933 42.3159H64.4885Z" fill="#FFDA8F" stroke="#45413C" stroke-width="1.5" stroke-linecap="round" stroke-linejoin="round"/>
<path d="M68.8003 49.8229C71.266 49.8169 73.6655 49.0244 75.6497 47.5605C77.6338 46.0967 79.0991 44.0379 79.8323 41.6837H79.8419C83.5219 41.6837 83.7411 35.8709 80.4227 35.8709V33.5509C80.4408 32.013 80.1535 30.4869 79.5774 29.0609C79.0014 27.6349 78.1481 26.3373 77.067 25.2435C75.9859 24.1496 74.6985 23.2812 73.2793 22.6884C71.8602 22.0957 70.3375 21.7905 68.7995 21.7905C67.2616 21.7905 65.7389 22.0957 64.3197 22.6884C62.9006 23.2812 61.6131 24.1496 60.532 25.2435C59.4509 26.3373 58.5977 27.6349 58.0216 29.0609C57.4456 30.4869 57.1583 32.013 57.1763 33.5509V35.8741C53.8579 35.8741 54.0819 41.6869 57.7571 41.6869H57.7667C58.5006 44.0407 59.9664 46.099 61.9508 47.5623C63.9352 49.0256 66.3348 49.8175 68.8003 49.8229Z" fill="#FFDA8F" stroke="#45413C" stroke-width="1.5" stroke-linecap="round" stroke-linejoin="round"/>
<path d="M62.881 38.879C62.9759 39.0951 63.0034 39.3349 62.9597 39.5669C62.9159 39.7989 62.8031 40.0123 62.636 40.1791C62.4689 40.3459 62.2553 40.4582 62.0232 40.5015C61.7911 40.5447 61.5513 40.5168 61.3354 40.4214C61.0689 40.3108 60.8571 40.099 60.7466 39.8326C60.6526 39.6162 60.626 39.3766 60.6702 39.1449C60.7144 38.9132 60.8273 38.7002 60.9943 38.5335C61.1612 38.3669 61.3745 38.2545 61.6063 38.2108C61.838 38.1671 62.0776 38.1942 62.2938 38.2886C62.4258 38.3434 62.5456 38.4238 62.6464 38.5251C62.7472 38.6264 62.8269 38.7467 62.881 38.879Z" fill="#FFBE3D"/>
<path d="M76.8341 38.8922C76.9274 39.1093 76.953 39.3495 76.9074 39.5813C76.8619 39.8131 76.7474 40.0258 76.579 40.1915C76.4106 40.3572 76.196 40.4681 75.9635 40.5098C75.7309 40.5514 75.4912 40.5219 75.2757 40.425C75.0192 40.3172 74.8144 40.1142 74.7045 39.8586C74.6051 39.6419 74.5741 39.4001 74.6156 39.1653C74.6571 38.9305 74.7692 38.714 74.9369 38.5446C75.1046 38.3751 75.32 38.2608 75.5543 38.2169C75.7886 38.1729 76.0308 38.2014 76.2485 38.2986C76.3804 38.3541 76.5 38.4351 76.6005 38.537C76.701 38.6389 76.7804 38.7596 76.8341 38.8922V38.8922Z" fill="#FFBE3D"/>
<path d="M65.8887 42.9561C66.7489 43.5303 67.76 43.8367 68.7943 43.8367C69.8285 43.8367 70.8396 43.5303 71.6999 42.9561" stroke="#45413C" stroke-width="1.5" stroke-linecap="round" stroke-linejoin="round"/>
<path d="M62.4174 28.8708C67.515 33.8132 76.3054 32.9988 81.5982 31.2084C81.5583 27.842 80.1924 24.6271 77.7969 22.2615C75.4015 19.8959 72.1697 18.5704 68.8031 18.5728C65.4364 18.5751 62.2065 19.905 59.8143 22.2739C57.4221 24.6428 56.0607 27.8595 56.0254 31.226V35.2628C56.0254 35.2628 62.4254 33.6628 62.4254 28.8708" fill="#614B44"/>
<path d="M62.4174 28.8708C67.515 33.8132 76.3054 32.9988 81.5982 31.2084C81.5583 27.842 80.1924 24.6271 77.7969 22.2615C75.4015 19.8959 72.1697 18.5704 68.8031 18.5728C65.4364 18.5751 62.2065 19.905 59.8143 22.2739C57.4221 24.6428 56.0607 27.8595 56.0254 31.226V35.2628C56.0254 35.2628 62.4254 33.6628 62.4254 28.8708" stroke="#45413C" stroke-width="1.5" stroke-linecap="round" stroke-linejoin="round"/>
<path d="M68.8126 24.074C71.2596 24.0771 73.6542 24.7836 75.7111 26.1091C77.768 27.4347 79.4005 29.3236 80.4142 31.5508C80.811 31.4372 81.2318 31.3316 81.5982 31.2084C81.5583 27.842 80.1924 24.6271 77.7969 22.2615C75.4015 19.8959 72.1697 18.5704 68.8031 18.5728C65.4364 18.5751 62.2065 19.905 59.8143 22.2739C57.4221 24.6428 56.0607 27.8595 56.0254 31.226V35.2628L56.1854 35.2164C56.5753 32.1413 58.0725 29.3137 60.3967 27.2627C62.7209 25.2118 65.7129 24.0782 68.8126 24.074V24.074Z" fill="#947063"/>
<path d="M62.4174 28.8708C67.515 33.8132 76.3054 32.9988 81.5982 31.2084C81.5583 27.842 80.1924 24.6271 77.7969 22.2615C75.4015 19.8959 72.1697 18.5704 68.8031 18.5728C65.4364 18.5751 62.2065 19.905 59.8143 22.2739C57.4221 24.6428 56.0607 27.8595 56.0254 31.226V35.2628C56.0254 35.2628 62.4254 33.6628 62.4254 28.8708" stroke="#45413C" stroke-width="1.5" stroke-linecap="round" stroke-linejoin="round"/>
<path d="M74.1783 36.4054C73.8699 36.0974 73.4518 35.9243 73.0159 35.9243C72.58 35.9243 72.1619 36.0974 71.8535 36.4054" stroke="#45413C" stroke-width="1.5" stroke-linecap="round" stroke-linejoin="round"/>
<path d="M65.7252 36.4054C65.4168 36.0974 64.9987 35.9243 64.5628 35.9243C64.1269 35.9243 63.7088 36.0974 63.4004 36.4054" stroke="#45413C" stroke-width="1.5" stroke-linecap="round" stroke-linejoin="round"/>
<path d="M22.3682 60.2162C22.3682 58.9856 22.857 57.8054 23.7272 56.9352C24.5974 56.065 25.7776 55.5762 27.0082 55.5762H28.1602C29.3908 55.5762 30.571 56.065 31.4411 56.9352C32.3113 57.8054 32.8002 58.9856 32.8002 60.2162H22.3682Z" fill="#FF6242" stroke="#45413C" stroke-width="1.5" stroke-linecap="round" stroke-linejoin="round"/>
<path d="M20.4805 51.5197L24.2853 56.4669L24.9429 50.2589L22.4165 41.3293C22.2495 40.738 21.8544 40.2372 21.3182 39.9371C20.782 39.6371 20.1486 39.5623 19.5573 39.7293V39.7293C19.2642 39.8121 18.9904 39.9519 18.7514 40.1406C18.5124 40.3293 18.3129 40.5632 18.1643 40.829C18.0157 41.0948 17.921 41.3873 17.8855 41.6898C17.8499 41.9922 17.8743 42.2987 17.9573 42.5917L20.4805 51.5197Z" fill="#C0DCEB" stroke="#45413C" stroke-width="1.5" stroke-linecap="round" stroke-linejoin="round"/>
<path d="M125.097 77.5991H47.8711V86.8791H126.697V79.1991C126.697 78.7748 126.528 78.3678 126.228 78.0677C125.928 77.7677 125.521 77.5991 125.097 77.5991Z" fill="#DEA47A"/>
<path d="M125.097 82.2397H47.8711V86.8797H126.697V83.8397C126.697 83.4154 126.528 83.0084 126.228 82.7084C125.928 82.4083 125.521 82.2397 125.097 82.2397Z" fill="#BF8256"/>
<path d="M125.097 77.5991H47.8711V86.8791H126.697V79.1991C126.697 78.7748 126.528 78.3678 126.228 78.0677C125.928 77.7677 125.521 77.5991 125.097 77.5991Z" stroke="#45413C" stroke-width="1.5" stroke-linecap="round" stroke-linejoin="round"/>
<path d="M47.8711 103.108H126.697V111.224H47.8711V103.108Z" fill="#BF8256" stroke="#45413C" stroke-width="1.5" stroke-linecap="round" stroke-linejoin="round"/>
<path d="M47.8711 86.8799H125.538V103.109H47.8711V86.8799Z" fill="#DEBB7E" stroke="#45413C" stroke-width="1.5" stroke-linecap="round" stroke-linejoin="round"/>
<path d="M17.0116 60.2168H46.2708C46.6952 60.2168 47.1021 60.3854 47.4022 60.6854C47.7022 60.9855 47.8708 61.3925 47.8708 61.8168V111.222H15.4116V61.8168C15.4116 61.3925 15.5802 60.9855 15.8803 60.6854C16.1803 60.3854 16.5873 60.2168 17.0116 60.2168V60.2168Z" fill="#DEA47A"/>
<path d="M17.0116 70.6509H46.2708C46.6952 70.6509 47.1021 70.8194 47.4022 71.1195C47.7022 71.4196 47.8708 71.8265 47.8708 72.2509V111.222H15.4116V72.2509C15.4116 71.8265 15.5802 71.4196 15.8803 71.1195C16.1803 70.8194 16.5873 70.6509 17.0116 70.6509V70.6509Z" fill="#BF8256"/>
<path d="M17.0116 60.2168H46.2708C46.6952 60.2168 47.1021 60.3854 47.4022 60.6854C47.7022 60.9855 47.8708 61.3925 47.8708 61.8168V111.222H15.4116V61.8168C15.4116 61.3925 15.5802 60.9855 15.8803 60.6854C16.1803 60.3854 16.5873 60.2168 17.0116 60.2168V60.2168Z" stroke="#45413C" stroke-width="1.5" stroke-linecap="round" stroke-linejoin="round"/>
<path d="M21.208 94.9932H42.0736V105.427H21.208V94.9932Z" fill="#DEBB7E" stroke="#45413C" stroke-width="1.5" stroke-linecap="round" stroke-linejoin="round"/>
<path d="M18.9321 76.9536C18.9321 78.6227 19.2609 80.2755 19.8997 81.8176C20.5384 83.3597 21.4746 84.7609 22.6549 85.9412C23.8352 87.1214 25.2364 88.0577 26.7785 88.6964C28.3206 89.3352 29.9734 89.664 31.6425 89.664C33.3117 89.664 34.9645 89.3352 36.5066 88.6964C38.0487 88.0577 39.4499 87.1214 40.6301 85.9412C41.8104 84.7609 42.7466 83.3597 43.3854 81.8176C44.0242 80.2755 44.3529 78.6227 44.3529 76.9536C44.3529 75.2844 44.0242 73.6316 43.3854 72.0895C42.7466 70.5474 41.8104 69.1462 40.6301 67.966C39.4499 66.7857 38.0487 65.8494 36.5066 65.2107C34.9645 64.5719 33.3117 64.2432 31.6425 64.2432C29.9734 64.2432 28.3206 64.5719 26.7785 65.2107C25.2364 65.8494 23.8352 66.7857 22.6549 67.966C21.4746 69.1462 20.5384 70.5474 19.8997 72.0895C19.2609 73.6316 18.9321 75.2844 18.9321 76.9536V76.9536Z" fill="#FFE500"/>
<path d="M31.6418 64.2432C29.1279 64.243 26.6705 64.9883 24.5802 66.3849C22.4898 67.7814 20.8606 69.7664 19.8985 72.0889C18.9363 74.4114 18.6845 76.967 19.1748 79.4326C19.6651 81.8982 20.8755 84.1631 22.653 85.9408L40.629 67.9664C39.45 66.7846 38.0491 65.8473 36.5068 65.2084C34.9645 64.5695 33.3112 64.2414 31.6418 64.2432V64.2432Z" fill="#FFF48C"/>
<path d="M18.9321 76.9536C18.9321 78.6227 19.2609 80.2755 19.8997 81.8176C20.5384 83.3597 21.4746 84.7609 22.6549 85.9412C23.8352 87.1214 25.2364 88.0577 26.7785 88.6964C28.3206 89.3352 29.9734 89.664 31.6425 89.664C33.3117 89.664 34.9645 89.3352 36.5066 88.6964C38.0487 88.0577 39.4499 87.1214 40.6301 85.9412C41.8104 84.7609 42.7466 83.3597 43.3854 81.8176C44.0242 80.2755 44.3529 78.6227 44.3529 76.9536C44.3529 75.2844 44.0242 73.6316 43.3854 72.0895C42.7466 70.5474 41.8104 69.1462 40.6301 67.966C39.4499 66.7857 38.0487 65.8494 36.5066 65.2107C34.9645 64.5719 33.3117 64.2432 31.6425 64.2432C29.9734 64.2432 28.3206 64.5719 26.7785 65.2107C25.2364 65.8494 23.8352 66.7857 22.6549 67.966C21.4746 69.1462 20.5384 70.5474 19.8997 72.0895C19.2609 73.6316 18.9321 75.2844 18.9321 76.9536V76.9536Z" stroke="#45413C" stroke-width="1.5" stroke-linecap="round" stroke-linejoin="round"/>
<path d="M18.9321 76.9536C18.9321 78.6227 19.2609 80.2755 19.8997 81.8176C20.5384 83.3597 21.4746 84.7609 22.6549 85.9412C23.8352 87.1214 25.2364 88.0577 26.7785 88.6964C28.3206 89.3352 29.9734 89.664 31.6425 89.664C33.3117 89.664 34.9645 89.3352 36.5066 88.6964C38.0487 88.0577 39.4499 87.1214 40.6301 85.9412C41.8104 84.7609 42.7466 83.3597 43.3854 81.8176C44.0242 80.2755 44.3529 78.6227 44.3529 76.9536C44.3529 75.2844 44.0242 73.6316 43.3854 72.0895C42.7466 70.5474 41.8104 69.1462 40.6301 67.966C39.4499 66.7857 38.0487 65.8494 36.5066 65.2107C34.9645 64.5719 33.3117 64.2432 31.6425 64.2432C29.9734 64.2432 28.3206 64.5719 26.7785 65.2107C25.2364 65.8494 23.8352 66.7857 22.6549 67.966C21.4746 69.1462 20.5384 70.5474 19.8997 72.0895C19.2609 73.6316 18.9321 75.2844 18.9321 76.9536V76.9536Z" stroke="#45413C" stroke-width="1.5" stroke-linecap="round" stroke-linejoin="round"/>
<path d="M31.6419 86.321C29.7888 86.321 27.9774 85.7714 26.4367 84.7417C24.896 83.7121 23.6953 82.2486 22.9864 80.5365C22.2776 78.8243 22.0924 76.9404 22.4544 75.123C22.8164 73.3056 23.7092 71.6364 25.02 70.3265C26.3308 69.0166 28.0006 68.1249 29.8182 67.7642C31.6359 67.4034 33.5197 67.5899 35.2313 68.2999C36.943 69.0099 38.4057 70.2116 39.4342 71.753C40.4628 73.2944 41.0112 75.1063 41.0099 76.9594C41.0053 79.4419 40.0166 81.8213 38.2606 83.5761C36.5046 85.331 34.1245 86.318 31.6419 86.321V86.321Z" stroke="#EBCB00" stroke-width="1.5" stroke-linecap="round" stroke-linejoin="round"/>
<path d="M34.4161 74.1772C34.4161 73.8128 34.3443 73.4519 34.2048 73.1152C34.0653 72.7784 33.8608 72.4725 33.603 72.2149C33.3452 71.9572 33.0391 71.7529 32.7023 71.6136C32.3655 71.4742 32.0046 71.4026 31.6401 71.4028H31.4385C30.8591 71.403 30.2967 71.5988 29.8424 71.9585C29.3882 72.3182 29.0686 72.8207 28.9355 73.3846C28.8024 73.9485 28.8635 74.5408 29.109 75.0657C29.3545 75.5905 29.77 76.0171 30.2881 76.2764L32.9937 77.63C33.5119 77.8893 33.9274 78.3159 34.1728 78.8408C34.4183 79.3656 34.4795 79.958 34.3464 80.5219C34.2132 81.0858 33.8937 81.5883 33.4394 81.948C32.9851 82.3076 32.4227 82.5034 31.8433 82.5036H31.6401C31.2758 82.5036 30.915 82.4319 30.5784 82.2925C30.2418 82.153 29.936 81.9487 29.6783 81.691C29.4207 81.4334 29.2163 81.1276 29.0769 80.791C28.9375 80.4543 28.8657 80.0936 28.8657 79.7292" stroke="#45413C" stroke-width="1.5" stroke-linecap="round" stroke-linejoin="round"/>
<path d="M31.6406 71.402V70.0132" stroke="#45413C" stroke-width="1.5" stroke-linecap="round" stroke-linejoin="round"/>
<path d="M31.6406 83.8922V82.5034" stroke="#45413C" stroke-width="1.5" stroke-linecap="round" stroke-linejoin="round"/>
<path d="M93.0791 41.6699H125.537V67.1723H93.0791V41.6699Z" fill="white" stroke="#45413C" stroke-width="1.5" stroke-linecap="round" stroke-linejoin="round"/>
<path d="M116.262 77.599H102.352C102.352 76.3684 102.841 75.1882 103.711 74.318C104.581 73.4478 105.761 72.959 106.992 72.959H111.632C112.861 72.9615 114.039 73.4515 114.907 74.3214C115.775 75.1913 116.262 76.37 116.262 77.599V77.599Z" fill="white" stroke="#45413C" stroke-width="1.5" stroke-linecap="round" stroke-linejoin="round"/>
<path d="M106.989 67.1729H111.626V72.9697H106.989V67.1729Z" fill="white" stroke="#45413C" stroke-width="1.5" stroke-linecap="round" stroke-linejoin="round"/>
<path d="M119.741 62.5352V60.2168" stroke="#45413C" stroke-width="1.5" stroke-linecap="round" stroke-linejoin="round"/>
<path d="M115.104 62.5352V60.2168" stroke="#45413C" stroke-width="1.5" stroke-linecap="round" stroke-linejoin="round"/>
<path opacity="0.15" d="M86.123 128.61C86.123 128.941 86.9326 129.269 88.5056 129.575C90.0785 129.88 92.384 130.158 95.2904 130.392C98.1968 130.626 101.647 130.812 105.445 130.939C109.242 131.065 113.312 131.13 117.422 131.13C121.533 131.13 125.603 131.065 129.4 130.939C133.197 130.812 136.648 130.626 139.554 130.392C142.461 130.158 144.766 129.88 146.339 129.575C147.912 129.269 148.721 128.941 148.721 128.61C148.721 128.279 147.912 127.952 146.339 127.646C144.766 127.34 142.461 127.062 139.554 126.828C136.648 126.594 133.197 126.409 129.4 126.282C125.603 126.156 121.533 126.09 117.422 126.09C113.312 126.09 109.242 126.156 105.445 126.282C101.647 126.409 98.1968 126.594 95.2904 126.828C92.384 127.062 90.0785 127.34 88.5056 127.646C86.9326 127.952 86.123 128.279 86.123 128.61V128.61Z" fill="#45413C"/>
<path d="M96.5572 126.292C96.5568 126.6 96.4344 126.894 96.217 127.112C95.9995 127.329 95.7047 127.452 95.3972 127.452H93.0788C92.7714 127.452 92.4768 127.329 92.2596 127.112C92.0424 126.894 91.9204 126.599 91.9204 126.292V94.9928C91.9204 94.3775 92.1648 93.7874 92.5999 93.3524C93.035 92.9173 93.6251 92.6729 94.2404 92.6729C94.8557 92.6729 95.4458 92.9173 95.8809 93.3524C96.316 93.7874 96.5604 94.3775 96.5604 94.9928L96.5572 126.292Z" fill="#E8F4FA" stroke="#45413C" stroke-width="1.5" stroke-linecap="round" stroke-linejoin="round"/>
<path d="M120.9 126.292C120.9 126.599 120.778 126.894 120.561 127.112C120.344 127.329 120.049 127.452 119.742 127.452H117.423C117.116 127.452 116.821 127.329 116.603 127.112C116.386 126.894 116.264 126.6 116.263 126.292V94.9928C116.263 94.3775 116.508 93.7874 116.943 93.3524C117.378 92.9173 117.968 92.6729 118.583 92.6729C119.198 92.6729 119.789 92.9173 120.224 93.3524C120.659 93.7874 120.903 94.3775 120.903 94.9928L120.9 126.292Z" fill="#E8F4FA" stroke="#45413C" stroke-width="1.5" stroke-linecap="round" stroke-linejoin="round"/>
<path d="M145.244 126.292C145.244 126.599 145.122 126.894 144.905 127.112C144.687 127.329 144.393 127.452 144.085 127.452H141.761C141.453 127.452 141.158 127.33 140.94 127.112C140.723 126.895 140.601 126.6 140.601 126.292V94.9928C140.601 94.3775 140.845 93.7874 141.28 93.3524C141.715 92.9173 142.305 92.6729 142.921 92.6729C143.536 92.6729 144.126 92.9173 144.561 93.3524C144.996 93.7874 145.241 94.3775 145.241 94.9928L145.244 126.292Z" fill="#E8F4FA" stroke="#45413C" stroke-width="1.5" stroke-linecap="round" stroke-linejoin="round"/>
<path d="M90.7603 97.292H97.7155L99.9555 100.09C100.748 101.03 101.737 101.786 102.852 102.304C103.967 102.823 105.182 103.091 106.411 103.091C107.641 103.091 108.856 102.823 109.971 102.304C111.086 101.786 112.075 101.03 112.867 100.09L115.107 97.292H122.063L124.16 99.9208C124.952 100.909 125.955 101.707 127.096 102.256C128.238 102.804 129.488 103.089 130.754 103.089V103.089C132.02 103.088 133.269 102.803 134.41 102.255C135.55 101.707 136.553 100.909 137.344 99.9208L139.448 97.292H146.4" stroke="#45413C" stroke-width="1.5" stroke-linecap="round" stroke-linejoin="round"/>
</svg>
