<svg xmlns="http://www.w3.org/2000/svg" version="1.1" xmlns:xlink="http://www.w3.org/1999/xlink" xmlns:svgjs="http://svgjs.com/svgjs" viewBox="0 0 160 160" width="160" height="160"><g transform="matrix(1.6,0,0,1.6,0,0)"><path d="M11.430 50.000 A40.000 40.000 0 1 0 91.430 50.000 A40.000 40.000 0 1 0 11.430 50.000 Z" fill="#c7f0ff" stroke="#c7f0ff" stroke-miterlimit="10"></path><path d="M83.043,43.745a2.121,2.121,0,0,1-2.121,2.121H38.505a2.121,2.121,0,0,1-2.121-2.121V20.415a2.121,2.121,0,0,1,2.121-2.121H80.922a2.121,2.121,0,0,1,2.121,2.121V31.02L89.958,38.8a1.06,1.06,0,0,1-.793,1.765H83.043Z" fill="#ffffff" stroke="#45413c" stroke-linecap="round" stroke-linejoin="round"></path><path d="M76.68 25.718L60.774 25.718" fill="none" stroke="#45413c" stroke-linecap="round" stroke-linejoin="round"></path><path d="M76.68 31.02L60.774 31.02" fill="none" stroke="#45413c" stroke-linecap="round" stroke-linejoin="round"></path><path d="M69.611 36.322L60.774 36.322" fill="none" stroke="#45413c" stroke-linecap="round" stroke-linejoin="round"></path><path d="M16.681,80.69a2.4,2.4,0,0,0,2.395,2.395h47.9a2.4,2.4,0,0,0,2.4-2.395V54.344a2.4,2.4,0,0,0-2.4-2.4h-47.9a2.4,2.4,0,0,0-2.395,2.4V66.319L8.873,75.1a1.2,1.2,0,0,0,.9,1.993h6.913Z" fill="#ffffff" stroke="#45413c" stroke-linecap="round" stroke-linejoin="round"></path><path d="M63.385 63.088L45.422 63.088" fill="none" stroke="#45413c" stroke-linecap="round" stroke-linejoin="round"></path><path d="M63.385 69.075L45.422 69.075" fill="none" stroke="#45413c" stroke-linecap="round" stroke-linejoin="round"></path><path d="M55.402 75.063L45.422 75.063" fill="none" stroke="#45413c" stroke-linecap="round" stroke-linejoin="round"></path><path d="M39.828 31.845 A8.248 8.248 0 1 0 56.324 31.845 A8.248 8.248 0 1 0 39.828 31.845 Z" fill="#ffe8d1" stroke="#45413c" stroke-miterlimit="10"></path><path d="M45.422,31.654a2.654,2.654,0,0,0,5.308,0V30.327a2.654,2.654,0,1,0-5.308,0Z" fill="#c7f0ff"></path><path d="M45.422,31.654a2.654,2.654,0,0,0,5.308,0V30.327a2.654,2.654,0,1,0-5.308,0Z" fill="#ffcebf" stroke="#45413c" stroke-miterlimit="10"></path><path d="M42.565,37.981a8.246,8.246,0,0,0,11.022,0,5.97,5.97,0,0,0-11.022,0Z" fill="#ff6242" stroke="#45413c" stroke-miterlimit="10"></path><path d="M45.444,29.984a2.654,2.654,0,0,1,4.836-1.135A4.833,4.833,0,0,1,45.444,29.984Z" fill="#a86c4d" stroke="#45413c" stroke-linejoin="round"></path><path d="M20.534 66.798 A9.314 9.314 0 1 0 39.162 66.798 A9.314 9.314 0 1 0 20.534 66.798 Z" fill="#b8ecff" stroke="#45413c" stroke-miterlimit="10"></path><path d="M24.518 63.414 L35.179 63.414 L35.179 72.229 L24.518 72.229 Z" fill="#00b8f0"></path><path d="M24.518 63.414 L35.179 63.414 L35.179 72.229 L24.518 72.229 Z" fill="none" stroke="#45413c" stroke-linecap="round" stroke-linejoin="round"></path><path d="M34.011,63.422,26,72.228H25.84a1.32,1.32,0,0,1-1.322-1.322v-6.17a1.32,1.32,0,0,1,1.322-1.322h8.016C33.909,63.414,33.958,63.418,34.011,63.422Z" fill="#4acfff"></path><path d="M35.179,64.736v6.17a1.32,1.32,0,0,1-1.323,1.322H25.84a1.32,1.32,0,0,1-1.322-1.322v-6.17a1.32,1.32,0,0,1,1.322-1.322h8.016c.053,0,.1,0,.155.008A1.323,1.323,0,0,1,35.179,64.736Z" fill="none" stroke="#45413c" stroke-linecap="round" stroke-linejoin="round"></path><path d="M29.848 63.414L29.848 61.798" fill="#ff6242" stroke="#45413c" stroke-linecap="round" stroke-linejoin="round"></path><path d="M28.726 60.743 A1.122 1.122 0 1 0 30.970 60.743 A1.122 1.122 0 1 0 28.726 60.743 Z" fill="#ff6242" stroke="#45413c" stroke-linecap="round" stroke-linejoin="round"></path><path d="M28.548 73.975L28.548 72.228 31.149 72.228 31.149 73.961" fill="none" stroke="#45413c" stroke-linecap="round" stroke-linejoin="round"></path><path d="M27.092 67.409 A1.378 1.378 0 1 0 29.848 67.409 A1.378 1.378 0 1 0 27.092 67.409 Z" fill="#ffffff" stroke="#45413c" stroke-linecap="round" stroke-linejoin="round"></path><path d="M29.849 67.409 A1.378 1.378 0 1 0 32.605 67.409 A1.378 1.378 0 1 0 29.849 67.409 Z" fill="#ffffff" stroke="#45413c" stroke-linecap="round" stroke-linejoin="round"></path></g></svg>