<svg xmlns="http://www.w3.org/2000/svg" version="1.1" xmlns:xlink="http://www.w3.org/1999/xlink" xmlns:svgjs="http://svgjs.com/svgjs" viewBox="0 0 160 160" width="160" height="160"><g transform="matrix(1.6,0,0,1.6,0,0)"><path d="M10.000 50.000 A40.000 40.000 0 1 0 90.000 50.000 A40.000 40.000 0 1 0 10.000 50.000 Z" fill="#e8f4fa" stroke="#daedf7" stroke-miterlimit="10"></path><path d="M38.207 85.002 A12.6 1.575 0 1 0 63.407 85.002 A12.6 1.575 0 1 0 38.207 85.002 Z" fill="#45413c" opacity=".15"></path><path d="M23.415 22.012 L61.215 22.012 L61.215 73.672 L23.415 73.672 Z" fill="#ffffff" stroke="#45413c" stroke-miterlimit="10" transform="translate(-5.073 5.02) rotate(-6.406)"></path><path d="M29.429 34.708L54.472 31.896" fill="none" stroke="#80ddff" stroke-linecap="round" stroke-linejoin="round"></path><path d="M29.992 39.716L55.034 36.905" fill="none" stroke="#80ddff" stroke-linecap="round" stroke-linejoin="round"></path><path d="M30.835 47.229L55.878 44.418" fill="none" stroke="#80ddff" stroke-linecap="round" stroke-linejoin="round"></path><path d="M31.397 52.238L56.44 49.426" fill="none" stroke="#80ddff" stroke-linecap="round" stroke-linejoin="round"></path><path d="M32.241 59.75L57.284 56.939" fill="none" stroke="#80ddff" stroke-linecap="round" stroke-linejoin="round"></path><path d="M32.803 64.759L57.846 61.947" fill="none" stroke="#80ddff" stroke-linecap="round" stroke-linejoin="round"></path><path d="M34.57,38.182a2.493,2.493,0,1,1-4.954.557c-.219-1.955,1.687-3.21,3.1-4.29,1.65-1.26,1.762-6.648-.008-6.449s-1.765,3.423-1.567,5.192,2.369,8.334,2.488,9.4a1.729,1.729,0,0,1-1.57,1.968,1.78,1.78,0,0,1-1.968-1.571" fill="none" stroke="#45413c" stroke-linecap="round" stroke-linejoin="round"></path><path d="M43.770 49.439 A1.260 1.260 0 1 0 46.290 49.439 A1.260 1.260 0 1 0 43.770 49.439 Z" fill="#45413c" stroke="#45413c" stroke-linecap="round" stroke-linejoin="round"></path><path d="M46.282 49.299L45.58 43.038" fill="none" stroke="#45413c" stroke-linecap="round" stroke-linejoin="round"></path><path d="M49.750 46.232 A1.260 1.260 0 1 0 52.270 46.232 A1.260 1.260 0 1 0 49.750 46.232 Z" fill="#45413c" stroke="#45413c" stroke-linecap="round" stroke-linejoin="round"></path><path d="M52.262 46.091L51.559 39.831" fill="none" stroke="#45413c" stroke-linecap="round" stroke-linejoin="round"></path><path d="M37.944 65.308 A1.260 1.260 0 1 0 40.464 65.308 A1.260 1.260 0 1 0 37.944 65.308 Z" fill="#45413c" stroke="#45413c" stroke-linecap="round" stroke-linejoin="round"></path><path d="M40.456 65.168L39.754 58.907" fill="none" stroke="#45413c" stroke-linecap="round" stroke-linejoin="round"></path><path d="M43.924 62.101 A1.260 1.260 0 1 0 46.444 62.101 A1.260 1.260 0 1 0 43.924 62.101 Z" fill="#45413c" stroke="#45413c" stroke-linecap="round" stroke-linejoin="round"></path><path d="M46.436 61.96L45.733 55.7" fill="none" stroke="#45413c" stroke-linecap="round" stroke-linejoin="round"></path><path d="M49.903 58.894 A1.260 1.260 0 1 0 52.423 58.894 A1.260 1.260 0 1 0 49.903 58.894 Z" fill="#45413c" stroke="#45413c" stroke-linecap="round" stroke-linejoin="round"></path><path d="M52.416 58.753L51.713 52.493 54.358 53.464" fill="none" stroke="#45413c" stroke-linecap="round" stroke-linejoin="round"></path><path d="M40.001 38.451 A1.260 1.260 0 1 0 42.521 38.451 A1.260 1.260 0 1 0 40.001 38.451 Z" fill="#45413c" stroke="#45413c" stroke-linecap="round" stroke-linejoin="round"></path><path d="M42.513 38.31L41.81 32.05" fill="none" stroke="#45413c" stroke-linecap="round" stroke-linejoin="round"></path><path d="M45.559 31.488 A1.260 1.260 0 1 0 48.079 31.488 A1.260 1.260 0 1 0 45.559 31.488 Z" fill="#45413c" stroke="#45413c" stroke-linecap="round" stroke-linejoin="round"></path><path d="M48.071 31.347L48.774 37.608" fill="none" stroke="#45413c" stroke-linecap="round" stroke-linejoin="round"></path><path d="M32.152 30.575 L83.812 30.575 L83.812 68.375 L32.152 68.375 Z" fill="#ffffff" stroke="#45413c" stroke-miterlimit="10" transform="translate(3.468 102.747) rotate(-84.813)"></path><path d="M47.998 34.019L73.095 36.297" fill="none" stroke="#80ddff" stroke-linecap="round" stroke-linejoin="round"></path><path d="M47.542 39.039L72.639 41.317" fill="none" stroke="#80ddff" stroke-linecap="round" stroke-linejoin="round"></path><path d="M46.859 46.568L71.956 48.846" fill="none" stroke="#80ddff" stroke-linecap="round" stroke-linejoin="round"></path><path d="M46.403 51.587L71.5 53.865" fill="none" stroke="#80ddff" stroke-linecap="round" stroke-linejoin="round"></path><path d="M45.72 59.116L70.817 61.394" fill="none" stroke="#80ddff" stroke-linecap="round" stroke-linejoin="round"></path><path d="M45.264 64.135L70.361 66.413" fill="none" stroke="#80ddff" stroke-linecap="round" stroke-linejoin="round"></path><path d="M52.336,38.456a2.493,2.493,0,1,1-4.965-.451c.178-1.958,2.3-2.8,3.9-3.579,1.87-.9,3.062-6.158,1.289-6.319s-2.418,3-2.579,4.772.646,8.64.55,9.7A1.728,1.728,0,0,1,48.6,44.2a1.781,1.781,0,0,1-1.613-1.934" fill="none" stroke="#45413c" stroke-linecap="round" stroke-linejoin="round"></path><path d="M59.061 51.585 A1.260 1.260 0 1 0 61.581 51.585 A1.260 1.260 0 1 0 59.061 51.585 Z" fill="#45413c" stroke="#45413c" stroke-linecap="round" stroke-linejoin="round"></path><path d="M61.575 51.699L62.145 45.425" fill="none" stroke="#45413c" stroke-linecap="round" stroke-linejoin="round"></path><path d="M65.563 49.645 A1.260 1.260 0 1 0 68.083 49.645 A1.260 1.260 0 1 0 65.563 49.645 Z" fill="#45413c" stroke="#45413c" stroke-linecap="round" stroke-linejoin="round"></path><path d="M68.077 49.759L68.647 43.485" fill="none" stroke="#45413c" stroke-linecap="round" stroke-linejoin="round"></path><path d="M50.165 65.960 A1.260 1.260 0 1 0 52.685 65.960 A1.260 1.260 0 1 0 50.165 65.960 Z" fill="#45413c" stroke="#45413c" stroke-linecap="round" stroke-linejoin="round"></path><path d="M52.68 66.074L53.249 59.799" fill="none" stroke="#45413c" stroke-linecap="round" stroke-linejoin="round"></path><path d="M56.667 64.020 A1.260 1.260 0 1 0 59.187 64.020 A1.260 1.260 0 1 0 56.667 64.020 Z" fill="#45413c" stroke="#45413c" stroke-linecap="round" stroke-linejoin="round"></path><path d="M59.182 64.133L59.751 57.859" fill="none" stroke="#45413c" stroke-linecap="round" stroke-linejoin="round"></path><path d="M63.169 62.079 A1.260 1.260 0 1 0 65.689 62.079 A1.260 1.260 0 1 0 63.169 62.079 Z" fill="#45413c" stroke="#45413c" stroke-linecap="round" stroke-linejoin="round"></path><path d="M65.684 62.193L66.253 55.919 68.649 57.402" fill="none" stroke="#45413c" stroke-linecap="round" stroke-linejoin="round"></path><path d="M57.576 40.064 A1.260 1.260 0 1 0 60.096 40.064 A1.260 1.260 0 1 0 57.576 40.064 Z" fill="#45413c" stroke="#45413c" stroke-linecap="round" stroke-linejoin="round"></path><path d="M60.091 40.178L60.66 33.903" fill="none" stroke="#45413c" stroke-linecap="round" stroke-linejoin="round"></path><path d="M64.420 34.359 A1.260 1.260 0 1 0 66.940 34.359 A1.260 1.260 0 1 0 64.420 34.359 Z" fill="#45413c" stroke="#45413c" stroke-linecap="round" stroke-linejoin="round"></path><path d="M66.935 34.473L66.365 40.747" fill="none" stroke="#45413c" stroke-linecap="round" stroke-linejoin="round"></path></g></svg>