<svg width="160" height="160" fill="none" xmlns="http://www.w3.org/2000/svg">
  <path d="M16 80c0 16.9739 6.7428 33.253 18.7452 45.255C46.7475 137.257 63.0261 144 80 144c16.9739 0 33.253-6.743 45.255-18.745C137.257 113.253 144 96.9739 144 80c0-16.9739-6.743-33.2525-18.745-45.2548C113.253 22.7428 96.9739 16 80 16c-16.9739 0-33.2525 6.7428-45.2548 18.7452C22.7428 46.7475 16 63.0261 16 80z" fill="#C7F0FF"/>
  <path d="M118.33 121.449H87.2745c-1.9917 0-3.606-1.614-3.606-3.606V86.7879c0-1.9916 1.6143-3.606 3.606-3.606H118.33c1.991 0 3.606 1.6144 3.606 3.606v31.0551c0 1.992-1.615 3.606-3.606 3.606zM72.1993 76.8178H41.1441c-1.9916 0-3.606-1.6144-3.606-3.606V42.1569c0-1.9916 1.6144-3.606 3.606-3.606h31.0552c1.9917 0 3.606 1.6144 3.606 3.606v31.0553c0 1.9912-1.6143 3.6056-3.606 3.6056zM118.856 76.8178H87.8008c-1.9916 0-3.606-1.6144-3.606-3.606V42.1569c0-1.9916 1.6144-3.606 3.606-3.606h31.0552c1.992 0 3.606 1.6144 3.606 3.606v31.0553c0 1.9912-1.614 3.6056-3.606 3.6056z" fill="#F9E8CF"/>
  <path d="M64.9598 48.1866c-.8074.7931-.636.7024-2.9078 10.8296-2.676-9.8809-2.5181-9.8865-3.5231-10.7707-.4526-.3983-1.0714-.6008-1.8382-.6008-2.3974 0-2.8688 1.8746-3.3323 3.6503l-2.0696 7.71-1.8761-8.3659c-.3945-1.8574-.8123-2.9944-2.541-2.9944-.6454 0-1.1982.2194-1.6418.6521-1.2934 1.2608-.7905 1.7419 2.6618 15.705.0922.3698.1972.7707.315 1.2023.999 3.7012 4.6732 2.8642 5.4795.7402.3251-.8606.5336-1.7017 3.0011-10.7396 3.0131 11.175 2.8365 11.1124 3.8617 11.9614 1.0819.8966 3.591.9191 4.3699-1.2833.2648-.747 3.87-14.9268 3.87-15.9708 0-2.1979-2.6756-2.8613-3.8291-1.7254zM103.266 47.6447c-6.0509 0-9.4784 4.0815-9.4784 9.99 0 12.4773 15.5094 13.0278 18.4774 4.0631 1.78-5.382.159-14.0531-8.999-14.0531zm-4.192 7.3766c1.38-4.3568 6.697-4.2094 8.275-.6334 1.259 2.8605.878 9.2265-4.033 9.2265-4.5657.0004-5.1825-5.6235-4.242-8.5931z" fill="#1A1E24"/>
  <path d="M69.4273 70.4667c-2.3419 0-3.2764.2066-3.2764-.7575 0-.2689.2801-.5876.4447-.8044 2.9427-3.9363 2.8782-3.987 3.2959-3.987.4796 0 .7193.2745.7193.8239v3.6645c.2662 0 .546-.0097.7886.0998.2865.1293.2951.6581.0401.8355-.2167.1518-.5644.1252-.8287.1252 0 .6818.0723 1.1651-.1605 1.4235-.2134.234-.6345.2464-.8592-.0049-.2381-.2662-.1638-.7331-.1638-1.4186zm-2.0359-1.0609h2.0362v-2.7506l-2.0362 2.7506zM115.435 66.9676c-.803.6158-1.342.9233-1.62.9233-.465 0-.676-.639-.355-.8805.488-.3649 1.265-.4257 2.06-1.5293.176-.2464.291-.3979.345-.4545.118-.126.506-.147.706.1088.101.1297.151.3078.151.5347 0 5.6741.215 6.3735-.648 6.3735-.888.0004-.639-.8985-.639-5.076zM114.215 115.499c2.25 0 2.728-.088 3.036.151.255.2.252.582.04.805-.103.107-.258.161-.467.161-3.303 0-3.713.125-4.039-.197-.28-.276-.226-.571-.071-.914.085-.187.178-.335.279-.442.399-.414 1.412-1.43 1.861-1.733.259-.183.475-.367.647-.552 1.653-1.776-1.005-3.204-1.686-1.252-.206.588-.417.658-.661.658-.303 0-.549-.207-.549-.582 0-2.554 4.721-2.724 4.721.009 0 1.815-2.213 2.528-3.111 3.888z" fill="#F9A7A7"/>
  <path d="M72.7262 121.449H41.6709c-1.9916 0-3.606-1.614-3.606-3.606V86.7879c0-1.9916 1.6144-3.606 3.606-3.606h31.0553c1.9916 0 3.606 1.6144 3.606 3.606v31.0551c0 1.992-1.6144 3.606-3.606 3.606z" fill="#F9E8CF"/>
  <path d="M61.1935 103.27c1.0781-.375 1.9365-.897 2.5609-1.559 2.481-2.6306 1.5994-8.5357-3.6679-9.1687-.612-.0731-1.3522-.1099-2.202-.1099-6.3491 0-7.2585-.2074-8.172.7073-.4691.4695-.7076 1.1913-.7076 2.1461v14.0732c0 3.25 3.0315 3.362 4.2022 2.107.8648-.927.6683-1.876.6683-7.401 2.0287 0 2.6981-.14 4.5577 3.024 2.3352 3.885 2.7735 5.111 4.5912 5.111 1.5172 0 2.3666-1.112 2.3666-2.067.0004-1.16-2.067-5.098-4.1974-6.863zm-7.3177-6.8907c2.718 0 4.5022-.0521 5.169.2291 1.4373.6015 1.2198 2.2909.7638 2.8185-.8463.9771-3.0345.8151-5.9328.8151v-3.8627zM108.145 94.3917c-2.46-2.1521-5.15-1.8037-10.8884-1.8037-.9548 0-1.6767.2381-2.1465.7072-.9428.942-.7069 1.1134-.7069 15.5588 0 .651.0581 1.173.1774 1.599.3446 1.223 1.4741 1.591 2.7502 1.591 5.4322 0 10.0032.74 12.6252-4.039 1.837-3.349 2.009-10.3436-1.811-13.6133zm-8.8721 2.2932h1.8631c1.068 0 1.984.1151 2.724.342.663.2043 1.215.6821 1.687 1.461.989 1.6301 1.289 6.8551-.928 8.7301-.218.191-.481.343-.784.45-.855.305-1.267.266-4.5621.266V96.6849z" fill="#1A1E24"/>
  <path d="M69.8313 111.599c-1.0417.8-1.6102 1.14-1.9721.765-.1027-.106-.1541-.228-.1541-.367 0-.365.258-.447.6862-.648 1.3009-.614 1.5075-1.311 1.8705-1.691.0537-.057.1545-.085.303-.085.381 0 .5539.338.5539.729 0 5.674.2149 6.373-.6487 6.373-.8873 0-.6387-.898-.6387-5.076z" fill="#F9A7A7"/>
  <path d="M118.329 122.199H87.2745c-2.4019 0-4.356-1.954-4.356-4.356V86.7883c0-2.4019 1.9541-4.356 4.356-4.356h31.0545c2.402 0 4.356 1.9541 4.356 4.356v31.0547c.001 2.402-1.953 4.356-4.356 4.356zM87.2745 83.9319c-1.575 0-2.856 1.2814-2.856 2.856v31.0551c0 1.574 1.2813 2.856 2.856 2.856h31.0545c1.575 0 2.856-1.282 2.856-2.856V86.7879c0-1.5746-1.281-2.856-2.856-2.856H87.2745zM72.1993 77.5682H41.1441c-2.4019 0-4.356-1.9542-4.356-4.356V42.1569c0-2.4019 1.9541-4.356 4.356-4.356H72.199c2.4018 0 4.356 1.9541 4.356 4.356v31.0549c.0003 2.4022-1.9538 4.3564-4.3557 4.3564zM41.1441 39.3009c-1.575 0-2.856 1.2814-2.856 2.856v31.0549c0 1.5746 1.2814 2.856 2.856 2.856H72.199c1.575 0 2.856-1.2814 2.856-2.856V42.1569c0-1.5746-1.2814-2.856-2.856-2.856H41.1441zM118.856 77.5682H87.8013c-2.4019 0-4.356-1.9542-4.356-4.356V42.1569c0-2.4019 1.9541-4.356 4.356-4.356h31.0547c2.402 0 4.356 1.9541 4.356 4.356v31.0549c0 2.4022-1.954 4.3564-4.356 4.3564zM87.8009 39.3009c-1.575 0-2.856 1.2814-2.856 2.856v31.0549c0 1.5746 1.2814 2.856 2.856 2.856h31.0551c1.575 0 2.856-1.2814 2.856-2.856V42.1569c0-1.5746-1.282-2.856-2.856-2.856H87.8009zM72.7258 122.199H41.6709c-2.4018 0-4.356-1.954-4.356-4.356V86.7883c0-2.4019 1.9542-4.356 4.356-4.356h31.0549c2.4019 0 4.356 1.9541 4.356 4.356v31.0547c0 2.402-1.9541 4.356-4.356 4.356zM41.6709 83.9319c-1.575 0-2.856 1.2814-2.856 2.856v31.0551c0 1.574 1.2814 2.856 2.856 2.856h31.0549c1.575 0 2.856-1.282 2.856-2.856V86.7879c0-1.5746-1.2814-2.856-2.856-2.856H41.6709z" fill="#1A1E24"/>
</svg>
