<svg width="160" height="160" fill="none" xmlns="http://www.w3.org/2000/svg">
  <path d="M16 80c0 16.9739 6.7428 33.253 18.7452 45.255C46.7475 137.257 63.0261 144 80 144c16.9739 0 33.253-6.743 45.255-18.745C137.257 113.253 144 96.9739 144 80c0-16.9739-6.743-33.2525-18.745-45.2548C113.253 22.7428 96.9739 16 80 16c-16.9739 0-33.2525 6.7428-45.2548 18.7452C22.7428 46.7475 16 63.0261 16 80z" fill="#C7F0FF"/>
  <path d="M131.106 135.266H89.6986c-2.6555 0-4.808-2.153-4.808-4.808V89.0506c0-2.6555 2.1525-4.808 4.808-4.808h41.4074c2.655 0 4.808 2.1525 4.808 4.808v41.4074c0 2.655-2.153 4.808-4.808 4.808zM69.5988 75.757h-41.407c-2.6555 0-4.808-2.1525-4.808-4.808V29.5425c0-2.6555 2.1525-4.808 4.808-4.808h41.407c2.6555 0 4.808 2.1525 4.808 4.808v41.407c0 2.655-2.1525 4.8075-4.808 4.8075zM131.808 75.757H90.4008c-2.6555 0-4.808-2.1525-4.808-4.808V29.5425c0-2.6555 2.1525-4.808 4.808-4.808h41.4072c2.655 0 4.808 2.1525 4.808 4.808v41.407c0 2.655-2.153 4.8075-4.808 4.8075z" fill="#F9E8CF"/>
  <path d="M59.9457 37.582c-1.0765 1.0575-.848.9365-3.877 14.4395-3.568-13.1745-3.3575-13.182-4.6975-14.361-.6035-.531-1.4285-.801-2.451-.801-3.1965 0-3.825 2.4995-4.443 4.867l-2.7595 10.28-2.5015-11.1545c-.526-2.4765-1.083-3.9925-3.388-3.9925-.8605 0-1.5975.2925-2.189.8695-1.7245 1.681-1.054 2.3225 3.549 20.94.123.493.263 1.0275.42 1.603 1.332 4.935 6.231 3.819 7.306.987.4335-1.1475.7115-2.269 4.0015-14.3195 4.0175 14.9 3.782 14.8165 5.149 15.9485 1.4425 1.1955 4.788 1.2255 5.8265-1.711.353-.996 5.16-19.9025 5.16-21.2945 0-2.9305-3.5675-3.815-5.1055-2.3005zM111.021 36.8595c-8.068 0-12.6377 5.442-12.6377 13.32 0 16.6365 20.6797 17.3705 24.6367 5.4175 2.373-7.176.211-18.7375-11.999-18.7375zm-5.589 9.8355c1.84-5.809 8.929-5.6125 11.034-.8445 1.678 3.814 1.17 12.302-5.378 12.302-6.088.0005-6.91-7.498-5.656-11.4575z" fill="#1A1E24"/>
  <path d="M65.9027 67.289c-3.1225 0-4.3685.2755-4.3685-1.01 0-.3585.3735-.7835.593-1.0725 3.9235-5.2485 3.8375-5.316 4.3945-5.316.6395 0 .959.366.959 1.0985v4.886c.355 0 .728-.013 1.0515.133.382.1725.3935.8775.0535 1.114-.289.2025-.7525.167-1.105.167 0 .909.0965 1.5535-.214 1.898-.2845.312-.846.3285-1.1455-.0065-.3175-.355-.2185-.9775-.2185-1.8915zm-2.7145-1.4145h2.715V62.207l-2.715 3.6675zM127.246 62.6235c-1.07.821-1.789 1.231-2.16 1.231-.619 0-.901-.852-.473-1.174.651-.4865 1.686-.5675 2.746-2.039.236-.3285.389-.5305.461-.606.157-.168.675-.196.941.145.134.173.202.4105.202.713 0 7.5655.286 8.498-.865 8.498-1.183.0005-.852-1.198-.852-6.768zM125.62 127.332c3 0 3.637-.117 4.047.202.341.267.336.776.053 1.072-.137.144-.344.215-.622.215-4.404 0-4.95.167-5.385-.262-.374-.369-.302-.762-.095-1.218.113-.25.237-.447.372-.59.532-.553 1.883-1.906 2.481-2.311.346-.244.633-.489.863-.736 2.204-2.368-1.34-4.272-2.248-1.67-.275.785-.556.878-.881.878-.404 0-.732-.276-.732-.776 0-3.406 6.294-3.632 6.294.012.001 2.42-2.951 3.371-4.147 5.184z" fill="#F9A7A7"/>
  <path d="M70.3009 135.266h-41.407c-2.6555 0-4.808-2.153-4.808-4.808V89.0506c0-2.6555 2.1525-4.808 4.808-4.808h41.407c2.6555 0 4.808 2.1525 4.808 4.808v41.4074c0 2.655-2.1525 4.808-4.808 4.808z" fill="#F9E8CF"/>
  <path d="M54.9244 111.026c1.4375-.5 2.582-1.195 3.4145-2.078 3.308-3.508 2.1325-11.381-4.8905-12.225-.816-.0975-1.803-.1465-2.936-.1465-8.4655 0-9.678-.2765-10.896.943-.6255.626-.9435 1.5885-.9435 2.8615v18.764c0 4.333 4.042 4.482 5.603 2.809 1.153-1.235.891-2.501.891-9.868 2.705 0 3.5975-.187 6.077 4.032 3.1135 5.181 3.698 6.815 6.1215 6.815 2.023 0 3.1555-1.483 3.1555-2.756.0005-1.547-2.756-6.797-5.5965-9.151zm-9.757-9.187c3.624 0 6.003-.07 6.892.305 1.9165.802 1.6265 3.055 1.0185 3.758-1.1285 1.303-4.046 1.087-7.9105 1.087v-5.15zM117.526 99.189c-3.279-2.8695-6.867-2.405-14.518-2.405-1.273 0-2.235.3175-2.862.943-1.2566 1.256-.9421 1.4845-.9421 20.745 0 .868.0775 1.565.2365 2.132.4595 1.631 1.9656 2.121 3.6666 2.121 7.243 0 13.338.987 16.834-5.385 2.45-4.465 2.678-13.791-2.415-18.151zm-11.829 3.058h2.484c1.423 0 2.645.153 3.631.456.885.272 1.621.909 2.251 1.948 1.318 2.173 1.718 9.14-1.238 11.64-.29.255-.641.457-1.045.6-1.14.406-1.689.354-6.083.354v-14.998z" fill="#1A1E24"/>
  <path d="M66.4415 122.132c-1.3891 1.067-2.1471 1.52-2.6296 1.02-.137-.141-.2055-.304-.2055-.489 0-.487.344-.597.915-.865 1.7345-.817 2.01-1.748 2.494-2.254.0715-.076.206-.113.404-.113.5081 0 .7386.451.7386.972 0 7.565.2865 8.498-.865 8.498-1.1831 0-.8515-1.199-.8515-6.769z" fill="#F9A7A7"/>
  <path d="M131.105 136.266H89.6986c-3.2025 0-5.808-2.606-5.808-5.808V89.051c0-3.2025 2.6055-5.808 5.808-5.808h41.4064c3.203 0 5.808 2.6055 5.808 5.808v41.407c.001 3.202-2.605 5.808-5.808 5.808zM89.6986 85.2425c-2.1 0-3.808 1.7085-3.808 3.808v41.4065c0 2.1 1.7085 3.808 3.808 3.808h41.4064c2.1 0 3.808-1.708 3.808-3.808V89.0505c0-2.0995-1.708-3.808-3.808-3.808H89.6986zM69.5988 76.7575h-41.407c-3.2025 0-5.808-2.6055-5.808-5.808v-41.407c0-3.2025 2.6055-5.808 5.808-5.808h41.4065c3.2025 0 5.808 2.6055 5.808 5.808V70.949c.0005 3.203-2.605 5.8085-5.8075 5.8085zm-41.407-51.023c-2.1 0-3.808 1.7085-3.808 3.808V70.949c0 2.0995 1.7085 3.808 3.808 3.808h41.4065c2.1 0 3.808-1.7085 3.808-3.808V29.5425c0-2.0995-1.7085-3.808-3.808-3.808H28.1918zM131.808 76.7575H90.4013c-3.2025 0-5.808-2.6055-5.808-5.808v-41.407c0-3.2025 2.6055-5.808 5.808-5.808h41.4067c3.202 0 5.808 2.6055 5.808 5.808V70.949c0 3.203-2.606 5.8085-5.808 5.8085zm-41.4072-51.023c-2.1 0-3.808 1.7085-3.808 3.808V70.949c0 2.0995 1.7085 3.808 3.808 3.808h41.4062c2.1 0 3.808-1.7085 3.808-3.808V29.5425c0-2.0995-1.708-3.808-3.808-3.808H90.4008zM70.3009 136.266H28.8944c-3.2025 0-5.808-2.606-5.808-5.808V89.051c0-3.2025 2.6055-5.808 5.808-5.808h41.4065c3.2025 0 5.808 2.6055 5.808 5.808v41.407c0 3.202-2.6055 5.808-5.808 5.808zM28.8944 85.2425c-2.1 0-3.808 1.7085-3.808 3.808v41.4065c0 2.1 1.7085 3.808 3.808 3.808h41.4065c2.1 0 3.808-1.708 3.808-3.808V89.0505c0-2.0995-1.7085-3.808-3.808-3.808H28.8944z" fill="#1A1E24"/>
</svg>
