<svg width="112" height="112" viewBox="0 0 112 112" fill="none" xmlns="http://www.w3.org/2000/svg">
<g clip-path="url(#clip0)">
<path d="M106.981 56.0224C106.982 48.5577 105.305 41.1875 102.073 34.4522C98.8409 27.7169 94.1361 21.7874 88.3033 17.0985C82.4706 12.4097 75.6579 9.08034 68.3648 7.35475C61.0717 5.62916 53.4832 5.55105 46.1559 7.12614C38.8285 8.70124 31.9481 11.8896 26.0193 16.4574C20.0904 21.0252 15.2635 26.8566 11.8925 33.5239C8.52154 40.1912 6.69195 47.5254 6.53795 54.9885C6.38394 62.4516 7.90943 69.8544 11.0025 76.654H102.505C105.46 70.1742 106.986 63.139 106.981 56.0224Z" fill="#C7F0FF"/>
<path d="M11.0029 76.654C14.9868 85.4117 21.421 92.8404 29.5351 98.0507C37.6493 103.261 47.0995 106.032 56.7544 106.032C66.4092 106.032 75.8595 103.261 83.9736 98.0507C92.0878 92.8404 98.522 85.4117 102.506 76.654H11.0029Z" fill="#CCF7AD"/>
<path fill-rule="evenodd" clip-rule="evenodd" d="M7.15723 76.654C7.15723 76.3087 7.43714 76.0288 7.78243 76.0288H105.724C106.07 76.0288 106.35 76.3087 106.35 76.654C106.35 76.9993 106.07 77.2792 105.724 77.2792H7.78243C7.43714 77.2792 7.15723 76.9993 7.15723 76.654Z" fill="#45413C"/>
<path fill-rule="evenodd" clip-rule="evenodd" d="M1.50684 76.654C1.50684 76.3087 1.78675 76.0288 2.13204 76.0288H5.2712C5.61649 76.0288 5.8964 76.3087 5.8964 76.654C5.8964 76.9993 5.61649 77.2792 5.2712 77.2792H2.13204C1.78675 77.2792 1.50684 76.9993 1.50684 76.654Z" fill="#45413C"/>
<path fill-rule="evenodd" clip-rule="evenodd" d="M107.61 76.654C107.61 76.3087 107.89 76.0288 108.236 76.0288H111.375C111.72 76.0288 112 76.3087 112 76.654C112 76.9993 111.72 77.2792 111.375 77.2792H108.236C107.89 77.2792 107.61 76.9993 107.61 76.654Z" fill="#45413C"/>
<path d="M41.6318 87.1911H92.9597C96.0583 87.1593 99.019 85.9112 101.199 83.718C103.379 81.5248 104.601 78.5637 104.601 75.478C104.601 72.3923 103.379 69.4312 101.199 67.238C99.019 65.0449 96.0583 63.7968 92.9597 63.7649H41.6318V87.1911Z" fill="#BF8256"/>
<path d="M43.1196 37.5927L44.9554 43.3321L39.1919 45.1602L41.0289 50.8995L35.2654 52.7288L37.1012 58.4682L31.3377 60.2963L33.1735 66.0356L27.41 67.8649L29.247 73.6043L23.4835 75.4324L25.3193 81.1717L19.5558 83.001L10.0566 78.112L33.6192 32.7037L43.1196 37.5927Z" fill="#DAEDF7"/>
<path fill-rule="evenodd" clip-rule="evenodd" d="M33.0645 32.4157C33.2231 32.11 33.5992 31.9902 33.9055 32.1478L43.4059 37.0369C43.5534 37.1128 43.6647 37.2443 43.7153 37.4023L45.5511 43.1416C45.6017 43.2998 45.5872 43.4716 45.511 43.6192C45.4347 43.7667 45.3029 43.8778 45.1446 43.928L39.9786 45.5666L41.6246 50.7089C41.6752 50.8671 41.6608 51.0389 41.5846 51.1865C41.5083 51.334 41.3765 51.4452 41.2183 51.4954L36.052 53.1352L37.6969 58.2777C37.7475 58.4359 37.733 58.6077 37.6568 58.7553C37.5805 58.9028 37.4487 59.0139 37.2904 59.0641L32.1243 60.7027L33.7691 65.8452C33.8197 66.0033 33.8053 66.1751 33.7291 66.3226C33.6529 66.4702 33.5211 66.5813 33.3628 66.6315L28.1966 68.2713L29.8426 73.4137C29.8933 73.5719 29.8789 73.7437 29.8026 73.8913C29.7264 74.0389 29.5945 74.15 29.4362 74.2002L24.2701 75.8388L25.9149 80.9813C25.9655 81.1394 25.9511 81.3112 25.8749 81.4587C25.7987 81.6063 25.6669 81.7174 25.5086 81.7676L19.7451 83.597C19.5876 83.6469 19.4168 83.6326 19.2698 83.5569L9.77073 78.6679C9.62298 78.5918 9.51158 78.4601 9.46114 78.3018C9.4107 78.1434 9.42537 77.9715 9.5019 77.824L33.0645 32.4157ZM33.8874 33.5447L10.9007 77.8432L19.6127 82.3271L24.5331 80.7654L22.8882 75.6229C22.8376 75.4647 22.852 75.2929 22.9283 75.1453C23.0045 74.9978 23.1364 74.8867 23.2947 74.8364L28.4607 73.1979L26.8147 68.0555C26.7641 67.8974 26.7785 67.7256 26.8547 67.578C26.9309 67.4305 27.0627 67.3193 27.221 67.2691L32.3873 65.6293L30.7424 60.4868C30.6918 60.3286 30.7062 60.1568 30.7825 60.0092C30.8587 59.8617 30.9905 59.7506 31.1489 59.7003L36.315 58.0617L34.6701 52.9193C34.6195 52.7612 34.6339 52.5894 34.7102 52.4419C34.7864 52.2943 34.9182 52.1832 35.0765 52.133L40.2426 50.4932L38.5966 45.3508C38.546 45.1926 38.5604 45.0207 38.6366 44.8732C38.7129 44.7256 38.8447 44.6145 39.003 44.5642L44.1692 42.9256L42.6033 38.0301L33.8874 33.5447Z" fill="#45413C"/>
<path d="M2.36102 81.3443C1.60506 80.9553 1.03524 80.2832 0.776911 79.4758C0.518586 78.6684 0.592918 77.7919 0.983554 77.0391C1.37419 76.2863 2.04913 75.7189 2.8599 75.4617C3.67067 75.2044 4.55085 75.2784 5.30681 75.6674L19.5561 83.001L18.5742 84.8929C18.3163 85.3898 17.9627 85.8313 17.5335 86.1921C17.1043 86.5529 16.6079 86.826 16.0727 86.9957C15.5375 87.1655 14.9739 87.2286 14.4142 87.1815C13.8545 87.1343 13.3096 86.9779 12.8107 86.721L2.36102 81.3443Z" fill="#FF6242"/>
<path fill-rule="evenodd" clip-rule="evenodd" d="M5.02043 76.2233C4.41143 75.91 3.70209 75.8503 3.04869 76.0576C2.39534 76.2649 1.85226 76.7219 1.5382 77.3271C1.22419 77.9322 1.16451 78.6365 1.37209 79.2853C1.57968 79.9341 2.03788 80.475 2.64679 80.7883L13.0964 86.1651C13.5226 86.3844 13.9882 86.5182 14.4664 86.5585C14.9447 86.5987 15.4261 86.5448 15.8834 86.3998C16.3406 86.2548 16.7645 86.0215 17.1309 85.7135C17.4973 85.4055 17.799 85.0288 18.019 84.6049L18.7119 83.2698L5.02043 76.2233C5.02044 76.2233 5.02041 76.2233 5.02043 76.2233ZM2.67054 74.8657C3.63866 74.5586 4.68967 74.6469 5.59259 75.1115L19.8419 82.4451C19.9897 82.5212 20.1011 82.6529 20.1515 82.8113C20.202 82.9696 20.1873 83.1415 20.1107 83.289L19.1288 85.1809C19.1288 85.1809 19.1288 85.1808 19.1288 85.1809C18.8331 85.7508 18.4275 86.2571 17.9355 86.6707C17.4435 87.0843 16.8746 87.3972 16.2614 87.5917C15.6482 87.7862 15.0026 87.8585 14.3615 87.8045C13.7204 87.7505 13.0961 87.5712 12.5243 87.2769C12.5243 87.2769 12.5244 87.2769 12.5243 87.2769L2.07469 81.9002C1.17168 81.4355 0.490217 80.6322 0.181162 79.6663C-0.127916 78.7003 -0.0389257 77.6516 0.428333 76.7512C0.895545 75.8508 1.70235 75.1729 2.67054 74.8657Z" fill="#45413C"/>
<path d="M31.8151 24.5836C31.0592 24.1946 30.179 24.1205 29.3682 24.3778C28.5574 24.635 27.8825 25.2025 27.4919 25.9552C27.1012 26.708 27.0269 27.5845 27.2852 28.3919C27.5435 29.1993 28.1134 29.8714 28.8693 30.2604L43.1199 37.5927L44.1018 35.7009C44.3597 35.2039 44.5168 34.6612 44.564 34.1038C44.6113 33.5464 44.5478 32.9852 44.3772 32.4523C44.2066 31.9193 43.9323 31.425 43.5698 30.9976C43.2073 30.5703 42.7639 30.2182 42.2648 29.9615L31.8151 24.5836Z" fill="#FF6242"/>
<path fill-rule="evenodd" clip-rule="evenodd" d="M29.1788 23.7819C30.147 23.4747 31.198 23.563 32.1009 24.0276L42.5504 29.4055C42.5505 29.4056 42.5503 29.4055 42.5504 29.4055C43.1223 29.6997 43.6307 30.1033 44.0463 30.5933C44.4619 31.0833 44.7766 31.6502 44.9724 32.2617C45.1681 32.8731 45.2409 33.5171 45.1867 34.1567C45.1325 34.7962 44.9523 35.4188 44.6564 35.9889L43.6745 37.8807C43.5158 38.1864 43.1398 38.3062 42.8335 38.1487L28.583 30.8163C27.68 30.3516 26.9985 29.5483 26.6895 28.5824C26.3804 27.6164 26.4694 26.5677 26.9366 25.6673C27.4038 24.7669 28.2106 24.089 29.1788 23.7819ZM31.5287 25.1395C30.9197 24.8261 30.2104 24.7664 29.557 24.9737C28.9036 25.181 28.3606 25.638 28.0465 26.2432C27.7325 26.8483 27.6728 27.5526 27.8804 28.2014C28.088 28.8502 28.5462 29.3911 29.1551 29.7044C29.1551 29.7045 29.1551 29.7044 29.1551 29.7044L42.8517 36.7518L43.5466 35.4129C43.5466 35.4129 43.5466 35.4129 43.5466 35.4129C43.7666 34.989 43.9005 34.5262 43.9408 34.051C43.9811 33.5758 43.9269 33.0973 43.7815 32.6428C43.636 32.1884 43.402 31.7667 43.0927 31.402C42.7834 31.0373 42.4048 30.7367 41.9786 30.5175L31.5287 25.1395C31.5287 25.1395 31.5287 25.1395 31.5287 25.1395Z" fill="#45413C"/>
<path d="M10.0566 78.1126L33.6204 32.7045L39.3208 35.6378L15.757 81.0459L10.0566 78.1126Z" fill="#ADC4D9"/>
<path fill-rule="evenodd" clip-rule="evenodd" d="M9.7688 78.6676C9.46178 78.5096 9.34182 78.133 9.50086 77.8266L33.0647 32.4185C33.2237 32.112 33.6015 31.9916 33.9085 32.1496L39.6089 35.0829C39.9159 35.2409 40.0359 35.6175 39.8768 35.9239L16.313 81.332C16.154 81.6385 15.7762 81.7589 15.4691 81.6009L9.7688 78.6676ZM10.9007 77.8438L15.4892 80.205L38.477 35.9067L33.8885 33.5455L10.9007 77.8438Z" fill="#45413C"/>
<path d="M104.72 75.4786C104.72 72.3722 103.481 69.3929 101.275 67.1962C99.0697 64.9995 96.078 63.7652 92.9585 63.7649H41.6318V75.4786H104.72Z" fill="#DEA47A"/>
<path fill-rule="evenodd" clip-rule="evenodd" d="M41.0068 63.7649C41.0068 63.4196 41.2867 63.1397 41.632 63.1397H92.9664C96.2287 63.1732 99.3466 64.4874 101.642 66.7973C103.938 69.1073 105.227 72.2268 105.227 75.478C105.227 78.7293 103.938 81.8487 101.642 84.1587C99.3466 86.4687 96.2287 87.7827 92.9664 87.8163L92.9599 87.8163H41.632C41.2867 87.8163 41.0068 87.5364 41.0068 87.1911V63.7649ZM42.2572 64.3901V86.5659H92.9566C95.8902 86.5349 98.6926 85.3529 100.756 83.2773C102.819 81.2009 103.976 78.3982 103.976 75.478C103.976 72.5578 102.819 69.7551 100.756 67.6788C98.6926 65.6031 95.8902 64.4211 92.9567 64.3901H42.2572Z" fill="#45413C"/>
<path d="M53.8115 63.7649H81.6157C84.7143 63.733 87.6751 62.4849 89.8548 60.2917C92.0346 58.0985 93.2573 55.1375 93.2573 52.0518C93.2573 48.966 92.0346 46.0049 89.8548 43.8118C87.6751 41.6186 84.7143 40.3705 81.6157 40.3386H53.8115V63.7649Z" fill="#BF8256"/>
<path d="M93.3763 52.0511C93.3763 48.945 92.1373 45.9661 89.9318 43.7696C87.7263 41.5731 84.735 40.339 81.6157 40.3386H53.8115V52.0511H93.3763Z" fill="#DEA47A"/>
<path fill-rule="evenodd" clip-rule="evenodd" d="M53.186 40.3386C53.186 39.9934 53.4659 39.7134 53.8112 39.7134H81.6219C84.8843 39.747 88.0021 41.0611 90.298 43.3711C92.5939 45.6811 93.8822 48.8005 93.8822 52.0518C93.8822 55.303 92.5939 58.4224 90.298 60.7325C88.0021 63.0424 84.8843 64.3565 81.6219 64.3901L81.6155 64.3901L53.8112 64.3901C53.4659 64.3901 53.186 64.1102 53.186 63.7649V40.3386ZM54.4364 40.9638V63.1397H81.6121C84.5457 63.1087 87.3481 61.9267 89.4111 59.851C91.4747 57.7747 92.6318 54.972 92.6318 52.0518C92.6318 49.1316 91.4747 46.3288 89.4111 44.2525C87.3481 42.1769 84.5458 40.9949 81.6122 40.9638H54.4364Z" fill="#45413C"/>
<path d="M53.3936 75.4786C53.3936 78.5853 54.6329 81.5648 56.8389 83.7615C59.0449 85.9583 62.0369 87.1924 65.1566 87.1924C68.2764 87.1924 71.2684 85.9583 73.4744 83.7615C75.6804 81.5648 76.9197 78.5853 76.9197 75.4786C76.9197 72.372 75.6804 69.3925 73.4744 67.1958C71.2684 64.999 68.2764 63.7649 65.1566 63.7649C62.0369 63.7649 59.0449 64.999 56.8389 67.1958C54.6329 69.3925 53.3936 72.372 53.3936 75.4786Z" fill="#F0D5A8"/>
<path d="M29.8682 75.4786C29.8682 77.0169 30.1724 78.5401 30.7636 79.9613C31.3547 81.3825 32.2212 82.6738 33.3135 83.7615C34.4058 84.8492 35.7026 85.7121 37.1297 86.3007C38.5569 86.8894 40.0865 87.1924 41.6313 87.1924C43.176 87.1924 44.7056 86.8894 46.1328 86.3007C47.56 85.7121 48.8567 84.8492 49.949 83.7615C51.0413 82.6738 51.9078 81.3825 52.4989 79.9613C53.0901 78.5401 53.3943 77.0169 53.3943 75.4786C53.3943 73.9404 53.0901 72.4172 52.4989 70.996C51.9078 69.5748 51.0413 68.2835 49.949 67.1958C48.8567 66.108 47.56 65.2452 46.1328 64.6565C44.7056 64.0679 43.176 63.7649 41.6313 63.7649C40.0865 63.7649 38.5569 64.0679 37.1297 64.6565C35.7026 65.2452 34.4058 66.108 33.3135 67.1958C32.2212 68.2835 31.3547 69.5748 30.7636 70.996C30.1724 72.4172 29.8682 73.9404 29.8682 75.4786Z" fill="#F0D5A8"/>
<path d="M42.0488 52.0512C42.0488 53.5894 42.3531 55.1126 42.9442 56.5338C43.5354 57.955 44.4019 59.2463 45.4942 60.334C46.5865 61.4217 47.8832 62.2846 49.3104 62.8732C50.7375 63.4619 52.2672 63.7649 53.8119 63.7649C55.3567 63.7649 56.8863 63.4619 58.3135 62.8732C59.7406 62.2846 61.0374 61.4217 62.1297 60.334C63.222 59.2463 64.0884 57.955 64.6796 56.5338C65.2707 55.1126 65.575 53.5894 65.575 52.0512C65.575 50.5129 65.2707 48.9897 64.6796 47.5685C64.0884 46.1473 63.222 44.856 62.1297 43.7683C61.0374 42.6806 59.7406 41.8177 58.3135 41.2291C56.8863 40.6404 55.3567 40.3374 53.8119 40.3374C52.2672 40.3374 50.7375 40.6404 49.3104 41.2291C47.8832 41.8177 46.5865 42.6806 45.4942 43.7683C44.4019 44.856 43.5354 46.1473 42.9442 47.5685C42.3531 48.9897 42.0488 50.5129 42.0488 52.0512Z" fill="#F0D5A8"/>
<path d="M46.3267 52.0511C46.3267 54.028 47.1153 55.9238 48.519 57.3217C49.9227 58.7195 51.8265 59.5048 53.8117 59.5048C55.7968 59.5048 57.7007 58.7195 59.1044 57.3217C60.5081 55.9238 61.2967 54.028 61.2967 52.0511C61.2967 50.0743 60.5081 48.1785 59.1044 46.7806C57.7007 45.3828 55.7968 44.5975 53.8117 44.5975C51.8265 44.5975 49.9227 45.3828 48.519 46.7806C47.1153 48.1785 46.3267 50.0743 46.3267 52.0511Z" fill="#F0D5A8"/>
<path d="M34.1465 75.4787C34.1465 77.4555 34.9351 79.3513 36.3388 80.7492C37.7425 82.147 39.6464 82.9323 41.6315 82.9323C43.6167 82.9323 45.5205 82.147 46.9242 80.7492C48.3279 79.3513 49.1165 77.4555 49.1165 75.4787C49.1165 73.5018 48.3279 71.606 46.9242 70.2081C45.5205 68.8103 43.6167 68.025 41.6315 68.025C39.6464 68.025 37.7425 68.8103 36.3388 70.2081C34.9351 71.606 34.1465 73.5018 34.1465 75.4787Z" fill="#F0D5A8"/>
<path d="M57.6714 75.4787C57.6714 77.4555 58.46 79.3513 59.8637 80.7492C61.2674 82.147 63.1713 82.9323 65.1564 82.9323C67.1416 82.9323 69.0454 82.147 70.4491 80.7492C71.8528 79.3513 72.6414 77.4555 72.6414 75.4787C72.6414 73.5018 71.8528 71.606 70.4491 70.2081C69.0454 68.8103 67.1416 68.025 65.1564 68.025C63.1713 68.025 61.2674 68.8103 59.8637 70.2081C58.46 71.606 57.6714 73.5018 57.6714 75.4787Z" fill="#F0D5A8"/>
<path fill-rule="evenodd" clip-rule="evenodd" d="M71.3516 44.5975C71.3516 44.2522 71.6315 43.9723 71.9768 43.9723H79.463C79.8083 43.9723 80.0882 44.2522 80.0882 44.5975C80.0882 44.9428 79.8083 45.2227 79.463 45.2227H71.9768C71.6315 45.2227 71.3516 44.9428 71.3516 44.5975Z" fill="#45413C"/>
<path fill-rule="evenodd" clip-rule="evenodd" d="M82.6973 80.8028C82.6973 80.4575 82.9772 80.1776 83.3225 80.1776H87.6005C87.9458 80.1776 88.2257 80.4575 88.2257 80.8028C88.2257 81.1481 87.9458 81.428 87.6005 81.428H83.3225C82.9772 81.428 82.6973 81.1481 82.6973 80.8028Z" fill="#45413C"/>
<path fill-rule="evenodd" clip-rule="evenodd" d="M82.6973 70.1544C82.6973 69.8091 82.9772 69.5292 83.3225 69.5292H91.8773C92.2226 69.5292 92.5025 69.8091 92.5025 70.1544C92.5025 70.4997 92.2226 70.7796 91.8773 70.7796H83.3225C82.9772 70.7796 82.6973 70.4997 82.6973 70.1544Z" fill="#45413C"/>
<path fill-rule="evenodd" clip-rule="evenodd" d="M91.252 77.0979C91.252 76.7527 91.5319 76.4727 91.8772 76.4727H98.2936C98.6389 76.4727 98.9188 76.7527 98.9188 77.0979C98.9188 77.4432 98.6389 77.7231 98.2936 77.7231H91.8772C91.5319 77.7231 91.252 77.4432 91.252 77.0979Z" fill="#45413C"/>
<path fill-rule="evenodd" clip-rule="evenodd" d="M69.8657 57.3766C69.8657 57.0313 70.1456 56.7514 70.4909 56.7514H76.9074C77.2527 56.7514 77.5326 57.0313 77.5326 57.3766C77.5326 57.7219 77.2527 58.0018 76.9074 58.0018H70.4909C70.1456 58.0018 69.8657 57.7219 69.8657 57.3766Z" fill="#45413C"/>
<path fill-rule="evenodd" clip-rule="evenodd" d="M75.6299 50.987C75.6299 50.6418 75.9098 50.3618 76.2551 50.3618H84.8099C85.1552 50.3618 85.4351 50.6418 85.4351 50.987C85.4351 51.3323 85.1552 51.6123 84.8099 51.6123H76.2551C75.9098 51.6123 75.6299 51.3323 75.6299 50.987Z" fill="#45413C"/>
<path d="M42.0488 52.0512C42.0488 48.9445 43.2881 45.965 45.4942 43.7683C47.7002 41.5715 50.6921 40.3374 53.8119 40.3374C56.9317 40.3374 59.9237 41.5715 62.1297 43.7683C64.3357 45.965 65.575 48.9445 65.575 52.0512H42.0488Z" fill="#F7E5C6"/>
<path d="M46.332 52.0511C46.332 50.0743 47.1206 48.1785 48.5243 46.7806C49.9281 45.3828 51.8319 44.5975 53.8171 44.5975C55.8022 44.5975 57.7061 45.3828 59.1098 46.7806C60.5135 48.1785 61.3021 50.0743 61.3021 52.0511H46.332Z" fill="#F7E5C6"/>
<path d="M53.3936 75.4786C53.3936 72.372 54.6329 69.3925 56.8389 67.1958C59.0449 64.999 62.0369 63.7649 65.1566 63.7649C68.2764 63.7649 71.2684 64.999 73.4744 67.1958C75.6804 69.3925 76.9197 72.372 76.9197 75.4786H53.3936Z" fill="#F7E5C6"/>
<path d="M57.6714 75.4787C57.6714 73.5018 58.46 71.606 59.8637 70.2081C61.2674 68.8103 63.1713 68.025 65.1564 68.025C67.1416 68.025 69.0454 68.8103 70.4491 70.2081C71.8528 71.606 72.6414 73.5018 72.6414 75.4787H57.6714Z" fill="#F7E5C6"/>
<path d="M29.8683 75.4786C29.8522 73.9303 30.1446 72.3941 30.7285 70.959C31.3124 69.5238 32.1763 68.2182 33.2701 67.1176C34.364 66.0171 35.6661 65.1434 37.1012 64.5471C38.5362 63.9509 40.0758 63.6439 41.6308 63.6439C43.1857 63.6439 44.7253 63.9509 46.1604 64.5471C47.5954 65.1434 48.8975 66.0171 49.9914 67.1176C51.0852 68.2182 51.9491 69.5238 52.533 70.959C53.1169 72.3941 53.4093 73.9303 53.3932 75.4786H29.8683Z" fill="#F7E5C6"/>
<path d="M34.1514 75.4787C34.1514 73.5018 34.94 71.606 36.3437 70.2081C37.7474 68.8103 39.6512 68.025 41.6364 68.025C43.6216 68.025 45.5254 68.8103 46.9291 70.2081C48.3328 71.606 49.1214 73.5018 49.1214 75.4787H34.1514Z" fill="#F7E5C6"/>
<path fill-rule="evenodd" clip-rule="evenodd" d="M56.3974 66.7527C58.7209 64.439 61.8716 63.1397 65.1563 63.1397C68.4411 63.1397 71.5918 64.439 73.9153 66.7527C76.2388 69.0665 77.5446 72.2053 77.5446 75.4786C77.5446 78.752 76.2388 81.8907 73.9153 84.2045C71.5918 86.5182 68.4411 87.8176 65.1563 87.8176C61.8716 87.8176 58.7209 86.5182 56.3974 84.2045C54.0739 81.8907 52.7681 78.752 52.7681 75.4786C52.7681 72.2053 54.0739 69.0665 56.3974 66.7527ZM65.1563 64.3901C62.2016 64.3901 59.3683 65.559 57.2797 67.6388C55.1913 69.7185 54.0185 72.5386 54.0185 75.4786C54.0185 78.4186 55.1913 81.2388 57.2797 83.3185C59.3683 85.3983 62.2016 86.5672 65.1563 86.5672C68.1111 86.5672 70.9444 85.3983 73.033 83.3185C75.1214 81.2388 76.2942 78.4186 76.2942 75.4786C76.2942 72.5386 75.1214 69.7185 73.033 67.6388C70.9444 65.559 68.1111 64.3901 65.1563 64.3901Z" fill="#45413C"/>
<path fill-rule="evenodd" clip-rule="evenodd" d="M36.892 64.0786C38.3948 63.4587 40.0054 63.1397 41.6319 63.1397C43.2584 63.1397 44.8691 63.4587 46.3719 64.0786C47.8747 64.6985 49.2404 65.6071 50.3908 66.7527C51.5413 67.8984 52.4541 69.2586 53.0769 70.7559C53.6996 72.2531 54.0202 73.8579 54.0202 75.4786C54.0202 77.0994 53.6996 78.7042 53.0769 80.2014C52.4541 81.6986 51.5413 83.0589 50.3908 84.2045C49.2404 85.3502 47.8747 86.2588 46.3719 86.8787C44.8691 87.4986 43.2584 87.8176 41.6319 87.8176C40.0054 87.8176 38.3948 87.4986 36.892 86.8787C35.3892 86.2588 34.0235 85.3502 32.873 84.2045C31.7225 83.0589 30.8098 81.6986 30.187 80.2014C29.5642 78.7042 29.2437 77.0994 29.2437 75.4786C29.2437 73.8579 29.5642 72.2531 30.187 70.7559C30.8098 69.2586 31.7225 67.8984 32.873 66.7527C34.0235 65.6071 35.3892 64.6985 36.892 64.0786ZM41.6319 64.3901C40.1689 64.3901 38.7203 64.677 37.3688 65.2345C36.0173 65.792 34.7895 66.609 33.7553 67.6388C32.7212 68.6686 31.901 69.8909 31.3415 71.2361C30.782 72.5812 30.4941 74.0228 30.4941 75.4786C30.4941 76.9344 30.782 78.376 31.3415 79.7212C31.901 81.0663 32.7212 82.2887 33.7553 83.3185C34.7895 84.3483 36.0173 85.1653 37.3688 85.7228C38.7203 86.2802 40.1689 86.5672 41.6319 86.5672C43.0949 86.5672 44.5436 86.2802 45.8951 85.7228C47.2466 85.1653 48.4744 84.3483 49.5085 83.3185C50.5427 82.2887 51.3628 81.0663 51.9224 79.7212C52.4819 78.376 52.7698 76.9344 52.7698 75.4786C52.7698 74.0228 52.4819 72.5812 51.9224 71.2361C51.3628 69.8909 50.5427 68.6686 49.5085 67.6388C48.4744 66.609 47.2466 65.792 45.8951 65.2345C44.5436 64.677 43.0949 64.3901 41.6319 64.3901Z" fill="#45413C"/>
<path fill-rule="evenodd" clip-rule="evenodd" d="M49.0717 40.6511C50.5745 40.0312 52.1851 39.7122 53.8116 39.7122C55.4381 39.7122 57.0487 40.0312 58.5516 40.6511C60.0544 41.271 61.4201 42.1796 62.5705 43.3253C63.721 44.4709 64.6338 45.8311 65.2566 47.3284C65.8793 48.8256 66.1999 50.4304 66.1999 52.0511C66.1999 53.6719 65.8793 55.2767 65.2566 56.7739C64.6338 58.2711 63.721 59.6314 62.5705 60.777C61.4201 61.9227 60.0544 62.8313 58.5516 63.4512C57.0487 64.0711 55.4381 64.3901 53.8116 64.3901C52.1851 64.3901 50.5745 64.0711 49.0717 63.4512C47.5689 62.8313 46.2032 61.9227 45.0527 60.777C43.9022 59.6314 42.9895 58.2711 42.3667 56.7739C41.7439 55.2767 41.4233 53.6719 41.4233 52.0511C41.4233 50.4304 41.7439 48.8256 42.3667 47.3284C42.9895 45.8311 43.9022 44.4709 45.0527 43.3253C46.2032 42.1796 47.5689 41.271 49.0717 40.6511ZM53.8116 40.9626C52.3486 40.9626 50.9 41.2495 49.5485 41.807C48.197 42.3645 46.9692 43.1815 45.935 44.2113C44.9009 45.2411 44.0807 46.4635 43.5212 47.8086C42.9617 49.1537 42.6737 50.5953 42.6737 52.0511C42.6737 53.5069 42.9617 54.9486 43.5212 56.2937C44.0807 57.6388 44.9009 58.8612 45.935 59.891C46.9692 60.9208 48.197 61.7378 49.5485 62.2953C50.9 62.8527 52.3486 63.1397 53.8116 63.1397C55.2746 63.1397 56.7233 62.8527 58.0748 62.2953C59.4263 61.7378 60.6541 60.9208 61.6882 59.891C62.7224 58.8612 63.5425 57.6388 64.102 56.2937C64.6616 54.9486 64.9495 53.5069 64.9495 52.0511C64.9495 50.5953 64.6616 49.1537 64.102 47.8086C63.5425 46.4635 62.7224 45.2411 61.6882 44.2113C60.6541 43.1815 59.4263 42.3645 58.0748 41.807C56.7233 41.2495 55.2746 40.9626 53.8116 40.9626Z" fill="#45413C"/>
<path fill-rule="evenodd" clip-rule="evenodd" d="M48.0775 46.3376C49.5987 44.8228 51.6613 43.9723 53.8114 43.9723C55.9615 43.9723 58.0241 44.8228 59.5453 46.3376C61.0665 47.8525 61.9216 49.9076 61.9216 52.0511C61.9216 54.1946 61.0665 56.2498 59.5453 57.7647C58.0241 59.2794 55.9615 60.13 53.8114 60.13C51.6613 60.13 49.5987 59.2794 48.0775 57.7647C46.5563 56.2498 45.7012 54.1946 45.7012 52.0511C45.7012 49.9076 46.5563 47.8525 48.0775 46.3376ZM53.8114 45.2227C51.9912 45.2227 50.2461 45.9427 48.9598 47.2236C47.6737 48.5044 46.9516 50.241 46.9516 52.0511C46.9516 53.8613 47.6737 55.5978 48.9598 56.8786C50.2461 58.1595 51.9912 58.8796 53.8114 58.8796C55.6316 58.8796 57.3767 58.1595 58.663 56.8786C59.9491 55.5978 60.6712 53.8613 60.6712 52.0511C60.6712 50.241 59.9491 48.5044 58.663 47.2236C57.3767 45.9427 55.6316 45.2227 53.8114 45.2227Z" fill="#45413C"/>
<path fill-rule="evenodd" clip-rule="evenodd" d="M35.8974 69.7651C37.4185 68.2503 39.4811 67.3998 41.6312 67.3998C43.7813 67.3998 45.8439 68.2503 47.3651 69.7651C48.8863 71.28 49.7415 73.3352 49.7415 75.4786C49.7415 77.6221 48.8863 79.6773 47.3651 81.1922C45.8439 82.707 43.7813 83.5575 41.6312 83.5575C39.4811 83.5575 37.4185 82.707 35.8974 81.1922C34.3761 79.6773 33.521 77.6221 33.521 75.4786C33.521 73.3352 34.3761 71.28 35.8974 69.7651ZM41.6312 68.6502C39.811 68.6502 38.0659 69.3703 36.7797 70.6511C35.4935 71.9319 34.7714 73.6685 34.7714 75.4786C34.7714 77.2888 35.4935 79.0254 36.7797 80.3062C38.0659 81.587 39.811 82.3071 41.6312 82.3071C43.4514 82.3071 45.1965 81.587 46.4828 80.3062C47.769 79.0254 48.4911 77.2888 48.4911 75.4786C48.4911 73.6685 47.769 71.9319 46.4828 70.6511C45.1965 69.3703 43.4514 68.6502 41.6312 68.6502Z" fill="#45413C"/>
<path fill-rule="evenodd" clip-rule="evenodd" d="M59.4223 69.7651C60.9434 68.2503 63.006 67.3998 65.1561 67.3998C67.3063 67.3998 69.3688 68.2503 70.89 69.7651C72.4113 71.28 73.2664 73.3352 73.2664 75.4786C73.2664 77.6221 72.4113 79.6773 70.89 81.1922C69.3688 82.707 67.3063 83.5575 65.1561 83.5575C63.006 83.5575 60.9434 82.707 59.4223 81.1922C57.901 79.6773 57.0459 77.6221 57.0459 75.4786C57.0459 73.3352 57.901 71.28 59.4223 69.7651ZM65.1561 68.6502C63.3359 68.6502 61.5908 69.3703 60.3046 70.6511C59.0184 71.9319 58.2963 73.6685 58.2963 75.4786C58.2963 77.2888 59.0184 79.0254 60.3046 80.3062C61.5908 81.587 63.3359 82.3071 65.1561 82.3071C66.9763 82.3071 68.7214 81.587 70.0077 80.3062C71.2939 79.0254 72.016 77.2888 72.016 75.4786C72.016 73.6685 71.2939 71.9319 70.0077 70.6511C68.7214 69.3703 66.9763 68.6502 65.1561 68.6502Z" fill="#45413C"/>
</g>
<defs>
<clipPath id="clip0">
<rect width="112" height="112" fill="white"/>
</clipPath>
</defs>
</svg>
