<svg width="160" height="160" fill="none" xmlns="http://www.w3.org/2000/svg">
  <path d="M16 80c0 16.9739 6.7428 33.253 18.7452 45.255C46.7475 137.257 63.0261 144 80 144c16.9739 0 33.253-6.743 45.255-18.745C137.257 113.253 144 96.9739 144 80c0-16.9739-6.743-33.2525-18.745-45.2548C113.253 22.7428 96.9739 16 80 16c-16.9739 0-33.2525 6.7428-45.2548 18.7452C22.7428 46.7475 16 63.0261 16 80z" fill="#CDF2FF"/>
  <path d="M19.368 97v-7.296H4.68v-4.848L17.4 66.52h8.544v17.808h3.84v5.376h-3.84V97h-6.576zm-7.872-12.672h7.872v-5.136c0-.96.016-2.064.048-3.312.064-1.28.128-2.4.192-3.36h-.192c-.512.864-1.056 1.728-1.632 2.592-.576.864-1.136 1.728-1.68 2.592l-4.608 6.624zm36.2212-3.744c.9281 0 1.8721-.224 2.8321-.672.992-.48 1.92-1.264 2.784-2.352-.192-1.184-.48-2.176-.864-2.976-.3521-.832-.7841-1.488-1.2961-1.968-.4799-.512-1.0079-.864-1.5839-1.056-.5761-.224-1.1681-.336-1.776-.336-.608 0-1.2.096-1.776.288-.5441.192-1.0401.496-1.4881.912-.416.384-.7519.896-1.008 1.536-.256.608-.384 1.344-.384 2.208 0 1.568.4161 2.704 1.2481 3.408.832.672 1.9359 1.008 3.3119 1.008zm-.8159 16.992c-2.176 0-4.08-.368-5.712-1.104-1.632-.736-2.9761-1.584-4.0321-2.544l3.744-4.224c.64.576 1.4401 1.088 2.4001 1.536.96.416 1.952.624 2.9759.624.9281 0 1.8081-.16 2.6401-.48.864-.352 1.616-.896 2.2559-1.632.6721-.768 1.2161-1.76 1.6321-2.976.416-1.248.656-2.768.72-4.56-1.12 1.056-2.352 1.888-3.6961 2.496-1.3119.576-2.5279.864-3.648.864-1.344 0-2.592-.192-3.744-.576-1.152-.384-2.16-.96-3.024-1.728-.832-.768-1.488-1.744-1.968-2.928s-.72-2.576-.72-4.176c0-1.568.288-2.976.864-4.224.608-1.28 1.408-2.368 2.4-3.264 1.0241-.896 2.1921-1.568 3.504-2.016 1.3121-.48 2.7041-.72 4.1761-.72 1.568 0 3.088.288 4.56.864 1.504.576 2.832 1.472 3.984 2.688 1.152 1.216 2.064 2.784 2.736 4.704.704 1.888 1.056 4.176 1.056 6.864 0 2.848-.368 5.312-1.104 7.392-.736 2.08-1.712 3.792-2.928 5.136-1.216 1.344-2.624 2.352-4.224 3.024-1.568.64-3.1841.96-4.848.96zM69.1545 97v-5.712h8.208V73.672h-6.768v-4.368c1.024-.16 1.936-.32 2.736-.48.832-.192 1.584-.4 2.256-.624.672-.224 1.296-.464 1.872-.72a19.01 19.01 0 001.776-.96h5.184v24.768h6.912V97h-22.176zm43.7575 0v-7.296H98.2237v-4.848L110.944 66.52h8.544v17.808h3.84v5.376h-3.84V97h-6.576zm-7.872-12.672h7.872v-5.136c0-.96.016-2.064.048-3.312.064-1.28.128-2.4.192-3.36h-.192c-.512.864-1.056 1.728-1.632 2.592-.576.864-1.136 1.728-1.68 2.592l-4.608 6.624zM130.509 97v-4.032c2.176-1.824 4.16-3.52 5.952-5.088 1.792-1.6 3.328-3.088 4.608-4.464 1.28-1.376 2.272-2.672 2.976-3.888.704-1.216 1.056-2.368 1.056-3.456 0-1.504-.432-2.64-1.296-3.408-.864-.8-2.096-1.2-3.696-1.2-1.216 0-2.336.32-3.36.96-.992.608-1.92 1.328-2.784 2.16l-3.792-3.792c.8-.8 1.584-1.504 2.352-2.112.8-.608 1.632-1.104 2.496-1.488.896-.416 1.824-.72 2.784-.912.992-.224 2.08-.336 3.264-.336 1.6 0 3.056.24 4.368.72 1.312.448 2.432 1.104 3.36 1.968.96.832 1.696 1.84 2.208 3.024.544 1.184.816 2.512.816 3.984 0 1.28-.304 2.592-.912 3.936-.608 1.312-1.44 2.64-2.496 3.984-1.024 1.312-2.208 2.64-3.552 3.984-1.344 1.312-2.752 2.608-4.224 3.888.864-.096 1.792-.176 2.784-.24 1.024-.096 1.936-.144 2.736-.144h7.248V97h-22.896z" fill="url(#paint0_linear)"/>
  <defs>
    <linearGradient id="paint0_linear" x1="80" y1="39" x2="80" y2="121" gradientUnits="userSpaceOnUse">
      <stop stop-color="#20F"/>
      <stop offset="1" stop-color="#9E00FF"/>
    </linearGradient>
  </defs>
</svg>
