<svg xmlns="http://www.w3.org/2000/svg" version="1.1" xmlns:xlink="http://www.w3.org/1999/xlink" xmlns:svgjs="http://svgjs.com/svgjs" viewBox="0 0 160 160" width="160" height="160"><g transform="matrix(1.6,0,0,1.6,0,0)"><path d="M10.000 50.000 A40.000 40.000 0 1 0 90.000 50.000 A40.000 40.000 0 1 0 10.000 50.000 Z" fill="#c7f0ff" stroke="#c7f0ff" stroke-miterlimit="10"></path><path d="M84.123,48.959a2.812,2.812,0,0,1,.133,4.832L51.97,74.217a2.812,2.812,0,0,1-3.007,0L16.677,53.791a2.813,2.813,0,0,1,.133-4.832L49.1,30.936a2.811,2.811,0,0,1,2.742,0Z" fill="#ffffff" stroke="#45413c" stroke-linecap="round" stroke-linejoin="round"></path><path d="M34.999 51.767 A15.468 7.139 0 1 0 65.935 51.767 A15.468 7.139 0 1 0 34.999 51.767 Z" fill="#c7f0ff"></path><path d="M24.725 58.883L63.313 37.342" fill="none" stroke="#45413c" stroke-linecap="round" stroke-linejoin="round"></path><path d="M75.027 43.881L38.021 67.294" fill="none" stroke="#45413c" stroke-linecap="round" stroke-linejoin="round"></path><path d="M76.208 58.883L37.621 37.342" fill="none" stroke="#45413c" stroke-linecap="round" stroke-linejoin="round"></path><path d="M25.906 43.881L62.913 67.294" fill="none" stroke="#45413c" stroke-linecap="round" stroke-linejoin="round"></path><path d="M33.589 35.738 A16.878 16.878 0 1 0 67.345 35.738 A16.878 16.878 0 1 0 33.589 35.738 Z" fill="#ff6242"></path><path d="M50.467,25.914A16.884,16.884,0,0,1,66.975,39.265a16.878,16.878,0,1,0-33.017,0A16.885,16.885,0,0,1,50.467,25.914Z" fill="#ff866e"></path><path d="M33.589 35.738 A16.878 16.878 0 1 0 67.345 35.738 A16.878 16.878 0 1 0 33.589 35.738 Z" fill="none" stroke="#45413c" stroke-linecap="round" stroke-linejoin="round"></path></g></svg>