<svg width="90" height="89" viewBox="0 0 90 89" fill="none" xmlns="http://www.w3.org/2000/svg">
<path d="M85.4231 44.605C85.4239 38.6949 84.1017 32.8595 81.5536 27.5269C79.0056 22.1943 75.2961 17.4996 70.6975 13.7872C66.0988 10.0748 60.7274 7.43884 54.9774 6.07261C49.2273 4.70637 43.2444 4.64453 37.4673 5.89161C31.6902 7.13869 26.2655 9.66306 21.5911 13.2796C16.9166 16.8961 13.111 21.5131 10.4532 26.7919C7.79542 32.0708 6.35292 37.8776 6.2315 43.7864C6.11008 49.6953 7.31282 55.5565 9.7515 60.94H81.8948C84.2241 55.8095 85.4272 50.2395 85.4231 44.605Z" fill="#B8ECFF"/>
<path d="M9.75146 60.9399C12.8924 67.8738 17.9653 73.7555 24.3627 77.8807C30.7602 82.0059 38.211 84.1999 45.8231 84.1999C53.4352 84.1999 60.8861 82.0059 67.2835 77.8807C73.6809 73.7555 78.7538 67.8738 81.8947 60.9399H9.75146Z" fill="#ADC4D9"/>
<path d="M7.21289 60.9399H84.4329" stroke="#45413C" stroke-linecap="round" stroke-linejoin="round"/>
<path d="M2.75781 60.9399H5.23281" stroke="#45413C" stroke-linecap="round" stroke-linejoin="round"/>
<path d="M86.4131 60.9399H88.8881" stroke="#45413C" stroke-linecap="round" stroke-linejoin="round"/>
<path d="M85.1941 61.0143H52.041V7.40576H85.1941" fill="#F0D3A8"/>
<path d="M85.1941 61.0143H52.041V7.40576H85.1941" stroke="#45413C" stroke-linecap="round" stroke-linejoin="round"/>
<path d="M69.9106 29.5073H83.0776V53.0198H69.9106V29.5073Z" fill="#00B8F0"/>
<path d="M83.0776 35.6206L69.9106 48.7876V30.4478C69.9106 30.1984 70.0097 29.9592 70.1861 29.7828C70.3625 29.6064 70.6017 29.5073 70.8511 29.5073H82.1371C82.3866 29.5073 82.6258 29.6064 82.8022 29.7828C82.9786 29.9592 83.0776 30.1984 83.0776 30.4478V35.6206Z" fill="#4ACFFF"/>
<path d="M69.9106 29.5073H83.0776V53.0198H69.9106V29.5073Z" stroke="#45413C" stroke-linecap="round" stroke-linejoin="round"/>
<path d="M52.041 27.1562H67.089V61.0142H52.041V27.1562Z" fill="#F0D3A8" stroke="#45413C" stroke-linecap="round" stroke-linejoin="round"/>
<path d="M51.1006 54.4307H68.9701V57.2522H51.1006V54.4307Z" fill="#F0D3A8" stroke="#45413C" stroke-linecap="round" stroke-linejoin="round"/>
<path d="M53.9224 59.1333H65.2084" stroke="#45413C" stroke-linecap="round" stroke-linejoin="round"/>
<path d="M54.3926 29.5073H64.7381V52.0793H54.3926V29.5073Z" fill="#00B8F0"/>
<path d="M63.7976 29.5073H55.3331C55.0836 29.5073 54.8444 29.6064 54.668 29.7828C54.4917 29.9592 54.3926 30.1984 54.3926 30.4478V45.0256L64.7381 35.1503V30.4478C64.7381 30.1984 64.639 29.9592 64.4626 29.7828C64.2862 29.6064 64.047 29.5073 63.7976 29.5073Z" fill="#4ACFFF"/>
<path d="M54.3926 29.5073H64.7381V52.0793H54.3926V29.5073Z" stroke="#45413C" stroke-linecap="round" stroke-linejoin="round"/>
<path d="M70.8511 55.3711H82.1371V59.1331H70.8511V55.3711Z" fill="#F0D3A8" stroke="#45413C" stroke-linecap="round" stroke-linejoin="round"/>
<path d="M85.1983 15.8732H50.1642C50.0406 15.8735 49.9182 15.8493 49.804 15.8022C49.6897 15.755 49.5859 15.6857 49.4986 15.5983C49.4112 15.511 49.3419 15.4072 49.2947 15.293C49.2476 15.1787 49.2234 15.0563 49.2237 14.9327V8.34923C49.2225 8.22539 49.246 8.10256 49.2928 7.98792C49.3397 7.87327 49.4089 7.76912 49.4965 7.68155C49.5841 7.59398 49.6882 7.52474 49.8029 7.4779C49.9175 7.43106 50.0403 7.40754 50.1642 7.40873H85.1983" fill="#F7E5C6"/>
<path d="M85.1983 15.8732H50.1642C50.0406 15.8735 49.9182 15.8493 49.804 15.8022C49.6897 15.755 49.5859 15.6857 49.4986 15.5983C49.4112 15.511 49.3419 15.4072 49.2947 15.293C49.2476 15.1787 49.2234 15.0563 49.2237 14.9327V8.34923C49.2225 8.22539 49.246 8.10256 49.2928 7.98792C49.3397 7.87327 49.4089 7.76912 49.4965 7.68155C49.5841 7.59398 49.6882 7.52474 49.8029 7.4779C49.9175 7.43106 50.0403 7.40754 50.1642 7.40873H85.1983" stroke="#45413C" stroke-linecap="round" stroke-linejoin="round"/>
<path d="M85.1983 27.1592H48.2832L52.0452 20.5757H85.1983" fill="#FF6242"/>
<path d="M85.1983 27.1592H48.2832L52.0452 20.5757H85.1983" stroke="#45413C" stroke-linecap="round" stroke-linejoin="round"/>
<path d="M85.1982 32.725C84.6771 32.3932 84.2497 31.9334 83.9568 31.3895C83.9178 31.3148 83.859 31.2522 83.7869 31.2085C83.7148 31.1649 83.6322 31.1418 83.5479 31.1418C83.4636 31.1418 83.381 31.1649 83.3089 31.2085C83.2368 31.2522 83.1781 31.3148 83.139 31.3895C82.84 31.9575 82.3914 32.433 81.8418 32.7647C81.2922 33.0965 80.6625 33.2718 80.0205 33.2718C79.3786 33.2718 78.7488 33.0965 78.1993 32.7647C77.6497 32.433 77.2011 31.9575 76.902 31.3895C76.863 31.3148 76.8043 31.2522 76.7322 31.2085C76.6601 31.1649 76.5774 31.1418 76.4932 31.1418C76.4089 31.1418 76.3262 31.1649 76.2542 31.2085C76.1821 31.2522 76.1233 31.3148 76.0843 31.3895C75.7852 31.9575 75.3367 32.433 74.7871 32.7647C74.2375 33.0965 73.6077 33.2718 72.9658 33.2718C72.3239 33.2718 71.6941 33.0965 71.1445 32.7647C70.5949 32.433 70.1464 31.9575 69.8473 31.3895C69.8083 31.3148 69.7495 31.2522 69.6774 31.2085C69.6054 31.1649 69.5227 31.1418 69.4384 31.1418C69.3542 31.1418 69.2715 31.1649 69.1994 31.2085C69.1273 31.2522 69.0686 31.3148 69.0296 31.3895C68.7305 31.9575 68.2819 32.433 67.7323 32.7647C67.1828 33.0965 66.553 33.2718 65.9111 33.2718C65.2691 33.2718 64.6394 33.0965 64.0898 32.7647C63.5402 32.433 63.0916 31.9575 62.7926 31.3895C62.7535 31.3148 62.6948 31.2522 62.6227 31.2085C62.5506 31.1649 62.468 31.1418 62.3837 31.1418C62.2994 31.1418 62.2168 31.1649 62.1447 31.2085C62.0726 31.2522 62.0139 31.3148 61.9748 31.3895C61.6757 31.9575 61.2272 32.433 60.6776 32.7647C60.128 33.0965 59.4983 33.2718 58.8563 33.2718C58.2144 33.2718 57.5846 33.0965 57.035 32.7647C56.4855 32.433 56.0369 31.9575 55.7378 31.3895C55.6965 31.3143 55.6351 31.2521 55.5606 31.2097C55.486 31.1673 55.4012 31.1464 55.3155 31.1493C55.2298 31.1521 55.1465 31.1787 55.075 31.226C55.0035 31.2733 54.9464 31.3394 54.9102 31.4172C54.5909 32.0056 54.1111 32.4912 53.5266 32.8175C52.9421 33.1439 52.2769 33.2975 51.6085 33.2606C50.6859 33.1794 49.8286 32.7505 49.2104 32.0607C48.5922 31.371 48.2593 30.4721 48.2792 29.5461V27.1592H85.1982" fill="#FF6242"/>
<path d="M85.1982 32.725C84.6771 32.3932 84.2497 31.9334 83.9568 31.3895C83.9178 31.3148 83.859 31.2522 83.7869 31.2085C83.7148 31.1649 83.6322 31.1418 83.5479 31.1418C83.4636 31.1418 83.381 31.1649 83.3089 31.2085C83.2368 31.2522 83.1781 31.3148 83.139 31.3895C82.84 31.9575 82.3914 32.433 81.8418 32.7647C81.2922 33.0965 80.6625 33.2718 80.0205 33.2718C79.3786 33.2718 78.7488 33.0965 78.1993 32.7647C77.6497 32.433 77.2011 31.9575 76.902 31.3895C76.863 31.3148 76.8043 31.2522 76.7322 31.2085C76.6601 31.1649 76.5774 31.1418 76.4932 31.1418C76.4089 31.1418 76.3262 31.1649 76.2542 31.2085C76.1821 31.2522 76.1233 31.3148 76.0843 31.3895C75.7852 31.9575 75.3367 32.433 74.7871 32.7647C74.2375 33.0965 73.6077 33.2718 72.9658 33.2718C72.3239 33.2718 71.6941 33.0965 71.1445 32.7647C70.5949 32.433 70.1464 31.9575 69.8473 31.3895C69.8083 31.3148 69.7495 31.2522 69.6774 31.2085C69.6054 31.1649 69.5227 31.1418 69.4384 31.1418C69.3542 31.1418 69.2715 31.1649 69.1994 31.2085C69.1273 31.2522 69.0686 31.3148 69.0296 31.3895C68.7305 31.9575 68.2819 32.433 67.7323 32.7647C67.1828 33.0965 66.553 33.2718 65.9111 33.2718C65.2691 33.2718 64.6394 33.0965 64.0898 32.7647C63.5402 32.433 63.0916 31.9575 62.7926 31.3895C62.7535 31.3148 62.6948 31.2522 62.6227 31.2085C62.5506 31.1649 62.468 31.1418 62.3837 31.1418C62.2994 31.1418 62.2168 31.1649 62.1447 31.2085C62.0726 31.2522 62.0139 31.3148 61.9748 31.3895C61.6757 31.9575 61.2272 32.433 60.6776 32.7647C60.128 33.0965 59.4983 33.2718 58.8563 33.2718C58.2144 33.2718 57.5846 33.0965 57.035 32.7647C56.4855 32.433 56.0369 31.9575 55.7378 31.3895C55.6965 31.3143 55.6351 31.2521 55.5606 31.2097C55.486 31.1673 55.4012 31.1464 55.3155 31.1493C55.2298 31.1521 55.1465 31.1787 55.075 31.226C55.0035 31.2733 54.9464 31.3394 54.9102 31.4172C54.5909 32.0056 54.1111 32.4912 53.5266 32.8175C52.9421 33.1439 52.2769 33.2975 51.6085 33.2606C50.6859 33.1794 49.8286 32.7505 49.2104 32.0607C48.5922 31.371 48.2593 30.4721 48.2792 29.5461V27.1592H85.1982" stroke="#45413C" stroke-linecap="round" stroke-linejoin="round"/>
<path d="M19.2036 54.0913V76.6811H24.8466L25.4406 61.6876C25.4348 61.4327 25.48 61.1792 25.5736 60.942C25.6671 60.7048 25.8071 60.4887 25.9853 60.3064C26.1635 60.124 26.3764 59.9792 26.6114 59.8802C26.8464 59.7813 27.0988 59.7304 27.3538 59.7304C27.6088 59.7304 27.8612 59.7813 28.0962 59.8802C28.3312 59.9792 28.544 60.124 28.7223 60.3064C28.9005 60.4887 29.0405 60.7048 29.134 60.942C29.2276 61.1792 29.2728 61.4327 29.267 61.6876L29.861 76.6811H35.5099V54.0913H19.2036Z" fill="#00B8F0"/>
<path d="M19.2036 54.0913V64.7338H21.7143C22.2927 64.7328 22.8531 64.5321 23.3007 64.1655C23.7482 63.7989 24.0555 63.2891 24.1704 62.7221C24.4674 61.2757 24.7031 59.7967 24.9169 58.3067C24.9592 58.0076 25.1083 57.7339 25.3367 57.5361C25.565 57.3383 25.8572 57.2298 26.1594 57.2306H28.5601C28.8621 57.2305 29.1539 57.3394 29.382 57.5373C29.6101 57.7351 29.7591 58.0087 29.8016 58.3077C30.0144 59.7927 30.255 61.2777 30.547 62.7221C30.6619 63.2899 30.9697 63.8005 31.418 64.1674C31.8664 64.5342 32.4279 64.7347 33.0072 64.7348H35.5178V54.0913H19.2036Z" fill="#009FD9"/>
<path d="M19.2036 54.0913V76.6811H24.8466L25.4406 61.6876C25.4348 61.4327 25.48 61.1792 25.5736 60.942C25.6671 60.7048 25.8071 60.4887 25.9853 60.3064C26.1635 60.124 26.3764 59.9792 26.6114 59.8802C26.8464 59.7813 27.0988 59.7304 27.3538 59.7304C27.6088 59.7304 27.8612 59.7813 28.0962 59.8802C28.3312 59.9792 28.544 60.124 28.7223 60.3064C28.9005 60.4887 29.0405 60.7048 29.134 60.942C29.2276 61.1792 29.2728 61.4327 29.267 61.6876L29.861 76.6811H35.5099V54.0913H19.2036Z" stroke="#45413C" stroke-linecap="round" stroke-linejoin="round"/>
<path opacity="0.15" d="M11.0425 77.9401C11.0425 78.4395 12.7616 78.9184 15.8217 79.2716C18.8817 79.6247 23.0321 79.8231 27.3597 79.8231C31.6872 79.8231 35.8376 79.6247 38.8976 79.2716C41.9577 78.9184 43.6768 78.4395 43.6768 77.9401C43.6768 77.4407 41.9577 76.9618 38.8976 76.6086C35.8376 76.2555 31.6872 76.0571 27.3597 76.0571C23.0321 76.0571 18.8817 76.2555 15.8217 76.6086C12.7616 76.9618 11.0425 77.4407 11.0425 77.9401Z" fill="#45413C"/>
<path d="M23.9865 77.3128C24.2066 77.3126 24.4228 77.2546 24.6134 77.1446C24.8041 77.0346 24.9625 76.8764 25.0727 76.6859C25.183 76.4955 25.2413 76.2793 25.2418 76.0592C25.2423 75.8391 25.1849 75.6228 25.0755 75.4318C24.7449 74.8593 24.2694 74.384 23.6967 74.0538C23.1241 73.7236 22.4745 73.5501 21.8134 73.5508H21.1838C20.5219 73.5492 19.8713 73.7223 19.2977 74.0525C18.7241 74.3828 18.2477 74.8586 17.9168 75.4318C17.8067 75.6227 17.7488 75.8392 17.749 76.0595C17.7492 76.2798 17.8074 76.4962 17.9178 76.6869C18.0282 76.8776 18.1869 77.0359 18.3779 77.1457C18.5689 77.2556 18.7854 77.3132 19.0058 77.3128H23.9865Z" fill="#947746" stroke="#45413C" stroke-linecap="round" stroke-linejoin="round"/>
<path d="M30.7316 77.3128C30.5114 77.3129 30.295 77.2551 30.1042 77.1452C29.9134 77.0352 29.7549 76.877 29.6445 76.6864C29.5342 76.4958 29.4759 76.2796 29.4756 76.0594C29.4753 75.8391 29.5329 75.6227 29.6426 75.4318C29.9736 74.8586 30.4499 74.3828 31.0235 74.0525C31.5971 73.7223 32.2477 73.5492 32.9096 73.5508H33.5373C34.1982 73.5503 34.8475 73.7238 35.42 74.054C35.9925 74.3842 36.4679 74.8594 36.7983 75.4318C36.9084 75.6227 36.9663 75.8392 36.9661 76.0595C36.9659 76.2798 36.9077 76.4962 36.7973 76.6869C36.6869 76.8776 36.5282 77.0359 36.3372 77.1457C36.1462 77.2556 35.9297 77.3132 35.7093 77.3128H30.7316Z" fill="#947746" stroke="#45413C" stroke-linecap="round" stroke-linejoin="round"/>
<path d="M35.5179 33.884C33.2445 31.9387 30.3509 30.8696 27.3588 30.8696C24.3667 30.8696 21.4731 31.9387 19.1997 33.884V54.0909H35.5179V33.884Z" fill="#FFE500" stroke="#45413C" stroke-linecap="round" stroke-linejoin="round"/>
<path d="M30.6817 31.3221C30.4709 31.2658 30.2846 31.1415 30.1517 30.9683C30.0189 30.7952 29.947 30.583 29.9472 30.3648V26.7622H24.7695V30.3668C24.7693 30.5846 24.6973 30.7962 24.5647 30.9689C24.432 31.1416 24.2462 31.2657 24.0359 31.3221C23.6404 31.4269 23.2508 31.5525 22.8687 31.6983C23.7943 33.4645 25.6773 35.2623 27.3593 35.2623C29.0413 35.2623 30.9233 33.4635 31.8489 31.6983C31.4668 31.5524 31.0772 31.4268 30.6817 31.3221Z" fill="#BF8256" stroke="#45413C" stroke-linecap="round" stroke-linejoin="round"/>
<path d="M14.8074 43.4217V48.8826C14.8016 49.3609 14.631 49.8226 14.3244 50.1899C14.0178 50.5571 13.5939 50.8073 13.1243 50.8984C12.6546 50.9895 12.168 50.9158 11.7463 50.6898C11.3247 50.4638 10.9939 50.0993 10.8097 49.6577C10.5454 49.1435 10.0889 48.7542 9.53941 48.5743C8.98989 48.3945 8.39161 48.4385 7.87434 48.6969C7.35707 48.9552 6.96252 49.4071 6.77627 49.9545C6.59002 50.5019 6.62709 51.1007 6.87944 51.6209C7.39746 52.7368 8.22447 53.6807 9.2625 54.341C10.3005 55.0013 11.5061 55.3501 12.7363 55.3463C13.575 55.3663 14.4092 55.219 15.1904 54.9131C15.9715 54.6072 16.6839 54.1488 17.286 53.5646C17.8881 52.9804 18.3678 52.2822 18.6971 51.5106C19.0264 50.739 19.1987 49.9096 19.204 49.0707V62.2496H20.682C20.9749 62.2498 21.2585 62.1474 21.4837 61.9602C21.7089 61.773 21.8613 61.5129 21.9146 61.2249C23.6401 52.006 23.9362 41.3655 23.5728 31.4526C21.0299 32.2581 18.8096 33.8523 17.2336 36.0043C15.6576 38.1564 14.8078 40.7543 14.8074 43.4217Z" fill="#87898C"/>
<path d="M23.5686 31.4526C21.0265 32.2588 18.807 33.8533 17.2317 36.0053C15.6565 38.1572 14.8073 40.7548 14.8071 43.4217V47.155C14.8144 44.4751 15.6787 41.8678 17.2738 39.7142C18.8689 37.5607 21.1111 35.9739 23.6726 35.1859C23.6488 33.9332 23.6142 32.6888 23.5686 31.4526Z" fill="#87898C"/>
<path d="M10.8107 49.6538C10.5464 49.1396 10.0899 48.7503 9.54039 48.5704C8.99087 48.3906 8.39259 48.4346 7.87532 48.693C7.35804 48.9513 6.96349 49.4032 6.77724 49.9506C6.591 50.498 6.62807 51.0968 6.88042 51.617C7.21725 52.2991 7.66073 52.923 8.19415 53.4653L11.7215 50.6874C11.3225 50.4404 11.0056 50.0807 10.8107 49.6538Z" fill="#BF8256" stroke="#45413C" stroke-linecap="round" stroke-linejoin="round"/>
<path d="M19.1997 40.9111V49.0707" stroke="#45413C" stroke-linecap="round" stroke-linejoin="round"/>
<path d="M14.8074 43.4217V48.8826C14.8016 49.3609 14.631 49.8226 14.3244 50.1899C14.0178 50.5571 13.5939 50.8073 13.1243 50.8984C12.6546 50.9895 12.168 50.9158 11.7463 50.6898C11.3247 50.4638 10.9939 50.0993 10.8097 49.6577C10.5454 49.1435 10.0889 48.7542 9.53941 48.5743C8.98989 48.3945 8.39161 48.4385 7.87434 48.6969C7.35707 48.9552 6.96252 49.4071 6.77627 49.9545C6.59002 50.5019 6.62709 51.1007 6.87944 51.6209C7.39746 52.7368 8.22447 53.6807 9.2625 54.341C10.3005 55.0013 11.5061 55.3501 12.7363 55.3463C13.575 55.3663 14.4092 55.219 15.1904 54.9131C15.9715 54.6072 16.6839 54.1488 17.286 53.5646C17.8881 52.9804 18.3678 52.2822 18.6971 51.5106C19.0264 50.739 19.1987 49.9096 19.204 49.0707V62.2496H20.682C20.9749 62.2498 21.2585 62.1474 21.4837 61.9602C21.7089 61.773 21.8613 61.5129 21.9146 61.2249C23.6401 52.006 23.9362 41.3655 23.5728 31.4526C21.0299 32.2581 18.8096 33.8523 17.2336 36.0043C15.6576 38.1564 14.8078 40.7543 14.8074 43.4217Z" stroke="#45413C" stroke-linecap="round" stroke-linejoin="round"/>
<path d="M39.9105 43.4217V48.8826C39.9163 49.3609 40.0869 49.8226 40.3935 50.1899C40.7001 50.5571 41.124 50.8073 41.5936 50.8984C42.0633 50.9895 42.5499 50.9158 42.9716 50.6898C43.3932 50.4638 43.724 50.0993 43.9082 49.6577C44.0371 49.3997 44.2155 49.1697 44.4333 48.9806C44.6512 48.7916 44.9041 48.6473 45.1777 48.556C45.4513 48.4647 45.7401 48.4282 46.0278 48.4486C46.3155 48.4689 46.5964 48.5458 46.8544 48.6747C47.1124 48.8036 47.3425 48.982 47.5315 49.1999C47.7206 49.4177 47.8648 49.6706 47.9561 49.9442C48.0474 50.2178 48.0839 50.5067 48.0636 50.7944C48.0432 51.082 47.9664 51.3629 47.8375 51.6209C47.3195 52.7368 46.4924 53.6807 45.4544 54.341C44.4164 55.0013 43.2108 55.3501 41.9806 55.3463C41.1424 55.3655 40.3087 55.2177 39.5282 54.9114C38.7477 54.6052 38.0359 54.1466 37.4344 53.5625C36.8329 52.9784 36.3537 52.2804 36.0246 51.5093C35.6956 50.7381 35.5233 49.9091 35.5179 49.0707V62.2496H34.0398C33.747 62.2498 33.4634 62.1474 33.2382 61.9602C33.013 61.773 32.8605 61.5129 32.8073 61.2249C31.0837 52.006 30.7867 41.3655 31.149 31.4526C33.6912 32.2588 35.9107 33.8533 37.4859 36.0053C39.0612 38.1572 39.9104 40.7548 39.9105 43.4217Z" fill="#87898C"/>
<path d="M31.1493 31.4526C33.6915 32.2588 35.911 33.8533 37.4862 36.0053C39.0615 38.1572 39.9107 40.7548 39.9108 43.4217V47.155C39.904 44.4752 39.0399 41.8678 37.4449 39.7142C35.85 37.5606 33.6078 35.9738 31.0464 35.1859C31.0715 33.9332 31.1058 32.6888 31.1493 31.4526Z" fill="#87898C"/>
<path d="M43.9083 49.6541C44.0372 49.3961 44.2157 49.166 44.4335 48.977C44.6513 48.7879 44.9043 48.6437 45.1778 48.5524C45.4514 48.4611 45.7403 48.4246 46.028 48.4449C46.3157 48.4653 46.5966 48.5421 46.8546 48.671C47.1126 48.7999 47.3426 48.9784 47.5317 49.1962C47.7207 49.414 47.865 49.667 47.9563 49.9405C48.0476 50.2141 48.0841 50.503 48.0637 50.7907C48.0434 51.0784 47.9665 51.3593 47.8376 51.6173C47.5021 52.3003 47.0599 52.9255 46.5279 53.4695L43.0005 50.6916C43.3987 50.4428 43.7145 50.0818 43.9083 49.6541Z" fill="#BF8256" stroke="#45413C" stroke-linecap="round" stroke-linejoin="round"/>
<path d="M35.5181 40.9111V49.0707" stroke="#45413C" stroke-linecap="round" stroke-linejoin="round"/>
<path d="M39.9105 43.4217V48.8826C39.9163 49.3609 40.0869 49.8226 40.3935 50.1899C40.7001 50.5571 41.124 50.8073 41.5936 50.8984C42.0633 50.9895 42.5499 50.9158 42.9716 50.6898C43.3932 50.4638 43.724 50.0993 43.9082 49.6577C44.0371 49.3997 44.2155 49.1697 44.4333 48.9806C44.6512 48.7916 44.9041 48.6473 45.1777 48.556C45.4513 48.4647 45.7401 48.4282 46.0278 48.4486C46.3155 48.4689 46.5964 48.5458 46.8544 48.6747C47.1124 48.8036 47.3425 48.982 47.5315 49.1999C47.7206 49.4177 47.8648 49.6706 47.9561 49.9442C48.0474 50.2178 48.0839 50.5067 48.0636 50.7944C48.0432 51.082 47.9664 51.3629 47.8375 51.6209C47.3195 52.7368 46.4924 53.6807 45.4544 54.341C44.4164 55.0013 43.2108 55.3501 41.9806 55.3463C41.1424 55.3655 40.3087 55.2177 39.5282 54.9114C38.7477 54.6052 38.0359 54.1466 37.4344 53.5625C36.8329 52.9784 36.3537 52.2804 36.0246 51.5093C35.6956 50.7381 35.5233 49.9091 35.5179 49.0707V62.2496H34.0398C33.747 62.2498 33.4634 62.1474 33.2382 61.9602C33.013 61.773 32.8605 61.5129 32.8073 61.2249C31.0837 52.006 30.7867 41.3655 31.149 31.4526C33.6912 32.2588 35.9107 33.8533 37.4859 36.0053C39.0612 38.1572 39.9104 40.7548 39.9105 43.4217Z" stroke="#45413C" stroke-linecap="round" stroke-linejoin="round"/>
<path d="M42.7868 68.4867C42.7624 68.6542 42.7044 68.8149 42.6162 68.9594C42.528 69.1038 42.4115 69.2289 42.2737 69.3272C42.1358 69.4254 41.9796 69.4947 41.8143 69.531C41.649 69.5672 41.478 69.5696 41.3117 69.5381L38.9496 69.0926C38.7834 69.0612 38.6252 68.9965 38.4846 68.9024C38.344 68.8084 38.2238 68.6869 38.1314 68.5452C38.0389 68.4035 37.976 68.2447 37.9465 68.0781C37.917 67.9115 37.9214 67.7407 37.9596 67.5759L40.8019 55.3385C40.875 55.023 41.0673 54.7479 41.3385 54.571C41.6098 54.394 41.939 54.3288 42.2572 54.3891L43.5907 54.6405C43.9091 54.7005 44.1919 54.8812 44.3801 55.1449C44.5683 55.4085 44.6473 55.7347 44.6005 56.0553L42.7868 68.4867Z" fill="#FF8A14" stroke="#45413C" stroke-linecap="round" stroke-linejoin="round"/>
<path d="M42.9243 55.8324L44.437 47.8154" stroke="#45413C" stroke-linecap="round" stroke-linejoin="round"/>
<path d="M50.3333 69.5379L52.6954 69.0924C52.8617 69.061 53.0198 68.9963 53.1605 68.9023C53.3011 68.8082 53.4212 68.6867 53.5137 68.545C53.6061 68.4034 53.669 68.2445 53.6985 68.0779C53.7281 67.9114 53.7236 67.7405 53.6854 67.5757L50.8441 55.3383C50.7708 55.0229 50.5785 54.7481 50.3073 54.5711C50.0361 54.3942 49.707 54.3289 49.3888 54.3889L48.0543 54.6404C47.7361 54.7003 47.4533 54.8811 47.2653 55.1448C47.0773 55.4085 46.9985 55.7347 47.0455 56.0551L48.8592 68.4865C48.8836 68.6539 48.9416 68.8146 49.0298 68.959C49.1179 69.1033 49.2343 69.2284 49.372 69.3266C49.5097 69.4248 49.6659 69.4942 49.8311 69.5305C49.9963 69.5668 50.1671 69.5693 50.3333 69.5379Z" fill="#F0D3A8" stroke="#45413C" stroke-linecap="round" stroke-linejoin="round"/>
<path d="M48.7217 55.8324L47.209 47.8154" stroke="#45413C" stroke-linecap="round" stroke-linejoin="round"/>
<path d="M48.2782 68.4738C48.2853 68.643 48.2581 68.8119 48.1981 68.9703C48.1382 69.1287 48.0469 69.2734 47.9296 69.3956C47.8123 69.5178 47.6715 69.6149 47.5157 69.6813C47.3599 69.7476 47.1922 69.7817 47.0229 69.7816H44.6211C44.4519 69.7816 44.2843 69.7474 44.1286 69.681C43.9729 69.6146 43.8322 69.5174 43.7151 69.3952C43.5979 69.273 43.5066 69.1284 43.4468 68.9701C43.3869 68.8118 43.3597 68.6429 43.3668 68.4738L43.8895 55.9216C43.9031 55.5984 44.0409 55.2928 44.2742 55.0687C44.5075 54.8446 44.8184 54.7192 45.1419 54.7188H46.4992C46.823 54.7187 47.1344 54.8439 47.3681 55.068C47.6019 55.2922 47.74 55.598 47.7535 55.9216L48.2782 68.4738Z" fill="#00DBA8" stroke="#45413C" stroke-linecap="round" stroke-linejoin="round"/>
<path d="M45.8228 56.0365V47.8779" stroke="#45413C" stroke-linecap="round" stroke-linejoin="round"/>
<path d="M13.4065 69.5379L15.7687 69.0924C15.9349 69.061 16.0931 68.9963 16.2337 68.9023C16.3743 68.8082 16.4945 68.6867 16.5869 68.545C16.6794 68.4034 16.7423 68.2445 16.7718 68.0779C16.8013 67.9114 16.7968 67.7405 16.7587 67.5757L13.9174 55.3383C13.8441 55.0229 13.6517 54.7481 13.3806 54.5711C13.1094 54.3942 12.7803 54.3289 12.4621 54.3889L11.1276 54.6404C10.8093 54.7003 10.5266 54.8811 10.3385 55.1448C10.1505 55.4085 10.0717 55.7347 10.1188 56.0551L11.9324 68.4865C11.9569 68.6539 12.0149 68.8146 12.103 68.959C12.1911 69.1033 12.3076 69.2284 12.4453 69.3266C12.583 69.4248 12.7391 69.4942 12.9043 69.5305C13.0695 69.5668 13.2403 69.5693 13.4065 69.5379Z" fill="#FF6242" stroke="#45413C" stroke-linecap="round" stroke-linejoin="round"/>
<path d="M11.7945 55.8324L10.2817 47.8154" stroke="#45413C" stroke-linecap="round" stroke-linejoin="round"/>
<path d="M4.38449 69.5379L2.02235 69.0924C1.85612 69.061 1.69795 68.9963 1.55735 68.9023C1.41674 68.8082 1.29659 68.6867 1.20412 68.545C1.11166 68.4034 1.04877 68.2445 1.01926 68.0779C0.989739 67.9114 0.994195 67.7405 1.03235 67.5757L3.87464 55.3383C3.94795 55.0229 4.14029 54.7481 4.41148 54.5711C4.68268 54.3942 5.01175 54.3289 5.32994 54.3889L6.66347 54.6404C6.9818 54.7004 7.26463 54.8811 7.45282 55.1447C7.64101 55.4084 7.72 55.7346 7.67327 56.0551L5.85959 68.4865C5.83518 68.654 5.77713 68.8148 5.68893 68.9592C5.60074 69.1037 5.48423 69.2288 5.34641 69.327C5.2086 69.4252 5.05233 69.4946 4.88701 69.5308C4.7217 69.567 4.55077 69.5695 4.38449 69.5379Z" fill="white" stroke="#45413C" stroke-linecap="round" stroke-linejoin="round"/>
<path d="M5.99707 55.8324L7.50979 47.8154" stroke="#45413C" stroke-linecap="round" stroke-linejoin="round"/>
<path d="M7.6939 69.7816H10.0956C10.2648 69.7815 10.4323 69.7472 10.5879 69.6807C10.7435 69.6142 10.884 69.517 11.0011 69.3949C11.1181 69.2727 11.2093 69.1282 11.2691 68.9699C11.3289 68.8116 11.3561 68.6429 11.349 68.4738L10.8282 55.9216C10.8147 55.598 10.6766 55.2922 10.4429 55.068C10.2091 54.8439 9.89778 54.7187 9.57391 54.7188H8.21464C7.89078 54.7187 7.57943 54.8439 7.34568 55.068C7.11193 55.2922 6.97385 55.598 6.96031 55.9216L6.43957 68.4738C6.4325 68.6429 6.4597 68.8118 6.51955 68.9701C6.5794 69.1284 6.67065 69.273 6.78783 69.3952C6.905 69.5174 7.04567 69.6146 7.20138 69.681C7.3571 69.7474 7.52463 69.7816 7.6939 69.7816Z" fill="#00DBA8" stroke="#45413C" stroke-linecap="round" stroke-linejoin="round"/>
<path d="M8.896 56.0365V47.8779" stroke="#45413C" stroke-linecap="round" stroke-linejoin="round"/>
<path d="M36.1456 22.3488C36.1421 21.9917 36.0152 21.6469 35.7864 21.3728C35.5576 21.0987 35.2409 20.9122 34.8902 20.845V19.8381C34.8675 17.8556 34.064 15.9621 32.6541 14.5682C31.2441 13.1743 29.3414 12.3926 27.3588 12.3926C25.3762 12.3926 23.4735 13.1743 22.0636 14.5682C20.6536 15.9621 19.8501 17.8556 19.8274 19.8381V20.845C19.4616 20.9138 19.1332 21.113 18.9032 21.4055C18.6731 21.6981 18.557 22.0642 18.5763 22.4358C18.5956 22.8075 18.7492 23.1596 19.0084 23.4267C19.2676 23.6938 19.6148 23.8578 19.9858 23.8882C20.337 25.5847 21.2624 27.1082 22.6058 28.2021C23.9493 29.2959 25.6288 29.8931 27.3613 29.8931C29.0937 29.8931 30.7732 29.2959 32.1167 28.2021C33.4602 27.1082 34.3855 25.5847 34.7368 23.8882C35.1208 23.8524 35.4778 23.6749 35.7382 23.3903C35.9986 23.1058 36.1438 22.7345 36.1456 22.3488Z" fill="#BF8256" stroke="#45413C" stroke-linecap="round" stroke-linejoin="round"/>
<path d="M22.3384 23.2901C22.3384 23.5398 22.4376 23.7793 22.6141 23.9559C22.7907 24.1324 23.0302 24.2316 23.2799 24.2316C23.5296 24.2316 23.769 24.1324 23.9456 23.9559C24.1222 23.7793 24.2214 23.5398 24.2214 23.2901C24.2214 23.0404 24.1222 22.801 23.9456 22.6244C23.769 22.4478 23.5296 22.3486 23.2799 22.3486C23.0302 22.3486 22.7907 22.4478 22.6141 22.6244C22.4376 22.801 22.3384 23.0404 22.3384 23.2901Z" fill="#BF8256"/>
<path d="M30.4966 23.2901C30.4966 23.4138 30.5209 23.5362 30.5682 23.6504C30.6156 23.7646 30.6849 23.8684 30.7723 23.9559C30.8598 24.0433 30.9636 24.1126 31.0778 24.1599C31.192 24.2073 31.3144 24.2316 31.4381 24.2316C31.5617 24.2316 31.6841 24.2073 31.7984 24.1599C31.9126 24.1126 32.0164 24.0433 32.1038 23.9559C32.1912 23.8684 32.2606 23.7646 32.3079 23.6504C32.3552 23.5362 32.3796 23.4138 32.3796 23.2901C32.3796 23.0404 32.2804 22.801 32.1038 22.6244C31.9272 22.4478 31.6878 22.3486 31.4381 22.3486C31.1884 22.3486 30.9489 22.4478 30.7723 22.6244C30.5958 22.801 30.4966 23.0404 30.4966 23.2901Z" fill="#BF8256"/>
<path d="M29.2425 25.4873C28.6996 25.8938 28.0397 26.1135 27.3615 26.1135C26.6833 26.1135 26.0233 25.8938 25.4805 25.4873" stroke="#45413C" stroke-linecap="round" stroke-linejoin="round"/>
<path d="M24.5352 19.8906C24.349 19.8906 24.167 19.9458 24.0122 20.0493C23.8573 20.1527 23.7367 20.2998 23.6654 20.4718C23.5942 20.6439 23.5755 20.8332 23.6118 21.0158C23.6482 21.1984 23.7378 21.3662 23.8695 21.4978C24.0012 21.6295 24.1689 21.7192 24.3516 21.7555C24.5342 21.7918 24.7235 21.7732 24.8955 21.7019C25.0676 21.6307 25.2146 21.51 25.3181 21.3552C25.4215 21.2004 25.4767 21.0183 25.4767 20.8321C25.4767 20.7085 25.4524 20.586 25.4051 20.4718C25.3577 20.3576 25.2884 20.2538 25.201 20.1664C25.1135 20.079 25.0098 20.0096 24.8955 19.9623C24.7813 19.915 24.6589 19.8906 24.5352 19.8906Z" fill="#45413C"/>
<path d="M30.1832 19.8906C29.997 19.8906 29.815 19.9458 29.6601 20.0493C29.5053 20.1527 29.3846 20.2998 29.3134 20.4718C29.2421 20.6439 29.2235 20.8332 29.2598 21.0158C29.2961 21.1984 29.3858 21.3662 29.5175 21.4978C29.6491 21.6295 29.8169 21.7192 29.9995 21.7555C30.1821 21.7918 30.3714 21.7732 30.5435 21.7019C30.7155 21.6307 30.8626 21.51 30.966 21.3552C31.0695 21.2004 31.1247 21.0183 31.1247 20.8321C31.1248 20.7084 31.1005 20.586 31.0533 20.4717C31.006 20.3574 30.9367 20.2535 30.8492 20.1661C30.7618 20.0786 30.6579 20.0093 30.5436 19.962C30.4294 19.9148 30.3069 19.8905 30.1832 19.8906Z" fill="#45413C"/>
<path d="M27.1157 9.54696C24.9238 9.67233 22.8651 10.6396 21.3694 12.2467C19.8737 13.8538 19.0566 15.9766 19.0888 18.1718V19.5578C19.0884 19.661 19.1134 19.7627 19.1617 19.8539C19.21 19.945 19.2801 20.0229 19.3657 20.0804C19.4513 20.138 19.5498 20.1736 19.6524 20.184C19.755 20.1944 19.8587 20.1792 19.9541 20.14C21.1678 19.645 23.23 18.4857 23.23 16.2928C26.2277 19.2014 31.1975 19.0341 34.6546 18.1105C34.9512 18.0312 35.209 17.8471 35.3801 17.5922C35.5512 17.3373 35.6241 17.029 35.5852 16.7245C35.3118 14.6922 34.2945 12.8334 32.7301 11.5077C31.1657 10.1819 29.1653 9.48333 27.1157 9.54696Z" fill="#614B44"/>
<path d="M27.1158 12.6655C28.8217 12.6129 30.5022 13.0889 31.9272 14.0281C33.3522 14.9674 34.4521 16.3241 35.0764 17.9125C35.2601 17.7784 35.4043 17.5974 35.4938 17.3883C35.5833 17.1793 35.6149 16.95 35.5852 16.7245C35.313 14.6913 34.2962 12.8314 32.7317 11.5046C31.1672 10.1779 29.1662 9.47857 27.1158 9.54206C24.9231 9.66745 22.8636 10.6354 21.3678 12.2436C19.8719 13.8518 19.0554 15.9758 19.0889 18.1719V19.5579C19.0883 19.6859 19.1285 19.8107 19.2037 19.9143C19.4769 17.9758 20.4156 16.1926 21.859 14.8701C23.3025 13.5477 25.1608 12.7683 27.1158 12.6655Z" fill="#A86C4D"/>
<path d="M27.1157 9.54696C24.9238 9.67233 22.8651 10.6396 21.3694 12.2467C19.8737 13.8538 19.0566 15.9766 19.0888 18.1718V19.5578C19.0884 19.661 19.1134 19.7627 19.1617 19.8539C19.21 19.945 19.2801 20.0229 19.3657 20.0804C19.4513 20.138 19.5498 20.1736 19.6524 20.184C19.755 20.1944 19.8587 20.1792 19.9541 20.14C21.1678 19.645 23.23 18.4857 23.23 16.2928C26.2277 19.2014 31.1975 19.0341 34.6546 18.1105C34.9512 18.0312 35.209 17.8471 35.3801 17.5922C35.5512 17.3373 35.6241 17.029 35.5852 16.7245C35.3118 14.6922 34.2945 12.8334 32.7301 11.5077C31.1657 10.1819 29.1653 9.48333 27.1157 9.54696Z" stroke="#45413C" stroke-linecap="round" stroke-linejoin="round"/>
<path d="M22.438 15.2495C22.6166 15.6568 22.8878 16.0168 23.23 16.3009" stroke="#45413C" stroke-linecap="round" stroke-linejoin="round"/>
</svg>
