<svg xmlns="http://www.w3.org/2000/svg" version="1.1" xmlns:xlink="http://www.w3.org/1999/xlink" xmlns:svgjs="http://svgjs.com/svgjs" viewBox="0 0 160 160" width="160" height="160"><g transform="matrix(1.6,0,0,1.6,0,0)"><path d="M10.000 50.000 A40.000 40.000 0 1 0 90.000 50.000 A40.000 40.000 0 1 0 10.000 50.000 Z" fill="#c7f0ff" stroke="#c7f0ff" stroke-miterlimit="10"></path><path d="M36.770 73.986 A13.23 1.654 0 1 0 63.230 73.986 A13.23 1.654 0 1 0 36.770 73.986 Z" fill="#45413c" opacity=".15"></path><path d="M65.394,61.553l-8.769.009a13.84,13.84,0,0,1-.034-27.679l8.769-.009a13.84,13.84,0,0,1,.034,27.679ZM56.6,40.034a7.689,7.689,0,0,0,.019,15.377l8.768-.009a7.689,7.689,0,0,0-.018-15.377Z" fill="#ffffff"></path><path d="M76.919,55.326a13.727,13.727,0,0,1-9.99,4.3l-8.768.009a13.771,13.771,0,0,1-5.637-1.194,13.854,13.854,0,0,1-2.407,1.5,13.75,13.75,0,0,0,6.508,1.619l8.769-.009a13.84,13.84,0,0,0,11.532-6.222" fill="#c7f0ff"></path><path d="M66.9,38.1l-8.769.009a7.682,7.682,0,0,0-6.684,3.914,7.675,7.675,0,0,1,5.149-1.99l8.769-.009A7.689,7.689,0,0,1,72.1,51.442a7.6,7.6,0,0,0,2.5-5.662A7.691,7.691,0,0,0,66.9,38.1Z" fill="#adc4d9"></path><path d="M66.9,38.1l-8.769.009a7.682,7.682,0,0,0-6.684,3.914,7.675,7.675,0,0,1,5.149-1.99l8.769-.009A7.689,7.689,0,0,1,72.1,51.442a7.6,7.6,0,0,0,2.5-5.662A7.691,7.691,0,0,0,66.9,38.1Z" fill="#c7f0ff"></path><path d="M65.394,61.553l-8.769.009a13.84,13.84,0,0,1-.034-27.679l8.769-.009a13.84,13.84,0,0,1,.034,27.679ZM56.6,40.034a7.689,7.689,0,0,0,.019,15.377l8.768-.009a7.689,7.689,0,0,0-.018-15.377Z" fill="none" stroke="#45413c" stroke-miterlimit="10"></path><path d="M44.081,61.338l-9.441.01a13.84,13.84,0,0,1-.034-27.679l9.441-.009a13.839,13.839,0,0,1,.034,27.678ZM34.614,39.82A7.689,7.689,0,0,0,34.632,55.2l9.441-.01a7.689,7.689,0,1,0-.019-15.377Z" fill="#ffffff"></path><path d="M24.64,37.933a13.833,13.833,0,0,0,10,23.415l9.441-.01A13.837,13.837,0,0,0,55.64,55.075a13.727,13.727,0,0,1-10.024,4.339l-9.441.01A13.86,13.86,0,0,1,22.319,45.6a13.683,13.683,0,0,1,2.322-7.666" fill="#c7f0ff"></path><path d="M45.59,37.886l-9.441.01a7.679,7.679,0,0,0-6.684,3.914,7.67,7.67,0,0,1,5.149-1.99l9.44-.01a7.689,7.689,0,0,1,6.734,11.417,7.6,7.6,0,0,0,2.5-5.662A7.691,7.691,0,0,0,45.59,37.886Z" fill="#c7f0ff"></path><path d="M44.081,61.338l-9.441.01a13.84,13.84,0,0,1-.034-27.679l9.441-.009a13.839,13.839,0,0,1,.034,27.678ZM34.614,39.82A7.689,7.689,0,0,0,34.632,55.2l9.441-.01a7.689,7.689,0,1,0-.019-15.377Z" fill="none" stroke="#45413c" stroke-miterlimit="10"></path><path d="M56.6,40.034A7.685,7.685,0,0,0,50.257,52.05a7.694,7.694,0,0,1-5.329,3.089A13.835,13.835,0,0,1,56.591,33.883Z" fill="#ffffff"></path><path d="M46.6,38.186a13.786,13.786,0,0,0,.749,16.263,7.636,7.636,0,0,1-2.423.69A13.817,13.817,0,0,1,46.6,38.179" fill="#c7f0ff"></path><path d="M58.134,38.11a7.682,7.682,0,0,0-6.684,3.914,7.675,7.675,0,0,1,5.149-1.99" fill="#c7f0ff"></path><path d="M57.9,40.034H56.6A7.685,7.685,0,0,0,50.257,52.05a7.694,7.694,0,0,1-5.329,3.089A13.835,13.835,0,0,1,56.591,33.883" fill="none" stroke="#45413c" stroke-miterlimit="10"></path></g></svg>