<svg width="160" height="160" viewBox="0 0 160 160" fill="none" xmlns="http://www.w3.org/2000/svg">
<path d="M144.001 79.8021C144.002 70.2503 141.865 60.8194 137.747 52.201C133.629 43.5826 127.634 35.9953 120.202 29.9955C112.77 23.9957 104.089 19.7355 94.7957 17.5275C85.5027 15.3194 75.8332 15.2194 66.4966 17.2349C57.1599 19.2504 48.3927 23.3302 40.8381 29.1751C33.2834 35.02 27.1328 42.4818 22.8374 51.0132C18.542 59.5447 16.2107 68.9294 16.0145 78.4791C15.8183 88.0288 17.7621 97.5014 21.7034 106.202H138.299C142.063 97.9103 144.008 88.9083 144.001 79.8021V79.8021Z" fill="#FCDEEE"/>
<path d="M21.7026 106.202C26.779 117.408 34.9776 126.914 45.3168 133.581C55.6561 140.248 67.6978 143.794 80.0002 143.794C92.3027 143.794 104.344 140.248 114.684 133.581C125.023 126.914 133.222 117.408 138.298 106.202H21.7026Z" fill="#DBCDF7"/>
<path d="M17.6006 106.202H142.401" stroke="#45413C" stroke-width="1.5" stroke-linecap="round" stroke-linejoin="round"/>
<path d="M10.4004 106.202H14.4004" stroke="#45413C" stroke-width="1.5" stroke-linecap="round" stroke-linejoin="round"/>
<path d="M145.601 106.202H149.601" stroke="#45413C" stroke-width="1.5" stroke-linecap="round" stroke-linejoin="round"/>
<path d="M33.5509 99.903H72.8501C76.7739 96.01 79.453 91.0393 80.5474 85.6214C81.6418 80.2035 81.1022 74.5826 78.997 69.4718C76.8919 64.3611 73.3161 59.9908 68.7234 56.9154C64.1306 53.8401 58.7278 52.1982 53.2005 52.1982C47.6732 52.1982 42.2704 53.8401 37.6776 56.9154C33.0848 59.9908 29.5091 64.3611 27.4039 69.4718C25.2988 74.5826 24.7592 80.2035 25.8536 85.6214C26.948 91.0393 29.6271 96.01 33.5509 99.903V99.903Z" fill="#DABFF5"/>
<path d="M53.2006 52.2017C47.6734 52.2009 42.2705 53.8421 37.6776 56.917C33.0847 59.9919 29.5087 64.3619 27.4035 69.4725C25.2983 74.5831 24.7587 80.2039 25.8532 85.6216C26.9477 91.0394 29.627 96.0099 33.551 99.9025H38.8918C34.7217 96.8794 31.6161 92.6133 30.0206 87.7161C28.4251 82.8189 28.4216 77.5421 30.0106 72.6428C31.5996 67.7435 34.6995 63.4732 38.8656 60.4447C43.0318 57.4161 48.05 55.7849 53.2006 55.7849C58.3512 55.7849 63.3695 57.4161 67.5356 60.4447C71.7017 63.4732 74.8016 67.7435 76.3906 72.6428C77.9796 77.5421 77.9761 82.8189 76.3806 87.7161C74.7851 92.6133 71.6795 96.8794 67.5094 99.9025H72.8502C76.7743 96.0099 79.4535 91.0394 80.548 85.6216C81.6425 80.2039 81.1029 74.5831 78.9977 69.4725C76.8925 64.3619 73.3165 59.9919 68.7236 56.917C64.1307 53.8421 58.7278 52.2009 53.2006 52.2017V52.2017Z" fill="#BF8DF2"/>
<path d="M33.5509 99.903H72.8501C76.7739 96.01 79.453 91.0393 80.5474 85.6214C81.6418 80.2035 81.1022 74.5826 78.997 69.4718C76.8919 64.3611 73.3161 59.9908 68.7234 56.9154C64.1306 53.8401 58.7278 52.1982 53.2005 52.1982C47.6732 52.1982 42.2704 53.8401 37.6776 56.9154C33.0848 59.9908 29.5091 64.3611 27.4039 69.4718C25.2988 74.5826 24.7592 80.2035 25.8536 85.6214C26.948 91.0393 29.6271 96.01 33.5509 99.903V99.903Z" stroke="#45413C" stroke-width="1.5" stroke-linecap="round" stroke-linejoin="round"/>
<path d="M47.1639 99.9028H59.2375C63.9828 98.456 68.0507 95.353 70.7003 91.1589C73.3499 86.9648 74.4051 81.9585 73.6737 77.0517C72.9423 72.145 70.4729 67.6641 66.7153 64.4251C62.9577 61.186 58.1617 59.4043 53.2007 59.4043C48.2397 59.4043 43.4438 61.186 39.6861 64.4251C35.9285 67.6641 33.4591 72.145 32.7277 77.0517C31.9963 81.9585 33.0515 86.9648 35.7011 91.1589C38.3508 95.353 42.4186 98.456 47.1639 99.9028V99.9028Z" fill="#FFF48C"/>
<path d="M53.2007 64.5544C58.2426 64.5568 63.1101 66.3999 66.8891 69.7376C70.6681 73.0753 73.0985 77.6778 73.7239 82.6808C74.1072 79.7601 73.8627 76.7913 73.0067 73.9727C72.1508 71.154 70.7031 68.5506 68.7604 66.3362C66.8177 64.1219 64.4248 62.3477 61.7415 61.1323C59.0582 59.9168 56.1464 59.2881 53.2007 59.2881C50.2549 59.2881 47.3431 59.9168 44.6599 61.1323C41.9766 62.3477 39.5836 64.1219 37.6409 66.3362C35.6982 68.5506 34.2505 71.154 33.3946 73.9727C32.5386 76.7913 32.2941 79.7601 32.6775 82.6808C33.3028 77.6778 35.7332 73.0753 39.5122 69.7376C43.2912 66.3999 48.1588 64.5568 53.2007 64.5544V64.5544Z" fill="#FFCC99"/>
<path d="M47.1639 99.9028H59.2375C63.9828 98.456 68.0507 95.353 70.7003 91.1589C73.3499 86.9648 74.4051 81.9585 73.6737 77.0517C72.9423 72.145 70.4729 67.6641 66.7153 64.4251C62.9577 61.186 58.1617 59.4043 53.2007 59.4043C48.2397 59.4043 43.4438 61.186 39.6861 64.4251C35.9285 67.6641 33.4591 72.145 32.7277 77.0517C31.9963 81.9585 33.0515 86.9648 35.7011 91.1589C38.3508 95.353 42.4186 98.456 47.1639 99.9028V99.9028Z" stroke="#45413C" stroke-width="1.5" stroke-linecap="round" stroke-linejoin="round"/>
<path d="M49.3784 52.4945L53.2008 58.5025L57.0248 52.4945C54.491 52.1041 51.9123 52.1041 49.3784 52.4945V52.4945Z" fill="#FF8A14" stroke="#45413C" stroke-width="1.5" stroke-linecap="round" stroke-linejoin="round"/>
<path d="M70.0176 57.8774L68.48 64.8294L75.432 63.2838C73.9156 61.2165 72.0918 59.3933 70.024 57.8774H70.0176Z" fill="#FF8A14" stroke="#45413C" stroke-width="1.5" stroke-linecap="round" stroke-linejoin="round"/>
<path d="M80.8078 76.2788L74.7998 80.1028L80.8078 83.9252C81.1982 81.3914 81.1982 78.8127 80.8078 76.2788V76.2788Z" fill="#FF8A14" stroke="#45413C" stroke-width="1.5" stroke-linecap="round" stroke-linejoin="round"/>
<path d="M72.8496 99.9034C72.8752 99.8778 72.9024 99.857 72.928 99.8314C73.826 98.9194 74.6605 97.947 75.4256 96.921L68.48 95.377L69.4848 99.9034H72.8496Z" fill="#FF8A14" stroke="#45413C" stroke-width="1.5" stroke-linecap="round" stroke-linejoin="round"/>
<path d="M36.3831 57.8774L37.9271 64.8294L30.9751 63.2838C32.4915 61.2165 34.3153 59.3933 36.3831 57.8774V57.8774Z" fill="#FF8A14" stroke="#45413C" stroke-width="1.5" stroke-linecap="round" stroke-linejoin="round"/>
<path d="M25.6003 76.2788L31.6083 80.1028L25.6003 83.9252C25.212 81.3912 25.212 78.8128 25.6003 76.2788V76.2788Z" fill="#FF8A14" stroke="#45413C" stroke-width="1.5" stroke-linecap="round" stroke-linejoin="round"/>
<path d="M33.5491 99.9034H36.9219L37.9203 95.377L30.9683 96.921C31.7334 97.947 32.5679 98.9194 33.4659 99.8314C33.4979 99.857 33.5251 99.8778 33.5491 99.9034Z" fill="#FF8A14" stroke="#45413C" stroke-width="1.5" stroke-linecap="round" stroke-linejoin="round"/>
<path d="M40.6006 80.1029C40.6006 83.4447 41.9281 86.6495 44.291 89.0125C46.654 91.3754 49.8589 92.7029 53.2006 92.7029C56.5423 92.7029 59.7472 91.3754 62.1101 89.0125C64.4731 86.6495 65.8006 83.4447 65.8006 80.1029C65.8006 76.7612 64.4731 73.5563 62.1101 71.1934C59.7472 68.8304 56.5423 67.5029 53.2006 67.5029C49.8589 67.5029 46.654 68.8304 44.291 71.1934C41.9281 73.5563 40.6006 76.7612 40.6006 80.1029V80.1029Z" stroke="#45413C" stroke-width="1.5" stroke-linecap="round" stroke-linejoin="round"/>
<path d="M85.6008 106.203H20.8008L23.4056 101.892C23.7048 101.294 24.1646 100.791 24.7335 100.44C25.3024 100.089 25.9578 99.903 26.6264 99.9033H79.7752C80.4438 99.903 81.0992 100.089 81.6681 100.44C82.2369 100.791 82.6968 101.294 82.996 101.892L85.6008 106.203Z" fill="#FFE500"/>
<path d="M83.4246 102.603L82.9958 101.892C82.6965 101.294 82.2367 100.791 81.6679 100.44C81.099 100.089 80.4435 99.903 79.775 99.9033H26.6262C25.9576 99.903 25.3021 100.089 24.7333 100.44C24.1644 100.791 23.7046 101.294 23.4054 101.892L22.9766 102.603H83.4246Z" fill="#FFF48C"/>
<path d="M85.6008 106.203H20.8008L23.4056 101.892C23.7048 101.294 24.1646 100.791 24.7335 100.44C25.3024 100.089 25.9578 99.903 26.6264 99.9033H79.7752C80.4438 99.903 81.0992 100.089 81.6681 100.44C82.2369 100.791 82.6968 101.294 82.996 101.892L85.6008 106.203Z" stroke="#45413C" stroke-width="1.5" stroke-linecap="round" stroke-linejoin="round"/>
<path d="M76.8003 102.15C76.8003 88.5848 87.3731 76.9672 100.933 76.612C104.237 76.5231 107.526 77.0956 110.606 78.2959C113.686 79.4962 116.495 81.3001 118.867 83.6015C121.24 85.903 123.129 88.6555 124.422 91.6973C125.716 94.7392 126.388 98.0089 126.4 101.314C126.389 102.163 126.715 102.982 127.306 103.59C127.898 104.198 128.708 104.547 129.556 104.558C130.405 104.57 131.224 104.244 131.832 103.652C132.44 103.06 132.789 102.251 132.8 101.402V93.4024H142.4V100.961C142.443 104.264 141.235 107.461 139.019 109.912C136.803 112.362 133.742 113.884 130.451 114.172C128.703 114.289 126.949 114.045 125.299 113.456C123.648 112.867 122.136 111.945 120.856 110.748C119.576 109.551 118.556 108.104 117.858 106.496C117.161 104.889 116.801 103.155 116.8 101.402V112.282C116.61 118.859 117.84 125.399 120.407 131.457C122.076 135.496 122.893 139.836 122.807 144.206H82.4003C82.306 139.478 82.9044 134.763 84.1763 130.209H76.8003V102.15Z" fill="#FF6242"/>
<path d="M100.039 83.277C105.739 83.1267 111.344 84.7624 116.068 87.9553C120.793 91.1482 124.401 95.7383 126.388 101.083C126.346 97.7978 125.653 94.5532 124.347 91.5381C123.041 88.5229 121.149 85.7973 118.78 83.5197C116.412 81.242 113.615 79.4577 110.551 78.2704C107.487 77.0831 104.218 76.5165 100.933 76.6034C95.2536 76.8401 89.8226 78.9975 85.5287 82.7225C81.2348 86.4476 78.3324 91.5197 77.2964 97.109C79.5815 93.0456 82.874 89.6386 86.857 87.2161C90.8401 84.7936 95.3796 83.4371 100.039 83.277V83.277Z" fill="#FF866E"/>
<path d="M82.4003 144.199C82.306 139.472 82.9044 134.756 84.1763 130.202H76.8003V102.15C76.8003 88.5848 87.3731 76.9672 100.933 76.612C104.237 76.5231 107.526 77.0956 110.606 78.2959C113.686 79.4962 116.495 81.3001 118.867 83.6015C121.24 85.903 123.129 88.6555 124.422 91.6973C125.716 94.7392 126.388 98.0089 126.4 101.314C126.389 102.163 126.715 102.982 127.306 103.59C127.898 104.198 128.708 104.547 129.556 104.558C130.405 104.57 131.224 104.244 131.832 103.652C132.44 103.06 132.789 102.251 132.8 101.402V93.4024H142.4V100.961C142.443 104.264 141.235 107.461 139.019 109.912C136.803 112.362 133.742 113.884 130.451 114.172C128.703 114.289 126.949 114.045 125.299 113.456C123.648 112.867 122.136 111.945 120.856 110.748C119.576 109.551 118.556 108.104 117.858 106.496C117.161 104.889 116.801 103.155 116.8 101.402V112.282C116.61 118.859 117.84 125.399 120.407 131.457C122.076 135.496 122.893 139.836 122.807 144.206" stroke="#45413C" stroke-width="1.5" stroke-linecap="round" stroke-linejoin="round"/>
<path d="M86.3999 99.002V130.202" stroke="#45413C" stroke-width="1.5" stroke-linecap="round" stroke-linejoin="round"/>
<path d="M84.8006 41.4025C85.1387 41.4023 85.468 41.2951 85.7413 41.0962C86.0147 40.8973 86.218 40.6169 86.3221 40.2953C86.4263 39.9737 86.4258 39.6273 86.3209 39.306C86.216 38.9846 86.012 38.7047 85.7382 38.5065V38.5065C84.6617 37.7135 83.9199 36.5473 83.6582 35.2361C83.6613 34.6432 83.7943 34.0582 84.0478 33.5222C84.3013 32.9862 84.6691 32.5123 85.1254 32.1337C85.2782 31.9861 85.4001 31.8095 85.484 31.6143C85.5678 31.4191 85.612 31.2092 85.6138 30.9967C85.6157 30.7843 85.5752 30.5736 85.4947 30.3769C85.4143 30.1803 85.2955 30.0017 85.1452 29.8514C84.995 29.7012 84.8164 29.5824 84.6197 29.502C84.4231 29.4215 84.2124 29.381 84 29.3829C83.7875 29.3847 83.5776 29.4289 83.3824 29.5127C83.1871 29.5966 83.0106 29.7185 82.863 29.8713C82.0666 30.5732 81.4387 31.4457 81.0262 32.4238C80.6137 33.402 80.4272 34.4606 80.4806 35.5209C80.8253 37.7634 82.0458 39.7775 83.8742 41.1209C84.1462 41.3088 84.47 41.4073 84.8006 41.4025V41.4025Z" fill="#4ACFFF" stroke="#45413C" stroke-width="1.5" stroke-linecap="round" stroke-linejoin="round"/>
<path d="M86.4001 32.6021C86.8245 32.6021 87.2314 32.4336 87.5315 32.1335C87.8315 31.8335 88.0001 31.4265 88.0001 31.0021C88.0001 30.5778 87.8315 30.1708 87.5315 29.8708C87.2314 29.5707 86.8245 29.4021 86.4001 29.4021C85.9758 29.4021 85.5688 29.2336 85.2687 28.9335C84.9687 28.6335 84.8001 28.2265 84.8001 27.8021C84.8001 27.3778 84.6315 26.9708 84.3315 26.6708C84.0314 26.3707 83.6244 26.2021 83.2001 26.2021C82.7758 26.2021 82.3688 26.3707 82.0687 26.6708C81.7687 26.9708 81.6001 27.3778 81.6001 27.8021C81.6001 29.0752 82.1058 30.2961 83.006 31.1963C83.9062 32.0964 85.1271 32.6021 86.4001 32.6021V32.6021Z" fill="#4ACFFF" stroke="#45413C" stroke-width="1.5" stroke-linecap="round" stroke-linejoin="round"/>
<path d="M118.401 41.4025C118.063 41.4023 117.734 41.2951 117.46 41.0962C117.187 40.8973 116.984 40.6169 116.88 40.2953C116.775 39.9737 116.776 39.6273 116.881 39.306C116.986 38.9846 117.19 38.7047 117.463 38.5065V38.5065C118.537 37.7121 119.276 36.546 119.535 35.2361C119.532 34.6432 119.399 34.0583 119.145 33.5224C118.892 32.9865 118.524 32.5125 118.068 32.1337C117.915 31.9861 117.794 31.8095 117.71 31.6143C117.626 31.4191 117.582 31.2092 117.58 30.9967C117.578 30.7843 117.619 30.5736 117.699 30.3769C117.779 30.1803 117.898 30.0017 118.048 29.8514C118.199 29.7012 118.377 29.5824 118.574 29.502C118.771 29.4215 118.981 29.381 119.194 29.3829C119.406 29.3847 119.616 29.4289 119.811 29.5127C120.007 29.5966 120.183 29.7185 120.331 29.8713C121.129 30.5724 121.758 31.4446 122.172 32.4228C122.586 33.401 122.773 34.46 122.721 35.5209C122.376 37.7634 121.156 39.7775 119.327 41.1209C119.055 41.3088 118.732 41.4073 118.401 41.4025V41.4025Z" fill="#4ACFFF" stroke="#45413C" stroke-width="1.5" stroke-linecap="round" stroke-linejoin="round"/>
<path d="M116.8 101.402V99.002" stroke="#45413C" stroke-width="1.5" stroke-linecap="round" stroke-linejoin="round"/>
<path d="M96.0002 77.2549C94.0878 77.7123 92.2388 78.4028 90.4946 79.3109C92.781 81.8309 98.2738 86.5733 100.575 88.5269C100.862 88.7738 101.229 88.9096 101.608 88.9096C101.987 88.9096 102.354 88.7738 102.642 88.5269C104.954 86.5573 110.519 81.7525 112.77 79.2469C111.001 78.3556 109.131 77.6809 107.2 77.2373V78.1973C106.478 78.9558 105.609 79.5596 104.647 79.9722C103.684 80.3848 102.648 80.5975 101.6 80.5975C100.553 80.5975 99.5165 80.3848 98.5539 79.9722C97.5912 79.5596 96.7225 78.9558 96.0002 78.1973V77.2549Z" fill="#525252" stroke="#45413C" stroke-width="1.5" stroke-linecap="round" stroke-linejoin="round"/>
<path d="M107.201 71.8018V78.2018C106.479 78.9602 105.61 79.5641 104.647 79.9767C103.685 80.3893 102.648 80.602 101.601 80.602C100.554 80.602 99.5172 80.3893 98.5546 79.9767C97.592 79.5641 96.7232 78.9602 96.001 78.2018V71.8018H107.201Z" fill="#4ACFFF"/>
<path d="M96.001 77.3794C99.6538 78.4759 103.548 78.4759 107.201 77.3794V71.8018H96.001V77.3794Z" fill="#00B8F0"/>
<path d="M107.201 71.8018V78.2018C106.479 78.9602 105.61 79.5641 104.647 79.9767C103.685 80.3893 102.648 80.602 101.601 80.602C100.554 80.602 99.5172 80.3893 98.5546 79.9767C97.592 79.5641 96.7232 78.9602 96.001 78.2018V71.8018H107.201Z" stroke="#45413C" stroke-width="1.5" stroke-linecap="round" stroke-linejoin="round"/>
<path d="M76.8003 135.002C76.8003 136.275 77.306 137.496 78.2062 138.396C79.1064 139.296 80.3273 139.802 81.6003 139.802C82.8733 139.802 84.0942 139.296 84.9944 138.396C85.8946 137.496 86.4003 136.275 86.4003 135.002V130.202H76.8003V135.002Z" fill="#4ACFFF" stroke="#45413C" stroke-width="1.5" stroke-linecap="round" stroke-linejoin="round"/>
<path d="M117.6 55.0022V51.0022C117.6 42.1654 110.437 35.8022 101.6 35.8022C92.7636 35.8022 85.6004 42.1654 85.6004 51.0022V55.0022C84.7517 55.0022 83.9378 55.3394 83.3376 55.9395C82.7375 56.5396 82.4004 57.3536 82.4004 58.2022C82.4004 59.0509 82.7375 59.8649 83.3376 60.465C83.9378 61.0651 84.7517 61.4022 85.6004 61.4022C85.6676 61.4022 85.73 61.3862 85.7972 61.383C86.3615 65.1708 88.2675 68.6299 91.168 71.1304C94.0686 73.6309 97.7708 75.0064 101.6 75.0064C105.43 75.0064 109.132 73.6309 112.033 71.1304C114.933 68.6299 116.839 65.1708 117.404 61.383C117.471 61.383 117.533 61.4022 117.6 61.4022C118.449 61.4022 119.263 61.0651 119.863 60.465C120.463 59.8649 120.8 59.0509 120.8 58.2022C120.8 57.3536 120.463 56.5396 119.863 55.9395C119.263 55.3394 118.449 55.0022 117.6 55.0022Z" fill="#4ACFFF" stroke="#45413C" stroke-width="1.5" stroke-linecap="round" stroke-linejoin="round"/>
<path d="M110.4 56.6017C110.202 56.1264 109.868 55.7203 109.44 55.4347C109.012 55.149 108.509 54.9966 107.994 54.9966C107.479 54.9966 106.976 55.149 106.548 55.4347C106.119 55.7203 105.785 56.1264 105.587 56.6017" stroke="#45413C" stroke-width="1.5" stroke-linecap="round" stroke-linejoin="round"/>
<path d="M97.6136 56.6017C97.4158 56.1264 97.0817 55.7203 96.6535 55.4347C96.2252 55.149 95.722 54.9966 95.2072 54.9966C94.6924 54.9966 94.1891 55.149 93.7609 55.4347C93.3326 55.7203 92.9985 56.1264 92.8008 56.6017" stroke="#45413C" stroke-width="1.5" stroke-linecap="round" stroke-linejoin="round"/>
<path d="M90.4004 61.8027C90.4004 62.3332 90.6111 62.8419 90.9862 63.2169C91.3612 63.592 91.87 63.8027 92.4004 63.8027C92.9308 63.8027 93.4395 63.592 93.8146 63.2169C94.1897 62.8419 94.4004 62.3332 94.4004 61.8027C94.4004 61.2723 94.1897 60.7636 93.8146 60.3885C93.4395 60.0134 92.9308 59.8027 92.4004 59.8027C91.87 59.8027 91.3612 60.0134 90.9862 60.3885C90.6111 60.7636 90.4004 61.2723 90.4004 61.8027V61.8027Z" fill="#00B8F0"/>
<path d="M108.8 61.8027C108.8 62.3332 109.011 62.8419 109.386 63.2169C109.761 63.592 110.27 63.8027 110.8 63.8027C111.331 63.8027 111.839 63.592 112.214 63.2169C112.59 62.8419 112.8 62.3332 112.8 61.8027C112.8 61.2723 112.59 60.7636 112.214 60.3885C111.839 60.0134 111.331 59.8027 110.8 59.8027C110.27 59.8027 109.761 60.0134 109.386 60.3885C109.011 60.7636 108.8 61.2723 108.8 61.8027V61.8027Z" fill="#00B8F0"/>
<path d="M96.7871 65.877C98.0848 67.1126 99.808 67.8018 101.6 67.8018C103.392 67.8018 105.115 67.1126 106.413 65.877" stroke="#45413C" stroke-width="1.5" stroke-linecap="round" stroke-linejoin="round"/>
<path d="M132.801 89.5732V93.402H142.401V93.2804C138.268 92.0004 138.27 91.05 132.801 89.5732Z" fill="#4ACFFF" stroke="#45413C" stroke-width="1.5" stroke-linecap="round" stroke-linejoin="round"/>
<path d="M116.8 37.3542C114.969 35.1685 112.36 33.7799 109.524 33.4813C106.688 33.1828 103.847 33.9978 101.6 35.7542V44.5542C103.497 47.5034 106.306 49.7511 109.6 50.9542C117.36 53.5798 116.234 65.0582 112.56 71.0534C112.387 71.3404 112.309 71.6745 112.336 72.0085C112.363 72.3424 112.494 72.6595 112.711 72.9149C112.928 73.1703 113.219 73.3512 113.545 73.4321C113.87 73.5129 114.212 73.4896 114.523 73.3654C126.699 68.8278 125.738 47.0134 116.8 37.3542Z" fill="#F0F0F0"/>
<path d="M116.8 42.9542C120.695 47.5679 123.026 53.2982 123.458 59.3206C124.194 51.575 121.698 42.6438 116.8 37.3542C114.969 35.1685 112.36 33.7799 109.524 33.4813C106.688 33.1828 103.847 33.9978 101.6 35.7542V41.3542C103.847 39.5978 106.688 38.7828 109.524 39.0813C112.36 39.3799 114.969 40.7685 116.8 42.9542V42.9542Z" fill="white"/>
<path d="M116.8 37.3542C114.969 35.1685 112.36 33.7799 109.524 33.4813C106.688 33.1828 103.847 33.9978 101.6 35.7542V44.5542C103.497 47.5034 106.306 49.7511 109.6 50.9542C117.36 53.5798 116.234 65.0582 112.56 71.0534C112.387 71.3404 112.309 71.6745 112.336 72.0085C112.363 72.3424 112.494 72.6595 112.711 72.9149C112.928 73.1703 113.219 73.3512 113.545 73.4321C113.87 73.5129 114.212 73.4896 114.523 73.3654C126.699 68.8278 125.738 47.0134 116.8 37.3542Z" stroke="#45413C" stroke-width="1.5" stroke-linecap="round" stroke-linejoin="round"/>
<path d="M86.4081 37.3539C88.2393 35.1704 90.8468 33.7833 93.6808 33.4848C96.5149 33.1863 99.3541 33.9999 101.6 35.7539V44.5539C99.7033 47.5031 96.8937 49.7507 93.6001 50.9539C85.8401 53.5795 86.9665 65.0579 90.6401 71.0531C90.813 71.3401 90.8915 71.6741 90.8645 72.0081C90.8374 72.3421 90.7062 72.6591 90.4893 72.9146C90.2724 73.17 89.9808 73.3509 89.6556 73.4317C89.3304 73.5125 88.9881 73.4892 88.6769 73.3651C76.5009 68.8275 77.4625 47.0131 86.4081 37.3539Z" fill="#F0F0F0"/>
<path d="M86.4086 42.9539C82.5131 47.5672 80.1821 53.2977 79.751 59.3203C79.015 51.5747 81.511 42.6435 86.4086 37.3539C88.2399 35.1704 90.8473 33.7833 93.6814 33.4848C96.5154 33.1863 99.3546 33.9999 101.601 35.7539V41.3539C99.3546 39.5999 96.5154 38.7863 93.6814 39.0848C90.8473 39.3833 88.2399 40.7704 86.4086 42.9539V42.9539Z" fill="white"/>
<path d="M86.4081 37.3539C88.2393 35.1704 90.8468 33.7833 93.6808 33.4848C96.5149 33.1863 99.3541 33.9999 101.6 35.7539V44.5539C99.7033 47.5031 96.8937 49.7507 93.6001 50.9539C85.8401 53.5795 86.9665 65.0579 90.6401 71.0531C90.813 71.3401 90.8915 71.6741 90.8645 72.0081C90.8374 72.3421 90.7062 72.6591 90.4893 72.9146C90.2724 73.17 89.9808 73.3509 89.6556 73.4317C89.3304 73.5125 88.9881 73.4892 88.6769 73.3651C76.5009 68.8275 77.4625 47.0131 86.4081 37.3539Z" stroke="#45413C" stroke-width="1.5" stroke-linecap="round" stroke-linejoin="round"/>
<path d="M132.801 96.6025H142.401V99.8025H132.801V96.6025Z" fill="#FFE500" stroke="#45413C" stroke-width="1.5" stroke-linecap="round" stroke-linejoin="round"/>
<path d="M129.891 74.0803L126.042 90.6387C125.958 90.9983 125.736 91.3101 125.422 91.5054C125.109 91.7008 124.731 91.7637 124.371 91.6803V91.6803C124.084 91.6135 123.826 91.4584 123.631 91.2368C123.437 91.0152 123.317 90.7384 123.288 90.4451C122.456 81.8836 124.437 73.2841 128.93 65.9491C129.108 65.6595 129.372 65.4332 129.686 65.3023C129.999 65.1713 130.346 65.1424 130.677 65.2195L134.479 66.1027C134.844 66.1877 135.167 66.3981 135.393 66.6972C135.619 66.9963 135.732 67.3652 135.714 67.7395L135.439 73.4243C135.427 73.6583 135.364 73.8868 135.255 74.0939C135.145 74.301 134.992 74.4815 134.805 74.6226C134.618 74.7638 134.402 74.8622 134.173 74.9108C133.944 74.9595 133.707 74.9573 133.479 74.9043L129.891 74.0803Z" fill="#ADC4D9"/>
<path d="M128.93 65.9498C124.437 73.2848 122.456 81.8843 123.288 90.4458C123.317 90.7391 123.437 91.0159 123.631 91.2375C123.826 91.4591 124.084 91.6142 124.371 91.681C124.606 91.7325 124.849 91.7217 125.078 91.6495C125.307 91.5774 125.513 91.4464 125.675 91.2698C124.729 82.2224 126.92 73.1247 131.882 65.5002C131.325 65.331 130.75 65.2237 130.17 65.1802C129.917 65.2009 129.673 65.2815 129.457 65.4154C129.241 65.5492 129.061 65.7324 128.93 65.9498V65.9498Z" fill="white"/>
<path d="M129.891 74.0803L126.042 90.6387C125.958 90.9983 125.736 91.3101 125.422 91.5054C125.109 91.7008 124.731 91.7637 124.371 91.6803V91.6803C124.084 91.6135 123.826 91.4584 123.631 91.2368C123.437 91.0152 123.317 90.7384 123.288 90.4451C122.456 81.8836 124.437 73.2841 128.93 65.9491C129.108 65.6595 129.372 65.4332 129.686 65.3023C129.999 65.1713 130.346 65.1424 130.677 65.2195L134.479 66.1027C134.844 66.1877 135.167 66.3981 135.393 66.6972C135.619 66.9963 135.732 67.3652 135.714 67.7395L135.439 73.4243C135.427 73.6583 135.364 73.8868 135.255 74.0939C135.145 74.301 134.992 74.4815 134.805 74.6226C134.618 74.7638 134.402 74.8622 134.173 74.9108C133.944 74.9595 133.707 74.9573 133.479 74.9043L129.891 74.0803Z" stroke="#45413C" stroke-width="1.5" stroke-linecap="round" stroke-linejoin="round"/>
<path d="M130.669 65.2178L134.479 66.1026C134.672 66.1491 134.855 66.2316 135.018 66.3458L135.141 66.3746L135.104 64.1794C135.098 63.7969 134.964 63.4276 134.724 63.1301C134.484 62.8326 134.151 62.6241 133.778 62.5377L133.045 62.3666C132.672 62.2785 132.28 62.3183 131.931 62.4796C131.583 62.6409 131.299 62.9143 131.125 63.2562L130.135 65.1874C130.313 65.1681 130.494 65.1783 130.669 65.2178V65.2178Z" fill="#C0DCEB" stroke="#45413C" stroke-width="1.5" stroke-linecap="round" stroke-linejoin="round"/>
<path d="M130.528 89.0035L133.787 74.9763L129.891 74.0723L126.051 90.6835L130.528 89.0035Z" fill="#ADC4D9" stroke="#45413C" stroke-width="1.5" stroke-linecap="round" stroke-linejoin="round"/>
<path d="M146.119 92.6018L146.863 89.4018C146.954 89.0112 146.894 88.601 146.696 88.2523C146.499 87.9036 146.177 87.6417 145.796 87.5186C142.017 86.3218 131.966 82.8194 132.702 79.6514L130.529 89.0034C139.242 91.0274 137.494 92.0434 144.148 93.7874C144.355 93.8413 144.571 93.8533 144.783 93.8227C144.995 93.792 145.199 93.7194 145.383 93.6089C145.566 93.4985 145.726 93.3525 145.853 93.1796C145.979 93.0066 146.07 92.8102 146.119 92.6018V92.6018Z" fill="#87898C" stroke="#45413C" stroke-width="1.5" stroke-linecap="round" stroke-linejoin="round"/>
<path d="M127.489 68.586C127.942 67.698 128.42 66.8148 128.938 65.9428C129.114 65.6551 129.376 65.4301 129.687 65.2999C129.997 65.1698 130.341 65.1411 130.67 65.218L134.479 66.1028C134.844 66.1878 135.168 66.3982 135.393 66.6973C135.619 66.9964 135.733 67.3653 135.714 67.7396L135.583 70.4596L127.489 68.586Z" fill="#FFE500" stroke="#45413C" stroke-width="1.5" stroke-linecap="round" stroke-linejoin="round"/>
<path d="M133.448 87.1745L134.303 83.3665C134.372 83.0588 134.5 82.7678 134.682 82.5099C134.863 82.2521 135.094 82.0325 135.36 81.8637C135.626 81.6949 135.923 81.5802 136.234 81.5262C136.544 81.4722 136.862 81.4799 137.17 81.5489L141.853 82.6001C142.474 82.7395 143.014 83.1197 143.354 83.657C143.695 84.1943 143.808 84.8449 143.669 85.4657L142.816 89.2801C142.659 90.0253 142.237 90.6884 141.629 91.1471C141.021 91.6059 140.267 91.8292 139.508 91.7761C138.096 91.6462 136.707 91.3348 135.375 90.8497C134.664 90.5729 134.077 90.0483 133.723 89.3728C133.369 88.6973 133.272 87.9164 133.448 87.1745Z" fill="#4ACFFF"/>
<path d="M142.984 88.413C143.123 87.792 143.01 87.1411 142.67 86.6034C142.329 86.0657 141.789 85.6853 141.168 85.5458L136.48 84.4962C135.899 84.3693 135.291 84.4627 134.775 84.7584C134.259 85.054 133.871 85.5308 133.687 86.0962L134.298 83.3762C134.367 83.0686 134.495 82.7776 134.677 82.5197C134.858 82.2618 135.089 82.0423 135.355 81.8735C135.621 81.7047 135.918 81.59 136.229 81.536C136.539 81.482 136.857 81.4897 137.165 81.5586L141.848 82.6098C142.469 82.7493 143.009 83.1295 143.349 83.6668C143.69 84.2041 143.803 84.8547 143.664 85.4754L142.816 89.2802C142.797 89.3666 142.762 89.4402 142.736 89.5298L142.984 88.413Z" fill="#80DDFF"/>
<path d="M133.448 87.1745L134.303 83.3665C134.372 83.0588 134.5 82.7678 134.682 82.5099C134.863 82.2521 135.094 82.0325 135.36 81.8637C135.626 81.6949 135.923 81.5802 136.234 81.5262C136.544 81.4722 136.862 81.4799 137.17 81.5489L141.853 82.6001C142.474 82.7395 143.014 83.1197 143.354 83.657C143.695 84.1943 143.808 84.8449 143.669 85.4657L142.816 89.2801C142.659 90.0253 142.237 90.6884 141.629 91.1471C141.021 91.6059 140.267 91.8292 139.508 91.7761C138.096 91.6462 136.707 91.3348 135.375 90.8497C134.664 90.5729 134.077 90.0483 133.723 89.3728C133.369 88.6973 133.272 87.9164 133.448 87.1745Z" stroke="#45413C" stroke-width="1.5" stroke-linecap="round" stroke-linejoin="round"/>
<path d="M116.8 32.6021C116.376 32.6021 115.969 32.4336 115.669 32.1335C115.369 31.8335 115.2 31.4265 115.2 31.0021C115.2 30.5778 115.369 30.1708 115.669 29.8708C115.969 29.5707 116.376 29.4021 116.8 29.4021C117.225 29.4021 117.632 29.2336 117.932 28.9335C118.232 28.6335 118.4 28.2265 118.4 27.8021C118.4 27.3778 118.569 26.9708 118.869 26.6708C119.169 26.3707 119.576 26.2021 120 26.2021C120.425 26.2021 120.832 26.3707 121.132 26.6708C121.432 26.9708 121.6 27.3778 121.6 27.8021C121.6 29.0752 121.094 30.2961 120.194 31.1963C119.294 32.0964 118.073 32.6021 116.8 32.6021V32.6021Z" fill="#4ACFFF" stroke="#45413C" stroke-width="1.5" stroke-linecap="round" stroke-linejoin="round"/>
</svg>
