<svg width="128" height="128" fill="none" xmlns="http://www.w3.org/2000/svg">
  <path d="M12.8 64a51.2006 51.2006 0 0 0 14.9961 36.204A51.1994 51.1994 0 0 0 64 115.2 51.1998 51.1998 0 0 0 115.2 64c0-13.579-5.394-26.602-14.996-36.2038a51.2004 51.2004 0 0 0-72.4079 0A51.2001 51.2001 0 0 0 12.8 64Z" fill="#C7F0FF"/>
  <path opacity=".15" d="M28.2202 99.0492c0 .68 4.0262 1.3318 11.1931 1.8128 7.1668.481 16.8871.751 27.0225.751 10.1355 0 19.8558-.27 27.0226-.751 7.1666-.481 11.1936-1.1328 11.1936-1.8128 0-.68-4.027-1.3321-11.1936-1.8129-7.1668-.4808-16.8871-.7509-27.0226-.7509-10.1354 0-19.8557.2701-27.0225.7509-7.1669.4808-11.1931 1.1329-11.1931 1.8129Z" fill="#45413C"/>
  <path d="M90.272 90.8685a7.1898 7.1898 0 0 0 12.274 5.0839 7.1903 7.1903 0 0 0 2.105-5.0839 7.1906 7.1906 0 0 0-2.105-5.084 7.1898 7.1898 0 0 0-12.274 5.084v0Z" fill="#525252" stroke="#45413C" stroke-linecap="round" stroke-linejoin="round"/>
  <path d="M100.593 90.1249a3.1314 3.1314 0 0 1-5.3452 2.2139 3.1312 3.1312 0 0 1-.917-2.2139v-8.704h6.2622v8.704Z" fill="#C0DCEB" stroke="#45413C" stroke-linecap="round" stroke-linejoin="round"/>
  <path d="M31.8361 90.8685a7.1895 7.1895 0 0 0 7.1898 7.1897 7.1898 7.1898 0 1 0-7.1898-7.1897Z" fill="#525252" stroke="#45413C" stroke-linecap="round" stroke-linejoin="round"/>
  <path d="M42.1568 90.1249a3.1309 3.1309 0 0 1-3.1309 3.1309c-4.224 0-7.1898-11.84-7.1898-11.84h8.1575l2.1632 8.7091Z" fill="#C0DCEB" stroke="#45413C" stroke-linecap="round" stroke-linejoin="round"/>
  <path d="M105.143 76.055a1.4076 1.4076 0 0 0-1.408-1.408H29.216v6.7712h74.516c.374 0 .732-.1484.996-.4124a1.408 1.408 0 0 0 .412-.9956l.003-3.9552ZM25.5885 80.2561a2.2312 2.2312 0 0 1-2.2298-2.2298v-34.432a15.5064 15.5064 0 0 0-3.0195-9.2275l-6.0672-8.2714a2.23 2.23 0 0 1 3.5968-2.6368l6.0672 8.2701a19.9362 19.9362 0 0 1 3.8848 11.8656v34.432a2.2303 2.2303 0 0 1-1.3782 2.0608 2.231 2.231 0 0 1-.8541.169v0Z" fill="#DAEDF7" stroke="#45413C" stroke-linecap="round" stroke-linejoin="round"/>
  <path d="M29.216 81.4158h-5.769a1.4861 1.4861 0 0 1-1.4861-1.4861v-9.9136A1.4861 1.4861 0 0 1 23.447 68.53h4.2829a1.4861 1.4861 0 0 1 1.4861 1.4861v11.3997Z" fill="#C0DCEB" stroke="#45413C" stroke-linecap="round" stroke-linejoin="round"/>
  <path d="M35.9872 49.5105h26.9299v25.1341H35.9872V49.5105Z" fill="#DEBB7E"/>
  <path opacity=".7" d="M62.9184 51.1757a1.6639 1.6639 0 0 0-1.664-1.664H37.6525a1.664 1.664 0 0 0-1.664 1.664v4.0666a1.664 1.664 0 0 1 1.664-1.664h23.6006a1.6637 1.6637 0 0 1 1.664 1.664l.0013-4.0666Z" fill="#F7E5C6"/>
  <path d="M52.1459 60.6721a1.4077 1.4077 0 0 1-1.408 1.408h-2.56a1.4077 1.4077 0 0 1-1.408-1.408V49.5105h5.385l-.009 11.1616Z" fill="#fff"/>
  <path d="M52.1459 60.6721a1.4077 1.4077 0 0 1-1.408 1.408h-2.56a1.4077 1.4077 0 0 1-1.408-1.408V49.5105h5.385l-.009 11.1616Z" stroke="#45413C" stroke-linecap="round" stroke-linejoin="round"/>
  <path d="M35.9872 49.5105h26.9299v25.1341H35.9872V49.5105Z" stroke="#45413C" stroke-linecap="round" stroke-linejoin="round"/>
  <path d="M62.9183 54.2886h33.7562v20.3558H62.9183V54.2886Z" fill="#DEBB7E"/>
  <path opacity=".7" d="M96.6746 55.954a1.6643 1.6643 0 0 0-1.664-1.664H64.5837a1.6641 1.6641 0 0 0-1.664 1.664v4.0666a1.6637 1.6637 0 0 1 1.664-1.664h30.4256a1.6639 1.6639 0 0 1 1.664 1.664l.0013-4.0666Z" fill="#F7E5C6"/>
  <path d="M82.4895 64.0793a1.4077 1.4077 0 0 1-1.408 1.408h-2.56a1.408 1.408 0 0 1-1.408-1.408v-9.7907h5.3863l-.0103 9.7907Z" fill="#fff"/>
  <path d="M82.4895 64.0793a1.4077 1.4077 0 0 1-1.408 1.408h-2.56a1.408 1.408 0 0 1-1.408-1.408v-9.7907h5.3863l-.0103 9.7907Z" stroke="#45413C" stroke-linecap="round" stroke-linejoin="round"/>
  <path d="M62.9183 54.2886h33.7562v20.3558H62.9183V54.2886Z" stroke="#45413C" stroke-linecap="round" stroke-linejoin="round"/>
  <path d="M67.1796 31.8567h24.0358v22.432H67.1796v-22.432Z" fill="#DEBB7E"/>
  <path opacity=".7" d="M91.2154 33.3428a1.4872 1.4872 0 0 0-.4357-1.0513 1.4872 1.4872 0 0 0-1.0517-.4348H68.6656a1.4861 1.4861 0 0 0-1.486 1.4861v3.6288a1.4856 1.4856 0 0 1 .9173-1.373 1.486 1.486 0 0 1 .5687-.1131H89.728a1.4856 1.4856 0 0 1 1.373.9174c.0747.1803.1131.3735.1131.5687l.0013-3.6288Z" fill="#F7E5C6"/>
  <path d="M81.6026 41.6615a1.408 1.408 0 0 1-1.408 1.408H78.208a1.4083 1.4083 0 0 1-1.408-1.408v-9.8048h4.8077l-.0051 9.8048Z" fill="#fff"/>
  <path d="M81.6026 41.6615a1.408 1.408 0 0 1-1.408 1.408H78.208a1.4083 1.4083 0 0 1-1.408-1.408v-9.8048h4.8077l-.0051 9.8048Z" stroke="#45413C" stroke-linecap="round" stroke-linejoin="round"/>
  <path d="M67.1796 31.8567h24.0358v22.432H67.1796v-22.432Z" stroke="#45413C" stroke-linecap="round" stroke-linejoin="round"/>
</svg>
