<svg viewBox="0 0 48 48" height="48" width="48" xmlns="http://www.w3.org/2000/svg"><g transform="matrix(0.48,0,0,0.48,0,0)"><path d="M10.000 50.000 A40.000 40.000 0 1 0 90.000 50.000 A40.000 40.000 0 1 0 10.000 50.000 Z" fill="#C7F0FF" stroke="#C7F0FF"></path><path d="M28.630 83.817 A21.371 2.079 0 1 0 71.372 83.817 A21.371 2.079 0 1 0 28.630 83.817 Z" fill="#45413c" opacity=".15"></path><path d="M68.489,47.156a1.28,1.28,0,0,1-1.039.535H32.55a1.28,1.28,0,0,1-1.039-.535l-4.648-6.507H73.137Z" fill="#bf8256" stroke="#45413c" stroke-linecap="round" stroke-linejoin="round"></path><path d="M34.911 40.649H65.089V76.863H34.911z" fill="#dea47a"></path><path d="M34.912 40.649H65.09V45.679H34.912z" fill="#bf8256"></path><path d="M38.936 40.649H61.067V45.679H38.936z" fill="#bf8256"></path><path d="M34.911 40.649H65.089V76.863H34.911z" fill="none" stroke="#45413c" stroke-linecap="round" stroke-linejoin="round"></path><path d="M26.863 34.613H73.136V40.649H26.863z" fill="#dea47a" stroke="#45413c" stroke-linecap="round" stroke-linejoin="round"></path><path d="M71.125,81.622A1.277,1.277,0,0,1,69.848,82.9h-39.7a1.277,1.277,0,0,1-1.277-1.277V78.659a1.8,1.8,0,0,1,1.8-1.8H69.328a1.8,1.8,0,0,1,1.8,1.8Z" fill="#dea47a" stroke="#45413c" stroke-linecap="round" stroke-linejoin="round"></path><path d="M75.149,32.6a2.011,2.011,0,0,1-2.012,2.011H26.863a2.012,2.012,0,1,1,0-4.023H73.137A2.012,2.012,0,0,1,75.149,32.6Z" fill="#dea47a" stroke="#45413c" stroke-linecap="round" stroke-linejoin="round"></path><path d="M61.065,71.043a1.8,1.8,0,0,1-1.8,1.8H40.731a1.8,1.8,0,0,1-1.8-1.8V40.649h22.13Z" fill="none" stroke="#45413c" stroke-linecap="round" stroke-linejoin="round"></path><path d="M42.958 55.738 A7.042 7.042 0 1 0 57.042 55.738 A7.042 7.042 0 1 0 42.958 55.738 Z" fill="#ffe500" stroke="#45413c" stroke-linecap="round" stroke-linejoin="round"></path><path d="M50 24.461L50 30.59" fill="none" stroke="#45413c" stroke-linecap="round" stroke-linejoin="round"></path><path d="M53.321,15.619a3.321,3.321,0,0,0-6.642,0V21.14a3.321,3.321,0,0,0,6.642,0Z" fill="#656769" stroke="#45413c" stroke-linecap="round" stroke-linejoin="round"></path></g></svg>