<svg width="88" height="88" viewBox="0 0 88 88" fill="none" xmlns="http://www.w3.org/2000/svg">
<path d="M80.1365 61.1881C82.8688 55.1564 84.0449 48.5359 83.5574 41.9323C83.0698 35.3286 80.9341 28.9527 77.3457 23.3877C73.7572 17.8227 68.8306 13.2464 63.0165 10.0774C57.2024 6.90848 50.6865 5.24805 44.0649 5.24805C37.4432 5.24805 30.9273 6.90848 25.1132 10.0774C19.2991 13.2464 14.3725 17.8227 10.784 23.3877C7.19559 28.9527 5.05989 35.3286 4.57234 41.9323C4.08479 48.5359 5.26095 55.1564 7.99321 61.1881H80.1365Z" fill="#B8ECFF"/>
<path d="M7.99316 61.1885C11.1341 68.1224 16.207 74.004 22.6044 78.1293C29.0019 82.2545 36.4527 84.4484 44.0648 84.4484C51.6769 84.4484 59.1278 82.2545 65.5252 78.1293C71.9226 74.004 76.9955 68.1224 80.1364 61.1885H7.99316Z" fill="#F2DFC2"/>
<path d="M1 61.1885H3.475" stroke="#45413C" stroke-linecap="round" stroke-linejoin="round"/>
<path d="M5.45508 61.1885H82.6751" stroke="#45413C" stroke-linecap="round" stroke-linejoin="round"/>
<path d="M84.6548 61.1885H87.1298" stroke="#45413C" stroke-linecap="round" stroke-linejoin="round"/>
<path d="M17.2358 61.3021H63.4094V52.1337C63.4094 49.8009 62.95 47.491 62.0573 45.3359C61.1646 43.1807 59.8561 41.2224 58.2066 39.5729C56.5571 37.9234 54.5989 36.615 52.4437 35.7223C50.2885 34.8296 47.9786 34.3701 45.6459 34.3701C37.0151 34.3701 27.5526 40.8417 27.5526 54.3176L27.5497 54.3127C27.5492 54.9313 27.9285 60.813 27.5497 61.3021" stroke="#45413C" stroke-linejoin="round"/>
<path d="M45.6489 34.3701C42.7122 34.3682 39.821 35.0951 37.2344 36.4857C34.6478 37.8763 32.4468 39.887 30.8286 42.3376C33.2675 45.693 34.6372 49.7061 34.7589 53.8523V61.3021H56.5389V53.8523C56.662 49.7059 58.0328 45.6929 60.4722 42.3376C58.8537 39.8866 56.6522 37.8756 54.0651 36.485C51.4779 35.0944 48.5861 34.3677 45.6489 34.3701Z" fill="#00B8F0"/>
<path d="M45.6489 40.1001C48.0588 40.0971 50.444 40.586 52.6585 41.5367C54.8729 42.4874 56.8701 43.88 58.5278 45.6292C59.0742 44.4756 59.724 43.3738 60.4692 42.3375C58.8496 39.8882 56.6483 37.8786 54.062 36.4882C51.4757 35.0978 48.5852 34.3701 45.6489 34.3701C42.7126 34.3701 39.8221 35.0978 37.2358 36.4882C34.6496 37.8786 32.4482 39.8882 30.8286 42.3375C31.5735 43.374 32.2233 44.4758 32.77 45.6292C34.4277 43.8799 36.4249 42.4873 38.6393 41.5366C40.8538 40.5859 43.239 40.0971 45.6489 40.1001Z" fill="#4ACFFF"/>
<path d="M45.6489 34.3701C42.7122 34.3682 39.821 35.0951 37.2344 36.4857C34.6478 37.8763 32.4468 39.887 30.8286 42.3376C33.2675 45.693 34.6372 49.7061 34.7589 53.8523V61.3021H56.5389V53.8523C56.662 49.7059 58.0328 45.6929 60.4722 42.3376C58.8537 39.8866 56.6522 37.8756 54.0651 36.485C51.4779 35.0944 48.5861 34.3677 45.6489 34.3701Z" stroke="#45413C" stroke-linecap="round" stroke-linejoin="round"/>
<path d="M45.6488 59.0101L33.1748 46.5371C34.0092 48.4835 34.5278 50.5505 34.7113 52.6603L43.3381 61.302H47.9555L56.5824 52.6603C56.7658 50.5505 57.2845 48.4835 58.1188 46.5371L45.6488 59.0101Z" fill="#FFE500" stroke="#45413C" stroke-linecap="round" stroke-linejoin="round"/>
<path d="M45.6418 41.8187L42.6401 38.8141C41.9964 38.1694 41.6346 37.2957 41.6343 36.3846V32.0771H49.6642V36.3807C49.6643 36.8329 49.5751 37.2808 49.4019 37.6985C49.2286 38.1163 48.9746 38.4957 48.6544 38.8151L45.6418 41.8187Z" fill="#BF8256"/>
<path d="M45.6418 41.8187L42.6401 38.8141C41.9964 38.1694 41.6346 37.2957 41.6343 36.3846V32.0771H49.6642V36.3807C49.6643 36.8329 49.5751 37.2808 49.4019 37.6985C49.2286 38.1163 48.9746 38.4957 48.6544 38.8151L45.6418 41.8187Z" stroke="#45413C" stroke-linecap="round" stroke-linejoin="round"/>
<path d="M42.6403 38.8144C41.9966 38.1697 41.6348 37.296 41.6345 36.3849V33.9624C41.5412 33.876 41.4304 33.8109 41.3095 33.7715C41.1887 33.7322 41.0607 33.7196 40.9345 33.7347C40.6205 33.8336 40.3241 33.9816 40.0564 34.1732C39.2554 34.736 38.6299 35.5138 38.2519 36.4167C37.8739 37.3197 37.7588 38.3111 37.92 39.2767C38.2774 41.6121 38.6377 43.2604 38.91 44.3197C38.9544 44.4956 39.0399 44.6583 39.1596 44.7947C39.2792 44.931 39.4295 45.0369 39.5981 45.1038C39.7666 45.1707 39.9487 45.1966 40.1292 45.1794C40.3098 45.1622 40.4836 45.1024 40.6365 45.0048L45.6459 41.815L42.6403 38.8144Z" fill="white" stroke="#45413C" stroke-linecap="round" stroke-linejoin="round"/>
<path d="M48.6516 38.8144C49.2953 38.1697 49.6571 37.296 49.6574 36.3849V33.9624C49.7506 33.876 49.8615 33.8109 49.9824 33.7715C50.1032 33.7322 50.2312 33.7196 50.3574 33.7347C50.6714 33.8336 50.9678 33.9816 51.2355 34.1732C52.0361 34.7363 52.6613 35.5141 53.0391 36.417C53.4169 37.32 53.5319 38.3112 53.3709 39.2767C53.0135 41.6121 52.6532 43.2604 52.3809 44.3197C52.3365 44.4956 52.251 44.6583 52.1313 44.7947C52.0117 44.931 51.8614 45.0369 51.6928 45.1038C51.5243 45.1707 51.3422 45.1966 51.1617 45.1794C50.9811 45.1622 50.8073 45.1024 50.6544 45.0048L45.6489 41.819L48.6516 38.8144Z" fill="white" stroke="#45413C" stroke-linecap="round" stroke-linejoin="round"/>
<path d="M45.6491 41.8188L40.6328 45.0086C42.3011 47.29 43.7748 49.7075 45.0383 52.2356L45.3739 53.0742C45.3895 53.1345 45.4247 53.188 45.474 53.2262C45.5233 53.2644 45.5838 53.2851 45.6462 53.2851C45.7085 53.2851 45.7691 53.2644 45.8184 53.2262C45.8677 53.188 45.9029 53.1345 45.9184 53.0742L46.254 52.2356C47.5175 49.7075 48.9912 47.29 50.6595 45.0086L45.6491 41.8188Z" fill="#F8F8F8" stroke="#45413C" stroke-linecap="round" stroke-linejoin="round"/>
<path d="M57.1064 22.3365V19.4764C57.1064 16.4369 55.899 13.522 53.7497 11.3727C51.6005 9.22353 48.6856 8.01611 45.6461 8.01611C42.6067 8.01611 39.6917 9.22353 37.5425 11.3727C35.3933 13.522 34.1859 16.4369 34.1859 19.4764V22.3414C33.5781 22.3414 32.9951 22.5829 32.5653 23.0127C32.1355 23.4425 31.894 24.0254 31.894 24.6333C31.894 25.2411 32.1355 25.824 32.5653 26.2538C32.9951 26.6837 33.5781 26.9251 34.1859 26.9251C34.2334 26.9251 34.279 26.9142 34.3265 26.9113C34.7318 29.6235 36.0976 32.1 38.1751 33.8901C40.2526 35.6802 42.9038 36.6648 45.6461 36.6648C48.3885 36.6648 51.0397 35.6802 53.1172 33.8901C55.1947 32.1 56.5604 29.6235 56.9658 26.9113C57.0133 26.9113 57.0589 26.9251 57.1064 26.9251C57.7142 26.9251 58.2971 26.6837 58.727 26.2538C59.1568 25.824 59.3982 25.2411 59.3982 24.6333C59.3982 24.0254 59.1568 23.4425 58.727 23.0127C58.2971 22.5829 57.7142 22.3414 57.1064 22.3414V22.3365Z" fill="#BF8256" stroke="#45413C" stroke-linecap="round" stroke-linejoin="round"/>
<path d="M37.624 27.2065C37.624 27.5864 37.775 27.9508 38.0436 28.2194C38.3123 28.4881 38.6766 28.639 39.0566 28.639C39.4365 28.639 39.8009 28.4881 40.0695 28.2194C40.3382 27.9508 40.4891 27.5864 40.4891 27.2065C40.4891 26.8265 40.3382 26.4622 40.0695 26.1935C39.8009 25.9249 39.4365 25.7739 39.0566 25.7739C38.6766 25.7739 38.3123 25.9249 38.0436 26.1935C37.775 26.4622 37.624 26.8265 37.624 27.2065Z" fill="#BF8256"/>
<path d="M50.8027 27.2065C50.8027 27.5864 50.9537 27.9508 51.2223 28.2194C51.491 28.4881 51.8553 28.639 52.2353 28.639C52.6152 28.639 52.9796 28.4881 53.2482 28.2194C53.5169 27.9508 53.6678 27.5864 53.6678 27.2065C53.6678 26.8265 53.5169 26.4622 53.2482 26.1935C52.9796 25.9249 52.6152 25.7739 52.2353 25.7739C51.8553 25.7739 51.491 25.9249 51.2223 26.1935C50.9537 26.4622 50.8027 26.8265 50.8027 27.2065Z" fill="#BF8256"/>
<path d="M51.9491 23.4823C51.8072 23.1421 51.5677 22.8514 51.2609 22.647C50.9541 22.4426 50.5937 22.3335 50.2251 22.3335C49.8564 22.3335 49.496 22.4426 49.1892 22.647C48.8824 22.8514 48.6429 23.1421 48.501 23.4823" stroke="#45413C" stroke-linecap="round" stroke-linejoin="round"/>
<path d="M42.7709 23.4822C42.6292 23.1419 42.3898 22.8512 42.0831 22.6466C41.7764 22.4421 41.416 22.333 41.0473 22.333C40.6787 22.333 40.3183 22.4421 40.0115 22.6466C39.7048 22.8512 39.4655 23.1419 39.3237 23.4822" stroke="#45413C" stroke-linecap="round" stroke-linejoin="round"/>
<path d="M50.1485 30.932H41.1395C41.0519 30.9321 40.9654 30.9123 40.8865 30.8742C40.8076 30.8361 40.7383 30.7807 40.6839 30.712C40.6295 30.6433 40.5914 30.5632 40.5724 30.4777C40.5534 30.3921 40.554 30.3034 40.5742 30.2182C40.7324 29.603 41.0906 29.0579 41.5924 28.6685C42.0941 28.2791 42.7111 28.0675 43.3462 28.0669H47.9299C48.565 28.0675 49.182 28.2791 49.6837 28.6685C50.1855 29.0579 50.5437 29.603 50.7019 30.2182C50.7219 30.3025 50.7227 30.3901 50.7044 30.4748C50.686 30.5595 50.6489 30.6389 50.5959 30.7074C50.5428 30.7758 50.4751 30.8315 50.3976 30.8704C50.3202 30.9093 50.2351 30.9303 50.1485 30.932Z" fill="#87898C" stroke="#45413C" stroke-linecap="round" stroke-linejoin="round"/>
<path d="M53.668 22.3369H57.1062" stroke="#45413C" stroke-linecap="round" stroke-linejoin="round"/>
<path d="M34.1855 22.3369H37.6238" stroke="#45413C" stroke-linecap="round" stroke-linejoin="round"/>
<path d="M37.623 22.909C37.623 23.8209 37.9853 24.6954 38.6301 25.3402C39.2749 25.985 40.1494 26.3472 41.0613 26.3472C41.9732 26.3472 42.8477 25.985 43.4925 25.3402C44.1373 24.6954 44.4996 23.8209 44.4996 22.909C44.4996 21.9971 44.1373 21.1225 43.4925 20.4777C42.8477 19.8329 41.9732 19.4707 41.0613 19.4707C40.1494 19.4707 39.2749 19.8329 38.6301 20.4777C37.9853 21.1225 37.623 21.9971 37.623 22.909Z" stroke="#45413C" stroke-linecap="round" stroke-linejoin="round"/>
<path d="M46.7915 22.909C46.7915 23.8209 47.1537 24.6954 47.7985 25.3402C48.4434 25.985 49.3179 26.3472 50.2298 26.3472C51.1417 26.3472 52.0162 25.985 52.661 25.3402C53.3058 24.6954 53.668 23.8209 53.668 22.909C53.668 21.9971 53.3058 21.1225 52.661 20.4777C52.0162 19.8329 51.1417 19.4707 50.2298 19.4707C49.3179 19.4707 48.4434 19.8329 47.7985 20.4777C47.1537 21.1225 46.7915 21.9971 46.7915 22.909Z" stroke="#45413C" stroke-linecap="round" stroke-linejoin="round"/>
<path d="M44.4995 22.3369H46.7924" stroke="#45413C" stroke-linecap="round" stroke-linejoin="round"/>
<path d="M59.8297 12.5685C58.8601 10.0468 57.1491 7.87826 54.9223 6.34863C52.6954 4.819 50.0573 4.00014 47.3557 4.00001H43.9392C41.6347 3.99744 39.3687 4.59165 37.362 5.72478C35.3553 6.85791 33.6762 8.49135 32.4882 10.4661C31.3002 12.4408 30.6438 14.6894 30.5828 16.9932C30.5218 19.2969 31.0584 21.5771 32.1404 23.6119C32.3287 23.2299 32.6199 22.9082 32.9813 22.6829C33.3427 22.4576 33.7598 22.3377 34.1857 22.3368C34.1857 22.3368 34.1857 18.3253 37.0508 18.3253V14.887C37.0508 14.887 39.9158 12.5952 45.6459 12.5952C51.3761 12.5952 54.2411 14.887 54.2411 14.887V18.3253C57.1062 18.3253 57.1062 22.3368 57.1062 22.3368C57.532 22.3377 57.9492 22.4576 58.3106 22.6829C58.6719 22.9082 58.9632 23.2299 59.1515 23.6119C60.047 21.9265 60.5708 20.0687 60.6878 18.1637C60.8048 16.2587 60.5122 14.3508 59.8297 12.5685Z" fill="#87898C"/>
<path d="M31.4622 16.4503C32.4316 13.9285 34.1425 11.7597 36.3694 10.2298C38.5963 8.70002 41.2345 7.88102 43.9362 7.88082H47.3517C50.0534 7.88102 52.6916 8.70002 54.9185 10.2298C57.1454 11.7597 58.8563 13.9285 59.8257 16.4503C60.1764 17.3618 60.4251 18.3094 60.5672 19.2757C60.8453 17.3792 60.7114 15.445 60.1747 13.6048C59.638 11.7647 58.711 10.0618 57.4568 8.61216C56.2027 7.16253 54.6509 6.00019 52.9071 5.2043C51.1634 4.40841 49.2685 3.99766 47.3517 4.00001H43.9392C42.0218 3.99717 40.1263 4.40767 38.382 5.20355C36.6376 5.99943 35.0852 7.16198 33.8307 8.612C32.5763 10.062 31.6491 11.7654 31.1124 13.6061C30.5757 15.4469 30.4421 17.3817 30.7207 19.2787C30.8626 18.3114 31.1113 17.3628 31.4622 16.4503Z" fill="#87898C"/>
<path d="M59.8297 12.5685C58.8601 10.0468 57.1491 7.87826 54.9223 6.34863C52.6954 4.819 50.0573 4.00014 47.3557 4.00001H43.9392C41.6347 3.99744 39.3687 4.59165 37.362 5.72478C35.3553 6.85791 33.6762 8.49135 32.4882 10.4661C31.3002 12.4408 30.6438 14.6894 30.5828 16.9932C30.5218 19.2969 31.0584 21.5771 32.1404 23.6119C32.3287 23.2299 32.6199 22.9082 32.9813 22.6829C33.3427 22.4576 33.7598 22.3377 34.1857 22.3368C34.1857 22.3368 34.1857 18.3253 37.0508 18.3253V14.887C37.0508 14.887 39.9158 12.5952 45.6459 12.5952C51.3761 12.5952 54.2411 14.887 54.2411 14.887V18.3253C57.1062 18.3253 57.1062 22.3368 57.1062 22.3368C57.532 22.3377 57.9492 22.4576 58.3106 22.6829C58.6719 22.9082 58.9632 23.2299 59.1515 23.6119C60.047 21.9265 60.5708 20.0687 60.6878 18.1637C60.8048 16.2587 60.5122 14.3508 59.8297 12.5685Z" stroke="#45413C" stroke-linecap="round" stroke-linejoin="round"/>
<path d="M60.2732 65.4233C60.1836 65.2201 60.0367 65.0473 59.8505 64.926C59.6644 64.8047 59.447 64.7402 59.2248 64.7402H24.6382C24.4111 64.7401 24.1891 64.8076 24.0005 64.934C23.8119 65.0604 23.6651 65.24 23.5789 65.4501L16.5004 82.6385C16.4282 82.8126 16.4001 83.0018 16.4186 83.1894C16.4371 83.377 16.5016 83.5571 16.6064 83.7138C16.7112 83.8704 16.853 83.9988 17.0193 84.0876C17.1856 84.1763 17.3712 84.2226 17.5597 84.2225H66.8082C66.9989 84.2225 67.1867 84.175 67.3544 84.0842C67.5221 83.9933 67.6645 83.8621 67.7687 83.7024C67.873 83.5426 67.9357 83.3594 67.9512 83.1693C67.9667 82.9792 67.9345 82.7882 67.8576 82.6137L60.2732 65.4233Z" fill="#F0D3A8" stroke="#45413C" stroke-linecap="round" stroke-linejoin="round"/>
<path d="M35.0649 70.2266H21.9274L19.0649 77.2266H34.0649L35.0649 70.2266Z" fill="#BF8256" stroke="#45413C" stroke-linecap="round" stroke-linejoin="round"/>
<path d="M49.5649 70.2266H62.5649L65.5649 77.2266H50.5649L49.5649 70.2266Z" fill="#BF8256" stroke="#45413C" stroke-linecap="round" stroke-linejoin="round"/>
<path d="M33.0649 84.2266H51.5649L50.5649 77.2266H34.2554L33.0649 84.2266Z" fill="#BF8256" stroke="#45413C" stroke-linecap="round" stroke-linejoin="round"/>
<path d="M35.0649 70.2266H49.5649L48.5649 64.7266H36.0649L35.0649 70.2266Z" fill="#BF8256" stroke="#45413C" stroke-linecap="round" stroke-linejoin="round"/>
</svg>
