<svg width="88" height="82" viewBox="0 0 88 82" fill="none" xmlns="http://www.w3.org/2000/svg">
<path d="M80.0715 57.9615C82.8038 51.9299 83.98 45.3094 83.4924 38.7057C83.0049 32.1021 80.8692 25.7261 77.2807 20.1611C73.6923 14.5961 68.7656 10.0198 62.9516 6.85087C57.1375 3.68192 50.6215 2.02148 43.9999 2.02148C37.3783 2.02148 30.8624 3.68192 25.0483 6.85087C19.2342 10.0198 14.3075 14.5961 10.7191 20.1611C7.13065 25.7261 4.99495 32.1021 4.5074 38.7057C4.01985 45.3094 5.19601 51.9299 7.92827 57.9615H80.0715Z" fill="#B8ECFF"/>
<path d="M7.92822 57.9619C11.0692 64.8958 16.1421 70.7775 22.5395 74.9027C28.9369 79.0279 36.3877 81.2219 43.9999 81.2219C51.612 81.2219 59.0628 79.0279 65.4602 74.9027C71.8576 70.7775 76.9305 64.8958 80.0715 57.9619H7.92822Z" fill="#F2DFC2"/>
<path d="M0.935059 57.9619H3.41006" stroke="#45413C" stroke-linecap="round" stroke-linejoin="round"/>
<path d="M5.39014 57.9619H82.6101" stroke="#45413C" stroke-linecap="round" stroke-linejoin="round"/>
<path d="M84.5898 57.9619H87.0648" stroke="#45413C" stroke-linecap="round" stroke-linejoin="round"/>
<path d="M17.1709 58.0755H63.3445V48.9071C63.3445 46.5744 62.885 44.2645 61.9923 42.1093C61.0996 39.9541 59.7912 37.9959 58.1417 36.3464C56.4922 34.6969 54.5339 33.3884 52.3788 32.4957C50.2236 31.603 47.9137 31.1436 45.5809 31.1436C36.9501 31.1436 27.4877 37.6152 27.4877 51.0911L27.4847 51.0861C27.4843 51.7047 27.8635 57.5864 27.4847 58.0755" stroke="#45413C" stroke-linejoin="round"/>
<path d="M45.584 31.1436C42.6473 31.1416 39.756 31.8686 37.1695 33.2591C34.5829 34.6497 32.3818 36.6604 30.7637 39.1111C33.2025 42.4664 34.5723 46.4795 34.694 50.6258V58.0755H56.474V50.6258C56.5971 46.4793 57.9678 42.4663 60.4072 39.1111C58.7888 36.66 56.5873 34.649 54.0001 33.2584C51.413 31.8678 48.5212 31.1412 45.584 31.1436Z" fill="#00B8F0"/>
<path d="M45.584 36.8735C47.9939 36.8706 50.3791 37.3594 52.5935 38.3102C54.808 39.2609 56.8052 40.6534 58.4629 42.4026C59.0092 41.249 59.659 40.1472 60.4043 39.1109C58.7847 36.6617 56.5833 34.652 53.9971 33.2616C51.4108 31.8713 48.5203 31.1436 45.584 31.1436C42.6477 31.1436 39.7571 31.8713 37.1709 33.2616C34.5846 34.652 32.3833 36.6617 30.7637 39.1109C31.5086 40.1475 32.1583 41.2492 32.7051 42.4026C34.3627 40.6534 36.3599 39.2608 38.5744 38.3101C40.7889 37.3594 43.174 36.8705 45.584 36.8735Z" fill="#4ACFFF"/>
<path d="M45.584 31.1436C42.6473 31.1416 39.756 31.8686 37.1695 33.2591C34.5829 34.6497 32.3818 36.6604 30.7637 39.1111C33.2025 42.4664 34.5723 46.4795 34.694 50.6258V58.0755H56.474V50.6258C56.5971 46.4793 57.9678 42.4663 60.4072 39.1111C58.7888 36.66 56.5873 34.649 54.0001 33.2584C51.413 31.8678 48.5212 31.1412 45.584 31.1436Z" stroke="#45413C" stroke-linecap="round" stroke-linejoin="round"/>
<path d="M45.5839 55.7836L33.1099 43.3105C33.9442 45.257 34.4629 47.324 34.6463 49.4337L43.2732 58.0754H47.8906L56.5174 49.4337C56.7009 47.324 57.2195 45.257 58.0539 43.3105L45.5839 55.7836Z" fill="#FFE500" stroke="#45413C" stroke-linecap="round" stroke-linejoin="round"/>
<path d="M45.5769 38.5922L42.5752 35.5875C41.9314 34.9428 41.5697 34.0691 41.5693 33.1581V28.8506H49.5992V33.1541C49.5993 33.6064 49.5102 34.0542 49.3369 34.472C49.1636 34.8897 48.9096 35.2691 48.5894 35.5885L45.5769 38.5922Z" fill="#BF8256"/>
<path d="M45.5769 38.5922L42.5752 35.5875C41.9314 34.9428 41.5697 34.0691 41.5693 33.1581V28.8506H49.5992V33.1541C49.5993 33.6064 49.5102 34.0542 49.3369 34.472C49.1636 34.8897 48.9096 35.2691 48.5894 35.5885L45.5769 38.5922Z" stroke="#45413C" stroke-linecap="round" stroke-linejoin="round"/>
<path d="M42.5754 35.5878C41.9316 34.9431 41.5699 34.0694 41.5695 33.1583V30.7358C41.4763 30.6494 41.3654 30.5843 41.2446 30.545C41.1237 30.5057 40.9958 30.4931 40.8696 30.5081C40.5556 30.607 40.2592 30.7551 39.9915 30.9467C39.1905 31.5095 38.5649 32.2872 38.1869 33.1902C37.8089 34.0931 37.6939 35.0846 37.855 36.0501C38.2124 38.3855 38.5728 40.0339 38.845 41.0932C38.8895 41.269 38.975 41.4318 39.0946 41.5681C39.2143 41.7044 39.3645 41.8104 39.5331 41.8773C39.7017 41.9442 39.8837 41.9701 40.0643 41.9528C40.2448 41.9356 40.4187 41.8758 40.5716 41.7783L45.581 38.5885L42.5754 35.5878Z" fill="white" stroke="#45413C" stroke-linecap="round" stroke-linejoin="round"/>
<path d="M48.5867 35.5878C49.2304 34.9431 49.5921 34.0694 49.5925 33.1583V30.7358C49.6857 30.6494 49.7966 30.5843 49.9174 30.545C50.0383 30.5057 50.1662 30.4931 50.2924 30.5081C50.6064 30.607 50.9028 30.7551 51.1706 30.9467C51.9711 31.5097 52.5964 32.2875 52.9742 33.1905C53.352 34.0934 53.467 35.0847 53.306 36.0501C52.9486 38.3855 52.5882 40.0339 52.316 41.0932C52.2716 41.269 52.186 41.4318 52.0664 41.5681C51.9468 41.7044 51.7965 41.8104 51.6279 41.8773C51.4593 41.9442 51.2773 41.9701 51.0967 41.9528C50.9162 41.9356 50.7423 41.8758 50.5894 41.7783L45.584 38.5924L48.5867 35.5878Z" fill="white" stroke="#45413C" stroke-linecap="round" stroke-linejoin="round"/>
<path d="M45.5842 38.5923L40.5679 41.7821C42.2362 44.0634 43.7099 46.4809 44.9734 49.0091L45.309 49.8476C45.3246 49.908 45.3597 49.9614 45.409 49.9996C45.4583 50.0378 45.5189 50.0585 45.5812 50.0585C45.6436 50.0585 45.7042 50.0378 45.7534 49.9996C45.8027 49.9614 45.8379 49.908 45.8535 49.8476L46.1891 49.0091C47.4526 46.4809 48.9263 44.0634 50.5946 41.7821L45.5842 38.5923Z" fill="#F8F8F8" stroke="#45413C" stroke-linecap="round" stroke-linejoin="round"/>
<path d="M57.0414 19.1099V16.2498C57.0414 13.2103 55.834 10.2954 53.6848 8.14618C51.5356 5.99697 48.6206 4.78955 45.5812 4.78955C42.5417 4.78955 39.6268 5.99697 37.4776 8.14618C35.3284 10.2954 34.1209 13.2103 34.1209 16.2498V19.1149C33.5131 19.1149 32.9302 19.3563 32.5004 19.7861C32.0706 20.2159 31.8291 20.7989 31.8291 21.4067C31.8291 22.0145 32.0706 22.5975 32.5004 23.0273C32.9302 23.4571 33.5131 23.6986 34.1209 23.6986C34.1685 23.6986 34.214 23.6877 34.2615 23.6847C34.6669 26.3969 36.0326 28.8734 38.1101 30.6635C40.1876 32.4536 42.8388 33.4383 45.5812 33.4383C48.3235 33.4383 50.9747 32.4536 53.0522 30.6635C55.1298 28.8734 56.4955 26.3969 56.9008 23.6847C56.9484 23.6847 56.9939 23.6986 57.0414 23.6986C57.6493 23.6986 58.2322 23.4571 58.662 23.0273C59.0918 22.5975 59.3333 22.0145 59.3333 21.4067C59.3333 20.7989 59.0918 20.2159 58.662 19.7861C58.2322 19.3563 57.6493 19.1149 57.0414 19.1149V19.1099Z" fill="#BF8256" stroke="#45413C" stroke-linecap="round" stroke-linejoin="round"/>
<path d="M37.5591 23.9799C37.5591 24.3598 37.71 24.7242 37.9787 24.9928C38.2473 25.2615 38.6117 25.4124 38.9916 25.4124C39.3715 25.4124 39.7359 25.2615 40.0046 24.9928C40.2732 24.7242 40.4241 24.3598 40.4241 23.9799C40.4241 23.6 40.2732 23.2356 40.0046 22.9669C39.7359 22.6983 39.3715 22.5474 38.9916 22.5474C38.6117 22.5474 38.2473 22.6983 37.9787 22.9669C37.71 23.2356 37.5591 23.6 37.5591 23.9799Z" fill="#BF8256"/>
<path d="M50.7378 23.9799C50.7378 24.3598 50.8887 24.7242 51.1574 24.9928C51.426 25.2615 51.7904 25.4124 52.1703 25.4124C52.5503 25.4124 52.9146 25.2615 53.1833 24.9928C53.4519 24.7242 53.6029 24.3598 53.6029 23.9799C53.6029 23.6 53.4519 23.2356 53.1833 22.9669C52.9146 22.6983 52.5503 22.5474 52.1703 22.5474C51.7904 22.5474 51.426 22.6983 51.1574 22.9669C50.8887 23.2356 50.7378 23.6 50.7378 23.9799Z" fill="#BF8256"/>
<path d="M51.8842 20.2557C51.7422 19.9155 51.5028 19.6249 51.196 19.4204C50.8892 19.216 50.5288 19.1069 50.1601 19.1069C49.7915 19.1069 49.431 19.216 49.1242 19.4204C48.8174 19.6249 48.578 19.9155 48.436 20.2557" stroke="#45413C" stroke-linecap="round" stroke-linejoin="round"/>
<path d="M42.706 20.2556C42.5642 19.9153 42.3249 19.6246 42.0182 19.4201C41.7114 19.2156 41.351 19.1064 40.9824 19.1064C40.6137 19.1064 40.2533 19.2156 39.9466 19.4201C39.6399 19.6246 39.4005 19.9153 39.2588 20.2556" stroke="#45413C" stroke-linecap="round" stroke-linejoin="round"/>
<path d="M50.0835 27.7054H41.0745C40.9869 27.7055 40.9004 27.6858 40.8215 27.6477C40.7426 27.6096 40.6734 27.5541 40.619 27.4854C40.5646 27.4167 40.5265 27.3366 40.5075 27.2511C40.4885 27.1656 40.4891 27.0769 40.5093 26.9916C40.6675 26.3765 41.0256 25.8314 41.5274 25.442C42.0292 25.0526 42.6461 24.8409 43.2813 24.8403H47.865C48.5001 24.8409 49.117 25.0526 49.6188 25.442C50.1206 25.8314 50.4787 26.3765 50.637 26.9916C50.6569 27.0759 50.6578 27.1636 50.6394 27.2482C50.6211 27.3329 50.584 27.4124 50.5309 27.4808C50.4779 27.5493 50.4101 27.605 50.3327 27.6438C50.2553 27.6827 50.1702 27.7037 50.0835 27.7054Z" fill="#87898C" stroke="#45413C" stroke-linecap="round" stroke-linejoin="round"/>
<path d="M53.603 19.1104H57.0413" stroke="#45413C" stroke-linecap="round" stroke-linejoin="round"/>
<path d="M34.1206 19.1104H37.5589" stroke="#45413C" stroke-linecap="round" stroke-linejoin="round"/>
<path d="M37.5581 19.6824C37.5581 20.5943 37.9204 21.4688 38.5652 22.1136C39.21 22.7584 40.0845 23.1207 40.9964 23.1207C41.9083 23.1207 42.7828 22.7584 43.4276 22.1136C44.0724 21.4688 44.4346 20.5943 44.4346 19.6824C44.4346 18.7705 44.0724 17.896 43.4276 17.2512C42.7828 16.6064 41.9083 16.2441 40.9964 16.2441C40.0845 16.2441 39.21 16.6064 38.5652 17.2512C37.9204 17.896 37.5581 18.7705 37.5581 19.6824Z" stroke="#45413C" stroke-linecap="round" stroke-linejoin="round"/>
<path d="M46.7266 19.6824C46.7266 20.5943 47.0888 21.4688 47.7336 22.1136C48.3784 22.7584 49.2529 23.1207 50.1648 23.1207C51.0767 23.1207 51.9513 22.7584 52.5961 22.1136C53.2409 21.4688 53.6031 20.5943 53.6031 19.6824C53.6031 18.7705 53.2409 17.896 52.5961 17.2512C51.9513 16.6064 51.0767 16.2441 50.1648 16.2441C49.2529 16.2441 48.3784 16.6064 47.7336 17.2512C47.0888 17.896 46.7266 18.7705 46.7266 19.6824Z" stroke="#45413C" stroke-linecap="round" stroke-linejoin="round"/>
<path d="M44.4346 19.1104H46.7274" stroke="#45413C" stroke-linecap="round" stroke-linejoin="round"/>
<path d="M59.7647 9.3419C58.7952 6.82028 57.0842 4.6517 54.8573 3.12207C52.6305 1.59243 49.9923 0.773573 47.2907 0.773446H43.8742C41.5697 0.770879 39.3038 1.36509 37.2971 2.49822C35.2904 3.63135 33.6113 5.26478 32.4233 7.23949C31.2353 9.2142 30.5788 11.4629 30.5179 13.7666C30.4569 16.0703 30.9935 18.3506 32.0754 20.3853C32.2637 20.0034 32.555 19.6816 32.9164 19.4563C33.2778 19.231 33.6949 19.1111 34.1208 19.1102C34.1208 19.1102 34.1208 15.0987 36.9858 15.0987V11.6605C36.9858 11.6605 39.8509 9.36863 45.581 9.36863C51.3111 9.36863 54.1762 11.6605 54.1762 11.6605V15.0987C57.0412 15.0987 57.0412 19.1102 57.0412 19.1102C57.4671 19.1111 57.8842 19.231 58.2456 19.4563C58.607 19.6816 58.8983 20.0034 59.0866 20.3853C59.982 18.6999 60.5059 16.8421 60.6229 14.9371C60.7399 13.0322 60.4472 11.1242 59.7647 9.3419Z" fill="#87898C"/>
<path d="M31.3973 13.2237C32.3667 10.7019 34.0776 8.5331 36.3045 7.00328C38.5313 5.47346 41.1695 4.65446 43.8713 4.65425H47.2868C49.9885 4.65446 52.6267 5.47346 54.8535 7.00328C57.0804 8.5331 58.7913 10.7019 59.7608 13.2237C60.1115 14.1353 60.3601 15.0829 60.5023 16.0492C60.7804 14.1526 60.6465 12.2184 60.1098 10.3782C59.573 8.53809 58.646 6.83522 57.3919 5.3856C56.1378 3.93597 54.586 2.77363 52.8422 1.97774C51.0984 1.18185 49.2036 0.771094 47.2868 0.773452H43.8742C41.9569 0.770604 40.0614 1.18111 38.317 1.97699C36.5726 2.77287 35.0203 3.93542 33.7658 5.38544C32.5113 6.83546 31.5841 8.53886 31.0474 10.3796C30.5107 12.2203 30.3771 14.1551 30.6557 16.0521C30.7977 15.0848 31.0464 14.1362 31.3973 13.2237Z" fill="#87898C"/>
<path d="M59.7647 9.3419C58.7952 6.82028 57.0842 4.6517 54.8573 3.12207C52.6305 1.59243 49.9923 0.773573 47.2907 0.773446H43.8742C41.5697 0.770879 39.3038 1.36509 37.2971 2.49822C35.2904 3.63135 33.6113 5.26478 32.4233 7.23949C31.2353 9.2142 30.5788 11.4629 30.5179 13.7666C30.4569 16.0703 30.9935 18.3506 32.0754 20.3853C32.2637 20.0034 32.555 19.6816 32.9164 19.4563C33.2778 19.231 33.6949 19.1111 34.1208 19.1102C34.1208 19.1102 34.1208 15.0987 36.9858 15.0987V11.6605C36.9858 11.6605 39.8509 9.36863 45.581 9.36863C51.3111 9.36863 54.1762 11.6605 54.1762 11.6605V15.0987C57.0412 15.0987 57.0412 19.1102 57.0412 19.1102C57.4671 19.1111 57.8842 19.231 58.2456 19.4563C58.607 19.6816 58.8983 20.0034 59.0866 20.3853C59.982 18.6999 60.5059 16.8421 60.6229 14.9371C60.7399 13.0322 60.4472 11.1242 59.7647 9.3419Z" stroke="#45413C" stroke-linecap="round" stroke-linejoin="round"/>
<path d="M60.2083 62.1968C60.1186 61.9935 59.9718 61.8207 59.7856 61.6994C59.5995 61.5781 59.382 61.5136 59.1599 61.5137H24.5732C24.3462 61.5136 24.1242 61.581 23.9356 61.7074C23.7469 61.8338 23.6002 62.0134 23.5139 62.2235L16.4354 79.4119C16.3633 79.586 16.3352 79.7753 16.3537 79.9628C16.3722 80.1504 16.4367 80.3305 16.5414 80.4872C16.6462 80.6439 16.788 80.7723 16.9543 80.861C17.1206 80.9498 17.3062 80.9961 17.4947 80.9959H66.7433C66.934 80.9959 67.1217 80.9484 67.2895 80.8576C67.4572 80.7668 67.5996 80.6356 67.7038 80.4758C67.808 80.3161 67.8707 80.1328 67.8862 79.9427C67.9018 79.7526 67.8696 79.5617 67.7927 79.3871L60.2083 62.1968Z" fill="#F0D3A8" stroke="#45413C" stroke-linecap="round" stroke-linejoin="round"/>
<path d="M35 67H21.8625L19 74H34L35 67Z" fill="#BF8256" stroke="#45413C" stroke-linecap="round" stroke-linejoin="round"/>
<path d="M49.5 67H62.5L65.5 74H50.5L49.5 67Z" fill="#BF8256" stroke="#45413C" stroke-linecap="round" stroke-linejoin="round"/>
<path d="M33 81H51.5L50.5 74H34.1905L33 81Z" fill="#BF8256" stroke="#45413C" stroke-linecap="round" stroke-linejoin="round"/>
<path d="M35 67H49.5L48.5 61.5H36L35 67Z" fill="#BF8256" stroke="#45413C" stroke-linecap="round" stroke-linejoin="round"/>
</svg>
