<svg xmlns="http://www.w3.org/2000/svg" version="1.1" xmlns:xlink="http://www.w3.org/1999/xlink" xmlns:svgjs="http://svgjs.com/svgjs" viewBox="0 0 160 160" width="160" height="160"><g transform="matrix(1.6,0,0,1.6,0,0)"><path d="M90,50A40,40,0,1,0,13.564,66.5H86.436A39.844,39.844,0,0,0,90,50Z" fill="#c7f0ff"></path><path d="M13.564,66.5a40,40,0,0,0,72.872,0Z" fill="#f7e5c6"></path><path d="M11 66.5L89 66.5" fill="none" stroke="#45413c" stroke-linecap="round" stroke-linejoin="round"></path><path d="M6.5 66.5L9 66.5" fill="none" stroke="#45413c" stroke-linecap="round" stroke-linejoin="round"></path><path d="M91 66.5L93.5 66.5" fill="none" stroke="#45413c" stroke-linecap="round" stroke-linejoin="round"></path><path d="M40.425,41.946q-.967.036-1.933,0A34.306,34.306,0,0,1,29.254,39.9a68.23,68.23,0,0,0,9.272-3.46,1.213,1.213,0,0,1,1.657.746l.424,1.352A4.948,4.948,0,0,1,40.425,41.946Z" fill="#fff5e3" stroke="#45413c" stroke-linecap="round" stroke-linejoin="round"></path><path d="M21.516,38.8a6.959,6.959,0,0,0,.469,2.542l1.824,3.039H38.4l2.034-2.431C34.91,42.189,29.207,40,23.18,37.637A1.224,1.224,0,0,0,21.516,38.8Z" fill="#debb7e" stroke="#45413c" stroke-linecap="round" stroke-linejoin="round"></path><path d="M13.162 83.273 A27.968 2.431 0 1 0 69.098 83.273 A27.968 2.431 0 1 0 13.162 83.273 Z" fill="#45413c" opacity=".15"></path><path d="M59.362,75.372H57.843a1.216,1.216,0,1,1,0-2.431h1.519a2.735,2.735,0,1,0,0-5.47H57.843a1.216,1.216,0,1,1,0-2.431h1.519a5.166,5.166,0,1,1,0,10.332Z" fill="#ffffff" stroke="#45413c" stroke-linecap="round" stroke-linejoin="round"></path><path d="M46.296 62.609 L57.843 62.609 L57.843 77.803 L46.296 77.803 Z" fill="#f0f0f0"></path><path d="M56.793,62.609H47.345a1.051,1.051,0,0,0-1.05,1.05V66.7a1.051,1.051,0,0,1,1.05-1.05h9.448a1.05,1.05,0,0,1,1.05,1.05V63.659A1.05,1.05,0,0,0,56.793,62.609Z" fill="#ffffff"></path><path d="M25.182,58.963c-1.8,4.062-4.412,10.372-4.412,12.762A5.878,5.878,0,0,0,22.909,75.9l.726.655A4.868,4.868,0,0,0,26.888,77.8h8.468a4.866,4.866,0,0,0,3.253-1.248l.727-.655a5.831,5.831,0,0,0,2.1-4.174c0-2.391-2.612-8.7-4.412-12.763Z" fill="#b8ecff"></path><path d="M38.331,62c-.452-1.08-.9-2.118-1.31-3.039H25.182c-.408.921-.858,1.959-1.309,3.039Z" fill="#80ddff"></path><path d="M39.336,75.9a5.831,5.831,0,0,0,2.1-4.174,11.993,11.993,0,0,0-.612-3.039H21.382a11.987,11.987,0,0,0-.612,3.038A5.878,5.878,0,0,0,22.909,75.9l.726.655A4.868,4.868,0,0,0,26.888,77.8h8.468a4.866,4.866,0,0,0,3.253-1.248Z" fill="#915e3a"></path><path d="M31.1,74.764a10.325,10.325,0,0,0,9.407-6.077H21.694A10.327,10.327,0,0,0,31.1,74.764Z" fill="#bf8256"></path><path d="M23.237,46.033l3.61,9.283h8.509l3.61-9.283a1.215,1.215,0,0,0-1.133-1.656H24.37A1.215,1.215,0,0,0,23.237,46.033Z" fill="#b8ecff"></path><path d="M35.356,55.316,39,46.037a1.216,1.216,0,0,0-1.132-1.66H24.37a1.215,1.215,0,0,0-1.133,1.656l3.61,9.283S20.77,68.079,20.77,71.725A5.878,5.878,0,0,0,22.909,75.9l.726.655A4.861,4.861,0,0,0,26.888,77.8h8.468a4.866,4.866,0,0,0,3.253-1.248l.727-.655a5.831,5.831,0,0,0,2.1-4.174C41.433,68.079,35.356,55.316,35.356,55.316Z" fill="none" stroke="#45413c" stroke-linecap="round" stroke-linejoin="round"></path><path d="M64.9,80.714a2.432,2.432,0,0,1-2.174,1.344H17.714a2.432,2.432,0,0,1-2.174-1.344l-.576-1.152A1.216,1.216,0,0,1,16.051,77.8H64.385a1.216,1.216,0,0,1,1.087,1.759Z" fill="#dea47a" stroke="#45413c" stroke-linecap="round" stroke-linejoin="round"></path><path d="M38.123,57.2a1.216,1.216,0,0,1-1.087,1.759H25.168A1.217,1.217,0,0,1,24.08,57.2l.944-1.888-.682-2.046a1.216,1.216,0,0,1,1.153-1.6H36.708a1.216,1.216,0,0,1,1.153,1.6l-.682,2.046Z" fill="#f0d5a8"></path><path d="M24.417,53.494H37.786l.076-.224a1.217,1.217,0,0,0-1.154-1.6H25.5a1.216,1.216,0,0,0-1.153,1.6Z" fill="#fff5e3"></path><path d="M38.123,57.2a1.216,1.216,0,0,1-1.087,1.759H25.168A1.217,1.217,0,0,1,24.08,57.2l.944-1.888-.682-2.046a1.216,1.216,0,0,1,1.153-1.6H36.708a1.216,1.216,0,0,1,1.153,1.6l-.682,2.046Z" fill="none" stroke="#45413c" stroke-linecap="round" stroke-linejoin="round"></path><path d="M25.024 55.316L37.179 55.316" fill="none" stroke="#45413c" stroke-linecap="round" stroke-linejoin="round"></path><path d="M33.533,55.316a7.987,7.987,0,0,0-1.824,5.47" fill="none" stroke="#45413c" stroke-linecap="round" stroke-linejoin="round"></path><path d="M33.533,55.316a7.989,7.989,0,0,1,1.823,5.47" fill="none" stroke="#45413c" stroke-linecap="round" stroke-linejoin="round"></path><path d="M46.296 62.609 L57.843 62.609 L57.843 77.803 L46.296 77.803 Z" fill="none" stroke="#45413c" stroke-linecap="round" stroke-linejoin="round"></path><path d="M39.336,75.9a5.831,5.831,0,0,0,2.1-4.174,11.993,11.993,0,0,0-.612-3.039H21.382a11.987,11.987,0,0,0-.612,3.038A5.878,5.878,0,0,0,22.909,75.9l.726.655A4.868,4.868,0,0,0,26.888,77.8h8.468a4.866,4.866,0,0,0,3.253-1.248Z" fill="none" stroke="#45413c" stroke-linecap="round" stroke-linejoin="round"></path><path d="M50.746,16.081,49.3,12.134a1.216,1.216,0,0,1,.722-1.56l1.141-.42a1.216,1.216,0,0,1,1.56.722l1.426,3.878Z" fill="#c0dceb" stroke="#45413c" stroke-linecap="round" stroke-linejoin="round"></path><path d="M51.56,35.907l-.2.073a4.651,4.651,0,0,1-5.971-2.76l-1.677-4.563a7.08,7.08,0,0,0-5.2-4.488l-.892-.186a.608.608,0,0,0-.563.174l-.942.983a.608.608,0,0,0,.3,1.013c.747.169,1.343.343,1.595.395A4.626,4.626,0,0,1,41.433,29.5l1.675,4.559A7.086,7.086,0,0,0,52.2,38.262l.2-.073a1.216,1.216,0,0,0-.838-2.282Z" fill="#daedf7" stroke="#45413c" stroke-linecap="round" stroke-linejoin="round"></path><path d="M59.538,14.844A5.865,5.865,0,0,0,52.777,12.8l-2.282.839a5.866,5.866,0,0,0-3.826,5.939Z" fill="#daedf7"></path><path d="M63.946,20.927l-.921-2.508a4.558,4.558,0,0,1,8.442-3.428" fill="none" stroke="#45413c" stroke-linecap="round" stroke-linejoin="round"></path><path d="M51.353,15.8l2.282-.838a5.852,5.852,0,0,1,4.734.315l1.169-.429A5.863,5.863,0,0,0,52.777,12.8l-2.282.838a5.868,5.868,0,0,0-3.826,5.94L47.95,19.1A5.854,5.854,0,0,1,51.353,15.8Z" fill="#ffffff"></path><path d="M59.538,14.844A5.865,5.865,0,0,0,52.777,12.8l-2.282.839a5.866,5.866,0,0,0-3.826,5.939Z" fill="none" stroke="#45413c" stroke-linecap="round" stroke-linejoin="round"></path><path d="M75.7,21.2a1.825,1.825,0,0,1-1.378,2.423,1.893,1.893,0,0,1-2.079-1.257l-2.063-5.612a1.216,1.216,0,0,1,.722-1.56l1.141-.42a1.216,1.216,0,0,1,1.56.722Z" fill="#debb7e" stroke="#45413c" stroke-linecap="round" stroke-linejoin="round"></path><path d="M71.679,23.423l.636-.223A1.8,1.8,0,0,0,73.5,26.592l.53-.186a1.8,1.8,0,0,0,1.19,3.393l.742-.26-.007.007a1.8,1.8,0,0,0,1.3,3.348l4.559-1.6c4.369-1.532,4.54-3.5,7.038-4.372l3.393-1.189-3.42-9.754h0a2.739,2.739,0,0,1-2.4-.29L83.8,13.972a5.951,5.951,0,0,0-5.16-.721L75.345,14.4a2.7,2.7,0,0,0-1.654,3.439l.333.948L70.49,20.03a1.8,1.8,0,1,0,1.189,3.393Z" fill="#ffcebf"></path><path d="M73.691,17.843A2.7,2.7,0,0,1,75.345,14.4l3.291-1.153a5.951,5.951,0,0,1,5.16.721l2.634,1.719a2.739,2.739,0,0,0,2.4.29l.92,2.624a2.739,2.739,0,0,1-2.4-.29L84.715,16.6a5.952,5.952,0,0,0-5.159-.722l-3.291,1.154a2.7,2.7,0,0,0-1.654,3.439Z" fill="#ffdcd1"></path><path d="M88.831,15.981h0a2.739,2.739,0,0,1-2.4-.29L83.8,13.972a5.951,5.951,0,0,0-5.16-.721L75.345,14.4a2.7,2.7,0,0,0-1.654,3.439l.333.948L70.49,20.03a1.8,1.8,0,1,0,1.189,3.393l.636-.223A1.8,1.8,0,0,0,73.5,26.592l.53-.186a1.8,1.8,0,0,0,1.19,3.393l.742-.26-.007.007a1.8,1.8,0,0,0,1.3,3.348l4.559-1.6c4.369-1.532,4.54-3.5,7.038-4.372l3.393-1.189" fill="none" stroke="#45413c" stroke-linecap="round" stroke-linejoin="round"></path><path d="M72.315,23.2l3.119-1.094a2.182,2.182,0,0,0,2.047.434,1.957,1.957,0,0,0,.846-.612,1.8,1.8,0,0,1-.476,3.14L73.5,26.592A1.8,1.8,0,0,1,72.315,23.2Z" fill="#ffcebf" stroke="#45413c" stroke-linecap="round" stroke-linejoin="round"></path><path d="M80.672,25.984a1.8,1.8,0,0,1-1.1,2.291L75.224,29.8a1.8,1.8,0,0,1-1.189-3.393l4.346-1.523A1.8,1.8,0,0,1,80.672,25.984Z" fill="#ffcebf" stroke="#45413c" stroke-miterlimit="10"></path><path d="M81.437,29.525a1.8,1.8,0,0,1-1.1,2.291l-3.075,1.078A1.8,1.8,0,1,1,76.072,29.5l3.074-1.078A1.8,1.8,0,0,1,81.437,29.525Z" fill="#ffcebf" stroke="#45413c" stroke-miterlimit="10"></path><path d="M74.024,18.791l.916,2.616a2.02,2.02,0,0,0,3.807-1.335l-1-2.843a6.127,6.127,0,0,0,7.606,3.78l1.272-.446" fill="none" stroke="#45413c" stroke-linecap="round" stroke-linejoin="round"></path><path d="M69.775,32.887a2.431,2.431,0,0,1-1.371,3.3L53.947,41.5a2.43,2.43,0,0,1-3.179-1.625L45.937,21.03a1.215,1.215,0,0,1,.751-1.469L59.73,14.768a1.216,1.216,0,0,1,1.524.633Z" fill="#daedf7"></path><path d="M60.174,35.607a14.212,14.212,0,0,0,7.663-6.7L61.254,15.4a1.215,1.215,0,0,0-1.524-.633L46.688,19.561a1.214,1.214,0,0,0-.751,1.469L49.6,35.3A14.22,14.22,0,0,0,60.174,35.607Z" fill="#ffffff"></path><path d="M69.775,32.887a2.431,2.431,0,0,1-1.371,3.3L53.947,41.5a2.43,2.43,0,0,1-3.179-1.625L45.937,21.03a1.215,1.215,0,0,1,.751-1.469L59.73,14.768a1.216,1.216,0,0,1,1.524.633Z" fill="none" stroke="#45413c" stroke-linecap="round" stroke-linejoin="round"></path><path d="M30.208,33.589s-2.2-1.863-2.236-4.21S30.835,23.6,30.67,22a2.238,2.238,0,0,0-4.188-.6c-1.9-.485-.99-5.361,3.146-5.361,2.651,0,4.854,2.465,3.3,6.516C31.284,26.845,29.088,28.633,30.208,33.589Z" fill="#ffffff" stroke="#adc4d9" stroke-linecap="round" stroke-linejoin="round"></path><path d="M73.17,55.375,76.806,53l1.058-5.4a.608.608,0,0,0-.377-.684.6.6,0,0,0-.219-.041.607.607,0,0,0-.52.294l-4.27,7.058Z" fill="#6dd627" stroke="#45413c" stroke-miterlimit="10"></path><path d="M68.151,53l5.92,3.859-5.862-9.69a.607.607,0,0,0-.52-.294.6.6,0,0,0-.219.041.61.61,0,0,0-.378.684Z" fill="#6dd627" stroke="#45413c" stroke-linecap="round" stroke-linejoin="round"></path><path d="M78.4,52.5a.611.611,0,0,0-.734-.053L68.81,58.217h7.318l2.417-5A.609.609,0,0,0,78.4,52.5Z" fill="#9ceb60" stroke="#45413c" stroke-linecap="round" stroke-linejoin="round"></path><path d="M72.478,54.231l1.838-3.037-1.235-5.865a.608.608,0,0,0-.584-.482H72.49a.608.608,0,0,0-.593.46l-1.409,5.634Z" fill="#46b000" stroke="#45413c" stroke-miterlimit="10"></path><path d="M76.148,58.217l-8.857-5.774a.611.611,0,0,0-.734.053.608.608,0,0,0-.145.721l2.417,5Z" fill="#9ceb60" stroke="#45413c" stroke-linecap="round" stroke-linejoin="round"></path><path d="M76.683,63.687H68.175L67.288,59.7a1.215,1.215,0,0,1,1.186-1.479h7.91A1.215,1.215,0,0,1,77.57,59.7Z" fill="#e8f4fa"></path><path d="M67.479,60.558l.047-.063a1.219,1.219,0,0,1,.948-.455h7.909a1.219,1.219,0,0,1,.949.455l.046.063.192-.862a1.215,1.215,0,0,0-1.187-1.479H68.474A1.215,1.215,0,0,0,67.288,59.7Z" fill="#ffffff"></path><path d="M76.683,63.687H68.175L67.288,59.7a1.215,1.215,0,0,1,1.186-1.479h7.91A1.215,1.215,0,0,1,77.57,59.7Z" fill="none" stroke="#45413c" stroke-linejoin="round"></path><path d="M68.175 63.687H76.684V66.118H68.175z" fill="#e8f4fa" stroke="#45413c" stroke-linejoin="round"></path></g></svg>