<svg xmlns="http://www.w3.org/2000/svg" viewBox="0 0 48 48" height="48" width="48"><g transform="matrix(0.48,0,0,0.48,0,0)"><circle cx="50" cy="50" r="40" stroke-miterlimit="10" fill="#C7F0FF" stroke="#C7F0FF"></circle><path d="m65.848 86.086-.589-17.592a4.715 4.715 0 0 0-.614-2.326l-1.333-2.351a10.317 10.317 0 0 1-1.349-5.208l.067-5.8a10.282 10.282 0 0 0-.839-4.181l-2.844-7.986a2.1 2.1 0 0 1 1.183-2.771 2.222 2.222 0 0 1 2.87 1.147l5.294 8.7c.373-.842 3.189-7.793-.816-17.314a2.671 2.671 0 0 1 1.536-3.521 2.83 2.83 0 0 1 3.643 1.485 33.536 33.536 0 0 1 1.321 3.788 43.872 43.872 0 0 0-2.248-8.568 2.679 2.679 0 0 1 1.688-3.455 2.819 2.819 0 0 1 3.574 1.632c2.841 7.657 2.639 12.979 2.912 19.783a86.305 86.305 0 0 0-1.27-14.521 3.435 3.435 0 0 1 2.428-3.71 2.794 2.794 0 0 1 3.3 2.1c1.4 6.534 3.989 23.867-2.1 38.463a12.767 12.767 0 0 0-.985 4.9l.589 7.79a35.854 35.854 0 0 1-15.418 9.516z" fill="#d18660"></path><path d="m65.848 86.087-.589-17.593a4.715 4.715 0 0 0-.614-2.326l-1.333-2.351a10.317 10.317 0 0 1-1.349-5.208l.067-5.8a10.282 10.282 0 0 0-.839-4.181l-2.844-7.986a2.1 2.1 0 0 1 1.183-2.771 2.222 2.222 0 0 1 2.87 1.147l5.294 8.7c.373-.842 3.189-7.793-.816-17.314a2.671 2.671 0 0 1 1.536-3.521 2.83 2.83 0 0 1 3.643 1.485 33.536 33.536 0 0 1 1.321 3.788 43.872 43.872 0 0 0-2.248-8.568 2.679 2.679 0 0 1 1.688-3.455 2.819 2.819 0 0 1 3.574 1.632c2.841 7.657 2.639 12.979 2.912 19.783a86.305 86.305 0 0 0-1.27-14.521 3.435 3.435 0 0 1 2.428-3.71 2.794 2.794 0 0 1 3.3 2.1c1.4 6.534 3.989 23.867-2.1 38.463a12.767 12.767 0 0 0-.985 4.9l.589 7.79" stroke-linejoin="round" stroke-linecap="round" stroke="#45413c" fill="none"></path><path d="M73.37 32.076a36.716 36.716 0 0 1-.36 13.724" stroke-linecap="round" stroke="#45413c" fill="none" stroke-miterlimit="10"></path><path d="M79.306 41.55a18.737 18.737 0 0 1-1.084 6.994" stroke="#45413c" fill="none" stroke-miterlimit="10"></path><path d="m33.759 86.086.59-17.592a4.7 4.7 0 0 1 .614-2.326l1.337-2.351a10.306 10.306 0 0 0 1.348-5.208l-.066-5.8a10.3 10.3 0 0 1 .838-4.181l2.845-7.986a2.1 2.1 0 0 0-1.184-2.771 2.221 2.221 0 0 0-2.867 1.144l-5.294 8.7c-.373-.842-3.19-7.793.816-17.314a2.672 2.672 0 0 0-1.536-3.517 2.829 2.829 0 0 0-3.642 1.485 33.536 33.536 0 0 0-1.321 3.788 43.8 43.8 0 0 1 2.248-8.568 2.68 2.68 0 0 0-1.688-3.455 2.819 2.819 0 0 0-3.574 1.632c-2.841 7.657-2.639 12.979-2.912 19.783a86.305 86.305 0 0 1 1.27-14.521 3.436 3.436 0 0 0-2.428-3.71 2.794 2.794 0 0 0-3.3 2.1c-1.4 6.534-3.989 23.867 2.1 38.463a12.767 12.767 0 0 1 .985 4.9l-.59 6.949a51.881 51.881 0 0 0 15.411 10.356z" fill="#d18660"></path><path d="m33.759 86.087.59-17.593a4.7 4.7 0 0 1 .614-2.326l1.337-2.351a10.306 10.306 0 0 0 1.348-5.208l-.066-5.8a10.3 10.3 0 0 1 .838-4.181l2.845-7.986a2.1 2.1 0 0 0-1.184-2.771 2.221 2.221 0 0 0-2.867 1.144l-5.294 8.7c-.373-.842-3.19-7.793.816-17.314a2.672 2.672 0 0 0-1.536-3.517 2.829 2.829 0 0 0-3.642 1.485 33.536 33.536 0 0 0-1.321 3.788 43.8 43.8 0 0 1 2.248-8.568 2.68 2.68 0 0 0-1.688-3.455 2.819 2.819 0 0 0-3.574 1.632c-2.841 7.657-2.639 12.979-2.912 19.783a86.305 86.305 0 0 1 1.27-14.521 3.436 3.436 0 0 0-2.428-3.71 2.794 2.794 0 0 0-3.3 2.1c-1.4 6.534-3.989 23.867 2.1 38.463a12.767 12.767 0 0 1 .985 4.9l-.59 6.949" stroke-linejoin="round" stroke-linecap="round" stroke="#45413c" fill="none"></path><path d="M26.238 32.076A36.74 36.74 0 0 0 26.6 45.8" stroke-linecap="round" stroke="#45413c" fill="none" stroke-miterlimit="10"></path><path d="M20.3 41.55a18.737 18.737 0 0 0 1.084 6.994" stroke="#45413c" fill="none" stroke-miterlimit="10"></path><path stroke="#ff6242" stroke-width="1.5" stroke-linejoin="round" stroke-linecap="round" fill="none" d="m13.327 42.88 60.923 9.176m11.992-9.176-60.924 9.176m-4.774-6.748c2.019 2.149 16.285 16.829 29.26 16.829 13.196 0 27.721-15.744 29.351-17.557"></path><path d="m19.724 55.551-1.006-11.272a2.893 2.893 0 0 1 2.616-3.173 2.946 2.946 0 0 1 3.283 2.528l.741 9.011c2.08 1.544 3.853 2.571 4.185 5.407l.388 3.31m49.953-5.811 1.006-11.272a2.893 2.893 0 0 0-2.616-3.173 2.946 2.946 0 0 0-3.283 2.528l-.741 9.011c-2.08 1.544-3.854 2.571-4.186 5.407l-.387 3.31" stroke-linejoin="round" stroke-linecap="round" stroke="#45413c" fill="#d18660"></path><path stroke="#ff6242" stroke-width="1.5" stroke-linejoin="round" stroke-linecap="round" fill="none" d="M80.882 54.277H18.726"></path></g></svg>