<svg width="160" height="160" viewBox="0 0 160 160" fill="none" xmlns="http://www.w3.org/2000/svg">
<path d="M79.9995 144C115.346 144 144 115.346 144 79.9995C144 44.6533 115.346 15.9995 79.9995 15.9995C44.6533 15.9995 15.9995 44.6533 15.9995 79.9995C15.9995 115.346 44.6533 144 79.9995 144Z" fill="#C7F0FF" stroke="#C7F0FF" stroke-width="1.5" stroke-miterlimit="10"/>
<path opacity="0.15" d="M79.9999 118.959C98.5567 118.959 113.6 117.662 113.6 116.062C113.6 114.461 98.5567 113.164 79.9999 113.164C61.4431 113.164 46.3999 114.461 46.3999 116.062C46.3999 117.662 61.4431 118.959 79.9999 118.959Z" fill="#45413C"/>
<path d="M112.686 45.0879H47.313C44.7654 45.0879 42.7002 47.1531 42.7002 49.7007V110.096C42.7002 112.643 44.7654 114.709 47.313 114.709H112.686C115.233 114.709 117.299 112.643 117.299 110.096V49.7007C117.299 47.1531 115.233 45.0879 112.686 45.0879Z" fill="#DEBB7E"/>
<path opacity="0.7" d="M117.299 49.7007C117.299 48.4773 116.813 47.304 115.948 46.4389C115.082 45.5739 113.909 45.0879 112.686 45.0879H47.313C46.0896 45.0879 44.9163 45.5739 44.0513 46.4389C43.1862 47.304 42.7002 48.4773 42.7002 49.7007V60.9599C42.7002 59.7365 43.1862 58.5632 44.0513 57.6982C44.9163 56.8331 46.0896 56.3471 47.313 56.3471H112.686C113.909 56.3471 115.082 56.8331 115.948 57.6982C116.813 58.5632 117.299 59.7365 117.299 60.9599V49.7007Z" fill="#F7E5C6"/>
<path d="M89.0924 66.1631C89.092 66.6085 88.9149 67.0356 88.5999 67.3506C88.2849 67.6655 87.8578 67.8427 87.4124 67.8431H72.5916C72.1461 67.8431 71.7187 67.6661 71.4037 67.351C71.0886 67.036 70.9116 66.6087 70.9116 66.1631V45.0879H89.0924V66.1631Z" fill="#FFF5E3" stroke="#45413C" stroke-width="1.5" stroke-linecap="round" stroke-linejoin="round"/>
<path d="M112.686 45.0879H47.313C44.7654 45.0879 42.7002 47.1531 42.7002 49.7007V110.096C42.7002 112.643 44.7654 114.709 47.313 114.709H112.686C115.233 114.709 117.299 112.643 117.299 110.096V49.7007C117.299 47.1531 115.233 45.0879 112.686 45.0879Z" stroke="#45413C" stroke-width="1.5" stroke-linecap="round" stroke-linejoin="round"/>
<path d="M109.004 90.4121H81.0551C80.1714 90.4121 79.4551 91.1285 79.4551 92.0121V105.246C79.4551 106.129 80.1714 106.846 81.0551 106.846H109.004C109.888 106.846 110.604 106.129 110.604 105.246V92.0121C110.604 91.1285 109.888 90.4121 109.004 90.4121Z" fill="white" stroke="#45413C" stroke-width="1.5" stroke-linecap="round" stroke-linejoin="round"/>
<path d="M105.679 94.8779V102.38M84.7988 94.8779V102.38V94.8779ZM88.2788 94.8779V102.38V94.8779ZM95.2388 94.8779V102.38V94.8779ZM98.7188 94.8779V102.38V94.8779ZM102.199 94.8779V102.38V94.8779Z" stroke="#45413C" stroke-width="1.5" stroke-linecap="round" stroke-linejoin="round"/>
</svg>
