<svg xmlns="http://www.w3.org/2000/svg" version="1.1" xmlns:xlink="http://www.w3.org/1999/xlink" xmlns:svgjs="http://svgjs.com/svgjs" viewBox="0 0 160 160" width="160" height="160"><g transform="matrix(1.6,0,0,1.6,0,0)"><path d="M10.000 50.000 A40.000 40.000 0 1 0 90.000 50.000 A40.000 40.000 0 1 0 10.000 50.000 Z" fill="#c7f0ff" stroke="#c7f0ff" stroke-miterlimit="10"></path><path d="M35.812 82.887 A11.16 1.674 0 1 0 58.132 82.887 A11.16 1.674 0 1 0 35.812 82.887 Z" fill="#45413c" opacity=".15"></path><path d="M30.424 20.414 L80.644 20.414 L80.644 58.079 L30.424 58.079 Z" fill="#ffffff" transform="translate(3.367 82.868) rotate(-75.152)"></path><path d="M67.641,67.066a1.321,1.321,0,0,1-1.616.939L32.172,59.03a1.321,1.321,0,0,1-.938-1.616L42.409,15.261l9.66-2.911,2.506.665c.008.023.016.046.023.07l3.119,10.35,11.155.69a1.434,1.434,0,0,1,1.342,1.52L68.2,58.206l.954,3.164Z" fill="#c7f0ff"></path><path d="M30.424 20.414 L80.644 20.414 L80.644 58.079 L30.424 58.079 Z" fill="none" stroke="#45413c" stroke-linecap="round" stroke-linejoin="round" transform="translate(3.367 82.868) rotate(-75.152)"></path><path d="M21.621 18.712 L59.286 18.712 L59.286 68.932 L21.621 68.932 Z" fill="#ffffff" transform="translate(-10.925 13.538) rotate(-16.772)"></path><path d="M65.35,61.164,53.887,23.133l-25.32-1.569A1.426,1.426,0,0,0,27.056,22.9L24.912,57.516l4.375,14.517a1.322,1.322,0,0,0,1.646.884L64.466,62.81A1.321,1.321,0,0,0,65.35,61.164Z" fill="#f0f0f0"></path><path d="M21.621 18.712 L59.286 18.712 L59.286 68.932 L21.621 68.932 Z" fill="none" stroke="#45413c" stroke-linecap="round" stroke-linejoin="round" transform="translate(-10.925 13.538) rotate(-16.772)"></path><path d="M22.688 30.932 L72.908 30.932 L72.908 68.597 L22.688 68.597 Z" fill="#ffffff" transform="translate(-4.827 94.394) rotate(-86.456)"></path><path d="M22.688 30.932 L72.908 30.932 L72.908 68.597 L22.688 68.597 Z" fill="none" stroke="#45413c" stroke-linecap="round" stroke-linejoin="round" transform="translate(-4.827 94.394) rotate(-86.456)"></path><path d="M36.602 46.252L37.982 47.823 42.438 43.35" fill="none" stroke="#ff6242" stroke-linecap="round" stroke-linejoin="round" stroke-width="1.5"></path><path d="M43.938,47.269l.66.767a1.221,1.221,0,0,0,1.722.129l.767-.659a1.221,1.221,0,0,1,1.722.129l.66.767a1.221,1.221,0,0,0,1.722.129l.767-.659A1.221,1.221,0,0,1,53.68,48l.792.865A1.221,1.221,0,0,0,56.194,49l.767-.659a1.221,1.221,0,0,1,1.722.129l.841.941" fill="none" stroke="#656769" stroke-linecap="round" stroke-linejoin="round"></path><path d="M37.536 36.086L38.915 37.656 43.372 33.183" fill="none" stroke="#ff6242" stroke-linecap="round" stroke-linejoin="round" stroke-width="1.5"></path><path d="M44.872,37.1l.66.767A1.22,1.22,0,0,0,47.253,38l.767-.659a1.222,1.222,0,0,1,1.723.129l.659.767a1.221,1.221,0,0,0,1.722.129l.767-.659a1.221,1.221,0,0,1,1.722.129l.792.865a1.22,1.22,0,0,0,1.722.13l.767-.66a1.22,1.22,0,0,1,1.722.13l.842.94" fill="none" stroke="#656769" stroke-linecap="round" stroke-linejoin="round"></path><path d="M35.608 57.087L36.987 58.658 41.444 54.185" fill="none" stroke="#ff6242" stroke-linecap="round" stroke-linejoin="round" stroke-width="1.5"></path><path d="M43,57.549l.66.766a1.219,1.219,0,0,0,1.721.13l.767-.66a1.221,1.221,0,0,1,1.723.13l.659.766a1.22,1.22,0,0,0,1.722.13l.767-.66a1.22,1.22,0,0,1,1.722.13" fill="none" stroke="#656769" stroke-linecap="round" stroke-linejoin="round"></path></g></svg>