<svg viewBox="0 0 160 160" height="160" width="160" xmlns="http://www.w3.org/2000/svg"><g transform="matrix(1.6,0,0,1.6,0,0)"><path d="M10.000 50.000 A40.000 40.000 0 1 0 90.000 50.000 A40.000 40.000 0 1 0 10.000 50.000 Z" fill="#C7F0FF" stroke="#daedf7"></path><path d="M35.702 81.148 A14.798 1.811 0 1 0 65.298 81.148 A14.798 1.811 0 1 0 35.702 81.148 Z" fill="#45413c" opacity=".15"></path><path d="M24.910 21.670 L76.090 21.670 L76.090 72.850 L24.910 72.850 Z" fill="#fff"></path><path d="M70.84,68.424H30.16a5.251,5.251,0,0,1-5.25-5.25V67.6a5.25,5.25,0,0,0,5.25,5.25H70.84a5.25,5.25,0,0,0,5.25-5.25V63.174A5.251,5.251,0,0,1,70.84,68.424Z" fill="#f0f0f0"></path><path d="M24.910 21.670 L76.090 21.670 L76.090 72.850 L24.910 72.850 Z" fill="none" stroke="#45413c" stroke-linecap="round" stroke-linejoin="round"></path><path d="M24.91 47.259L76.09 47.259" fill="none" stroke="#45413c" stroke-linecap="round" stroke-linejoin="round"></path><path d="M50.5 21.67L50.5 72.849" fill="none" stroke="#45413c" stroke-linecap="round" stroke-linejoin="round"></path><path d="M43.509,32.364h-3.7v-3.7a2.1,2.1,0,1,0-4.2,0v3.7H31.9a2.1,2.1,0,1,0,0,4.2h3.705v3.7a2.1,2.1,0,1,0,4.2,0v-3.7h3.7a2.1,2.1,0,0,0,0-4.2Z" fill="#6dd627" stroke="#46b000" stroke-linecap="round" stroke-linejoin="round"></path><path d="M40.675,60.054l2.619-2.619a2.1,2.1,0,0,0-2.97-2.97l-2.619,2.62-2.619-2.62a2.1,2.1,0,0,0-2.97,2.97l2.62,2.619-2.62,2.62a2.1,2.1,0,1,0,2.97,2.969l2.619-2.619,2.619,2.619a2.1,2.1,0,1,0,2.97-2.969Z" fill="#00b8f0" stroke="#00658a" stroke-linecap="round" stroke-linejoin="round"></path><path d="M69.1,36.564H57.491a2.1,2.1,0,0,1,0-4.2H69.1a2.1,2.1,0,0,1,0,4.2Z" fill="#ff6242" stroke="#e04122" stroke-linecap="round" stroke-linejoin="round"></path><path d="M67.393,65.913H59.2a2.1,2.1,0,0,1,0-4.2h8.2a2.1,2.1,0,0,1,0,4.2Z" fill="#ffe500" stroke="#b58b00" stroke-linecap="round" stroke-linejoin="round"></path><path d="M67.393,58.4H59.2a2.1,2.1,0,0,1,0-4.2h8.2a2.1,2.1,0,0,1,0,4.2Z" fill="#ffe500" stroke="#b58b00" stroke-linecap="round" stroke-linejoin="round"></path></g></svg>