<svg width="160" height="160" viewBox="0 0 160 160" fill="none" xmlns="http://www.w3.org/2000/svg">
<path d="M16 80C16 96.9739 22.7428 113.253 34.7452 125.255C46.7475 137.257 63.0261 144 80 144C96.9739 144 113.253 137.257 125.255 125.255C137.257 113.253 144 96.9739 144 80C144 63.0261 137.257 46.7475 125.255 34.7452C113.253 22.7428 96.9739 16 80 16C63.0261 16 46.7475 22.7428 34.7452 34.7452C22.7428 46.7475 16 63.0261 16 80V80Z" fill="#C7F0FF"/>
<path d="M27.4713 108C27.6846 103.787 28.0846 99.92 28.6713 96.4C29.3113 92.8267 30.1913 89.44 31.3113 86.24C32.4846 82.9867 33.9779 79.84 35.7913 76.8C37.6046 73.7067 39.8446 70.48 42.5113 67.12H16.9913V57.2H55.1513V64.4C51.9513 67.9733 49.3646 71.3333 47.3913 74.48C45.4179 77.5733 43.8713 80.8 42.7513 84.16C41.6313 87.4667 40.8313 91.04 40.3513 94.88C39.8713 98.6667 39.5246 103.04 39.3113 108H27.4713ZM123.92 108.96C120.987 108.96 118.347 108.64 116 108C113.653 107.307 111.653 106.347 110 105.12C108.347 103.893 107.067 102.427 106.16 100.72C105.307 99.0133 104.88 97.12 104.88 95.04C104.88 93.4933 105.12 92.1067 105.6 90.88C106.133 89.6 106.827 88.4533 107.68 87.44C108.587 86.4267 109.6 85.52 110.72 84.72C111.893 83.92 113.147 83.2 114.48 82.56V82.24C112.347 80.7467 110.56 79.0667 109.12 77.2C107.733 75.28 107.04 72.96 107.04 70.24C107.04 68.1067 107.467 66.1867 108.32 64.48C109.173 62.72 110.347 61.2267 111.84 60C113.387 58.7733 115.227 57.84 117.36 57.2C119.493 56.56 121.813 56.24 124.32 56.24C126.88 56.24 129.173 56.5867 131.2 57.28C133.28 57.92 135.04 58.8533 136.48 60.08C137.92 61.2533 139.013 62.72 139.76 64.48C140.56 66.1867 140.96 68.08 140.96 70.16C140.96 72.56 140.24 74.6933 138.8 76.56C137.413 78.4267 135.707 80 133.68 81.28V81.6C135.013 82.24 136.267 82.9867 137.44 83.84C138.613 84.64 139.627 85.5733 140.48 86.64C141.333 87.7067 142 88.9333 142.48 90.32C142.96 91.6533 143.2 93.1733 143.2 94.88C143.2 96.9067 142.773 98.7733 141.92 100.48C141.067 102.187 139.813 103.68 138.16 104.96C136.56 106.187 134.56 107.173 132.16 107.92C129.76 108.613 127.013 108.96 123.92 108.96ZM127.44 78.4C130 76.1067 131.28 73.6267 131.28 70.96C131.28 68.9867 130.667 67.4133 129.44 66.24C128.213 65.0133 126.427 64.4 124.08 64.4C122.213 64.4 120.613 64.88 119.28 65.84C118 66.8 117.36 68.2667 117.36 70.24C117.36 72.32 118.293 73.9467 120.16 75.12C122.027 76.2933 124.453 77.3867 127.44 78.4ZM124.24 100.8C126.64 100.8 128.56 100.293 130 99.28C131.493 98.2133 132.24 96.6133 132.24 94.48C132.24 93.3067 131.947 92.32 131.36 91.52C130.773 90.72 129.92 90 128.8 89.36C127.733 88.6667 126.453 88.0533 124.96 87.52C123.467 86.9333 121.813 86.2933 120 85.6C118.56 86.6667 117.36 87.8667 116.4 89.2C115.493 90.5333 115.04 92.0267 115.04 93.68C115.04 95.92 115.92 97.68 117.68 98.96C119.44 100.187 121.627 100.8 124.24 100.8Z" fill="url(#paint0_linear)"/>
<path fill-rule="evenodd" clip-rule="evenodd" d="M81.6575 69C82.0617 69.0004 82.4259 69.244 82.5805 69.6174C82.7352 69.9909 82.6498 70.4207 82.3642 70.7067L76.0708 77H94.0002C94.5524 77 95.0002 77.4477 95.0002 78V82C95.0002 82.5523 94.5524 83 94.0002 83H76.0708L82.3642 89.2933C82.6498 89.5793 82.7352 90.0091 82.5805 90.3826C82.4259 90.756 82.0617 90.9996 81.6575 91H76.4148C75.8843 91.0002 75.3754 90.7897 75.0002 90.4147L65.2935 80.7067C65.1059 80.5193 65.0005 80.2651 65.0005 80C65.0005 79.7349 65.1059 79.4807 65.2935 79.2933L75.0002 69.5853C75.3754 69.2103 75.8843 68.9998 76.4148 69H81.6575Z" stroke="url(#paint1_linear)" stroke-width="1.5" stroke-linecap="round" stroke-linejoin="round"/>
<defs>
<linearGradient id="paint0_linear" x1="80" y1="12" x2="80" y2="148" gradientUnits="userSpaceOnUse">
<stop stop-color="#2200FF"/>
<stop offset="1" stop-color="#9E00FF"/>
</linearGradient>
<linearGradient id="paint1_linear" x1="80.0003" y1="69" x2="80.0003" y2="91" gradientUnits="userSpaceOnUse">
<stop stop-color="#2200FF"/>
<stop offset="1" stop-color="#9E00FF"/>
</linearGradient>
</defs>
</svg>
