<svg viewBox="0 0 48 48" height="48" width="48" xmlns="http://www.w3.org/2000/svg"><g transform="matrix(0.48,0,0,0.48,0,0)"><path d="M90,50A40,40,0,1,0,13.564,66.5H86.436A39.844,39.844,0,0,0,90,50Z" fill="#c7f0ff"></path><path d="M13.564,66.5a40,40,0,0,0,72.872,0Z" fill="#ccf7ad"></path><path d="M11 66.5L89 66.5" fill="none" stroke="#45413c" stroke-linecap="round" stroke-linejoin="round"></path><path d="M6.5 66.5L9 66.5" fill="none" stroke="#45413c" stroke-linecap="round" stroke-linejoin="round"></path><path d="M91 66.5L93.5 66.5" fill="none" stroke="#45413c" stroke-linecap="round" stroke-linejoin="round"></path><path d="M86.593,59.28H68.543V43.035l13.237,1.2a4.813,4.813,0,0,1,4.813,4.813Z" fill="#ffe500"></path><path d="M81.78,44.238l-13.237-1.2v3.008l13.237,1.2a4.813,4.813,0,0,1,4.813,4.814V49.051A4.813,4.813,0,0,0,81.78,44.238Z" fill="#fff48c"></path><path d="M86.593,59.28H68.543V43.035l13.237,1.2a4.813,4.813,0,0,1,4.813,4.813Z" fill="none" stroke="#45413c" stroke-linecap="round" stroke-linejoin="round"></path><path d="M60.384,54.467H43.438l-5.845-5.512a12.623,12.623,0,0,1,22.791,5.512Z" fill="#656769" stroke="#45413c" stroke-linecap="round" stroke-linejoin="round"></path><path d="M70.95,54.467H60.384a12.623,12.623,0,0,0-22.791-5.512l-.939-1.107,7.822-5.415.072-.83L45.679,29.2H67.941Z" fill="#87898c" stroke="#45413c" stroke-linecap="round" stroke-linejoin="round"></path><path d="M47.587,37.68a.5.5,0,0,0,.5.541A18.042,18.042,0,0,1,65.432,51.333a1,1,0,0,0,.961.727h.424a1,1,0,0,0,.993-1.117L65.639,32.486a1,1,0,0,0-.994-.883H49.007a1,1,0,0,0-1,.918Z" fill="#00b8f0"></path><path d="M49.007,31.6a1,1,0,0,0-1,.918l-.424,5.159a.5.5,0,0,0,.5.541,17.938,17.938,0,0,1,6.861,1.369L62.934,31.6Z" fill="#4acfff"></path><path d="M56.51 54.467H77.569V60.484H56.51z" fill="#87898c" stroke="#45413c" stroke-linecap="round" stroke-linejoin="round"></path><path d="M56.51 54.467H77.569V60.484H56.51z" fill="#656769"></path><path d="M56.51 58.077H77.569V60.483999999999995H56.51z" fill="#525252"></path><path d="M56.51 54.467H77.569V60.484H56.51z" fill="none" stroke="#45413c" stroke-linecap="round" stroke-linejoin="round"></path><path d="M88,59.28H81.178V55.67H88a1,1,0,0,1,1,1v1.61A1,1,0,0,1,88,59.28Z" fill="#656769" stroke="#45413c" stroke-linecap="round" stroke-linejoin="round"></path><path d="M43.974,28.353a.5.5,0,0,0,.363.843H69.886a.5.5,0,0,0,.365-.842,4.522,4.522,0,0,0-3.513-1.565H47.484A4.543,4.543,0,0,0,43.974,28.353Z" fill="#fff48c" stroke="#45413c" stroke-linecap="round" stroke-linejoin="round"></path><path d="M72.153 59.280 A7.220 7.220 0 1 0 86.593 59.280 A7.220 7.220 0 1 0 72.153 59.280 Z" fill="#525252" transform="translate(-5.769 109.926) rotate(-67.5)"></path><path d="M79.373,53.872a7.222,7.222,0,0,1,7.164,6.314,7.322,7.322,0,0,0,.056-.906,7.22,7.22,0,0,0-14.44,0,7.132,7.132,0,0,0,.057.906A7.221,7.221,0,0,1,79.373,53.872Z" fill="#656769"></path><path d="M72.153 59.280 A7.220 7.220 0 1 0 86.593 59.280 A7.220 7.220 0 1 0 72.153 59.280 Z" fill="none" stroke="#45413c" stroke-linecap="round" stroke-linejoin="round" transform="translate(-5.769 109.926) rotate(-67.5)"></path><path d="M82.983,59.28a3.61,3.61,0,1,1-3.61-3.61A3.61,3.61,0,0,1,82.983,59.28Z" fill="#daedf7"></path><path d="M79.373,57.357a3.612,3.612,0,0,1,3.511,2.767,3.61,3.61,0,1,0-7.121-.844,3.665,3.665,0,0,0,.1.844A3.613,3.613,0,0,1,79.373,57.357Z" fill="#c0dceb"></path><path d="M82.983,59.28a3.61,3.61,0,1,1-3.61-3.61A3.61,3.61,0,0,1,82.983,59.28Z" fill="none" stroke="#45413c" stroke-linecap="round" stroke-linejoin="round"></path><path d="M80.576,59.28a1.2,1.2,0,1,1-1.2-1.2A1.2,1.2,0,0,1,80.576,59.28Z" fill="#adc4d9"></path><path d="M79.373,59.139a1.2,1.2,0,0,1,1.08.672,1.2,1.2,0,1,0-2.16,0A1.2,1.2,0,0,1,79.373,59.139Z" fill="#c0dceb"></path><path d="M80.576,59.28a1.2,1.2,0,1,1-1.2-1.2A1.2,1.2,0,0,1,80.576,59.28Z" fill="none" stroke="#45413c" stroke-linecap="round" stroke-linejoin="round"></path><path d="M62.815,54.467H60.384a12.623,12.623,0,0,0-22.791-5.512,11.278,11.278,0,0,0-1.071,1.8,1.207,1.207,0,0,1-1.083.7,1.193,1.193,0,0,1-1.095-1.7,15.012,15.012,0,0,1,10.2-8.158A15.047,15.047,0,0,1,62.815,54.467Z" fill="#ffe500" stroke="#45413c" stroke-linecap="round" stroke-linejoin="round"></path><path d="M57.479,57.547a1,1,0,0,0,.836-.986v-.579A1,1,0,0,0,57.479,55l-.411-.069a9.025,9.025,0,0,0-1.68-4.056l.242-.339a1,1,0,0,0-.107-1.289l-.409-.409a1,1,0,0,0-1.288-.106l-.339.242a9.017,9.017,0,0,0-4.057-1.68l-.068-.411a1,1,0,0,0-.987-.836H47.8a1,1,0,0,0-.987.836l-.068.411a9.017,9.017,0,0,0-4.057,1.68l-.339-.242a1,1,0,0,0-1.288.106l-.409.409a1,1,0,0,0-.107,1.289l.242.339a9.025,9.025,0,0,0-1.68,4.056L38.693,55a1,1,0,0,0-.835.986v.579a1,1,0,0,0,.835.986l.411.069a9.025,9.025,0,0,0,1.68,4.056l-.242.339a1,1,0,0,0,.107,1.289l.409.409a1,1,0,0,0,1.288.106l.339-.242a9.017,9.017,0,0,0,4.057,1.68l.068.411a1,1,0,0,0,.987.836h.578a1,1,0,0,0,.987-.836l.068-.411a9.017,9.017,0,0,0,4.057-1.68l.339.242a1,1,0,0,0,1.288-.106l.409-.409a1,1,0,0,0,.107-1.289l-.242-.339a9.025,9.025,0,0,0,1.68-4.056Z" fill="#525252"></path><path d="M40.784,50.871a9.012,9.012,0,0,0-1.676,4.037,10.416,10.416,0,0,1,17.957,0,9.03,9.03,0,0,0-1.677-4.037l.242-.339a1,1,0,0,0-.107-1.289l-.409-.409a1,1,0,0,0-1.288-.106l-.339.242a9.022,9.022,0,0,0-4.057-1.68l-.068-.411a1,1,0,0,0-.987-.836H47.8a1,1,0,0,0-.987.836l-.068.411a9.017,9.017,0,0,0-4.057,1.68l-.339-.242a1,1,0,0,0-1.288.106l-.409.409a1,1,0,0,0-.107,1.289Z" fill="#656769"></path><path d="M57.479,57.547a1,1,0,0,0,.836-.986v-.579A1,1,0,0,0,57.479,55l-.411-.069a9.025,9.025,0,0,0-1.68-4.056l.242-.339a1,1,0,0,0-.107-1.289l-.409-.409a1,1,0,0,0-1.288-.106l-.339.242a9.017,9.017,0,0,0-4.057-1.68l-.068-.411a1,1,0,0,0-.987-.836H47.8a1,1,0,0,0-.987.836l-.068.411a9.017,9.017,0,0,0-4.057,1.68l-.339-.242a1,1,0,0,0-1.288.106l-.409.409a1,1,0,0,0-.107,1.289l.242.339a9.025,9.025,0,0,0-1.68,4.056L38.693,55a1,1,0,0,0-.835.986v.579a1,1,0,0,0,.835.986l.411.069a9.025,9.025,0,0,0,1.68,4.056l-.242.339a1,1,0,0,0,.107,1.289l.409.409a1,1,0,0,0,1.288.106l.339-.242a9.017,9.017,0,0,0,4.057,1.68l.068.411a1,1,0,0,0,.987.836h.578a1,1,0,0,0,.987-.836l.068-.411a9.017,9.017,0,0,0,4.057-1.68l.339.242a1,1,0,0,0,1.288-.106l.409-.409a1,1,0,0,0,.107-1.289l-.242-.339a9.025,9.025,0,0,0,1.68-4.056Z" fill="none" stroke="#45413c" stroke-linecap="round" stroke-linejoin="round"></path><path d="M42.671 56.272 A5.415 5.415 0 1 0 53.501 56.272 A5.415 5.415 0 1 0 42.671 56.272 Z" fill="#daedf7"></path><path d="M48.086,52.617a5.415,5.415,0,0,1,5.343,4.535,5.415,5.415,0,1,0-10.758-.88,5.558,5.558,0,0,0,.071.88A5.417,5.417,0,0,1,48.086,52.617Z" fill="#c0dceb"></path><path d="M42.671 56.272 A5.415 5.415 0 1 0 53.501 56.272 A5.415 5.415 0 1 0 42.671 56.272 Z" fill="none" stroke="#45413c" stroke-linecap="round" stroke-linejoin="round"></path><path d="M47.587,37.68a.5.5,0,0,0,.5.541A18.042,18.042,0,0,1,65.432,51.333a1,1,0,0,0,.961.727h.424a1,1,0,0,0,.993-1.117L65.639,32.486a1,1,0,0,0-.994-.883H49.007a1,1,0,0,0-1,.918Z" fill="none" stroke="#45413c" stroke-linecap="round" stroke-linejoin="round"></path><path d="M49.891,56.272a1.8,1.8,0,1,1-1.8-1.8A1.805,1.805,0,0,1,49.891,56.272Z" fill="#adc4d9"></path><path d="M48.086,55.925A1.8,1.8,0,0,1,49.737,57a1.805,1.805,0,1,0-3.3,0A1.8,1.8,0,0,1,48.086,55.925Z" fill="#c0dceb"></path><path d="M49.891,56.272a1.8,1.8,0,1,1-1.8-1.8A1.805,1.805,0,0,1,49.891,56.272Z" fill="none" stroke="#45413c" stroke-linecap="round" stroke-linejoin="round"></path><path d="M48.086,52.06a.6.6,0,1,0,.6.6.6.6,0,0,0-.6-.6Z" fill="#45413c"></path><path d="M50.639,53.117a.6.6,0,1,0,0,1.2.6.6,0,0,0,.425-.176.6.6,0,0,0-.425-1.027Z" fill="#45413c"></path><path d="M51.7,55.67a.6.6,0,1,0,.6.6.6.6,0,0,0-.6-.6Z" fill="#45413c"></path><path d="M50.639,58.223a.6.6,0,1,0,.425.176.6.6,0,0,0-.425-.176Z" fill="#45413c"></path><path d="M48.086,59.28a.6.6,0,1,0,.6.6.6.6,0,0,0-.6-.6Z" fill="#45413c"></path><path d="M45.533,58.223a.6.6,0,0,0-.425.176.6.6,0,1,0,.425-.176Z" fill="#45413c"></path><path d="M44.476,55.67a.6.6,0,1,0,.6.6.6.6,0,0,0-.6-.6Z" fill="#45413c"></path><path d="M45.533,53.117a.6.6,0,1,0,.426.176.6.6,0,0,0-.426-.176Z" fill="#45413c"></path><path d="M53.501 31.603L53.501 39.064" fill="none" stroke="#45413c" stroke-linecap="round" stroke-linejoin="round"></path><path d="M88,52.661H86.593V48.45H88a1,1,0,0,1,1,1v2.211A1,1,0,0,1,88,52.661Z" fill="#ffe500"></path><path d="M88,48.45H86.593V50H88a1,1,0,0,1,1,1V49.45A1,1,0,0,0,88,48.45Z" fill="#fff48c"></path><path d="M88,52.661H86.593V48.45H88a1,1,0,0,1,1,1v2.211A1,1,0,0,1,88,52.661Z" fill="none" stroke="#45413c" stroke-linecap="round" stroke-linejoin="round"></path><path d="M81.78 47.246L77.568 47.246" fill="none" stroke="#45413c" stroke-linecap="round" stroke-linejoin="round"></path><path d="M81.78 49.653L77.568 49.653" fill="none" stroke="#45413c" stroke-linecap="round" stroke-linejoin="round"></path><path d="M77.568,43.855V33.615a.5.5,0,0,0-.146-.353l-1.407-1.407a.5.5,0,0,0-.854.353V43.636Z" fill="#daedf7" stroke="#45413c" stroke-linecap="round" stroke-linejoin="round"></path><path d="M42.74,49.159v.763H38.163v9.917H21.38V49.922H16.8v-.763a12.969,12.969,0,0,1,25.937,0Z" fill="#ff6242"></path><path d="M29.772,36.19A12.981,12.981,0,0,0,16.8,49.159v.763h.213a12.971,12.971,0,0,1,25.513,0h.211v-.763A12.969,12.969,0,0,0,29.772,36.19Z" fill="#ff866e"></path><path d="M42.74,49.159v.763H38.163v9.917H21.38V49.922H16.8v-.763a12.969,12.969,0,0,1,25.937,0Z" fill="none" stroke="#45413c" stroke-linecap="round" stroke-linejoin="round"></path><path d="M17.382 84.121 A12.679 1.902 0 1 0 42.740 84.121 A12.679 1.902 0 1 0 17.382 84.121 Z" fill="#45413c" opacity=".15"></path><path d="M21.38 69.756L21.38 82.724 27.483 82.724 28.047 69.756 21.38 69.756z" fill="#656769" stroke="#45413c" stroke-linecap="round" stroke-linejoin="round"></path><path d="M31.496 69.756L32.06 82.724 38.163 82.724 38.163 69.756 31.496 69.756z" fill="#656769" stroke="#45413c" stroke-linecap="round" stroke-linejoin="round"></path><path d="M38.165 49.922L38.165 45.345" fill="#00b8f0" stroke="#45413c" stroke-linecap="round" stroke-linejoin="round"></path><path d="M21.383 49.922L21.383 45.345" fill="#00b8f0" stroke="#45413c" stroke-linecap="round" stroke-linejoin="round"></path><path d="M21.38,63.653a2.289,2.289,0,1,1-4.577,0V49.922H21.38Z" fill="#ffda8f"></path><path d="M16.803 49.922H21.380000000000003V52.251H16.803z" fill="#ffbe3d"></path><path d="M21.38,63.653a2.289,2.289,0,1,1-4.577,0V49.922H21.38Z" fill="none" stroke="#45413c" stroke-linecap="round" stroke-linejoin="round"></path><path d="M42.74,63.653a2.289,2.289,0,1,1-4.577,0V49.922H42.74Z" fill="#ffda8f"></path><path d="M38.163 49.922H42.739999999999995V52.251H38.163z" fill="#ffbe3d"></path><path d="M42.74,63.653a2.289,2.289,0,1,1-4.577,0V49.922H42.74Z" fill="none" stroke="#45413c" stroke-linecap="round" stroke-linejoin="round"></path><path d="M20.423,81.526a1.266,1.266,0,0,0,1.061,1.961H26.7a1.268,1.268,0,0,0,1.126-1.85C26.443,78.963,22,79.111,20.423,81.526Z" fill="#656769" stroke="#45413c" stroke-linecap="round" stroke-linejoin="round"></path><path d="M39.126,81.526a1.267,1.267,0,0,1-1.062,1.961H32.845a1.268,1.268,0,0,1-1.126-1.85C33.1,78.963,37.545,79.111,39.126,81.526Z" fill="#656769" stroke="#45413c" stroke-linecap="round" stroke-linejoin="round"></path><path d="M24.432,46.108h3.051L25.342,36.97a12.9,12.9,0,0,0-2.23,1.064C23.111,38.041,24.432,46.108,24.432,46.108Z" fill="#f0f0f0" stroke="#45413c" stroke-linecap="round" stroke-linejoin="round"></path><path d="M24.306,42.778l1.055-.513a.635.635,0,0,1,.514-.018l3.9,1.572-4.427-6.851a12.972,12.972,0,0,0-2.236,1.068L23.4,42.25A.635.635,0,0,0,24.306,42.778Z" fill="#ff866e" stroke="#45413c" stroke-linecap="round" stroke-linejoin="round"></path><path d="M35.111,46.108H32.06L34.2,36.97a12.9,12.9,0,0,1,2.23,1.064C36.432,38.041,35.111,46.108,35.111,46.108Z" fill="#f0f0f0" stroke="#45413c" stroke-linecap="round" stroke-linejoin="round"></path><path d="M35.237,42.778l-1.055-.513a.635.635,0,0,0-.514-.018l-3.9,1.572L34.2,36.968a12.972,12.972,0,0,1,2.236,1.068l-.287,4.214A.635.635,0,0,1,35.237,42.778Z" fill="#ff866e" stroke="#45413c" stroke-linecap="round" stroke-linejoin="round"></path><path d="M35.111,46.108H24.432c0,4.068-.944,6.39-3.052,8.391V69.756h6.684l.121-2.7a1.589,1.589,0,0,1,3.173,0l.121,2.7h6.684V54.5C36.055,52.5,35.111,50.176,35.111,46.108Z" fill="#f0f0f0" stroke="#45413c" stroke-linecap="round" stroke-linejoin="round"></path><path d="M29.772,56.025a3.051,3.051,0,0,1-3.052-3.052v-1.02a1.268,1.268,0,0,1,1.268-1.268h3.567a1.268,1.268,0,0,1,1.268,1.268v1.02A3.051,3.051,0,0,1,29.772,56.025Z" fill="#e0e0e0" stroke="#45413c" stroke-linecap="round" stroke-linejoin="round"></path><path d="M20.617 69.756 L29.008 69.756 L29.008 72.807 L20.617 72.807 Z" fill="#656769" stroke="#45413c" stroke-linecap="round" stroke-linejoin="round"></path><path d="M30.534 69.756 L38.925 69.756 L38.925 72.807 L30.534 72.807 Z" fill="#656769" stroke="#45413c" stroke-linecap="round" stroke-linejoin="round"></path><path d="M32.424,35.685V33.634h-5.3v2.051a.992.992,0,0,1-.735.962q-.526.137-1.032.319s4.42,6.853,4.42,6.853,4.422-6.849,4.419-6.853q-.506-.183-1.032-.319A.992.992,0,0,1,32.424,35.685Z" fill="#ffda8f" stroke="#45413c" stroke-linecap="round" stroke-linejoin="round"></path><path d="M38.94,20.138c-1.061-2.267-3.38-4.048-4.68-3.438-1.038-1.913-2.839-2.282-5.341-2.282-4.551,0-8.064,3.447-8.368,6.847-.449,5.022,2.149,6.276,7.481,6.276l5.95-.162a3.8,3.8,0,0,0,1.872-.553c.753-.458,1.818-1.092,2.392-1.36C39.69,24.791,40,22.406,38.94,20.138Z" fill="#614b44"></path><path d="M39.506,22.067l.011,0a6.7,6.7,0,0,0-.577-1.927c-1.061-2.267-3.38-4.048-4.68-3.438-1.038-1.913-2.839-2.282-5.341-2.282-4.551,0-8.064,3.447-8.368,6.847a6.2,6.2,0,0,0,.753,4.176l.006.008a9.969,9.969,0,0,1,0-1.9c.3-3.4,3.816-6.847,8.368-6.847,2.5,0,4.3.369,5.34,2.283C36.252,18.405,38.381,19.976,39.506,22.067Z" fill="#947063"></path><path d="M38.94,20.138c-1.061-2.267-3.38-4.048-4.68-3.438-1.038-1.913-2.839-2.282-5.341-2.282-4.551,0-8.064,3.447-8.368,6.847-.449,5.022,2.149,6.276,7.481,6.276l5.95-.162a3.8,3.8,0,0,0,1.872-.553c.753-.458,1.818-1.092,2.392-1.36C39.69,24.791,40,22.406,38.94,20.138Z" fill="none" stroke="#45413c" stroke-linecap="round" stroke-linejoin="round"></path><path d="M37.3,25.829l-.85.422a.635.635,0,0,1-.892-.393l-.9-3.138a1.51,1.51,0,0,0-1.776-1.07,13.839,13.839,0,0,1-6.408,0A1.51,1.51,0,0,0,24.7,22.72l-.9,3.133a.633.633,0,0,1-.894.392l-.826-.416c-2.171,0-2.025,3.8.38,3.8h.006a7.558,7.558,0,0,0,14.442,0h.006C39.323,29.633,39.469,25.829,37.3,25.829Z" fill="#ffda8f" stroke="#45413c" stroke-linecap="round" stroke-linejoin="round"></path><path d="M24.373 28.111 A0.761 0.761 0 1 0 25.895 28.111 A0.761 0.761 0 1 0 24.373 28.111 Z" fill="#ffbe3d"></path><path d="M33.502 28.111 A0.761 0.761 0 1 0 35.024 28.111 A0.761 0.761 0 1 0 33.502 28.111 Z" fill="#ffbe3d"></path><path d="M27.8,30.579a3.432,3.432,0,0,0,3.8,0" fill="none" stroke="#45413c" stroke-linecap="round" stroke-linejoin="round"></path><path d="M25.887,26.24a1.078,1.078,0,0,1,1.526,0" fill="none" stroke="#45413c" stroke-linecap="round" stroke-linejoin="round"></path><path d="M31.99,26.24a1.078,1.078,0,0,1,1.526,0" fill="none" stroke="#45413c" stroke-linecap="round" stroke-linejoin="round"></path></g></svg>