<svg width="112" height="112" fill="none" xmlns="http://www.w3.org/2000/svg">
  <path d="M0 56a56.0003 56.0003 0 0056 56 56.0003 56.0003 0 0056-56A56.0003 56.0003 0 0056 0 56.0003 56.0003 0 000 56z" fill="#C7F0FF"/>
  <g filter="url(#filter0_d)">
    <rect x="6" y="39.264" width="93.6609" height="49.5267" rx="8" transform="rotate(-10 6 39.264)" fill="#fff"/>
  </g>
  <path d="M42.3451 67.3583c-.5882.1037-1.0516-.1287-1.3902-.6972-.3385-.5685-.6721-1.3545-1.0006-2.358l-.2335-.7712a71.5916 71.5916 0 01-1.6399-4.8774c-.4854-1.6474-1.032-3.6414-1.6397-5.9821l-.6002-2.2987c-1.2569.2433-3.0624.5075-5.4167.7926l-.6358.0797c-.2979.0308-.532-.0687-.7025-.2986-.1532-.2546-.2706-.613-.3521-1.0752l2.1745-.3834c3.6556-.6446 6.9781-1.0896 9.9675-1.3351 2.9895-.2455 4.5583.0519 4.7065.8923.0407.2311.0265.396-.0427.4949-.0482.0951-.1879.1631-.419.2038-.8515.0852-2.1855.1363-4.0022.1533-.4103.0074-.9064.0191-1.4885.0351-.5821.0159-1.2377.0449-1.9668.0868.5372 3.0463 1.815 7.6518 3.8334 13.8162.0976.3078.3243.7335.6801 1.2773.1495.2336.2922.4901.4281.7694.1532.2546.2502.4974.291.7285.0518.2942.0413.4802-.0316.558-.0729.0778-.1724.1279-.2985.1501l-.2206.0389zM52.7838 65.5177c-.4832.0852-.996-.5501-1.5383-1.9058-.546-1.3768-.9518-2.5725-1.2174-3.5871-.2655-1.0147-.6682-2.6225-1.2079-4.8236-.084-.3534-.176-.8138-.276-1.381-.126-.7143-.1605-1.2173-.1036-1.509.0779-.2953.2534-.4671.5265-.5152.2311-.0408.4189-.0197.5635.0631.1619.0581.3139.1829.456.3745l.1907 1.2661c.2371 1.3446.5243 2.6045.8615 3.7798.3582 1.1716.8622 2.74 1.512 4.705.3236.8527.567 1.5572.73 2.1133.0939.2867.0932.5901-.002.9102-.0989.299-.2639.4689-.495.5097zm-3.844-17.1937c-.4622.0815-.8404-.036-1.1344-.3524-.2731-.3201-.456-.7428-.5486-1.268-.0407-.2311-.0598-.401-.0574-.5098-.0802-.3324.0792-.5338.4784-.6042.2941-.0519.6012-.0302.9213.065.3373.0705.4485.1483.3336.2336.3064.5092.4874.9214.543 1.2365.0481.2731.024.5048-.0724.6951-.1002.1693-.2547.3374-.4635.5042zM76.7875 61.2852c-.3151.0555-.519.0048-.6117-.1521-.0963-.178-.1779-.456-.2445-.8342-.005-.1508-.0241-.3207-.0574-.5098-.0371-.2101-.0544-.3695-.0519-.4783-.0517-1.0306-.1573-1.9977-.3166-2.9011-.3519-1.9958-.9622-3.4912-1.8308-4.4862-.8723-1.0159-2.0333-1.3961-3.483-1.1405-.7983.1408-1.5615.4811-2.2894 1.0211-.707.5362-1.2607 1.1429-1.6612 1.8201-.3795.6734-.5266 1.2518-.4414 1.735.2124.5907.533 1.3032.9617 2.1375.0396.1013.181.4121.4244.9324.2644.5166.4355.9955.5133 1.4367l.1371.5932c.0593.3362-.0792.5339-.4153.5932-.4202.0741-.815-.1379-1.1845-.636-.3484-.5018-.782-1.3027-1.3009-2.4026-.5152-1.0789-.9847-1.9601-1.4085-2.6436-.4238-.6835-.9341-1.2434-1.5309-1.6797-.5969-.4363-1.2839-.5859-2.0613-.4489-1.0715.189-1.847.7048-2.3266 1.5476-.4586.839-.5934 1.7943-.4045 2.8657.1259.7144.3557 1.6487.6892 2.8029.2606.8639.4465 1.611.5576 2.2413.0667.3781.0747.6692.024.8731-.0507.2039-.2336.3336-.5487.3892-.4202.0741-.7384-.0106-.9547-.2541-.2199-.2645-.3817-.6909-.4855-1.2792-.2037-1.1555-.5131-2.5415-.9281-4.158-.058-.2063-.1945-.7347-.4094-1.5849a22.5729 22.5729 0 01-.4983-2.6416l-.1519-1.0456c.1038-.1482.2398-.2372.4079-.2668.2311-.0408.4461.0729.645.3411.2162.2435.3744.6489.4744 1.2161.2188-.6018.594-1.177 1.1254-1.7256.5315-.5486 1.1334-.8822 1.8057-1.0008 1.1555-.2037 2.154-.1307 2.9956.2192.8588.3251 1.696.9574 2.5115 1.8967.3993-1.1752 1.1205-2.2447 2.1637-3.2085 1.0642-.9675 2.2265-1.5624 3.4871-1.7846 1.3025-.2297 2.4716.0732 3.5071.9088 1.0565.8318 1.9066 1.9059 2.5502 3.2221.6647 1.3125 1.1008 2.557 1.3082 3.7335.1853 1.0505.2685 2.0756.2498 3.0754.0024.996-.3116 1.5496-.9419 1.6608z" fill="#000"/>
  <defs>
    <filter id="filter0_d" x="2" y="21" width="108.838" height="73.0383" filterUnits="userSpaceOnUse" color-interpolation-filters="sRGB">
      <feFlood flood-opacity="0" result="BackgroundImageFix"/>
      <feColorMatrix in="SourceAlpha" values="0 0 0 0 0 0 0 0 0 0 0 0 0 0 0 0 0 0 127 0"/>
      <feOffset dy="2"/>
      <feGaussianBlur stdDeviation="2"/>
      <feColorMatrix values="0 0 0 0 0.309804 0 0 0 0 0.448157 0 0 0 0 0.803922 0 0 0 0.3 0"/>
      <feBlend in2="BackgroundImageFix" result="effect1_dropShadow"/>
      <feBlend in="SourceGraphic" in2="effect1_dropShadow" result="shape"/>
    </filter>
  </defs>
</svg>
