<svg viewBox="0 0 48 48" height="48" width="48" xmlns="http://www.w3.org/2000/svg"><g transform="matrix(0.48,0,0,0.48,0,0)"><path d="M10.000 52.769 A40.000 40.000 0 1 0 90.000 52.769 A40.000 40.000 0 1 0 10.000 52.769 Z" fill="#e8f4fa" stroke="#daedf7"></path><path d="M71.076,54.613a1.051,1.051,0,0,0-1.368-.716l-4.144,1.3c-.509.182-.623.835-.512,1.364a14.449,14.449,0,0,1,.326,3.147,15.632,15.632,0,1,1-31.259,0,14.511,14.511,0,0,1,.326-3.147c.111-.529,0-1.182-.511-1.364l-4.145-1.3a1.052,1.052,0,0,0-1.368.716,17,17,0,0,0-.622,5.1A22.393,22.393,0,0,0,40.231,79.851V93.4H59.266V79.851A22.393,22.393,0,0,0,71.7,59.712,16.972,16.972,0,0,0,71.076,54.613Z" fill="#e8f4fa"></path><path d="M34.119,63.109a15.632,15.632,0,1,0,31.259,0c-.019-.59-.033-1.023-.064-1.427a15.66,15.66,0,0,1-31.131,0C34.152,62.086,34.138,62.519,34.119,63.109Z" fill="#ffffff"></path><path d="M34.151,58.815a12.283,12.283,0,0,1,.294-2.25c.111-.529,0-1.182-.511-1.364l-4.145-1.3a1.052,1.052,0,0,0-1.368.716,18.039,18.039,0,0,0-.439,2.03Z" fill="#ffffff"></path><path d="M65.346,58.815a12.283,12.283,0,0,0-.294-2.25c-.111-.529,0-1.182.512-1.364l4.144-1.3a1.051,1.051,0,0,1,1.368.716,17.821,17.821,0,0,1,.439,2.03Z" fill="#ffffff"></path><path d="M50.611 77.79L48.886 77.79 46.819 94.047 49.749 97.403 52.678 94.047 50.611 77.79z" fill="#ff6242" stroke="#45413c" stroke-linecap="round" stroke-linejoin="round"></path><path d="M49.749,75.624a15.49,15.49,0,0,1-1.911-.118v5.58a1.05,1.05,0,0,0,1.05,1.05h1.721a1.05,1.05,0,0,0,1.05-1.05v-5.58A15.486,15.486,0,0,1,49.749,75.624Z" fill="#ff6242" stroke="#45413c" stroke-linecap="round" stroke-linejoin="round"></path><path d="M29.789,53.9l4.145,1.3a.725.725,0,0,1,.206.115l.807-2.73a2.564,2.564,0,0,0-4.881-1.57l-.936,2.866A1.054,1.054,0,0,1,29.789,53.9Z" fill="#ffcebf" stroke="#45413c" stroke-linecap="round" stroke-linejoin="round"></path><path d="M69.711,53.9l-4.144,1.3a.7.7,0,0,0-.206.115l-.807-2.73a2.563,2.563,0,1,1,4.88-1.57l.937,2.866A1.057,1.057,0,0,0,69.711,53.9Z" fill="#ffcebf" stroke="#45413c" stroke-linecap="round" stroke-linejoin="round"></path><path d="M44.659,79.747a1.05,1.05,0,0,0,1.457.689l3.633-1.68-3.54-3.539a15.756,15.756,0,0,1-2.991-1.025Z" fill="#ffffff" stroke="#45413c" stroke-linecap="round" stroke-linejoin="round"></path><path d="M54.838,79.747a1.049,1.049,0,0,1-1.456.689l-3.633-1.68,3.539-3.539a15.789,15.789,0,0,0,2.992-1.025Z" fill="#ffffff" stroke="#45413c" stroke-linecap="round" stroke-linejoin="round"></path><path d="M59.266,93.4V79.851A22.393,22.393,0,0,0,71.7,59.712a16.972,16.972,0,0,0-.622-5.1,1.051,1.051,0,0,0-1.368-.716l-4.144,1.3c-.509.182-.623.835-.512,1.364a14.449,14.449,0,0,1,.326,3.147,15.632,15.632,0,1,1-31.259,0,14.511,14.511,0,0,1,.326-3.147c.111-.529,0-1.182-.511-1.364l-4.145-1.3a1.052,1.052,0,0,0-1.368.716,17,17,0,0,0-.622,5.1A22.393,22.393,0,0,0,40.231,79.851V93.4" fill="none" stroke="#45413c" stroke-linecap="round" stroke-linejoin="round"></path><path d="M46.209 75.217L49.749 78.756 53.288 75.217 53.288 71.505 46.209 71.505 46.209 75.217z" fill="#ffcebf" stroke="#45413c" stroke-linecap="round" stroke-linejoin="round"></path><path d="M59.928,65.323a1.791,1.791,0,0,0-1.454-1.744V62.415a8.726,8.726,0,1,0-17.451,0v1.164a1.781,1.781,0,0,0,.183,3.526,8.726,8.726,0,0,0,17.085,0A1.8,1.8,0,0,0,59.928,65.323Z" fill="#ffcebf" stroke="#45413c" stroke-linecap="round" stroke-linejoin="round"></path><path d="M43.931 66.414 A1.091 1.091 0 1 0 46.113 66.414 A1.091 1.091 0 1 0 43.931 66.414 Z" fill="#ffb59e"></path><path d="M53.384 66.414 A1.091 1.091 0 1 0 55.566 66.414 A1.091 1.091 0 1 0 53.384 66.414 Z" fill="#ffb59e"></path><path d="M56.634,54.483a.436.436,0,0,1-.089-.457A7.05,7.05,0,0,0,57,52.1a.437.437,0,0,0-.52-.465c-1.461.29-2.593.172-5.532-.04a9.574,9.574,0,0,0-1.194-.083A9.453,9.453,0,0,0,40.3,60.96v1.055A1.564,1.564,0,0,0,41.366,63.5a1.035,1.035,0,0,0,1.343-.779,7.13,7.13,0,0,1,3.026-4.856.437.437,0,0,1,.524.022,4.4,4.4,0,0,0,2.764.894A4.832,4.832,0,0,0,50.5,58.55a.436.436,0,0,1,.473.142,2.162,2.162,0,0,0,3.272.126.431.431,0,0,1,.316-.138.437.437,0,0,1,.317.134,7.163,7.163,0,0,1,1.917,3.905,1.035,1.035,0,0,0,1.343.779A1.564,1.564,0,0,0,59.2,62.015V60.96A9.419,9.419,0,0,0,56.634,54.483Z" fill="#ffc44d"></path><path d="M50.205,53.506a9.412,9.412,0,0,1,1.194.084,22.147,22.147,0,0,0,5.269.088A6.954,6.954,0,0,0,57,52.1a.437.437,0,0,0-.52-.465c-1.461.289-2.592.172-5.532-.04a9.587,9.587,0,0,0-1.194-.083A9.452,9.452,0,0,0,40.3,60.96v1.055a1.562,1.562,0,0,0,.455,1.1v-.158A9.453,9.453,0,0,1,50.205,53.506Z" fill="#ffdb94"></path><path d="M56.634,54.483a.436.436,0,0,1-.089-.457A7.05,7.05,0,0,0,57,52.1a.437.437,0,0,0-.52-.465c-1.461.29-2.593.172-5.532-.04a9.574,9.574,0,0,0-1.194-.083A9.453,9.453,0,0,0,40.3,60.96v1.055A1.564,1.564,0,0,0,41.366,63.5a1.035,1.035,0,0,0,1.343-.779,7.13,7.13,0,0,1,3.026-4.856.437.437,0,0,1,.524.022,4.4,4.4,0,0,0,2.764.894A4.832,4.832,0,0,0,50.5,58.55a.436.436,0,0,1,.473.142,2.162,2.162,0,0,0,3.272.126.431.431,0,0,1,.316-.138.437.437,0,0,1,.317.134,7.163,7.163,0,0,1,1.917,3.905,1.035,1.035,0,0,0,1.343.779A1.564,1.564,0,0,0,59.2,62.015V60.96A9.419,9.419,0,0,0,56.634,54.483Z" fill="none" stroke="#45413c" stroke-linecap="round" stroke-linejoin="round"></path><path d="M47.3,66.05h-3.09a1,1,0,0,1-1-1V62.715a.3.3,0,0,1,.3-.3H48a.3.3,0,0,1,.3.3V65.05A1,1,0,0,1,47.3,66.05Z" fill="#00b8f0"></path><path d="M55.294,66.05H52.2a1,1,0,0,1-1-1V62.715a.3.3,0,0,1,.3-.3h4.49a.3.3,0,0,1,.3.3V65.05A1,1,0,0,1,55.294,66.05Z" fill="#00b8f0"></path><path d="M51.519,62.415a.315.315,0,0,0-.315.315V65a1.05,1.05,0,0,0,1.05,1.05h.4l2.182-3.635Z" fill="#4acfff"></path><path d="M43.521,62.415a.315.315,0,0,0-.315.315V65a1.05,1.05,0,0,0,1.05,1.05h.4l2.182-3.635Z" fill="#4acfff"></path><path d="M55.294,66.05H52.2a1,1,0,0,1-1-1V62.715a.3.3,0,0,1,.3-.3h4.49a.3.3,0,0,1,.3.3V65.05A1,1,0,0,1,55.294,66.05Z" fill="none" stroke="#45413c" stroke-linecap="round" stroke-linejoin="round"></path><path d="M48.296 63.142L51.204 63.142" fill="none" stroke="#45413c" stroke-linecap="round" stroke-linejoin="round"></path><path d="M47.3,66.05h-3.09a1,1,0,0,1-1-1V62.715a.3.3,0,0,1,.3-.3H48a.3.3,0,0,1,.3.3V65.05A1,1,0,0,1,47.3,66.05Z" fill="none" stroke="#45413c" stroke-linecap="round" stroke-linejoin="round"></path><path d="M52.481,68.618a2.607,2.607,0,0,1-5.212.036Z" fill="#ff6242" stroke="#45413c" stroke-linecap="round" stroke-linejoin="round"></path><path d="M30.630 38.480 A19.120 19.120 0 1 0 68.870 38.480 A19.120 19.120 0 1 0 30.630 38.480 Z" fill="#ff6242" stroke="#45413c" stroke-linecap="round" stroke-linejoin="round"></path><path d="M64.09,38.48A14.34,14.34,0,1,1,49.75,24.14,14.339,14.339,0,0,1,64.09,38.48Z" fill="#ffffff"></path><path d="M63.883,40.918a14.323,14.323,0,0,0-28.266,0,14.34,14.34,0,1,1,28.266,0Z" fill="#e5f8ff"></path><path d="M64.09,38.48A14.34,14.34,0,1,1,49.75,24.14,14.339,14.339,0,0,1,64.09,38.48Z" fill="none" stroke="#45413c" stroke-linecap="round" stroke-linejoin="round"></path><path d="M55.486 38.48L49.75 38.48 49.75 27.964" fill="none" stroke="#45413c" stroke-linecap="round" stroke-linejoin="round"></path><path d="M57.862 30.368L56.51 31.72" fill="none" stroke="#45413c" stroke-linecap="round" stroke-linejoin="round"></path><path d="M61.222 38.48L59.31 38.48" fill="none" stroke="#45413c" stroke-linecap="round" stroke-linejoin="round"></path><path d="M57.862 46.591L56.51 45.239" fill="none" stroke="#45413c" stroke-linecap="round" stroke-linejoin="round"></path><path d="M49.75 49.952L49.75 48.04" fill="none" stroke="#45413c" stroke-linecap="round" stroke-linejoin="round"></path><path d="M41.639 46.591L42.991 45.239" fill="none" stroke="#45413c" stroke-linecap="round" stroke-linejoin="round"></path><path d="M38.278 38.48L40.19 38.48" fill="none" stroke="#45413c" stroke-linecap="round" stroke-linejoin="round"></path><path d="M41.639 30.368L42.991 31.72" fill="none" stroke="#45413c" stroke-linecap="round" stroke-linejoin="round"></path><path d="M49.75,11.833c-1.424,0-2.929-4.1-2.929-6.308a2.929,2.929,0,0,1,5.858,0C52.679,7.731,51.173,11.833,49.75,11.833Z" fill="#ffffff" stroke="#627b8c" stroke-linecap="round" stroke-linejoin="round"></path><path d="M36.11,15.473c-1.578,0-4.294-2.485-5.23-4.107a2.929,2.929,0,1,1,5.073-2.928,11.39,11.39,0,0,1,1.2,3.978c.176,1.536-.041,2.638-.579,2.948A.909.909,0,0,1,36.11,15.473Z" fill="#ffffff" stroke="#627b8c" stroke-linecap="round" stroke-linejoin="round"></path><path d="M24.951,25.652A11.483,11.483,0,0,1,20,24.394a2.927,2.927,0,0,1-1.073-4,2.925,2.925,0,0,1,4-1.072c1.911,1.1,4.711,4.458,4,5.69C26.684,25.425,25.984,25.652,24.951,25.652Z" fill="#ffffff" stroke="#627b8c" stroke-linecap="round" stroke-linejoin="round"></path><path d="M78.038,57.456a2.93,2.93,0,0,1-1.462-.394c-1.91-1.1-4.71-4.458-4-5.69.238-.412.939-.639,1.972-.639a11.483,11.483,0,0,1,4.956,1.258,2.928,2.928,0,0,1,1.072,4A2.938,2.938,0,0,1,78.038,57.456Z" fill="#ffffff" stroke="#627b8c" stroke-linecap="round" stroke-linejoin="round"></path><path d="M17.083,41.121a2.929,2.929,0,1,1,0-5.857c2.206,0,6.308,1.5,6.308,2.928S19.289,41.121,17.083,41.121Z" fill="#ffffff" stroke="#627b8c" stroke-linecap="round" stroke-linejoin="round"></path><path d="M82.417,41.121c-2.206,0-6.308-1.505-6.308-2.929s4.1-2.928,6.308-2.928a2.929,2.929,0,1,1,0,5.857Z" fill="#ffffff" stroke="#627b8c" stroke-linecap="round" stroke-linejoin="round"></path><path d="M21.462,57.456a2.93,2.93,0,0,1-2.832-3.688,2.906,2.906,0,0,1,1.364-1.777,11.491,11.491,0,0,1,4.957-1.258c1.033,0,1.733.227,1.972.639.711,1.232-2.089,4.588-4,5.69A2.926,2.926,0,0,1,21.462,57.456Z" fill="#ffffff" stroke="#627b8c" stroke-linecap="round" stroke-linejoin="round"></path><path d="M74.549,25.652c-1.033,0-1.734-.227-1.972-.639-.711-1.232,2.089-4.588,4-5.69a2.928,2.928,0,1,1,2.929,5.071A11.483,11.483,0,0,1,74.549,25.652Z" fill="#ffffff" stroke="#627b8c" stroke-linecap="round" stroke-linejoin="round"></path><path d="M63.39,15.473a.888.888,0,0,1-.46-.109c-.539-.31-.756-1.412-.581-2.948a11.411,11.411,0,0,1,1.2-3.978,2.929,2.929,0,0,1,5.073,2.928C67.684,12.988,64.968,15.473,63.39,15.473Z" fill="#ffffff" stroke="#627b8c" stroke-linecap="round" stroke-linejoin="round"></path></g></svg>