<svg width="128" height="128" fill="none" xmlns="http://www.w3.org/2000/svg">
  <path d="M114.646 69.8393a51.1922 51.1922 0 00-5.003-22.0808A51.1933 51.1933 0 0095.6072 29.994a51.2013 51.2013 0 00-42.9643-10.2084 51.2012 51.2012 0 00-20.5268 9.5521 51.201 51.201 0 00-15.3077 61.6216h93.2706a50.9515 50.9515 0 004.567-21.12z" fill="#C7F0FF"/>
  <path d="M16.8088 90.9595a51.2035 51.2035 0 0018.8914 21.9035 51.205 51.205 0 0027.7467 8.17c9.842 0 19.4753-2.837 27.7468-8.17a51.2026 51.2026 0 0018.8913-21.9035H16.8088z" fill="#F0D3A8"/>
  <path d="M116.356 90.9595h3.2m-105.6004 0h99.8404-99.8404zm-5.76 0h3.2-3.2z" stroke="#45413C" stroke-linecap="round" stroke-linejoin="round"/>
  <path d="M111.134 113.577H78.68a2.5605 2.5605 0 01-2.56-2.56V98.0583h37.574v12.9587c0 .679-.269 1.33-.749 1.81-.481.48-1.132.75-1.811.75z" fill="#BF8256"/>
  <path d="M76.12 98.0583h37.573v7.3507H76.12v-7.3507z" fill="#915E3A"/>
  <path d="M113.694 94.7902H76.12a8.984 8.984 0 015.5471-8.3008 8.9835 8.9835 0 013.4385-.6835h19.5984a8.9855 8.9855 0 016.357 2.6292 8.9816 8.9816 0 012.633 6.3551z" fill="#BF8256"/>
  <path d="M85.1056 89.0725h19.5984a8.9852 8.9852 0 015.065 1.5671 8.9823 8.9823 0 013.298 4.1506h.622a8.9764 8.9764 0 00-.684-3.4384 8.9663 8.9663 0 00-1.948-2.9149 8.9822 8.9822 0 00-6.353-2.631H85.1056a8.9835 8.9835 0 00-6.3537 2.631 8.985 8.985 0 00-2.6319 6.3533h.6221a8.9816 8.9816 0 018.3635-5.7177z" fill="#DEA47A"/>
  <path d="M113.694 94.7902H76.12a8.984 8.984 0 015.5471-8.3008 8.9835 8.9835 0 013.4385-.6835h19.5984a8.9855 8.9855 0 016.357 2.6292 8.9816 8.9816 0 012.633 6.3551v0zm-2.56 18.7868H78.68a2.5605 2.5605 0 01-2.56-2.56V98.0581h37.574v12.9589c0 .679-.269 1.33-.749 1.81-.481.48-1.132.75-1.811.75z" stroke="#45413C" stroke-linecap="round" stroke-linejoin="round"/>
  <path d="M76.12 98.0581V110.31a3.262 3.262 0 00.9572 2.31c.3035.304.6637.544 1.0602.708.3964.165.8214.249 1.2504.249h3.2666a3.265 3.265 0 01-2.3098-.957 3.2666 3.2666 0 01-.9568-2.31v-8.166a.8183.8183 0 01.8167-.818H109.61c.217 0 .424.087.577.24.154.153.24.361.24.578v8.166c0 .867-.345 1.697-.957 2.31-.613.613-1.444.957-2.31.957h3.267c.429 0 .854-.084 1.25-.249a3.254 3.254 0 001.06-.708c.304-.303.544-.663.709-1.059.164-.397.248-.822.248-1.251V98.0581H76.12zm11.4317-12.2522h-2.4461a8.9835 8.9835 0 00-6.3537 2.631 8.985 8.985 0 00-2.6319 6.3533h3.2678c0-4.9625 3.2052-8.9843 8.1639-8.9843zm17.1523 0h-3.262c2.383 0 4.668.9466 6.353 2.6315a8.984 8.984 0 012.632 6.3528h3.267a8.9816 8.9816 0 00-5.55-8.3022 8.9855 8.9855 0 00-3.44-.6821zM76.12 94.7903h37.573v3.2678H76.12v-3.2678z" fill="#DAEDF7" stroke="#45413C" stroke-linecap="round" stroke-linejoin="round"/>
  <path d="M98.1754 102.144a3.267 3.267 0 01-3.2672 3.203 3.2668 3.2668 0 01-3.2672-3.203v-4.0857h6.5344v4.0857z" fill="#FFE500" stroke="#45413C" stroke-linecap="round" stroke-linejoin="round"/>
  <path d="M94.9078 100.508v1.634" stroke="#45413C" stroke-linecap="round" stroke-linejoin="round"/>
  <path d="M98.1754 98.0583h-6.5356v-3.6211a1.2798 1.2798 0 011.28-1.28h3.9756a1.28 1.28 0 011.28 1.28v3.6211z" fill="#FFE500" stroke="#45413C" stroke-linecap="round" stroke-linejoin="round"/>
  <path d="M84.2892 101.324h3.2678v12.253h-3.2678v-12.253zm17.9698 0h3.268v12.253h-3.268v-12.253z" fill="#DAEDF7" stroke="#45413C" stroke-linecap="round" stroke-linejoin="round"/>
  <path d="M33.646 82.538v31.039h5.769c.4234 0 .8304-.164 1.1349-.459.3046-.294.4828-.695.4971-1.118l.5952-18.7497a2.5876 2.5876 0 012.4243-2.5357c3.7568-.151 9.1827 4.0794 9.1827 4.0794l3.2678 8.986 5.7178-2.452-1.6333-10.6236-5.7177-8.169-21.2378.0026z" fill="#8CA4B8"/>
  <path d="M57.1698 85.8057l-2.286-3.2679H33.646v3.2679h23.5238z" fill="#627B8C"/>
  <path opacity=".15" d="M63.4595 117.662c20.9773 0 37.9825-1.097 37.9825-2.45 0-1.353-17.0052-2.45-37.9825-2.45-20.9773 0-37.9827 1.097-37.9827 2.45 0 1.353 17.0054 2.45 37.9827 2.45z" fill="#45413C"/>
  <path d="M33.646 82.538v31.039h5.769c.4234 0 .8304-.164 1.1349-.459.3046-.294.4828-.695.4971-1.118l.5952-18.7497a2.5876 2.5876 0 012.4243-2.5357c3.7568-.151 9.1827 4.0794 9.1827 4.0794l3.2678 8.986 5.7178-2.452-1.6333-10.6236-5.7177-8.169-21.2378.0026z" stroke="#45413C" stroke-linecap="round" stroke-linejoin="round"/>
  <path d="M40.9484 99.6911h-7.2525a.8148.8148 0 00-.5949.2562.8095.8095 0 00-.1733.2817.8134.8134 0 00-.0471.327l.768 13.021h5.8112c.4163 0 .8171-.159 1.1202-.445a1.632 1.632 0 00.5105-1.091l.6758-11.483a.8204.8204 0 00-.2216-.6104.8186.8186 0 00-.5963-.2565zm19.1936-8.0883l-7.0221 3.3037a.8166.8166 0 00-.384 1.1135l5.9943 11.606 6.7187-2.984-4.1843-12.5592a.818.818 0 00-.4535-.4921.816.816 0 00-.6691.0121z" fill="#656769" stroke="#45413C" stroke-linecap="round" stroke-linejoin="round"/>
  <path d="M39.7385 113.577a1.6275 1.6275 0 001.4006-.772 1.6256 1.6256 0 00.065-1.597 4.9002 4.9002 0 00-1.7988-1.855 4.8968 4.8968 0 00-2.4917-.681h-.818a4.903 4.903 0 00-2.4908.679 4.9049 4.9049 0 00-1.7997 1.851c-.1275.25-.1886.528-.1772.808a1.6304 1.6304 0 00.8412 1.36c.2454.135.5215.204.8016.202l6.4678.005z" fill="#656769" stroke="#45413C" stroke-linecap="round" stroke-linejoin="round"/>
  <path d="M72.0372 79.3287a3.2682 3.2682 0 00-3.2679-3.2666h-4.0844a3.277 3.277 0 01-3.2666-3.2678v-2.4499a17.152 17.152 0 00-13.0701-16.6631c-.1805-.046-.3712-.0627-.5542-.1024l.0064-7.2166h-7.04v6.8288h-10.496a7.5926 7.5926 0 01-7.3344-5.376s-.9357-2.2234-1.792-4.1421a3.2652 3.2652 0 00-4.096-1.7357h-.0141a3.2678 3.2678 0 00-1.865 4.3994l1.536 3.4342c.082.256.1792.5223.2791.7834a14.1785 14.1785 0 0013.2966 9.1648 3.398 3.398 0 012.403.9954 3.398 3.398 0 01.9954 2.403v19.479h21.2109v-8.9856h.0486a9.8011 9.8011 0 009.7524 8.9856h4.0844a3.2675 3.2675 0 003.2679-3.2678z" fill="#FFDA8F"/>
  <path d="M60.2522 64.153a17.1721 17.1721 0 00-11.904-10.4717c-.1805-.046-.3712-.0627-.5542-.1024l.0064-7.2166h-7.04v6.8288H30.2643a7.593 7.593 0 01-7.3344-5.376s-.9356-2.2234-1.792-4.1421a3.2645 3.2645 0 00-1.7067-1.6732 3.2649 3.2649 0 00-2.3893-.0625h-.014a3.2657 3.2657 0 00-2.0852 2.4384 3.0309 3.0309 0 01.3354-.1651h.0141a3.4048 3.4048 0 014.2803 1.8112c.896 2.0019 1.8688 4.3213 1.8688 4.3213a7.925 7.925 0 007.6531 5.6077h9.8176c.745 0 1.4861.023 2.2298.0678 2.1504.128 5.2992.1472 6.8134.4442a21.3646 21.3646 0 0112.297 7.6902z" fill="#FFE9BD"/>
  <path d="M72.0372 79.3287a3.2682 3.2682 0 00-3.2679-3.2666h-4.0844a3.277 3.277 0 01-3.2666-3.2678v-2.4499a17.152 17.152 0 00-13.0701-16.6631c-.1805-.046-.3712-.0627-.5542-.1024l.0064-7.2166h-7.04v6.8288h-10.496a7.5926 7.5926 0 01-7.3344-5.376s-.9357-2.2234-1.792-4.1421a3.2652 3.2652 0 00-4.096-1.7357h-.0141a3.2678 3.2678 0 00-1.865 4.3994l1.536 3.4342c.082.256.1792.5223.2791.7834a14.1785 14.1785 0 0013.2966 9.1648 3.398 3.398 0 012.403.9954 3.398 3.398 0 01.9954 2.403v19.479h21.2109v-8.9856h.0486a9.8011 9.8011 0 009.7524 8.9856h4.0844a3.2675 3.2675 0 003.2679-3.2678v0z" stroke="#45413C" stroke-linecap="round" stroke-linejoin="round"/>
  <path d="M44.2649 62.8801c0-1.783-2.3692-4.608-6.3846-4.4108a4.5363 4.5363 0 00-4.2342 4.567v12.151h21.2377v-12.151a4.5364 4.5364 0 00-4.2342-4.567c-4.0167-.1972-6.3847 2.6278-6.3847 4.4108z" fill="#9CEB60"/>
  <path d="M50.6496 58.4693c-4.0167-.1972-6.3847 2.6278-6.3847 4.4108 0-1.783-2.3692-4.608-6.3846-4.4108a4.5363 4.5363 0 00-4.2342 4.567v2.8429a4.5374 4.5374 0 014.2342-4.5671c4.0154-.1971 6.3846 2.6279 6.3846 4.4109 0-1.783 2.368-4.608 6.3847-4.4109a4.5377 4.5377 0 014.2342 4.5684v-2.8442a4.5364 4.5364 0 00-4.2342-4.567z" fill="#C8FFA1"/>
  <path d="M44.2649 62.8801c0-1.783-2.3692-4.608-6.3846-4.4108a4.5363 4.5363 0 00-4.2342 4.567v12.151h21.2377v-12.151a4.5364 4.5364 0 00-4.2342-4.567c-4.0167-.1972-6.3847 2.6278-6.3847 4.4108z" stroke="#45413C" stroke-linecap="round" stroke-linejoin="round"/>
  <path d="M33.646 68.6523h21.2378v6.5344H33.646v-6.5344z" fill="#fff" stroke="#45413C" stroke-linecap="round" stroke-linejoin="round"/>
  <path d="M115.524 82.1129c2.364 0 4.28-1.9164 4.28-4.2803 0-2.364-1.916-4.2804-4.28-4.2804-2.364 0-4.28 1.9164-4.28 4.2804 0 2.3639 1.916 4.2803 4.28 4.2803zM98.9909 79.2702c4.5111 0 8.1681-3.6568 8.1681-8.1677 0-4.5109-3.657-8.1677-8.1681-8.1677-4.5109 0-8.1677 3.6568-8.1677 8.1677 0 4.5109 3.6568 8.1677 8.1677 8.1677z" fill="#FFE500" stroke="#45413C" stroke-linecap="round" stroke-linejoin="round"/>
  <path d="M33.646 79.272h21.2378v3.2678H33.646V79.272z" fill="#B89558" stroke="#45413C" stroke-linecap="round" stroke-linejoin="round"/>
  <path d="M76.4927 104.893a1.636 1.636 0 00-.5944-.809 1.6312 1.6312 0 00-.9557-.308H64.229c-.343 0-.6773.108-.9555.308a1.637 1.637 0 00-.5946.809l-.544 1.634a1.6323 1.6323 0 00.8046 1.97c.2303.118.4854.18.7442.18h11.8042c.2588 0 .5139-.062.7443-.18a1.6341 1.6341 0 00.8058-1.97l-.5453-1.634z" fill="#FFE500"/>
  <path d="M62.1349 106.527a1.6323 1.6323 0 00.8046 1.97c.2303.118.4854.18.7442.18h2.4538l4.9024-4.901h-6.8096c-.343 0-.6773.108-.9555.308a1.637 1.637 0 00-.5946.809l-.5453 1.634z" fill="#FFF48C"/>
  <path d="M76.4927 104.893a1.636 1.636 0 00-.5944-.809 1.6312 1.6312 0 00-.9557-.308H64.229c-.343 0-.6773.108-.9555.308a1.637 1.637 0 00-.5946.809l-.544 1.634a1.6323 1.6323 0 00.8046 1.97c.2303.118.4854.18.7442.18h11.8042c.2588 0 .5139-.062.7443-.18a1.6341 1.6341 0 00.8058-1.97l-.5453-1.634z" stroke="#45413C" stroke-linecap="round" stroke-linejoin="round"/>
  <path d="M68.7355 109.793a1.6333 1.6333 0 00-.5951-.808 1.636 1.636 0 00-.955-.308H56.4718c-.3428 0-.677.108-.9552.308s-.4863.483-.5949.808l-.5453 1.635a1.632 1.632 0 00-.0641.762c.0392.256.1386.499.2899.708a1.6343 1.6343 0 001.3243.679h11.8042c.2587 0 .5138-.061.7442-.179a1.6333 1.6333 0 00.8701-1.208 1.63 1.63 0 00-.0655-.762l-.544-1.635z" fill="#FFE500"/>
  <path d="M54.3739 111.428a1.6308 1.6308 0 00-.0642.762c.0392.256.1386.499.2899.708a1.6343 1.6343 0 001.3244.679h2.4537l4.9011-4.905h-6.8096c-.3428 0-.677.107-.9552.308-.2782.2-.4863.483-.5948.808l-.5453 1.64z" fill="#FFF48C"/>
  <path d="M68.7355 109.793a1.6333 1.6333 0 00-.5951-.808 1.636 1.636 0 00-.955-.308H56.4718c-.3428 0-.677.108-.9552.308s-.4863.483-.5949.808l-.5453 1.635a1.632 1.632 0 00-.0641.762c.0392.256.1386.499.2899.708a1.6343 1.6343 0 001.3243.679h11.8042c.2587 0 .5138-.061.7442-.179a1.6333 1.6333 0 00.8701-1.208 1.63 1.63 0 00-.0655-.762l-.544-1.635z" stroke="#45413C" stroke-linecap="round" stroke-linejoin="round"/>
  <path d="M83.8395 109.793a1.6304 1.6304 0 00-.5942-.808 1.6347 1.6347 0 00-.9546-.308h-10.711a1.6337 1.6337 0 00-1.5501 1.116l-.544 1.635a1.632 1.632 0 00.2254 1.473c.1519.21.3516.381.5826.498.231.118.4867.179.7459.178h11.8029a1.6343 1.6343 0 001.3243-.679 1.628 1.628 0 00.2899-.708 1.632 1.632 0 00-.0641-.762l-.553-1.635z" fill="#FFE500"/>
  <path d="M69.4856 111.428a1.632 1.632 0 00.2254 1.473c.1519.21.3516.381.5826.498.231.118.4867.179.7459.178h2.4525l4.8973-4.905h-6.8096a1.6337 1.6337 0 00-1.5501 1.116l-.544 1.64z" fill="#FFF48C"/>
  <path d="M83.8395 109.793a1.6304 1.6304 0 00-.5942-.808 1.6347 1.6347 0 00-.9546-.308h-10.711a1.6337 1.6337 0 00-1.5501 1.116l-.544 1.635a1.632 1.632 0 00.2254 1.473c.1519.21.3516.381.5826.498.231.118.4867.179.7459.178h11.8029a1.6343 1.6343 0 001.3243-.679 1.628 1.628 0 00.2899-.708 1.632 1.632 0 00-.0641-.762l-.553-1.635z" stroke="#45413C" stroke-linecap="round" stroke-linejoin="round"/>
  <path d="M68.9587 103.776a4.9127 4.9127 0 00-1.0818-1.577 4.8993 4.8993 0 00-3.4831-1.393 4.9138 4.9138 0 00-1.8709.396l-6.0058 2.574 1.28 3.003c.0845.197.207.376.3606.526.1536.15.3351.268.5344.347.1992.08.4121.12.6267.117.2145-.003.4264-.048.6236-.132l9.0163-3.861z" fill="#656769" stroke="#45413C" stroke-linecap="round" stroke-linejoin="round"/>
  <path d="M18.3799 38.1042a1.6328 1.6328 0 001.1899-.3841 1.632 1.632 0 00.5688-1.1135c.4365-5.4746 2.272-13.568 9.5271-17.545a1.6222 1.6222 0 00.8806-1.3811c.0563-3.1706 1.9277-7.7389 2.8928-9.8944a.5865.5865 0 00-.1102-.6426.5861.5861 0 00-.636-.1433c-8.6503 3.3421-14.7725 16.3865-15.4957 25.3837l-.3162 3.968a1.6323 1.6323 0 001.4989 1.7523z" fill="#DAEDF7" stroke="#45413C" stroke-linejoin="round"/>
  <path d="M15.8093 49.7813a1.6343 1.6343 0 001.5046 1.7086 1.6346 1.6346 0 001.753-1.4526l1.0713-13.44-3.2576-.256-1.0713 13.44z" fill="#EBCB00" stroke="#45413C" stroke-linejoin="round"/>
  <path d="M20.7921 48.9492l-4.8857-.3904" stroke="#45413C" stroke-linecap="round" stroke-linejoin="round"/>
  <path d="M15.9067 48.559c-2.2477-.1792-3.73-4.5888-3.5508-6.8378.1792-2.2489 1.408-5.6243 4.5248-5.376l3.9322.3136a.818.818 0 00.8626-.6377.818.818 0 00-.0076-.3863 3.2692 3.2692 0 00-2.8992-2.4153l-.814-.0653c-6.514-.5197-7.7261 4.4096-7.977 7.552-.2509 3.1424 1.9674 7.5315 5.12 7.7824l.809.0704z" fill="#EBCB00" stroke="#45413C" stroke-linejoin="round"/>
  <path d="M17.3409 44.9852a2.86 2.86 0 002.3015-.7203 2.8617 2.8617 0 00.9331-2.2237 2.9656 2.9656 0 00-2.6342-2.7456l-1.0765-.1433a1.6344 1.6344 0 00-1.8368 1.4233l-.2944 2.432a1.6331 1.6331 0 001.408 1.8151l1.1993.1625z" fill="#FFDA8F" stroke="#45413C" stroke-linecap="round" stroke-linejoin="round"/>
  <path d="M92.7435 51.2947a3.27 3.27 0 01.2893 3.328 1.636 1.636 0 00.2079 1.7465 1.636 1.636 0 001.6711.5485 25.8961 25.8961 0 0112.1972.0282 1.6339 1.6339 0 001.351-.2729 1.626 1.626 0 00.464-.5315c.115-.2089.182-.4403.197-.6778a32.4686 32.4686 0 014.568-14.3232c.126-.2141.202-.454.221-.7016a1.6412 1.6412 0 00-.109-.7272 1.6343 1.6343 0 00-1.057-.9674 28.1462 28.1462 0 00-13.603-.4032 1.6343 1.6343 0 01-1.6726-.5474 1.635 1.635 0 01-.2065-1.7476 3.267 3.267 0 00-.2905-3.328c-1.7549-2.4423-6.77-.7399-16.9408 3.543a1.6644 1.6644 0 00-.9767 1.1725l-3.7517 17.6243c10.6343-4.393 15.657-6.2451 17.4413-3.7632z" fill="#FF6242"/>
  <path d="M97.468 37.7933a1.6362 1.6362 0 01-.2061-1.7472 3.267 3.267 0 00-.2905-3.328c-1.7549-2.4423-6.77-.7399-16.9408 3.543a1.6637 1.6637 0 00-.9767 1.1712l-3.7517 17.6256c3.2308-1.3338 5.9367-2.432 8.192-3.2448l14.0007-13.9955c-.0077-.0103-.0192-.0154-.0269-.0243z" fill="#FF866E"/>
  <path d="M75.3021 55.0579l-6.6509 31.049 6.6509-31.049zm17.4413-3.7632a3.27 3.27 0 01.2893 3.328 1.636 1.636 0 00.2079 1.7465 1.636 1.636 0 001.6711.5485 25.8966 25.8966 0 0112.1973.0282 1.6339 1.6339 0 001.351-.2729 1.626 1.626 0 00.464-.5315 1.631 1.631 0 00.197-.6778 32.4558 32.4558 0 014.568-14.3232c.126-.2141.202-.454.221-.7016a1.6412 1.6412 0 00-.109-.7272 1.6343 1.6343 0 00-1.058-.9674 28.1425 28.1425 0 00-13.6021-.4032 1.6347 1.6347 0 01-1.8791-2.295 3.2666 3.2666 0 00-.2905-3.328c-1.7549-2.4423-6.77-.7399-16.9409 3.543a1.664 1.664 0 00-.9766 1.1725l-3.7517 17.6243c10.6343-4.393 15.657-6.2451 17.4413-3.7632v0z" stroke="#45413C" stroke-linecap="round" stroke-linejoin="round"/>
  <path d="M71.1227 76.9419a2.862 2.862 0 00-3.2499 2.9222 2.9682 2.9682 0 002.6214 2.7635l1.0752.1472a1.634 1.634 0 001.6404-.8055 1.6344 1.6344 0 00.2041-.6089l.3059-2.432a1.6338 1.6338 0 00-.3262-1.1982 1.634 1.634 0 00-1.0741-.6232l-1.1968-.1651z" fill="#FFDA8F" stroke="#45413C" stroke-linecap="round" stroke-linejoin="round"/>
  <path d="M60.6049 69.469h-5.7216v-4.9011h5.7216a2.45 2.45 0 012.2649 1.5159c.1228.2978.1857.617.185.9391a2.4489 2.4489 0 01-2.4499 2.4461z" fill="#9CEB60" stroke="#45413C" stroke-linecap="round" stroke-linejoin="round"/>
  <path d="M33.648 62.9352a4.6473 4.6473 0 01.2714-1.4566l-.009-.0205a13.0027 13.0027 0 01-1.0778-5.1072v-2.4013a2.4508 2.4508 0 00-2.4505-2.3952 2.4515 2.4515 0 00-2.4506 2.3952v4.9012a4.0959 4.0959 0 004.0845 4.0844h1.632z" fill="#9CEB60"/>
  <path d="M30.3784 51.4998c-.3217 0-.6403.0633-.9376.1864a2.4497 2.4497 0 00-1.5123 2.2635v1.6409c.1433.0077.288.0116.4339.0116h4.4672v-1.6525a2.4503 2.4503 0 00-1.5133-2.2638 2.4483 2.4483 0 00-.9379-.1861z" fill="#C8FFA1"/>
  <path d="M33.6454 75.1874l21.2378-6.5344M33.648 62.9352a4.6473 4.6473 0 01.2714-1.4566l-.009-.0205a13.0027 13.0027 0 01-1.0778-5.1072v-2.4013a2.4508 2.4508 0 00-2.4505-2.3952 2.4515 2.4515 0 00-2.4506 2.3952v4.9012a4.0959 4.0959 0 004.0845 4.0844h1.632zm-.0026 5.7178l21.2378 6.5344-21.2378-6.5344z" stroke="#45413C" stroke-linecap="round" stroke-linejoin="round"/>
  <path d="M44.2644 84.1724c1.8048 0 3.2679-1.4631 3.2679-3.2678 0-1.8048-1.4631-3.2679-3.2679-3.2679s-3.2678 1.4631-3.2678 3.2679c0 1.8047 1.463 3.2678 3.2678 3.2678z" fill="#FF8A14" stroke="#45413C" stroke-linecap="round" stroke-linejoin="round"/>
  <path d="M55.8868 42.1117a2.0127 2.0127 0 00-1.6333-1.9597v-1.3068a9.8036 9.8036 0 00-2.8309-7.0036 9.802 9.802 0 00-10.7477-2.1538 9.8009 9.8009 0 00-5.3109 5.3719 9.8017 9.8017 0 00-.7137 3.7855v1.3068a2.0009 2.0009 0 00-1.0705 3.3621c.3383.3479.7916.561 1.2753.5995a9.8032 9.8032 0 0015.7786 5.6026 9.803 9.803 0 003.4137-5.6026 2.0225 2.0225 0 001.8394-2.0019z" fill="#FFDA8F" stroke="#45413C" stroke-linecap="round" stroke-linejoin="round"/>
  <path d="M39.142 44.5617c.6765 0 1.2249-.5484 1.2249-1.2249 0-.6766-.5484-1.225-1.2249-1.225-.6766 0-1.225.5484-1.225 1.225 0 .6765.5484 1.2249 1.225 1.2249zM49.7606 44.5617c.6765 0 1.225-.5484 1.225-1.2249 0-.6766-.5485-1.225-1.225-1.225-.6765 0-1.225.5484-1.225 1.225 0 .6765.5485 1.2249 1.225 1.2249z" fill="#FFBE3D"/>
  <path d="M46.9026 46.1965a4.0859 4.0859 0 01-4.9011 0m6.8672-5.7177a1.3915 1.3915 0 00-.9831-.4073 1.39 1.39 0 00-.983.4073h1.9661zm-8.8333 0a1.3904 1.3904 0 011.5151-.3014c.1686.0699.3219.1723.451.3014h-1.9661z" stroke="#45413C" stroke-linecap="round" stroke-linejoin="round"/>
  <path d="M55.8704 37.4075A11.4359 11.4359 0 0044.141 26.5928a11.4354 11.4354 0 00-11.125 11.4355v9.8009a8.1713 8.1713 0 001.815 5.1341.8187.8187 0 00.4129.2716.8173.8173 0 00.8885-.3132.817.817 0 00.1514-.4704v-8.0857a6.7452 6.7452 0 012.5728-5.33 21.5015 21.5015 0 004.1152-4.0294 1.664 1.664 0 012.016-.5709c3.6135 1.5808 5.4285 4.3072 7.0951 6.0583.5683.599.9612-.0154 1.7625-.0154a1.8684 1.8684 0 011.4165.4751 1.8676 1.8676 0 01.6149 1.3617c.0013-.6182.023-4.3571-.0064-4.9075z" fill="#614B44"/>
  <path d="M44.4515 29.8593a11.4367 11.4367 0 0111.4189 10.816c0 .0883.0077.256.0102.489 0-1.3479.0103-3.3639-.0102-3.7568A11.4359 11.4359 0 0044.141 26.5928a11.4354 11.4354 0 00-11.125 11.4355v3.2665a11.4355 11.4355 0 0111.4355-11.4355z" fill="#947063"/>
  <path d="M55.8704 37.4075A11.4359 11.4359 0 0044.141 26.5928a11.4354 11.4354 0 00-11.125 11.4355v9.8009a8.1713 8.1713 0 001.815 5.1341.8187.8187 0 00.4129.2716.8173.8173 0 00.8885-.3132.817.817 0 00.1514-.4704v-8.0857a6.7452 6.7452 0 012.5728-5.33 21.5015 21.5015 0 004.1152-4.0294 1.664 1.664 0 012.016-.5709c3.6135 1.5808 5.4285 4.3072 7.0951 6.0583.5683.599.9612-.0154 1.7625-.0154a1.8684 1.8684 0 011.4165.4751 1.8676 1.8676 0 01.6149 1.3617c.0013-.6182.023-4.3571-.0064-4.9075v0z" stroke="#45413C" stroke-linecap="round" stroke-linejoin="round"/>
  <path d="M32.7149 33.9099a13.7753 13.7753 0 00-.5529 3.9207v1.015h25.4835v-1.015a13.7719 13.7719 0 00-.553-3.9207H32.7149z" fill="#E04122" stroke="#45413C" stroke-linecap="round" stroke-linejoin="round"/>
  <path d="M61.2582 25.8287a34.0135 34.0135 0 00-9.7024-2.3501l-.9779-2.9338a1.9623 1.9623 0 00-1.1798-1.2184 1.9622 1.9622 0 00-.8623-.1134 1.9624 1.9624 0 00-.8264.2707l-1.792 1.079a1.9631 1.9631 0 01-2.016 0l-1.792-1.079a1.9618 1.9618 0 00-2.4171.3178 1.961 1.961 0 00-.4514.7433l-.9779 2.9338a34.0269 34.0269 0 00-9.7024 2.3501 1.9528 1.9528 0 00-1.1072 2.269c.0755.297.2197.572.4211.803l3.8093 4.4428a1.6307 1.6307 0 001.2403.5696h23.9706a1.631 1.631 0 001.2403-.5696l3.8093-4.4428a1.9531 1.9531 0 00.4342-1.7096 1.9536 1.9536 0 00-1.1203-1.3624z" fill="#656769"/>
  <path d="M38.2526 23.479a34.0285 34.0285 0 00-9.7024 2.3501 1.9524 1.9524 0 00-1.1204 1.3626 1.9513 1.9513 0 00.4356 1.7094l.7181.8384a32.4475 32.4475 0 018.3047-2.1645l1.3644-4.096zm23.0055 2.3501a34.0169 34.0169 0 00-9.7024-2.3501l1.3645 4.096a32.4479 32.4479 0 018.3046 2.1645l.7181-.8384a1.9525 1.9525 0 00.4356-1.7094 1.9524 1.9524 0 00-1.1204-1.3626z" fill="#87898C"/>
  <path d="M61.2582 25.8287a34.0135 34.0135 0 00-9.7024-2.3501l-.9779-2.9338a1.9623 1.9623 0 00-1.1798-1.2184 1.9622 1.9622 0 00-.8623-.1134 1.9624 1.9624 0 00-.8264.2707l-1.792 1.079a1.9631 1.9631 0 01-2.016 0l-1.792-1.079a1.9618 1.9618 0 00-2.4171.3178 1.961 1.961 0 00-.4514.7433l-.9779 2.9338a34.0269 34.0269 0 00-9.7024 2.3501 1.9528 1.9528 0 00-1.1072 2.269c.0755.297.2197.572.4211.803l3.8093 4.4428a1.6307 1.6307 0 001.2403.5696h23.9706a1.631 1.631 0 001.2403-.5696l3.8093-4.4428a1.9531 1.9531 0 00.4342-1.7096 1.9536 1.9536 0 00-1.1203-1.3624v0z" stroke="#45413C" stroke-linecap="round" stroke-linejoin="round"/>
  <path d="M40.696 22.5672l2.6957 1.6243a2.9434 2.9434 0 003.0246 0l2.6957-1.6179a2.9062 2.9062 0 012.0186-.3648l-.553-1.664a1.961 1.961 0 00-2.8685-1.0611l-1.792 1.079a1.9619 1.9619 0 01-2.0185 0l-1.792-1.079a1.9618 1.9618 0 00-2.4172.3178 1.9608 1.9608 0 00-.4513.7433l-.5517 1.664a2.9021 2.9021 0 012.0096.3584z" fill="#87898C"/>
  <path d="M53.4002 29.0082l-2.816-8.4634a1.961 1.961 0 00-2.8685-1.0611l-1.792 1.079a1.9604 1.9604 0 01-2.0173 0l-1.792-1.079a1.9624 1.9624 0 00-.8265-.2707 1.962 1.962 0 00-1.5906.5885 1.961 1.961 0 00-.4514.7433l-2.816 8.4634" stroke="#45413C" stroke-linecap="round" stroke-linejoin="round"/>
</svg>
