<svg width="128" height="128" fill="none" xmlns="http://www.w3.org/2000/svg">
  <path d="M12.8 64a51.2006 51.2006 0 0 0 14.9961 36.204A51.1994 51.1994 0 0 0 64 115.2 51.1998 51.1998 0 0 0 115.2 64c0-13.579-5.394-26.602-14.996-36.2038a51.2004 51.2004 0 0 0-72.4079 0A51.2001 51.2001 0 0 0 12.8 64Z" fill="#C7F0FF"/>
  <path d="M90.784 41.3403h7.2896v8.3546H90.784v-8.3546Z" fill="#FFDA8F" stroke="#45413C" stroke-linecap="round" stroke-linejoin="round"/>
  <path d="M37.7318 47.7287h-7.2896l.009-6.6918h7.2883l-.0077 6.6918Z" fill="#FFCEBF" stroke="#45413C" stroke-linecap="round" stroke-linejoin="round"/>
  <path d="M78.7021 62.4731a16.7104 16.7104 0 0 1 28.4739-11.7214 16.7105 16.7105 0 0 1 4.946 11.7214v14.0928c0 .4332-.172.8486-.479 1.1549a1.6316 1.6316 0 0 1-1.155.4784h-5.248v1.966H83.6173v-1.966h-3.2807a1.6349 1.6349 0 0 1-1.1557-.478 1.6324 1.6324 0 0 1-.4788-1.1553V62.4731Z" fill="#fff" stroke="#45413C" stroke-linecap="round" stroke-linejoin="round"/>
  <path opacity=".15" d="M17.7792 107.521c0 .322.4225.641 1.2435.938.821.297 2.0244.567 3.5414.795 1.517.227 3.3179.408 5.3.531 1.982.123 4.1064.186 6.2517.186 2.1454 0 4.2697-.063 6.2518-.186 1.982-.123 3.783-.304 5.3-.531 1.517-.228 2.7203-.498 3.5413-.795.821-.297 1.2436-.616 1.2436-.938 0-.322-.4226-.64-1.2436-.937-.821-.298-2.0243-.568-3.5413-.795-1.517-.228-3.318-.408-5.3-.531-1.9821-.123-4.1064-.187-6.2518-.187-2.1453 0-4.2697.064-6.2517.187-1.9821.123-3.783.303-5.3.531-1.517.227-2.7204.497-3.5414.795-.821.297-1.2435.615-1.2435.937Z" fill="#45413C"/>
  <path d="M35.072 74.2683H23.2704v31.4597h7.863l.896-20.6424a2.048 2.048 0 0 1 4.096 0l.896 20.6424h7.8643V74.2683H35.072Z" fill="#656769" stroke="#45413C" stroke-linecap="round" stroke-linejoin="round"/>
  <path d="M44.8947 79.1821H23.2704v9.8304h8.5901l.1702-3.9347c0-.5432.2158-1.0641.5999-1.4481a2.0476 2.0476 0 0 1 2.8963 0c.384.384.5998.9049.5998 1.4481l.1715 3.9347h8.5901l.0064-9.8304Z" fill="#525252"/>
  <path d="M35.072 74.2683H23.2704v31.4597h7.863l.896-20.6424a2.048 2.048 0 0 1 4.096 0l.896 20.6424h7.8643V74.2683H35.072Z" stroke="#45413C" stroke-linecap="round" stroke-linejoin="round"/>
  <path d="M22.0326 104.176a1.6381 1.6381 0 0 0-.2665.827c-.0125.295.055.587.1953.846.1403.26.3483.476.6017.627.2535.15.543.229.8378.228h6.7239c.2805.001.5563-.071.8009-.209.2446-.137.4497-.335.5955-.575a1.6319 1.6319 0 0 0 .0551-1.6c-1.7856-3.446-7.5059-3.254-9.5437-.144ZM46.1312 104.176c.1619.247.254.533.2665.827.0125.295-.0549.587-.1953.846-.1403.26-.3482.476-.6017.627-.2535.15-.543.229-.8378.228h-6.7238a1.637 1.637 0 0 1-.8004-.209 1.6436 1.6436 0 0 1-.5951-.575 1.6344 1.6344 0 0 1-.0561-1.6c1.7869-3.446 7.5072-3.254 9.5437-.144Z" fill="#525252" stroke="#45413C" stroke-linecap="round" stroke-linejoin="round"/>
  <path d="M71.433 51.9924a2.9508 2.9508 0 0 1-1.0471 2.2541 2.9521 2.9521 0 0 1-2.3974.6554 3.0594 3.0594 0 0 1-2.4525-3.0618V44.946c0-.2166.086-.4243.2392-.5774a.8162.8162 0 0 1 .5774-.2392h4.2637a.8166.8166 0 0 1 .8167.8166v7.0464ZM61.6038 51.9924a2.9505 2.9505 0 0 1-1.047 2.2541 2.9521 2.9521 0 0 1-2.3974.6554 3.059 3.059 0 0 1-2.4525-3.072V44.946c0-.2166.086-.4243.2392-.5774a.8162.8162 0 0 1 .5774-.2392h4.2637c.2166 0 .4243.086.5774.2392a.8162.8162 0 0 1 .2392.5774v7.0464Z" fill="#80DDFF" stroke="#45413C" stroke-linecap="round" stroke-linejoin="round"/>
  <path d="m23.5341 36.5876-1.2262 2.9082c-3.4458-.1997-2.7866 5.5846-1.0036 6.5651a1.8918 1.8918 0 0 0 2.8007-.7424 1.7273 1.7273 0 0 0-.1478-1.4168 1.7283 1.7283 0 0 0-1.1617-.8245c-1.5091-.512-3.1564 1.4196-3.456 2.9837a4.8372 4.8372 0 0 0 3.0004 5.3133" stroke="#45413C" stroke-linecap="round" stroke-linejoin="round"/>
  <path d="M60.6835 63.0132a3.4291 3.4291 0 0 1 5.8552 2.4208 3.4287 3.4287 0 0 1-1.0027 2.4253l-3.2345 3.232-4.8474-4.8461 3.2294-3.232Z" fill="#FFCEBF" stroke="#45413C" stroke-linecap="round" stroke-linejoin="round"/>
  <path d="M57.4541 66.2452c-.9588.9996-1.8778 2.0889-3.2218 2.0889a2.3825 2.3825 0 0 1-2.2792-1.4768 2.382 2.382 0 0 1-.1784-.9398V63.456a17.6932 17.6932 0 0 0-30.1506-12.4137 17.693 17.693 0 0 0-5.235 12.4137v1.3735a16.426 16.426 0 0 0 6.8813 13.3696v7.863h5.3017a6.6238 6.6238 0 0 0 5.5104-2.944 6.6197 6.6197 0 0 0 5.504 2.944h5.3031V66.4052l.0512.0217a9.3247 9.3247 0 0 0 9.2864 8.8243c3.9091 0 6.016-2.0851 8.064-4.16l-4.8371-4.846Z" fill="#656769"/>
  <path d="M34.0825 50.5984c9.7716 0 17.6922 8.2714 17.6922 17.001l.6106-.0691a2.3858 2.3858 0 0 1-.6106-1.6128V63.456a17.6932 17.6932 0 0 0-30.1506-12.4137 17.693 17.693 0 0 0-5.235 12.4137v1.3735c0 .5427.0448 1.0803.0973 1.6141a17.6945 17.6945 0 0 1 17.5961-15.8452Z" fill="#87898C"/>
  <path d="M57.4541 66.2452c-.9588.9996-1.8778 2.0889-3.2218 2.0889a2.3825 2.3825 0 0 1-2.2792-1.4768 2.382 2.382 0 0 1-.1784-.9398V63.456a17.6932 17.6932 0 0 0-30.1506-12.4137 17.693 17.693 0 0 0-5.235 12.4137v1.3735a16.426 16.426 0 0 0 6.8813 13.3696v7.863h5.3017a6.6238 6.6238 0 0 0 5.5104-2.944 6.6197 6.6197 0 0 0 5.504 2.944h5.3031V66.4052l.0512.0217a9.3247 9.3247 0 0 0 9.2864 8.8243c3.9091 0 6.016-2.0851 8.064-4.16l-4.8371-4.846Z" stroke="#45413C" stroke-linecap="round" stroke-linejoin="round"/>
  <path d="M44.8947 66.4052V61.49Z" fill="#00B8F0"/>
  <path d="M44.8947 66.4052V61.49" stroke="#45413C" stroke-linecap="round" stroke-linejoin="round"/>
  <path d="M23.2704 78.1991V61.49Z" fill="#00B8F0"/>
  <path d="M23.2704 78.1991V61.49" stroke="#45413C" stroke-linecap="round" stroke-linejoin="round"/>
  <path d="m34.0826 71.319 6.9772-24.1216a17.6969 17.6969 0 0 0-13.952 0l6.9748 24.1216Z" fill="#fff" stroke="#45413C" stroke-linecap="round" stroke-linejoin="round"/>
  <path d="m34.0826 71.3191-6.9773-24.1216a17.6953 17.6953 0 0 0-5.5335 3.7466l4.6464 4.6476v4.914l7.8644 10.8134Z" fill="#87898C" stroke="#45413C" stroke-linecap="round" stroke-linejoin="round"/>
  <path d="m41.0598 47.1975-6.9773 24.1216 7.8631-10.8122V55.593l4.6464-4.6489a17.7237 17.7237 0 0 0-5.5322-3.7466v0Z" fill="#87898C" stroke="#45413C" stroke-linecap="round" stroke-linejoin="round"/>
  <path d="M34.0825 83.1143V71.3191Z" fill="#00B8F0"/>
  <path d="M34.0825 83.1143V71.3191" stroke="#45413C" stroke-linecap="round" stroke-linejoin="round"/>
  <path d="M34.0825 43.7759a9.7963 9.7963 0 0 0 9.3287-6.8825h.0089c3.1066 0 3.296-4.9152.4916-4.9152v-1.9635a9.8292 9.8292 0 1 0-19.6583 0v1.966c-2.8057 0-2.6163 4.9152.4915 4.9152h.0077a9.7989 9.7989 0 0 0 9.3299 6.88v0Z" fill="#FFCEBF" stroke="#45413C" stroke-linecap="round" stroke-linejoin="round"/>
  <path d="M27.1987 34.9301a.983.983 0 1 0 1.966-.0001.983.983 0 0 0-1.966.0001ZM40.96 34.9301a.9832.9832 0 0 1-1.6782.6951.9829.9829 0 0 1-.2131-1.0713.983.983 0 0 1 1.8913.3762Z" fill="#FFB59E"/>
  <path d="M31.6249 37.9688a4.4292 4.4292 0 0 0 4.914 0" stroke="#45413C" stroke-linecap="round" stroke-linejoin="round"/>
  <path d="M28.6912 26.0571c4.3098 4.1805 11.744 3.4918 16.2189 1.9776a10.812 10.812 0 0 0-10.8199-10.8045 10.8119 10.8119 0 0 0-10.8044 10.8199v3.4137s5.4054-1.3517 5.4054-5.4067" fill="#FFDF3D"/>
  <path d="M28.6912 26.0571c4.3098 4.1805 11.744 3.4918 16.2189 1.9776a10.812 10.812 0 0 0-10.8199-10.8045 10.8119 10.8119 0 0 0-10.8044 10.8199v3.4137s5.4054-1.3517 5.4054-5.4067" stroke="#45413C" stroke-linecap="round" stroke-linejoin="round"/>
  <path d="M34.0992 22.0033a10.7914 10.7914 0 0 1 9.8048 6.3207c.3379-.096.6925-.1843 1.0022-.2893a10.8119 10.8119 0 0 0-10.8198-10.8045 10.8124 10.8124 0 0 0-10.8045 10.8199v3.4137l.1408-.0397a10.778 10.778 0 0 1 10.6765-9.4208Z" fill="#FFEF9E"/>
  <path d="M28.6912 26.0571c4.3098 4.1805 11.744 3.4918 16.2189 1.9776a10.812 10.812 0 0 0-10.8199-10.8045 10.8119 10.8119 0 0 0-10.8044 10.8199v3.4137s5.4054-1.3517 5.4054-5.4067" stroke="#45413C" stroke-linecap="round" stroke-linejoin="round"/>
  <path d="M28.6912 26.057c-.4979-.4826-.5696-.4058-.9754-1.024" stroke="#45413C" stroke-linecap="round" stroke-linejoin="round"/>
  <path d="M32.1165 45.7639h3.9321v3.9322h-3.9321v-3.9322ZM36.0486 45.764l2.185-1.0919a1.6331 1.6331 0 0 1 2.327 1.1149 9.4919 9.4919 0 0 1 .0077 4.608 1.6311 1.6311 0 0 1-.7547.9423 1.6313 1.6313 0 0 1-1.196.1649 3.938 3.938 0 0 1-2.569-1.8086V45.764Z" fill="#525252" stroke="#45413C" stroke-linecap="round" stroke-linejoin="round"/>
  <path d="m32.1165 45.764-2.1863-1.0919a1.6324 1.6324 0 0 0-1.4364-.0123 1.6333 1.6333 0 0 0-.8906 1.1272 9.493 9.493 0 0 0-.0077 4.608 1.6309 1.6309 0 0 0 1.9507 1.1072 3.9429 3.9429 0 0 0 2.5703-1.8086V45.764Z" fill="#525252" stroke="#45413C" stroke-linecap="round" stroke-linejoin="round"/>
  <path d="M34.0825 52.6438a.983.983 0 1 0 .0001 1.966.983.983 0 0 0-.0001-1.966ZM34.0825 57.5579a.9829.9829 0 0 0-.6951 1.6781.9834.9834 0 0 0 1.6782-.6951.9828.9828 0 0 0-.9831-.983Z" fill="#45413C"/>
  <path d="M23.2858 30.9978h20.6425l-.1356.5376a4.4806 4.4806 0 0 1-1.5912 2.4471 4.4808 4.4808 0 0 1-2.7609.9475H36.064l-1.9661-1.9661L32.128 34.93h-4.1062a4.48 4.48 0 0 1-4.0077-2.4768l-.7283-1.4554Z" fill="#656769" stroke="#45413C" stroke-linecap="round" stroke-linejoin="round"/>
  <path d="M75.3651 62.3143a1.4734 1.4734 0 0 1-.9103 1.3615 1.4724 1.4724 0 0 1-.5642.1118H52.2662a1.475 1.475 0 0 1-1.4407-.8877 1.4749 1.4749 0 0 1 .3424-1.6572 1.4738 1.4738 0 0 1 1.0983-.3991h21.6244a1.4744 1.4744 0 0 1 1.4745 1.4707v0Z" fill="#ADC4D9" stroke="#45413C" stroke-linecap="round" stroke-linejoin="round"/>
  <path d="M58.6547 54.9414v5.8982M68.4838 54.9414v5.8982" stroke="#45413C" stroke-linecap="round" stroke-linejoin="round"/>
  <path d="M55.7069 51.8401a3.059 3.059 0 0 0 2.4525 3.072 2.95 2.95 0 0 0 2.3974-.6544 2.951 2.951 0 0 0 1.047-2.2538v-3.9424l-5.8969.9831v2.7955ZM65.536 51.8401a3.059 3.059 0 0 0 2.4525 3.072 2.95 2.95 0 0 0 2.3974-.6544 2.9495 2.9495 0 0 0 1.047-2.2538v-3.9424H65.536v3.7786Z" fill="#FFFACF" stroke="#45413C" stroke-linecap="round" stroke-linejoin="round"/>
  <path d="M79.6851 82.1311a2.9491 2.9491 0 1 0 5.8983 0V78.199h-5.8983v3.9321Z" fill="#FFDA8F" stroke="#45413C" stroke-linecap="round" stroke-linejoin="round"/>
  <path d="M83.6172 77.2173v25.3687a8.8038 8.8038 0 0 1 3.7121-.797h4.3187l.7257-16.71a2.048 2.048 0 0 1 4.096 0l.7604 17.484a8.8313 8.8313 0 0 1 3.6719-.768h4.34V77.2186l-21.6248-.0013Z" fill="#fff"/>
  <path d="M83.6172 77.2173h21.6248v3.9321H83.6172v-3.9321Z" fill="#F0F0F0"/>
  <path d="M94.4166 20.1855a9.8298 9.8298 0 0 1 6.9504 2.8789 9.8306 9.8306 0 0 1 2.879 6.9503v1.966c2.806 0 2.614 4.9152-.492 4.9152h-.009a9.7975 9.7975 0 0 1-4.1665 5.3971 9.801 9.801 0 0 1-14.991-8.3411v-3.9372a9.8292 9.8292 0 0 1 9.8291-9.8292v0Z" fill="#FFDA8F" stroke="#45413C" stroke-linecap="round" stroke-linejoin="round"/>
  <path d="M97.3645 36.1588a.9835.9835 0 0 0 .6068.9082.9835.9835 0 0 0 1.0714-.2131.9829.9829 0 0 0-.6952-1.6781.9805.9805 0 0 0-.6954.2875.9802.9802 0 0 0-.2876.6955Z" fill="#FFBE3D"/>
  <path d="M94.9081 37.7856a3.6914 3.6914 0 0 1-4.3379.4071 4.2925 4.2925 0 0 1-.5773-.4071M97.3786 32.3841a1.3896 1.3896 0 0 0-1.5151-.3015 1.3891 1.3891 0 0 0-.451.3015M89.5142 32.3841a1.3891 1.3891 0 0 0-.983-.4073 1.391 1.391 0 0 0-.983.4073" stroke="#45413C" stroke-linecap="round" stroke-linejoin="round"/>
  <path d="M99.84 26.0571c-4.3098 4.1818-11.7427 3.4918-16.2189 1.9776a10.8119 10.8119 0 0 1 14.9569-9.9785 10.8093 10.8093 0 0 1 5.847 5.8556 10.802 10.802 0 0 1 .82 4.1383v3.4137s-5.405-1.3517-5.405-5.4067Z" fill="#614B44" stroke="#45413C" stroke-linecap="round" stroke-linejoin="round"/>
  <path d="M94.4281 22.0033a10.792 10.792 0 0 0-9.8086 6.3207c-.3379-.096-.6912-.1843-1.0023-.2893a10.8124 10.8124 0 0 1 14.9569-9.9785 10.809 10.809 0 0 1 3.5059 2.3463 10.8094 10.8094 0 0 1 2.341 3.5093 10.803 10.803 0 0 1 .821 4.1383v3.4137l-.141-.0397a10.776 10.776 0 0 0-3.56-6.7235 10.774 10.774 0 0 0-7.1129-2.6973Z" fill="#947063"/>
  <path d="M99.84 26.0571c-4.3098 4.1818-11.7427 3.4918-16.2189 1.9776a10.8119 10.8119 0 0 1 14.9569-9.9785 10.8093 10.8093 0 0 1 5.847 5.8556 10.802 10.802 0 0 1 .82 4.1383v3.4137s-5.405-1.3517-5.405-5.4067Z" stroke="#45413C" stroke-linecap="round" stroke-linejoin="round"/>
  <path d="M99.84 26.057c.498-.4826.57-.4058.975-1.024M83.6172 77.2173v25.3687a8.8038 8.8038 0 0 1 3.7121-.797h4.3187l.7257-16.71a2.048 2.048 0 0 1 4.096 0l.7604 17.484a8.8313 8.8313 0 0 1 3.6719-.768h4.34V77.2186l-21.6248-.0013Z" stroke="#45413C" stroke-linecap="round" stroke-linejoin="round"/>
  <path d="M80.8499 106.705c0-3.52 3.4407-4.915 6.4845-4.915h4.3277v3.281c0 .434-.1721.849-.4784 1.155a1.6309 1.6309 0 0 1-1.1549.479h-9.1789ZM94.4294 106.705c0-3.52 3.4394-4.915 6.4836-4.915h4.329v3.281c-.001.434-.173.849-.479 1.155-.306.306-.722.478-1.155.479h-9.1786Z" fill="#525252" stroke="#45413C" stroke-linecap="round" stroke-linejoin="round"/>
  <path d="M95.4125 45.7639a16.6882 16.6882 0 0 0-13.8765 7.3984l2.0813 8.3277v15.7274h21.6247V61.49l2.56-10.2323a16.679 16.679 0 0 0-5.611-4.0629 16.6726 16.6726 0 0 0-6.7785-1.4309Z" fill="#009FD9"/>
  <path d="M95.4125 50.8238a16.6463 16.6463 0 0 1 11.3765 4.4723l1.01-4.0397a16.7112 16.7112 0 0 0-20.7783-3.2334 16.7119 16.7119 0 0 0-5.4847 5.1393l.9459 3.7863a16.6759 16.6759 0 0 1 12.9306-6.1248Z" fill="#00B8F0"/>
  <path d="M95.4125 45.7639a16.6882 16.6882 0 0 0-13.8765 7.3984l2.0813 8.3277v15.7274h21.6247V61.49l2.56-10.2323a16.679 16.679 0 0 0-5.611-4.0629 16.6726 16.6726 0 0 0-6.7785-1.4309Z" stroke="#45413C" stroke-linecap="round" stroke-linejoin="round"/>
  <path d="M95.4125 45.7639a16.6397 16.6397 0 0 0-7.808 1.9316l6.8211 19.6928 7.0514-20.4877a16.6682 16.6682 0 0 0-6.0645-1.1367v0Z" fill="#fff" stroke="#45413C" stroke-linecap="round" stroke-linejoin="round"/>
  <path d="M105.242 82.1311a2.9476 2.9476 0 0 0 2.948 2.9485c.782 0 1.532-.3106 2.085-.8636a2.9486 2.9486 0 0 0 .864-2.0849V78.199h-5.897v3.9321Z" fill="#FFDA8F" stroke="#45413C" stroke-linecap="round" stroke-linejoin="round"/>
  <path d="M92.5721 45.7639h3.9322v3.9322h-3.9322v-3.9322Z" fill="#FF6242" stroke="#45413C" stroke-linecap="round" stroke-linejoin="round"/>
  <path d="m96.5043 45.7638 2.1837-1.0918a1.6317 1.6317 0 0 1 1.437-.013c.225.1075.422.2651.577.4606.154.1955.262.4237.314.6672a9.504 9.504 0 0 1 .008 4.608 1.6316 1.6316 0 0 1-.755.9423 1.6294 1.6294 0 0 1-1.1957.1649 3.9408 3.9408 0 0 1-2.5702-1.8086l.0012-3.9296Z" fill="#FF6242" stroke="#45413C" stroke-linecap="round" stroke-linejoin="round"/>
  <path d="M83.6172 73.2852h21.6248v3.9321H83.6172v-3.9321Z" fill="#915E3A" stroke="#45413C" stroke-linecap="round" stroke-linejoin="round"/>
  <path d="m92.5721 45.7638-2.1849-1.0918a1.6338 1.6338 0 0 0-1.4374-.013 1.6343 1.6343 0 0 0-.891 1.1278 9.5077 9.5077 0 0 0-.0076 4.608 1.6307 1.6307 0 0 0 1.9507 1.1072 3.938 3.938 0 0 0 2.5702-1.8086v-3.9296Z" fill="#FF6242" stroke="#45413C" stroke-linecap="round" stroke-linejoin="round"/>
  <path d="M94.4295 52.6438a.9833.9833 0 0 0-.9642 1.1748.9836.9836 0 0 0 .269.5034.9836.9836 0 0 0 1.0713.2131.9837.9837 0 0 0 .6069-.9083.9833.9833 0 0 0-.983-.983ZM94.4295 56.5762a.9836.9836 0 0 0-.9084.6071.9828.9828 0 0 0 1.2854 1.2838.9824.9824 0 0 0 .4409-.3627.9823.9823 0 0 0 .1651-.5465.9804.9804 0 0 0-.288-.6946.9827.9827 0 0 0-.3189-.2128.9826.9826 0 0 0-.3761-.0743Z" fill="#45413C"/>
  <path d="M83.6172 69.353h21.6248Z" fill="#009FD9"/>
  <path d="M83.6172 69.353h21.6248" stroke="#45413C" stroke-linecap="round" stroke-linejoin="round"/>
  <path opacity=".15" d="M76.5901 107.929c0 .322.4225.641 1.2435.938.821.297 2.0244.567 3.5414.795 1.517.227 3.3179.408 5.3.531 1.982.123 4.1064.186 6.2517.186 2.1454 0 4.2697-.063 6.2518-.186 1.9825-.123 3.7825-.304 5.2995-.531 1.517-.228 2.721-.498 3.542-.795.821-.297 1.243-.616 1.243-.938 0-.321-.422-.64-1.243-.937-.821-.297-2.025-.567-3.542-.795-1.517-.227-3.317-.408-5.2995-.531-1.9821-.123-4.1064-.187-6.2518-.187-2.1453 0-4.2697.064-6.2517.187-1.9821.123-3.783.304-5.3.531-1.517.228-2.7204.498-3.5414.795-.821.297-1.2435.616-1.2435.937Z" fill="#45413C"/>
  <path d="M83.6172 73.2852h21.6248Z" fill="#009FD9"/>
  <path d="M83.6172 73.2852h21.6248" stroke="#45413C" stroke-linecap="round" stroke-linejoin="round"/>
  <path d="M94.4294 67.3882v9.8291Z" fill="#fff"/>
  <path d="M94.4294 67.3882v9.8291" stroke="#45413C" stroke-linecap="round" stroke-linejoin="round"/>
</svg>
