<svg xmlns="http://www.w3.org/2000/svg" version="1.1" xmlns:xlink="http://www.w3.org/1999/xlink" xmlns:svgjs="http://svgjs.com/svgjs" viewBox="0 0 160 160" width="160" height="160"><g transform="matrix(1.6,0,0,1.6,0,0)"><path d="M90,49.591a40,40,0,1,0-76.436,16.5H86.436A39.829,39.829,0,0,0,90,49.591Z" fill="#c7f0ff"></path><path d="M13.564,66.091a40,40,0,0,0,72.872,0Z" fill="#ccf7ad"></path><path d="M11 66.091L89 66.091" fill="none" stroke="#45413c" stroke-linecap="round" stroke-linejoin="round"></path><path d="M6.5 66.091L9 66.091" fill="none" stroke="#45413c" stroke-linecap="round" stroke-linejoin="round"></path><path d="M91 66.091L93.5 66.091" fill="none" stroke="#45413c" stroke-linecap="round" stroke-linejoin="round"></path><path d="M35.987 88.412 A13.313 1.997 0 1 0 62.613 88.412 A13.313 1.997 0 1 0 35.987 88.412 Z" fill="#45413c" opacity=".15"></path><path d="M44.776 30.577L44.776 66.099" fill="none" stroke="#45413c" stroke-linecap="round" stroke-linejoin="round"></path><path d="M55.921 30.577L55.921 66.099" fill="none" stroke="#45413c" stroke-linecap="round" stroke-linejoin="round"></path><path d="M27.363,66.1V37.542a2.786,2.786,0,0,1,2.786-2.786h40.4a2.786,2.786,0,0,1,2.786,2.786V66.1" fill="none" stroke="#45413c" stroke-linecap="round" stroke-linejoin="round"></path><path d="M61.493 66.099L61.493 34.756 62.886 30.577" fill="none" stroke="#45413c" stroke-linecap="round" stroke-linejoin="round"></path><path d="M21.791,34.756a4.183,4.183,0,0,1,4.179-4.179H74.726a4.183,4.183,0,0,1,4.179,4.179V66.1h2.787V34.756a6.974,6.974,0,0,0-6.966-6.965H25.97a6.974,6.974,0,0,0-6.965,6.965V66.1h2.786Z" fill="#ffffff" stroke="#45413c" stroke-miterlimit="10"></path><path d="M77.362 31.515L72.506 35.561" fill="none" stroke="#45413c" stroke-linecap="round" stroke-linejoin="round"></path><path d="M21.791 37.542L27.363 41.025 73.333 41.025 78.905 37.542" fill="none" stroke="#45413c" stroke-linecap="round" stroke-linejoin="round"></path><path d="M21.791 43.811L27.363 47.293 73.333 47.293 78.905 43.811" fill="none" stroke="#45413c" stroke-linecap="round" stroke-linejoin="round"></path><path d="M21.791 50.079L27.363 53.562 73.333 53.562 78.905 50.079" fill="none" stroke="#45413c" stroke-linecap="round" stroke-linejoin="round"></path><path d="M21.791 56.348L27.363 59.83 73.333 59.83 78.905 56.348" fill="none" stroke="#45413c" stroke-linecap="round" stroke-linejoin="round"></path><path d="M39.204 66.099L39.204 34.756 37.811 30.577" fill="none" stroke="#45413c" stroke-linecap="round" stroke-linejoin="round"></path><path d="M55.921 34.756L55.921 66.099" fill="none" stroke="#45413c" stroke-linecap="round" stroke-linejoin="round"></path><path d="M23.335 31.515L28.191 35.561" fill="none" stroke="#45413c" stroke-linecap="round" stroke-linejoin="round"></path><path d="M33.632 66.099L33.632 34.756 30.846 30.577" fill="none" stroke="#45413c" stroke-linecap="round" stroke-linejoin="round"></path><path d="M67.065 66.099L67.065 34.756 69.851 30.577" fill="none" stroke="#45413c" stroke-linecap="round" stroke-linejoin="round"></path><path d="M49.427,37.824A11.733,11.733,0,0,0,37.445,49.907v.564h4.66V62.453H56.749V50.471h4.659v-.564A11.733,11.733,0,0,0,49.427,37.824Z" fill="#9f5ae5"></path><path d="M49.427,37.824A11.733,11.733,0,0,0,37.445,49.907v.564h.388a11.424,11.424,0,0,1,11.594-8.639,11.425,11.425,0,0,1,11.594,8.639h.387v-.564A11.733,11.733,0,0,0,49.427,37.824Z" fill="#bf8df2"></path><path d="M49.427,37.824A11.733,11.733,0,0,0,37.445,49.907v.564h4.66V62.453H56.749V50.471h4.659v-.564A11.733,11.733,0,0,0,49.427,37.824Z" fill="none" stroke="#45413c" stroke-linecap="round" stroke-linejoin="round"></path><path d="M43.707 74.434L44.508 87.747 54.346 87.747 55.147 74.434 43.707 74.434z" fill="#d18660"></path><path d="M54.946 77.762L55.147 74.434 43.707 74.434 43.907 77.762 54.946 77.762z" fill="#bd704a"></path><path d="M43.707 74.434L44.508 87.747 54.346 87.747 55.147 74.434 43.707 74.434z" fill="none" stroke="#45413c" stroke-linecap="round" stroke-linejoin="round"></path><path d="M44.108 81.09L44.508 87.747 54.346 87.747 54.746 81.09 44.108 81.09z" fill="#ffffff" stroke="#45413c" stroke-linecap="round" stroke-linejoin="round"></path><path d="M52.663,38.173a1,1,0,0,1-.757-.972l0-2.445H46.951l0,2.447a1,1,0,0,1-.757.97q-.363.09-.719.208a3.994,3.994,0,0,0,7.91,0Q53.027,38.263,52.663,38.173Z" fill="#d18660" stroke="#45413c" stroke-linecap="round" stroke-linejoin="round"></path><path d="M42.771 87.758L42.771 88.559" fill="none" stroke="#45413c" stroke-linecap="round" stroke-linejoin="round"></path><path d="M44.767 87.758L44.767 88.559" fill="none" stroke="#45413c" stroke-linecap="round" stroke-linejoin="round"></path><path d="M46.764 87.758L46.764 88.559" fill="none" stroke="#45413c" stroke-linecap="round" stroke-linejoin="round"></path><path d="M48.761 87.758L48.761 88.559" fill="none" stroke="#45413c" stroke-linecap="round" stroke-linejoin="round"></path><path d="M41.21,85.7a1.331,1.331,0,0,0,1.114,2.06h7.1C49.427,83.034,43.188,82.678,41.21,85.7Z" fill="#ff6196" stroke="#45413c" stroke-linecap="round" stroke-linejoin="round"></path><path d="M56.083 87.758L56.083 88.559" fill="none" stroke="#45413c" stroke-linecap="round" stroke-linejoin="round"></path><path d="M54.086 87.758L54.086 88.559" fill="none" stroke="#45413c" stroke-linecap="round" stroke-linejoin="round"></path><path d="M52.089 87.758L52.089 88.559" fill="none" stroke="#45413c" stroke-linecap="round" stroke-linejoin="round"></path><path d="M50.093 87.758L50.093 88.559" fill="none" stroke="#45413c" stroke-linecap="round" stroke-linejoin="round"></path><path d="M57.644,85.7a1.331,1.331,0,0,1-1.115,2.06h-7.1C49.427,83.034,55.666,82.678,57.644,85.7Z" fill="#ff6196" stroke="#45413c" stroke-linecap="round" stroke-linejoin="round"></path><path d="M41.4,81.946a7.514,7.514,0,1,1-7.514-7.514A7.513,7.513,0,0,1,41.4,81.946Z" fill="#ffffff" stroke="#45413c" stroke-linecap="round" stroke-linejoin="round"></path><path d="M36.032 85.166L31.738 85.166 30.665 80.872 33.885 78.726 37.106 80.872 36.032 85.166z" fill="#ebcb00" stroke="#45413c" stroke-linecap="round" stroke-linejoin="round"></path><path d="M33.885 78.726L33.885 74.432" fill="none" stroke="#45413c" stroke-linecap="round" stroke-linejoin="round"></path><path d="M36.032 85.166L38.179 88.112" fill="none" stroke="#45413c" stroke-linecap="round" stroke-linejoin="round"></path><path d="M31.738 85.166L29.592 88.112" fill="none" stroke="#45413c" stroke-linecap="round" stroke-linejoin="round"></path><path d="M30.665 80.872L26.756 79.569" fill="none" stroke="#45413c" stroke-linecap="round" stroke-linejoin="round"></path><path d="M37.106 80.872L41.015 79.569" fill="none" stroke="#45413c" stroke-linecap="round" stroke-linejoin="round"></path><path d="M55.749,74.434H43.105a1,1,0,0,1-1-1V62.453H56.749V73.434A1,1,0,0,1,55.749,74.434Z" fill="#ffe500"></path><path d="M42.105 62.453H56.748999999999995V66.447H42.105z" fill="#ebcb00"></path><path d="M39.775,69.109h0a2.33,2.33,0,0,1-2.33-2.33V50.471h4.66V66.779A2.33,2.33,0,0,1,39.775,69.109Z" fill="#d18660" stroke="#45413c" stroke-linecap="round" stroke-linejoin="round"></path><path d="M59.079,69.109h0a2.33,2.33,0,0,1-2.33-2.33V50.471h4.659V66.779A2.33,2.33,0,0,1,59.079,69.109Z" fill="#d18660" stroke="#45413c" stroke-linecap="round" stroke-linejoin="round"></path><path d="M42.105,53.134H38.111a1.332,1.332,0,0,1,0-2.663h3.994Z" fill="#ffffff" stroke="#45413c" stroke-linecap="round" stroke-linejoin="round"></path><path d="M62.074,51.8a1.331,1.331,0,0,1-1.331,1.332H56.749V50.471h3.994A1.331,1.331,0,0,1,62.074,51.8Z" fill="#ffffff" stroke="#45413c" stroke-linecap="round" stroke-linejoin="round"></path><path d="M50.758,46.477a1.331,1.331,0,1,1-2.662,0V41.818h2.662Z" fill="#ffffff" stroke="#45413c" stroke-linecap="round" stroke-linejoin="round"></path><path d="M39.442,27.282c-5.751,0-2.842,3.844-4.811,8.328a.669.669,0,0,0,.681.929c3.779-.418,4.13-2.953,4.13-6.594Z" fill="#724f3d"></path><path d="M35.449,31.874c.633-.992,1.734-1.585,3.992-1.585,0-.114,0-.228,0-.344V27.282C35.4,27.282,35.636,29.184,35.449,31.874Z" fill="#a86c4d"></path><path d="M39.442,27.282c-5.751,0-2.842,3.844-4.811,8.328a.669.669,0,0,0,.681.929c3.779-.418,4.13-2.953,4.13-6.594Z" fill="none" stroke="#45413c" stroke-linecap="round" stroke-linejoin="round"></path><path d="M59.411,27.282c5.752,0,2.843,3.844,4.811,8.328a.668.668,0,0,1-.681.929c-3.778-.418-4.13-2.953-4.13-6.594Z" fill="#724f3d"></path><path d="M63.405,31.874c-.634-.992-1.734-1.585-3.992-1.585,0-.114,0-.228,0-.344V27.282C63.457,27.282,63.217,29.184,63.405,31.874Z" fill="#a86c4d"></path><path d="M59.411,27.282c5.752,0,2.843,3.844,4.811,8.328a.668.668,0,0,1-.681.929c-3.778-.418-4.13-2.953-4.13-6.594Z" fill="none" stroke="#45413c" stroke-linecap="round" stroke-linejoin="round"></path><path d="M37.445 26.616 A2.663 2.663 0 1 0 42.771 26.616 A2.663 2.663 0 1 0 37.445 26.616 Z" fill="#724f3d"></path><path d="M40.108,25.95a2.663,2.663,0,0,1,2.468,1.665,2.663,2.663,0,1,0-4.936,0A2.663,2.663,0,0,1,40.108,25.95Z" fill="#a86c4d"></path><path d="M37.445 26.616 A2.663 2.663 0 1 0 42.771 26.616 A2.663 2.663 0 1 0 37.445 26.616 Z" fill="none" stroke="#45413c" stroke-linecap="round" stroke-linejoin="round"></path><path d="M56.083 26.616 A2.663 2.663 0 1 0 61.409 26.616 A2.663 2.663 0 1 0 56.083 26.616 Z" fill="#724f3d"></path><path d="M58.746,25.95a2.663,2.663,0,0,1,2.468,1.665,2.663,2.663,0,1,0-4.936,0A2.662,2.662,0,0,1,58.746,25.95Z" fill="#a86c4d"></path><path d="M56.083 26.616 A2.663 2.663 0 1 0 61.409 26.616 A2.663 2.663 0 1 0 56.083 26.616 Z" fill="none" stroke="#45413c" stroke-linecap="round" stroke-linejoin="round"></path><path d="M40.108,28.613a1.641,1.641,0,0,1,1.331-1.6V25.95a7.988,7.988,0,0,1,15.976,0v1.066a1.631,1.631,0,0,1-.168,3.228,7.988,7.988,0,0,1-15.64,0A1.649,1.649,0,0,1,40.108,28.613Z" fill="#d18660" stroke="#45413c" stroke-linecap="round" stroke-linejoin="round"></path><path d="M52.756 29.611 A0.998 0.998 0 1 0 54.752 29.611 A0.998 0.998 0 1 0 52.756 29.611 Z" fill="#bd704a"></path><path d="M44.102 29.611 A0.998 0.998 0 1 0 46.098 29.611 A0.998 0.998 0 1 0 44.102 29.611 Z" fill="#bd704a"></path><path d="M51.424,32a3.6,3.6,0,0,1-3.994,0" fill="none" stroke="#45413c" stroke-linecap="round" stroke-linejoin="round"></path><path d="M49.427,15.3a9.319,9.319,0,0,0-9.319,9.319v3.994a1.658,1.658,0,0,1,1.658-1.634l1.005-4.357.665,2.663H55.418l.665-2.663,1.005,4.357a1.658,1.658,0,0,1,1.658,1.634V24.619A9.319,9.319,0,0,0,49.427,15.3Z" fill="#724f3d"></path><path d="M49.427,15.3a9.319,9.319,0,0,0-9.319,9.319v2.663a9.319,9.319,0,0,1,18.638,0V24.619A9.319,9.319,0,0,0,49.427,15.3Z" fill="#a86c4d"></path><path d="M49.427,15.3a9.319,9.319,0,0,0-9.319,9.319v3.994a1.658,1.658,0,0,1,1.658-1.634l1.005-4.357.665,2.663H55.418l.665-2.663,1.005,4.357a1.658,1.658,0,0,1,1.658,1.634V24.619A9.319,9.319,0,0,0,49.427,15.3Z" fill="none" stroke="#45413c" stroke-linecap="round" stroke-linejoin="round"></path><path d="M46.099 22.622L46.099 25.285" fill="none" stroke="#45413c" stroke-linecap="round" stroke-linejoin="round"></path><path d="M52.755 22.622L52.755 25.285" fill="none" stroke="#45413c" stroke-linecap="round" stroke-linejoin="round"></path><path d="M49.427 22.622L49.427 25.285" fill="none" stroke="#45413c" stroke-linecap="round" stroke-linejoin="round"></path><path d="M45.434 26.949 A0.998 0.998 0 1 0 47.430 26.949 A0.998 0.998 0 1 0 45.434 26.949 Z" fill="#45413c"></path><path d="M51.424 26.949 A0.998 0.998 0 1 0 53.420 26.949 A0.998 0.998 0 1 0 51.424 26.949 Z" fill="#45413c"></path><path d="M55.749,74.434H43.105a1,1,0,0,1-1-1V62.453H56.749V73.434A1,1,0,0,1,55.749,74.434Z" fill="none" stroke="#45413c" stroke-linecap="round" stroke-linejoin="round"></path><path d="M49.427 87.747L49.427 67.778" fill="none" stroke="#45413c" stroke-linecap="round" stroke-linejoin="round"></path><path d="M82.52,87.081a1.331,1.331,0,0,1-1.331,1.331H65.879a1.331,1.331,0,0,1,0-2.662h15.31A1.331,1.331,0,0,1,82.52,87.081Z" fill="#ff8a14" stroke="#45413c" stroke-linecap="round" stroke-linejoin="round"></path><path d="M74.756,67.135l5.1,18.615H67.21l5.1-18.615A1.268,1.268,0,0,1,74.756,67.135Z" fill="#ff8a14" stroke="#45413c" stroke-linecap="round" stroke-linejoin="round"></path><path d="M69.034 79.093L78.034 79.093 76.391 73.103 70.676 73.103 69.034 79.093z" fill="#ffffff" stroke="#45413c" stroke-linecap="round" stroke-linejoin="round"></path><path d="M42.105 50.471L42.105 48.474" fill="none" stroke="#45413c" stroke-linecap="round" stroke-linejoin="round"></path><path d="M56.749 50.471L56.749 48.474" fill="none" stroke="#45413c" stroke-linecap="round" stroke-linejoin="round"></path></g></svg>