<svg xmlns="http://www.w3.org/2000/svg" version="1.1" xmlns:xlink="http://www.w3.org/1999/xlink" xmlns:svgjs="http://svgjs.com/svgjs" viewBox="0 0 160 160" width="160" height="160"><g transform="matrix(1.6,0,0,1.6,0,0)"><path d="M50.5,90A39.948,39.948,0,0,0,85.108,70H15.892A39.948,39.948,0,0,0,50.5,90Z" fill="#ccf7ad"></path><path d="M14.064,66.5c.546,1.2,1.17,2.363,1.828,3.5H85.108c.658-1.137,1.282-2.3,1.828-3.5Z" fill="#ccf7ad"></path><path d="M90.5,50A40,40,0,1,0,14.064,66.5H86.936A39.829,39.829,0,0,0,90.5,50Z" fill="#c7f0ff"></path><path d="M11.5 66.5L89.5 66.5" fill="none" stroke="#45413c" stroke-linecap="round" stroke-linejoin="round"></path><path d="M7 66.5L9.5 66.5" fill="none" stroke="#45413c" stroke-linecap="round" stroke-linejoin="round"></path><path d="M91.5 66.5L94 66.5" fill="none" stroke="#45413c" stroke-linecap="round" stroke-linejoin="round"></path><path d="M40.469 59.011H47.958V61.734H40.469z" fill="#87898c" stroke="#45413c" stroke-linecap="round" stroke-linejoin="round"></path><path d="M40.469 56.288H47.958V59.010999999999996H40.469z" fill="#87898c" stroke="#45413c" stroke-linecap="round" stroke-linejoin="round"></path><path d="M80.635 44.034H90.16600000000001V56.288H80.635z" fill="#ffe500"></path><path d="M80.635 44.034H90.16600000000001V46.757H80.635z" fill="#fff48c"></path><path d="M80.635 44.034H90.16600000000001V56.288H80.635z" fill="none" stroke="#45413c" stroke-linecap="round" stroke-linejoin="round"></path><path d="M90.166,44.034l1.692.423a1.361,1.361,0,0,1,1.031,1.321v10.51H90.166Z" fill="#ffe500"></path><path d="M91.858,44.457l-1.692-.423v2.723l1.692.423A1.361,1.361,0,0,1,92.889,48.5V45.778A1.361,1.361,0,0,0,91.858,44.457Z" fill="#fff48c"></path><path d="M90.166,44.034l1.692.423a1.361,1.361,0,0,1,1.031,1.321v10.51H90.166Z" fill="none" stroke="#45413c" stroke-linecap="round" stroke-linejoin="round"></path><path d="M40.469,56.288H3.026V40.949a1,1,0,0,1,1-1H39.469a1,1,0,0,1,1,1Z" fill="#00dba8"></path><path d="M39.108,39.949H4.388a1.362,1.362,0,0,0-1.362,1.362v3.4a1.362,1.362,0,0,1,1.362-1.362h34.72a1.362,1.362,0,0,1,1.361,1.362v-3.4A1.362,1.362,0,0,0,39.108,39.949Z" fill="#00f5bc"></path><path d="M40.469,56.288H3.026V40.949a1,1,0,0,1,1-1H39.469a1,1,0,0,1,1,1Z" fill="none" stroke="#45413c" stroke-linecap="round" stroke-linejoin="round"></path><path d="M80.635,49.48V46.757H50.681v9.531h35.4V52.2a1.361,1.361,0,0,0-1.361-1.361H82A1.362,1.362,0,0,1,80.635,49.48Z" fill="#ffe500" stroke="#45413c" stroke-linecap="round" stroke-linejoin="round"></path><path d="M86.081,44.034H80.635V35.865h4.292a1.154,1.154,0,0,1,1.154,1.154Z" fill="#656769"></path><path d="M84.509,35.865H80.635v3.4h3.874a1.572,1.572,0,0,1,1.572,1.572v-3.4A1.572,1.572,0,0,0,84.509,35.865Z" fill="#87898c"></path><path d="M86.081,44.034H80.635V35.865h4.292a1.154,1.154,0,0,1,1.154,1.154Z" fill="none" stroke="#45413c" stroke-linecap="round" stroke-linejoin="round"></path><path d="M50.681 44.034H80.63499999999999V46.757H50.681z" fill="#ff6242" stroke="#45413c" stroke-linecap="round" stroke-linejoin="round"></path><path d="M50.681,44.034H80.635V35.865H52.606a1.359,1.359,0,0,0-.963.4l-.564.563a1.364,1.364,0,0,0-.4.963Z" fill="#656769"></path><path d="M52.606,35.865a1.359,1.359,0,0,0-.963.4l-.564.563a1.364,1.364,0,0,0-.4.963v3.4a1.364,1.364,0,0,1,.4-.963l.564-.564a1.362,1.362,0,0,1,.963-.4H80.635v-3.4Z" fill="#87898c"></path><path d="M50.681,44.034H80.635V35.865H52.606a1.359,1.359,0,0,0-.963.4l-.564.563a1.364,1.364,0,0,0-.4.963Z" fill="none" stroke="#45413c" stroke-linecap="round" stroke-linejoin="round"></path><path d="M83.358,44.034h2.723V38.588H84.358a1,1,0,0,0-1,1Z" fill="#00b8f0" stroke="#45413c" stroke-linecap="round" stroke-linejoin="round"></path><path d="M77.593,39.949H75.508a1,1,0,0,0-1,1v3.085h4.085V40.949A1,1,0,0,0,77.593,39.949Z" fill="#00b8f0" stroke="#45413c" stroke-linecap="round" stroke-linejoin="round"></path><path d="M60.212 35.184 L71.104 35.184 L71.104 39.949 L60.212 39.949 Z" fill="#adc4d9" stroke="#45413c" stroke-linecap="round" stroke-linejoin="round"></path><path d="M57.489,44.034H50.681v-3.4h5.808a1,1,0,0,1,1,1Z" fill="#adc4d9" stroke="#45413c" stroke-linecap="round" stroke-linejoin="round"></path><path d="M57.669,33.822H54.585a.5.5,0,0,0-.5.5v1.543h4.084V34.322A.5.5,0,0,0,57.669,33.822Z" fill="#87898c" stroke="#45413c" stroke-linecap="round" stroke-linejoin="round"></path><path d="M86.081,56.288H45.235V58.33a.68.68,0,0,0,.68.681H84.72a1.361,1.361,0,0,1,1.361,1.362v5.446a.681.681,0,0,0,.681.681H96.974a.681.681,0,0,0,.681-.681v-8.85a.681.681,0,0,0-.681-.681Z" fill="#656769" stroke="#45413c" stroke-linecap="round" stroke-linejoin="round"></path><path d="M76.551 63.777 A2.723 2.723 0 1 0 81.997 63.777 A2.723 2.723 0 1 0 76.551 63.777 Z" fill="#87898c" stroke="#45413c" stroke-linecap="round" stroke-linejoin="round"></path><path d="M71.104 63.777 A2.723 2.723 0 1 0 76.550 63.777 A2.723 2.723 0 1 0 71.104 63.777 Z" fill="#87898c" stroke="#45413c" stroke-linecap="round" stroke-linejoin="round"></path><path d="M50.000 63.777 A2.723 2.723 0 1 0 55.446 63.777 A2.723 2.723 0 1 0 50.000 63.777 Z" fill="#87898c" stroke="#45413c" stroke-linecap="round" stroke-linejoin="round"></path><path d="M3.707 63.777 A2.723 2.723 0 1 0 9.153 63.777 A2.723 2.723 0 1 0 3.707 63.777 Z" fill="#87898c" stroke="#45413c" stroke-miterlimit="10"></path><path d="M9.153 63.777 A2.723 2.723 0 1 0 14.599 63.777 A2.723 2.723 0 1 0 9.153 63.777 Z" fill="#87898c" stroke="#45413c" stroke-linecap="round" stroke-linejoin="round"></path><path d="M34.342 63.777 A2.723 2.723 0 1 0 39.788 63.777 A2.723 2.723 0 1 0 34.342 63.777 Z" fill="#87898c" stroke="#45413c" stroke-linecap="round" stroke-linejoin="round"></path><path d="M28.896 63.777 A2.723 2.723 0 1 0 34.342 63.777 A2.723 2.723 0 1 0 28.896 63.777 Z" fill="#87898c" stroke="#45413c" stroke-linecap="round" stroke-linejoin="round"></path><path d="M47.277,59.011V61.17a1.359,1.359,0,0,0,.4.963l1.585,1.585a1.357,1.357,0,0,0,.963.4H78.71a1.357,1.357,0,0,0,.962-.4l1.474-1.473h4.935V60.373a1.361,1.361,0,0,0-1.361-1.362Z" fill="#8ca4b8"></path><path d="M86.081,61.053h-38.8V59.011h37.8a1,1,0,0,1,1,1Z" fill="#627b8c"></path><path d="M47.277,59.011V61.17a1.359,1.359,0,0,0,.4.963l1.585,1.585a1.357,1.357,0,0,0,.963.4H78.71a1.357,1.357,0,0,0,.962-.4l1.474-1.473h4.935V60.373a1.361,1.361,0,0,0-1.361-1.362Z" fill="none" stroke="#45413c" stroke-linecap="round" stroke-linejoin="round"></path><path d="M67.381,61.734H59.169a1,1,0,0,1-1-1V59.011H68.381v1.723A1,1,0,0,1,67.381,61.734Z" fill="#bdbec0" stroke="#45413c" stroke-linecap="round" stroke-linejoin="round"></path><path d="M98.516,66.5H93.389a.5.5,0,0,1-.5-.5V60.692a1,1,0,0,1,1-1h4.627a.5.5,0,0,1,.5.5V66A.5.5,0,0,1,98.516,66.5Z" fill="#525252" stroke="#45413c" stroke-linecap="round" stroke-linejoin="round"></path><path d="M66.7,50.161H46.235a1,1,0,0,0-1,1v5.127H67.7V51.161A1,1,0,0,0,66.7,50.161Z" fill="none" stroke="#45413c" stroke-linecap="round" stroke-linejoin="round"></path><path d="M80.635,46.757h5.446l4.085,4.085h4.765A1.361,1.361,0,0,1,96.293,52.2v4.085" fill="none" stroke="#45413c" stroke-linecap="round" stroke-linejoin="round"></path><path d="M84.039,34.5a1.362,1.362,0,0,0-1.362-1.362H80.635A1.361,1.361,0,0,0,79.274,34.5h0a1.361,1.361,0,0,0,1.361,1.362h3.4Z" fill="#87898c" stroke="#45413c" stroke-linecap="round" stroke-linejoin="round"></path><path d="M54.085 40.63L54.085 44.034" fill="none" stroke="#45413c" stroke-linecap="round" stroke-linejoin="round"></path><path d="M56.127 50.161L56.127 56.288" fill="none" stroke="#45413c" stroke-linecap="round" stroke-linejoin="round"></path><path d="M62.254 50.161L62.254 56.288" fill="none" stroke="#45413c" stroke-linecap="round" stroke-linejoin="round"></path><path d="M60.212 37.226L71.104 37.226" fill="none" stroke="#45413c" stroke-linecap="round" stroke-linejoin="round"></path><path d="M41.15,59.011H2.345A1.361,1.361,0,0,1,.984,57.65h0a1.361,1.361,0,0,1,1.361-1.362H41.15a1.361,1.361,0,0,1,1.361,1.362h0A1.361,1.361,0,0,1,41.15,59.011Z" fill="#ff8a14" stroke="#45413c" stroke-linecap="round" stroke-linejoin="round"></path><path d="M2.345,59.011v1.362a1.361,1.361,0,0,0,1.362,1.361H9.153l1.585,1.585a2.724,2.724,0,0,0,1.926.8H30.321a2.72,2.72,0,0,0,1.925-.8L33.661,61.9h6.127a1.361,1.361,0,0,0,1.362-1.361V59.011Z" fill="#eb6d00" stroke="#45413c" stroke-linecap="round" stroke-linejoin="round"></path><path d="M7.111 43.353L36.384 43.353" fill="none" stroke="#45413c" stroke-linecap="round" stroke-linejoin="round"></path><path d="M7.111 46.076L36.384 46.076" fill="none" stroke="#45413c" stroke-linecap="round" stroke-linejoin="round"></path><path d="M7.111 50.161L36.384 50.161" fill="none" stroke="#45413c" stroke-linecap="round" stroke-linejoin="round"></path><path d="M7.111 52.884L36.384 52.884" fill="none" stroke="#45413c" stroke-linecap="round" stroke-linejoin="round"></path><path d="M13.919 59.011L13.919 61.734" fill="none" stroke="#45413c" stroke-linecap="round" stroke-linejoin="round"></path><path d="M28.896 59.011L28.896 61.734" fill="none" stroke="#45413c" stroke-linecap="round" stroke-linejoin="round"></path><path d="M24.13 59.011L24.13 61.734" fill="none" stroke="#45413c" stroke-linecap="round" stroke-linejoin="round"></path><path d="M18.684 59.011L18.684 61.734" fill="none" stroke="#45413c" stroke-linecap="round" stroke-linejoin="round"></path></g></svg>