<svg viewBox="0 0 48 48" height="48" width="48" xmlns="http://www.w3.org/2000/svg"><g transform="matrix(0.48,0,0,0.48,0,0)"><path d="M10.000 50.474 A40.000 40.000 0 1 0 90.000 50.474 A40.000 40.000 0 1 0 10.000 50.474 Z" fill="#C7F0FF" stroke="#C7F0FF"></path><path d="M16.022 9.526 L42.272 9.526 L42.272 32.495 L16.022 32.495 Z" fill="#ffe500" stroke="#b58b00" stroke-linecap="round" stroke-linejoin="round"></path><path d="M35.278,25.487l-3.856-10.7a2.74,2.74,0,0,0-2.6-1.985,2.839,2.839,0,0,0-2.6,1.978l-3.953,10.7a2.217,2.217,0,0,0-.173.837,1.945,1.945,0,0,0,1.982,1.9A1.9,1.9,0,0,0,26,26.809l.473-1.465h4.7l.475,1.49a1.892,1.892,0,0,0,1.935,1.382,1.834,1.834,0,0,0,1.883-1.824A2.779,2.779,0,0,0,35.278,25.487Zm-5.327-3.909H27.657l1.16-3.54Z" fill="#ffffff" stroke="#ebcb00" stroke-linecap="round" stroke-linejoin="round"></path><path d="M56.914 10.322 L83.164 10.322 L83.164 33.291 L56.914 33.291 Z" fill="#6dd627" stroke="#388c00" stroke-linecap="round" stroke-linejoin="round"></path><path d="M75.808,25.375a10,10,0,0,1-2.862-.4,12.9,12.9,0,0,0,2.551-5.1h.311a1.756,1.756,0,0,0,0-3.511H71.8V15.28a1.756,1.756,0,0,0-3.511,0v1.076H64.2a1.756,1.756,0,0,0,0,3.511h7.636a8.746,8.746,0,0,1-2.06,3.393,8.094,8.094,0,0,1-1.8-2.079,1.756,1.756,0,0,0-3.1,1.644,10.991,10.991,0,0,0,1.711,2.247,8.984,8.984,0,0,1-2.382.3,1.756,1.756,0,0,0,0,3.511,11.65,11.65,0,0,0,5.677-1.377,12.945,12.945,0,0,0,5.932,1.377,1.756,1.756,0,0,0,0-3.511Z" fill="#ffffff" stroke="#46b000" stroke-linecap="round" stroke-linejoin="round"></path><path d="M48.02 58.338H51.980000000000004V62.298H48.02z" fill="#C7F0FF"></path><path d="M48.02 58.338H51.980000000000004V60.618H48.02z" fill="#c0dceb"></path><path d="M48.02 58.338H51.980000000000004V62.298H48.02z" fill="none" stroke="#45413c" stroke-linecap="round" stroke-linejoin="round"></path><path d="M36.203 37.362 L63.797 37.362 L63.797 59.043 L36.203 59.043 Z" fill="#00b8f0"></path><path d="M39.524,59.043h-.365A2.956,2.956,0,0,1,36.2,56.086V40.318a2.957,2.957,0,0,1,2.957-2.957H60.841Z" fill="#4acfff"></path><path d="M45.734,51.168A1.368,1.368,0,0,1,44.368,49.8c0-1.2-.569-1.833-.766-1.833s-.767.63-.767,1.833a1.366,1.366,0,0,1-2.732,0c0-2.56,1.537-4.566,3.5-4.566s3.5,2.006,3.5,4.566A1.368,1.368,0,0,1,45.734,51.168Z" fill="#ffffff" stroke="#009fd9"></path><path d="M58.531,51.168A1.368,1.368,0,0,1,57.165,49.8c0-1.2-.57-1.833-.767-1.833s-.766.63-.766,1.833a1.367,1.367,0,0,1-2.733,0c0-2.56,1.537-4.566,3.5-4.566s3.5,2.006,3.5,4.566A1.368,1.368,0,0,1,58.531,51.168Z" fill="#ffffff" stroke="#009fd9"></path><path d="M36.203 37.362 L63.797 37.362 L63.797 59.043 L36.203 59.043 Z" fill="none" stroke="#45413c" stroke-linecap="round" stroke-linejoin="round"></path><path d="M64.949 61.682H68.90899999999999V76.533H64.949z" fill="#ffffff" transform="translate(-22.321 105.02) rotate(-67.837)"></path><path d="M60.186,65.978l.613-1.506,6.333,2.58v.414a2.97,2.97,0,0,1-2.35,2.905l-4.6-1.872Z" fill="#e0e0e0"></path><path d="M64.949 61.682H68.90899999999999V76.533H64.949z" fill="none" stroke="#45413c" stroke-linecap="round" stroke-linejoin="round" transform="translate(-22.321 105.02) rotate(-67.837)"></path><path d="M71.115 64.474H82.041V68.434H71.115z" fill="#f0f0f0" transform="translate(-10.67 118.109) rotate(-71.579)"></path><path d="M75.369,63.816l1.057-3.171L80.183,61.9,79.149,65A2.97,2.97,0,0,1,75.369,63.816Z" fill="#e0e0e0"></path><path d="M71.115 64.474H82.041V68.434H71.115z" fill="#ffffff" stroke="#45413c" stroke-linecap="round" stroke-linejoin="round" transform="translate(-10.67 118.109) rotate(-71.579)"></path><path d="M82.775,52.353a.49.49,0,0,1,.394-.086.5.5,0,0,1,.327.235A5.2,5.2,0,1,1,75.5,51.284a.493.493,0,0,1,.382-.127.5.5,0,0,1,.351.2l.887,1.206a.5.5,0,0,1-.048.642,2.723,2.723,0,1,0,4.347.663.493.493,0,0,1,.146-.627Z" fill="#656769"></path><path d="M82.775,52.353a.49.49,0,0,1,.394-.086.5.5,0,0,1,.327.235A5.2,5.2,0,1,1,75.5,51.284a.493.493,0,0,1,.382-.127.5.5,0,0,1,.351.2l.887,1.206a.5.5,0,0,1-.048.642,2.723,2.723,0,1,0,4.347.663.493.493,0,0,1,.146-.627Z" fill="none" stroke="#45413c" stroke-linecap="round" stroke-linejoin="round"></path><path d="M75.781 59.937 A2.970 2.970 0 1 0 81.721 59.937 A2.970 2.970 0 1 0 75.781 59.937 Z" fill="#ffffff" stroke="#45413c" stroke-linecap="round" stroke-linejoin="round"></path><path d="M71.696 72.201 A2.970 2.970 0 1 0 77.636 72.201 A2.970 2.970 0 1 0 71.696 72.201 Z" fill="#ffffff" stroke="#45413c" stroke-linecap="round" stroke-linejoin="round"></path><path d="M42.080 62.298 L57.921 62.298 L57.921 77.149 L42.080 77.149 Z" fill="#ffffff" stroke="#45413c" stroke-linecap="round" stroke-linejoin="round"></path><path d="M47.03 77.149H52.97V82.191H47.03z" fill="#C7F0FF"></path><path d="M47.035 77.149H52.974999999999994V79.221H47.035z" fill="#c0dceb"></path><path d="M47.03 77.149H52.97V82.191H47.03z" fill="none" stroke="#45413c" stroke-linecap="round" stroke-linejoin="round"></path><path d="M53.96,69.228a1.979,1.979,0,0,1-1.98,1.98H48.02a1.979,1.979,0,0,1-1.98-1.98V62.3h7.92Z" fill="#00b8f0"></path><path d="M52.639 62.298L46.04 68.892 46.04 62.298 52.639 62.298z" fill="#4acfff"></path><path d="M53.96,69.228a1.979,1.979,0,0,1-1.98,1.98H48.02a1.979,1.979,0,0,1-1.98-1.98V62.3h7.92Z" fill="none" stroke="#45413c" stroke-linecap="round" stroke-linejoin="round"></path><path d="M55.668,82.191a1.98,1.98,0,0,1,1.867,2.641,7.924,7.924,0,0,1-14.939,0,1.98,1.98,0,0,1,1.867-2.64Z" fill="#ffffff" stroke="#45413c" stroke-linecap="round" stroke-linejoin="round"></path><path d="M57.92,69.228H61.9a2.97,2.97,0,0,0,2.97-2.97v-.99A2.97,2.97,0,0,0,61.9,62.3h-1.98a2,2,0,0,0-2,1.98Z" fill="#ffffff" stroke="#45413c" stroke-linecap="round" stroke-linejoin="round"></path><path d="M25.646 67.127H40.497V71.08699999999999H25.646z" fill="#ffffff" transform="translate(-23.627 17.582) rotate(-22.163)"></path><path d="M39.814,65.978,39.2,64.472l-6.333,2.58v.414a2.97,2.97,0,0,0,2.35,2.905l4.6-1.872Z" fill="#e0e0e0"></path><path d="M25.646 67.127H40.497V71.08699999999999H25.646z" fill="none" stroke="#45413c" stroke-linecap="round" stroke-linejoin="round" transform="translate(-23.627 17.582) rotate(-22.163)"></path><path d="M42.08,69.228H38.1a2.97,2.97,0,0,1-2.97-2.97v-.99A2.97,2.97,0,0,1,38.1,62.3h1.98a2,2,0,0,1,2,1.98Z" fill="#ffffff" stroke="#45413c" stroke-linecap="round" stroke-linejoin="round"></path><path d="M21.442 60.991H25.402V71.917H21.442z" fill="#f0f0f0" transform="matrix(0.949, -0.316, 0.316, 0.949, -19.799, 10.807)"></path><path d="M24.631,63.816l-1.057-3.171L19.817,61.9,20.851,65A2.97,2.97,0,0,0,24.631,63.816Z" fill="#e0e0e0"></path><path d="M21.442 60.991H25.402V71.917H21.442z" fill="none" stroke="#45413c" stroke-linecap="round" stroke-linejoin="round" transform="matrix(0.949, -0.316, 0.316, 0.949, -19.799, 10.807)"></path><path d="M17.225,52.353a.49.49,0,0,0-.394-.086.5.5,0,0,0-.327.235A5.2,5.2,0,1,0,24.5,51.284a.493.493,0,0,0-.382-.127.5.5,0,0,0-.351.2l-.887,1.206a.5.5,0,0,0,.048.642,2.723,2.723,0,1,1-4.347.663.493.493,0,0,0-.146-.627Z" fill="#656769"></path><path d="M17.225,52.353a.49.49,0,0,0-.394-.086.5.5,0,0,0-.327.235A5.2,5.2,0,1,0,24.5,51.284a.493.493,0,0,0-.382-.127.5.5,0,0,0-.351.2l-.887,1.206a.5.5,0,0,0,.048.642,2.723,2.723,0,1,1-4.347.663.493.493,0,0,0-.146-.627Z" fill="none" stroke="#45413c" stroke-linecap="round" stroke-linejoin="round"></path><path d="M18.279 59.937 A2.970 2.970 0 1 0 24.219 59.937 A2.970 2.970 0 1 0 18.279 59.937 Z" fill="#ffffff" stroke="#45413c" stroke-linecap="round" stroke-linejoin="round"></path><path d="M22.364 72.201 A2.970 2.970 0 1 0 28.304 72.201 A2.970 2.970 0 1 0 22.364 72.201 Z" fill="#ffffff" stroke="#45413c" stroke-linecap="round" stroke-linejoin="round"></path></g></svg>