<svg width="160" height="160" fill="none" xmlns="http://www.w3.org/2000/svg">
  <path d="M16 80c0 16.9739 6.7428 33.253 18.7452 45.255C46.7475 137.257 63.0261 144 80 144c16.9739 0 33.253-6.743 45.255-18.745C137.257 113.253 144 96.9739 144 80c0-16.9739-6.743-33.2525-18.745-45.2548C113.253 22.7428 96.9739 16 80 16c-16.9739 0-33.2525 6.7428-45.2548 18.7452C22.7428 46.7475 16 63.0261 16 80z" fill="#CDF2FF"/>
  <path d="M45.712 58.16l-.72 2.88h6.576l-.72-2.88c-.416-1.568-.848-3.216-1.296-4.944-.448-1.76-.848-3.472-1.2-5.136h-.192c-.384 1.664-.784 3.376-1.2 5.136-.416 1.728-.832 3.376-1.248 4.944zM34.432 74l9.744-31.296h8.448L62.368 74H54.88l-1.872-7.44h-9.456L41.632 74h-7.2zm34.3012 0V42.704h10.5121c1.632 0 3.136.128 4.512.384 1.408.224 2.624.64 3.648 1.248s1.824 1.408 2.4 2.4c.6079.992.9119 2.24.9119 3.744 0 .704-.1119 1.408-.3359 2.112-.192.704-.512 1.36-.9601 1.968-.4479.608-1.0079 1.152-1.6799 1.632-.672.48-1.472.832-2.4 1.056v.192c2.24.416 3.936 1.216 5.088 2.4 1.152 1.184 1.728 2.832 1.728 4.944 0 1.6-.304 2.976-.912 4.128-.608 1.152-1.456 2.112-2.544 2.88-1.088.736-2.368 1.296-3.84 1.68-1.44.352-3.008.528-4.7041.528h-11.424zm7.0561-18.72h3.12c1.7279 0 2.976-.336 3.744-1.008.768-.672 1.152-1.616 1.152-2.832 0-1.152-.4-1.968-1.2001-2.448-.7679-.512-1.9839-.768-3.648-.768h-3.1679v7.056zm0 13.2h3.792c3.776 0 5.664-1.408 5.664-4.224 0-1.376-.464-2.368-1.392-2.976-.896-.608-2.32-.912-4.272-.912h-3.792v8.112zm37.6607 6.096c-1.952 0-3.808-.336-5.568-1.008-1.728-.704-3.264-1.728-4.608-3.072-1.312-1.344-2.368-3.008-3.168-4.992-.7675-2.016-1.1515-4.336-1.1515-6.96 0-2.592.384-4.896 1.1515-6.912.768-2.048 1.824-3.776 3.168-5.184 1.344-1.408 2.928-2.48 4.752-3.216 1.824-.736 3.776-1.104 5.856-1.104 1.984 0 3.777.416 5.377 1.248 1.6.8 2.927 1.712 3.983 2.736l-3.887 4.368c-.736-.672-1.552-1.216-2.448-1.632-.864-.416-1.872-.624-3.025-.624-1.12 0-2.143.24-3.071.72-.928.448-1.745 1.104-2.449 1.968-.672.864-1.2 1.92-1.584 3.168-.384 1.248-.576 2.656-.576 4.224 0 3.232.736 5.744 2.209 7.536 1.472 1.76 3.392 2.64 5.76 2.64 1.12 0 2.144-.256 3.072-.768.96-.512 1.824-1.184 2.592-2.016l3.888 4.272c-2.592 3.072-6.016 4.608-10.273 4.608z" fill="url(#paint0_linear)"/>
  <path d="M37.36 120V88.704H46c2.272 0 4.336.304 6.192.912 1.856.608 3.44 1.552 4.752 2.832 1.312 1.248 2.32 2.848 3.024 4.8.736 1.952 1.104 4.272 1.104 6.96 0 2.688-.352 5.024-1.056 7.008-.704 1.984-1.712 3.632-3.024 4.944-1.28 1.28-2.816 2.24-4.608 2.88-1.792.64-3.776.96-5.952.96H37.36zm7.104-5.712h1.152c1.216 0 2.32-.176 3.312-.528 1.024-.352 1.888-.912 2.592-1.68.736-.8 1.296-1.84 1.68-3.12.416-1.28.624-2.864.624-4.752 0-1.856-.208-3.408-.624-4.656-.384-1.28-.944-2.288-1.68-3.024-.704-.768-1.568-1.312-2.592-1.632-.992-.32-2.096-.48-3.312-.48h-1.152v19.872zM69.5972 120V88.704h20.7361v5.952h-13.632v6.288h11.568v5.904h-11.568v7.2h14.112V120H69.5972z" fill="url(#paint1_linear)"/>
  <defs>
    <linearGradient id="paint0_linear" x1="80" y1="16" x2="80" y2="98" gradientUnits="userSpaceOnUse">
      <stop stop-color="#20F"/>
      <stop offset="1" stop-color="#9E00FF"/>
    </linearGradient>
    <linearGradient id="paint1_linear" x1="64" y1="62" x2="64" y2="144" gradientUnits="userSpaceOnUse">
      <stop stop-color="#20F"/>
      <stop offset="1" stop-color="#9E00FF"/>
    </linearGradient>
  </defs>
</svg>
