<svg width="160" height="160" viewBox="0 0 160 160" fill="none" xmlns="http://www.w3.org/2000/svg">
<path d="M16 80C16 96.9739 22.7428 113.253 34.7452 125.255C46.7475 137.257 63.0261 144 80 144C96.9739 144 113.253 137.257 125.255 125.255C137.257 113.253 144 96.9739 144 80C144 63.0261 137.257 46.7475 125.255 34.7452C113.253 22.7428 96.9739 16 80 16C63.0261 16 46.7475 22.7428 34.7452 34.7452C22.7428 46.7475 16 63.0261 16 80V80Z" fill="#CDF2FF"/>
<path d="M6.16 92V87.24H13V72.56H7.36V68.92C8.21333 68.7867 8.97333 68.6533 9.64 68.52C10.3333 68.36 10.96 68.1867 11.52 68C12.08 67.8133 12.6 67.6133 13.08 67.4C13.5867 67.16 14.08 66.8933 14.56 66.6H18.88V87.24H24.64V92H6.16ZM40.9844 92.48C39.5177 92.48 38.1844 92.2 36.9844 91.64C35.7844 91.0533 34.7577 90.2 33.9044 89.08C33.051 87.96 32.3844 86.5733 31.9044 84.92C31.451 83.2667 31.2244 81.36 31.2244 79.2C31.2244 77.04 31.451 75.1467 31.9044 73.52C32.3844 71.8933 33.051 70.5333 33.9044 69.44C34.7577 68.32 35.7844 67.4933 36.9844 66.96C38.1844 66.4 39.5177 66.12 40.9844 66.12C42.451 66.12 43.7844 66.4 44.9844 66.96C46.1844 67.4933 47.211 68.32 48.0644 69.44C48.9177 70.5333 49.571 71.8933 50.0244 73.52C50.5044 75.1467 50.7444 77.04 50.7444 79.2C50.7444 81.36 50.5044 83.2667 50.0244 84.92C49.571 86.5733 48.9177 87.96 48.0644 89.08C47.211 90.2 46.1844 91.0533 44.9844 91.64C43.7844 92.2 42.451 92.48 40.9844 92.48ZM40.9844 87.92C41.6244 87.92 42.211 87.7733 42.7444 87.48C43.3044 87.1867 43.7844 86.7067 44.1844 86.04C44.5844 85.3467 44.9044 84.4533 45.1444 83.36C45.3844 82.24 45.5044 80.8533 45.5044 79.2C45.5044 77.5467 45.3844 76.1733 45.1444 75.08C44.9044 73.9867 44.5844 73.12 44.1844 72.48C43.7844 71.8133 43.3044 71.3467 42.7444 71.08C42.211 70.8133 41.6244 70.68 40.9844 70.68C40.3444 70.68 39.7444 70.8133 39.1844 71.08C38.651 71.3467 38.1844 71.8133 37.7844 72.48C37.3844 73.12 37.0644 73.9867 36.8244 75.08C36.5844 76.1733 36.4644 77.5467 36.4644 79.2C36.4644 80.8533 36.5844 82.24 36.8244 83.36C37.0644 84.4533 37.3844 85.3467 37.7844 86.04C38.1844 86.7067 38.651 87.1867 39.1844 87.48C39.7444 87.7733 40.3444 87.92 40.9844 87.92ZM40.9844 82.16C40.131 82.16 39.411 81.8933 38.8244 81.36C38.2644 80.8 37.9844 80.0533 37.9844 79.12C37.9844 78.1867 38.2644 77.4533 38.8244 76.92C39.411 76.36 40.131 76.08 40.9844 76.08C41.8377 76.08 42.5444 76.36 43.1044 76.92C43.691 77.4533 43.9844 78.1867 43.9844 79.12C43.9844 80.0533 43.691 80.8 43.1044 81.36C42.5444 81.8933 41.8377 82.16 40.9844 82.16ZM57.2888 92V88.64C59.1021 87.12 60.7554 85.7067 62.2488 84.4C63.7421 83.0667 65.0221 81.8267 66.0888 80.68C67.1554 79.5333 67.9821 78.4533 68.5688 77.44C69.1554 76.4267 69.4488 75.4667 69.4488 74.56C69.4488 73.3067 69.0888 72.36 68.3688 71.72C67.6488 71.0533 66.6221 70.72 65.2888 70.72C64.2754 70.72 63.3421 70.9867 62.4888 71.52C61.6621 72.0267 60.8888 72.6267 60.1688 73.32L57.0088 70.16C57.6754 69.4933 58.3288 68.9067 58.9688 68.4C59.6354 67.8933 60.3288 67.48 61.0488 67.16C61.7954 66.8133 62.5688 66.56 63.3688 66.4C64.1954 66.2133 65.1021 66.12 66.0888 66.12C67.4221 66.12 68.6354 66.32 69.7288 66.72C70.8221 67.0933 71.7554 67.64 72.5288 68.36C73.3288 69.0533 73.9421 69.8933 74.3688 70.88C74.8221 71.8667 75.0488 72.9733 75.0488 74.2C75.0488 75.2667 74.7954 76.36 74.2888 77.48C73.7821 78.5733 73.0888 79.68 72.2088 80.8C71.3554 81.8933 70.3688 83 69.2488 84.12C68.1288 85.2133 66.9554 86.2933 65.7288 87.36C66.4488 87.28 67.2221 87.2133 68.0488 87.16C68.9021 87.08 69.6621 87.04 70.3288 87.04H76.3688V92H57.2888ZM92.9531 92.48C91.4865 92.48 90.1531 92.2 88.9531 91.64C87.7531 91.0533 86.7265 90.2 85.8731 89.08C85.0198 87.96 84.3531 86.5733 83.8731 84.92C83.4198 83.2667 83.1931 81.36 83.1931 79.2C83.1931 77.04 83.4198 75.1467 83.8731 73.52C84.3531 71.8933 85.0198 70.5333 85.8731 69.44C86.7265 68.32 87.7531 67.4933 88.9531 66.96C90.1531 66.4 91.4865 66.12 92.9531 66.12C94.4198 66.12 95.7531 66.4 96.9531 66.96C98.1531 67.4933 99.1798 68.32 100.033 69.44C100.886 70.5333 101.54 71.8933 101.993 73.52C102.473 75.1467 102.713 77.04 102.713 79.2C102.713 81.36 102.473 83.2667 101.993 84.92C101.54 86.5733 100.886 87.96 100.033 89.08C99.1798 90.2 98.1531 91.0533 96.9531 91.64C95.7531 92.2 94.4198 92.48 92.9531 92.48ZM92.9531 87.92C93.5931 87.92 94.1798 87.7733 94.7131 87.48C95.2731 87.1867 95.7531 86.7067 96.1531 86.04C96.5531 85.3467 96.8731 84.4533 97.1131 83.36C97.3531 82.24 97.4731 80.8533 97.4731 79.2C97.4731 77.5467 97.3531 76.1733 97.1131 75.08C96.8731 73.9867 96.5531 73.12 96.1531 72.48C95.7531 71.8133 95.2731 71.3467 94.7131 71.08C94.1798 70.8133 93.5931 70.68 92.9531 70.68C92.3131 70.68 91.7131 70.8133 91.1531 71.08C90.6198 71.3467 90.1531 71.8133 89.7531 72.48C89.3531 73.12 89.0331 73.9867 88.7931 75.08C88.5531 76.1733 88.4331 77.5467 88.4331 79.2C88.4331 80.8533 88.5531 82.24 88.7931 83.36C89.0331 84.4533 89.3531 85.3467 89.7531 86.04C90.1531 86.7067 90.6198 87.1867 91.1531 87.48C91.7131 87.7733 92.3131 87.92 92.9531 87.92ZM92.9531 82.16C92.0998 82.16 91.3798 81.8933 90.7931 81.36C90.2331 80.8 89.9531 80.0533 89.9531 79.12C89.9531 78.1867 90.2331 77.4533 90.7931 76.92C91.3798 76.36 92.0998 76.08 92.9531 76.08C93.8065 76.08 94.5131 76.36 95.0731 76.92C95.6598 77.4533 95.9531 78.1867 95.9531 79.12C95.9531 80.0533 95.6598 80.8 95.0731 81.36C94.5131 81.8933 93.8065 82.16 92.9531 82.16ZM110.098 92V87.24H116.938V72.56H111.298V68.92C112.151 68.7867 112.911 68.6533 113.578 68.52C114.271 68.36 114.898 68.1867 115.458 68C116.018 67.8133 116.538 67.6133 117.018 67.4C117.524 67.16 118.018 66.8933 118.498 66.6H122.818V87.24H128.578V92H110.098ZM135.242 92V88.64C137.055 87.12 138.709 85.7067 140.202 84.4C141.695 83.0667 142.975 81.8267 144.042 80.68C145.109 79.5333 145.935 78.4533 146.522 77.44C147.109 76.4267 147.402 75.4667 147.402 74.56C147.402 73.3067 147.042 72.36 146.322 71.72C145.602 71.0533 144.575 70.72 143.242 70.72C142.229 70.72 141.295 70.9867 140.442 71.52C139.615 72.0267 138.842 72.6267 138.122 73.32L134.962 70.16C135.629 69.4933 136.282 68.9067 136.922 68.4C137.589 67.8933 138.282 67.48 139.002 67.16C139.749 66.8133 140.522 66.56 141.322 66.4C142.149 66.2133 143.055 66.12 144.042 66.12C145.375 66.12 146.589 66.32 147.682 66.72C148.775 67.0933 149.709 67.64 150.482 68.36C151.282 69.0533 151.895 69.8933 152.322 70.88C152.775 71.8667 153.002 72.9733 153.002 74.2C153.002 75.2667 152.749 76.36 152.242 77.48C151.735 78.5733 151.042 79.68 150.162 80.8C149.309 81.8933 148.322 83 147.202 84.12C146.082 85.2133 144.909 86.2933 143.682 87.36C144.402 87.28 145.175 87.2133 146.002 87.16C146.855 87.08 147.615 87.04 148.282 87.04H154.322V92H135.242Z" fill="url(#paint0_linear)"/>
<defs>
<linearGradient id="paint0_linear" x1="80" y1="44" x2="80" y2="112" gradientUnits="userSpaceOnUse">
<stop stop-color="#2200FF"/>
<stop offset="1" stop-color="#9E00FF"/>
</linearGradient>
</defs>
</svg>
