<svg xmlns="http://www.w3.org/2000/svg" version="1.1" xmlns:xlink="http://www.w3.org/1999/xlink" xmlns:svgjs="http://svgjs.com/svgjs" viewBox="0 0 160 160" width="160" height="160"><g transform="matrix(1.6,0,0,1.6,0,0)"><path d="M6.187 50.023 A40.000 40.000 0 1 0 86.187 50.023 A40.000 40.000 0 1 0 6.187 50.023 Z" fill="#c7f0ff" transform="translate(-18.729 70.551) rotate(-64.831)"></path><path d="M73.976,45.215H69.162V43.006a1,1,0,0,1,1-1h2.814a1,1,0,0,1,1,1Z" fill="#ffe500" stroke="#45413c" stroke-linecap="round" stroke-linejoin="round"></path><path d="M59.535 56.446 A12.034 12.034 0 1 0 83.603 56.446 A12.034 12.034 0 1 0 59.535 56.446 Z" fill="#00b8f0" transform="translate(4.193 117.837) rotate(-80.602)"></path><path d="M71.569,47.622a12.829,12.829,0,0,1,12.009,8.336,12.018,12.018,0,0,0-24.018,0A12.828,12.828,0,0,1,71.569,47.622Z" fill="#4acfff"></path><path d="M80.52,48.424a11.993,11.993,0,0,0-17.9,0Z" fill="#ffe500"></path><path d="M71.569,47.622a12.775,12.775,0,0,1,4.432.8H80.52a11.993,11.993,0,0,0-17.9,0h4.519A12.775,12.775,0,0,1,71.569,47.622Z" fill="#fff48c"></path><path d="M71.569,65.271a12.829,12.829,0,0,0,12.009-8.336,12.018,12.018,0,0,1-24.018,0A12.828,12.828,0,0,0,71.569,65.271Z" fill="#009fd9"></path><path d="M62.618,64.469a11.993,11.993,0,0,0,17.9,0Z" fill="#ffe500"></path><path d="M71.569,65.271a12.775,12.775,0,0,0,4.432-.8H80.52a11.993,11.993,0,0,1-17.9,0h4.519A12.775,12.775,0,0,0,71.569,65.271Z" fill="#ffe500"></path><path d="M71.569 42.006L71.569 18.485" fill="none" stroke="#45413c" stroke-linecap="round" stroke-linejoin="round"></path><path d="M62.601 48.424L80.537 48.424" fill="none" stroke="#45413c" stroke-linecap="round" stroke-linejoin="round"></path><path d="M62.601 64.469L80.537 64.469" fill="none" stroke="#45413c" stroke-linecap="round" stroke-linejoin="round"></path><path d="M59.535 56.446 A12.034 12.034 0 1 0 83.603 56.446 A12.034 12.034 0 1 0 59.535 56.446 Z" fill="none" stroke="#45413c" stroke-linecap="round" stroke-linejoin="round" transform="translate(4.193 117.837) rotate(-80.602)"></path><path d="M70.11 56.362L73.027 56.362" fill="none" stroke="#fff48c" stroke-linecap="round" stroke-linejoin="round"></path><path d="M71.569 54.904L71.569 57.821" fill="none" stroke="#fff48c" stroke-linecap="round" stroke-linejoin="round"></path><path d="M76.309 56.362L79.227 56.362" fill="none" stroke="#fff48c" stroke-linecap="round" stroke-linejoin="round"></path><path d="M77.768 54.904L77.768 57.821" fill="none" stroke="#fff48c" stroke-linecap="round" stroke-linejoin="round"></path><path d="M63.911 56.362L66.828 56.362" fill="none" stroke="#fff48c" stroke-linecap="round" stroke-linejoin="round"></path><path d="M65.37 54.904L65.37 57.821" fill="none" stroke="#fff48c" stroke-linecap="round" stroke-linejoin="round"></path><path d="M22.2,45.215H17.382V43.006a1,1,0,0,1,1-1H21.2a1,1,0,0,1,1,1Z" fill="#ffe500" stroke="#45413c" stroke-linecap="round" stroke-linejoin="round"></path><path d="M7.754 56.446 A12.034 12.034 0 1 0 31.822 56.446 A12.034 12.034 0 1 0 7.754 56.446 Z" fill="#6dd627" transform="matrix(0.16, -0.987, 0.987, 0.16, -39.095, 66.962)"></path><path d="M19.788,47.622A12.828,12.828,0,0,1,31.8,55.958a12.018,12.018,0,0,0-24.017,0A12.827,12.827,0,0,1,19.788,47.622Z" fill="#9ceb60"></path><path d="M28.74,48.424a11.994,11.994,0,0,0-17.9,0Z" fill="#ffe500"></path><path d="M19.788,47.622a12.785,12.785,0,0,1,4.433.8H28.74a11.994,11.994,0,0,0-17.9,0h4.519A12.775,12.775,0,0,1,19.788,47.622Z" fill="#fff48c"></path><path d="M19.788,65.271A12.828,12.828,0,0,0,31.8,56.935a12.018,12.018,0,0,1-24.017,0A12.827,12.827,0,0,0,19.788,65.271Z" fill="#46b000"></path><path d="M10.837,64.469a11.994,11.994,0,0,0,17.9,0Z" fill="#ffe500"></path><path d="M19.788,65.271a12.785,12.785,0,0,0,4.433-.8H28.74a11.994,11.994,0,0,1-17.9,0h4.519A12.775,12.775,0,0,0,19.788,65.271Z" fill="#ffe500"></path><path d="M19.788 42.006L19.788 17.878" fill="none" stroke="#45413c" stroke-linecap="round" stroke-linejoin="round"></path><path d="M10.82 48.424L28.757 48.424" fill="none" stroke="#45413c" stroke-linecap="round" stroke-linejoin="round"></path><path d="M10.82 64.469L28.757 64.469" fill="none" stroke="#45413c" stroke-linecap="round" stroke-linejoin="round"></path><path d="M7.754 56.446 A12.034 12.034 0 1 0 31.822 56.446 A12.034 12.034 0 1 0 7.754 56.446 Z" fill="none" stroke="#45413c" stroke-linecap="round" stroke-linejoin="round" transform="matrix(0.16, -0.987, 0.987, 0.16, -39.095, 66.962)"></path><path d="M18.33 56.362L21.247 56.362" fill="none" stroke="#fff48c" stroke-linecap="round" stroke-linejoin="round"></path><path d="M19.788 54.904L19.788 57.821" fill="none" stroke="#fff48c" stroke-linecap="round" stroke-linejoin="round"></path><path d="M24.529 56.362L27.446 56.362" fill="none" stroke="#fff48c" stroke-linecap="round" stroke-linejoin="round"></path><path d="M25.987 54.904L25.987 57.821" fill="none" stroke="#fff48c" stroke-linecap="round" stroke-linejoin="round"></path><path d="M12.131 56.362L15.048 56.362" fill="none" stroke="#fff48c" stroke-linecap="round" stroke-linejoin="round"></path><path d="M13.589 54.904L13.589 57.821" fill="none" stroke="#fff48c" stroke-linecap="round" stroke-linejoin="round"></path><path d="M50.054,35.381H41.3V31.546a2,2,0,0,1,2-2h4.751a2,2,0,0,1,2,2Z" fill="#ffe500" stroke="#45413c" stroke-linecap="round" stroke-linejoin="round"></path><path d="M23.800 55.801 A21.879 21.879 0 1 0 67.558 55.801 A21.879 21.879 0 1 0 23.800 55.801 Z" fill="#ff6242"></path><path d="M45.679,39.757A23.325,23.325,0,0,1,67.513,54.913a21.851,21.851,0,0,0-43.669,0A23.325,23.325,0,0,1,45.679,39.757Z" fill="#ffa694"></path><path d="M61.954,41.215a21.806,21.806,0,0,0-32.55,0Z" fill="#ffe500"></path><path d="M45.679,39.757a23.237,23.237,0,0,1,8.058,1.458h8.217a21.806,21.806,0,0,0-32.55,0H37.62A23.238,23.238,0,0,1,45.679,39.757Z" fill="#fff48c"></path><path d="M45.679,71.846A23.324,23.324,0,0,0,67.513,56.689a21.851,21.851,0,0,1-43.669,0A23.324,23.324,0,0,0,45.679,71.846Z" fill="#e04122"></path><path d="M29.4,70.387a21.806,21.806,0,0,0,32.55,0Z" fill="#ffe500"></path><path d="M45.679,71.846a23.237,23.237,0,0,0,8.058-1.459h8.217a21.806,21.806,0,0,1-32.55,0H37.62A23.239,23.239,0,0,0,45.679,71.846Z" fill="#ffe500"></path><path d="M45.679 29.546L45.679 9.977" fill="none" stroke="#45413c" stroke-linecap="round" stroke-linejoin="round"></path><path d="M29.373 41.215L61.985 41.215" fill="none" stroke="#45413c" stroke-linecap="round" stroke-linejoin="round"></path><path d="M29.373 70.387L61.985 70.387" fill="none" stroke="#45413c" stroke-linecap="round" stroke-linejoin="round"></path><path d="M45.679 52.884L45.679 54.343" fill="none" stroke="#fff48c" stroke-linecap="round" stroke-linejoin="round"></path><path d="M45.679 57.26L45.679 58.719" fill="none" stroke="#fff48c" stroke-linecap="round" stroke-linejoin="round"></path><path d="M44.22 55.801L42.761 55.801" fill="none" stroke="#fff48c" stroke-linecap="round" stroke-linejoin="round"></path><path d="M47.137 55.801L48.596 55.801" fill="none" stroke="#fff48c" stroke-linecap="round" stroke-linejoin="round"></path><path d="M60.265 52.884L60.265 54.343" fill="none" stroke="#fff48c" stroke-linecap="round" stroke-linejoin="round"></path><path d="M60.265 57.26L60.265 58.719" fill="none" stroke="#fff48c" stroke-linecap="round" stroke-linejoin="round"></path><path d="M58.806 55.801L57.347 55.801" fill="none" stroke="#fff48c" stroke-linecap="round" stroke-linejoin="round"></path><path d="M61.723 55.801L63.182 55.801" fill="none" stroke="#fff48c" stroke-linecap="round" stroke-linejoin="round"></path><path d="M50.054 48.508L52.972 48.508" fill="none" stroke="#fff48c" stroke-linecap="round" stroke-linejoin="round"></path><path d="M51.513 47.05L51.513 49.967" fill="none" stroke="#fff48c" stroke-linecap="round" stroke-linejoin="round"></path><path d="M52.972 63.094L55.889 63.094" fill="none" stroke="#fff48c" stroke-linecap="round" stroke-linejoin="round"></path><path d="M54.43 61.636L54.43 64.553" fill="none" stroke="#fff48c" stroke-linecap="round" stroke-linejoin="round"></path><path d="M31.092 52.884L31.092 54.343" fill="none" stroke="#fff48c" stroke-linecap="round" stroke-linejoin="round"></path><path d="M31.092 57.26L31.092 58.719" fill="none" stroke="#fff48c" stroke-linecap="round" stroke-linejoin="round"></path><path d="M32.551 55.801L34.01 55.801" fill="none" stroke="#fff48c" stroke-linecap="round" stroke-linejoin="round"></path><path d="M29.634 55.801L28.175 55.801" fill="none" stroke="#fff48c" stroke-linecap="round" stroke-linejoin="round"></path><path d="M41.303 48.508L38.385 48.508" fill="none" stroke="#fff48c" stroke-linecap="round" stroke-linejoin="round"></path><path d="M39.844 47.05L39.844 49.967" fill="none" stroke="#fff48c" stroke-linecap="round" stroke-linejoin="round"></path><path d="M38.385 63.094L35.468 63.094" fill="none" stroke="#fff48c" stroke-linecap="round" stroke-linejoin="round"></path><path d="M36.927 61.636L36.927 64.553" fill="none" stroke="#fff48c" stroke-linecap="round" stroke-linejoin="round"></path><path d="M23.800 55.801 A21.879 21.879 0 1 0 67.558 55.801 A21.879 21.879 0 1 0 23.800 55.801 Z" fill="none" stroke="#45413c" stroke-linecap="round" stroke-linejoin="round"></path><path d="M23.733,82.938l3.434-1.144a.323.323,0,0,0,0-.612l-2.821-.941a1.288,1.288,0,0,1-.816-.815L22.588,76.6a.322.322,0,0,0-.611,0l-.941,2.822a1.287,1.287,0,0,1-.815.815l-2.824.941a.323.323,0,0,0,0,.612l2.823.941a1.29,1.29,0,0,1,.816.815l.941,2.824a.322.322,0,0,0,.611,0Z" fill="#fff48c" stroke="#b58b00" stroke-linecap="round" stroke-linejoin="round"></path><path d="M86.955,35.366a2.917,2.917,0,0,1,2.187-2.186l4.388-1.013a.365.365,0,0,0,0-.711l-4.388-1.012a2.917,2.917,0,0,1-2.187-2.186l-1.012-4.386a.365.365,0,0,0-.711,0L84.22,28.258a2.916,2.916,0,0,1-2.187,2.186l-4.386,1.012a.365.365,0,0,0,0,.711l4.386,1.013a2.916,2.916,0,0,1,2.187,2.186l1.012,4.388a.365.365,0,0,0,.711,0Z" fill="#fff48c" stroke="#b58b00" stroke-linecap="round" stroke-linejoin="round"></path></g></svg>