<svg viewBox="0 0 48 48" height="48" width="48" xmlns="http://www.w3.org/2000/svg"><g transform="matrix(0.24,0,0,0.24,0,0)"><path d="M28.355,136.826a78.127,78.127,0,1,1,143.217,0Z" fill="#b8ecff"></path><path d="M28.356,136.786a78.132,78.132,0,0,0,143.215,0Z" fill="#ccf7ad"></path><path d="M23.789 136.786L176.137 136.786" fill="none" stroke="#45413c" stroke-linecap="round" stroke-linejoin="round"></path><path d="M15 136.786L19.883 136.786" fill="none" stroke="#45413c" stroke-linecap="round" stroke-linejoin="round"></path><path d="M180.043 136.786L184.926 136.786" fill="none" stroke="#45413c" stroke-linecap="round" stroke-linejoin="round"></path><path d="M43.1,41.448a1.2,1.2,0,0,0-1.2-1.17H34.664a1.2,1.2,0,0,0-1.2,1.17L31.1,148.008H45.463Z" fill="#ff6242"></path><path d="M43.175,45.039a1.269,1.269,0,0,0-1.276-1.17H34.664a1.269,1.269,0,0,0-1.276,1.17l.08-3.591a1.2,1.2,0,0,1,1.2-1.17H41.9a1.2,1.2,0,0,1,1.2,1.17Z" fill="#ff866e"></path><path d="M33.201 53.445L43.362 53.445 43.229 47.46 33.334 47.46 33.201 53.445z" fill="#ffffff" stroke="#45413c" stroke-linecap="round" stroke-linejoin="round"></path><path d="M32.829 70.203L43.734 70.203 43.548 61.824 33.015 61.824 32.829 70.203z" fill="#ffffff" stroke="#45413c" stroke-linecap="round" stroke-linejoin="round"></path><path d="M32.403 89.355L44.16 89.355 43.921 78.582 32.642 78.582 32.403 89.355z" fill="#ffffff" stroke="#45413c" stroke-linecap="round" stroke-linejoin="round"></path><path d="M31.951 109.704L44.612 109.704 44.373 98.931 32.19 98.931 31.951 109.704z" fill="#ffffff" stroke="#45413c" stroke-linecap="round" stroke-linejoin="round"></path><path d="M43.1,41.448a1.2,1.2,0,0,0-1.2-1.17H34.664a1.2,1.2,0,0,0-1.2,1.17L31.1,148.008H45.463Z" fill="none" stroke="#45413c" stroke-linecap="round" stroke-linejoin="round"></path><path d="M135.790 160.376 A24.605 4.389 0 1 0 185.000 160.376 A24.605 4.389 0 1 0 135.790 160.376 Z" fill="#45413c" opacity=".15"></path><path d="M174.14,145.614h-3.591V126.462a4.194,4.194,0,0,0-4.189-4.19h-3.591v-3.591h3.591a7.79,7.79,0,0,1,7.78,7.781Z" fill="#adc4d9" stroke="#45413c" stroke-linecap="round" stroke-linejoin="round"></path><path d="M132.488,90.875a1.311,1.311,0,0,1-.841-1.224V54.642a1.2,1.2,0,0,0-1.2-1.2H101.722a1.2,1.2,0,0,0-1.2,1.2v93.366h62.244V103.344a1.2,1.2,0,0,0-.767-1.117Z" fill="#bdbec0"></path><path d="M101.722,58.233H130.45a1.2,1.2,0,0,1,1.2,1.2V54.642a1.2,1.2,0,0,0-1.2-1.2H101.722a1.2,1.2,0,0,0-1.2,1.2V59.43A1.2,1.2,0,0,1,101.722,58.233Z" fill="#87898c"></path><path d="M105.313 60.627 L126.859 60.627 L126.859 84.567 L105.313 84.567 Z" fill="#4acfff"></path><path d="M125.191,60.627H106.446a1.133,1.133,0,0,0-1.133,1.133V80.505Z" fill="#80ddff"></path><path d="M105.313 60.627 L126.859 60.627 L126.859 84.567 L105.313 84.567 Z" fill="none" stroke="#45413c" stroke-linecap="round" stroke-linejoin="round"></path><path d="M112.495 60.627L112.495 84.567" fill="none" stroke="#45413c" stroke-linecap="round" stroke-linejoin="round"></path><path d="M119.677 60.627L119.677 84.567" fill="none" stroke="#45413c" stroke-linecap="round" stroke-linejoin="round"></path><path d="M126.859 69.006L105.313 69.006" fill="none" stroke="#45413c" stroke-linecap="round" stroke-linejoin="round"></path><path d="M126.859 76.188L105.313 76.188" fill="none" stroke="#45413c" stroke-linecap="round" stroke-linejoin="round"></path><path d="M105.313 106.113 L126.859 106.113 L126.859 130.053 L105.313 130.053 Z" fill="#4acfff"></path><path d="M125.191,106.113H106.51a1.2,1.2,0,0,0-1.2,1.2v18.681Z" fill="#80ddff"></path><path d="M105.313 106.113 L126.859 106.113 L126.859 130.053 L105.313 130.053 Z" fill="none" stroke="#45413c" stroke-linecap="round" stroke-linejoin="round"></path><path d="M112.495 106.113L112.495 130.053" fill="none" stroke="#45413c" stroke-linecap="round" stroke-linejoin="round"></path><path d="M119.677 106.113L119.677 130.053" fill="none" stroke="#45413c" stroke-linecap="round" stroke-linejoin="round"></path><path d="M126.859 114.492L105.313 114.492" fill="none" stroke="#45413c" stroke-linecap="round" stroke-linejoin="round"></path><path d="M126.859 121.674L105.313 121.674" fill="none" stroke="#45413c" stroke-linecap="round" stroke-linejoin="round"></path><path d="M132.844 106.113 L154.390 106.113 L154.390 130.053 L132.844 130.053 Z" fill="#4acfff"></path><path d="M152.722,106.113H134.041a1.2,1.2,0,0,0-1.2,1.2v18.681Z" fill="#80ddff"></path><path d="M132.844 106.113 L154.390 106.113 L154.390 130.053 L132.844 130.053 Z" fill="none" stroke="#45413c" stroke-linecap="round" stroke-linejoin="round"></path><path d="M140.026 106.113L140.026 130.053" fill="none" stroke="#45413c" stroke-linecap="round" stroke-linejoin="round"></path><path d="M147.208 106.113L147.208 130.053" fill="none" stroke="#45413c" stroke-linecap="round" stroke-linejoin="round"></path><path d="M154.39 114.492L132.844 114.492" fill="none" stroke="#45413c" stroke-linecap="round" stroke-linejoin="round"></path><path d="M154.39 121.674L132.844 121.674" fill="none" stroke="#45413c" stroke-linecap="round" stroke-linejoin="round"></path><path d="M132.488,90.875a1.311,1.311,0,0,1-.841-1.224V54.642a1.2,1.2,0,0,0-1.2-1.2H101.722a1.2,1.2,0,0,0-1.2,1.2v93.366h62.244V103.344a1.2,1.2,0,0,0-.767-1.117Z" fill="none" stroke="#45413c" stroke-linecap="round" stroke-linejoin="round"></path><path d="M41.872 83.37H116.086V146.811H41.872z" fill="#e0e0e0"></path><path d="M41.872 84.567H116.086V88.15799999999999H41.872z" fill="#bdbec0"></path><path d="M41.872 84.567H116.086V148.00799999999998H41.872z" fill="none" stroke="#45413c" stroke-linecap="round" stroke-linejoin="round"></path><path d="M30.438,100.994a1.2,1.2,0,0,0-1.732,1.071v2.851L57.93,119.528a1.312,1.312,0,0,0,1.9-1.173v-2.666Z" fill="#ff6242" stroke="#45413c" stroke-linecap="round" stroke-linejoin="round"></path><path d="M61.56,100.994a1.2,1.2,0,0,0-1.733,1.071v2.851l29.224,14.612a1.312,1.312,0,0,0,1.9-1.173v-2.666Z" fill="#ff6242" stroke="#45413c" stroke-linecap="round" stroke-linejoin="round"></path><path d="M90.949,104.916v13.439a1.312,1.312,0,0,1-1.9,1.173L59.827,104.916v13.439a1.312,1.312,0,0,1-1.9,1.173L28.706,104.916v43.092h93.365V120.477Z" fill="#f0f0f0" stroke="#45413c" stroke-linecap="round" stroke-linejoin="round"></path><path d="M92.682,100.994a1.2,1.2,0,0,0-1.733,1.071v2.851l31.122,15.561v-4.049a1.2,1.2,0,0,0-.662-1.07Z" fill="#ff6242" stroke="#45413c" stroke-linecap="round" stroke-linejoin="round"></path><path d="M34.691 125.265H116.087V148.008H34.691z" fill="#4acfff"></path><path d="M41.872 125.265L34.691 125.265 34.691 140.826 41.872 125.265z" fill="#80ddff"></path><path d="M50.251 125.265L41.872 125.265 41.872 140.826 50.251 125.265z" fill="#80ddff"></path><path d="M58.63 125.265L50.251 125.265 50.251 140.826 58.63 125.265z" fill="#80ddff"></path><path d="M67.009 125.265L58.63 125.265 58.63 140.826 67.009 125.265z" fill="#80ddff"></path><path d="M75.388 125.265L67.009 125.265 67.009 140.826 75.388 125.265z" fill="#80ddff"></path><path d="M83.767 125.265L75.388 125.265 75.388 140.826 83.767 125.265z" fill="#80ddff"></path><path d="M92.146 125.265L83.767 125.265 83.767 140.826 92.146 125.265z" fill="#80ddff"></path><path d="M100.525 125.265L92.146 125.265 92.146 140.826 100.525 125.265z" fill="#80ddff"></path><path d="M108.904 125.265L100.525 125.265 100.525 140.826 108.904 125.265z" fill="#80ddff"></path><path d="M116.086 125.265L108.904 125.265 108.904 140.826 116.086 125.265z" fill="#80ddff"></path><path d="M34.691 125.265H116.087V148.008H34.691z" fill="none" stroke="#45413c" stroke-linecap="round" stroke-linejoin="round"></path><path d="M50.251 125.265L50.251 148.008" fill="none" stroke="#45413c" stroke-linecap="round" stroke-linejoin="round"></path><path d="M58.63 125.265L58.63 148.008" fill="none" stroke="#45413c" stroke-linecap="round" stroke-linejoin="round"></path><path d="M41.872 125.265L41.872 148.008" fill="none" stroke="#45413c" stroke-linecap="round" stroke-linejoin="round"></path><path d="M83.767 125.265L83.767 148.008" fill="none" stroke="#45413c" stroke-linecap="round" stroke-linejoin="round"></path><path d="M92.146 125.265L92.146 148.008" fill="none" stroke="#45413c" stroke-linecap="round" stroke-linejoin="round"></path><path d="M67.009 125.265L67.009 148.008" fill="none" stroke="#45413c" stroke-linecap="round" stroke-linejoin="round"></path><path d="M75.388 125.265L75.388 148.008" fill="none" stroke="#45413c" stroke-linecap="round" stroke-linejoin="round"></path><path d="M100.525 125.265L100.525 148.008" fill="none" stroke="#45413c" stroke-linecap="round" stroke-linejoin="round"></path><path d="M108.904 125.265L108.904 148.008" fill="none" stroke="#45413c" stroke-linecap="round" stroke-linejoin="round"></path><path d="M39.478 80.976 L118.480 80.976 L118.480 84.567 L39.478 84.567 Z" fill="#ff6242" stroke="#45413c" stroke-linecap="round" stroke-linejoin="round"></path><path d="M99.328 51.051 L132.844 51.051 L132.844 54.642 L99.328 54.642 Z" fill="#ff6242" stroke="#45413c" stroke-linecap="round" stroke-linejoin="round"></path><path d="M46.660 89.355 L56.236 89.355 L56.236 102.522 L46.660 102.522 Z" fill="#4acfff"></path><path d="M56.236,90.782v-.23a1.2,1.2,0,0,0-1.2-1.2H47.793a1.133,1.133,0,0,0-1.133,1.133v9.87Z" fill="#80ddff"></path><path d="M46.660 89.355 L56.236 89.355 L56.236 102.522 L46.660 102.522 Z" fill="none" stroke="#45413c" stroke-linecap="round" stroke-linejoin="round"></path><path d="M51.448 89.355L51.448 102.522" fill="none" stroke="#45413c" stroke-linecap="round" stroke-linejoin="round"></path><path d="M46.66 94.143L56.236 94.143" fill="none" stroke="#45413c" stroke-linecap="round" stroke-linejoin="round"></path><path d="M46.66 97.734L56.236 97.734" fill="none" stroke="#45413c" stroke-linecap="round" stroke-linejoin="round"></path><path d="M72.994 89.355 L82.570 89.355 L82.570 102.522 L72.994 102.522 Z" fill="#4acfff"></path><path d="M82.57,90.782v-.23a1.2,1.2,0,0,0-1.2-1.2H74.127a1.133,1.133,0,0,0-1.133,1.133v9.87Z" fill="#80ddff"></path><path d="M72.994 89.355 L82.570 89.355 L82.570 102.522 L72.994 102.522 Z" fill="none" stroke="#45413c" stroke-linecap="round" stroke-linejoin="round"></path><path d="M77.782 89.355L77.782 102.522" fill="none" stroke="#45413c" stroke-linecap="round" stroke-linejoin="round"></path><path d="M72.994 94.143L82.57 94.143" fill="none" stroke="#45413c" stroke-linecap="round" stroke-linejoin="round"></path><path d="M72.994 97.734L82.57 97.734" fill="none" stroke="#45413c" stroke-linecap="round" stroke-linejoin="round"></path><path d="M100.525 89.355 L110.101 89.355 L110.101 102.522 L100.525 102.522 Z" fill="#4acfff"></path><path d="M110.1,90.782v-.23a1.2,1.2,0,0,0-1.2-1.2h-7.246a1.133,1.133,0,0,0-1.133,1.133v9.87Z" fill="#80ddff"></path><path d="M100.525 89.355 L110.101 89.355 L110.101 102.522 L100.525 102.522 Z" fill="none" stroke="#45413c" stroke-linecap="round" stroke-linejoin="round"></path><path d="M105.313 89.355L105.313 102.522" fill="none" stroke="#45413c" stroke-linecap="round" stroke-linejoin="round"></path><path d="M100.525 94.143L110.101 94.143" fill="none" stroke="#45413c" stroke-linecap="round" stroke-linejoin="round"></path><path d="M100.525 97.734L110.101 97.734" fill="none" stroke="#45413c" stroke-linecap="round" stroke-linejoin="round"></path><path d="M140.026,154.591h-5.985a5.392,5.392,0,0,1-5.386-5.386v-7.182a1.8,1.8,0,0,0-1.8-1.8h-4.788v-3.591h4.788a5.393,5.393,0,0,1,5.387,5.387v7.182A1.8,1.8,0,0,0,134.041,151h5.985a1.8,1.8,0,0,0,1.8-1.795h3.591A5.393,5.393,0,0,1,140.026,154.591Z" fill="#adc4d9" stroke="#45413c" stroke-linecap="round" stroke-linejoin="round"></path><path d="M34.691 130.053L116.086 130.053" fill="none" stroke="#45413c" stroke-linecap="round" stroke-linejoin="round"></path><path d="M126.859 143.220 L134.041 143.220 L134.041 145.614 L126.859 145.614 Z" fill="#daedf7" stroke="#45413c" stroke-linecap="round" stroke-linejoin="round"></path><path d="M135.238 149.205 L137.632 149.205 L137.632 156.387 L135.238 156.387 Z" fill="#daedf7" stroke="#45413c" stroke-linecap="round" stroke-linejoin="round"></path><path d="M168.754 131.250 L175.936 131.250 L175.936 133.644 L168.754 133.644 Z" fill="#daedf7" stroke="#45413c" stroke-linecap="round" stroke-linejoin="round"></path><path d="M168.754 124.068 L175.936 124.068 L175.936 126.462 L168.754 126.462 Z" fill="#daedf7" stroke="#45413c" stroke-linecap="round" stroke-linejoin="round"></path><path d="M63.418,16.338a8.917,8.917,0,0,0-6.583,2.749,4.788,4.788,0,1,0,0,8.866A8.917,8.917,0,0,0,63.418,30.7c4.628,0,8.379-3.215,8.379-7.182S68.046,16.338,63.418,16.338Z" fill="#f0f0f0" stroke="#45413c" stroke-linecap="round" stroke-linejoin="round"></path><path d="M41.873 31.301 A2.992 2.992 0 1 0 47.857 31.301 A2.992 2.992 0 1 0 41.873 31.301 Z" fill="#f0f0f0" stroke="#45413c" stroke-linecap="round" stroke-linejoin="round"></path><path d="M140.026,144.417a7.182,7.182,0,0,1,7.182-7.182h23.94a7.182,7.182,0,1,1,0,14.364h-23.94A7.183,7.183,0,0,1,140.026,144.417Z" fill="#c0dceb"></path><path d="M178.226,145.639a7.177,7.177,0,0,0-7.078-6.01h-23.94a7.177,7.177,0,0,0-7.078,6.01,7.249,7.249,0,0,1-.1-1.222h0a7.182,7.182,0,0,1,7.182-7.182h23.94a7.182,7.182,0,0,1,7.182,7.182h0A7.249,7.249,0,0,1,178.226,145.639Z" fill="#daedf7"></path><path d="M178.33,144.417a7.183,7.183,0,0,1-7.182,7.182h-23.94a7.182,7.182,0,0,1,0-14.364h23.94A7.182,7.182,0,0,1,178.33,144.417Z" fill="none" stroke="#45413c" stroke-linecap="round" stroke-linejoin="round"></path><path d="M149.602 151.599H151.996V157.584H149.602z" fill="#87898c" stroke="#45413c" stroke-linecap="round" stroke-linejoin="round"></path><path d="M153.831,159.978h-6.064a.559.559,0,0,1-.559-.559v-.326a1.509,1.509,0,0,1,1.509-1.509h4.164a1.509,1.509,0,0,1,1.509,1.509v.326A.559.559,0,0,1,153.831,159.978Z" fill="#87898c" stroke="#45413c" stroke-linecap="round" stroke-linejoin="round"></path><path d="M166.36 151.599H168.75400000000002V157.584H166.36z" fill="#87898c" stroke="#45413c" stroke-linecap="round" stroke-linejoin="round"></path><path d="M170.589,159.978h-6.064a.559.559,0,0,1-.559-.559v-.326a1.509,1.509,0,0,1,1.509-1.509h4.164a1.509,1.509,0,0,1,1.509,1.509v.326A.559.559,0,0,1,170.589,159.978Z" fill="#87898c" stroke="#45413c" stroke-linecap="round" stroke-linejoin="round"></path><path d="M148.405 136.038 L153.193 136.038 L153.193 152.796 L148.405 152.796 Z" fill="#adc4d9"></path><path d="M165.163 136.038 L169.951 136.038 L169.951 152.796 L165.163 152.796 Z" fill="#adc4d9"></path><path d="M153.193,137.17a1.132,1.132,0,0,0-1.133-1.132h-2.522a1.132,1.132,0,0,0-1.133,1.132v3.656a1.2,1.2,0,0,1,1.2-1.2H152a1.2,1.2,0,0,1,1.2,1.2Z" fill="#c0dceb"></path><path d="M169.951,137.17a1.132,1.132,0,0,0-1.133-1.132H166.3a1.132,1.132,0,0,0-1.133,1.132v3.656a1.2,1.2,0,0,1,1.2-1.2h2.394a1.2,1.2,0,0,1,1.2,1.2Z" fill="#c0dceb"></path><path d="M148.405 136.038 L153.193 136.038 L153.193 152.796 L148.405 152.796 Z" fill="none" stroke="#45413c" stroke-linecap="round" stroke-linejoin="round"></path><path d="M165.163 136.038 L169.951 136.038 L169.951 152.796 L165.163 152.796 Z" fill="none" stroke="#45413c" stroke-linecap="round" stroke-linejoin="round"></path><path d="M51.448 69.006H63.418V80.976H51.448z" fill="#adc4d9"></path><path d="M51.448 69.006H63.418V72.597H51.448z" fill="#8ca4b8"></path><path d="M51.448 69.006H63.418V80.976H51.448z" fill="none" stroke="#45413c" stroke-linecap="round" stroke-linejoin="round"></path><path d="M50.251 65.415 L64.615 65.415 L64.615 69.006 L50.251 69.006 Z" fill="#adc4d9"></path><path d="M64.566,68.152a1.184,1.184,0,0,0-1.148-.942H51.448a1.184,1.184,0,0,0-1.147.942,1.216,1.216,0,0,1-.05-.343V66.548a1.133,1.133,0,0,1,1.133-1.133h12.1a1.132,1.132,0,0,1,1.132,1.133v1.261A1.215,1.215,0,0,1,64.566,68.152Z" fill="#c0dceb"></path><path d="M50.251 65.415 L64.615 65.415 L64.615 69.006 L50.251 69.006 Z" fill="none" stroke="#45413c" stroke-linecap="round" stroke-linejoin="round"></path><path d="M72.994 69.006H84.964V80.976H72.994z" fill="#adc4d9"></path><path d="M72.994 69.006H84.964V72.597H72.994z" fill="#8ca4b8"></path><path d="M72.994 69.006H84.964V80.976H72.994z" fill="none" stroke="#45413c" stroke-linecap="round" stroke-linejoin="round"></path><path d="M71.797 65.415 L86.161 65.415 L86.161 69.006 L71.797 69.006 Z" fill="#adc4d9"></path><path d="M86.112,68.152a1.184,1.184,0,0,0-1.148-.942H72.994a1.183,1.183,0,0,0-1.147.942,1.216,1.216,0,0,1-.05-.343V66.548a1.133,1.133,0,0,1,1.133-1.133h12.1a1.133,1.133,0,0,1,1.133,1.133v1.261A1.215,1.215,0,0,1,86.112,68.152Z" fill="#c0dceb"></path><path d="M71.797 65.415 L86.161 65.415 L86.161 69.006 L71.797 69.006 Z" fill="none" stroke="#45413c" stroke-linecap="round" stroke-linejoin="round"></path><path d="M94.54 69.006H106.51V80.976H94.54z" fill="#adc4d9"></path><path d="M94.54 69.006H106.51V72.597H94.54z" fill="#8ca4b8"></path><path d="M94.54 69.006H106.51V80.976H94.54z" fill="none" stroke="#45413c" stroke-linecap="round" stroke-linejoin="round"></path><path d="M93.343 65.415 L107.707 65.415 L107.707 69.006 L93.343 69.006 Z" fill="#adc4d9"></path><path d="M107.657,68.152a1.183,1.183,0,0,0-1.147-.942H94.54a1.183,1.183,0,0,0-1.147.942,1.216,1.216,0,0,1-.05-.343V66.548a1.133,1.133,0,0,1,1.133-1.133h12.1a1.133,1.133,0,0,1,1.133,1.133v1.261A1.181,1.181,0,0,1,107.657,68.152Z" fill="#c0dceb"></path><path d="M93.343 65.415 L107.707 65.415 L107.707 69.006 L93.343 69.006 Z" fill="none" stroke="#45413c" stroke-linecap="round" stroke-linejoin="round"></path></g></svg>