<svg width="160" height="160" viewBox="0 0 160 160" fill="none" xmlns="http://www.w3.org/2000/svg">
<path d="M13.4697 88.6289C13.4697 105.603 20.2126 121.881 32.2149 133.884C44.2172 145.886 60.4959 152.629 77.4697 152.629C94.4436 152.629 110.722 145.886 122.725 133.884C134.727 121.881 141.47 105.603 141.47 88.6289C141.47 71.6551 134.727 55.3764 122.725 43.3741C110.722 31.3717 94.4436 24.6289 77.4697 24.6289C60.4959 24.6289 44.2172 31.3717 32.2149 43.3741C20.2126 55.3764 13.4697 71.6551 13.4697 88.6289V88.6289Z" fill="#C7F0FF" stroke="#C7F0FF" stroke-width="1.5"/>
<path d="M92.4454 16.2464C90.2231 14.2072 87.3222 13.0667 84.3062 13.0464C83.2684 13.0456 82.236 13.1971 81.2422 13.496C79.2793 14.1611 77.5238 15.3266 76.1489 16.8774C74.774 18.4282 73.8273 20.3107 73.4022 22.3392L72.4038 26.4448L69.9622 22.9968C68.8184 21.2678 67.2436 19.8668 65.3932 18.9322C63.5427 17.9975 61.4806 17.5615 59.4102 17.6672C58.3761 17.7567 57.3606 17.9966 56.3958 18.3792C53.6004 19.5121 51.325 21.6422 50.0102 24.3568C49.076 26.338 48.6057 28.5061 48.6351 30.6964C48.6645 32.8866 49.1928 35.0413 50.1798 36.9968C53.135 43.256 68.3078 52.4 77.7254 54.3264H77.7398C85.783 49.064 96.5158 34.9664 96.9542 28.0608C97.1502 25.8783 96.846 23.6799 96.0647 21.6327C95.2834 19.5855 94.0456 17.7434 92.4454 16.2464V16.2464Z" fill="#FF87AF"/>
<path d="M96.9605 27.9284C96.2174 26.3664 95.1747 24.9655 93.8917 23.8052C91.6694 21.7661 88.7686 20.6256 85.7525 20.6052C84.7147 20.6043 83.6824 20.7558 82.6885 21.0548C80.7256 21.7198 78.97 22.8853 77.5951 24.4361C76.2202 25.9869 75.2735 27.8695 74.8485 29.898L73.8517 34.0036L71.4037 30.5604C70.2596 28.8298 68.6836 27.4279 66.8316 26.4931C64.9795 25.5584 62.9155 25.1233 60.8437 25.2308C59.8097 25.3204 58.7942 25.5602 57.8293 25.9428C55.0331 27.0743 52.7572 29.2048 51.4437 31.9204C50.6794 33.4707 50.2266 35.1559 50.1109 36.8804L50.1685 37.0036C49.1815 35.0482 48.6532 32.8935 48.6239 30.7032C48.5945 28.513 49.0647 26.3449 49.9989 24.3636C51.3137 21.649 53.5892 19.519 56.3845 18.386C57.3494 18.0034 58.3649 17.7636 59.3989 17.674C61.4693 17.5684 63.5315 18.0044 65.382 18.939C67.2324 19.8736 68.8072 21.2746 69.9509 23.0036L72.3925 26.4516L73.3909 22.346C73.8161 20.3176 74.7628 18.4351 76.1377 16.8843C77.5125 15.3334 79.2681 14.168 81.2309 13.5028C82.2248 13.2039 83.2571 13.0524 84.2949 13.0532C87.311 13.0736 90.2118 14.2141 92.4341 16.2532C94.034 17.7507 95.2713 19.5932 96.0521 21.6407C96.8328 23.6882 97.1364 25.8868 96.9397 28.0692" fill="#FFB0CA"/>
<path d="M57.2367 24.3862C56.3593 25.2957 55.7092 26.3996 55.3394 27.608C54.9696 28.8164 54.8905 30.0951 55.1087 31.3398C55.1892 32.2253 55.3845 33.0966 55.6895 33.9318C56.1931 35.2547 57.0464 36.416 58.1583 37.2918" stroke="white" stroke-width="1.5" stroke-linecap="round" stroke-linejoin="round"/>
<path d="M92.4454 16.2464C90.2231 14.2072 87.3222 13.0667 84.3062 13.0464C83.2684 13.0456 82.236 13.1971 81.2422 13.496C79.2793 14.1611 77.5238 15.3266 76.1489 16.8774C74.774 18.4282 73.8273 20.3107 73.4022 22.3392L72.4038 26.4448L69.9622 22.9968C68.8184 21.2678 67.2436 19.8668 65.3932 18.9322C63.5427 17.9975 61.4806 17.5615 59.4102 17.6672C58.3761 17.7567 57.3606 17.9966 56.3958 18.3792C53.6004 19.5121 51.325 21.6422 50.0102 24.3568C49.076 26.338 48.6057 28.5061 48.6351 30.6964C48.6645 32.8866 49.1928 35.0413 50.1798 36.9968C53.135 43.256 68.3078 52.4 77.7254 54.3264H77.7398C85.783 49.064 96.5158 34.9664 96.9542 28.0608C97.1502 25.8783 96.846 23.6799 96.0647 21.6327C95.2834 19.5855 94.0456 17.7434 92.4454 16.2464V16.2464Z" stroke="#45413C" stroke-width="1.5" stroke-linecap="round" stroke-linejoin="round"/>
<path opacity="0.15" d="M98.2914 148.573C98.2914 150.173 89.8578 151.471 79.4546 151.471C69.0514 151.471 59.6514 150.175 59.6514 148.573C59.6514 146.971 69.0514 145.674 79.4546 145.674C89.8578 145.674 98.2914 146.973 98.2914 148.573Z" fill="#45413C"/>
<path d="M41.4574 86.593C39.291 87.7322 38.8254 90.593 38.7838 93.041C38.7582 94.5706 39.0382 96.4618 40.4798 96.9722C41.8302 97.4522 43.219 96.3194 43.9998 95.1146C45.0977 93.3951 45.655 91.3859 45.5998 89.3466C45.4986 88.7158 45.5913 88.0692 45.8654 87.4922C46.1242 87.1826 46.4721 86.9603 46.8617 86.8555C47.2514 86.7507 47.6638 86.7686 48.043 86.9066C48.7934 87.1983 49.5083 87.574 50.1742 88.0266C51.1949 88.6406 52.3686 88.953 53.5596 88.9278C54.7505 88.9026 55.9099 88.5408 56.9038 87.8842C57.3725 87.5308 57.764 87.0854 58.0544 86.5753C58.3447 86.0652 58.5278 85.5011 58.5924 84.9177C58.657 84.3343 58.6017 83.7439 58.4299 83.1826C58.2581 82.6213 57.9734 82.1011 57.5934 81.6538C57.0708 81.1956 56.4495 80.8643 55.7779 80.6856C55.1063 80.5068 54.4025 80.4855 53.7214 80.6234C52.3604 80.9126 51.0846 81.5122 49.9934 82.3754C49.1758 82.95 48.4506 83.646 47.843 84.4394C47.4526 84.9674 47.1486 86.0394 46.547 86.3706C45.1662 87.113 43.1358 85.7082 41.4574 86.593Z" stroke="#45413C" stroke-width="1.5" stroke-linecap="round" stroke-linejoin="round"/>
<path d="M46.9078 86.2256C46.292 86.4878 45.7899 86.9609 45.4917 87.5601C45.1934 88.1592 45.1186 88.845 45.2806 89.4944C45.6473 90.7852 46.3115 91.9722 47.2198 92.96C48.1269 93.9497 48.7503 95.1657 49.0246 96.48C49.0722 98.0938 48.5172 99.6675 47.4678 100.894C46.424 102.106 45.5395 103.446 44.8358 104.882C44.1407 106.959 44.2725 109.224 45.2038 111.206C46.135 113.162 47.3137 114.991 48.711 116.646" stroke="#45413C" stroke-width="1.5" stroke-linecap="round" stroke-linejoin="round"/>
<path d="M46.9074 86.2258C46.7682 87.0002 47.8882 88.4178 48.4194 88.997C50.2633 91.1799 51.4192 93.8601 51.741 96.6994C52.0538 99.5202 52.1937 102.358 52.1602 105.195C52.2647 109.037 52.6622 112.864 53.349 116.645C53.7372 119.092 54.4083 121.485 55.349 123.776C58.4706 130.914 65.317 135.578 71.8018 139.896C73.197 140.826 75.1202 141.077 75.9218 142.552C74.6034 135.992 68.5426 131.565 65.3938 125.667C63.4737 121.771 62.4482 117.495 62.3922 113.152C62.0913 104.764 63.7186 96.4179 67.149 88.757C68.7586 85.1074 70.733 81.6258 72.2594 77.941C74.1592 73.89 74.9012 69.3924 74.4034 64.9458" stroke="#45413C" stroke-width="1.5" stroke-linecap="round" stroke-linejoin="round"/>
<path d="M75.9214 142.56C75.675 135.282 79.8686 127.567 86.4814 124.528C89.8462 123.179 93.3895 122.327 96.9998 122C100.611 121.671 104.154 120.819 107.52 119.471C110.809 117.962 113.741 116.64 114.694 113.149" stroke="#45413C" stroke-width="1.5" stroke-linecap="round" stroke-linejoin="round"/>
<path d="M120.104 41.328C118.054 38.5681 115.052 36.669 111.68 36C110.521 35.7761 109.335 35.7222 108.16 35.84C105.821 36.1643 103.607 37.0928 101.737 38.5338C99.8666 39.9749 98.4043 41.8788 97.4943 44.0576L95.5007 48.4352L93.5071 44.0576C92.5972 41.8788 91.1349 39.9749 89.2646 38.5338C87.3942 37.0928 85.1803 36.1643 82.8415 35.84C81.6667 35.7222 80.4809 35.7761 79.3215 36C75.9518 36.6681 72.9505 38.5648 70.9008 41.3216C69.4306 43.3384 68.44 45.6639 68.0041 48.1213C67.5683 50.5787 67.6987 53.1031 68.3856 55.5024C70.3536 63.1376 85.3743 76.6112 95.4975 80.7824H95.5135C105.638 76.6224 120.658 63.1408 122.626 55.5024C123.31 53.1035 123.439 50.5801 123.002 48.1239C122.565 45.6677 121.574 43.3435 120.104 41.328V41.328Z" fill="#FFE500"/>
<path d="M122.656 55.36C122.159 53.4534 121.292 51.6631 120.104 50.0912C118.053 47.3346 115.051 45.4386 111.68 44.7712C110.52 44.5491 109.334 44.4979 108.16 44.6192C105.821 44.9429 103.607 45.8709 101.737 47.3118C99.8664 48.7526 98.4041 50.6564 97.4944 52.8352L95.5008 57.2144L93.5072 52.8352C92.5975 50.6564 91.1352 48.7526 89.2647 47.3118C87.3943 45.8709 85.1804 44.9429 82.8416 44.6192C81.6671 44.4979 80.4812 44.5491 79.3216 44.7712C75.9522 45.4393 72.9512 47.3353 70.9008 50.0912C69.7105 51.6626 68.8412 53.4529 68.3424 55.36L68.3792 55.5088C67.6924 53.1095 67.5619 50.5851 67.9978 48.1277C68.4336 45.6703 69.4243 43.3448 70.8944 41.328C72.9431 38.5688 75.9444 36.6697 79.3152 36C80.4745 35.7761 81.6603 35.7222 82.8352 35.84C85.174 36.1643 87.3878 37.0928 89.2582 38.5338C91.1286 39.9749 92.5909 41.8788 93.5008 44.0576L95.4944 48.4352L97.488 44.0576C98.4005 41.8807 99.8646 39.9792 101.736 38.5406C103.608 37.1021 105.822 36.1763 108.16 35.8544C109.335 35.7366 110.521 35.7905 111.68 36.0144C115.05 36.6825 118.051 38.5792 120.101 41.336C121.571 43.3528 122.562 45.6783 122.997 48.1357C123.433 50.5931 123.303 53.1175 122.616 55.5168" fill="#FFF48C"/>
<path d="M78.9765 42.9053C77.8005 43.7349 76.8372 44.8307 76.1651 46.1033C75.4931 47.376 75.1313 48.7894 75.1093 50.2285C75.0092 51.2367 75.0398 52.2537 75.2005 53.2541C75.4838 54.8388 76.1909 56.3173 77.2469 57.5325" stroke="white" stroke-width="1.5" stroke-linecap="round" stroke-linejoin="round"/>
<path d="M120.104 41.328C118.054 38.5681 115.052 36.669 111.68 36C110.521 35.7761 109.335 35.7222 108.16 35.84C105.821 36.1643 103.607 37.0928 101.737 38.5338C99.8666 39.9749 98.4043 41.8788 97.4943 44.0576L95.5007 48.4352L93.5071 44.0576C92.5972 41.8788 91.1349 39.9749 89.2646 38.5338C87.3942 37.0928 85.1803 36.1643 82.8415 35.84C81.6667 35.7222 80.4809 35.7761 79.3215 36C75.9518 36.6681 72.9505 38.5648 70.9008 41.3216C69.4306 43.3384 68.44 45.6639 68.0041 48.1213C67.5683 50.5787 67.6987 53.1031 68.3856 55.5024C70.3536 63.1376 85.3743 76.6112 95.4975 80.7824H95.5135C105.638 76.6224 120.658 63.1408 122.626 55.5024C123.31 53.1035 123.439 50.5801 123.002 48.1239C122.565 45.6677 121.574 43.3435 120.104 41.328V41.328Z" stroke="#45413C" stroke-width="1.5" stroke-linecap="round" stroke-linejoin="round"/>
<path d="M95.0875 80.374C95.5403 86.3692 94.7259 92.694 90.8299 97.2748C88.2027 100.361 84.5227 102.395 81.7995 105.395C78.9843 108.685 77.1298 112.688 76.4395 116.963C75.7598 121.218 75.558 125.536 75.8379 129.836C75.9979 134.156 76.5739 138.284 75.9211 142.552" stroke="#45413C" stroke-width="1.5" stroke-linecap="round" stroke-linejoin="round"/>
<path d="M91.9598 80.3632C91.3497 80.4607 90.765 80.6786 90.2399 81.0041C89.7147 81.3296 89.2594 81.7562 88.9006 82.2592C88.6439 82.5737 88.4936 82.9615 88.4712 83.3669C88.4488 83.7722 88.5554 84.1742 88.7758 84.5152C88.9775 84.7122 89.2218 84.8601 89.4898 84.9475C89.7578 85.0349 90.0423 85.0594 90.3214 85.0192C91.4916 84.8747 92.5607 84.2837 93.3054 83.3696C94.039 82.4611 94.6392 81.4525 95.0878 80.3744C96.1393 82.1242 97.6923 83.5178 99.5454 84.3744C99.8286 84.5311 100.15 84.6048 100.473 84.5872C100.762 84.5327 101.023 84.3808 101.213 84.1568C101.55 83.7354 101.738 83.2133 101.745 82.6733C101.752 82.1332 101.579 81.6063 101.253 81.176C100.913 80.756 100.486 80.416 100 80.1798C99.5144 79.9437 98.9828 79.8173 98.443 79.8096C97.4038 79.9045 96.3775 80.1078 95.3806 80.416C94.2398 80.5792 93.1198 80.16 91.9598 80.3632Z" stroke="#45413C" stroke-width="1.5" stroke-linecap="round" stroke-linejoin="round"/>
<path d="M83.2256 98.8588C83.2144 96.3356 85.1872 94.27 87.1888 92.7324C89.1904 91.1948 91.456 89.7596 92.512 87.4668C93.472 85.374 93.3408 81.8796 95.088 80.374C96.208 80.9804 97.4192 83.854 97.6656 85.1084C97.912 86.3628 97.8496 87.654 97.9744 88.926C98.1714 90.9308 98.8284 92.8631 99.8944 94.5724C101.014 96.3708 102.635 98.0396 102.774 100.156" stroke="#45413C" stroke-width="1.5" stroke-linecap="round" stroke-linejoin="round"/>
<path d="M52.8691 52.6747C50.7007 51.2354 48.0749 50.6527 45.5011 51.0395C44.6163 51.1816 43.7567 51.451 42.9491 51.8395C41.3649 52.6704 40.0247 53.9 39.0609 55.4071C38.097 56.9141 37.5429 58.6465 37.4531 60.4331L37.1539 64.0651L34.6099 61.4555C33.4028 60.1353 31.8723 59.1527 30.1694 58.6047C28.4665 58.0567 26.6501 57.9623 24.8995 58.3307C24.0301 58.5462 23.1968 58.8874 22.4259 59.3435C20.1947 60.6835 18.541 62.8048 17.7859 65.2955C17.2552 67.1104 17.1454 69.0224 17.4648 70.8861C17.7842 72.7498 18.5244 74.5161 19.6291 76.0507C22.9891 80.9883 37.1507 86.7435 45.4371 87.1195C51.5859 81.5515 58.8403 68.0955 58.2851 62.1483C58.1622 60.2613 57.6105 58.4273 56.672 56.7856C55.7335 55.144 54.4329 53.738 52.8691 52.6747V52.6747Z" fill="#4AEFF7"/>
<path d="M58.2853 62.0251C57.4426 60.793 56.3656 59.7388 55.1157 58.9227C52.9473 57.4831 50.3215 56.9004 47.7477 57.2875C46.8631 57.4286 46.0039 57.6981 45.1973 58.0875C43.6127 58.9178 42.2722 60.147 41.3081 61.6538C40.3439 63.1607 39.7895 64.8929 39.6997 66.6795L39.4005 70.3115L36.8565 67.7019C35.6494 66.3817 34.1188 65.3991 32.4159 64.8511C30.713 64.3031 28.8966 64.2087 27.1461 64.5771C26.2767 64.7926 25.4433 65.1338 24.6725 65.5899C22.4411 66.9297 20.7873 69.0511 20.0325 71.5419C19.5883 72.9668 19.429 74.4651 19.5637 75.9515L19.6277 76.0491C18.523 74.5145 17.7828 72.7482 17.4634 70.8845C17.144 69.0208 17.2538 67.1088 17.7845 65.2939C18.5396 62.8032 20.1933 60.6819 22.4245 59.3419C23.1953 58.8858 24.0287 58.5446 24.8981 58.3291C26.6486 57.9607 28.465 58.0551 30.1679 58.6031C31.8708 59.1511 33.4014 60.1337 34.6085 61.4539L37.1525 64.0635L37.4517 60.4315C37.5419 58.645 38.0964 56.9129 39.0605 55.4061C40.0246 53.8993 41.3649 52.67 42.9493 51.8395C43.7569 51.451 44.6164 51.1816 45.5013 51.0395C48.0751 50.6527 50.7008 51.2354 52.8693 52.6747C54.4341 53.736 55.7362 55.1402 56.6767 56.7804C57.6171 58.4206 58.1711 60.2538 58.2965 62.1403" fill="#A6FBFF"/>
<path d="M23.9517 64.3438C23.3261 65.2369 22.9205 66.2652 22.7679 67.3449C22.6152 68.4245 22.7199 69.525 23.0733 70.5565C23.2605 71.3006 23.5439 72.017 23.9165 72.6877C24.5251 73.7463 25.41 74.6195 26.4765 75.2141" stroke="white" stroke-width="1.5" stroke-linecap="round" stroke-linejoin="round"/>
<path d="M52.8691 52.6747C50.7007 51.2354 48.0749 50.6527 45.5011 51.0395C44.6163 51.1816 43.7567 51.451 42.9491 51.8395C41.3649 52.6704 40.0247 53.9 39.0609 55.4071C38.097 56.9141 37.5429 58.6465 37.4531 60.4331L37.1539 64.0651L34.6099 61.4555C33.4028 60.1353 31.8723 59.1527 30.1694 58.6047C28.4665 58.0567 26.6501 57.9623 24.8995 58.3307C24.0301 58.5462 23.1968 58.8874 22.4259 59.3435C20.1947 60.6835 18.541 62.8048 17.7859 65.2955C17.2552 67.1104 17.1454 69.0224 17.4648 70.8861C17.7842 72.7498 18.5244 74.5161 19.6291 76.0507C22.9891 80.9883 37.1507 86.7435 45.4371 87.1195C51.5859 81.5515 58.8403 68.0955 58.2851 62.1483C58.1622 60.2613 57.6105 58.4273 56.672 56.7856C55.7335 55.144 54.4329 53.738 52.8691 52.6747V52.6747Z" stroke="#45413C" stroke-width="1.5" stroke-linecap="round" stroke-linejoin="round"/>
<path d="M143.495 95.2723C143.042 92.8096 141.691 90.6029 139.703 89.0804C139.013 88.5593 138.251 88.1416 137.44 87.8404C135.807 87.299 134.06 87.193 132.373 87.5328C130.686 87.8725 129.116 88.6464 127.819 89.778L125.099 91.9988L125.207 88.4932C125.314 86.7762 124.972 85.0607 124.215 83.5162C123.457 81.9716 122.31 80.6511 120.887 79.6852C120.157 79.2265 119.365 78.8772 118.535 78.6483C116.116 77.9998 113.542 78.2729 111.314 79.4148C109.703 80.2604 108.306 81.4623 107.23 82.929C106.153 84.3956 105.425 86.0885 105.101 87.8788C103.928 93.5028 109.41 107.151 114.685 113.138C122.647 113.672 136.808 109.701 140.554 105.344C141.777 103.999 142.677 102.393 143.187 100.648C143.696 98.9026 143.801 97.0643 143.495 95.2723V95.2723Z" fill="#6DD627"/>
<path d="M140.64 105.269C140.928 103.863 140.938 102.414 140.667 101.004C140.216 98.5408 138.865 96.3338 136.877 94.8116C136.189 94.292 135.429 93.8758 134.621 93.5764C132.987 93.0349 131.241 92.9286 129.554 93.2681C127.866 93.6076 126.297 94.3812 125 95.5124L122.28 97.7332L122.387 94.2292C122.495 92.512 122.154 90.7962 121.396 89.2513C120.638 87.7064 119.491 86.3858 118.067 85.4196C117.337 84.9622 116.544 84.6134 115.714 84.3844C113.295 83.736 110.722 84.0091 108.493 85.1508C107.212 85.7963 106.07 86.6873 105.133 87.7732L105.109 87.8836C105.433 86.0933 106.161 84.4005 107.237 82.9339C108.314 81.4672 109.711 80.2653 111.322 79.4196C113.55 78.2778 116.124 78.0046 118.542 78.6532C119.373 78.8821 120.165 79.2314 120.894 79.69C122.318 80.656 123.465 81.9764 124.223 83.521C124.98 85.0656 125.322 86.781 125.214 88.498L125.112 92.0004L127.832 89.7796C129.127 88.65 130.694 87.8772 132.379 87.5372C134.064 87.1971 135.808 87.3017 137.44 87.8404C138.248 88.1408 139.008 88.5568 139.696 89.0756C141.684 90.5982 143.035 92.8049 143.488 95.2676C143.798 97.0596 143.696 98.8987 143.189 100.645C142.683 102.392 141.785 104 140.563 105.348" fill="#9CEB60"/>
<path d="M116.095 83.0547C115.057 83.2178 114.073 83.6238 113.222 84.2397C112.372 84.8556 111.679 85.664 111.2 86.5987C110.81 87.2257 110.504 87.9007 110.288 88.6067C109.963 89.734 109.949 90.9282 110.248 92.0627" stroke="white" stroke-width="1.5" stroke-linecap="round" stroke-linejoin="round"/>
<path d="M143.495 95.2723C143.042 92.8096 141.691 90.6029 139.703 89.0804C139.013 88.5593 138.251 88.1416 137.44 87.8404C135.807 87.299 134.06 87.193 132.373 87.5328C130.686 87.8725 129.116 88.6464 127.819 89.778L125.099 91.9988L125.207 88.4932C125.314 86.7762 124.972 85.0607 124.215 83.5162C123.457 81.9716 122.31 80.6511 120.887 79.6852C120.157 79.2265 119.365 78.8772 118.535 78.6483C116.116 77.9998 113.542 78.2729 111.314 79.4148C109.703 80.2604 108.306 81.4623 107.23 82.929C106.153 84.3956 105.425 86.0885 105.101 87.8788C103.928 93.5028 109.41 107.151 114.685 113.138C122.647 113.672 136.808 109.701 140.554 105.344C141.777 103.999 142.677 102.393 143.187 100.648C143.696 98.9026 143.801 97.0643 143.495 95.2723V95.2723Z" stroke="#45413C" stroke-width="1.5" stroke-linecap="round" stroke-linejoin="round"/>
<path d="M125.016 15.0654C124.652 13.7741 123.82 12.6643 122.683 11.9518C122.291 11.7093 121.865 11.5255 121.419 11.4062C120.521 11.1994 119.584 11.2304 118.701 11.4961C117.818 11.7618 117.019 12.253 116.384 12.9214L115.048 14.2414L114.93 12.3662C114.901 11.4449 114.632 10.547 114.15 9.76136C113.668 8.97569 112.989 8.32935 112.181 7.88617C111.769 7.67827 111.328 7.53166 110.874 7.45097C109.551 7.22637 108.193 7.50062 107.061 8.22057C106.244 8.75273 105.56 9.46383 105.059 10.2999C104.559 11.1361 104.255 12.0752 104.171 13.0462C103.827 16.1054 107.434 23.1102 110.547 26.0398C114.822 25.9278 122.176 23.1006 123.955 20.5886C124.541 19.8095 124.941 18.9069 125.125 17.9497C125.309 16.9925 125.272 16.006 125.016 15.0654V15.0654Z" fill="#FF6242"/>
<path d="M124 20.5406C124.084 19.7755 124.016 19.0014 123.802 18.2622C123.437 16.9714 122.606 15.8622 121.469 15.1502C121.076 14.9078 120.651 14.724 120.205 14.6046C119.306 14.3972 118.369 14.4277 117.486 14.6932C116.603 14.9586 115.805 15.4498 115.17 16.1182L113.834 17.4382L113.715 15.5646C113.686 14.6434 113.417 13.7458 112.935 12.9602C112.453 12.1746 111.774 11.5282 110.966 11.0846C110.554 10.8773 110.114 10.7312 109.659 10.651C108.337 10.4264 106.978 10.7007 105.846 11.4206C105.195 11.8289 104.63 12.3611 104.184 12.987V13.0478C104.268 12.0769 104.571 11.1377 105.072 10.3016C105.573 9.4655 106.257 8.7544 107.074 8.22225C108.203 7.50276 109.559 7.22743 110.88 7.44945C111.335 7.53013 111.775 7.67674 112.187 7.88465C112.996 8.32782 113.674 8.97416 114.156 9.75983C114.638 10.5455 114.907 11.4433 114.936 12.3646L115.048 14.2398L116.384 12.9198C117.019 12.2515 117.818 11.7603 118.701 11.4946C119.584 11.2289 120.521 11.1979 121.419 11.4046C121.865 11.524 122.291 11.7078 122.683 11.9502C123.82 12.6628 124.652 13.7725 125.016 15.0638C125.272 16.0041 125.31 16.9905 125.127 17.9476C124.944 18.9048 124.545 19.8076 123.96 20.587" fill="#FF866E"/>
<path d="M125.016 15.0654C124.652 13.7741 123.82 12.6643 122.683 11.9518C122.291 11.7093 121.865 11.5255 121.419 11.4062C120.521 11.1994 119.584 11.2304 118.701 11.4961C117.818 11.7618 117.019 12.253 116.384 12.9214L115.048 14.2414L114.93 12.3662C114.901 11.4449 114.632 10.547 114.15 9.76136C113.668 8.97569 112.989 8.32935 112.181 7.88617C111.769 7.67827 111.328 7.53166 110.874 7.45097C109.551 7.22637 108.193 7.50062 107.061 8.22057C106.244 8.75273 105.56 9.46383 105.059 10.2999C104.559 11.1361 104.255 12.0752 104.171 13.0462C103.827 16.1054 107.434 23.1102 110.547 26.0398C114.822 25.9278 122.176 23.1006 123.955 20.5886C124.541 19.8095 124.941 18.9069 125.125 17.9497C125.309 16.9925 125.272 16.006 125.016 15.0654V15.0654Z" stroke="#E04122" stroke-width="1.5" stroke-linecap="round" stroke-linejoin="round"/>
<path d="M30.1091 15.1842C28.6507 14.4725 26.9799 14.3283 25.4211 14.7794C24.8856 14.9379 24.3762 15.174 23.9091 15.4802C22.9984 16.1234 22.271 16.993 21.7988 18.0031C21.3266 19.0131 21.1258 20.1289 21.2163 21.2402L21.3299 23.5106L19.5443 22.1058C18.689 21.3883 17.6613 20.9064 16.5627 20.7078C15.4641 20.5091 14.3327 20.6005 13.2803 20.973C12.7629 21.1785 12.2779 21.4576 11.8403 21.8018C10.5717 22.8133 9.72382 24.2599 9.46113 25.861C9.28254 27.0265 9.37184 28.2174 9.72227 29.3433C10.0727 30.4691 10.675 31.5003 11.4835 32.3586C13.9651 35.1346 23.1907 37.5298 28.3443 37.0834C31.6883 33.1378 35.0643 24.2258 34.2371 20.6034C34.0068 19.4455 33.5152 18.3555 32.7999 17.4164C32.0845 16.4772 31.1642 15.7138 30.1091 15.1842V15.1842Z" fill="#FF6242"/>
<path d="M34.2257 20.5201C33.6033 19.8277 32.8509 19.2645 32.0113 18.8625C30.5531 18.1504 28.8823 18.0056 27.3233 18.4561C26.7879 18.6149 26.2786 18.851 25.8113 19.1569C24.9004 19.8 24.173 20.6695 23.7008 21.6796C23.2285 22.6897 23.0279 23.8055 23.1185 24.9169L23.2321 27.1857L21.4401 25.7841C20.5854 25.0671 19.5586 24.5856 18.4609 24.3869C17.3632 24.1882 16.2326 24.2794 15.1809 24.6513C14.663 24.8551 14.1779 25.1338 13.7409 25.4785C12.4706 26.4895 11.622 27.937 11.3601 29.5393C11.2019 30.4566 11.2264 31.3962 11.4321 32.3041L11.4801 32.3585C10.6716 31.5002 10.0693 30.469 9.71885 29.3431C9.36842 28.2173 9.27912 27.0264 9.45771 25.8609C9.72122 24.2593 10.5703 22.8126 11.8401 21.8017C12.2777 21.4575 12.7627 21.1783 13.2801 20.9729C14.332 20.6015 15.4626 20.5108 16.5602 20.7097C17.6578 20.9087 18.6846 21.3904 19.5393 22.1073L21.3249 23.5121L21.2113 21.2417C21.1208 20.1303 21.3216 19.0146 21.7938 18.0045C22.266 16.9944 22.9933 16.1249 23.9041 15.4817C24.3712 15.1754 24.8806 14.9393 25.4161 14.7809C26.9749 14.3297 28.6457 14.474 30.1041 15.1857C31.159 15.7129 32.0798 16.4737 32.7965 17.4102C33.5132 18.3468 34.0069 19.4344 34.2401 20.5905" fill="#FF866E"/>
<path d="M30.1091 15.1842C28.6507 14.4725 26.9799 14.3283 25.4211 14.7794C24.8856 14.9379 24.3762 15.174 23.9091 15.4802C22.9984 16.1234 22.271 16.993 21.7988 18.0031C21.3266 19.0131 21.1258 20.1289 21.2163 21.2402L21.3299 23.5106L19.5443 22.1058C18.689 21.3883 17.6613 20.9064 16.5627 20.7078C15.4641 20.5091 14.3327 20.6005 13.2803 20.973C12.7629 21.1785 12.2779 21.4576 11.8403 21.8018C10.5717 22.8133 9.72382 24.2599 9.46113 25.861C9.28254 27.0265 9.37184 28.2174 9.72227 29.3433C10.0727 30.4691 10.675 31.5003 11.4835 32.3586C13.9651 35.1346 23.1907 37.5298 28.3443 37.0834C31.6883 33.1378 35.0643 24.2258 34.2371 20.6034C34.0068 19.4455 33.5152 18.3555 32.7999 17.4164C32.0845 16.4772 31.1642 15.7138 30.1091 15.1842V15.1842Z" stroke="#E04122" stroke-width="1.5" stroke-linecap="round" stroke-linejoin="round"/>
<path d="M149.92 62.1346C149.352 61.1939 148.455 60.4981 147.402 60.1826C147.038 60.0746 146.661 60.0207 146.282 60.0226C145.528 60.0536 144.794 60.281 144.155 60.6823C143.515 61.0836 142.992 61.6448 142.635 62.3106L141.866 63.6434L141.365 62.189C141.143 61.4673 140.736 60.8162 140.185 60.2999C139.634 59.7836 138.957 59.42 138.223 59.245C137.854 59.1721 137.477 59.1521 137.103 59.1858C136.009 59.2968 134.995 59.81 134.258 60.6258C133.728 61.2228 133.342 61.9327 133.128 62.7015C132.914 63.4703 132.878 64.2778 133.023 65.0626C133.415 67.5538 137.783 72.3042 140.877 73.941C144.229 72.925 149.423 69.0978 150.283 66.7282C150.576 65.9852 150.695 65.1854 150.632 64.3895C150.569 63.5935 150.326 62.8224 149.92 62.1346V62.1346Z" fill="#FF6242"/>
<path d="M150.303 66.6801C150.204 66.0564 149.983 65.4583 149.653 64.9201C149.084 63.9797 148.187 63.2837 147.135 62.9665C146.771 62.8585 146.394 62.8046 146.015 62.8065C145.26 62.8375 144.527 63.065 143.888 63.4662C143.248 63.8675 142.724 64.4288 142.368 65.0945L141.599 66.4273L141.098 64.9713C140.875 64.25 140.468 63.5993 139.917 63.0833C139.366 62.5673 138.69 62.2039 137.955 62.0289C137.587 61.9545 137.21 61.9345 136.835 61.9697C135.741 62.0794 134.727 62.5928 133.991 63.4097C133.564 63.8738 133.234 64.4176 133.018 65.0097V65.0577C132.873 64.2729 132.909 63.4654 133.123 62.6967C133.337 61.9279 133.724 61.218 134.253 60.6209C134.99 59.8051 136.004 59.292 137.098 59.1809C137.472 59.1473 137.849 59.1672 138.218 59.2401C138.952 59.4151 139.629 59.7787 140.18 60.295C140.731 60.8113 141.138 61.4624 141.36 62.1841L141.861 63.6385L142.631 62.3057C142.987 61.64 143.51 61.0787 144.15 60.6774C144.789 60.2762 145.523 60.0487 146.277 60.0177C146.656 60.0158 147.034 60.0697 147.397 60.1777C148.45 60.4933 149.347 61.189 149.915 62.1297C150.321 62.8172 150.564 63.588 150.628 64.3836C150.691 65.1792 150.572 65.9788 150.28 66.7217" fill="#FF866E"/>
<path d="M149.92 62.1346C149.352 61.1939 148.455 60.4981 147.402 60.1826C147.038 60.0746 146.661 60.0207 146.282 60.0226C145.528 60.0536 144.794 60.281 144.155 60.6823C143.515 61.0836 142.992 61.6448 142.635 62.3106L141.866 63.6434L141.365 62.189C141.143 61.4673 140.736 60.8162 140.185 60.2999C139.634 59.7836 138.957 59.42 138.223 59.245C137.854 59.1721 137.477 59.1521 137.103 59.1858C136.009 59.2968 134.995 59.81 134.258 60.6258C133.728 61.2228 133.342 61.9327 133.128 62.7015C132.914 63.4703 132.878 64.2778 133.023 65.0626C133.415 67.5538 137.783 72.3042 140.877 73.941C144.229 72.925 149.423 69.0978 150.283 66.7282C150.576 65.9852 150.695 65.1854 150.632 64.3895C150.569 63.5935 150.326 62.8224 149.92 62.1346V62.1346Z" stroke="#E04122" stroke-width="1.5" stroke-linecap="round" stroke-linejoin="round"/>
<path d="M24.8625 97.1205C23.7926 96.8713 22.6683 97.0281 21.7073 97.5605C21.3779 97.7464 21.0771 97.9793 20.8145 98.2517C20.3105 98.814 19.9617 99.4979 19.8026 100.236C19.6435 100.974 19.6796 101.741 19.9073 102.461L20.3249 103.941L18.9345 103.284C18.262 102.94 17.5117 102.778 16.7573 102.812C16.0029 102.847 15.2705 103.077 14.6321 103.48C14.3207 103.694 14.0416 103.952 13.8033 104.245C13.1179 105.105 12.7758 106.188 12.8433 107.285C12.9013 108.081 13.14 108.854 13.5411 109.544C13.9423 110.234 14.4954 110.823 15.1585 111.268C17.2161 112.725 23.6657 112.912 26.9985 111.84C28.6097 108.73 29.4945 102.34 28.3985 100.069C28.0722 99.3412 27.584 98.6972 26.9713 98.1863C26.3586 97.6753 25.6374 97.3108 24.8625 97.1205V97.1205Z" fill="#FF6242"/>
<path d="M28.3828 100.016C27.8681 99.6535 27.2868 99.3958 26.6724 99.258C25.6025 99.0073 24.4776 99.1641 23.5172 99.698C23.1877 99.8833 22.8869 100.116 22.6244 100.388C22.1206 100.95 21.772 101.634 21.6129 102.372C21.4538 103.11 21.4898 103.877 21.7172 104.597L22.1348 106.079L20.7444 105.421C20.0724 105.077 19.3223 104.914 18.5681 104.948C17.8138 104.982 17.0816 105.213 16.4436 105.616C16.1309 105.83 15.8511 106.088 15.6132 106.383C14.9275 107.242 14.5853 108.326 14.6532 109.423C14.6884 110.052 14.8466 110.668 15.1188 111.236L15.1588 111.264C14.496 110.82 13.9434 110.23 13.5428 109.539C13.1422 108.849 12.9041 108.076 12.8468 107.28C12.7792 106.183 13.1213 105.1 13.8068 104.24C14.045 103.947 14.3241 103.69 14.6356 103.476C15.2739 103.072 16.0063 102.842 16.7607 102.807C17.5151 102.773 18.2655 102.935 18.938 103.279L20.3284 103.936L19.9108 102.456C19.683 101.736 19.6469 100.969 19.806 100.231C19.9651 99.4931 20.3139 98.8091 20.818 98.2468C21.0805 97.9744 21.3813 97.7416 21.7108 97.5556C22.6717 97.0232 23.796 96.8664 24.866 97.1156C25.6415 97.3045 26.3637 97.6679 26.9775 98.178C27.5914 98.6882 28.0808 99.3317 28.4084 100.06" fill="#FF866E"/>
<path d="M24.8625 97.1205C23.7926 96.8713 22.6683 97.0281 21.7073 97.5605C21.3779 97.7464 21.0771 97.9793 20.8145 98.2517C20.3105 98.814 19.9617 99.4979 19.8026 100.236C19.6435 100.974 19.6796 101.741 19.9073 102.461L20.3249 103.941L18.9345 103.284C18.262 102.94 17.5117 102.778 16.7573 102.812C16.0029 102.847 15.2705 103.077 14.6321 103.48C14.3207 103.694 14.0416 103.952 13.8033 104.245C13.1179 105.105 12.7758 106.188 12.8433 107.285C12.9013 108.081 13.14 108.854 13.5411 109.544C13.9423 110.234 14.4954 110.823 15.1585 111.268C17.2161 112.725 23.6657 112.912 26.9985 111.84C28.6097 108.73 29.4945 102.34 28.3985 100.069C28.0722 99.3412 27.584 98.6972 26.9713 98.1863C26.3586 97.6753 25.6374 97.3108 24.8625 97.1205V97.1205Z" stroke="#E04122" stroke-width="1.5" stroke-linecap="round" stroke-linejoin="round"/>
<path d="M95.8512 147.508H62.0912C61.6669 147.508 61.2599 147.339 60.9598 147.039C60.6598 146.739 60.4912 146.332 60.4912 145.908V145.588C60.4912 144.315 60.9969 143.094 61.8971 142.193C62.7973 141.293 64.0182 140.788 65.2912 140.788H92.6512C93.9243 140.788 95.1452 141.293 96.0453 142.193C96.9455 143.094 97.4512 144.315 97.4512 145.588V145.908C97.4512 146.332 97.2826 146.739 96.9826 147.039C96.6825 147.339 96.2756 147.508 95.8512 147.508Z" fill="white" stroke="#45413C" stroke-width="1.5" stroke-linecap="round" stroke-linejoin="round"/>
</svg>
