<svg width="128" height="128" fill="none" xmlns="http://www.w3.org/2000/svg">
  <path d="M64 115.2c28.277 0 51.2-22.923 51.2-51.2 0-28.2769-22.923-51.2-51.2-51.2-28.2769 0-51.2 22.9231-51.2 51.2 0 28.277 22.9231 51.2 51.2 51.2Z" fill="#C7F0FF" stroke="#ACE5FA" stroke-miterlimit="10"/>
  <path d="M53.202 64.3496c8.7157 0 15.7811-7.0655 15.7811-15.7811 0-8.7157-7.0654-15.7811-15.7811-15.7811s-15.7811 7.0654-15.7811 15.7811c0 8.7156 7.0654 15.7811 15.7811 15.7811Z" fill="#FFE500"/>
  <path d="M53.2019 38.423a15.7764 15.7764 0 0 1 15.5162 12.9639 15.7821 15.7821 0 0 0-8.8112-17.1778A15.7826 15.7826 0 0 0 37.687 51.3869 15.7749 15.7749 0 0 1 53.2019 38.423Z" fill="#FFF48C"/>
  <path d="M53.202 64.3496c8.7157 0 15.7811-7.0655 15.7811-15.7811 0-8.7157-7.0654-15.7811-15.7811-15.7811s-15.7811 7.0654-15.7811 15.7811c0 8.7156 7.0654 15.7811 15.7811 15.7811Z" stroke="#45413C" stroke-linecap="round" stroke-linejoin="round"/>
  <path d="M55.3626 60.7795a8.9851 8.9851 0 0 0-6.4217 2.697 11.2485 11.2485 0 0 0-21.5399 1.9033 6.7485 6.7485 0 0 0-5.8636 7.1473 6.7477 6.7477 0 0 0 6.7724 6.2927h27.0528a9.0186 9.0186 0 0 0 8.9115-9.0182 9.0187 9.0187 0 0 0-8.9115-9.0182v-.0039Z" fill="#E8F4FA"/>
  <path d="M64.2305 68.1281a9.0114 9.0114 0 0 0-15.2896-4.6502A11.2486 11.2486 0 0 0 27.401 65.38a6.7401 6.7401 0 0 0-5.5938 8.5378 6.7403 6.7403 0 0 0 2.0393 3.2151 6.4003 6.4003 0 0 1 5.038-6.1171c.8768-5.1878 4.8372-9.1085 9.6-9.1085 4.1575 0 7.68 2.9965 9.106 7.2064 1.4208-1.664 5.5872-2.6969 7.7721-2.6969 3.9936 0 7.3229 3.456 7.808 7.9001a9.052 9.052 0 0 0 1.0599-6.1888Z" fill="#fff"/>
  <path d="M32.9127 48.5683h-3.3818m25.8317 12.2112a8.985 8.985 0 0 0-6.4217 2.6969 11.2487 11.2487 0 0 0-21.5399 1.9034 6.748 6.748 0 0 0 .9088 13.44h27.0528a9.019 9.019 0 0 0 6.3078-15.3575 9.019 9.019 0 0 0-6.3078-2.679v-.0038ZM53.202 28.279v-3.3818 3.3818Zm14.3475 5.9417 2.391-2.3897-2.391 2.3897Zm5.943 14.3476h3.3818-3.3818ZM38.8557 34.2207l-2.391-2.3897 2.391 2.3897Z" stroke="#45413C" stroke-linecap="round" stroke-linejoin="round"/>
  <path d="M100.184 72.4479a8.9695 8.9695 0 0 0-3.8122-9.6448 8.97 8.97 0 0 0-10.3634.3981 18.0265 18.0265 0 0 0-28.5296 1.3473 18.0262 18.0262 0 0 0-3.2426 10.3225v.1152a8.6958 8.6958 0 0 0-1.1328-.1152 9.0177 9.0177 0 0 0 0 18.0352h40.576a11.2549 11.2549 0 0 0 10.7516-7.8446 11.2474 11.2474 0 0 0-.059-7.0018 11.258 11.258 0 0 0-4.188-5.6119Z" fill="#E8F4FA"/>
  <path d="M100.773 90.4a11.2487 11.2487 0 0 0 3.165-4.0694 11.255 11.255 0 0 0 1.016-5.054 11.241 11.241 0 0 0-1.345-4.9765 11.245 11.245 0 0 0-3.425-3.8534 8.967 8.967 0 0 0-.3708-5.4292A8.9703 8.9703 0 0 0 86.0083 63.2a18.0262 18.0262 0 0 0-31.7721 11.6698v.1152a8.6958 8.6958 0 0 0-1.1328-.1152 9.0187 9.0187 0 0 0-5.12 16.4441 8.7786 8.7786 0 0 1 1.3822-8.7151 8.7786 8.7786 0 0 1 8.2575-3.1108c0-.0384-.0064-.0755-.0064-.1139 0-16.3328 19.5161-22.7098 27.054-11.2717 6.6087-5.0176 13.8791 1.5066 12.1332 8.8474a11.2419 11.2419 0 0 1 3.5071 4.0117 11.2385 11.2385 0 0 1 1.267 5.1761 11.3927 11.3927 0 0 1-.805 4.2624Z" fill="#fff"/>
  <path d="M100.184 72.4479a8.9695 8.9695 0 0 0-3.8122-9.6448 8.97 8.97 0 0 0-10.3634.3981 18.0265 18.0265 0 0 0-28.5296 1.3473 18.0262 18.0262 0 0 0-3.2426 10.3225v.1152a8.6958 8.6958 0 0 0-1.1328-.1152 9.0177 9.0177 0 0 0 0 18.0352h40.576a11.2549 11.2549 0 0 0 10.7516-7.8446 11.2474 11.2474 0 0 0-.059-7.0018 11.258 11.258 0 0 0-4.188-5.6119v0Z" stroke="#45413C" stroke-linecap="round" stroke-linejoin="round"/>
</svg>
