<svg width="88" height="88" viewBox="0 0 88 88" fill="none" xmlns="http://www.w3.org/2000/svg">
<path d="M83.6648 43.605C83.6656 37.6949 82.3434 31.8595 79.7953 26.5269C77.2473 21.1943 73.5378 16.4996 68.9392 12.7872C64.3405 9.07481 58.9691 6.43884 53.2191 5.07261C47.469 3.70637 41.4861 3.64453 35.709 4.89161C29.9319 6.13869 24.5072 8.66306 19.8328 12.2796C15.1583 15.8961 11.3527 20.5131 8.6949 25.7919C6.03712 31.0708 4.59462 36.8776 4.4732 42.7864C4.35178 48.6953 5.55452 54.5565 7.9932 59.94H80.1365C82.4658 54.8095 83.6689 49.2395 83.6648 43.605Z" fill="#B8ECFF"/>
<path d="M7.99316 59.9399C11.1341 66.8738 16.207 72.7555 22.6044 76.8807C29.0019 81.0059 36.4527 83.1999 44.0648 83.1999C51.6769 83.1999 59.1278 81.0059 65.5252 76.8807C71.9226 72.7555 76.9955 66.8738 80.1364 59.9399H7.99316Z" fill="#B8ECFF"/>
<path d="M5.455 59.9399H82.675M1 59.9399H3.475M84.655 59.9399H87.13" stroke="#45413C" stroke-linecap="round" stroke-linejoin="round"/>
<path d="M23.8291 37.1938H76.2348V59.949H23.8291V37.1938Z" fill="#00B8F0"/>
<path d="M27.0199 59.949L49.775 37.1938H23.8291V59.949H27.0199Z" fill="#4ACFFF"/>
<path d="M23.8291 13.0596H76.2348V37.1938H23.8291V13.0596Z" fill="#FFE500"/>
<path d="M23.8291 13.0596V37.1938H25.6408L49.775 13.0596H23.8291Z" fill="#FFF48C"/>
<path d="M76.2348 37.1938V13.0596H23.8291V37.1938M76.2348 37.1938H23.8291M76.2348 37.1938V59.9489H23.8291V37.1938" stroke="#45413C" stroke-linejoin="round"/>
<path d="M21.0713 11.6803C21.0716 11.3145 21.2171 10.9637 21.4758 10.7051C21.7346 10.4465 22.0855 10.3013 22.4513 10.3013H77.6151C77.9809 10.3013 78.3317 10.4466 78.5903 10.7052C78.8489 10.9638 78.9942 11.3146 78.9942 11.6803C78.9942 12.0461 78.8489 12.3969 78.5903 12.6555C78.3317 12.9141 77.9809 13.0594 77.6151 13.0594H22.4513C22.0855 13.0594 21.7346 12.9141 21.4758 12.6556C21.2171 12.397 21.0716 12.0462 21.0713 11.6803Z" fill="#E0E0E0" stroke="#45413C" stroke-linejoin="round"/>
<path d="M38.3101 22.0229H30.0356M36.242 25.4711H30.0356M36.242 28.9193H30.0356" stroke="#45413C" stroke-miterlimit="10" stroke-linecap="round"/>
<path d="M67.6159 22.023C67.2285 22.0258 66.8476 22.123 66.5061 22.3061C66.3322 21.4486 65.8671 20.6777 65.1896 20.1239C64.5122 19.5701 63.6642 19.2676 62.7892 19.2676C61.9142 19.2676 61.0662 19.5701 60.3887 20.1239C59.7113 20.6777 59.2462 21.4486 59.0722 22.3061C58.7308 22.123 58.3499 22.0258 57.9624 22.023C57.3223 22.023 56.7084 22.2773 56.2558 22.7299C55.8031 23.1826 55.5488 23.7965 55.5488 24.4366C55.5488 25.0767 55.8031 25.6906 56.2558 26.1433C56.7084 26.5959 57.3223 26.8502 57.9624 26.8502H67.6159C68.2561 26.8502 68.87 26.5959 69.3226 26.1433C69.7753 25.6906 70.0296 25.0767 70.0296 24.4366C70.0296 23.7965 69.7753 23.1826 69.3226 22.7299C68.87 22.2773 68.2561 22.023 67.6159 22.023Z" fill="white" stroke="#45413C" stroke-linejoin="round"/>
<path d="M61.0654 26.8501L59.9823 29.0182C59.9455 29.0916 59.9248 29.172 59.9218 29.2541C59.9187 29.3361 59.9334 29.4179 59.9648 29.4938C59.9962 29.5696 60.0435 29.6379 60.1036 29.6938C60.1636 29.7498 60.2351 29.7922 60.313 29.8181L61.3634 30.1676C61.4781 30.2051 61.5782 30.2777 61.6493 30.3753C61.7204 30.4729 61.7589 30.5904 61.7594 30.7111V32.3624C61.7591 32.4759 61.7925 32.5869 61.8554 32.6813C61.9183 32.7757 62.0079 32.8493 62.1127 32.8927C62.2176 32.9361 62.3329 32.9474 62.4442 32.925C62.5554 32.9027 62.6575 32.8478 62.7375 32.7673L64.8016 30.7042C64.8549 30.6509 64.8971 30.5877 64.926 30.5182C64.9548 30.4486 64.9696 30.3741 64.9696 30.2988C64.9696 30.2235 64.9548 30.1489 64.926 30.0793C64.8971 30.0098 64.8549 29.9466 64.8016 29.8934L64.0779 29.1697C64.0027 29.0945 63.95 28.9998 63.9255 28.8963C63.901 28.7928 63.9058 28.6845 63.9394 28.5836L64.5175 26.8501H61.0654Z" fill="#FFE500" stroke="#45413C" stroke-linejoin="round"/>
<path d="M67.616 44.0889C67.2287 44.0919 66.8479 44.1887 66.5062 44.3711C66.3323 43.5136 65.8671 42.7426 65.1897 42.1888C64.5123 41.635 63.6642 41.3325 62.7893 41.3325C61.9143 41.3325 61.0663 41.635 60.3888 42.1888C59.7114 42.7426 59.2463 43.5136 59.0723 44.3711C58.7484 44.2024 58.3905 44.1096 58.0255 44.0997C57.6605 44.0898 57.298 44.1629 56.9654 44.3137C56.6328 44.4645 56.3389 44.6889 56.1058 44.97C55.8728 45.251 55.7066 45.5814 55.62 45.9361C55.5334 46.2909 55.5286 46.6606 55.6059 47.0175C55.6832 47.3743 55.8406 47.709 56.0663 47.996C56.2919 48.2831 56.5799 48.5151 56.9084 48.6745C57.2369 48.8339 57.5974 48.9165 57.9625 48.9161H67.616C68.2562 48.9161 68.8701 48.6619 69.3227 48.2092C69.7754 47.7566 70.0296 47.1427 70.0296 46.5025C70.0296 45.8624 69.7754 45.2485 69.3227 44.7958C68.8701 44.3432 68.2562 44.0889 67.616 44.0889Z" fill="white" stroke="#45413C" stroke-linejoin="round"/>
<path d="M61.7552 53.7435C61.7552 54.1093 61.6099 54.46 61.3513 54.7187C61.0927 54.9773 60.7419 55.1226 60.3761 55.1226C60.0104 55.1226 59.6596 54.9773 59.401 54.7187C59.1424 54.46 58.9971 54.1093 58.9971 53.7435C58.9971 52.9812 60.3761 50.9844 60.3761 50.9844C60.3761 50.9844 61.7552 52.9812 61.7552 53.7435ZM67.2715 53.7435C67.2715 54.1093 67.1262 54.46 66.8676 54.7187C66.609 54.9773 66.2582 55.1226 65.8924 55.1226C65.5267 55.1226 65.1759 54.9773 64.9173 54.7187C64.6586 54.46 64.5134 54.1093 64.5134 53.7435C64.5134 52.9812 65.8924 50.9844 65.8924 50.9844C65.8924 50.9844 67.2715 52.9812 67.2715 53.7435Z" fill="#B8ECFF" stroke="#45413C" stroke-linejoin="round"/>
<path d="M46.4794 27.738C46.8754 27.738 47.1724 27.9172 47.1724 28.332C47.1754 28.4151 47.1604 28.4979 47.1284 28.5747C47.0964 28.6515 47.0482 28.7204 46.9871 28.7768C46.926 28.8332 46.8534 28.8758 46.7743 28.9015C46.6952 28.9273 46.6115 28.9356 46.5289 28.926H43.546C43.15 28.926 42.853 28.7468 42.853 28.332C42.8672 28.161 42.94 28.0002 43.0589 27.8766C43.8014 26.9856 44.6063 26.1857 45.2855 25.2036C45.4725 24.965 45.582 24.6748 45.5993 24.372C45.6054 24.1947 45.5411 24.0222 45.4203 23.8923C45.2994 23.7624 45.1321 23.6857 44.9548 23.679C43.9262 23.679 44.4182 25.1274 43.5599 25.1274C43.4729 25.1324 43.3858 25.119 43.3044 25.088C43.223 25.057 43.149 25.0091 43.0874 24.9475C43.0258 24.8859 42.9779 24.8119 42.9469 24.7305C42.9159 24.649 42.9024 24.562 42.9075 24.475C42.9262 23.9303 43.1557 23.4141 43.5476 23.0353C43.9395 22.6565 44.4632 22.4447 45.0083 22.4445C45.2622 22.4277 45.5168 22.4632 45.7564 22.5488C45.996 22.6345 46.2155 22.7684 46.4012 22.9424C46.587 23.1163 46.735 23.3265 46.8361 23.56C46.9373 23.7935 46.9894 24.0453 46.9893 24.2997C46.9893 25.5432 45.6032 26.7747 44.8429 27.7341L46.4794 27.738ZM47.7763 25.7352C47.7763 24.277 48.3396 22.4435 50.1464 22.4435C51.9531 22.4435 52.5164 24.277 52.5164 25.7352C52.5164 27.1935 51.9521 29.026 50.1464 29.026C48.3406 29.026 47.7763 27.1925 47.7763 25.7352ZM51.1215 25.7352C51.1215 25.0551 51.0581 23.6562 50.1464 23.6562C49.2346 23.6562 49.1712 25.0512 49.1712 25.7352C49.1712 26.3698 49.2336 27.8142 50.1464 27.8142C51.0591 27.8142 51.1215 26.3698 51.1215 25.7352Z" fill="#45413C"/>
<path d="M53.4798 19.2658C53.4798 19.5385 53.3989 19.8052 53.2474 20.032C53.0959 20.2587 52.8805 20.4355 52.6285 20.5399C52.3765 20.6443 52.0992 20.6716 51.8317 20.6184C51.5642 20.5651 51.3185 20.4338 51.1256 20.2409C50.9327 20.0481 50.8014 19.8023 50.7482 19.5348C50.695 19.2673 50.7223 18.99 50.8267 18.738C50.931 18.486 51.1078 18.2707 51.3346 18.1191C51.5614 17.9676 51.828 17.8867 52.1008 17.8867C52.4665 17.8867 52.8173 18.032 53.0759 18.2906C53.3345 18.5493 53.4798 18.9 53.4798 19.2658Z" stroke="#45413C" stroke-miterlimit="10"/>
<path d="M46.4794 51.1827C46.8754 51.1827 47.1724 51.3609 47.1724 51.7767C47.1755 51.8598 47.1606 51.9427 47.1287 52.0195C47.0968 52.0964 47.0486 52.1654 46.9874 52.2219C46.9263 52.2783 46.8536 52.3208 46.7745 52.3465C46.6953 52.3722 46.6115 52.3805 46.5289 52.3707H43.546C43.15 52.3707 42.853 52.1925 42.853 51.7767C42.8672 51.6057 42.94 51.4449 43.0589 51.3213C43.8014 50.4352 44.6063 49.6313 45.2855 48.6483C45.4731 48.4103 45.5827 48.1202 45.5993 47.8177C45.6057 47.6403 45.5414 47.4677 45.4206 47.3377C45.2997 47.2077 45.1322 47.1311 44.9548 47.1247C43.9262 47.1247 44.4182 48.573 43.5599 48.573C43.4729 48.5781 43.3858 48.5646 43.3044 48.5336C43.223 48.5026 43.149 48.4547 43.0874 48.3931C43.0258 48.3315 42.9779 48.2576 42.9469 48.1761C42.9159 48.0947 42.9024 48.0076 42.9075 47.9206C42.9262 47.3759 43.1557 46.8597 43.5476 46.4809C43.9395 46.1021 44.4632 45.8903 45.0083 45.8901C45.263 45.8726 45.5186 45.9077 45.7591 45.9933C45.9997 46.079 46.22 46.2132 46.4063 46.3878C46.5927 46.5623 46.741 46.7734 46.8422 47.0078C46.9433 47.2423 46.9951 47.495 46.9942 47.7503C46.9942 48.9938 45.6082 50.2253 44.8479 51.1847L46.4794 51.1827ZM48.9386 47.2296H48.4109C48.3291 47.2342 48.2473 47.2213 48.1709 47.1918C48.0945 47.1622 48.0252 47.1168 47.9677 47.0585C47.9102 47.0001 47.8658 46.9302 47.8374 46.8534C47.809 46.7765 47.7973 46.6946 47.803 46.6128C47.7999 46.5318 47.8134 46.4509 47.8427 46.3752C47.8721 46.2996 47.9166 46.2307 47.9735 46.1729C48.0305 46.1151 48.0987 46.0696 48.1739 46.0392C48.2491 46.0088 48.3298 45.9941 48.4109 45.9961H49.6801C49.7626 45.9932 49.8448 46.0079 49.9213 46.0393C49.9977 46.0706 50.0666 46.1179 50.1233 46.1779C50.18 46.2379 50.2234 46.3094 50.2504 46.3874C50.2774 46.4655 50.2875 46.5484 50.28 46.6307V51.7232C50.2835 51.8135 50.2687 51.9035 50.2365 51.9879C50.2044 52.0723 50.1556 52.1493 50.0929 52.2144C50.0303 52.2795 49.9552 52.3313 49.8721 52.3666C49.789 52.402 49.6996 52.4202 49.6093 52.4202C49.519 52.4202 49.4296 52.402 49.3465 52.3666C49.2634 52.3313 49.1883 52.2795 49.1256 52.2144C49.063 52.1493 49.0142 52.0723 48.982 51.9879C48.9499 51.9035 48.9351 51.8135 48.9386 51.7232V47.2296Z" fill="#45413C"/>
<path d="M53.4798 42.7141C53.4784 42.9866 53.3964 43.2525 53.244 43.4784C53.0917 43.7043 52.8758 43.88 52.6237 43.9833C52.3716 44.0866 52.0945 44.1129 51.8275 44.0589C51.5604 44.0049 51.3153 43.873 51.1232 43.6799C50.931 43.4868 50.8003 43.241 50.7477 42.9737C50.695 42.7064 50.7227 42.4294 50.8273 42.1779C50.9319 41.9263 51.1087 41.7113 51.3353 41.5601C51.5619 41.4088 51.8283 41.3281 52.1007 41.3281C52.2824 41.3281 52.4623 41.364 52.6301 41.4338C52.7979 41.5035 52.9502 41.6057 53.0783 41.7345C53.2065 41.8633 53.3079 42.0161 53.3768 42.1842C53.4457 42.3524 53.4807 42.5324 53.4798 42.7141Z" stroke="#45413C" stroke-miterlimit="10"/>
<path opacity="0.15" d="M9.87256 77.0731C9.87256 77.2988 10.169 77.5223 10.7449 77.7308C11.3208 77.9393 12.165 78.1288 13.2292 78.2884C14.2934 78.448 15.5567 78.5746 16.9472 78.6609C18.3376 78.7473 19.8278 78.7918 21.3328 78.7918C22.8378 78.7918 24.328 78.7473 25.7184 78.6609C27.1089 78.5746 28.3722 78.448 29.4364 78.2884C30.5006 78.1288 31.3448 77.9393 31.9207 77.7308C32.4966 77.5223 32.793 77.2988 32.793 77.0731C32.793 76.6173 31.5856 76.1802 29.4364 75.8579C27.2872 75.5356 24.3722 75.3545 21.3328 75.3545C18.2934 75.3545 15.3784 75.5356 13.2292 75.8579C11.08 76.1802 9.87256 76.6173 9.87256 77.0731Z" fill="#45413C"/>
<path d="M24.5195 46.69V47.8721C24.5194 48.687 24.6799 49.494 24.9918 50.2469C25.3036 50.9997 25.7608 51.6838 26.3372 52.2599C26.9136 52.836 27.5978 53.2928 28.3509 53.6044C29.1039 53.9159 29.9109 54.076 30.7258 54.0754C33.8117 54.0754 35.166 52.2073 37.3588 50.0164C37.7329 49.6257 37.939 49.104 37.9331 48.5631C37.9272 48.0222 37.7097 47.5051 37.3272 47.1226C36.9447 46.7401 36.4276 46.5226 35.8867 46.5167C35.3459 46.5108 34.8242 46.717 34.4334 47.091C32.6573 48.8661 32.0574 49.9155 30.7249 49.9155C30.4538 49.9218 30.1843 49.8737 29.9322 49.7737C29.6802 49.6738 29.4508 49.5242 29.2578 49.3339C29.0647 49.1435 28.912 48.9163 28.8085 48.6656C28.7051 48.415 28.6532 48.1462 28.6558 47.8751V46.693L24.5195 46.69Z" fill="#BF8256" stroke="#45413C" stroke-miterlimit="10"/>
<path d="M35.6382 48.5512L48.3092 38.4146" stroke="#45413C" stroke-linecap="round" stroke-linejoin="round"/>
<path d="M13.4868 52.894V52.9079L14.8659 75.6492H24.5194L25.8984 52.9079V52.894H13.4868Z" fill="#00C9D4" stroke="#45413C" stroke-linecap="round" stroke-linejoin="round"/>
<path d="M19.6919 75.6495V57.7295Z" fill="#00B8F0"/>
<path d="M19.6919 75.6495V57.7295" stroke="#45413C" stroke-linecap="round" stroke-linejoin="round"/>
<path d="M19.6919 72.8911H23.1401C26.5189 72.8911 27.2981 76.3393 27.2981 76.3393H19.6919V72.8911Z" fill="#FF6242" stroke="#45413C" stroke-linejoin="round"/>
<path d="M14.6914 72.8911H18.1396C21.5184 72.8911 22.2976 76.3393 22.2976 76.3393H15.8378C15.5339 76.339 15.2424 76.2182 15.0275 76.0032C14.8125 75.7883 14.6917 75.4968 14.6914 75.1929V72.8911Z" fill="#FF6242" stroke="#45413C" stroke-linejoin="round"/>
<path d="M9.34863 47.3779V57.7294C9.34863 58.2781 9.56663 58.8044 9.95466 59.1924C10.3427 59.5805 10.869 59.7985 11.4177 59.7985C11.9665 59.7985 12.4928 59.5805 12.8808 59.1924C13.2688 58.8044 13.4868 58.2781 13.4868 57.7294V47.3779H9.34863Z" fill="#BF8256" stroke="#45413C" stroke-miterlimit="10"/>
<path d="M13.4868 50.1353H25.8984V52.8944H13.4868V50.1353Z" fill="#A86C4D" stroke="#45413C" stroke-linecap="round" stroke-linejoin="round"/>
<path d="M28.6566 42.5507C28.6826 41.2666 28.4522 39.9903 27.9788 38.7965C27.5054 37.6026 26.7985 36.5152 25.8996 35.5979C25.0007 34.6806 23.9278 33.9519 22.7438 33.4544C21.5598 32.9569 20.2884 32.7007 19.0041 32.7007C17.7198 32.7007 16.4484 32.9569 15.2644 33.4544C14.0803 33.9519 13.0075 34.6806 12.1086 35.5979C11.2097 36.5152 10.5028 37.6026 10.0294 38.7965C9.55602 39.9903 9.32558 41.2666 9.35159 42.5507V47.3779H13.4938V52.8942H25.8984V47.3779H28.6566V42.5507Z" fill="#F8F8F8"/>
<path d="M19.0031 32.896C21.5634 32.8963 24.0188 33.9135 25.8292 35.7241C27.6395 37.5346 28.6566 39.9901 28.6566 42.5505V45.9977C28.6054 43.4715 27.566 41.0661 25.7613 39.2976C23.9567 37.5292 21.5307 36.5387 19.0041 36.5387C16.4774 36.5387 14.0514 37.5292 12.2468 39.2976C10.4422 41.0661 9.40273 43.4715 9.35156 45.9977V42.5505C9.35156 39.9905 10.3683 37.5353 12.1782 35.7248C13.9882 33.9143 16.4431 32.8968 19.0031 32.896Z" fill="white"/>
<path d="M13.4868 50.8252H13.4898V52.8943H13.4868V50.8252Z" fill="#F8F8F8"/>
<path d="M28.6566 42.5507C28.6826 41.2666 28.4522 39.9903 27.9788 38.7965C27.5054 37.6026 26.7985 36.5152 25.8996 35.5979C25.0007 34.6806 23.9278 33.9519 22.7438 33.4544C21.5598 32.9569 20.2884 32.7007 19.0041 32.7007C17.7198 32.7007 16.4484 32.9569 15.2644 33.4544C14.0803 33.9519 13.0075 34.6806 12.1086 35.5979C11.2097 36.5152 10.5028 37.6026 10.0294 38.7965C9.55602 39.9903 9.32558 41.2666 9.35159 42.5507V47.3779H13.4938V52.8942H25.8984V47.3779H28.6566V42.5507Z" stroke="#45413C" stroke-linecap="round" stroke-linejoin="round"/>
<path d="M13.2285 39.266L14.5977 33.9586C15.3367 33.5787 16.1221 33.2968 16.9341 33.1201V34.2487L18.2122 39.37C16.6143 36.6435 14.7551 38.1869 13.2285 39.266ZM25.0679 35.0447C24.2799 34.4095 23.3965 33.9026 22.4504 33.5428V34.2487L21.1723 39.37C22.7701 36.6435 24.6303 38.182 26.1569 39.266L25.0679 35.0447Z" fill="white" stroke="#45413C" stroke-linecap="round" stroke-linejoin="round"/>
<path d="M25.8984 47.3778C25.8976 46.5214 26.163 45.6859 26.6578 44.9869C27.0781 44.3091 27.2934 43.5242 27.2775 42.7267M13.4868 49.4459V43.2396M19.6921 40.4824V52.8941" stroke="#45413C" stroke-linecap="round" stroke-linejoin="round"/>
<path d="M22.4504 33.5319C22.2851 33.4687 22.1429 33.3567 22.0426 33.2109C21.9424 33.065 21.8888 32.8921 21.8891 32.7152V26.1812H17.3717V32.5716C17.3717 32.6994 17.328 32.8234 17.2479 32.923C17.1678 33.0226 17.056 33.0917 16.9312 33.1191V34.2477L18.1083 38.9621C18.1941 39.3175 18.397 39.6337 18.6843 39.8599C18.9716 40.0861 19.3266 40.209 19.6923 40.209C20.0579 40.209 20.4129 40.0861 20.7002 39.8599C20.9875 39.6337 21.1904 39.3175 21.2763 38.9621L22.4524 34.2477L22.4504 33.5319Z" fill="#BF8256" stroke="#45413C" stroke-linecap="round" stroke-linejoin="round"/>
<path d="M10.5061 19.1067C11.4754 19.6154 12.607 19.7182 13.6521 19.3926C14.1696 19.2313 14.6502 18.9697 15.0666 18.6227C15.483 18.2757 15.8269 17.8501 16.0788 17.3702C16.3307 16.8903 16.4856 16.3654 16.5347 15.8257C16.5837 15.2859 16.526 14.7417 16.3648 14.2242C16.2035 13.7067 15.9419 13.2261 15.5949 12.8097C15.2479 12.3933 14.8223 12.0494 14.3424 11.7975C13.3731 11.2888 12.2415 11.1859 11.1964 11.5116C10.1513 11.8372 9.27839 12.5647 8.76967 13.534C8.26095 14.5032 8.1581 15.6349 8.48375 16.6799C8.8094 17.725 9.53687 18.598 10.5061 19.1067Z" fill="#614B44" stroke="#45413C" stroke-linecap="round" stroke-linejoin="round"/>
<path d="M10.6553 21.9377C10.6553 24.1273 11.5251 26.2271 13.0733 27.7753C14.6215 29.3236 16.7214 30.1933 18.9109 30.1933C21.1004 30.1933 23.2003 29.3236 24.7485 27.7753C26.2967 26.2271 27.1665 24.1273 27.1665 21.9377C27.1665 19.7482 26.2967 17.6484 24.7485 16.1001C23.2003 14.5519 21.1004 13.6821 18.9109 13.6821C16.7214 13.6821 14.6215 14.5519 13.0733 16.1001C11.5251 17.6484 10.6553 19.7482 10.6553 21.9377Z" fill="#614B44"/>
<path d="M11.4941 24.0029C11.4944 22.1829 12.096 20.4139 13.2055 18.9711C14.315 17.5283 15.8701 16.4926 17.6291 16.0249C19.388 15.5572 21.2522 15.6838 22.9318 16.385C24.6113 17.0863 26.0121 18.3228 26.9163 19.9024C26.6247 18.7614 26.0925 17.696 25.3552 16.7776C24.618 15.8593 23.6928 15.1093 22.6418 14.578C21.5908 14.0467 20.4383 13.7464 19.2617 13.6972C18.0851 13.6479 16.9115 13.851 15.8199 14.2927C14.7282 14.7345 13.7436 15.4046 12.9323 16.2582C12.121 17.1117 11.5016 18.129 11.1158 19.2417C10.73 20.3543 10.5867 21.5366 10.6955 22.7093C10.8043 23.8819 11.1626 25.0177 11.7465 26.0404C11.5786 25.3743 11.4938 24.6899 11.4941 24.0029Z" fill="#A86C4D"/>
<path d="M10.6553 21.9377C10.6553 24.1273 11.5251 26.2271 13.0733 27.7753C14.6215 29.3236 16.7214 30.1933 18.9109 30.1933C21.1004 30.1933 23.2003 29.3236 24.7485 27.7753C26.2967 26.2271 27.1665 24.1273 27.1665 21.9377C27.1665 19.7482 26.2967 17.6484 24.7485 16.1001C23.2003 14.5519 21.1004 13.6821 18.9109 13.6821C16.7214 13.6821 14.6215 14.5519 13.0733 16.1001C11.5251 17.6484 10.6553 19.7482 10.6553 21.9377Z" stroke="#45413C" stroke-linecap="round" stroke-linejoin="round"/>
<path d="M24.2173 30.6361V33.1448C24.2173 35.503 27.1665 37.2721 27.1665 37.2721V24.8872C27.1676 26.0109 26.9006 27.1187 26.3876 28.1186C25.8747 29.1184 25.1307 29.9815 24.2173 30.6361Z" fill="#614B44" stroke="#45413C" stroke-linecap="round" stroke-linejoin="round"/>
<path d="M24.2175 20.1689C22.9572 20.1689 22.5345 20.7629 21.8593 20.7629C20.6975 20.4714 19.5144 20.2727 18.3211 20.1689C17.3073 20.1689 16.2945 21.3302 15.6134 22.3222C15.3255 22.7472 14.9382 23.0956 14.4852 23.3371C14.0322 23.5787 13.5271 23.706 13.0137 23.7082V26.2891C13.0623 26.3065 13.1119 26.321 13.1622 26.3327C13.5191 28.0474 14.4993 29.5689 15.9131 30.6028C17.3269 31.6366 19.0739 32.1095 20.8162 31.9298C22.5585 31.7501 24.1722 30.9306 25.3452 29.6299C26.5183 28.3293 27.1673 26.6398 27.1667 24.8883V22.5281C27.1667 22.5281 25.4788 20.1689 24.2175 20.1689Z" fill="#BF8256" stroke="#45413C" stroke-linecap="round" stroke-linejoin="round"/>
<path d="M19.5 27.8892C20.0238 28.2388 20.6394 28.4253 21.2691 28.4253C21.8989 28.4253 22.5145 28.2388 23.0383 27.8892" stroke="#45413C" stroke-linecap="round" stroke-linejoin="round"/>
<path d="M15.9626 22.5278H20.0899C20.0899 22.5278 20.6799 22.5278 20.6799 23.1179V25.4761C20.6799 25.4761 20.6799 26.0661 20.0899 26.0661H15.9626C15.9626 26.0661 15.3726 26.0661 15.3726 25.4761V23.1179C15.3726 23.1179 15.3726 22.5278 15.9626 22.5278Z" fill="#00B8F0"/>
<path d="M15.9616 22.5278C15.8049 22.5291 15.6551 22.5923 15.5448 22.7036C15.4345 22.8148 15.3726 22.9651 15.3726 23.1218V25.48C15.3724 25.5199 15.3764 25.5597 15.3844 25.5988C15.3844 25.6186 15.3934 25.6374 15.3983 25.6552C15.427 25.7464 15.4773 25.8292 15.5448 25.8968C15.5995 25.9517 15.6644 25.9953 15.7359 26.025C15.8075 26.0547 15.8842 26.07 15.9616 26.0701H16.5556L20.0939 22.5318L15.9616 22.5278Z" fill="#4ACFFF"/>
<path d="M23.6286 22.5278H27.7559C27.7559 22.5278 28.346 22.5278 28.346 23.1179V25.4761C28.346 25.4761 28.346 26.0661 27.7559 26.0661H23.6286C23.6286 26.0661 23.0386 26.0661 23.0386 25.4761V23.1179C23.0386 23.1179 23.0386 22.5278 23.6286 22.5278Z" fill="#00B8F0"/>
<path d="M15.9626 22.5278H20.0899C20.0899 22.5278 20.6799 22.5278 20.6799 23.1179V25.4761C20.6799 25.4761 20.6799 26.0661 20.0899 26.0661H15.9626C15.9626 26.0661 15.3726 26.0661 15.3726 25.4761V23.1179C15.3726 23.1179 15.3726 22.5278 15.9626 22.5278Z" stroke="#45413C" stroke-linecap="round" stroke-linejoin="round"/>
<path d="M23.6282 22.5278C23.4706 22.5278 23.3196 22.5904 23.2082 22.7018C23.0968 22.8132 23.0342 22.9643 23.0342 23.1218V25.48C23.0341 25.5199 23.038 25.5597 23.0461 25.5988C23.0498 25.6179 23.0548 25.6368 23.0609 25.6552C23.0889 25.7467 23.1393 25.8297 23.2074 25.8968C23.262 25.9518 23.3269 25.9955 23.3984 26.0252C23.47 26.055 23.5467 26.0702 23.6242 26.0701H24.2182L27.7565 22.5318L23.6282 22.5278Z" fill="#4ACFFF"/>
<path d="M20.6792 23.707H23.0384" stroke="#45413C" stroke-linecap="round" stroke-linejoin="round"/>
<path d="M23.6286 22.5278H27.7559C27.7559 22.5278 28.346 22.5278 28.346 23.1179V25.4761C28.346 25.4761 28.346 26.0661 27.7559 26.0661H23.6286C23.6286 26.0661 23.0386 26.0661 23.0386 25.4761V23.1179C23.0386 23.1179 23.0386 22.5278 23.6286 22.5278Z" stroke="#45413C" stroke-linecap="round" stroke-linejoin="round"/>
<path d="M14.7829 21.9379H13.6038C13.3953 21.9389 13.1904 21.8846 13.0098 21.7805V33.1427C13.0098 35.5009 15.958 37.27 15.958 37.27V20.7588C15.958 21.0708 15.8343 21.3701 15.614 21.5911C15.3938 21.8121 15.0949 21.9368 14.7829 21.9379Z" fill="#614B44" stroke="#45413C" stroke-linecap="round" stroke-linejoin="round"/>
<path d="M13.6034 19.5796H14.7825C15.0952 19.5796 15.3951 19.7038 15.6163 19.9249C15.8374 20.1461 15.9616 20.446 15.9616 20.7587C15.9616 21.0714 15.8374 21.3713 15.6163 21.5924C15.3951 21.8135 15.0952 21.9378 14.7825 21.9378H13.6034C13.2906 21.9378 12.9906 21.8136 12.7693 21.5925C12.548 21.3714 12.4236 21.0715 12.4233 20.7587C12.4236 20.4459 12.548 20.146 12.7693 19.9249C12.9906 19.7038 13.2906 19.5796 13.6034 19.5796Z" fill="#FFE500" stroke="#45413C" stroke-linecap="round" stroke-linejoin="round"/>
</svg>
