<svg width="88" height="80" viewBox="0 0 88 80" fill="none" xmlns="http://www.w3.org/2000/svg">
<path d="M83.5999 40.0001C83.6007 34.0899 82.2785 28.2545 79.7304 22.9219C77.1823 17.5893 73.4729 12.8946 68.8742 9.18222C64.2755 5.46983 58.9042 2.83386 53.1541 1.46763C47.4041 0.101393 41.4211 0.0395491 35.644 1.28663C29.867 2.53371 24.4423 5.05808 19.7678 8.67462C15.0934 12.2912 11.2877 16.9081 8.62996 22.187C5.97218 27.4658 4.52968 33.2726 4.40826 39.1815C4.28684 45.0904 5.48958 50.9515 7.92826 56.3351H80.0715C82.4008 51.2045 83.6039 45.6346 83.5999 40.0001Z" fill="#B8ECFF"/>
<path d="M7.92822 56.335C11.0692 63.2688 16.1421 69.1505 22.5395 73.2757C28.9369 77.401 36.3877 79.5949 43.9999 79.5949C51.612 79.5949 59.0628 77.401 65.4602 73.2757C71.8576 69.1505 76.9305 63.2688 80.0715 56.335H7.92822Z" fill="#B8ECFF"/>
<path d="M5.39006 56.335H82.6101M0.935059 56.335H3.41006M84.5901 56.335H87.0651" stroke="#45413C" stroke-linecap="round" stroke-linejoin="round"/>
<path d="M23.7642 33.5889H76.1698V56.344H23.7642V33.5889Z" fill="#00B8F0"/>
<path d="M26.9549 56.344L49.7101 33.5889H23.7642V56.344H26.9549Z" fill="#4ACFFF"/>
<path d="M23.7642 9.45459H76.1698V33.5888H23.7642V9.45459Z" fill="#FFE500"/>
<path d="M23.7642 9.45459V33.5888H25.5759L49.7101 9.45459H23.7642Z" fill="#FFF48C"/>
<path d="M76.1698 33.5888V9.45459H23.7642V33.5888M76.1698 33.5888H23.7642M76.1698 33.5888V56.344H23.7642V33.5888" stroke="#45413C" stroke-linejoin="round"/>
<path d="M21.0063 8.07536C21.0066 7.70952 21.1521 7.35875 21.4109 7.10015C21.6697 6.84155 22.0206 6.69629 22.3864 6.69629H77.5502C77.9159 6.69629 78.2667 6.84158 78.5253 7.10021C78.784 7.35884 78.9293 7.70961 78.9293 8.07536C78.9293 8.44111 78.784 8.79188 78.5253 9.05051C78.2667 9.30913 77.9159 9.45443 77.5502 9.45443H22.3864C22.0206 9.45443 21.6697 9.30917 21.4109 9.05057C21.1521 8.79197 21.0066 8.4412 21.0063 8.07536Z" fill="#E0E0E0" stroke="#45413C" stroke-linejoin="round"/>
<path d="M38.2451 18.418H29.9707M36.177 21.8661H29.9707M36.177 25.3143H29.9707" stroke="#45413C" stroke-miterlimit="10" stroke-linecap="round"/>
<path d="M67.551 18.418C67.1636 18.4209 66.7827 18.518 66.4412 18.7011C66.2672 17.8436 65.8021 17.0727 65.1247 16.5189C64.4473 15.9651 63.5992 15.6626 62.7243 15.6626C61.8493 15.6626 61.0012 15.9651 60.3238 16.5189C59.6464 17.0727 59.1813 17.8436 59.0073 18.7011C58.6658 18.518 58.2849 18.4209 57.8975 18.418C57.2574 18.418 56.6435 18.6723 56.1908 19.1249C55.7382 19.5776 55.4839 20.1915 55.4839 20.8316C55.4839 21.4717 55.7382 22.0857 56.1908 22.5383C56.6435 22.9909 57.2574 23.2452 57.8975 23.2452H67.551C68.1911 23.2452 68.805 22.9909 69.2577 22.5383C69.7103 22.0857 69.9646 21.4717 69.9646 20.8316C69.9646 20.1915 69.7103 19.5776 69.2577 19.1249C68.805 18.6723 68.1911 18.418 67.551 18.418Z" fill="white" stroke="#45413C" stroke-linejoin="round"/>
<path d="M61.0004 23.2451L59.9174 25.4132C59.8805 25.4866 59.8599 25.567 59.8568 25.6491C59.8538 25.7311 59.8685 25.8129 59.8998 25.8888C59.9312 25.9647 59.9785 26.0329 60.0386 26.0889C60.0987 26.1448 60.1701 26.1872 60.248 26.2131L61.2984 26.5626C61.4132 26.6001 61.5132 26.6728 61.5843 26.7703C61.6554 26.8679 61.6939 26.9854 61.6944 27.1061V28.7574C61.6941 28.8709 61.7275 28.9819 61.7905 29.0763C61.8534 29.1707 61.9429 29.2443 62.0478 29.2877C62.1526 29.3311 62.268 29.3424 62.3792 29.32C62.4905 29.2977 62.5926 29.2428 62.6726 29.1623L64.7367 27.0992C64.79 27.046 64.8322 26.9828 64.861 26.9132C64.8898 26.8436 64.9047 26.7691 64.9047 26.6938C64.9047 26.6185 64.8898 26.5439 64.861 26.4744C64.8322 26.4048 64.79 26.3416 64.7367 26.2884L64.013 25.5647C63.9378 25.4895 63.885 25.3948 63.8605 25.2913C63.8361 25.1878 63.8409 25.0795 63.8744 24.9786L64.4526 23.2451H61.0004Z" fill="#FFE500" stroke="#45413C" stroke-linejoin="round"/>
<path d="M67.5511 40.4839C67.1638 40.4869 66.783 40.5837 66.4413 40.7661C66.2673 39.9086 65.8022 39.1376 65.1248 38.5838C64.4474 38.0301 63.5993 37.7275 62.7243 37.7275C61.8494 37.7275 61.0013 38.0301 60.3239 38.5838C59.6465 39.1376 59.1814 39.9086 59.0074 40.7661C58.6835 40.5974 58.3255 40.5047 57.9605 40.4947C57.5955 40.4848 57.233 40.558 56.9005 40.7087C56.5679 40.8595 56.274 41.0839 56.0409 41.365C55.8078 41.646 55.6417 41.9764 55.5551 42.3312C55.4685 42.6859 55.4636 43.0556 55.5409 43.4125C55.6183 43.7694 55.7757 44.104 56.0013 44.391C56.227 44.6781 56.515 44.9101 56.8435 45.0695C57.172 45.2289 57.5324 45.3116 57.8976 45.3112H67.5511C68.1912 45.3112 68.8051 45.0569 69.2578 44.6042C69.7104 44.1516 69.9647 43.5377 69.9647 42.8975C69.9647 42.2574 69.7104 41.6435 69.2578 41.1909C68.8051 40.7382 68.1912 40.4839 67.5511 40.4839Z" fill="white" stroke="#45413C" stroke-linejoin="round"/>
<path d="M61.6903 50.1385C61.6903 50.5043 61.545 50.855 61.2864 51.1137C61.0277 51.3723 60.677 51.5176 60.3112 51.5176C59.9455 51.5176 59.5947 51.3723 59.3361 51.1137C59.0774 50.855 58.9321 50.5043 58.9321 50.1385C58.9321 49.3762 60.3112 47.3794 60.3112 47.3794C60.3112 47.3794 61.6903 49.3762 61.6903 50.1385ZM67.2066 50.1385C67.2066 50.5043 67.0613 50.855 66.8026 51.1137C66.544 51.3723 66.1932 51.5176 65.8275 51.5176C65.4617 51.5176 65.111 51.3723 64.8523 51.1137C64.5937 50.855 64.4484 50.5043 64.4484 50.1385C64.4484 49.3762 65.8275 47.3794 65.8275 47.3794C65.8275 47.3794 67.2066 49.3762 67.2066 50.1385Z" fill="#B8ECFF" stroke="#45413C" stroke-linejoin="round"/>
<path d="M46.4145 24.133C46.8105 24.133 47.1075 24.3122 47.1075 24.727C47.1104 24.8102 47.0954 24.8929 47.0634 24.9697C47.0315 25.0465 46.9833 25.1154 46.9221 25.1718C46.861 25.2283 46.7884 25.2708 46.7094 25.2965C46.6303 25.3223 46.5466 25.3306 46.464 25.321H43.4811C43.0851 25.321 42.7881 25.1418 42.7881 24.727C42.8023 24.5561 42.875 24.3952 42.994 24.2716C43.7365 23.3806 44.5414 22.5807 45.2205 21.5986C45.4076 21.36 45.5171 21.0698 45.5343 20.767C45.5405 20.5897 45.4761 20.4173 45.3553 20.2874C45.2345 20.1575 45.0671 20.0807 44.8899 20.074C43.8612 20.074 44.3533 21.5224 43.4949 21.5224C43.408 21.5274 43.3209 21.514 43.2394 21.483C43.158 21.452 43.0841 21.4041 43.0224 21.3425C42.9608 21.2809 42.9129 21.2069 42.8819 21.1255C42.8509 21.0441 42.8375 20.957 42.8425 20.87C42.8613 20.3253 43.0908 19.8091 43.4827 19.4303C43.8746 19.0515 44.3983 18.8397 44.9433 18.8395C45.1972 18.8227 45.4519 18.8582 45.6915 18.9439C45.9311 19.0295 46.1506 19.1634 46.3363 19.3374C46.522 19.5113 46.67 19.7215 46.7712 19.955C46.8723 20.1885 46.9245 20.4403 46.9243 20.6948C46.9243 21.9382 45.5383 23.1698 44.778 24.1291L46.4145 24.133ZM47.7114 22.1303C47.7114 20.672 48.2747 18.8385 50.0814 18.8385C51.8882 18.8385 52.4515 20.672 52.4515 22.1303C52.4515 23.5885 51.8872 25.421 50.0814 25.421C48.2757 25.421 47.7114 23.5875 47.7114 22.1303ZM51.0566 22.1303C51.0566 21.4501 50.9932 20.0513 50.0814 20.0513C49.1696 20.0513 49.1063 21.4462 49.1063 22.1303C49.1063 22.7649 49.1686 24.2093 50.0814 24.2093C50.9942 24.2093 51.0566 22.7649 51.0566 22.1303Z" fill="#45413C"/>
<path d="M53.4149 15.6608C53.4149 15.9336 53.334 16.2002 53.1825 16.427C53.0309 16.6538 52.8155 16.8305 52.5636 16.9349C52.3116 17.0393 52.0343 17.0666 51.7668 17.0134C51.4993 16.9602 51.2535 16.8288 51.0607 16.636C50.8678 16.4431 50.7364 16.1974 50.6832 15.9299C50.63 15.6623 50.6573 15.3851 50.7617 15.1331C50.8661 14.8811 51.0429 14.6657 51.2696 14.5142C51.4964 14.3626 51.7631 14.2817 52.0358 14.2817C52.4016 14.2817 52.7523 14.427 53.011 14.6857C53.2696 14.9443 53.4149 15.2951 53.4149 15.6608Z" stroke="#45413C" stroke-miterlimit="10"/>
<path d="M46.4145 47.5777C46.8105 47.5777 47.1075 47.7559 47.1075 48.1717C47.1106 48.2549 47.0957 48.3377 47.0638 48.4146C47.0318 48.4914 46.9837 48.5604 46.9225 48.6169C46.8613 48.6733 46.7887 48.7159 46.7095 48.7416C46.6304 48.7672 46.5466 48.7755 46.464 48.7657H43.4811C43.0851 48.7657 42.7881 48.5875 42.7881 48.1717C42.8023 48.0007 42.875 47.8399 42.994 47.7163C43.7365 46.8302 44.5414 46.0264 45.2205 45.0433C45.4082 44.8054 45.5178 44.5153 45.5343 44.2127C45.5408 44.0353 45.4765 43.8627 45.3556 43.7327C45.2347 43.6028 45.0672 43.5261 44.8899 43.5197C43.8612 43.5197 44.3533 44.9681 43.4949 44.9681C43.408 44.9731 43.3209 44.9597 43.2394 44.9287C43.158 44.8976 43.0841 44.8498 43.0224 44.7882C42.9608 44.7265 42.9129 44.6526 42.8819 44.5711C42.8509 44.4897 42.8375 44.4026 42.8425 44.3156C42.8613 43.7709 43.0908 43.2548 43.4827 42.876C43.8746 42.4972 44.3983 42.2853 44.9433 42.2852C45.198 42.2676 45.4536 42.3027 45.6942 42.3884C45.9347 42.474 46.155 42.6082 46.3414 42.7828C46.5277 42.9573 46.6761 43.1684 46.7772 43.4028C46.8784 43.6373 46.9301 43.89 46.9293 44.1454C46.9293 45.3888 45.5433 46.6204 44.7829 47.5797L46.4145 47.5777ZM48.8736 43.6246H48.3459C48.2642 43.6292 48.1823 43.6163 48.1059 43.5868C48.0295 43.5573 47.9603 43.5118 47.9028 43.4535C47.8453 43.3951 47.8008 43.3252 47.7724 43.2484C47.7441 43.1716 47.7323 43.0896 47.7381 43.0079C47.735 42.9268 47.7485 42.8459 47.7778 42.7703C47.8071 42.6946 47.8516 42.6258 47.9086 42.568C47.9655 42.5102 48.0337 42.4647 48.109 42.4342C48.1842 42.4038 48.2648 42.3891 48.3459 42.3911H49.6151C49.6977 42.3882 49.7799 42.4029 49.8563 42.4343C49.9327 42.4657 50.0016 42.5129 50.0584 42.5729C50.1151 42.633 50.1584 42.7044 50.1854 42.7824C50.2125 42.8605 50.2226 42.9434 50.2151 43.0257V48.1182C50.2185 48.2085 50.2038 48.2985 50.1716 48.3829C50.1395 48.4673 50.0906 48.5444 50.028 48.6094C49.9654 48.6745 49.8903 48.7263 49.8071 48.7616C49.724 48.797 49.6347 48.8152 49.5443 48.8152C49.454 48.8152 49.3646 48.797 49.2815 48.7616C49.1984 48.7263 49.1233 48.6745 49.0607 48.6094C48.9981 48.5444 48.9492 48.4673 48.9171 48.3829C48.8849 48.2985 48.8702 48.2085 48.8736 48.1182V43.6246Z" fill="#45413C"/>
<path d="M53.4149 39.1091C53.4135 39.3816 53.3314 39.6475 53.1791 39.8734C53.0267 40.0993 52.8109 40.275 52.5588 40.3783C52.3066 40.4816 52.0296 40.5079 51.7625 40.4539C51.4955 40.3999 51.2504 40.2681 51.0582 40.0749C50.866 39.8818 50.7354 39.636 50.6827 39.3687C50.6301 39.1014 50.6578 38.8245 50.7624 38.5729C50.867 38.3213 51.0437 38.1063 51.2703 37.9551C51.497 37.8039 51.7633 37.7231 52.0358 37.7231C52.2175 37.7231 52.3974 37.759 52.5651 37.8288C52.7329 37.8985 52.8853 38.0007 53.0134 38.1295C53.1415 38.2583 53.243 38.4112 53.3119 38.5793C53.3808 38.7474 53.4158 38.9275 53.4149 39.1091Z" stroke="#45413C" stroke-miterlimit="10"/>
<path opacity="0.15" d="M9.80762 73.4682C9.80762 73.6938 10.104 73.9173 10.68 74.1258C11.2559 74.3344 12.1001 74.5238 13.1642 74.6834C14.2284 74.843 15.4918 74.9696 16.8822 75.056C18.2726 75.1423 19.7629 75.1868 21.2679 75.1868C22.7728 75.1868 24.2631 75.1423 25.6535 75.056C27.0439 74.9696 28.3073 74.843 29.3715 74.6834C30.4357 74.5238 31.2798 74.3344 31.8557 74.1258C32.4317 73.9173 32.7281 73.6938 32.7281 73.4682C32.7281 73.0123 31.5207 72.5752 29.3715 72.2529C27.2223 71.9306 24.3073 71.7495 21.2679 71.7495C18.2284 71.7495 15.3135 71.9306 13.1642 72.2529C11.015 72.5752 9.80762 73.0123 9.80762 73.4682Z" fill="#45413C"/>
<path d="M24.4546 43.0851V44.2671C24.4545 45.082 24.6149 45.889 24.9268 46.6419C25.2387 47.3948 25.6959 48.0788 26.2723 48.6549C26.8486 49.231 27.5329 49.6879 28.2859 49.9994C29.0389 50.3109 29.846 50.471 30.6609 50.4705C33.7467 50.4705 35.101 48.6023 37.2939 46.4115C37.6679 46.0207 37.8741 45.499 37.8682 44.9581C37.8623 44.4172 37.6448 43.9001 37.2623 43.5176C36.8798 43.1352 36.3627 42.9177 35.8218 42.9117C35.2809 42.9058 34.7592 43.112 34.3685 43.486C32.5924 45.2611 31.9925 46.3105 30.6599 46.3105C30.3889 46.3169 30.1193 46.2687 29.8673 46.1688C29.6152 46.0688 29.3859 45.9193 29.1928 45.7289C28.9998 45.5385 28.847 45.3113 28.7436 45.0607C28.6402 44.8101 28.5882 44.5412 28.5908 44.2701V43.088L24.4546 43.0851Z" fill="#BF8256" stroke="#45413C" stroke-miterlimit="10"/>
<path d="M35.5732 44.9462L48.2443 34.8096" stroke="#45413C" stroke-linecap="round" stroke-linejoin="round"/>
<path d="M13.4219 49.2891V49.3029L14.8009 72.0442H24.4544L25.8335 49.3029V49.2891H13.4219Z" fill="#00C9D4" stroke="#45413C" stroke-linecap="round" stroke-linejoin="round"/>
<path d="M19.627 72.0445V54.1245Z" fill="#00B8F0"/>
<path d="M19.627 72.0445V54.1245" stroke="#45413C" stroke-linecap="round" stroke-linejoin="round"/>
<path d="M19.627 69.2861H23.0751C26.454 69.2861 27.2331 72.7343 27.2331 72.7343H19.627V69.2861Z" fill="#FF6242" stroke="#45413C" stroke-linejoin="round"/>
<path d="M14.6265 69.2861H18.0746C21.4535 69.2861 22.2326 72.7343 22.2326 72.7343H15.7729C15.4689 72.734 15.1775 72.6132 14.9625 72.3982C14.7476 72.1833 14.6267 71.8919 14.6265 71.5879V69.2861Z" fill="#FF6242" stroke="#45413C" stroke-linejoin="round"/>
<path d="M9.28369 43.7729V54.1244C9.28369 54.6731 9.50168 55.1994 9.88972 55.5875C10.2777 55.9755 10.804 56.1935 11.3528 56.1935C11.9016 56.1935 12.4278 55.9755 12.8159 55.5875C13.2039 55.1994 13.4219 54.6731 13.4219 54.1244V43.7729H9.28369Z" fill="#BF8256" stroke="#45413C" stroke-miterlimit="10"/>
<path d="M13.4219 46.5303H25.8335V49.2894H13.4219V46.5303Z" fill="#A86C4D" stroke="#45413C" stroke-linecap="round" stroke-linejoin="round"/>
<path d="M28.5916 38.9457C28.6177 37.6617 28.3872 36.3853 27.9138 35.1915C27.4404 33.9976 26.7336 32.9102 25.8347 31.9929C24.9358 31.0756 23.8629 30.3469 22.6789 29.8494C21.4948 29.3519 20.2234 29.0957 18.9391 29.0957C17.6548 29.0957 16.3835 29.3519 15.1994 29.8494C14.0154 30.3469 12.9425 31.0756 12.0436 31.9929C11.1447 32.9102 10.4379 33.9976 9.96448 35.1915C9.49108 36.3853 9.26064 37.6617 9.28665 38.9457V43.7729H13.4288V49.2892H25.8335V43.7729H28.5916V38.9457Z" fill="#F8F8F8"/>
<path d="M18.9381 29.291C21.4985 29.2913 23.9539 30.3086 25.7642 32.1191C27.5746 33.9296 28.5916 36.3851 28.5916 38.9455V42.3927C28.5405 39.8665 27.501 37.4611 25.6964 35.6927C23.8918 33.9242 21.4658 32.9337 18.9391 32.9337C16.4125 32.9337 13.9865 33.9242 12.1819 35.6927C10.3772 37.4611 9.33779 39.8665 9.28662 42.3927V38.9455C9.28662 36.3855 10.3034 33.9303 12.1133 32.1198C13.9232 30.3093 16.3781 29.2918 18.9381 29.291Z" fill="white"/>
<path d="M13.4219 47.2202H13.4248V49.2893H13.4219V47.2202Z" fill="#F8F8F8"/>
<path d="M28.5916 38.9457C28.6177 37.6617 28.3872 36.3853 27.9138 35.1915C27.4404 33.9976 26.7336 32.9102 25.8347 31.9929C24.9358 31.0756 23.8629 30.3469 22.6789 29.8494C21.4948 29.3519 20.2234 29.0957 18.9391 29.0957C17.6548 29.0957 16.3835 29.3519 15.1994 29.8494C14.0154 30.3469 12.9425 31.0756 12.0436 31.9929C11.1447 32.9102 10.4379 33.9976 9.96448 35.1915C9.49108 36.3853 9.26064 37.6617 9.28665 38.9457V43.7729H13.4288V49.2892H25.8335V43.7729H28.5916V38.9457Z" stroke="#45413C" stroke-linecap="round" stroke-linejoin="round"/>
<path d="M13.1636 35.6611L14.5327 30.3537C15.2718 29.9737 16.0572 29.6918 16.8691 29.5151V30.6437L18.1472 35.765C16.5494 33.0385 14.6902 34.582 13.1636 35.6611ZM25.003 31.4397C24.2149 30.8045 23.3315 30.2976 22.3854 29.9379V30.6437L21.1073 35.765C22.7052 33.0385 24.5654 34.577 26.092 35.6611L25.003 31.4397Z" fill="white" stroke="#45413C" stroke-linecap="round" stroke-linejoin="round"/>
<path d="M25.8335 43.7728C25.8327 42.9164 26.098 42.0809 26.5928 41.3819C27.0132 40.7041 27.2284 39.9192 27.2126 39.1218M13.4219 45.8409V39.6346M19.6272 36.8774V49.2891" stroke="#45413C" stroke-linecap="round" stroke-linejoin="round"/>
<path d="M22.3855 29.9269C22.2201 29.8637 22.0779 29.7518 21.9777 29.6059C21.8775 29.46 21.8239 29.2872 21.8241 29.1102V22.5762H17.3068V28.9666C17.3068 29.0944 17.2631 29.2184 17.183 29.318C17.1028 29.4176 16.9911 29.4868 16.8662 29.5141V30.6427L18.0433 35.3571C18.1292 35.7125 18.332 36.0287 18.6193 36.2549C18.9067 36.4811 19.2617 36.6041 19.6273 36.6041C19.993 36.6041 20.348 36.4811 20.6353 36.2549C20.9226 36.0287 21.1255 35.7125 21.2113 35.3571L22.3874 30.6427L22.3855 29.9269Z" fill="#BF8256" stroke="#45413C" stroke-linecap="round" stroke-linejoin="round"/>
<path d="M10.4412 15.5017C11.4104 16.0104 12.5421 16.1133 13.5872 15.7876C14.1046 15.6264 14.5853 15.3648 15.0017 15.0178C15.418 14.6708 15.762 14.2452 16.0139 13.7652C16.2658 13.2853 16.4207 12.7605 16.4697 12.2207C16.5188 11.6809 16.4611 11.1367 16.2998 10.6192C16.1386 10.1018 15.877 9.62112 15.53 9.20474C15.183 8.78836 14.7574 8.44441 14.2774 8.19252C13.3082 7.6838 12.1765 7.58095 11.1314 7.9066C10.0864 8.23225 9.21344 8.95972 8.70473 9.92898C8.19601 10.8982 8.09316 12.0299 8.41881 13.075C8.74446 14.1201 9.47193 14.993 10.4412 15.5017Z" fill="#614B44" stroke="#45413C" stroke-linecap="round" stroke-linejoin="round"/>
<path d="M10.5903 18.3328C10.5903 20.5223 11.4601 22.6221 13.0083 24.1704C14.5566 25.7186 16.6564 26.5884 18.8459 26.5884C21.0355 26.5884 23.1353 25.7186 24.6835 24.1704C26.2318 22.6221 27.1016 20.5223 27.1016 18.3328C27.1016 16.1432 26.2318 14.0434 24.6835 12.4952C23.1353 10.9469 21.0355 10.0771 18.8459 10.0771C16.6564 10.0771 14.5566 10.9469 13.0083 12.4952C11.4601 14.0434 10.5903 16.1432 10.5903 18.3328Z" fill="#614B44"/>
<path d="M11.4291 20.398C11.4294 18.5779 12.0311 16.8089 13.1406 15.3661C14.2501 13.9233 15.8052 12.8876 17.5641 12.4199C19.3231 11.9522 21.1873 12.0788 22.8668 12.7801C24.5464 13.4813 25.9472 14.7178 26.8514 16.2974C26.5598 15.1564 26.0275 14.091 25.2903 13.1726C24.553 12.2543 23.6279 11.5043 22.5769 10.973C21.5259 10.4417 20.3734 10.1414 19.1968 10.0922C18.0201 10.043 16.8466 10.246 15.7549 10.6878C14.6633 11.1295 13.6787 11.7996 12.8674 12.6532C12.056 13.5068 11.4367 14.524 11.0509 15.6367C10.665 16.7493 10.5217 17.9317 10.6305 19.1043C10.7393 20.2769 11.0977 21.4127 11.6816 22.4354C11.5136 21.7693 11.4288 21.0849 11.4291 20.398Z" fill="#A86C4D"/>
<path d="M10.5903 18.3328C10.5903 20.5223 11.4601 22.6221 13.0083 24.1704C14.5566 25.7186 16.6564 26.5884 18.8459 26.5884C21.0355 26.5884 23.1353 25.7186 24.6835 24.1704C26.2318 22.6221 27.1016 20.5223 27.1016 18.3328C27.1016 16.1432 26.2318 14.0434 24.6835 12.4952C23.1353 10.9469 21.0355 10.0771 18.8459 10.0771C16.6564 10.0771 14.5566 10.9469 13.0083 12.4952C11.4601 14.0434 10.5903 16.1432 10.5903 18.3328Z" stroke="#45413C" stroke-linecap="round" stroke-linejoin="round"/>
<path d="M24.1523 27.0312V29.5398C24.1523 31.898 27.1016 33.6671 27.1016 33.6671V21.2822C27.1026 22.406 26.8356 23.5138 26.3227 24.5136C25.8098 25.5135 25.0657 26.3765 24.1523 27.0312Z" fill="#614B44" stroke="#45413C" stroke-linecap="round" stroke-linejoin="round"/>
<path d="M24.1526 16.564C22.8923 16.564 22.4696 17.158 21.7944 17.158C20.6326 16.8664 19.4494 16.6678 18.2561 16.564C17.2424 16.564 16.2296 17.7252 15.5485 18.7172C15.2605 19.1423 14.8733 19.4906 14.4202 19.7322C13.9672 19.9737 13.4621 20.1011 12.9487 20.1032V22.6841C12.9973 22.7015 13.0469 22.7161 13.0972 22.7277C13.4542 24.4425 14.4343 25.9639 15.8482 26.9978C17.262 28.0317 19.009 28.5045 20.7513 28.3248C22.4935 28.1451 24.1073 27.3256 25.2803 26.025C26.4533 24.7243 27.1023 23.0348 27.1018 21.2833V18.9231C27.1018 18.9231 25.4138 16.564 24.1526 16.564Z" fill="#BF8256" stroke="#45413C" stroke-linecap="round" stroke-linejoin="round"/>
<path d="M19.4351 24.2842C19.9588 24.6338 20.5745 24.8203 21.2042 24.8203C21.8339 24.8203 22.4495 24.6338 22.9733 24.2842" stroke="#45413C" stroke-linecap="round" stroke-linejoin="round"/>
<path d="M15.8977 18.9229H20.025C20.025 18.9229 20.615 18.9229 20.615 19.5129V21.8711C20.615 21.8711 20.615 22.4611 20.025 22.4611H15.8977C15.8977 22.4611 15.3076 22.4611 15.3076 21.8711V19.5129C15.3076 19.5129 15.3076 18.9229 15.8977 18.9229Z" fill="#00B8F0"/>
<path d="M15.8967 18.9229C15.74 18.9242 15.5902 18.9873 15.4798 19.0986C15.3695 19.2098 15.3076 19.3602 15.3076 19.5169V21.875C15.3075 21.9149 15.3115 21.9547 15.3195 21.9938C15.3195 22.0136 15.3284 22.0324 15.3334 22.0503C15.3621 22.1414 15.4123 22.2243 15.4799 22.2918C15.5345 22.3467 15.5995 22.3903 15.671 22.42C15.7425 22.4498 15.8192 22.4651 15.8967 22.4651H16.4907L20.0289 18.9268L15.8967 18.9229Z" fill="#4ACFFF"/>
<path d="M23.5637 18.9229H27.691C27.691 18.9229 28.281 18.9229 28.281 19.5129V21.8711C28.281 21.8711 28.281 22.4611 27.691 22.4611H23.5637C23.5637 22.4611 22.9736 22.4611 22.9736 21.8711V19.5129C22.9736 19.5129 22.9736 18.9229 23.5637 18.9229Z" fill="#00B8F0"/>
<path d="M15.8977 18.9229H20.025C20.025 18.9229 20.615 18.9229 20.615 19.5129V21.8711C20.615 21.8711 20.615 22.4611 20.025 22.4611H15.8977C15.8977 22.4611 15.3076 22.4611 15.3076 21.8711V19.5129C15.3076 19.5129 15.3076 18.9229 15.8977 18.9229Z" stroke="#45413C" stroke-linecap="round" stroke-linejoin="round"/>
<path d="M23.5632 18.9229C23.4057 18.9229 23.2546 18.9854 23.1432 19.0968C23.0318 19.2082 22.9692 19.3593 22.9692 19.5169V21.875C22.9691 21.9149 22.9731 21.9547 22.9811 21.9938C22.9849 22.0129 22.9899 22.0318 22.996 22.0503C23.024 22.1417 23.0744 22.2247 23.1425 22.2918C23.197 22.3469 23.262 22.3905 23.3335 22.4203C23.4051 22.45 23.4818 22.4652 23.5593 22.4651H24.1533L27.6915 18.9268L23.5632 18.9229Z" fill="#4ACFFF"/>
<path d="M20.6143 20.1021H22.9734" stroke="#45413C" stroke-linecap="round" stroke-linejoin="round"/>
<path d="M23.5637 18.9229H27.691C27.691 18.9229 28.281 18.9229 28.281 19.5129V21.8711C28.281 21.8711 28.281 22.4611 27.691 22.4611H23.5637C23.5637 22.4611 22.9736 22.4611 22.9736 21.8711V19.5129C22.9736 19.5129 22.9736 18.9229 23.5637 18.9229Z" stroke="#45413C" stroke-linecap="round" stroke-linejoin="round"/>
<path d="M14.7179 18.3329H13.5388C13.3304 18.3339 13.1254 18.2796 12.9448 18.1755V29.5377C12.9448 31.8959 15.893 33.665 15.893 33.665V17.1538C15.893 17.4658 15.7694 17.7651 15.5491 17.9862C15.3288 18.2072 15.0299 18.3319 14.7179 18.3329Z" fill="#614B44" stroke="#45413C" stroke-linecap="round" stroke-linejoin="round"/>
<path d="M13.5385 15.9746H14.7176C15.0303 15.9746 15.3302 16.0988 15.5513 16.32C15.7724 16.5411 15.8967 16.841 15.8967 17.1537C15.8967 17.4664 15.7724 17.7663 15.5513 17.9874C15.3302 18.2086 15.0303 18.3328 14.7176 18.3328H13.5385C13.2257 18.3328 12.9257 18.2086 12.7044 17.9875C12.4831 17.7664 12.3587 17.4665 12.3584 17.1537C12.3587 16.8409 12.4831 16.541 12.7044 16.3199C12.9257 16.0988 13.2257 15.9746 13.5385 15.9746Z" fill="#FFE500" stroke="#45413C" stroke-linecap="round" stroke-linejoin="round"/>
</svg>
