<svg width="128" height="128" fill="none" xmlns="http://www.w3.org/2000/svg">
  <path d="M50.3803 113.355c13.0898 3.612 27.0785 1.877 38.8886-4.825a51.1998 51.1998 0 0 0 24.0861-30.9105c3.612-13.0898 1.877-27.0784-4.825-38.8885a51.2 51.2 0 0 0-69.7988-19.2612 51.1994 51.1994 0 0 0-24.0864 30.9103A51.2 51.2 0 0 0 19.47 89.2687a51.1985 51.1985 0 0 0 30.9103 24.0863Z" fill="#C7F0FF"/>
  <path d="M23.5265 95.3599h80.9475a51.1995 51.1995 0 0 0 6.181-10.24H17.3428a51.1732 51.1732 0 0 0 6.1837 10.24Z" fill="#ADC4D9"/>
  <path d="M23.5264 95.3599a51.1976 51.1976 0 0 0 17.9357 14.6141A51.1905 51.1905 0 0 0 64 115.202c7.813 0 15.5224-1.788 22.5378-5.228a51.202 51.202 0 0 0 17.9362-14.6141H23.5264Z" fill="#CCF7AD"/>
  <path d="M14.08 85.1199h99.84M8.32 85.1199h3.1999M116.48 85.1199h3.2" stroke="#45413C" stroke-linecap="round" stroke-linejoin="round"/>
  <path d="M38.601 89.5999h9.1596M33.257 89.5999h2.2899M29.4399 89.5999h.7629M86.1991 91.52h9.161M80.8563 91.52h2.2899M77.0393 91.52h.7629" stroke="#C0DCEB" stroke-linecap="round"/>
  <path d="M21.0164 95.3599h85.9676" stroke="#45413C" stroke-linecap="round" stroke-linejoin="round"/>
  <path d="M114.56 43.4445H87.0004v-4.4992a1.2797 1.2797 0 0 1 1.28-1.28H113.28a1.2802 1.2802 0 0 1 1.28 1.28v4.4992Z" fill="#6DD627" stroke="#45413C" stroke-linecap="round" stroke-linejoin="round"/>
  <path d="M107.448 85.2299H73.6653V44.9278a1.481 1.481 0 0 1 1.4809-1.4822H114.51a1.484 1.484 0 0 1 .639.1442c.199.0952.375.2337.514.4056.139.1718.237.3725.289.5875.051.2149.053.4386.007.6547l-8.511 39.9923Z" fill="#E8F4FA"/>
  <path d="M112.746 60.3364H73.6653v24.8935h33.7827l5.298-24.8935Z" fill="#ADC4D9"/>
  <path d="M107.448 85.2299H73.6653V44.9278a1.481 1.481 0 0 1 1.4809-1.4822H114.51a1.484 1.484 0 0 1 .639.1442c.199.0952.375.2337.514.4056.139.1718.237.3725.289.5875.051.2149.053.4386.007.6547l-8.511 39.9923Z" stroke="#45413C" stroke-linecap="round" stroke-linejoin="round"/>
  <path d="M73.6653 71.0054h36.8117l3.593-16.8921H73.6653v16.8921Z" fill="#00B8F0"/>
  <path d="M109.796 54.1133H73.6653v16.8921h19.2384l16.8923-16.8921Z" fill="#4ACFFF"/>
  <path d="M73.6653 71.0054h36.8117l3.593-16.8921H73.6653v16.8921Z" stroke="#45413C" stroke-linecap="round" stroke-linejoin="round"/>
  <path d="m54.9951 49.6638-2.3692-8.6874a1.4811 1.4811 0 0 0-1.426-1.088h-35.328l2.6676 45.3415h81.7915l-7.7397-34.4064a1.4832 1.4832 0 0 0-1.4464-1.152l-36.1498-.0077Z" fill="#FFF5E3"/>
  <path d="M92.5964 50.8235a1.483 1.483 0 0 0-1.4464-1.152H54.9951l-2.3692-8.6874a1.4811 1.4811 0 0 0-1.426-1.0957h-35.328l.6976 11.8541h76.2304l-.2035-.919ZM39.881 71.0054H17.7075l.3047 5.1865h23.1654l-1.2966-5.1865Z" fill="#F7E5C6"/>
  <path d="m54.9951 49.6638-2.3692-8.6874a1.4841 1.4841 0 0 0-1.426-1.088h-35.328l2.6676 45.3415h81.7915l-7.7359-34.4064a1.481 1.481 0 0 0-1.4451-1.152l-36.1549-.0077Z" stroke="#45413C" stroke-linecap="round" stroke-linejoin="round"/>
  <path d="M22.1005 75.4507h4.4454v6.2233h-4.4454v-6.2233ZM30.9913 75.4507h4.4455v6.2233h-4.4455v-6.2233Z" fill="#FFE500" stroke="#45413C" stroke-linecap="round" stroke-linejoin="round"/>
  <path d="M43.4368 58.5586h48.0089V85.23H43.4368V58.5586Z" fill="#00B8F0"/>
  <path d="M80.119 58.5586H43.4368V85.23h10.0121L80.119 58.5586Z" fill="#4ACFFF"/>
  <path d="M43.4368 58.5586h48.0089V85.23H43.4368V58.5586Z" stroke="#45413C" stroke-linecap="round" stroke-linejoin="round"/>
  <path d="M13.9994 39.8884a1.4817 1.4817 0 0 0-1.4159 1.0434 1.4796 1.4796 0 0 0-.0548.6206l.512 4.1485a1.482 1.482 0 0 0 1.4707 1.2979h31.593l2.6675 11.5584H82.56l6.2234 26.6714h11.5576l-7.7458-34.4051a1.4804 1.4804 0 0 0-1.4451-1.152H54.9952l-2.3692-8.6874a1.4837 1.4837 0 0 0-1.426-1.0957H13.9994Z" fill="#E8F4FA"/>
  <path d="m100.337 85.23-6.6845-29.705a1.6058 1.6058 0 0 0-1.3184-.6707H54.8506a1.484 1.484 0 0 1-1.4234-1.0675l-2.2182-7.6212a1.5682 1.5682 0 0 0-1.5258-1.0918H12.969l.0781.6285a1.482 1.482 0 0 0 1.4707 1.2979h31.5866l2.6675 11.5584H82.56L88.7834 85.23h11.5536Z" fill="#ADC4D9"/>
  <path d="M13.9994 39.8884a1.4817 1.4817 0 0 0-1.4159 1.0434 1.4796 1.4796 0 0 0-.0548.6206l.512 4.1485a1.482 1.482 0 0 0 1.4707 1.2979h31.593l2.6675 11.5584H82.56l6.2234 26.6714h11.5576l-7.7458-34.4051a1.4804 1.4804 0 0 0-1.4451-1.152H54.9952l-2.3692-8.6874a1.4837 1.4837 0 0 0-1.426-1.0957H13.9994Z" stroke="#45413C" stroke-linecap="round" stroke-linejoin="round"/>
  <path d="M68.8294 63.0027H43.4368v22.2272h26.6726V64.2827a1.2797 1.2797 0 0 0-1.28-1.28Z" fill="#009FD9"/>
  <path d="M43.4368 66.5598h26.6713v18.6701H43.4368V66.5598Z" fill="#00B8F0"/>
  <path d="M68.8294 63.0027H43.4368v22.2272h26.6726V64.2827a1.2797 1.2797 0 0 0-1.28-1.28Z" stroke="#45413C" stroke-linecap="round" stroke-linejoin="round"/>
  <path d="M58.551 78.1171h-5.3337v-9.1392a.6402.6402 0 0 1 .64-.64h4.6937v9.7792ZM63.8848 78.1171H58.551v-9.7792h4.6938a.64.64 0 0 1 .64.64v9.1392Z" fill="#B8ECFF" stroke="#45413C" stroke-linecap="round" stroke-linejoin="round"/>
  <path d="M71.8861 81.6741H46.9939v-3.5572h24.2522a.64.64 0 0 1 .64.64v2.9172ZM46.9939 85.2299h26.6714v-2.9158a.6401.6401 0 0 0-.64-.64H46.9939v3.5558Z" fill="#E0E0E0" stroke="#45413C" stroke-linecap="round" stroke-linejoin="round"/>
  <path d="M14.2079 60.1445a1.481 1.481 0 0 1 .8872-1.4633 1.4807 1.4807 0 0 1 .5912-.1226h27.7504l7.113 26.6714h-7.113l-3.5558-14.2247H16.3673a1.4833 1.4833 0 0 1-1.4784-1.3734l-.681-9.4874Z" fill="#FF6242" stroke="#45413C" stroke-linecap="round" stroke-linejoin="round"/>
  <path d="M70.1094 67.4482h14.5203M70.1094 76.3391h16.5952M77.2211 58.5586V85.23M64.7744 58.5586v4.4442M53.2173 58.5586v4.4442M95.8912 63.0027h16.0028M100.337 54.1133v16.8921M107.448 54.1133v16.8921" stroke="#45413C" stroke-linecap="round" stroke-linejoin="round"/>
  <path d="M90.4089 29.5154a10.3722 10.3722 0 0 0 6.4027 9.5823 10.3711 10.3711 0 0 0 7.9384 0 10.3687 10.3687 0 0 0 5.613-5.6132c.521-1.2583.79-2.6071.79-3.9691a10.3761 10.3761 0 0 0-3.038-7.334 10.3747 10.3747 0 0 0-3.365-2.2483 10.3711 10.3711 0 0 0-11.3032 2.2483 10.373 10.373 0 0 0-3.0379 7.334Z" fill="#F0F0F0"/>
  <path d="M100.781 22.7737c2.435.001 4.792.859 6.657 2.4235a10.3655 10.3655 0 0 1 3.547 6.1333 10.3786 10.3786 0 0 0-.181-4.4941 10.3753 10.3753 0 0 0-2.067-3.9946 10.375 10.375 0 0 0-3.565-2.7432 10.368 10.368 0 0 0-14.5941 11.2319 10.3678 10.3678 0 0 1 10.2031-8.5568Z" fill="#fff"/>
  <path d="M90.4089 29.5154a10.3722 10.3722 0 0 0 6.4027 9.5823 10.3711 10.3711 0 0 0 7.9384 0 10.3687 10.3687 0 0 0 5.613-5.6132c.521-1.2583.79-2.6071.79-3.9691a10.3761 10.3761 0 0 0-3.038-7.334 10.3747 10.3747 0 0 0-3.365-2.2483 10.3711 10.3711 0 0 0-11.3032 2.2483 10.373 10.373 0 0 0-3.0379 7.334v0Z" stroke="#45413C" stroke-linecap="round" stroke-linejoin="round"/>
  <path d="M95.7249 26.9873h7.5851v2.7315c0 .3929-.157.7696-.434 1.0473a1.483 1.483 0 0 1-1.048.4337h-3.4139a1.4809 1.4809 0 0 1-1.376-.9306l-1.3132-3.2819Z" fill="#FFE500" stroke="#45413C" stroke-linecap="round" stroke-linejoin="round"/>
  <path d="M103.31 26.9875v-1.0458c0-.3929.156-.7697.434-1.0476.277-.278.654-.4343 1.047-.4346h1.047" stroke="#45413C" stroke-linecap="round" stroke-linejoin="round"/>
  <path d="M98.2528 32.8857a.8434.8434 0 0 0-.8273 1.0081.8432.8432 0 0 0 .6628.6628.844.844 0 0 0 .8659-.3587.8433.8433 0 0 0-.1049-1.0651.8432.8432 0 0 0-.5965-.2471ZM102.467 32.8857a.845.845 0 0 0-.78.5208.8466.8466 0 0 0-.048.4873c.033.1637.113.314.231.4319a.8427.8427 0 0 0 .919.1829.8423.8423 0 0 0 .521-.7793.8434.8434 0 0 0-.843-.8436Z" fill="#45413C"/>
  <path d="M36.3098 89.3952a2.0733 2.0733 0 0 0-2.3308-.977 2.0733 2.0733 0 0 0-1.5438 2.001 1.985 1.985 0 0 0 .0627.503 2.0737 2.0737 0 0 0 4.0243 0 1.9844 1.9844 0 0 0 .0615-.503 2.0385 2.0385 0 0 0-.2739-1.024v0ZM26.4704 90.4217a2.0722 2.0722 0 0 0-3.8733-1.024 2.048 2.048 0 0 0-.2125 1.5296 2.0732 2.0732 0 0 0 2.0122 1.5726 2.0733 2.0733 0 0 0 2.0121-1.5726 1.986 1.986 0 0 0 .0615-.5056v0Z" fill="#8CA4B8" stroke="#45413C" stroke-linecap="round" stroke-linejoin="round"/>
  <path d="M38.656 87.0463a1.8957 1.8957 0 0 0-1.5245-1.8586l-1.0688-.2112-.3162-.896a4.1137 4.1137 0 0 0-3.8745-2.7341h-4.3021a2.9634 2.9634 0 0 0-2.8979 2.3437l-.2752 1.2864-2.8992.7258a1.6516 1.6516 0 0 0-.9004.5863 1.6519 1.6519 0 0 0-.3489 1.0162v.5991a1.4808 1.4808 0 0 0 1.481 1.4809h.8524l.0154.0103a2.0724 2.0724 0 0 1 3.8733 1.024 1.9844 1.9844 0 0 1-.0615.503h6.089a1.985 1.985 0 0 1-.0627-.503 2.0733 2.0733 0 0 1 1.5437-2.001 2.0735 2.0735 0 0 1 2.3308.977l.0154-.0103h.8512a1.481 1.481 0 0 0 1.4797-1.4809v-.8576Z" fill="#6DD627" stroke="#45413C" stroke-linecap="round" stroke-linejoin="round"/>
  <path d="M27.7671 84.7922h3.8528" stroke="#45413C" stroke-linecap="round" stroke-linejoin="round"/>
  <path d="M97.0612 89.8393a2.0727 2.0727 0 0 0-2.3307-.9782 2.072 2.072 0 0 0-1.5426 2.0023 1.9991 1.9991 0 0 0 .0627.503 2.0732 2.0732 0 0 0 3.2874 1.131 2.073 2.073 0 0 0 .7356-1.131 1.9946 1.9946 0 0 0 .0627-.503 2.0405 2.0405 0 0 0-.2751-1.0241v0ZM87.2231 90.867a2.0723 2.0723 0 0 0-3.8733-1.024 2.0402 2.0402 0 0 0-.2752 1.024 1.9994 1.9994 0 0 0 .0627.5031 2.0738 2.0738 0 0 0 3.2874 1.131 2.0744 2.0744 0 0 0 .7357-1.131 2.004 2.004 0 0 0 .0627-.5031v0Z" fill="#8CA4B8" stroke="#45413C" stroke-linecap="round" stroke-linejoin="round"/>
  <path d="M99.4112 87.4892a1.8932 1.8932 0 0 0-1.5194-1.8573l-1.0739-.2137-.3162-.896a4.1289 4.1289 0 0 0-3.8899-2.7392h-5.28a1.7355 1.7355 0 0 0-1.6998 1.3824l-.4839 2.2553-2.8979.7271a1.6524 1.6524 0 0 0-1.2506 1.6025v.5978a1.4824 1.4824 0 0 0 1.4823 1.4809h.8461l.0166.0103a2.0724 2.0724 0 0 1 3.8733 1.024 2.0032 2.0032 0 0 1-.0627.503h6.0902a1.9986 1.9986 0 0 1-.0627-.503 2.0721 2.0721 0 0 1 2.8744-1.9096c.4215.1769.7727.4883.9989.8856l.0166-.0103h.8512a1.482 1.482 0 0 0 1.4822-1.4809l.0052-.8589Z" fill="#FFE500" stroke="#45413C" stroke-linecap="round" stroke-linejoin="round"/>
  <path d="M88.5197 85.2363h3.8528" stroke="#45413C" stroke-linecap="round" stroke-linejoin="round"/>
  <rect x="18" y="52" width="49" height="18" rx="3" fill="#242424"/>
  <circle cx="22" cy="55" r="1" fill="#FFE500"/>
  <circle cx="25" cy="55" r="1" fill="#FFE500"/>
  <circle cx="28" cy="55" r="1" fill="#FFE500"/>
  <circle cx="25" cy="58" r="1" fill="#FFE500"/>
  <circle cx="25" cy="61" r="1" fill="#FFE500"/>
  <circle cx="25" cy="64" r="1" fill="#FFE500"/>
  <circle cx="33" cy="55" r="1" fill="#FFE500"/>
  <circle cx="33" cy="58" r="1" fill="#FFE500"/>
  <circle cx="33" cy="61" r="1" fill="#FFE500"/>
  <circle cx="33" cy="64" r="1" fill="#FFE500"/>
  <circle cx="36" cy="55" r="1" fill="#FFE500"/>
  <circle cx="39" cy="55" r="1" fill="#FFE500"/>
  <circle cx="36" cy="61" r="1" fill="#FFE500"/>
  <circle cx="33" cy="67" r="1" fill="#FFE500"/>
  <circle cx="36" cy="67" r="1" fill="#FFE500"/>
  <circle cx="39" cy="67" r="1" fill="#FFE500"/>
  <circle cx="25" cy="67" r="1" fill="#FFE500"/>
  <circle cx="44" cy="55" r="1" fill="#FFE500"/>
  <circle cx="47" cy="55" r="1" fill="#FFE500"/>
  <circle cx="50" cy="55" r="1" fill="#FFE500"/>
  <circle cx="55" cy="55" r="1" fill="#FFE500"/>
  <circle cx="55" cy="58" r="1" fill="#FFE500"/>
  <circle cx="55" cy="61" r="1" fill="#FFE500"/>
  <circle cx="55" cy="64" r="1" fill="#FFE500"/>
  <circle cx="55" cy="67" r="1" fill="#FFE500"/>
  <circle cx="58" cy="61" r="1" fill="#FFE500"/>
  <circle cx="61" cy="61" r="1" fill="#FFE500"/>
  <circle cx="61" cy="58" r="1" fill="#FFE500"/>
  <circle cx="61" cy="55" r="1" fill="#FFE500"/>
  <circle cx="61" cy="64" r="1" fill="#FFE500"/>
  <circle cx="61" cy="67" r="1" fill="#FFE500"/>
  <circle cx="44" cy="58" r="1" fill="#FFE500"/>
  <circle cx="44" cy="61" r="1" fill="#FFE500"/>
  <circle cx="44" cy="64" r="1" fill="#FFE500"/>
  <circle cx="44" cy="67" r="1" fill="#FFE500"/>
  <circle cx="47" cy="67" r="1" fill="#FFE500"/>
  <circle cx="50" cy="67" r="1" fill="#FFE500"/>
</svg>
