<svg width="160" height="160" viewBox="0 0 160 160" fill="none" xmlns="http://www.w3.org/2000/svg">
<path d="M11.8672 80.0005C11.8672 96.9743 18.61 113.253 30.6124 125.255C42.6147 137.258 58.8933 144 75.8672 144C92.8411 144 109.12 137.258 121.122 125.255C133.124 113.253 139.867 96.9743 139.867 80.0005C139.867 63.0266 133.124 46.748 121.122 34.7457C109.12 22.7433 92.8411 16.0005 75.8672 16.0005C58.8933 16.0005 42.6147 22.7433 30.6124 34.7457C18.61 46.748 11.8672 63.0266 11.8672 80.0005V80.0005Z" fill="#C7F0FF"/>
<path d="M116.786 108.034H26.586C25.3697 108.034 24.2032 107.551 23.3432 106.69C22.4832 105.83 22 104.664 22 103.448V40.7822H121.372V103.448C121.372 104.664 120.889 105.83 120.029 106.69C119.169 107.551 118.003 108.034 116.786 108.034V108.034Z" fill="#4ACFFF"/>
<path d="M34.2342 108.034L101.498 40.7705H22.0073V103.436C22.0073 104.652 22.4905 105.819 23.3505 106.679C24.2106 107.539 25.377 108.022 26.5933 108.022L34.2342 108.034Z" fill="#00B8F0"/>
<path d="M121.372 31.586C121.372 30.9837 121.254 30.3874 121.023 29.831C120.793 29.2746 120.455 28.7691 120.029 28.3432C119.603 27.9174 119.098 27.5796 118.541 27.3491C117.985 27.1186 117.389 27 116.786 27H26.5862C25.3711 27.0019 24.2065 27.4859 23.348 28.3457C22.4895 29.2055 22.0073 30.3709 22.0073 31.586V40.7579H121.372V31.586Z" fill="white"/>
<path d="M26.5933 33.8906C26.5933 34.4988 26.8348 35.082 27.2649 35.512C27.6949 35.942 28.2781 36.1836 28.8862 36.1836C29.4944 36.1836 30.0776 35.942 30.5076 35.512C30.9377 35.082 31.1792 34.4988 31.1792 33.8906C31.1792 33.2825 30.9377 32.6993 30.5076 32.2693C30.0776 31.8392 29.4944 31.5977 28.8862 31.5977C28.2781 31.5977 27.6949 31.8392 27.2649 32.2693C26.8348 32.6993 26.5933 33.2825 26.5933 33.8906V33.8906Z" fill="#FF6242"/>
<path d="M34.2373 33.8906C34.2373 34.4988 34.4789 35.082 34.9089 35.512C35.3389 35.942 35.9222 36.1836 36.5303 36.1836C37.1384 36.1836 37.7217 35.942 38.1517 35.512C38.5817 35.082 38.8233 34.4988 38.8233 33.8906C38.8233 33.2825 38.5817 32.6993 38.1517 32.2693C37.7217 31.8392 37.1384 31.5977 36.5303 31.5977C35.9222 31.5977 35.3389 31.8392 34.9089 32.2693C34.4789 32.6993 34.2373 33.2825 34.2373 33.8906V33.8906Z" fill="#FFE500"/>
<path d="M41.8804 33.8906C41.8804 34.4988 42.122 35.082 42.552 35.512C42.982 35.942 43.5652 36.1836 44.1734 36.1836C44.7815 36.1836 45.3647 35.942 45.7947 35.512C46.2248 35.082 46.4663 34.4988 46.4663 33.8906C46.4663 33.2825 46.2248 32.6993 45.7947 32.2693C45.3647 31.8392 44.7815 31.5977 44.1734 31.5977C43.5652 31.5977 42.982 31.8392 42.552 32.2693C42.122 32.6993 41.8804 33.2825 41.8804 33.8906Z" fill="#6DD627"/>
<path d="M116.786 108.034H26.586C25.3697 108.034 24.2032 107.551 23.3432 106.69C22.4832 105.83 22 104.664 22 103.448V40.7822H121.372V103.448C121.372 104.664 120.889 105.83 120.029 106.69C119.169 107.551 118.003 108.034 116.786 108.034V108.034Z" stroke="#45413C" stroke-width="1.5" stroke-linecap="round" stroke-linejoin="round"/>
<path d="M121.372 31.586C121.372 30.9837 121.254 30.3874 121.023 29.831C120.793 29.2746 120.455 28.7691 120.029 28.3432C119.603 27.9174 119.098 27.5796 118.541 27.3491C117.985 27.1186 117.389 27 116.786 27H26.5862C25.3711 27.0019 24.2065 27.4859 23.348 28.3457C22.4895 29.2055 22.0073 30.3709 22.0073 31.586V40.7579H121.372V31.586Z" stroke="#45413C" stroke-width="1.5" stroke-linecap="round" stroke-linejoin="round"/>
<path d="M131.016 126.771H40.816C39.5997 126.771 38.4332 126.288 37.5732 125.428C36.7131 124.568 36.23 123.402 36.23 122.185V59.52H135.602V122.185C135.602 123.402 135.119 124.568 134.259 125.428C133.399 126.288 132.233 126.771 131.016 126.771V126.771Z" fill="#4ACFFF"/>
<path d="M48.4595 126.772L115.73 59.5088H36.2373V122.174C36.2358 122.777 36.3532 123.375 36.583 123.933C36.8128 124.491 37.1503 124.998 37.5763 125.425C38.0023 125.852 38.5084 126.191 39.0656 126.422C39.6227 126.653 40.2201 126.772 40.8233 126.772H48.4595Z" fill="#00B8F0"/>
<path d="M135.602 50.3384C135.602 49.1221 135.119 47.9557 134.259 47.0956C133.399 46.2356 132.233 45.7524 131.016 45.7524H40.8162C39.6011 45.7543 38.4365 46.2383 37.578 47.0982C36.7195 47.958 36.2373 49.1234 36.2373 50.3384V59.5127H135.602V50.3384Z" fill="white"/>
<path d="M40.8247 52.6284C40.8247 53.2366 41.0663 53.8198 41.4963 54.2498C41.9263 54.6798 42.5096 54.9214 43.1177 54.9214C43.7258 54.9214 44.3091 54.6798 44.7391 54.2498C45.1691 53.8198 45.4107 53.2366 45.4107 52.6284C45.4107 52.0203 45.1691 51.4371 44.7391 51.0071C44.3091 50.577 43.7258 50.3354 43.1177 50.3354C42.5096 50.3354 41.9263 50.577 41.4963 51.0071C41.0663 51.4371 40.8247 52.0203 40.8247 52.6284V52.6284Z" fill="#FF6242"/>
<path d="M48.4673 52.6284C48.4673 53.2366 48.7089 53.8198 49.1389 54.2498C49.5689 54.6798 50.1521 54.9214 50.7603 54.9214C51.3684 54.9214 51.9516 54.6798 52.3817 54.2498C52.8117 53.8198 53.0533 53.2366 53.0533 52.6284C53.0533 52.0203 52.8117 51.4371 52.3817 51.0071C51.9516 50.577 51.3684 50.3354 50.7603 50.3354C50.1521 50.3354 49.5689 50.577 49.1389 51.0071C48.7089 51.4371 48.4673 52.0203 48.4673 52.6284V52.6284Z" fill="#FFE500"/>
<path d="M56.1123 52.6284C56.1123 53.2366 56.3539 53.8198 56.7839 54.2498C57.2139 54.6798 57.7971 54.9214 58.4053 54.9214C59.0134 54.9214 59.5967 54.6798 60.0267 54.2498C60.4567 53.8198 60.6983 53.2366 60.6983 52.6284C60.6983 52.0203 60.4567 51.4371 60.0267 51.0071C59.5967 50.577 59.0134 50.3354 58.4053 50.3354C57.7971 50.3354 57.2139 50.577 56.7839 51.0071C56.3539 51.4371 56.1123 52.0203 56.1123 52.6284V52.6284Z" fill="#6DD627"/>
<path d="M131.016 126.771H40.816C39.5997 126.771 38.4332 126.288 37.5732 125.428C36.7131 124.568 36.23 123.402 36.23 122.185V59.52H135.602V122.185C135.602 123.402 135.119 124.568 134.259 125.428C133.399 126.288 132.233 126.771 131.016 126.771V126.771Z" stroke="#45413C" stroke-width="1.5" stroke-linecap="round" stroke-linejoin="round"/>
<path d="M135.602 50.3384C135.602 49.1221 135.119 47.9557 134.259 47.0956C133.399 46.2356 132.233 45.7524 131.016 45.7524H40.8162C39.6011 45.7543 38.4365 46.2383 37.578 47.0982C36.7195 47.958 36.2373 49.1234 36.2373 50.3384V59.5127H135.602V50.3384Z" stroke="#45413C" stroke-width="1.5" stroke-linecap="round" stroke-linejoin="round"/>
<path opacity="0.15" d="M50.3052 146.725C50.3052 147.349 51.5945 147.966 54.0996 148.542C56.6047 149.118 60.2764 149.641 64.9052 150.082C69.534 150.523 75.0291 150.873 81.0769 151.111C87.1247 151.35 93.6066 151.473 100.153 151.473C106.699 151.473 113.181 151.35 119.229 151.111C125.276 150.873 130.771 150.523 135.4 150.082C140.029 149.641 143.701 149.118 146.206 148.542C148.711 147.966 150 147.349 150 146.725C150 146.102 148.711 145.485 146.206 144.909C143.701 144.333 140.029 143.809 135.4 143.369C130.771 142.928 125.276 142.578 119.229 142.339C113.181 142.101 106.699 141.978 100.153 141.978C93.6066 141.978 87.1247 142.101 81.0769 142.339C75.0291 142.578 69.534 142.928 64.9052 143.369C60.2764 143.809 56.6047 144.333 54.0996 144.909C51.5945 145.485 50.3052 146.102 50.3052 146.725Z" fill="#45413C"/>
<path d="M145.25 145.507H55.0494C53.8331 145.507 52.6666 145.024 51.8066 144.164C50.9465 143.304 50.4634 142.138 50.4634 140.921V78.2559H149.836V140.921C149.836 142.138 149.352 143.304 148.492 144.164C147.632 145.024 146.466 145.507 145.25 145.507V145.507Z" fill="#4ACFFF"/>
<path d="M62.7023 145.507L129.961 78.2437H50.4707V140.921C50.4713 142.137 50.9547 143.303 51.8146 144.163C52.6745 145.023 53.8406 145.506 55.0567 145.507H62.7023Z" fill="#80DDFF"/>
<path d="M145.25 64.4854H55.0494C53.8331 64.4854 52.6666 64.9685 51.8066 65.8286C50.9465 66.6886 50.4634 67.855 50.4634 69.0713V78.2433H149.836V69.0713C149.836 67.855 149.352 66.6886 148.492 65.8286C147.632 64.9685 146.466 64.4854 145.25 64.4854Z" fill="white"/>
<path d="M55.0571 71.3658C55.0571 71.6669 55.1164 71.965 55.2317 72.2432C55.3469 72.5214 55.5158 72.7742 55.7287 72.9871C55.9417 73.2001 56.1944 73.369 56.4726 73.4842C56.7508 73.5994 57.049 73.6588 57.3501 73.6588C57.6512 73.6588 57.9494 73.5994 58.2276 73.4842C58.5058 73.369 58.7586 73.2001 58.9715 72.9871C59.1844 72.7742 59.3533 72.5214 59.4686 72.2432C59.5838 71.965 59.6431 71.6669 59.6431 71.3658C59.6431 71.0646 59.5838 70.7665 59.4686 70.4883C59.3533 70.2101 59.1844 69.9573 58.9715 69.7444C58.7586 69.5314 58.5058 69.3625 58.2276 69.2473C57.9494 69.1321 57.6512 69.0728 57.3501 69.0728C57.049 69.0728 56.7508 69.1321 56.4726 69.2473C56.1944 69.3625 55.9417 69.5314 55.7287 69.7444C55.5158 69.9573 55.3469 70.2101 55.2317 70.4883C55.1164 70.7665 55.0571 71.0646 55.0571 71.3658V71.3658Z" fill="#FF6242"/>
<path d="M62.6992 71.3658C62.6992 71.9739 62.9408 72.5571 63.3708 72.9871C63.8008 73.4172 64.3841 73.6588 64.9922 73.6588C65.6003 73.6588 66.1836 73.4172 66.6136 72.9871C67.0436 72.5571 67.2852 71.9739 67.2852 71.3658C67.2852 70.7576 67.0436 70.1744 66.6136 69.7444C66.1836 69.3143 65.6003 69.0728 64.9922 69.0728C64.3841 69.0728 63.8008 69.3143 63.3708 69.7444C62.9408 70.1744 62.6992 70.7576 62.6992 71.3658V71.3658Z" fill="#FFE500"/>
<path d="M70.3438 71.3658C70.3438 71.9739 70.5853 72.5571 71.0154 72.9871C71.4454 73.4172 72.0286 73.6588 72.6367 73.6588C73.2449 73.6588 73.8281 73.4172 74.2581 72.9871C74.6881 72.5571 74.9297 71.9739 74.9297 71.3658C74.9297 70.7576 74.6881 70.1744 74.2581 69.7444C73.8281 69.3143 73.2449 69.0728 72.6367 69.0728C72.0286 69.0728 71.4454 69.3143 71.0154 69.7444C70.5853 70.1744 70.3438 70.7576 70.3438 71.3658V71.3658Z" fill="#6DD627"/>
<path d="M145.25 145.507H55.0494C53.8331 145.507 52.6666 145.024 51.8066 144.164C50.9465 143.304 50.4634 142.138 50.4634 140.921V78.2559H149.836V140.921C149.836 142.138 149.352 143.304 148.492 144.164C147.632 145.024 146.466 145.507 145.25 145.507V145.507Z" stroke="#45413C" stroke-width="1.5" stroke-linecap="round" stroke-linejoin="round"/>
<path d="M145.25 64.4854H55.0494C53.8331 64.4854 52.6666 64.9685 51.8066 65.8286C50.9465 66.6886 50.4634 67.855 50.4634 69.0713V78.2433H149.836V69.0713C149.836 67.855 149.352 66.6886 148.492 65.8286C147.632 64.9685 146.466 64.4854 145.25 64.4854Z" stroke="#45413C" stroke-width="1.5" stroke-linecap="round" stroke-linejoin="round"/>
</svg>
