<svg width="160" height="160" viewBox="0 0 160 160" fill="none" xmlns="http://www.w3.org/2000/svg">
<path d="M144.001 89.1991C144.002 79.6473 141.865 70.2164 137.747 61.598C133.629 52.9796 127.634 45.3923 120.202 39.3925C112.77 33.3926 104.089 29.1325 94.7957 26.9244C85.5027 24.7164 75.8332 24.6164 66.4966 26.6319C57.1599 28.6474 48.3927 32.7272 40.8381 38.5721C33.2834 44.417 27.1328 51.8788 22.8374 60.4102C18.542 68.9416 16.2107 78.3264 16.0145 87.8761C15.8183 97.4258 17.7621 106.898 21.7034 115.599H138.299C142.064 107.308 144.008 98.3054 144.001 89.1991V89.1991Z" fill="#C7F0FF"/>
<path d="M21.7026 115.599C26.779 126.805 34.9776 136.311 45.3168 142.978C55.6561 149.645 67.6978 153.191 80.0002 153.191C92.3027 153.191 104.344 149.645 114.684 142.978C125.023 136.311 133.222 126.805 138.298 115.599H21.7026Z" fill="#F0D3A8"/>
<path d="M17.6006 115.599H142.401" stroke="#45413C" stroke-width="1.5" stroke-linecap="round" stroke-linejoin="round"/>
<path d="M10.4004 115.599H14.4004" stroke="#45413C" stroke-width="1.5" stroke-linecap="round" stroke-linejoin="round"/>
<path d="M145.601 115.599H149.601" stroke="#45413C" stroke-width="1.5" stroke-linecap="round" stroke-linejoin="round"/>
<path d="M139.71 31.6954L133.94 8.63944C133.784 8.01779 133.389 7.4829 132.841 7.15117C132.292 6.81945 131.635 6.71776 131.012 6.86824C124.393 8.53704 92.2922 16.5626 86.489 18.0058C84.5432 18.4952 82.7331 19.4179 81.194 20.7052C79.655 21.9924 78.4267 23.6108 77.601 25.4394C76.8888 27.0062 75.8343 28.3933 74.5152 29.4987C73.196 30.6041 71.6458 31.3996 69.9786 31.8266C56.3898 35.201 65.9514 32.833 51.4074 36.4666C50.9578 36.5801 50.5711 36.8665 50.3315 37.2634C50.0918 37.6604 50.0184 38.1359 50.1274 38.5866L51.6586 44.7066C51.776 45.1583 52.068 45.5449 52.4703 45.7813C52.8727 46.0177 53.3525 46.0847 53.8042 45.9674C68.1194 42.3738 56.1354 45.3994 72.377 41.3274C74.0442 40.9187 75.782 40.8901 77.4617 41.2438C79.1415 41.5974 80.7202 42.3243 82.081 43.3706C83.6633 44.6038 85.506 45.46 87.469 45.8739C89.4319 46.2878 91.4635 46.2487 93.409 45.7594C98.7354 44.4442 135.703 35.185 137.959 34.6202C138.266 34.5432 138.555 34.4064 138.809 34.2177C139.064 34.029 139.278 33.7921 139.441 33.5205C139.603 33.2489 139.711 32.9479 139.757 32.6347C139.803 32.3216 139.787 32.0024 139.71 31.6954Z" fill="#6DD627"/>
<path d="M133.94 8.63944C133.784 8.01779 133.389 7.4829 132.841 7.15117C132.292 6.81945 131.635 6.71776 131.012 6.86824C124.393 8.53704 92.2922 16.5626 86.489 18.0058C84.5432 18.4952 82.7331 19.4179 81.194 20.7052C79.655 21.9924 78.4267 23.6108 77.601 25.4394C76.8888 27.0062 75.8343 28.3933 74.5152 29.4987C73.196 30.6041 71.6458 31.3996 69.9786 31.8266C56.3898 35.201 65.9514 32.833 51.4074 36.4666C50.9578 36.5801 50.5711 36.8665 50.3315 37.2634C50.0918 37.6604 50.0184 38.1359 50.1274 38.5866L50.8474 41.4666L136.897 20.4538L133.94 8.63944Z" fill="#9CEB60"/>
<path d="M126.853 7.91846L133.778 35.6689L97.3314 44.7921L90.3794 17.0417L126.853 7.91846Z" fill="#E8F4FA"/>
<path d="M126.853 7.91846L90.3794 17.0417L93.8674 30.9649L130.379 22.0481L126.853 7.91846Z" fill="white"/>
<path d="M116.299 125.738C115.111 125.738 113.971 125.266 113.131 124.426C112.291 123.585 111.819 122.446 111.819 121.258V113.44C111.819 112.008 112.387 110.634 113.4 109.621L114.347 108.675C112.928 109.594 111.274 110.083 109.584 110.083C107.893 110.083 106.239 109.594 104.82 108.675L105.764 109.618C106.269 110.119 106.669 110.714 106.943 111.37C107.217 112.026 107.358 112.729 107.36 113.44V121.269C107.36 122.457 106.888 123.597 106.047 124.437C105.207 125.277 104.068 125.749 102.88 125.749C102.286 125.749 101.716 125.985 101.296 126.405C100.876 126.825 100.64 127.395 100.64 127.989C100.64 128.583 100.876 129.153 101.296 129.573C101.716 129.993 102.286 130.229 102.88 130.229H116.299C116.893 130.229 117.463 129.993 117.883 129.573C118.303 129.153 118.539 128.583 118.539 127.989C118.539 127.395 118.303 126.825 117.883 126.405C117.463 125.985 116.893 125.749 116.299 125.749V125.738Z" fill="#D9FDFF" stroke="#45413C" stroke-width="1.5" stroke-linejoin="round"/>
<path d="M118.578 100.077L116.533 80.9934C116.468 80.3831 116.179 79.8185 115.722 79.4083C115.266 78.998 114.674 78.771 114.06 78.771H105.12C104.506 78.771 103.914 78.9979 103.457 79.4081C103 79.8183 102.711 80.3829 102.645 80.9934L100.599 100.077C100.463 101.338 100.594 102.615 100.984 103.822C101.374 105.03 102.014 106.142 102.861 107.086C103.709 108.03 104.747 108.786 105.906 109.302C107.065 109.819 108.319 110.087 109.588 110.087C110.858 110.087 112.112 109.819 113.271 109.302C114.43 108.786 115.468 108.03 116.315 107.086C117.163 106.142 117.803 105.03 118.193 103.822C118.583 102.615 118.714 101.338 118.578 100.077V100.077Z" fill="#D9FDFF"/>
<path d="M105.12 78.771C104.506 78.771 103.913 78.9979 103.456 79.4081C102.999 79.8183 102.71 80.3829 102.644 80.9934L102.524 82.1262H116.656L116.536 80.9934C116.47 80.3831 116.181 79.8185 115.725 79.4083C115.268 78.998 114.676 78.771 114.062 78.771H105.12Z" fill="white"/>
<path d="M100.599 100.076C100.463 101.337 100.594 102.614 100.984 103.821C101.374 105.029 102.014 106.141 102.861 107.085C103.709 108.029 104.747 108.785 105.906 109.301C107.065 109.818 108.319 110.086 109.588 110.086C110.858 110.086 112.112 109.818 113.271 109.301C114.43 108.785 115.468 108.029 116.315 107.085C117.163 106.141 117.803 105.029 118.193 103.821C118.583 102.614 118.714 101.337 118.578 100.076L117.853 93.3076H101.324L100.599 100.076Z" fill="#FFF48C"/>
<path d="M118.401 98.3789C118.004 100.424 116.908 102.268 115.301 103.593C113.694 104.919 111.675 105.644 109.592 105.644C107.508 105.644 105.49 104.919 103.883 103.593C102.275 102.268 101.18 100.424 100.783 98.3789L100.602 100.077C100.466 101.338 100.598 102.614 100.987 103.822C101.377 105.03 102.017 106.142 102.865 107.086C103.713 108.03 104.75 108.785 105.909 109.302C107.068 109.819 108.323 110.086 109.592 110.086C110.861 110.086 112.116 109.819 113.275 109.302C114.434 108.785 115.471 108.03 116.319 107.086C117.167 106.142 117.807 105.03 118.196 103.822C118.586 102.614 118.717 101.338 118.582 100.077L118.401 98.3789Z" fill="#FFE500"/>
<path d="M100.599 100.076C100.463 101.337 100.594 102.614 100.984 103.821C101.374 105.029 102.014 106.141 102.861 107.085C103.709 108.029 104.747 108.785 105.906 109.301C107.065 109.818 108.319 110.086 109.588 110.086C110.858 110.086 112.112 109.818 113.271 109.301C114.43 108.785 115.468 108.029 116.315 107.085C117.163 106.141 117.803 105.029 118.193 103.821C118.583 102.614 118.714 101.337 118.578 100.076L117.853 93.3076H101.324L100.599 100.076Z" stroke="#45413C" stroke-width="1.5"/>
<path d="M118.578 100.077L116.533 80.9934C116.468 80.3831 116.179 79.8185 115.722 79.4083C115.266 78.998 114.674 78.771 114.06 78.771H105.12C104.506 78.771 103.914 78.9979 103.457 79.4081C103 79.8183 102.711 80.3829 102.645 80.9934L100.599 100.077C100.463 101.338 100.594 102.615 100.984 103.822C101.374 105.03 102.014 106.142 102.861 107.086C103.709 108.03 104.747 108.786 105.906 109.302C107.065 109.819 108.319 110.087 109.588 110.087C110.858 110.087 112.112 109.819 113.271 109.302C114.43 108.786 115.468 108.03 116.315 107.086C117.163 106.142 117.803 105.03 118.193 103.822C118.583 102.615 118.714 101.338 118.578 100.077V100.077Z" stroke="#45413C" stroke-width="1.5"/>
<path d="M84.99 125.738C83.8018 125.738 82.6623 125.266 81.8222 124.426C80.982 123.585 80.51 122.446 80.51 121.258V113.44C80.5097 112.008 81.0784 110.634 82.0908 109.621L83.0396 108.675C81.6207 109.594 79.9662 110.083 78.2756 110.083C76.585 110.083 74.9305 109.594 73.5116 108.675L74.4556 109.618C75.4681 110.631 76.0367 112.005 76.0364 113.437V121.266C76.0364 122.454 75.5644 123.593 74.7242 124.434C73.8841 125.274 72.7446 125.746 71.5564 125.746C71.2622 125.746 70.971 125.804 70.6992 125.916C70.4274 126.029 70.1805 126.194 69.9725 126.402C69.7645 126.61 69.5995 126.857 69.4869 127.128C69.3743 127.4 69.3164 127.692 69.3164 127.986C69.3164 128.28 69.3743 128.571 69.4869 128.843C69.5995 129.115 69.7645 129.362 69.9725 129.57C70.1805 129.778 70.4274 129.943 70.6992 130.055C70.971 130.168 71.2622 130.226 71.5564 130.226H84.9756C85.5697 130.226 86.1394 129.99 86.5595 129.57C86.9796 129.15 87.2156 128.58 87.2156 127.986C87.2156 127.392 86.9796 126.822 86.5595 126.402C86.1394 125.982 85.5697 125.746 84.9756 125.746L84.99 125.738Z" fill="#D9FDFF" stroke="#45413C" stroke-width="1.5" stroke-linejoin="round"/>
<path d="M87.2661 100.077L85.2229 80.9934C85.157 80.3829 84.8678 79.8183 84.411 79.4081C83.9541 78.9979 83.3617 78.771 82.7477 78.771H73.8069C73.1929 78.771 72.6005 78.9979 72.1437 79.4081C71.6868 79.8183 71.3976 80.3829 71.3317 80.9934L69.2805 100.077C69.1446 101.338 69.2758 102.615 69.6657 103.822C70.0555 105.03 70.6952 106.142 71.5431 107.086C72.391 108.03 73.4282 108.786 74.5872 109.302C75.7462 109.819 77.0011 110.087 78.2701 110.087C79.5392 110.087 80.794 109.819 81.953 109.302C83.112 108.786 84.1492 108.03 84.9971 107.086C85.8451 106.142 86.4848 105.03 86.8746 103.822C87.2644 102.615 87.3956 101.338 87.2597 100.077H87.2661Z" fill="#D9FDFF"/>
<path d="M73.8061 78.771C73.1921 78.771 72.5998 78.9979 72.1429 79.4081C71.686 79.8183 71.3968 80.3829 71.3309 80.9934L71.2109 82.1262H85.3421L85.2221 80.9934C85.1562 80.3829 84.8671 79.8183 84.4102 79.4081C83.9533 78.9979 83.361 78.771 82.7469 78.771H73.8061Z" fill="white"/>
<path d="M69.2805 100.076C69.1446 101.337 69.2758 102.614 69.6657 103.821C70.0555 105.029 70.6952 106.141 71.5431 107.085C72.391 108.029 73.4282 108.785 74.5872 109.301C75.7462 109.818 77.0011 110.086 78.2701 110.086C79.5392 110.086 80.794 109.818 81.953 109.301C83.112 108.785 84.1492 108.029 84.9971 107.085C85.8451 106.141 86.4848 105.029 86.8746 103.821C87.2644 102.614 87.3956 101.337 87.2597 100.076L86.5349 93.3076H70.0117L69.2805 100.076Z" fill="#FFF48C"/>
<path d="M87.0853 98.3789C86.6888 100.424 85.5929 102.268 83.9856 103.593C82.3784 104.919 80.3599 105.644 78.2765 105.644C76.1931 105.644 74.1747 104.919 72.5674 103.593C70.9601 102.268 69.8642 100.424 69.4677 98.3789L69.2805 100.077C69.1446 101.338 69.2758 102.614 69.6657 103.822C70.0555 105.03 70.6952 106.142 71.5431 107.086C72.391 108.03 73.4282 108.785 74.5872 109.302C75.7462 109.819 77.0011 110.086 78.2701 110.086C79.5392 110.086 80.794 109.819 81.953 109.302C83.112 108.785 84.1492 108.03 84.9971 107.086C85.8451 106.142 86.4848 105.03 86.8746 103.822C87.2644 102.614 87.3956 101.338 87.2597 100.077L87.0853 98.3789Z" fill="#FFE500"/>
<path d="M69.2805 100.076C69.1446 101.337 69.2758 102.614 69.6657 103.821C70.0555 105.029 70.6952 106.141 71.5431 107.085C72.391 108.029 73.4282 108.785 74.5872 109.301C75.7462 109.818 77.0011 110.086 78.2701 110.086C79.5392 110.086 80.794 109.818 81.953 109.301C83.112 108.785 84.1492 108.029 84.9971 107.085C85.8451 106.141 86.4848 105.029 86.8746 103.821C87.2644 102.614 87.3956 101.337 87.2597 100.076L86.5349 93.3076H70.0117L69.2805 100.076Z" stroke="#45413C" stroke-width="1.5"/>
<path d="M87.2661 100.077L85.2229 80.9934C85.157 80.3829 84.8678 79.8183 84.411 79.4081C83.9541 78.9979 83.3617 78.771 82.7477 78.771H73.8069C73.1929 78.771 72.6005 78.9979 72.1437 79.4081C71.6868 79.8183 71.3976 80.3829 71.3317 80.9934L69.2805 100.077C69.1446 101.338 69.2758 102.615 69.6657 103.822C70.0555 105.03 70.6952 106.142 71.5431 107.086C72.391 108.03 73.4282 108.786 74.5872 109.302C75.7462 109.819 77.0011 110.087 78.2701 110.087C79.5392 110.087 80.794 109.819 81.953 109.302C83.112 108.786 84.1492 108.03 84.9971 107.086C85.8451 106.142 86.4848 105.03 86.8746 103.822C87.2644 102.615 87.3956 101.338 87.2597 100.077H87.2661Z" stroke="#45413C" stroke-width="1.5"/>
<path d="M53.6769 125.738C52.4887 125.738 51.3492 125.266 50.509 124.426C49.6689 123.585 49.1969 122.446 49.1969 121.258V113.44C49.1966 112.731 49.3362 112.028 49.6078 111.373C49.8793 110.718 50.2774 110.122 50.7793 109.621L51.7265 108.675C50.3078 109.594 48.6536 110.083 46.9633 110.083C45.273 110.083 43.6188 109.594 42.2001 108.675L43.1425 109.618C43.6444 110.119 44.0425 110.714 44.314 111.37C44.5855 112.025 44.7251 112.728 44.7249 113.437V121.266C44.7249 122.454 44.2529 123.593 43.4127 124.434C42.5726 125.274 41.4331 125.746 40.2449 125.746C39.6508 125.746 39.081 125.982 38.661 126.402C38.2409 126.822 38.0049 127.392 38.0049 127.986C38.0049 128.58 38.2409 129.15 38.661 129.57C39.081 129.99 39.6508 130.226 40.2449 130.226H53.6641C54.2582 130.226 54.8279 129.99 55.248 129.57C55.6681 129.15 55.9041 128.58 55.9041 127.986C55.9041 127.392 55.6681 126.822 55.248 126.402C54.8279 125.982 54.2582 125.746 53.6641 125.746L53.6769 125.738Z" fill="#D9FDFF" stroke="#45413C" stroke-width="1.5" stroke-linejoin="round"/>
<path d="M55.956 100.077L53.9112 80.9934C53.8453 80.3829 53.5561 79.8183 53.0992 79.4081C52.6424 78.9979 52.05 78.771 51.436 78.771H42.4952C41.8812 78.771 41.2888 78.9979 40.832 79.4081C40.3751 79.8183 40.0859 80.3829 40.02 80.9934L37.9768 100.077C37.8409 101.338 37.9721 102.615 38.3619 103.822C38.7518 105.03 39.3914 106.142 40.2394 107.086C41.0873 108.03 42.1245 108.786 43.2835 109.302C44.4425 109.819 45.6974 110.087 46.9664 110.087C48.2354 110.087 49.4903 109.819 50.6493 109.302C51.8083 108.786 52.8455 108.03 53.6934 107.086C54.5414 106.142 55.181 105.03 55.5709 103.822C55.9607 102.615 56.0919 101.338 55.956 100.077V100.077Z" fill="#D9FDFF"/>
<path d="M42.4946 78.771C41.8806 78.771 41.2882 78.9979 40.8314 79.4081C40.3745 79.8183 40.0853 80.3829 40.0194 80.9934L39.8994 82.1262H54.0306L53.9106 80.9934C53.8447 80.3829 53.5555 79.8183 53.0987 79.4081C52.6418 78.9979 52.0494 78.771 51.4354 78.771H42.4946Z" fill="white"/>
<path d="M37.9768 100.076C37.8409 101.338 37.9721 102.614 38.3619 103.822C38.7518 105.03 39.3914 106.142 40.2394 107.086C41.0873 108.03 42.1245 108.785 43.2835 109.302C44.4425 109.819 45.6974 110.086 46.9664 110.086C48.2354 110.086 49.4903 109.819 50.6493 109.302C51.8083 108.785 52.8455 108.03 53.6934 107.086C54.5414 106.142 55.181 105.03 55.5709 103.822C55.9607 102.614 56.0919 101.338 55.956 100.076L54.836 89.6763L38.356 96.4075L37.9768 100.076Z" fill="#FFF48C"/>
<path d="M37.9768 100.076C37.8409 101.338 37.9721 102.614 38.3619 103.822C38.7518 105.03 39.3914 106.142 40.2394 107.086C41.0873 108.03 42.1245 108.785 43.2835 109.302C44.4425 109.819 45.6974 110.086 46.9664 110.086C48.2354 110.086 49.4903 109.819 50.6493 109.302C51.8083 108.785 52.8455 108.03 53.6934 107.086C54.5414 106.142 55.181 105.03 55.5709 103.822C55.9607 102.614 56.0919 101.338 55.956 100.076L54.836 89.6763L38.356 96.4075L37.9768 100.076Z" stroke="#45413C" stroke-width="1.5"/>
<path d="M55.7736 98.3789C55.378 100.425 54.2825 102.269 52.6753 103.595C51.0681 104.921 49.0493 105.647 46.9656 105.647C44.8819 105.647 42.8631 104.921 41.2559 103.595C39.6487 102.269 38.5532 100.425 38.1576 98.3789L37.9768 100.077C37.8409 101.338 37.9721 102.614 38.3619 103.822C38.7518 105.03 39.3914 106.142 40.2394 107.086C41.0873 108.03 42.1245 108.785 43.2835 109.302C44.4425 109.819 45.6974 110.086 46.9664 110.086C48.2354 110.086 49.4903 109.819 50.6493 109.302C51.8083 108.785 52.8455 108.03 53.6934 107.086C54.5414 106.142 55.181 105.03 55.5709 103.822C55.9607 102.614 56.0919 101.338 55.956 100.077L55.7736 98.3789Z" fill="#FFE500"/>
<path d="M38.7016 93.3076L37.9768 100.076C37.8409 101.337 37.9721 102.614 38.3619 103.821C38.7518 105.029 39.3914 106.141 40.2394 107.085C41.0873 108.029 42.1245 108.785 43.2835 109.301C44.4425 109.818 45.6974 110.086 46.9664 110.086C48.2354 110.086 49.4903 109.818 50.6493 109.301C51.8083 108.785 52.8455 108.029 53.6934 107.085C54.5414 106.141 55.181 105.029 55.5709 103.821C55.9607 102.614 56.0919 101.337 55.956 100.076L55.2312 93.3076" stroke="#45413C" stroke-width="1.5"/>
<path d="M55.956 100.077L53.9112 80.9934C53.8453 80.3829 53.5561 79.8183 53.0992 79.4081C52.6424 78.9979 52.05 78.771 51.436 78.771H42.4952C41.8812 78.771 41.2888 78.9979 40.832 79.4081C40.3751 79.8183 40.0859 80.3829 40.02 80.9934L37.9768 100.077C37.8409 101.338 37.9721 102.615 38.3619 103.822C38.7518 105.03 39.3914 106.142 40.2394 107.086C41.0873 108.03 42.1245 108.786 43.2835 109.302C44.4425 109.819 45.6974 110.087 46.9664 110.087C48.2354 110.087 49.4903 109.819 50.6493 109.302C51.8083 108.786 52.8455 108.03 53.6934 107.086C54.5414 106.142 55.181 105.03 55.5709 103.822C55.9607 102.615 56.0919 101.338 55.956 100.077V100.077Z" stroke="#45413C" stroke-width="1.5"/>
<path d="M57.5308 34.9463L62.7357 33.6529L65.0967 43.1543L59.8918 44.4477L57.5308 34.9463Z" fill="#EBCB00"/>
<path d="M122.669 18.8506L127.281 37.305L103.825 43.1562L99.211 24.7018C99.1398 24.4141 99.1856 24.11 99.3382 23.8559C99.4909 23.6019 99.738 23.4188 100.025 23.3466L121.313 18.0362C121.601 17.965 121.905 18.0108 122.159 18.1634C122.413 18.3161 122.596 18.5632 122.669 18.8506V18.8506Z" fill="#EBCB00"/>
<path d="M121.314 18.0361L100.034 23.3465C99.7463 23.4187 99.4992 23.6019 99.3465 23.8559C99.1939 24.1099 99.1481 24.414 99.2193 24.7017L100.387 29.3737L123.874 23.6377L122.677 18.8505C122.641 18.7073 122.578 18.5726 122.49 18.4541C122.402 18.3356 122.291 18.2357 122.165 18.16C122.038 18.0843 121.898 18.0344 121.751 18.0131C121.605 17.9919 121.457 17.9997 121.314 18.0361V18.0361Z" fill="#FFE500"/>
<path d="M139.71 31.6954L133.94 8.63944C133.784 8.01779 133.389 7.4829 132.841 7.15117C132.292 6.81945 131.635 6.71776 131.012 6.86824C124.393 8.53704 92.2922 16.5626 86.489 18.0058C84.5432 18.4952 82.7331 19.4179 81.194 20.7052C79.655 21.9924 78.4267 23.6108 77.601 25.4394C76.8888 27.0062 75.8343 28.3933 74.5152 29.4987C73.196 30.6041 71.6458 31.3996 69.9786 31.8266C56.3898 35.201 65.9514 32.833 51.4074 36.4666C50.9578 36.5801 50.5711 36.8665 50.3315 37.2634C50.0918 37.6604 50.0184 38.1359 50.1274 38.5866L51.6586 44.7066C51.776 45.1583 52.068 45.5449 52.4703 45.7813C52.8727 46.0177 53.3525 46.0847 53.8042 45.9674C68.1194 42.3738 56.1354 45.3994 72.377 41.3274C74.0442 40.9187 75.782 40.8901 77.4617 41.2438C79.1415 41.5974 80.7202 42.3243 82.081 43.3706C83.6633 44.6038 85.506 45.46 87.469 45.8739C89.4319 46.2878 91.4635 46.2487 93.409 45.7594C98.7354 44.4442 135.703 35.185 137.959 34.6202C138.266 34.5432 138.555 34.4064 138.809 34.2177C139.064 34.029 139.278 33.7921 139.441 33.5205C139.603 33.2489 139.711 32.9479 139.757 32.6347C139.803 32.3216 139.787 32.0024 139.71 31.6954Z" stroke="#45413C" stroke-width="1.5"/>
<path d="M126.853 7.91846L133.778 35.6689L97.3314 44.7921L90.3794 17.0417L126.853 7.91846Z" stroke="#45413C" stroke-width="1.5" stroke-linecap="round" stroke-linejoin="round"/>
<path d="M57.5308 34.9463L62.7357 33.6529L65.0967 43.1543L59.8918 44.4477L57.5308 34.9463Z" stroke="#45413C" stroke-width="1.5" stroke-linecap="round" stroke-linejoin="round"/>
<path d="M122.669 18.8506L127.281 37.305L103.825 43.1562L99.211 24.7018C99.1398 24.4141 99.1856 24.11 99.3382 23.8559C99.4909 23.6019 99.738 23.4188 100.025 23.3466L121.313 18.0362C121.601 17.965 121.905 18.0108 122.159 18.1634C122.413 18.3161 122.596 18.5632 122.669 18.8506V18.8506Z" stroke="#45413C" stroke-width="1.5" stroke-linecap="round" stroke-linejoin="round"/>
<path d="M52.7604 61.6183C52.7604 63.042 52.1949 64.4074 51.1882 65.4141C50.1815 66.4208 48.8161 66.9863 47.3924 66.9863C45.9687 66.9863 44.6034 66.4208 43.5967 65.4141C42.59 64.4074 42.0244 63.042 42.0244 61.6183C42.0244 58.6535 47.394 50.8823 47.394 50.8823C47.394 50.8823 52.7604 58.6535 52.7604 61.6183Z" fill="#FFE500"/>
<path d="M44.7092 64.3015C44.7092 61.8919 48.2548 56.3015 49.5812 54.3015C48.4244 52.3815 47.394 50.8823 47.394 50.8823C47.394 50.8823 42.0244 58.6535 42.0244 61.6183C42.0252 62.6511 42.3247 63.6617 42.8868 64.5281C43.4489 65.3945 44.2496 66.0799 45.1924 66.5015C44.8763 65.811 44.7115 65.0609 44.7092 64.3015Z" fill="#FFF48C"/>
<path d="M52.7604 61.6183C52.7604 63.042 52.1949 64.4074 51.1882 65.4141C50.1815 66.4208 48.8161 66.9863 47.3924 66.9863C45.9687 66.9863 44.6034 66.4208 43.5967 65.4141C42.59 64.4074 42.0244 63.042 42.0244 61.6183C42.0244 58.6535 47.394 50.8823 47.394 50.8823C47.394 50.8823 52.7604 58.6535 52.7604 61.6183Z" stroke="#45413C" stroke-width="1.5" stroke-linejoin="round"/>
<path opacity="0.15" d="M38.0195 132.447C38.0195 133.337 38.962 134.191 40.6396 134.82C42.3173 135.449 44.5926 135.803 46.9651 135.803C49.3377 135.803 51.613 135.449 53.2906 134.82C54.9683 134.191 55.9107 133.337 55.9107 132.447C55.9107 131.558 54.9683 130.704 53.2906 130.075C51.613 129.446 49.3377 129.092 46.9651 129.092C44.5926 129.092 42.3173 129.446 40.6396 130.075C38.962 130.704 38.0195 131.558 38.0195 132.447Z" fill="#45413C"/>
<path opacity="0.15" d="M69.3311 132.447C69.3311 132.888 69.5624 133.324 70.012 133.731C70.4616 134.139 71.1205 134.508 71.9512 134.82C72.7818 135.132 73.768 135.379 74.8533 135.547C75.9387 135.716 77.1019 135.803 78.2767 135.803C79.4514 135.803 80.6147 135.716 81.7 135.547C82.7853 135.379 83.7715 135.132 84.6021 134.82C85.4328 134.508 86.0917 134.139 86.5413 133.731C86.9909 133.324 87.2223 132.888 87.2223 132.447C87.2223 132.007 86.9909 131.571 86.5413 131.164C86.0917 130.756 85.4328 130.387 84.6021 130.075C83.7715 129.763 82.7853 129.516 81.7 129.348C80.6147 129.179 79.4514 129.092 78.2767 129.092C77.1019 129.092 75.9387 129.179 74.8533 129.348C73.768 129.516 72.7818 129.763 71.9512 130.075C71.1205 130.387 70.4616 130.756 70.012 131.164C69.5624 131.571 69.3311 132.007 69.3311 132.447Z" fill="#45413C"/>
<path opacity="0.15" d="M100.642 132.447C100.642 133.337 101.584 134.191 103.262 134.82C104.939 135.449 107.215 135.803 109.587 135.803C111.96 135.803 114.235 135.449 115.913 134.82C117.59 134.191 118.533 133.337 118.533 132.447C118.533 131.558 117.59 130.704 115.913 130.075C114.235 129.446 111.96 129.092 109.587 129.092C107.215 129.092 104.939 129.446 103.262 130.075C101.584 130.704 100.642 131.558 100.642 132.447V132.447Z" fill="#45413C"/>
</svg>
