<svg width="160" height="160" fill="none" xmlns="http://www.w3.org/2000/svg">
  <g clip-path="url(#clip0)">
    <path d="M6 74c0 19.626 7.7834 38.448 21.6379 52.326C41.4925 140.204 60.2833 148 79.8766 148c19.5932 0 38.3844-7.796 52.2384-21.674 13.855-13.878 21.638-32.7 21.638-52.326 0-19.626-7.783-38.4482-21.638-52.3259C118.261 7.7964 99.4698 0 79.8766 0 60.2833 0 41.4925 7.7964 27.6379 21.6741 13.7834 35.5518 6 54.374 6 74v0z" fill="#C7F0FF" stroke="#C7F0FF" stroke-width="1.6" stroke-miterlimit="10"/>
    <path opacity=".3" d="M35.7732 135.858c19.757 0 35.7731-2.002 35.7731-4.472 0-2.47-16.0161-4.472-35.7731-4.472C16.0162 126.914 0 128.916 0 131.386c0 2.47 16.0162 4.472 35.7732 4.472zM118.03 135.858c19.756 0 35.773-2.002 35.773-4.472 0-2.47-16.017-4.472-35.773-4.472-19.7575 0-35.7737 2.002-35.7737 4.472 0 2.47 16.0162 4.472 35.7737 4.472z" fill="#5C5589"/>
    <path d="M62.9741 93.4507s4.6191 3.5134 5.8967-.5651c1.2776-4.0786-.4423-8.3782-5.8967-7.936" fill="#F4D9BE"/>
    <path d="M69.2621 58.734v72.652h-3.71V69.9622s-11.9408-10.1718-5.0122-20.9578c6.9286-10.786 18.4763 6.8058 11.302 9.1153-7.1989 2.3096-8.4765-1.3759-7.1989-4.6682 1.2776-3.2923 4.6928.0983 3.2186 1.5725" fill="#AC9173"/>
    <path d="M69.2621 58.734v72.652h-3.71V69.9622s-11.9408-10.1718-5.0122-20.9578c6.9286-10.786 18.4763 6.8058 11.302 9.1153-7.1989 2.3096-8.4765-1.3759-7.1989-4.6682 1.2776-3.2923 4.6928.0983 3.2186 1.5725" stroke="#876A54" stroke-miterlimit="10"/>
    <path d="M64.4724 86.5957s2.4816.516 2.4816 2.3095c0 1.7936-3.4643 3.5872-5.3808-1.1547" fill="#F4D9BE"/>
    <path d="M42.9456 78.5123l21.6949 3.4643-.7617 19.6314-23.1444-12.1131" fill="#6AA6AB"/>
    <path d="M19.1403 102.64s-1.4496 8.353 5.479 8.353-2.3095-11.5475-2.3095-11.5475" fill="#F4D9BE"/>
    <path d="M27.6628 76.1045l-5.8967 55.2815h27.9847l-4.9139-52.9965" fill="#6AA6AB"/>
    <path d="M43.5855 60.1589s3.9803 3.0712 2.7027 7.0515c0 0-1.2777-2.7027-2.7027-2.7027 0 0 3.8574 3.71 2.0638 11.9408 0 0-3.0711-4.7419-4.619.7616 0 0-2.8992-3.3414-2.2358-6.8057.6879-3.4643 1.1056-8.5993 0-10.9089" fill="#fff"/>
    <path d="M42.6039 55.024H28.5747v26.9527h14.0292V55.024z" fill="#F4D9BE"/>
    <path d="M34.5687 72.0997s-8.1571.1229-8.1571 8.0834 8.1571 13.6115 8.1571 19.631c0 0 2.2358-3.4643 1.3267-6.9286 0 0 4.4963 8.0835 2.9484 13.9805 0 0 7.1988-9.8774 5.2579-17.3956 0 0 1.9164 2.3832 1.9164 4.9384.0245.0246 7.1251-22.3091-11.4494-22.3091z" fill="#fff"/>
    <path d="M36.6309 66.6699l8.2062 6.5846-8.2062-1.0565v-5.5281z" fill="#FFC2C4"/>
    <path d="M32.6507 65.0974c1.3021 0 2.3586-1.0565 2.3586-2.3587H30.292c0 1.3022 1.0565 2.3587 2.3587 2.3587z" fill="#4A311A"/>
    <path d="M25.5023 60.1589s-3.9802 3.0712-2.7026 7.0515c0 0 1.2776-2.7027 2.7026-2.7027 0 0-3.8574 3.71-2.0638 11.9408 0 0 3.0712-4.7419 4.6191.7616 0 0 2.8992-3.3414 2.2358-6.8057-.688-3.4643-1.1056-8.5993 0-10.9089" fill="#fff"/>
    <path d="M39.3118 65.0974c1.3022 0 2.3587-1.0565 2.3587-2.3587h-4.7174c0 1.3022 1.0565 2.3587 2.3587 2.3587z" fill="#4A311A"/>
    <path d="M16.6597 60.1589h40.6625l-10.5895-4.1031h-22.653l-7.42 4.1031zM25.6276 51.2402l.7863-15.7245-6.4127 1.5479-4.9139-6.7812-4.619 4.226L15.4804 25l7.3463 6.0195 14.0783-1.9164 8.5011 21.6949s-4.2505 5.651-19.7785.4422z" fill="#6AA6AB"/>
    <path d="M24.0813 56.0558l-1.2776-4.7419 23.9307-.516v5.2579H24.0813z" fill="#FFFFA4"/>
    <path d="M27.9371 74.8023L16.6597 100.576l8.845 7.321" fill="#6AA6AB"/>
    <path d="M70.5122 86.5956c-.4668-.6388-2.8992-2.4078-2.8992 1.2776s-.9336 8.2062.86 8.2062c1.769.0246 4.619-6.0441 2.0392-9.4838z" fill="#F4D9BE"/>
    <path d="M148.059 81.3133l3.341-39.0164 4.644-3.2186 3.955 4.8648-8.034 38.5495" fill="#8192A4"/>
    <path d="M104.273 73.9915l5.897 55.1835 4.742-.959L117 114.384h2.851l3.759 14.52 2.727.369 4.987-55.2815h-27.051z" fill="#425059"/>
    <path d="M101.618 100.502s-1.449 8.354 5.479 8.354c6.929 0-2.309-11.548-2.309-11.548" fill="#F4D9BE"/>
    <path d="M100.096 78.4878s-2.0391 20.3435 1.769 24.1522l5.971-2.138s-6.143-15.2822-3.588-22.7022" fill="#425059"/>
    <path d="M145.453 82.812c5.454-.4422 7.174 3.8329 5.896 7.936-1.277 4.1031-5.896.5651-5.896.5651" fill="#F4D9BE"/>
    <path d="M118.252 46.5229s-10.54-1.6708-11.867 4.5699c-.982 4.6928 4.668 28.7709 4.668 28.7709l4.079-16.7564M147.711 81.3133l-1.352 13.0464 4.595.9337 2.064-12.5059-5.307-1.4742z" fill="#425059"/>
    <path d="M146.952 84.4827s2.482.516 2.482 2.3096c0 1.7935-3.464 3.5871-5.381-1.1548" fill="#F4D9BE"/>
    <path d="M131.497 77.2838s9.41 4.9139 13.955 5.5282v8.5256s-4.422-.1966-15.724-11.474" fill="#425059"/>
    <path d="M119.111 73.9916s15.332-5.2333 15.332 4.3242l-12.039 1.5479M113.955 73.9916s-15.3315-5.2333-15.3315 4.3242l12.4565 1.5479" fill="#8192A4"/>
    <path d="M125.109 52.9109H111.08v26.9528h14.029V52.9109z" fill="#F4D9BE"/>
    <path d="M115.134 62.9598c1.302 0 2.358-1.0565 2.358-2.3586h-4.717c0 1.3021 1.056 2.3586 2.359 2.3586zM121.791 62.9598c1.302 0 2.358-1.0565 2.358-2.3586h-4.717c0 1.3021 1.057 2.3586 2.359 2.3586z" fill="#4A311A"/>
    <path d="M152.993 84.4827c-.467-.6388-2.9-2.4078-2.9 1.2777 0 3.6854-.933 8.2062.86 8.2062 1.794 0 4.619-6.0687 2.04-9.4839z" fill="#F4D9BE"/>
    <path d="M128.349 55.8593h-20.662l10.343-11.0072c-.024 0 11.278-.1474 10.319 11.0072zM137.589 79.6425l-3.611 5.1596 1.793 1.769 3.759-6.0932-1.941-.8354zM145.453 92.0993v-9.8032l-1.401-.3686-.442 9.4101M108.62 90.232h9.631l.86-7.4446 1.45 7.4446 7.838 1.1056-8.501.2457-.516-1.6707-.86 2.1866-9.902-1.8672zM107.099 104.507l21.425.639 1.203 4.619-25.454-.909 2.826-4.349z" fill="#8192A4"/>
    <path d="M126.335 129.273l3.39 1.45h-5.995l-.958-5.037M110.172 129.175l-3.882 1.548h8.206l.417-2.507" fill="#425059"/>
    <path d="M107.098 120.895c9.051 0 16.388-7.337 16.388-16.388 0-9.0509-7.337-16.388-16.388-16.388-9.0505 0-16.3876 7.3371-16.3876 16.388 0 9.051 7.3371 16.388 16.3876 16.388z" fill="#8192A4"/>
    <path d="M107.097 119.101c8.06 0 14.594-6.534 14.594-14.594 0-8.0603-6.534-14.5944-14.594-14.5944-8.0605 0-14.5946 6.5341-14.5946 14.5944 0 8.06 6.5341 14.594 14.5946 14.594z" fill="#425059"/>
    <path opacity=".3" d="M91.4238 99.6667l14.1522 19.9753-9.9262-25.6754 15.4292 25.1594-13.7339-27.7884 20.6879 24.2014 3.611-4.865-15.356-21.9407-6.044 1.4987-7.0512 5.5773" fill="#8192A4"/>
    <path opacity=".4" d="M91.938 100.404l12.825 19.901 1.253.123-12.8495-23.12 1.8181-3.8328 15.7984 25.1838-14.3734-25.9209 1.7936-1.4005 18.7958 24.8894 2.752-2.998-17.617-23.4638-6.7808 3.2923" fill="#8192A4"/>
    <path d="M107.098 112.345c4.329 0 7.838-3.509 7.838-7.838 0-4.329-3.509-7.8377-7.838-7.8377-4.329 0-7.8377 3.5087-7.8377 7.8377s3.5087 7.838 7.8377 7.838z" fill="#425059"/>
    <path d="M107.098 110.674c3.406 0 6.167-2.761 6.167-6.167 0-3.406-2.761-6.1671-6.167-6.1671-3.406 0-6.167 2.7611-6.167 6.1671 0 3.406 2.761 6.167 6.167 6.167z" fill="#8192A4"/>
    <path d="M107.099 108.266c2.076 0 3.759-1.683 3.759-3.759 0-2.076-1.683-3.759-3.759-3.759-2.076 0-3.759 1.683-3.759 3.759 0 2.076 1.683 3.759 3.759 3.759zM144.813 81.1904l11.032 3.0712.172-2.0638-10.835-2.7518-.369 1.7444z" fill="#425059"/>
    <path d="M152.405 42.8865l2.236 1.032-4.226 35.9451 5.601-35.3555 3.145-.2702-6.756-1.3514z" fill="#9BB3C9"/>
    <path d="M120.686 47.8251l5.749 6.7075-4.226-8.0834M116.926 49.5941l5.75 4.9385-4.226-5.9704M114.544 51.8299l3.71 2.7026-2.751-3.2677" fill="#425059"/>
    <path d="M119.111 64.5323l5.037 1.8427-5.037 3.6854v-5.5281z" fill="#FFC2C4"/>
    <g filter="url(#filter0_d)">
      <rect x="112" width="48" height="48" rx="24" fill="#fff"/>
      <path d="M130.049 29.894c.554-.4402.807-.644.758-.6114 1.598-1.3206 2.853-2.4049 3.766-3.2527.93-.8478 1.712-1.7364 2.348-2.6658.636-.9293.954-1.8342.954-2.7146 0-.6685-.155-1.1903-.465-1.5653-.309-.375-.774-.5625-1.394-.5625-.619 0-1.108.2365-1.467.7093-.342.4565-.514 1.1087-.514 1.9565H130c.033-1.3859.326-2.5435.88-3.4728.571-.9294 1.313-1.6142 2.226-2.0544.929-.4402 1.957-.6603 3.082-.6603 1.94 0 3.399.4973 4.377 1.4918.995.9946 1.492 2.2908 1.492 3.8886 0 1.7446-.595 3.3669-1.785 4.8669-1.19 1.4837-2.707 2.9348-4.549 4.3532h6.603V33h-12.277v-3.106z" fill="#604FCD"/>
    </g>
  </g>
  <defs>
    <clipPath id="clip0">
      <path fill="#fff" d="M0 0h160v160H0z"/>
    </clipPath>
    <filter id="filter0_d" x="108" y="-2" width="56" height="56" filterUnits="userSpaceOnUse" color-interpolation-filters="sRGB">
      <feFlood flood-opacity="0" result="BackgroundImageFix"/>
      <feColorMatrix in="SourceAlpha" values="0 0 0 0 0 0 0 0 0 0 0 0 0 0 0 0 0 0 127 0"/>
      <feOffset dy="2"/>
      <feGaussianBlur stdDeviation="2"/>
      <feColorMatrix values="0 0 0 0 0.309804 0 0 0 0 0.448157 0 0 0 0 0.803922 0 0 0 0.3 0"/>
      <feBlend in2="BackgroundImageFix" result="effect1_dropShadow"/>
      <feBlend in="SourceGraphic" in2="effect1_dropShadow" result="shape"/>
    </filter>
  </defs>
</svg>
