<svg width="160" height="160" viewBox="0 0 160 160" fill="none" xmlns="http://www.w3.org/2000/svg">
<g clip-path="url(#clip0)">
<path d="M15.9995 79.9995C15.9995 96.9734 22.7423 113.252 34.7447 125.254C46.747 137.257 63.0257 144 79.9995 144C96.9734 144 113.252 137.257 125.254 125.254C137.257 113.252 144 96.9734 144 79.9995C144 63.0257 137.257 46.747 125.254 34.7447C113.252 22.7423 96.9734 15.9995 79.9995 15.9995C63.0257 15.9995 46.747 22.7423 34.7447 34.7447C22.7423 46.747 15.9995 63.0257 15.9995 79.9995V79.9995Z" fill="#C7F0FF"/>
<path d="M3.96673 97L-0.731266 61.792H7.53073L8.61073 80.53C8.64673 82.042 8.66473 83.5 8.66473 84.904C8.70073 86.272 8.73673 87.766 8.77273 89.386H8.98874C9.24074 87.766 9.51074 86.272 9.79874 84.904C10.1227 83.5 10.4287 82.042 10.7167 80.53L13.0927 70.702H18.1687L20.3827 80.53C20.6707 82.006 20.9587 83.446 21.2467 84.85C21.5347 86.254 21.8227 87.766 22.1107 89.386H22.3267C22.3627 87.766 22.3807 86.254 22.3807 84.85C22.4167 83.446 22.4707 82.006 22.5427 80.53L23.5147 61.792H31.2367L26.9167 97H18.3847L16.3327 86.092C16.1167 84.976 15.9187 83.842 15.7387 82.69C15.5587 81.538 15.4327 80.44 15.3607 79.396H15.1987C15.0907 80.44 14.9647 81.538 14.8207 82.69C14.6767 83.842 14.4967 84.976 14.2807 86.092L12.2287 97H3.96673ZM47.6316 97.648C45.8676 97.648 44.1576 97.342 42.5016 96.73C40.8816 96.082 39.4236 95.164 38.1276 93.976C36.8676 92.788 35.8596 91.33 35.1036 89.602C34.3476 87.838 33.9696 85.84 33.9696 83.608C33.9696 81.376 34.3476 79.396 35.1036 77.668C35.8596 75.904 36.8676 74.428 38.1276 73.24C39.4236 72.052 40.8816 71.152 42.5016 70.54C44.1576 69.892 45.8676 69.568 47.6316 69.568C49.3956 69.568 51.0876 69.892 52.7076 70.54C54.3636 71.152 55.8216 72.052 57.0816 73.24C58.3776 74.428 59.4036 75.904 60.1596 77.668C60.9156 79.396 61.2936 81.376 61.2936 83.608C61.2936 85.84 60.9156 87.838 60.1596 89.602C59.4036 91.33 58.3776 92.788 57.0816 93.976C55.8216 95.164 54.3636 96.082 52.7076 96.73C51.0876 97.342 49.3956 97.648 47.6316 97.648ZM47.6316 91.222C49.4676 91.222 50.8356 90.538 51.7356 89.17C52.6716 87.802 53.1396 85.948 53.1396 83.608C53.1396 81.268 52.6716 79.414 51.7356 78.046C50.8356 76.678 49.4676 75.994 47.6316 75.994C45.7956 75.994 44.4096 76.678 43.4736 78.046C42.5736 79.414 42.1236 81.268 42.1236 83.608C42.1236 85.948 42.5736 87.802 43.4736 89.17C44.4096 90.538 45.7956 91.222 47.6316 91.222ZM70.0745 97V70.216H76.5545L77.2025 76.048H77.3645C78.6965 73.852 80.2985 72.232 82.1705 71.188C84.0425 70.108 86.0585 69.568 88.2185 69.568C89.4065 69.568 90.3605 69.658 91.0805 69.838C91.8365 70.018 92.6105 70.288 93.4025 70.648L91.7825 77.29C90.9545 77.038 90.1985 76.858 89.5145 76.75C88.8665 76.606 88.0385 76.534 87.0305 76.534C85.3745 76.534 83.7365 77.02 82.1165 77.992C80.5325 78.964 79.1645 80.656 78.0125 83.068V97H70.0745ZM110.013 97.648C108.321 97.648 106.773 97.324 105.369 96.676C104.001 96.028 102.813 95.11 101.805 93.922C100.833 92.698 100.077 91.222 99.5375 89.494C98.9975 87.766 98.7275 85.804 98.7275 83.608C98.7275 81.412 99.0515 79.45 99.6995 77.722C100.347 75.994 101.193 74.536 102.237 73.348C103.317 72.124 104.541 71.188 105.909 70.54C107.277 69.892 108.699 69.568 110.175 69.568C111.687 69.568 112.965 69.82 114.009 70.324C115.053 70.792 116.025 71.494 116.925 72.43H117.141L116.763 68.272V59.146H124.701V97H118.221L117.627 94.246H117.465C116.457 95.218 115.305 96.028 114.009 96.676C112.713 97.324 111.381 97.648 110.013 97.648ZM112.065 91.168C112.965 91.168 113.793 90.988 114.549 90.628C115.305 90.232 116.043 89.584 116.763 88.684V77.83C116.043 77.182 115.305 76.732 114.549 76.48C113.829 76.192 113.073 76.048 112.281 76.048C110.805 76.048 109.527 76.66 108.447 77.884C107.403 79.108 106.881 80.98 106.881 83.5C106.881 86.164 107.331 88.108 108.231 89.332C109.131 90.556 110.409 91.168 112.065 91.168ZM136.29 107.476C135.498 107.476 134.76 107.422 134.076 107.314C133.392 107.242 132.762 107.116 132.186 106.936L133.59 100.888C134.274 101.104 134.976 101.212 135.696 101.212C137.244 101.212 138.45 100.888 139.314 100.24C140.214 99.592 140.88 98.746 141.312 97.702L141.852 96.298L130.242 70.216H138.126L142.608 81.718C143.112 82.978 143.58 84.292 144.012 85.66C144.444 86.992 144.876 88.36 145.308 89.764H145.524C145.884 88.432 146.28 87.1 146.712 85.768C147.144 84.4 147.558 83.05 147.954 81.718L151.896 70.216H159.402L148.818 97.27C148.17 98.962 147.468 100.438 146.712 101.698C145.956 102.994 145.092 104.056 144.12 104.884C143.148 105.748 142.014 106.396 140.718 106.828C139.458 107.26 137.982 107.476 136.29 107.476Z" fill="#FFE500"/>
<path d="M3.96673 97L3.22332 97.0992C3.27304 97.4718 3.59086 97.75 3.96673 97.75V97ZM-0.731266 61.792V61.042C-0.947474 61.042 -1.15316 61.1353 -1.29558 61.298C-1.43799 61.4607 -1.50327 61.6769 -1.47468 61.8912L-0.731266 61.792ZM7.53073 61.792L8.27949 61.7488C8.25662 61.3521 7.92818 61.042 7.53073 61.042V61.792ZM8.61073 80.53L9.36052 80.5121C9.36032 80.5037 9.35998 80.4953 9.35949 80.4868L8.61073 80.53ZM8.66473 84.904H7.91473C7.91473 84.9106 7.91482 84.9172 7.91499 84.9237L8.66473 84.904ZM8.77273 89.386L8.02292 89.4027C8.03198 89.8103 8.36501 90.136 8.77273 90.136V89.386ZM8.98874 89.386V90.136C9.35844 90.136 9.673 89.8666 9.72982 89.5013L8.98874 89.386ZM9.79874 84.904L9.06794 84.7354C9.06686 84.7401 9.06582 84.7448 9.06482 84.7495L9.79874 84.904ZM10.7167 80.53L9.98774 80.3538C9.98486 80.3657 9.98227 80.3776 9.97998 80.3897L10.7167 80.53ZM13.0927 70.702V69.952C12.7464 69.952 12.4451 70.1891 12.3637 70.5258L13.0927 70.702ZM18.1687 70.702L18.9004 70.5372C18.8233 70.195 18.5194 69.952 18.1687 69.952V70.702ZM20.3827 80.53L21.1189 80.3864C21.1175 80.3793 21.116 80.3722 21.1144 80.3652L20.3827 80.53ZM21.2467 84.85L20.512 85.0007L20.512 85.0007L21.2467 84.85ZM22.1107 89.386L21.3723 89.5173C21.436 89.8752 21.7472 90.136 22.1107 90.136V89.386ZM22.3267 89.386V90.136C22.7345 90.136 23.0675 89.8103 23.0766 89.4027L22.3267 89.386ZM22.3807 84.85L21.631 84.8308C21.6308 84.8372 21.6307 84.8436 21.6307 84.85H22.3807ZM22.5427 80.53L21.7937 80.4911L21.7936 80.4935L22.5427 80.53ZM23.5147 61.792V61.042C23.1156 61.042 22.7864 61.3546 22.7657 61.7531L23.5147 61.792ZM31.2367 61.792L31.9812 61.8833C32.0073 61.6701 31.9408 61.4559 31.7984 61.295C31.6561 61.1341 31.4516 61.042 31.2367 61.042V61.792ZM26.9167 97V97.75C27.2956 97.75 27.615 97.4674 27.6612 97.0913L26.9167 97ZM18.3847 97L17.6477 97.1387C17.7144 97.4932 18.024 97.75 18.3847 97.75V97ZM16.3327 86.092L17.0698 85.9533L17.0691 85.9495L16.3327 86.092ZM15.3607 79.396L16.109 79.3444C16.0818 78.9511 15.7549 78.646 15.3607 78.646V79.396ZM15.1987 79.396V78.646C14.8144 78.646 14.4923 78.9365 14.4527 79.3188L15.1987 79.396ZM14.8207 82.69L15.5649 82.783L15.5649 82.783L14.8207 82.69ZM14.2807 86.092L13.5444 85.9495L13.5437 85.9533L14.2807 86.092ZM12.2287 97V97.75C12.5895 97.75 12.8991 97.4932 12.9658 97.1387L12.2287 97ZM4.71015 96.9008L0.0121453 61.6928L-1.47468 61.8912L3.22332 97.0992L4.71015 96.9008ZM-0.731266 62.542H7.53073V61.042H-0.731266V62.542ZM6.78198 61.8352L7.86198 80.5732L9.35949 80.4868L8.27949 61.7488L6.78198 61.8352ZM7.86095 80.5479C7.89682 82.0544 7.91473 83.5064 7.91473 84.904H9.41473C9.41473 83.4936 9.39665 82.0296 9.36052 80.5121L7.86095 80.5479ZM7.91499 84.9237C7.95096 86.2905 7.98694 87.7835 8.02292 89.4027L9.52255 89.3693C9.48653 87.7485 9.45051 86.2535 9.41447 84.8843L7.91499 84.9237ZM8.77273 90.136H8.98874V88.636H8.77273V90.136ZM9.72982 89.5013C9.98012 87.8922 10.2478 86.4115 10.5326 85.0585L9.06482 84.7495C8.77367 86.1325 8.50135 87.6398 8.24765 89.2707L9.72982 89.5013ZM10.5295 85.0726C10.8558 83.6586 11.1638 82.1912 11.4535 80.6703L9.97998 80.3897C9.69366 81.8928 9.38963 83.3414 9.06794 84.7354L10.5295 85.0726ZM11.4457 80.7062L13.8217 70.8782L12.3637 70.5258L9.98774 80.3538L11.4457 80.7062ZM13.0927 71.452H18.1687V69.952H13.0927V71.452ZM17.4371 70.8668L19.6511 80.6948L21.1144 80.3652L18.9004 70.5372L17.4371 70.8668ZM19.6466 80.6736C19.9351 82.1519 20.2235 83.5942 20.512 85.0007L21.9814 84.6993C21.6939 83.2978 21.4064 81.8601 21.1189 80.3864L19.6466 80.6736ZM20.512 85.0007C20.7985 86.3974 21.0853 87.9028 21.3723 89.5173L22.8492 89.2547C22.5602 87.6292 22.2709 86.1106 21.9814 84.6993L20.512 85.0007ZM22.1107 90.136H22.3267V88.636H22.1107V90.136ZM23.0766 89.4027C23.1127 87.7779 23.1307 86.2603 23.1307 84.85H21.6307C21.6307 86.2477 21.6128 87.7541 21.5769 89.3693L23.0766 89.4027ZM23.1305 84.8692C23.1663 83.4713 23.2201 82.0371 23.2918 80.5665L21.7936 80.4935C21.7214 81.9749 21.6671 83.4207 21.631 84.8308L23.1305 84.8692ZM23.2917 80.5689L24.2637 61.8309L22.7657 61.7531L21.7937 80.4911L23.2917 80.5689ZM23.5147 62.542H31.2367V61.042H23.5147V62.542ZM30.4923 61.7007L26.1723 96.9087L27.6612 97.0913L31.9812 61.8833L30.4923 61.7007ZM26.9167 96.25H18.3847V97.75H26.9167V96.25ZM19.1218 96.8613L17.0698 85.9533L15.5957 86.2307L17.6477 97.1387L19.1218 96.8613ZM17.0691 85.9495C16.8548 84.8426 16.6584 83.7175 16.4797 82.5742L14.9977 82.8058C15.1791 83.9665 15.3786 85.1094 15.5964 86.2345L17.0691 85.9495ZM16.4797 82.5742C16.3027 81.4411 16.1793 80.3646 16.109 79.3444L14.6125 79.4476C14.6862 80.5153 14.8148 81.6349 14.9977 82.8058L16.4797 82.5742ZM15.3607 78.646H15.1987V80.146H15.3607V78.646ZM14.4527 79.3188C14.3453 80.357 14.2199 81.4497 14.0765 82.597L15.5649 82.783C15.7095 81.6263 15.8362 80.523 15.9448 79.4732L14.4527 79.3188ZM14.0765 82.597C13.9346 83.7327 13.7572 84.8502 13.5444 85.9495L15.0171 86.2345C15.2363 85.1018 15.4189 83.9513 15.5649 82.783L14.0765 82.597ZM13.5437 85.9533L11.4917 96.8613L12.9658 97.1387L15.0178 86.2307L13.5437 85.9533ZM12.2287 96.25H3.96673V97.75H12.2287V96.25ZM42.5016 96.73L42.2231 97.4264C42.2293 97.4288 42.2354 97.4312 42.2417 97.4335L42.5016 96.73ZM38.1276 93.976L37.6131 94.5217L37.6208 94.5289L38.1276 93.976ZM35.1036 89.602L34.4143 89.8974L34.4165 89.9026L35.1036 89.602ZM35.1036 77.668L35.7908 77.9686L35.793 77.9634L35.1036 77.668ZM38.1276 73.24L37.6208 72.6871L37.6131 72.6943L38.1276 73.24ZM42.5016 70.54L42.7667 71.2417L42.7749 71.2384L42.5016 70.54ZM52.7076 70.54L52.4291 71.2364C52.4353 71.2388 52.4414 71.2412 52.4477 71.2435L52.7076 70.54ZM57.0816 73.24L56.5671 73.7857L56.5748 73.7929L57.0816 73.24ZM60.1596 77.668L59.4703 77.9634L59.4725 77.9686L60.1596 77.668ZM60.1596 89.602L60.8468 89.9026L60.849 89.8974L60.1596 89.602ZM57.0816 93.976L56.5748 93.4231L56.5671 93.4303L57.0816 93.976ZM52.7076 96.73L52.9727 97.4317L52.9809 97.4284L52.7076 96.73ZM51.7356 89.17L51.1166 88.7464L51.1091 88.7578L51.7356 89.17ZM51.7356 78.046L51.109 78.4583L51.1167 78.4695L51.7356 78.046ZM43.4736 78.046L42.8546 77.6224L42.8471 77.6338L43.4736 78.046ZM43.4736 89.17L42.847 89.5823L42.8547 89.5935L43.4736 89.17ZM47.6316 96.898C45.9564 96.898 44.3345 96.6078 42.7616 96.0265L42.2417 97.4335C43.9808 98.0762 45.7788 98.398 47.6316 98.398V96.898ZM42.7802 96.0336C41.245 95.4196 39.8642 94.5504 38.6344 93.4231L37.6208 94.5289C38.9831 95.7776 40.5183 96.7444 42.2231 97.4264L42.7802 96.0336ZM38.6422 93.4303C37.4619 92.3175 36.5099 90.9452 35.7908 89.3014L34.4165 89.9026C35.2093 91.7148 36.2734 93.2585 37.6131 94.5217L38.6422 93.4303ZM35.793 89.3066C35.083 87.6499 34.7196 85.7548 34.7196 83.608H33.2196C33.2196 85.9252 33.6123 88.0261 34.4143 89.8974L35.793 89.3066ZM34.7196 83.608C34.7196 81.4608 35.0831 79.5861 35.7908 77.9686L34.4165 77.3674C33.6122 79.2059 33.2196 81.2912 33.2196 83.608H34.7196ZM35.793 77.9634C36.5129 76.2837 37.4647 74.8959 38.6422 73.7857L37.6131 72.6943C36.2706 73.9601 35.2064 75.5243 34.4143 77.3726L35.793 77.9634ZM38.6344 73.7929C39.8612 72.6684 41.2374 71.8193 42.7667 71.2416L42.2366 69.8384C40.5259 70.4847 38.9861 71.4356 37.6208 72.6871L38.6344 73.7929ZM42.7749 71.2384C44.3446 70.6242 45.9619 70.318 47.6316 70.318V68.818C45.7734 68.818 43.9707 69.1598 42.2283 69.8416L42.7749 71.2384ZM47.6316 70.318C49.3013 70.318 50.8987 70.6242 52.4291 71.2364L52.9862 69.8436C51.2766 69.1598 49.49 68.818 47.6316 68.818V70.318ZM52.4477 71.2435C54.011 71.8212 55.382 72.6682 56.5671 73.7857L57.5962 72.6943C56.2613 71.4358 54.7163 70.4828 52.9676 69.8365L52.4477 71.2435ZM56.5748 73.7929C57.7855 74.9026 58.7523 76.2882 59.4703 77.9634L60.849 77.3726C60.055 75.5198 58.9698 73.9534 57.5884 72.6871L56.5748 73.7929ZM59.4725 77.9686C60.1802 79.5861 60.5436 81.4608 60.5436 83.608H62.0436C62.0436 81.2912 61.6511 79.2059 60.8468 77.3674L59.4725 77.9686ZM60.5436 83.608C60.5436 85.7548 60.1803 87.6499 59.4703 89.3066L60.849 89.8974C61.651 88.0261 62.0436 85.9252 62.0436 83.608H60.5436ZM59.4725 89.3014C58.7553 90.9407 57.7883 92.3108 56.5748 93.4231L57.5884 94.5289C58.967 93.2652 60.052 91.7193 60.8468 89.9026L59.4725 89.3014ZM56.5671 93.4303C55.3789 94.5506 54.0034 95.4176 52.4343 96.0316L52.9809 97.4284C54.7239 96.7464 56.2644 95.7774 57.5962 94.5217L56.5671 93.4303ZM52.4426 96.0284C50.9089 96.6078 49.3068 96.898 47.6316 96.898V98.398C49.4845 98.398 51.2664 98.0762 52.9727 97.4316L52.4426 96.0284ZM47.6316 91.972C49.684 91.972 51.3048 91.1894 52.3622 89.5822L51.1091 88.7578C50.3665 89.8865 49.2512 90.472 47.6316 90.472V91.972ZM52.3546 89.5935C53.4045 88.0591 53.8896 86.0392 53.8896 83.608H52.3896C52.3896 85.8568 51.9388 87.5449 51.1167 88.7465L52.3546 89.5935ZM53.8896 83.608C53.8896 81.1768 53.4045 79.1569 52.3546 77.6225L51.1167 78.4695C51.9388 79.6711 52.3896 81.3592 52.3896 83.608H53.8896ZM52.3622 77.6338C51.3048 76.0265 49.684 75.244 47.6316 75.244V76.744C49.2512 76.744 50.3665 77.3294 51.1091 78.4582L52.3622 77.6338ZM47.6316 75.244C45.5793 75.244 43.9472 76.0257 42.8547 77.6225L44.0926 78.4695C44.8721 77.3303 46.012 76.744 47.6316 76.744V75.244ZM42.8471 77.6338C41.8389 79.1662 41.3736 81.1815 41.3736 83.608H42.8736C42.8736 81.3545 43.3084 79.6618 44.1002 78.4582L42.8471 77.6338ZM41.3736 83.608C41.3736 86.0345 41.8389 88.0498 42.8471 89.5822L44.1002 88.7578C43.3084 87.5542 42.8736 85.8615 42.8736 83.608H41.3736ZM42.8547 89.5935C43.9472 91.1903 45.5793 91.972 47.6316 91.972V90.472C46.012 90.472 44.8721 89.8857 44.0926 88.7465L42.8547 89.5935ZM70.0745 97H69.3245C69.3245 97.4142 69.6603 97.75 70.0745 97.75V97ZM70.0745 70.216V69.466C69.6603 69.466 69.3245 69.8018 69.3245 70.216H70.0745ZM76.5545 70.216L77.3 70.1332C77.2578 69.7534 76.9367 69.466 76.5545 69.466V70.216ZM77.2025 76.048L76.4571 76.1308C76.4993 76.5106 76.8204 76.798 77.2025 76.798V76.048ZM77.3645 76.048V76.798C77.6267 76.798 77.8698 76.6611 78.0058 76.437L77.3645 76.048ZM82.1705 71.188L82.5359 71.8431L82.5453 71.8376L82.1705 71.188ZM91.0805 69.838L90.8986 70.5657L90.9068 70.5676L91.0805 69.838ZM93.4025 70.648L94.1312 70.8257C94.2166 70.4756 94.0409 70.1143 93.7129 69.9652L93.4025 70.648ZM91.7825 77.29L91.5642 78.0075C91.7615 78.0676 91.9748 78.0437 92.1539 77.9416C92.3331 77.8395 92.4623 77.6681 92.5112 77.4677L91.7825 77.29ZM89.5145 76.75L89.3519 77.4821C89.367 77.4855 89.3822 77.4884 89.3976 77.4908L89.5145 76.75ZM82.1165 77.992L81.7307 77.3488L81.7243 77.3528L82.1165 77.992ZM78.0125 83.068L77.3358 82.7448C77.2876 82.8457 77.2625 82.9561 77.2625 83.068H78.0125ZM78.0125 97V97.75C78.4268 97.75 78.7625 97.4142 78.7625 97H78.0125ZM70.8245 97V70.216H69.3245V97H70.8245ZM70.0745 70.966H76.5545V69.466H70.0745V70.966ZM75.8091 70.2988L76.4571 76.1308L77.948 75.9652L77.3 70.1332L75.8091 70.2988ZM77.2025 76.798H77.3645V75.298H77.2025V76.798ZM78.0058 76.437C79.2838 74.33 80.7979 72.8123 82.5358 71.843L81.8052 70.533C79.7992 71.6517 78.1093 73.374 76.7233 75.659L78.0058 76.437ZM82.5453 71.8376C84.3034 70.8233 86.1902 70.318 88.2185 70.318V68.818C85.9269 68.818 83.7817 69.3926 81.7958 70.5384L82.5453 71.8376ZM88.2185 70.318C89.3772 70.318 90.2627 70.4066 90.8986 70.5656L91.2624 69.1104C90.4584 68.9094 89.4359 68.818 88.2185 68.818V70.318ZM90.9068 70.5676C91.6107 70.7352 92.339 70.9884 93.0922 71.3308L93.7129 69.9652C92.8821 69.5876 92.0624 69.3008 91.2543 69.1084L90.9068 70.5676ZM92.6739 70.4703L91.0539 77.1123L92.5112 77.4677L94.1312 70.8257L92.6739 70.4703ZM92.0009 76.5725C91.1475 76.3128 90.357 76.1237 89.6315 76.0092L89.3976 77.4908C90.0401 77.5923 90.7616 77.7632 91.5642 78.0075L92.0009 76.5725ZM89.6772 76.0179C88.9559 75.8576 88.0682 75.784 87.0305 75.784V77.284C88.0089 77.284 88.7772 77.3544 89.3519 77.4821L89.6772 76.0179ZM87.0305 75.784C85.2203 75.784 83.4505 76.317 81.7307 77.3489L82.5024 78.6351C84.0226 77.723 85.5288 77.284 87.0305 77.284V75.784ZM81.7243 77.3528C79.974 78.4268 78.5242 80.2566 77.3358 82.7448L78.6893 83.3912C79.8049 81.0554 81.0911 79.5012 82.5088 78.6312L81.7243 77.3528ZM77.2625 83.068V97H78.7625V83.068H77.2625ZM78.0125 96.25H70.0745V97.75H78.0125V96.25ZM105.369 96.676L105.048 97.3538L105.055 97.357L105.369 96.676ZM101.805 93.922L101.218 94.3884C101.223 94.3948 101.228 94.401 101.234 94.4072L101.805 93.922ZM99.5375 89.494L100.253 89.2703L99.5375 89.494ZM99.6995 77.722L100.402 77.9853L100.402 77.9853L99.6995 77.722ZM102.237 73.348L101.675 72.8518L101.674 72.8529L102.237 73.348ZM105.909 70.54L106.231 71.2178L106.231 71.2178L105.909 70.54ZM114.009 70.324L113.683 70.9994C113.69 71.0025 113.696 71.0055 113.703 71.0084L114.009 70.324ZM116.925 72.43L116.385 72.9498C116.526 73.0969 116.721 73.18 116.925 73.18V72.43ZM117.141 72.43V73.18C117.352 73.18 117.553 73.0914 117.695 72.9358C117.837 72.7802 117.907 72.572 117.888 72.3621L117.141 72.43ZM116.763 68.272H116.013C116.013 68.2947 116.014 68.3173 116.017 68.3399L116.763 68.272ZM116.763 59.146V58.396C116.349 58.396 116.013 58.7318 116.013 59.146H116.763ZM124.701 59.146H125.451C125.451 58.7318 125.116 58.396 124.701 58.396V59.146ZM124.701 97V97.75C125.116 97.75 125.451 97.4142 125.451 97H124.701ZM118.221 97L117.488 97.1581C117.563 97.5035 117.868 97.75 118.221 97.75V97ZM117.627 94.246L118.361 94.0879C118.286 93.7425 117.981 93.496 117.627 93.496V94.246ZM117.465 94.246V93.496C117.271 93.496 117.085 93.5713 116.945 93.7061L117.465 94.246ZM114.549 90.628L114.872 91.3051C114.881 91.3011 114.889 91.2968 114.897 91.2924L114.549 90.628ZM116.763 88.684L117.349 89.1525C117.455 89.0195 117.513 88.8543 117.513 88.684H116.763ZM116.763 77.83H117.513C117.513 77.6174 117.423 77.4148 117.265 77.2725L116.763 77.83ZM114.549 76.48L114.271 77.1764C114.285 77.1818 114.298 77.1869 114.312 77.1915L114.549 76.48ZM108.447 77.884L107.885 77.3877L107.877 77.3973L108.447 77.884ZM108.231 89.332L107.627 89.7763L107.627 89.7763L108.231 89.332ZM110.013 96.898C108.42 96.898 106.98 96.5934 105.684 95.995L105.055 97.357C106.567 98.0546 108.223 98.398 110.013 98.398V96.898ZM105.691 95.9982C104.422 95.3972 103.318 94.5459 102.377 93.4368L101.234 94.4072C102.308 95.6741 103.581 96.6588 105.048 97.3538L105.691 95.9982ZM102.393 93.4556C101.487 92.3144 100.77 90.9239 100.253 89.2703L98.8216 89.7177C99.3848 91.5201 100.18 93.0816 101.218 94.3884L102.393 93.4556ZM100.253 89.2703C99.7402 87.6282 99.4775 85.7437 99.4775 83.608H97.9775C97.9775 85.8643 98.2547 87.9038 98.8216 89.7177L100.253 89.2703ZM99.4775 83.608C99.4775 81.4853 99.7906 79.6148 100.402 77.9853L98.9972 77.4587C98.3123 79.2852 97.9775 81.3387 97.9775 83.608H99.4775ZM100.402 77.9853C101.023 76.3284 101.826 74.9525 102.801 73.8431L101.674 72.8529C100.561 74.1195 99.6719 75.6596 98.9972 77.4587L100.402 77.9853ZM102.8 73.8442C103.818 72.6904 104.961 71.8189 106.231 71.2178L105.588 69.8622C104.121 70.5571 102.817 71.5576 101.675 72.8518L102.8 73.8442ZM106.231 71.2178C107.501 70.6161 108.813 70.318 110.175 70.318V68.818C108.586 68.818 107.054 69.1679 105.588 69.8622L106.231 71.2178ZM110.175 70.318C111.608 70.318 112.767 70.5571 113.683 70.9994L114.336 69.6486C113.164 69.0829 111.767 68.818 110.175 68.818V70.318ZM113.703 71.0084C114.648 71.4321 115.543 72.0739 116.385 72.9498L117.466 71.9102C116.508 70.9141 115.459 70.1519 114.316 69.6396L113.703 71.0084ZM116.925 73.18H117.141V71.68H116.925V73.18ZM117.888 72.3621L117.51 68.2041L116.017 68.3399L116.395 72.4979L117.888 72.3621ZM117.513 68.272V59.146H116.013V68.272H117.513ZM116.763 59.896H124.701V58.396H116.763V59.896ZM123.951 59.146V97H125.451V59.146H123.951ZM124.701 96.25H118.221V97.75H124.701V96.25ZM118.955 96.8419L118.361 94.0879L116.894 94.4041L117.488 97.1581L118.955 96.8419ZM117.627 93.496H117.465V94.996H117.627V93.496ZM116.945 93.7061C115.993 94.6235 114.904 95.39 113.674 96.0052L114.345 97.3468C115.706 96.666 116.921 95.8125 117.986 94.7859L116.945 93.7061ZM113.674 96.0052C112.476 96.6043 111.258 96.898 110.013 96.898V98.398C111.505 98.398 112.951 98.0437 114.345 97.3468L113.674 96.0052ZM112.065 91.918C113.069 91.918 114.008 91.7166 114.872 91.3051L114.227 89.9509C113.579 90.2594 112.862 90.418 112.065 90.418V91.918ZM114.897 91.2924C115.772 90.8345 116.586 90.1067 117.349 89.1525L116.178 88.2155C115.501 89.0613 114.839 89.6295 114.201 89.9636L114.897 91.2924ZM117.513 88.684V77.83H116.013V88.684H117.513ZM117.265 77.2725C116.485 76.5701 115.659 76.0593 114.787 75.7685L114.312 77.1915C114.952 77.4047 115.602 77.7939 116.262 78.3875L117.265 77.2725ZM114.828 75.7836C114.017 75.4594 113.167 75.298 112.281 75.298V76.798C112.98 76.798 113.641 76.9246 114.271 77.1764L114.828 75.7836ZM112.281 75.298C110.566 75.298 109.091 76.0216 107.885 77.3878L109.01 78.3802C109.964 77.2984 111.045 76.798 112.281 76.798V75.298ZM107.877 77.3973C106.667 78.8155 106.131 80.8975 106.131 83.5H107.631C107.631 81.0625 108.14 79.4005 109.018 78.3707L107.877 77.3973ZM106.131 83.5C106.131 86.2169 106.584 88.358 107.627 89.7763L108.836 88.8877C108.079 87.858 107.631 86.1111 107.631 83.5H106.131ZM107.627 89.7763C108.683 91.2117 110.196 91.918 112.065 91.918V90.418C110.623 90.418 109.58 89.9003 108.836 88.8877L107.627 89.7763ZM134.076 107.314L134.193 106.573C134.181 106.571 134.168 106.569 134.155 106.568L134.076 107.314ZM132.186 106.936L131.456 106.766C131.367 107.149 131.588 107.535 131.963 107.652L132.186 106.936ZM133.59 100.888L133.816 100.173C133.617 100.11 133.4 100.133 133.219 100.237C133.037 100.34 132.907 100.515 132.86 100.718L133.59 100.888ZM139.314 100.24L138.876 99.6313C138.872 99.6342 138.868 99.6371 138.864 99.64L139.314 100.24ZM141.312 97.702L142.005 97.9888C142.008 97.983 142.01 97.9771 142.012 97.9712L141.312 97.702ZM141.852 96.298L142.552 96.5672C142.624 96.3814 142.618 96.1749 142.538 95.993L141.852 96.298ZM130.242 70.216V69.466C129.988 69.466 129.752 69.5945 129.613 69.8075C129.475 70.0205 129.454 70.289 129.557 70.521L130.242 70.216ZM138.126 70.216L138.825 69.9437C138.713 69.6557 138.435 69.466 138.126 69.466V70.216ZM142.608 81.718L141.91 81.9903L141.912 81.9965L142.608 81.718ZM144.012 85.66L143.297 85.8859L143.299 85.8914L144.012 85.66ZM145.308 89.764L144.592 89.9846C144.688 90.2993 144.979 90.514 145.308 90.514V89.764ZM145.524 89.764V90.514C145.863 90.514 146.16 90.2868 146.248 89.9597L145.524 89.764ZM146.712 85.768L147.426 85.9994L147.428 85.9938L146.712 85.768ZM147.954 81.718L147.245 81.4748C147.242 81.4846 147.238 81.4944 147.235 81.5043L147.954 81.718ZM151.896 70.216V69.466C151.576 69.466 151.291 69.6697 151.187 69.9728L151.896 70.216ZM159.402 70.216L160.101 70.4892C160.191 70.2584 160.162 69.9979 160.022 69.7932C159.882 69.5885 159.65 69.466 159.402 69.466V70.216ZM148.818 97.27L148.12 96.9967L148.118 97.0018L148.818 97.27ZM146.712 101.698L146.069 101.312L146.065 101.32L146.712 101.698ZM144.12 104.884L143.634 104.313C143.63 104.316 143.626 104.32 143.622 104.323L144.12 104.884ZM140.718 106.828L140.481 106.116L140.475 106.119L140.718 106.828ZM136.29 106.726C135.532 106.726 134.834 106.674 134.193 106.573L133.959 108.055C134.687 108.17 135.465 108.226 136.29 108.226V106.726ZM134.155 106.568C133.513 106.501 132.933 106.383 132.41 106.22L131.963 107.652C132.592 107.849 133.271 107.983 133.998 108.06L134.155 106.568ZM132.917 107.106L134.321 101.058L132.86 100.718L131.456 106.766L132.917 107.106ZM133.365 101.603C134.122 101.842 134.9 101.962 135.696 101.962V100.462C135.053 100.462 134.427 100.366 133.816 100.173L133.365 101.603ZM135.696 101.962C137.339 101.962 138.725 101.62 139.764 100.84L138.864 99.64C138.176 100.156 137.15 100.462 135.696 100.462V101.962ZM139.753 100.849C140.768 100.118 141.521 99.1591 142.005 97.9888L140.619 97.4152C140.24 98.3329 139.661 99.0665 138.876 99.6313L139.753 100.849ZM142.012 97.9712L142.552 96.5672L141.152 96.0288L140.612 97.4328L142.012 97.9712ZM142.538 95.993L130.928 69.911L129.557 70.521L141.167 96.603L142.538 95.993ZM130.242 70.966H138.126V69.466H130.242V70.966ZM137.428 70.4883L141.91 81.9903L143.307 81.4457L138.825 69.9437L137.428 70.4883ZM141.912 81.9965C142.409 83.2383 142.87 84.5346 143.297 85.8858L144.728 85.4342C144.29 84.0494 143.816 82.7177 143.305 81.4395L141.912 81.9965ZM143.299 85.8914C143.73 87.2196 144.161 88.584 144.592 89.9846L146.025 89.5434C145.592 88.136 145.159 86.7644 144.726 85.4286L143.299 85.8914ZM145.308 90.514H145.524V89.014H145.308V90.514ZM146.248 89.9597C146.605 88.6398 146.998 87.3197 147.426 85.9994L145.999 85.5366C145.563 86.8803 145.164 88.2242 144.8 89.5683L146.248 89.9597ZM147.428 85.9938C147.861 84.6219 148.276 83.2679 148.673 81.9317L147.235 81.5043C146.841 82.8321 146.428 84.1781 145.997 85.5422L147.428 85.9938ZM148.664 81.9612L152.606 70.4592L151.187 69.9728L147.245 81.4748L148.664 81.9612ZM151.896 70.966H159.402V69.466H151.896V70.966ZM158.704 69.9428L148.12 96.9968L149.517 97.5432L160.101 70.4892L158.704 69.9428ZM148.118 97.0018C147.482 98.662 146.798 100.097 146.069 101.312L147.355 102.084C148.138 100.779 148.859 99.262 149.519 97.5382L148.118 97.0018ZM146.065 101.32C145.344 102.556 144.532 103.549 143.634 104.313L144.607 105.455C145.653 104.563 146.569 103.432 147.36 102.076L146.065 101.32ZM143.622 104.323C142.73 105.117 141.686 105.715 140.481 106.116L140.956 107.54C142.343 107.077 143.567 106.379 144.619 105.445L143.622 104.323ZM140.475 106.119C139.311 106.518 137.921 106.726 136.29 106.726V108.226C138.044 108.226 139.605 108.002 140.962 107.537L140.475 106.119Z" fill="#45413C"/>
</g>
<defs>
<clipPath id="clip0">
<rect width="160" height="160" fill="white"/>
</clipPath>
</defs>
</svg>
