<svg viewBox="0 0 160 160" height="160" width="160" xmlns="http://www.w3.org/2000/svg"><g transform="matrix(1.6,0,0,1.6,0,0)"><path d="M10.000 50.000 A40.000 40.000 0 1 0 90.000 50.000 A40.000 40.000 0 1 0 10.000 50.000 Z" fill="#C7F0FF" stroke="#C7F0FF"></path><path d="M32.260 80.654 A12.65 1.725 0 1 0 57.560 80.654 A12.65 1.725 0 1 0 32.260 80.654 Z" fill="#45413c" opacity=".15"></path><path d="M26.493,23.356H54.265L65.374,34.465V72.148a1.388,1.388,0,0,1-1.388,1.389H26.493A1.389,1.389,0,0,1,25.1,72.148v-47.4A1.389,1.389,0,0,1,26.493,23.356Z" fill="#fff"></path><path d="M63.986,70.29H26.493A1.389,1.389,0,0,1,25.1,68.9v3.247a1.389,1.389,0,0,0,1.389,1.389H63.986a1.388,1.388,0,0,0,1.388-1.389V68.9A1.388,1.388,0,0,1,63.986,70.29Z" fill="#fff5eb"></path><path d="M26.493,23.356H54.265L65.374,34.465V72.148a1.388,1.388,0,0,1-1.388,1.389H26.493A1.389,1.389,0,0,1,25.1,72.148v-47.4A1.389,1.389,0,0,1,26.493,23.356Z" fill="none" stroke="#45413c" stroke-linecap="round" stroke-linejoin="round"></path><path d="M65.374,34.465,54.265,23.356v9.72a1.389,1.389,0,0,0,1.389,1.389Z" fill="#C7F0FF" stroke="#45413c" stroke-linecap="round" stroke-linejoin="round"></path><path d="M32.557 33.706L47.832 33.706" fill="none" stroke="#8ca4b8" stroke-linecap="round" stroke-linejoin="round"></path><path d="M32.557 40.187L47.832 40.187" fill="none" stroke="#8ca4b8" stroke-linecap="round" stroke-linejoin="round"></path><path d="M32.557 46.799L58.454 46.799" fill="none" stroke="#8ca4b8" stroke-linecap="round" stroke-linejoin="round"></path><path d="M32.557 53.124L58.454 53.124" fill="none" stroke="#8ca4b8" stroke-linecap="round" stroke-linejoin="round"></path><path d="M32.557 59.737L58.454 59.737" fill="none" stroke="#8ca4b8" stroke-linecap="round" stroke-linejoin="round"></path><path d="M32.557 66.062L58.454 66.062" fill="none" stroke="#8ca4b8" stroke-linecap="round" stroke-linejoin="round"></path><path d="M70.971 41.831H74.46300000000001V50.562000000000005H70.971z" fill="#c0dceb" stroke="#45413c" stroke-linecap="round" stroke-linejoin="round" transform="translate(-11.367 64.95) rotate(-45)"></path><path d="M71.483,22.736a15.716,15.716,0,1,1-22.226,0A15.717,15.717,0,0,1,71.483,22.736Z" fill="#C7F0FF" stroke="#45413c" stroke-linecap="round" stroke-linejoin="round"></path><path d="M68.4,25.823a11.35,11.35,0,1,1-16.052,0A11.35,11.35,0,0,1,68.4,25.823Z" fill="#C7F0FF"></path><path d="M66.975,43.082a11.351,11.351,0,1,1,0-18.464Z" fill="none" stroke="#45413c" stroke-linecap="round" stroke-linejoin="round"></path><path d="M66.975,43.082a11.351,11.351,0,1,1,0-18.464Z" fill="#C7F0FF"></path><path d="M52.344,41.875A11.35,11.35,0,0,1,68.4,25.823Z" fill="#fff"></path><path d="M68.4,25.823a11.35,11.35,0,1,1-16.052,0A11.35,11.35,0,0,1,68.4,25.823Z" fill="none" stroke="#45413c" stroke-linecap="round" stroke-linejoin="round"></path><path d="M66.975,43.082a11.351,11.351,0,1,1,0-18.464Z" fill="none" stroke="#45413c" stroke-linecap="round" stroke-linejoin="round"></path><path d="M87.534,56.075A3.492,3.492,0,0,1,82.6,61.014l-7.958-7.958a1.842,1.842,0,0,1,0-2.606l2.333-2.333a1.842,1.842,0,0,1,2.606,0Z" fill="#bf8256"></path><path d="M87.535,56.074l-7.958-7.958a1.844,1.844,0,0,0-2.606,0L75.8,49.283,87.535,61.014A3.493,3.493,0,0,0,87.535,56.074Z" fill="#dea47a"></path><path d="M87.534,56.075A3.492,3.492,0,0,1,82.6,61.014l-7.958-7.958a1.842,1.842,0,0,1,0-2.606l2.333-2.333a1.842,1.842,0,0,1,2.606,0Z" fill="none" stroke="#45413c" stroke-linecap="round" stroke-linejoin="round"></path></g></svg>