<svg xmlns="http://www.w3.org/2000/svg" version="1.1" xmlns:xlink="http://www.w3.org/1999/xlink" xmlns:svgjs="http://svgjs.com/svgjs" viewBox="0 0 160 160" width="160" height="160"><g transform="matrix(1.6,0,0,1.6,0,0)"><path d="M10.000 50.000 A40.000 40.000 0 1 0 90.000 50.000 A40.000 40.000 0 1 0 10.000 50.000 Z" fill="#c7f0ff" stroke="#c7f0ff" stroke-miterlimit="10"></path><path d="M32.117,68.452A1.178,1.178,0,0,0,33.3,69.63h34.17a1.178,1.178,0,0,0,1.179-1.178V30.158L58.628,20.143H33.3a1.178,1.178,0,0,0-1.178,1.178Z" fill="#ffffff"></path><path d="M51.075,47.916a1.1,1.1,0,0,0-1.1-1.1H32.117V68.452A1.179,1.179,0,0,0,33.3,69.63H51.075Z" fill="#e0e0e0"></path><path d="M32.117,68.452A1.178,1.178,0,0,0,33.3,69.63h34.17a1.178,1.178,0,0,0,1.179-1.178V30.158L58.628,20.143H33.3a1.178,1.178,0,0,0-1.178,1.178Z" fill="none" stroke="#45413c" stroke-linecap="round" stroke-linejoin="round"></path><path d="M68.644,30.158H59.728a1.1,1.1,0,0,1-1.1-1.1V20.143Z" fill="#ffffff" stroke="#45413c" stroke-linecap="round" stroke-linejoin="round"></path><path d="M23.723 50.116 L47.774 50.116 L47.774 74.167 L23.723 74.167 Z" fill="#009fd9" stroke="#45413c" stroke-linecap="round" stroke-linejoin="round"></path><path d="M27.658 54.051H43.839V70.232H27.658z" fill="#ffffff" stroke="#ffffff" stroke-linecap="round" stroke-linejoin="round"></path><path d="M41.576 57.984L38.963 66.298 35.749 57.984 32.535 66.298 29.922 57.984" fill="none" stroke="#009fd9" stroke-linecap="round" stroke-linejoin="round" stroke-width="2"></path><path d="M34.877 81.104 A15.503 1.897 0 1 0 65.883 81.104 A15.503 1.897 0 1 0 34.877 81.104 Z" fill="#45413c" opacity=".15"></path></g></svg>