<svg width="160" height="160" viewBox="0 0 160 160" fill="none" xmlns="http://www.w3.org/2000/svg">
<path d="M16 80C16 96.9739 22.7428 113.253 34.7452 125.255C46.7475 137.257 63.0261 144 80 144C96.9739 144 113.253 137.257 125.255 125.255C137.257 113.253 144 96.9739 144 80C144 63.0261 137.257 46.7475 125.255 34.7452C113.253 22.7428 96.9739 16 80 16C63.0261 16 46.7475 22.7428 34.7452 34.7452C22.7428 46.7475 16 63.0261 16 80V80Z" fill="#CDF2FF"/>
<path d="M5.332 89L11.524 79.712L5.728 71.144H11.416L13.252 74.024C13.516 74.528 13.816 75.044 14.152 75.572C14.488 76.076 14.812 76.58 15.124 77.084H15.268C15.508 76.58 15.748 76.064 15.988 75.536C16.252 75.008 16.504 74.504 16.744 74.024L18.328 71.144H23.872L18.04 80.324L24.232 89H18.544L16.492 86.048C16.156 85.544 15.808 85.028 15.448 84.5C15.112 83.972 14.776 83.456 14.44 82.952H14.296C14.032 83.456 13.756 83.972 13.468 84.5C13.18 85.004 12.904 85.52 12.64 86.048L10.876 89H5.332ZM36.3859 89.432C35.2099 89.432 34.0699 89.228 32.9659 88.82C31.8859 88.388 30.9139 87.776 30.0499 86.984C29.2099 86.192 28.5379 85.22 28.0339 84.068C27.5299 82.892 27.2779 81.56 27.2779 80.072C27.2779 78.584 27.5299 77.264 28.0339 76.112C28.5379 74.936 29.2099 73.952 30.0499 73.16C30.9139 72.368 31.8859 71.768 32.9659 71.36C34.0699 70.928 35.2099 70.712 36.3859 70.712C37.5619 70.712 38.6899 70.928 39.7699 71.36C40.8739 71.768 41.8459 72.368 42.6859 73.16C43.5499 73.952 44.2339 74.936 44.7379 76.112C45.2419 77.264 45.4939 78.584 45.4939 80.072C45.4939 81.56 45.2419 82.892 44.7379 84.068C44.2339 85.22 43.5499 86.192 42.6859 86.984C41.8459 87.776 40.8739 88.388 39.7699 88.82C38.6899 89.228 37.5619 89.432 36.3859 89.432ZM36.3859 85.148C37.6099 85.148 38.5219 84.692 39.1219 83.78C39.7459 82.868 40.0579 81.632 40.0579 80.072C40.0579 78.512 39.7459 77.276 39.1219 76.364C38.5219 75.452 37.6099 74.996 36.3859 74.996C35.1619 74.996 34.2379 75.452 33.6139 76.364C33.0139 77.276 32.7139 78.512 32.7139 80.072C32.7139 81.632 33.0139 82.868 33.6139 83.78C34.2379 84.692 35.1619 85.148 36.3859 85.148ZM51.3479 89V71.144H55.6679L56.0999 75.032H56.2079C57.0959 73.568 58.1639 72.488 59.4119 71.792C60.6599 71.072 62.0039 70.712 63.4439 70.712C64.2359 70.712 64.8719 70.772 65.3519 70.892C65.8559 71.012 66.3719 71.192 66.8999 71.432L65.8199 75.86C65.2679 75.692 64.7639 75.572 64.3079 75.5C63.8759 75.404 63.3239 75.356 62.6519 75.356C61.5479 75.356 60.4559 75.68 59.3759 76.328C58.3199 76.976 57.4079 78.104 56.6399 79.712V89H51.3479ZM81.1058 89.432C79.6898 89.432 78.3818 89.228 77.1818 88.82C75.9818 88.388 74.9258 87.776 74.0138 86.984C73.1258 86.192 72.4298 85.22 71.9258 84.068C71.4218 82.892 71.1698 81.56 71.1698 80.072C71.1698 78.584 71.4458 77.264 71.9978 76.112C72.5738 74.936 73.3298 73.952 74.2658 73.16C75.2258 72.368 76.3298 71.768 77.5778 71.36C78.8258 70.928 80.1338 70.712 81.5018 70.712C82.9178 70.712 84.1898 70.94 85.3178 71.396C86.4698 71.852 87.4298 72.428 88.1978 73.124L85.7498 76.4C84.4298 75.464 83.1098 74.996 81.7898 74.996C80.2538 74.996 79.0058 75.452 78.0458 76.364C77.0858 77.276 76.6058 78.512 76.6058 80.072C76.6058 81.632 77.0618 82.868 77.9738 83.78C78.9098 84.692 80.1218 85.148 81.6098 85.148C82.5458 85.148 83.3978 84.98 84.1658 84.644C84.9578 84.308 85.6778 83.912 86.3258 83.456L88.4498 86.804C87.3698 87.716 86.1818 88.388 84.8858 88.82C83.5898 89.228 82.3298 89.432 81.1058 89.432ZM100.352 89V75.284H93.1878V71.144H105.644V89H100.352ZM102.764 68.336C101.732 68.336 100.88 68.048 100.208 67.472C99.5598 66.896 99.2358 66.116 99.2358 65.132C99.2358 64.148 99.5598 63.356 100.208 62.756C100.88 62.132 101.732 61.82 102.764 61.82C103.796 61.82 104.636 62.132 105.284 62.756C105.956 63.356 106.292 64.148 106.292 65.132C106.292 66.116 105.956 66.896 105.284 67.472C104.636 68.048 103.796 68.336 102.764 68.336ZM122.586 89.432C120.978 89.432 119.406 89.168 117.87 88.64C116.334 88.112 114.99 87.464 113.838 86.696L116.106 83.384C117.21 84.08 118.362 84.608 119.562 84.968C120.762 85.328 122.01 85.508 123.306 85.508C124.29 85.508 125.01 85.364 125.466 85.076C125.922 84.788 126.15 84.428 126.15 83.996C126.15 83.756 126.078 83.54 125.934 83.348C125.814 83.156 125.586 82.988 125.25 82.844C124.938 82.676 124.494 82.52 123.918 82.376C123.342 82.232 122.622 82.064 121.758 81.872C119.334 81.344 117.594 80.636 116.538 79.748C115.482 78.836 114.954 77.684 114.954 76.292C114.954 75.476 115.146 74.72 115.53 74.024C115.914 73.328 116.454 72.74 117.15 72.26C117.87 71.78 118.734 71.408 119.742 71.144C120.75 70.856 121.89 70.712 123.162 70.712C124.77 70.712 126.222 70.976 127.518 71.504C128.838 72.008 129.966 72.56 130.902 73.16L128.526 76.328C127.614 75.776 126.666 75.356 125.682 75.068C124.698 74.78 123.702 74.636 122.694 74.636C121.854 74.636 121.23 74.768 120.822 75.032C120.414 75.296 120.21 75.632 120.21 76.04C120.21 76.544 120.522 76.904 121.146 77.12C121.77 77.336 122.838 77.612 124.35 77.948C125.718 78.26 126.858 78.596 127.77 78.956C128.682 79.316 129.402 79.724 129.93 80.18C130.458 80.636 130.83 81.152 131.046 81.728C131.262 82.304 131.37 82.952 131.37 83.672C131.37 84.488 131.178 85.244 130.794 85.94C130.41 86.636 129.846 87.248 129.102 87.776C128.382 88.28 127.47 88.688 126.366 89C125.286 89.288 124.026 89.432 122.586 89.432ZM134.776 89V71.144H138.772L139.132 73.34H139.276C139.612 72.62 140.08 72.008 140.68 71.504C141.28 70.976 142.096 70.712 143.128 70.712C143.896 70.712 144.544 70.964 145.072 71.468C145.624 71.948 146.008 72.668 146.224 73.628C146.56 72.812 147.04 72.128 147.664 71.576C148.312 71 149.152 70.712 150.184 70.712C151.48 70.712 152.464 71.228 153.136 72.26C153.832 73.268 154.18 74.672 154.18 76.472V89H149.14V76.832C149.14 76.28 149.068 75.872 148.924 75.608C148.78 75.344 148.528 75.212 148.168 75.212C147.832 75.212 147.544 75.356 147.304 75.644C147.064 75.932 146.812 76.364 146.548 76.94V89H142.408V76.832C142.408 75.752 142.072 75.212 141.4 75.212C141.064 75.212 140.776 75.356 140.536 75.644C140.296 75.932 140.056 76.364 139.816 76.94V89H134.776Z" fill="url(#paint0_linear)"/>
<defs>
<linearGradient id="paint0_linear" x1="80" y1="46" x2="80" y2="107" gradientUnits="userSpaceOnUse">
<stop stop-color="#2200FF"/>
<stop offset="1" stop-color="#9E00FF"/>
</linearGradient>
</defs>
</svg>
