<svg xmlns="http://www.w3.org/2000/svg" version="1.1" xmlns:xlink="http://www.w3.org/1999/xlink" xmlns:svgjs="http://svgjs.com/svgjs" viewBox="0 0 160 160" width="160" height="160"><g transform="matrix(1.6,0,0,1.6,0,0)"><path d="M10.013 54.919 A40.000 40.000 0 1 0 90.013 54.919 A40.000 40.000 0 1 0 10.013 54.919 Z" fill="#c7f0ff"></path><path d="M62.527,13.743l13.412,23.47V55.655H34.027C39.2,51.532,60.233,27.323,62.527,13.743Z" fill="#ffe500"></path><path d="M65.683,19.266l-3.156-5.523c-2.294,13.58-23.326,37.789-28.5,41.912h6.049C46.5,49.415,61.315,31.7,65.683,19.266Z" fill="#fff48c"></path><path d="M75.939 61.201L75.939 25.478" fill="none" stroke="#45413c" stroke-linecap="round" stroke-linejoin="round"></path><path d="M62.527,62.026V60.808a1.676,1.676,0,0,0-1.8-1.672L40.614,60.573a1.677,1.677,0,0,0-1.557,1.672v1.224Z" fill="#bf8256" stroke="#45413c" stroke-linecap="round" stroke-linejoin="round"></path><path d="M31.177,67.39H28.559a1.5,1.5,0,0,0-1.419,1.023l-1.335,4.006h7.384Z" fill="#bf8256" stroke="#45413c" stroke-linecap="round" stroke-linejoin="round"></path><path d="M33.189 72.419L28.874 61.632" fill="none" stroke="#45413c" stroke-linecap="round" stroke-linejoin="round"></path><path d="M30.992,63.965,82.77,60.781a.839.839,0,0,1,.781,1.253h0a20.613,20.613,0,0,1-17.9,10.385H33.189l-2.923-7.306A.838.838,0,0,1,30.992,63.965Z" fill="#ff8a14"></path><path d="M31.107,67.215,82.2,64.074a20.727,20.727,0,0,0,1.354-2.04.839.839,0,0,0-.781-1.253L30.992,63.965a.838.838,0,0,0-.726,1.148Z" fill="#ffaa54"></path><path d="M75.939 55.655L32.351 55.655" fill="none" stroke="#45413c" stroke-linecap="round" stroke-linejoin="round"></path><path d="M30.992,63.965,82.77,60.781a.839.839,0,0,1,.781,1.253h0a20.613,20.613,0,0,1-17.9,10.385H33.189l-2.923-7.306A.838.838,0,0,1,30.992,63.965Z" fill="none" stroke="#45413c" stroke-linecap="round" stroke-linejoin="round"></path><path d="M41.464,48l7.652,7.652H62.527L47.52,40.647C45.439,43.321,43.367,45.822,41.464,48Z" fill="#ffffff"></path><path d="M75.939,42.243,58.293,24.6c-1.476,2.72-3.226,5.527-5.113,8.3L75.939,55.655Z" fill="#ffffff"></path><path d="M62.527,13.743l13.412,23.47V55.655H34.027C39.2,51.532,60.233,27.323,62.527,13.743Z" fill="none" stroke="#45413c" stroke-linecap="round" stroke-linejoin="round"></path><path d="M41.464,48l7.652,7.652H62.527L47.52,40.647C45.439,43.321,43.367,45.822,41.464,48Z" fill="none" stroke="#45413c" stroke-linecap="round" stroke-linejoin="round"></path><path d="M75.939,42.243,58.293,24.6c-1.476,2.72-3.226,5.527-5.113,8.3L75.939,55.655Z" fill="none" stroke="#45413c" stroke-linecap="round" stroke-linejoin="round"></path><path d="M77.179,69.288a6.4,6.4,0,0,1-11.034,0,6.4,6.4,0,0,1-11.034,0,6.4,6.4,0,0,1-11.034,0,6.4,6.4,0,0,1-11.034,0,6.4,6.4,0,0,1-11.034,0s-.887,3.152-3.152,3.152H14.049a40.009,40.009,0,0,0,71.928,0H80.331C78.065,72.44,77.179,69.288,77.179,69.288Z" fill="#4acfff"></path><path d="M89.013 72.419L92 72.419" fill="none" stroke="#45413c" stroke-linecap="round" stroke-linejoin="round"></path><path d="M8 72.419L11.013 72.419" fill="none" stroke="#45413c" stroke-linecap="round" stroke-linejoin="round"></path><path d="M87.013,72.44H80.331c-2.266,0-3.152-3.152-3.152-3.152a6.4,6.4,0,0,1-11.034,0,6.4,6.4,0,0,1-11.034,0,6.4,6.4,0,0,1-11.034,0,6.4,6.4,0,0,1-11.034,0,6.4,6.4,0,0,1-11.034,0s-.887,3.152-3.152,3.152H13.013" fill="none" stroke="#45413c" stroke-linecap="round" stroke-linejoin="round"></path><path d="M45.828,79.826a3.759,3.759,0,0,1-3.336-1.907,3.871,3.871,0,0,1-6.671,0,3.871,3.871,0,0,1-6.672,0,3.757,3.757,0,0,1-3.336,1.907" fill="none" stroke="#b8ecff" stroke-linecap="round" stroke-linejoin="round"></path><path d="M72.513,82.685a3.76,3.76,0,0,1-3.335-1.906,3.872,3.872,0,0,1-6.672,0,3.758,3.758,0,0,1-3.335,1.906" fill="none" stroke="#b8ecff" stroke-linecap="round" stroke-linejoin="round"></path><path d="M52.856,88.826a3.762,3.762,0,0,1-3.336-1.907,3.871,3.871,0,0,1-6.671,0,3.757,3.757,0,0,1-3.336,1.907" fill="none" stroke="#b8ecff" stroke-linecap="round" stroke-linejoin="round"></path><path d="M16.442 19.331 A8.382 8.382 0 1 0 33.206 19.331 A8.382 8.382 0 1 0 16.442 19.331 Z" fill="#ffe500"></path><path d="M16.442 19.331 A8.382 8.382 0 1 0 33.206 19.331 A8.382 8.382 0 1 0 16.442 19.331 Z" fill="none" stroke="#45413c" stroke-linecap="round" stroke-linejoin="round"></path><path d="M24.824 7.595L24.824 5.081" fill="none" stroke="#45413c" stroke-linecap="round" stroke-linejoin="round"></path><path d="M33.122 11.033L34.9 9.254" fill="none" stroke="#45413c" stroke-linecap="round" stroke-linejoin="round"></path><path d="M36.559 19.331L39.074 19.331" fill="none" stroke="#45413c" stroke-linecap="round" stroke-linejoin="round"></path><path d="M33.122 27.629L34.9 29.407" fill="none" stroke="#45413c" stroke-linecap="round" stroke-linejoin="round"></path><path d="M24.824 31.066L24.824 33.581" fill="none" stroke="#45413c" stroke-linecap="round" stroke-linejoin="round"></path><path d="M16.526 27.629L14.748 29.407" fill="none" stroke="#45413c" stroke-linecap="round" stroke-linejoin="round"></path><path d="M13.089 19.331L10.574 19.331" fill="none" stroke="#45413c" stroke-linecap="round" stroke-linejoin="round"></path><path d="M16.526 11.033L14.748 9.254" fill="none" stroke="#45413c" stroke-linecap="round" stroke-linejoin="round"></path></g></svg>