<svg width="160" height="160" fill="none" xmlns="http://www.w3.org/2000/svg">
  <path d="M80.0627 49.3284c-8.637 0-14.218 12.1615-14.218 30.983 0 18.66 5.448 30.2516 14.218 30.2516 12.371 0 14.218-19.4121 14.218-30.9831 0-13.801-2.467-30.2515-14.218-30.2515z" fill="#C7F0FF"/>
  <path d="M132.998 27.0032c-29.269-29.2695-76.7253-29.2695-105.9948 0-29.2695 29.2695-29.2695 76.7258 0 105.9948 29.2695 29.27 76.7258 29.27 105.9948 0 29.27-29.269 29.27-76.7253 0-105.9948zM79.4472 122.942c-17.43 0-28.4115-16.375-28.6595-42.7338 0-13.228 2.858-24.222 8.265-31.813 5.334-7.489 12.855-11.447 21.7495-11.447 17.868 0 28.5358 15.7545 28.5358 42.144.001 27.8678-10.8943 43.8498-29.8908 43.8498z" fill="#C7F0FF"/>
  <path d="M80.8028 36.948c-8.8945 0-16.4155 3.9585-21.7495 11.447-5.4075 7.5905-8.265 18.5845-8.265 31.813.248 26.359 11.2295 42.734 28.6595 42.734 18.9965 0 29.8912-15.982 29.8912-43.85 0-26.389-10.6682-42.144-28.5362-42.144zm-.7395 73.614c-8.77 0-14.218-11.591-14.218-30.251 0-18.8215 5.5805-30.983 14.218-30.983 11.751 0 14.218 16.451 14.218 30.2515 0 11.571-1.847 30.9825-14.218 30.9825z" fill="url(#paint0_linear)"/>
  <defs>
    <linearGradient id="paint0_linear" x1="80.0638" y1="36.948" x2="80.0638" y2="122.942" gradientUnits="userSpaceOnUse">
      <stop stop-color="#20F"/>
      <stop offset="1" stop-color="#9E00FF"/>
    </linearGradient>
  </defs>
</svg>
