<svg viewBox="0 0 100 100" xmlns="http://www.w3.org/2000/svg" id="Wall-Construction--Streamline-Ux" height="100" width="100"><desc>Wall Construction Streamline Illustration: https://streamlinehq.com</desc><path d="M1.554 50a40 40 0 1 0 80 0 40 40 0 1 0 -80 0Z" fill="#daedf7" stroke="#daedf7" stroke-width="1"></path><path d="M4.722 65.624a40.014 40.014 0 0 0 73.664 0Z" fill="#f7e5c6" stroke-width="1"></path><path d="m78.386 65.624 -73.664 0" fill="none" stroke="#45413c" stroke-linecap="round" stroke-linejoin="round" stroke-width="1"></path><path d="M10.849 58.475h11.55v7.149h-11.55z" fill="#ff8a14" stroke-width="1"></path><path d="M10.849 61.954h11.55v3.67h-11.55z" fill="#eb6d00" stroke-width="1"></path><path d="M10.849 58.475h11.55v7.149h-11.55z" fill="none" stroke="#45413c" stroke-linecap="round" stroke-linejoin="round" stroke-width="1"></path><path d="M10.849 44.557h11.55v6.959h-11.55z" fill="#ff8a14" stroke-width="1"></path><path d="M10.849 48.037h11.55v3.479h-11.55z" fill="#eb6d00" stroke-width="1"></path><path d="M10.849 44.557h11.55v6.959h-11.55z" fill="none" stroke="#45413c" stroke-linecap="round" stroke-linejoin="round" stroke-width="1"></path><path d="M17.149 51.516h11.55v6.959h-11.55z" fill="#ff8a14" stroke-width="1"></path><path d="M17.149 54.996h11.55v3.479h-11.55z" fill="#eb6d00" stroke-width="1"></path><path d="M17.149 51.516h11.55v6.959h-11.55z" fill="none" stroke="#45413c" stroke-linecap="round" stroke-linejoin="round" stroke-width="1"></path><path d="M5.599 51.516h11.55v6.959H5.599z" fill="#ff8a14" stroke-width="1"></path><path d="M5.599 54.996h11.55v3.479H5.599z" fill="#eb6d00" stroke-width="1"></path><path d="M5.599 51.516h11.55v6.959H5.599z" fill="none" stroke="#45413c" stroke-linecap="round" stroke-linejoin="round" stroke-width="1"></path><path d="M17.149 37.598h11.55v6.959h-11.55z" fill="#ff8a14" stroke-width="1"></path><path d="M17.149 41.078h11.55v3.479h-11.55z" fill="#eb6d00" stroke-width="1"></path><path d="M17.149 37.598h11.55v6.959h-11.55z" fill="none" stroke="#45413c" stroke-linecap="round" stroke-linejoin="round" stroke-width="1"></path><path d="M5.599 37.598h11.55v6.959H5.599z" fill="#ff8a14" stroke-width="1"></path><path d="M5.599 41.078h11.55v3.479H5.599z" fill="#eb6d00" stroke-width="1"></path><path d="M5.599 37.598h11.55v6.959H5.599z" fill="none" stroke="#45413c" stroke-linecap="round" stroke-linejoin="round" stroke-width="1"></path><path d="M10.849 30.64h11.55v6.959h-11.55z" fill="#ff8a14" stroke-width="1"></path><path d="M10.849 34.119h11.55v3.479h-11.55z" fill="#eb6d00" stroke-width="1"></path><path d="M10.849 30.64h11.55v6.959h-11.55z" fill="none" stroke="#45413c" stroke-linecap="round" stroke-linejoin="round" stroke-width="1"></path><path d="M17.149 23.681h11.55v6.959h-11.55z" fill="#ff8a14" stroke-width="1"></path><path d="M17.149 27.16h11.55v3.479h-11.55z" fill="#eb6d00" stroke-width="1"></path><path d="M17.149 23.681h11.55v6.959h-11.55z" fill="none" stroke="#45413c" stroke-linecap="round" stroke-linejoin="round" stroke-width="1"></path><path d="M4.722 65.624h6.127v-7.149H2.462a40.449 40.449 0 0 0 2.26 7.149Z" fill="#eb6d00" stroke-width="1"></path><path d="M2.462 58.475q0.382 1.77 0.917 3.479h7.47v-3.479Z" fill="#ff8a14" stroke-width="1"></path><path d="m4.722 65.624 6.127 0 0 -7.149 -8.387 0" fill="none" stroke="#45413c" stroke-linecap="round" stroke-linejoin="round" stroke-width="1"></path><path d="M2.462 58.475H5.6v-6.959H1.592a40.032 40.032 0 0 0 0.87 6.959Z" fill="#eb6d00" stroke-width="1"></path><path d="M1.592 51.516q0.066 1.761 0.281 3.48H5.6v-3.48Z" fill="#ff8a14" stroke-width="1"></path><path d="m2.462 58.475 3.137 0 0 -6.959 -4.007 0" fill="none" stroke="#45413c" stroke-linecap="round" stroke-linejoin="round" stroke-width="1"></path><path d="M1.592 51.516h9.257v-6.959H1.932A40.383 40.383 0 0 0 1.554 50c0 0.509 0.019 1.012 0.038 1.516Z" fill="#eb6d00" stroke-width="1"></path><path d="M1.932 44.557c-0.155 1.145 -0.248 2.308 -0.308 3.48h9.225v-3.48Z" fill="#ff8a14" stroke-width="1"></path><path d="m1.592 51.516 9.257 0 0 -6.959 -8.917 0" fill="none" stroke="#45413c" stroke-linecap="round" stroke-linejoin="round" stroke-width="1"></path><path d="M5.6 44.557V37.6H3.524a39.774 39.774 0 0 0 -1.592 6.959Z" fill="#eb6d00" stroke-width="1"></path><path d="M3.524 37.6q-0.556 1.709 -0.959 3.48H5.6V37.6Z" fill="#ff8a14" stroke-width="1"></path><path d="m1.932 44.557 3.667 0 0 -6.959 -2.075 0" fill="none" stroke="#45413c" stroke-linecap="round" stroke-linejoin="round" stroke-width="1"></path><path d="M10.849 37.6v-6.96h-4.3a39.725 39.725 0 0 0 -3.025 6.96Z" fill="#eb6d00" stroke-width="1"></path><path d="M6.551 30.64q-0.937 1.691 -1.709 3.479h6.007V30.64Z" fill="#ff8a14" stroke-width="1"></path><path d="m3.524 37.598 7.325 0 0 -6.958 -4.298 0" fill="none" stroke="#45413c" stroke-linecap="round" stroke-linejoin="round" stroke-width="1"></path><path d="M6.551 30.64h10.6v-6.959h-5.7a40.085 40.085 0 0 0 -4.9 6.959Z" fill="#eb6d00" stroke-width="1"></path><path d="M11.446 23.681a40.321 40.321 0 0 0 -2.719 3.479h8.422v-3.479Z" fill="#ff8a14" stroke-width="1"></path><path d="m6.551 30.64 10.598 0 0 -6.959 -5.703 0" fill="none" stroke="#45413c" stroke-linecap="round" stroke-linejoin="round" stroke-width="1"></path><path d="M23.22 85.309a12 1.5 0 1 0 24 0 12 1.5 0 1 0 -24 0Z" fill="#45413c" opacity=".15" stroke-width="1"></path><path d="M32.241 79.463h14.276v5.191H32.241z" fill="#ff8a14" stroke-width="1"></path><path d="M32.241 82.059h14.276v2.596H32.241z" fill="#eb6d00" stroke-width="1"></path><path d="M32.241 79.463h14.276v5.191H32.241z" fill="none" stroke="#45413c" stroke-linecap="round" stroke-linejoin="round" stroke-width="1"></path><path d="m22.4348840203 80.2196663005 12.1944987903 -7.4228279822 2.6990683704 4.434130234 -12.1944987903 7.4228279822z" fill="#ff8a14" stroke-width="1"></path><path d="m23.7849894866 82.4377482352 12.1944987903 -7.4228279822 1.349794161 2.2174922149L25.1347836474 84.65524045z" fill="#eb6d00" stroke-width="1"></path><path d="m22.4348840203 80.2196663005 12.1944987903 -7.4228279822 2.6990683704 4.434130234 -12.1944987903 7.4228279822z" fill="none" stroke="#45413c" stroke-linecap="round" stroke-linejoin="round" stroke-width="1"></path><path d="M45.651 77.286a14 1.5 0 1 0 28 0 14 1.5 0 1 0 -28 0Z" fill="#45413c" opacity=".15" stroke-width="1"></path><path d="M1.554 50a40 40 0 1 0 80 0 40 40 0 1 0 -80 0Z" fill="none" stroke="#daedf7" stroke-width="1"></path><path d="M74.674 37.034a4.631 4.631 0 1 0 -9.261 0 4.63 4.63 0 0 0 -4.631 4.63c0 1.292 -3.85 3.278 -3 4.118 0.626 0.616 5.806 0.238 6.7 0.42l10.187 0.093c1.174 0 6.354 0.359 7.17 -0.361 0.962 -0.848 -2.539 -2.885 -2.539 -4.27a4.63 4.63 0 0 0 -4.626 -4.63Z" fill="#b89558" stroke-width="1"></path><path d="M80.8 46.262c-0.721 -0.748 -1.495 -1.543 -1.495 -2.194a4.631 4.631 0 0 0 -4.631 -4.631 4.631 4.631 0 1 0 -9.261 0 4.63 4.63 0 0 0 -4.63 4.631c0 0.59 -0.806 1.326 -1.6 2.032a2.809 2.809 0 0 1 -1.4 -0.318c-0.854 -0.84 3 -2.826 3 -4.118a4.63 4.63 0 0 1 4.631 -4.63 4.631 4.631 0 1 1 9.261 0 4.63 4.63 0 0 1 4.631 4.63c0 1.385 3.5 3.422 2.539 4.27a2.2 2.2 0 0 1 -1.045 0.328Z" fill="#debb7e" stroke-width="1"></path><path d="M74.674 37.034a4.631 4.631 0 1 0 -9.261 0 4.63 4.63 0 0 0 -4.631 4.63c0 1.292 -3.85 3.278 -3 4.118 0.626 0.616 5.806 0.238 6.7 0.42l10.187 0.093c1.174 0 6.354 0.359 7.17 -0.361 0.962 -0.848 -2.539 -2.885 -2.539 -4.27a4.63 4.63 0 0 0 -4.626 -4.63Z" fill="none" stroke="#45413c" stroke-linecap="round" stroke-linejoin="round" stroke-width="1"></path><path d="m58.6544410341 31.789772355 8.9759600531 -6.3586272989 2.3122281087 3.2639854739 -8.9759600531 6.3586272988z" fill="#ff8a14" stroke-width="1"></path><path d="m59.8098384964 33.4215047984 8.9759600531 -6.3586272988 1.1561140543 1.6319927369 -8.975960053 6.3586272988z" fill="#eb6d00" stroke-width="1"></path><path d="m58.6544410341 31.789772355 8.9759600531 -6.3586272989 2.3122281087 3.2639854739 -8.9759600531 6.3586272988z" fill="none" stroke="#45413c" stroke-linecap="round" stroke-linejoin="round" stroke-width="1"></path><path d="M65.041 35.013a7.6 7.6 0 1 0 -15.2 0 7.6 7.6 0 0 0 -7.6 7.6c0 2.12 -6.318 5.378 -4.918 6.756 1.028 1.012 9.528 0.391 11 0.689l16.716 0.153c1.926 0 10.425 0.589 11.764 -0.591 1.58 -1.393 -4.166 -4.735 -4.166 -7.007a7.6 7.6 0 0 0 -7.596 -7.6Z" fill="#b89558" stroke-width="1"></path><path d="M75.092 50.156c-1.182 -1.228 -2.453 -2.533 -2.453 -3.6a7.6 7.6 0 0 0 -7.6 -7.6 7.6 7.6 0 0 0 -15.2 0 7.6 7.6 0 0 0 -7.6 7.6c0 0.969 -1.321 2.176 -2.622 3.334a4.614 4.614 0 0 1 -2.3 -0.522c-1.4 -1.378 4.918 -4.636 4.918 -6.756a7.6 7.6 0 0 1 7.6 -7.6 7.6 7.6 0 1 1 15.2 0 7.6 7.6 0 0 1 7.6 7.6c0 2.272 5.746 5.614 4.166 7.007a3.637 3.637 0 0 1 -1.709 0.537Z" fill="#debb7e" stroke-width="1"></path><path d="M65.041 35.013a7.6 7.6 0 1 0 -15.2 0 7.6 7.6 0 0 0 -7.6 7.6c0 2.12 -6.318 5.378 -4.918 6.756 1.028 1.012 9.528 0.391 11 0.689l16.716 0.153c1.926 0 10.425 0.589 11.764 -0.591 1.58 -1.393 -4.166 -4.735 -4.166 -7.007a7.6 7.6 0 0 0 -7.596 -7.6Z" fill="none" stroke="#45413c" stroke-linecap="round" stroke-linejoin="round" stroke-width="1"></path><path d="m42.8156900481 34.776008704 2.8148191225 -2.8419699696 7.8154174162 7.7407525868 -2.8148191225 2.8419699695z" fill="#ff8a14" stroke-width="1"></path><path d="m42.8154363328 34.7763333204 1.4074095612 -1.4209849848 7.8154174162 7.7407525869 -1.4074095612 1.4209849847z" fill="#eb6d00" stroke-width="1"></path><path d="m42.8156900481 34.776008704 2.8148191225 -2.8419699696 7.8154174162 7.7407525868 -2.8148191225 2.8419699695z" fill="none" stroke="#45413c" stroke-linecap="round" stroke-linejoin="round" stroke-width="1"></path><path d="M60.786 39.942a2.87 2.87 0 0 0 -3.674 -1.728 2.871 2.871 0 1 0 -5.4 1.947 2.87 2.87 0 0 0 -1.727 3.674" fill="#b89558" stroke="#45413c" stroke-linecap="round" stroke-linejoin="round" stroke-width="1"></path><path d="M75.58 61.915 47.335 68.64 36.694 49.809l44.178 0 -5.292 12.106z" fill="#ff6242" stroke-width="1"></path><path d="m79.589 52.746 1.283 -2.936 -44.178 0 1.655 2.936 41.24 0z" fill="#e04122" stroke-width="1"></path><path d="M75.58 61.915 47.335 68.64 36.694 49.809l44.178 0 -5.292 12.106z" fill="none" stroke="#45413c" stroke-linecap="round" stroke-linejoin="round" stroke-width="1"></path><path d="M83.651 47.792a2.018 2.018 0 0 1 -2.018 2.017H35.9a2.018 2.018 0 1 1 0 -4.035h45.733a2.019 2.019 0 0 1 2.018 2.018Z" fill="#ff6242" stroke-width="1"></path><path d="M33.884 47.792a2.018 2.018 0 0 1 2.016 -2.018h45.733a2.018 2.018 0 0 1 1.743 3.035 2.01 2.01 0 0 0 -1.743 -1.017H35.9a2.009 2.009 0 0 0 -1.743 1.017 2 2 0 0 1 -0.273 -1.017Z" fill="#ff6242" stroke-width="1"></path><path d="M83.651 47.792a2.018 2.018 0 0 1 -2.018 2.017H35.9a2.018 2.018 0 1 1 0 -4.035h45.733a2.019 2.019 0 0 1 2.018 2.018Z" fill="none" stroke="#45413c" stroke-linecap="round" stroke-linejoin="round" stroke-width="1"></path><path d="M38.776 68.64a8.559 8.559 0 1 0 17.118 0 8.559 8.559 0 1 0 -17.118 0Z" fill="#87898c" stroke-width="1"></path><path d="M41.955 68.64a5.38 5.38 0 1 0 10.76 0 5.38 5.38 0 1 0 -10.76 0Z" fill="#daedf7" stroke-width="1"></path><path d="M41.955 68.64a5.38 5.38 0 1 0 10.76 0 5.38 5.38 0 1 0 -10.76 0Z" fill="none" stroke="#45413c" stroke-linecap="round" stroke-linejoin="round" stroke-width="1"></path><path d="M55.821 69.765a8.552 8.552 0 0 0 -16.973 0 8.7 8.7 0 0 1 -0.073 -1.125 8.56 8.56 0 0 1 17.119 0 8.7 8.7 0 0 1 -0.073 1.125Z" fill="#87898c" stroke-width="1"></path><path d="M38.776 68.64a8.559 8.559 0 1 0 17.118 0 8.559 8.559 0 1 0 -17.118 0Z" fill="none" stroke="#45413c" stroke-linecap="round" stroke-linejoin="round" stroke-width="1"></path><path d="M87.81 45.869h-0.124a1.252 1.252 0 0 0 -1.119 0.691L80.1 59.49l-33.06 7.934a1.25 1.25 0 0 0 0.291 2.466 1.278 1.278 0 0 0 0.292 -0.034l12.053 -2.893 5.5 9.751a1.239 1.239 0 0 0 0.276 0.335 4.515 4.515 0 0 0 2.953 1.1 4.618 4.618 0 0 0 1.02 -0.115 4.521 4.521 0 0 0 3.165 -2.6 1.288 1.288 0 0 0 0.05 -0.13l3.936 -12.4 4.675 -1.122a1.25 1.25 0 0 0 0.827 -0.656L88.6 48.09a1.25 1.25 0 0 0 -0.788 -2.221Zm-17.529 28.61a2.062 2.062 0 0 1 -3.047 0.793l-5.027 -8.916 11.53 -2.767Z" fill="#adc4d9" stroke="#45413c" stroke-width="1"></path><path d="M87.686 46.447a2.018 2.018 0 0 1 2.014 -2.018h6.726a2.018 2.018 0 0 1 0 4.035H89.7a2.017 2.017 0 0 1 -2.014 -2.017Z" fill="#87898c" stroke-width="1"></path><path d="M87.686 46.447a2.018 2.018 0 0 1 2.014 -2.018h6.726a2.018 2.018 0 0 1 1.742 3.035 2.008 2.008 0 0 0 -1.742 -1.017H89.7a2.008 2.008 0 0 0 -1.742 1.017 2 2 0 0 1 -0.272 -1.017Z" fill="#87898c" stroke-width="1"></path><path d="M87.686 46.447a2.018 2.018 0 0 1 2.014 -2.018h6.726a2.018 2.018 0 0 1 0 4.035H89.7a2.017 2.017 0 0 1 -2.014 -2.017Z" fill="none" stroke="#45413c" stroke-linecap="round" stroke-linejoin="round" stroke-width="1"></path></svg>