<svg width="89" height="89" viewBox="0 0 89 89" fill="none" xmlns="http://www.w3.org/2000/svg">
<path d="M85 44.5025C85.0008 38.5327 83.6653 32.6384 81.0914 27.2519C78.5176 21.8654 74.7707 17.1233 70.1256 13.3734C65.4804 9.62351 60.0548 6.96091 54.2467 5.58088C48.4386 4.20084 42.3952 4.13838 36.5597 5.39805C30.7243 6.65773 25.2448 9.2076 20.5232 12.8607C15.8015 16.5137 11.9574 21.1774 9.27278 26.5095C6.58816 31.8416 5.13109 37.7071 5.00844 43.6757C4.8858 49.6442 6.10068 55.5646 8.564 61.0025H81.436C83.7888 55.8202 85.0041 50.1939 85 44.5025Z" fill="#B8ECFF"/>
<path opacity="0.6" d="M14.795 52.9775H26.345V60.1265H14.795V52.9775Z" fill="#FF8A14"/>
<path opacity="0.6" d="M14.795 56.4565H26.345V60.1265H14.795V56.4565Z" fill="#EB6D00"/>
<path opacity="0.6" d="M14.795 52.9775H26.345V60.1265H14.795V52.9775Z" stroke="#45413C" stroke-linecap="round" stroke-linejoin="round"/>
<path opacity="0.6" d="M14.795 39.0595H26.345V46.0185H14.795V39.0595Z" fill="#FF8A14"/>
<path opacity="0.6" d="M14.795 42.5395H26.345V46.0185H14.795V42.5395Z" fill="#EB6D00"/>
<path opacity="0.6" d="M14.795 39.0595H26.345V46.0185H14.795V39.0595Z" stroke="#45413C" stroke-linecap="round" stroke-linejoin="round"/>
<path opacity="0.6" d="M21.095 46.0185H32.645V52.9775H21.095V46.0185Z" fill="#FF8A14"/>
<path opacity="0.6" d="M21.095 49.4985H32.645V52.9775H21.095V49.4985Z" fill="#EB6D00"/>
<path opacity="0.6" d="M21.095 46.0185H32.645V52.9775H21.095V46.0185Z" stroke="#45413C" stroke-linecap="round" stroke-linejoin="round"/>
<path opacity="0.6" d="M9.54498 46.0185H21.095V52.9775H9.54498V46.0185Z" fill="#FF8A14"/>
<path opacity="0.6" d="M9.54498 49.4985H21.095V52.9775H9.54498V49.4985Z" fill="#EB6D00"/>
<path opacity="0.6" d="M9.54498 46.0185H21.095V52.9775H9.54498V46.0185Z" stroke="#45413C" stroke-linecap="round" stroke-linejoin="round"/>
<path opacity="0.6" d="M21.095 32.1005H32.645V39.0595H21.095V32.1005Z" fill="#FF8A14"/>
<path opacity="0.6" d="M21.095 35.5805H32.645V39.0595H21.095V35.5805Z" fill="#EB6D00"/>
<path opacity="0.6" d="M21.095 32.1005H32.645V39.0595H21.095V32.1005Z" stroke="#45413C" stroke-linecap="round" stroke-linejoin="round"/>
<path opacity="0.6" d="M9.54498 32.1005H21.095V39.0595H9.54498V32.1005Z" fill="#FF8A14"/>
<path opacity="0.6" d="M9.54498 35.5805H21.095V39.0595H9.54498V35.5805Z" fill="#EB6D00"/>
<path opacity="0.6" d="M9.54498 32.1005H21.095V39.0595H9.54498V32.1005Z" stroke="#45413C" stroke-linecap="round" stroke-linejoin="round"/>
<path opacity="0.6" d="M14.795 25.1425H26.345V32.1015H14.795V25.1425Z" fill="#FF8A14"/>
<path opacity="0.6" d="M14.795 28.6215H26.345V32.1005H14.795V28.6215Z" fill="#EB6D00"/>
<path opacity="0.6" d="M14.795 25.1425H26.345V32.1015H14.795V25.1425Z" stroke="#45413C" stroke-linecap="round" stroke-linejoin="round"/>
<path opacity="0.6" d="M21.095 18.1835H32.645V25.1425H21.095V18.1835Z" fill="#FF8A14"/>
<path opacity="0.6" d="M21.095 21.6625H32.645V25.1415H21.095V21.6625Z" fill="#EB6D00"/>
<path opacity="0.6" d="M21.095 18.1835H32.645V25.1425H21.095V18.1835Z" stroke="#45413C" stroke-linecap="round" stroke-linejoin="round"/>
<path opacity="0.6" d="M8.66796 60.1265H14.795V52.9775H6.40796C6.93833 55.4254 7.69492 57.8187 8.66796 60.1265Z" fill="#EB6D00"/>
<path d="M8.56403 61.0025C11.7367 68.0065 16.8608 73.9475 23.3229 78.1144C29.7849 82.2813 37.311 84.4974 45 84.4974C52.689 84.4974 60.2151 82.2813 66.6772 78.1144C73.1392 73.9475 78.2633 68.0065 81.436 61.0025H8.56403Z" fill="#F2DFC2"/>
<path d="M5.5 61.0025H83.5" stroke="#45413C" stroke-linecap="round" stroke-linejoin="round"/>
<path d="M1 61.0025H3.5" stroke="#45413C" stroke-linecap="round" stroke-linejoin="round"/>
<path d="M85.5 61.0025H88" stroke="#45413C" stroke-linecap="round" stroke-linejoin="round"/>
<path d="M58.748 30.9465C58.7478 29.9464 58.4623 28.9671 57.925 28.1235L55.034 23.5785C54.5298 22.787 53.8342 22.1354 53.0114 21.6839C52.1887 21.2325 51.2654 20.9957 50.327 20.9955H31.955C31.0177 20.9963 30.0957 21.2333 29.2743 21.6846C28.4528 22.1359 27.7583 22.7869 27.255 23.5775L24.362 28.1235C23.825 28.9672 23.5398 29.9465 23.54 30.9465V32.4775C23.54 37.1469 25.3949 41.6251 28.6967 44.9269C31.9984 48.2286 36.4766 50.0835 41.146 50.0835C45.8154 50.0835 50.2935 48.2286 53.5953 44.9269C56.8971 41.6251 58.752 37.1469 58.752 32.4775L58.748 30.9465Z" fill="#FFE500"/>
<path d="M56.975 35.5395C55.5403 38.5203 53.2932 41.0355 50.4924 42.7958C47.6915 44.5562 44.4506 45.49 41.1425 45.49C37.8344 45.49 34.5935 44.5562 31.7926 42.7958C28.9918 41.0355 26.7447 38.5203 25.31 35.5395H23.82C24.5361 39.6137 26.6653 43.3052 29.8334 45.9651C33.0015 48.625 37.0058 50.0831 41.1425 50.0831C45.2792 50.0831 49.2835 48.625 52.4516 45.9651C55.6197 43.3052 57.749 39.6137 58.465 35.5395H56.975Z" fill="#EBCB00"/>
<path d="M58.515 29.4155H23.768C23.6153 29.9116 23.5371 30.4275 23.536 30.9465V32.4775H58.748V30.9465C58.7466 30.4275 58.668 29.9115 58.515 29.4155Z" fill="#FFFACF"/>
<path d="M29.659 24.0575H52.624C53.9067 24.0604 55.1491 24.5062 56.141 25.3195L55.034 23.5785C54.5298 22.787 53.8342 22.1354 53.0115 21.6839C52.1887 21.2325 51.2655 20.9957 50.327 20.9955H31.955C31.0177 20.9963 30.0958 21.2333 29.2743 21.6846C28.4528 22.1359 27.7583 22.7869 27.255 23.5775L26.146 25.3195C27.1371 24.5075 28.3777 24.0618 29.659 24.0575Z" fill="#FFFACF"/>
<path d="M58.748 30.9465C58.7478 29.9464 58.4623 28.9671 57.925 28.1235L55.034 23.5785C54.5298 22.787 53.8342 22.1354 53.0114 21.6839C52.1887 21.2325 51.2654 20.9957 50.327 20.9955H31.955C31.0177 20.9963 30.0957 21.2333 29.2743 21.6846C28.4528 22.1359 27.7583 22.7869 27.255 23.5775L24.362 28.1235C23.825 28.9672 23.5398 29.9465 23.54 30.9465V32.4775C23.54 37.1469 25.3949 41.6251 28.6967 44.9269C31.9984 48.2286 36.4766 50.0835 41.146 50.0835C45.8154 50.0835 50.2935 48.2286 53.5953 44.9269C56.8971 41.6251 58.752 37.1469 58.752 32.4775L58.748 30.9465Z" stroke="#45413C" stroke-linecap="round" stroke-linejoin="round"/>
<path d="M71 27.8835C71.0001 27.4816 70.9211 27.0836 70.7674 26.7122C70.6137 26.3409 70.3883 26.0034 70.1041 25.7191C69.82 25.4349 69.4826 25.2094 69.1113 25.0556C68.7399 24.9017 68.3419 24.8225 67.94 24.8225H61.808C61.4061 24.8225 61.0081 24.9017 60.6368 25.0556C60.2655 25.2094 59.9281 25.4349 59.6439 25.7191C59.3598 26.0034 59.1344 26.3409 58.9807 26.7122C58.8269 27.0836 58.7479 27.4816 58.748 27.8835V50.8485C58.748 51.6606 58.4254 52.4395 57.8512 53.0137C57.2769 53.5879 56.4981 53.9105 55.686 53.9105H26.6C25.7877 53.9105 25.0086 53.5878 24.4341 53.0134C23.8597 52.439 23.537 51.6599 23.537 50.8475V34.0085C23.537 32.7904 23.0531 31.6222 22.1918 30.7608C21.3304 29.8994 20.1622 29.4155 18.944 29.4155C17.7259 29.4155 16.5576 29.8994 15.6963 30.7608C14.8349 31.6222 14.351 32.7904 14.351 34.0085V56.9725C14.351 58.1907 14.8349 59.3589 15.6963 60.2203C16.5576 61.0816 17.7259 61.5655 18.944 61.5655H66.4C67.0038 61.5665 67.6018 61.4483 68.1598 61.2179C68.7179 60.9875 69.225 60.6494 69.6523 60.2228C70.0795 59.7962 70.4185 59.2895 70.6497 58.7318C70.881 58.1741 71 57.5763 71 56.9725V27.8835Z" fill="#FFE500"/>
<path d="M23.536 54.6745C23.5359 55.0769 23.615 55.4754 23.769 55.8472C23.9229 56.219 24.1486 56.5569 24.4331 56.8414C24.7177 57.1259 25.0555 57.3516 25.4273 57.5056C25.7991 57.6595 26.1976 57.7387 26.6 57.7385H55.686C56.4981 57.7385 57.2769 57.4159 57.8512 56.8417C58.4254 56.2675 58.748 55.4886 58.748 54.6765V50.8485C58.748 51.6606 58.4254 52.4395 57.8512 53.0137C57.2769 53.5879 56.4981 53.9105 55.686 53.9105H26.6C25.7877 53.9105 25.0086 53.5878 24.4341 53.0134C23.8597 52.439 23.537 51.6599 23.537 50.8475L23.536 54.6745Z" fill="#FFFACF"/>
<path d="M67.935 24.8225H61.808C61.4061 24.8225 61.0081 24.9017 60.6367 25.0556C60.2654 25.2094 59.928 25.4349 59.6439 25.7191C59.3597 26.0034 59.1343 26.3409 58.9806 26.7122C58.8269 27.0836 58.7479 27.4816 58.748 27.8835V31.7105C58.7479 31.3087 58.8269 30.9107 58.9806 30.5394C59.1344 30.1681 59.3598 29.8307 59.6439 29.5465C59.9281 29.2623 60.2655 29.0369 60.6368 28.8832C61.0081 28.7295 61.4061 28.6504 61.808 28.6505H67.935C68.3369 28.6504 68.7348 28.7295 69.1061 28.8832C69.4775 29.0369 69.8148 29.2623 70.099 29.5465C70.3832 29.8307 70.6086 30.1681 70.7623 30.5394C70.9161 30.9107 70.9951 31.3087 70.995 31.7105V27.8835C70.9951 27.4816 70.9161 27.0836 70.7623 26.7122C70.6086 26.3409 70.3832 26.0034 70.0991 25.7191C69.8149 25.4349 69.4775 25.2094 69.1062 25.0556C68.7349 24.9017 68.3369 24.8225 67.935 24.8225Z" fill="#FFFACF"/>
<path d="M18.943 33.2425C20.1611 33.2425 21.3294 33.7264 22.1907 34.5878C23.0521 35.4491 23.536 36.6174 23.536 37.8355V34.0085C23.536 32.7904 23.0521 31.6221 22.1907 30.7608C21.3294 29.8994 20.1611 29.4155 18.943 29.4155C17.7248 29.4155 16.5566 29.8994 15.6952 30.7608C14.8339 31.6221 14.35 32.7904 14.35 34.0085V37.8355C14.35 36.6174 14.8339 35.4491 15.6952 34.5878C16.5566 33.7264 17.7248 33.2425 18.943 33.2425Z" fill="#FFFACF"/>
<path d="M71 27.8835C71.0001 27.4816 70.9211 27.0836 70.7674 26.7122C70.6137 26.3409 70.3883 26.0034 70.1041 25.7191C69.82 25.4349 69.4826 25.2094 69.1113 25.0556C68.7399 24.9017 68.3419 24.8225 67.94 24.8225H61.808C61.4061 24.8225 61.0081 24.9017 60.6368 25.0556C60.2655 25.2094 59.9281 25.4349 59.6439 25.7191C59.3598 26.0034 59.1344 26.3409 58.9807 26.7122C58.8269 27.0836 58.7479 27.4816 58.748 27.8835V50.8485C58.748 51.6606 58.4254 52.4395 57.8512 53.0137C57.2769 53.5879 56.4981 53.9105 55.686 53.9105H26.6C25.7877 53.9105 25.0086 53.5878 24.4341 53.0134C23.8597 52.439 23.537 51.6599 23.537 50.8475V34.0085C23.537 32.7904 23.0531 31.6222 22.1918 30.7608C21.3304 29.8994 20.1622 29.4155 18.944 29.4155C17.7259 29.4155 16.5576 29.8994 15.6963 30.7608C14.8349 31.6222 14.351 32.7904 14.351 34.0085V56.9725C14.351 58.1907 14.8349 59.3589 15.6963 60.2203C16.5576 61.0816 17.7259 61.5655 18.944 61.5655H66.4C67.0038 61.5665 67.6018 61.4483 68.1598 61.2179C68.7179 60.9875 69.225 60.6494 69.6523 60.2228C70.0795 59.7962 70.4185 59.2895 70.6497 58.7318C70.881 58.1741 71 57.5763 71 56.9725V27.8835Z" stroke="#45413C" stroke-linecap="round" stroke-linejoin="round"/>
<path d="M71 27.8835L76.957 36.8195C78.0652 38.4803 78.6568 40.432 78.657 42.4285V47.7875C78.6568 48.7427 78.442 49.6857 78.0283 50.5466C77.6146 51.4076 77.0127 52.1646 76.267 52.7615L71 56.9725V27.8835Z" fill="#FFE500"/>
<path d="M74.057 32.4775L70.995 27.8835V56.9725L74.057 54.5235V32.4775Z" fill="#EBCB00"/>
<path d="M71 27.8835L76.957 36.8195C78.0652 38.4803 78.6568 40.432 78.657 42.4285V47.7875C78.6568 48.7427 78.442 49.6857 78.0283 50.5466C77.6146 51.4076 77.0127 52.1646 76.267 52.7615L71 56.9725V27.8835Z" stroke="#45413C" stroke-linecap="round" stroke-linejoin="round"/>
<path d="M14.35 66.9245C14.35 68.3456 14.9145 69.7084 15.9193 70.7132C16.9241 71.718 18.2869 72.2825 19.708 72.2825C21.129 72.2825 22.4918 71.718 23.4967 70.7132C24.5015 69.7084 25.066 68.3456 25.066 66.9245C25.066 65.5035 24.5015 64.1407 23.4967 63.1358C22.4918 62.131 21.129 61.5665 19.708 61.5665C18.2869 61.5665 16.9241 62.131 15.9193 63.1358C14.9145 64.1407 14.35 65.5035 14.35 66.9245Z" fill="#45413C" stroke="#45413C" stroke-linecap="round" stroke-linejoin="round"/>
<path d="M17.412 66.9245C17.412 67.5335 17.6539 68.1175 18.0845 68.5481C18.5151 68.9786 19.099 69.2205 19.708 69.2205C20.3169 69.2205 20.9009 68.9786 21.3315 68.5481C21.7621 68.1175 22.004 67.5335 22.004 66.9245C22.004 66.3156 21.7621 65.7316 21.3315 65.301C20.9009 64.8704 20.3169 64.6285 19.708 64.6285C19.099 64.6285 18.5151 64.8704 18.0845 65.301C17.6539 65.7316 17.412 66.3156 17.412 66.9245Z" fill="#87898C"/>
<path d="M19.708 66.5175C20.1496 66.5181 20.5817 66.6459 20.9527 66.8854C21.3236 67.125 21.6178 67.4663 21.8 67.8685C21.9617 67.5181 22.0325 67.1326 22.0061 66.7476C21.9797 66.3626 21.8568 65.9904 21.6487 65.6653C21.4407 65.3403 21.1542 65.0728 20.8157 64.8875C20.4772 64.7022 20.0974 64.6051 19.7115 64.6051C19.3256 64.6051 18.9458 64.7022 18.6073 64.8875C18.2688 65.0728 17.9823 65.3403 17.7743 65.6653C17.5662 65.9904 17.4433 66.3626 17.4169 66.7476C17.3905 67.1326 17.4613 67.5181 17.623 67.8685C17.8041 67.4669 18.097 67.1259 18.4668 66.8864C18.8365 66.6468 19.2674 66.5187 19.708 66.5175Z" fill="#BDBEC0"/>
<path d="M17.412 66.9245C17.412 67.5335 17.6539 68.1175 18.0845 68.5481C18.5151 68.9786 19.099 69.2205 19.708 69.2205C20.3169 69.2205 20.9009 68.9786 21.3315 68.5481C21.7621 68.1175 22.004 67.5335 22.004 66.9245C22.004 66.3156 21.7621 65.7316 21.3315 65.301C20.9009 64.8704 20.3169 64.6285 19.708 64.6285C19.099 64.6285 18.5151 64.8704 18.0845 65.301C17.6539 65.7316 17.412 66.3156 17.412 66.9245Z" stroke="#45413C" stroke-linecap="round" stroke-linejoin="round"/>
<path d="M60.279 66.9245C60.279 68.3456 60.8435 69.7084 61.8483 70.7132C62.8531 71.718 64.216 72.2825 65.637 72.2825C67.058 72.2825 68.4208 71.718 69.4257 70.7132C70.4305 69.7084 70.995 68.3456 70.995 66.9245C70.995 65.5035 70.4305 64.1407 69.4257 63.1358C68.4208 62.131 67.058 61.5665 65.637 61.5665C64.216 61.5665 62.8531 62.131 61.8483 63.1358C60.8435 64.1407 60.279 65.5035 60.279 66.9245Z" fill="#45413C" stroke="#45413C" stroke-linecap="round" stroke-linejoin="round"/>
<path d="M63.341 66.9245C63.341 67.5335 63.5829 68.1175 64.0135 68.5481C64.4441 68.9786 65.0281 69.2205 65.637 69.2205C66.2459 69.2205 66.8299 68.9786 67.2605 68.5481C67.6911 68.1175 67.933 67.5335 67.933 66.9245C67.933 66.3156 67.6911 65.7316 67.2605 65.301C66.8299 64.8704 66.2459 64.6285 65.637 64.6285C65.0281 64.6285 64.4441 64.8704 64.0135 65.301C63.5829 65.7316 63.341 66.3156 63.341 66.9245Z" fill="#87898C"/>
<path d="M65.637 66.5175C66.0781 66.5187 66.5095 66.6467 66.8799 66.8862C67.2503 67.1258 67.544 67.4667 67.726 67.8685C67.8874 67.5181 67.9581 67.1327 67.9315 66.7478C67.9049 66.3629 67.782 65.9908 67.5739 65.6659C67.3658 65.341 67.0794 65.0736 66.7409 64.8885C66.4024 64.7033 66.0228 64.6062 65.637 64.6062C65.2512 64.6062 64.8715 64.7033 64.533 64.8885C64.1946 65.0736 63.9081 65.341 63.7001 65.6659C63.492 65.9908 63.369 66.3629 63.3424 66.7478C63.3159 67.1327 63.3865 67.5181 63.548 67.8685C63.73 67.4667 64.0237 67.1258 64.3941 66.8862C64.7644 66.6467 65.1959 66.5187 65.637 66.5175Z" fill="#BDBEC0"/>
<path d="M63.341 66.9245C63.341 67.5335 63.5829 68.1175 64.0135 68.5481C64.4441 68.9786 65.0281 69.2205 65.637 69.2205C66.2459 69.2205 66.8299 68.9786 67.2605 68.5481C67.6911 68.1175 67.933 67.5335 67.933 66.9245C67.933 66.3156 67.6911 65.7316 67.2605 65.301C66.8299 64.8704 66.2459 64.6285 65.637 64.6285C65.0281 64.6285 64.4441 64.8704 64.0135 65.301C63.5829 65.7316 63.341 66.3156 63.341 66.9245Z" stroke="#45413C" stroke-linecap="round" stroke-linejoin="round"/>
<path opacity="0.15" d="M72.956 72.9025C72.956 74.2515 59.837 75.3445 43.656 75.3445C27.475 75.3445 14.356 74.2515 14.356 72.9025C14.356 71.5535 27.475 70.4595 43.656 70.4595C59.837 70.4595 72.956 71.5545 72.956 72.9025Z" fill="#45413C"/>
<path d="M61.81 30.9465H67.933" stroke="#45413C" stroke-linecap="round" stroke-linejoin="round"/>
<path d="M61.81 34.0085H67.933" stroke="#45413C" stroke-linecap="round" stroke-linejoin="round"/>
<path d="M61.81 37.0705H67.933" stroke="#45413C" stroke-linecap="round" stroke-linejoin="round"/>
<path d="M23.82 35.5395H58.465C58.6472 34.5339 58.7419 33.5145 58.748 32.4925V30.9465C58.7466 30.4275 58.668 29.9115 58.515 29.4155H23.768C23.6153 29.9116 23.5371 30.4275 23.536 30.9465V32.4775C23.5414 33.5045 23.6364 34.5291 23.82 35.5395Z" stroke="#45413C" stroke-linecap="round" stroke-linejoin="round"/>
<path opacity="0.6" d="M6.40796 52.9775C6.66263 54.1575 6.96829 55.3172 7.32496 56.4565H14.795V52.9775H6.40796Z" fill="#FF8A14"/>
<path opacity="0.6" d="M8.66796 60.1265H14.795V52.9775H6.40796" stroke="#45413C" stroke-linecap="round" stroke-linejoin="round"/>
<path opacity="0.6" d="M6.40796 52.9775H9.54596V46.0185H5.53796C5.62382 48.3592 5.91494 50.6878 6.40796 52.9775Z" fill="#EB6D00"/>
<path opacity="0.6" d="M5.53796 46.0185C5.58196 47.1925 5.67563 48.3525 5.81896 49.4985H9.54596V46.0185H5.53796Z" fill="#FF8A14"/>
<path opacity="0.6" d="M6.40796 52.9775H9.54496V46.0185H5.53796" stroke="#45413C" stroke-linecap="round" stroke-linejoin="round"/>
<path opacity="0.6" d="M5.538 46.0185H14.795V39.0595H5.878C5.62944 40.8633 5.50315 42.6818 5.5 44.5025C5.5 45.0115 5.519 45.5145 5.538 46.0185Z" fill="#EB6D00"/>
<path opacity="0.6" d="M5.87801 39.0595C5.72301 40.2045 5.63001 41.3675 5.57001 42.5395H14.795V39.0595H5.87801Z" fill="#FF8A14"/>
<path opacity="0.6" d="M5.53796 46.0185H14.795V39.0595H5.87796" stroke="#45413C" stroke-linecap="round" stroke-linejoin="round"/>
<path opacity="0.6" d="M9.54599 39.0595V32.1025H7.46999C6.7318 34.3698 6.19899 36.6988 5.87799 39.0615L9.54599 39.0595Z" fill="#EB6D00"/>
<path opacity="0.6" d="M7.46999 32.1025C7.09932 33.2419 6.77965 34.4019 6.51099 35.5825H9.54599V32.1025H7.46999Z" fill="#FF8A14"/>
<path opacity="0.6" d="M5.87799 39.0595H9.54499V32.1005H7.46999" stroke="#45413C" stroke-linecap="round" stroke-linejoin="round"/>
<path opacity="0.6" d="M14.795 32.1025V25.1425H10.495C9.26684 27.3607 8.25388 29.6913 7.46997 32.1025H14.795Z" fill="#EB6D00"/>
<path opacity="0.6" d="M10.497 25.1425C9.8723 26.2699 9.30263 27.4295 8.78796 28.6215H14.795V25.1425H10.497Z" fill="#FF8A14"/>
<path opacity="0.6" d="M7.46997 32.1005H14.795V25.1425H10.497" stroke="#45413C" stroke-linecap="round" stroke-linejoin="round"/>
<path opacity="0.6" d="M10.497 25.1425H21.097V18.1835H15.397C13.5213 20.3227 11.8788 22.6555 10.497 25.1425Z" fill="#EB6D00"/>
<path opacity="0.6" d="M15.392 18.1835C14.4228 19.2927 13.5151 20.4541 12.673 21.6625H21.095V18.1835H15.392Z" fill="#FF8A14"/>
<path opacity="0.6" d="M10.497 25.1425H21.095V18.1835H15.392" stroke="#45413C" stroke-linecap="round" stroke-linejoin="round"/>
<path opacity="0.6" d="M5.5 44.5025C5.5 55.1112 9.71427 65.2853 17.2157 72.7868C24.7172 80.2883 34.8913 84.5025 45.5 84.5025C56.1087 84.5025 66.2828 80.2883 73.7843 72.7868C81.2857 65.2853 85.5 55.1112 85.5 44.5025C85.5 33.8939 81.2857 23.7197 73.7843 16.2183C66.2828 8.71681 56.1087 4.50253 45.5 4.50253C34.8913 4.50253 24.7172 8.71681 17.2157 16.2183C9.71427 23.7197 5.5 33.8939 5.5 44.5025Z" stroke="#DAEDF7"/>
</svg>
