<svg viewBox="0 0 100 100" xmlns="http://www.w3.org/2000/svg" id="Plugin-Lego--Streamline-Ux" height="100" width="100"><desc>Plugin Lego Streamline Illustration: https://streamlinehq.com</desc><path d="M10 50a40 40 0 1 0 80 0 40 40 0 1 0 -80 0Z" fill="#daedf7" stroke="#daedf7" stroke-width="1"></path><path d="M47.745 34.382h-5.988a1 1 0 0 0 -1 1v3.792h7.988v-3.792a1 1 0 0 0 -1 -1Z" fill="#fff48c" stroke="#45413c" stroke-linejoin="round" stroke-width="1"></path><path d="m19.99 39.174 31.95 0 0 12.78 -31.95 0Z" fill="#ffe500" stroke-width="1"></path><path d="M50.94 39.174H20.99a1 1 0 0 0 -1 1v2.2h31.95v-2.2a1 1 0 0 0 -1 -1Z" fill="#fff48c" stroke-width="1"></path><path d="M30.172 34.382h-5.987a1 1 0 0 0 -1 1v3.792h7.987v-3.792a1 1 0 0 0 -1 -1Z" fill="#fff48c" stroke="#45413c" stroke-linejoin="round" stroke-width="1"></path><path d="M34.75 71.228a23.963 1.997 0 1 0 47.926 0 23.963 1.997 0 1 0 -47.926 0Z" fill="#45413c" opacity=".15" stroke-width="1"></path><path d="m19.99 51.955 31.95 0 0 12.78 -31.95 0Z" fill="#00b8f0" stroke="#45413c" stroke-linejoin="round" stroke-width="1"></path><path d="m19.99 39.174 31.95 0 0 12.78 -31.95 0Z" fill="none" stroke="#45413c" stroke-linejoin="round" stroke-width="1"></path><path d="m38.6275343412 30.1391363876 7.6104390779 -10.2669185758 25.6672964394 19.0260976948 -7.610439078 10.2669185758Z" fill="#ff6242" stroke-width="1"></path><path d="M69.991 41.483 71.31 39.7a1 1 0 0 0 -0.208 -1.4L47.041 20.468a1 1 0 0 0 -1.4 0.208l-1.32 1.78Z" fill="#ff6242" stroke-width="1"></path><path d="m38.6275343412 30.1391363876 7.6104390779 -10.2669185758 25.6672964394 19.0260976948 -7.610439078 10.2669185758Z" fill="none" stroke="#45413c" stroke-linejoin="round" stroke-width="1"></path><path d="M57.48 23.485a1 1 0 0 0 -0.208 -1.4l-4.81 -3.565a1 1 0 0 0 -1.4 0.208l-2.258 3.046 6.417 4.757Z" fill="#ff6242" stroke="#45413c" stroke-linejoin="round" stroke-width="1"></path><path d="M65.18 29.193a1 1 0 0 1 1.4 -0.208l4.81 3.566a1 1 0 0 1 0.208 1.4L69.339 37l-6.417 -4.76Z" fill="#ff6242" stroke="#45413c" stroke-linejoin="round" stroke-width="1"></path><path d="m36.414 46.363 43.932 0 0 23.963 -43.932 0Z" fill="#6dd627" stroke="#45413c" stroke-linejoin="round" stroke-width="1"></path><path d="M50.393 53.352a2.995 2.995 0 1 0 5.99 0 2.995 2.995 0 1 0 -5.99 0Z" fill="#9ceb60" stroke="#45413c" stroke-linejoin="round" stroke-width="1"></path><path d="M40.408 53.352a2.995 2.995 0 1 0 5.99 0 2.995 2.995 0 1 0 -5.99 0Z" fill="#9ceb60" stroke="#45413c" stroke-linejoin="round" stroke-width="1"></path><path d="M40.408 63.337a2.995 2.995 0 1 0 5.99 0 2.995 2.995 0 1 0 -5.99 0Z" fill="#9ceb60" stroke="#45413c" stroke-linejoin="round" stroke-width="1"></path><path d="M60.377 53.352a2.995 2.995 0 1 0 5.99 0 2.995 2.995 0 1 0 -5.99 0Z" fill="#9ceb60" stroke="#45413c" stroke-linejoin="round" stroke-width="1"></path><path d="M70.362 53.352a2.995 2.995 0 1 0 5.99 0 2.995 2.995 0 1 0 -5.99 0Z" fill="#9ceb60" stroke="#45413c" stroke-linejoin="round" stroke-width="1"></path><path d="M50.393 63.337a2.995 2.995 0 1 0 5.99 0 2.995 2.995 0 1 0 -5.99 0Z" fill="#9ceb60" stroke="#45413c" stroke-linejoin="round" stroke-width="1"></path><path d="M60.377 63.337a2.995 2.995 0 1 0 5.99 0 2.995 2.995 0 1 0 -5.99 0Z" fill="#9ceb60" stroke="#45413c" stroke-linejoin="round" stroke-width="1"></path><path d="M70.362 63.337a2.995 2.995 0 1 0 5.99 0 2.995 2.995 0 1 0 -5.99 0Z" fill="#9ceb60" stroke="#45413c" stroke-linejoin="round" stroke-width="1"></path></svg>