<svg width="400" height="400" viewBox="0 0 400 400" fill="none" xmlns="http://www.w3.org/2000/svg">
<path d="M358.58 303.462C323.467 299.88 289.106 290.968 256.678 277.034C247.654 273.17 236.152 266.234 226.59 272.42C221.228 275.892 216.566 283.02 197.654 278.388C184.654 275.206 146.19 260.934 107.838 241.028C105.82 239.98 106.248 239.528 107.338 237.628C114.448 225.162 114.8 218.108 99.766 215.914C89.756 214.452 44.046 206.514 45.204 211.7C53.734 249.874 65.448 286.198 70.228 298.406C73.178 305.94 79.428 302.346 85.372 301.968C101.972 300.914 111.22 307.998 123.384 316.712C143.184 330.9 161.644 335.878 176.742 335.512C194.26 335.092 202.59 328.41 212.942 323.578C247.01 307.686 274.914 340.01 314.942 344.84C337.476 347.56 341.742 343.106 348.792 332.102C354.04 323.912 359.672 314.648 359.824 304.672C359.811 304.349 359.674 304.044 359.443 303.819C359.212 303.594 358.903 303.466 358.58 303.462Z" fill="#F0F3FB"/>
<path d="M388.318 223.676C393.982 199.912 385.138 179.038 368.008 168.914C368.273 168.81 368.494 168.617 368.634 168.369C368.775 168.122 368.826 167.833 368.779 167.552C368.732 167.271 368.59 167.015 368.377 166.826C368.164 166.637 367.893 166.527 367.608 166.514C353.608 165.53 338.59 163.558 324.608 164.714C304.316 160.882 253.986 167.36 199.844 163.424C170.71 161.304 114.556 167.062 86.6861 175.242C64.3361 181.8 43.7001 197.25 43.7001 203.968C46.7001 219.522 71.3101 217.588 101.27 224.73C105.54 225.748 105.87 228.17 103.124 231.5C102.006 232.852 85.9241 242.238 98.3601 247.7C94.1921 246.7 133.022 262.75 146.36 268.41C167.662 277.456 188.424 286.232 210.902 288.47C213.993 289.037 217.181 288.761 220.128 287.67C226.414 284.744 225.146 274.87 244.5 280.096C274.596 289.225 305.185 296.642 336.12 302.312C343.646 303.7 351.416 305.512 359.088 305.622C375.716 305.862 384.128 294.438 380.652 283.708C378.652 277.558 374.594 273.242 374.986 264.2C375.536 251.29 384.948 237.8 388.318 223.676Z" fill="#61B7FC"/>
<path d="M357.276 303.462C266.934 296.918 238.476 266.722 226.188 279.842C224.03 282.146 224.032 285.862 220.672 286.912C201.21 293.004 142.45 265.83 121.128 256.724C98.2521 246.954 92.8481 246.232 95.7041 239.674C97.0641 236.546 100.07 234.714 102.474 232.452C117.214 218.58 81.8101 223.606 52.8741 212.392C44.4741 209.132 41.8181 205.412 48.0101 198.752C63.5001 182.094 86.8181 176.6 108.8 171.774C110.356 171.432 109.704 169.02 108.148 169.374C86.0661 174.288 61.6741 180.1 46.3081 197C43.7921 199.766 41.7661 202.506 42.1821 206.24C43.3141 216.398 54.6181 259.136 71.3321 301.658C72.0181 303.406 74.3081 302.276 73.7321 300.956C65.8661 282.756 54.3121 248.346 45.9001 211.642C55.4761 218.782 86.3961 222.028 99.9601 225.384C102.298 225.962 104.306 226.128 102.76 228.342C99.4661 233.084 90.2461 236.164 93.1601 246.056C94.7121 251.316 98.6401 264.382 106.314 298.856C106.66 300.412 109.064 299.762 108.714 298.204C105.714 284.526 100.466 261.902 96.4781 248.604C98.8421 250.112 152.088 272.922 172.302 280.448C185.936 285.524 203.416 290.774 217.886 289.876C219.479 289.832 221.047 289.474 222.5 288.822C220.344 297.95 218.204 307.077 216.08 316.204C215.722 317.756 218.126 318.458 218.48 316.856C221.542 303.256 223.24 293.998 225.096 288.03C229.938 272.448 236.434 280.084 270.514 290.166C289.414 295.766 315.314 303.83 357.24 305.874C358.89 305.948 358.88 303.578 357.276 303.462Z" fill="black"/>
<path d="M75.2 90.984C74.522 91.0347 73.8493 90.8321 73.3122 90.4153C72.775 89.9986 72.4115 89.3973 72.292 88.728C72.2398 88.5419 72.1457 88.3702 72.0168 88.2261C71.8879 88.082 71.7277 87.9693 71.5485 87.8967C71.3694 87.8241 71.1759 87.7935 70.9831 87.8072C70.7902 87.821 70.6031 87.8787 70.436 87.976C69.1254 89.1349 67.504 89.8844 65.772 90.132C64.67 90.148 63.416 89.332 63.416 88.276C63.4076 88.0301 63.3287 87.7919 63.1889 87.5894C63.0491 87.387 62.8541 87.229 62.6271 87.134C62.4002 87.039 62.1507 87.0112 61.9084 87.0537C61.6661 87.0963 61.4411 87.2074 61.26 87.374C58.802 89.912 56.86 88.748 56.394 90.634C56.066 91.958 57.546 92.452 53.486 94.696C40.714 101.756 25.956 97.512 26.858 90.834C27 89.78 25.698 89.416 24.952 89.73C23.5482 90.3003 22.0037 90.4284 20.5251 90.097C19.0465 89.7657 17.7043 88.9908 16.678 87.876C16.5422 87.7439 16.3783 87.6441 16.1985 87.5841C16.0187 87.524 15.8278 87.5054 15.6398 87.5294C15.4518 87.5534 15.2716 87.6195 15.1127 87.7228C14.9538 87.8261 14.8203 87.964 14.722 88.126C13.556 90.46 11.092 89.426 11.764 91.436C11.658 91.636 11.252 97.978 11.212 100.062C11.102 105.77 15.114 107.176 20.59 108.084C46.554 112.398 59.086 94.364 73.79 103.07C73.9843 103.176 74.2026 103.23 74.4237 103.227C74.6449 103.224 74.8616 103.164 75.0529 103.053C75.2443 102.942 75.404 102.784 75.5166 102.594C75.6293 102.403 75.691 102.187 75.696 101.966C75.992 98.712 76.248 95.398 76.496 92.138C76.458 91.8207 76.3052 91.5282 76.0665 91.3157C75.8278 91.1031 75.5197 90.9852 75.2 90.984Z" fill="#61B7FC"/>
<path d="M56.1361 91.436C55.6061 89.466 55.6801 88.26 55.5361 80.654C55.5233 80.3831 55.4253 80.1232 55.2561 79.9112C55.0869 79.6993 54.8551 79.5462 54.5938 79.4737C54.3324 79.4012 54.0549 79.4131 53.8007 79.5076C53.5465 79.6021 53.3286 79.7744 53.1781 80C52.8041 80.748 53.0781 80 53.0781 74.484C53.0716 74.237 52.9939 73.9971 52.8542 73.7932C52.7146 73.5893 52.5189 73.4301 52.2909 73.3348C52.0629 73.2395 51.8122 73.2121 51.569 73.256C51.3258 73.2998 51.1005 73.4131 50.9201 73.582C49.0601 75.28 49.8881 75.666 48.9201 70.924C48.8616 70.7114 48.7482 70.5179 48.5913 70.3629C48.4344 70.208 48.2395 70.097 48.0262 70.041C47.8129 69.9851 47.5886 69.9863 47.3759 70.0444C47.1631 70.1025 46.9694 70.2154 46.8141 70.372C41.6981 75.588 35.2301 79.75 31.6141 86.172C31.0881 84.072 29.3021 84.572 29.0561 85.62C28.4921 88.02 24.4561 92.62 28.9901 95.582C33.3041 98.394 43.9341 99.048 55.6341 92.842C55.851 92.6867 56.0153 92.4688 56.105 92.2175C56.1947 91.9663 56.2055 91.6936 56.1361 91.436Z" fill="#FB9EE6"/>
<path d="M74.742 55.73C74.742 64.53 76.264 58.79 67.018 56.634C52.764 53.306 40.8681 64.524 26.2001 65.4C14.7221 66.094 13 62.522 12 62.2C11.813 62.066 11.593 61.9856 11.3636 61.9674C11.1342 61.9492 10.9043 61.994 10.6985 62.0969C10.4927 62.1998 10.3189 62.3569 10.1958 62.5513C10.0727 62.7457 10.005 62.97 10 63.2C10 104.696 9.95005 102.316 10.05 102.516C10.05 106.204 16.756 108.214 20.33 109.086C47.374 115.686 52.652 95.95 74.742 105.174V201.16C74.755 201.484 74.8926 201.79 75.1262 202.014C75.3598 202.239 75.6711 202.364 75.995 202.364C76.319 202.364 76.6303 202.239 76.8639 202.014C77.0974 201.79 77.2351 201.484 77.248 201.16V55.63C77.248 54.126 74.742 54.126 74.742 55.73ZM22.788 68.016C39.788 68.434 50.004 57.25 63.91 58.638C65.9829 58.7759 68.0066 59.3314 69.8594 60.271C71.7122 61.2107 73.356 62.5151 74.692 64.106C74.692 100.212 75.372 86.972 71.28 86.972C69.536 87.088 65.116 90.902 64.06 86.02C63.9961 85.8115 63.8799 85.6228 63.7225 85.4718C63.5652 85.3208 63.3718 85.2125 63.1609 85.1572C62.9499 85.1019 62.7283 85.1014 62.5171 85.1558C62.3059 85.2102 62.1121 85.3177 61.954 85.468C60.6606 86.6484 59.0967 87.4926 57.4001 87.926C57.3001 86.926 56.5861 80.104 56.3461 77.696C56.3333 77.451 56.2514 77.2147 56.1098 77.0143C55.9682 76.814 55.7727 76.6579 55.546 76.5641C55.3193 76.4703 55.0706 76.4427 54.8289 76.4845C54.5871 76.5262 54.3622 76.6356 54.18 76.8C53.53 77.452 53.636 78.05 53.328 71.936C53.3204 71.6898 53.242 71.4509 53.1024 71.2479C52.9627 71.045 52.7675 70.8865 52.5402 70.7914C52.3129 70.6963 52.0631 70.6686 51.8205 70.7117C51.5779 70.7547 51.3528 70.8666 51.1721 71.034C50.6088 71.5732 50.0747 72.142 49.572 72.738C49.3769 71.6941 49.2434 70.6396 49.1721 69.58C49.1656 69.3332 49.088 69.0935 48.9486 68.8897C48.8092 68.6859 48.6139 68.5267 48.3862 68.4312C48.1585 68.3358 47.9081 68.3081 47.665 68.3515C47.422 68.3949 47.1966 68.5076 47.016 68.676C30.262 84.7 32.158 86.538 31.216 83.72C31.1432 83.4864 31.005 83.2785 30.8177 83.121C30.6303 82.9635 30.4018 82.8631 30.1591 82.8315C29.9164 82.7999 29.6698 82.8386 29.4484 82.9429C29.227 83.0472 29.0402 83.2128 28.91 83.42C25.23 88.306 25.55 88.134 25.35 88.134C23.294 88.886 20.55 89.966 18.53 88.486C17.894 88.02 17.21 86.086 15.62 86.98C14.4826 87.6749 13.3934 88.446 12.36 89.288V65.56C15.5746 67.2414 19.161 68.086 22.788 68.016ZM55.0321 88.928C55.3921 92.142 55.6041 91.886 54.0801 92.84C42.3621 100.174 28.522 96.772 27.362 92.054C27.002 90.59 29.008 85.694 30.41 87.724C32.01 90.032 32.1961 86.946 47.0601 72.23C47.2601 73.482 47.498 74.69 47.812 75.89C47.8842 76.1243 48.0221 76.3328 48.2094 76.4908C48.3968 76.6489 48.6256 76.7497 48.8686 76.7813C49.1116 76.8129 49.3586 76.774 49.5802 76.6692C49.8017 76.5643 49.9884 76.398 50.118 76.19C50.426 75.744 50.77 75.338 51.118 74.886C51.218 76.542 51.3681 78.196 51.5181 79.852C51.5265 80.0979 51.6054 80.3362 51.7452 80.5386C51.885 80.741 52.08 80.8991 52.3069 80.994C52.5339 81.089 52.7833 81.1169 53.0257 81.0743C53.268 81.0318 53.493 80.9206 53.674 80.754C54.6 80.06 53.9001 78.758 55.0321 88.928ZM37.1301 107.382C27.1461 109.046 13.606 105.916 12.508 102.218V91.836C13.318 92.106 13.708 91.346 16.218 89.636C17.96 91.378 20.16 92.6 24.844 90.99C24.844 99.948 41.3641 102.526 54.1301 95.654C56.8101 94.212 58.066 93.384 57.69 90.388C59.3254 90.0431 60.8765 89.3784 62.2541 88.432C64.8141 92.91 70.7921 89.924 71.0801 89.632C71.5067 90.1895 72.0423 90.6544 72.6543 90.9982C73.2664 91.3421 73.942 91.5577 74.64 91.632V102.514C57.384 95.9 50.7681 105.11 37.1301 107.382Z" fill="black"/>
<path d="M33.8201 102.97C32.0541 103.242 32.0201 101.516 30.7621 101.114C29.5041 100.712 27.9621 102.464 26.1481 102.018C25.8424 101.969 25.5656 101.809 25.3713 101.568C25.1769 101.327 25.0789 101.023 25.0961 100.714C25.0901 100.493 25.0277 100.277 24.9147 100.087C24.8017 99.8974 24.6419 99.7395 24.4506 99.6288C24.2593 99.5181 24.0428 99.4583 23.8218 99.455C23.6008 99.4517 23.3826 99.5051 23.1881 99.61C22.2303 100.228 21.2041 100.733 20.1301 101.114C19.8346 101.226 19.5922 101.445 19.4513 101.728C19.3105 102.01 19.2815 102.336 19.3701 102.639C19.4588 102.942 19.6586 103.201 19.9297 103.363C20.2007 103.525 20.523 103.579 20.8321 103.514C21.5835 103.239 22.3181 102.921 23.0321 102.56C23.555 103.402 24.3526 104.038 25.2901 104.36C26.8771 104.736 28.5479 104.484 29.9541 103.658C30.4676 104.327 31.1564 104.84 31.9441 105.141C32.7318 105.442 33.5875 105.518 34.4161 105.362C34.7026 105.256 34.9399 105.048 35.0827 104.778C35.2255 104.509 35.2636 104.195 35.1897 103.899C35.1159 103.603 34.9353 103.344 34.6826 103.173C34.4298 103.001 34.1227 102.929 33.8201 102.97Z" fill="black"/>
<path d="M156.884 165.8C193.884 160.754 207.432 167.51 207.432 163.6C207.433 163.435 207.401 163.272 207.339 163.12C207.276 162.967 207.184 162.829 207.068 162.712C206.951 162.596 206.813 162.504 206.66 162.441C206.508 162.379 206.345 162.347 206.18 162.348C189.779 160.865 173.265 161.184 156.934 163.3C155 163.582 155.55 165.988 156.884 165.8Z" fill="black"/>
<path d="M310.788 164.702C313.094 164.834 315.454 164.914 317.758 165.054C317.923 165.055 318.086 165.022 318.239 164.96C318.391 164.897 318.529 164.804 318.646 164.688C318.763 164.571 318.855 164.433 318.918 164.281C318.981 164.128 319.013 163.965 319.012 163.8C318.892 162.18 317.874 162.622 310.788 162.2C309.2 162.098 309.078 164.6 310.788 164.702Z" fill="black"/>
<path d="M367.054 166.2C341.102 165.314 338.118 162.972 338.118 165.6C338.117 165.765 338.149 165.929 338.211 166.081C338.274 166.234 338.366 166.372 338.483 166.489C338.6 166.606 338.738 166.698 338.891 166.761C339.044 166.823 339.207 166.855 339.372 166.854C348.608 167.61 357.826 168.394 367.054 168.71C367.387 168.71 367.706 168.578 367.941 168.342C368.177 168.107 368.309 167.788 368.309 167.455C368.309 167.122 368.177 166.803 367.941 166.568C367.706 166.332 367.387 166.2 367.054 166.2Z" fill="black"/>
<path d="M353.514 207.228C346.914 200.59 347.526 190.794 342.832 179.948C337.014 166.496 340.222 166.886 338.72 157.13C337.372 148.36 331.32 144.806 325.932 146.098C319.562 147.626 320.332 155.368 320.166 158.684C319.858 164.83 316.55 171.632 313.898 176.78C310.934 172.068 311.498 162.916 308.782 156.556C306.61 151.472 303.43 149.89 302.514 147.756C303.28 140.854 297.876 134.804 290.728 136.222C287.42 136.878 284.068 139.482 284.21 143.142C284.436 148.954 286.046 158.876 278.644 163.542C270.47 157.06 280.824 144.894 273.076 138.77C268.098 134.834 258.404 138.06 257.53 146.092C256.762 153.162 259.27 147.704 252.766 162.79C252.054 157.422 249.905 152.346 246.548 148.098C246.548 146.364 247.084 148.996 244.592 136.964C244.128 134.726 243.892 130.508 237.07 127.686C231.67 125.452 227.616 132.524 224.22 137.486C219.294 131.486 205.076 135.02 208.034 145.286C208.918 148.35 211.748 149.592 209.59 156.068C208.95 156.548 204.17 175.896 204.374 184.602C204.8 202.762 217.774 208.77 227.09 203.358C230.402 223.444 255.074 222.026 259.938 219.054C264.126 224.64 271.06 229.758 277.538 227.328C286.382 241.14 304.564 241.28 320.564 238.362C323.74 237.782 318.114 233.998 313.244 219.506C318.494 219.034 323.685 218.043 328.74 216.548C328.948 216.483 329.136 216.366 329.286 216.209C329.437 216.051 329.545 215.857 329.6 215.647C329.655 215.436 329.655 215.214 329.601 215.003C329.547 214.792 329.44 214.598 329.29 214.44C327.574 212.401 326.264 210.052 325.43 207.52C332.306 211.6 339.572 214.72 347.294 211.132C347.509 211.008 347.681 210.822 347.788 210.598C347.895 210.374 347.932 210.123 347.894 209.878L352.508 209.426C353.664 209.234 354.314 208.032 353.514 207.228Z" fill="black"/>
<path d="M208.336 150.16C208.136 149.56 208.186 149.924 208.186 148.56C208.186 145.596 201.046 149.822 206.786 151.87C207.01 151.893 207.235 151.862 207.445 151.782C207.654 151.701 207.842 151.573 207.993 151.406C208.144 151.24 208.253 151.041 208.313 150.824C208.373 150.608 208.38 150.38 208.336 150.16Z" fill="#FBDD50"/>
<path d="M228.348 158.978C227.046 159.393 225.84 160.063 224.8 160.95C223.886 161.866 225.872 163.002 229.9 161.994C232.2 161.076 229.612 158.724 228.348 158.978Z" fill="#FBDD50"/>
<path d="M226.74 140.38C228.06 140.38 227.844 139.226 228.044 139.026C228.228 138.57 228.238 138.063 228.072 137.6C227.905 137.137 227.574 136.752 227.142 136.518C226.955 136.479 226.761 136.482 226.576 136.527C226.39 136.571 226.216 136.657 226.067 136.777C225.918 136.897 225.798 137.048 225.715 137.22C225.632 137.392 225.588 137.581 225.586 137.772C225.586 139.812 225.6 140.38 226.74 140.38Z" fill="#FBDD50"/>
<path d="M282.254 147.35C282.445 147.435 282.654 147.471 282.863 147.454C283.071 147.437 283.272 147.368 283.447 147.254C283.622 147.139 283.765 146.982 283.863 146.798C283.962 146.613 284.012 146.407 284.01 146.198C283.97 145.896 283.987 145.59 284.06 145.294C284.06 143.066 281.602 143.548 281.602 144.944C280.966 145.262 281.102 146.968 282.254 147.35Z" fill="#FBDD50"/>
<path d="M286.566 161.342C287.002 162.648 289.726 162.834 289.726 161.092C289.726 159.8 289.848 159.252 289.126 158.734C287.708 158.026 285.466 160.242 286.566 161.342Z" fill="#FBDD50"/>
<path d="M279.918 177.318C279.084 177.701 278.288 178.161 277.54 178.694C276.126 178.41 275.754 180.418 276.638 181.294C276.964 181.456 278.1 183.586 279.354 182.792C281.868 181.21 281.692 176.652 279.918 177.318Z" fill="#FBDD50"/>
<path d="M320.568 155.676C319.852 154.246 317.308 155.808 317.308 156.528C317.256 156.772 317.276 157.026 317.365 157.259C317.454 157.492 317.608 157.695 317.81 157.843C318.011 157.99 318.25 158.077 318.499 158.092C318.748 158.107 318.997 158.05 319.214 157.928C319.794 157.54 320.718 157.22 320.718 156.624C320.79 156.3 320.737 155.961 320.568 155.676Z" fill="#FBDD50"/>
<path d="M291.482 237.818C289.406 237.818 289.042 237.104 287.72 236.916C284.94 232.188 279.418 234.226 280.65 236.248C281.304 237.318 282.382 236.514 283.65 236.514C284.906 236.672 284.878 238.928 285.312 239.804C285.458 240.098 284.292 242.526 291.474 240.276C293.018 239.8 293.178 237.818 291.482 237.818Z" fill="#FBDD50"/>
<path d="M267.11 228.04C266.241 227.666 265.417 227.196 264.652 226.64C264.652 225.72 260.892 224.128 259.386 226.39C258.328 227.99 261.086 228.86 262.846 228.39C265.83 230.478 265.414 229.57 264.702 230.046C260.556 231.822 263.114 236.486 266.608 234.258C268.142 233.336 269.536 232.201 270.75 230.886C273.476 231.112 269.964 227.224 267.11 228.04Z" fill="#FBDD50"/>
<path d="M242.386 220.066C242.041 220.186 241.69 220.286 241.334 220.366C235.874 217.466 236.382 217.708 235.766 217.708C234.474 215.124 233.42 215.744 230.4 216.154C229.06 216.336 229.13 218.842 231.102 218.554C231.156 218.554 233.158 218.27 233.21 218.252C233.698 218.742 233.444 218.67 233.01 219.756C232.514 221.58 232.984 223.99 234.716 224.52C236.676 225.12 241.81 223.094 242.288 222.616C245.31 222.12 243.814 219.486 242.386 220.066Z" fill="#FBDD50"/>
<path d="M216.962 206.776C211.272 205.828 211.412 201.236 209.138 200.408C205.854 199.208 204.528 204.708 209.188 204.32C209.927 205.486 210.876 206.503 211.988 207.32C210.876 208.99 212.238 212.794 217.354 208.774C218.264 208.33 217.864 206.976 216.962 206.776Z" fill="#FBDD50"/>
<path d="M216.058 143.288C213.946 143.288 211.336 146.754 214.458 148.704C215.133 149.057 215.882 149.248 216.643 149.261C217.405 149.274 218.16 149.109 218.846 148.778C219.533 148.448 220.133 147.962 220.599 147.359C221.064 146.756 221.383 146.052 221.528 145.304C222.184 142.654 220.464 140.2 216.058 143.288Z" fill="white"/>
<path d="M232.8 135.7C230.924 137.584 231.588 140.458 234.212 140.23C236.1 140.132 237.917 139.476 239.432 138.346C241.75 135.448 234.668 132.586 232.8 135.7Z" fill="white"/>
<path d="M236.068 156.728C233.336 158.094 234.1 161.84 236.468 161.694C238.436 161.151 240.189 160.012 241.484 158.434C242.33 156.834 241.284 154.458 239.884 154.924C239.16 154.956 238.45 155.132 237.794 155.441C237.139 155.751 236.552 156.189 236.068 156.728Z" fill="white"/>
<path d="M264.25 149.156C273.914 150.686 271.906 141.556 265.204 143.79C262.44 144.482 260.924 148.63 264.25 149.156Z" fill="white"/>
<path d="M267.2 168.764C258.98 169.63 261.258 176.436 266.042 175.442C267.402 175.158 271.554 173.08 271.914 171.322C272.468 168.66 269.486 168.524 267.2 168.764Z" fill="white"/>
<path d="M290.628 178.242C289.138 178.422 287.674 178.775 286.266 179.296C284.796 180.162 283.246 182.244 284.866 183.858C285.873 184.508 287.079 184.775 288.266 184.61C296.096 184.61 295.266 177.888 290.628 178.242Z" fill="white"/>
<path d="M303.566 155.976C303.142 155.445 302.591 155.028 301.965 154.762C301.339 154.497 300.657 154.392 299.98 154.457C299.303 154.522 298.653 154.754 298.088 155.133C297.523 155.512 297.062 156.026 296.746 156.628C292.474 158.764 295.902 162.918 301.662 160.39C302.095 160.25 302.493 160.019 302.829 159.712C303.165 159.406 303.432 159.031 303.613 158.614C303.793 158.196 303.882 157.745 303.874 157.29C303.866 156.835 303.761 156.387 303.566 155.976Z" fill="white"/>
<path d="M290.478 147.8C293.258 147.982 298.61 143.878 296.296 142.334C296.06 142.134 290.352 140.268 289.024 143.588C288.645 143.894 288.369 144.309 288.234 144.777C288.099 145.246 288.112 145.744 288.271 146.205C288.43 146.666 288.727 147.066 289.122 147.351C289.517 147.637 289.991 147.794 290.478 147.8Z" fill="white"/>
<path d="M335.06 154.522C334.126 153.586 332.922 152.967 331.617 152.752C330.313 152.537 328.973 152.736 327.788 153.322C324.804 154.442 324.836 157.41 328.788 157.986C331.742 158.412 336.898 156.582 335.06 154.522Z" fill="white"/>
<path d="M318.912 168.312C317.422 169.058 314.664 173.886 314.6 179.044C314.6 179.23 322.8 201.102 325.878 206.564C326.384 207.464 328.208 205.978 328.44 204.92C335.146 174.294 322.812 166.364 318.912 168.312Z" fill="white"/>
<path d="M288.472 203.768C284.808 186.658 276.91 189.1 276.588 189.526C271.622 196.05 269.478 221.224 283.758 232.804C283.916 232.955 284.109 233.064 284.321 233.119C284.532 233.174 284.754 233.174 284.966 233.118C285.177 233.063 285.371 232.954 285.528 232.803C285.685 232.651 285.801 232.461 285.864 232.252C287.496 225.57 292.414 222.172 288.472 203.768Z" fill="white"/>
<path d="M266.746 189.11C263.896 183.974 257.398 182.644 257.13 191.33C256.796 202.178 256.422 213.3 262.896 222.272C265.846 226.36 271.314 230.106 271.774 226.786C274.136 209.654 268.55 192.362 266.746 189.11Z" fill="white"/>
<path d="M241.334 186.718C237.844 171.278 231.438 170.434 230.4 173.578C228.177 180.373 226.944 187.453 226.74 194.6C226.118 215.546 240.292 219.378 241.232 217.168C244 210.64 246.012 207.422 241.334 186.718Z" fill="white"/>
<path d="M208.536 162.346C206.044 167.699 204.646 173.496 204.424 179.396C203.624 196.25 211.576 204.996 213.45 203.566C215.763 201.625 217.609 199.189 218.85 196.437C220.092 193.685 220.697 190.688 220.622 187.67C221.226 165.312 210.634 157.964 208.536 162.346Z" fill="white"/>
<path d="M286.416 182.706C287.236 183.936 289.204 182.594 288.774 181.306C288.717 181.066 288.588 180.849 288.405 180.683C288.222 180.518 287.994 180.412 287.749 180.379C287.504 180.346 287.256 180.388 287.035 180.5C286.815 180.612 286.634 180.787 286.516 181.004C286.228 181.576 285.958 182.246 286.416 182.706Z" fill="black"/>
<path d="M302.314 207.428C300.668 207.428 301.026 209.518 300.658 213.446C295.086 209.246 295.858 202.228 293.286 202.914C292.968 203.009 292.7 203.226 292.541 203.517C292.381 203.808 292.343 204.151 292.434 204.47C294.166 209.206 296.314 214.308 301.11 216.656C301.304 216.763 301.523 216.818 301.744 216.815C301.966 216.813 302.183 216.753 302.375 216.642C302.567 216.531 302.726 216.372 302.839 216.181C302.951 215.99 303.012 215.774 303.016 215.552C303.23 213.246 303.416 210.988 303.616 208.682C303.591 208.349 303.445 208.038 303.205 207.806C302.964 207.575 302.647 207.44 302.314 207.428Z" fill="black"/>
<path d="M264.502 170.77C264.182 170.788 263.88 170.928 263.66 171.161C263.44 171.394 263.317 171.703 263.317 172.024C263.317 172.345 263.44 172.654 263.66 172.887C263.88 173.12 264.182 173.26 264.502 173.278C264.822 173.26 265.124 173.12 265.344 172.887C265.564 172.654 265.687 172.345 265.687 172.024C265.687 171.703 265.564 171.394 265.344 171.161C265.124 170.928 264.822 170.788 264.502 170.77Z" fill="black"/>
<path d="M269.216 166.458C267.77 166.359 266.319 166.552 264.949 167.026C263.579 167.5 262.318 168.245 261.242 169.216C259.926 169.742 259.12 173.43 261.292 175.734C263.864 178.464 268.148 177.104 271.322 174.582C275.62 171.164 273.61 166.956 269.216 166.458ZM270.118 172.374C262.546 178.774 258.476 169.832 267.718 169.014C270.444 168.772 272.46 170.034 270.118 172.374Z" fill="black"/>
<path d="M252.818 181C251.178 180.578 251.142 182.096 250.008 187.62C245.486 182.974 247.208 178.896 244.794 179.646C240.918 180.846 251.012 195.204 252.014 190.328C253.552 182.856 254.478 181.43 252.818 181Z" fill="black"/>
<path d="M237.772 159.136C238.092 159.118 238.394 158.978 238.614 158.745C238.834 158.512 238.957 158.203 238.957 157.882C238.957 157.561 238.834 157.253 238.614 157.019C238.394 156.786 238.092 156.646 237.772 156.628C237.452 156.646 237.15 156.786 236.93 157.019C236.71 157.253 236.587 157.561 236.587 157.882C236.587 158.203 236.71 158.512 236.93 158.745C237.15 158.978 237.452 159.118 237.772 159.136Z" fill="black"/>
<path d="M217.462 147.35C218.462 145.35 214.956 144.322 214.956 146.55C214.956 147.938 216.922 148.43 217.462 147.35Z" fill="black"/>
<path d="M218.918 140.53C217.628 140.867 216.394 141.391 215.256 142.086C209.35 145.01 211.1 148.742 213.1 150.16C216.612 152.646 221.9 149.748 222.93 144.894C223.147 144.319 223.199 143.695 223.082 143.092C222.965 142.489 222.683 141.93 222.267 141.477C221.851 141.025 221.318 140.697 220.727 140.53C220.135 140.362 219.509 140.363 218.918 140.53ZM220.572 144.242C219.878 147.71 216.074 149.914 214.098 147.792C212.478 146.054 215.558 144.592 217.712 143.622C219.4 142.856 220.924 142.482 220.572 144.242Z" fill="black"/>
<path d="M233.962 138.976C234.282 138.958 234.584 138.818 234.804 138.585C235.024 138.352 235.147 138.043 235.147 137.722C235.147 137.401 235.024 137.092 234.804 136.859C234.584 136.626 234.282 136.486 233.962 136.468C233.642 136.486 233.341 136.626 233.12 136.859C232.9 137.092 232.777 137.401 232.777 137.722C232.777 138.043 232.9 138.352 233.12 138.585C233.341 138.818 233.642 138.958 233.962 138.976Z" fill="black"/>
<path d="M238.524 141.384C243.746 139.068 242.842 133.648 237.124 132.958C235.915 132.676 234.654 132.708 233.46 133.05C232.266 133.392 231.18 134.034 230.304 134.914C229.122 135.976 228.658 145.758 238.524 141.384ZM238.024 138.876C236.68 139.624 235.143 139.955 233.61 139.828C232.122 139.628 232.192 137.828 232.558 136.368C235.86 133.616 242.482 136.514 238.024 138.876Z" fill="black"/>
<path d="M265.054 148.2C265.374 148.182 265.676 148.042 265.896 147.809C266.116 147.576 266.239 147.267 266.239 146.946C266.239 146.625 266.116 146.316 265.896 146.083C265.676 145.85 265.374 145.71 265.054 145.692C264.734 145.71 264.432 145.85 264.212 146.083C263.992 146.316 263.869 146.625 263.869 146.946C263.869 147.267 263.992 147.576 264.212 147.809C264.432 148.042 264.734 148.182 265.054 148.2Z" fill="black"/>
<path d="M261.042 149.708C262.378 151.132 268 151.74 270.72 149.558C274.78 146.3 271.576 140.522 265.654 142.036C261.222 143.168 259.024 147.56 261.042 149.708ZM269.918 146.498C269.773 146.882 269.544 147.23 269.25 147.516C268.955 147.802 268.601 148.02 268.212 148.154C266.675 148.528 265.075 148.56 263.524 148.246C262.512 148.026 262.698 146.174 264.862 145C267.342 143.656 270.722 144.488 269.918 146.498Z" fill="black"/>
<path d="M308.382 185.664C308.076 187.664 307.73 189.626 307.428 191.632C304.881 188.061 303.514 183.783 303.516 179.396C303.612 177.796 301.106 177.796 301.01 179.396C300.644 185.462 303.81 190.84 307.078 195.644C307.626 196.444 309.188 196.496 309.384 195.342C309.896 192.342 310.336 189.324 310.838 186.316C310.907 185.997 310.85 185.663 310.679 185.384C310.508 185.106 310.237 184.903 309.921 184.82C309.605 184.736 309.269 184.777 308.983 184.934C308.696 185.091 308.481 185.353 308.382 185.664Z" fill="black"/>
<path d="M297.8 157.48C297.48 157.498 297.178 157.638 296.958 157.871C296.738 158.105 296.615 158.413 296.615 158.734C296.615 159.055 296.738 159.364 296.958 159.597C297.178 159.83 297.48 159.97 297.8 159.988C298.12 159.97 298.422 159.83 298.642 159.597C298.862 159.364 298.985 159.055 298.985 158.734C298.985 158.413 298.862 158.105 298.642 157.871C298.422 157.638 298.12 157.498 297.8 157.48Z" fill="black"/>
<path d="M305.774 158.584C306.704 155.596 303.648 152.034 299.004 153.268C294.918 154.354 291.24 158.918 293.738 161.492C296.4 164.226 304.456 162.814 305.774 158.584ZM302.914 158.684C302.019 159.476 300.943 160.034 299.78 160.308C298.617 160.582 297.404 160.563 296.25 160.254C293.69 159.468 297.432 156.62 298.65 156.09C301.694 154.768 304.754 156.634 302.914 158.684Z" fill="black"/>
<path d="M290.692 143.186C290.439 143.274 290.217 143.435 290.055 143.649C289.892 143.863 289.797 144.12 289.781 144.388C289.765 144.656 289.828 144.923 289.963 145.155C290.098 145.387 290.299 145.574 290.54 145.692C290.824 145.806 291.138 145.819 291.429 145.727C291.721 145.636 291.972 145.447 292.14 145.192C292.496 144.492 292.52 143.186 290.692 143.186Z" fill="black"/>
<path d="M355.27 205.874C347.27 200.69 349.056 191.112 343.534 179.044C337.826 166.562 340.602 166.726 340.426 158.834C340.282 152.354 336.826 146.402 331.148 144.694C324.98 142.84 317.47 146.812 319.164 152.566C317.658 153.87 316.186 155.204 314.7 156.528C313.03 158.016 316.9 159.86 318.912 159.788C318.358 164.692 315.018 168.744 313.346 174.188C310.27 165.348 313.146 154.076 303.766 148.01C303.833 147.87 303.852 147.712 303.818 147.56C303.284 142.538 302.49 138.372 298.252 135.624C296.893 134.748 295.352 134.195 293.746 134.007C292.141 133.818 290.513 134 288.989 134.537C287.464 135.074 286.082 135.953 284.949 137.106C283.816 138.259 282.962 139.656 282.452 141.19C282.222 141.306 282.364 141.206 280.346 143.548C279.696 144.302 278.746 145.148 278.746 146.256C278.746 148.214 281.01 148.626 282.958 149.314C282.958 153.778 281.182 157.514 278.846 161.902C274.304 153.866 276.646 151.264 277.046 145.702C277.323 143.729 276.974 141.72 276.047 139.956C275.121 138.193 273.664 136.765 271.882 135.874C265.068 132.314 256.096 137.96 256.536 145C255.032 146.052 253.572 147.15 252.072 148.21C251.888 148.323 251.736 148.482 251.631 148.671C251.525 148.859 251.47 149.072 251.47 149.288C251.47 149.504 251.525 149.717 251.631 149.905C251.736 150.094 251.888 150.253 252.072 150.366C253.351 151.01 254.755 151.369 256.186 151.42C256.186 153.518 253.386 159.262 252.624 161.448C252.292 158.877 251.79 156.331 251.12 153.826C250.551 152.005 249.65 150.305 248.462 148.812C248.455 148.57 248.405 148.332 248.312 148.108C245.804 143.646 246.332 138.19 244.5 133.508C242.434 128.238 238.632 126.078 235.01 126.218C228.354 126.476 227.178 132.394 224.14 135.866C222.572 134.116 220.471 132.93 218.162 132.493C215.854 132.056 213.465 132.39 211.365 133.446C209.266 134.501 207.572 136.218 206.545 138.332C205.519 140.446 205.217 142.839 205.686 145.142C204.924 145.904 205.388 145.846 202.024 149.606C200.224 151.606 205.53 153.568 208.244 153.568C207.506 163.718 197.096 183.2 206.69 199.002C202.336 200.694 202.368 206.432 208.846 206.324C211.034 206.286 210.204 205.704 209.698 207.724C208.806 211.284 211.834 213.666 216.418 210.924C217.937 209.939 219.319 208.759 220.53 207.414C222.638 207.434 224.714 206.898 226.548 205.86C227.362 208.829 228.776 211.599 230.702 214C225.942 216.082 226.336 221.022 232.356 220.018C230.27 224.418 231.894 226.238 235.316 226.086C239.544 225.524 243.572 223.94 247.05 221.472C250.954 221.542 254.836 220.863 258.484 219.472C259.246 220.899 260.153 222.244 261.192 223.484C257.046 224.802 256.428 227.484 257.732 229.1C258.994 230.654 261.762 229.9 262.346 229.9C261.574 231.25 260.546 232.768 261.242 234.064C261.851 234.974 262.754 235.646 263.8 235.968C267.62 237.34 271.452 233.29 273.93 230.05C275.259 230.029 276.578 229.81 277.842 229.4C278.749 230.572 279.737 231.678 280.8 232.71C276.546 235.14 278.654 240.14 283.708 238.878C282.472 245.064 292.392 242.318 296.796 239.53C297.326 239 314.776 242.83 322.072 238.476C322.471 238.294 322.813 238.006 323.061 237.644C323.309 237.281 323.454 236.858 323.479 236.42C323.505 235.982 323.411 235.545 323.207 235.156C323.003 234.768 322.697 234.442 322.322 234.214C317.026 229.568 317.722 227.32 314.248 219.52C320.216 219.52 326.648 219.174 331.6 215.508C332.148 215.108 332.558 214.096 331.85 213.552C331.082 212.959 330.376 212.289 329.744 211.552C342.988 216.292 361.556 209.952 355.27 205.874ZM317.858 157.13C318.56 156.53 319.258 155.876 319.916 155.274C320.264 157.2 319.34 157.722 317.858 157.13ZM318.858 167.962C319.458 168.162 322.192 166.762 325.478 171.974C329.588 178.492 331.728 197.728 326.678 206.774C325.27 203.788 324.129 200.683 323.268 197.496C316.61 175.8 311.664 182.356 318.862 167.962H318.858ZM281.258 146.056C281.258 146.056 281.76 145.628 283.146 144.242C283.507 145.048 283.56 145.958 283.296 146.8L281.258 146.056ZM280.89 163.498C286.438 153.018 285.454 150.982 285.454 148.604C285.873 147.566 286.042 146.444 285.946 145.329C285.85 144.214 285.492 143.137 284.902 142.186C285.361 140.656 286.264 139.296 287.495 138.278C288.727 137.261 290.233 136.631 291.822 136.468C293.492 136.352 295.159 136.739 296.607 137.58C298.055 138.42 299.218 139.675 299.946 141.182C300.699 142.987 301.156 144.9 301.3 146.85C300.226 146.427 299.092 146.174 297.94 146.098C300.846 140.286 292.084 137.01 287.66 141.936C285.296 144.568 285.942 148.78 289.516 149.558C288.742 150.437 288.153 151.463 287.783 152.574C287.412 153.685 287.269 154.859 287.36 156.026C287.36 156.868 282.76 159.858 283.398 161.894C283.782 163.142 285.104 163.38 288.864 163.85C288.74 164.218 287.36 167.85 287.36 167.962C286.161 168.157 285.017 168.602 284 169.266C279.1 162.6 280.38 164.71 280.9 163.498H280.89ZM295.96 143.736C296.124 147.298 289.928 147.364 289.36 146.8C288.184 146.212 288.498 143.292 291.532 142.29C293.552 141.626 295.894 142.12 295.97 143.736H295.96ZM287.41 161.136C285.89 160.936 286.04 161.354 288.462 158.628C289.012 159.459 289.308 160.432 289.314 161.428C288.358 161.442 290.2 161.512 287.42 161.142L287.41 161.136ZM259.026 144.336C259.192 137.808 270.184 134.036 273.87 141.176C276.302 145.892 271.77 151.248 274.622 158.776C276.531 163.141 279.028 167.224 282.044 170.912C281.109 172.306 280.306 173.784 279.644 175.326C278.992 172.416 279.184 169.362 278.09 166.6C277.093 164.027 275.177 161.915 272.713 160.674C270.248 159.432 267.411 159.149 264.75 159.88C264.55 159.93 264.35 160.03 264.15 160.08C264.002 158.509 263.375 157.021 262.352 155.819C261.329 154.616 259.961 153.758 258.434 153.36C259.19 150.417 259.394 147.359 259.036 144.342L259.026 144.336ZM279.336 182.298C279.07 182.202 276.936 181.328 276.936 181.044C277.984 179.995 279.107 179.023 280.296 178.136C280.477 179.594 280.141 181.069 279.346 182.304L279.336 182.298ZM254.462 164.646C255.272 161.6 256.346 158.63 257.672 155.77C260.086 155.77 261.432 158.708 261.784 161.336C260.519 162.184 259.452 163.295 258.656 164.593C257.859 165.891 257.353 167.346 257.17 168.858C257.02 168.958 256.82 169.11 256.668 169.21C253.016 164.6 254.294 165.6 254.472 164.652L254.462 164.646ZM227.8 135.014C227.8 134.652 229.34 132.878 229.454 132.306C229.916 131.451 230.56 130.708 231.341 130.13C232.123 129.552 233.022 129.154 233.975 128.963C234.927 128.772 235.91 128.793 236.854 129.025C237.798 129.258 238.679 129.695 239.434 130.306C243.634 133.852 243.196 140.44 244.6 145.452C243.251 144.659 241.754 144.152 240.201 143.962C238.648 143.772 237.072 143.903 235.572 144.348C228.468 146.574 230.448 153.668 227.498 142.948C228.128 142.938 231.646 139.64 227.8 135.014ZM226.294 137.214C226.294 137.462 228.002 138.714 226.746 140.472C225.702 137.542 225.15 138.358 226.288 137.222L226.294 137.214ZM205.384 150.502C204.604 150.118 204.48 150.818 206.984 147.594C207.656 148.653 208.068 149.856 208.184 151.104C207.227 151.025 206.285 150.825 205.378 150.51L205.384 150.502ZM206.938 203.61C205.138 202.882 207.088 201.41 208.19 201.152C208.919 202.087 209.743 202.944 210.648 203.71C209.416 203.932 208.152 203.901 206.932 203.618L206.938 203.61ZM206.888 193.63C203.058 182.874 206.56 172.372 209.088 162.23C209.138 162.128 209.138 161.978 209.188 161.878C221.67 161.628 219.988 189.096 215.958 198.938C215.466 200.428 214.519 201.726 213.25 202.648C210.261 200.361 208.04 197.219 206.882 193.638L206.888 193.63ZM213.808 205.866C214.955 206.432 216.168 206.853 217.418 207.12C212.092 211.916 210.332 209.096 213.8 205.874L213.808 205.866ZM225.994 203.358C224.452 204.296 222.701 204.837 220.898 204.933C219.096 205.029 217.298 204.678 215.664 203.91C222.682 197.828 226.28 160.034 209.896 159.278C212.266 149.278 209.806 147.864 208.242 144.736C207.996 143.651 207.975 142.526 208.178 141.432C208.382 140.338 208.806 139.297 209.425 138.372C210.045 137.447 210.846 136.659 211.781 136.054C212.715 135.45 213.763 135.042 214.86 134.856C225.732 133.346 224.794 147.948 228 151.154C227.337 152.079 226.905 153.148 226.739 154.273C226.573 155.399 226.678 156.548 227.046 157.624C225.621 158.675 224.249 159.796 222.936 160.984C222.756 161.134 222.612 161.322 222.512 161.534C222.413 161.746 222.362 161.978 222.362 162.212C222.362 162.446 222.413 162.678 222.512 162.89C222.612 163.102 222.756 163.29 222.936 163.44C225.091 164.205 227.416 164.361 229.654 163.892C231.254 167.38 229.196 171.726 227.654 175.526C223.442 171.312 224.17 166.842 221.888 167.452C221.569 167.546 221.301 167.762 221.141 168.053C220.981 168.344 220.942 168.687 221.034 169.006C221.958 171.51 224.61 176.936 226.852 177.934C224.163 186.159 223.863 194.978 225.988 203.366L225.994 203.358ZM228.594 159.198C229.498 159.868 229.9 159.998 229.9 161.384C228.597 161.648 227.264 161.733 225.938 161.636C226.318 161.262 228.6 159.2 228.6 159.2L228.594 159.198ZM228.696 203.96C225.382 192.008 227.338 183.394 231.152 173.52C238.86 172.54 241.384 189.606 242.588 197.04C245.238 213.426 239.828 216.412 239.828 217.55C233.282 214.898 230.484 210.418 228.696 203.968V203.96ZM230.096 217.6C230.751 216.761 231.702 216.205 232.754 216.046C233.206 216.446 233.656 216.798 234.108 217.15C232.839 217.664 231.452 217.82 230.1 217.6H230.096ZM234.408 223.668C233.094 223.502 235.696 219.122 236.264 218.552C238.365 219.771 240.652 220.635 243.034 221.11C240.459 222.761 237.47 223.651 234.412 223.676L234.408 223.668ZM242.282 218.402C246.444 212.284 246.22 204.508 245.19 197.49C243.818 188.134 241.478 171.75 232.052 171.012C232.972 168.394 232.936 165.535 231.952 162.94C232.77 162.12 232.126 160.58 232.552 161.434C233.898 163.318 238.062 163.918 241.83 160.382C245.064 157.346 243.338 152.722 239.374 152.808C237.631 152.988 235.988 153.709 234.676 154.869C233.363 156.029 232.445 157.571 232.052 159.278C231.852 158.754 231.521 158.29 231.091 157.93C230.661 157.57 230.145 157.326 229.594 157.222C229.594 156.68 227.44 154.622 232.994 149.048C237.524 144.518 244.106 146.388 247.336 151.556C251.386 158.034 247.548 161.556 254.808 170.712C254.008 171.364 253.254 172.016 252.502 172.712C252.348 172.868 252.237 173.062 252.18 173.274C252.124 173.486 252.123 173.71 252.179 173.922C252.234 174.135 252.344 174.329 252.498 174.486C252.651 174.643 252.843 174.757 253.054 174.818C254.454 175.218 255.912 175.618 257.316 176.072C258.03 183.924 250.364 200.99 257.568 217.344C252.696 219.224 247.372 219.595 242.286 218.41L242.282 218.402ZM234.55 159.73C234.747 158.587 235.297 157.535 236.121 156.72C236.946 155.905 238.005 155.368 239.15 155.184C241.302 154.698 241.55 156.658 240.634 157.984C238.948 160.488 234.652 160.956 234.554 159.738L234.55 159.73ZM259.788 216.4C255.232 206.336 257.034 195.814 258.534 186.212C259.755 186.118 260.98 186.319 262.107 186.799C263.233 187.28 264.227 188.024 265.004 188.97C268.19 192.424 268.768 198.956 269.666 205.668C270.707 212.756 271.109 219.922 270.866 227.082C265.674 225.832 262 221.276 259.788 216.4ZM259.686 227.434C259.686 226.596 262.132 225.906 262.696 225.728C263.542 225.464 262.474 225.248 264.652 226.832C265.53 226.836 259.686 228.056 259.686 227.438V227.434ZM265.204 233.702C264.838 233.666 263.648 233.16 263.648 232.95C264.471 231.162 265.73 229.61 267.31 228.436C268.498 229.041 269.763 229.48 271.07 229.74C269.356 231.566 267.156 233.894 265.2 233.706L265.204 233.702ZM270.77 195.89C268.65 186.462 263.474 183.49 259.086 183.704C259.086 183.704 260.086 183.522 259.698 170.924C259.462 169.148 259.84 167.344 260.768 165.811C261.696 164.278 263.119 163.107 264.802 162.492C266.882 161.757 269.163 161.84 271.184 162.724C273.205 163.609 274.814 165.229 275.684 167.256C276.972 170.272 276.588 173.724 277.484 176.884C277.744 177.404 277.484 176.948 275.328 179.19C273.8 180.79 273.492 182.032 276.328 183.654C276.786 183.953 277.273 184.205 277.782 184.406C269.064 194.882 271.976 201.254 270.77 195.894V195.89ZM273.328 227.49C273.483 225.605 273.533 223.713 273.478 221.822C274.27 223.676 275.227 225.455 276.336 227.138C275.361 227.428 274.343 227.546 273.328 227.488V227.49ZM282.856 234.41C283.456 234.862 284.056 235.312 284.712 235.714C281.43 237.354 279.338 236.168 282.856 234.4V234.41ZM276.136 190.882C283.952 190.882 286.806 195.682 288.02 202.064C289.964 212.478 289.045 223.223 285.362 233.156C273.762 225.42 268.95 204.6 276.136 190.88V190.882ZM286.216 240.026C286.133 239.503 286.191 238.968 286.385 238.476C286.579 237.983 286.901 237.552 287.318 237.226C289.121 237.866 290.964 238.385 292.836 238.78C290.728 239.609 288.481 240.031 286.216 240.024V240.026ZM316.054 230.548C318.69 235.548 320.818 235.524 320.818 236.216C320.26 236.568 319.653 236.837 319.018 237.016C311.576 239.242 293.628 237.18 287.524 234.308C291.566 223.71 292.556 212.192 290.382 201.06C289.09 194.41 284.038 187.502 277.996 187.82C279.562 186.184 280.925 184.365 282.058 182.404C282.058 187.56 291.51 188.188 294.846 184.06C295.257 183.591 295.567 183.043 295.758 182.449C295.948 181.855 296.015 181.229 295.954 180.608C295.892 179.988 295.704 179.386 295.401 178.842C295.098 178.297 294.687 177.82 294.192 177.44C290.884 174.984 284.462 176.758 282.76 179.696C282.962 178.204 282.859 176.686 282.458 175.234C284.742 168.38 292.428 169.064 295.396 174.48C298.364 179.896 296.27 186.82 298.808 193.988C301.328 201.116 307.032 207.588 312.498 221.67C313.511 224.695 314.699 227.658 316.054 230.546V230.548ZM289.378 178.822C292.198 178.506 294.44 180.002 293.236 182.154C291.746 184.82 286.164 184.754 285.012 183.308C283.818 182 285 179.314 289.378 178.822ZM313.246 216.956C310.881 211.703 308.236 206.581 305.322 201.612C299.024 190.784 300.44 189.448 299.656 180.75C299.088 174.446 296.272 168.75 290.026 167.962C291.28 164.562 293.65 160.574 289.928 156.278C289.928 145.118 306.764 145.186 308.882 161.994C309.596 167.66 309.216 171.316 312.744 179.044C312.744 180.158 317.252 186.268 320.718 197.498C322.672 203.834 324.332 209.646 329.092 214.248C324.228 216.956 318.512 216.956 313.246 216.956ZM328.646 208.28C334.212 198.692 332.348 178.186 327.494 170.52C326.754 169.117 325.682 167.917 324.37 167.025C323.059 166.133 321.549 165.577 319.972 165.404C320.926 163.268 321.469 160.971 321.572 158.634C323.498 156.324 322.054 153.59 321.622 151.714C321.002 149.02 324.72 145.634 329.896 146.85C335.384 148.138 338.096 153.92 337.97 159.688C337.896 163.088 336.97 166.54 337.87 170.82C338.91 175.71 341.856 180.44 343.236 184.46C345.462 190.948 346.496 204.06 353.516 207.58C349.694 209.575 345.468 210.675 341.159 210.797C336.849 210.918 332.568 210.057 328.64 208.28H328.646Z" fill="black"/>
<path d="M337.968 182.104C337.878 183.258 337.668 186.216 337.668 186.516C335.927 183.473 334.739 180.146 334.158 176.688C333.802 175.134 331.402 175.784 331.758 177.34C332.614 181.16 334.062 187.098 337.374 189.926C337.586 190.116 337.845 190.245 338.125 190.298C338.404 190.352 338.693 190.329 338.96 190.231C339.227 190.133 339.463 189.965 339.641 189.743C339.82 189.522 339.935 189.256 339.974 188.974C340.076 188.604 340.348 183.636 340.476 182.054C340.469 181.721 340.331 181.405 340.091 181.175C339.851 180.944 339.53 180.818 339.197 180.825C338.864 180.832 338.548 180.97 338.318 181.21C338.087 181.45 337.961 181.771 337.968 182.104Z" fill="black"/>
<path d="M328.6 154.372C328.28 154.39 327.978 154.53 327.758 154.763C327.538 154.996 327.415 155.305 327.415 155.626C327.415 155.947 327.538 156.256 327.758 156.489C327.978 156.722 328.28 156.862 328.6 156.88C328.92 156.862 329.222 156.722 329.442 156.489C329.662 156.256 329.785 155.947 329.785 155.626C329.785 155.305 329.662 154.996 329.442 154.763C329.222 154.53 328.92 154.39 328.6 154.372Z" fill="black"/>
<path d="M336.062 153.368C334.924 150.506 331.518 150.07 328.646 150.892C324.338 152.124 323.34 155.518 323.926 157.28C325.748 162.746 338.612 159.776 336.062 153.368ZM332.904 156.528C331.879 157.28 330.635 157.675 329.364 157.652C325.116 157.722 325.682 154.812 328.326 153.742C331.956 152.274 333.856 153.59 333.856 154.472C334.1 155.2 333.456 156.068 332.904 156.528Z" fill="black"/>
<path d="M158.69 123.48C152.384 110.88 132.758 108.254 125.842 129.348C122.842 138.502 117.004 146.848 113.556 156.228C108.868 168.978 106.642 186.322 97.6001 196.8C96.4381 198.148 98.3821 199.652 99.7061 199.058C112.058 193.514 137.26 200.006 136.706 195.658C134.412 177.816 136.106 156.838 150.062 146.658C153.922 143.844 153.344 143.592 153.158 141.186C153.02 139.41 153.076 137.51 154.776 136.528C158.082 134.62 155.236 133.15 157.776 128.606C158.93 126.556 160.432 126.966 158.69 123.48Z" fill="black"/>
<path d="M161.4 129.148C161.286 128.969 161.128 128.823 160.941 128.723C160.754 128.623 160.544 128.574 160.332 128.579C160.12 128.584 159.913 128.643 159.731 128.752C159.548 128.86 159.397 129.014 159.292 129.198C158.092 131.798 156.214 134.362 158.19 134.914C159.59 135.314 163.74 135.942 164.508 134.714C165 133.38 161.6 129.248 161.4 129.148Z" fill="#FBDD50"/>
<path d="M145 195.292C143.188 192.572 141.944 194.372 140.336 195.442C139.68 195.936 137.136 197.106 139.034 198.252C143.786 201.124 147.734 198.938 145 195.292Z" fill="#FBDD50"/>
<path d="M145.55 190.428C145.337 190.653 145.214 190.948 145.203 191.257C145.192 191.567 145.294 191.87 145.49 192.109C145.686 192.349 145.963 192.509 146.268 192.56C146.574 192.61 146.887 192.548 147.15 192.384C148.596 192.624 150.988 189.61 150.66 188.622C149.354 186.656 148.646 187.886 145.55 190.428Z" fill="#FBDD50"/>
<path d="M153.022 129.8C152.186 121.536 143.894 120.974 143.594 125.186C142.9 134.948 153.638 135.886 153.022 129.8Z" fill="white"/>
<path d="M153.374 145.8C151.754 140.636 133.436 162.224 136.824 193.542C136.832 193.762 136.895 193.977 137.008 194.165C137.122 194.354 137.281 194.511 137.472 194.621C137.662 194.731 137.878 194.791 138.098 194.795C138.318 194.799 138.536 194.747 138.73 194.644C152.182 186.132 159.912 166.64 153.374 145.8Z" fill="white"/>
<path d="M161.346 125.738C159.284 111 137.174 105.722 126.294 123.18C122.484 129.29 124.022 130.872 115.462 148.704C107.14 166.04 105.602 184.34 95.152 198.704C95.0579 198.872 95.0027 199.058 94.9906 199.25C94.9785 199.442 95.0096 199.635 95.0819 199.813C95.1541 199.991 95.2655 200.151 95.4078 200.28C95.5501 200.409 95.7197 200.505 95.904 200.56C100.49 201.452 104.204 199.486 111.4 199.106C119.578 198.674 126.316 199.906 134.768 198.254C135.256 199.47 142.786 202.27 146.002 201.254C148.202 200.564 149.304 198.194 146.754 194.484C151.722 194.004 153.41 188.634 150.314 186.11C155.174 178.818 158.344 167.398 156.432 152.46C155.614 146.06 153.536 140.956 156.182 137.366C159.378 137.392 162.569 137.105 165.71 136.512C169.01 135.694 161.346 126.968 161.346 125.738ZM160.146 128.846C161.298 130.646 162.402 132.446 163.404 134.312C161.508 134.563 159.6 134.714 157.688 134.764C158.393 132.746 159.213 130.77 160.144 128.846H160.146ZM145.6 198.6C145.5 198.75 145 198.858 144.698 198.902C142.464 198.869 140.261 198.373 138.228 197.446C139.992 196.496 141.656 195.37 143.194 194.086C143.978 194.916 146.348 197.73 145.6 198.6ZM145.55 191.93C146.747 190.727 147.853 189.437 148.86 188.07C150.132 189.264 148.906 192.238 145.55 191.932V191.93ZM154.426 163.848C153.826 176.39 148.612 188.2 137.978 194.688C136.658 180.376 138.022 164.928 145.7 152.916C147.348 150.02 149.854 147.707 152.872 146.296C154.077 152.066 154.598 157.958 154.426 163.85V163.848ZM152.57 143.688C145.802 146.088 141.97 153.512 139.482 159.786C135.056 170.912 134.4 183.77 135.62 195.6C135.457 195.55 135.283 195.55 135.12 195.6C125.19 197.906 114.852 195.454 104.88 197.354C102.792 197.87 100.66 198.19 98.512 198.308C107.442 184.858 109.654 168.69 115.662 154.478C117.42 150.318 119.574 146.304 121.43 142.142C125.282 133.5 125.856 125.784 132.512 119.776C142.826 110.464 156.768 115.186 158.94 126.044C158.94 126.186 155.078 133.738 155.078 135.12C154.472 134.872 151.988 137.958 152.57 143.69V143.688Z" fill="black"/>
<path d="M149.312 128.646C148.992 128.664 148.69 128.804 148.47 129.037C148.25 129.27 148.127 129.579 148.127 129.9C148.127 130.221 148.25 130.53 148.47 130.763C148.69 130.996 148.992 131.136 149.312 131.154C149.632 131.136 149.934 130.996 150.154 130.763C150.374 130.53 150.497 130.221 150.497 129.9C150.497 129.579 150.374 129.27 150.154 129.037C149.934 128.804 149.632 128.664 149.312 128.646Z" fill="black"/>
<path d="M138.38 153.57C136.165 160.653 131.415 166.67 125.04 170.47L124.288 160.59C124.288 160.257 124.156 159.938 123.921 159.703C123.686 159.468 123.367 159.336 123.034 159.336C122.701 159.336 122.382 159.468 122.147 159.703C121.912 159.938 121.78 160.257 121.78 160.59C122.072 164.552 122.324 168.568 122.682 172.526C122.693 172.745 122.759 172.957 122.873 173.143C122.987 173.33 123.146 173.485 123.336 173.595C123.525 173.704 123.739 173.765 123.958 173.771C124.176 173.776 124.393 173.727 124.588 173.628C128.467 171.691 131.906 168.978 134.693 165.657C137.48 162.336 139.554 158.478 140.788 154.322C140.837 154.164 140.855 153.998 140.84 153.833C140.825 153.668 140.778 153.507 140.701 153.36C140.624 153.214 140.519 153.084 140.392 152.978C140.265 152.871 140.118 152.791 139.96 152.742C139.802 152.693 139.636 152.675 139.471 152.69C139.306 152.705 139.145 152.752 138.999 152.829C138.852 152.906 138.722 153.011 138.616 153.138C138.509 153.265 138.429 153.412 138.38 153.57Z" fill="black"/>
<path d="M148.56 121.324C145.338 120.046 140.582 121.468 141.47 127.574C142.308 133.338 148.448 137.374 152.32 135.266C157.572 132.414 154.828 123.81 148.56 121.324ZM151.16 132.958C149.01 134.236 144.788 131.574 143.96 127.46C143.236 123.848 145.25 122.538 147.89 123.7C151.37 125.226 154.6 130.916 151.166 132.958H151.16Z" fill="black"/>
</svg>

