<svg viewBox="0 0 100 100" xmlns="http://www.w3.org/2000/svg" id="Pride-Agender-Symbol--Streamline-Ux" height="100" width="100"><desc>Pride Agender Symbol Streamline Illustration: https://streamlinehq.com</desc><path d="M10 50a40 40 0 1 0 80 0 40 40 0 1 0 -80 0Z" fill="#daedf7" stroke="#daedf7" stroke-width="1"></path><path d="M34.475 76.926a15.525 1.725 0 1 0 31.05 0 15.525 1.725 0 1 0 -31.05 0Z" fill="#45413c" stroke-width="1"></path><path d="M50 29.5A20.448 20.448 0 0 0 35.039 36h29.923A20.445 20.445 0 0 0 50 29.5Z" fill="#ff6242" stroke-width="1"></path><path d="M30.732 43h10.151a11.487 11.487 0 0 1 18.235 0h10.151a20.539 20.539 0 0 0 -4.307 -7H35.039a20.539 20.539 0 0 0 -4.307 7Z" fill="#ff8a14" stroke-width="1"></path><path d="M40.883 43H30.732a20.393 20.393 0 0 0 -1.232 7h9a11.443 11.443 0 0 1 2.383 -7Z" fill="#ffe500" stroke-width="1"></path><path d="M61.5 50h9a20.394 20.394 0 0 0 -1.232 -7h-10.15a11.444 11.444 0 0 1 2.382 7Z" fill="#ffe500" stroke-width="1"></path><path d="M59.118 57h10.151a20.386 20.386 0 0 0 1.231 -7h-9a11.442 11.442 0 0 1 -2.382 7Z" fill="#6dd627" stroke-width="1"></path><path d="M38.5 50h-9a20.385 20.385 0 0 0 1.231 7h10.152a11.441 11.441 0 0 1 -2.383 -7Z" fill="#6dd627" stroke-width="1"></path><path d="M50 61.5a11.488 11.488 0 0 1 -9.117 -4.5H30.732a20.529 20.529 0 0 0 4.307 7h29.923a20.529 20.529 0 0 0 4.307 -7H59.118A11.486 11.486 0 0 1 50 61.5Z" fill="#00b8f0" stroke-width="1"></path><path d="M50 70.5A20.445 20.445 0 0 0 64.962 64H35.039A20.448 20.448 0 0 0 50 70.5Z" fill="#9f5ae5" stroke-width="1"></path><path d="M50 29.5A20.442 20.442 0 0 0 35.026 36h5.581A23.062 23.062 0 0 1 59.4 36h5.58A20.443 20.443 0 0 0 50 29.5Z" fill="#ff6242" stroke-width="1"></path><path d="M40.607 36h-5.581a20.5 20.5 0 0 0 -4.3 7h1.025a23.085 23.085 0 0 1 8.856 -7Z" fill="#ffaa54" stroke-width="1"></path><path d="M68.249 43h1.025a20.5 20.5 0 0 0 -4.3 -7H59.4a23.089 23.089 0 0 1 8.849 7Z" fill="#ffaa54" stroke-width="1"></path><path d="M70.055 45.731A20.356 20.356 0 0 0 69.274 43h-1.025a23.039 23.039 0 0 1 1.806 2.731Z" fill="#fff48c" stroke-width="1"></path><path d="M29.946 45.731A23.039 23.039 0 0 1 31.752 43h-1.025a20.356 20.356 0 0 0 -0.781 2.731Z" fill="#fff48c" stroke-width="1"></path><path d="M50 70.5A20.5 20.5 0 1 1 70.5 50 20.523 20.523 0 0 1 50 70.5Zm0 -32A11.5 11.5 0 1 0 61.5 50 11.514 11.514 0 0 0 50 38.5Z" fill="none" stroke="#45413c" stroke-linecap="round" stroke-linejoin="round" stroke-width="1"></path></svg>