<svg viewBox="0 0 100 100" xmlns="http://www.w3.org/2000/svg" id="Pride-Heart--Streamline-Ux" height="100" width="100"><desc>Pride Heart Streamline Illustration: https://streamlinehq.com</desc><path d="M10 50a40 40 0 1 0 80 0 40 40 0 1 0 -80 0Z" fill="#daedf7" stroke="#daedf7" stroke-width="1"></path><path d="M68.4 27.331c-7.953 -5.947 -14.135 0.895 -17.324 4.669h21.445a14.952 14.952 0 0 0 -4.121 -4.669Z" fill="#ff6242" stroke-width="1"></path><path d="M31.6 27.331A14.961 14.961 0 0 0 27.477 32H48.96c-2.828 -3.448 -9.312 -10.686 -17.36 -4.669Z" fill="#ff6242" stroke-width="1"></path><path d="M50 33.265c-0.254 -0.289 -0.6 -0.732 -1.041 -1.265H27.477a12.584 12.584 0 0 0 -1.677 6.134q0 0.564 0.019 1.116h48.35c0.013 -0.368 0.02 -0.74 0.019 -1.116A12.592 12.592 0 0 0 72.522 32H51.075c-0.408 0.483 -0.767 0.916 -1.075 1.265Z" fill="#ff8a14" stroke-width="1"></path><path d="M27.237 46.25H72.76a20.074 20.074 0 0 0 1.413 -7h-48.35a20.075 20.075 0 0 0 1.414 7Z" fill="#ffe500" stroke-width="1"></path><path d="M31.954 53.5h36.091a25.165 25.165 0 0 0 4.715 -7.25H27.237a25.176 25.176 0 0 0 4.717 7.25Z" fill="#6dd627" stroke-width="1"></path><path d="M39.818 60.75h20.365a63.5 63.5 0 0 0 7.862 -7.25H31.954a63.536 63.536 0 0 0 7.864 7.25Z" fill="#00b8f0" stroke-width="1"></path><path d="M49.035 67.505a1.709 1.709 0 0 0 1.93 0c3.579 -2.453 6.626 -4.686 9.218 -6.755H39.818c2.591 2.069 5.639 4.302 9.217 6.755Z" fill="#9f5ae5" stroke-width="1"></path><path d="M50 33.265c-0.255 -0.289 -0.605 -0.732 -1.042 -1.265H27.477a12.573 12.573 0 0 0 -1.677 6.134q0 0.564 0.022 1.116h1.716a14.873 14.873 0 0 1 4.062 -4.579c6.579 -4.919 12.114 -0.978 15.459 2.508a4.074 4.074 0 0 0 5.893 0.052c3.462 -3.619 8.845 -7.5 15.447 -2.56a14.892 14.892 0 0 1 4.057 4.579h1.714q0.022 -0.552 0.021 -1.116A12.582 12.582 0 0 0 72.521 32H51.076c-0.408 0.483 -0.767 0.916 -1.076 1.265Z" fill="#ffaa54" stroke-width="1"></path><path d="M73.807 42.581a23.458 23.458 0 0 0 0.364 -3.331h-1.714a13.424 13.424 0 0 1 1.35 3.331Z" fill="#fff48c" stroke-width="1"></path><path d="M26.188 42.583a13.433 13.433 0 0 1 1.354 -3.333h-1.716a23.648 23.648 0 0 0 0.362 3.333Z" fill="#fff48c" stroke-width="1"></path><path d="M49.035 67.505a1.709 1.709 0 0 0 1.93 0C70.464 54.143 74.2 47.283 74.192 38.134h0A13.887 13.887 0 0 0 68.4 27.33h0c-8.97 -6.707 -15.688 2.856 -18.4 5.935 -1.9 -2.159 -9.108 -12.88 -18.4 -5.935h0a13.886 13.886 0 0 0 -5.8 10.8h0c-0.006 9.153 3.738 16.013 23.235 29.375Z" fill="none" stroke="#45413c" stroke-linecap="round" stroke-linejoin="round" stroke-width="1"></path><path d="M34.473 76.925a15.525 1.725 0 1 0 31.05 0 15.525 1.725 0 1 0 -31.05 0Z" fill="#45413c" stroke-width="1"></path></svg>