<svg viewBox="0 0 100 100" xmlns="http://www.w3.org/2000/svg" id="House-8--Streamline-Ux" height="100" width="100"><desc>House 8 Streamline Illustration: https://streamlinehq.com</desc><path d="M50 90a39.948 39.948 0 0 0 34.608 -20H15.392A39.948 39.948 0 0 0 50 90Z" fill="#ccf7ad" stroke-width="1"></path><path d="M13.564 66.5c0.546 1.2 1.17 2.363 1.828 3.5h69.216c0.658 -1.137 1.282 -2.3 1.828 -3.5Z" fill="#ccf7ad" stroke-width="1"></path><path d="M90 50a40 40 0 1 0 -76.436 16.5h72.872A39.844 39.844 0 0 0 90 50Z" fill="#b8ecff" stroke-width="1"></path><path d="m11 66.5 78 0" fill="none" stroke="#45413c" stroke-linecap="round" stroke-linejoin="round" stroke-width="1"></path><path d="m6.5 66.5 2.5 0" fill="none" stroke="#45413c" stroke-linecap="round" stroke-linejoin="round" stroke-width="1"></path><path d="m91 66.5 2.5 0" fill="none" stroke="#45413c" stroke-linecap="round" stroke-linejoin="round" stroke-width="1"></path><path d="m85.029 54 -6.615 -19.782a1.276 1.276 0 0 0 -1.211 -0.873H32.459a1.276 1.276 0 0 0 -1.211 0.873L24.633 54a1.276 1.276 0 0 0 1.211 1.68h57.974A1.276 1.276 0 0 0 85.029 54Z" fill="#8ca4b8" stroke-width="1"></path><path d="m80.256 39.726 -1.842 -5.508a1.276 1.276 0 0 0 -1.211 -0.873H32.459a1.276 1.276 0 0 0 -1.211 0.873l-1.842 5.508Z" fill="#adc4d9" stroke-width="1"></path><path d="m85.029 54 -6.615 -19.782a1.276 1.276 0 0 0 -1.211 -0.873H32.459a1.276 1.276 0 0 0 -1.211 0.873L24.633 54a1.276 1.276 0 0 0 1.211 1.68h57.974A1.276 1.276 0 0 0 85.029 54Z" fill="none" stroke="#45413c" stroke-linecap="round" stroke-linejoin="round" stroke-width="1"></path><path d="M25.477 55.68h58.709v19.782H25.477z" fill="#ffffff" stroke-width="1"></path><path d="M25.477 55.68h58.709v3.853H25.477z" fill="#daedf7" stroke-width="1"></path><path d="M25.477 55.68h58.709v19.782H25.477z" fill="none" stroke="#45413c" stroke-linecap="round" stroke-linejoin="round" stroke-width="1"></path><path d="M54.831 64.614h5.743v10.848h-5.743z" fill="#bf8256" stroke="#45413c" stroke-linecap="round" stroke-linejoin="round" stroke-width="1"></path><path d="M49.088 64.614h5.743v10.848h-5.743z" fill="#bf8256" stroke="#45413c" stroke-linecap="round" stroke-linejoin="round" stroke-width="1"></path><path d="M60.574 64.614H49.088v-4.807a1 1 0 0 1 1 -1h9.486a1 1 0 0 1 1 1Z" fill="#e09f7e" stroke="#45413c" stroke-linecap="round" stroke-linejoin="round" stroke-width="1"></path><path d="m50.364 30.792 8.934 0 0 5.105 -8.934 0Z" fill="#daedf7" stroke="#45413c" stroke-linecap="round" stroke-linejoin="round" stroke-width="1"></path><path d="M58.022 23.773a1.277 1.277 0 0 0 -1.277 -1.273h-3.828a1.277 1.277 0 0 0 -1.277 1.277v7.019h6.382Z" fill="#ff6242" stroke="#45413c" stroke-linecap="round" stroke-linejoin="round" stroke-width="1"></path><path d="m50.364 25.687 8.934 0" fill="none" stroke="#45413c" stroke-linecap="round" stroke-linejoin="round" stroke-width="1"></path><path d="m25.477 55.68 -10.849 7.207v12.575h10.849Z" fill="#daedf7" stroke-width="1"></path><path d="m14.628 66.716 10.849 -7.207V55.68l-10.849 7.208Z" fill="#adc4d9" stroke-width="1"></path><path d="m25.477 55.68 -10.849 7.207v12.575h10.849Z" fill="none" stroke="#45413c" stroke-linecap="round" stroke-linejoin="round" stroke-width="1"></path><path d="m25.477 55.68 -13.894 9.231" fill="#daedf7" stroke="#45413c" stroke-linecap="round" stroke-linejoin="round" stroke-width="1"></path><path d="M21.286 66.528h-2.467a1 1 0 0 0 -1 1v7.934h4.467v-7.934a1 1 0 0 0 -1 -1Z" fill="#bf8256" stroke="#45413c" stroke-linecap="round" stroke-linejoin="round" stroke-width="1"></path><path d="M33.772 62.061h5.105v8.296h-5.105z" fill="#00b8f0" stroke-width="1"></path><path d="m33.772 68.031 5.105 -5.105 0 -0.865 -5.105 0 0 5.97z" fill="#4acfff" stroke-width="1"></path><path d="M33.772 62.061h5.105v8.296h-5.105z" fill="none" stroke="#45413c" stroke-linecap="round" stroke-linejoin="round" stroke-width="1"></path><path d="M40.154 61.36c0 0.458 -0.371 0.7 -0.829 0.7h-6c-0.458 0 -0.829 -0.243 -0.829 -0.7V59.7a0.829 0.829 0 0 1 0.829 -0.829h6a0.829 0.829 0 0 1 0.829 0.829Z" fill="#daedf7" stroke="#45413c" stroke-linecap="round" stroke-linejoin="round" stroke-width="1"></path><path d="m32.496 70.357 7.658 0" fill="none" stroke="#45413c" stroke-linecap="round" stroke-linejoin="round" stroke-width="1"></path><path d="M70.785 62.061h5.105v8.296h-5.105z" fill="#00b8f0" stroke-width="1"></path><path d="m70.785 68.031 5.105 -5.105 0 -0.865 -5.105 0 0 5.97z" fill="#4acfff" stroke-width="1"></path><path d="M70.785 62.061h5.105v8.296h-5.105z" fill="none" stroke="#45413c" stroke-linecap="round" stroke-linejoin="round" stroke-width="1"></path><path d="M77.166 61.36c0 0.458 -0.371 0.7 -0.829 0.7h-6c-0.458 0 -0.829 -0.243 -0.829 -0.7V59.7a0.829 0.829 0 0 1 0.829 -0.829h6a0.829 0.829 0 0 1 0.829 0.829Z" fill="#daedf7" stroke="#45413c" stroke-linecap="round" stroke-linejoin="round" stroke-width="1"></path><path d="m69.508 70.357 7.658 0" fill="none" stroke="#45413c" stroke-linecap="round" stroke-linejoin="round" stroke-width="1"></path><path d="M44.621 45.044a1.274 1.274 0 0 0 -0.459 -0.98l-4.212 -3.4a1.277 1.277 0 0 0 -1.634 0l-4.084 3.4a1.275 1.275 0 0 0 -0.46 0.98v6.166a1.277 1.277 0 0 0 1.277 1.277h8.3a1.277 1.277 0 0 0 1.277 -1.277Z" fill="#daedf7" stroke="#45413c" stroke-linecap="round" stroke-linejoin="round" stroke-width="1"></path><path d="M41.43 52.489h-4.467V46.47a1 1 0 0 1 1 -1h2.467a1 1 0 0 1 1 1Z" fill="#00b8f0" stroke-width="1"></path><path d="M40.154 45.47h-1.915a1.276 1.276 0 0 0 -1.276 1.276v3.961s4.417 -4.286 4.424 -4.291a1.276 1.276 0 0 0 -1.233 -0.946Z" fill="#4acfff" stroke-width="1"></path><path d="M41.43 52.489h-4.467V46.47a1 1 0 0 1 1 -1h2.467a1 1 0 0 1 1 1Z" fill="none" stroke="#45413c" stroke-linecap="round" stroke-linejoin="round" stroke-width="1"></path><path d="M75.89 45.044a1.275 1.275 0 0 0 -0.46 -0.98l-4.211 -3.4a1.277 1.277 0 0 0 -1.634 0l-4.085 3.4a1.274 1.274 0 0 0 -0.459 0.98v6.166a1.277 1.277 0 0 0 1.277 1.277h8.3a1.277 1.277 0 0 0 1.272 -1.277Z" fill="#daedf7" stroke="#45413c" stroke-linecap="round" stroke-linejoin="round" stroke-width="1"></path><path d="M72.7 52.489h-4.468V46.47a1 1 0 0 1 1 -1H71.7a1 1 0 0 1 1 1Z" fill="#00b8f0" stroke-width="1"></path><path d="M71.423 45.47h-1.915a1.276 1.276 0 0 0 -1.276 1.276v3.961s4.417 -4.286 4.424 -4.291a1.277 1.277 0 0 0 -1.233 -0.946Z" fill="#4acfff" stroke-width="1"></path><path d="M72.7 52.489h-4.468V46.47a1 1 0 0 1 1 -1H71.7a1 1 0 0 1 1 1Z" fill="none" stroke="#45413c" stroke-linecap="round" stroke-linejoin="round" stroke-width="1"></path></svg>