<svg width="84" height="82" viewBox="0 0 84 82" fill="none" xmlns="http://www.w3.org/2000/svg">
<path d="M2 40.75C2 51.3587 6.21427 61.5328 13.7157 69.0343C21.2172 76.5357 31.3913 80.75 42 80.75C52.6087 80.75 62.7828 76.5357 70.2843 69.0343C77.7857 61.5328 82 51.3587 82 40.75C82 30.1413 77.7857 19.9672 70.2843 12.4657C62.7828 4.96427 52.6087 0.75 42 0.75C31.3913 0.75 21.2172 4.96427 13.7157 12.4657C6.21427 19.9672 2 30.1413 2 40.75Z" fill="#FFA951"/>
<path d="M0.5 58.25H3" stroke="#45413C" stroke-linecap="round" stroke-linejoin="round"/>
<path d="M28.1846 54.492C28.1846 56.3661 28.5538 58.2218 29.2709 59.9533C29.9881 61.6847 31.0393 63.2579 32.3645 64.5831C33.6897 65.9083 35.2629 66.9595 36.9944 67.6767C38.7258 68.3939 40.5815 68.763 42.4556 68.763C44.3297 68.763 46.1855 68.3939 47.9169 67.6767C49.6483 66.9595 51.2216 65.9083 52.5468 64.5831C53.8719 63.2579 54.9231 61.6847 55.6403 59.9533C56.3575 58.2218 56.7266 56.3661 56.7266 54.492C56.7266 52.6179 56.3575 50.7622 55.6403 49.0307C54.9231 47.2993 53.8719 45.7261 52.5468 44.4009C51.2216 43.0757 49.6483 42.0245 47.9169 41.3073C46.1855 40.5901 44.3297 40.221 42.4556 40.221C40.5815 40.221 38.7258 40.5901 36.9944 41.3073C35.2629 42.0245 33.6897 43.0757 32.3645 44.4009C31.0393 45.7261 29.9881 47.2993 29.2709 49.0307C28.5538 50.7622 28.1846 52.6179 28.1846 54.492Z" fill="#FF8102"/>
<path d="M56.4936 57.076C56.87 55.0185 56.7896 52.9034 56.258 50.8805C55.7264 48.8576 54.7566 46.9762 53.4172 45.3696C52.0779 43.763 50.4018 42.4705 48.5076 41.5835C46.6133 40.6965 44.5473 40.2367 42.4556 40.2367C40.364 40.2367 38.2979 40.6965 36.4037 41.5835C34.5095 42.4705 32.8334 43.763 31.494 45.3696C30.1547 46.9762 29.1849 48.8576 28.6533 50.8805C28.1217 52.9034 28.0412 55.0185 28.4176 57.076C29.0048 53.7799 30.7331 50.7955 33.2997 48.6456C35.8664 46.4958 39.1076 45.3177 42.4556 45.3177C45.8037 45.3177 49.0449 46.4958 51.6115 48.6456C54.1782 50.7955 55.9065 53.7799 56.4936 57.076Z" fill="#E77400"/>
<path d="M28.1846 54.492C28.1846 56.3661 28.5538 58.2218 29.2709 59.9533C29.9881 61.6847 31.0393 63.2579 32.3645 64.5831C33.6897 65.9083 35.2629 66.9595 36.9944 67.6767C38.7258 68.3939 40.5815 68.763 42.4556 68.763C44.3297 68.763 46.1855 68.3939 47.9169 67.6767C49.6483 66.9595 51.2216 65.9083 52.5468 64.5831C53.8719 63.2579 54.9231 61.6847 55.6403 59.9533C56.3575 58.2218 56.7266 56.3661 56.7266 54.492C56.7266 52.6179 56.3575 50.7622 55.6403 49.0307C54.9231 47.2993 53.8719 45.7261 52.5468 44.4009C51.2216 43.0757 49.6483 42.0245 47.9169 41.3073C46.1855 40.5901 44.3297 40.221 42.4556 40.221C40.5815 40.221 38.7258 40.5901 36.9944 41.3073C35.2629 42.0245 33.6897 43.0757 32.3645 44.4009C31.0393 45.7261 29.9881 47.2993 29.2709 49.0307C28.5538 50.7622 28.1846 52.6179 28.1846 54.492Z" stroke="#45413C" stroke-linecap="round" stroke-linejoin="round"/>
<path d="M42.4556 34.212C42.2821 34.2121 42.1102 34.1781 41.9498 34.1117C41.7894 34.0454 41.6437 33.9481 41.5209 33.8254C41.3981 33.7028 41.3007 33.5571 41.2343 33.3968C41.1678 33.2364 41.1336 33.0646 41.1336 32.891V29.322C41.1336 28.9714 41.2729 28.6351 41.5208 28.3872C41.7688 28.1393 42.105 28 42.4556 28C42.8063 28 43.1425 28.1393 43.3904 28.3872C43.6384 28.6351 43.7776 28.9714 43.7776 29.322V32.891C43.7776 33.0646 43.7434 33.2364 43.677 33.3968C43.6105 33.5571 43.5131 33.7028 43.3904 33.8254C43.2676 33.9481 43.1219 34.0454 42.9615 34.1117C42.8011 34.1781 42.6292 34.2121 42.4556 34.212ZM27.1816 40.539C27.008 40.5393 26.836 40.5053 26.6755 40.4389C26.515 40.3725 26.3693 40.275 26.2466 40.152L23.7236 37.628C23.4759 37.3802 23.3368 37.0441 23.3369 36.6936C23.337 36.3432 23.4763 36.0072 23.7241 35.7595C23.972 35.5118 24.3081 35.3727 24.6585 35.3728C25.0089 35.3729 25.3449 35.5122 25.5926 35.76L28.1156 38.283C28.3002 38.4679 28.4259 38.7033 28.4767 38.9595C28.5276 39.2158 28.5014 39.4813 28.4015 39.7227C28.3016 39.9641 28.1324 40.1704 27.9153 40.3157C27.6982 40.461 27.4429 40.5387 27.1816 40.539ZM20.8546 55.813H17.2856C16.9415 55.8035 16.6145 55.6601 16.3744 55.4134C16.1343 55.1666 16 54.8358 16 54.4915C16 54.1472 16.1343 53.8164 16.3744 53.5696C16.6145 53.3229 16.9415 53.1795 17.2856 53.17H20.8546C21.1988 53.1795 21.5257 53.3229 21.7659 53.5696C22.006 53.8164 22.1403 54.1472 22.1403 54.4915C22.1403 54.8358 22.006 55.1666 21.7659 55.4134C21.5257 55.6601 21.1988 55.8035 20.8546 55.813ZM57.7296 40.539C57.4684 40.5387 57.2131 40.461 56.996 40.3157C56.7789 40.1704 56.6097 39.9641 56.5098 39.7227C56.4098 39.4813 56.3837 39.2158 56.4345 38.9595C56.4854 38.7033 56.6111 38.4679 56.7956 38.283L59.3186 35.76C59.4413 35.6373 59.5869 35.5399 59.7472 35.4735C59.9075 35.407 60.0793 35.3728 60.2528 35.3728C60.4263 35.3727 60.5981 35.4069 60.7584 35.4732C60.9187 35.5396 61.0644 35.6368 61.1871 35.7595C61.3099 35.8822 61.4072 36.0278 61.4737 36.1881C61.5401 36.3483 61.5743 36.5201 61.5744 36.6936C61.5744 36.8672 61.5403 37.039 61.4739 37.1993C61.4076 37.3596 61.3103 37.5053 61.1876 37.628L58.6646 40.152C58.5419 40.2749 58.3962 40.3723 58.2357 40.4387C58.0753 40.5051 57.9033 40.5392 57.7296 40.539ZM68.9466 54.492C68.9466 54.8424 68.8075 55.1784 68.5597 55.4261C68.312 55.6738 67.976 55.813 67.6256 55.813H64.0566C63.88 55.8179 63.7043 55.7873 63.5397 55.723C63.3751 55.6588 63.2251 55.5623 63.0984 55.4391C62.9718 55.3159 62.8712 55.1685 62.8024 55.0058C62.7337 54.843 62.6983 54.6682 62.6983 54.4915C62.6983 54.3148 62.7337 54.14 62.8024 53.9772C62.8712 53.8145 62.9718 53.6671 63.0984 53.5439C63.2251 53.4207 63.3751 53.3242 63.5397 53.26C63.7043 53.1957 63.88 53.1651 64.0566 53.17H67.6256C67.9761 53.1703 68.3121 53.3097 68.5598 53.5576C68.8075 53.8055 68.9466 54.1416 68.9466 54.492Z" fill="#FFF5EB" stroke="#45413C" stroke-linecap="round" stroke-linejoin="round"/>
<path d="M81 58.25H83.5" stroke="#45413C" stroke-linecap="round" stroke-linejoin="round"/>
<path d="M54.9 6.415C51.709 4.515 49.241 8.352 49.241 8.352C49.241 8.352 46.772 4.516 43.582 6.415C40.392 8.314 37.454 12.384 37.454 12.384C43.219 10.497 44.266 6.644 47.476 10.392C47.6472 10.5919 47.8596 10.7524 48.0987 10.8625C48.3377 10.9726 48.5978 11.0298 48.861 11.03H49.621C49.8831 11.0288 50.142 10.9711 50.3799 10.8611C50.6178 10.751 50.8293 10.591 51 10.392C54.21 6.644 55.256 10.497 61.021 12.384C61.022 12.384 58.085 8.314 54.9 6.415ZM75.275 17.926C71.475 15.662 68.528 20.235 68.528 20.235C68.528 20.235 65.584 15.662 61.781 17.926C57.978 20.19 54.475 25.043 54.475 25.043C61.348 22.793 62.596 18.2 66.423 22.668C66.6274 22.9061 66.8808 23.0973 67.166 23.2285C67.4511 23.3596 67.7611 23.4277 68.075 23.428H68.981C69.2947 23.428 69.6047 23.36 69.8897 23.2288C70.1747 23.0976 70.4279 22.9063 70.632 22.668C74.46 18.2 75.707 22.793 82.58 25.043C82.58 25.043 79.078 20.19 75.275 17.926Z" fill="#AEAEAE" stroke="#45413C" stroke-linecap="round" stroke-linejoin="round"/>
<path d="M72.677 58.271C70.384 58.271 69.487 55.118 69.487 55.118C68.9071 56.0799 68.0884 56.8756 67.1104 57.428C66.1324 57.9804 65.0282 58.2706 63.905 58.2706C62.7818 58.2706 61.6776 57.9804 60.6996 57.428C59.7216 56.8756 58.9029 56.0799 58.323 55.118C57.7429 56.0799 56.9242 56.8756 55.9461 57.428C54.968 57.9803 53.8638 58.2705 52.7405 58.2705C51.6172 58.2705 50.513 57.9803 49.5349 57.428C48.5568 56.8756 47.7381 56.0799 47.158 55.118C46.5779 56.0799 45.7592 56.8756 44.7811 57.428C43.803 57.9803 42.6988 58.2705 41.5755 58.2705C40.4522 58.2705 39.348 57.9803 38.3699 57.428C37.3918 56.8756 36.5731 56.0799 35.993 55.118C35.4131 56.0799 34.5944 56.8756 33.6164 57.428C32.6384 57.9804 31.5342 58.2706 30.411 58.2706C29.2878 58.2706 28.1836 57.9804 27.2056 57.428C26.2276 56.8756 25.4089 56.0799 24.829 55.118C24.2489 56.0799 23.4302 56.8756 22.4521 57.428C21.474 57.9803 20.3698 58.2705 19.2465 58.2705C18.1232 58.2705 17.019 57.9803 16.0409 57.428C15.0628 56.8756 14.2441 56.0799 13.664 55.118C13.664 55.118 12.764 58.271 10.474 58.271H5.474C8.77818 65.1534 13.9598 70.9621 20.4216 75.0278C26.8834 79.0935 34.3625 81.2506 41.997 81.2506C49.6315 81.2506 57.1106 79.0935 63.5724 75.0278C70.0342 70.9621 75.2158 65.1534 78.52 58.271H72.677Z" fill="#0285B5"/>
<path d="M37.765 65.656C37.0833 65.669 36.4106 65.499 35.8168 65.1638C35.2231 64.8286 34.7301 64.3404 34.389 63.75C34.0383 64.3316 33.5434 64.8127 32.952 65.1466C32.3607 65.4806 31.6931 65.6561 31.014 65.6561C30.3349 65.6561 29.6673 65.4806 29.076 65.1466C28.4846 64.8127 27.9897 64.3316 27.639 63.75C27.2883 64.3316 26.7934 64.8127 26.202 65.1466C25.6107 65.4806 24.9431 65.6561 24.264 65.6561C23.5849 65.6561 22.9173 65.4806 22.326 65.1466C21.7346 64.8127 21.2397 64.3316 20.889 63.75C20.5481 64.3405 20.0551 64.8289 19.4613 65.1641C18.8675 65.4993 18.1947 65.6692 17.513 65.656M64.767 68.515C64.0853 68.5281 63.4125 68.3582 62.8188 68.0229C62.225 67.6877 61.732 67.1995 61.391 66.609C61.0403 67.1906 60.5453 67.6717 59.954 68.0056C59.3627 68.3396 58.6951 68.5151 58.016 68.5151C57.3369 68.5151 56.6693 68.3396 56.078 68.0056C55.4866 67.6717 54.9917 67.1906 54.641 66.609C54.3004 67.1996 53.8076 67.688 53.214 68.0232C52.6203 68.3585 51.9476 68.5283 51.266 68.515M44.876 74.656C44.1942 74.6693 43.5214 74.4995 42.9276 74.1642C42.3338 73.829 41.8408 73.3406 41.5 72.75C41.1493 73.3316 40.6544 73.8127 40.063 74.1466C39.4717 74.4806 38.8041 74.6561 38.125 74.6561C37.4459 74.6561 36.7783 74.4806 36.187 74.1466C35.5956 73.8127 35.1007 73.3316 34.75 72.75C34.4093 73.3405 33.9164 73.8287 33.3228 74.164C32.7292 74.4992 32.0566 74.6691 31.375 74.656" stroke="#E5F8FF" stroke-linecap="round" stroke-linejoin="round"/>
<path d="M78.523 58.271H72.677C70.384 58.271 69.487 55.118 69.487 55.118C68.9071 56.0799 68.0884 56.8756 67.1104 57.428C66.1324 57.9804 65.0282 58.2706 63.905 58.2706C62.7818 58.2706 61.6776 57.9804 60.6996 57.428C59.7216 56.8756 58.9029 56.0799 58.323 55.118C57.7429 56.0799 56.9242 56.8756 55.9461 57.428C54.968 57.9803 53.8638 58.2705 52.7405 58.2705C51.6172 58.2705 50.513 57.9803 49.5349 57.428C48.5568 56.8756 47.7381 56.0799 47.158 55.118C46.5779 56.0799 45.7592 56.8756 44.7811 57.428C43.803 57.9803 42.6988 58.2705 41.5755 58.2705C40.4522 58.2705 39.348 57.9803 38.3699 57.428C37.3918 56.8756 36.5731 56.0799 35.993 55.118C35.4131 56.0799 34.5944 56.8756 33.6164 57.428C32.6384 57.9804 31.5342 58.2706 30.411 58.2706C29.2878 58.2706 28.1836 57.9804 27.2056 57.428C26.2276 56.8756 25.4089 56.0799 24.829 55.118C24.2489 56.0799 23.4302 56.8756 22.4521 57.428C21.474 57.9803 20.3698 58.2705 19.2465 58.2705C18.1232 58.2705 17.019 57.9803 16.0409 57.428C15.0628 56.8756 14.2441 56.0799 13.664 55.118C13.664 55.118 12.764 58.271 10.474 58.271H5.474" stroke="#45413C" stroke-linecap="round" stroke-linejoin="round"/>
</svg>
