<?xml version="1.0" encoding="UTF-8" standalone="no"?>
<svg width="539px" height="107px" viewBox="0 0 539 107" version="1.1" xmlns="http://www.w3.org/2000/svg" xmlns:xlink="http://www.w3.org/1999/xlink">
    <!-- Generator: Sketch 50.2 (55047) - http://www.bohemiancoding.com/sketch -->
    <title>icon-and-word</title>
    <desc>Created with Sketch.</desc>
    <defs></defs>
    <g id="Page-1" stroke="none" stroke-width="1" fill="none" fill-rule="evenodd">
        <g id="icon-and-word" fill="#000000" fill-rule="nonzero">
            <g id="Group" transform="translate(149.000000, 19.000000)">
                <path d="M118.124661,48.7201784 C123.243249,56.6452021 132.985232,57.9660394 147.350609,52.6826903 C152.389565,73.4858775 102,75.4671334 102,43.7670386 C103.965,15.2769077 129.210365,15.2769077 139.288278,20.9825955 C150.835544,26.9046518 152.389565,41.7857827 142.311652,46.7389225 C139.247625,48.4068426 131.185295,49.0672612 118.124661,48.7201784 Z M118.124661,37.8232708 C134.249322,38.8138988 133.241531,35.8420149 133.241531,34.851387 C133.241531,29.8982471 121.148035,24.9451073 118.124661,37.8232708 Z" id="Combined-Shape"></path>
                <path d="M186.613869,31.2024755 C179.622131,30.2257616 175.567803,31.2360187 174.450882,34.2332468 C173.333962,37.2304749 172.996101,48.0065509 173.4373,66.5614746 C165.944026,67.7882048 161.213976,66.4411953 159.247149,62.5204461 C157.280322,58.599697 156.6046,49.1706305 157.219984,34.2332468 C157.895706,26.1511899 161.274313,21.0999043 167.355807,19.07939 C171.451033,17.7187927 181.19865,16.9632125 185.600287,21.0999043 C187.023541,22.4374897 187.361402,25.8050134 186.613869,31.2024755 Z" id="Path-2"></path>
                <path d="M240.633644,63.5348401 C243.240467,67.291025 253.964902,70.3236303 260.964072,65.543587 C262.372456,64.5817391 263.050137,61.2338278 262.997114,55.4998529 C258.611673,56.5619825 255.90095,55.5576091 254.864943,52.4867327 C254.072807,50.1387226 255.881465,27.3773975 251.815379,23.3599039 C249.608856,21.1797494 244.865089,20.5101671 237.58408,21.351157 C236.223477,44.5836894 237.239998,58.6449171 240.633644,63.5348401 Z" id="Path-3"></path>
                <path d="M237,8 C237,13.3333333 240,16 246,16 C251.333333,16 254,13.3333333 254,8 C254,2.66666667 251.333333,0 246,0 C240,0 237,2.66666667 237,8 Z" id="Path-4"></path>
                <path d="M229.792107,34.7579894 C221.833685,28.8276834 205.916843,28.8276834 205.916843,42.665064 C205.916843,56.5024446 222.828488,55.5140603 229.792107,50.5721387 C229.792107,50.5721387 233.771317,70.443737 206.911645,66.476141 C195.968816,62.5085451 190,54.5733532 190,42.7117479 C190,32.7515753 196.963619,21.8406864 206.911645,18.8649895 C232.776515,13.9054945 229.792107,31.7596763 229.792107,34.7579894 Z" id="Path-6"></path>
                <path d="M52.2535555,19.1930988 C71.1531898,17.2122647 73.1426249,31.0781036 76.1267777,33.0589377 C76.1267777,33.0589377 83.0898009,26.1260182 84.0845185,19.1930988 C100,18.5328208 100,26.7862963 84.0845185,43.9535254 C90.0528241,53.197418 95.3579846,58.1495033 100,58.8097813 C99.0052824,66.7331178 91.7530409,68.5905371 85.0792361,65.7427008 C78.1162129,62.7714496 73.1426249,52.8672789 73.1426249,52.8672789 C69.1637546,52.8672789 65.1848842,65.7427008 65.1848842,66.7331178 C47.9431126,67.3933959 47.61154,58.8097813 64.1901666,40.9822742 C56.2324258,31.7383816 52.2535555,24.4753231 52.2535555,19.1930988 Z" id="Path-7"></path>
                <path d="M16.1246609,48.7201784 C21.2432491,56.6452021 30.9852317,57.9660394 45.3506089,52.6826903 C50.3895655,73.4858775 1.8331689e-12,75.4671334 0,43.7670386 C1.96499953,15.2769077 27.2103653,15.2769077 37.2882784,20.9825955 C48.8355439,26.9046518 50.3895655,41.7857827 40.3116524,46.7389225 C37.247625,48.4068426 29.1852946,49.0672612 16.1246609,48.7201784 Z M16.1246609,37.8232708 C32.2493219,38.8138988 31.2415306,35.8420149 31.2415306,34.851387 C31.2415306,29.8982471 19.1480349,24.9451073 16.1246609,37.8232708 Z" id="Combined-Shape"></path>
                <path d="M305.978763,34.337111 C310.923364,12.232631 272.355481,14.2421292 268.399801,30.3181147 C264.444121,54.4320929 291.144962,45.3893511 291.144962,52.4225947 C291.144962,59.4558383 274.333322,55.436842 269.388721,52.4225947 C263.455201,72.5175765 300.045243,74.5270747 305.978763,57.4463402 C308.501701,49.3291568 306.161248,43.2248431 301.034163,40.3656056 C294.103217,36.5004034 286.200362,39.3608565 283.233602,34.337111 C281.255762,30.3181147 293.122803,27.3038674 305.978763,34.337111 Z" id="Path-5"></path>
                <path d="M332.123288,67.5887777 C332.123288,48.4030708 328.13179,31.236912 338.110534,31.236912 C346.280336,31.236912 345.095654,42.986659 345.095654,55.4714891 C345.095654,62.5399074 345.095654,69.6083257 360.063769,67.5887777 C361.061644,43 358.068021,32.2466861 366.051016,31.236912 C374.03401,31.236912 373.036136,37.2955563 373.036136,51.4323929 C373.036136,61.5301334 373.384958,69.6267385 390,67.5887777 C390,51.8112641 390,45.3737486 390,43 C390,14.0707532 362.059518,13.0609792 353.078649,26.1880418 C344.09778,12.0512051 315.159424,16.0903013 315.159424,39.3151044 C315.159424,56.4812632 312.165801,70.6180998 332.123288,67.5887777 Z" id="Path-10"></path>
            </g>
            <g id="Group-2">
                <path d="M69.755642,68.4788202 C69.755642,73.0103044 65.832675,75.8421053 62.3578705,75.8421053 C58.8830661,75.8421053 54.7143969,74.4342105 54.7143969,68.4788202 L54.7143969,65.5823778 L50.1368589,65.5823778 L50.1368589,68.4788202 C50.1368589,75.0740196 55.6213671,80.438231 62.3578705,80.438231 C69.0943739,80.438231 74.5788822,75.0740196 74.5788822,68.4788202 L74.5788822,65.5823778 L69.755642,65.5823778 L69.755642,68.4788202 Z" id="Shape"></path>
                <path d="M31.3105247,54.4921927 C31.3105247,50.1649077 35.0635989,46.6457301 39.674695,46.6457301 C44.2827046,46.6457301 48.0357788,50.1678041 48.0357788,54.4921927 L53.3042802,54.4921927 C53.3042802,47.4364589 47.193189,41.6986065 39.674695,41.6986065 C32.1562009,41.6986065 26.0420233,47.4364589 26.0420233,54.4921927 L31.3105247,54.4921927 Z" id="Shape"></path>
                <path d="M74.7256954,54.4921927 C74.7256954,50.1649077 78.4787696,46.6457301 83.0867792,46.6457301 C87.6978753,46.6457301 91.4509495,50.1678041 91.4509495,54.4921927 L96.7194508,54.4921927 C96.7194508,47.4364589 90.6052732,41.6986065 83.0867792,41.6986065 C75.5682852,41.6986065 69.457194,47.4364589 69.457194,54.4921927 L74.7256954,54.4921927 Z" id="Shape"></path>
                <path d="M105.220223,37.7085316 L105.220223,20.7029062 C105.220223,14.9720441 104.523542,10.995799 103.130159,8.77405174 C101.736776,6.55230447 98.8356705,4.83930073 94.4267566,3.63498912 C93.0957637,3.26123724 92.4302772,2.65909047 92.4302772,1.82853074 C92.4302772,0.707275109 93.9276218,0.146655702 96.9223557,0.146655702 L101.476824,0.146655702 C106.426454,0.146655702 110.180214,1.68316815 112.738216,4.75623915 C115.296217,7.82931014 116.575199,12.3142654 116.575199,18.2112395 L116.575199,36.1512399 C116.575199,40.3040385 117.022323,43.5016455 117.916584,45.7441568 C118.810845,47.9866681 120.464163,50.0837999 122.876587,52.0356153 C123.583677,52.6170071 123.937217,53.0945718 123.937217,53.4683237 C123.937217,53.8420755 123.583677,54.3196402 122.876587,54.901032 C120.422569,56.8943754 118.758853,59.0018891 117.885389,61.2236363 C117.011925,63.4453836 116.575199,66.6326088 116.575199,70.7854074 L116.575199,88.6631162 C116.575199,94.6016182 115.285819,99.1073372 112.707021,102.180408 C110.128222,105.253479 106.38486,106.789992 101.476824,106.789992 L96.9223557,106.789992 C94.96746,106.789992 93.7300711,106.696555 93.210152,106.509679 C92.6902329,106.322803 92.4302772,105.85562 92.4302772,105.108117 C92.4302772,104.069917 93.1165601,103.384715 94.4891466,103.052492 L96.9847457,102.491867 C102.475091,101.246027 105.220223,95.826706 105.220223,86.2337411 L105.220223,69.2281157 C105.220223,62.7912778 106.779957,58.2440315 109.899471,55.5862404 L111.084881,54.5895737 C111.66719,54.0912378 111.958341,53.7174916 111.958341,53.4683237 C111.958341,53.1776278 111.66719,52.8038815 111.084881,52.3470736 L109.899471,51.3504069 C106.779957,48.6926158 105.220223,44.1453695 105.220223,37.7085316 Z" id="}"></path>
                <path d="M12.7899462,37.5618759 L12.7899462,20.5562505 C12.7899462,14.8253884 12.093265,10.8491433 10.6998819,8.62739604 C9.30649868,6.40564877 6.40539366,4.69264502 1.99647974,3.48833342 C0.665486858,3.11458154 4.00000001e-07,2.51243477 4.00000001e-07,1.68187504 C4.00000001e-07,0.560619407 1.49734493,0 4.49207891,0 L9.0465474,0 C13.9961772,0 17.7499367,1.53651245 20.3079387,4.60958344 C22.8659406,7.68265444 24.1449224,12.1676097 24.1449224,18.0645838 L24.1449224,36.0045842 C24.1449224,40.1573828 24.5920461,43.3549898 25.486307,45.5975011 C26.3805678,47.8400124 28.0338857,49.9371442 30.4463103,51.8889596 C31.1534003,52.4703514 31.50694,52.9479161 31.50694,53.321668 C31.50694,53.6954198 31.1534003,54.1729845 30.4463103,54.7543763 C27.9922922,56.7477197 26.328576,58.8552334 25.455112,61.0769806 C24.5816479,63.2987279 24.1449224,66.4859531 24.1449224,70.6387517 L24.1449224,88.5164605 C24.1449224,94.4549625 22.8555424,98.9606815 20.2767437,102.033752 C17.697945,105.106823 13.9545836,106.643336 9.0465474,106.643336 L4.49207891,106.643336 C2.53718312,106.643336 1.29979424,106.549899 0.779875142,106.363023 C0.259956048,106.176147 4.00000001e-07,105.708965 4.00000001e-07,104.961461 C4.00000001e-07,103.923261 0.68628331,103.23806 2.05886972,102.905836 L4.55446889,102.345211 C10.0448145,101.099371 12.7899462,95.6800503 12.7899462,86.0870854 L12.7899462,69.08146 C12.7899462,62.6446221 14.34968,58.0973758 17.4691946,55.4395847 L18.6546042,54.442918 C19.2369136,53.9445821 19.5280639,53.5708359 19.5280639,53.321668 C19.5280639,53.0309721 19.2369136,52.6572258 18.6546042,52.2004179 L17.4691946,51.2037512 C14.34968,48.5459601 12.7899462,43.9987138 12.7899462,37.5618759 Z" id="}" transform="translate(15.753470, 53.321668) scale(-1, 1) translate(-15.753470, -53.321668) "></path>
            </g>
        </g>
    </g>
</svg>