<svg xmlns="http://www.w3.org/2000/svg" width="390" height="69" fill="none"><path fill="#000" d="M118.125 48.72c5.118 7.925 14.86 9.246 29.226 3.963C152.39 73.486 102 75.467 102 43.767c1.965-28.49 27.21-28.49 37.288-22.784 11.548 5.922 13.102 20.803 3.024 25.756-3.064 1.668-11.127 2.328-24.187 1.981Zm0-10.897c16.124.99 15.117-1.981 15.117-2.972 0-4.953-12.094-9.906-15.117 2.972Zm68.489-6.621c-6.992-.976-11.046.034-12.163 3.031-1.117 2.997-1.455 13.774-1.014 32.328-7.493 1.227-12.223-.12-14.19-4.04-1.967-3.921-2.642-13.35-2.027-28.288.676-8.082 4.054-13.133 10.136-15.154 4.095-1.36 13.843-2.116 18.244 2.02 1.424 1.338 1.761 4.706 1.014 10.103Zm54.02 32.333c2.606 3.756 13.33 6.789 20.33 2.009 1.408-.962 2.086-4.31 2.033-10.044-4.385 1.062-7.096.058-8.132-3.013-.792-2.348 1.016-25.11-3.05-29.127-2.206-2.18-6.95-2.85-14.23-2.009-1.362 23.233-.345 37.294 3.049 42.184ZM237 8c0 5.333 3 8 9 8 5.333 0 8-2.667 8-8s-2.667-8-8-8c-6 0-9 2.667-9 8Zm-7.208 26.758c-7.958-5.93-23.875-5.93-23.875 7.907s16.911 12.85 23.875 7.907c0 0 3.98 19.872-22.88 15.904C195.969 62.51 190 54.573 190 42.712c0-9.96 6.964-20.871 16.912-23.847 25.865-4.96 22.88 12.895 22.88 15.893ZM52.254 19.193c18.9-1.98 20.889 11.885 23.873 13.866 0 0 6.963-6.933 7.958-13.866 15.915-.66 15.915 7.593 0 24.76C90.053 53.198 95.358 58.15 100 58.81c-.995 7.923-8.247 9.78-14.92 6.933-6.964-2.972-11.937-12.876-11.937-12.876-3.98 0-7.958 12.876-7.958 13.866-17.242.66-17.573-7.923-.995-25.75-7.958-9.245-11.936-16.508-11.936-21.79Z"/><path fill="#000" d="M16.125 48.72c5.118 7.925 14.86 9.246 29.226 3.963C50.39 73.486 0 75.467 0 43.767c1.965-28.49 27.21-28.49 37.288-22.784 11.548 5.922 13.102 20.803 3.024 25.756-3.064 1.668-11.127 2.328-24.187 1.98Zm0-10.897c16.124.99 15.117-1.981 15.117-2.972 0-4.953-12.094-9.906-15.117 2.972Zm289.854-3.486c4.944-22.104-33.624-20.095-37.58-4.02-3.955 24.115 22.746 15.072 22.746 22.106 0 7.033-16.812 3.014-21.756 0-5.934 20.095 30.656 22.104 36.59 5.023 2.523-8.117.182-14.221-4.945-17.08-6.93-3.866-14.834-1.005-17.8-6.03-1.978-4.018 9.889-7.032 22.745 0Zm26.144 33.252c0-19.186-3.991-36.352 5.988-36.352 8.17 0 6.985 11.75 6.985 24.234 0 7.069 0 14.137 14.968 12.118.998-24.59-1.996-35.342 5.987-36.352 7.983 0 6.985 6.059 6.985 20.195 0 10.098.349 18.195 16.964 16.157v-24.59c0-28.93-27.94-29.938-36.921-16.811-8.981-14.137-37.92-10.098-37.92 13.127 0 17.166-2.993 31.303 16.964 28.274Z"/></svg>
