<svg width="160" height="160" fill="none" xmlns="http://www.w3.org/2000/svg">
  <path d="M16 80c0 16.9739 6.7428 33.253 18.7452 45.255C46.7475 137.257 63.0261 144 80 144c16.9739 0 33.253-6.743 45.255-18.745C137.257 113.253 144 96.9739 144 80c0-16.9739-6.743-33.2525-18.745-45.2548C113.253 22.7428 96.9739 16 80 16c-16.9739 0-33.2525 6.7428-45.2548 18.7452C22.7428 46.7475 16 63.0261 16 80v0z" fill="#C7F0FF" stroke="#C7F0FF" stroke-width="1.6" stroke-miterlimit="10"/>
  <path d="M41.2 74.2521c-1.1 0-2.1917-.1917-3.275-.575-1.0667-.4-2.0417-.9917-2.925-1.775l2.125-2.525c.6167.5 1.2917.9083 2.025 1.225.7333.3166 1.5.475 2.3.475.8 0 1.3833-.1334 1.75-.4.3667-.2667.55-.6084.55-1.025 0-.2834-.0583-.5167-.175-.7-.1167-.2-.2833-.375-.5-.525-.2167-.15-.4833-.2917-.8-.425a101.3806 101.3806 0 01-1.05-.45l-2.1-.9c-.45-.1667-.8917-.3834-1.325-.65-.4167-.2667-.7833-.575-1.1-.925-.3167-.3667-.575-.7834-.775-1.25-.1833-.4834-.275-1.025-.275-1.625 0-.6667.1417-1.2917.425-1.875.3-.6.7083-1.1167 1.225-1.55.5333-.45 1.1667-.8 1.9-1.05.7333-.25 1.5417-.375 2.425-.375 1 0 1.9667.1833 2.9.55.9333.3666 1.775.9 2.525 1.6l-1.875 2.325c-.5667-.4167-1.1333-.7334-1.7-.95-.5667-.2334-1.25-.35-2.05-.35-.6167 0-1.1167.125-1.5.375-.3667.25-.55.6166-.55 1.1 0 .4833.2417.8583.725 1.125.5.25 1.15.5166 1.95.8l1.975.85c1.0833.4 1.9333.9499 2.55 1.6499.6333.7001.95 1.6251.95 2.7751 0 .6833-.1417 1.3333-.425 1.95-.2833.6-.6917 1.1333-1.225 1.6-.5333.45-1.1917.8166-1.975 1.1-.7833.2666-1.6833.4-2.7.4z" fill="url(#paint0_linear)"/>
  <path d="M56.2402 71.2521c.85 0 1.525-.4417 2.025-1.325.5-.9.75-2.3.75-4.2 0-1.7-.25-2.9917-.75-3.875-.5-.8834-1.175-1.325-2.025-1.325-.85 0-1.525.4416-2.025 1.325-.5.8833-.75 2.175-.75 3.875 0 1.9.25 3.3.75 4.2.5.8833 1.175 1.325 2.025 1.325zm4.675 7.15c-.8 0-1.5333-.1084-2.2-.325-.6666-.2167-1.2666-.5167-1.8-.9-.5333-.3834-1-.8417-1.4-1.375-.4-.5334-.725-1.1167-.975-1.75-1.4666-.3834-2.6416-1.2667-3.525-2.65-.8666-1.4-1.3-3.2917-1.3-5.675 0-1.3667.1584-2.5667.475-3.6.3167-1.05.7584-1.925 1.325-2.625.5834-.7167 1.275-1.25 2.075-1.6.8-.3667 1.6834-.55 2.65-.55.9667 0 1.85.1833 2.65.55.8.35 1.4834.8833 2.05 1.6.5834.7 1.0334 1.575 1.35 2.625.3167 1.0333.475 2.2333.475 3.6 0 2.25-.4 4.0666-1.2 5.45-.7833 1.3666-1.85 2.275-3.2 2.725.3.5833.725.9833 1.275 1.2.5667.2333 1.1417.35 1.725.35.25 0 .4834-.0334.7-.1.2334-.0667.4334-.1417.6-.225l.65 2.75c-.2833.15-.625.275-1.025.375-.3833.1-.8416.15-1.375.15z" fill="url(#paint1_linear)"/>
  <path d="M66.4055 73.9521v-16.3h3.675v13.2h7.25v3.1h-10.925z" fill="url(#paint2_linear)"/>
  <path d="M70.7998 126.952v-9.128h3.234c.4947 0 .9567.051 1.386.154.4387.093.8167.257 1.134.49.3267.224.5833.527.77.91.1867.373.28.835.28 1.386 0 .532-.098.994-.294 1.386-.1867.392-.4433.714-.77.966s-.7047.439-1.134.56c-.4293.121-.8867.182-1.372.182h-1.176v3.094h-2.058zm2.058-4.732h1.05c1.12 0 1.68-.485 1.68-1.456 0-.476-.1447-.812-.434-1.008-.28-.196-.6953-.294-1.246-.294h-1.05v2.758z" fill="url(#paint3_linear)"/>
  <path d="M79.0403 126.952v-9.128h2.058v3.514h2.492v-3.514h2.058v9.128h-2.058v-3.808h-2.492v3.808h-2.058z" fill="url(#paint4_linear)"/>
  <path d="M87.5889 126.952v-9.128h3.234c.4946 0 .9566.051 1.386.154.4386.093.8166.257 1.134.49.3266.224.5833.527.77.91.1866.373.28.835.28 1.386 0 .532-.098.994-.294 1.386-.1867.392-.4434.714-.77.966-.3267.252-.7047.439-1.134.56-.4294.121-.8867.182-1.372.182h-1.176v3.094h-2.058zm2.058-4.732h1.05c1.12 0 1.68-.485 1.68-1.456 0-.476-.1447-.812-.434-1.008-.28-.196-.6954-.294-1.246-.294h-1.05v2.758z" fill="url(#paint5_linear)"/>
  <path d="M81.8181 44.952v-9.504h-3.51v-2.232h9.684v2.232h-3.51v9.504h-2.664z" fill="url(#paint6_linear)"/>
  <path d="M94.9511 45.168c-.732 0-1.428-.126-2.088-.378-.648-.264-1.224-.648-1.728-1.152-.492-.504-.888-1.128-1.188-1.872-.288-.756-.432-1.626-.432-2.61 0-.972.144-1.836.432-2.592.288-.768.684-1.416 1.188-1.944.504-.528 1.098-.93 1.782-1.206.684-.276 1.416-.414 2.196-.414.744 0 1.416.156 2.016.468.6.3 1.098.642 1.494 1.026l-1.458 1.638a3.607 3.607 0 00-.918-.612c-.324-.156-.702-.234-1.134-.234-.42 0-.804.09-1.152.27-.348.168-.654.414-.918.738-.252.324-.45.72-.594 1.188-.144.468-.216.996-.216 1.584 0 1.212.276 2.154.828 2.826.552.66 1.272.99 2.16.99.42 0 .804-.096 1.152-.288.36-.192.684-.444.972-.756l1.458 1.602c-.972 1.152-2.256 1.728-3.852 1.728z" fill="url(#paint7_linear)"/>
  <path d="M100.686 44.952V33.216h4.158c.636 0 1.23.066 1.782.198.564.12 1.05.33 1.458.63.42.288.75.678.99 1.17.24.48.36 1.074.36 1.782 0 .684-.126 1.278-.378 1.782-.24.504-.57.918-.99 1.242-.42.324-.906.564-1.458.72-.552.156-1.14.234-1.764.234h-1.512v3.978h-2.646zm2.646-6.084h1.35c1.44 0 2.16-.624 2.16-1.872 0-.612-.186-1.044-.558-1.296-.36-.252-.894-.378-1.602-.378h-1.35v3.546z" fill="url(#paint8_linear)"/>
  <path d="M99.1582 88.168c-.732 0-1.428-.126-2.088-.378-.648-.264-1.224-.648-1.728-1.152-.492-.504-.888-1.128-1.188-1.872-.288-.756-.432-1.626-.432-2.61 0-.972.144-1.836.432-2.592.288-.768.684-1.416 1.188-1.944.504-.528 1.098-.93 1.782-1.206.684-.276 1.416-.414 2.196-.414.7438 0 1.4158.156 2.0158.468.6.3 1.098.642 1.494 1.026l-1.458 1.638a3.607 3.607 0 00-.918-.612c-.324-.156-.7018-.234-1.1338-.234-.42 0-.804.09-1.152.27-.348.168-.654.414-.918.738-.252.324-.45.72-.594 1.188-.144.468-.216.996-.216 1.584 0 1.212.276 2.154.828 2.826.552.66 1.272.99 2.16.99.42 0 .8038-.096 1.1518-.288.36-.192.684-.444.972-.756l1.458 1.602c-.972 1.152-2.256 1.728-3.8518 1.728z" fill="url(#paint9_linear)"/>
  <path d="M108.907 88.168c-.792 0-1.578-.138-2.358-.414-.768-.288-1.47-.714-2.106-1.278l1.53-1.818c.444.36.93.654 1.458.882.528.228 1.08.342 1.656.342.576 0 .996-.096 1.26-.288.264-.192.396-.438.396-.738 0-.204-.042-.372-.126-.504-.084-.144-.204-.27-.36-.378-.156-.108-.348-.21-.576-.306-.228-.096-.48-.204-.756-.324l-1.512-.648c-.324-.12-.642-.276-.954-.468-.3-.192-.564-.414-.792-.666-.228-.264-.414-.564-.558-.9-.132-.348-.198-.738-.198-1.17 0-.48.102-.93.306-1.35.216-.432.51-.804.882-1.116.384-.324.84-.576 1.368-.756.528-.18 1.11-.27 1.746-.27.72 0 1.416.132 2.088.396.672.264 1.278.648 1.818 1.152l-1.35 1.674c-.408-.3-.816-.528-1.224-.684-.408-.168-.9-.252-1.476-.252-.444 0-.804.09-1.08.27-.264.18-.396.444-.396.792 0 .348.174.618.522.81.36.18.828.372 1.404.576l1.422.612c.78.288 1.392.684 1.836 1.188.456.504.684 1.17.684 1.998 0 .492-.102.96-.306 1.404-.204.432-.498.816-.882 1.152-.384.324-.858.588-1.422.792-.564.192-1.212.288-1.944.288z" fill="url(#paint10_linear)"/>
  <path d="M119.7 88.168c-.792 0-1.578-.138-2.358-.414-.768-.288-1.47-.714-2.106-1.278l1.53-1.818c.444.36.93.654 1.458.882.528.228 1.08.342 1.656.342.576 0 .996-.096 1.26-.288.264-.192.396-.438.396-.738 0-.204-.042-.372-.126-.504-.084-.144-.204-.27-.36-.378-.156-.108-.348-.21-.576-.306-.228-.096-.48-.204-.756-.324l-1.512-.648c-.324-.12-.642-.276-.954-.468-.3-.192-.564-.414-.792-.666-.228-.264-.414-.564-.558-.9-.132-.348-.198-.738-.198-1.17 0-.48.102-.93.306-1.35.216-.432.51-.804.882-1.116.384-.324.84-.576 1.368-.756.528-.18 1.11-.27 1.746-.27.72 0 1.416.132 2.088.396.672.264 1.278.648 1.818 1.152l-1.35 1.674c-.408-.3-.816-.528-1.224-.684-.408-.168-.9-.252-1.476-.252-.444 0-.804.09-1.08.27-.264.18-.396.444-.396.792 0 .348.174.618.522.81.36.18.828.372 1.404.576l1.422.612c.78.288 1.392.684 1.836 1.188.456.504.684 1.17.684 1.998 0 .492-.102.96-.306 1.404-.204.432-.498.816-.882 1.152-.384.324-.858.588-1.422.792-.564.192-1.212.288-1.944.288z" fill="url(#paint11_linear)"/>
  <path d="M41.1421 101.012l-.27 1.08h2.466l-.27-1.08c-.156-.588-.318-1.2059-.486-1.8539-.168-.66-.318-1.302-.45-1.926h-.072c-.144.624-.294 1.266-.45 1.926-.156.648-.312 1.2659-.468 1.8539zm-4.23 5.94l3.654-11.7359h3.168l3.654 11.7359h-2.808l-.702-2.79h-3.546l-.72 2.79h-2.7z" fill="url(#paint12_linear)"/>
  <path d="M48.8931 106.952V95.2161h4.158c.636 0 1.23.066 1.782.198.564.12 1.05.33 1.458.63.42.288.75.678.99 1.17.24.48.36 1.074.36 1.782 0 .684-.126 1.2779-.378 1.7819-.24.504-.57.918-.99 1.242-.42.324-.906.564-1.458.72-.552.156-1.14.234-1.764.234h-1.512v3.978h-2.646zm2.646-6.084h1.35c1.44 0 2.16-.624 2.16-1.8719 0-.612-.186-1.044-.558-1.296-.36-.252-.894-.378-1.602-.378h-1.35v3.5459z" fill="url(#paint13_linear)"/>
  <path d="M59.668 106.952v-2.232h2.736v-7.2719h-2.736v-2.232h8.136v2.232h-2.736v7.2719h2.736v2.232h-8.136z" fill="url(#paint14_linear)"/>
  <defs>
    <linearGradient id="paint0_linear" x1="56.1652" y1="57.3521" x2="56.1652" y2="78.4021" gradientUnits="userSpaceOnUse">
      <stop stop-color="#20F"/>
      <stop offset="1" stop-color="#9E00FF"/>
    </linearGradient>
    <linearGradient id="paint1_linear" x1="56.1652" y1="57.3521" x2="56.1652" y2="78.4021" gradientUnits="userSpaceOnUse">
      <stop stop-color="#20F"/>
      <stop offset="1" stop-color="#9E00FF"/>
    </linearGradient>
    <linearGradient id="paint2_linear" x1="56.1652" y1="57.3521" x2="56.1652" y2="78.4021" gradientUnits="userSpaceOnUse">
      <stop stop-color="#20F"/>
      <stop offset="1" stop-color="#9E00FF"/>
    </linearGradient>
    <linearGradient id="paint3_linear" x1="82.5963" y1="117.824" x2="82.5963" y2="126.952" gradientUnits="userSpaceOnUse">
      <stop stop-color="#20F"/>
      <stop offset="1" stop-color="#9E00FF"/>
    </linearGradient>
    <linearGradient id="paint4_linear" x1="82.5963" y1="117.824" x2="82.5963" y2="126.952" gradientUnits="userSpaceOnUse">
      <stop stop-color="#20F"/>
      <stop offset="1" stop-color="#9E00FF"/>
    </linearGradient>
    <linearGradient id="paint5_linear" x1="82.5963" y1="117.824" x2="82.5963" y2="126.952" gradientUnits="userSpaceOnUse">
      <stop stop-color="#20F"/>
      <stop offset="1" stop-color="#9E00FF"/>
    </linearGradient>
    <linearGradient id="paint6_linear" x1="93.8711" y1="33" x2="93.8711" y2="45.168" gradientUnits="userSpaceOnUse">
      <stop stop-color="#20F"/>
      <stop offset="1" stop-color="#9E00FF"/>
    </linearGradient>
    <linearGradient id="paint7_linear" x1="93.8711" y1="33" x2="93.8711" y2="45.168" gradientUnits="userSpaceOnUse">
      <stop stop-color="#20F"/>
      <stop offset="1" stop-color="#9E00FF"/>
    </linearGradient>
    <linearGradient id="paint8_linear" x1="93.8711" y1="33" x2="93.8711" y2="45.168" gradientUnits="userSpaceOnUse">
      <stop stop-color="#20F"/>
      <stop offset="1" stop-color="#9E00FF"/>
    </linearGradient>
    <linearGradient id="paint9_linear" x1="108.988" y1="76" x2="108.988" y2="88.168" gradientUnits="userSpaceOnUse">
      <stop stop-color="#20F"/>
      <stop offset="1" stop-color="#9E00FF"/>
    </linearGradient>
    <linearGradient id="paint10_linear" x1="108.988" y1="76" x2="108.988" y2="88.168" gradientUnits="userSpaceOnUse">
      <stop stop-color="#20F"/>
      <stop offset="1" stop-color="#9E00FF"/>
    </linearGradient>
    <linearGradient id="paint11_linear" x1="108.988" y1="76" x2="108.988" y2="88.168" gradientUnits="userSpaceOnUse">
      <stop stop-color="#20F"/>
      <stop offset="1" stop-color="#9E00FF"/>
    </linearGradient>
    <linearGradient id="paint12_linear" x1="52.3581" y1="95.2161" x2="52.3581" y2="106.952" gradientUnits="userSpaceOnUse">
      <stop stop-color="#20F"/>
      <stop offset="1" stop-color="#9E00FF"/>
    </linearGradient>
    <linearGradient id="paint13_linear" x1="52.3581" y1="95.2161" x2="52.3581" y2="106.952" gradientUnits="userSpaceOnUse">
      <stop stop-color="#20F"/>
      <stop offset="1" stop-color="#9E00FF"/>
    </linearGradient>
    <linearGradient id="paint14_linear" x1="52.3581" y1="95.2161" x2="52.3581" y2="106.952" gradientUnits="userSpaceOnUse">
      <stop stop-color="#20F"/>
      <stop offset="1" stop-color="#9E00FF"/>
    </linearGradient>
  </defs>
</svg>
