<svg xmlns="http://www.w3.org/2000/svg" version="1.1" xmlns:xlink="http://www.w3.org/1999/xlink" xmlns:svgjs="http://svgjs.com/svgjs" viewBox="0 0 160 160" width="160" height="160"><g transform="matrix(1.6,0,0,1.6,0,0)"><path d="M50,96.546a39.948,39.948,0,0,0,34.608-20H15.392A39.948,39.948,0,0,0,50,96.546Z" fill="#b7eb91"></path><path d="M13.564,73.046c.546,1.2,1.17,2.363,1.828,3.5H84.608c.658-1.137,1.282-2.3,1.828-3.5Z" fill="#c8ffa1"></path><path d="M90,56.546a40,40,0,1,0-76.436,16.5H86.436A39.844,39.844,0,0,0,90,56.546Z" fill="#c7f0ff"></path><path d="M11 73.046L89 73.046" fill="none" stroke="#45413c" stroke-linecap="round" stroke-linejoin="round"></path><path d="M6.5 73.046L9 73.046" fill="none" stroke="#45413c" stroke-linecap="round" stroke-linejoin="round"></path><path d="M91 73.046L93.5 73.046" fill="none" stroke="#45413c" stroke-linecap="round" stroke-linejoin="round"></path><path d="M43.773 57.834H84.576V83.45400000000001H43.773z" fill="#87898c"></path><path d="M43.773 65.425H84.576V83.454H43.773z" fill="#bdbec0"></path><path d="M43.773 57.834H84.576V83.45400000000001H43.773z" fill="none" stroke="#45413c" stroke-linecap="round" stroke-linejoin="round"></path><path d="M70.306 17.031H82.642V22.723999999999997H70.306z" fill="#87898c"></path><path d="M70.306 19.149H82.642V22.724H70.306z" fill="#bdbec0"></path><path d="M70.306 17.031H82.642V22.723999999999997H70.306z" fill="none" stroke="#45413c" stroke-linecap="round" stroke-linejoin="round"></path><path d="M79.929,12.286H73.02a1.46,1.46,0,0,0-1.376.972l-1.338,3.773H82.642l-1.337-3.773A1.461,1.461,0,0,0,79.929,12.286Z" fill="#656769" stroke="#45413c" stroke-linecap="round" stroke-linejoin="round"></path><path d="M42.314 57.834 L86.037 57.834 L86.037 61.630 L42.314 61.630 Z" fill="#f0f0f0" stroke="#45413c" stroke-linecap="round" stroke-linejoin="round"></path><path d="M48.518 65.425H61.803V70.17H48.518z" fill="#00b8f0"></path><path d="M58.632 65.425L48.518 65.425 48.518 70.169 55.785 70.169 58.632 65.425z" fill="#4acfff"></path><path d="M48.518 65.425H61.803V70.17H48.518z" fill="none" stroke="#45413c" stroke-linecap="round" stroke-linejoin="round"></path><path d="M23.591,35.06H39.343a1.46,1.46,0,0,0,1.46-1.433,9.779,9.779,0,0,0-9.778-9.954h0a7.434,7.434,0,0,0-7.434,7.434Z" fill="#6dd627" stroke="#45413c" stroke-linecap="round" stroke-linejoin="round"></path><path d="M31.025,23.673a7.4,7.4,0,0,0-.792.08v4.591a2.92,2.92,0,0,0,2.92,2.92h7.394A9.775,9.775,0,0,0,31.025,23.673Z" fill="#00b8f0"></path><path d="M30.233,23.753v4.591a2.92,2.92,0,0,0,2.92,2.92h1.29l3.058-5.1a9.657,9.657,0,0,0-6.476-2.494A7.4,7.4,0,0,0,30.233,23.753Z" fill="#4acfff"></path><path d="M31.025,23.673a7.4,7.4,0,0,0-.792.08v4.591a2.92,2.92,0,0,0,2.92,2.92h7.394A9.775,9.775,0,0,0,31.025,23.673Z" fill="none" stroke="#45413c" stroke-linecap="round" stroke-linejoin="round"></path><path d="M14.102 30.315L23.591 30.315 23.591 35.06 14.102 33.162 14.102 30.315z" fill="#9ceb60" stroke="#45413c" stroke-linecap="round" stroke-linejoin="round"></path><path d="M35.927 35.06L37.825 38.855" fill="none" stroke="#45413c" stroke-linecap="round" stroke-linejoin="round"></path><path d="M27.387 35.06L25.489 38.855" fill="none" stroke="#45413c" stroke-linecap="round" stroke-linejoin="round"></path><path d="M39.722 38.855L23.591 38.855" fill="none" stroke="#45413c" stroke-linecap="round" stroke-linejoin="round"></path><path d="M31.182 23.673L31.182 20.826" fill="none" stroke="#45413c" stroke-linecap="round" stroke-linejoin="round"></path><path d="M41.62 20.826L20.744 20.826" fill="none" stroke="#45413c" stroke-linecap="round" stroke-linejoin="round"></path><path d="M11.255 30.315 A2.847 2.847 0 1 0 16.949 30.315 A2.847 2.847 0 1 0 11.255 30.315 Z" fill="#e0e0e0" stroke="#45413c" stroke-linecap="round" stroke-linejoin="round"></path><path d="M64.649 72.067H90.269V83.454H64.649z" fill="#6dd627"></path><path d="M64.649 76.812H90.269V83.454H64.649z" fill="#46b000"></path><path d="M64.649 72.067H90.269V83.454H64.649z" fill="none" stroke="#45413c" stroke-linecap="round" stroke-linejoin="round"></path><path d="M64.649,72.067l2.043-.454a19.516,19.516,0,0,0,10.759-6.557h0a.629.629,0,0,1,.967,0l.182.219a19.523,19.523,0,0,0,10.259,6.44l1.411.352Z" fill="#6dd627" stroke="#45413c" stroke-linecap="round" stroke-linejoin="round"></path><path d="M77.934 83.454L77.934 72.067 72.241 83.454 77.934 83.454z" fill="#87898c" stroke="#45413c" stroke-linecap="round" stroke-linejoin="round"></path><path d="M45.671 54.038L43.773 57.834 41.876 54.038" fill="none" stroke="#45413c" stroke-linecap="round" stroke-linejoin="round"></path><path d="M48.518 57.834L50.416 54.038" fill="none" stroke="#45413c" stroke-linecap="round" stroke-linejoin="round"></path><path d="M53.262 57.834L55.16 54.038" fill="none" stroke="#45413c" stroke-linecap="round" stroke-linejoin="round"></path><path d="M58.007 57.834L59.905 54.038" fill="none" stroke="#45413c" stroke-linecap="round" stroke-linejoin="round"></path><path d="M62.788 57.834L64.686 54.038" fill="none" stroke="#45413c" stroke-linecap="round" stroke-linejoin="round"></path><path d="M84.576 57.834L86.474 54.038" fill="none" stroke="#45413c" stroke-linecap="round" stroke-linejoin="round"></path><path d="M69.357 22.724 L83.591 22.724 L83.591 26.520 L69.357 26.520 Z" fill="#e0e0e0" stroke="#45413c" stroke-linecap="round" stroke-linejoin="round"></path><path d="M72.204 26.519L70.306 57.834 82.642 57.834 80.744 26.519 72.204 26.519z" fill="none" stroke="#45413c" stroke-linecap="round" stroke-linejoin="round"></path><path d="M72.204 26.519L81.124 32.782 71.445 39.045 81.883 45.308 70.686 51.571 82.642 57.834" fill="none" stroke="#45413c" stroke-linecap="round" stroke-linejoin="round"></path><path d="M80.744 26.519L71.825 32.782 81.503 39.045 71.065 45.308 82.262 51.571 70.306 57.834" fill="none" stroke="#45413c" stroke-linecap="round" stroke-linejoin="round"></path><path d="M78.631 12.286L78.631 9.439" fill="none" stroke="#45413c" stroke-linecap="round" stroke-linejoin="round"></path><path d="M86.606,9.439H78.631V4.454a1,1,0,0,1,1-1h6.975a1,1,0,0,1,1,1V8.439A1,1,0,0,1,86.606,9.439Z" fill="#ff6242" stroke="#45413c" stroke-linecap="round" stroke-linejoin="round"></path><path d="M39.978,73.965l-.229-.628a14.9,14.9,0,0,0-14.005-9.81h0a14.9,14.9,0,0,0-14,9.81l-.228.628v9.489H39.978Z" fill="#e0e0e0"></path><path d="M39.749,79.979a14.9,14.9,0,0,0-28.009,0l-.229.628v2.847H39.978V80.607Z" fill="#bdbec0"></path><path d="M39.978,73.965l-.229-.628a14.9,14.9,0,0,0-14.005-9.81h0a14.9,14.9,0,0,0-14,9.81l-.228.628v9.489H39.978Z" fill="none" stroke="#45413c" stroke-linecap="round" stroke-linejoin="round"></path><path d="M25.744,83.454H16.255V74.016a1,1,0,0,1,1-1h8.489Z" fill="#87898c" stroke="#45413c" stroke-linecap="round" stroke-linejoin="round"></path><path d="M35.233,83.454H25.744V73.016h8.489a1,1,0,0,1,1,1Z" fill="#87898c" stroke="#45413c" stroke-linecap="round" stroke-linejoin="round"></path></g></svg>