<svg xmlns="http://www.w3.org/2000/svg" version="1.1" xmlns:xlink="http://www.w3.org/1999/xlink" xmlns:svgjs="http://svgjs.com/svgjs" viewBox="0 0 160 160" width="160" height="160"><g transform="matrix(1.6,0,0,1.6,0,0)"><path d="M10.000 50.000 A40.000 40.000 0 1 0 90.000 50.000 A40.000 40.000 0 1 0 10.000 50.000 Z" fill="#c7f0ff" stroke="#c7f0ff" stroke-miterlimit="10"></path><path d="M85.2,36.669a2.836,2.836,0,0,0-1.937-1.1L53.367,34.9,24.785,26.111a2.833,2.833,0,0,0-3.379,2.321l-5.839,36.9a2.833,2.833,0,0,0,2.346,3.249l6.6-.871a29.776,29.776,0,0,1,9.786.332,26.273,26.273,0,0,1,9.119,3.832l1.561,1.017a5.3,5.3,0,0,0,4.125.715l2.8-.668a25.229,25.229,0,0,1,6.7-.753,29.927,29.927,0,0,1,12.055,2.986l5.99,2.906a2.834,2.834,0,0,0,3.25-2.344l5.839-36.9A2.834,2.834,0,0,0,85.2,36.669Z" fill="#ff6242" stroke="#45413c" stroke-linecap="round" stroke-linejoin="round"></path><path d="M78.892,63.42l-.958,5.924a2.835,2.835,0,0,1-3.982,2.122C68.6,69.007,57.718,65.3,47.714,69.859l.905-5.594Z" fill="#c7f0ff" stroke="#45413c" stroke-linecap="round" stroke-linejoin="round"></path><path d="M47.714,69.859a53.688,53.688,0,0,1,24.6-1.763l2.876.465a2.832,2.832,0,0,0,3.249-2.344L83.414,35.45a2.835,2.835,0,0,0-2.345-3.25l-2.876-.465a53.687,53.687,0,0,0-24.6,1.763Z" fill="#ffffff"></path><path d="M47.714,69.859a53.688,53.688,0,0,1,24.6-1.763l2.876.465a2.832,2.832,0,0,0,3.249-2.344L83.414,35.45a2.835,2.835,0,0,0-2.345-3.25l-2.876-.465a53.687,53.687,0,0,0-24.6,1.763Z" fill="none" stroke="#45413c" stroke-linecap="round" stroke-linejoin="round"></path><path d="M20.155,53.923,19.2,59.847a2.833,2.833,0,0,0,3.11,3.269c5.854-.647,17.35-.737,25.407,6.743l.905-5.594Z" fill="#c7f0ff" stroke="#45413c" stroke-linecap="round" stroke-linejoin="round"></path><path d="M47.714,69.859a53.671,53.671,0,0,0-22.791-9.425l-2.876-.465A2.833,2.833,0,0,1,19.7,56.72l4.975-30.767a2.832,2.832,0,0,1,3.249-2.344l2.876.464A53.681,53.681,0,0,1,53.593,33.5Z" fill="#fffef2"></path><path d="M47.714,69.859a53.671,53.671,0,0,0-22.791-9.425l-2.876-.465A2.833,2.833,0,0,1,19.7,56.72l4.975-30.767a2.832,2.832,0,0,1,3.249-2.344l2.876.464A53.681,53.681,0,0,1,53.593,33.5Z" fill="#ffffff" stroke="#45413c" stroke-linecap="round" stroke-linejoin="round"></path><path d="M30.519,34.029a36.1,36.1,0,0,1,17.7,5.808" fill="none" stroke="#45413c" stroke-linecap="round" stroke-linejoin="round"></path><path d="M29.555,39.842a36.107,36.107,0,0,1,17.7,5.809" fill="none" stroke="#45413c" stroke-linecap="round" stroke-linejoin="round"></path><path d="M28.591,45.656a36.1,36.1,0,0,1,17.7,5.809" fill="none" stroke="#45413c" stroke-linecap="round" stroke-linejoin="round"></path><path d="M27.627,51.47a36.1,36.1,0,0,1,17.705,5.809" fill="none" stroke="#45413c" stroke-linecap="round" stroke-linejoin="round"></path><path d="M75.242,41.446a36.089,36.089,0,0,0-18.632-.218" fill="none" stroke="#45413c" stroke-linecap="round" stroke-linejoin="round"></path><path d="M74.277,47.26a36.088,36.088,0,0,0-18.632-.218" fill="none" stroke="#45413c" stroke-linecap="round" stroke-linejoin="round"></path><path d="M73.313,53.074a36.094,36.094,0,0,0-18.632-.219" fill="none" stroke="#45413c" stroke-linecap="round" stroke-linejoin="round"></path><path d="M72.349,58.887a36.1,36.1,0,0,0-18.632-.218" fill="none" stroke="#45413c" stroke-linecap="round" stroke-linejoin="round"></path><path d="M32.143 78.964 A18.771 1.936 0 1 0 69.685 78.964 A18.771 1.936 0 1 0 32.143 78.964 Z" fill="#45413c" opacity=".15"></path></g></svg>