<svg xmlns="http://www.w3.org/2000/svg" version="1.1" xmlns:xlink="http://www.w3.org/1999/xlink" xmlns:svgjs="http://svgjs.com/svgjs" viewBox="0 0 160 160" width="160" height="160"><g transform="matrix(1.6,0,0,1.6,0,0)"><path d="M86.436,65.125a40,40,0,1,0-72.872,0Z" fill="#627b8c"></path><path d="M13.564,65.125a40,40,0,0,0,72.872,0Z" fill="#8ca4b8"></path><path d="M11 65.125L89 65.125" fill="none" stroke="#45413c" stroke-linecap="round" stroke-linejoin="round"></path><path d="M6.5 65.125L9 65.125" fill="none" stroke="#45413c" stroke-linecap="round" stroke-linejoin="round"></path><path d="M91 65.125L93.5 65.125" fill="none" stroke="#45413c" stroke-linecap="round" stroke-linejoin="round"></path><path d="M29.906,40.891l-7.9-1.692a2.388,2.388,0,0,1-1.888-2.335V33.2l9.785,2.1Z" fill="#00ad85" stroke="#45413c" stroke-linecap="round" stroke-linejoin="round"></path><path d="M29.906 35.3L20.121 40.891 20.121 47.88 29.906 42.289 29.906 35.3z" fill="#00dba8" stroke="#45413c" stroke-linecap="round" stroke-linejoin="round"></path><path d="M29.906,29.708l-7.9-1.692a2.388,2.388,0,0,1-1.888-2.335V22.02l9.785,2.1Z" fill="#00ad85" stroke="#45413c" stroke-linecap="round" stroke-linejoin="round"></path><path d="M29.906 24.117L20.121 29.708 20.121 36.698 29.906 31.106 29.906 24.117z" fill="#00dba8" stroke="#45413c" stroke-linecap="round" stroke-linejoin="round"></path><path d="M29.906,19.924l-9.785,5.591V16.429a4.893,4.893,0,0,1,9.785,0Z" fill="#00dba8" stroke="#45413c" stroke-linecap="round" stroke-linejoin="round"></path><path d="M41.089,40.891l7.9-1.692a2.388,2.388,0,0,0,1.888-2.335V33.2l-9.785,2.1Z" fill="#00ad85" stroke="#45413c" stroke-linecap="round" stroke-linejoin="round"></path><path d="M41.089 35.3L50.874 40.891 50.874 47.88 41.089 42.289 41.089 35.3z" fill="#00dba8" stroke="#45413c" stroke-linecap="round" stroke-linejoin="round"></path><path d="M41.089,29.708l7.9-1.692a2.388,2.388,0,0,0,1.888-2.335V22.02l-9.785,2.1Z" fill="#00ad85" stroke="#45413c" stroke-linecap="round" stroke-linejoin="round"></path><path d="M41.089 24.117L50.874 29.708 50.874 36.698 41.089 31.106 41.089 24.117z" fill="#00dba8" stroke="#45413c" stroke-linecap="round" stroke-linejoin="round"></path><path d="M41.089,19.924l9.785,5.591V16.429a4.893,4.893,0,0,0-9.785,0Z" fill="#00dba8" stroke="#45413c" stroke-linecap="round" stroke-linejoin="round"></path><path d="M25.713 23.418 A9.785 9.785 0 1 0 45.283 23.418 A9.785 9.785 0 1 0 25.713 23.418 Z" fill="#00dba8" stroke="#45413c" stroke-linecap="round" stroke-linejoin="round"></path><path d="M24.659 14.440 L30.250 14.440 L30.250 17.730 L24.659 17.730 Z" fill="#bf8df2" stroke="#45413c" stroke-linecap="round" stroke-linejoin="round" transform="translate(-3.332 24.125) rotate(-45)"></path><path d="M41.895 13.289 L45.185 13.289 L45.185 18.880 L41.895 18.880 Z" fill="#bf8df2" stroke="#45413c" stroke-linecap="round" stroke-linejoin="round" transform="translate(1.379 35.499) rotate(-45)"></path><path d="M21.522 89.278 A13.978 2.097 0 1 0 49.478 89.278 A13.978 2.097 0 1 0 21.522 89.278 Z" fill="#45413c" opacity=".15"></path><path d="M27.812 62.719L30.608 88.579 40.392 88.579 43.188 62.719 27.812 62.719z" fill="#ffe9bd" stroke="#45413c" stroke-linecap="round" stroke-linejoin="round"></path><path d="M35.5 68.31L35.5 88.579" fill="none" stroke="#45413c" stroke-linecap="round" stroke-linejoin="round"></path><path d="M27.812 62.719L30.608 88.579 40.392 88.579 43.188 62.719 27.812 62.719z" fill="none" stroke="#45413c" stroke-linecap="round" stroke-linejoin="round"></path><path d="M42.814,88.579a1.4,1.4,0,0,0,1.211-2.1,4.193,4.193,0,0,0-3.633-2.1h-.7A4.194,4.194,0,0,0,35.5,88.579Z" fill="#525252" stroke="#45413c" stroke-linecap="round" stroke-linejoin="round"></path><path d="M35.5,88.579a4.194,4.194,0,0,0-4.193-4.194h-.7a4.193,4.193,0,0,0-3.633,2.1,1.4,1.4,0,0,0,1.211,2.1Z" fill="#525252" stroke="#45413c" stroke-linecap="round" stroke-linejoin="round"></path><path d="M27.812 62.719L27.812 46.644" fill="none" stroke="#45413c" stroke-linecap="round" stroke-linejoin="round"></path><path d="M43.188 62.719L43.188 46.644" fill="none" stroke="#45413c" stroke-linecap="round" stroke-linejoin="round"></path><path d="M47.415,81.073a1.4,1.4,0,0,0,1.22-1.648A11.984,11.984,0,0,0,47.382,76H23.618a11.984,11.984,0,0,0-1.253,3.427,1.4,1.4,0,0,0,1.22,1.648A110.239,110.239,0,0,0,35.5,81.59,110.239,110.239,0,0,0,47.415,81.073Z" fill="#525252" stroke="#45413c" stroke-linecap="round" stroke-linejoin="round"></path><path d="M48.751,76.116c-.426-9.6-5.563-13.4-5.563-13.4V39.482a12.578,12.578,0,0,0-15.376,0V62.719s-5.137,3.794-5.563,13.4a1.4,1.4,0,0,0,1.239,1.45A109.638,109.638,0,0,0,35.5,78.1a109.638,109.638,0,0,0,12.012-.529A1.4,1.4,0,0,0,48.751,76.116Z" fill="#656769" stroke="#45413c" stroke-linecap="round" stroke-linejoin="round"></path><path d="M39.068,37.374a1,1,0,0,1-.718-.959V33.942H32.683v2.473a1,1,0,0,1-.718.959,12.5,12.5,0,0,0-3.041,1.36c1.6,2.749,4.451,5.8,6.593,5.8s4.988-3.05,6.592-5.8A12.487,12.487,0,0,0,39.068,37.374Z" fill="#ffe9bd" stroke="#45413c" stroke-linecap="round" stroke-linejoin="round"></path><path d="M32.7,55.73h1.4a2.446,2.446,0,0,1,0,4.892H32.7Z" fill="#ffe9bd" stroke="#45413c" stroke-linecap="round" stroke-linejoin="round"></path><path d="M38.3,55.73H36.9a2.446,2.446,0,0,0,0,4.892h1.4Z" fill="#ffe9bd" stroke="#45413c" stroke-linecap="round" stroke-linejoin="round"></path><path d="M40.241,63a5.245,5.245,0,0,0,1.015-.574,4.866,4.866,0,0,0,1.936-3.118,9.781,9.781,0,0,0,4.888-8.474v-1.4a12.573,12.573,0,0,0-5.97-10.707c-2.037,4.3-3.814,8.946-3.814,12.1a21.489,21.489,0,0,0,.588,4.857,4.761,4.761,0,0,1-.588.036v5.987A1.4,1.4,0,0,0,40.241,63Z" fill="#525252" stroke="#45413c" stroke-linecap="round" stroke-linejoin="round"></path><path d="M38.3,55.73a4.892,4.892,0,0,0,4.892-4.893V47.343" fill="none" stroke="#45413c" stroke-linecap="round" stroke-linejoin="round"></path><path d="M41.255,62.43c1.079,2.41,2.152,4.432,2.632,5.88.6,1.819,2.533,2.884,4.214,3.487l-.083-.682c-1.526-5.935-4.83-8.4-4.83-8.4V59.33l0-.019A4.865,4.865,0,0,1,41.255,62.43Z" fill="#525252" stroke="#45413c" stroke-linecap="round" stroke-linejoin="round"></path><path d="M30.759,63a5.245,5.245,0,0,1-1.015-.574,4.866,4.866,0,0,1-1.936-3.118,9.781,9.781,0,0,1-4.888-8.474v-1.4a12.573,12.573,0,0,1,5.97-10.707c2.037,4.3,3.814,8.946,3.814,12.1a21.489,21.489,0,0,1-.588,4.857,4.761,4.761,0,0,0,.588.036v5.987A1.4,1.4,0,0,1,30.759,63Z" fill="#525252" stroke="#45413c" stroke-linecap="round" stroke-linejoin="round"></path><path d="M32.7,55.73a4.892,4.892,0,0,1-4.892-4.893V47.343" fill="none" stroke="#45413c" stroke-linecap="round" stroke-linejoin="round"></path><path d="M29.745,62.43c-1.079,2.41-2.152,4.432-2.632,5.88-.6,1.819-2.533,2.884-4.214,3.487l.083-.682c1.526-5.935,4.83-8.4,4.83-8.4V59.33l0-.019A4.865,4.865,0,0,0,29.745,62.43Z" fill="#525252" stroke="#45413c" stroke-linecap="round" stroke-linejoin="round"></path><path d="M45.285,27.472a1.724,1.724,0,0,0-1.4-1.677v-.42a8.387,8.387,0,0,0-16.774,0v.42a1.712,1.712,0,0,0,.176,3.389,8.388,8.388,0,0,0,16.422,0A1.73,1.73,0,0,0,45.285,27.472Z" fill="#ffe9bd" stroke="#45413c" stroke-linecap="round" stroke-linejoin="round"></path><path d="M43.77,23.978a8.387,8.387,0,0,0-16.54,0Z" fill="#00dba8" stroke="#45413c" stroke-linecap="round" stroke-linejoin="round"></path><path d="M29.909 28.520 A1.048 1.048 0 1 0 32.005 28.520 A1.048 1.048 0 1 0 29.909 28.520 Z" fill="#ffda8f"></path><path d="M38.995 28.520 A1.048 1.048 0 1 0 41.091 28.520 A1.048 1.048 0 1 0 38.995 28.520 Z" fill="#ffda8f"></path><path d="M33.4,31.031a3.783,3.783,0,0,0,4.194,0" fill="none" stroke="#45413c" stroke-linecap="round" stroke-linejoin="round"></path><path d="M38.3,23.978a10.141,10.141,0,0,0-.7-3.5" fill="none" stroke="#45413c" stroke-linecap="round" stroke-linejoin="round"></path><path d="M32.7,23.978a10.141,10.141,0,0,1,.7-3.5" fill="none" stroke="#45413c" stroke-linecap="round" stroke-linejoin="round"></path><path d="M39.277,26.038a1.191,1.191,0,0,0-1.683,0" fill="none" stroke="#45413c" stroke-linecap="round" stroke-linejoin="round"></path><path d="M33.4,26.038a1.19,1.19,0,0,0-1.682,0" fill="none" stroke="#45413c" stroke-linecap="round" stroke-linejoin="round"></path><path d="M50.500 30.625 A13.000 13.000 0 1 0 76.500 30.625 A13.000 13.000 0 1 0 50.500 30.625 Z" fill="#fffce5"></path><path d="M74.155,23.19a12.99,12.99,0,0,1-23.31,10.371A12.994,12.994,0,1,0,74.155,23.19Z" fill="#fffacf"></path><path d="M50.500 30.625 A13.000 13.000 0 1 0 76.500 30.625 A13.000 13.000 0 1 0 50.500 30.625 Z" fill="none" stroke="#45413c" stroke-linecap="round" stroke-linejoin="round"></path><path d="M62.5,57.792l-1.555,1.037a1,1,0,0,0-.445.832v5.464h2Z" fill="#525252"></path><path d="M62.5,57.792l-1.555,1.037a1,1,0,0,0-.445.832V61.5a1,1,0,0,1,.445-.832L62.5,59.636Z" fill="#656769"></path><path d="M65.5 56.125L64 53.125 62.5 56.125 62.5 65.125 65.5 65.125 65.5 56.125z" fill="#525252"></path><path d="M64,53.125l-1.5,3v1.5l.59-1.179a1.017,1.017,0,0,1,1.82,0l.59,1.179v-1.5Z" fill="#656769"></path><path d="M65.5 56.125L64 53.125 62.5 56.125 62.5 65.125 65.5 65.125 65.5 56.125z" fill="none" stroke="#45413c" stroke-linecap="round" stroke-linejoin="round"></path><path d="M80.5 56.125L79 53.125 77.5 56.125 77.5 65.125 80.5 65.125 80.5 56.125z" fill="#525252"></path><path d="M79,53.125l-1.5,3v1.5l.59-1.179a1.017,1.017,0,0,1,1.82,0l.59,1.179v-1.5Z" fill="#656769"></path><path d="M80.5 56.125L79 53.125 77.5 56.125 77.5 65.125 80.5 65.125 80.5 56.125z" fill="none" stroke="#45413c" stroke-linecap="round" stroke-linejoin="round"></path><path d="M65.5 56.125H77.5V65.125H65.5z" fill="#525252"></path><path d="M65.5 56.125H77.5V57.625H65.5z" fill="#656769"></path><path d="M65.5 56.125H77.5V65.125H65.5z" fill="none" stroke="#45413c" stroke-linecap="round" stroke-linejoin="round"></path><path d="M73 50.125L71.5 46.125 70 50.125 70 56.125 73 56.125 73 50.125z" fill="#525252"></path><path d="M71.5,46.125l-1.5,4v1l.414-1.1a1.16,1.16,0,0,1,2.172,0l.414,1.1v-1Z" fill="#656769"></path><path d="M73 50.125L71.5 46.125 70 50.125 70 56.125 73 56.125 73 50.125z" fill="none" stroke="#45413c" stroke-linecap="round" stroke-linejoin="round"></path><path d="M73,63.125a1.5,1.5,0,0,0-3,0v2h3Z" fill="#ffe500" stroke="#45413c" stroke-linecap="round" stroke-linejoin="round"></path><path d="M67.5 58.125L67.5 59.125" fill="none" stroke="#45413c" stroke-linecap="round" stroke-linejoin="round"></path><path d="M69.5 58.125L69.5 59.125" fill="none" stroke="#45413c" stroke-linecap="round" stroke-linejoin="round"></path><path d="M71.5 58.125L71.5 59.125" fill="none" stroke="#45413c" stroke-linecap="round" stroke-linejoin="round"></path><path d="M73.5 58.125L73.5 59.125" fill="none" stroke="#45413c" stroke-linecap="round" stroke-linejoin="round"></path><path d="M75.5 58.125L75.5 59.125" fill="none" stroke="#45413c" stroke-linecap="round" stroke-linejoin="round"></path><path d="M70.5 53.125L69 50.125 67.5 53.125 67.5 56.125 70.5 56.125 70.5 53.125z" fill="#525252"></path><path d="M69,50.125l-1.5,3v1.5l.59-1.179a1.017,1.017,0,0,1,1.82,0l.59,1.179v-1.5Z" fill="#656769"></path><path d="M70.5 53.125L69 50.125 67.5 53.125 67.5 56.125 70.5 56.125 70.5 53.125z" fill="none" stroke="#45413c" stroke-linecap="round" stroke-linejoin="round"></path><path d="M75.5 53.125L74 50.125 72.5 53.125 72.5 56.125 75.5 56.125 75.5 53.125z" fill="#525252"></path><path d="M74,50.125l-1.5,3v1.5l.59-1.179a1.017,1.017,0,0,1,1.82,0l.59,1.179v-1.5Z" fill="#656769"></path><path d="M75.5 53.125L74 50.125 72.5 53.125 72.5 56.125 75.5 56.125 75.5 53.125z" fill="none" stroke="#45413c" stroke-linecap="round" stroke-linejoin="round"></path><path d="M62.5,57.792l-1.555,1.037a1,1,0,0,0-.445.832v5.464h2Z" fill="none" stroke="#45413c" stroke-linecap="round" stroke-linejoin="round"></path><path d="M80.5,57.792l1.555,1.037a1,1,0,0,1,.445.832v5.464h-2Z" fill="#525252"></path><path d="M80.5,57.792l1.555,1.037a1,1,0,0,1,.445.832V61.5a1,1,0,0,0-.445-.832L80.5,59.636Z" fill="#656769"></path><path d="M80.5,57.792l1.555,1.037a1,1,0,0,1,.445.832v5.464h-2Z" fill="none" stroke="#45413c" stroke-linecap="round" stroke-linejoin="round"></path></g></svg>