<svg xmlns="http://www.w3.org/2000/svg" version="1.1" xmlns:xlink="http://www.w3.org/1999/xlink" xmlns:svgjs="http://svgjs.com/svgjs" viewBox="0 0 160 160" width="160" height="160"><g transform="matrix(1.6,0,0,1.6,0,0)"><path d="M10.000 50.000 A40.000 40.000 0 1 0 90.000 50.000 A40.000 40.000 0 1 0 10.000 50.000 Z" fill="#c7f0ff" stroke="#c7f0ff" stroke-miterlimit="10"></path><path d="M34.497 76.642 A15.503 1.897 0 1 0 65.503 76.642 A15.503 1.897 0 1 0 34.497 76.642 Z" fill="#45413c" opacity=".15"></path><path d="M22.852 33.666 L77.148 33.666 L77.148 65.114 L22.852 65.114 Z" fill="#ffffff"></path><path d="M22.852 33.666 L77.148 33.666 L77.148 65.114 L22.852 65.114 Z" fill="none" stroke="#45413c" stroke-linecap="round" stroke-linejoin="round"></path><path d="M30.277 39.123L30.277 59.656" fill="none" stroke="#45413c" stroke-linecap="round" stroke-linejoin="round" stroke-width="2"></path><path d="M35.998 39.123L35.998 51.406" fill="none" stroke="#45413c" stroke-linecap="round" stroke-linejoin="round" stroke-width="2"></path><path d="M40.895 39.123L40.895 44.848" fill="none" stroke="#45413c" stroke-linecap="round" stroke-linejoin="round" stroke-width="2"></path><path d="M47.166 39.123L47.166 51.406" fill="none" stroke="#45413c" stroke-linecap="round" stroke-linejoin="round" stroke-width="2"></path><path d="M52.834 39.123L52.834 46.498" fill="none" stroke="#45413c" stroke-linecap="round" stroke-linejoin="round" stroke-width="2"></path><path d="M58.28 39.123L58.28 46.773" fill="none" stroke="#45413c" stroke-linecap="round" stroke-linejoin="round" stroke-width="2"></path><path d="M64.277 39.123L64.277 51.406" fill="none" stroke="#45413c" stroke-linecap="round" stroke-linejoin="round" stroke-width="2"></path><path d="M69.998 39.123L69.998 59.656" fill="none" stroke="#45413c" stroke-linecap="round" stroke-linejoin="round" stroke-width="2"></path><path d="M35.998 56.998L35.998 59.656" fill="none" stroke="#45413c" stroke-linecap="round" stroke-linejoin="round" stroke-width="2"></path><path d="M40.895 49.523L40.895 59.656" fill="none" stroke="#45413c" stroke-linecap="round" stroke-linejoin="round" stroke-width="2"></path><path d="M47.166 56.998L47.166 59.656" fill="none" stroke="#45413c" stroke-linecap="round" stroke-linejoin="round" stroke-width="2"></path><path d="M52.834 50.898L52.834 59.656" fill="none" stroke="#45413c" stroke-linecap="round" stroke-linejoin="round" stroke-width="2"></path><path d="M58.28 52.823L58.28 59.656" fill="none" stroke="#45413c" stroke-linecap="round" stroke-linejoin="round" stroke-width="2"></path><path d="M64.277 56.998L64.277 59.656" fill="none" stroke="#45413c" stroke-linecap="round" stroke-linejoin="round" stroke-width="2"></path></g></svg>