<svg width="112" height="112" fill="none" xmlns="http://www.w3.org/2000/svg">
  <path d="M0 56a56.0003 56.0003 0 0056 56 56.0003 56.0003 0 0056-56A56.0003 56.0003 0 0056 0 56.0003 56.0003 0 000 56z" fill="#C7F0FF"/>
  <path d="M34.9494 19.2472c5.4419-.6429 10.9338-.4166 16.3909-.1331.7212-.0212 1.4408-.1584 2.1624-.0796.6181.0724 1.1718.393 1.6671.752.9979.7368 1.8351 1.6723 2.5463 2.6838.8415 1.2137 1.0246 2.7529 1.873 3.9647 1.1198 1.5587 2.9056 2.4942 3.9699 4.0998.7188 1.0418.8403 2.3775.7044 3.6036-.1179 1.1015-.6952 2.0981-1.44 2.8973-.9951 1.0562-2.1373 2.0061-2.8801 3.2711-.4893.8323-.6776 1.8002-1.1574 2.6354-1.1422 1.7082-2.8097 2.9844-4.5504 4.0374-2.5178 1.5128-5.2576 2.5946-7.887 3.8883-1.2349.5977-2.4215 1.2957-3.6864 1.831-1.1678.5078-2.4459.6397-3.6872.8648-1.0798.1647-2.1341.4573-3.1995.6928-2.613.5661-5.3036 1.0059-7.9818.7216-1.8302-.1967-3.6908-.8567-4.9761-2.222-.4993-.5629-.9651-1.1881-1.2262-1.8986-.1515-2.1572.1424-4.3097.4238-6.4433.2663-2.0541.4266-4.1626-.0176-6.2043-.4305-1.6172-1.452-2.9928-1.9657-4.5792-.4026-1.2005-.4926-2.5534-.0196-3.7468.7656-1.406 2.2876-2.2248 2.9884-3.6772.3994-.7728.4781-1.6579.4506-2.5135 1.2525-1.2529 2.8205-2.1472 4.46-2.7921 2.2528-.8863 4.6443-1.3561 7.0382-1.6539z" fill="#0D0D0D"/>
  <path d="M32.5732 20.7232c5.4315-.7884 10.9346-1.127 16.4201-.9295 1.2937.084 2.5958.002 3.8851.1607 1.091.1463 2.0757.7688 2.7829 1.5968 1.6775 1.9505 2.1964 4.6247 3.9095 6.5509-.736.0779-1.4708-.1308-2.2036-.0316-.2199.0196-.4142.1311-.5905.2559 1.1146-.1404 2.2804-.0992 3.3242.355 1.4277.5857 2.5954 1.8166 3.0296 3.3058.3346 1.1606.1535 2.4439-.4454 3.4877-.702 1.2306-1.8502 2.1637-3.1255 2.7514.0592.0276.1196.0539.1799.0819.2315-.0871.4374-.2243.6429-.3582.0288.0592.0859.1791.1147.2383-.3286.2151-.6876.4022-.9303.7216-.5733.6988-.7524 1.608-1.0766 2.4295-.3462.9539-1.0091 1.7471-1.7135 2.4595-1.6967 1.6415-3.7868 2.7889-5.8765 3.8483-1.4944.7305-3.0132 1.4101-4.5144 2.1265-1.3153.6133-2.5414 1.3961-3.8607 2.0001-.2926.1208-.5841.2659-.9027.2987-.4502.004-.8955-.1259-1.3469-.0736-.79.084-1.5248.405-2.2688.6609-1.5412.5837-3.1719.8723-4.7958 1.1074-1.8279.2427-3.6865.3522-5.5207.1167-1.4984-.2027-3.0652-.6356-4.1666-1.7327-.5865-.6252-1.0734-1.4512-.9946-2.3387-.0196-3.5645.9343-7.0802.6416-10.6507-.1227-1.091-.2998-2.2188-.8779-3.1727-.4558-.8024-1.1066-1.518-1.3265-2.4339-.2119-1.0891-.2295-2.272.2683-3.2895.624-1.3201 2.0497-2.0417 2.6401-3.3846.3195-.6968.3463-1.4776.3011-2.2292 1.5476-1.807 3.7112-3.1255 6.0608-3.5593 1.6039-.311 3.227.0276 4.8358.1064 3.2331.2098 6.3846-.9008 9.6164-.7452 1.4873.0983 2.9393.5273 4.2842 1.1617 1.484.6969 2.8229 1.6539 4.2065 2.5239.443.2638.878.5525 1.3613.742-1.4536-1.1474-2.9468-2.2692-4.5792-3.1531-1.7143-.9203-3.63-1.4864-5.5798-1.5456-3.2311-.1023-6.3934.834-9.6245.7768-.732-.0236-1.4708-.0644-2.184-.2363z" fill="#FCFCFC"/>
  <path d="M40.5046 21.7402c2.583-.359 5.2727-.2179 7.7422.6673 1.5088.5385 2.9189 1.3664 4.0938 2.4586.381.3766.784.7428 1.0707 1.2002-2.0225-1.8166-4.4305-3.2707-7.105-3.8675-1.6212-.3786-3.3035-.4482-4.9594-.2979-1.2917.1384-2.5179.6501-3.8228.6993-2.3947.1583-4.7906-.1044-7.1661-.395-.2335-.0228-.4658-.0676-.7001-.0584-.4113.2067-.7248.5841-1.1901.6864.309-.5189.8635-.8583 1.4592-.9291 1.1874-.1391 2.3387.2611 3.5073.3878 2.3716.2107 4.7315-.2035 7.0703-.5517z" fill="#0D0D0D"/>
  <path d="M42.2363 23.1055c2.3879-.2494 4.883-.0747 7.1058.8863 1.0306.469 2.0953 1.2118 2.3887 2.3704-.744-1.3233-2.1604-2.0845-3.5697-2.5055-2.1532-.6324-4.4324-.7212-6.6596-.6109.2366-.0819.4853-.1219.7348-.1403zM29.836 23.9399c1.6008-.5221 3.3426-.5457 4.9822-.1935.301.0656.6356.0676.8967.2499.1751.0939.0164.2834-.0196.4093-1.4612-.5804-3.0776-.7799-4.6319-.5345-.9387.1691-1.9006.5621-2.4931 1.3417-.2571.3246-.3798.7216-.5405 1.0962.0308-.5813.2467-1.1278.5065-1.6407.3418-.3714.8332-.5617 1.2997-.7284zM42.056 23.6328c.1607-.1567.3426-.0196.5045.0532-.5333.3006-.9323.8032-1.1382 1.3785-.0296.343.0224.696-.0848 1.0306-.2386-.429-.1955-.9415-.1547-1.4112.3386-.3111.5209-.7552.8732-1.0511zM34.5298 24.9477c.1287-.0367.2578-.0703.3886-.1031.1351.2795.2938.5485.5097.7748-.0092.6764.0092 1.3529-.0092 2.0293-.5425-.4869-.0296-1.2589-.2211-1.8614-.2075-.293-.5097-.5109-.668-.8396zM44.5991 26.1955c1.6775-.3038 3.4797-.2703 5.0621.4246 1.009.4361 1.879 1.2977 2.1072 2.4003-.2702.2127-.58.403-.9343.4114-.8107.0368-1.5607-.3562-2.3623-.4106-2.2208-.1791-4.4148.5201-6.343 1.5784-.4914-.5006-1.3225-.6777-1.566-1.3961-.1875-.4494.1575-.8575.4174-1.1914.9191-1.043 2.2908-1.5411 3.6189-1.8166z" fill="#0D0D0D"/>
  <path d="M42.5941 27.9813c.8344-.5117 1.7954-.7492 2.7185-1.045-.1167.4953.2027.9151.2723 1.3868-.6349-.0727-1.2661.0996-1.8086.425-.5845.3314-1.2394.798-1.9426.5197-.0684-.5569.3102-1.0194.7604-1.2865z" fill="#FCFCFC"/>
  <path d="M29.9617 27.2393c1.2549-.3102 2.5842-.0951 3.788.3246.8116.3099 1.6591.7121 2.1441 1.4685.5077-.1472 1.0818-.3682 1.5811-.0696-.01.1995-.0028.4362-.1699.5773-.3982.395-1.0634.3418-1.4204.7992-.0012.7164.0032 1.4328-.0032 2.1492-.6201.6901-1.7911.8252-2.0845 1.8027.4961.8595 1.1094 1.7846 2.1001 2.112.3989.0308.656-.3366.9934-.4849.1232.0728.2459.1475.3678.2231-.1935.4781-.4309.9926-.8979 1.2589-.3058.1679-.6672.0584-.9443-.1127-.9675-.6057-1.5292-1.6683-2.4863-2.2864-.1923.2099-.4081.4965-.7264.4669-.1607-.2111-.2243-.4749-.3398-.7104-.8987.2231-1.6315 1.1154-2.6182.9539 2.176-.8699 3.8799-2.5179 5.7182-3.9147v-1.6507c-.8628-.5162-1.8882-.6173-2.8689-.7136-1.2741-.1288-2.5974-.132-3.7948-.6425.1751-.8024.8883-1.3697 1.6619-1.5508z" fill="#0D0D0D"/>
  <path d="M49.1895 27.8434c.4237-.0739.8955-.0188 1.2189.2895.1431.1003.1207.2846.1207.4361-.3058-.2662-.704-.2558-1.0818-.3094-.2107-.0204-.2147-.2599-.2578-.4162zM29.8628 28.1197c.5085.0284 1.0123-.0708 1.5208-.0728.2447-.008.4717.0984.6456.2663-.4245-.0124-.8471.0184-1.2697.0584-.3154.0243-.6776.0119-.8967-.2519z" fill="#FCFCFC"/>
  <path d="M52.2397 28.1001c.7225-.0868 1.3693.4146 2.0981.2558-.1207.7217-1.1618.8832-1.6591.4454.3314-.0512.776.1003.9847-.2407-.4997-.0387-1.0431-.0931-1.4237-.4605zM24.5119 28.6058c.7228.1156 1.4432-.0452 2.1557-.1555.4205-.076.8811.0204 1.1797.3406-1.2853-.1687-2.627-.1475-3.8479.3326-1.0215.3786-1.951 1.1442-2.3316 2.1873-.3478.9191-.2446 1.9445.0532 2.8625.0696.1923.1179.4185.2958.5437.6121.4625 1.4501.4653 2.0601.9251.1843.1215.1352.3446.128.5333-.2795-.1803-.5421-.391-.8536-.5141-.5873-.2559-1.2649-.3786-1.7334-.8472-.4514-.9939-.5917-2.1492-.3319-3.2159.3287-1.3836 1.4217-2.5218 2.741-3.0152.1575-.0579.3242.0144.4849.0228zM56.1992 28.7082c.5445-.1751 1.127-.1136 1.6911-.128 1.0551-.0084 2.1797.2363 2.976.9711.7176.6808.9959 1.6899 1.0531 2.6498.0511.5477-.0244 1.0942-.04 1.6407a35.9658 35.9658 0 00-.1779-.1987c.0847-.8503.0623-1.7103-.0244-2.5586-.347-.8452-.9859-1.6171-1.8558-1.9518-1.1522-.4613-2.4163-.2906-3.6221-.4245zM52.1802 29.2698c.3142-.1647.6604.0808.8055.3614-.313.0112-.5896-.1483-.8055-.3614z" fill="#0D0D0D"/>
  <path d="M55.0121 29.5329c1.3253-.2682 2.7805-.048 3.8951.7452 1.0111.7041 1.7155 1.8994 1.6499 3.1523-.0195 1.0683-.6252 2.0406-1.4256 2.715-.3162-.6928.1023-1.3797.3334-2.0213.2979-.7296.1332-1.5616-.2219-2.2392-.3502-.6849-1.0194-1.171-1.7542-1.3705-.6541-.2027-1.3469-.1759-2.0213-.1351-.6857.6644-1.6016 1.0174-2.5087 1.2621-1.1902.2998-2.4407.3918-3.6556.2075-.8176-.1411-1.6823-.435-2.2057-1.1174-.2834-.353-.3746-.8116-.391-1.2537 1.0615.1555 1.6795 1.1841 2.6754 1.4984.9059.2866 1.9098.1883 2.7837-.1648.9655-.389 1.8075-1.0758 2.8465-1.2785zM22.7631 30.6443c.5229-.4494 1.1861-.6764 1.8258-.9035-.3286.6948-1.3425.6017-1.6139 1.3437-.2179.6664.0483 1.3968-.1935 2.0665a18.1305 18.1305 0 00-.1843-.2651c.0116-.7504.1291-1.4932.1659-2.2416zM24.5673 30.8246c.8515-.4074 1.8374-.2343 2.7074.0224.7939.2498 1.5699.6132 2.1848 1.1853.3482-.1883.6417-.4721 1.0115-.6224.2158-.0656.4165.0328.5904.1503-.0227.427-.1771.8863-.5876 1.0862-.8176.3938-1.7551.2283-2.631.2691-.0308-.523-.2899-1.1002-.8404-1.2394-1.1218-.2806-2.2116.2751-3.3222.351.1195-.4985.4034-.9846.8871-1.2025z" fill="#0D0D0D"/>
  <path d="M55.5755 31.236c.1312-.1771.3666-.1607.5609-.1883.0204.4882.082 1.0059.3882 1.4073.6241.8567 1.8043 1.045 2.4327 1.8986-.5097.4677-1.1977.1031-1.787.0663-.3154-.0563-.4042.3235-.5341.5321-.1987.3247-.2183.7145-.0708 1.0627.1267.2147-.1659.307-.267.4449-1.0871 1.0995-1.8179 2.4811-2.7318 3.7153-.7184 1.001-1.5536 1.9261-2.531 2.6793-1.6743 1.2926-3.5349 2.3508-5.5163 3.094-1.8658.7104-3.8699.9179-5.8461 1.0766-2.2792.1535-4.5687.1647-6.8479.002-1.5904-.1307-3.1919-.3122-4.7203-.79-.6213-.2059-1.2697-.4481-1.7119-.9539-.6572-.738-1.0115-1.6855-1.2641-2.6262-.5065-2.0325-.5721-4.1665-.2847-6.2358.1332-.9783.6133-1.8534 1.0727-2.7102.2222-.357.1043-.7992.2414-1.179.0812-.2198.3522-.0963.5234-.1127.4093.8731.1635 1.877.4613 2.7745 1.5936 1.5864 3.8276 2.3584 6.022 2.6354 3.1727.3726 6.375-.1175 9.4578-.8655 4.4264-1.1086 8.6829-2.8045 12.8095-4.7335.0092-.3318-.0571-.7044.1431-.9939z" fill="#0D0D0D"/>
  <path d="M40.958 33.6443c.0296-.5773.6581-.824 1.1594-.7604.6324.0736 1.3213.2395 1.781.71.1472.3666.096.7852.088 1.173-.0604.5649-.2507 1.2445-.822 1.488-.2702.1319-.5609-.0028-.8259-.0788 0-.1771-.0376-.3654.0451-.5301.1556-.3366.5761-.4665.6961-.8259.0939-.2507.008-.5138-.038-.7636-.6713-.2587-1.4276-.1032-2.0837-.4122zM44.2311 33.6103c-.0747-.2158-.1383-.5373.1332-.6364.0715.0204.2126.0591.2834.0799-.0951.0716-.1903.142-.2858.2127.0187.2599.211.475.4649.5293.9291.2303 1.8962-.0767 2.8297.0928.2047.0188.2703.2059.2375.389-.8608-.479-1.8658-.0972-2.7889-.1851-.3339-.0216-.7552-.124-.874-.4822zM22.6187 33.153c.0503.0315.1527.0959.2038.1287.2711.5537.8648.8167 1.2682 1.2561-.3562-.0432-.738-.1087-1.0095-.3646-.2954-.2547-.3958-.6528-.4625-1.0202z" fill="#0D0D0D"/>
  <path d="M51.5474 35.2478c1.5024-.4993 2.7062-1.795 4.3509-1.8638.0256.8908-.3878 1.7583-1.0594 2.3348-.9355.8176-2.1709 1.1798-3.3794 1.3477.2958-.5741-.0052-1.2126.0879-1.8187z" fill="#FCFCFC"/>
  <path d="M61.6799 33.7515c.0576.0767.1148.1547.1719.2314-.1083.7289-.2402 1.4545-.4213 2.1689-.6205.3682-1.1986.8543-1.919 1.009-.1843.0572-.3674-.0092-.5437-.0603.692-.1128 1.396-.381 1.8534-.9355.5569-.6725.7984-1.5556.8587-2.4135zM39.2437 34.6462c.8627-.2343 1.7839-.1319 2.627.1331.0288.3846-.0008.7808-.2075 1.1166-.9283-.8331-2.2096.0736-3.2486-.4177.0531-.431.4277-.7316.8291-.832z" fill="#0D0D0D"/>
  <path d="M25.9858 36.4177c.1156-.2611.2599-.5098.4574-.7165-.048.3103-.1371.6181-.3338.87a14.779 14.779 0 00-.1236-.1535zM44.8892 37.3223c1.9189-.4921 3.7847-1.1797 5.7229-1.6027-.012.8344-.4142 1.6631-1.1338 2.1085-1.2629.8011-2.8157.8863-4.1534 1.5208-.1687-.6705-.2546-1.3593-.4357-2.0266zM26.5384 38.748c.0124-.7736.4114-1.4796.8383-2.1021.2587.9795.0112 2.005-.2478 2.9581-.3367-.1516-.6129-.4658-.5905-.856zM52.4679 38.0688c.5473-.3123 1.1645-.4958 1.7918-.5405-1.059.8635-1.3129 2.5278-2.7149 2.9956-.1608-.355-.2959-.746-.2059-1.1402.1291-.5945.62-1.0275 1.129-1.3149zM28.528 40.0365c-.1015-.8004-.5529-1.845.1791-2.4747.3846.3882.9008.5805 1.4205.7072.0572.4954-.3018.8844-.4454 1.3297-.0827.2495.042.4954.1396.7192-.4178-.1471-.8344-.3865-1.2938-.2814zM39.7658 38.6101c1.3793-.3103 2.7609-.6153 4.161-.8252.1987.6705.2663 1.3705.4538 2.0429-1.0747.1156-2.0933.5086-3.1608.6601-.6212.0943-1.2525.0851-1.877.036.0064-.5957-.0112-1.1902.0052-1.7851.1168-.0887.2803-.0859.4178-.1287zM30.6621 40.0941c.4474-.433.1823-1.1462.5753-1.6092.9755.5417 2.1461.2243 3.1707.6009-.3594.4054-.0716.9623-.1291 1.442-1.2126-.0028-2.4735.0348-3.6169-.4337zM35.4699 38.9547c.9979.1375 1.9529-.269 2.9444-.271.0052.614.0012 1.2293.0032 1.8434-1.0778.002-2.1544.0048-3.2319-.0012-.1415-.5629.3223-1.0163.2843-1.5712zM45.7921 41.0172c1.6028-.389 3.1112-1.0758 4.5708-1.829-.1332.8127.0539 1.6939.6816 2.262-1.4768.8535-2.7513 2.0325-4.3141 2.7405-.0192-.9291-.8555-1.5616-.9475-2.4675-.036-.2354-.0092-.4717.0092-.706zM40.2633 42.6219c1.5863-.2007 3.0835-.792 4.5643-1.3673-.0399.5322-.0511 1.0919.1947 1.5812.2843.5905.6805 1.1434.7632 1.8114-1.3908.3418-2.7261.9295-4.1633 1.0615-.439.0519-.8812-.0104-1.3089-.1064.1759-.9899-.2055-1.9845-.05-2.9804zM26.2184 42.7926c-.0943-.1859-.0807-.397-.0472-.5953.2211.5186.6037.9487.824 1.4676.1167.2443.0564.519-.0484.7552-.1235-.5924-.4837-1.0858-.7284-1.6275zM28.0119 42.8226c.7236.6641 1.1034 1.6008 1.4012 2.5155-.5629-.1451-1.1553-.2107-1.6815-.4686-.1575-.0667-.2067-.2386-.2682-.3798.0859.0756.1699.1524.2538.2315.1803-.0504.391-.0699.519-.2255.2067-.5912-.6037-1.1082-.2243-1.6731zM35.6709 43.3188c1.2405.1087 2.4859-.0992 3.6712-.4614.0624.9887-.2314 2.0385.1839 2.9772-1.097.3674-2.2675.1667-3.3997.1995-.1124-.9119-.3327-1.8054-.4554-2.7153zM29.6675 43.2892c.5589-.0388 1.0222.3898 1.5895.301-.0288.8136.5565 1.4492.7021 2.2208-.5294-.0767-1.0911-.1003-1.5516-.4034.0604-.1903.1667-.397.0695-.5956-.1875-.5494-.6344-.9659-.8095-1.5228zM32.2129 43.5371c.6876-.1607 1.4868-.2539 2.0889.1955.6864.5557.7756 1.5052.8779 2.3212-.6868.0283-1.3825-.0092-2.0385-.2323-.1843-.8096-.6808-1.4976-.9283-2.2844z" fill="#FCFCFC"/>
  <path d="M48.7513 45.811c1.1178-.5117 2.268-1.0338 3.5065-1.1482-1.9989.7153-3.8483 1.7683-5.7693 2.6586-2.4827 1.1578-5.1645 2.1281-7.943 2.0081-1.0246-.1207-2.0457.0912-3.0723.0808-1.9722-.0232-3.9679.2211-5.9217-.1635-.8087-.1751-1.6519-.4853-2.1788-1.1586-.2727-.3234-.4146-.7296-.4957-1.139.7104 1.1934 2.0657 1.7643 3.3642 2.0589 1.6139.3438 3.2814.4578 4.9269.3135 2.2065-.0944 4.4417-.0748 6.6025-.5957 2.4663-.5997 4.7055-1.8299 6.9807-2.9149z" fill="#0D0D0D"/>
  <path d="M51.0376 46.0557c1.1218-.5529 2.2188-1.2865 3.4994-1.3828-1.3909.9367-2.9065 1.6755-4.4305 2.3703-5.9996 2.6622-12.5793 3.9231-19.1314 3.9303-1.3041.0072-2.6334-.0472-3.8871-.4402-.9947-.3114-1.9242-.9367-2.4491-1.8534-.0156-.387-.1699-.8159-.0176-1.1822.0512-.0295.1535-.0879.2047-.1179.0104.471.0032.9427.0052 1.4137.5649.5701 1.2781.9722 2.0297 1.2425 1.1534.4246 2.3816.5945 3.6013.6836 1.917.1156 3.8392-.0032 5.7469-.2047 5.1641-.5425 10.1974-2.128 14.8285-4.4592z" fill="#0D0D0D"/>
  <path d="M32.2656 47.9235c1.4453.0124 2.8913-.0228 4.3341.0264.9539.002 1.9818-.2699 2.8821.1535-1.5728-.0684-3.1439.0564-4.7171.0596-.834-.0224-1.6915-.0012-2.4991-.2395z" fill="#0D0D0D"/>
  <g clip-path="url(#clip0)">
    <path d="M67.9497 90.0112c-3.3561-1.4428-6.4514-3.4041-9.5076-5.3868-.4235-.2281-.8847-.3888-1.275-.6748-.3327-.2478-.5456-.6175-.7119-.9899-.3305-.758-.502-1.5772-.5755-2.3982-.0812-.9813.3261-1.931.2402-2.9134-.1269-1.2732-.8461-2.4086-.9254-3.6903-.0677-.8411.3074-1.6528.7946-2.3154.4352-.5966 1.1007-.9796 1.7971-1.1927.9266-.2781 1.9027-.4458 2.7532-.9285.5599-.3175.9913-.8135 1.5466-1.1358 1.2289-.6055 2.617-.7865 3.973-.8142 1.958-.0341 3.9004.2545 5.8497.3841.9122.0665 1.8299.0591 2.7387.1716.8434.0962 1.6253.446 2.4171.7298.6783.2649 1.3845.4473 2.0781.6665 1.6974.5442 3.3973 1.1872 4.8488 2.244.9911.7236 1.8454 1.7249 2.1323 2.9416.1007.4914.1612 1.0077.0751 1.5049-.6316 1.296-1.5187 2.4407-2.3925 3.5788-.8384 1.0972-1.6338 2.2611-2.0579 3.5879-.2905 1.0772-.1593 2.2119-.3915 3.299-.1677.8274-.5667 1.6384-1.2376 2.1698-.9107.5566-2.0623.5219-2.9511 1.1269-.4882.313-.8287.7978-1.0979 1.3009-1.1408.3059-2.3442.2996-3.5057.1254-1.5961-.2392-3.1335-.7652-4.6149-1.3912z" fill="#0D0D0D"/>
    <path d="M69.8138 89.9512c-3.3986-1.3554-6.6887-2.9942-9.7899-4.9367-.719-.4797-1.498-.8665-2.1895-1.3879-.5811-.4481-.9422-1.1357-1.0745-1.8495-.3183-1.6853.2735-3.4022-.0735-5.0853.4509.2003.8056.5657 1.2617.7528.1335.0619.2829.0623.4262.0491-.6903-.2906-1.3496-.7029-1.8009-1.3131-.629-.814-.8929-1.9139-.6472-2.9185.1937-.7816.726-1.4621 1.4197-1.8652.8155-.4764 1.7895-.6324 2.7217-.5466-.025-.0356-.051-.071-.0766-.1073-.1627-.0268-.3272-.0163-.4905-.0075.0031-.0437.0101-.132.0132-.1758.2614-.0146.531-.003.7776-.1065.5639-.2124.9704-.6775 1.4314-1.0438.5179-.4353 1.165-.6723 1.8091-.8488 1.5268-.3822 3.116-.3479 4.6756-.263 1.1063.0764 2.2097.1903 3.3152.277.9638.0844 1.9327.0412 2.8957.1322.2092.0278.4259.0412.6208.1285.2612.1477.475.3712.7531.4914.484.2149 1.0153.2744 1.5301.3747 1.0844.1768 2.1221.5537 3.138.9593 1.1362.4691 2.2458 1.0254 3.2263 1.7728.7975.6165 1.5578 1.3887 1.828 2.3892.1302.5565.136 1.1957-.2053 1.6818-1.1768 2.0645-2.8995 3.7764-3.9207 5.9354-.2928.6708-.5665 1.3809-.5507 2.1244-.0043.6151.1329 1.2452-.0454 1.8473-.2407.6994-.6249 1.3883-1.2514 1.8098-.8003.5541-1.864.4955-2.6525 1.074-.4167.2959-.6924.7377-.9169 1.1867-1.4958.5274-3.1845.5675-4.6856.0347-1.0297-.3551-1.854-1.0916-2.7565-1.6733-1.7967-1.1989-3.9864-1.6082-5.8005-2.7753-.8258-.5525-1.5212-1.2842-2.0862-2.0988-.6245-.8969-1.0785-1.8958-1.5873-2.8593-.1678-.3-.3227-.6116-.5386-.8821.4568 1.1469.9449 2.2923 1.5927 3.3468.683 1.1028 1.6004 2.0682 2.7063 2.7523 1.8314 1.1361 3.9692 1.6496 5.8156 2.7596.4148.2577.8278.5275 1.1822.8645z" fill="#FCFCFC"/>
    <path d="M65.5736 86.7201c-1.611-.6537-3.1169-1.6318-4.2476-2.966-.6916-.8138-1.2297-1.7618-1.544-2.7841-.0945-.3444-.2051-.6902-.2181-1.0498.5622 1.723 1.4677 3.3651 2.8129 4.6013.8098.7589 1.7579 1.3599 2.764 1.8251.7919.3507 1.6704.4639 2.4402.8705 1.4353.7068 2.7311 1.6571 4.0057 2.6168.1272.091.2464.1942.3847.267.3064.0178.6132-.0956.9159.0004-.3514.1966-.7846.2078-1.1521.05-.7319-.3154-1.2633-.9303-1.8957-1.393-1.299-.9121-2.7996-1.4596-4.2659-2.0382z" fill="#0D0D0D"/>
    <path d="M65.0288 85.3547c-1.4618-.652-2.8441-1.5845-3.8071-2.8803-.4387-.6143-.8058-1.3981-.589-2.1648-.0116 1.012.5525 1.9236 1.2258 2.6364 1.0323 1.0829 2.3186 1.8939 3.6413 2.5726-.164-.0316-.3209-.0914-.471-.1639zM72.4661 89.0063c-1.0982-.2321-2.1117-.7991-2.9409-1.549-.152-.1382-.3445-.2509-.4344-.4431-.0698-.1126.085-.1691.1477-.2299.6502.8223 1.5169 1.4762 2.4961 1.8526.5983.2153 1.2847.309 1.8866.0564.2566-.1017.4598-.29.6775-.4527-.2116.3253-.5184.5689-.8394.7784-.3211.1005-.6682.0466-.9932-.0127zM65.3086 85.1103c-.145.0369-.2044-.1029-.2736-.1989.4081.0042.806-.153 1.1166-.4165.1315-.1881.2191-.4093.3925-.5668-.0052.3273-.2009.6088-.3811.8664-.2991.0667-.5524.2624-.8544.3158zM70.092 86.8598a8.1217 8.1217 0 01-.2587-.07c.0151-.2063.0131-.4146-.0361-.6172.2308-.3875.4457-.7841.6818-1.1686.1509.462-.4026.7368-.4928 1.1484.0221.2384.1239.4649.1058.7074zM64.6947 82.7831c-1.0698-.3838-2.0991-1.0039-2.7811-1.9325-.4372-.5882-.6523-1.3756-.4165-2.0883.2269-.0327.4692-.0393.6765.0739.4804.249.7824.7259 1.2271 1.0245 1.2225.8437 2.7223 1.1713 4.1882 1.2031.1169.4528.5377.8321.4388 1.328-.0415.3219-.3768.4426-.6381.5487-.8783.2958-1.8363.1262-2.6949-.1574z" fill="#0D0D0D"/>
    <path d="M66.4477 82.4203c-.6523.0173-1.2864-.1659-1.9179-.3028.2325-.2471.188-.5959.3051-.8915.3423.2536.7642.3646 1.1858.3575.448.0035.9816-.0476 1.2948.3475-.1461.3443-.5189.4852-.8678.4893z" fill="#FCFCFC"/>
    <path d="M73.4933 87.0594c-.8279-.2392-1.5237-.8064-2.0788-1.45-.3652-.4494-.7205-.9642-.7484-1.5625-.3421-.0843-.7473-.148-.936-.4869.0722-.1119.147-.2509.2905-.2767.3615-.0953.7279.1572 1.0865.0121.2395-.4132.4757-.8283.7182-1.2398.588-.1917 1.3092.1206 1.8044-.3459.0001-.6617-.0456-1.4002-.5085-1.9195-.2201-.1507-.4909-.0243-.7352-.0511a14.1912 14.1912 0 01-.138-.2514c.2711-.2116.5797-.4295.9381-.4276.2325.005.4047.1887.5076.3799.3567.6722.3268 1.4729.6733 2.1488.181-.0571.4012-.1506.5751-.0275.0224.1755-.0289.349-.0407.5235.5933.1707 1.3138-.1002 1.8296.322-1.5463-.2231-3.0793.1603-4.6062.3541l-.5503.953c.3261.5856.8844.9858 1.4185 1.3683.6927.4991 1.4556.942 1.9767 1.6359-.3685.4049-.9694.4946-1.4764.3413z" fill="#0D0D0D"/>
    <path d="M62.5938 80.3014c-.2694-.0985-.5233-.2876-.6073-.5734-.0492-.1056.0252-.2046.0757-.2921.0878.2557.3211.3824.5214.5393.1149.082.0373.2216.0102.3262zM73.8442 86.5842c-.2841-.1859-.608-.2966-.9023-.4649-.1439-.077-.2395-.214-.284-.369.241.1487.4952.2718.7525.3896.1903.0911.3953.2189.4338.4443z" fill="#FCFCFC"/>
    <path d="M60.9184 79.1366c-.446-.1907-.6523-.6958-1.126-.8471.3102-.3764.9651-.1226 1.1063.2959-.2084-.0809-.4145-.3166-.6487-.1893.2756.189.5712.4015.6684.7405zM77.0953 88.0872c-.3788-.3077-.8483-.455-1.2964-.6288-.2681-.0963-.5019-.3055-.5676-.5899.6858.5258 1.4675.9608 2.3325 1.0906.7159.1219 1.5078-.0103 2.0752-.4856.5072-.4147.7894-1.0412.9234-1.6704.024-.1342.0715-.281.0105-.4125-.1992-.4711-.6821-.752-.8811-1.2208-.0659-.1316.0369-.244.104-.3506.1012.1973.1826.4064.3214.5814.2538.3434.6041.6402.7184 1.0669-.0707.7242-.3748 1.4381-.8804 1.9673-.6509.6893-1.6614.9821-2.5875.8272-.1103-.0191-.1824-.1164-.2724-.1748zM58.8347 77.4657c-.3727-.0804-.6885-.3101-1.019-.4898-.6119-.3469-1.1796-.863-1.3945-1.5527-.1874-.6323-.0117-1.3076.2753-1.8809.153-.3332.3788-.6236.57-.9339.0119.0583.0242.1164.0365.174-.3324.4627-.6061.9666-.8388 1.4854-.0814.6036.0301 1.2622.4208 1.7454.5115.6504 1.2982.9732 1.9497 1.4525zM61.3424 78.4811c-.2363-.0097-.3544-.2668-.3446-.4772.1845.0979.291.2822.3446.4772z" fill="#0D0D0D"/>
    <path d="M59.7952 77.3852c-.8545-.2869-1.6213-.8992-2.0004-1.7287-.3491-.7434-.3573-1.6684.0982-2.3699.3674-.6102 1.0412-.9697 1.7281-1.0923-.0484.5054-.519.7624-.8663 1.0559-.4152.3219-.5974.8572-.6183 1.3668-.0261.5121.1982 1.0158.556 1.3759.31.3351.719.5506 1.122.7518.6173-.155 1.2638-.0535 1.869.1076.7871.2236 1.5398.5873 2.1798 1.0987.425.354.8263.8119.9009 1.3804.046.2983-.0542.5934-.1921.8541-.561-.4436-.575-1.2435-1.0452-1.7569-.4275-.4674-1.0398-.7453-1.6621-.8328-.6871-.0972-1.4021.0187-2.0696-.2106zM78.7845 87.4932c-.4517.0852-.9103-.0048-1.3553-.0869.4213-.2916.9756.1001 1.3797-.2378.3479-.3122.4377-.8226.8005-1.1286.0056.0718.0112.1428.0181.2145-.2569.4293-.5723.819-.843 1.2388zM77.8032 86.7877c-.6274-.0486-1.1389-.4772-1.5556-.9153-.3751-.409-.702-.8774-.8663-1.4127-.2638-.0074-.5279.0587-.7915.0222-.1465-.0341-.2296-.1578-.2908-.2836.1555-.2389.3977-.4527.7014-.4312.6033.0451 1.0894.4532 1.6087.7216-.1566.3122-.1994.7319.072.9957.5542.536 1.3686.5784 2.0351.9047-.2352.248-.5611.4341-.913.3986z" fill="#0D0D0D"/>
    <path d="M60.0374 76.214c-.1348.0586-.2653-.0294-.3866-.0782.1509-.2886.2879-.6081.2449-.9419-.0747-.7026-.6933-1.2047-.7716-1.907.4502-.1002.7259.3397 1.0538.5573.1634.1377.3412-.052.4858-.1291.2229-.1212.3641-.3398.395-.59-.0016-.1662.1982-.1219.3026-.1679.994-.2724 1.8765-.8265 2.8155-1.2344.7485-.3384 1.539-.5942 2.3545-.7032 1.3975-.1881 2.8244-.1789 4.2161.0525 1.314.2117 2.5403.76 3.7341 1.3271 1.3671.671 2.6927 1.4278 3.9543 2.2814.8746.6056 1.7388 1.2443 2.462 2.0296.29.3259.5837.682.6704 1.1213.1334.6452.0221 1.3103-.1456 1.9376-.3851 1.3424-1.0586 2.5963-1.9143 3.6952-.4029.5204-.9719.8657-1.5227 1.2072-.2473.132-.3266.4266-.5324.6002-.1201.0999-.2354-.0618-.3397-.1094.0547-.6405.5313-1.1382.6585-1.7556-.3912-1.4471-1.4237-2.6375-2.5983-3.5289-1.7076-1.2727-3.7198-2.0572-5.749-2.6529-2.9251-.8354-5.9479-1.2751-8.9734-1.537-.1159.1886-.2018.4258-.4139.5261z" fill="#0D0D0D"/>
    <path d="M69.2797 79.6962c-.2095.3234-.6546.2563-.9229.0525-.3406-.2533-.683-.5787-.7916-1.0036.0373-.2607.2064-.4853.3402-.7065.2232-.3061.5596-.635.9706-.5851.2.0139.3229.1885.4506.3207-.059.1023-.1001.2235-.2028.291-.202.1426-.4881.0774-.6772.2449-.1378.1134-.1758.2939-.2326.4535.3014.3731.7899.5355 1.0657.9326zM67.3789 78.6248c-.0288.1496-.0992.3563-.289.3231-.0345-.0356-.103-.1051-.137-.1407.0788-.0096.1572-.0185.236-.0275.0757-.1563.0364-.3446-.092-.4606-.4597-.4426-1.1204-.5877-1.6028-.9967-.112-.0791-.0874-.209-.0075-.3038.3373.5634 1.0449.678 1.5485 1.0365.1855.1238.3947.3233.3438.5697zM79.7041 86.093a20.572 20.572 0 01-.0748-.1423c.0281-.4101-.227-.7598-.3134-1.148.1912.1437.3898.3088.4612.547.0857.2455.0109.5089-.073.7433z" fill="#0D0D0D"/>
    <path d="M63.7004 75.2405c-1.0339-.2125-2.1608.1343-3.1333-.3742.2822-.5228.81-.8859 1.3899-.9948.8127-.1602 1.6466.0424 2.4004.3483-.3622.2329-.4012.7018-.657 1.0207z" fill="#FCFCFC"/>
    <path d="M57.3516 72.7271c-.0076-.0636-.0147-.1276-.0221-.191.3055-.3847.6236-.7596.9663-1.1117.4809-.0058.9767-.0938 1.4442.0571.1255.0284.2091.1277.2938.2161-.4371-.1656-.933-.2454-1.3819-.0777-.5457.2026-.9794.6319-1.3003 1.1072zM70.6035 79.6892c-.5762-.1524-1.0739-.5185-1.4723-.9526.1115-.2316.2607-.4505.4919-.5755.2583.7905 1.3003.6941 1.7364 1.3241-.1744.2311-.4908.2798-.756.204z" fill="#0D0D0D"/>
    <path d="M78.8482 83.0856c-.1537.1122-.32.2077-.5029.2612.1311-.1631.2852-.3111.4827-.391.0047.0325.0151.0976.0202.1298zM68.2359 76.2623c-1.272-.3555-2.5784-.5805-3.8384-.9823.2851-.4777.7935-.8222 1.3574-.8394.9962-.0416 1.9211.4268 2.9049.5064-.1261.4433-.306.8697-.4239 1.3153zM79.3064 81.5561c-.265.4425-.7307.7172-1.1847.9342.1771-.6517.6618-1.1613 1.1291-1.6252.1438.1997.1986.4732.0556.691zM64.1094 73.305c-.4201-.0022-.8377-.102-1.2147-.2852.8993-.1456 1.6006-1.0219 2.566-.8246-.0256.2586-.0779.5294-.2612.727-.2727.3001-.7005.3865-1.0901.3828zM78.5867 80.1489c-.2081.4959-.2958 1.2495-.9283 1.369-.0926-.3523-.3265-.6353-.5843-.8817.1321-.3051.469-.41.7003-.6193.131-.1164.1409-.3.1592-.4617.1922.2242.3529.5013.6531.5937zM71.6234 77.2266c-.8997-.2806-1.7991-.5651-2.6774-.9106.1088-.4533.3031-.88.419-1.3307.659.2915 1.3781.4041 2.0449.6725.3901.1526.7515.3683 1.0957.6049-.2023.3417-.3903.6908-.598 1.0288-.097.0124-.1905-.0438-.2842-.0649zM77.3743 79.4044c-.4026.1009-.4873.601-.8686.7373-.3826-.6379-1.1642-.8449-1.6303-1.4038.3427-.1143.3621-.5318.5553-.7896.6991.4058 1.4396.8044 1.9436 1.4561zM74.2183 78.4596c-.5303-.4121-1.2172-.4957-1.7903-.825.2017-.3563.4091-.7102.6126-1.0654.623.3581 1.2455.7154 1.8655 1.078-.1059.3722-.5248.4793-.6878.8124zM68.9466 73.8281c-1.055-.3097-2.1548-.4159-3.2486-.4676.3478-.4249.5335-.996.3605-1.5332 1.1371-.0005 2.266-.2564 3.4043-.1442-.2987.5428-.0266 1.1867-.2755 1.7404-.0577.148-.1519.2755-.2407.4046zM72.6735 74.7446c-.9828-.4129-2.0443-.5706-3.091-.7321.2004-.2939.3935-.6133.4146-.9778.0327-.4356-.0117-.8869.1632-1.3002.9169.2663 1.8838.3721 2.7575.775.2708.1163.5053.2997.7203.4977-.4315.5128-.5429 1.2142-.9646 1.7374zM80.8392 79.3276c-.0075.1388-.0857.2561-.1712.3594.0452-.373-.0323-.7489.0135-1.122.0141-.1799.1405-.3184.2797-.4199-.1262.3833-.0827.7882-.122 1.1825zM79.8132 78.7124c-.1964-.6246-.1035-1.292.0295-1.9194.2766.2714.5968.5067.8146.831.0687.0911.0398.2067.0283.3087a6.4513 6.4513 0 01-.0694-.2183c-.1209-.031-.2491-.0899-.3748-.0428-.3164.2725-.0209.8411-.4282 1.0408zM75.5571 75.873c-.68-.4763-1.4683-.7714-2.2734-.9574.2936-.5916.8132-1.0998.8862-1.7802.7559.1536 1.3648.6596 2.0294 1.0181-.2391.5639-.4098 1.1532-.6422 1.7195zM79.0135 77.8913c-.3356-.1639-.4602-.5658-.8174-.7036.2878-.4601.1618-1.0222.335-1.5162.28.2207.5964.4216.7613.7501-.0982.0897-.2285.1736-.2387.3207-.0748.3796.0444.7691-.0402 1.149zM77.6263 76.8997c-.4506-.1365-.9431-.3491-1.1409-.8092-.2111-.5497.054-1.1276.2669-1.6328.406.2126.7951.4662 1.0995.8136-.1635.5289-.1062 1.0916-.2255 1.6284z" fill="#FCFCFC"/>
    <path d="M68.8356 70.0739c-.8159-.0771-1.654-.1591-2.4072-.5059 1.3925.2534 2.8112.2618 4.2171.3881 1.8193.1592 3.691.4929 5.2552 1.4883.5514.4113 1.2115.6293 1.8008.9775 1.1309.6708 2.3645 1.195 3.3644 2.0683.4085.3707.7919.8308.8717 1.3952.0496.2776-.0038.5594-.0934.8228-.0124-.9258-.6046-1.7071-1.2561-2.3101-.8172-.7365-1.7419-1.3581-2.7401-1.8233-1.3053-.681-2.5893-1.4374-4.0105-1.8569-1.6238-.4759-3.3266-.512-5.0019-.644z" fill="#0D0D0D"/>
    <path d="M67.5973 69.1705c-.832-.0547-1.7099.0032-2.4813-.368 1.1152-.0772 2.2365.0014 3.348.1083 4.3513.4628 8.5704 1.9281 12.3556 4.1079.7554.4306 1.5047.9051 2.0975 1.5499.4705.5113.7987 1.1822.7962 1.8864-.12.2286-.1739.5277-.3839.6884-.0394 0-.1179-.0004-.1575-.0001.151-.2754.3124-.5454.4683-.8179-.1362-.5175-.4139-.9874-.7577-1.394-.5244-.6296-1.1768-1.1371-1.8513-1.5951-1.0683-.7057-2.2176-1.2779-3.3863-1.7975-3.1623-1.4081-6.5968-2.1705-10.0476-2.3683z" fill="#0D0D0D"/>
    <path d="M79.0578 74.3494c-.8303-.4889-1.6769-.9506-2.4935-1.4599-.55-.3191-1.2341-.5048-1.6128-1.0493.8853.5637 1.834 1.0154 2.7433 1.538.474.2909.9762.5645 1.363.9712z" fill="#0D0D0D"/>
  </g>
  <g clip-path="url(#clip1)">
    <path d="M92.5355 53.4187c-2.4469 1.2326-5.0659 2.0655-7.6784 2.8655-.3352.1333-.6499.3208-1.0024.4072-.3028.0717-.6178.0157-.9119-.0682-.5949-.1756-1.1482-.4719-1.6553-.8256-.603-.4263-.9522-1.1182-1.558-1.5424-.7927-.5409-1.7918-.6751-2.5664-1.2474-.5159-.3666-.8014-.9734-.9472-1.5727-.1329-.5377-.0321-1.1047.1811-1.6076.2869-.6664.6611-1.308.7938-2.0294.0876-.4747.0106-.9617.0931-1.4361.2446-.998.8098-1.8827 1.4476-2.6752.9243-1.1413 2.0265-2.1181 3.0407-3.1756.478-.4921.9162-1.0229 1.4189-1.4908.4619-.4382 1.0398-.7188 1.5846-1.0368.4792-.2621.9245-.5798 1.3848-.8727 1.1309-.7128 2.3198-1.3795 3.6268-1.704.8935-.2206 1.8806-.2286 2.718.193.3309.1791.6566.3933.9008.6824.4401.9877.6701 2.0492.9027 3.0999.2262 1.0106.5115 2.0287 1.0693 2.912.4788.6862 1.194 1.1579 1.7067 1.8154.3944.4952.6681 1.1155.6499 1.757-.1192.7916-.6943 1.4365-.7752 2.2388-.0555.4314.0588.8607.2181 1.258-.3742.8029-.958 1.4912-1.618 2.0746-.9069.8017-1.9503 1.4313-3.0241 1.9807z" fill="#0D0D0D"/>
    <path d="M93.3995 52.3188c-2.4172 1.2992-4.9448 2.3994-7.556 3.2447-.6222.1818-1.2199.443-1.8528.5889-.5377.1178-1.1068-.0063-1.5807-.2743-1.1217-.6296-1.8228-1.7973-2.9571-2.4094.3325-.1625.7134-.1901 1.0408-.362.0999-.0468.1721-.1324.2337-.2212-.4997.2566-1.0545.4366-1.6226.4017-.771-.031-1.5301-.4097-1.9888-1.0352-.3557-.488-.4901-1.122-.3872-1.7148.1194-.6982.4993-1.333.998-1.8272-.0325-.0029-.0654-.0049-.0985-.0078-.0939.0806-.1672.1802-.2408.2783-.0236-.0229-.071-.0695-.0947-.0924.1177-.1572.2543-.3065.3137-.4981.1499-.4264.0786-.8841.0904-1.3256-.0004-.5074.1754-.9934.3845-1.4486.5165-1.0614 1.3023-1.9579 2.1029-2.8131.5773-.5987 1.1746-1.1778 1.7574-1.7711.5132-.5131.9554-1.0905 1.472-1.6.1168-.1067.2289-.2248.373-.2947.2108-.0788.4423-.0939.6454-.1957.3568-.1746.6472-.4511.953-.6985.6243-.5378 1.3411-.9523 2.0639-1.3405.8173-.4266 1.6719-.7959 2.5739-.9989.7387-.161 1.5489-.2255 2.254.1016.3825.1935.7525.4983.8673.9287.6187 1.6714.7718 3.4864 1.5199 5.114.2442.4916.5203.9912.955 1.3405.3514.2991.7796.524 1.0395.9167.2858.4755.4964 1.0283.4365 1.5914-.0675.727-.6139 1.3098-.6617 2.0418-.0309.382.09.7534.2398 1.0988-.4181 1.1137-1.2092 2.1032-2.239 2.7088-.7004.4204-1.5209.5389-2.2902.777-1.555.4543-2.8458 1.5151-4.3909 1.9947-.7155.2081-1.4711.2548-2.2115.1867-.8164-.0736-1.6092-.2943-2.4081-.4664-.2532-.0482-.5069-.1095-.7664-.1159.8792.2906 1.7726.5623 2.6907.6984.9628.1393 1.9597.0776 2.8859-.228 1.5357-.5044 2.8613-1.4851 4.3892-2.0108.348-.1141.7021-.2213 1.0666-.2625z" fill="#FCFCFC"/>
    <path d="M89.4988 53.1974c-1.1523.6104-2.4402 1.0041-3.7518 1.0105-.801.005-1.6051-.1429-2.3439-.4551-.2435-.1118-.4954-.215-.7083-.3808 1.2609.5076 2.6409.779 3.9996.6021.8265-.0993 1.6288-.3544 2.3811-.7082.5833-.2858 1.0719-.736 1.6765-.9822 1.0981-.4839 2.2688-.7702 3.4346-1.0399.1136-.0292.2304-.0479.3389-.0923.1579-.1675.2406-.3984.4418-.5261-.0565.2967-.259.551-.5267.6861-.5341.2684-1.1435.2773-1.7143.4176-1.1502.3066-2.1882.9047-3.2275 1.4683z" fill="#0D0D0D"/>
    <path d="M88.4522 52.852c-1.0793.5256-2.2815.8701-3.4902.7987-.5644-.0441-1.1917-.211-1.5277-.7052.5759.4945 1.3716.6099 2.1057.5667 1.1198-.071 2.2059-.4191 3.2335-.8518-.0972.079-.2072.1403-.3213.1916zM94.1355 50.3394c-.6628.5191-1.4772.828-2.3078.9429-.1526.0207-.3102.077-.464.036-.0984-.0142-.0562-.1304-.0608-.1957.7858.0228 1.5793-.1598 2.2677-.541.4121-.24.7968-.5891.9419-1.0567.0653-.1965.055-.404.0665-.6075.0849.2784.077.5721.0426.8575-.0971.233-.2954.4064-.4861.5645zM88.4462 52.5734c-.0487.1011-.1576.0678-.2461.0613.1991-.2325.3007-.5368.299-.8423-.0447-.1663-.1295-.3232-.1364-.4988.1855.1608.2528.409.314.6366-.1059.2041-.1156.444-.2305.6432zM91.7578 50.6685a6.0505 6.0505 0 01-.165.1149c-.1113-.1082-.2318-.2074-.372-.2768-.1113-.3194-.2357-.6341-.3427-.9551.3382.136.2292.5865.4222.8368.1476.1022.3269.1529.4575.2802zM86.8133 51.8043c-.7362.4296-1.5887.722-2.451.6662-.5487-.0324-1.1047-.2884-1.4006-.7674.0907-.1462.2037-.2886.3687-.3531.3746-.1559.7942-.0995 1.1801-.2111 1.0741-.2956 1.9854-.9993 2.7104-1.8263.3164.1512.7372.0922.9745.3882.1649.179.0726.4298.0076.6311-.2535.6472-.8128 1.1159-1.3897 1.4724z" fill="#0D0D0D"/>
    <path d="M87.45 50.6223c-.3045.3831-.7155.659-1.0986.9559-.0298-.2527-.2517-.3953-.3651-.6051.3108-.0744.5779-.2633.7771-.5089.218-.2557.4459-.5869.8239-.5764.1273.2499.0285.532-.1373.7345z" fill="#FCFCFC"/>
    <path d="M93.5124 48.8107c-.5366.3604-1.1979.4866-1.8353.4953-.4343-.0068-.9013-.0509-1.2585-.3233-.2134.1559-.4453.358-.731.3031-.0294-.0955-.0733-.2054-.0189-.3003.1195-.2537.4412-.3425.5307-.6184-.1219-.3368-.2465-.6727-.366-1.0104.1733-.4302.7004-.694.6711-1.2034-.3801-.319-.8264-.6488-1.3479-.6332-.1927.0537-.2507.2703-.3838.3977a10.3478 10.3478 0 01-.211-.0419c.0091-.2578.0327-.5401.2066-.7451.115-.1312.3035-.1415.4629-.1085.5582.1191 1.0038.5224 1.5592.6491.0545-.1315.1069-.3031.2615-.3436.1116.0717.1865.1848.2811.2756.3841-.2585.5758-.803 1.067-.8959-.8736.7809-1.3924 1.8465-2.0172 2.8172l.2823.7756c.4936.0949.9927-.0329 1.47-.1553.6206-.1574 1.2429-.3822 1.8928-.3471.055.4069-.1831.7954-.5156 1.0128z" fill="#0D0D0D"/>
    <path d="M84.3749 51.815c-.1865.1072-.4176.1619-.6223.0724-.0844-.0227-.1054-.1131-.1313-.1843.1893.0728.3746-.0002.5612-.0396.1025-.0264.1453.0854.1924.1515zM93.4079 48.3801c-.2438.0736-.4635.2064-.7021.2943-.1136.0456-.2385.0344-.3489-.0147.2016-.0668.3949-.1535.5866-.2446.144-.0654.3163-.1215.4644-.035z" fill="#FCFCFC"/>
    <path d="M82.8977 52.2159c-.3246.1643-.7143.0394-1.0296.2386-.0666-.3597.3949-.6136.7034-.493-.147.0807-.3817.0856-.4215.2815.2415-.0672.506-.1346.7477-.0271zM95.8393 47.2367c-.3593.0693-.6703.268-.9862.4417-.1846.1076-.4175.1411-.6126.0417.6328-.1405 1.2596-.3799 1.7511-.8143.4152-.3526.721-.8713.7214-1.4264.0063-.4913-.2175-.9555-.5145-1.3358-.0655-.0785-.127-.1765-.2319-.2049-.3667-.1127-.7609.0293-1.1262-.0824-.1073-.0256-.1224-.1388-.1513-.2287.1622.037.3216.091.489.0956.3197.0198.659-.0384.9593.1016.382.3898.6456.9086.7059 1.4542.0822.7063-.2367 1.428-.7722 1.8854-.0641.0542-.1548.0487-.2318.0723zM80.9337 52.6075c-.2259.1753-.5101.246-.7727.3493-.4943.1843-1.0645.2617-1.5644.0526-.4536-.1971-.7568-.6237-.9479-1.0649-.1177-.2486-.1756-.5183-.2618-.7777.0393.0212.0786.0422.1176.0629.1056.414.2632.8143.449 1.198.3076.3378.7398.5912 1.2057.5997.6203.0197 1.185-.2767 1.7745-.4199zM82.7258 51.6562c-.1195.1311-.3241.075-.4403-.0321.1451-.0588.3024-.0311.4403.0321z" fill="#0D0D0D"/>
    <path d="M81.3501 52.0169c-.5769.3526-1.2983.498-1.9576.3159-.5954-.1578-1.1308-.599-1.3143-1.1989-.1735-.5053-.0551-1.0657.2056-1.5194.267.2714.1878.6657.189 1.0067-.0152.3937.2045.7565.4872 1.0141.2816.2619.6792.3759 1.0586.344.3419-.0167.6629-.1477.9728-.2822.2085-.4295.5785-.7519.9628-1.022.5079-.3444 1.0798-.6015 1.6821-.7227.4083-.0735.8648-.0833 1.2274.1479.1936.1173.3148.3172.3981.5222-.5253.1084-.9916-.2692-1.5132-.2466-.4747.0203-.9295.2382-1.2798.5535-.3871.3479-.6652.8145-1.1187 1.0875zM96.3125 45.9797c-.1689.3006-.4417.5207-.7034.7368.0356-.3827.5279-.5123.5285-.9074-.0116-.3503-.2616-.648-.2624-1.004.0439.0314.0873.0624.1319.093.1229.3546.1947.7237.3054 1.0816zM95.4337 46.2037c-.3304.337-.8232.4242-1.2759.4524-.4157.0184-.8425-.0196-1.2292-.1833-.1314.148-.2207.3316-.3688.4654-.0902.0678-.2013.0559-.3031.0304-.0623-.2045-.0684-.4467.0903-.6109.3168-.3248.7856-.4074 1.1902-.5763.1039.2404.3243.4674.6068.4386.575-.06.9921-.5075 1.5009-.7331.0291.2547-.0212.5317-.2112.7168z" fill="#0D0D0D"/>
    <path d="M80.7942 51.3131c-.0313.1056-.1448.1382-.2313.1844-.0931-.2259-.2106-.4586-.4231-.5948-.4397-.2959-1.0264-.1825-1.4677-.4761.1595-.3069.5452-.2533.8283-.3368.1579-.0274.1346-.221.16-.3413.0378-.1865-.0196-.373-.1485-.5114-.0963-.0792.0254-.1726.0494-.2547.3227-.7025.4298-1.4766.6481-2.2128.1664-.5932.4006-1.1706.731-1.6917.5657-.8936 1.2589-1.709 2.0627-2.397.7552-.6529 1.6613-1.0931 2.5627-1.5056 1.0446-.4619 2.1184-.8587 3.2171-1.172.7696-.2105 1.5531-.3991 2.3529-.436.3271-.0095.6732-.0066.9675.1554.435.2343.7634.6189 1.043 1.0177.5856.8684.9814 1.8598 1.2002 2.8813.1047.4824.0288.9756-.0405 1.4567-.0434.2058.0876.3934.0881.5953-.0005.1172-.149.1055-.2266.1424-.3416-.3402-.3978-.8539-.6912-1.2247-1.02-.4728-2.2017-.4535-3.2801-.2084-1.5544.3675-2.9752 1.1454-4.2957 2.0241-1.8901 1.2778-3.6 2.8025-5.209 4.4145.0524.1575.1473.3212.1027.4915z" fill="#0D0D0D"/>
    <path d="M87.2501 47.6818c.0849.2763-.1682.4997-.4147.5555-.3097.0736-.6617.1135-.9582-.029-.1318-.1471-.1794-.3525-.2419-.5361-.0683-.2757-.0951-.6276.1317-.8397.1044-.1082.264-.0946.4016-.1042.0302.0832.0801.1652.0694.2568-.0155.1847-.1909.3177-.1858.5071-.0013.1338.0841.2427.1484.3523.3596.0067.6884-.1957 1.0495-.1627zM85.7182 48.2574c.0721.0887.1569.2288.0463.3218-.0371.0027-.11.0086-.1468.0109.0324-.0499.0651-.0992.0979-.1488-.0533-.1189-.1804-.187-.309-.1692-.4759.0507-.8778.3604-1.3454.4404-.0994.0261-.1622-.0506-.1781-.1422.4864.0778.8933-.2734 1.3421-.39.1605-.0469.376-.0709.493.0771zM95.9512 44.7764c-.0291-.0063-.0882-.019-.1178-.0256-.2221-.2139-.546-.2359-.8107-.3734.1748-.0406.3654-.0751.5367-.0013.1823.0691.2976.2391.3918.4003z" fill="#0D0D0D"/>
    <path d="M82.0008 48.7393c-.6205.4915-.9645 1.3061-1.7255 1.6197-.1644-.4141-.1185-.8924.0985-1.2782.2997-.5441.8182-.9255 1.3573-1.2111-.0408.3204.2098.5689.2697.8696z" fill="#FCFCFC"/>
    <path d="M77.4962 51.1751c-.0402-.0262-.0804-.0531-.1203-.0794-.0738-.3609-.1359-.7244-.173-1.091.2286-.2791.4171-.6064.7291-.8023.0768-.0584.1742-.0585.2658-.0646-.3059.1713-.5908.4177-.7108.7565-.1467.4112-.1091.8674.0092 1.2808zM87.8844 46.9178c-.3653.2577-.8155.3671-1.257.3867-.0793-.1757-.1332-.3669-.0935-.5601.5787.2327 1.0256-.4124 1.5978-.3592.0488.2115-.0758.4169-.2473.5326z" fill="#0D0D0D"/>
    <path d="M93.8106 43.8184c-.0097.1424-.0349.2839-.0924.4148-.0305-.154-.0413-.3139.0081-.4659.0209.0131.0633.0385.0843.0511zM84.7743 46.6259c-.8175.5594-1.5766 1.2016-2.4149 1.7317-.137-.394-.0898-.8522.1722-1.1845.4563-.5924 1.1713-.8979 1.6914-1.4248.1939.2862.3521.5951.5513.8776zM93.1526 42.8179c.1265.3655.0598.7655-.0344 1.131-.289-.416-.3481-.9401-.3894-1.4322.1841.0136.3676.114.4238.3012zM81.0857 47.5712a2.1173 2.1173 0 01-.7494.5604c.3499-.5868.1846-1.4122.7633-1.8717.1362.1393.2666.2999.2917.5005.041.3014-.1156.5887-.3056.8108zM91.9972 42.5528c.1846.3587.5753.7723.3391 1.1934-.2471-.1167-.5225-.1187-.7884-.0894-.1115-.223-.0094-.4671-.0181-.7009-.0038-.1314-.1044-.2256-.1885-.3141.2214-.0023.4581.039.6559-.089zM86.9615 45.1448c-.595.3816-1.192.7612-1.814 1.0992-.208-.281-.3594-.5984-.5625-.8822.4851-.2381.8965-.5969 1.3722-.8507.2757-.1505.5739-.2542.8757-.3379.0989.281.2088.5573.3028.8396-.0396.0617-.1169.0883-.1742.132zM90.9851 42.8906c-.1362.28.1103.5697.0049.8544-.551-.0877-1.0467.2617-1.5925.26.0995-.252-.131-.4644-.186-.6997.5702-.206 1.1562-.4393 1.7736-.4147zM88.9207 44.2482c-.4924.106-.8716.4604-1.3371.6309-.1074-.2877-.2108-.5774-.3167-.8656.5061-.1853 1.0114-.3707 1.5187-.5521.1627.2403.0224.5326.1351.7868zM83.7185 45.0443c-.6865.4569-1.2778 1.0375-1.8348 1.641-.0764-.4046-.315-.7866-.7071-.9462.5479-.6536.9451-1.4255 1.5583-2.0254.1679.4332.669.5874.8672.9973.0571.1045.085.2201.1164.3333zM86.0417 43.3448c-.711.3656-1.3134.8995-1.9107 1.423-.0722-.2569-.1627-.5217-.3619-.7096-.2345-.2288-.5152-.4209-.6684-.7206.5951-.3984 1.122-.9029 1.7747-1.2107.1973-.0995.4157-.1458.6331-.1739.0867.4952.436.8973.5332 1.3918zM92.6112 40.8628c.0762.0712.1059.1727.124.2716-.1925-.2058-.4459-.3425-.6381-.5486-.0966-.0948-.1152-.2342-.1064-.3631.1593.2572.413.4274.6205.6401zM91.7633 41.1555c-.4536-.1882-.7922-.5634-1.0886-.9422.2893-.0281.5789-.0986.8702-.0675.0854.0045.1379.0768.191.1326a5.0096 5.0096 0 01-.1589-.0653c-.0761.0545-.1717.0997-.2052.1947.004.3131.4731.4174.3915.7477zM88.0798 42.2321c-.6015.161-1.151.4717-1.646.8446-.1984-.4539-.2399-.9974-.5956-1.3674.4526-.3602 1.0369-.4661 1.5633-.6751.2087.4092.465.7914.6783 1.1979zM90.9058 41.2194c-.2559.1138-.5469-.0083-.7983.1304-.1256-.3872-.5093-.5857-.7096-.9234.2618-.0544.5297-.1394.798-.0758.0041.0997-.0105.215.0691.2918.1821.226.4633.3453.6408.577zM89.6677 41.5381c-.2956.1931-.6551.3736-1.0148.2654-.4176-.1437-.6219-.5746-.8095-.9405.3179-.1308.6511-.2321.9975-.2394.2251.3488.576.5872.8268.9145z" fill="#FCFCFC"/>
    <path d="M81.508 43.298c-.4377.4316-.8888.8736-1.4512 1.1391.8169-.6779 1.5058-1.4889 2.2561-2.2357.9685-.9686 2.0626-1.883 3.3885-2.3019.5021-.1185.9456-.3926 1.4298-.5633.9305-.3264 1.8265-.7824 2.8102-.9358.4099-.0561.8591-.0545 1.2218.1717.1835.1054.3196.2719.4277.4504-.5378-.4392-1.2722-.4757-1.9327-.3921-.8171.1145-1.6201.3461-2.3685.6953-1.0206.4217-2.0741.7947-3.0003 1.409-1.0562.7035-1.898 1.6644-2.7814 2.5633z" fill="#0D0D0D"/>
    <path d="M80.3919 43.5741c-.4325.4516-.8225.9839-1.4077 1.2481.4933-.6779 1.0791-1.2842 1.6763-1.8713 2.3636-2.2768 5.2394-3.9945 8.3167-5.1183.6115-.2264 1.2454-.4282 1.9016-.458.5206-.0237 1.0643.1111 1.4677.452.0735.1792.2193.3544.2104.5525-.019.0226-.0571.0676-.076.0904-.0854-.2195-.1627-.4424-.2442-.6633-.3629-.1713-.7668-.2383-1.1661-.2367-.6146-.0023-1.2207.1279-1.809.2946-.9204.2736-1.8033.6581-2.6652 1.079-2.3335 1.138-4.4272 2.7437-6.2045 4.631z" fill="#0D0D0D"/>
    <path d="M88.8925 39.4864c-.6812.2413-1.3546.5051-2.0409.7287-.4485.1622-.885.4657-1.3804.4208.7507-.2369 1.4675-.5641 2.2061-.8347.3957-.1321.795-.2887 1.2152-.3148z" fill="#0D0D0D"/>
  </g>
  <g clip-path="url(#clip2)">
    <path d="M38.0673 71.4108c1.6388 2.1957 2.9138 4.6303 4.1553 7.0642.1895.307.4288.5843.5751.9165.1232.2857.1228.6056.0911.9098-.0695.6163-.2653 1.2127-.5255 1.7735-.3152.6679-.9359 1.132-1.2485 1.8022-.395.8746-.3537 1.8818-.7828 2.744-.2714.5717-.8194.9583-1.3843 1.2059-.5065.2243-1.0823.2235-1.6146.1008-.7061-.1668-1.403-.4239-2.1364-.4293-.4828-.0038-.949.1566-1.4305.1577-1.0253-.0676-1.9947-.4706-2.8859-.9611-1.2845-.712-2.4379-1.6279-3.6554-2.443-.5676-.3854-1.1665-.7247-1.7145-1.1386-.5118-.3787-.8884-.8991-1.2962-1.3804-.3413-.4264-.7316-.8097-1.0999-1.2122-.8984-.9899-1.7615-2.0451-2.3079-3.2758-.3724-.8417-.5518-1.8124-.2819-2.7102.1189-.357.2732-.715.5156-1.0056.8962-.6049 1.9017-1.0158 2.896-1.4274.956-.3982 1.9091-.8559 2.6821-1.5586.5926-.5908.9329-1.377 1.4914-1.996.4192-.4745.9825-.8517 1.6175-.9452.8003-.02 1.5353.4343 2.3394.3747.4345-.0203.8374-.2074 1.201-.4333.8557.2292 1.6349.6845 2.324 1.2332.947.754 1.7483 1.6721 2.4758 2.6342z" fill="#0D0D0D"/>
    <path d="M36.8338 70.7507c1.6992 2.1548 3.2216 4.4531 4.5075 6.8777.287.5812.6481 1.1245.9017 1.7225.2094.509.186 1.091.0043 1.6042-.4253 1.2141-1.4535 2.1073-1.8593 3.3306-.2177-.2992-.3111-.6695-.5372-.9621-.0635-.0903-.1603-.1465-.2584-.1917.3394.4476.613.9627.6773 1.5282.1033.7646-.1378 1.578-.6741 2.1383-.4188.435-1.0198.6775-1.6215.6791-.7084.0036-1.3995-.2603-1.9728-.6656.0029.0325.0065.0653.0095.0984.0956.0785.2065.1333.3158.1888-.0184.0273-.056.082-.0745.1093-.1752-.0885-.346-.1972-.545-.2224-.4459-.0736-.8844.0761-1.3212.1411-.4996.0886-1.0087-.0001-1.4933-.127-1.135-.3244-2.1544-.9425-3.1355-1.5825-.6899-.4645-1.3639-.9523-2.0494-1.4232-.5944-.4162-1.2399-.7515-1.8313-1.1717-.1254-.0966-.2611-.1865-.355-.3163-.1142-.1939-.1693-.4192-.3048-.6016-.2339-.3211-.5566-.559-.8534-.8172-.638-.5214-1.1707-1.1554-1.6785-1.7998-.562-.7308-1.0741-1.5082-1.4307-2.3613-.2868-.6995-.491-1.4862-.2914-2.2374.1242-.4102.3601-.8276.7641-1.0154 1.5386-.8996 3.2994-1.3654 4.7723-2.3848.4417-.3259.8858-.6845 1.1543-1.1733.2335-.398.3807-.8587.7223-1.1829.4186-.364.9264-.6673 1.4915-.7062.7276-.0598 1.3965.3771 2.1256.2971.3816-.0359.7264-.2195 1.0405-.4269 1.1694.2183 2.2812.8256 3.0564 1.7345.5357.6168.7949 1.4043 1.1629 2.1206.7174 1.4524 1.9862 2.5394 2.7268 3.9777.3292.6686.5065 1.4046.568 2.1455.0693.8168-.0104 1.6359-.0412 2.4525-.0035.2578-.0198.5183.019.775.1334-.9163.2459-1.8434.2205-2.7712-.03-.9723-.2638-1.9434-.7257-2.8025-.7634-1.4247-1.9594-2.5599-2.7424-3.9733-.1728-.3229-.3399-.653-.4437-1.0048z" fill="#FCFCFC"/>
    <path d="M38.3766 74.4396c.8012 1.0287 1.4126 2.2287 1.6467 3.5193.144.788.138 1.6055-.0412 2.3874-.0679.2591-.1257.5251-.2521.7636.281-1.3299.3087-2.7361-.1015-4.0435-.2414-.7966-.6318-1.5424-1.1109-2.2219-.3828-.5247-.9109-.9277-1.2585-1.4805-.6672-.9973-1.1524-2.1005-1.6205-3.2018-.0485-.1068-.0871-.2185-.1497-.3177-.1923-.1264-.4341-.1678-.5948-.3437.302.0041.5876.1593.7671.3996.3571.4793.4717 1.0779.709 1.6156.5016 1.0796 1.2709 1.9979 2.0064 2.9236z" fill="#0D0D0D"/>
    <path d="M38.2181 75.5307c.705.9716 1.2531 2.0957 1.3926 3.2985.0546.5635-.0009 1.2102-.4292 1.6269.387-.653.3625-1.4566.1925-2.1721-.2645-1.0905-.7958-2.0996-1.4004-3.0364.0946.082.1741.1797.2445.2831zM34.7567 70.3698c.6263.5626 1.072 1.311 1.3293 2.109.0469.1467.1297.2921.116.4507.0031.0994-.1186.078-.1822.0939-.1139-.7778-.4316-1.5276-.9265-2.1393-.3079-.3642-.7185-.6825-1.2042-.7441-.2049-.0302-.4074.0159-.6098.04.2594-.132.55-.1751.8371-.1909.2462.0552.4515.2204.6403.3807zM37.9451 75.5845c.108.0305.0941.1435.1031.2318-.2635-.1558-.5809-.2029-.8815-.1482-.1559.0729-.2957.1837-.4674.2209.1261-.2106.3588-.32.5724-.4198.2193.0689.4572.0368.6734.1153zM35.4939 72.6542c.0481.0466.0949.0941.1418.1425-.0872.1284-.164.2643-.208.4144-.2952.1651-.5836.3422-.8811.5033.0753-.3566.5378-.3275.7508-.561.075-.1631.0938-.3485.1965-.4992zM37.4713 77.3264c.5509.6504.9869 1.4392 1.0817 2.2981.0634.5459-.0922 1.138-.5126 1.5125-.1597-.0638-.3195-.1504-.4117-.3017-.2186-.3419-.2359-.7649-.4128-1.1256-.4776-1.0064-1.3289-1.7816-2.2692-2.352.0939-.3379-.0372-.742.213-1.0271.1477-.1935.4107-.1462.6202-.1171.6815.1372 1.2401.6066 1.6914 1.1129z" fill="#0D0D0D"/>
    <path d="M36.1966 76.9046c.4302.2334.7733.5901 1.1322.9159-.2437.0733-.3456.3166-.5325.4646-.1272-.2931-.3596-.5233-.6362-.6769-.2896-.1702-.6553-.3372-.7107-.7112.2241-.1689.519-.1206.7472.0076z" fill="#FCFCFC"/>
    <path d="M33.3596 71.2492c.4481.4658.6873 1.0952.8064 1.7214.0688.4289.1065.8964-.0998 1.2955.1907.1831.4299.3764.4254.6673-.0889.0455-.1895.1078-.2924.0707-.2706-.0737-.4139-.375-.7012-.4153-.3105.1786-.6196.3596-.9314.536-.4538-.096-.8051-.5693-1.3017-.452-.2482.4297-.4954.9266-.3896 1.4374.0865.1805.3098.1999.4584.3089a9.6596 9.6596 0 01-.0047.2151c-.2554.0357-.5375.0615-.7696-.0741-.1491-.0905-.192-.2743-.1872-.4371.0204-.5703.3401-1.0792.3684-1.6482-.1389-.0308-.317-.0526-.3838-.1978.0513-.1223.1496-.2158.2227-.3247-.3213-.3334-.8909-.4276-1.0676-.8953.9207.7248 2.0603 1.0506 3.1247 1.4974l.7148-.4127c.0078-.5026-.2048-.9719-.4083-1.4206-.2627-.5839-.5922-1.1577-.6705-1.8038.3913-.1248.8152.0422 1.087.3319z" fill="#0D0D0D"/>
    <path d="M37.9048 79.726c.1379.165.232.3831.1794.6002-.0077.0871-.0931.1234-.1587.1613.0388-.199-.0652-.3688-.1365-.5458-.0438-.0963.0589-.1579.1158-.2157zM32.9537 71.4264c.1148.2273.2837.4206.4117.6403.0646.104.0753.2289.0461.3462-.1008-.187-.2198-.3623-.3427-.5353-.0894-.1305-.1746-.2904-.1151-.4512z" fill="#FCFCFC"/>
    <path d="M38.5561 81.1109c.2182.2911.1628.6965.4138.9724-.3427.1282-.6729-.2822-.6077-.607.1051.1307.1506.3611.3504.3662-.1081-.2261-.2204-.475-.1565-.7316zM31.4055 69.2309c.1306.3419.3803.6137.6062.8946.138.1631.2115.3866.1475.596-.2483-.5988-.5929-1.1744-1.1061-1.5831-.4193-.3476-.9831-.5587-1.5299-.4628-.485.0792-.9032.3802-1.2262.7387-.0659.0782-.1518.1557-.1615.264-.0473.3807.161.7442.1144 1.1233-.0065.1102-.1154.1447-.1989.1888.0082-.1661.0338-.3325.0092-.4982-.036-.3182-.1523-.6423-.0665-.9624.3175-.4439.7827-.7935 1.3095-.9476.6813-.2036 1.4474-.0149 1.9909.433.0645.0538.0748.144.1114.2157zM39.2829 82.9775c.2119.192.3309.4596.4782.7003.2674.4547.4426 1.0028.3235 1.5314-.1154.4809-.4828.8537-.8842 1.1184-.2243.1591-.4799.263-.7204.3929.0141-.0423.028-.0847.0416-.1267.3894-.1759.7561-.4006 1.1018-.6503.2792-.3615.4538-.8311.3812-1.2915-.0883-.6142-.4783-1.1189-.7217-1.6745zM38.0351 81.3775c.1499.0949.1301.3062.0449.4392-.0831-.1327-.0832-.2924-.0449-.4392z" fill="#0D0D0D"/>
    <path d="M38.6289 82.6696c.4475.5068.7159 1.192.6511 1.873-.0521.6138-.3936 1.2176-.9525 1.5025-.4675.2586-1.0399.2394-1.532.0614.2209-.3101.623-.3006.9586-.361.3904-.0534.7094-.3327.9141-.6558.209-.3229.2522-.7342.1549-1.1023-.0758-.3339-.2606-.6272-.4468-.909-.4592-.1308-.841-.4391-1.1737-.7708-.4274-.4404-.7799-.9589-1.0038-1.531-.1433-.3893-.2322-.8372-.0675-1.2344.082-.211.2577-.3651.4451-.4828.198.4985-.0929 1.0233.02 1.5331.1024.4639.3959.874.7673 1.1642.4098.3208.9177.5137 1.2652.9129zM30.0853 68.9832c.3253.1141.5895.3445.8477.5647-.383.0314-.5962-.4309-.9853-.3629-.3431.0723-.5928.3702-.9432.4328a8.814 8.814 0 00.0687-.146c.3278-.1826.6788-.3174 1.0121-.4886zM30.4583 69.8095c.3893.2669.5608.7371.6672 1.1779.0903.4063.1269.8332.0329 1.2424.1686.1037.3649.1599.5224.2824.0824.0771.09.1886.0825.2933-.1905.0968-.428.1449-.6172.017-.3749-.2555-.5376-.7028-.7743-1.0719.2188-.1441.404-.4006.3266-.6738-.1589-.5559-.672-.8889-.9826-1.3508.2458-.0728.5273-.0715.7425.0835z" fill="#0D0D0D"/>
    <path d="M38.0324 83.3395c.1095.0125.1613.1186.2218.1958-.2063.1309-.4151.287-.5123.5199-.215.4844-.0015 1.0425-.2139 1.528-.33-.1037-.3441-.4928-.4755-.7572-.0545-.1507-.2411-.0941-.364-.0982-.1902-.0049-.3639.0841-.4778.235-.0613.1085-.1744.0049-.2594-.0044-.7479-.1958-1.5288-.1669-2.2917-.2541-.6131-.0608-1.2225-.1912-1.793-.4261-.9782-.4019-1.9016-.943-2.7188-1.6151-.774-.6303-1.3649-1.4463-1.9277-2.2623-.6363-.9485-1.2135-1.9372-1.7128-2.9648-.341-.7213-.6628-1.4601-.838-2.2414-.0662-.3205-.1234-.6618-.015-.9797.1553-.4691.477-.8594.8212-1.204.7535-.7274 1.6611-1.2893 2.629-1.6822.4569-.1869.9559-.1978 1.4417-.2131.2102.007.3722-.1546.5709-.1902.1155-.0198.1298.1285.1797.1985-.2758.3955-.7719.54-1.0861.8934-.2885 1.0866-.0643 2.2469.3643 3.2664.6319 1.467 1.6447 2.7311 2.7393 3.879 1.5866 1.6395 3.3851 3.0587 5.252 4.3633.146-.079.2907-.2009.4661-.1865z" fill="#0D0D0D"/>
    <path d="M33.3355 77.6119c.2573-.1315.5213.079.6191.3119.1262.2923.2266.632.1378.9488-.122.1553-.316.2378-.4859.3313-.2597.1151-.6016.2026-.8499.0161-.1247-.0841-.139-.2436-.1723-.3774.0766-.0442.1488-.1076.2408-.1129.1846-.0169.346.1328.5317.0949.132-.022.2244-.125.3211-.2074-.0558-.3553-.3122-.644-.3424-1.0053zM34.1683 79.0206c.0748-.0864.1981-.1942.3089-.1015.009.0361.0275.1069.0362.1428-.0548-.0234-.109-.047-.1635-.0707-.1079.0731-.1529.2102-.113.3337.1326.4599.5073.8019.6673 1.2485.043.0933-.0216.1685-.1091.2001-.0078-.4925-.4244-.8322-.6171-1.2539-.0741-.15-.1351-.358-.0097-.499zM28.9634 69.5478a17.8289 17.8289 0 01-.0048.1205c-.172.2558-.1375.5786-.2269.8631-.0703-.165-.1374-.3467-.0945-.5283.0364-.1916.1838-.3345.3262-.4553z" fill="#0D0D0D"/>
    <path d="M35.2882 82.5983c.5918.5257 1.4538.723 1.8947 1.418-.3793.2338-.8583.2716-1.2758.1249-.5879-.2006-1.0536-.645-1.4284-1.1264.3226-.0154.5238-.3053.8095-.4165z" fill="#FCFCFC"/>
    <path d="M38.4695 86.6114c-.0188.0441-.0383.0884-.0572.1323-.3427.1353-.6899.2596-1.0445.3598-.3145-.1767-.6696-.3054-.9167-.5787-.0708-.0655-.0878-.1614-.1098-.2505.2219.2714.514.5092.8685.5686.4304.0731.8732-.0431 1.2597-.2315zM32.4729 77.12c.3171.315.5031.7395.5991 1.1708-.1593.1086-.3383.1949-.5354.1893.1287-.6102-.5842-.9384-.6312-1.5111.1999-.0848.4237.0023.5675.151z" fill="#0D0D0D"/>
    <path d="M28.3914 71.8221c.142-.0152.2857-.0149.4246.0189-.1463.0568-.3019.0952-.4602.073a7.5274 7.5274 0 00.0356-.0919zM32.7254 80.2336c.6929.7079 1.4571 1.3439 2.1248 2.0775-.3643.2034-.8237.2364-1.1965.0361-.6626-.3465-1.0877-.9976-1.6968-1.4182.2481-.2407.5249-.4501.7685-.6954zM27.5203 72.6439c.338-.1881.7435-.1918 1.1198-.1625-.3595.3568-.8654.506-1.3428.6321-.0186-.1836.0484-.3818.223-.4696zM34.2971 83.702c.272.1589.5058.3803.682.6407-.6387-.2427-1.4228.0635-1.9759-.4267.1136-.1583.2491-.3146.4423-.3742.2897-.0927.5999.0117.8516.1602zM27.4597 73.8277c.3212-.2441.6607-.7007 1.1164-.5411-.072.2636-.0262.5351.0489.7918-.2002.1486-.4584.0904-.6872.1396-.1287.0266-.2039.142-.2765.2402-.0407-.2176-.0412-.4579-.2016-.6305zM30.8871 78.3371c.4792.5197.9567 1.0417 1.3976 1.5955-.2407.2536-.5269.4579-.7712.7072-.3187-.4365-.7435-.7793-1.076-1.2036-.1962-.2455-.35-.5211-.4848-.8038.2595-.1462.5125-.3024.7742-.444.0677.0283.1073.0998.1602.1487zM27.9683 74.7659c.2993.0855.5419-.2076.8406-.1531.0093.5578.4394.9853.5325 1.5231-.2654-.0542-.4346.2096-.6567.3046-.302-.5257-.6335-1.0623-.7164-1.6746zM29.664 76.5631c.19.4665.6048.7784.8535 1.2072-.2646.1558-.532.3079-.7974.4623-.2703-.4663-.5407-.9317-.8074-1.3998.2083-.202.5206-.1145.7513-.2697zM31.351 81.5482c.5691.5968 1.2436 1.0782 1.9347 1.522-.3853.1455-.72.4468-.8091.8606-.7388-.4261-1.5679-.6832-2.2652-1.1829.3975-.2406.4623-.7609.8316-1.0272.0929-.0744.2019-.1219.308-.1725zM29.2739 79.5553c.4835.6367 1.1139 1.1372 1.7332 1.6346-.2404.1157-.4856.2508-.636.4796-.1846.2707-.325.5805-.5936.7833-.4957-.5168-1.084-.948-1.5004-1.5374-.1323-.1771-.2158-.3841-.2812-.5933.4726-.1713.8079-.5852 1.278-.7668zM25.689 73.5164c.057-.0873.1518-.1342.246-.1692-.1692.2253-.2599.4985-.4295.7237-.0766.1116-.2106.1541-.3391.1678.2257-.2016.3492-.4809.5226-.7223zM26.1244 74.3008c-.1066.4794-.4173.878-.7389 1.2356-.0779-.28-.1976-.5529-.2175-.8452-.0104-.0849.0517-.1492.0974-.2111a5.0895 5.0895 0 01-.0367.1678c.0668.0654.128.1518.2273.1683.3077-.0583.329-.5385.6684-.5154zM27.8242 77.7411c.263.5644.6644 1.0517 1.1175 1.4744-.4125.2742-.9405.4094-1.2431.8239-.4334-.3832-.6391-.9402-.9364-1.4223.3668-.2766.6986-.5953 1.062-.876zM26.3363 75.1341c.1565.2323.0868.5401.2671.7636-.3595.1909-.4884.6032-.7862.8591-.0991-.2483-.2293-.4975-.2132-.7726.0975-.0215.2136-.0271.2753-.1188.191-.2186.2597-.5162.457-.7313zM26.8654 76.2982c.2415.2576.4816.5803.4376.9534-.069.4361-.4579.7121-.7856.9604-.184-.2903-.3417-.6009-.4091-.9408.3045-.2821.4783-.6692.7571-.973z" fill="#FCFCFC"/>
    <path d="M30.0153 84.0282c.5011.3561 1.0147.7236 1.3739 1.2313-.8095-.6867-1.7278-1.2243-2.5936-1.8335-1.122-.7856-2.2126-1.7043-2.8553-2.9374-.2038-.4739-.5509-.863-.803-1.3102-.483-.8597-1.0877-1.6628-1.4096-2.605-.1264-.394-.2028-.8366-.0431-1.2331.0719-.1989.2123-.3619.3693-.4994-.3391.6059-.2475 1.3355-.0505 1.9715.2546.7848.6222 1.5353 1.0961 2.2118.5924.9318 1.1427 1.9045 1.9085 2.71.8763.918 1.9687 1.5801 3.0073 2.294z" fill="#0D0D0D"/>
    <path d="M30.4809 85.0794c.5199.3475 1.1118.6392 1.4737 1.1695-.7534-.368-1.4522-.8396-2.134-1.3258-2.6527-1.9324-4.8436-4.4662-6.4848-7.3016-.3291-.5629-.6379-1.1521-.7811-1.7932-.1139-.5086-.0755-1.0674.1902-1.5238.1637-.1035.3109-.2776.5075-.3032.0256.0148.0765.0445.1023.0592-.2014.1222-.4074.237-.6109.3556-.1056.3872-.1014.7965-.0306 1.1896.1045.6055.338 1.1798.6043 1.7303.4292.8589.9612 1.6616 1.5254 2.4373 1.5259 2.1005 3.4708 3.8836 5.638 5.3061z" fill="#0D0D0D"/>
    <path d="M24.9794 77.4178c.3559.6289.7327 1.2463 1.0721 1.8833.2376.4136.6123.7907.654 1.2864-.3635-.6981-.8103-1.3473-1.205-2.0277-.1988-.3667-.4224-.7327-.5211-1.142z" fill="#0D0D0D"/>
  </g>
  <defs>
    <clipPath id="clip0">
      <path fill="#fff" transform="rotate(-150 51.3945 39.213)" d="M0 0h32v29.2026H0z"/>
    </clipPath>
    <clipPath id="clip1">
      <path fill="#fff" transform="rotate(160 46.1612 35.4085)" d="M0 0h24v21.9019H0z"/>
    </clipPath>
    <clipPath id="clip2">
      <path fill="#fff" transform="rotate(60 -36.166 62.4125)" d="M0 0h24v21.9019H0z"/>
    </clipPath>
  </defs>
</svg>
