<svg xmlns="http://www.w3.org/2000/svg" version="1.1" xmlns:xlink="http://www.w3.org/1999/xlink" xmlns:svgjs="http://svgjs.com/svgjs" viewBox="0 0 160 160" width="160" height="160"><g transform="matrix(1.6,0,0,1.6,0,0)"><path d="M8.401 50.126 A40.000 40.000 0 1 0 88.401 50.126 A40.000 40.000 0 1 0 8.401 50.126 Z" fill="#c7f0ff" stroke="#c7f0ff" stroke-miterlimit="10"></path><path d="M8.401 50.126 A40.000 40.000 0 1 0 88.401 50.126 A40.000 40.000 0 1 0 8.401 50.126 Z" fill="none" stroke="#c7f0ff" stroke-miterlimit="10"></path><path d="M67.5,66.6a20.283,20.283,0,1,0-40.566-.1l-.025,9.815,7.2.018-.029,11.156a40.205,40.205,0,0,0,26.17.857L60.278,76.4l7.2.019Z" fill="#c7f0ff"></path><path d="M47.269,46.265A20.284,20.284,0,0,0,26.934,66.5l-.013,5.235a20.283,20.283,0,1,1,40.566.1L67.5,66.6A20.283,20.283,0,0,0,47.269,46.265Z" fill="#ffffff"></path><path d="M60.247,88.342,60.278,76.4l7.2.019L67.5,66.6a20.283,20.283,0,1,0-40.566-.1l-.025,9.815,7.2.018-.029,11.156" fill="none" stroke="#45413c" stroke-linecap="round" stroke-linejoin="round"></path><path d="M34.106 76.329L34.136 64.552" fill="none" stroke="#45413c" stroke-linecap="round" stroke-linejoin="round"></path><path d="M60.278 76.396L60.308 64.619" fill="none" stroke="#45413c" stroke-linecap="round" stroke-linejoin="round"></path><path d="M42.7,41.674l-.019,7.32s-.059,3.109,4.572,3.16c4.631-.027,4.588-3.137,4.588-3.137l.019-7.32Z" fill="#ffda8f"></path><path d="M42.69,45.731c0,.183.086,3.1,4.572,3.151,4.487-.025,4.587-2.945,4.588-3.127l.011-4.058-9.16-.023Z" fill="#ffbe3d"></path><path d="M42.7,41.674l-.019,7.32s-.059,3.109,4.572,3.16c4.631-.027,4.588-3.137,4.588-3.137l.019-7.32Z" fill="none" stroke="#45413c" stroke-linecap="round" stroke-linejoin="round"></path><path d="M34.557 44.733 L59.853 44.733 L59.853 102.972 L34.557 102.972 Z" fill="#ffffff" transform="translate(-26.769 120.868) rotate(-89.853)"></path><path d="M76,78.71a3.779,3.779,0,0,0-5.329.414l-1.081,1.292a3.779,3.779,0,0,0,.532,5.318l.989.828,4.183.011a1,1,0,0,0,1-1l.017-6.6Z" fill="#e0e0e0"></path><path d="M23.175,77.694a3.779,3.779,0,0,0-4.6-2.716l-.489.12-.025,9.44,2.7-.666a3.78,3.78,0,0,0,2.817-4.542Z" fill="#e0e0e0"></path><path d="M34.557 44.733 L59.853 44.733 L59.853 102.972 L34.557 102.972 Z" fill="none" stroke="#45413c" stroke-linecap="round" stroke-linejoin="round" transform="translate(-26.769 120.868) rotate(-89.853)"></path><path d="M38.012 48.074 L56.398 48.074 L56.398 99.632 L38.012 99.632 Z" fill="#00b8f0" transform="translate(-26.769 120.868) rotate(-89.853)"></path><path d="M34.888,79.042a1.377,1.377,0,0,1-1.372-1.378l0-.579-.411.408a1.376,1.376,0,0,1-1.945,0,1.379,1.379,0,0,1,0-1.944l.411-.409H31a1.375,1.375,0,0,1,.007-2.75h.579l-.409-.411a1.375,1.375,0,0,1,1.951-1.939l.408.41v-.579a1.375,1.375,0,0,1,2.75.007v.579l.41-.408a1.375,1.375,0,0,1,1.941,1.949l-.411.409.578,0a1.375,1.375,0,1,1-.007,2.75l-.578,0,.408.41a1.375,1.375,0,0,1-1.95,1.94l-.408-.41,0,.579A1.377,1.377,0,0,1,34.888,79.042Z" fill="#ffffff" stroke="#00658a" stroke-linecap="round" stroke-linejoin="round"></path><path d="M57.338,79.225a1.5,1.5,0,0,1,.008-3l5.6.014a1.5,1.5,0,1,1-.008,3Z" fill="#ffffff" stroke="#00658a" stroke-linecap="round" stroke-linejoin="round"></path><path d="M73,67.193l0-1.467a1,1,0,0,0-1-1L22.449,64.6a1,1,0,0,0-1,1L21.4,81.98a1,1,0,0,0,1,1l1.345,0,.037-14.611A1.309,1.309,0,0,1,25.1,67.07Z" fill="#009fd9"></path><path d="M38.012 48.074 L56.398 48.074 L56.398 99.632 L38.012 99.632 Z" fill="none" stroke="#45413c" stroke-linecap="round" stroke-linejoin="round" transform="translate(-26.769 120.868) rotate(-89.853)"></path><path d="M23.023,77.156l-.4-1.636a3.779,3.779,0,0,0-4.6-2.716l-3.535.87a1.574,1.574,0,0,0-1.18,1.472,12.429,12.429,0,0,0,1.642,6.667,1.574,1.574,0,0,0,1.728.756l3.535-.871A3.779,3.779,0,0,0,23.023,77.156Z" fill="#ffda8f"></path><path d="M13.789,77.374A1.573,1.573,0,0,1,14.968,75.9l3.535-.87a3.779,3.779,0,0,1,4.6,2.716l.009.037a3.7,3.7,0,0,0-.093-.629l-.4-1.636a3.78,3.78,0,0,0-4.6-2.716l-3.535.87a1.575,1.575,0,0,0-1.18,1.472,12.471,12.471,0,0,0,.574,4.237A12.821,12.821,0,0,1,13.789,77.374Z" fill="#ffe9bd"></path><path d="M23.023,77.156l-.4-1.636a3.779,3.779,0,0,0-4.6-2.716l-3.535.87a1.574,1.574,0,0,0-1.18,1.472,12.429,12.429,0,0,0,1.642,6.667,1.574,1.574,0,0,0,1.728.756l3.535-.871A3.779,3.779,0,0,0,23.023,77.156Z" fill="none" stroke="#45413c" stroke-linecap="round" stroke-linejoin="round"></path><path d="M71.192,83.786a3.78,3.78,0,0,1-.531-5.319l1.081-1.291a3.78,3.78,0,0,1,5.329-.415L79.863,79.1a1.572,1.572,0,0,1,.412,1.84A12.427,12.427,0,0,1,75.868,86.2a1.575,1.575,0,0,1-1.884-.082Z" fill="#ffda8f"></path><path d="M78.856,82.726a1.574,1.574,0,0,0-.411-1.841l-2.791-2.337a3.78,3.78,0,0,0-5.33.413l-.024.029a3.7,3.7,0,0,1,.36-.524l1.082-1.292a3.781,3.781,0,0,1,5.329-.413L79.862,79.1a1.572,1.572,0,0,1,.412,1.84,12.45,12.45,0,0,1-2.38,3.552A12.757,12.757,0,0,0,78.856,82.726Z" fill="#ffe9bd"></path><path d="M71.192,83.786a3.78,3.78,0,0,1-.531-5.319l1.081-1.291a3.78,3.78,0,0,1,5.329-.415L79.863,79.1a1.572,1.572,0,0,1,.412,1.84A12.427,12.427,0,0,1,75.868,86.2a1.575,1.575,0,0,1-1.884-.082Z" fill="none" stroke="#45413c" stroke-linecap="round" stroke-linejoin="round"></path><path d="M64.262 57.557 A13.669 13.669 0 1 0 91.600 57.557 A13.669 13.669 0 1 0 64.262 57.557 Z" fill="#ffffff" transform="translate(20.174 135.34) rotate(-89.853)"></path><path d="M64.509,54.958a13.668,13.668,0,1,0,26.853.048,13.662,13.662,0,0,1-26.845-.046" fill="#c7f0ff"></path><path d="M64.262 57.557 A13.669 13.669 0 1 0 91.600 57.557 A13.669 13.669 0 1 0 64.262 57.557 Z" fill="none" stroke="#45413c" stroke-linecap="round" stroke-linejoin="round" stroke-width="1.122" transform="translate(20.174 135.34) rotate(-89.853)"></path><path d="M72.158 53.201 L83.691 53.201 L83.691 66.870 L72.158 66.870 Z" fill="#ffe500" transform="translate(17.689 137.806) rotate(-89.853)"></path><path d="M83.065,54.282l-10.252-.026a1.709,1.709,0,0,0-1.713,1.7l0,1.993a1.71,1.71,0,0,1,1.713-1.7l10.252.027a1.709,1.709,0,0,1,1.7,1.713L84.769,56A1.709,1.709,0,0,0,83.065,54.282Z" fill="#fff48c"></path><path d="M76.618 60.036 A1.306 1.306 0 1 0 79.230 60.036 A1.306 1.306 0 1 0 76.618 60.036 Z" fill="#45413c"></path><path d="M72.158 53.201 L83.691 53.201 L83.691 66.870 L72.158 66.870 Z" fill="none" stroke="#45413c" stroke-linecap="round" stroke-linejoin="round" stroke-width="1.122" transform="translate(17.689 137.806) rotate(-89.853)"></path><path d="M82.144,52.315a4.2,4.2,0,0,0-8.4-.022l0,1.965,8.4.022Z" fill="none" stroke="#45413c" stroke-linecap="round" stroke-linejoin="round" stroke-width="1.122"></path><path d="M46.977,79.073a1.377,1.377,0,0,1-1.371-1.378v-.58l-.41.409a1.375,1.375,0,0,1-1.941-1.949l.411-.409h-.578a1.375,1.375,0,0,1,.007-2.75h.579l-.409-.411a1.375,1.375,0,0,1,1.95-1.939l.409.41V69.9a1.375,1.375,0,0,1,2.75.007v.579l.41-.408a1.375,1.375,0,0,1,1.941,1.949l-.411.409.578,0a1.375,1.375,0,0,1-.007,2.75l-.578,0,.408.41a1.375,1.375,0,0,1-1.95,1.94l-.409-.41V77.7A1.377,1.377,0,0,1,46.977,79.073Z" fill="#ffffff" stroke="#00658a" stroke-linecap="round" stroke-linejoin="round"></path><path d="M61.385,34.392a2.689,2.689,0,0,1-.681.071c-.057,0-.109-.016-.165-.021A13.486,13.486,0,0,1,55.9,42.477a4.487,4.487,0,0,0,2.831.763.4.4,0,0,0,.361-.459c-.073-.507-.2-1.393-.284-2.145a.4.4,0,0,1,.558-.408,4.47,4.47,0,0,0,2.13.38.407.407,0,0,0,.365-.457C61.723,39.057,61.375,36.046,61.385,34.392Z" fill="#614b44" stroke="#45413c" stroke-linecap="round" stroke-linejoin="round"></path><path d="M33.909,33.81c-.056,0-.109.015-.166.013a2.637,2.637,0,0,1-.664-.1c-.068,1.652-.559,4.644-.744,5.728a.405.405,0,0,0,.342.472,4.456,4.456,0,0,0,2.147-.278.4.4,0,0,1,.538.434c-.122.745-.287,1.621-.385,2.125a.405.405,0,0,0,.343.48,4.478,4.478,0,0,0,2.851-.624A13.483,13.483,0,0,1,33.909,33.81Z" fill="#614b44" stroke="#45413c" stroke-linecap="round" stroke-linejoin="round"></path><path d="M33.871,28.431l.08-3.37a13.484,13.484,0,1,1,26.96.64l-.08,3.37a2.7,2.7,0,1,1-.127,5.392c-.057,0-.109-.016-.165-.021a13.466,13.466,0,0,1-26.63-.632c-.056,0-.109.015-.166.013a2.7,2.7,0,1,1,.128-5.392Z" fill="#ffda8f"></path><path d="M33.871,28.431l.08-3.37a13.484,13.484,0,1,1,26.96.64l-.08,3.37a2.7,2.7,0,1,1-.127,5.392c-.057,0-.109-.016-.165-.021a13.466,13.466,0,0,1-26.63-.632c-.056,0-.109.015-.166.013a2.7,2.7,0,1,1,.128-5.392Z" fill="none" stroke="#45413c" stroke-linecap="round" stroke-linejoin="round"></path><path d="M53.281 34.664 A1.685 1.685 0 1 0 56.651 34.664 A1.685 1.685 0 1 0 53.281 34.664 Z" fill="#ffbe3d"></path><path d="M37.779 34.296 A1.685 1.685 0 1 0 41.149 34.296 A1.685 1.685 0 1 0 37.779 34.296 Z" fill="#ffbe3d"></path><path d="M51.19,38a5.882,5.882,0,0,1-8.111-.192" fill="none" stroke="#45413c" stroke-linecap="round" stroke-linejoin="round"></path><path d="M39.905,29.923a2.2,2.2,0,0,1,4.056.1" fill="none" stroke="#45413c" stroke-linecap="round" stroke-linejoin="round"></path><path d="M50.7,30.179a2.2,2.2,0,0,1,4.055.1" fill="none" stroke="#45413c" stroke-linecap="round" stroke-linejoin="round"></path><path d="M60.831,29.071h0a1.35,1.35,0,0,1-1.316-1.38l.02-.819a1.335,1.335,0,0,0-1.056-1.347,7.187,7.187,0,0,1-4.9-3.37h0l-.048,2.022a1.348,1.348,0,0,1-1.38,1.316l-.674-.016c-3.84-.091-5.881-3.9-6.739-6.088A.663.663,0,0,0,43.6,19.22a16.354,16.354,0,0,1-7.39,5.633,1.354,1.354,0,0,0-.937,1.252l-.024,1.01a1.348,1.348,0,0,1-1.38,1.316h0a1.348,1.348,0,0,1-1.316-1.38l.064-2.7A14.832,14.832,0,0,1,47.8,9.879h0A14.837,14.837,0,0,1,62.275,25.066l-.064,2.7A1.341,1.341,0,0,1,60.831,29.071Z" fill="#614b44"></path><path d="M47.8,9.879a14.832,14.832,0,0,0-15.18,14.476l-.064,2.7a1.352,1.352,0,0,0,.029.313,14.832,14.832,0,0,1,29.583.709,1.309,1.309,0,0,0,.044-.309l.064-2.7A14.837,14.837,0,0,0,47.8,9.879Z" fill="#947063"></path><path d="M60.831,29.071h0a1.35,1.35,0,0,1-1.316-1.38l.02-.819a1.335,1.335,0,0,0-1.056-1.347,7.187,7.187,0,0,1-4.9-3.37h0l-.048,2.022a1.348,1.348,0,0,1-1.38,1.316l-.674-.016c-3.84-.091-5.881-3.9-6.739-6.088A.663.663,0,0,0,43.6,19.22a16.354,16.354,0,0,1-7.39,5.633,1.354,1.354,0,0,0-.937,1.252l-.024,1.01a1.348,1.348,0,0,1-1.38,1.316h0a1.348,1.348,0,0,1-1.316-1.38l.064-2.7A14.832,14.832,0,0,1,47.8,9.879h0A14.837,14.837,0,0,1,62.275,25.066l-.064,2.7A1.341,1.341,0,0,1,60.831,29.071Z" fill="none" stroke="#45413c" stroke-linecap="round" stroke-linejoin="round"></path></g></svg>