<svg xmlns="http://www.w3.org/2000/svg" version="1.1" xmlns:xlink="http://www.w3.org/1999/xlink" xmlns:svgjs="http://svgjs.com/svgjs" viewBox="0 0 160 160" width="160" height="160"><g transform="matrix(1.6,0,0,1.6,0,0)"><path d="M90,50A40,40,0,1,0,13.564,66.5H86.436A39.829,39.829,0,0,0,90,50Z" fill="#c7f0ff"></path><path d="M13.564,66.5a40,40,0,0,0,72.872,0Z" fill="#c8ffa1"></path><path d="M11 66.5L89 66.5" fill="none" stroke="#45413c" stroke-linecap="round" stroke-linejoin="round"></path><path d="M6.5 66.5L9 66.5" fill="none" stroke="#45413c" stroke-linecap="round" stroke-linejoin="round"></path><path d="M91 66.5L93.5 66.5" fill="none" stroke="#45413c" stroke-linecap="round" stroke-linejoin="round"></path><path d="M19.889 37.264H79.585V67.87700000000001H19.889z" fill="#8ca4b8" stroke="#45413c" stroke-linecap="round" stroke-linejoin="round"></path><path d="M19.889 37.264H79.585V44.152H19.889z" fill="#627b8c"></path><path d="M84.942,74H14.531V69.408a1.531,1.531,0,0,1,1.531-1.531h67.35a1.529,1.529,0,0,1,1.53,1.53Z" fill="#e8f4fa"></path><path d="M83.412,67.877H16.062a1.531,1.531,0,0,0-1.531,1.531v2.3a1.531,1.531,0,0,1,1.531-1.531h67.35a1.529,1.529,0,0,1,1.53,1.53v-2.3A1.529,1.529,0,0,0,83.412,67.877Z" fill="#ffffff"></path><path d="M84.942,74H14.531V69.408a1.531,1.531,0,0,1,1.531-1.531h67.35a1.529,1.529,0,0,1,1.53,1.53Z" fill="none" stroke="#45413c" stroke-linecap="round" stroke-linejoin="round"></path><path d="M55.86,64.816H43.614a1.531,1.531,0,0,0,0,3.061H55.86a1.531,1.531,0,0,0,0-3.061Z" fill="#e8f4fa" stroke="#45413c" stroke-linecap="round" stroke-linejoin="round"></path><path d="M55.86,37.264H43.614a1.531,1.531,0,0,0,0,3.061H55.86a1.531,1.531,0,0,0,0-3.061Z" fill="#e8f4fa" stroke="#45413c" stroke-linecap="round" stroke-linejoin="round"></path><path d="M45.145 40.325H54.329V64.816H45.145z" fill="#ffffff"></path><path d="M45.145 40.325H54.329V44.152H45.145z" fill="#e0e0e0"></path><path d="M45.145 40.325H54.329V64.816H45.145z" fill="none" stroke="#45413c" stroke-linecap="round" stroke-linejoin="round"></path><path d="M30.6,64.816H18.358a1.531,1.531,0,1,0,0,3.061H30.6a1.531,1.531,0,1,0,0-3.061Z" fill="#e8f4fa" stroke="#45413c" stroke-linecap="round" stroke-linejoin="round"></path><path d="M30.6,37.264H18.358a1.531,1.531,0,1,0,0,3.061H30.6a1.531,1.531,0,1,0,0-3.061Z" fill="#e8f4fa" stroke="#45413c" stroke-linecap="round" stroke-linejoin="round"></path><path d="M19.889 40.325H29.073V64.816H19.889z" fill="#ffffff"></path><path d="M19.889 40.325H29.073V44.152H19.889z" fill="#e0e0e0"></path><path d="M68.87,64.816H81.116a1.531,1.531,0,0,1,0,3.061H68.87a1.531,1.531,0,0,1,0-3.061Z" fill="#e8f4fa" stroke="#45413c" stroke-linecap="round" stroke-linejoin="round"></path><path d="M68.87,37.264H81.116a1.531,1.531,0,0,1,0,3.061H68.87a1.531,1.531,0,0,1,0-3.061Z" fill="#e8f4fa" stroke="#45413c" stroke-linecap="round" stroke-linejoin="round"></path><path d="M70.401 40.325H79.585V64.816H70.401z" fill="#ffffff"></path><path d="M70.401 40.325H79.585V44.152H70.401z" fill="#e0e0e0"></path><path d="M70.401 40.325H79.585V64.816H70.401z" fill="none" stroke="#45413c" stroke-linecap="round" stroke-linejoin="round"></path><path d="M18.805,31.907a2.933,2.933,0,0,0-.447,1.529v3.828H81.116V33.436a2.933,2.933,0,0,0-.447-1.529Z" fill="#e8f4fa"></path><path d="M18.805,31.907a2.933,2.933,0,0,0-.447,1.529V34.2H81.116v-.767a2.933,2.933,0,0,0-.447-1.529Z" fill="#ffffff"></path><path d="M18.805,31.907a2.933,2.933,0,0,0-.447,1.529v3.828H81.116V33.436a2.933,2.933,0,0,0-.447-1.529Z" fill="none" stroke="#45413c" stroke-linecap="round" stroke-linejoin="round"></path><path d="M28.445,31.907l19.5-14.022a3.063,3.063,0,0,1,3.576,0l19.5,14.022h9.64a2.931,2.931,0,0,0-.8-.884L51.5,10.962a3.06,3.06,0,0,0-3.534,0L19.608,31.023a2.931,2.931,0,0,0-.8.884Z" fill="#ffffff" stroke="#45413c" stroke-linecap="round" stroke-linejoin="round"></path><path d="M47.949,17.885l-19.5,14.022H71.029l-19.5-14.022A3.063,3.063,0,0,0,47.949,17.885Z" fill="#e8f4fa"></path><path d="M47.949,21.767a3.063,3.063,0,0,1,3.576,0l14.1,10.14h5.4l-19.5-14.022a3.063,3.063,0,0,0-3.576,0l-19.5,14.022h5.4Z" fill="#c0dceb"></path><path d="M47.949,17.885l-19.5,14.022H71.029l-19.5-14.022A3.063,3.063,0,0,0,47.949,17.885Z" fill="none" stroke="#45413c" stroke-linecap="round" stroke-linejoin="round"></path><path d="M19.889 40.325H29.073V64.816H19.889z" fill="none" stroke="#45413c" stroke-linecap="round" stroke-linejoin="round"></path></g></svg>