<svg xmlns="http://www.w3.org/2000/svg" version="1.1" xmlns:xlink="http://www.w3.org/1999/xlink" xmlns:svgjs="http://svgjs.com/svgjs" viewBox="0 0 160 160" width="160" height="160"><g transform="matrix(1.6,0,0,1.6,0,0)"><path d="M90,59.392a40,40,0,1,0-76.436,16.5H86.436A39.844,39.844,0,0,0,90,59.392Z" fill="#c7f0ff"></path><path d="M13.564,75.892a40,40,0,0,0,72.872,0Z" fill="#f2dfc2"></path><path d="M44.6 67.108L44.6 71.108" fill="none" stroke="#45413c" stroke-linecap="round" stroke-linejoin="round"></path><path d="M23.6 65.608H42.6V75.89200000000001H23.6z" fill="#ff6196"></path><path d="M23.6 65.608H42.6V69.108H23.6z" fill="#e0366f"></path><path d="M27.91 70.927L27.91 75.892" fill="#ffcebf" stroke="#45413c" stroke-linecap="round" stroke-linejoin="round"></path><path d="M33.25 70.927L33.25 75.892" fill="#ffcebf" stroke="#45413c" stroke-linecap="round" stroke-linejoin="round"></path><path d="M38.59 70.927L38.59 75.892" fill="#ffcebf" stroke="#45413c" stroke-linecap="round" stroke-linejoin="round"></path><path d="M23.6 75.892L23.6 65.608 42.6 65.608 42.6 72.436" fill="none" stroke="#45413c" stroke-linecap="round" stroke-linejoin="round"></path><path d="M48.6,50.108A15.5,15.5,0,0,0,32.351,34.626C24.014,35.018,17.6,42.2,17.6,50.546v1.062a1,1,0,0,0,1,1h5v13h19v-13h5a1,1,0,0,0,1-1Z" fill="#ffe8d1"></path><path d="M33 38.392L33 65.608" fill="none" stroke="#45413c" stroke-linecap="round" stroke-linejoin="round"></path><path d="M32.35,34.626c-8.336.392-14.75,7.574-14.75,15.92v1.062a.977.977,0,0,0,.193.559A15.691,15.691,0,0,1,32.35,38.626,15.492,15.492,0,0,1,48.455,52.1a.968.968,0,0,0,.145-.487v-1.5A15.5,15.5,0,0,0,32.35,34.626Z" fill="#fff5eb"></path><path d="M48.6,50.108A15.5,15.5,0,0,0,32.351,34.626C24.014,35.018,17.6,42.2,17.6,50.546v1.062a1,1,0,0,0,1,1h5v13h19v-13h5a1,1,0,0,0,1-1Z" fill="none" stroke="#45413c" stroke-linecap="round" stroke-linejoin="round"></path><path d="M23.6 48.608L23.6 52.608" fill="none" stroke="#45413c" stroke-linecap="round" stroke-linejoin="round"></path><path d="M29.6,35.108a3.5,3.5,0,0,0,7,0v-3.5h-7Z" fill="#ffcebf"></path><path d="M29.6,35.094a12.173,12.173,0,0,0,7,0V31.608h-7Z" fill="#ffb59e"></path><path d="M29.6,35.108v-3.5h7v3.5a3.5,3.5,0,0,1-7,0Z" fill="none" stroke="#45413c" stroke-linecap="round" stroke-linejoin="round"></path><path d="M29.04,34.432,33,38.392l-2.223,2.593a1,1,0,0,1-1.533-.017l-3.477-4.159a1,1,0,0,1,.271-1.51l1.8-1.028A1,1,0,0,1,29.04,34.432Z" fill="#ff6196" stroke="#45413c" stroke-linecap="round" stroke-linejoin="round"></path><path d="M36.96,34.432,33,38.392l2.223,2.593a1,1,0,0,0,1.533-.017l3.477-4.159a1,1,0,0,0-.271-1.51l-1.8-1.028A1,1,0,0,0,36.96,34.432Z" fill="#ff6196" stroke="#45413c" stroke-linecap="round" stroke-linejoin="round"></path><path d="M47.6,52.608a2,2,0,0,0,2,2H60.1a2.5,2.5,0,0,1,0,5H49.6a7,7,0,0,1-7-7Z" fill="#ffcebf" stroke="#45413c" stroke-linecap="round" stroke-linejoin="round"></path><path d="M29.6,52.608a3,3,0,0,1-6,0h-5a8,8,0,0,0,16,0Z" fill="#ffcebf" stroke="#45413c" stroke-linecap="round" stroke-linejoin="round"></path><path d="M32.967,57.05h0A1.739,1.739,0,0,1,31,55.577l-.822-5.7,2.969-.428,1.445,5.1A1.98,1.98,0,0,1,32.967,57.05Z" fill="#9ceb60" stroke="#45413c" stroke-linecap="round" stroke-linejoin="round"></path><path d="M30.661,42.732a4,4,0,1,0,4.557,4.017,17.423,17.423,0,0,1,4.432-1.29,1,1,0,0,0,.84-1.132l-.283-1.96a1,1,0,0,0-1.132-.847Z" fill="#9ceb60"></path><path d="M27.4,47.807a4.524,4.524,0,0,1,3.757-3.043l9.209-1.328-.154-1.069a1,1,0,0,0-1.132-.847l-8.414,1.212a4,4,0,0,0-3.288,5.013C27.378,47.767,27.389,47.786,27.4,47.807Z" fill="#c8ffa1"></path><path d="M30.661,42.732a4,4,0,1,0,4.557,4.017,17.423,17.423,0,0,1,4.432-1.29,1,1,0,0,0,.84-1.132l-.283-1.96a1,1,0,0,0-1.132-.847Z" fill="none" stroke="#45413c" stroke-linecap="round" stroke-linejoin="round"></path><path d="M33.212,46.406a2,2,0,1,1-2.265-1.694A2,2,0,0,1,33.212,46.406Z" fill="#ffe500" stroke="#45413c" stroke-linecap="round" stroke-linejoin="round"></path><path d="M33.432,58.521l-1.137.166a1.851,1.851,0,0,1-2.1-1.565l-.548-3.757a1.852,1.852,0,0,1,1.566-2.1l1.138-.166a3,3,0,0,1,3.4,2.536l.216,1.484A3,3,0,0,1,33.432,58.521Z" fill="#ffcebf" stroke="#45413c" stroke-linecap="round" stroke-linejoin="round"></path><path d="M23.6 48.608L23.6 52.608" fill="none" stroke="#45413c" stroke-linecap="round" stroke-linejoin="round"></path><path d="M33.1,6.609a11.241,11.241,0,0,1,8.426,3.959l.011-.019A5.62,5.62,0,0,0,42.1,8.108c0-3.866-4.029-7-9-7s-9,3.134-9,7a5.624,5.624,0,0,0,.574,2.463A11.234,11.234,0,0,1,33.1,6.609Z" fill="#ffc44d"></path><path d="M33.1,3.608c4.422,0,8.1,2.48,8.857,5.75a5.527,5.527,0,0,0,.143-1.25c0-3.866-4.029-7-9-7s-9,3.134-9,7a5.525,5.525,0,0,0,.144,1.249C25,6.088,28.679,3.608,33.1,3.608Z" fill="#ffdb94"></path><path d="M33.1,6.609a11.241,11.241,0,0,1,8.426,3.959l.011-.019A5.62,5.62,0,0,0,42.1,8.108c0-3.866-4.029-7-9-7s-9,3.134-9,7a5.624,5.624,0,0,0,.574,2.463A11.234,11.234,0,0,1,33.1,6.609Z" fill="none" stroke="#45413c" stroke-linecap="round" stroke-linejoin="round"></path><path d="M43.1,21.108v-2.5a10,10,0,1,0-20,0v2.5a2,2,0,0,0,0,4c.042,0,.081-.01.123-.012a9.986,9.986,0,0,0,19.754,0c.042,0,.081.012.123.012a2,2,0,0,0,0-4Z" fill="#ffcebf" stroke="#45413c" stroke-linecap="round" stroke-linejoin="round"></path><path d="M26.100 24.865 A1.250 1.250 0 1 0 28.600 24.865 A1.250 1.250 0 1 0 26.100 24.865 Z" fill="#ffb59e"></path><path d="M37.600 24.865 A1.250 1.250 0 1 0 40.100 24.865 A1.250 1.250 0 1 0 37.600 24.865 Z" fill="#ffb59e"></path><path d="M30.092,27.405a4.362,4.362,0,0,0,6.016,0" fill="none" stroke="#45413c" stroke-linecap="round" stroke-linejoin="round"></path><path d="M30.6,21.615a1.63,1.63,0,0,0-3.008,0" fill="none" stroke="#45413c" stroke-linecap="round" stroke-linejoin="round"></path><path d="M38.608,21.608a1.629,1.629,0,0,0-3.008,0" fill="none" stroke="#45413c" stroke-linecap="round" stroke-linejoin="round"></path><path d="M33.1,6.609a11.063,11.063,0,0,0-11,11v2.51a.99.99,0,0,0,.99.99h.025A.993.993,0,0,0,24,20.581c.739-1.391,2.485-4.983,4.729-5.207,2.1-.211,2.352,1.093,4.375,2.274v0l0,0,0,0h0a6.852,6.852,0,0,0,3.5.958,9.146,9.146,0,0,0,3.5-1c.595.257,1.3,2.168,1.39,2.667a1,1,0,0,0,.992.828l.471,0a1.024,1.024,0,0,0,.136.009h.025a.99.99,0,0,0,.99-.99v-2.51A11.066,11.066,0,0,0,33.1,6.609Z" fill="#ffc44d"></path><path d="M33.1,6.609a11.063,11.063,0,0,0-11,11v2.51a.955.955,0,0,0,.027.228,11,11,0,0,1,21.95,0,1.009,1.009,0,0,0,.027-.228v-2.51A11.066,11.066,0,0,0,33.1,6.609Z" fill="#ffdb94"></path><path d="M33.1,6.609a11.063,11.063,0,0,0-11,11v2.51a.99.99,0,0,0,.99.99h.025A.993.993,0,0,0,24,20.581c.739-1.391,2.485-4.983,4.729-5.207,2.1-.211,2.352,1.093,4.375,2.274v0l0,0,0,0h0a6.852,6.852,0,0,0,3.5.958,9.146,9.146,0,0,0,3.5-1c.595.257,1.3,2.168,1.39,2.667a1,1,0,0,0,.992.828l.471,0a1.024,1.024,0,0,0,.136.009h.025a.99.99,0,0,0,.99-.99v-2.51A11.066,11.066,0,0,0,33.1,6.609Z" fill="none" stroke="#45413c" stroke-linecap="round" stroke-linejoin="round"></path><path d="M40.1,17.608a3.9,3.9,0,0,0,.939-1.433.1.1,0,0,0-.009-.1.1.1,0,0,0-.085-.044c-.7.016-3.618-.042-4.845-2.006" fill="none" stroke="#45413c" stroke-linecap="round" stroke-linejoin="round"></path><path d="M39.446,75.892c2.777-9.941,8.78-16.5,20.555-16.5s17.778,6.559,20.555,16.5Z" fill="#fffce5"></path><path d="M39.446,75.892c2.776-9.941,8.78-16.5,20.555-16.5s17.779,6.559,20.555,16.5H79.278c-3.188-8.8-9.059-12.5-19.277-12.5s-16.088,3.7-19.277,12.5Z" fill="#fffef2"></path><path d="M39.446,75.892c2.777-9.941,8.78-16.5,20.555-16.5s17.778,6.559,20.555,16.5" fill="none" stroke="#45413c" stroke-linecap="round" stroke-linejoin="round"></path><path d="M56.5,59.892a3.5,3.5,0,0,0,7,0v-3.5h-7Z" fill="#d18660"></path><path d="M56.5,59.878a12.173,12.173,0,0,0,7,0V56.392h-7Z" fill="#bd704a"></path><path d="M56.5,59.892v-3.5h7v3.5a3.5,3.5,0,0,1-7,0Z" fill="none" stroke="#45413c" stroke-linecap="round" stroke-linejoin="round"></path><path d="M70,44.861v-2.5a10,10,0,1,0-20,0v2.5a2,2,0,0,0,0,4c.042,0,.081-.01.123-.012a9.986,9.986,0,0,0,19.754,0c.042,0,.081.012.123.012a2,2,0,0,0,0-4Z" fill="#d18660"></path><path d="M70,44.861v-2.5a10,10,0,1,0-20,0v2.5a2,2,0,0,0,0,4c.042,0,.081-.01.123-.012a9.986,9.986,0,0,0,19.754,0c.042,0,.081.012.123.012a2,2,0,0,0,0-4Z" fill="none" stroke="#45413c" stroke-linecap="round" stroke-linejoin="round"></path><path d="M53.000 49.111 A1.250 1.250 0 1 0 55.500 49.111 A1.250 1.250 0 1 0 53.000 49.111 Z" fill="#bd704a"></path><path d="M64.500 49.111 A1.250 1.250 0 1 0 67.000 49.111 A1.250 1.250 0 1 0 64.500 49.111 Z" fill="#bd704a"></path><path d="M56.992,51.65a4.36,4.36,0,0,0,6.016,0" fill="none" stroke="#45413c" stroke-linecap="round" stroke-linejoin="round"></path><path d="M65.5,45.861a1.629,1.629,0,0,0-3.008,0" fill="none" stroke="#45413c" stroke-linecap="round" stroke-linejoin="round"></path><path d="M57.492,45.861a1.63,1.63,0,0,0-3.009,0" fill="none" stroke="#45413c" stroke-linecap="round" stroke-linejoin="round"></path><path d="M45.991,48.345a6.014,6.014,0,0,1-.384,7.189,3.518,3.518,0,0,0-.731,3.013,4.53,4.53,0,0,0,3.44,3.439,1.722,1.722,0,0,1,.764.411c.176.256.343.5.509.732A16.292,16.292,0,0,1,56.5,59.765V56.728a10.011,10.011,0,0,1-6.379-7.879c-.042,0-.081.012-.123.012a2,2,0,0,1-.82-3.82l1.009,1.009A1.061,1.061,0,0,0,52,45.3v-2a2.439,2.439,0,0,1,2.439-2.439A2.561,2.561,0,0,0,57,38.3a.411.411,0,0,1,.677-.313,6.427,6.427,0,0,0,5.871,1.585.783.783,0,0,1,.952.764,2.476,2.476,0,0,0,.725,1.75l.025.025a2.562,2.562,0,0,0,1.811.75A1.44,1.44,0,0,1,68.5,44.3v.561a4.278,4.278,0,0,1-.937,2.671l-.538.673a2.4,2.4,0,0,0,1.029,3.739l.686.257A10.009,10.009,0,0,1,63.5,56.707v3.058a16.893,16.893,0,0,1,8.456,4.759c.137-.144.273-.285.418-.438a3.786,3.786,0,0,0-.724-2.857,3.256,3.256,0,0,1,1.024-4.8L73.444,56a4,4,0,0,0,1.45-5.616l-1.373-2.2a1.744,1.744,0,0,1-.082-1.706,10.053,10.053,0,0,0,1.063-4.5,4.247,4.247,0,0,0-2.348-3.8,3.694,3.694,0,0,1-1.983-2.643,6.881,6.881,0,0,0-9.242-5.193L57,31.861l-.959-.16a5.469,5.469,0,0,0-6.334,4.791,3.061,3.061,0,0,1-1.969,2.529,4.672,4.672,0,0,0-2.867,3.147l-.165.6a5.894,5.894,0,0,0,.782,4.822Z" fill="#724f3d"></path><path d="M44.708,45.772l.165-.6a4.674,4.674,0,0,1,2.867-3.147,3.061,3.061,0,0,0,1.969-2.529A5.469,5.469,0,0,1,56.043,34.7l.959.16,3.926-1.51a6.881,6.881,0,0,1,9.243,5.193,3.694,3.694,0,0,0,1.983,2.643,4.248,4.248,0,0,1,2.181,2.621,10.09,10.09,0,0,0,.167-1.822,4.247,4.247,0,0,0-2.348-3.8,3.694,3.694,0,0,1-1.983-2.643,6.881,6.881,0,0,0-9.243-5.193L57,31.861l-.959-.16a5.469,5.469,0,0,0-6.334,4.791,3.061,3.061,0,0,1-1.969,2.529,4.674,4.674,0,0,0-2.867,3.147l-.165.6a5.9,5.9,0,0,0-.014,3.051Z" fill="#a86c4d"></path><path d="M45.991,48.345a6.014,6.014,0,0,1-.384,7.189,3.518,3.518,0,0,0-.731,3.013,4.53,4.53,0,0,0,3.44,3.439,1.722,1.722,0,0,1,.764.411c.176.256.343.5.509.732A16.292,16.292,0,0,1,56.5,59.765V56.728a10.011,10.011,0,0,1-6.379-7.879c-.042,0-.081.012-.123.012a2,2,0,0,1-.82-3.82l1.009,1.009A1.061,1.061,0,0,0,52,45.3v-2a2.439,2.439,0,0,1,2.439-2.439A2.561,2.561,0,0,0,57,38.3a.411.411,0,0,1,.677-.313,6.427,6.427,0,0,0,5.871,1.585.783.783,0,0,1,.952.764,2.476,2.476,0,0,0,.725,1.75l.025.025a2.562,2.562,0,0,0,1.811.75A1.44,1.44,0,0,1,68.5,44.3v.561a4.278,4.278,0,0,1-.937,2.671l-.538.673a2.4,2.4,0,0,0,1.029,3.739l.686.257A10.009,10.009,0,0,1,63.5,56.707v3.058a16.893,16.893,0,0,1,8.456,4.759c.137-.144.273-.285.418-.438a3.786,3.786,0,0,0-.724-2.857,3.256,3.256,0,0,1,1.024-4.8L73.444,56a4,4,0,0,0,1.45-5.616l-1.373-2.2a1.744,1.744,0,0,1-.082-1.706,10.053,10.053,0,0,0,1.063-4.5,4.247,4.247,0,0,0-2.348-3.8,3.694,3.694,0,0,1-1.983-2.643,6.881,6.881,0,0,0-9.242-5.193L57,31.861l-.959-.16a5.469,5.469,0,0,0-6.334,4.791,3.061,3.061,0,0,1-1.969,2.529,4.672,4.672,0,0,0-2.867,3.147l-.165.6a5.894,5.894,0,0,0,.782,4.822Z" fill="none" stroke="#45413c" stroke-linecap="round" stroke-linejoin="round"></path><path d="M68.74,52.2s2.885.493,2.76,2.16-3.792,1.542-4,4" fill="none" stroke="#45413c" stroke-linecap="round" stroke-linejoin="round"></path><path d="M49.000 50.361 A1 2 0 1 0 51.000 50.361 A1 2 0 1 0 49.000 50.361 Z" fill="#00dba8" stroke="#45413c" stroke-linecap="round" stroke-linejoin="round"></path><path d="M11 75.892L89 75.892" fill="none" stroke="#45413c" stroke-linecap="round" stroke-linejoin="round"></path><path d="M6.5 75.892L9 75.892" fill="none" stroke="#45413c" stroke-linecap="round" stroke-linejoin="round"></path><path d="M91 75.892L93.5 75.892" fill="none" stroke="#45413c" stroke-linecap="round" stroke-linejoin="round"></path></g></svg>