<svg xmlns="http://www.w3.org/2000/svg" version="1.1" xmlns:xlink="http://www.w3.org/1999/xlink" xmlns:svgjs="http://svgjs.com/svgjs" viewBox="0 0 160 160" width="160" height="160"><g transform="matrix(1.6,0,0,1.6,0,0)"><path d="M91.722,51.433a40,40,0,1,0-76.436,16.5H88.158A39.844,39.844,0,0,0,91.722,51.433Z" fill="#c7f0ff"></path><path d="M15.286,67.933a40,40,0,0,0,72.872,0Z" fill="#f0d3a8"></path><path d="M12.722 67.933L90.722 67.933" fill="none" stroke="#45413c" stroke-linecap="round" stroke-linejoin="round"></path><path d="M8.222 67.933L10.722 67.933" fill="none" stroke="#45413c" stroke-linecap="round" stroke-linejoin="round"></path><path d="M92.722 67.933L95.222 67.933" fill="none" stroke="#45413c" stroke-linecap="round" stroke-linejoin="round"></path><path d="M46.587 81.460 A11.391 1.899 0 1 0 69.369 81.460 A11.391 1.899 0 1 0 46.587 81.460 Z" fill="#45413c" opacity=".15"></path><path d="M67.882,76.974V72.815h3.153A1.77,1.77,0,0,0,72.8,71.047V60.2a1.77,1.77,0,0,0-1.768-1.768H67.882V54.274h3.785a5.3,5.3,0,0,1,5.3,5.3V71.678a5.3,5.3,0,0,1-5.3,5.3Z" fill="#d9fdff" stroke="#45413c" stroke-linecap="round" stroke-linejoin="round"></path><path d="M48.072 49.239H67.88300000000001V76.97399999999999H48.072z" fill="#ffe500"></path><path d="M48.072 68.169H67.88300000000001V76.97399999999999H48.072z" fill="#ebcb00"></path><path d="M48.072 49.239H67.88300000000001V76.97399999999999H48.072z" fill="none" stroke="#45413c" stroke-linecap="round" stroke-linejoin="round"></path><path d="M68.3,76.974H47.656a.9.9,0,0,0-.905.905v1.88a.3.3,0,0,0,.3.3H68.906a.3.3,0,0,0,.3-.3v-1.88A.9.9,0,0,0,68.3,76.974Z" fill="#d9fdff" stroke="#45413c" stroke-linecap="round" stroke-linejoin="round"></path><path d="M52.78,74.773H51.727a1.014,1.014,0,0,1-1.014-1.015V52.321H53.8V73.758A1.015,1.015,0,0,1,52.78,74.773Z" fill="#fff48c"></path><path d="M52.78,74.773H51.727a1.014,1.014,0,0,1-1.014-1.015V68.169H53.8v5.589A1.015,1.015,0,0,1,52.78,74.773Z" fill="#ffe500"></path><path d="M52.78,74.773H51.727a1.014,1.014,0,0,1-1.014-1.015V52.321H53.8V73.758A1.015,1.015,0,0,1,52.78,74.773Z" fill="none" stroke="#45413c" stroke-linecap="round" stroke-linejoin="round"></path><path d="M64.226,74.773H63.174a1.014,1.014,0,0,1-1.015-1.014V52.321h3.082V73.758A1.014,1.014,0,0,1,64.226,74.773Z" fill="#fff48c"></path><path d="M64.226,74.773H63.174a1.014,1.014,0,0,1-1.015-1.014v-5.59h3.082v5.589A1.014,1.014,0,0,1,64.226,74.773Z" fill="#ffe500"></path><path d="M64.226,74.773H63.174a1.014,1.014,0,0,1-1.015-1.014V52.321h3.082V73.758A1.014,1.014,0,0,1,64.226,74.773Z" fill="none" stroke="#45413c" stroke-linecap="round" stroke-linejoin="round"></path><path d="M58.5,74.773H57.45a1.014,1.014,0,0,1-1.014-1.015V52.321h3.082V73.758A1.015,1.015,0,0,1,58.5,74.773Z" fill="#fff48c"></path><path d="M58.5,74.773H57.45a1.014,1.014,0,0,1-1.014-1.015V68.169h3.082v5.589A1.015,1.015,0,0,1,58.5,74.773Z" fill="#ffe500"></path><path d="M58.5,74.773H57.45a1.014,1.014,0,0,1-1.014-1.015V52.321h3.082V73.758A1.015,1.015,0,0,1,58.5,74.773Z" fill="none" stroke="#45413c" stroke-linecap="round" stroke-linejoin="round"></path><path d="M45.616,51.5v7.547a2.548,2.548,0,0,0,2.548,2.549h0a2.549,2.549,0,0,0,2.549-2.549V55.629a2.613,2.613,0,0,0,2.612,2.612h3.58a2.613,2.613,0,0,0,2.613-2.612v2.342a2.861,2.861,0,0,0,2.861,2.862h0a2.862,2.862,0,0,0,2.862-2.862l.01-3.309h-.02l-.011.561a2.539,2.539,0,0,0,2.538,2.538h0A2.538,2.538,0,0,0,70.3,55.223V51.5a2.257,2.257,0,0,0-2.257-2.258H47.873A2.257,2.257,0,0,0,45.616,51.5Z" fill="#ffffff"></path><path d="M68.039,52.321H47.874a2.257,2.257,0,0,0-2.258,2.258v8.262a2.549,2.549,0,1,0,5.1,0V55.629a2.613,2.613,0,0,0,2.612,2.612h3.58a2.613,2.613,0,0,0,2.613-2.612v2.342a2.862,2.862,0,1,0,5.723,0l.007-2.472a2.531,2.531,0,0,0,5.048-.276v-.644A2.257,2.257,0,0,0,68.039,52.321Z" fill="#e8f4fa"></path><path d="M45.616,51.5V62.841a2.549,2.549,0,1,0,5.1,0V55.629a2.613,2.613,0,0,0,2.612,2.612h3.58a2.613,2.613,0,0,0,2.613-2.612v2.342a2.862,2.862,0,1,0,5.723,0l.01-3.309h-.02l-.011.561a2.538,2.538,0,0,0,5.076,0V51.5a2.257,2.257,0,0,0-2.257-2.258H47.873A2.257,2.257,0,0,0,45.616,51.5Z" fill="none" stroke="#45413c" stroke-linecap="round" stroke-linejoin="round"></path><path d="M59.518,37.3c-2.859-3.485-8.455-5.764-9.25-6.075L49.06,34.091c.636.348,4.561,2.583,6.286,5.63,2.3,4.066,1.4,9.518,1.4,9.518h6.517A17.548,17.548,0,0,0,59.518,37.3Z" fill="#ffe500" stroke="#45413c" stroke-linecap="round" stroke-linejoin="round"></path><path d="M38.951,31.113l8.8,3.7a.923.923,0,0,0,1.209-.493l1.407-3.345a.924.924,0,0,0-.493-1.21l-8.8-3.7a8.811,8.811,0,0,1-4.592-4.445h0a8.814,8.814,0,0,0-4.592-4.445L11.843,8.74A2.2,2.2,0,0,0,8.959,9.916L4.95,19.446A2.2,2.2,0,0,0,6.125,22.33l20.049,8.435a8.815,8.815,0,0,0,6.388.174h0A8.817,8.817,0,0,1,38.951,31.113Z" fill="#9ceb60"></path><path d="M47.753,34.816a.91.91,0,0,0,1.117-.358l.054-.129a.923.923,0,0,0-.493-1.209l-8.8-3.7a8.811,8.811,0,0,1-4.592-4.445,8.816,8.816,0,0,0-4.592-4.446L10.4,12.092a2.195,2.195,0,0,0-2.73.894L4.95,19.446A2.2,2.2,0,0,0,6.126,22.33l20.048,8.435a8.815,8.815,0,0,0,6.388.174,8.817,8.817,0,0,1,6.389.174Z" fill="#6dd627"></path><path d="M38.951,31.113l8.8,3.7a.923.923,0,0,0,1.209-.493l1.407-3.345a.924.924,0,0,0-.493-1.21l-8.8-3.7a8.811,8.811,0,0,1-4.592-4.445h0a8.814,8.814,0,0,0-4.592-4.445L11.843,8.74A2.2,2.2,0,0,0,8.959,9.916L4.95,19.446A2.2,2.2,0,0,0,6.125,22.33l20.049,8.435a8.815,8.815,0,0,0,6.388.174h0A8.817,8.817,0,0,1,38.951,31.113Z" fill="none" stroke="#45413c" stroke-linecap="round" stroke-linejoin="round"></path><path d="M45.109,33.7l2.644,1.112a.923.923,0,0,0,1.209-.493l1.407-3.345a.924.924,0,0,0-.493-1.21l-2.643-1.112Z" fill="#ff866e" stroke="#45413c" stroke-linecap="round" stroke-linejoin="round"></path><path d="M12.007 11.062H26.750999999999998V28.755000000000003H12.007z" fill="#ff866e" transform="translate(-6.486 30.051) rotate(-67.183)"></path><path d="M13.125 12.744H24.219V30.437H13.125z" fill="#ff6242" transform="translate(-8.47 30.429) rotate(-67.183)"></path><path d="M12.007 11.062H26.750999999999998V28.755000000000003H12.007z" fill="none" stroke="#45413c" stroke-linecap="round" stroke-linejoin="round" transform="translate(-6.486 30.051) rotate(-67.183)"></path><path d="M16.088 17.192H25.777V23.932000000000002H16.088z" fill="#fff48c" stroke="#45413c" stroke-linecap="round" stroke-linejoin="round" transform="translate(-6.138 31.882) rotate(-67.182)"></path><path d="M17.375 13.81L13.618 22.74" fill="none" stroke="#45413c" stroke-linecap="round" stroke-linejoin="round"></path><path d="M14.29 15.711L12.82 19.205" fill="none" stroke="#45413c" stroke-linecap="round" stroke-linejoin="round"></path></g></svg>