<svg xmlns="http://www.w3.org/2000/svg" version="1.1" xmlns:xlink="http://www.w3.org/1999/xlink" xmlns:svgjs="http://svgjs.com/svgjs" viewBox="0 0 160 160" width="160" height="160"><g transform="matrix(1.6,0,0,1.6,0,0)"><path d="M10.000 50.000 A40.000 40.000 0 1 0 90.000 50.000 A40.000 40.000 0 1 0 10.000 50.000 Z" fill="#c7f0ff" stroke="#c7f0ff" stroke-miterlimit="10"></path><path d="M60.525 71.202L74.432 47.004" fill="none" stroke="#45413c" stroke-linecap="round" stroke-linejoin="round"></path><path d="M54.097 71.202 A6.428 6.428 0 1 0 66.953 71.202 A6.428 6.428 0 1 0 54.097 71.202 Z" fill="#ff866e" stroke="#45413c" stroke-linecap="round" stroke-linejoin="round"></path><path d="M74.432 47.004L50 25.033" fill="none" stroke="#45413c" stroke-linecap="round" stroke-linejoin="round"></path><path d="M88.339 71.202L74.432 47.004" fill="none" stroke="#45413c" stroke-linecap="round" stroke-linejoin="round"></path><path d="M68.004 47.004 A6.428 6.428 0 1 0 80.860 47.004 A6.428 6.428 0 1 0 68.004 47.004 Z" fill="#ffaa54" stroke="#45413c" stroke-linecap="round" stroke-linejoin="round"></path><path d="M81.911 71.202 A6.428 6.428 0 1 0 94.767 71.202 A6.428 6.428 0 1 0 81.911 71.202 Z" fill="#ff866e" stroke="#45413c" stroke-linecap="round" stroke-linejoin="round"></path><path d="M39.475 71.202L25.568 47.004" fill="none" stroke="#45413c" stroke-linecap="round" stroke-linejoin="round"></path><path d="M33.047 71.202 A6.428 6.428 0 1 0 45.903 71.202 A6.428 6.428 0 1 0 33.047 71.202 Z" fill="#ff866e" stroke="#45413c" stroke-linecap="round" stroke-linejoin="round"></path><path d="M25.568 47.004L50 25.033" fill="none" stroke="#45413c" stroke-linecap="round" stroke-linejoin="round"></path><path d="M11.661 71.202L25.568 47.004" fill="none" stroke="#45413c" stroke-linecap="round" stroke-linejoin="round"></path><path d="M43.572 25.033 A6.428 6.428 0 1 0 56.428 25.033 A6.428 6.428 0 1 0 43.572 25.033 Z" fill="#ffe500" stroke="#45413c" stroke-linecap="round" stroke-linejoin="round"></path><path d="M19.140 47.004 A6.428 6.428 0 1 0 31.996 47.004 A6.428 6.428 0 1 0 19.140 47.004 Z" fill="#ffaa54" stroke="#45413c" stroke-linecap="round" stroke-linejoin="round"></path><path d="M5.233 71.202 A6.428 6.428 0 1 0 18.089 71.202 A6.428 6.428 0 1 0 5.233 71.202 Z" fill="#ff866e" stroke="#45413c" stroke-linecap="round" stroke-linejoin="round"></path></g></svg>