<svg xmlns="http://www.w3.org/2000/svg" version="1.1" xmlns:xlink="http://www.w3.org/1999/xlink" xmlns:svgjs="http://svgjs.com/svgjs" viewBox="0 0 160 160" width="160" height="160"><g transform="matrix(1.6,0,0,1.6,0,0)"><path d="M10.084 51.360 A40.000 40.000 0 1 0 90.084 51.360 A40.000 40.000 0 1 0 10.084 51.360 Z" fill="#c7f0ff" stroke="#c7f0ff" stroke-miterlimit="10"></path><path d="M6.275 85.021 A21.227 1.897 0 1 0 48.729 85.021 A21.227 1.897 0 1 0 6.275 85.021 Z" fill="#45413c" opacity=".15"></path><path d="M50.538 85.021 A21.227 1.897 0 1 0 92.992 85.021 A21.227 1.897 0 1 0 50.538 85.021 Z" fill="#45413c" opacity=".15"></path><path d="M36.726,27.319a1.485,1.485,0,0,0,1.485,1.486h2.971a1.485,1.485,0,0,0,1.485-1.486v-8.28H36.726Z" fill="#e0e0e0"></path><path d="M42.667,23.731a8.956,8.956,0,0,1-5.941,0V19.039h5.941Z" fill="#bdbec0"></path><path d="M36.726,27.319a1.485,1.485,0,0,0,1.485,1.486h2.971a1.485,1.485,0,0,0,1.485-1.486v-8.28H36.726Z" fill="none" stroke="#45413c" stroke-linecap="round" stroke-linejoin="round"></path><path d="M27.293,46.575a1.486,1.486,0,0,1-1.747-1.166l-1.134-5.674a2.971,2.971,0,0,1,1.713-3.3l11.1-6.009.583,2.913L28.4,38.6a1.486,1.486,0,0,0-.857,1.65l.915,4.577A1.486,1.486,0,0,1,27.293,46.575Z" fill="#adc4d9" stroke="#45413c" stroke-linecap="round" stroke-linejoin="round"></path><path d="M52.1,46.575a1.487,1.487,0,0,0,1.748-1.166l1.134-5.674a2.973,2.973,0,0,0-1.713-3.3l-11.1-6.009-.582,2.913,9.4,5.261a1.484,1.484,0,0,1,.856,1.65l-.914,4.577A1.486,1.486,0,0,0,52.1,46.575Z" fill="#adc4d9" stroke="#45413c" stroke-linecap="round" stroke-linejoin="round"></path><path d="M34.848 31.446 A4.848 4.848 0 1 0 44.544 31.446 A4.848 4.848 0 1 0 34.848 31.446 Z" fill="#ffe500"></path><path d="M39.7,29.073a4.851,4.851,0,0,1,4.689,3.611,4.849,4.849,0,1,0-9.377,0A4.85,4.85,0,0,1,39.7,29.073Z" fill="#fff48c"></path><path d="M34.848 31.446 A4.848 4.848 0 1 0 44.544 31.446 A4.848 4.848 0 1 0 34.848 31.446 Z" fill="none" stroke="#45413c" stroke-linecap="round" stroke-linejoin="round"></path><path d="M93.779,20.718A1.1,1.1,0,0,0,93,19.371L75.336,14.638a10.649,10.649,0,0,0-5.8.082,1.1,1.1,0,0,0-.748.771L64.972,29.726a1.1,1.1,0,0,0,.263,1.042,10.655,10.655,0,0,0,4.984,2.972l17.665,4.732a1.1,1.1,0,0,0,1.347-.778Z" fill="#ffe500"></path><path d="M77.021,24.3a10.774,10.774,0,0,0-10.337,7.741,10.672,10.672,0,0,0,3.535,1.7L87.3,38.314A10.778,10.778,0,0,0,77.021,24.3Z" fill="#ebcb00"></path><path d="M93,19.371,75.336,14.638a10.646,10.646,0,0,0-5.8.082,1.1,1.1,0,0,0-.749.77l-.915,3.415a10.645,10.645,0,0,1,6.4-.28l17.665,4.733a1.1,1.1,0,0,1,.778,1.347l1.068-3.987A1.1,1.1,0,0,0,93,19.371Z" fill="#fff48c"></path><path d="M93.779,20.718A1.1,1.1,0,0,0,93,19.371L75.336,14.638a10.649,10.649,0,0,0-5.8.082,1.1,1.1,0,0,0-.748.771L64.972,29.726a1.1,1.1,0,0,0,.263,1.042,10.655,10.655,0,0,0,4.984,2.972l17.665,4.732a1.1,1.1,0,0,0,1.347-.778Z" fill="none" stroke="#45413c" stroke-linecap="round" stroke-linejoin="round"></path><path d="M43.157 9.821H50.583999999999996V24.674999999999997H43.157z" fill="#e0e0e0" transform="translate(18.081 58.058) rotate(-75.002)"></path><path d="M46.429 7.31H48.657000000000004V22.163999999999998H46.429z" fill="#ffffff" transform="translate(21.004 56.847) rotate(-75.002)"></path><path d="M43.157 9.821H50.583999999999996V24.674999999999997H43.157z" fill="none" stroke="#45413c" stroke-linecap="round" stroke-linejoin="round" transform="translate(18.081 58.058) rotate(-75.002)"></path><path d="M33.012 15.326 A6.684 6.684 0 1 0 46.380 15.326 A6.684 6.684 0 1 0 33.012 15.326 Z" fill="#ffe500"></path><path d="M40.657,11.739a6.687,6.687,0,0,0-7.641,3.335,6.684,6.684,0,1,1,12.592,3.374A6.687,6.687,0,0,0,40.657,11.739Z" fill="#fff48c"></path><path d="M33.012 15.326 A6.684 6.684 0 1 0 46.380 15.326 A6.684 6.684 0 1 0 33.012 15.326 Z" fill="none" stroke="#45413c" stroke-linecap="round" stroke-linejoin="round"></path><path d="M36.725 15.326 A2.971 2.971 0 1 0 42.667 15.326 A2.971 2.971 0 1 0 36.725 15.326 Z" fill="#87898c"></path><path d="M39.5,16.043a2.972,2.972,0,0,0,3.141-1.08,2.97,2.97,0,1,1-5.321-1.426A2.971,2.971,0,0,0,39.5,16.043Z" fill="#656769"></path><path d="M36.725 15.326 A2.971 2.971 0 1 0 42.667 15.326 A2.971 2.971 0 1 0 36.725 15.326 Z" fill="none" stroke="#45413c" stroke-linecap="round" stroke-linejoin="round"></path><path d="M53.377,25.911l11.772,3.154,3.46-12.913L56.836,13a1.1,1.1,0,0,0-1.347.778L52.6,24.564A1.1,1.1,0,0,0,53.377,25.911Z" fill="#ffe500"></path><path d="M56.836,13a1.1,1.1,0,0,0-1.347.778l-.925,3.453a1.1,1.1,0,0,1,1.347-.778l11.773,3.154.925-3.453Z" fill="#fff48c"></path><path d="M53.377,25.911l11.772,3.154,3.46-12.913L56.836,13a1.1,1.1,0,0,0-1.347.778L52.6,24.564A1.1,1.1,0,0,0,53.377,25.911Z" fill="none" stroke="#45413c" stroke-linecap="round" stroke-linejoin="round"></path><path d="M72.445,75.505H85.008a95.22,95.22,0,0,0-1.9-36.97H70.938A127.226,127.226,0,0,1,72.445,75.505Z" fill="#ffe500"></path><path d="M84.385,44.289Q83.841,41.4,83.1,38.536H70.938q.68,3.627,1.15,7.256a11.8,11.8,0,0,0,12.3-1.5Z" fill="#ebcb00"></path><path d="M72.445,75.505H85.008a95.22,95.22,0,0,0-1.9-36.97H70.938A127.226,127.226,0,0,1,72.445,75.505Z" fill="none" stroke="#45413c" stroke-linecap="round" stroke-linejoin="round"></path><path d="M68.062 35.075 A8.959 8.959 0 1 0 85.980 35.075 A8.959 8.959 0 1 0 68.062 35.075 Z" fill="#ffe500"></path><path d="M77.021,30.1a8.962,8.962,0,0,0-8.737,6.969,8.959,8.959,0,1,1,17.474,0A8.962,8.962,0,0,0,77.021,30.1Z" fill="#fff48c"></path><path d="M68.062 35.075 A8.959 8.959 0 1 0 85.980 35.075 A8.959 8.959 0 1 0 68.062 35.075 Z" fill="none" stroke="#45413c" stroke-linecap="round" stroke-linejoin="round"></path><path d="M74.050 35.075 A2.971 2.971 0 1 0 79.992 35.075 A2.971 2.971 0 1 0 74.050 35.075 Z" fill="#87898c"></path><path d="M77.021,35.817a2.971,2.971,0,0,0,2.754-1.856,2.971,2.971,0,1,1-5.508,0A2.971,2.971,0,0,0,77.021,35.817Z" fill="#656769"></path><path d="M74.050 35.075 A2.971 2.971 0 1 0 79.992 35.075 A2.971 2.971 0 1 0 74.050 35.075 Z" fill="none" stroke="#45413c" stroke-linecap="round" stroke-linejoin="round"></path><path d="M75.921 29.110 A1.100 1.100 0 1 0 78.121 29.110 A1.100 1.100 0 1 0 75.921 29.110 Z" fill="#45413c"></path><path d="M70.755 32.092 A1.100 1.100 0 1 0 72.955 32.092 A1.100 1.100 0 1 0 70.755 32.092 Z" fill="#45413c"></path><path d="M70.755 38.057 A1.100 1.100 0 1 0 72.955 38.057 A1.100 1.100 0 1 0 70.755 38.057 Z" fill="#45413c"></path><path d="M75.921 41.040 A1.100 1.100 0 1 0 78.121 41.040 A1.100 1.100 0 1 0 75.921 41.040 Z" fill="#45413c"></path><path d="M81.087 38.057 A1.100 1.100 0 1 0 83.287 38.057 A1.100 1.100 0 1 0 81.087 38.057 Z" fill="#45413c"></path><path d="M81.087 32.092 A1.100 1.100 0 1 0 83.287 32.092 A1.100 1.100 0 1 0 81.087 32.092 Z" fill="#45413c"></path><path d="M82.164,63.79a.129.129,0,0,0-.018-.027,5.132,5.132,0,0,0-1.506-1.752,65.489,65.489,0,0,0-27.167-11.66c-13.494-2.1-12.123-1.1-21.209,6.781a3.638,3.638,0,0,1-1.577.8c-.049.047-17.752,2.173-17.819,2.181a4.337,4.337,0,0,0-3.548,2.8l-.535,1.428-.464,1.226L7.278,68.678a1.683,1.683,0,0,0,.158,1.4,5.24,5.24,0,0,0,4.494,2.54h2.418a6.124,6.124,0,0,1,12.247,0H64.284a6.124,6.124,0,0,1,12.247,0h3.662a2.565,2.565,0,0,0,2.567-2.567C82.76,65.981,82.906,65.206,82.164,63.79ZM36.337,58.507a.676.676,0,0,1-.455-1.174,43.611,43.611,0,0,1,5.931-4.678c2.926-1.735,11.432.394,11.432.394v5.458Zm19.475,0V53.768c8.609,2.662,8.98,2.5,8.98,3.6C64.792,58.843,63.807,58.507,55.812,58.507Z" fill="#ff6242"></path><path d="M48.75 61.07L50.676 61.07" fill="none" stroke="#45413c" stroke-linecap="round" stroke-linejoin="round"></path><path d="M53.243,58.5V63c0,3.848-3.209,9.624-3.209,9.624" fill="none" stroke="#45413c" stroke-linecap="round" stroke-linejoin="round"></path><path d="M55.812 53.768L55.812 58.507 53.245 58.507 53.245 53.049 55.812 53.768z" fill="#656769" stroke="#45413c" stroke-linecap="round" stroke-linejoin="round"></path><path d="M8.791,64.318a4.589,4.589,0,0,1,3.027-1.694l18.415-2.232a3.846,3.846,0,0,0,2.059-.913l7.224-6.261a7.32,7.32,0,0,1,4.808-1.774A66.5,66.5,0,0,1,82.165,63.788v0a.129.129,0,0,0-.018-.027,5.132,5.132,0,0,0-1.506-1.752,65.489,65.489,0,0,0-27.167-11.66c-13.494-2.1-12.123-1.1-21.209,6.781a3.638,3.638,0,0,1-1.577.8c-.049.047-17.752,2.173-17.819,2.181a4.337,4.337,0,0,0-3.548,2.8l-.535,1.428" fill="#ff866e"></path><path d="M31.549,57.616A10.847,10.847,0,0,0,30.139,63v9.626" fill="none" stroke="#45413c" stroke-linecap="round" stroke-linejoin="round"></path><path d="M82.164,63.79a.129.129,0,0,0-.018-.027,5.132,5.132,0,0,0-1.506-1.752,65.489,65.489,0,0,0-27.167-11.66c-13.494-2.1-12.123-1.1-21.209,6.781a3.638,3.638,0,0,1-1.577.8c-.049.047-17.752,2.173-17.819,2.181a4.337,4.337,0,0,0-3.548,2.8l-.535,1.428-.464,1.226L7.278,68.678a1.683,1.683,0,0,0,.158,1.4,5.24,5.24,0,0,0,4.494,2.54h2.418a6.124,6.124,0,0,1,12.247,0H64.284a6.124,6.124,0,0,1,12.247,0h3.662a2.565,2.565,0,0,0,2.567-2.567C82.76,65.981,82.906,65.206,82.164,63.79ZM36.337,58.507a.676.676,0,0,1-.455-1.174,43.611,43.611,0,0,1,5.931-4.678c2.926-1.735,11.432.394,11.432.394v5.458Zm19.475,0V53.768c8.609,2.662,8.98,2.5,8.98,3.6C64.792,58.843,63.807,58.507,55.812,58.507Z" fill="none" stroke="#45413c" stroke-linecap="round" stroke-linejoin="round"></path><path d="M47.983,78.12a5.5,5.5,0,0,1-5.5,5.5h-30.8a5.5,5.5,0,1,1,0-11h30.8A5.5,5.5,0,0,1,47.983,78.12Z" fill="#f0f0f0"></path><path d="M11.683,74.966h30.8a5.5,5.5,0,0,1,5.374,4.327,5.5,5.5,0,0,0-5.374-6.673h-30.8a5.5,5.5,0,0,0-5.374,6.673A5.5,5.5,0,0,1,11.683,74.966Z" fill="#bdbec0"></path><path d="M47.983,78.12a5.5,5.5,0,0,1-5.5,5.5h-30.8a5.5,5.5,0,1,1,0-11h30.8A5.5,5.5,0,0,1,47.983,78.12Z" fill="none" stroke="#45413c" stroke-linecap="round" stroke-linejoin="round"></path><path d="M8.383 78.120 A3.300 3.300 0 1 0 14.983 78.120 A3.300 3.300 0 1 0 8.383 78.120 Z" fill="#adc4d9"></path><path d="M11.683,77.166a3.3,3.3,0,0,1,3.085,2.127,3.3,3.3,0,1,0-6.17,0A3.3,3.3,0,0,1,11.683,77.166Z" fill="#c0dceb"></path><path d="M8.383 78.120 A3.300 3.300 0 1 0 14.983 78.120 A3.300 3.300 0 1 0 8.383 78.120 Z" fill="none" stroke="#45413c" stroke-linecap="round" stroke-linejoin="round"></path><path d="M23.783 78.120 A3.300 3.300 0 1 0 30.383 78.120 A3.300 3.300 0 1 0 23.783 78.120 Z" fill="#adc4d9"></path><path d="M27.083,77.166a3.3,3.3,0,0,1,3.085,2.127,3.3,3.3,0,1,0-6.17,0A3.3,3.3,0,0,1,27.083,77.166Z" fill="#c0dceb"></path><path d="M23.783 78.120 A3.300 3.300 0 1 0 30.383 78.120 A3.300 3.300 0 1 0 23.783 78.120 Z" fill="none" stroke="#45413c" stroke-linecap="round" stroke-linejoin="round"></path><path d="M39.183 78.120 A3.300 3.300 0 1 0 45.783 78.120 A3.300 3.300 0 1 0 39.183 78.120 Z" fill="#adc4d9"></path><path d="M42.483,77.166a3.3,3.3,0,0,1,3.085,2.127,3.3,3.3,0,1,0-6.17,0A3.3,3.3,0,0,1,42.483,77.166Z" fill="#c0dceb"></path><path d="M39.183 78.120 A3.300 3.300 0 1 0 45.783 78.120 A3.300 3.300 0 1 0 39.183 78.120 Z" fill="none" stroke="#45413c" stroke-linecap="round" stroke-linejoin="round"></path><path d="M93.083,78.12a5.5,5.5,0,0,1-5.5,5.5h-30.8a5.5,5.5,0,0,1,0-11h30.8A5.5,5.5,0,0,1,93.083,78.12Z" fill="#f0f0f0"></path><path d="M56.783,74.966h30.8a5.5,5.5,0,0,1,5.374,4.327,5.5,5.5,0,0,0-5.374-6.673h-30.8a5.5,5.5,0,0,0-5.374,6.673A5.5,5.5,0,0,1,56.783,74.966Z" fill="#bdbec0"></path><path d="M93.083,78.12a5.5,5.5,0,0,1-5.5,5.5h-30.8a5.5,5.5,0,0,1,0-11h30.8A5.5,5.5,0,0,1,93.083,78.12Z" fill="none" stroke="#45413c" stroke-linecap="round" stroke-linejoin="round"></path><path d="M53.483 78.120 A3.300 3.300 0 1 0 60.083 78.120 A3.300 3.300 0 1 0 53.483 78.120 Z" fill="#adc4d9"></path><path d="M56.783,77.166a3.3,3.3,0,0,1,3.085,2.127,3.3,3.3,0,1,0-6.17,0A3.3,3.3,0,0,1,56.783,77.166Z" fill="#c0dceb"></path><path d="M53.483 78.120 A3.300 3.300 0 1 0 60.083 78.120 A3.300 3.300 0 1 0 53.483 78.120 Z" fill="none" stroke="#45413c" stroke-linecap="round" stroke-linejoin="round"></path><path d="M68.883 78.120 A3.300 3.300 0 1 0 75.483 78.120 A3.300 3.300 0 1 0 68.883 78.120 Z" fill="#adc4d9"></path><path d="M72.183,77.166a3.3,3.3,0,0,1,3.085,2.127,3.3,3.3,0,1,0-6.17,0A3.3,3.3,0,0,1,72.183,77.166Z" fill="#c0dceb"></path><path d="M68.883 78.120 A3.300 3.300 0 1 0 75.483 78.120 A3.300 3.300 0 1 0 68.883 78.120 Z" fill="none" stroke="#45413c" stroke-linecap="round" stroke-linejoin="round"></path><path d="M84.283 78.120 A3.300 3.300 0 1 0 90.883 78.120 A3.300 3.300 0 1 0 84.283 78.120 Z" fill="#adc4d9"></path><path d="M87.583,77.166a3.3,3.3,0,0,1,3.085,2.127,3.3,3.3,0,1,0-6.17,0A3.3,3.3,0,0,1,87.583,77.166Z" fill="#c0dceb"></path><path d="M84.283 78.120 A3.300 3.300 0 1 0 90.883 78.120 A3.300 3.300 0 1 0 84.283 78.120 Z" fill="none" stroke="#45413c" stroke-linecap="round" stroke-linejoin="round"></path></g></svg>