<svg xmlns="http://www.w3.org/2000/svg" version="1.1" xmlns:xlink="http://www.w3.org/1999/xlink" xmlns:svgjs="http://svgjs.com/svgjs" viewBox="0 0 160 160" width="160" height="160"><g transform="matrix(1.6,0,0,1.6,0,0)"><path d="M8.732 50.000 A40.000 40.000 0 1 0 88.732 50.000 A40.000 40.000 0 1 0 8.732 50.000 Z" fill="#c7f0ff" stroke="#c7f0ff" stroke-miterlimit="10"></path><path d="M66.476,71.617c0,.882-11.1,1.6-24.806,1.6s-24.806-.715-24.806-1.6,11.105-1.6,24.806-1.6S66.476,70.734,66.476,71.617Z" fill="#45413c" opacity=".15"></path><path d="M65.109,57.89H18.737l6.547-24.005a3.2,3.2,0,0,1,3.083-2.354H54.726A3.226,3.226,0,0,1,57.809,33.8Z" fill="#c7f0ff" stroke="#45413c" stroke-linecap="round" stroke-linejoin="round"></path><path d="M15.587 57.890 L68.305 57.890 L68.305 70.671 L15.587 70.671 Z" fill="#c7f0ff"></path><path d="M67.305,57.89H16.587a1,1,0,0,0-1,1v2.994a1.331,1.331,0,0,1,1.331-1.331H66.974a1.332,1.332,0,0,1,1.331,1.331V58.89A1,1,0,0,0,67.305,57.89Z" fill="#c7f0ff"></path><path d="M50.732 25.141H53.928V31.531H50.732z" fill="#656769"></path><path d="M44.342 17.154 L60.317 17.154 L60.317 25.142 L44.342 25.142 Z" fill="#00b8f0"></path><path d="M44.342,65.08a2.4,2.4,0,1,1-2.4-2.4A2.395,2.395,0,0,1,44.342,65.08Z" fill="#e0e0e0"></path><path d="M41.946,40.318H30.764V25.225a.665.665,0,0,1,.848-.64l4.56,1.3a.648.648,0,0,0,.365,0l4.561-1.3a.665.665,0,0,1,.848.64Z" fill="#ffffff"></path><path d="M79.352,74.665c0,.882-6.437,1.6-14.378,1.6S50.6,75.547,50.6,74.665s6.436-1.6,14.377-1.6S79.352,73.782,79.352,74.665Z" fill="#45413c" opacity=".15"></path><path d="M15.587 57.890 L68.305 57.890 L68.305 70.671 L15.587 70.671 Z" fill="none" stroke="#45413c" stroke-linecap="round" stroke-linejoin="round"></path><path d="M50.732 25.141H53.928V31.531H50.732z" fill="none" stroke="#45413c" stroke-linecap="round" stroke-linejoin="round"></path><path d="M44.342,65.08a2.4,2.4,0,1,1-2.4-2.4A2.395,2.395,0,0,1,44.342,65.08Z" fill="none" stroke="#45413c" stroke-linecap="round" stroke-linejoin="round"></path><path d="M41.946,35.525v4.793H30.764V35.525h-.8a2.4,2.4,0,1,0,0,4.793H42.746a2.4,2.4,0,0,0,0-4.793Z" fill="#656769" stroke="#45413c" stroke-linecap="round" stroke-linejoin="round"></path><path d="M41.946,40.318H30.764V25.225a.665.665,0,0,1,.848-.64l4.56,1.3a.648.648,0,0,0,.365,0l4.561-1.3a.665.665,0,0,1,.848.64Z" fill="none" stroke="#45413c" stroke-linecap="round" stroke-linejoin="round"></path><path d="M79.015,71.711a1.821,1.821,0,0,1-1.821,1.821H72.638a1.822,1.822,0,0,1,0-3.643h4.556A1.821,1.821,0,0,1,79.015,71.711Z" fill="#ffe500" stroke="#45413c" stroke-linecap="round" stroke-linejoin="round"></path><path d="M79.015,68.067a1.821,1.821,0,0,1-1.821,1.822H72.638a1.823,1.823,0,0,1,0-3.645h4.556A1.822,1.822,0,0,1,79.015,68.067Z" fill="#ffe500" stroke="#45413c" stroke-linecap="round" stroke-linejoin="round"></path><path d="M70.817,71.711a1.822,1.822,0,0,1-1.823,1.821H64.44a1.822,1.822,0,1,1,0-3.643h4.554A1.823,1.823,0,0,1,70.817,71.711Z" fill="#ffe500" stroke="#45413c" stroke-linecap="round" stroke-linejoin="round"></path><path d="M70.817,68.067a1.823,1.823,0,0,1-1.823,1.822H64.44a1.823,1.823,0,1,1,0-3.645h4.554A1.824,1.824,0,0,1,70.817,68.067Z" fill="#ffe500" stroke="#45413c" stroke-linecap="round" stroke-linejoin="round"></path><path d="M81.748,64.423a1.821,1.821,0,0,1-1.822,1.821H75.371a1.822,1.822,0,1,1,0-3.643h4.555A1.821,1.821,0,0,1,81.748,64.423Z" fill="#ffe500" stroke="#45413c" stroke-linecap="round" stroke-linejoin="round"></path><path d="M79.015,60.779A1.821,1.821,0,0,1,77.194,62.6H72.638a1.822,1.822,0,0,1,0-3.644h4.556A1.822,1.822,0,0,1,79.015,60.779Z" fill="#ffe500" stroke="#45413c" stroke-linecap="round" stroke-linejoin="round"></path><path d="M63.5,63.62A1.821,1.821,0,0,0,60.521,63a17.248,17.248,0,0,1-9.543,4.5,1.824,1.824,0,0,0-1.53,2.484l1.389,3.523A1.818,1.818,0,0,0,52.8,74.645a26.831,26.831,0,0,0,10.729-4.413,3.2,3.2,0,0,0,1.1-3.781Z" fill="#6dd627" stroke="#45413c" stroke-linecap="round" stroke-linejoin="round"></path><path d="M58.648,69.32a1.367,1.367,0,1,1-1.366-1.367A1.367,1.367,0,0,1,58.648,69.32Z" fill="#c8ffa1"></path><path d="M45.673,17.154a1.33,1.33,0,0,0-1.331,1.331V23.81a1.33,1.33,0,0,0,1.331,1.331h1.414l7.987-7.987Z" fill="#4acfff"></path><path d="M44.342 17.154 L60.317 17.154 L60.317 25.142 L44.342 25.142 Z" fill="none" stroke="#45413c" stroke-linecap="round" stroke-linejoin="round"></path><path d="M71.617,40.569a3.192,3.192,0,0,1,2.394-2.394l4.806-1.109a.4.4,0,0,0,0-.779l-4.806-1.108a3.2,3.2,0,0,1-2.395-2.4l-1.109-4.8a.4.4,0,0,0-.778,0l-1.108,4.8a3.2,3.2,0,0,1-2.395,2.4l-4.8,1.108a.4.4,0,0,0,0,.779l4.8,1.108a3.2,3.2,0,0,1,2.394,2.4l1.109,4.807a.4.4,0,0,0,.779,0Z" fill="#fff48c" stroke="#ebcb00" stroke-linecap="round" stroke-linejoin="round"></path><path d="M87.266,53.756,91.027,52.5a.352.352,0,0,0,0-.669L87.936,50.8a1.408,1.408,0,0,1-.893-.893l-1.031-3.09a.353.353,0,0,0-.67,0l-1.03,3.09a1.408,1.408,0,0,1-.893.893l-3.092,1.031a.352.352,0,0,0,0,.669l3.092,1.031a1.417,1.417,0,0,1,.893.893l1.03,3.093a.353.353,0,0,0,.67,0Z" fill="#fff48c" stroke="#ebcb00" stroke-linecap="round" stroke-linejoin="round"></path><path d="M24.970 52.299 A1.000 1.000 0 1 0 26.970 52.299 A1.000 1.000 0 1 0 24.970 52.299 Z" fill="#45413c"></path><path d="M26.568 47.506 A1.000 1.000 0 1 0 28.568 47.506 A1.000 1.000 0 1 0 26.568 47.506 Z" fill="#45413c"></path><path d="M31.360 47.506 A1.000 1.000 0 1 0 33.360 47.506 A1.000 1.000 0 1 0 31.360 47.506 Z" fill="#45413c"></path><path d="M36.154 47.506 A1.000 1.000 0 1 0 38.154 47.506 A1.000 1.000 0 1 0 36.154 47.506 Z" fill="#45413c"></path><path d="M40.946 47.506 A1.000 1.000 0 1 0 42.946 47.506 A1.000 1.000 0 1 0 40.946 47.506 Z" fill="#45413c"></path><path d="M29.764 52.299 A1.000 1.000 0 1 0 31.764 52.299 A1.000 1.000 0 1 0 29.764 52.299 Z" fill="#45413c"></path><path d="M34.555 52.299 A1.000 1.000 0 1 0 36.555 52.299 A1.000 1.000 0 1 0 34.555 52.299 Z" fill="#45413c"></path><path d="M39.348 52.299 A1.000 1.000 0 1 0 41.348 52.299 A1.000 1.000 0 1 0 39.348 52.299 Z" fill="#45413c"></path><path d="M44.142 52.299 A1.000 1.000 0 1 0 46.142 52.299 A1.000 1.000 0 1 0 44.142 52.299 Z" fill="#45413c"></path><path d="M51.193 52.299 A1.000 1.000 0 1 0 53.193 52.299 A1.000 1.000 0 1 0 51.193 52.299 Z" fill="#45413c"></path><path d="M50.395 47.506 A1.000 1.000 0 1 0 52.395 47.506 A1.000 1.000 0 1 0 50.395 47.506 Z" fill="#45413c"></path><path d="M49.597 42.714 A1.000 1.000 0 1 0 51.597 42.714 A1.000 1.000 0 1 0 49.597 42.714 Z" fill="#45413c"></path><path d="M55.985 52.299 A1.000 1.000 0 1 0 57.985 52.299 A1.000 1.000 0 1 0 55.985 52.299 Z" fill="#45413c"></path><path d="M55.187 47.506 A1.000 1.000 0 1 0 57.187 47.506 A1.000 1.000 0 1 0 55.187 47.506 Z" fill="#45413c"></path><path d="M54.389 42.714 A1.000 1.000 0 1 0 56.389 42.714 A1.000 1.000 0 1 0 54.389 42.714 Z" fill="#45413c"></path></g></svg>