<svg xmlns="http://www.w3.org/2000/svg" version="1.1" xmlns:xlink="http://www.w3.org/1999/xlink" xmlns:svgjs="http://svgjs.com/svgjs" viewBox="0 0 160 160" width="160" height="160"><g transform="matrix(1.6,0,0,1.6,0,0)"><path d="M10.000 50.000 A40.000 40.000 0 1 0 90.000 50.000 A40.000 40.000 0 1 0 10.000 50.000 Z" fill="#c7f0ff" stroke="#c7f0ff" stroke-linecap="round" stroke-linejoin="round"></path><path d="M15.823 50.000 A34.177 34.177 0 1 0 84.177 50.000 A34.177 34.177 0 1 0 15.823 50.000 Z" fill="#c0dceb"></path><path d="M50,19.13A34.179,34.179,0,0,1,84.138,51.654q.039-.822.039-1.654a34.177,34.177,0,0,0-68.354,0q0,.831.039,1.654A34.179,34.179,0,0,1,50,19.13Z" fill="#c7f0ff"></path><path d="M15.823 50.000 A34.177 34.177 0 1 0 84.177 50.000 A34.177 34.177 0 1 0 15.823 50.000 Z" fill="none" stroke="#45413c" stroke-miterlimit="10"></path><path d="M23.540 52.205 A26.460 26.460 0 1 0 76.460 52.205 A26.460 26.460 0 1 0 23.540 52.205 Z" fill="#fffef2"></path><path d="M50,25.745a26.46,26.46,0,1,0,26.46,26.46A26.459,26.459,0,0,0,50,25.745Zm0,50.164a23.7,23.7,0,1,1,23.7-23.7A23.7,23.7,0,0,1,50,75.909Z" fill="#fffacf"></path><path d="M50,23.54A28.665,28.665,0,1,0,78.665,52.205,28.665,28.665,0,0,0,50,23.54Zm0,55.125a26.46,26.46,0,1,1,26.46-26.46A26.459,26.459,0,0,1,50,78.665Z" fill="#e0e0e0"></path><path d="M50,25.745A28.665,28.665,0,0,1,78.644,53.307c.014-.365.021-.733.021-1.1a28.665,28.665,0,0,0-57.33,0c0,.369.007.737.021,1.1A28.666,28.666,0,0,1,50,25.745Z" fill="#ffffff"></path><path d="M50,78.665A28.665,28.665,0,0,0,78.644,51.1q.021.549.021,1.1a28.665,28.665,0,0,1-57.33,0q0-.553.021-1.1A28.666,28.666,0,0,0,50,78.665Z" fill="#bdbec0"></path><path d="M50,23.54A28.665,28.665,0,1,0,78.665,52.205,28.665,28.665,0,0,0,50,23.54Zm0,55.125a26.46,26.46,0,1,1,26.46-26.46A26.459,26.459,0,0,1,50,78.665Z" fill="none" stroke="#45413c" stroke-miterlimit="10"></path><path d="M50.551,31.809a.551.551,0,1,1-1.1,0V28.5a.551.551,0,0,1,1.1,0Z" fill="#45413c" stroke="#45413c" stroke-linecap="round" stroke-linejoin="round"></path><path d="M40.279,34.266a.551.551,0,1,1-.955.551l-1.653-2.864a.552.552,0,0,1,.955-.552Z" fill="#45413c" stroke="#45413c" stroke-linecap="round" stroke-linejoin="round"></path><path d="M32.612,41.529a.551.551,0,0,1-.551.955L29.2,40.831a.552.552,0,0,1,.552-.955Z" fill="#45413c" stroke="#45413c" stroke-linecap="round" stroke-linejoin="round"></path><path d="M29.6,51.654a.551.551,0,0,1,0,1.1H26.3a.551.551,0,1,1,0-1.1Z" fill="#45413c" stroke="#45413c" stroke-linecap="round" stroke-linejoin="round"></path><path d="M32.061,61.926a.551.551,0,1,1,.551.955l-2.864,1.653a.552.552,0,0,1-.552-.955Z" fill="#45413c" stroke="#45413c" stroke-linecap="round" stroke-linejoin="round"></path><path d="M39.324,69.593a.551.551,0,1,1,.955.551l-1.653,2.865a.552.552,0,0,1-.955-.552Z" fill="#45413c" stroke="#45413c" stroke-linecap="round" stroke-linejoin="round"></path><path d="M49.449,72.6a.551.551,0,0,1,1.1,0v3.308a.551.551,0,0,1-1.1,0Z" fill="#45413c" stroke="#45413c" stroke-linecap="round" stroke-linejoin="round"></path><path d="M59.721,70.144a.551.551,0,1,1,.955-.551l1.653,2.864a.552.552,0,0,1-.955.552Z" fill="#45413c" stroke="#45413c" stroke-linecap="round" stroke-linejoin="round"></path><path d="M67.388,62.881a.551.551,0,0,1,.551-.955L70.8,63.579a.552.552,0,0,1-.552.955Z" fill="#45413c" stroke="#45413c" stroke-linecap="round" stroke-linejoin="round"></path><path d="M70.4,52.756a.551.551,0,1,1,0-1.1H73.7a.551.551,0,0,1,0,1.1Z" fill="#45413c" stroke="#45413c" stroke-linecap="round" stroke-linejoin="round"></path><path d="M67.939,42.484a.551.551,0,1,1-.551-.955l2.864-1.653a.552.552,0,0,1,.552.955Z" fill="#45413c" stroke="#45413c" stroke-linecap="round" stroke-linejoin="round"></path><path d="M60.676,34.817a.551.551,0,1,1-.955-.551L61.374,31.4a.552.552,0,0,1,.955.552Z" fill="#45413c" stroke="#45413c" stroke-linecap="round" stroke-linejoin="round"></path><path d="M48.346 52.205 A1.654 1.654 0 1 0 51.654 52.205 A1.654 1.654 0 1 0 48.346 52.205 Z" fill="#45413c" stroke="#45413c" stroke-linecap="round" stroke-linejoin="round"></path><path d="M58.575,47.527a2.756,2.756,0,1,1-3.9-3.9c1.076-1.077,5.067-1.17,5.067-1.17S59.652,46.451,58.575,47.527Z" fill="#45413c" stroke="#45413c" stroke-linecap="round" stroke-linejoin="round"></path><path d="M45.833,58.225a.33.33,0,0,1-.558.169L43.811,56.93a.33.33,0,0,1,.169-.558l1.342-.269,9.745-9.745.78.78L46.1,56.883Z" fill="#45413c" stroke="#45413c" stroke-linecap="round" stroke-linejoin="round"></path><path d="M56.02,56.372a.33.33,0,0,1,.169.558l-1.464,1.464a.33.33,0,0,1-.558-.169L53.9,56.883,35.967,38.952a.552.552,0,0,1,.78-.78L54.678,56.1Z" fill="#45413c" stroke="#45413c" stroke-linecap="round" stroke-linejoin="round"></path></g></svg>