<svg xmlns="http://www.w3.org/2000/svg" version="1.1" xmlns:xlink="http://www.w3.org/1999/xlink" xmlns:svgjs="http://svgjs.com/svgjs" viewBox="0 0 160 160" width="160" height="160"><g transform="matrix(1.6,0,0,1.6,0,0)"><path d="M10.000 50.000 A40.000 40.000 0 1 0 90.000 50.000 A40.000 40.000 0 1 0 10.000 50.000 Z" fill="#c7f0ff" stroke="#c7f0ff" stroke-miterlimit="10"></path><path d="M22.6,61.194a4.244,4.244,0,0,1-2.866-1.133h0l-2.7-2.491a4.272,4.272,0,1,1,5.8-6.277l2.7,2.49A4.273,4.273,0,0,1,22.8,61.191C22.732,61.193,22.664,61.194,22.6,61.194Zm-.7-3.238a1.254,1.254,0,0,0,1.7-1.843L20.661,53.4a1.254,1.254,0,0,0-1.7,1.843Z" fill="#adc4d9" stroke="#45413c" stroke-linecap="round" stroke-linejoin="round"></path><path d="M22.17,57.064a1.339,1.339,0,0,0,.271,1.875l4.3,3.211A1.34,1.34,0,1,0,28.342,60l-4.3-3.211A1.34,1.34,0,0,0,22.17,57.064Z" fill="#8ca4b8" stroke="#45413c" stroke-linecap="round" stroke-linejoin="round"></path><path d="M20.222 33.397 L67.522 33.397 L67.522 72.935 L20.222 72.935 Z" fill="#f0f0f0" transform="translate(-9.343 96.978) rotate(-89.936)"></path><path d="M61.467,29.535,27.333,29.5l-.045,40.15a4.4,4.4,0,0,0,4.395,4.405l31.934.036.048-42.35A2.2,2.2,0,0,0,61.467,29.535Z" fill="#e0e0e0"></path><path d="M20.222 33.397 L67.522 33.397 L67.522 72.935 L20.222 72.935 Z" fill="none" stroke="#45413c" stroke-linecap="round" stroke-linejoin="round" transform="translate(-9.343 96.978) rotate(-89.936)"></path><path d="M29.488 71.852 L29.536 24.552 L69.074 24.592 L69.026 71.892 Z" fill="#f0f0f0" transform="matrix(0.001, -1, 1, 0.001, 1.004, 97.449)"></path><path d="M69.074,26.794a2.2,2.2,0,0,0-2.2-2.2l-34.5-.039-.046,40.6a4.711,4.711,0,0,0,4.7,4.712l28.309.032,3.688-3.736Z" fill="#e0e0e0"></path><path d="M78.913,56.633a4.273,4.273,0,0,1-5.522-5.642l1.443-3.376a4.272,4.272,0,0,1,7.857,3.355L81.25,54.346h0A4.24,4.24,0,0,1,79.1,56.553C79.037,56.581,78.975,56.608,78.913,56.633Zm1.067-7a1.254,1.254,0,0,0-2.306-.986L76.1,52.328a1.254,1.254,0,1,0,2.307.985Z" fill="#adc4d9" stroke="#45413c" stroke-linecap="round" stroke-linejoin="round"></path><path d="M70.861,57.687A1.339,1.339,0,0,0,72.729,58L77.1,54.889a1.339,1.339,0,1,0-1.554-2.182l-4.369,3.112A1.338,1.338,0,0,0,70.861,57.687Z" fill="#8ca4b8" stroke="#45413c" stroke-linecap="round" stroke-linejoin="round"></path><path d="M29.488 71.852 L29.536 24.552 L69.074 24.592 L69.026 71.892 Z" fill="none" stroke="#45413c" stroke-linecap="round" stroke-linejoin="round" transform="matrix(0.001, -1, 1, 0.001, 1.004, 97.449)"></path><path d="M34.532,65.16a2.507,2.507,0,0,0,2.5,2.509l27.387.031,9.656-9.78.039-35a2.508,2.508,0,0,0-2.5-2.509l-34.525-.039a2.507,2.507,0,0,0-2.509,2.5Z" fill="#ffffff"></path><path d="M74.094,44.254a4.824,4.824,0,0,0-1.271-.458l-3.595-.747a4.834,4.834,0,0,0-4.893,1.9L62.55,44.5c-.035-.009-.069-.017-.1-.023l0-2.746a2.45,2.45,0,0,0-1.894-2.386l0-2.171a6.242,6.242,0,0,0-12.484-.014l0,2.171a2.451,2.451,0,0,0-1.9,2.382l0,2.208-.044.01-1.786.447a4.83,4.83,0,0,0-4.889-1.909l-3.6.74a4.769,4.769,0,0,0-1.3.468l-.009,8.5a4.808,4.808,0,0,0,3.249.475l3.595-.739a4.806,4.806,0,0,0,2.925-1.882c.045-.062.088-.125.129-.187a4.82,4.82,0,0,0,.718-1.78l1-.25,0,2.909a2.452,2.452,0,0,0,2.445,2.45l11.384.012a2.449,2.449,0,0,0,2.45-2.444l0-2.374,1.06.267a4.808,4.808,0,0,0,.713,1.781l.13.187a4.8,4.8,0,0,0,2.921,1.89l3.593.747a4.894,4.894,0,0,0,.978.1,4.819,4.819,0,0,0,2.248-.558ZM36.8,48.651a.687.687,0,0,1-.528-.1.7.7,0,0,1-.2-.975.689.689,0,0,1,.445-.3l3.014-.621a1.866,1.866,0,0,0,.01.869,1.9,1.9,0,0,0,.218.523Zm19.94-9.378-4.863-.005,0-2.108a2.432,2.432,0,1,1,4.863.005Zm15.95,9.421a.7.7,0,0,1-.3.445.689.689,0,0,1-.529.1L68.9,48.625a1.874,1.874,0,0,0,.231-1.39l3.014.627a.709.709,0,0,1,.546.832Z" fill="#c7f0ff"></path><path d="M34.532,65.16a2.507,2.507,0,0,0,2.5,2.509l27.387.031,9.656-9.78.039-35a2.508,2.508,0,0,0-2.5-2.509l-34.525-.039a2.507,2.507,0,0,0-2.509,2.5Z" fill="none" stroke="#45413c" stroke-linecap="round" stroke-linejoin="round"></path><path d="M43.873,47.78a4.242,4.242,0,0,1-2.592,1.669h0l-3.595.738a4.272,4.272,0,1,1-1.721-8.368l3.6-.74a4.273,4.273,0,0,1,4.427,6.536C43.951,47.671,43.913,47.726,43.873,47.78Zm-3.037-1.321a1.254,1.254,0,1,0-.5-2.457l-3.92.806a1.256,1.256,0,0,0-.976,1.481,1.256,1.256,0,0,0,1.481.976Z" fill="#adc4d9" stroke="#45413c" stroke-linecap="round" stroke-linejoin="round"></path><path d="M32.753,50.922A4.237,4.237,0,0,1,30.672,53.2h0l-3.287,1.632a4.272,4.272,0,0,1-3.8-7.653l3.288-1.633a4.273,4.273,0,0,1,5.948,5.191Q32.789,50.828,32.753,50.922Zm-3.274-.5a1.254,1.254,0,1,0-1.115-2.247l-3.585,1.78A1.254,1.254,0,0,0,25.9,52.2Z" fill="#adc4d9" stroke="#45413c" stroke-linecap="round" stroke-linejoin="round"></path><path d="M74.079,57.92l-8.667-.01a.978.978,0,0,0-.979.977l-.01,8.813Z" fill="#f0f0f0" stroke="#45413c" stroke-linecap="round" stroke-linejoin="round"></path><path d="M45.051 83.313 A1.733 19.01 0 1 0 48.517 83.313 A1.733 19.01 0 1 0 45.051 83.313 Z" fill="#45413c" opacity=".15" transform="translate(-36.581 130.004) rotate(-89.936)"></path><path d="M36.375,45.984a1.341,1.341,0,0,1-.691,1.765L30.77,49.9A1.34,1.34,0,0,1,29.7,47.444l4.915-2.15A1.339,1.339,0,0,1,36.375,45.984Z" fill="#8ca4b8" stroke="#45413c" stroke-linecap="round" stroke-linejoin="round"></path><path d="M47.883,43.511a1.339,1.339,0,0,1-.975,1.624l-5.2,1.3a1.34,1.34,0,1,1-.65-2.6l5.2-1.3A1.339,1.339,0,0,1,47.883,43.511Z" fill="#8ca4b8" stroke="#45413c" stroke-linecap="round" stroke-linejoin="round"></path><path d="M25.919,50.694a1.339,1.339,0,0,1-.52,1.822l-4.687,2.608a1.339,1.339,0,1,1-1.3-2.341L24.1,50.175A1.34,1.34,0,0,1,25.919,50.694Z" fill="#8ca4b8" stroke="#45413c" stroke-linecap="round" stroke-linejoin="round"></path><path d="M64.677,48.188a4.272,4.272,0,0,1,4.441-6.526l3.595.748a4.272,4.272,0,0,1-1.74,8.365l-3.594-.747h0a4.245,4.245,0,0,1-2.588-1.674C64.752,48.3,64.714,48.244,64.677,48.188Zm7.072-.334a1.254,1.254,0,0,0,.512-2.456l-3.919-.815a1.254,1.254,0,0,0-.511,2.456Z" fill="#adc4d9" stroke="#45413c" stroke-linecap="round" stroke-linejoin="round"></path><path d="M72.294,46.575a1.339,1.339,0,0,0,.686,1.765L77.89,50.5a1.339,1.339,0,0,0,1.079-2.452L74.06,45.888A1.339,1.339,0,0,0,72.294,46.575Z" fill="#8ca4b8" stroke="#45413c" stroke-linecap="round" stroke-linejoin="round"></path><path d="M60.791,44.075a1.34,1.34,0,0,0,.971,1.627l5.2,1.312a1.34,1.34,0,1,0,.655-2.6l-5.2-1.312A1.34,1.34,0,0,0,60.791,44.075Z" fill="#8ca4b8" stroke="#45413c" stroke-linecap="round" stroke-linejoin="round"></path><path d="M46.524 37.003 L62.083 37.003 L62.083 55.443 L46.524 55.443 Z" fill="#ffe500" stroke="#45413c" stroke-linecap="round" stroke-linejoin="round" transform="translate(8.019 100.475) rotate(-89.936)"></path><path d="M63.53,40.76a2.305,2.305,0,0,0-2.3-2.308L47.4,38.436a2.305,2.305,0,0,0-2.307,2.3l0,2.689a2.3,2.3,0,0,1,2.307-2.3l13.83.015a2.307,2.307,0,0,1,2.3,2.308Z" fill="#fff48c"></path><path d="M52.372 46.224 A1.932 1.932 0 1 0 56.236 46.224 A1.932 1.932 0 1 0 52.372 46.224 Z" fill="#656769" stroke="#45413c" stroke-linecap="round" stroke-linejoin="round"></path><path d="M46.524 37.003 L62.083 37.003 L62.083 55.443 L46.524 55.443 Z" fill="none" stroke="#45413c" stroke-linecap="round" stroke-linejoin="round" transform="translate(8.019 100.475) rotate(-89.936)"></path><path d="M57.934,38.446l0-3.227a3.622,3.622,0,1,0-7.244-.008l0,3.227-3.293,0,0-3.227a6.915,6.915,0,0,1,13.83.016l0,3.227Z" fill="#c7f0ff" stroke="#45413c" stroke-linecap="round" stroke-linejoin="round"></path></g></svg>