<svg xmlns="http://www.w3.org/2000/svg" version="1.1" xmlns:xlink="http://www.w3.org/1999/xlink" xmlns:svgjs="http://svgjs.com/svgjs" viewBox="0 0 160 160" width="160" height="160"><g transform="matrix(1.6,0,0,1.6,0,0)"><path d="M90,54.024a40,40,0,1,0-76.436,16.5H86.436A39.829,39.829,0,0,0,90,54.024Z" fill="#c7f0ff"></path><path d="M13.564,70.524a40,40,0,0,0,72.872,0Z" fill="#ccf7ad"></path><path d="M11 70.524L89 70.524" fill="none" stroke="#45413c" stroke-linecap="round" stroke-linejoin="round"></path><path d="M6.5 70.524L9 70.524" fill="none" stroke="#45413c" stroke-linecap="round" stroke-linejoin="round"></path><path d="M91 70.524L93.5 70.524" fill="none" stroke="#45413c" stroke-linecap="round" stroke-linejoin="round"></path><path d="M38.304 70.569L29.917 70.569 34.11 55.473 42.497 55.473 38.304 70.569z" fill="#dea47a"></path><path d="M34.11,55.473H42.5L39.274,67.078a28.4,28.4,0,0,1-7.276-4Z" fill="#bf8256"></path><path d="M60.11 70.569L68.497 70.569 64.303 55.473 55.916 55.473 60.11 70.569z" fill="#dea47a"></path><path d="M64.3,55.473H55.916L59.14,67.078a28.409,28.409,0,0,0,7.275-4Z" fill="#bf8256"></path><path d="M38.304 70.569L29.917 70.569 34.11 55.473 42.497 55.473 38.304 70.569z" fill="none" stroke="#45413c" stroke-linecap="round" stroke-linejoin="round"></path><path d="M60.11 70.569L68.497 70.569 64.303 55.473 55.916 55.473 60.11 70.569z" fill="none" stroke="#45413c" stroke-linecap="round" stroke-linejoin="round"></path><path d="M24.046 40.376 A25.161 25.161 0 1 0 74.368 40.376 A25.161 25.161 0 1 0 24.046 40.376 Z" fill="#ff6242" stroke="#45413c" stroke-linecap="round" stroke-linejoin="round"></path><path d="M29.078 40.376 A20.129 20.129 0 1 0 69.336 40.376 A20.129 20.129 0 1 0 29.078 40.376 Z" fill="#ffffff" stroke="#45413c" stroke-linecap="round" stroke-linejoin="round"></path><path d="M34.110 40.376 A15.097 15.097 0 1 0 64.304 40.376 A15.097 15.097 0 1 0 34.110 40.376 Z" fill="#ff6242" stroke="#45413c" stroke-linecap="round" stroke-linejoin="round"></path><path d="M39.143 40.376 A10.064 10.064 0 1 0 59.271 40.376 A10.064 10.064 0 1 0 39.143 40.376 Z" fill="#ffffff" stroke="#45413c" stroke-linecap="round" stroke-linejoin="round"></path><path d="M44.175 40.376 A5.032 5.032 0 1 0 54.239 40.376 A5.032 5.032 0 1 0 44.175 40.376 Z" fill="#ff6242" stroke="#45413c" stroke-linecap="round" stroke-linejoin="round"></path><path d="M75.471,8.44a13.973,13.973,0,0,0-4.092,10.022,14.569,14.569,0,0,0,10.059-4.173l2.487-2.442-4.169-1.738L77.935,5.976Z" fill="#00b8f0"></path><path d="M75.471,8.44a13.973,13.973,0,0,0-4.092,10.022,14.569,14.569,0,0,0,10.059-4.173l2.487-2.442-4.169-1.738L77.935,5.976Z" fill="none" stroke="#45413c" stroke-linecap="round" stroke-linejoin="round"></path><path d="M79.756,10.109,77.935,5.976,75.471,8.44a13.973,13.973,0,0,0-4.092,10.022Z" fill="#4acfff"></path><path d="M75.471,8.44a13.973,13.973,0,0,0-4.092,10.022,14.569,14.569,0,0,0,10.059-4.173l2.487-2.442-4.169-1.738L77.935,5.976Z" fill="none" stroke="#45413c" stroke-linecap="round" stroke-linejoin="round"></path><path d="M79.756 10.109L49.4 40.376" fill="none" stroke="#45413c" stroke-linecap="round" stroke-linejoin="round"></path><path d="M85.372,20.923a13.973,13.973,0,0,0-7.605,7.7,14.564,14.564,0,0,0,10.891-.021l3.23-1.31L88.7,24.1l-.107-4.515Z" fill="#ffe500"></path><path d="M88.7,24.1l-.107-4.515-3.217,1.338a13.973,13.973,0,0,0-7.605,7.7Z" fill="#fff48c"></path><path d="M85.372,20.923a13.973,13.973,0,0,0-7.605,7.7,14.564,14.564,0,0,0,10.891-.021l3.23-1.31L88.7,24.1l-.107-4.515Z" fill="none" stroke="#45413c" stroke-linecap="round" stroke-linejoin="round"></path><path d="M88.696 24.1L49.403 40.376" fill="none" stroke="#45413c" stroke-linecap="round" stroke-linejoin="round"></path></g></svg>