<svg xmlns="http://www.w3.org/2000/svg" version="1.1" xmlns:xlink="http://www.w3.org/1999/xlink" xmlns:svgjs="http://svgjs.com/svgjs" viewBox="0 0 160 160" width="160" height="160"><g transform="matrix(1.6,0,0,1.6,0,0)"><path d="M8.317 51.633 A40.000 40.000 0 1 0 88.317 51.633 A40.000 40.000 0 1 0 8.317 51.633 Z" fill="#c7f0ff" stroke="#c7f0ff" stroke-miterlimit="10"></path><path d="M8.317 51.633 A40.000 40.000 0 1 0 88.317 51.633 A40.000 40.000 0 1 0 8.317 51.633 Z" fill="none" stroke="#c7f0ff" stroke-miterlimit="10"></path><path d="M47.025,47.787A19.841,19.841,0,0,0,27.184,67.628V71.64a1.276,1.276,0,0,1,.64-.172h6.4a1.281,1.281,0,0,1,1.281,1.28V89.537a40.236,40.236,0,0,0,23.041.775V72.748a1.281,1.281,0,0,1,1.28-1.28h6.4a1.273,1.273,0,0,1,.64.172V67.628A19.841,19.841,0,0,0,47.025,47.787Z" fill="#ff87af"></path><path d="M34.221,52.485a19.786,19.786,0,0,0-7.034,15.088c.023-.379.306-2.916,3.837-7.625,1.6-2.133,3.535-4.033,5.708-4.8A17.326,17.326,0,0,1,34.221,52.485Z" fill="#ffb0ca"></path><path d="M27.187,67.573c0,.033,0,.055,0,.055C27.184,67.609,27.187,67.591,27.187,67.573Z" fill="#00b8f0"></path><path d="M59.83,52.485a17.375,17.375,0,0,1-2.511,2.666c2.173.764,4.108,2.664,5.708,4.8,3.531,4.709,3.814,7.246,3.837,7.625A19.786,19.786,0,0,0,59.83,52.485Z" fill="#ffb0ca"></path><path d="M58.546,90.312V72.748a1.281,1.281,0,0,1,1.28-1.28h6.4a1.273,1.273,0,0,1,.64.172V67.628a19.842,19.842,0,0,0-39.683,0V71.64a1.276,1.276,0,0,1,.64-.172h6.4a1.281,1.281,0,0,1,1.281,1.28V89.537" fill="none" stroke="#45413c" stroke-linecap="round" stroke-linejoin="round"></path><path d="M51.506,44.418a12.812,12.812,0,0,1-8.961,0V48.3a19.7,19.7,0,0,0-4.117,1.446l5.162,3.028a1.291,1.291,0,0,1,.394.36L46.4,56.5a.774.774,0,0,0,1.261,0l2.411-3.375a1.291,1.291,0,0,1,.394-.36l5.162-3.028A19.7,19.7,0,0,0,51.506,48.3Z" fill="#d18660"></path><path d="M47.025,45.227a12.725,12.725,0,0,1-4.48-.809v2.729a16,16,0,0,0,8.961,0V44.418A12.726,12.726,0,0,1,47.025,45.227Z" fill="#bd704a"></path><path d="M51.506,44.418a12.812,12.812,0,0,1-8.961,0V48.3a19.7,19.7,0,0,0-4.117,1.446l5.162,3.028a1.291,1.291,0,0,1,.394.36L46.4,56.5a.774.774,0,0,0,1.261,0l2.411-3.375a1.291,1.291,0,0,1,.394-.36l5.162-3.028A19.7,19.7,0,0,0,51.506,48.3Z" fill="none" stroke="#45413c" stroke-linecap="round" stroke-linejoin="round"></path><path d="M58.546,72.748V68.477a11.3,11.3,0,0,1,1.28-5.225h0" fill="none" stroke="#45413c" stroke-linecap="round" stroke-linejoin="round"></path><path d="M35.505,72.748V68.477a11.3,11.3,0,0,0-1.28-5.225h0" fill="none" stroke="#45413c" stroke-linecap="round" stroke-linejoin="round"></path><path d="M40.273,57.531a1.109,1.109,0,0,0,1.488-.5l2.051-4.1a1.279,1.279,0,0,0-.222-.165l-5.162-3.028A19.9,19.9,0,0,0,34.2,52.489,17.373,17.373,0,0,0,40.273,57.531Z" fill="#ff87af" stroke="#45413c" stroke-linecap="round" stroke-linejoin="round"></path><path d="M53.778,57.531a1.109,1.109,0,0,1-1.488-.5l-2.051-4.1a1.279,1.279,0,0,1,.222-.165l5.162-3.028a19.9,19.9,0,0,1,4.229,2.748A17.373,17.373,0,0,1,53.778,57.531Z" fill="#ff87af" stroke="#45413c" stroke-linecap="round" stroke-linejoin="round"></path><path d="M18.564 62.735 L76.803 62.735 L76.803 88.031 L18.564 88.031 Z" fill="#ffffff" transform="matrix(1, -0.021, 0.021, 1, -1.584, 1.026)"></path><path d="M76.585,79.555a3.779,3.779,0,0,0-5.318.541l-1.05,1.316a3.781,3.781,0,0,0,.657,5.3l1.009.8,4.182-.088a1,1,0,0,0,.978-1.021l-.139-6.6Z" fill="#e0e0e0"></path><path d="M23.752,79.792a3.781,3.781,0,0,0-4.667-2.606l-.486.132.2,9.438,2.688-.73a3.779,3.779,0,0,0,2.707-4.608Z" fill="#e0e0e0"></path><path d="M18.564 62.735 L76.803 62.735 L76.803 88.031 L18.564 88.031 Z" fill="none" stroke="#45413c" stroke-linecap="round" stroke-linejoin="round" transform="matrix(1, -0.021, 0.021, 1, -1.584, 1.026)"></path><path d="M21.905 66.190 L73.463 66.190 L73.463 84.576 L21.905 84.576 Z" fill="#00b8f0" transform="translate(-1.584 1.026) rotate(-1.212)"></path><path d="M35.493,80.862a1.376,1.376,0,0,1-1.4-1.345l-.013-.579-.4.417a1.375,1.375,0,0,1-1.945.042,1.379,1.379,0,0,1-.042-1.944l.4-.418-.578.012a1.375,1.375,0,0,1-.058-2.749l.579-.012-.419-.4a1.375,1.375,0,1,1,1.9-1.985l.418.4-.012-.579a1.375,1.375,0,1,1,2.749-.058l.012.579.4-.418a1.375,1.375,0,0,1,1.987,1.9l-.4.419.578-.012a1.375,1.375,0,1,1,.059,2.749l-.578.012.417.4a1.375,1.375,0,0,1-1.9,1.985l-.418-.4.012.579A1.377,1.377,0,0,1,35.493,80.862Z" fill="#ffffff" stroke="#00658a" stroke-linecap="round" stroke-linejoin="round"></path><path d="M57.942,80.512a1.5,1.5,0,1,1-.063-3l5.6-.119a1.5,1.5,0,1,1,.064,3Z" fill="#ffffff" stroke="#00658a" stroke-linecap="round" stroke-linejoin="round"></path><path d="M73.315,68.112l-.031-1.466a1,1,0,0,0-1.021-.978L22.716,66.716a1,1,0,0,0-.979,1.021l.347,16.382a1,1,0,0,0,1.021.979l1.344-.029L24.14,70.462a1.308,1.308,0,0,1,1.281-1.336Z" fill="#009fd9"></path><path d="M21.905 66.190 L73.463 66.190 L73.463 84.576 L21.905 84.576 Z" fill="none" stroke="#45413c" stroke-linecap="round" stroke-linejoin="round" transform="translate(-1.584 1.026) rotate(-1.212)"></path><path d="M23.588,79.258l-.442-1.626a3.78,3.78,0,0,0-4.667-2.606l-3.513.954a1.575,1.575,0,0,0-1.145,1.5,12.435,12.435,0,0,0,1.8,6.626,1.574,1.574,0,0,0,1.746.715l3.513-.954A3.781,3.781,0,0,0,23.588,79.258Z" fill="#d18660"></path><path d="M14.361,79.695a1.572,1.572,0,0,1,1.144-1.5l3.513-.954a3.78,3.78,0,0,1,4.668,2.606l.01.037a3.918,3.918,0,0,0-.108-.627l-.442-1.626a3.78,3.78,0,0,0-4.667-2.606l-3.513.954a1.573,1.573,0,0,0-1.144,1.5A12.46,12.46,0,0,0,14.5,81.7,12.783,12.783,0,0,1,14.361,79.695Z" fill="#e09f7e"></path><path d="M23.588,79.258l-.442-1.626a3.78,3.78,0,0,0-4.667-2.606l-3.513.954a1.575,1.575,0,0,0-1.145,1.5,12.435,12.435,0,0,0,1.8,6.626,1.574,1.574,0,0,0,1.746.715l3.513-.954A3.781,3.781,0,0,0,23.588,79.258Z" fill="none" stroke="#45413c" stroke-linecap="round" stroke-linejoin="round"></path><path d="M71.9,84.743a3.779,3.779,0,0,1-.657-5.3l1.05-1.317a3.78,3.78,0,0,1,5.318-.541l2.847,2.27a1.573,1.573,0,0,1,.455,1.83,12.428,12.428,0,0,1-4.28,5.369,1.575,1.575,0,0,1-1.886-.037Z" fill="#d18660"></path><path d="M79.537,83.5a1.573,1.573,0,0,0-.455-1.83L76.236,79.4a3.78,3.78,0,0,0-5.318.539l-.024.031a3.844,3.844,0,0,1,.348-.534l1.051-1.316a3.78,3.78,0,0,1,5.318-.54l2.846,2.271a1.573,1.573,0,0,1,.455,1.83,12.468,12.468,0,0,1-2.3,3.608A12.839,12.839,0,0,0,79.537,83.5Z" fill="#e09f7e"></path><path d="M71.9,84.743a3.779,3.779,0,0,1-.657-5.3l1.05-1.317a3.78,3.78,0,0,1,5.318-.541l2.847,2.27a1.573,1.573,0,0,1,.455,1.83,12.428,12.428,0,0,1-4.28,5.369,1.575,1.575,0,0,1-1.886-.037Z" fill="none" stroke="#45413c" stroke-linecap="round" stroke-linejoin="round"></path><path d="M64.346 58.362 A13.669 13.669 0 1 0 91.684 58.362 A13.669 13.669 0 1 0 64.346 58.362 Z" fill="#ffffff" transform="translate(-1.217 1.664) rotate(-1.212)"></path><path d="M64.535,56.083a13.668,13.668,0,1,0,26.847-.589,13.662,13.662,0,0,1-26.839.59" fill="#c7f0ff"></path><path d="M64.346 58.362 A13.669 13.669 0 1 0 91.684 58.362 A13.669 13.669 0 1 0 64.346 58.362 Z" fill="none" stroke="#45413c" stroke-linecap="round" stroke-linejoin="round" stroke-width="1.122" transform="translate(-1.217 1.664) rotate(-1.212)"></path><path d="M71.233 55.074 L84.902 55.074 L84.902 66.607 L71.233 66.607 Z" fill="#ffe500" transform="translate(-1.27 1.665) rotate(-1.212)"></path><path d="M83.07,54.967l-10.25.216a1.709,1.709,0,0,0-1.672,1.745l.043,1.993a1.708,1.708,0,0,1,1.672-1.745l10.249-.217a1.709,1.709,0,0,1,1.744,1.673l-.042-1.993A1.708,1.708,0,0,0,83.07,54.967Z" fill="#fff48c"></path><path d="M76.761 60.840 A1.306 1.306 0 1 0 79.373 60.840 A1.306 1.306 0 1 0 76.761 60.840 Z" fill="#45413c"></path><path d="M71.233 55.074 L84.902 55.074 L84.902 66.607 L71.233 66.607 Z" fill="none" stroke="#45413c" stroke-linecap="round" stroke-linejoin="round" stroke-width="1.122" transform="translate(-1.27 1.665) rotate(-1.212)"></path><path d="M82.1,53.022a4.2,4.2,0,1,0-8.4.177l.042,1.965,8.4-.178Z" fill="none" stroke="#45413c" stroke-linecap="round" stroke-linejoin="round" stroke-width="1.122"></path><path d="M47.581,80.606a1.376,1.376,0,0,1-1.4-1.345l-.012-.579-.4.418a1.376,1.376,0,0,1-1.987-1.9l.4-.418-.578.012a1.375,1.375,0,0,1-.059-2.749l.579-.012-.418-.4a1.375,1.375,0,0,1,1.9-1.985l.418.4-.012-.579a1.375,1.375,0,1,1,2.749-.058l.012.579.4-.418a1.376,1.376,0,0,1,1.987,1.9l-.4.418.578-.012a1.375,1.375,0,0,1,.059,2.749l-.578.013.417.4a1.375,1.375,0,0,1-1.9,1.985l-.418-.4.012.579A1.376,1.376,0,0,1,47.581,80.606Z" fill="#ffffff" stroke="#00658a" stroke-linecap="round" stroke-linejoin="round"></path><path d="M32.89,29.244c-1.86,0-3.367,1.96-3.367,4.377S31.03,38,32.89,38a2.755,2.755,0,0,0,1.6-.549,13.429,13.429,0,0,0,25.085,0,2.755,2.755,0,0,0,1.6.549c1.86,0,3.367-1.96,3.367-4.378s-1.507-4.377-3.367-4.377H60.5V25.876a13.47,13.47,0,0,0-26.939,0v3.368Z" fill="#d18660" stroke="#45413c" stroke-linecap="round" stroke-linejoin="round"></path><path d="M31.543 34.631 A1.347 1.347 0 1 0 34.237 34.631 A1.347 1.347 0 1 0 31.543 34.631 Z" fill="#45413c"></path><path d="M59.828 34.631 A1.347 1.347 0 1 0 62.522 34.631 A1.347 1.347 0 1 0 59.828 34.631 Z" fill="#45413c"></path><path d="M37.604 34.968 A1.684 1.684 0 1 0 40.972 34.968 A1.684 1.684 0 1 0 37.604 34.968 Z" fill="#bd704a"></path><path d="M53.093 34.968 A1.684 1.684 0 1 0 56.461 34.968 A1.684 1.684 0 1 0 53.093 34.968 Z" fill="#bd704a"></path><path d="M51.073,38.388a5.82,5.82,0,0,1-8.081,0" fill="none" stroke="#45413c" stroke-linecap="round" stroke-linejoin="round"></path><path d="M43.665,30.591a2.189,2.189,0,0,0-4.041,0" fill="none" stroke="#45413c" stroke-linecap="round" stroke-linejoin="round"></path><path d="M54.44,30.591a2.188,2.188,0,0,0-4.04,0" fill="none" stroke="#45413c" stroke-linecap="round" stroke-linejoin="round"></path><path d="M60.5,25.876a13.47,13.47,0,0,0-26.939,0v3.368a2.156,2.156,0,0,1,2.155,2.311,11.069,11.069,0,0,0,.539-5.679,6.473,6.473,0,0,0,3.367-1.347V21.162a22.234,22.234,0,0,0,7.408,1.347,22.226,22.226,0,0,0,7.408-1.347v3.367a6.479,6.479,0,0,0,3.368,1.347,11.069,11.069,0,0,0,.539,5.679A2.156,2.156,0,0,1,60.5,29.244Z" fill="#a86c4d" stroke="#45413c" stroke-linecap="round" stroke-linejoin="round"></path><path d="M47.032,12.407a4.715,4.715,0,0,0-4.714,4.714V44.06a8.756,8.756,0,0,1-16.134,4.713h-.029A4.715,4.715,0,0,0,30.87,44.06V40.449c-4.041,2.937-6.062-1.1-6.062-1.1,3.348,0,6.062-3.368,6.062-10.776V17.121a8.774,8.774,0,0,1,16.162-4.714Z" fill="#724f3d"></path><path d="M29.624,41.173c1.567-1.657,2.592-4.683,2.592-9.236V20.489a8.769,8.769,0,0,1,12.946-7.7,4.7,4.7,0,0,1,1.87-.386A8.774,8.774,0,0,0,30.87,17.121V28.57c0,7.408-2.714,10.776-6.062,10.776C24.808,39.346,26.414,42.556,29.624,41.173Z" fill="#a86c4d"></path><path d="M47.032,12.407a4.715,4.715,0,0,0-4.714,4.714V44.06a8.756,8.756,0,0,1-16.134,4.713h-.029A4.715,4.715,0,0,0,30.87,44.06V40.449c-4.041,2.937-6.062-1.1-6.062-1.1,3.348,0,6.062-3.368,6.062-10.776V17.121a8.774,8.774,0,0,1,16.162-4.714Z" fill="none" stroke="#45413c" stroke-linecap="round" stroke-linejoin="round"></path></g></svg>