<svg xmlns="http://www.w3.org/2000/svg" version="1.1" xmlns:xlink="http://www.w3.org/1999/xlink" xmlns:svgjs="http://svgjs.com/svgjs" viewBox="0 0 160 160" width="160" height="160"><g transform="matrix(1.6,0,0,1.6,0,0)"><path d="M10.000 55.834 A40.000 40.000 0 1 0 90.000 55.834 A40.000 40.000 0 1 0 10.000 55.834 Z" fill="#c7f0ff" stroke="#c7f0ff" stroke-miterlimit="10"></path><path d="M29.822,53.1H22.911a2.126,2.126,0,0,1-2.126-2.127h9.037Z" fill="#656769" stroke="#45413c" stroke-linecap="round" stroke-linejoin="round"></path><path d="M20.785,50.976c0-1.956,1.8-3.462,5.814-3.691a1.04,1.04,0,0,1,1.1,1.036v2.655Z" fill="#ff6242" stroke="#45413c" stroke-linecap="round" stroke-linejoin="round"></path><path d="M20.785,50.976c0-1.956,1.8-3.462,5.814-3.691a1.04,1.04,0,0,1,1.1,1.036v2.655Z" fill="none" stroke="#45413c" stroke-linecap="round" stroke-linejoin="round"></path><path d="M70.178,53.1h6.911a2.126,2.126,0,0,0,2.126-2.127H70.178Z" fill="#656769" stroke="#45413c" stroke-linecap="round" stroke-linejoin="round"></path><path d="M79.215,50.976c0-1.956-1.8-3.462-5.814-3.691a1.04,1.04,0,0,0-1.1,1.036v2.655Z" fill="#ff6242" stroke="#45413c" stroke-linecap="round" stroke-linejoin="round"></path><path d="M79.215,50.976c0-1.956-1.8-3.462-5.814-3.691a1.04,1.04,0,0,0-1.1,1.036v2.655Z" fill="none" stroke="#45413c" stroke-linecap="round" stroke-linejoin="round"></path><path d="M32.149,75.543a4.665,4.665,0,0,1-9.33,0V72.307l9.33,1.284Z" fill="#525252" stroke="#45413c" stroke-linecap="round" stroke-linejoin="round"></path><path d="M77.181,75.543a4.665,4.665,0,1,1-9.33,0V73.591l9.33-1.284Z" fill="#525252" stroke="#45413c" stroke-linecap="round" stroke-linejoin="round"></path><path d="M71.28,53.681a269.967,269.967,0,0,0-42.56,0l-5.387,4.477a4.629,4.629,0,0,0-1.672,3.561v9.557a2.316,2.316,0,0,0,2.316,2.315H76.023a2.316,2.316,0,0,0,2.316-2.315V61.719a4.629,4.629,0,0,0-1.672-3.561Z" fill="#ff6242"></path><path d="M61.433,64.021C58.974,62.55,55.321,61.307,50,61.307s-8.974,1.243-11.433,2.714a2.547,2.547,0,0,0,1.31,4.733H60.123a2.547,2.547,0,0,0,1.31-4.733Z" fill="#656769"></path><path d="M37.616,67.384a2.537,2.537,0,0,1,.951-1.009C41.026,64.9,44.679,63.661,50,63.661s8.974,1.243,11.433,2.714a2.537,2.537,0,0,1,.951,1.009,2.481,2.481,0,0,0,.2-.5,2.546,2.546,0,0,0-1.147-2.865C58.974,62.55,55.321,61.307,50,61.307s-8.974,1.243-11.433,2.714a2.545,2.545,0,0,0-1.147,2.865A2.481,2.481,0,0,0,37.616,67.384Z" fill="#525252"></path><path d="M75.035,56.8l-3.755-3.12a269.967,269.967,0,0,0-42.56,0l-3.627,3.013A328.058,328.058,0,0,1,75.035,56.8Z" fill="#ff866e"></path><path d="M34.527,71h-6.4a2.314,2.314,0,0,1-2.315-2.315v-1.3l6.682,1.16Z" fill="#656769" stroke="#45413c" stroke-linecap="round" stroke-linejoin="round"></path><path d="M65.473,71h6.4a2.314,2.314,0,0,0,2.315-2.315v-1.3l-6.682,1.16Z" fill="#656769" stroke="#45413c" stroke-linecap="round" stroke-linejoin="round"></path><path d="M71.28,53.681,67.555,42.945H32.445L28.72,53.681A269.967,269.967,0,0,1,71.28,53.681Z" fill="#00b8f0"></path><path d="M32.445,42.945,28.72,53.681c2.835-.223,5.67-.39,8.505-.524L47.436,42.945Z" fill="#4acfff"></path><path d="M66.861,41.052a2.318,2.318,0,0,0-1.978-1.511,176.5,176.5,0,0,0-29.763,0,2.317,2.317,0,0,0-1.982,1.511l-.693,1.89h35.11Z" fill="#ff6242" stroke="#45413c" stroke-linecap="round" stroke-linejoin="round"></path><path d="M71.28,53.681,67.555,42.945H32.445L28.72,53.681A269.967,269.967,0,0,1,71.28,53.681Z" fill="none" stroke="#45413c" stroke-linecap="round" stroke-linejoin="round"></path><path d="M25.809,59.8s9.967-.432,12.448,4.438" fill="none" stroke="#45413c" stroke-linecap="round" stroke-linejoin="round"></path><path d="M25.809,59.8s7.174-.311,10.864,2.569a5.911,5.911,0,0,1-5.354,1.313,1.161,1.161,0,0,0-.957.219l-1.254.978a1.158,1.158,0,0,1-1.166.151l-.726-.309a2.314,2.314,0,0,1-1.407-2.13Z" fill="#ffe500"></path><path d="M26.879 80.393 A23.153 1.736 0 1 0 73.185 80.393 A23.153 1.736 0 1 0 26.879 80.393 Z" fill="#45413c" opacity=".15"></path><path d="M35.368,63.281a5.208,5.208,0,0,0,1.3-.911C32.983,59.49,25.809,59.8,25.809,59.8v1.728S31.516,61.288,35.368,63.281Z" fill="#fff48c"></path><path d="M25.809,59.8s7.174-.311,10.864,2.569a5.911,5.911,0,0,1-5.354,1.313,1.161,1.161,0,0,0-.957.219l-1.254.978a1.158,1.158,0,0,1-1.166.151l-.726-.309a2.314,2.314,0,0,1-1.407-2.13Z" fill="none" stroke="#45413c" stroke-linecap="round" stroke-linejoin="round"></path><path d="M74.191,59.8s-9.967-.432-12.448,4.438" fill="none" stroke="#45413c" stroke-linecap="round" stroke-linejoin="round"></path><path d="M74.191,59.8s-7.174-.311-10.864,2.569a5.911,5.911,0,0,0,5.354,1.313,1.161,1.161,0,0,1,.957.219l1.254.978a1.158,1.158,0,0,0,1.166.151l.726-.309a2.314,2.314,0,0,0,1.407-2.13Z" fill="#ffe500"></path><path d="M64.632,63.281a5.208,5.208,0,0,1-1.305-.911c3.69-2.88,10.864-2.569,10.864-2.569v1.728S68.484,61.288,64.632,63.281Z" fill="#fff48c"></path><path d="M74.191,59.8s-7.174-.311-10.864,2.569a5.911,5.911,0,0,0,5.354,1.313,1.161,1.161,0,0,1,.957.219l1.254.978a1.158,1.158,0,0,0,1.166.151l.726-.309a2.314,2.314,0,0,0,1.407-2.13Z" fill="none" stroke="#45413c" stroke-linecap="round" stroke-linejoin="round"></path><path d="M61.31 63.948L51.996 63.948 50 65.609 48.004 63.948 38.69 63.948" fill="none" stroke="#ffffff" stroke-linejoin="round"></path><path d="M61.433,64.021C58.974,62.55,55.321,61.307,50,61.307s-8.974,1.243-11.433,2.714a2.547,2.547,0,0,0,1.31,4.733H60.123a2.547,2.547,0,0,0,1.31-4.733Z" fill="none" stroke="#45413c" stroke-linecap="round" stroke-linejoin="round"></path><path d="M56.358,6.528A1.633,1.633,0,0,0,54.9,4.166H49.112a1.634,1.634,0,0,0-1.437.858L41.206,17.037a1.633,1.633,0,0,0,1.437,2.407h6.669L46.7,30.785a.816.816,0,0,0,1.457.661L59.2,16.155a1.632,1.632,0,0,0-1.323-2.587H52.838Z" fill="#ffe500"></path><path d="M47.141,6.016l.534-.992a1.634,1.634,0,0,1,1.437-.858H54.9a1.633,1.633,0,0,1,1.46,2.362l-3.52,7.04h5.034A1.632,1.632,0,0,1,59.2,16.155L48.152,31.446a.816.816,0,0,1-1.457-.661l.241-1.046L55.41,18.006a1.632,1.632,0,0,0-1.323-2.588H50.2a.71.71,0,0,1-.634-1.027l3.006-6.012a1.633,1.633,0,0,0-1.46-2.363Z" fill="#fff48c"></path><path d="M56.358,6.528A1.633,1.633,0,0,0,54.9,4.166H49.112a1.634,1.634,0,0,0-1.437.858L41.206,17.037a1.633,1.633,0,0,0,1.437,2.407h6.669L46.7,30.785a.816.816,0,0,0,1.457.661L59.2,16.155a1.632,1.632,0,0,0-1.323-2.587H52.838Z" fill="none" stroke="#45413c" stroke-linecap="round" stroke-linejoin="round"></path><path d="M71.28,53.681a269.967,269.967,0,0,0-42.56,0l-5.387,4.477a4.629,4.629,0,0,0-1.672,3.561v9.557a2.316,2.316,0,0,0,2.316,2.315H76.023a2.316,2.316,0,0,0,2.316-2.315V61.719a4.629,4.629,0,0,0-1.672-3.561Z" fill="none" stroke="#45413c" stroke-linecap="round" stroke-linejoin="round"></path></g></svg>