<svg xmlns="http://www.w3.org/2000/svg" version="1.1" xmlns:xlink="http://www.w3.org/1999/xlink" xmlns:svgjs="http://svgjs.com/svgjs" viewBox="0 0 160 160" width="160" height="160"><g transform="matrix(1.6,0,0,1.6,0,0)"><path d="M10.280 50.000 A40.000 40.000 0 1 0 90.280 50.000 A40.000 40.000 0 1 0 10.280 50.000 Z" fill="#c7f0ff" stroke="#c7f0ff" stroke-miterlimit="10"></path><path d="M66.226,41.2H16.464a2,2,0,0,0-2,2V75.334H68.226V43.2A2,2,0,0,0,66.226,41.2Z" fill="#f0f0f0" stroke="#45413c" stroke-linecap="round" stroke-linejoin="round"></path><path d="M64.431 44.997L18.312 44.997 18.259 75.334 64.431 75.334 64.431 44.997z" fill="#ff6242"></path><path d="M52.994 44.997L20.42 75.334 18.259 75.334 18.312 44.997 52.994 44.997z" fill="#ff866e"></path><path d="M64.431 44.997L18.312 44.997 18.259 75.334 64.431 75.334 64.431 44.997z" fill="none" stroke="#45413c" stroke-linecap="round" stroke-linejoin="round"></path><path d="M16.045 82.649 A25.3 1.65 0 1 0 66.645 82.649 A25.3 1.65 0 1 0 16.045 82.649 Z" fill="#45413c" opacity=".15"></path><path d="M72.97,79.129H9.72v-2.8a1,1,0,0,1,1-1H71.97a1,1,0,0,1,1,1Z" fill="#f0f0f0" stroke="#45413c" stroke-linecap="round" stroke-linejoin="round"></path><path d="M72.97,79.129a65.766,65.766,0,0,1-18.064,2.53H27.784A65.777,65.777,0,0,1,9.72,79.129H72.97Z" fill="#bdbec0" stroke="#45413c" stroke-linecap="round" stroke-linejoin="round"></path><path d="M46.145,67.315a2.335,2.335,0,0,1-1.661-.688l-3.139-3.138-3.138,3.138A2.35,2.35,0,1,1,34.884,63.3l3.138-3.139-3.138-3.138A2.35,2.35,0,1,1,38.207,53.7l3.138,3.139L44.484,53.7a2.35,2.35,0,0,1,3.323,3.323l-3.139,3.138L47.807,63.3a2.35,2.35,0,0,1-1.662,4.011Z" fill="#ffffff" stroke="#e04122" stroke-linecap="round" stroke-linejoin="round"></path><path d="M44.920 15.655 L88.031 15.655 L88.031 50.002 L44.920 50.002 Z" fill="#4acfff"></path><path d="M71.567,15.655H48.261A3.341,3.341,0,0,0,44.92,19V42.3Z" fill="#80ddff"></path><path d="M44.920 15.655 L88.031 15.655 L88.031 50.002 L44.920 50.002 Z" fill="none" stroke="#45413c" stroke-linecap="round" stroke-linejoin="round"></path><path d="M84.69,15.655H48.261A3.341,3.341,0,0,0,44.92,19V23.6H88.031V19A3.341,3.341,0,0,0,84.69,15.655Z" fill="#ffffff"></path><path d="M84.69,15.655H48.261A3.341,3.341,0,0,0,44.92,19V23.6H88.031V19A3.341,3.341,0,0,0,84.69,15.655Z" fill="none" stroke="#45413c" stroke-linecap="round" stroke-linejoin="round"></path><path d="M48.261 19.608 A1.671 1.671 0 1 0 51.603 19.608 A1.671 1.671 0 1 0 48.261 19.608 Z" fill="#ff6242"></path><path d="M54.118 19.608 A1.671 1.671 0 1 0 57.460 19.608 A1.671 1.671 0 1 0 54.118 19.608 Z" fill="#ffe500"></path><path d="M59.975 19.608 A1.671 1.671 0 1 0 63.317 19.608 A1.671 1.671 0 1 0 59.975 19.608 Z" fill="#6dd627"></path><path d="M54.349 32.402 A1.650 1.650 0 1 0 57.649 32.402 A1.650 1.650 0 1 0 54.349 32.402 Z" fill="#45413c"></path><path d="M75.249 32.402 A1.650 1.650 0 1 0 78.549 32.402 A1.650 1.650 0 1 0 75.249 32.402 Z" fill="#45413c"></path><path d="M80.12,39.631a1.572,1.572,0,0,1-3.143,0c0-.868,1.572-3.929,1.572-3.929S80.12,38.763,80.12,39.631Z" fill="#b8ecff" stroke="#00658a" stroke-linecap="round" stroke-linejoin="round"></path><path d="M61.727,44.254a1.227,1.227,0,0,1-1.189-1.527,6.1,6.1,0,0,1,11.821,0,1.208,1.208,0,0,1-.221,1.053,1.222,1.222,0,0,1-.968.474,29.085,29.085,0,0,0-4.721-.61A29.1,29.1,0,0,0,61.727,44.254Z" fill="#ffa694" stroke="#45413c" stroke-linecap="round" stroke-linejoin="round" stroke-width="1.1"></path></g></svg>