<svg width="160" height="160" fill="none" xmlns="http://www.w3.org/2000/svg">
  <path d="M16 80c0 16.9739 6.7428 33.253 18.7452 45.255C46.7475 137.257 63.0261 144 80 144c16.9739 0 33.253-6.743 45.255-18.745C137.257 113.253 144 96.9739 144 80c0-16.9739-6.743-33.2525-18.745-45.2548C113.253 22.7428 96.9739 16 80 16c-16.9739 0-33.2525 6.7428-45.2548 18.7452C22.7428 46.7475 16 63.0261 16 80v0z" fill="#C7F0FF" stroke="#C7F0FF" stroke-width="1.6" stroke-miterlimit="10"/>
  <path fill-rule="evenodd" clip-rule="evenodd" d="M115.303 73.9394v12.1212c0 .5412-.359 1.0168-.879 1.1655l-33.9395 9.697a1.2137 1.2137 0 01-.666 0l-33.9394-9.697A1.2122 1.2122 0 0145 86.0606V73.9394c0-.499.293-.998.8791-1.1655l33.9394-9.697a1.2137 1.2137 0 01.666 0l33.9395 9.697c.586.1675.879.6665.879 1.1655zm-64.6787 0l29.5272 8.4363 29.5275-8.4363-29.5275-8.4364-29.5272 8.4364zm28.3151 10.6113l-31.5152-9.0044v9.6l31.5152 9.0043v-9.5999zm2.4242 0v9.5999l31.5154-9.0043v-9.6l-31.5154 9.0044zm0 22.6183v11.619c0 1.616-2.4242 1.616-2.4242 0v-11.619l-4.0917 4.091c-.4734.474-1.2408.474-1.7142 0-.4734-.473-.4734-1.24 0-1.714l6.1609-6.161c.4734-.473 1.2408-.473 1.7142 0l6.0606 6.061c.4734.473.4734 1.241 0 1.714-.4734.473-1.2408.473-1.7142 0l-3.9914-3.991zm-2.4242-54.3377V41.2121c0-.6694.5427-1.2121 1.2121-1.2121.6695 0 1.2121.5427 1.2121 1.2121v11.6192l3.9914-3.9914c.4734-.4734 1.2408-.4734 1.7142 0 .4734.4733.4734 1.2408 0 1.7142l-6.0606 6.0606c-.4734.4733-1.2408.4733-1.7142 0l-6.1609-6.1609c-.4734-.4734-.4734-1.2409 0-1.7142.4734-.4734 1.2408-.4734 1.7142 0l4.0917 4.0917z" fill="url(#paint0_linear)"/>
  <defs>
    <linearGradient id="paint0_linear" x1="80.1515" y1="40" x2="80.1515" y2="120" gradientUnits="userSpaceOnUse">
      <stop stop-color="#20F"/>
      <stop offset="1" stop-color="#9E00FF"/>
    </linearGradient>
  </defs>
</svg>
