<svg xmlns="http://www.w3.org/2000/svg" version="1.1" xmlns:xlink="http://www.w3.org/1999/xlink" xmlns:svgjs="http://svgjs.com/svgjs" viewBox="0 0 160 160" width="160" height="160"><g transform="matrix(1.6,0,0,1.6,0,0)"><path d="M6.925 50.000 A40.000 40.000 0 1 0 86.925 50.000 A40.000 40.000 0 1 0 6.925 50.000 Z" fill="#c7f0ff" stroke="#c7f0ff" stroke-miterlimit="10"></path><path d="M12.887 73.050 A27.733 1.997 0 1 0 68.353 73.050 A27.733 1.997 0 1 0 12.887 73.050 Z" fill="#45413c" opacity=".15"></path><path d="M66.594,29H14.645a2.316,2.316,0,0,0-2.315,2.315V64.918H68.909V31.313A2.316,2.316,0,0,0,66.594,29Z" fill="#ffffff"></path><path d="M66.594,29H39.708a21.9,21.9,0,0,0,29.2,28.3V31.313A2.316,2.316,0,0,0,66.594,29Z" fill="#e0e0e0"></path><path d="M64.915 32.992L16.379 32.992 16.324 64.918 64.915 64.918 64.915 32.992z" fill="#00b8f0"></path><path d="M52.878 32.992L18.598 64.918 16.324 64.918 16.379 32.992 52.878 32.992z" fill="#4acfff"></path><path d="M38.481,32.992A21.9,21.9,0,0,0,63.793,58.877q.566-.1,1.122-.229V32.992Z" fill="#00b8f0"></path><path d="M64.915 32.992L16.379 32.992 16.324 64.918 64.915 64.918 64.915 32.992z" fill="none" stroke="#45413c" stroke-linecap="round" stroke-linejoin="round"></path><path d="M73.9,68.911H7.338V66.075a1.157,1.157,0,0,1,1.157-1.157H72.744A1.157,1.157,0,0,1,73.9,66.075Z" fill="#f0f0f0" stroke="#45413c" stroke-linecap="round" stroke-linejoin="round"></path><path d="M73.9,68.912a69.207,69.207,0,0,1-19.01,2.662H26.348a69.212,69.212,0,0,1-19.01-2.662H73.9Z" fill="#bdbec0" stroke="#45413c" stroke-linecap="round" stroke-linejoin="round"></path><path d="M66.594,29H14.645a2.316,2.316,0,0,0-2.315,2.315V64.918H68.909V31.313A2.316,2.316,0,0,0,66.594,29Z" fill="none" stroke="#45413c" stroke-linecap="round" stroke-linejoin="round"></path><path d="M21.282 36.674 L62.243 36.674 L62.243 60.244 L21.282 60.244 Z" fill="#ffffff"></path><path d="M62.243,44.4H39.238a21.855,21.855,0,0,0,20.7,14.814,22.128,22.128,0,0,0,2.241-.115,1.6,1.6,0,0,0,.061-.434Z" fill="#e0e0e0"></path><path d="M62.243,44.4V38.249a1.575,1.575,0,0,0-1.576-1.575H22.857a1.575,1.575,0,0,0-1.575,1.575V44.4Z" fill="#ffffff"></path><path d="M38.4,41.143a22.264,22.264,0,0,0,.839,3.261H62.243V38.249a1.575,1.575,0,0,0-1.575-1.575h-22.6A22.133,22.133,0,0,0,38.4,41.143Z" fill="#e0e0e0"></path><path d="M26.243 48.031 L57.282 48.031 L57.282 53.495 L26.243 53.495 Z" fill="none" stroke="#45413c" stroke-linecap="round" stroke-linejoin="round"></path><path d="M21.282 44.404L62.243 44.404" fill="none" stroke="#45413c" stroke-linecap="round" stroke-linejoin="round"></path><path d="M21.282 36.674 L62.243 36.674 L62.243 60.244 L21.282 60.244 Z" fill="none" stroke="#45413c" stroke-linecap="round" stroke-linejoin="round"></path><path d="M73.134 45.518H78.9V52.243H73.134z" fill="#adc4d9" stroke="#45413c" stroke-linecap="round" stroke-linejoin="round" transform="translate(-6.716 85.254) rotate(-56.475)"></path><path d="M91.354,54.43a3.843,3.843,0,0,1-4.245,6.407L77.5,54.47a.96.96,0,0,1-.27-1.331l3.183-4.8a.961.961,0,0,1,1.332-.271Z" fill="#bf8256"></path><path d="M91.4,60.808a3.84,3.84,0,0,0-1.638-3.975l-9.61-6.367a.962.962,0,0,0-1.332.27l1.592-2.4a.961.961,0,0,1,1.332-.271l9.61,6.367a3.846,3.846,0,0,1,.046,6.378Z" fill="#dea47a"></path><path d="M91.354,54.43a3.843,3.843,0,0,1-4.245,6.407L77.5,54.47a.96.96,0,0,1-.27-1.331l3.183-4.8a.961.961,0,0,1,1.332-.271Z" fill="none" stroke="#45413c" stroke-linecap="round" stroke-linejoin="round"></path><path d="M41.767 36.866 A18.429 18.429 0 1 0 78.625 36.866 A18.429 18.429 0 1 0 41.767 36.866 Z" fill="#c7f0ff"></path><path d="M77.775,31.328A18.424,18.424,0,0,0,44.017,45.693q-.423-.778-.778-1.611A18.429,18.429,0,0,1,77.153,29.65c.237.555.444,1.116.622,1.679" fill="#ffffff"></path><path d="M41.767 36.866 A18.429 18.429 0 1 0 78.625 36.866 A18.429 18.429 0 1 0 41.767 36.866 Z" fill="none" stroke="#45413c" stroke-linecap="round" stroke-linejoin="round"></path><path d="M45.797 36.866 A14.480 14.480 0 1 0 74.757 36.866 A14.480 14.480 0 1 0 45.797 36.866 Z" fill="#80ddff" transform="translate(10.549 87.061) rotate(-76.718)"></path><path d="M50.039,47.105A14.48,14.48,0,0,1,70.516,26.627Z" fill="#b8ecff"></path><path d="M46.039,39.508H65.991V34.872a2.316,2.316,0,0,0-2.316-2.315H46.45a14.579,14.579,0,0,0-.411,6.951Z" fill="#c7f0ff" stroke="#45413c" stroke-linecap="round" stroke-linejoin="round"></path><path d="M46.039,39.508A14.479,14.479,0,0,0,59.076,51.3q.594.05,1.2.05a14.441,14.441,0,0,0,5.714-1.171V39.508Z" fill="#ffffff" stroke="#45413c" stroke-linecap="round" stroke-linejoin="round"></path><path d="M59.076,51.3V46.072a1.157,1.157,0,0,0-1.158-1.157H48.239A14.472,14.472,0,0,0,59.076,51.3Z" fill="none" stroke="#45413c" stroke-linecap="round" stroke-linejoin="round"></path><path d="M45.797 36.866 A14.480 14.480 0 1 0 74.757 36.866 A14.480 14.480 0 1 0 45.797 36.866 Z" fill="none" stroke="#45413c" stroke-linecap="round" stroke-linejoin="round" transform="translate(10.549 87.061) rotate(-76.718)"></path><path d="M23.507 40.591 A1.419 1.419 0 1 0 26.345 40.591 A1.419 1.419 0 1 0 23.507 40.591 Z" fill="#ff6242"></path><path d="M29.043 40.591 A1.419 1.419 0 1 0 31.881 40.591 A1.419 1.419 0 1 0 29.043 40.591 Z" fill="#ffe500"></path><path d="M34.579 40.591 A1.419 1.419 0 1 0 37.417 40.591 A1.419 1.419 0 1 0 34.579 40.591 Z" fill="#6dd627"></path></g></svg>