<svg xmlns="http://www.w3.org/2000/svg" version="1.1" xmlns:xlink="http://www.w3.org/1999/xlink" xmlns:svgjs="http://svgjs.com/svgjs" viewBox="0 0 160 160" width="160" height="160"><g transform="matrix(1.6,0,0,1.6,0,0)"><path d="M10.000 50.000 A40.000 40.000 0 1 0 90.000 50.000 A40.000 40.000 0 1 0 10.000 50.000 Z" fill="#c7f0ff" stroke="#ace5fa" stroke-miterlimit="10"></path><path d="M39.444,21.518a3.126,3.126,0,0,0-1.13.218,5.209,5.209,0,0,0-10.293,0,3.135,3.135,0,1,0-1.13,6.058H39.444a3.138,3.138,0,1,0,0-6.276Z" fill="#ffffff" stroke="#45413c" stroke-linejoin="round"></path><path d="M84.949,29.1a3.116,3.116,0,0,0-1.129.218,5.21,5.21,0,0,0-10.294,0,3.135,3.135,0,1,0-1.13,6.059H84.949a3.139,3.139,0,1,0,0-6.277Z" fill="#ffffff" stroke="#45413c" stroke-linejoin="round"></path><path d="M46.438,56.562,60.289,37.608a1.308,1.308,0,0,1,2.112,0L76.252,56.562Z" fill="#bf8256"></path><path d="M60.371,42.2a1.207,1.207,0,0,1,1.948,0L72.812,56.562h3.44L62.4,37.608a1.308,1.308,0,0,0-2.112,0L46.438,56.562h3.44Z" fill="#dea47a"></path><path d="M46.438,56.562,60.289,37.608a1.308,1.308,0,0,1,2.112,0L76.252,56.562Z" fill="none" stroke="#45413c" stroke-linecap="round" stroke-linejoin="round"></path><path d="M38.986,56.562,51.328,42.043a1.306,1.306,0,0,1,1.992,0L65.662,56.562Z" fill="#bf8256"></path><path d="M51.405,46.659a1.206,1.206,0,0,1,1.838,0l8.418,9.9h4L53.321,42.043a1.308,1.308,0,0,0-1.993,0L38.987,56.562h4Z" fill="#dea47a"></path><path d="M38.987,56.562,51.328,42.043a1.308,1.308,0,0,1,1.993,0L65.662,56.562Z" fill="none" stroke="#45413c" stroke-linecap="round" stroke-linejoin="round"></path><path d="M28.918 56.562L28.918 50.285" fill="none" stroke="#45413c" stroke-linecap="round" stroke-linejoin="round"></path><path d="M35.194 45.578L30.487 40.086 33.625 40.086 28.918 34.594 24.21 40.086 27.349 40.086 22.641 45.578 26.564 45.578 22.641 50.285 28.918 50.285 35.194 50.285 31.271 45.578 35.194 45.578z" fill="#6dd627" stroke="#45413c" stroke-linecap="round" stroke-linejoin="round"></path><path d="M23.952,56.562a1.209,1.209,0,0,0-1.2,1.3,27.43,27.43,0,0,0,54.706,0,1.207,1.207,0,0,0-1.2-1.3Z" fill="#00b8f0"></path><path d="M76.6,56.615a27.431,27.431,0,0,1-53,0,1.207,1.207,0,0,0-.853,1.243,27.43,27.43,0,0,0,54.706,0,1.206,1.206,0,0,0-.852-1.245Z" fill="#009fd9"></path><path d="M23.952,56.562a1.209,1.209,0,0,0-1.2,1.3,27.43,27.43,0,0,0,54.706,0,1.207,1.207,0,0,0-1.2-1.3Z" fill="none" stroke="#45413c" stroke-linecap="round" stroke-linejoin="round"></path><path d="M34.41,56.562a3.139,3.139,0,1,0,0,6.277,3.2,3.2,0,0,1,3.056,2.246l2.626,8.4a2.713,2.713,0,0,0,5.3-.809V70.471a8.952,8.952,0,0,1,2.623-6.332,4.439,4.439,0,0,0-3.139-7.577Z" fill="#6dd627" stroke="#45413c" stroke-linecap="round" stroke-linejoin="round"></path><path d="M71.285,73.2V68.091a4.467,4.467,0,0,0-4.468-4.468A3.379,3.379,0,0,0,63.439,67a3.379,3.379,0,0,1-2.865,3.339l-.832.127A8.646,8.646,0,0,0,52.471,78l-.6,5.147A27.325,27.325,0,0,0,71.285,73.2Z" fill="#6dd627"></path><path d="M71.285,68.09a4.434,4.434,0,0,0-.114-1A27.36,27.36,0,0,1,52.689,76.84,8.742,8.742,0,0,0,52.471,78l-.6,5.147A27.325,27.325,0,0,0,71.285,73.2Z" fill="#46b000"></path><path d="M71.285,73.2V68.091a4.467,4.467,0,0,0-4.468-4.468A3.379,3.379,0,0,0,63.439,67a3.379,3.379,0,0,1-2.865,3.339l-.832.127A8.646,8.646,0,0,0,52.471,78l-.6,5.147A27.325,27.325,0,0,0,71.285,73.2Z" fill="none" stroke="#45413c" stroke-linecap="round" stroke-linejoin="round"></path><path d="M43.04 56.562L43.04 51.855" fill="none" stroke="#45413c" stroke-linecap="round" stroke-linejoin="round"></path><path d="M49.317 47.147L44.609 41.655 47.748 41.655 43.04 36.163 38.333 41.655 41.471 41.655 36.764 47.147 40.686 47.147 36.764 51.855 43.04 51.855 49.317 51.855 45.394 47.147 49.317 47.147z" fill="#6dd627" stroke="#45413c" stroke-linecap="round" stroke-linejoin="round"></path></g></svg>