<svg xmlns="http://www.w3.org/2000/svg" version="1.1" xmlns:xlink="http://www.w3.org/1999/xlink" xmlns:svgjs="http://svgjs.com/svgjs" viewBox="0 0 160 160" width="160" height="160"><g transform="matrix(1.6,0,0,1.6,0,0)"><path d="M90,50A40,40,0,1,0,13.564,66.5H86.436A39.844,39.844,0,0,0,90,50Z" fill="#c7f0ff"></path><path d="M13.564,66.5a40,40,0,0,0,72.872,0Z" fill="#ccf7ad"></path><path d="M11 66.5L89 66.5" fill="none" stroke="#45413c" stroke-linecap="round" stroke-linejoin="round"></path><path d="M6.5 66.5L9 66.5" fill="none" stroke="#45413c" stroke-linecap="round" stroke-linejoin="round"></path><path d="M91 66.5L93.5 66.5" fill="none" stroke="#45413c" stroke-linecap="round" stroke-linejoin="round"></path><path d="M55.821 38.221L55.821 51.458" fill="none" stroke="#45413c" stroke-linecap="round" stroke-linejoin="round"></path><path d="M48 51.458H63.644V66.5H48z" fill="none" stroke="#45413c" stroke-linecap="round" stroke-linejoin="round"></path><path d="M51.008 51.458H53.415000000000006V66.5H51.008z" fill="#f7e5c6" stroke="#45413c" stroke-linecap="round" stroke-linejoin="round"></path><path d="M58.229 51.458H60.635V66.5H58.229z" fill="#f7e5c6" stroke="#45413c" stroke-linecap="round" stroke-linejoin="round"></path><path d="M81.092,66.5H63.644V51.458H80.092a1,1,0,0,1,1,1Z" fill="#bf8256" stroke="#45413c" stroke-linecap="round" stroke-linejoin="round"></path><path d="M81.092,54.467H63.644V51.458H80.092a1,1,0,0,1,1,1Z" fill="#bf8256" stroke="#45413c" stroke-linecap="round" stroke-linejoin="round"></path><path d="M63.644 54.467H81.092V57.475H63.644z" fill="#bf8256" stroke="#45413c" stroke-linecap="round" stroke-linejoin="round"></path><path d="M63.644 57.475H81.092V60.484H63.644z" fill="#bf8256" stroke="#45413c" stroke-linecap="round" stroke-linejoin="round"></path><path d="M63.644 60.483H81.092V63.492H63.644z" fill="#bf8256" stroke="#45413c" stroke-linecap="round" stroke-linejoin="round"></path><path d="M63.644 63.492H81.092V66.5H63.644z" fill="#bf8256" stroke="#45413c" stroke-linecap="round" stroke-linejoin="round"></path><path d="M48 51.458L55.821 38.221 63.644 51.458 48 51.458z" fill="none" stroke="#45413c" stroke-linecap="round" stroke-linejoin="round"></path><path d="M55.821 38.221L76.278 38.221" fill="none" stroke="#45413c" stroke-linecap="round" stroke-linejoin="round"></path><path d="M58.31 42.433L78.084 42.433" fill="none" stroke="#45413c" stroke-linecap="round" stroke-linejoin="round"></path><path d="M50.844 46.645L80.49 46.645" fill="none" stroke="#45413c" stroke-linecap="round" stroke-linejoin="round"></path><path d="M62.44 38.221L70.863 51.458" fill="none" stroke="#45413c" stroke-linecap="round" stroke-linejoin="round"></path><path d="M69.66 38.221L78.084 51.458" fill="none" stroke="#45413c" stroke-linecap="round" stroke-linejoin="round"></path><path d="M52.212 44.331L52.212 51.458" fill="none" stroke="#45413c" stroke-linecap="round" stroke-linejoin="round"></path><path d="M59.432 44.331L59.432 51.458" fill="none" stroke="#45413c" stroke-linecap="round" stroke-linejoin="round"></path><path d="M75.677,21.976a2.394,2.394,0,0,0-3.273-2.24,4,4,0,0,0-7.894,0,2.4,2.4,0,1,0-.866,4.647h9.627A2.407,2.407,0,0,0,75.677,21.976Z" fill="#ffffff" stroke="#45413c" stroke-linecap="round" stroke-linejoin="round"></path><path d="M75.677,21.976a2.394,2.394,0,0,0-3.273-2.24,4,4,0,0,0-7.894,0,2.4,2.4,0,1,0-.866,4.647h9.627A2.407,2.407,0,0,0,75.677,21.976Z" fill="#ffffff" stroke="#45413c" stroke-linecap="round" stroke-linejoin="round"></path><path d="M45.062,39.881A7.467,7.467,0,0,0,50.8,27.634l-2.319-2.782A2.368,2.368,0,0,0,46.648,24a2.384,2.384,0,0,0-1.831,3.91l2.318,2.781a2.7,2.7,0,0,1-2.073,4.429h-.8v4.766Z" fill="#d18660" stroke="#45413c" stroke-linecap="round" stroke-linejoin="round"></path><path d="M44.264,35.115h-13.5A12.708,12.708,0,0,0,18.053,47.823v1.589h4.766V59.738H40.292V41.2a1.32,1.32,0,0,1,1.321-1.32h2.651Z" fill="#f0f0f0"></path><path d="M37.437,80.389a7.251,7.251,0,0,1,2.855.557v-22.8H22.819v22.24h3.5a7.282,7.282,0,0,1,2.827.544L29.9,66.885a1.659,1.659,0,0,1,3.315,0l.725,13.5Z" fill="#9ceb60"></path><path d="M22.819 59.738H40.292V62.914H22.819z" fill="#6dd627"></path><path d="M37.437,80.389a7.251,7.251,0,0,1,2.855.557v-22.8H22.819v22.24h3.5a7.282,7.282,0,0,1,2.827.544L29.9,66.885a1.659,1.659,0,0,1,3.315,0l.725,13.5Z" fill="none" stroke="#45413c" stroke-linecap="round" stroke-linejoin="round"></path><path d="M30.762,35.115A12.708,12.708,0,0,0,18.053,47.823v1.589h.063A12.708,12.708,0,0,1,30.762,37.957h13.5V35.115Z" fill="#ffffff"></path><path d="M44.264,35.115h-13.5A12.708,12.708,0,0,0,18.053,47.823v1.589h4.766V59.738H40.292V41.2a1.32,1.32,0,0,1,1.321-1.32h2.651Z" fill="none" stroke="#45413c" stroke-linecap="round" stroke-linejoin="round"></path><path d="M19.743 85.020 A13.201 1.98 0 1 0 46.145 85.020 A13.201 1.98 0 1 0 19.743 85.020 Z" fill="#45413c" opacity=".15"></path><path d="M42.676,84.36c0-2.844-2.781-3.971-5.239-3.971h-3.5V83.04a1.32,1.32,0,0,0,1.321,1.32Z" fill="#915e3a" stroke="#45413c" stroke-linecap="round" stroke-linejoin="round"></path><path d="M31.556,84.36c0-2.844-2.78-3.971-5.239-3.971h-3.5V83.04a1.32,1.32,0,0,0,1.32,1.32Z" fill="#915e3a" stroke="#45413c" stroke-linecap="round" stroke-linejoin="round"></path><path d="M22.819 49.412L22.819 44.646" fill="#00b8f0" stroke="#45413c" stroke-linecap="round" stroke-linejoin="round"></path><path d="M8.522 27.967 L68.093 27.967 L68.093 31.938 L8.522 31.938 Z" fill="#debb7e"></path><path d="M68.093,28.967a1,1,0,0,0-1-1H9.522a1,1,0,0,0-1,1v1.651a1.35,1.35,0,0,0,.041.327,1.321,1.321,0,0,1,1.28-.992h56.93a1.321,1.321,0,0,1,1.279.992,1.3,1.3,0,0,0,.041-.327Z" fill="#f0d5a8"></path><path d="M64.121,27.967H12.493V25a1,1,0,0,1,1-1H63.121a1,1,0,0,1,1,1Z" fill="#debb7e"></path><path d="M64.121,25a1,1,0,0,0-1-1H13.493a1,1,0,0,0-1,1v2.349a1.32,1.32,0,0,1,1.32-1.32H62.8a1.32,1.32,0,0,1,1.32,1.32Z" fill="#f0d5a8"></path><path d="M8.522 27.967 L68.093 27.967 L68.093 31.938 L8.522 31.938 Z" fill="none" stroke="#45413c" stroke-linecap="round" stroke-linejoin="round"></path><path d="M64.121,27.967H12.493V25a1,1,0,0,1,1-1H63.121a1,1,0,0,1,1,1Z" fill="none" stroke="#45413c" stroke-linecap="round" stroke-linejoin="round"></path><path d="M37.910 68.475 L42.676 68.475 L42.676 75.623 L37.910 75.623 Z" fill="#9ceb60" stroke="#45413c" stroke-linecap="round" stroke-linejoin="round"></path><path d="M37.91 71.651L42.676 71.651" fill="#9ceb60" stroke="#45413c" stroke-linecap="round" stroke-linejoin="round"></path><path d="M22.025 68.475 L26.790 68.475 L26.790 75.623 L22.025 75.623 Z" fill="#9ceb60" stroke="#45413c" stroke-linecap="round" stroke-linejoin="round"></path><path d="M22.025 71.651L26.79 71.651" fill="#9ceb60" stroke="#45413c" stroke-linecap="round" stroke-linejoin="round"></path><path d="M35.448,35.115H34.3l.005-5.64H29.041l0,5.772a13.7,13.7,0,0,0-1.412.274,3.862,3.862,0,0,0-.039.388,3.972,3.972,0,1,0,7.943,0A4.072,4.072,0,0,0,35.448,35.115Z" fill="#d18660" stroke="#45413c" stroke-linecap="round" stroke-linejoin="round"></path><path d="M34.3 35.115H37.477999999999994V58.148H34.3z" fill="#ff8a14" stroke="#45413c" stroke-linecap="round" stroke-linejoin="round"></path><path d="M29.035,35.225A13.222,13.222,0,0,0,26,36.047v22.1h3.039Z" fill="#ff8a14" stroke="#45413c" stroke-linecap="round" stroke-linejoin="round"></path><path d="M25.201 43.058 L29.967 43.058 L29.967 46.234 L25.201 46.234 Z" fill="#c0dceb" stroke="#45413c" stroke-linecap="round" stroke-linejoin="round"></path><path d="M33.508 43.058 L38.273 43.058 L38.273 46.234 L33.508 46.234 Z" fill="#c0dceb" stroke="#45413c" stroke-linecap="round" stroke-linejoin="round"></path><path d="M22.82 56.56H40.293V59.738H22.82z" fill="#ff8a14" stroke="#45413c" stroke-linecap="round" stroke-linejoin="round"></path><path d="M22.819,49.412v2.382c0,4.81,1.248,8.085,3.812,10.008a2.383,2.383,0,0,1-2.858,3.813c-3.8-2.845-5.72-7.494-5.72-13.821V49.412Z" fill="#d18660" stroke="#45413c" stroke-linecap="round" stroke-linejoin="round"></path><path d="M31.556,14.727a7.943,7.943,0,0,0-7.943,7.943v1.589c-2.267,0-2.111,3.971.4,3.971h.007A7.92,7.92,0,0,0,39.5,25.847V22.67A7.942,7.942,0,0,0,31.556,14.727Z" fill="#d18660" stroke="#45413c" stroke-linecap="round" stroke-linejoin="round"></path><path d="M31.159,24.457a.993.993,0,1,1-.993-.992A.994.994,0,0,1,31.159,24.457Z" fill="#45413c"></path><path d="M37.116,24.457a.993.993,0,1,1-.993-.992A.994.994,0,0,1,37.116,24.457Z" fill="#45413c"></path><path d="M29.173,27.634a.794.794,0,1,1-.794-.794A.794.794,0,0,1,29.173,27.634Z" fill="#bd704a"></path><path d="M31.159,28.95a2.98,2.98,0,0,0,3.505.328,3.657,3.657,0,0,0,.467-.328" fill="none" stroke="#45413c" stroke-linecap="round" stroke-linejoin="round"></path><path d="M23.613,22.67v1.589A7.171,7.171,0,0,0,30.4,14.811,7.944,7.944,0,0,0,23.613,22.67Z" fill="#724f3d" stroke="#45413c" stroke-miterlimit="10"></path><path d="M23.188,21.082c0-4.757,3.429-8.737,8.186-8.737a9.092,9.092,0,0,1,9.038,8.737" fill="#009fd9"></path><path d="M31.374,15.575a9.318,9.318,0,0,1,8.4,5.507h.638a9.092,9.092,0,0,0-9.038-8.737c-4.757,0-8.186,3.98-8.186,8.737h.638C25.105,17.928,27.762,15.575,31.374,15.575Z" fill="#00b8f0"></path><path d="M23.188 21.082L46.648 21.082" fill="#ffcebf" stroke="#45413c" stroke-linecap="round" stroke-linejoin="round"></path><path d="M23.188,21.082c0-4.757,3.429-8.737,8.186-8.737a9.092,9.092,0,0,1,9.038,8.737Z" fill="none" stroke="#45413c" stroke-linecap="round" stroke-linejoin="round"></path></g></svg>