<?xml version="1.0" ?><svg height="66" viewBox="0 0 58 66" width="58" xmlns="http://www.w3.org/2000/svg"><path d="M599,205 L599,205 L599,215 C599,215.44648 598.704023,215.838866 598.274721,215.961524 L570.274721,223.961524 C570.095166,224.012825 569.904834,224.012825 569.725279,223.961524 L541.725279,215.961524 C541.295977,215.838866 541,215.44648 541,215 L541,205 C541,204.588312 541.24176,204.176624 541.725279,204.038476 L569.725279,196.038476 C569.904834,195.987175 570.095166,195.987175 570.274721,196.038476 L598.274721,204.038476 C598.75824,204.176624 599,204.588312 599,205 Z M545.640055,205 L570,211.959984 L594.359945,205 L570,198.040016 L545.640055,205 Z M569,213.754301 L543,206.32573 L543,214.245699 L569,221.67427 L569,213.754301 Z M571,213.754301 L571,221.67427 L597,214.245699 L597,206.32573 L571,213.754301 Z M571,232.414214 L571,242 C571,243.333333 569,243.333333 569,242 L569,232.414214 L565.624344,235.789869 C565.23382,236.180394 564.600655,236.180394 564.210131,235.789869 C563.819606,235.399345 563.819606,234.76618 564.210131,234.375656 L569.292893,229.292893 C569.683418,228.902369 570.316582,228.902369 570.707107,229.292893 L575.707107,234.292893 C576.097631,234.683418 576.097631,235.316582 575.707107,235.707107 C575.316582,236.097631 574.683418,236.097631 574.292893,235.707107 L571,232.414214 Z M569,187.585786 L569,178 C569,177.447715 569.447715,177 570,177 C570.552285,177 571,177.447715 571,178 L571,187.585786 L574.292893,184.292893 C574.683418,183.902369 575.316582,183.902369 575.707107,184.292893 C576.097631,184.683418 576.097631,185.316582 575.707107,185.707107 L570.707107,190.707107 C570.316582,191.097631 569.683418,191.097631 569.292893,190.707107 L564.210131,185.624344 C563.819606,185.23382 563.819606,184.600655 564.210131,184.210131 C564.600655,183.819606 565.23382,183.819606 565.624344,184.210131 L569,187.585786 Z" fill="#000000" fill-rule="evenodd" transform="translate(-541 -177)"/></svg>