<svg xmlns="http://www.w3.org/2000/svg" version="1.1" xmlns:xlink="http://www.w3.org/1999/xlink" xmlns:svgjs="http://svgjs.com/svgjs" viewBox="0 0 160 160" width="160" height="160"><g transform="matrix(1.6,0,0,1.6,0,0)"><path d="M10.000 50.000 A40.000 40.000 0 1 0 90.000 50.000 A40.000 40.000 0 1 0 10.000 50.000 Z" fill="#c7f0ff" stroke="#c7f0ff" stroke-miterlimit="10"></path><path d="M59.587,84.38V76.332a3.382,3.382,0,0,1,1.324-2.683c3.063-2.348,5.43-6.188,7.61-11.546V47.744l-32.94-5.7v26.9L37.8,70.693A5.147,5.147,0,0,1,39.8,74.772h0V84.38" fill="#ffda8f" stroke="#45413c" stroke-miterlimit="10"></path><path d="M68.22,20.4a2.619,2.619,0,0,1,2.611,2.612V62.5a3.611,3.611,0,0,1-3.6,3.6H39.177a3.611,3.611,0,0,1-3.6-3.6V23.007A2.619,2.619,0,0,1,38.189,20.4Z" fill="#656769" stroke="#45413c" stroke-linecap="round" stroke-linejoin="round"></path><path d="M70.831,62.5a3.6,3.6,0,0,1-3.6,3.6H39.177a3.6,3.6,0,0,1-3.6-3.6V34.1H70.831Z" fill="#c7f0ff" stroke="#45413c" stroke-miterlimit="10"></path><path d="M41.453 23.659 L65.608 23.659 L65.608 30.840 L41.453 30.840 Z" fill="#00b8f0"></path><path d="M41.453 23.659 L65.608 23.659 L65.608 30.840 L41.453 30.840 Z" fill="none" stroke="#45413c" stroke-linecap="round" stroke-linejoin="round"></path><path d="M38.842 38.022 L44.065 38.022 L44.065 41.939 L38.842 41.939 Z" fill="#ffffff" stroke="#45413c" stroke-linecap="round" stroke-linejoin="round"></path><path d="M38.842 44.551 L44.065 44.551 L44.065 48.468 L38.842 48.468 Z" fill="#ffffff" stroke="#45413c" stroke-linecap="round" stroke-linejoin="round"></path><path d="M38.842 51.079 L44.065 51.079 L44.065 54.996 L38.842 54.996 Z" fill="#ffffff" stroke="#45413c" stroke-linecap="round" stroke-linejoin="round"></path><path d="M38.842 57.607 L44.065 57.607 L44.065 61.524 L38.842 61.524 Z" fill="#ffffff" stroke="#45413c" stroke-linecap="round" stroke-linejoin="round"></path><path d="M46.676 38.022 L51.899 38.022 L51.899 41.939 L46.676 41.939 Z" fill="#ffffff" stroke="#45413c" stroke-linecap="round" stroke-linejoin="round"></path><path d="M46.676 44.551 L51.899 44.551 L51.899 48.468 L46.676 48.468 Z" fill="#ffffff" stroke="#45413c" stroke-linecap="round" stroke-linejoin="round"></path><path d="M46.676 51.079 L51.899 51.079 L51.899 54.996 L46.676 54.996 Z" fill="#ffffff" stroke="#45413c" stroke-linecap="round" stroke-linejoin="round"></path><path d="M46.676 57.607 L51.899 57.607 L51.899 61.524 L46.676 61.524 Z" fill="#ffffff" stroke="#45413c" stroke-linecap="round" stroke-linejoin="round"></path><path d="M54.510 38.022 L59.733 38.022 L59.733 41.939 L54.510 41.939 Z" fill="#ffffff" stroke="#45413c" stroke-linecap="round" stroke-linejoin="round"></path><path d="M54.510 44.551 L59.733 44.551 L59.733 48.468 L54.510 48.468 Z" fill="#ffffff" stroke="#45413c" stroke-linecap="round" stroke-linejoin="round"></path><path d="M54.510 51.079 L59.733 51.079 L59.733 54.996 L54.510 54.996 Z" fill="#ffffff" stroke="#45413c" stroke-linecap="round" stroke-linejoin="round"></path><path d="M54.510 57.607 L59.733 57.607 L59.733 61.524 L54.510 61.524 Z" fill="#ffffff" stroke="#45413c" stroke-linecap="round" stroke-linejoin="round"></path><path d="M62.344 38.022 L67.567 38.022 L67.567 41.939 L62.344 41.939 Z" fill="#ff6242" stroke="#45413c" stroke-linecap="round" stroke-linejoin="round"></path><path d="M62.344 44.551 L67.567 44.551 L67.567 48.468 L62.344 48.468 Z" fill="#ffe500" stroke="#45413c" stroke-linecap="round" stroke-linejoin="round"></path><path d="M62.344 51.079 L67.567 51.079 L67.567 61.525 L62.344 61.525 Z" fill="#6dd627" stroke="#45413c" stroke-miterlimit="10"></path><path d="M68.22,20.4a2.619,2.619,0,0,1,2.611,2.612V62.5a3.611,3.611,0,0,1-3.6,3.6H39.177a3.611,3.611,0,0,1-3.6-3.6V23.007A2.619,2.619,0,0,1,38.189,20.4Z" fill="none" stroke="#45413c" stroke-linecap="round" stroke-linejoin="round"></path><path d="M70.792,66.27s-.046-.046-.138-.12" fill="#ffdcd1"></path><path d="M35.581,43.732a3.379,3.379,0,0,0-6.757,0V58.385a10.979,10.979,0,0,0,4.285,8.7L37.8,70.693A5.144,5.144,0,0,1,39.8,74.772h6.757V65.481A10.98,10.98,0,0,0,35.581,54.5V43.732" fill="#ffda8f"></path><path d="M46.561,68.182v-2.7A10.98,10.98,0,0,0,35.581,54.5V43.732a3.374,3.374,0,0,0-6.747-.1,3.5,3.5,0,0,1,.412-.041,3.378,3.378,0,0,1,3.379,3.378v9.013a1.9,1.9,0,0,0,1.621,1.875,10.942,10.942,0,0,1,8.875,7.748A3.586,3.586,0,0,0,46.561,68.182Z" fill="#ffe9bd"></path><path d="M46.561,68.015V65.481A10.98,10.98,0,0,0,35.581,54.5V43.732" fill="none" stroke="#45413c" stroke-linecap="round" stroke-linejoin="round"></path><path d="M39.8,74.772A5.144,5.144,0,0,0,37.8,70.693l-4.686-3.605a10.979,10.979,0,0,1-4.285-8.7V43.732a3.379,3.379,0,0,1,6.757,0" fill="none" stroke="#45413c" stroke-linejoin="round"></path></g></svg>