<svg xmlns="http://www.w3.org/2000/svg" version="1.1" xmlns:xlink="http://www.w3.org/1999/xlink" xmlns:svgjs="http://svgjs.com/svgjs" viewBox="0 0 160 160" width="160" height="160"><g transform="matrix(1.6,0,0,1.6,0,0)"><path d="M10.000 49.034 A40.000 40.000 0 1 0 90.000 49.034 A40.000 40.000 0 1 0 10.000 49.034 Z" fill="#c7f0ff" stroke="#c7f0ff" stroke-miterlimit="10"></path><path d="M61.029,88.843a6.808,6.808,0,0,1-4.684-4.681,6.178,6.178,0,0,1-.142-.775,8.315,8.315,0,0,0,2.019.984c3.127,1.043,4.809-.138,5.535-.935a5.017,5.017,0,0,0,.71-5.271,4,4,0,0,0-3.708-2.5,6.8,6.8,0,0,0-5.288,2.668q-.181.233-.341.474a10.746,10.746,0,0,1-.918-3.649,1.1,1.1,0,0,0-2.184.167A12.317,12.317,0,0,0,54.1,81.339a7.754,7.754,0,0,0,.118,3.354,9.019,9.019,0,0,0,6.273,6.273Zm1.107-6.881c-.812.891-2.2.671-3.221.332a6.045,6.045,0,0,1-2.386-1.46,4.855,4.855,0,0,1,.668-1.153,4.6,4.6,0,0,1,3.562-1.824,1.815,1.815,0,0,1,1.7,1.193A2.808,2.808,0,0,1,62.136,81.962Z" fill="#f0f0f0"></path><path d="M55.13,78.808a7.036,7.036,0,0,0,1.4,2.026" fill="none" stroke="#45413c" stroke-linecap="round" stroke-linejoin="round"></path><path d="M56.2,83.387a8.273,8.273,0,0,1-2.1-2.048" fill="none" stroke="#45413c" stroke-linecap="round" stroke-linejoin="round"></path><path d="M61.029,88.843a6.808,6.808,0,0,1-4.684-4.681,6.178,6.178,0,0,1-.142-.775,8.315,8.315,0,0,0,2.019.984c3.127,1.043,4.809-.138,5.535-.935a5.017,5.017,0,0,0,.71-5.271,4,4,0,0,0-3.708-2.5,6.8,6.8,0,0,0-5.288,2.668q-.181.233-.341.474a10.746,10.746,0,0,1-.918-3.649,1.1,1.1,0,0,0-2.184.167A12.317,12.317,0,0,0,54.1,81.339a7.754,7.754,0,0,0,.118,3.354,9.019,9.019,0,0,0,6.273,6.273m1.643-9c-.812.891-2.2.671-3.221.332a6.045,6.045,0,0,1-2.386-1.46,4.855,4.855,0,0,1,.668-1.153,4.6,4.6,0,0,1,3.562-1.824,1.815,1.815,0,0,1,1.7,1.193A2.808,2.808,0,0,1,62.136,81.962Z" fill="none" stroke="#45413c" stroke-linecap="round" stroke-linejoin="round"></path><path d="M37.375,53.893c3.157,5.421,5.4,7.484,6.736,8.257a2.024,2.024,0,0,0,2.3-.225l4.631-3.842a2.051,2.051,0,0,1,2.348-.2A17.107,17.107,0,0,1,58.2,62.4a18.7,18.7,0,0,1,3.306,6.24,2.039,2.039,0,0,1-.548,2.011c-1.531,1.485-4.994,4.565-7.751,4.973-3.653.54-15.789-6.673-22.345-17.93s-6.844-25.373-4.572-28.283c1.716-2.2,6.1-3.689,8.15-4.289a2.043,2.043,0,0,1,2.02.516,18.722,18.722,0,0,1,3.8,5.954A17.11,17.11,0,0,1,41.8,38a2.052,2.052,0,0,1-1.329,1.945l-5.627,2.133a2.024,2.024,0,0,0-1.328,1.884C33.528,45.505,34.217,48.472,37.375,53.893Z" fill="#ff6242"></path><path d="M34.242,47.4a1.973,1.973,0,0,0-.726,1.519c.012,1.546.7,4.512,3.859,9.933s5.4,7.485,6.736,8.258a2.026,2.026,0,0,0,2.3-.225l4.631-3.843a2.052,2.052,0,0,1,2.348-.2A17.128,17.128,0,0,1,58.2,67.358a22.346,22.346,0,0,1,2.321,3.7c.159-.149.3-.288.436-.416a2.039,2.039,0,0,0,.548-2.011A18.7,18.7,0,0,0,58.2,62.4a17.107,17.107,0,0,0-4.811-4.508,2.051,2.051,0,0,0-2.348.2l-4.631,3.842a2.024,2.024,0,0,1-2.3.225c-1.339-.773-3.579-2.836-6.736-8.257a38.233,38.233,0,0,1-3.134-6.49" fill="#ff866e"></path><path d="M25.1,38.677a8.894,8.894,0,0,1,1.186-4.309c1.716-2.2,6.1-3.689,8.15-4.288a2.038,2.038,0,0,1,2.02.516,18.713,18.713,0,0,1,3.8,5.953,21.977,21.977,0,0,1,1,2.865A2.044,2.044,0,0,0,41.8,38a17.11,17.11,0,0,0-1.548-6.41,18.722,18.722,0,0,0-3.8-5.954,2.043,2.043,0,0,0-2.02-.516c-2.047.6-6.434,2.092-8.15,4.289C25.278,30.7,24.773,34.2,25.1,38.677" fill="#ff866e"></path><path d="M37.375,53.893c3.157,5.421,5.4,7.484,6.736,8.257a2.024,2.024,0,0,0,2.3-.225l4.631-3.842a2.051,2.051,0,0,1,2.348-.2A17.107,17.107,0,0,1,58.2,62.4a18.7,18.7,0,0,1,3.306,6.24,2.039,2.039,0,0,1-.548,2.011c-1.531,1.485-4.994,4.565-7.751,4.973-3.653.54-15.789-6.673-22.345-17.93s-6.844-25.373-4.572-28.283c1.716-2.2,6.1-3.689,8.15-4.289a2.043,2.043,0,0,1,2.02.516,18.722,18.722,0,0,1,3.8,5.954A17.11,17.11,0,0,1,41.8,38a2.052,2.052,0,0,1-1.329,1.945l-5.627,2.133a2.024,2.024,0,0,0-1.328,1.884C33.528,45.505,34.217,48.472,37.375,53.893Z" fill="none" stroke="#45413c" stroke-linecap="round" stroke-linejoin="round"></path><path d="M78.536,52.143a1.929,1.929,0,1,1-3.767-.833,25.615,25.615,0,0,0-19.46-30.551,1.929,1.929,0,0,1,.835-3.767A29.475,29.475,0,0,1,78.536,52.143Z" fill="#80ddff" stroke="#009fd9" stroke-linecap="round" stroke-linejoin="round"></path><path d="M69.184,50.069a1.929,1.929,0,0,1-3.767-.834A16.032,16.032,0,0,0,53.235,30.112a1.929,1.929,0,0,1-1.466-2.3h0a1.929,1.929,0,0,1,2.3-1.465A19.893,19.893,0,0,1,69.184,50.067Z" fill="#80ddff" stroke="#009fd9" stroke-linecap="round" stroke-linejoin="round"></path><path d="M59.831,47.987l0,.01a1.929,1.929,0,0,1-3.766-.837v-.008a6.452,6.452,0,0,0-4.9-7.687,1.928,1.928,0,0,1-1.468-2.3v0A1.928,1.928,0,0,1,52,35.7a10.309,10.309,0,0,1,7.836,12.289Z" fill="#80ddff" stroke="#009fd9" stroke-linecap="round" stroke-linejoin="round"></path></g></svg>