<svg xmlns="http://www.w3.org/2000/svg" version="1.1" xmlns:xlink="http://www.w3.org/1999/xlink" xmlns:svgjs="http://svgjs.com/svgjs" viewBox="0 0 160 160" width="160" height="160"><g transform="matrix(1.6,0,0,1.6,0,0)"><path d="M90,53.124a40,40,0,1,0-76.436,16.5H86.436A39.829,39.829,0,0,0,90,53.124Z" fill="#c7f0ff"></path><path d="M13.564,69.624a40,40,0,0,0,72.872,0Z" fill="#daf7c6"></path><path d="M11 69.624L89 69.624" fill="none" stroke="#45413c" stroke-linecap="round" stroke-linejoin="round"></path><path d="M6.5 69.624L9 69.624" fill="none" stroke="#45413c" stroke-linecap="round" stroke-linejoin="round"></path><path d="M91 69.624L93.5 69.624" fill="none" stroke="#45413c" stroke-linecap="round" stroke-linejoin="round"></path><path d="M53.316,57.936c.6-2.66,1.892-6,4.542-6" fill="none" stroke="#009fd9" stroke-linecap="round" stroke-linejoin="round"></path><path d="M57.858,51.934c-.279-.38,1.58-5.621,7.026-5.621s11.828,5.621,15.459,5.621S66.641,63.88,57.858,51.934Z" fill="#00b8f0" stroke="#009fd9" stroke-linecap="round" stroke-linejoin="round"></path><path d="M47.073,53.046a5.573,5.573,0,0,0-4.943-2.821" fill="none" stroke="#009fd9" stroke-linecap="round" stroke-linejoin="round"></path><path d="M42.13,50.225c.271-.369-1.536-5.462-6.828-5.462s-11.493,5.462-15.02,5.462S33.6,61.833,42.13,50.225Z" fill="#00b8f0" stroke="#009fd9" stroke-linecap="round" stroke-linejoin="round"></path><path d="M51.448,37.691c0,18.328,4.189,29.325,4.189,29.325H43.908S48.1,56.264,48.1,37.691Z" fill="#4acfff"></path><path d="M51.8,46.757c-.219-2.779-.356-5.8-.356-9.065H48.1c0,3.275-.135,6.292-.349,9.065a15.524,15.524,0,0,0,2.024.15h0A15.823,15.823,0,0,0,51.8,46.757Z" fill="#80ddff"></path><path d="M51.448,37.691c0,18.328,4.189,29.325,4.189,29.325H43.908S48.1,56.264,48.1,37.691Z" fill="none" stroke="#009fd9" stroke-linecap="round" stroke-linejoin="round"></path><path d="M31.556,25.093A18.217,18.217,0,1,1,49.774,43.309,18.217,18.217,0,0,1,31.556,25.093Z" fill="#e5f8ff"></path><path d="M31.556,25.093A18.217,18.217,0,1,1,49.774,43.309,18.217,18.217,0,0,1,31.556,25.093Z" fill="none" stroke="#009fd9" stroke-linecap="round" stroke-linejoin="round"></path><path d="M49.774,39.687A14.594,14.594,0,1,1,64.367,25.093,14.611,14.611,0,0,1,49.774,39.687Z" fill="none" stroke="#b8ecff" stroke-linecap="round" stroke-linejoin="round"></path><path d="M49.774,12.306a1.989,1.989,0,0,1,1.986,1.987v1.075a6.054,6.054,0,0,1,4.051,5.675,1.987,1.987,0,0,1-3.974,0,2.064,2.064,0,1,0-2.062,2.062,6.021,6.021,0,0,1,1.987,11.709v1.073a1.987,1.987,0,1,1-3.974.006V34.821a5.871,5.871,0,0,1-2.283-1.411,5.991,5.991,0,0,1-1.767-4.266,1.986,1.986,0,1,1,3.972,0,2.065,2.065,0,1,0,2.069-2.064,6.017,6.017,0,0,1-1.991-11.713V14.293A1.984,1.984,0,0,1,49.774,12.306Z" fill="#ffffff" stroke="#009fd9" stroke-linecap="round" stroke-linejoin="round"></path><path d="M12.421 84.235 A34.716 2.083 0 1 0 81.853 84.235 A34.716 2.083 0 1 0 12.421 84.235 Z" fill="#525252" opacity=".15"></path><path d="M34.778,76.181a2.5,2.5,0,0,0-2.5-2.5h-10a2.5,2.5,0,0,0,0,5h10A2.5,2.5,0,0,0,34.778,76.181Z" fill="#ffe500"></path><path d="M32.278,73.682h-10a2.5,2.5,0,0,0-2.5,2.5h15A2.5,2.5,0,0,0,32.278,73.682Z" fill="#fff48c"></path><path d="M34.778,76.181a2.5,2.5,0,0,0-2.5-2.5h-10a2.5,2.5,0,0,0,0,5h10A2.5,2.5,0,0,0,34.778,76.181Z" fill="none" stroke="#45413c" stroke-linecap="round" stroke-linejoin="round"></path><path d="M41.443,71.182a2.5,2.5,0,0,0-2.5-2.5h-10a2.5,2.5,0,0,0,0,5h10A2.5,2.5,0,0,0,41.443,71.182Z" fill="#ffe500"></path><path d="M38.943,68.682h-10a2.5,2.5,0,0,0-2.5,2.5h15A2.5,2.5,0,0,0,38.943,68.682Z" fill="#fff48c"></path><path d="M41.443,71.182a2.5,2.5,0,0,0-2.5-2.5h-10a2.5,2.5,0,0,0,0,5h10A2.5,2.5,0,0,0,41.443,71.182Z" fill="none" stroke="#45413c" stroke-linecap="round" stroke-linejoin="round"></path><path d="M48.942,66.183a2.5,2.5,0,0,0-2.5-2.5h-10a2.5,2.5,0,0,0,0,5h10A2.5,2.5,0,0,0,48.942,66.183Z" fill="#ffe500"></path><path d="M48.942,66.183a2.5,2.5,0,0,0-2.5-2.5h-10a2.5,2.5,0,0,0-2.5,2.5Z" fill="#fff48c"></path><path d="M48.942,66.183a2.5,2.5,0,0,0-2.5-2.5h-10a2.5,2.5,0,0,0,0,5h10A2.5,2.5,0,0,0,48.942,66.183Z" fill="none" stroke="#45413c" stroke-linecap="round" stroke-linejoin="round"></path><path d="M63.939,66.183a2.5,2.5,0,0,0-2.5-2.5h-10a2.5,2.5,0,0,0,0,5h10A2.5,2.5,0,0,0,63.939,66.183Z" fill="#ffe500"></path><path d="M61.439,63.683h-10a2.5,2.5,0,0,0-2.5,2.5h15A2.5,2.5,0,0,0,61.439,63.683Z" fill="#fff48c"></path><path d="M63.939,66.183a2.5,2.5,0,0,0-2.5-2.5h-10a2.5,2.5,0,0,0,0,5h10A2.5,2.5,0,0,0,63.939,66.183Z" fill="none" stroke="#45413c" stroke-linecap="round" stroke-linejoin="round"></path><path d="M56.441,71.182a2.5,2.5,0,0,0-2.5-2.5h-10a2.5,2.5,0,0,0,0,5h10A2.5,2.5,0,0,0,56.441,71.182Z" fill="#ffe500"></path><path d="M53.94,68.682h-10a2.5,2.5,0,0,0-2.5,2.5h15A2.5,2.5,0,0,0,53.94,68.682Z" fill="#fff48c"></path><path d="M56.441,71.182a2.5,2.5,0,0,0-2.5-2.5h-10a2.5,2.5,0,0,0,0,5h10A2.5,2.5,0,0,0,56.441,71.182Z" fill="none" stroke="#45413c" stroke-linecap="round" stroke-linejoin="round"></path><path d="M71.438,71.182a2.5,2.5,0,0,0-2.5-2.5h-10a2.5,2.5,0,0,0,0,5h10A2.5,2.5,0,0,0,71.438,71.182Z" fill="#ffe500"></path><path d="M68.938,68.682h-10a2.5,2.5,0,0,0-2.5,2.5h15A2.5,2.5,0,0,0,68.938,68.682Z" fill="#fff48c"></path><path d="M71.438,71.182a2.5,2.5,0,0,0-2.5-2.5h-10a2.5,2.5,0,0,0,0,5h10A2.5,2.5,0,0,0,71.438,71.182Z" fill="none" stroke="#45413c" stroke-linecap="round" stroke-linejoin="round"></path><path d="M49.774,76.181a2.5,2.5,0,0,0-2.5-2.5h-10a2.5,2.5,0,0,0,0,5h10A2.5,2.5,0,0,0,49.774,76.181Z" fill="#ffe500"></path><path d="M47.275,73.682h-10a2.5,2.5,0,0,0-2.5,2.5h15A2.5,2.5,0,0,0,47.275,73.682Z" fill="#fff48c"></path><path d="M49.774,76.181a2.5,2.5,0,0,0-2.5-2.5h-10a2.5,2.5,0,0,0,0,5h10A2.5,2.5,0,0,0,49.774,76.181Z" fill="none" stroke="#45413c" stroke-linecap="round" stroke-linejoin="round"></path><path d="M64.773,76.181a2.5,2.5,0,0,0-2.5-2.5h-10a2.5,2.5,0,1,0,0,5h10A2.5,2.5,0,0,0,64.773,76.181Z" fill="#ffe500"></path><path d="M62.272,73.682h-10a2.5,2.5,0,0,0-2.5,2.5h15A2.5,2.5,0,0,0,62.272,73.682Z" fill="#fff48c"></path><path d="M64.773,76.181a2.5,2.5,0,0,0-2.5-2.5h-10a2.5,2.5,0,1,0,0,5h10A2.5,2.5,0,0,0,64.773,76.181Z" fill="none" stroke="#45413c" stroke-linecap="round" stroke-linejoin="round"></path><path d="M79.77,76.181a2.5,2.5,0,0,0-2.5-2.5h-10a2.5,2.5,0,0,0,0,5h10A2.5,2.5,0,0,0,79.77,76.181Z" fill="#ffe500"></path><path d="M77.27,73.682h-10a2.5,2.5,0,0,0-2.5,2.5h15A2.5,2.5,0,0,0,77.27,73.682Z" fill="#fff48c"></path><path d="M79.77,76.181a2.5,2.5,0,0,0-2.5-2.5h-10a2.5,2.5,0,0,0,0,5h10A2.5,2.5,0,0,0,79.77,76.181Z" fill="none" stroke="#45413c" stroke-linecap="round" stroke-linejoin="round"></path><path d="M80.77,82.378A2.5,2.5,0,0,0,80,78.928l-8.449-5.347a2.5,2.5,0,0,0-2.673,4.224l8.447,5.347A2.5,2.5,0,0,0,80.77,82.378Z" fill="#ffe500"></path><path d="M80,78.928l-8.449-5.347a2.5,2.5,0,0,0-3.448.776L80.77,82.378A2.5,2.5,0,0,0,80,78.928Z" fill="#fff48c"></path><path d="M80.77,82.378A2.5,2.5,0,0,0,80,78.928l-8.449-5.347a2.5,2.5,0,0,0-2.673,4.224l8.447,5.347A2.5,2.5,0,0,0,80.77,82.378Z" fill="none" stroke="#45413c" stroke-linecap="round" stroke-linejoin="round"></path><path d="M41.582,80.486a2.5,2.5,0,0,0-2.5-2.5h-10a2.5,2.5,0,1,0,0,5h10A2.5,2.5,0,0,0,41.582,80.486Z" fill="#ffe500"></path><path d="M39.083,77.986h-10a2.5,2.5,0,0,0-2.5,2.5h15A2.5,2.5,0,0,0,39.083,77.986Z" fill="#fff48c"></path><path d="M41.582,80.486a2.5,2.5,0,0,0-2.5-2.5h-10a2.5,2.5,0,1,0,0,5h10A2.5,2.5,0,0,0,41.582,80.486Z" fill="none" stroke="#45413c" stroke-linecap="round" stroke-linejoin="round"></path><path d="M27.173,78.577a2.5,2.5,0,0,0-2.943-1.958l-9.8,1.972a2.5,2.5,0,1,0,.986,4.9l9.8-1.971A2.5,2.5,0,0,0,27.173,78.577Z" fill="#ffe500"></path><path d="M24.23,76.619l-9.8,1.972a2.5,2.5,0,0,0-1.958,2.942l14.7-2.956A2.5,2.5,0,0,0,24.23,76.619Z" fill="#fff48c"></path><path d="M27.173,78.577a2.5,2.5,0,0,0-2.943-1.958l-9.8,1.972a2.5,2.5,0,1,0,.986,4.9l9.8-1.971A2.5,2.5,0,0,0,27.173,78.577Z" fill="none" stroke="#45413c" stroke-linecap="round" stroke-linejoin="round"></path><path d="M56.579,80.486a2.5,2.5,0,0,0-2.5-2.5h-10a2.5,2.5,0,0,0,0,5h10A2.5,2.5,0,0,0,56.579,80.486Z" fill="#ffe500"></path><path d="M54.08,77.986h-10a2.5,2.5,0,0,0-2.5,2.5h15A2.5,2.5,0,0,0,54.08,77.986Z" fill="#fff48c"></path><path d="M56.579,80.486a2.5,2.5,0,0,0-2.5-2.5h-10a2.5,2.5,0,0,0,0,5h10A2.5,2.5,0,0,0,56.579,80.486Z" fill="none" stroke="#45413c" stroke-linecap="round" stroke-linejoin="round"></path><path d="M71.854,80.486a2.5,2.5,0,0,0-2.5-2.5h-10a2.5,2.5,0,0,0,0,5h10A2.5,2.5,0,0,0,71.854,80.486Z" fill="#ffe500"></path><path d="M69.355,77.986h-10a2.5,2.5,0,0,0-2.5,2.5h15A2.5,2.5,0,0,0,69.355,77.986Z" fill="#fff48c"></path><path d="M71.854,80.486a2.5,2.5,0,0,0-2.5-2.5h-10a2.5,2.5,0,0,0,0,5h10A2.5,2.5,0,0,0,71.854,80.486Z" fill="none" stroke="#45413c" stroke-linecap="round" stroke-linejoin="round"></path></g></svg>