<svg xmlns="http://www.w3.org/2000/svg" version="1.1" xmlns:xlink="http://www.w3.org/1999/xlink" xmlns:svgjs="http://svgjs.com/svgjs" viewBox="0 0 160 160" width="160" height="160"><g transform="matrix(1.6,0,0,1.6,0,0)"><path d="M10.000 52.403 A40.000 40.000 0 1 0 90.000 52.403 A40.000 40.000 0 1 0 10.000 52.403 Z" fill="#c7f0ff" stroke="#c7f0ff" stroke-miterlimit="10"></path><path d="M32.967 87.663 A16.759 2.545 0 1 0 66.485 87.663 A16.759 2.545 0 1 0 32.967 87.663 Z" fill="#45413c" opacity=".15"></path><path d="M65.551,82.776a5.227,5.227,0,0,1-5.064,3.934H39.513a5.227,5.227,0,0,1-5.064-3.934L29.014,61.459a5.225,5.225,0,0,1,5.063-6.516H65.923a5.225,5.225,0,0,1,5.063,6.516Z" fill="#c7f0ff"></path><path d="M52.449,44.878l12.874-8.394,3.748-19.122a2.153,2.153,0,0,0-1.336-2.421,2.129,2.129,0,0,0-.776-.145,2.151,2.151,0,0,0-1.841,1.038L50,40.829Z" fill="#6dd627" stroke="#45413c" stroke-linecap="round" stroke-linejoin="round" stroke-width="1.156"></path><path d="M34.676,36.484,55.637,50.149,34.88,15.834A2.151,2.151,0,0,0,33.039,14.8a2.129,2.129,0,0,0-.776.145,2.154,2.154,0,0,0-1.337,2.421Z" fill="#6dd627" stroke="#45413c" stroke-linecap="round" stroke-linejoin="round" stroke-width="1.156"></path><path d="M70.968,34.686a2.157,2.157,0,0,0-2.6-.188L37.008,54.943H62.922l8.56-17.7A2.154,2.154,0,0,0,70.968,34.686Z" fill="#9ceb60" stroke="#45413c" stroke-linecap="round" stroke-linejoin="round" stroke-width="1.156"></path><path d="M50,40.829l6.506-10.756L52.132,9.306A2.154,2.154,0,0,0,50.066,7.6h-.04A2.149,2.149,0,0,0,47.94,9.228l-4.988,19.95Z" fill="#46b000" stroke="#45413c" stroke-linecap="round" stroke-linejoin="round" stroke-width="1.156"></path><path d="M62.992,54.943,31.63,34.5a2.152,2.152,0,0,0-3.112,2.741l8.56,17.7Z" fill="#9ceb60" stroke="#45413c" stroke-linecap="round" stroke-linejoin="round" stroke-width="1.156"></path><path d="M29.481,63.288a5.12,5.12,0,0,1,.47-.774A5.225,5.225,0,0,1,34.077,60.5H65.923a5.225,5.225,0,0,1,4.126,2.019,5.12,5.12,0,0,1,.47.774l.467-1.829a5.225,5.225,0,0,0-5.063-6.516H34.077a5.225,5.225,0,0,0-5.063,6.516Z" fill="#ffffff"></path><path d="M65.551,82.776a5.227,5.227,0,0,1-5.064,3.934H39.513a5.227,5.227,0,0,1-5.064-3.934L29.014,61.459a5.225,5.225,0,0,1,5.063-6.516H65.923a5.225,5.225,0,0,1,5.063,6.516Z" fill="none" stroke="#45413c" stroke-linecap="round" stroke-linejoin="round" stroke-width="1.156"></path><path d="M44.508,76.565a7.55,7.55,0,0,0,10.412,0" fill="none" stroke="#45413c" stroke-linecap="round" stroke-linejoin="round" stroke-width="1.156"></path><path d="M59.245,66.534a2.819,2.819,0,0,0-5.2,0" fill="none" stroke="#45413c" stroke-linecap="round" stroke-linejoin="round" stroke-width="1.156"></path><path d="M45.417,66.534a2.82,2.82,0,0,0-5.206,0" fill="none" stroke="#45413c" stroke-linecap="round" stroke-linejoin="round" stroke-width="1.156"></path><path d="M37.616 72.158 A2.163 2.163 0 1 0 41.942 72.158 A2.163 2.163 0 1 0 37.616 72.158 Z" fill="#ffb0ca"></path><path d="M57.515 72.158 A2.163 2.163 0 1 0 61.841 72.158 A2.163 2.163 0 1 0 57.515 72.158 Z" fill="#ffb0ca"></path></g></svg>