<svg xmlns="http://www.w3.org/2000/svg" version="1.1" xmlns:xlink="http://www.w3.org/1999/xlink" xmlns:svgjs="http://svgjs.com/svgjs" viewBox="0 0 160 160" width="160" height="160"><g transform="matrix(1.6,0,0,1.6,0,0)"><path d="M86.436,67.5a40,40,0,1,0-72.872,0Z" fill="#009fd9"></path><path d="M13.564,67.5a40,40,0,0,0,72.872,0Z" fill="#adc4d9"></path><path d="M11 67.5L89 67.5" fill="none" stroke="#45413c" stroke-linecap="round" stroke-linejoin="round"></path><path d="M6.5 67.5L9 67.5" fill="none" stroke="#45413c" stroke-linecap="round" stroke-linejoin="round"></path><path d="M91 67.5L93.5 67.5" fill="none" stroke="#45413c" stroke-linecap="round" stroke-linejoin="round"></path><path d="M64 78L71.157 78" fill="none" stroke="#c0dceb" stroke-linecap="round" stroke-miterlimit="10"></path><path d="M59.825 78L61.614 78" fill="none" stroke="#c0dceb" stroke-linecap="round" stroke-miterlimit="10"></path><path d="M56.843 78L57.44 78" fill="none" stroke="#c0dceb" stroke-linecap="round" stroke-miterlimit="10"></path><path d="M34.157 74.5L41.313 74.5" fill="none" stroke="#c0dceb" stroke-linecap="round" stroke-miterlimit="10"></path><path d="M29.982 74.5L31.771 74.5" fill="none" stroke="#c0dceb" stroke-linecap="round" stroke-miterlimit="10"></path><path d="M27 74.5L27.596 74.5" fill="none" stroke="#c0dceb" stroke-linecap="round" stroke-miterlimit="10"></path><path d="M45.343 85.5L52.5 85.5" fill="none" stroke="#c0dceb" stroke-linecap="round" stroke-miterlimit="10"></path><path d="M41.169 85.5L42.958 85.5" fill="none" stroke="#c0dceb" stroke-linecap="round" stroke-miterlimit="10"></path><path d="M38.187 85.5L38.783 85.5" fill="none" stroke="#c0dceb" stroke-linecap="round" stroke-miterlimit="10"></path><path d="M61.738,69.962a2,2,0,0,1-2.3-1.087c-.176-.377-4.311-9.328-2.127-18.21a2,2,0,1,1,3.885.955c-1.85,7.522,1.825,15.475,1.863,15.554a2,2,0,0,1-.96,2.661A1.965,1.965,0,0,1,61.738,69.962Z" fill="#c0dceb"></path><path d="M56.736,54.324a2.78,2.78,0,0,1,3.941,1.291" fill="none" stroke="#45413c" stroke-linecap="round" stroke-linejoin="round"></path><path d="M56.854,59.3a2.777,2.777,0,0,1,3.945-.725" fill="none" stroke="#45413c" stroke-linecap="round" stroke-linejoin="round"></path><path d="M57.56,63.279a2.776,2.776,0,0,1,3.9-.888" fill="none" stroke="#45413c" stroke-linecap="round" stroke-linejoin="round"></path><path d="M61.738,69.962a2,2,0,0,1-2.3-1.087c-.176-.377-4.311-9.328-2.127-18.21a2,2,0,1,1,3.885.955c-1.85,7.522,1.825,15.475,1.863,15.554a2,2,0,0,1-.96,2.661A1.965,1.965,0,0,1,61.738,69.962Z" fill="none" stroke="#45413c" stroke-linecap="round" stroke-linejoin="round"></path><path d="M60.001 26.795H72.001V35.795H60.001z" fill="#e5f8ff" stroke="#45413c" stroke-linecap="round" stroke-linejoin="round" transform="translate(-5.707 17.388) rotate(-14.393)"></path><path d="M42.171 21.003 A12.000 12.000 0 1 0 66.171 21.003 A12.000 12.000 0 1 0 42.171 21.003 Z" fill="#b8ecff"></path><path d="M47.811,31.178A12,12,0,1,1,60.532,10.827Z" fill="#ffffff"></path><path d="M63.906,43.752,48.53,47.7a1,1,0,0,0-.628,1.451,5,5,0,0,0,5.623,2.429L65.149,48.6Z" fill="#b8ecff" stroke="#45413c" stroke-linecap="round" stroke-linejoin="round"></path><path d="M69.966,43.23a7.5,7.5,0,1,1-14.529,3.728Z" fill="#e8f4fa" stroke="#45413c" stroke-linecap="round" stroke-linejoin="round"></path><path d="M62.789,67.013c1.322,1.187-.005,2.414-1.488,4.066S58.741,74.184,57.419,73s-1.192-3.488.291-5.141S61.467,65.827,62.789,67.013Z" fill="#525252" stroke="#45413c" stroke-linecap="round" stroke-linejoin="round"></path><path d="M56.788,49.711a7.487,7.487,0,0,1-1.351-2.753L69.966,43.23a7.477,7.477,0,0,1,.141,3.063Z" fill="#daedf7"></path><path d="M69.966,43.23a7.5,7.5,0,1,1-14.529,3.728Z" fill="#e8f4fa" stroke="#45413c" stroke-linecap="round" stroke-linejoin="round"></path><path d="M73.394,49.326a1,1,0,0,1-.631,1.445l-3.6.925a1,1,0,0,1-1.249-.963l-.018-2.842,4.147-1.064Z" fill="#87898c" stroke="#45413c" stroke-linecap="round" stroke-linejoin="round"></path><path d="M67.907 49.952L73.022 48.64" fill="none" stroke="#45413c" stroke-linecap="round" stroke-linejoin="round"></path><path d="M70.826,51.268a3,3,0,0,1,3.652,2.16c.342,1.334.49,10.24,1.292,16.187a.23.23,0,0,1-.443.114c-2.16-5.6-6.319-13.476-6.661-14.809A3,3,0,0,1,70.826,51.268Z" fill="#ff8a14" stroke="#45413c" stroke-linecap="round" stroke-linejoin="round"></path><path d="M71.323,53.205a1.094,1.094,0,0,1,1.331.788c.125.486.179,3.732.471,5.9a.084.084,0,0,1-.161.041c-.788-2.04-2.3-4.912-2.428-5.4A1.094,1.094,0,0,1,71.323,53.205Z" fill="#ffe500"></path><path d="M50.683,46.853l-1.813-.339a2,2,0,0,1,.736-3.932l1.813.339a2,2,0,0,0,2.314-2.428L52.879,36.9a2,2,0,0,1,3.892-.925l.854,3.593a6,6,0,0,1-6.942,7.285Z" fill="#daedf7" stroke="#45413c" stroke-linecap="round" stroke-linejoin="round"></path><path d="M42.171 21.003 A12.000 12.000 0 1 0 66.171 21.003 A12.000 12.000 0 1 0 42.171 21.003 Z" fill="none" stroke="#45413c" stroke-linecap="round" stroke-linejoin="round"></path><path d="M49.266 77.494 A9.519 1.5 0 1 0 68.304 77.494 A9.519 1.5 0 1 0 49.266 77.494 Z" fill="#45413c" opacity=".15"></path><path d="M23.277 72.489L23.277 58.058" fill="none" stroke="#45413c" stroke-linecap="round" stroke-linejoin="round"></path><path d="M41.642,56.747a1.311,1.311,0,0,1-1.311,1.311H23.277V46.252a1.311,1.311,0,0,1,1.311-1.312H40.331a1.311,1.311,0,0,1,1.311,1.312Z" fill="#ff6242"></path><path d="M23.277 47.564L41.642 47.564" fill="none" stroke="#ffffff" stroke-linecap="round" stroke-linejoin="round"></path><path d="M23.277 50.187L41.642 50.187" fill="none" stroke="#ffffff" stroke-linecap="round" stroke-linejoin="round"></path><path d="M23.277 52.811L41.642 52.811" fill="none" stroke="#ffffff" stroke-linecap="round" stroke-linejoin="round"></path><path d="M23.277 55.435L41.642 55.435" fill="none" stroke="#ffffff" stroke-linecap="round" stroke-linejoin="round"></path><path d="M41.642,56.747a1.311,1.311,0,0,1-1.311,1.311H23.277V46.252a1.311,1.311,0,0,1,1.311-1.312H40.331a1.311,1.311,0,0,1,1.311,1.312Z" fill="none" stroke="#45413c" stroke-linecap="round" stroke-linejoin="round"></path><path d="M32.46,50.187A1.312,1.312,0,0,1,31.148,51.5H23.277V46.252a1.311,1.311,0,0,1,1.311-1.312H32.46Z" fill="#00b8f0" stroke="#45413c" stroke-linecap="round" stroke-linejoin="round"></path><path d="M24.316 31.170 A5.913 5.913 0 1 0 36.142 31.170 A5.913 5.913 0 1 0 24.316 31.170 Z" fill="#80ddff"></path><path d="M24.316 31.170 A5.913 5.913 0 1 0 36.142 31.170 A5.913 5.913 0 1 0 24.316 31.170 Z" fill="none" stroke="#45413c" stroke-linecap="round" stroke-linejoin="round"></path><path d="M29.572,29.2h0a1.314,1.314,0,0,0-1.314-1.314H25.314a5.908,5.908,0,0,0,1.63,8.2V31.827a1.314,1.314,0,0,1,1.314-1.314h0A1.314,1.314,0,0,0,29.572,29.2Z" fill="#6dd627"></path><path d="M29.572,29.2h0a1.314,1.314,0,0,0-1.314-1.314H25.314a5.908,5.908,0,0,0,1.63,8.2V31.827a1.314,1.314,0,0,1,1.314-1.314h0A1.314,1.314,0,0,0,29.572,29.2Z" fill="none" stroke="#45413c" stroke-linecap="round" stroke-linejoin="round"></path><path d="M36.142,31.17a5.906,5.906,0,0,0-2.628-4.914v2.008a.936.936,0,0,1-.936.935h0a.936.936,0,0,0-.936.936V33.52a.936.936,0,0,0,.936.935.936.936,0,0,1,.936.936v.694A5.908,5.908,0,0,0,36.142,31.17Z" fill="#6dd627"></path><path d="M36.142,31.17a5.906,5.906,0,0,0-2.628-4.914v2.008a.936.936,0,0,1-.936.935h0a.936.936,0,0,0-.936.936V33.52a.936.936,0,0,0,.936.935h.936v1.63A5.908,5.908,0,0,0,36.142,31.17Z" fill="none" stroke="#45413c" stroke-linecap="round" stroke-linejoin="round"></path><path d="M52.6,35.887l2.841,11.071,3.874-.994,3.875-.994,2.906-.746L62.256,29.279l-6.78,1.74A4,4,0,0,0,52.6,35.887Z" fill="#daedf7" stroke="#45413c" stroke-linecap="round" stroke-linejoin="round"></path><path d="M69.966,43.23l-7.749,1.988L59.376,34.147a4,4,0,0,1,7.749-1.988Z" fill="#adc4d9" stroke="#45413c" stroke-linecap="round" stroke-linejoin="round"></path><path d="M80.334,47.545A1,1,0,0,1,79.7,48.99l-3.6.925a1,1,0,0,1-1.249-.963l-.017-2.842,4.146-1.064Z" fill="#87898c" stroke="#45413c" stroke-linecap="round" stroke-linejoin="round"></path><path d="M74.848 48.171L79.963 46.859" fill="none" stroke="#45413c" stroke-linecap="round" stroke-linejoin="round"></path><path d="M77.766,49.487a3,3,0,0,1,3.652,2.16c.342,1.334.49,10.24,1.293,16.187a.23.23,0,0,1-.443.114c-2.161-5.6-6.32-13.476-6.662-14.809A3,3,0,0,1,77.766,49.487Z" fill="#ff8a14" stroke="#45413c" stroke-linecap="round" stroke-linejoin="round"></path><path d="M78.263,51.424a1.094,1.094,0,0,1,1.331.788c.125.486.179,3.732.472,5.9a.084.084,0,0,1-.162.041c-.787-2.04-2.3-4.912-2.428-5.4A1.094,1.094,0,0,1,78.263,51.424Z" fill="#ffe500"></path><path d="M70.118,67.967a2,2,0,0,1-2.176-.852c-.225-.35-5.515-8.671-4.533-17.765a2,2,0,1,1,3.977.429c-.828,7.662,3.871,15.095,3.919,15.17a2,2,0,0,1-1.187,3.018Z" fill="#daedf7" stroke="#45413c" stroke-linecap="round" stroke-linejoin="round"></path><path d="M70.583,25.52a5,5,0,0,0-3.6,6.086l2.734,10.655L59.063,45a1,1,0,0,0-.628,1.451,5,5,0,0,0,5.623,2.429l6.9-1.771,7.749-1.988a2,2,0,0,0,1.44-2.435l-3.48-13.56A5,5,0,0,0,70.583,25.52Z" fill="#b8ecff"></path><path d="M69.717 42.261L73.592 41.267" fill="none" stroke="#45413c" stroke-linecap="round" stroke-linejoin="round"></path><path d="M71.507,64.776c1.322,1.186-.006,2.414-1.489,4.066s-2.56,3.105-3.882,1.918-1.191-3.487.292-5.14S70.185,63.59,71.507,64.776Z" fill="#656769" stroke="#45413c" stroke-linecap="round" stroke-linejoin="round"></path><path d="M63.3,52.3a2.778,2.778,0,0,1,4-.3" fill="none" stroke="#45413c" stroke-linecap="round" stroke-linejoin="round"></path><path d="M63.823,56.711a2.78,2.78,0,0,1,4.066-.16" fill="none" stroke="#45413c" stroke-linecap="round" stroke-linejoin="round"></path><path d="M65.088,61.146A2.776,2.776,0,0,1,69,60.158" fill="none" stroke="#45413c" stroke-linecap="round" stroke-linejoin="round"></path><path d="M67.856,35a5,5,0,0,1,9.649-2.621l-.836-3.257a5,5,0,1,0-9.686,2.485l.816,3.18" fill="#e5f8ff"></path><path d="M70.583,25.52a5,5,0,0,0-3.6,6.086l2.734,10.655L59.063,45a1,1,0,0,0-.628,1.451,5,5,0,0,0,5.623,2.429l6.9-1.771,7.749-1.988a2,2,0,0,0,1.44-2.435l-3.48-13.56A5,5,0,0,0,70.583,25.52Z" fill="none" stroke="#45413c" stroke-linecap="round" stroke-linejoin="round"></path><path d="M65.941,44.263l-1.787.458a2,2,0,0,1-.994-3.874l1.787-.459a2,2,0,0,0,1.071-3.178l-2.292-2.9a2,2,0,0,1,3.137-2.482l2.292,2.9a6,6,0,0,1-3.214,9.536Z" fill="#daedf7" stroke="#45413c" stroke-linecap="round" stroke-linejoin="round"></path><path d="M64.962,40.384a4.365,4.365,0,0,1,1.015,3.887" fill="none" stroke="#45413c" stroke-linecap="round" stroke-linejoin="round"></path><path d="M51.307,42.9a4.364,4.364,0,0,1-.687,3.905" fill="none" stroke="#45413c" stroke-linecap="round" stroke-linejoin="round"></path><path d="M66.442,38.62a4.362,4.362,0,0,1,3.787,1.446" fill="none" stroke="#45413c" stroke-linecap="round" stroke-linejoin="round"></path><path d="M65.351,36.454a4.36,4.36,0,0,1,3.746-1.8" fill="none" stroke="#45413c" stroke-linecap="round" stroke-linejoin="round"></path><path d="M63.888,18.884a6,6,0,0,1-4.143,7.405l-1.925.543L54.558,15.284l1.925-.543A6,6,0,0,1,63.888,18.884Z" fill="#e8f4fa"></path><path d="M57.162,17.17A6,6,0,0,1,64.1,20.148a6.072,6.072,0,0,0-.216-1.264,6,6,0,0,0-7.405-4.143l-1.925.543.686,2.428Z" fill="#ffffff"></path><path d="M63.888,18.884a6,6,0,0,1-4.143,7.405l-1.925.543L54.558,15.284l1.925-.543A6,6,0,0,1,63.888,18.884Z" fill="none" stroke="#45413c" stroke-linecap="round" stroke-linejoin="round"></path><path d="M46.340 16.146 L58.340 16.146 L58.340 28.146 L46.340 28.146 Z" fill="#00b8f0" stroke="#45413c" stroke-linecap="round" stroke-linejoin="round" transform="translate(-4.049 15.062) rotate(-15.773)"></path><path d="M47.539,19.888l7.7-2.175A2,2,0,0,1,57.706,19.1l1.53,5.416c-.01-.049-.021-.1-.035-.147l-2.175-7.7a2,2,0,0,0-2.468-1.381l-7.7,2.175a2,2,0,0,0-1.38,2.468l.644,2.283A2,2,0,0,1,47.539,19.888Z" fill="#4acfff"></path><path d="M46.340 16.146 L58.340 16.146 L58.340 28.146 L46.340 28.146 Z" fill="none" stroke="#45413c" stroke-linecap="round" stroke-linejoin="round" transform="translate(-4.049 15.062) rotate(-15.773)"></path><path d="M47.970 22.798 A1.500 1.500 0 1 0 50.970 22.798 A1.500 1.500 0 1 0 47.970 22.798 Z" fill="#ffffff" stroke="#009fd9" stroke-miterlimit="10"></path><path d="M52.813 21.556 A1.500 1.500 0 1 0 55.813 21.556 A1.500 1.500 0 1 0 52.813 21.556 Z" fill="#ffffff" stroke="#009fd9" stroke-miterlimit="10"></path></g></svg>