<svg xmlns="http://www.w3.org/2000/svg" version="1.1" xmlns:xlink="http://www.w3.org/1999/xlink" xmlns:svgjs="http://svgjs.com/svgjs" viewBox="0 0 160 160" width="160" height="160"><g transform="matrix(1.6,0,0,1.6,0,0)"><path d="M10.000 50.000 A40.000 40.000 0 1 0 90.000 50.000 A40.000 40.000 0 1 0 10.000 50.000 Z" fill="#c7f0ff" stroke="#c7f0ff" stroke-miterlimit="10"></path><path d="M22.028 69.982 A27.957 2.097 0 1 0 77.942 69.982 A27.957 2.097 0 1 0 22.028 69.982 Z" fill="#45413c" opacity=".15"></path><path d="M20.630 43.062 L79.339 43.062 L79.339 68.223 L20.630 68.223 Z" fill="#c7f0ff"></path><path d="M79.339,47.062a4,4,0,0,0-4-4H24.63a4,4,0,0,0-4,4v5.785a5.592,5.592,0,0,1,5.592-5.592H73.748a5.592,5.592,0,0,1,5.591,5.592Z" fill="#ffffff"></path><path d="M67.6,68.223H32.371V64.191a1,1,0,0,1,1-1H66.6a1,1,0,0,1,1,1Z" fill="#656769"></path><path d="M69.275,43.062H30.694V37.353a1,1,0,0,1,1-1H68.275a1,1,0,0,1,1,1Z" fill="#656769"></path><path d="M67.6,33.32a2,2,0,0,0-2-2H34.371a2,2,0,0,0-2,2v3.033H67.6Z" fill="#656769"></path><path d="M74.306,50.61a2.516,2.516,0,1,1-2.515-2.516A2.516,2.516,0,0,1,74.306,50.61Z" fill="#46b000"></path><path d="M54.178 48.094 L65.919 48.094 L65.919 53.126 L54.178 53.126 Z" fill="#00b8f0"></path><path d="M54.178,52.127a1,1,0,0,0,1,1h1.516l5.032-5.033H55.178a1,1,0,0,0-1,1Z" fill="#4acfff"></path><path d="M20.630 43.062 L79.339 43.062 L79.339 68.223 L20.630 68.223 Z" fill="none" stroke="#45413c" stroke-linecap="round" stroke-linejoin="round"></path><path d="M67.6,68.223H32.371V64.191a1,1,0,0,1,1-1H66.6a1,1,0,0,1,1,1Z" fill="none" stroke="#45413c" stroke-linecap="round" stroke-linejoin="round"></path><path d="M69.275,43.062H30.694V37.353a1,1,0,0,1,1-1H68.275a1,1,0,0,1,1,1Z" fill="none" stroke="#45413c" stroke-linecap="round" stroke-linejoin="round"></path><path d="M67.6,33.32a2,2,0,0,0-2-2H34.371a2,2,0,0,0-2,2v3.033H67.6Z" fill="none" stroke="#45413c" stroke-linecap="round" stroke-linejoin="round"></path><path d="M74.306,50.61a2.516,2.516,0,1,1-2.515-2.516A2.516,2.516,0,0,1,74.306,50.61Z" fill="#ff6242" stroke="#45413c" stroke-linecap="round" stroke-linejoin="round"></path><path d="M54.178 48.094 L65.919 48.094 L65.919 53.126 L54.178 53.126 Z" fill="none" stroke="#45413c" stroke-linecap="round" stroke-linejoin="round"></path><path d="M64.242,43.062H35.727V22.933A1.677,1.677,0,0,1,37.4,21.256H57.532l6.71,6.71Z" fill="#ffffff"></path><path d="M35.727 39.707H64.243V43.062H35.727z" fill="#f0f0f0"></path><path d="M64.242,43.062H35.727V22.933A1.677,1.677,0,0,1,37.4,21.256H57.532l6.71,6.71Z" fill="none" stroke="#45413c" stroke-linecap="round" stroke-linejoin="round"></path><path d="M57.532,21.256v5.312a1.4,1.4,0,0,0,1.4,1.4h5.312" fill="none" stroke="#45413c" stroke-linecap="round" stroke-linejoin="round"></path><path d="M27.34 49.772L34.049 49.772" fill="none" stroke="#45413c" stroke-linecap="round" stroke-linejoin="round"></path><path d="M64.242,63.191v15.1a1.678,1.678,0,0,1-1.677,1.678H37.4a1.678,1.678,0,0,1-1.677-1.678v-15.1Z" fill="#ffffff"></path><path d="M35.727 63.191H64.243V67.384H35.727z" fill="#f0f0f0"></path><path d="M64.242,63.191v15.1a1.678,1.678,0,0,1-1.677,1.678H37.4a1.678,1.678,0,0,1-1.677-1.678v-15.1Z" fill="none" stroke="#45413c" stroke-linecap="round" stroke-linejoin="round"></path><path d="M40.758 74.932L55.855 74.932" fill="none" stroke="#45413c" stroke-linecap="round" stroke-linejoin="round"></path><path d="M40.758 71.578L59.21 71.578" fill="none" stroke="#45413c" stroke-linecap="round" stroke-linejoin="round"></path><path d="M40.758 68.223L59.21 68.223" fill="none" stroke="#45413c" stroke-linecap="round" stroke-linejoin="round"></path></g></svg>