<svg xmlns="http://www.w3.org/2000/svg" version="1.1" xmlns:xlink="http://www.w3.org/1999/xlink" xmlns:svgjs="http://svgjs.com/svgjs" viewBox="0 0 160 160" width="160" height="160"><g transform="matrix(1.6,0,0,1.6,0,0)"><path d="M90.6,50A40,40,0,1,0,14.164,66.5H87.036A39.829,39.829,0,0,0,90.6,50Z" fill="#c7f0ff"></path><path d="M14.164,66.5a40,40,0,0,0,72.872,0Z" fill="#ccf7ad"></path><path d="M11.6 66.5L89.6 66.5" fill="none" stroke="#45413c" stroke-linecap="round" stroke-linejoin="round"></path><path d="M7.1 66.5L9.6 66.5" fill="none" stroke="#45413c" stroke-linecap="round" stroke-linejoin="round"></path><path d="M91.6 66.5L94.1 66.5" fill="none" stroke="#45413c" stroke-linecap="round" stroke-linejoin="round"></path><path d="M38.557,74.927H79.434a9.368,9.368,0,0,0,0-18.735H38.557Z" fill="#bf8256"></path><path d="M39.742 35.261L41.204 39.851 36.614 41.313 38.077 45.903 33.487 47.366 34.949 51.956 30.359 53.418 31.821 58.008 27.231 59.471 28.694 64.061 24.104 65.523 25.566 70.113 20.976 71.576 13.411 67.666 32.176 31.351 39.742 35.261z" fill="#daedf7" stroke="#45413c" stroke-linecap="round" stroke-linejoin="round"></path><path d="M7.282,70.251a2.555,2.555,0,0,1,2.346-4.54l11.348,5.865-.782,1.513a3.406,3.406,0,0,1-4.59,1.462Z" fill="#ff6242" stroke="#45413c" stroke-linecap="round" stroke-linejoin="round"></path><path d="M30.739,24.857a2.555,2.555,0,0,0-2.346,4.54l11.349,5.864.782-1.513a3.406,3.406,0,0,0-1.463-4.59Z" fill="#ff6242" stroke="#45413c" stroke-linecap="round" stroke-linejoin="round"></path><path d="M4.625 48.127H45.502V53.237H4.625z" fill="#adc4d9" stroke="#45413c" stroke-linecap="round" stroke-linejoin="round" transform="translate(-31.468 49.681) rotate(-62.672)"></path><path d="M88.8,65.56a9.368,9.368,0,0,0-9.367-9.368H38.557V65.56Z" fill="#dea47a"></path><path d="M38.557,74.927H79.434a9.368,9.368,0,0,0,0-18.735H38.557Z" fill="none" stroke="#45413c" stroke-linecap="round" stroke-linejoin="round"></path><path d="M48.257,56.192H70.4a9.368,9.368,0,0,0,0-18.735H48.257Z" fill="#bf8256"></path><path d="M79.766,46.824A9.367,9.367,0,0,0,70.4,37.457H48.257v9.367Z" fill="#dea47a"></path><path d="M48.257,56.192H70.4a9.368,9.368,0,0,0,0-18.735H48.257Z" fill="none" stroke="#45413c" stroke-linecap="round" stroke-linejoin="round"></path><path d="M47.924 65.560 A9.368 9.368 0 1 0 66.660 65.560 A9.368 9.368 0 1 0 47.924 65.560 Z" fill="#f0d5a8"></path><path d="M29.189 65.560 A9.368 9.368 0 1 0 47.925 65.560 A9.368 9.368 0 1 0 29.189 65.560 Z" fill="#f0d5a8"></path><path d="M38.889 46.824 A9.368 9.368 0 1 0 57.625 46.824 A9.368 9.368 0 1 0 38.889 46.824 Z" fill="#f0d5a8"></path><path d="M42.296 46.824 A5.961 5.961 0 1 0 54.218 46.824 A5.961 5.961 0 1 0 42.296 46.824 Z" fill="#f0d5a8"></path><path d="M32.596 65.560 A5.961 5.961 0 1 0 44.518 65.560 A5.961 5.961 0 1 0 32.596 65.560 Z" fill="#f0d5a8"></path><path d="M51.331 65.560 A5.961 5.961 0 1 0 63.253 65.560 A5.961 5.961 0 1 0 51.331 65.560 Z" fill="#f0d5a8"></path><path d="M62.724 40.863L68.686 40.863" fill="none" stroke="#45413c" stroke-linecap="round" stroke-linejoin="round"></path><path d="M71.759 69.818L75.166 69.818" fill="none" stroke="#45413c" stroke-linecap="round" stroke-linejoin="round"></path><path d="M71.759 61.302L78.572 61.302" fill="none" stroke="#45413c" stroke-linecap="round" stroke-linejoin="round"></path><path d="M78.572 66.855L83.682 66.855" fill="none" stroke="#45413c" stroke-linecap="round" stroke-linejoin="round"></path><path d="M61.54 51.083L66.65 51.083" fill="none" stroke="#45413c" stroke-linecap="round" stroke-linejoin="round"></path><path d="M66.131 45.973L72.944 45.973" fill="none" stroke="#45413c" stroke-linecap="round" stroke-linejoin="round"></path><path d="M38.889,46.824a9.368,9.368,0,0,1,18.736,0Z" fill="#f7e5c6"></path><path d="M42.3,46.824a5.961,5.961,0,0,1,11.922,0Z" fill="#f7e5c6"></path><path d="M47.924,65.56a9.368,9.368,0,1,1,18.736,0Z" fill="#f7e5c6"></path><path d="M51.331,65.56a5.961,5.961,0,1,1,11.922,0Z" fill="#f7e5c6"></path><path d="M29.189,65.56a9.368,9.368,0,1,1,18.735,0Z" fill="#f7e5c6"></path><path d="M32.6,65.56a5.961,5.961,0,1,1,11.922,0Z" fill="#f7e5c6"></path><path d="M47.924 65.560 A9.368 9.368 0 1 0 66.660 65.560 A9.368 9.368 0 1 0 47.924 65.560 Z" fill="none" stroke="#45413c" stroke-linecap="round" stroke-linejoin="round"></path><path d="M29.189 65.560 A9.368 9.368 0 1 0 47.925 65.560 A9.368 9.368 0 1 0 29.189 65.560 Z" fill="none" stroke="#45413c" stroke-linecap="round" stroke-linejoin="round"></path><path d="M38.889 46.824 A9.368 9.368 0 1 0 57.625 46.824 A9.368 9.368 0 1 0 38.889 46.824 Z" fill="none" stroke="#45413c" stroke-linecap="round" stroke-linejoin="round"></path><path d="M42.296 46.824 A5.961 5.961 0 1 0 54.218 46.824 A5.961 5.961 0 1 0 42.296 46.824 Z" fill="none" stroke="#45413c" stroke-linecap="round" stroke-linejoin="round"></path><path d="M32.596 65.560 A5.961 5.961 0 1 0 44.518 65.560 A5.961 5.961 0 1 0 32.596 65.560 Z" fill="none" stroke="#45413c" stroke-linecap="round" stroke-linejoin="round"></path><path d="M51.331 65.560 A5.961 5.961 0 1 0 63.253 65.560 A5.961 5.961 0 1 0 51.331 65.560 Z" fill="none" stroke="#45413c" stroke-linecap="round" stroke-linejoin="round"></path></g></svg>