<svg xmlns="http://www.w3.org/2000/svg" version="1.1" xmlns:xlink="http://www.w3.org/1999/xlink" xmlns:svgjs="http://svgjs.com/svgjs" viewBox="0 0 160 160" width="160" height="160"><g transform="matrix(1.6,0,0,1.6,0,0)"><path d="M10.000 50.000 A40.000 40.000 0 1 0 90.000 50.000 A40.000 40.000 0 1 0 10.000 50.000 Z" fill="#525252" transform="translate(-16.263 25.317) rotate(-24.57)"></path><path d="M50.61,13.779l.33.819a.628.628,0,0,1,.049.221.352.352,0,0,1-.395.325.408.408,0,0,1-.357-.3L48.973,11.7a.431.431,0,0,1-.037-.194.362.362,0,0,1,.356-.326.383.383,0,0,1,.378.268l.557,1.423.52-1.423a.382.382,0,0,1,.377-.268.363.363,0,0,1,.357.326.532.532,0,0,1-.037.194Z" fill="#6dd627"></path><path d="M51.235,19.909a.389.389,0,0,1-.42.4H49.733a1.088,1.088,0,0,1-1.217-1.138.913.913,0,0,1,.8-.893v-.011a.775.775,0,0,1-.488-.771.928.928,0,0,1,.988-.924h1.008a.377.377,0,0,1,.414.393Zm-.787-1.166h-.557c-.367,0-.556.168-.556.415a.445.445,0,0,0,.494.456h.619Zm0-1.481h-.41a.38.38,0,0,0-.426.373.389.389,0,0,0,.426.415h.41Z" fill="#6dd627"></path><path d="M51.344,26.152a.394.394,0,0,1,.069.2c0,.173-.141.257-.309.257h-1.76a.331.331,0,1,1,0-.661h1l-1.191-1.669a.318.318,0,0,1-.078-.227.23.23,0,0,1,.246-.236h1.717a.331.331,0,1,1,0,.662h-.877Z" fill="#6dd627"></path><path d="M49.754,32.1v.447c0,.278-.109.409-.378.409S49,32.822,49,32.544V32.1h-.09a.347.347,0,1,1,0-.692H49V29.794a.594.594,0,0,1,.6-.672.531.531,0,0,1,.535.3l1.176,2.132a.4.4,0,0,1,.074.231.33.33,0,0,1-.367.309Zm0-.692h.719l-.709-1.465h-.01Z" fill="#6dd627"></path><path d="M50.6,38.85a.394.394,0,1,1-.787,0V36.215h-.572a.338.338,0,0,1-.356-.362.351.351,0,0,1,.356-.362h1.931a.351.351,0,0,1,.358.362.339.339,0,0,1-.358.362H50.6Z" fill="#6dd627"></path><path d="M41.508,13.6a.389.389,0,0,1-.42.4h-1.08a1.09,1.09,0,0,1-1.218-1.139.914.914,0,0,1,.8-.893v-.01a.778.778,0,0,1-.488-.772.928.928,0,0,1,.986-.924h1.008a.377.377,0,0,1,.414.394Zm-.787-1.165h-.556c-.368,0-.557.168-.557.415a.446.446,0,0,0,.494.457h.619Zm0-1.479h-.408a.378.378,0,0,0-.426.372.39.39,0,0,0,.426.415h.408Z" fill="#6dd627"></path><path d="M41.508,19.929a.394.394,0,1,1-.787,0V18.785H39.073v1.144a.394.394,0,1,1-.787,0V16.948a.394.394,0,1,1,.787,0v1.113h1.648V16.948a.394.394,0,1,1,.787,0Z" fill="#6dd627"></path><path d="M41.508,26.22a.384.384,0,0,1-.414.394H40.18a1.7,1.7,0,0,1-1.8-1.817,1.74,1.74,0,0,1,1.848-1.92H41.1a.386.386,0,0,1,.4.4ZM40.721,23.6h-.476c-.725,0-1.039.488-1.039,1.16,0,.63.308,1.128.986,1.128h.529Z" fill="#6dd627"></path><path d="M39.629,30.612c0-.373.573-.546.946-.546a.917.917,0,0,1,1.023.882c0,.866-1.312.813-1.312,1.16,0,.142.068.215.3.215.357,0,.488-.257.783-.257a.356.356,0,0,1,.324.336c0,.341-.629.583-1.055.583a.954.954,0,0,1-1.076-.888c0-.86,1.313-.808,1.313-1.16,0-.146-.121-.21-.258-.21-.246,0-.535.221-.676.221A.327.327,0,0,1,39.629,30.612Z" fill="#6dd627"></path><path d="M41.508,38.835a.384.384,0,0,1-.414.393H40.18a1.7,1.7,0,0,1-1.8-1.816,1.741,1.741,0,0,1,1.848-1.921H41.1a.386.386,0,0,1,.4.4Zm-.787-2.62h-.476c-.725,0-1.039.489-1.039,1.161,0,.629.308,1.127.986,1.127h.529Z" fill="#6dd627"></path><path d="M20.473,28.422c-1.058,0-1.39-1.076-1.39-1.931s.332-1.932,1.39-1.932,1.393,1.075,1.393,1.932S21.534,28.422,20.473,28.422Zm0-.714c.537,0,.572-.845.572-1.217,0-.4-.035-1.219-.572-1.219s-.57.819-.57,1.219C19.9,26.863,19.938,27.708,20.473,27.708Z" fill="#6dd627"></path><path d="M21.182,34.289a.394.394,0,1,1-.787,0V31.3a.343.343,0,0,1,.352-.373h.746a.353.353,0,0,1,.357.363.339.339,0,0,1-.357.362h-.311Z" fill="#6dd627"></path><path d="M20.473,41.036c-1.058,0-1.39-1.075-1.39-1.932s.332-1.932,1.39-1.932,1.393,1.077,1.393,1.932S21.534,41.036,20.473,41.036Zm0-.713c.537,0,.572-.846.572-1.219,0-.4-.035-1.217-.572-1.217s-.57.819-.57,1.217C19.9,39.477,19.938,40.323,20.473,40.323Z" fill="#6dd627"></path><path d="M20.473,47.344c-1.058,0-1.39-1.076-1.39-1.931s.332-1.932,1.39-1.932,1.393,1.075,1.393,1.932S21.534,47.344,20.473,47.344Zm0-.715c.537,0,.572-.844.572-1.216,0-.4-.035-1.219-.572-1.219s-.57.819-.57,1.219C19.9,45.785,19.938,46.629,20.473,46.629Z" fill="#6dd627"></path><path d="M21.182,53.21a.394.394,0,1,1-.787,0V50.223a.343.343,0,0,1,.352-.373h.746a.353.353,0,0,1,.357.362.339.339,0,0,1-.357.363h-.311Z" fill="#6dd627"></path><path d="M20.473,59.958c-1.058,0-1.39-1.076-1.39-1.932s.332-1.932,1.39-1.932,1.393,1.076,1.393,1.932S21.534,59.958,20.473,59.958Zm0-.713c.537,0,.572-.846.572-1.219,0-.4-.035-1.217-.572-1.217s-.57.818-.57,1.217C19.9,58.4,19.938,59.245,20.473,59.245Z" fill="#6dd627"></path><path d="M21.182,65.824a.394.394,0,1,1-.787,0V62.837a.343.343,0,0,1,.352-.373h.746a.353.353,0,0,1,.357.363.339.339,0,0,1-.357.362h-.311Z" fill="#6dd627"></path><path d="M21.182,72.131a.394.394,0,1,1-.787,0V69.145a.343.343,0,0,1,.352-.373h.746a.353.353,0,0,1,.357.362.339.339,0,0,1-.357.363h-.311Z" fill="#6dd627"></path><path d="M31.473,20.092a.382.382,0,0,1-.4.394H29.715a.356.356,0,0,1-.373-.362.35.35,0,0,1,.373-.363h.971v-.8h-.861a.361.361,0,0,1-.383-.362.356.356,0,0,1,.383-.362h.861v-.766h-.924a.355.355,0,0,1-.373-.362.349.349,0,0,1,.373-.362h1.3c.277,0,.408.194.408.457Z" fill="#6dd627"></path><path d="M28.913,24.389a.381.381,0,0,1,.377-.42.362.362,0,0,1,.379.316.818.818,0,0,1,.693-.347,1.353,1.353,0,0,1,1.244,1.47c0,.751-.373,1.448-1.166,1.448a.867.867,0,0,1-.762-.356h-.009v.178a.582.582,0,0,0,.64.6c.436,0,.7-.235.944-.235a.366.366,0,0,1,.3.33c0,.415-.881.567-1.191.567a1.294,1.294,0,0,1-1.453-1.365Zm.756,1.03c0,.367.189.745.593.745s.588-.368.588-.772c0-.351-.2-.761-.588-.761C29.846,24.631,29.669,25.051,29.669,25.419Z" fill="#6dd627"></path><path d="M31.336,32.5a.266.266,0,0,1,.19.267c0,.221-.121.331-.252.331a.6.6,0,0,1-.262-.073l-2.074-.956a.328.328,0,0,1,0-.6l2.074-.95a.573.573,0,0,1,.262-.079c.131,0,.252.11.252.331a.268.268,0,0,1-.19.268l-1.746.729Z" fill="#6dd627"></path><path d="M30.481,35.985a.357.357,0,0,1,.385-.377h.523a.3.3,0,0,1,0,.6h-.246v3.412h.246a.3.3,0,0,1,0,.6h-.523a.357.357,0,0,1-.385-.378Z" fill="#6dd627"></path><path d="M31.311,45.326a.38.38,0,1,1-.756,0V43.584H30.34a.321.321,0,0,1-.363-.332c0-.241.168-.33.363-.33h.215V42.47a.38.38,0,1,1,.756,0v.452h.168a.322.322,0,0,1,.33.33.306.306,0,0,1-.33.332h-.168Z" fill="#6dd627"></path><path d="M31.311,62.4a.38.38,0,1,1-.756,0V60.657H30.34a.32.32,0,0,1-.363-.331c0-.242.168-.331.363-.331h.215v-.452a.38.38,0,1,1,.756,0V60h.168a.322.322,0,0,1,.33.331.306.306,0,0,1-.33.331h-.168Z" fill="#6dd627"></path><path d="M68.773,63.4a.38.38,0,1,1-.756,0V61.657H67.8a.32.32,0,0,1-.363-.331c0-.242.168-.331.363-.331h.215v-.452a.38.38,0,1,1,.756,0V61h.168a.323.323,0,0,1,.33.331.306.306,0,0,1-.33.331h-.168Z" fill="#6dd627"></path><path d="M30.3,51.329c-.445-.562-1.259-1.285-1.259-2.016a1.09,1.09,0,0,1,1.166-1.092,1.235,1.235,0,0,1,1.232,1.193.363.363,0,0,1-.383.382c-.5,0-.215-.85-.818-.85a.394.394,0,0,0-.379.4.873.873,0,0,0,.183.488c.4.578.872,1.05,1.309,1.57a.444.444,0,0,1,.119.267c0,.242-.178.347-.408.347H29.311a.338.338,0,0,1-.377-.347c0-.241.178-.346.408-.346Z" fill="#6dd627"></path><path d="M70.317,22.922a.382.382,0,0,1-.4.394H68.559a.356.356,0,0,1-.373-.362.35.35,0,0,1,.373-.363h.971v-.8h-.861a.361.361,0,0,1-.383-.363.356.356,0,0,1,.383-.362h.861V20.3h-.924a.355.355,0,0,1-.373-.362.349.349,0,0,1,.373-.362h1.3c.277,0,.408.194.408.457Z" fill="#6dd627"></path><path d="M67.756,27.219a.381.381,0,0,1,.377-.42.362.362,0,0,1,.379.316.821.821,0,0,1,.694-.347,1.354,1.354,0,0,1,1.244,1.47c0,.751-.373,1.448-1.166,1.448a.867.867,0,0,1-.762-.356h-.01v.178a.582.582,0,0,0,.641.6c.435,0,.7-.235.943-.235a.366.366,0,0,1,.3.33c0,.415-.881.567-1.191.567A1.3,1.3,0,0,1,67.756,29.4Zm.756,1.03c0,.367.19.745.594.745s.588-.367.588-.772c0-.351-.2-.761-.588-.761C68.69,27.461,68.512,27.881,68.512,28.249Z" fill="#6dd627"></path><path d="M70.18,35.332a.266.266,0,0,1,.19.267c0,.221-.121.331-.252.331a.6.6,0,0,1-.262-.073L67.782,34.9a.327.327,0,0,1,0-.6l2.074-.95a.57.57,0,0,1,.262-.079c.131,0,.252.11.252.331a.268.268,0,0,1-.19.268l-1.746.729Z" fill="#6dd627"></path><path d="M69.325,38.815a.357.357,0,0,1,.385-.377h.523a.3.3,0,0,1,0,.6h-.246v3.412h.246a.3.3,0,0,1,0,.6H69.71a.357.357,0,0,1-.385-.377Z" fill="#6dd627"></path><path d="M70.155,48.156a.38.38,0,1,1-.756,0V46.414h-.215a.32.32,0,0,1-.363-.331c0-.242.168-.331.363-.331H69.4V45.3a.38.38,0,1,1,.756,0v.452h.168a.323.323,0,0,1,.33.331.306.306,0,0,1-.33.331h-.168Z" fill="#6dd627"></path><path d="M69.147,54.159c-.445-.562-1.26-1.285-1.26-2.016a1.091,1.091,0,0,1,1.166-1.092,1.235,1.235,0,0,1,1.233,1.193.363.363,0,0,1-.383.383c-.5,0-.215-.851-.818-.851a.394.394,0,0,0-.379.4.872.872,0,0,0,.183.489c.4.577.871,1.049,1.309,1.569a.444.444,0,0,1,.119.267c0,.242-.178.347-.408.347H68.155a.338.338,0,0,1-.377-.347c0-.241.178-.346.408-.346Z" fill="#6dd627"></path><path d="M79.471,26.879a1.3,1.3,0,0,1-1.318-1.3,1.143,1.143,0,0,1,1.1-1.176.84.84,0,0,1,.33.063l.011-.01c-.173-.246-.515-.582-.724-.84a.372.372,0,0,1-.112-.215.447.447,0,0,1,.373-.383.283.283,0,0,1,.159.036,1.288,1.288,0,0,1,.168.126,4.247,4.247,0,0,1,1.334,2.4A1.274,1.274,0,0,1,79.471,26.879Zm0-1.847a.5.5,0,0,0-.5.545.5.5,0,1,0,.5-.545Z" fill="#6dd627"></path><path d="M78.18,30.719a.381.381,0,0,1,.377-.42.362.362,0,0,1,.379.316.835.835,0,0,1,.719-.347,1.48,1.48,0,0,1-.026,2.918,1.078,1.078,0,0,1-.693-.262v.924a.38.38,0,1,1-.756,0Zm.756.988c0,.367.178.787.594.787.392,0,.588-.409.588-.761s-.2-.772-.588-.772S78.936,31.338,78.936,31.707Z" fill="#6dd627"></path><path d="M80.762,39.042a.38.38,0,1,1-.756,0V37.724c0-.3-.136-.519-.445-.519-.273,0-.441.214-.441.519v1.318a.38.38,0,1,1-.756,0V37.724a.457.457,0,0,0-.447-.519c-.272,0-.44.214-.44.519v1.318a.38.38,0,1,1-.756,0V37.593a.947.947,0,0,1,1.033-1.018,1.139,1.139,0,0,1,.8.383.965.965,0,0,1,.782-.383.938.938,0,0,1,.7.314.319.319,0,0,1,.347-.283.382.382,0,0,1,.377.42Z" fill="#6dd627"></path><path d="M80.889,43.87A1.817,1.817,0,0,1,79.083,45.8c-.389,0-1.182-.116-1.182-.62a.37.37,0,0,1,.348-.356c.214,0,.392.22.834.22a1.03,1.03,0,0,0,.986-1.16c0-.64-.336-1.191-.986-1.191-.442,0-.588.183-.8.183a.333.333,0,0,1-.326-.351c0-.463.746-.588,1.129-.588A1.812,1.812,0,0,1,80.889,43.87Z" fill="#6dd627"></path><path d="M80.479,51.52a.374.374,0,0,1,.053.184.411.411,0,0,1-.436.372c-.236,0-.3-.105-.441-.4l-1.3-2.645a.875.875,0,0,1-.121-.347.381.381,0,0,1,.377-.378h1.9a.344.344,0,0,1,.389.362.349.349,0,0,1-.389.363H79.167Z" fill="#6dd627"></path><path d="M79.881,57.659,78.2,55.329a.586.586,0,0,1-.117-.336.391.391,0,0,1,.441-.378h1.922a.362.362,0,0,1,.367.356.331.331,0,0,1-.367.336H79.067l1.689,2.362a.522.522,0,0,1,.106.3c0,.221-.162.378-.442.378H78.358a.369.369,0,0,1-.377-.347.336.336,0,0,1,.377-.346Z" fill="#6dd627"></path><path d="M78.862,62.349c0-.373.572-.546.945-.546a.919.919,0,0,1,1.024.882c0,.866-1.313.814-1.313,1.16,0,.142.068.215.3.215.357,0,.488-.257.783-.257a.356.356,0,0,1,.324.336c0,.341-.629.582-1.054.582-.651,0-1.076-.383-1.076-.886,0-.861,1.312-.809,1.312-1.161,0-.146-.121-.21-.258-.21-.246,0-.535.221-.676.221A.327.327,0,0,1,78.862,62.349Z" fill="#6dd627"></path><path d="M80.741,70.573a.382.382,0,0,1-.405.393H78.983a.355.355,0,0,1-.373-.362.349.349,0,0,1,.373-.362h.971v-.8h-.862a.36.36,0,0,1-.382-.362.356.356,0,0,1,.382-.363h.862v-.765H79.03a.356.356,0,0,1-.373-.363.35.35,0,0,1,.373-.362h1.3c.277,0,.408.194.408.457Z" fill="#6dd627"></path><path d="M79.881,76.581,78.2,74.25a.586.586,0,0,1-.117-.336.391.391,0,0,1,.441-.378h1.922a.363.363,0,0,1,.367.357.332.332,0,0,1-.367.336H79.067l1.689,2.361a.52.52,0,0,1,.106.3c0,.221-.162.378-.442.378H78.358a.37.37,0,0,1-.377-.347.335.335,0,0,1,.377-.345Z" fill="#6dd627"></path><path d="M60.028,13.622a.394.394,0,1,1-.787,0V10.635a.341.341,0,0,1,.351-.373h.744a.352.352,0,0,1,.358.363.34.34,0,0,1-.358.362h-.308Z" fill="#6dd627"></path><path d="M59.319,20.37c-1.061,0-1.391-1.076-1.391-1.932s.33-1.932,1.391-1.932,1.391,1.077,1.391,1.932S60.379,20.37,59.319,20.37Zm0-.713c.535,0,.572-.846.572-1.219,0-.4-.037-1.217-.572-1.217s-.572.819-.572,1.217C58.747,18.811,58.784,19.657,59.319,19.657Z" fill="#6dd627"></path><path d="M59.319,26.676c-1.061,0-1.391-1.075-1.391-1.931s.33-1.932,1.391-1.932,1.391,1.076,1.391,1.932S60.379,26.676,59.319,26.676Zm0-.713c.535,0,.572-.845.572-1.218,0-.4-.037-1.217-.572-1.217s-.572.818-.572,1.217C58.747,25.118,58.784,25.963,59.319,25.963Z" fill="#6dd627"></path><path d="M60.028,32.544a.394.394,0,1,1-.787,0V29.557a.341.341,0,0,1,.351-.373h.744a.352.352,0,0,1,.358.362.34.34,0,0,1-.358.363h-.308Z" fill="#6dd627"></path><path d="M60.028,38.85a.394.394,0,1,1-.787,0V35.864a.341.341,0,0,1,.351-.373h.744a.351.351,0,0,1,.358.362.339.339,0,0,1-.358.362h-.308Z" fill="#6dd627"></path><path d="M70.381,89.071V78.956A19.873,19.873,0,0,0,49.549,59.1c-10.692.5-18.93,9.715-18.93,20.42v9.553" fill="#525252" stroke="#45413c" stroke-linecap="round" stroke-linejoin="round"></path><path d="M70.381,89.071V78.956A19.875,19.875,0,0,0,57.566,60.367v8.328l-2.93,7.326a12.831,12.831,0,0,0-.917,4.764v8.286Z" fill="#87898c"></path><path d="M57.567,60.367v2.556a19.878,19.878,0,0,1,12.815,18.59V78.956A19.876,19.876,0,0,0,57.567,60.367Z" fill="#bdbec0"></path><path d="M70.381,89.071V78.956A19.875,19.875,0,0,0,57.566,60.367v8.328l-2.93,7.326a12.831,12.831,0,0,0-.917,4.764v8.286" fill="none" stroke="#45413c" stroke-linecap="round" stroke-linejoin="round"></path><path d="M52.681,66.772h0a4.489,4.489,0,0,1-4.362,0h0a4.489,4.489,0,0,1-2.308-3.924v-7.62h8.978v7.62A4.489,4.489,0,0,1,52.681,66.772Z" fill="#ffcebf"></path><path d="M46.011,59.7a15.619,15.619,0,0,0,8.978,0V55.228H46.011Z" fill="#ffb59e"></path><path d="M52.681,66.772h0a4.489,4.489,0,0,1-4.362,0h0a4.489,4.489,0,0,1-2.308-3.924v-7.62h8.978v7.62A4.489,4.489,0,0,1,52.681,66.772Z" fill="none" stroke="#45413c" stroke-linecap="round" stroke-linejoin="round"></path><path d="M62.685 79.101L62.685 89.071" fill="none" stroke="#45413c" stroke-linecap="round" stroke-linejoin="round"></path><path d="M63.337,41.76V38.553a12.826,12.826,0,0,0-25.652,0V41.76a2.565,2.565,0,1,0,0,5.13c.053,0,.1-.012.157-.015a12.809,12.809,0,0,0,25.338,0c.053,0,.1.015.157.015a2.565,2.565,0,1,0,0-5.13Z" fill="#ffcebf"></path><path d="M63.337,41.76V38.553a12.826,12.826,0,0,0-25.652,0V41.76a2.565,2.565,0,1,0,0,5.13c.053,0,.1-.012.157-.015a12.809,12.809,0,0,0,25.338,0c.053,0,.1.015.157.015a2.565,2.565,0,1,0,0-5.13Z" fill="none" stroke="#45413c" stroke-linecap="round" stroke-linejoin="round"></path><path d="M41.533 47.211 A1.603 1.603 0 1 0 44.739 47.211 A1.603 1.603 0 1 0 41.533 47.211 Z" fill="#ffb59e"></path><path d="M56.283 47.211 A1.603 1.603 0 1 0 59.489 47.211 A1.603 1.603 0 1 0 56.283 47.211 Z" fill="#ffb59e"></path><path d="M46.652,50.468a5.6,5.6,0,0,0,7.718,0" fill="none" stroke="#45413c" stroke-linecap="round" stroke-linejoin="round"></path><path d="M52.435,34.064a12.309,12.309,0,0,0,4.694-1.192,8.323,8.323,0,0,1,4.926,7.575,1.3,1.3,0,0,0,1.293,1.313,1.273,1.273,0,0,0,1.272-1.272V34.757a8.368,8.368,0,0,0-3.219-6.6c-.135-3.125-4.954-5.639-10.89-5.639s-10.755,2.514-10.89,5.639a8.368,8.368,0,0,0-3.219,6.6v5.731a1.273,1.273,0,0,0,1.272,1.272,1.3,1.3,0,0,0,1.293-1.313,8.323,8.323,0,0,1,4.926-7.575l.846-.091s2.57.059,3.207,1.924a2.313,2.313,0,0,1-.108,1.93.649.649,0,0,0,.44.978,3.55,3.55,0,0,0,2.874-.984c2.138-1.817.962-4.489,0-4.489" fill="#656769"></path><path d="M61.4,28.159c-.135-3.125-4.954-5.639-10.89-5.639s-10.755,2.514-10.89,5.639a8.368,8.368,0,0,0-3.219,6.6v3.206a8.367,8.367,0,0,1,3.219-6.6c.135-3.126,4.953-5.639,10.89-5.639S61.266,28.24,61.4,31.366a8.367,8.367,0,0,1,3.219,6.6V34.757A8.368,8.368,0,0,0,61.4,28.159Z" fill="#87898c"></path><path d="M52.435,34.064a12.309,12.309,0,0,0,4.694-1.192,8.323,8.323,0,0,1,4.926,7.575,1.3,1.3,0,0,0,1.293,1.313,1.273,1.273,0,0,0,1.272-1.272V34.757a8.368,8.368,0,0,0-3.219-6.6c-.135-3.125-4.954-5.639-10.89-5.639s-10.755,2.514-10.89,5.639a8.368,8.368,0,0,0-3.219,6.6v5.731a1.273,1.273,0,0,0,1.272,1.272,1.3,1.3,0,0,0,1.293-1.313,8.323,8.323,0,0,1,4.926-7.575l.846-.091s2.57.059,3.207,1.924a2.313,2.313,0,0,1-.108,1.93.649.649,0,0,0,.44.978,3.55,3.55,0,0,0,2.874-.984c2.138-1.817.962-4.489,0-4.489" fill="none" stroke="#45413c" stroke-linecap="round" stroke-linejoin="round"></path><path d="M55,59.7h0c4.475,0,9.618,3.37,9.618,5.149l-3.848,2.566,1.063,7.44a3.845,3.845,0,0,1-.69,2.8L53.719,87.935v-7.15a12.827,12.827,0,0,1,.917-4.764l2.93-7.326Z" fill="#656769"></path><path d="M63.486,65.6l1.135-.757c0-1.779-5.143-5.149-9.618-5.149h0l.74,2.594A14.16,14.16,0,0,1,63.486,65.6Z" fill="#87898c"></path><path d="M55,59.7h0c4.475,0,9.618,3.37,9.618,5.149l-3.848,2.566,1.063,7.44a3.845,3.845,0,0,1-.69,2.8L53.719,87.935v-7.15a12.827,12.827,0,0,1,.917-4.764l2.93-7.326Z" fill="none" stroke="#45413c" stroke-linecap="round" stroke-linejoin="round"></path><path d="M47.306,80.79v8.281H30.619v-9.55A20.525,20.525,0,0,1,43.458,60.409v8.286l2.925,7.324A12.653,12.653,0,0,1,47.306,80.79Z" fill="#87898c"></path><path d="M43.458,63.565V60.409A20.525,20.525,0,0,0,30.619,79.521v3.155A20.524,20.524,0,0,1,43.458,63.565Z" fill="#bdbec0"></path><path d="M30.619,89.071v-9.55A20.525,20.525,0,0,1,43.458,60.409v8.286l2.925,7.324a12.653,12.653,0,0,1,.923,4.771v8.281" fill="none" stroke="#45413c" stroke-linecap="round" stroke-linejoin="round"></path><path d="M38.315 79.101L38.315 89.071" fill="none" stroke="#45413c" stroke-linecap="round" stroke-linejoin="round"></path><path d="M38.98,41.76c1.689-1.98,6.5-1.527,9.1-.562a1.281,1.281,0,0,1,.721.669c.353.772-.382,2.844-2.111,3.621C45,46.248,38.98,45.014,38.98,41.76Z" fill="#656769"></path><path d="M38.98,41.76c0,1.4,1.114,2.425,2.518,3.08l4.247-4.248C43.227,40.16,40.239,40.284,38.98,41.76Z" fill="#87898c"></path><path d="M46.022,59.593h0c-3.859,0-9.619,3.475-9.619,5.254l3.848,2.566-1.063,7.44a3.845,3.845,0,0,0,.69,2.8l7.427,10.285v-7.15a12.826,12.826,0,0,0-.917-4.763l-2.931-7.327Z" fill="#656769"></path><path d="M45.253,62.323l.769-2.73c-3.859,0-9.619,3.475-9.619,5.254l1.256.838A15.737,15.737,0,0,1,45.253,62.323Z" fill="#87898c"></path><path d="M46.022,59.593h0c-3.859,0-9.619,3.475-9.619,5.254l3.848,2.566-1.063,7.44a3.845,3.845,0,0,0,.69,2.8l7.427,10.285v-7.15a12.826,12.826,0,0,0-.917-4.763l-2.931-7.327Z" fill="none" stroke="#45413c" stroke-linecap="round" stroke-linejoin="round"></path><path d="M62.068,41.76c-1.689-1.98-6.495-1.527-9.1-.562a1.281,1.281,0,0,0-.721.669c-.353.772.382,2.844,2.111,3.621C56.051,46.248,62.068,45.014,62.068,41.76Z" fill="#656769"></path><path d="M52.971,41.2a1.284,1.284,0,0,0-.721.669c-.324.709.27,2.514,1.709,3.406l4.851-4.852A14.4,14.4,0,0,0,52.971,41.2Z" fill="#87898c"></path><path d="M38.98,41.76c1.689-1.98,6.5-1.527,9.1-.562a1.281,1.281,0,0,1,.721.669c.353.772-.382,2.844-2.111,3.621C45,46.248,38.98,45.014,38.98,41.76Z" fill="none" stroke="#45413c" stroke-linecap="round" stroke-linejoin="round"></path><path d="M62.068,41.76c-1.689-1.98-6.495-1.527-9.1-.562a1.281,1.281,0,0,0-.721.669c-.353.772.382,2.844,2.111,3.621C56.051,46.248,62.068,45.014,62.068,41.76Z" fill="none" stroke="#45413c" stroke-linecap="round" stroke-linejoin="round"></path><path d="M48.882 42.401L52.166 42.401" fill="none" stroke="#45413c" stroke-linecap="round" stroke-linejoin="round"></path></g></svg>