<svg xmlns="http://www.w3.org/2000/svg" version="1.1" xmlns:xlink="http://www.w3.org/1999/xlink" xmlns:svgjs="http://svgjs.com/svgjs" viewBox="0 0 160 160" width="160" height="160"><g transform="matrix(1.6,0,0,1.6,0,0)"><path d="M90,50A40,40,0,1,0,13.564,66.5H86.436A39.844,39.844,0,0,0,90,50Z" fill="#c7f0ff"></path><path d="M13.564,66.5a40,40,0,0,0,72.872,0Z" fill="#c0dceb"></path><path d="M11 66.5L89 66.5" fill="none" stroke="#45413c" stroke-linecap="round" stroke-linejoin="round"></path><path d="M6.5 66.5L9 66.5" fill="none" stroke="#45413c" stroke-linecap="round" stroke-linejoin="round"></path><path d="M91 66.5L93.5 66.5" fill="none" stroke="#45413c" stroke-linecap="round" stroke-linejoin="round"></path><path d="M51.837,83.05h-4.9a1,1,0,0,1-1-1V56.6h6.9V82.05A1,1,0,0,1,51.837,83.05Z" fill="#656769"></path><path d="M45.937 56.6H52.836999999999996V60.050000000000004H45.937z" fill="#525252"></path><path d="M51.837,83.05h-4.9a1,1,0,0,1-1-1V56.6h6.9V82.05A1,1,0,0,1,51.837,83.05Z" fill="none" stroke="#45413c" stroke-linecap="round" stroke-linejoin="round"></path><path d="M63.762,54.875A1.725,1.725,0,0,1,62.037,56.6h-25.3a1.725,1.725,0,1,1,0-3.45h25.3A1.725,1.725,0,0,1,63.762,54.875Z" fill="#bf8256"></path><path d="M36.737,54.875h25.3a1.723,1.723,0,0,1,1.494.863,1.726,1.726,0,0,0-1.494-2.588h-25.3a1.724,1.724,0,0,0-1.493,2.588A1.722,1.722,0,0,1,36.737,54.875Z" fill="#dea47a"></path><path d="M63.762,54.875A1.725,1.725,0,0,1,62.037,56.6h-25.3a1.725,1.725,0,1,1,0-3.45h25.3A1.725,1.725,0,0,1,63.762,54.875Z" fill="none" stroke="#45413c" stroke-linejoin="round"></path><path d="M55.225,43.541c-.475,1.9,1.98,1.562,1.17,3.849A26.947,26.947,0,0,0,57.9,44.211a1.38,1.38,0,1,0-2.677-.67Z" fill="#ffffff" stroke="#45413c" stroke-linecap="round" stroke-linejoin="round"></path><path d="M58.587,49.7c0,1.588-.575,3.45-2.875,3.45-2.059,0-2.735-1.493-2.854-2.945a.466.466,0,0,1,.466-.5Z" fill="#ff6242" stroke="#45413c" stroke-linecap="round" stroke-linejoin="round"></path><path d="M60.312,51.425A1.725,1.725,0,0,0,58.587,49.7" fill="none" stroke="#45413c" stroke-linecap="round" stroke-linejoin="round"></path><path d="M48.161,43.35c.475,1.9-1.98,1.562-1.17,3.849a26.947,26.947,0,0,1-1.507-3.179,1.38,1.38,0,1,1,2.677-.67Z" fill="#ffffff" stroke="#45413c" stroke-linecap="round" stroke-linejoin="round"></path><path d="M43.062,49.7c0,1.588.575,3.45,2.875,3.45,2.06,0,2.736-1.493,2.855-2.945a.468.468,0,0,0-.466-.5Z" fill="#fffce5" stroke="#45413c" stroke-linecap="round" stroke-linejoin="round"></path><path d="M41.337,51.425A1.725,1.725,0,0,1,43.062,49.7" fill="none" stroke="#45413c" stroke-linecap="round" stroke-linejoin="round"></path><path d="M45.500 21.500 A6.500 6.500 0 1 0 58.500 21.500 A6.500 6.500 0 1 0 45.500 21.500 Z" fill="#00dba8" stroke="#45413c" stroke-linecap="round" stroke-linejoin="round"></path><path d="M47.500 21.500 A4.500 4.500 0 1 0 56.500 21.500 A4.500 4.500 0 1 0 47.500 21.500 Z" fill="#ffffff" stroke="#45413c" stroke-linecap="round" stroke-linejoin="round"></path><path d="M53.5 20.5L52 21.5 52 18.5" fill="#ffffff" stroke="#45413c" stroke-linecap="round" stroke-linejoin="round"></path><path d="M60.719 85.175 A8.749 1.805 0 1 0 78.217 85.175 A8.749 1.805 0 1 0 60.719 85.175 Z" fill="#45413c" opacity=".15"></path><path d="M54.915,61.4a2.176,2.176,0,0,0,2.172,2.173c4.786,0,10.137-4.644,10.137-10.861v-.731a2.173,2.173,0,0,0-4.345,0v.731c0,3.978-3.43,6.516-5.792,6.516A2.175,2.175,0,0,0,54.915,61.4Z" fill="#d18660" stroke="#45413c" stroke-linecap="round" stroke-linejoin="round"></path><path d="M71.598 80.964L75.81 80.964 76.412 72.54 71.598 72.54 71.598 80.964z" fill="#d18660"></path><path d="M71.598 74.345L76.283 74.345 76.412 72.54 71.598 72.54 71.598 74.345z" fill="#bd704a"></path><path d="M71.598 80.964L75.81 80.964 76.412 72.54 71.598 72.54 71.598 80.964z" fill="none" stroke="#45413c" stroke-linecap="round" stroke-linejoin="round"></path><path d="M71.598 80.964L67.386 80.964 66.785 72.54 71.598 72.54 71.598 80.964z" fill="#d18660"></path><path d="M71.598 74.345L66.914 74.345 66.785 72.54 71.598 72.54 71.598 74.345z" fill="#bd704a"></path><path d="M71.598 80.964L67.386 80.964 66.785 72.54 71.598 72.54 71.598 80.964z" fill="none" stroke="#45413c" stroke-linecap="round" stroke-linejoin="round"></path><path d="M71.6,80.964h-3.65A4.12,4.12,0,0,0,64.61,82.54a1.249,1.249,0,0,0,.971,2.034H71.6Z" fill="#f7e5c6" stroke="#45413c" stroke-linejoin="round"></path><path d="M75.81,80.964H72.159a4.118,4.118,0,0,0-3.337,1.576,1.249,1.249,0,0,0,.971,2.034h4.814a1.2,1.2,0,0,0,1.2-1.2Z" fill="#f7e5c6" stroke="#45413c" stroke-linejoin="round"></path><path d="M78.217,59.905l-.545,11.433a1.262,1.262,0,0,1-1.26,1.2H66.785a1.262,1.262,0,0,1-1.261-1.2L64.98,59.905Z" fill="#f7e5c6"></path><path d="M78.073 62.913L78.217 59.905 64.98 59.905 65.123 62.913 78.073 62.913z" fill="#f0d5a8"></path><path d="M78.217,59.905l-.545,11.433a1.262,1.262,0,0,1-1.26,1.2H66.785a1.262,1.262,0,0,1-1.261-1.2L64.98,59.905Z" fill="none" stroke="#45413c" stroke-linecap="round" stroke-linejoin="round"></path><path d="M61.971,49.1A10.3,10.3,0,0,1,72.292,38.959,10.137,10.137,0,0,1,82.428,49.1v4.792H78.217v6.017H64.98V53.888H63.359a1.636,1.636,0,0,1-1.388-1.48Z" fill="#ff6242"></path><path d="M72.292,38.959A10.3,10.3,0,0,0,61.971,49.1V51.5A10.3,10.3,0,0,1,72.292,41.366,10.136,10.136,0,0,1,82.428,51.5V49.1A10.137,10.137,0,0,0,72.292,38.959Z" fill="#ff866e"></path><path d="M61.971,49.1A10.3,10.3,0,0,1,72.292,38.959,10.137,10.137,0,0,1,82.428,49.1v4.792H78.217v6.017H64.98V53.888H63.359a1.636,1.636,0,0,1-1.388-1.48Z" fill="none" stroke="#45413c" stroke-linecap="round" stroke-linejoin="round"></path><path d="M74.559,39.229l0-3.907H69.841l0,3.229a.949.949,0,0,1-.667.906c-.25.077-.5.164-.737.263L71.6,48.473l3.261-9.185C74.762,39.262,74.658,39.252,74.559,39.229Z" fill="#d18660" stroke="#45413c" stroke-linecap="round" stroke-linejoin="round"></path><path d="M78.217 56.336L78.217 49.074" fill="none" stroke="#45413c" stroke-linecap="round" stroke-linejoin="round"></path><path d="M71.598 48.473L71.598 59.956" fill="none" stroke="#45413c" stroke-linecap="round" stroke-linejoin="round"></path><path d="M66.448,43.8a1.2,1.2,0,0,0,1.107,1.66H70.51l-2.08-5.753c-.133.053-.264.109-.393.167Z" fill="#ffffff" stroke="#45413c" stroke-linecap="round" stroke-linejoin="round"></path><path d="M76.749,43.8l-1.821-4.5-.069-.017-2.193,6.175h2.975A1.2,1.2,0,0,0,76.749,43.8Z" fill="#ffffff" stroke="#45413c" stroke-linecap="round" stroke-linejoin="round"></path><path d="M64.98,53.888a3.869,3.869,0,0,0-.6-2.407,4.464,4.464,0,0,1-.6-2.407" fill="none" stroke="#45413c" stroke-linecap="round" stroke-linejoin="round"></path><path d="M77.217,61.71H72a1,1,0,0,1-1-1V51.879a1,1,0,0,1,1-1h6.221V60.71A1,1,0,0,1,77.217,61.71Z" fill="#00dba8" stroke="#45413c" stroke-linecap="round" stroke-linejoin="round"></path><path d="M78.217,53.888a1.805,1.805,0,0,1-1.8,1.8h-4.5a2.106,2.106,0,1,0,0,4.212h4.5a6.016,6.016,0,0,0,6.016-6.017Z" fill="#d18660" stroke="#45413c" stroke-linecap="round" stroke-linejoin="round"></path><path d="M72.221,20.64a7.24,7.24,0,0,1,7.24,7.24v1.448c2.067,0,1.926,3.621-.362,3.621l-.006,0A7.22,7.22,0,0,1,64.98,30.776v-2.9A7.24,7.24,0,0,1,72.221,20.64Z" fill="#d18660" stroke="#45413c" stroke-linecap="round" stroke-linejoin="round"></path><path d="M72.582,29.8a.906.906,0,1,0,.906-.9A.906.906,0,0,0,72.582,29.8Z" fill="#45413c"></path><path d="M67.152,29.8a.905.905,0,1,0,.905-.9A.9.9,0,0,0,67.152,29.8Z" fill="#45413c"></path><path d="M74.393,32.7a.724.724,0,1,0,.724-.724A.725.725,0,0,0,74.393,32.7Z" fill="#bd704a"></path><path d="M72.582,33.9a2.732,2.732,0,0,1-3.62,0" fill="none" stroke="#45413c" stroke-linecap="round" stroke-linejoin="round"></path><path d="M77.615,30.083a3.162,3.162,0,0,0-3.19-2.9H64.99c-.758,0-1.352-.433-1.186-1.173a9.105,9.105,0,0,1,18.023,1.8V38.428A1.357,1.357,0,0,1,80.155,39.6c-1.811-.432-2.319-1.706-2.54-3.459Z" fill="#724f3d"></path><path d="M63.848,25.826a12.114,12.114,0,0,1,9.106-4.167,14.129,14.129,0,0,1,8.4,3.31,9.263,9.263,0,0,0-9.917-6.132A9.113,9.113,0,0,0,63.848,25.826Z" fill="#a86c4d"></path><path d="M77.615,30.083a3.162,3.162,0,0,0-3.19-2.9H64.99c-.758,0-1.352-.433-1.186-1.173a9.105,9.105,0,0,1,18.023,1.8V38.428A1.357,1.357,0,0,1,80.155,39.6c-1.811-.432-2.319-1.706-2.54-3.459Z" fill="none" stroke="#45413c" stroke-linecap="round" stroke-linejoin="round"></path><path d="M72.801 27.186L72.801 24.555" fill="none" stroke="#45413c" stroke-linecap="round" stroke-linejoin="round"></path><path d="M75.81 27.505L75.81 24.555" fill="none" stroke="#45413c" stroke-linecap="round" stroke-linejoin="round"></path><path d="M69.793 27.186L69.793 24.555" fill="none" stroke="#45413c" stroke-linecap="round" stroke-linejoin="round"></path><path d="M66.785 27.186L66.785 24.555" fill="none" stroke="#45413c" stroke-linecap="round" stroke-linejoin="round"></path><path d="M36.768,65.575a2.116,2.116,0,0,0,4.231,0V53.185H36.768Z" fill="#ffcebf" stroke="#45413c" stroke-linecap="round" stroke-linejoin="round"></path><path d="M37.246,80.985a3.669,3.669,0,0,1,.731.074V62.251H22.264V80.985H27.1a3.61,3.61,0,0,1,.717.073l.365-11.489a1.94,1.94,0,0,1,3.879,0l.363,11.416Z" fill="#00b8f0"></path><path d="M22.264 62.251H37.977V65.273H22.264z" fill="#009fd9"></path><path d="M37.246,80.985a3.669,3.669,0,0,1,.731.074V62.251H22.264V80.985H27.1a3.61,3.61,0,0,1,.717.073l.365-11.489a1.94,1.94,0,0,1,3.879,0l.363,11.416Z" fill="none" stroke="#45413c" stroke-linecap="round" stroke-linejoin="round"></path><path d="M18.033,51.372a11.483,11.483,0,0,1,22.966,0v1.813H37.977v9.066H22.264V53.185H18.033Z" fill="#f0f0f0"></path><path d="M29.516,39.89A11.482,11.482,0,0,0,18.033,51.372v1.813h.143a11.484,11.484,0,0,1,22.68,0H41V51.372A11.482,11.482,0,0,0,29.516,39.89Z" fill="#ffffff"></path><path d="M18.033,51.372a11.483,11.483,0,0,1,22.966,0v1.813H37.977v9.066H22.264V53.185H18.033Z" fill="none" stroke="#45413c" stroke-linecap="round" stroke-linejoin="round"></path><path d="M19.272 85.820 A12.057 2.417 0 1 0 43.386 85.820 A12.057 2.417 0 1 0 19.272 85.820 Z" fill="#45413c" opacity=".15"></path><path d="M18.033,65.575a2.116,2.116,0,0,0,4.231,0V53.185H18.033Z" fill="#ffcebf" stroke="#45413c" stroke-linecap="round" stroke-linejoin="round"></path><path d="M22.264 53.185L22.264 49.559" fill="none" stroke="#45413c" stroke-linecap="round" stroke-linejoin="round"></path><path d="M37.977 53.185L37.977 49.559" fill="none" stroke="#45413c" stroke-linecap="round" stroke-linejoin="round"></path><path d="M40.872,84.612a3.626,3.626,0,0,0-3.626-3.627H32.411V83.4a1.209,1.209,0,0,0,1.209,1.209Z" fill="#87898c" stroke="#45413c" stroke-linecap="round" stroke-linejoin="round"></path><path d="M30.725,84.612A3.626,3.626,0,0,0,27.1,80.985H22.264V83.4a1.209,1.209,0,0,0,1.208,1.209Z" fill="#87898c" stroke="#45413c" stroke-linecap="round" stroke-linejoin="round"></path><path d="M33.111,40.473a.951.951,0,0,1-.663-.909l0-2.928H27.708l0,2.613a.955.955,0,0,1-.74.929,10.675,10.675,0,0,0-1.075.3l4.23,3.638,4.231-3.167A10.387,10.387,0,0,0,33.111,40.473Z" fill="#ffcebf" stroke="#45413c" stroke-linecap="round" stroke-linejoin="round"></path><path d="M30.12,44.12l-4.23-3.643.019,3.585a1.209,1.209,0,0,0,1.685,1.124Z" fill="#bdbec0" stroke="#45413c" stroke-linecap="round" stroke-linejoin="round"></path><path d="M30.12,44.12l4.231-3.166v3.125A1.209,1.209,0,0,1,32.666,45.2Z" fill="#bdbec0" stroke="#45413c" stroke-linecap="round" stroke-linejoin="round"></path><path d="M30.12 44.12L30.12 62.251" fill="none" stroke="#45413c" stroke-linecap="round" stroke-linejoin="round"></path><path d="M30.12,22.015a7.252,7.252,0,0,0-7.252,7.252v.967a1.48,1.48,0,0,0,.152,2.931,7.252,7.252,0,0,0,14.352-1.481V29.267A7.251,7.251,0,0,0,30.12,22.015Z" fill="#ffcebf" stroke="#45413c" stroke-linecap="round" stroke-linejoin="round"></path><path d="M29.214,29.267a.907.907,0,1,0,.906.906.907.907,0,0,0-.906-.906Z" fill="#45413c"></path><path d="M34.049,29.267a.907.907,0,1,0,.906.906.907.907,0,0,0-.906-.906Z" fill="#45413c"></path><path d="M27.7,32.591a.907.907,0,1,1-.907-.907A.907.907,0,0,1,27.7,32.591Z" fill="#ffb59e"></path><path d="M29.516,34.761a3.268,3.268,0,0,0,3.626,0" fill="none" stroke="#45413c" stroke-linecap="round" stroke-linejoin="round"></path><path d="M21.659,25.641a4.835,4.835,0,0,1,4.835-4.835h5.439a1.21,1.21,0,0,0,1.1-.7.866.866,0,0,1,.715-.507h1.028a3.749,3.749,0,0,1,3.791,3.282,3.625,3.625,0,0,1-3.213,3.948,3.317,3.317,0,0,1-2.814,2.44H31.329a.219.219,0,0,1-.112-.407,2.46,2.46,0,0,0,1.114-1.474.415.415,0,0,0-.4-.537H27a1.212,1.212,0,0,0-.855.354l-3.272,3.272h-.6a.6.6,0,0,1-.605-.6Z" fill="#ffdf3d"></path><path d="M26.494,20.806h5.439a1.21,1.21,0,0,0,1.1-.7.866.866,0,0,1,.715-.507h1.028a3.749,3.749,0,0,1,3.791,3.282,3.642,3.642,0,0,1-.112,1.3,32.71,32.71,0,0,0-7.124-.755,30.366,30.366,0,0,0-9.609,1.45A4.835,4.835,0,0,1,26.494,20.806Z" fill="#ffef9e"></path><path d="M21.659,25.641a4.835,4.835,0,0,1,4.835-4.835h5.439a1.21,1.21,0,0,0,1.1-.7.866.866,0,0,1,.715-.507h1.028a3.749,3.749,0,0,1,3.791,3.282,3.625,3.625,0,0,1-3.213,3.948,3.317,3.317,0,0,1-2.814,2.44H31.329a.219.219,0,0,1-.112-.407,2.46,2.46,0,0,0,1.114-1.474.415.415,0,0,0-.4-.537H27a1.212,1.212,0,0,0-.855.354l-3.272,3.272h-.6a.6.6,0,0,1-.605-.6Z" fill="none" stroke="#45413c" stroke-linecap="round" stroke-linejoin="round"></path></g></svg>