<svg width="114" height="114" fill="none" xmlns="http://www.w3.org/2000/svg">
  <path d="M4.0044 58.6673a52.45 52.45 0 00104.8996 0 52.4498 52.4498 0 00-15.3622-37.0876A52.4496 52.4496 0 0056.4542 6.2175a52.4494 52.4494 0 00-37.0876 15.3622A52.4496 52.4496 0 004.0044 58.6673z" fill="#C7F0FF"/>
  <path d="M17.6021 57.002a39.4008 39.4008 0 0011.54 27.8602 39.4005 39.4005 0 0064.2614-12.7824 39.4008 39.4008 0 00-8.5409-42.938 39.4 39.4 0 00-42.9381-8.5409 39.399 39.399 0 00-21.3233 21.3232 39.4017 39.4017 0 00-2.9991 15.0779z" fill="#00B8F0"/>
  <path d="M96.1784 61.2216A39.4024 39.4024 0 0074.488 21.6898 39.4019 39.4019 0 0020.8061 41.436a39.4005 39.4005 0 00-3.204 15.566 39.9984 39.9984 0 00.2229 4.2196 39.3987 39.3987 0 0165.4994-25.0962 39.3982 39.3982 0 0112.8461 25.0962" fill="#4ACFFF"/>
  <path fill-rule="evenodd" clip-rule="evenodd" d="M41.6564 19.9541a40.1009 40.1009 0 0143.7009 8.6927A40.0994 40.0994 0 0197.1024 57.002a40.1009 40.1009 0 01-11.7451 28.3552 40.0996 40.0996 0 01-28.3552 11.7451 40.101 40.101 0 01-37.0478-24.7546 40.1009 40.1009 0 018.6927-43.7009 40.0999 40.0999 0 0113.0094-8.6927zm15.3457-1.6524a38.6997 38.6997 0 00-27.3652 11.335 38.7027 38.7027 0 00-8.3892 12.5553 38.7016 38.7016 0 000 29.6199 38.7016 38.7016 0 0020.9445 20.9445 38.7016 38.7016 0 0029.6199 0 38.701 38.701 0 0020.9445-20.9445 38.7011 38.7011 0 00-8.3892-42.1752 38.7008 38.7008 0 00-27.3653-11.335z" fill="#45413C"/>
  <path d="M59.4449 96.3275a56.3134 56.3134 0 01-2.3602 12.2375c-1.9472-4.72-4.2576-23.2703-4.2576-51.563 0-28.2928 2.3104-46.8482 4.2576-51.5634a56.327 56.327 0 012.3602 12.2378 40.3016 40.3016 0 013.6715.3934C61.32 2.327 59.062 1 57.0847 1 55.1073 1 52.81 2.3506 51.007 18.4763a365.6092 365.6092 0 00-1.7885 38.5257 365.6143 365.6143 0 001.7859 38.5217C52.8074 111.652 55.0876 113 57.082 113c1.9944 0 4.2354-1.328 6.0318-17.0698a41.759 41.759 0 01-3.6689.3973z" fill="#fff"/>
  <path fill-rule="evenodd" clip-rule="evenodd" d="M55.143.8965C55.8223.4035 56.4979.3 57.0845.3c.5843 0 1.256.101 1.9312.584.6559.4691 1.2449 1.2486 1.7907 2.4598 1.0847 2.4072 2.1065 6.7701 3.0053 14.6466a.7002.7002 0 01-.8021.7712 39.5982 39.5982 0 00-3.6078-.3865.7.7 0 01-.6549-.643 55.6254 55.6254 0 00-1.6894-9.8595c-.2542 1.013-.5135 2.2647-.7699 3.7522-.4865 2.8221-.9558 6.449-1.3652 10.8192-.8186 8.7395-1.3955 20.4294-1.3955 34.558 0 14.1285.5769 25.8171 1.3955 34.556.4094 4.3698.8787 7.9966 1.3652 10.819.2565 1.488.5158 2.74.7701 3.754a55.6399 55.6399 0 001.6892-9.8592.6999.6999 0 01.653-.6428 41.0636 41.0636 0 003.6074-.3907.7003.7003 0 01.8018.7713c-.8988 7.8754-1.9163 12.2384-2.9987 14.6454-.5447 1.212-1.1332 1.992-1.7904 2.461-.6765.483-1.3505.584-1.9381.584-.5897 0-1.2675-.103-1.9481-.596-.6603-.478-1.2531-1.273-1.8023-2.51-1.0922-2.46-2.1209-6.923-3.0229-14.9925l-.001-.0085h.0001a366.2846 366.2846 0 01-1.7894-38.5911 366.277 366.277 0 011.792-38.5949l.0008-.0085h.0001c.9021-8.0681 1.9351-12.5318 3.0295-14.992.5503-1.2372 1.1434-2.0318 1.8023-2.51zm-3.44 17.6533a364.8846 364.8846 0 00-1.7847 38.4477l.0001.009h-.0001a364.8885 364.8885 0 001.7821 38.4437c.9008 8.0568 1.9135 12.3298 2.9106 14.5758.4955 1.116.9595 1.666 1.344 1.944.3642.264.7193.33 1.1269.33.4095 0 .7635-.065 1.1243-.323.38-.272.8379-.807 1.3273-1.896.9475-2.107 1.9091-6.043 2.7795-13.3298a42.5545 42.5545 0 01-2.2216.2321 57.0278 57.0278 0 01-2.3385 11.7897.701.701 0 01-.637.492.7004.7004 0 01-.6785-.433c-.5182-1.256-1.0378-3.365-1.5295-6.217-.4943-2.8679-.9677-6.5321-1.3794-10.9265-.8234-8.7895-1.4016-20.5223-1.4016-34.6865 0-14.1642.5782-25.8984 1.4016-34.6886.4117-4.3946.8851-8.059 1.3794-10.9264.4917-2.852 1.0114-4.9608 1.5296-6.2156a.6999.6999 0 011.3154.0594 57.0368 57.0368 0 012.3384 11.7883 41.0507 41.0507 0 012.2243.2296C61.445 9.9616 60.4793 6.0257 59.53 3.9189c-.4905-1.0884-.949-1.6246-1.3287-1.8962-.3604-.2578-.7124-.3227-1.1168-.3227-.4021 0-.7553.0654-1.1191.3295-.3844.279-.849.8298-1.3456 1.946-.9991 2.246-2.016 6.5195-2.9168 14.5743z" fill="#45413C"/>
  <path d="M86.5361 83.0813a56.3918 56.3918 0 016.9837 10.3248c-4.7126-1.9564-19.4719-13.4442-39.4724-33.4499C34.047 39.9505 22.5539 25.1964 20.5976 20.4877a56.3742 56.3742 0 0110.3247 6.9837 38.83 38.83 0 012.8743-2.313c-12.4018-9.8619-14.9364-9.205-16.3342-7.8059-1.3978 1.3991-2.0692 3.977 8.0589 16.6528a365.6757 365.6757 0 0025.9731 28.5039 365.6758 365.6758 0 0028.5052 25.9731c12.6771 10.1268 15.2458 9.4698 16.6528 8.0589 1.407-1.4109 2.056-3.9337-7.8058-16.3341a39.2166 39.2166 0 01-2.3105 2.8742z" fill="#fff"/>
  <path fill-rule="evenodd" clip-rule="evenodd" d="M21.7508 16.378c2.469.9354 6.2764 3.2983 12.4813 8.2325a.7.7 0 01-.0234 1.1136 38.1378 38.1378 0 00-2.8225 2.2714.7.7 0 01-.9179.0088 55.669 55.669 0 00-8.1685-5.7765c.5366.8957 1.2383 1.9636 2.1087 3.1962 1.6519 2.3392 3.8851 5.2354 6.6863 8.6149 5.6016 6.7582 13.4599 15.4321 23.4475 25.4224 9.9876 9.9902 18.6614 17.8483 25.4207 23.4493 3.38 2.8007 6.2771 5.0335 8.6171 6.6849 1.2343.871 2.3035 1.573 3.2002 2.1096a55.6999 55.6999 0 00-5.7772-8.17.7.7 0 01.0083-.9173 38.51 38.51 0 002.2692-2.8229.6999.6999 0 011.1137-.0236c4.9339 6.204 7.2988 10.0081 8.2353 12.4755.4712 1.2416.6064 2.2092.4739 3.0057-.1365.8198-.5412 1.3675-.9556 1.783-.4164.4176-.9682.8244-1.798.957-.805.1287-1.7862-.0145-3.0493-.5009-2.5118-.9672-6.3957-3.3959-12.7381-8.4624l-.0066-.0053a366.3623 366.3623 0 01-28.5566-26.0197 366.3622 366.3622 0 01-26.0197-28.5553l-.0054-.0066h.0001c-5.0674-6.3421-7.4928-10.228-8.4583-12.7411-.4855-1.2638-.6277-2.245-.4998-3.049.1318-.8288.5364-1.3796.9508-1.7944.4131-.4135.9594-.8173 1.7785-.9533.7955-.132 1.7631.0028 3.0053.4735zm-2.776.9076c-.4369.0726-.7316.2756-1.0174.5616-.2844.2847-.488.5809-.5586 1.025-.0746.469-.0138 1.1869.4241 2.3269.8813 2.2942 3.1836 6.0342 8.2425 12.366a364.9762 364.9762 0 0025.9207 28.446l.0063.0062A364.9568 364.9568 0 0080.4396 87.938c6.3327 5.0585 10.0708 7.364 12.3641 8.2471 1.1396.4389 1.8566.4999 2.3252.425.4436-.0709.7406-.2753 1.0277-.5632.2891-.2899.493-.5866.5659-1.0242.0766-.4609.0216-1.1636-.4018-2.2791-.8195-2.1593-2.9217-5.6215-7.4583-11.3881a39.9798 39.9798 0 01-1.4048 1.7332 57.1045 57.1045 0 016.6817 9.9916.7.7 0 01-.888.9722c-1.2542-.5206-3.1134-1.6441-5.4784-3.3131-2.3777-1.678-5.3042-3.9344-8.7031-6.7508-6.7986-5.6335-15.5047-13.5221-25.5176-23.5375-10.0128-10.0154-17.9013-18.7215-23.5353-25.5188-2.8168-3.3984-5.0736-6.324-6.752-8.7007-1.6693-2.364-2.7932-4.2221-3.3139-5.4753a.7.7 0 01.9721-.8882 57.0713 57.0713 0 019.9912 6.6813 39.7441 39.7441 0 011.7337-1.4069c-5.7672-4.5364-9.2325-6.6367-11.3932-7.4553-1.1164-.423-1.8196-.478-2.28-.4016z" fill="#45413C"/>
  <path d="M96.3275 59.2835a56.3195 56.3195 0 0012.2375-2.3603c-4.72-1.9471-23.2703-4.2576-51.563-4.2576-28.2928 0-46.8482 2.3105-51.5634 4.2576a56.3331 56.3331 0 0012.2378 2.3603 40.3703 40.3703 0 00.3934 3.6715C2.327 61.1586 1 58.9019 1 56.9232c0-1.9786 1.3506-4.2746 17.4763-6.0776a365.5823 365.5823 0 0138.5257-1.7885 365.5853 365.5853 0 0138.5217 1.782C111.652 52.642 113 54.9223 113 56.9167c0 1.9944-1.328 4.2353-17.0698 6.0317a41.5569 41.5569 0 00.3973-3.6649z" fill="#fff"/>
  <path fill-rule="evenodd" clip-rule="evenodd" d="M95.45 51.5352a364.9119 364.9119 0 00-38.4437-1.7781h-.009a364.8846 364.8846 0 00-38.4477 1.7847c-8.0548.9008-12.3282 1.9174-14.5743 2.9164-1.1162.4964-1.667.961-1.946 1.3454-.264.3639-.3295.7172-.3295 1.1197 0 .4048.065.757.3227 1.1173.2716.3798.8078.8383 1.8962 1.3287 2.1068.9491 6.0427 1.9145 13.3299 2.7851a41.113 41.113 0 01-.2296-2.2243 57.0365 57.0365 0 01-11.7884-2.3384.7.7 0 01-.0594-1.3154c1.2549-.5182 3.3635-1.0379 6.2156-1.5296 2.8674-.4943 6.5318-.9677 10.9264-1.3794 8.7902-.8234 20.5244-1.4016 34.6886-1.4016 14.1642 0 25.897.5782 34.6865 1.4016 4.3944.4117 8.0586.8851 10.9267 1.3794 2.852.4917 4.961 1.0113 6.217 1.5295a.698.698 0 01.432.6785.6987.6987 0 01-.491.637 57.027 57.027 0 01-11.7899 2.3385 42.4078 42.4078 0 01-.2319 2.2176c7.2868-.8703 11.2228-1.832 13.3298-2.7794 1.088-.4894 1.624-.9473 1.896-1.3274.257-.3607.323-.7147.323-1.1243 0-.4076-.066-.7627-.33-1.1268-.278-.3846-.828-.8485-1.944-1.344-2.246-.9971-6.519-2.0098-14.576-2.9107zm-38.4483-3.1781a366.3073 366.3073 0 0138.591 1.7854l.0086.0009c8.0687.9021 12.5327 1.9308 14.9927 3.0229 1.237.5493 2.032 1.142 2.51 1.8023.493.6807.596 1.3585.596 1.9481 0 .5876-.101 1.2616-.584 1.9381-.47.6572-1.25 1.2458-2.461 1.7905-2.407 1.0824-6.77 2.0999-14.6456 2.9986a.6996.6996 0 01-.5839-.2103.6997.6997 0 01-.1873-.5917 40.8906 40.8906 0 00.3906-3.6032.7.7 0 01.6428-.653 55.6155 55.6155 0 009.8584-1.6892c-1.013-.2543-2.265-.5136-3.753-.7701-2.8226-.4866-6.4493-.9558-10.8192-1.3652-8.7389-.8186-20.4275-1.3955-34.556-1.3955-14.1286 0-25.8185.5769-34.558 1.3955-4.3702.4094-7.9971.8786-10.8191 1.3652-1.4876.2564-2.7392.5157-3.7523.7699a55.6254 55.6254 0 009.8595 1.6894.7001.7001 0 01.643.6549 39.663 39.663 0 00.3865 3.6078.7002.7002 0 01-.7712.8021c-7.8765-.8988-12.2394-1.9203-14.6466-3.0048C2.1324 60.1 1.353 59.5111.8838 58.8551c-.483-.6754-.584-1.3473-.584-1.9318 0-.5869.1034-1.2626.5965-1.942.4782-.659 1.2728-1.2521 2.51-1.8023 2.4603-1.0943 6.9239-2.1269 14.992-3.029l.0085-.001v.0001a366.277 366.277 0 0138.5949-1.792z" fill="#45413C"/>
  <path d="M86.4224 30.8085a56.3742 56.3742 0 006.9837-10.3247c-4.7126 1.9564-19.4668 13.4402-39.4724 33.4498C33.928 73.9432 22.4415 88.6935 20.4838 93.4021a56.265 56.265 0 0010.3247-6.9824 38.9907 38.9907 0 002.8743 2.3131c-12.4018 9.8619-14.9364 9.2049-16.3342 7.8058-1.3978-1.3991-2.0691-3.977 8.0589-16.6528a365.901 365.901 0 0125.9771-28.5025 365.8843 365.8843 0 0128.5012-25.9758c12.6771-10.1267 15.2459-9.4698 16.6528-8.0602 1.407 1.4096 2.0561 3.9337-7.8058 16.3355a38.8176 38.8176 0 00-2.3104-2.8743z" fill="#fff"/>
  <path fill-rule="evenodd" clip-rule="evenodd" d="M80.3259 25.9517a365.2048 365.2048 0 00-28.4433 25.9234l-.0063.0064-.0001-.0001a365.2017 365.2017 0 00-25.9246 28.4447c-5.0589 6.3317-7.3611 10.0717-8.2424 12.3659-.438 1.14-.4988 1.8579-.4242 2.3269.0707.4441.2742.7403.5587 1.025.2858.2861.5804.4891 1.0173.5616.4604.0764 1.1637.0214 2.28-.4015 2.1607-.8186 5.6261-2.919 11.3933-7.4555a39.6777 39.6777 0 01-1.7337-1.4068 56.9652 56.9652 0 01-9.9915 6.6801.6999.6999 0 01-.9718-.8884c.521-1.2531 1.6446-3.1109 3.3137-5.4746 1.678-2.3764 3.9343-5.3016 6.7506-8.6998 5.6333-6.7968 13.5215-15.5029 23.5369-25.5203C63.4539 43.4213 72.16 35.5327 78.958 29.8998c3.3986-2.8162 6.3246-5.0722 8.7019-6.7499 2.3646-1.6687 4.2234-2.792 5.4776-3.3126a.6999.6999 0 01.888.9722 57.0691 57.0691 0 01-6.6815 9.9915 39.6143 39.6143 0 011.4048 1.733c4.5365-5.767 6.6386-9.2298 7.4581-11.3894.4234-1.1157.4785-1.8185.4018-2.2793-.0728-.4375-.2767-.734-.5657-1.0235-.287-.2876-.584-.4918-1.0277-.5626-.4686-.0748-1.1858-.0136-2.3253.4253-2.2933.8833-6.0314 3.1888-12.3641 8.2472zm14.91-10.055c.8298.1324 1.3815.5388 1.798.9561.4145.4153.8194.9629.9558 1.7827.1325.7965-.0027 1.7641-.4739 3.0058-.9364 2.4678-3.3014 6.2725-8.2353 12.4772a.6998.6998 0 01-1.1138-.0238 38.1704 38.1704 0 00-2.2688-2.8224.7.7 0 01-.0086-.9177 55.6716 55.6716 0 005.7775-8.1701c-.8966.5366-1.9657 1.2384-3.1997 2.1092-2.3397 1.6511-5.2362 3.8835-8.6159 6.6841-6.7587 5.6004-15.4325 13.4586-25.4227 23.4508s-17.8481 18.666-23.449 25.4238c-2.8007 3.3792-5.0334 6.2751-6.6849 8.6139-.8705 1.2328-1.5722 2.3007-2.1088 3.1965a55.5685 55.5685 0 008.1686-5.7759.7002.7002 0 01.918.0087 38.232 38.232 0 002.8226 2.2715.7.7 0 01.0233 1.1136c-6.2049 4.9341-10.0123 7.297-12.4812 8.2325-1.2423.4706-2.2099.6054-3.0054.4734-.8191-.136-1.3654-.5398-1.7785-.9532-.4144-.4149-.8189-.9656-.9508-1.7945-.1279-.804.0144-1.7851.4999-3.0489.9654-2.5131 3.3908-6.3991 8.4582-12.7411l.0053-.0067h.0001a366.6067 366.6067 0 0126.0237-28.5541A366.5855 366.5855 0 0179.4421 24.866l.0066-.0055.0001.0001c6.3424-5.0665 10.2263-7.4951 12.738-8.4626 1.2631-.4864 2.2442-.6297 3.0491-.5013z" fill="#45413C"/>
  <path d="M24.6562 56.0343a27.4055 27.4055 0 0027.4051 27.405 27.4047 27.4047 0 0019.3782-8.0268 27.4047 27.4047 0 000-38.7565 27.4047 27.4047 0 00-38.7565 0 27.4056 27.4056 0 00-8.0268 19.3783z" fill="#F0F0F0"/>
  <path d="M79.2758 59.2731a27.4045 27.4045 0 00-6.7351-21.4503 27.4054 27.4054 0 00-31.7555-6.7647 27.4065 27.4065 0 00-9.253 6.824 27.4065 27.4065 0 00-6.6731 21.4696 27.3866 27.3866 0 0145.3836-17.3488 27.3873 27.3873 0 019.02 17.2675" fill="#fff"/>
  <path fill-rule="evenodd" clip-rule="evenodd" d="M32.1878 36.161a28.1052 28.1052 0 0139.7465 0 28.105 28.105 0 11-39.7465 0zm19.8733-6.8318a26.7052 26.7052 0 000 53.4101 26.7053 26.7053 0 0026.705-26.705 26.7053 26.7053 0 00-26.705-26.7051z" fill="#45413C"/>
</svg>
