<svg xmlns="http://www.w3.org/2000/svg" version="1.1" xmlns:xlink="http://www.w3.org/1999/xlink" xmlns:svgjs="http://svgjs.com/svgjs" viewBox="0 0 160 160" width="160" height="160"><g transform="matrix(1.6,0,0,1.6,0,0)"><path d="M13.377 50.000 A40.000 40.000 0 1 0 93.377 50.000 A40.000 40.000 0 1 0 13.377 50.000 Z" fill="#c7f0ff" stroke="#c7f0ff" stroke-miterlimit="10"></path><path d="M7.123 82.493 A28.231 1.804 0 1 0 63.585 82.493 A28.231 1.804 0 1 0 7.123 82.493 Z" fill="#45413c" opacity=".15"></path><path d="M19.388,61.217l3.683-8.837a6.383,6.383,0,0,1,5.891-3.928H43.257a9.574,9.574,0,0,1,8.563,5.293l3.736,7.472L61.714,64.3A4.255,4.255,0,0,1,64.066,68.1v9.072H7.687V68.591a3.191,3.191,0,0,1,1.871-2.9Z" fill="#ff6242"></path><path d="M7.687,68.591a3.191,3.191,0,0,1,1.871-2.9l9.83-4.469,3.683-8.837a6.383,6.383,0,0,1,5.891-3.928H43.257a9.574,9.574,0,0,1,8.563,5.293l3.736,7.472,6.158,3.08A4.253,4.253,0,0,1,64.066,68.1v3.191a4.253,4.253,0,0,0-2.352-3.806L56.66,64.961A3.716,3.716,0,0,1,55,63.305L51.82,56.936a9.573,9.573,0,0,0-8.563-5.292H28.962a6.382,6.382,0,0,0-5.891,3.927L20.1,62.7a4.709,4.709,0,0,1-2.4,2.475l-8.145,3.7a3.191,3.191,0,0,0-1.871,2.905Z" fill="#ff866e"></path><path d="M19.388,61.217l3.683-8.837a6.383,6.383,0,0,1,5.891-3.928H43.257a9.574,9.574,0,0,1,8.563,5.293l3.736,7.472L61.714,64.3A4.255,4.255,0,0,1,64.066,68.1v9.072H7.687V68.591a3.191,3.191,0,0,1,1.871-2.9Z" fill="none" stroke="#45413c" stroke-linecap="round" stroke-linejoin="round"></path><path d="M7.641,78.238h9.62V73.983H7.641A1.017,1.017,0,0,0,6.623,75v2.22A1.018,1.018,0,0,0,7.641,78.238Z" fill="#c7f0ff"></path><path d="M7.687,73.983h9.574V76.11H7.687a1.064,1.064,0,0,0-1.064,1.064V75.046A1.063,1.063,0,0,1,7.687,73.983Z" fill="#ffffff"></path><path d="M54.493,78.238h9.62A1.017,1.017,0,0,0,65.13,77.22V75a1.017,1.017,0,0,0-1.017-1.017h-9.62Z" fill="#c7f0ff"></path><path d="M64.066,73.983a1.063,1.063,0,0,1,1.064,1.063v2.128a1.064,1.064,0,0,0-1.064-1.064H54.493V73.983Z" fill="#ffffff"></path><path d="M7.641,78.238h9.62V73.983H7.641A1.017,1.017,0,0,0,6.623,75v2.22A1.018,1.018,0,0,0,7.641,78.238Z" fill="none" stroke="#45413c" stroke-linecap="round" stroke-linejoin="round"></path><path d="M54.493,78.238h9.62A1.017,1.017,0,0,0,65.13,77.22V75a1.017,1.017,0,0,0-1.017-1.017h-9.62Z" fill="none" stroke="#45413c" stroke-linecap="round" stroke-linejoin="round"></path><path d="M60.875,73.983h3.191V69.728H62.91a2.035,2.035,0,0,0-2.035,2.034Z" fill="#ffe500" stroke="#45413c" stroke-linecap="round" stroke-linejoin="round"></path><path d="M10.878,73.983H7.687V69.728H8.844a2.034,2.034,0,0,1,2.034,2.034Z" fill="#ffe500" stroke="#45413c" stroke-linecap="round" stroke-linejoin="round"></path><path d="M26.835,73.929h5.319a3.191,3.191,0,0,0,3.191-3.191V61.217" fill="none" stroke="#45413c" stroke-linecap="round" stroke-linejoin="round"></path><path d="M32.154,65.419a1.064,1.064,0,0,1-1.064,1.064H28.962a1.064,1.064,0,0,1,0-2.127H31.09A1.064,1.064,0,0,1,32.154,65.419Z" fill="#c7f0ff" stroke="#45413c" stroke-linecap="round" stroke-linejoin="round"></path><path d="M14.069 76.110 A6.383 6.383 0 1 0 26.835 76.110 A6.383 6.383 0 1 0 14.069 76.110 Z" fill="#656769"></path><path d="M26.743,77.2a6.375,6.375,0,0,0-12.581,0A6.383,6.383,0,1,1,26.835,76.11,6.479,6.479,0,0,1,26.743,77.2Z" fill="#87898c"></path><path d="M14.069 76.110 A6.383 6.383 0 1 0 26.835 76.110 A6.383 6.383 0 1 0 14.069 76.110 Z" fill="none" stroke="#45413c" stroke-linecap="round" stroke-linejoin="round"></path><path d="M18.324 76.110 A2.128 2.128 0 1 0 22.580 76.110 A2.128 2.128 0 1 0 18.324 76.110 Z" fill="#ffffff"></path><path d="M22.285,77.174a2.11,2.11,0,0,0-3.67.009,2.128,2.128,0,1,1,3.677-.005" fill="#c7f0ff"></path><path d="M18.324 76.110 A2.128 2.128 0 1 0 22.580 76.110 A2.128 2.128 0 1 0 18.324 76.110 Z" fill="none" stroke="#45413c" stroke-linecap="round" stroke-linejoin="round"></path><path d="M47.046 76.110 A6.383 6.383 0 1 0 59.812 76.110 A6.383 6.383 0 1 0 47.046 76.110 Z" fill="#656769"></path><path d="M59.719,77.2a6.375,6.375,0,0,0-12.581,0,6.479,6.479,0,0,1-.092-1.086A6.383,6.383,0,1,1,59.719,77.2Z" fill="#87898c"></path><path d="M47.046 76.110 A6.383 6.383 0 1 0 59.812 76.110 A6.383 6.383 0 1 0 47.046 76.110 Z" fill="none" stroke="#45413c" stroke-linecap="round" stroke-linejoin="round"></path><path d="M51.301 76.110 A2.128 2.128 0 1 0 55.557 76.110 A2.128 2.128 0 1 0 51.301 76.110 Z" fill="#ffffff"></path><path d="M55.261,77.174a2.11,2.11,0,0,0-3.67.009,2.127,2.127,0,1,1,3.678-.005" fill="#c7f0ff"></path><path d="M51.301 76.110 A2.128 2.128 0 1 0 55.557 76.110 A2.128 2.128 0 1 0 51.301 76.110 Z" fill="none" stroke="#45413c" stroke-linecap="round" stroke-linejoin="round"></path><path d="M38.536,61.217h11.2a1.017,1.017,0,0,0,.93-1.43l-2.777-6.248a3.192,3.192,0,0,0-2.917-1.9H38.536Z" fill="#00b8f0"></path><path d="M47.171,52.522a3.19,3.19,0,0,0-2.2-.878H38.536v9.573Z" fill="#4acfff"></path><path d="M38.536,61.217h11.2a1.017,1.017,0,0,0,.93-1.43l-2.777-6.248a3.192,3.192,0,0,0-2.917-1.9H38.536Z" fill="none" stroke="#45413c" stroke-linejoin="round"></path><path d="M35.345,61.217h-11.2a1.016,1.016,0,0,1-.929-1.43l2.776-6.248a3.192,3.192,0,0,1,2.917-1.9h6.436Z" fill="#00b8f0"></path><path d="M28.909,51.644a3.192,3.192,0,0,0-2.917,1.9l-2.777,6.248a1.017,1.017,0,0,0,.93,1.43h1.626l9.574-9.573Z" fill="#4acfff"></path><path d="M35.345,61.217h-11.2a1.016,1.016,0,0,1-.929-1.43l2.776-6.248a3.192,3.192,0,0,1,2.917-1.9h6.436Z" fill="none" stroke="#45413c" stroke-linejoin="round"></path><path d="M41.690 39.746 A25.250 25.250 0 1 0 92.190 39.746 A25.250 25.250 0 1 0 41.690 39.746 Z" fill="#ffffff"></path><path d="M41.85,36.893a25.241,25.241,0,0,0,50.181,0,25.6,25.6,0,0,1,.159,2.853,25.25,25.25,0,1,1-50.34-2.853Z" fill="#c7f0ff"></path><path d="M41.690 39.746 A25.250 25.250 0 1 0 92.190 39.746 A25.250 25.250 0 1 0 41.690 39.746 Z" fill="none" stroke="#45413c" stroke-linecap="round" stroke-linejoin="round"></path><path d="M66.94,45.427A1.472,1.472,0,0,1,65.9,42.914l9.82-9.82A1.472,1.472,0,0,1,77.8,35.176L67.981,45A1.466,1.466,0,0,1,66.94,45.427Z" fill="#c7f0ff" stroke="#45413c" stroke-linecap="round" stroke-linejoin="round"></path><path d="M64.134 43.954 A2.806 2.806 0 1 0 69.746 43.954 A2.806 2.806 0 1 0 64.134 43.954 Z" fill="#656769" stroke="#45413c" stroke-linecap="round" stroke-linejoin="round"></path><path d="M50.952,47.748a1.175,1.175,0,0,0,.485-1.475,16.647,16.647,0,0,1-1.33-6.527,16.834,16.834,0,0,1,33.667,0,16.63,16.63,0,0,1-1.331,6.527,1.177,1.177,0,0,0,.486,1.475l1.613.949a1.179,1.179,0,0,0,1.677-.543,21.042,21.042,0,1,0-38.557,0,1.18,1.18,0,0,0,1.676.543Z" fill="#6dd627" stroke="#45413c" stroke-linecap="round" stroke-linejoin="round"></path><path d="M50.615 43.827L46.53 44.849" fill="none" stroke="#45413c" stroke-linecap="round" stroke-linejoin="round"></path><path d="M50.107 39.746L45.899 39.746" fill="none" stroke="#45413c" stroke-linecap="round" stroke-linejoin="round"></path><path d="M50.608 35.663L46.523 34.642" fill="none" stroke="#45413c" stroke-linecap="round" stroke-linejoin="round"></path><path d="M52.27 31.494L48.599 29.429" fill="none" stroke="#45413c" stroke-linecap="round" stroke-linejoin="round"></path><path d="M54.663 28.236L51.566 25.333" fill="none" stroke="#45413c" stroke-linecap="round" stroke-linejoin="round"></path><path d="M58.081 25.434L55.865 21.856" fill="none" stroke="#45413c" stroke-linecap="round" stroke-linejoin="round"></path><path d="M78.4,22.113l-2.288,3.521v.008a16.81,16.81,0,0,1,7.661,14.1,16.63,16.63,0,0,1-1.331,6.527,1.177,1.177,0,0,0,.486,1.475l1.613.949a1.179,1.179,0,0,0,1.677-.543A20.993,20.993,0,0,0,78.4,22.113Z" fill="#ffe500" stroke="#45413c" stroke-linecap="round" stroke-linejoin="round"></path><path d="M62.316 23.56L61.159 19.512" fill="none" stroke="#45413c" stroke-linecap="round" stroke-linejoin="round"></path><path d="M72.722 19.512L71.565 23.559" fill="none" stroke="#45413c" stroke-linecap="round" stroke-linejoin="round"></path><path d="M66.94 22.913L66.94 18.704" fill="none" stroke="#45413c" stroke-linecap="round" stroke-linejoin="round"></path><path d="M83.774,39.746a16.63,16.63,0,0,1-1.331,6.527,1.177,1.177,0,0,0,.486,1.475l1.613.949a1.179,1.179,0,0,0,1.677-.543,20.886,20.886,0,0,0,1.763-8.408Z" fill="#ff6242" stroke="#45413c" stroke-linecap="round" stroke-linejoin="round"></path><path d="M87.35 44.849L83.275 43.795" fill="none" stroke="#45413c" stroke-linecap="round" stroke-linejoin="round"></path><path d="M87.356 34.642L83.272 35.663" fill="none" stroke="#45413c" stroke-linecap="round" stroke-linejoin="round"></path><path d="M85.281 29.429L81.612 31.493" fill="none" stroke="#45413c" stroke-linecap="round" stroke-linejoin="round"></path><path d="M82.29 25.356L79.217 28.236" fill="none" stroke="#45413c" stroke-linecap="round" stroke-linejoin="round"></path><path d="M58.524 53.774 L75.357 53.774 L75.357 57.982 L58.524 57.982 Z" fill="#656769" stroke="#45413c" stroke-linecap="round" stroke-linejoin="round"></path></g></svg>