<svg xmlns="http://www.w3.org/2000/svg" version="1.1" xmlns:xlink="http://www.w3.org/1999/xlink" xmlns:svgjs="http://svgjs.com/svgjs" viewBox="0 0 160 160" width="160" height="160"><g transform="matrix(1.6,0,0,1.6,0,0)"><path d="M10.000 50.000 A40.000 40.000 0 1 0 90.000 50.000 A40.000 40.000 0 1 0 10.000 50.000 Z" fill="#c7f0ff" stroke="#c7f0ff" stroke-miterlimit="10"></path><path d="M34.475 81.726 A15.525 1.725 0 1 0 65.525 81.726 A15.525 1.725 0 1 0 34.475 81.726 Z" fill="#45413c" fill-opacity=".15"></path><path d="M51.406,69a1.646,1.646,0,0,1-2.823,0L26.8,32.7A1.645,1.645,0,0,1,28.214,30.2H71.775A1.645,1.645,0,0,1,73.187,32.7Z" fill="#ffe500"></path><path d="M73.208,31.039a1.646,1.646,0,0,0-1.432-.835H28.214A1.645,1.645,0,0,0,26.8,32.7l1.332,2.219a1.528,1.528,0,0,1,1.452-1.027H70.4a1.544,1.544,0,0,1,1.342.782,1.63,1.63,0,0,1,.111.245L73.187,32.7A1.645,1.645,0,0,0,73.208,31.039Z" fill="#fff48c"></path><path d="M51.406,69a1.646,1.646,0,0,1-2.823,0L26.8,32.7A1.645,1.645,0,0,1,28.214,30.2H71.775A1.645,1.645,0,0,1,73.187,32.7Z" fill="none" stroke="#45413c" stroke-linecap="round" stroke-linejoin="round"></path></g></svg>