<svg xmlns="http://www.w3.org/2000/svg" version="1.1" xmlns:xlink="http://www.w3.org/1999/xlink" xmlns:svgjs="http://svgjs.com/svgjs" viewBox="0 0 160 160" width="160" height="160"><g transform="matrix(1.6,0,0,1.6,0,0)"><path d="M10.000 50.000 A40.000 40.000 0 1 0 90.000 50.000 A40.000 40.000 0 1 0 10.000 50.000 Z" fill="#c7f0ff" stroke="#c7f0ff" stroke-miterlimit="10"></path><path d="M29.536 81.515 A20.212 2.021 0 1 0 69.960 81.515 A20.212 2.021 0 1 0 29.536 81.515 Z" fill="#45413c" opacity=".15"></path><path d="M74.811,36.937H68.343v-9.7h4.019a2.449,2.449,0,0,1,2.449,2.45Z" fill="#ff6242"></path><path d="M29.535 22.384 L68.343 22.384 L68.343 74.128 L29.535 74.128 Z" fill="#f7e5c6"></path><path d="M72.362,66.043H68.343v-9.7h6.468v7.252A2.449,2.449,0,0,1,72.362,66.043Z" fill="#00b8f0"></path><path d="M68.343 46.639H74.811V56.341H68.343z" fill="#6dd627"></path><path d="M68.343 36.937H74.811V46.638999999999996H68.343z" fill="#ffe500"></path><path d="M68.343 36.937H74.811V39.294999999999995H68.343z" fill="#ebcb00"></path><path d="M68.343 46.639H74.811V48.997H68.343z" fill="#46b000"></path><path d="M68.343 56.341H74.811V58.699H68.343z" fill="#009fd9"></path><path d="M29.535 22.384 L68.343 22.384 L68.343 74.128 L29.535 74.128 Z" fill="none" stroke="#45413c" stroke-linejoin="round"></path><path d="M74.811,36.937H68.343v-9.7h4.019a2.449,2.449,0,0,1,2.449,2.45Z" fill="none" stroke="#45413c" stroke-linejoin="round"></path><path d="M68.343 46.639H74.811V56.341H68.343z" fill="none"></path><path d="M72.362,66.043H68.343v-9.7h6.468v7.252A2.449,2.449,0,0,1,72.362,66.043Z" fill="none"></path><path d="M68.343 36.937H74.811V46.638999999999996H68.343z" fill="none"></path><path d="M68.343 46.639H74.811V56.341H68.343z" fill="none"></path><path d="M72.362,66.043H68.343v-9.7h6.468v7.252A2.449,2.449,0,0,1,72.362,66.043Z" fill="none"></path><path d="M68.343 36.937H74.811V46.638999999999996H68.343z" fill="none" stroke="#45413c" stroke-linejoin="round"></path><path d="M68.343 46.639H74.811V56.341H68.343z" fill="none" stroke="#45413c" stroke-linejoin="round"></path><path d="M72.362,66.043H68.343v-9.7h6.468v7.252A2.449,2.449,0,0,1,72.362,66.043Z" fill="none" stroke="#45413c" stroke-linejoin="round"></path><path d="M33.578,28.852a1.617,1.617,0,0,1-1.617,1.617H27.918a1.617,1.617,0,1,1,0-3.234h4.043A1.617,1.617,0,0,1,33.578,28.852Z" fill="#c7f0ff"></path><path d="M33.578,28.852a1.617,1.617,0,0,1-1.617,1.617H27.918a1.617,1.617,0,1,1,0-3.234h4.043A1.617,1.617,0,0,1,33.578,28.852Z" fill="none" stroke="#45413c" stroke-linecap="round" stroke-linejoin="round"></path><path d="M33.578,38.553a1.617,1.617,0,0,1-1.617,1.618H27.918a1.617,1.617,0,1,1,0-3.234h4.043A1.616,1.616,0,0,1,33.578,38.553Z" fill="#c7f0ff"></path><path d="M33.578,38.553a1.617,1.617,0,0,1-1.617,1.618H27.918a1.617,1.617,0,1,1,0-3.234h4.043A1.616,1.616,0,0,1,33.578,38.553Z" fill="none" stroke="#45413c" stroke-linecap="round" stroke-linejoin="round"></path><path d="M33.578,48.256a1.617,1.617,0,0,1-1.617,1.617H27.918a1.617,1.617,0,0,1,0-3.234h4.043A1.617,1.617,0,0,1,33.578,48.256Z" fill="#c7f0ff"></path><path d="M33.578,48.256a1.617,1.617,0,0,1-1.617,1.617H27.918a1.617,1.617,0,0,1,0-3.234h4.043A1.617,1.617,0,0,1,33.578,48.256Z" fill="none" stroke="#45413c" stroke-linecap="round" stroke-linejoin="round"></path><path d="M33.578,58.056a1.617,1.617,0,0,1-1.617,1.617H27.918a1.617,1.617,0,1,1,0-3.234h4.043A1.617,1.617,0,0,1,33.578,58.056Z" fill="#c7f0ff"></path><path d="M33.578,58.056a1.617,1.617,0,0,1-1.617,1.617H27.918a1.617,1.617,0,1,1,0-3.234h4.043A1.617,1.617,0,0,1,33.578,58.056Z" fill="none" stroke="#45413c" stroke-linecap="round" stroke-linejoin="round"></path><path d="M33.578,67.659a1.617,1.617,0,0,1-1.617,1.618H27.918a1.617,1.617,0,1,1,0-3.234h4.043A1.617,1.617,0,0,1,33.578,67.659Z" fill="#c7f0ff"></path><path d="M33.578,67.659a1.617,1.617,0,0,1-1.617,1.618H27.918a1.617,1.617,0,1,1,0-3.234h4.043A1.617,1.617,0,0,1,33.578,67.659Z" fill="none" stroke="#45413c" stroke-linecap="round" stroke-linejoin="round"></path><path d="M58.991,57.427c-2.512,2.512-8.329.766-12.993-3.9s-6.41-10.481-3.9-12.993l1.3-1.3a1.837,1.837,0,0,1,2.6,0l2.6,2.6a1.837,1.837,0,0,1,0,2.6l-1.3,1.3c-1.794,1.794-1.144,4.053.65,5.847s4.053,2.444,5.847.65l1.3-1.3a1.837,1.837,0,0,1,2.6,0l2.6,2.6a1.837,1.837,0,0,1,0,2.6Z" fill="#ffffff"></path><path d="M58.991,57.427c-2.512,2.512-8.329.766-12.993-3.9s-6.41-10.481-3.9-12.993l1.3-1.3a1.837,1.837,0,0,1,2.6,0l2.6,2.6a1.837,1.837,0,0,1,0,2.6l-1.3,1.3c-1.794,1.794-1.144,4.053.65,5.847s4.053,2.444,5.847.65l1.3-1.3a1.837,1.837,0,0,1,2.6,0l2.6,2.6a1.837,1.837,0,0,1,0,2.6Z" fill="none" stroke="#45413c" stroke-linejoin="round"></path></g></svg>