<svg width="112" height="112" fill="none" xmlns="http://www.w3.org/2000/svg">
  <path d="M0 56a56.0003 56.0003 0 0056 56 56.0003 56.0003 0 0056-56A56.0003 56.0003 0 0056 0 56.0003 56.0003 0 000 56z" fill="#C7F0FF"/>
  <g filter="url(#filter0_d)">
    <rect x="9" y="29" width="93.66" height="53.53" rx="8" fill="#fff"/>
  </g>
  <path d="M16.4467 68.5943c-.2335 0-.4214-.3401-.5635-1.0203-.1421-.6904-.2335-1.2843-.2741-1.7818-.0406-.4974-.0964-1.2842-.1675-2.3603-.0102-.1726-.0152-.396-.0152-.6701 0-.3452.0253-.5837.0761-.7157.0609-.132.1574-.198.2893-.198.1117 0 .198.0254.2589.0762.0711.0406.132.1116.1828.2132l-.0153.6091c0 .6497.0305 1.2639.0914 1.8426.0711.5787.1777 1.3553.3198 2.3299.0812.4264.1371.7767.1675 1.0508.0203.1421-.0051.2843-.0761.4264-.0711.132-.1625.198-.2741.198zm-.3807-8.3756c-.2234 0-.3909-.0863-.5026-.2589-.1015-.1726-.1523-.3858-.1523-.6396 0-.1117.0051-.1929.0153-.2436-.0102-.1625.0812-.2437.2741-.2437.1421 0 .2842.0355.4264.1066.1522.0609.1979.1066.137.1371.1015.2639.1523.472.1523.6243 0 .132-.0305.2386-.0914.3198-.0609.0711-.1472.1371-.2588.198zM20.7211 76.0105c-.8528 0-1.5686-.2437-2.1472-.731-.5686-.4772-.9087-1.2843-1.0203-2.4213-.0102-.1726.0152-.3046.0761-.3959.0711-.0914.1624-.1371.2741-.1371.1218 0 .2284.0457.3198.1371.0914.1015.132.2335.1218.3959 0 .67.2285 1.198.6853 1.5837.467.396 1.0609.5939 1.7817.5939.4163 0 .7818-.1522 1.0965-.4568.3248-.3046.5736-.731.7462-1.2792.1725-.5381.2588-1.1573.2588-1.8578 0-1.2285.0153-2.4213.0457-3.5787l.0153-.7766c-.396.4162-.7564.7208-1.0813.9137-.3147.1928-.6954.2893-1.1421.2893-.7817 0-1.3604-.2081-1.736-.6244-.3655-.4264-.5482-1.0761-.5482-1.9492 0-.4975.1319-1.0152.3959-1.5533.2741-.5482.6447-1.0051 1.1117-1.3705.4771-.3655 1.0152-.5483 1.6142-.5483.203 0 .3908.0204.5634.061.6498.1421 1.0863.7461 1.3097 1.8121.2233 1.066.335 2.4467.335 4.1421 0 .467-.0102 1.0863-.0305 1.8579l-.0152 1.4467c0 .5787-.0914 1.2081-.2741 1.8883-.1828.6903-.5025 1.2893-.9594 1.7969-.4568.5077-1.0558.7615-1.7969.7615zm-.198-8.7259c.7513 0 1.3198-.1776 1.7056-.533.3858-.3654.5786-.8984.5786-1.5989 0-.0914-.0101-.2488-.0304-.4721-.0508-.467-.1726-.8325-.3655-1.0965-.1827-.2741-.4721-.4111-.868-.4111-.4163 0-.797.1472-1.1421.4416-.3452.2944-.6142.6599-.8071 1.0964-.1929.4264-.2894.8274-.2894 1.2031 0 .3756.1117.7005.335.9746.2234.2639.5178.3959.8833.3959zM26.8154 74.0003c-.2031 0-.4467-.5431-.731-1.6294-.2741-1.0863-.5228-2.2944-.7462-3.6244-.2132-1.3197-.3198-2.1522-.3198-2.4974 0-1.0254.3452-1.7716 1.0356-2.2386.6903-.4771 1.5786-.7157 2.6649-.7157.5787 0 1.1269.1218 1.6447.3655.5177.2335.934.5736 1.2487 1.0203.3147.4365.4721.9441.4721 1.5228 0 .7208-.2538 1.2284-.7614 1.5228-.4975.2945-1.1269.4417-1.8884.4417-.7918 0-1.467-.132-2.0253-.396-.5482-.2741-.8224-.6446-.8224-1.1116l.0153-.1523c.071-.0812.1472-.1218.2284-.1218.0711 0 .1472.0304.2284.0913.0914.0508.1878.1117.2894.1828.3147.2335.6243.4213.9289.5634.3147.1421.7056.2132 1.1726.2132.6396 0 1.0913-.1117 1.3553-.335.2741-.2335.4112-.599.4112-1.0965 0-.3654-.1219-.6903-.3655-.9746-.2437-.2842-.5584-.5025-.9442-.6548-.3858-.1523-.7817-.2284-1.1878-.2284-.9441 0-1.6548.203-2.132.6091-.4771.396-.6903 1.0609-.6395 1.9949.0913 1.5838.2335 2.9137.4263 3.9899.2031 1.0761.5533 1.9898 1.0508 2.7411l.0152.0304c0 .0203-.0254.0406-.0761.0609a.8972.8972 0 00-.0914.0762c-.1218.1929-.2741.3096-.4568.3502zM37.2155 68.579c-1.0558 0-1.9746-.1827-2.7563-.5482-.7716-.3756-1.1574-1.0304-1.1574-1.9644 0-.3351.1015-.6599.3046-.9747.203-.3147.5025-.5685.8984-.7614.396-.203.8782-.3045 1.4467-.3045.4366 0 .8071.0203 1.1117.0609.3046.0406.6548.1523 1.0508.335.3959.1827.8071.4721 1.2334.868-.1624-.7005-.406-1.3147-.7309-1.8426-.3249-.5279-.6904-.934-1.0965-1.2183-.3959-.2944-.7867-.4416-1.1725-.4416-.1828 0-.3554.0355-.5178.1066-.1523.0609-.3401.1523-.5634.2741-.2538.1624-.4417.2437-.5635.2437a.2228.2228 0 01-.137-.0457.2225.2225 0 01-.0457-.1371c0-.4061.1776-.7208.533-.9441.3654-.2234.8071-.3249 1.3248-.3046.7107.0406 1.3604.3452 1.9493.9137.5888.5584 1.0507 1.2538 1.3857 2.0863.3452.8325.5178 1.6497.5178 2.4517 0 .132-.0102.3198-.0305.5635l-.4873-.0305c-.3858-.7817-.8832-1.335-1.4923-1.6599-.599-.335-1.2031-.5025-1.8122-.5025-.7817 0-1.3401.1168-1.6751.3503-.3351.2335-.5026.5736-.5026 1.0203 0 .467.2335.8426.7005 1.1269.467.2842 1.066.4263 1.797.4263.4061 0 .7309-.0203.9746-.0609a8.458 8.458 0 00.7614-.1979c.2132-.0711.401-.1219.5635-.1523.1624-.0305.3705-.0457.6243-.0457.2843 0 .4619.0203.533.0609.0812.0406.1218.132.1218.2741 0 .1015-.2081.2284-.6243.3807-.4163.1523-.8833.2894-1.401.4112-.5178.1218-.8731.1827-1.066.1827zM45.6983 75.782c-.6904 0-1.3097-.1472-1.8579-.4416-.5381-.2944-.9695-.6345-1.2944-1.0203-.3249-.3858-.5076-.7005-.5482-.9441-.0406-.2234.0101-.396.1523-.5178.1522-.1218.3401-.1726.5634-.1523.3147.7513.6904 1.33 1.1269 1.736.4365.4061 1.0609.6193 1.8731.6396.5685.0102 1.0203-.3553 1.3553-1.0964.3452-.731.5888-1.6294.731-2.6954.1421-1.0559.2132-2.0965.2132-3.1218 0-.5279-.0153-.9594-.0457-1.2944-.7716.9441-1.7564 1.4162-2.9543 1.4162-1.0355 0-1.8325-.4924-2.3909-1.4772-.5482-.9847-.9035-2.0964-1.0659-3.335-.0204-.1218-.0305-.2944-.0305-.5177 0-.6396.2081-.9594.6244-.9594.0406 0 .0964.2538.1675.7614.1116.802.2487 1.5228.4111 2.1624.1625.6396.4315 1.2234.8071 1.7513.3858.5178.8934.7766 1.5229.7766.4974 0 1.005-.1624 1.5228-.4873.5279-.335.9086-.7055 1.1421-1.1116 0-.7716-.1015-1.462-.3045-2.0711-.1929-.6193-.2945-.9492-.3046-.9898-.0203-.2234-.0305-.3655-.0305-.4264 0-.2031.0305-.3503.0914-.4416.0711-.0914.1726-.1371.3046-.1371.1421 0 .3045.2893.4873.868.1827.5787.3452 1.335.4873 2.269.1421.934.2386 1.9087.2893 2.9239.0203.5279.0305.9187.0305 1.1726 0 1.9492-.2437 3.5634-.731 4.8426-.4771 1.2791-1.2589 1.9187-2.3451 1.9187zM57.7083 68.579c-1.0558 0-1.9746-.1827-2.7563-.5482-.7716-.3756-1.1574-1.0304-1.1574-1.9644 0-.3351.1015-.6599.3046-.9747.203-.3147.5025-.5685.8984-.7614.396-.203.8782-.3045 1.4467-.3045.4366 0 .8071.0203 1.1117.0609.3046.0406.6548.1523 1.0508.335.3959.1827.8071.4721 1.2335.868-.1625-.7005-.4061-1.3147-.731-1.8426-.3249-.5279-.6904-.934-1.0964-1.2183-.396-.2944-.7868-.4416-1.1726-.4416-.1828 0-.3554.0355-.5178.1066-.1523.0609-.3401.1523-.5634.2741-.2538.1624-.4417.2437-.5635.2437a.223.223 0 01-.137-.0457.2225.2225 0 01-.0457-.1371c0-.4061.1776-.7208.533-.9441.3654-.2234.8071-.3249 1.3248-.3046.7107.0406 1.3604.3452 1.9493.9137.5888.5584 1.0507 1.2538 1.3857 2.0863.3452.8325.5178 1.6497.5178 2.4517 0 .132-.0102.3198-.0305.5635l-.4873-.0305c-.3857-.7817-.8832-1.335-1.4923-1.6599-.599-.335-1.2031-.5025-1.8122-.5025-.7817 0-1.3401.1168-1.6751.3503-.335.2335-.5026.5736-.5026 1.0203 0 .467.2335.8426.7005 1.1269.467.2842 1.066.4263 1.797.4263.4061 0 .7309-.0203.9746-.0609a8.4407 8.4407 0 00.7614-.1979c.2132-.0711.401-.1219.5635-.1523.1624-.0305.3705-.0457.6243-.0457.2843 0 .462.0203.533.0609.0812.0406.1218.132.1218.2741 0 .1015-.2081.2284-.6243.3807-.4163.1523-.8833.2894-1.401.4112-.5178.1218-.8731.1827-1.066.1827zM64.4703 68.579c-.1016.0203-.1675.0305-.198.0305-.3147 0-.533-.2335-.6548-.7005-.1117-.467-.1675-1.1218-.1675-1.9645 0-.3451.0101-.8832.0304-1.6142.0203-.4467.0305-.7817.0305-1.005-1.2487 0-1.8731-.1422-1.8731-.4264 0-.0914.0101-.1625.0305-.2132.0304-.0508.0913-.0762.1827-.0762l1.6599-.1066c-.0102-.4974-.0356-1.0406-.0762-1.6294-.0406-.5279-.066-1.0152-.0761-1.4619 0-.1117.0457-.1878.1371-.2284a.5865.5865 0 01.2893-.0762c.1218 0 .2233.066.3046.198.0812.1218.1218.2487.1218.3807l.1066 2.7868 1.2639.0609c.1929-.0203.3554.0152.4873.1066.1422.0914.2183.2436.2285.4568-.2132.0914-.4467.1472-.7005.1675-.2538.0204-.6802.0305-1.2792.0305 0 .9442.0457 2.4974.137 4.6599v.472c.0102.0813.0153.132.0153.1523zM68.1546 68.5943c-.2335 0-.4213-.3401-.5635-1.0203-.1421-.6904-.2335-1.2843-.2741-1.7818-.0406-.4974-.0964-1.2842-.1675-2.3603-.0102-.1726-.0152-.396-.0152-.6701 0-.3452.0254-.5837.0761-.7157.0609-.132.1574-.198.2894-.198.1116 0 .1979.0254.2588.0762.0711.0406.132.1116.1828.2132l-.0153.6091c0 .6497.0305 1.2639.0914 1.8426.0711.5787.1777 1.3553.3198 2.3299.0812.4264.1371.7767.1675 1.0508.0203.1421-.0051.2843-.0761.4264-.0711.132-.1625.198-.2741.198zm-.3807-8.3756c-.2234 0-.3909-.0863-.5026-.2589-.1015-.1726-.1523-.3858-.1523-.6396 0-.1117.0051-.1929.0153-.2436-.0102-.1625.0812-.2437.2741-.2437.1421 0 .2842.0355.4264.1066.1523.0609.1979.1066.137.1371.1016.2639.1523.472.1523.6243 0 .132-.0304.2386-.0914.3198-.0609.0711-.1472.1371-.2588.198zM71.3173 68.6399c-.1421.0407-.2233.061-.2437.061-.0812 0-.1675-.0406-.2588-.1219-.3351-.4974-.5787-1.3654-.731-2.604-.1421-1.2386-.2132-2.3046-.2132-3.198 0-.1421.1015-.2132.3046-.2132.3045 0 .4568.1676.4568.5026 0 .0913-.005.1675-.0152.2284.0914-.2132.264-.4315.5178-.6548.2538-.2234.5482-.4112.8832-.5635.335-.1522.6751-.2284 1.0203-.2284 1.0863 0 1.8782.4822 2.3756 1.4467.4975.9543.7462 2.1421.7462 3.5634 0 .4873-.0507.8782-.1523 1.1726-.1015.2843-.2385.4264-.4111.4264-.1828 0-.2741-.0558-.2741-.1675.071-.5381.1066-1.066.1066-1.5838 0-1.3096-.2285-2.2994-.6853-2.9695-.4569-.6802-1.0609-1.0203-1.8122-1.0203-.3655 0-.7208.0914-1.066.2741-.335.1828-.6091.4366-.8223.7615-.2031.3248-.3046.6954-.3046 1.1116 0 .467.0254.8731.0762 1.2183.0507.3452.1319.7614.2436 1.2487.1218.4772.2081.9137.2589 1.3096zM78.2182 68.4724c-.2233-1.1066-.3959-2.4162-.5177-3.9289-.1117-1.5228-.1675-2.9949-.1675-4.4162 0-.7106.0152-1.3401.0456-1.8883 0-.132.1016-.198.3046-.198.1624 0 .264.0406.3046.1219.0507.0812.0761.2081.0761.3807 0 1.6446.0305 3.0507.0914 4.2182.0609 1.1574.1421 2.4061.2436 3.7462.061.8629.1016 1.4467.1219 1.7512.0101.1625-.0762.2437-.2589.2437-.0609 0-.1421-.0102-.2437-.0305zM83.8522 68.579c-1.0558 0-1.9746-.1827-2.7563-.5482-.7716-.3756-1.1573-1.0304-1.1573-1.9644 0-.3351.1015-.6599.3045-.9747.2031-.3147.5026-.5685.8985-.7614.3959-.203.8782-.3045 1.4467-.3045.4365 0 .8071.0203 1.1117.0609.3045.0406.6548.1523 1.0507.335.3959.1827.8071.4721 1.2335.868-.1624-.7005-.4061-1.3147-.731-1.8426-.3248-.5279-.6903-.934-1.0964-1.2183-.3959-.2944-.7868-.4416-1.1726-.4416-.1827 0-.3553.0355-.5177.1066-.1523.0609-.3401.1523-.5635.2741-.2538.1624-.4416.2437-.5634.2437a.2231.2231 0 01-.1371-.0457.2231.2231 0 01-.0457-.1371c0-.4061.1777-.7208.533-.9441.3655-.2234.8071-.3249 1.3249-.3046.7106.0406 1.3604.3452 1.9492.9137.5888.5584 1.0508 1.2538 1.3858 2.0863.3452.8325.5177 1.6497.5177 2.4517 0 .132-.0101.3198-.0304.5635l-.4873-.0305c-.3858-.7817-.8833-1.335-1.4924-1.6599-.599-.335-1.203-.5025-1.8122-.5025-.7817 0-1.3401.1168-1.6751.3503-.335.2335-.5025.5736-.5025 1.0203 0 .467.2335.8426.7005 1.1269.467.2842 1.066.4263 1.7969.4263.4061 0 .731-.0203.9746-.0609a8.4511 8.4511 0 00.7615-.1979c.2132-.0711.401-.1219.5634-.1523.1624-.0305.3706-.0457.6244-.0457.2842 0 .4619.0203.533.0609.0812.0406.1218.132.1218.2741 0 .1015-.2081.2284-.6244.3807-.4162.1523-.8832.2894-1.401.4112-.5177.1218-.8731.1827-1.066.1827zM92.335 75.782c-.6903 0-1.3096-.1472-1.8578-.4416-.5381-.2944-.9696-.6345-1.2945-1.0203-.3248-.3858-.5076-.7005-.5482-.9441-.0406-.2234.0102-.396.1523-.5178.1523-.1218.3401-.1726.5635-.1523.3147.7513.6903 1.33 1.1269 1.736.4365.4061 1.0609.6193 1.873.6396.5686.0102 1.0203-.3553 1.3554-1.0964.3451-.731.5888-1.6294.7309-2.6954.1422-1.0559.2132-2.0965.2132-3.1218 0-.5279-.0152-.9594-.0457-1.2944-.7715.9441-1.7563 1.4162-2.9543 1.4162-1.0355 0-1.8324-.4924-2.3908-1.4772-.5482-.9847-.9036-2.0964-1.066-3.335-.0203-.1218-.0305-.2944-.0305-.5177 0-.6396.2082-.9594.6244-.9594.0406 0 .0965.2538.1675.7614.1117.802.2488 1.5228.4112 2.1624.1624.6396.4315 1.2234.8071 1.7513.3858.5178.8934.7766 1.5228.7766.4975 0 1.0051-.1624 1.5229-.4873.5279-.335.9086-.7055 1.1421-1.1116 0-.7716-.1015-1.462-.3046-2.0711-.1929-.6193-.2944-.9492-.3046-.9898-.0203-.2234-.0304-.3655-.0304-.4264 0-.2031.0304-.3503.0914-.4416.071-.0914.1726-.1371.3045-.1371.1422 0 .3046.2893.4873.868.1828.5787.3452 1.335.4873 2.269.1422.934.2386 1.9087.2894 2.9239.0203.5279.0304.9187.0304 1.1726 0 1.9492-.2436 3.5634-.7309 4.8426-.4772 1.2791-1.2589 1.9187-2.3452 1.9187zM33.909 54.2035c-.203 0-.4467-.5432-.7309-1.6294-.2741-1.0863-.5229-2.2944-.7462-3.6244-.2132-1.3198-.3198-2.1523-.3198-2.4974 0-1.0254.3452-1.7716 1.0355-2.2386.6904-.4771 1.5787-.7157 2.665-.7157.5786 0 1.1269.1218 1.6446.3655.5178.2335.934.5736 1.2488 1.0203.3147.4365.472.9441.472 1.5228 0 .7208-.2538 1.2284-.7614 1.5228-.4974.2944-1.1269.4416-1.8883.4416-.7919 0-1.467-.1319-2.0254-.3959-.5482-.2741-.8223-.6447-.8223-1.1117l.0152-.1522c.0711-.0813.1472-.1219.2285-.1219.071 0 .1472.0305.2284.0914.0914.0508.1878.1117.2893.1827.3147.2335.6244.4214.929.5635.3147.1421.7055.2132 1.1725.2132.6396 0 1.0914-.1117 1.3554-.335.2741-.2335.4111-.599.4111-1.0965 0-.3655-.1218-.6903-.3655-.9746-.2436-.2843-.5583-.5025-.9441-.6548-.3858-.1523-.7817-.2284-1.1878-.2284-.9442 0-1.6548.203-2.132.6091-.4771.3959-.6903 1.0609-.6396 1.9949.0914 1.5838.2335 2.9137.4264 3.9898.2031 1.0762.5533 1.9899 1.0508 2.7411l.0152.0305c0 .0203-.0254.0406-.0761.0609a.8875.8875 0 00-.0914.0761c-.1218.1929-.2741.3097-.4569.3503zM41.4158 48.7974c-.2335 0-.4214-.3401-.5635-1.0203-.1421-.6903-.2335-1.2842-.2741-1.7817-.0406-.4974-.0964-1.2842-.1675-2.3604-.0102-.1726-.0152-.3959-.0152-.67 0-.3452.0253-.5838.0761-.7157.0609-.132.1574-.198.2893-.198.1117 0 .198.0254.2589.0761.0711.0406.132.1117.1828.2132l-.0153.6092c0 .6497.0305 1.2639.0914 1.8426.0711.5787.1777 1.3553.3198 2.3299.0812.4264.1371.7767.1675 1.0508.0203.1421-.0051.2842-.0761.4264-.0711.1319-.1625.1979-.2741.1979zm-.3807-8.3755c-.2234 0-.3909-.0863-.5026-.2589-.1015-.1726-.1523-.3858-.1523-.6396 0-.1117.0051-.1929.0153-.2437-.0102-.1624.0812-.2436.2741-.2436.1421 0 .2842.0355.4264.1066.1523.0609.1979.1066.137.137.1015.264.1523.4721.1523.6244 0 .132-.0304.2386-.0914.3198-.0609.0711-.1472.137-.2588.198zM45.6902 56.2136c-.8528 0-1.5686-.2436-2.1472-.7309-.5686-.4772-.9087-1.2843-1.0203-2.4213-.0102-.1726.0152-.3046.0761-.396.0711-.0913.1625-.137.2741-.137.1219 0 .2284.0457.3198.137.0914.1016.132.2335.1218.396 0 .67.2285 1.1979.6853 1.5837.467.3959 1.0609.5939 1.7817.5939.4163 0 .7818-.1523 1.0965-.4568.3248-.3046.5736-.731.7462-1.2792.1726-.5381.2588-1.1574.2588-1.8579 0-1.2284.0153-2.4213.0457-3.5786l.0153-.7767c-.396.4163-.7564.7208-1.0813.9137-.3147.1929-.6954.2894-1.1421.2894-.7817 0-1.3604-.2082-1.736-.6244-.3655-.4264-.5482-1.0761-.5482-1.9492 0-.4975.132-1.0152.3959-1.5533.2741-.5482.6447-1.0051 1.1117-1.3706.4771-.3654 1.0152-.5482 1.6142-.5482.203 0 .3908.0203.5634.0609.6498.1422 1.0863.7462 1.3097 1.8122.2233 1.066.335 2.4467.335 4.1421 0 .467-.0102 1.0863-.0305 1.8579l-.0152 1.4467c0 .5786-.0914 1.2081-.2741 1.8883-.1827.6903-.5025 1.2893-.9594 1.7969-.4568.5076-1.0558.7614-1.7969.7614zm-.198-8.7258c.7513 0 1.3198-.1777 1.7056-.533.3858-.3655.5786-.8985.5786-1.599 0-.0913-.0101-.2487-.0304-.472-.0508-.467-.1726-.8325-.3655-1.0965-.1827-.2741-.4721-.4112-.868-.4112-.4162 0-.797.1473-1.1421.4417-.3452.2944-.6142.6599-.8071 1.0964-.1929.4264-.2894.8274-.2894 1.203 0 .3757.1117.7006.3351.9747.2233.2639.5177.3959.8832.3959zM54.6322 48.6756c-.2234-1.1066-.396-2.4162-.5178-3.9289-.1117-1.5228-.1675-2.9949-.1675-4.4162 0-.7107.0152-1.3401.0457-1.8883 0-.132.1015-.198.3045-.198.1625 0 .264.0406.3046.1218.0508.0812.0762.2081.0762.3807 0 1.6447.0304 3.0508.0913 4.2183.0609 1.1573.1422 2.4061.2437 3.7462.0609.8629.1015 1.4466.1218 1.7512.0102.1624-.0761.2437-.2589.2437-.0609 0-.1421-.0102-.2436-.0305zM60.2662 48.7822c-1.0559 0-1.9746-.1827-2.7564-.5482-.7715-.3756-1.1573-1.0305-1.1573-1.9645 0-.335.1015-.6599.3046-.9746.203-.3147.5025-.5685.8984-.7614.396-.203.8782-.3046 1.4467-.3046.4366 0 .8071.0203 1.1117.0609.3046.0407.6548.1523 1.0507.3351.396.1827.8071.472 1.2335.868-.1624-.7005-.406-1.3147-.7309-1.8426-.3249-.528-.6904-.934-1.0965-1.2183-.3959-.2944-.7868-.4416-1.1725-.4416-.1828 0-.3554.0355-.5178.1066-.1523.0609-.3401.1523-.5635.2741-.2538.1624-.4416.2436-.5634.2436a.2227.2227 0 01-.1371-.0457.2227.2227 0 01-.0456-.137c0-.4061.1776-.7208.533-.9442.3654-.2233.8071-.3248 1.3248-.3045.7107.0406 1.3604.3451 1.9492.9137.5889.5583 1.0508 1.2538 1.3858 2.0863.3452.8324.5178 1.6497.5178 2.4517 0 .132-.0102.3198-.0305.5635l-.4873-.0305c-.3858-.7817-.8832-1.335-1.4924-1.6599-.5989-.335-1.203-.5025-1.8121-.5025-.7817 0-1.3401.1167-1.6751.3502-.3351.2335-.5026.5736-.5026 1.0203 0 .467.2335.8427.7005 1.1269.467.2843 1.066.4264 1.797.4264.4061 0 .7309-.0203.9746-.0609a8.4597 8.4597 0 00.7614-.198c.2132-.071.401-.1218.5634-.1522.1625-.0305.3706-.0457.6244-.0457.2843 0 .4619.0203.533.0609.0812.0406.1218.132.1218.2741 0 .1015-.2081.2284-.6243.3807-.4163.1523-.8833.2893-1.401.4112-.5178.1218-.8731.1827-1.066.1827zM67.0281 48.7822c-.1015.0203-.1675.0305-.1979.0305-.3147 0-.533-.2335-.6548-.7005-.1117-.467-.1675-1.1219-.1675-1.9645 0-.3452.0101-.8832.0304-1.6142.0203-.4467.0305-.7817.0305-1.0051-1.2488 0-1.8731-.1421-1.8731-.4264 0-.0913.0101-.1624.0304-.2132.0305-.0507.0914-.0761.1828-.0761l1.6599-.1066c-.0102-.4975-.0356-1.0406-.0762-1.6294-.0406-.5279-.066-1.0153-.0761-1.4619 0-.1117.0457-.1879.137-.2285a.5878.5878 0 01.2894-.0761c.1218 0 .2233.066.3045.198.0813.1218.1219.2487.1219.3807l.1066 2.7867 1.2639.061c.1929-.0203.3553.0152.4873.1066.1422.0913.2183.2436.2284.4568-.2131.0914-.4466.1472-.7005.1675-.2538.0203-.6802.0305-1.2791.0305 0 .9441.0457 2.4974.137 4.6598v.4721c.0102.0812.0152.132.0152.1523zM70.7125 48.7974c-.2335 0-.4214-.3401-.5635-1.0203-.1421-.6903-.2335-1.2842-.2741-1.7817-.0406-.4974-.0965-1.2842-.1675-2.3604-.0102-.1726-.0152-.3959-.0152-.67 0-.3452.0253-.5838.0761-.7157.0609-.132.1574-.198.2893-.198.1117 0 .198.0254.2589.0761.0711.0406.132.1117.1828.2132l-.0153.6092c0 .6497.0305 1.2639.0914 1.8426.0711.5787.1777 1.3553.3198 2.3299.0812.4264.137.7767.1675 1.0508.0203.1421-.0051.2842-.0761.4264-.0711.1319-.1625.1979-.2741.1979zm-.3808-8.3755c-.2233 0-.3908-.0863-.5025-.2589-.1015-.1726-.1523-.3858-.1523-.6396 0-.1117.0051-.1929.0153-.2437-.0102-.1624.0812-.2436.2741-.2436.1421 0 .2842.0355.4264.1066.1522.0609.1979.1066.137.137.1015.264.1523.4721.1523.6244 0 .132-.0305.2386-.0914.3198-.0609.0711-.1472.137-.2589.198zM73.8752 48.8431c-.1421.0406-.2234.0609-.2437.0609-.0812 0-.1675-.0406-.2588-.1218-.3351-.4975-.5787-1.3655-.731-2.604-.1421-1.2386-.2132-2.3046-.2132-3.198 0-.1421.1015-.2132.3046-.2132.3045 0 .4568.1675.4568.5026 0 .0913-.0051.1675-.0152.2284.0914-.2132.2639-.4315.5177-.6548.2539-.2234.5483-.4112.8833-.5635.335-.1523.6751-.2284 1.0203-.2284 1.0863 0 1.8781.4822 2.3756 1.4467.4975.9543.7462 2.1421.7462 3.5634 0 .4873-.0508.8782-.1523 1.1726-.1015.2842-.2386.4264-.4112.4264-.1827 0-.2741-.0559-.2741-.1675.0711-.5381.1066-1.066.1066-1.5838 0-1.3096-.2284-2.2995-.6852-2.9695-.4569-.6802-1.0609-1.0203-1.8122-1.0203-.3655 0-.7208.0914-1.066.2741-.335.1827-.6091.4366-.8223.7614-.2031.3249-.3046.6955-.3046 1.1117 0 .467.0254.8731.0762 1.2183.0507.3451.1319.7614.2436 1.2487.1218.4771.2081.9137.2589 1.3096z" fill="#000"/>
  <defs>
    <filter id="filter0_d" x="5" y="27" width="101.66" height="61.53" filterUnits="userSpaceOnUse" color-interpolation-filters="sRGB">
      <feFlood flood-opacity="0" result="BackgroundImageFix"/>
      <feColorMatrix in="SourceAlpha" values="0 0 0 0 0 0 0 0 0 0 0 0 0 0 0 0 0 0 127 0"/>
      <feOffset dy="2"/>
      <feGaussianBlur stdDeviation="2"/>
      <feColorMatrix values="0 0 0 0 0.309804 0 0 0 0 0.448157 0 0 0 0 0.803922 0 0 0 0.3 0"/>
      <feBlend in2="BackgroundImageFix" result="effect1_dropShadow"/>
      <feBlend in="SourceGraphic" in2="effect1_dropShadow" result="shape"/>
    </filter>
  </defs>
</svg>
