<svg xmlns="http://www.w3.org/2000/svg" version="1.1" xmlns:xlink="http://www.w3.org/1999/xlink" xmlns:svgjs="http://svgjs.com/svgjs" viewBox="0 0 160 160" width="160" height="160"><g transform="matrix(1.6,0,0,1.6,0,0)"><path d="M10.000 50.000 A40.000 40.000 0 1 0 90.000 50.000 A40.000 40.000 0 1 0 10.000 50.000 Z" fill="#c7f0ff" stroke="#c7f0ff" stroke-miterlimit="10" transform="translate(-15.822 75.835) rotate(-66.43)"></path><path d="M65.022,49.348a3.053,3.053,0,0,1-.476,4.292L41.889,71.769a3.054,3.054,0,0,1-4.291-.476L11.836,39.1a3.053,3.053,0,0,1,.476-4.29L34.968,16.677a3.054,3.054,0,0,1,4.295.476Z" fill="#ffffff"></path><path d="M44.988,24.308,26.4,30.362a3.053,3.053,0,0,0-1.959,3.849l11.333,34.8L37.6,71.293a3.054,3.054,0,0,0,4.291.476L64.546,53.64a3.053,3.053,0,0,0,.476-4.292Z" fill="#c7f0ff"></path><path d="M65.022,49.348a3.053,3.053,0,0,1-.476,4.292L41.889,71.769a3.054,3.054,0,0,1-4.291-.476L11.836,39.1a3.053,3.053,0,0,1,.476-4.29L34.968,16.677a3.054,3.054,0,0,1,4.295.476Z" fill="none" stroke="#45413c" stroke-linecap="round" stroke-linejoin="round"></path><path d="M16.367 37.426L19.943 34.564 21.733 42.912" fill="none" stroke="#45413c" stroke-linecap="round" stroke-linejoin="round"></path><path d="M73.008,58.113a3.054,3.054,0,0,1-1.958,3.849L43.458,70.947a3.053,3.053,0,0,1-3.848-1.958L26.842,29.78A3.054,3.054,0,0,1,28.8,25.931L56.39,16.947a3.055,3.055,0,0,1,3.85,1.958Z" fill="#ffffff"></path><path d="M43.458,70.947,50,68.816V25.9H41.852a2.291,2.291,0,0,0-2.29,2.291V68.84l.048.149A3.053,3.053,0,0,0,43.458,70.947Z" fill="#c7f0ff"></path><path d="M73.008,58.113a3.054,3.054,0,0,1-1.958,3.849L43.458,70.947a3.053,3.053,0,0,1-3.848-1.958L26.842,29.78A3.054,3.054,0,0,1,28.8,25.931L56.39,16.947a3.055,3.055,0,0,1,3.85,1.958Z" fill="none" stroke="#45413c" stroke-linecap="round" stroke-linejoin="round"></path><path d="M30.983,29.124l3.268-1.063a1.909,1.909,0,0,1,1.181,3.63l-1.451.471A1.91,1.91,0,0,0,35.164,35.8L38.43,34.73" fill="none" stroke="#45413c" stroke-linecap="round" stroke-linejoin="round"></path><path d="M45.67,23.606H74.686A3.054,3.054,0,0,1,77.74,26.66V67.893a3.054,3.054,0,0,1-3.054,3.054H45.671a3.055,3.055,0,0,1-3.055-3.055V26.66A3.054,3.054,0,0,1,45.67,23.606Z" fill="#ffffff"></path><path d="M45.67,23.606H74.686A3.054,3.054,0,0,1,77.74,26.66V67.893a3.054,3.054,0,0,1-3.054,3.054H45.671a3.055,3.055,0,0,1-3.055-3.055V26.66A3.054,3.054,0,0,1,45.67,23.606Z" fill="none" stroke="#45413c" stroke-linecap="round" stroke-linejoin="round"></path><path d="M51.779,34.3l-2.367-7.1a.725.725,0,0,0-1.375,0L45.67,34.3" fill="none" stroke="#45413c" stroke-linecap="round" stroke-linejoin="round"></path><path d="M46.179 32.769L51.272 32.769" fill="none" stroke="#45413c" stroke-linecap="round" stroke-linejoin="round"></path><path d="M68.577,60.257l2.367,7.1a.725.725,0,0,0,1.375,0l2.367-7.1" fill="none" stroke="#45413c" stroke-linecap="round" stroke-linejoin="round"></path><path d="M74.177 61.784L69.084 61.784" fill="none" stroke="#45413c" stroke-linecap="round" stroke-linejoin="round"></path><path d="M67.543,39.277a4.21,4.21,0,0,0-3.251-.752,4.34,4.34,0,0,0-2.48,1.372l-1.634,1.8-1.635-1.8a4.34,4.34,0,0,0-2.48-1.372,4.211,4.211,0,0,0-3.251.752,5.092,5.092,0,0,0-2.03,4.153,6.535,6.535,0,0,0,2.087,4.847l7.309,6.577,7.309-6.577a6.538,6.538,0,0,0,2.086-4.847A5.089,5.089,0,0,0,67.543,39.277Z" fill="#ff6242"></path><path d="M67.543,39.277a4.21,4.21,0,0,0-3.251-.752,4.34,4.34,0,0,0-2.48,1.372l-1.634,1.8-1.635-1.8a4.34,4.34,0,0,0-2.48-1.372,4.211,4.211,0,0,0-3.251.752,5.092,5.092,0,0,0-2.03,4.153,6.535,6.535,0,0,0,2.087,4.847l3.32,2.987,11.682-11.68A4.317,4.317,0,0,0,67.543,39.277Z" fill="#ff866e"></path><path d="M67.543,39.277a4.21,4.21,0,0,0-3.251-.752,4.34,4.34,0,0,0-2.48,1.372l-1.634,1.8-1.635-1.8a4.34,4.34,0,0,0-2.48-1.372,4.211,4.211,0,0,0-3.251.752,5.092,5.092,0,0,0-2.03,4.153,6.535,6.535,0,0,0,2.087,4.847l7.309,6.577,7.309-6.577a6.538,6.538,0,0,0,2.086-4.847A5.089,5.089,0,0,0,67.543,39.277Z" fill="none" stroke="#45413c" stroke-linecap="round" stroke-linejoin="round"></path><path d="M35.574 81.376 A15.012 2.291 0 1 0 65.598 81.376 A15.012 2.291 0 1 0 35.574 81.376 Z" fill="#45413c" opacity=".15"></path></g></svg>