<svg xmlns="http://www.w3.org/2000/svg" version="1.1" xmlns:xlink="http://www.w3.org/1999/xlink" xmlns:svgjs="http://svgjs.com/svgjs" viewBox="0 0 160 160" width="160" height="160"><g transform="matrix(1.6,0,0,1.6,0,0)"><path d="M9.094 51.197 A40.000 40.000 0 1 0 89.094 51.197 A40.000 40.000 0 1 0 9.094 51.197 Z" fill="#c7f0ff" stroke="#c7f0ff" stroke-miterlimit="10"></path><path d="M34.658 85.537 A14.884 1.654 0 1 0 64.426 85.537 A14.884 1.654 0 1 0 34.658 85.537 Z" fill="#45413c" opacity=".15"></path><path d="M47.288,15.44a1.585,1.585,0,0,1-.508-.083,1.6,1.6,0,0,1-1.014-2.029L46.909,9.9a1.6,1.6,0,0,1,3.043,1.015L48.81,14.343A1.6,1.6,0,0,1,47.288,15.44Z" fill="#ffe500" stroke="#45413c" stroke-linecap="round" stroke-linejoin="round"></path><path d="M16.517,29.751a1.6,1.6,0,0,1-1.134-.47l-2.555-2.555A1.6,1.6,0,1,1,15.1,24.457l2.555,2.555a1.6,1.6,0,0,1-1.134,2.739Z" fill="#ffe500" stroke="#45413c" stroke-linecap="round" stroke-linejoin="round"></path><path d="M50.827,52.374H48.542a1.6,1.6,0,0,1,0-3.208h2.285a1.6,1.6,0,1,1,0,3.208Z" fill="#4acfff" stroke="#45413c" stroke-linecap="round" stroke-linejoin="round"></path><path d="M56.087,77.179a1.6,1.6,0,0,1-1.135-2.738l3.428-3.428a1.6,1.6,0,0,1,2.269,2.269l-3.428,3.427A1.6,1.6,0,0,1,56.087,77.179Z" fill="#4acfff" stroke="#45413c" stroke-linecap="round" stroke-linejoin="round"></path><path d="M74.97,65.031a1.6,1.6,0,0,1-1.135-.47l-3.426-3.427a1.6,1.6,0,1,1,2.268-2.269L76.1,62.292a1.6,1.6,0,0,1-1.134,2.739Z" fill="#ffe500" stroke="#45413c" stroke-linecap="round" stroke-linejoin="round"></path><path d="M69.457,18.726a1.6,1.6,0,0,1-1.134-.47L64.9,14.829a1.6,1.6,0,0,1,2.269-2.269l3.426,3.427a1.6,1.6,0,0,1-1.134,2.739Z" fill="#4acfff" stroke="#45413c" stroke-linecap="round" stroke-linejoin="round"></path><path d="M89.3,37.468A1.6,1.6,0,0,1,88.168,37l-3.427-3.427A1.6,1.6,0,1,1,87.01,31.3l3.426,3.427A1.6,1.6,0,0,1,89.3,37.468Z" fill="#ffe500" stroke="#45413c" stroke-linecap="round" stroke-linejoin="round"></path><path d="M14.312,52.9a1.6,1.6,0,0,1-1.134-.47L9.751,49.006a1.6,1.6,0,0,1,2.268-2.268l3.427,3.427A1.6,1.6,0,0,1,14.312,52.9Z" fill="#4acfff" stroke="#45413c" stroke-linecap="round" stroke-linejoin="round"></path><path d="M81.524,54.027a1.585,1.585,0,0,1-.508-.083A1.6,1.6,0,0,1,80,51.915l1.143-3.427A1.6,1.6,0,0,1,84.188,49.5L83.046,52.93A1.6,1.6,0,0,1,81.524,54.027Z" fill="#4acfff" stroke="#45413c" stroke-linecap="round" stroke-linejoin="round"></path><path d="M77.055,77.158a1.6,1.6,0,0,1-1.134-2.738l2.285-2.286A1.6,1.6,0,0,1,80.475,74.4L78.19,76.688A1.6,1.6,0,0,1,77.055,77.158Z" fill="#4acfff" stroke="#45413c" stroke-linecap="round" stroke-linejoin="round"></path><path d="M15.334,73.832A1.6,1.6,0,0,1,14.2,71.093l2.285-2.285a1.6,1.6,0,1,1,2.269,2.269l-2.286,2.285A1.6,1.6,0,0,1,15.334,73.832Z" fill="#ffe500" stroke="#45413c" stroke-linecap="round" stroke-linejoin="round"></path><path d="M32.935,25.361A1.6,1.6,0,0,1,31.8,22.622L35.228,19.2A1.6,1.6,0,1,1,37.5,21.464l-3.427,3.427A1.6,1.6,0,0,1,32.935,25.361Z" fill="#4acfff" stroke="#45413c" stroke-linecap="round" stroke-linejoin="round"></path><path d="M64.022,37.071l.01,0a22.552,22.552,0,0,1,2.153-6.349c2.879-5.7,7.266-9.283,9.8-8s2.253,6.937-.626,12.637c-5.227,10.346-9.41,7.913-12.192,7.768Z" fill="#ff6242"></path><path d="M63.5,40.767a22.555,22.555,0,0,1,2.138-6.281c2.879-5.7,7.266-9.282,9.8-8,1.177.595,1.739,2.142,1.722,4.193,1.014-3.842.648-7.034-1.176-7.955-2.533-1.28-6.92,2.3-9.8,8a22.552,22.552,0,0,0-2.153,6.349l-.01,0-.532,3.764" fill="#ff866e"></path><path d="M64.022,37.071l.01,0a22.552,22.552,0,0,1,2.153-6.349c2.879-5.7,7.266-9.283,9.8-8s2.253,6.937-.626,12.637c-5.227,10.346-9.41,7.913-12.192,7.768Z" fill="none" stroke="#45413c" stroke-linecap="round" stroke-linejoin="round"></path><path d="M63.843,37.048h-.011a22.519,22.519,0,0,0-.505-6.685c-1.37-6.237-4.728-10.8-7.5-10.19s-3.908,6.159-2.538,12.4c2.488,11.322,7.146,10.007,9.876,10.558Z" fill="#ff6242"></path><path d="M63.429,40.757a22.583,22.583,0,0,0-.508-6.615c-1.37-6.237-4.728-10.8-7.5-10.19-1.289.283-2.218,1.642-2.712,3.633-.026-3.974,1.122-6.974,3.118-7.413,2.772-.609,6.13,3.953,7.5,10.19a22.519,22.519,0,0,1,.505,6.685h.011l-.422,3.778" fill="#ff866e"></path><path d="M63.843,37.048h-.011a22.519,22.519,0,0,0-.505-6.685c-1.37-6.237-4.728-10.8-7.5-10.19s-3.908,6.159-2.538,12.4c2.488,11.322,7.146,10.007,9.876,10.558Z" fill="none" stroke="#45413c" stroke-linecap="round" stroke-linejoin="round"></path><path d="M65.549,53.842c-.8,5.62-3.147,9.935-5.255,9.637s-3.172-5.095-2.377-10.716,3.146-9.934,5.254-9.636S66.343,48.222,65.549,53.842Z" fill="#ff6242"></path><path d="M58.238,50.934c-.148,4.33.878,7.666,2.624,7.912,1.877.266,3.945-3.13,4.937-7.846a26.751,26.751,0,0,1-.25,2.842c-.8,5.62-3.147,9.935-5.255,9.637s-3.172-5.095-2.377-10.716C58.005,52.136,58.113,51.524,58.238,50.934Z" fill="#e04122"></path><path d="M65.549,53.842c-.8,5.62-3.147,9.935-5.255,9.637s-3.172-5.095-2.377-10.716,3.146-9.934,5.254-9.636S66.343,48.222,65.549,53.842Z" fill="none" stroke="#45413c" stroke-linecap="round" stroke-linejoin="round"></path><path d="M32.8,49.49h.01a22.6,22.6,0,0,1,.084-6.7c.976-6.31,4.041-11.074,6.845-10.64s4.288,5.9,3.312,12.211c-1.772,11.455-6.5,10.435-9.193,11.157Z" fill="#00f5bc"></path><path d="M33.446,53.166a22.581,22.581,0,0,1,.091-6.634c.976-6.31,4.041-11.074,6.845-10.641,1.3.2,2.317,1.5,2.935,3.456-.224-3.968-1.558-6.89-3.578-7.2-2.8-.434-5.869,4.33-6.845,10.64a22.6,22.6,0,0,0-.084,6.7H32.8l.658,3.744" fill="#8cffe4"></path><path d="M32.8,49.49h.01a22.6,22.6,0,0,1,.084-6.7c.976-6.31,4.041-11.074,6.845-10.64s4.288,5.9,3.312,12.211c-1.772,11.455-6.5,10.435-9.193,11.157Z" fill="none" stroke="#45413c" stroke-linecap="round" stroke-linejoin="round"></path><path d="M32.623,49.524l-.01,0a22.555,22.555,0,0,0-2.547-6.2c-3.231-5.507-7.835-8.807-10.283-7.371S17.971,43.019,21.2,48.526c5.867,10,9.889,7.307,12.656,6.987Z" fill="#00f5bc"></path><path d="M33.376,53.179a22.565,22.565,0,0,0-2.529-6.134c-3.231-5.508-7.835-8.808-10.283-7.372-1.138.668-1.6,2.248-1.456,4.294-1.253-3.772-1.089-6.98.674-8.014,2.447-1.436,7.051,1.864,10.283,7.371a22.56,22.56,0,0,1,2.547,6.2l.01,0,.768,3.724" fill="#8cffe4"></path><path d="M32.622,49.523l-.01,0a22.56,22.56,0,0,0-2.547-6.2c-3.232-5.507-7.836-8.807-10.283-7.371S17.969,43.018,21.2,48.525c5.866,10,9.889,7.307,12.656,6.987Z" fill="none" stroke="#45413c" stroke-linecap="round" stroke-linejoin="round"></path><path d="M35.014,61.526l-.01,0a22.539,22.539,0,0,1,.014,6.7c-.883,6.324-3.878,11.133-6.689,10.74s-4.373-5.837-3.49-12.161c1.6-11.481,6.35-10.53,9.029-11.291Z" fill="#00f5bc"></path><path d="M34.315,57.859a22.616,22.616,0,0,1,.005,6.635c-.883,6.324-3.878,11.132-6.689,10.74-1.306-.182-2.338-1.465-2.985-3.412.283,3.964,1.659,6.866,3.683,7.149,2.811.393,5.806-4.416,6.689-10.74a22.539,22.539,0,0,0-.014-6.7l.01,0L34.3,57.792" fill="#00dba8"></path><path d="M35.014,61.526l-.01,0a22.539,22.539,0,0,1,.014,6.7c-.883,6.324-3.878,11.133-6.689,10.74s-4.373-5.837-3.49-12.161c1.6-11.481,6.35-10.53,9.029-11.291Z" fill="none" stroke="#45413c" stroke-linecap="round" stroke-linejoin="round"></path><path d="M35.191,61.49l.01,0a22.57,22.57,0,0,0,2.638,6.163c3.312,5.459,7.963,8.692,10.39,7.22s1.709-7.091-1.6-12.55c-6.012-9.911-9.995-7.161-12.757-6.8Z" fill="#00f5bc"></path><path d="M34.384,57.846A22.571,22.571,0,0,0,37,63.942c3.311,5.46,7.963,8.692,10.389,7.221,1.128-.684,1.569-2.271,1.393-4.315,1.308,3.753,1.191,6.963-.556,8.023-2.427,1.472-7.078-1.761-10.39-7.22A22.57,22.57,0,0,1,35.2,61.488l-.01,0-.822-3.712" fill="#00dba8"></path><path d="M35.191,61.49l.01,0a22.57,22.57,0,0,0,2.638,6.163c3.312,5.459,7.963,8.692,10.39,7.22s1.709-7.091-1.6-12.55c-6.012-9.911-9.995-7.161-12.757-6.8Z" fill="none" stroke="#45413c" stroke-linecap="round" stroke-linejoin="round"></path></g></svg>