<svg xmlns="http://www.w3.org/2000/svg" version="1.1" xmlns:xlink="http://www.w3.org/1999/xlink" xmlns:svgjs="http://svgjs.com/svgjs" viewBox="0 0 160 160" width="160" height="160"><g transform="matrix(1.6,0,0,1.6,0,0)"><path d="M86.436,66.594a40,40,0,1,0-72.872,0Z" fill="#c7f0ff"></path><path d="M13.564,66.594a40,40,0,0,0,72.872,0Z" fill="#f2dfc2"></path><path d="M6.5 66.594L9 66.594" fill="none" stroke="#45413c" stroke-linecap="round" stroke-linejoin="round"></path><path d="M11 66.594L89 66.594" fill="none" stroke="#45413c" stroke-linecap="round" stroke-linejoin="round"></path><path d="M91 66.594L93.5 66.594" fill="none" stroke="#45413c" stroke-linecap="round" stroke-linejoin="round"></path><path d="M32.821,59.574c0-13.612,9.558-20.149,18.276-20.149h0A17.943,17.943,0,0,1,69.04,57.369V66.63H22.4l-2.894-5.774,6.367-2.894,1.657,2.983a2.822,2.822,0,0,0,5.288-1.371Z" fill="#4acfff"></path><path d="M51.1,45.214c8.63,0,15.881,4.979,17.938,11.719A17.944,17.944,0,0,0,51.1,39.425c-8.4,0-17.57,6.063-18.237,18.669C34.4,50.773,41.978,45.214,51.1,45.214Z" fill="#80ddff"></path><path d="M32.821,59.574c0-13.612,9.558-20.149,18.276-20.149h0A17.943,17.943,0,0,1,69.04,57.369V66.63H22.4l-2.894-5.774,6.367-2.894,1.657,2.983a2.822,2.822,0,0,0,5.288-1.371Z" fill="none" stroke="#45413c" stroke-linejoin="round"></path><path d="M51.093,46.95l-3.032-3.035a3.475,3.475,0,0,1-1.016-2.454V37.11h8.111v4.347a3.474,3.474,0,0,1-1.02,2.459Z" fill="#ffda8f" stroke="#45413c" stroke-linecap="round" stroke-linejoin="round"></path><path d="M19.509,60.856l-1.273-2.544a3.5,3.5,0,0,1,1.68-4.744h0a3.5,3.5,0,0,1,4.572,1.618l1.388,2.776Z" fill="#ffda8f"></path><path d="M24.488,55.186a3.494,3.494,0,0,0-6.3,3.019H18.2a3.476,3.476,0,0,1,6.293-.124l.215.415,1.173-.533Z" fill="#ffe9bd"></path><path d="M19.509,60.856l-1.273-2.544a3.5,3.5,0,0,1,1.68-4.744h0a3.5,3.5,0,0,1,4.572,1.618l1.388,2.776Z" fill="none" stroke="#45413c" stroke-linejoin="round"></path><path d="M18.963,61.616a.867.867,0,0,0-.629-1.054.213.213,0,0,1-.16-.216l0-.037a.213.213,0,0,1,.137-.188,2.315,2.315,0,1,0-2.558-.644.211.211,0,0,1,.031.23l-.015.033a.212.212,0,0,1-.243.114.868.868,0,0,0-1.054.63.84.84,0,0,0,.276.85.332.332,0,0,1,.073.395l-.429.9a23.1,23.1,0,0,0-1.541,4.277l-.007.03a1.157,1.157,0,0,0,.839,1.405l2.245.566a1.157,1.157,0,0,0,1.406-.839l.008-.03a23.064,23.064,0,0,0,.671-4.5l.048-.969a.356.356,0,0,1,.254-.342A.845.845,0,0,0,18.963,61.616Z" fill="#e0e0e0" stroke="#45413c" stroke-linecap="round" stroke-linejoin="round"></path><path d="M51.1,46.95l-3.036-3.035a3.475,3.475,0,0,1-1.016-2.454V39a.867.867,0,0,0-.7-.228,2.849,2.849,0,0,0-.739.346,5.334,5.334,0,0,0-2.435,5.256,4.6,4.6,0,0,0,6.591,3.419C50.16,47.594,51.1,46.95,51.1,46.95Z" fill="#ffffff" stroke="#45413c" stroke-linecap="round" stroke-linejoin="round"></path><path d="M51.1,46.95l3.036-3.035a3.475,3.475,0,0,0,1.016-2.454V39a.865.865,0,0,1,.7-.228,2.864,2.864,0,0,1,.739.346,5.336,5.336,0,0,1,2.435,5.256,4.6,4.6,0,0,1-6.591,3.419C52.034,47.594,51.1,46.95,51.1,46.95Z" fill="#ffffff" stroke="#45413c" stroke-linecap="round" stroke-linejoin="round"></path><path d="M19.509,60.841,18.236,58.3a3.5,3.5,0,0,1,1.68-4.744h0a3.5,3.5,0,0,1,4.572,1.618l1.388,2.776Z" fill="#ffda8f"></path><path d="M24.488,55.171a3.494,3.494,0,0,0-6.3,3.019H18.2a3.477,3.477,0,0,1,6.293-.124l.215.415,1.173-.533Z" fill="#ffe9bd"></path><path d="M19.509,60.841,18.236,58.3a3.5,3.5,0,0,1,1.68-4.744h0a3.5,3.5,0,0,1,4.572,1.618l1.388,2.776Z" fill="none" stroke="#45413c" stroke-linejoin="round"></path><path d="M18.963,61.6a.867.867,0,0,0-.629-1.054.212.212,0,0,1-.16-.216l0-.037a.21.21,0,0,1,.137-.187,2.315,2.315,0,1,0-2.558-.645.211.211,0,0,1,.031.23l-.015.033a.212.212,0,0,1-.243.114.868.868,0,0,0-1.054.63.84.84,0,0,0,.276.85.333.333,0,0,1,.073.4l-.429.9a23.137,23.137,0,0,0-1.541,4.278l-.007.029a1.158,1.158,0,0,0,.839,1.406l2.245.566a1.158,1.158,0,0,0,1.406-.84l.008-.03a23.064,23.064,0,0,0,.671-4.5l.048-.969a.356.356,0,0,1,.254-.342A.843.843,0,0,0,18.963,61.6Z" fill="#e0e0e0" stroke="#45413c" stroke-linecap="round" stroke-linejoin="round"></path><path d="M61.382,51.013q.426,1.459.992,2.878a8.679,8.679,0,0,1-.015,6.377A4.048,4.048,0,0,0,62.094,62V66.63" fill="none" stroke="#45413c" stroke-linecap="round" stroke-linejoin="round"></path><path d="M40.812,51.013q-.426,1.459-.993,2.878a8.684,8.684,0,0,0,.016,6.377A4.048,4.048,0,0,1,40.1,62V66.63" fill="none" stroke="#45413c" stroke-linecap="round" stroke-linejoin="round"></path><path d="M51.097 46.95L51.097 66.63" fill="none" stroke="#45413c" stroke-linecap="round" stroke-linejoin="round"></path><path d="M66.451,70.793a1.158,1.158,0,0,0-1.059-.691H30.456a1.158,1.158,0,0,0-1.07.717l-7.15,17.365a1.157,1.157,0,0,0,1.07,1.6H73.052a1.157,1.157,0,0,0,1.059-1.625Z" fill="#f0d5a8" stroke="#45413c" stroke-linecap="round" stroke-linejoin="round"></path><path d="M40.678 70.102L35.469 70.102 34.141 73.575 39.759 73.575 40.678 70.102z" fill="#bf8256" stroke="#45413c" stroke-linecap="round" stroke-linejoin="round"></path><path d="M27.944 89.782L35.469 89.782 36.695 85.152 29.715 85.152 27.944 89.782z" fill="#bf8256" stroke="#45413c" stroke-linecap="round" stroke-linejoin="round"></path><path d="M38.687 77.627L32.592 77.627 31.264 81.1 37.767 81.1 38.687 77.627z" fill="#bf8256" stroke="#45413c" stroke-linecap="round" stroke-linejoin="round"></path><path d="M49.939 70.102L45.888 70.102 45.479 73.575 50.348 73.575 49.939 70.102z" fill="#bf8256" stroke="#45413c" stroke-linecap="round" stroke-linejoin="round"></path><path d="M45.002 77.627L44.594 81.1 51.233 81.1 50.824 77.627 45.002 77.627z" fill="#bf8256" stroke="#45413c" stroke-linecap="round" stroke-linejoin="round"></path><path d="M43.572 89.782L52.255 89.782 51.71 85.152 44.117 85.152 43.572 89.782z" fill="#bf8256" stroke="#45413c" stroke-linecap="round" stroke-linejoin="round"></path><path d="M28.251 73.575L26.582 77.627 32.592 77.627 34.141 73.575 28.251 73.575z" fill="#bf8256" stroke="#45413c" stroke-linecap="round" stroke-linejoin="round"></path><path d="M45.002 77.627L45.479 73.575 39.759 73.575 38.687 77.627 45.002 77.627z" fill="#bf8256" stroke="#45413c" stroke-linecap="round" stroke-linejoin="round"></path><path d="M57.14 77.627L56.068 73.575 50.348 73.575 50.824 77.627 57.14 77.627z" fill="#bf8256" stroke="#45413c" stroke-linecap="round" stroke-linejoin="round"></path><path d="M69.466 77.627L67.678 73.575 61.584 73.575 63.014 77.627 69.466 77.627z" fill="#bf8256" stroke="#45413c" stroke-linecap="round" stroke-linejoin="round"></path><path d="M72.785 85.152L70.998 81.1 64.239 81.1 65.669 85.152 72.785 85.152z" fill="#bf8256" stroke="#45413c" stroke-linecap="round" stroke-linejoin="round"></path><path d="M25.153 81.1L23.484 85.152 29.715 85.152 31.264 81.1 25.153 81.1z" fill="#bf8256" stroke="#45413c" stroke-linecap="round" stroke-linejoin="round"></path><path d="M37.767 81.1L36.695 85.152 44.117 85.152 44.594 81.1 37.767 81.1z" fill="#bf8256" stroke="#45413c" stroke-linecap="round" stroke-linejoin="round"></path><path d="M51.233 81.1L51.71 85.152 59.132 85.152 58.06 81.1 51.233 81.1z" fill="#bf8256" stroke="#45413c" stroke-linecap="round" stroke-linejoin="round"></path><path d="M58.06 81.1L64.239 81.1 63.014 77.627 57.14 77.627 58.06 81.1z" fill="#bf8256" stroke="#45413c" stroke-linecap="round" stroke-linejoin="round"></path><path d="M60.358 70.102L55.149 70.102 56.068 73.575 61.584 73.575 60.358 70.102z" fill="#bf8256" stroke="#45413c" stroke-linecap="round" stroke-linejoin="round"></path><path d="M59.132 85.152L60.358 89.782 67.304 89.782 65.669 85.152 59.132 85.152z" fill="#bf8256" stroke="#45413c" stroke-linecap="round" stroke-linejoin="round"></path><path d="M80.607,65.979a.65.65,0,0,0-.652-.649A.157.157,0,0,1,79.8,65.2l0-.012a.182.182,0,0,1,.073-.184,1.734,1.734,0,1,0-1.976.019.137.137,0,0,1,.057.139l-.008.041a.159.159,0,0,1-.156.128.651.651,0,0,0-.649.652.635.635,0,0,0,.431.6.114.114,0,0,1,.074.131l-.167.846a17.279,17.279,0,0,0-.33,3.388v.312a.579.579,0,0,0,.58.578l2.312,0a.578.578,0,0,0,.577-.579v-.312a17.282,17.282,0,0,0-.341-3.388l-.17-.845a.114.114,0,0,1,.074-.131A.638.638,0,0,0,80.607,65.979Z" fill="#656769" stroke="#45413c" stroke-linecap="round" stroke-linejoin="round"></path><path d="M75.416,69.585a43.942,43.942,0,0,0-.657-6.775.306.306,0,0,1,.162-.34.843.843,0,0,0,.486-.764.869.869,0,0,0-.87-.867.149.149,0,0,1-.146-.171l.326-2.051a.579.579,0,0,0-.572-.67H72.03a.579.579,0,0,0-.572.671l.331,2.054a.149.149,0,0,1-.146.172.868.868,0,0,0-.866.869.807.807,0,0,0,.48.755.325.325,0,0,1,.169.359,44.45,44.45,0,0,0-.64,6.844l0,1.589a.579.579,0,0,0,.58.578l3.473-.006a.578.578,0,0,0,.578-.579Z" fill="#e0e0e0" stroke="#45413c" stroke-linecap="round" stroke-linejoin="round"></path><path d="M73.087 57.947L73.087 55.053" fill="none" stroke="#45413c" stroke-linecap="round" stroke-linejoin="round"></path><path d="M71.929 56.211L74.244 56.211" fill="none" stroke="#45413c" stroke-linecap="round" stroke-linejoin="round"></path><path d="M62.673,27.27V24.376a11.576,11.576,0,0,0-23.152,0V27.27a2.316,2.316,0,0,0,0,4.631c.048,0,.094-.012.142-.015a11.56,11.56,0,0,0,22.868,0c.048,0,.094.015.142.015a2.316,2.316,0,1,0,0-4.631Z" fill="#ffda8f" stroke="#45413c" stroke-linecap="round" stroke-linejoin="round"></path><path d="M42.994 32.190 A1.447 1.447 0 1 0 45.888 32.190 A1.447 1.447 0 1 0 42.994 32.190 Z" fill="#ffbe3d"></path><path d="M56.306 32.190 A1.447 1.447 0 1 0 59.200 32.190 A1.447 1.447 0 1 0 56.306 32.190 Z" fill="#ffbe3d"></path><path d="M47.614,35.13a5.052,5.052,0,0,0,6.966,0" fill="none" stroke="#45413c" stroke-linecap="round" stroke-linejoin="round"></path><path d="M68.378,29.311a9.556,9.556,0,0,0-.813-5.3l-3.59-6.5a14.71,14.71,0,0,0-25.756,0l-3.591,6.5a9.556,9.556,0,0,0-.812,5.3c.783,5.868,5.293,7.3,8.954,8.882-7.3-8.607,1.811-16.85,3.7-19.026,3.473,8.1,16.207,3.473,16.207,9.261,0,2.894-1.623,8.074-3.249,9.765L61.93,37.11A9.553,9.553,0,0,0,68.378,29.311Z" fill="#bdbec0"></path><path d="M51.1,13.668A19.5,19.5,0,0,1,65.065,19.48l-1.089-1.973a14.711,14.711,0,0,0-25.758,0l-1.089,1.974A19.5,19.5,0,0,1,51.1,13.668Z" fill="#e0e0e0"></path><path d="M46.466 19.167L46.466 10.655" fill="none" stroke="#45413c" stroke-linecap="round" stroke-linejoin="round"></path><path d="M68.378,29.311a9.556,9.556,0,0,0-.813-5.3l-3.59-6.5a14.71,14.71,0,0,0-25.756,0l-3.591,6.5a9.556,9.556,0,0,0-.812,5.3c.783,5.868,5.293,7.3,8.954,8.882-7.3-8.607,1.811-16.85,3.7-19.026,3.473,8.1,16.207,3.473,16.207,9.261,0,2.894-1.623,8.074-3.249,9.765L61.93,37.11A9.553,9.553,0,0,0,68.378,29.311Z" fill="none" stroke="#45413c" stroke-linecap="round" stroke-linejoin="round"></path><path d="M42.411 27.849 A4.052 4.052 0 1 0 50.515 27.849 A4.052 4.052 0 1 0 42.411 27.849 Z" fill="#00b8f0"></path><path d="M46.46,23.8A4.052,4.052,0,0,0,43.6,30.716l5.729-5.73A4.038,4.038,0,0,0,46.46,23.8Z" fill="#4acfff"></path><path d="M42.411 27.849 A4.052 4.052 0 1 0 50.515 27.849 A4.052 4.052 0 1 0 42.411 27.849 Z" fill="none" stroke="#45413c" stroke-linecap="round" stroke-linejoin="round"></path><path d="M47.6,28.233a1.254,1.254,0,0,0-2.315,0" fill="none" stroke="#45413c" stroke-linecap="round" stroke-linejoin="round"></path><path d="M51.675 27.852 A4.052 4.052 0 1 0 59.779 27.852 A4.052 4.052 0 1 0 51.675 27.852 Z" fill="#00b8f0"></path><path d="M55.724,23.8a4.051,4.051,0,0,0-2.863,6.918l5.729-5.73A4.037,4.037,0,0,0,55.724,23.8Z" fill="#4acfff"></path><path d="M51.675 27.852 A4.052 4.052 0 1 0 59.779 27.852 A4.052 4.052 0 1 0 51.675 27.852 Z" fill="none" stroke="#45413c" stroke-linecap="round" stroke-linejoin="round"></path><path d="M56.867,28.237a1.254,1.254,0,0,0-2.315,0" fill="none" stroke="#45413c" stroke-linecap="round" stroke-linejoin="round"></path></g></svg>