<svg xmlns="http://www.w3.org/2000/svg" version="1.1" xmlns:xlink="http://www.w3.org/1999/xlink" xmlns:svgjs="http://svgjs.com/svgjs" viewBox="0 0 160 160" width="160" height="160"><g transform="matrix(1.6,0,0,1.6,0,0)"><path d="M10.000 52.501 A40.000 40.000 0 1 0 90.000 52.501 A40.000 40.000 0 1 0 10.000 52.501 Z" fill="#c7f0ff"></path><path d="M9.5,52.5a40.5,40.5,0,0,0,81,0,40.961,40.961,0,0,0-.388-5.628H9.888A40.8,40.8,0,0,0,9.5,52.5Z" fill="#4acfff"></path><path d="M90.112 46.874L9.888 46.874" fill="none" stroke="#45413c" stroke-linecap="round" stroke-linejoin="round"></path><path d="M37.323 65.937 A12.713 4.511 0 1 0 62.749 65.937 A12.713 4.511 0 1 0 37.323 65.937 Z" fill="none" stroke="#4aeff7" stroke-linecap="round" stroke-linejoin="round"></path><path d="M29.523 65.937 A20.513 9.046 0 1 0 70.549 65.937 A20.513 9.046 0 1 0 29.523 65.937 Z" fill="none" stroke="#4aeff7" stroke-linecap="round" stroke-linejoin="round"></path><path d="M23.215 65.976 A26.785 13.424 0 1 0 76.785 65.976 A26.785 13.424 0 1 0 23.215 65.976 Z" fill="none" stroke="#4aeff7" stroke-linecap="round" stroke-linejoin="round"></path><path d="M68.844,39.766a18.844,18.844,0,0,1-37.688,0c0-8.21,11.725-24.963,16.677-31.674a2.692,2.692,0,0,1,4.333,0C57.119,14.8,68.844,31.556,68.844,39.766Z" fill="#d9fdff"></path><path d="M31.941,35.371a15.4,15.4,0,0,0-.785,4.395,18.844,18.844,0,0,0,37.688,0,15.368,15.368,0,0,0-.786-4.395,18.836,18.836,0,0,1-36.117,0Z" fill="#b8ecff"></path><path d="M68.844,39.766a18.844,18.844,0,0,1-37.688,0c0-8.21,11.725-24.963,16.677-31.674a2.692,2.692,0,0,1,4.333,0C57.119,14.8,68.844,31.556,68.844,39.766Z" fill="none" stroke="#45413c" stroke-linecap="round" stroke-linejoin="round"></path></g></svg>