<svg xmlns="http://www.w3.org/2000/svg" version="1.1" xmlns:xlink="http://www.w3.org/1999/xlink" xmlns:svgjs="http://svgjs.com/svgjs" viewBox="0 0 160 160" width="160" height="160"><g transform="matrix(1.6,0,0,1.6,0,0)"><path d="M10.000 50.000 A40.000 40.000 0 1 0 90.000 50.000 A40.000 40.000 0 1 0 10.000 50.000 Z" fill="#c7f0ff" stroke="#c7f0ff" stroke-miterlimit="10"></path><path d="M25.934 24.514 L67.829 24.514 L67.829 66.409 L25.934 66.409 Z" fill="#ffffff"></path><path d="M25.934,59.794V64.2a2.2,2.2,0,0,0,2.2,2.205H65.624a2.2,2.2,0,0,0,2.2-2.205v-4.41A2.211,2.211,0,0,1,65.624,62H28.139A2.211,2.211,0,0,1,25.934,59.794Z" fill="#c7f0ff"></path><path d="M25.934 24.514 L67.829 24.514 L67.829 66.409 L25.934 66.409 Z" fill="none" stroke="#45413c" stroke-miterlimit="10"></path><path d="M34.754 78.537 A12.128 1.654 0 1 0 59.010 78.537 A12.128 1.654 0 1 0 34.754 78.537 Z" fill="#45413c" opacity=".15"></path><path d="M45.779,22.309h2.2a1.1,1.1,0,0,1,1.1,1.1v2.205a1.1,1.1,0,0,1-1.1,1.1H45.779a1.1,1.1,0,0,1-1.1-1.1V23.412A1.1,1.1,0,0,1,45.779,22.309Z" fill="#ffffff" stroke="#45413c" stroke-miterlimit="10"></path><path d="M45.779,64.2h2.2a1.1,1.1,0,0,1,1.1,1.1v2.205a1.1,1.1,0,0,1-1.1,1.1H45.779a1.1,1.1,0,0,1-1.1-1.1V65.307A1.1,1.1,0,0,1,45.779,64.2Z" fill="#ffffff" stroke="#45413c" stroke-miterlimit="10"></path><path d="M24.832,22.309h2.2a1.1,1.1,0,0,1,1.1,1.1v2.205a1.1,1.1,0,0,1-1.1,1.1H24.832a1.1,1.1,0,0,1-1.1-1.1V23.412A1.1,1.1,0,0,1,24.832,22.309Z" fill="#ffffff" stroke="#45413c" stroke-miterlimit="10"></path><path d="M24.832,64.2h2.2a1.1,1.1,0,0,1,1.1,1.1v2.205a1.1,1.1,0,0,1-1.1,1.1H24.832a1.1,1.1,0,0,1-1.1-1.1V65.307A1.1,1.1,0,0,1,24.832,64.2Z" fill="#ffffff" stroke="#45413c" stroke-miterlimit="10"></path><path d="M66.727,22.309h2.205a1.1,1.1,0,0,1,1.1,1.1v2.205a1.1,1.1,0,0,1-1.1,1.1H66.727a1.1,1.1,0,0,1-1.1-1.1V23.412A1.1,1.1,0,0,1,66.727,22.309Z" fill="#ffffff" stroke="#45413c" stroke-miterlimit="10"></path><path d="M66.727,64.2h2.2a1.1,1.1,0,0,1,1.1,1.1v2.205a1.1,1.1,0,0,1-1.1,1.1H66.727a1.1,1.1,0,0,1-1.1-1.1V65.307A1.1,1.1,0,0,1,66.727,64.2Z" fill="#ffffff" stroke="#45413c" stroke-miterlimit="10"></path><path d="M66.727,43.257h2.205a1.1,1.1,0,0,1,1.1,1.1v2.205a1.1,1.1,0,0,1-1.1,1.1H66.727a1.1,1.1,0,0,1-1.1-1.1V44.359A1.1,1.1,0,0,1,66.727,43.257Z" fill="#ffffff" stroke="#45413c" stroke-miterlimit="10"></path><path d="M24.832,43.257h2.2a1.1,1.1,0,0,1,1.1,1.1v2.205a1.1,1.1,0,0,1-1.1,1.1H24.832a1.1,1.1,0,0,1-1.1-1.1V44.359A1.1,1.1,0,0,1,24.832,43.257Z" fill="#ffffff" stroke="#45413c" stroke-miterlimit="10"></path><path d="M51.363 57.166 A15.986 15.986 0 1 0 83.335 57.166 A15.986 15.986 0 1 0 51.363 57.166 Z" fill="#6dd627"></path><path d="M51.669,60.288a15.986,15.986,0,1,1,31.385-.129,15.978,15.978,0,0,0-31.384.128" fill="#9ceb60"></path><path d="M51.363 57.166 A15.986 15.986 0 1 0 83.335 57.166 A15.986 15.986 0 1 0 51.363 57.166 Z" fill="none" stroke="#45413c" stroke-linecap="round" stroke-linejoin="round"></path><path d="M69.739,59.521h5.652a2.355,2.355,0,0,0,0-4.709H69.739V49.161a2.355,2.355,0,1,0-4.709,0v5.651H59.379a2.355,2.355,0,1,0,0,4.709H65.03v5.651a2.355,2.355,0,1,0,4.709,0Z" fill="#ffffff" stroke="#46b000" stroke-linecap="round" stroke-linejoin="round"></path></g></svg>