<svg xmlns="http://www.w3.org/2000/svg" version="1.1" xmlns:xlink="http://www.w3.org/1999/xlink" xmlns:svgjs="http://svgjs.com/svgjs" viewBox="0 0 160 160" width="160" height="160"><g transform="matrix(1.6,0,0,1.6,0,0)"><path d="M12.012 50.000 A40.000 40.000 0 1 0 92.012 50.000 A40.000 40.000 0 1 0 12.012 50.000 Z" fill="#c7f0ff" stroke="#c7f0ff" stroke-miterlimit="10"></path><path d="M68.726,31.653l2.561-5.122a.824.824,0,0,1,1.475,0l2.561,5.122Z" fill="#c7f0ff" stroke="#45413c" stroke-linecap="round" stroke-linejoin="round"></path><path d="M62.713,36.333,61.1,29.583a1,1,0,0,1,1.37-1.15l6.368,2.761Z" fill="#c7f0ff" stroke="#45413c" stroke-linecap="round" stroke-linejoin="round"></path><path d="M62.091,43.727,55.84,39.091a.659.659,0,0,1,.2-1.162L63.5,35.71Z" fill="#c7f0ff" stroke="#45413c" stroke-linecap="round" stroke-linejoin="round"></path><path d="M80.571,35.71l6.774,2.014a1.018,1.018,0,0,1,.316,1.793l-5.676,4.21Z" fill="#c7f0ff" stroke="#45413c" stroke-linecap="round" stroke-linejoin="round"></path><path d="M74.726,31.41l6.368-2.76a1,1,0,0,1,1.37,1.149L80.851,36.55Z" fill="#c7f0ff" stroke="#45413c" stroke-linecap="round" stroke-linejoin="round"></path><path d="M61.072 41.322 A10.556 10.556 0 1 0 82.184 41.322 A10.556 10.556 0 1 0 61.072 41.322 Z" fill="#c7f0ff"></path><path d="M67.670 41.322 A3.958 3.958 0 1 0 75.586 41.322 A3.958 3.958 0 1 0 67.670 41.322 Z" fill="#00b8f0"></path><path d="M75.356,42.659a3.959,3.959,0,1,0-7.455,0l.006,0a3.943,3.943,0,0,1,7.442,0" fill="#4acfff"></path><path d="M67.670 41.322 A3.958 3.958 0 1 0 75.586 41.322 A3.958 3.958 0 1 0 67.670 41.322 Z" fill="none" stroke="#45413c" stroke-linecap="round" stroke-linejoin="round"></path><path d="M61.221,43.1a10.556,10.556,0,1,1,20.963-1.773A10.668,10.668,0,0,1,82,43.3h0a10.558,10.558,0,0,0-20.737.005" fill="#c7f0ff"></path><path d="M61.072 41.322 A10.556 10.556 0 1 0 82.184 41.322 A10.556 10.556 0 1 0 61.072 41.322 Z" fill="none" stroke="#45413c" stroke-linecap="round" stroke-linejoin="round"></path><path d="M90.1,50.593a2.639,2.639,0,0,1-2.639,2.639H55.8a2.64,2.64,0,0,1-2.639-2.639V48.768a2.639,2.639,0,0,1,2.086-2.58L86.91,39.4a2.639,2.639,0,0,1,3.191,2.58Z" fill="#00b8f0"></path><path d="M86.908,39.405A2.635,2.635,0,0,1,90.1,41.978V45.33a2.635,2.635,0,0,0-3.193-2.587l-31.667,6.8a2.58,2.58,0,0,0-1.966,1.834,2.479,2.479,0,0,1-.119-.779V48.773a2.643,2.643,0,0,1,2.085-2.586Z" fill="#4acfff"></path><path d="M90.1,50.593a2.639,2.639,0,0,1-2.639,2.639H55.8a2.64,2.64,0,0,1-2.639-2.639V48.768a2.639,2.639,0,0,1,2.086-2.58L86.91,39.4a2.639,2.639,0,0,1,3.191,2.58Z" fill="none" stroke="#45413c" stroke-linecap="round" stroke-linejoin="round"></path><path d="M51.837 54.065 A20.627 1.821 0 1 0 93.091 54.065 A20.627 1.821 0 1 0 51.837 54.065 Z" fill="#45413c" opacity=".15"></path><path d="M82.491 46.635 A6.597 6.597 0 1 0 95.685 46.635 A6.597 6.597 0 1 0 82.491 46.635 Z" fill="#656769"></path><path d="M82.8,48.619a6.6,6.6,0,1,1,12.585.008h0a6.6,6.6,0,0,0-12.585-.01" fill="#87898c"></path><path d="M82.491 46.635 A6.597 6.597 0 1 0 95.685 46.635 A6.597 6.597 0 1 0 82.491 46.635 Z" fill="none" stroke="#45413c" stroke-linecap="round" stroke-linejoin="round"></path><path d="M86.449 46.635 A2.639 2.639 0 1 0 91.727 46.635 A2.639 2.639 0 1 0 86.449 46.635 Z" fill="#f0f0f0"></path><path d="M91.368,47.964a2.639,2.639,0,1,0-4.56,0,2.634,2.634,0,0,1,4.56,0Z" fill="#e0e0e0"></path><path d="M86.449 46.635 A2.639 2.639 0 1 0 91.727 46.635 A2.639 2.639 0 1 0 86.449 46.635 Z" fill="none" stroke="#45413c" stroke-linecap="round" stroke-linejoin="round"></path><path d="M68.370 47.294 A5.278 5.278 0 1 0 78.926 47.294 A5.278 5.278 0 1 0 68.370 47.294 Z" fill="#656769"></path><path d="M68.613,48.882a5.277,5.277,0,1,1,10.068.006h0a5.278,5.278,0,0,0-10.067-.008" fill="#87898c"></path><path d="M68.370 47.294 A5.278 5.278 0 1 0 78.926 47.294 A5.278 5.278 0 1 0 68.370 47.294 Z" fill="none" stroke="#45413c" stroke-linecap="round" stroke-linejoin="round"></path><path d="M71.537 47.294 A2.111 2.111 0 1 0 75.759 47.294 A2.111 2.111 0 1 0 71.537 47.294 Z" fill="#f0f0f0"></path><path d="M75.471,48.358a2.111,2.111,0,1,0-3.648,0,2.107,2.107,0,0,1,3.648,0Z" fill="#e0e0e0"></path><path d="M71.537 47.294 A2.111 2.111 0 1 0 75.759 47.294 A2.111 2.111 0 1 0 71.537 47.294 Z" fill="none" stroke="#45413c" stroke-linecap="round" stroke-linejoin="round"></path><path d="M56.235 48.614 A3.958 3.958 0 1 0 64.151 48.614 A3.958 3.958 0 1 0 56.235 48.614 Z" fill="#656769"></path><path d="M56.417,49.8a3.959,3.959,0,1,1,7.551,0h0a3.958,3.958,0,0,0-7.55-.006" fill="#87898c"></path><path d="M56.235 48.614 A3.958 3.958 0 1 0 64.151 48.614 A3.958 3.958 0 1 0 56.235 48.614 Z" fill="none" stroke="#45413c" stroke-linecap="round" stroke-linejoin="round"></path><path d="M58.610 48.614 A1.583 1.583 0 1 0 61.776 48.614 A1.583 1.583 0 1 0 58.610 48.614 Z" fill="#f0f0f0"></path><path d="M61.561,49.412a1.583,1.583,0,1,0-2.736,0,1.58,1.58,0,0,1,2.736,0Z" fill="#e0e0e0"></path><path d="M58.610 48.614 A1.583 1.583 0 1 0 61.776 48.614 A1.583 1.583 0 1 0 58.610 48.614 Z" fill="none" stroke="#45413c" stroke-linecap="round" stroke-linejoin="round"></path><path d="M49.059,27.305l4.555,1.2a.833.833,0,0,1,.128,1.565L49.444,32Z" fill="#c7f0ff" stroke="#45413c" stroke-linecap="round" stroke-linejoin="round"></path><path d="M20.268 40.596H41.919V43.927H20.268z" fill="#f0f0f0" stroke="#45413c" stroke-linecap="round" stroke-linejoin="round" transform="translate(-21.249 38.634) rotate(-49.692)"></path><path d="M20.969 49.983 A3.331 3.331 0 1 0 27.631 49.983 A3.331 3.331 0 1 0 20.969 49.983 Z" fill="#8ca4b8" stroke="#45413c" stroke-linecap="round" stroke-linejoin="round"></path><path d="M43.825,22.349l5.318-2.272a.833.833,0,0,1,1.136.964l-1.374,5.617Z" fill="#c7f0ff" stroke="#45413c" stroke-linecap="round" stroke-linejoin="round"></path><path d="M33.411,27.951l-2.272-5.318A.833.833,0,0,1,32.1,21.5l5.617,1.374Z" fill="#c7f0ff" stroke="#45413c" stroke-linecap="round" stroke-linejoin="round"></path><path d="M49.238,32.494l2.272,5.318a.833.833,0,0,1-.964,1.136l-5.617-1.374Z" fill="#c7f0ff" stroke="#45413c" stroke-linecap="round" stroke-linejoin="round"></path><path d="M38.435,22.54l1.2-4.555a.833.833,0,0,1,1.565-.128l1.928,4.3Z" fill="#c7f0ff" stroke="#45413c" stroke-linecap="round" stroke-linejoin="round"></path><path d="M34.1,34.172l-5.748-1.139a.833.833,0,0,1-.226-1.554l5.187-2.727Z" fill="#c7f0ff" stroke="#45413c" stroke-linecap="round" stroke-linejoin="round"></path><path d="M44.228,37.855l-1.2,4.555a.833.833,0,0,1-1.565.128l-1.928-4.3Z" fill="#c7f0ff" stroke="#45413c" stroke-linecap="round" stroke-linejoin="round"></path><path d="M33.001 30.196 A8.327 8.327 0 1 0 49.655 30.196 A8.327 8.327 0 1 0 33.001 30.196 Z" fill="#c7f0ff"></path><path d="M33.385 27.681L33.386 27.685 33.387 27.681 33.385 27.681z" fill="#c0dceb"></path><path d="M49.272,27.692h0a8.306,8.306,0,0,1-5.453,5.433,2.489,2.489,0,0,0-4.974,0,8.31,8.31,0,0,1-5.455-5.441,8.327,8.327,0,1,0,15.886.007Z" fill="#c0dceb"></path><path d="M33.001 30.196 A8.327 8.327 0 1 0 49.655 30.196 A8.327 8.327 0 1 0 33.001 30.196 Z" fill="none" stroke="#45413c" stroke-linecap="round" stroke-linejoin="round"></path><path d="M38.829 30.198 A2.498 2.498 0 1 0 43.825 30.198 A2.498 2.498 0 1 0 38.829 30.198 Z" fill="#c7f0ff" stroke="#45413c" stroke-linecap="round" stroke-linejoin="round"></path><path d="M45.118,66.637H13.475V54.979a5,5,0,0,1,5-5H40.122a5,5,0,0,1,5,5Z" fill="#ff6242"></path><path d="M45.118,59.759v-4.78a5,5,0,0,0-5-5H18.471a5,5,0,0,0-5,5v4.78a4.99,4.99,0,0,1,5-5h21.65A4.991,4.991,0,0,1,45.118,59.759Z" fill="#ff866e"></path><path d="M45.118,66.637H13.475V54.979a5,5,0,0,1,5-5H40.122a5,5,0,0,1,5,5Z" fill="none" stroke="#45413c" stroke-linecap="round" stroke-linejoin="round"></path><path d="M45.118,61.641a6.662,6.662,0,1,1,0,13.323L12.68,74.93a9.16,9.16,0,1,1,1.59-18.251Z" fill="#656769"></path><path d="M4.736,68.557A9.164,9.164,0,0,1,14.27,56.679l30.848,4.962a6.665,6.665,0,0,1,6.3,8.829l-.045.128a6.614,6.614,0,0,0-6.257-4.411L14.274,61.224A9.162,9.162,0,0,0,4.605,68.1" fill="#525252"></path><path d="M7.645 75.997 A26.036 2.298 0 1 0 59.717 75.997 A26.036 2.298 0 1 0 7.645 75.997 Z" fill="#45413c" opacity=".15"></path><path d="M45.118,61.641a6.662,6.662,0,1,1,0,13.323L12.68,74.93a9.16,9.16,0,1,1,1.59-18.251Z" fill="none" stroke="#45413c" stroke-linecap="round" stroke-linejoin="round"></path><path d="M38.456 68.302 A6.662 6.662 0 1 0 51.780 68.302 A6.662 6.662 0 1 0 38.456 68.302 Z" fill="#e0e0e0"></path><path d="M63.993,74.319a.333.333,0,0,1-.118.645H53.445A1.665,1.665,0,0,1,51.78,73.3V64.971a1.665,1.665,0,0,1,1.665-1.665h1.77a1.662,1.662,0,0,1,1.651,1.46C57.624,70.864,61.374,73.331,63.993,74.319Z" fill="#ff6242" stroke="#45413c" stroke-linecap="round" stroke-linejoin="round"></path><path d="M4.314 65.802 A9.160 9.160 0 1 0 22.634 65.802 A9.160 9.160 0 1 0 4.314 65.802 Z" fill="#e0e0e0"></path><path d="M4.736,68.557a9.16,9.16,0,1,1,17.473.012h0A9.161,9.161,0,0,0,4.74,68.556" fill="#bdbec0"></path><path d="M4.314 65.802 A9.160 9.160 0 1 0 22.634 65.802 A9.160 9.160 0 1 0 4.314 65.802 Z" fill="none" stroke="#45413c" stroke-linecap="round" stroke-linejoin="round"></path><path d="M10.143 67.868 A3.331 3.331 0 1 0 16.805 67.868 A3.331 3.331 0 1 0 10.143 67.868 Z" fill="#bdbec0"></path><path d="M10.143 65.802 A3.331 3.331 0 1 0 16.805 65.802 A3.331 3.331 0 1 0 10.143 65.802 Z" fill="#f0f0f0"></path><path d="M16.352,67.481a3.331,3.331,0,1,0-5.756,0,3.325,3.325,0,0,1,5.756,0Z" fill="#ffffff"></path><path d="M10.143 65.802 A3.331 3.331 0 1 0 16.805 65.802 A3.331 3.331 0 1 0 10.143 65.802 Z" fill="none" stroke="#45413c" stroke-linecap="round" stroke-linejoin="round"></path><path d="M51.419,70.47a6.662,6.662,0,1,0-12.6,0,6.647,6.647,0,0,1,12.6,0Z" fill="#bdbec0"></path><path d="M38.456 68.302 A6.662 6.662 0 1 0 51.780 68.302 A6.662 6.662 0 1 0 38.456 68.302 Z" fill="none" stroke="#45413c" stroke-linecap="round" stroke-linejoin="round"></path><path d="M42.620 70.054 A2.498 2.498 0 1 0 47.616 70.054 A2.498 2.498 0 1 0 42.620 70.054 Z" fill="#bdbec0"></path><path d="M42.620 68.302 A2.498 2.498 0 1 0 47.616 68.302 A2.498 2.498 0 1 0 42.620 68.302 Z" fill="#f0f0f0" stroke="#45413c" stroke-linecap="round" stroke-linejoin="round"></path><path d="M45.118,56.644V54.979a5,5,0,0,0-5-5H32.627v1.665a5,5,0,0,0,5,5Z" fill="#525252" stroke="#45413c" stroke-linecap="round" stroke-linejoin="round"></path><path d="M40.728,54.363a1.332,1.332,0,0,1-1.884-1.884Z" fill="#ffffff" stroke="#ffffff" stroke-linecap="round" stroke-linejoin="round"></path></g></svg>