<svg xmlns="http://www.w3.org/2000/svg" version="1.1" xmlns:xlink="http://www.w3.org/1999/xlink" xmlns:svgjs="http://svgjs.com/svgjs" viewBox="0 0 160 160" width="160" height="160"><g transform="matrix(1.6,0,0,1.6,0,0)"><path d="M10.000 50.000 A40.000 40.000 0 1 0 90.000 50.000 A40.000 40.000 0 1 0 10.000 50.000 Z" fill="#c7f0ff" stroke="#c7f0ff" stroke-miterlimit="10"></path><path d="M23.188 48.165 A26.464 26.464 0 1 0 76.116 48.165 A26.464 26.464 0 1 0 23.188 48.165 Z" fill="#ffffff"></path><path d="M23.363,45.111a26.776,26.776,0,0,0-.174,3.054,26.464,26.464,0,1,0,52.752-3.054,26.454,26.454,0,0,1-52.578,0Z" fill="#c7f0ff"></path><path d="M35.843 82.844 A14.435 1.804 0 1 0 64.713 82.844 A14.435 1.804 0 1 0 35.843 82.844 Z" fill="#45413c" opacity=".15"></path><path d="M23.188 48.165 A26.464 26.464 0 1 0 76.116 48.165 A26.464 26.464 0 1 0 23.188 48.165 Z" fill="none" stroke="#45413c" stroke-miterlimit="10"></path><path d="M42.435 37.339 A7.217 7.217 0 1 0 56.869 37.339 A7.217 7.217 0 1 0 42.435 37.339 Z" fill="#ff6242"></path><path d="M55.823,33.593a7.218,7.218,0,1,0-9.917,9.916,7.107,7.107,0,0,1-1.065-3.764,7.223,7.223,0,0,1,7.217-7.218A7.114,7.114,0,0,1,55.823,33.593Z" fill="#e04122"></path><path d="M42.435 37.339 A7.217 7.217 0 1 0 56.869 37.339 A7.217 7.217 0 1 0 42.435 37.339 Z" fill="none" stroke="#45413c" stroke-miterlimit="10"></path><path d="M52.853 55.382 A7.217 7.217 0 1 0 67.287 55.382 A7.217 7.217 0 1 0 52.853 55.382 Z" fill="#00b8f0"></path><path d="M66.24,51.636a7.218,7.218,0,1,0-9.916,9.917,7.114,7.114,0,0,1-1.066-3.765,7.223,7.223,0,0,1,7.217-7.217A7.108,7.108,0,0,1,66.24,51.636Z" fill="#009fd9"></path><path d="M52.853 55.382 A7.217 7.217 0 1 0 67.287 55.382 A7.217 7.217 0 1 0 52.853 55.382 Z" fill="none" stroke="#45413c" stroke-miterlimit="10"></path><path d="M32.018 55.380 A7.217 7.217 0 1 0 46.452 55.380 A7.217 7.217 0 1 0 32.018 55.380 Z" fill="#ffe500"></path><path d="M45.405,51.634a7.218,7.218,0,1,0-9.916,9.916,7.107,7.107,0,0,1-1.066-3.764,7.224,7.224,0,0,1,7.218-7.218A7.107,7.107,0,0,1,45.405,51.634Z" fill="#ebcb00"></path><path d="M32.018 55.380 A7.217 7.217 0 1 0 46.452 55.380 A7.217 7.217 0 1 0 32.018 55.380 Z" fill="none" stroke="#45413c" stroke-miterlimit="10"></path></g></svg>