<svg width="112" height="112" viewBox="0 0 112 112" fill="none" xmlns="http://www.w3.org/2000/svg">
<path d="M0 56C0 70.8521 5.89998 85.0959 16.402 95.598C26.9041 106.1 41.1479 112 56 112C70.8521 112 85.0959 106.1 95.598 95.598C106.1 85.0959 112 70.8521 112 56C112 41.1479 106.1 26.9041 95.598 16.402C85.0959 5.89998 70.8521 0 56 0C41.1479 0 26.9041 5.89998 16.402 16.402C5.89998 26.9041 0 41.1479 0 56V56Z" fill="#C7F0FF"/>
<path d="M18.4634 53.431C18.4634 63.2572 22.3668 72.6809 29.315 79.629C36.2631 86.5772 45.6868 90.4806 55.513 90.4806C65.3391 90.4806 74.7629 86.5772 81.711 79.629C88.6592 72.6809 92.5626 63.2572 92.5626 53.431C92.5626 43.6048 88.6592 34.1811 81.711 27.233C74.7629 20.2848 65.3391 16.3814 55.513 16.3814C45.6868 16.3814 36.2631 20.2848 29.315 27.233C22.3668 34.1811 18.4634 43.6048 18.4634 53.431V53.431Z" fill="white"/>
<path d="M18.7084 49.1554C18.5458 50.5748 18.4645 52.0023 18.4648 53.431C18.4662 58.4759 19.4978 63.4675 21.4965 68.0996C23.4952 72.7317 26.4189 76.9068 30.0883 80.369C33.7577 83.8312 38.0956 86.5076 42.8359 88.234C47.5763 89.9604 52.6193 90.7005 57.6558 90.4089C62.6923 90.1173 67.6162 88.8002 72.1257 86.5383C76.6351 84.2764 80.6351 81.1174 83.8805 77.2548C87.1258 73.3923 89.5482 68.9077 90.999 64.0758C92.4498 59.244 92.8985 54.1668 92.3176 49.1554C91.302 58.2059 86.9873 66.5649 80.1978 72.6351C73.4084 78.7053 64.6204 82.061 55.513 82.061C46.4057 82.061 37.6177 78.7053 30.8283 72.6351C24.0388 66.5649 19.7241 58.2059 18.7084 49.1554V49.1554Z" fill="#E8F4FA"/>
<path opacity="0.15" d="M36.1802 101.982C36.1802 102.313 36.7029 102.642 37.7185 102.948C38.7341 103.255 40.2227 103.533 42.0993 103.767C43.9758 104.002 46.2037 104.188 48.6555 104.315C51.1074 104.442 53.7353 104.507 56.3892 104.507C59.0431 104.507 61.671 104.442 64.1228 104.315C66.5747 104.188 68.8025 104.002 70.6791 103.767C72.5557 103.533 74.0443 103.255 75.0599 102.948C76.0755 102.642 76.5982 102.313 76.5982 101.982C76.5982 101.65 76.0755 101.322 75.0599 101.015C74.0443 100.709 72.5557 100.43 70.6791 100.196C68.8025 99.9612 66.5747 99.7752 64.1228 99.6482C61.671 99.5213 59.0431 99.456 56.3892 99.456C53.7353 99.456 51.1074 99.5213 48.6555 99.6482C46.2037 99.7752 43.9758 99.9612 42.0993 100.196C40.2227 100.43 38.7341 100.709 37.7185 101.015C36.7029 101.322 36.1802 101.65 36.1802 101.982V101.982Z" fill="#45413C"/>
<path d="M18.4634 53.431C18.4634 63.2572 22.3668 72.6809 29.315 79.629C36.2631 86.5772 45.6868 90.4806 55.513 90.4806C65.3391 90.4806 74.7629 86.5772 81.711 79.629C88.6592 72.6809 92.5626 63.2572 92.5626 53.431C92.5626 43.6048 88.6592 34.1811 81.711 27.233C74.7629 20.2848 65.3391 16.3814 55.513 16.3814C45.6868 16.3814 36.2631 20.2848 29.315 27.233C22.3668 34.1811 18.4634 43.6048 18.4634 53.431V53.431Z" stroke="#45413C" stroke-width="1.4" stroke-miterlimit="10"/>
<path d="M46 54.1038C46 55.4307 46.2613 56.7445 46.7691 57.9704C47.2769 59.1962 48.0211 60.31 48.9593 61.2483C49.8976 62.1865 51.0114 62.9307 52.2372 63.4385C53.4631 63.9463 54.7769 64.2076 56.1038 64.2076C57.4306 64.2076 58.7445 63.9463 59.9704 63.4385C61.1962 62.9307 62.31 62.1865 63.2483 61.2483C64.1865 60.31 64.9307 59.1962 65.4385 57.9704C65.9463 56.7445 66.2076 55.4307 66.2076 54.1038C66.2076 52.777 65.9463 51.4631 65.4385 50.2372C64.9307 49.0114 64.1865 47.8976 63.2483 46.9593C62.31 46.0211 61.1962 45.2769 59.9704 44.7691C58.7445 44.2613 57.4306 44 56.1038 44C54.7769 44 53.4631 44.2613 52.2372 44.7691C51.0114 45.2769 49.8976 46.0211 48.9593 46.9593C48.0211 47.8976 47.2769 49.0114 46.7691 50.2372C46.2613 51.4631 46 52.777 46 54.1038V54.1038Z" fill="#FF6242"/>
<path d="M64.7428 48.8594C63.948 47.5509 62.8662 46.4402 61.5793 45.611C60.2923 44.7818 58.8337 44.2559 57.3137 44.0729C55.7938 43.89 54.2521 44.0548 52.8051 44.5549C51.3581 45.055 50.0437 45.8774 48.9611 46.9599C47.8785 48.0424 47.056 49.3567 46.5557 50.8036C46.0554 52.2506 45.8905 53.7922 46.0733 55.3122C46.2561 56.8323 46.7818 58.2909 47.6109 59.5779C48.44 60.865 49.5506 61.9468 50.859 62.7418C49.8789 61.1593 49.3623 59.3336 49.368 57.4722C49.3699 54.7929 50.4349 52.2239 52.3293 50.3293C54.2237 48.4346 56.7926 47.3692 59.4718 47.367C61.3338 47.362 63.1599 47.879 64.7428 48.8594Z" fill="#E04122"/>
<path d="M46 54.1038C46 55.4307 46.2613 56.7445 46.7691 57.9704C47.2769 59.1962 48.0211 60.31 48.9593 61.2483C49.8976 62.1865 51.0114 62.9307 52.2372 63.4385C53.4631 63.9463 54.7769 64.2076 56.1038 64.2076C57.4306 64.2076 58.7445 63.9463 59.9704 63.4385C61.1962 62.9307 62.31 62.1865 63.2483 61.2483C64.1865 60.31 64.9307 59.1962 65.4385 57.9704C65.9463 56.7445 66.2076 55.4307 66.2076 54.1038C66.2076 52.777 65.9463 51.4631 65.4385 50.2372C64.9307 49.0114 64.1865 47.8976 63.2483 46.9593C62.31 46.0211 61.1962 45.2769 59.9704 44.7691C58.7445 44.2613 57.4306 44 56.1038 44C54.7769 44 53.4631 44.2613 52.2372 44.7691C51.0114 45.2769 49.8976 46.0211 48.9593 46.9593C48.0211 47.8976 47.2769 49.0114 46.7691 50.2372C46.2613 51.4631 46 52.777 46 54.1038V54.1038Z" stroke="#45413C" stroke-width="1.4" stroke-miterlimit="10"/>
</svg>
