<svg xmlns="http://www.w3.org/2000/svg" version="1.1" xmlns:xlink="http://www.w3.org/1999/xlink" xmlns:svgjs="http://svgjs.com/svgjs" viewBox="0 0 160 160" width="160" height="160"><g transform="matrix(1.6,0,0,1.6,0,0)"><path d="M9.875 50.000 A40.000 40.000 0 1 0 89.875 50.000 A40.000 40.000 0 1 0 9.875 50.000 Z" fill="#c7f0ff" stroke="#c7f0ff" stroke-miterlimit="10"></path><path d="M55.408,13.82a37,37,0,0,0-11.092,0" fill="none" stroke="#45413c" stroke-linecap="round" stroke-linejoin="round"></path><path d="M15.921,36.286a36.539,36.539,0,0,1,4.723-8.328" fill="none" stroke="#45413c" stroke-linecap="round" stroke-linejoin="round"></path><path d="M55.408,86.18a37,37,0,0,1-11.092,0" fill="none" stroke="#45413c" stroke-linecap="round" stroke-linejoin="round"></path><path d="M15.921,63.714a36.539,36.539,0,0,0,4.723,8.328" fill="none" stroke="#45413c" stroke-linecap="round" stroke-linejoin="round"></path><path d="M83.8,36.286a36.58,36.58,0,0,0-4.724-8.328" fill="none" stroke="#45413c" stroke-linecap="round" stroke-linejoin="round"></path><path d="M83.8,63.714a36.58,36.58,0,0,1-4.724,8.328" fill="none" stroke="#45413c" stroke-linecap="round" stroke-linejoin="round"></path><path d="M25.786 50L32.762 50" fill="none" stroke="#45413c" stroke-linecap="round" stroke-linejoin="round"></path><path d="M36.08 27.049L40.293 34.065" fill="none" stroke="#45413c" stroke-linecap="round" stroke-linejoin="round"></path><path d="M36.08 72.951L40.293 65.935" fill="none" stroke="#45413c" stroke-linecap="round" stroke-linejoin="round"></path><path d="M73.938 50L66.962 50" fill="none" stroke="#45413c" stroke-linecap="round" stroke-linejoin="round"></path><path d="M63.644 27.049L59.431 34.065" fill="none" stroke="#45413c" stroke-linecap="round" stroke-linejoin="round"></path><path d="M63.644 72.951L59.431 65.935" fill="none" stroke="#45413c" stroke-linecap="round" stroke-linejoin="round"></path><path d="M23.155,56.747a1.373,1.373,0,0,1-1.369,1.369H4.678A1.373,1.373,0,0,1,3.31,56.747V45.114H23.155Z" fill="#4acfff" stroke="#45413c" stroke-linecap="round" stroke-linejoin="round"></path><path d="M23.155,45.114H3.31V43.253a1.373,1.373,0,0,1,1.368-1.369H21.786a1.373,1.373,0,0,1,1.369,1.369Z" fill="#ffffff" stroke="#45413c" stroke-linecap="round" stroke-linejoin="round"></path><path d="M40.885,22.948a1.373,1.373,0,0,1-1.369,1.369H22.408a1.373,1.373,0,0,1-1.368-1.369V11.315H40.885Z" fill="#4acfff" stroke="#45413c" stroke-linecap="round" stroke-linejoin="round"></path><path d="M40.885,11.315H21.04V9.454a1.373,1.373,0,0,1,1.368-1.369H39.516a1.373,1.373,0,0,1,1.369,1.369Z" fill="#ffffff" stroke="#45413c" stroke-linecap="round" stroke-linejoin="round"></path><path d="M39.782,90.546a1.373,1.373,0,0,1-1.368,1.369H21.306a1.373,1.373,0,0,1-1.369-1.369V78.913H39.782Z" fill="#4acfff" stroke="#45413c" stroke-linecap="round" stroke-linejoin="round"></path><path d="M39.782,78.913H19.937V77.052a1.373,1.373,0,0,1,1.369-1.369H38.414a1.373,1.373,0,0,1,1.368,1.369Z" fill="#ffffff" stroke="#45413c" stroke-linecap="round" stroke-linejoin="round"></path><path d="M76.845,56.747a1.373,1.373,0,0,0,1.369,1.369H95.322a1.373,1.373,0,0,0,1.368-1.369V45.114H76.845Z" fill="#4acfff" stroke="#45413c" stroke-linecap="round" stroke-linejoin="round"></path><path d="M76.845,45.114H96.69V43.253a1.373,1.373,0,0,0-1.368-1.369H78.214a1.373,1.373,0,0,0-1.369,1.369Z" fill="#ffffff" stroke="#45413c" stroke-linecap="round" stroke-linejoin="round"></path><path d="M58.84,22.948a1.372,1.372,0,0,0,1.368,1.369H77.316a1.373,1.373,0,0,0,1.369-1.369V11.315H58.84Z" fill="#4acfff" stroke="#45413c" stroke-linecap="round" stroke-linejoin="round"></path><path d="M58.84,11.315H78.685V9.454a1.373,1.373,0,0,0-1.369-1.369H60.208A1.372,1.372,0,0,0,58.84,9.454Z" fill="#ffffff" stroke="#45413c" stroke-linecap="round" stroke-linejoin="round"></path><path d="M59.942,90.546a1.373,1.373,0,0,0,1.369,1.369H78.418a1.373,1.373,0,0,0,1.369-1.369V78.913H59.942Z" fill="#4acfff" stroke="#45413c" stroke-linecap="round" stroke-linejoin="round"></path><path d="M59.942,78.913H79.787V77.052a1.373,1.373,0,0,0-1.369-1.369H61.311a1.373,1.373,0,0,0-1.369,1.369Z" fill="#ffffff" stroke="#45413c" stroke-linecap="round" stroke-linejoin="round"></path><path d="M34.978 36.770 L64.745 36.770 L64.745 63.230 L34.978 63.230 Z" fill="#656769"></path><path d="M64.746,39.526H34.978v-.551a2.205,2.205,0,0,1,2.2-2.2H62.541a2.2,2.2,0,0,1,2.2,2.2Z" fill="#87898c"></path><path d="M38.286 58.82L44.901 58.82" fill="none" stroke="#45413c" stroke-linecap="round" stroke-linejoin="round"></path><path d="M38.286 50L44.901 50" fill="none" stroke="#45413c" stroke-linecap="round" stroke-linejoin="round"></path><path d="M38.286 41.18L44.901 41.18" fill="none" stroke="#45413c" stroke-linecap="round" stroke-linejoin="round"></path><path d="M59.233 41.180 A1.654 1.654 0 1 0 62.541 41.180 A1.654 1.654 0 1 0 59.233 41.180 Z" fill="#4acfff" stroke="#45413c" stroke-linecap="round" stroke-linejoin="round"></path><path d="M53.721 41.180 A1.654 1.654 0 1 0 57.029 41.180 A1.654 1.654 0 1 0 53.721 41.180 Z" fill="#00f5bc" stroke="#45413c" stroke-linecap="round" stroke-linejoin="round"></path><path d="M59.233 50.000 A1.654 1.654 0 1 0 62.541 50.000 A1.654 1.654 0 1 0 59.233 50.000 Z" fill="#4acfff" stroke="#45413c" stroke-linecap="round" stroke-linejoin="round"></path><path d="M53.721 50.000 A1.654 1.654 0 1 0 57.029 50.000 A1.654 1.654 0 1 0 53.721 50.000 Z" fill="#00f5bc" stroke="#45413c" stroke-linecap="round" stroke-linejoin="round"></path><path d="M59.233 58.820 A1.654 1.654 0 1 0 62.541 58.820 A1.654 1.654 0 1 0 59.233 58.820 Z" fill="#4acfff" stroke="#45413c" stroke-linecap="round" stroke-linejoin="round"></path><path d="M53.721 58.820 A1.654 1.654 0 1 0 57.029 58.820 A1.654 1.654 0 1 0 53.721 58.820 Z" fill="#00f5bc" stroke="#45413c" stroke-linecap="round" stroke-linejoin="round"></path><path d="M62.541,63.23H37.183a2.205,2.205,0,0,1-2.2-2.2V54.41H64.746v6.615A2.2,2.2,0,0,1,62.541,63.23Z" fill="none" stroke="#45413c" stroke-linecap="round" stroke-linejoin="round"></path><path d="M34.978 45.59H64.745V54.410000000000004H34.978z" fill="none" stroke="#45413c" stroke-linecap="round" stroke-linejoin="round"></path><path d="M64.746,45.59H34.978V38.975a2.205,2.205,0,0,1,2.2-2.2H62.541a2.2,2.2,0,0,1,2.2,2.2Z" fill="none" stroke="#45413c" stroke-linecap="round" stroke-linejoin="round"></path></g></svg>