<svg width="112" height="112" fill="none" xmlns="http://www.w3.org/2000/svg">
  <path d="M0 56a56.0003 56.0003 0 0056 56 56.0003 56.0003 0 0056-56A56.0003 56.0003 0 0056 0 56.0003 56.0003 0 000 56z" fill="#C7F0FF"/>
  <g clip-path="url(#clip0)">
    <path d="M83.8463 40.4165c0-.056-.011-.11-.0205-.1645-.004-.0225-.003-.0455-.009-.068a1.0062 1.0062 0 00-.247-.456c-.0165-.017-.036-.0295-.0535-.045-.0395-.0365-.0775-.0745-.1235-.1045-.0095-.006-.0205-.009-.03-.0145-.0075-.004-.0115-.0105-.0185-.014L56.5178 24.1455c-.024-.0145-.0495-.0255-.0735-.038-.0195-.01-.038-.0195-.0585-.028-.0175-.0075-.0335-.015-.0515-.0215-.0095-.003-.0185-.0045-.028-.0075-.019-.0065-.039-.011-.0585-.016-.0165-.0045-.0315-.01-.0485-.0135-.0105-.002-.021-.0045-.0315-.006-.0215-.0035-.043-.004-.0645-.0065-.033-.003-.0665-.008-.1-.0085h-.003c-.0015 0-.003.0005-.005.0005-.0285 0-.057.0045-.0855.007-.0275.0025-.055.003-.082.008-.0105.0015-.02.004-.0305.006-.012.0025-.023.007-.035.01-.019.0045-.038.01-.057.0155-.0145.0045-.029.007-.0435.012-.0185.0065-.036.0155-.0545.023-.014.006-.028.013-.042.02-.0285.0135-.0575.0265-.0845.043l-26.826 15.4045c-.008.0045-.013.0115-.021.0165-.0085.005-.0185.0075-.027.013-.0415.027-.0755.0625-.112.095-.022.0195-.047.0355-.067.0565-.056.0595-.104.125-.1445.196-.0025.005-.007.0085-.0095.0135a.9866.9866 0 00-.092.2425c-.0065.027-.0065.0555-.0105.083-.008.0505-.019.1-.019.1515v31.0835c0 .003.0005.0065.0005.0085 0 .0225.0035.045.0055.0675.001.0185.003.037.0055.0555.0025.0175.0025.035.0055.0525.0065.035.018.069.0285.103v.0005c.004.0125.0065.027.011.04.0025.0075.0035.0145.0065.0225.02.0525.044.1045.073.154.0025.0045.006.0085.0085.012.0005.001.001.0025.002.004.003.0055.008.01.0115.0145l.0015.0025c.0235.0365.0475.073.076.107.01.0115.022.0215.0325.033.0125.0125.0255.026.039.038.017.0165.032.0345.0505.0505.021.018.045.031.068.048.015.0105.029.022.0445.0315.0105.0065.0195.014.0305.0205l26.843 15.497.003.003a.9987.9987 0 00.5.134h.001a1 1 0 00.5-.134l.003-.003 26.844-15.497h.001c.0105-.0065.0185-.0135.0285-.0195.0175-.011.033-.0235.051-.035.0215-.0155.044-.0295.0645-.0455.0165-.0145.031-.031.047-.0475.0145-.0135.03-.0285.044-.043.01-.011.022-.0205.031-.032.008-.009.0125-.019.0205-.0285a1.4628 1.4628 0 00.0525-.0755c.0045-.0075.0105-.012.0145-.019.001-.0015.001-.0035.0025-.0055.0345-.0585.064-.121.087-.186.005-.014.0075-.0295.011-.0435.007-.022.0125-.0435.0185-.065.002-.0115.007-.0225.0095-.0335.0035-.018.004-.0365.0065-.054a.8528.8528 0 00.006-.0615c.002-.0195.005-.039.005-.0585 0-.005.001-.009.001-.012V40.4165h-.002zm-53.3435 30.261l8.333-23.6745 15.2925 26.9575-23.6255-3.283zm25.4955 2.527L40.3393 45.6h31.3195L55.9983 73.2045zm15.155-29.605h-30.308l15.154-17.0905 15.154 17.0905zM57.8678 73.962l15.295-26.9585 8.334 23.6745-23.629 3.284zm23.9785-8.314l-7.219-20.508 7.219-3.1885V65.648zm-8.206-22.2585l-12.8325-14.474 19.8265 11.385-6.994 3.089zM37.3713 45.14l-7.2185 20.5075v-23.696l7.2185 3.1885zm17.627 30.9625v9.165l-20.908-12.071 20.908 2.906zm2.001-.0005l20.9085-2.906-20.9085 12.0715V76.102zM38.3578 43.3895L31.3638 40.3l19.8305-11.387-12.8365 14.4765z" fill="url(#paint0_linear)"/>
  </g>
  <defs>
    <linearGradient id="paint0_linear" x1="56.0003" y1="24" x2="56.0003" y2="88" gradientUnits="userSpaceOnUse">
      <stop stop-color="#20F"/>
      <stop offset="1" stop-color="#9E00FF"/>
    </linearGradient>
    <clipPath id="clip0">
      <path fill="#fff" transform="translate(24 24)" d="M0 0h64v64H0z"/>
    </clipPath>
  </defs>
</svg>
