<svg xmlns="http://www.w3.org/2000/svg" version="1.1" xmlns:xlink="http://www.w3.org/1999/xlink" xmlns:svgjs="http://svgjs.com/svgjs" viewBox="0 0 160 160" width="160" height="160"><g transform="matrix(1.6,0,0,1.6,0,0)"><path d="M9.559 50.000 A40.000 40.000 0 1 0 89.559 50.000 A40.000 40.000 0 1 0 9.559 50.000 Z" fill="#c7f0ff" stroke="#c7f0ff" stroke-miterlimit="10"></path><path d="M35.778,36.8c4.478,4.063,8.741-.825,13.005,4.965,1.1,1.494-1.547-.119.134,3.537L67.154,62.49a3.2,3.2,0,0,1-4.529,4.53l-.111-.11a3.2,3.2,0,0,1-4.529,4.529l-1.132-1.132a3.2,3.2,0,0,1-4.53,4.529L51.191,73.7a3.2,3.2,0,1,1-4.53,4.529L36.85,68.422c-5.834-5.834-4.591-9.121-7.926-12.456L22.767,49.81Z" fill="#d18660"></path><path d="M37.01,59.519c-.5-2.3-7.148-9.082-11.049-12.9L22.767,49.81l6.157,6.156c3.335,3.335,2.092,6.622,7.926,12.456l9.811,9.811A3.2,3.2,0,0,0,52.044,76.7C45.766,71.573,37.5,64.037,37.01,59.519Z" fill="#bd704a"></path><path d="M33.531,29.987,23.475,19.931,5.923,37.482,15.979,47.538a1.6,1.6,0,0,0,2.266,0L33.531,32.251A1.6,1.6,0,0,0,33.531,29.987Z" fill="#009fd9"></path><path d="M33.531,29.987,23.475,19.931l-2.831,2.83L31.833,33.95l1.7-1.7A1.6,1.6,0,0,0,33.531,29.987Z" fill="#00b8f0"></path><path d="M5.923,37.482,15.979,47.538a1.6,1.6,0,0,0,2.266,0L33.531,32.251a1.6,1.6,0,0,0,0-2.264L23.475,19.931" fill="none" stroke="#45413c" stroke-linecap="round" stroke-linejoin="round"></path><path d="M18.244,47.538,20.509,49.8a1.6,1.6,0,0,0,2.265,0L35.8,36.781a1.6,1.6,0,0,0,0-2.265l-2.265-2.265Z" fill="#ffffff" stroke="#45413c" stroke-linecap="round" stroke-linejoin="round"></path><path d="M35.778,36.8c4.478,4.063,8.741-.825,13.005,4.965,1.1,1.494-1.547-.119.134,3.537L67.154,62.49a3.2,3.2,0,0,1-4.529,4.53l-.111-.11a3.2,3.2,0,0,1-4.529,4.529l-1.132-1.132a3.2,3.2,0,0,1-4.53,4.529L51.191,73.7a3.2,3.2,0,1,1-4.53,4.529L36.85,68.422c-5.834-5.834-4.591-9.121-7.926-12.456L22.767,49.81Z" fill="none" stroke="#45413c" stroke-linecap="round" stroke-linejoin="round"></path><path d="M54.399 67.853L56.853 70.307" fill="#ffcebf" stroke="#45413c" stroke-linecap="round" stroke-linejoin="round"></path><path d="M59.117 63.512L63.081 67.476" fill="#ffcebf" stroke="#45413c" stroke-linecap="round" stroke-linejoin="round"></path><path d="M49.87 72.383L52.323 74.836" fill="#ffcebf" stroke="#45413c" stroke-linecap="round" stroke-linejoin="round"></path><path d="M66.111,38.067c-1.331-2.879-3.189-8.515.194-12.564,4.483-5.368,10.61-6.163,14.712-7.417" fill="none" stroke="#45413c" stroke-linecap="round" stroke-linejoin="round"></path><path d="M64.303 41.926 A5.024 5.024 0 1 0 74.351 41.926 A5.024 5.024 0 1 0 64.303 41.926 Z" fill="#87898c" stroke="#45413c" stroke-linecap="round" stroke-linejoin="round"></path><path d="M81.719,17.268,68.19,32.082a4.218,4.218,0,0,0,.132,5.829l5.11,5.11a4.219,4.219,0,0,0,5.829.133L94.077,29.625" fill="#ffffff" stroke="#45413c" stroke-linecap="round" stroke-linejoin="round"></path><path d="M73.411,50.766a1.407,1.407,0,0,0,0-1.989L62.283,37.649a1.407,1.407,0,0,0-1.576-.286l-.937.425a9.729,9.729,0,0,1-5.978.672l-.04-.008a9.738,9.738,0,0,0-6.422.886L39.8,43.228a3.2,3.2,0,0,0,2.958,5.681L49.126,45.5,64.347,59.83Z" fill="#bdbec0"></path><path d="M41.7,46.731l7.529-3.889a9.73,9.73,0,0,1,6.421-.887l.041.008a9.73,9.73,0,0,0,5.978-.672l2.713-1.54-2.1-2.1a1.4,1.4,0,0,0-1.576-.286l-.937.425a9.729,9.729,0,0,1-5.978.672l-.041-.008a9.73,9.73,0,0,0-6.421.886L39.8,43.228a3.187,3.187,0,0,0,.242,5.779A3.184,3.184,0,0,1,41.7,46.731Z" fill="#e0e0e0"></path><path d="M73.411,50.766a1.407,1.407,0,0,0,0-1.989L62.283,37.649a1.407,1.407,0,0,0-1.576-.286l-.937.425a9.729,9.729,0,0,1-5.978.672l-.04-.008a9.738,9.738,0,0,0-6.422.886L39.8,43.228a3.2,3.2,0,0,0,2.958,5.681L49.126,45.5,64.347,59.83Z" fill="none" stroke="#45413c" stroke-linecap="round" stroke-linejoin="round"></path><path d="M33.1,56.576A3.2,3.2,0,0,1,32.89,61.1l-2.812,2.561a3.2,3.2,0,1,1-4.312-4.737l2.812-2.561A3.2,3.2,0,0,1,33.1,56.576Z" fill="#bdbec0" stroke="#45413c" stroke-linecap="round" stroke-linejoin="round"></path><path d="M41.532,66.241a3.2,3.2,0,0,1-.213,4.525L38.211,73.6A3.2,3.2,0,1,1,33.9,68.859l3.108-2.83A3.2,3.2,0,0,1,41.532,66.241Z" fill="#bdbec0" stroke="#45413c" stroke-linecap="round" stroke-linejoin="round"></path><path d="M45.713,71.208a3.2,3.2,0,0,1-.212,4.524l-1.333,1.213a3.2,3.2,0,0,1-4.312-4.737L41.189,71A3.2,3.2,0,0,1,45.713,71.208Z" fill="#bdbec0" stroke="#45413c" stroke-linecap="round" stroke-linejoin="round"></path><path d="M37.484,61.275a3.2,3.2,0,0,1-.212,4.525l-4.293,3.907a3.2,3.2,0,1,1-4.312-4.736l4.293-3.908A3.2,3.2,0,0,1,37.484,61.275Z" fill="#bdbec0" stroke="#45413c" stroke-linecap="round" stroke-linejoin="round"></path><path d="M53.808,49.907S56.6,48.659,57.2,46.294a1.212,1.212,0,0,1,1.858-.7c2.515,1.718,6.406,5.659,3.358,12.407Z" fill="#87898c" stroke="#45413c" stroke-linecap="round" stroke-linejoin="round"></path><path d="M64.704 46.991L67.905 50.193" fill="none" stroke="#45413c" stroke-linecap="round" stroke-linejoin="round"></path><path d="M49.126,45.5s5.083-2,4.245-7.114" fill="none" stroke="#45413c" stroke-linecap="round" stroke-linejoin="round"></path><path d="M27.227 57.594L31.771 62.139" fill="none" stroke="#45413c" stroke-linecap="round" stroke-linejoin="round"></path><path d="M30.345 63.443L34.87 67.968" fill="none" stroke="#45413c" stroke-linecap="round" stroke-linejoin="round"></path><path d="M35.836 67.106L40.365 71.635" fill="none" stroke="#45413c" stroke-linecap="round" stroke-linejoin="round"></path><path d="M88.784,24.332,81.576,31.54a4.22,4.22,0,0,0,0,5.968l1.846,1.846,10.655-9.729" fill="#bdbec0" stroke="#45413c" stroke-linecap="round" stroke-linejoin="round"></path><path d="M82.439 34.373 A1.463 1.463 0 1 0 85.365 34.373 A1.463 1.463 0 1 0 82.439 34.373 Z" fill="#45413c"></path></g></svg>