<svg xmlns="http://www.w3.org/2000/svg" version="1.1" xmlns:xlink="http://www.w3.org/1999/xlink" xmlns:svgjs="http://svgjs.com/svgjs" viewBox="0 0 160 160" width="160" height="160"><g transform="matrix(1.6,0,0,1.6,0,0)"><path d="M10.000 51.345 A40.000 40.000 0 1 0 90.000 51.345 A40.000 40.000 0 1 0 10.000 51.345 Z" fill="#e8f4fa" stroke="#daedf7" stroke-miterlimit="10"></path><path d="M42.692 87.584 A7.526 1.411 0 1 0 57.744 87.584 A7.526 1.411 0 1 0 42.692 87.584 Z" fill="#525252" opacity=".15"></path><path d="M55.264,52.264A11.773,11.773,0,0,0,50.8,52.3v3.569a7.948,7.948,0,0,1,2.276-.335,8.085,8.085,0,1,1,.034,16.17,8,8,0,0,1-2.31-.335v3.569a11.554,11.554,0,1,0,4.469-22.672Z" fill="#ffe500" stroke="#45413c" stroke-linecap="round" stroke-linejoin="round"></path><path d="M54.26,77a1.157,1.157,0,0,1-.338.817l-4.62,4.62a1.155,1.155,0,0,1-1.972-.817v-18h6.93Z" fill="#ffe500" stroke="#45413c" stroke-linecap="round" stroke-linejoin="round"></path><path d="M47.33,63.617v6.791c1.129.085,2.282.139,3.465.139s2.336-.054,3.465-.139V63.617Z" fill="#ebcb00"></path><path d="M54.26,77a1.157,1.157,0,0,1-.338.817l-4.62,4.62a1.155,1.155,0,0,1-1.972-.817v-18h6.93Z" fill="none" stroke="#45413c" stroke-linecap="round" stroke-linejoin="round"></path><path d="M30.005,45.137V55.532c0,5.1,9.308,9.24,20.79,9.24s20.79-4.137,20.79-9.24V45.137Z" fill="#ffe500" stroke="#45413c" stroke-linecap="round" stroke-linejoin="round"></path><path d="M30.005 45.137 A20.79 4.142 0 1 0 71.585 45.137 A20.79 4.142 0 1 0 30.005 45.137 Z" fill="#ebcb00" stroke="#45413c" stroke-linecap="round" stroke-linejoin="round"></path><path d="M46.922 15.273 L77.356 15.273 L77.356 38.098 L46.922 38.098 Z" fill="#ffffff" transform="translate(13.785 73.964) rotate(-67.598)"></path><path d="M46.922 15.273 L77.356 15.273 L77.356 38.098 L46.922 38.098 Z" fill="none" stroke="#45413c" stroke-linecap="round" stroke-linejoin="round" transform="translate(13.785 73.964) rotate(-67.598)"></path><path d="M61.901 15.615L72.453 19.965" fill="none" stroke="#45413c" stroke-linecap="round" stroke-linejoin="round"></path><path d="M56.554 20.269L70.036 25.827" fill="none" stroke="#45413c" stroke-linecap="round" stroke-linejoin="round"></path><path d="M54.138 26.131L67.62 31.688" fill="none" stroke="#45413c" stroke-linecap="round" stroke-linejoin="round"></path><path d="M51.721 31.993L65.204 37.55" fill="none" stroke="#45413c" stroke-linecap="round" stroke-linejoin="round"></path><path d="M57.009,43.039c-.023.012-.058.024-.081.035l-14,5.14h-.012l-1.629.612c-.877-.093-1.72-.2-2.517-.312-1.086-.15-2.091-.323-3-.52l-1.941-5.255L27.5,25.529l-.878-2.379a1.265,1.265,0,0,1,.751-1.628l19.034-7.011a1.266,1.266,0,0,1,1.629.751l.854,2.333.012.023,2.633,7.149L52.5,27.4l.971,2.61v.012l2.414,6.56L57.6,41.226l.081.22A1.28,1.28,0,0,1,57.009,43.039Z" fill="#ffffff"></path><path d="M57.009,43.039c-.023.012-.058.024-.081.035l-14,5.14h-.012l-1.629.612c-.877-.093-1.72-.2-2.517-.312-1.086-.15-2.091-.323-3-.52l-1.941-5.255L27.5,25.529l-.878-2.379a1.265,1.265,0,0,1,.751-1.628l19.034-7.011a1.266,1.266,0,0,1,1.629.751l.854,2.333.012.023,2.633,7.149L52.5,27.4l.971,2.61v.012l2.414,6.56L57.6,41.226l.081.22A1.28,1.28,0,0,1,57.009,43.039Z" fill="none" stroke="#45413c" stroke-linecap="round" stroke-linejoin="round"></path><path d="M34.478 24.306L45.188 20.364" fill="none" stroke="#45413c" stroke-linecap="round" stroke-linejoin="round"></path><path d="M33.693 31.351L47.378 26.314" fill="none" stroke="#45413c" stroke-linecap="round" stroke-linejoin="round"></path><path d="M35.883 37.301L49.568 32.264" fill="none" stroke="#45413c" stroke-linecap="round" stroke-linejoin="round"></path><path d="M38.073 43.251L51.758 38.214" fill="none" stroke="#45413c" stroke-linecap="round" stroke-linejoin="round"></path><path d="M63.5,27.054l-.219,2.518-1.017,12.1-.6,6.988c-2.114.266-4.47.451-6.988.543q-1.889.069-3.881.069c-3.43,0-6.664-.161-9.506-.45-.877-.093-1.72-.2-2.517-.312l.485-5.706.092-1.132.5-5.832.589-6.976.1-1.213.208-2.53a1.284,1.284,0,0,1,1.374-1.155l9.413.8,10.8.913A1.271,1.271,0,0,1,63.5,27.054Z" fill="#ffffff"></path><path d="M63.5,27.054l-.219,2.518-1.017,12.1-.6,6.988c-2.114.266-4.47.451-6.988.543q-1.889.069-3.881.069c-3.43,0-6.664-.161-9.506-.45-.877-.093-1.72-.2-2.517-.312l.485-5.706.092-1.132.5-5.832.589-6.976.1-1.213.208-2.53a1.284,1.284,0,0,1,1.374-1.155l9.413.8,10.8.913A1.271,1.271,0,0,1,63.5,27.054Z" fill="none" stroke="#45413c" stroke-linecap="round" stroke-linejoin="round"></path><path d="M47.38 29.504L58.752 30.467" fill="none" stroke="#45413c" stroke-linecap="round" stroke-linejoin="round"></path><path d="M43.687 35.555L58.217 36.785" fill="none" stroke="#45413c" stroke-linecap="round" stroke-linejoin="round"></path><path d="M43.152 41.873L57.683 43.103" fill="none" stroke="#45413c" stroke-linecap="round" stroke-linejoin="round"></path></g></svg>