<svg xmlns="http://www.w3.org/2000/svg" version="1.1" xmlns:xlink="http://www.w3.org/1999/xlink" xmlns:svgjs="http://svgjs.com/svgjs" viewBox="0 0 160 160" width="160" height="160"><g transform="matrix(1.6,0,0,1.6,0,0)"><path d="M90,49.375a40,40,0,1,0-76.436,16.5H86.436A39.844,39.844,0,0,0,90,49.375Z" fill="#009fd9"></path><path d="M13.564,65.875a40,40,0,0,0,72.872,0Z" fill="#f0d3a8"></path><path d="M11 65.875L89 65.875" fill="none" stroke="#45413c" stroke-linecap="round" stroke-linejoin="round"></path><path d="M6.5 65.875L9 65.875" fill="none" stroke="#45413c" stroke-linecap="round" stroke-linejoin="round"></path><path d="M91 65.875L93.5 65.875" fill="none" stroke="#45413c" stroke-linecap="round" stroke-linejoin="round"></path><path d="M64 76.375L71.157 76.375" fill="none" stroke="#8ca4b8" stroke-linecap="round" stroke-miterlimit="10"></path><path d="M59.825 76.375L61.614 76.375" fill="none" stroke="#8ca4b8" stroke-linecap="round" stroke-miterlimit="10"></path><path d="M56.843 76.375L57.44 76.375" fill="none" stroke="#8ca4b8" stroke-linecap="round" stroke-miterlimit="10"></path><path d="M34.157 72.875L41.313 72.875" fill="none" stroke="#8ca4b8" stroke-linecap="round" stroke-miterlimit="10"></path><path d="M29.982 72.875L31.771 72.875" fill="none" stroke="#8ca4b8" stroke-linecap="round" stroke-miterlimit="10"></path><path d="M27 72.875L27.596 72.875" fill="none" stroke="#8ca4b8" stroke-linecap="round" stroke-miterlimit="10"></path><path d="M45.343 83.875L52.5 83.875" fill="none" stroke="#8ca4b8" stroke-linecap="round" stroke-miterlimit="10"></path><path d="M41.169 83.875L42.958 83.875" fill="none" stroke="#8ca4b8" stroke-linecap="round" stroke-miterlimit="10"></path><path d="M38.187 83.875L38.783 83.875" fill="none" stroke="#8ca4b8" stroke-linecap="round" stroke-miterlimit="10"></path><path d="M15.466 69.022 A17.017 1.647 0 1 0 49.500 69.022 A17.017 1.647 0 1 0 15.466 69.022 Z" fill="#45413c" opacity=".15"></path><path d="M71.5,63.875a8,8,0,0,0,16,0v-4a1,1,0,0,0-1-1h-4a1,1,0,0,0-1,1v4a2,2,0,0,1-4,0,15.5,15.5,0,0,0-31,0v18h6v-.5h19Z" fill="#009fd9"></path><path d="M62,51.375a16.161,16.161,0,0,1,15.474,11.61,15.5,15.5,0,0,0-30.974.89q0,.759.072,1.5A15.5,15.5,0,0,1,62,51.375Z" fill="#00b8f0"></path><path d="M71.5,63.875a8,8,0,0,0,16,0v-4a1,1,0,0,0-1-1h-4a1,1,0,0,0-1,1v4a2,2,0,0,1-4,0,15.5,15.5,0,0,0-31,0v18h6v-.5h19Z" fill="none" stroke="#45413c" stroke-linecap="round" stroke-linejoin="round"></path><path d="M52.5 81.375L52.5 62.375" fill="none" stroke="#45413c" stroke-linecap="round" stroke-linejoin="round"></path><path d="M71.5 63.875L71.5 62.375" fill="none" stroke="#45413c" stroke-linecap="round" stroke-linejoin="round"></path><path d="M69.5,63.375a2.535,2.535,0,0,0-3.241.86l-.759,1.14c-.036-2.564.5-5.5,2-6.5C69.25,59.533,69.5,62.875,69.5,63.375Z" fill="#ffffff" stroke="#45413c" stroke-linecap="round" stroke-linejoin="round"></path><path d="M65.5,48.772v.6a4.833,4.833,0,0,1-7,0v-.6a15.326,15.326,0,0,0-3.475,1.258c1.8,2,6.975,6.345,6.975,6.345s5.178-4.346,6.975-6.345A15.326,15.326,0,0,0,65.5,48.772Z" fill="#525252" stroke="#45413c" stroke-linecap="round" stroke-linejoin="round"></path><path d="M58.5,45.375v4a4.833,4.833,0,0,0,7,0v-4Z" fill="#ffcebf"></path><path d="M65.5,48.861a12.173,12.173,0,0,1-7,0V45.375h7Z" fill="#ffb59e"></path><path d="M58.5,45.375v4a4.833,4.833,0,0,0,7,0v-4Z" fill="none" stroke="#45413c" stroke-linecap="round" stroke-linejoin="round"></path><path d="M79.557,52.816a.7.7,0,0,0,.942-.662V47.375a1,1,0,0,1,2,0v-1a1,1,0,0,1,2,0v4.182a.318.318,0,0,0,.606.135L86.9,46.877a1,1,0,1,1,1.811.849l-.313.665a1,1,0,0,1,1.8.862l-1.7,3.622v.654A6.824,6.824,0,0,1,87,57.788v1.087H82V57.92a3.082,3.082,0,0,1-1.5-2.64L77,54.022A2,2,0,0,1,79.557,52.816Z" fill="#ffcebf" stroke="#45413c" stroke-linecap="round" stroke-linejoin="round"></path><path d="M86.688 52.026L88.385 48.404" fill="#d18660" stroke="#45413c" stroke-linecap="round" stroke-linejoin="round"></path><path d="M82.499 47.375L82.499 50.875" fill="none" stroke="#45413c" stroke-linecap="round" stroke-linejoin="round"></path><path d="M75,35.375c-1.5-3.5.5-6.5-2-6.5,0,2.057-.7,2.7-1,3.874v-.374a10,10,0,0,0-20,0v.374c-.3-1.17-1-1.817-1-3.874-2.5,0-.5,3-2,6.5-1,2.343,1.794,3.549,3.123,3.492a9.987,9.987,0,0,0,19.753,0C73.206,38.924,76,37.718,75,35.375Z" fill="#ffcebf" stroke="#45413c" stroke-linecap="round" stroke-linejoin="round"></path><path d="M55.000 39.125 A1.250 1.250 0 1 0 57.500 39.125 A1.250 1.250 0 1 0 55.000 39.125 Z" fill="#ffb59e"></path><path d="M66.500 39.125 A1.250 1.250 0 1 0 69.000 39.125 A1.250 1.250 0 1 0 66.500 39.125 Z" fill="#ffb59e"></path><path d="M64.508 33.376L68 32.374 68.5 31.375" fill="none" stroke="#45413c" stroke-linecap="round" stroke-linejoin="round"></path><path d="M59.5 33.375L56.008 32.373 55.508 31.374" fill="none" stroke="#45413c" stroke-linecap="round" stroke-linejoin="round"></path><path d="M66.500 39.125 A1.250 1.250 0 1 0 69.000 39.125 A1.250 1.250 0 1 0 66.500 39.125 Z" fill="#ffb59e"></path><path d="M55.000 39.125 A1.250 1.250 0 1 0 57.500 39.125 A1.250 1.250 0 1 0 55.000 39.125 Z" fill="#ffb59e"></path><path d="M65.008,41.664a4.361,4.361,0,0,1-6.017,0" fill="none" stroke="#45413c" stroke-linecap="round" stroke-linejoin="round"></path><path d="M56.492,35.875a1.629,1.629,0,0,1,3.008,0" fill="none" stroke="#45413c" stroke-linecap="round" stroke-linejoin="round"></path><path d="M64.5,35.878a1.629,1.629,0,0,1,3.008,0" fill="none" stroke="#45413c" stroke-linecap="round" stroke-linejoin="round"></path><path d="M52.5,84.875a3,3,0,0,1-6,0v-3h6Z" fill="#ffcebf" stroke="#45413c" stroke-linecap="round" stroke-linejoin="round"></path><path d="M42 16.875L45 16.875" fill="none" stroke="#f0f0f0" stroke-linecap="round" stroke-linejoin="round"></path><path d="M43.5 15.375L43.5 18.375" fill="none" stroke="#f0f0f0" stroke-linecap="round" stroke-linejoin="round"></path><path d="M37 28.375L40 28.375" fill="none" stroke="#f0f0f0" stroke-linecap="round" stroke-linejoin="round"></path><path d="M38.5 26.875L38.5 29.875" fill="none" stroke="#f0f0f0" stroke-linecap="round" stroke-linejoin="round"></path><path d="M24.5 24.375L27.5 24.375" fill="none" stroke="#f0f0f0" stroke-linecap="round" stroke-linejoin="round"></path><path d="M26 22.875L26 25.875" fill="none" stroke="#f0f0f0" stroke-linecap="round" stroke-linejoin="round"></path><path d="M73.5,28.927a10.051,10.051,0,0,0-10.32-10.052H60.821A10.05,10.05,0,0,0,50.5,28.927a2.148,2.148,0,0,1,.5-.052c0,3,1.5,3,1.04,6,0,0,1.46.5,1.46-1.5v-4a29.481,29.481,0,0,0,8.5,1,29.481,29.481,0,0,0,8.5-1v4c0,2,1.46,1.5,1.46,1.5-.46-3,1.04-3,1.04-6A2.148,2.148,0,0,1,73.5,28.927Z" fill="#525252"></path><path d="M51.007,29.208a10.177,10.177,0,0,1,9.814-6.833h2.358a10.177,10.177,0,0,1,9.814,6.833c0-.107.007-.218.007-.333a2.148,2.148,0,0,1,.5.052,10.051,10.051,0,0,0-10.32-10.052H60.821A10.05,10.05,0,0,0,50.5,28.927a2.148,2.148,0,0,1,.5-.052C51,28.99,51,29.1,51.007,29.208Z" fill="#656769"></path><path d="M73.5,28.927a10.051,10.051,0,0,0-10.32-10.052H60.821A10.05,10.05,0,0,0,50.5,28.927a2.148,2.148,0,0,1,.5-.052c0,3,1.5,3,1.04,6,0,0,1.46.5,1.46-1.5v-4a29.481,29.481,0,0,0,8.5,1,29.481,29.481,0,0,0,8.5-1v4c0,2,1.46,1.5,1.46,1.5-.46-3,1.04-3,1.04-6A2.148,2.148,0,0,1,73.5,28.927Z" fill="none" stroke="#45413c" stroke-linecap="round" stroke-linejoin="round"></path><path d="M18.624,41.12s-2.783,7.651-2.783,11.689H34.766A1.113,1.113,0,0,0,35.879,51.7V48.913H25.912c-1.156,0-4.5-2.227-1.9-7.793Z" fill="#adc4d9" stroke="#45413c" stroke-linecap="round" stroke-linejoin="round"></path><path d="M18.362,52.809h16.4A1.113,1.113,0,0,0,35.879,51.7v-3.34a.557.557,0,0,0-.557-.557h-6.3A13.1,13.1,0,0,0,18.362,52.809Z" fill="#e8f4fa" stroke="#45413c" stroke-linecap="round" stroke-linejoin="round"></path><path d="M35.584,50.582c11.427,0,13.686-3.9,13.686-3.9H21.964S24.157,50.582,35.584,50.582Z" fill="#c0dceb" stroke="#45413c" stroke-linecap="round" stroke-linejoin="round"></path><path d="M36.436,57.818H38.1a1.113,1.113,0,0,0,1.114-1.113h0A1.113,1.113,0,0,0,38.1,55.592H36.436Z" fill="#ffe500" stroke="#45413c" stroke-linecap="round" stroke-linejoin="round"></path><path d="M28.643,37.224a1.67,1.67,0,0,1-1.67,1.67H16.4a1.67,1.67,0,1,1,0-3.34H26.973A1.67,1.67,0,0,1,28.643,37.224Z" fill="#a6fbff"></path><path d="M16.4,37.224H26.973a1.669,1.669,0,0,1,1.446.835,1.67,1.67,0,0,0-1.446-2.5H16.4a1.67,1.67,0,0,0-1.446,2.5A1.669,1.669,0,0,1,16.4,37.224Z" fill="#d9fdff"></path><path d="M28.643,37.224a1.67,1.67,0,0,1-1.67,1.67H16.4a1.67,1.67,0,1,1,0-3.34H26.973A1.67,1.67,0,0,1,28.643,37.224Z" fill="none" stroke="#45413c" stroke-linecap="round" stroke-linejoin="round"></path><path d="M23.878,41.12h-4.94a1.114,1.114,0,0,1-1.08-.843l-.346-1.383H25.3l-.345,1.383A1.114,1.114,0,0,1,23.878,41.12Z" fill="#c0dceb" stroke="#45413c" stroke-linecap="round" stroke-linejoin="round"></path><path d="M34.906,55.242a.559.559,0,0,1-.517.35H16.119a1.392,1.392,0,0,1,0-2.783H34.235a1.113,1.113,0,0,1,1.033,1.527Z" fill="#daedf7" stroke="#45413c" stroke-linecap="round" stroke-linejoin="round"></path><path d="M18.624,56.705a1.67,1.67,0,0,0,1.67,1.67H35.879a.557.557,0,0,0,.557-.557V55.592a.558.558,0,0,0-.557-.557H20.294A1.67,1.67,0,0,0,18.624,56.705Z" fill="#adc4d9"></path><path d="M35.879,55.035H20.294a1.67,1.67,0,0,0-1.67,1.67,1.653,1.653,0,0,0,.181.742,1.664,1.664,0,0,1,1.489-.927H35.322a1.138,1.138,0,0,1,1.114.927V55.592A.557.557,0,0,0,35.879,55.035Z" fill="#daedf7"></path><path d="M18.624,56.705a1.67,1.67,0,0,0,1.67,1.67H35.879a.557.557,0,0,0,.557-.557V55.592a.558.558,0,0,0-.557-.557H20.294A1.67,1.67,0,0,0,18.624,56.705Z" fill="none" stroke="#45413c" stroke-linecap="round" stroke-linejoin="round"></path><path d="M40.889 56.705L39.219 56.705" fill="none" stroke="#45413c" stroke-linecap="round" stroke-linejoin="round"></path><path d="M35.584,42.233c-5.743,0-14.428,1.2-16.114,3.6a.555.555,0,0,0,.478.851h31.3a.554.554,0,0,0,.475-.853C50.007,43.459,41.317,42.233,35.584,42.233Z" fill="#daedf7"></path><path d="M51.721,45.833c-1.714-2.374-10.4-3.6-16.137-3.6s-14.428,1.2-16.114,3.6a.556.556,0,0,0,.478.851h1.265c3.32-1.486,9.657-2.226,14.175-2.226,4.5,0,10.816.755,14.157,2.226h1.7A.554.554,0,0,0,51.721,45.833Z" fill="#e8f4fa"></path><path d="M35.584,42.233c-5.743,0-14.428,1.2-16.114,3.6a.555.555,0,0,0,.478.851h31.3a.554.554,0,0,0,.475-.853C50.007,43.459,41.317,42.233,35.584,42.233Z" fill="none" stroke="#45413c" stroke-linecap="round" stroke-linejoin="round"></path><path d="M33.653,58.375h2.226a.557.557,0,0,0,.557-.557V55.592a.558.558,0,0,0-.557-.557H33.653Z" fill="#ff6242" stroke="#45413c" stroke-linecap="round" stroke-linejoin="round"></path><path d="M52.5 81.375H71.5V90.625H52.5z" fill="#656769"></path><path d="M52.5 81.375H71.5V84.375H52.5z" fill="#525252"></path><path d="M62 84.375L62 90.625" fill="none" stroke="#45413c" stroke-linecap="round" stroke-linejoin="round"></path><path d="M52.5 90.625L52.5 81.375 71.5 81.375 71.5 90.625" fill="none" stroke="#45413c" stroke-linecap="round" stroke-linejoin="round"></path></g></svg>