<svg width="112" height="112" fill="none" xmlns="http://www.w3.org/2000/svg">
  <path d="M0 56a56.0003 56.0003 0 0056 56 56.0003 56.0003 0 0056-56A56.0003 56.0003 0 0056 0 56.0003 56.0003 0 000 56z" fill="#C7F0FF"/>
  <path d="M60.5838 24.3829c-1.5347-.2576-2.8944-.373-4.4505-.3813l-.8357.0136c-4.2231.0685-7.8206.957-11.713 2.5601-4.112 1.8337-6.987 3.7997-10.1871 6.9645-3.0996 3.2435-5.0143 6.1398-6.772 10.2683l-.2874.7342c-1.5306 3.9104-2.0544 7.5474-2.051 11.7331.142 4.6104.8935 8.0722 2.7173 12.3071 1.8556 3.9935 3.821 6.7762 6.9673 9.8543 3.2024 2.9605 6.0464 4.7761 10.0881 6.415 4.2008 1.5579 7.594 2.1276 12.0734 2.0419 4.4155-.2174 7.7186-.9985 11.7391-2.8319l.6706-.3286c3.3876-1.6601 5.9863-3.7471 8.5531-6.4949 2.7194-3.0826 4.3691-5.8023 5.8149-9.6501 1.348-3.9591 1.7945-7.1363 1.5925-11.3127-.3153 4.0644-1.1101 7.094-2.8669 10.7735-1.7413 3.4131-3.5328 5.7816-6.3446 8.3851-2.8227 2.4727-5.3087 3.9841-8.8116 5.3361-3.6117 1.2715-6.5173 1.7223-10.347 1.6274-3.7623-.2035-6.5761-.8733-10.0129-2.4174-3.2188-1.5526-5.463-3.1758-7.9472-5.7446-2.3831-2.6044-3.8526-4.9131-5.1922-8.1809-1.2788-3.3994-1.7607-6.1457-1.742-9.7791.1241-3.6009.7115-6.3034 2.1209-9.6189 1.4354-3.1316 2.9589-5.3245 5.3875-7.767 2.4842-2.3643 4.6993-3.8333 7.8483-5.195 3.3026-1.3173 5.9809-1.8385 9.5375-1.8857 1.0859.0085 2.0379.0902 3.1088.2701 1.4087.2577 2.5554.5934 3.8798 1.1376 2.3016 1.0065 3.9187 2.0891 5.729 3.8296 1.7655 1.7941 2.8701 3.402 3.9053 5.6969 1.0123 2.4237 1.4271 4.3947 1.4996 7.0207-.0049 2.6412-.3691 4.6332-1.3196 7.0967-.9901 2.3594-2.0685 4.0225-3.813 5.8931-1.8106 1.8369-3.4413 2.9928-5.7764 4.0889-2.4818 1.0824-4.5081 1.5404-7.2135 1.655-1.6518.0251-2.9012-.182-4.4519-.7504-1.4954-.599-2.5527-1.2622-3.7471-2.3425-1.1807-1.1289-1.9269-2.1511-2.6416-3.6204-.7117-1.5706-1.0193-2.8566-1.1133-4.5785-.0438-1.7524.1634-3.0808.7496-4.7323.6224-1.5996 1.3178-2.7323 2.4558-4.0163 1.1945-1.2746 2.2805-2.0832 3.8441-2.8627 1.6784-.7812 3.0567-1.1252 4.9044-1.2437 1.1376-.0423 2.0015.0825 3.0783.4507 1.0475.3942 1.791.8404 2.6356 1.574.8425.7739 1.3776 1.4796 1.8969 2.4991.5229 1.0978.7559 2.0018.8424 3.2149.0519 1.2434-.0808 2.1898-.4779 3.3689-.4268 1.1496-.9116 1.966-1.7111 2.8951-.8451.9285-1.617 1.519-2.7332 2.094-1.2046.5804-2.1976.8412-3.531.9424 1.3691.0634 2.411-.0818 3.7097-.5196 1.2647-.4706 2.1608-1.0067 3.179-1.892 1.0143-.9334 1.6552-1.7854 2.2749-3.0171.6211-1.3235.893-2.412.9842-3.8717.0483-1.4894-.1247-2.6203-.6197-4.0257-.5269-1.3615-1.1181-2.3234-2.0891-3.4133-1.018-1.0797-1.9432-1.7596-3.2766-2.4119-1.426-.6496-2.597-.9295-4.1624-1.0114-2.3409-.0588-4.117.2265-6.3191 1.0225-2.1259.8418-3.6267 1.7808-5.3207 3.3161-1.6727 1.6038-2.7224 3.0576-3.7231 5.1486-.991 2.2282-1.4108 4.0541-1.5167 6.4913-.0334 2.4667.288 4.3349 1.153 6.6451.9078 2.2206 1.9079 3.7838 3.5372 5.5443 1.6939 1.73 3.2229 2.8121 5.4177 3.8364 2.3294 1.0082 4.2342 1.4284 6.7717 1.5159 3.6449.0222 6.4013-.4736 9.8036-1.7809 3.2589-1.3641 5.5487-2.8567 8.1193-5.2797 2.5158-2.509 4.0835-4.7671 5.5555-8.0026 1.4395-3.4199 2.0262-6.2095 2.1163-9.9203-.021-3.7247-.5592-6.5359-1.9363-9.9963-1.4255-3.299-2.9692-5.612-5.4632-8.1988-2.5699-2.5196-4.8738-4.0835-8.1668-5.5389-1.9045-.7905-3.5491-1.2756-5.5778-1.647z" fill="#3159A6"/>
  <path d="M60.5837 24.3829c-1.5343-.2575-2.8947-.3736-4.4505-.3829-4.6882.072-8.2196.779-12.5594 2.55-4.1239 1.823-7.0121 3.7802-10.2344 6.9317-3.1296 3.2373-5.0708 6.1321-6.8676 10.2614-1.7396 4.3364-2.427 7.8599-2.4718 12.5323l.0169.8349c.0849 4.1994.9788 7.7767 2.5809 11.6442l.3225.7196c1.6509 3.6838 3.7811 6.5425 6.6101 9.404 3.2237 3.0829 6.1014 4.9918 10.2015 6.7489 4.2962 1.6947 7.783 2.3556 12.4012 2.373l.8291-.0216c4.1378-.1078 7.6603-1.0105 11.4609-2.6143l.7112-.3243c3.6108-1.646 6.4096-3.76 9.2027-6.5605 3.0021-3.1843 4.8562-6.0203 6.549-10.0557 1.6241-4.2163 2.245-7.6308 2.2235-12.1481l-.0262.7776c-.1364 4.0493-1.0356 7.4757-2.6213 11.191-1.7912 3.8907-3.6924 6.6099-6.7254 9.6348-3.0963 2.9208-5.8559 4.7264-9.7767 6.3897-4.0991 1.6003-7.424 2.2194-11.8267 2.2352l-.7675-.02c-3.9542-.1028-7.3098-.9569-10.948-2.4781-3.8264-1.7285-6.5041-3.5729-9.489-6.5256-2.8913-3.0239-4.6831-5.724-6.3419-9.5669-1.6028-4.0289-2.2325-7.3-2.2732-11.6376l.0153-.7615c.0789-3.904.9036-7.2229 2.384-10.8229 1.6896-3.7975 3.5006-6.4583 6.4068-9.4291 2.9839-2.8849 5.6529-4.677 9.4561-6.3428 3.9967-1.6155 7.2455-2.2587 11.5573-2.321 1.3995.0093 2.624.1142 4.0041.3459 1.8221.3335 3.3019.7682 5.0139 1.4746 2.9653 1.3029 5.0454 2.7033 7.3698 4.9573 2.2622 2.3193 3.6706 4.3961 4.9825 7.3592 1.2763 3.1201 1.7902 5.6577 1.8512 9.0286-.0389 3.3761-.5353 5.9211-1.7912 9.0539-1.2976 2.9847-2.6964 5.0798-4.9518 7.4245-2.3252 2.286-4.409 3.7113-7.3856 5.0436-3.1394 1.2994-5.6958 1.8277-9.0928 1.9029-2.3255-.0182-4.0801-.3543-6.241-1.2116-2.0618-.8879-3.5098-1.8478-5.1321-3.3983-1.5837-1.6006-2.572-3.037-3.4978-5.0899-.9046-2.1677-1.2748-3.9347-1.3325-6.2832.012-2.359.3482-4.1398 1.2114-6.3344.8957-2.0964 1.8663-3.5694 3.436-5.2216 1.6228-1.6151 3.0797-2.6238 5.1643-3.5714 2.2039-.9277 4.0013-1.3099 6.3917-1.3759 1.6584.0052 2.9112.2397 4.4551.8437 1.4758.6275 2.5133 1.3086 3.6771 2.411 1.1385 1.1404 1.8498 2.1652 2.5185 3.6316.6552 1.5513.926 2.8172.974 4.5007-.002 1.6937-.2391 2.9739-.8527 4.5518-.6384 1.5098-1.3323 2.5715-2.4566 3.7635-1.1641 1.1671-2.211 1.8968-3.7095 2.584-1.5867.6743-2.8826.9545-4.6059 1.0074 1.7352.002 3.0473-.2397 4.6652-.8666 1.548-.6526 2.6361-1.3641 3.8579-2.5168 1.1957-1.1932 1.942-2.267 2.6443-3.804.6882-1.626.9715-2.9538 1.0212-4.7193-.0028-1.775-.2539-3.1173-.8998-4.7704-.6712-1.5801-1.4012-2.6905-2.5825-3.9359-1.2215-1.2177-2.3193-1.9766-3.8903-2.6899-1.6601-.6976-3.0154-.9837-4.816-1.0303-2.5545.0067-4.4845.3696-6.8625 1.3022-2.2716.9684-3.8667 2.0205-5.6557 3.7224-1.7475 1.7583-2.8363 3.3384-3.8577 5.5984-.9979 2.3863-1.4049 4.3329-1.4667 6.9197.015 2.5964.3899 4.557 1.3456 6.9709.9902 2.3031 2.0627 3.9193 3.7959 5.7302 1.7881 1.7665 3.3937 2.8663 5.6879 3.8954 2.4201 1.0036 4.393 1.4109 7.0132 1.4665 3.7095-.0294 6.5092-.5706 9.9547-1.9448 3.2838-1.4213 5.5874-2.9589 8.1653-5.4399 2.5121-2.5569 4.0739-4.8503 5.5317-8.1264 1.4187-3.4512 1.9892-6.2616 2.0564-9.9937-.0438-3.7365-.5989-6.5537-1.9964-10.0188-1.442-3.2973-2.9963-5.6085-5.501-8.1918-2.5776-2.5135-4.8856-4.0738-8.1812-5.5262-1.9047-.7884-3.5508-1.2729-5.579-1.6442z" fill="#91D8F7"/>
  <path d="M60.0192 25.7972c-1.3401-.143-2.5393-.1806-3.8859-.1238-4.3988.2847-7.6786 1.1153-11.6571 3.0098-3.6955 1.8852-6.2467 3.8313-9.0276 6.9077-2.6272 3.078-4.2085 5.7818-5.572 9.5923-1.2558 3.8941-1.6438 7.0091-1.387 11.0922.3691 3.9505 1.2013 6.8778 3.0262 10.399 1.7833 3.2286 3.5874 5.4376 6.4129 7.8056 2.7846 2.2002 5.2053 3.4959 8.5951 4.5466 3.4066.9312 6.1015 1.1426 9.6094.7455 2.6071-.3677 4.5763-.9504 6.9415-2.1038-2.4283.7191-4.4071 1.0069-6.9414 1.0267-3.2547-.0578-5.7062-.5403-8.733-1.7407-2.8869-1.2404-4.9231-2.5807-7.2151-4.7307-2.2478-2.2271-3.6649-4.2309-5.0162-7.0944-1.3364-3.0443-1.9067-5.5307-2.067-8.8536-.0643-3.3716.3465-5.9258 1.4808-9.1017 1.2012-3.0728 2.541-5.2512 4.7248-7.724 2.2937-2.4574 4.3793-4.019 7.3815-5.5345 3.2281-1.5233 5.8821-2.2013 9.4441-2.4563 1.2008-.0625 2.2455-.0302 3.4397.1093 1.3881.1824 2.54.4501 3.8659.8989 2.5009.9147 4.2808 1.9581 6.31 3.681 2.034 1.8263 3.3339 3.4988 4.606 5.9188 1.2914 2.6209 1.8805 4.7852 2.1295 7.6968.1679 3.004-.1184 5.2954-1.0312 8.1613-.9933 2.813-2.1405 4.8189-4.0455 7.113-2.0296 2.3105-3.8958 3.7915-6.6033 5.2504-2.9455 1.4902-5.3851 2.1811-8.671 2.4954-2.3028.1451-4.0623-.0653-6.2637-.7533-2.1653-.7521-3.7099-1.626-5.4781-3.0831-1.7834-1.555-2.9258-2.9872-4.0524-5.0681-1.1515-2.265-1.6865-4.1445-1.9301-6.6737-.1745-2.6213.0594-4.6283.8335-7.1375.8486-2.4723 1.8385-4.2386 3.4915-6.2617 1.1411-1.3326 2.1944-2.3014 3.6159-3.3293-1.5266.8959-2.6727 1.7692-3.9435 3.0015-1.9046 1.9354-3.085 3.6735-4.185 6.1575-1.0682 2.6141-1.4932 4.7444-1.5318 7.5694.0459 2.8225.4788 4.9498 1.5531 7.5603 1.1038 2.4767 2.288 4.2079 4.193 6.1373 1.952 1.8687 3.6969 3.0223 6.1826 4.0855 2.6028 1.0242 4.7167 1.4206 7.515 1.4261 3.8582-.1131 6.7569-.7426 10.3041-2.2648 3.3451-1.5493 5.675-3.194 8.2565-5.8254 2.4828-2.6779 4.0047-5.0603 5.3842-8.4432 1.3131-3.5175 1.7952-6.362 1.7349-10.1176-.1707-3.7047-.8199-6.4789-2.3414-9.8609-1.5323-3.1676-3.1375-5.3658-5.6907-7.7866-2.5796-2.3111-4.8608-3.7178-8.0909-4.9715-1.9517-.7022-3.6113-1.097-5.6708-1.3477z" fill="#0E8DAB"/>
  <path d="M59.2336 30.9208c-1.0663-.1636-2.0216-.2359-3.1004-.2375-3.715.0723-6.5064.6427-9.9367 2.0673-3.2517 1.4612-5.5245 3.0245-8.052 5.5363-2.446 2.5718-3.9572 4.8657-5.341 8.1343-1.33 3.4188-1.8372 6.1861-1.8283 9.8542.1179 3.6423.712 6.3717 2.1578 9.7149 1.47 3.151 3.0249 5.3464 5.5123 7.773 2.5303 2.3325 4.7765 3.7648 7.9676 5.0523 3.3159 1.2229 5.9879 1.6657 9.5202 1.5906 2.7236-.1307 4.8201-.5374 7.3827-1.4642-2.5915.7125-4.6935.9706-7.3826.9243-3.4054-.1472-5.956-.7258-9.0818-2.0874-2.9403-1.3786-4.9948-2.8336-7.2777-5.1438-2.2002-2.3532-3.5621-4.4469-4.8143-7.4172-1.2036-3.1026-1.6662-5.6128-1.6786-8.9423.0852-3.3124.604-5.7993 1.875-8.8593 1.3012-2.8993 2.6927-4.9317 4.9175-7.2006 2.2829-2.2027 4.3234-3.5738 7.2291-4.85 3.0547-1.2389 5.5337-1.7328 8.8307-1.7906 1.0491.004 1.957.083 2.9904.2637 1.2009.2281 2.1887.519 3.3208.9796 2.0837.9023 3.5483 1.8768 5.1889 3.4454 1.602 1.6191 2.6052 3.0717 3.5456 5.1466.9207 2.1928 1.2977 3.9761 1.3652 6.3535-.0026 2.3923-.3307 4.1957-1.1916 6.4268-.897 2.1374-1.8749 3.6429-3.4564 5.336-1.6411 1.6617-3.1186 2.7071-5.2344 3.6963-2.2475.9758-4.0802 1.3862-6.5284 1.4846-1.3903.0205-2.4402-.1528-3.745-.6317-1.2581-.5045-2.1477-1.0637-3.152-1.9732-.9926-.9503-1.6206-1.8109-2.2211-3.047-.5979-1.3215-.8553-2.4015-.9334-3.8499-.0358-1.4742.1373-2.589.6306-3.978.5237-1.345 1.1087-2.2977 2.0655-3.3774.66-.7109 1.2633-1.2229 2.0723-1.7581-.8628.4677-1.5126.9311-2.238 1.5923-1.0833 1.0352-1.764 1.9747-2.4123 3.3263-.6423 1.4407-.9113 2.6182-.9795 4.1948-.0211 1.5953.1849 2.7999.7454 4.2937.5879 1.4351 1.2371 2.4453 2.2919 3.5819 1.0959 1.1162 2.0855 1.8148 3.5046 2.4743 1.5054.6484 2.7321.9148 4.371.9678 2.7349.0034 4.7967-.3761 7.3449-1.3696 2.4353-1.033 4.1448-2.1605 6.0608-3.9841 1.8713-1.884 3.0364-3.5779 4.1255-6.0009 1.0621-2.5564 1.4878-4.6361 1.5432-7.4049-.0274-2.7742-.4345-4.8619-1.4712-7.4352-1.0698-2.4484-2.2258-4.1643-4.0878-6.0801-1.9151-1.863-3.6305-3.019-6.0791-4.0905-1.4835-.6085-2.7543-.9708-4.3359-1.2373z" fill="#00AFEF"/>
</svg>
