<svg xmlns="http://www.w3.org/2000/svg" version="1.1" xmlns:xlink="http://www.w3.org/1999/xlink" xmlns:svgjs="http://svgjs.com/svgjs" viewBox="0 0 160 160" width="160" height="160"><g transform="matrix(1.6,0,0,1.6,0,0)"><path d="M9.059 50.000 A40.000 40.000 0 1 0 89.059 50.000 A40.000 40.000 0 1 0 9.059 50.000 Z" fill="#c7f0ff" stroke="#c7f0ff" stroke-miterlimit="10"></path><path d="M43.526 26.944H47.252V30.682H43.526z" fill="#c0dceb" stroke="#45413c" stroke-linecap="round" stroke-linejoin="round" transform="translate(9.745 69.06) rotate(-80.878)"></path><path d="M23.365 74.935 A4.566 4.566 0 1 0 32.497 74.935 A4.566 4.566 0 1 0 23.365 74.935 Z" fill="#656769"></path><path d="M23.365 74.935 A4.566 4.566 0 1 0 32.497 74.935 A4.566 4.566 0 1 0 23.365 74.935 Z" fill="none" stroke="#45413c" stroke-linecap="round" stroke-linejoin="round"></path><path d="M11.607,56.255v20.2A3.044,3.044,0,0,0,14.651,79.5H26.409a3.044,3.044,0,0,0,3.044-3.044V58.575a6.088,6.088,0,0,0-6.088-6.088h-7.99A3.78,3.78,0,0,0,11.607,56.255Z" fill="#656769"></path><path d="M29.453,72.271v4.185A3.044,3.044,0,0,1,26.409,79.5H14.651a3.044,3.044,0,0,1-3.044-3.044V71.891H11.6a3.053,3.053,0,0,0,3.044,3.044H26.409a3.053,3.053,0,0,0,3.044-3.044" fill="#525252"></path><path d="M11.607,56.255v20.2A3.044,3.044,0,0,0,14.651,79.5H26.409a3.044,3.044,0,0,0,3.044-3.044V58.575a6.088,6.088,0,0,0-6.088-6.088h-7.99A3.78,3.78,0,0,0,11.607,56.255Z" fill="none" stroke="#45413c" stroke-linecap="round" stroke-linejoin="round"></path><path d="M29.3,57.2a6.089,6.089,0,0,0-5.932-4.715h-7.99a3.78,3.78,0,0,0-3.768,3.768v.95Z" fill="#00b8f0" stroke="#45413c" stroke-linecap="round" stroke-linejoin="round"></path><path d="M12.862,52.487a6.087,6.087,0,0,0-6.049,5.406L5.141,72.731A6.087,6.087,0,0,0,11.19,79.5H15a3.044,3.044,0,0,0,3.044-3.044V55.531A3.044,3.044,0,0,0,15,52.487Z" fill="#00b8f0" stroke="#45413c" stroke-linecap="round" stroke-linejoin="round"></path><path d="M5.344,70.932l-.2,1.8A6.087,6.087,0,0,0,11.19,79.5H15a3.044,3.044,0,0,0,3.044-3.044V72.271A3.053,3.053,0,0,1,15,75.315h-3.8a6.124,6.124,0,0,1-4.535-2.024,6.224,6.224,0,0,1-1.308-2.359" fill="#009fd9"></path><path d="M12.862,52.487a6.087,6.087,0,0,0-6.049,5.406L5.141,72.731A6.087,6.087,0,0,0,11.19,79.5H15a3.044,3.044,0,0,0,3.044-3.044V55.531A3.044,3.044,0,0,0,15,52.487Z" fill="none" stroke="#45413c" stroke-linecap="round" stroke-linejoin="round"></path><path d="M11.607,64.632V79.49H15a2.932,2.932,0,0,0,3.04-2.79V59.051h-.349A5.847,5.847,0,0,0,11.607,64.632Z" fill="#656769"></path><path d="M18.177,71.383v3.424a2.5,2.5,0,0,1-2.49,2.491H12.91V73.873h2.777A2.5,2.5,0,0,0,18.177,71.383Z" fill="#525252"></path><path d="M11.607,64.632V79.49H15a2.932,2.932,0,0,0,3.04-2.79V59.051h-.349A5.847,5.847,0,0,0,11.607,64.632Z" fill="none" stroke="#45413c" stroke-linecap="round" stroke-linejoin="round"></path><path d="M9.257 75.171 A4.540 4.540 0 1 0 18.337 75.171 A4.540 4.540 0 1 0 9.257 75.171 Z" fill="#656769"></path><path d="M8.114 79.500 A9.533 1.718 0 1 0 27.180 79.500 A9.533 1.718 0 1 0 8.114 79.500 Z" fill="#45413c" opacity=".15"></path><path d="M9.52,76.7a4.541,4.541,0,1,1,8.555,0,4.552,4.552,0,0,0-8.555,0Z" fill="#87898c"></path><path d="M12.284 75.171 A1.513 1.513 0 1 0 15.310 75.171 A1.513 1.513 0 1 0 12.284 75.171 Z" fill="#bdbec0" stroke="#45413c" stroke-linecap="round" stroke-linejoin="round"></path><path d="M9.257 75.171 A4.540 4.540 0 1 0 18.337 75.171 A4.540 4.540 0 1 0 9.257 75.171 Z" fill="none" stroke="#45413c" stroke-linecap="round" stroke-linejoin="round"></path><path d="M40.455 61.723H44.19V75.42H40.455z" fill="#c7f0ff"></path><path d="M40.455 61.723H44.19V66.704H40.455z" fill="#c7f0ff"></path><path d="M40.455 61.723H44.19V75.42H40.455z" fill="none" stroke="#45413c" stroke-linecap="round" stroke-linejoin="round"></path><path d="M33.11,51.431a9.338,9.338,0,1,0,18.441,2.958Z" fill="#c7f0ff" stroke="#45413c" stroke-linecap="round" stroke-linejoin="round"></path><path d="M50.191,57.957a9.3,9.3,0,0,0,1.36-3.568L33.11,51.431a9.3,9.3,0,0,0,.176,3.814Z" fill="#c7f0ff"></path><path d="M63.7,59.438a2.49,2.49,0,0,0,2.533-3.714L53.3,33.548A2.49,2.49,0,0,0,49,36.055L61.93,58.231A2.48,2.48,0,0,0,63.7,59.438Z" fill="#f0f0f0" stroke="#45413c" stroke-linecap="round" stroke-linejoin="round"></path><path d="M50.187,31.47a4.98,4.98,0,0,1,4.128,5.707L51.551,54.389,46.634,53.6l-4.918-.79-3.688-.592,3.553-22.13Z" fill="#c7f0ff"></path><path d="M54.048,38.841l.267-1.664a4.98,4.98,0,0,0-4.128-5.707l-8.606-1.382-.61,3.8,8.846,1.421A5.391,5.391,0,0,1,54.048,38.841Z" fill="#ffffff"></path><path d="M50.187,31.47a4.98,4.98,0,0,1,4.128,5.707L51.551,54.389,46.634,53.6l-4.918-.79-3.688-.592,3.553-22.13Z" fill="none" stroke="#45413c" stroke-linecap="round" stroke-linejoin="round"></path><path d="M33.11,51.428l9.835,1.579L45.709,35.8a4.981,4.981,0,1,0-9.835-1.58Z" fill="#c7f0ff"></path><path d="M45.443,37.451l.266-1.655a4.981,4.981,0,1,0-9.835-1.58l-.219,1.363h0a6.361,6.361,0,0,1,9.792,1.873" fill="#ffffff"></path><path d="M54.74,45.9a3.737,3.737,0,0,1,3.673-3.05c.109,0,.216,0,.322.014" fill="none" stroke="#45413c" stroke-linecap="round" stroke-linejoin="round"></path><path d="M64.983 77.944 A14.957 1.718 0 1 0 94.897 77.944 A14.957 1.718 0 1 0 64.983 77.944 Z" fill="#45413c" opacity=".15"></path><path d="M33.11,51.431a9.338,9.338,0,1,0,18.441,2.958Z" fill="none" stroke="#45413c" stroke-linecap="round" stroke-linejoin="round"></path><path d="M51.132,77.155a.7.7,0,0,1-.17,1.378H33.683a.7.7,0,0,1-.169-1.378l6.941-1.735H44.19Z" fill="#656769" stroke="#45413c" stroke-linecap="round" stroke-linejoin="round"></path><path d="M35.981,17.839A7.471,7.471,0,0,0,42.173,26.4l2.459.4L47,12.042l-2.459-.395A7.471,7.471,0,0,0,35.981,17.839Z" fill="#c7f0ff"></path><path d="M44.163,14.553l2.374.381L47,12.042l-2.459-.395a7.471,7.471,0,0,0-8.561,6.192,7.552,7.552,0,0,0-.079,1.692A7.473,7.473,0,0,1,44.163,14.553Z" fill="#ffffff"></path><path d="M35.981,17.839A7.471,7.471,0,0,0,42.173,26.4l2.459.4L47,12.042l-2.459-.395A7.471,7.471,0,0,0,35.981,17.839Z" fill="none" stroke="#45413c" stroke-linecap="round" stroke-linejoin="round"></path><path d="M43.263 12.737 L58.205 12.737 L58.205 27.679 L43.263 27.679 Z" fill="#525252" transform="translate(22.738 67.097) rotate(-80.878)"></path><path d="M56.836,13.621,47,12.042a2.491,2.491,0,0,0-2.854,2.064l-.069.433,12.379,1.988a2.489,2.489,0,0,1,2.082,2.2l.361-2.249A2.491,2.491,0,0,0,56.836,13.621Z" fill="#656769"></path><path d="M43.263 12.737 L58.205 12.737 L58.205 27.679 L43.263 27.679 Z" fill="none" stroke="#45413c" stroke-linecap="round" stroke-linejoin="round" transform="translate(22.738 67.097) rotate(-80.878)"></path><path d="M33.11,51.428l9.835,1.579L45.709,35.8a4.981,4.981,0,1,0-9.835-1.58Z" fill="none" stroke="#45413c" stroke-linecap="round" stroke-linejoin="round"></path><path d="M53.177 20.800 A1.245 1.245 0 1 0 55.667 20.800 A1.245 1.245 0 1 0 53.177 20.800 Z" fill="#4acfff" stroke="#4acfff" stroke-linecap="round" stroke-linejoin="round"></path><path d="M47.030 19.813 A1.245 1.245 0 1 0 49.520 19.813 A1.245 1.245 0 1 0 47.030 19.813 Z" fill="#4acfff" stroke="#4acfff" stroke-linecap="round" stroke-linejoin="round"></path><path d="M28.761,72.94A6.545,6.545,0,0,0,35.3,66.4V47.725A3.428,3.428,0,0,1,38.722,44.3h6.226a1.557,1.557,0,0,0,0-3.113H38.722a6.544,6.544,0,0,0-6.537,6.537V66.4a3.424,3.424,0,1,1-6.848,0V54.044a1.557,1.557,0,1,0-3.113,0V66.4A6.545,6.545,0,0,0,28.761,72.94Z" fill="#bdbec0"></path><path d="M35.3,56.689V47.725A3.428,3.428,0,0,1,38.722,44.3h6.226a1.557,1.557,0,1,0,0-3.113H38.722a6.544,6.544,0,0,0-6.537,6.537v5.94A2.748,2.748,0,0,0,35.3,56.689Z" fill="#87898c"></path><path d="M35.3,64.41V66.4a6.537,6.537,0,1,1-13.074,0V64.41a6.537,6.537,0,0,0,13.074,0Z" fill="#87898c"></path><path d="M28.761,72.94A6.545,6.545,0,0,0,35.3,66.4V47.725A3.428,3.428,0,0,1,38.722,44.3h6.226a1.557,1.557,0,0,0,0-3.113H38.722a6.544,6.544,0,0,0-6.537,6.537V66.4a3.424,3.424,0,1,1-6.848,0V54.044a1.557,1.557,0,1,0-3.113,0V66.4A6.545,6.545,0,0,0,28.761,72.94Z" fill="none" stroke="#45413c" stroke-linecap="round" stroke-linejoin="round"></path><path d="M43.212,41.589a1.868,1.868,0,0,1,2.639-.084L79.509,73.873A1.868,1.868,0,1,1,76.953,76.6L43.3,44.229A1.868,1.868,0,0,1,43.212,41.589Z" fill="#656769" stroke="#45413c" stroke-linecap="round" stroke-linejoin="round"></path><path d="M85.79,73.873c3.9,0,7.134,1.5,7.7,3.458a.479.479,0,0,1-.461.613H74.618V73.873Z" fill="#656769" stroke="#45413c" stroke-linecap="round" stroke-linejoin="round"></path><path d="M82.406,77.945c0-2.249-3.487-4.072-7.788-4.072-3.9,0-7.134,1.5-7.7,3.458a.481.481,0,0,0,.462.614Z" fill="#656769" stroke="#45413c" stroke-linecap="round" stroke-linejoin="round"></path><path d="M39.884,54.413a8.8,8.8,0,0,0,6.779-3.175l2.377-2.853A2.49,2.49,0,0,0,45.213,45.2L42.836,48.05a3.837,3.837,0,0,1-5.977-4.812l4.763-6.125a2.49,2.49,0,1,0-3.932-3.057L32.928,40.18a8.82,8.82,0,0,0,6.956,14.233Z" fill="#f0f0f0" stroke="#45413c" stroke-linecap="round" stroke-linejoin="round"></path><path d="M35.773,36.521A3.737,3.737,0,0,1,39.614,39.7" fill="none" stroke="#45413c" stroke-linecap="round" stroke-linejoin="round"></path><path d="M32.835,40.3a3.742,3.742,0,0,1,4.2,2.71" fill="none" stroke="#45413c" stroke-linecap="round" stroke-linejoin="round"></path><path d="M31.266,47.442A3.739,3.739,0,0,1,36.057,45.5" fill="none" stroke="#45413c" stroke-linecap="round" stroke-linejoin="round"></path><path d="M36.784,53.849a3.737,3.737,0,0,1,.6-5.351" fill="none" stroke="#45413c" stroke-linecap="round" stroke-linejoin="round"></path><path d="M42.159,48.688a3.736,3.736,0,0,1,.172,5.38" fill="none" stroke="#45413c" stroke-linecap="round" stroke-linejoin="round"></path><path d="M57.492,50.574A3.738,3.738,0,0,1,61.2,47.3l.111,0" fill="none" stroke="#45413c" stroke-linecap="round" stroke-linejoin="round"></path><path d="M60.136,55.154a3.736,3.736,0,0,1,3.636-2.878,3.79,3.79,0,0,1,.467.029" fill="none" stroke="#45413c" stroke-linecap="round" stroke-linejoin="round"></path><path d="M23.783 78.567 A19.466 1.718 0 1 0 62.715 78.567 A19.466 1.718 0 1 0 23.783 78.567 Z" fill="#45413c" opacity=".15"></path></g></svg>