<svg xmlns="http://www.w3.org/2000/svg" version="1.1" xmlns:xlink="http://www.w3.org/1999/xlink" xmlns:svgjs="http://svgjs.com/svgjs" viewBox="0 0 160 160" width="160" height="160"><g transform="matrix(1.6,0,0,1.6,0,0)"><path d="M10.000 53.433 A40.000 40.000 0 1 0 90.000 53.433 A40.000 40.000 0 1 0 10.000 53.433 Z" fill="#e8f4fa" stroke="#daedf7" stroke-miterlimit="10"></path><path d="M12.615 91.237 A20.799 1.736 0 1 0 54.213 91.237 A20.799 1.736 0 1 0 12.615 91.237 Z" fill="#45413c" opacity=".15"></path><path d="M53.855,75.875a112.636,112.636,0,0,1-40.459,0l2.813-6.529H51.03Z" fill="#8ca4b8"></path><path d="M53.072 74.066L51.03 69.346 16.209 69.346 14.175 74.066 53.072 74.066z" fill="#627b8c"></path><path d="M47.551,77.709a1.393,1.393,0,0,1-1.393-1.394V73.529a1.394,1.394,0,0,0-1.393-1.393h-2.09a1.393,1.393,0,0,1,0-2.786h2.09a4.184,4.184,0,0,1,4.179,4.179v2.786A1.393,1.393,0,0,1,47.551,77.709Z" fill="#e0e0e0" stroke="#45413c" stroke-linecap="round" stroke-linejoin="round"></path><path d="M50.836,51.287a70.468,70.468,0,0,0-34.431,0,2.758,2.758,0,0,0-2,3.011L16.208,69.35H51.034L52.84,54.3A2.76,2.76,0,0,0,50.836,51.287Z" fill="#f0f0f0"></path><path d="M51.655,64.1l-.625,5.244H16.209L15.584,64.1a2.538,2.538,0,0,1,.822-.382,70.717,70.717,0,0,1,34.427,0A2.538,2.538,0,0,1,51.655,64.1Z" fill="#e0e0e0"></path><path d="M50.836,51.287a70.468,70.468,0,0,0-34.431,0,2.758,2.758,0,0,0-2,3.011L16.208,69.35H51.034L52.84,54.3A2.76,2.76,0,0,0,50.836,51.287Z" fill="none" stroke="#45413c" stroke-linecap="round" stroke-linejoin="round"></path><path d="M46.087,56.27a51.02,51.02,0,0,0-24.933,0,2,2,0,0,0-1.45,2.181l1.307,10.9H46.23l1.308-10.9A2,2,0,0,0,46.087,56.27Z" fill="#87898c"></path><path d="M19.9,60.112a1.956,1.956,0,0,1,1.251-1.028,51.044,51.044,0,0,1,24.933,0,1.957,1.957,0,0,1,1.252,1.028l.2-1.661a2,2,0,0,0-1.451-2.181,51.02,51.02,0,0,0-24.933,0,2,2,0,0,0-1.45,2.181Z" fill="#656769"></path><path d="M46.087,56.27a51.02,51.02,0,0,0-24.933,0,2,2,0,0,0-1.45,2.181l1.307,10.9H46.23l1.308-10.9A2,2,0,0,0,46.087,56.27Z" fill="none" stroke="#45413c" stroke-linecap="round" stroke-linejoin="round"></path><path d="M23.87 72.833H28.746000000000002V77.709H23.87z" fill="#e0e0e0" stroke="#45413c" stroke-linecap="round" stroke-linejoin="round"></path><path d="M23.87,72.833H21.083A2.786,2.786,0,0,0,18.3,75.619v1.036" fill="none" stroke="#45413c" stroke-linecap="round" stroke-linejoin="round"></path><path d="M14.382 53.994L28.389 77.586" fill="none" stroke="#45413c" stroke-linecap="round" stroke-linejoin="round"></path><path d="M53.855,75.875a112.636,112.636,0,0,1-40.459,0l2.813-6.529H51.03Z" fill="none" stroke="#45413c" stroke-linecap="round" stroke-linejoin="round"></path><path d="M42.675,78.405H28.745V68.957a1,1,0,0,1,1-1h11.93a1,1,0,0,1,1,1Z" fill="#c0dceb"></path><path d="M41.676,67.957H29.745a1,1,0,0,0-1,1v2.805a1,1,0,0,1,1-1H41.676a1,1,0,0,1,1,1V68.957A1,1,0,0,0,41.676,67.957Z" fill="#daedf7"></path><path d="M42.675,78.405H28.745V68.957a1,1,0,0,1,1-1h11.93a1,1,0,0,1,1,1Z" fill="none" stroke="#45413c" stroke-linecap="round" stroke-linejoin="round"></path><path d="M40.869 71.027L34.601 71.027" fill="none" stroke="#45413c" stroke-linecap="round" stroke-linejoin="round"></path><path d="M40.869 73.813L34.601 73.813" fill="none" stroke="#45413c" stroke-linecap="round" stroke-linejoin="round"></path><path d="M53.1,89.833H48.138a1,1,0,0,1-1-1V82.171H54.1v6.662A1,1,0,0,1,53.1,89.833Z" fill="#525252" stroke="#45413c" stroke-linecap="round" stroke-linejoin="round"></path><path d="M14.705,89.833H19.67a1,1,0,0,0,1-1V82.171H13.705v6.662A1,1,0,0,0,14.705,89.833Z" fill="#525252" stroke="#45413c" stroke-linecap="round" stroke-linejoin="round"></path><path d="M52.427,84.742H14.815a2.786,2.786,0,0,1-2.786-2.786V77a1.15,1.15,0,0,1,1.362-1.129,112.455,112.455,0,0,0,40.459,0A1.151,1.151,0,0,1,55.213,77v4.953A2.786,2.786,0,0,1,52.427,84.742Z" fill="#ffffff"></path><path d="M52.427,82.427H14.815a2.786,2.786,0,0,1-2.786-2.786v2.315a2.786,2.786,0,0,0,2.786,2.786H52.427a2.786,2.786,0,0,0,2.786-2.786V79.641A2.786,2.786,0,0,1,52.427,82.427Z" fill="#f0f0f0"></path><path d="M52.427,84.742H14.815a2.786,2.786,0,0,1-2.786-2.786V77a1.15,1.15,0,0,1,1.362-1.129,112.455,112.455,0,0,0,40.459,0A1.151,1.151,0,0,1,55.213,77v4.953A2.786,2.786,0,0,1,52.427,84.742Z" fill="none" stroke="#45413c" stroke-linecap="round" stroke-linejoin="round"></path><path d="M12.03,79.533a1.161,1.161,0,0,0,1.157,1.158H23.1c.15,0,.3,0,.439-.012a3.227,3.227,0,0,0,2.895-3.207v.005a113.994,113.994,0,0,1-13.039-1.6A1.15,1.15,0,0,0,12.029,77v2.638" fill="#ff8a14" stroke="#45413c" stroke-linecap="round" stroke-linejoin="round"></path><path d="M12.81,75.916c-.177,2.624,4.5,4.775,10.287,4.775.15,0,.3,0,.439-.012a3.263,3.263,0,0,0,1.123-.33,3.22,3.22,0,0,0,1.772-2.877v.005a113.994,113.994,0,0,1-13.039-1.6A1.167,1.167,0,0,0,12.81,75.916Z" fill="#ffe500"></path><path d="M21.441,77.044q-4.024-.439-8.05-1.17a1.167,1.167,0,0,0-.581.042c-.124,1.844,2.146,3.454,5.516,4.248Z" fill="#fff48c"></path><path d="M12.81,75.916c-.177,2.624,4.5,4.775,10.287,4.775.15,0,.3,0,.439-.012a3.263,3.263,0,0,0,1.123-.33,3.22,3.22,0,0,0,1.772-2.877v.005a113.994,113.994,0,0,1-13.039-1.6A1.167,1.167,0,0,0,12.81,75.916Z" fill="none" stroke="#45413c" stroke-linecap="round" stroke-linejoin="round"></path><path d="M55.212,79.533a1.161,1.161,0,0,1-1.158,1.158H44.145c-.151,0-.3,0-.44-.012a3.227,3.227,0,0,1-2.894-3.207v.005a113.939,113.939,0,0,0,13.039-1.6A1.151,1.151,0,0,1,55.213,77v2.638" fill="#ff8a14" stroke="#45413c" stroke-linecap="round" stroke-linejoin="round"></path><path d="M54.431,75.916c.177,2.624-4.5,4.775-10.286,4.775-.151,0-.3,0-.44-.012a3.258,3.258,0,0,1-1.122-.33,3.218,3.218,0,0,1-1.772-2.877v.005a113.939,113.939,0,0,0,13.039-1.6A1.167,1.167,0,0,1,54.431,75.916Z" fill="#ffe500"></path><path d="M45.8,77.044q4.026-.439,8.05-1.17a1.167,1.167,0,0,1,.581.042c.125,1.844-2.146,3.454-5.515,4.248Z" fill="#fff48c"></path><path d="M54.431,75.916c.177,2.624-4.5,4.775-10.286,4.775-.151,0-.3,0-.44-.012a3.258,3.258,0,0,1-1.122-.33,3.218,3.218,0,0,1-1.772-2.877v.005a113.939,113.939,0,0,0,13.039-1.6A1.167,1.167,0,0,1,54.431,75.916Z" fill="none" stroke="#45413c" stroke-linecap="round" stroke-linejoin="round"></path><path d="M86.244,30.209l-2.933-1.7a13.854,13.854,0,0,0,0-7.02l2.933-1.7a1.449,1.449,0,0,0,.531-1.981L84.6,14.046a1.449,1.449,0,0,0-1.983-.53l-2.936,1.692A13.754,13.754,0,0,0,73.6,11.7V8.31A1.452,1.452,0,0,0,72.15,6.859H67.8A1.45,1.45,0,0,0,66.344,8.31V11.7a13.752,13.752,0,0,0-6.078,3.51L57.33,13.516a1.449,1.449,0,0,0-1.983.53L53.17,17.817A1.449,1.449,0,0,0,53.7,19.8l2.933,1.7a13.854,13.854,0,0,0,0,7.02l-2.933,1.7a1.45,1.45,0,0,0-.531,1.982l2.177,3.771a1.451,1.451,0,0,0,1.983.53L60.266,34.8a13.752,13.752,0,0,0,6.078,3.51V41.7A1.45,1.45,0,0,0,67.8,43.149H72.15A1.452,1.452,0,0,0,73.6,41.7V38.309a13.754,13.754,0,0,0,6.077-3.51l2.936,1.693a1.451,1.451,0,0,0,1.983-.53l2.177-3.771A1.45,1.45,0,0,0,86.244,30.209Zm-16.271,1.98A7.186,7.186,0,1,1,77.158,25,7.185,7.185,0,0,1,69.973,32.189Z" fill="#daedf7"></path><path d="M79.679,15.208A13.754,13.754,0,0,0,73.6,11.7V8.31A1.452,1.452,0,0,0,72.15,6.859H67.8A1.45,1.45,0,0,0,66.344,8.31V11.7a13.752,13.752,0,0,0-6.078,3.51L57.33,13.516a1.449,1.449,0,0,0-1.983.53L53.17,17.817A1.449,1.449,0,0,0,53.7,19.8l2.933,1.7a13.854,13.854,0,0,0,0,7.02l-2.933,1.7a1.45,1.45,0,0,0-.531,1.982l2.177,3.771a1.451,1.451,0,0,0,1.983.53l2.732-1.576,4.831-4.831A7.185,7.185,0,1,1,75.054,19.924l4.84-4.84Z" fill="#ffffff"></path><path d="M86.244,30.209l-2.933-1.7a13.854,13.854,0,0,0,0-7.02l2.933-1.7a1.449,1.449,0,0,0,.531-1.981L84.6,14.046a1.449,1.449,0,0,0-1.983-.53l-2.936,1.692A13.754,13.754,0,0,0,73.6,11.7V8.31A1.452,1.452,0,0,0,72.15,6.859H67.8A1.45,1.45,0,0,0,66.344,8.31V11.7a13.752,13.752,0,0,0-6.078,3.51L57.33,13.516a1.449,1.449,0,0,0-1.983.53L53.17,17.817A1.449,1.449,0,0,0,53.7,19.8l2.933,1.7a13.854,13.854,0,0,0,0,7.02l-2.933,1.7a1.45,1.45,0,0,0-.531,1.982l2.177,3.771a1.451,1.451,0,0,0,1.983.53L60.266,34.8a13.752,13.752,0,0,0,6.078,3.51V41.7A1.45,1.45,0,0,0,67.8,43.149H72.15A1.452,1.452,0,0,0,73.6,41.7V38.309a13.754,13.754,0,0,0,6.077-3.51l2.936,1.693a1.451,1.451,0,0,0,1.983-.53l2.177-3.771A1.45,1.45,0,0,0,86.244,30.209Zm-16.271,1.98A7.186,7.186,0,1,1,77.158,25,7.185,7.185,0,0,1,69.973,32.189Z" fill="none" stroke="#45413c" stroke-linecap="round" stroke-linejoin="round"></path><path d="M22.857,39.257l3.22-1.534c-3.048-7.32,1.75-16.635,10.949-21.014a22.962,22.962,0,0,1,9.784-2.28,19.378,19.378,0,0,1,3.356.287,1.255,1.255,0,0,1,1.048,1.319,1.236,1.236,0,0,1-1.182,1.192,22.182,22.182,0,0,0-7.975,2.147,20.4,20.4,0,0,0-8.792,7.6c-1.664,2.786-2.084,5.567-1.211,7.9l3.1-1.478-2.824,9.2Z" fill="#6dd627" stroke="#46b000" stroke-linecap="round" stroke-linejoin="round"></path><path d="M60.927,68.661A21.034,21.034,0,0,1,49.96,65.736a1.252,1.252,0,0,1,.629-2.324,1.311,1.311,0,0,1,.4.063,20.927,20.927,0,0,0,6.336.942c.553,0,1.114-.019,1.679-.06A19.917,19.917,0,0,0,69.7,60.57c2.5-1.937,3.867-4.308,3.908-6.734l-3.367.241,5.869-7.4,7.472,6.441-3.495.251a13.218,13.218,0,0,1-4.752,10.1,21.247,21.247,0,0,1-12.7,5.128C62.059,68.642,61.49,68.661,60.927,68.661Z" fill="#ff6242" stroke="#e04122" stroke-linecap="round" stroke-linejoin="round"></path><path d="M41.287,67.921H36.411V66.135a1,1,0,0,1,1-1h2.876a1,1,0,0,1,1,1Z" fill="#00ad85" stroke="#45413c" stroke-linecap="round" stroke-linejoin="round"></path><path d="M46.241,58.293,44.522,57.3a8.15,8.15,0,0,0,0-4.115l1.719-.994a.849.849,0,0,0,.311-1.161l-1.276-2.211a.85.85,0,0,0-1.162-.311l-1.721.992a8.078,8.078,0,0,0-3.563-2.057V45.456a.85.85,0,0,0-.851-.851H35.426a.85.85,0,0,0-.851.851v1.986A8.072,8.072,0,0,0,31.012,49.5l-1.721-.992a.849.849,0,0,0-1.162.311l-1.276,2.211a.848.848,0,0,0,.311,1.161l1.719.994a8.12,8.12,0,0,0,0,4.115l-1.719.994a.849.849,0,0,0-.311,1.162l1.276,2.21a.849.849,0,0,0,1.162.311l1.721-.992a8.063,8.063,0,0,0,3.563,2.057v1.987a.85.85,0,0,0,.851.85h2.553a.85.85,0,0,0,.851-.85V63.041a8.068,8.068,0,0,0,3.563-2.057l1.721.992a.849.849,0,0,0,1.162-.311l1.276-2.21A.85.85,0,0,0,46.241,58.293ZM36.7,59.454a4.212,4.212,0,1,1,4.212-4.212A4.212,4.212,0,0,1,36.7,59.454Z" fill="#daedf7"></path><path d="M42.393,49.5a8.078,8.078,0,0,0-3.563-2.057V45.456a.85.85,0,0,0-.851-.851H35.426a.85.85,0,0,0-.851.851v1.986A8.072,8.072,0,0,0,31.012,49.5l-1.721-.992a.849.849,0,0,0-1.162.311l-1.276,2.211a.848.848,0,0,0,.311,1.161l1.719.994a8.12,8.12,0,0,0,0,4.115l-1.719.994a.849.849,0,0,0-.311,1.162l1.276,2.21a.849.849,0,0,0,1.162.311l1.6-.923,2.832-2.832a4.212,4.212,0,1,1,5.956-5.957l2.838-2.837Z" fill="#ffffff"></path><path d="M46.241,58.293,44.522,57.3a8.15,8.15,0,0,0,0-4.115l1.719-.994a.849.849,0,0,0,.311-1.161l-1.276-2.211a.85.85,0,0,0-1.162-.311l-1.721.992a8.078,8.078,0,0,0-3.563-2.057V45.456a.85.85,0,0,0-.851-.851H35.426a.85.85,0,0,0-.851.851v1.986A8.072,8.072,0,0,0,31.012,49.5l-1.721-.992a.849.849,0,0,0-1.162.311l-1.276,2.211a.848.848,0,0,0,.311,1.161l1.719.994a8.12,8.12,0,0,0,0,4.115l-1.719.994a.849.849,0,0,0-.311,1.162l1.276,2.21a.849.849,0,0,0,1.162.311l1.721-.992a8.063,8.063,0,0,0,3.563,2.057v1.987a.85.85,0,0,0,.851.85h2.553a.85.85,0,0,0,.851-.85V63.041a8.068,8.068,0,0,0,3.563-2.057l1.721.992a.849.849,0,0,0,1.162-.311l1.276-2.21A.85.85,0,0,0,46.241,58.293ZM36.7,59.454a4.212,4.212,0,1,1,4.212-4.212A4.212,4.212,0,0,1,36.7,59.454Z" fill="none" stroke="#45413c" stroke-linecap="round" stroke-linejoin="round"></path></g></svg>