<svg xmlns="http://www.w3.org/2000/svg" version="1.1" xmlns:xlink="http://www.w3.org/1999/xlink" xmlns:svgjs="http://svgjs.com/svgjs" viewBox="0 0 160 160" width="160" height="160"><g transform="matrix(1.6,0,0,1.6,0,0)"><path d="M7.382 52.761 A40.000 40.000 0 1 0 87.382 52.761 A40.000 40.000 0 1 0 7.382 52.761 Z" fill="#c7f0ff" stroke="#c7f0ff" stroke-miterlimit="10"></path><path d="M65.050 23.321 A10.721 10.721 0 1 0 86.492 23.321 A10.721 10.721 0 1 0 65.050 23.321 Z" fill="#ffe500"></path><path d="M75.771,16.429a10.717,10.717,0,0,1,10.541,8.806,10.722,10.722,0,1,0-21.081,0A10.716,10.716,0,0,1,75.771,16.429Z" fill="#fff48c"></path><path d="M65.050 23.321 A10.721 10.721 0 1 0 86.492 23.321 A10.721 10.721 0 1 0 65.050 23.321 Z" fill="none" stroke="#45413c" stroke-linecap="round" stroke-linejoin="round"></path><path d="M75.771 9.537L75.771 7.239" fill="none" stroke="#45413c" stroke-linecap="round" stroke-linejoin="round"></path><path d="M66.024 13.574L64.4 11.95" fill="none" stroke="#45413c" stroke-linecap="round" stroke-linejoin="round"></path><path d="M61.987 23.321L59.69 23.321" fill="none" stroke="#45413c" stroke-linecap="round" stroke-linejoin="round"></path><path d="M66.024 33.067L64.4 34.692" fill="none" stroke="#45413c" stroke-linecap="round" stroke-linejoin="round"></path><path d="M86.284 13.574L87.908 11.95" fill="none" stroke="#45413c" stroke-linecap="round" stroke-linejoin="round"></path><path d="M90.321 23.321L92.618 23.321" fill="none" stroke="#45413c" stroke-linecap="round" stroke-linejoin="round"></path><path d="M86.284 33.067L87.908 34.692" fill="none" stroke="#45413c" stroke-linecap="round" stroke-linejoin="round"></path><path d="M75.771 37.104L75.771 39.402" fill="none" stroke="#45413c" stroke-linecap="round" stroke-linejoin="round"></path><path d="M52.935,66.572V31.9a6.754,6.754,0,0,0-13.508,0V66.572a10.131,10.131,0,1,0,13.508,0Z" fill="#f0f0f0"></path><path d="M39.427,31.9V66.572a10.12,10.12,0,0,0,6.754,17.667v-59.1A6.754,6.754,0,0,0,39.427,31.9Z" fill="#ffffff"></path><path d="M47.87,71.2V32.739a1.689,1.689,0,0,0-3.377,0V71.2a3.323,3.323,0,0,0-1.689,2.9,3.377,3.377,0,1,0,6.754,0A3.322,3.322,0,0,0,47.87,71.2Z" fill="#ff6242"></path><path d="M52.935,66.572V31.9a6.754,6.754,0,0,0-13.508,0V66.572a10.131,10.131,0,1,0,13.508,0Z" fill="none" stroke="#45413c" stroke-linecap="round" stroke-linejoin="round"></path><path d="M47.87,44.5V32.739a1.689,1.689,0,0,0-3.377,0V44.5Z" fill="#f0f0f0"></path><path d="M47.87,71.2V32.739a1.689,1.689,0,0,0-3.377,0V71.2a3.323,3.323,0,0,0-1.689,2.9,3.377,3.377,0,1,0,6.754,0A3.322,3.322,0,0,0,47.87,71.2Z" fill="none" stroke="#45413c" stroke-linecap="round" stroke-linejoin="round"></path></g></svg>