<svg xmlns="http://www.w3.org/2000/svg" version="1.1" xmlns:xlink="http://www.w3.org/1999/xlink" xmlns:svgjs="http://svgjs.com/svgjs" viewBox="0 0 160 160" width="160" height="160"><g transform="matrix(1.6,0,0,1.6,0,0)"><path d="M10.000 50.000 A40.000 40.000 0 1 0 90.000 50.000 A40.000 40.000 0 1 0 10.000 50.000 Z" fill="#c7f0ff" stroke="#c7f0ff" stroke-miterlimit="10"></path><path d="M18.833 25.944 L81.166 25.944 L81.166 31.193 L18.833 31.193 Z" fill="#87898c"></path><path d="M80.067,25.944H19.933a1.1,1.1,0,0,0-1.1,1.1v2.475a1.1,1.1,0,0,1,1.1-1.1H80.067a1.1,1.1,0,0,1,1.1,1.1V27.044A1.1,1.1,0,0,0,80.067,25.944Z" fill="#bdbec0"></path><path d="M18.833 25.944 L81.166 25.944 L81.166 31.193 L18.833 31.193 Z" fill="none" stroke="#45413c" stroke-linecap="round" stroke-linejoin="round"></path><path d="M78.689,70.919a1.1,1.1,0,0,1-1.1,1.1H22.411a1.1,1.1,0,0,1-1.1-1.1V31.193H78.689Z" fill="#ffffff"></path><path d="M21.311 31.193H78.689V33.927H21.311z" fill="#f0f0f0"></path><path d="M78.689,70.919a1.1,1.1,0,0,1-1.1,1.1H22.411a1.1,1.1,0,0,1-1.1-1.1V31.193H78.689Z" fill="none" stroke="#45413c" stroke-linecap="round" stroke-linejoin="round"></path><path d="M50 72.019L50 77.668" fill="none" stroke="#45413c" stroke-linecap="round" stroke-linejoin="round"></path><path d="M47.334 80.334 A2.666 2.666 0 1 0 52.666 80.334 A2.666 2.666 0 1 0 47.334 80.334 Z" fill="none" stroke="#45413c" stroke-linecap="round" stroke-linejoin="round"></path><path d="M50 42.678L50 58.674" fill="none" stroke="#45413c" stroke-linecap="round" stroke-linejoin="round"></path><path d="M34.2,58.674v-13.8a2.2,2.2,0,0,1,2.2-2.2H63.6a2.2,2.2,0,0,1,2.2,2.2v13.8" fill="none" stroke="#45413c" stroke-linecap="round" stroke-linejoin="round"></path><path d="M42.488 38.812 L57.512 38.812 L57.512 46.543 L42.488 46.543 Z" fill="#4acfff" stroke="#45413c" stroke-linecap="round" stroke-linejoin="round"></path><path d="M29.262 58.674 A4.935 4.935 0 1 0 39.132 58.674 A4.935 4.935 0 1 0 29.262 58.674 Z" fill="#9ceb60" stroke="#45413c" stroke-linecap="round" stroke-linejoin="round"></path><path d="M45.065 58.674 A4.935 4.935 0 1 0 54.935 58.674 A4.935 4.935 0 1 0 45.065 58.674 Z" fill="#9ceb60" stroke="#45413c" stroke-linecap="round" stroke-linejoin="round"></path><path d="M60.868 58.674 A4.935 4.935 0 1 0 70.738 58.674 A4.935 4.935 0 1 0 60.868 58.674 Z" fill="#9ceb60" stroke="#45413c" stroke-linecap="round" stroke-linejoin="round"></path></g></svg>