<svg xmlns="http://www.w3.org/2000/svg" version="1.1" xmlns:xlink="http://www.w3.org/1999/xlink" xmlns:svgjs="http://svgjs.com/svgjs" viewBox="0 0 160 160" width="160" height="160"><g transform="matrix(1.6,0,0,1.6,0,0)"><path d="M10.000 52.131 A40.000 40.000 0 1 0 90.000 52.131 A40.000 40.000 0 1 0 10.000 52.131 Z" fill="#e8f4fa" stroke="#daedf7" stroke-miterlimit="10"></path><path d="M16.721 83.541 A12.227 1.733 0 1 0 41.175 83.541 A12.227 1.733 0 1 0 16.721 83.541 Z" fill="#45413c" opacity=".15"></path><path d="M20.984,80.749v-3.9a1.323,1.323,0,0,0,.83.291h4.479v3.541Z" fill="#ffffff" stroke="#45413c" stroke-linecap="round" stroke-linejoin="round"></path><path d="M20.182,83.115a1.323,1.323,0,0,1-1.191-1.925,3.981,3.981,0,0,1,3.486-2.057h.664a3.98,3.98,0,0,1,3.486,2.057,1.323,1.323,0,0,1-1.19,1.925Z" fill="#f0f0f0" stroke="#45413c" stroke-linecap="round" stroke-linejoin="round"></path><path d="M42.221,57.233V47.278A13.276,13.276,0,0,0,33.452,34.79l-2.346,4.224a1.321,1.321,0,0,0-.167.644v14.92a2.655,2.655,0,0,0,2.654,2.655Z" fill="#009fd9"></path><path d="M20.32,59.887l.166,15.928a1.328,1.328,0,0,0,1.328,1.327h4.645L26.818,66.6a2.131,2.131,0,0,1,4.26,0l.359,10.545h4.645a1.327,1.327,0,0,0,1.327-1.327l.166-15.928Z" fill="#f7e5c6"></path><path d="M37.575 59.887L20.32 59.887 20.37 63.206 37.526 63.206 37.575 59.887z" fill="#f0d5a8"></path><path d="M20.32,59.887l.166,15.928a1.328,1.328,0,0,0,1.328,1.327h4.645L26.818,66.6a2.131,2.131,0,0,1,4.26,0l.359,10.545h4.645a1.327,1.327,0,0,0,1.327-1.327l.166-15.928Z" fill="none" stroke="#45413c" stroke-linecap="round" stroke-linejoin="round"></path><path d="M33.593,57.233a2.655,2.655,0,0,1-2.654-2.655V39.658a1.321,1.321,0,0,1,.167-.644l2.346-4.224a13.316,13.316,0,0,0-9.009,0l2.347,4.224a1.321,1.321,0,0,1,.167.644v14.92A2.655,2.655,0,0,1,24.3,57.233H20.32v2.654H37.575V57.233Z" fill="#f0f0f0" stroke="#45413c" stroke-linecap="round" stroke-linejoin="round"></path><path d="M33.452,34.79l-1.612,2.9c4.908,2.213,10.381,8.152,10.381,13.567V47.278A13.276,13.276,0,0,0,33.452,34.79Z" fill="#00b8f0"></path><path d="M42.221,57.233V47.278A13.276,13.276,0,0,0,33.452,34.79l-2.346,4.224a1.321,1.321,0,0,0-.167.644v14.92a2.655,2.655,0,0,0,2.654,2.655Z" fill="none" stroke="#45413c" stroke-linecap="round" stroke-linejoin="round"></path><path d="M36.912,80.683V76.851a1.323,1.323,0,0,1-.83.291H31.6v3.541Z" fill="#ffffff" stroke="#45413c" stroke-linecap="round" stroke-linejoin="round"></path><path d="M37.714,83.115a1.323,1.323,0,0,0,1.191-1.925,3.983,3.983,0,0,0-3.487-2.057h-.663a3.983,3.983,0,0,0-3.487,2.057,1.323,1.323,0,0,0,1.191,1.925Z" fill="#f0f0f0" stroke="#45413c" stroke-linecap="round" stroke-linejoin="round"></path><path d="M34.649,39.206a1.328,1.328,0,0,1-1.774.883l-1.895-.758a1.3,1.3,0,0,1,.126-.317l2.346-4.224a13.2,13.2,0,0,1,2.131.99Z" fill="#4acfff" stroke="#45413c" stroke-linecap="round" stroke-linejoin="round"></path><path d="M26.957,51.943V39.658a1.332,1.332,0,0,0-.167-.644L24.443,34.79a13.277,13.277,0,0,0-8.768,12.488v3.03A6.925,6.925,0,0,0,22.6,57.233h5.52v-5.29Z" fill="#009fd9"></path><path d="M26.957,51.943H23.783A3.463,3.463,0,0,1,20.32,48.48V44.624" fill="none" stroke="#45413c" stroke-linecap="round" stroke-linejoin="round"></path><path d="M15.8,51.622A18.045,18.045,0,0,1,25.9,37.41l-1.456-2.62a13.277,13.277,0,0,0-8.768,12.488v3.03a6.955,6.955,0,0,0,.125,1.315" fill="#00b8f0"></path><path d="M26.957,51.943V39.658a1.332,1.332,0,0,0-.167-.644L24.443,34.79a13.277,13.277,0,0,0-8.768,12.488v3.03A6.925,6.925,0,0,0,22.6,57.233h5.52v-5.29Z" fill="none" stroke="#45413c" stroke-linecap="round" stroke-linejoin="round"></path><path d="M23.247,39.206a1.327,1.327,0,0,0,1.773.883l1.9-.758a1.336,1.336,0,0,0-.126-.317L24.443,34.79a13.228,13.228,0,0,0-2.13.99Z" fill="#4acfff" stroke="#45413c" stroke-linecap="round" stroke-linejoin="round"></path><path d="M32.56,34.5a1,1,0,0,1-.727-.963l0-2.94H26.081l0,2.938a1,1,0,0,1-.729.962q-.459.129-.9.29c1.613,2.9,1.944,3.861,4.5,3.861s2.892-.958,4.505-3.861C33.16,34.684,32.862,34.589,32.56,34.5Z" fill="#ffcebf" stroke="#45413c" stroke-linecap="round" stroke-linejoin="round" stroke-width="1.009"></path><path d="M38.135,25.387A1.635,1.635,0,0,0,36.808,23.8V22.732a7.964,7.964,0,1,0-15.928,0V23.8a1.625,1.625,0,0,0,.167,3.218,7.965,7.965,0,0,0,15.594,0A1.643,1.643,0,0,0,38.135,25.387Z" fill="#ffcebf" stroke="#45413c" stroke-linecap="round" stroke-linejoin="round"></path><path d="M23.535 26.382 A0.995 0.995 0 1 0 25.525 26.382 A0.995 0.995 0 1 0 23.535 26.382 Z" fill="#ffb59e"></path><path d="M32.163 26.382 A0.995 0.995 0 1 0 34.153 26.382 A0.995 0.995 0 1 0 32.163 26.382 Z" fill="#ffb59e"></path><path d="M26.854,29.369a3.592,3.592,0,0,0,3.982,0" fill="none" stroke="#45413c" stroke-linecap="round" stroke-linejoin="round"></path><path d="M35.128,15.493a.4.4,0,0,1-.081-.417,6.41,6.41,0,0,0,.411-1.761.4.4,0,0,0-.474-.425,18.319,18.319,0,0,1-5.049-.036,8.513,8.513,0,0,0-1.09-.077,8.628,8.628,0,0,0-8.627,8.628v.963a1.426,1.426,0,0,0,.975,1.353.946.946,0,0,0,1.226-.711,6.505,6.505,0,0,1,2.762-4.432.4.4,0,0,1,.478.02,4.011,4.011,0,0,0,2.523.816,4.422,4.422,0,0,0,1.344-.209.4.4,0,0,1,.431.129,1.974,1.974,0,0,0,2.987.115.4.4,0,0,1,.578,0,6.543,6.543,0,0,1,1.75,3.564.944.944,0,0,0,1.225.711,1.426,1.426,0,0,0,.976-1.354v-.962A8.6,8.6,0,0,0,35.128,15.493Z" fill="#a86c4d"></path><path d="M29.26,14.6a8.526,8.526,0,0,1,1.09.076,20.261,20.261,0,0,0,4.81.08,6.349,6.349,0,0,0,.3-1.443.4.4,0,0,0-.474-.425,18.319,18.319,0,0,1-5.049-.036,8.513,8.513,0,0,0-1.09-.077,8.627,8.627,0,0,0-8.627,8.628v.962a1.424,1.424,0,0,0,.415,1.006v-.144A8.626,8.626,0,0,1,29.26,14.6Z" fill="#de926a"></path><path d="M35.128,15.493a.4.4,0,0,1-.081-.417,6.41,6.41,0,0,0,.411-1.761.4.4,0,0,0-.474-.425,18.319,18.319,0,0,1-5.049-.036,8.513,8.513,0,0,0-1.09-.077,8.628,8.628,0,0,0-8.627,8.628v.963a1.426,1.426,0,0,0,.975,1.353.946.946,0,0,0,1.226-.711,6.505,6.505,0,0,1,2.762-4.432.4.4,0,0,1,.478.02,4.011,4.011,0,0,0,2.523.816,4.422,4.422,0,0,0,1.344-.209.4.4,0,0,1,.431.129,1.974,1.974,0,0,0,2.987.115.4.4,0,0,1,.578,0,6.543,6.543,0,0,1,1.75,3.564.944.944,0,0,0,1.225.711,1.426,1.426,0,0,0,.976-1.354v-.962A8.6,8.6,0,0,0,35.128,15.493Z" fill="none" stroke="#45413c" stroke-linecap="round" stroke-linejoin="round"></path><path d="M27.518 23.396L30.173 23.396" fill="none" stroke="#45413c" stroke-linecap="round" stroke-linejoin="round"></path><path d="M26.665,26.05H23.726a.853.853,0,0,1-.854-.853V22.988a.256.256,0,0,1,.256-.256h4.134a.256.256,0,0,1,.256.256V25.2A.853.853,0,0,1,26.665,26.05Z" fill="#00b8f0"></path><path d="M23.168,22.732a.3.3,0,0,0-.3.3v2.037a.986.986,0,0,0,.986.985H24.2l1.991-3.318Z" fill="#4acfff"></path><path d="M26.665,26.05H23.726a.853.853,0,0,1-.854-.853V22.988a.256.256,0,0,1,.256-.256h4.134a.256.256,0,0,1,.256.256V25.2A.853.853,0,0,1,26.665,26.05Z" fill="none" stroke="#45413c" stroke-linecap="round" stroke-linejoin="round"></path><path d="M33.965,26.05H31.026a.853.853,0,0,1-.853-.853V22.988a.256.256,0,0,1,.256-.256h4.133a.256.256,0,0,1,.256.256V25.2A.853.853,0,0,1,33.965,26.05Z" fill="#00b8f0"></path><path d="M30.468,22.732a.3.3,0,0,0-.3.3v2.037a.985.985,0,0,0,.985.985H31.5l1.991-3.318Z" fill="#4acfff"></path><path d="M33.965,26.05H31.026a.853.853,0,0,1-.853-.853V22.988a.256.256,0,0,1,.256-.256h4.133a.256.256,0,0,1,.256.256V25.2A.853.853,0,0,1,33.965,26.05Z" fill="none" stroke="#45413c" stroke-linecap="round" stroke-linejoin="round"></path><path d="M45.927,41.777a3.433,3.433,0,0,1,1.9-1.227.439.439,0,0,0,.269-.671l-2.839-4.255a.885.885,0,0,0-1.228-.245L29.3,45.208a1.771,1.771,0,0,0-.49,2.456l9.338,14a.886.886,0,0,0,1.228.246l4.255-2.839a.438.438,0,0,1,.671.269,3.431,3.431,0,0,0,1.231,1.907A3.54,3.54,0,0,0,50.671,56.5a3.4,3.4,0,0,0-.818-.854.443.443,0,0,1,0-.731l4.988-3.328a.885.885,0,0,0,.245-1.228l-2.836-4.252a.444.444,0,0,0-.732,0,3.382,3.382,0,0,1-.854.818,3.54,3.54,0,0,1-4.741-5.143Z" fill="#ff6242"></path><path d="M47.222,40.758,46.2,39.221a.885.885,0,0,0-1.228-.245L30.234,48.805a1.782,1.782,0,0,0-.406.387l-1.019-1.528a1.771,1.771,0,0,1,.49-2.456l14.734-9.829a.885.885,0,0,1,1.228.245L48.1,39.879a.439.439,0,0,1-.269.671A3.475,3.475,0,0,0,47.222,40.758Z" fill="#ff866e"></path><path d="M45.927,41.777a3.433,3.433,0,0,1,1.9-1.227.439.439,0,0,0,.269-.671l-2.839-4.255a.885.885,0,0,0-1.228-.245L29.3,45.208a1.771,1.771,0,0,0-.49,2.456l9.338,14a.886.886,0,0,0,1.228.246l4.255-2.839a.438.438,0,0,1,.671.269,3.431,3.431,0,0,0,1.231,1.907A3.54,3.54,0,0,0,50.671,56.5a3.4,3.4,0,0,0-.818-.854.443.443,0,0,1,0-.731l4.988-3.328a.885.885,0,0,0,.245-1.228l-2.836-4.252a.444.444,0,0,0-.732,0,3.382,3.382,0,0,1-.854.818,3.54,3.54,0,0,1-4.741-5.143Z" fill="none" stroke="#45413c" stroke-linecap="round" stroke-linejoin="round"></path><path d="M43.356,60.667l-2.13,1.27a1.36,1.36,0,0,1-1.731-.258l-.875-1.021a1.34,1.34,0,0,1,.373-2.019l2.524-1.505a1.341,1.341,0,0,1,1.954.633l.482,1.255A1.36,1.36,0,0,1,43.356,60.667Z" fill="#ffcebf" stroke="#45413c" stroke-linecap="round" stroke-linejoin="round"></path><path d="M29.779,57.066a2.323,2.323,0,0,0,0-4.646H28.12v4.646Z" fill="#ffcebf" stroke="#45413c" stroke-linecap="round" stroke-linejoin="round"></path><path d="M84.894,20.779c.758-.448.827-1.732.155-2.87a3.1,3.1,0,0,0-1.2-1.18,1.335,1.335,0,0,0,1-.613c.42-.773-.18-1.91-1.34-2.541a2.717,2.717,0,0,0-2.144-.271c-.111-.137-.231-.266-.349-.4a1.439,1.439,0,0,0,1-1.029c.151-.868-.781-1.754-2.082-1.981a2.658,2.658,0,0,0-2.276.527l-.033-.014a1.285,1.285,0,0,0,.476-.947c0-.88-1.07-1.594-2.391-1.594s-2.391.714-2.391,1.594c0-.88-1.071-1.594-2.391-1.594s-2.391.714-2.391,1.594a1.288,1.288,0,0,0,.475.947l-.031.014A2.661,2.661,0,0,0,66.705,9.9c-1.3.227-2.233,1.113-2.082,1.981a1.439,1.439,0,0,0,1,1.029c-.118.131-.237.26-.349.4a2.714,2.714,0,0,0-2.143.271c-1.161.631-1.761,1.768-1.34,2.541a1.33,1.33,0,0,0,1,.613,3.1,3.1,0,0,0-1.2,1.18c-.672,1.138-.6,2.422.155,2.87a1.232,1.232,0,0,0,.921.11,2.559,2.559,0,0,0-.577,2.382c.254,1.3,1.16,2.21,2.024,2.041a1.094,1.094,0,0,0,.344-.138,10.34,10.34,0,0,0,17.724,0,1.094,1.094,0,0,0,.344.138c.864.169,1.77-.745,2.024-2.041a2.559,2.559,0,0,0-.577-2.382A1.231,1.231,0,0,0,84.894,20.779Z" fill="#724f3d"></path><path d="M85.05,17.909a3.1,3.1,0,0,0-1.2-1.18,1.335,1.335,0,0,0,1-.613c.42-.773-.181-1.911-1.34-2.541a2.717,2.717,0,0,0-2.144-.271c-.111-.138-.231-.266-.349-.4a1.441,1.441,0,0,0,1-1.029c.151-.868-.781-1.754-2.082-1.981a2.658,2.658,0,0,0-2.276.527c-.011,0-.022-.011-.033-.014a1.285,1.285,0,0,0,.476-.947c0-.88-1.071-1.594-2.39-1.594s-2.392.714-2.392,1.594c0-.88-1.071-1.594-2.391-1.594s-2.391.714-2.391,1.594a1.288,1.288,0,0,0,.475.947c-.01,0-.021.01-.031.014A2.66,2.66,0,0,0,66.706,9.9c-1.3.227-2.234,1.113-2.083,1.981a1.439,1.439,0,0,0,1,1.029c-.117.131-.237.259-.349.4a2.714,2.714,0,0,0-2.143.271c-1.161.63-1.761,1.768-1.34,2.541a1.33,1.33,0,0,0,1,.613,3.091,3.091,0,0,0-1.2,1.18c-.672,1.138-.6,2.422.156,2.87a1.166,1.166,0,0,0,.748.14,4.133,4.133,0,0,1,.374-.874,2.765,2.765,0,0,1,1.068-1.052,1.189,1.189,0,0,1-.891-.545c-.375-.689.159-1.7,1.193-2.265a3.22,3.22,0,0,1,2.221-.6,1.283,1.283,0,0,1-.889-.917c-.134-.773.7-1.563,1.855-1.765a2.371,2.371,0,0,1,2.029.469l.028-.013a1.143,1.143,0,0,1-.424-.843c0-.783.954-1.42,2.13-1.42s2.131.637,2.131,1.42c0-.783.954-1.42,2.131-1.42s2.13.637,2.13,1.42a1.143,1.143,0,0,1-.424.843l.029.013a2.368,2.368,0,0,1,2.028-.469c1.159.2,1.99.992,1.855,1.765a1.281,1.281,0,0,1-.889.917,3.744,3.744,0,0,1,2.22.6c1.034.561,1.569,1.576,1.194,2.265a1.189,1.189,0,0,1-.891.545,2.765,2.765,0,0,1,1.068,1.052,3.515,3.515,0,0,1,.338.869,1.174,1.174,0,0,0,.784-.135C85.652,20.331,85.721,19.047,85.05,17.909Z" fill="#a86c4d"></path><path d="M84.894,20.779c.758-.448.827-1.732.155-2.87a3.1,3.1,0,0,0-1.2-1.18,1.335,1.335,0,0,0,1-.613c.42-.773-.18-1.91-1.34-2.541a2.717,2.717,0,0,0-2.144-.271c-.111-.137-.231-.266-.349-.4a1.439,1.439,0,0,0,1-1.029c.151-.868-.781-1.754-2.082-1.981a2.658,2.658,0,0,0-2.276.527l-.033-.014a1.285,1.285,0,0,0,.476-.947c0-.88-1.07-1.594-2.391-1.594s-2.391.714-2.391,1.594c0-.88-1.071-1.594-2.391-1.594s-2.391.714-2.391,1.594a1.288,1.288,0,0,0,.475.947l-.031.014A2.661,2.661,0,0,0,66.705,9.9c-1.3.227-2.233,1.113-2.082,1.981a1.439,1.439,0,0,0,1,1.029c-.118.131-.237.26-.349.4a2.714,2.714,0,0,0-2.143.271c-1.161.631-1.761,1.768-1.34,2.541a1.33,1.33,0,0,0,1,.613,3.1,3.1,0,0,0-1.2,1.18c-.672,1.138-.6,2.422.155,2.87a1.232,1.232,0,0,0,.921.11,2.559,2.559,0,0,0-.577,2.382c.254,1.3,1.16,2.21,2.024,2.041a1.094,1.094,0,0,0,.344-.138,10.34,10.34,0,0,0,17.724,0,1.094,1.094,0,0,0,.344.138c.864.169,1.77-.745,2.024-2.041a2.559,2.559,0,0,0-.577-2.382A1.231,1.231,0,0,0,84.894,20.779Z" fill="none" stroke="#45413c" stroke-linecap="round" stroke-linejoin="round"></path><path d="M77.438,36.373c0-1.321.713-2.391,1.594-2.391s1.594,1.07,1.594,2.391-.713,2.391-1.594,2.391S77.438,37.693,77.438,36.373Z" fill="#724f3d" stroke="#45413c" stroke-linecap="round" stroke-linejoin="round"></path><path d="M77.438,33.184c0-1.321.713-2.391,1.594-2.391s1.594,1.07,1.594,2.391-.713,2.391-1.594,2.391S77.438,34.505,77.438,33.184Z" fill="#724f3d" stroke="#45413c" stroke-linecap="round" stroke-linejoin="round"></path><path d="M77.438,30c0-1.32.713-2.392,1.594-2.392S80.626,28.676,80.626,30s-.713,2.391-1.594,2.391S77.438,31.317,77.438,30Z" fill="#724f3d" stroke="#45413c" stroke-linecap="round" stroke-linejoin="round"></path><path d="M81.423,41.155c0,.926-1.176,2.514-1.878,3.379a.659.659,0,0,1-1.025,0c-.7-.865-1.879-2.453-1.879-3.379a2.391,2.391,0,0,1,4.782,0Z" fill="#724f3d" stroke="#45413c" stroke-linecap="round" stroke-linejoin="round"></path><path d="M69.2,36.373c0-1.321-.714-2.391-1.595-2.391s-1.594,1.07-1.594,2.391.714,2.391,1.594,2.391S69.2,37.693,69.2,36.373Z" fill="#724f3d" stroke="#45413c" stroke-linecap="round" stroke-linejoin="round"></path><path d="M69.2,33.184c0-1.321-.714-2.391-1.595-2.391s-1.594,1.07-1.594,2.391.714,2.391,1.594,2.391S69.2,34.505,69.2,33.184Z" fill="#724f3d" stroke="#45413c" stroke-linecap="round" stroke-linejoin="round"></path><path d="M69.2,30c0-1.32-.714-2.392-1.595-2.392S66.013,28.676,66.013,30s.714,2.391,1.594,2.391S69.2,31.317,69.2,30Z" fill="#724f3d" stroke="#45413c" stroke-linecap="round" stroke-linejoin="round"></path><path d="M65.217,41.155c0,.926,1.176,2.514,1.878,3.379a.659.659,0,0,0,1.025,0c.7-.865,1.879-2.453,1.879-3.379a2.391,2.391,0,1,0-4.782,0Z" fill="#724f3d" stroke="#45413c" stroke-linecap="round" stroke-linejoin="round"></path><path d="M81.28,21.553l-1.118-4.031a1.6,1.6,0,0,0-1.9-1.046c-2.8.7-3.483.942-4.942.942s-2.144-.241-4.942-.942a1.6,1.6,0,0,0-1.9,1.046L65.36,21.553a1.627,1.627,0,0,0,.167,3.221,7.959,7.959,0,0,0,15.586,0,1.627,1.627,0,0,0,.167-3.221Z" fill="#d18660" stroke="#45413c" stroke-linecap="round" stroke-linejoin="round"></path><path d="M68.006 24.143 A0.996 0.996 0 1 0 69.998 24.143 A0.996 0.996 0 1 0 68.006 24.143 Z" fill="#bd704a"></path><path d="M76.641 24.143 A0.996 0.996 0 1 0 78.633 24.143 A0.996 0.996 0 1 0 76.641 24.143 Z" fill="#bd704a"></path><path d="M75.313,26.468a3.323,3.323,0,0,1-3.986,0" fill="none" stroke="#45413c" stroke-linecap="round" stroke-linejoin="round"></path><path d="M69.335 21.486 A0.996 0.996 0 1 0 71.327 21.486 A0.996 0.996 0 1 0 69.335 21.486 Z" fill="#45413c"></path><path d="M75.313 21.486 A0.996 0.996 0 1 0 77.305 21.486 A0.996 0.996 0 1 0 75.313 21.486 Z" fill="#45413c"></path><path d="M78.952,35.154a3.121,3.121,0,0,1-1.647-2.692,1.359,1.359,0,0,0-1.329-1.387H70.663a1.358,1.358,0,0,0-1.328,1.387,3.121,3.121,0,0,1-1.647,2.692,11.933,11.933,0,0,0-6.322,10.532V47.4H65.35v9.577a5.7,5.7,0,0,0,.664,2.657v2.656H80.625V59.633a5.692,5.692,0,0,0,.664-2.657v-3.61h0a3.985,3.985,0,0,0,3.985-3.985V45.686A11.935,11.935,0,0,0,78.952,35.154Z" fill="#ffb0ca"></path><path d="M85.273,48.788A11.878,11.878,0,0,0,73.4,36.91c-5.89,0-11.086,4.854-12.029,10.489V45.686a11.933,11.933,0,0,1,6.322-10.532,3.121,3.121,0,0,0,1.647-2.692,1.358,1.358,0,0,1,1.328-1.387h5.313a1.359,1.359,0,0,1,1.329,1.387,3.121,3.121,0,0,0,1.647,2.692,11.935,11.935,0,0,1,6.322,10.532v3.1" fill="#ffccdd"></path><path d="M64.075 83.541 A9.24 1.733 0 1 0 82.555 83.541 A9.24 1.733 0 1 0 64.075 83.541 Z" fill="#45413c" opacity=".15"></path><path d="M66.014 62.289L68.671 82.877 77.969 82.877 80.625 62.289 66.014 62.289z" fill="#00b8f0"></path><path d="M66.529 66.274L80.111 66.274 80.625 62.289 66.014 62.289 66.529 66.274z" fill="#009fd9"></path><path d="M66.014 62.289L68.671 82.877 77.969 82.877 80.625 62.289 66.014 62.289z" fill="none" stroke="#45413c" stroke-linecap="round" stroke-linejoin="round"></path><path d="M80.266,82.877a1.325,1.325,0,0,0,1.192-1.927,3.984,3.984,0,0,0-3.489-2.058h-.664a3.985,3.985,0,0,0-3.985,3.985Z" fill="#656769" stroke="#45413c" stroke-linecap="round" stroke-linejoin="round"></path><path d="M73.32,82.877a3.985,3.985,0,0,0-3.985-3.985h-.664a3.984,3.984,0,0,0-3.489,2.058,1.324,1.324,0,0,0,1.192,1.927Z" fill="#656769" stroke="#45413c" stroke-linecap="round" stroke-linejoin="round"></path><path d="M73.32 62.289L73.32 82.877" fill="none" stroke="#45413c" stroke-linecap="round" stroke-linejoin="round"></path><path d="M78.952,35.154a3.121,3.121,0,0,1-1.647-2.692,1.359,1.359,0,0,0-1.329-1.387H70.663a1.358,1.358,0,0,0-1.328,1.387,3.121,3.121,0,0,1-1.647,2.692,11.933,11.933,0,0,0-6.322,10.532V47.4H65.35v9.577a5.7,5.7,0,0,0,.664,2.657v2.656H80.625V59.633a5.692,5.692,0,0,0,.664-2.657v-3.61h0a3.985,3.985,0,0,0,3.985-3.985V45.686A11.935,11.935,0,0,0,78.952,35.154Z" fill="none" stroke="#45413c" stroke-linecap="round" stroke-linejoin="round"></path><path d="M80.625 59.633L66.014 59.633" fill="none" stroke="#45413c" stroke-linecap="round" stroke-linejoin="round"></path><path d="M65.35 56.312L65.35 56.312 65.35 45.022" fill="none" stroke="#45413c" stroke-linecap="round" stroke-linejoin="round"></path><path d="M81.289,53.366H74.913V48.337h3.441a1.963,1.963,0,0,0,1.963-1.963V45.022" fill="none" stroke="#45413c" stroke-linecap="round" stroke-linejoin="round"></path><path d="M56.942,33.429l-1.683,5.164a.465.465,0,0,1-.736.216,3.649,3.649,0,0,0-2.275-.781,3.758,3.758,0,0,0-1.173,7.334,3.624,3.624,0,0,0,1.243.175.471.471,0,0,1,.478.612L50.823,52.2l6.951,2.266A.465.465,0,0,0,58.383,54a3.646,3.646,0,0,1,.713-2.3,3.758,3.758,0,0,1,6.613,3.378,3.618,3.618,0,0,1-.592,1.108.472.472,0,0,0,.213.747L71.384,58.9l5.828-17.879a1.881,1.881,0,0,0-1.206-2.371L58.127,32.827A.94.94,0,0,0,56.942,33.429Z" fill="#ffe500"></path><path d="M76.006,38.654,58.127,32.827a.94.94,0,0,0-1.185.6l-1,3.075a.939.939,0,0,1,1.185-.6L75,41.729a1.88,1.88,0,0,1,1.2,2.371l1-3.075A1.881,1.881,0,0,0,76.006,38.654Z" fill="#fff48c"></path><path d="M56.942,33.429l-1.683,5.164a.465.465,0,0,1-.736.216,3.649,3.649,0,0,0-2.275-.781,3.758,3.758,0,0,0-1.173,7.334,3.624,3.624,0,0,0,1.243.175.471.471,0,0,1,.478.612L50.823,52.2l6.951,2.266A.465.465,0,0,0,58.383,54a3.646,3.646,0,0,1,.713-2.3,3.758,3.758,0,0,1,6.613,3.378,3.618,3.618,0,0,1-.592,1.108.472.472,0,0,0,.213.747L71.384,58.9l5.828-17.879a1.881,1.881,0,0,0-1.206-2.371L58.127,32.827A.94.94,0,0,0,56.942,33.429Z" fill="none" stroke="#45413c" stroke-linecap="round" stroke-linejoin="round"></path><path d="M55.227,55.529l-1.848-1.247a1.222,1.222,0,0,1-.453-1.506l.495-1.1a1.2,1.2,0,0,1,1.785-.469L57.4,52.68a1.206,1.206,0,0,1,.234,1.831l-.837.873A1.223,1.223,0,0,1,55.227,55.529Z" fill="#d18660" stroke="#45413c" stroke-linecap="round" stroke-linejoin="round"></path><path d="M74.908,48.415H72.656a2.324,2.324,0,1,0,0,4.648h2.252Z" fill="#d18660" stroke="#45413c" stroke-linecap="round" stroke-linejoin="round"></path></g></svg>