<svg xmlns="http://www.w3.org/2000/svg" version="1.1" xmlns:xlink="http://www.w3.org/1999/xlink" xmlns:svgjs="http://svgjs.com/svgjs" viewBox="0 0 160 160" width="160" height="160"><g transform="matrix(1.6,0,0,1.6,0,0)"><path d="M10.000 50.000 A40.000 40.000 0 1 0 90.000 50.000 A40.000 40.000 0 1 0 10.000 50.000 Z" fill="#c7f0ff" stroke="#c7f0ff" stroke-miterlimit="10"></path><path d="M32.841 42.480 A12.458 9.583 0 1 0 57.757 42.480 A12.458 9.583 0 1 0 32.841 42.480 Z" fill="#c0dceb" stroke="#45413c" stroke-miterlimit="10" transform="translate(-7.337 75.434) rotate(-75.21)"></path><path d="M69.546,36.988,48.479,30.435c5.115,1.35,7.842,7.838,6.086,14.491s-7.332,10.95-12.446,9.6l21.555,4.7c3.069.811,7.8-3.265,9.422-9.406S72.614,37.8,69.546,36.988Z" fill="#c7f0ff"></path><path d="M73.5,43.277c-.49-3.294-2.031-5.783-3.949-6.289L48.479,30.435c3.1.817,5.318,3.518,6.2,7Z" fill="#ffffff"></path><path d="M69.546,36.988,48.479,30.435c5.115,1.35,7.842,7.838,6.086,14.491s-7.332,10.95-12.446,9.6l21.555,4.7c3.069.811,7.8-3.265,9.422-9.406S72.614,37.8,69.546,36.988Z" fill="none" stroke="#45413c" stroke-linecap="round" stroke-linejoin="round"></path><path d="M52.082,56.7l9.7,2.109a18.978,18.978,0,0,0,5.893-9.6,18.708,18.708,0,0,0-1.188-13.167l-8.261-2.578a18.715,18.715,0,0,1,.959,12.678A18.759,18.759,0,0,1,52.082,56.7Z" fill="#ffe500"></path><path d="M58.225,33.465A17.554,17.554,0,0,1,59.749,39v.01l8.433,2.616a17.257,17.257,0,0,0-1.7-5.587Z" fill="#fff48c"></path><path d="M52.082,56.7l9.7,2.109a18.978,18.978,0,0,0,5.893-9.6,18.708,18.708,0,0,0-1.188-13.167l-8.261-2.578a18.715,18.715,0,0,1,.959,12.678A18.759,18.759,0,0,1,52.082,56.7Z" fill="none" stroke="#45413c" stroke-linecap="round" stroke-linejoin="round"></path><path d="M38.791,34.433a11.642,11.642,0,0,1,4.341-3.488c3.143-7.159,7.609-11.031,10.867-10.3,4.293.967,7.073,10.071,4.37,22.1a1.439,1.439,0,0,0,2.808.633c2.884-12.852,0-24.064-6.545-25.53C48.728,16.512,42.135,23.613,38.791,34.433Z" fill="#c7f0ff"></path><path d="M54.1,35.687a14.509,14.509,0,0,1,.468,9.239c-1.476,5.587-5.643,9.512-9.969,9.827a14.414,14.414,0,0,1-.468-9.232C45.6,39.933,49.773,36,54.1,35.688" fill="#8ca4b8"></path><path d="M32.841 42.480 A12.458 9.583 0 1 0 57.757 42.480 A12.458 9.583 0 1 0 32.841 42.480 Z" fill="none" stroke="#45413c" stroke-miterlimit="10" transform="translate(-7.337 75.434) rotate(-75.21)"></path><path d="M38.791,34.433a11.642,11.642,0,0,1,4.341-3.488c3.143-7.159,7.609-11.031,10.867-10.3,4.293.967,7.073,10.071,4.37,22.1a1.439,1.439,0,0,0,2.808.633c2.884-12.852,0-24.064-6.545-25.53C48.728,16.512,42.135,23.613,38.791,34.433Z" fill="none" stroke="#45413c" stroke-miterlimit="10"></path><path d="M57.439,42.051h2.516V47.8H57.439c-1.058,0-1.916-1.287-1.916-2.875S56.381,42.051,57.439,42.051Z" fill="#adc4d9" stroke="#45413c" stroke-linecap="round" stroke-linejoin="round"></path><path d="M57.439,42.051h2.516V47.8H57.439c-1.058,0-1.916-1.287-1.916-2.875S56.381,42.051,57.439,42.051Z" fill="none" stroke="#45413c" stroke-linecap="round" stroke-linejoin="round"></path><path d="M58.038 44.926 A1.917 2.875 0 1 0 61.872 44.926 A1.917 2.875 0 1 0 58.038 44.926 Z" fill="#c7f0ff" stroke="#45413c" stroke-miterlimit="10"></path><path d="M44.594,71.537c-.442-4.71-1-10.652-1.3-14.143a2.621,2.621,0,0,1,.679-2.01L44,55.361a2.324,2.324,0,0,1,.383-.344,2.982,2.982,0,0,1,.5-.29c3.712-.4,7.266-3.445,9.053-7.884H44.368a9.575,9.575,0,0,0-9.564,8.94v0L33.722,71.943c-8.027.754-13.629,2.444-13.629,4.413,0,2.67,10.292,4.834,22.988,4.834s22.987-2.164,22.987-4.834C66.068,73.793,56.581,71.7,44.594,71.537Z" fill="#ffe500"></path><path d="M53.93 46.842L53.929 46.843 53.932 46.843 53.93 46.842z" fill="#ffe500"></path><path d="M33.606,73.685c5.662.26,4.515-9.149,5.989-17.9a9.577,9.577,0,0,1,9.564-8.941H44.368A9.574,9.574,0,0,0,34.8,55.784Z" fill="#fff48c"></path><path d="M44.594,71.537c-.442-4.71-1-10.652-1.3-14.143a2.621,2.621,0,0,1,.679-2.01L44,55.361a2.324,2.324,0,0,1,.383-.344,2.982,2.982,0,0,1,.5-.29c3.712-.4,7.266-3.445,9.053-7.884H44.368a9.575,9.575,0,0,0-9.564,8.94v0L33.722,71.943c-8.027.754-13.629,2.444-13.629,4.413,0,2.67,10.292,4.834,22.988,4.834s22.987-2.164,22.987-4.834C66.068,73.793,56.581,71.7,44.594,71.537Z" fill="none" stroke="#45413c" stroke-linecap="round" stroke-linejoin="round"></path><path d="M53.93 46.842L53.929 46.843 53.932 46.843 53.93 46.842z" fill="none" stroke="#45413c" stroke-linecap="round" stroke-linejoin="round"></path><path d="M43.3,57.394c.392,4.511,1.649,17.867,1.649,17.867" fill="none" stroke="#45413c" stroke-linecap="round" stroke-linejoin="round"></path><path d="M33.473 75.67L34.804 55.785 34.804 55.783" fill="none" stroke="#45413c" stroke-linecap="round" stroke-linejoin="round"></path></g></svg>