<svg width="160" height="160" fill="none" xmlns="http://www.w3.org/2000/svg">
  <path d="M16 80c0 16.9739 6.7428 33.253 18.7452 45.255C46.7475 137.257 63.0261 144 80 144c16.9739 0 33.253-6.743 45.255-18.745C137.257 113.253 144 96.9739 144 80c0-16.9739-6.743-33.2525-18.745-45.2548C113.253 22.7428 96.9739 16 80 16c-16.9739 0-33.2525 6.7428-45.2548 18.7452C22.7428 46.7475 16 63.0261 16 80v0z" fill="#C7F0FF" stroke="#C7F0FF" stroke-width="1.6" stroke-miterlimit="10"/>
  <path d="M94.5947 111.149l19.2643-33.5219" stroke="#45413C" stroke-width="1.6" stroke-linecap="round" stroke-linejoin="round"/>
  <path d="M85.6909 111.149a8.905 8.905 0 002.6079 6.296 8.9035 8.9035 0 0012.5922 0 8.9043 8.9043 0 002.608-6.296c0-2.362-.938-4.627-2.608-6.296a8.9035 8.9035 0 00-12.5922 0 8.9016 8.9016 0 00-2.6079 6.296z" fill="#FF866E" stroke="#45413C" stroke-width="1.6" stroke-linecap="round" stroke-linejoin="round"/>
  <path d="M113.859 77.6271L80.0142 47.1903M133.124 111.149l-19.265-33.5219" stroke="#45413C" stroke-width="1.6" stroke-linecap="round" stroke-linejoin="round"/>
  <path d="M104.955 77.6271c0 2.3615.938 4.6263 2.608 6.2961a8.905 8.905 0 006.296 2.6079c2.362 0 4.626-.9381 6.296-2.6079a8.9033 8.9033 0 000-12.5921 8.903 8.903 0 00-6.296-2.608c-2.361 0-4.626.9381-6.296 2.608a8.9033 8.9033 0 00-2.608 6.296z" fill="#FFAA54" stroke="#45413C" stroke-width="1.6" stroke-linecap="round" stroke-linejoin="round"/>
  <path d="M124.221 111.149c0 1.169.23 2.327.677 3.407a8.9183 8.9183 0 001.931 2.889 8.8848 8.8848 0 002.888 1.93 8.916 8.916 0 003.408.678 8.911 8.911 0 003.407-.678 8.8996 8.8996 0 004.819-4.819 8.911 8.911 0 00.678-3.407c0-1.17-.231-2.327-.678-3.408a8.9006 8.9006 0 00-1.93-2.888 8.8996 8.8996 0 00-2.889-1.93 8.8922 8.8922 0 00-3.407-.678c-1.17 0-2.327.23-3.408.678a8.8848 8.8848 0 00-2.888 1.93 8.9035 8.9035 0 00-1.931 2.888 8.915 8.915 0 00-.677 3.408v0z" fill="#FF866E" stroke="#45413C" stroke-width="1.6" stroke-linecap="round" stroke-linejoin="round"/>
  <path d="M65.4334 111.149l-19.264-33.5219" stroke="#45413C" stroke-width="1.6" stroke-linecap="round" stroke-linejoin="round"/>
  <path d="M56.5293 111.149c0 1.169.2303 2.327.6778 3.407a8.9094 8.9094 0 001.9301 2.889 8.893 8.893 0 002.8887 1.93 8.913 8.913 0 003.4074.678 8.913 8.913 0 003.4074-.678 8.893 8.893 0 002.8887-1.93 8.9094 8.9094 0 001.9301-2.889 8.9014 8.9014 0 00.6778-3.407c0-1.17-.2303-2.327-.6778-3.408a8.8946 8.8946 0 00-1.9301-2.888 8.893 8.893 0 00-2.8887-1.93 8.8942 8.8942 0 00-3.4074-.678c-1.1693 0-2.3271.23-3.4074.678a8.893 8.893 0 00-2.8887 1.93 8.8946 8.8946 0 00-1.9301 2.888 8.9064 8.9064 0 00-.6778 3.408z" fill="#FF866E" stroke="#45413C" stroke-width="1.6" stroke-linecap="round" stroke-linejoin="round"/>
  <path d="M46.1694 77.6271l33.8448-30.4368M26.9038 111.149l19.2656-33.5219" stroke="#45413C" stroke-width="1.6" stroke-linecap="round" stroke-linejoin="round"/>
  <path d="M37.2651 77.6271a8.9037 8.9037 0 008.904 8.904 8.904 8.904 0 10-8.904-8.904v0z" fill="#FFAA54" stroke="#45413C" stroke-width="1.6" stroke-linecap="round" stroke-linejoin="round"/>
  <path d="M18 111.149c0 1.169.2303 2.327.6778 3.407a8.9094 8.9094 0 001.9301 2.889 8.893 8.893 0 002.8887 1.93 8.913 8.913 0 003.4074.678 8.913 8.913 0 003.4074-.678 8.893 8.893 0 002.8887-1.93 8.9094 8.9094 0 001.9301-2.889 8.9014 8.9014 0 00.6778-3.407c0-1.17-.2303-2.327-.6778-3.408a8.8946 8.8946 0 00-1.9301-2.888 8.893 8.893 0 00-2.8887-1.93 8.8942 8.8942 0 00-3.4074-.678c-1.1693 0-2.3271.23-3.4074.678a8.893 8.893 0 00-2.8887 1.93 8.8946 8.8946 0 00-1.9301 2.888A8.9064 8.9064 0 0018 111.149v0zM71.6909 49.1487a8.904 8.904 0 1017.8081 0 8.904 8.904 0 00-17.8081 0z" fill="#FF866E" stroke="#45413C" stroke-width="1.6" stroke-linecap="round" stroke-linejoin="round"/>
</svg>
