<svg xmlns="http://www.w3.org/2000/svg" version="1.1" xmlns:xlink="http://www.w3.org/1999/xlink" xmlns:svgjs="http://svgjs.com/svgjs" viewBox="0 0 160 160" width="160" height="160"><g transform="matrix(1.6,0,0,1.6,0,0)"><path d="M10.000 52.196 A40.000 40.000 0 1 0 90.000 52.196 A40.000 40.000 0 1 0 10.000 52.196 Z" fill="#c7f0ff" stroke="#c7f0ff" stroke-miterlimit="10"></path><path d="M26.27,66.786a2.667,2.667,0,0,0,2.653,2.389H72.148A2.668,2.668,0,0,0,74.8,66.786L79.737,19.9a2.669,2.669,0,0,0-.986-2.362A44.6,44.6,0,0,0,50.536,7.8,44.6,44.6,0,0,0,22.32,17.536a2.673,2.673,0,0,0-.986,2.362Z" fill="#f0f0f0" stroke="#45413c" stroke-linecap="round" stroke-linejoin="round"></path><path d="M28.706,63.945a2.4,2.4,0,0,0,2.387,2.149H69.978a2.4,2.4,0,0,0,2.387-2.149l4.441-42.18a2.406,2.406,0,0,0-.888-2.126,40.122,40.122,0,0,0-25.382-8.754,40.125,40.125,0,0,0-25.383,8.754,2.406,2.406,0,0,0-.887,2.126Z" fill="#525252" stroke="#45413c" stroke-linecap="round" stroke-linejoin="round"></path><path d="M70.29,19.36a7,7,0,0,1,2.847,5.864h0c0,3.775-2.605,6.835-5.818,6.835H33.752c-3.213,0-5.818-3.06-5.818-6.835h0a7,7,0,0,1,2.848-5.864,36.913,36.913,0,0,1,9.437-4.481,34.85,34.85,0,0,1,20.633,0A36.886,36.886,0,0,1,70.29,19.36Z" fill="#e0e0e0" stroke="#45413c" stroke-linecap="round" stroke-linejoin="round"></path><path d="M68.369,20.33a5.15,5.15,0,0,1,2.57,4.505h0a5.251,5.251,0,0,1-5.252,5.252h-30.3a5.252,5.252,0,0,1-5.252-5.252h0A5.152,5.152,0,0,1,32.7,20.33a36.508,36.508,0,0,1,35.666,0Z" fill="#ffffff"></path><path d="M48.275,22.994a.221.221,0,0,0-.411.13l.6,6.964h3.911Z" fill="#ff6242" stroke="#e04122" stroke-linecap="round" stroke-linejoin="round"></path><path d="M70.641,26.584a5.031,5.031,0,0,0-2.272-2.777,36.508,36.508,0,0,0-35.666,0,5.031,5.031,0,0,0-2.273,2.776,5.242,5.242,0,0,1-.3-1.748h0A5.152,5.152,0,0,1,32.7,20.33a36.508,36.508,0,0,1,35.666,0,5.15,5.15,0,0,1,2.57,4.505h0A5.242,5.242,0,0,1,70.641,26.584Z" fill="#e0e0e0"></path><path d="M68.369,20.33a5.15,5.15,0,0,1,2.57,4.505h0a5.251,5.251,0,0,1-5.252,5.252h-30.3a5.252,5.252,0,0,1-5.252-5.252h0A5.152,5.152,0,0,1,32.7,20.33a36.508,36.508,0,0,1,35.666,0Z" fill="none" stroke="#45413c" stroke-linecap="round" stroke-linejoin="round"></path><path d="M50.536 19.164L50.536 15.686" fill="none" stroke="#45413c" stroke-linecap="round" stroke-linejoin="round"></path><path d="M56.572 19.657L57.202 16.308" fill="none" stroke="#45413c" stroke-linecap="round" stroke-linejoin="round"></path><path d="M62.466 21.159L63.658 18.115" fill="none" stroke="#45413c" stroke-linecap="round" stroke-linejoin="round"></path><path d="M44.499 19.657L43.869 16.308" fill="none" stroke="#45413c" stroke-linecap="round" stroke-linejoin="round"></path><path d="M38.605 21.159L37.416 18.114" fill="none" stroke="#45413c" stroke-linecap="round" stroke-linejoin="round"></path><path d="M82.305,63.923c.909-3.292,1.734-6.609,2.569-9.939l.711-2.837.027-.109a2.6,2.6,0,1,0-5.038-1.263s-.615,2.49-.621,2.479l.621-2.479.641-2.559a2.6,2.6,0,1,0-5.038-1.263l.6-2.379a2.6,2.6,0,1,0-5.038-1.263l.341-1.359a2.639,2.639,0,0,0-1.918-3.2,2.57,2.57,0,0,0-3.121,1.938L66.382,42.3c-.223-.078.921-2.213-.271-5.04a4.153,4.153,0,0,0-2.744-2.552l-1.088-.272a4.149,4.149,0,0,0-3.622.956,7.744,7.744,0,0,0-2.575,6.7l.278,2.433a10.525,10.525,0,0,0-2.522,4.015,9.976,9.976,0,0,0,2.918,11.071l.831.669A9.976,9.976,0,0,1,60.5,71.352l-1.471,4.225c-1.892,5.431.47,11.237,5.247,12.9s10.235-1.42,12.126-6.851l3.017-8.455C80.51,70.127,81.445,67.036,82.305,63.923Z" fill="#ffcebf"></path><path d="M62.7,34.544a8.017,8.017,0,0,0-1.339,5.347l.278,2.433a10.517,10.517,0,0,0-2.522,4.015A9.977,9.977,0,0,0,62.039,57.41l.831.668A9.978,9.978,0,0,1,65.787,69.15l-1.471,4.224c-1.892,5.432.47,11.237,5.247,12.9a8.15,8.15,0,0,0,3.353.413,8.955,8.955,0,0,1-8.636,1.79c-4.777-1.664-7.139-7.47-5.247-12.9L60.5,71.352a9.976,9.976,0,0,0-2.917-11.071l-.831-.669a9.976,9.976,0,0,1-2.918-11.071,10.525,10.525,0,0,1,2.522-4.015l-.278-2.433a7.744,7.744,0,0,1,2.575-6.7,4.149,4.149,0,0,1,3.622-.956" fill="#ffb59e"></path><path d="M82.305,63.923c.909-3.292,1.734-6.609,2.569-9.939l.711-2.837.027-.109a2.6,2.6,0,1,0-5.038-1.263s-.615,2.49-.621,2.479l.621-2.479.641-2.559a2.6,2.6,0,1,0-5.038-1.263l.6-2.379a2.6,2.6,0,1,0-5.038-1.263l.341-1.359a2.639,2.639,0,0,0-1.918-3.2,2.57,2.57,0,0,0-3.121,1.938L66.382,42.3c-.223-.078.921-2.213-.271-5.04a4.153,4.153,0,0,0-2.744-2.552l-1.088-.272a4.149,4.149,0,0,0-3.622.956,7.744,7.744,0,0,0-2.575,6.7l.278,2.433a10.525,10.525,0,0,0-2.522,4.015,9.976,9.976,0,0,0,2.918,11.071l.831.669A9.976,9.976,0,0,1,60.5,71.352l-1.471,4.225c-1.892,5.431.47,11.237,5.247,12.9s10.235-1.42,12.126-6.851l3.017-8.455C80.51,70.127,81.445,67.036,82.305,63.923Z" fill="none" stroke="#45413c" stroke-linecap="round" stroke-linejoin="round"></path><path d="M71.77 42.171L70.507 47.21" fill="none" stroke="#45413c" stroke-linecap="round" stroke-linejoin="round"></path><path d="M66.416 42.168L65.785 44.687" fill="none" stroke="#45413c" stroke-linecap="round" stroke-linejoin="round"></path><path d="M76.177 45.953L75.23 49.732" fill="none" stroke="#45413c" stroke-linecap="round" stroke-linejoin="round"></path><path d="M19.041,63.923c-.909-3.292-1.734-6.609-2.569-9.939l-.711-2.837-.027-.109a2.6,2.6,0,1,1,5.038-1.263s.615,2.49.622,2.479l-.622-2.479-.641-2.559a2.6,2.6,0,1,1,5.038-1.263l-.6-2.379a2.6,2.6,0,1,1,5.038-1.263l-.341-1.359a2.639,2.639,0,0,1,1.918-3.2,2.569,2.569,0,0,1,3.121,1.938l.655,2.613c.223-.078-.92-2.213.272-5.04a4.15,4.15,0,0,1,2.743-2.552l1.088-.272a4.147,4.147,0,0,1,3.622.956,7.748,7.748,0,0,1,2.576,6.7l-.279,2.433a10.525,10.525,0,0,1,2.522,4.015,9.976,9.976,0,0,1-2.917,11.071l-.831.669a9.975,9.975,0,0,0-2.918,11.071l1.471,4.225c1.892,5.431-.469,11.237-5.247,12.9s-10.235-1.42-12.126-6.851l-3.017-8.455C20.836,70.127,19.9,67.036,19.041,63.923Z" fill="#ffcebf"></path><path d="M38.642,34.544a8.023,8.023,0,0,1,1.34,5.347L39.7,42.324a10.517,10.517,0,0,1,2.522,4.015A9.975,9.975,0,0,1,39.307,57.41l-.83.668A9.977,9.977,0,0,0,35.559,69.15l1.471,4.224c1.892,5.432-.47,11.237-5.247,12.9a8.15,8.15,0,0,1-3.353.413,8.956,8.956,0,0,0,8.636,1.79c4.778-1.664,7.139-7.47,5.247-12.9l-1.471-4.225A9.975,9.975,0,0,1,43.76,60.281l.831-.669a9.976,9.976,0,0,0,2.917-11.071,10.525,10.525,0,0,0-2.522-4.015l.279-2.433a7.748,7.748,0,0,0-2.576-6.7,4.147,4.147,0,0,0-3.622-.956" fill="#ffb59e"></path><path d="M19.041,63.923c-.909-3.292-1.734-6.609-2.569-9.939l-.711-2.837-.027-.109a2.6,2.6,0,1,1,5.038-1.263s.615,2.49.622,2.479l-.622-2.479-.641-2.559a2.6,2.6,0,1,1,5.038-1.263l-.6-2.379a2.6,2.6,0,1,1,5.038-1.263l-.341-1.359a2.639,2.639,0,0,1,1.918-3.2,2.569,2.569,0,0,1,3.121,1.938l.655,2.613c.223-.078-.92-2.213.272-5.04a4.15,4.15,0,0,1,2.743-2.552l1.088-.272a4.147,4.147,0,0,1,3.622.956,7.748,7.748,0,0,1,2.576,6.7l-.279,2.433a10.525,10.525,0,0,1,2.522,4.015,9.976,9.976,0,0,1-2.917,11.071l-.831.669a9.975,9.975,0,0,0-2.918,11.071l1.471,4.225c1.892,5.431-.469,11.237-5.247,12.9s-10.235-1.42-12.126-6.851l-3.017-8.455C20.836,70.127,19.9,67.036,19.041,63.923Z" fill="none" stroke="#45413c" stroke-linecap="round" stroke-linejoin="round"></path><path d="M29.576 42.171L30.839 47.21" fill="none" stroke="#45413c" stroke-linecap="round" stroke-linejoin="round"></path><path d="M34.93 42.168L35.562 44.687" fill="none" stroke="#45413c" stroke-linecap="round" stroke-linejoin="round"></path><path d="M25.169 45.953L26.116 49.732" fill="none" stroke="#45413c" stroke-linecap="round" stroke-linejoin="round"></path></g></svg>