<svg xmlns="http://www.w3.org/2000/svg" version="1.1" xmlns:xlink="http://www.w3.org/1999/xlink" xmlns:svgjs="http://svgjs.com/svgjs" viewBox="0 0 160 160" width="160" height="160"><g transform="matrix(1.6,0,0,1.6,0,0)"><path d="M10.500 50.000 A39.5 39.566 0 1 0 89.500 50.000 A39.5 39.566 0 1 0 10.500 50.000 Z" fill="#c7f0ff" stroke="#c7f0ff" stroke-miterlimit="10"></path><path d="M69.615,40.517A19.519,19.519,0,0,0,79.964,23.052a1.693,1.693,0,0,1,1.081-1.6,1.647,1.647,0,0,1,1.849.484,23.052,23.052,0,0,1-7.923,35.714" fill="#ffffff"></path><path d="M74.971,57.649a22.45,22.45,0,0,0,5.657-3.691,31.633,31.633,0,0,0-7.357-15.964l-.213.2a19.146,19.146,0,0,1-3.443,2.327Z" fill="#c7f0ff"></path><path d="M69.615,40.517A19.519,19.519,0,0,0,79.964,23.052a1.693,1.693,0,0,1,1.081-1.6,1.647,1.647,0,0,1,1.849.484,23.052,23.052,0,0,1-7.923,35.714Z" fill="none" stroke="#45413c" stroke-linecap="round" stroke-linejoin="round"></path><path d="M30.385,40.517A19.521,19.521,0,0,1,20.036,23.052a1.693,1.693,0,0,0-1.081-1.6,1.647,1.647,0,0,0-1.849.484,23.052,23.052,0,0,0,7.923,35.714" fill="#ffffff"></path><path d="M25.029,57.649a22.45,22.45,0,0,1-5.657-3.691,31.641,31.641,0,0,1,7.357-15.964l.213.2a19.146,19.146,0,0,0,3.443,2.327Z" fill="#c7f0ff"></path><path d="M30.385,40.517A19.521,19.521,0,0,1,20.036,23.052a1.693,1.693,0,0,0-1.081-1.6,1.647,1.647,0,0,0-1.849.484,23.052,23.052,0,0,0,7.923,35.714Z" fill="none" stroke="#45413c" stroke-linecap="round" stroke-linejoin="round"></path><path d="M62.7,34.286a24.562,24.562,0,0,0-6.488-2.69H44.045A25.334,25.334,0,0,0,25.158,56.238v3.387H75.1V56.238A25.474,25.474,0,0,0,62.7,34.286" fill="#ff6242"></path><path d="M75.12,56.881A25.371,25.371,0,0,0,56.641,37.529H44.475a26.59,26.59,0,0,0-19.317,22.1V56.238A25.334,25.334,0,0,1,44.045,31.6H56.212a24.562,24.562,0,0,1,6.488,2.69A25.474,25.474,0,0,1,75.1,56.238" fill="#ff866e"></path><path d="M37.859 79.966 A13.196 1.979 0 1 0 64.251 79.966 A13.196 1.979 0 1 0 37.859 79.966 Z" fill="#45413c" opacity=".15"></path><path d="M74.971,59.625V66.8a1.68,1.68,0,0,1-1.665,1.694H26.694A1.68,1.68,0,0,1,25.029,66.8V59.625Z" fill="#ffe500"></path><path d="M73.306,65.19H26.694A1.68,1.68,0,0,1,25.029,63.5v3.3a1.68,1.68,0,0,0,1.665,1.693H73.306A1.68,1.68,0,0,0,74.971,66.8V63.5A1.68,1.68,0,0,1,73.306,65.19Z" fill="#ebcb00"></path><path d="M74.971,59.625V66.8a1.68,1.68,0,0,1-1.665,1.694H26.694A1.68,1.68,0,0,1,25.029,66.8V59.625Z" fill="none" stroke="#45413c" stroke-linecap="round" stroke-linejoin="round"></path><path d="M62.7,34.286a24.562,24.562,0,0,0-6.488-2.69H44.045A25.334,25.334,0,0,0,25.158,56.238v3.387H75.1V56.238A25.474,25.474,0,0,0,62.7,34.286" fill="none" stroke="#45413c" stroke-linecap="round" stroke-linejoin="round"></path><path d="M56.291,29.479a3.425,3.425,0,0,0-.842-2.612,3.311,3.311,0,0,0-2.471-1.113H47.022a3.311,3.311,0,0,0-2.471,1.113,3.425,3.425,0,0,0-.842,2.612l2.962,30.146h6.658Z" fill="#ffe500"></path><path d="M52.978,25.754H47.022a3.311,3.311,0,0,0-2.471,1.113,3.424,3.424,0,0,0-.842,2.612l.791,8.05h11l.791-8.05a3.424,3.424,0,0,0-.842-2.612A3.311,3.311,0,0,0,52.978,25.754Z" fill="#fff48c"></path><path d="M56.291,29.479a3.425,3.425,0,0,0-.842-2.612,3.311,3.311,0,0,0-2.471-1.113H47.022a3.311,3.311,0,0,0-2.471,1.113,3.425,3.425,0,0,0-.842,2.612l2.962,30.146h6.658Z" fill="none" stroke="#45413c" stroke-linecap="round" stroke-linejoin="round"></path><path d="M47.490 31.249 A2.639 2.639 0 1 0 52.768 31.249 A2.639 2.639 0 1 0 47.490 31.249 Z" fill="#c0dceb"></path><path d="M52.408,32.579a2.618,2.618,0,0,0-4.559,0,2.64,2.64,0,1,1,4.559,0Z" fill="#c7f0ff"></path><path d="M47.490 31.249 A2.639 2.639 0 1 0 52.768 31.249 A2.639 2.639 0 1 0 47.490 31.249 Z" fill="none" stroke="#45413c" stroke-linecap="round" stroke-linejoin="round"></path><path d="M47.490 42.378 A2.639 2.639 0 1 0 52.768 42.378 A2.639 2.639 0 1 0 47.490 42.378 Z" fill="#c0dceb"></path><path d="M52.408,43.709a2.617,2.617,0,0,0-4.559,0,2.64,2.64,0,1,1,4.559,0Z" fill="#c7f0ff"></path><path d="M47.490 42.378 A2.639 2.639 0 1 0 52.768 42.378 A2.639 2.639 0 1 0 47.490 42.378 Z" fill="none" stroke="#45413c" stroke-linecap="round" stroke-linejoin="round"></path><path d="M66.402 63.954 A2.111 2.111 0 1 0 70.624 63.954 A2.111 2.111 0 1 0 66.402 63.954 Z" fill="#c0dceb"></path><path d="M70.337,65.019a2.094,2.094,0,0,0-3.647,0,2.112,2.112,0,1,1,3.647,0Z" fill="#c7f0ff"></path><path d="M66.402 63.954 A2.111 2.111 0 1 0 70.624 63.954 A2.111 2.111 0 1 0 66.402 63.954 Z" fill="none" stroke="#45413c" stroke-linecap="round" stroke-linejoin="round"></path><path d="M57.064 63.954 A2.111 2.111 0 1 0 61.286 63.954 A2.111 2.111 0 1 0 57.064 63.954 Z" fill="#c0dceb"></path><path d="M61,65.019a2.094,2.094,0,0,0-3.648,0,2.111,2.111,0,1,1,3.648,0Z" fill="#c7f0ff"></path><path d="M57.064 63.954 A2.111 2.111 0 1 0 61.286 63.954 A2.111 2.111 0 1 0 57.064 63.954 Z" fill="none" stroke="#45413c" stroke-linecap="round" stroke-linejoin="round"></path><path d="M47.725 63.954 A2.111 2.111 0 1 0 51.947 63.954 A2.111 2.111 0 1 0 47.725 63.954 Z" fill="#c0dceb"></path><path d="M51.66,65.019a2.094,2.094,0,0,0-3.647,0,2.112,2.112,0,1,1,3.647,0Z" fill="#c7f0ff"></path><path d="M47.725 63.954 A2.111 2.111 0 1 0 51.947 63.954 A2.111 2.111 0 1 0 47.725 63.954 Z" fill="none" stroke="#45413c" stroke-linecap="round" stroke-linejoin="round"></path><path d="M38.387 63.954 A2.111 2.111 0 1 0 42.609 63.954 A2.111 2.111 0 1 0 38.387 63.954 Z" fill="#c0dceb"></path><path d="M42.322,65.019a2.094,2.094,0,0,0-3.648,0,2.111,2.111,0,1,1,3.648,0Z" fill="#c7f0ff"></path><path d="M38.387 63.954 A2.111 2.111 0 1 0 42.609 63.954 A2.111 2.111 0 1 0 38.387 63.954 Z" fill="none" stroke="#45413c" stroke-linecap="round" stroke-linejoin="round"></path><path d="M29.048 63.954 A2.111 2.111 0 1 0 33.270 63.954 A2.111 2.111 0 1 0 29.048 63.954 Z" fill="#c0dceb"></path><path d="M32.983,65.019a2.094,2.094,0,0,0-3.647,0,2.112,2.112,0,1,1,3.647,0Z" fill="#c7f0ff"></path><path d="M29.048 63.954 A2.111 2.111 0 1 0 33.270 63.954 A2.111 2.111 0 1 0 29.048 63.954 Z" fill="none" stroke="#45413c" stroke-linecap="round" stroke-linejoin="round"></path></g></svg>