<svg width="160" height="160" fill="none" xmlns="http://www.w3.org/2000/svg">
  <path d="M16.7998 80c0 16.7897 6.6586 32.892 18.5109 44.764s27.9274 18.542 44.6891 18.542c16.7617 0 32.8372-6.67 44.6892-18.542C136.541 112.892 143.2 96.7897 143.2 80c0-16.7897-6.659-32.8917-18.511-44.7638-11.852-11.8721-27.9275-18.5418-44.6892-18.5418S47.163 23.3641 35.3107 35.2362C23.4584 47.1083 16.7998 63.2103 16.7998 80v0z" fill="#C7F0FF" stroke="#C7F0FF" stroke-width="1.6" stroke-miterlimit="10"/>
  <path d="M111.384 64.8272a31.2376 31.2376 0 0012.198-11.6499 31.2299 31.2299 0 004.36-16.2941 2.7086 2.7086 0 011.73-2.56 2.634 2.634 0 012.958.7744 36.8813 36.8813 0 017.755 31.6977 36.8883 36.8883 0 01-7.249 15.1049A36.8782 36.8782 0 01119.953 92.24" fill="#fff"/>
  <path d="M119.953 92.2384a35.9173 35.9173 0 009.052-5.9056 50.6148 50.6148 0 00-11.772-25.5424l-.34.32a30.638 30.638 0 01-5.509 3.7232l8.569 27.4048z" fill="#C7F0FF"/>
  <path d="M111.384 64.8272a31.2376 31.2376 0 0012.198-11.6499 31.2299 31.2299 0 004.36-16.2941 2.7086 2.7086 0 011.73-2.56 2.634 2.634 0 012.958.7744 36.8813 36.8813 0 017.755 31.6977 36.8883 36.8883 0 01-7.249 15.1049A36.8782 36.8782 0 01119.953 92.24l-8.569-27.4128z" stroke="#45413C" stroke-width="1.6" stroke-linecap="round" stroke-linejoin="round"/>
  <path d="M48.6159 64.8272a31.2335 31.2335 0 01-16.5584-27.944 2.7087 2.7087 0 00-1.7296-2.56 2.6354 2.6354 0 00-2.9584.7744 36.883 36.883 0 00-7.7548 31.6977A36.8827 36.8827 0 0040.0463 92.24" fill="#fff"/>
  <path d="M40.0463 92.2384a35.92 35.92 0 01-9.0512-5.9056 50.626 50.626 0 0111.7712-25.5424l.3408.32a30.633 30.633 0 005.5088 3.7232l-8.5696 27.4048z" fill="#C7F0FF"/>
  <path d="M48.6159 64.8272a31.2335 31.2335 0 01-16.5584-27.944 2.7087 2.7087 0 00-1.7296-2.56 2.6354 2.6354 0 00-2.9584.7744 36.883 36.883 0 00-7.7548 31.6977A36.8827 36.8827 0 0040.0463 92.24l8.5696-27.4128z" stroke="#45413C" stroke-width="1.6" stroke-linecap="round" stroke-linejoin="round"/>
  <path d="M100.32 54.8576a39.302 39.302 0 00-10.381-4.304H70.4718a40.5343 40.5343 0 00-30.2192 39.4272V95.4H120.16v-5.4192a40.7711 40.7711 0 00-5.27-20.1882 40.7642 40.7642 0 00-14.57-14.935" fill="#FF6242"/>
  <path d="M120.192 91.0096a40.598 40.598 0 00-10.37-19.6962 40.5916 40.5916 0 00-19.1967-11.267H71.1597A42.5446 42.5446 0 0050.385 73.0753a42.5445 42.5445 0 00-10.1324 22.3311v-5.4256a40.5348 40.5348 0 018.364-24.8814A40.5352 40.5352 0 0170.4717 50.56H89.939a39.3081 39.3081 0 0110.381 4.304 40.7594 40.7594 0 0119.84 35.1168" fill="#FF866E"/>
  <path opacity=".15" d="M60.5742 127.946c0 .415.5461.827 1.6072 1.211 1.0611.384 2.6163.734 4.5768 1.028 1.9606.294 4.2882.527 6.8498.686 2.5616.159 5.3071.241 8.0798.241 2.7727 0 5.5182-.082 8.0798-.241 2.5617-.159 4.8892-.392 6.8498-.686 1.9606-.294 3.5156-.644 4.5766-1.028s1.607-.796 1.607-1.211c0-.416-.546-.828-1.607-1.212s-2.616-.733-4.5766-1.027c-1.9606-.294-4.2881-.528-6.8498-.687-2.5616-.159-5.3071-.241-8.0798-.241-2.7727 0-5.5182.082-8.0798.241-2.5616.159-4.8892.393-6.8498.687-1.9605.294-3.5157.643-4.5768 1.027-1.0611.384-1.6072.796-1.6072 1.212z" fill="#45413C"/>
  <path d="M119.953 95.4v11.48a2.6874 2.6874 0 01-2.664 2.71H42.71a2.6869 2.6869 0 01-2.664-2.71V95.4h79.907z" fill="#FFE500"/>
  <path d="M117.289 104.304H42.71a2.69 2.69 0 01-1.8909-.801 2.688 2.688 0 01-.7731-1.903v5.28a2.6892 2.6892 0 00.7714 1.906 2.6903 2.6903 0 001.8926.803h74.579a2.691 2.691 0 001.893-.803c.499-.508.777-1.194.771-1.906v-5.28a2.691 2.691 0 01-.773 1.903c-.499.506-1.179.795-1.891.801z" fill="#EBCB00"/>
  <path d="M119.953 95.4v11.48a2.6874 2.6874 0 01-2.664 2.71H42.71a2.6869 2.6869 0 01-2.664-2.71V95.4h79.907zM100.32 54.8576a39.302 39.302 0 00-10.381-4.304H70.4718a40.5343 40.5343 0 00-30.2192 39.4272V95.4H120.16v-5.4192a40.7711 40.7711 0 00-5.27-20.1882 40.7642 40.7642 0 00-14.57-14.935" stroke="#45413C" stroke-width="1.6" stroke-linecap="round" stroke-linejoin="round"/>
  <path d="M90.0655 47.1664a5.481 5.481 0 00-1.3472-4.1792 5.297 5.297 0 00-3.9536-1.7808h-9.5296a5.2983 5.2983 0 00-3.9536 1.7808 5.481 5.481 0 00-1.3472 4.1792L74.6735 95.4h10.6528l4.7392-48.2336z" fill="#FFE500"/>
  <path d="M84.7648 41.2064h-9.5296a5.2987 5.2987 0 00-3.9536 1.7808 5.4781 5.4781 0 00-1.3472 4.1792l1.2656 12.88h17.6l1.2656-12.88a5.4781 5.4781 0 00-1.3472-4.1792 5.2973 5.2973 0 00-3.9536-1.7808z" fill="#FFF48C"/>
  <path d="M90.0655 47.1664a5.481 5.481 0 00-1.3472-4.1792 5.297 5.297 0 00-3.9536-1.7808h-9.5296a5.2983 5.2983 0 00-3.9536 1.7808 5.481 5.481 0 00-1.3472 4.1792L74.6735 95.4h10.6528l4.7392-48.2336z" stroke="#45413C" stroke-width="1.6" stroke-linecap="round" stroke-linejoin="round"/>
  <path d="M75.9839 49.9984a4.2217 4.2217 0 001.2367 2.9857 4.2231 4.2231 0 002.9857 1.2367 4.2221 4.2221 0 004.2224-4.2224 4.2217 4.2217 0 00-1.2367-2.9857 4.2225 4.2225 0 00-7.2081 2.9857z" fill="#C0DCEB"/>
  <path d="M83.8526 52.1264a4.1883 4.1883 0 00-3.6471-2.1287 4.189 4.189 0 00-3.6473 2.1287 4.2239 4.2239 0 013.6473-6.3547 4.2233 4.2233 0 013.6634 2.1214 4.2232 4.2232 0 01-.0163 4.2333z" fill="#C7F0FF"/>
  <path d="M75.9839 49.9984a4.2217 4.2217 0 001.2367 2.9857 4.2231 4.2231 0 002.9857 1.2367 4.2221 4.2221 0 004.2224-4.2224 4.2217 4.2217 0 00-1.2367-2.9857 4.2225 4.2225 0 00-7.2081 2.9857z" stroke="#45413C" stroke-width="1.6" stroke-linecap="round" stroke-linejoin="round"/>
  <path d="M75.9839 67.8048a4.2217 4.2217 0 001.2367 2.9857 4.2231 4.2231 0 002.9857 1.2367 4.2221 4.2221 0 004.2224-4.2224 4.2217 4.2217 0 00-1.2367-2.9857 4.2225 4.2225 0 00-7.2081 2.9857z" fill="#C0DCEB"/>
  <path d="M83.8526 69.9344a4.1868 4.1868 0 00-3.6471-2.1304 4.188 4.188 0 00-3.6473 2.1304 4.2239 4.2239 0 013.6473-6.3547 4.2233 4.2233 0 013.6634 2.1213 4.2238 4.2238 0 01-.0163 4.2334z" fill="#C7F0FF"/>
  <path d="M75.9839 67.8048a4.2217 4.2217 0 001.2367 2.9857 4.2231 4.2231 0 002.9857 1.2367 4.2221 4.2221 0 004.2224-4.2224 4.2217 4.2217 0 00-1.2367-2.9857 4.2225 4.2225 0 00-7.2081 2.9857z" stroke="#45413C" stroke-width="1.6" stroke-linecap="round" stroke-linejoin="round"/>
  <path d="M106.243 102.326c0 .444.088.883.257 1.293.17.41.419.782.732 1.096.314.313.686.562 1.096.732.41.17.849.257 1.293.257.443 0 .883-.087 1.292-.257.41-.17.782-.419 1.096-.732.314-.314.563-.686.732-1.096.17-.41.257-.849.257-1.293 0-.443-.087-.882-.257-1.292-.169-.41-.418-.782-.732-1.0959a3.3786 3.3786 0 00-3.681-.7322c-.41.1697-.782.4185-1.096.7322a3.3926 3.3926 0 00-.732 1.0959c-.169.41-.257.849-.257 1.292z" fill="#C0DCEB"/>
  <path d="M112.539 104.03a3.352 3.352 0 00-1.228-1.246 3.3561 3.3561 0 00-1.69-.457c-.593 0-1.176.158-1.689.457a3.352 3.352 0 00-1.228 1.246 3.385 3.385 0 01-.462-1.691c-.002-.595.153-1.18.449-1.695.295-.516.722-.9448 1.237-1.2428a3.3806 3.3806 0 013.387 0c.514.298.941.7268 1.237 1.2428.296.515.451 1.1.449 1.695a3.385 3.385 0 01-.462 1.691z" fill="#C7F0FF"/>
  <path d="M106.243 102.326c0 .444.088.883.257 1.293.17.41.419.782.732 1.096.314.313.686.562 1.096.732.41.17.849.257 1.293.257.443 0 .883-.087 1.292-.257.41-.17.782-.419 1.096-.732.314-.314.563-.686.732-1.096.17-.41.257-.849.257-1.293 0-.443-.087-.882-.257-1.292-.169-.41-.418-.782-.732-1.0959a3.3786 3.3786 0 00-3.681-.7322c-.41.1697-.782.4185-1.096.7322a3.3926 3.3926 0 00-.732 1.0959c-.169.41-.257.849-.257 1.292v0z" stroke="#45413C" stroke-width="1.6" stroke-linecap="round" stroke-linejoin="round"/>
  <path d="M91.3022 102.326a3.38 3.38 0 00.9893 2.389 3.3792 3.3792 0 002.3883.989c.8958 0 1.7549-.356 2.3884-.989a3.3798 3.3798 0 00.9892-2.389 3.3771 3.3771 0 00-3.3776-3.3772 3.3774 3.3774 0 00-3.3776 3.3772z" fill="#C0DCEB"/>
  <path d="M97.5997 104.03a3.3551 3.3551 0 00-1.2285-1.247 3.3454 3.3454 0 00-1.6899-.457c-.5939 0-1.1771.157-1.6899.457-.5128.3-.9368.73-1.2285 1.247a3.3765 3.3765 0 01-.01-3.383 3.378 3.378 0 015.8568 0 3.377 3.377 0 01-.01 3.383z" fill="#C7F0FF"/>
  <path d="M91.3022 102.326a3.38 3.38 0 00.9893 2.389 3.3792 3.3792 0 002.3883.989c.8958 0 1.7549-.356 2.3884-.989a3.3798 3.3798 0 00.9892-2.389 3.3771 3.3771 0 00-3.3776-3.3772 3.3774 3.3774 0 00-3.3776 3.3772v0z" stroke="#45413C" stroke-width="1.6" stroke-linecap="round" stroke-linejoin="round"/>
  <path d="M76.3599 102.326c0 .896.3558 1.755.9892 2.389a3.3794 3.3794 0 002.3884.989 3.379 3.379 0 002.3883-.989 3.38 3.38 0 00.9893-2.389c0-.895-.3559-1.755-.9893-2.3879a3.3772 3.3772 0 00-4.7767 0 3.3771 3.3771 0 00-.9892 2.3879z" fill="#C0DCEB"/>
  <path d="M82.6557 104.03a3.347 3.347 0 00-1.2284-1.246 3.3532 3.3532 0 00-1.6892-.457c-.5936 0-1.1766.158-1.6892.457a3.3463 3.3463 0 00-1.2284 1.246 3.3775 3.3775 0 01-.0133-3.386 3.3783 3.3783 0 012.9309-1.6977 3.379 3.379 0 012.9176 5.0837z" fill="#C7F0FF"/>
  <path d="M76.3599 102.326c0 .896.3558 1.755.9892 2.389a3.3794 3.3794 0 002.3884.989 3.379 3.379 0 002.3883-.989 3.38 3.38 0 00.9893-2.389c0-.895-.3559-1.755-.9893-2.3879a3.3772 3.3772 0 00-4.7767 0 3.3771 3.3771 0 00-.9892 2.3879v0z" stroke="#45413C" stroke-width="1.6" stroke-linecap="round" stroke-linejoin="round"/>
  <path d="M61.4189 102.326a3.38 3.38 0 00.9893 2.389 3.3792 3.3792 0 002.3883.989c.8958 0 1.7549-.356 2.3884-.989a3.3798 3.3798 0 00.9892-2.389 3.3771 3.3771 0 00-3.3776-3.3772 3.3774 3.3774 0 00-3.3776 3.3772z" fill="#C0DCEB"/>
  <path d="M67.7149 104.03a3.3548 3.3548 0 00-1.2284-1.247 3.3458 3.3458 0 00-1.69-.457c-.5938 0-1.1771.157-1.6899.457-.5128.3-.9367.73-1.2285 1.247a3.377 3.377 0 011.2268-4.6234 3.3773 3.3773 0 013.3833 0 3.377 3.377 0 011.2267 4.6234z" fill="#C7F0FF"/>
  <path d="M61.4189 102.326a3.38 3.38 0 00.9893 2.389 3.3792 3.3792 0 002.3883.989c.8958 0 1.7549-.356 2.3884-.989a3.3798 3.3798 0 00.9892-2.389 3.3771 3.3771 0 00-3.3776-3.3772 3.3774 3.3774 0 00-3.3776 3.3772v0z" stroke="#45413C" stroke-width="1.6" stroke-linecap="round" stroke-linejoin="round"/>
  <path d="M46.4766 102.326c0 .896.3558 1.755.9892 2.389a3.3794 3.3794 0 002.3884.989 3.379 3.379 0 002.3883-.989 3.38 3.38 0 00.9893-2.389c0-.895-.3559-1.755-.9893-2.3879a3.3772 3.3772 0 00-4.7767 0 3.3771 3.3771 0 00-.9892 2.3879z" fill="#C0DCEB"/>
  <path d="M52.7724 104.03a3.347 3.347 0 00-1.2284-1.246 3.3532 3.3532 0 00-1.6892-.457c-.5936 0-1.1766.158-1.6892.457a3.3463 3.3463 0 00-1.2284 1.246 3.3775 3.3775 0 01-.0133-3.386 3.379 3.379 0 012.9309-1.6977 3.379 3.379 0 012.9176 5.0837z" fill="#C7F0FF"/>
  <path d="M46.4766 102.326c0 .896.3558 1.755.9892 2.389a3.3794 3.3794 0 002.3884.989 3.379 3.379 0 002.3883-.989 3.38 3.38 0 00.9893-2.389c0-.895-.3559-1.755-.9893-2.3879a3.3772 3.3772 0 00-4.7767 0 3.3771 3.3771 0 00-.9892 2.3879v0z" stroke="#45413C" stroke-width="1.6" stroke-linecap="round" stroke-linejoin="round"/>
  <g filter="url(#filter0_d)">
    <rect x="80" y="17" width="64" height="64" rx="32" fill="#fff"/>
    <path d="M103.787 55.479c.748-.594 1.089-.869 1.023-.825 2.156-1.782 3.85-3.245 5.082-4.389 1.254-1.144 2.31-2.343 3.168-3.597.858-1.254 1.287-2.475 1.287-3.663 0-.902-.209-1.606-.627-2.112-.418-.506-1.045-.759-1.881-.759-.836 0-1.496.319-1.98.957-.462.616-.693 1.496-.693 2.64h-5.445c.044-1.87.44-3.432 1.188-4.686.77-1.254 1.771-2.178 3.003-2.772 1.254-.594 2.64-.891 4.158-.891 2.618 0 4.587.671 5.907 2.013 1.342 1.342 2.013 3.091 2.013 5.247 0 2.354-.803 4.543-2.409 6.567-1.606 2.002-3.652 3.96-6.138 5.874h8.91v4.587h-16.566v-4.191z" fill="#604FCD"/>
  </g>
  <defs>
    <filter id="filter0_d" x="76" y="15" width="72" height="72" filterUnits="userSpaceOnUse" color-interpolation-filters="sRGB">
      <feFlood flood-opacity="0" result="BackgroundImageFix"/>
      <feColorMatrix in="SourceAlpha" values="0 0 0 0 0 0 0 0 0 0 0 0 0 0 0 0 0 0 127 0"/>
      <feOffset dy="2"/>
      <feGaussianBlur stdDeviation="2"/>
      <feColorMatrix values="0 0 0 0 0.309804 0 0 0 0 0.448157 0 0 0 0 0.803922 0 0 0 0.3 0"/>
      <feBlend in2="BackgroundImageFix" result="effect1_dropShadow"/>
      <feBlend in="SourceGraphic" in2="effect1_dropShadow" result="shape"/>
    </filter>
  </defs>
</svg>
