<svg width="112" height="112" fill="none" xmlns="http://www.w3.org/2000/svg">
  <path d="M5 61.3565a50.6433 50.6433 0 0014.8331 35.8103A50.6449 50.6449 0 0055.6435 112a50.6447 50.6447 0 0035.8103-14.8332 50.6447 50.6447 0 0014.8332-35.8103 50.6449 50.6449 0 00-14.8332-35.8104A50.6435 50.6435 0 005 61.3565z" fill="#C7F0FF"/>
  <path d="M91.8965 85.371c-.5904 0-1.2652-.3374-1.6025-.8435-2.193-3.458-9.7838-8.9403-12.4828-10.7115-.8434-.5904-1.0964-1.7712-.506-2.6146.5904-.8435 1.7712-1.0965 2.6146-.5061.4217.253 10.4585 6.9161 13.5792 11.808.5904.9278.3374 2.1086-.5904 2.6146-.3374.1687-.6748.2531-1.0121.2531z" fill="#F2F2F2"/>
  <path d="M92.9083 85.1178c.5061-.3373.7591-.7591.8434-1.2651l-.8434-2.2773c-.3374-.4217-.6747-.8434-1.0964-1.3494l-2.952 2.3616c.5904.6747 1.0964 1.2651 1.5181 1.8555.3374.5904 1.0121.8434 1.6025.8434.2531.0844.5904 0 .9278-.1687z" fill="#333"/>
  <path d="M91.8962 86.636c-1.0965 0-2.1086-.5061-2.699-1.4338-1.8556-2.952-8.4343-7.9282-12.1454-10.3742-.6747-.506-1.1808-1.1808-1.3495-2.0242-.1686-.8434 0-1.6869.4218-2.3616.9277-1.4338 2.9519-1.8556 4.3858-.9278 1.0964.7591 10.7959 7.1692 13.9165 12.2297.4218.6748.5904 1.6025.4218 2.3616-.1687.8435-.6748 1.5182-1.3495 2.0242-.4217.3374-1.0121.5061-1.6025.5061zM78.823 71.5386c-.1687 0-.4217.0844-.506.2531-.1687.1687-.0844.4217-.0844.506 0 .0844.0844.2531.2531.4217.0843.0844 10.0367 6.6631 12.8201 11.1333.1686.253.5904.4217.8434.1687.1687-.0844.253-.3374.253-.4217 0-.1687 0-.3374-.0843-.5061-2.952-4.6388-12.8201-11.2176-13.2419-11.4706 0 0-.0843-.0844-.253-.0844z" fill="#301F00"/>
  <path d="M77.6425 68.671l-1.0121.1687c-.9278-.253-1.8555-.4217-2.7833-.4217H57.4003c-3.6268 0-6.6631-2.8677-6.7475-6.4944v-1.6869c.6748-.0843 1.2652-.253 1.9399-.4217.7591-.1687 1.4338-.3374 2.1929-.5904.5904-.1687 1.1808-.4217 1.7712-.6747.5904 2.6146 1.5182 4.3014 3.1207 4.3858 14.6757.253 17.965 5.7353 17.965 5.7353z" fill="#666"/>
  <path d="M76.5461 70.1892l-.2531-.0844c-.8434-.253-1.6025-.3374-2.4459-.3374H57.4003c-4.3015 0-7.8439-3.3737-8.0126-7.6752v-2.8676l1.0121-.1687c.7591-.1687 1.3495-.253 1.8556-.3374.6747-.1687 1.3494-.3373 2.1085-.5904.6748-.1687 1.1808-.4217 1.6869-.5904l1.4338-.5904.3374 1.5182c.253 1.0121.8434 3.2894 1.9399 3.3737 15.0973.0844 18.8084 5.9884 18.9771 6.2414l1.0121 1.6025-3.205.5061zm-24.7125-8.856v.5904c.0844 2.952 2.5303 5.3136 5.4823 5.3136h16.4469c-2.446-1.3495-6.8318-2.8677-14.254-2.952-1.8555 0-3.1207-1.3495-3.9641-3.9642-.1687.0844-.3374.0844-.506.1687-.7591.2531-1.5182.4217-2.2773.5904-.253.0844-.5904.1687-.9278.2531z" fill="#301F00"/>
  <path d="M83.9681 78.6234v10.1212c0 .5904-.0843 1.1808-.253 1.6868-.5904 1.8556-2.0242 3.2894-3.8798 3.7111-2.952.5904-5.6509-1.3495-6.2413-4.1328-.0844-.3374-.0844-.6747-.0844-1.0121 0 0 0-1.1808-.253-1.0965-.1687.0844-.4217.1687-.5904.1687-1.0965.3374-2.5303.5061-4.1328.5904-.7591 0-1.5182.0844-2.2773.0844-3.5424 0-6.9161-.2531-6.9161-.2531v4.9763c0 2.7833-2.0242 5.2292-4.7232 5.4822-2.6146.2531-4.8918-1.4338-5.4822-3.7954H47.7851c-.6748 2.3616-2.952 3.9641-5.4823 3.7954-2.699-.253-4.7232-2.6989-4.7232-5.4822V51.2964l13.3262-.9278v11.6393c.1686 3.6267 3.1206 6.4944 6.7474 6.4944H74.1c1.0121 0 1.9399.1687 2.7833.4217 3.9642 1.1808 7.0848 5.0606 7.0848 9.6994z" fill="#F2F2F2"/>
  <path d="M76.63 68.8397c-.9277-.2531-1.8555-.4218-2.7833-.4218H57.3999c-3.6267 0-6.6631-2.8676-6.7474-6.4943v-11.555l-13.2419.9278v2.6989l11.8924-.8434v11.555c.1687 3.6267 3.1207 6.4944 6.7474 6.4944h16.4468c1.0122 0 1.9399.1686 2.7834.4217 4.2171 1.1808 7.3378 5.1449 7.3378 9.6994v10.1211c0 .3374 0 .6748-.0844 1.0121.9278-1.0121 1.5182-2.3616 1.5182-3.8797V78.4547c-.0843-4.4701-3.205-8.3499-7.4222-9.615z" fill="#fff"/>
  <path d="M48.3761 93.2991s-.0844 0-.2531.0843c-.3373.1687-.9277.3374-1.8555.5904-1.0965.253-2.5303.5061-4.1328.5061-1.0965 0-2.1929-.0844-3.3737-.4217h-.1687c-.4217-.0844-.8434-.2531-1.2651-.4218-.0844-.0843-.2531-.0843-.3374-.1686-.4217-.1687-.6748-.4218-.9278-.8435v-1.8555c.253-.5061.7591-.8434 1.2652-.9278.3373-.0843.759-.0843 1.0964.0844.0844 0 .0844 0 .1687.0843.0843 0 .0843 0 .1687.0843 3.1207 1.1808 6.41.3374 7.5908-.0843.3374-.0843.5061-.1687.5061-.1687.5904-.253 1.1808-.1687 1.6868.0844.3374.1686.5904.506.7591.8434.4217 1.0121 0 2.1086-.9277 2.5303zM48.3758 87.6481s-.0843 0-.253.0844c-.3374.0843-.9278.3373-1.8556.5904-1.0964.253-2.5303.506-4.2171.506-1.0965 0-2.2773-.0843-3.4581-.4217-.0843 0-.0843 0-.1686-.0843-.4218-.0844-.8435-.2531-1.2652-.4218-.0843-.0843-.253-.0843-.3374-.1686-.4217-.1687-.6747-.4218-.9277-.8435v-1.8555c.253-.5061.7591-.8434 1.2651-.9278.3374-.0843.7591-.0843 1.0965.0844.0843 0 .0843 0 .1687.0843.0843 0 .0843.0843.1686.0843 3.1207 1.1808 6.4101.3374 7.5909-.0843.3374-.0843.506-.1687.506-.1687.5904-.253 1.1808-.1687 1.6869.0844.3374.1686.5904.506.7591.8434.5904 1.0121.1687 2.1086-.7591 2.6146zM83.9685 86.2985v2.3616c0 .5904-.0844 1.1808-.253 1.6869-.0844 0-.2531.0843-.4218.0843h-.1686c-1.0965.253-2.5303.5061-4.1328.5061-1.0965 0-2.2773-.0844-3.4581-.4217-.1687 0-.253-.0844-.4217-.0844-.253-.0843-.5061-.1687-.8434-.253-.1687-.0844-.3374-.1687-.5061-.1687-.0843 0-.1687-.0843-.1687-.0843-.6747-.4218-1.0121-1.1808-.9278-1.9399 0-.1687.0844-.3374.1687-.5061.2531-.506.6748-.9278 1.1808-1.0964.4217-.0844.8435-.0844 1.2652.0843.0843 0 .1687.0843.253.0843 3.1207 1.1808 6.4101.3374 7.5909-.0843.0843 0 .0843 0 .1686-.0843.2531-.0844.3374-.1687.3374-.1687.1687.1687.253.0843.3374.0843z" fill="#4D4D4D"/>
  <path d="M60.4375 90.3471v2.5302c-.1687.1687-.4217.3374-.6747.5061-.0844 0-.2531.0843-.6748.253-.3373.0844-.7591.2531-1.2651.4217h-.1687c-1.0965.2531-2.5303.5061-4.1328.5061-1.0965 0-2.2773-.0844-3.4581-.4217-.1686 0-.253-.0844-.4217-.0844-.253-.0843-.506-.1686-.8434-.253-.1687-.0843-.3374-.1687-.5061-.1687-.0843 0-.1686-.0843-.253-.0843-.8434-.5061-1.1808-1.5182-.8434-2.3616.253-.5061.6747-.9278 1.1808-1.0965.4217-.0843.8434-.0843 1.2651.0844.0844 0 .1687.0843.3374.0843 3.1207 1.1808 6.4101.3374 7.5909-.0843.0843 0 .0843-.0844.1686-.0844.2531-.0843.3374-.1687.3374-.1687.3374-.1686.5904-.1686.9278-.1686.6747 0 1.0964.1686 1.4338.5904zM60.4369 84.6117v2.5302c-.1687.1687-.4217.3374-.6748.5061-.0843 0-.7591.3374-1.9399.6747-.0843 0-.0843 0-.1686.0844-1.0965.253-2.5303.506-4.2172.506-1.0964 0-2.2772-.0843-3.458-.4217-.5904-.1687-1.1808-.3373-1.7712-.5904-1.0121-.4217-1.4339-1.5181-1.0121-2.5303.4217-.9277 1.5181-1.4338 2.5302-1.0121.0844 0 .1687.0844.3374.0844 3.1207 1.1808 6.4101.3373 7.5909-.0844.0843 0 .1686 0 .1686-.0843.2531-.0844.3374-.0844.3374-.0844.8434-.4217 1.7712-.1686 2.2773.4218zM48.6288 73.2254c-.1687.0843-3.205 1.6025-7.0848 1.6025-1.0121 0-2.0242-.0843-3.1206-.3374-.4218-.0843-.8435-.253-1.2652-.3373-.6747-.2531-1.0964-.8435-1.2651-1.5182v-.6747c0-.0844 0-.1687.0843-.2531.3374-1.0121 1.4338-1.5182 2.446-1.1808 4.0484 1.4338 8.3499-.6747 8.3499-.6747.9278-.5061 2.1086-.0844 2.5303.8434.4217.9278.253 2.0242-.6748 2.5303zM41.9656 80.5633c-1.3495 0-2.8676-.1687-4.3858-.7591-1.0121-.3374-1.5182-1.4339-1.1808-2.446.3374-1.0121 1.4338-1.5181 2.4459-1.1808 4.1328 1.4339 8.35-.6747 8.4343-.6747.9278-.5061 2.1086-.0844 2.5303.8434.5061.9278.0844 2.1086-.8434 2.5303-.1687.1687-3.205 1.6869-7.0005 1.6869zM49.3032 65.9719c0 .6748-.4217 1.2652-1.0121 1.6026-.1687.0843-3.205 1.6025-7.0848 1.6025-.8434 0-1.6869-.0844-2.5303-.2531h-.1687c-.4217-.0843-.8434-.1686-1.2651-.3373-.1687 0-.253-.0844-.3374-.0844-.4217-.1687-.6747-.3373-.9277-.6747v-2.2773c.3373-.4217.759-.6747 1.2651-.7591.253 0 .5904 0 .9278.0844.1686.0843.253.0843.3373.0843.0844 0 .0844 0 .1687.0844 3.9641 1.0964 7.8439-.8435 7.8439-.8435.9278-.506 2.1086-.0843 2.5303.8435 0 .0843.0843.1687.0843.253.1687.1687.1687.4217.1687.6747zM73.4254 81.5754c-.253.8434-1.0121 1.4338-1.8556 1.4338-.1687 0-.3373 0-.506-.0843-1.0121-.2531-1.6025-1.2652-1.3495-2.3616 1.0965-4.3015-1.2651-7.6752-2.8677-9.2777-.6747-.6748-1.0964-1.0121-1.1808-1.0965-.1686-.0843-.253-.253-.3373-.3374 0-.0843-.0844-.0843-.0844-.1686-.253-.3374-.3373-.8435-.253-1.2652 0-.3374.1687-.6747.3374-.9278.0843-.1686.253-.253.3373-.3373h2.3616c.1687.0843.6748.5904 1.4339 1.2651.3373.3374.7591.7591 1.1808 1.2652 0 .0843.0843.0843.1686.1686.3374.4218.6748.9278 1.0122 1.4339 1.4338 2.5303 2.6989 6.0727 1.6025 10.2898zM80.5103 81.5754c-.253.8434-1.0121 1.4338-1.8555 1.4338-.1687 0-.3374 0-.5061-.0843-1.0121-.2531-1.6025-1.2652-1.3495-2.3616 1.0965-4.2172-1.1808-7.5065-2.6989-9.1934-.6748-.7591-1.2652-1.1808-1.3495-1.2651-.1687-.0844-.253-.2531-.3374-.3374 0-.0843-.0843-.0844-.0843-.1687-.2531-.3374-.3374-.8434-.3374-1.2651 0-.3374.1687-.6748.3374-.9278.0843-.1687.253-.253.3373-.3374h1.0965c.4217 0 .8434 0 1.2651.0844.2531.253 1.0122.759 1.7712 1.6868.5061.5904 1.0965 1.3495 1.6869 2.1929.0843.0844.1687.2531.1687.3374.6747 1.0965 1.3495 2.4459 1.6868 3.8798.5904 1.9399.7591 4.0484.1687 6.3257zM66.4249 81.5754c-.2531.8434-1.0121 1.4338-1.8556 1.4338-.1687 0-.3373 0-.506-.0843-1.0121-.2531-1.6025-1.2652-1.3495-2.3616 1.0964-4.3015-1.2652-7.6752-2.8677-9.2777-.6747-.6748-1.0964-1.0121-1.1808-1.0965-.1686-.0843-.253-.253-.3373-.3374-.0844-.0843-.0844-.0843-.0844-.1687 0 0 0-.0843-.0843-.0843l-.0844-.0843c0-.0844-.0843-.1687-.0843-.1687 0-.0844-.0844-.1687-.0844-.3374v-.253-.0844-.3373c0-.3374.1687-.6748.3374-.9278.0844-.1687.253-.253.3374-.3374h2.3616c.1687.0844.6747.5904 1.4338 1.2652.3374.3373.7591.759 1.1808 1.2651 0 .0843.0844.0844.1687.1687.3374.4217.6747.9278 1.0121 1.4338 1.5182 2.6146 2.7833 6.157 1.6869 10.3742zM58.1595 76.7678c-.1687.9278-.9277 1.6025-1.8555 1.6025h-.3374c-1.0121-.1687-1.6868-1.1808-1.5181-2.1929.3373-1.9399-.0001-3.7111-.5061-5.1449-.4217-1.1808-.9278-2.1929-1.2652-2.699-.1686-.253-.253-.3374-.253-.4217-.4217-.5904-.506-1.3495-.1687-1.9399.1687-.253.3374-.5061.5904-.6747.0844-.0844.2531-.1687.3374-.1687.7591 1.0121 1.9399 1.7712 3.205 2.0242.2531.4217.4217.8434.6748 1.3495 0 .0843.0843.1687.0843.1687l.253.506c0 .0844 0 .0844.0844.1687.0843.1687.0843.253.1687.4217 0 .0844.0843.0844.0843.1687.1687.4217.3374.9278.4217 1.4338.1687 1.5182.3374 3.4581 0 5.398z" fill="#4D4D4D"/>
  <path d="M59.6777 85.1179v3.458c1.0121.0844 3.7111.1687 6.4944.1687.7591 0 1.5182 0 2.2773-.0843 1.5182-.0844 2.952-.2531 4.0484-.5061l5.2293-3.7111c-2.699 2.1929-18.0494.6748-18.0494.6748z" fill="#CCC"/>
  <path d="M76.9676 67.6589c-.5904-.1687-1.2651-.3374-1.8555-.3374-.4217-.0844-.8434-.0844-1.2651-.0844H57.4001c-.4217 0-.7591 0-1.0964-.0843-1.2652-.253-2.446-1.0121-3.2051-2.0242-.6747-.8434-1.0964-1.9399-1.1808-3.205v-11.555c0-.7591-.6747-1.3495-1.4338-1.3495l-13.3262.9278c-.6747.0843-1.1807.5904-1.1807 1.2651v42.1714c0 3.4581 2.6146 6.4101 5.9039 6.7476h.5904c2.446 0 4.6389-1.3496 5.7354-3.3739 1.1808 2.1929 3.711 3.6269 6.3257 3.3739 3.2893-.3375 5.904-3.2895 5.904-6.7476v-3.6267c1.2651.0843 3.3737.1687 5.6509.1687h.1687c.7591 0 1.5182 0 2.1929-.0844h.1687c1.3495-.0843 3.5424-.4217 3.6268-.4217.1686 1.7712 1.0121 3.3737 2.3615 4.4702 1.5182 1.2651 3.5424 1.7712 5.4823 1.3495 3.0364-.5904 5.1449-3.3738 5.1449-6.6631V78.4547c0-4.8918-3.3737-9.4464-8.2656-10.7958zm5.7354 21.0857c0 .4217-.0844.8434-.1687 1.1808-.4217 1.5181-1.5182 2.6146-2.952 2.952-1.1808.253-2.3616-.0844-3.3737-.8435-.9278-.7591-1.4339-1.8555-1.4339-3.0363v-.253c1.3495-.5061 2.7833-1.1808 3.5424-2.0243.4217-.506.4217-1.3495-.0843-1.7712-.5061-.4217-1.3495-.4217-1.7712.0844-.5061.5904-2.6146 1.4338-4.4702 1.9399-.7591.1686-1.7712.3373-3.458.4217-.7591 0-1.5182.0843-2.2773.0843-2.2772 0-4.4702-.0843-5.7353-.1687v-2.8676c0-.6748-.5904-1.2652-1.2651-1.2652-.6748 0-1.1808.4217-1.2652 1.0965v9.6994c-.253 1.9399-1.6868 3.5424-3.5424 3.7111-1.9399.1687-3.6267-1.0121-4.2171-2.8677V84.4431c0-.6748-.5904-1.2652-1.2652-1.2652H47.785c-.6747 0-1.2651.5904-1.2651 1.2652v10.1211s0 .253-.0843.253c-.5061 1.8556-2.2773 3.0364-4.2172 2.8677-1.8555-.1687-3.2894-1.6869-3.5424-3.6267 0-.1687-.0843-.4218-.0843-.5904V52.4772l10.7959-.7591v10.3741c.0843 2.3616 1.2651 4.4702 2.952 5.8197 1.3494 1.0964 3.1206 1.7712 5.0605 1.7712H73.847c.8434 0 1.6868.0843 2.4459.3374.8434.253 1.6025.5904 2.2773 1.0964 2.4459 1.6025 4.0484 4.3858 4.0484 7.4222v10.2055h.0844z" fill="#301F00"/>
  <path d="M35.7235 29.1986c1.6869-1.6025 2.5303-3.7954 2.2773-6.7474-.5061-5.7353-8.603-11.7236-10.5429-11.555-1.9399.1687-8.9403 7.4222-8.4343 13.1575.1687 1.7712.6748 3.205 1.4339 4.3858.8434 1.1808 1.9399 2.0243 3.2893 2.6147" fill="#F2F2F2"/>
  <path d="M31.5071 27.5961c2.1085-5.3979-2.5303-14.3383-4.3015-15.013-.4217-.1687-1.3495-.0844-2.5303.1687 1.1808-1.0965 2.2772-1.8556 2.8676-1.9399 1.9399-.1687 10.0368 5.7353 10.5429 11.5549.253 2.952-.6747 5.145-2.2773 6.7475l-2.7833.4217c-1.0964.253-1.9399-.8434-1.5181-1.9399 0 .0843 0 .0843 0 0z" fill="#fff"/>
  <path d="M23.8319 32.3193c-.1686 0-.3373 0-.506-.0844-1.6025-.6747-2.8677-1.6868-3.8798-3.0363-.9278-1.3495-1.5182-3.0364-1.6868-4.9763-.5061-6.41 7.0004-14.3382 9.615-14.507 2.6147-.253 11.3863 6.3258 11.8924 12.6515.253 3.1207-.6748 5.8197-2.699 7.7595-.5061.5061-1.2651.4218-1.7712-.0843-.5061-.5061-.4217-1.2651.0843-1.7712 1.5182-1.4338 2.1086-3.3737 1.9399-5.7353-.4217-5.0606-7.7595-10.2898-9.1933-10.3742-1.3495.3374-7.6752 6.7475-7.2535 11.808.0843 1.4338.506 2.699 1.2651 3.7111.6748.9278 1.6025 1.6869 2.7833 2.1929.6748.253.9278 1.0121.6748 1.6869-.3374.4217-.7591.7591-1.2652.7591z" fill="#301F00"/>
  <path d="M68.7024 37.9703c0 17.1216-11.302 22.8569-25.3029 22.8569-14.0009 0-25.3028-5.5667-25.3028-22.8569 0-12.9045 11.3019-23.869 25.3028-23.869 14.0009 0 25.3029 10.9645 25.3029 23.869z" fill="#F2F2F2"/>
  <path d="M43.4831 56.104c-13.2418 0-24.0377-4.9763-25.1341-20.158-.0844.6748-.0844 1.3495-.0844 2.1086 0 17.2903 11.302 22.8569 25.3029 22.8569 14.0009 0 25.3028-5.7353 25.3028-22.8569 0-.6747 0-1.4338-.0843-2.1086-1.2652 15.0131-12.1454 20.158-25.3029 20.158z" fill="#CCC"/>
  <path d="M20.8799 50.1999c4.1328 7.7596 12.7357 10.6272 22.6039 10.6272 4.1328 0 7.9282-.506 11.3862-1.6025-.0843-8.0969-8.6029-14.5913-19.0614-14.5913-6.0727 0-11.4707 2.1929-14.9287 5.5666z" fill="#666"/>
  <path d="M45.2548 60.8272c.3374 0 .6748 0 1.0121-.0844h.4217c.3374 0 .6748-.0843 1.0122-.0843h.3373c.4217 0 .7591-.0843 1.1808-.1687h.1687c1.8556-.253 3.7111-.6747 5.398-1.2651 0-1.5182-.3374-3.0364-.9278-4.4702-3.205.9278-6.7474 1.3495-10.4585 1.3495-8.4343 0-15.9408-2.0242-20.4953-7.5065-.7591.506-1.4338 1.0964-2.1086 1.6868.7591 1.4339 1.6869 2.699 2.7833 3.8798.6748.7591 1.4339 1.4338 2.2773 2.0242h.0843c.8434.5904 1.6869 1.0965 2.6146 1.6025.4218.2531.8435.4218 1.3495.6748 0 0 .0844 0 .0844.0843.9277.4217 1.8555.7591 2.8676 1.0121.0844 0 .1687.0844.2531.0844.506.1687 1.0121.253 1.5181.3373.5061.0844 1.0121.2531 1.5182.3374.0843 0 .1687 0 .3374.0844.4217.0843.8434.1686 1.3495.1686h.3373c.5061.0844 1.0121.0844 1.6025.1687h.2531c.4217 0 .9277.0844 1.3495.0844h3.8797z" fill="#4D4D4D"/>
  <path d="M68.702 37.9703c0-12.9045-11.3019-23.869-25.3028-23.869-13.4949 0-24.4595 10.2054-25.2185 22.5195 3.6267-9.0247 12.8201-15.6034 23.7003-15.6034 7.5065 0 14.1696 3.1207 18.8084 8.0125-.1686-.253-.253-.4217-.253-.4217l4.8076 1.9399v.9278c-1.0122.4217-1.3495 1.6025-.8435 2.5303 1.7712 3.2893 2.7833 6.9161 2.7833 10.7958 0 1.0965-.0843 2.193-.1687 3.2051 1.0965-2.7833 1.6869-6.1571 1.6869-10.0368z" fill="#fff"/>
  <path d="M47.1937 26.8369c-.1687 0-.3374 0-.5061-.0843-1.0121-.2531-1.6025-1.3495-1.2651-2.3616.0843-.2531 1.8555-6.1571 7.2534-8.856.9278-.5061 2.1086-.0844 2.5303.8434.5061.9278.0844 2.1086-.8434 2.5303-3.9641 2.0242-5.3136 6.4944-5.3136 6.5787-.3374.7591-1.0965 1.3495-1.8555 1.3495zM31.3372 25.8248c-.1687 0-.3374 0-.5061-.0844-1.0121-.3374-1.6025-1.3495-1.2651-2.3616.0843-.253 1.8555-6.157 7.2535-8.856.9278-.506 2.1086-.0843 2.5303.8435.506.9277.0843 2.1085-.8435 2.5302-3.9641 2.0243-5.3136 6.4944-5.3136 6.5788-.253.7591-1.0121 1.3495-1.8555 1.3495z" fill="#4D4D4D"/>
  <path d="M32.2654 18.0652c0 .0843-.0844.1687-.1687.253-.1687.2531-.4217.4217-.6748.5904-3.9641 1.9399-5.3136 6.4944-5.3136 6.5788-.253.8434-1.0121 1.3494-1.8555 1.3494-.1687 0-.3374 0-.5061-.0843-.253-.0843-.4217-.1687-.5904-.3374-.0843 0-.0843-.0843-.1686-.0843-.5061-.4217-.7591-1.2652-.5904-1.9399.0843-.1687.506-1.6869 1.6868-3.6267 2.1086-2.1086 4.5545-3.8798 7.3378-5.2293.3374.1687.5904.4217.7591.8434.4217.5061.3374 1.1808.0844 1.6869zM69.6291 43.1994c-.1687 1.0121-.3374 1.9399-.5904 2.8676-.0843 0-.5904.3374-1.5182.5904-.4217.1687-.9277.3374-1.5181.5061-.0844 0-.0844 0-.1687.0843-.3374.0844-.6748.1687-1.0965.2531-.8434.1686-1.8555.253-2.7833.253-1.3495 0-2.8676-.1687-4.3858-.7591-1.0121-.3374-1.5182-1.4338-1.1808-2.4459.3374-1.0122 1.4338-1.5182 2.4459-1.1808 3.4581 1.2651 7.0848-.0844 8.0969-.5061.0844 0 .1687-.0843.1687-.0843h.0844c.1687-.0844.253-.0844.4217-.1687.253-.0844.506-.0844.7591 0 .5904 0 .9277.253 1.2651.5904zM69.9667 37.9701c0 .9278 0 1.7712-.0843 2.6147-.253.1687-.7591.3373-1.2652.506-.253.0844-.5904.1687-.9277.3374h-.0844c-.0843 0-.1687 0-.253.0843h-.1687c-1.0964.2531-2.3616.5061-3.7954.5061-1.3495 0-2.8677-.1687-4.3858-.7591-1.0121-.3374-1.5182-1.4338-1.1808-2.4459.3373-1.0121 1.4338-1.5182 2.4459-1.1808 2.5303.8434 5.0606.4217 6.6631 0 .1687 0 .3374-.0844.506-.1687.0844 0 .0844 0 .1687-.0844.5061-.1686.9278-.3373 1.0965-.4217H68.8703c.4217-.1687.8434-.253 1.2651-.0843-.1687.3374-.1687.6747-.1687 1.0964zM68.3641 48.2599c-.6747 1.7712-1.4338 3.2894-2.4459 4.7232-.5904.1687-1.2652.253-1.9399.3374-.5904.0843-1.1808.1687-1.7712.1687h-.2531c-1.0964 0-2.3616-.1687-3.5424-.5061l-.759-.253c-1.0122-.3374-1.5182-1.4339-1.1808-2.446.3373-1.0121 1.4338-1.5181 2.4459-1.1808 1.4338.5061 2.8677.5904 4.1328.5061.7591-.0844 1.3495-.1687 1.9399-.3374.0843 0 .1687 0 .253-.0843.6748-.1687 1.2652-.4217 1.6025-.5904.2531-.0844.4217-.1687.4217-.1687.3374-.1687.7591-.253 1.0965-.1687z" fill="#4D4D4D"/>
  <path d="M69.9673 36.8738c-.5904-13.3261-12.2297-24.0377-26.4837-24.0377-4.3014 0-8.3499.9278-11.9766 2.699-2.7834 1.3495-5.2293 3.1207-7.3379 5.2292C19.699 25.2345 17 31.3072 17 37.9703c0 15.7721 9.1934 24.122 26.568 24.122 10.6272 0 18.1337-3.1207 22.4352-9.109 1.0121-1.4338 1.8555-2.952 2.4459-4.7232.253-.6747.5061-1.4338.6747-2.1086.2531-.9277.4218-1.8555.5905-2.8676.1686-.8435.253-1.6869.253-2.6147.0843-.8434.0843-1.7712.0843-2.6146-.0843-.506-.0843-.8434-.0843-1.1808zm-2.699 4.6389c-.0843.4217-.0843.8434-.1687 1.2651-.253 1.6025-.5904 3.0364-1.0964 4.3858-.2531.6748-.5061 1.3495-.8435 2.0243-.759 1.6025-1.7712 3.0363-3.0363 4.3015-3.9641 4.0484-10.2055 6.157-18.7241 6.157-15.9408 0-24.0377-7.2535-24.0377-21.5918 0-4.2171 1.2651-8.1812 3.5424-11.6393 2.2773-3.458 5.4823-6.3257 9.2777-8.2656 3.3737-1.6868 7.1691-2.699 11.2176-2.699 12.8201 0 23.7003 10.0368 23.9533 22.0979v.506c.0844 1.0965.0844 2.2773-.0843 3.4581z" fill="#301F00"/>
  <path d="M46.6045 45.055c1.3974 0 2.5303-1.1328 2.5303-2.5303 0-1.3974-1.1329-2.5303-2.5303-2.5303s-2.5303 1.1329-2.5303 2.5303c0 1.3975 1.1329 2.5303 2.5303 2.5303zM26.3618 45.055c1.3975 0 2.5303-1.1328 2.5303-2.5303 0-1.3974-1.1328-2.5303-2.5303-2.5303-1.3974 0-2.5303 1.1329-2.5303 2.5303 0 1.3975 1.1329 2.5303 2.5303 2.5303zM37.4954 52.7302c.6055 0 1.0964-.7174 1.0964-1.6025 0-.885-.4909-1.6025-1.0964-1.6025-.6056 0-1.0965.7175-1.0965 1.6025 0 .8851.4909 1.6025 1.0965 1.6025zM33.8684 52.7302c.6056 0 1.0965-.7175 1.0965-1.6025 0-.8851-.4909-1.6026-1.0965-1.6026-.6055 0-1.0964.7175-1.0964 1.6026 0 .885.4909 1.6025 1.0964 1.6025z" fill="#301F00"/>
  <path d="M53.9425 27.3431c-1.3495-1.7712-1.9399-4.1328-1.2652-7.0004 1.3495-5.651 10.2898-10.2899 12.2297-9.7838 1.8556.4217 7.6752 8.6873 6.3257 14.3383-.4217 1.6868-1.1808 3.0363-2.1085 4.0484-1.0121 1.0121-2.2773 1.7712-3.6268 2.1086" fill="#F2F2F2"/>
  <path d="M65.497 32.3193c-.5904 0-1.0965-.4217-1.2652-.9278-.1687-.6747.2531-1.3494.9278-1.5181 1.1808-.3374 2.2773-.9278 3.0363-1.7712.8435-.9278 1.4339-2.1086 1.7712-3.5424 1.1808-4.8919-4.0484-12.2297-5.3979-12.7358-1.4338-.1687-9.4464 3.9641-10.6272 8.856-.5904 2.3616-.253 4.3015 1.0121 5.9884.4217.5904.3374 1.3494-.253 1.7711-.5061.3374-1.3495.2531-1.7712-.253-1.6869-2.1929-2.1929-5.0605-1.5182-8.0969 1.6025-6.2414 11.2176-11.3863 13.7479-10.7959 1.8555.4218 4.1328 3.8798 5.2293 5.8197 1.1808 2.1086 2.9519 6.3257 2.1085 9.9524-.4217 1.8556-1.2651 3.4581-2.4459 4.6389-1.1808 1.1808-2.6146 2.0242-4.3015 2.4459-.0843.1687-.1687.1687-.253.1687z" fill="#301F00"/>
  <path d="M57.4846 26.4996c-.5904-1.1808-.8434-2.6146-.4217-4.5545.9278-3.7111 5.7353-7.0005 6.6631-6.7474.9278.253 3.7111 5.3979 2.7833 9.0246-.253 1.0965-.6747 2.0243-1.2651 2.699-.5904.6748-1.2652 1.1808-1.9399 1.5182-3.0363 1.3495-4.6389.3374-5.8197-1.9399z" fill="#4D4D4D"/>
  <path d="M38.5918 26.0779s5.7353-11.4706 10.4585-10.4585c11.3019 2.2773 1.9399-14.3383 1.9399-14.3383s-19.0615 2.5303-17.1216 8.603c1.9399 6.0727 4.7232 16.1938 4.7232 16.1938z" fill="#666"/>
  <path d="M50.9903 1.2811s-18.7241 2.446-17.206 8.4343c2.952-1.4338 7.0005-2.446 9.8682-3.0363 2.1929-.4218 5.4822 1.0964 6.41 3.205.8434 1.8555 1.6869 3.7111 1.9399 5.7353 8.2656.0843-1.0121-14.3383-1.0121-14.3383z" fill="gray"/>
  <path d="M38.5917 27.343h-.0843c-.5061-.0843-.9278-.4217-1.0965-.9277 0-.0844-2.8676-10.2055-4.7232-16.1938-.3373-1.1808-.1687-2.3616.5061-3.458C36.2301 2.0401 49.3876.1846 50.9058.016c.506-.0844 1.0121.1687 1.2651.6747 1.0121 1.7712 5.8197 10.7116 2.8677 14.6757-1.1808 1.6025-3.2051 2.1085-6.1571 1.5181-2.6146-.506-6.9161 5.398-9.109 9.7838-.253.4217-.7591.6747-1.1808.6747zM50.3154 2.6306c-5.3136.759-13.3262 2.8677-15.0974 5.4823-.253.4217-.3374.8434-.1687 1.3495 1.2652 3.9641 2.952 9.7837 3.9641 13.3261 2.193-3.711 6.3257-9.2777 10.3742-8.4342 1.2651.253 2.952.4217 3.6267-.5061 1.2652-1.8555-.759-7.4222-2.6989-11.2176z" fill="#301F00"/>
</svg>
