<svg xmlns="http://www.w3.org/2000/svg" version="1.1" xmlns:xlink="http://www.w3.org/1999/xlink" xmlns:svgjs="http://svgjs.com/svgjs" viewBox="0 0 160 160" width="160" height="160"><g transform="matrix(1.6,0,0,1.6,0,0)"><path d="M10.000 50.000 A40.000 40.000 0 1 0 90.000 50.000 A40.000 40.000 0 1 0 10.000 50.000 Z" fill="#c7f0ff" stroke="#c7f0ff" stroke-miterlimit="10"></path><path d="M34.497 76.854 A15.503 1.897 0 1 0 65.503 76.854 A15.503 1.897 0 1 0 34.497 76.854 Z" fill="#45413c" opacity=".15"></path><path d="M31.737,69.779a1.1,1.1,0,0,0,1.1,1.1H67.164a1.1,1.1,0,0,0,1.1-1.1V31.407L58.248,21.392H32.837a1.1,1.1,0,0,0-1.1,1.1Z" fill="#f0d5a8"></path><path d="M31.737,69.779a1.1,1.1,0,0,0,1.1,1.1H67.164a1.1,1.1,0,0,0,1.1-1.1V31.407L58.248,21.392H32.837a1.1,1.1,0,0,0-1.1,1.1Z" fill="none" stroke="#45413c" stroke-linecap="round" stroke-linejoin="round"></path><path d="M68.264,31.407H59.348a1.1,1.1,0,0,1-1.1-1.1V21.392Z" fill="#f7e5c6" stroke="#45413c" stroke-linecap="round" stroke-linejoin="round"></path><path d="M54.755,56.265a2.2,2.2,0,0,1-2.2,2.2H47.446a2.2,2.2,0,0,1-2.2-2.2V21.392h9.509Z" fill="#656769" stroke="#45413c" stroke-linecap="round" stroke-linejoin="round"></path><path d="M50.687,25.037a1.1,1.1,0,0,1-1.1,1.1H48.213a1.1,1.1,0,1,1,0-2.2h1.374A1.1,1.1,0,0,1,50.687,25.037Z" fill="#ffffff"></path><path d="M52.887,28.887a1.1,1.1,0,0,1-1.1,1.1H50.413a1.1,1.1,0,1,1,0-2.2h1.374A1.1,1.1,0,0,1,52.887,28.887Z" fill="#ffffff"></path><path d="M50.687,32.737a1.1,1.1,0,0,1-1.1,1.1H48.213a1.1,1.1,0,0,1,0-2.2h1.374A1.1,1.1,0,0,1,50.687,32.737Z" fill="#ffffff"></path><path d="M52.887,36.587a1.1,1.1,0,0,1-1.1,1.1H50.413a1.1,1.1,0,0,1,0-2.2h1.374A1.1,1.1,0,0,1,52.887,36.587Z" fill="#ffffff"></path><path d="M50.687,40.437a1.1,1.1,0,0,1-1.1,1.1H48.213a1.1,1.1,0,0,1,0-2.2h1.374A1.1,1.1,0,0,1,50.687,40.437Z" fill="#ffffff"></path><path d="M52.887,44.287a1.1,1.1,0,0,1-1.1,1.1H50.413a1.1,1.1,0,1,1,0-2.2h1.374A1.1,1.1,0,0,1,52.887,44.287Z" fill="#ffffff"></path><path d="M50.687,48.137a1.1,1.1,0,0,1-1.1,1.1H48.213a1.1,1.1,0,1,1,0-2.2h1.374A1.1,1.1,0,0,1,50.687,48.137Z" fill="#ffffff"></path><path d="M50,52.018c1.073,0,3.5,3.882,3.619,7.672a3.74,3.74,0,0,1-3.106,3.876,3.625,3.625,0,0,1-4.137-3.588C46.376,56.1,48.9,52.018,50,52.018Z" fill="#e0e0e0" stroke="#45413c" stroke-linecap="round" stroke-linejoin="round"></path><path d="M48.9 60.237L51.1 60.237" fill="none" stroke="#45413c" stroke-linecap="round" stroke-linejoin="round"></path></g></svg>