<svg width="96" height="96" viewBox="0 0 96 96" fill="none" xmlns="http://www.w3.org/2000/svg">
<path d="M44 2.30935C46.4752 0.880283 49.5248 0.880284 52 2.30935L85.5692 21.6905C88.0444 23.1196 89.5692 25.7606 89.5692 28.6187V67.3811C89.5692 70.2393 88.0444 72.8803 85.5692 74.3093L52 93.6905C49.5248 95.1196 46.4752 95.1196 44 93.6905L10.4308 74.3093C7.95558 72.8803 6.43079 70.2393 6.43079 67.3811V28.6187C6.43079 25.7606 7.95558 23.1196 10.4308 21.6905L44 2.30935Z" fill="white"/>
<path fill-rule="evenodd" clip-rule="evenodd" d="M84.1907 22.9024L51.5701 4.06896C49.3322 2.77689 46.575 2.77689 44.337 4.06896L11.7165 22.9024C9.47853 24.1945 8.09991 26.5824 8.09991 29.1665V66.8335C8.09991 69.4176 9.47853 71.8055 11.7165 73.0975L44.337 91.931C46.575 93.2231 49.3322 93.2231 51.5701 91.931L84.1907 73.0975C86.4286 71.8055 87.8072 69.4176 87.8072 66.8335V29.1665C87.8072 26.5824 86.4286 24.1945 84.1907 22.9024ZM53.1201 1.38436C49.923 -0.461454 45.9841 -0.461455 42.7871 1.38436L10.1665 20.2178C6.96946 22.0637 5 25.4749 5 29.1665V66.8335C5 70.5251 6.96946 73.9363 10.1665 75.7821L42.7871 94.6156C45.9841 96.4614 49.923 96.4614 53.1201 94.6156L85.7406 75.7821C88.9377 73.9363 90.9071 70.5251 90.9071 66.8335V29.1665C90.9071 25.4749 88.9377 22.0637 85.7406 20.2178L53.1201 1.38436Z" fill="#341394"/>
<g clip-path="url(#clip0)">
<path fill-rule="evenodd" clip-rule="evenodd" d="M33.3651 39.4614C35.6658 38.4121 37.564 38.4363 40.6052 39.2016L40.736 35.1483C35.9392 34.0495 33.2723 34.2764 29.4788 36.378C28.7841 36.7629 28.1359 37.2343 27.5769 37.7985C25.2448 40.1521 24.3357 42.5719 24.0073 48.098H24L24.0036 48.1607L24 48.2234H24.0073C24.3357 53.7495 25.2448 56.1692 27.5769 58.5229C28.1359 59.087 28.7841 59.5585 29.4788 59.9433C33.2723 62.045 35.9392 62.2719 40.736 61.173L40.6052 57.1198C37.564 57.885 35.6658 57.9093 33.3651 56.8599C32.0512 56.2607 30.9238 55.2802 30.185 54.0394C29.4004 52.7217 29.0076 51.3925 28.707 49.2748V48.2234V48.098V47.0466C29.0076 44.9289 29.4004 43.5996 30.185 42.2819C30.9238 41.0412 32.0512 40.0607 33.3651 39.4614ZM43.9537 42.7117H41.1651V46.6623H43.9537V61.696H48.9769V46.6623H52.7308V42.7117H48.9769V41.371C48.9769 40.4057 49.1318 39.7562 49.4417 39.4225C49.7634 39.0769 50.2878 38.9041 51.0148 38.9041C51.7536 38.9041 52.5223 38.9995 53.3208 39.1901L54 35.6864C52.6295 35.2574 51.2293 35.0429 49.7992 35.0429C48.4049 35.0429 47.2489 35.2932 46.3312 35.7937C45.4255 36.2823 44.7999 36.9199 44.4543 37.7064C44.1206 38.493 43.9537 39.6847 43.9537 41.2816V42.7117Z" fill="#341772"/>
<path d="M66.3121 34.5V43.5H63.9158V38.534L62.2897 43.5H60.2846L58.6463 38.4957V43.5H56.25V34.5H59.1476L61.3116 40.3468L63.4267 34.5H66.3121Z" fill="#341772"/>
<path d="M70.0725 41.5851H72.75V43.5H67.6762V34.5H70.0725V41.5851Z" fill="#341772"/>
</g>
<defs>
<clipPath id="clip0">
<rect width="48" height="48" fill="white" transform="translate(24 24)"/>
</clipPath>
</defs>
</svg>
