<svg width="96" height="96" viewBox="0 0 96 96" fill="none" xmlns="http://www.w3.org/2000/svg">
<path d="M44 2.30935C46.4752 0.880283 49.5248 0.880284 52 2.30935L85.5692 21.6905C88.0444 23.1196 89.5692 25.7606 89.5692 28.6187V67.3811C89.5692 70.2393 88.0444 72.8803 85.5692 74.3093L52 93.6905C49.5248 95.1196 46.4752 95.1196 44 93.6905L10.4308 74.3093C7.95558 72.8803 6.43079 70.2393 6.43079 67.3811V28.6187C6.43079 25.7606 7.95558 23.1196 10.4308 21.6905L44 2.30935Z" fill="white"/>
<path fill-rule="evenodd" clip-rule="evenodd" d="M84.1907 22.9024L51.5701 4.06896C49.3322 2.77689 46.575 2.77689 44.337 4.06896L11.7165 22.9024C9.47853 24.1945 8.09991 26.5824 8.09991 29.1665V66.8335C8.09991 69.4176 9.47853 71.8055 11.7165 73.0975L44.337 91.931C46.575 93.2231 49.3322 93.2231 51.5701 91.931L84.1907 73.0975C86.4286 71.8055 87.8072 69.4176 87.8072 66.8335V29.1665C87.8072 26.5824 86.4286 24.1945 84.1907 22.9024ZM53.1201 1.38436C49.923 -0.461454 45.9841 -0.461455 42.7871 1.38436L10.1665 20.2178C6.96946 22.0637 5 25.4749 5 29.1665V66.8335C5 70.5251 6.96946 73.9363 10.1665 75.7821L42.7871 94.6156C45.9841 96.4614 49.923 96.4614 53.1201 94.6156L85.7406 75.7821C88.9377 73.9363 90.9071 70.5251 90.9071 66.8335V29.1665C90.9071 25.4749 88.9377 22.0637 85.7406 20.2178L53.1201 1.38436Z" fill="#5881D8"/>
<g clip-path="url(#clip0)">
<path d="M47.9998 24C34.7668 24 24 34.7673 24 48.0012C24 61.2363 34.7668 72.003 47.9998 72.003C61.2332 72.003 72 61.2363 72 48.0012C72 34.7673 61.2332 24 47.9998 24Z" fill="white"/>
<path d="M47.1221 48.4329C46.9065 48.9001 46.6685 49.4252 46.4222 49.9839C45.5512 51.9573 44.5867 54.3585 44.2344 55.8968C44.1078 56.4447 44.0295 57.1237 44.031 57.8765C44.031 58.1743 44.0469 58.4872 44.0722 58.806C45.3035 59.2585 46.6335 59.5073 48.0223 59.5097C49.2866 59.5073 50.5012 59.2984 51.638 58.9204C51.3708 58.6761 51.1158 58.4156 50.8837 58.1222C49.3425 56.1567 48.4826 53.2762 47.1221 48.4329" fill="#91DC47"/>
<path d="M41.4319 38.6678C38.4883 40.7424 36.5621 44.1641 36.5548 48.0418C36.5621 51.8615 38.4304 55.2389 41.2999 57.3221C42.0037 54.39 43.7681 51.7053 46.4139 46.3238C46.2568 45.8922 46.0777 45.4196 45.8773 44.9233C45.1444 43.0846 44.0865 40.9493 43.1424 39.9823C42.6611 39.4771 42.0771 39.0406 41.4319 38.6678" fill="#91DC47"/>
<path d="M58.0114 61.1955C56.4926 61.0052 55.2392 60.7755 54.1427 60.3886C52.2984 61.3044 50.2215 61.8218 48.0223 61.8218C40.4128 61.8218 34.2442 55.6539 34.2433 48.0418C34.2433 43.9115 36.0628 40.209 38.9413 37.6838C38.1714 37.4978 37.3686 37.3893 36.5484 37.3908C32.5056 37.4288 28.2379 39.6664 26.4611 45.7092C26.295 46.5888 26.3346 47.2539 26.3346 48.0422C26.3346 60.0211 36.0454 69.7324 48.0229 69.7324C55.3582 69.7324 61.8382 66.0874 65.7624 60.5128C63.6399 61.0417 61.5988 61.2947 59.8509 61.3001C59.1958 61.3001 58.5808 61.2651 58.0114 61.1955" fill="#63B132"/>
<path d="M53.9359 56.9926C54.0698 57.059 54.3733 57.1673 54.7958 57.2871C57.6377 55.2007 59.4846 51.84 59.4919 48.0417H59.4907C59.4801 41.7093 54.3559 36.5857 48.0223 36.5731C46.7634 36.5756 45.5541 36.7833 44.4218 37.1585C46.7503 39.8129 47.8701 43.6062 48.9533 47.7555C48.9538 47.7574 48.9548 47.7589 48.9551 47.7604C48.9572 47.7638 49.3016 48.9127 49.893 50.4369C50.4803 51.9591 51.3169 53.8436 52.2293 55.2169C52.8283 56.1372 53.4872 56.7985 53.9359 56.9926" fill="#90B4FE"/>
<path d="M48.0229 26.3516C40.7584 26.3516 34.3324 29.9279 30.3964 35.4116C32.4448 34.1287 34.5364 33.6659 36.3617 33.6824C38.8828 33.6897 40.8649 34.4714 41.8159 35.0062C42.0455 35.1386 42.2636 35.2811 42.4772 35.4275C44.174 34.6801 46.0491 34.2622 48.0223 34.2622C55.6327 34.2631 61.8022 40.431 61.8034 48.0418H61.8022C61.8022 51.8789 60.2329 55.3484 57.7029 57.8467C58.3239 57.9163 58.9862 57.9596 59.6625 57.9563C62.0645 57.9574 64.6609 57.4273 66.6073 55.7902C67.8765 54.721 68.9398 53.1555 69.5295 50.8083C69.6448 49.9016 69.7112 48.98 69.7112 48.0421C69.7112 36.0637 60.0013 26.3516 48.0229 26.3516" fill="#5881D8"/>
</g>
<defs>
<clipPath id="clip0">
<rect width="48" height="48.0021" fill="white" transform="translate(24 24)"/>
</clipPath>
</defs>
</svg>
