<svg width="96" height="96" viewBox="0 0 96 96" fill="none" xmlns="http://www.w3.org/2000/svg">
<path d="M44 2.30935C46.4752 0.880283 49.5248 0.880284 52 2.30935L85.5692 21.6905C88.0444 23.1196 89.5692 25.7606 89.5692 28.6187V67.3811C89.5692 70.2393 88.0444 72.8803 85.5692 74.3093L52 93.6905C49.5248 95.1196 46.4752 95.1196 44 93.6905L10.4308 74.3093C7.95558 72.8803 6.43079 70.2393 6.43079 67.3811V28.6187C6.43079 25.7606 7.95558 23.1196 10.4308 21.6905L44 2.30935Z" fill="white"/>
<path fill-rule="evenodd" clip-rule="evenodd" d="M84.1907 22.9024L51.5701 4.06896C49.3322 2.77689 46.575 2.77689 44.337 4.06896L11.7165 22.9024C9.47853 24.1945 8.09991 26.5824 8.09991 29.1665V66.8335C8.09991 69.4176 9.47853 71.8055 11.7165 73.0975L44.337 91.931C46.575 93.2231 49.3322 93.2231 51.5701 91.931L84.1907 73.0975C86.4286 71.8055 87.8072 69.4176 87.8072 66.8335V29.1665C87.8072 26.5824 86.4286 24.1945 84.1907 22.9024ZM53.1201 1.38436C49.923 -0.461454 45.9841 -0.461455 42.7871 1.38436L10.1665 20.2178C6.96946 22.0637 5 25.4749 5 29.1665V66.8335C5 70.5251 6.96946 73.9363 10.1665 75.7821L42.7871 94.6156C45.9841 96.4614 49.923 96.4614 53.1201 94.6156L85.7406 75.7821C88.9377 73.9363 90.9071 70.5251 90.9071 66.8335V29.1665C90.9071 25.4749 88.9377 22.0637 85.7406 20.2178L53.1201 1.38436Z" fill="#CD7C4F"/>
<g clip-path="url(#clip0)">
<path d="M33.28 38.94C37.48 40 42.84 40.54 49.3 40.54C55.9 40.54 61.14 40 65.32 38.94C69.78 37.9 71.92 36.5 71.92 35.18C71.92 34.24 70.96 33.32 69.22 32.62C69.62 32.88 69.92 33.32 69.92 33.8C69.92 35.14 67.9 36.24 63.84 37.16C60.08 37.98 55.28 38.56 49.44 38.56C43.8 38.56 38.78 37.98 35.16 37.2C31.26 36.24 29.22 35.2 29.22 33.84C29.22 33.28 29.48 32.8 30.26 32.24C27.82 33.18 26.5 33.98 26.5 35.18C26.64 36.54 28.82 37.9 33.28 38.94V38.94ZM42.66 34.62C47.2 34.22 48.52 31.3 53.84 30.82C56.46 30.62 58.12 31.14 58.3 32.06C58.46 32.92 57.16 33.5 55.58 33.62C53.4 33.84 52.5 33.06 52.32 32.32C50.7 32.5 50.44 33.18 50.52 33.66C50.7 34.58 52.66 35.5 56.02 35.18C59.82 34.88 61.1 33.38 60.78 31.88C60.38 29.92 57.46 28.28 52.22 28.78C45.5 29.38 45.54 32.5 40.96 32.88C39.08 33.06 38.04 32.62 37.86 31.88C37.74 31.14 38.66 30.78 39.74 30.7C40.74 30.6 41.96 30.78 42.54 31.1C42.96 30.88 43.1 30.66 43.06 30.4C42.86 29.7 41.48 29.4 39.74 29.52C36.34 29.82 36.34 31.34 36.46 32.02C36.8 33.76 39.42 34.92 42.66 34.62V34.62ZM65.5 42.3C61.3 43.28 55.94 43.92 49.48 43.92C42.88 43.92 37.5 43.24 33.32 42.32C29.56 41.36 27.56 40.3 26.86 39.2C27.22 41.66 27.84 44.04 28.64 46.3C27.68 46.9 26.82 47.64 26.04 48.64C24.6116 50.3805 23.8842 52.5914 24 54.84C24.0719 55.8655 24.3625 56.8638 24.8524 57.7676C25.3422 58.6715 26.02 59.4599 26.84 60.08C28.58 61.44 30.46 61.84 32.6 61.44C33.42 61.3 34.34 60.88 35.18 60.6C33.42 60.6 31.94 60.04 30.46 58.86C29.6567 58.302 28.9774 57.584 28.4646 56.7512C27.9518 55.9183 27.6166 54.9885 27.48 54.02C27.08 52.14 27.48 50.4 28.54 48.86C28.78 48.56 29.04 48.3 29.32 48.06C29.92 49.52 30.56 50.96 31.28 52.3C32.9 54.76 34.52 56.9 36.14 59.22C36.84 60.58 37.3 61.92 37.62 63.26C38.7043 64.7568 40.2849 65.82 42.08 66.26C44.38 67.06 46.78 67.42 49.24 67.28H49.5C52.003 67.3894 54.5048 67.0369 56.88 66.24C58.6026 65.7361 60.1172 64.6913 61.2 63.26H61.34C61.6 61.92 62.04 60.58 62.68 59.22C64.28 56.88 65.92 54.76 67.52 52.3C69.7257 48.2174 71.2395 43.7975 72 39.22C71.14 40.42 69.12 41.48 65.5 42.3Z" fill="#CD7C4F"/>
</g>
<defs>
<clipPath id="clip0">
<rect width="48" height="48" fill="white" transform="translate(24 24)"/>
</clipPath>
</defs>
</svg>
