<svg width="96" height="96" viewBox="0 0 96 96" fill="none" xmlns="http://www.w3.org/2000/svg">
<path d="M44 2.30935C46.4752 0.880283 49.5248 0.880284 52 2.30935L85.5692 21.6905C88.0444 23.1196 89.5692 25.7606 89.5692 28.6187V67.3811C89.5692 70.2393 88.0444 72.8803 85.5692 74.3093L52 93.6905C49.5248 95.1196 46.4752 95.1196 44 93.6905L10.4308 74.3093C7.95558 72.8803 6.43079 70.2393 6.43079 67.3811V28.6187C6.43079 25.7606 7.95558 23.1196 10.4308 21.6905L44 2.30935Z" fill="white"/>
<path fill-rule="evenodd" clip-rule="evenodd" d="M84.1907 22.9024L51.5701 4.06896C49.3322 2.77689 46.575 2.77689 44.337 4.06896L11.7165 22.9024C9.47853 24.1945 8.09991 26.5824 8.09991 29.1665V66.8335C8.09991 69.4176 9.47853 71.8055 11.7165 73.0975L44.337 91.931C46.575 93.2231 49.3322 93.2231 51.5701 91.931L84.1907 73.0975C86.4286 71.8055 87.8072 69.4176 87.8072 66.8335V29.1665C87.8072 26.5824 86.4286 24.1945 84.1907 22.9024ZM53.1201 1.38436C49.923 -0.461454 45.9841 -0.461455 42.7871 1.38436L10.1665 20.2178C6.96946 22.0637 5 25.4749 5 29.1665V66.8335C5 70.5251 6.96946 73.9363 10.1665 75.7821L42.7871 94.6156C45.9841 96.4614 49.923 96.4614 53.1201 94.6156L85.7406 75.7821C88.9377 73.9363 90.9071 70.5251 90.9071 66.8335V29.1665C90.9071 25.4749 88.9377 22.0637 85.7406 20.2178L53.1201 1.38436Z" fill="#0C2A72"/>
<path fill-rule="evenodd" clip-rule="evenodd" d="M38.9842 34.1883C42.6653 32.5093 45.7025 32.5481 50.5684 33.7726L50.7776 27.2874C43.1027 25.5291 38.8356 25.8922 32.766 29.2548C31.6545 29.8706 30.6174 30.6249 29.723 31.5276C25.9917 35.2934 24.537 39.165 24.0117 48.0068H24L24.0058 48.1071L24 48.2074H24.0117C24.537 57.0492 25.9917 60.9208 29.723 64.6866C30.6174 65.5892 31.6545 66.3436 32.766 66.9593C38.8356 70.322 43.1027 70.685 50.7776 68.9268L50.5684 62.4416C45.7025 63.6661 42.6653 63.7048 38.9842 62.0259C36.8819 61.0671 35.0782 59.4983 33.896 57.5131C32.6406 55.4048 32.0121 53.2779 31.5312 49.8896V48.2074V48.0068V46.3246C32.0121 42.9362 32.6406 40.8094 33.896 38.7011C35.0782 36.7158 36.8819 35.1471 38.9842 34.1883ZM55.9259 39.3887H51.4641V45.7097H55.9259V69.7636H63.9629V45.7097H69.9693V39.3887H63.9629V37.2436C63.9629 35.6991 64.2108 34.6599 64.7066 34.126C65.2214 33.5731 66.0604 33.2966 67.2235 33.2966C68.4057 33.2966 69.6356 33.4491 70.9131 33.7542L72 28.1483C69.8072 27.4619 67.5667 27.1187 65.2786 27.1187C63.0477 27.1187 61.1981 27.5191 59.7299 28.3199C58.2808 29.1017 57.2797 30.1218 56.7267 31.3803C56.1928 32.6388 55.9259 34.5455 55.9259 37.1006V39.3887Z" fill="#0C2A72"/>
</svg>
