<svg width="96" height="96" viewBox="0 0 96 96" fill="none" xmlns="http://www.w3.org/2000/svg">
<path d="M44 2.30935C46.4752 0.880283 49.5248 0.880284 52 2.30935L85.5692 21.6905C88.0444 23.1196 89.5692 25.7606 89.5692 28.6187V67.3811C89.5692 70.2393 88.0444 72.8803 85.5692 74.3093L52 93.6905C49.5248 95.1196 46.4752 95.1196 44 93.6905L10.4308 74.3093C7.95558 72.8803 6.43079 70.2393 6.43079 67.3811V28.6187C6.43079 25.7606 7.95558 23.1196 10.4308 21.6905L44 2.30935Z" fill="white"/>
<path fill-rule="evenodd" clip-rule="evenodd" d="M84.1907 22.9024L51.5701 4.06896C49.3322 2.77689 46.575 2.77689 44.337 4.06896L11.7165 22.9024C9.47853 24.1945 8.09991 26.5824 8.09991 29.1665V66.8335C8.09991 69.4176 9.47853 71.8055 11.7165 73.0975L44.337 91.931C46.575 93.2231 49.3322 93.2231 51.5701 91.931L84.1907 73.0975C86.4286 71.8055 87.8072 69.4176 87.8072 66.8335V29.1665C87.8072 26.5824 86.4286 24.1945 84.1907 22.9024ZM53.1201 1.38436C49.923 -0.461454 45.9841 -0.461455 42.7871 1.38436L10.1665 20.2178C6.96946 22.0637 5 25.4749 5 29.1665V66.8335C5 70.5251 6.96946 73.9363 10.1665 75.7821L42.7871 94.6156C45.9841 96.4614 49.923 96.4614 53.1201 94.6156L85.7406 75.7821C88.9377 73.9363 90.9071 70.5251 90.9071 66.8335V29.1665C90.9071 25.4749 88.9377 22.0637 85.7406 20.2178L53.1201 1.38436Z" fill="#2D3A3E"/>
<g clip-path="url(#clip0)">
<path d="M72 48.0006C72 57.0986 66.9371 65.0141 59.4746 69.0836C56.0658 70.9435 52.1562 71.9999 47.9999 71.9999C34.7452 71.9998 24 61.2548 24 48.0006C24 38.9019 29.0629 30.9864 36.5254 26.9168C39.9342 25.057 43.8438 24.0005 48.0001 24.0005C61.2548 24.0005 72 34.7456 72 48.0006Z" fill="#F2F2F2"/>
<path d="M72 48.0003C72 57.0984 66.9371 65.0139 59.4746 69.0834C55.4643 69.9404 51.1151 68.8113 47.9999 65.6962C43.1134 60.8098 43.1134 52.8867 47.9999 48.0003C52.8863 43.1133 52.8863 35.1908 47.9999 30.3037C44.8848 27.1887 40.5355 26.0596 36.5252 26.9165C39.934 25.0567 43.8436 24.0002 47.9999 24.0002C61.2548 24.0002 72 34.7453 72 48.0003Z" fill="#2D3A3E"/>
<path d="M42.3024 61.3114L42.3023 61.3112C41.8725 60.6958 41.4497 60.041 41.0352 59.3555C40.4867 58.4483 40.0555 57.4726 39.779 56.4492C37.991 49.8331 42.7652 43.7628 45.9012 36.925H41.7596C41.7596 36.925 37.421 43.9829 36.1662 49.3342C33.512 42.8155 31.82 36.925 31.82 36.925H27.9824C27.9824 36.925 33.2304 54.583 39.3557 62.7939H43.4164C43.0404 62.3323 42.6689 61.836 42.3024 61.3114Z" fill="#2D3A3E"/>
<path d="M53.3461 34.4109L53.3462 34.4111C53.7761 35.0265 54.1989 35.6813 54.6133 36.3668C55.1619 37.2741 55.593 38.2497 55.8696 39.2731C57.6576 45.8892 52.8834 51.9595 49.7473 58.7973H53.8889C53.8889 58.7973 58.2276 51.7394 59.4823 46.3882C62.1367 52.9068 63.8288 58.7973 63.8288 58.7973H67.6663C67.6663 58.7973 62.4183 41.1393 56.2931 32.9285H52.2324C52.6082 33.39 52.9797 33.8862 53.3461 34.4109Z" fill="#F2F2F2"/>
</g>
<defs>
<clipPath id="clip0">
<rect width="48" height="48" fill="white" transform="translate(24 24)"/>
</clipPath>
</defs>
</svg>
