<svg width="96" height="96" fill="none" xmlns="http://www.w3.org/2000/svg">
  <path d="M44 2.3093a8 8 0 018 0l33.5692 19.3812a8 8 0 014 6.9282v38.7624a7.9998 7.9998 0 01-4 6.9282L52 93.6905a7.9998 7.9998 0 01-8 0L10.4308 74.3093a7.9998 7.9998 0 01-4-6.9282V28.6187a8 8 0 014-6.9282L44 2.3093z" fill="#fff"/>
  <path fill-rule="evenodd" clip-rule="evenodd" d="M84.1907 22.9024L51.5701 4.069a7.233 7.233 0 00-7.2331 0L11.7165 22.9024a7.2332 7.2332 0 00-3.6166 6.2641v37.667a7.233 7.233 0 003.6166 6.264L44.337 91.931a7.233 7.233 0 007.2331 0l32.6206-18.8335a7.233 7.233 0 003.6165-6.264v-37.667a7.2333 7.2333 0 00-3.6165-6.2641zM53.1201 1.3844a10.333 10.333 0 00-10.333 0L10.1665 20.2178A10.3332 10.3332 0 005 29.1665v37.667a10.333 10.333 0 005.1665 8.9486l32.6206 18.8335a10.333 10.333 0 0010.333 0l32.6205-18.8335a10.333 10.333 0 005.1666-8.9486v-37.667a10.3332 10.3332 0 00-5.1666-8.9487L53.1201 1.3844z" fill="#2D3A3E"/>
  <g clip-path="url(#clip0)">
    <path d="M72 48.0006c0 9.098-5.0629 17.0135-12.5254 21.083-3.4088 1.8599-7.3184 2.9163-11.4747 2.9163C34.7452 71.9998 24 61.2548 24 48.0006c0-9.0987 5.0629-17.0142 12.5254-21.0838 3.4088-1.8598 7.3184-2.9163 11.4747-2.9163C61.2548 24.0005 72 34.7456 72 48.0006z" fill="#F2F2F2"/>
    <path d="M72 48.0003c0 9.0981-5.0629 17.0136-12.5254 21.0831-4.0103.857-8.3595-.2721-11.4747-3.3872-4.8865-4.8864-4.8865-12.8095 0-17.6959 4.8864-4.887 4.8864-12.8095 0-17.6966-3.1151-3.115-7.4644-4.2441-11.4747-3.3872 3.4088-1.8598 7.3184-2.9163 11.4747-2.9163C61.2548 24.0002 72 34.7453 72 48.0003z" fill="#2D3A3E"/>
    <path d="M42.3024 61.3114l-.0001-.0002c-.4298-.6154-.8526-1.2702-1.2671-1.9557-.5485-.9072-.9797-1.8829-1.2562-2.9063-1.788-6.6161 2.9862-12.6864 6.1222-19.5242h-4.1416s-4.3386 7.0579-5.5934 12.4092C33.512 42.8155 31.82 36.925 31.82 36.925h-3.8376s5.248 17.658 11.3733 25.8689h4.0607c-.376-.4616-.7475-.9579-1.114-1.4825z" fill="#2D3A3E"/>
    <path d="M53.3461 34.4109l.0001.0002c.4299.6154.8527 1.2702 1.2671 1.9557.5486.9073.9797 1.8829 1.2563 2.9063 1.788 6.6161-2.9862 12.6864-6.1223 19.5242h4.1416s4.3387-7.0579 5.5934-12.4091c2.6544 6.5186 4.3465 12.4091 4.3465 12.4091h3.8375s-5.248-17.658-11.3732-25.8688h-4.0607c.3758.4615.7473.9577 1.1137 1.4824z" fill="#F2F2F2"/>
  </g>
  <defs>
    <clipPath id="clip0">
      <path fill="#fff" transform="translate(24 24)" d="M0 0h48v48H0z"/>
    </clipPath>
  </defs>
</svg>
