<svg width="96" height="96" viewBox="0 0 96 96" fill="none" xmlns="http://www.w3.org/2000/svg">
<path d="M44 2.30935C46.4752 0.880283 49.5248 0.880284 52 2.30935L85.5692 21.6905C88.0444 23.1196 89.5692 25.7606 89.5692 28.6187V67.3811C89.5692 70.2393 88.0444 72.8803 85.5692 74.3093L52 93.6905C49.5248 95.1196 46.4752 95.1196 44 93.6905L10.4308 74.3093C7.95557 72.8803 6.43078 70.2393 6.43078 67.3811V28.6187C6.43078 25.7606 7.95557 23.1196 10.4308 21.6905L44 2.30935Z" fill="white"/>
<path fill-rule="evenodd" clip-rule="evenodd" d="M84.1907 22.9024L51.5701 4.06896C49.3322 2.77689 46.575 2.77689 44.337 4.06896L11.7165 22.9024C9.47853 24.1945 8.09991 26.5824 8.09991 29.1665V66.8335C8.09991 69.4176 9.47853 71.8055 11.7165 73.0975L44.337 91.931C46.575 93.2231 49.3322 93.2231 51.5701 91.931L84.1907 73.0975C86.4286 71.8055 87.8072 69.4176 87.8072 66.8335V29.1665C87.8072 26.5824 86.4286 24.1945 84.1907 22.9024ZM53.1201 1.38436C49.923 -0.461454 45.9841 -0.461455 42.7871 1.38436L10.1665 20.2178C6.96946 22.0637 5 25.4749 5 29.1665V66.8335C5 70.5251 6.96946 73.9363 10.1665 75.7821L42.7871 94.6156C45.9841 96.4614 49.923 96.4614 53.1201 94.6156L85.7406 75.7821C88.9377 73.9363 90.9071 70.5251 90.9071 66.8335V29.1665C90.9071 25.4749 88.9377 22.0637 85.7406 20.2178L53.1201 1.38436Z" fill="black"/>
<path d="M71.9274 54.5449L54.5547 71.9167C54.4852 71.9863 54.381 72.0212 54.3115 71.9863L30.5805 65.6155C30.4763 65.5807 30.4068 65.5111 30.4068 65.4415L24.0136 41.6988C23.9789 41.5944 24.0136 41.5247 24.0831 41.4551L41.4558 24.0833C41.5253 24.0137 41.6295 23.9788 41.699 24.0137L65.43 30.3845C65.5342 30.4193 65.6037 30.4889 65.6037 30.5586L71.9621 54.3012C72.0316 54.4056 71.9969 54.4753 71.9274 54.5449ZM48.648 35.6413L25.334 41.8729C25.2992 41.8729 25.2645 41.9425 25.2992 41.9773L42.3591 59.0358C42.3939 59.0706 42.4634 59.0706 42.4634 59.001L48.7175 35.6761C48.7523 35.6761 48.6828 35.6065 48.648 35.6413Z" fill="black"/>
</svg>
