<svg width="96" height="96" viewBox="0 0 96 96" fill="none" xmlns="http://www.w3.org/2000/svg">
<path d="M44 2.30935C46.4752 0.880283 49.5248 0.880284 52 2.30935L85.5692 21.6905C88.0444 23.1196 89.5692 25.7606 89.5692 28.6187V67.3811C89.5692 70.2393 88.0444 72.8803 85.5692 74.3093L52 93.6905C49.5248 95.1196 46.4752 95.1196 44 93.6905L10.4308 74.3093C7.95558 72.8803 6.43079 70.2393 6.43079 67.3811V28.6187C6.43079 25.7606 7.95558 23.1196 10.4308 21.6905L44 2.30935Z" fill="white"/>
<path fill-rule="evenodd" clip-rule="evenodd" d="M84.1907 22.9024L51.5701 4.06896C49.3322 2.77689 46.575 2.77689 44.337 4.06896L11.7165 22.9024C9.47853 24.1945 8.09991 26.5824 8.09991 29.1665V66.8335C8.09991 69.4176 9.47853 71.8055 11.7165 73.0975L44.337 91.931C46.575 93.2231 49.3322 93.2231 51.5701 91.931L84.1907 73.0975C86.4286 71.8055 87.8072 69.4176 87.8072 66.8335V29.1665C87.8072 26.5824 86.4286 24.1945 84.1907 22.9024ZM53.1201 1.38436C49.923 -0.461454 45.9841 -0.461455 42.7871 1.38436L10.1665 20.2178C6.96946 22.0637 5 25.4749 5 29.1665V66.8335C5 70.5251 6.96946 73.9363 10.1665 75.7821L42.7871 94.6156C45.9841 96.4614 49.923 96.4614 53.1201 94.6156L85.7406 75.7821C88.9377 73.9363 90.9071 70.5251 90.9071 66.8335V29.1665C90.9071 25.4749 88.9377 22.0637 85.7406 20.2178L53.1201 1.38436Z" fill="#C15F5E"/>
<g clip-path="url(#clip0)">
<path d="M67.6694 31.9376H30.9768C28.5851 31.9376 26.6462 34.1239 26.6462 36.8207V61.4478C26.6462 64.1446 28.5851 66.3309 30.9768 66.3309H67.6694C70.0611 66.3309 72 64.1446 72 61.4478V36.8207C72 34.1239 70.0611 31.9376 67.6694 31.9376Z" fill="#2E3436" fill-opacity="0.27451"/>
<path d="M66.1432 30.3876H29.4506C27.0589 30.3876 25.12 32.5738 25.12 35.2707V59.8977C25.12 62.5946 27.0589 64.7808 29.4506 64.7808H66.1432C68.5349 64.7808 70.4738 62.5946 70.4738 59.8977V35.2707C70.4738 32.5738 68.5349 30.3876 66.1432 30.3876Z" fill="#A40000"/>
<path d="M65.6859 32.1111H29.9078C28.2848 32.1111 26.9691 33.5494 26.9691 35.3237V59.8448C26.9691 61.6191 28.2848 63.0574 29.9078 63.0574H65.6859C67.309 63.0574 68.6247 61.6191 68.6247 59.8448V35.3237C68.6247 33.5494 67.309 32.1111 65.6859 32.1111Z" fill="url(#paint0_linear)"/>
<path d="M66.0511 31.0786H29.5427C27.5004 31.0786 25.8448 32.9484 25.8448 35.255V59.9134C25.8448 62.2199 27.5004 64.0898 29.5427 64.0898H66.0511C68.0934 64.0898 69.749 62.2199 69.749 59.9134V35.255C69.749 32.9484 68.0934 31.0786 66.0511 31.0786Z" stroke="url(#paint1_linear)" stroke-width="1.98589" stroke-linecap="round" stroke-linejoin="round"/>
<path d="M66.1432 30.3876H29.4506C27.0589 30.3876 25.12 32.5738 25.12 35.2707V59.8977C25.12 62.5946 27.0589 64.7808 29.4506 64.7808H66.1432C68.5349 64.7808 70.4738 62.5946 70.4738 59.8977V35.2707C70.4738 32.5738 68.5349 30.3876 66.1432 30.3876Z" stroke="#323232" stroke-width="2" stroke-linecap="round" stroke-linejoin="round"/>
<path d="M29.9078 62.9449H65.6859C67.314 62.9449 68.6247 61.5121 68.6247 59.7323V54.587C55.8455 49.5947 37.3442 46.9202 26.9691 46.8367V59.7323C26.9691 61.5121 28.2797 62.9449 29.9078 62.9449Z" fill="url(#paint2_linear)"/>
<path d="M30.2128 35.1983C29.7567 35.2555 29.3993 35.6253 29.3977 36.0729L29.4265 58.9244C29.4247 58.957 29.4247 58.9913 29.4267 59.0239C29.4214 59.0782 29.4215 59.1245 29.4268 59.1787C29.4268 59.1841 29.4268 59.1954 29.4269 59.2008C29.4318 59.2227 29.4436 59.2456 29.4503 59.2671C29.4502 59.2725 29.4502 59.2727 29.4503 59.2782C29.4552 59.3001 29.4554 59.323 29.462 59.3445C29.462 59.3499 29.462 59.3612 29.4621 59.3666C29.4726 59.3888 29.4847 59.4116 29.4971 59.4329C29.4971 59.4383 29.4971 59.4385 29.4971 59.4439C29.5133 59.4664 29.5372 59.4892 29.5555 59.5102C29.5555 59.5156 29.5555 59.5158 29.5555 59.5212C29.5661 59.5434 29.5782 59.5662 29.5906 59.5875C29.5906 59.5929 29.5906 59.6042 29.5906 59.6096C29.6128 59.6269 29.6369 59.6385 29.6606 59.6537C29.6606 59.6592 29.6606 59.6704 29.6607 59.6758C29.6772 59.6928 29.6895 59.7044 29.7074 59.72C29.713 59.7255 29.7249 59.7367 29.7307 59.7421C29.7473 59.759 29.7595 59.7706 29.7774 59.7862C29.7831 59.7863 29.7833 59.7863 29.7891 59.7862C29.8317 59.8227 29.8801 59.857 29.9291 59.8855C29.9349 59.8855 29.9467 59.8855 29.9524 59.8855C29.9749 59.8972 29.999 59.9086 30.0224 59.9185C30.0282 59.9186 30.0284 59.9186 30.0341 59.9185C30.0566 59.9302 30.0807 59.9416 30.1041 59.9516C30.1382 59.9588 30.1744 59.9589 30.2091 59.9625C30.2658 59.9729 30.3263 59.984 30.384 59.9843L30.4773 59.9842L39.0941 59.9493C41.5572 59.9448 43.2069 59.902 44.1894 59.7759C44.1952 59.7759 44.207 59.7759 44.2127 59.7758C45.153 59.6432 46.1489 59.3988 47.2318 59.0417C49.1143 58.4439 50.7837 57.5607 52.219 56.381C53.6244 55.2382 54.7134 53.8851 55.4788 52.363C56.2442 50.841 56.63 49.2316 56.6271 47.5633C56.6231 45.2409 55.9314 43.0663 54.5435 41.11C53.1555 39.1535 51.2609 37.6552 48.9293 36.663C46.559 35.6424 43.4684 35.1773 39.6343 35.1843L30.3295 35.1981C30.2894 35.1983 30.2515 35.1934 30.2128 35.1983L30.2128 35.1983ZM35.221 39.9005L39.2321 39.8945C41.1067 39.8911 42.4403 39.9489 43.1968 40.0544C43.9636 40.1614 44.8035 40.3872 45.6929 40.7362C46.5744 41.0773 47.3429 41.4951 48.0032 42.0152C48.0032 42.0206 48.0032 42.0318 48.0033 42.0373C49.8199 43.4497 50.6763 45.1474 50.6802 47.3952C50.6842 49.6968 49.8566 51.4896 48.087 52.9931C47.5427 53.4494 46.9374 53.8364 46.2695 54.1566C45.6383 54.4552 44.8149 54.7125 43.7752 54.9342C42.7946 55.1334 41.306 55.2468 39.368 55.2503L35.2403 55.2564L35.221 39.9004V39.9005Z" fill="#EEEEEC"/>
<path d="M63.4303 43.191C63.4305 43.9921 63.2611 44.7853 62.932 45.5254C62.6028 46.2655 62.1203 46.9379 61.512 47.5044C60.9036 48.0709 60.1814 48.5202 59.3865 48.8268C58.5916 49.1334 57.7396 49.2912 56.8792 49.2912C56.0188 49.2912 55.1669 49.1334 54.372 48.8268C53.5771 48.5202 52.8548 48.0709 52.2465 47.5044C51.6382 46.9379 51.1556 46.2655 50.8265 45.5254C50.4973 44.7853 50.328 43.9921 50.3282 43.191C50.328 42.39 50.4973 41.5968 50.8265 40.8567C51.1556 40.1166 51.6382 39.4441 52.2465 38.8777C52.8548 38.3112 53.5771 37.8619 54.372 37.5553C55.1669 37.2487 56.0188 37.0909 56.8792 37.0909C57.7396 37.0909 58.5916 37.2487 59.3865 37.5553C60.1814 37.8619 60.9036 38.3112 61.512 38.8777C62.1203 39.4441 62.6028 40.1166 62.932 40.8567C63.2611 41.5968 63.4305 42.39 63.4303 43.191V43.191Z" fill="#EEEEEC"/>
<path d="M66.4491 36.4887C66.4492 36.7461 66.3948 37.001 66.289 37.2388C66.1833 37.4766 66.0282 37.6926 65.8328 37.8747C65.6373 38.0567 65.4052 38.2011 65.1498 38.2996C64.8944 38.3981 64.6207 38.4488 64.3442 38.4488C64.0677 38.4488 63.794 38.3981 63.5386 38.2996C63.2832 38.2011 63.0511 38.0567 62.8556 37.8747C62.6602 37.6926 62.5051 37.4766 62.3994 37.2388C62.2936 37.001 62.2392 36.7461 62.2393 36.4887C62.2392 36.2313 62.2936 35.9765 62.3994 35.7387C62.5051 35.5009 62.6602 35.2848 62.8556 35.1028C63.0511 34.9208 63.2832 34.7764 63.5386 34.6779C63.794 34.5794 64.0677 34.5287 64.3442 34.5287C64.6207 34.5287 64.8944 34.5794 65.1498 34.6779C65.4052 34.7764 65.6373 34.9208 65.8328 35.1028C66.0282 35.2848 66.1833 35.5009 66.289 35.7387C66.3948 35.9765 66.4492 36.2313 66.4491 36.4887V36.4887Z" fill="#EEEEEC"/>
</g>
<defs>
<linearGradient id="paint0_linear" x1="26.9691" y1="32.1111" x2="36.7299" y2="39.6779" gradientUnits="userSpaceOnUse">
<stop stop-color="#F2F2F0" stop-opacity="0.135417"/>
<stop offset="1" stop-color="#EEEEEC" stop-opacity="0.395833"/>
</linearGradient>
<linearGradient id="paint1_linear" x1="25.4754" y1="30.7067" x2="70.3423" y2="64.1614" gradientUnits="userSpaceOnUse">
<stop stop-color="white"/>
<stop offset="1" stop-color="white" stop-opacity="0.333333"/>
</linearGradient>
<linearGradient id="paint2_linear" x1="26.9691" y1="62.9449" x2="36.7299" y2="55.3781" gradientUnits="userSpaceOnUse">
<stop stop-color="#F2F2F0" stop-opacity="0.135417"/>
<stop offset="1" stop-color="#EEEEEC" stop-opacity="0.395833"/>
</linearGradient>
<clipPath id="clip0">
<rect width="47.2615" height="36.3309" fill="white" transform="translate(24.7385 30)"/>
</clipPath>
</defs>
</svg>
