<svg width="96" height="96" viewBox="0 0 96 96" fill="none" xmlns="http://www.w3.org/2000/svg">
<path d="M44 2.30935C46.4752 0.880283 49.5248 0.880284 52 2.30935L85.5692 21.6905C88.0444 23.1196 89.5692 25.7606 89.5692 28.6187V67.3811C89.5692 70.2393 88.0444 72.8803 85.5692 74.3093L52 93.6905C49.5248 95.1196 46.4752 95.1196 44 93.6905L10.4308 74.3093C7.95558 72.8803 6.43079 70.2393 6.43079 67.3811V28.6187C6.43079 25.7606 7.95558 23.1196 10.4308 21.6905L44 2.30935Z" fill="white"/>
<path fill-rule="evenodd" clip-rule="evenodd" d="M84.1907 22.9024L51.5701 4.06896C49.3322 2.77689 46.575 2.77689 44.337 4.06896L11.7165 22.9024C9.47853 24.1945 8.09991 26.5824 8.09991 29.1665V66.8335C8.09991 69.4176 9.47853 71.8055 11.7165 73.0975L44.337 91.931C46.575 93.2231 49.3322 93.2231 51.5701 91.931L84.1907 73.0975C86.4286 71.8055 87.8072 69.4176 87.8072 66.8335V29.1665C87.8072 26.5824 86.4286 24.1945 84.1907 22.9024ZM53.1201 1.38436C49.923 -0.461454 45.9841 -0.461455 42.7871 1.38436L10.1665 20.2178C6.96946 22.0637 5 25.4749 5 29.1665V66.8335C5 70.5251 6.96946 73.9363 10.1665 75.7821L42.7871 94.6156C45.9841 96.4614 49.923 96.4614 53.1201 94.6156L85.7406 75.7821C88.9377 73.9363 90.9071 70.5251 90.9071 66.8335V29.1665C90.9071 25.4749 88.9377 22.0637 85.7406 20.2178L53.1201 1.38436Z" fill="#7F5DB6"/>
<g opacity="0.405" filter="url(#filter0_f)">
<path d="M72 48C72 61.2548 61.2548 72 48 72C34.7452 72 24 61.2548 24 48C24 34.7452 34.7452 24 48 24C61.2548 24 72 34.7452 72 48V48Z" fill="#211F46" fill-opacity="0.996078"/>
<path d="M72 48C72 61.2548 61.2548 72 48 72C34.7452 72 24 61.2548 24 48C24 34.7452 34.7452 24 48 24C61.2548 24 72 34.7452 72 48V48Z" stroke="#0A0B1B" stroke-width="0.78948"/>
</g>
<path d="M72 48C72 61.2548 61.2548 72 48 72C34.7452 72 24 61.2548 24 48C24 34.7452 34.7452 24 48 24C61.2548 24 72 34.7452 72 48Z" fill="url(#paint0_linear)" stroke="url(#paint1_linear)" stroke-width="1.25045"/>
<path fill-rule="evenodd" clip-rule="evenodd" d="M39.7511 64.8579C39.7511 64.8579 41.7832 65.0002 44.3975 64.7722C45.4562 64.6798 49.4759 64.289 52.4811 63.6366C52.4811 63.6366 56.1452 62.8603 58.1054 62.1452C60.1565 61.397 61.2727 60.762 61.775 59.8622C61.7531 59.6778 61.9297 59.024 60.9838 58.6313C58.5656 57.6272 55.761 57.8088 50.2114 57.6924C44.0572 57.483 42.0099 56.4633 40.9193 55.6421C39.8735 54.8089 40.3994 52.5039 44.8804 50.4736C47.1376 49.3924 55.986 47.3972 55.986 47.3972C53.006 45.9391 47.4492 43.3758 46.307 42.8223C45.3052 42.3368 43.702 41.6059 43.3544 40.7215C42.9604 39.8725 44.285 39.1411 45.0248 38.9317C47.4077 38.2513 50.7715 37.8284 53.833 37.781C55.3719 37.7571 55.6217 37.6591 55.6217 37.6591C57.745 37.3104 59.1428 35.8724 58.5604 33.595C58.0376 31.2703 55.2801 29.9043 52.6598 30.3772C50.1922 30.8225 44.2446 32.5327 44.2446 32.5327C51.5962 32.4697 52.8267 32.5912 53.3762 33.3517C53.7008 33.8009 53.2288 34.4168 51.2681 34.7338C49.1336 35.0788 44.6965 35.4944 44.6965 35.4944C40.4399 35.7447 37.4415 35.7614 36.5423 37.6461C35.9548 38.8774 37.1688 39.966 37.7009 40.6474C39.9494 43.1227 43.1974 44.4577 45.288 45.4409C46.0746 45.8108 48.3826 46.5093 48.3826 46.5093C41.6003 46.14 36.7077 48.2016 33.8378 50.5752C30.5918 53.5473 32.0277 57.0898 38.6778 59.2711C42.6057 60.5594 44.5536 61.1653 50.4126 60.643C53.8636 60.4589 54.4076 60.5685 54.442 60.8488C54.4905 61.2434 50.609 62.2238 49.5493 62.5263C46.8534 63.2961 39.7865 64.8504 39.7511 64.8579V64.8579Z" fill="white"/>
<defs>
<filter id="filter0_f" x="21.9798" y="21.9797" width="52.0405" height="52.0405" filterUnits="userSpaceOnUse" color-interpolation-filters="sRGB">
<feFlood flood-opacity="0" result="BackgroundImageFix"/>
<feBlend mode="normal" in="SourceGraphic" in2="BackgroundImageFix" result="shape"/>
<feGaussianBlur stdDeviation="0.812749" result="effect1_foregroundBlur"/>
</filter>
<linearGradient id="paint0_linear" x1="36.0674" y1="33.6655" x2="65.8187" y2="74.5502" gradientUnits="userSpaceOnUse">
<stop stop-color="#8381C5"/>
<stop offset="0.566394" stop-color="#7E55B3" stop-opacity="0.996078"/>
<stop offset="1" stop-color="#A52ECB" stop-opacity="0.992157"/>
</linearGradient>
<linearGradient id="paint1_linear" x1="67.5438" y1="61.9642" x2="40.0542" y2="28.4417" gradientUnits="userSpaceOnUse">
<stop stop-color="#411F5D"/>
<stop offset="1" stop-color="#5B2A85"/>
</linearGradient>
</defs>
</svg>
