<svg width="96" height="96" fill="none" xmlns="http://www.w3.org/2000/svg">
  <path d="M44 2.3093a8 8 0 018 0l33.5692 19.3812a8 8 0 014 6.9282v38.7624a7.9998 7.9998 0 01-4 6.9282L52 93.6905a7.9998 7.9998 0 01-8 0L10.4308 74.3093a7.9998 7.9998 0 01-4-6.9282V28.6187a8 8 0 014-6.9282L44 2.3093z" fill="#fff"/>
  <path fill-rule="evenodd" clip-rule="evenodd" d="M84.1907 22.9024L51.5701 4.069a7.233 7.233 0 00-7.2331 0L11.7165 22.9024a7.2332 7.2332 0 00-3.6166 6.2641v37.667a7.233 7.233 0 003.6166 6.264L44.337 91.931a7.233 7.233 0 007.2331 0l32.6206-18.8335a7.233 7.233 0 003.6165-6.264v-37.667a7.2333 7.2333 0 00-3.6165-6.2641zM53.1201 1.3844a10.333 10.333 0 00-10.333 0L10.1665 20.2178A10.3332 10.3332 0 005 29.1665v37.667a10.333 10.333 0 005.1665 8.9486l32.6206 18.8335a10.333 10.333 0 0010.333 0l32.6205-18.8335a10.333 10.333 0 005.1666-8.9486v-37.667a10.3332 10.3332 0 00-5.1666-8.9487L53.1201 1.3844z" fill="#7F5DB6"/>
  <g opacity=".405" filter="url(#filter0_f)">
    <path d="M72 48c0 13.2548-10.7452 24-24 24S24 61.2548 24 48s10.7452-24 24-24 24 10.7452 24 24z" fill="#211F46" fill-opacity=".9961"/>
    <path d="M72 48c0 13.2548-10.7452 24-24 24S24 61.2548 24 48s10.7452-24 24-24 24 10.7452 24 24z" stroke="#0A0B1B" stroke-width=".7895"/>
  </g>
  <path d="M72 48c0 13.2548-10.7452 24-24 24S24 61.2548 24 48s10.7452-24 24-24 24 10.7452 24 24z" fill="url(#paint0_linear)" stroke="url(#paint1_linear)" stroke-width="1.2505"/>
  <path fill-rule="evenodd" clip-rule="evenodd" d="M39.7511 64.8579s2.0321.1423 4.6464-.0857c1.0587-.0924 5.0784-.4832 8.0836-1.1356 0 0 3.6641-.7763 5.6243-1.4914 2.0511-.7482 3.1673-1.3832 3.6696-2.283-.0219-.1844.1547-.8382-.7912-1.2309-2.4182-1.0041-5.2228-.8225-10.7724-.9389-6.1542-.2094-8.2015-1.2291-9.2921-2.0503-1.0458-.8332-.5199-3.1382 3.9611-5.1685 2.2572-1.0812 11.1056-3.0764 11.1056-3.0764-2.98-1.4581-8.5368-4.0214-9.679-4.5749-1.0018-.4855-2.605-1.2164-2.9526-2.1008-.394-.849.9306-1.5804 1.6704-1.7898 2.3829-.6804 5.7467-1.1033 8.8082-1.1507 1.5389-.0239 1.7887-.1219 1.7887-.1219 2.1233-.3487 3.5211-1.7867 2.9387-4.0641-.5228-2.3247-3.2803-3.6907-5.9006-3.2178-2.4676.4453-8.4152 2.1555-8.4152 2.1555 7.3516-.063 8.5821.0585 9.1316.819.3246.4492-.1474 1.0651-2.1081 1.3821-2.1345.345-6.5716.7606-6.5716.7606-4.2566.2503-7.255.267-8.1542 2.1517-.5875 1.2313.6265 2.3199 1.1586 3.0013 2.2485 2.4753 5.4965 3.8103 7.5871 4.7935.7866.3699 3.0946 1.0684 3.0946 1.0684-6.7823-.3693-11.6749 1.6923-14.5448 4.0659-3.246 2.9721-1.8101 6.5146 4.84 8.6959 3.9279 1.2883 5.8758 1.8942 11.7348 1.3719 3.451-.1841 3.995-.0745 4.0294.2058.0485.3946-3.833 1.375-4.8927 1.6775-2.6959.7698-9.7628 2.3241-9.7982 2.3316z" fill="#fff"/>
  <defs>
    <linearGradient id="paint0_linear" x1="36.0674" y1="33.6655" x2="65.8187" y2="74.5502" gradientUnits="userSpaceOnUse">
      <stop stop-color="#8381C5"/>
      <stop offset=".5664" stop-color="#7E55B3" stop-opacity=".9961"/>
      <stop offset="1" stop-color="#A52ECB" stop-opacity=".9922"/>
    </linearGradient>
    <linearGradient id="paint1_linear" x1="67.5438" y1="61.9642" x2="40.0542" y2="28.4417" gradientUnits="userSpaceOnUse">
      <stop stop-color="#411F5D"/>
      <stop offset="1" stop-color="#5B2A85"/>
    </linearGradient>
    <filter id="filter0_f" x="21.9798" y="21.9797" width="52.0405" height="52.0405" filterUnits="userSpaceOnUse" color-interpolation-filters="sRGB">
      <feFlood flood-opacity="0" result="BackgroundImageFix"/>
      <feBlend in="SourceGraphic" in2="BackgroundImageFix" result="shape"/>
      <feGaussianBlur stdDeviation=".8127" result="effect1_foregroundBlur"/>
    </filter>
  </defs>
</svg>
