<svg width="96" height="96" viewBox="0 0 96 96" fill="none" xmlns="http://www.w3.org/2000/svg">
<path d="M44 2.30935C46.4752 0.880283 49.5248 0.880284 52 2.30935L85.5692 21.6905C88.0444 23.1196 89.5692 25.7606 89.5692 28.6187V67.3811C89.5692 70.2393 88.0444 72.8803 85.5692 74.3093L52 93.6905C49.5248 95.1196 46.4752 95.1196 44 93.6905L10.4308 74.3093C7.95558 72.8803 6.43079 70.2393 6.43079 67.3811V28.6187C6.43079 25.7606 7.95558 23.1196 10.4308 21.6905L44 2.30935Z" fill="white"/>
<path fill-rule="evenodd" clip-rule="evenodd" d="M84.1907 22.9024L51.5701 4.06896C49.3322 2.77689 46.575 2.77689 44.337 4.06896L11.7165 22.9024C9.47853 24.1945 8.09991 26.5824 8.09991 29.1665V66.8335C8.09991 69.4176 9.47853 71.8055 11.7165 73.0975L44.337 91.931C46.575 93.2231 49.3322 93.2231 51.5701 91.931L84.1907 73.0975C86.4286 71.8055 87.8072 69.4176 87.8072 66.8335V29.1665C87.8072 26.5824 86.4286 24.1945 84.1907 22.9024ZM53.1201 1.38436C49.923 -0.461454 45.9841 -0.461455 42.7871 1.38436L10.1665 20.2178C6.96946 22.0637 5 25.4749 5 29.1665V66.8335C5 70.5251 6.96946 73.9363 10.1665 75.7821L42.7871 94.6156C45.9841 96.4614 49.923 96.4614 53.1201 94.6156L85.7406 75.7821C88.9377 73.9363 90.9071 70.5251 90.9071 66.8335V29.1665C90.9071 25.4749 88.9377 22.0637 85.7406 20.2178L53.1201 1.38436Z" fill="#00ACD7"/>
<path fill-rule="evenodd" clip-rule="evenodd" d="M31.9125 49.7626C31.9875 51.0751 33.3 50.4751 33.9 50.0626C34.4625 49.6501 34.65 49.9876 34.6875 49.2001C34.725 48.6751 34.7625 48.1876 34.7625 47.6626C33.9 47.5876 32.9625 47.7751 32.25 48.3001C31.9125 48.5626 31.2 49.4251 31.9125 49.7626" fill="#00ACD7"/>
<path d="M32.625 50.7001C32.3625 50.7001 31.875 50.5876 31.8 49.8376C31.575 49.6876 31.5 49.5 31.5 49.3875C31.4625 48.9375 31.95 48.4125 32.2125 48.225C32.8125 47.775 33.6 47.55 34.425 47.55H34.9125V47.6625C34.95 48.075 34.9125 48.4876 34.875 48.8626C34.875 48.9751 34.875 49.0875 34.8375 49.2C34.8 49.7625 34.6875 49.8375 34.425 49.95C34.3125 49.9875 34.2 50.0251 34.0125 50.1751C33.825 50.2876 33.1875 50.7001 32.625 50.7001V50.7001ZM34.425 47.775C33.6375 47.775 32.925 48 32.3625 48.4125C32.1 48.6 31.725 49.05 31.7625 49.35C31.7625 49.4626 31.8375 49.5751 31.9875 49.6501L32.0625 49.6876V49.7625C32.1 50.3626 32.4 50.4376 32.625 50.4376C33 50.4376 33.525 50.1751 33.8625 49.95C34.0875 49.8 34.2375 49.7626 34.35 49.7251C34.5375 49.6501 34.575 49.65 34.6125 49.2C34.6125 49.0875 34.6125 48.9751 34.65 48.8626C34.6875 48.5251 34.6875 48.15 34.6875 47.8125C34.575 47.775 34.5 47.775 34.425 47.775V47.775Z" fill="#00ACD7"/>
<path fill-rule="evenodd" clip-rule="evenodd" d="M31.9125 49.7626C32.1 49.6876 32.325 49.6501 32.4375 49.4626Z" fill="#00ACD7"/>
<path d="M31.9125 49.875C31.875 49.875 31.8 49.8375 31.8 49.8C31.7625 49.725 31.8 49.65 31.875 49.65C31.9125 49.65 31.95 49.6125 31.95 49.6125C32.1 49.5375 32.25 49.5 32.325 49.3875C32.3625 49.35 32.4375 49.3125 32.5125 49.35C32.55 49.3875 32.5875 49.4625 32.55 49.5375C32.4 49.725 32.2125 49.8 32.0625 49.8375L31.9875 49.875H31.9125Z" fill="#00ACD7"/>
<path fill-rule="evenodd" clip-rule="evenodd" d="M34.9875 33.9002C29.8875 32.4752 33.675 25.9877 37.7625 28.6502L34.9875 33.9002V33.9002Z" fill="#6AD7E5"/>
<path d="M35.0625 34.0501L34.95 34.0126C32.325 33.2626 32.3625 31.3876 32.4375 30.8251C32.625 29.4001 33.975 27.9001 35.775 27.9001C36.4875 27.9001 37.1625 28.1251 37.8375 28.5751L37.95 28.6501L35.0625 34.0501V34.0501ZM35.775 28.1626C34.0875 28.1626 32.85 29.5501 32.6625 30.8626C32.475 32.2126 33.3 33.2626 34.9125 33.7501L37.575 28.6876C37.0125 28.3501 36.4125 28.1626 35.775 28.1626V28.1626Z" fill="black"/>
<path fill-rule="evenodd" clip-rule="evenodd" d="M57.6 28.1626C61.6125 25.3501 65.2875 31.7251 60.6 33.3376L57.6 28.1626V28.1626Z" fill="#6AD7E5"/>
<path d="M60.5625 33.4875L57.45 28.125L57.5625 28.05C58.275 27.5625 58.9875 27.3 59.7 27.3C61.425 27.3 62.6625 28.725 62.925 30.1125C63.0375 30.675 63.15 32.5875 60.675 33.4125L60.5625 33.4875ZM57.7875 28.2375L60.675 33.225C62.1375 32.7 62.8875 31.575 62.6625 30.225C62.4375 28.95 61.275 27.6375 59.7 27.6375C59.0625 27.6 58.425 27.7875 57.7875 28.2375Z" fill="black"/>
<path fill-rule="evenodd" clip-rule="evenodd" d="M58.5 66.1125C59.5125 66.75 61.3875 68.6625 59.85 69.6C58.3875 70.9501 57.5625 68.1 56.25 67.725C56.8125 66.975 57.525 66.2625 58.5 66.1125Z" fill="#F6D2A2"/>
<path d="M59.0625 70.0875C58.4625 70.0875 57.9375 69.4875 57.4875 68.925C57.075 68.475 56.6625 67.9875 56.2125 67.8375L56.025 67.8L56.1375 67.65C56.5875 67.0125 57.3375 66.1875 58.4625 66H58.5L58.5375 66.0375C59.175 66.45 60.5625 67.6125 60.525 68.7C60.525 69.1125 60.3 69.45 59.8875 69.7125C59.625 69.975 59.3625 70.0875 59.0625 70.0875V70.0875ZM56.4375 67.65C56.8875 67.8375 57.2625 68.325 57.6375 68.7375C58.0875 69.3 58.5375 69.7875 59.025 69.7875C59.25 69.7875 59.475 69.675 59.7 69.45H59.7375C60.075 69.225 60.2625 68.9625 60.2625 68.625C60.2625 67.7625 59.175 66.675 58.425 66.1875C57.75 66.375 57.075 66.825 56.4375 67.65ZM59.85 69.7125C59.8125 69.7125 59.775 69.675 59.7375 69.6375C59.6625 69.4875 59.5875 69.3 59.55 69.15C59.4375 68.85 59.325 68.55 59.1 68.325C59.0625 68.2875 59.0625 68.2125 59.1 68.1375C59.1375 68.1 59.2125 68.1 59.2875 68.1375C59.55 68.4 59.7 68.7375 59.8125 69.075L60 69.525C60.0375 69.6 60 69.675 59.9625 69.7125H59.85V69.7125Z" fill="black"/>
<path fill-rule="evenodd" clip-rule="evenodd" d="M40.2 68.2877C39 68.4752 38.325 69.5627 37.3125 70.1252C36.375 70.6877 36 69.9377 35.925 69.7877C35.775 69.7127 35.775 69.8627 35.55 69.6377C34.6875 68.2502 36.45 67.2377 37.3875 66.5627C38.7 66.2627 39.525 67.3877 40.2 68.2877" fill="#F6D2A2"/>
<path d="M36.675 70.425C36.1875 70.425 35.925 70.0125 35.85 69.8625H35.8125C35.7 69.8625 35.625 69.825 35.475 69.675V69.6375C34.65 68.325 36.075 67.3125 37.0125 66.6375L37.35 66.4125H37.425C37.575 66.375 37.6875 66.375 37.8375 66.375C38.9625 66.375 39.675 67.35 40.275 68.1375L40.4625 68.4L40.2375 68.4375C39.525 68.55 39 69 38.475 69.45C38.1375 69.75 37.8 70.0125 37.425 70.2375C37.125 70.35 36.9 70.425 36.675 70.425V70.425ZM35.85 69.6375C35.8875 69.6375 35.925 69.6375 36 69.675H36.0375L36.075 69.7125C36.15 69.825 36.3375 70.1625 36.7125 70.1625C36.9 70.1625 37.0875 70.0875 37.275 69.975C37.65 69.7875 37.9875 69.4875 38.2875 69.225C38.775 68.8125 39.3 68.3625 39.975 68.175C39.4125 67.425 38.7375 66.6 37.8 66.6C37.6875 66.6 37.575 66.6 37.4625 66.6375L37.1625 66.8625C36.1875 67.5375 34.9875 68.4 35.7 69.525C35.7375 69.6 35.775 69.6375 35.85 69.6375V69.6375ZM35.925 69.9C35.85 69.9 35.775 69.825 35.8125 69.75C35.85 69.375 36.0375 69.1125 36.225 68.8125C36.3375 68.6625 36.4125 68.5125 36.4875 68.3625C36.525 68.2875 36.6 68.2875 36.6375 68.2875C36.7125 68.325 36.7125 68.4 36.7125 68.4375C36.6375 68.625 36.525 68.775 36.4125 68.925C36.225 69.1875 36.075 69.4125 36.0375 69.7125C36.0375 69.8625 36 69.9 35.925 69.9V69.9Z" fill="black"/>
<path fill-rule="evenodd" clip-rule="evenodd" d="M35.2125 32.1376C34.5375 31.8001 34.05 31.3126 34.4625 30.5251C34.8375 29.8126 35.55 29.8876 36.225 30.2251L35.2125 32.1376V32.1376ZM59.55 31.4626C60.225 31.1251 60.7125 30.6376 60.3 29.8501C59.925 29.1376 59.2125 29.2126 58.5375 29.5501L59.55 31.4626Z" fill="black"/>
<path fill-rule="evenodd" clip-rule="evenodd" d="M64.1625 49.5751C64.0875 50.8876 62.775 50.2876 62.175 49.8751C61.6125 49.4626 61.425 49.8001 61.3875 49.0126C61.35 48.4876 61.3125 48.0001 61.3125 47.4751C62.175 47.4001 63.1125 47.5876 63.825 48.1126C64.2 48.4126 64.875 49.2376 64.1625 49.5751" fill="#F6D2A2"/>
<path d="M63.4875 50.5126C62.925 50.5126 62.2875 50.1001 62.1 49.9876C61.9125 49.8751 61.8 49.8 61.6875 49.7625C61.3875 49.65 61.3125 49.575 61.275 49.0125C61.275 48.9 61.275 48.7876 61.2375 48.6751C61.2 48.3001 61.1625 47.8875 61.2 47.475V47.3625H61.6875C62.5125 47.3625 63.3 47.5875 63.9 48.0375C64.1625 48.225 64.65 48.75 64.6125 49.2C64.6125 49.35 64.5375 49.5376 64.3125 49.6501C64.2375 50.4001 63.75 50.5126 63.4875 50.5126V50.5126ZM61.425 47.625C61.425 47.9625 61.425 48.3376 61.4625 48.6751C61.4625 48.7876 61.4625 48.9 61.5 49.0125C61.5375 49.4625 61.575 49.4626 61.7625 49.5376C61.875 49.5751 62.025 49.65 62.25 49.7625C62.5875 49.9876 63.1125 50.2501 63.4875 50.2501C63.7125 50.2501 64.0125 50.1751 64.05 49.575V49.5001L64.125 49.4626C64.275 49.3876 64.35 49.3126 64.35 49.1625C64.3875 48.8625 64.0125 48.4125 63.75 48.225C63.1875 47.8125 62.4375 47.5875 61.6875 47.5875C61.6125 47.625 61.5375 47.625 61.425 47.625V47.625Z" fill="black"/>
<path fill-rule="evenodd" clip-rule="evenodd" d="M64.1625 49.5751C63.975 49.5001 63.75 49.4626 63.6375 49.2751Z" fill="#C6B198"/>
<path d="M64.1625 49.7252H64.125L64.05 49.6877C63.8625 49.6127 63.675 49.5752 63.5625 49.3877C63.525 49.3502 63.525 49.2377 63.6 49.2002C63.6375 49.1627 63.75 49.1627 63.7875 49.2377C63.8625 49.3502 64.0125 49.3877 64.1625 49.4627C64.2 49.4627 64.2375 49.5002 64.2375 49.5002C64.3125 49.5377 64.35 49.6127 64.3125 49.6502C64.275 49.6877 64.2 49.7252 64.1625 49.7252Z" fill="black"/>
<path fill-rule="evenodd" clip-rule="evenodd" d="M47.55 25.5C52.65 25.5 57.4125 26.2125 59.925 31.125C62.175 36.6 61.35 42.525 61.725 48.3375C62.025 53.325 62.6625 59.0625 60.375 63.675C57.9375 68.5125 51.8625 69.75 46.875 69.5625C42.9375 69.4125 38.2125 68.1375 35.9625 64.5375C33.375 60.3375 34.575 54.075 34.7625 49.3875C34.9875 43.8375 33.2625 38.25 35.1 32.85C36.9375 27.1875 42.0375 25.9125 47.55 25.5" fill="#6AD7E5"/>
<path d="M47.7375 69.7126H46.8C45.2625 69.6751 42.9375 69.4126 40.65 68.4751C38.4375 67.5751 36.825 66.3001 35.775 64.6126C33.675 61.2001 34.05 56.5126 34.3875 52.3501C34.4625 51.3001 34.5375 50.3251 34.575 49.3876C34.65 47.4376 34.5 45.4126 34.3125 43.5001C34.0125 39.9751 33.7125 36.3376 34.875 32.8126C35.775 30.1876 37.3875 28.3126 39.825 27.1126C41.7375 26.1751 44.1 25.6501 47.475 25.3876C52.5 25.3501 57.4875 26.0626 60 31.0501C61.65 35.0626 61.65 39.3751 61.6875 43.5376C61.6875 45.1126 61.6875 46.7251 61.8 48.3001C61.8375 48.7876 61.875 49.2751 61.875 49.7626C62.175 54.3376 62.5125 59.5126 60.4125 63.7126C59.3625 65.8501 57.525 67.4251 55.0125 68.4376C52.9875 69.2626 50.4375 69.7126 47.7375 69.7126V69.7126ZM47.55 25.6126C42.2625 26.0251 37.0875 27.1876 35.175 32.8876C34.0125 36.3751 34.3125 39.9751 34.6125 43.4626C34.7625 45.4126 34.95 47.4001 34.875 49.3876C34.8375 50.3251 34.7625 51.3001 34.6875 52.3501C34.35 56.4751 33.975 61.1251 36.0375 64.4626C36.9 65.8501 39.675 69.1501 46.8375 69.4126H47.775C56.0625 69.4126 59.1375 65.7376 60.2625 63.5626C62.325 59.4376 61.9875 54.2626 61.725 49.7251C61.6875 49.2376 61.65 48.7501 61.65 48.2626C61.575 46.6876 61.5375 45.0751 61.5375 43.5001C61.5 39.3751 61.5 35.0626 59.8875 31.0876C58.7625 28.8751 57.075 27.3751 54.75 26.5126C52.35 25.7251 49.65 25.6126 47.55 25.6126V25.6126Z" fill="black"/>
<path fill-rule="evenodd" clip-rule="evenodd" d="M48.45 32.3251C49.35 37.6501 58.05 36.2251 56.8125 30.8626C55.6875 26.0626 48.15 27.4126 48.45 32.3251Z" fill="white"/>
<path d="M52.575 35.8126C50.8875 35.8126 48.75 34.9126 48.3 32.3626C48.225 31.1626 48.6 30.0751 49.3875 29.2501C50.25 28.3126 51.5625 27.7876 52.9125 27.7876C54.4875 27.7876 56.3625 28.6126 56.8875 30.9001C57.1875 32.1751 56.9625 33.3001 56.25 34.2001C55.4625 35.1751 54.075 35.8126 52.575 35.8126ZM48.5625 32.3251C48.75 33.3751 49.2375 34.2001 50.025 34.8001C50.7 35.3251 51.6375 35.5876 52.575 35.5876C53.9625 35.5876 55.3125 34.9876 56.0625 34.0501C56.7375 33.2251 56.925 32.1376 56.6625 30.9376C56.175 28.8001 54.4125 28.0501 52.9125 28.0501C51.6375 28.0501 50.4 28.5751 49.575 29.4376C48.8625 30.1876 48.4875 31.2001 48.5625 32.3251V32.3251Z" fill="black"/>
<path fill-rule="evenodd" clip-rule="evenodd" d="M38.0625 33.1876C39.2625 37.8001 46.65 36.6376 46.3875 31.9876C46.05 26.4376 36.9 27.4876 38.0625 33.1876Z" fill="white"/>
<path d="M42 36.2627C40.3875 36.2627 38.5125 35.4752 37.9125 33.2252C37.65 31.9127 37.9125 30.7127 38.6625 29.8127C39.4875 28.8002 40.8375 28.2002 42.3 28.2002C44.25 28.2002 46.3125 29.3627 46.4625 31.9877C46.5375 33.0752 46.2 34.0502 45.45 34.8377C44.6625 35.7002 43.35 36.2627 42 36.2627ZM42.3 28.4627C40.9125 28.4627 39.6375 29.0252 38.85 29.9627C38.1375 30.8252 37.9125 31.9127 38.175 33.1502C38.7 35.2502 40.5 36.0002 42 36.0002C43.275 36.0002 44.5125 35.5127 45.3 34.6502C45.975 33.9377 46.3125 33.0002 46.2375 31.9877C46.1625 30.3752 45.075 28.4627 42.3 28.4627V28.4627Z" fill="black"/>
<path fill-rule="evenodd" clip-rule="evenodd" d="M49.5 38.7001C49.5 39.3751 49.65 40.1626 49.5375 40.9126C49.35 41.2501 49.0125 41.2876 48.7125 41.4001C48.3 41.3251 47.9625 41.0626 47.775 40.6876C47.6625 39.8626 47.8125 39.0376 47.85 38.2126L49.5 38.7001V38.7001Z" fill="white"/>
<path d="M48.7125 41.5501C48.225 41.4751 47.85 41.1751 47.6625 40.7626C47.5875 40.1626 47.625 39.6001 47.6625 39.0376C47.7 38.7751 47.7 38.5126 47.7 38.2501V38.1001L49.6125 38.7001V38.7751C49.6125 39.0001 49.65 39.2251 49.65 39.4876C49.6875 39.9751 49.725 40.5001 49.65 40.9876V41.0251C49.5 41.3251 49.2375 41.4001 48.975 41.5126C48.9 41.4751 48.825 41.5126 48.7125 41.5501ZM47.8875 40.6501C48.0375 40.9876 48.3375 41.2126 48.675 41.2876C48.75 41.2501 48.825 41.2501 48.8625 41.2126C49.0875 41.1376 49.275 41.0626 49.3875 40.8751C49.4625 40.4251 49.425 39.9376 49.3875 39.4501C49.3875 39.2251 49.35 39.0001 49.35 38.8126L47.925 38.3626C47.925 38.5876 47.8875 38.8126 47.8875 39.0001C47.85 39.6001 47.8125 40.1251 47.8875 40.6501V40.6501Z" fill="black"/>
<path fill-rule="evenodd" clip-rule="evenodd" d="M41.3625 32.4376C41.3625 33.1876 40.8 33.7876 40.125 33.7876C39.45 33.7876 38.8875 33.1876 38.8875 32.4376C38.8875 31.6876 39.45 31.0876 40.125 31.0876C40.8 31.0876 41.3625 31.6876 41.3625 32.4376Z" fill="black"/>
<path fill-rule="evenodd" clip-rule="evenodd" d="M40.95 32.7376C40.95 32.9251 40.8 33.0751 40.65 33.0751C40.5 33.0751 40.35 32.9251 40.35 32.7376C40.35 32.5501 40.5 32.4001 40.65 32.4001C40.8375 32.4001 40.95 32.5501 40.95 32.7376Z" fill="white"/>
<path fill-rule="evenodd" clip-rule="evenodd" d="M51.825 32.1C51.825 32.85 51.2625 33.45 50.5875 33.45C49.9125 33.45 49.35 32.85 49.35 32.1C49.35 31.35 49.9125 30.75 50.5875 30.75C51.2625 30.75 51.825 31.35 51.825 32.1Z" fill="black"/>
<path fill-rule="evenodd" clip-rule="evenodd" d="M51.45 32.4C51.45 32.5875 51.3375 32.7375 51.15 32.7375C51 32.7375 50.85 32.5875 50.85 32.4C50.85 32.2125 50.9625 32.0625 51.15 32.0625C51.3 32.0625 51.45 32.2125 51.45 32.4Z" fill="white"/>
<path fill-rule="evenodd" clip-rule="evenodd" d="M45.9 38.625C45.3375 39.9376 46.2 42.6001 47.7 40.6501C47.5875 39.8251 47.7375 39 47.775 38.175L45.9 38.625Z" fill="white"/>
<path d="M46.6875 41.4751C46.425 41.4751 46.1625 41.3251 45.975 41.0251C45.5625 40.4251 45.4875 39.3001 45.7875 38.5876L45.825 38.5125L47.8875 37.9875V38.1375L47.85 38.9626C47.8125 39.5251 47.775 40.0501 47.85 40.6126V40.6501L47.8125 40.6876C47.4375 41.2126 47.0625 41.4751 46.6875 41.4751ZM46.0125 38.7375C45.7875 39.375 45.8625 40.3876 46.2 40.8751C46.35 41.1001 46.5 41.2126 46.6875 41.2126C46.95 41.2126 47.25 40.9876 47.55 40.6126C47.475 40.0501 47.5125 39.4876 47.5875 38.9626L47.625 38.325L46.0125 38.7375Z" fill="black"/>
<path fill-rule="evenodd" clip-rule="evenodd" d="M46.0875 36.075C45.075 36.15 44.25 37.3875 44.775 38.325C45.4875 39.6 47.025 38.2125 48 38.325C49.125 38.3625 50.025 39.525 50.925 38.55C51.9375 37.4625 50.475 36.4125 49.3875 35.925L46.0875 36.075V36.075Z" fill="#F6D2A2"/>
<path d="M50.1375 39.075C49.8 39.075 49.4625 38.925 49.125 38.775C48.7875 38.625 48.4125 38.475 48 38.475H47.8875C47.5875 38.475 47.25 38.5875 46.875 38.7375C46.4625 38.8875 46.05 39 45.675 39C45.225 39 44.8875 38.8125 44.6625 38.4C44.4 37.95 44.4375 37.425 44.7 36.9375C45 36.375 45.525 36.0375 46.0875 35.9625L49.425 35.8125H49.4625C50.2875 36.15 51.225 36.7875 51.4125 37.5375C51.4875 37.9125 51.375 38.2875 51.075 38.625C50.775 38.9625 50.475 39.075 50.1375 39.075V39.075ZM48.0375 38.25C48.45 38.25 48.8625 38.4375 49.2375 38.5875C49.575 38.7375 49.875 38.85 50.175 38.85C50.4375 38.85 50.6625 38.7375 50.8875 38.5125C51.15 38.25 51.225 37.95 51.1875 37.65C51.0375 37.0125 50.1375 36.4125 49.425 36.1125L46.1625 36.2625C45.675 36.3 45.225 36.6375 44.9625 37.0875C44.7375 37.5 44.7375 37.95 44.925 38.325C45.1125 38.6625 45.3375 38.8125 45.7125 38.8125C46.05 38.8125 46.425 38.6625 46.8 38.55C47.2125 38.4 47.55 38.2875 47.925 38.2875C47.925 38.2125 47.9625 38.2125 48.0375 38.25V38.25Z" fill="#231F20"/>
<path fill-rule="evenodd" clip-rule="evenodd" d="M45.975 36.0375C45.9 34.275 49.275 34.05 49.65 35.5125C50.0625 37.0125 46.125 37.35 45.975 36.0375" fill="black"/>
</svg>
