<svg width="96" height="96" viewBox="0 0 96 96" fill="none" xmlns="http://www.w3.org/2000/svg">
<path d="M44 2.30935C46.4752 0.880283 49.5248 0.880284 52 2.30935L85.5692 21.6905C88.0444 23.1196 89.5692 25.7606 89.5692 28.6187V67.3811C89.5692 70.2393 88.0444 72.8803 85.5692 74.3093L52 93.6905C49.5248 95.1196 46.4752 95.1196 44 93.6905L10.4308 74.3093C7.95558 72.8803 6.43079 70.2393 6.43079 67.3811V28.6187C6.43079 25.7606 7.95558 23.1196 10.4308 21.6905L44 2.30935Z" fill="white"/>
<path fill-rule="evenodd" clip-rule="evenodd" d="M84.1907 22.9024L51.5701 4.06896C49.3322 2.77689 46.575 2.77689 44.337 4.06896L11.7165 22.9024C9.47853 24.1945 8.09991 26.5824 8.09991 29.1665V66.8335C8.09991 69.4176 9.47853 71.8055 11.7165 73.0975L44.337 91.931C46.575 93.2231 49.3322 93.2231 51.5701 91.931L84.1907 73.0975C86.4286 71.8055 87.8072 69.4176 87.8072 66.8335V29.1665C87.8072 26.5824 86.4286 24.1945 84.1907 22.9024ZM53.1201 1.38436C49.923 -0.461454 45.9841 -0.461455 42.7871 1.38436L10.1665 20.2178C6.96946 22.0637 5 25.4749 5 29.1665V66.8335C5 70.5251 6.96946 73.9363 10.1665 75.7821L42.7871 94.6156C45.9841 96.4614 49.923 96.4614 53.1201 94.6156L85.7406 75.7821C88.9377 73.9363 90.9071 70.5251 90.9071 66.8335V29.1665C90.9071 25.4749 88.9377 22.0637 85.7406 20.2178L53.1201 1.38436Z" fill="#619CBC"/>
<g clip-path="url(#clip0)">
<path d="M67.7773 63.9255L48.0002 56.2594L28.2232 63.9236L36.0321 51.7055L15.9998 44.2236L40.6038 44.3384L47.9997 32.0502L55.3964 44.3391L80.0004 44.2266L59.968 51.7067L67.7782 63.9255" fill="#619CBC"/>
<path d="M65.1022 61.7402L48.0171 55.118L30.9329 61.739L37.6786 51.1842L20.3733 44.7209L41.6263 44.8199L48.0155 34.2046L54.4051 44.8205L75.6599 44.7232L58.3547 51.185L65.1017 61.7401" fill="#619CBC"/>
<path d="M34.9018 38.3295C36.6084 38.3295 35.6138 42.5939 35.0069 43.8797C34.4872 44.9805 33.3172 46.5682 31.9306 46.5682C30.2669 46.5682 30.3164 44.7048 30.9787 43.3022C31.3372 42.5428 31.8882 41.6915 32.6473 41.0656C32.453 41.7189 33.1098 42.1651 32.8441 42.728C32.6627 43.1124 32.2872 43.5323 32.092 43.9458C31.7764 44.6142 31.897 45.8005 32.6595 45.8005C33.342 45.8005 33.9484 44.9551 34.197 44.4284C34.7064 43.3492 35.9799 38.7454 34.5564 38.7454C32.9169 38.7454 30.0918 42.7405 29.5002 43.9937C28.4442 46.2307 29.2097 48.9859 31.6156 48.9859C33.2413 48.9859 34.5785 47.423 35.2244 46.0547C35.6092 45.2397 35.8187 44.4288 35.9012 43.6642L36.2167 43.6064C36.2865 45.7113 38.5132 49.1966 37.5653 51.2045C36.3522 53.7743 32.7248 53.7513 30.6536 54.6633C30.2183 53.645 29.6285 52.6982 28.798 51.9755C30.6456 51.3541 35.1854 50.3105 36.1727 48.2193C36.5876 47.3406 36.3052 45.8838 35.8258 45.39C35.7443 45.7006 35.6314 46.0171 35.4816 46.3344C34.6363 48.125 32.8265 49.5136 30.9608 49.5136C28.3631 49.5136 27.262 47.647 28.4844 45.0568C29.2181 43.5026 32.9648 38.3294 34.902 38.3294" fill="#619CBC"/>
<path d="M34.9018 38.3295C36.6084 38.3295 35.6138 42.5939 35.0069 43.8797C34.4872 44.9805 33.3172 46.5682 31.9306 46.5682C30.2669 46.5682 30.3164 44.7048 30.9787 43.3022C31.3372 42.5428 31.8882 41.6915 32.6473 41.0656C32.453 41.7189 33.1098 42.1651 32.8441 42.728C32.6627 43.1124 32.2872 43.5323 32.092 43.9458C31.7764 44.6142 31.897 45.8005 32.6595 45.8005C33.342 45.8005 33.9484 44.9551 34.197 44.4284C34.7064 43.3492 35.9799 38.7454 34.5564 38.7454C32.9169 38.7454 30.0918 42.7405 29.5002 43.9937C28.4442 46.2307 29.2097 48.9859 31.6156 48.9859C33.2413 48.9859 34.5785 47.423 35.2244 46.0547C35.6092 45.2397 35.8187 44.4288 35.9012 43.6642L36.2167 43.6064C36.2865 45.7113 38.5132 49.1966 37.5653 51.2045C36.3522 53.7743 32.7248 53.7513 30.6536 54.6633C30.2183 53.645 29.6285 52.6982 28.798 51.9755C30.6456 51.354 35.1854 50.3105 36.1727 48.2193C36.5876 47.3406 36.3052 45.8838 35.8258 45.39C35.7443 45.7006 35.6314 46.0171 35.4816 46.3344C34.6363 48.125 32.8265 49.5136 30.9608 49.5136C28.3631 49.5136 27.262 47.647 28.4844 45.0568C29.2181 43.5026 32.9648 38.3294 34.902 38.3294L34.9018 38.3295Z" fill="#619CBC" stroke="black" stroke-width="5.7172" stroke-miterlimit="3.8637" stroke-linejoin="round"/>
<path d="M39.3405 44.5011C39.4437 44.7547 39.742 46.1906 39.9687 46.1906C40.458 46.1906 41.3423 44.8592 41.5795 44.5135C42.0146 44.7985 41.7732 45.3967 42.5797 45.3967C42.9447 45.3967 43.1283 44.6103 43.5083 44.5975C43.5217 44.9154 43.5421 45.203 43.3688 45.5702C43.1016 46.1364 42.4254 46.9036 41.7607 46.9036C41.2847 46.9036 40.6216 46.3304 40.4913 46.3304C40.3498 46.3304 40.0902 46.3966 40.0073 46.5719C39.6612 47.3052 40.5865 49.7534 41.5145 49.7534C42.0104 49.7534 42.6021 49.3896 43.1207 49.1652C42.9857 50.0473 42.9669 50.7911 43.1456 51.5501C42.6729 51.8496 42.1193 51.9758 41.675 51.9758C39.3947 51.9758 40.6523 46.6728 38.5496 45.5429L39.3404 44.5011" fill="black"/>
<path d="M39.3405 44.5011C39.4437 44.7547 39.742 46.1906 39.9687 46.1906C40.458 46.1906 41.3423 44.8592 41.5795 44.5135C42.0146 44.7985 41.7732 45.3967 42.5797 45.3967C42.9447 45.3967 43.1283 44.6103 43.5083 44.5975C43.5217 44.9154 43.5421 45.203 43.3688 45.5702C43.1016 46.1364 42.4254 46.9036 41.7607 46.9036C41.2847 46.9036 40.6216 46.3304 40.4913 46.3304C40.3498 46.3304 40.0902 46.3966 40.0073 46.5719C39.6612 47.3052 40.5865 49.7534 41.5145 49.7534C42.0104 49.7534 42.6021 49.3896 43.1207 49.1652C42.9857 50.0473 42.9669 50.7911 43.1456 51.5501C42.6729 51.8496 42.1193 51.9758 41.675 51.9758C39.3947 51.9758 40.6523 46.6728 38.5496 45.5429L39.3405 44.5011Z" stroke="black" stroke-width="5.7172" stroke-miterlimit="3.8637" stroke-linejoin="round"/>
<path fill-rule="evenodd" clip-rule="evenodd" d="M48.1045 44.0769C49.8278 44.0769 50.5083 47.1769 49.7351 48.815C49.1351 50.0857 48.0715 51.0068 46.7091 51.0068C44.3028 51.0068 44.6043 47.7267 45.543 45.7378C45.8019 45.19 46.6864 43.9958 47.3784 43.9958C47.6325 43.9958 47.8431 44.0768 48.1047 44.0768L48.1045 44.0769ZM48.0512 44.3662C47.7799 44.3662 47.5414 44.5003 47.4156 44.7672C47.1514 45.3266 48.4686 45.8927 48.2795 46.293C48.1605 46.545 47.7075 46.7808 47.4789 46.7808C46.337 46.7808 46.3467 45.2951 47.0274 44.3267C46.6042 44.5964 46.3267 45.0083 46.1465 45.3904C45.4773 46.8077 46.0083 48.7576 47.5355 48.7576C48.3793 48.7576 49.3512 47.9994 49.7289 47.1991C50.1937 46.2151 49.0052 44.3662 48.0512 44.3662" fill="black"/>
<path d="M48.1045 44.0769C49.8278 44.0769 50.5083 47.1769 49.7351 48.815C49.1351 50.0857 48.0715 51.0068 46.7091 51.0068C44.3028 51.0068 44.6043 47.7267 45.543 45.7378C45.8019 45.19 46.6864 43.9958 47.3784 43.9958C47.6325 43.9958 47.8431 44.0768 48.1047 44.0768L48.1045 44.0769Z" stroke="black" stroke-width="5.7172" stroke-miterlimit="3.8637" stroke-linejoin="round"/>
<path d="M48.0506 44.3662C47.7793 44.3662 47.5407 44.5003 47.415 44.7672C47.1508 45.3266 48.4679 45.8927 48.2788 46.293C48.1599 46.545 47.7069 46.7808 47.4783 46.7808C46.3364 46.7808 46.3461 45.295 47.0268 44.3267C46.6035 44.5964 46.3261 45.0083 46.1458 45.3904C45.4767 46.8077 46.0077 48.7576 47.5348 48.7576C48.3787 48.7576 49.3506 47.9994 49.7283 47.1991C50.1931 46.2151 49.0046 44.3662 48.0506 44.3662H48.0506Z" stroke="black" stroke-width="5.7172" stroke-miterlimit="3.8637" stroke-linejoin="round"/>
<path fill-rule="evenodd" clip-rule="evenodd" d="M55.9373 49.1799C55.487 50.1337 54.6478 50.6575 53.7029 50.6575C50.7042 50.6575 50.1092 47.9231 51.4088 45.17C51.7157 44.5202 52.2193 43.8013 52.9884 43.8013C55.3974 43.8013 57.0756 46.7682 55.9372 49.1798L55.9373 49.1799ZM53.5449 44.1467C53.3237 44.1467 53.1296 44.2267 53.0235 44.4515C52.7903 44.9458 54.0594 45.3866 54.0612 45.8974C53.9286 46.0543 53.5575 46.23 53.3958 46.23C52.4819 46.23 51.7921 44.991 52.5723 44.0702C52.2557 44.2713 52.0678 44.5723 51.9341 44.8553C51.1429 46.5311 52.2707 48.2253 53.9139 48.2253C54.5978 48.2253 55.4794 47.8447 55.8346 47.092C56.3374 46.0267 54.5466 44.1468 53.5448 44.1468" fill="black"/>
<path d="M55.9373 49.1799C55.487 50.1337 54.6478 50.6575 53.7029 50.6575C50.7042 50.6575 50.1092 47.9231 51.4088 45.17C51.7157 44.5202 52.2193 43.8013 52.9884 43.8013C55.3974 43.8013 57.0756 46.7682 55.9372 49.1798L55.9373 49.1799Z" stroke="black" stroke-width="5.7172" stroke-miterlimit="3.8637" stroke-linejoin="round"/>
<path d="M53.5445 44.147C53.3233 44.147 53.1292 44.2269 53.0232 44.4517C52.7899 44.946 54.0591 45.3868 54.0608 45.8976C53.9283 46.0546 53.5572 46.2303 53.3955 46.2303C52.4815 46.2303 51.7917 44.9913 52.572 44.0705C52.2553 44.2716 52.0674 44.5725 51.9337 44.8555C51.1426 46.5313 52.2703 48.2256 53.9136 48.2256C54.5975 48.2256 55.479 47.845 55.8343 47.0923C56.3371 46.027 54.5463 44.147 53.5445 44.147L53.5445 44.147Z" stroke="black" stroke-width="5.7172" stroke-miterlimit="3.8637" stroke-linejoin="round"/>
<path d="M59.0384 44.1309C61.6227 44.1309 62.9358 48.873 61.7809 51.3191C61.5603 51.7867 61.1488 52.2542 60.6063 52.2542C57.6539 52.2542 58.4077 46.3856 56.7456 44.7182C56.8976 44.5567 57.0431 44.3878 57.1765 44.2177C58.2996 45.5357 57.7415 49.0042 60.1401 49.0042C60.6927 49.0042 61.1106 48.5204 61.3336 48.0482C61.9291 46.7863 60.827 44.5949 59.6206 44.5949C59.6085 44.5949 59.4353 44.602 59.4392 44.6722C59.4836 45.4776 60.1172 44.9754 59.4792 46.346C58.8274 46.2161 58.137 45.1697 58.4934 44.4147C58.5982 44.1928 58.8607 44.1309 59.0386 44.1309" fill="black"/>
<path d="M59.0384 44.1309C61.6227 44.1309 62.9358 48.873 61.7809 51.3191C61.5603 51.7867 61.1488 52.2542 60.6063 52.2542C57.6539 52.2542 58.4077 46.3856 56.7456 44.7182C56.8976 44.5567 57.0431 44.3878 57.1765 44.2177C58.2996 45.5357 57.7415 49.0042 60.1401 49.0042C60.6927 49.0042 61.1106 48.5204 61.3336 48.0482C61.9291 46.7863 60.827 44.5949 59.6206 44.5949C59.6085 44.5949 59.4353 44.602 59.4392 44.6722C59.4836 45.4776 60.1172 44.9754 59.4792 46.346C58.8274 46.2161 58.137 45.1697 58.4934 44.4147C58.5982 44.1928 58.8607 44.1309 59.0386 44.1309L59.0384 44.1309Z" stroke="black" stroke-width="5.7172" stroke-miterlimit="3.8637" stroke-linejoin="round"/>
<path fill-rule="evenodd" clip-rule="evenodd" d="M65.4636 44.0768C65.7069 44.0998 66.0727 44.0781 66.2815 44.1417C66.3207 44.1535 66.2909 44.2025 66.2977 44.2411C66.361 44.5994 66.4609 44.9394 66.5472 45.2857C66.8838 46.6348 67.0865 48.0199 67.4729 49.357C67.8932 50.813 68.3315 52.4536 67.8225 54.2807C67.7727 54.4594 67.7062 54.6409 67.6202 54.8231C67.0432 56.0456 62.0745 57.4541 60.7772 57.4541C60.6197 57.4541 60.4494 57.4094 60.3743 57.3069C60.9215 56.9589 61.2644 56.6021 61.5091 56.0838C61.8022 55.4627 61.7978 54.8809 61.7592 54.3452C61.8629 54.4055 65.6803 54.3114 65.8187 54.3114C66.3798 54.3114 66.8617 53.7688 67.0867 53.2918C67.5002 52.4158 67.4295 51.5219 67.3579 50.7758C67.322 50.4024 67.2717 50.034 67.2021 49.6761L67.0967 49.1579L67.0834 49.1012L67.0705 49.0446C67.1332 49.0446 67.077 49.1546 67.0793 49.21C67.1179 50.1131 67.1017 51.3738 66.6166 52.4017C66.391 52.8793 66.0222 53.3717 65.4561 53.3717C62.9751 53.3717 64.2229 46.3347 62.2346 44.6621C62.3447 44.4801 62.4431 44.293 62.5256 44.1094C63.7022 45.5305 63.7638 49.448 65.4956 49.448C65.9159 49.448 66.3504 49.0541 66.5292 48.6755C67.2985 47.0457 66.0205 45.1471 65.4635 44.0769" fill="black"/>
<path d="M65.4636 44.0768C65.7069 44.0998 66.0727 44.0781 66.2815 44.1417C66.3207 44.1535 66.2909 44.2025 66.2977 44.2411C66.361 44.5994 66.4609 44.9394 66.5472 45.2857C66.8838 46.6348 67.0865 48.0199 67.4729 49.357C67.8932 50.813 68.3315 52.4536 67.8225 54.2807C67.7727 54.4594 67.7062 54.6409 67.6202 54.8231C67.0432 56.0456 62.0745 57.4541 60.7772 57.4541C60.6197 57.4541 60.4494 57.4094 60.3743 57.3069C60.9215 56.9589 61.2644 56.6021 61.5091 56.0838C61.8022 55.4627 61.7978 54.8809 61.7592 54.3452C61.8629 54.4055 65.6803 54.3114 65.8187 54.3114C66.3798 54.3114 66.8617 53.7688 67.0867 53.2918C67.5002 52.4158 67.4295 51.5219 67.3579 50.7758C67.322 50.4024 67.2717 50.034 67.2021 49.6761L67.0967 49.1579L67.0834 49.1012L67.0705 49.0446C67.1332 49.0446 67.077 49.1546 67.0793 49.21C67.1179 50.1131 67.1017 51.3738 66.6166 52.4017C66.391 52.8793 66.0222 53.3717 65.4561 53.3717C62.9751 53.3717 64.2229 46.3347 62.2346 44.6621C62.3447 44.4801 62.4431 44.293 62.5256 44.1094C63.7022 45.5305 63.7638 49.448 65.4956 49.448C65.9159 49.448 66.3504 49.0541 66.5292 48.6755C67.2985 47.0457 66.0205 45.1471 65.4635 44.0769L65.4636 44.0768Z" stroke="black" stroke-width="5.7172" stroke-miterlimit="3.8637" stroke-linejoin="round"/>
<path d="M34.9018 38.3295C36.6084 38.3295 35.6138 42.5939 35.0069 43.8797C34.4872 44.9805 33.3172 46.5682 31.9306 46.5682C30.2669 46.5682 30.3164 44.7048 30.9787 43.3022C31.3372 42.5428 31.8882 41.6915 32.6473 41.0656C32.453 41.7189 33.1098 42.1651 32.8441 42.728C32.6627 43.1124 32.2872 43.5323 32.092 43.9458C31.7764 44.6142 31.897 45.8005 32.6595 45.8005C33.342 45.8005 33.9484 44.9551 34.197 44.4284C34.7064 43.3492 35.9799 38.7454 34.5564 38.7454C32.9169 38.7454 30.0918 42.7405 29.5002 43.9937C28.4442 46.2307 29.2097 48.9859 31.6156 48.9859C33.2413 48.9859 34.5785 47.423 35.2244 46.0547C35.6092 45.2397 35.8187 44.4288 35.9012 43.6642L36.2167 43.6064C36.2865 45.7113 38.5132 49.1966 37.5653 51.2045C36.3522 53.7743 32.7248 53.7513 30.6536 54.6633C30.2183 53.645 29.6285 52.6982 28.798 51.9755C30.6456 51.354 35.1854 50.3105 36.1727 48.2193C36.5876 47.3406 36.3052 45.8838 35.8258 45.39C35.7443 45.7006 35.6314 46.0171 35.4816 46.3344C34.6363 48.125 32.8265 49.5136 30.9608 49.5136C28.3631 49.5136 27.262 47.647 28.4844 45.0568C29.2181 43.5026 32.9648 38.3294 34.902 38.3294" fill="black"/>
<path d="M34.9018 38.3295C36.6084 38.3295 35.6138 42.5939 35.0069 43.8797C34.4872 44.9805 33.3172 46.5682 31.9306 46.5682C30.2669 46.5682 30.3164 44.7048 30.9787 43.3022C31.3372 42.5428 31.8882 41.6915 32.6473 41.0656C32.453 41.7189 33.1098 42.1651 32.8441 42.728C32.6627 43.1124 32.2872 43.5323 32.092 43.9458C31.7764 44.6142 31.897 45.8005 32.6595 45.8005C33.342 45.8005 33.9484 44.9551 34.197 44.4284C34.7064 43.3492 35.9799 38.7454 34.5564 38.7454C32.9169 38.7454 30.0918 42.7405 29.5002 43.9937C28.4442 46.2307 29.2097 48.9859 31.6156 48.9859C33.2413 48.9859 34.5785 47.423 35.2244 46.0547C35.6092 45.2397 35.8187 44.4288 35.9012 43.6642L36.2167 43.6064C36.2865 45.7113 38.5132 49.1966 37.5653 51.2045C36.3522 53.7743 32.7248 53.7513 30.6536 54.6633C30.2183 53.645 29.6285 52.6982 28.798 51.9755C30.6456 51.354 35.1854 50.3105 36.1727 48.2193C36.5876 47.3406 36.3052 45.8838 35.8258 45.39C35.7443 45.7006 35.6314 46.0171 35.4816 46.3344C34.6363 48.125 32.8265 49.5136 30.9608 49.5136C28.3631 49.5136 27.262 47.647 28.4844 45.0568C29.2181 43.5026 32.9648 38.3294 34.902 38.3294L34.9018 38.3295Z" stroke="black" stroke-width="0.47644" stroke-miterlimit="3.8637"/>
<path d="M39.3405 44.5011C39.4437 44.7547 39.742 46.1906 39.9687 46.1906C40.458 46.1906 41.3423 44.8592 41.5795 44.5135C42.0146 44.7985 41.7732 45.3967 42.5797 45.3967C42.9447 45.3967 43.1283 44.6103 43.5083 44.5975C43.5217 44.9154 43.5421 45.203 43.3688 45.5702C43.1016 46.1364 42.4254 46.9036 41.7607 46.9036C41.2847 46.9036 40.6216 46.3304 40.4913 46.3304C40.3498 46.3304 40.0902 46.3966 40.0073 46.5719C39.6612 47.3052 40.5865 49.7534 41.5145 49.7534C42.0104 49.7534 42.6021 49.3896 43.1207 49.1652C42.9857 50.0473 42.9669 50.7911 43.1456 51.5501C42.6729 51.8496 42.1193 51.9758 41.675 51.9758C39.3947 51.9758 40.6523 46.6728 38.5496 45.5429L39.3404 44.5011" fill="black"/>
<path d="M39.3405 44.5011C39.4437 44.7547 39.742 46.1906 39.9687 46.1906C40.458 46.1906 41.3423 44.8592 41.5795 44.5135C42.0146 44.7985 41.7732 45.3967 42.5797 45.3967C42.9447 45.3967 43.1283 44.6103 43.5083 44.5975C43.5217 44.9154 43.5421 45.203 43.3688 45.5702C43.1016 46.1364 42.4254 46.9036 41.7607 46.9036C41.2847 46.9036 40.6216 46.3304 40.4913 46.3304C40.3498 46.3304 40.0902 46.3966 40.0073 46.5719C39.6612 47.3052 40.5865 49.7534 41.5145 49.7534C42.0104 49.7534 42.6021 49.3896 43.1207 49.1652C42.9857 50.0473 42.9669 50.7911 43.1456 51.5501C42.6729 51.8496 42.1193 51.9758 41.675 51.9758C39.3947 51.9758 40.6523 46.6728 38.5496 45.5429L39.3405 44.5011Z" stroke="black" stroke-width="0.47644" stroke-miterlimit="3.8637"/>
<path fill-rule="evenodd" clip-rule="evenodd" d="M48.1045 44.0769C49.8278 44.0769 50.5083 47.1769 49.7351 48.815C49.1351 50.0857 48.0715 51.0068 46.7091 51.0068C44.3028 51.0068 44.6043 47.7267 45.543 45.7378C45.8019 45.19 46.6864 43.9958 47.3784 43.9958C47.6325 43.9958 47.8431 44.0768 48.1047 44.0768L48.1045 44.0769ZM48.0512 44.3662C47.7799 44.3662 47.5414 44.5003 47.4156 44.7672C47.1514 45.3266 48.4686 45.8927 48.2795 46.293C48.1605 46.545 47.7075 46.7808 47.4789 46.7808C46.337 46.7808 46.3467 45.2951 47.0274 44.3267C46.6042 44.5964 46.3267 45.0083 46.1465 45.3904C45.4773 46.8077 46.0083 48.7576 47.5355 48.7576C48.3793 48.7576 49.3512 47.9994 49.7289 47.1991C50.1937 46.2151 49.0052 44.3662 48.0512 44.3662" fill="black"/>
<path d="M48.1045 44.0769C49.8278 44.0769 50.5083 47.1769 49.7351 48.815C49.1351 50.0857 48.0715 51.0068 46.7091 51.0068C44.3028 51.0068 44.6043 47.7267 45.543 45.7378C45.8019 45.19 46.6864 43.9958 47.3784 43.9958C47.6325 43.9958 47.8431 44.0768 48.1047 44.0768L48.1045 44.0769Z" stroke="black" stroke-width="0.47644" stroke-miterlimit="3.8637"/>
<path d="M48.0506 44.3662C47.7793 44.3662 47.5407 44.5003 47.415 44.7672C47.1508 45.3266 48.4679 45.8927 48.2788 46.293C48.1599 46.545 47.7069 46.7808 47.4783 46.7808C46.3364 46.7808 46.3461 45.295 47.0268 44.3267C46.6035 44.5964 46.3261 45.0083 46.1458 45.3904C45.4767 46.8077 46.0077 48.7576 47.5348 48.7576C48.3787 48.7576 49.3506 47.9994 49.7283 47.1991C50.1931 46.2151 49.0046 44.3662 48.0506 44.3662H48.0506Z" stroke="black" stroke-width="0.47644" stroke-miterlimit="3.8637"/>
<path fill-rule="evenodd" clip-rule="evenodd" d="M55.9373 49.1799C55.487 50.1337 54.6478 50.6575 53.7029 50.6575C50.7042 50.6575 50.1092 47.9231 51.4088 45.17C51.7157 44.5202 52.2193 43.8013 52.9884 43.8013C55.3974 43.8013 57.0756 46.7682 55.9372 49.1798L55.9373 49.1799ZM53.5449 44.1467C53.3237 44.1467 53.1296 44.2267 53.0235 44.4515C52.7903 44.9458 54.0594 45.3866 54.0612 45.8974C53.9286 46.0543 53.5575 46.23 53.3958 46.23C52.4819 46.23 51.7921 44.991 52.5723 44.0702C52.2557 44.2713 52.0678 44.5723 51.9341 44.8553C51.1429 46.5311 52.2707 48.2253 53.9139 48.2253C54.5978 48.2253 55.4794 47.8447 55.8346 47.092C56.3374 46.0267 54.5466 44.1468 53.5448 44.1468" fill="black"/>
<path d="M55.9373 49.1799C55.487 50.1337 54.6478 50.6575 53.7029 50.6575C50.7042 50.6575 50.1092 47.9231 51.4088 45.17C51.7157 44.5202 52.2193 43.8013 52.9884 43.8013C55.3974 43.8013 57.0756 46.7682 55.9372 49.1798L55.9373 49.1799Z" stroke="black" stroke-width="0.47644" stroke-miterlimit="3.8637"/>
<path d="M53.5445 44.147C53.3233 44.147 53.1292 44.2269 53.0232 44.4517C52.7899 44.946 54.0591 45.3868 54.0608 45.8976C53.9283 46.0546 53.5572 46.2303 53.3955 46.2303C52.4815 46.2303 51.7917 44.9913 52.572 44.0705C52.2553 44.2716 52.0674 44.5725 51.9337 44.8555C51.1426 46.5313 52.2703 48.2256 53.9136 48.2256C54.5975 48.2256 55.479 47.845 55.8343 47.0923C56.3371 46.027 54.5463 44.147 53.5445 44.147L53.5445 44.147Z" stroke="black" stroke-width="0.47644" stroke-miterlimit="3.8637"/>
<path d="M59.0384 44.1309C61.6227 44.1309 62.9358 48.873 61.7809 51.3191C61.5603 51.7867 61.1488 52.2542 60.6063 52.2542C57.6539 52.2542 58.4077 46.3856 56.7456 44.7182C56.8976 44.5567 57.0431 44.3878 57.1765 44.2177C58.2996 45.5357 57.7415 49.0042 60.1401 49.0042C60.6927 49.0042 61.1106 48.5204 61.3336 48.0482C61.9291 46.7863 60.827 44.5949 59.6206 44.5949C59.6085 44.5949 59.4353 44.602 59.4392 44.6722C59.4836 45.4776 60.1172 44.9754 59.4792 46.346C58.8274 46.2161 58.137 45.1697 58.4934 44.4147C58.5982 44.1928 58.8607 44.1309 59.0386 44.1309" fill="black"/>
<path d="M59.0384 44.1309C61.6227 44.1309 62.9358 48.873 61.7809 51.3191C61.5603 51.7867 61.1488 52.2542 60.6063 52.2542C57.6539 52.2542 58.4077 46.3856 56.7456 44.7182C56.8976 44.5567 57.0431 44.3878 57.1765 44.2177C58.2996 45.5357 57.7415 49.0042 60.1401 49.0042C60.6927 49.0042 61.1106 48.5204 61.3336 48.0482C61.9291 46.7863 60.827 44.5949 59.6206 44.5949C59.6085 44.5949 59.4353 44.602 59.4392 44.6722C59.4836 45.4776 60.1172 44.9754 59.4792 46.346C58.8274 46.2161 58.137 45.1697 58.4934 44.4147C58.5982 44.1928 58.8607 44.1309 59.0386 44.1309L59.0384 44.1309Z" stroke="black" stroke-width="0.47644" stroke-miterlimit="3.8637"/>
<path fill-rule="evenodd" clip-rule="evenodd" d="M65.4636 44.0768C65.7069 44.0998 66.0727 44.0781 66.2815 44.1416C66.3207 44.1535 66.2909 44.2025 66.2977 44.2411C66.361 44.5994 66.4609 44.9394 66.5472 45.2856C66.8838 46.6348 67.0865 48.0198 67.4729 49.357C67.8932 50.8129 68.3315 52.4536 67.8225 54.2807C67.7727 54.4594 67.7062 54.6409 67.6202 54.8231C67.0432 56.0456 65.5596 57.2092 64.2622 57.2092C64.1046 57.2092 63.9347 57.1647 63.8592 57.0622C64.4068 56.7141 64.7493 56.3572 64.9941 55.8391C65.2874 55.2179 65.283 54.6361 65.2444 54.1005C65.3481 54.1608 65.6804 54.3114 65.8188 54.3114C66.3799 54.3114 66.8617 53.7687 67.0868 53.2918C67.5003 52.4158 67.4296 51.5218 67.358 50.7758C67.3221 50.4024 67.2717 50.034 67.2022 49.6761L67.0968 49.1579L67.0835 49.1011L67.0706 49.0445C67.1333 49.0445 67.077 49.1546 67.0794 49.21C67.118 50.113 67.1018 51.3737 66.6167 52.4017C66.3911 52.8793 66.0223 53.3716 65.4562 53.3716C62.9751 53.3716 64.223 46.3347 62.2346 44.6621C62.3448 44.4801 62.4432 44.2929 62.5257 44.1094C63.7023 45.5305 63.7639 49.448 65.4957 49.448C65.916 49.448 66.3505 49.054 66.5292 48.6755C67.2986 47.0457 66.0206 45.147 65.4636 44.0768" fill="black"/>
<path d="M65.4636 44.0768C65.7069 44.0998 66.0727 44.0781 66.2815 44.1416C66.3207 44.1535 66.2909 44.2025 66.2977 44.2411C66.361 44.5994 66.4609 44.9394 66.5472 45.2856C66.8838 46.6348 67.0865 48.0198 67.4729 49.357C67.8932 50.8129 68.3315 52.4536 67.8225 54.2807C67.7727 54.4594 67.7062 54.6409 67.6202 54.8231C67.0432 56.0456 65.5596 57.2092 64.2622 57.2092C64.1046 57.2092 63.9347 57.1647 63.8592 57.0622C64.4068 56.7141 64.7493 56.3572 64.9941 55.8391C65.2874 55.2179 65.283 54.6361 65.2444 54.1005C65.3481 54.1608 65.6804 54.3114 65.8188 54.3114C66.3799 54.3114 66.8617 53.7687 67.0868 53.2918C67.5003 52.4158 67.4296 51.5218 67.358 50.7758C67.3221 50.4024 67.2717 50.034 67.2022 49.6761L67.0968 49.1579L67.0835 49.1011L67.0706 49.0445C67.1333 49.0445 67.077 49.1546 67.0794 49.21C67.118 50.113 67.1018 51.3737 66.6167 52.4017C66.3911 52.8793 66.0223 53.3716 65.4562 53.3716C62.9751 53.3716 64.223 46.3347 62.2346 44.6621C62.3448 44.4801 62.4432 44.2929 62.5257 44.1094C63.7023 45.5305 63.7639 49.448 65.4957 49.448C65.916 49.448 66.3505 49.054 66.5292 48.6755C67.2986 47.0457 66.0206 45.147 65.4636 44.0768L65.4636 44.0768Z" stroke="black" stroke-width="0.47644" stroke-miterlimit="3.8637"/>
<path d="M34.9018 38.3295C36.6084 38.3295 35.6138 42.5939 35.0069 43.8797C34.4872 44.9805 33.3172 46.5682 31.9306 46.5682C30.2669 46.5682 30.3164 44.7048 30.9787 43.3022C31.3372 42.5428 31.8882 41.6915 32.6473 41.0656C32.453 41.7189 33.1098 42.1651 32.8441 42.728C32.6627 43.1124 32.2872 43.5323 32.092 43.9458C31.7764 44.6142 31.897 45.8005 32.6595 45.8005C33.342 45.8005 33.9484 44.9551 34.197 44.4284C34.7064 43.3492 35.9799 38.7454 34.5564 38.7454C32.9169 38.7454 30.0918 42.7405 29.5002 43.9937C28.4442 46.2307 29.2097 48.9859 31.6156 48.9859C33.2413 48.9859 34.5785 47.423 35.2244 46.0547C35.6092 45.2397 35.8187 44.4288 35.9012 43.6642L36.2167 43.6064C36.2865 45.7113 38.5132 49.1966 37.5653 51.2045C36.3522 53.7743 32.7248 53.7513 30.6536 54.6633C30.2183 53.645 29.6285 52.6982 28.798 51.9755C30.6456 51.354 35.1854 50.3105 36.1727 48.2193C36.5876 47.3406 36.3052 45.8838 35.8258 45.39C35.7443 45.7006 35.6314 46.0171 35.4816 46.3344C34.6363 48.125 32.8265 49.5136 30.9608 49.5136C28.3631 49.5136 27.262 47.647 28.4844 45.0568C29.2181 43.5026 32.9648 38.3294 34.902 38.3294" fill="black"/>
<path d="M34.9018 38.3295C36.6084 38.3295 35.6138 42.5939 35.0069 43.8797C34.4872 44.9805 33.3172 46.5682 31.9306 46.5682C30.2669 46.5682 30.3164 44.7048 30.9787 43.3022C31.3372 42.5428 31.8882 41.6915 32.6473 41.0656C32.453 41.7189 33.1098 42.1651 32.8441 42.728C32.6627 43.1124 32.2872 43.5323 32.092 43.9458C31.7764 44.6142 31.897 45.8005 32.6595 45.8005C33.342 45.8005 33.9484 44.9551 34.197 44.4284C34.7064 43.3492 35.9799 38.7454 34.5564 38.7454C32.9169 38.7454 30.0918 42.7405 29.5002 43.9937C28.4442 46.2307 29.2097 48.9859 31.6156 48.9859C33.2413 48.9859 34.5785 47.423 35.2244 46.0547C35.6092 45.2397 35.8187 44.4288 35.9012 43.6642L36.2167 43.6064C36.2865 45.7113 38.5132 49.1966 37.5653 51.2045C36.3522 53.7743 32.7248 53.7513 30.6536 54.6633C30.2183 53.645 29.6285 52.6982 28.798 51.9755C30.6456 51.354 35.1854 50.3105 36.1727 48.2193C36.5876 47.3406 36.3052 45.8838 35.8258 45.39C35.7443 45.7006 35.6314 46.0171 35.4816 46.3344C34.6363 48.125 32.8265 49.5136 30.9608 49.5136C28.3631 49.5136 27.262 47.647 28.4844 45.0568C29.2181 43.5026 32.9648 38.3294 34.902 38.3294L34.9018 38.3295Z" stroke="black" stroke-width="5.7172" stroke-miterlimit="3.8637" stroke-linejoin="round"/>
<path d="M39.3405 44.5011C39.4437 44.7547 39.742 46.1906 39.9687 46.1906C40.458 46.1906 41.3423 44.8592 41.5795 44.5135C42.0146 44.7985 41.7732 45.3967 42.5797 45.3967C42.9447 45.3967 43.1283 44.6103 43.5083 44.5975C43.5217 44.9154 43.5421 45.203 43.3688 45.5702C43.1016 46.1364 42.4254 46.9036 41.7607 46.9036C41.2847 46.9036 40.6216 46.3304 40.4913 46.3304C40.3498 46.3304 40.0902 46.3966 40.0073 46.5719C39.6612 47.3052 40.5865 49.7534 41.5145 49.7534C42.0104 49.7534 42.6021 49.3896 43.1207 49.1652C42.9857 50.0473 42.9669 50.7911 43.1456 51.5501C42.6729 51.8496 42.1193 51.9758 41.675 51.9758C39.3947 51.9758 40.6523 46.6728 38.5496 45.5429L39.3404 44.5011" fill="black"/>
<path d="M39.3405 44.5011C39.4437 44.7547 39.742 46.1906 39.9687 46.1906C40.458 46.1906 41.3423 44.8592 41.5795 44.5135C42.0146 44.7985 41.7732 45.3967 42.5797 45.3967C42.9447 45.3967 43.1283 44.6103 43.5083 44.5975C43.5217 44.9154 43.5421 45.203 43.3688 45.5702C43.1016 46.1364 42.4254 46.9036 41.7607 46.9036C41.2847 46.9036 40.6216 46.3304 40.4913 46.3304C40.3498 46.3304 40.0902 46.3966 40.0073 46.5719C39.6612 47.3052 40.5865 49.7534 41.5145 49.7534C42.0104 49.7534 42.6021 49.3896 43.1207 49.1652C42.9857 50.0473 42.9669 50.7911 43.1456 51.5501C42.6729 51.8496 42.1193 51.9758 41.675 51.9758C39.3947 51.9758 40.6523 46.6728 38.5496 45.5429L39.3405 44.5011Z" stroke="black" stroke-width="5.7172" stroke-miterlimit="3.8637" stroke-linejoin="round"/>
<path fill-rule="evenodd" clip-rule="evenodd" d="M48.1045 44.0769C49.8278 44.0769 50.5083 47.1769 49.7351 48.815C49.1351 50.0857 48.0715 51.0068 46.7091 51.0068C44.3028 51.0068 44.6043 47.7267 45.543 45.7378C45.8019 45.19 46.6864 43.9958 47.3784 43.9958C47.6325 43.9958 47.8431 44.0768 48.1047 44.0768L48.1045 44.0769ZM48.0512 44.3662C47.7799 44.3662 47.5414 44.5003 47.4156 44.7672C47.1514 45.3266 48.4686 45.8927 48.2795 46.293C48.1605 46.545 47.7075 46.7808 47.4789 46.7808C46.337 46.7808 46.3467 45.2951 47.0274 44.3267C46.6042 44.5964 46.3267 45.0083 46.1465 45.3904C45.4773 46.8077 46.0083 48.7576 47.5355 48.7576C48.3793 48.7576 49.3512 47.9994 49.7289 47.1991C50.1937 46.2151 49.0052 44.3662 48.0512 44.3662" fill="black"/>
<path d="M48.1045 44.0769C49.8278 44.0769 50.5083 47.1769 49.7351 48.815C49.1351 50.0857 48.0715 51.0068 46.7091 51.0068C44.3028 51.0068 44.6043 47.7267 45.543 45.7378C45.8019 45.19 46.6864 43.9958 47.3784 43.9958C47.6325 43.9958 47.8431 44.0768 48.1047 44.0768L48.1045 44.0769Z" stroke="black" stroke-width="5.7172" stroke-miterlimit="3.8637" stroke-linejoin="round"/>
<path d="M48.0506 44.3662C47.7793 44.3662 47.5407 44.5003 47.415 44.7672C47.1508 45.3266 48.4679 45.8927 48.2788 46.293C48.1599 46.545 47.7069 46.7808 47.4783 46.7808C46.3364 46.7808 46.3461 45.295 47.0268 44.3267C46.6035 44.5964 46.3261 45.0083 46.1458 45.3904C45.4767 46.8077 46.0077 48.7576 47.5348 48.7576C48.3787 48.7576 49.3506 47.9994 49.7283 47.1991C50.1931 46.2151 49.0046 44.3662 48.0506 44.3662H48.0506Z" stroke="black" stroke-width="5.7172" stroke-miterlimit="3.8637" stroke-linejoin="round"/>
<path fill-rule="evenodd" clip-rule="evenodd" d="M55.9373 49.1799C55.487 50.1337 54.6478 50.6575 53.7029 50.6575C50.7042 50.6575 50.1092 47.9231 51.4088 45.17C51.7157 44.5202 52.2193 43.8013 52.9884 43.8013C55.3974 43.8013 57.0756 46.7682 55.9372 49.1798L55.9373 49.1799ZM53.5449 44.1467C53.3237 44.1467 53.1296 44.2267 53.0235 44.4515C52.7903 44.9458 54.0594 45.3866 54.0612 45.8974C53.9286 46.0543 53.5575 46.23 53.3958 46.23C52.4819 46.23 51.7921 44.991 52.5723 44.0702C52.2557 44.2713 52.0678 44.5723 51.9341 44.8553C51.1429 46.5311 52.2707 48.2253 53.9139 48.2253C54.5978 48.2253 55.4794 47.8447 55.8346 47.092C56.3374 46.0267 54.5466 44.1468 53.5448 44.1468" fill="black"/>
<path d="M55.9373 49.1799C55.487 50.1337 54.6478 50.6575 53.7029 50.6575C50.7042 50.6575 50.1092 47.9231 51.4088 45.17C51.7157 44.5202 52.2193 43.8013 52.9884 43.8013C55.3974 43.8013 57.0756 46.7682 55.9372 49.1798L55.9373 49.1799Z" stroke="black" stroke-width="5.7172" stroke-miterlimit="3.8637" stroke-linejoin="round"/>
<path d="M53.5445 44.147C53.3233 44.147 53.1292 44.2269 53.0232 44.4517C52.7899 44.946 54.0591 45.3868 54.0608 45.8976C53.9283 46.0546 53.5572 46.2303 53.3955 46.2303C52.4815 46.2303 51.7917 44.9913 52.572 44.0705C52.2553 44.2716 52.0674 44.5725 51.9337 44.8555C51.1426 46.5313 52.2703 48.2256 53.9136 48.2256C54.5975 48.2256 55.479 47.845 55.8343 47.0923C56.3371 46.027 54.5463 44.147 53.5445 44.147L53.5445 44.147Z" stroke="black" stroke-width="5.7172" stroke-miterlimit="3.8637" stroke-linejoin="round"/>
<path d="M59.0384 44.1309C61.6227 44.1309 62.9358 48.873 61.7809 51.3191C61.5603 51.7867 61.1488 52.2542 60.6063 52.2542C57.6539 52.2542 58.4077 46.3856 56.7456 44.7182C56.8976 44.5567 57.0431 44.3878 57.1765 44.2177C58.2996 45.5357 57.7415 49.0042 60.1401 49.0042C60.6927 49.0042 61.1106 48.5204 61.3336 48.0482C61.9291 46.7863 60.827 44.5949 59.6206 44.5949C59.6085 44.5949 59.4353 44.602 59.4392 44.6722C59.4836 45.4776 60.1172 44.9754 59.4792 46.346C58.8274 46.2161 58.137 45.1697 58.4934 44.4147C58.5982 44.1928 58.8607 44.1309 59.0386 44.1309" fill="black"/>
<path d="M59.0384 44.1309C61.6227 44.1309 62.9358 48.873 61.7809 51.3191C61.5603 51.7867 61.1488 52.2542 60.6063 52.2542C57.6539 52.2542 58.4077 46.3856 56.7456 44.7182C56.8976 44.5567 57.0431 44.3878 57.1765 44.2177C58.2996 45.5357 57.7415 49.0042 60.1401 49.0042C60.6927 49.0042 61.1106 48.5204 61.3336 48.0482C61.9291 46.7863 60.827 44.5949 59.6206 44.5949C59.6085 44.5949 59.4353 44.602 59.4392 44.6722C59.4836 45.4776 60.1172 44.9754 59.4792 46.346C58.8274 46.2161 58.137 45.1697 58.4934 44.4147C58.5982 44.1928 58.8607 44.1309 59.0386 44.1309L59.0384 44.1309Z" stroke="black" stroke-width="5.7172" stroke-miterlimit="3.8637" stroke-linejoin="round"/>
<path fill-rule="evenodd" clip-rule="evenodd" d="M65.4636 44.0768C65.7069 44.0998 66.0727 44.0781 66.2815 44.1416C66.3207 44.1535 66.2909 44.2025 66.2977 44.2411C66.361 44.5994 66.4609 44.9394 66.5472 45.2856C66.8838 46.6348 67.0865 48.0198 67.4729 49.357C67.8932 50.8129 68.3315 52.4536 67.8225 54.2807C67.7727 54.4594 67.7062 54.6409 67.6202 54.8231C67.0432 56.0456 65.5596 57.2092 64.2622 57.2092C64.1046 57.2092 63.9347 57.1647 63.8592 57.0622C64.4068 56.7141 64.7493 56.3572 64.9941 55.8391C65.2874 55.2179 65.283 54.6361 65.2444 54.1005C65.3481 54.1608 65.6804 54.3114 65.8188 54.3114C66.3799 54.3114 66.8617 53.7687 67.0868 53.2918C67.5003 52.4158 67.4296 51.5218 67.358 50.7758C67.3221 50.4024 67.2717 50.034 67.2022 49.6761L67.0968 49.1579L67.0835 49.1011L67.0706 49.0445C67.1333 49.0445 67.077 49.1546 67.0794 49.21C67.118 50.113 67.1018 51.3737 66.6167 52.4017C66.3911 52.8793 66.0223 53.3716 65.4562 53.3716C62.9751 53.3716 64.223 46.3347 62.2346 44.6621C62.3448 44.4801 62.4432 44.2929 62.5257 44.1094C63.7023 45.5305 63.7639 49.448 65.4957 49.448C65.916 49.448 66.3505 49.054 66.5292 48.6755C67.2986 47.0457 66.0206 45.147 65.4636 44.0768" fill="black"/>
<path d="M65.4636 44.0768C65.7069 44.0998 66.0727 44.0781 66.2815 44.1416C66.3207 44.1535 66.2909 44.2025 66.2977 44.2411C66.361 44.5994 66.4609 44.9394 66.5472 45.2856C66.8838 46.6348 67.0865 48.0198 67.4729 49.357C67.8932 50.8129 68.3315 52.4536 67.8225 54.2807C67.7727 54.4594 67.7062 54.6409 67.6202 54.8231C67.0432 56.0456 65.5596 57.2092 64.2622 57.2092C64.1046 57.2092 63.9347 57.1647 63.8592 57.0622C64.4068 56.7141 64.7493 56.3572 64.9941 55.8391C65.2874 55.2179 65.283 54.6361 65.2444 54.1005C65.3481 54.1608 65.6804 54.3114 65.8188 54.3114C66.3799 54.3114 66.8617 53.7687 67.0868 53.2918C67.5003 52.4158 67.4296 51.5218 67.358 50.7758C67.3221 50.4024 67.2717 50.034 67.2022 49.6761L67.0968 49.1579L67.0835 49.1011L67.0706 49.0445C67.1333 49.0445 67.077 49.1546 67.0794 49.21C67.118 50.113 67.1018 51.3737 66.6167 52.4017C66.3911 52.8793 66.0223 53.3716 65.4562 53.3716C62.9751 53.3716 64.223 46.3347 62.2346 44.6621C62.3448 44.4801 62.4432 44.2929 62.5257 44.1094C63.7023 45.5305 63.7639 49.448 65.4957 49.448C65.916 49.448 66.3505 49.054 66.5292 48.6755C67.2986 47.0457 66.0206 45.147 65.4636 44.0768L65.4636 44.0768Z" stroke="black" stroke-width="5.7172" stroke-miterlimit="3.8637" stroke-linejoin="round"/>
<path d="M34.9018 38.3295C36.6084 38.3295 35.6138 42.5939 35.0069 43.8797C34.4872 44.9805 33.3172 46.5682 31.9306 46.5682C30.2669 46.5682 30.3164 44.7048 30.9787 43.3022C31.3372 42.5428 31.8882 41.6915 32.6473 41.0656C32.453 41.7189 33.1098 42.1651 32.8441 42.728C32.6627 43.1124 32.2872 43.5323 32.092 43.9458C31.7764 44.6142 31.897 45.8005 32.6595 45.8005C33.342 45.8005 33.9484 44.9551 34.197 44.4284C34.7064 43.3492 35.9799 38.7454 34.5564 38.7454C32.9169 38.7454 30.0918 42.7405 29.5002 43.9937C28.4442 46.2307 29.2097 48.9859 31.6156 48.9859C33.2413 48.9859 34.5785 47.423 35.2244 46.0547C35.6092 45.2397 35.8187 44.4288 35.9012 43.6642L36.2167 43.6064C36.2865 45.7113 38.5132 49.1966 37.5653 51.2045C36.3522 53.7743 32.7248 53.7513 30.6536 54.6633C30.2183 53.645 29.6285 52.6982 28.798 51.9755C30.6456 51.354 35.1854 50.3105 36.1727 48.2193C36.5876 47.3406 36.3052 45.8838 35.8258 45.39C35.7443 45.7006 35.6314 46.0171 35.4816 46.3344C34.6363 48.125 32.8265 49.5136 30.9608 49.5136C28.3631 49.5136 27.262 47.647 28.4844 45.0568C29.2181 43.5026 32.9648 38.3294 34.902 38.3294" fill="white"/>
<path d="M39.3405 44.5011C39.4437 44.7547 39.742 46.1906 39.9687 46.1906C40.458 46.1906 41.3423 44.8592 41.5795 44.5135C42.0147 44.7985 41.7733 45.3967 42.5797 45.3967C42.9448 45.3967 43.1284 44.6103 43.5083 44.5975C43.5218 44.9154 43.5421 45.203 43.3688 45.5702C43.1016 46.1364 42.4254 46.9036 41.7608 46.9036C41.2847 46.9036 40.6216 46.3304 40.4914 46.3304C40.3498 46.3304 40.0902 46.3966 40.0073 46.5719C39.6612 47.3052 40.5865 49.7534 41.5145 49.7534C42.0104 49.7534 42.6021 49.3896 43.1208 49.1652C42.9857 50.0473 42.967 50.7911 43.1456 51.5501C42.673 51.8496 42.1193 51.9758 41.675 51.9758C39.3948 51.9758 40.6523 46.6728 38.5497 45.5429L39.3404 44.5011" fill="white"/>
<path fill-rule="evenodd" clip-rule="evenodd" d="M48.1045 44.0769C49.8278 44.0769 50.5083 47.1769 49.7351 48.815C49.1351 50.0857 48.0715 51.0068 46.7091 51.0068C44.3028 51.0068 44.6043 47.7267 45.543 45.7378C45.8019 45.19 46.6864 43.9958 47.3784 43.9958C47.6325 43.9958 47.8431 44.0768 48.1047 44.0768L48.1045 44.0769ZM48.0512 44.3662C47.7799 44.3662 47.5414 44.5003 47.4156 44.7672C47.1514 45.3266 48.4686 45.8927 48.2795 46.293C48.1605 46.545 47.7075 46.7808 47.4789 46.7808C46.337 46.7808 46.3467 45.2951 47.0274 44.3267C46.6042 44.5964 46.3267 45.0083 46.1465 45.3904C45.4773 46.8077 46.0083 48.7576 47.5355 48.7576C48.3793 48.7576 49.3512 47.9994 49.7289 47.1991C50.1937 46.2151 49.0052 44.3662 48.0512 44.3662" fill="white"/>
<path fill-rule="evenodd" clip-rule="evenodd" d="M55.9373 49.1799C55.487 50.1337 54.6478 50.6575 53.7029 50.6575C50.7042 50.6575 50.1092 47.9231 51.4088 45.17C51.7157 44.5202 52.2193 43.8013 52.9884 43.8013C55.3973 43.8013 57.0755 46.7682 55.9372 49.1798L55.9373 49.1799ZM53.5449 44.1467C53.3237 44.1467 53.1296 44.2267 53.0235 44.4515C52.7903 44.9458 54.0594 45.3866 54.0612 45.8974C53.9286 46.0543 53.5575 46.23 53.3958 46.23C52.4819 46.23 51.7921 44.991 52.5723 44.0702C52.2557 44.2713 52.0678 44.5723 51.9341 44.8553C51.1429 46.5311 52.2707 48.2253 53.9139 48.2253C54.5978 48.2253 55.4794 47.8447 55.8346 47.092C56.3374 46.0267 54.5466 44.1468 53.5448 44.1468" fill="white"/>
<path d="M59.0384 44.1309C61.6227 44.1309 62.9358 48.873 61.7809 51.3191C61.5603 51.7867 61.1488 52.2542 60.6063 52.2542C57.6539 52.2542 58.4077 46.3856 56.7456 44.7182C56.8976 44.5567 57.0431 44.3878 57.1765 44.2177C58.2996 45.5357 57.7415 49.0042 60.1401 49.0042C60.6927 49.0042 61.1106 48.5204 61.3336 48.0482C61.9291 46.7863 60.827 44.5949 59.6206 44.5949C59.6085 44.5949 59.4353 44.602 59.4391 44.6722C59.4836 45.4776 60.1172 44.9754 59.4792 46.346C58.8274 46.2161 58.137 45.1697 58.4934 44.4147C58.5982 44.1928 58.8607 44.1309 59.0386 44.1309" fill="white"/>
<path fill-rule="evenodd" clip-rule="evenodd" d="M65.4636 44.0769C65.7069 44.1 66.0727 44.0782 66.2815 44.1418C66.3207 44.1536 66.2909 44.2026 66.2977 44.2412C66.361 44.5995 66.4609 44.9396 66.5472 45.2858C66.8838 46.635 67.0865 48.02 67.4729 49.3571C67.8932 50.8131 68.3315 52.4538 67.8225 54.2808C67.7727 54.4596 67.7062 54.6411 67.6202 54.8232C65.6854 58.5397 61.5445 57.538 60.2474 57.538C60.0898 57.538 59.9196 57.4933 59.8445 57.3908C60.3917 57.0428 60.7346 56.686 60.979 56.1678C61.2724 55.5466 61.268 54.9648 61.2294 54.4291C61.3331 54.4895 61.6656 54.64 61.8037 54.64C62.3648 54.64 65.4925 56.247 67.0868 53.292C67.5003 52.416 67.4296 51.5221 67.358 50.776C67.3221 50.4026 67.2717 50.0342 67.2022 49.6763L67.0968 49.1581L67.0835 49.1013L67.0706 49.0447C67.1333 49.0447 67.077 49.1548 67.0794 49.2102C67.118 50.1132 67.1018 51.3739 66.6167 52.4019C66.3911 52.8795 66.0223 53.3718 65.4562 53.3718C62.9752 53.3718 64.223 46.3349 62.2347 44.6623C62.3448 44.4803 62.4432 44.2931 62.5257 44.1096C63.7023 45.5307 63.7639 49.4482 65.4957 49.4482C65.916 49.4482 66.3505 49.0542 66.5293 48.6757C67.2986 47.0459 66.0206 45.1472 65.4636 44.077" fill="white"/>
<path d="M67.7467 63.9564L47.9841 56.2813L28.2214 63.9544L36.0245 51.7222L16.0066 44.2315L40.5926 44.3464L47.9832 32.0438L55.3744 44.3471L79.9605 44.2345L59.9425 51.7234L67.7469 63.9565" fill="black"/>
<path d="M65.1022 61.7402L48.0171 55.118L30.9329 61.739L37.6786 51.1842L20.3733 44.7209L41.6263 44.8199L48.0155 34.2046L54.4051 44.8205L75.6599 44.7232L58.3547 51.185L65.1017 61.7401" fill="#619CBC"/>
<path d="M34.9018 38.3295C36.6084 38.3295 35.6138 42.5939 35.0069 43.8797C34.4872 44.9805 33.3172 46.5682 31.9306 46.5682C30.2669 46.5682 30.3164 44.7048 30.9787 43.3022C31.3372 42.5428 31.8882 41.6915 32.6473 41.0656C32.453 41.7189 33.1098 42.1651 32.8441 42.728C32.6627 43.1124 32.2872 43.5323 32.092 43.9458C31.7764 44.6142 31.897 45.8005 32.6595 45.8005C33.342 45.8005 33.9484 44.9551 34.197 44.4284C34.7064 43.3492 35.9799 38.7454 34.5564 38.7454C32.9169 38.7454 30.0918 42.7405 29.5002 43.9937C28.4442 46.2307 29.2097 48.9859 31.6156 48.9859C33.2413 48.9859 34.5785 47.423 35.2244 46.0547C35.6092 45.2397 35.8187 44.4288 35.9012 43.6642L36.2167 43.6064C36.2865 45.7113 38.5132 49.1966 37.5653 51.2045C36.3522 53.7743 32.7248 53.7513 30.6536 54.6633C30.2183 53.645 29.6285 52.6982 28.798 51.9755C30.6456 51.354 35.1854 50.3105 36.1727 48.2193C36.5876 47.3406 36.3052 45.8838 35.8258 45.39C35.7443 45.7006 35.6314 46.0171 35.4816 46.3344C34.6363 48.125 32.8265 49.5136 30.9608 49.5136C28.3631 49.5136 27.262 47.647 28.4844 45.0568C29.2181 43.5026 32.9648 38.3294 34.902 38.3294" fill="black"/>
<path d="M34.9018 38.3295C36.6084 38.3295 35.6138 42.5939 35.0069 43.8797C34.4872 44.9805 33.3172 46.5682 31.9306 46.5682C30.2669 46.5682 30.3164 44.7048 30.9787 43.3022C31.3372 42.5428 31.8882 41.6915 32.6473 41.0656C32.453 41.7189 33.1098 42.1651 32.8441 42.728C32.6627 43.1124 32.2872 43.5323 32.092 43.9458C31.7764 44.6142 31.897 45.8005 32.6595 45.8005C33.342 45.8005 33.9484 44.9551 34.197 44.4284C34.7064 43.3492 35.9799 38.7454 34.5564 38.7454C32.9169 38.7454 30.0918 42.7405 29.5002 43.9937C28.4442 46.2307 29.2097 48.9859 31.6156 48.9859C33.2413 48.9859 34.5785 47.423 35.2244 46.0547C35.6092 45.2397 35.8187 44.4288 35.9012 43.6642L36.2167 43.6064C36.2865 45.7113 38.5132 49.1966 37.5653 51.2045C36.3522 53.7743 32.7248 53.7513 30.6536 54.6633C30.2183 53.645 29.6285 52.6982 28.798 51.9755C30.6456 51.354 35.1854 50.3105 36.1727 48.2193C36.5876 47.3406 36.3052 45.8838 35.8258 45.39C35.7443 45.7006 35.6314 46.0171 35.4816 46.3344C34.6363 48.125 32.8265 49.5136 30.9608 49.5136C28.3631 49.5136 27.262 47.647 28.4844 45.0568C29.2181 43.5026 32.9648 38.3294 34.902 38.3294L34.9018 38.3295Z" stroke="black" stroke-width="5.7172" stroke-miterlimit="3.8637" stroke-linejoin="round"/>
<path d="M39.3405 44.5011C39.4437 44.7547 39.742 46.1906 39.9687 46.1906C40.458 46.1906 41.3423 44.8592 41.5795 44.5135C42.0146 44.7985 41.7732 45.3967 42.5797 45.3967C42.9447 45.3967 43.1283 44.6103 43.5083 44.5975C43.5217 44.9154 43.5421 45.203 43.3688 45.5702C43.1016 46.1364 42.4254 46.9036 41.7607 46.9036C41.2847 46.9036 40.6216 46.3304 40.4913 46.3304C40.3498 46.3304 40.0902 46.3966 40.0073 46.5719C39.6612 47.3052 40.5865 49.7534 41.5145 49.7534C42.0104 49.7534 42.6021 49.3896 43.1207 49.1652C42.9857 50.0473 42.9669 50.7911 43.1456 51.5501C42.6729 51.8496 42.1193 51.9758 41.675 51.9758C39.3947 51.9758 40.6523 46.6728 38.5496 45.5429L39.3404 44.5011" fill="black"/>
<path d="M39.3405 44.5011C39.4437 44.7547 39.742 46.1906 39.9687 46.1906C40.458 46.1906 41.3423 44.8592 41.5795 44.5135C42.0146 44.7985 41.7732 45.3967 42.5797 45.3967C42.9447 45.3967 43.1283 44.6103 43.5083 44.5975C43.5217 44.9154 43.5421 45.203 43.3688 45.5702C43.1016 46.1364 42.4254 46.9036 41.7607 46.9036C41.2847 46.9036 40.6216 46.3304 40.4913 46.3304C40.3498 46.3304 40.0902 46.3966 40.0073 46.5719C39.6612 47.3052 40.5865 49.7534 41.5145 49.7534C42.0104 49.7534 42.6021 49.3896 43.1207 49.1652C42.9857 50.0473 42.9669 50.7911 43.1456 51.5501C42.6729 51.8496 42.1193 51.9758 41.675 51.9758C39.3947 51.9758 40.6523 46.6728 38.5496 45.5429L39.3405 44.5011Z" stroke="black" stroke-width="5.7172" stroke-miterlimit="3.8637" stroke-linejoin="round"/>
<path fill-rule="evenodd" clip-rule="evenodd" d="M48.1045 44.0769C49.8278 44.0769 50.5083 47.1769 49.7351 48.815C49.1351 50.0857 48.0715 51.0068 46.7091 51.0068C44.3028 51.0068 44.6043 47.7267 45.543 45.7378C45.8019 45.19 46.6864 43.9958 47.3784 43.9958C47.6325 43.9958 47.8431 44.0768 48.1047 44.0768L48.1045 44.0769ZM48.0512 44.3662C47.7799 44.3662 47.5414 44.5003 47.4156 44.7672C47.1514 45.3266 48.4686 45.8927 48.2795 46.293C48.1605 46.545 47.7075 46.7808 47.4789 46.7808C46.337 46.7808 46.3467 45.2951 47.0274 44.3267C46.6042 44.5964 46.3267 45.0083 46.1465 45.3904C45.4773 46.8077 46.0083 48.7576 47.5355 48.7576C48.3793 48.7576 49.3512 47.9994 49.7289 47.1991C50.1937 46.2151 49.0052 44.3662 48.0512 44.3662" fill="black"/>
<path d="M48.1045 44.0769C49.8278 44.0769 50.5083 47.1769 49.7351 48.815C49.1351 50.0857 48.0715 51.0068 46.7091 51.0068C44.3028 51.0068 44.6043 47.7267 45.543 45.7378C45.8019 45.19 46.6864 43.9958 47.3784 43.9958C47.6325 43.9958 47.8431 44.0768 48.1047 44.0768L48.1045 44.0769Z" stroke="black" stroke-width="5.7172" stroke-miterlimit="3.8637" stroke-linejoin="round"/>
<path d="M48.0506 44.3662C47.7793 44.3662 47.5407 44.5003 47.415 44.7672C47.1508 45.3266 48.4679 45.8927 48.2788 46.293C48.1599 46.545 47.7069 46.7808 47.4783 46.7808C46.3364 46.7808 46.3461 45.295 47.0268 44.3267C46.6035 44.5964 46.3261 45.0083 46.1458 45.3904C45.4767 46.8077 46.0077 48.7576 47.5348 48.7576C48.3787 48.7576 49.3506 47.9994 49.7283 47.1991C50.1931 46.2151 49.0046 44.3662 48.0506 44.3662H48.0506Z" stroke="black" stroke-width="5.7172" stroke-miterlimit="3.8637" stroke-linejoin="round"/>
<path fill-rule="evenodd" clip-rule="evenodd" d="M55.9373 49.1799C55.487 50.1337 54.6478 50.6575 53.7029 50.6575C50.7042 50.6575 50.1092 47.9231 51.4088 45.17C51.7157 44.5202 52.2193 43.8013 52.9884 43.8013C55.3974 43.8013 57.0756 46.7682 55.9372 49.1798L55.9373 49.1799ZM53.5449 44.1467C53.3237 44.1467 53.1296 44.2267 53.0235 44.4515C52.7903 44.9458 54.0594 45.3866 54.0612 45.8974C53.9286 46.0543 53.5575 46.23 53.3958 46.23C52.4819 46.23 51.7921 44.991 52.5723 44.0702C52.2557 44.2713 52.0678 44.5723 51.9341 44.8553C51.1429 46.5311 52.2707 48.2253 53.9139 48.2253C54.5978 48.2253 55.4794 47.8447 55.8346 47.092C56.3374 46.0267 54.5466 44.1468 53.5448 44.1468" fill="black"/>
<path d="M55.9373 49.1799C55.487 50.1337 54.6478 50.6575 53.7029 50.6575C50.7042 50.6575 50.1092 47.9231 51.4088 45.17C51.7157 44.5202 52.2193 43.8013 52.9884 43.8013C55.3974 43.8013 57.0756 46.7682 55.9372 49.1798L55.9373 49.1799Z" stroke="black" stroke-width="5.7172" stroke-miterlimit="3.8637" stroke-linejoin="round"/>
<path d="M53.5445 44.147C53.3233 44.147 53.1292 44.2269 53.0232 44.4517C52.7899 44.946 54.0591 45.3868 54.0608 45.8976C53.9283 46.0546 53.5572 46.2303 53.3955 46.2303C52.4815 46.2303 51.7917 44.9913 52.572 44.0705C52.2553 44.2716 52.0674 44.5725 51.9337 44.8555C51.1426 46.5313 52.2703 48.2256 53.9136 48.2256C54.5975 48.2256 55.479 47.845 55.8343 47.0923C56.3371 46.027 54.5463 44.147 53.5445 44.147L53.5445 44.147Z" stroke="black" stroke-width="5.7172" stroke-miterlimit="3.8637" stroke-linejoin="round"/>
<path d="M59.0384 44.1309C61.6227 44.1309 62.9358 48.873 61.7809 51.3191C61.5603 51.7867 61.1488 52.2542 60.6063 52.2542C57.6539 52.2542 58.4077 46.3856 56.7456 44.7182C56.8976 44.5567 57.0431 44.3878 57.1765 44.2177C58.2996 45.5357 57.7415 49.0042 60.1401 49.0042C60.6927 49.0042 61.1106 48.5204 61.3336 48.0482C61.9291 46.7863 60.827 44.5949 59.6206 44.5949C59.6085 44.5949 59.4353 44.602 59.4392 44.6722C59.4836 45.4776 60.1172 44.9754 59.4792 46.346C58.8274 46.2161 58.137 45.1697 58.4934 44.4147C58.5982 44.1928 58.8607 44.1309 59.0386 44.1309" fill="black"/>
<path d="M59.0384 44.1309C61.6227 44.1309 62.9358 48.873 61.7809 51.3191C61.5603 51.7867 61.1488 52.2542 60.6063 52.2542C57.6539 52.2542 58.4077 46.3856 56.7456 44.7182C56.8976 44.5567 57.0431 44.3878 57.1765 44.2177C58.2996 45.5357 57.7415 49.0042 60.1401 49.0042C60.6927 49.0042 61.1106 48.5204 61.3336 48.0482C61.9291 46.7863 60.827 44.5949 59.6206 44.5949C59.6085 44.5949 59.4353 44.602 59.4392 44.6722C59.4836 45.4776 60.1172 44.9754 59.4792 46.346C58.8274 46.2161 58.137 45.1697 58.4934 44.4147C58.5982 44.1928 58.8607 44.1309 59.0386 44.1309L59.0384 44.1309Z" stroke="black" stroke-width="5.7172" stroke-miterlimit="3.8637" stroke-linejoin="round"/>
<path fill-rule="evenodd" clip-rule="evenodd" d="M65.4636 44.0768C65.7069 44.0998 66.0727 44.0781 66.2815 44.1417C66.3207 44.1535 66.2909 44.2025 66.2977 44.2411C66.361 44.5994 66.4609 44.9394 66.5472 45.2857C66.8838 46.6348 67.0865 48.0199 67.4729 49.357C67.8932 50.813 68.3315 52.4536 67.8225 54.2807C67.7727 54.4594 67.7062 54.6409 67.6202 54.8231C67.0432 56.0456 62.0745 57.4541 60.7772 57.4541C60.6197 57.4541 60.4494 57.4094 60.3743 57.3069C60.9215 56.9589 61.2644 56.6021 61.5091 56.0838C61.8022 55.4627 61.7978 54.8809 61.7592 54.3452C61.8629 54.4055 65.6803 54.3114 65.8187 54.3114C66.3798 54.3114 66.8617 53.7688 67.0867 53.2918C67.5002 52.4158 67.4295 51.5219 67.3579 50.7758C67.322 50.4024 67.2717 50.034 67.2021 49.6761L67.0967 49.1579L67.0834 49.1012L67.0705 49.0446C67.1332 49.0446 67.077 49.1546 67.0793 49.21C67.1179 50.1131 67.1017 51.3738 66.6166 52.4017C66.391 52.8793 66.0222 53.3717 65.4561 53.3717C62.9751 53.3717 64.2229 46.3347 62.2346 44.6621C62.3447 44.4801 62.4431 44.293 62.5256 44.1094C63.7022 45.5305 63.7638 49.448 65.4956 49.448C65.9159 49.448 66.3504 49.0541 66.5292 48.6755C67.2985 47.0457 66.0205 45.1471 65.4635 44.0769" fill="black"/>
<path d="M65.4636 44.0768C65.7069 44.0998 66.0727 44.0781 66.2815 44.1417C66.3207 44.1535 66.2909 44.2025 66.2977 44.2411C66.361 44.5994 66.4609 44.9394 66.5472 45.2857C66.8838 46.6348 67.0865 48.0199 67.4729 49.357C67.8932 50.813 68.3315 52.4536 67.8225 54.2807C67.7727 54.4594 67.7062 54.6409 67.6202 54.8231C67.0432 56.0456 62.0745 57.4541 60.7772 57.4541C60.6197 57.4541 60.4494 57.4094 60.3743 57.3069C60.9215 56.9589 61.2644 56.6021 61.5091 56.0838C61.8022 55.4627 61.7978 54.8809 61.7592 54.3452C61.8629 54.4055 65.6803 54.3114 65.8187 54.3114C66.3798 54.3114 66.8617 53.7688 67.0867 53.2918C67.5002 52.4158 67.4295 51.5219 67.3579 50.7758C67.322 50.4024 67.2717 50.034 67.2021 49.6761L67.0967 49.1579L67.0834 49.1012L67.0705 49.0446C67.1332 49.0446 67.077 49.1546 67.0793 49.21C67.1179 50.1131 67.1017 51.3738 66.6166 52.4017C66.391 52.8793 66.0222 53.3717 65.4561 53.3717C62.9751 53.3717 64.2229 46.3347 62.2346 44.6621C62.3447 44.4801 62.4431 44.293 62.5256 44.1094C63.7022 45.5305 63.7638 49.448 65.4956 49.448C65.9159 49.448 66.3504 49.0541 66.5292 48.6755C67.2985 47.0457 66.0205 45.1471 65.4635 44.0769L65.4636 44.0768Z" stroke="black" stroke-width="5.7172" stroke-miterlimit="3.8637" stroke-linejoin="round"/>
<path d="M34.9018 38.3295C36.6084 38.3295 35.6138 42.5939 35.0069 43.8797C34.4872 44.9805 33.3172 46.5682 31.9306 46.5682C30.2669 46.5682 30.3164 44.7048 30.9787 43.3022C31.3372 42.5428 31.8882 41.6915 32.6473 41.0656C32.453 41.7189 33.1098 42.1651 32.8441 42.728C32.6627 43.1124 32.2872 43.5323 32.092 43.9458C31.7764 44.6142 31.897 45.8005 32.6595 45.8005C33.342 45.8005 33.9484 44.9551 34.197 44.4284C34.7064 43.3492 35.9799 38.7454 34.5564 38.7454C32.9169 38.7454 30.0918 42.7405 29.5002 43.9937C28.4442 46.2307 29.2097 48.9859 31.6156 48.9859C33.2413 48.9859 34.5785 47.423 35.2244 46.0547C35.6092 45.2397 35.8187 44.4288 35.9012 43.6642L36.2167 43.6064C36.2865 45.7113 38.5132 49.1966 37.5653 51.2045C36.3522 53.7743 32.7248 53.7513 30.6536 54.6633C30.2183 53.645 29.6285 52.6982 28.798 51.9755C30.6456 51.354 35.1854 50.3105 36.1727 48.2193C36.5876 47.3406 36.3052 45.8838 35.8258 45.39C35.7443 45.7006 35.6314 46.0171 35.4816 46.3344C34.6363 48.125 32.8265 49.5136 30.9608 49.5136C28.3631 49.5136 27.262 47.647 28.4844 45.0568C29.2181 43.5026 32.9648 38.3294 34.902 38.3294" fill="black"/>
<path d="M34.9018 38.3295C36.6084 38.3295 35.6138 42.5939 35.0069 43.8797C34.4872 44.9805 33.3172 46.5682 31.9306 46.5682C30.2669 46.5682 30.3164 44.7048 30.9787 43.3022C31.3372 42.5428 31.8882 41.6915 32.6473 41.0656C32.453 41.7189 33.1098 42.1651 32.8441 42.728C32.6627 43.1124 32.2872 43.5323 32.092 43.9458C31.7764 44.6142 31.897 45.8005 32.6595 45.8005C33.342 45.8005 33.9484 44.9551 34.197 44.4284C34.7064 43.3492 35.9799 38.7454 34.5564 38.7454C32.9169 38.7454 30.0918 42.7405 29.5002 43.9937C28.4442 46.2307 29.2097 48.9859 31.6156 48.9859C33.2413 48.9859 34.5785 47.423 35.2244 46.0547C35.6092 45.2397 35.8187 44.4288 35.9012 43.6642L36.2167 43.6064C36.2865 45.7113 38.5132 49.1966 37.5653 51.2045C36.3522 53.7743 32.7248 53.7513 30.6536 54.6633C30.2183 53.645 29.6285 52.6982 28.798 51.9755C30.6456 51.354 35.1854 50.3105 36.1727 48.2193C36.5876 47.3406 36.3052 45.8838 35.8258 45.39C35.7443 45.7006 35.6314 46.0171 35.4816 46.3344C34.6363 48.125 32.8265 49.5136 30.9608 49.5136C28.3631 49.5136 27.262 47.647 28.4844 45.0568C29.2181 43.5026 32.9648 38.3294 34.902 38.3294L34.9018 38.3295Z" stroke="black" stroke-width="0.47644" stroke-miterlimit="3.8637"/>
<path d="M39.3405 44.5011C39.4437 44.7547 39.742 46.1906 39.9687 46.1906C40.458 46.1906 41.3423 44.8592 41.5795 44.5135C42.0146 44.7985 41.7732 45.3967 42.5797 45.3967C42.9447 45.3967 43.1283 44.6103 43.5083 44.5975C43.5217 44.9154 43.5421 45.203 43.3688 45.5702C43.1016 46.1364 42.4254 46.9036 41.7607 46.9036C41.2847 46.9036 40.6216 46.3304 40.4913 46.3304C40.3498 46.3304 40.0902 46.3966 40.0073 46.5719C39.6612 47.3052 40.5865 49.7534 41.5145 49.7534C42.0104 49.7534 42.6021 49.3896 43.1207 49.1652C42.9857 50.0473 42.9669 50.7911 43.1456 51.5501C42.6729 51.8496 42.1193 51.9758 41.675 51.9758C39.3947 51.9758 40.6523 46.6728 38.5496 45.5429L39.3404 44.5011" fill="black"/>
<path d="M39.3405 44.5011C39.4437 44.7547 39.742 46.1906 39.9687 46.1906C40.458 46.1906 41.3423 44.8592 41.5795 44.5135C42.0146 44.7985 41.7732 45.3967 42.5797 45.3967C42.9447 45.3967 43.1283 44.6103 43.5083 44.5975C43.5217 44.9154 43.5421 45.203 43.3688 45.5702C43.1016 46.1364 42.4254 46.9036 41.7607 46.9036C41.2847 46.9036 40.6216 46.3304 40.4913 46.3304C40.3498 46.3304 40.0902 46.3966 40.0073 46.5719C39.6612 47.3052 40.5865 49.7534 41.5145 49.7534C42.0104 49.7534 42.6021 49.3896 43.1207 49.1652C42.9857 50.0473 42.9669 50.7911 43.1456 51.5501C42.6729 51.8496 42.1193 51.9758 41.675 51.9758C39.3947 51.9758 40.6523 46.6728 38.5496 45.5429L39.3405 44.5011Z" stroke="black" stroke-width="0.47644" stroke-miterlimit="3.8637"/>
<path fill-rule="evenodd" clip-rule="evenodd" d="M48.1045 44.0769C49.8278 44.0769 50.5083 47.1769 49.7351 48.815C49.1351 50.0857 48.0715 51.0068 46.7091 51.0068C44.3028 51.0068 44.6043 47.7267 45.543 45.7378C45.8019 45.19 46.6864 43.9958 47.3784 43.9958C47.6325 43.9958 47.8431 44.0768 48.1047 44.0768L48.1045 44.0769ZM48.0512 44.3662C47.7799 44.3662 47.5414 44.5003 47.4156 44.7672C47.1514 45.3266 48.4686 45.8927 48.2795 46.293C48.1605 46.545 47.7075 46.7808 47.4789 46.7808C46.337 46.7808 46.3467 45.2951 47.0274 44.3267C46.6042 44.5964 46.3267 45.0083 46.1465 45.3904C45.4773 46.8077 46.0083 48.7576 47.5355 48.7576C48.3793 48.7576 49.3512 47.9994 49.7289 47.1991C50.1937 46.2151 49.0052 44.3662 48.0512 44.3662" fill="black"/>
<path d="M48.1045 44.0769C49.8278 44.0769 50.5083 47.1769 49.7351 48.815C49.1351 50.0857 48.0715 51.0068 46.7091 51.0068C44.3028 51.0068 44.6043 47.7267 45.543 45.7378C45.8019 45.19 46.6864 43.9958 47.3784 43.9958C47.6325 43.9958 47.8431 44.0768 48.1047 44.0768L48.1045 44.0769Z" stroke="black" stroke-width="0.47644" stroke-miterlimit="3.8637"/>
<path d="M48.0506 44.3662C47.7793 44.3662 47.5407 44.5003 47.415 44.7672C47.1508 45.3266 48.4679 45.8927 48.2788 46.293C48.1599 46.545 47.7069 46.7808 47.4783 46.7808C46.3364 46.7808 46.3461 45.295 47.0268 44.3267C46.6035 44.5964 46.3261 45.0083 46.1458 45.3904C45.4767 46.8077 46.0077 48.7576 47.5348 48.7576C48.3787 48.7576 49.3506 47.9994 49.7283 47.1991C50.1931 46.2151 49.0046 44.3662 48.0506 44.3662H48.0506Z" stroke="black" stroke-width="0.47644" stroke-miterlimit="3.8637"/>
<path fill-rule="evenodd" clip-rule="evenodd" d="M55.9373 49.1799C55.487 50.1337 54.6478 50.6575 53.7029 50.6575C50.7042 50.6575 50.1092 47.9231 51.4088 45.17C51.7157 44.5202 52.2193 43.8013 52.9884 43.8013C55.3974 43.8013 57.0756 46.7682 55.9372 49.1798L55.9373 49.1799ZM53.5449 44.1467C53.3237 44.1467 53.1296 44.2267 53.0235 44.4515C52.7903 44.9458 54.0594 45.3866 54.0612 45.8974C53.9286 46.0543 53.5575 46.23 53.3958 46.23C52.4819 46.23 51.7921 44.991 52.5723 44.0702C52.2557 44.2713 52.0678 44.5723 51.9341 44.8553C51.1429 46.5311 52.2707 48.2253 53.9139 48.2253C54.5978 48.2253 55.4794 47.8447 55.8346 47.092C56.3374 46.0267 54.5466 44.1468 53.5448 44.1468" fill="black"/>
<path d="M55.9373 49.1799C55.487 50.1337 54.6478 50.6575 53.7029 50.6575C50.7042 50.6575 50.1092 47.9231 51.4088 45.17C51.7157 44.5202 52.2193 43.8013 52.9884 43.8013C55.3974 43.8013 57.0756 46.7682 55.9372 49.1798L55.9373 49.1799Z" stroke="black" stroke-width="0.47644" stroke-miterlimit="3.8637"/>
<path d="M53.5445 44.147C53.3233 44.147 53.1292 44.2269 53.0232 44.4517C52.7899 44.946 54.0591 45.3868 54.0608 45.8976C53.9283 46.0546 53.5572 46.2303 53.3955 46.2303C52.4815 46.2303 51.7917 44.9913 52.572 44.0705C52.2553 44.2716 52.0674 44.5725 51.9337 44.8555C51.1426 46.5313 52.2703 48.2256 53.9136 48.2256C54.5975 48.2256 55.479 47.845 55.8343 47.0923C56.3371 46.027 54.5463 44.147 53.5445 44.147L53.5445 44.147Z" stroke="black" stroke-width="0.47644" stroke-miterlimit="3.8637"/>
<path d="M59.0384 44.1309C61.6227 44.1309 62.9358 48.873 61.7809 51.3191C61.5603 51.7867 61.1488 52.2542 60.6063 52.2542C57.6539 52.2542 58.4077 46.3856 56.7456 44.7182C56.8976 44.5567 57.0431 44.3878 57.1765 44.2177C58.2996 45.5357 57.7415 49.0042 60.1401 49.0042C60.6927 49.0042 61.1106 48.5204 61.3336 48.0482C61.9291 46.7863 60.827 44.5949 59.6206 44.5949C59.6085 44.5949 59.4353 44.602 59.4392 44.6722C59.4836 45.4776 60.1172 44.9754 59.4792 46.346C58.8274 46.2161 58.137 45.1697 58.4934 44.4147C58.5982 44.1928 58.8607 44.1309 59.0386 44.1309" fill="black"/>
<path d="M59.0384 44.1309C61.6227 44.1309 62.9358 48.873 61.7809 51.3191C61.5603 51.7867 61.1488 52.2542 60.6063 52.2542C57.6539 52.2542 58.4077 46.3856 56.7456 44.7182C56.8976 44.5567 57.0431 44.3878 57.1765 44.2177C58.2996 45.5357 57.7415 49.0042 60.1401 49.0042C60.6927 49.0042 61.1106 48.5204 61.3336 48.0482C61.9291 46.7863 60.827 44.5949 59.6206 44.5949C59.6085 44.5949 59.4353 44.602 59.4392 44.6722C59.4836 45.4776 60.1172 44.9754 59.4792 46.346C58.8274 46.2161 58.137 45.1697 58.4934 44.4147C58.5982 44.1928 58.8607 44.1309 59.0386 44.1309L59.0384 44.1309Z" stroke="black" stroke-width="0.47644" stroke-miterlimit="3.8637"/>
<path fill-rule="evenodd" clip-rule="evenodd" d="M65.4636 44.0768C65.7069 44.0998 66.0727 44.0781 66.2815 44.1416C66.3207 44.1535 66.2909 44.2025 66.2977 44.2411C66.361 44.5994 66.4609 44.9394 66.5472 45.2856C66.8838 46.6348 67.0865 48.0198 67.4729 49.357C67.8932 50.8129 68.3315 52.4536 67.8225 54.2807C67.7727 54.4594 67.7062 54.6409 67.6202 54.8231C67.0432 56.0456 65.5596 57.2092 64.2622 57.2092C64.1046 57.2092 63.9347 57.1647 63.8592 57.0622C64.4068 56.7141 64.7493 56.3572 64.9941 55.8391C65.2874 55.2179 65.283 54.6361 65.2444 54.1005C65.3481 54.1608 65.6804 54.3114 65.8188 54.3114C66.3799 54.3114 66.8617 53.7687 67.0868 53.2918C67.5003 52.4158 67.4296 51.5218 67.358 50.7758C67.3221 50.4024 67.2717 50.034 67.2022 49.6761L67.0968 49.1579L67.0835 49.1011L67.0706 49.0445C67.1333 49.0445 67.077 49.1546 67.0794 49.21C67.118 50.113 67.1018 51.3737 66.6167 52.4017C66.3911 52.8793 66.0223 53.3716 65.4562 53.3716C62.9751 53.3716 64.223 46.3347 62.2346 44.6621C62.3448 44.4801 62.4432 44.2929 62.5257 44.1094C63.7023 45.5305 63.7639 49.448 65.4957 49.448C65.916 49.448 66.3505 49.054 66.5292 48.6755C67.2986 47.0457 66.0206 45.147 65.4636 44.0768" fill="black"/>
<path d="M65.4636 44.0768C65.7069 44.0998 66.0727 44.0781 66.2815 44.1416C66.3207 44.1535 66.2909 44.2025 66.2977 44.2411C66.361 44.5994 66.4609 44.9394 66.5472 45.2856C66.8838 46.6348 67.0865 48.0198 67.4729 49.357C67.8932 50.8129 68.3315 52.4536 67.8225 54.2807C67.7727 54.4594 67.7062 54.6409 67.6202 54.8231C67.0432 56.0456 65.5596 57.2092 64.2622 57.2092C64.1046 57.2092 63.9347 57.1647 63.8592 57.0622C64.4068 56.7141 64.7493 56.3572 64.9941 55.8391C65.2874 55.2179 65.283 54.6361 65.2444 54.1005C65.3481 54.1608 65.6804 54.3114 65.8188 54.3114C66.3799 54.3114 66.8617 53.7687 67.0868 53.2918C67.5003 52.4158 67.4296 51.5218 67.358 50.7758C67.3221 50.4024 67.2717 50.034 67.2022 49.6761L67.0968 49.1579L67.0835 49.1011L67.0706 49.0445C67.1333 49.0445 67.077 49.1546 67.0794 49.21C67.118 50.113 67.1018 51.3737 66.6167 52.4017C66.3911 52.8793 66.0223 53.3716 65.4562 53.3716C62.9751 53.3716 64.223 46.3347 62.2346 44.6621C62.3448 44.4801 62.4432 44.2929 62.5257 44.1094C63.7023 45.5305 63.7639 49.448 65.4957 49.448C65.916 49.448 66.3505 49.054 66.5292 48.6755C67.2986 47.0457 66.0206 45.147 65.4636 44.0768L65.4636 44.0768Z" stroke="black" stroke-width="0.47644" stroke-miterlimit="3.8637"/>
<path d="M34.9018 38.3295C36.6084 38.3295 35.6138 42.5939 35.0069 43.8797C34.4872 44.9805 33.3172 46.5682 31.9306 46.5682C30.2669 46.5682 30.3164 44.7048 30.9787 43.3022C31.3372 42.5428 31.8882 41.6915 32.6473 41.0656C32.453 41.7189 33.1098 42.1651 32.8441 42.728C32.6627 43.1124 32.2872 43.5323 32.092 43.9458C31.7764 44.6142 31.897 45.8005 32.6595 45.8005C33.342 45.8005 33.9484 44.9551 34.197 44.4284C34.7064 43.3492 35.9799 38.7454 34.5564 38.7454C32.9169 38.7454 30.0918 42.7405 29.5002 43.9937C28.4442 46.2307 29.2097 48.9859 31.6156 48.9859C33.2413 48.9859 34.5785 47.423 35.2244 46.0547C35.6092 45.2397 35.8187 44.4288 35.9012 43.6642L36.2167 43.6064C36.2865 45.7113 38.5132 49.1966 37.5653 51.2045C36.3522 53.7743 32.7248 53.7513 30.6536 54.6633C30.2183 53.645 29.6285 52.6982 28.798 51.9755C30.6456 51.354 35.1854 50.3105 36.1727 48.2193C36.5876 47.3406 36.3052 45.8838 35.8258 45.39C35.7443 45.7006 35.6314 46.0171 35.4816 46.3344C34.6363 48.125 32.8265 49.5136 30.9608 49.5136C28.3631 49.5136 27.262 47.647 28.4844 45.0568C29.2181 43.5026 32.9648 38.3294 34.902 38.3294" fill="black"/>
<path d="M34.9018 38.3295C36.6084 38.3295 35.6138 42.5939 35.0069 43.8797C34.4872 44.9805 33.3172 46.5682 31.9306 46.5682C30.2669 46.5682 30.3164 44.7048 30.9787 43.3022C31.3372 42.5428 31.8882 41.6915 32.6473 41.0656C32.453 41.7189 33.1098 42.1651 32.8441 42.728C32.6627 43.1124 32.2872 43.5323 32.092 43.9458C31.7764 44.6142 31.897 45.8005 32.6595 45.8005C33.342 45.8005 33.9484 44.9551 34.197 44.4284C34.7064 43.3492 35.9799 38.7454 34.5564 38.7454C32.9169 38.7454 30.0918 42.7405 29.5002 43.9937C28.4442 46.2307 29.2097 48.9859 31.6156 48.9859C33.2413 48.9859 34.5785 47.423 35.2244 46.0547C35.6092 45.2397 35.8187 44.4288 35.9012 43.6642L36.2167 43.6064C36.2865 45.7113 38.5132 49.1966 37.5653 51.2045C36.3522 53.7743 32.7248 53.7513 30.6536 54.6633C30.2183 53.645 29.6285 52.6982 28.798 51.9755C30.6456 51.354 35.1854 50.3105 36.1727 48.2193C36.5876 47.3406 36.3052 45.8838 35.8258 45.39C35.7443 45.7006 35.6314 46.0171 35.4816 46.3344C34.6363 48.125 32.8265 49.5136 30.9608 49.5136C28.3631 49.5136 27.262 47.647 28.4844 45.0568C29.2181 43.5026 32.9648 38.3294 34.902 38.3294L34.9018 38.3295Z" stroke="black" stroke-width="5.7172" stroke-miterlimit="3.8637" stroke-linejoin="round"/>
<path d="M39.3405 44.5011C39.4437 44.7547 39.742 46.1906 39.9687 46.1906C40.458 46.1906 41.3423 44.8592 41.5795 44.5135C42.0146 44.7985 41.7732 45.3967 42.5797 45.3967C42.9447 45.3967 43.1283 44.6103 43.5083 44.5975C43.5217 44.9154 43.5421 45.203 43.3688 45.5702C43.1016 46.1364 42.4254 46.9036 41.7607 46.9036C41.2847 46.9036 40.6216 46.3304 40.4913 46.3304C40.3498 46.3304 40.0902 46.3966 40.0073 46.5719C39.6612 47.3052 40.5865 49.7534 41.5145 49.7534C42.0104 49.7534 42.6021 49.3896 43.1207 49.1652C42.9857 50.0473 42.9669 50.7911 43.1456 51.5501C42.6729 51.8496 42.1193 51.9758 41.675 51.9758C39.3947 51.9758 40.6523 46.6728 38.5496 45.5429L39.3404 44.5011" fill="black"/>
<path d="M39.3405 44.5011C39.4437 44.7547 39.742 46.1906 39.9687 46.1906C40.458 46.1906 41.3423 44.8592 41.5795 44.5135C42.0146 44.7985 41.7732 45.3967 42.5797 45.3967C42.9447 45.3967 43.1283 44.6103 43.5083 44.5975C43.5217 44.9154 43.5421 45.203 43.3688 45.5702C43.1016 46.1364 42.4254 46.9036 41.7607 46.9036C41.2847 46.9036 40.6216 46.3304 40.4913 46.3304C40.3498 46.3304 40.0902 46.3966 40.0073 46.5719C39.6612 47.3052 40.5865 49.7534 41.5145 49.7534C42.0104 49.7534 42.6021 49.3896 43.1207 49.1652C42.9857 50.0473 42.9669 50.7911 43.1456 51.5501C42.6729 51.8496 42.1193 51.9758 41.675 51.9758C39.3947 51.9758 40.6523 46.6728 38.5496 45.5429L39.3405 44.5011Z" stroke="black" stroke-width="5.7172" stroke-miterlimit="3.8637" stroke-linejoin="round"/>
<path fill-rule="evenodd" clip-rule="evenodd" d="M48.1045 44.0769C49.8278 44.0769 50.5083 47.1769 49.7351 48.815C49.1351 50.0857 48.0715 51.0068 46.7091 51.0068C44.3028 51.0068 44.6043 47.7267 45.543 45.7378C45.8019 45.19 46.6864 43.9958 47.3784 43.9958C47.6325 43.9958 47.8431 44.0768 48.1047 44.0768L48.1045 44.0769ZM48.0512 44.3662C47.7799 44.3662 47.5414 44.5003 47.4156 44.7672C47.1514 45.3266 48.4686 45.8927 48.2795 46.293C48.1605 46.545 47.7075 46.7808 47.4789 46.7808C46.337 46.7808 46.3467 45.2951 47.0274 44.3267C46.6042 44.5964 46.3267 45.0083 46.1465 45.3904C45.4773 46.8077 46.0083 48.7576 47.5355 48.7576C48.3793 48.7576 49.3512 47.9994 49.7289 47.1991C50.1937 46.2151 49.0052 44.3662 48.0512 44.3662" fill="black"/>
<path d="M48.1045 44.0769C49.8278 44.0769 50.5083 47.1769 49.7351 48.815C49.1351 50.0857 48.0715 51.0068 46.7091 51.0068C44.3028 51.0068 44.6043 47.7267 45.543 45.7378C45.8019 45.19 46.6864 43.9958 47.3784 43.9958C47.6325 43.9958 47.8431 44.0768 48.1047 44.0768L48.1045 44.0769Z" stroke="black" stroke-width="5.7172" stroke-miterlimit="3.8637" stroke-linejoin="round"/>
<path d="M48.0506 44.3662C47.7793 44.3662 47.5407 44.5003 47.415 44.7672C47.1508 45.3266 48.4679 45.8927 48.2788 46.293C48.1599 46.545 47.7069 46.7808 47.4783 46.7808C46.3364 46.7808 46.3461 45.295 47.0268 44.3267C46.6035 44.5964 46.3261 45.0083 46.1458 45.3904C45.4767 46.8077 46.0077 48.7576 47.5348 48.7576C48.3787 48.7576 49.3506 47.9994 49.7283 47.1991C50.1931 46.2151 49.0046 44.3662 48.0506 44.3662H48.0506Z" stroke="black" stroke-width="5.7172" stroke-miterlimit="3.8637" stroke-linejoin="round"/>
<path fill-rule="evenodd" clip-rule="evenodd" d="M55.9373 49.1799C55.487 50.1337 54.6478 50.6575 53.7029 50.6575C50.7042 50.6575 50.1092 47.9231 51.4088 45.17C51.7157 44.5202 52.2193 43.8013 52.9884 43.8013C55.3974 43.8013 57.0756 46.7682 55.9372 49.1798L55.9373 49.1799ZM53.5449 44.1467C53.3237 44.1467 53.1296 44.2267 53.0235 44.4515C52.7903 44.9458 54.0594 45.3866 54.0612 45.8974C53.9286 46.0543 53.5575 46.23 53.3958 46.23C52.4819 46.23 51.7921 44.991 52.5723 44.0702C52.2557 44.2713 52.0678 44.5723 51.9341 44.8553C51.1429 46.5311 52.2707 48.2253 53.9139 48.2253C54.5978 48.2253 55.4794 47.8447 55.8346 47.092C56.3374 46.0267 54.5466 44.1468 53.5448 44.1468" fill="black"/>
<path d="M55.9373 49.1799C55.487 50.1337 54.6478 50.6575 53.7029 50.6575C50.7042 50.6575 50.1092 47.9231 51.4088 45.17C51.7157 44.5202 52.2193 43.8013 52.9884 43.8013C55.3974 43.8013 57.0756 46.7682 55.9372 49.1798L55.9373 49.1799Z" stroke="black" stroke-width="5.7172" stroke-miterlimit="3.8637" stroke-linejoin="round"/>
<path d="M53.5445 44.147C53.3233 44.147 53.1292 44.2269 53.0232 44.4517C52.7899 44.946 54.0591 45.3868 54.0608 45.8976C53.9283 46.0546 53.5572 46.2303 53.3955 46.2303C52.4815 46.2303 51.7917 44.9913 52.572 44.0705C52.2553 44.2716 52.0674 44.5725 51.9337 44.8555C51.1426 46.5313 52.2703 48.2256 53.9136 48.2256C54.5975 48.2256 55.479 47.845 55.8343 47.0923C56.3371 46.027 54.5463 44.147 53.5445 44.147L53.5445 44.147Z" stroke="black" stroke-width="5.7172" stroke-miterlimit="3.8637" stroke-linejoin="round"/>
<path d="M59.0384 44.1309C61.6227 44.1309 62.9358 48.873 61.7809 51.3191C61.5603 51.7867 61.1488 52.2542 60.6063 52.2542C57.6539 52.2542 58.4077 46.3856 56.7456 44.7182C56.8976 44.5567 57.0431 44.3878 57.1765 44.2177C58.2996 45.5357 57.7415 49.0042 60.1401 49.0042C60.6927 49.0042 61.1106 48.5204 61.3336 48.0482C61.9291 46.7863 60.827 44.5949 59.6206 44.5949C59.6085 44.5949 59.4353 44.602 59.4392 44.6722C59.4836 45.4776 60.1172 44.9754 59.4792 46.346C58.8274 46.2161 58.137 45.1697 58.4934 44.4147C58.5982 44.1928 58.8607 44.1309 59.0386 44.1309" fill="black"/>
<path d="M59.0384 44.1309C61.6227 44.1309 62.9358 48.873 61.7809 51.3191C61.5603 51.7867 61.1488 52.2542 60.6063 52.2542C57.6539 52.2542 58.4077 46.3856 56.7456 44.7182C56.8976 44.5567 57.0431 44.3878 57.1765 44.2177C58.2996 45.5357 57.7415 49.0042 60.1401 49.0042C60.6927 49.0042 61.1106 48.5204 61.3336 48.0482C61.9291 46.7863 60.827 44.5949 59.6206 44.5949C59.6085 44.5949 59.4353 44.602 59.4392 44.6722C59.4836 45.4776 60.1172 44.9754 59.4792 46.346C58.8274 46.2161 58.137 45.1697 58.4934 44.4147C58.5982 44.1928 58.8607 44.1309 59.0386 44.1309L59.0384 44.1309Z" stroke="black" stroke-width="5.7172" stroke-miterlimit="3.8637" stroke-linejoin="round"/>
<path fill-rule="evenodd" clip-rule="evenodd" d="M65.4636 44.0768C65.7069 44.0998 66.0727 44.0781 66.2815 44.1416C66.3207 44.1535 66.2909 44.2025 66.2977 44.2411C66.361 44.5994 66.4609 44.9394 66.5472 45.2856C66.8838 46.6348 67.0865 48.0198 67.4729 49.357C67.8932 50.8129 68.3315 52.4536 67.8225 54.2807C67.7727 54.4594 67.7062 54.6409 67.6202 54.8231C67.0432 56.0456 65.5596 57.2092 64.2622 57.2092C64.1046 57.2092 63.9347 57.1647 63.8592 57.0622C64.4068 56.7141 64.7493 56.3572 64.9941 55.8391C65.2874 55.2179 65.283 54.6361 65.2444 54.1005C65.3481 54.1608 65.6804 54.3114 65.8188 54.3114C66.3799 54.3114 66.8617 53.7687 67.0868 53.2918C67.5003 52.4158 67.4296 51.5218 67.358 50.7758C67.3221 50.4024 67.2717 50.034 67.2022 49.6761L67.0968 49.1579L67.0835 49.1011L67.0706 49.0445C67.1333 49.0445 67.077 49.1546 67.0794 49.21C67.118 50.113 67.1018 51.3737 66.6167 52.4017C66.3911 52.8793 66.0223 53.3716 65.4562 53.3716C62.9751 53.3716 64.223 46.3347 62.2346 44.6621C62.3448 44.4801 62.4432 44.2929 62.5257 44.1094C63.7023 45.5305 63.7639 49.448 65.4957 49.448C65.916 49.448 66.3505 49.054 66.5292 48.6755C67.2986 47.0457 66.0206 45.147 65.4636 44.0768" fill="black"/>
<path d="M65.4636 44.0768C65.7069 44.0998 66.0727 44.0781 66.2815 44.1416C66.3207 44.1535 66.2909 44.2025 66.2977 44.2411C66.361 44.5994 66.4609 44.9394 66.5472 45.2856C66.8838 46.6348 67.0865 48.0198 67.4729 49.357C67.8932 50.8129 68.3315 52.4536 67.8225 54.2807C67.7727 54.4594 67.7062 54.6409 67.6202 54.8231C67.0432 56.0456 65.5596 57.2092 64.2622 57.2092C64.1046 57.2092 63.9347 57.1647 63.8592 57.0622C64.4068 56.7141 64.7493 56.3572 64.9941 55.8391C65.2874 55.2179 65.283 54.6361 65.2444 54.1005C65.3481 54.1608 65.6804 54.3114 65.8188 54.3114C66.3799 54.3114 66.8617 53.7687 67.0868 53.2918C67.5003 52.4158 67.4296 51.5218 67.358 50.7758C67.3221 50.4024 67.2717 50.034 67.2022 49.6761L67.0968 49.1579L67.0835 49.1011L67.0706 49.0445C67.1333 49.0445 67.077 49.1546 67.0794 49.21C67.118 50.113 67.1018 51.3737 66.6167 52.4017C66.3911 52.8793 66.0223 53.3716 65.4562 53.3716C62.9751 53.3716 64.223 46.3347 62.2346 44.6621C62.3448 44.4801 62.4432 44.2929 62.5257 44.1094C63.7023 45.5305 63.7639 49.448 65.4957 49.448C65.916 49.448 66.3505 49.054 66.5292 48.6755C67.2986 47.0457 66.0206 45.147 65.4636 44.0768L65.4636 44.0768Z" stroke="black" stroke-width="5.7172" stroke-miterlimit="3.8637" stroke-linejoin="round"/>
<path d="M34.9018 38.3295C36.6084 38.3295 35.6138 42.5939 35.0069 43.8797C34.4872 44.9805 33.3172 46.5682 31.9306 46.5682C30.2669 46.5682 30.3164 44.7048 30.9787 43.3022C31.3372 42.5428 31.8882 41.6915 32.6473 41.0656C32.453 41.7189 33.1098 42.1651 32.8441 42.728C32.6627 43.1124 32.2872 43.5323 32.092 43.9458C31.7764 44.6142 31.897 45.8005 32.6595 45.8005C33.342 45.8005 33.9484 44.9551 34.197 44.4284C34.7064 43.3492 35.9799 38.7454 34.5564 38.7454C32.9169 38.7454 30.0918 42.7405 29.5002 43.9937C28.4442 46.2307 29.2097 48.9859 31.6156 48.9859C33.2413 48.9859 34.5785 47.423 35.2244 46.0547C35.6092 45.2397 35.8187 44.4288 35.9012 43.6642L36.2167 43.6064C36.2865 45.7113 38.5132 49.1966 37.5653 51.2045C36.3522 53.7743 32.7248 53.7513 30.6536 54.6633C30.2183 53.645 29.6285 52.6982 28.798 51.9755C30.6456 51.354 35.1854 50.3105 36.1727 48.2193C36.5876 47.3406 36.3052 45.8838 35.8258 45.39C35.7443 45.7006 35.6314 46.0171 35.4816 46.3344C34.6363 48.125 32.8265 49.5136 30.9608 49.5136C28.3631 49.5136 27.262 47.647 28.4844 45.0568C29.2181 43.5026 32.9648 38.3294 34.902 38.3294" fill="white"/>
<path d="M39.3405 44.5011C39.4437 44.7547 39.742 46.1906 39.9687 46.1906C40.458 46.1906 41.3423 44.8592 41.5795 44.5135C42.0147 44.7985 41.7733 45.3967 42.5797 45.3967C42.9448 45.3967 43.1284 44.6103 43.5083 44.5975C43.5218 44.9154 43.5421 45.203 43.3688 45.5702C43.1016 46.1364 42.4254 46.9036 41.7608 46.9036C41.2847 46.9036 40.6216 46.3304 40.4914 46.3304C40.3498 46.3304 40.0902 46.3966 40.0073 46.5719C39.6612 47.3052 40.5865 49.7534 41.5145 49.7534C42.0104 49.7534 42.6021 49.3896 43.1208 49.1652C42.9857 50.0473 42.967 50.7911 43.1456 51.5501C42.673 51.8496 42.1193 51.9758 41.675 51.9758C39.3948 51.9758 40.6523 46.6728 38.5497 45.5429L39.3404 44.5011" fill="white"/>
<path fill-rule="evenodd" clip-rule="evenodd" d="M48.1045 44.0769C49.8278 44.0769 50.5083 47.1769 49.7351 48.815C49.1351 50.0857 48.0715 51.0068 46.7091 51.0068C44.3028 51.0068 44.6043 47.7267 45.543 45.7378C45.8019 45.19 46.6864 43.9958 47.3784 43.9958C47.6325 43.9958 47.8431 44.0768 48.1047 44.0768L48.1045 44.0769ZM48.0512 44.3662C47.7799 44.3662 47.5414 44.5003 47.4156 44.7672C47.1514 45.3266 48.4686 45.8927 48.2795 46.293C48.1605 46.545 47.7075 46.7808 47.4789 46.7808C46.337 46.7808 46.3467 45.2951 47.0274 44.3267C46.6042 44.5964 46.3267 45.0083 46.1465 45.3904C45.4773 46.8077 46.0083 48.7576 47.5355 48.7576C48.3793 48.7576 49.3512 47.9994 49.7289 47.1991C50.1937 46.2151 49.0052 44.3662 48.0512 44.3662" fill="white"/>
<path fill-rule="evenodd" clip-rule="evenodd" d="M55.9373 49.1799C55.487 50.1337 54.6478 50.6575 53.7029 50.6575C50.7042 50.6575 50.1092 47.9231 51.4088 45.17C51.7157 44.5202 52.2193 43.8013 52.9884 43.8013C55.3973 43.8013 57.0755 46.7682 55.9372 49.1798L55.9373 49.1799ZM53.5449 44.1467C53.3237 44.1467 53.1296 44.2267 53.0235 44.4515C52.7903 44.9458 54.0594 45.3866 54.0612 45.8974C53.9286 46.0543 53.5575 46.23 53.3958 46.23C52.4819 46.23 51.7921 44.991 52.5723 44.0702C52.2557 44.2713 52.0678 44.5723 51.9341 44.8553C51.1429 46.5311 52.2707 48.2253 53.9139 48.2253C54.5978 48.2253 55.4794 47.8447 55.8346 47.092C56.3374 46.0267 54.5466 44.1468 53.5448 44.1468" fill="white"/>
<path d="M59.0384 44.1309C61.6227 44.1309 62.9358 48.873 61.7809 51.3191C61.5603 51.7867 61.1488 52.2542 60.6063 52.2542C57.6539 52.2542 58.4077 46.3856 56.7456 44.7182C56.8976 44.5567 57.0431 44.3878 57.1765 44.2177C58.2996 45.5357 57.7415 49.0042 60.1401 49.0042C60.6927 49.0042 61.1106 48.5204 61.3336 48.0482C61.9291 46.7863 60.827 44.5949 59.6206 44.5949C59.6085 44.5949 59.4353 44.602 59.4391 44.6722C59.4836 45.4776 60.1172 44.9754 59.4792 46.346C58.8274 46.2161 58.137 45.1697 58.4934 44.4147C58.5982 44.1928 58.8607 44.1309 59.0386 44.1309" fill="white"/>
<path fill-rule="evenodd" clip-rule="evenodd" d="M65.4636 44.0769C65.7069 44.1 66.0727 44.0782 66.2815 44.1418C66.3207 44.1536 66.2909 44.2026 66.2977 44.2412C66.361 44.5995 66.4609 44.9396 66.5472 45.2858C66.8838 46.635 67.0865 48.02 67.4729 49.3571C67.8932 50.8131 68.3315 52.4538 67.8225 54.2808C67.7727 54.4596 67.7062 54.6411 67.6202 54.8232C65.6854 58.5397 61.5445 57.538 60.2474 57.538C60.0898 57.538 59.9196 57.4933 59.8445 57.3908C60.3917 57.0428 60.7346 56.686 60.979 56.1678C61.2724 55.5466 61.268 54.9648 61.2294 54.4291C61.3331 54.4895 61.6656 54.64 61.8037 54.64C62.3648 54.64 65.4925 56.247 67.0868 53.292C67.5003 52.416 67.4296 51.5221 67.358 50.776C67.3221 50.4026 67.2717 50.0342 67.2022 49.6763L67.0968 49.1581L67.0835 49.1013L67.0706 49.0447C67.1333 49.0447 67.077 49.1548 67.0794 49.2102C67.118 50.1132 67.1018 51.3739 66.6167 52.4019C66.3911 52.8795 66.0223 53.3718 65.4562 53.3718C62.9752 53.3718 64.223 46.3349 62.2347 44.6623C62.3448 44.4803 62.4432 44.2931 62.5257 44.1096C63.7023 45.5307 63.7639 49.4482 65.4957 49.4482C65.916 49.4482 66.3505 49.0542 66.5293 48.6757C67.2986 47.0459 66.0206 45.1472 65.4636 44.077" fill="white"/>
</g>
<defs>
<clipPath id="clip0">
<rect width="64" height="64" fill="white" transform="translate(16 16)"/>
</clipPath>
</defs>
</svg>
