<svg width="96" height="96" viewBox="0 0 96 96" fill="none" xmlns="http://www.w3.org/2000/svg">
<path d="M44 2.30935C46.4752 0.880283 49.5248 0.880284 52 2.30935L85.5692 21.6905C88.0444 23.1196 89.5692 25.7606 89.5692 28.6187V67.3811C89.5692 70.2393 88.0444 72.8803 85.5692 74.3093L52 93.6905C49.5248 95.1196 46.4752 95.1196 44 93.6905L10.4308 74.3093C7.95558 72.8803 6.43079 70.2393 6.43079 67.3811V28.6187C6.43079 25.7606 7.95558 23.1196 10.4308 21.6905L44 2.30935Z" fill="white"/>
<path fill-rule="evenodd" clip-rule="evenodd" d="M84.1907 22.9024L51.5701 4.06896C49.3322 2.77689 46.575 2.77689 44.337 4.06896L11.7165 22.9024C9.47853 24.1945 8.09991 26.5824 8.09991 29.1665V66.8335C8.09991 69.4176 9.47853 71.8055 11.7165 73.0975L44.337 91.931C46.575 93.2231 49.3322 93.2231 51.5701 91.931L84.1907 73.0975C86.4286 71.8055 87.8072 69.4176 87.8072 66.8335V29.1665C87.8072 26.5824 86.4286 24.1945 84.1907 22.9024ZM53.1201 1.38436C49.923 -0.461454 45.9841 -0.461455 42.7871 1.38436L10.1665 20.2178C6.96946 22.0637 5 25.4749 5 29.1665V66.8335C5 70.5251 6.96946 73.9363 10.1665 75.7821L42.7871 94.6156C45.9841 96.4614 49.923 96.4614 53.1201 94.6156L85.7406 75.7821C88.9377 73.9363 90.9071 70.5251 90.9071 66.8335V29.1665C90.9071 25.4749 88.9377 22.0637 85.7406 20.2178L53.1201 1.38436Z" fill="#F68712"/>
<g clip-path="url(#clip0)">
<path d="M48 30.0007L34.3305 28.4868L24 24.0006H35.9996L48 30.0015" fill="#FBC707"/>
<path d="M48.0001 30.0007L61.9827 28.7998L72.0001 24.0006H59.9997L48.0001 30.0015" fill="#FBC707"/>
<path d="M48.0001 66L61.0436 66.4695L72.0001 72H59.9997L48.0001 65.9989" fill="#FBC707"/>
<path d="M48 65.9998H34.8522L24 71.9998H35.9996L48 65.9987" fill="#FBC707"/>
<path d="M29.9998 48.0003V60.6258L24 71.9998V60.0002L29.9998 48" fill="#FFF200"/>
<path d="M29.9998 48.0005L29.0087 35.4781L24 24.0006V36.0002L29.9998 48.0002" fill="#FFF200"/>
<path d="M65.9993 48.0005L67.3044 34.852L72.0001 24.0006V36.0002L65.9993 48.0002" fill="#F1471D"/>
<path d="M65.9993 48.0006L67.0957 62.0869L72.0001 72V60.0004L65.9993 48.0003" fill="#F1471D"/>
<path d="M24 24.0006L48 30.0007L44.1392 45.2868L29.9998 48.0005L24 24.0019" fill="#FAB20B"/>
<path d="M72.0001 24.0006L65.9992 48.0005L49.8783 45.0774L48 29.9999L72.0001 24.0019" fill="#F47216"/>
<path d="M72.0001 72L48.0001 66L50.7131 50.0881L65.9993 48.0018L72.0001 71.9985" fill="#F25C19"/>
<path d="M24 71.9998L29.9998 48.0003L44.4522 51.2345L48 65.9997L24 71.9983" fill="#F89C0E"/>
<path d="M48.0001 30.0007L29.9998 48.0006L48.0001 66L65.9993 48.0006L48.0001 30.0015" fill="#F68712"/>
</g>
<defs>
<clipPath id="clip0">
<rect width="48" height="48" fill="white" transform="translate(24 24)"/>
</clipPath>
</defs>
</svg>
