<svg width="96" height="96" viewBox="0 0 96 96" fill="none" xmlns="http://www.w3.org/2000/svg">
<path d="M44 2.30935C46.4752 0.880283 49.5248 0.880284 52 2.30935L85.5692 21.6905C88.0444 23.1196 89.5692 25.7606 89.5692 28.6187V67.3811C89.5692 70.2393 88.0444 72.8803 85.5692 74.3093L52 93.6905C49.5248 95.1196 46.4752 95.1196 44 93.6905L10.4308 74.3093C7.95558 72.8803 6.43079 70.2393 6.43079 67.3811V28.6187C6.43079 25.7606 7.95558 23.1196 10.4308 21.6905L44 2.30935Z" fill="white"/>
<path fill-rule="evenodd" clip-rule="evenodd" d="M84.1907 22.9024L51.5701 4.06896C49.3322 2.77689 46.575 2.77689 44.337 4.06896L11.7165 22.9024C9.47853 24.1945 8.09991 26.5824 8.09991 29.1665V66.8335C8.09991 69.4176 9.47853 71.8055 11.7165 73.0975L44.337 91.931C46.575 93.2231 49.3322 93.2231 51.5701 91.931L84.1907 73.0975C86.4286 71.8055 87.8072 69.4176 87.8072 66.8335V29.1665C87.8072 26.5824 86.4286 24.1945 84.1907 22.9024ZM53.1201 1.38436C49.923 -0.461454 45.9841 -0.461455 42.7871 1.38436L10.1665 20.2178C6.96946 22.0637 5 25.4749 5 29.1665V66.8335C5 70.5251 6.96946 73.9363 10.1665 75.7821L42.7871 94.6156C45.9841 96.4614 49.923 96.4614 53.1201 94.6156L85.7406 75.7821C88.9377 73.9363 90.9071 70.5251 90.9071 66.8335V29.1665C90.9071 25.4749 88.9377 22.0637 85.7406 20.2178L53.1201 1.38436Z" fill="#EA2D2E"/>
<path d="M41.8564 60.795C41.8564 60.795 40.0687 61.8353 43.1302 62.1863C46.8397 62.61 48.7354 62.5493 52.8221 61.7768C52.8221 61.7768 53.8987 62.4499 55.3995 63.0334C46.2349 66.9597 34.659 62.8058 41.8564 60.795ZM40.7359 55.6707C40.7359 55.6707 38.7304 57.1553 41.7945 57.4725C45.7571 57.8817 48.8857 57.915 54.3022 56.8725C54.3022 56.8725 55.0496 57.6319 56.2267 58.0467C45.1485 61.2867 32.8095 58.3017 40.7359 55.6707V55.6707Z" fill="#0074BD"/>
<path d="M50.1758 46.9766C52.4351 49.5772 49.5833 51.9154 49.5833 51.9154C49.5833 51.9154 55.3166 48.9562 52.6841 45.249C50.2245 41.7934 48.339 40.077 58.5473 34.1565C58.5473 34.1569 42.5231 38.1577 50.1758 46.9766V46.9766Z" fill="#EA2D2E"/>
<path d="M62.2962 64.5859C62.2962 64.5859 63.6195 65.6771 60.8382 66.5205C55.5499 68.1225 38.8234 68.6055 34.1779 66.5846C32.5088 65.8579 35.64 64.8502 36.6252 64.6376C37.6523 64.4152 38.2388 64.4557 38.2388 64.4557C36.3814 63.1481 26.2339 67.0245 33.0852 68.1364C51.768 71.1649 67.1415 66.7725 62.2962 64.5859V64.5859ZM42.717 50.3602C42.717 50.3602 34.2098 52.3811 39.7047 53.1157C42.0252 53.4262 46.6489 53.355 50.9588 52.9935C54.48 52.6976 58.0137 52.0657 58.0137 52.0657C58.0137 52.0657 56.7732 52.5979 55.8747 53.2106C47.2339 55.4835 30.5457 54.4249 35.3505 52.1014C39.4125 50.1367 42.717 50.3602 42.717 50.3602V50.3602ZM57.9784 58.8904C66.7613 54.3277 62.7 49.9429 59.8654 50.5335C59.1724 50.6779 58.8615 50.8035 58.8615 50.8035C58.8615 50.8035 59.1195 50.3989 59.6115 50.2249C65.2189 48.2542 69.5307 56.0385 57.8029 59.1217C57.8029 59.121 57.9375 58.9991 57.9784 58.8904V58.8904Z" fill="#0074BD"/>
<path d="M52.6842 24.5952C52.6842 24.5952 57.5472 29.4612 48.0706 36.9413C40.4708 42.9436 46.3377 46.3651 48.0679 50.276C43.6313 46.2736 40.3771 42.7497 42.5599 39.4703C45.7654 34.6576 54.6458 32.3232 52.6842 24.5952V24.5952Z" fill="#EA2D2E"/>
<path d="M43.5803 71.258C52.0088 71.7969 64.9553 70.958 65.2616 66.9695C65.2616 66.9695 64.6725 68.4815 58.2953 69.6811C51.1005 71.0356 42.225 70.8777 36.9626 70.0089C36.9626 70.0092 38.0408 70.9017 43.5803 71.258V71.258Z" fill="#0074BD"/>
</svg>
