<svg width="96" height="96" viewBox="0 0 96 96" fill="none" xmlns="http://www.w3.org/2000/svg">
<path d="M44 2.30935C46.4752 0.880283 49.5248 0.880284 52 2.30935L85.5692 21.6905C88.0444 23.1196 89.5692 25.7606 89.5692 28.6187V67.3811C89.5692 70.2393 88.0444 72.8803 85.5692 74.3093L52 93.6905C49.5248 95.1196 46.4752 95.1196 44 93.6905L10.4308 74.3093C7.95558 72.8803 6.43079 70.2393 6.43079 67.3811V28.6187C6.43079 25.7606 7.95558 23.1196 10.4308 21.6905L44 2.30935Z" fill="white"/>
<path fill-rule="evenodd" clip-rule="evenodd" d="M84.1907 22.9024L51.5701 4.06896C49.3322 2.77689 46.575 2.77689 44.337 4.06896L11.7165 22.9024C9.47853 24.1945 8.09991 26.5824 8.09991 29.1665V66.8335C8.09991 69.4176 9.47853 71.8055 11.7165 73.0975L44.337 91.931C46.575 93.2231 49.3322 93.2231 51.5701 91.931L84.1907 73.0975C86.4286 71.8055 87.8072 69.4176 87.8072 66.8335V29.1665C87.8072 26.5824 86.4286 24.1945 84.1907 22.9024ZM53.1201 1.38436C49.923 -0.461454 45.9841 -0.461455 42.7871 1.38436L10.1665 20.2178C6.96946 22.0637 5 25.4749 5 29.1665V66.8335C5 70.5251 6.96946 73.9363 10.1665 75.7821L42.7871 94.6156C45.9841 96.4614 49.923 96.4614 53.1201 94.6156L85.7406 75.7821C88.9377 73.9363 90.9071 70.5251 90.9071 66.8335V29.1665C90.9071 25.4749 88.9377 22.0637 85.7406 20.2178L53.1201 1.38436Z" fill="#399746"/>
<path d="M34.8885 69.997C28.8698 69.9903 23.9955 65.1068 24 59.0881C24.0045 53.0694 28.8861 48.1933 34.9048 48.1956C40.9235 48.1978 45.8015 53.0776 45.8015 59.0963C45.7947 65.1186 40.9108 69.997 34.8885 69.997Z" fill="#CA3C32"/>
<path d="M61.087 69.997C55.0683 69.9903 50.194 65.1068 50.1985 59.0881C50.203 53.0694 55.0846 48.1933 61.1033 48.1956C67.122 48.1978 72 53.0776 72 59.0963C71.9932 65.1186 67.1093 69.997 61.087 69.997Z" fill="#9259A3"/>
<path d="M47.9939 47.3015C41.9736 47.3015 37.0931 42.4211 37.0931 36.4007C37.0931 30.3804 41.9736 25.5 47.9939 25.5C54.0142 25.5 58.8946 30.3804 58.8946 36.4007C58.8979 39.2928 57.7505 42.0673 55.7055 44.1123C53.6605 46.1573 50.8859 47.3047 47.9939 47.3015Z" fill="#399746"/>
</svg>
