<svg width="96" height="96" viewBox="0 0 96 96" fill="none" xmlns="http://www.w3.org/2000/svg">
<path d="M44 2.30935C46.4752 0.880283 49.5248 0.880284 52 2.30935L85.5692 21.6905C88.0444 23.1196 89.5692 25.7606 89.5692 28.6187V67.3811C89.5692 70.2393 88.0444 72.8803 85.5692 74.3093L52 93.6905C49.5248 95.1196 46.4752 95.1196 44 93.6905L10.4308 74.3093C7.95558 72.8803 6.43079 70.2393 6.43079 67.3811V28.6187C6.43079 25.7606 7.95558 23.1196 10.4308 21.6905L44 2.30935Z" fill="white"/>
<path fill-rule="evenodd" clip-rule="evenodd" d="M84.1907 22.9024L51.5701 4.06896C49.3322 2.77689 46.575 2.77689 44.337 4.06896L11.7165 22.9024C9.47853 24.1945 8.09991 26.5824 8.09991 29.1665V66.8335C8.09991 69.4176 9.47853 71.8055 11.7165 73.0975L44.337 91.931C46.575 93.2231 49.3322 93.2231 51.5701 91.931L84.1907 73.0975C86.4286 71.8055 87.8072 69.4176 87.8072 66.8335V29.1665C87.8072 26.5824 86.4286 24.1945 84.1907 22.9024ZM53.1201 1.38436C49.923 -0.461454 45.9841 -0.461455 42.7871 1.38436L10.1665 20.2178C6.96946 22.0637 5 25.4749 5 29.1665V66.8335C5 70.5251 6.96946 73.9363 10.1665 75.7821L42.7871 94.6156C45.9841 96.4614 49.923 96.4614 53.1201 94.6156L85.7406 75.7821C88.9377 73.9363 90.9071 70.5251 90.9071 66.8335V29.1665C90.9071 25.4749 88.9377 22.0637 85.7406 20.2178L53.1201 1.38436Z" fill="#FF3366"/>
<path fill-rule="evenodd" clip-rule="evenodd" d="M41.756 63.2631C38.0326 65.9918 33.0523 65.5214 30.6261 62.2079C28.2065 58.9012 29.2617 54.0083 32.9851 51.2863C36.7018 48.5576 41.6888 49.0281 44.1083 52.3348C46.5346 55.6482 45.4794 60.5411 41.756 63.2631V63.2631Z" fill="#3A3C5B"/>
<path fill-rule="evenodd" clip-rule="evenodd" d="M30.5094 62.2933C32.992 65.6837 38.0668 66.1458 41.8413 63.3797C45.616 60.6202 46.7075 55.6397 44.2249 52.2494C41.749 48.8656 36.6674 48.4035 32.8996 51.1697M41.756 63.2631L41.6705 63.1465C37.9982 65.8377 33.1126 65.359 30.7427 62.1225C28.3795 58.8928 29.3982 54.0876 33.0704 51.403L33.0706 51.4028C36.7362 48.7116 41.6285 49.1905 43.9917 52.4201L43.9917 52.4202C46.3616 55.6567 45.3428 60.4619 41.6707 63.1464L41.756 63.2631Z" fill="black"/>
<path fill-rule="evenodd" clip-rule="evenodd" d="M39.6995 33.1665C44.3302 36.5539 45.6408 42.6364 42.6231 46.7496C39.6121 50.8629 33.4153 51.4476 28.7913 48.0602C24.1606 44.6729 22.85 38.5836 25.861 34.4704C28.8787 30.3572 35.0687 29.7724 39.6995 33.1665Z" fill="black"/>
<path fill-rule="evenodd" clip-rule="evenodd" d="M28.6485 48.2551C33.3579 51.705 39.7127 51.1343 42.8179 46.8924C45.9299 42.6505 44.5582 36.4215 39.8421 32.9717C35.126 29.5151 28.7781 30.0859 25.6661 34.3276L25.666 34.3278C22.5609 38.5695 23.9323 44.8052 28.6485 48.2551ZM28.7912 48.0603L28.7912 48.0603L28.7912 48.0603C39.842 32.9716 39.8421 32.9717 39.8421 32.9717L39.842 32.9716L39.6994 33.1666C39.8421 32.9717 39.8422 32.9717 39.8422 32.9717M42.4281 46.607C39.5113 50.5915 33.4727 51.1903 28.934 47.8654L28.9339 47.8653C24.3887 44.5406 23.139 38.598 26.0557 34.6133C28.9792 30.6285 35.0112 30.0299 39.5566 33.3614L39.5568 33.3615C44.1021 36.6864 45.3516 42.6222 42.4283 46.6068L42.4281 46.607Z" fill="black"/>
<path fill-rule="evenodd" clip-rule="evenodd" d="M35.6467 43.4495C33.9127 42.0247 33.8118 39.2691 35.4249 37.3066C37.0446 35.3373 39.7599 34.8937 41.4939 36.3253C43.2346 37.7501 43.3355 40.499 41.7157 42.4683C40.1027 44.4375 37.3874 44.8744 35.6467 43.4495Z" fill="#00FF00"/>
<path fill-rule="evenodd" clip-rule="evenodd" d="M34.1949 43.0933C32.4542 41.6618 32.3533 38.9129 33.9664 36.9436C35.5861 34.9744 38.3081 34.5375 40.0422 35.9624C41.7829 37.3872 41.8837 40.1428 40.2639 42.1121C38.6509 44.0813 35.9289 44.5182 34.1949 43.0933Z" fill="black"/>
<path fill-rule="evenodd" clip-rule="evenodd" d="M34.7162 46.4216C35.6603 46.9445 36.5707 47.4487 37.4159 48.0115L38.2192 46.8051C37.3398 46.2195 36.3207 45.6537 35.3272 45.1021C34.8503 44.8373 34.3794 44.5759 33.9326 44.3171L36.6301 42.8197C36.6622 42.8019 36.6928 42.7817 36.7218 42.7593C37.888 41.8574 38.2706 40.494 38.4112 39.3083C38.4824 38.7074 38.4955 38.1146 38.502 37.6029C38.5029 37.5377 38.5036 37.4743 38.5043 37.4128C38.5095 36.9707 38.5135 36.6211 38.5444 36.3457C38.5616 36.1922 38.5294 36.0373 38.4524 35.9035C37.6794 34.56 36.7882 33.7839 35.7517 33.322C34.8 32.8979 33.7581 32.7588 32.7305 32.6215C32.6839 32.6153 32.6374 32.6091 32.5909 32.6028C32.5214 32.5935 32.451 32.5943 32.3817 32.6052C31.1637 32.7971 30.3347 33.4766 29.6585 34.2622C29.3253 34.6493 29.0155 35.0784 28.7151 35.4965C28.7027 35.5139 28.6902 35.5312 28.6777 35.5486C28.3846 35.9567 28.0953 36.3597 27.7731 36.754L27.7708 36.7568C27.3558 37.2698 27.0869 37.7732 27.0027 38.2967C26.9158 38.8374 27.0397 39.3119 27.2493 39.7305C27.4483 40.1279 27.7405 40.5046 28.0176 40.8543C28.0524 40.8982 28.0873 40.9421 28.1223 40.9861C28.3791 41.3091 28.6401 41.6374 28.8945 42.0175C29.8215 43.4059 31.3273 44.4578 32.8612 45.369C33.4878 45.7412 34.109 46.0853 34.7162 46.4216ZM32.8776 43.6779C31.6903 42.9191 30.7123 42.1301 30.0997 41.2124L30.0993 41.2118C29.8094 40.7786 29.5099 40.4021 29.2549 40.0817C29.2203 40.0382 29.1865 39.9957 29.1536 39.9542C28.8657 39.5909 28.6674 39.3253 28.5454 39.0817C28.4341 38.8593 28.4068 38.694 28.4337 38.5268C28.4633 38.3424 28.5731 38.0699 28.8966 37.6696C29.2477 37.2398 29.5606 36.8041 29.8478 36.404C29.8627 36.3832 29.8776 36.3626 29.8923 36.3421C30.1977 35.9169 30.4718 35.5391 30.7569 35.2078C31.2924 34.5857 31.8143 34.1905 32.5093 34.0543C33.587 34.1989 34.4211 34.3158 35.1618 34.6459C35.8433 34.9496 36.4778 35.4524 37.0821 36.4347C37.0622 36.733 37.0586 37.0672 37.0549 37.3983C37.0542 37.4605 37.0536 37.5226 37.0528 37.5844C37.0463 38.0919 37.0334 38.6187 36.9719 39.1377C36.8493 40.1713 36.5492 41.0357 35.8753 41.581L32.6939 43.347L32.8776 43.6779Z" fill="#0000FF"/>
<path fill-rule="evenodd" clip-rule="evenodd" d="M33.0725 41.4333C31.4729 41.4333 30.1758 40.1631 30.1758 38.5904C30.1758 37.0177 31.4729 35.7474 33.0725 35.7474C34.6721 35.7474 35.9693 37.0177 35.9693 38.5904C35.9693 40.1631 34.6721 41.4333 33.0725 41.4333Z" fill="#FF3366"/>
<path fill-rule="evenodd" clip-rule="evenodd" d="M34.3629 40.1966C33.7648 40.6872 32.8709 40.5931 32.3668 39.9815C31.8627 39.3699 31.9434 38.476 32.5483 37.9854C33.1464 37.4948 34.0403 37.5888 34.5377 38.2005C35.0418 38.8121 34.9611 39.706 34.3629 40.1966Z" fill="#0000FF"/>
<path fill-rule="evenodd" clip-rule="evenodd" d="M33.9527 46.6319C35.3132 47.0726 36.5981 47.4887 37.6643 48.1995L38.4682 46.9935C37.2182 46.1602 35.698 45.6702 34.3333 45.2304C34.0546 45.1406 33.7824 45.0528 33.5203 44.9647C31.8907 44.4167 30.6495 43.8573 29.9719 42.8454C29.7719 42.5454 29.563 42.2502 29.3556 41.9572C28.8676 41.2673 28.3882 40.5897 28.0536 39.8912C27.5911 38.9255 27.5576 38.2242 28.0299 37.6424C28.0481 37.62 28.065 37.5965 28.0804 37.572C29.3723 35.5217 30.8804 34.3154 32.6302 34.2948C33.6691 34.4346 34.683 34.7017 35.4838 35.1114C36.2443 35.5004 36.7424 35.9792 36.9603 36.5351C36.9398 36.7774 36.9279 37.0387 36.9163 37.2941C36.9112 37.4052 36.9062 37.5153 36.9005 37.6221C36.8778 38.052 36.8439 38.4779 36.764 38.8938C36.6067 39.7121 36.2784 40.4596 35.5259 41.0416C35.5245 41.0427 35.5231 41.0438 35.5217 41.0449C35.5203 41.0459 35.519 41.047 35.5177 41.0481L32.473 43.4743L33.3763 44.6078L36.417 42.1847C37.5298 41.3221 37.987 40.2095 38.1873 39.1674C38.2863 38.6524 38.3242 38.1474 38.3479 37.6986C38.355 37.5635 38.3608 37.4365 38.3663 37.3163C38.3799 37.0189 38.3916 36.7623 38.4172 36.5235C38.4277 36.4253 38.418 36.326 38.3888 36.2317C38.0402 35.1075 37.1497 34.3355 36.1439 33.821C35.1341 33.3045 33.9254 33.0022 32.7699 32.8512C32.7388 32.8471 32.7074 32.8451 32.676 32.8451C30.1705 32.8451 28.2728 34.5614 26.8762 36.7644C25.904 37.9953 26.2027 39.3819 26.7464 40.5173C27.1375 41.3339 27.7343 42.1777 28.248 42.9041C28.4368 43.171 28.6143 43.422 28.7663 43.65L28.7671 43.6511C29.7496 45.119 31.4554 45.7995 33.0583 46.3385C33.359 46.4396 33.6576 46.5363 33.9527 46.6319Z" fill="#0000FF"/>
<path fill-rule="evenodd" clip-rule="evenodd" d="M39.3231 48.3222C39.1282 48.665 38.2948 48.5507 37.4681 48.0735C36.6347 47.5963 36.1239 46.9309 36.3188 46.5882C36.5204 46.2521 37.3471 46.3597 38.1805 46.8368C39.0072 47.3208 39.5247 47.9794 39.3231 48.3222Z" fill="#0000FF"/>
<path fill-rule="evenodd" clip-rule="evenodd" d="M63.5925 51.3468C67.3092 54.0688 68.3644 58.9684 65.9381 62.2751C63.5118 65.5885 58.5316 66.059 54.8082 63.337C51.0915 60.6083 50.0363 55.7154 52.4625 52.4087C54.8888 49.0952 59.8691 48.618 63.5925 51.3468Z" fill="black"/>
<path fill-rule="evenodd" clip-rule="evenodd" d="M54.7229 63.4537C58.4974 66.213 63.5722 65.7508 66.0548 62.3604C68.5374 58.9768 67.4457 53.9896 63.678 51.2301C59.9033 48.4638 54.8286 48.933 52.346 52.3231C49.8632 55.7069 50.9551 60.6874 54.7226 63.4535L54.7229 63.4537ZM54.8937 63.2204C51.2279 60.5291 50.2094 55.7239 52.5791 52.4942L52.5792 52.494C54.9492 49.2574 59.835 48.7722 63.5071 51.4633L63.5071 51.4633C67.1727 54.1479 68.1914 58.9598 65.8216 62.1895L65.8215 62.1896C63.4516 65.4261 58.5661 65.9049 54.8937 63.2204Z" fill="black"/>
<path fill-rule="evenodd" clip-rule="evenodd" d="M48.1611 57.4629C43.8596 57.4629 40.3782 54.6804 40.3782 51.2393C40.3782 47.8048 43.8596 45.0156 48.1611 45.0156C52.4625 45.0156 55.944 47.8048 55.944 51.2393C55.944 54.6804 52.4625 57.4629 48.1611 57.4629V57.4629Z" fill="#FFFF00"/>
<path fill-rule="evenodd" clip-rule="evenodd" d="M40.0881 51.2392C40.0881 54.8978 43.7634 57.7529 48.1611 57.7529C52.5588 57.7529 56.234 54.8978 56.234 51.2392C56.234 47.5876 52.559 44.7256 48.1611 44.7256C43.7632 44.7256 40.0881 47.5876 40.0881 51.2392ZM48.1611 57.1728C43.9559 57.1728 40.6683 54.463 40.6683 51.2392C40.6683 48.022 43.9562 45.3057 48.1611 45.3057C52.366 45.3057 55.6539 48.022 55.6539 51.2392C55.6539 54.463 52.3662 57.1728 48.1611 57.1728Z" fill="black"/>
<path fill-rule="evenodd" clip-rule="evenodd" d="M42.8247 51.1653C41.1041 51.1653 39.7129 49.7673 39.7129 48.0535C39.7129 46.3329 41.1041 44.9417 42.8247 44.9417C44.5453 44.9417 45.9432 46.3329 45.9432 48.0535C45.9432 49.7673 44.5453 51.1653 42.8247 51.1653Z" fill="white"/>
<path fill-rule="evenodd" clip-rule="evenodd" d="M39.3743 48.0535C39.3743 49.9539 40.9166 51.5039 42.8247 51.5039C44.7317 51.5039 46.2818 49.9548 46.2818 48.0535C46.2818 46.145 44.7313 44.6031 42.8247 44.6031C40.9171 44.6031 39.3743 46.146 39.3743 48.0535ZM42.8247 50.8268C41.2915 50.8268 40.0514 49.5809 40.0514 48.0535C40.0514 46.5199 41.2911 45.2803 42.8247 45.2803C44.3592 45.2803 45.6046 46.5209 45.6046 48.0535C45.6046 49.5799 44.3587 50.8268 42.8247 50.8268Z" fill="black"/>
<path fill-rule="evenodd" clip-rule="evenodd" d="M67.242 48.4366C62.6448 51.8038 56.4884 51.2191 53.4976 47.1327C50.5 43.0464 51.8039 37.0042 56.401 33.6303C60.9982 30.2631 67.1546 30.8478 70.1454 34.9342C73.143 39.0272 71.8391 45.0694 67.242 48.4366V48.4366Z" fill="black"/>
<path fill-rule="evenodd" clip-rule="evenodd" d="M53.3028 47.2756C56.3878 51.4905 62.7023 52.0613 67.3848 48.6315C72.0673 45.2018 73.4321 39.0132 70.3404 34.7915C67.2554 30.5765 60.9409 30.0057 56.2584 33.4355L56.2582 33.4356C51.5761 36.8719 50.2109 43.0604 53.3028 47.2756ZM67.0993 48.2418C62.5876 51.5464 56.5892 50.9478 53.6926 46.9901L53.6924 46.9899C50.7893 43.0323 52.0319 37.1366 56.544 33.8251C61.0557 30.5206 67.0539 31.1192 69.9506 35.0769L69.9506 35.0769C72.854 39.0414 71.6111 44.9371 67.0993 48.2418Z" fill="black"/>
<path fill-rule="evenodd" clip-rule="evenodd" d="M68.2569 45.822C66.5296 47.2401 63.8277 46.7965 62.2214 44.8407C60.6151 42.8849 60.7092 40.1495 62.4365 38.7314C64.1638 37.3132 66.8656 37.7501 68.4719 39.7126C70.0783 41.6684 69.9842 44.4039 68.2569 45.822V45.822Z" fill="#00FF00"/>
<path fill-rule="evenodd" clip-rule="evenodd" d="M66.8185 45.822C65.0912 47.2401 62.3894 46.7965 60.7831 44.8407C59.1768 42.8849 59.2709 40.1495 60.9981 38.7381C62.7254 37.3199 65.4273 37.7568 67.0336 39.7126C68.6399 41.6684 68.5391 44.4039 66.8185 45.822V45.822Z" fill="black"/>
<path fill-rule="evenodd" clip-rule="evenodd" d="M58.2203 46.1819C58.0475 46.0821 57.8172 45.8853 57.4955 45.4874L57.4948 45.4866C56.1113 43.781 55.6553 41.7175 56.6277 40.2557C56.7282 40.1051 56.8206 39.9663 56.906 39.838C57.545 38.8779 57.7938 38.5042 58.1405 38.1712C58.2604 38.0561 58.3905 37.9472 58.5515 37.826L58.5496 37.8288L60.624 39.2629C61.5197 39.9556 62.447 40.8127 63.0685 41.724C63.698 42.647 63.9388 43.509 63.6998 44.2844C63.4528 45.0847 63.2463 45.3091 63.0052 45.4418C62.8544 45.5249 62.6406 45.5971 62.2985 45.6654C61.9548 45.7341 61.5338 45.7897 60.9773 45.8631C60.4046 45.9387 59.9367 46.0466 59.5599 46.1335L59.5337 46.1395C59.1333 46.2318 58.8877 46.2847 58.6783 46.2916C58.5031 46.2974 58.3714 46.2693 58.2203 46.1819ZM59.8315 36.953L61.464 38.0816C61.4744 38.0888 61.4846 38.0963 61.4947 38.104C62.4494 38.8408 63.5181 39.8108 64.2659 40.9074C65.0092 41.9972 65.511 43.3296 65.0847 44.7117L65.0847 44.7118C64.8007 45.632 64.4427 46.3049 63.7042 46.7115C63.3652 46.8981 62.9855 47.0062 62.5826 47.0867C62.1907 47.165 61.7282 47.226 61.2047 47.2951L61.1668 47.3C60.6634 47.3665 60.2522 47.4613 59.8729 47.5487L59.8593 47.5519C59.8512 47.5537 59.8432 47.5556 59.8351 47.5574C59.478 47.6398 59.0954 47.7281 58.7259 47.7402C58.3139 47.7538 57.9083 47.6756 57.495 47.4368C57.1036 47.2106 56.7426 46.8614 56.3688 46.3992C54.8088 44.4756 53.9343 41.687 55.4213 39.4524L55.4219 39.4515C55.5252 39.2968 55.6215 39.1517 55.7121 39.0153C56.3176 38.1032 56.6672 37.5766 57.1365 37.1259C57.5691 36.7104 58.1147 36.3498 59.0387 35.739C59.2407 35.6055 59.4607 35.46 59.7016 35.2994C60.8233 34.5481 62.8168 33.831 64.7187 33.8146C65.6789 33.8063 66.6689 33.9761 67.5223 34.4609C68.3937 34.9558 69.0767 35.7542 69.4329 36.904L68.0485 37.3329C67.7998 36.5302 67.3529 36.0315 66.8065 35.7212C66.2423 35.4007 65.5268 35.2571 64.7312 35.2639C63.1217 35.2778 61.4024 35.9045 60.5076 36.504L60.5062 36.5049C60.2547 36.6726 60.0312 36.8207 59.8315 36.953Z" fill="#0000FF"/>
<path fill-rule="evenodd" clip-rule="evenodd" d="M59.5667 45.1433C58.1553 45.1433 57.0194 43.9873 57.0194 42.5557C57.0194 41.1242 58.1553 39.9682 59.5667 39.9682C60.9713 39.9682 62.1072 41.1242 62.1072 42.5557C62.1072 43.9873 60.9713 45.1433 59.5667 45.1433Z" fill="#FF3366"/>
<path fill-rule="evenodd" clip-rule="evenodd" d="M60.4604 44.0409C59.8623 44.5248 58.9751 44.4307 58.4778 43.8191C57.9804 43.2142 58.0543 42.3204 58.6458 41.8364C59.2372 41.3458 60.1311 41.4466 60.6285 42.0515C61.1258 42.6631 61.0519 43.5503 60.4604 44.0409Z" fill="#0000FF"/>
<path fill-rule="evenodd" clip-rule="evenodd" d="M58.6506 46.6656C58.1873 46.6118 57.7441 46.4117 57.1326 45.6554L57.1319 45.6545C56.4666 44.8342 55.8722 43.6486 55.5925 42.4631C55.3076 41.2561 55.3826 40.2067 55.8342 39.5304L55.8343 39.5303C56.0099 39.2673 56.16 39.0401 56.291 38.8419C56.8012 38.0699 57.0212 37.737 57.3267 37.4326C57.668 37.0926 58.1026 36.8036 59.1905 36.0799C59.333 35.9852 59.4866 35.883 59.6527 35.7722L59.6541 35.7713C60.0518 35.5049 60.7452 35.2317 61.6229 35.0446C62.4882 34.8602 63.477 34.7715 64.4347 34.8355C66.4041 34.9671 67.9506 35.7027 68.4182 37.2118L69.8027 36.7829C69.0604 34.3872 66.6853 33.5333 64.5314 33.3893C63.4275 33.3155 62.3041 33.4175 61.3208 33.6271C60.3501 33.834 59.4586 34.1579 58.8482 34.5667C58.6746 34.6824 58.5122 34.7902 58.3597 34.8915C57.3282 35.5762 56.7535 35.9577 56.3038 36.4058C55.8845 36.8236 55.5627 37.3118 55.0384 38.1072C54.9145 38.2951 54.7793 38.5002 54.6289 38.7256C53.8507 39.8908 53.8584 41.4256 54.1818 42.796C54.5103 44.1878 55.1995 45.5728 56.0059 46.5671C56.7855 47.5311 57.5453 47.9962 58.4832 48.1053C58.9178 48.1559 59.3592 48.126 59.8018 48.0735C60.0378 48.0455 60.3109 48.0057 60.5943 47.9645C60.8123 47.9327 61.0363 47.9001 61.2543 47.8712M59.2507 35.1692L59.2507 35.1693L59.2507 35.1692C58.9166 46.6966 59.2255 46.6823 59.631 46.6342M59.631 46.6342C59.8649 46.6065 60.0935 46.5729 60.3483 46.5355ZM60.3483 46.5355C60.5622 46.5041 60.7947 46.47 61.0645 46.4343ZM61.6024 46.3655C61.4373 46.3863 61.2593 46.4086 61.0647 46.4343L61.0645 46.4343M61.6024 46.3655C61.9213 46.3255 62.1918 46.2915 62.439 46.2516ZM62.439 46.2516C62.8089 46.192 63.0521 46.1295 63.2307 46.0495ZM63.2307 46.0495C63.5011 45.9284 63.727 45.7311 63.9623 44.9755ZM63.9623 44.9755C64.5605 43.0412 64.1777 40.7864 62.6899 39.5766L58.6822 37.9012L59.2413 36.564L63.3411 38.2778C63.3995 38.3023 63.4545 38.3342 63.5046 38.373C65.681 40.0544 66.0696 43.068 65.3467 45.4044L65.3464 45.4056C65.0441 46.3768 64.6181 47.0162 63.8232 47.3722C63.4692 47.5308 63.0764 47.617 62.6696 47.6826C62.3977 47.7264 62.0857 47.7656 61.7494 47.8079C61.5894 47.828 61.4239 47.8489 61.2546 47.8712" fill="#0000FF"/>
<path fill-rule="evenodd" clip-rule="evenodd" d="M53.1279 51.1653C51.4074 51.1653 50.0094 49.7673 50.0094 48.0535C50.0094 46.3329 51.4074 44.9417 53.1279 44.9417C54.8485 44.9417 56.2397 46.3329 56.2397 48.0535C56.2397 49.7673 54.8485 51.1653 53.1279 51.1653V51.1653Z" fill="white"/>
<path fill-rule="evenodd" clip-rule="evenodd" d="M49.6708 48.0535C49.6708 49.9548 51.2208 51.5039 53.1279 51.5039C55.0359 51.5039 56.5783 49.9539 56.5783 48.0535C56.5783 46.146 55.0354 44.6031 53.1279 44.6031C51.2213 44.6031 49.6708 46.145 49.6708 48.0535ZM53.1279 50.8268C51.5938 50.8268 50.3479 49.5799 50.3479 48.0535C50.3479 46.5209 51.5933 45.2803 53.1279 45.2803C54.6615 45.2803 55.9011 46.5199 55.9011 48.0535C55.9011 49.5809 54.661 50.8268 53.1279 50.8268Z" fill="black"/>
<path fill-rule="evenodd" clip-rule="evenodd" d="M42.9188 49.5994C42.0585 49.5994 41.3595 48.9004 41.3595 48.0401C41.3595 47.1798 42.0585 46.4808 42.9188 46.4808C43.7791 46.4808 44.4713 47.1798 44.4713 48.0401C44.4713 48.9004 43.7791 49.5994 42.9188 49.5994Z" fill="black"/>
<path fill-rule="evenodd" clip-rule="evenodd" d="M53.2421 49.4246C52.3751 49.4246 51.6829 48.7256 51.6829 47.872C51.6829 47.0117 52.3751 46.3195 53.2421 46.3195C54.1024 46.3195 54.7947 47.0117 54.7947 47.872C54.7947 48.7256 54.1024 49.4246 53.2421 49.4246Z" fill="black"/>
<path fill-rule="evenodd" clip-rule="evenodd" d="M46.5432 53.965C46.0675 53.6097 45.8933 53.2526 45.9365 52.9551L45.0763 52.8302C44.9649 53.598 45.4484 54.2322 46.0231 54.6614C46.6118 55.101 47.4003 55.4132 48.1656 55.5417C48.9183 55.6681 49.7367 55.6309 50.3367 55.2644C50.6475 55.0746 50.8968 54.7968 51.031 54.4239C51.1587 54.0691 51.1707 53.6605 51.0758 53.2088V53.0741H50.2066V53.2556C50.2066 53.2878 50.2102 53.3198 50.2172 53.3512C50.2975 53.7067 50.2754 53.9567 50.2131 54.1296C50.1528 54.2972 50.0434 54.425 49.8836 54.5226C49.5424 54.731 48.9726 54.7958 48.3096 54.6845C47.6593 54.5753 47.0049 54.3098 46.5432 53.965Z" fill="#FF3366"/>
<path fill-rule="evenodd" clip-rule="evenodd" d="M46.9052 43.0794C46.8582 43.7114 46.8092 44.3712 46.8556 44.9873L47.5308 44.9364C47.4883 44.3727 47.5314 43.7966 47.5767 43.1892C47.5974 42.9129 47.6185 42.6301 47.6322 42.339C47.6747 41.4416 47.641 40.5005 47.2192 39.6396L46.5712 38.0963C46.5217 37.9785 46.41 37.8985 46.2825 37.8897C46.1549 37.8808 46.0333 37.9445 45.968 38.0544L45.1211 39.4793C45.0649 39.5739 45.0582 39.69 45.1031 39.7905C45.1481 39.891 45.2391 39.9634 45.3471 39.9845L45.999 40.1122L46.1292 39.4477L45.9486 39.4123L46.2069 38.9778L46.5988 39.9111C46.6015 39.9174 46.6043 39.9237 46.6074 39.9298C46.9541 40.6323 46.9973 41.4317 46.9559 42.307C46.9441 42.5561 46.9248 42.8154 46.9052 43.0794Z" fill="black"/>
<path fill-rule="evenodd" clip-rule="evenodd" d="M48.7029 43.1847C48.7494 43.7939 48.7935 44.3715 48.7509 44.9364L49.4262 44.9873C49.4728 44.3692 49.4224 43.7074 49.3742 43.0738C49.3543 42.8114 49.3347 42.5539 49.3225 42.3064C49.2795 41.431 49.3212 40.632 49.6677 39.9298C49.6708 39.9237 49.6736 39.9174 49.6763 39.9111L50.0682 38.9778L50.3264 39.4123L50.1459 39.4477L50.276 40.1122L50.928 39.9845C51.036 39.9634 51.127 39.891 51.172 39.7905C51.2169 39.69 51.2102 39.5739 51.1539 39.4793L50.3071 38.0544C50.2418 37.9445 50.1201 37.8808 49.9926 37.8897C49.865 37.8985 49.7534 37.9785 49.7039 38.0963L49.0558 39.6396C48.6339 40.5009 48.6021 41.4424 48.6462 42.3397C48.6604 42.6289 48.6819 42.91 48.7029 43.1847Z" fill="black"/>
<path fill-rule="evenodd" clip-rule="evenodd" d="M33.4825 61.6768C31.6948 60.2049 31.6343 57.3216 33.3481 55.2246C35.0687 53.1344 37.9117 52.6303 39.7062 54.1022C41.4939 55.5741 41.5544 58.4574 39.8339 60.5476C38.12 62.6446 35.277 63.1487 33.4825 61.6768V61.6768Z" fill="#FF3366"/>
<path fill-rule="evenodd" clip-rule="evenodd" d="M46.8382 59.459L47.8988 61.218L47.402 61.5176L46.2997 59.6895C46.2725 59.6443 46.2581 59.5925 46.2581 59.5397V57.5301H46.8382V59.459Z" fill="black"/>
<path fill-rule="evenodd" clip-rule="evenodd" d="M49.2913 59.4656L50.3519 61.2246L49.8551 61.5242L48.7528 59.6961C48.7256 59.6509 48.7112 59.5991 48.7112 59.5463V57.53H49.2913V59.4656Z" fill="black"/>
<path fill-rule="evenodd" clip-rule="evenodd" d="M35.5795 59.291C34.773 58.6323 34.9007 57.1403 35.8685 55.9641C36.8363 54.7812 38.2679 54.3645 39.0811 55.0299C39.8809 55.6885 39.7532 57.1806 38.7921 58.3635C37.8243 59.5396 36.386 59.9563 35.5795 59.291Z" fill="#0000FF"/>
<path fill-rule="evenodd" clip-rule="evenodd" d="M62.7523 61.6836C60.9578 63.1555 58.1148 62.6514 56.3943 60.5545C54.6804 58.4642 54.7409 55.5742 56.5287 54.1091C58.3232 52.6372 61.1662 53.1412 62.8867 55.2315C64.6006 57.3284 64.5401 60.2117 62.7523 61.6836V61.6836Z" fill="#FF3366"/>
<path fill-rule="evenodd" clip-rule="evenodd" d="M60.4134 59.4792C59.6069 60.1379 58.1686 59.7212 57.2075 58.5517C56.2397 57.3755 56.112 55.8835 56.9252 55.2248C57.725 54.5595 59.1633 54.9762 60.1311 56.1523C61.0922 57.3218 61.2199 58.8138 60.4134 59.4792Z" fill="#0000FF"/>
<path d="M66.1786 51.0415H65.9329V51.723H65.8326V51.0415H65.5874V50.9585H66.1786V51.0415Z" fill="#808080"/>
<path d="M66.4223 50.9585L66.6722 51.5823L66.9221 50.9585H67.0529V51.723H66.9521V51.4253L66.9615 51.1039L66.7105 51.723H66.6334L66.3829 51.1055L66.3929 51.4253V51.723H66.2921V50.9585H66.4223Z" fill="#808080"/>
<path fill-rule="evenodd" clip-rule="evenodd" d="M69.8632 38.2878C69.4532 38.5701 68.566 37.9988 67.8738 37.0041C67.1748 36.0161 66.9463 34.981 67.3495 34.6988C67.7528 34.4165 68.6467 34.9878 69.3389 35.9825C70.0312 36.9705 70.2664 38.0055 69.8632 38.2878Z" fill="#0000FF"/>
</svg>
