<svg width="96" height="96" viewBox="0 0 96 96" fill="none" xmlns="http://www.w3.org/2000/svg">
<path d="M44 2.30935C46.4752 0.880283 49.5248 0.880284 52 2.30935L85.5692 21.6905C88.0444 23.1196 89.5692 25.7606 89.5692 28.6187V67.3811C89.5692 70.2393 88.0444 72.8803 85.5692 74.3093L52 93.6905C49.5248 95.1196 46.4752 95.1196 44 93.6905L10.4308 74.3093C7.95557 72.8803 6.43078 70.2393 6.43078 67.3811V28.6187C6.43078 25.7606 7.95557 23.1196 10.4308 21.6905L44 2.30935Z" fill="white"/>
<path fill-rule="evenodd" clip-rule="evenodd" d="M84.1907 22.9024L51.5701 4.06896C49.3322 2.77689 46.575 2.77689 44.337 4.06896L11.7165 22.9024C9.47853 24.1945 8.09991 26.5824 8.09991 29.1665V66.8335C8.09991 69.4176 9.47853 71.8055 11.7165 73.0975L44.337 91.931C46.575 93.2231 49.3322 93.2231 51.5701 91.931L84.1907 73.0975C86.4286 71.8055 87.8072 69.4176 87.8072 66.8335V29.1665C87.8072 26.5824 86.4286 24.1945 84.1907 22.9024ZM53.1201 1.38436C49.923 -0.461454 45.9841 -0.461455 42.7871 1.38436L10.1665 20.2178C6.96946 22.0637 5 25.4749 5 29.1665V66.8335C5 70.5251 6.96946 73.9363 10.1665 75.7821L42.7871 94.6156C45.9841 96.4614 49.923 96.4614 53.1201 94.6156L85.7406 75.7821C88.9377 73.9363 90.9071 70.5251 90.9071 66.8335V29.1665C90.9071 25.4749 88.9377 22.0637 85.7406 20.2178L53.1201 1.38436Z" fill="#505E9C"/>
<g clip-path="url(#clip0)">
<path d="M30.6793 36.0173C30.6793 36.0173 33.0058 33.4631 34.6171 32.4045C35.1305 32.0675 38.9488 30.0747 41.4008 36.9335C42.7422 40.6889 42.7646 43.4864 39.7155 44.6794C37.8897 45.394 38.5422 46.7317 38.5422 46.7317" fill="url(#paint0_linear)"/>
<path d="M34.3943 32.0934C32.7597 33.1672 30.4778 35.664 30.3816 35.7695C30.2389 35.9265 30.2556 36.1652 30.4199 36.3018C30.5838 36.4382 30.8328 36.4225 30.9757 36.2653C30.9989 36.2398 33.2889 33.7342 34.8404 32.7153C34.8869 32.6843 36.0187 31.9579 37.3971 32.395C38.8467 32.8548 40.1025 34.4666 41.0277 37.0556C42.5005 41.1777 42.0637 43.354 39.5667 44.3302C38.8463 44.6128 38.372 45.0211 38.1575 45.5463C37.8744 46.2391 38.1726 46.8647 38.1855 46.8915C38.2765 47.0792 38.5079 47.1589 38.7045 47.0729C38.9015 46.9878 38.989 46.765 38.9011 46.5758C38.8997 46.5722 38.7312 46.2011 38.8954 45.8123C39.0304 45.4914 39.3565 45.2271 39.8649 45.0287C43.6319 43.5542 42.8634 39.8628 41.7731 36.8111C40.7506 33.9504 39.362 32.2243 37.6455 31.6793C35.9296 31.1349 34.546 31.9943 34.3943 32.0934" fill="#363254"/>
<path d="M61.9653 37.4964H66.8516C67.2616 37.4964 67.5937 37.7661 67.5937 38.0979C67.5937 38.4298 67.2616 38.699 66.8516 38.699H63.0164L61.9653 37.4964" fill="url(#paint1_linear)"/>
<path d="M66.8516 37.8734C67.0567 37.8734 67.1993 37.9919 67.1993 38.098C67.1993 38.2039 67.0567 38.3224 66.8516 38.3224C66.8516 38.3224 63.5348 38.3224 63.2006 38.3224C63.122 38.2331 63.0046 38.0975 62.8085 37.8734C63.9633 37.8734 66.8516 37.8734 66.8516 37.8734ZM61.1225 37.1196L62.8322 39.0764H66.8516C67.4784 39.0764 67.9877 38.6375 67.9877 38.098C67.9877 37.5583 67.4784 37.1196 66.8516 37.1196H61.1225Z" fill="#363254"/>
<path d="M68.3637 36.0984C69.0355 35.781 69.8206 35.8587 70.1192 36.2717C70.4163 36.6858 70.113 37.2772 69.4413 37.5959C68.7708 37.913 67.013 38.2965 66.715 37.8819C66.4166 37.4689 67.693 36.4157 68.3637 36.0984Z" fill="#8B9DD7"/>
<path d="M68.5378 36.4363C69.059 36.1902 69.6311 36.2596 69.7944 36.486C69.8397 36.5494 69.8503 36.6222 69.8266 36.7093C69.7845 36.8665 69.6149 37.093 69.2661 37.2584C68.6183 37.5644 67.468 37.744 67.1126 37.6573C67.2438 37.3651 67.9633 36.7084 68.5378 36.4363V36.4363ZM68.1892 35.7607C67.6274 36.0258 66.4849 36.8708 66.3042 37.5388L66.3909 38.0958C66.9306 38.8478 69.1082 38.174 69.6158 37.9336C70.1215 37.6942 70.4764 37.3169 70.5897 36.8984C70.6707 36.6002 70.6188 36.3019 70.4434 36.0581C70.0319 35.4879 69.0424 35.3574 68.1892 35.7607Z" fill="#363254"/>
<path d="M69.5572 38.5386C70.2775 38.7771 70.6786 39.3294 70.4564 39.7728C70.2321 40.2167 69.468 40.3815 68.7482 40.1423C68.0296 39.9044 66.5842 39.0071 66.8073 38.5643C67.0314 38.1194 68.8386 38.3001 69.5572 38.5386" fill="#8B9DD7"/>
<path d="M69.6867 38.1829H69.686H69.6867ZM69.4281 38.8946H69.4285C69.8154 39.0234 70.0272 39.2375 70.0959 39.3955C70.1482 39.5161 70.1128 39.587 70.1008 39.6101C69.9824 39.8453 69.4332 39.9707 68.8774 39.7863C68.2422 39.5761 67.3883 38.984 67.2274 38.7116C67.5254 38.6126 68.7332 38.6639 69.4281 38.8946H69.4281ZM66.4525 38.4008L66.4529 38.9477C66.7303 39.587 68.0105 40.2972 68.6195 40.499C69.5354 40.8035 70.4987 40.5565 70.8111 39.9377C70.8775 39.8041 70.9107 39.6609 70.9107 39.5156C70.9107 39.3786 70.8816 39.2402 70.8229 39.1047C70.6464 38.6991 70.2322 38.3636 69.686 38.1829C69.1412 38.0017 66.8642 37.5829 66.4525 38.4008" fill="#363254"/>
<path d="M69.6625 37.1722C70.7312 37.1653 71.6018 37.5473 71.6058 38.0263C71.6111 38.5051 70.7496 38.8986 69.6804 38.9055C68.6133 38.9127 66.1949 38.5417 66.19 38.0633C66.1851 37.5838 68.5952 37.1802 69.6625 37.1722" fill="#8B9DD7"/>
<path d="M71.2117 38.0297C71.2117 38.048 71.1946 38.0836 71.1467 38.1302C70.9536 38.3186 70.4108 38.5235 69.678 38.5282C68.7615 38.5343 67.3119 38.2877 66.7541 38.0588C67.3079 37.8214 68.7504 37.5553 69.6656 37.5491H69.6652C70.6772 37.5424 71.2108 37.9031 71.2117 38.0297H71.2117ZM69.6601 36.7948H69.6596C68.8832 36.8004 66.5776 37.0716 65.9861 37.6465L65.7961 38.0669C65.8071 39.1752 69.6444 39.2825 69.6832 39.2825C70.5432 39.2766 71.3196 39.0379 71.709 38.659C71.9021 38.4713 72.0025 38.2516 71.9999 38.0223C71.9939 37.303 71.0097 36.7865 69.6601 36.7948" fill="#363254"/>
<path d="M44.9505 49.4574V59.1385C44.9505 61.5256 42.5624 62.3811 39.6172 62.3811C36.6715 62.3811 34.2845 61.5256 34.2845 59.1385V49.3432" fill="url(#paint2_linear)"/>
<path d="M33.8905 49.3432V59.1385C33.8905 61.473 35.9238 62.7582 39.6172 62.7582C43.3105 62.7582 45.3445 61.473 45.3445 59.1385V49.4574C45.3445 49.2491 45.168 49.0801 44.9505 49.0801C44.7328 49.0801 44.5565 49.2491 44.5565 49.4574V59.1385C44.5565 61.5071 41.8709 62.004 39.6172 62.004C37.3643 62.004 34.6787 61.5071 34.6787 59.1385V49.3432C34.6787 49.1352 34.5021 48.9663 34.2845 48.9663C34.0671 48.9663 33.8905 49.1352 33.8905 49.3432" fill="#363254"/>
<path d="M36.6218 59.127C36.6218 60.0927 36.0574 60.8778 35.3609 60.8778C34.6642 60.8778 34.0997 60.0927 34.0997 59.127C34.0997 58.1595 34.6642 55.9751 35.3609 55.9751C36.0574 55.9751 36.6218 58.1595 36.6218 59.127" fill="#8B9DD7"/>
<path d="M34.2312 59.1269C34.2312 58.0748 34.8293 56.1006 35.3609 56.1006C35.8922 56.1006 36.4905 58.0748 36.4905 59.1269C36.4905 60.0234 35.984 60.7523 35.3609 60.7523C34.7381 60.7523 34.2312 60.0234 34.2312 59.1269ZM33.9682 59.1269C33.9682 60.1617 34.5927 61.0038 35.3609 61.0038C36.1287 61.0038 36.753 60.1617 36.753 59.1269C36.753 58.1818 36.1983 55.8489 35.3609 55.8489C34.5236 55.8489 33.9682 58.1818 33.9682 59.1269Z" fill="#363254"/>
<path d="M34.4394 59.3014C34.4394 58.3711 35.1219 56.6962 35.6201 56.6962C35.6679 56.6962 35.7146 56.7199 35.7597 56.7559C35.6352 56.461 35.4925 56.2659 35.3413 56.2659C34.8428 56.2659 34.4394 58.3715 34.4394 59.3014Z" fill="#A6BDE6"/>
<path d="M37.2165 60.057C37.2165 60.8032 36.7678 61.4083 36.2139 61.4083C35.6594 61.4083 35.2101 60.8032 35.2101 60.057C35.2101 59.3087 35.6594 57.6233 36.2139 57.6233C36.7678 57.6233 37.2165 59.3087 37.2165 60.057Z" fill="#8B9DD7"/>
<path d="M35.3413 60.057C35.3413 59.2749 35.8126 57.7492 36.2139 57.7492C36.6152 57.7492 37.085 59.2749 37.085 60.057C37.085 60.7326 36.694 61.2826 36.2139 61.2826C35.7325 61.2826 35.3413 60.7326 35.3413 60.057ZM35.0787 60.057C35.0787 60.8712 35.588 61.5341 36.2139 61.5341C36.8388 61.5341 37.3479 60.8712 37.3479 60.057C37.3479 59.42 36.9455 57.4976 36.2139 57.4976C35.4811 57.4976 35.0787 59.42 35.0787 60.057Z" fill="#363254"/>
<path d="M35.6319 59.6126C35.5814 59.0808 36.0517 58.1982 36.4181 58.1337C36.4524 58.1292 36.4877 58.1373 36.5227 58.152C36.4154 57.9991 36.2938 57.8773 36.1897 57.925C35.8271 58.0969 35.5814 59.0826 35.6319 59.6126" fill="#A6BDE6"/>
<path d="M61.2664 49.5756V59.2564C61.2664 61.6439 58.8785 62.499 55.9331 62.499C52.9876 62.499 50.5997 61.6439 50.5997 59.2564V49.4614" fill="url(#paint3_linear)"/>
<path d="M50.2055 49.4615V59.2566C50.2055 61.5906 52.2397 62.8762 55.9331 62.8762C57.5955 62.8762 58.9286 62.6159 59.8956 62.1028C61.05 61.4899 61.6604 60.5059 61.6604 59.2566V49.5757C61.6604 49.3675 61.4839 49.1988 61.2664 49.1988C61.0489 49.1988 60.8728 49.3675 60.8728 49.5757V59.2566C60.8728 60.2429 60.4277 60.958 59.5129 61.4438C58.6761 61.8874 57.4385 62.1221 55.9331 62.1221C53.6798 62.1221 50.9941 61.6245 50.9941 59.2566V49.4615C50.9941 49.253 50.8172 49.0842 50.5997 49.0842C50.3822 49.0842 50.2055 49.253 50.2055 49.4615" fill="#363254"/>
<path d="M52.9375 59.2448C52.9375 60.2105 52.3734 60.9969 51.677 60.9969C50.9793 60.9969 50.4153 60.2105 50.4153 59.2448C50.4153 58.2778 50.9793 56.0933 51.677 56.0933C52.3734 56.0933 52.9375 58.2778 52.9375 59.2448Z" fill="#7483CA"/>
<path d="M50.5463 59.2447C50.5463 58.7509 50.6959 57.9698 50.9095 57.3457C51.1473 56.6507 51.4414 56.2187 51.677 56.2187C52.208 56.2187 52.8064 58.1928 52.8064 59.2447C52.8064 60.1415 52.2998 60.8708 51.677 60.8708C51.0534 60.8708 50.5463 60.1415 50.5463 59.2447ZM50.6598 57.2675C50.4383 57.9138 50.2836 58.7272 50.2836 59.2447C50.2836 60.2798 50.9086 61.1223 51.677 61.1223C52.4446 61.1223 53.0689 60.2798 53.0689 59.2447C53.0689 58.2995 52.5142 55.9675 51.677 55.9675C51.2037 55.9675 50.8627 56.674 50.6598 57.2675" fill="#363254"/>
<path d="M50.7558 59.4207C50.7558 58.49 51.4378 56.814 51.936 56.814C51.9839 56.814 52.0305 56.8384 52.0757 56.8738C51.9507 56.5795 51.8084 56.384 51.6574 56.384C51.1585 56.384 50.7558 58.49 50.7558 59.4207" fill="#839AD6"/>
<path d="M53.5326 60.1748C53.5326 60.9221 53.0842 61.5258 52.5297 61.5258C51.9757 61.5258 51.5265 60.9221 51.5265 60.1748C51.5265 59.4266 51.9757 57.7415 52.5297 57.7415C53.0842 57.7415 53.5326 59.4266 53.5326 60.1748Z" fill="#7483CA"/>
<path d="M51.658 60.1747C51.658 59.3925 52.1283 57.8672 52.5296 57.8672C52.9304 57.8672 53.4011 59.3925 53.4011 60.1747C53.4011 60.8504 53.01 61.4006 52.5296 61.4006C52.0487 61.4006 51.658 60.8504 51.658 60.1747ZM51.3953 60.1747C51.3953 60.9897 51.9041 61.6517 52.5296 61.6517C53.1552 61.6517 53.6639 60.9897 53.6639 60.1747C53.6639 59.5378 53.2614 57.6157 52.5296 57.6157C51.7974 57.6157 51.3953 59.5378 51.3953 60.1747Z" fill="#363254"/>
<path d="M51.9482 59.7306C51.897 59.1994 52.3675 58.3169 52.734 58.2521C52.7686 58.2474 52.804 58.2551 52.8386 58.27C52.7313 58.1171 52.6098 57.9951 52.5056 58.043C52.1427 58.2148 51.897 59.2004 51.9482 59.7306Z" fill="#839AD6"/>
<path d="M40.4636 36.2354C42.5407 39.5852 42.3194 42.4149 39.5518 43.8983C37.8948 44.7869 38.807 45.9587 38.807 45.9587" fill="url(#paint4_linear)"/>
<path d="M40.2627 35.9109C40.0752 36.0174 40.0131 36.2488 40.1246 36.4279C41.2809 38.2915 41.6947 39.9794 41.3219 41.308C41.0568 42.2524 40.3958 43.0132 39.3595 43.5695C38.7044 43.9204 38.3137 44.363 38.1975 44.8845C38.0394 45.5931 38.4727 46.1602 38.4913 46.1839C38.6205 46.3499 38.8643 46.3836 39.0392 46.2616C39.2136 46.1395 39.2517 45.904 39.1253 45.736C39.1234 45.7328 38.8832 45.4066 38.9698 45.0348C39.0392 44.7374 39.2999 44.4658 39.7443 44.2273C40.9738 43.5679 41.7609 42.652 42.0832 41.5033C42.5121 39.9738 42.0698 38.0856 40.8023 36.0428C40.6915 35.8636 40.4492 35.8049 40.2627 35.9109" fill="#080604"/>
<path d="M52.5974 33.8608C52.5974 33.8608 49.1488 33.8205 36.5484 34.2346C23.9487 34.6485 24.4137 39.1299 24.3941 45.5656V61.0453C24.3941 62.3547 25.538 62.8828 26.9493 62.8828C28.3605 62.8828 29.5061 62.3547 29.5061 61.0453C29.5061 61.0453 29.8314 56.6222 30.1124 53.9315C30.7408 44.1567 42.6373 55.5388 51.2853 55.0076C59.1438 54.5245 65.3325 51.834 65.3325 45.44C65.3325 39.0446 61.2768 33.8608 52.5974 33.8608" fill="url(#paint5_linear)"/>
<path d="M24.7881 61.0452V45.5654C24.7881 45.5669 24.7891 44.8834 24.7891 44.8834C24.7913 38.9304 24.793 34.9976 36.5616 34.611C48.9987 34.2026 52.5579 34.237 52.5927 34.2371H52.5974C56.5599 34.2371 59.7889 35.37 61.9351 37.5128C63.9001 39.4739 64.9385 42.215 64.9385 45.4399C64.9385 52.3414 57.5001 54.2476 51.2602 54.6313C47.976 54.8326 44.1022 53.222 40.6844 51.8006C36.8532 50.2078 33.5446 48.8323 31.5075 50.0264C30.4316 50.6569 29.8468 51.9267 29.7194 53.9082C29.4425 56.5588 29.116 60.9738 29.113 61.0188C29.1121 62.3157 27.757 62.5058 26.9493 62.5058C26.1424 62.5058 24.7881 62.3157 24.7881 61.0452H24.7881ZM36.5351 33.8579C24.005 34.2693 24.0028 38.7212 24.001 44.8828L24 45.5644V61.0452C24 62.4317 25.1027 63.2605 26.9493 63.2605C28.7976 63.2605 29.9002 62.4317 29.9002 61.0452C29.9025 61.0269 30.2274 56.6226 30.5047 53.9686C30.6163 52.2364 31.0788 51.1623 31.9191 50.6692C33.6071 49.6804 36.8913 51.0461 40.3702 52.4924C43.87 53.9476 47.8363 55.5972 51.3106 55.3837C60.607 54.8118 65.7266 51.2805 65.7266 45.4399C65.7266 42.0171 64.6121 39.0957 62.5042 36.9908C60.2059 34.6964 56.78 33.4834 52.5974 33.4834H52.6022C52.5677 33.4829 48.9998 33.4474 36.5351 33.8579" fill="#363254"/>
<path d="M24.7379 45.99C24.7513 47.4437 24.5452 60.1413 25.3537 60.9038C25.0997 60.3415 25.6555 48.0401 25.6483 47.267L25.6409 46.8146C25.6409 46.5992 25.6409 46.3869 25.6409 46.1755C25.3292 46.0613 25.0267 45.9209 24.7347 45.7603L24.7379 45.99Z" fill="url(#paint6_linear)"/>
<path d="M52.5927 34.2864C52.5927 34.2864 49.2189 34.247 36.8904 34.6521C24.5625 35.0572 24.7517 39.5626 24.7517 45.6196L24.7543 45.8437C25.0396 46.0043 25.3353 46.1447 25.6388 46.259C25.6416 40.5267 25.8874 36.3207 37.778 35.9301C50.106 35.525 53.4809 35.5644 53.4809 35.5644C58.1955 35.5644 61.4413 37.1431 63.4621 39.6063C61.6016 36.4188 58.079 34.2864 52.5927 34.2864" fill="url(#paint7_linear)"/>
<path d="M48.2988 53.8989V60.7932C48.2988 63.1803 45.9101 64.0376 42.9648 64.0376C40.0194 64.0376 37.632 63.1803 37.632 60.7932V50.2996" fill="url(#paint8_linear)"/>
<path d="M37.238 50.2995V60.7931C37.238 63.1283 39.2723 64.4142 42.9648 64.4142C46.6585 64.4142 48.693 63.1283 48.693 60.7931V53.8988C48.693 53.6906 48.5161 53.5217 48.2988 53.5217C48.0815 53.5217 47.9048 53.6906 47.9048 53.8988V60.7931C47.9048 63.163 45.2187 63.6603 42.9648 63.6603C40.7121 63.6603 38.0261 63.163 38.0261 60.7931V50.2995C38.0261 50.0914 37.8495 49.9226 37.632 49.9226C37.4144 49.9226 37.238 50.0914 37.238 50.2995" fill="#363254"/>
<path d="M40.9868 61.4619C40.9868 62.3599 40.2338 63.0881 39.304 63.0881C38.3742 63.0881 37.6208 62.3599 37.6208 61.4619C37.6208 60.5628 38.3742 58.5334 39.304 58.5334C40.2338 58.5334 40.9868 60.5628 40.9868 61.4619Z" fill="#8B9DD7"/>
<path d="M37.7523 61.4619C37.7523 60.5865 38.5025 58.6587 39.304 58.6587C40.1055 58.6587 40.8557 60.5865 40.8557 61.4619C40.8557 62.2897 40.1601 62.9626 39.304 62.9626C38.4489 62.9626 37.7523 62.2897 37.7523 61.4619ZM37.4893 61.4619C37.4893 62.4278 38.3034 63.2139 39.304 63.2139C40.3047 63.2139 41.1186 62.4278 41.1186 61.4619C41.1186 60.5511 40.3528 58.407 39.304 58.407C38.256 58.407 37.4893 60.5511 37.4893 61.4619Z" fill="#363254"/>
<path d="M37.9082 61.5695C37.9082 60.7653 38.8506 59.3206 39.54 59.3206C39.6057 59.3206 39.6694 59.3412 39.7331 59.3726C39.5594 59.1186 39.3634 58.9495 39.1552 58.9495C38.4654 58.9495 37.9082 60.7664 37.9082 61.5695Z" fill="#A6BDE6"/>
<path d="M42.358 61.589C42.358 62.7734 41.578 63.7371 40.6157 63.7371C39.652 63.7371 38.872 62.7734 38.872 61.589C38.872 60.403 39.652 57.7249 40.6157 57.7249C41.578 57.7249 42.358 60.403 42.358 61.589Z" fill="#8B9DD7"/>
<path d="M39.0032 61.5891C39.0032 60.4211 39.7832 57.8504 40.6157 57.8504C41.4481 57.8504 42.2269 60.4211 42.2269 61.5891C42.2269 62.7039 41.5043 63.6113 40.6157 63.6113C39.7269 63.6113 39.0032 62.7039 39.0032 61.5891ZM38.7406 61.5891C38.7406 62.8427 39.5819 63.863 40.6157 63.863C41.6491 63.863 42.4896 62.8427 42.4896 61.5891C42.4896 60.3987 41.6982 57.5996 40.6157 57.5996C39.5328 57.5996 38.7406 60.3987 38.7406 61.5891" fill="#363254"/>
<path d="M39.3419 61.8038C39.3419 60.6617 40.2851 58.6092 40.9738 58.6092C41.0394 58.6092 41.1041 58.6389 41.1668 58.6826C40.9943 58.3202 40.797 58.0813 40.589 58.0813C39.8992 58.0813 39.3419 60.6634 39.3419 61.8038" fill="#A6BDE6"/>
<path d="M43.2727 62.227C43.2727 63.0654 42.7113 63.745 42.0184 63.745C41.3259 63.745 40.7644 63.0654 40.7644 62.227C40.7644 61.3844 41.3259 59.4895 42.0184 59.4895C42.7113 59.4895 43.2727 61.3844 43.2727 62.227Z" fill="#8B9DD7"/>
<path d="M40.8957 62.2268C40.8957 61.3187 41.4912 59.6149 42.0184 59.6149C42.5469 59.6149 43.1413 61.3187 43.1413 62.2268C43.1413 62.995 42.638 63.6189 42.0184 63.6189C41.3995 63.6189 40.8957 62.995 40.8957 62.2268ZM40.633 62.2268C40.633 63.1332 41.255 63.8706 42.0184 63.8706C42.7832 63.8706 43.4038 63.1332 43.4038 62.2268C43.4038 61.4013 42.8519 59.3638 42.0184 59.3638C41.1853 59.3638 40.633 61.4013 40.633 62.2268" fill="#363254"/>
<path d="M41.2919 61.7261C41.2283 61.1274 41.8161 60.1347 42.2741 60.063C42.3172 60.0561 42.3611 60.0663 42.4054 60.0827C42.271 59.9102 42.119 59.7734 41.9889 59.8278C41.5351 60.0211 41.2283 61.1294 41.2919 61.7261" fill="#A6BDE6"/>
<path d="M64.6201 49.1612V60.5236C64.6201 62.9106 62.2317 63.7673 59.2863 63.7673C56.3406 63.7673 53.9536 62.9106 53.9536 60.5236V53.9952" fill="url(#paint9_linear)"/>
<path d="M64.2256 49.1611V60.5236C64.2256 62.8932 61.5394 63.3902 59.2863 63.3902C57.0337 63.3902 54.3478 62.8932 54.3478 60.5236V53.9952C54.3478 53.787 54.1713 53.6179 53.9536 53.6179C53.7361 53.6179 53.5596 53.787 53.5596 53.9952V60.5236C53.5596 62.8585 55.5934 64.1447 59.2863 64.1447C62.9796 64.1447 65.0138 62.8585 65.0138 60.5236V49.1611C65.0138 48.9528 64.8376 48.7844 64.6201 48.7844C64.4023 48.7844 64.2256 48.9528 64.2256 49.1611" fill="#363254"/>
<path d="M57.3086 61.1922C57.3086 62.0896 56.5552 62.8178 55.6254 62.8178C54.6957 62.8178 53.9425 62.0896 53.9425 61.1922C53.9425 60.2932 54.6957 58.2634 55.6254 58.2634C56.5552 58.2634 57.3086 60.2932 57.3086 61.1922Z" fill="#8B9DD7"/>
<path d="M54.074 61.1921C54.074 60.3163 54.8239 58.3894 55.6254 58.3894C56.4273 58.3894 57.1774 60.3163 57.1774 61.1921C57.1774 62.0192 56.481 62.6926 55.6254 62.6926C54.77 62.6926 54.074 62.0192 54.074 61.1921V61.1921ZM53.8111 61.1921C53.8111 62.1579 54.6248 62.9439 55.6254 62.9439C56.626 62.9439 57.4399 62.1579 57.4399 61.1921C57.4399 60.2811 56.6739 58.1377 55.6254 58.1377C54.5773 58.1377 53.8111 60.2811 53.8111 61.1921Z" fill="#363254"/>
<path d="M54.2298 61.299C54.2298 60.4952 55.1719 59.0507 55.8615 59.0507C55.9273 59.0507 55.9909 59.0711 56.0546 59.1022C55.8812 58.8481 55.6852 58.6792 55.4768 58.6792C54.7872 58.6792 54.2298 60.4963 54.2298 61.299" fill="#A6BDE6"/>
<path d="M58.6799 61.3188C58.6799 62.5038 57.9001 63.4673 56.937 63.4673C55.9732 63.4673 55.1933 62.5038 55.1933 61.3188C55.1933 60.1328 55.9732 57.4553 56.937 57.4553C57.9001 57.4553 58.6799 60.1328 58.6799 61.3188Z" fill="#8B9DD7"/>
<path d="M55.3247 61.3188C55.3247 60.1507 56.1042 57.5808 56.937 57.5808C57.7696 57.5808 58.5484 60.1507 58.5484 61.3188C58.5484 62.434 57.8254 63.3417 56.937 63.3417C56.0477 63.3417 55.3247 62.434 55.3247 61.3188ZM55.062 61.3188C55.062 62.5727 55.9031 63.5927 56.937 63.5927C57.9704 63.5927 58.8111 62.5727 58.8111 61.3188C58.8111 60.1289 58.0199 57.3291 56.937 57.3291C55.8535 57.3291 55.062 60.1289 55.062 61.3188Z" fill="#363254"/>
<path d="M55.6635 61.5341C55.6635 60.3923 56.6067 58.3398 57.2951 58.3398C57.3611 58.3398 57.4255 58.3692 57.4884 58.4128C57.3161 58.0503 57.119 57.812 56.9104 57.812C56.2207 57.812 55.6635 60.3932 55.6635 61.5341Z" fill="#A6BDE6"/>
<path d="M59.594 61.9569C59.594 62.7957 59.0328 63.4753 58.3402 63.4753C57.6476 63.4753 57.086 62.7957 57.086 61.9569C57.086 61.1147 57.6476 59.2192 58.3402 59.2192C59.0328 59.2192 59.594 61.1147 59.594 61.9569Z" fill="#8B9DD7"/>
<path d="M57.2172 61.9568C57.2172 61.0489 57.8121 59.3454 58.3402 59.3454C58.8681 59.3454 59.463 61.0489 59.463 61.9568C59.463 62.7248 58.9588 63.3495 58.3402 63.3495C57.7212 63.3495 57.2172 62.7248 57.2172 61.9568ZM56.9545 61.9568C56.9545 62.8636 57.5759 63.6006 58.3402 63.6006C59.1042 63.6006 59.7253 62.8636 59.7253 61.9568C59.7253 61.1316 59.1734 59.0938 58.3402 59.0938C57.5066 59.0938 56.9545 61.1316 56.9545 61.9568" fill="#363254"/>
<path d="M57.6135 61.4566C57.5501 60.8576 58.1378 59.8653 58.5957 59.7934C58.6387 59.7867 58.6828 59.7961 58.7271 59.8131C58.5923 59.6402 58.4407 59.5043 58.3105 59.5576C57.8565 59.751 57.5501 60.8596 57.6135 61.4566" fill="#A6BDE6"/>
<path d="M27.7355 39.2525C27.5963 39.4401 27.6454 39.6979 27.846 39.8291C28.0458 39.9601 28.3212 39.9133 28.4603 39.7263C29.2527 38.6583 31.0351 38.364 31.8825 38.6673C32.0514 38.728 32.2648 38.7016 32.3581 38.6072C32.4513 38.5139 32.3903 38.3885 32.2211 38.328C31.0608 37.9121 28.7847 37.8367 27.7355 39.2525" fill="#363254"/>
<path d="M31.1701 43.9472C30.4383 44.1002 29.793 43.6941 29.7296 43.0404C29.6663 42.3856 30.2088 41.7314 30.9408 41.5769C31.6735 41.4233 32.3185 41.8284 32.3825 42.4835C32.4453 43.1381 31.903 43.7922 31.1701 43.9472V43.9472ZM32.6835 42.3963C32.6101 41.6335 31.8481 41.1641 30.9797 41.3453C30.1124 41.5274 29.4681 42.2913 29.5409 43.053C29.6139 43.8144 30.3762 44.2851 31.2436 44.1046C32.1119 43.9219 32.7565 43.1582 32.6835 42.3963" fill="#363254"/>
<path d="M32.3361 42.5363C32.3917 43.1117 31.9172 43.6881 31.2763 43.8225C30.6329 43.9584 30.0687 43.6003 30.0113 43.0248C29.9562 42.4494 30.4308 41.8735 31.0719 41.7389C31.7147 41.6034 32.2805 41.9603 32.3361 42.5363Z" fill="#FCFCFC"/>
<path d="M32.2422 42.5421C32.0687 42.1036 31.6078 41.8494 31.2169 41.9715C31.0075 42.0358 30.8639 42.1965 30.797 42.3972L31.3434 42.6653L30.8414 43.0247C31.0274 43.4383 31.4674 43.6757 31.8471 43.5577C32.2395 43.4341 32.4156 42.9804 32.2422 42.5421Z" fill="#363254"/>
<path d="M31.84 42.3542C31.9372 42.3402 32.0517 42.457 32.0934 42.619C32.1353 42.7791 32.0902 42.9215 31.9908 42.9367C31.8924 42.9513 31.7781 42.8337 31.736 42.6721C31.6952 42.5122 31.7413 42.3702 31.84 42.3542Z" fill="white"/>
<path d="M30.2506 41.6933C29.5656 42.2177 29.3491 42.9792 29.8119 43.4108C29.7718 43.3939 29.8591 43.5048 29.8221 43.4842C29.0934 43.0835 28.9717 41.8935 29.6425 41.1934C30.2184 40.5917 31.9465 40.1456 31.9337 40.3776C31.8624 40.6438 31.3565 40.9816 30.7283 41.3488C30.5261 41.4628 30.3803 41.5943 30.2506 41.6933" fill="#363254"/>
<path d="M41.5062 49.0836C41.4709 49.2621 41.5926 49.4087 41.7763 49.4087H42.8317C43.0156 49.4087 43.1943 49.2621 43.2299 49.0836L43.5109 47.6469C43.5463 47.468 43.7246 47.3219 43.9088 47.3219H45.0509C45.7023 47.3219 46.2382 47.2539 46.6585 47.1179C47.0796 46.9825 47.4614 46.7545 47.8063 46.4349C48.0944 46.1718 48.3287 45.8815 48.5072 45.5633C48.6857 45.2462 48.8132 44.8957 48.8879 44.5123C49.0704 43.5822 48.8908 42.8902 48.4759 42.3375C47.9547 41.6455 46.6248 41.6088 46.6248 41.6088C46.443 41.5817 46.1442 41.5586 45.9604 41.5586H43.3142C43.1306 41.5586 42.9519 41.7053 42.9164 41.8844L41.5062 49.0836ZM45.6413 42.7975C46.2965 42.7975 46.7324 42.9177 46.9508 43.1574C47.1687 43.3972 47.221 43.8091 47.1071 44.3922C46.9875 44.9998 46.7579 45.4339 46.418 45.6936C46.0781 45.953 45.1979 46.047 45.1979 46.047C45.0148 46.0669 44.715 46.0829 44.5316 46.0829H44.1516C43.968 46.0829 43.8457 45.9364 43.8811 45.7577L44.3973 43.1231C44.4323 42.9442 44.6114 42.7975 44.7948 42.7975H45.6413" fill="#363254"/>
<path d="M41.5062 49.0836C41.4709 49.2621 41.5926 49.4087 41.7763 49.4087H42.8317C43.0156 49.4087 43.1943 49.2621 43.2299 49.0836L43.5109 47.6469C43.5463 47.468 43.7246 47.3219 43.9088 47.3219H45.0509C45.7023 47.3219 46.2382 47.2539 46.6585 47.1179C47.0796 46.9825 47.4614 46.7545 47.8063 46.4349C48.0944 46.1718 48.3287 45.8815 48.5072 45.5633C48.6857 45.2462 48.8132 44.8957 48.8879 44.5123C49.0704 43.5822 48.8908 42.8902 48.4759 42.3375C47.9547 41.6455 46.6248 41.6088 46.6248 41.6088C46.443 41.5817 46.1442 41.5586 45.9604 41.5586H43.3142C43.1306 41.5586 42.9519 41.7053 42.9164 41.8844L41.5062 49.0836ZM45.6413 42.7975C46.2965 42.7975 46.7324 42.9177 46.9508 43.1574C47.1687 43.3972 47.221 43.8091 47.1071 44.3922C46.9875 44.9998 46.7579 45.4339 46.418 45.6936C46.0781 45.953 45.1979 46.047 45.1979 46.047C45.0148 46.0669 44.715 46.0829 44.5316 46.0829H44.1516C43.968 46.0829 43.8457 45.9364 43.8811 45.7577L44.3973 43.1231C44.4323 42.9442 44.6114 42.7975 44.7948 42.7975H45.6413Z" stroke="white" stroke-width="2"/>
<path d="M50.5505 39.7973C50.5854 39.6188 50.7641 39.4724 50.9478 39.4724H51.9899C52.1739 39.4724 52.2954 39.6188 52.26 39.7973L51.9788 41.234C51.9436 41.4131 52.066 41.5587 52.2493 41.5587H53.1042C53.2878 41.5587 53.5878 41.5744 53.7703 41.593C53.7703 41.593 55.017 41.6075 55.4216 42.0566C55.7511 42.4223 55.8943 42.9261 55.7488 43.6688L55.0974 46.9967C55.0626 47.1756 54.8833 47.322 54.6995 47.322H53.6306C53.4468 47.322 53.3249 47.1756 53.3601 46.9967L53.9135 44.1736C53.9485 43.995 53.9878 43.6999 54.0013 43.5178C54.0013 43.5178 54.0259 43.1837 53.8913 43.0404C53.7572 42.8966 53.4709 42.8251 53.0333 42.8251H52.0008C51.8168 42.8251 51.6387 42.9711 51.603 43.1499L50.8501 46.9967C50.815 47.1756 50.6363 47.322 50.4525 47.322H49.4102C49.2264 47.322 49.1049 47.1756 49.1398 46.9967L50.5505 39.7973" fill="#363254"/>
<path d="M50.5505 39.7973C50.5854 39.6188 50.7641 39.4724 50.9478 39.4724H51.9899C52.1739 39.4724 52.2954 39.6188 52.26 39.7973L51.9788 41.234C51.9436 41.4131 52.066 41.5587 52.2493 41.5587H53.1042C53.2878 41.5587 53.5878 41.5744 53.7703 41.593C53.7703 41.593 55.017 41.6075 55.4216 42.0566C55.7511 42.4223 55.8943 42.9261 55.7488 43.6688L55.0974 46.9967C55.0626 47.1756 54.8833 47.322 54.6995 47.322H53.6306C53.4468 47.322 53.3249 47.1756 53.3601 46.9967L53.9135 44.1736C53.9485 43.995 53.9878 43.6999 54.0013 43.5178C54.0013 43.5178 54.0259 43.1837 53.8913 43.0404C53.7572 42.8966 53.4709 42.8251 53.0333 42.8251H52.0008C51.8168 42.8251 51.6387 42.9711 51.603 43.1499L50.8501 46.9967C50.815 47.1756 50.6363 47.322 50.4525 47.322H49.4102C49.2264 47.322 49.1049 47.1756 49.1398 46.9967L50.5505 39.7973Z" stroke="white" stroke-width="2"/>
<path d="M55.8366 49.0836C55.8012 49.2621 55.9231 49.4087 56.1071 49.4087H57.1623C57.3456 49.4087 57.5252 49.2621 57.56 49.0836L57.8412 47.6469C57.8764 47.468 58.0555 47.3219 58.2387 47.3219H59.3814C60.0326 47.3219 60.5682 47.2539 60.9895 47.1179C61.4094 46.9825 61.7919 46.7545 62.1362 46.4349C62.4253 46.1718 62.6584 45.8815 62.8375 45.5633C63.0162 45.2462 63.1432 44.8957 63.2184 44.5123C63.4007 43.5822 63.2357 42.8795 62.806 42.3375C62.2728 41.6647 60.9547 41.6088 60.9547 41.6088C60.7729 41.5817 60.474 41.5586 60.2904 41.5586H57.6441C57.4607 41.5586 57.2815 41.7053 57.2467 41.8844L55.8366 49.0836ZM59.9721 42.7975C60.6266 42.7975 61.0629 42.9177 61.2817 43.1574C61.499 43.3972 61.5511 43.8091 61.4371 44.3922C61.3176 44.9998 61.089 45.4339 60.7485 45.6936C60.408 45.953 59.5279 46.047 59.5279 46.047C59.3455 46.0669 59.0459 46.0829 58.8617 46.0829H58.4813C58.2974 46.0829 58.1764 45.9364 58.2112 45.7577L58.7271 43.1231C58.7624 42.9442 58.9413 42.7975 59.1249 42.7975H59.9721" fill="#363254"/>
<path d="M55.8366 49.0836C55.8012 49.2621 55.9231 49.4087 56.1071 49.4087H57.1623C57.3456 49.4087 57.5252 49.2621 57.56 49.0836L57.8412 47.6469C57.8764 47.468 58.0555 47.3219 58.2387 47.3219H59.3814C60.0326 47.3219 60.5682 47.2539 60.9895 47.1179C61.4094 46.9825 61.7919 46.7545 62.1362 46.4349C62.4253 46.1718 62.6584 45.8815 62.8375 45.5633C63.0162 45.2462 63.1432 44.8957 63.2184 44.5123C63.4007 43.5822 63.2357 42.8795 62.806 42.3375C62.2728 41.6647 60.9547 41.6088 60.9547 41.6088C60.7729 41.5817 60.474 41.5586 60.2904 41.5586H57.6441C57.4607 41.5586 57.2815 41.7053 57.2467 41.8844L55.8366 49.0836ZM59.9721 42.7975C60.6266 42.7975 61.0629 42.9177 61.2817 43.1574C61.499 43.3972 61.5511 43.8091 61.4371 44.3922C61.3176 44.9998 61.089 45.4339 60.7485 45.6936C60.408 45.953 59.5279 46.047 59.5279 46.047C59.3455 46.0669 59.0459 46.0829 58.8617 46.0829H58.4813C58.2974 46.0829 58.1764 45.9364 58.2112 45.7577L58.7271 43.1231C58.7624 42.9442 58.9413 42.7975 59.1249 42.7975H59.9721Z" stroke="white" stroke-width="2"/>
<path d="M41.5062 49.0836C41.4709 49.2621 41.5926 49.4087 41.7763 49.4087H42.8317C43.0156 49.4087 43.1943 49.2621 43.2299 49.0836L43.5109 47.6469C43.5463 47.468 43.7246 47.3219 43.9088 47.3219H45.0509C45.7023 47.3219 46.2382 47.2539 46.6585 47.1179C47.0796 46.9825 47.4614 46.7545 47.8063 46.4349C48.0944 46.1718 48.3287 45.8815 48.5072 45.5633C48.6857 45.2462 48.8132 44.8957 48.8879 44.5123C49.0704 43.5822 48.8908 42.8902 48.4759 42.3375C47.9547 41.6455 46.6248 41.6088 46.6248 41.6088C46.443 41.5817 46.1442 41.5586 45.9604 41.5586H43.3142C43.1306 41.5586 42.9519 41.7053 42.9164 41.8844L41.5062 49.0836ZM45.6413 42.7975C46.2965 42.7975 46.7324 42.9177 46.9508 43.1574C47.1687 43.3972 47.221 43.8091 47.1071 44.3922C46.9875 44.9998 46.7579 45.4339 46.418 45.6936C46.0781 45.953 45.1979 46.047 45.1979 46.047C45.0148 46.0669 44.715 46.0829 44.5316 46.0829H44.1516C43.968 46.0829 43.8457 45.9364 43.8811 45.7577L44.3973 43.1231C44.4323 42.9442 44.6114 42.7975 44.7948 42.7975H45.6413" fill="#363254"/>
<path d="M50.5505 39.7973C50.5854 39.6188 50.7641 39.4724 50.9478 39.4724H51.9899C52.1739 39.4724 52.2954 39.6188 52.26 39.7973L51.9788 41.234C51.9436 41.4131 52.066 41.5587 52.2493 41.5587H53.1042C53.2878 41.5587 53.5878 41.5744 53.7703 41.593C53.7703 41.593 55.017 41.6075 55.4216 42.0566C55.7511 42.4223 55.8943 42.9261 55.7488 43.6688L55.0974 46.9967C55.0626 47.1756 54.8833 47.322 54.6995 47.322H53.6306C53.4468 47.322 53.3249 47.1756 53.3601 46.9967L53.9135 44.1736C53.9485 43.995 53.9878 43.6999 54.0013 43.5178C54.0013 43.5178 54.0259 43.1837 53.8913 43.0404C53.7572 42.8966 53.4709 42.8251 53.0333 42.8251H52.0008C51.8168 42.8251 51.6387 42.9711 51.603 43.1499L50.8501 46.9967C50.815 47.1756 50.6363 47.322 50.4525 47.322H49.4102C49.2264 47.322 49.1049 47.1756 49.1398 46.9967L50.5505 39.7973" fill="#363254"/>
<path d="M55.8366 49.0836C55.8012 49.2621 55.9231 49.4087 56.1071 49.4087H57.1623C57.3456 49.4087 57.5252 49.2621 57.56 49.0836L57.8412 47.6469C57.8764 47.468 58.0555 47.3219 58.2387 47.3219H59.3814C60.0326 47.3219 60.5682 47.2539 60.9895 47.1179C61.4094 46.9825 61.7919 46.7545 62.1362 46.4349C62.4253 46.1718 62.6584 45.8815 62.8375 45.5633C63.0162 45.2462 63.1432 44.8957 63.2184 44.5123C63.4007 43.5822 63.2357 42.8795 62.806 42.3375C62.2728 41.6647 60.9547 41.6088 60.9547 41.6088C60.7729 41.5817 60.474 41.5586 60.2904 41.5586H57.6441C57.4607 41.5586 57.2815 41.7053 57.2467 41.8844L55.8366 49.0836ZM59.9721 42.7975C60.6266 42.7975 61.0629 42.9177 61.2817 43.1574C61.499 43.3972 61.5511 43.8091 61.4371 44.3922C61.3176 44.9998 61.089 45.4339 60.7485 45.6936C60.408 45.953 59.5279 46.047 59.5279 46.047C59.3455 46.0669 59.0459 46.0829 58.8617 46.0829H58.4813C58.2974 46.0829 58.1764 45.9364 58.2112 45.7577L58.7271 43.1231C58.7624 42.9442 58.9413 42.7975 59.1249 42.7975H59.9721" fill="#363254"/>
<path d="M34.4173 35.0308C34.4173 35.0308 37.5418 32.9001 39.5154 32.1698C40.1444 31.9369 44.6828 30.7477 45.4185 38.5204C45.8207 42.7763 45.0964 45.7157 41.578 46.2482C39.4725 46.5672 39.7985 48.1238 39.7985 48.1238" fill="url(#paint10_linear)"/>
<path d="M39.3728 31.8183C37.3763 32.5574 34.318 34.6356 34.1884 34.7239C34.0115 34.8446 33.9701 35.0802 34.0966 35.2495C34.2227 35.419 34.4691 35.4584 34.6461 35.3375C34.677 35.3171 37.7533 33.2263 39.6568 32.5213C39.7164 32.4996 41.1174 31.9966 42.462 32.7954C43.8619 33.6274 44.7483 35.6185 45.0267 38.5547C45.4699 43.2472 44.4201 45.4363 41.5166 45.8763C40.6935 46.0006 40.0944 46.3139 39.7351 46.8084C39.2634 47.4557 39.4056 48.1682 39.4123 48.1983C39.455 48.4009 39.6601 48.5315 39.8724 48.4927C40.085 48.454 40.2246 48.2565 40.1856 48.0529C40.1846 48.0493 40.1062 47.6106 40.3877 47.2312C40.6208 46.917 41.0419 46.7114 41.6397 46.6205C45.9564 45.9671 46.1369 41.9303 45.8118 38.4865C45.5059 35.2598 44.5183 33.1295 42.8781 32.1551C41.2314 31.1767 39.5585 31.7496 39.3728 31.8183" fill="#363254"/>
<path d="M37.6136 34.4673C41.1513 32.2729 43.1153 33.3949 43.1153 33.3949C41.577 31.9999 39.8467 32.4623 39.464 32.6047C37.4972 33.3349 33.6989 36.0339 33.6989 36.0339C33.6989 36.0339 33.1853 36.9375 34.2088 36.7414C34.2088 36.7414 36.435 35.1988 37.6136 34.4673" fill="url(#paint11_linear)"/>
<path d="M36.337 44.822C36.3062 46.6035 35.7116 48.2258 34.7841 49.0533C34.3632 49.4293 33.8938 49.6154 33.4253 49.5926C33.2808 49.5849 33.1577 49.6913 33.1493 49.8299C33.1424 49.969 33.2536 50.0868 33.3986 50.094C34.0124 50.1247 34.6151 49.892 35.1428 49.421C36.1708 48.5031 36.8295 46.7441 36.8623 44.8294C36.8651 44.6914 36.7497 44.5767 36.6044 44.5745C36.4591 44.5725 36.3396 44.6833 36.337 44.822" fill="#363254"/>
<path d="M37.475 43.5499C37.2771 43.9999 36.9313 44.2867 36.5254 44.3345C36.1297 44.3808 35.7277 44.1972 35.4496 43.8429C35.363 43.7322 35.1977 43.7094 35.0818 43.7929C34.9659 43.876 34.9422 44.0335 35.0295 44.1443C35.4219 44.645 36.0055 44.9024 36.5899 44.8338C37.1878 44.7622 37.6865 44.3653 37.9596 43.7443C38.0156 43.6162 37.9522 43.47 37.819 43.4156C37.685 43.362 37.5316 43.4221 37.475 43.5499" fill="#363254"/>
</g>
<defs>
<linearGradient id="paint0_linear" x1="43.351" y1="43.1926" x2="59.1212" y2="55.0417" gradientUnits="userSpaceOnUse">
<stop stop-color="#8C9BD6"/>
<stop offset="1" stop-color="#505E9B"/>
</linearGradient>
<linearGradient id="paint1_linear" x1="53.7257" y1="29.7065" x2="69.627" y2="41.6541" gradientUnits="userSpaceOnUse">
<stop stop-color="#808FD0"/>
<stop offset="1" stop-color="#505E9B"/>
</linearGradient>
<linearGradient id="paint2_linear" x1="36.1733" y1="52.4588" x2="51.8744" y2="64.2559" gradientUnits="userSpaceOnUse">
<stop stop-color="#8C9BD6"/>
<stop offset="1" stop-color="#505E9B"/>
</linearGradient>
<linearGradient id="paint3_linear" x1="42.1158" y1="44.9096" x2="57.8167" y2="56.7066" gradientUnits="userSpaceOnUse">
<stop stop-color="#8C9BD6"/>
<stop offset="1" stop-color="#505E9B"/>
</linearGradient>
<linearGradient id="paint4_linear" x1="42.9335" y1="43.5351" x2="58.1744" y2="54.9865" gradientUnits="userSpaceOnUse">
<stop stop-color="#808FD0"/>
<stop offset="1" stop-color="#505E9B"/>
</linearGradient>
<linearGradient id="paint5_linear" x1="40.2965" y1="47.2866" x2="56.1465" y2="59.1956" gradientUnits="userSpaceOnUse">
<stop stop-color="#8C9BD6"/>
<stop offset="1" stop-color="#505E9B"/>
</linearGradient>
<linearGradient id="paint6_linear" x1="18.4594" y1="43.3703" x2="28.8985" y2="58.7097" gradientUnits="userSpaceOnUse">
<stop stop-color="#FAFAFD"/>
<stop offset="1" stop-color="#8892D2"/>
</linearGradient>
<linearGradient id="paint7_linear" x1="35.8398" y1="30.7457" x2="48.0038" y2="48.6196" gradientUnits="userSpaceOnUse">
<stop stop-color="#FAFAFD"/>
<stop offset="1" stop-color="#8892D2"/>
</linearGradient>
<linearGradient id="paint8_linear" x1="35.9228" y1="52.8475" x2="51.6157" y2="64.6385" gradientUnits="userSpaceOnUse">
<stop stop-color="#8C9BD6"/>
<stop offset="1" stop-color="#505E9B"/>
</linearGradient>
<linearGradient id="paint9_linear" x1="43.0646" y1="43.5584" x2="58.8121" y2="55.3904" gradientUnits="userSpaceOnUse">
<stop stop-color="#8C9BD6"/>
<stop offset="1" stop-color="#505E9B"/>
</linearGradient>
<linearGradient id="paint10_linear" x1="44.0102" y1="42.3397" x2="59.7335" y2="54.1536" gradientUnits="userSpaceOnUse">
<stop stop-color="#8C9BD6"/>
<stop offset="1" stop-color="#505E9B"/>
</linearGradient>
<linearGradient id="paint11_linear" x1="35.5417" y1="30.9337" x2="47.9734" y2="49.2011" gradientUnits="userSpaceOnUse">
<stop stop-color="#FAFAFD"/>
<stop offset="1" stop-color="#8892D2"/>
</linearGradient>
<clipPath id="clip0">
<rect width="48" height="32.9143" fill="white" transform="translate(24 31.5)"/>
</clipPath>
</defs>
</svg>
