<svg width="96" height="96" viewBox="0 0 96 96" fill="none" xmlns="http://www.w3.org/2000/svg">
<path d="M44 2.30935C46.4752 0.880283 49.5248 0.880284 52 2.30935L85.5692 21.6905C88.0444 23.1196 89.5692 25.7606 89.5692 28.6187V67.3811C89.5692 70.2393 88.0444 72.8803 85.5692 74.3093L52 93.6905C49.5248 95.1196 46.4752 95.1196 44 93.6905L10.4308 74.3093C7.95558 72.8803 6.43079 70.2393 6.43079 67.3811V28.6187C6.43079 25.7606 7.95558 23.1196 10.4308 21.6905L44 2.30935Z" fill="white"/>
<path fill-rule="evenodd" clip-rule="evenodd" d="M84.1907 22.9024L51.5701 4.06896C49.3322 2.77689 46.575 2.77689 44.337 4.06896L11.7165 22.9024C9.47853 24.1945 8.09991 26.5824 8.09991 29.1665V66.8335C8.09991 69.4176 9.47853 71.8055 11.7165 73.0975L44.337 91.931C46.575 93.2231 49.3322 93.2231 51.5701 91.931L84.1907 73.0975C86.4286 71.8055 87.8072 69.4176 87.8072 66.8335V29.1665C87.8072 26.5824 86.4286 24.1945 84.1907 22.9024ZM53.1201 1.38436C49.923 -0.461454 45.9841 -0.461455 42.7871 1.38436L10.1665 20.2178C6.96946 22.0637 5 25.4749 5 29.1665V66.8335C5 70.5251 6.96946 73.9363 10.1665 75.7821L42.7871 94.6156C45.9841 96.4614 49.923 96.4614 53.1201 94.6156L85.7406 75.7821C88.9377 73.9363 90.9071 70.5251 90.9071 66.8335V29.1665C90.9071 25.4749 88.9377 22.0637 85.7406 20.2178L53.1201 1.38436Z" fill="#F80000"/>
<rect x="24" y="24" width="48" height="48" rx="8" fill="#F80000"/>
<path d="M48.7504 36.2778C48.7504 37.4074 48.4756 38.4444 47.9261 39.3889C47.3765 40.3148 46.5326 41.0648 45.3942 41.6389C44.2559 42.213 42.8428 42.5 41.1549 42.5H38.0342V49.5H33V30H41.1549C42.8035 30 44.197 30.2685 45.3353 30.8056C46.4737 31.3426 47.3274 32.0833 47.8966 33.0278C48.4658 33.9722 48.7504 35.0556 48.7504 36.2778ZM40.7721 38.7222C41.7339 38.7222 42.4502 38.5093 42.9213 38.0833C43.3923 37.6574 43.6278 37.0556 43.6278 36.2778C43.6278 35.5 43.3923 34.8981 42.9213 34.4722C42.4502 34.0463 41.7339 33.8333 40.7721 33.8333H38.0342V38.7222H40.7721Z" fill="white"/>
<path d="M56.4055 45.8333H63V49.5H51.3712V30H56.4055V45.8333Z" fill="white"/>
<path d="M37.5207 64.0305C36.6737 64.0305 35.9148 63.8882 35.2438 63.6035C34.5729 63.3188 34.0339 62.8975 33.627 62.3396C33.231 61.7816 33.022 61.1098 33 60.3241H36.0028C36.0468 60.7682 36.1953 61.1098 36.4482 61.3489C36.7012 61.5767 37.0312 61.6905 37.4382 61.6905C37.8561 61.6905 38.1861 61.5937 38.4281 61.4002C38.6701 61.1952 38.7911 60.9162 38.7911 60.5633C38.7911 60.2672 38.6921 60.0224 38.4941 59.8288C38.3071 59.6352 38.0706 59.4758 37.7846 59.3506C37.5097 59.2253 37.1137 59.083 36.5967 58.9236C35.8488 58.6845 35.2383 58.4453 34.7654 58.2062C34.2924 57.9671 33.8854 57.6141 33.5445 57.1473C33.2035 56.6804 33.033 56.0712 33.033 55.3197C33.033 54.2038 33.4235 53.3327 34.2044 52.7065C34.9853 52.0688 36.0028 51.75 37.2567 51.75C38.5326 51.75 39.561 52.0688 40.3419 52.7065C41.1229 53.3327 41.5409 54.2095 41.5958 55.3368H38.5436C38.5216 54.9496 38.3841 54.6479 38.1311 54.4316C37.8781 54.2038 37.5537 54.09 37.1577 54.09C36.8167 54.09 36.5417 54.1867 36.3327 54.3803C36.1238 54.5625 36.0193 54.8301 36.0193 55.1831C36.0193 55.5702 36.1953 55.872 36.5472 56.0883C36.8992 56.3047 37.4492 56.5381 38.1971 56.7886C38.945 57.0505 39.55 57.301 40.012 57.5401C40.4849 57.7792 40.8919 58.1265 41.2329 58.582C41.5738 59.0374 41.7443 59.6239 41.7443 60.3412C41.7443 61.0244 41.5738 61.645 41.2329 62.2029C40.9029 62.7609 40.4189 63.205 39.781 63.5352C39.143 63.8654 38.3896 64.0305 37.5207 64.0305Z" fill="white"/>
<path d="M51.7299 65.9605L50.2451 63.8939C49.8051 63.9849 49.3761 64.0305 48.9582 64.0305C47.8692 64.0305 46.8683 63.7686 45.9554 63.2448C45.0534 62.721 44.333 61.9923 43.794 61.0586C43.2661 60.1135 43.0021 59.0545 43.0021 57.8817C43.0021 56.7089 43.2661 55.6556 43.794 54.7219C44.333 53.7882 45.0534 53.0595 45.9554 52.5357C46.8683 52.0119 47.8692 51.75 48.9582 51.75C50.0471 51.75 51.0425 52.0119 51.9444 52.5357C52.8574 53.0595 53.5723 53.7882 54.0893 54.7219C54.6172 55.6556 54.8812 56.7089 54.8812 57.8817C54.8812 58.9065 54.6777 59.8459 54.2707 60.6999C53.8748 61.5425 53.3193 62.2428 52.6044 62.8007L55.1452 65.9605H51.7299ZM45.8894 57.8817C45.8894 58.9407 46.1644 59.789 46.7143 60.4266C47.2753 61.0529 48.0232 61.366 48.9582 61.366C49.8821 61.366 50.619 61.0472 51.169 60.4095C51.7299 59.7719 52.0104 58.9293 52.0104 57.8817C52.0104 56.8227 51.7299 55.9801 51.169 55.3539C50.619 54.7162 49.8821 54.3974 48.9582 54.3974C48.0232 54.3974 47.2753 54.7105 46.7143 55.3368C46.1644 55.9631 45.8894 56.8114 45.8894 57.8817Z" fill="white"/>
<path d="M59.3043 61.6564H63V63.9109H56.483V51.9208H59.3043V61.6564Z" fill="white"/>
</svg>
