<svg width="96" height="96" viewBox="0 0 96 96" fill="none" xmlns="http://www.w3.org/2000/svg">
<path d="M44 2.30935C46.4752 0.880283 49.5248 0.880284 52 2.30935L85.5692 21.6905C88.0444 23.1196 89.5692 25.7606 89.5692 28.6187V67.3811C89.5692 70.2393 88.0444 72.8803 85.5692 74.3093L52 93.6905C49.5248 95.1196 46.4752 95.1196 44 93.6905L10.4308 74.3093C7.95558 72.8803 6.43079 70.2393 6.43079 67.3811V28.6187C6.43079 25.7606 7.95558 23.1196 10.4308 21.6905L44 2.30935Z" fill="white"/>
<path fill-rule="evenodd" clip-rule="evenodd" d="M84.1907 22.9024L51.5701 4.06896C49.3322 2.77689 46.575 2.77689 44.337 4.06896L11.7165 22.9024C9.47853 24.1945 8.09991 26.5824 8.09991 29.1665V66.8335C8.09991 69.4176 9.47853 71.8055 11.7165 73.0975L44.337 91.931C46.575 93.2231 49.3322 93.2231 51.5701 91.931L84.1907 73.0975C86.4286 71.8055 87.8072 69.4176 87.8072 66.8335V29.1665C87.8072 26.5824 86.4286 24.1945 84.1907 22.9024ZM53.1201 1.38436C49.923 -0.461454 45.9841 -0.461455 42.7871 1.38436L10.1665 20.2178C6.96946 22.0637 5 25.4749 5 29.1665V66.8335C5 70.5251 6.96946 73.9363 10.1665 75.7821L42.7871 94.6156C45.9841 96.4614 49.923 96.4614 53.1201 94.6156L85.7406 75.7821C88.9377 73.9363 90.9071 70.5251 90.9071 66.8335V29.1665C90.9071 25.4749 88.9377 22.0637 85.7406 20.2178L53.1201 1.38436Z" fill="#A0A1A6"/>
<path fill-rule="evenodd" clip-rule="evenodd" d="M47.9637 61.1832C34.7621 61.1832 24.0601 54.2458 24.0601 45.688C24.0601 37.1301 34.7621 30.1926 47.9637 30.1926C61.1654 30.1926 71.8674 37.1301 71.8674 45.688C71.8674 54.2458 61.1654 61.1832 47.9637 61.1832ZM51.6226 36.2508C41.5882 36.2508 33.4537 40.9935 33.4537 46.844C33.4537 52.6945 41.5882 57.4372 51.6226 57.4372C61.6569 57.4372 69.0621 54.1947 69.0621 46.844C69.0621 39.4956 61.6569 36.2508 51.6226 36.2508Z" fill="url(#paint0_linear)"/>
<path fill-rule="evenodd" clip-rule="evenodd" d="M60.4641 54.1925C60.4641 54.1925 61.9108 54.6151 62.7514 55.0267C63.043 55.1696 63.5476 55.4546 63.9116 55.8289C64.2681 56.1954 64.442 56.5669 64.442 56.5669L70.1436 65.8717L60.9282 65.8756L56.6188 58.0428C56.6188 58.0428 55.7363 56.5753 55.1934 56.1497C54.7404 55.7948 54.5473 55.6685 54.0994 55.6685C53.7877 55.6685 51.9099 55.6685 51.9099 55.6685L51.9116 65.87L43.7569 65.8733V39.8142H60.1326C60.1326 39.8142 67.5912 39.9444 67.5912 46.8128C67.5912 53.6813 60.4641 54.1925 60.4641 54.1925ZM56.9171 45.4668L51.9803 45.4637L51.9779 49.8947L56.9171 49.8932C56.9171 49.8932 59.2044 49.8863 59.2044 47.6392C59.2044 45.3469 56.9171 45.4668 56.9171 45.4668Z" fill="url(#paint1_linear)"/>
<defs>
<linearGradient id="paint0_linear" x1="24.0601" y1="30.1926" x2="52.3506" y2="73.8348" gradientUnits="userSpaceOnUse">
<stop stop-color="#CBCED0"/>
<stop offset="1" stop-color="#84838B"/>
</linearGradient>
<linearGradient id="paint1_linear" x1="43.7569" y1="39.8142" x2="69.8163" y2="66.1989" gradientUnits="userSpaceOnUse">
<stop stop-color="#276DC3"/>
<stop offset="1" stop-color="#165CAA"/>
</linearGradient>
</defs>
</svg>
