<svg width="96" height="96" viewBox="0 0 96 96" fill="none" xmlns="http://www.w3.org/2000/svg">
<path d="M44 2.30935C46.4752 0.880283 49.5248 0.880284 52 2.30935L85.5692 21.6905C88.0444 23.1196 89.5692 25.7606 89.5692 28.6187V67.3811C89.5692 70.2393 88.0444 72.8803 85.5692 74.3093L52 93.6905C49.5248 95.1196 46.4752 95.1196 44 93.6905L10.4308 74.3093C7.95558 72.8803 6.43079 70.2393 6.43079 67.3811V28.6187C6.43079 25.7606 7.95558 23.1196 10.4308 21.6905L44 2.30935Z" fill="white"/>
<path fill-rule="evenodd" clip-rule="evenodd" d="M84.1907 22.9024L51.5701 4.06896C49.3322 2.77689 46.575 2.77689 44.337 4.06896L11.7165 22.9024C9.47853 24.1945 8.09991 26.5824 8.09991 29.1665V66.8335C8.09991 69.4176 9.47853 71.8055 11.7165 73.0975L44.337 91.931C46.575 93.2231 49.3322 93.2231 51.5701 91.931L84.1907 73.0975C86.4286 71.8055 87.8072 69.4176 87.8072 66.8335V29.1665C87.8072 26.5824 86.4286 24.1945 84.1907 22.9024ZM53.1201 1.38436C49.923 -0.461454 45.9841 -0.461455 42.7871 1.38436L10.1665 20.2178C6.96946 22.0637 5 25.4749 5 29.1665V66.8335C5 70.5251 6.96946 73.9363 10.1665 75.7821L42.7871 94.6156C45.9841 96.4614 49.923 96.4614 53.1201 94.6156L85.7406 75.7821C88.9377 73.9363 90.9071 70.5251 90.9071 66.8335V29.1665C90.9071 25.4749 88.9377 22.0637 85.7406 20.2178L53.1201 1.38436Z" fill="#9F1D20"/>
<path d="M48.0295 71.7425C61.1371 71.7425 71.7628 61.1157 71.7628 48.0069C71.7628 34.898 61.1371 24.2712 48.0295 24.2712C34.922 24.2712 24.2963 34.898 24.2963 48.0069C24.2963 61.1157 34.922 71.7425 48.0295 71.7425Z" fill="white"/>
<path d="M66.704 62.6567C69.8728 58.6221 71.7627 53.5352 71.7627 48.0069C71.7627 34.8981 61.137 24.2712 48.0294 24.2712C45.1782 24.2712 42.4445 24.7746 39.9119 25.6964C49.547 30.7512 62.2921 47.2428 66.704 62.6567Z" fill="#3E5BA9"/>
<path d="M44.6304 39.4113C40.9281 35.4224 36.782 32.2546 32.3908 30.1536C27.4296 34.504 24.2963 40.8888 24.2963 48.0063C24.2963 53.9909 26.5117 59.4575 30.1662 63.6326C33.3877 53.9527 39.4442 44.6228 44.6304 39.4113Z" fill="#9F1D20"/>
<path d="M49.0034 44.7939C43.8654 50.3319 38.7454 60.0262 36.8925 68.9704C40.2138 70.7389 44.0042 71.7426 48.0295 71.7426C52.1679 71.7426 56.0581 70.6823 59.4454 68.82C57.493 59.7977 53.8074 51.5347 49.0034 44.7939Z" fill="#9F1D20"/>
</svg>
