<svg width="96" height="96" fill="none" xmlns="http://www.w3.org/2000/svg">
  <path d="M44 2.3093a8 8 0 018 0l33.5692 19.3812a8 8 0 014 6.9282v38.7624a7.9998 7.9998 0 01-4 6.9282L52 93.6905a7.9998 7.9998 0 01-8 0L10.4308 74.3093a7.9998 7.9998 0 01-4-6.9282V28.6187a8 8 0 014-6.9282L44 2.3093z" fill="#fff"/>
  <path fill-rule="evenodd" clip-rule="evenodd" d="M84.1907 22.9024L51.5701 4.069a7.233 7.233 0 00-7.2331 0L11.7165 22.9024a7.2332 7.2332 0 00-3.6166 6.2641v37.667a7.233 7.233 0 003.6166 6.264L44.337 91.931a7.233 7.233 0 007.2331 0l32.6206-18.8335a7.233 7.233 0 003.6165-6.264v-37.667a7.2333 7.2333 0 00-3.6165-6.2641zM53.1201 1.3844a10.333 10.333 0 00-10.333 0L10.1665 20.2178A10.3332 10.3332 0 005 29.1665v37.667a10.333 10.333 0 005.1665 8.9486l32.6206 18.8335a10.333 10.333 0 0010.333 0l32.6205-18.8335a10.333 10.333 0 005.1666-8.9486v-37.667a10.3332 10.3332 0 00-5.1666-8.9487L53.1201 1.3844z" fill="#F36"/>
  <path fill-rule="evenodd" clip-rule="evenodd" d="M41.756 63.2631c-3.7234 2.7287-8.7037 2.2583-11.1299-1.0552-2.4196-3.3067-1.3644-8.1996 2.359-10.9216 3.7167-2.7287 8.7037-2.2582 11.1232 1.0485 2.4263 3.3134 1.3711 8.2063-2.3523 10.9283z" fill="#3A3C5B"/>
  <path fill-rule="evenodd" clip-rule="evenodd" d="M30.5094 62.2933c2.4826 3.3904 7.5574 3.8525 11.3319 1.0864 3.7747-2.7595 4.8662-7.74 2.3836-11.1303-2.4759-3.3838-7.5575-3.8459-11.3253-1.0797m8.8564 12.0934l-.0855-.1166c-3.6723 2.6912-8.5579 2.2125-10.9278-1.024-2.3632-3.2297-1.3445-8.0349 2.3277-10.7195l.0002-.0002c3.6656-2.6912 8.5579-2.2123 10.9211 1.0173v.0001c2.3699 3.2365 1.3511 8.0417-2.321 10.7262l.0853.1167z" fill="#000"/>
  <path fill-rule="evenodd" clip-rule="evenodd" d="M39.6995 33.1665c4.6307 3.3874 5.9413 9.4699 2.9236 13.5831-3.011 4.1133-9.2078 4.698-13.8318 1.3106-4.6307-3.3873-5.9413-9.4766-2.9303-13.5898 3.0177-4.1132 9.2077-4.698 13.8385-1.3039z" fill="#000"/>
  <path fill-rule="evenodd" clip-rule="evenodd" d="M28.6485 48.2551c4.7094 3.4499 11.0642 2.8792 14.1694-1.3627 3.112-4.2419 1.7403-10.4709-2.9758-13.9207-4.7161-3.4566-11.064-2.8858-14.176 1.3559l-.0001.0002c-3.1051 4.2417-1.7337 10.4774 2.9825 13.9273zm.1427-.1948C39.842 32.9716 39.8421 32.9717 39.8421 32.9717l-.0001-.0001-.1426.195.1428-.1949m2.5859 13.6353c-2.9168 3.9845-8.9554 4.5833-13.4941 1.2584l-.0001-.0001c-4.5452-3.3247-5.7949-9.2673-2.8782-13.252 2.9235-3.9848 8.9555-4.5834 13.5009-1.2519l.0002.0001c4.5453 3.3249 5.7948 9.2607 2.8715 13.2453l-.0002.0002z" fill="#000"/>
  <path fill-rule="evenodd" clip-rule="evenodd" d="M35.6467 43.4495c-1.734-1.4248-1.8349-4.1804-.2218-6.1429 1.6197-1.9693 4.335-2.4129 6.069-.9813 1.7407 1.4248 1.8416 4.1737.2218 6.143-1.613 1.9692-4.3283 2.4061-6.069.9812z" fill="#0F0"/>
  <path fill-rule="evenodd" clip-rule="evenodd" d="M34.1949 43.0933c-1.7407-1.4315-1.8416-4.1804-.2285-6.1497 1.6197-1.9692 4.3417-2.4061 6.0758-.9812 1.7407 1.4248 1.8415 4.1804.2217 6.1497-1.613 1.9692-4.335 2.4061-6.069.9812z" fill="#000"/>
  <path fill-rule="evenodd" clip-rule="evenodd" d="M34.7162 46.4216c.9441.5229 1.8545 1.0271 2.6997 1.5899l.8033-1.2064c-.8794-.5856-1.8985-1.1514-2.892-1.703-.4769-.2648-.9478-.5262-1.3946-.785l2.6975-1.4974a.7256.7256 0 00.0917-.0604c1.1662-.9019 1.5488-2.2653 1.6894-3.451.0712-.6009.0843-1.1937.0908-1.7054.0009-.0652.0016-.1286.0023-.1901.0052-.4421.0092-.7917.0401-1.0671a.7246.7246 0 00-.092-.4422c-.773-1.3435-1.6642-2.1196-2.7007-2.5815-.9517-.4241-1.9936-.5632-3.0212-.7005a58.8355 58.8355 0 01-.1396-.0187.726.726 0 00-.2092.0024c-1.218.1919-2.047.8714-2.7232 1.657-.3332.3871-.643.8162-.9434 1.2343l-.0374.0521c-.2931.4081-.5824.8111-.9046 1.2054l-.0023.0028c-.415.513-.6839 1.0164-.7681 1.5399-.0869.5407.037 1.0152.2466 1.4338.199.3974.4912.7741.7683 1.1238l.1047.1318c.2568.323.5178.6513.7722 1.0314.927 1.3884 2.4328 2.4403 3.9667 3.3515.6266.3722 1.2478.7163 1.855 1.0526zm-1.8386-2.7437c-1.1873-.7588-2.1653-1.5478-2.7779-2.4655l-.0004-.0006c-.2899-.4332-.5894-.8097-.8444-1.1301l-.1013-.1275c-.2879-.3633-.4862-.6289-.6082-.8725-.1113-.2224-.1386-.3877-.1117-.5549.0296-.1844.1394-.4569.4629-.8572.3511-.4298.664-.8655.9512-1.2656l.0445-.0619c.3054-.4252.5795-.803.8646-1.1343.5355-.6221 1.0574-1.0173 1.7524-1.1535 1.0777.1446 1.9118.2615 2.6525.5916.6815.3037 1.316.8065 1.9203 1.7888-.0199.2983-.0235.6325-.0272.9636-.0007.0622-.0013.1243-.0021.1861-.0065.5075-.0194 1.0343-.0809 1.5533-.1226 1.0336-.4227 1.898-1.0966 2.4433l-3.1814 1.766.1837.3309z" fill="#00F"/>
  <path fill-rule="evenodd" clip-rule="evenodd" d="M33.0725 41.4333c-1.5996 0-2.8967-1.2702-2.8967-2.8429 0-1.5727 1.2971-2.843 2.8967-2.843 1.5996 0 2.8968 1.2703 2.8968 2.843s-1.2972 2.8429-2.8968 2.8429z" fill="#F36"/>
  <path fill-rule="evenodd" clip-rule="evenodd" d="M34.3629 40.1966c-.5981.4906-1.492.3965-1.9961-.2151s-.4234-1.5055.1815-1.9961c.5981-.4906 1.492-.3966 1.9894.2151.5041.6116.4234 1.5055-.1748 1.9961z" fill="#00F"/>
  <path fill-rule="evenodd" clip-rule="evenodd" d="M33.9527 46.6319c1.3605.4407 2.6454.8568 3.7116 1.5676l.8039-1.206c-1.25-.8333-2.7702-1.3233-4.1349-1.7631a68.8563 68.8563 0 01-.813-.2657c-1.6296-.548-2.8708-1.1074-3.5484-2.1193-.2-.3-.4089-.5952-.6163-.8882-.488-.6899-.9674-1.3675-1.302-2.066-.4625-.9657-.496-1.667-.0237-2.2488a.7157.7157 0 00.0505-.0704c1.2919-2.0503 2.8-3.2566 4.5498-3.2772 1.0389.1398 2.0528.4069 2.8536.8166.7605.389 1.2586.8678 1.4765 1.4237-.0205.2423-.0324.5036-.044.759-.0051.1111-.0101.2212-.0158.328-.0227.4299-.0566.8558-.1365 1.2717-.1573.8183-.4856 1.5658-1.2381 2.1478l-.0042.0033a.0623.0623 0 00-.004.0032l-3.0447 2.4262.9033 1.1335 3.0407-2.4231c1.1128-.8626 1.57-1.9752 1.7703-3.0173.099-.515.1369-1.02.1606-1.4688.0071-.1351.0129-.2621.0184-.3823.0136-.2974.0253-.554.0509-.7928a.7257.7257 0 00-.0284-.2918c-.3486-1.1242-1.2391-1.8962-2.2449-2.4107-1.0098-.5165-2.2185-.8188-3.374-.9698a.7187.7187 0 00-.0939-.0061c-2.5055 0-4.4032 1.7163-5.7998 3.9193-.9722 1.2309-.6735 2.6175-.1298 3.7529.3911.8166.9879 1.6604 1.5016 2.3868.1888.2669.3663.5179.5183.7459l.0008.0011c.9825 1.4679 2.6883 2.1484 4.2912 2.6874.3007.1011.5993.1978.8944.2934z" fill="#00F"/>
  <path fill-rule="evenodd" clip-rule="evenodd" d="M39.3231 48.3222c-.1949.3428-1.0283.2285-1.855-.2487-.8334-.4772-1.3442-1.1426-1.1493-1.4853.2016-.3361 1.0283-.2285 1.8617.2486.8267.484 1.3442 1.1426 1.1426 1.4854z" fill="#00F"/>
  <path fill-rule="evenodd" clip-rule="evenodd" d="M63.5925 51.3468c3.7167 2.722 4.7719 7.6216 2.3456 10.9283-2.4263 3.3134-7.4065 3.7839-11.1299 1.0619-3.7167-2.7287-4.7719-7.6216-2.3457-10.9283 2.4263-3.3135 7.4066-3.7907 11.13-1.0619z" fill="#000"/>
  <path fill-rule="evenodd" clip-rule="evenodd" d="M54.7229 63.4537c3.7745 2.7593 8.8493 2.2971 11.3319-1.0933 2.4826-3.3836 1.3909-8.3708-2.3768-11.1303-3.7747-2.7663-8.8494-2.2971-11.332 1.093-2.4828 3.3838-1.3909 8.3643 2.3766 11.1304l.0003.0002zm.1708-.2333c-3.6658-2.6913-4.6843-7.4965-2.3146-10.7262l.0001-.0002c2.37-3.2366 7.2558-3.7218 10.9279-1.0307 3.6656 2.6846 4.6843 7.4965 2.3145 10.7262l-.0001.0001c-2.3699 3.2365-7.2554 3.7153-10.9278 1.0308z" fill="#000"/>
  <path fill-rule="evenodd" clip-rule="evenodd" d="M48.1611 57.4629c-4.3015 0-7.7829-2.7825-7.7829-6.2236 0-3.4345 3.4814-6.2237 7.7829-6.2237 4.3014 0 7.7829 2.7892 7.7829 6.2237 0 3.4411-3.4815 6.2236-7.7829 6.2236z" fill="#FF0"/>
  <path fill-rule="evenodd" clip-rule="evenodd" d="M40.0881 51.2392c0 3.6586 3.6753 6.5137 8.073 6.5137s8.0729-2.8551 8.0729-6.5137c0-3.6516-3.675-6.5136-8.0729-6.5136-4.3979 0-8.073 2.862-8.073 6.5136zm8.073 5.9336c-4.2052 0-7.4928-2.7098-7.4928-5.9336 0-3.2172 3.2879-5.9335 7.4928-5.9335s7.4928 2.7163 7.4928 5.9335c0 3.2238-3.2877 5.9336-7.4928 5.9336z" fill="#000"/>
  <path fill-rule="evenodd" clip-rule="evenodd" d="M42.8247 51.1653c-1.7206 0-3.1118-1.398-3.1118-3.1118 0-1.7206 1.3912-3.1118 3.1118-3.1118 1.7206 0 3.1185 1.3912 3.1185 3.1118 0 1.7138-1.3979 3.1118-3.1185 3.1118z" fill="#fff"/>
  <path fill-rule="evenodd" clip-rule="evenodd" d="M39.3743 48.0535c0 1.9004 1.5423 3.4504 3.4504 3.4504 1.907 0 3.4571-1.5491 3.4571-3.4504 0-1.9085-1.5505-3.4504-3.4571-3.4504-1.9076 0-3.4504 1.5429-3.4504 3.4504zm3.4504 2.7733c-1.5332 0-2.7733-1.2459-2.7733-2.7733 0-1.5336 1.2397-2.7732 2.7733-2.7732 1.5345 0 2.7799 1.2406 2.7799 2.7732 0 1.5264-1.2459 2.7733-2.7799 2.7733zM67.242 48.4366c-4.5972 3.3672-10.7536 2.7825-13.7444-1.3039-2.9976-4.0863-1.6937-10.1285 2.9034-13.5024 4.5972-3.3672 10.7536-2.7825 13.7444 1.3039 2.9976 4.093 1.6937 10.1352-2.9034 13.5024z" fill="#000"/>
  <path fill-rule="evenodd" clip-rule="evenodd" d="M53.3028 47.2756c3.085 4.2149 9.3995 4.7857 14.082 1.3559 4.6825-3.4297 6.0473-9.6183 2.9556-13.84-3.085-4.215-9.3995-4.7858-14.082-1.356l-.0002.0001c-4.6821 3.4363-6.0473 9.6248-2.9554 13.84zm13.7965.9662c-4.5117 3.3046-10.5101 2.706-13.4067-1.2517l-.0002-.0002c-2.9031-3.9576-1.6605-9.8533 2.8516-13.1648 4.5117-3.3045 10.5099-2.7059 13.4066 1.2518 2.9034 3.9645 1.6605 9.8602-2.8513 13.1649z" fill="#000"/>
  <path fill-rule="evenodd" clip-rule="evenodd" d="M68.2569 45.822c-1.7273 1.4181-4.4292.9745-6.0355-.9813s-1.5122-4.6912.2151-6.1093c1.7273-1.4182 4.4291-.9813 6.0354.9812 1.6064 1.9558 1.5123 4.6913-.215 6.1094z" fill="#0F0"/>
  <path fill-rule="evenodd" clip-rule="evenodd" d="M66.8185 45.822c-1.7273 1.4181-4.4291.9745-6.0354-.9813s-1.5122-4.6912.215-6.1026c1.7273-1.4182 4.4292-.9813 6.0355.9745s1.5055 4.6913-.2151 6.1094z" fill="#000"/>
  <path fill-rule="evenodd" clip-rule="evenodd" d="M58.2203 46.1819c-.1728-.0998-.4031-.2966-.7248-.6945l-.0007-.0008c-1.3835-1.7056-1.8395-3.7691-.8671-5.2309.1005-.1506.1929-.2894.2783-.4177.639-.9601.8878-1.3338 1.2345-1.6668.1199-.1151.25-.224.411-.3452l-.0019.0028 2.0744 1.4341c.8957.6927 1.823 1.5498 2.4445 2.4611.6295.923.8703 1.785.6313 2.5604-.247.8003-.4535 1.0247-.6946 1.1574-.1508.0831-.3646.1553-.7067.2236-.3437.0687-.7647.1243-1.3212.1977-.5727.0756-1.0406.1835-1.4174.2704l-.0262.006c-.4004.0923-.646.1452-.8554.1521-.1752.0058-.3069-.0223-.458-.1097zm1.6112-9.2289l1.6325 1.1286a.829.829 0 01.0307.0224c.9547.7368 2.0234 1.7068 2.7712 2.8034.7433 1.0898 1.2451 2.4222.8188 3.8043v.0001c-.284.9202-.642 1.5931-1.3805 1.9997-.339.1866-.7187.2947-1.1216.3752-.3919.0783-.8544.1393-1.3779.2084l-.0379.0049c-.5034.0665-.9146.1613-1.2939.2487l-.0136.0032-.0242.0055c-.3571.0824-.7397.1707-1.1092.1828-.412.0136-.8176-.0646-1.2309-.3034-.3914-.2262-.7524-.5754-1.1262-1.0376-1.56-1.9236-2.4345-4.7122-.9475-6.9468l.0006-.0009c.1033-.1547.1996-.2998.2902-.4362.6055-.9121.9551-1.4387 1.4244-1.8894.4326-.4155.9782-.7761 1.9022-1.3869.202-.1335.422-.279.6629-.4396 1.1217-.7513 3.1152-1.4684 5.0171-1.4848.9602-.0083 1.9502.1615 2.8036.6463.8714.4949 1.5544 1.2933 1.9106 2.4431l-1.3844.4289c-.2487-.8027-.6956-1.3014-1.242-1.6117-.5642-.3205-1.2797-.4641-2.0753-.4573-1.6095.0139-3.3288.6406-4.2236 1.2401l-.0014.0009c-.2515.1677-.475.3158-.6747.4481z" fill="#00F"/>
  <path fill-rule="evenodd" clip-rule="evenodd" d="M59.5667 45.1433c-1.4114 0-2.5473-1.156-2.5473-2.5876 0-1.4315 1.1359-2.5875 2.5473-2.5875 1.4046 0 2.5405 1.156 2.5405 2.5875 0 1.4316-1.1359 2.5876-2.5405 2.5876z" fill="#F36"/>
  <path fill-rule="evenodd" clip-rule="evenodd" d="M60.4604 44.0409c-.5981.4839-1.4853.3898-1.9826-.2218-.4974-.6049-.4235-1.4987.168-1.9827.5914-.4906 1.4853-.3898 1.9827.2151.4973.6116.4234 1.4988-.1681 1.9894z" fill="#00F"/>
  <path fill-rule="evenodd" clip-rule="evenodd" d="M58.6506 46.6656c-.4633-.0538-.9065-.2539-1.518-1.0102l-.0007-.0009c-.6653-.8203-1.2597-2.0059-1.5394-3.1914-.2849-1.207-.2099-2.2564.2417-2.9327l.0001-.0001c.1756-.263.3257-.4902.4567-.6884.5102-.772.7302-1.1049 1.0357-1.4093.3413-.34.7759-.629 1.8638-1.3527.1425-.0947.2961-.1969.4622-.3077l.0014-.0009c.3977-.2664 1.0911-.5396 1.9688-.7267.8653-.1844 1.8541-.2731 2.8118-.2091 1.9694.1316 3.5159.8672 3.9835 2.3763l1.3845-.4289c-.7423-2.3957-3.1174-3.2496-5.2713-3.3936-1.1039-.0738-2.2273.0282-3.2106.2378-.9707.2069-1.8622.5308-2.4726.9396-.1736.1157-.336.2235-.4885.3248-1.0315.6847-1.6062 1.0662-2.0559 1.5143-.4193.4178-.7411.906-1.2654 1.7014-.1239.1879-.2591.393-.4095.6184-.7782 1.1652-.7705 2.7-.4471 4.0704.3285 1.3918 1.0177 2.7768 1.8241 3.7711.7796.964 1.5394 1.4291 2.4773 1.5382.4346.0506.876.0207 1.3186-.0318.236-.028.5091-.0678.7925-.109.218-.0318.442-.0644.66-.0933m-2.0036-12.702v.0001-.0001c-.3341 11.5274-.0252 11.5131.3803 11.465zm.3803 11.465c.2339-.0277.4625-.0613.7173-.0987l-.7173.0987zm.7173-.0987c.2139-.0314.4464-.0655.7162-.1012l-.7162.1012zm1.2541-.17c-.1651.0208-.3431.0431-.5377.0688h-.0002m.5379-.0688c.3189-.04.5894-.074.8366-.1139l-.8366.1139zm.8366-.1139c.3699-.0596.6131-.1221.7917-.2021l-.7917.2021zm.7917-.2021c.2704-.1211.4963-.3184.7316-1.074l-.7316 1.074zm.7316-1.074c.5982-1.9343.2154-4.1891-1.2724-5.3989l-4.0077-1.6754.5591-1.3372 4.0998 1.7138a.7247.7247 0 01.1635.0952c2.1764 1.6814 2.565 4.695 1.8421 7.0314l-.0003.0012c-.3023.9712-.7283 1.6106-1.5232 1.9666-.354.1586-.7468.2448-1.1536.3104-.2719.0438-.5839.083-.9202.1253-.16.0201-.3255.041-.4948.0633" fill="#00F"/>
  <path fill-rule="evenodd" clip-rule="evenodd" d="M53.1279 51.1653c-1.7205 0-3.1185-1.398-3.1185-3.1118 0-1.7206 1.398-3.1118 3.1185-3.1118 1.7206 0 3.1118 1.3912 3.1118 3.1118 0 1.7138-1.3912 3.1118-3.1118 3.1118z" fill="#fff"/>
  <path fill-rule="evenodd" clip-rule="evenodd" d="M49.6708 48.0535c0 1.9013 1.55 3.4504 3.4571 3.4504 1.908 0 3.4504-1.55 3.4504-3.4504 0-1.9075-1.5429-3.4504-3.4504-3.4504-1.9066 0-3.4571 1.5419-3.4571 3.4504zm3.4571 2.7733c-1.5341 0-2.78-1.2469-2.78-2.7733 0-1.5326 1.2454-2.7732 2.78-2.7732 1.5336 0 2.7732 1.2396 2.7732 2.7732 0 1.5274-1.2401 2.7733-2.7732 2.7733zM42.9188 49.5994c-.8603 0-1.5593-.699-1.5593-1.5593s.699-1.5593 1.5593-1.5593 1.5525.699 1.5525 1.5593-.6922 1.5593-1.5525 1.5593z" fill="#000"/>
  <path fill-rule="evenodd" clip-rule="evenodd" d="M53.2421 49.4246c-.867 0-1.5592-.699-1.5592-1.5526 0-.8603.6922-1.5525 1.5592-1.5525a1.549 1.549 0 011.5526 1.5525c0 .8536-.6923 1.5526-1.5526 1.5526z" fill="#000"/>
  <path fill-rule="evenodd" clip-rule="evenodd" d="M46.5432 53.965c-.4757-.3553-.6499-.7124-.6067-1.0099l-.8602-.1249c-.1114.7678.3721 1.402.9468 1.8312.5887.4396 1.3772.7518 2.1425.8803.7527.1264 1.5711.0892 2.1711-.2773.3108-.1898.5601-.4676.6943-.8405.1277-.3548.1397-.7634.0448-1.2151v-.1347h-.8692v.1815a.439.439 0 00.0106.0956c.0803.3555.0582.6055-.0041.7784-.0603.1676-.1697.2954-.3295.393-.3412.2084-.911.2732-1.574.1619-.6503-.1092-1.3047-.3747-1.7664-.7195z" fill="#F36"/>
  <path fill-rule="evenodd" clip-rule="evenodd" d="M46.9052 43.0794c-.047.632-.096 1.2918-.0496 1.9079l.6752-.0509c-.0425-.5637.0006-1.1398.0459-1.7472.0207-.2763.0418-.5591.0555-.8502.0425-.8974.0088-1.8385-.413-2.6994l-.648-1.5433a.3386.3386 0 00-.6032-.0419l-.8469 1.4249a.3388.3388 0 00.226.5052l.6519.1277.1302-.6645-.1806-.0354.2583-.4345.3919.9333a.316.316 0 00.0086.0187c.3467.7025.3899 1.5019.3485 2.3772-.0118.2491-.0311.5084-.0507.7724zM48.7029 43.1847c.0465.6092.0906 1.1868.048 1.7517l.6753.0509c.0466-.6181-.0038-1.2799-.052-1.9135-.0199-.2624-.0395-.5199-.0517-.7674-.043-.8754-.0013-1.6744.3452-2.3766a.316.316 0 00.0086-.0187l.3919-.9333.2582.4345-.1805.0354.1301.6645.652-.1277a.3386.3386 0 00.2259-.5052l-.8468-1.4249a.3384.3384 0 00-.6032.0419l-.6481 1.5433c-.4219.8613-.4537 1.8028-.4096 2.7001.0142.2892.0357.5703.0567.845z" fill="#000"/>
  <path fill-rule="evenodd" clip-rule="evenodd" d="M33.4825 61.6768c-1.7877-1.4719-1.8482-4.3552-.1344-6.4522 1.7206-2.0902 4.5636-2.5943 6.3581-1.1224 1.7877 1.4719 1.8482 4.3552.1277 6.4454-1.7139 2.097-4.5569 2.6011-6.3514 1.1292z" fill="#F36"/>
  <path fill-rule="evenodd" clip-rule="evenodd" d="M46.8382 59.459l1.0606 1.759-.4968.2996-1.1023-1.8281a.2906.2906 0 01-.0416-.1498v-2.0096h.5801v1.9289zM49.2913 59.4656l1.0606 1.759-.4968.2996-1.1023-1.8281a.2906.2906 0 01-.0416-.1498V57.53h.5801v1.9356z" fill="#000"/>
  <path fill-rule="evenodd" clip-rule="evenodd" d="M35.5795 59.291c-.8065-.6587-.6788-2.1507.289-3.3269.9678-1.1829 2.3994-1.5996 3.2126-.9342.7998.6586.6721 2.1507-.289 3.3336-.9678 1.1761-2.4061 1.5928-3.2126.9275z" fill="#00F"/>
  <path fill-rule="evenodd" clip-rule="evenodd" d="M62.7523 61.6836c-1.7945 1.4719-4.6375.9678-6.358-1.1291-1.7139-2.0903-1.6534-4.9803.1344-6.4454 1.7945-1.4719 4.6375-.9679 6.358 1.1224 1.7139 2.0969 1.6534 4.9802-.1344 6.4521z" fill="#F36"/>
  <path fill-rule="evenodd" clip-rule="evenodd" d="M60.4134 59.4792c-.8065.6587-2.2448.242-3.2059-.9275-.9678-1.1762-1.0955-2.6682-.2823-3.3269.7998-.6653 2.2381-.2486 3.2059.9275.9611 1.1695 1.0888 2.6615.2823 3.3269z" fill="#00F"/>
  <path d="M66.1786 51.0415h-.2457v.6815h-.1003v-.6815h-.2452v-.083h.5912v.083zM66.4223 50.9585l.2499.6238.2499-.6238h.1308v.7645h-.1008v-.2977l.0094-.3214-.251.6191h-.0771l-.2505-.6175.01.3198v.2977h-.1008v-.7645h.1302z" fill="gray"/>
  <path fill-rule="evenodd" clip-rule="evenodd" d="M69.8632 38.2878c-.41.2823-1.2972-.289-1.9894-1.2837-.699-.988-.9275-2.0231-.5243-2.3053.4033-.2823 1.2972.289 1.9894 1.2837.6923.988.9275 2.023.5243 2.3053z" fill="#00F"/>
</svg>
