<svg width="96" height="96" viewBox="0 0 96 96" fill="none" xmlns="http://www.w3.org/2000/svg">
<path d="M44 2.30935C46.4752 0.880283 49.5248 0.880284 52 2.30935L85.5692 21.6905C88.0444 23.1196 89.5692 25.7606 89.5692 28.6187V67.3811C89.5692 70.2393 88.0444 72.8803 85.5692 74.3093L52 93.6905C49.5248 95.1196 46.4752 95.1196 44 93.6905L10.4308 74.3093C7.95558 72.8803 6.43079 70.2393 6.43079 67.3811V28.6187C6.43079 25.7606 7.95558 23.1196 10.4308 21.6905L44 2.30935Z" fill="white"/>
<path fill-rule="evenodd" clip-rule="evenodd" d="M84.1907 22.9024L51.5701 4.06896C49.3322 2.77689 46.575 2.77689 44.337 4.06896L11.7165 22.9024C9.47853 24.1945 8.09991 26.5824 8.09991 29.1665V66.8335C8.09991 69.4176 9.47853 71.8055 11.7165 73.0975L44.337 91.931C46.575 93.2231 49.3322 93.2231 51.5701 91.931L84.1907 73.0975C86.4286 71.8055 87.8072 69.4176 87.8072 66.8335V29.1665C87.8072 26.5824 86.4286 24.1945 84.1907 22.9024ZM53.1201 1.38436C49.923 -0.461454 45.9841 -0.461455 42.7871 1.38436L10.1665 20.2178C6.96946 22.0637 5 25.4749 5 29.1665V66.8335C5 70.5251 6.96946 73.9363 10.1665 75.7821L42.7871 94.6156C45.9841 96.4614 49.923 96.4614 53.1201 94.6156L85.7406 75.7821C88.9377 73.9363 90.9071 70.5251 90.9071 66.8335V29.1665C90.9071 25.4749 88.9377 22.0637 85.7406 20.2178L53.1201 1.38436Z" fill="#DE3423"/>
<g clip-path="url(#clip0)">
<path fill-rule="evenodd" clip-rule="evenodd" d="M33.0448 41.8611C33.4596 42.4382 36.9577 43.5268 42.1756 44.6606C47.3936 45.67 52.8201 49.6555 57.0402 48.4266C59.8947 47.5937 62.9914 40.1727 62.9914 39.0705V38.9574C62.9914 38.1879 62.4196 37.57 61.4487 37.0563C57.4685 35.0036 56.7151 34.2477 55.2396 34.6573C47.5797 36.7915 34.0561 35.7007 33.0448 41.8611Z" fill="#380D09"/>
<path fill-rule="evenodd" clip-rule="evenodd" d="M33.0448 56.9293C33.4596 57.5155 36.9577 58.595 42.1756 59.7311C48.0058 60.8039 53.0757 64.3005 57.2981 63.0693C60.1526 62.2365 62.9914 55.2432 62.9914 54.1388V54.0302C62.9914 53.2629 62.4196 52.6428 61.4487 52.1313C58.4125 50.5018 54.401 48.7071 52.9277 49.1168C45.2544 51.2464 34.9978 51.7149 33.0448 56.9293Z" fill="#380D09"/>
<path fill-rule="evenodd" clip-rule="evenodd" d="M33.0017 45.0996V45.2082C32.9994 45.1721 32.9994 45.1358 33.0017 45.0996V45.0996Z" fill="#555555"/>
<path fill-rule="evenodd" clip-rule="evenodd" d="M57.2866 26.9127C50.2321 28.97 39.0405 30.131 33.0108 30.131V41.7525C33.0127 41.7924 33.0277 41.8306 33.0534 41.8611C37.1681 41.8611 49.8711 40.5032 57.5355 38.3758C58.8722 38.0324 60.1828 37.593 61.4574 37.0609C62.3947 36.6354 63.0001 36.1873 63.0001 35.7211V24C62.9911 25.1044 60.1411 26.0821 57.2866 26.9127Z" fill="#DE3423"/>
<path fill-rule="evenodd" clip-rule="evenodd" d="M57.2866 41.9833C53.0642 43.2122 47.3664 44.1265 42.1753 44.6606C38.6907 45.0205 35.4348 45.2083 33.0108 45.2083V56.8208C33.0127 56.8607 33.0277 56.8989 33.0534 56.9294C37.1681 56.9294 49.8711 55.5715 57.5355 53.4463C58.8719 53.102 60.1824 52.6626 61.4574 52.1314C62.3947 51.7037 63.0001 51.2578 63.0001 50.7916V39.0706C62.9911 40.1727 60.1411 41.1504 57.2866 41.9833Z" fill="#DE3423"/>
<path fill-rule="evenodd" clip-rule="evenodd" d="M57.2865 57.063C53.0641 58.2919 47.3663 59.2039 42.1752 59.7403C38.6861 60.1002 35.4257 60.288 33.0017 60.288V72C37.0739 72 49.8418 70.6534 57.5264 68.517C60.3585 67.7294 62.991 66.8331 62.991 65.86V54.1389C62.991 55.2524 60.141 56.221 57.2865 57.063Z" fill="#DE3423"/>
</g>
<defs>
<clipPath id="clip0">
<rect width="48" height="48" fill="white" transform="translate(24 24)"/>
</clipPath>
</defs>
</svg>
