<svg width="96" height="96" fill="none" xmlns="http://www.w3.org/2000/svg">
  <path d="M44 2.3093a8 8 0 018 0l33.5692 19.3812a8 8 0 014 6.9282v38.7624a7.9998 7.9998 0 01-4 6.9282L52 93.6905a7.9998 7.9998 0 01-8 0L10.4308 74.3093a7.9998 7.9998 0 01-4-6.9282V28.6187a8 8 0 014-6.9282L44 2.3093z" fill="#fff"/>
  <path fill-rule="evenodd" clip-rule="evenodd" d="M84.1907 22.9024L51.5701 4.069a7.233 7.233 0 00-7.2331 0L11.7165 22.9024a7.2332 7.2332 0 00-3.6166 6.2641v37.667a7.233 7.233 0 003.6166 6.264L44.337 91.931a7.233 7.233 0 007.2331 0l32.6206-18.8335a7.233 7.233 0 003.6165-6.264v-37.667a7.2333 7.2333 0 00-3.6165-6.2641zM53.1201 1.3844a10.333 10.333 0 00-10.333 0L10.1665 20.2178A10.3332 10.3332 0 005 29.1665v37.667a10.333 10.333 0 005.1665 8.9486l32.6206 18.8335a10.333 10.333 0 0010.333 0l32.6205-18.8335a10.333 10.333 0 005.1666-8.9486v-37.667a10.3332 10.3332 0 00-5.1666-8.9487L53.1201 1.3844z" fill="#000"/>
  <path d="M63.1423 61.8405h1.1806c0 3.4543-.5575 5.9686-1.6725 7.5427-1.115 1.5741-2.5252 2.3612-4.2305 2.3612-1.3773 0-2.7-.5138-3.9681-1.5414-1.268-1.0275-2.4049-3.815-3.4106-8.3625l-2.8203-12.7242-9.7728 22.169H32.25l14.036-30.2365c-.7433-3.9134-1.6397-6.8103-2.6891-8.6905-1.0495-1.8802-2.3503-2.8203-3.9026-2.8203-1.2462 0-2.3284.47-3.2466 1.4102-.9183.9401-1.443 2.4158-1.5741 4.4272H33.693c.0655-3.2139.7105-5.7827 1.9348-7.7067 1.2243-1.9239 2.7548-2.8968 4.5912-2.9187 1.1806 0 2.2956.481 3.3451 1.443 1.0494.9619 1.9676 2.6235 2.7547 4.9847.7871 2.3612 2.0005 7.2366 3.6402 14.6263l2.3284 10.3958c.9401 4.307 1.9239 7.182 2.9515 8.625 1.0275 1.4429 2.2737 2.1753 3.7385 2.1972 2.4487 0 3.837-1.7272 4.1649-5.1815z" fill="#000"/>
</svg>
