<svg width="96" height="96" viewBox="0 0 96 96" fill="none" xmlns="http://www.w3.org/2000/svg">
<path d="M44 2.30935C46.4752 0.880283 49.5248 0.880284 52 2.30935L85.5692 21.6905C88.0444 23.1196 89.5692 25.7606 89.5692 28.6187V67.3811C89.5692 70.2393 88.0444 72.8803 85.5692 74.3093L52 93.6905C49.5248 95.1196 46.4752 95.1196 44 93.6905L10.4308 74.3093C7.95558 72.8803 6.43079 70.2393 6.43079 67.3811V28.6187C6.43079 25.7606 7.95558 23.1196 10.4308 21.6905L44 2.30935Z" fill="white"/>
<path fill-rule="evenodd" clip-rule="evenodd" d="M84.1907 22.9024L51.5701 4.06896C49.3322 2.77689 46.575 2.77689 44.337 4.06896L11.7165 22.9024C9.47853 24.1945 8.09991 26.5824 8.09991 29.1665V66.8335C8.09991 69.4176 9.47853 71.8055 11.7165 73.0975L44.337 91.931C46.575 93.2231 49.3322 93.2231 51.5701 91.931L84.1907 73.0975C86.4286 71.8055 87.8072 69.4176 87.8072 66.8335V29.1665C87.8072 26.5824 86.4286 24.1945 84.1907 22.9024ZM53.1201 1.38436C49.923 -0.461454 45.9841 -0.461455 42.7871 1.38436L10.1665 20.2178C6.96946 22.0637 5 25.4749 5 29.1665V66.8335C5 70.5251 6.96946 73.9363 10.1665 75.7821L42.7871 94.6156C45.9841 96.4614 49.923 96.4614 53.1201 94.6156L85.7406 75.7821C88.9377 73.9363 90.9071 70.5251 90.9071 66.8335V29.1665C90.9071 25.4749 88.9377 22.0637 85.7406 20.2178L53.1201 1.38436Z" fill="#3178C6"/>
<path d="M67.3125 24H28.6875C26.0987 24 24 26.0987 24 28.6875V67.3125C24 69.9013 26.0987 72 28.6875 72H67.3125C69.9013 72 72 69.9013 72 67.3125V28.6875C72 26.0987 69.9013 24 67.3125 24Z" fill="#3178C6"/>
<path d="M67.3125 24H28.6875C26.0987 24 24 26.0987 24 28.6875V67.3125C24 69.9013 26.0987 72 28.6875 72H67.3125C69.9013 72 72 69.9013 72 67.3125V28.6875C72 26.0987 69.9013 24 67.3125 24Z" fill="#3178C6"/>
<path fill-rule="evenodd" clip-rule="evenodd" d="M53.713 62.196V66.8892C54.476 67.2803 55.3783 67.5736 56.4201 67.7692C57.4618 67.9647 58.5597 68.0625 59.714 68.0625C60.8389 68.0625 61.9074 67.955 62.9198 67.7398C63.9322 67.5248 64.82 67.1703 65.5829 66.6765C66.3458 66.1828 66.9499 65.5374 67.3949 64.7406C67.8399 63.9437 68.0625 62.9587 68.0625 61.7854C68.0625 60.9347 67.9354 60.1892 67.681 59.5488C67.4267 58.9084 67.0599 58.3388 66.5806 57.8402C66.1013 57.3415 65.5267 56.8942 64.8566 56.4982C64.1866 56.1022 63.431 55.7282 62.5897 55.3762C61.9735 55.122 61.4209 54.8752 60.9318 54.6356C60.4427 54.396 60.027 54.1516 59.6846 53.9023C59.3422 53.6529 59.0782 53.3889 58.8923 53.1103C58.7065 52.8316 58.6135 52.5163 58.6135 52.1643C58.6135 51.8417 58.6967 51.5508 58.863 51.2917C59.0293 51.0325 59.2641 50.8102 59.5673 50.6243C59.8705 50.4386 60.2422 50.2943 60.6823 50.1917C61.1226 50.089 61.6116 50.0377 62.1496 50.0377C62.5408 50.0377 62.9541 50.0671 63.3893 50.1257C63.8246 50.1844 64.2623 50.2748 64.7026 50.397C65.1428 50.5192 65.5706 50.6733 65.9864 50.859C66.4021 51.0448 66.786 51.2599 67.1381 51.5044V47.1191C66.4241 46.8454 65.644 46.6425 64.7979 46.5105C63.9518 46.3785 62.981 46.3125 61.8855 46.3125C60.7703 46.3125 59.714 46.4323 58.7163 46.6718C57.7186 46.9114 56.8407 47.2853 56.0826 47.7938C55.3245 48.3023 54.7254 48.95 54.2853 49.7371C53.8451 50.5241 53.625 51.4652 53.625 52.5603C53.625 53.9585 54.0285 55.1513 54.8355 56.1389C55.6424 57.1264 56.8675 57.9623 58.5109 58.6468C59.1564 58.9108 59.758 59.1698 60.3156 59.4241C60.8731 59.6783 61.3549 59.9423 61.7607 60.2161C62.1667 60.4898 62.487 60.7881 62.7218 61.1107C62.9566 61.4333 63.074 61.8 63.074 62.2107C63.074 62.5138 63.0006 62.7949 62.8538 63.054C62.7071 63.3131 62.4846 63.5379 62.1863 63.7286C61.8879 63.9193 61.5162 64.0684 61.0712 64.1759C60.6261 64.2835 60.1053 64.3373 59.5086 64.3373C58.4913 64.3373 57.4838 64.1588 56.4861 63.8019C55.4884 63.4451 54.564 62.9098 53.713 62.196V62.196ZM45.8231 50.6327H51.8438V46.7812H35.0625V50.6327H41.0537V67.7812H45.8231V50.6327Z" fill="white"/>
</svg>
