<svg width="96" height="96" viewBox="0 0 96 96" fill="none" xmlns="http://www.w3.org/2000/svg">
<path d="M44 2.30935C46.4752 0.880283 49.5248 0.880284 52 2.30935L85.5692 21.6905C88.0444 23.1196 89.5692 25.7606 89.5692 28.6187V67.3811C89.5692 70.2393 88.0444 72.8803 85.5692 74.3093L52 93.6905C49.5248 95.1196 46.4752 95.1196 44 93.6905L10.4308 74.3093C7.95558 72.8803 6.43079 70.2393 6.43079 67.3811V28.6187C6.43079 25.7606 7.95558 23.1196 10.4308 21.6905L44 2.30935Z" fill="white"/>
<path fill-rule="evenodd" clip-rule="evenodd" d="M84.1907 22.9024L51.5701 4.06896C49.3322 2.77689 46.575 2.77689 44.337 4.06896L11.7165 22.9024C9.47853 24.1945 8.09991 26.5824 8.09991 29.1665V66.8335C8.09991 69.4176 9.47853 71.8055 11.7165 73.0975L44.337 91.931C46.575 93.2231 49.3322 93.2231 51.5701 91.931L84.1907 73.0975C86.4286 71.8055 87.8072 69.4176 87.8072 66.8335V29.1665C87.8072 26.5824 86.4286 24.1945 84.1907 22.9024ZM53.1201 1.38436C49.923 -0.461454 45.9841 -0.461455 42.7871 1.38436L10.1665 20.2178C6.96946 22.0637 5 25.4749 5 29.1665V66.8335C5 70.5251 6.96946 73.9363 10.1665 75.7821L42.7871 94.6156C45.9841 96.4614 49.923 96.4614 53.1201 94.6156L85.7406 75.7821C88.9377 73.9363 90.9071 70.5251 90.9071 66.8335V29.1665C90.9071 25.4749 88.9377 22.0637 85.7406 20.2178L53.1201 1.38436Z" fill="#004E8C"/>
<g clip-path="url(#clip0)">
<path d="M48 72C61.2548 72 72 61.2548 72 48C72 34.7452 61.2548 24 48 24C34.7452 24 24 34.7452 24 48C24 61.2548 34.7452 72 48 72Z" fill="#004E8C"/>
<path opacity="0.1" d="M31.365 30.75C28.9252 32.9241 26.9552 35.5736 25.5756 38.536C24.1959 41.4984 23.4359 44.7114 23.3419 47.9779C23.2479 51.2445 23.8221 54.4959 25.0291 57.5327C26.2361 60.5695 28.0506 63.3278 30.3614 65.6386C32.6722 67.9494 35.4305 69.7639 38.4673 70.9709C41.5042 72.178 44.7555 72.7521 48.0221 72.6581C51.2886 72.5642 54.5016 71.8041 57.464 70.4245C60.4264 69.0449 63.0759 67.0748 65.25 64.635L31.365 30.75Z" fill="white"/>
<path d="M48.9675 38.55L42 57.4499H39.5325L32.6775 38.55H35.145L40.395 53.55C40.576 54.0938 40.7041 54.6539 40.7775 55.2225H40.83C40.9086 54.6391 41.0494 54.0658 41.25 53.5124L46.59 38.5125L48.9675 38.55Z" fill="white"/>
<path d="M51.69 57.4499V38.5499H57.0675C58.464 38.4752 59.8414 38.9006 60.9525 39.7499C61.4172 40.1251 61.7889 40.6026 62.0387 41.1451C62.2885 41.6876 62.4095 42.2804 62.3925 42.8774C62.4072 43.8798 62.0937 44.8596 61.5 45.6674C60.9008 46.4718 60.0597 47.0632 59.1 47.3549V47.4074C60.2607 47.501 61.3481 48.0126 62.16 48.8474C62.945 49.7127 63.3573 50.8526 63.3075 52.0199C63.3321 52.7637 63.1883 53.5035 62.887 54.1839C62.5858 54.8644 62.1347 55.4681 61.5675 55.9499C60.3401 56.974 58.7775 57.5082 57.18 57.4499H51.69ZM53.94 40.5449V46.6499H56.19C57.2145 46.6981 58.2225 46.3789 59.0325 45.7499C59.3835 45.4442 59.6599 45.0622 59.8406 44.6332C60.0213 44.2042 60.1014 43.7396 60.075 43.2749C60.075 41.4399 58.8675 40.5224 56.4525 40.5224L53.94 40.5449ZM53.94 48.6374V55.4399H56.94C58.0183 55.5024 59.0831 55.175 59.94 54.5174C60.2975 54.204 60.5797 53.814 60.7654 53.3763C60.9511 52.9387 61.0355 52.4648 61.0125 51.9899C61.0125 49.7599 59.4925 48.6449 56.4525 48.6449L53.94 48.6374Z" fill="white"/>
</g>
<defs>
<clipPath id="clip0">
<rect width="48" height="48" fill="white" transform="translate(24 24)"/>
</clipPath>
</defs>
</svg>
