<svg width="96" height="96" viewBox="0 0 96 96" fill="none" xmlns="http://www.w3.org/2000/svg">
<path d="M44 2.30935C46.4752 0.880283 49.5248 0.880284 52 2.30935L85.5692 21.6905C88.0444 23.1196 89.5692 25.7606 89.5692 28.6187V67.3811C89.5692 70.2393 88.0444 72.8803 85.5692 74.3093L52 93.6905C49.5248 95.1196 46.4752 95.1196 44 93.6905L10.4308 74.3093C7.95558 72.8803 6.43079 70.2393 6.43079 67.3811V28.6187C6.43079 25.7606 7.95558 23.1196 10.4308 21.6905L44 2.30935Z" fill="white"/>
<path fill-rule="evenodd" clip-rule="evenodd" d="M84.1907 22.9024L51.5701 4.06896C49.3322 2.77689 46.575 2.77689 44.337 4.06896L11.7165 22.9024C9.47853 24.1945 8.09991 26.5824 8.09991 29.1665V66.8335C8.09991 69.4176 9.47853 71.8055 11.7165 73.0975L44.337 91.931C46.575 93.2231 49.3322 93.2231 51.5701 91.931L84.1907 73.0975C86.4286 71.8055 87.8072 69.4176 87.8072 66.8335V29.1665C87.8072 26.5824 86.4286 24.1945 84.1907 22.9024ZM53.1201 1.38436C49.923 -0.461454 45.9841 -0.461455 42.7871 1.38436L10.1665 20.2178C6.96946 22.0637 5 25.4749 5 29.1665V66.8335C5 70.5251 6.96946 73.9363 10.1665 75.7821L42.7871 94.6156C45.9841 96.4614 49.923 96.4614 53.1201 94.6156L85.7406 75.7821C88.9377 73.9363 90.9071 70.5251 90.9071 66.8335V29.1665C90.9071 25.4749 88.9377 22.0637 85.7406 20.2178L53.1201 1.38436Z" fill="#019833"/>
<path d="M48.1959 27.1553L27.3092 48.0434L48.1089 68.8444L68.9955 47.9563L48.1959 27.1553Z" fill="#019833"/>
<path fill-rule="evenodd" clip-rule="evenodd" d="M48.1959 27.0693L69.0817 47.9566L48.1088 68.9308L27.223 48.0436L48.1959 27.0693ZM27.3953 48.0436L48.1088 68.7585L68.9094 47.9566L48.1959 27.2417L27.3953 48.0436Z" fill="black"/>
<path d="M48.1088 27.2425V25.4148L25.3945 48.1306H27.3091L48.1088 27.2425V27.2425Z" fill="#66FE98"/>
<path fill-rule="evenodd" clip-rule="evenodd" d="M48.1698 25.2676V27.2424H48.1089L48.1521 27.2853L27.3346 48.1914H25.2476L48.1698 25.2676ZM48.0479 27.2173V25.5618L25.5416 48.0696H27.2839L48.0479 27.2173Z" fill="black"/>
<path d="M48.0566 27.2425V25.4148L70.7709 48.1306H68.8563L48.0566 27.2425V27.2425Z" fill="#45FE02"/>
<path fill-rule="evenodd" clip-rule="evenodd" d="M47.9957 25.2676L70.918 48.1914H68.831L48.0135 27.2853L48.0567 27.2424H47.9957V25.2676ZM48.1176 27.2173L68.8817 48.0696H70.6239L48.1176 25.5618V27.2173Z" fill="black"/>
<path d="M48.1088 68.9665V70.7942L25.3945 48.0784H27.3091L48.1088 68.9665Z" fill="#017D17"/>
<path fill-rule="evenodd" clip-rule="evenodd" d="M25.2476 48.0173H27.3346L48.1698 68.9412V70.9411L25.2476 48.0173ZM25.5416 48.1391L48.0479 70.6469V68.9914L27.2839 48.1391H25.5416Z" fill="black"/>
<path fill-rule="evenodd" clip-rule="evenodd" d="M30.1427 28.9392L30.0892 28.9972V30.8734H32.6155V64.2914L32.8278 64.4139H35.8015L68.6351 30.7346V29.0255L68.6103 29.0008H54.7659V30.8749L54.8788 30.9965H59.5925L41.6199 48.7296V30.9965H43.8623L43.9276 30.917V29.1178L43.749 28.9392H30.1427ZM29.6084 27.7216V26.5039H44.76L46.366 28.11V31.7881L45.0159 33.4318H44.0583V42.9003L53.7381 33.3495L52.3275 31.8302V27.9249L53.8104 26.5654H69.6213L71.0735 28.0177V31.7243L36.8306 66.8492H32.1736L30.1771 65.6964V33.3087H29.0414L27.6508 31.918V28.046L28.712 26.8963L29.6084 27.7216Z" fill="black"/>
<path d="M48.0566 68.9665V70.7942L70.7709 48.0784H68.8563L48.0566 68.9665V68.9665Z" fill="#005D04"/>
<path fill-rule="evenodd" clip-rule="evenodd" d="M68.831 48.0173H70.918L47.9957 70.9411V68.9663H48.0567L48.0135 68.9233L68.831 48.0173ZM48.1176 68.9914V70.6469L70.6239 48.1391H68.8817L48.1176 68.9914Z" fill="black"/>
<path fill-rule="evenodd" clip-rule="evenodd" d="M48.0476 24.7292L71.2692 47.9524L47.9526 71.2706L24.731 48.0474L48.0476 24.7292ZM48.0476 25.7632L25.7648 48.0474L47.9526 70.2367L70.2354 47.9524L48.0476 25.7632Z" fill="black"/>
<path d="M44.4102 29.1136L45.237 28.6784L44.3885 27.8298H29.6155L28.8649 28.5805V31.42L29.6971 32.2522L30.0941 31.42L29.572 30.8978V28.896L29.9636 28.5479H44.0621L44.4102 29.1136Z" fill="#FEFEFE"/>
<path fill-rule="evenodd" clip-rule="evenodd" d="M29.5901 27.769H44.4137L45.3384 28.6939L44.3881 29.1941L44.0279 28.6088H29.9867L29.6329 28.9234V30.8727L30.1676 31.4075L29.7149 32.3564L28.8038 31.4453V28.5554L29.5901 27.769ZM29.6407 27.8908L28.9258 28.6058V31.3949L29.6791 32.1483L30.0205 31.4327L29.5109 30.9231V28.8688L29.9403 28.4871H44.0961L44.4322 29.0332L45.1354 28.6631L44.3631 27.8908H29.6407Z" fill="black"/>
<path fill-rule="evenodd" clip-rule="evenodd" d="M54.8294 28.3994H68.5868L69.1441 28.9568V30.5297L35.6452 65.0982H32.8336L32.3411 64.6056V31.4684H29.9476L29.4474 30.9681V28.9377L29.94 28.4451H43.9519L44.4946 28.8645V30.8577L43.9144 31.4379H41.2963V49.2428L57.1429 33.1798V31.4151H54.7647L54.2721 30.9224V28.9568L54.8294 28.3994ZM54.8799 28.5212L54.394 29.0072V30.872L54.8152 31.2933H57.2648V33.2297L41.1744 49.5399V31.3161H43.8639L44.3727 30.8073V28.9242L43.9102 28.5669H29.9905L29.5693 28.9881V30.9177L29.9981 31.3466H32.463V64.5552L32.8842 64.9765H35.5935L69.0222 30.4804V29.0072L68.5363 28.5212H54.8799Z" fill="black"/>
<path d="M32.3778 31.3525V64.5853L32.8085 65.0777L32.4707 65.7215L31.5162 64.7699V32.2141L32.3778 31.3525Z" fill="#FEFEFE"/>
<path fill-rule="evenodd" clip-rule="evenodd" d="M32.4387 31.2056V64.5626L32.8818 65.0691L32.4862 65.8232L31.4552 64.7953V32.1891L32.4387 31.2056ZM31.5771 32.2395V64.7448L32.4551 65.6201L32.7351 65.0865L32.3167 64.6083V31.4998L31.5771 32.2395Z" fill="black"/>
<path d="M29.991 31.3525L29.7449 32.1526H31.5295L32.5141 31.3525H29.991Z" fill="#808080"/>
<path fill-rule="evenodd" clip-rule="evenodd" d="M29.946 31.2917H32.6856L31.5511 32.2136H29.6624L29.946 31.2917ZM30.0361 31.4135L29.8274 32.0918H31.5078L32.3425 31.4135H30.0361Z" fill="black"/>
<path d="M54.5054 32.2511L54.897 31.446L54.3313 30.9238V29.1396L54.984 28.4869H68.6039L69.1261 29.1832L69.8658 28.661L69.1043 27.8994H54.4619L53.733 28.6283V31.4896L54.4891 32.2021L54.5054 32.2511ZM42.656 45.941L41.2336 49.3924L57.2903 33.2912V31.3764L42.656 45.941V45.941Z" fill="#FEFEFE"/>
<path fill-rule="evenodd" clip-rule="evenodd" d="M54.4366 27.8386H69.1295L69.96 28.6691L69.1128 29.2672L68.5734 28.5479H55.0093L54.3923 29.1649V30.8973L54.9716 31.4321L54.4948 32.4122L54.436 32.236L53.672 31.5159V28.6032L54.4366 27.8386ZM54.498 32.127L54.8224 31.4602L54.2703 30.9506V29.1145L54.9587 28.4261H68.6344L69.1393 29.0994L69.7716 28.653L69.079 27.9604H54.4871L53.7939 28.6536V31.4634L54.498 32.127ZM57.3512 31.2299V33.3164L41.2768 49.4355L41.1772 49.3693L42.5996 45.9179L42.656 45.9411L42.613 45.8979L57.3512 31.2299ZM42.7077 45.9755L41.4066 49.1328L57.2293 33.2661V31.5231L42.7077 45.9755Z" fill="black"/>
<path d="M44.3776 29.0141L45.0853 28.5525V31.3527L44.2699 32.1681H42.6853V45.9689L41.2391 49.3845V31.3527H43.8853L44.3776 30.9526V29.0141V29.0141Z" fill="#808080"/>
<path fill-rule="evenodd" clip-rule="evenodd" d="M45.1463 28.4399V31.3778L44.2952 32.2289H42.7463V45.9812L41.2953 49.4082L41.1782 49.3844V31.2917H43.8637L44.3167 30.9236V29.014H44.3776L44.3443 28.963L45.1463 28.4399ZM44.4386 29.0469V30.9815L43.907 31.4135H41.3001V49.0841L42.6244 45.9565V32.1071H44.2447L45.0243 31.3274V28.6649L44.4386 29.0469Z" fill="black"/>
<path d="M54.8546 28.4602L54.333 28.9819V30.8972L54.7899 31.3541H57.2038V33.2046L41.2353 49.3913V31.3769H43.8891L44.4336 30.8324V28.8943L43.931 28.5059H29.9652L29.5083 28.9628V30.9428L29.9728 31.4074H32.402V64.5803L32.8589 65.0372H35.6193L69.0831 30.505V28.9819L68.5615 28.4602H54.8546Z" fill="#CCCCCC"/>
<path fill-rule="evenodd" clip-rule="evenodd" d="M54.8294 28.3994H68.5868L69.1441 28.9568V30.5297L35.6452 65.0982H32.8336L32.3411 64.6056V31.4684H29.9476L29.4474 30.9681V28.9377L29.94 28.4451H43.9519L44.4946 28.8645V30.8577L43.9144 31.4379H41.2963V49.2428L57.1429 33.1798V31.4151H54.7647L54.2721 30.9224V28.9568L54.8294 28.3994ZM54.8799 28.5212L54.394 29.0072V30.872L54.8152 31.2933H57.2648V33.2297L41.1744 49.5399V31.3161H43.8639L44.3727 30.8073V28.9242L43.9102 28.5669H29.9905L29.5693 28.9881V30.9177L29.9981 31.3466H32.463V64.5552L32.8842 64.9765H35.5935L69.0222 30.4804V29.0072L68.5363 28.5212H54.8799Z" fill="black"/>
<path d="M69.1261 29.0265L69.8693 28.5974V31.2894L36.1595 65.738H32.5806L32.9225 65.0585H35.6639L69.0826 30.5496L69.1261 29.0265Z" fill="#808080"/>
<path fill-rule="evenodd" clip-rule="evenodd" d="M69.9302 28.4919V31.3143L36.1851 65.7989H32.4817L32.8849 64.9977H35.638L69.0223 30.5243L69.0661 28.9909L69.9302 28.4919ZM69.186 29.0623L69.1428 30.575L35.6897 65.1195H32.9601L32.6794 65.6772H36.1338L69.8083 31.2647V28.703L69.186 29.0623Z" fill="black"/>
<path d="M57.2237 31.3987L56.4698 32.1833H54.5006L54.9621 31.3987C54.9775 31.3987 57.2237 31.3987 57.2237 31.3987Z" fill="#808080"/>
<path fill-rule="evenodd" clip-rule="evenodd" d="M54.9272 31.3379H57.2235C57.2235 31.3379 57.2236 31.3379 57.2236 31.3988V31.3379H57.3666L56.4958 32.2443H54.394L54.9272 31.3379ZM57.0806 31.4597H54.997L54.6071 32.1226H56.4438L57.0806 31.4597Z" fill="black"/>
<path d="M49.1852 50.8208C49.1598 50.8261 49.1362 50.838 49.1167 50.8551L48.4694 51.411C48.4501 51.4286 48.4356 51.4509 48.4275 51.4758L47.7803 53.2883C47.7707 53.3149 47.7689 53.3436 47.7749 53.3712C47.781 53.3989 47.7947 53.4242 47.8145 53.4444L48.3095 53.9394C48.3381 53.9669 48.3765 53.9819 48.4161 53.9813H50.415C50.4547 53.9819 50.493 53.9669 50.5217 53.9394L51.0433 53.4139C51.0612 53.3959 51.0743 53.3736 51.0814 53.3492L51.6372 51.4415C51.6448 51.4156 51.6453 51.3882 51.6386 51.362C51.6319 51.3359 51.6183 51.3121 51.5992 51.293L51.1689 50.8627C51.1403 50.8352 51.102 50.8202 51.0623 50.8208H49.2157C49.2056 50.8198 49.1954 50.8198 49.1852 50.8208V50.8208ZM45.5225 55.9308C45.495 55.9367 45.4697 55.9502 45.4495 55.9697C45.4294 55.9892 45.415 56.014 45.4082 56.0412L45.1607 57.0236C45.1552 57.0457 45.1548 57.0687 45.1595 57.091C45.1642 57.1132 45.1739 57.1341 45.1878 57.152C45.2017 57.17 45.2196 57.1846 45.2399 57.1947C45.2603 57.2047 45.2827 57.21 45.3054 57.2102H46.4819L43.5654 65.5377C43.5579 65.5602 43.5558 65.5841 43.5592 65.6076C43.5627 65.631 43.5717 65.6533 43.5854 65.6726C43.5992 65.6919 43.6173 65.7077 43.6383 65.7187C43.6593 65.7296 43.6826 65.7355 43.7063 65.7357H47.9516C47.9835 65.7362 48.0147 65.7265 48.0408 65.708C48.0668 65.6895 48.0862 65.6632 48.0963 65.6329L48.3742 64.7381C48.3811 64.7156 48.3826 64.6917 48.3786 64.6685C48.3746 64.6452 48.3651 64.6233 48.3511 64.6044C48.337 64.5855 48.3186 64.5701 48.2975 64.5596C48.2764 64.5491 48.2531 64.5437 48.2296 64.5439H47.2701L50.1561 56.1288C50.1637 56.1064 50.1658 56.0824 50.1623 56.059C50.1588 56.0355 50.1499 56.0133 50.1361 55.9939C50.1224 55.9746 50.1043 55.9589 50.0833 55.9479C50.0623 55.9369 50.039 55.9311 50.0153 55.9308H45.5529C45.5428 55.9298 45.5326 55.9298 45.5225 55.9308V55.9308ZM59.0313 55.9613C58.9987 55.968 58.9692 55.9854 58.9476 56.0108L58.0642 57.0084H56.6593L55.7227 56.0374C55.7088 56.0231 55.6922 56.0117 55.6739 56.0039C55.6556 55.996 55.636 55.9919 55.616 55.9917H52.2617C52.2309 55.9918 52.2008 56.0013 52.1756 56.0191C52.1504 56.0368 52.1313 56.0618 52.1208 56.0907L51.8124 57.0122C51.8049 57.0347 51.8027 57.0586 51.8062 57.0821C51.8097 57.1055 51.8187 57.1278 51.8324 57.1471C51.8462 57.1664 51.8643 57.1822 51.8853 57.1931C51.9063 57.2041 51.9296 57.21 51.9533 57.2102H52.8518L50.0571 65.4463C50.0496 65.4688 50.0475 65.4927 50.051 65.5162C50.0545 65.5396 50.0634 65.5619 50.0772 65.5812C50.0909 65.6005 50.109 65.6163 50.13 65.6273C50.151 65.6382 50.1743 65.6441 50.198 65.6443H53.7694C53.8002 65.6443 53.8303 65.6347 53.8555 65.617C53.8807 65.5993 53.8998 65.5743 53.9103 65.5453L54.1844 64.7419C54.192 64.7194 54.1941 64.6955 54.1906 64.6721C54.1871 64.6486 54.1781 64.6263 54.1644 64.607C54.1507 64.5877 54.1326 64.5719 54.1116 64.561C54.0906 64.55 54.0673 64.5441 54.0436 64.5439H53.4191L55.201 58.9351H58.426L56.3928 65.4501C56.3859 65.4727 56.3844 65.4965 56.3884 65.5198C56.3924 65.543 56.4019 65.565 56.416 65.5839C56.43 65.6028 56.4484 65.6181 56.4695 65.6286C56.4906 65.6391 56.5139 65.6445 56.5375 65.6443H59.9832C60.0125 65.6441 60.041 65.6353 60.0654 65.6191C60.0897 65.6029 60.1088 65.5799 60.1203 65.553L60.4287 64.8143C60.4376 64.7917 60.441 64.7672 60.4384 64.7431C60.4359 64.7189 60.4275 64.6957 60.414 64.6755C60.4006 64.6553 60.3824 64.6387 60.3611 64.627C60.3397 64.6154 60.3159 64.6091 60.2916 64.6086H59.6672L61.4795 58.9047H64.5484L62.4847 65.4501C62.4778 65.4727 62.4763 65.4965 62.4803 65.5198C62.4844 65.543 62.4938 65.565 62.5079 65.5839C62.522 65.6028 62.5403 65.6181 62.5614 65.6286C62.5825 65.6391 62.6058 65.6445 62.6294 65.6443H66.414C66.4444 65.6446 66.4741 65.6356 66.4992 65.6186C66.5244 65.6016 66.5438 65.5774 66.5549 65.5491L66.8633 64.7457C66.8716 64.723 66.8743 64.6987 66.8712 64.6747C66.868 64.6508 66.8592 64.6279 66.8454 64.6081C66.8316 64.5883 66.8132 64.5722 66.7918 64.561C66.7704 64.5498 66.7466 64.5439 66.7224 64.5439H65.9724L68.253 57.1379C68.2605 57.1149 68.2624 57.0904 68.2584 57.0665C68.2544 57.0427 68.2447 57.0201 68.2302 57.0008L67.522 56.0489C67.5075 56.0305 67.489 56.0158 67.4678 56.0059C67.4467 55.996 67.4235 55.9911 67.4002 55.9917H64.693C64.6725 55.9914 64.6521 55.9953 64.6331 56.0031C64.6141 56.011 64.5969 56.0227 64.5826 56.0374L63.7298 56.9741H62.2372L61.3539 56.007C61.3396 55.9922 61.3224 55.9805 61.3034 55.9727C61.2844 55.9648 61.264 55.9609 61.2435 55.9613H59.0618C59.0517 55.9602 59.0415 55.9602 59.0313 55.9613V55.9613Z" fill="#CCCCCC" stroke="black" stroke-width="2.5" stroke-miterlimit="10"/>
<path d="M49.2157 50.9692L48.5684 51.5252L47.9212 53.3376L48.4161 53.8327H50.4151L50.9367 53.3072L51.4926 51.3995L51.0623 50.9692H49.2157ZM45.5529 56.0792L45.3054 57.0616H46.6914L43.7063 65.5871H47.9516L48.2296 64.6923H47.0607L50.0153 56.0792H45.5529ZM59.0618 56.1097L58.1366 57.1568H56.5984L55.6161 56.1401H52.2617L51.9533 57.0616H53.0612L50.198 65.4957H53.7694L54.0436 64.6923H53.2135L55.0906 58.7865H58.6316L56.5375 65.4957H59.9832L60.2916 64.757H59.4616L61.3691 58.756H64.754L62.6294 65.4957H66.414L66.7224 64.6923H65.7668L68.1084 57.0921L67.4002 56.1401H64.6931L63.7983 57.1225H62.1687L61.2435 56.1097H59.0618Z" fill="#CCCCCC"/>
<path fill-rule="evenodd" clip-rule="evenodd" d="M49.1931 50.9084H51.0876L51.5611 51.3821L50.9908 53.3391L50.4404 53.8936H48.3908L47.8508 53.3535L48.5164 51.4896L49.1931 50.9084ZM49.2383 51.0302L48.6204 51.5609L47.9915 53.3219L48.4414 53.7719H50.3896L50.8824 53.2754L51.4239 51.4172L51.037 51.0302H49.2383ZM45.5054 56.0184H50.1006L47.146 64.6315H48.3123L47.9965 65.6481H43.6204L46.6054 57.1226H45.2272L45.5054 56.0184ZM45.6004 56.1402L45.3836 57.0008H46.7772L43.7922 65.5263H47.9067L48.1468 64.7533H46.9753L49.9299 56.1402H45.6004ZM59.0343 56.0489H61.2704L62.1956 57.0617H63.7713L64.6661 56.0793H67.4308L68.1757 57.0806L65.8493 64.6315H66.8111L66.4559 65.5567H62.5463L64.6708 58.817H61.4137L59.5449 64.6962H60.3831L60.0238 65.5567H56.4546L58.5487 58.8475H55.1352L53.2968 64.6315H54.1287L53.813 65.5567H50.113L52.9762 57.1226H51.8686L52.2177 56.0793H55.6419L56.6242 57.096H58.1091L59.0343 56.0489ZM59.0893 56.1706L58.1641 57.2178H56.5725L55.5901 56.2011H52.3055L52.0379 57.0008H53.1462L50.283 65.4349H53.7258L53.9584 64.7533H53.1302L55.046 58.7257H58.7144L56.6203 65.4349H59.9426L60.2001 64.818H59.3782L61.3245 58.6953H64.837L62.7125 65.4349H66.3721L66.6337 64.7533H65.6842L68.041 57.1037L67.3695 56.2011H64.72L63.8252 57.1835H62.1418L61.2166 56.1706H59.0893Z" fill="black"/>
</svg>
