<svg width="160" height="160" viewBox="0 0 160 160" fill="none" xmlns="http://www.w3.org/2000/svg">
<path d="M0.800781 64.8001C0.800781 81.7739 7.54362 98.0526 19.5459 110.055C31.5483 122.057 47.8269 128.8 64.8008 128.8C81.7746 128.8 98.0533 122.057 110.056 110.055C122.058 98.0526 128.801 81.7739 128.801 64.8001C128.801 47.8262 122.058 31.5475 110.056 19.5452C98.0533 7.54289 81.7746 0.800049 64.8008 0.800049C47.8269 0.800049 31.5483 7.54289 19.5459 19.5452C7.54362 31.5475 0.800781 47.8262 0.800781 64.8001V64.8001Z" fill="#C7F0FF" stroke="#C7F0FF" stroke-width="1.5"/>
<path opacity="0.15" d="M58.6997 146.872C58.6997 147.719 60.9439 148.532 64.9386 149.131C68.9332 149.731 74.3512 150.067 80.0005 150.067C85.6498 150.067 91.0678 149.731 95.0624 149.131C99.0571 148.532 101.301 147.719 101.301 146.872C101.301 146.025 99.0571 145.212 95.0624 144.613C91.0678 144.013 85.6498 143.677 80.0005 143.677C74.3512 143.677 68.9332 144.013 64.9386 144.613C60.9439 145.212 58.6997 146.025 58.6997 146.872V146.872Z" fill="#45413C"/>
<path d="M47.2365 24.3921C47.4527 24.9143 47.4526 25.5009 47.2362 26.023C47.0199 26.545 46.6051 26.9598 46.0829 27.1761L42.9341 28.4801C42.6757 28.5871 42.3987 28.6421 42.119 28.642C41.8393 28.6419 41.5624 28.5868 41.304 28.4796C41.0456 28.3725 40.8109 28.2155 40.6132 28.0177C40.4155 27.8198 40.2587 27.585 40.1517 27.3265L37.8685 21.8177C37.6524 21.2955 37.6525 20.7089 37.8689 20.1868C38.0852 19.6647 38.5 19.25 39.0221 19.0337L42.1709 17.7297C42.4296 17.6214 42.7072 17.5652 42.9876 17.5645C43.268 17.5637 43.5459 17.6183 43.8051 17.7252C44.0644 17.8321 44.3 17.9891 44.4984 18.1873C44.6968 18.3855 44.8542 18.6209 44.9613 18.8801L47.2365 24.3921Z" fill="white" stroke="#45413C" stroke-width="1.5" stroke-linecap="round" stroke-linejoin="round"/>
<path d="M32.3573 33.8686C32.5552 34.0664 32.7122 34.3012 32.8193 34.5597C32.9264 34.8182 32.9816 35.0952 32.9816 35.375C32.9816 35.6548 32.9264 35.9319 32.8193 36.1903C32.7122 36.4488 32.5552 36.6836 32.3573 36.8814L29.9477 39.291C29.7499 39.4889 29.5151 39.6459 29.2566 39.753C28.9981 39.8602 28.7211 39.9153 28.4413 39.9153C28.1615 39.9153 27.8844 39.8602 27.626 39.753C27.3675 39.6459 27.1327 39.4889 26.9349 39.291L22.7205 35.0734C22.5226 34.8756 22.3656 34.6408 22.2584 34.3823C22.1513 34.1239 22.0962 33.8468 22.0962 33.567C22.0962 33.2872 22.1513 33.0102 22.2584 32.7517C22.3656 32.4932 22.5226 32.2584 22.7205 32.0606L25.1301 29.651C25.3277 29.4531 25.5624 29.2962 25.8208 29.1891C26.0791 29.082 26.356 29.0269 26.6357 29.0269C26.9153 29.0269 27.1923 29.082 27.4506 29.1891C27.7089 29.2962 27.9436 29.4531 28.1413 29.651L32.3573 33.8686Z" fill="white" stroke="#45413C" stroke-width="1.5" stroke-linecap="round" stroke-linejoin="round"/>
<path d="M21.4002 47.7281C21.6588 47.8351 21.8936 47.9921 22.0915 48.19C22.2893 48.3879 22.4462 48.6228 22.5532 48.8813C22.6601 49.1399 22.7151 49.417 22.715 49.6968C22.7148 49.9766 22.6595 50.2536 22.5522 50.5121L21.2482 53.6609C21.032 54.1826 20.6174 54.597 20.0956 54.8131C19.5738 55.0291 18.9876 55.029 18.4658 54.8129L12.9602 52.5313C12.7017 52.4242 12.4668 52.2672 12.269 52.0694C12.0712 51.8715 11.9143 51.6365 11.8073 51.378C11.7003 51.1194 11.6454 50.8423 11.6455 50.5625C11.6457 50.2827 11.701 50.0057 11.8082 49.7473L13.1122 46.6001C13.327 46.0781 13.7402 45.6628 14.261 45.4452C14.7818 45.2277 15.3677 45.2259 15.8898 45.4401L21.4002 47.7281Z" fill="white" stroke="#45413C" stroke-width="1.5" stroke-linecap="round" stroke-linejoin="round"/>
<path d="M112.767 24.392C112.66 24.6504 112.605 24.9274 112.604 25.2072C112.604 25.487 112.659 25.7641 112.766 26.0227C112.873 26.2812 113.03 26.5162 113.228 26.714C113.426 26.9119 113.661 27.0689 113.919 27.176L117.068 28.48C117.326 28.5872 117.603 28.6424 117.883 28.6424C118.163 28.6424 118.44 28.5873 118.698 28.4801C118.957 28.373 119.192 28.2159 119.389 28.0179C119.587 27.82 119.744 27.585 119.85 27.3264L122.134 21.8176C122.35 21.2954 122.35 20.7088 122.133 20.1867C121.917 19.6646 121.502 19.2498 120.98 19.0336L117.831 17.7296C117.573 17.6226 117.296 17.5675 117.016 17.5676C116.736 17.5677 116.459 17.6229 116.201 17.73C115.943 17.8371 115.708 17.9941 115.51 18.192C115.313 18.3898 115.156 18.6247 115.049 18.8832L112.767 24.392Z" fill="white" stroke="#45413C" stroke-width="1.5" stroke-linecap="round" stroke-linejoin="round"/>
<path d="M127.644 33.8687C127.446 34.0665 127.289 34.3014 127.182 34.5598C127.075 34.8183 127.02 35.0954 127.02 35.3751C127.02 35.6549 127.075 35.932 127.182 36.1905C127.289 36.4489 127.446 36.6838 127.644 36.8815L130.054 39.2911C130.252 39.4891 130.487 39.6461 130.745 39.7532C131.003 39.8603 131.281 39.9154 131.56 39.9154C131.84 39.9154 132.117 39.8603 132.376 39.7532C132.634 39.6461 132.869 39.4891 133.067 39.2911L137.281 35.0735C137.479 34.8758 137.636 34.6409 137.743 34.3825C137.85 34.124 137.905 33.8469 137.905 33.5671C137.905 33.2874 137.85 33.0103 137.743 32.7518C137.636 32.4933 137.479 32.2585 137.281 32.0607L134.881 29.6511C134.683 29.4532 134.449 29.2962 134.19 29.1891C133.932 29.082 133.655 29.0269 133.375 29.0269C133.095 29.0269 132.818 29.082 132.559 29.1891C132.301 29.2962 132.066 29.4532 131.868 29.6511L127.644 33.8687Z" fill="white" stroke="#45413C" stroke-width="1.5" stroke-linecap="round" stroke-linejoin="round"/>
<path d="M138.601 47.728C138.079 47.9446 137.665 48.3595 137.449 48.8815C137.233 49.4036 137.233 49.9901 137.449 50.512L138.753 53.6608C138.969 54.1825 139.384 54.597 139.906 54.813C140.427 55.029 141.014 55.029 141.535 54.8128L147.041 52.5312C147.563 52.3149 147.978 51.9002 148.194 51.3781C148.41 50.856 148.411 50.2694 148.194 49.7472L146.89 46.5984C146.674 46.0766 146.259 45.6621 145.737 45.4461C145.215 45.2301 144.628 45.2302 144.106 45.4464L138.601 47.728Z" fill="white" stroke="#45413C" stroke-width="1.5" stroke-linecap="round" stroke-linejoin="round"/>
<path d="M97.4199 48.0898C95.8487 47.3874 95.0631 44.773 94.9143 42.9426V28.1602H65.0935V42.9506C64.9431 44.781 64.1575 47.3954 62.5863 48.0978C62.3393 48.193 62.1368 48.3771 62.0184 48.6138C61.9 48.8506 61.8743 49.123 61.9463 49.3778C62.1201 50.0318 62.5117 50.6071 63.0566 51.0085C63.6014 51.4099 64.2669 51.6136 64.9431 51.5858H95.0631C95.7393 51.6138 96.4049 51.4103 96.9498 51.0088C97.4947 50.6074 97.8863 50.032 98.0599 49.3778C98.1341 49.1219 98.1095 48.8475 97.991 48.609C97.8724 48.3704 97.6686 48.1851 97.4199 48.0898V48.0898Z" fill="#FFDF3D" stroke="#45413C" stroke-width="1.5" stroke-linecap="round" stroke-linejoin="round"/>
<path d="M87.458 48.4304H72.5476L40.5972 107.219C68.202 100.848 57.2804 118.608 80.0004 118.72C102.72 118.608 91.802 100.848 119.405 107.219L87.458 48.4304Z" fill="#FF6242"/>
<path d="M87.458 48.4304H72.5476L53.9844 82.5872C57.7019 83.3961 61.5875 82.7866 64.8788 80.8784L66.922 115.15C69.6164 117.149 73.3748 118.686 80.0004 118.72C86.6276 118.686 90.386 117.149 93.0804 115.15L95.1236 80.8784C98.4149 82.7866 102.3 83.3961 106.018 82.5872L87.458 48.4304Z" fill="#E04122"/>
<path d="M87.458 48.4304H72.5476L40.5972 107.219C68.202 100.848 57.2804 118.608 80.0004 118.72C102.72 118.608 91.802 100.848 119.405 107.219L87.458 48.4304Z" stroke="#45413C" stroke-width="1.5" stroke-linecap="round" stroke-linejoin="round"/>
<path d="M68.7144 82.9363L72.548 128.519H87.4584L91.292 82.9363H68.7144Z" fill="#FFCEBF"/>
<path d="M89.3032 106.579L91.292 82.9363H68.7144L70.7032 106.579H89.3032Z" fill="#FFB59E"/>
<path d="M68.7144 82.9363L72.548 128.519H87.4584L91.292 82.9363H68.7144Z" stroke="#45413C" stroke-width="1.5" stroke-linecap="round" stroke-linejoin="round"/>
<path d="M68.7578 87.4097L69.4026 99.1249H90.6042L91.249 87.4097H68.7578Z" fill="#656769" stroke="#45413C" stroke-width="1.5" stroke-linecap="round" stroke-linejoin="round"/>
<path d="M80.0034 93.7998V125.75" stroke="#45413C" stroke-width="1.5" stroke-linecap="round" stroke-linejoin="round"/>
<path d="M67.2231 72.4993L68.2887 87.4097H91.7176L92.7832 72.4993H67.2231Z" fill="#BDBEC0" stroke="#45413C" stroke-width="1.5" stroke-linecap="round" stroke-linejoin="round"/>
<path d="M73.439 83.1487H86.567" stroke="#45413C" stroke-width="1.5" stroke-linecap="round" stroke-linejoin="round"/>
<path d="M76.4858 78.8899H83.521" stroke="#45413C" stroke-width="1.5" stroke-linecap="round" stroke-linejoin="round"/>
<path d="M44.4315 59.5054H45.7115C47.7454 59.5054 49.696 60.3133 51.1342 61.7515C52.5724 63.1897 53.3803 65.1403 53.3803 67.1742H44.4315C43.4504 67.1211 42.527 66.694 41.8512 65.9807C41.1755 65.2675 40.7988 64.3223 40.7988 63.3398C40.7988 62.3572 41.1755 61.4121 41.8512 60.6988C42.527 59.9855 43.4504 59.5584 44.4315 59.5054V59.5054Z" fill="#FFCEBF" stroke="#45413C" stroke-width="1.5" stroke-linecap="round" stroke-linejoin="round"/>
<path d="M115.575 59.5054H114.295C112.261 59.5054 110.31 60.3133 108.872 61.7515C107.434 63.1897 106.626 65.1403 106.626 67.1742H115.573C116.554 67.1211 117.478 66.694 118.153 65.9807C118.829 65.2675 119.206 64.3223 119.206 63.3398C119.206 62.3572 118.829 61.4121 118.153 60.6988C117.478 59.9855 116.554 59.5584 115.573 59.5054H115.575Z" fill="#FFCEBF" stroke="#45413C" stroke-width="1.5" stroke-linecap="round" stroke-linejoin="round"/>
<path d="M106.628 67.1745C106.641 68.2372 106.253 69.2658 105.541 70.0552C104.829 70.8446 103.846 71.3368 102.788 71.4337C102.295 71.4289 101.808 71.3246 101.357 71.1271C100.905 70.9297 100.498 70.6431 100.16 70.2845C99.822 69.9259 99.5598 69.5027 99.3891 69.0404C99.2185 68.578 99.143 68.0859 99.1672 67.5937V65.0337C99.121 59.9797 97.0809 55.1484 93.4908 51.5909C89.9007 48.0335 85.051 46.0376 79.9968 46.0376C74.9426 46.0376 70.0929 48.0335 66.5027 51.5909C62.9126 55.1484 60.8725 59.9797 60.8264 65.0337V67.5937C60.8505 68.0859 60.775 68.578 60.6044 69.0404C60.4338 69.5027 60.1716 69.9259 59.8334 70.2845C59.4953 70.6431 59.0883 70.9297 58.6367 71.1271C58.1852 71.3246 57.6984 71.4289 57.2056 71.4337C56.1472 71.3368 55.1641 70.8446 54.4525 70.0552C53.7408 69.2658 53.3527 68.2372 53.3656 67.1745H45.7096C45.6971 70.2687 46.8918 73.2458 49.0397 75.4732C51.1875 77.7005 54.1193 79.0025 57.212 79.1025C59.2738 79.0749 61.2904 78.4943 63.0514 77.4215C64.8123 76.3487 66.2531 74.8228 67.2232 73.0033L65.3064 89.1201C70.5032 89.0929 77.6168 77.8545 80.004 72.5649C82.3896 77.8545 89.5032 89.0929 94.7 89.1201L92.78 73.0097C93.7501 74.8292 95.1908 76.3551 96.9518 77.4279C98.7127 78.5007 100.729 79.0813 102.791 79.1089C105.884 79.0089 108.816 77.7069 110.963 75.4796C113.111 73.2522 114.306 70.2751 114.294 67.1809L106.628 67.1745Z" fill="#FF6242"/>
<path d="M61.185 67.1746C62.0262 62.8003 64.365 58.8557 67.7993 56.0189C71.2336 53.1821 75.549 51.6303 80.0034 51.6303C84.4579 51.6303 88.7732 53.1821 92.2075 56.0189C95.6418 58.8557 97.9806 62.8003 98.8218 67.1746H99.1738V65.0434C99.1276 59.9895 97.0876 55.1582 93.4974 51.6007C89.9073 48.0432 85.0576 46.0474 80.0034 46.0474C74.9492 46.0474 70.0995 48.0432 66.5094 51.6007C62.9193 55.1582 60.8792 59.9895 60.833 65.0434V67.1746H61.185Z" fill="#FF866E"/>
<path d="M106.628 67.1745C106.641 68.2372 106.253 69.2658 105.541 70.0552C104.829 70.8446 103.846 71.3368 102.788 71.4337C102.295 71.4289 101.808 71.3246 101.357 71.1271C100.905 70.9297 100.498 70.6431 100.16 70.2845C99.822 69.9259 99.5598 69.5027 99.3891 69.0404C99.2185 68.578 99.143 68.0859 99.1672 67.5937V65.0337C99.121 59.9797 97.0809 55.1484 93.4908 51.5909C89.9007 48.0335 85.051 46.0376 79.9968 46.0376C74.9426 46.0376 70.0929 48.0335 66.5027 51.5909C62.9126 55.1484 60.8725 59.9797 60.8264 65.0337V67.5937C60.8505 68.0859 60.775 68.578 60.6044 69.0404C60.4338 69.5027 60.1716 69.9259 59.8334 70.2845C59.4953 70.6431 59.0883 70.9297 58.6367 71.1271C58.1852 71.3246 57.6984 71.4289 57.2056 71.4337C56.1472 71.3368 55.1641 70.8446 54.4525 70.0552C53.7408 69.2658 53.3527 68.2372 53.3656 67.1745H45.7096C45.6971 70.2687 46.8918 73.2458 49.0397 75.4732C51.1875 77.7005 54.1193 79.0025 57.212 79.1025C59.2738 79.0749 61.2904 78.4943 63.0514 77.4215C64.8123 76.3487 66.2531 74.8228 67.2232 73.0033L65.3064 89.1201C70.5032 89.0929 77.6168 77.8545 80.004 72.5649C82.3896 77.8545 89.5032 89.0929 94.7 89.1201L92.78 73.0097C93.7501 74.8292 95.1908 76.3551 96.9518 77.4279C98.7127 78.5007 100.729 79.0813 102.791 79.1089C105.884 79.0089 108.816 77.7069 110.963 75.4796C113.111 73.2522 114.306 70.2751 114.294 67.1809L106.628 67.1745Z" stroke="#45413C" stroke-width="1.5" stroke-linecap="round" stroke-linejoin="round"/>
<path d="M75.7436 127.455C73.9628 127.455 72.4412 125.648 71.8044 123.087C71.5907 123.959 71.4832 124.853 71.4844 125.751C71.4844 129.632 73.3932 132.779 75.7452 132.779C78.0972 132.779 80.0012 129.632 80.0012 125.751C80.0032 124.853 79.8958 123.958 79.6812 123.087C79.0412 125.648 77.5244 127.455 75.7436 127.455Z" fill="#525252" stroke="#45413C" stroke-width="1.5" stroke-linecap="round" stroke-linejoin="round"/>
<path d="M84.2624 127.455C86.0432 127.455 87.5648 125.648 88.2016 123.087C88.4162 123.958 88.5236 124.853 88.5216 125.751C88.5216 129.632 86.6128 132.779 84.2608 132.779C81.9088 132.779 80 129.632 80 125.751C79.9989 124.853 80.1063 123.959 80.32 123.087C80.96 125.648 82.4816 127.455 84.2624 127.455Z" fill="#525252" stroke="#45413C" stroke-width="1.5" stroke-linecap="round" stroke-linejoin="round"/>
<path d="M67.2231 73.0032V65.0432" stroke="#45413C" stroke-width="1.5" stroke-linecap="round" stroke-linejoin="round"/>
<path d="M92.7832 73.0032V65.0432" stroke="#45413C" stroke-width="1.5" stroke-linecap="round" stroke-linejoin="round"/>
<path d="M91.9648 50.171L84.9712 72.1358C84.8814 72.4182 84.7336 72.6788 84.5373 72.9008C84.341 73.1229 84.1006 73.3015 83.8313 73.4253C83.562 73.5491 83.2699 73.6153 82.9736 73.6197C82.6772 73.6242 82.3832 73.5667 82.1104 73.451L80 72.5582L88.0176 47.7102C89.4265 48.3706 90.7516 49.1967 91.9648 50.171V50.171Z" fill="#87898C" stroke="#45413C" stroke-width="1.5" stroke-linecap="round" stroke-linejoin="round"/>
<path d="M80 45.8767C77.2269 45.9059 74.4926 46.5313 71.9824 47.7103L80 72.5583L88.0176 47.7103C85.5074 46.5316 82.7731 45.9063 80 45.8767V45.8767Z" fill="white" stroke="#45413C" stroke-width="1.5" stroke-linecap="round" stroke-linejoin="round"/>
<path d="M68.0405 50.171L75.0405 72.1358C75.1303 72.4182 75.2781 72.6788 75.4744 72.9008C75.6707 73.1229 75.9112 73.3015 76.1804 73.4253C76.4497 73.5491 76.7418 73.6153 77.0382 73.6197C77.3345 73.6242 77.6285 73.5667 77.9013 73.451L80.0005 72.5582L71.9829 47.7102C70.5756 48.3707 69.2521 49.1968 68.0405 50.171Z" fill="#87898C" stroke="#45413C" stroke-width="1.5" stroke-linecap="round" stroke-linejoin="round"/>
<path d="M80.0034 50.1343V72.5583" stroke="#45413C" stroke-width="1.5" stroke-linecap="round" stroke-linejoin="round"/>
<path d="M84.1501 46.4035L80.0045 50.7091L75.8477 46.4035L75.8573 40.0195H84.1597L84.1501 46.4035Z" fill="#FFCEBF" stroke="#45413C" stroke-width="1.5" stroke-linecap="round" stroke-linejoin="round"/>
<path d="M80 49.2303C81.6033 47.4951 83.6661 46.2506 85.9488 45.6415C86.2586 45.577 86.579 45.5822 86.8866 45.6566C87.1942 45.7311 87.4814 45.873 87.7274 46.072C87.9735 46.2711 88.1722 46.5223 88.3093 46.8076C88.4464 47.0928 88.5183 47.405 88.52 47.7215V50.7279C88.5192 51.0447 88.4478 51.3573 88.311 51.643C88.1742 51.9287 87.9755 52.1803 87.7292 52.3795C87.4829 52.5787 87.1953 52.7206 86.8874 52.7947C86.5794 52.8688 86.2587 52.8733 85.9488 52.8079C83.667 52.2031 81.6039 50.9624 80 49.2303V49.2303Z" fill="#BF8DF2" stroke="#45413C" stroke-width="1.5" stroke-linejoin="round"/>
<path d="M80.0011 49.2303C78.3974 47.4948 76.3339 46.2503 74.0507 45.6415C73.7408 45.577 73.4205 45.5822 73.1129 45.6566C72.8053 45.7311 72.5181 45.873 72.2721 46.072C72.026 46.2711 71.8273 46.5223 71.6902 46.8076C71.5531 47.0928 71.4812 47.405 71.4795 47.7215V50.7279C71.4803 51.0447 71.5517 51.3573 71.6885 51.643C71.8253 51.9287 72.024 52.1803 72.2703 52.3795C72.5166 52.5787 72.8042 52.7206 73.1121 52.7947C73.4201 52.8688 73.7407 52.8733 74.0507 52.8079C76.3328 52.2027 78.3963 50.9621 80.0011 49.2303V49.2303Z" fill="#BF8DF2" stroke="#45413C" stroke-width="1.5" stroke-linejoin="round"/>
<path d="M77.8745 48.8029C77.8745 49.3677 78.0989 49.9094 78.4983 50.3088C78.8976 50.7082 79.4393 50.9325 80.0041 50.9325C80.5689 50.9325 81.1106 50.7082 81.51 50.3088C81.9093 49.9094 82.1337 49.3677 82.1337 48.8029C82.1337 48.2381 81.9093 47.6965 81.51 47.2971C81.1106 46.8977 80.5689 46.6733 80.0041 46.6733C79.4393 46.6733 78.8976 46.8977 78.4983 47.2971C78.0989 47.6965 77.8745 48.2381 77.8745 48.8029V48.8029Z" fill="#BF8DF2" stroke="#45413C" stroke-width="1.5" stroke-linejoin="round"/>
<path d="M94.9136 31.2338C94.9093 30.6264 94.6945 30.0394 94.3059 29.5726C93.9173 29.1058 93.3789 28.7882 92.7824 28.6738V26.973C92.7447 23.6083 91.3817 20.3942 88.9891 18.0282C86.5965 15.6622 83.3673 14.3352 80.0024 14.3352C76.6375 14.3352 73.4083 15.6622 71.0157 18.0282C68.6231 20.3942 67.26 23.6083 67.2224 26.973V28.6786C66.6021 28.7959 66.0453 29.1341 65.6553 29.6305C65.2652 30.1269 65.0684 30.7479 65.1012 31.3784C65.134 32.0089 65.3943 32.6061 65.8337 33.0593C66.2732 33.5126 66.862 33.7911 67.4912 33.8434C68.0904 36.7186 69.6615 39.2997 71.9402 41.1525C74.2189 43.0053 77.0663 44.0168 80.0032 44.0168C82.9401 44.0168 85.7875 43.0053 88.0662 41.1525C90.3449 39.2997 91.916 36.7186 92.5152 33.8434C93.1676 33.7838 93.7745 33.4837 94.2178 33.0013C94.6612 32.5189 94.9092 31.8889 94.9136 31.2338Z" fill="#FFCEBF" stroke="#45413C" stroke-width="1.5" stroke-linecap="round" stroke-linejoin="round"/>
<path d="M71.4844 32.8304C71.4844 33.2539 71.6526 33.6601 71.9521 33.9595C72.2515 34.259 72.6577 34.4272 73.0812 34.4272C73.5047 34.4272 73.9108 34.259 74.2103 33.9595C74.5097 33.6601 74.678 33.2539 74.678 32.8304C74.678 32.4069 74.5097 32.0008 74.2103 31.7013C73.9108 31.4019 73.5047 31.2336 73.0812 31.2336C72.6577 31.2336 72.2515 31.4019 71.9521 31.7013C71.6526 32.0008 71.4844 32.4069 71.4844 32.8304V32.8304Z" fill="#FFB59E"/>
<path d="M85.3286 32.8304C85.3286 33.2539 85.4968 33.6601 85.7963 33.9595C86.0958 34.259 86.5019 34.4272 86.9254 34.4272C87.3489 34.4272 87.7551 34.259 88.0545 33.9595C88.354 33.6601 88.5222 33.2539 88.5222 32.8304C88.5222 32.4069 88.354 32.0008 88.0545 31.7013C87.7551 31.4019 87.3489 31.2336 86.9254 31.2336C86.5019 31.2336 86.0958 31.4019 85.7963 31.7013C85.4968 32.0008 85.3286 32.4069 85.3286 32.8304Z" fill="#FFB59E"/>
<path d="M83.2005 36.5586C82.2788 37.2503 81.1576 37.6242 80.0053 37.6242C78.8529 37.6242 77.7317 37.2503 76.8101 36.5586" stroke="#45413C" stroke-width="1.5" stroke-linecap="round" stroke-linejoin="round"/>
<path d="M73.6133 28.5712C73.6133 28.7809 73.6546 28.9885 73.7348 29.1822C73.8151 29.376 73.9327 29.552 74.081 29.7003C74.2293 29.8486 74.4053 29.9662 74.599 30.0464C74.7927 30.1267 75.0004 30.168 75.2101 30.168C75.4198 30.168 75.6274 30.1267 75.8211 30.0464C76.0149 29.9662 76.1909 29.8486 76.3392 29.7003C76.4875 29.552 76.6051 29.376 76.6853 29.1822C76.7656 28.9885 76.8069 28.7809 76.8069 28.5712C76.8069 28.3615 76.7656 28.1538 76.6853 27.9601C76.6051 27.7664 76.4875 27.5903 76.3392 27.4421C76.1909 27.2938 76.0149 27.1762 75.8211 27.0959C75.6274 27.0157 75.4198 26.9744 75.2101 26.9744C75.0004 26.9744 74.7927 27.0157 74.599 27.0959C74.4053 27.1762 74.2293 27.2938 74.081 27.4421C73.9327 27.5903 73.8151 27.7664 73.7348 27.9601C73.6546 28.1538 73.6133 28.3615 73.6133 28.5712V28.5712Z" fill="#45413C"/>
<path d="M83.1997 28.5712C83.1997 28.7809 83.241 28.9885 83.3213 29.1822C83.4015 29.376 83.5191 29.552 83.6674 29.7003C83.8157 29.8486 83.9917 29.9662 84.1854 30.0464C84.3792 30.1267 84.5868 30.168 84.7965 30.168C85.0062 30.168 85.2138 30.1267 85.4076 30.0464C85.6013 29.9662 85.7773 29.8486 85.9256 29.7003C86.0739 29.552 86.1915 29.376 86.2718 29.1822C86.352 28.9885 86.3933 28.7809 86.3933 28.5712C86.3933 28.3615 86.352 28.1538 86.2718 27.9601C86.1915 27.7664 86.0739 27.5903 85.9256 27.4421C85.7773 27.2938 85.6013 27.1762 85.4076 27.0959C85.2138 27.0157 85.0062 26.9744 84.7965 26.9744C84.5868 26.9744 84.3792 27.0157 84.1854 27.0959C83.9917 27.1762 83.8157 27.2938 83.6674 27.4421C83.5191 27.5903 83.4015 27.7664 83.3213 27.9601C83.241 28.1538 83.1997 28.3615 83.1997 28.5712V28.5712Z" fill="#45413C"/>
<path d="M80.0012 9.93262C75.9938 10.1013 72.2061 11.8105 69.4281 14.7038C66.6501 17.5971 65.0964 21.4512 65.0908 25.4622V53.5998C65.0898 53.754 65.1223 53.9066 65.1863 54.0469C65.2503 54.1872 65.3442 54.3119 65.4614 54.4121C65.5786 54.5124 65.7162 54.5859 65.8647 54.6274C66.0133 54.6689 66.1691 54.6775 66.3212 54.6526C67.3956 54.5974 68.4106 54.1434 69.1679 53.3793C69.9251 52.6153 70.37 51.5962 70.4156 50.5214V34.0798C70.406 32.6611 70.7217 31.2592 71.3386 29.9816C71.9555 28.704 72.8571 27.5849 73.974 26.7102C77.4668 24.0222 78.662 22.0142 80.0012 17.5006C81.0356 20.6374 83.034 23.3674 85.7115 25.3013C88.389 27.2352 91.6088 28.2742 94.9116 28.2702V25.4622C94.9057 21.4513 93.3518 17.5975 90.5739 14.7042C87.7961 11.811 84.0086 10.1016 80.0012 9.93262V9.93262Z" fill="#FFDF3D"/>
<path d="M80.0012 9.93262C75.9935 10.1013 72.2055 11.8107 69.4275 14.7044C66.6495 17.598 65.0959 21.4525 65.0908 25.4638V29.8366C65.0963 25.8254 66.65 21.9712 69.428 19.0776C72.2059 16.184 75.9936 14.4745 80.0012 14.3054C83.7391 14.4595 87.2961 15.9563 90.0196 18.5211C92.7431 21.0859 94.4504 24.5467 94.8284 28.2686H94.9116V25.4638C94.9061 21.4526 93.3524 17.5984 90.5745 14.7048C87.7965 11.8112 84.0089 10.1017 80.0012 9.93262V9.93262Z" fill="#FFEF9E"/>
<path d="M80.0012 9.93262C75.9938 10.1013 72.2061 11.8105 69.4281 14.7038C66.6501 17.5971 65.0964 21.4512 65.0908 25.4622V53.5998C65.0898 53.754 65.1223 53.9066 65.1863 54.0469C65.2503 54.1872 65.3442 54.3119 65.4614 54.4121C65.5786 54.5124 65.7162 54.5859 65.8647 54.6274C66.0133 54.6689 66.1691 54.6775 66.3212 54.6526C67.3956 54.5974 68.4106 54.1434 69.1679 53.3793C69.9251 52.6153 70.37 51.5962 70.4156 50.5214V34.0798C70.406 32.6611 70.7217 31.2592 71.3386 29.9816C71.9555 28.704 72.8571 27.5849 73.974 26.7102C77.4668 24.0222 78.662 22.0142 80.0012 17.5006C81.0356 20.6374 83.034 23.3674 85.7115 25.3013C88.389 27.2352 91.6088 28.2742 94.9116 28.2702V25.4622C94.9057 21.4513 93.3518 17.5975 90.5739 14.7042C87.7961 11.811 84.0086 10.1016 80.0012 9.93262V9.93262Z" stroke="#45413C" stroke-width="1.5" stroke-linecap="round" stroke-linejoin="round"/>
</svg>
