<svg xmlns="http://www.w3.org/2000/svg" version="1.1" xmlns:xlink="http://www.w3.org/1999/xlink" xmlns:svgjs="http://svgjs.com/svgjs" viewBox="0 0 160 160" width="160" height="160"><g transform="matrix(1.6,0,0,1.6,0,0)"><path d="M90.5,52.1A40,40,0,1,0,14.064,68.6H86.936A39.844,39.844,0,0,0,90.5,52.1Z" fill="#c7f0ff"></path><path d="M14.064,68.6a40,40,0,0,0,72.872,0Z" fill="#ccf7ad"></path><path d="M11 68.599L89 68.599" fill="none" stroke="#45413c" stroke-linecap="round" stroke-linejoin="round"></path><path d="M6.5 68.599L9 68.599" fill="none" stroke="#45413c" stroke-linecap="round" stroke-linejoin="round"></path><path d="M91 68.599L93.5 68.599" fill="none" stroke="#45413c" stroke-linecap="round" stroke-linejoin="round"></path><path d="M32.812,56.093v25.56H39.2l.73-16.775a1.669,1.669,0,0,1,3.334,0L44,81.653h6.39V56.093Z" fill="#00b8f0"></path><path d="M50.385,60.886V56.093H32.812v4.793l4.994,1.426a1.6,1.6,0,0,0,1.154-.107l1.924-.962a1.6,1.6,0,0,1,1.429,0l1.925.962a1.594,1.594,0,0,0,1.153.107Z" fill="#009fd9"></path><path d="M32.812,56.093v25.56H39.2l.73-16.775a1.669,1.669,0,0,1,3.334,0L44,81.653h6.39V56.093Z" fill="none" stroke="#45413c" stroke-linecap="round" stroke-linejoin="round"></path><path d="M41.6,32.929c-8.292,0-11.982,5.4-11.982,7.988a2.4,2.4,0,0,1-2.4,2.4v4.792a7.147,7.147,0,0,0,5.591-2.726v13.11l5.592,1.6,3.195-1.6,3.2,1.6,5.591-1.6h4.793V46.508A13.6,13.6,0,0,0,41.6,32.929Z" fill="#ff6242"></path><path d="M28.296 83.783 A13.313 1.997 0 1 0 54.922 83.783 A13.313 1.997 0 1 0 28.296 83.783 Z" fill="#45413c" opacity=".15"></path><path d="M27.221,43.313a2.4,2.4,0,0,1-2.4-2.4V35.325a2.4,2.4,0,0,0-4.793,0v5.592a7.2,7.2,0,0,0,7.189,7.188Z" fill="#ffcebf" stroke="#45413c" stroke-linecap="round" stroke-linejoin="round"></path><path d="M58.373,34.66h-41.8a1.332,1.332,0,0,1,0-2.663h41.8Z" fill="#bf8256" stroke="#45413c" stroke-linecap="round" stroke-linejoin="round"></path><path d="M66.36,23.344s-1-1.6-4.792-1.6-4.793,1.6-4.793,1.6l1.6,6.39v5.591a.8.8,0,0,0,.8.8h4.792a.8.8,0,0,0,.8-.8V29.734Z" fill="#656769"></path><path d="M61.568,24.941a7.163,7.163,0,0,1,4.142,1.006l.65-2.6s-1-1.6-4.792-1.6-4.793,1.6-4.793,1.6l.651,2.6A7.163,7.163,0,0,1,61.568,24.941Z" fill="#bdbec0"></path><path d="M66.36,23.344s-1-1.6-4.792-1.6-4.793,1.6-4.793,1.6l1.6,6.39v5.591a.8.8,0,0,0,.8.8h4.792a.8.8,0,0,0,.8-.8V29.734Z" fill="none" stroke="#45413c" stroke-linecap="round" stroke-linejoin="round"></path><path d="M19.233,33.537a3,3,0,0,0,3.372,2.995,3.136,3.136,0,0,0,2.624-3.157l.005-.776a2,2,0,0,0-1.943-2.01l-2-.055a2,2,0,0,0-2.054,1.984Z" fill="#ffcebf" stroke="#45413c" stroke-linecap="round" stroke-linejoin="round"></path><path d="M37.605 55.294L32.812 55.294 32.812 58.489 35.608 59.288 37.605 59.859 37.605 55.294z" fill="#656769"></path><path d="M37.605 51.301H41.599V55.295H37.605z" fill="#656769"></path><path d="M32.812 47.307H37.605V51.301H32.812z" fill="#656769"></path><path d="M37.605 43.313H41.599V47.307H37.605z" fill="#656769"></path><path d="M33.611 39.319H37.605V43.313H33.611z" fill="#656769"></path><path d="M45.593 55.294L41.599 55.294 41.599 58.489 44.794 60.087 45.593 59.859 45.593 55.294z" fill="#656769"></path><path d="M45.593 51.301H50.386V55.295H45.593z" fill="#656769"></path><path d="M41.599 47.307H45.592999999999996V51.301H41.599z" fill="#656769"></path><path d="M45.593 43.313H50.386V47.307H45.593z" fill="#656769"></path><path d="M41.599 39.319H45.592999999999996V43.313H41.599z" fill="#656769"></path><path d="M50.385,36.167q-.525-.447-1.095-.842h-3.7v3.994h4.792Z" fill="#656769"></path><path d="M50.385 55.294H55.178V58.489H50.385z" fill="#656769"></path><path d="M50.385 47.307H55.178V51.301H50.385z" fill="#656769"></path><path d="M53.107,39.319H50.385v3.994h4.409A13.538,13.538,0,0,0,53.107,39.319Z" fill="#656769"></path><path d="M29.972,39.319h3.639v-4.2A9.533,9.533,0,0,0,29.972,39.319Z" fill="#656769"></path><path d="M32.812 42.514L32.812 45.379" fill="none" stroke="#45413c" stroke-linecap="round" stroke-linejoin="round"></path><path d="M39.455,40.391,41.6,39.319,37.22,33.5a13.035,13.035,0,0,0-2.951,1.217l3.483,5.224A1.332,1.332,0,0,0,39.455,40.391Z" fill="#ff6242" stroke="#45413c" stroke-linecap="round" stroke-linejoin="round"></path><path d="M45.884,33.622l-4.285,5.7,2.144,1.072a1.332,1.332,0,0,0,1.7-.452l3.31-4.965A13.479,13.479,0,0,0,45.884,33.622Z" fill="#ff6242" stroke="#45413c" stroke-linecap="round" stroke-linejoin="round"></path><path d="M41.6,32.929c-8.292,0-11.982,5.4-11.982,7.988a2.4,2.4,0,0,1-2.4,2.4v4.792a7.147,7.147,0,0,0,5.591-2.726v13.11l5.592,1.6,3.195-1.6,3.2,1.6,5.591-1.6h4.793V46.508A13.6,13.6,0,0,0,41.6,32.929Z" fill="none" stroke="#45413c" stroke-linecap="round" stroke-linejoin="round"></path><path d="M50.385 42.514L50.385 58.489" fill="none" stroke="#45413c" stroke-linecap="round" stroke-linejoin="round"></path><path d="M41.599 39.319L41.599 58.489" fill="none" stroke="#45413c" stroke-linecap="round" stroke-linejoin="round"></path><path d="M25.624 41.316 L28.819 41.316 L28.819 49.071 L25.624 49.071 Z" fill="#ff6242" stroke="#45413c" stroke-linecap="round" stroke-linejoin="round"></path><path d="M31.813,80.389a1.33,1.33,0,0,0,1.112,2.063h5.452a1.332,1.332,0,0,0,1.181-1.946C38.1,77.718,33.472,77.873,31.813,80.389Z" fill="#656769" stroke="#45413c" stroke-linecap="round" stroke-linejoin="round"></path><path d="M51.385,80.389a1.33,1.33,0,0,1-1.113,2.063H44.82a1.332,1.332,0,0,1-1.181-1.946C45.094,77.718,49.726,77.873,51.385,80.389Z" fill="#656769" stroke="#45413c" stroke-linecap="round" stroke-linejoin="round"></path><path d="M50.385,61.684a2.4,2.4,0,1,0,4.793,0V58.489H50.385Z" fill="#ffcebf" stroke="#45413c" stroke-linecap="round" stroke-linejoin="round"></path><path d="M37.221,33.5h0L41.6,39.319l4.285-5.7h0a13.51,13.51,0,0,0-4.282-.692A16.259,16.259,0,0,0,37.221,33.5Z" fill="#ffcebf" stroke="#45413c" stroke-linecap="round" stroke-linejoin="round"></path><path d="M49.613,21.48c2.138-.543,3.21-3.868,2.4-7.075S48.8,9.039,46.664,9.582a2.858,2.858,0,0,0-1.286.753C43.987,8.859,42.8,7.9,39.6,7.9c-4.926,0-8.187,2.8-8.187,7.389,0,2.263.465,6.19,2.995,6.19Z" fill="#614b44"></path><path d="M39.6,11.1c3.2,0,4.385.958,5.776,2.434a2.858,2.858,0,0,1,1.286-.753c2.138-.543,4.531,1.617,5.345,4.824.048.186.067.372.1.559a8.486,8.486,0,0,0-.1-3.755C51.2,11.2,48.8,9.039,46.664,9.582a2.858,2.858,0,0,0-1.286.753C43.987,8.859,42.8,7.9,39.6,7.9c-4.926,0-8.187,2.8-8.187,7.389a16.19,16.19,0,0,0,.114,1.94C32.082,13.4,35.149,11.1,39.6,11.1Z" fill="#947063"></path><path d="M49.613,21.48c2.138-.543,3.21-3.868,2.4-7.075S48.8,9.039,46.664,9.582a2.858,2.858,0,0,0-1.286.753C43.987,8.859,42.8,7.9,39.6,7.9c-4.926,0-8.187,2.8-8.187,7.389,0,2.263.465,6.19,2.995,6.19Z" fill="none" stroke="#45413c" stroke-linecap="round" stroke-linejoin="round"></path><path d="M49.6,20.681v-.8h-.011s-2-1.073-2.194-2.281a1.579,1.579,0,0,0-1.852-1.3,20.642,20.642,0,0,1-3.941.392,20.633,20.633,0,0,1-3.941-.392,1.58,1.58,0,0,0-1.853,1.3,2.222,2.222,0,0,1-2.183,2.211v.869c-2.28,0-2.126,3.994.4,3.994h.007a7.935,7.935,0,0,0,15.163,0H49.2C51.723,24.675,51.877,20.681,49.6,20.681Z" fill="#ffcebf" stroke="#45413c" stroke-linecap="round" stroke-linejoin="round"></path><path d="M39.01,19.883a1,1,0,1,0,1,1,1,1,0,0,0-1-1Z" fill="#45413c"></path><path d="M44.2,19.883a1,1,0,1,0,1,1,1,1,0,0,0-1-1Z" fill="#45413c"></path><path d="M36.015 23.078 A0.799 0.799 0 1 0 37.613 23.078 A0.799 0.799 0 1 0 36.015 23.078 Z" fill="#ffb59e"></path><path d="M45.600 23.078 A0.799 0.799 0 1 0 47.198 23.078 A0.799 0.799 0 1 0 45.600 23.078 Z" fill="#ffb59e"></path><path d="M49.07,25.021c0,4.411-3.777,10.038-7.471,10.038s-7.578-5.972-7.578-10.384c0,0,4.083,3.2,7.578,3.2S49.07,25.021,49.07,25.021Z" fill="#614b44" stroke="#45413c" stroke-linecap="round" stroke-linejoin="round"></path><path d="M46.338,31.864s-1.6-2.8-3.195-3.195c-.855-.214-1.6-.715-1.6-1.6a1.6,1.6,0,0,1,1.6-1.6C47.27,25.474,46.338,31.864,46.338,31.864Z" fill="#614b44" stroke="#45413c" stroke-linecap="round" stroke-linejoin="round"></path><path d="M36.753,31.864s1.6-2.8,3.2-3.195c.856-.214,1.6-.715,1.6-1.6a1.6,1.6,0,0,0-1.6-1.6C35.821,25.474,36.753,31.864,36.753,31.864Z" fill="#614b44" stroke="#45413c" stroke-linecap="round" stroke-linejoin="round"></path><path d="M60.900 71.599 A10 1.5 0 1 0 80.900 71.599 A10 1.5 0 1 0 60.900 71.599 Z" fill="#45413c" opacity=".15"></path><path d="M74.529 69.543 A3.829 3.829 0 1 0 82.187 69.543 A3.829 3.829 0 1 0 74.529 69.543 Z" fill="#bf8256"></path><path d="M81.065,66.836a3.829,3.829,0,0,0-5.415,5.415Z" fill="#dea47a"></path><path d="M76.717 69.543 A1.641 1.641 0 1 0 79.999 69.543 A1.641 1.641 0 1 0 76.717 69.543 Z" fill="none" stroke="#915e3a" stroke-linecap="round" stroke-linejoin="round"></path><path d="M74.529 69.543 A3.829 3.829 0 1 0 82.187 69.543 A3.829 3.829 0 1 0 74.529 69.543 Z" fill="none" stroke="#45413c" stroke-linecap="round" stroke-linejoin="round"></path><path d="M66.871 69.543 A3.829 3.829 0 1 0 74.529 69.543 A3.829 3.829 0 1 0 66.871 69.543 Z" fill="#bf8256"></path><path d="M73.407,66.836a3.829,3.829,0,1,0-5.414,5.415Z" fill="#dea47a"></path><path d="M69.059 69.543 A1.641 1.641 0 1 0 72.341 69.543 A1.641 1.641 0 1 0 69.059 69.543 Z" fill="none" stroke="#915e3a" stroke-linecap="round" stroke-linejoin="round"></path><path d="M66.871 69.543 A3.829 3.829 0 1 0 74.529 69.543 A3.829 3.829 0 1 0 66.871 69.543 Z" fill="none" stroke="#45413c" stroke-linecap="round" stroke-linejoin="round"></path><path d="M63.042 62.928 A3.829 3.829 0 1 0 70.700 62.928 A3.829 3.829 0 1 0 63.042 62.928 Z" fill="#bf8256"></path><path d="M69.579,60.221a3.829,3.829,0,1,0-5.415,5.415Z" fill="#dea47a"></path><path d="M65.230 62.928 A1.641 1.641 0 1 0 68.512 62.928 A1.641 1.641 0 1 0 65.230 62.928 Z" fill="none" stroke="#915e3a" stroke-linecap="round" stroke-linejoin="round"></path><path d="M63.042 62.928 A3.829 3.829 0 1 0 70.700 62.928 A3.829 3.829 0 1 0 63.042 62.928 Z" fill="none" stroke="#45413c" stroke-linecap="round" stroke-linejoin="round"></path><path d="M70.700 62.928 A3.829 3.829 0 1 0 78.358 62.928 A3.829 3.829 0 1 0 70.700 62.928 Z" fill="#bf8256"></path><path d="M77.236,60.221a3.829,3.829,0,0,0-5.415,5.415Z" fill="#dea47a"></path><path d="M72.888 62.928 A1.641 1.641 0 1 0 76.170 62.928 A1.641 1.641 0 1 0 72.888 62.928 Z" fill="none" stroke="#915e3a" stroke-linecap="round" stroke-linejoin="round"></path><path d="M70.700 62.928 A3.829 3.829 0 1 0 78.358 62.928 A3.829 3.829 0 1 0 70.700 62.928 Z" fill="none" stroke="#45413c" stroke-linecap="round" stroke-linejoin="round"></path><path d="M66.871 56.325 A3.829 3.829 0 1 0 74.529 56.325 A3.829 3.829 0 1 0 66.871 56.325 Z" fill="#bf8256"></path><path d="M73.407,53.617a3.829,3.829,0,1,0-5.414,5.415Z" fill="#dea47a"></path><path d="M69.059 56.325 A1.641 1.641 0 1 0 72.341 56.325 A1.641 1.641 0 1 0 69.059 56.325 Z" fill="none" stroke="#915e3a" stroke-linecap="round" stroke-linejoin="round"></path><path d="M66.871 56.325 A3.829 3.829 0 1 0 74.529 56.325 A3.829 3.829 0 1 0 66.871 56.325 Z" fill="none" stroke="#45413c" stroke-linecap="round" stroke-linejoin="round"></path><path d="M59.213 69.543 A3.829 3.829 0 1 0 66.871 69.543 A3.829 3.829 0 1 0 59.213 69.543 Z" fill="#bf8256"></path><path d="M65.75,66.836a3.829,3.829,0,1,0-5.415,5.415Z" fill="#dea47a"></path><path d="M61.401 69.543 A1.641 1.641 0 1 0 64.683 69.543 A1.641 1.641 0 1 0 61.401 69.543 Z" fill="none" stroke="#915e3a" stroke-linecap="round" stroke-linejoin="round"></path><path d="M59.213 69.543 A3.829 3.829 0 1 0 66.871 69.543 A3.829 3.829 0 1 0 59.213 69.543 Z" fill="none" stroke="#45413c" stroke-linecap="round" stroke-linejoin="round"></path></g></svg>