<svg width="48" height="48" viewBox="0 0 48 48" fill="none" xmlns="http://www.w3.org/2000/svg">
<path d="M12 35.996L1.5 46.496" stroke="url(#paint0_linear)" stroke-width="2.5" stroke-linecap="round" stroke-linejoin="round"/>
<path d="M46.5 13.496V1.496H34.5" stroke="url(#paint1_linear)" stroke-width="2.5" stroke-linecap="round" stroke-linejoin="round"/>
<path d="M1.5 34.496V46.496H13.5" stroke="url(#paint2_linear)" stroke-width="2.5" stroke-linecap="round" stroke-linejoin="round"/>
<path d="M46.5 1.496L36 11.996" stroke="url(#paint3_linear)" stroke-width="2.5" stroke-linecap="round" stroke-linejoin="round"/>
<path d="M36 35.996L46.5 46.496" stroke="url(#paint4_linear)" stroke-width="2.5" stroke-linecap="round" stroke-linejoin="round"/>
<path d="M1.5 13.496V1.496H13.5" stroke="url(#paint5_linear)" stroke-width="2.5" stroke-linecap="round" stroke-linejoin="round"/>
<path d="M46.5 34.496V46.496H34.5" stroke="url(#paint6_linear)" stroke-width="2.5" stroke-linecap="round" stroke-linejoin="round"/>
<path d="M1.5 1.496L12 11.996" stroke="url(#paint7_linear)" stroke-width="2.5" stroke-linecap="round" stroke-linejoin="round"/>
<path fill-rule="evenodd" clip-rule="evenodd" d="M16.5 17.246C16.5 16.8318 16.8358 16.496 17.25 16.496H30.75C31.1642 16.496 31.5 16.8318 31.5 17.246V30.746C31.5 31.1602 31.1642 31.496 30.75 31.496H17.25C16.8358 31.496 16.5 31.1602 16.5 30.746V17.246Z" stroke="url(#paint8_linear)" stroke-width="2.5" stroke-linecap="round" stroke-linejoin="round"/>
<defs>
<linearGradient id="paint0_linear" x1="6.75" y1="35.996" x2="6.75" y2="46.496" gradientUnits="userSpaceOnUse">
<stop stop-color="#2200FF"/>
<stop offset="1" stop-color="#9E00FF"/>
</linearGradient>
<linearGradient id="paint1_linear" x1="40.5" y1="1.496" x2="40.5" y2="13.496" gradientUnits="userSpaceOnUse">
<stop stop-color="#2200FF"/>
<stop offset="1" stop-color="#9E00FF"/>
</linearGradient>
<linearGradient id="paint2_linear" x1="7.5" y1="34.496" x2="7.5" y2="46.496" gradientUnits="userSpaceOnUse">
<stop stop-color="#2200FF"/>
<stop offset="1" stop-color="#9E00FF"/>
</linearGradient>
<linearGradient id="paint3_linear" x1="41.25" y1="1.496" x2="41.25" y2="11.996" gradientUnits="userSpaceOnUse">
<stop stop-color="#2200FF"/>
<stop offset="1" stop-color="#9E00FF"/>
</linearGradient>
<linearGradient id="paint4_linear" x1="41.25" y1="35.996" x2="41.25" y2="46.496" gradientUnits="userSpaceOnUse">
<stop stop-color="#2200FF"/>
<stop offset="1" stop-color="#9E00FF"/>
</linearGradient>
<linearGradient id="paint5_linear" x1="7.5" y1="1.496" x2="7.5" y2="13.496" gradientUnits="userSpaceOnUse">
<stop stop-color="#2200FF"/>
<stop offset="1" stop-color="#9E00FF"/>
</linearGradient>
<linearGradient id="paint6_linear" x1="40.5" y1="34.496" x2="40.5" y2="46.496" gradientUnits="userSpaceOnUse">
<stop stop-color="#2200FF"/>
<stop offset="1" stop-color="#9E00FF"/>
</linearGradient>
<linearGradient id="paint7_linear" x1="6.75" y1="1.496" x2="6.75" y2="11.996" gradientUnits="userSpaceOnUse">
<stop stop-color="#2200FF"/>
<stop offset="1" stop-color="#9E00FF"/>
</linearGradient>
<linearGradient id="paint8_linear" x1="24" y1="16.496" x2="24" y2="31.496" gradientUnits="userSpaceOnUse">
<stop stop-color="#2200FF"/>
<stop offset="1" stop-color="#9E00FF"/>
</linearGradient>
</defs>
</svg>
