<svg width="48" height="48" viewBox="0 0 48 48" fill="none" xmlns="http://www.w3.org/2000/svg">
<path d="M17.4998 46.5V40.5H14.4998C11.1861 40.5 8.4998 37.8137 8.4998 34.5V28.5H4.6998C4.20521 28.5002 3.74232 28.2566 3.46246 27.8488C3.1826 27.441 3.12175 26.9214 3.2998 26.46C4.6438 22.976 5.8458 19.6 7.1518 16.5" stroke="url(#paint0_linear)" stroke-width="2.5" stroke-linecap="round" stroke-linejoin="round"/>
<path d="M44.124 16.5C45.4275 22.9058 43.2958 29.5277 38.5 33.97V46.5" stroke="url(#paint1_linear)" stroke-width="2.5" stroke-linecap="round" stroke-linejoin="round"/>
<path fill-rule="evenodd" clip-rule="evenodd" d="M25 25.5C27.4853 25.5 29.5 23.4853 29.5 21C29.5 18.5147 27.4853 16.5 25 16.5C22.5147 16.5 20.5 18.5147 20.5 21C20.5 23.4853 22.5147 25.5 25 25.5Z" stroke="url(#paint2_linear)" stroke-width="2.5" stroke-linecap="round" stroke-linejoin="round"/>
<path fill-rule="evenodd" clip-rule="evenodd" d="M35.5 16.5C37.1569 16.5 38.5 15.1569 38.5 13.5C38.5 11.8431 37.1569 10.5 35.5 10.5C33.8431 10.5 32.5 11.8431 32.5 13.5C32.5 15.1569 33.8431 16.5 35.5 16.5Z" stroke="url(#paint3_linear)" stroke-width="2.5" stroke-linecap="round" stroke-linejoin="round"/>
<path fill-rule="evenodd" clip-rule="evenodd" d="M14.5 16.5C16.1569 16.5 17.5 15.1569 17.5 13.5C17.5 11.8431 16.1569 10.5 14.5 10.5C12.8431 10.5 11.5 11.8431 11.5 13.5C11.5 15.1569 12.8431 16.5 14.5 16.5Z" stroke="url(#paint4_linear)" stroke-width="2.5" stroke-linecap="round" stroke-linejoin="round"/>
<path d="M25 16.5V1.5" stroke="url(#paint5_linear)" stroke-width="2.5" stroke-linecap="round" stroke-linejoin="round"/>
<path d="M14.5 10.5C14.5 7.18629 17.1863 4.5 20.5 4.5H29.5C32.8137 4.5 35.5 7.18629 35.5 10.5" stroke="url(#paint6_linear)" stroke-width="2.5" stroke-linecap="round" stroke-linejoin="round"/>
<defs>
<linearGradient id="paint0_linear" x1="10.3495" y1="16.5" x2="10.3495" y2="46.5" gradientUnits="userSpaceOnUse">
<stop stop-color="#2200FF"/>
<stop offset="1" stop-color="#9E00FF"/>
</linearGradient>
<linearGradient id="paint1_linear" x1="41.5002" y1="16.5" x2="41.5002" y2="46.5" gradientUnits="userSpaceOnUse">
<stop stop-color="#2200FF"/>
<stop offset="1" stop-color="#9E00FF"/>
</linearGradient>
<linearGradient id="paint2_linear" x1="25" y1="16.5" x2="25" y2="25.5" gradientUnits="userSpaceOnUse">
<stop stop-color="#2200FF"/>
<stop offset="1" stop-color="#9E00FF"/>
</linearGradient>
<linearGradient id="paint3_linear" x1="35.5" y1="10.5" x2="35.5" y2="16.5" gradientUnits="userSpaceOnUse">
<stop stop-color="#2200FF"/>
<stop offset="1" stop-color="#9E00FF"/>
</linearGradient>
<linearGradient id="paint4_linear" x1="14.5" y1="10.5" x2="14.5" y2="16.5" gradientUnits="userSpaceOnUse">
<stop stop-color="#2200FF"/>
<stop offset="1" stop-color="#9E00FF"/>
</linearGradient>
<linearGradient id="paint5_linear" x1="26" y1="1.5" x2="26" y2="16.5" gradientUnits="userSpaceOnUse">
<stop stop-color="#2200FF"/>
<stop offset="1" stop-color="#9E00FF"/>
</linearGradient>
<linearGradient id="paint6_linear" x1="25" y1="4.5" x2="25" y2="10.5" gradientUnits="userSpaceOnUse">
<stop stop-color="#2200FF"/>
<stop offset="1" stop-color="#9E00FF"/>
</linearGradient>
</defs>
</svg>
