<svg width="48" height="48" viewBox="0 0 48 48" fill="none" xmlns="http://www.w3.org/2000/svg">
<path d="M46.5 1.49597L31.5 16.496" stroke="url(#paint0_linear)" stroke-width="2.5" stroke-linecap="round" stroke-linejoin="round"/>
<path d="M16.5 43.496V31.496H4.5" stroke="url(#paint1_linear)" stroke-width="2.5" stroke-linecap="round" stroke-linejoin="round"/>
<path d="M31.5 4.49597V16.496H43.5" stroke="url(#paint2_linear)" stroke-width="2.5" stroke-linecap="round" stroke-linejoin="round"/>
<path d="M16.5 31.496L1.5 46.496" stroke="url(#paint3_linear)" stroke-width="2.5" stroke-linecap="round" stroke-linejoin="round"/>
<path d="M1.5 1.49597L16.5 16.496" stroke="url(#paint4_linear)" stroke-width="2.5" stroke-linecap="round" stroke-linejoin="round"/>
<path d="M31.5 43.496V31.496H43.5" stroke="url(#paint5_linear)" stroke-width="2.5" stroke-linecap="round" stroke-linejoin="round"/>
<path d="M16.5 4.49597V16.496H4.5" stroke="url(#paint6_linear)" stroke-width="2.5" stroke-linecap="round" stroke-linejoin="round"/>
<path d="M31.5 31.496L46.5 46.496" stroke="url(#paint7_linear)" stroke-width="2.5" stroke-linecap="round" stroke-linejoin="round"/>
<path fill-rule="evenodd" clip-rule="evenodd" d="M24 28.496C26.4853 28.496 28.5 26.4813 28.5 23.996C28.5 21.5107 26.4853 19.496 24 19.496C21.5147 19.496 19.5 21.5107 19.5 23.996C19.5 26.4813 21.5147 28.496 24 28.496Z" stroke="url(#paint8_linear)" stroke-width="2.5" stroke-linecap="round" stroke-linejoin="round"/>
<defs>
<linearGradient id="paint0_linear" x1="39" y1="1.49597" x2="39" y2="16.496" gradientUnits="userSpaceOnUse">
<stop stop-color="#2200FF"/>
<stop offset="1" stop-color="#9E00FF"/>
</linearGradient>
<linearGradient id="paint1_linear" x1="10.5" y1="31.496" x2="10.5" y2="43.496" gradientUnits="userSpaceOnUse">
<stop stop-color="#2200FF"/>
<stop offset="1" stop-color="#9E00FF"/>
</linearGradient>
<linearGradient id="paint2_linear" x1="37.5" y1="4.49597" x2="37.5" y2="16.496" gradientUnits="userSpaceOnUse">
<stop stop-color="#2200FF"/>
<stop offset="1" stop-color="#9E00FF"/>
</linearGradient>
<linearGradient id="paint3_linear" x1="9" y1="31.496" x2="9" y2="46.496" gradientUnits="userSpaceOnUse">
<stop stop-color="#2200FF"/>
<stop offset="1" stop-color="#9E00FF"/>
</linearGradient>
<linearGradient id="paint4_linear" x1="9" y1="1.49597" x2="9" y2="16.496" gradientUnits="userSpaceOnUse">
<stop stop-color="#2200FF"/>
<stop offset="1" stop-color="#9E00FF"/>
</linearGradient>
<linearGradient id="paint5_linear" x1="37.5" y1="31.496" x2="37.5" y2="43.496" gradientUnits="userSpaceOnUse">
<stop stop-color="#2200FF"/>
<stop offset="1" stop-color="#9E00FF"/>
</linearGradient>
<linearGradient id="paint6_linear" x1="10.5" y1="4.49597" x2="10.5" y2="16.496" gradientUnits="userSpaceOnUse">
<stop stop-color="#2200FF"/>
<stop offset="1" stop-color="#9E00FF"/>
</linearGradient>
<linearGradient id="paint7_linear" x1="39" y1="31.496" x2="39" y2="46.496" gradientUnits="userSpaceOnUse">
<stop stop-color="#2200FF"/>
<stop offset="1" stop-color="#9E00FF"/>
</linearGradient>
<linearGradient id="paint8_linear" x1="24" y1="19.496" x2="24" y2="28.496" gradientUnits="userSpaceOnUse">
<stop stop-color="#2200FF"/>
<stop offset="1" stop-color="#9E00FF"/>
</linearGradient>
</defs>
</svg>
