<svg viewBox="0 0 100 100" xmlns="http://www.w3.org/2000/svg" id="Sports-Golf-Bag--Streamline-Ux" height="100" width="100"><desc>Sports Golf Bag Streamline Illustration: https://streamlinehq.com</desc><path d="M13.551 68.037a40.017 40.017 0 0 0 72.9 0Z" fill="#c8ffa1" stroke-width="1"></path><path d="M86.449 68.037a40 40 0 1 0 -72.9 0Z" fill="#b8ecff" stroke-width="1"></path><path d="m11 68.037 78 0" fill="none" stroke="#45413c" stroke-linecap="round" stroke-linejoin="round" stroke-width="1"></path><path d="m6.5 68.037 2.5 0" fill="none" stroke="#45413c" stroke-linecap="round" stroke-linejoin="round" stroke-width="1"></path><path d="m93.5 68.037 -2.5 0" fill="none" stroke="#45413c" stroke-linecap="round" stroke-linejoin="round" stroke-width="1"></path><path d="m38.5 77.039 11 0" fill="none" stroke="#45413c" stroke-linecap="round" stroke-linejoin="round" stroke-width="1"></path><path d="m53.5 84.039 7 0" fill="none" stroke="#45413c" stroke-linecap="round" stroke-linejoin="round" stroke-width="1"></path><path d="m74.5 72.039 4 0" fill="none" stroke="#45413c" stroke-linecap="round" stroke-linejoin="round" stroke-width="1"></path><path d="m44.638 49 0.712 4.274a0.829 0.829 0 0 0 0.817 0.692h5.69" fill="none" stroke="#45413c" stroke-linecap="round" stroke-linejoin="round" stroke-width="1"></path><path d="m47.121 49.003 0 4.966" fill="none" stroke="#45413c" stroke-linecap="round" stroke-linejoin="round" stroke-width="1"></path><path d="m49.603 49.003 0 4.966" fill="none" stroke="#45413c" stroke-linecap="round" stroke-linejoin="round" stroke-width="1"></path><path d="m45.052 51.486 5.873 0" fill="none" stroke="#45413c" stroke-linecap="round" stroke-linejoin="round" stroke-width="1"></path><path d="M44.638 49h5.793v-1.652h-5.793a0.828 0.828 0 0 0 -0.828 0.828h0a0.828 0.828 0 0 0 0.828 0.824Z" fill="#87898c" stroke="#45413c" stroke-linecap="round" stroke-linejoin="round" stroke-width="1"></path><path d="M59.362 53.141h-6.448v2.483h7.448v-1.483a1 1 0 0 0 -1 -1Z" fill="#ffffff" stroke="#45413c" stroke-linecap="round" stroke-linejoin="round" stroke-width="1"></path><path d="M52.086 51.486h1.386a0.828 0.828 0 0 0 0.8 -1.055l-1.011 -3.537a1.656 1.656 0 0 0 -1.592 -1.2h-1.238v1.655Z" fill="#ffffff" stroke="#45413c" stroke-linecap="round" stroke-linejoin="round" stroke-width="1"></path><path d="M76.4 50.659a0.827 0.827 0 0 1 -0.8 -0.615l-3.31 -12.413a0.828 0.828 0 1 1 1.6 -0.427l3.31 12.414a0.827 0.827 0 0 1 -0.587 1.012 0.788 0.788 0 0 1 -0.213 0.029Z" fill="#87898c" stroke="#45413c" stroke-linecap="round" stroke-linejoin="round" stroke-width="1"></path><path d="M52.741 54.8a0.828 0.828 0 0 1 -0.775 -0.537l-1.9 -5.075a9.92 9.92 0 0 1 -0.636 -3.488v-8.28a0.828 0.828 0 0 1 1.656 0v8.28a8.248 8.248 0 0 0 0.527 2.907l1.9 5.074a0.829 0.829 0 0 1 -0.485 1.066 0.82 0.82 0 0 1 -0.287 0.053Z" fill="#87898c" stroke="#45413c" stroke-linecap="round" stroke-linejoin="round" stroke-width="1"></path><path d="M71.12 51.486a0.816 0.816 0 0 1 -0.325 -0.067L65 48.936a0.828 0.828 0 0 1 0.653 -1.521l5.794 2.485a0.828 0.828 0 0 1 -0.327 1.588Z" fill="#87898c" stroke="#45413c" stroke-linecap="round" stroke-linejoin="round" stroke-width="1"></path><path d="M63.672 50.659a0.827 0.827 0 0 1 -0.768 -1.135l1.655 -4.138A0.828 0.828 0 1 1 66.1 46l-1.655 4.138a0.828 0.828 0 0 1 -0.773 0.521Z" fill="#87898c" stroke="#45413c" stroke-linecap="round" stroke-linejoin="round" stroke-width="1"></path><path d="m72.776 62.245 3.31 -12.414h1.655c8.276 0 9.931 7.448 9.931 9.931v2.483Z" fill="#ff6242" stroke-width="1"></path><path d="M77.741 49.831h-1.655l-0.883 3.31h1.435c8.336 0 10.619 6.11 10.975 9.1h0.059v-2.479c0 -2.483 -1.655 -9.931 -9.931 -9.931Z" fill="#ff6242" stroke-width="1"></path><path d="m72.776 62.245 3.31 -12.414h1.655c8.276 0 9.931 7.448 9.931 9.931v2.483Z" fill="none" stroke="#45413c" stroke-linecap="round" stroke-linejoin="round" stroke-width="1"></path><path d="M76.086 49.831h-4.138l-1.228 2.457a0.828 0.828 0 0 0 0.478 1.155l1.578 0.526 -2.483 8.276h2.483Z" fill="#87898c" stroke-width="1"></path><path d="m75.424 52.314 0.662 -2.483h-4.138l-1.228 2.457c0 0.008 0 0.017 -0.007 0.026Z" fill="#87898c" stroke-width="1"></path><path d="M76.086 49.831h-4.138l-1.228 2.457a0.828 0.828 0 0 0 0.478 1.155l1.578 0.526 -2.483 8.276h2.483Z" fill="none" stroke="#45413c" stroke-linecap="round" stroke-linejoin="round" stroke-width="1"></path><path d="m52.914 53.969 0.827 1.655h6.621v6.621H41.328s0.827 -8.276 11.586 -8.276Z" fill="#ff6242" stroke-width="1"></path><path d="M53.921 55.624h-0.18l-0.827 -1.655c-10.759 0 -11.586 8.276 -11.586 8.276h0.457c0.95 -2.415 3.798 -6.621 12.136 -6.621Z" fill="#ff6242" stroke-width="1"></path><path d="m60.362 57.279 0 -1.655 -6.441 0 0.9 1.655 5.541 0z" fill="#ff6242" stroke-width="1"></path><path d="m52.914 53.969 0.827 1.655h6.621v6.621H41.328s0.827 -8.276 11.586 -8.276Z" fill="none" stroke="#45413c" stroke-linecap="round" stroke-linejoin="round" stroke-width="1"></path><path d="M47.121 64.728H41.5a1 1 0 0 1 -1 -1v-0.483a1 1 0 0 1 1 -1h5.621Z" fill="#87898c" stroke="#45413c" stroke-linecap="round" stroke-linejoin="round" stroke-width="1"></path><path d="M83.534 63.072H87.5a1 1 0 0 0 1 -1v-1.31a1 1 0 0 0 -1 -1h-3.966Z" fill="#87898c" stroke="#45413c" stroke-linecap="round" stroke-linejoin="round" stroke-width="1"></path><path d="m53.741 55.624 0.262 0.785a2.483 2.483 0 0 0 2.355 1.7h4" fill="none" stroke="#45413c" stroke-linecap="round" stroke-linejoin="round" stroke-width="1"></path><path d="M75.317 37.417H48.52a0.412 0.412 0 0 1 -0.391 -0.542l0.27 -0.809a1.654 1.654 0 0 1 1.57 -1.132h22.247a4.138 4.138 0 0 1 3.443 1.843h0a0.411 0.411 0 0 1 -0.342 0.64Z" fill="#ffffff" stroke="#45413c" stroke-linecap="round" stroke-linejoin="round" stroke-width="1"></path><path d="M46.293 57.532v-1.08h-3.31a0.828 0.828 0 0 0 -0.828 0.827v2.483h2.439a7.449 7.449 0 0 1 1.699 -2.23Z" fill="#87898c" stroke="#45413c" stroke-linecap="round" stroke-linejoin="round" stroke-width="1"></path><path d="M81.052 53.141v0.639a5.461 5.461 0 0 1 3 2.672h1.961v-2.483a1.655 1.655 0 0 0 -1.655 -1.655h-2.479a0.827 0.827 0 0 0 -0.827 0.827Z" fill="#87898c" stroke="#45413c" stroke-linecap="round" stroke-linejoin="round" stroke-width="1"></path><path d="m73.603 58.934 -0.827 3.311 -18.207 0 0 3.31 21.517 0 0 -3.31 0.828 -3.311 -3.311 0z" fill="#87898c" stroke="#45413c" stroke-linecap="round" stroke-linejoin="round" stroke-width="1"></path><path d="M75.258 63.072a4.966 4.966 0 1 0 9.932 0 4.966 4.966 0 1 0 -9.932 0Z" fill="#87898c" stroke-width="1"></path><path d="M85.03 64.326a4.959 4.959 0 0 0 -9.612 0 4.966 4.966 0 1 1 9.612 0Z" fill="#87898c" stroke-width="1"></path><path d="M75.258 63.072a4.966 4.966 0 1 0 9.932 0 4.966 4.966 0 1 0 -9.932 0Z" fill="none" stroke="#45413c" stroke-linecap="round" stroke-linejoin="round" stroke-width="1"></path><path d="M77.741 63.072a2.483 2.483 0 1 0 4.966 0 2.483 2.483 0 1 0 -4.966 0Z" fill="#adc4d9" stroke-width="1"></path><path d="M82.627 63.7a2.479 2.479 0 0 0 -4.806 0 2.483 2.483 0 1 1 4.806 0Z" fill="#adc4d9" stroke-width="1"></path><path d="M77.741 63.072a2.483 2.483 0 1 0 4.966 0 2.483 2.483 0 1 0 -4.966 0Z" fill="none" stroke="#45413c" stroke-linecap="round" stroke-linejoin="round" stroke-width="1"></path><path d="m80.224 60.59 0 1.655" fill="none" stroke="#45413c" stroke-linecap="round" stroke-linejoin="round" stroke-width="1"></path><path d="m82.707 63.072 -1.655 0" fill="none" stroke="#45413c" stroke-linecap="round" stroke-linejoin="round" stroke-width="1"></path><path d="m80.224 65.555 0 -1.655" fill="none" stroke="#45413c" stroke-linecap="round" stroke-linejoin="round" stroke-width="1"></path><path d="m77.741 63.072 1.656 0" fill="none" stroke="#45413c" stroke-linecap="round" stroke-linejoin="round" stroke-width="1"></path><path d="M46.293 63.072a4.966 4.966 0 1 0 9.932 0 4.966 4.966 0 1 0 -9.932 0Z" fill="#87898c" stroke-width="1"></path><path d="M56.064 64.326a4.958 4.958 0 0 0 -9.611 0 4.966 4.966 0 1 1 9.771 -1.255 4.931 4.931 0 0 1 -0.16 1.255Z" fill="#87898c" stroke-width="1"></path><path d="M46.293 63.072a4.966 4.966 0 1 0 9.932 0 4.966 4.966 0 1 0 -9.932 0Z" fill="none" stroke="#45413c" stroke-linecap="round" stroke-linejoin="round" stroke-width="1"></path><path d="M48.776 63.072a2.483 2.483 0 1 0 4.966 0 2.483 2.483 0 1 0 -4.966 0Z" fill="#adc4d9" stroke-width="1"></path><path d="M53.662 63.7a2.479 2.479 0 0 0 -4.806 0 2.457 2.457 0 0 1 -0.08 -0.628 2.483 2.483 0 1 1 4.886 0.627Z" fill="#adc4d9" stroke-width="1"></path><path d="M48.776 63.072a2.483 2.483 0 1 0 4.966 0 2.483 2.483 0 1 0 -4.966 0Z" fill="none" stroke="#45413c" stroke-linecap="round" stroke-linejoin="round" stroke-width="1"></path><path d="m51.259 60.59 0 1.655" fill="none" stroke="#45413c" stroke-linecap="round" stroke-linejoin="round" stroke-width="1"></path><path d="m53.741 63.072 -1.655 0" fill="none" stroke="#45413c" stroke-linecap="round" stroke-linejoin="round" stroke-width="1"></path><path d="m51.259 65.555 0 -1.655" fill="none" stroke="#45413c" stroke-linecap="round" stroke-linejoin="round" stroke-width="1"></path><path d="m48.776 63.072 1.655 0" fill="none" stroke="#45413c" stroke-linecap="round" stroke-linejoin="round" stroke-width="1"></path><path d="M46.5 85.209c0 -0.952 -5.82 -1.725 -13 -1.725s-13 0.773 -13 1.725 5.82 1.725 13 1.725 13 -0.772 13 -1.725Z" fill="#45413c" opacity=".15" stroke-width="1"></path><path d="M69.5 82.209c0 -0.952 -1.791 -1.725 -4 -1.725s-4 0.773 -4 1.725 1.791 1.725 4 1.725 4 -0.772 4 -1.725Z" fill="#45413c" opacity=".15" stroke-width="1"></path><path d="M23.522 23.762h2.313v15.037h-2.313z" fill="#daedf7" stroke="#45413c" stroke-linecap="round" stroke-linejoin="round" stroke-width="1"></path><path d="m25.836 24.919 -7.57 1.261a4.77 4.77 0 0 1 -5.517 -5.3 3.028 3.028 0 0 1 3.279 -2.639l6.161 0.56a4.009 4.009 0 0 1 3.647 3.999Z" fill="#adc4d9" stroke-width="1"></path><path d="M25.836 24.919a4.444 4.444 0 0 0 -3.647 -2.819l-6.162 -0.561a3.019 3.019 0 0 0 -2.983 1.69 4.744 4.744 0 0 1 -0.295 -2.349 3.028 3.028 0 0 1 3.279 -2.639l6.161 0.56a4.009 4.009 0 0 1 3.647 3.999Z" fill="#daedf7" stroke-width="1"></path><path d="m25.836 24.919 -7.57 1.261a4.77 4.77 0 0 1 -5.517 -5.3h0a3.028 3.028 0 0 1 3.279 -2.639l6.161 0.56a4.009 4.009 0 0 1 3.647 3.999Z" fill="none" stroke="#45413c" stroke-linecap="round" stroke-linejoin="round" stroke-width="1"></path><path d="M33.532 21.711h2.313v19.664h-2.313z" fill="#daedf7" stroke="#45413c" stroke-linecap="round" stroke-linejoin="round" stroke-width="1"></path><path d="m41.884 21.94 -8.352 0.928v-2.96a2.313 2.313 0 0 1 1.582 -2.2l5.786 -1.922a2.313 2.313 0 0 1 3.045 2.194v1.66a2.314 2.314 0 0 1 -2.061 2.3Z" fill="#adc4d9" stroke-width="1"></path><path d="M43.891 20.128a2.307 2.307 0 0 0 -2.991 -1.767l-5.783 1.928a2.313 2.313 0 0 0 -1.582 2.194v-2.575a2.313 2.313 0 0 1 1.582 -2.2l5.783 -1.922a2.313 2.313 0 0 1 3.045 2.194v1.66a2.376 2.376 0 0 1 -0.054 0.488Z" fill="#daedf7" stroke-width="1"></path><path d="m41.884 21.94 -8.352 0.928v-2.96a2.313 2.313 0 0 1 1.582 -2.2l5.786 -1.922a2.313 2.313 0 0 1 3.045 2.194v1.66a2.314 2.314 0 0 1 -2.061 2.3Z" fill="none" stroke="#45413c" stroke-linecap="round" stroke-linejoin="round" stroke-width="1"></path><path d="M28.905 14.508h2.313v19.664h-2.313z" fill="#daedf7" stroke="#45413c" stroke-linecap="round" stroke-linejoin="round" stroke-width="1"></path><path d="m37.257 14.737 -8.352 0.928v-2.959a2.313 2.313 0 0 1 1.582 -2.2l5.783 -1.923a2.314 2.314 0 0 1 3.045 2.2v1.66a2.313 2.313 0 0 1 -2.058 2.294Z" fill="#adc4d9" stroke-width="1"></path><path d="M39.264 12.926a2.306 2.306 0 0 0 -2.993 -1.768l-5.784 1.929a2.311 2.311 0 0 0 -1.582 2.194v-2.575a2.313 2.313 0 0 1 1.582 -2.2l5.783 -1.923a2.314 2.314 0 0 1 3.045 2.2v1.66a2.316 2.316 0 0 1 -0.051 0.483Z" fill="#daedf7" stroke-width="1"></path><path d="m37.257 14.737 -8.352 0.928v-2.959a2.313 2.313 0 0 1 1.582 -2.2l5.783 -1.923a2.314 2.314 0 0 1 3.045 2.2v1.66a2.313 2.313 0 0 1 -2.058 2.294Z" fill="none" stroke="#45413c" stroke-linecap="round" stroke-linejoin="round" stroke-width="1"></path><path d="M43.028 78.128h-1.4l1.593 -10.353 1.741 -0.058A1.157 1.157 0 0 1 46.113 69l-0.785 7.068a2.315 2.315 0 0 1 -2.3 2.06Z" fill="#bf8256" stroke-width="1"></path><path d="M43.028 78.128h-1.4l1.593 -10.353 1.741 -0.058A1.157 1.157 0 0 1 46.113 69l-0.785 7.068a2.315 2.315 0 0 1 -2.3 2.06Z" fill="none" stroke="#45413c" stroke-linecap="round" stroke-linejoin="round" stroke-width="1"></path><path d="M39.315 83.911H20.808a1.157 1.157 0 0 1 -1.157 -1.157V31.859a1.157 1.157 0 0 1 1.157 -1.159h6.859a2.312 2.312 0 0 0 1.925 -1.03l0.6 -0.894a3.471 3.471 0 0 1 2.888 -1.546h6.239a1.157 1.157 0 0 1 1.157 1.157v54.367a1.157 1.157 0 0 1 -1.161 1.157Z" fill="#e09f7e" stroke-width="1"></path><path d="M19.651 78.128h20.821v2.313H19.651z" fill="#bf8256" stroke-width="1"></path><path d="M39.315 27.232h-6.239a3.473 3.473 0 0 0 -2.888 1.545l-0.6 0.895a2.314 2.314 0 0 1 -1.925 1.03h-6.855a1.157 1.157 0 0 0 -1.157 1.157v3.47a1.157 1.157 0 0 1 1.157 -1.157h6.859a2.312 2.312 0 0 0 1.925 -1.03l0.6 -0.894a3.471 3.471 0 0 1 2.884 -1.548h6.239a1.157 1.157 0 0 1 1.157 1.157v-3.47a1.157 1.157 0 0 0 -1.157 -1.155Z" fill="#f0c2a1" stroke-width="1"></path><path d="M39.315 83.911H20.808a1.157 1.157 0 0 1 -1.157 -1.157V31.859a1.157 1.157 0 0 1 1.157 -1.159h6.859a2.312 2.312 0 0 0 1.925 -1.03l0.6 -0.894a3.471 3.471 0 0 1 2.888 -1.546h6.239a1.157 1.157 0 0 1 1.157 1.157v54.367a1.157 1.157 0 0 1 -1.161 1.157Z" fill="none" stroke="#45413c" stroke-linecap="round" stroke-linejoin="round" stroke-width="1"></path><path d="m19.651 34.172 20.821 0" fill="none" stroke="#45413c" stroke-linecap="round" stroke-linejoin="round" stroke-width="1"></path><path d="M19.651 37.643h20.821v40.485H19.651z" fill="#e09f7e" stroke-width="1"></path><path d="M19.651 37.643h20.821v2.313H19.651z" fill="#bf8256" stroke-width="1"></path><path d="M19.651 37.643h20.821v40.485H19.651z" fill="none" stroke="#45413c" stroke-linecap="round" stroke-linejoin="round" stroke-width="1"></path><path d="M40.472 63.09s-1.157 -10.41 -9.254 -15.037c-8.982 -5.133 -11.567 -10.41 -11.567 -10.41s-4.627 3.47 -8.1 11.567c-2.453 5.725 -2.313 21.977 0 24.291a15.648 15.648 0 0 0 8.1 4.627h9.254S31.218 63.09 40.472 63.09Z" fill="#e09f7e" stroke-width="1"></path><path d="M40.472 63.09h2.122a1.157 1.157 0 0 1 1.143 1.333l-2.108 13.7H28.905S31.218 63.09 40.472 63.09Z" fill="#e09f7e" stroke-width="1"></path><path d="M41.82 65.4h1.766l0.151 -0.981a1.157 1.157 0 0 0 -1.143 -1.333h-2.122c-9.254 0 -11.567 15.038 -11.567 15.038h1.845C31.826 73.911 34.859 65.4 41.82 65.4Z" fill="#f0c2a1" stroke-width="1"></path><path d="M40.472 63.09h2.122a1.157 1.157 0 0 1 1.143 1.333l-2.108 13.7H28.905S31.218 63.09 40.472 63.09Z" fill="none" stroke="#45413c" stroke-linecap="round" stroke-linejoin="round" stroke-width="1"></path><path d="m25.578 44.226 -0.143 0.357a29.387 29.387 0 0 0 -1.157 13.88 16.6 16.6 0 0 0 6.94 11.568l0.214 0.128" fill="none" stroke="#45413c" stroke-linecap="round" stroke-linejoin="round" stroke-width="1"></path><path d="M43.585 65.411c-4.34 0.075 -5.769 1.484 -6.612 2.279a1.159 1.159 0 0 0 0.27 1.883l0.916 0.458a9.061 9.061 0 0 1 5.063 -2.256Z" fill="#ffffff" stroke="#45413c" stroke-linecap="round" stroke-linejoin="round" stroke-width="1"></path><path d="m37.654 67.086 2.987 1.363 1.271 -2.931" fill="none" stroke="#45413c" stroke-linecap="round" stroke-linejoin="round" stroke-width="1"></path><path d="M14.382 75.836c-1.671 -4.414 -1.559 -18.019 0.642 -23.156a31.513 31.513 0 0 1 7.606 -11.156 17.579 17.579 0 0 1 -2.977 -3.883s-4.627 3.47 -8.1 11.567c-2.453 5.725 -2.313 21.977 0 24.291a19.1 19.1 0 0 0 2.826 2.338" fill="#f0c2a1" stroke-width="1"></path><path d="m9.787 64.044 0.611 0.2s6.94 2.313 9.253 5.784a16.571 16.571 0 0 1 2.314 8.1" fill="none" stroke="#45413c" stroke-linecap="round" stroke-linejoin="round" stroke-width="1"></path><path d="M11.012 50.783a12.872 12.872 0 0 1 0.542 -1.573q0.2 -0.458 0.4 -0.9c1.863 0.459 5.422 1.526 6.544 3.208l-0.5 0.742a1.814 1.814 0 0 1 -2.336 0.389 17.57 17.57 0 0 0 -4.65 -1.866Z" fill="#ffffff" stroke="#45413c" stroke-linecap="round" stroke-linejoin="round" stroke-width="1"></path><path d="m17.276 50.387 -3.408 1.136 -1.559 -3.118" fill="none" stroke="#45413c" stroke-linecap="round" stroke-linejoin="round" stroke-width="1"></path><path d="M40.472 63.09s-1.157 -10.41 -9.254 -15.037c-8.982 -5.133 -11.567 -10.41 -11.567 -10.41s-4.627 3.47 -8.1 11.567c-2.453 5.725 -2.313 21.977 0 24.291a15.648 15.648 0 0 0 8.1 4.627h9.254S31.218 63.09 40.472 63.09Z" fill="none" stroke="#45413c" stroke-linecap="round" stroke-linejoin="round" stroke-width="1"></path><path d="M63.5 72.934v2s1 1 1 4v3h2v-3c0 -3 1 -4 1 -4v-2Z" fill="#ffffff" stroke="#45413c" stroke-linecap="round" stroke-linejoin="round" stroke-width="1"></path><path d="M60.5 68.934a5 5 0 1 0 10 0 5 5 0 1 0 -10 0Z" fill="#daedf7" stroke-width="1"></path><path d="M70.258 67.394a4.968 4.968 0 0 1 -9.516 0 5 5 0 0 1 9.516 0Z" fill="#ffffff" stroke-width="1"></path><path d="M60.5 68.934a5 5 0 1 0 10 0 5 5 0 1 0 -10 0Z" fill="none" stroke="#45413c" stroke-linecap="round" stroke-linejoin="round" stroke-width="1"></path></svg>