<svg xmlns="http://www.w3.org/2000/svg" fill="none" viewBox="0 0 100 100" id="Sports-Golf-4--Streamline-Ux" height="100" width="100"><desc>Sports Golf 4 Streamline Illustration: https://streamlinehq.com</desc><path fill="#ccf7ad" d="M50 90.6c7.0169 -0.0005 13.9099 -1.8493 19.9853 -5.3603C76.0607 81.7288 81.1041 76.6795 84.608 70.6H15.392c3.5039 6.0795 8.5473 11.1288 14.6227 14.6397C36.09 88.7507 42.983 90.5995 50 90.6Z" stroke-width="1"></path><path fill="#ccf7ad" d="M13.564 67.1c0.546 1.2 1.17 2.363 1.828 3.5h69.216c0.658 -1.137 1.282 -2.3 1.828 -3.5H13.564Z" stroke-width="1"></path><path fill="#b8ecff" d="M90 50.6c0.0008 -5.9698 -1.3347 -11.8642 -3.9086 -17.2507 -2.5738 -5.3865 -6.3207 -10.1285 -10.9658 -13.8784 -4.6452 -3.7499 -10.0708 -6.4125 -15.8789 -7.7925 -5.8081 -1.3801 -11.8515 -1.4426 -17.687 -0.1829 -5.8354 1.2597 -11.3149 3.8096 -16.0365 7.4626 -4.7217 3.6531 -8.5658 8.3167 -11.2504 13.6489 -2.6846 5.3321 -4.1417 11.1976 -4.2644 17.1661 -0.1226 5.9686 1.0923 11.889 3.5556 17.3269h72.872c2.3528 -5.1823 3.5681 -10.8086 3.564 -16.5Z" stroke-width="1"></path><path stroke="#45413c" stroke-linecap="round" stroke-linejoin="round" d="M11 67.104h78" stroke-width="1"></path><path stroke="#45413c" stroke-linecap="round" stroke-linejoin="round" d="M6.5 67.104H9" stroke-width="1"></path><path stroke="#45413c" stroke-linecap="round" stroke-linejoin="round" d="M91 67.104h2.5" stroke-width="1"></path><path fill="#6dd627" stroke="#45413c" stroke-linecap="round" stroke-linejoin="round" d="M15.115 67.1s17.916 -10.75 50.44 -10.75c20.4 0 22.877 10.75 22.877 10.75H15.115Z" stroke-width="1"></path><path stroke="#45413c" stroke-linecap="round" stroke-linejoin="round" d="M65.2791 56.354V40.092" stroke-width="1"></path><path fill="#ff6242" stroke="#45413c" stroke-linecap="round" stroke-linejoin="round" d="M65.2791 35.149v4.943l5.353 -2.292c0.199 -0.0842 0.3688 -0.2252 0.4882 -0.4054 0.1193 -0.1801 0.183 -0.3915 0.183 -0.6076 0 -0.2161 -0.0637 -0.4274 -0.183 -0.6076 -0.1194 -0.1801 -0.2892 -0.3211 -0.4882 -0.4054l-3.816 -1.636c-0.1675 -0.0725 -0.3504 -0.1022 -0.5322 -0.0864 -0.1818 0.0158 -0.3569 0.0766 -0.5093 0.1769 -0.1525 0.1003 -0.2776 0.2369 -0.3641 0.3976 -0.0865 0.1607 -0.1317 0.3404 -0.1314 0.5229v0Z" stroke-width="1"></path><path fill="#daedf7" d="M48.4939 46.442c0 -3.0264 -1.2023 -5.9288 -3.3422 -8.0688 -2.14 -2.14 -5.0424 -3.3422 -8.0688 -3.3422 -3.0264 0 -5.9288 1.2022 -8.0688 3.3422 -2.14 2.14 -3.3422 5.0424 -3.3422 8.0688v3.8h4.437v8.241h13.947v-8.237h4.438v-3.804Z" stroke-width="1"></path><path fill="#ffffff" d="M37.0829 35.031c-3.0264 0 -5.9288 1.2022 -8.0688 3.3422 -2.14 2.14 -3.3422 5.0424 -3.3422 8.0688v3.8c0 -3.0264 1.2022 -5.9288 3.3422 -8.0688 2.14 -2.14 5.0424 -3.3422 8.0688 -3.3422 3.0264 0 5.9288 1.2022 8.0688 3.3422 2.1399 2.14 3.3422 5.0424 3.3422 8.0688v-3.8c0 -3.0264 -1.2023 -5.9288 -3.3422 -8.0688 -2.14 -2.14 -5.0424 -3.3422 -8.0688 -3.3422Z" stroke-width="1"></path><path stroke="#45413c" stroke-linecap="round" stroke-linejoin="round" d="M48.4939 46.442c0 -3.0264 -1.2023 -5.9288 -3.3422 -8.0688 -2.14 -2.14 -5.0424 -3.3422 -8.0688 -3.3422 -3.0264 0 -5.9288 1.2022 -8.0688 3.3422 -2.14 2.14 -3.3422 5.0424 -3.3422 8.0688v3.8h4.437v8.241h13.947v-8.237h4.438v-3.804Z" stroke-width="1"></path><path stroke="#45413c" stroke-linecap="round" stroke-linejoin="round" d="M30.1089 50.246v-0.8c0.0005 -0.7882 -0.2442 -1.557 -0.7 -2.2 -0.3867 -0.6235 -0.5847 -1.3455 -0.57 -2.079" stroke-width="1"></path><path stroke="#45413c" stroke-linecap="round" stroke-linejoin="round" d="M44.0559 50.246v-0.8c-0.0005 -0.7882 0.2442 -1.557 0.7 -2.2 0.3858 -0.6238 0.5834 -1.3457 0.569 -2.079" stroke-width="1"></path><path fill="#45413c" d="M37.0829 85.113c7.0025 0 12.679 -0.8516 12.679 -1.902 0 -1.0505 -5.6765 -1.902 -12.679 -1.902 -7.0024 0 -12.679 0.8515 -12.679 1.902 0 1.0504 5.6766 1.902 12.679 1.902Z" opacity=".15" stroke-width="1"></path><path fill="#a6fbff" stroke="#45413c" stroke-linecap="round" stroke-linejoin="round" d="M32.6449 40.409c-0.0001 0.105 0.0259 0.2083 0.0757 0.3008 0.0497 0.0924 0.1216 0.171 0.2092 0.2288 0.0877 0.0578 0.1883 0.093 0.2928 0.1023 0.1046 0.0093 0.2098 -0.0075 0.3063 -0.0489l3.554 -1.523 -3.792 -3.792c-0.218 0.077 -0.434 0.16 -0.646 0.249v4.483Z" stroke-width="1"></path><path fill="#a6fbff" stroke="#45413c" stroke-linecap="round" stroke-linejoin="round" d="M41.5199 40.409c0.0002 0.1049 -0.0256 0.2083 -0.0752 0.3008 -0.0496 0.0924 -0.1215 0.1711 -0.209 0.2289 -0.0876 0.0578 -0.1882 0.093 -0.2927 0.1023 -0.1045 0.0093 -0.2097 -0.0076 -0.3061 -0.049l-3.554 -1.523 3.791 -3.792c0.2187 0.0767 0.434 0.1597 0.646 0.249v4.483Z" stroke-width="1"></path><path stroke="#45413c" stroke-linecap="round" stroke-linejoin="round" d="M37.0829 43.273v-3.804" stroke-width="1"></path><path fill="#bf8256" stroke="#45413c" stroke-linecap="round" stroke-linejoin="round" d="M40.1739 35.461c-0.2124 -0.0574 -0.3999 -0.1833 -0.5335 -0.3581 -0.1336 -0.1749 -0.2058 -0.3889 -0.2055 -0.6089v-2.8h-4.703v2.8c-0.0002 0.2194 -0.0726 0.4326 -0.2059 0.6068 -0.1334 0.1742 -0.3203 0.2997 -0.5321 0.3572 -0.2373 0.0667 -0.4706 0.1387 -0.7 0.216l3.792 3.792 3.791 -3.792c-0.232 -0.074 -0.466 -0.149 -0.703 -0.213Z" stroke-width="1"></path><path fill="#bf8256" stroke="#45413c" stroke-linecap="round" stroke-linejoin="round" d="M45.9579 26.388c-0.0032 -0.3608 -0.1313 -0.7094 -0.3625 -0.9865 -0.2311 -0.2771 -0.5511 -0.4656 -0.9055 -0.5335v-1.015c0.0116 -1.0064 -0.1767 -2.005 -0.5538 -2.9381 -0.3772 -0.9331 -0.9357 -1.7821 -1.6433 -2.4979 -0.7075 -0.7157 -1.5501 -1.2839 -2.4788 -1.6717 -0.9287 -0.3878 -1.9251 -0.5875 -2.9316 -0.5875 -1.0064 0 -2.0028 0.1997 -2.9316 0.5875 -0.9287 0.3878 -1.7712 0.956 -2.4788 1.6717 -0.7076 0.7158 -1.2661 1.5648 -1.6432 2.4979 -0.3772 0.9331 -0.5654 1.9317 -0.5539 2.9381v1.015c-0.3694 0.0695 -0.7011 0.2707 -0.9335 0.5662 -0.2324 0.2955 -0.3497 0.6653 -0.3302 1.0407 0.0195 0.3755 0.1746 0.7311 0.4364 1.0009 0.2619 0.2698 0.6126 0.4354 0.9873 0.4662 0.3548 1.7136 1.2895 3.2525 2.6466 4.3574 1.357 1.1049 3.0535 1.7081 4.8034 1.7081 1.75 0 3.4464 -0.6032 4.8035 -1.7081 1.3571 -1.1049 2.2917 -2.6438 2.6465 -4.3574 0.3877 -0.0365 0.748 -0.2157 1.0109 -0.5028 0.263 -0.2872 0.4099 -0.6618 0.4121 -1.0512v0Z" stroke-width="1"></path><path fill="#45413c" d="M35.1809 26.705c0.0002 0.1881 -0.0554 0.3721 -0.1598 0.5286 -0.1043 0.1565 -0.2528 0.2786 -0.4265 0.3507 -0.1738 0.0722 -0.365 0.0911 -0.5496 0.0546 -0.1845 -0.0366 -0.3541 -0.1271 -0.4872 -0.2601 -0.1331 -0.1329 -0.2237 -0.3024 -0.2605 -0.4869s-0.018 -0.3758 0.0539 -0.5496c0.072 -0.1738 0.1939 -0.3224 0.3503 -0.427 0.1564 -0.1045 0.3403 -0.1603 0.5284 -0.1603 0.2521 0 0.4938 0.1001 0.6721 0.2782 0.1784 0.1781 0.2787 0.4198 0.2789 0.6718Z" stroke-width="1"></path><path fill="#45413c" d="M39.9349 27.656c0.5252 0 0.951 -0.4258 0.951 -0.951 0 -0.5252 -0.4258 -0.951 -0.951 -0.951 -0.5252 0 -0.951 0.4258 -0.951 0.951 0 0.5252 0.4258 0.951 0.951 0.951Z" stroke-width="1"></path><path fill="#bf8256" d="M33.913 28.607c0 0.1881 -0.0558 0.372 -0.1603 0.5284 -0.1045 0.1563 -0.253 0.2782 -0.4268 0.3502 -0.1738 0.072 -0.365 0.0908 -0.5494 0.0541 -0.1845 -0.0367 -0.354 -0.1272 -0.487 -0.2602 -0.133 -0.133 -0.2235 -0.3025 -0.2602 -0.487 -0.0367 -0.1844 -0.0179 -0.3757 0.0541 -0.5494 0.072 -0.1738 0.1938 -0.3223 0.3502 -0.4268 0.1564 -0.1045 0.3403 -0.1603 0.5284 -0.1603 0.2522 0 0.4941 0.1002 0.6724 0.2785 0.1784 0.1784 0.2786 0.4203 0.2786 0.6725Z" stroke-width="1"></path><path fill="#bf8256" d="M42.154 28.607c0 0.1881 -0.0558 0.372 -0.1603 0.5284 -0.1045 0.1563 -0.253 0.2782 -0.4268 0.3502 -0.1738 0.072 -0.365 0.0908 -0.5495 0.0541s-0.3539 -0.1272 -0.4869 -0.2602c-0.133 -0.133 -0.2236 -0.3025 -0.2603 -0.487 -0.0367 -0.1844 -0.0178 -0.3757 0.0541 -0.5494 0.072 -0.1738 0.1939 -0.3223 0.3503 -0.4268 0.1564 -0.1045 0.3403 -0.1603 0.5284 -0.1603 0.2522 0 0.4941 0.1002 0.6724 0.2785 0.1784 0.1784 0.2786 0.4203 0.2786 0.6725Z" stroke-width="1"></path><path stroke="#45413c" stroke-linecap="round" stroke-linejoin="round" d="M35.1819 30.25c0.5628 0.3748 1.2238 0.5747 1.9 0.5747 0.6761 0 1.3372 -0.1999 1.9 -0.5747" stroke-width="1"></path><path fill="#614b44" stroke="#45413c" stroke-linecap="round" stroke-linejoin="round" d="M37.0828 15.612c1.7508 0 3.17 -1.4193 3.17 -3.17s-1.4192 -3.17 -3.17 -3.17c-1.7507 0 -3.17 1.4193 -3.17 3.17s1.4193 3.17 3.17 3.17Z" stroke-width="1"></path><path fill="#614b44" d="M37.0829 13.71c-1.1655 -0.0001 -2.3197 0.2293 -3.3965 0.6753s-2.0552 1.0997 -2.8794 1.9238c-0.8241 0.8242 -1.4778 1.8026 -1.9238 2.8794 -0.446 1.0768 -0.6754 2.231 -0.6753 3.3965v2.536l1.417 -0.3c0.376 -0.0943 0.7097 -0.3115 0.9481 -0.6172 0.2385 -0.3056 0.3679 -0.6822 0.3679 -1.0698v-1.817c-0.0003 -0.3043 0.0594 -0.6056 0.1757 -0.8868 0.1163 -0.2811 0.2869 -0.5366 0.502 -0.7518 0.2151 -0.2152 0.4705 -0.3859 0.7516 -0.5023 0.2811 -0.1164 0.5824 -0.1762 0.8867 -0.1761 1.29 0 2.252 0.544 3.826 1.268 1.573 -0.722 2.535 -1.268 3.826 -1.268 0.304 -0.0001 0.6051 0.0596 0.8861 0.1759 0.2809 0.1163 0.5361 0.2869 0.7511 0.5018 0.215 0.215 0.3855 0.4703 0.5018 0.7512 0.1163 0.281 0.1761 0.582 0.176 0.8861v1.812c0 0.3878 0.1296 0.7644 0.3682 1.0701 0.2387 0.3057 0.5726 0.5228 0.9488 0.6169l1.417 0.3v-2.529c0 -2.3538 -0.9351 -4.6112 -2.5994 -6.2756 -1.6644 -1.6644 -3.9218 -2.5994 -6.2756 -2.5994Z" stroke-width="1"></path><path fill="#a86c4d" d="M37.0829 13.71c-1.1655 -0.0001 -2.3197 0.2293 -3.3965 0.6753s-2.0552 1.0997 -2.8794 1.9238c-0.8241 0.8242 -1.4778 1.8026 -1.9238 2.8794 -0.446 1.0768 -0.6754 2.231 -0.6753 3.3965v2.536c0 -2.3538 0.935 -4.6112 2.5994 -6.2756 1.6644 -1.6644 3.9218 -2.5994 6.2756 -2.5994 2.3538 0 4.6112 0.935 6.2756 2.5994 1.6643 1.6644 2.5994 3.9218 2.5994 6.2756v-2.536c0 -2.3538 -0.9351 -4.6112 -2.5994 -6.2756 -1.6644 -1.6644 -3.9218 -2.5994 -6.2756 -2.5994Z" stroke-width="1"></path><path stroke="#45413c" stroke-linecap="round" stroke-linejoin="round" d="M37.0829 13.71c-1.1655 -0.0001 -2.3197 0.2293 -3.3965 0.6753s-2.0552 1.0997 -2.8794 1.9238c-0.8241 0.8242 -1.4778 1.8026 -1.9238 2.8794 -0.446 1.0768 -0.6754 2.231 -0.6753 3.3965v2.536l1.417 -0.3c0.376 -0.0943 0.7097 -0.3115 0.9481 -0.6172 0.2385 -0.3056 0.3679 -0.6822 0.3679 -1.0698v-1.817c-0.0003 -0.3043 0.0594 -0.6056 0.1757 -0.8868 0.1163 -0.2811 0.2869 -0.5366 0.502 -0.7518 0.2151 -0.2152 0.4705 -0.3859 0.7516 -0.5023 0.2811 -0.1164 0.5824 -0.1762 0.8867 -0.1761 1.29 0 2.252 0.544 3.826 1.268 1.573 -0.722 2.535 -1.268 3.826 -1.268 0.304 -0.0001 0.6051 0.0596 0.8861 0.1759 0.2809 0.1163 0.5361 0.2869 0.7511 0.5018 0.215 0.215 0.3855 0.4703 0.5018 0.7512 0.1163 0.281 0.1761 0.582 0.176 0.8861v1.812c0 0.3878 0.1296 0.7644 0.3682 1.0701 0.2387 0.3057 0.5726 0.5228 0.9488 0.6169l1.417 0.3v-2.529c0 -2.3538 -0.9351 -4.6112 -2.5994 -6.2756 -1.6644 -1.6644 -3.9218 -2.5994 -6.2756 -2.5994v0Z" stroke-width="1"></path><path fill="#ffffff" stroke="#45413c" stroke-linecap="round" stroke-linejoin="round" d="M28.412 20.683h17.341c-0.2488 -1.1378 -0.7202 -2.2151 -1.387 -3.17H29.8c-0.6672 0.9548 -1.1389 2.0322 -1.388 3.17v0Z" stroke-width="1"></path><path fill="#bdbec0" stroke="#45413c" stroke-linecap="round" stroke-linejoin="round" d="M28.412 20.683s1.7 3.17 8.671 3.17c6.971 0 8.67 -3.17 8.67 -3.17H28.412Z" stroke-width="1"></path><path fill="#f0d3a8" d="M44.056 58.487H30.109l-1.093 20.234c0.8075 -0.5078 1.7764 -0.6933 2.7144 -0.5197 0.9379 0.1736 1.7763 0.6936 2.3486 1.4567l1.031 -14.2c0.0199 -0.5098 0.2364 -0.9922 0.6041 -1.3458 0.3678 -0.3537 0.8582 -0.5513 1.3684 -0.5513 0.5102 0 1.0006 0.1976 1.3683 0.5513 0.3678 0.3536 0.5843 0.836 0.6042 1.3458l1.031 14.2c0.5723 -0.7634 1.4109 -1.2836 2.3491 -1.4572 0.9381 -0.1736 1.9073 0.0121 2.7149 0.5202l-1.094 -20.234Z" stroke-width="1"></path><path fill="#debb7e" d="m44.2959 62.925 -0.24 -4.438h-13.947l-0.24 4.438h14.427Z" stroke-width="1"></path><path stroke="#45413c" stroke-linecap="round" stroke-linejoin="round" d="M44.056 58.487H30.109l-1.093 20.234c0.8075 -0.5078 1.7764 -0.6933 2.7144 -0.5197 0.9379 0.1736 1.7763 0.6936 2.3486 1.4567l1.031 -14.2c0.0199 -0.5098 0.2364 -0.9922 0.6041 -1.3458 0.3678 -0.3537 0.8582 -0.5513 1.3684 -0.5513 0.5102 0 1.0006 0.1976 1.3683 0.5513 0.3678 0.3536 0.5843 0.836 0.6042 1.3458l1.031 14.2c0.5723 -0.7634 1.4109 -1.2836 2.3491 -1.4572 0.9381 -0.1736 1.9073 0.0121 2.7149 0.5202l-1.094 -20.234Z" stroke-width="1"></path><path fill="#87898c" stroke="#45413c" stroke-linecap="round" stroke-linejoin="round" d="M33.2349 81.943c0.2223 -0.0002 0.4407 -0.0588 0.6333 -0.1699 0.1925 -0.1111 0.3525 -0.2709 0.4639 -0.4633 0.1114 -0.1924 0.1703 -0.4107 0.1708 -0.633 0.0005 -0.2223 -0.0574 -0.4409 -0.168 -0.6338 -0.334 -0.5783 -0.8143 -1.0586 -1.3927 -1.3924 -0.5784 -0.3339 -1.2345 -0.5097 -1.9023 -0.5097 -0.6678 0 -1.3239 0.1758 -1.9023 0.5097 -0.5784 0.3338 -1.0587 0.8141 -1.3927 1.3924 -0.1109 0.1929 -0.1691 0.4115 -0.1687 0.6339 0.0003 0.2225 0.0592 0.4409 0.1706 0.6334 0.1115 0.1925 0.2716 0.3523 0.4643 0.4634 0.1928 0.111 0.4114 0.1694 0.6338 0.1693h4.39Z" stroke-width="1"></path><path fill="#87898c" stroke="#45413c" stroke-linecap="round" stroke-linejoin="round" d="M40.931 81.943c-0.2224 -0.0002 -0.4407 -0.0588 -0.6333 -0.1699s-0.3526 -0.2709 -0.464 -0.4633c-0.1114 -0.1924 -0.1702 -0.4107 -0.1707 -0.633 -0.0005 -0.2223 0.0574 -0.4409 0.168 -0.6338 0.334 -0.5783 0.8143 -1.0586 1.3927 -1.3924 0.5783 -0.3339 1.2344 -0.5097 1.9023 -0.5097 0.6678 0 1.3239 0.1758 1.9023 0.5097 0.5784 0.3338 1.0587 0.8141 1.3927 1.3924 0.1108 0.1929 0.169 0.4115 0.1687 0.6339 -0.0003 0.2225 -0.0592 0.4409 -0.1706 0.6334 -0.1115 0.1925 -0.2716 0.3523 -0.4644 0.4634 -0.1927 0.111 -0.4113 0.1694 -0.6337 0.1693h-4.39Z" stroke-width="1"></path><path stroke="#45413c" stroke-linecap="round" stroke-linejoin="round" d="M37.083 78.958V61.023" stroke-width="1"></path><path fill="#87898c" stroke="#45413c" stroke-linecap="round" stroke-linejoin="round" d="M37.0829 53.416c-0.1665 -0.0001 -0.3315 0.0326 -0.4854 0.0963 -0.1539 0.0636 -0.2937 0.157 -0.4115 0.2748 -0.1177 0.1178 -0.2111 0.2576 -0.2748 0.4115 -0.0637 0.1539 -0.0964 0.3189 -0.0963 0.4854v5.705c0 0.0833 0.0164 0.1657 0.0483 0.2426 0.0319 0.077 0.0786 0.1469 0.1374 0.2057 0.0589 0.0589 0.1288 0.1056 0.2057 0.1375 0.0769 0.0318 0.1594 0.0482 0.2426 0.0482h1.268c0.1682 0 0.3295 -0.0668 0.4483 -0.1857 0.1189 -0.1189 0.1857 -0.2801 0.1857 -0.4483v-5.705c0 -0.3363 -0.1336 -0.6588 -0.3713 -0.8966 -0.2378 -0.2378 -0.5604 -0.3714 -0.8967 -0.3714Z" stroke-width="1"></path><path fill="#adc4d9" stroke="#45413c" stroke-linecap="round" stroke-linejoin="round" d="M36.38 83.465c-0.3672 0.3668 -0.8433 0.6047 -1.357 0.678l-2.248 0.321c-0.1839 0.0267 -0.3713 0.0168 -0.5514 -0.0291 -0.1801 -0.0459 -0.3493 -0.1269 -0.498 -0.2384 -0.1486 -0.1115 -0.2738 -0.2513 -0.3683 -0.4113 -0.0945 -0.16 -0.1565 -0.3371 -0.1823 -0.5212l-0.2 -1.428c-0.0289 -0.2005 -0.0142 -0.4048 0.0429 -0.5992 0.0572 -0.1943 0.1555 -0.3741 0.2884 -0.527 0.1328 -0.1529 0.297 -0.2755 0.4814 -0.3593 0.1844 -0.0838 0.3847 -0.127 0.5873 -0.1265h2.405c0.6649 0.0001 1.3026 -0.264 1.773 -0.734l0.534 -0.534v2.811c-0.0004 0.3156 -0.0631 0.6281 -0.1844 0.9194 -0.1213 0.2914 -0.2989 0.556 -0.5226 0.7786v0Z" stroke-width="1"></path><path fill="#bf8256" stroke="#45413c" stroke-linecap="round" stroke-linejoin="round" d="M44.0559 50.246v1.268c0 0.666 -0.1312 1.3255 -0.3861 1.9408 -0.2549 0.6153 -0.6285 1.1744 -1.0995 1.6453 -0.471 0.4709 -1.0302 0.8444 -1.6455 1.0992 -0.6154 0.2548 -1.2749 0.3858 -1.9409 0.3857h-2.218c-0.5885 0 -1.153 0.2338 -1.5691 0.6499 -0.4161 0.4162 -0.6499 0.9806 -0.6499 1.5691 0 0.5885 0.2338 1.1529 0.6499 1.5691 0.4161 0.4161 0.9806 0.6499 1.5691 0.6499h2.218c2.522 0 4.9408 -1.0018 6.7242 -2.7851 1.7834 -1.7832 2.7855 -4.2019 2.7858 -6.7239v-1.268h-4.438Z" stroke-width="1"></path><path fill="#87898c" stroke="#45413c" stroke-linecap="round" stroke-linejoin="round" d="M39.8999 56.5c-0.3007 0.0539 -0.6056 0.081 -0.911 0.081h-2.223c-0.5885 0 -1.153 0.2338 -1.5691 0.6499 -0.4161 0.4162 -0.6499 0.9806 -0.6499 1.5691 0 0.5885 0.2338 1.1529 0.6499 1.5691 0.4161 0.4161 0.9806 0.6499 1.5691 0.6499h2.218c0.9975 0.0008 1.989 -0.1555 2.938 -0.463l-2.022 -4.056Z" stroke-width="1"></path><path fill="#bf8256" stroke="#45413c" stroke-linecap="round" stroke-linejoin="round" d="M30.1089 50.246v1.268c0 0.666 0.1312 1.3255 0.3861 1.9408 0.2549 0.6153 0.6285 1.1744 1.0995 1.6453 0.471 0.4709 1.0301 0.8444 1.6455 1.0992 0.6153 0.2548 1.2749 0.3858 1.9409 0.3857h2.219c0.5885 0 1.1529 0.2338 1.569 0.6499 0.4162 0.4162 0.65 0.9806 0.65 1.5691 0 0.5885 -0.2338 1.1529 -0.65 1.5691 -0.4161 0.4161 -0.9805 0.6499 -1.569 0.6499h-2.219c-2.522 0 -4.9406 -1.0018 -6.7239 -2.7851 -1.7833 -1.7833 -2.7851 -4.202 -2.7851 -6.7239v-1.268h4.437Z" stroke-width="1"></path><path fill="#87898c" stroke="#45413c" stroke-linecap="round" stroke-linejoin="round" d="M34.2709 56.5c0.3003 0.0539 0.6049 0.0811 0.91 0.081h2.219c0.5885 0 1.1529 0.2338 1.5691 0.6499 0.4161 0.4162 0.6499 0.9806 0.6499 1.5691 0 0.5885 -0.2338 1.1529 -0.6499 1.5691 -0.4162 0.4161 -0.9806 0.6499 -1.5691 0.6499h-2.219c-0.9975 0.0008 -1.989 -0.1555 -2.938 -0.463l2.028 -4.056Z" stroke-width="1"></path><path fill="#daedf7" stroke="#45413c" stroke-linecap="round" stroke-linejoin="round" d="M47.4539 80.948c0 0.5556 -0.1647 1.0987 -0.4734 1.5607 -0.3087 0.462 -0.7475 0.822 -1.2608 1.0346 -0.5134 0.2126 -1.0782 0.2681 -1.6231 0.1597 -0.545 -0.1085 -1.0455 -0.3761 -1.4383 -0.7691 -0.3928 -0.3929 -0.6602 -0.8935 -0.7685 -1.4385 -0.1083 -0.545 -0.0525 -1.1098 0.1602 -1.623 0.2128 -0.5133 0.573 -0.9519 1.0351 -1.2605 0.462 -0.3085 1.0052 -0.4731 1.5608 -0.4729 0.3689 0 0.7341 0.0727 1.0748 0.2139 0.3408 0.1411 0.6504 0.3481 0.9111 0.6089 0.2608 0.2609 0.4676 0.5705 0.6087 0.9113 0.141 0.3408 0.2136 0.7061 0.2134 1.0749v0Z" stroke-width="1"></path><path fill="#45413c" stroke="#45413c" stroke-miterlimit="10" d="M44.6899 90.728c3.501 0 6.339 -0.8516 6.339 -1.902 0 -1.0504 -2.838 -1.902 -6.339 -1.902 -3.5009 0 -6.3389 0.8516 -6.3389 1.902 0 1.0504 2.838 1.902 6.3389 1.902Z" opacity=".15" stroke-width="1"></path><path fill="#ffe500" stroke="#45413c" stroke-linecap="round" stroke-linejoin="round" d="M42.384 83.756h4.523c0.0566 0 0.1122 0.0146 0.1614 0.0426 0.0492 0.0279 0.0904 0.0681 0.1194 0.1167 0.029 0.0485 0.0449 0.1038 0.0462 0.1604 0.0012 0.0565 -0.0122 0.1125 -0.039 0.1623l-1.364 1.631 -0.9 2.574c-0.0281 0.0518 -0.0696 0.095 -0.1202 0.1251 -0.0506 0.0302 -0.1084 0.0461 -0.1673 0.0461 -0.0589 0 -0.1167 -0.0159 -0.1673 -0.0461 -0.0506 -0.0301 -0.0921 -0.0733 -0.1202 -0.1251l-0.9 -2.574 -1.356 -1.631c-0.0267 -0.0495 -0.0401 -0.1051 -0.039 -0.1613 0.0011 -0.0563 0.0166 -0.1113 0.0452 -0.1597 0.0285 -0.0485 0.0691 -0.0888 0.1178 -0.117 0.0486 -0.0282 0.1038 -0.0433 0.16 -0.044v0Z" stroke-width="1"></path></svg>