<svg xmlns="http://www.w3.org/2000/svg" fill="none" viewBox="0 0 100 100" id="Sports-Golf-11--Streamline-Ux" height="100" width="100"><desc>Sports Golf 11 Streamline Illustration: https://streamlinehq.com</desc><path fill="#ccf7ad" d="M50 90c7.017 -0.0005 13.91 -1.8493 19.9853 -5.3603C76.0607 81.1288 81.1041 76.0795 84.608 70H15.392c3.5039 6.0795 8.5473 11.1288 14.6227 14.6397C36.0901 88.1507 42.9831 89.9995 50 90Z" stroke-width="1"></path><path fill="#ccf7ad" d="M13.564 66.5c0.546 1.2 1.17 2.363 1.828 3.5h69.216c0.658 -1.137 1.282 -2.3 1.828 -3.5H13.564Z" stroke-width="1"></path><path fill="#b8ecff" d="M90 50c0.0008 -5.9698 -1.3347 -11.8641 -3.9086 -17.2506 -2.5738 -5.3865 -6.3207 -10.1286 -10.9658 -13.8785 -4.6452 -3.7499 -10.0708 -6.4125 -15.8789 -7.7925 -5.8081 -1.38007 -11.8515 -1.44254 -17.687 -0.1829 -5.8354 1.2597 -11.3149 3.8096 -16.0365 7.4627 -4.7217 3.653 -8.5658 8.3166 -11.2504 13.6488 -2.6846 5.3321 -4.1417 11.1976 -4.2644 17.1661 -0.1226 5.9686 1.0923 11.889 3.5556 17.3269h72.872C88.7893 61.3178 90.0046 55.6915 90 50Z" stroke-width="1"></path><path stroke="#45413c" stroke-linecap="round" stroke-linejoin="round" d="M11 66.5h78" stroke-width="1"></path><path stroke="#45413c" stroke-linecap="round" stroke-linejoin="round" d="M6.5 66.5H9" stroke-width="1"></path><path stroke="#45413c" stroke-linecap="round" stroke-linejoin="round" d="M91 66.5h2.5" stroke-width="1"></path><path fill="#6dd627" stroke="#45413c" stroke-linecap="round" stroke-linejoin="round" d="M15.092 66.5s17.915 -10.746 50.439 -10.746c20.4 0 22.877 10.749 22.877 10.749L15.092 66.5Z" stroke-width="1"></path><path stroke="#45413c" stroke-linecap="round" stroke-linejoin="round" d="M65.256 55.754V39.492" stroke-width="1"></path><path fill="#ff6242" stroke="#45413c" stroke-linecap="round" stroke-linejoin="round" d="M65.256 34.549v4.943l5.353 -2.292c0.1993 -0.0841 0.3694 -0.2251 0.489 -0.4054 0.1196 -0.1802 0.1834 -0.3918 0.1834 -0.6081s-0.0638 -0.4279 -0.1834 -0.6081c-0.1196 -0.1803 -0.2897 -0.3213 -0.489 -0.4054l-3.817 -1.636c-0.1675 -0.0723 -0.3504 -0.1018 -0.5322 -0.0859 -0.1817 0.016 -0.3566 0.0769 -0.509 0.1772 -0.1524 0.1004 -0.2774 0.2371 -0.3637 0.3979 -0.0864 0.1607 -0.1315 0.3403 -0.1311 0.5228Z" stroke-width="1"></path><path fill="#daedf7" stroke="#45413c" stroke-linecap="round" stroke-linejoin="round" d="M67.572 76.063c0 0.5556 -0.1648 1.0987 -0.4735 1.5607 -0.3087 0.462 -0.7475 0.822 -1.2608 1.0346 -0.5133 0.2125 -1.0782 0.2681 -1.6231 0.1597 -0.5449 -0.1085 -1.0454 -0.3761 -1.4382 -0.7691 -0.3928 -0.3929 -0.6603 -0.8935 -0.7686 -1.4385 -0.1082 -0.545 -0.0525 -1.1098 0.1603 -1.623 0.2128 -0.5133 0.5729 -0.9519 1.035 -1.2605 0.4621 -0.3085 1.0053 -0.4731 1.5609 -0.4729 0.3688 0 0.734 0.0727 1.0748 0.2138 0.3407 0.1412 0.6503 0.3481 0.9111 0.609 0.2608 0.2609 0.4676 0.5705 0.6086 0.9113 0.1411 0.3408 0.2136 0.7061 0.2135 1.0749v0Z" stroke-width="1"></path><path fill="#45413c" stroke="#45413c" stroke-miterlimit="10" d="M64.808 85.843c3.5009 0 6.339 -0.8515 6.339 -1.902 0 -1.0504 -2.8381 -1.902 -6.339 -1.902 -3.5009 0 -6.339 0.8516 -6.339 1.902 0 1.0505 2.8381 1.902 6.339 1.902Z" opacity=".15" stroke-width="1"></path><path stroke="#45413c" stroke-linecap="round" stroke-linejoin="round" d="M46.956 79.122V59.47" stroke-width="1"></path><path fill="#87898c" stroke="#45413c" stroke-linecap="round" stroke-linejoin="round" d="M46.956 51.863c-0.3363 0 -0.6588 0.1336 -0.8966 0.3714 -0.2378 0.2378 -0.3714 0.5603 -0.3714 0.8966v5.7c0 0.1682 0.0668 0.3294 0.1857 0.4483 0.1189 0.1189 0.2801 0.1857 0.4483 0.1857h1.268c0.1681 0 0.3294 -0.0668 0.4483 -0.1857 0.1189 -0.1189 0.1857 -0.2801 0.1857 -0.4483v-5.7c0 -0.3363 -0.1336 -0.6588 -0.3714 -0.8966 -0.2378 -0.2378 -0.5603 -0.3714 -0.8966 -0.3714v0Z" stroke-width="1"></path><path fill="#adc4d9" stroke="#45413c" stroke-linecap="round" stroke-linejoin="round" d="M47.659 83.628c0.367 0.3671 0.8431 0.6054 1.357 0.679l2.248 0.321c0.1839 0.0267 0.3713 0.0168 0.5513 -0.0291 0.1801 -0.0459 0.3494 -0.1269 0.498 -0.2384 0.1487 -0.1116 0.2739 -0.2513 0.3684 -0.4113 0.0945 -0.1601 0.1564 -0.3372 0.1823 -0.5212l0.2 -1.428c0.0288 -0.2005 0.0142 -0.4049 -0.043 -0.5992 -0.0571 -0.1943 -0.1555 -0.3741 -0.2883 -0.527 -0.1328 -0.153 -0.297 -0.2755 -0.4814 -0.3593 -0.1844 -0.0838 -0.3847 -0.127 -0.5873 -0.1265h-2.401c-0.3295 0 -0.6557 -0.0649 -0.9601 -0.191s-0.581 -0.311 -0.8139 -0.544l-0.533 -0.533v2.81c-0.0001 0.3153 0.0619 0.6276 0.1825 0.919 0.1207 0.2913 0.2975 0.556 0.5205 0.779v0Z" stroke-width="1"></path><path fill="#ffcebf" stroke="#45413c" stroke-linecap="round" stroke-linejoin="round" d="M38.5 52.033h4.438v3.486c0 0.3747 0.0738 0.7457 0.2172 1.0918 0.1433 0.3461 0.3535 0.6607 0.6184 0.9256 0.2649 0.2649 0.5795 0.4751 0.9256 0.6184 0.3461 0.1434 0.7171 0.2172 1.0918 0.2172v0c0.5883 0.0003 1.1525 0.2342 1.5684 0.6503 0.416 0.4161 0.6496 0.9804 0.6496 1.5687v0c0 0.5885 -0.2338 1.1529 -0.6499 1.5691 -0.4162 0.4161 -0.9806 0.6499 -1.5691 0.6499v0c-1.9335 -0.0003 -3.7878 -0.7685 -5.1549 -2.1358C39.268 59.3069 38.5 57.4525 38.5 55.519v-3.486Z" stroke-width="1"></path><path fill="#87898c" stroke="#45413c" stroke-linecap="round" stroke-linejoin="round" d="M45.79 58.372c-0.5027 -0.0045 -0.9952 -0.1426 -1.427 -0.4l-1.321 4.298c0.8723 0.3567 1.8056 0.5401 2.748 0.54 0.5885 0 1.1529 -0.2338 1.5691 -0.6499 0.4161 -0.4162 0.6499 -0.9806 0.6499 -1.5691 0 -0.5885 -0.2338 -1.1529 -0.6499 -1.5691 -0.4162 -0.4161 -0.9806 -0.6499 -1.5691 -0.6499v0Z" stroke-width="1"></path><path fill="#4aeff7" d="M42.937 48.229c0 -1.4985 -0.2952 -2.9823 -0.8686 -4.3668 -0.5735 -1.3844 -1.414 -2.6424 -2.4736 -3.702 -1.0596 -1.0596 -2.3176 -1.9001 -3.702 -2.4736 -1.3845 -0.5734 -2.8683 -0.8686 -4.3668 -0.8686 -1.4985 0 -2.9824 0.2952 -4.3668 0.8686 -1.3845 0.5735 -2.6424 1.414 -3.702 2.4736 -1.0596 1.0596 -1.9001 2.3176 -2.4736 3.702 -0.5735 1.3845 -0.8686 2.8683 -0.8686 4.3668v3.8h4.438v8.241H38.5v-8.237h4.438l-0.001 -3.804Z" stroke-width="1"></path><path fill="#debb7e" d="m24.553 60.274 2.535 23.456h8.876L38.5 60.274H24.553Z" stroke-width="1"></path><path fill="#b89558" d="m38.157 63.444 0.343 -3.17H24.553l0.342 3.17h13.262Z" stroke-width="1"></path><path stroke="#45413c" stroke-linecap="round" stroke-linejoin="round" d="m24.553 60.274 2.535 23.456h8.876L38.5 60.274H24.553Z" stroke-width="1"></path><path fill="#ffcebf" stroke="#45413c" stroke-linecap="round" stroke-linejoin="round" d="M20.115 52.033V63.76c0 0.5885 0.2338 1.1529 0.6499 1.5691 0.4162 0.4161 0.9806 0.6499 1.5691 0.6499 0.5885 0 1.1529 -0.2338 1.5691 -0.6499 0.4161 -0.4162 0.6499 -0.9806 0.6499 -1.5691V52.033h-4.438Z" stroke-width="1"></path><path fill="#a6fbff" d="M31.526 36.818c-3.0264 0 -5.9288 1.2022 -8.0688 3.3422 -2.14 2.14 -3.3422 5.0424 -3.3422 8.0688v3.8c0 -1.4985 0.2951 -2.9823 0.8686 -4.3668 0.5735 -1.3844 1.414 -2.6424 2.4736 -3.702 1.0596 -1.0596 2.3175 -1.9001 3.702 -2.4736 1.3844 -0.5734 2.8683 -0.8686 4.3668 -0.8686 1.4985 0 2.9823 0.2952 4.3668 0.8686 1.3844 0.5735 2.6424 1.414 3.702 2.4736 1.0596 1.0596 1.9001 2.3176 2.4736 3.702 0.5734 1.3845 0.8686 2.8683 0.8686 4.3668v-3.8c0 -3.0264 -1.2022 -5.9288 -3.3422 -8.0688 -2.14 -2.14 -5.0424 -3.3422 -8.0688 -3.3422Z" stroke-width="1"></path><path stroke="#45413c" stroke-linecap="round" stroke-linejoin="round" d="M42.937 48.229c0 -1.4985 -0.2952 -2.9823 -0.8686 -4.3668 -0.5735 -1.3844 -1.414 -2.6424 -2.4736 -3.702 -1.0596 -1.0596 -2.3176 -1.9001 -3.702 -2.4736 -1.3845 -0.5734 -2.8683 -0.8686 -4.3668 -0.8686 -1.4985 0 -2.9824 0.2952 -4.3668 0.8686 -1.3845 0.5735 -2.6424 1.414 -3.702 2.4736 -1.0596 1.0596 -1.9001 2.3176 -2.4736 3.702 -0.5735 1.3845 -0.8686 2.8683 -0.8686 4.3668v3.8h4.438v8.241H38.5v-8.237h4.438l-0.001 -3.804Z" stroke-width="1"></path><path stroke="#45413c" stroke-linecap="round" stroke-linejoin="round" d="M24.553 52.033v-0.8c0.0004 -0.7882 -0.2442 -1.557 -0.7 -2.2 -0.3862 -0.6233 -0.5838 -1.3449 -0.569 -2.078" stroke-width="1"></path><path stroke="#45413c" stroke-linecap="round" stroke-linejoin="round" d="M38.5 52.033v-0.8c-0.0005 -0.7882 0.2442 -1.557 0.7 -2.2 0.3862 -0.6233 0.5838 -1.3449 0.569 -2.078" stroke-width="1"></path><path fill="#45413c" d="M31.526 86.899c7.0024 0 12.679 -0.8515 12.679 -1.902 0 -1.0504 -5.6766 -1.902 -12.679 -1.902 -7.0024 0 -12.679 0.8516 -12.679 1.902 0 1.0505 5.6766 1.902 12.679 1.902Z" opacity=".15" stroke-width="1"></path><path stroke="#45413c" stroke-linecap="round" stroke-linejoin="round" d="M31.526 65.345V83.73" stroke-width="1"></path><path fill="#ffffff" stroke="#45413c" stroke-linecap="round" stroke-linejoin="round" d="M26.286 83.73c-0.2223 -0.0002 -0.4407 -0.0587 -0.6333 -0.1699 -0.1925 -0.1111 -0.3525 -0.2709 -0.4639 -0.4633 -0.1114 -0.1924 -0.1703 -0.4107 -0.1708 -0.633 -0.0005 -0.2223 0.0575 -0.4409 0.168 -0.6338 0.3343 -0.579 0.8154 -1.0596 1.3948 -1.3932 0.5795 -0.3336 1.2366 -0.5084 1.9052 -0.5068 0.3997 -0.0001 0.7954 0.0785 1.1647 0.2314 0.3692 0.1529 0.7047 0.377 0.9873 0.6596 0.2826 0.2826 0.5068 0.6181 0.6596 0.9874 0.1529 0.3692 0.2315 0.765 0.2314 1.1646v0.761l-5.243 -0.004Z" stroke-width="1"></path><path fill="#ffffff" stroke="#45413c" stroke-linecap="round" stroke-linejoin="round" d="M36.765 83.73c0.2223 -0.0002 0.4407 -0.0587 0.6333 -0.1699 0.1925 -0.1111 0.3525 -0.2709 0.4639 -0.4633 0.1114 -0.1924 0.1703 -0.4107 0.1708 -0.633 0.0005 -0.2223 -0.0575 -0.4409 -0.168 -0.6338 -0.3339 -0.5783 -0.8142 -1.0584 -1.3927 -1.3919 -0.5785 -0.3336 -1.2346 -0.5088 -1.9023 -0.5081 -0.3997 -0.0001 -0.7954 0.0785 -1.1647 0.2314 -0.3692 0.1529 -0.7047 0.377 -0.9873 0.6596 -0.2826 0.2826 -0.5068 0.6181 -0.6597 0.9874 -0.1528 0.3692 -0.2315 0.765 -0.2313 1.1646v0.761l5.238 -0.004Z" stroke-width="1"></path><path fill="#ffffff" stroke="#45413c" stroke-linecap="round" stroke-linejoin="round" d="M27.088 42.2c0.0002 0.1049 0.0264 0.2081 0.0762 0.3004 0.0498 0.0923 0.1217 0.1708 0.2092 0.2286 0.0876 0.0577 0.1881 0.0929 0.2925 0.1023 0.1045 0.0094 0.2096 -0.0072 0.3061 -0.0483l3.554 -1.523 -3.792 -3.792c-0.218 0.077 -0.434 0.16 -0.646 0.249V42.2Z" stroke-width="1"></path><path fill="#ffffff" stroke="#45413c" stroke-linecap="round" stroke-linejoin="round" d="M35.964 42.2c-0.0002 0.1049 -0.0264 0.2081 -0.0762 0.3004 -0.0498 0.0923 -0.1216 0.1708 -0.2092 0.2286 -0.0876 0.0577 -0.188 0.0929 -0.2925 0.1023 -0.1045 0.0094 -0.2096 -0.0072 -0.3061 -0.0483l-3.554 -1.523 3.792 -3.792c0.218 0.077 0.434 0.16 0.646 0.249V42.2Z" stroke-width="1"></path><path stroke="#45413c" stroke-linecap="round" stroke-linejoin="round" d="M31.526 45.059v-3.803" stroke-width="1"></path><path fill="#ffcebf" stroke="#45413c" stroke-linecap="round" stroke-linejoin="round" d="M34.617 37.248c-0.2122 -0.0576 -0.3995 -0.1836 -0.5329 -0.3584 -0.1335 -0.1748 -0.2055 -0.3887 -0.2051 -0.6086v-2.8h-4.703v2.8c-0.0003 0.2195 -0.0728 0.4328 -0.2064 0.6071 -0.1335 0.1742 -0.3207 0.2996 -0.5326 0.3569 -0.236 0.064 -0.47 0.136 -0.7 0.216l3.792 3.792 3.792 -3.792c-0.233 -0.078 -0.467 -0.149 -0.704 -0.213Z" stroke-width="1"></path><path fill="#ffcebf" stroke="#45413c" stroke-linecap="round" stroke-linejoin="round" d="M40.4 28.175c-0.003 -0.361 -0.131 -0.7098 -0.3622 -0.9871 -0.2312 -0.2773 -0.5513 -0.4659 -0.9058 -0.5339v-1.015c0 -2.0175 -0.8015 -3.9524 -2.2281 -5.3789 -1.4265 -1.4266 -3.3614 -2.2281 -5.3789 -2.2281 -2.0175 0 -3.9524 0.8015 -5.379 2.2281 -1.4266 1.4265 -2.228 3.3614 -2.228 5.3789v1.015c-0.3695 0.0695 -0.7012 0.2707 -0.9336 0.5662 -0.2324 0.2955 -0.3497 0.6653 -0.3301 1.0408 0.0195 0.3754 0.1746 0.731 0.4364 1.0008 0.2618 0.2698 0.6126 0.4354 0.9873 0.4662 0.3571 1.711 1.2925 3.2468 2.6488 4.3493 1.3563 1.1024 3.0508 1.7042 4.7987 1.7042 1.7478 0 3.4424 -0.6018 4.7987 -1.7042 1.3563 -1.1025 2.2917 -2.6383 2.6488 -4.3493 0.3883 -0.0353 0.7495 -0.2139 1.0133 -0.501 0.2638 -0.2871 0.4113 -0.6621 0.4137 -1.052v0Z" stroke-width="1"></path><path fill="#ffb59e" d="M27.405 30.077c0.5252 0 0.951 -0.4258 0.951 -0.951 0 -0.5252 -0.4258 -0.951 -0.951 -0.951 -0.5252 0 -0.951 0.4258 -0.951 0.951 0 0.5252 0.4258 0.951 0.951 0.951Z" stroke-width="1"></path><path fill="#ffb59e" d="M35.647 30.077c0.5252 0 0.951 -0.4258 0.951 -0.951 0 -0.5252 -0.4258 -0.951 -0.951 -0.951 -0.5252 0 -0.951 0.4258 -0.951 0.951 0 0.5252 0.4258 0.951 0.951 0.951Z" stroke-width="1"></path><path stroke="#45413c" stroke-linecap="round" stroke-linejoin="round" d="M29.624 31.4c0.5628 0.3748 1.2239 0.5747 1.9 0.5747 0.6762 0 1.3372 -0.1999 1.9 -0.5747" stroke-width="1"></path><path fill="#45413c" d="M28.673 27.541c0.5252 0 0.951 -0.4258 0.951 -0.951 0 -0.5252 -0.4258 -0.951 -0.951 -0.951 -0.5252 0 -0.951 0.4258 -0.951 0.951 0 0.5252 0.4258 0.951 0.951 0.951Z" stroke-width="1"></path><path fill="#45413c" d="M34.379 27.541c0.5252 0 0.951 -0.4258 0.951 -0.951 0 -0.5252 -0.4258 -0.951 -0.951 -0.951 -0.5252 0 -0.951 0.4258 -0.951 0.951 0 0.5252 0.4258 0.951 0.951 0.951Z" stroke-width="1"></path><path fill="#ffe500" stroke="#45413c" stroke-linecap="round" stroke-linejoin="round" d="M31.526 17.399c1.7508 0 3.17 -1.4193 3.17 -3.17s-1.4192 -3.17 -3.17 -3.17c-1.7507 0 -3.17 1.4193 -3.17 3.17s1.4193 3.17 3.17 3.17Z" stroke-width="1"></path><path fill="#ffe500" d="M31.526 15.5c-1.1656 0 -2.3197 0.2296 -3.3965 0.6757 -1.0769 0.446 -2.0553 1.0999 -2.8794 1.9241 -0.8242 0.8242 -1.4779 1.8027 -1.9238 2.8796 -0.446 1.0769 -0.6754 2.231 -0.6753 3.3966v2.535l1.417 -0.3c0.3762 -0.0941 0.7101 -0.3112 0.9488 -0.6169 0.2386 -0.3057 0.3682 -0.6823 0.3682 -1.0701V23.1c0.0008 -0.6134 0.2451 -1.2013 0.6792 -1.6347 0.4341 -0.4333 1.0224 -0.6766 1.6358 -0.6763 1.29 0 2.252 0.544 3.826 1.268 1.574 -0.724 2.536 -1.268 3.826 -1.268 0.6134 -0.0003 1.2017 0.243 1.6358 0.6763 0.4341 0.4334 0.6784 1.0213 0.6792 1.6347v1.812c-0.0002 0.388 0.1293 0.7648 0.3679 1.0707 0.2387 0.3059 0.5727 0.5232 0.9491 0.6173l1.417 0.3v-2.528c-0.0008 -2.3533 -0.9362 -4.6099 -2.6005 -6.2736C36.1362 16.4346 33.8793 15.5 31.526 15.5Z" stroke-width="1"></path><path fill="#fff48c" d="M31.526 15.5c-1.1656 0 -2.3197 0.2296 -3.3965 0.6757 -1.0769 0.446 -2.0553 1.0999 -2.8794 1.9241 -0.8242 0.8242 -1.4779 1.8027 -1.9238 2.8796 -0.446 1.0769 -0.6754 2.231 -0.6753 3.3966v2.535c0 -2.3538 0.935 -4.6112 2.5994 -6.2756 1.6644 -1.6644 3.9218 -2.5994 6.2756 -2.5994 2.3538 0 4.6112 0.935 6.2756 2.5994 1.6644 1.6644 2.5994 3.9218 2.5994 6.2756v-2.539c-0.0008 -2.3533 -0.9362 -4.6099 -2.6005 -6.2736C36.1362 16.4346 33.8793 15.5 31.526 15.5Z" stroke-width="1"></path><path stroke="#45413c" stroke-linecap="round" stroke-linejoin="round" d="M31.526 15.5c-1.1656 0 -2.3197 0.2296 -3.3965 0.6757 -1.0769 0.446 -2.0553 1.0999 -2.8794 1.9241 -0.8242 0.8242 -1.4779 1.8027 -1.9238 2.8796 -0.446 1.0769 -0.6754 2.231 -0.6753 3.3966v2.535l1.417 -0.3c0.3762 -0.0941 0.7101 -0.3112 0.9488 -0.6169 0.2386 -0.3057 0.3682 -0.6823 0.3682 -1.0701V23.1c0.0008 -0.6134 0.2451 -1.2013 0.6792 -1.6347 0.4341 -0.4333 1.0224 -0.6766 1.6358 -0.6763 1.29 0 2.252 0.544 3.826 1.268 1.574 -0.724 2.536 -1.268 3.826 -1.268 0.6134 -0.0003 1.2017 0.243 1.6358 0.6763 0.4341 0.4334 0.6784 1.0213 0.6792 1.6347v1.812c-0.0002 0.388 0.1293 0.7648 0.3679 1.0707 0.2387 0.3059 0.5727 0.5232 0.9491 0.6173l1.417 0.3v-2.528c-0.0008 -2.3533 -0.9362 -4.6099 -2.6005 -6.2736C36.1362 16.4346 33.8793 15.5 31.526 15.5v0Z" stroke-width="1"></path><path fill="#4acfff" stroke="#45413c" stroke-linecap="round" stroke-linejoin="round" d="M22.856 22.47H40.2c-0.2497 -1.138 -0.7221 -2.2154 -1.39 -3.17H24.242c-0.6665 0.9549 -1.1376 2.0323 -1.386 3.17v0Z" stroke-width="1"></path><path fill="#00b8f0" stroke="#45413c" stroke-linecap="round" stroke-linejoin="round" d="M22.856 22.47s1.7 3.169 8.67 3.169S40.2 22.47 40.2 22.47H22.856Z" stroke-width="1"></path><path fill="#ffe500" stroke="#45413c" stroke-linecap="round" stroke-linejoin="round" d="M62.5 78.871h4.523c0.0566 0 0.1122 0.0147 0.1614 0.0426 0.0492 0.0279 0.0903 0.0681 0.1193 0.1167 0.0291 0.0486 0.045 0.1038 0.0463 0.1604 0.0012 0.0566 -0.0122 0.1125 -0.039 0.1623l-1.365 1.63 -0.9 2.575c-0.0281 0.0518 -0.0696 0.095 -0.1202 0.1252 -0.0506 0.0301 -0.1084 0.046 -0.1673 0.046 -0.0589 0 -0.1167 -0.0159 -0.1673 -0.046 -0.0506 -0.0302 -0.0922 -0.0734 -0.1202 -0.1252l-0.9 -2.574 -1.365 -1.631c-0.0271 -0.0503 -0.0405 -0.1067 -0.039 -0.1638 0.0015 -0.0571 0.018 -0.1128 0.0477 -0.1615 0.0297 -0.0488 0.0717 -0.0889 0.1218 -0.1164 0.05 -0.0275 0.1064 -0.0414 0.1635 -0.0403v0Z" stroke-width="1"></path></svg>