<svg width="82" height="82" viewBox="0 0 82 82" fill="none" xmlns="http://www.w3.org/2000/svg">
<path d="M1 41C1 51.6087 5.21427 61.7828 12.7157 69.2843C20.2172 76.7857 30.3913 81 41 81C51.6087 81 61.7828 76.7857 69.2843 69.2843C76.7857 61.7828 81 51.6087 81 41C81 30.3913 76.7857 20.2172 69.2843 12.7157C61.7828 5.21427 51.6087 1 41 1C30.3913 1 20.2172 5.21427 12.7157 12.7157C5.21427 20.2172 1 30.3913 1 41Z" fill="#DAEDF7" stroke="#DAEDF7"/>
<path d="M20.259 4.91797H44.7C46.1404 4.91797 47.5218 5.49016 48.5403 6.50867C49.5588 7.52718 50.131 8.90858 50.131 10.349V59.223C50.131 60.6631 49.5589 62.0442 48.5406 63.0626C47.5223 64.0809 46.1411 64.653 44.701 64.653H20.259C18.8189 64.653 17.4377 64.0809 16.4194 63.0626C15.4011 62.0442 14.829 60.6631 14.829 59.223V10.348C14.829 8.90784 15.4011 7.5267 16.4194 6.50838C17.4377 5.49006 18.8189 4.91797 20.259 4.91797Z" fill="white" stroke="#45413C" stroke-linecap="round" stroke-linejoin="round"/>
<path d="M14.828 15.7791H50.126V56.5081H14.828V15.7791Z" fill="#00B8F0"/>
<path d="M14.828 45.9621L44.93 15.7791H14.828V45.9621Z" fill="#4ACFFF"/>
<path d="M14.828 15.7791H50.126V56.5081H14.828V15.7791Z" stroke="#45413C" stroke-linecap="round" stroke-linejoin="round"/>
<path d="M24.86 10.348H31.648" stroke="#45413C" stroke-linecap="round" stroke-linejoin="round"/>
<path d="M37.078 10.348H38.436" stroke="#45413C" stroke-linecap="round" stroke-linejoin="round"/>
<path opacity="0.15" d="M36.55 74.4221C36.55 74.6248 36.8695 74.8256 37.4903 75.0129C38.1111 75.2002 39.021 75.3705 40.1681 75.5138C41.3152 75.6572 42.677 75.7709 44.1757 75.8485C45.6745 75.9261 47.2808 75.9661 48.903 75.9661C50.5252 75.9661 52.1316 75.9261 53.6303 75.8485C55.129 75.7709 56.4908 75.6572 57.6379 75.5138C58.785 75.3705 59.6949 75.2002 60.3157 75.0129C60.9365 74.8256 61.256 74.6248 61.256 74.4221C61.256 74.2193 60.9365 74.0185 60.3157 73.8312C59.6949 73.6439 58.785 73.4737 57.6379 73.3303C56.4908 73.1869 55.129 73.0732 53.6303 72.9956C52.1316 72.918 50.5252 72.8781 48.903 72.8781C47.2808 72.8781 45.6745 72.918 44.1757 72.9956C42.677 73.0732 41.3152 73.1869 40.1681 73.3303C39.021 73.4737 38.1111 73.6439 37.4903 73.8312C36.8695 74.0185 36.55 74.2193 36.55 74.4221Z" fill="#45413C"/>
<path d="M50.111 61.5C49.4356 61.5016 48.7849 61.7547 48.286 62.21V55.11H41.186C41.5425 54.7174 41.7773 54.2297 41.8619 53.7062C41.9465 53.1827 41.8773 52.6459 41.6626 52.161C41.448 51.6761 41.0971 51.264 40.6526 50.9747C40.2082 50.6854 39.6893 50.5314 39.159 50.5314C38.6287 50.5314 38.1098 50.6854 37.6654 50.9747C37.2209 51.264 36.87 51.6761 36.6554 52.161C36.4407 52.6459 36.3715 53.1827 36.4561 53.7062C36.5407 54.2297 36.7755 54.7174 37.132 55.11H31.862C31.3779 55.1103 30.9137 55.3028 30.5715 55.6452C30.2292 55.9876 30.037 56.4519 30.037 56.936V71.536C30.0373 72.0198 30.2297 72.4838 30.5719 72.8258C30.9141 73.1679 31.3782 73.36 31.862 73.36H48.286V66.26C48.6153 66.5578 49.0122 66.7709 49.4424 66.8809C49.8725 66.9908 50.323 66.9943 50.7548 66.891C51.1866 66.7878 51.5868 66.5809 51.9207 66.2882C52.2545 65.9955 52.5121 65.6259 52.671 65.2114C52.83 64.7968 52.8855 64.3498 52.8329 63.9089C52.7802 63.4681 52.621 63.0467 52.3689 62.6812C52.1168 62.3157 51.7794 62.0171 51.386 61.8113C50.9926 61.6055 50.555 61.4987 50.111 61.5Z" fill="#6DD627"/>
<path d="M59.438 55.116C59.7945 54.7234 60.0293 54.2357 60.1139 53.7122C60.1985 53.1887 60.1293 52.6519 59.9146 52.167C59.7 51.6821 59.3491 51.2699 58.9046 50.9806C58.4602 50.6914 57.9413 50.5374 57.411 50.5374C56.8807 50.5374 56.3618 50.6914 55.9174 50.9806C55.4729 51.2699 55.122 51.6821 54.9074 52.167C54.6927 52.6519 54.6235 53.1887 54.7081 53.7122C54.7927 54.2357 55.0275 54.7234 55.384 55.116H48.284V62.216C48.6765 61.8598 49.164 61.6253 49.6873 61.5409C50.2105 61.4565 50.747 61.5258 51.2316 61.7405C51.7162 61.9551 52.1281 62.3059 52.4172 62.7501C52.7062 63.1944 52.8601 63.713 52.8601 64.243C52.8601 64.773 52.7062 65.2916 52.4172 65.7358C52.1281 66.1801 51.7162 66.5308 51.2316 66.7455C50.747 66.9601 50.2105 67.0295 49.6873 66.945C49.164 66.8606 48.6765 66.6261 48.284 66.27V73.37H64.71C65.1938 73.37 65.6579 73.1778 66.0001 72.8358C66.3423 72.4938 66.5347 72.0298 66.535 71.546V56.946C66.535 56.4619 66.3428 55.9976 66.0005 55.6552C65.6583 55.3127 65.1941 55.1202 64.71 55.12L59.438 55.116Z" fill="#FFE500"/>
<path d="M41.9 53.292C41.9029 52.8466 41.797 52.4071 41.5916 52.0118C41.3861 51.6165 41.0873 51.2773 40.7211 51.0236C40.3549 50.7699 39.9323 50.6095 39.49 50.5561C39.0477 50.5027 38.5991 50.5581 38.1831 50.7174C37.767 50.8767 37.3961 51.1351 37.1026 51.4702C36.809 51.8053 36.6016 52.207 36.4985 52.6403C36.3953 53.0737 36.3995 53.5257 36.5106 53.9572C36.6217 54.3886 36.8363 54.7864 37.136 55.116H31.862C31.3779 55.1163 30.9137 55.3088 30.5715 55.6512C30.2292 55.9936 30.037 56.4579 30.037 56.942V58.766H48.286V55.116H41.186C41.6423 54.6179 41.8969 53.9676 41.9 53.292Z" fill="#9CEB60"/>
<path d="M64.71 55.116H59.438C59.7945 54.7234 60.0293 54.2357 60.1139 53.7122C60.1985 53.1887 60.1293 52.6519 59.9146 52.167C59.7 51.6821 59.3491 51.2699 58.9046 50.9806C58.4602 50.6914 57.9413 50.5374 57.411 50.5374C56.8807 50.5374 56.3618 50.6914 55.9174 50.9806C55.4729 51.2699 55.122 51.6821 54.9074 52.167C54.6927 52.6519 54.6235 53.1887 54.7081 53.7122C54.7927 54.2357 55.0275 54.7234 55.384 55.116H48.284V58.766H66.535V56.942C66.535 56.4579 66.3428 55.9936 66.0005 55.6512C65.6583 55.3087 65.1941 55.1162 64.71 55.116Z" fill="#FFF48C"/>
<path d="M59.438 55.116C59.7945 54.7234 60.0293 54.2357 60.1139 53.7122C60.1985 53.1887 60.1293 52.6519 59.9146 52.167C59.7 51.6821 59.3491 51.2699 58.9046 50.9806C58.4602 50.6914 57.9413 50.5374 57.411 50.5374C56.8807 50.5374 56.3618 50.6914 55.9174 50.9806C55.4729 51.2699 55.122 51.6821 54.9074 52.167C54.6927 52.6519 54.6235 53.1887 54.7081 53.7122C54.7927 54.2357 55.0275 54.7234 55.384 55.116H48.284V62.216C48.6765 61.8598 49.164 61.6253 49.6873 61.5409C50.2105 61.4565 50.747 61.5258 51.2316 61.7405C51.7162 61.9551 52.1281 62.3059 52.4172 62.7501C52.7062 63.1944 52.8601 63.713 52.8601 64.243C52.8601 64.773 52.7062 65.2916 52.4172 65.7358C52.1281 66.1801 51.7162 66.5308 51.2316 66.7455C50.747 66.9601 50.2105 67.0295 49.6873 66.945C49.164 66.8606 48.6765 66.6261 48.284 66.27V73.37H64.71C65.1938 73.37 65.6579 73.1778 66.0001 72.8358C66.3423 72.4938 66.5347 72.0298 66.535 71.546V56.946C66.535 56.4619 66.3428 55.9976 66.0005 55.6552C65.6583 55.3127 65.1941 55.1202 64.71 55.12L59.438 55.116Z" stroke="#45413C" stroke-linecap="round" stroke-linejoin="round"/>
<path d="M50.111 61.5C49.4356 61.5016 48.7849 61.7547 48.286 62.21V55.11H41.186C41.5425 54.7174 41.7773 54.2297 41.8619 53.7062C41.9465 53.1827 41.8773 52.6459 41.6626 52.161C41.448 51.6761 41.0971 51.264 40.6526 50.9747C40.2082 50.6854 39.6893 50.5314 39.159 50.5314C38.6287 50.5314 38.1098 50.6854 37.6654 50.9747C37.2209 51.264 36.87 51.6761 36.6554 52.161C36.4407 52.6459 36.3715 53.1827 36.4561 53.7062C36.5407 54.2297 36.7755 54.7174 37.132 55.11H31.862C31.3779 55.1103 30.9137 55.3028 30.5715 55.6452C30.2292 55.9876 30.037 56.4519 30.037 56.936V71.536C30.0373 72.0198 30.2297 72.4838 30.5719 72.8258C30.9141 73.1679 31.3782 73.36 31.862 73.36H48.286V66.26C48.6153 66.5578 49.0122 66.7709 49.4424 66.8809C49.8725 66.9908 50.323 66.9943 50.7548 66.891C51.1866 66.7878 51.5868 66.5809 51.9207 66.2882C52.2545 65.9955 52.5121 65.6259 52.671 65.2114C52.83 64.7968 52.8855 64.3498 52.8329 63.9089C52.7802 63.4681 52.621 63.0467 52.3689 62.6812C52.1168 62.3157 51.7794 62.0171 51.386 61.8113C50.9926 61.6055 50.555 61.4987 50.111 61.5Z" stroke="#45413C" stroke-linecap="round" stroke-linejoin="round"/>
<path d="M51.163 29.638C51.6293 29.89 52.0123 30.272 52.2657 30.7375C52.5191 31.2031 52.6318 31.7321 52.5902 32.2605C52.5486 32.7889 52.3545 33.2939 52.0315 33.714C51.7084 34.1342 51.2703 34.4516 50.7704 34.6276C50.2704 34.8035 49.7301 34.8306 49.2151 34.7054C48.7001 34.5802 48.2325 34.3081 47.8691 33.9223C47.5058 33.5364 47.2622 33.0534 47.1681 32.5318C47.074 32.0102 47.1334 31.4725 47.339 30.984L42.365 32.734C41.9086 32.8948 41.5348 33.2303 41.3257 33.6666C41.1166 34.103 41.0894 34.6045 41.25 35.061L42.82 39.523C42.5086 39.5181 42.1987 39.5672 41.904 39.668C41.5233 39.7963 41.1755 40.007 40.8853 40.2849C40.5951 40.5628 40.3697 40.9011 40.225 41.276C40.0803 41.6508 40.0199 42.0529 40.0481 42.4537C40.0763 42.8545 40.1924 43.2441 40.3882 43.595C40.5839 43.9459 40.8545 44.2493 41.1807 44.4839C41.507 44.7184 41.8808 44.8782 42.2758 44.952C42.6707 45.0258 43.0771 45.0117 43.466 44.9108C43.8549 44.8098 44.2168 44.6245 44.526 44.368L46.096 48.83C46.2568 49.2864 46.5923 49.6603 47.0286 49.8695C47.4649 50.0788 47.9664 50.1063 48.423 49.946L53.4 48.2C52.9337 47.948 52.5507 47.566 52.2973 47.1005C52.044 46.6349 51.9312 46.1058 51.9728 45.5775C52.0144 45.0491 52.2085 44.5441 52.5315 44.1239C52.8546 43.7038 53.2927 43.3864 53.7926 43.2104C54.2926 43.0345 54.8329 43.0074 55.3479 43.1326C55.8629 43.2578 56.3305 43.5299 56.6939 43.9157C57.0572 44.3015 57.3008 44.7846 57.3949 45.3062C57.489 45.8278 57.4296 46.3655 57.224 46.854L62.198 45.104C62.6544 44.9432 63.0282 44.6077 63.2373 44.1713C63.4464 43.735 63.4736 43.2334 63.313 42.777L58.464 29C58.3034 28.5434 57.968 28.1694 57.5316 27.9601C57.0952 27.7508 56.5936 27.7234 56.137 27.884L51.163 29.638Z" fill="#FF6242"/>
<path d="M58.464 29C58.3034 28.5434 57.968 28.1694 57.5316 27.9601C57.0952 27.7508 56.5936 27.7234 56.137 27.884L51.164 29.634C51.7135 29.9271 52.1447 30.401 52.3847 30.9756C52.6247 31.5503 52.6587 32.1902 52.481 32.787L58.992 30.501L58.464 29Z" fill="#FF6242"/>
<path d="M47.275 32.941C47.0523 32.3034 47.0751 31.6057 47.339 30.984L42.366 32.734C42.1398 32.8135 41.9315 32.9368 41.753 33.0969C41.5745 33.2569 41.4293 33.4506 41.3257 33.6668C41.222 33.883 41.162 34.1175 41.149 34.3569C41.136 34.5963 41.1703 34.8359 41.25 35.062L41.774 36.549L48.282 34.265C47.8163 33.9397 47.4642 33.4767 47.275 32.941Z" fill="#FF6242"/>
<path d="M51.163 29.638C51.6293 29.89 52.0123 30.272 52.2657 30.7375C52.5191 31.2031 52.6318 31.7321 52.5902 32.2605C52.5486 32.7889 52.3545 33.2939 52.0315 33.714C51.7084 34.1342 51.2703 34.4516 50.7704 34.6276C50.2704 34.8035 49.7301 34.8306 49.2151 34.7054C48.7001 34.5802 48.2325 34.3081 47.8691 33.9223C47.5058 33.5364 47.2622 33.0534 47.1681 32.5318C47.074 32.0102 47.1334 31.4725 47.339 30.984L42.365 32.734C41.9086 32.8948 41.5348 33.2303 41.3257 33.6666C41.1166 34.103 41.0894 34.6045 41.25 35.061L42.82 39.523C42.5086 39.5181 42.1987 39.5672 41.904 39.668C41.5233 39.7963 41.1755 40.007 40.8853 40.2849C40.5951 40.5628 40.3697 40.9011 40.225 41.276C40.0803 41.6508 40.0199 42.0529 40.0481 42.4537C40.0763 42.8545 40.1924 43.2441 40.3882 43.595C40.5839 43.9459 40.8545 44.2493 41.1807 44.4839C41.507 44.7184 41.8808 44.8782 42.2758 44.952C42.6707 45.0258 43.0771 45.0117 43.466 44.9108C43.8549 44.8098 44.2168 44.6245 44.526 44.368L46.096 48.83C46.2568 49.2864 46.5923 49.6603 47.0286 49.8695C47.4649 50.0788 47.9664 50.1063 48.423 49.946L53.4 48.2C52.9337 47.948 52.5507 47.566 52.2973 47.1005C52.044 46.6349 51.9312 46.1058 51.9728 45.5775C52.0144 45.0491 52.2085 44.5441 52.5315 44.1239C52.8546 43.7038 53.2927 43.3864 53.7926 43.2104C54.2926 43.0345 54.8329 43.0074 55.3479 43.1326C55.8629 43.2578 56.3305 43.5299 56.6939 43.9157C57.0572 44.3015 57.3008 44.7846 57.3949 45.3062C57.489 45.8278 57.4296 46.3655 57.224 46.854L62.198 45.104C62.6544 44.9432 63.0282 44.6077 63.2373 44.1713C63.4464 43.735 63.4736 43.2334 63.313 42.777L58.464 29C58.3034 28.5434 57.968 28.1694 57.5316 27.9601C57.0952 27.7508 56.5936 27.7234 56.137 27.884L51.163 29.638Z" stroke="#45413C" stroke-linecap="round" stroke-linejoin="round"/>
<path d="M20.444 21.333H29.269V30.158H20.444V21.333Z" fill="#B8ECFF" stroke="#009FD9" stroke-linecap="round" stroke-linejoin="round"/>
<path d="M34.884 21.333H43.709V30.158H34.884V21.333Z" fill="#B8ECFF" stroke="#009FD9" stroke-linecap="round" stroke-linejoin="round"/>
<path d="M20.444 34.9709H29.269V43.7959H20.444V34.9709Z" fill="#B8ECFF" stroke="#009FD9" stroke-linecap="round" stroke-linejoin="round"/>
</svg>

