<svg viewBox="0 0 100 100" xmlns="http://www.w3.org/2000/svg" id="Logo-Design-3--Streamline-Ux" height="100" width="100"><desc>Logo Design 3 Streamline Illustration: https://streamlinehq.com</desc><path d="M9.507 50a40 40 0 1 0 80 0 40 40 0 1 0 -80 0Z" fill="#daedf7" stroke="#daedf7" stroke-width="1"></path><path d="m16.135 22.843 63.122 0 0 52.239 -63.122 0Z" fill="#ffffff" stroke="#45413c" stroke-linecap="round" stroke-linejoin="round" stroke-width="1"></path><path d="m58.781 68.551 0 -41.355" fill="none" stroke="#4acfff" stroke-linecap="round" stroke-linejoin="round" stroke-width="1"></path><path d="m50.945 68.551 0 -41.355" fill="none" stroke="#4acfff" stroke-linecap="round" stroke-linejoin="round" stroke-width="1"></path><path d="m43.11 68.551 0 -41.355" fill="none" stroke="#4acfff" stroke-linecap="round" stroke-linejoin="round" stroke-width="1"></path><path d="m35.274 68.551 0 -41.355" fill="none" stroke="#4acfff" stroke-linecap="round" stroke-linejoin="round" stroke-width="1"></path><path d="m27.438 68.551 0 -41.355" fill="none" stroke="#4acfff" stroke-linecap="round" stroke-linejoin="round" stroke-width="1"></path><path d="m66.617 68.551 0 -41.355" fill="none" stroke="#4acfff" stroke-linecap="round" stroke-linejoin="round" stroke-width="1"></path><path d="m22.541 40.255 50.062 0" fill="none" stroke="#4acfff" stroke-linecap="round" stroke-linejoin="round" stroke-width="1"></path><path d="m22.541 48.091 50.062 0" fill="none" stroke="#4acfff" stroke-linecap="round" stroke-linejoin="round" stroke-width="1"></path><path d="m22.541 55.927 50.062 0" fill="none" stroke="#4acfff" stroke-linecap="round" stroke-linejoin="round" stroke-width="1"></path><path d="m22.541 63.763 50.062 0" fill="none" stroke="#4acfff" stroke-linecap="round" stroke-linejoin="round" stroke-width="1"></path><path d="m22.541 32.419 50.062 0" fill="none" stroke="#4acfff" stroke-linecap="round" stroke-linejoin="round" stroke-width="1"></path><path d="m16.135 22.843 63.122 0 0 52.239 -63.122 0Z" fill="none" stroke="#45413c" stroke-width="1"></path><path d="M50.945 33.088a11.759 11.759 0 0 0 -7.835 11.085 3.918 3.918 0 1 1 7.835 0v19.59h7.836v-19.59a11.759 11.759 0 0 0 -7.836 -11.085Z" fill="#4acfff" stroke="#45413c" stroke-linecap="round" stroke-linejoin="round" stroke-width="1"></path><path d="M43.11 33.088a11.759 11.759 0 0 1 7.835 11.085 3.918 3.918 0 1 0 -7.835 0v19.59h-7.836v-19.59a11.759 11.759 0 0 1 7.836 -11.085Z" fill="#b8ecff" stroke="#45413c" stroke-linecap="round" stroke-linejoin="round" stroke-width="1"></path><path d="M35.274 44.173a11.754 11.754 0 1 0 23.508 0 11.754 11.754 0 1 0 -23.508 0Z" fill="none" stroke="#45413c" stroke-linecap="round" stroke-linejoin="round" stroke-width="1"></path><path d="M43.109 44.173a11.754 11.754 0 1 0 23.508 0 11.754 11.754 0 1 0 -23.508 0Z" fill="none" stroke="#45413c" stroke-linecap="round" stroke-linejoin="round" stroke-width="1"></path><path d="M27.438 44.173a11.754 11.754 0 1 0 23.508 0 11.754 11.754 0 1 0 -23.508 0Z" fill="none" stroke="#45413c" stroke-linecap="round" stroke-linejoin="round" stroke-width="1"></path><path d="M43.11 44.173a3.918 3.918 0 1 0 7.836 0 3.918 3.918 0 1 0 -7.836 0Z" fill="none" stroke="#45413c" stroke-linecap="round" stroke-linejoin="round" stroke-width="1"></path><path d="M65.008 61.039a2.389 2.389 0 0 1 1.9 2.794l-1.454 7.624a2.388 2.388 0 1 1 -4.692 -0.895l1.454 -7.624a2.388 2.388 0 0 1 2.792 -1.899Z" fill="#bf8256" stroke="#45413c" stroke-width="1"></path><path d="M62.662 59.971a2.387 2.387 0 0 1 0.544 3.333l-3.567 5.116a2.389 2.389 0 1 1 -3.878 -2.79l3.568 -5.115a2.387 2.387 0 0 1 3.333 -0.544Z" fill="#bf8256" stroke="#45413c" stroke-width="1"></path><path d="M88.379 68.051c-3.227 -3.112 -2.969 -9.479 -8.968 -13.721 -7.579 -5.36 -17.8 -5.708 -28.156 4.159a2.388 2.388 0 0 0 3.28 3.472c0.684 -0.647 1.364 -1.242 2.038 -1.793a2.418 2.418 0 0 0 0.665 0.627c8.321 8.27 10.069 9.414 12.223 10.605 3.363 1.86 4.817 2.725 7.129 5.488l2.1 2.421 11.8 -8.992Zm-15.755 -7.818c-1.308 1.473 -4.242 2.043 -6.764 0.355l-5.143 -3.247c3.515 -1.909 6.875 -2.45 10.032 -1.6 2.686 0.729 2.992 3.233 1.875 4.492Z" fill="#bf8256" stroke-width="1"></path><path d="M52.066 61.143c9.807 -9.939 19.407 -9.677 26.483 -4.384 5.184 3.878 5.317 9.618 7.693 12.894l1.766 2.557 2.485 -1.893 -2.114 -2.266c-3.227 -3.112 -2.969 -9.479 -8.968 -13.721 -7.579 -5.36 -17.8 -5.707 -28.156 4.158a2.392 2.392 0 0 0 -0.1 3.376 2.341 2.341 0 0 0 0.309 0.275 2.486 2.486 0 0 1 0.602 -0.996Z" fill="#e09f7e" stroke-width="1"></path><path d="M72.625 60.233c-1.309 1.473 -4.243 2.043 -6.765 0.355l-5.143 -3.247c3.515 -1.909 6.875 -2.45 10.032 -1.6 2.686 0.729 2.993 3.233 1.876 4.492Z" fill="#ffb59e" stroke="#45413c" stroke-linejoin="round" stroke-width="1"></path><path d="m90.493 70.317 -2.114 -2.266c-3.227 -3.112 -2.969 -9.479 -8.968 -13.721 -7.579 -5.36 -17.8 -5.707 -28.156 4.158a2.389 2.389 0 0 0 3.28 3.473c0.685 -0.647 1.365 -1.243 2.04 -1.8a31.562 31.562 0 0 1 4.142 -2.825c3.515 -1.909 6.875 -2.45 10.032 -1.6 2.686 0.725 2.992 3.229 1.875 4.488 -1.308 1.473 -4.242 2.043 -6.764 0.355l-5.143 -3.247h0a31.5 31.5 0 0 0 -4.142 2.825l0 0a2.418 2.418 0 0 0 0.665 0.627c8.321 8.27 10.069 9.414 12.223 10.605 3.363 1.86 4.817 2.725 7.129 5.488l2.1 2.421" fill="none" stroke="#45413c" stroke-linecap="round" stroke-linejoin="round" stroke-width="1"></path><path d="m56.329 65.774 -2.051 -5.352 27.487 -10.361 2.052 5.353 -27.488 10.36z" fill="#ebcb00" stroke-width="1"></path><path d="M81.765 50.061 54.278 60.422l1.025 2.677 27.493 -10.35 -1.031 -2.688z" fill="#ffe500" stroke-width="1"></path><path d="M54.278 60.422c-0.133 -0.013 -5.665 5.24 -5.665 5.24l7.716 0.112Z" fill="#f7e5c6" stroke-width="1"></path><path d="m56.329 65.774 -2.051 -5.352 27.487 -10.361 2.052 5.353 -27.488 10.36z" fill="none" stroke="#45413c" stroke-linecap="round" stroke-linejoin="round" stroke-width="1"></path><path d="m81.765714854 50.0610273901 2.6761610129 -1.025728148 2.051456296 5.3523220256 -2.6761610128 1.025728148z" fill="#daedf7" stroke-width="1"></path><path d="m81.7653326466 50.060755214 2.6754598313 -1.0247632364 1.0297708056 2.6885336316 -2.6754598314 1.0247632365z" fill="#daedf7" stroke-width="1"></path><path d="m81.765714854 50.0610273901 2.6761610129 -1.025728148 2.051456296 5.3523220256 -2.6761610128 1.025728148z" fill="none" stroke="#45413c" stroke-linecap="round" stroke-linejoin="round" stroke-width="1"></path><path d="M88.5 53.619a2.866 2.866 0 0 0 -2.051 -5.352l-2.008 0.769 2.052 5.352Z" fill="#ffa694" stroke-width="1"></path><path d="M90.15 49.918a2.865 2.865 0 0 0 -3.7 -1.651l-2.008 0.769 1.031 2.688 4.682 -1.792Z" fill="#ffcabf" stroke-width="1"></path><path d="M88.5 53.619a2.866 2.866 0 0 0 -2.051 -5.352l-2.008 0.769 2.052 5.352Z" fill="none" stroke="#45413c" stroke-linecap="round" stroke-linejoin="round" stroke-width="1"></path><path d="m48.613 65.662 -1.339 0.51" fill="#87898c" stroke="#45413c" stroke-linecap="round" stroke-linejoin="round" stroke-width="1"></path><path d="m55.3 63.1 -1.025 -2.677c-0.132 -0.013 -5.6 5.18 -5.66 5.236Z" fill="#fff5e3" stroke-width="1"></path><path d="M54.278 60.422c-0.133 -0.013 -5.665 5.24 -5.665 5.24l7.716 0.112Z" fill="none" stroke="#45413c" stroke-linecap="round" stroke-linejoin="round" stroke-width="1"></path><path d="M72.625 60.233c-1.309 1.473 -4.243 2.043 -6.765 0.355l-6.071 -3.833a2.389 2.389 0 0 0 -2.551 4.04c8.321 8.27 10.069 9.414 12.223 10.605" fill="#bf8256" stroke-width="1"></path><path d="M72.625 60.233c-1.309 1.473 -4.243 2.043 -6.765 0.355l-6.071 -3.833a2.389 2.389 0 0 0 -2.551 4.04c8.321 8.27 10.069 9.414 12.223 10.605" fill="none" stroke="#45413c" stroke-linecap="round" stroke-linejoin="round" stroke-width="1"></path><path d="M56.927 60.561a2.389 2.389 0 0 1 2.862 -3.806l6.071 3.833c2.522 1.688 5.456 1.118 6.764 -0.355l-0.376 1.329a4 4 0 0 1 -6.068 2.232l-6.071 -3.833a2.382 2.382 0 0 0 -3.182 0.6Z" fill="#e09f7e" stroke-width="1"></path><path d="M72.625 60.233c-1.309 1.473 -4.243 2.043 -6.765 0.355l-6.071 -3.833a2.389 2.389 0 0 0 -2.551 4.04c8.321 8.27 10.069 9.414 12.223 10.605" fill="none" stroke="#45413c" stroke-linecap="round" stroke-linejoin="round" stroke-width="1"></path></svg>