<svg viewBox="0 0 100 100" xmlns="http://www.w3.org/2000/svg" id="User-Information--Streamline-Ux" height="100" width="100"><desc>User Information Streamline Illustration: https://streamlinehq.com</desc><path d="M9.707 50.519a40 40 0 1 0 80 0 40 40 0 1 0 -80 0Z" fill="#daedf7" stroke="#daedf7" stroke-width="1"></path><path d="M27.646 31.449 16.573 58.524" fill="none" stroke="#00aed9" stroke-linecap="round" stroke-linejoin="round" stroke-width="1"></path><path d="M43.212 79.213 16.573 58.524" fill="none" stroke="#00aed9" stroke-linecap="round" stroke-linejoin="round" stroke-width="1"></path><path d="M84.778 48.229 70.971 71.205" fill="none" stroke="#00aed9" stroke-linecap="round" stroke-linejoin="round" stroke-width="1"></path><path d="m52.925 48.874 -36.352 9.65" fill="none" stroke="#00aed9" stroke-linecap="round" stroke-linejoin="round" stroke-width="1"></path><path d="m27.646 31.449 38.957 -11.956" fill="none" stroke="#00aed9" stroke-linecap="round" stroke-linejoin="round" stroke-width="1"></path><path d="M84.778 48.229 66.603 19.493" fill="none" stroke="#00aed9" stroke-linecap="round" stroke-linejoin="round" stroke-width="1"></path><path d="m52.925 48.874 31.853 -0.645" fill="none" stroke="#00aed9" stroke-linecap="round" stroke-linejoin="round" stroke-width="1"></path><path d="M70.971 72.456 53.087 48.871" fill="none" stroke="#00aed9" stroke-linecap="round" stroke-linejoin="round" stroke-width="1"></path><path d="m27.646 31.449 15.566 47.764" fill="none" stroke="#00aed9" stroke-linecap="round" stroke-linejoin="round" stroke-width="1"></path><path d="M66.603 19.493 52.925 48.874" fill="none" stroke="#00aed9" stroke-linecap="round" stroke-linejoin="round" stroke-width="1"></path><path d="M27.646 31.449 53.087 48.8" fill="none" stroke="#00aed9" stroke-linecap="round" stroke-linejoin="round" stroke-width="1"></path><path d="m70.971 72.456 -27.759 6.757" fill="none" stroke="#00aed9" stroke-linecap="round" stroke-linejoin="round" stroke-width="1"></path><path d="M60.613 75.383a11.55 11.55 0 1 0 23.1 0 11.55 11.55 0 1 0 -23.1 0Z" fill="#ffffff" stroke="#45413c" stroke-linecap="round" stroke-linejoin="round" stroke-width="1"></path><path d="M34.138 79.555a9.074 9.074 0 1 0 18.148 0 9.074 9.074 0 1 0 -18.148 0Z" fill="#ffffff" stroke="#45413c" stroke-linecap="round" stroke-linejoin="round" stroke-width="1"></path><path d="M56.591 19.493a10.012 10.012 0 1 0 20.024 0 10.012 10.012 0 1 0 -20.024 0Z" fill="#ffffff" stroke="#45413c" stroke-linecap="round" stroke-linejoin="round" stroke-width="1"></path><path d="M13.346 28.699a11.55 11.55 0 1 0 23.1 0 11.55 11.55 0 1 0 -23.1 0Z" fill="#ffffff" stroke="#45413c" stroke-linecap="round" stroke-linejoin="round" stroke-width="1"></path><path d="M5.023 58.524a11.55 11.55 0 1 0 23.1 0 11.55 11.55 0 1 0 -23.1 0Z" fill="#ffffff" stroke="#45413c" stroke-linecap="round" stroke-linejoin="round" stroke-width="1"></path><path d="M22.218 58.524a5.586 5.586 0 0 0 -0.3 -1.747l0.862 -0.518a1.042 1.042 0 0 0 0.357 -1.43l-0.218 -0.364a1.045 1.045 0 0 0 -1.431 -0.357l-0.849 0.511a5.625 5.625 0 0 0 -2.809 -1.59v-0.99A1.043 1.043 0 0 0 16.784 51h-0.423a1.043 1.043 0 0 0 -1.043 1.042v0.99a5.622 5.622 0 0 0 -2.808 1.59l-0.85 -0.511a1.044 1.044 0 0 0 -1.43 0.357l-0.219 0.364a1.043 1.043 0 0 0 0.357 1.43l0.863 0.518a5.169 5.169 0 0 0 0 3.493l-0.863 0.518a1.044 1.044 0 0 0 -0.357 1.431l0.219 0.363a1.041 1.041 0 0 0 1.43 0.357l0.85 -0.51a5.621 5.621 0 0 0 2.808 1.589v0.99a1.043 1.043 0 0 0 1.043 1.043h0.423a1.043 1.043 0 0 0 1.043 -1.043v-0.99a5.624 5.624 0 0 0 2.809 -1.589l0.849 0.51a1.043 1.043 0 0 0 1.431 -0.357l0.218 -0.363a1.043 1.043 0 0 0 -0.357 -1.431l-0.862 -0.518a5.585 5.585 0 0 0 0.303 -1.749Zm-5.645 2.509a2.51 2.51 0 1 1 2.508 -2.509 2.509 2.509 0 0 1 -2.508 2.509Z" fill="#adc4d9" stroke="#45413c" stroke-linecap="round" stroke-linejoin="round" stroke-width="1"></path><path d="M48.337 83.45a0.678 0.678 0 0 1 -0.665 0.81h-8.92a0.678 0.678 0 0 1 -0.665 -0.811l1.356 -6.778a0.68 0.68 0 0 1 0.665 -0.545h6.209a0.678 0.678 0 0 1 0.664 0.545Z" fill="#ffe500" stroke-width="1"></path><path d="M48.337 83.45a0.678 0.678 0 0 1 -0.665 0.81h-8.92a0.678 0.678 0 0 1 -0.665 -0.811l1.356 -6.778a0.68 0.68 0 0 1 0.665 -0.545h6.209a0.678 0.678 0 0 1 0.664 0.545Z" fill="none" stroke="#45413c" stroke-linecap="round" stroke-linejoin="round" stroke-width="1"></path><path d="M41.586 76.94v-2.034a1.627 1.627 0 0 1 3.253 0v2.034" fill="none" stroke="#45413c" stroke-linecap="round" stroke-linejoin="round" stroke-width="1"></path><path d="m18.016 23.005 13.761 0 0 11.389 -13.761 0Z" fill="#debb7e" stroke-width="1"></path><path d="m18.016 23.005 13.761 0 0 11.389 -13.761 0Z" fill="none" stroke="#45413c" stroke-linecap="round" stroke-linejoin="round" stroke-width="1"></path><path d="M22.761 23.005h4.271v5.22h-4.271z" fill="#ffffff" stroke="#45413c" stroke-linecap="round" stroke-linejoin="round" stroke-width="1"></path><path d="M72.163 67.851a5.9 5.9 0 0 0 -5.9 5.9c0 2.714 4.1 7.458 5.464 8.968a0.593 0.593 0 0 0 0.879 0c1.363 -1.51 5.458 -6.254 5.458 -8.968a5.9 5.9 0 0 0 -5.901 -5.9Zm-0.13 7.671a1.77 1.77 0 1 1 1.77 -1.77 1.768 1.768 0 0 1 -1.77 1.77Z" fill="#ff6242" stroke-width="1"></path><path d="M72.163 67.851a5.9 5.9 0 0 0 -5.9 5.9c0 2.714 4.1 7.458 5.464 8.968a0.593 0.593 0 0 0 0.879 0c1.363 -1.51 5.458 -6.254 5.458 -8.968a5.9 5.9 0 0 0 -5.901 -5.9Zm-0.13 7.671a1.77 1.77 0 1 1 1.77 -1.77 1.768 1.768 0 0 1 -1.77 1.77Z" fill="none" stroke="#45413c" stroke-linecap="round" stroke-linejoin="round" stroke-width="1"></path><path d="m66.6 25.121 2.359 0.845a0.618 0.618 0 0 0 0.606 -1.055l-1.745 -1.466v-2.459l3.893 0.817a0.8 0.8 0 0 0 0.6 -1.465l-4.492 -2.876v-3.633a1.221 1.221 0 1 0 -2.441 0v3.633l-4.49 2.876a0.8 0.8 0 0 0 0.6 1.465l3.893 -0.817v2.459l-1.745 1.466a0.618 0.618 0 0 0 0.606 1.055l2.36 -0.845Z" fill="#adc4d9" stroke="#45413c" stroke-linecap="round" stroke-linejoin="round" stroke-width="1"></path><path d="M37.661 48.849a14.557 14.557 0 1 0 29.114 0 14.557 14.557 0 1 0 -29.114 0Z" fill="#ffffff" stroke="#45413c" stroke-linecap="round" stroke-linejoin="round" stroke-width="1"></path><path d="M47.534 48.512a4.684 4.684 0 1 0 9.367 0V46.17a4.684 4.684 0 1 0 -9.367 0Z" fill="#ffcebf" stroke="#45413c" stroke-linecap="round" stroke-linejoin="round" stroke-width="1"></path><path d="M61.949 59.676a14.556 14.556 0 0 1 -19.458 0 10.538 10.538 0 0 1 19.447 -0.016" fill="#ff6242" stroke="#45413c" stroke-linecap="round" stroke-linejoin="round" stroke-width="1"></path><path d="M47.572 45.565a4.684 4.684 0 0 1 8.536 -2 8.536 8.536 0 0 1 -8.536 2Z" fill="#a86c4d" stroke="#45413c" stroke-linecap="round" stroke-linejoin="round" stroke-width="1"></path><path d="M76.614 47.211a9.182 9.182 0 1 0 18.364 0 9.182 9.182 0 1 0 -18.364 0Z" fill="#ffffff" stroke="#45413c" stroke-linecap="round" stroke-linejoin="round" stroke-width="1"></path><path d="M81.062 44.145v3.443a5.55 5.55 0 0 0 3.706 5.17l0.5 0.186a1.517 1.517 0 0 0 1.046 0l0.5 -0.186a5.551 5.551 0 0 0 3.7 -5.17v-3.443a0.69 0.69 0 0 0 -0.421 -0.633 11.45 11.45 0 0 0 -8.624 0 0.69 0.69 0 0 0 -0.407 0.633Z" fill="#6dd627" stroke-width="1"></path><path d="M81.062 44.145v3.443a5.55 5.55 0 0 0 3.706 5.17l0.5 0.186a1.517 1.517 0 0 0 1.046 0l0.5 -0.186a5.551 5.551 0 0 0 3.7 -5.17v-3.443a0.69 0.69 0 0 0 -0.421 -0.633 11.45 11.45 0 0 0 -8.624 0 0.69 0.69 0 0 0 -0.407 0.633Z" fill="none" stroke="#45413c" stroke-linecap="round" stroke-linejoin="round" stroke-width="1"></path></svg>