<svg width="210" height="210" viewBox="0 0 210 210" fill="none" xmlns="http://www.w3.org/2000/svg">
<rect width="210" height="210" fill="white"/>
<rect width="30" height="30" fill="black"/>
<rect x="30" width="30" height="30" fill="white"/>
<rect x="60" width="30" height="30" fill="black"/>
<rect x="90" width="30" height="30" fill="white"/>
<rect x="120" width="30" height="30" fill="black"/>
<rect x="150" width="30" height="30" fill="white"/>
<rect x="180" width="30" height="30" fill="black"/>
<rect y="30" width="30" height="30" fill="white"/>
<rect x="30" y="30" width="30" height="30" fill="black"/>
<rect x="60" y="30" width="30" height="30" fill="white"/>
<rect x="90" y="30" width="30" height="30" fill="black"/>
<rect x="120" y="30" width="30" height="30" fill="white"/>
<rect x="150" y="30" width="30" height="30" fill="black"/>
<rect x="180" y="30" width="30" height="30" fill="white"/>
<rect y="60" width="30" height="30" fill="black"/>
<rect x="30" y="60" width="30" height="30" fill="white"/>
<rect x="60" y="60" width="30" height="30" fill="black"/>
<rect x="90" y="60" width="30" height="30" fill="white"/>
<rect x="120" y="60" width="30" height="30" fill="black"/>
<rect x="150" y="60" width="30" height="30" fill="white"/>
<rect x="180" y="60" width="30" height="30" fill="black"/>
<rect y="90" width="30" height="30" fill="white"/>
<rect x="30" y="90" width="30" height="30" fill="black"/>
<rect x="60" y="90" width="30" height="30" fill="white"/>
<rect x="90" y="90" width="30" height="30" fill="black"/>
<rect x="120" y="90" width="30" height="30" fill="white"/>
<rect x="150" y="90" width="30" height="30" fill="black"/>
<rect x="180" y="90" width="30" height="30" fill="white"/>
<rect y="120" width="30" height="30" fill="black"/>
<rect x="30" y="120" width="30" height="30" fill="white"/>
<rect x="60" y="120" width="30" height="30" fill="black"/>
<rect x="90" y="120" width="30" height="30" fill="white"/>
<rect x="120" y="120" width="30" height="30" fill="black"/>
<rect x="150" y="120" width="30" height="30" fill="white"/>
<rect x="180" y="120" width="30" height="30" fill="black"/>
<rect y="150" width="30" height="30" fill="white"/>
<rect x="30" y="150" width="30" height="30" fill="black"/>
<rect x="60" y="150" width="30" height="30" fill="white"/>
<rect x="90" y="150" width="30" height="30" fill="black"/>
<rect x="120" y="150" width="30" height="30" fill="white"/>
<rect x="150" y="150" width="30" height="30" fill="black"/>
<rect x="180" y="150" width="30" height="30" fill="white"/>
<rect y="180" width="30" height="30" fill="black"/>
<rect x="30" y="180" width="30" height="30" fill="white"/>
<rect x="60" y="180" width="30" height="30" fill="black"/>
<rect x="90" y="180" width="30" height="30" fill="white"/>
<rect x="120" y="180" width="30" height="30" fill="black"/>
<rect x="150" y="180" width="30" height="30" fill="white"/>
<rect x="180" y="180" width="30" height="30" fill="black"/>
</svg>
