<svg viewBox="0 0 100 100" xmlns="http://www.w3.org/2000/svg" id="Calculations--Streamline-Ux" height="100" width="100"><desc>Calculations Streamline Illustration: https://streamlinehq.com</desc><path d="M10 50a40 40 0 1 0 80 0 40 40 0 1 0 -80 0Z" fill="#daedf7" stroke="#daedf7" stroke-width="1"></path><path d="M35.702 81.148a14.798 1.811 0 1 0 29.596 0 14.798 1.811 0 1 0 -29.596 0Z" fill="#45413c" opacity=".15" stroke-width="1"></path><path d="m24.91 21.67 51.18 0 0 51.18 -51.18 0Z" fill="#ffffff" stroke-width="1"></path><path d="M70.84 68.424H30.16a5.251 5.251 0 0 1 -5.25 -5.25V67.6a5.25 5.25 0 0 0 5.25 5.25h40.68a5.25 5.25 0 0 0 5.25 -5.25v-4.426a5.251 5.251 0 0 1 -5.25 5.25Z" fill="#f8f8f8" stroke-width="1"></path><path d="m24.91 21.67 51.18 0 0 51.18 -51.18 0Z" fill="none" stroke="#45413c" stroke-linecap="round" stroke-linejoin="round" stroke-width="1"></path><path d="m24.91 47.259 51.18 0" fill="none" stroke="#45413c" stroke-linecap="round" stroke-linejoin="round" stroke-width="1"></path><path d="m50.5 21.67 0 51.179" fill="none" stroke="#45413c" stroke-linecap="round" stroke-linejoin="round" stroke-width="1"></path><path d="M43.509 32.364h-3.7v-3.7a2.1 2.1 0 1 0 -4.2 0v3.7H31.9a2.1 2.1 0 1 0 0 4.2h3.705v3.7a2.1 2.1 0 1 0 4.2 0v-3.7h3.7a2.1 2.1 0 0 0 0 -4.2Z" fill="#6dd627" stroke="#46b000" stroke-linecap="round" stroke-linejoin="round" stroke-width="1"></path><path d="m40.675 60.054 2.619 -2.619a2.1 2.1 0 0 0 -2.97 -2.97l-2.619 2.62 -2.619 -2.62a2.1 2.1 0 0 0 -2.97 2.97l2.62 2.619 -2.62 2.62a2.1 2.1 0 1 0 2.97 2.969l2.619 -2.619 2.619 2.619a2.1 2.1 0 1 0 2.97 -2.969Z" fill="#00b8f0" stroke="#00658a" stroke-linecap="round" stroke-linejoin="round" stroke-width="1"></path><path d="M69.1 36.564H57.491a2.1 2.1 0 0 1 0 -4.2H69.1a2.1 2.1 0 0 1 0 4.2Z" fill="#ff6242" stroke="#e04122" stroke-linecap="round" stroke-linejoin="round" stroke-width="1"></path><path d="M67.393 65.913H59.2a2.1 2.1 0 0 1 0 -4.2h8.2a2.1 2.1 0 0 1 0 4.2Z" fill="#ffe500" stroke="#b58b00" stroke-linecap="round" stroke-linejoin="round" stroke-width="1"></path><path d="M67.393 58.4H59.2a2.1 2.1 0 0 1 0 -4.2h8.2a2.1 2.1 0 0 1 0 4.2Z" fill="#ffe500" stroke="#b58b00" stroke-linecap="round" stroke-linejoin="round" stroke-width="1"></path></svg>