<svg viewBox="0 0 100 100" xmlns="http://www.w3.org/2000/svg" id="Star-Trek-Gesture-3--Streamline-Ux" height="100" width="100"><desc>Star Trek Gesture 3 Streamline Illustration: https://streamlinehq.com</desc><path d="M10 50a40 40 0 1 0 80 0 40 40 0 1 0 -80 0Z" fill="#daedf7" stroke="#daedf7" stroke-width="1"></path><path d="M40.232 54.45 33.97 37.244a3.742 3.742 0 0 0 -7.032 2.556C36.656 64.657 32 58.77 35.284 70.256c2 7.015 3.2 12.733 3.2 19.208h21.509v-9.23a7.485 7.485 0 0 1 1.577 -4.595l15.019 -15.825a3.741 3.741 0 0 0 -5.289 -5.291l-6.039 6.037a0.935 0.935 0 0 1 -0.885 0.247c-0.318 -0.078 -0.46 -0.377 -0.67 -0.629 -1.842 -2.218 -2.106 -1.266 6.407 -25.428a3.741 3.741 0 1 0 -7.031 -2.559l-8.217 22.438 -7.265 -1.142Z" fill="#bf8256" stroke-width="1"></path><path d="M40.484 55.721 32.9 29.681a3.741 3.741 0 0 1 7.2 -2.062l7.526 25.824" fill="#bf8256" stroke="#45413c" stroke-linecap="round" stroke-width="1"></path><path d="m47.622 53.465 8.229 -28.717a3.741 3.741 0 1 1 7.193 2.062l-7.728 27.316" fill="#bf8256" stroke="#45413c" stroke-linecap="round" stroke-width="1"></path><path d="M49.092 75.5a40.108 40.108 0 0 1 -12.844 -2.131 56.8 56.8 0 0 1 2.232 16.1h21.514v-9.23a7.484 7.484 0 0 1 1.576 -4.595l3.11 -3.277A40.082 40.082 0 0 1 49.092 75.5Z" fill="#bf8256" stroke-width="1"></path><path d="M59.993 89.464v-9.23a7.485 7.485 0 0 1 1.577 -4.595l15.019 -15.825a3.741 3.741 0 0 0 -5.289 -5.291l-6.039 6.037a0.935 0.935 0 0 1 -0.885 0.247c-0.318 -0.078 -0.46 -0.377 -0.67 -0.629 -1.842 -2.218 -2.106 -1.266 6.407 -25.428a3.741 3.741 0 1 0 -7.031 -2.559l-8.217 22.438 -7.265 -1.142 -7.368 0.963 -6.262 -17.206a3.742 3.742 0 0 0 -7.032 2.556C36.656 64.657 32 58.77 35.284 70.256c2 7.015 3.2 12.733 3.2 19.208" fill="none" stroke="#45413c" stroke-linecap="round" stroke-width="1"></path><path d="M57.181 55.363a24.882 24.882 0 0 0 -9.34 -1.662 23.619 23.619 0 0 0 -10.29 2.1v3.721h19.881Z" fill="#bf8256" stroke-width="1"></path><path d="M37.551 55.8a23.619 23.619 0 0 1 10.29 -2.1 24.882 24.882 0 0 1 9.34 1.662" fill="none" stroke="#45413c" stroke-linecap="round" stroke-linejoin="round" stroke-width="1"></path></svg>