<svg width="409" height="409" viewBox="0 0 409 409" fill="none" xmlns="http://www.w3.org/2000/svg">
<g clip-path="url(#clip0_52_339)">
<path d="M0.900024 204.5C0.900024 258.498 22.3507 310.285 60.5331 348.467C98.7155 386.649 150.502 408.1 204.5 408.1C258.498 408.1 310.285 386.649 348.467 348.467C386.649 310.285 408.1 258.498 408.1 204.5C408.1 150.502 386.649 98.7155 348.467 60.5331C310.285 22.3506 258.498 0.899994 204.5 0.899994C150.502 0.899994 98.7155 22.3506 60.5331 60.5331C22.3507 98.7155 0.900024 150.502 0.900024 204.5Z" fill="#BBE8F9"/>
<path d="M88.0422 188.24C87.691 182.792 87.8795 177.324 88.6052 171.911C89.6062 171.911 108.374 172.453 108.374 171.911C108.374 171.369 107.123 146.303 109.438 145.038C118.936 143.717 128.501 142.892 138.09 142.568V127.504C138.09 127.504 113.88 128.468 113.63 126.479C113.379 124.491 109.688 93.822 112.066 93.099C114.443 92.3759 149.602 90.8093 149.602 93.581C149.602 96.3527 150.603 121.238 150.603 121.238C150.603 121.238 175.627 119.189 176.691 121.238C177.754 123.286 177.191 141.543 179.818 141.784C182.446 142.025 223.11 143.531 223.11 141.784C222.878 134.65 223.317 127.511 224.424 120.454C225.676 119.49 255.141 119.189 255.141 119.189C254.691 111.153 254.879 103.096 255.704 95.0874C256.956 93.34 295.806 93.099 295.806 95.3886C295.607 105.865 294.834 116.323 293.491 126.721C292.427 126.721 262.711 127.263 262.711 127.263V134.011C262.711 134.011 309.882 135.276 310.382 137.566C310.883 139.856 309.131 170.947 310.382 170.947C311.634 170.947 333.842 170.947 334.093 173.176C334.343 175.406 334.093 194.265 334.093 194.265C334.093 194.265 359.117 194.807 359.868 197.518C360.618 200.23 358.053 277.114 355.176 278.379C345.272 279.465 335.256 279.119 325.459 277.355C324.709 275.849 325.459 226.139 324.145 225.657C322.832 225.176 308.256 225.657 308.256 225.657C308.256 225.657 309.82 279.886 307.755 281.874C305.69 283.862 274.097 283.381 274.097 283.381C274.097 283.381 276.474 304.228 274.911 304.71C273.347 305.192 211.787 308.265 211.787 305.975C211.787 303.686 211.286 275.849 213.664 274.584C216.041 273.317 259.02 273.378 258.708 272.113C258.395 270.848 258.708 261.026 257.957 260.785C257.206 260.544 159.799 261.809 159.799 263.316C159.276 266.893 159.276 270.524 159.799 274.101C160.613 274.101 204.655 275.125 204.905 275.849C205.687 285.977 205.687 296.148 204.905 306.277C185.983 307.241 167.022 307.241 148.1 306.277C145.974 305.012 145.222 281.633 145.222 281.633C145.222 281.633 110.564 278.138 110.314 276.391C110.064 274.643 110.314 226.139 109.25 225.416C105.813 224.647 102.239 224.647 98.8026 225.416C98.8026 226.2 99.8662 273.619 98.8026 274.101C97.7391 274.584 61.2663 278.138 61.2663 274.101C61.2663 270.064 58.6388 193.362 60.9535 191.794C69.8625 189.874 78.9245 188.685 88.0422 188.24Z" fill="#1D1D1B"/>
<path d="M72.4973 200.952C77.8055 199.842 83.2126 199.188 88.6498 199C88.6498 199 89.4377 266.105 88.6498 266.105C87.8619 266.105 73.0225 268.118 72.4973 266.105C71.972 264.092 71.7094 202.233 72.4973 200.952Z" fill="#C8DB89"/>
<path d="M100.483 181.652C102.816 180.783 105.435 180.783 107.769 181.652C107.769 182.357 108.289 214.451 107.769 214.451C107.248 214.451 100.743 215.686 100.418 214.451C100.093 213.217 99.6374 182.298 100.483 181.652Z" fill="#C8DB89"/>
<path d="M123.839 101.494C124.962 100.77 137.874 100.71 138.435 102.218C139.188 107.058 139.188 111.98 138.435 116.82C133.573 117.06 128.701 117.06 123.839 116.82C122.72 111.769 122.72 106.545 123.839 101.494Z" fill="#C8DB89"/>
<path d="M266.225 103.203C271.766 102.783 277.345 103.016 282.818 103.896C283.177 108.152 283.004 112.431 282.304 116.652C276.957 117.116 271.572 117.116 266.225 116.652C265.925 112.173 265.925 107.682 266.225 103.203Z" fill="#C8DB89"/>
<path d="M149.03 130.166C154.889 129.3 160.827 129.036 166.742 129.378C166.775 136.9 167.38 144.409 168.551 151.844C169.549 151.844 233.226 151.36 233.474 150.088C233.724 148.816 234.784 130.408 235.595 129.682C240.75 128.773 246.032 128.773 251.187 129.682C251.187 130.65 250.376 144.275 251.686 144.578C252.995 144.88 296.403 146.092 296.901 147.061C297.401 148.029 295.841 202.831 295.841 202.831C295.841 202.831 286.237 192.718 285.488 193.748C284.74 194.777 282.37 197.805 283.368 198.29C287.931 201.914 292.109 205.97 295.841 210.4C296.102 213.766 296.102 217.147 295.841 220.513C291.032 216.126 285.905 212.078 280.499 208.402C279.938 209.129 278.379 212.398 279.19 213.186C280 213.973 295.841 228.324 295.841 229.293C295.841 230.262 295.841 238.134 295.841 238.134C290.758 234.257 285.47 230.64 280 227.295C279.252 227.295 277.132 232.624 278.192 232.866C284.39 235.839 290.226 239.474 295.592 243.706C295.592 245.219 296.153 252.546 296.153 252.546C296.153 252.546 279.252 241.768 278.503 241.768C277.755 241.768 277.194 247.035 277.194 247.035C283.747 250.975 290 255.367 295.904 260.176C296.089 262.696 296.089 265.226 295.904 267.745C290.825 264.037 285.443 260.736 279.813 257.875C279.003 258.662 277.444 261.932 278.753 262.417C280.063 262.901 290.478 271.015 289.418 271.257C283.737 272.043 277.985 272.206 272.267 271.742C272.267 270.773 272.267 250.064 271.207 249.821C270.146 249.579 220.815 248.549 209.401 249.034C197.988 249.518 149.342 252.062 148.594 253.878C147.845 255.695 149.342 270.531 148.594 270.531C139.62 270.366 130.665 269.678 121.776 268.472C121.028 267.503 118.658 154.933 121.028 154.206C123.397 153.479 149.342 152.692 149.342 151.905C149.342 151.117 149.279 130.892 149.03 130.166Z" fill="#8EC480"/>
<path d="M145.269 172.915C157.033 170.909 169.02 170.477 180.903 171.629C182.046 183.337 182.296 195.113 181.651 206.859C169.813 208.037 157.898 208.303 146.018 207.656C144.991 196.104 144.741 184.499 145.269 172.915Z" fill="#1D1D1B"/>
<path d="M156.682 182.699C160.775 181.767 165.065 181.767 169.158 182.699C169.158 183.457 171.053 195.345 169.158 196.103C164.895 197.113 160.434 197.273 156.094 196.568C155.862 191.939 156.059 187.301 156.682 182.699Z" fill="#FAB900"/>
<path d="M230.227 170.869C241.986 168.911 253.968 168.489 265.844 169.615C267.036 181.022 267.307 192.5 266.654 203.947C254.838 205.046 242.953 205.285 231.098 204.663C230.034 193.429 229.743 182.14 230.227 170.869Z" fill="#1D1D1B"/>
<path d="M242.57 179.794C246.385 178.735 250.405 178.735 254.218 179.794C254.218 180.54 255.978 193.275 254.218 194.02C250.264 195.129 246.114 195.299 242.086 194.518C241.881 189.604 242.043 184.682 242.57 179.794Z" fill="#FAB900"/>
<path d="M128 162.334C128 163.892 134.211 161.076 134.211 162.334C134.211 163.592 135.515 186.839 134.77 187.318C134.025 187.798 128.559 188.576 128.559 187.318C128.559 186.06 128 161.855 128 162.334Z" fill="#1D1D1B"/>
<path d="M309.813 178.785C310.544 178.048 322 177.249 322 179.338C322 181.427 322 214.903 320.72 214.903C316.488 215.135 312.243 214.95 308.046 214.351C307.741 213.614 309.021 179.338 309.813 178.785Z" fill="#C8DB89"/>
<path d="M336.633 204.39C337.954 203.971 348.723 203.611 348.987 204.87C349.251 206.128 345.419 267.305 344.296 267.784C341.553 268.072 338.782 268.072 336.038 267.784C336.038 267.784 335.774 204.63 336.633 204.39Z" fill="#C8DB89"/>
<path d="M158.428 283.262C170.29 282.735 182.174 283.004 194 284.066V298L158.366 297.195C157.858 292.563 157.879 287.889 158.428 283.262Z" fill="#C8DB89"/>
<path d="M222.756 284.38C235.322 283.267 247.939 282.827 260.552 283.061C260.552 284.129 261.56 294.618 260.552 295.121C259.544 295.623 222 296 222 296C222 296 222 284.631 222.756 284.38Z" fill="#C8DB89"/>
</g>
<defs>
<clipPath id="clip0_52_339">
<rect width="409" height="409" fill="white"/>
</clipPath>
</defs>
</svg>
