<svg width="409" height="409" viewBox="0 0 409 409" fill="none" xmlns="http://www.w3.org/2000/svg">
<path d="M0.900024 204.5C0.900024 258.498 22.3507 310.285 60.5331 348.467C98.7155 386.649 150.502 408.1 204.5 408.1C258.498 408.1 310.285 386.649 348.467 348.467C386.649 310.285 408.1 258.498 408.1 204.5C408.1 150.502 386.649 98.7155 348.467 60.5331C310.285 22.3506 258.498 0.899994 204.5 0.899994C150.502 0.899994 98.7155 22.3506 60.5331 60.5331C22.3507 98.7155 0.900024 150.502 0.900024 204.5Z" fill="#9BCDE0"/>
<path d="M48.0528 189.469C47.6013 182.197 47.8436 174.898 48.7767 167.672C50.0636 167.672 74.1932 168.396 74.1932 167.672C74.1932 166.948 72.5845 133.488 75.5605 131.799C87.7712 130.036 100.069 128.935 112.398 128.502V108.394C112.398 108.394 81.2712 109.68 80.9495 107.026C80.6277 104.372 75.8822 63.4322 78.9387 62.467C81.9951 61.5018 127.198 59.4106 127.198 63.1105C127.198 66.8103 128.485 100.029 128.485 100.029C128.485 100.029 160.657 97.294 162.025 100.029C163.392 102.763 162.668 127.134 166.046 127.456C169.424 127.778 221.705 129.788 221.705 127.456C221.406 117.933 221.971 108.403 223.394 98.983C225.003 97.6961 262.886 97.294 262.886 97.294C262.307 86.567 262.549 75.8114 263.61 65.1213C265.219 62.7887 315.167 62.467 315.167 65.5234C314.911 79.5076 313.918 93.4685 312.191 107.348C310.823 107.348 272.618 108.072 272.618 108.072V117.08C272.618 117.08 333.264 118.769 333.907 121.826C334.551 124.882 332.299 166.385 333.907 166.385C335.516 166.385 364.069 166.385 364.391 169.361C364.713 172.337 364.391 197.512 364.391 197.512C364.391 197.512 396.564 198.236 397.529 201.855C398.494 205.475 395.196 308.106 391.497 309.795C378.764 311.244 365.887 310.783 353.291 308.427C352.326 306.417 353.291 240.06 351.602 239.417C349.913 238.774 331.173 239.417 331.173 239.417C331.173 239.417 333.184 311.806 330.529 314.46C327.875 317.114 287.257 316.471 287.257 316.471C287.257 316.471 290.313 344.3 288.303 344.943C286.292 345.587 207.147 349.689 207.147 346.632C207.147 343.576 206.503 306.417 209.56 304.728C212.616 303.038 267.873 303.119 267.471 301.43C267.069 299.741 267.471 286.63 266.506 286.309C265.54 285.987 140.308 287.676 140.308 289.687C139.636 294.462 139.636 299.309 140.308 304.084C141.354 304.084 197.978 305.451 198.299 306.417C199.305 319.937 199.305 333.514 198.299 347.035C173.972 348.322 149.594 348.322 125.267 347.035C122.533 345.346 121.567 314.138 121.567 314.138C121.567 314.138 77.0083 309.473 76.6866 307.141C76.3648 304.808 76.6866 240.06 75.3192 239.095C70.9007 238.069 66.3056 238.069 61.8871 239.095C61.8871 240.141 63.2545 303.441 61.8871 304.084C60.5198 304.728 13.628 309.473 13.628 304.084C13.628 298.695 10.2499 196.306 13.2259 194.214C24.6798 191.65 36.3305 190.063 48.0528 189.469Z" fill="#1D1D1B"/>
<path d="M28.668 206.922C35.1703 205.459 41.7938 204.597 48.4542 204.349C48.4542 204.349 49.4194 292.824 48.4542 292.824C47.489 292.824 29.3114 295.478 28.668 292.824C28.0245 290.169 27.7028 208.612 28.668 206.922Z" fill="#C8DB89"/>
<path d="M64.5402 180.219C67.4253 179.03 70.6634 179.03 73.5485 180.219C73.5485 181.184 74.192 225.1 73.5485 225.1C72.9051 225.1 64.8619 226.789 64.4598 225.1C64.0576 223.411 63.4946 181.104 64.5402 180.219Z" fill="#C8DB89"/>
<path d="M93.9796 73.8883C95.4274 72.9231 112.077 72.8427 112.801 74.8535C113.772 81.3053 113.772 87.8661 112.801 94.318C106.531 94.6373 100.249 94.6373 93.9796 94.318C92.5364 87.5845 92.5364 80.6217 93.9796 73.8883Z" fill="#C8DB89"/>
<path d="M277.685 75.6578C284.614 75.072 291.591 75.3965 298.436 76.623C298.885 82.5536 298.669 88.5157 297.793 94.3984C291.106 95.0444 284.372 95.0444 277.685 94.3984C277.309 88.1572 277.309 81.899 277.685 75.6578Z" fill="#C8DB89"/>
<path d="M126.152 112.415C133.708 111.265 141.365 110.914 148.994 111.369C149.037 121.36 149.817 131.334 151.327 141.21C152.614 141.21 234.735 140.566 235.056 138.877C235.378 137.188 236.745 112.737 237.791 111.772C244.439 110.565 251.251 110.565 257.899 111.772C257.899 113.059 256.853 131.156 258.542 131.558C260.231 131.96 316.212 133.569 316.855 134.856C317.499 136.142 315.488 208.933 315.488 208.933C315.488 208.933 303.102 195.501 302.136 196.868C301.171 198.236 298.115 202.257 299.402 202.901C305.286 207.715 310.674 213.103 315.488 218.987C315.824 223.458 315.824 227.948 315.488 232.419C309.285 226.592 302.673 221.216 295.702 216.333C294.978 217.298 292.967 221.641 294.013 222.687C295.058 223.733 315.488 242.795 315.488 244.082C315.488 245.369 315.488 255.825 315.488 255.825C308.932 250.675 302.113 245.87 295.058 241.428C294.093 241.428 291.359 248.506 292.726 248.827C300.719 252.776 308.246 257.605 315.166 263.225C315.166 265.235 315.89 274.968 315.89 274.968C315.89 274.968 294.093 260.651 293.128 260.651C292.163 260.651 291.439 267.648 291.439 267.648C299.89 272.881 307.954 278.714 315.569 285.102C315.807 288.449 315.807 291.809 315.569 295.156C309.019 290.23 302.078 285.846 294.817 282.046C293.772 283.091 291.761 287.435 293.45 288.078C295.139 288.722 308.571 299.499 307.204 299.821C299.878 300.865 292.459 301.081 285.085 300.465C285.085 299.178 285.085 271.67 283.718 271.348C282.35 271.027 218.729 269.659 204.01 270.303C189.291 270.946 126.554 274.324 125.589 276.737C124.623 279.15 126.554 298.856 125.589 298.856C114.016 298.637 102.467 297.723 91.003 296.121C90.0378 294.834 86.9814 145.312 90.0378 144.347C93.0942 143.381 126.554 142.336 126.554 141.29C126.554 140.244 126.473 113.38 126.152 112.415Z" fill="#8EC480"/>
<path d="M121.165 169.361C136.327 166.728 151.776 166.16 167.091 167.672C168.565 183.042 168.887 198.501 168.056 213.92C152.798 215.467 137.442 215.816 122.13 214.966C120.807 199.802 120.484 184.567 121.165 169.361Z" fill="#1D1D1B"/>
<path d="M136.93 181.747C141.97 180.46 147.252 180.46 152.292 181.747C152.292 182.793 154.625 199.201 152.292 200.247C147.043 201.642 141.55 201.862 136.206 200.89C135.92 194.5 136.162 188.098 136.93 181.747Z" fill="#FAB900"/>
<path d="M231.035 166.385C246.224 163.748 261.701 163.179 277.042 164.696C278.581 180.062 278.931 195.524 278.088 210.944C262.825 212.424 247.473 212.746 232.161 211.909C230.786 196.776 230.41 181.568 231.035 166.385Z" fill="#1D1D1B"/>
<path d="M246.8 178.771C251.857 177.401 257.187 177.401 262.243 178.771C262.243 179.737 264.576 196.225 262.243 197.19C257 198.626 251.498 198.846 246.157 197.834C245.886 191.472 246.101 185.1 246.8 178.771Z" fill="#FAB900"/>
<path d="M100.092 155.285C100.092 157.377 108.135 153.596 108.135 155.285C108.135 156.974 109.824 188.182 108.859 188.825C107.894 189.469 100.816 190.514 100.816 188.825C100.816 187.136 100.092 154.642 100.092 155.285Z" fill="#1D1D1B"/>
<path d="M333.344 177.404C334.309 176.439 349.43 175.393 349.43 178.128C349.43 180.863 349.43 224.698 347.741 224.698C342.154 225.001 336.551 224.759 331.011 223.974C330.609 223.009 332.298 178.128 333.344 177.404Z" fill="#C8DB89"/>
<path d="M368.493 210.944C370.101 210.381 383.212 209.898 383.534 211.588C383.855 213.277 379.19 295.397 377.823 296.041C374.483 296.427 371.109 296.427 367.769 296.041C367.769 296.041 367.447 211.266 368.493 210.944Z" fill="#C8DB89"/>
<path d="M138.941 316.471C154.229 315.787 169.546 316.136 184.787 317.516V335.613L138.861 334.568C138.207 328.551 138.233 322.481 138.941 316.471Z" fill="#C8DB89"/>
<path d="M221.705 318.16C237.75 316.735 253.859 316.171 269.964 316.471C269.964 317.838 271.251 331.27 269.964 331.914C268.677 332.557 220.74 333.04 220.74 333.04C220.74 333.04 220.74 318.481 221.705 318.16Z" fill="#C8DB89"/>
</svg>
