<svg width="82" height="82" viewBox="0 0 82 82" fill="none" xmlns="http://www.w3.org/2000/svg">
<path d="M1 41C1 51.6087 5.21427 61.7828 12.7157 69.2843C20.2172 76.7857 30.3913 81 41 81C51.6087 81 61.7828 76.7857 69.2843 69.2843C76.7857 61.7828 81 51.6087 81 41C81 30.3913 76.7857 20.2172 69.2843 12.7157C61.7828 5.21427 51.6087 1 41 1C30.3913 1 20.2172 5.21427 12.7157 12.7157C5.21427 20.2172 1 30.3913 1 41Z" fill="#DAEDF7" stroke="#DAEDF7"/>
<path opacity="0.15" d="M7.40002 71.267C7.40002 71.6117 8.26911 71.9531 9.95767 72.2715C11.6462 72.59 14.1212 72.8794 17.2412 73.1232C20.3613 73.3669 24.0653 73.5603 28.1419 73.6922C32.2184 73.8241 36.5876 73.892 41 73.892C45.4124 73.892 49.7816 73.8241 53.8582 73.6922C57.9347 73.5603 61.6388 73.3669 64.7588 73.1232C67.8789 72.8794 70.3538 72.59 72.0424 72.2715C73.7309 71.9531 74.6 71.6117 74.6 71.267C74.6 70.5708 71.06 69.9031 64.7588 69.4108C58.4576 68.9186 49.9113 68.642 41 68.642C32.0888 68.642 23.5425 68.9186 17.2412 69.4108C10.94 69.9031 7.40002 70.5708 7.40002 71.267Z" fill="#45413C"/>
<path d="M70.223 20.934C69.3252 20.7702 68.5132 20.2967 67.9285 19.596C67.3438 18.8953 67.0234 18.0117 67.023 17.099C67.023 16.4888 66.9028 15.8846 66.6692 15.3208C66.4357 14.7571 66.0934 14.2449 65.6619 13.8134C65.2303 13.382 64.718 13.0398 64.1542 12.8064C63.5904 12.573 62.9862 12.4529 62.376 12.453C61.6253 12.4528 60.8978 12.1932 60.3167 11.7181C59.7355 11.243 59.3364 10.5816 59.187 9.84601C59.0911 9.3688 58.8118 8.9483 58.409 8.67501C56.486 7.37501 50.683 4.08801 41 4.08801C31.317 4.08801 25.514 7.37101 23.591 8.67501C23.1882 8.9483 22.9088 9.3688 22.813 9.84601C22.6636 10.5816 22.2645 11.243 21.6833 11.7181C21.1021 12.1932 20.3746 12.4528 19.624 12.453C19.0137 12.4529 18.4094 12.573 17.8455 12.8065C17.2816 13.04 16.7693 13.3823 16.3378 13.8138C15.9062 14.2453 15.5639 14.7577 15.3305 15.3215C15.097 15.8854 14.9769 16.4897 14.977 17.1C14.9766 18.0127 14.6562 18.8963 14.0715 19.597C13.4867 20.2977 12.6748 20.7712 11.777 20.935C11.2407 21.0326 10.7556 21.3153 10.4062 21.7337C10.0568 22.1521 9.86531 22.6799 9.86499 23.225V66.825H72.135V23.225C72.1349 22.6797 71.9435 22.1517 71.5941 21.7331C71.2447 21.3144 70.7595 21.0316 70.223 20.934Z" fill="#ADC4D9"/>
<path d="M70.223 20.934C69.3252 20.7702 68.5132 20.2967 67.9285 19.596C67.3438 18.8953 67.0234 18.0117 67.023 17.099C67.023 16.4888 66.9028 15.8846 66.6692 15.3208C66.4357 14.7571 66.0934 14.2449 65.6619 13.8134C65.2303 13.382 64.718 13.0398 64.1542 12.8064C63.5904 12.573 62.9862 12.4529 62.376 12.453C61.6253 12.4528 60.8978 12.1932 60.3167 11.7181C59.7355 11.243 59.3364 10.5816 59.187 9.84601C59.0911 9.3688 58.8118 8.9483 58.409 8.67501C56.486 7.37501 50.683 4.08801 41 4.08801C31.317 4.08801 25.514 7.37101 23.591 8.67501C23.1882 8.9483 22.9088 9.3688 22.813 9.84601C22.6636 10.5816 22.2645 11.243 21.6833 11.7181C21.1021 12.1932 20.3746 12.4528 19.624 12.453C19.0137 12.4529 18.4094 12.573 17.8455 12.8065C17.2816 13.04 16.7693 13.3823 16.3378 13.8138C15.9062 14.2453 15.5639 14.7577 15.3305 15.3215C15.097 15.8854 14.9769 16.4897 14.977 17.1C14.9766 18.0127 14.6562 18.8963 14.0715 19.597C13.4867 20.2977 12.6748 20.7712 11.777 20.935C11.2407 21.0326 10.7556 21.3153 10.4062 21.7337C10.0568 22.1521 9.86531 22.6799 9.86499 23.225V25C9.86526 24.7535 9.96336 24.5172 10.1377 24.343C10.3121 24.1689 10.5485 24.071 10.795 24.071H71.205C71.4515 24.071 71.6879 24.1689 71.8623 24.343C72.0366 24.5172 72.1347 24.7535 72.135 25V23.224C72.1347 22.6789 71.9431 22.1511 71.5938 21.7327C71.2444 21.3143 70.7593 21.0316 70.223 20.934Z" fill="#DAEDF7"/>
<path d="M70.223 20.934C69.3252 20.7702 68.5132 20.2967 67.9285 19.596C67.3438 18.8953 67.0234 18.0117 67.023 17.099C67.023 16.4888 66.9028 15.8846 66.6692 15.3208C66.4357 14.7571 66.0934 14.2449 65.6619 13.8134C65.2303 13.382 64.718 13.0398 64.1542 12.8064C63.5904 12.573 62.9862 12.4529 62.376 12.453C61.6253 12.4528 60.8978 12.1932 60.3167 11.7181C59.7355 11.243 59.3364 10.5816 59.187 9.84601C59.0911 9.3688 58.8118 8.9483 58.409 8.67501C56.486 7.37501 50.683 4.08801 41 4.08801C31.317 4.08801 25.514 7.37101 23.591 8.67501C23.1882 8.9483 22.9088 9.3688 22.813 9.84601C22.6636 10.5816 22.2645 11.243 21.6833 11.7181C21.1021 12.1932 20.3746 12.4528 19.624 12.453C19.0137 12.4529 18.4094 12.573 17.8455 12.8065C17.2816 13.04 16.7693 13.3823 16.3378 13.8138C15.9062 14.2453 15.5639 14.7577 15.3305 15.3215C15.097 15.8854 14.9769 16.4897 14.977 17.1C14.9766 18.0127 14.6562 18.8963 14.0715 19.597C13.4867 20.2977 12.6748 20.7712 11.777 20.935C11.2407 21.0326 10.7556 21.3153 10.4062 21.7337C10.0568 22.1521 9.86531 22.6799 9.86499 23.225V66.825H72.135V23.225C72.1349 22.6797 71.9435 22.1517 71.5941 21.7331C71.2447 21.3144 70.7595 21.0316 70.223 20.934Z" stroke="#45413C" stroke-linecap="round" stroke-linejoin="round"/>
<path d="M69.811 66.822V24.535C69.8108 24.1822 69.7036 23.8378 69.5037 23.5472C69.3037 23.2566 69.0204 23.0334 68.691 22.907C67.5165 22.4564 66.5062 21.6602 65.7936 20.6234C65.081 19.5866 64.6997 18.3581 64.7 17.1C64.6995 16.4841 64.4546 15.8935 64.0191 15.458C63.5835 15.0225 62.993 14.7775 62.377 14.777C61.1916 14.7745 60.0375 14.3955 59.0815 13.6945C58.1255 12.9935 57.4169 12.0069 57.058 10.877C56.9772 10.6194 56.8065 10.3994 56.577 10.257C54.351 8.87601 49.222 6.41101 41 6.41101C32.778 6.41101 27.649 8.87601 25.424 10.255C25.1946 10.3974 25.0239 10.6174 24.943 10.875C24.5842 12.0049 23.8756 12.9915 22.9196 13.6925C21.9636 14.3935 20.8095 14.7725 19.624 14.775C19.0076 14.7753 18.4165 15.0203 17.9807 15.4563C17.5449 15.8923 17.3 16.4836 17.3 17.1C17.3007 18.358 16.9198 19.5866 16.2076 20.6235C15.4954 21.6605 14.4854 22.4571 13.311 22.908C12.9817 23.0344 12.6983 23.2576 12.4984 23.5482C12.2985 23.8388 12.1913 24.1832 12.191 24.536V66.823L69.811 66.822Z" fill="#DAEDF7"/>
<path d="M12.192 26.317C12.2113 26.0846 12.3172 25.868 12.4888 25.71C12.6603 25.552 12.8849 25.4642 13.118 25.464H68.882C69.1152 25.4642 69.3398 25.552 69.5113 25.71C69.6828 25.868 69.7887 26.0846 69.808 26.317V24.535C69.8078 24.1822 69.7006 23.8378 69.5007 23.5472C69.3007 23.2566 69.0174 23.0334 68.688 22.907C67.5141 22.4558 66.5045 21.6593 65.7925 20.6226C65.0806 19.5859 64.6996 18.3577 64.7 17.1C64.6995 16.4841 64.4546 15.8935 64.0191 15.458C63.5835 15.0225 62.993 14.7775 62.377 14.777C61.1916 14.7745 60.0375 14.3955 59.0815 13.6945C58.1255 12.9935 57.4169 12.0069 57.058 10.877C56.9771 10.6191 56.806 10.399 56.576 10.257C54.351 8.87601 49.222 6.41101 41 6.41101C32.778 6.41101 27.649 8.87601 25.425 10.255C25.1951 10.397 25.0239 10.6171 24.943 10.875C24.5842 12.0049 23.8756 12.9915 22.9196 13.6925C21.9636 14.3935 20.8095 14.7725 19.624 14.775C19.0076 14.7753 18.4165 15.0203 17.9807 15.4563C17.5449 15.8923 17.3 16.4836 17.3 17.1C17.3006 18.358 16.9196 19.5865 16.2074 20.6234C15.4952 21.6604 14.4853 22.4569 13.311 22.908C12.9817 23.0344 12.6983 23.2576 12.4984 23.5482C12.2985 23.8388 12.1913 24.1832 12.191 24.536L12.192 26.317Z" fill="#DAEDF7"/>
<path d="M69.811 66.822V24.535C69.8108 24.1822 69.7036 23.8378 69.5037 23.5472C69.3037 23.2566 69.0204 23.0334 68.691 22.907C67.5165 22.4564 66.5062 21.6602 65.7936 20.6234C65.081 19.5866 64.6997 18.3581 64.7 17.1C64.6995 16.4841 64.4546 15.8935 64.0191 15.458C63.5835 15.0225 62.993 14.7775 62.377 14.777C61.1916 14.7745 60.0375 14.3955 59.0815 13.6945C58.1255 12.9935 57.4169 12.0069 57.058 10.877C56.9772 10.6194 56.8065 10.3994 56.577 10.257C54.351 8.87601 49.222 6.41101 41 6.41101C32.778 6.41101 27.649 8.87601 25.424 10.255C25.1946 10.3974 25.0239 10.6174 24.943 10.875C24.5842 12.0049 23.8756 12.9915 22.9196 13.6925C21.9636 14.3935 20.8095 14.7725 19.624 14.775C19.0076 14.7753 18.4165 15.0203 17.9807 15.4563C17.5449 15.8923 17.3 16.4836 17.3 17.1C17.3007 18.358 16.9198 19.5866 16.2076 20.6235C15.4954 21.6605 14.4854 22.4571 13.311 22.908C12.9817 23.0344 12.6983 23.2576 12.4984 23.5482C12.2985 23.8388 12.1913 24.1832 12.191 24.536V66.823L69.811 66.822Z" stroke="#45413C" stroke-linecap="round" stroke-linejoin="round"/>
<path d="M67.488 66.822V25.929C67.4878 25.6409 67.4119 25.358 67.2678 25.1086C67.1236 24.8591 66.9165 24.652 66.667 24.508C65.5282 23.8465 64.5561 22.933 63.8253 21.8374C63.0945 20.7419 62.6243 19.4935 62.451 18.188C62.4126 17.8942 62.2786 17.6213 62.0697 17.4113C61.8608 17.2013 61.5885 17.0659 61.295 17.026C59.8907 16.8361 58.5639 16.2702 57.4549 15.3881C56.3459 14.506 55.496 13.3405 54.995 12.015C52.874 10.778 48.268 8.73499 41.002 8.73499C33.736 8.73499 29.13 10.778 27.009 12.015C26.508 13.3405 25.6581 14.506 24.5491 15.3881C23.4401 16.2702 22.1132 16.8361 20.709 17.026C20.4155 17.0659 20.1432 17.2013 19.9343 17.4113C19.7253 17.6213 19.5914 17.8942 19.553 18.188C19.3797 19.4935 18.9095 20.7419 18.1787 21.8374C17.4479 22.933 16.4758 23.8465 15.337 24.508C15.0875 24.652 14.8803 24.8591 14.7362 25.1086C14.5921 25.358 14.5162 25.6409 14.516 25.929V66.822H67.488Z" fill="#DAEDF7"/>
<path d="M16.8361 39.405C16.8361 45.8137 19.3819 51.9599 23.9135 56.4915C28.4452 61.0232 34.5914 63.569 41.0001 63.569C47.4088 63.569 53.555 61.0232 58.0866 56.4915C62.6182 51.9599 65.1641 45.8137 65.1641 39.405C65.1641 32.9963 62.6182 26.8501 58.0866 22.3185C53.555 17.7868 47.4088 15.241 41.0001 15.241C34.5914 15.241 28.4452 17.7868 23.9135 22.3185C19.3819 26.8501 16.8361 32.9963 16.8361 39.405Z" fill="#ADC4D9"/>
<path d="M67.484 25.929C67.4838 25.6409 67.4078 25.358 67.2637 25.1086C67.1196 24.8591 66.9124 24.652 66.663 24.508C65.5242 23.8465 64.5521 22.933 63.8213 21.8374C63.0904 20.7419 62.6203 19.4935 62.447 18.188C62.4086 17.8942 62.2746 17.6213 62.0657 17.4113C61.8567 17.2013 61.5845 17.0659 61.291 17.026C59.8867 16.8361 58.5599 16.2702 57.4509 15.3881C56.3419 14.506 55.4919 13.3405 54.991 12.015C52.87 10.778 48.264 8.73499 40.998 8.73499C33.732 8.73499 29.126 10.778 27.005 12.015C26.504 13.3405 25.6541 14.506 24.545 15.3881C23.436 16.2702 22.1092 16.8361 20.705 17.026C20.4114 17.0659 20.1392 17.2013 19.9302 17.4113C19.7213 17.6213 19.5873 17.8942 19.549 18.188C19.3756 19.4935 18.9055 20.7419 18.1747 21.8374C17.4438 22.933 16.4717 23.8465 15.333 24.508C15.0835 24.652 14.8763 24.8591 14.7322 25.1086C14.5881 25.358 14.5121 25.6409 14.512 25.929V27.77C14.8381 27.7702 15.1586 27.6843 15.441 27.521L16.262 27.047C18.51 25.7398 20.1936 23.6455 20.987 21.169C21.1205 20.7526 21.3499 20.3734 21.6568 20.062C21.9638 19.7505 22.3396 19.5155 22.754 19.376C25.0164 18.6128 26.9192 17.0443 28.1 14.969C28.3852 14.4645 28.8213 14.062 29.347 13.818C33.0183 12.2149 36.995 11.4318 41 11.523C45.004 11.4339 48.9793 12.2188 52.649 13.823C53.175 14.0655 53.6123 14.4661 53.9 14.969C55.0807 17.0443 56.9835 18.6128 59.246 19.376C59.6602 19.5155 60.0359 19.7504 60.3428 20.0616C60.6497 20.3729 60.8793 20.7518 61.013 21.168C61.8067 23.6445 63.4901 25.7391 65.738 27.047L66.559 27.521C66.8406 27.6843 67.1604 27.7702 67.486 27.77L67.484 25.929Z" fill="white"/>
<path d="M67.488 66.822V25.929C67.4878 25.6409 67.4119 25.358 67.2678 25.1086C67.1236 24.8591 66.9165 24.652 66.667 24.508C65.5282 23.8465 64.5561 22.933 63.8253 21.8374C63.0945 20.7419 62.6243 19.4935 62.451 18.188C62.4126 17.8942 62.2786 17.6213 62.0697 17.4113C61.8608 17.2013 61.5885 17.0659 61.295 17.026C59.8907 16.8361 58.5639 16.2702 57.4549 15.3881C56.3459 14.506 55.496 13.3405 54.995 12.015C52.874 10.778 48.268 8.73499 41.002 8.73499C33.736 8.73499 29.13 10.778 27.009 12.015C26.508 13.3405 25.6581 14.506 24.5491 15.3881C23.4401 16.2702 22.1132 16.8361 20.709 17.026C20.4155 17.0659 20.1432 17.2013 19.9343 17.4113C19.7253 17.6213 19.5914 17.8942 19.553 18.188C19.3797 19.4935 18.9095 20.7419 18.1787 21.8374C17.4479 22.933 16.4758 23.8465 15.337 24.508C15.0875 24.652 14.8803 24.8591 14.7362 25.1086C14.5921 25.358 14.5162 25.6409 14.516 25.929V66.822H67.488Z" stroke="#45413C" stroke-linecap="round" stroke-linejoin="round"/>
<path d="M41 61.71C39.4398 61.7107 37.8833 61.5579 36.353 61.254V66.822H45.647V61.254C44.1167 61.5579 42.5602 61.7107 41 61.71Z" fill="#ADC4D9"/>
<path d="M36.353 61.254V63.12C39.4221 63.7187 42.5779 63.7187 45.647 63.12V61.254C42.5789 61.862 39.4212 61.862 36.353 61.254Z" fill="#ADC4D9"/>
<path d="M41 61.71C39.4398 61.7107 37.8833 61.5579 36.353 61.254V66.822H45.647V61.254C44.1167 61.5579 42.5602 61.7107 41 61.71Z" stroke="#45413C" stroke-linecap="round" stroke-linejoin="round"/>
<path d="M17.301 38.011C17.301 44.2964 19.7979 50.3243 24.2423 54.7687C28.6867 59.2132 34.7147 61.71 41 61.71C47.2854 61.71 53.3133 59.2132 57.7577 54.7687C62.2022 50.3243 64.699 44.2964 64.699 38.011C64.699 31.7256 62.2022 25.6977 57.7577 21.2533C53.3133 16.8089 47.2854 14.312 41 14.312C34.7147 14.312 28.6867 16.8089 24.2423 21.2533C19.7979 25.6977 17.301 31.7256 17.301 38.011Z" fill="#FFFACF"/>
<path d="M41 16.635C47.0843 16.6351 52.9356 18.9753 57.3421 23.1708C61.7485 27.3664 64.3726 33.0959 64.6709 39.173C64.6899 38.788 64.6989 38.4 64.6989 38.011C64.6989 34.8987 64.0859 31.8168 62.8949 28.9414C61.7039 26.066 59.9581 23.4533 57.7574 21.2526C55.5566 19.0518 52.944 17.3061 50.0685 16.1151C47.1931 14.924 44.1113 14.311 40.999 14.311C37.8866 14.311 34.8048 14.924 31.9294 16.1151C29.0539 17.3061 26.4413 19.0518 24.2405 21.2526C22.0398 23.4533 20.294 26.066 19.103 28.9414C17.912 31.8168 17.299 34.8987 17.299 38.011C17.299 38.4 17.308 38.788 17.327 39.173C17.6253 33.0956 20.2497 27.3658 24.6566 23.1701C29.0634 18.9745 34.9152 16.6346 41 16.635Z" fill="#FFFEF2"/>
<path d="M17.301 38.011C17.301 44.2964 19.7979 50.3243 24.2423 54.7687C28.6867 59.2132 34.7147 61.71 41 61.71C47.2854 61.71 53.3133 59.2132 57.7577 54.7687C62.2022 50.3243 64.699 44.2964 64.699 38.011C64.699 31.7256 62.2022 25.6977 57.7577 21.2533C53.3133 16.8089 47.2854 14.312 41 14.312C34.7147 14.312 28.6867 16.8089 24.2423 21.2533C19.7979 25.6977 17.301 31.7256 17.301 38.011Z" stroke="#45413C" stroke-linecap="round" stroke-linejoin="round"/>
<path d="M19.1591 38.011C19.1591 43.8036 21.4602 49.359 25.5561 53.4549C29.6521 57.5509 35.2075 59.852 41.0001 59.852C46.7927 59.852 52.348 57.5509 56.444 53.4549C60.54 49.359 62.8411 43.8036 62.8411 38.011C62.8411 32.2184 60.54 26.6631 56.444 22.5671C52.348 18.4711 46.7927 16.17 41.0001 16.17C35.2075 16.17 29.6521 18.4711 25.5561 22.5671C21.4602 26.6631 19.1591 32.2184 19.1591 38.011Z" fill="#FFF5E3"/>
<path d="M41 18.958C46.5518 18.9574 51.8955 21.0709 55.9449 24.8689C59.9943 28.667 62.4454 33.8645 62.8 39.405C62.8287 38.9443 62.8433 38.4797 62.844 38.011C62.844 32.2184 60.5429 26.6631 56.4469 22.5671C52.3509 18.4711 46.7956 16.17 41.003 16.17C35.2104 16.17 29.6551 18.4711 25.5591 22.5671C21.4631 26.6631 19.162 32.2184 19.162 38.011C19.162 38.4777 19.1767 38.9423 19.206 39.405C19.5605 33.8656 22.0108 28.6689 26.0589 24.871C30.107 21.0731 35.4492 18.9589 41 18.958Z" fill="#F7E5C6"/>
<path d="M19.1591 38.011C19.1591 43.8036 21.4602 49.359 25.5561 53.4549C29.6521 57.5509 35.2075 59.852 41.0001 59.852C46.7927 59.852 52.348 57.5509 56.444 53.4549C60.54 49.359 62.8411 43.8036 62.8411 38.011C62.8411 32.2184 60.54 26.6631 56.444 22.5671C52.348 18.4711 46.7927 16.17 41.0001 16.17C35.2075 16.17 29.6521 18.4711 25.5561 22.5671C21.4602 26.6631 19.1591 32.2184 19.1591 38.011Z" stroke="#45413C" stroke-linecap="round" stroke-linejoin="round"/>
<path d="M75.387 69.981C75.3876 69.7416 75.3037 69.5096 75.15 69.326L73.659 67.536C73.4728 67.3126 73.2398 67.1329 72.9764 67.0095C72.7131 66.8861 72.4258 66.8221 72.135 66.822H9.86498C9.57416 66.8221 9.28692 66.8861 9.02357 67.0095C8.76022 67.1329 8.5272 67.3126 8.34098 67.536L6.84998 69.326C6.72628 69.4753 6.6476 69.6568 6.62315 69.8491C6.5987 70.0415 6.62947 70.2368 6.71189 70.4124C6.79431 70.5879 6.92496 70.7363 7.08859 70.8404C7.25222 70.9444 7.44207 70.9998 7.63598 71H74.364C74.6346 71 74.8942 70.8928 75.0859 70.7018C75.2777 70.5108 75.3859 70.2516 75.387 69.981Z" fill="#DAEDF7"/>
<path d="M74.613 68.681L73.659 67.536C73.4727 67.3127 73.2397 67.133 72.9763 67.0096C72.713 66.8862 72.4258 66.8222 72.135 66.822H9.86496C9.57416 66.8222 9.28693 66.8862 9.02359 67.0096C8.76025 67.133 8.52722 67.3127 8.34096 67.536L7.38696 68.681H74.613Z" fill="#DAEDF7"/>
<path d="M75.387 69.981C75.3876 69.7416 75.3037 69.5096 75.15 69.326L73.659 67.536C73.4728 67.3126 73.2398 67.1329 72.9764 67.0095C72.7131 66.8861 72.4258 66.8221 72.135 66.822H9.86498C9.57416 66.8221 9.28692 66.8861 9.02357 67.0095C8.76022 67.1329 8.5272 67.3126 8.34098 67.536L6.84998 69.326C6.72628 69.4753 6.6476 69.6568 6.62315 69.8491C6.5987 70.0415 6.62947 70.2368 6.71189 70.4124C6.79431 70.5879 6.92496 70.7363 7.08859 70.8404C7.25222 70.9444 7.44207 70.9998 7.63598 71H74.364C74.6346 71 74.8942 70.8928 75.0859 70.7018C75.2777 70.5108 75.3859 70.2516 75.387 69.981Z" stroke="#45413C" stroke-linecap="round" stroke-linejoin="round"/>
<path d="M39.141 38.011C39.141 38.504 39.3369 38.9769 39.6855 39.3255C40.0341 39.6741 40.507 39.87 41 39.87C41.493 39.87 41.9659 39.6741 42.3145 39.3255C42.6631 38.9769 42.859 38.504 42.859 38.011C42.859 37.518 42.6631 37.0451 42.3145 36.6965C41.9659 36.3479 41.493 36.152 41 36.152C40.507 36.152 40.0341 36.3479 39.6855 36.6965C39.3369 37.0451 39.141 37.518 39.141 38.011Z" fill="#87898C"/>
<path d="M41 37.778C41.3487 37.7781 41.6904 37.8762 41.986 38.0611C42.2817 38.2461 42.5194 38.5104 42.672 38.824C42.8097 38.5406 42.8732 38.2268 42.8563 37.9122C42.8395 37.5975 42.743 37.2923 42.5758 37.0252C42.4087 36.7581 42.1763 36.5378 41.9007 36.3852C41.625 36.2325 41.3151 36.1524 41 36.1524C40.6849 36.1524 40.375 36.2325 40.0993 36.3852C39.8236 36.5378 39.5913 36.7581 39.4242 37.0252C39.257 37.2923 39.1605 37.5975 39.1436 37.9122C39.1268 38.2268 39.1903 38.5406 39.328 38.824C39.4806 38.5104 39.7183 38.2461 40.0139 38.0611C40.3096 37.8762 40.6513 37.7781 41 37.778Z" fill="#87898C"/>
<path d="M39.141 38.011C39.141 38.504 39.3369 38.9769 39.6855 39.3255C40.0341 39.6741 40.507 39.87 41 39.87C41.493 39.87 41.9659 39.6741 42.3145 39.3255C42.6631 38.9769 42.859 38.504 42.859 38.011C42.859 37.518 42.6631 37.0451 42.3145 36.6965C41.9659 36.3479 41.493 36.152 41 36.152C40.507 36.152 40.0341 36.3479 39.6855 36.6965C39.3369 37.0451 39.141 37.518 39.141 38.011Z" stroke="#45413C" stroke-linecap="round" stroke-linejoin="round"/>
<path d="M41 61.71V66.822" stroke="#45413C" stroke-linecap="round" stroke-linejoin="round"/>
<path d="M38.677 61.598V66.822" stroke="#45413C" stroke-linecap="round" stroke-linejoin="round"/>
<path d="M43.323 61.598V66.822" stroke="#45413C" stroke-linecap="round" stroke-linejoin="round"/>
<path d="M41 14.311C42.5602 14.3103 44.1167 14.4631 45.647 14.767V12.246C45.6472 12.022 45.5663 11.8056 45.4192 11.6366C45.2722 11.4677 45.0689 11.3577 44.847 11.327C42.2949 10.9683 39.7052 10.9683 37.153 11.327C36.9313 11.3581 36.7283 11.4682 36.5813 11.637C36.4343 11.8059 36.3533 12.0221 36.353 12.246V14.767C37.8833 14.4631 39.4398 14.3103 41 14.311Z" fill="#ADC4D9" stroke="#45413C" stroke-linecap="round" stroke-linejoin="round"/>
<path d="M18.166 51.442C18.1141 51.3544 18.0349 51.2863 17.9405 51.2481C17.8461 51.2099 17.7418 51.2037 17.6436 51.2305C17.5454 51.2573 17.4587 51.3156 17.3968 51.3964C17.3349 51.4773 17.3013 51.5762 17.301 51.678V63.1C17.3009 63.2221 17.3248 63.343 17.3715 63.4558C17.4181 63.5686 17.4865 63.6712 17.5728 63.7575C17.659 63.8439 17.7615 63.9124 17.8743 63.9592C17.9871 64.0059 18.1079 64.03 18.23 64.03H32.422C32.5325 64.0301 32.6393 63.991 32.7235 63.9195C32.8077 63.848 32.8637 63.7489 32.8815 63.64C32.8993 63.531 32.8777 63.4192 32.8207 63.3247C32.7636 63.2302 32.6747 63.159 32.57 63.124C26.521 61.0872 21.4078 56.9402 18.166 51.442Z" fill="#DAEDF7"/>
<path d="M32.5701 63.128C26.5219 61.0893 21.4101 56.9409 18.1701 51.442C18.1181 51.3544 18.0389 51.2863 17.9445 51.2481C17.8502 51.2099 17.7459 51.2037 17.6477 51.2305C17.5494 51.2573 17.4627 51.3156 17.4008 51.3964C17.3389 51.4773 17.3053 51.5762 17.3051 51.678V54.4C20.1748 58.5428 24.0769 61.8641 28.6251 64.035H32.4251C32.5355 64.0351 32.6423 63.9959 32.7265 63.9245C32.8107 63.853 32.8667 63.7539 32.8845 63.645C32.9023 63.536 32.8808 63.4242 32.8237 63.3297C32.7666 63.2352 32.6778 63.164 32.5731 63.129L32.5701 63.128Z" fill="#ADC4D9"/>
<path d="M18.166 51.442C18.1141 51.3544 18.0349 51.2863 17.9405 51.2481C17.8461 51.2099 17.7418 51.2037 17.6436 51.2305C17.5454 51.2573 17.4587 51.3156 17.3968 51.3964C17.3349 51.4773 17.3013 51.5762 17.301 51.678V63.1C17.3009 63.2221 17.3248 63.343 17.3715 63.4558C17.4181 63.5686 17.4865 63.6712 17.5728 63.7575C17.659 63.8439 17.7615 63.9124 17.8743 63.9592C17.9871 64.0059 18.1079 64.03 18.23 64.03H32.422C32.5325 64.0301 32.6393 63.991 32.7235 63.9195C32.8077 63.848 32.8637 63.7489 32.8815 63.64C32.8993 63.531 32.8777 63.4192 32.8207 63.3247C32.7636 63.2302 32.6747 63.159 32.57 63.124C26.521 61.0872 21.4078 56.9402 18.166 51.442Z" stroke="#45413C" stroke-linecap="round" stroke-linejoin="round"/>
<path d="M20.421 58.174C20.3565 58.1071 20.2735 58.0609 20.1826 58.0416C20.0917 58.0223 19.9971 58.0307 19.911 58.0657C19.8249 58.1007 19.7512 58.1606 19.6995 58.2379C19.6478 58.3151 19.6205 58.4061 19.621 58.499V61.246C19.6212 61.3692 19.6704 61.4872 19.7575 61.5742C19.8447 61.6612 19.9628 61.71 20.086 61.71H23.186C23.2832 61.7104 23.3781 61.6802 23.4572 61.6237C23.5363 61.5672 23.5957 61.4873 23.627 61.3953C23.6583 61.3032 23.6599 61.2037 23.6315 61.1107C23.6031 61.0177 23.5463 60.936 23.469 60.877C22.3908 60.0486 21.3723 59.1454 20.421 58.174Z" fill="#DAEDF7" stroke="#45413C" stroke-linecap="round" stroke-linejoin="round"/>
<path d="M63.834 51.442C63.8859 51.3544 63.9651 51.2863 64.0595 51.2481C64.1538 51.2099 64.2581 51.2037 64.3564 51.2305C64.4546 51.2573 64.5413 51.3156 64.6032 51.3964C64.6651 51.4773 64.6987 51.5762 64.699 51.678V63.1C64.6991 63.2221 64.6752 63.343 64.6285 63.4558C64.5819 63.5686 64.5135 63.6712 64.4272 63.7575C64.3409 63.8439 64.2385 63.9124 64.1257 63.9592C64.0129 64.0059 63.892 64.03 63.77 64.03H49.578C49.4675 64.0301 49.3607 63.991 49.2765 63.9195C49.1923 63.848 49.1363 63.7489 49.1185 63.64C49.1007 63.531 49.1223 63.4192 49.1793 63.3247C49.2364 63.2302 49.3252 63.159 49.43 63.124C55.479 61.0872 60.5922 56.9402 63.834 51.442Z" fill="#DAEDF7"/>
<path d="M49.43 63.128C55.4782 61.0893 60.59 56.9409 63.83 51.442C63.882 51.3544 63.9612 51.2863 64.0555 51.2481C64.1499 51.2099 64.2542 51.2037 64.3524 51.2305C64.4507 51.2573 64.5374 51.3156 64.5993 51.3964C64.6611 51.4773 64.6948 51.5762 64.695 51.678V54.4C61.8253 58.5428 57.9232 61.8641 53.375 64.035H49.575C49.4646 64.0351 49.3578 63.9959 49.2736 63.9245C49.1894 63.853 49.1334 63.7539 49.1156 63.645C49.0978 63.536 49.1193 63.4242 49.1764 63.3297C49.2335 63.2352 49.3223 63.164 49.427 63.129L49.43 63.128Z" fill="#ADC4D9"/>
<path d="M63.834 51.442C63.8859 51.3544 63.9651 51.2863 64.0595 51.2481C64.1538 51.2099 64.2581 51.2037 64.3564 51.2305C64.4546 51.2573 64.5413 51.3156 64.6032 51.3964C64.6651 51.4773 64.6987 51.5762 64.699 51.678V63.1C64.6991 63.2221 64.6752 63.343 64.6285 63.4558C64.5819 63.5686 64.5135 63.6712 64.4272 63.7575C64.3409 63.8439 64.2385 63.9124 64.1257 63.9592C64.0129 64.0059 63.892 64.03 63.77 64.03H49.578C49.4675 64.0301 49.3607 63.991 49.2765 63.9195C49.1923 63.848 49.1363 63.7489 49.1185 63.64C49.1007 63.531 49.1223 63.4192 49.1793 63.3247C49.2364 63.2302 49.3252 63.159 49.43 63.124C55.479 61.0872 60.5922 56.9402 63.834 51.442Z" stroke="#45413C" stroke-linecap="round" stroke-linejoin="round"/>
<path d="M61.579 58.174C61.6434 58.1071 61.7265 58.0609 61.8174 58.0416C61.9083 58.0223 62.0029 58.0307 62.089 58.0657C62.1751 58.1007 62.2487 58.1606 62.3004 58.2379C62.3521 58.3151 62.3795 58.4061 62.379 58.499V61.246C62.3787 61.3692 62.3296 61.4872 62.2424 61.5742C62.1552 61.6612 62.0371 61.71 61.914 61.71H58.814C58.7167 61.7104 58.6219 61.6802 58.5427 61.6237C58.4636 61.5672 58.4042 61.4873 58.3729 61.3953C58.3417 61.3032 58.3401 61.2037 58.3684 61.1107C58.3968 61.0177 58.4536 60.936 58.531 60.877C59.6091 60.0486 60.6276 59.1454 61.579 58.174Z" fill="#DAEDF7" stroke="#45413C" stroke-linecap="round" stroke-linejoin="round"/>
<path d="M42.76 38.61L44.959 39.359" stroke="#45413C" stroke-linecap="round" stroke-linejoin="round"/>
<path d="M56.119 42.63C56.2446 42.6727 56.3481 42.7635 56.4067 42.8825C56.4653 43.0015 56.4742 43.1389 56.4315 43.2645C56.3888 43.3901 56.298 43.4935 56.179 43.5522C56.06 43.6108 55.9226 43.6197 55.797 43.577L44.96 40.794C44.9026 40.7792 44.8488 40.7527 44.802 40.7162C44.7552 40.6798 44.7164 40.6341 44.688 40.582C44.6599 40.5299 44.6428 40.4725 44.638 40.4134C44.6332 40.3544 44.6407 40.295 44.66 40.239L45.26 38.479C45.2787 38.4227 45.309 38.371 45.3489 38.3273C45.3889 38.2835 45.4377 38.2487 45.492 38.225C45.5464 38.2012 45.6051 38.189 45.6645 38.189C45.7239 38.189 45.7826 38.2012 45.837 38.225L56.119 42.63Z" fill="#87898C" stroke="#45413C" stroke-linecap="round" stroke-linejoin="round"/>
<path d="M39.229 38.577L22.517 43.916" stroke="#45413C" stroke-linecap="round" stroke-linejoin="round"/>
<path d="M42.394 22.676C42.394 23.0457 42.2471 23.4003 41.9857 23.6617C41.7242 23.9231 41.3697 24.07 41 24.07C40.6302 24.07 40.2757 23.9231 40.0143 23.6617C39.7528 23.4003 39.606 23.0457 39.606 22.676V19.888C39.606 19.7049 39.642 19.5237 39.7121 19.3545C39.7821 19.1854 39.8848 19.0317 40.0143 18.9023C40.1437 18.7728 40.2974 18.6702 40.4665 18.6001C40.6356 18.53 40.8169 18.494 41 18.494C41.183 18.494 41.3643 18.53 41.5334 18.6001C41.7025 18.6702 41.8562 18.7728 41.9857 18.9023C42.1151 19.0317 42.2178 19.1854 42.2878 19.3545C42.3579 19.5237 42.394 19.7049 42.394 19.888V22.676Z" fill="#87898C" stroke="#45413C" stroke-linecap="round" stroke-linejoin="round"/>
<path d="M25.665 36.617C26.0347 36.617 26.3893 36.7639 26.6507 37.0253C26.9122 37.2867 27.059 37.6413 27.059 38.011C27.059 38.3807 26.9122 38.7353 26.6507 38.9967C26.3893 39.2581 26.0347 39.405 25.665 39.405H22.877C22.694 39.405 22.5127 39.3689 22.3436 39.2989C22.1744 39.2288 22.0208 39.1262 21.8913 38.9967C21.7619 38.8673 21.6592 38.7136 21.5891 38.5445C21.5191 38.3753 21.483 38.1941 21.483 38.011C21.483 37.8279 21.5191 37.6467 21.5891 37.4775C21.6592 37.3084 21.7619 37.1547 21.8913 37.0253C22.0208 36.8959 22.1744 36.7932 22.3436 36.7231C22.5127 36.6531 22.694 36.617 22.877 36.617H25.665Z" fill="#87898C" stroke="#45413C" stroke-linecap="round" stroke-linejoin="round"/>
<path d="M39.606 53.346C39.606 52.9763 39.7528 52.6217 40.0143 52.3603C40.2757 52.0989 40.6302 51.952 41 51.952C41.3697 51.952 41.7242 52.0989 41.9857 52.3603C42.2471 52.6217 42.394 52.9763 42.394 53.346V56.134C42.394 56.5037 42.2471 56.8583 41.9857 57.1197C41.7242 57.3811 41.3697 57.528 41 57.528C40.6302 57.528 40.2757 57.3811 40.0143 57.1197C39.7528 56.8583 39.606 56.5037 39.606 56.134V53.346Z" fill="#87898C" stroke="#45413C" stroke-linecap="round" stroke-linejoin="round"/>
<path d="M56.335 39.405C55.9653 39.405 55.6108 39.2581 55.3493 38.9967C55.0879 38.7353 54.941 38.3807 54.941 38.011C54.941 37.6413 55.0879 37.2867 55.3493 37.0253C55.6108 36.7639 55.9653 36.617 56.335 36.617H59.123C59.4928 36.617 59.8473 36.7639 60.1087 37.0253C60.3702 37.2867 60.517 37.6413 60.517 38.011C60.517 38.3807 60.3702 38.7353 60.1087 38.9967C59.8473 39.2581 59.4928 39.405 59.123 39.405H56.335Z" fill="#87898C" stroke="#45413C" stroke-linecap="round" stroke-linejoin="round"/>
<path d="M55.953 30.451C55.74 30.5664 55.4904 30.5941 55.2573 30.5282C55.0242 30.4624 54.8259 30.3082 54.7048 30.0984C54.5836 29.8887 54.5491 29.6399 54.6085 29.4051C54.6679 29.1702 54.8167 28.9679 55.023 28.841L56.633 27.912C56.7387 27.851 56.8554 27.8114 56.9764 27.7955C57.0974 27.7796 57.2204 27.7877 57.3383 27.8193C57.4562 27.8509 57.5667 27.9055 57.6635 27.9798C57.7603 28.0541 57.8415 28.1468 57.9025 28.2525C57.9635 28.3582 58.0031 28.4749 58.019 28.5959C58.0349 28.7169 58.0268 28.8399 57.9952 28.9578C57.9636 29.0757 57.909 29.1862 57.8347 29.283C57.7604 29.3798 57.6677 29.461 57.562 29.522L55.953 30.451Z" fill="#87898C" stroke="#45413C" stroke-linecap="round" stroke-linejoin="round"/>
<path d="M50.169 23.988C50.108 24.0936 50.0267 24.1862 49.9298 24.2605C49.833 24.3347 49.7225 24.3891 49.6046 24.4207C49.4867 24.4522 49.3638 24.4602 49.2428 24.4442C49.1218 24.4282 49.0052 24.3886 48.8995 24.3275C48.7939 24.2664 48.7013 24.1852 48.627 24.0883C48.5528 23.9915 48.4984 23.8809 48.4668 23.7631C48.4353 23.6452 48.4273 23.5222 48.4433 23.4013C48.4593 23.2803 48.499 23.1636 48.56 23.058L49.489 21.449C49.55 21.3433 49.6312 21.2506 49.7281 21.1763C49.8249 21.102 49.9354 21.0474 50.0533 21.0158C50.1711 20.9842 50.2941 20.9761 50.4151 20.992C50.5361 21.0079 50.6528 21.0475 50.7585 21.1085C50.8642 21.1695 50.9569 21.2507 51.0312 21.3475C51.1055 21.4443 51.1601 21.5548 51.1917 21.6727C51.2233 21.7906 51.2314 21.9136 51.2155 22.0346C51.1996 22.1556 51.16 22.2723 51.099 22.378L50.169 23.988Z" fill="#87898C" stroke="#45413C" stroke-linecap="round" stroke-linejoin="round"/>
<path d="M26.047 30.451C26.1529 30.5161 26.2708 30.5593 26.3936 30.5781C26.5164 30.5969 26.6418 30.5908 26.7623 30.5603C26.8828 30.5298 26.9959 30.4755 27.095 30.4006C27.1942 30.3256 27.2773 30.2315 27.3394 30.1239C27.4016 30.0163 27.4415 29.8973 27.457 29.774C27.4724 29.6507 27.4629 29.5255 27.4291 29.406C27.3953 29.2864 27.3379 29.1747 27.2603 29.0777C27.1826 28.9807 27.0863 28.9002 26.977 28.841L25.367 27.912C25.1535 27.7888 24.8999 27.7555 24.6618 27.8193C24.4237 27.8832 24.2207 28.039 24.0975 28.2525C23.9744 28.466 23.941 28.7197 24.0049 28.9578C24.0687 29.1958 24.2245 29.3988 24.438 29.522L26.047 30.451Z" fill="#87898C" stroke="#45413C" stroke-linecap="round" stroke-linejoin="round"/>
<path d="M31.831 23.988C31.9543 24.2014 32.1574 24.357 32.3955 24.4207C32.6335 24.4843 32.8871 24.4508 33.1005 24.3275C33.3139 24.2042 33.4695 24.0011 33.5332 23.7631C33.5969 23.525 33.5633 23.2714 33.44 23.058L32.511 21.449C32.45 21.3433 32.3688 21.2506 32.272 21.1763C32.1752 21.102 32.0647 21.0474 31.9468 21.0158C31.7087 20.952 31.455 20.9853 31.2415 21.1085C31.028 21.2317 30.8722 21.4347 30.8083 21.6727C30.7445 21.9108 30.7778 22.1645 30.901 22.378L31.831 23.988Z" fill="#87898C" stroke="#45413C" stroke-linecap="round" stroke-linejoin="round"/>
<path d="M55.953 45.57C55.74 45.4546 55.4904 45.4269 55.2573 45.4928C55.0242 45.5586 54.8259 45.7128 54.7048 45.9226C54.5836 46.1323 54.5491 46.3811 54.6085 46.6159C54.6679 46.8508 54.8167 47.0531 55.023 47.18L56.633 48.11C56.7387 48.171 56.8554 48.2106 56.9764 48.2265C57.0974 48.2424 57.2204 48.2343 57.3383 48.2027C57.4562 48.1711 57.5667 48.1165 57.6635 48.0422C57.7603 47.9679 57.8415 47.8752 57.9025 47.7695C57.9635 47.6638 58.0031 47.5471 58.019 47.4261C58.0349 47.3051 58.0268 47.1821 57.9952 47.0642C57.9636 46.9464 57.909 46.8359 57.8347 46.739C57.7604 46.6422 57.6677 46.561 57.562 46.5L55.953 45.57Z" fill="#87898C" stroke="#45413C" stroke-linecap="round" stroke-linejoin="round"/>
<path d="M50.1689 52.034C50.0446 51.8228 49.842 51.6693 49.605 51.6069C49.368 51.5445 49.116 51.5782 48.9038 51.7007C48.6916 51.8232 48.5364 52.0246 48.472 52.2611C48.4076 52.4975 48.4392 52.7498 48.5599 52.963L49.4889 54.573C49.6121 54.7865 49.8151 54.9423 50.0532 55.0062C50.2913 55.07 50.5449 55.0367 50.7584 54.9135C50.9719 54.7903 51.1278 54.5873 51.1916 54.3493C51.2555 54.1112 51.2221 53.8575 51.0989 53.644L50.1689 52.034Z" fill="#87898C" stroke="#45413C" stroke-linecap="round" stroke-linejoin="round"/>
<path d="M26.047 45.57C26.26 45.4546 26.5097 45.4269 26.7428 45.4928C26.9759 45.5586 27.1741 45.7128 27.2953 45.9226C27.4164 46.1323 27.451 46.3811 27.3915 46.6159C27.3321 46.8508 27.1834 47.0531 26.977 47.18L25.367 48.11C25.1535 48.2332 24.8999 48.2665 24.6618 48.2027C24.4237 48.1388 24.2207 47.983 24.0975 47.7695C23.9744 47.556 23.941 47.3023 24.0049 47.0642C24.0687 46.8262 24.2245 46.6232 24.438 46.5L26.047 45.57Z" fill="#87898C" stroke="#45413C" stroke-linecap="round" stroke-linejoin="round"/>
<path d="M31.831 52.034C31.9553 51.8228 32.158 51.6693 32.395 51.6069C32.6319 51.5445 32.8839 51.5782 33.0961 51.7007C33.3083 51.8232 33.4636 52.0246 33.528 52.2611C33.5924 52.4975 33.5608 52.7498 33.44 52.963L32.511 54.573C32.3878 54.7865 32.1849 54.9423 31.9468 55.0062C31.7087 55.07 31.455 55.0367 31.2415 54.9135C31.028 54.7903 30.8722 54.5873 30.8083 54.3493C30.7445 54.1112 30.7778 53.8575 30.901 53.644L31.831 52.034Z" fill="#87898C" stroke="#45413C" stroke-linecap="round" stroke-linejoin="round"/>
<path d="M41 14.311V11.059" stroke="#45413C" stroke-linecap="round" stroke-linejoin="round"/>
<path d="M38.677 14.424V11.156" stroke="#45413C" stroke-linecap="round" stroke-linejoin="round"/>
<path d="M43.323 14.424V11.156" stroke="#45413C" stroke-linecap="round" stroke-linejoin="round"/>
</svg>
