<svg viewBox="0 0 100 100" xmlns="http://www.w3.org/2000/svg" id="Metallic-Vintage-Clock--Streamline-Ux" height="100" width="100"><desc>Metallic Vintage Clock Streamline Illustration: https://streamlinehq.com</desc><path d="M10 50a40 40 0 1 0 80 0 40 40 0 1 0 -80 0Z" fill="#daedf7" stroke="#daedf7" stroke-width="1"></path><path d="M16.4 80.267a33.6 2.625 0 1 0 67.2 0 33.6 2.625 0 1 0 -67.2 0Z" fill="#45413c" opacity=".15" stroke-width="1"></path><path d="M79.223 29.934a3.9 3.9 0 0 1 -3.2 -3.835 4.646 4.646 0 0 0 -4.647 -4.646 3.255 3.255 0 0 1 -3.189 -2.607 1.857 1.857 0 0 0 -0.778 -1.171c-1.923 -1.3 -7.726 -4.587 -17.409 -4.587s-15.486 3.283 -17.409 4.587a1.857 1.857 0 0 0 -0.778 1.171 3.255 3.255 0 0 1 -3.189 2.607 4.646 4.646 0 0 0 -4.647 4.647 3.9 3.9 0 0 1 -3.2 3.835 2.329 2.329 0 0 0 -1.912 2.29v43.6h62.27v-43.6a2.329 2.329 0 0 0 -1.912 -2.291Z" fill="#adc4d9" stroke-width="1"></path><path d="M79.223 29.934a3.9 3.9 0 0 1 -3.2 -3.835 4.646 4.646 0 0 0 -4.647 -4.646 3.255 3.255 0 0 1 -3.189 -2.607 1.857 1.857 0 0 0 -0.778 -1.171c-1.923 -1.3 -7.726 -4.587 -17.409 -4.587s-15.486 3.283 -17.409 4.587a1.857 1.857 0 0 0 -0.778 1.171 3.255 3.255 0 0 1 -3.189 2.607 4.646 4.646 0 0 0 -4.647 4.647 3.9 3.9 0 0 1 -3.2 3.835 2.329 2.329 0 0 0 -1.912 2.29V34a0.93 0.93 0 0 1 0.93 -0.929h60.41a0.93 0.93 0 0 1 0.93 0.929v-1.776a2.329 2.329 0 0 0 -1.912 -2.29Z" fill="#daedf7" stroke-width="1"></path><path d="M79.223 29.934a3.9 3.9 0 0 1 -3.2 -3.835 4.646 4.646 0 0 0 -4.647 -4.646 3.255 3.255 0 0 1 -3.189 -2.607 1.857 1.857 0 0 0 -0.778 -1.171c-1.923 -1.3 -7.726 -4.587 -17.409 -4.587s-15.486 3.283 -17.409 4.587a1.857 1.857 0 0 0 -0.778 1.171 3.255 3.255 0 0 1 -3.189 2.607 4.646 4.646 0 0 0 -4.647 4.647 3.9 3.9 0 0 1 -3.2 3.835 2.329 2.329 0 0 0 -1.912 2.29v43.6h62.27v-43.6a2.329 2.329 0 0 0 -1.912 -2.291Z" fill="none" stroke="#45413c" stroke-linecap="round" stroke-linejoin="round" stroke-width="1"></path><path d="m78.811 75.822 0 -42.287a1.745 1.745 0 0 0 -1.12 -1.628A6.218 6.218 0 0 1 73.7 26.1a2.325 2.325 0 0 0 -2.323 -2.323 5.593 5.593 0 0 1 -5.319 -3.9 1.127 1.127 0 0 0 -0.481 -0.62c-2.226 -1.381 -7.355 -3.846 -15.577 -3.846s-13.351 2.465 -15.576 3.844a1.127 1.127 0 0 0 -0.481 0.62 5.593 5.593 0 0 1 -5.319 3.9A2.325 2.325 0 0 0 26.3 26.1a6.218 6.218 0 0 1 -3.989 5.808 1.745 1.745 0 0 0 -1.12 1.628l0 42.287Z" fill="#daedf7" stroke-width="1"></path><path d="M21.192 35.317a0.93 0.93 0 0 1 0.926 -0.853h55.764a0.93 0.93 0 0 1 0.926 0.853v-1.782a1.745 1.745 0 0 0 -1.12 -1.628A6.219 6.219 0 0 1 73.7 26.1a2.325 2.325 0 0 0 -2.323 -2.323 5.593 5.593 0 0 1 -5.319 -3.9 1.124 1.124 0 0 0 -0.482 -0.62c-2.225 -1.381 -7.354 -3.846 -15.576 -3.846s-13.351 2.465 -15.575 3.844a1.124 1.124 0 0 0 -0.482 0.62 5.593 5.593 0 0 1 -5.319 3.9A2.325 2.325 0 0 0 26.3 26.1a6.219 6.219 0 0 1 -3.989 5.808 1.745 1.745 0 0 0 -1.12 1.628Z" fill="#daedf7" stroke-width="1"></path><path d="m78.811 75.822 0 -42.287a1.745 1.745 0 0 0 -1.12 -1.628A6.218 6.218 0 0 1 73.7 26.1a2.325 2.325 0 0 0 -2.323 -2.323 5.593 5.593 0 0 1 -5.319 -3.9 1.127 1.127 0 0 0 -0.481 -0.62c-2.226 -1.381 -7.355 -3.846 -15.577 -3.846s-13.351 2.465 -15.576 3.844a1.127 1.127 0 0 0 -0.481 0.62 5.593 5.593 0 0 1 -5.319 3.9A2.325 2.325 0 0 0 26.3 26.1a6.218 6.218 0 0 1 -3.989 5.808 1.745 1.745 0 0 0 -1.12 1.628l0 42.287Z" fill="none" stroke="#45413c" stroke-linecap="round" stroke-linejoin="round" stroke-width="1"></path><path d="m76.488 75.822 0 -40.893a1.642 1.642 0 0 0 -0.821 -1.421 8.621 8.621 0 0 1 -4.216 -6.32 1.349 1.349 0 0 0 -1.156 -1.162 7.861 7.861 0 0 1 -6.3 -5.011c-2.121 -1.237 -6.727 -3.28 -13.993 -3.28s-11.872 2.043 -13.993 3.28a7.861 7.861 0 0 1 -6.3 5.011 1.349 1.349 0 0 0 -1.156 1.162 8.621 8.621 0 0 1 -4.216 6.32 1.642 1.642 0 0 0 -0.821 1.421l0 40.893Z" fill="#daedf7" stroke-width="1"></path><path d="M25.836 48.405a24.164 24.164 0 1 0 48.328 0 24.164 24.164 0 1 0 -48.328 0Z" fill="#adc4d9" stroke-width="1"></path><path d="M76.484 34.929a1.642 1.642 0 0 0 -0.821 -1.421 8.621 8.621 0 0 1 -4.216 -6.32 1.349 1.349 0 0 0 -1.156 -1.162 7.861 7.861 0 0 1 -6.3 -5.011c-2.121 -1.237 -6.727 -3.28 -13.993 -3.28s-11.872 2.043 -13.993 3.28a7.861 7.861 0 0 1 -6.3 5.011 1.349 1.349 0 0 0 -1.156 1.162 8.621 8.621 0 0 1 -4.216 6.32 1.642 1.642 0 0 0 -0.821 1.421v1.841a1.854 1.854 0 0 0 0.929 -0.249l0.821 -0.474a10.508 10.508 0 0 0 4.725 -5.878 2.791 2.791 0 0 1 1.767 -1.793 9.728 9.728 0 0 0 5.346 -4.407 2.774 2.774 0 0 1 1.247 -1.151A27.553 27.553 0 0 1 50 20.523a27.553 27.553 0 0 1 11.649 2.3 2.784 2.784 0 0 1 1.251 1.146 9.728 9.728 0 0 0 5.346 4.407 2.792 2.792 0 0 1 1.767 1.792 10.515 10.515 0 0 0 4.725 5.879l0.821 0.474a1.846 1.846 0 0 0 0.927 0.249Z" fill="#ffffff" stroke-width="1"></path><path d="m76.488 75.822 0 -40.893a1.642 1.642 0 0 0 -0.821 -1.421 8.621 8.621 0 0 1 -4.216 -6.32 1.349 1.349 0 0 0 -1.156 -1.162 7.861 7.861 0 0 1 -6.3 -5.011c-2.121 -1.237 -6.727 -3.28 -13.993 -3.28s-11.872 2.043 -13.993 3.28a7.861 7.861 0 0 1 -6.3 5.011 1.349 1.349 0 0 0 -1.156 1.162 8.621 8.621 0 0 1 -4.216 6.32 1.642 1.642 0 0 0 -0.821 1.421l0 40.893Z" fill="none" stroke="#45413c" stroke-linecap="round" stroke-linejoin="round" stroke-width="1"></path><path d="M50 70.71a23.8 23.8 0 0 1 -4.647 -0.456v5.568h9.294v-5.568A23.8 23.8 0 0 1 50 70.71Z" fill="#adc4d9" stroke-width="1"></path><path d="M45.353 70.254v1.866a24.272 24.272 0 0 0 9.294 0v-1.866a23.906 23.906 0 0 1 -9.294 0Z" fill="#adc4d9" stroke-width="1"></path><path d="M50 70.71a23.8 23.8 0 0 1 -4.647 -0.456v5.568h9.294v-5.568A23.8 23.8 0 0 1 50 70.71Z" fill="none" stroke="#45413c" stroke-linecap="round" stroke-linejoin="round" stroke-width="1"></path><path d="M26.301 47.011a23.699 23.699 0 1 0 47.398 0 23.699 23.699 0 1 0 -47.398 0Z" fill="#fffacf" stroke-width="1"></path><path d="M50 25.635a23.7 23.7 0 0 1 23.671 22.538c0.019 -0.385 0.028 -0.773 0.028 -1.162a23.7 23.7 0 1 0 -47.4 0c0 0.389 0.009 0.777 0.028 1.162A23.7 23.7 0 0 1 50 25.635Z" fill="#fffef2" stroke-width="1"></path><path d="M26.301 47.011a23.699 23.699 0 1 0 47.398 0 23.699 23.699 0 1 0 -47.398 0Z" fill="none" stroke="#45413c" stroke-linecap="round" stroke-linejoin="round" stroke-width="1"></path><path d="M28.159 47.011a21.841 21.841 0 1 0 43.682 0 21.841 21.841 0 1 0 -43.682 0Z" fill="#fff5e3" stroke-width="1"></path><path d="M50 27.958a21.842 21.842 0 0 1 21.8 20.447q0.043 -0.691 0.044 -1.394a21.841 21.841 0 1 0 -43.682 0q0 0.7 0.044 1.394A21.842 21.842 0 0 1 50 27.958Z" fill="#f7e5c6" stroke-width="1"></path><path d="M28.159 47.011a21.841 21.841 0 1 0 43.682 0 21.841 21.841 0 1 0 -43.682 0Z" fill="none" stroke="#45413c" stroke-linecap="round" stroke-linejoin="round" stroke-width="1"></path><path d="M84.387 78.981a1.016 1.016 0 0 0 -0.237 -0.655l-1.491 -1.79a1.985 1.985 0 0 0 -1.524 -0.714h-62.27a1.985 1.985 0 0 0 -1.524 0.714l-1.491 1.79A1.022 1.022 0 0 0 16.636 80h66.728a1.023 1.023 0 0 0 1.023 -1.019Z" fill="#daedf7" stroke-width="1"></path><path d="m83.613 77.681 -0.954 -1.145a1.986 1.986 0 0 0 -1.524 -0.714h-62.27a1.986 1.986 0 0 0 -1.524 0.714l-0.954 1.145Z" fill="#daedf7" stroke-width="1"></path><path d="M84.387 78.981a1.016 1.016 0 0 0 -0.237 -0.655l-1.491 -1.79a1.985 1.985 0 0 0 -1.524 -0.714h-62.27a1.985 1.985 0 0 0 -1.524 0.714l-1.491 1.79A1.022 1.022 0 0 0 16.636 80h66.728a1.023 1.023 0 0 0 1.023 -1.019Z" fill="none" stroke="#45413c" stroke-linecap="round" stroke-linejoin="round" stroke-width="1"></path><path d="M48.141 47.011a1.859 1.859 0 1 0 3.718 0 1.859 1.859 0 1 0 -3.718 0Z" fill="#87898c" stroke-width="1"></path><path d="M50 46.778a1.86 1.86 0 0 1 1.672 1.046 1.859 1.859 0 1 0 -3.344 0A1.86 1.86 0 0 1 50 46.778Z" fill="#87898c" stroke-width="1"></path><path d="M48.141 47.011a1.859 1.859 0 1 0 3.718 0 1.859 1.859 0 1 0 -3.718 0Z" fill="none" stroke="#45413c" stroke-linecap="round" stroke-linejoin="round" stroke-width="1"></path><path d="m50 70.71 0 5.112" fill="none" stroke="#45413c" stroke-linecap="round" stroke-linejoin="round" stroke-width="1"></path><path d="m47.677 70.598 0 5.224" fill="none" stroke="#45413c" stroke-linecap="round" stroke-linejoin="round" stroke-width="1"></path><path d="m52.323 70.598 0 5.224" fill="none" stroke="#45413c" stroke-linecap="round" stroke-linejoin="round" stroke-width="1"></path><path d="M50 23.311a23.8 23.8 0 0 1 4.647 0.456v-2.521a0.927 0.927 0 0 0 -0.8 -0.919 27.643 27.643 0 0 0 -7.694 0 0.929 0.929 0 0 0 -0.8 0.919v2.521A23.8 23.8 0 0 1 50 23.311Z" fill="#adc4d9" stroke="#45413c" stroke-linecap="round" stroke-linejoin="round" stroke-width="1"></path><path d="M27.166 60.442a0.465 0.465 0 0 0 -0.865 0.236V72.1a0.929 0.929 0 0 0 0.929 0.93h14.192a0.465 0.465 0 0 0 0.148 -0.906 26.561 26.561 0 0 1 -14.404 -11.682Z" fill="#daedf7" stroke-width="1"></path><path d="M41.57 72.128a26.561 26.561 0 0 1 -14.4 -11.686 0.465 0.465 0 0 0 -0.865 0.236V63.4a28.931 28.931 0 0 0 11.32 9.635h3.8a0.465 0.465 0 0 0 0.148 -0.906Z" fill="#adc4d9" stroke-width="1"></path><path d="M27.166 60.442a0.465 0.465 0 0 0 -0.865 0.236V72.1a0.929 0.929 0 0 0 0.929 0.93h14.192a0.465 0.465 0 0 0 0.148 -0.906 26.561 26.561 0 0 1 -14.404 -11.682Z" fill="none" stroke="#45413c" stroke-linecap="round" stroke-linejoin="round" stroke-width="1"></path><path d="M29.421 67.174a0.465 0.465 0 0 0 -0.8 0.325v2.747a0.465 0.465 0 0 0 0.465 0.464h3.1a0.464 0.464 0 0 0 0.283 -0.833 28.985 28.985 0 0 1 -3.048 -2.703Z" fill="#daedf7" stroke="#45413c" stroke-linecap="round" stroke-linejoin="round" stroke-width="1"></path><path d="M72.834 60.442a0.465 0.465 0 0 1 0.865 0.236V72.1a0.929 0.929 0 0 1 -0.929 0.93H58.578a0.465 0.465 0 0 1 -0.148 -0.906 26.561 26.561 0 0 0 14.404 -11.682Z" fill="#daedf7" stroke-width="1"></path><path d="M58.43 72.128a26.561 26.561 0 0 0 14.4 -11.686 0.465 0.465 0 0 1 0.865 0.236V63.4a28.931 28.931 0 0 1 -11.32 9.635h-3.8a0.465 0.465 0 0 1 -0.148 -0.906Z" fill="#adc4d9" stroke-width="1"></path><path d="M72.834 60.442a0.465 0.465 0 0 1 0.865 0.236V72.1a0.929 0.929 0 0 1 -0.929 0.93H58.578a0.465 0.465 0 0 1 -0.148 -0.906 26.561 26.561 0 0 0 14.404 -11.682Z" fill="none" stroke="#45413c" stroke-linecap="round" stroke-linejoin="round" stroke-width="1"></path><path d="M70.579 67.174a0.465 0.465 0 0 1 0.8 0.325v2.747a0.465 0.465 0 0 1 -0.465 0.464h-3.1a0.464 0.464 0 0 1 -0.283 -0.833 28.985 28.985 0 0 0 3.048 -2.703Z" fill="#daedf7" stroke="#45413c" stroke-linecap="round" stroke-linejoin="round" stroke-width="1"></path><path d="m51.76 47.61 2.199 0.749" fill="none" stroke="#45413c" stroke-linecap="round" stroke-linejoin="round" stroke-width="1"></path><path d="M65.119 51.63a0.5 0.5 0 0 1 -0.322 0.947L53.96 49.794a0.433 0.433 0 0 1 -0.272 -0.212 0.428 0.428 0 0 1 -0.028 -0.343l0.6 -1.76a0.422 0.422 0 0 1 0.232 -0.254 0.431 0.431 0 0 1 0.345 0Z" fill="#87898c" stroke="#45413c" stroke-linecap="round" stroke-linejoin="round" stroke-width="1"></path><path d="m48.229 47.577 -16.712 5.339" fill="none" stroke="#45413c" stroke-linecap="round" stroke-linejoin="round" stroke-width="1"></path><path d="M51.394 31.676a1.394 1.394 0 0 1 -2.788 0v-2.788a1.394 1.394 0 1 1 2.788 0Z" fill="#87898c" stroke="#45413c" stroke-linecap="round" stroke-linejoin="round" stroke-width="1"></path><path d="M34.665 45.617a1.394 1.394 0 0 1 0 2.788h-2.788a1.394 1.394 0 1 1 0 -2.788Z" fill="#87898c" stroke="#45413c" stroke-linecap="round" stroke-linejoin="round" stroke-width="1"></path><path d="M48.606 62.346a1.394 1.394 0 0 1 2.788 0v2.788a1.394 1.394 0 0 1 -2.788 0Z" fill="#87898c" stroke="#45413c" stroke-linecap="round" stroke-linejoin="round" stroke-width="1"></path><path d="M65.335 48.405a1.394 1.394 0 1 1 0 -2.788h2.788a1.394 1.394 0 1 1 0 2.788Z" fill="#87898c" stroke="#45413c" stroke-linecap="round" stroke-linejoin="round" stroke-width="1"></path><path d="M64.953 39.451a0.93 0.93 0 0 1 -0.93 -1.61l1.61 -0.929a0.929 0.929 0 0 1 0.929 1.61Z" fill="#87898c" stroke="#45413c" stroke-linecap="round" stroke-linejoin="round" stroke-width="1"></path><path d="M59.169 32.988a0.929 0.929 0 1 1 -1.609 -0.93l0.929 -1.609a0.929 0.929 0 1 1 1.61 0.929Z" fill="#87898c" stroke="#45413c" stroke-linecap="round" stroke-linejoin="round" stroke-width="1"></path><path d="M35.047 39.451a0.93 0.93 0 1 0 0.93 -1.61l-1.61 -0.929a0.929 0.929 0 0 0 -0.929 1.61Z" fill="#87898c" stroke="#45413c" stroke-linecap="round" stroke-linejoin="round" stroke-width="1"></path><path d="M40.831 32.988a0.929 0.929 0 1 0 1.609 -0.93l-0.929 -1.609a0.929 0.929 0 1 0 -1.61 0.929Z" fill="#87898c" stroke="#45413c" stroke-linecap="round" stroke-linejoin="round" stroke-width="1"></path><path d="M64.953 54.57a0.93 0.93 0 0 0 -0.93 1.61l1.61 0.93a0.929 0.929 0 0 0 0.929 -1.61Z" fill="#87898c" stroke="#45413c" stroke-linecap="round" stroke-linejoin="round" stroke-width="1"></path><path d="M59.169 61.034a0.929 0.929 0 0 0 -1.609 0.929l0.929 1.61a0.929 0.929 0 0 0 1.61 -0.929Z" fill="#87898c" stroke="#45413c" stroke-linecap="round" stroke-linejoin="round" stroke-width="1"></path><path d="M35.047 54.57a0.93 0.93 0 0 1 0.93 1.61l-1.61 0.93a0.929 0.929 0 0 1 -0.929 -1.61Z" fill="#87898c" stroke="#45413c" stroke-linecap="round" stroke-linejoin="round" stroke-width="1"></path><path d="M40.831 61.034a0.929 0.929 0 0 1 1.609 0.929l-0.929 1.61a0.929 0.929 0 0 1 -1.61 -0.929Z" fill="#87898c" stroke="#45413c" stroke-linecap="round" stroke-linejoin="round" stroke-width="1"></path><path d="m50 23.311 0 -3.252" fill="none" stroke="#45413c" stroke-linecap="round" stroke-linejoin="round" stroke-width="1"></path><path d="m47.677 23.424 0 -3.268" fill="none" stroke="#45413c" stroke-linecap="round" stroke-linejoin="round" stroke-width="1"></path><path d="m52.323 23.424 0 -3.268" fill="none" stroke="#45413c" stroke-linecap="round" stroke-linejoin="round" stroke-width="1"></path></svg>