<svg xmlns="http://www.w3.org/2000/svg" viewBox="0 0 100 100" id="Weather-Forecast-Reporter-6--Streamline-Ux" height="100" width="100"><desc>Weather Forecast Reporter 6 Streamline Illustration: https://streamlinehq.com</desc><path d="M90 50a40 40 0 1 0 -76.436 16.5h72.872A39.844 39.844 0 0 0 90 50z" fill="#b8ecff" stroke-width="1"></path><path d="M13.564 66.5a40 40 0 0 0 72.872 0z" fill="#b8ecff" stroke-width="1"></path><path d="M11 66.5h78m-82.5 0H9m82 0h2.5" stroke-linejoin="round" stroke-linecap="round" stroke="#45413c" fill="none" stroke-width="1"></path><path fill="#00b8f0" d="M29.56 43.524h52.935v22.985H29.56z" stroke-width="1"></path><path fill="#4acfff" d="m32.783 66.509 22.985 -22.985H29.56v22.985h3.223z" stroke-width="1"></path><path fill="#ffe500" d="M29.56 19.146h52.935v24.378H29.56z" stroke-width="1"></path><path fill="#fff48c" d="M29.56 19.146v24.378h1.83l24.378 -24.378H29.56z" stroke-width="1"></path><path stroke-linejoin="round" stroke="#45413c" fill="none" d="M29.56 19.146h52.935v24.378H29.56zm0 24.378h52.935v22.985H29.56z" stroke-width="1"></path><path d="M26.774 17.753a1.394 1.394 0 0 1 1.394 -1.393h55.721a1.393 1.393 0 0 1 0 2.786H28.168a1.394 1.394 0 0 1 -1.394 -1.393z" fill="#e0e0e0" stroke-linejoin="round" stroke="#45413c" stroke-width="1"></path><path stroke-miterlimit="10" stroke-linecap="round" stroke="#45413c" fill="none" d="M44.187 28.2h-8.358m6.269 3.483h-6.269m6.269 3.483h-6.269" stroke-width="1"></path><path d="M73.789 28.2a2.41 2.41 0 0 0 -1.121 0.286 3.831 3.831 0 0 0 -7.509 0 2.41 2.41 0 0 0 -1.121 -0.286 2.438 2.438 0 1 0 0 4.876h9.751a2.438 2.438 0 1 0 0 -4.876z" fill="#ffffff" stroke-linejoin="round" stroke="#45413c" stroke-width="1"></path><path d="m67.172 33.076 -1.094 2.19a0.578 0.578 0 0 0 0.334 0.808l1.061 0.353a0.58 0.58 0 0 1 0.4 0.549v1.668a0.578 0.578 0 0 0 0.988 0.409l2.085 -2.084a0.579 0.579 0 0 0 0 -0.819l-0.731 -0.731a0.579 0.579 0 0 1 -0.14 -0.592l0.584 -1.751z" fill="#ffe500" stroke-linejoin="round" stroke="#45413c" stroke-width="1"></path><path d="M73.789 50.489a2.421 2.421 0 0 0 -1.121 0.285 3.831 3.831 0 0 0 -7.509 0 2.433 2.433 0 1 0 -1.121 4.591h9.751a2.438 2.438 0 1 0 0 -4.876z" fill="#ffffff" stroke-linejoin="round" stroke="#45413c" stroke-width="1"></path><path d="M67.869 60.241a1.393 1.393 0 0 1 -2.786 0c0 -0.77 1.393 -2.787 1.393 -2.787s1.393 2.017 1.393 2.787zm5.572 0a1.393 1.393 0 0 1 -2.786 0c0 -0.77 1.393 -2.787 1.393 -2.787s1.393 2.017 1.393 2.787z" fill="#b8ecff" stroke-linejoin="round" stroke="#45413c" stroke-width="1"></path><path d="M52.439 33.973c0.4 0 0.7 0.181 0.7 0.6a0.583 0.583 0 0 1 -0.65 0.6h-3.013c-0.4 0 -0.7 -0.181 -0.7 -0.6a0.753 0.753 0 0 1 0.208 -0.46c0.75 -0.9 1.563 -1.708 2.249 -2.7a1.5 1.5 0 0 0 0.317 -0.84 0.677 0.677 0 0 0 -0.651 -0.7c-1.039 0 -0.542 1.463 -1.409 1.463a0.624 0.624 0 0 1 -0.659 -0.659 2.124 2.124 0 0 1 2.122 -2.051 1.877 1.877 0 0 1 2.001 1.874c0 1.256 -1.4 2.5 -2.168 3.469zm1.31 -2.023c0 -1.473 0.569 -3.325 2.394 -3.325s2.394 1.852 2.394 3.325 -0.57 3.324 -2.394 3.324 -2.394 -1.852 -2.394 -3.324zm3.379 0c0 -0.687 -0.064 -2.1 -0.985 -2.1s-0.985 1.409 -0.985 2.1c0 0.641 0.063 2.1 0.985 2.1s0.985 -1.459 0.985 -2.1z" fill="#45413c" stroke-width="1"></path><path d="M59.51 25.415a1.393 1.393 0 1 1 -1.393 -1.393 1.393 1.393 0 0 1 1.393 1.393z" stroke-miterlimit="10" stroke="#45413c" fill="none" stroke-width="1"></path><path d="M52.439 57.654c0.4 0 0.7 0.18 0.7 0.6a0.582 0.582 0 0 1 -0.65 0.6h-3.013c-0.4 0 -0.7 -0.18 -0.7 -0.6a0.753 0.753 0 0 1 0.208 -0.46c0.75 -0.895 1.563 -1.707 2.249 -2.7a1.486 1.486 0 0 0 0.317 -0.839 0.676 0.676 0 0 0 -0.651 -0.7c-1.039 0 -0.542 1.463 -1.409 1.463a0.624 0.624 0 0 1 -0.659 -0.659 2.124 2.124 0 0 1 2.122 -2.051 1.877 1.877 0 0 1 2.006 1.879c0 1.256 -1.4 2.5 -2.168 3.469zm2.484 -3.993h-0.533a0.583 0.583 0 0 1 -0.614 -0.623 0.6 0.6 0 0 1 0.614 -0.623h1.282a0.588 0.588 0 0 1 0.606 0.641V58.2a0.678 0.678 0 1 1 -1.355 0z" fill="#45413c" stroke-width="1"></path><path d="M59.51 49.1a1.393 1.393 0 1 1 -1.393 -1.4 1.393 1.393 0 0 1 1.393 1.4z" stroke-miterlimit="10" stroke="#45413c" fill="none" stroke-width="1"></path><path opacity=".15" fill="#45413c" d="M15.462 83.806a11.576 1.736 0 1 0 23.152 0 11.576 1.736 0 1 0 -23.152 0" stroke-width="1"></path><path d="M30.257 53.116v1.194a6.265 6.265 0 0 0 6.269 6.266c3.117 0 4.485 -1.887 6.7 -4.1a2.09 2.09 0 0 0 -2.955 -2.955c-1.794 1.793 -2.4 2.853 -3.746 2.853a2.042 2.042 0 0 1 -2.09 -2.061v-1.194z" fill="#bf8256" stroke-miterlimit="10" stroke="#45413c" stroke-width="1"></path><path stroke-linejoin="round" stroke-linecap="round" stroke="#45413c" fill="none" d="m41.488 54.996 12.799 -10.239" stroke-width="1"></path><path fill="#00c9d4" stroke-linejoin="round" stroke-linecap="round" stroke="#45413c" d="M19.113 59.383v0.014l1.393 22.971h9.751l1.393 -22.971v-0.014H19.113z" stroke-width="1"></path><path fill="#00b8f0" stroke-linejoin="round" stroke-linecap="round" stroke="#45413c" d="M25.381 82.368V64.267" stroke-width="1"></path><path d="M25.381 79.582h3.483c3.413 0 4.2 3.483 4.2 3.483h-7.683z" fill="#ff6242" stroke-linejoin="round" stroke="#45413c" stroke-width="1"></path><path d="M20.33 79.582h3.483c3.413 0 4.2 3.483 4.2 3.483h-6.525a1.159 1.159 0 0 1 -1.158 -1.158z" fill="#ff6242" stroke-linejoin="round" stroke="#45413c" stroke-width="1"></path><path d="M14.933 53.811v10.456a2.09 2.09 0 0 0 4.18 0V53.811z" fill="#bf8256" stroke-miterlimit="10" stroke="#45413c" stroke-width="1"></path><path fill="#a86c4d" stroke-linejoin="round" stroke-linecap="round" stroke="#45413c" d="M19.113 56.596H31.65v2.787H19.113z" stroke-width="1"></path><path d="M34.436 48.935a9.752 9.752 0 1 0 -19.5 0v4.876h4.184v5.572h12.53v-5.572h2.786z" fill="#f8f8f8" stroke-width="1"></path><path d="M24.685 39.183a9.752 9.752 0 0 1 9.751 9.752v3.482a9.752 9.752 0 0 0 -19.5 0v-3.482a9.752 9.752 0 0 1 9.749 -9.752z" fill="#ffffff" stroke-width="1"></path><path fill="#f8f8f8" d="M19.113 57.293h0.003v2.09h-0.003z" stroke-width="1"></path><path d="M34.436 48.935a9.752 9.752 0 1 0 -19.5 0v4.876h4.184v5.572h12.53v-5.572h2.786z" stroke-linejoin="round" stroke-linecap="round" stroke="#45413c" fill="none" stroke-width="1"></path><path d="m18.852 45.617 1.383 -5.361a9.649 9.649 0 0 1 2.36 -0.847v1.14l1.291 5.173c-1.614 -2.754 -3.492 -1.195 -5.034 -0.105zm11.959 -4.264a9.716 9.716 0 0 0 -2.644 -1.517v0.713l-1.291 5.173c1.614 -2.754 3.493 -1.2 5.035 -0.105z" fill="#ffffff" stroke-linejoin="round" stroke-linecap="round" stroke="#45413c" stroke-width="1"></path><path d="M31.65 53.811a4.173 4.173 0 0 1 0.767 -2.415 4.174 4.174 0 0 0 0.626 -2.283M19.113 55.9v-6.269m6.268 -2.785v12.537" stroke-linejoin="round" stroke-linecap="round" stroke="#45413c" fill="none" stroke-width="1"></path><path d="M28.167 39.825A0.882 0.882 0 0 1 27.6 39v-6.6h-4.563v6.455a0.566 0.566 0 0 1 -0.445 0.553v1.14l1.189 4.762a1.646 1.646 0 0 0 3.2 0l1.188 -4.762z" fill="#bf8256" stroke-linejoin="round" stroke-linecap="round" stroke="#45413c" stroke-width="1"></path><path fill="#614b44" stroke-linejoin="round" stroke-linecap="round" stroke="#45413c" d="M16.1021242014 25.2543620339a4.169 4.169 0 1 0 3.8748221603 -7.3829531508 4.169 4.169 0 1 0 -3.8748221603 7.3829531508" stroke-width="1"></path><path fill="#614b44" d="M16.253 28.114a8.339 8.339 0 1 0 16.678 0 8.339 8.339 0 1 0 -16.678 0" stroke-width="1"></path><path d="M17.1 30.2a8.34 8.34 0 0 1 15.578 -4.142 8.34 8.34 0 1 0 -15.323 6.2A8.4 8.4 0 0 1 17.1 30.2z" fill="#a86c4d" stroke-width="1"></path><path stroke-linejoin="round" stroke-linecap="round" stroke="#45413c" fill="none" d="M16.253 28.114a8.339 8.339 0 1 0 16.678 0 8.339 8.339 0 1 0 -16.678 0" stroke-width="1"></path><path d="M29.952 36.9v2.534c0 2.382 2.979 4.169 2.979 4.169v-12.51a7.136 7.136 0 0 1 -2.979 5.807z" fill="#614b44" stroke-linejoin="round" stroke-linecap="round" stroke="#45413c" stroke-width="1"></path><g stroke-linejoin="round" stroke-linecap="round" stroke="#45413c"><path d="M29.952 26.327c-1.273 0 -1.7 0.6 -2.382 0.6a22.8 22.8 0 0 0 -3.574 -0.6c-1.024 0 -2.047 1.173 -2.735 2.175a3.188 3.188 0 0 1 -2.626 1.4v2.607a1.35 1.35 0 0 0 0.15 0.044 7.148 7.148 0 0 0 14.146 -1.459V28.71s-1.705 -2.383 -2.979 -2.383z" fill="#bf8256" stroke-width="1"></path><path d="M25.187 34.125a3.219 3.219 0 0 0 3.574 0" fill="none" stroke-width="1"></path></g><path fill="#00b8f0" d="M21.614 28.71h4.169s0.596 0 0.596 0.596v2.382s0 0.596 -0.596 0.596h-4.169s-0.596 0 -0.596 -0.596v-2.382s0 -0.596 0.596 -0.596" stroke-width="1"></path><path d="M21.613 28.71a0.6 0.6 0 0 0 -0.595 0.6v2.382a0.588 0.588 0 0 0 0.012 0.12c0 0.02 0.009 0.039 0.014 0.057a0.6 0.6 0 0 0 0.148 0.244 0.594 0.594 0 0 0 0.421 0.175h0.6l3.574 -3.574z" fill="#4acfff" stroke-width="1"></path><path fill="#00b8f0" d="M29.357 28.71h4.169s0.596 0 0.596 0.596v2.382s0 0.596 -0.596 0.596h-4.169s-0.596 0 -0.596 -0.596v-2.382s0 -0.596 0.596 -0.596" stroke-width="1"></path><path stroke-linejoin="round" stroke-linecap="round" stroke="#45413c" fill="none" d="M21.614 28.71h4.169s0.596 0 0.596 0.596v2.382s0 0.596 -0.596 0.596h-4.169s-0.596 0 -0.596 -0.596v-2.382s0 -0.596 0.596 -0.596" stroke-width="1"></path><path d="M29.357 28.71a0.6 0.6 0 0 0 -0.6 0.6v2.382a0.588 0.588 0 0 0 0.012 0.12 0.474 0.474 0 0 0 0.015 0.057 0.582 0.582 0 0 0 0.148 0.244 0.591 0.591 0 0 0 0.421 0.175h0.6l3.574 -3.574z" fill="#4acfff" stroke-width="1"></path><path stroke-linejoin="round" stroke-linecap="round" stroke="#45413c" fill="none" d="M26.378 29.901h2.383" stroke-width="1"></path><path stroke-linejoin="round" stroke-linecap="round" stroke="#45413c" fill="none" d="M29.357 28.71h4.169s0.596 0 0.596 0.596v2.382s0 0.596 -0.596 0.596h-4.169s-0.596 0 -0.596 -0.596v-2.382s0 -0.596 0.596 -0.596" stroke-width="1"></path><path d="M20.422 28.114h-1.191a1.19 1.19 0 0 1 -0.6 -0.159v11.477c0 2.382 2.978 4.169 2.978 4.169V26.923a1.191 1.191 0 0 1 -1.187 1.191z" fill="#614b44" stroke-linejoin="round" stroke-linecap="round" stroke="#45413c" stroke-width="1"></path><path d="M19.231 25.732h1.191a1.191 1.191 0 0 1 1.191 1.191h0a1.191 1.191 0 0 1 -1.191 1.191h-1.191a1.192 1.192 0 0 1 -1.192 -1.191h0a1.192 1.192 0 0 1 1.192 -1.191z" fill="#ffe500" stroke-linejoin="round" stroke-linecap="round" stroke="#45413c" stroke-width="1"></path></svg>
