<svg width="80" height="80" viewBox="0 0 80 80" fill="none" xmlns="http://www.w3.org/2000/svg">
<g clip-path="url(#clip0_168_2)">
<path d="M0 40C0 50.6087 4.21427 60.7828 11.7157 68.2843C19.2172 75.7857 29.3913 80 40 80C50.6087 80 60.7828 75.7857 68.2843 68.2843C75.7857 60.7828 80 50.6087 80 40C80 29.3913 75.7857 19.2172 68.2843 11.7157C60.7828 4.21427 50.6087 0 40 0C29.3913 0 19.2172 4.21427 11.7157 11.7157C4.21427 19.2172 0 29.3913 0 40Z" fill="#DAEDF7" stroke="#DAEDF7"/>
<path d="M0 40C0 50.6087 4.21427 60.7828 11.7157 68.2843C19.2172 75.7857 29.3913 80 40 80C50.6087 80 60.7828 75.7857 68.2843 68.2843C75.7857 60.7828 80 50.6087 80 40C80 29.3913 75.7857 19.2172 68.2843 11.7157C60.7828 4.21427 50.6087 0 40 0C29.3913 0 19.2172 4.21427 11.7157 11.7157C4.21427 19.2172 0 29.3913 0 40Z" stroke="#DAEDF7" stroke-linecap="round" stroke-linejoin="round"/>
<path d="M16.082 40.876C16.082 44.0823 16.7135 47.2573 17.9406 50.2196C19.1676 53.1818 20.966 55.8734 23.2333 58.1407C25.5005 60.4079 28.1921 62.2064 31.1544 63.4334C34.1167 64.6604 37.2916 65.292 40.498 65.292C43.7044 65.292 46.8793 64.6604 49.8416 63.4334C52.8039 62.2064 55.4955 60.4079 57.7627 58.1407C60.03 55.8734 61.8284 53.1818 63.0554 50.2196C64.2825 47.2573 64.914 44.0823 64.914 40.876C64.914 37.6696 64.2825 34.4946 63.0554 31.5324C61.8284 28.5701 60.03 25.8785 57.7627 23.6112C55.4955 21.344 52.8039 19.5455 49.8416 18.3185C46.8793 17.0915 43.7044 16.46 40.498 16.46C37.2916 16.46 34.1167 17.0915 31.1544 18.3185C28.1921 19.5455 25.5005 21.344 23.2333 23.6112C20.966 25.8785 19.1676 28.5701 17.9406 31.5324C16.7135 34.4946 16.082 37.6696 16.082 40.876Z" fill="#DAEDF7"/>
<path d="M64.679 37.474C63.9094 43.3427 61.0319 48.7312 56.5829 52.6349C52.1338 56.5387 46.4169 58.6912 40.498 58.6912C34.5791 58.6912 28.8622 56.5387 24.4131 52.6349C19.9641 48.7312 17.0865 43.3427 16.317 37.474C17.1385 31.6455 20.0376 26.3098 24.4807 22.449C28.9238 18.5882 34.6118 16.4622 40.498 16.4622C46.3841 16.4622 52.0722 18.5882 56.5153 22.449C60.9584 26.3098 63.8575 31.6455 64.679 37.474Z" fill="white"/>
<path d="M16.082 40.876C16.082 44.0823 16.7135 47.2573 17.9406 50.2196C19.1676 53.1818 20.966 55.8734 23.2333 58.1407C25.5005 60.4079 28.1921 62.2064 31.1544 63.4334C34.1167 64.6604 37.2916 65.292 40.498 65.292C43.7044 65.292 46.8793 64.6604 49.8416 63.4334C52.8039 62.2064 55.4955 60.4079 57.7627 58.1407C60.03 55.8734 61.8284 53.1818 63.0554 50.2196C64.2825 47.2573 64.914 44.0823 64.914 40.876C64.914 37.6696 64.2825 34.4946 63.0554 31.5324C61.8284 28.5701 60.03 25.8785 57.7627 23.6112C55.4955 21.344 52.8039 19.5455 49.8416 18.3185C46.8793 17.0915 43.7044 16.46 40.498 16.46C37.2916 16.46 34.1167 17.0915 31.1544 18.3185C28.1921 19.5455 25.5005 21.344 23.2333 23.6112C20.966 25.8785 19.1676 28.5701 17.9406 31.5324C16.7135 34.4946 16.082 37.6696 16.082 40.876Z" stroke="#45413C" stroke-linecap="round" stroke-linejoin="round"/>
<path d="M59.121 56.408C57.6229 52.4309 55.12 48.9098 51.8563 46.1878C48.5926 43.4658 44.6794 41.6357 40.498 40.876" stroke="#45413C" stroke-linecap="round" stroke-linejoin="round"/>
<path d="M17.417 48.86C21.6267 49.6937 25.9823 49.3936 30.0379 47.9905C34.0935 46.5875 37.7034 44.1318 40.498 40.875" stroke="#45413C" stroke-linecap="round" stroke-linejoin="round"/>
<path d="M44.597 16.803C41.8438 20.0935 40.0136 24.0559 39.2932 28.2853C38.5729 32.5148 38.9883 36.8596 40.497 40.876" stroke="#45413C" stroke-linecap="round" stroke-linejoin="round"/>
<path d="M25.201 49.145C22.5745 45.6386 20.9396 41.4902 20.4675 37.1347C19.9955 32.7791 20.7037 28.3768 22.518 24.389" stroke="#45413C" stroke-linecap="round" stroke-linejoin="round"/>
<path d="M33.368 46.578C30.3265 42.3209 28.7329 37.1995 28.822 31.9683C28.9111 26.7371 30.6783 21.6729 33.863 17.522" stroke="#45413C" stroke-linecap="round" stroke-linejoin="round"/>
<path d="M40.661 23.417C44.9142 22.7931 49.2567 23.3026 53.25 24.8941C57.2432 26.4856 60.7458 29.1026 63.404 32.481" stroke="#45413C" stroke-linecap="round" stroke-linejoin="round"/>
<path d="M38.973 31.893C44.1314 31.2031 49.3757 32.1699 53.9489 34.6541C58.5222 37.1382 62.1879 41.0112 64.417 45.714" stroke="#45413C" stroke-linecap="round" stroke-linejoin="round"/>
<path d="M55.328 49.7111C53.6792 53.7698 50.9698 57.3108 47.4834 59.9634C43.9969 62.616 39.8615 64.2827 35.51 64.7891" stroke="#45413C" stroke-linecap="round" stroke-linejoin="round"/>
<path d="M48.859 44.041C46.7828 48.8435 43.2189 52.8522 38.6924 55.4762C34.1659 58.1003 28.9163 59.2009 23.717 58.616" stroke="#45413C" stroke-linecap="round" stroke-linejoin="round"/>
</g>
<defs>
<clipPath id="clip0_168_2">
<rect width="80" height="80" fill="white"/>
</clipPath>
</defs>
</svg>
