<svg width="82" height="82" viewBox="0 0 82 82" fill="none" xmlns="http://www.w3.org/2000/svg">
<path d="M1 41C1 51.6087 5.21427 61.7828 12.7157 69.2843C20.2172 76.7857 30.3913 81 41 81C51.6087 81 61.7828 76.7857 69.2843 69.2843C76.7857 61.7828 81 51.6087 81 41C81 30.3913 76.7857 20.2172 69.2843 12.7157C61.7828 5.21427 51.6087 1 41 1C30.3913 1 20.2172 5.21427 12.7157 12.7157C5.21427 20.2172 1 30.3913 1 41Z" fill="#DAEDF7" stroke="#DAEDF7"/>
<path opacity="0.15" d="M27.89 64.369C27.89 64.8037 29.2712 65.2206 31.7298 65.5279C34.1884 65.8353 37.523 66.008 41 66.008C44.477 66.008 47.8116 65.8353 50.2702 65.5279C52.7288 65.2206 54.11 64.8037 54.11 64.369C54.11 63.9343 52.7288 63.5174 50.2702 63.21C47.8116 62.9027 44.477 62.73 41 62.73C37.523 62.73 34.1884 62.9027 31.7298 63.21C29.2712 63.5174 27.89 63.9343 27.89 64.369Z" fill="#45413C"/>
<path d="M80.876 42.519C80.8761 40.1518 80.41 37.8077 79.5041 35.6206C78.5983 33.4336 77.2705 31.4463 75.5966 29.7724C73.9227 28.0985 71.9355 26.7708 69.7484 25.8649C67.5613 24.9591 65.2172 24.4929 62.85 24.493H19.15C16.1431 24.493 13.184 25.2452 10.5421 26.681C7.9002 28.1169 5.65945 30.1908 4.02388 32.7139C2.38832 35.2371 1.4099 38.1293 1.17772 41.1272C0.945547 44.1251 1.46699 47.1334 2.69457 49.8783C3.92215 52.6232 5.81686 55.0174 8.20618 56.8429C10.5955 58.6683 13.4035 59.8672 16.3745 60.3301C19.3456 60.7931 22.3852 60.5054 25.2167 59.4935C28.0481 58.4815 30.5815 56.7773 32.586 54.536H49.414C51.8478 57.2572 55.0504 59.1752 58.5981 60.0363C62.1459 60.8974 65.8714 60.661 69.2819 59.3584C72.6923 58.0558 75.6268 55.7483 77.6972 52.7414C79.7675 49.7345 80.876 46.1698 80.876 42.519Z" fill="#F8F8F8"/>
<path d="M19.15 27.224H62.85C67.3943 27.2243 71.7709 28.9407 75.1039 32.0299C78.4368 35.119 80.4802 39.3528 80.825 43.884C80.859 43.434 80.876 42.978 80.876 42.519C80.8761 40.1518 80.41 37.8077 79.5041 35.6206C78.5983 33.4336 77.2705 31.4463 75.5966 29.7724C73.9227 28.0985 71.9355 26.7708 69.7484 25.8649C67.5613 24.9591 65.2172 24.4929 62.85 24.493H19.15C16.7827 24.4929 14.4387 24.9591 12.2516 25.8649C10.0645 26.7708 8.07729 28.0985 6.40339 29.7724C4.7295 31.4463 3.40172 33.4336 2.49587 35.6206C1.59003 37.8077 1.12386 40.1518 1.12399 42.519C1.12399 42.978 1.14099 43.434 1.17499 43.884C1.51983 39.3528 3.56319 35.119 6.89612 32.0299C10.2291 28.9407 14.6057 27.2243 19.15 27.224Z" fill="white"/>
<path d="M80.876 42.519C80.8761 40.1518 80.41 37.8077 79.5041 35.6206C78.5983 33.4336 77.2705 31.4463 75.5966 29.7724C73.9227 28.0985 71.9355 26.7708 69.7484 25.8649C67.5613 24.9591 65.2172 24.4929 62.85 24.493H19.15C16.1431 24.493 13.184 25.2452 10.5421 26.681C7.9002 28.1169 5.65945 30.1908 4.02388 32.7139C2.38832 35.2371 1.4099 38.1293 1.17772 41.1272C0.945547 44.1251 1.46699 47.1334 2.69457 49.8783C3.92215 52.6232 5.81686 55.0174 8.20618 56.8429C10.5955 58.6683 13.4035 59.8672 16.3745 60.3301C19.3456 60.7931 22.3852 60.5054 25.2167 59.4935C28.0481 58.4815 30.5815 56.7773 32.586 54.536H49.414C51.8478 57.2572 55.0504 59.1752 58.5981 60.0363C62.1459 60.8974 65.8714 60.661 69.2819 59.3584C72.6923 58.0558 75.6268 55.7483 77.6972 52.7414C79.7675 49.7345 80.876 46.1698 80.876 42.519Z" stroke="#45413C" stroke-linecap="round" stroke-linejoin="round"/>
<path d="M26.8 40.88C26.7997 40.5903 26.6845 40.3125 26.4795 40.1078C26.2746 39.903 25.9967 39.788 25.707 39.788H21.881V35.964C21.8811 35.8205 21.853 35.6784 21.7982 35.5458C21.7433 35.4132 21.6629 35.2927 21.5615 35.1912C21.4601 35.0897 21.3397 35.0091 21.2071 34.9542C21.0746 34.8993 20.9325 34.871 20.789 34.871H17.511C17.3675 34.871 17.2254 34.8993 17.0929 34.9542C16.9603 35.0091 16.8399 35.0897 16.7385 35.1912C16.6371 35.2927 16.5567 35.4132 16.5018 35.5458C16.447 35.6784 16.4189 35.8205 16.419 35.964V39.788H12.6C12.4559 39.7869 12.3131 39.8144 12.1797 39.8688C12.0462 39.9232 11.9249 40.0035 11.8227 40.105C11.7204 40.2065 11.6393 40.3272 11.5839 40.4602C11.5285 40.5932 11.5 40.7359 11.5 40.88V44.157C11.4999 44.3011 11.5283 44.4439 11.5836 44.577C11.6389 44.7102 11.72 44.831 11.8223 44.9326C11.9246 45.0342 12.0459 45.1146 12.1794 45.1691C12.3129 45.2235 12.4558 45.251 12.6 45.25H16.424V49.074C16.424 49.3636 16.5391 49.6413 16.7438 49.8461C16.9486 50.0509 17.2264 50.166 17.516 50.166H20.794C21.0836 50.166 21.3614 50.0509 21.5662 49.8461C21.771 49.6413 21.886 49.3636 21.886 49.074V45.25H25.71C25.9994 45.2492 26.2766 45.1337 26.4809 44.9288C26.6853 44.7239 26.8 44.4463 26.8 44.157V40.88Z" fill="#87898C"/>
<path d="M16.419 37.6C16.419 37.3104 16.5341 37.0326 16.7388 36.8278C16.9436 36.623 17.2214 36.508 17.511 36.508H20.789C21.0786 36.508 21.3564 36.623 21.5612 36.8278C21.766 37.0326 21.881 37.3104 21.881 37.6V35.964C21.8811 35.8205 21.853 35.6784 21.7982 35.5458C21.7434 35.4132 21.6629 35.2927 21.5615 35.1912C21.4601 35.0897 21.3397 35.0091 21.2071 34.9542C21.0746 34.8993 20.9325 34.871 20.789 34.871H17.511C17.3675 34.871 17.2254 34.8993 17.0929 34.9542C16.9603 35.0091 16.8399 35.0897 16.7385 35.1912C16.6371 35.2927 16.5567 35.4132 16.5018 35.5458C16.447 35.6784 16.4189 35.8205 16.419 35.964V37.6Z" fill="#87898C"/>
<path d="M12.6 41.426H15.331C15.5462 41.4261 15.7593 41.3839 15.9581 41.3016C16.157 41.2193 16.3377 41.0987 16.4899 40.9466C16.6421 40.7945 16.7628 40.6139 16.8452 40.4151C16.9276 40.2163 16.97 40.0032 16.97 39.788H12.6C12.4559 39.7869 12.3131 39.8144 12.1797 39.8688C12.0462 39.9232 11.9249 40.0035 11.8227 40.105C11.7204 40.2065 11.6393 40.3272 11.5839 40.4602C11.5285 40.5933 11.5 40.7359 11.5 40.88V42.519C11.4999 42.3748 11.5283 42.2321 11.5836 42.0989C11.6389 41.9658 11.72 41.845 11.8223 41.7433C11.9246 41.6417 12.0459 41.5614 12.1794 41.5069C12.3129 41.4524 12.4558 41.4249 12.6 41.426Z" fill="#87898C"/>
<path d="M25.705 41.426H22.974C22.7588 41.4261 22.5457 41.3838 22.3468 41.3016C22.148 41.2193 21.9673 41.0987 21.8151 40.9466C21.6629 40.7944 21.5422 40.6138 21.4598 40.415C21.3774 40.2162 21.335 40.0032 21.335 39.788H25.705C25.8486 39.7876 25.991 39.8155 26.1238 39.8702C26.2566 39.9249 26.3774 40.0053 26.4791 40.1067C26.5808 40.2082 26.6615 40.3287 26.7166 40.4614C26.7716 40.5941 26.8 40.7363 26.8 40.88V42.519C26.8001 42.3752 26.7719 42.2329 26.7169 42.1001C26.6619 41.9673 26.5812 41.8466 26.4794 41.7451C26.3777 41.6436 26.2569 41.5631 26.124 41.5083C25.9911 41.4536 25.8487 41.4256 25.705 41.426Z" fill="#87898C"/>
<path d="M26.8 40.88C26.7997 40.5903 26.6845 40.3125 26.4795 40.1078C26.2746 39.903 25.9967 39.788 25.707 39.788H21.881V35.964C21.8811 35.8205 21.853 35.6784 21.7982 35.5458C21.7433 35.4132 21.6629 35.2927 21.5615 35.1912C21.4601 35.0897 21.3397 35.0091 21.2071 34.9542C21.0746 34.8993 20.9325 34.871 20.789 34.871H17.511C17.3675 34.871 17.2254 34.8993 17.0929 34.9542C16.9603 35.0091 16.8399 35.0897 16.7385 35.1912C16.6371 35.2927 16.5567 35.4132 16.5018 35.5458C16.447 35.6784 16.4189 35.8205 16.419 35.964V39.788H12.6C12.4559 39.7869 12.3131 39.8144 12.1797 39.8688C12.0462 39.9232 11.9249 40.0035 11.8227 40.105C11.7204 40.2065 11.6393 40.3272 11.5839 40.4602C11.5285 40.5932 11.5 40.7359 11.5 40.88V44.157C11.4999 44.3011 11.5283 44.4439 11.5836 44.577C11.6389 44.7102 11.72 44.831 11.8223 44.9326C11.9246 45.0342 12.0459 45.1146 12.1794 45.1691C12.3129 45.2235 12.4558 45.251 12.6 45.25H16.424V49.074C16.424 49.3636 16.5391 49.6413 16.7438 49.8461C16.9486 50.0509 17.2264 50.166 17.516 50.166H20.794C21.0836 50.166 21.3614 50.0509 21.5662 49.8461C21.771 49.6413 21.886 49.3636 21.886 49.074V45.25H25.71C25.9994 45.2492 26.2766 45.1337 26.4809 44.9288C26.6853 44.7239 26.8 44.4463 26.8 44.157V40.88Z" stroke="#45413C" stroke-linecap="round" stroke-linejoin="round"/>
<path d="M8.22501 42.519C8.22501 43.9537 8.50759 45.3743 9.05662 46.6998C9.60565 48.0253 10.4104 49.2297 11.4249 50.2441C12.4393 51.2586 13.6437 52.0633 14.9692 52.6124C16.2947 53.1614 17.7153 53.444 19.15 53.444C20.5847 53.444 22.0053 53.1614 23.3308 52.6124C24.6563 52.0633 25.8607 51.2586 26.8751 50.2441C27.8896 49.2297 28.6944 48.0253 29.2434 46.6998C29.7924 45.3743 30.075 43.9537 30.075 42.519C30.075 41.0843 29.7924 39.6637 29.2434 38.3382C28.6944 37.0127 27.8896 35.8083 26.8751 34.7939C25.8607 33.7794 24.6563 32.9746 23.3308 32.4256C22.0053 31.8766 20.5847 31.594 19.15 31.594C17.7153 31.594 16.2947 31.8766 14.9692 32.4256C13.6437 32.9746 12.4393 33.7794 11.4249 34.7939C10.4104 35.8083 9.60565 37.0127 9.05662 38.3382C8.50759 39.6637 8.22501 41.0843 8.22501 42.519Z" stroke="#45413C" stroke-linecap="round" stroke-linejoin="round"/>
<path d="M62.85 39.787V45.25" stroke="#45413C" stroke-linecap="round" stroke-linejoin="round"/>
<path d="M65.581 42.519H60.119" stroke="#45413C" stroke-linecap="round" stroke-linejoin="round"/>
<path d="M49.194 42.519C49.194 46.1408 50.6328 49.6143 53.1937 52.1753C55.7547 54.7363 59.2282 56.175 62.85 56.175C66.4718 56.175 69.9453 54.7363 72.5062 52.1753C75.0672 49.6143 76.506 46.1408 76.506 42.519C76.506 38.8972 75.0672 35.4238 72.5062 32.8628C69.9453 30.3018 66.4718 28.863 62.85 28.863C59.2282 28.863 55.7547 30.3018 53.1937 32.8628C50.6328 35.4238 49.194 38.8972 49.194 42.519Z" fill="#87898C" stroke="#45413C" stroke-linecap="round" stroke-linejoin="round"/>
<path d="M65.281 32.589C65.9979 33.3063 66.4006 34.2789 66.4006 35.293C66.4006 36.3071 65.9979 37.2797 65.281 37.997L58.328 44.949C57.9747 45.3117 57.5528 45.6005 57.0869 45.7989C56.6211 45.9972 56.1204 46.1011 55.6141 46.1044C55.1078 46.1077 54.6058 46.0105 54.1374 45.8182C53.669 45.626 53.2434 45.3427 52.8853 44.9847C52.5272 44.6267 52.2438 44.2012 52.0515 43.7328C51.8592 43.2644 51.7619 42.7624 51.7651 42.2561C51.7683 41.7498 51.8721 41.2491 52.0703 40.7832C52.2686 40.3173 52.5574 39.8954 52.92 39.542L59.873 32.589C60.5903 31.8721 61.5629 31.4694 62.577 31.4694C63.5911 31.4694 64.5637 31.8721 65.281 32.589Z" fill="#E0E0E0"/>
<path d="M53.439 42.246C53.439 42.8255 53.6692 43.3813 54.079 43.7911C54.4887 44.2008 55.0445 44.431 55.624 44.431C56.2035 44.431 56.7593 44.2008 57.169 43.7911C57.5788 43.3813 57.809 42.8255 57.809 42.246C57.809 41.6665 57.5788 41.1108 57.169 40.701C56.7593 40.2912 56.2035 40.061 55.624 40.061C55.0445 40.061 54.4887 40.2912 54.079 40.701C53.6692 41.1108 53.439 41.6665 53.439 42.246Z" fill="#DABFF5" stroke="#45413C" stroke-linecap="round" stroke-linejoin="round"/>
<path d="M60.392 35.293C60.392 35.8725 60.6222 36.4283 61.032 36.8381C61.4417 37.2478 61.9975 37.478 62.577 37.478C63.1565 37.478 63.7123 37.2478 64.122 36.8381C64.5318 36.4283 64.762 35.8725 64.762 35.293C64.762 34.7135 64.5318 34.1578 64.122 33.748C63.7123 33.3382 63.1565 33.108 62.577 33.108C61.9975 33.108 61.4417 33.3382 61.032 33.748C60.6222 34.1578 60.392 34.7135 60.392 35.293Z" fill="#DABFF5" stroke="#45413C" stroke-linecap="round" stroke-linejoin="round"/>
<path d="M72.78 40.088C72.0627 39.3711 71.0901 38.9684 70.076 38.9684C69.0619 38.9684 68.0893 39.3711 67.372 40.088L60.419 47.041C60.0564 47.3944 59.7676 47.8163 59.5693 48.2822C59.3711 48.7481 59.2673 49.2488 59.2641 49.7551C59.2609 50.2614 59.3582 50.7634 59.5505 51.2318C59.7428 51.7002 60.0262 52.1257 60.3843 52.4837C60.7424 52.8417 61.168 53.1251 61.6364 53.3173C62.1049 53.5095 62.6068 53.6067 63.1131 53.6034C63.6195 53.6001 64.1201 53.4963 64.586 53.2979C65.0518 53.0996 65.4737 52.8107 65.827 52.448L72.78 45.5C73.1356 45.1448 73.4177 44.723 73.6101 44.2586C73.8026 43.7943 73.9017 43.2966 73.9017 42.794C73.9017 42.2914 73.8026 41.7937 73.6101 41.3294C73.4177 40.8651 73.1356 40.4432 72.78 40.088Z" fill="#E0E0E0"/>
<path d="M60.938 49.7451C60.938 50.3246 61.1682 50.8803 61.578 51.2901C61.9877 51.6999 62.5435 51.9301 63.123 51.9301C63.7025 51.9301 64.2582 51.6999 64.668 51.2901C65.0778 50.8803 65.308 50.3246 65.308 49.7451C65.308 49.1656 65.0778 48.6098 64.668 48.2C64.2582 47.7903 63.7025 47.5601 63.123 47.5601C62.5435 47.5601 61.9877 47.7903 61.578 48.2C61.1682 48.6098 60.938 49.1656 60.938 49.7451Z" fill="#BF8DF2" stroke="#45413C" stroke-linecap="round" stroke-linejoin="round"/>
<path d="M67.891 42.7921C67.891 43.3716 68.1212 43.9273 68.531 44.3371C68.9407 44.7469 69.4965 44.9771 70.076 44.9771C70.6555 44.9771 71.2113 44.7469 71.621 44.3371C72.0308 43.9273 72.261 43.3716 72.261 42.7921C72.261 42.2126 72.0308 41.6568 71.621 41.247C71.2113 40.8373 70.6555 40.6071 70.076 40.6071C69.4965 40.6071 68.9407 40.8373 68.531 41.247C68.1212 41.6568 67.891 42.2126 67.891 42.7921Z" fill="#BF8DF2" stroke="#45413C" stroke-linecap="round" stroke-linejoin="round"/>
<path d="M38.678 45.981C38.7255 46.0347 38.7619 46.0973 38.7852 46.1652C38.8085 46.233 38.8182 46.3048 38.8138 46.3764C38.8093 46.448 38.7908 46.518 38.7592 46.5825C38.7277 46.6469 38.6838 46.7045 38.63 46.752L36.172 48.92C36.1182 48.9674 36.0556 49.0039 35.9878 49.0271C35.9199 49.0504 35.8481 49.0601 35.7765 49.0557C35.705 49.0512 35.6349 49.0327 35.5705 49.0012C35.5061 48.9696 35.4485 48.9258 35.401 48.872C35.3535 48.8182 35.3171 48.7556 35.2938 48.6878C35.2705 48.6199 35.2609 48.5481 35.2653 48.4765C35.2698 48.4049 35.2883 48.3349 35.3198 48.2705C35.3513 48.206 35.3952 48.1485 35.449 48.101L37.907 45.933C37.9608 45.8855 38.0233 45.849 38.0912 45.8257C38.1591 45.8024 38.2308 45.7927 38.3024 45.7972C38.374 45.8017 38.4441 45.8202 38.5085 45.8517C38.5729 45.8832 38.6305 45.9272 38.678 45.981Z" fill="#45413C" stroke="#45413C" stroke-linecap="round" stroke-linejoin="round"/>
<path d="M45.507 45.981C45.6026 46.0898 45.6511 46.2321 45.6419 46.3766C45.6327 46.5211 45.5666 46.6561 45.458 46.752L43 48.92C42.8914 49.0158 42.7491 49.0647 42.6045 49.0557C42.46 49.0467 42.3249 48.9806 42.229 48.872C42.1331 48.7634 42.0843 48.6211 42.0933 48.4765C42.1023 48.3319 42.1684 48.1969 42.277 48.101L44.736 45.933C44.7898 45.8855 44.8524 45.849 44.9202 45.8257C44.9881 45.8024 45.0598 45.7927 45.1314 45.7972C45.203 45.8017 45.2731 45.8202 45.3375 45.8517C45.4019 45.8832 45.4595 45.9272 45.507 45.981Z" fill="#45413C" stroke="#45413C" stroke-linecap="round" stroke-linejoin="round"/>
<path d="M31.714 27.77H50.287V31.048H31.714V27.77Z" fill="#E9E1FC" stroke="#45413C" stroke-linecap="round" stroke-linejoin="round"/>
</svg>
