<svg width="87" height="87" viewBox="0 0 87 87" fill="none" xmlns="http://www.w3.org/2000/svg">
<g clip-path="url(#clip0_153_2)">
<path d="M7.06396 60.0027C7.60996 61.2027 8.23396 62.3657 8.89196 63.5027C12.3956 69.5825 17.4389 74.632 23.5144 78.143C29.5898 81.654 36.483 83.5025 43.5 83.5025C50.517 83.5025 57.4102 81.654 63.4857 78.143C69.5612 74.632 74.6045 69.5825 78.108 63.5027C78.766 62.3657 79.39 61.2027 79.936 60.0027H7.06396Z" fill="#DAEDF7"/>
<path d="M83.5 43.5026C83.5008 37.5328 82.1653 31.6384 79.5914 26.2519C77.0176 20.8654 73.2707 16.1234 68.6256 12.3735C63.9804 8.62364 58.5548 5.96105 52.7467 4.58105C46.9386 3.20097 40.8952 3.1385 35.0597 4.39815C29.2243 5.65785 23.7448 8.20775 19.0232 11.8607C14.3015 15.5138 10.4574 20.1774 7.77284 25.5096C5.08824 30.8417 3.63114 36.7072 3.50844 42.6757C3.38584 48.6443 4.60074 54.5647 7.06404 60.0026H79.936C82.2893 54.8204 83.5046 49.1941 83.5 43.5026Z" fill="#B8ECFF"/>
<path d="M4.5 60.0027H82.5" stroke="#45413C" stroke-linecap="round" stroke-linejoin="round"/>
<path d="M0 60.0027H2.5" stroke="#45413C" stroke-linecap="round" stroke-linejoin="round"/>
<path d="M84.5 60.0027H87" stroke="#45413C" stroke-linecap="round" stroke-linejoin="round"/>
<path d="M47.352 55.7547H31.567V34.9177H47.352C47.6172 34.9177 47.8716 35.0231 48.0591 35.2106C48.2467 35.3981 48.352 35.6525 48.352 35.9177V54.7547C48.352 55.0199 48.2467 55.2743 48.0591 55.4618C47.8716 55.6493 47.6172 55.7547 47.352 55.7547Z" fill="#ADC4D9"/>
<path d="M47.352 55.7546H31.567V38.9686H47.352C47.6172 38.9686 47.8716 39.074 48.0591 39.2615C48.2467 39.449 48.352 39.7034 48.352 39.9686V54.7546C48.352 55.0198 48.2467 55.2742 48.0591 55.4617C47.8716 55.6492 47.6172 55.7546 47.352 55.7546Z" fill="#ADC4D9"/>
<path d="M47.352 55.7547H31.567V34.9177H47.352C47.6172 34.9177 47.8716 35.0231 48.0591 35.2106C48.2467 35.3981 48.352 35.6525 48.352 35.9177V54.7547C48.352 55.0199 48.2467 55.2743 48.0591 55.4618C47.8716 55.6493 47.6172 55.7547 47.352 55.7547Z" stroke="#45413C" stroke-linecap="round" stroke-linejoin="round"/>
<path d="M80.187 51.7027C80.187 52.0098 80.065 52.3044 79.8478 52.5215C79.6306 52.7387 79.3361 52.8607 79.029 52.8607H51.829V50.5447H79.029C79.3361 50.5447 79.6306 50.6667 79.8478 50.8839C80.065 51.101 80.187 51.3956 80.187 51.7027Z" fill="#DAEDF7"/>
<path d="M80.032 52.2817C80.1336 52.1059 80.1871 51.9066 80.1873 51.7036C80.1874 51.5006 80.1342 51.3011 80.0328 51.1252C79.9315 50.9493 79.7857 50.8031 79.61 50.7014C79.4343 50.5997 79.235 50.546 79.032 50.5457H51.832V51.7027H79.032C79.2348 51.7031 79.4339 51.7568 79.6094 51.8584C79.7849 51.96 79.9307 52.106 80.032 52.2817Z" fill="white"/>
<path d="M80.187 51.7027C80.187 52.0098 80.065 52.3044 79.8478 52.5215C79.6306 52.7387 79.3361 52.8607 79.029 52.8607H51.829V50.5447H79.029C79.3361 50.5447 79.6306 50.6667 79.8478 50.8839C80.065 51.101 80.187 51.3956 80.187 51.7027Z" stroke="#45413C" stroke-linecap="round" stroke-linejoin="round"/>
<path d="M60.507 52.8607H58.192V59.8067H60.507V52.8607Z" fill="#BDBEC0"/>
<path d="M60.507 52.8607H58.192V54.7567H60.507V52.8607Z" fill="#87898C"/>
<path d="M60.507 52.8607H58.192V59.8067H60.507V52.8607Z" stroke="#45413C" stroke-linecap="round" stroke-linejoin="round"/>
<path d="M77.872 52.8607H75.557V59.8067H77.872V52.8607Z" fill="#BDBEC0"/>
<path d="M77.872 52.8607H75.557V54.7567H77.872V52.8607Z" fill="#87898C"/>
<path d="M77.872 52.8607H75.557V59.8067H77.872V52.8607Z" stroke="#45413C" stroke-linecap="round" stroke-linejoin="round"/>
<path d="M25.7791 55.7547H31.5671V40.1267H26.7791C26.5139 40.1267 26.2595 40.2321 26.072 40.4196C25.8844 40.6071 25.7791 40.8615 25.7791 41.1267V55.7547Z" fill="#E0E0E0"/>
<path d="M25.7791 55.7547H31.5671V44.1787H26.7791C26.5139 44.1787 26.2595 44.2841 26.072 44.4716C25.8844 44.6591 25.7791 44.9135 25.7791 45.1787V55.7547Z" fill="#BDBEC0"/>
<path d="M25.7791 55.7547H31.5671V40.1267H26.7791C26.5139 40.1267 26.2595 40.2321 26.072 40.4196C25.8844 40.6071 25.7791 40.8615 25.7791 41.1267V55.7547Z" stroke="#45413C" stroke-linecap="round" stroke-linejoin="round"/>
<path d="M50.8251 54.0177H48.3521V39.5477H50.8251C51.0903 39.5477 51.3447 39.6531 51.5322 39.8406C51.7197 40.0281 51.8251 40.2825 51.8251 40.5477V53.0177C51.8251 53.2829 51.7197 53.5373 51.5322 53.7248C51.3447 53.9123 51.0903 54.0177 50.8251 54.0177Z" fill="#F8F8F8"/>
<path d="M50.8251 54.0177H48.3521V41.2837H51.3251C51.4577 41.2837 51.5849 41.3364 51.6786 41.4301C51.7724 41.5239 51.8251 41.6511 51.8251 41.7837V53.0177C51.8251 53.2829 51.7197 53.5373 51.5322 53.7248C51.3447 53.9123 51.0903 54.0177 50.8251 54.0177Z" fill="#E0E0E0"/>
<path d="M50.8251 54.0177H48.3521V39.5477H50.8251C51.0903 39.5477 51.3447 39.6531 51.5322 39.8406C51.7197 40.0281 51.8251 40.2825 51.8251 40.5477V53.0177C51.8251 53.2829 51.7197 53.5373 51.5322 53.7248C51.3447 53.9123 51.0903 54.0177 50.8251 54.0177Z" stroke="#45413C" stroke-linecap="round" stroke-linejoin="round"/>
<path d="M39.249 44.7567H29.83V32.4427C29.83 31.9316 29.9307 31.4255 30.1263 30.9533C30.3219 30.4811 30.6085 30.052 30.97 29.6906C31.3314 29.3292 31.7604 29.0425 32.2326 28.847C32.7048 28.6514 33.2109 28.5507 33.722 28.5507H39.249C39.5142 28.5507 39.7686 28.6561 39.9561 28.8436C40.1437 29.0311 40.249 29.2855 40.249 29.5507V43.7567C40.249 44.0219 40.1437 44.2763 39.9561 44.4638C39.7686 44.6513 39.5142 44.7567 39.249 44.7567Z" fill="#F8F8F8"/>
<path d="M39.249 44.7567H29.83V35.9157C29.83 34.8834 30.24 33.8933 30.9699 33.1633C31.6998 32.4332 32.6897 32.023 33.722 32.0227H40.249V43.7567C40.249 44.0219 40.1437 44.2763 39.9561 44.4638C39.7686 44.6513 39.5142 44.7567 39.249 44.7567Z" fill="#E0E0E0"/>
<path d="M39.249 44.7567H29.83V32.4427C29.83 31.9316 29.9307 31.4255 30.1263 30.9533C30.3219 30.4811 30.6085 30.052 30.97 29.6906C31.3314 29.3292 31.7604 29.0425 32.2326 28.847C32.7048 28.6514 33.2109 28.5507 33.722 28.5507H39.249C39.5142 28.5507 39.7686 28.6561 39.9561 28.8436C40.1437 29.0311 40.249 29.2855 40.249 29.5507V43.7567C40.249 44.0219 40.1437 44.2763 39.9561 44.4638C39.7686 44.6513 39.5142 44.7567 39.249 44.7567Z" stroke="#45413C" stroke-linecap="round" stroke-linejoin="round"/>
<path d="M47.1941 55.7546H26.3571V59.8066H47.1941V55.7546Z" fill="#87898C" stroke="#45413C" stroke-linecap="round" stroke-linejoin="round"/>
<path d="M40.249 29.7076V32.0226H42.91C43.2787 32.0226 43.6322 32.169 43.8929 32.4297C44.1536 32.6904 44.3 33.0439 44.3 33.4126V34.9176H46.615V32.7636C46.6148 31.953 46.2926 31.1757 45.7193 30.6026C45.146 30.0295 44.3686 29.7076 43.558 29.7076H40.249Z" fill="#FFFACF" stroke="#45413C" stroke-linecap="round" stroke-linejoin="round"/>
<path d="M35.04 35.4957C35.9988 35.4957 36.776 34.7185 36.776 33.7597C36.776 32.8009 35.9988 32.0237 35.04 32.0237C34.0812 32.0237 33.304 32.8009 33.304 33.7597C33.304 34.7185 34.0812 35.4957 35.04 35.4957Z" fill="#6DD627"/>
<path d="M35.04 33.5456C35.3653 33.5457 35.6839 33.6371 35.9598 33.8095C36.2356 33.9819 36.4574 34.2283 36.6 34.5206C36.7163 34.2838 36.7766 34.0234 36.776 33.7596C36.7755 33.4986 36.7162 33.241 36.6025 33.0061C36.4888 32.7712 36.3236 32.5649 36.1192 32.4026C35.9148 32.2403 35.6765 32.1261 35.4219 32.0686C35.1673 32.011 34.903 32.0116 34.6487 32.0703C34.3944 32.1289 34.1565 32.2441 33.9528 32.4073C33.7491 32.5705 33.5849 32.7776 33.4722 33.013C33.3595 33.2484 33.3013 33.5062 33.302 33.7672C33.3027 34.0282 33.3621 34.2857 33.476 34.5206C33.619 34.2277 33.8415 33.981 34.118 33.8086C34.3946 33.6361 34.7141 33.545 35.04 33.5456Z" fill="#9CEB60"/>
<path d="M35.04 35.4957C35.9988 35.4957 36.776 34.7185 36.776 33.7597C36.776 32.8009 35.9988 32.0237 35.04 32.0237C34.0812 32.0237 33.304 32.8009 33.304 33.7597C33.304 34.7185 34.0812 35.4957 35.04 35.4957Z" stroke="#45413C" stroke-linecap="round" stroke-linejoin="round"/>
<path d="M35.04 41.8626C35.9988 41.8626 36.776 41.0854 36.776 40.1266C36.776 39.1678 35.9988 38.3906 35.04 38.3906C34.0812 38.3906 33.304 39.1678 33.304 40.1266C33.304 41.0854 34.0812 41.8626 35.04 41.8626Z" fill="#FF6242"/>
<path d="M35.04 39.9127C35.3653 39.9128 35.6839 40.0042 35.9598 40.1766C36.2356 40.349 36.4574 40.5954 36.6 40.8877C36.7163 40.6509 36.7766 40.3905 36.776 40.1267C36.7755 39.8657 36.7162 39.6082 36.6025 39.3732C36.4888 39.1383 36.3236 38.932 36.1192 38.7697C35.9148 38.6074 35.6765 38.4932 35.4219 38.4357C35.1673 38.3781 34.903 38.3787 34.6487 38.4374C34.3944 38.496 34.1565 38.6112 33.9528 38.7744C33.7491 38.9376 33.5849 39.1447 33.4722 39.3801C33.3595 39.6155 33.3013 39.8733 33.302 40.1343C33.3027 40.3953 33.3621 40.6528 33.476 40.8877C33.619 40.5948 33.8415 40.3481 34.118 40.1757C34.3946 40.0032 34.7141 39.9121 35.04 39.9127Z" fill="#FF6242"/>
<path d="M35.04 41.8626C35.9988 41.8626 36.776 41.0854 36.776 40.1266C36.776 39.1678 35.9988 38.3906 35.04 38.3906C34.0812 38.3906 33.304 39.1678 33.304 40.1266C33.304 41.0854 34.0812 41.8626 35.04 41.8626Z" stroke="#45413C" stroke-linecap="round" stroke-linejoin="round"/>
<path d="M48.353 48.8087H31.567V52.2817H48.353V48.8087Z" fill="#FFAA54" stroke="#45413C" stroke-linecap="round" stroke-linejoin="round"/>
<path d="M26.322 32.0027C26.299 32.0787 26.277 32.1547 26.255 32.2307C26.2336 32.3019 26.2344 32.3779 26.2574 32.4486C26.2804 32.5193 26.3244 32.5813 26.3835 32.6263C26.4426 32.6713 26.5141 32.6972 26.5884 32.7005C26.6626 32.7037 26.7361 32.6843 26.799 32.6447C31.663 29.6617 32.325 28.5857 30.809 23.9447C30.172 21.9997 32.04 12.8447 28.346 11.6087C27.3307 10.5721 26.1105 9.75859 24.7631 9.22019C23.4157 8.68179 21.9709 8.43029 20.5208 8.48179C19.0707 8.53319 17.6474 8.88659 16.3416 9.51919C15.0357 10.1517 13.8762 11.0497 12.937 12.1557L12.907 12.1907C12.16 13.4697 11.107 14.0757 11.107 19.6267C11.107 25.1777 9.26001 25.1787 9.26001 28.8797C9.26001 32.2217 12.048 33.0487 15.48 33.1797C15.5869 33.1865 15.6937 33.1646 15.7893 33.1162C15.8848 33.0678 15.9657 32.9947 16.0234 32.9044C16.0812 32.8142 16.1137 32.7102 16.1177 32.6031C16.1217 32.4961 16.0969 32.3899 16.046 32.2957C15.98 32.1707 15.91 32.0327 15.837 31.8797L26.322 32.0027Z" fill="#FFE500" stroke="#45413C" stroke-linecap="round" stroke-linejoin="round"/>
<path d="M28.0761 45.6376V74.7886H13.4321V52.9026H8.77205V44.2536C8.77205 41.5996 8.05305 33.7366 15.3221 30.1026C17.005 29.2614 18.8744 28.8626 20.7541 28.9436C22.6258 29.0113 24.4605 29.4838 26.1321 30.3286C27.6943 31.1037 29.0676 32.212 30.1551 33.5754C31.2425 34.9388 32.0178 36.5241 32.4261 38.2196C32.7141 39.3201 32.8593 40.453 32.8581 41.5906V47.2486C32.8396 48.024 33.1297 48.775 33.6646 49.3366C34.1996 49.8982 34.9357 50.2245 35.7111 50.2436C36.3086 50.2739 36.8716 50.5326 37.2838 50.9663C37.696 51.3999 37.9258 51.9753 37.9258 52.5736C37.9258 53.1719 37.696 53.7473 37.2838 54.1809C36.8716 54.6145 36.3086 54.8733 35.7111 54.9036C31.5001 54.9026 28.2051 51.4446 28.0761 45.6376Z" fill="#BF8DF2" stroke="#45413C" stroke-linecap="round" stroke-linejoin="round"/>
<path opacity="0.15" d="M20.754 80.8636C28.1065 80.8636 34.067 79.9695 34.067 78.8666C34.067 77.7637 28.1065 76.8696 20.754 76.8696C13.4014 76.8696 7.44104 77.7637 7.44104 78.8666C7.44104 79.9695 13.4014 80.8636 20.754 80.8636Z" fill="#45413C"/>
<path d="M13.432 52.9027V41.4027C13.4313 40.5788 13.1756 39.7754 12.7 39.1027C12.2941 38.4483 12.0858 37.6906 12.1 36.9207" stroke="#45413C" stroke-linecap="round" stroke-linejoin="round"/>
<path d="M20.73 58.8977V74.7897" stroke="#45413C" stroke-linecap="round" stroke-linejoin="round"/>
<path d="M28.076 48.2477H13.432V50.9107H28.076V48.2477Z" fill="#E0E0E0" stroke="#45413C" stroke-linecap="round" stroke-linejoin="round"/>
<path d="M22.751 48.2477H18.757V50.9107H22.751V48.2477Z" fill="#BDBEC0" stroke="#45413C" stroke-linecap="round" stroke-linejoin="round"/>
<path d="M8.77197 52.9027V55.9027C8.77197 56.5207 9.01747 57.1133 9.45437 57.5503C9.89137 57.9872 10.484 58.2327 11.102 58.2327C11.7199 58.2327 12.3126 57.9872 12.7495 57.5503C13.1865 57.1133 13.432 56.5207 13.432 55.9027V52.9027H8.77197Z" fill="#FFCEBF"/>
<path d="M8.77197 52.9027V55.9027C8.77197 56.5207 9.01747 57.1133 9.45437 57.5503C9.89137 57.9872 10.484 58.2327 11.102 58.2327C11.7199 58.2327 12.3126 57.9872 12.7495 57.5503C13.1865 57.1133 13.432 56.5207 13.432 55.9027V52.9027H8.77197Z" fill="#FF6242" stroke="#45413C" stroke-linecap="round" stroke-linejoin="round"/>
<path d="M18.051 42.1767C17.599 41.4447 14.058 35.6007 13.432 35.6007H12.1L15.375 30.3547L16.719 36.2657L18.051 42.1767Z" fill="#9F5AE5" stroke="#45413C" stroke-linecap="round" stroke-linejoin="round"/>
<path d="M29.407 35.6027H28.076C27.45 35.6027 23.909 41.4467 23.457 42.1787L24.788 36.2677L26.132 30.3567L29.407 35.6027Z" fill="#9F5AE5" stroke="#45413C" stroke-linecap="round" stroke-linejoin="round"/>
<path d="M30.049 78.7827C30.049 77.7234 29.6282 76.7075 28.8792 75.9585C28.1301 75.2095 27.1143 74.7887 26.055 74.7887H20.73V77.4517C20.73 77.6266 20.7644 77.7997 20.8314 77.9613C20.8983 78.1228 20.9965 78.2696 21.1202 78.3932C21.2439 78.5168 21.3907 78.6148 21.5523 78.6817C21.7139 78.7485 21.8871 78.7828 22.062 78.7827H30.049Z" fill="#87898C" stroke="#45413C" stroke-linecap="round" stroke-linejoin="round"/>
<path d="M22.751 78.7827C22.751 77.7234 22.3302 76.7075 21.5812 75.9585C20.8322 75.2095 19.8163 74.7887 18.757 74.7887H13.432V77.4517C13.432 77.8047 13.5722 78.1432 13.8218 78.3929C14.0715 78.6425 14.41 78.7827 14.763 78.7827H22.751Z" fill="#87898C" stroke="#45413C" stroke-linecap="round" stroke-linejoin="round"/>
<path d="M28.076 41.4087C28.076 40.5826 28.3326 39.7768 28.8101 39.1027C29.216 38.4483 29.4242 37.6906 29.41 36.9207" stroke="#45413C" stroke-linecap="round" stroke-linejoin="round"/>
<path d="M28.076 45.6367V41.4087" stroke="#45413C" stroke-linecap="round" stroke-linejoin="round"/>
<path d="M34.685 50.0447C35.0109 50.1769 35.3593 50.2449 35.711 50.2447C36.3085 50.275 36.8715 50.5337 37.2837 50.9674C37.6959 51.401 37.9257 51.9764 37.9257 52.5747C37.9257 53.173 37.6959 53.7484 37.2837 54.182C36.8715 54.6157 36.3085 54.8744 35.711 54.9047C34.5232 54.9132 33.3528 54.6182 32.311 54.0477L34.685 50.0447Z" fill="#FF6242" stroke="#45413C" stroke-linecap="round" stroke-linejoin="round"/>
<path d="M24.026 29.4967C23.7857 29.4262 23.5749 29.2797 23.4249 29.0793C23.2749 28.8788 23.1938 28.6351 23.194 28.3847V23.9847H18.334V28.1937C18.334 28.4509 18.2484 28.7008 18.0907 28.9039C17.933 29.1071 17.7122 29.252 17.463 29.3157C16.7244 29.5011 16.0079 29.7656 15.326 30.1047L16.726 36.2677L19.4261 48.2497H22.0891L24.789 36.2677L26.134 30.3307C25.4593 29.9865 24.7535 29.7072 24.026 29.4967Z" fill="#FFCEBF" stroke="#45413C" stroke-linecap="round" stroke-linejoin="round"/>
<path d="M24.788 36.2656L22.085 48.2476H19.423L16.72 36.2656H24.788Z" fill="white" stroke="#45413C" stroke-linecap="round" stroke-linejoin="round"/>
<path d="M20.754 36.2657V34.9347" stroke="#45413C" stroke-linecap="round" stroke-linejoin="round"/>
<path d="M20.958 10.3746C18.9972 10.3764 17.1174 11.1571 15.7321 12.5448C14.3468 13.9326 13.5694 15.8138 13.571 17.7746V18.7626C13.2115 18.8301 12.8886 19.0257 12.6624 19.3132C12.4361 19.6007 12.3218 19.9605 12.3408 20.3259C12.3597 20.6912 12.5105 21.0373 12.7653 21.2999C13.0201 21.5624 13.3614 21.7236 13.726 21.7536C14.0956 23.547 15.118 25.1391 16.5951 26.2212C18.0722 27.3033 19.8986 27.7982 21.7199 27.6098C23.5412 27.4215 25.2276 26.5633 26.452 25.2018C27.6763 23.8404 28.3513 22.0726 28.346 20.2416V17.7766C28.3466 15.8157 27.5688 13.9348 26.1836 12.5469C24.7983 11.1591 22.9189 10.3778 20.958 10.3746Z" fill="#FFCEBF" stroke="#45413C" stroke-linecap="round" stroke-linejoin="round"/>
<path d="M20.035 19.6257C20.5453 19.6257 20.959 19.212 20.959 18.7017C20.959 18.1914 20.5453 17.7777 20.035 17.7777C19.5247 17.7777 19.111 18.1914 19.111 18.7017C19.111 19.212 19.5247 19.6257 20.035 19.6257Z" fill="#45413C"/>
<path d="M24.96 19.6257C25.4703 19.6257 25.884 19.212 25.884 18.7017C25.884 18.1914 25.4703 17.7777 24.96 17.7777C24.4497 17.7777 24.036 18.1914 24.036 18.7017C24.036 19.212 24.4497 19.6257 24.96 19.6257Z" fill="#45413C"/>
<path d="M17.5719 22.0937C18.0822 22.0937 18.4959 21.68 18.4959 21.1697C18.4959 20.6594 18.0822 20.2457 17.5719 20.2457C17.0616 20.2457 16.6479 20.6594 16.6479 21.1697C16.6479 21.68 17.0616 22.0937 17.5719 22.0937Z" fill="#FFB59E"/>
<path d="M20.343 23.3846C20.8898 23.7498 21.5325 23.9448 22.19 23.9448C22.8475 23.9448 23.4903 23.7498 24.037 23.3846" stroke="#45413C" stroke-linecap="round" stroke-linejoin="round"/>
<path d="M12.907 12.1907C12.16 13.4697 11.107 14.0757 11.107 19.6277C11.107 25.1797 9.26001 25.1787 9.26001 28.8797C9.26001 32.2217 12.048 33.0487 15.48 33.1797C15.5869 33.1865 15.6937 33.1646 15.7893 33.1162C15.8848 33.0678 15.9657 32.9947 16.0234 32.9044C16.0812 32.8142 16.1137 32.7102 16.1177 32.6031C16.1217 32.4961 16.0969 32.3899 16.046 32.2957C15.169 30.6397 13.57 26.5547 13.57 18.7667C16.449 19.4937 25.27 14.8567 24.651 13.4607C27.114 13.4607 28.345 17.7787 28.345 17.7787V22.7957C28.345 26.0567 27.169 29.1027 26.254 32.2307C26.2326 32.3019 26.2334 32.3779 26.2564 32.4486C26.2794 32.5193 26.3234 32.5813 26.3825 32.6263C26.4416 32.6713 26.5131 32.6972 26.5874 32.7005C26.6616 32.7037 26.7351 32.6843 26.798 32.6447C31.662 29.6617 32.324 28.5857 30.808 23.9447C30.172 21.9997 32.039 12.8447 28.345 11.6087C27.3297 10.5721 26.1095 9.75859 24.7621 9.22019C23.4147 8.68179 21.9699 8.43029 20.5198 8.48179C19.0697 8.53319 17.6464 8.88659 16.3406 9.51919C15.0347 10.1517 13.8752 11.0497 12.936 12.1557L12.907 12.1907Z" fill="#FFE500"/>
<path d="M12.907 12.1907C12.16 13.4697 11.107 14.0757 11.107 19.6277C11.107 25.1797 9.26001 25.1787 9.26001 28.8797C9.26001 32.2217 12.048 33.0487 15.48 33.1797C15.5869 33.1865 15.6937 33.1646 15.7893 33.1162C15.8848 33.0678 15.9657 32.9947 16.0234 32.9044C16.0812 32.8142 16.1137 32.7102 16.1177 32.6031C16.1217 32.4961 16.0969 32.3899 16.046 32.2957C15.169 30.6397 13.57 26.5547 13.57 18.7667C16.449 19.4937 25.27 14.8567 24.651 13.4607C27.114 13.4607 28.345 17.7787 28.345 17.7787V22.7957C28.345 26.0567 27.169 29.1027 26.254 32.2307C26.2326 32.3019 26.2334 32.3779 26.2564 32.4486C26.2794 32.5193 26.3234 32.5813 26.3825 32.6263C26.4416 32.6713 26.5131 32.6972 26.5874 32.7005C26.6616 32.7037 26.7351 32.6843 26.798 32.6447C31.662 29.6617 32.324 28.5857 30.808 23.9447C30.172 21.9997 32.039 12.8447 28.345 11.6087C27.3297 10.5721 26.1095 9.75859 24.7621 9.22019C23.4147 8.68179 21.9699 8.43029 20.5198 8.48179C19.0697 8.53319 17.6464 8.88659 16.3406 9.51919C15.0347 10.1517 13.8752 11.0497 12.936 12.1557L12.907 12.1907Z" stroke="#45413C" stroke-linecap="round" stroke-linejoin="round"/>
<path d="M31.46 16.2587C31.46 13.4813 30.3567 10.8178 28.3928 8.85394C26.4289 6.89004 23.7653 5.78674 20.988 5.78674C18.2106 5.78674 15.547 6.89004 13.5832 8.85394C11.6193 10.8178 10.516 13.4813 10.516 16.2587H31.46Z" fill="#FF6242" stroke="#45413C" stroke-linecap="round" stroke-linejoin="round"/>
<path d="M20.524 4.9137C18.5526 4.9962 16.6452 5.6371 15.024 6.7617C19.034 7.3737 22.124 11.8677 22.124 16.2617H27.1C27.1 11.5627 24.387 6.6387 20.524 4.9137Z" fill="#FF6242" stroke="#45413C" stroke-linecap="round" stroke-linejoin="round"/>
<path d="M17.4999 13.6407C17.427 12.5076 16.944 11.4397 16.1413 10.6366C15.3386 9.83363 14.271 9.35013 13.1379 9.27673" stroke="#45413C" stroke-linecap="round" stroke-linejoin="round"/>
<path d="M59.5 40.5027H63.5V49.5027H59.5V40.5027Z" fill="#6DD627" stroke="#45413C" stroke-linecap="round" stroke-linejoin="round"/>
<path d="M73.2929 41.4097C73.6834 41.0192 74.3166 41.0192 74.7071 41.4097V41.4097C75.0976 41.8003 75.0976 42.4334 74.7071 42.824L68.3431 49.1879C67.9526 49.5784 67.3195 49.5784 66.9289 49.1879V49.1879C66.5384 48.7974 66.5384 48.1642 66.9289 47.7737L73.2929 41.4097Z" fill="#C14EFF" stroke="#45413C" stroke-linecap="round" stroke-linejoin="round"/>
<path d="M53.5 40.5027H57.5V49.5027H53.5V40.5027Z" fill="#6DD627" stroke="#45413C" stroke-linecap="round" stroke-linejoin="round"/>
<path d="M72.5 47.5027C72.5 48.0331 72.7107 48.5418 73.0858 48.9169C73.4609 49.292 73.9696 49.5027 74.5 49.5027C75.0304 49.5027 75.5391 49.292 75.9142 48.9169C76.2893 48.5418 76.5 48.0331 76.5 47.5027C76.5 46.9723 76.2893 46.4635 75.9142 46.0885C75.5391 45.7134 75.0304 45.5027 74.5 45.5027C73.9696 45.5027 73.4609 45.7134 73.0858 46.0885C72.7107 46.4635 72.5 46.9723 72.5 47.5027Z" fill="#FFE500"/>
<path d="M76.4837 47.5027C76.4248 47.0732 76.1906 46.6777 75.8251 46.3909C75.4597 46.104 74.9883 45.9456 74.5 45.9456C74.0118 45.9456 73.5404 46.104 73.175 46.3909C72.8095 46.6777 72.5752 47.0732 72.5164 47.5027C72.5055 47.4271 72.5 47.3509 72.5 47.2747C72.5 46.8047 72.7107 46.354 73.0858 46.0217C73.4609 45.6894 73.9696 45.5027 74.5 45.5027C75.0304 45.5027 75.5391 45.6894 75.9142 46.0217C76.2893 46.354 76.5 46.8047 76.5 47.2747C76.5 47.3509 76.4946 47.4271 76.4837 47.5027Z" fill="#FFF48C"/>
<path d="M72.5 47.5027C72.5 48.0331 72.7107 48.5418 73.0858 48.9169C73.4609 49.292 73.9696 49.5027 74.5 49.5027C75.0304 49.5027 75.5391 49.292 75.9142 48.9169C76.2893 48.5418 76.5 48.0331 76.5 47.5027C76.5 46.9723 76.2893 46.4635 75.9142 46.0885C75.5391 45.7134 75.0304 45.5027 74.5 45.5027C73.9696 45.5027 73.4609 45.7134 73.0858 46.0885C72.7107 46.4635 72.5 46.9723 72.5 47.5027Z" stroke="#45413C" stroke-linecap="round" stroke-linejoin="round"/>
</g>
<defs>
<clipPath id="clip0_153_2">
<rect width="87" height="87" fill="white"/>
</clipPath>
</defs>
</svg>
