<svg viewBox="0 0 100 100" xmlns="http://www.w3.org/2000/svg" id="Detective-1-4--Streamline-Ux" height="100" width="100"><desc>Detective 1 4 Streamline Illustration: https://streamlinehq.com</desc><path d="M90.5 50.663a40 40 0 1 0 -76.436 16.5h72.872a39.844 39.844 0 0 0 3.564 -16.5Z" fill="#b8ecff" stroke-width="1"></path><path d="M14.064 67.163a40 40 0 0 0 72.872 0Z" fill="#f0d3a8" stroke-width="1"></path><path d="m11 67.163 78 0" fill="none" stroke="#45413c" stroke-linecap="round" stroke-linejoin="round" stroke-width="1"></path><path d="m6.5 67.163 2.5 0" fill="none" stroke="#45413c" stroke-linecap="round" stroke-linejoin="round" stroke-width="1"></path><path d="m91 67.163 2.5 0" fill="none" stroke="#45413c" stroke-linecap="round" stroke-linejoin="round" stroke-width="1"></path><path d="M76.8 33.953c-1.423 -0.359 -2.157 -2.065 -2.7 -3.929v-4.377a12.6 12.6 0 1 0 -25.2 0v4.377c-0.539 1.864 -1.273 3.57 -2.7 3.929 -2.659 0.671 -1.3 4.242 0.31 5.986a8.092 8.092 0 0 0 5.99 2.453 20.78 20.78 0 0 0 9 2.614 20.78 20.78 0 0 0 9.007 -2.614 8.092 8.092 0 0 0 5.979 -2.453c1.614 -1.739 2.972 -5.315 0.314 -5.986Z" fill="#614b44" stroke="#45413c" stroke-linecap="round" stroke-linejoin="round" stroke-width="1"></path><path d="M61.5 42.653a16.425 16.425 0 0 0 -16.273 16.424v8.011h32.55v-8.011A16.424 16.424 0 0 0 61.5 42.653Z" fill="#b89558" stroke-width="1"></path><path d="M61.5 42.653a16.425 16.425 0 0 0 -16.273 16.424v5.01a16.276 16.276 0 1 1 32.55 0v-5.01A16.424 16.424 0 0 0 61.5 42.653Z" fill="#debb7e" stroke-width="1"></path><path d="M61.5 42.653a16.425 16.425 0 0 0 -16.273 16.424v8.011h32.55v-8.011A16.424 16.424 0 0 0 61.5 42.653Z" fill="none" stroke="#45413c" stroke-linecap="round" stroke-linejoin="round" stroke-width="1"></path><path d="M69.82 45a15.913 15.913 0 0 0 -16.636 0 8.818 8.818 0 0 0 8.316 7.386A8.818 8.818 0 0 0 69.82 45Z" fill="#ffffff" stroke="#45413c" stroke-linecap="round" stroke-linejoin="round" stroke-width="1"></path><path d="M56.252 38.738v4.512a2.547 2.547 0 0 0 2.02 2.437 13.306 13.306 0 0 0 6.46 0 2.547 2.547 0 0 0 2.02 -2.437v-4.512Z" fill="#daedf7" stroke="#45413c" stroke-linecap="round" stroke-linejoin="round" stroke-width="1"></path><path d="m59.402 45.902 0 -4.225" fill="none" stroke="#45413c" stroke-linecap="round" stroke-linejoin="round" stroke-width="1"></path><path d="m63.602 45.891 0 -4.214" fill="none" stroke="#45413c" stroke-linecap="round" stroke-linejoin="round" stroke-width="1"></path><path d="m76.6359379546 59.8811667863 0.9605027725 -2.9369260161 1.6785149982 0.5489475392 -0.9605027725 2.9369260161z" fill="#f8f8f8" stroke="#45413c" stroke-linecap="round" stroke-linejoin="round" stroke-width="1"></path><path d="M79.9417396592 58.10511079a6.622 6.622 0 1 0 0.2718149677 -13.2412103911 6.622 6.622 0 1 0 -0.2718149677 13.2412103911Z" fill="#f8f8f8" stroke="#45413c" stroke-linecap="round" stroke-linejoin="round" stroke-width="1"></path><path d="M84.615 52.968a4.773 4.773 0 1 1 -3.053 -6.02 4.774 4.774 0 0 1 3.053 6.02Z" fill="#00b8f0" stroke-width="1"></path><path d="M84.337 49.331a4.773 4.773 0 1 0 -8.513 4.317Z" fill="#4acfff" stroke-width="1"></path><path d="M84.615 52.968a4.773 4.773 0 1 1 -3.053 -6.02 4.774 4.774 0 0 1 3.053 6.02Z" fill="none" stroke="#45413c" stroke-width="1"></path><path d="M75.347 66.659a1.324 1.324 0 0 1 -0.847 -1.67l1.716 -5.245a0.441 0.441 0 0 1 0.556 -0.283l1.679 0.549a0.441 0.441 0 0 1 0.282 0.557l-1.715 5.245a1.325 1.325 0 0 1 -1.671 0.847Z" fill="#e09f7e" stroke-width="1"></path><path d="m77.612 59.736 -0.84 -0.275a0.441 0.441 0 0 0 -0.556 0.283L74.5 64.989a1.324 1.324 0 0 0 0.847 1.67Z" fill="#f0c2a1" stroke-width="1"></path><path d="M75.347 66.659a1.324 1.324 0 0 1 -0.847 -1.67l1.716 -5.245a0.441 0.441 0 0 1 0.556 -0.283l1.679 0.549a0.441 0.441 0 0 1 0.282 0.557l-1.715 5.245a1.325 1.325 0 0 1 -1.671 0.847Z" fill="none" stroke="#45413c" stroke-width="1"></path><path d="M79.121 69.542a1.263 1.263 0 0 1 -1.355 0.675l-2.874 -0.524a3.032 3.032 0 0 1 -2.438 -3.528l0.272 -1.491a3.031 3.031 0 0 1 3.527 -2.439l2.874 0.524a1.264 1.264 0 0 1 1.029 1.11 10.21 10.21 0 0 1 -1.035 5.673Z" fill="#bf8256" stroke-width="1"></path><path d="m73.35 68.221 0.273 -1.491a3.031 3.031 0 0 1 3.527 -2.439l2.874 0.524a1.265 1.265 0 0 1 0.188 0.05q0 -0.5 -0.056 -1a1.264 1.264 0 0 0 -1.029 -1.11l-2.874 -0.524a3.031 3.031 0 0 0 -3.527 2.439l-0.272 1.491a3.028 3.028 0 0 0 0.849 2.7 3.052 3.052 0 0 1 0.047 -0.64Z" fill="#e09f7e" stroke-width="1"></path><path d="M79.121 69.542a1.263 1.263 0 0 1 -1.355 0.675l-2.874 -0.524a3.032 3.032 0 0 1 -2.438 -3.528l0.272 -1.491a3.031 3.031 0 0 1 3.527 -2.439l2.874 0.524a1.264 1.264 0 0 1 1.029 1.11 10.21 10.21 0 0 1 -1.035 5.673Z" fill="none" stroke="#45413c" stroke-linecap="round" stroke-linejoin="round" stroke-width="1"></path><path d="m72.002 67.088 0 -6.825" fill="none" stroke="#45413c" stroke-linecap="round" stroke-linejoin="round" stroke-width="1"></path><path d="m51.002 67.088 0 -6.825" fill="none" stroke="#45413c" stroke-linecap="round" stroke-linejoin="round" stroke-width="1"></path><path d="M20.462 73.913a20.258 1.575 0 1 0 40.516 0 20.258 1.575 0 1 0 -40.516 0Z" fill="#45413c" opacity=".15" stroke-width="1"></path><path d="M45.7 69.7h2.527L42.189 51a1.265 1.265 0 0 0 -1.2 -0.876h-1.61" fill="#daedf7" stroke="#45413c" stroke-linejoin="round" stroke-width="1"></path><path d="M21.058 69.7H45.7l-6.321 -19.581h-22.9a1.264 1.264 0 0 0 -1.2 1.652Z" fill="#adc4d9" stroke="#45413c" stroke-linejoin="round" stroke-width="1"></path><path d="m22.714 50.119 16.665 0 6.318 19.585 -3.398 0 -19.585 -19.585z" fill="#adc4d9" stroke-width="1"></path><path d="M21.058 69.7h25.9v3.159H23.585a2.527 2.527 0 0 1 -2.527 -2.527Z" fill="#adc4d9" stroke="#45413c" stroke-linejoin="round" stroke-width="1"></path><path d="M46.96 69.7H59.6v0.632a2.527 2.527 0 0 1 -2.527 2.527H46.96Z" fill="#daedf7" stroke="#45413c" stroke-linejoin="round" stroke-width="1"></path><path d="M31.6 59.214a1.405 1.405 0 0 1 0.67 -1.182 1.453 1.453 0 0 0 -1.135 -0.615c-0.483 -0.049 -0.943 0.285 -1.188 0.285s-0.624 -0.277 -1.024 -0.27a1.52 1.52 0 0 0 -1.285 0.778 3.234 3.234 0 0 0 0.394 3.128c0.26 0.376 0.572 0.8 0.98 0.784 0.393 -0.015 0.541 -0.254 1.016 -0.254s0.609 0.254 1.025 0.247 0.691 -0.384 0.95 -0.763a3.455 3.455 0 0 0 0.43 -0.883 1.368 1.368 0 0 1 -0.833 -1.255Z" fill="none" stroke="#45413c" stroke-linejoin="round" stroke-width="1"></path><path d="m30.534 55.805 0.57 -0.57" fill="none" stroke="#45413c" stroke-linecap="round" stroke-linejoin="round" stroke-width="1"></path><path d="M21.058 69.7H45.7l-6.321 -19.581h-22.9a1.264 1.264 0 0 0 -1.2 1.652Z" fill="none" stroke="#45413c" stroke-linejoin="round" stroke-width="1"></path><path d="M72 28.941v-2.8a10.5 10.5 0 1 0 -21 0v2.836a1.872 1.872 0 0 0 -2.1 1.889 2.1 2.1 0 0 0 2.1 2.1c0.044 0 0.085 -0.01 0.129 -0.013a10.486 10.486 0 0 0 20.742 0c0.044 0 0.085 0.013 0.129 0.013a2.1 2.1 0 0 0 2.1 -2.1 1.919 1.919 0 0 0 -2.1 -1.925Z" fill="#bf8256" stroke="#45413c" stroke-linecap="round" stroke-linejoin="round" stroke-width="1"></path><path d="M54.153 33.225a1.312 1.312 0 1 0 2.624 0 1.312 1.312 0 1 0 -2.624 0Z" fill="#bf8256" stroke-width="1"></path><path d="M66.228 33.225a1.312 1.312 0 1 0 2.624 0 1.312 1.312 0 1 0 -2.624 0Z" fill="#bf8256" stroke-width="1"></path><path d="M64.652 35.891a4.539 4.539 0 0 1 -6.3 0" fill="none" stroke="#45413c" stroke-linecap="round" stroke-linejoin="round" stroke-width="1"></path><path d="M58.877 29.812a1.706 1.706 0 0 0 -3.15 0" fill="none" stroke="#45413c" stroke-linecap="round" stroke-linejoin="round" stroke-width="1"></path><path d="M67.277 29.812a1.706 1.706 0 0 0 -3.15 0" fill="none" stroke="#45413c" stroke-linecap="round" stroke-linejoin="round" stroke-width="1"></path><path d="M61.5 13.013a12.635 12.635 0 0 0 -12.6 12.634v5.2a1.9 1.9 0 0 1 1.9 -1.9c3.156 0.534 5.124 -2.87 5.98 -8.08 3.9 3.645 14.372 8.259 15.43 8.08a1.9 1.9 0 0 1 1.9 1.895v-5.195A12.635 12.635 0 0 0 61.5 13.013Z" fill="#614b44" stroke-width="1"></path><path d="M61.5 13.013a12.635 12.635 0 0 0 -12.6 12.634v5.2a1.9 1.9 0 0 1 1.9 -1.9c3.156 0.534 5.124 -2.87 5.98 -8.08 3.9 3.645 14.372 8.259 15.43 8.08a1.9 1.9 0 0 1 1.9 1.895v-5.195A12.635 12.635 0 0 0 61.5 13.013Z" fill="none" stroke="#45413c" stroke-linecap="round" stroke-linejoin="round" stroke-width="1"></path><path d="M59.927 10.912a1.575 1.575 0 1 0 3.15 0 1.575 1.575 0 1 0 -3.15 0Z" fill="#debb7e" stroke="#45413c" stroke-linecap="round" stroke-linejoin="round" stroke-width="1"></path><path d="M61.5 11.962c-7.483 0 -12.075 5.581 -12.075 11.55h24.15c0.002 -5.969 -4.59 -11.55 -12.075 -11.55Z" fill="#b89558" stroke-width="1"></path><path d="M61.5 14.062c6.595 0 10.944 4.335 11.883 9.45h0.192c0 -5.969 -4.592 -11.55 -12.075 -11.55s-12.075 5.581 -12.075 11.55h0.192c0.942 -5.112 5.29 -9.45 11.883 -9.45Z" fill="#debb7e" stroke-width="1"></path><path d="M61.5 11.962c-7.483 0 -12.075 5.581 -12.075 11.55h24.15c0.002 -5.969 -4.59 -11.55 -12.075 -11.55Z" fill="none" stroke="#45413c" stroke-linecap="round" stroke-linejoin="round" stroke-width="1"></path><path d="M61.5 11.978c4.75 0.285 6.993 4.458 6.816 9.453" fill="none" stroke="#45413c" stroke-linecap="round" stroke-linejoin="round" stroke-width="1"></path><path d="M61.5 11.978c-4.751 0.285 -6.994 4.459 -6.816 9.456" fill="none" stroke="#45413c" stroke-linecap="round" stroke-linejoin="round" stroke-width="1"></path><path d="M61.5 20.088c-5.049 0.032 -12.075 3.424 -12.075 3.424 0.965 1.051 1.456 3.43 4.182 2.462a3.84 3.84 0 0 0 0.507 -0.222 15.5 15.5 0 0 1 14.772 0 3.84 3.84 0 0 0 0.507 0.222c2.726 0.968 3.217 -1.411 4.182 -2.462 0.002 0 -7.024 -3.392 -12.075 -3.424Z" fill="#b89558" stroke="#45413c" stroke-linecap="round" stroke-linejoin="round" stroke-width="1"></path></svg>