<svg width="82" height="82" viewBox="0 0 82 82" fill="none" xmlns="http://www.w3.org/2000/svg">
<path d="M1 41C1 51.6087 5.21427 61.7828 12.7157 69.2843C20.2172 76.7857 30.3913 81 41 81C51.6087 81 61.7828 76.7857 69.2843 69.2843C76.7857 61.7828 81 51.6087 81 41C81 30.3913 76.7857 20.2172 69.2843 12.7157C61.7828 5.21427 51.6087 1 41 1C30.3913 1 20.2172 5.21427 12.7157 12.7157C5.21427 20.2172 1 30.3913 1 41Z" fill="#DAEDF7" stroke="#DAEDF7"/>
<path d="M7.93799 56.511C7.93799 60.5359 9.53688 64.396 12.3829 67.242C15.229 70.0881 19.0891 71.687 23.114 71.687C27.1389 71.687 30.999 70.0881 33.845 67.242C36.6911 64.396 38.29 60.5359 38.29 56.511C38.29 52.486 36.6911 48.626 33.845 45.7799C30.999 42.9339 27.1389 41.335 23.114 41.335C19.0891 41.335 15.229 42.9339 12.3829 45.7799C9.53688 48.626 7.93799 52.486 7.93799 56.511Z" fill="#FFF48C" stroke="#45413C" stroke-linecap="round" stroke-linejoin="round"/>
<path d="M34.5 56.511C34.5 58.762 33.8326 60.9624 32.5821 62.8341C31.3316 64.7058 29.5542 66.1646 27.4746 67.0262C25.3951 67.8878 23.1067 68.1135 20.8989 67.6746C18.6912 67.2358 16.6631 66.1521 15.0711 64.5607C13.4792 62.9693 12.3948 60.9416 11.9552 58.734C11.5156 56.5264 11.7404 54.238 12.6013 52.1581C13.4621 50.0782 14.9204 48.3003 16.7916 47.0492C18.6628 45.798 20.863 45.1298 23.114 45.129C24.609 45.1285 26.0895 45.4225 27.4709 45.9943C28.8523 46.566 30.1075 47.4044 31.1649 48.4613C32.2222 49.5183 33.061 50.7732 33.6332 52.1544C34.2055 53.5356 34.5 55.016 34.5 56.511Z" fill="white"/>
<path d="M34.332 58.447C33.8942 55.7877 32.5259 53.3704 30.4712 51.6263C28.4166 49.8822 25.8091 48.9248 23.114 48.9248C20.4189 48.9248 17.8114 49.8822 15.7568 51.6263C13.7021 53.3704 12.3338 55.7877 11.896 58.447C11.6156 56.8132 11.6955 55.1379 12.13 53.5382C12.5645 51.9385 13.3432 50.4531 14.4116 49.1857C15.48 47.9183 16.8124 46.8995 18.3155 46.2007C19.8187 45.5018 21.4563 45.1398 23.114 45.1398C24.7716 45.1398 26.4093 45.5018 27.9124 46.2007C29.4156 46.8995 30.7479 47.9183 31.8164 49.1857C32.8848 50.4531 33.6635 51.9385 34.098 53.5382C34.5325 55.1379 34.6124 56.8132 34.332 58.447Z" fill="#F8F8F8"/>
<path d="M34.5 56.511C34.5 58.762 33.8326 60.9624 32.5821 62.8341C31.3316 64.7058 29.5542 66.1646 27.4746 67.0262C25.3951 67.8878 23.1067 68.1135 20.8989 67.6746C18.6912 67.2358 16.6631 66.1521 15.0711 64.5607C13.4792 62.9693 12.3948 60.9416 11.9552 58.734C11.5156 56.5264 11.7404 54.238 12.6013 52.1581C13.4621 50.0782 14.9204 48.3003 16.7916 47.0492C18.6628 45.798 20.863 45.1298 23.114 45.129C24.609 45.1285 26.0895 45.4225 27.4709 45.9943C28.8523 46.566 30.1075 47.4044 31.1649 48.4613C32.2222 49.5183 33.061 50.7732 33.6332 52.1544C34.2055 53.5356 34.5 55.016 34.5 56.511Z" stroke="#45413C" stroke-linecap="round" stroke-linejoin="round"/>
<path d="M23.084 51.718L23.114 56.481L23.067 59.56" stroke="#45413C" stroke-linecap="round" stroke-linejoin="round"/>
<path d="M23.084 65.066V63.64" stroke="#45413C" stroke-linecap="round" stroke-linejoin="round"/>
<path d="M23.084 47.9561V49.3821" stroke="#45413C" stroke-linecap="round" stroke-linejoin="round"/>
<path d="M29.134 50.462L28.125 51.47" stroke="#45413C" stroke-linecap="round" stroke-linejoin="round"/>
<path d="M31.639 56.511H30.213" stroke="#45413C" stroke-linecap="round" stroke-linejoin="round"/>
<path d="M29.134 62.56L28.125 61.552" stroke="#45413C" stroke-linecap="round" stroke-linejoin="round"/>
<path d="M17.035 62.56L18.044 61.552" stroke="#45413C" stroke-linecap="round" stroke-linejoin="round"/>
<path d="M14.53 56.511H15.955" stroke="#45413C" stroke-linecap="round" stroke-linejoin="round"/>
<path d="M17.035 50.462L18.044 51.47" stroke="#45413C" stroke-linecap="round" stroke-linejoin="round"/>
<path d="M44.043 56.511C44.043 58.5039 44.4355 60.4773 45.1982 62.3186C45.9609 64.1598 47.0787 65.8328 48.4879 67.242C49.8972 68.6512 51.5702 69.7691 53.4114 70.5318C55.2526 71.2944 57.2261 71.687 59.219 71.687C61.2119 71.687 63.1854 71.2944 65.0266 70.5318C66.8678 69.7691 68.5408 68.6512 69.9501 67.242C71.3593 65.8328 72.4771 64.1598 73.2398 62.3186C74.0025 60.4773 74.395 58.5039 74.395 56.511C74.395 52.486 72.7961 48.626 69.9501 45.7799C67.104 42.9339 63.2439 41.335 59.219 41.335C55.1941 41.335 51.334 42.9339 48.4879 45.7799C45.6419 48.626 44.043 52.486 44.043 56.511Z" fill="#4ACFFF" stroke="#45413C" stroke-linecap="round" stroke-linejoin="round"/>
<path d="M70.6 56.511C70.6002 58.7625 69.9327 60.9635 68.682 62.8356C67.4312 64.7077 65.6534 66.1668 63.5733 67.0285C61.4932 67.8901 59.2044 68.1155 56.9962 67.6763C54.7879 67.237 52.7596 66.1528 51.1676 64.5607C49.5757 62.9686 48.4916 60.9401 48.0525 58.7319C47.6135 56.5236 47.8391 54.2348 48.7009 52.1548C49.5628 50.0748 51.0221 48.2971 52.8943 47.0465C54.7665 45.7959 56.9675 45.1286 59.219 45.129C62.2375 45.1293 65.1323 46.3286 67.2666 48.4631C69.401 50.5976 70.6 53.4925 70.6 56.511Z" fill="white"/>
<path d="M70.437 58.447C69.9998 55.787 68.6318 53.369 66.5769 51.6243C64.5221 49.8795 61.9141 48.9217 59.2185 48.9217C56.5229 48.9217 53.9149 49.8795 51.8601 51.6243C49.8052 53.369 48.4372 55.787 48 58.447C47.891 57.8074 47.8361 57.1598 47.836 56.511C47.8359 54.9342 48.1633 53.3745 48.7977 51.931C49.432 50.4874 50.3593 49.1913 51.5208 48.1249C52.6824 47.0586 54.0528 46.2451 55.5452 45.7362C57.0376 45.2273 58.6195 45.034 60.1906 45.1686C61.7616 45.3032 63.2876 45.7627 64.6717 46.518C66.0558 47.2734 67.2679 48.308 68.2312 49.5564C69.1944 50.8048 69.8878 52.2397 70.2673 53.7701C70.6469 55.3006 70.7053 56.8932 70.437 58.447Z" fill="#F8F8F8"/>
<path d="M70.6 56.511C70.6002 58.7625 69.9327 60.9635 68.682 62.8356C67.4312 64.7077 65.6534 66.1668 63.5733 67.0285C61.4932 67.8901 59.2044 68.1155 56.9962 67.6763C54.7879 67.237 52.7596 66.1528 51.1676 64.5607C49.5757 62.9686 48.4916 60.9401 48.0525 58.7319C47.6135 56.5236 47.8391 54.2348 48.7009 52.1548C49.5628 50.0748 51.0221 48.2971 52.8943 47.0465C54.7665 45.7959 56.9675 45.1286 59.219 45.129C62.2375 45.1293 65.1323 46.3286 67.2666 48.4631C69.401 50.5976 70.6 53.4925 70.6 56.511Z" stroke="#45413C" stroke-linecap="round" stroke-linejoin="round"/>
<path d="M59.219 51.718L59.248 56.481L61.93 58.457" stroke="#45413C" stroke-linecap="round" stroke-linejoin="round"/>
<path d="M59.219 65.066V63.64" stroke="#45413C" stroke-linecap="round" stroke-linejoin="round"/>
<path d="M59.219 47.9561V49.3821" stroke="#45413C" stroke-linecap="round" stroke-linejoin="round"/>
<path d="M65.268 50.462L64.26 51.47" stroke="#45413C" stroke-linecap="round" stroke-linejoin="round"/>
<path d="M67.773 56.511H66.348" stroke="#45413C" stroke-linecap="round" stroke-linejoin="round"/>
<path d="M65.268 62.56L64.26 61.552" stroke="#45413C" stroke-linecap="round" stroke-linejoin="round"/>
<path d="M53.17 62.56L54.178 61.552" stroke="#45413C" stroke-linecap="round" stroke-linejoin="round"/>
<path d="M50.664 56.511H52.09" stroke="#45413C" stroke-linecap="round" stroke-linejoin="round"/>
<path d="M53.17 50.462L54.178 51.47" stroke="#45413C" stroke-linecap="round" stroke-linejoin="round"/>
<path d="M22.792 21.833C22.792 26.796 24.7635 31.5557 28.2729 35.0651C31.7823 38.5745 36.542 40.546 41.505 40.546C46.468 40.546 51.2277 38.5745 54.7371 35.0651C58.2465 31.5557 60.218 26.796 60.218 21.833C60.218 16.87 58.2465 12.1103 54.7371 8.60091C51.2277 5.09154 46.468 3.12 41.505 3.12C36.542 3.12 31.7823 5.09154 28.2729 8.60091C24.7635 12.1103 22.792 16.87 22.792 21.833Z" fill="#FF6242" stroke="#45413C" stroke-linecap="round" stroke-linejoin="round"/>
<path d="M55.539 21.833C55.5394 24.609 54.7166 27.3228 53.1746 29.6311C51.6326 31.9395 49.4407 33.7387 46.8761 34.8012C44.3115 35.8638 41.4894 36.1419 38.7668 35.6005C36.0441 35.0591 33.5431 33.7225 31.5801 31.7596C29.6171 29.7968 28.2803 27.2959 27.7387 24.5733C27.1971 21.8506 27.4751 19.0285 28.5374 16.4639C29.5998 13.8992 31.3989 11.7072 33.7071 10.165C36.0153 8.62287 38.729 7.79985 41.505 7.80005C45.2268 7.80031 48.7961 9.27884 51.4279 11.9105C54.0597 14.5421 55.5385 18.1113 55.539 21.833Z" fill="white"/>
<path d="M55.337 24.22C54.798 20.9402 53.1112 17.9586 50.5776 15.8073C48.0439 13.656 44.8283 12.4749 41.5045 12.4749C38.1807 12.4749 34.965 13.656 32.4314 15.8073C29.8977 17.9586 28.2109 20.9402 27.672 24.22C27.326 22.2053 27.4243 20.1394 27.9599 18.1666C28.4956 16.1939 29.4557 14.362 30.7732 12.799C32.0906 11.236 33.7336 9.97966 35.5872 9.11782C37.4408 8.25598 39.4603 7.80945 41.5045 7.80945C43.5487 7.80945 45.5681 8.25598 47.4218 9.11782C49.2754 9.97966 50.9183 11.236 52.2358 12.799C53.5532 14.362 54.5134 16.1939 55.049 18.1666C55.5847 20.1394 55.683 22.2053 55.337 24.22Z" fill="#F8F8F8"/>
<path d="M55.539 21.833C55.5394 24.609 54.7166 27.3228 53.1746 29.6311C51.6326 31.9395 49.4407 33.7387 46.8761 34.8012C44.3115 35.8638 41.4894 36.1419 38.7668 35.6005C36.0441 35.0591 33.5431 33.7225 31.5801 31.7596C29.6171 29.7968 28.2803 27.2959 27.7387 24.5733C27.1971 21.8506 27.4751 19.0285 28.5374 16.4639C29.5998 13.8992 31.3989 11.7072 33.7071 10.165C36.0153 8.62287 38.729 7.79985 41.505 7.80005C45.2268 7.80031 48.7961 9.27884 51.4279 11.9105C54.0597 14.5421 55.5385 18.1113 55.539 21.833Z" stroke="#45413C" stroke-linecap="round" stroke-linejoin="round"/>
<path d="M47.119 21.833H41.505V11.541" stroke="#45413C" stroke-linecap="round" stroke-linejoin="round"/>
<path d="M49.444 13.894L48.121 15.217" stroke="#45413C" stroke-linecap="round" stroke-linejoin="round"/>
<path d="M52.732 21.833H50.861" stroke="#45413C" stroke-linecap="round" stroke-linejoin="round"/>
<path d="M49.444 29.772L48.121 28.449" stroke="#45413C" stroke-linecap="round" stroke-linejoin="round"/>
<path d="M41.505 33.0609V31.1899" stroke="#45413C" stroke-linecap="round" stroke-linejoin="round"/>
<path d="M33.566 29.772L34.889 28.449" stroke="#45413C" stroke-linecap="round" stroke-linejoin="round"/>
<path d="M30.277 21.833H32.148" stroke="#45413C" stroke-linecap="round" stroke-linejoin="round"/>
<path d="M33.566 13.894L34.889 15.217" stroke="#45413C" stroke-linecap="round" stroke-linejoin="round"/>
</svg>

