<svg width="82" height="82" viewBox="0 0 82 82" fill="none" xmlns="http://www.w3.org/2000/svg">
<path d="M1 41C1 51.6087 5.21427 61.7828 12.7157 69.2843C20.2172 76.7857 30.3913 81 41 81C51.6087 81 61.7828 76.7857 69.2843 69.2843C76.7857 61.7828 81 51.6087 81 41C81 30.3913 76.7857 20.2172 69.2843 12.7157C61.7828 5.21427 51.6087 1 41 1C30.3913 1 20.2172 5.21427 12.7157 12.7157C5.21427 20.2172 1 30.3913 1 41Z" fill="#DAEDF7" stroke="#DAEDF7"/>
<path d="M8.90399 11.175H73.143V70.825H8.90399V11.175Z" fill="#F0C2A1"/>
<path d="M73.143 18.0571V14.6161C73.1429 14.164 73.0537 13.7165 72.8806 13.2989C72.7075 12.8814 72.4539 12.502 72.1342 12.1825C71.8144 11.863 71.4349 11.6095 71.0173 11.4367C70.5996 11.2638 70.152 11.1749 69.7 11.1751H12.345C11.8928 11.1745 11.4449 11.2631 11.027 11.4358C10.609 11.6085 10.2292 11.8619 9.90926 12.1815C9.58931 12.5011 9.33549 12.8806 9.16231 13.2983C8.98913 13.7161 8.9 14.1638 8.9 14.6161V18.0581C8.89934 17.6059 8.98789 17.1581 9.16057 16.7403C9.33325 16.3225 9.58667 15.9428 9.90631 15.6231C10.226 15.3033 10.6055 15.0498 11.0233 14.877C11.4411 14.7042 11.8889 14.6155 12.341 14.6161H69.7C70.1522 14.6153 70.6001 14.7037 71.018 14.8763C71.436 15.049 71.8158 15.3024 72.1356 15.622C72.4555 15.9417 72.7091 16.3213 72.8819 16.7392C73.0548 17.157 73.1435 17.6049 73.143 18.0571Z" fill="#FFE3CF"/>
<path d="M15.786 44.441C15.786 50.83 18.3241 56.9574 22.8418 61.4752C27.3596 65.9929 33.4869 68.531 39.876 68.531C46.2651 68.531 52.3925 65.9929 56.9102 61.4752C61.428 56.9574 63.966 50.83 63.966 44.441C63.966 38.0519 61.428 31.9245 56.9102 27.4068C52.3925 22.889 46.2651 20.351 39.876 20.351C33.4869 20.351 27.3596 22.889 22.8418 27.4068C18.3241 31.9245 15.786 38.0519 15.786 44.441Z" fill="#E09F7E"/>
<path d="M67.407 21.5001V25.3081C66.9272 25.9122 66.3165 26.3996 65.6211 26.7335C64.9256 27.0675 64.1635 27.2393 63.392 27.2361C62.4571 27.2364 61.5397 26.9827 60.7377 26.5021C59.9358 26.0215 59.2795 25.3321 58.839 24.5075C58.3984 23.6829 58.1902 22.7541 58.2365 21.8204C58.2829 20.8866 58.582 19.983 59.102 19.2061H65.113C65.7209 19.2076 66.3035 19.4498 66.7333 19.8797C67.1632 20.3096 67.4054 20.8921 67.407 21.5001Z" fill="#E09F7E"/>
<path d="M65.87 23.38L63.92 27.533C63.8563 27.6696 63.7663 27.7923 63.655 27.8941C63.5436 27.9958 63.4133 28.0744 63.2715 28.1256C63.1296 28.1767 62.9791 28.1992 62.8285 28.1919C62.6779 28.1846 62.5302 28.1476 62.394 28.083L60.926 31.2L56.842 39.849H54.307L58.85 30.213L60.318 27.104C60.1814 27.0404 60.0587 26.9504 59.9569 26.8392C59.8552 26.728 59.7765 26.5978 59.7253 26.4561C59.6741 26.3143 59.6514 26.1639 59.6585 26.0133C59.6657 25.8628 59.7026 25.7152 59.767 25.579L61.717 21.426C61.8477 21.1518 62.0812 20.9402 62.3668 20.837C62.6525 20.7339 62.9673 20.7475 63.243 20.875L65.319 21.851C65.4559 21.9148 65.5788 22.0051 65.6806 22.1167C65.7824 22.2282 65.8612 22.3588 65.9124 22.5009C65.9636 22.643 65.9863 22.7938 65.979 22.9447C65.9717 23.0955 65.9347 23.2435 65.87 23.38Z" fill="#E09F7E"/>
<path d="M39.876 16.908C35.1115 16.908 30.454 18.3208 26.4925 20.9677C22.531 23.6147 19.4433 27.3769 17.6199 31.7787C15.7966 36.1804 15.3194 41.024 16.2487 45.6969C17.1781 50.3699 19.4722 54.6623 22.8411 58.0315C26.2099 61.4006 30.5022 63.6951 35.175 64.6248C39.8479 65.5546 44.6915 65.0778 49.0934 63.2548C53.4954 61.4318 57.2578 58.3444 59.9051 54.3831C62.5524 50.4218 63.9656 45.7644 63.966 41C63.966 34.6107 61.428 28.4831 56.9103 23.965C52.3926 19.447 46.2652 16.9085 39.876 16.908Z" fill="#45413C" stroke="#45413C" stroke-linejoin="round"/>
<path d="M55.673 59.183L41.046 42.342C40.8457 42.5169 40.609 42.645 40.353 42.717L46.295 64.223C49.7586 63.2656 52.9633 61.5433 55.673 59.183Z" fill="#87898C"/>
<path d="M40.349 39.277C40.5858 39.3432 40.8066 39.4572 40.9977 39.612C41.1888 39.7668 41.3461 39.9591 41.46 40.177L61.287 29.948C59.7538 26.9831 57.6226 24.3681 55.028 22.2683C52.4333 20.1685 49.4315 18.6293 46.212 17.748L40.349 39.277Z" fill="#87898C"/>
<path d="M39.876 31.183C37.9348 31.1828 36.0372 31.7582 34.423 32.8365C32.8089 33.9148 31.5507 35.4475 30.8076 37.2408C30.0645 39.0341 29.8699 41.0075 30.2483 42.9115C30.6268 44.8154 31.5613 46.5643 32.9337 47.9372C34.3061 49.31 36.0548 50.2451 37.9586 50.6241C39.8624 51.0031 41.8359 50.8091 43.6294 50.0665C45.423 49.324 46.9561 48.0663 48.0348 46.4525C49.1136 44.8386 49.6896 42.9412 49.69 41C49.6912 39.7107 49.4382 38.4339 48.9454 37.2425C48.4527 36.0511 47.7299 34.9685 46.8184 34.0567C45.9069 33.145 44.8245 32.4218 43.6333 31.9287C42.442 31.4356 41.1653 31.1822 39.876 31.183Z" fill="#FFE500" stroke="#45413C" stroke-linejoin="round"/>
<path d="M27.385 40.997C27.385 44.3098 28.701 47.4869 31.0435 49.8295C33.3861 52.172 36.5632 53.488 39.876 53.488C43.1888 53.488 46.366 52.172 48.7085 49.8295C51.051 47.4869 52.367 44.3098 52.367 40.997C52.367 37.6842 51.051 34.507 48.7085 32.1645C46.366 29.822 43.1888 28.506 39.876 28.506C36.5632 28.506 33.3861 29.822 31.0435 32.1645C28.701 34.507 27.385 37.6842 27.385 40.997Z" stroke="#87898C" stroke-linejoin="round"/>
<path d="M20.247 40.997C20.247 43.5748 20.7547 46.1272 21.7412 48.5087C22.7276 50.8902 24.1735 53.0541 25.9962 54.8768C27.8189 56.6996 29.9828 58.1454 32.3643 59.1319C34.7458 60.1183 37.2983 60.626 39.876 60.626C42.4537 60.626 45.0062 60.1183 47.3877 59.1319C49.7692 58.1454 51.9331 56.6996 53.7558 54.8768C55.5785 53.0541 57.0244 50.8902 58.0108 48.5087C58.9973 46.1272 59.505 43.5748 59.505 40.997C59.505 35.7911 57.437 30.7984 53.7558 27.1172C50.0747 23.4361 45.0819 21.368 39.876 21.368C34.6701 21.368 29.6774 23.4361 25.9962 27.1172C22.3151 30.7984 20.247 35.7911 20.247 40.997Z" stroke="#87898C" stroke-linejoin="round"/>
<path d="M39.876 16.908C35.1115 16.908 30.454 18.3208 26.4925 20.9677C22.531 23.6147 19.4433 27.3769 17.6199 31.7787C15.7966 36.1804 15.3194 41.024 16.2487 45.6969C17.1781 50.3699 19.4722 54.6623 22.8411 58.0315C26.2099 61.4006 30.5022 63.6951 35.175 64.6248C39.8479 65.5546 44.6915 65.0778 49.0934 63.2548C53.4954 61.4318 57.2578 58.3444 59.9051 54.3831C62.5524 50.4218 63.9656 45.7644 63.966 41C63.966 34.6107 61.428 28.4831 56.9103 23.965C52.3926 19.447 46.2652 16.9085 39.876 16.908Z" stroke="#45413C" stroke-linejoin="round"/>
<path d="M48.07 50.429C46.6609 51.6497 44.9971 52.5407 43.2 53.037" stroke="#87898C" stroke-linejoin="round"/>
<path d="M43.163 28.944C44.832 29.4006 46.3882 30.1983 47.7334 31.2868C49.0785 32.3753 50.1833 33.7309 50.978 35.268" stroke="#87898C" stroke-linejoin="round"/>
<path d="M52.752 55.819C50.5396 57.7373 47.9272 59.138 45.105 59.919" stroke="#87898C" stroke-linejoin="round"/>
<path d="M45.04 22.0551C47.663 22.773 50.1088 24.0269 52.2229 25.7376C54.337 27.4482 56.0736 29.5785 57.323 31.9941" stroke="#87898C" stroke-linejoin="round"/>
<path d="M8.90399 11.175H73.143V70.825H8.90399V11.175Z" stroke="#45413C"/>
<path d="M38.157 42.7221C38.157 43.178 38.3381 43.6152 38.6605 43.9376C38.9829 44.2599 39.4201 44.4411 39.876 44.4411C40.3319 44.4411 40.7692 44.2599 41.0915 43.9376C41.4139 43.6152 41.595 43.178 41.595 42.7221C41.595 42.2661 41.4139 41.8289 41.0915 41.5065C40.7692 41.1842 40.3319 41.0031 39.876 41.0031C39.4201 41.0031 38.9829 41.1842 38.6605 41.5065C38.3381 41.8289 38.157 42.2661 38.157 42.7221Z" fill="#EBCB00"/>
<path d="M38.157 40.997C38.157 41.4529 38.3381 41.8901 38.6605 42.2125C38.9829 42.5348 39.4201 42.716 39.876 42.716C40.3319 42.716 40.7692 42.5348 41.0915 42.2125C41.4139 41.8901 41.595 41.4529 41.595 40.997C41.595 40.541 41.4139 40.1038 41.0915 39.7814C40.7692 39.4591 40.3319 39.278 39.876 39.278C39.4201 39.278 38.9829 39.4591 38.6605 39.7814C38.3381 40.1038 38.157 40.541 38.157 40.997Z" fill="#DAEDF7" stroke="#45413C"/>
<path d="M58.23 20.3519C58.23 21.721 58.7739 23.034 59.7419 24.002C60.71 24.9701 62.023 25.5139 63.392 25.5139C64.7611 25.5139 66.074 24.9701 67.0421 24.002C68.0102 23.034 68.554 21.721 68.554 20.3519C68.554 18.9829 68.0102 17.6699 67.0421 16.7019C66.074 15.7338 64.7611 15.1899 63.392 15.1899C62.023 15.1899 60.71 15.7338 59.7419 16.7019C58.7739 17.6699 58.23 18.9829 58.23 20.3519Z" fill="#87898C"/>
<path d="M65.87 23.38L64.987 25.261C64.4715 25.4269 63.9335 25.5122 63.392 25.514C62.2714 25.5201 61.1806 25.1528 60.292 24.47L61.714 21.43C61.8447 21.1558 62.0782 20.9442 62.3638 20.841C62.6495 20.7379 62.9643 20.7515 63.24 20.879L65.316 21.855C65.4526 21.9186 65.5753 22.0086 65.6772 22.1197C65.779 22.2308 65.8579 22.3609 65.9093 22.5026C65.9608 22.6442 65.9838 22.7946 65.9771 22.9452C65.9703 23.0958 65.9339 23.2435 65.87 23.38Z" fill="#45413C"/>
<path d="M58.23 20.3519C58.23 21.721 58.7739 23.034 59.7419 24.002C60.71 24.9701 62.023 25.5139 63.392 25.5139C64.7611 25.5139 66.074 24.9701 67.0421 24.002C68.0102 23.034 68.554 21.721 68.554 20.3519C68.554 18.9829 68.0102 17.6699 67.0421 16.7019C66.074 15.7338 64.7611 15.1899 63.392 15.1899C62.023 15.1899 60.71 15.7338 59.7419 16.7019C58.7739 17.6699 58.23 18.9829 58.23 20.3519Z" stroke="#45413C"/>
<path d="M8.90399 11.175H73.143V70.825H8.90399V11.175Z" stroke="#45413C"/>
<path d="M57.083 61.648C57.083 63.4735 57.8082 65.2242 59.099 66.515C60.3898 67.8058 62.1405 68.531 63.966 68.531C65.7915 68.531 67.5422 67.8058 68.833 66.515C70.1238 65.2242 70.849 63.4735 70.849 61.648C70.849 59.8225 70.1238 58.0718 68.833 56.781C67.5422 55.4902 65.7915 54.765 63.966 54.765C62.1405 54.765 60.3898 55.4902 59.099 56.781C57.8082 58.0718 57.083 59.8225 57.083 61.648Z" fill="#F8F8F8"/>
<path d="M68.919 56.869C69.557 57.5173 70.0603 58.2857 70.3995 59.1296C70.7388 59.9736 70.9075 60.8765 70.8957 61.786C70.884 62.6956 70.692 63.5938 70.331 64.4287C69.97 65.2636 69.4471 66.0187 68.7925 66.6503C68.1379 67.2819 67.3646 67.7775 66.5173 68.1084C65.6701 68.4393 64.7656 68.599 63.8562 68.5782C62.9468 68.5575 62.0506 68.3567 61.2193 67.9874C60.388 67.6182 59.6381 67.0878 59.013 66.427L68.919 56.869Z" fill="#BDBEC0"/>
<path d="M57.083 61.648C57.083 63.4735 57.8082 65.2242 59.099 66.515C60.3898 67.8058 62.1405 68.531 63.966 68.531C65.7915 68.531 67.5422 67.8058 68.833 66.515C70.1238 65.2242 70.849 63.4735 70.849 61.648C70.849 59.8225 70.1238 58.0718 68.833 56.781C67.5422 55.4902 65.7915 54.765 63.966 54.765C62.1405 54.765 60.3898 55.4902 59.099 56.781C57.8082 58.0718 57.083 59.8225 57.083 61.648Z" stroke="#45413C"/>
<path d="M59.377 61.648C59.377 62.2506 59.4957 62.8473 59.7263 63.4041C59.957 63.9609 60.295 64.4667 60.7211 64.8929C61.1472 65.319 61.6531 65.657 62.2099 65.8876C62.7666 66.1183 63.3634 66.237 63.966 66.237C64.5687 66.237 65.1654 66.1183 65.7222 65.8876C66.2789 65.657 66.7848 65.319 67.2109 64.8929C67.6371 64.4667 67.9751 63.9609 68.2057 63.4041C68.4363 62.8473 68.555 62.2506 68.555 61.648C68.555 61.0453 68.4363 60.4486 68.2057 59.8918C67.9751 59.3351 67.6371 58.8292 67.2109 58.403C66.7848 57.9769 66.2789 57.6389 65.7222 57.4083C65.1654 57.1777 64.5687 57.059 63.966 57.059C63.3634 57.059 62.7666 57.1777 62.2099 57.4083C61.6531 57.6389 61.1472 57.9769 60.7211 58.403C60.295 58.8292 59.957 59.3351 59.7263 59.8918C59.4957 60.4486 59.377 61.0453 59.377 61.648Z" fill="#87898C"/>
<path d="M68.407 62.8C68.5833 62.1216 68.6018 61.4118 68.4612 60.7251C68.3205 60.0384 68.0244 59.393 67.5956 58.8385C67.1668 58.284 66.6166 57.8351 65.9874 57.5263C65.3581 57.2175 64.6665 57.0569 63.9655 57.0569C63.2645 57.0569 62.5729 57.2175 61.9436 57.5263C61.3144 57.8351 60.7642 58.284 60.3354 58.8385C59.9066 59.393 59.6105 60.0384 59.4698 60.7251C59.3292 61.4118 59.3477 62.1216 59.524 62.8C59.7759 61.8133 60.3493 60.9386 61.1535 60.3139C61.9578 59.6892 62.9471 59.3501 63.9655 59.3501C64.9839 59.3501 65.9732 59.6892 66.7775 60.3139C67.5817 60.9386 68.155 61.8133 68.407 62.8Z" fill="#87898C"/>
<path d="M59.377 61.648C59.377 62.2506 59.4957 62.8473 59.7263 63.4041C59.957 63.9609 60.295 64.4667 60.7211 64.8929C61.1472 65.319 61.6531 65.657 62.2099 65.8876C62.7666 66.1183 63.3634 66.237 63.966 66.237C64.5687 66.237 65.1654 66.1183 65.7222 65.8876C66.2789 65.657 66.7848 65.319 67.2109 64.8929C67.6371 64.4667 67.9751 63.9609 68.2057 63.4041C68.4363 62.8473 68.555 62.2506 68.555 61.648C68.555 61.0453 68.4363 60.4486 68.2057 59.8918C67.9751 59.3351 67.6371 58.8292 67.2109 58.403C66.7848 57.9769 66.2789 57.6389 65.7222 57.4083C65.1654 57.1777 64.5687 57.059 63.966 57.059C63.3634 57.059 62.7666 57.1777 62.2099 57.4083C61.6531 57.6389 61.1472 57.9769 60.7211 58.403C60.295 58.8292 59.957 59.3351 59.7263 59.8918C59.4957 60.4486 59.377 61.0453 59.377 61.648Z" stroke="#45413C"/>
<path d="M11.198 61.648C11.198 62.5519 11.376 63.4469 11.7219 64.282C12.0678 65.1171 12.5748 65.8759 13.214 66.515C13.8531 67.1542 14.6119 67.6612 15.447 68.0071C16.2821 68.353 17.1771 68.531 18.081 68.531C18.9849 68.531 19.8799 68.353 20.715 68.0071C21.5501 67.6612 22.3089 67.1542 22.948 66.515C23.5872 65.8759 24.0942 65.1171 24.4401 64.282C24.786 63.4469 24.964 62.5519 24.964 61.648C24.964 60.7441 24.786 59.8491 24.4401 59.014C24.0942 58.1789 23.5872 57.4201 22.948 56.781C22.3089 56.1419 21.5501 55.6349 20.715 55.289C19.8799 54.9431 18.9849 54.765 18.081 54.765C17.1771 54.765 16.2821 54.9431 15.447 55.289C14.6119 55.6349 13.8531 56.1419 13.214 56.781C12.5748 57.4201 12.0678 58.1789 11.7219 59.014C11.376 59.8491 11.198 60.7441 11.198 61.648Z" fill="#F8F8F8"/>
<path d="M23.034 56.869C23.672 57.5173 24.1752 58.2857 24.5145 59.1296C24.8538 59.9736 25.0225 60.8765 25.0107 61.786C24.9989 62.6956 24.807 63.5938 24.446 64.4287C24.085 65.2636 23.5621 66.0187 22.9075 66.6503C22.2529 67.2819 21.4796 67.7775 20.6323 68.1084C19.7851 68.4393 18.8806 68.599 17.9712 68.5782C17.0618 68.5575 16.1656 68.3567 15.3343 67.9874C14.503 67.6182 13.7531 67.0878 13.128 66.427L23.034 56.869Z" fill="#BDBEC0"/>
<path d="M11.198 61.648C11.198 62.5519 11.376 63.4469 11.7219 64.282C12.0678 65.1171 12.5748 65.8759 13.214 66.515C13.8531 67.1542 14.6119 67.6612 15.447 68.0071C16.2821 68.353 17.1771 68.531 18.081 68.531C18.9849 68.531 19.8799 68.353 20.715 68.0071C21.5501 67.6612 22.3089 67.1542 22.948 66.515C23.5872 65.8759 24.0942 65.1171 24.4401 64.282C24.786 63.4469 24.964 62.5519 24.964 61.648C24.964 60.7441 24.786 59.8491 24.4401 59.014C24.0942 58.1789 23.5872 57.4201 22.948 56.781C22.3089 56.1419 21.5501 55.6349 20.715 55.289C19.8799 54.9431 18.9849 54.765 18.081 54.765C17.1771 54.765 16.2821 54.9431 15.447 55.289C14.6119 55.6349 13.8531 56.1419 13.214 56.781C12.5748 57.4201 12.0678 58.1789 11.7219 59.014C11.376 59.8491 11.198 60.7441 11.198 61.648Z" stroke="#45413C"/>
<path d="M13.492 61.648C13.492 62.865 13.9755 64.0323 14.8361 64.8929C15.6967 65.7535 16.8639 66.237 18.081 66.237C19.2981 66.237 20.4653 65.7535 21.3259 64.8929C22.1865 64.0323 22.67 62.865 22.67 61.648C22.67 60.4309 22.1865 59.2637 21.3259 58.403C20.4653 57.5424 19.2981 57.059 18.081 57.059C16.8639 57.059 15.6967 57.5424 14.8361 58.403C13.9755 59.2637 13.492 60.4309 13.492 61.648Z" fill="#87898C"/>
<path d="M22.522 62.8C22.6983 62.1216 22.7168 61.4118 22.5762 60.7251C22.4355 60.0384 22.1394 59.393 21.7106 58.8385C21.2818 58.284 20.7316 57.8351 20.1024 57.5263C19.4731 57.2175 18.7814 57.0569 18.0805 57.0569C17.3795 57.0569 16.6879 57.2175 16.0586 57.5263C15.4294 57.8351 14.8792 58.284 14.4504 58.8385C14.0216 59.393 13.7255 60.0384 13.5848 60.7251C13.4442 61.4118 13.4627 62.1216 13.639 62.8C13.8909 61.8133 14.4643 60.9386 15.2685 60.3139C16.0728 59.6892 17.0621 59.3501 18.0805 59.3501C19.0988 59.3501 20.0882 59.6892 20.8925 60.3139C21.6967 60.9386 22.27 61.8133 22.522 62.8Z" fill="#87898C"/>
<path d="M13.492 61.648C13.492 62.865 13.9755 64.0323 14.8361 64.8929C15.6967 65.7535 16.8639 66.237 18.081 66.237C19.2981 66.237 20.4653 65.7535 21.3259 64.8929C22.1865 64.0323 22.67 62.865 22.67 61.648C22.67 60.4309 22.1865 59.2637 21.3259 58.403C20.4653 57.5424 19.2981 57.059 18.081 57.059C16.8639 57.059 15.6967 57.5424 14.8361 58.403C13.9755 59.2637 13.492 60.4309 13.492 61.648Z" stroke="#45413C"/>
<path d="M50.518 51.808C50.4245 52.0168 50.2903 52.2049 50.1232 52.3613C49.9562 52.5177 49.7596 52.6392 49.545 52.7186C49.3304 52.7981 49.1022 52.834 48.8735 52.8242C48.6449 52.8144 48.4206 52.7592 48.2136 52.6616C48.0066 52.5641 47.8211 52.4262 47.668 52.2561C47.5149 52.0861 47.3973 51.8871 47.322 51.6711C47.2467 51.455 47.2153 51.226 47.2295 50.9976C47.2438 50.7693 47.3034 50.546 47.405 50.341L48.138 48.784C48.2678 48.5088 48.5016 48.2964 48.7879 48.1934C49.0742 48.0905 49.3897 48.1054 49.665 48.235L50.702 48.724C50.8384 48.7881 50.9607 48.8785 51.0621 48.99C51.1635 49.1015 51.2419 49.2319 51.2929 49.3737C51.3439 49.5155 51.3664 49.666 51.3593 49.8165C51.3521 49.967 51.3153 50.1147 51.251 50.251L50.518 51.808Z" fill="#87898C"/>
<path d="M50.175 48.476L50.702 48.7239C50.8383 48.7881 50.9607 48.8785 51.0621 48.99C51.1635 49.1015 51.2419 49.2319 51.2929 49.3737C51.3439 49.5155 51.3664 49.666 51.3592 49.8165C51.3521 49.967 51.3153 50.1146 51.251 50.2509L50.518 51.8079C50.3234 52.2207 49.9728 52.5393 49.5434 52.6936C49.114 52.8479 48.6408 52.8254 48.228 52.631L50.175 48.476Z" fill="#87898C"/>
<path d="M50.518 51.808C50.4245 52.0168 50.2903 52.2049 50.1232 52.3613C49.9562 52.5177 49.7596 52.6392 49.545 52.7186C49.3304 52.7981 49.1022 52.834 48.8735 52.8242C48.6449 52.8144 48.4206 52.7592 48.2136 52.6616C48.0066 52.5641 47.8211 52.4262 47.668 52.2561C47.5149 52.0861 47.3973 51.8871 47.322 51.6711C47.2467 51.455 47.2153 51.226 47.2295 50.9976C47.2438 50.7693 47.3034 50.546 47.405 50.341L48.138 48.784C48.2678 48.5088 48.5016 48.2964 48.7879 48.1934C49.0742 48.0905 49.3897 48.1054 49.665 48.235L50.702 48.724C50.8384 48.7881 50.9607 48.8785 51.0621 48.99C51.1635 49.1015 51.2419 49.2319 51.2929 49.3737C51.3439 49.5155 51.3664 49.666 51.3593 49.8165C51.3521 49.967 51.3153 50.1147 51.251 50.251L50.518 51.808Z" stroke="#45413C"/>
<path d="M49.1444 47.9891L58.9228 27.2354L60.998 28.2131L51.2196 48.9669L49.1444 47.9891Z" fill="#F8F8F8" stroke="#45413C"/>
<path d="M58.923 27.236L60.3896 24.1232L62.4648 25.1009L60.9982 28.2137L58.923 27.236Z" fill="#87898C" stroke="#45413C"/>
<path d="M59.3529 23.6347L62.2866 17.4082L66.437 19.3637L63.5033 25.5902L59.3529 23.6347Z" fill="#87898C"/>
<path d="M61.058 24.438L60.39 24.123C60.2537 24.0589 60.1313 23.9684 60.0299 23.857C59.9285 23.7455 59.8501 23.6151 59.7991 23.4733C59.7481 23.3315 59.7256 23.181 59.7328 23.0305C59.7399 22.88 59.7767 22.7323 59.841 22.596L61.797 18.446C61.8612 18.3097 61.9516 18.1873 62.0631 18.0859C62.1746 17.9845 62.3049 17.9061 62.4467 17.8551C62.5886 17.8041 62.739 17.7816 62.8895 17.7888C63.0401 17.796 63.1877 17.8328 63.324 17.897L65.399 18.875C65.6741 19.0046 65.8865 19.2382 65.9895 19.5244C66.0924 19.8105 66.0775 20.1259 65.948 20.401L65.604 21.133L64.191 20.467C64.0556 20.4014 63.9084 20.3632 63.7582 20.3548C63.6079 20.3464 63.4574 20.3678 63.3155 20.418C63.1736 20.4681 63.043 20.5459 62.9313 20.6468C62.8197 20.7478 62.7291 20.8699 62.665 21.006L61.059 24.436" fill="#87898C"/>
<path d="M59.3529 23.6347L62.2866 17.4082L66.437 19.3637L63.5033 25.5902L59.3529 23.6347Z" stroke="#45413C"/>
<path d="M44.488 55.1835L52.3095 50.3833L54.7099 54.2945L46.8884 59.0946L44.488 55.1835Z" fill="#87898C"/>
<path d="M45.677 57.123L45.087 56.161C44.9281 55.9017 44.8786 55.59 44.9495 55.2943C45.0204 54.9985 45.2058 54.7431 45.465 54.584L51.331 50.984C51.4593 50.9051 51.602 50.8523 51.7508 50.8285C51.8996 50.8048 52.0516 50.8106 52.1981 50.8456C52.3446 50.8806 52.4828 50.9442 52.6048 51.0326C52.7268 51.121 52.8302 51.2326 52.909 51.361L53.509 52.333L45.677 57.123Z" fill="#87898C"/>
<path d="M44.488 55.1835L52.3095 50.3833L54.7099 54.2945L46.8884 59.0946L44.488 55.1835Z" stroke="#45413C"/>
</svg>

