<svg width="89" height="87" viewBox="0 0 89 87" fill="none" xmlns="http://www.w3.org/2000/svg">
<path d="M80.936 60.0051C83.6959 53.9125 84.8839 47.2252 84.3914 40.5548C83.899 33.8844 81.7417 27.4441 78.117 21.8229C74.4923 16.2017 69.5159 11.5791 63.6431 8.37817C57.7703 5.17721 51.1885 3.5 44.5 3.5C37.8115 3.5 31.2298 5.17721 25.3569 8.37817C19.4841 11.5791 14.5077 16.2017 10.883 21.8229C7.25833 27.4441 5.10106 33.8844 4.60858 40.5548C4.11611 47.2252 5.30415 53.9125 8.06401 60.0051H80.936Z" fill="#009FD9"/>
<path d="M8.064 60.0051C11.2367 67.0091 16.3608 72.9501 22.8229 77.117C29.2849 81.2839 36.811 83.5 44.5 83.5C52.189 83.5 59.7151 81.2839 66.1771 77.117C72.6392 72.9501 77.7633 67.0091 80.936 60.0051H8.064Z" fill="#ADC4D9"/>
<path d="M5.5 60.0051H83.5" stroke="#45413C" stroke-linecap="round" stroke-linejoin="round"/>
<path d="M1 60.0051H3.5" stroke="#45413C" stroke-linecap="round" stroke-linejoin="round"/>
<path d="M85.5 60.0051H88" stroke="#45413C" stroke-linecap="round" stroke-linejoin="round"/>
<path d="M58.5 70.5051H65.657" stroke="#8CA4B8" stroke-linecap="round"/>
<path d="M54.325 70.5051H56.114" stroke="#8CA4B8" stroke-linecap="round"/>
<path d="M51.343 70.5051H51.94" stroke="#8CA4B8" stroke-linecap="round"/>
<path d="M28.657 67.0051H35.813" stroke="#8CA4B8" stroke-linecap="round"/>
<path d="M24.482 67.0051H26.271" stroke="#8CA4B8" stroke-linecap="round"/>
<path d="M21.5 67.0051H22.096" stroke="#8CA4B8" stroke-linecap="round"/>
<path d="M39.843 78.0051H47" stroke="#8CA4B8" stroke-linecap="round"/>
<path d="M35.669 78.0051H37.458" stroke="#8CA4B8" stroke-linecap="round"/>
<path d="M32.687 78.0051H33.283" stroke="#8CA4B8" stroke-linecap="round"/>
<path d="M45.201 18.7941C45.201 21.6555 46.3377 24.3998 48.361 26.4231C50.3843 28.4464 53.1286 29.5831 55.99 29.5831C58.8514 29.5831 61.5956 28.4464 63.619 26.4231C65.6423 24.3998 66.779 21.6555 66.779 18.7941C66.779 15.9327 65.6423 13.1885 63.619 11.1652C61.5956 9.14182 58.8514 8.00513 55.99 8.00513C53.1286 8.00513 50.3843 9.14182 48.361 11.1652C46.3377 13.1885 45.201 15.9327 45.201 18.7941Z" fill="#4AEFF7" stroke="#45413C" stroke-linecap="round" stroke-linejoin="round"/>
<path d="M32.778 28.5672L33.868 27.4772" stroke="#45413C" stroke-linecap="round" stroke-linejoin="round"/>
<path d="M54.631 52.7141L58.17 42.8051C58.4074 42.1419 58.8712 41.5838 59.4798 41.2291C60.0883 40.8744 60.8025 40.7458 61.4966 40.866C62.1906 40.9863 62.8199 41.3476 63.2737 41.8863C63.7275 42.4251 63.9765 43.1067 63.977 43.8111V57.8111H54.631V52.7141Z" fill="#F8F8F8"/>
<path d="M56.33 56.9621L59.87 47.0531C60.0087 46.6573 60.2298 46.2955 60.5186 45.9914C60.8074 45.6874 61.1574 45.448 61.5456 45.2891C61.9337 45.1303 62.3511 45.0555 62.7702 45.0698C63.1893 45.0841 63.6006 45.1871 63.977 45.3721V43.8101C63.9763 43.1058 63.7271 42.4243 63.2732 41.8858C62.8194 41.3472 62.19 40.9861 61.4961 40.866C60.8021 40.7459 60.088 40.8745 59.4796 41.2292C58.8711 41.5839 58.4074 42.142 58.17 42.8051L54.631 52.7151V57.8151H56.331L56.33 56.9621Z" fill="white"/>
<path d="M54.631 52.7141L58.17 42.8051C58.4074 42.1419 58.8712 41.5838 59.4798 41.2291C60.0883 40.8744 60.8025 40.7458 61.4966 40.866C62.1906 40.9863 62.8199 41.3476 63.2737 41.8863C63.7275 42.4251 63.9765 43.1067 63.977 43.8111V57.8111H54.631V52.7141Z" stroke="#45413C" stroke-linecap="round" stroke-linejoin="round"/>
<path d="M54.631 52.7141H44.586C44.3208 52.7141 44.0664 52.8195 43.8789 53.007C43.6914 53.1945 43.586 53.4489 43.586 53.7141V57.8141H54.631V52.7141Z" fill="#F8F8F8" stroke="#45413C" stroke-linecap="round" stroke-linejoin="round"/>
<path d="M67.375 51.5951V37.4211" stroke="#45413C" stroke-linecap="round" stroke-linejoin="round"/>
<path d="M23.195 51.5952V35.1602" stroke="#45413C" stroke-linecap="round" stroke-linejoin="round"/>
<path d="M33.391 57.8121H58.03V61.2101H33.391V57.8121Z" fill="#ADC4D9" stroke="#45413C" stroke-linecap="round" stroke-linejoin="round"/>
<path d="M36.789 61.2102C36.7776 58.6557 35.8081 56.1984 34.0722 54.3243C32.3362 52.4502 29.9603 51.2957 27.4141 51.0891C24.8679 50.8825 22.3369 51.6388 20.3216 53.2085C18.3062 54.7781 16.9531 57.0469 16.53 59.5662C16.4975 59.7689 16.5093 59.9762 16.5646 60.1739C16.62 60.3716 16.7176 60.5549 16.8507 60.7112C16.9838 60.8675 17.1492 60.993 17.3356 61.0792C17.5219 61.1653 17.7247 61.21 17.93 61.2102H19.8C19.8525 59.4424 20.5917 57.7647 21.8606 56.5329C23.1296 55.3011 24.8285 54.6121 26.597 54.6121C28.3655 54.6121 30.0644 55.3011 31.3334 56.5329C32.6023 57.7647 33.3415 59.4424 33.394 61.2102H36.789Z" fill="#DAEDF7" stroke="#45413C" stroke-linecap="round" stroke-linejoin="round"/>
<path d="M19.797 61.2101C19.797 63.0128 20.5131 64.7416 21.7878 66.0163C23.0625 67.291 24.7913 68.0071 26.594 68.0071C28.3967 68.0071 30.1255 67.291 31.4002 66.0163C32.6749 64.7416 33.391 63.0128 33.391 61.2101C33.391 60.3175 33.2152 59.4336 32.8736 58.609C32.532 57.7843 32.0314 57.035 31.4002 56.4039C30.769 55.7727 30.0197 55.2721 29.1951 54.9305C28.3704 54.5889 27.4866 54.4131 26.594 54.4131C25.7014 54.4131 24.8175 54.5889 23.9929 54.9305C23.1682 55.2721 22.419 55.7727 21.7878 56.4039C21.1566 57.035 20.656 57.7843 20.3144 58.609C19.9728 59.4336 19.797 60.3175 19.797 61.2101Z" fill="#45413C"/>
<path d="M26.594 56.6481C28.2021 56.6498 29.7575 57.2213 30.9841 58.2612C32.2107 59.301 33.0291 60.742 33.294 62.3281C33.3551 61.9586 33.3859 61.5846 33.386 61.2101C33.3335 59.4424 32.5943 57.7647 31.3254 56.5329C30.0564 55.301 28.3575 54.6121 26.589 54.6121C24.8205 54.6121 23.1216 55.301 21.8526 56.5329C20.5837 57.7647 19.8445 59.4424 19.792 61.2101C19.7921 61.5846 19.8229 61.9586 19.884 62.3281C20.1491 60.7403 20.969 59.298 22.1977 58.2579C23.4264 57.2179 24.9842 56.6474 26.594 56.6481Z" fill="#87898C"/>
<path d="M19.797 61.2101C19.797 63.0128 20.5131 64.7416 21.7878 66.0163C23.0625 67.291 24.7913 68.0071 26.594 68.0071C28.3967 68.0071 30.1255 67.291 31.4002 66.0163C32.6749 64.7416 33.391 63.0128 33.391 61.2101C33.391 60.3175 33.2152 59.4336 32.8736 58.609C32.532 57.7843 32.0314 57.035 31.4002 56.4039C30.769 55.7727 30.0197 55.2721 29.1951 54.9305C28.3704 54.5889 27.4866 54.4131 26.594 54.4131C25.7014 54.4131 24.8175 54.5889 23.9929 54.9305C23.1682 55.2721 22.419 55.7727 21.7878 56.4039C21.1566 57.035 20.656 57.7843 20.3144 58.609C19.9728 59.4336 19.797 60.3175 19.797 61.2101Z" stroke="#45413C" stroke-linecap="round" stroke-linejoin="round"/>
<path d="M24.045 61.2101C24.045 61.8862 24.3136 62.5345 24.7916 63.0126C25.2696 63.4906 25.918 63.7591 26.594 63.7591C27.2701 63.7591 27.9184 63.4906 28.3964 63.0126C28.8745 62.5345 29.143 61.8862 29.143 61.2101C29.143 60.5341 28.8745 59.8858 28.3964 59.4077C27.9184 58.9297 27.2701 58.6611 26.594 58.6611C25.918 58.6611 25.2696 58.9297 24.7916 59.4077C24.3136 59.8858 24.045 60.5341 24.045 61.2101Z" fill="#F8F8F8"/>
<path d="M26.594 60.7861C27.0819 60.7861 27.5596 60.9261 27.9703 61.1895C28.3811 61.4529 28.7075 61.8287 28.911 62.2721C29.0891 61.8838 29.1667 61.4569 29.1367 61.0308C29.1067 60.6046 28.9701 60.1928 28.7394 59.8332C28.5087 59.4736 28.1914 59.1778 27.8165 58.9729C27.4416 58.768 27.0212 58.6606 26.594 58.6606C26.1668 58.6606 25.7464 58.768 25.3715 58.9729C24.9967 59.1778 24.6793 59.4736 24.4486 59.8332C24.2179 60.1928 24.0813 60.6046 24.0513 61.0308C24.0213 61.4569 24.0989 61.8838 24.277 62.2721C24.4804 61.8286 24.8068 61.4528 25.2176 61.1894C25.6283 60.9259 26.1061 60.786 26.594 60.7861Z" fill="white"/>
<path d="M24.045 61.2101C24.045 61.8862 24.3136 62.5345 24.7916 63.0126C25.2696 63.4906 25.918 63.7591 26.594 63.7591C27.2701 63.7591 27.9184 63.4906 28.3964 63.0126C28.8745 62.5345 29.143 61.8862 29.143 61.2101C29.143 60.5341 28.8745 59.8858 28.3964 59.4077C27.9184 58.9297 27.2701 58.6611 26.594 58.6611C25.918 58.6611 25.2696 58.9297 24.7916 59.4077C24.3136 59.8858 24.045 60.5341 24.045 61.2101Z" stroke="#45413C" stroke-linecap="round" stroke-linejoin="round"/>
<path d="M57.18 61.2101C57.18 62.1027 57.3558 62.9865 57.6974 63.8112C58.039 64.6358 58.5396 65.3851 59.1708 66.0163C59.8019 66.6475 60.5512 67.1481 61.3759 67.4897C62.2005 67.8313 63.0844 68.0071 63.977 68.0071C64.8696 68.0071 65.7534 67.8313 66.5781 67.4897C67.4027 67.1481 68.152 66.6475 68.7832 66.0163C69.4144 65.3851 69.915 64.6358 70.2566 63.8112C70.5982 62.9865 70.774 62.1027 70.774 61.2101C70.774 60.3175 70.5982 59.4336 70.2566 58.609C69.915 57.7843 69.4144 57.035 68.7832 56.4039C68.152 55.7727 67.4027 55.2721 66.5781 54.9305C65.7534 54.5889 64.8696 54.4131 63.977 54.4131C63.0844 54.4131 62.2005 54.5889 61.3759 54.9305C60.5512 55.2721 59.8019 55.7727 59.1708 56.4039C58.5396 57.035 58.039 57.7843 57.6974 58.609C57.3558 59.4336 57.18 60.3175 57.18 61.2101Z" fill="#45413C"/>
<path d="M63.977 56.6481C65.5851 56.6498 67.1405 57.2213 68.3671 58.2612C69.5937 59.301 70.4121 60.742 70.677 62.3281C70.7381 61.9586 70.7689 61.5846 70.769 61.2101C70.7165 59.4424 69.9773 57.7647 68.7084 56.5329C67.4394 55.301 65.7405 54.6121 63.972 54.6121C62.2035 54.6121 60.5046 55.301 59.2356 56.5329C57.9667 57.7647 57.2275 59.4424 57.175 61.2101C57.1751 61.5846 57.2059 61.9586 57.267 62.3281C57.5321 60.7403 58.352 59.298 59.5807 58.2579C60.8094 57.2179 62.3672 56.6474 63.977 56.6481Z" fill="#87898C"/>
<path d="M57.18 61.2101C57.18 62.1027 57.3558 62.9865 57.6974 63.8112C58.039 64.6358 58.5396 65.3851 59.1708 66.0163C59.8019 66.6475 60.5512 67.1481 61.3759 67.4897C62.2005 67.8313 63.0844 68.0071 63.977 68.0071C64.8696 68.0071 65.7534 67.8313 66.5781 67.4897C67.4027 67.1481 68.152 66.6475 68.7832 66.0163C69.4144 65.3851 69.915 64.6358 70.2566 63.8112C70.5982 62.9865 70.774 62.1027 70.774 61.2101C70.774 60.3175 70.5982 59.4336 70.2566 58.609C69.915 57.7843 69.4144 57.035 68.7832 56.4039C68.152 55.7727 67.4027 55.2721 66.5781 54.9305C65.7534 54.5889 64.8696 54.4131 63.977 54.4131C63.0844 54.4131 62.2005 54.5889 61.3759 54.9305C60.5512 55.2721 59.8019 55.7727 59.1708 56.4039C58.5396 57.035 58.039 57.7843 57.6974 58.609C57.3558 59.4336 57.18 60.3175 57.18 61.2101Z" stroke="#45413C" stroke-linecap="round" stroke-linejoin="round"/>
<path d="M61.428 61.2101C61.428 61.8862 61.6966 62.5345 62.1746 63.0126C62.6526 63.4906 63.301 63.7591 63.977 63.7591C64.653 63.7591 65.3014 63.4906 65.7794 63.0126C66.2575 62.5345 66.526 61.8862 66.526 61.2101C66.526 60.5341 66.2575 59.8858 65.7794 59.4077C65.3014 58.9297 64.653 58.6611 63.977 58.6611C63.301 58.6611 62.6526 58.9297 62.1746 59.4077C61.6966 59.8858 61.428 60.5341 61.428 61.2101Z" fill="#F8F8F8"/>
<path d="M63.977 60.7861C64.4649 60.7861 64.9426 60.9261 65.3533 61.1895C65.764 61.4529 66.0905 61.8287 66.294 62.2721C66.4721 61.8838 66.5497 61.4569 66.5197 61.0308C66.4897 60.6046 66.3531 60.1928 66.1224 59.8332C65.8917 59.4736 65.5743 59.1778 65.1995 58.9729C64.8246 58.768 64.4042 58.6606 63.977 58.6606C63.5498 58.6606 63.1294 58.768 62.7545 58.9729C62.3796 59.1778 62.0622 59.4736 61.8316 59.8332C61.6009 60.1928 61.4642 60.6046 61.4343 61.0308C61.4043 61.4569 61.4819 61.8838 61.66 62.2721C61.8634 61.8286 62.1898 61.4528 62.6006 61.1894C63.0113 60.9259 63.489 60.786 63.977 60.7861Z" fill="white"/>
<path d="M61.428 61.2101C61.428 61.8862 61.6966 62.5345 62.1746 63.0126C62.6526 63.4906 63.301 63.7591 63.977 63.7591C64.653 63.7591 65.3014 63.4906 65.7794 63.0126C66.2575 62.5345 66.526 61.8862 66.526 61.2101C66.526 60.5341 66.2575 59.8858 65.7794 59.4077C65.3014 58.9297 64.653 58.6611 63.977 58.6611C63.301 58.6611 62.6526 58.9297 62.1746 59.4077C61.6966 59.8858 61.428 60.5341 61.428 61.2101Z" stroke="#45413C" stroke-linecap="round" stroke-linejoin="round"/>
<path d="M72.643 61.2101C72.8484 61.2103 73.0514 61.1658 73.2379 61.0798C73.4244 60.9938 73.59 60.8682 73.7231 60.7118C73.8563 60.5555 73.9539 60.372 74.0091 60.1742C74.0643 59.9763 74.0759 59.7689 74.043 59.5661C73.6186 57.0481 72.2651 54.7809 70.2501 53.2124C68.2351 51.6439 65.705 50.8883 63.1598 51.0948C60.6147 51.3014 58.2395 52.4551 56.5038 54.3279C54.768 56.2008 53.7978 58.6566 53.785 61.2101H57.185C57.2375 59.4424 57.9767 57.7647 59.2456 56.5329C60.5146 55.3011 62.2135 54.6121 63.982 54.6121C65.7505 54.6121 67.4494 55.3011 68.7184 56.5329C69.9873 57.7647 70.7265 59.4424 70.779 61.2101H72.643Z" fill="#DAEDF7" stroke="#45413C" stroke-linecap="round" stroke-linejoin="round"/>
<path d="M17.762 56.1132H14.699" stroke="#45413C" stroke-linecap="round" stroke-linejoin="round"/>
<path d="M33.391 36.9451C31.068 39.2671 26.496 38.4601 23.178 35.1451C19.86 31.8301 19.053 27.2551 21.378 24.9321C21.378 24.9321 23.857 30.1141 27.386 30.9401C27.8 34.2791 33.391 36.9451 33.391 36.9451Z" fill="white" stroke="#45413C" stroke-linecap="round" stroke-linejoin="round"/>
<path d="M27.383 30.9371L29.186 29.1351" stroke="#45413C" stroke-linecap="round" stroke-linejoin="round"/>
<path d="M32.79 30.3361C32.4713 30.6536 32.0398 30.8319 31.59 30.8319C31.1401 30.8319 30.7086 30.6536 30.39 30.3361L27.99 27.9361C27.702 27.612 27.5487 27.1902 27.5614 26.7568C27.5742 26.3234 27.752 25.9113 28.0586 25.6047C28.3652 25.2982 28.7773 25.1203 29.2107 25.1075C29.644 25.0948 30.0659 25.2481 30.39 25.5361L32.79 27.9361C33.1075 28.2547 33.2858 28.6863 33.2858 29.1361C33.2858 29.586 33.1075 30.0175 32.79 30.3361Z" fill="#ADC4D9"/>
<path d="M32.79 27.9331L30.39 25.5331C30.1815 25.3248 29.9225 25.1743 29.6383 25.0963C29.3541 25.0183 29.0545 25.0155 28.7689 25.0882C28.4833 25.1609 28.2216 25.3066 28.0093 25.511C27.797 25.7154 27.6415 25.9715 27.558 26.2541C27.851 26.1679 28.1619 26.1623 28.4579 26.2377C28.7538 26.3132 29.024 26.4671 29.24 26.6831L31.64 29.0831C31.856 29.2991 32.0099 29.5692 32.0853 29.8652C32.1608 30.1612 32.1552 30.4721 32.069 30.7651C32.3516 30.6816 32.6077 30.5261 32.8121 30.3138C33.0165 30.1015 33.1622 29.8397 33.2349 29.5542C33.3076 29.2686 33.3048 28.969 33.2268 28.6848C33.1488 28.4006 32.9983 28.1416 32.79 27.9331Z" fill="#DAEDF7"/>
<path d="M32.79 30.3361C32.4713 30.6536 32.0398 30.8319 31.59 30.8319C31.1401 30.8319 30.7086 30.6536 30.39 30.3361L27.99 27.9361C27.702 27.612 27.5487 27.1902 27.5614 26.7568C27.5742 26.3234 27.752 25.9113 28.0586 25.6047C28.3652 25.2982 28.7773 25.1203 29.2107 25.1075C29.644 25.0948 30.0659 25.2481 30.39 25.5361L32.79 27.9361C33.1075 28.2547 33.2858 28.6863 33.2858 29.1361C33.2858 29.586 33.1075 30.0175 32.79 30.3361Z" stroke="#45413C" stroke-linecap="round" stroke-linejoin="round"/>
<path d="M19.797 53.6112V47.6172" stroke="#45413C" stroke-linecap="round" stroke-linejoin="round"/>
<path d="M23.2 47.6172H15.7C15.4348 47.6172 15.1804 47.5118 14.9929 47.3243C14.8054 47.1367 14.7 46.8824 14.7 46.6172V45.2172C14.7 44.9519 14.8054 44.6976 14.9929 44.5101C15.1804 44.3225 15.4348 44.2172 15.7 44.2172H23.2V47.6172Z" fill="#F8F8F8" stroke="#45413C" stroke-linecap="round" stroke-linejoin="round"/>
<path d="M64.826 34.8721C64.826 35.2069 64.8919 35.5383 65.02 35.8476C65.1481 36.1568 65.3359 36.4378 65.5726 36.6745C65.8093 36.9112 66.0903 37.099 66.3995 37.2271C66.7088 37.3552 67.0403 37.4211 67.375 37.4211C67.7097 37.4211 68.0412 37.3552 68.3505 37.2271C68.6597 37.099 68.9407 36.9112 69.1774 36.6745C69.4141 36.4378 69.6019 36.1568 69.73 35.8476C69.8581 35.5383 69.924 35.2069 69.924 34.8721C69.924 34.5374 69.8581 34.2059 69.73 33.8967C69.6019 33.5874 69.4141 33.3064 69.1774 33.0697C68.9407 32.833 68.6597 32.6453 68.3505 32.5172C68.0412 32.3891 67.7097 32.3231 67.375 32.3231C67.0403 32.3231 66.7088 32.3891 66.3995 32.5172C66.0903 32.6453 65.8093 32.833 65.5726 33.0697C65.3359 33.3064 65.1481 33.5874 65.02 33.8967C64.8919 34.2059 64.826 34.5374 64.826 34.8721Z" fill="#FF6242"/>
<path d="M67.375 34.3572C67.8716 34.3569 68.3575 34.5018 68.7728 34.774C69.1882 35.0461 69.515 35.4338 69.713 35.8892C69.8822 35.5011 69.9521 35.0771 69.9164 34.6552C69.8808 34.2334 69.7407 33.8271 69.5087 33.473C69.2768 33.1188 68.9603 32.828 68.5879 32.6267C68.2155 32.4255 67.7988 32.3201 67.3755 32.3201C66.9522 32.3201 66.5355 32.4255 66.1631 32.6267C65.7907 32.828 65.4742 33.1188 65.2423 33.473C65.0103 33.8271 64.8702 34.2334 64.8346 34.6552C64.7989 35.0771 64.8688 35.5011 65.038 35.8892C65.236 35.4339 65.5626 35.0464 65.9778 34.7742C66.3929 34.5021 66.8786 34.3571 67.375 34.3572Z" fill="#FF6242"/>
<path d="M64.826 34.8721C64.826 35.2069 64.8919 35.5383 65.02 35.8476C65.1481 36.1568 65.3359 36.4378 65.5726 36.6745C65.8093 36.9112 66.0903 37.099 66.3995 37.2271C66.7088 37.3552 67.0403 37.4211 67.375 37.4211C67.7097 37.4211 68.0412 37.3552 68.3505 37.2271C68.6597 37.099 68.9407 36.9112 69.1774 36.6745C69.4141 36.4378 69.6019 36.1568 69.73 35.8476C69.8581 35.5383 69.924 35.2069 69.924 34.8721C69.924 34.5374 69.8581 34.2059 69.73 33.8967C69.6019 33.5874 69.4141 33.3064 69.1774 33.0697C68.9407 32.833 68.6597 32.6453 68.3505 32.5172C68.0412 32.3891 67.7097 32.3231 67.375 32.3231C67.0403 32.3231 66.7088 32.3891 66.3995 32.5172C66.0903 32.6453 65.8093 32.833 65.5726 33.0697C65.3359 33.3064 65.1481 33.5874 65.02 33.8967C64.8919 34.2059 64.826 34.5374 64.826 34.8721Z" stroke="#45413C" stroke-linecap="round" stroke-linejoin="round"/>
<path d="M36.217 49.3162V57.8122" stroke="#45413C" stroke-linecap="round" stroke-linejoin="round"/>
<path d="M41.3 47.5572C41.3519 47.7659 41.3556 47.9837 41.3108 48.1941C41.2661 48.4045 41.174 48.6019 41.0416 48.7714C40.9092 48.941 40.7399 49.0781 40.5466 49.1725C40.3533 49.2669 40.1411 49.316 39.926 49.3162H32.961C32.5863 49.3162 32.2269 49.1677 31.9615 48.9032C31.6961 48.6387 31.5463 48.2798 31.545 47.9052V43.9352C31.545 43.5596 31.6942 43.1995 31.9597 42.9339C32.2253 42.6684 32.5854 42.5192 32.961 42.5192H38.935C39.2509 42.5191 39.5577 42.6247 39.8067 42.8191C40.0557 43.0136 40.2325 43.2857 40.309 43.5922L41.3 47.5572Z" fill="#F8F8F8"/>
<path d="M40.89 45.9172L40.309 43.5922C40.2325 43.2857 40.0557 43.0136 39.8067 42.8191C39.5577 42.6247 39.2509 42.5191 38.935 42.5192H32.961C32.5854 42.5192 32.2253 42.6684 31.9597 42.9339C31.6942 43.1995 31.545 43.5596 31.545 43.9352V45.9172H40.89Z" fill="white"/>
<path d="M41.3 47.5572C41.3519 47.7659 41.3556 47.9837 41.3108 48.1941C41.2661 48.4045 41.174 48.6019 41.0416 48.7714C40.9092 48.941 40.7399 49.0781 40.5466 49.1725C40.3533 49.2669 40.1411 49.316 39.926 49.3162H32.961C32.5863 49.3162 32.2269 49.1677 31.9615 48.9032C31.6961 48.6387 31.5463 48.2798 31.545 47.9052V43.9352C31.545 43.5596 31.6942 43.1995 31.9597 42.9339C32.2253 42.6684 32.5854 42.5192 32.961 42.5192H38.935C39.2509 42.5191 39.5577 42.6247 39.8067 42.8191C40.0557 43.0136 40.2325 43.2857 40.309 43.5922L41.3 47.5572Z" stroke="#45413C" stroke-linecap="round" stroke-linejoin="round"/>
<path d="M62.155 23.4171C62.1602 23.6228 62.1242 23.8275 62.0491 24.0191C61.974 24.2107 61.8613 24.3854 61.7176 24.5327C61.574 24.6801 61.4023 24.7972 61.2126 24.8772C61.023 24.9571 60.8193 24.9983 60.6135 24.9983C60.4077 24.9983 60.204 24.9571 60.0143 24.8772C59.8247 24.7972 59.653 24.6801 59.5093 24.5327C59.3657 24.3854 59.253 24.2107 59.1779 24.0191C59.1027 23.8275 59.0667 23.6228 59.072 23.4171C59.072 23.0084 58.9096 22.6164 58.6206 22.3274C58.3316 22.0384 57.9397 21.8761 57.531 21.8761C57.1223 21.8761 56.7303 22.0384 56.4413 22.3274C56.1523 22.6164 55.99 23.0084 55.99 23.4171V29.5821C57.6024 29.5845 59.1948 29.2249 60.6497 28.5299C62.1047 27.8348 63.385 26.8221 64.3964 25.5663C65.4077 24.3105 66.1243 22.8436 66.4932 21.274C66.8622 19.7044 66.874 18.0719 66.528 16.4971C65.2211 17.1213 64.1173 18.1021 63.3436 19.3265C62.5699 20.5508 62.1579 21.9688 62.155 23.4171Z" fill="#9CEB60" stroke="#45413C" stroke-linecap="round" stroke-linejoin="round"/>
<path d="M45.3 17.4141L48.847 19.0261C49.1349 19.1569 49.4489 19.2198 49.765 19.2099C50.081 19.1999 50.3905 19.1174 50.6696 18.9687C50.9487 18.8201 51.1898 18.6092 51.3744 18.3525C51.5589 18.0958 51.682 17.8 51.734 17.4881L51.879 16.6181C51.9594 16.1367 52.2079 15.6995 52.5803 15.384C52.9527 15.0685 53.4249 14.8953 53.913 14.8951H53.923C54.3137 14.8962 54.6967 14.7862 55.0273 14.5779C55.3578 14.3696 55.6224 14.0716 55.7901 13.7187C55.9578 13.3658 56.0217 12.9725 55.9744 12.5847C55.9272 12.1968 55.7706 11.8304 55.523 11.5281C54.698 10.5281 53.803 9.42813 52.99 8.43713C50.9736 9.02266 49.1719 10.1839 47.8059 11.7785C46.4399 13.3731 45.569 15.3317 45.3 17.4141Z" fill="#9CEB60" stroke="#45413C" stroke-linecap="round" stroke-linejoin="round"/>
<path opacity="0.15" d="M29 67.5051C29 67.903 30.7911 68.2845 33.9792 68.5658C37.1673 68.8471 41.4913 69.0051 46 69.0051C50.5087 69.0051 54.8327 68.8471 58.0208 68.5658C61.2089 68.2845 63 67.903 63 67.5051C63 67.1073 61.2089 66.7258 58.0208 66.4445C54.8327 66.1632 50.5087 66.0051 46 66.0051C41.4913 66.0051 37.1673 66.1632 33.9792 66.4445C30.7911 66.7258 29 67.1073 29 67.5051Z" fill="#45413C"/>
</svg>
