<svg width="11" height="11" viewBox="0 0 11 11" fill="none" xmlns="http://www.w3.org/2000/svg">
<g clip-path="url(#clip0_177_33)">
<mask id="path-1-outside-1_177_33" maskUnits="userSpaceOnUse" x="3.30806" y="5.02534" width="3" height="3" fill="black">
<rect fill="white" x="3.30806" y="5.02534" width="3" height="3"/>
<path d="M5.77487 6.24191C5.77487 6.58072 5.48158 6.79243 5.22177 6.79243C4.96198 6.79243 4.65031 6.68718 4.65031 6.24191V6.02534H4.30806V6.24191C4.30806 6.73501 4.71812 7.13607 5.22177 7.13607C5.72543 7.13607 6.1355 6.73501 6.1355 6.24191V6.02534H5.77487V6.24191Z"/>
</mask>
<g clip-path="url(#paint0_diamond_177_33_clip_path)" data-figma-skip-parse="true"><g transform="matrix(0 0.000555364 -0.000913719 0 5.22178 6.58071)"><rect x="0" y="0" width="1180.06" height="1109.44" fill="url(#paint0_diamond_177_33)" opacity="1" shape-rendering="crispEdges"/><rect x="0" y="0" width="1180.06" height="1109.44" transform="scale(1 -1)" fill="url(#paint0_diamond_177_33)" opacity="1" shape-rendering="crispEdges"/><rect x="0" y="0" width="1180.06" height="1109.44" transform="scale(-1 1)" fill="url(#paint0_diamond_177_33)" opacity="1" shape-rendering="crispEdges"/><rect x="0" y="0" width="1180.06" height="1109.44" transform="scale(-1)" fill="url(#paint0_diamond_177_33)" opacity="1" shape-rendering="crispEdges"/></g></g><path d="M5.77487 6.24191C5.77487 6.58072 5.48158 6.79243 5.22177 6.79243C4.96198 6.79243 4.65031 6.68718 4.65031 6.24191V6.02534H4.30806V6.24191C4.30806 6.73501 4.71812 7.13607 5.22177 7.13607C5.72543 7.13607 6.1355 6.73501 6.1355 6.24191V6.02534H5.77487V6.24191Z" data-figma-gradient-fill="{&#34;type&#34;:&#34;GRADIENT_DIAMOND&#34;,&#34;stops&#34;:[{&#34;color&#34;:{&#34;r&#34;:0.43921568989753723,&#34;g&#34;:0.16078431904315948,&#34;b&#34;:0.96078431606292725,&#34;a&#34;:1.0},&#34;position&#34;:0.0},{&#34;color&#34;:{&#34;r&#34;:0.25635853409767151,&#34;g&#34;:0.093845538794994354,&#34;b&#34;:0.56078433990478516,&#34;a&#34;:1.0},&#34;position&#34;:1.0}],&#34;stopsVar&#34;:[{&#34;color&#34;:{&#34;r&#34;:0.43921568989753723,&#34;g&#34;:0.16078431904315948,&#34;b&#34;:0.96078431606292725,&#34;a&#34;:1.0},&#34;position&#34;:0.0},{&#34;color&#34;:{&#34;r&#34;:0.25635853409767151,&#34;g&#34;:0.093845538794994354,&#34;b&#34;:0.56078433990478516,&#34;a&#34;:1.0},&#34;position&#34;:1.0}],&#34;transform&#34;:{&#34;m00&#34;:1.1189828011376441e-16,&#34;m01&#34;:-1.8274375200271606,&#34;m02&#34;:6.1354970932006836,&#34;m10&#34;:1.1107288599014282,&#34;m11&#34;:6.8012530352118747e-17,&#34;m12&#34;:6.0253448486328125},&#34;opacity&#34;:1.0,&#34;blendMode&#34;:&#34;NORMAL&#34;,&#34;visible&#34;:true}"/>
<g clip-path="url(#paint1_diamond_177_33_clip_path)" data-figma-skip-parse="true" mask="url(#path-1-outside-1_177_33)"><g transform="matrix(0 0.000555364 -0.000913719 0 5.22178 6.58071)"><rect x="0" y="0" width="1180.06" height="1109.44" fill="url(#paint1_diamond_177_33)" opacity="1" shape-rendering="crispEdges"/><rect x="0" y="0" width="1180.06" height="1109.44" transform="scale(1 -1)" fill="url(#paint1_diamond_177_33)" opacity="1" shape-rendering="crispEdges"/><rect x="0" y="0" width="1180.06" height="1109.44" transform="scale(-1 1)" fill="url(#paint1_diamond_177_33)" opacity="1" shape-rendering="crispEdges"/><rect x="0" y="0" width="1180.06" height="1109.44" transform="scale(-1)" fill="url(#paint1_diamond_177_33)" opacity="1" shape-rendering="crispEdges"/></g></g><path d="M4.65031 6.02534H4.75031V5.92534H4.65031V6.02534ZM4.30806 6.02534V5.92534H4.20806V6.02534H4.30806ZM6.1355 6.02534H6.2355V5.92534H6.1355V6.02534ZM5.77487 6.02534V5.92534H5.67487V6.02534H5.77487ZM5.77487 6.24191H5.67487C5.67487 6.5159 5.43646 6.69243 5.22177 6.69243V6.79243V6.89243C5.5267 6.89243 5.87487 6.64554 5.87487 6.24191H5.77487ZM5.22177 6.79243V6.69243C5.10268 6.69243 4.98443 6.66787 4.89823 6.60386C4.81737 6.54381 4.75031 6.4384 4.75031 6.24191H4.65031H4.55031C4.55031 6.49068 4.63909 6.66054 4.779 6.76443C4.91358 6.86436 5.08107 6.89243 5.22177 6.89243V6.79243ZM4.65031 6.24191H4.75031V6.02534H4.65031H4.55031V6.24191H4.65031ZM4.65031 6.02534V5.92534H4.30806V6.02534V6.12534H4.65031V6.02534ZM4.30806 6.02534H4.20806V6.24191H4.30806H4.40806V6.02534H4.30806ZM4.30806 6.24191H4.20806C4.20806 6.79228 4.66496 7.23607 5.22177 7.23607V7.13607V7.03607C4.77128 7.03607 4.40806 6.67774 4.40806 6.24191H4.30806ZM5.22177 7.13607V7.23607C5.7786 7.23607 6.2355 6.79228 6.2355 6.24191H6.1355H6.0355C6.0355 6.67774 5.67227 7.03607 5.22177 7.03607V7.13607ZM6.1355 6.24191H6.2355V6.02534H6.1355H6.0355V6.24191H6.1355ZM6.1355 6.02534V5.92534H5.77487V6.02534V6.12534H6.1355V6.02534ZM5.77487 6.02534H5.67487V6.24191H5.77487H5.87487V6.02534H5.77487Z" data-figma-gradient-fill="{&#34;type&#34;:&#34;GRADIENT_DIAMOND&#34;,&#34;stops&#34;:[{&#34;color&#34;:{&#34;r&#34;:0.43921568989753723,&#34;g&#34;:0.16078431904315948,&#34;b&#34;:0.96078431606292725,&#34;a&#34;:1.0},&#34;position&#34;:0.0},{&#34;color&#34;:{&#34;r&#34;:0.25635853409767151,&#34;g&#34;:0.093845538794994354,&#34;b&#34;:0.56078433990478516,&#34;a&#34;:1.0},&#34;position&#34;:1.0}],&#34;stopsVar&#34;:[{&#34;color&#34;:{&#34;r&#34;:0.43921568989753723,&#34;g&#34;:0.16078431904315948,&#34;b&#34;:0.96078431606292725,&#34;a&#34;:1.0},&#34;position&#34;:0.0},{&#34;color&#34;:{&#34;r&#34;:0.25635853409767151,&#34;g&#34;:0.093845538794994354,&#34;b&#34;:0.56078433990478516,&#34;a&#34;:1.0},&#34;position&#34;:1.0}],&#34;transform&#34;:{&#34;m00&#34;:1.1189828011376441e-16,&#34;m01&#34;:-1.8274375200271606,&#34;m02&#34;:6.1354970932006836,&#34;m10&#34;:1.1107288599014282,&#34;m11&#34;:6.8012530352118747e-17,&#34;m12&#34;:6.0253448486328125},&#34;opacity&#34;:1.0,&#34;blendMode&#34;:&#34;NORMAL&#34;,&#34;visible&#34;:true}" mask="url(#path-1-outside-1_177_33)"/>
<mask id="path-3-outside-2_177_33" maskUnits="userSpaceOnUse" x="1.50658" y="3.23964" width="4" height="3" fill="black">
<rect fill="white" x="1.50658" y="3.23964" width="4" height="3"/>
<path d="M2.90047 5.19618C2.90047 4.87264 3.18108 4.60951 3.52585 4.60951C3.87037 4.60951 4.15097 4.87285 4.15097 5.19618H4.54487C4.54487 4.66864 4.08797 4.23964 3.52585 4.23964C2.9637 4.23964 2.50658 4.66864 2.50658 5.19618H2.90047Z"/>
</mask>
<g clip-path="url(#paint2_diamond_177_33_clip_path)" data-figma-skip-parse="true"><g transform="matrix(0 0.000478271 -0.00101915 0 3.52572 4.71791)"><rect x="0" y="0" width="1209.09" height="1098.12" fill="url(#paint2_diamond_177_33)" opacity="1" shape-rendering="crispEdges"/><rect x="0" y="0" width="1209.09" height="1098.12" transform="scale(1 -1)" fill="url(#paint2_diamond_177_33)" opacity="1" shape-rendering="crispEdges"/><rect x="0" y="0" width="1209.09" height="1098.12" transform="scale(-1 1)" fill="url(#paint2_diamond_177_33)" opacity="1" shape-rendering="crispEdges"/><rect x="0" y="0" width="1209.09" height="1098.12" transform="scale(-1)" fill="url(#paint2_diamond_177_33)" opacity="1" shape-rendering="crispEdges"/></g></g><path d="M2.90047 5.19618C2.90047 4.87264 3.18108 4.60951 3.52585 4.60951C3.87037 4.60951 4.15097 4.87285 4.15097 5.19618H4.54487C4.54487 4.66864 4.08797 4.23964 3.52585 4.23964C2.9637 4.23964 2.50658 4.66864 2.50658 5.19618H2.90047Z" data-figma-gradient-fill="{&#34;type&#34;:&#34;GRADIENT_DIAMOND&#34;,&#34;stops&#34;:[{&#34;color&#34;:{&#34;r&#34;:0.43921568989753723,&#34;g&#34;:0.16078431904315948,&#34;b&#34;:0.96078431606292725,&#34;a&#34;:1.0},&#34;position&#34;:0.0},{&#34;color&#34;:{&#34;r&#34;:0.25635853409767151,&#34;g&#34;:0.093845538794994354,&#34;b&#34;:0.56078433990478516,&#34;a&#34;:1.0},&#34;position&#34;:1.0}],&#34;stopsVar&#34;:[{&#34;color&#34;:{&#34;r&#34;:0.43921568989753723,&#34;g&#34;:0.16078431904315948,&#34;b&#34;:0.96078431606292725,&#34;a&#34;:1.0},&#34;position&#34;:0.0},{&#34;color&#34;:{&#34;r&#34;:0.25635853409767151,&#34;g&#34;:0.093845538794994354,&#34;b&#34;:0.56078433990478516,&#34;a&#34;:1.0},&#34;position&#34;:1.0}],&#34;transform&#34;:{&#34;m00&#34;:1.2480937833563510e-16,&#34;m01&#34;:-2.0382916927337646,&#34;m02&#34;:4.5448684692382812,&#34;m10&#34;:0.95654165744781494,&#34;m11&#34;:5.8571289363785502e-17,&#34;m12&#34;:4.2396392822265625},&#34;opacity&#34;:1.0,&#34;blendMode&#34;:&#34;NORMAL&#34;,&#34;visible&#34;:true}"/>
<g clip-path="url(#paint3_diamond_177_33_clip_path)" data-figma-skip-parse="true" mask="url(#path-3-outside-2_177_33)"><g transform="matrix(0 0.000478271 -0.00101915 0 3.52572 4.71791)"><rect x="0" y="0" width="1209.09" height="1098.12" fill="url(#paint3_diamond_177_33)" opacity="1" shape-rendering="crispEdges"/><rect x="0" y="0" width="1209.09" height="1098.12" transform="scale(1 -1)" fill="url(#paint3_diamond_177_33)" opacity="1" shape-rendering="crispEdges"/><rect x="0" y="0" width="1209.09" height="1098.12" transform="scale(-1 1)" fill="url(#paint3_diamond_177_33)" opacity="1" shape-rendering="crispEdges"/><rect x="0" y="0" width="1209.09" height="1098.12" transform="scale(-1)" fill="url(#paint3_diamond_177_33)" opacity="1" shape-rendering="crispEdges"/></g></g><path d="M2.90047 5.19618V5.29618H3.00047V5.19618H2.90047ZM4.15097 5.19618H4.05097V5.29618H4.15097V5.19618ZM4.54487 5.19618V5.29618H4.64487V5.19618H4.54487ZM2.50658 5.19618H2.40658V5.29618H2.50658V5.19618ZM2.90047 5.19618H3.00047C3.00047 4.9338 3.23018 4.70951 3.52585 4.70951V4.60951V4.50951C3.13198 4.50951 2.80047 4.81148 2.80047 5.19618H2.90047ZM3.52585 4.60951V4.70951C3.82122 4.70951 4.05097 4.93396 4.05097 5.19618H4.15097H4.25097C4.25097 4.81173 3.91952 4.50951 3.52585 4.50951V4.60951ZM4.15097 5.19618V5.29618H4.54487V5.19618V5.09618H4.15097V5.19618ZM4.54487 5.19618H4.64487C4.64487 4.60755 4.13715 4.13964 3.52585 4.13964V4.23964V4.33964C4.03879 4.33964 4.44487 4.72973 4.44487 5.19618H4.54487ZM3.52585 4.23964V4.13964C2.91455 4.13964 2.40658 4.60752 2.40658 5.19618H2.50658H2.60658C2.60658 4.72976 3.01285 4.33964 3.52585 4.33964V4.23964ZM2.50658 5.19618V5.29618H2.90047V5.19618V5.09618H2.50658V5.19618Z" data-figma-gradient-fill="{&#34;type&#34;:&#34;GRADIENT_DIAMOND&#34;,&#34;stops&#34;:[{&#34;color&#34;:{&#34;r&#34;:0.43921568989753723,&#34;g&#34;:0.16078431904315948,&#34;b&#34;:0.96078431606292725,&#34;a&#34;:1.0},&#34;position&#34;:0.0},{&#34;color&#34;:{&#34;r&#34;:0.25635853409767151,&#34;g&#34;:0.093845538794994354,&#34;b&#34;:0.56078433990478516,&#34;a&#34;:1.0},&#34;position&#34;:1.0}],&#34;stopsVar&#34;:[{&#34;color&#34;:{&#34;r&#34;:0.43921568989753723,&#34;g&#34;:0.16078431904315948,&#34;b&#34;:0.96078431606292725,&#34;a&#34;:1.0},&#34;position&#34;:0.0},{&#34;color&#34;:{&#34;r&#34;:0.25635853409767151,&#34;g&#34;:0.093845538794994354,&#34;b&#34;:0.56078433990478516,&#34;a&#34;:1.0},&#34;position&#34;:1.0}],&#34;transform&#34;:{&#34;m00&#34;:1.2480937833563510e-16,&#34;m01&#34;:-2.0382916927337646,&#34;m02&#34;:4.5448684692382812,&#34;m10&#34;:0.95654165744781494,&#34;m11&#34;:5.8571289363785502e-17,&#34;m12&#34;:4.2396392822265625},&#34;opacity&#34;:1.0,&#34;blendMode&#34;:&#34;NORMAL&#34;,&#34;visible&#34;:true}" mask="url(#path-3-outside-2_177_33)"/>
<mask id="path-5-outside-3_177_33" maskUnits="userSpaceOnUse" x="4.75256" y="3.23964" width="4" height="3" fill="black">
<rect fill="white" x="4.75256" y="3.23964" width="4" height="3"/>
<path d="M6.14646 5.19618C6.14646 4.87264 6.42706 4.60951 6.77158 4.60951C7.11636 4.60951 7.39696 4.87285 7.39696 5.19618H7.79086C7.79086 4.66864 7.33373 4.23964 6.77158 4.23964C6.20946 4.23964 5.75256 4.66864 5.75256 5.19618H6.14646Z"/>
</mask>
<g clip-path="url(#paint4_diamond_177_33_clip_path)" data-figma-skip-parse="true"><g transform="matrix(0 0.000478271 -0.00101915 0 6.77171 4.71791)"><rect x="0" y="0" width="1209.09" height="1098.12" fill="url(#paint4_diamond_177_33)" opacity="1" shape-rendering="crispEdges"/><rect x="0" y="0" width="1209.09" height="1098.12" transform="scale(1 -1)" fill="url(#paint4_diamond_177_33)" opacity="1" shape-rendering="crispEdges"/><rect x="0" y="0" width="1209.09" height="1098.12" transform="scale(-1 1)" fill="url(#paint4_diamond_177_33)" opacity="1" shape-rendering="crispEdges"/><rect x="0" y="0" width="1209.09" height="1098.12" transform="scale(-1)" fill="url(#paint4_diamond_177_33)" opacity="1" shape-rendering="crispEdges"/></g></g><path d="M6.14646 5.19618C6.14646 4.87264 6.42706 4.60951 6.77158 4.60951C7.11636 4.60951 7.39696 4.87285 7.39696 5.19618H7.79086C7.79086 4.66864 7.33373 4.23964 6.77158 4.23964C6.20946 4.23964 5.75256 4.66864 5.75256 5.19618H6.14646Z" data-figma-gradient-fill="{&#34;type&#34;:&#34;GRADIENT_DIAMOND&#34;,&#34;stops&#34;:[{&#34;color&#34;:{&#34;r&#34;:0.43921568989753723,&#34;g&#34;:0.16078431904315948,&#34;b&#34;:0.96078431606292725,&#34;a&#34;:1.0},&#34;position&#34;:0.0},{&#34;color&#34;:{&#34;r&#34;:0.25635853409767151,&#34;g&#34;:0.093845538794994354,&#34;b&#34;:0.56078433990478516,&#34;a&#34;:1.0},&#34;position&#34;:1.0}],&#34;stopsVar&#34;:[{&#34;color&#34;:{&#34;r&#34;:0.43921568989753723,&#34;g&#34;:0.16078431904315948,&#34;b&#34;:0.96078431606292725,&#34;a&#34;:1.0},&#34;position&#34;:0.0},{&#34;color&#34;:{&#34;r&#34;:0.25635853409767151,&#34;g&#34;:0.093845538794994354,&#34;b&#34;:0.56078433990478516,&#34;a&#34;:1.0},&#34;position&#34;:1.0}],&#34;transform&#34;:{&#34;m00&#34;:1.2480940480541470e-16,&#34;m01&#34;:-2.0382921695709229,&#34;m02&#34;:7.7908554077148438,&#34;m10&#34;:0.95654165744781494,&#34;m11&#34;:5.8571289363785502e-17,&#34;m12&#34;:4.2396392822265625},&#34;opacity&#34;:1.0,&#34;blendMode&#34;:&#34;NORMAL&#34;,&#34;visible&#34;:true}"/>
<g clip-path="url(#paint5_diamond_177_33_clip_path)" data-figma-skip-parse="true" mask="url(#path-5-outside-3_177_33)"><g transform="matrix(0 0.000478271 -0.00101915 0 6.77171 4.71791)"><rect x="0" y="0" width="1209.09" height="1098.12" fill="url(#paint5_diamond_177_33)" opacity="1" shape-rendering="crispEdges"/><rect x="0" y="0" width="1209.09" height="1098.12" transform="scale(1 -1)" fill="url(#paint5_diamond_177_33)" opacity="1" shape-rendering="crispEdges"/><rect x="0" y="0" width="1209.09" height="1098.12" transform="scale(-1 1)" fill="url(#paint5_diamond_177_33)" opacity="1" shape-rendering="crispEdges"/><rect x="0" y="0" width="1209.09" height="1098.12" transform="scale(-1)" fill="url(#paint5_diamond_177_33)" opacity="1" shape-rendering="crispEdges"/></g></g><path d="M6.14646 5.19618V5.29618H6.24646V5.19618H6.14646ZM7.39696 5.19618H7.29696V5.29618H7.39696V5.19618ZM7.79086 5.19618V5.29618H7.89086V5.19618H7.79086ZM5.75256 5.19618H5.65256V5.29618H5.75256V5.19618ZM6.14646 5.19618H6.24646C6.24646 4.93378 6.47619 4.70951 6.77158 4.70951V4.60951V4.50951C6.37794 4.50951 6.04646 4.8115 6.04646 5.19618H6.14646ZM6.77158 4.60951V4.70951C7.06723 4.70951 7.29696 4.93399 7.29696 5.19618H7.39696H7.49696C7.49696 4.81171 7.16548 4.50951 6.77158 4.50951V4.60951ZM7.39696 5.19618V5.29618H7.79086V5.19618V5.09618H7.39696V5.19618ZM7.79086 5.19618H7.89086C7.89086 4.60752 7.38288 4.13964 6.77158 4.13964V4.23964V4.33964C7.28458 4.33964 7.69086 4.72976 7.69086 5.19618H7.79086ZM6.77158 4.23964V4.13964C6.16028 4.13964 5.65256 4.60755 5.65256 5.19618H5.75256H5.85256C5.85256 4.72973 6.25864 4.33964 6.77158 4.33964V4.23964ZM5.75256 5.19618V5.29618H6.14646V5.19618V5.09618H5.75256V5.19618Z" data-figma-gradient-fill="{&#34;type&#34;:&#34;GRADIENT_DIAMOND&#34;,&#34;stops&#34;:[{&#34;color&#34;:{&#34;r&#34;:0.43921568989753723,&#34;g&#34;:0.16078431904315948,&#34;b&#34;:0.96078431606292725,&#34;a&#34;:1.0},&#34;position&#34;:0.0},{&#34;color&#34;:{&#34;r&#34;:0.25635853409767151,&#34;g&#34;:0.093845538794994354,&#34;b&#34;:0.56078433990478516,&#34;a&#34;:1.0},&#34;position&#34;:1.0}],&#34;stopsVar&#34;:[{&#34;color&#34;:{&#34;r&#34;:0.43921568989753723,&#34;g&#34;:0.16078431904315948,&#34;b&#34;:0.96078431606292725,&#34;a&#34;:1.0},&#34;position&#34;:0.0},{&#34;color&#34;:{&#34;r&#34;:0.25635853409767151,&#34;g&#34;:0.093845538794994354,&#34;b&#34;:0.56078433990478516,&#34;a&#34;:1.0},&#34;position&#34;:1.0}],&#34;transform&#34;:{&#34;m00&#34;:1.2480940480541470e-16,&#34;m01&#34;:-2.0382921695709229,&#34;m02&#34;:7.7908554077148438,&#34;m10&#34;:0.95654165744781494,&#34;m11&#34;:5.8571289363785502e-17,&#34;m12&#34;:4.2396392822265625},&#34;opacity&#34;:1.0,&#34;blendMode&#34;:&#34;NORMAL&#34;,&#34;visible&#34;:true}" mask="url(#path-5-outside-3_177_33)"/>
<mask id="path-7-outside-4_177_33" maskUnits="userSpaceOnUse" x="6.47018" y="0.13295" width="4" height="10" fill="black">
<rect fill="white" x="6.47018" y="0.13295" width="4" height="10"/>
<path fill-rule="evenodd" clip-rule="evenodd" d="M8.42646 3.94132V2.66986C8.42646 2.24139 8.37435 1.9441 8.27018 1.77799C8.166 1.61188 7.9491 1.4838 7.61946 1.39376C7.51993 1.36582 7.47018 1.3208 7.47018 1.2587C7.47018 1.17487 7.58214 1.13295 7.80604 1.13295H8.14656C8.51662 1.13295 8.79729 1.24783 8.98854 1.47759C9.17979 1.70735 9.27541 2.04268 9.27541 2.48357V3.82489C9.27541 4.13536 9.30885 4.37445 9.37571 4.54211C9.44256 4.70978 9.56618 4.86657 9.74654 5.01249C9.79941 5.05597 9.82585 5.09168 9.82585 5.11961C9.82585 5.14755 9.79941 5.18326 9.74654 5.22674C9.56308 5.37578 9.43869 5.53334 9.37337 5.69945C9.30806 5.86557 9.27541 6.10386 9.27541 6.41434V7.75101C9.27541 8.19501 9.17902 8.53189 8.98621 8.76164C8.79339 8.99141 8.51352 9.10628 8.14656 9.10628H7.80604C7.65989 9.10628 7.56737 9.0993 7.5285 9.08532C7.48962 9.07136 7.47018 9.03643 7.47018 8.98053C7.47018 8.90291 7.5215 8.85168 7.62412 8.82684L7.81071 8.78493C8.22121 8.69178 8.42646 8.28659 8.42646 7.56936V6.29793C8.42646 5.81666 8.54306 5.47668 8.77629 5.27797L8.86493 5.20345C8.90846 5.1662 8.93023 5.13824 8.93023 5.11961C8.93023 5.09789 8.90846 5.06995 8.86493 5.03578L8.77629 4.96126C8.54306 4.76255 8.42646 4.42257 8.42646 3.94132Z"/>
</mask>
<g clip-path="url(#paint6_diamond_177_33_clip_path)" data-figma-skip-parse="true"><g transform="matrix(0 0.00398667 -0.00117783 0 8.64802 5.11962)"><rect x="0" y="0" width="1025.08" height="1084.9" fill="url(#paint6_diamond_177_33)" opacity="1" shape-rendering="crispEdges"/><rect x="0" y="0" width="1025.08" height="1084.9" transform="scale(1 -1)" fill="url(#paint6_diamond_177_33)" opacity="1" shape-rendering="crispEdges"/><rect x="0" y="0" width="1025.08" height="1084.9" transform="scale(-1 1)" fill="url(#paint6_diamond_177_33)" opacity="1" shape-rendering="crispEdges"/><rect x="0" y="0" width="1025.08" height="1084.9" transform="scale(-1)" fill="url(#paint6_diamond_177_33)" opacity="1" shape-rendering="crispEdges"/></g></g><path fill-rule="evenodd" clip-rule="evenodd" d="M8.42646 3.94132V2.66986C8.42646 2.24139 8.37435 1.9441 8.27018 1.77799C8.166 1.61188 7.9491 1.4838 7.61946 1.39376C7.51993 1.36582 7.47018 1.3208 7.47018 1.2587C7.47018 1.17487 7.58214 1.13295 7.80604 1.13295H8.14656C8.51662 1.13295 8.79729 1.24783 8.98854 1.47759C9.17979 1.70735 9.27541 2.04268 9.27541 2.48357V3.82489C9.27541 4.13536 9.30885 4.37445 9.37571 4.54211C9.44256 4.70978 9.56618 4.86657 9.74654 5.01249C9.79941 5.05597 9.82585 5.09168 9.82585 5.11961C9.82585 5.14755 9.79941 5.18326 9.74654 5.22674C9.56308 5.37578 9.43869 5.53334 9.37337 5.69945C9.30806 5.86557 9.27541 6.10386 9.27541 6.41434V7.75101C9.27541 8.19501 9.17902 8.53189 8.98621 8.76164C8.79339 8.99141 8.51352 9.10628 8.14656 9.10628H7.80604C7.65989 9.10628 7.56737 9.0993 7.5285 9.08532C7.48962 9.07136 7.47018 9.03643 7.47018 8.98053C7.47018 8.90291 7.5215 8.85168 7.62412 8.82684L7.81071 8.78493C8.22121 8.69178 8.42646 8.28659 8.42646 7.56936V6.29793C8.42646 5.81666 8.54306 5.47668 8.77629 5.27797L8.86493 5.20345C8.90846 5.1662 8.93023 5.13824 8.93023 5.11961C8.93023 5.09789 8.90846 5.06995 8.86493 5.03578L8.77629 4.96126C8.54306 4.76255 8.42646 4.42257 8.42646 3.94132Z" data-figma-gradient-fill="{&#34;type&#34;:&#34;GRADIENT_DIAMOND&#34;,&#34;stops&#34;:[{&#34;color&#34;:{&#34;r&#34;:0.43921568989753723,&#34;g&#34;:0.16078431904315948,&#34;b&#34;:0.96078431606292725,&#34;a&#34;:1.0},&#34;position&#34;:0.0},{&#34;color&#34;:{&#34;r&#34;:0.25635853409767151,&#34;g&#34;:0.093845538794994354,&#34;b&#34;:0.56078433990478516,&#34;a&#34;:1.0},&#34;position&#34;:1.0}],&#34;stopsVar&#34;:[{&#34;color&#34;:{&#34;r&#34;:0.43921568989753723,&#34;g&#34;:0.16078431904315948,&#34;b&#34;:0.96078431606292725,&#34;a&#34;:1.0},&#34;position&#34;:0.0},{&#34;color&#34;:{&#34;r&#34;:0.25635853409767151,&#34;g&#34;:0.093845538794994354,&#34;b&#34;:0.56078433990478516,&#34;a&#34;:1.0},&#34;position&#34;:1.0}],&#34;transform&#34;:{&#34;m00&#34;:1.4424300082827832e-16,&#34;m01&#34;:-2.3556668758392334,&#34;m02&#34;:9.8258514404296875,&#34;m10&#34;:7.9733314514160156,&#34;m11&#34;:4.8822576739087926e-16,&#34;m12&#34;:1.1329498291015625},&#34;opacity&#34;:1.0,&#34;blendMode&#34;:&#34;NORMAL&#34;,&#34;visible&#34;:true}"/>
<g clip-path="url(#paint7_diamond_177_33_clip_path)" data-figma-skip-parse="true" mask="url(#path-7-outside-4_177_33)"><g transform="matrix(0 0.00398667 -0.00117783 0 8.64802 5.11962)"><rect x="0" y="0" width="1025.08" height="1084.9" fill="url(#paint7_diamond_177_33)" opacity="1" shape-rendering="crispEdges"/><rect x="0" y="0" width="1025.08" height="1084.9" transform="scale(1 -1)" fill="url(#paint7_diamond_177_33)" opacity="1" shape-rendering="crispEdges"/><rect x="0" y="0" width="1025.08" height="1084.9" transform="scale(-1 1)" fill="url(#paint7_diamond_177_33)" opacity="1" shape-rendering="crispEdges"/><rect x="0" y="0" width="1025.08" height="1084.9" transform="scale(-1)" fill="url(#paint7_diamond_177_33)" opacity="1" shape-rendering="crispEdges"/></g></g><path d="M8.27018 1.77799L8.3549 1.72486L8.3549 1.72485L8.27018 1.77799ZM7.61946 1.39376L7.59242 1.49004L7.59311 1.49023L7.61946 1.39376ZM9.74654 5.01249L9.81006 4.93525L9.80944 4.93475L9.74654 5.01249ZM9.74654 5.22674L9.80959 5.30436L9.81005 5.30398L9.74654 5.22674ZM9.37337 5.69945L9.28031 5.66285L9.28031 5.66286L9.37337 5.69945ZM8.98621 8.76164L8.90961 8.69735L8.9096 8.69735L8.98621 8.76164ZM7.5285 9.08532L7.56234 8.99122L7.56229 8.99121L7.5285 9.08532ZM7.62412 8.82684L7.6022 8.72926L7.6006 8.72965L7.62412 8.82684ZM7.81071 8.78493L7.83262 8.8825L7.83283 8.88245L7.81071 8.78493ZM8.77629 5.27797L8.71194 5.20142L8.71144 5.20185L8.77629 5.27797ZM8.86493 5.20345L8.92929 5.28L8.92996 5.27942L8.86493 5.20345ZM8.86493 5.03578L8.80055 5.11237L8.80318 5.11444L8.86493 5.03578ZM8.77629 4.96126L8.71143 5.03738L8.71194 5.03781L8.77629 4.96126ZM8.42646 3.94132H8.52646V2.66986H8.42646H8.32646V3.94132H8.42646ZM8.42646 2.66986H8.52646C8.52646 2.24009 8.47544 1.91708 8.3549 1.72486L8.27018 1.77799L8.18546 1.83112C8.27326 1.97112 8.32646 2.24269 8.32646 2.66986H8.42646ZM8.27018 1.77799L8.3549 1.72485C8.23047 1.52647 7.98319 1.38945 7.64581 1.29729L7.61946 1.39376L7.59311 1.49023C7.91501 1.57815 8.10152 1.69728 8.18547 1.83112L8.27018 1.77799ZM7.61946 1.39376L7.64649 1.29748C7.60433 1.28565 7.58347 1.27292 7.57459 1.26489C7.57074 1.2614 7.57007 1.25964 7.57021 1.25994C7.57043 1.26043 7.57018 1.26044 7.57018 1.2587H7.47018H7.37018C7.37018 1.32046 7.39647 1.37343 7.44041 1.41319C7.48128 1.45017 7.53506 1.47393 7.59242 1.49004L7.61946 1.39376ZM7.47018 1.2587H7.57018C7.57018 1.26237 7.5681 1.26767 7.56586 1.27018C7.56547 1.27062 7.57045 1.26507 7.58921 1.25804C7.62806 1.24349 7.69749 1.23295 7.80604 1.23295V1.13295V1.03295C7.69069 1.03295 7.59219 1.04337 7.51909 1.07074C7.48188 1.08467 7.44487 1.10531 7.41649 1.13719C7.38627 1.17113 7.37018 1.21311 7.37018 1.2587H7.47018ZM7.80604 1.13295V1.23295H8.14656V1.13295V1.03295H7.80604V1.13295ZM8.14656 1.13295V1.23295C8.49464 1.23295 8.74387 1.33996 8.91168 1.54157L8.98854 1.47759L9.0654 1.41362C8.85071 1.15569 8.5386 1.03295 8.14656 1.03295V1.13295ZM8.98854 1.47759L8.91168 1.54157C9.0823 1.74654 9.17541 2.0553 9.17541 2.48357H9.27541H9.37541C9.37541 2.03006 9.27728 1.66817 9.0654 1.41362L8.98854 1.47759ZM9.27541 2.48357H9.17541V3.82489H9.27541H9.37541V2.48357H9.27541ZM9.27541 3.82489H9.17541C9.17541 4.14025 9.20905 4.39415 9.28282 4.57915L9.37571 4.54211L9.46859 4.50508C9.40865 4.35475 9.37541 4.13048 9.37541 3.82489H9.27541ZM9.37571 4.54211L9.28282 4.57915C9.35758 4.76665 9.49368 4.93655 9.68364 5.09023L9.74654 5.01249L9.80944 4.93475C9.63869 4.7966 9.52754 4.65291 9.46859 4.50508L9.37571 4.54211ZM9.74654 5.01249L9.68302 5.08973C9.70615 5.10874 9.71918 5.12264 9.72565 5.13138C9.72874 5.13555 9.72911 5.13692 9.72854 5.13556C9.72794 5.13412 9.72585 5.12848 9.72585 5.11961H9.82585H9.92585C9.92585 5.07489 9.90538 5.03803 9.88639 5.01238C9.86643 4.98541 9.8398 4.95971 9.81005 4.93525L9.74654 5.01249ZM9.82585 5.11961H9.72585C9.72585 5.11075 9.72794 5.10511 9.72854 5.10366C9.72911 5.10231 9.72874 5.10368 9.72565 5.10785C9.71918 5.11659 9.70615 5.13048 9.68302 5.1495L9.74654 5.22674L9.81005 5.30398C9.8398 5.27952 9.86643 5.25382 9.88639 5.22685C9.90538 5.2012 9.92585 5.16434 9.92585 5.11961H9.82585ZM9.74654 5.22674L9.68348 5.14912C9.49085 5.30562 9.35364 5.47634 9.28031 5.66285L9.37337 5.69945L9.46644 5.73604C9.52373 5.59034 9.63531 5.44595 9.80959 5.30435L9.74654 5.22674ZM9.37337 5.69945L9.28031 5.66286C9.20822 5.84622 9.17541 6.09921 9.17541 6.41434H9.27541H9.37541C9.37541 6.10852 9.4079 5.88492 9.46644 5.73604L9.37337 5.69945ZM9.27541 6.41434H9.17541V7.75101H9.27541H9.37541V6.41434H9.27541ZM9.27541 7.75101H9.17541C9.17541 8.18244 9.08151 8.49252 8.90961 8.69735L8.98621 8.76164L9.06281 8.82592C9.27653 8.57125 9.37541 8.20758 9.37541 7.75101H9.27541ZM8.98621 8.76164L8.9096 8.69735C8.73999 8.89947 8.49119 9.00628 8.14656 9.00628V9.10628V9.20628C8.53584 9.20628 8.84679 9.08334 9.06281 8.82592L8.98621 8.76164ZM8.14656 9.10628V9.00628H7.80604V9.10628V9.20628H8.14656V9.10628ZM7.80604 9.10628V9.00628C7.73423 9.00628 7.67733 9.00456 7.63457 9.00133C7.58897 8.99789 7.56797 8.99325 7.56234 8.99122L7.5285 9.08532L7.49466 9.17942C7.5279 9.19138 7.5726 9.19722 7.61951 9.20076C7.66927 9.20452 7.7317 9.20628 7.80604 9.20628V9.10628ZM7.5285 9.08532L7.56229 8.99121C7.56273 8.99136 7.56474 8.9922 7.56724 8.99429C7.56977 8.99642 7.57137 8.99864 7.57215 9.00003C7.57335 9.00219 7.57018 8.99788 7.57018 8.98053H7.47018H7.37018C7.37018 9.01907 7.37674 9.06019 7.39738 9.09728C7.41929 9.13665 7.45331 9.16458 7.4947 9.17944L7.5285 9.08532ZM7.47018 8.98053H7.57018C7.57018 8.96619 7.57387 8.9601 7.57932 8.95466C7.58736 8.94663 7.60651 8.93399 7.64764 8.92404L7.62412 8.82684L7.6006 8.72965C7.53911 8.74453 7.48129 8.76992 7.43802 8.81312C7.39215 8.85891 7.37018 8.91724 7.37018 8.98053H7.47018ZM7.62412 8.82684L7.64604 8.92441L7.83262 8.8825L7.81071 8.78493L7.78879 8.68736L7.6022 8.72928L7.62412 8.82684ZM7.81071 8.78493L7.83283 8.88245C8.06964 8.82872 8.24686 8.68313 8.36173 8.45637C8.47439 8.23395 8.52646 7.93552 8.52646 7.56936H8.42646H8.32646C8.32646 7.92044 8.2759 8.18321 8.18331 8.36599C8.09293 8.54441 7.96227 8.64799 7.78858 8.68741L7.81071 8.78493ZM8.42646 7.56936H8.52646V6.29793H8.42646H8.32646V7.56936H8.42646ZM8.42646 6.29793H8.52646C8.52646 5.82932 8.64035 5.52516 8.84114 5.35409L8.77629 5.27797L8.71144 5.20185C8.44577 5.4282 8.32646 5.804 8.32646 6.29793H8.42646ZM8.77629 5.27797L8.84064 5.35451L8.92928 5.27999L8.86493 5.20345L8.80059 5.1269L8.71194 5.20142L8.77629 5.27797ZM8.86493 5.20345L8.92996 5.27942C8.95411 5.25875 8.97606 5.23748 8.9928 5.21599C9.00674 5.19809 9.03023 5.16383 9.03023 5.11961H8.93023H8.83023C8.83023 5.10518 8.83429 5.09569 8.83555 5.09299C8.83694 5.09002 8.83744 5.08998 8.835 5.0931C8.82997 5.09956 8.81928 5.1109 8.79991 5.12748L8.86493 5.20345ZM8.93023 5.11961H9.03023C9.03023 5.0763 9.00939 5.04222 8.99279 5.02091C8.97494 4.99799 8.95169 4.97675 8.92669 4.95712L8.86493 5.03578L8.80318 5.11444C8.81211 5.12145 8.81915 5.12753 8.82457 5.13269C8.83006 5.13791 8.8333 5.14162 8.83501 5.14381C8.83681 5.14613 8.836 5.1456 8.83455 5.14229C8.83306 5.13889 8.83023 5.13097 8.83023 5.11961H8.93023ZM8.86493 5.03578L8.92928 4.95924L8.84064 4.88471L8.77629 4.96126L8.71194 5.03781L8.80059 5.11233L8.86493 5.03578ZM8.77629 4.96126L8.84114 4.88514C8.64035 4.71407 8.52646 4.40991 8.52646 3.94132H8.42646H8.32646C8.32646 4.43523 8.44577 4.81103 8.71144 5.03738L8.77629 4.96126Z" data-figma-gradient-fill="{&#34;type&#34;:&#34;GRADIENT_DIAMOND&#34;,&#34;stops&#34;:[{&#34;color&#34;:{&#34;r&#34;:0.43921568989753723,&#34;g&#34;:0.16078431904315948,&#34;b&#34;:0.96078431606292725,&#34;a&#34;:1.0},&#34;position&#34;:0.0},{&#34;color&#34;:{&#34;r&#34;:0.25635853409767151,&#34;g&#34;:0.093845538794994354,&#34;b&#34;:0.56078433990478516,&#34;a&#34;:1.0},&#34;position&#34;:1.0}],&#34;stopsVar&#34;:[{&#34;color&#34;:{&#34;r&#34;:0.43921568989753723,&#34;g&#34;:0.16078431904315948,&#34;b&#34;:0.96078431606292725,&#34;a&#34;:1.0},&#34;position&#34;:0.0},{&#34;color&#34;:{&#34;r&#34;:0.25635853409767151,&#34;g&#34;:0.093845538794994354,&#34;b&#34;:0.56078433990478516,&#34;a&#34;:1.0},&#34;position&#34;:1.0}],&#34;transform&#34;:{&#34;m00&#34;:1.4424300082827832e-16,&#34;m01&#34;:-2.3556668758392334,&#34;m02&#34;:9.8258514404296875,&#34;m10&#34;:7.9733314514160156,&#34;m11&#34;:4.8822576739087926e-16,&#34;m12&#34;:1.1329498291015625},&#34;opacity&#34;:1.0,&#34;blendMode&#34;:&#34;NORMAL&#34;,&#34;visible&#34;:true}" mask="url(#path-7-outside-4_177_33)"/>
<mask id="path-9-outside-5_177_33" maskUnits="userSpaceOnUse" x="-0.440506" y="0.121994" width="4" height="10" fill="black">
<rect fill="white" x="-0.440506" y="0.121994" width="4" height="10"/>
<path fill-rule="evenodd" clip-rule="evenodd" d="M1.9589 3.93037V2.65891C1.9589 2.23043 2.01099 1.93314 2.11516 1.76703C2.21934 1.60092 2.43624 1.47285 2.76589 1.3828C2.86539 1.35486 2.91516 1.30984 2.91516 1.24774C2.91516 1.16391 2.8032 1.12199 2.5793 1.12199H2.23878C1.86871 1.12199 1.58806 1.23687 1.3968 1.46664C1.20555 1.6964 1.10993 2.03172 1.10993 2.47262V3.81393C1.10993 4.12441 1.0765 4.36349 1.00964 4.53116C0.942775 4.69883 0.819163 4.85562 0.638794 5.00154C0.585927 5.04501 0.559494 5.08072 0.559494 5.10866C0.559494 5.1366 0.585927 5.17231 0.638794 5.21579C0.822273 5.36481 0.946663 5.52239 1.01197 5.68849C1.07727 5.85462 1.10993 6.09291 1.10993 6.40339V7.74006C1.10993 8.18406 1.20633 8.52093 1.39914 8.75068C1.59194 8.98045 1.87182 9.09533 2.23878 9.09533H2.5793C2.72545 9.09533 2.81797 9.08835 2.85685 9.07437C2.89572 9.06039 2.91516 9.02547 2.91516 8.96958C2.91516 8.89195 2.86385 8.84072 2.76122 8.81589L2.57464 8.77397C2.16414 8.68083 1.9589 8.27564 1.9589 7.55841V6.28697C1.9589 5.8057 1.84228 5.46572 1.60905 5.26701L1.52042 5.19249C1.47688 5.15524 1.45511 5.12729 1.45511 5.10866C1.45511 5.08693 1.47688 5.05897 1.52042 5.02483L1.60905 4.95031C1.84228 4.7516 1.9589 4.41162 1.9589 3.93037Z"/>
</mask>
<g clip-path="url(#paint8_diamond_177_33_clip_path)" data-figma-skip-parse="true"><g transform="matrix(0 0.00398667 -0.00117783 0 1.73733 5.10866)"><rect x="0" y="0" width="1025.08" height="1084.9" fill="url(#paint8_diamond_177_33)" opacity="1" shape-rendering="crispEdges"/><rect x="0" y="0" width="1025.08" height="1084.9" transform="scale(1 -1)" fill="url(#paint8_diamond_177_33)" opacity="1" shape-rendering="crispEdges"/><rect x="0" y="0" width="1025.08" height="1084.9" transform="scale(-1 1)" fill="url(#paint8_diamond_177_33)" opacity="1" shape-rendering="crispEdges"/><rect x="0" y="0" width="1025.08" height="1084.9" transform="scale(-1)" fill="url(#paint8_diamond_177_33)" opacity="1" shape-rendering="crispEdges"/></g></g><path fill-rule="evenodd" clip-rule="evenodd" d="M1.9589 3.93037V2.65891C1.9589 2.23043 2.01099 1.93314 2.11516 1.76703C2.21934 1.60092 2.43624 1.47285 2.76589 1.3828C2.86539 1.35486 2.91516 1.30984 2.91516 1.24774C2.91516 1.16391 2.8032 1.12199 2.5793 1.12199H2.23878C1.86871 1.12199 1.58806 1.23687 1.3968 1.46664C1.20555 1.6964 1.10993 2.03172 1.10993 2.47262V3.81393C1.10993 4.12441 1.0765 4.36349 1.00964 4.53116C0.942775 4.69883 0.819163 4.85562 0.638794 5.00154C0.585927 5.04501 0.559494 5.08072 0.559494 5.10866C0.559494 5.1366 0.585927 5.17231 0.638794 5.21579C0.822273 5.36481 0.946663 5.52239 1.01197 5.68849C1.07727 5.85462 1.10993 6.09291 1.10993 6.40339V7.74006C1.10993 8.18406 1.20633 8.52093 1.39914 8.75068C1.59194 8.98045 1.87182 9.09533 2.23878 9.09533H2.5793C2.72545 9.09533 2.81797 9.08835 2.85685 9.07437C2.89572 9.06039 2.91516 9.02547 2.91516 8.96958C2.91516 8.89195 2.86385 8.84072 2.76122 8.81589L2.57464 8.77397C2.16414 8.68083 1.9589 8.27564 1.9589 7.55841V6.28697C1.9589 5.8057 1.84228 5.46572 1.60905 5.26701L1.52042 5.19249C1.47688 5.15524 1.45511 5.12729 1.45511 5.10866C1.45511 5.08693 1.47688 5.05897 1.52042 5.02483L1.60905 4.95031C1.84228 4.7516 1.9589 4.41162 1.9589 3.93037Z" data-figma-gradient-fill="{&#34;type&#34;:&#34;GRADIENT_DIAMOND&#34;,&#34;stops&#34;:[{&#34;color&#34;:{&#34;r&#34;:0.43921568989753723,&#34;g&#34;:0.16078431904315948,&#34;b&#34;:0.96078431606292725,&#34;a&#34;:1.0},&#34;position&#34;:0.0},{&#34;color&#34;:{&#34;r&#34;:0.25635853409767151,&#34;g&#34;:0.093845538794994354,&#34;b&#34;:0.56078433990478516,&#34;a&#34;:1.0},&#34;position&#34;:1.0}],&#34;stopsVar&#34;:[{&#34;color&#34;:{&#34;r&#34;:0.43921568989753723,&#34;g&#34;:0.16078431904315948,&#34;b&#34;:0.96078431606292725,&#34;a&#34;:1.0},&#34;position&#34;:0.0},{&#34;color&#34;:{&#34;r&#34;:0.25635853409767151,&#34;g&#34;:0.093845538794994354,&#34;b&#34;:0.56078433990478516,&#34;a&#34;:1.0},&#34;position&#34;:1.0}],&#34;transform&#34;:{&#34;m00&#34;:1.4424286847938031e-16,&#34;m01&#34;:-2.3556647300720215,&#34;m02&#34;:2.9151587486267090,&#34;m10&#34;:7.9733333587646484,&#34;m11&#34;:4.8822587326999766e-16,&#34;m12&#34;:1.1219940185546875},&#34;opacity&#34;:1.0,&#34;blendMode&#34;:&#34;NORMAL&#34;,&#34;visible&#34;:true}"/>
<g clip-path="url(#paint9_diamond_177_33_clip_path)" data-figma-skip-parse="true" mask="url(#path-9-outside-5_177_33)"><g transform="matrix(0 0.00398667 -0.00117783 0 1.73733 5.10866)"><rect x="0" y="0" width="1025.08" height="1084.9" fill="url(#paint9_diamond_177_33)" opacity="1" shape-rendering="crispEdges"/><rect x="0" y="0" width="1025.08" height="1084.9" transform="scale(1 -1)" fill="url(#paint9_diamond_177_33)" opacity="1" shape-rendering="crispEdges"/><rect x="0" y="0" width="1025.08" height="1084.9" transform="scale(-1 1)" fill="url(#paint9_diamond_177_33)" opacity="1" shape-rendering="crispEdges"/><rect x="0" y="0" width="1025.08" height="1084.9" transform="scale(-1)" fill="url(#paint9_diamond_177_33)" opacity="1" shape-rendering="crispEdges"/></g></g><path d="M2.11516 1.76703L2.03045 1.7139L2.03045 1.7139L2.11516 1.76703ZM2.76589 1.3828L2.79224 1.47927L2.79293 1.47908L2.76589 1.3828ZM1.3968 1.46664L1.47366 1.53061L1.47366 1.53061L1.3968 1.46664ZM0.638794 5.00154L0.575897 4.92379L0.575274 4.9243L0.638794 5.00154ZM0.638794 5.21579L0.575273 5.29302L0.575749 5.29341L0.638794 5.21579ZM1.01197 5.68849L1.10504 5.65191L1.10503 5.6519L1.01197 5.68849ZM1.39914 8.75068L1.47574 8.6864L1.47574 8.6864L1.39914 8.75068ZM2.76122 8.81589L2.78474 8.71868L2.78314 8.71832L2.76122 8.81589ZM2.57464 8.77397L2.55251 8.87149L2.55272 8.87154L2.57464 8.77397ZM1.60905 5.26701L1.6739 5.19089L1.6734 5.19047L1.60905 5.26701ZM1.52042 5.19249L1.4554 5.26848L1.45606 5.26903L1.52042 5.19249ZM1.52042 5.02483L1.58217 5.10356L1.58477 5.10137L1.52042 5.02483ZM1.60905 4.95031L1.6734 5.02685L1.6739 5.02643L1.60905 4.95031ZM1.9589 3.93037H2.0589V2.65891H1.9589H1.8589V3.93037H1.9589ZM1.9589 2.65891H2.0589C2.0589 2.23172 2.11208 1.96017 2.19988 1.82016L2.11516 1.76703L2.03045 1.7139C1.90989 1.90612 1.8589 2.22914 1.8589 2.65891H1.9589ZM2.11516 1.76703L2.19988 1.82017C2.28382 1.68633 2.47033 1.5672 2.79224 1.47927L2.76589 1.3828L2.73954 1.28634C2.40215 1.37849 2.15487 1.51551 2.03045 1.7139L2.11516 1.76703ZM2.76589 1.3828L2.79293 1.47908C2.85027 1.46297 2.90405 1.43922 2.94493 1.40223C2.98886 1.36249 3.01516 1.30951 3.01516 1.24774H2.91516H2.81516C2.81516 1.24948 2.81491 1.24947 2.81514 1.24898C2.81528 1.24868 2.8146 1.25044 2.81074 1.25393C2.80186 1.26197 2.781 1.27469 2.73885 1.28653L2.76589 1.3828ZM2.91516 1.24774H3.01516C3.01516 1.20215 2.99908 1.16018 2.96885 1.12623C2.94048 1.09436 2.90346 1.07371 2.86626 1.05978C2.79315 1.03241 2.69465 1.02199 2.5793 1.02199V1.12199V1.22199C2.68785 1.22199 2.75728 1.23254 2.79613 1.24708C2.8149 1.25411 2.81987 1.25966 2.81948 1.25922C2.81724 1.25671 2.81516 1.25142 2.81516 1.24774H2.91516ZM2.5793 1.12199V1.02199H2.23878V1.12199V1.22199H2.5793V1.12199ZM2.23878 1.12199V1.02199C1.84673 1.02199 1.53464 1.14474 1.31995 1.40266L1.3968 1.46664L1.47366 1.53061C1.64148 1.32901 1.89069 1.22199 2.23878 1.22199V1.12199ZM1.3968 1.46664L1.31995 1.40266C1.10806 1.65721 1.00993 2.0191 1.00993 2.47262H1.10993H1.20993C1.20993 2.04434 1.30304 1.73559 1.47366 1.53061L1.3968 1.46664ZM1.10993 2.47262H1.00993V3.81393H1.10993H1.20993V2.47262H1.10993ZM1.10993 3.81393H1.00993C1.00993 4.11953 0.976694 4.34379 0.916749 4.49412L1.00964 4.53116L1.10252 4.5682C1.1763 4.38319 1.20993 4.12929 1.20993 3.81393H1.10993ZM1.00964 4.53116L0.916749 4.49412C0.857794 4.64196 0.746659 4.78565 0.575899 4.92379L0.638794 5.00154L0.701689 5.07928C0.891666 4.92559 1.02776 4.75569 1.10252 4.5682L1.00964 4.53116ZM0.638794 5.00154L0.575274 4.9243C0.545528 4.94877 0.518905 4.97446 0.498945 5.00143C0.479956 5.02708 0.459494 5.06394 0.459494 5.10866H0.559494H0.659494C0.659494 5.11753 0.657404 5.12316 0.656802 5.12461C0.656241 5.12596 0.656608 5.12459 0.659693 5.12042C0.666166 5.11168 0.679193 5.09779 0.702314 5.07877L0.638794 5.00154ZM0.559494 5.10866H0.459494C0.459494 5.15338 0.479956 5.19024 0.498945 5.21589C0.518905 5.24286 0.545528 5.26856 0.575274 5.29302L0.638794 5.21579L0.702314 5.13855C0.679193 5.11954 0.666166 5.10564 0.659693 5.0969C0.656608 5.09273 0.656241 5.09137 0.656802 5.09272C0.657404 5.09416 0.659494 5.0998 0.659494 5.10866H0.559494ZM0.638794 5.21579L0.575749 5.29341C0.750045 5.43497 0.86162 5.57939 0.918904 5.72508L1.01197 5.68849L1.10503 5.6519C1.03171 5.46539 0.894502 5.29464 0.701839 5.13816L0.638794 5.21579ZM1.01197 5.68849L0.918902 5.72508C0.977431 5.87397 1.00993 6.09757 1.00993 6.40339H1.10993H1.20993C1.20993 6.08826 1.17712 5.83527 1.10504 5.65191L1.01197 5.68849ZM1.10993 6.40339H1.00993V7.74006H1.10993H1.20993V6.40339H1.10993ZM1.10993 7.74006H1.00993C1.00993 8.19663 1.10882 8.5603 1.32254 8.81496L1.39914 8.75068L1.47574 8.6864C1.30384 8.48156 1.20993 8.17149 1.20993 7.74006H1.10993ZM1.39914 8.75068L1.32253 8.81496C1.53855 9.07239 1.8495 9.19533 2.23878 9.19533V9.09533V8.99533C1.89415 8.99533 1.64534 8.88852 1.47574 8.6864L1.39914 8.75068ZM2.23878 9.09533V9.19533H2.5793V9.09533V8.99533H2.23878V9.09533ZM2.5793 9.09533V9.19533C2.65364 9.19533 2.71607 9.19356 2.76583 9.18981C2.81275 9.18626 2.85744 9.18042 2.89068 9.16847L2.85685 9.07437L2.82301 8.98027C2.81737 8.98229 2.79637 8.98693 2.75077 8.99037C2.70802 8.9936 2.65112 8.99533 2.5793 8.99533V9.09533ZM2.85685 9.07437L2.89068 9.16847C2.93204 9.1536 2.96605 9.12569 2.98796 9.08632C3.0086 9.04923 3.01516 9.00812 3.01516 8.96958H2.91516H2.81516C2.81516 8.98693 2.812 8.99122 2.8132 8.98906C2.81397 8.98767 2.81557 8.98545 2.8181 8.98333C2.82059 8.98125 2.82259 8.98042 2.82301 8.98027L2.85685 9.07437ZM2.91516 8.96958H3.01516C3.01516 8.90629 2.99319 8.84796 2.94733 8.80217C2.90406 8.75897 2.84624 8.73358 2.78474 8.7187L2.76122 8.81589L2.7377 8.91308C2.77883 8.92304 2.79798 8.93568 2.80602 8.9437C2.81147 8.94914 2.81516 8.95524 2.81516 8.96958H2.91516ZM2.76122 8.81589L2.78314 8.71832L2.59656 8.67641L2.57464 8.77397L2.55272 8.87154L2.7393 8.91346L2.76122 8.81589ZM2.57464 8.77397L2.59677 8.67645C2.42307 8.63704 2.29242 8.53346 2.20204 8.35504C2.10946 8.17226 2.0589 7.90949 2.0589 7.55841H1.9589H1.8589C1.8589 7.92456 1.91096 8.223 2.02362 8.44541C2.13849 8.67217 2.31571 8.81776 2.55251 8.87149L2.57464 8.77397ZM1.9589 7.55841H2.0589V6.28697H1.9589H1.8589V7.55841H1.9589ZM1.9589 6.28697H2.0589C2.0589 5.79304 1.93957 5.41724 1.6739 5.19089L1.60905 5.26701L1.54419 5.34313C1.74499 5.51421 1.8589 5.81837 1.8589 6.28697H1.9589ZM1.60905 5.26701L1.6734 5.19047L1.58477 5.11595L1.52042 5.19249L1.45606 5.26903L1.54469 5.34355L1.60905 5.26701ZM1.52042 5.19249L1.58543 5.11651C1.56606 5.09994 1.55536 5.0886 1.55033 5.08215C1.5479 5.07902 1.5484 5.07907 1.54979 5.08204C1.55105 5.08474 1.55511 5.09423 1.55511 5.10866H1.45511H1.35511C1.35511 5.15288 1.3786 5.18713 1.39254 5.20504C1.40928 5.22653 1.43124 5.2478 1.45541 5.26848L1.52042 5.19249ZM1.45511 5.10866H1.55511C1.55511 5.12002 1.55228 5.12793 1.55079 5.13133C1.54934 5.13463 1.54853 5.13516 1.55033 5.13285C1.55204 5.13066 1.55527 5.12696 1.56076 5.12174C1.56617 5.11659 1.5732 5.11051 1.58213 5.10351L1.52042 5.02483L1.4587 4.94614C1.43368 4.96577 1.4104 4.98702 1.39254 5.00995C1.37593 5.03128 1.35511 5.06536 1.35511 5.10866H1.45511ZM1.52042 5.02483L1.58477 5.10137L1.6734 5.02685L1.60905 4.95031L1.54469 4.87377L1.45606 4.94829L1.52042 5.02483ZM1.60905 4.95031L1.6739 5.02643C1.93957 4.80008 2.0589 4.42428 2.0589 3.93037H1.9589H1.8589C1.8589 4.39896 1.74499 4.70311 1.54419 4.87419L1.60905 4.95031Z" data-figma-gradient-fill="{&#34;type&#34;:&#34;GRADIENT_DIAMOND&#34;,&#34;stops&#34;:[{&#34;color&#34;:{&#34;r&#34;:0.43921568989753723,&#34;g&#34;:0.16078431904315948,&#34;b&#34;:0.96078431606292725,&#34;a&#34;:1.0},&#34;position&#34;:0.0},{&#34;color&#34;:{&#34;r&#34;:0.25635853409767151,&#34;g&#34;:0.093845538794994354,&#34;b&#34;:0.56078433990478516,&#34;a&#34;:1.0},&#34;position&#34;:1.0}],&#34;stopsVar&#34;:[{&#34;color&#34;:{&#34;r&#34;:0.43921568989753723,&#34;g&#34;:0.16078431904315948,&#34;b&#34;:0.96078431606292725,&#34;a&#34;:1.0},&#34;position&#34;:0.0},{&#34;color&#34;:{&#34;r&#34;:0.25635853409767151,&#34;g&#34;:0.093845538794994354,&#34;b&#34;:0.56078433990478516,&#34;a&#34;:1.0},&#34;position&#34;:1.0}],&#34;transform&#34;:{&#34;m00&#34;:1.4424286847938031e-16,&#34;m01&#34;:-2.3556647300720215,&#34;m02&#34;:2.9151587486267090,&#34;m10&#34;:7.9733333587646484,&#34;m11&#34;:4.8822587326999766e-16,&#34;m12&#34;:1.1219940185546875},&#34;opacity&#34;:1.0,&#34;blendMode&#34;:&#34;NORMAL&#34;,&#34;visible&#34;:true}" mask="url(#path-9-outside-5_177_33)"/>
</g>
<defs>
<clipPath id="paint0_diamond_177_33_clip_path"><path d="M5.77487 6.24191C5.77487 6.58072 5.48158 6.79243 5.22177 6.79243C4.96198 6.79243 4.65031 6.68718 4.65031 6.24191V6.02534H4.30806V6.24191C4.30806 6.73501 4.71812 7.13607 5.22177 7.13607C5.72543 7.13607 6.1355 6.73501 6.1355 6.24191V6.02534H5.77487V6.24191Z"/></clipPath><clipPath id="paint1_diamond_177_33_clip_path"><path d="M4.65031 6.02534H4.75031V5.92534H4.65031V6.02534ZM4.30806 6.02534V5.92534H4.20806V6.02534H4.30806ZM6.1355 6.02534H6.2355V5.92534H6.1355V6.02534ZM5.77487 6.02534V5.92534H5.67487V6.02534H5.77487ZM5.77487 6.24191H5.67487C5.67487 6.5159 5.43646 6.69243 5.22177 6.69243V6.79243V6.89243C5.5267 6.89243 5.87487 6.64554 5.87487 6.24191H5.77487ZM5.22177 6.79243V6.69243C5.10268 6.69243 4.98443 6.66787 4.89823 6.60386C4.81737 6.54381 4.75031 6.4384 4.75031 6.24191H4.65031H4.55031C4.55031 6.49068 4.63909 6.66054 4.779 6.76443C4.91358 6.86436 5.08107 6.89243 5.22177 6.89243V6.79243ZM4.65031 6.24191H4.75031V6.02534H4.65031H4.55031V6.24191H4.65031ZM4.65031 6.02534V5.92534H4.30806V6.02534V6.12534H4.65031V6.02534ZM4.30806 6.02534H4.20806V6.24191H4.30806H4.40806V6.02534H4.30806ZM4.30806 6.24191H4.20806C4.20806 6.79228 4.66496 7.23607 5.22177 7.23607V7.13607V7.03607C4.77128 7.03607 4.40806 6.67774 4.40806 6.24191H4.30806ZM5.22177 7.13607V7.23607C5.7786 7.23607 6.2355 6.79228 6.2355 6.24191H6.1355H6.0355C6.0355 6.67774 5.67227 7.03607 5.22177 7.03607V7.13607ZM6.1355 6.24191H6.2355V6.02534H6.1355H6.0355V6.24191H6.1355ZM6.1355 6.02534V5.92534H5.77487V6.02534V6.12534H6.1355V6.02534ZM5.77487 6.02534H5.67487V6.24191H5.77487H5.87487V6.02534H5.77487Z" mask="url(#path-1-outside-1_177_33)"/></clipPath><clipPath id="paint2_diamond_177_33_clip_path"><path d="M2.90047 5.19618C2.90047 4.87264 3.18108 4.60951 3.52585 4.60951C3.87037 4.60951 4.15097 4.87285 4.15097 5.19618H4.54487C4.54487 4.66864 4.08797 4.23964 3.52585 4.23964C2.9637 4.23964 2.50658 4.66864 2.50658 5.19618H2.90047Z"/></clipPath><clipPath id="paint3_diamond_177_33_clip_path"><path d="M2.90047 5.19618V5.29618H3.00047V5.19618H2.90047ZM4.15097 5.19618H4.05097V5.29618H4.15097V5.19618ZM4.54487 5.19618V5.29618H4.64487V5.19618H4.54487ZM2.50658 5.19618H2.40658V5.29618H2.50658V5.19618ZM2.90047 5.19618H3.00047C3.00047 4.9338 3.23018 4.70951 3.52585 4.70951V4.60951V4.50951C3.13198 4.50951 2.80047 4.81148 2.80047 5.19618H2.90047ZM3.52585 4.60951V4.70951C3.82122 4.70951 4.05097 4.93396 4.05097 5.19618H4.15097H4.25097C4.25097 4.81173 3.91952 4.50951 3.52585 4.50951V4.60951ZM4.15097 5.19618V5.29618H4.54487V5.19618V5.09618H4.15097V5.19618ZM4.54487 5.19618H4.64487C4.64487 4.60755 4.13715 4.13964 3.52585 4.13964V4.23964V4.33964C4.03879 4.33964 4.44487 4.72973 4.44487 5.19618H4.54487ZM3.52585 4.23964V4.13964C2.91455 4.13964 2.40658 4.60752 2.40658 5.19618H2.50658H2.60658C2.60658 4.72976 3.01285 4.33964 3.52585 4.33964V4.23964ZM2.50658 5.19618V5.29618H2.90047V5.19618V5.09618H2.50658V5.19618Z" mask="url(#path-3-outside-2_177_33)"/></clipPath><clipPath id="paint4_diamond_177_33_clip_path"><path d="M6.14646 5.19618C6.14646 4.87264 6.42706 4.60951 6.77158 4.60951C7.11636 4.60951 7.39696 4.87285 7.39696 5.19618H7.79086C7.79086 4.66864 7.33373 4.23964 6.77158 4.23964C6.20946 4.23964 5.75256 4.66864 5.75256 5.19618H6.14646Z"/></clipPath><clipPath id="paint5_diamond_177_33_clip_path"><path d="M6.14646 5.19618V5.29618H6.24646V5.19618H6.14646ZM7.39696 5.19618H7.29696V5.29618H7.39696V5.19618ZM7.79086 5.19618V5.29618H7.89086V5.19618H7.79086ZM5.75256 5.19618H5.65256V5.29618H5.75256V5.19618ZM6.14646 5.19618H6.24646C6.24646 4.93378 6.47619 4.70951 6.77158 4.70951V4.60951V4.50951C6.37794 4.50951 6.04646 4.8115 6.04646 5.19618H6.14646ZM6.77158 4.60951V4.70951C7.06723 4.70951 7.29696 4.93399 7.29696 5.19618H7.39696H7.49696C7.49696 4.81171 7.16548 4.50951 6.77158 4.50951V4.60951ZM7.39696 5.19618V5.29618H7.79086V5.19618V5.09618H7.39696V5.19618ZM7.79086 5.19618H7.89086C7.89086 4.60752 7.38288 4.13964 6.77158 4.13964V4.23964V4.33964C7.28458 4.33964 7.69086 4.72976 7.69086 5.19618H7.79086ZM6.77158 4.23964V4.13964C6.16028 4.13964 5.65256 4.60755 5.65256 5.19618H5.75256H5.85256C5.85256 4.72973 6.25864 4.33964 6.77158 4.33964V4.23964ZM5.75256 5.19618V5.29618H6.14646V5.19618V5.09618H5.75256V5.19618Z" mask="url(#path-5-outside-3_177_33)"/></clipPath><clipPath id="paint6_diamond_177_33_clip_path"><path fill-rule="evenodd" clip-rule="evenodd" d="M8.42646 3.94132V2.66986C8.42646 2.24139 8.37435 1.9441 8.27018 1.77799C8.166 1.61188 7.9491 1.4838 7.61946 1.39376C7.51993 1.36582 7.47018 1.3208 7.47018 1.2587C7.47018 1.17487 7.58214 1.13295 7.80604 1.13295H8.14656C8.51662 1.13295 8.79729 1.24783 8.98854 1.47759C9.17979 1.70735 9.27541 2.04268 9.27541 2.48357V3.82489C9.27541 4.13536 9.30885 4.37445 9.37571 4.54211C9.44256 4.70978 9.56618 4.86657 9.74654 5.01249C9.79941 5.05597 9.82585 5.09168 9.82585 5.11961C9.82585 5.14755 9.79941 5.18326 9.74654 5.22674C9.56308 5.37578 9.43869 5.53334 9.37337 5.69945C9.30806 5.86557 9.27541 6.10386 9.27541 6.41434V7.75101C9.27541 8.19501 9.17902 8.53189 8.98621 8.76164C8.79339 8.99141 8.51352 9.10628 8.14656 9.10628H7.80604C7.65989 9.10628 7.56737 9.0993 7.5285 9.08532C7.48962 9.07136 7.47018 9.03643 7.47018 8.98053C7.47018 8.90291 7.5215 8.85168 7.62412 8.82684L7.81071 8.78493C8.22121 8.69178 8.42646 8.28659 8.42646 7.56936V6.29793C8.42646 5.81666 8.54306 5.47668 8.77629 5.27797L8.86493 5.20345C8.90846 5.1662 8.93023 5.13824 8.93023 5.11961C8.93023 5.09789 8.90846 5.06995 8.86493 5.03578L8.77629 4.96126C8.54306 4.76255 8.42646 4.42257 8.42646 3.94132Z"/></clipPath><clipPath id="paint7_diamond_177_33_clip_path"><path d="M8.27018 1.77799L8.3549 1.72486L8.3549 1.72485L8.27018 1.77799ZM7.61946 1.39376L7.59242 1.49004L7.59311 1.49023L7.61946 1.39376ZM9.74654 5.01249L9.81006 4.93525L9.80944 4.93475L9.74654 5.01249ZM9.74654 5.22674L9.80959 5.30436L9.81005 5.30398L9.74654 5.22674ZM9.37337 5.69945L9.28031 5.66285L9.28031 5.66286L9.37337 5.69945ZM8.98621 8.76164L8.90961 8.69735L8.9096 8.69735L8.98621 8.76164ZM7.5285 9.08532L7.56234 8.99122L7.56229 8.99121L7.5285 9.08532ZM7.62412 8.82684L7.6022 8.72926L7.6006 8.72965L7.62412 8.82684ZM7.81071 8.78493L7.83262 8.8825L7.83283 8.88245L7.81071 8.78493ZM8.77629 5.27797L8.71194 5.20142L8.71144 5.20185L8.77629 5.27797ZM8.86493 5.20345L8.92929 5.28L8.92996 5.27942L8.86493 5.20345ZM8.86493 5.03578L8.80055 5.11237L8.80318 5.11444L8.86493 5.03578ZM8.77629 4.96126L8.71143 5.03738L8.71194 5.03781L8.77629 4.96126ZM8.42646 3.94132H8.52646V2.66986H8.42646H8.32646V3.94132H8.42646ZM8.42646 2.66986H8.52646C8.52646 2.24009 8.47544 1.91708 8.3549 1.72486L8.27018 1.77799L8.18546 1.83112C8.27326 1.97112 8.32646 2.24269 8.32646 2.66986H8.42646ZM8.27018 1.77799L8.3549 1.72485C8.23047 1.52647 7.98319 1.38945 7.64581 1.29729L7.61946 1.39376L7.59311 1.49023C7.91501 1.57815 8.10152 1.69728 8.18547 1.83112L8.27018 1.77799ZM7.61946 1.39376L7.64649 1.29748C7.60433 1.28565 7.58347 1.27292 7.57459 1.26489C7.57074 1.2614 7.57007 1.25964 7.57021 1.25994C7.57043 1.26043 7.57018 1.26044 7.57018 1.2587H7.47018H7.37018C7.37018 1.32046 7.39647 1.37343 7.44041 1.41319C7.48128 1.45017 7.53506 1.47393 7.59242 1.49004L7.61946 1.39376ZM7.47018 1.2587H7.57018C7.57018 1.26237 7.5681 1.26767 7.56586 1.27018C7.56547 1.27062 7.57045 1.26507 7.58921 1.25804C7.62806 1.24349 7.69749 1.23295 7.80604 1.23295V1.13295V1.03295C7.69069 1.03295 7.59219 1.04337 7.51909 1.07074C7.48188 1.08467 7.44487 1.10531 7.41649 1.13719C7.38627 1.17113 7.37018 1.21311 7.37018 1.2587H7.47018ZM7.80604 1.13295V1.23295H8.14656V1.13295V1.03295H7.80604V1.13295ZM8.14656 1.13295V1.23295C8.49464 1.23295 8.74387 1.33996 8.91168 1.54157L8.98854 1.47759L9.0654 1.41362C8.85071 1.15569 8.5386 1.03295 8.14656 1.03295V1.13295ZM8.98854 1.47759L8.91168 1.54157C9.0823 1.74654 9.17541 2.0553 9.17541 2.48357H9.27541H9.37541C9.37541 2.03006 9.27728 1.66817 9.0654 1.41362L8.98854 1.47759ZM9.27541 2.48357H9.17541V3.82489H9.27541H9.37541V2.48357H9.27541ZM9.27541 3.82489H9.17541C9.17541 4.14025 9.20905 4.39415 9.28282 4.57915L9.37571 4.54211L9.46859 4.50508C9.40865 4.35475 9.37541 4.13048 9.37541 3.82489H9.27541ZM9.37571 4.54211L9.28282 4.57915C9.35758 4.76665 9.49368 4.93655 9.68364 5.09023L9.74654 5.01249L9.80944 4.93475C9.63869 4.7966 9.52754 4.65291 9.46859 4.50508L9.37571 4.54211ZM9.74654 5.01249L9.68302 5.08973C9.70615 5.10874 9.71918 5.12264 9.72565 5.13138C9.72874 5.13555 9.72911 5.13692 9.72854 5.13556C9.72794 5.13412 9.72585 5.12848 9.72585 5.11961H9.82585H9.92585C9.92585 5.07489 9.90538 5.03803 9.88639 5.01238C9.86643 4.98541 9.8398 4.95971 9.81005 4.93525L9.74654 5.01249ZM9.82585 5.11961H9.72585C9.72585 5.11075 9.72794 5.10511 9.72854 5.10366C9.72911 5.10231 9.72874 5.10368 9.72565 5.10785C9.71918 5.11659 9.70615 5.13048 9.68302 5.1495L9.74654 5.22674L9.81005 5.30398C9.8398 5.27952 9.86643 5.25382 9.88639 5.22685C9.90538 5.2012 9.92585 5.16434 9.92585 5.11961H9.82585ZM9.74654 5.22674L9.68348 5.14912C9.49085 5.30562 9.35364 5.47634 9.28031 5.66285L9.37337 5.69945L9.46644 5.73604C9.52373 5.59034 9.63531 5.44595 9.80959 5.30435L9.74654 5.22674ZM9.37337 5.69945L9.28031 5.66286C9.20822 5.84622 9.17541 6.09921 9.17541 6.41434H9.27541H9.37541C9.37541 6.10852 9.4079 5.88492 9.46644 5.73604L9.37337 5.69945ZM9.27541 6.41434H9.17541V7.75101H9.27541H9.37541V6.41434H9.27541ZM9.27541 7.75101H9.17541C9.17541 8.18244 9.08151 8.49252 8.90961 8.69735L8.98621 8.76164L9.06281 8.82592C9.27653 8.57125 9.37541 8.20758 9.37541 7.75101H9.27541ZM8.98621 8.76164L8.9096 8.69735C8.73999 8.89947 8.49119 9.00628 8.14656 9.00628V9.10628V9.20628C8.53584 9.20628 8.84679 9.08334 9.06281 8.82592L8.98621 8.76164ZM8.14656 9.10628V9.00628H7.80604V9.10628V9.20628H8.14656V9.10628ZM7.80604 9.10628V9.00628C7.73423 9.00628 7.67733 9.00456 7.63457 9.00133C7.58897 8.99789 7.56797 8.99325 7.56234 8.99122L7.5285 9.08532L7.49466 9.17942C7.5279 9.19138 7.5726 9.19722 7.61951 9.20076C7.66927 9.20452 7.7317 9.20628 7.80604 9.20628V9.10628ZM7.5285 9.08532L7.56229 8.99121C7.56273 8.99136 7.56474 8.9922 7.56724 8.99429C7.56977 8.99642 7.57137 8.99864 7.57215 9.00003C7.57335 9.00219 7.57018 8.99788 7.57018 8.98053H7.47018H7.37018C7.37018 9.01907 7.37674 9.06019 7.39738 9.09728C7.41929 9.13665 7.45331 9.16458 7.4947 9.17944L7.5285 9.08532ZM7.47018 8.98053H7.57018C7.57018 8.96619 7.57387 8.9601 7.57932 8.95466C7.58736 8.94663 7.60651 8.93399 7.64764 8.92404L7.62412 8.82684L7.6006 8.72965C7.53911 8.74453 7.48129 8.76992 7.43802 8.81312C7.39215 8.85891 7.37018 8.91724 7.37018 8.98053H7.47018ZM7.62412 8.82684L7.64604 8.92441L7.83262 8.8825L7.81071 8.78493L7.78879 8.68736L7.6022 8.72928L7.62412 8.82684ZM7.81071 8.78493L7.83283 8.88245C8.06964 8.82872 8.24686 8.68313 8.36173 8.45637C8.47439 8.23395 8.52646 7.93552 8.52646 7.56936H8.42646H8.32646C8.32646 7.92044 8.2759 8.18321 8.18331 8.36599C8.09293 8.54441 7.96227 8.64799 7.78858 8.68741L7.81071 8.78493ZM8.42646 7.56936H8.52646V6.29793H8.42646H8.32646V7.56936H8.42646ZM8.42646 6.29793H8.52646C8.52646 5.82932 8.64035 5.52516 8.84114 5.35409L8.77629 5.27797L8.71144 5.20185C8.44577 5.4282 8.32646 5.804 8.32646 6.29793H8.42646ZM8.77629 5.27797L8.84064 5.35451L8.92928 5.27999L8.86493 5.20345L8.80059 5.1269L8.71194 5.20142L8.77629 5.27797ZM8.86493 5.20345L8.92996 5.27942C8.95411 5.25875 8.97606 5.23748 8.9928 5.21599C9.00674 5.19809 9.03023 5.16383 9.03023 5.11961H8.93023H8.83023C8.83023 5.10518 8.83429 5.09569 8.83555 5.09299C8.83694 5.09002 8.83744 5.08998 8.835 5.0931C8.82997 5.09956 8.81928 5.1109 8.79991 5.12748L8.86493 5.20345ZM8.93023 5.11961H9.03023C9.03023 5.0763 9.00939 5.04222 8.99279 5.02091C8.97494 4.99799 8.95169 4.97675 8.92669 4.95712L8.86493 5.03578L8.80318 5.11444C8.81211 5.12145 8.81915 5.12753 8.82457 5.13269C8.83006 5.13791 8.8333 5.14162 8.83501 5.14381C8.83681 5.14613 8.836 5.1456 8.83455 5.14229C8.83306 5.13889 8.83023 5.13097 8.83023 5.11961H8.93023ZM8.86493 5.03578L8.92928 4.95924L8.84064 4.88471L8.77629 4.96126L8.71194 5.03781L8.80059 5.11233L8.86493 5.03578ZM8.77629 4.96126L8.84114 4.88514C8.64035 4.71407 8.52646 4.40991 8.52646 3.94132H8.42646H8.32646C8.32646 4.43523 8.44577 4.81103 8.71144 5.03738L8.77629 4.96126Z" mask="url(#path-7-outside-4_177_33)"/></clipPath><clipPath id="paint8_diamond_177_33_clip_path"><path fill-rule="evenodd" clip-rule="evenodd" d="M1.9589 3.93037V2.65891C1.9589 2.23043 2.01099 1.93314 2.11516 1.76703C2.21934 1.60092 2.43624 1.47285 2.76589 1.3828C2.86539 1.35486 2.91516 1.30984 2.91516 1.24774C2.91516 1.16391 2.8032 1.12199 2.5793 1.12199H2.23878C1.86871 1.12199 1.58806 1.23687 1.3968 1.46664C1.20555 1.6964 1.10993 2.03172 1.10993 2.47262V3.81393C1.10993 4.12441 1.0765 4.36349 1.00964 4.53116C0.942775 4.69883 0.819163 4.85562 0.638794 5.00154C0.585927 5.04501 0.559494 5.08072 0.559494 5.10866C0.559494 5.1366 0.585927 5.17231 0.638794 5.21579C0.822273 5.36481 0.946663 5.52239 1.01197 5.68849C1.07727 5.85462 1.10993 6.09291 1.10993 6.40339V7.74006C1.10993 8.18406 1.20633 8.52093 1.39914 8.75068C1.59194 8.98045 1.87182 9.09533 2.23878 9.09533H2.5793C2.72545 9.09533 2.81797 9.08835 2.85685 9.07437C2.89572 9.06039 2.91516 9.02547 2.91516 8.96958C2.91516 8.89195 2.86385 8.84072 2.76122 8.81589L2.57464 8.77397C2.16414 8.68083 1.9589 8.27564 1.9589 7.55841V6.28697C1.9589 5.8057 1.84228 5.46572 1.60905 5.26701L1.52042 5.19249C1.47688 5.15524 1.45511 5.12729 1.45511 5.10866C1.45511 5.08693 1.47688 5.05897 1.52042 5.02483L1.60905 4.95031C1.84228 4.7516 1.9589 4.41162 1.9589 3.93037Z"/></clipPath><clipPath id="paint9_diamond_177_33_clip_path"><path d="M2.11516 1.76703L2.03045 1.7139L2.03045 1.7139L2.11516 1.76703ZM2.76589 1.3828L2.79224 1.47927L2.79293 1.47908L2.76589 1.3828ZM1.3968 1.46664L1.47366 1.53061L1.47366 1.53061L1.3968 1.46664ZM0.638794 5.00154L0.575897 4.92379L0.575274 4.9243L0.638794 5.00154ZM0.638794 5.21579L0.575273 5.29302L0.575749 5.29341L0.638794 5.21579ZM1.01197 5.68849L1.10504 5.65191L1.10503 5.6519L1.01197 5.68849ZM1.39914 8.75068L1.47574 8.6864L1.47574 8.6864L1.39914 8.75068ZM2.76122 8.81589L2.78474 8.71868L2.78314 8.71832L2.76122 8.81589ZM2.57464 8.77397L2.55251 8.87149L2.55272 8.87154L2.57464 8.77397ZM1.60905 5.26701L1.6739 5.19089L1.6734 5.19047L1.60905 5.26701ZM1.52042 5.19249L1.4554 5.26848L1.45606 5.26903L1.52042 5.19249ZM1.52042 5.02483L1.58217 5.10356L1.58477 5.10137L1.52042 5.02483ZM1.60905 4.95031L1.6734 5.02685L1.6739 5.02643L1.60905 4.95031ZM1.9589 3.93037H2.0589V2.65891H1.9589H1.8589V3.93037H1.9589ZM1.9589 2.65891H2.0589C2.0589 2.23172 2.11208 1.96017 2.19988 1.82016L2.11516 1.76703L2.03045 1.7139C1.90989 1.90612 1.8589 2.22914 1.8589 2.65891H1.9589ZM2.11516 1.76703L2.19988 1.82017C2.28382 1.68633 2.47033 1.5672 2.79224 1.47927L2.76589 1.3828L2.73954 1.28634C2.40215 1.37849 2.15487 1.51551 2.03045 1.7139L2.11516 1.76703ZM2.76589 1.3828L2.79293 1.47908C2.85027 1.46297 2.90405 1.43922 2.94493 1.40223C2.98886 1.36249 3.01516 1.30951 3.01516 1.24774H2.91516H2.81516C2.81516 1.24948 2.81491 1.24947 2.81514 1.24898C2.81528 1.24868 2.8146 1.25044 2.81074 1.25393C2.80186 1.26197 2.781 1.27469 2.73885 1.28653L2.76589 1.3828ZM2.91516 1.24774H3.01516C3.01516 1.20215 2.99908 1.16018 2.96885 1.12623C2.94048 1.09436 2.90346 1.07371 2.86626 1.05978C2.79315 1.03241 2.69465 1.02199 2.5793 1.02199V1.12199V1.22199C2.68785 1.22199 2.75728 1.23254 2.79613 1.24708C2.8149 1.25411 2.81987 1.25966 2.81948 1.25922C2.81724 1.25671 2.81516 1.25142 2.81516 1.24774H2.91516ZM2.5793 1.12199V1.02199H2.23878V1.12199V1.22199H2.5793V1.12199ZM2.23878 1.12199V1.02199C1.84673 1.02199 1.53464 1.14474 1.31995 1.40266L1.3968 1.46664L1.47366 1.53061C1.64148 1.32901 1.89069 1.22199 2.23878 1.22199V1.12199ZM1.3968 1.46664L1.31995 1.40266C1.10806 1.65721 1.00993 2.0191 1.00993 2.47262H1.10993H1.20993C1.20993 2.04434 1.30304 1.73559 1.47366 1.53061L1.3968 1.46664ZM1.10993 2.47262H1.00993V3.81393H1.10993H1.20993V2.47262H1.10993ZM1.10993 3.81393H1.00993C1.00993 4.11953 0.976694 4.34379 0.916749 4.49412L1.00964 4.53116L1.10252 4.5682C1.1763 4.38319 1.20993 4.12929 1.20993 3.81393H1.10993ZM1.00964 4.53116L0.916749 4.49412C0.857794 4.64196 0.746659 4.78565 0.575899 4.92379L0.638794 5.00154L0.701689 5.07928C0.891666 4.92559 1.02776 4.75569 1.10252 4.5682L1.00964 4.53116ZM0.638794 5.00154L0.575274 4.9243C0.545528 4.94877 0.518905 4.97446 0.498945 5.00143C0.479956 5.02708 0.459494 5.06394 0.459494 5.10866H0.559494H0.659494C0.659494 5.11753 0.657404 5.12316 0.656802 5.12461C0.656241 5.12596 0.656608 5.12459 0.659693 5.12042C0.666166 5.11168 0.679193 5.09779 0.702314 5.07877L0.638794 5.00154ZM0.559494 5.10866H0.459494C0.459494 5.15338 0.479956 5.19024 0.498945 5.21589C0.518905 5.24286 0.545528 5.26856 0.575274 5.29302L0.638794 5.21579L0.702314 5.13855C0.679193 5.11954 0.666166 5.10564 0.659693 5.0969C0.656608 5.09273 0.656241 5.09137 0.656802 5.09272C0.657404 5.09416 0.659494 5.0998 0.659494 5.10866H0.559494ZM0.638794 5.21579L0.575749 5.29341C0.750045 5.43497 0.86162 5.57939 0.918904 5.72508L1.01197 5.68849L1.10503 5.6519C1.03171 5.46539 0.894502 5.29464 0.701839 5.13816L0.638794 5.21579ZM1.01197 5.68849L0.918902 5.72508C0.977431 5.87397 1.00993 6.09757 1.00993 6.40339H1.10993H1.20993C1.20993 6.08826 1.17712 5.83527 1.10504 5.65191L1.01197 5.68849ZM1.10993 6.40339H1.00993V7.74006H1.10993H1.20993V6.40339H1.10993ZM1.10993 7.74006H1.00993C1.00993 8.19663 1.10882 8.5603 1.32254 8.81496L1.39914 8.75068L1.47574 8.6864C1.30384 8.48156 1.20993 8.17149 1.20993 7.74006H1.10993ZM1.39914 8.75068L1.32253 8.81496C1.53855 9.07239 1.8495 9.19533 2.23878 9.19533V9.09533V8.99533C1.89415 8.99533 1.64534 8.88852 1.47574 8.6864L1.39914 8.75068ZM2.23878 9.09533V9.19533H2.5793V9.09533V8.99533H2.23878V9.09533ZM2.5793 9.09533V9.19533C2.65364 9.19533 2.71607 9.19356 2.76583 9.18981C2.81275 9.18626 2.85744 9.18042 2.89068 9.16847L2.85685 9.07437L2.82301 8.98027C2.81737 8.98229 2.79637 8.98693 2.75077 8.99037C2.70802 8.9936 2.65112 8.99533 2.5793 8.99533V9.09533ZM2.85685 9.07437L2.89068 9.16847C2.93204 9.1536 2.96605 9.12569 2.98796 9.08632C3.0086 9.04923 3.01516 9.00812 3.01516 8.96958H2.91516H2.81516C2.81516 8.98693 2.812 8.99122 2.8132 8.98906C2.81397 8.98767 2.81557 8.98545 2.8181 8.98333C2.82059 8.98125 2.82259 8.98042 2.82301 8.98027L2.85685 9.07437ZM2.91516 8.96958H3.01516C3.01516 8.90629 2.99319 8.84796 2.94733 8.80217C2.90406 8.75897 2.84624 8.73358 2.78474 8.7187L2.76122 8.81589L2.7377 8.91308C2.77883 8.92304 2.79798 8.93568 2.80602 8.9437C2.81147 8.94914 2.81516 8.95524 2.81516 8.96958H2.91516ZM2.76122 8.81589L2.78314 8.71832L2.59656 8.67641L2.57464 8.77397L2.55272 8.87154L2.7393 8.91346L2.76122 8.81589ZM2.57464 8.77397L2.59677 8.67645C2.42307 8.63704 2.29242 8.53346 2.20204 8.35504C2.10946 8.17226 2.0589 7.90949 2.0589 7.55841H1.9589H1.8589C1.8589 7.92456 1.91096 8.223 2.02362 8.44541C2.13849 8.67217 2.31571 8.81776 2.55251 8.87149L2.57464 8.77397ZM1.9589 7.55841H2.0589V6.28697H1.9589H1.8589V7.55841H1.9589ZM1.9589 6.28697H2.0589C2.0589 5.79304 1.93957 5.41724 1.6739 5.19089L1.60905 5.26701L1.54419 5.34313C1.74499 5.51421 1.8589 5.81837 1.8589 6.28697H1.9589ZM1.60905 5.26701L1.6734 5.19047L1.58477 5.11595L1.52042 5.19249L1.45606 5.26903L1.54469 5.34355L1.60905 5.26701ZM1.52042 5.19249L1.58543 5.11651C1.56606 5.09994 1.55536 5.0886 1.55033 5.08215C1.5479 5.07902 1.5484 5.07907 1.54979 5.08204C1.55105 5.08474 1.55511 5.09423 1.55511 5.10866H1.45511H1.35511C1.35511 5.15288 1.3786 5.18713 1.39254 5.20504C1.40928 5.22653 1.43124 5.2478 1.45541 5.26848L1.52042 5.19249ZM1.45511 5.10866H1.55511C1.55511 5.12002 1.55228 5.12793 1.55079 5.13133C1.54934 5.13463 1.54853 5.13516 1.55033 5.13285C1.55204 5.13066 1.55527 5.12696 1.56076 5.12174C1.56617 5.11659 1.5732 5.11051 1.58213 5.10351L1.52042 5.02483L1.4587 4.94614C1.43368 4.96577 1.4104 4.98702 1.39254 5.00995C1.37593 5.03128 1.35511 5.06536 1.35511 5.10866H1.45511ZM1.52042 5.02483L1.58477 5.10137L1.6734 5.02685L1.60905 4.95031L1.54469 4.87377L1.45606 4.94829L1.52042 5.02483ZM1.60905 4.95031L1.6739 5.02643C1.93957 4.80008 2.0589 4.42428 2.0589 3.93037H1.9589H1.8589C1.8589 4.39896 1.74499 4.70311 1.54419 4.87419L1.60905 4.95031Z" mask="url(#path-9-outside-5_177_33)"/></clipPath><linearGradient id="paint0_diamond_177_33" x1="0" y1="0" x2="500" y2="500" gradientUnits="userSpaceOnUse">
<stop stop-color="#7029F5"/>
<stop offset="1" stop-color="#41188F"/>
</linearGradient>
<linearGradient id="paint1_diamond_177_33" x1="0" y1="0" x2="500" y2="500" gradientUnits="userSpaceOnUse">
<stop stop-color="#7029F5"/>
<stop offset="1" stop-color="#41188F"/>
</linearGradient>
<linearGradient id="paint2_diamond_177_33" x1="0" y1="0" x2="500" y2="500" gradientUnits="userSpaceOnUse">
<stop stop-color="#7029F5"/>
<stop offset="1" stop-color="#41188F"/>
</linearGradient>
<linearGradient id="paint3_diamond_177_33" x1="0" y1="0" x2="500" y2="500" gradientUnits="userSpaceOnUse">
<stop stop-color="#7029F5"/>
<stop offset="1" stop-color="#41188F"/>
</linearGradient>
<linearGradient id="paint4_diamond_177_33" x1="0" y1="0" x2="500" y2="500" gradientUnits="userSpaceOnUse">
<stop stop-color="#7029F5"/>
<stop offset="1" stop-color="#41188F"/>
</linearGradient>
<linearGradient id="paint5_diamond_177_33" x1="0" y1="0" x2="500" y2="500" gradientUnits="userSpaceOnUse">
<stop stop-color="#7029F5"/>
<stop offset="1" stop-color="#41188F"/>
</linearGradient>
<linearGradient id="paint6_diamond_177_33" x1="0" y1="0" x2="500" y2="500" gradientUnits="userSpaceOnUse">
<stop stop-color="#7029F5"/>
<stop offset="1" stop-color="#41188F"/>
</linearGradient>
<linearGradient id="paint7_diamond_177_33" x1="0" y1="0" x2="500" y2="500" gradientUnits="userSpaceOnUse">
<stop stop-color="#7029F5"/>
<stop offset="1" stop-color="#41188F"/>
</linearGradient>
<linearGradient id="paint8_diamond_177_33" x1="0" y1="0" x2="500" y2="500" gradientUnits="userSpaceOnUse">
<stop stop-color="#7029F5"/>
<stop offset="1" stop-color="#41188F"/>
</linearGradient>
<linearGradient id="paint9_diamond_177_33" x1="0" y1="0" x2="500" y2="500" gradientUnits="userSpaceOnUse">
<stop stop-color="#7029F5"/>
<stop offset="1" stop-color="#41188F"/>
</linearGradient>
<clipPath id="clip0_177_33">
<rect width="10" height="10" fill="white" transform="translate(0.184494 0.184494)"/>
</clipPath>
</defs>
</svg>
